<svg width="579" height="395" viewBox="0 0 579 395" fill="none" xmlns="http://www.w3.org/2000/svg">
<g clip-path="url(#clip0_442_1822)">
<rect x="315" y="103" width="84" height="87" fill="white"/>
<path d="M167.841 95.245C167.841 54.2521 134.652 21.0234 93.7073 21.0234C52.763 21.0234 19.5898 54.2521 19.5898 95.245C19.5898 131.375 45.3804 161.459 79.5411 168.089L93.2702 201.188L107.647 168.137C141.921 161.605 167.857 131.472 167.857 95.245H167.841Z" fill="white" stroke="#303030" stroke-width="2" stroke-linecap="round" stroke-linejoin="round"/>
<path d="M221.816 286.48L243.009 345.287C243.009 345.287 252.901 334.783 256.738 332.157C260.575 329.532 267.634 325.285 270.467 323.875C273.3 322.464 274.709 321.443 274.709 321.443L277.137 310.94C277.137 310.94 297.52 283.854 297.116 284.47C296.711 285.086 305.194 320.244 305.194 320.244C305.194 320.244 311.444 324.896 314.876 325.495C318.308 326.095 327.796 326.306 334.045 326.306C340.294 326.306 353.829 325.495 353.829 325.495C353.829 325.495 358.071 331.558 357.86 340.456C357.65 349.355 351.611 364.3 351.611 364.3L481.6 361.674C481.6 361.674 488.06 330.358 487.461 275.798C486.862 221.238 484.433 202.241 475.95 191.932C467.466 181.623 445.075 166.468 444.266 166.063C443.456 165.657 400.877 143.84 400.877 143.84C400.877 143.84 374.439 182.839 353.246 180.813C332.054 178.787 333.268 167.683 333.268 167.683L333.867 164.053L320.348 159.806C320.348 159.806 298.751 167.084 292.696 170.52C286.641 173.956 281.994 177.182 277.558 185.076C273.122 192.97 221.849 286.512 221.849 286.512L221.816 286.48Z" fill="#EDE3FE"/>
<path d="M363.106 65.1937C361.406 64.3022 352.21 64.3833 344.536 63.1676C336.862 61.9519 340.294 65.3396 329.998 64.2536C319.701 63.1676 309.21 60.3472 302.556 56.1004C295.902 51.8536 293.878 47.6068 296.306 42.7603C298.735 37.9138 300.953 33.8615 307.817 32.0461C317.904 18.9167 321.741 16.8906 330.823 13.8594C339.906 10.8283 355.853 15.2696 355.853 15.2696C355.853 15.2696 376.236 18.4953 381.077 32.2406C385.917 45.9859 390.354 76.0863 390.354 76.0863L380.267 83.9639C380.267 83.9639 371.185 69.4081 363.106 65.1775V65.1937Z" fill="#B499E5"/>
<path d="M62.4428 89.9928C62.4428 89.9928 71.412 86.1513 75.9776 84.4007C80.5431 82.6501 88.0391 80.8023 88.0391 80.8023C88.0391 80.8023 91.1475 82.0504 97.6559 79.6514C104.164 77.2525 110.673 73.0057 110.673 73.0057C110.673 73.0057 112.81 80.008 116.452 84.6276C120.095 89.2472 126.344 92.8294 126.344 92.8294C126.344 92.8294 128.595 83.7685 126.636 71.871C124.677 59.9735 113.506 55.7268 113.506 55.7268C113.506 55.7268 99.4692 42.0787 85.1249 47.0062C70.7806 51.9338 57.0678 54.5921 62.4428 90.009V89.9928Z" fill="#FFAE63"/>
<path d="M298.266 65.9219C298.687 91.5647 302.799 127.533 307.041 140.273C311.282 153.013 322.324 164.214 336.037 164.068C349.75 163.922 375.087 148.637 383.425 127.808" fill="white"/>
<path d="M298.266 65.9219C298.687 91.5647 302.799 127.533 307.041 140.273C311.282 153.013 322.324 164.214 336.037 164.068C349.75 163.922 375.087 148.637 383.425 127.808" stroke="#303030" stroke-width="2" stroke-linecap="round" stroke-linejoin="round"/>
<path d="M320.059 135.184H336.896C336.896 135.184 334.921 144.39 328.477 144.244C322.034 144.099 320.059 135.184 320.059 135.184Z" stroke="#303030" stroke-width="2" stroke-linecap="round" stroke-linejoin="round"/>
<path d="M322.6 98.0645C322.6 98.0645 322.179 106.85 315.379 114.987L322.6 122.281" stroke="#303030" stroke-width="2" stroke-linecap="round" stroke-linejoin="round"/>
<path d="M341.555 96.234C342.494 96.234 343.255 95.472 343.255 94.532C343.255 93.5921 342.494 92.8301 341.555 92.8301C340.617 92.8301 339.855 93.5921 339.855 94.532C339.855 95.472 340.617 96.234 341.555 96.234Z" stroke="#303030" stroke-width="2" stroke-linecap="round" stroke-linejoin="round"/>
<path d="M311.037 95.3105C311.994 95.3105 312.769 94.534 312.769 93.5762C312.769 92.6183 311.994 91.8418 311.037 91.8418C310.08 91.8418 309.305 92.6183 309.305 93.5762C309.305 94.534 310.08 95.3105 311.037 95.3105Z" stroke="#303030" stroke-width="2" stroke-linecap="round" stroke-linejoin="round"/>
<path d="M293.601 118.182C287.805 123.985 282.996 130.922 283.838 137.584C284.68 144.246 294.443 148.493 294.443 148.493" stroke="#303030" stroke-width="2" stroke-linecap="round" stroke-linejoin="round"/>
<path d="M299.753 156.419C302.212 156.419 304.205 154.423 304.205 151.961C304.205 149.5 302.212 147.504 299.753 147.504C297.294 147.504 295.301 149.5 295.301 151.961C295.301 154.423 297.294 156.419 299.753 156.419Z" stroke="#303030" stroke-width="2" stroke-linecap="round" stroke-linejoin="round"/>
<path d="M315.395 51.0586C315.54 51.0586 338.319 65.6468 359.674 63.102" stroke="#303030" stroke-width="2" stroke-linecap="round" stroke-linejoin="round"/>
<path d="M364.336 65.9219C364.757 66.4892 375.102 72.0489 377.207 80.7856" stroke="#303030" stroke-width="2" stroke-linecap="round" stroke-linejoin="round"/>
<path d="M381.74 82.6348C381.74 82.6348 374.519 87.0274 375.944 102.037C377.369 117.047 390.369 119.592 390.369 119.592" stroke="#303030" stroke-width="2" stroke-linecap="round" stroke-linejoin="round"/>
<path d="M391.922 116.771L393.185 131.927" stroke="#303030" stroke-width="2" stroke-linecap="round" stroke-linejoin="round"/>
<path d="M389.656 83.4775C389.656 83.4775 382.581 87.157 383.439 99.4759C384.297 111.795 389.948 119.867 399.289 120.288C408.631 120.71 414.135 108.115 413.86 97.0608C413.585 86.0062 407.077 79.9277 407.077 79.9277" stroke="#303030" stroke-width="2" stroke-linecap="round" stroke-linejoin="round"/>
<path d="M403.661 75.2749C403.936 60.4111 401.119 14.3773 361.648 16.3548" stroke="#303030" stroke-width="2" stroke-linecap="round" stroke-linejoin="round"/>
<path d="M366.457 21.1699C377.061 22.0128 390.936 41.8528 390.37 75.9892" stroke="#303030" stroke-width="2" stroke-linecap="round" stroke-linejoin="round"/>
<path d="M356.128 16.2905C356.128 16.2905 341.833 8.7046 329.107 13.9401C316.382 19.1757 310.295 30.0844 310.295 30.0844C310.295 30.0844 293.603 33.9098 294.445 44.1053C295.287 54.3008 308.87 65.3555 330.937 65.9228" stroke="#303030" stroke-width="2" stroke-linecap="round" stroke-linejoin="round"/>
<path d="M314.683 163.502C313.971 163.648 299.481 168.608 294.429 170.439C289.378 172.271 279.599 178.512 276.637 185.174C273.674 191.835 228.391 281.342 228.391 281.342" stroke="#303030" stroke-width="2" stroke-linecap="round" stroke-linejoin="round"/>
<path d="M289.1 225.826C288.938 225.972 296.58 272.006 298.28 285.589C299.98 299.172 304.222 315.187 304.222 315.187" stroke="#303030" stroke-width="2" stroke-linecap="round" stroke-linejoin="round"/>
<path d="M274.789 244.516C274.935 245.083 288.372 263.075 288.372 263.075" stroke="#303030" stroke-width="2" stroke-linecap="round" stroke-linejoin="round"/>
<path d="M293.037 288.426C292.47 288.993 278.32 309.676 278.32 309.676" stroke="#303030" stroke-width="2" stroke-linecap="round" stroke-linejoin="round"/>
<path d="M241.262 319.027C241.262 319.027 248.337 325.398 251.299 330.212" stroke="#303030" stroke-width="2" stroke-linecap="round" stroke-linejoin="round"/>
<path d="M348.779 327.1C337.041 327.376 328.121 327.246 322.6 327.1C317.079 326.954 308.871 324.685 303.496 323.275C298.121 321.865 292.325 319.741 284.829 319.871C277.333 320.001 269.545 323.696 265.595 326.241C261.645 328.786 243.949 345.368 243.949 345.368" stroke="#303030" stroke-width="2" stroke-linecap="round" stroke-linejoin="round"/>
<path d="M285.684 329.223C278.334 331.913 269.413 334.458 263.197 340.974C256.98 347.49 252.155 353.439 250.326 355.708C248.496 357.978 245.096 362.224 248.205 365.061C251.313 367.898 257.255 365.061 257.255 365.061" stroke="#303030" stroke-width="2" stroke-linecap="round" stroke-linejoin="round"/>
<path d="M298.265 337.992C288.082 339.84 282.415 341.51 274.223 347.75C266.031 353.991 262.761 356.39 260.931 358.951C259.102 361.512 258.389 366.455 260.931 367.866C263.473 369.276 267.148 368.011 271.536 365.029C275.923 362.047 286.252 351.43 304.919 348.463" stroke="#303030" stroke-width="2" stroke-linecap="round" stroke-linejoin="round"/>
<path d="M304.206 349.469C303.931 349.615 289.214 358.951 284.973 361.366C280.731 363.781 278.756 366.326 280.585 369.73C282.415 373.134 285.41 372.988 292.048 370.573C298.686 368.158 318.211 357.395 318.211 357.395" stroke="#303030" stroke-width="2" stroke-linecap="round" stroke-linejoin="round"/>
<path d="M309.581 374.544L256.543 393.233L73.6294 380.769L72.4961 372.34L255.539 384.594L282.091 377.089" stroke="#303030" stroke-width="2" stroke-linecap="round" stroke-linejoin="round"/>
<path d="M255.539 384.594V393.379" stroke="#303030" stroke-width="2" stroke-linecap="round" stroke-linejoin="round"/>
<path d="M254.552 378.646L212.863 260.838C211.973 258.326 209.69 256.575 207.035 256.364L35.4543 243.073C30.5488 242.7 26.906 247.531 28.6222 252.15L70.9264 366.311" fill="white"/>
<path d="M254.552 378.646L212.863 260.838C211.973 258.326 209.69 256.575 207.035 256.364L35.4543 243.073C30.5488 242.7 26.906 247.531 28.6222 252.15L70.9264 366.311" stroke="#303030" stroke-width="2" stroke-linecap="round" stroke-linejoin="round"/>
<path d="M134.195 311.312C135.716 312.625 136.72 314.83 136.72 317.342C136.72 321.362 134.162 324.62 130.989 324.62C127.816 324.62 125.258 321.362 125.258 317.342C125.258 316.029 125.533 314.797 126.003 313.744" stroke="#303030" stroke-width="2" stroke-linecap="round" stroke-linejoin="round"/>
<path d="M425.16 235.129C425.16 235.129 426.86 245.697 426.488 264.581C426.115 283.464 425.856 307.632 425.856 307.632" stroke="#303030" stroke-width="2" stroke-linecap="round" stroke-linejoin="round"/>
<path d="M435.343 314.068C434.777 314.068 353.859 323.129 353.859 323.129C353.859 323.129 359.526 329.743 359.137 340.505C358.749 351.268 353.859 356.18 353.859 356.18" stroke="#303030" stroke-width="2" stroke-linecap="round" stroke-linejoin="round"/>
<path d="M380.266 330.213C380.266 330.213 386.483 341.268 381.771 356.18" stroke="#303030" stroke-width="2" stroke-linecap="round" stroke-linejoin="round"/>
<path d="M324.445 362.971H577.38" stroke="#303030" stroke-width="2" stroke-linecap="round" stroke-linejoin="round"/>
<path d="M333.867 172.806C333.867 172.806 337.834 184.331 351.595 185.838C365.357 187.345 386.76 173.373 398.594 150.713" stroke="#303030" stroke-width="2" stroke-linecap="round" stroke-linejoin="round"/>
<path d="M396.488 140.711C396.861 141.278 404.405 145.849 416.289 151.976C428.172 158.103 447.6 168.477 458.722 176.031C469.845 183.584 474.945 188.868 479.85 198.318C484.756 207.768 487.2 218.531 487.961 234.205C488.722 249.879 487.022 293.125 487.961 305.217C488.9 317.309 486.261 332.594 485.128 340.91C483.995 349.225 481.55 360.928 481.55 360.928" stroke="#303030" stroke-width="2" stroke-linecap="round" stroke-linejoin="round"/>
<path d="M337.527 170.73V164.068" stroke="#303030" stroke-width="2" stroke-linecap="round" stroke-linejoin="round"/>
<path d="M69.6328 87.4318C69.6328 87.4318 86.3408 80.4133 93.2539 71.8711" stroke="#303030" stroke-width="2" stroke-linecap="round" stroke-linejoin="round"/>
<path d="M93.2539 80.7868C93.2539 80.7868 104.554 75.9078 109.395 69.0352" stroke="#303030" stroke-width="2" stroke-linecap="round" stroke-linejoin="round"/>
<path d="M112.824 75.9727C112.824 75.9727 114.33 83.4775 120.093 89.2479" stroke="#303030" stroke-width="2" stroke-linecap="round" stroke-linejoin="round"/>
<path d="M126.361 92.8292C126.361 92.8292 128.984 80.3482 126.361 70.6551C123.739 60.9621 119.092 55.6941 112.843 55.6941C109.006 44.3801 97.511 45.1906 87.6189 46.6008C77.7269 48.011 63.3988 51.885 60.9703 65.9059C58.5418 79.9267 60.9703 93.5586 60.9703 93.5586C60.9703 93.5586 53.102 95.4875 55.5143 104.386C57.9266 113.285 65.8111 113.074 65.8111 113.074C65.8111 113.074 66.6206 117.127 66.8149 122.281C67.0092 127.436 69.4377 146.222 92.4435 146.222C115.449 146.222 121.715 123.675 121.715 119.785V113.674C121.715 113.674 133.226 111.048 132.821 103.171C132.416 95.293 126.361 92.813 126.361 92.813V92.8292Z" stroke="#303030" stroke-width="2" stroke-linecap="round" stroke-linejoin="round"/>
<path d="M81.4509 99.4598C82.2199 99.4598 82.8433 98.8357 82.8433 98.0659C82.8433 97.296 82.2199 96.6719 81.4509 96.6719C80.682 96.6719 80.0586 97.296 80.0586 98.0659C80.0586 98.8357 80.682 99.4598 81.4509 99.4598Z" stroke="#303030" stroke-width="2" stroke-linecap="round" stroke-linejoin="round"/>
<path d="M105.443 99.4598C106.212 99.4598 106.835 98.8357 106.835 98.0659C106.835 97.296 106.212 96.6719 105.443 96.6719C104.674 96.6719 104.051 97.296 104.051 98.0659C104.051 98.8357 104.674 99.4598 105.443 99.4598Z" stroke="#303030" stroke-width="2" stroke-linecap="round" stroke-linejoin="round"/>
<path d="M94.565 103.172C93.286 107.986 89.9023 112.654 89.9023 112.654L94.565 114.988" stroke="#303030" stroke-width="2" stroke-linecap="round" stroke-linejoin="round"/>
<path d="M86.2076 123.287H101.313C101.313 123.287 98.35 131.213 93.7521 131.213C89.1542 131.213 86.1914 123.287 86.1914 123.287H86.2076Z" stroke="#303030" stroke-width="2" stroke-linecap="round" stroke-linejoin="round"/>
<path d="M26.9375 1.62109L30.904 14.0859" stroke="#303030" stroke-width="2" stroke-linecap="round" stroke-linejoin="round"/>
<path d="M11.3789 10.8281L20.2834 19.7431" stroke="#303030" stroke-width="2" stroke-linecap="round" stroke-linejoin="round"/>
<path d="M1.61719 27.2637L15.8319 30.5217" stroke="#303030" stroke-width="2" stroke-linecap="round" stroke-linejoin="round"/>
</g>
<defs>
<clipPath id="clip0_442_1822">
<rect width="579" height="395" fill="white"/>
</clipPath>
</defs>
</svg>
