<svg width="167" height="271" viewBox="0 0 167 271" fill="none" xmlns="http://www.w3.org/2000/svg">
<path d="M146.444 125.21C146.444 159.106 85.0892 270.036 85.0892 270.036C85.0892 270.036 23.7344 159.106 23.7344 125.21C23.7344 91.3139 51.201 63.8301 85.0892 63.8301C118.977 63.8301 146.444 91.308 146.444 125.21Z" fill="#A296E9"/>
<path d="M85.0878 174.262C113.072 174.262 135.758 151.567 135.758 123.572C135.758 95.5758 113.072 72.8809 85.0878 72.8809C57.1036 72.8809 34.418 95.5758 34.418 123.572C34.418 151.567 57.1036 174.262 85.0878 174.262Z" fill="#F0EBFA"/>
<path d="M85.0886 171.133C111.345 171.133 132.63 149.839 132.63 123.572C132.63 97.3047 111.345 76.0107 85.0886 76.0107C58.832 76.0107 37.5469 97.3047 37.5469 123.572C37.5469 149.839 58.832 171.133 85.0886 171.133Z" fill="white"/>
<g clip-path="url(#clip0_442_905)">
<path d="M91.4322 139.853H78.3309C77.0889 139.853 76.082 140.869 76.082 142.123C76.082 143.377 77.0889 144.393 78.3309 144.393H91.4322C92.6742 144.393 93.6811 143.377 93.6811 142.123C93.6811 140.869 92.6742 139.853 91.4322 139.853Z" stroke="#B499E5" stroke-width="2" stroke-linecap="round" stroke-linejoin="round"/>
<path d="M91.4322 144.408H78.3309C77.0889 144.408 76.082 145.425 76.082 146.679C76.082 147.933 77.0889 148.949 78.3309 148.949H91.4322C92.6742 148.949 93.6811 147.933 93.6811 146.679C93.6811 145.425 92.6742 144.408 91.4322 144.408Z" stroke="#B499E5" stroke-width="2" stroke-linecap="round" stroke-linejoin="round"/>
<path d="M90.0599 149.409C90.0599 152.115 87.8894 154.32 85.196 154.32C82.5025 154.32 80.332 152.128 80.332 149.409" stroke="#B499E5" stroke-width="2" stroke-linecap="round" stroke-linejoin="round"/>
<path d="M84.8828 139.392V123.843" stroke="#B499E5" stroke-width="2" stroke-linecap="round" stroke-linejoin="round"/>
<path d="M91.903 122.708L88.0328 126.615L84.9079 123.46L81.796 126.615L77.9258 122.708" stroke="#B499E5" stroke-width="2" stroke-linecap="round" stroke-linejoin="round"/>
<path d="M101.1 116.306C101.1 106.96 93.2808 99.4625 83.8798 100.123C75.8517 100.677 69.3796 107.33 68.9743 115.448C68.7128 120.675 70.8963 125.401 74.4658 128.542C77.2377 130.971 78.8198 134.509 78.8198 138.205V139.538H91.228V138.205C91.228 134.456 92.9016 130.945 95.6735 128.45C98.9946 125.48 101.1 121.137 101.1 116.306Z" stroke="#B499E5" stroke-width="2" stroke-linecap="round" stroke-linejoin="round"/>
<path d="M85.0312 95.5149V90.9609" stroke="#B499E5" stroke-width="2" stroke-linecap="round" stroke-linejoin="round"/>
<path d="M106.184 116.794H110.694" stroke="#B499E5" stroke-width="2" stroke-linecap="round" stroke-linejoin="round"/>
<path d="M59.3086 116.794H63.8195" stroke="#B499E5" stroke-width="2" stroke-linecap="round" stroke-linejoin="round"/>
<path d="M99.8672 101.692L103.058 98.4707" stroke="#B499E5" stroke-width="2" stroke-linecap="round" stroke-linejoin="round"/>
<path d="M66.6445 135.233L69.8348 132.013" stroke="#B499E5" stroke-width="2" stroke-linecap="round" stroke-linejoin="round"/>
<path d="M69.9534 101.692L66.75 98.4707" stroke="#B499E5" stroke-width="2" stroke-linecap="round" stroke-linejoin="round"/>
<path d="M103.175 135.233L99.9844 132.013" stroke="#B499E5" stroke-width="2" stroke-linecap="round" stroke-linejoin="round"/>
</g>
<path d="M18.144 5.69662C18.696 6.51262 19.56 7.95262 20.04 8.86462L19.128 9.27262L20.304 10.0166C20.136 10.3526 20.04 10.7366 19.944 11.2166C19.416 13.7366 18.264 17.6006 16.368 20.0726C14.16 22.8806 11.304 25.1126 6.912 26.4806L5.28 24.6806C9.936 23.5286 12.624 21.4886 14.64 18.9206C16.344 16.7366 17.448 13.4006 17.784 11.0966H5.496C4.56 11.0966 3.72 11.1446 3.12 11.1686V9.03262C3.768 9.12862 4.728 9.20062 5.52 9.20062H17.544C17.856 9.20062 18.216 9.20062 18.576 9.12862C18.072 8.19262 17.376 7.01662 16.824 6.24862L18.144 5.69662ZM21.216 5.07262C21.816 5.88862 22.68 7.32862 23.184 8.24062L21.864 8.81662C21.336 7.83262 20.544 6.46462 19.896 5.62462L21.216 5.07262ZM29.544 7.76062C30.168 7.85662 30.936 7.88062 31.704 7.88062H41.136C41.904 7.88062 42.744 7.85662 43.32 7.76062V9.75262C42.744 9.70462 41.928 9.68062 41.112 9.68062H31.704C30.96 9.68062 30.192 9.70462 29.544 9.75262V7.76062ZM45.072 14.0966C44.952 14.3126 44.808 14.6246 44.76 14.7926C44.112 17.1686 43.032 19.6646 41.256 21.6086C38.736 24.3686 35.736 25.7846 32.664 26.6246L31.176 24.9206C34.584 24.2246 37.584 22.6886 39.624 20.5286C41.088 18.9926 42.048 16.9526 42.48 15.2246H29.736C29.16 15.2246 28.248 15.2486 27.384 15.2966V13.2806C28.272 13.3766 29.088 13.4246 29.736 13.4246H42.384C42.936 13.4246 43.44 13.3766 43.704 13.2326L45.072 14.0966ZM53.448 8.04862C55.152 9.17662 58.224 11.6726 59.568 13.0166L58.056 14.5286C56.856 13.2806 53.856 10.7126 52.08 9.51262L53.448 8.04862ZM51.384 24.1286C55.584 23.5046 58.704 22.0406 60.984 20.6246C64.68 18.2966 67.608 14.7446 69 11.7926L70.152 13.8326C68.52 16.8326 65.712 20.0966 62.088 22.3766C59.688 23.8886 56.664 25.3526 52.656 26.0966L51.384 24.1286ZM76.872 8.09662C77.568 8.16862 78.288 8.24062 79.056 8.24062H87.36C88.056 8.24062 88.896 8.19262 89.592 8.09662V10.0886C88.896 10.0406 88.056 10.0166 87.36 10.0166H79.08C78.288 10.0166 77.496 10.0406 76.872 10.0886V8.09662ZM74.04 14.1206C74.688 14.1926 75.36 14.2406 76.104 14.2406H91.824C92.328 14.2406 93.12 14.2166 93.696 14.1206V16.1126C93.168 16.0886 92.4 16.0646 91.824 16.0646H85.296C85.224 18.6566 84.84 20.8406 83.88 22.6406C83.016 24.2246 81.192 25.9526 79.152 27.0086L77.376 25.6886C79.248 24.9206 80.976 23.5286 81.912 22.0166C82.968 20.3606 83.232 18.3446 83.304 16.0646H76.104C75.384 16.0646 74.688 16.0646 74.04 16.1126V14.1206ZM90.84 6.15262C91.44 6.99262 92.328 8.45662 92.808 9.44062L91.512 10.0166C91.032 9.03262 90.216 7.59262 89.568 6.68062L90.84 6.15262ZM93.48 5.19262C94.104 6.05662 95.04 7.56862 95.496 8.45662L94.2 9.03262C93.672 7.97662 92.904 6.63262 92.208 5.72062L93.48 5.19262ZM97.2405 19.4486C100.409 18.7046 103.937 17.0246 105.881 15.8246C108.161 14.4326 110.369 12.4646 111.593 10.9286L113.081 12.3686C111.881 13.6886 109.841 15.4406 107.657 16.8566V25.4006C107.657 26.1446 107.681 27.1286 107.777 27.5126H105.569C105.617 27.1286 105.665 26.1446 105.665 25.4006V18.0566C103.649 19.1366 100.865 20.3846 98.1525 21.2246L97.2405 19.4486ZM123.761 8.04862C125.465 9.17662 128.537 11.6726 129.881 13.0166L128.369 14.5286C127.169 13.2806 124.169 10.7126 122.393 9.51262L123.761 8.04862ZM121.697 24.1286C125.897 23.5046 129.017 22.0406 131.297 20.6246C134.993 18.2966 137.921 14.7446 139.313 11.7926L140.465 13.8326C138.833 16.8326 136.025 20.0966 132.401 22.3766C130.001 23.8886 126.977 25.3526 122.969 26.0966L121.697 24.1286ZM160.673 6.44062C161.273 7.30462 162.137 8.74462 162.641 9.72862L161.345 10.3046C160.865 9.34462 160.049 7.88062 159.401 6.99262L160.673 6.44062ZM163.313 5.48062C163.937 6.36862 164.873 7.85662 165.329 8.74462L164.033 9.32062C163.505 8.28862 162.713 6.92062 162.041 6.03262L163.313 5.48062ZM154.217 7.59262C153.833 8.21662 153.401 9.03262 153.161 9.46462C152.993 9.80062 152.801 10.1366 152.609 10.4726H159.113C159.761 10.4726 160.289 10.4006 160.673 10.2566L162.257 11.2166C162.065 11.5526 161.825 12.1046 161.705 12.4886C161.057 14.9126 159.593 18.1526 157.457 20.7686C155.273 23.4326 152.393 25.6166 147.905 27.2966L146.153 25.7126C150.569 24.4166 153.569 22.2566 155.753 19.6886C157.601 17.5046 159.089 14.3846 159.569 12.2006H151.481C150.017 14.2406 148.025 16.3766 145.385 18.1046L143.729 16.8806C147.857 14.4086 150.209 10.9046 151.265 8.76862C151.505 8.33662 151.865 7.47262 152.009 6.84862L154.217 7.59262ZM22.296 40.4246C22.056 40.6886 21.84 40.9526 21.696 41.1686C19.968 43.9766 16.92 47.8886 12.96 50.9126C14.4 52.3526 16.104 54.1526 17.064 55.3286L15.312 56.7206C14.424 55.4966 12.504 53.3846 10.992 51.8246C9.552 50.3846 6.768 47.9846 5.496 47.0966L7.056 45.8246C7.944 46.4726 9.912 48.0806 11.544 49.5446C15.072 46.9046 17.832 43.3766 19.032 41.2166H4.92C3.984 41.2166 2.952 41.3126 2.472 41.3606V39.2006C3.144 39.2966 4.08 39.3926 4.92 39.3926H19.224C19.896 39.3926 20.448 39.3206 20.784 39.2006L22.296 40.4246ZM26.448 45.2486C27.168 45.2966 28.44 45.3686 29.784 45.3686H42.936C44.136 45.3686 45 45.2966 45.528 45.2486V47.6006C45.048 47.5766 44.04 47.4806 42.96 47.4806H29.784C28.464 47.4806 27.192 47.5286 26.448 47.6006V45.2486ZM57.888 37.0886C57.696 37.6406 57.456 38.2646 57.288 38.7686C57.048 39.4646 56.76 40.3286 56.376 41.1926H67.704C68.304 41.1926 69.264 41.1686 69.96 41.0726V43.1366C69.192 43.0886 68.256 43.0646 67.704 43.0646H63.648C63.264 49.9286 60.576 53.9366 56.448 56.5766L54.408 55.1846C55.08 54.9206 55.824 54.5126 56.352 54.0806C58.704 52.3046 61.296 49.1606 61.632 43.0646H55.488C54.504 44.8646 52.896 47.0486 51.48 48.2006L49.584 47.0726C51.312 45.8246 53.04 43.3766 53.856 41.9126C54.528 40.7126 54.96 39.4646 55.224 38.5526C55.416 37.9286 55.536 37.2566 55.584 36.6326L57.888 37.0886ZM76.6913 37.8806C77.3633 37.9526 78.0833 38.0246 78.8513 38.0246H88.5713C89.2433 38.0246 90.1073 37.9766 90.8033 37.8806V39.8726C90.1073 39.8246 89.2673 39.8006 88.5713 39.8006H78.8753C78.0833 39.8006 77.2913 39.8246 76.6913 39.8726V37.8806ZM73.8113 43.9046C74.4833 43.9766 75.1553 44.0246 75.8993 44.0246H91.6193C92.1233 44.0246 92.9153 44.0006 93.4913 43.9046V45.8966C92.9633 45.8726 92.1953 45.8486 91.6193 45.8486H85.0912C85.0193 48.4406 84.6353 50.6246 83.6753 52.4006C82.8113 54.0086 80.9873 55.7366 78.9473 56.7926L77.1713 55.4726C79.0433 54.7046 80.7713 53.3126 81.7073 51.8006C82.7633 50.1206 83.0273 48.1046 83.0993 45.8486H75.8993C75.1793 45.8486 74.4833 45.8486 73.8113 45.8966V43.9046ZM97.0296 49.4486C100.198 48.7046 103.726 47.0246 105.67 45.8246C107.95 44.4326 110.158 42.4646 111.382 40.9286L112.87 42.3686C111.67 43.6886 109.63 45.4406 107.446 46.8566V55.4006C107.446 56.1446 107.47 57.1286 107.566 57.5126H105.358C105.406 57.1286 105.454 56.1446 105.454 55.4006V48.0566C103.438 49.1366 100.654 50.3846 97.9416 51.2246L97.0296 49.4486ZM123.55 38.0486C125.254 39.1766 128.326 41.6726 129.67 43.0166L128.158 44.5286C126.958 43.2806 123.958 40.7126 122.182 39.5126L123.55 38.0486ZM121.486 54.1286C125.686 53.5046 128.806 52.0406 131.086 50.6246C134.782 48.2966 137.71 44.7446 139.102 41.7926L140.254 43.8326C138.622 46.8326 135.814 50.0966 132.19 52.3766C129.79 53.8886 126.766 55.3526 122.758 56.0966L121.486 54.1286ZM160.462 36.4406C161.062 37.3046 161.926 38.7446 162.43 39.7286L161.134 40.3046C160.654 39.3446 159.838 37.8806 159.19 36.9926L160.462 36.4406ZM163.102 35.4806C163.726 36.3686 164.662 37.8566 165.118 38.7446L163.822 39.3206C163.294 38.2886 162.502 36.9206 161.83 36.0326L163.102 35.4806ZM154.006 37.5926C153.622 38.2166 153.19 39.0326 152.95 39.4646C152.782 39.8006 152.59 40.1366 152.398 40.4726H158.902C159.55 40.4726 160.078 40.4006 160.462 40.2566L162.046 41.2166C161.854 41.5526 161.614 42.1046 161.494 42.4886C160.846 44.9126 159.382 48.1526 157.246 50.7686C155.062 53.4326 152.182 55.6166 147.694 57.2966L145.942 55.7126C150.358 54.4166 153.358 52.2566 155.542 49.6886C157.39 47.5046 158.878 44.3846 159.358 42.2006H151.27C149.806 44.2406 147.814 46.3766 145.174 48.1046L143.518 46.8806C147.646 44.4086 149.998 40.9046 151.054 38.7686C151.294 38.3366 151.654 37.4726 151.798 36.8486L154.006 37.5926Z" fill="#303030"/>
<defs>
<clipPath id="clip0_442_905">
<rect width="54" height="66" fill="white" transform="translate(58 89.6406)"/>
</clipPath>
</defs>
</svg>
