<svg width="1030" height="599" viewBox="0 0 1030 599" fill="none" xmlns="http://www.w3.org/2000/svg">
<path d="M219.862 438.163C216.74 436.992 215.865 435.85 216.61 433.898C216.953 432.993 217.615 432.254 218.077 432.254C218.538 432.254 220.566 433.318 222.583 434.62C224.599 435.921 227.059 437.282 228.058 437.643L229.868 438.299L227.638 438.347C226.414 438.37 224.617 438.512 223.641 438.654C222.665 438.796 220.968 438.571 219.862 438.157V438.163ZM212.779 432.165C212.193 431.834 211.212 431.727 210.602 431.916C209.834 432.159 209.242 431.798 208.675 430.733C208.225 429.887 207.415 429.047 206.877 428.864C205.641 428.438 203.057 424.25 201.62 420.345C200.893 418.376 199.917 417.009 198.758 416.347C196.701 415.175 196.553 414.643 198.143 414.14C199.965 413.56 200.308 410.348 198.77 408.189C198.037 407.16 197.653 405.953 197.871 405.379C198.132 404.699 197.416 403.51 195.672 401.735C193.478 399.499 193.07 398.683 192.969 396.322C192.904 394.796 192.532 393.163 192.142 392.69C191.651 392.099 191.55 389.969 191.816 385.757C192.106 381.196 191.935 378.38 191.142 374.458C189.966 368.631 189.362 357.776 189.67 347.868C189.735 345.756 189.463 342.851 189.061 341.42C188.085 337.93 183.603 333.528 178.068 330.612C174.107 328.53 173.551 327.997 172.001 324.797C171.061 322.863 169.27 319.964 168.016 318.361C166.762 316.758 165.402 314.409 164.988 313.137C163.682 309.097 161.375 305.039 159.803 304.01C158.969 303.459 158.011 302.034 157.686 300.845C157.154 298.91 157.295 298.372 158.963 295.947C160.772 293.314 160.796 293.208 159.572 292.888C156.568 292.101 157.834 288.085 163.226 281.276C166.81 276.751 167.862 273.302 166.869 269.321C166.49 267.8 166.153 266.215 166.118 265.795C166.082 265.375 165.81 265.026 165.521 265.026C165.231 265.026 165.284 264.47 165.645 263.795C166.201 262.748 166.065 262.453 164.722 261.843C162.765 260.95 159.809 261.831 159.803 263.31C159.791 265.085 159.01 265.215 156.438 263.872C155.06 263.157 153.629 262.565 153.257 262.565C152.884 262.565 151.441 261.583 150.052 260.382C148.656 259.181 147.172 257.927 146.752 257.59C146.332 257.253 145.984 256.342 145.984 255.567C145.984 254.792 145.44 253.656 144.777 253.059C144.115 252.455 143.252 251.006 142.867 249.835C142.359 248.291 141.974 247.888 141.49 248.373C140.478 249.385 138.976 249.196 135.34 247.587C133.436 246.747 131.455 245.309 130.663 244.197C129.906 243.138 128.463 241.843 127.452 241.316C125.784 240.452 125.37 240.464 122.946 241.387L120.273 242.411L112.078 238.435C107.034 235.992 103.119 233.661 101.907 232.378C100.027 230.39 99.9674 230.171 100.594 227.71C101.168 225.451 101.067 224.753 99.8255 222.179C99.0391 220.558 97.3301 218.068 96.0174 216.648C94.7047 215.228 93.7823 213.821 93.9656 213.525C94.1489 213.229 93.2264 211.247 91.9137 209.118C90.4236 206.698 89.377 204.101 89.1168 202.208C88.7797 199.777 88.3954 199.032 87.1595 198.47C85.8527 197.872 85.4861 197.949 84.7351 198.972C83.6826 200.416 83.9783 201.936 86.3139 206.976C87.26 209.023 88.2416 212.064 88.49 213.726C88.7383 215.388 89.4775 217.796 90.1279 219.068C91.6713 222.091 90.6719 222.037 88.2416 218.967C86.8106 217.157 86.4204 216.163 86.7042 215.027C87.0058 213.815 86.7042 213.229 85.22 212.129C82.9612 210.455 82.4822 209.378 83.3101 207.828C83.7949 206.923 83.5702 205.929 82.3403 203.504C81.0926 201.037 80.8325 199.848 81.1399 198.014C81.6426 195.021 80.3062 192.317 77.8049 191.276C76.3621 190.679 75.8654 190.01 75.5698 188.271C75.3628 187.041 74.9607 185.136 74.6828 184.041C74.393 182.9 74.4108 181.9 74.7301 181.705C75.0376 181.516 74.8365 180.67 74.2866 179.83C73.4765 178.587 73.4174 178.002 73.9968 176.742C74.3871 175.884 74.535 174.908 74.3221 174.565C74.1092 174.222 74.6355 173.21 75.487 172.305C76.3385 171.4 77.4679 169.602 78.006 168.306C78.5441 167.01 80.182 164.603 81.6603 162.964C83.1386 161.32 85.0071 158.445 85.8172 156.569C86.9407 153.967 87.603 153.162 88.6082 153.15C89.3297 153.15 89.8855 153.487 89.8382 153.907C89.643 155.67 91.0326 155.126 92.5996 152.831C93.5221 151.476 94.0188 150.281 93.7054 150.169C93.392 150.056 93.1318 149.548 93.1318 149.039C93.1318 148.53 91.8605 146.874 90.3053 145.365C87.7272 142.857 87.5616 142.526 88.419 141.579C89.1168 140.81 89.1936 140.248 88.7324 139.42C87.9164 137.965 89.2055 134.705 90.5951 134.694C91.1686 134.694 91.3342 134.493 90.9794 134.232C90.1871 133.653 89.8264 132.327 89.9387 130.399C90.1161 127.323 89.442 126.033 87.1536 125.075C85.9178 124.56 84.0374 123.472 82.9671 122.655C81.8968 121.839 80.5427 121.177 79.9573 121.177C79.3719 121.177 76.6992 120.615 74.0205 119.934C69.7157 118.834 68.9588 118.793 67.4628 119.562C64.3702 121.153 61.1003 121.804 59.7639 121.088C58.7646 120.549 57.6706 120.881 53.8626 122.874C51.2903 124.217 48.2214 125.53 47.0388 125.785C45.8562 126.039 43.5914 126.903 42.0067 127.701C37.5127 129.967 31.0792 132.251 29.2934 132.209C28.1463 132.185 28.9209 131.677 31.978 130.464C37.1757 128.405 42.5152 125.72 43.006 124.921C43.6151 123.939 42.2964 123.584 40.7058 124.306C39.5409 124.838 38.8195 124.791 37.4713 124.081L35.7388 123.17L37.6251 122.194C39.7538 121.094 40.4279 119.846 39.9371 117.893C39.464 116 42.0777 114.616 47.707 113.764C50.7345 113.309 53.0347 112.546 54.584 111.493C57.3158 109.635 56.8487 108.227 53.904 109.446C52.5085 110.026 51.4973 110.032 49.4277 109.476C46.9205 108.801 46.8318 108.701 47.9494 107.884C49.8298 106.512 53.7088 105.684 56.2633 106.115C57.8776 106.388 59.2021 106.198 60.5563 105.494L62.5194 104.477L61.2304 103.104C60.5208 102.347 59.9413 101.566 59.9413 101.365C59.9413 100.797 63.6429 99.6557 65.4937 99.6557C66.4162 99.6557 68.947 98.9872 71.1171 98.1708C73.2873 97.3545 78.2957 96.2364 82.2457 95.6922C88.6496 94.8049 90.0097 94.793 94.8111 95.5916C97.7736 96.0826 101.854 96.6683 103.882 96.8931C105.91 97.1179 109.499 97.8336 111.859 98.4784C117.34 99.981 120.906 99.9633 127.026 98.4015C129.728 97.7094 132.46 97.3131 133.099 97.5142C133.737 97.7153 134.814 97.5793 135.5 97.2125C136.446 96.7038 137.179 96.7688 138.527 97.4669C139.745 98.0998 141.247 98.2773 143.293 98.0348C145.451 97.7804 147.344 98.0466 150.105 98.9754C152.204 99.6852 154.54 100.271 155.291 100.271C156.621 100.271 156.627 100.295 155.462 101.146C154.321 101.986 154.321 102.046 155.391 102.46C156.006 102.696 158.147 102.726 160.146 102.513C163.753 102.134 163.782 102.146 164.793 104.092L165.804 106.05L167.117 104.4C167.874 103.453 169.666 102.377 171.339 101.874C173.864 101.117 174.627 101.117 177.164 101.892C178.955 102.442 181.096 102.637 182.698 102.406C184.738 102.111 185.69 102.294 187.021 103.246C188.706 104.447 188.747 104.447 190.243 103.288C191.077 102.643 192.792 101.827 194.052 101.472C197.073 100.632 198.096 98.8334 196.281 97.5674C194.998 96.6683 195.057 96.5973 198.427 94.9468C200.94 93.7105 202.076 93.4324 202.567 93.9234C203.057 94.4144 203.051 94.9528 202.549 95.8933C201.691 97.4965 202.762 99.9218 204.098 99.4072C204.577 99.2238 205.375 99.2238 205.872 99.419C206.647 99.7148 206.635 99.9692 205.783 101.277C203.418 104.885 208.716 103.862 212.305 100.016C213.766 98.4548 216.025 97.9815 218.142 98.792C219.508 99.3185 219.383 99.7444 217.119 102.229C214.422 105.187 213.039 105.796 208.988 105.796C207.031 105.796 204.719 106.222 203.637 106.778C202.147 107.547 201.419 107.612 200.243 107.08C198.049 106.08 197.286 106.914 198.859 108.588L200.201 110.02L197.523 110.783C196.05 111.203 193.596 111.581 192.077 111.635C189.871 111.706 189.309 111.948 189.309 112.818C189.309 113.563 188.233 114.35 185.927 115.291C178.459 118.343 172.126 123.85 174.42 125.294C174.852 125.566 175.532 126.536 175.934 127.459C176.401 128.518 177.294 129.257 178.382 129.476C179.322 129.665 181.752 130.636 183.78 131.635C185.809 132.635 188.298 133.635 189.309 133.854C192.1 134.463 192.124 134.528 190.823 137.829C189.711 140.651 189.688 141.053 190.551 142.721C191.065 143.721 191.828 144.531 192.242 144.519C194.259 144.46 196.145 142.603 197.316 139.521C198.433 136.587 198.942 136.036 202.153 134.321C206.889 131.789 208.858 129.299 208.332 126.501C207.989 124.679 208.166 124.247 209.727 123.141C210.709 122.442 212.01 120.762 212.619 119.414C213.979 116.403 216.161 115.356 219.839 115.959C223.103 116.491 226.964 118.568 227.431 120.035C227.621 120.638 227.461 121.721 227.077 122.442C226.491 123.537 226.603 123.998 227.739 125.205L229.099 126.654L231.322 125.501C232.546 124.868 234.503 123.632 235.68 122.75L237.815 121.153L238.317 122.508C238.595 123.253 238.672 124.247 238.489 124.714C238.312 125.181 238.448 126.104 238.802 126.761C239.198 127.5 239.228 128.334 238.885 128.95C238.495 129.648 238.755 130.701 239.742 132.446C240.689 134.11 240.746 135.234 239.914 135.818C238.276 136.965 239.329 138.184 241.126 137.22C242.912 136.261 244.952 136.386 246.211 137.527C248.074 139.213 246.525 141.23 241.581 143.555C236.206 146.087 233.806 146.59 226.787 146.649C221.601 146.696 220.915 146.862 215.877 149.276C212.92 150.695 210.502 152.097 210.502 152.393C210.502 153.659 211.436 153.553 215.008 151.861C217.113 150.861 219.827 150.068 221.122 150.068C223.333 150.068 223.41 150.133 222.724 151.423C222.322 152.168 221.465 153.215 220.809 153.742C219.78 154.576 219.721 154.925 220.365 156.339C221.329 158.457 223.848 159.474 226.864 158.965L229.247 158.563L227.414 159.829C226.408 160.527 224.747 161.272 223.724 161.491C222.701 161.71 220.608 162.526 219.064 163.307C217.497 164.094 215.924 164.514 215.499 164.254C214.529 163.65 215.552 162.751 218.715 161.432C221.524 160.255 221.075 159.007 218.047 159.581C216.865 159.799 213.045 161.243 209.544 162.787C204.086 165.189 203.134 165.827 202.821 167.271C202.431 169.051 201.1 169.891 196.417 171.317C194.921 171.773 192.987 172.873 192.112 173.76C191.237 174.648 189.569 175.979 188.405 176.718C187.234 177.457 186.116 178.747 185.915 179.587C185.59 180.971 185.513 181.007 185.099 179.936C184.33 177.937 183.171 179.889 183.106 183.302C183.035 186.798 181.267 189.188 177.376 191.01C173.391 192.885 167.72 197.31 166.573 199.446C165.556 201.333 165.515 202.066 166.141 206.905C166.727 211.425 166.691 212.555 165.923 214.039C165.349 215.146 164.681 215.678 164.125 215.465C162.806 214.956 161.192 209.532 161.647 207.118C161.961 205.444 161.754 204.811 160.506 203.64C159.501 202.693 158.573 202.338 157.786 202.587C157.13 202.794 155.267 202.398 153.647 201.705C151.169 200.641 150.377 200.552 148.603 201.138C147.403 201.534 146.208 202.474 145.818 203.332C145.238 204.61 144.854 204.77 143.246 204.427C142.205 204.202 140.614 203.64 139.698 203.172C137.451 202.025 136.191 202.102 133.666 203.557C132.49 204.237 130.083 205.533 128.327 206.438C126.305 207.479 124.915 208.668 124.548 209.662C124.229 210.531 123.1 213.909 122.029 217.169L120.09 223.102L121.083 226.929C122.905 233.963 125.441 236.069 130.722 234.939C134.701 234.087 137.096 232.354 137.977 229.686C138.533 227.994 139.136 227.432 140.94 226.935C143.654 226.184 144.783 226.155 145.83 226.817C146.687 227.361 146.386 228.26 142.536 236.601C139.893 242.322 140.082 242.836 144.612 242.18C148.733 241.582 152.506 242.044 152.943 243.191C153.115 243.641 152.837 246.658 152.322 249.9C151.406 255.703 151.412 255.833 152.73 257.969C153.47 259.163 154.853 260.548 155.805 261.039C157.325 261.826 157.804 261.826 159.72 261.021C162.765 259.749 164.415 259.885 166.532 261.577C168.223 262.932 168.459 262.967 169.79 262.098C170.576 261.583 171.653 260.299 172.179 259.252C173.367 256.886 175.366 255.224 177.045 255.206C177.749 255.2 178.973 254.502 179.765 253.656C181.38 251.941 184.218 251.379 182.828 253.053C181.664 254.455 180.995 258.968 181.746 260.376C182.373 261.542 182.42 261.536 183.556 260.134C184.366 259.134 184.531 258.489 184.088 258.051C183.029 256.992 183.349 256.117 185.312 254.668C187.352 253.159 188.931 253.313 190.687 255.194C191.976 256.572 198.865 258.436 200.84 257.945C203.844 257.188 211.968 262.133 215.026 266.57C216.48 268.682 221.122 270.811 223.162 270.297C227.36 269.244 233.12 273.45 234.468 278.561C234.87 280.081 235.473 281.501 235.81 281.708C236.709 282.264 235.361 284.476 232.428 287.268C230.553 289.055 230.104 289.824 230.63 290.35C231.157 290.877 232.026 290.416 234.107 288.493C237.135 285.701 238.146 285.417 239.666 286.931C240.588 287.854 240.559 288.043 239.293 289.392C238.542 290.197 237.49 290.871 236.957 290.889C236.396 290.912 236.62 291.179 237.495 291.528C238.696 292.007 239.323 291.871 240.57 290.865C243.817 288.245 244.579 288.114 247.459 289.729C249.334 290.776 250.085 291.575 249.99 292.415C249.73 294.758 250.28 295.278 251.906 294.213C253.195 293.367 254.082 293.326 258.404 293.918C262.999 294.545 263.602 294.799 265.808 297.005C267.446 298.644 269.285 299.721 271.597 300.395C274.701 301.3 275.038 301.572 275.606 303.666C276.422 306.701 275.464 310.067 272.88 313.267C271.774 314.634 270.42 316.639 269.87 317.722C269.32 318.804 268.149 320.413 267.268 321.295C265.778 322.786 265.695 323.158 266.068 326.702C266.795 333.617 263.413 346.525 260.149 349.282C259.084 350.181 258.18 350.394 256.494 350.127C255.111 349.914 254.088 350.051 253.816 350.488C253.573 350.879 252.231 351.701 250.836 352.316C249.44 352.931 247.353 354.239 246.206 355.215C244.219 356.913 244.154 357.096 244.822 359.125C245.591 361.462 245.076 364.224 243.42 366.585C242.888 367.348 242.451 368.643 242.451 369.465C242.451 370.288 241.812 371.82 241.026 372.861C240.239 373.908 238.731 376.304 237.667 378.185C235.047 382.811 233.475 383.616 229.678 382.255C226.385 381.072 224.628 380.93 224.628 381.847C224.628 382.19 225.285 382.776 226.089 383.142C226.893 383.509 228.141 385 228.868 386.449C229.95 388.614 230.063 389.366 229.501 390.602C228.626 392.519 225.291 394.128 222.186 394.128C219.437 394.128 218.757 394.802 219.709 396.577C220.294 397.671 219.898 399.434 218.769 400.783C218.674 400.895 217.716 400.522 216.628 399.96C214.038 398.623 213.121 399.475 214.434 402.007C214.966 403.036 215.978 404.06 216.681 404.285C217.893 404.669 217.905 404.752 216.924 405.84C216.35 406.473 216.054 407.438 216.261 407.982C216.486 408.568 215.983 409.833 215.037 411.076C213.494 413.099 213.47 413.241 214.464 414.755C215.031 415.619 215.912 416.489 216.427 416.684C218.278 417.394 218.585 419.819 217.172 422.587C215.759 425.362 215.54 428.142 216.634 429.461C217.627 430.662 214.28 432.999 212.779 432.153V432.165ZM167.484 165.887C169.128 162.455 172.179 159.9 174.645 159.9C176.419 159.9 176.436 160.19 174.816 162.248L173.539 163.869L174.846 164.928C175.898 165.78 176.442 165.857 177.643 165.307C178.465 164.934 179.304 164.094 179.511 163.438C179.795 162.55 180.25 162.343 181.332 162.609C182.332 162.864 182.958 162.645 183.372 161.911C184.62 159.681 181.445 156.824 179.103 158.078C177.43 158.971 175.242 157.191 175.709 155.309C175.88 154.611 175.526 153.399 174.911 152.588C173.639 150.908 171.706 150.737 167.478 151.908C165.958 152.328 164.22 152.659 163.622 152.636C163.025 152.612 162.694 152.855 162.889 153.174C163.084 153.493 163.025 153.76 162.747 153.766C162.475 153.771 161.565 154.31 160.719 154.955L159.188 156.132L160.902 156.782C162.245 157.291 163.037 157.22 164.527 156.451C166.277 155.546 166.603 155.546 168.519 156.457C169.672 157.007 171.245 157.291 172.043 157.09C172.835 156.889 173.651 157.001 173.858 157.339C174.071 157.682 173.202 158.125 171.883 158.344C168.288 158.953 166.419 160.45 163.812 164.816C161.636 168.466 161.506 168.903 162.375 169.868C163.226 170.814 163.463 170.826 164.634 170.01C165.349 169.507 166.632 167.649 167.478 165.887H167.484ZM178.648 169.684C180.836 168.566 181.049 168.288 180.274 167.513C179.499 166.738 179.014 166.792 176.507 167.904C173.562 169.205 172.628 170.968 174.881 170.968C175.573 170.968 177.264 170.388 178.648 169.684ZM189.546 165.041C190.823 164.141 190.87 163.97 189.971 163.461C188.641 162.716 184.691 163.999 184.691 165.177C184.691 166.354 187.748 166.301 189.546 165.041ZM235.698 430.544C235.698 430.272 236.029 429.722 236.437 429.314C236.845 428.905 236.94 428.574 236.656 428.574C236.372 428.574 235.81 429.03 235.402 429.58C234.823 430.378 234.421 430.443 233.492 429.905C232.83 429.521 232.67 429.213 233.12 429.207C233.563 429.195 233.752 428.911 233.546 428.574C233.143 427.923 234.202 427.746 237.235 427.953C239.944 428.136 240.216 428.533 238.542 429.852C236.981 431.076 235.698 431.39 235.698 430.538V430.544ZM748.936 415.116C747.18 414.004 750.84 411.543 759.917 407.733C762.453 406.669 766.315 404.45 768.502 402.794C772.222 399.984 772.529 399.86 773.263 400.913C774.38 402.51 773.724 403.664 770.992 404.9C769.685 405.491 768.047 406.627 767.343 407.438C766.646 408.242 765.516 408.905 764.836 408.905C764.156 408.905 762.566 409.839 761.3 410.975C756.96 414.874 751.461 416.713 748.936 415.116ZM705.924 407.13C705.285 406.728 705.25 406.308 705.77 405.338C706.142 404.64 706.45 403.202 706.45 402.143C706.45 400.41 706.592 400.268 707.833 400.706C708.596 400.972 710.187 401.226 711.37 401.274C712.552 401.315 713.735 401.392 713.995 401.445C715.012 401.634 712.292 404.734 709.844 406.172C706.929 407.881 707.053 407.852 705.929 407.136L705.924 407.13ZM776.941 401.753C776.728 401.54 777.23 400.83 778.064 400.173C779.318 399.185 779.465 398.771 778.915 397.742C778.123 396.257 779.3 394.666 782.032 393.536C784.149 392.661 784.681 390.88 784.113 386.591C783.723 383.639 783.77 383.456 784.722 384.243C785.467 384.858 785.651 385.639 785.384 387.058C785.095 388.614 785.355 389.425 786.65 390.963C788.051 392.631 788.465 392.808 789.559 392.229C790.647 391.649 790.771 391.702 790.428 392.59C790.21 393.163 790.026 393.743 790.026 393.873C790.026 394.003 789.128 394.577 788.028 395.139C786.928 395.701 784.787 397.192 783.268 398.446C780.796 400.487 778.247 402.137 777.573 402.137C777.437 402.137 777.153 401.96 776.941 401.747V401.753ZM711.955 393.814C710.66 392.436 710.423 392.383 709.176 393.199C707.591 394.24 704.617 393.631 702.228 391.785C700.956 390.797 700.868 390.484 701.524 389.253C702.086 388.206 702.104 387.473 701.595 386.36C701.223 385.544 700.915 384.331 700.915 383.669C700.915 382.178 699.951 382.107 699.147 383.539C698.816 384.13 698.372 384.432 698.16 384.219C697.947 384.006 698.656 382.817 699.738 381.581C702.411 378.54 701.365 377.712 697.84 380.078C696.321 381.096 694.978 382.208 694.86 382.551C694.742 382.894 694.009 381.841 693.234 380.208C692.394 378.439 690.951 376.665 689.651 375.807C687.699 374.517 687.037 374.417 683.282 374.79C677.783 375.34 672.473 376.694 669.002 378.439C667.423 379.232 664.342 380.048 661.965 380.297C659.641 380.539 655.94 381.415 653.746 382.243C650.387 383.509 649.435 383.639 647.732 383.077C645.45 382.326 644.504 380.77 645.982 380.208C646.514 380.001 647.484 378.593 648.134 377.073C649.175 374.642 649.234 373.884 648.613 370.743C648.105 368.146 648.087 365.68 648.56 361.681C648.915 358.658 649.057 355.593 648.862 354.866C648.666 354.138 648.968 352.358 649.524 350.908C650.5 348.353 650.736 348.187 657.329 345.395C661.066 343.81 664.898 342.514 665.832 342.514C668.375 342.514 671.521 340.095 673.253 336.811C674.324 334.782 675.069 334.008 675.713 334.256C677.511 334.948 677.86 334.812 677.724 333.481C677.635 332.623 678.002 332.002 678.735 331.771C679.368 331.57 680.538 330.452 681.331 329.281C682.147 328.086 683.82 326.737 685.168 326.199C687.409 325.3 687.634 325.312 688.858 326.424C691.111 328.47 692.708 329.068 693.465 328.151C693.837 327.701 693.961 327.163 693.748 326.95C693.045 326.246 696.261 322.206 697.834 321.815C698.68 321.608 700.413 320.916 701.69 320.271C703.677 319.272 704.38 319.207 706.604 319.804C711.411 321.094 711.565 321.307 709.779 324.01C707.479 327.483 708.088 328.843 713.729 332.813C716.331 334.646 718.791 336.037 719.187 335.9C719.589 335.764 720.854 334.362 722.001 332.783C723.562 330.63 724.172 329.062 724.42 326.524C724.775 322.922 726.495 317.917 727.376 317.917C727.666 317.917 728.34 319.396 728.861 321.206C729.387 323.016 730.487 325.128 731.309 325.897C733.225 327.701 734.342 332.742 733.479 335.723C732.905 337.699 733.018 338.012 734.975 340.03C736.134 341.224 737.973 344.141 739.055 346.507C740.137 348.873 742.094 352.222 743.395 353.949L745.766 357.09L745.092 361.941C744.602 365.461 743.845 367.803 742.337 370.483C740.019 374.588 736.56 378.505 734.732 379.084C734.076 379.291 732.556 380.835 731.35 382.509C730.15 384.184 728.896 385.556 728.565 385.556C728.234 385.556 726.827 386.993 725.443 388.75C723.131 391.679 722.705 391.945 720.292 391.992C718.442 392.028 717.023 392.53 715.509 393.69L713.35 395.334L711.937 393.826L711.955 393.814ZM412.282 380.889C410.981 379.587 410.763 378.919 411.052 377.126C411.324 375.44 411.064 374.446 409.893 372.725C409.066 371.5 408.386 370.199 408.386 369.832C408.386 369.465 407.298 367.709 405.973 365.928C403.921 363.177 403.495 362.077 403.158 358.593C402.561 352.446 400.598 345.797 397.961 340.976C396.666 338.604 395.418 335.528 395.193 334.138C394.714 331.18 395.915 326.773 398.658 321.437L400.486 317.888L399.463 314.8C398.889 313.072 398.611 311.025 398.824 310.162C399.078 309.144 398.806 307.938 398.032 306.654C397.381 305.577 396.417 303.175 395.885 301.318C395.176 298.833 394.188 297.218 392.166 295.231C388.269 291.409 387.766 289.901 388.973 285.742C391.433 277.271 388.778 272.338 382.279 273.308C379.748 273.686 379.654 273.639 379.299 271.852C379.027 270.48 378.282 269.675 376.419 268.723C373.995 267.487 372.96 267.481 369.98 268.694C369.306 268.972 366.538 269.924 363.836 270.817C359.768 272.16 358.549 272.332 356.781 271.817C355.102 271.332 353.695 271.456 350.259 272.397C346.711 273.367 345.428 273.473 343.512 272.947C339.515 271.841 332.65 265.653 331.668 262.269C330.911 259.654 326.21 253.556 324.614 253.118C323.597 252.84 323.473 252.621 324.094 252.219C324.72 251.816 324.608 251.609 323.632 251.355C322.077 250.947 321.923 249.681 323.425 249.663C324.342 249.657 324.366 249.568 323.579 249.06C323 248.687 322.935 248.462 323.408 248.456C323.898 248.45 323.709 247.693 322.87 246.273C321.693 244.274 321.669 244.008 322.568 243.014C325.318 239.973 325.921 233.431 323.828 229.308C322.828 227.338 323.473 224.622 325.601 221.795C326.406 220.73 327.967 218.139 329.078 216.039C331.024 212.365 335.358 207.254 336.529 207.254C337.824 207.254 342.016 202.752 342.016 201.356C342.016 198.203 343.903 195.062 346.972 193.092C348.621 192.033 350.555 190.223 351.27 189.07C352.731 186.709 352.938 186.633 354.635 187.816C355.303 188.283 356.959 188.845 358.319 189.076C360.388 189.425 361.382 189.17 364.463 187.526C369.767 184.686 373.049 183.976 379.121 184.355C383.125 184.603 384.928 184.444 386.868 183.669C389.724 182.527 392.195 183.201 391.527 184.947C391.326 185.473 391.45 186.248 391.799 186.668C392.243 187.2 392.237 187.964 391.787 189.147C391.22 190.631 391.35 191.075 392.745 192.536C393.632 193.459 395.217 194.388 396.27 194.601C401.207 195.589 402.614 196.228 403.631 197.955C404.376 199.221 405.358 199.872 406.978 200.173C408.238 200.41 410.065 201.013 411.041 201.522C412.696 202.38 412.915 202.35 414.293 201.049C415.221 200.173 415.641 199.25 415.422 198.564C415.233 197.961 415.375 196.908 415.747 196.216C416.699 194.441 419.396 194.613 423.612 196.724C428.206 199.026 436.911 200.664 440.003 199.812C441.487 199.404 442.918 199.398 444.213 199.795C448.459 201.102 450.635 200.079 451.215 196.506C451.41 195.317 451.735 194.346 451.948 194.346C452.344 194.346 452.551 192.56 452.61 188.662C452.628 187.396 452.929 186.354 453.278 186.354C453.692 186.354 453.674 185.911 453.219 185.065C452.462 183.651 450.931 183.687 447.265 185.189C445.526 185.905 445.041 185.875 443.48 184.952C441.458 183.758 439.388 183.58 438.785 184.544C438.342 185.266 435.196 184.757 433.493 183.692C432.269 182.929 431.122 180.652 431.122 178.978C431.122 178.339 430.501 177.375 429.738 176.836C428.561 176.008 428.49 175.771 429.277 175.257C429.785 174.926 430.826 174.801 431.595 174.979C432.576 175.21 433.475 174.825 434.61 173.689C435.681 172.618 436.982 172.027 438.436 171.95C439.648 171.885 441.411 171.329 442.345 170.714C444.373 169.377 448.985 169.749 452.563 171.536C457.388 173.949 461.669 173.808 463.396 171.175C464.294 169.803 464.3 169.519 463.449 168.217C462.928 167.425 460.439 165.603 457.914 164.165L453.32 161.55L454.183 159.888C454.656 158.971 454.887 158.066 454.697 157.877C454.508 157.688 454.579 157.167 454.857 156.723C455.135 156.28 455.419 155.558 455.484 155.12C455.626 154.191 454.632 154.446 449.748 156.611C446.91 157.865 446.49 158.25 447.117 159.007C447.531 159.504 448.453 159.924 449.174 159.935C450.186 159.959 449.943 160.249 448.128 161.207C445.922 162.373 445.68 162.385 444.243 161.444C443.019 160.639 442.859 160.267 443.439 159.569C444.012 158.877 443.93 158.604 443.019 158.267C442.392 158.031 441.576 157.439 441.215 156.96C439.453 154.611 433.871 160.787 432.245 166.874C431.482 169.732 431.506 169.88 432.943 170.962L434.433 172.086L431.701 172.648C430.199 172.956 428.171 172.997 427.201 172.731C425.404 172.24 423.133 172.979 423.133 174.056C423.133 174.369 422.713 174.47 422.205 174.275C421.696 174.08 420.88 174.245 420.401 174.642C419.656 175.263 419.739 175.766 420.975 178.096C422.311 180.616 422.352 180.959 421.519 182.634C420.472 184.734 419.496 184.574 418.024 182.072C416.995 180.326 417.001 180.285 418.361 180.09C420.082 179.847 420.194 178.747 418.521 178.481C414.713 177.872 412.684 175.866 412.684 172.707C412.684 170.246 410.402 167.531 407.635 166.703C406.198 166.271 404.637 165.366 404.164 164.692C403.691 164.017 402.307 163.047 401.089 162.538C399.871 162.03 398.511 161.089 398.061 160.45C397.417 159.533 396.997 159.421 396.057 159.924C395.4 160.273 394.862 160.959 394.862 161.444C394.862 163.041 402.697 170.264 406.523 172.193C410.585 174.245 411.218 174.973 408.397 174.358C405.884 173.808 405.198 174.358 406.056 176.245C406.659 177.57 406.558 177.972 405.346 179.143L403.933 180.498L404.252 178.664C404.761 175.76 400.929 171.583 397.754 171.583C396.589 171.583 392.113 167.241 390.942 164.976C389.688 162.55 388.293 162.083 386.324 163.426C383.349 165.443 381.12 166.123 378.784 165.733C375.686 165.206 373.734 166.289 374.231 168.259C374.491 169.288 374.344 169.744 373.764 169.744C373.303 169.744 372.12 170.436 371.139 171.282C370.157 172.127 369.14 172.82 368.886 172.82C368.123 172.82 365.982 176.706 365.976 178.084C365.976 179.404 363.57 182.007 361.252 183.196C360.513 183.574 358.792 183.888 357.432 183.888C355.557 183.888 354.789 184.195 354.274 185.16C353.6 186.42 353.582 186.414 352.004 184.84C350.525 183.361 349.674 182.994 346.694 182.533C345.127 182.29 344.861 178.741 346.031 173.689C346.534 171.53 346.776 169.105 346.575 168.306C345.996 165.987 347.817 164.615 350.868 165.082C357.911 166.165 362.026 166.224 362.996 165.259C364.321 163.934 364.924 159.557 364.114 157.102C363.588 155.499 362.86 154.848 360.69 154.02C357.503 152.801 357.438 151.624 360.554 151.594C361.743 151.583 363.452 151.086 364.362 150.494C365.267 149.903 366.272 149.577 366.591 149.772C367.461 150.311 370.748 148.412 371.842 146.744C372.369 145.939 373.409 145.123 374.154 144.934C374.899 144.744 376.886 143.301 378.577 141.727C380.972 139.497 382.232 138.793 384.284 138.551C386.826 138.249 389.387 136.155 388.186 135.356C387.441 134.859 386.814 131.884 387.234 130.801C387.429 130.287 388.299 129.405 389.168 128.837L390.741 127.802L390.339 130.334C389.99 132.529 390.078 132.842 391.019 132.682C391.616 132.582 392.728 132.156 393.49 131.736C394.655 131.097 394.939 131.127 395.247 131.925C395.773 133.298 394.306 134.913 393.301 134.073C392.745 133.611 392.39 133.623 392.077 134.132C391.758 134.652 391.503 134.623 391.137 134.025C390.859 133.576 390.492 133.351 390.321 133.522C390.149 133.694 390.64 134.629 391.415 135.599C392.716 137.231 392.964 137.308 394.821 136.664C396.411 136.107 397.174 136.149 398.528 136.847C400.054 137.64 400.574 137.598 403.513 136.486C406.085 135.51 407.102 135.38 408.244 135.9C409.29 136.38 410.071 136.368 411.041 135.865C413.802 134.433 414.571 133.357 414.228 131.381C413.719 128.447 414.654 127.488 417.102 128.417C418.769 129.05 419.26 129.021 420.011 128.269C420.809 127.471 420.738 127.175 419.431 125.779C418.172 124.436 418.083 124.105 418.852 123.584C419.349 123.247 421.217 123.129 423.003 123.318C426.267 123.661 430.335 122.389 429.626 121.242C429.005 120.236 425.256 119.946 422.086 120.656C419.272 121.289 418.533 121.236 416.374 120.26C413.021 118.745 412.631 116.976 414.926 113.776C417.882 109.653 418.426 108.34 417.581 107.322C416.333 105.82 415.109 106.311 412.259 109.452C410.751 111.114 408.699 112.812 407.7 113.226C406.694 113.64 405.459 114.794 404.944 115.787C404.11 117.402 404.11 117.746 404.956 119.035C405.476 119.828 406.464 120.656 407.15 120.875C409.036 121.472 408.663 122.596 405.967 124.442C405.139 125.01 404.033 126.613 403.507 128.009C402.851 129.76 401.857 130.949 400.302 131.848C398.114 133.114 398.014 133.12 396.802 132.02C396.116 131.399 395.388 130.133 395.187 129.21C394.986 128.287 394.064 126.619 393.136 125.513L391.456 123.495L389.322 124.797C388.151 125.513 386.637 126.092 385.963 126.086C384.012 126.069 381.753 123.963 381.605 122.017C381.528 121.052 381.28 119.786 381.049 119.207C380.499 117.828 383.249 115.249 386.111 114.456C388.979 113.664 394.803 109.582 395.796 107.665C396.24 106.814 397.73 105.098 399.12 103.856C400.509 102.613 401.639 101.324 401.639 100.987C401.639 100.649 402.951 99.91 404.56 99.3362C406.168 98.7624 408.865 97.7272 410.55 97.0291C412.625 96.1714 415.221 95.7218 418.538 95.639C424.339 95.4911 428.135 96.2601 431.264 98.2182C432.836 99.2001 434.072 99.5373 435.261 99.3007C437.384 98.8748 448.695 102.383 449.163 103.613C449.636 104.85 446.395 106.015 443.598 105.613C442.321 105.429 439.678 104.938 437.721 104.518C435.089 103.956 433.99 103.939 433.481 104.447C432.967 104.962 433.227 105.335 434.468 105.903C435.391 106.323 436.544 107.441 437.035 108.387C438.277 110.795 442.262 112.759 444.32 111.972C446.295 111.221 446.283 110.984 444.196 109.854C442.268 108.807 443.155 108.582 445.579 109.505C447.513 110.239 449.701 109.328 449.192 107.997C448.956 107.375 449.624 106.926 451.522 106.441C455.578 105.4 455.874 105.252 455.537 104.43C454.266 101.318 454.248 101.407 456.099 101.62C457.086 101.732 457.808 102.152 457.725 102.572C457.642 102.986 458.157 103.631 458.866 104.015C459.931 104.589 460.776 104.382 463.709 102.844C468.008 100.59 471.361 99.8509 472.608 100.892C473.306 101.472 474.459 101.472 477.8 100.91C480.165 100.513 482.365 100.348 482.696 100.555C483.027 100.762 483.477 100.632 483.695 100.271C484.18 99.4841 482.838 97.7094 482.105 98.159C481.218 98.7092 478.314 97.7272 478.947 97.0942C479.586 96.4553 496.687 100.442 497.71 101.466C498.401 102.158 500.583 101.235 500.583 100.253C500.583 99.9219 499.365 99.0582 497.875 98.3365C493.251 96.0885 492.955 92.4919 497.302 91.3975C499.827 90.7645 500.915 91.4921 504.403 96.1536C508.933 102.205 508.82 101.898 507.336 103.974C506.242 105.512 506.171 105.873 506.934 106.169C508.377 106.725 511.458 104.784 511.895 103.057C512.404 101.028 511.452 99.3007 509.187 98.1294C507.407 97.2066 506.112 95.5147 506.112 94.1068C506.112 93.6277 506.78 93.5034 508.111 93.746C510.104 94.1127 511.753 93.3851 516.265 90.173C517.294 89.4394 519.038 88.9544 520.8 88.9129C524.366 88.8301 525.525 88.2327 524.496 86.9963C524.094 86.5112 523.893 85.9847 524.047 85.8309C524.833 85.0441 534.951 83.6303 537.28 83.9793C539.522 84.3165 540.219 84.1331 542.058 82.7252C543.247 81.8202 544.217 80.8323 544.217 80.5365C544.217 79.7852 538.847 79.8503 538.38 80.6075C537.736 81.6486 536.902 81.2878 537.139 80.0691C537.34 79.0398 536.819 78.8742 532.343 78.5252C520.12 77.5728 519.127 77.348 520.594 75.8809C521.883 74.5913 525.046 74.615 527.689 75.9341C528.771 76.4725 530.569 76.9161 531.681 76.9161C532.792 76.9161 533.874 77.1942 534.081 77.5314C534.288 77.8685 535.365 78.1466 536.476 78.1466C539.539 78.1466 545.47 79.4717 545.098 80.0751C544.914 80.3708 545.488 80.6075 546.369 80.6075C547.25 80.6075 548.858 81.0866 549.94 81.6664C551.395 82.4472 553.429 82.7312 557.746 82.7489C562.388 82.7666 563.931 83.0033 565.273 83.9143C566.202 84.5413 566.959 85.2275 566.953 85.4464C566.953 85.6594 565.528 86.6177 563.801 87.5701C559.626 89.8772 560.507 90.8769 565.557 89.5696C568.827 88.7236 569.578 88.7177 572.286 89.5223C574.51 90.1848 575.893 90.2676 577.401 89.8358C578.903 89.4039 580.446 89.4986 583.072 90.1789C585.804 90.8888 587.223 90.9597 588.955 90.4806C592.911 89.3803 597.772 89.6938 600.593 91.22C601.994 91.9831 604.584 93.391 606.34 94.3494C609.456 96.0531 609.592 96.0708 611.757 95.1006C613.566 94.2902 614.577 94.2192 617.244 94.7339C619.899 95.2426 620.863 95.1775 622.359 94.4085C623.819 93.6513 624.056 93.2786 623.5 92.6102C622.424 91.3088 626.25 90.8237 630.957 91.6696C633.109 92.0541 635.841 92.4386 637.024 92.5274C638.206 92.6161 640.518 93.2846 642.162 94.024C644.663 95.1539 646.556 95.4083 653.882 95.6094C660.836 95.7987 663.047 96.0767 664.727 96.97C666.43 97.8751 668.369 98.1058 674.82 98.1708C680.757 98.23 683.418 98.508 685.18 99.2652C688.024 100.49 689.16 100.04 687.61 98.3069C686.869 97.4748 687.932 97.2007 690.798 97.4846C697.994 98.2004 706.621 99.774 709.542 100.904C711.062 101.495 713.965 102.176 715.982 102.424C718.004 102.673 720.955 103.53 722.54 104.335C724.946 105.553 725.727 105.69 727.27 105.151C729.381 104.418 730.753 104.944 733.976 107.748L735.98 109.487L734.472 109.866C732.958 110.245 728.932 109.251 727.548 108.15C727.14 107.825 726.566 107.713 726.277 107.89C725.987 108.068 724.55 107.801 723.083 107.299C719.648 106.115 718.128 106.559 719.689 108.286C720.76 109.47 720.736 109.493 718.696 109.351C714.888 109.085 715.935 110.209 721.528 112.392C724.568 113.581 727.187 114.675 727.347 114.829C727.926 115.385 726.022 116.077 724.639 115.817C723.119 115.527 719.376 117.16 719.376 118.112C719.376 118.426 718.785 119.236 718.063 119.911C716.857 121.035 716.609 121.064 714.988 120.224C713.475 119.443 712.996 119.431 711.541 120.165C710.613 120.632 709.022 121.218 708.011 121.46C707 121.703 705.829 122.188 705.403 122.537C704.167 123.566 706.349 126.554 709.418 128.039C711.092 128.849 712.304 129.932 712.665 130.943C712.978 131.831 713.652 133.292 714.155 134.185C714.977 135.64 714.965 135.853 714.09 136.19C713.445 136.439 713.256 136.936 713.534 137.64C713.77 138.231 714.036 139.402 714.125 140.248C714.214 141.094 714.486 142.242 714.728 142.804C715.042 143.537 714.781 143.946 713.812 144.253C712.736 144.596 712.008 144.182 710.234 142.224C709.01 140.87 706.97 139.006 705.699 138.083C704.427 137.16 702.151 134.759 700.637 132.742C697.97 129.192 697.917 129.027 698.798 127.317C699.301 126.347 699.721 124.915 699.732 124.14C699.744 123.365 700.135 122.04 700.602 121.2C701.489 119.597 701.146 118.313 699.248 116.136C698 114.705 695.782 115.776 696.344 117.538C696.859 119.159 695.28 119.686 693.465 118.497C692.678 117.982 690.863 117.373 689.432 117.142C686.978 116.752 686.794 116.829 686.162 118.497C685.789 119.467 685.635 121.005 685.819 121.91C686.103 123.324 685.902 123.608 684.453 123.927C683.465 124.146 681.774 123.886 680.396 123.312C678.883 122.679 677.458 122.49 676.429 122.78C675.548 123.028 672.567 123.259 669.806 123.288C665.43 123.33 664.591 123.525 663.26 124.773C662.421 125.56 661.415 127.5 661.019 129.08C660.629 130.659 659.907 132.564 659.417 133.315C658.577 134.617 658.654 134.747 661.066 135.977C663.68 137.314 666.53 137.663 668.688 136.918C670.356 136.344 675.441 140.308 677.026 143.419C677.676 144.697 678.753 146.028 679.415 146.383C681.928 147.726 682.437 156.546 680.337 162.308C678.883 166.301 677.257 167.602 674.868 166.697C673.957 166.348 673.117 166.064 673.005 166.064C672.893 166.064 672.207 167.2 671.485 168.584C670.533 170.406 670.35 171.323 670.817 171.885C671.71 172.962 671.048 174.369 669.262 175.186C668.434 175.564 667.76 176.138 667.76 176.464C667.76 176.789 669.682 178.38 672.035 180.001C675.027 182.06 676.624 183.639 677.357 185.266C677.931 186.544 678.291 187.691 678.155 187.816C678.019 187.94 676.76 188.62 675.364 189.324L672.822 190.608L671.29 187.094C669.581 183.166 668.109 181.581 665.525 180.888C664.224 180.539 663.769 180.043 663.769 178.966C663.769 177.978 663.13 177.138 661.776 176.345C659.801 175.192 659.765 175.192 657.666 176.487C655.567 177.789 655.544 177.789 654.893 176.582C654.532 175.913 654.243 174.943 654.243 174.423C654.243 173.902 653.728 173.204 653.095 172.867C652.155 172.364 651.564 172.666 649.837 174.535C648.678 175.789 647.188 177.126 646.532 177.499C645.515 178.079 645.462 178.321 646.159 179.173C646.615 179.717 648.176 180.829 649.63 181.646C651.948 182.941 652.392 183.018 653.172 182.231C653.917 181.486 654.521 181.462 656.762 182.072L659.458 182.805L657.956 183.811C655.171 185.674 654.29 186.656 653.894 188.336C653.568 189.715 653.764 190.135 654.999 190.697C655.827 191.075 657.081 192.578 657.791 194.039C658.5 195.5 659.919 197.192 660.942 197.795C663.189 199.126 663.846 200.534 662.545 201.262C661.332 201.942 661.912 202.954 663.508 202.954C665.424 202.954 665.436 204.095 663.585 210.685C661.344 218.671 659.322 221.333 654.03 223.268C651.948 224.031 649.412 224.699 648.395 224.758C646.035 224.889 644.208 225.888 642.617 227.917L641.352 229.526L640.761 227.971C639.992 225.942 638.224 225.433 635.687 226.509C633.363 227.491 631.832 229.059 631.217 231.088C630.667 232.904 632.624 236.093 635.865 238.66C638.525 240.766 641.512 246.06 642.209 249.906C642.818 253.254 641.736 255.449 638.839 256.756C637.52 257.353 636.284 258.329 636.095 258.927C635.64 260.364 632.908 262.151 632.411 261.34C632.204 261.003 632.192 260.216 632.393 259.589C632.594 258.962 632.583 258.004 632.37 257.454C632.068 256.667 631.731 256.596 630.761 257.111C629.75 257.649 629.36 257.513 628.544 256.33C626.539 253.419 620.727 248.746 619.113 248.746C618.545 248.746 618.326 249.426 618.421 250.899C618.498 252.083 618.255 254.39 617.883 256.028C617.274 258.696 617.339 259.181 618.48 260.731C619.183 261.684 619.929 263.157 620.141 264.002C620.36 264.866 622.134 266.836 624.168 268.469C627.557 271.184 627.911 271.722 629.336 276.242C630.176 278.91 630.868 281.353 630.868 281.672C630.868 282.713 629.585 282.293 626.906 280.365C624.139 278.377 622.365 275.224 620.892 269.664C620.254 267.25 619.55 266.209 617.557 264.748C615.115 262.949 615.038 262.79 615.233 259.814C615.346 258.122 615.624 255.727 615.848 254.49C616.168 252.745 615.902 251.497 614.678 248.959C613.808 247.155 612.78 244.38 612.395 242.801C611.532 239.263 610.308 238.672 608.15 240.742C607.257 241.6 606.352 242.298 606.145 242.298C605.169 242.298 603.821 240.216 604.146 239.198C604.732 237.353 601.131 230.922 599.026 230.047C597.872 229.568 596.82 228.408 596.116 226.847C594.892 224.125 593.515 223.09 592.143 223.842C591.646 224.114 589.647 224.664 587.708 225.06C584.154 225.788 582.877 226.864 583.362 228.728C583.539 229.414 582.918 230.077 581.428 230.786C580.216 231.366 578.915 232.526 578.531 233.366C578.146 234.206 577.307 235.063 576.656 235.27C576.006 235.477 575.006 236.418 574.433 237.359C573.859 238.305 572.15 240.027 570.637 241.192C568.561 242.789 567.916 243.676 568.017 244.8C568.62 251.355 567.698 256.845 565.439 260.098C563.239 263.275 563.085 263.364 561.223 262.518C560.2 262.05 559.567 261.139 559.307 259.743C559.094 258.602 557.852 255.383 556.557 252.591C548.699 235.708 547.54 232.484 548.208 229.438C548.657 227.379 547.575 224.267 546.529 224.622C546.109 224.764 545.754 225.273 545.748 225.746C545.695 228.55 542.543 228.982 540.083 226.521L538.451 224.889L539.853 224.368C541.431 223.782 541.29 222.209 539.681 222.499C539.108 222.599 537.807 221.978 536.778 221.114C535.755 220.251 534.679 219.547 534.389 219.547C534.099 219.547 533.685 218.991 533.472 218.31C532.905 216.524 529.647 214.974 528.015 215.708C526.542 216.37 513.202 216.234 510.973 215.53C510.169 215.276 508.678 214.122 507.667 212.957C505.834 210.857 505.805 210.851 503.061 211.59C500.459 212.294 500.081 212.229 496.568 210.455C493.535 208.922 492.63 208.1 491.696 206.024C490.501 203.374 487.852 201.457 486.238 202.078C485.73 202.273 485.138 203.243 484.919 204.231C484.606 205.651 484.925 206.574 486.433 208.627C487.48 210.052 488.627 212.277 488.976 213.572C489.721 216.346 491.199 217.175 492.423 215.501C493.162 214.489 493.363 214.454 493.86 215.246C494.179 215.749 494.351 216.441 494.245 216.778C493.902 217.843 497.449 219.588 499.105 219.174C499.939 218.967 501.731 217.541 503.073 216.009C505.196 213.596 505.935 213.436 505.574 215.459C505.332 216.826 506.402 218.423 508.176 219.34C510.92 220.76 514.74 223.918 514.74 224.764C514.74 225.155 514.024 226.149 513.143 226.965C512.262 227.781 511.002 229.52 510.334 230.822C508.714 233.981 504.025 238.601 502.434 238.601C500.595 238.601 497.863 240.151 496.775 241.813C496.261 242.6 494.907 243.712 493.766 244.28C487.923 247.196 480.893 250.154 478.912 250.527C476.795 250.923 476.623 250.828 475.506 248.616C474.855 247.332 474.122 244.765 473.868 242.907C473.543 240.488 472.91 238.95 471.644 237.507C470.675 236.394 469.876 235.223 469.876 234.892C469.876 234.561 468.765 233.159 467.411 231.757C465.725 230.017 464.631 228.13 463.946 225.764C463.396 223.865 462.278 221.481 461.462 220.464C455.821 213.46 454.153 210.987 453.314 208.408C452.202 204.989 451.256 204.438 450.824 206.947L450.517 208.727L448.435 206.101C445.23 202.054 444.828 203.894 447.838 208.834C449.263 211.17 451.528 215.299 452.882 218.003C454.23 220.706 455.98 223.776 456.773 224.824C457.583 225.9 458.21 227.586 458.21 228.704C458.21 231.023 458.902 232.466 461.616 235.832C462.71 237.187 463.786 239.157 464.011 240.222C464.3 241.582 465.489 243.008 468.037 245.049C471.911 248.161 474.424 251.402 475.05 254.112C475.287 255.129 476.174 256.17 477.297 256.75C479.012 257.637 479.615 257.614 485.032 256.436C488.26 255.738 491.684 254.762 492.636 254.265L494.369 253.372L494.783 255.803C495.155 258.016 494.753 259.081 490.377 267.475C485.67 276.502 485.452 276.798 480.774 280.495C478.143 282.577 475.387 285.121 474.654 286.15C473.921 287.18 471.568 289.972 469.433 292.344C463.195 299.277 462.343 305.37 466.482 313.54C467.535 315.616 467.943 317.184 467.694 318.177C467.488 319.006 467.618 321.088 467.99 322.815C468.57 325.53 468.505 326.252 467.499 328.228C466.045 331.073 464.892 332.103 460.829 334.138C459.055 335.025 457.601 336.019 457.601 336.338C457.601 336.658 456.359 338.326 454.833 340.035C453.308 341.745 452.066 343.431 452.066 343.768C452.066 344.105 452.634 345.507 453.331 346.874C455.419 350.973 454.017 353.937 449.009 356.013C446.898 356.889 446.206 358.675 446.726 361.894C446.998 363.579 446.827 364.141 445.869 364.656C445.207 365.011 444.018 366.324 443.22 367.578C440.701 371.536 433.457 378.54 430.17 380.202C427.426 381.587 426.722 381.711 424.706 381.155C422.926 380.664 421.495 380.741 418.509 381.492C413.678 382.705 414.192 382.758 412.324 380.883L412.282 380.889ZM493.227 184.793C494.812 183.97 495.043 183.521 495.043 181.178C495.043 179.498 494.682 178.203 494.079 177.706C493.547 177.268 492.689 176.085 492.175 175.079C491.318 173.417 491.317 173.287 492.216 173.63C493.399 174.086 495.043 173.535 495.043 172.689C495.043 172.352 494.469 171.276 493.771 170.294C492.719 168.815 492.299 168.62 491.312 169.146C490.513 169.572 490.123 169.578 490.123 169.158C490.123 168.815 489.023 167.975 487.687 167.289C484.718 165.774 483.666 164.094 484.588 162.367C485.286 161.059 487.793 160.143 488.858 160.799C490.3 161.692 490.72 160.379 489.532 158.705C486.652 154.653 482.637 154.919 477.658 159.492C474.447 162.444 474.169 163.225 475.985 164.201C476.659 164.561 477.215 165.271 477.215 165.774C477.215 166.277 478.309 167.874 479.645 169.323C482.72 172.666 483.287 174.192 482.903 178.144L482.596 181.326L486.818 183.491C489.141 184.686 491.122 185.674 491.223 185.686C491.323 185.704 492.222 185.296 493.222 184.781L493.227 184.793ZM476.298 356.528C474.566 355.546 474.317 355.026 473.862 351.393C473.501 348.495 473.649 347.862 475.387 345.046C477.15 342.183 477.274 341.627 476.889 338.515C476.328 334.019 477.286 331.659 479.893 331.085C482.353 330.547 487.675 325.844 488.952 323.087L489.928 320.981L490.608 322.466C492.311 326.211 492.139 327.849 489.171 336.06C487.586 340.45 485.883 345.703 485.387 347.732C483.808 354.227 482.909 355.789 480.319 356.564C477.564 357.392 477.83 357.392 476.298 356.522V356.528ZM779.028 345.839C777.065 343.691 775.894 341.852 775.894 340.923C775.894 338.858 776.225 339.042 777.999 342.065C778.844 343.514 780.382 345.501 781.405 346.483C782.428 347.465 783.268 348.495 783.268 348.773C783.268 349.956 781.961 349.051 779.028 345.839ZM504.87 344.963C504.87 344.626 505.148 344.348 505.485 344.348C505.822 344.348 506.1 344.626 506.1 344.963C506.1 345.3 505.822 345.578 505.485 345.578C505.148 345.578 504.87 345.3 504.87 344.963ZM828.503 343.839C828.284 343.49 828.409 343.017 828.775 342.792C829.686 342.23 830.011 342.674 829.402 343.662C829.077 344.188 828.757 344.253 828.503 343.839ZM509.175 342.845C509.175 342.697 509.453 342.402 509.79 342.195C510.127 341.988 510.405 342.106 510.405 342.467C510.405 342.828 510.127 343.117 509.79 343.117C509.453 343.117 509.175 342.993 509.175 342.845ZM812.526 336.604C811.929 335.043 812.685 334.498 814.383 335.267C815.843 335.936 815.879 336.037 814.856 336.782C813.431 337.823 812.981 337.788 812.526 336.604ZM816.417 333.871C815.216 333.126 816.05 332.535 817.96 332.771C819.456 332.955 819.492 333.025 818.421 333.682C817.735 334.102 816.919 334.179 816.417 333.871ZM787.726 331.618C786.467 328.896 786.904 327.855 788.211 330.47C789.571 333.191 789.595 333.28 788.956 333.274C788.702 333.274 788.152 332.523 787.726 331.612V331.618ZM790.08 331.18C790.056 330.529 790.198 330.168 790.405 330.375C790.612 330.582 790.629 331.109 790.452 331.553C790.257 332.044 790.109 331.896 790.08 331.18ZM840.111 325.276C839.549 324.365 840.081 323.898 841.394 324.158C842.352 324.347 842.364 324.448 841.494 325.164C840.802 325.738 840.412 325.767 840.111 325.276ZM476.913 322.212C476.706 321.875 476.824 321.597 477.185 321.597C477.546 321.597 477.836 321.875 477.836 322.212C477.836 322.549 477.711 322.827 477.564 322.827C477.416 322.827 477.12 322.549 476.913 322.212ZM746.707 316.438C742.816 315.214 741.054 314.072 739.522 311.794C737.772 309.192 734.573 307.228 732.941 307.748C732.278 307.955 731.167 309.097 730.469 310.28C729.28 312.297 729.05 312.41 726.892 312.025C725.62 311.8 723.846 310.931 722.953 310.091C721.812 309.026 720.937 308.689 720.044 308.973C719.34 309.198 718.329 309.132 717.785 308.825C716.94 308.352 717.023 308.133 718.377 307.245C719.944 306.222 719.944 306.204 718.891 304.004C718.046 302.235 716.887 301.312 713.078 299.401C710.459 298.088 707.502 297.005 706.503 297.005C704.215 297.005 703.274 294.9 704.995 293.64C706.018 292.888 705.87 292.705 703.198 291.403C700.359 290.025 700.318 289.966 701.678 289.215C702.441 288.789 703.677 288.434 704.416 288.422C705.853 288.398 707.68 290.475 707.68 292.143C707.68 292.699 708.277 293.912 709.01 294.84C710.317 296.503 710.352 296.515 711.316 295.308C711.854 294.639 713.569 293.356 715.124 292.462L717.957 290.836L721.883 292.61C724.042 293.586 727.11 294.852 728.695 295.426C730.28 296 733.455 297.698 735.75 299.206C740.131 302.081 742.029 304.512 740.941 305.826C740.054 306.896 743.549 311.783 747.162 314.522C751.136 317.533 751.07 317.811 746.701 316.432L746.707 316.438ZM773.452 316.391C772.967 315.805 772.92 315.456 773.328 315.456C774.073 315.456 774.936 316.622 774.51 317.048C774.357 317.201 773.878 316.906 773.452 316.391ZM670.19 313.889C669.297 313.398 669.043 313.031 669.575 313.025C670.675 313.013 672.426 314.031 672.018 314.445C671.858 314.604 671.036 314.35 670.19 313.883V313.889ZM680.58 313.078C682.324 310.629 685.05 309.582 687.569 310.392C689.408 310.984 689.438 311.031 687.977 311.09C687.114 311.126 685.097 311.984 683.501 312.995C679.852 315.308 678.971 315.332 680.58 313.078ZM769.75 313.918C768.922 312.918 769.117 312.794 770.619 313.368C771.151 313.575 771.589 313.989 771.589 314.291C771.589 315.143 770.596 314.942 769.744 313.918H769.75ZM772.63 313.374C772.399 312.771 772.228 311.818 772.251 311.25C772.275 310.57 772.488 310.724 772.884 311.712C773.209 312.528 773.381 313.48 773.263 313.835C773.144 314.184 772.86 313.977 772.63 313.374ZM820.148 313.954C820.148 313.806 820.426 313.51 820.763 313.303C821.1 313.096 821.378 313.214 821.378 313.575C821.378 313.936 821.1 314.226 820.763 314.226C820.426 314.226 820.148 314.102 820.148 313.954ZM662.97 311.369C662.545 311.191 662.355 310.789 662.545 310.481C663.012 309.724 666.956 309.765 667.429 310.534C667.636 310.872 667.447 311.156 667.003 311.156C666.56 311.156 665.643 311.286 664.969 311.428C664.295 311.576 663.39 311.546 662.97 311.369ZM672.094 310.907C670.977 309.558 672.266 309.15 675.157 309.931C678.073 310.718 678.067 310.842 675.039 311.386C673.466 311.67 672.609 311.528 672.089 310.907H672.094ZM764.363 310.534C763.938 309.854 763.861 309.304 764.192 309.304C764.523 309.304 765.085 309.86 765.445 310.534C765.806 311.209 765.883 311.765 765.617 311.765C765.351 311.765 764.783 311.209 764.363 310.534ZM768.213 309.913C766.569 308.097 767.45 307.813 769.141 309.612C769.933 310.458 770.3 311.144 769.957 311.144C769.614 311.144 768.828 310.588 768.213 309.913ZM652.989 309.807C650.789 309.499 647.697 308.825 646.106 308.304C644.516 307.784 642.647 307.535 641.943 307.76C640.536 308.21 634.552 306.447 634.552 305.583C634.552 303.619 640.063 303.471 642.99 305.352C644.084 306.056 644.947 306.104 647.253 305.583C649.814 305.009 650.346 305.08 651.848 306.192C652.782 306.885 653.829 307.452 654.166 307.452C655.378 307.452 659.068 309.511 658.76 310.014C658.583 310.298 658.116 310.487 657.714 310.44C657.312 310.392 655.183 310.103 652.989 309.801V309.807ZM763.305 306.843C762.696 306.169 762.471 305.613 762.808 305.613C763.145 305.613 763.926 306.169 764.535 306.843C765.144 307.517 765.368 308.074 765.031 308.074C764.694 308.074 763.914 307.517 763.305 306.843ZM759.432 306.062C759.083 305.642 758.622 304.471 758.403 303.453C758.054 301.821 758.089 301.756 758.746 302.844C759.154 303.519 759.881 304.53 760.36 305.086C760.869 305.678 760.993 306.252 760.65 306.465C760.33 306.666 759.781 306.482 759.432 306.062ZM746.417 304.11L744.891 303.264L747.256 302.821C748.557 302.578 750.562 301.555 751.703 300.549C752.951 299.455 753.779 299.058 753.773 299.555C753.761 300.803 753.004 301.768 750.704 303.465C748.303 305.234 748.415 305.222 746.417 304.11ZM631.134 301.714C628.875 300.425 624.801 295.45 623.476 292.356C622.761 290.688 621.123 287.937 619.834 286.245C618.545 284.553 617.067 282.341 616.546 281.329C616.026 280.318 614.453 278.377 613.046 277.023C610.077 274.171 608.25 271.172 609.498 271.196C611.112 271.225 615.263 273.532 617.043 275.39C621.957 280.519 622.962 281.43 625.28 282.861C627.515 284.24 628.579 285.677 628.686 287.47C628.704 287.807 629.342 288.777 630.099 289.623C630.856 290.469 632.287 292.06 633.275 293.154C634.262 294.255 635.255 295.964 635.474 296.958C636.19 300.218 633.564 303.087 631.14 301.708L631.134 301.714ZM507.342 301.306C507.342 300.969 507.62 300.691 507.957 300.691C508.294 300.691 508.572 300.969 508.572 301.306C508.572 301.643 508.294 301.921 507.957 301.921C507.62 301.921 507.342 301.643 507.342 301.306ZM669.889 301.306C669.676 300.963 669.676 300.147 669.883 299.49C670.09 298.833 669.836 297.644 669.315 296.852C668.458 295.544 668.47 295.272 669.404 293.935C669.972 293.125 670.64 290.948 670.894 289.102C671.201 286.819 671.817 285.275 672.792 284.293C674.134 282.95 674.471 282.891 677.487 283.465C680.077 283.956 681.094 283.897 682.502 283.169C684.861 281.95 685.032 282.004 684.252 283.725C683.258 285.914 681.266 286.612 679.167 285.512C675.418 283.548 670.445 286.464 673.07 289.09C674.034 290.055 674.566 290.143 676.352 289.629C679.415 288.753 680.621 288.913 678.717 289.942C676.565 291.114 676.157 292.409 677.268 294.556C677.771 295.533 678.185 297.047 678.185 297.922C678.185 299.324 678.037 299.431 676.955 298.851C676.281 298.49 675.305 297.183 674.785 295.947C673.851 293.716 673.839 293.711 672.644 294.9C671.598 295.947 671.527 296.408 672.1 298.484C672.615 300.36 672.585 300.981 671.935 301.389C670.847 302.075 670.344 302.057 669.883 301.306H669.889ZM754.204 298.029C753.625 297.142 752.3 295.982 751.254 295.438C750.213 294.9 749.498 294.32 749.663 294.148C750.621 293.19 755.949 297.532 755.499 298.898C755.358 299.318 754.802 298.94 754.204 298.023V298.029ZM657.696 295.982C656.768 295.497 655.52 295.254 654.923 295.444C653.391 295.929 647.318 294.693 646.721 293.776C646.242 293.042 644.835 288.54 644.084 285.328C643.877 284.447 644.084 283.299 644.569 282.637C645.272 281.672 645.633 281.601 646.751 282.199C647.927 282.826 648.176 282.719 648.82 281.306C649.222 280.418 650.565 279.182 651.8 278.549C653.113 277.88 654.367 276.626 654.816 275.55C655.331 274.307 656.271 273.473 657.678 273.006C658.831 272.627 660.493 271.367 661.374 270.214C662.255 269.06 663.302 268.114 663.704 268.114C664.106 268.114 665.318 269.025 666.4 270.143L668.369 272.172L666.79 274.29C664.999 276.697 665.093 278.768 667.121 281.619L668.351 283.346L666.82 284.352C665.98 284.902 665.288 285.695 665.294 286.109C665.3 287.517 661.362 295.633 660.375 296.248C659.689 296.68 658.884 296.597 657.708 295.976L657.696 295.982ZM693.394 295.97C692.122 295.639 691.945 294.551 693.163 294.551C693.63 294.551 694.931 294.734 696.055 294.959C697.787 295.308 697.917 295.438 696.9 295.84C695.564 296.361 694.972 296.384 693.394 295.97ZM791.262 288.132C791.262 287.984 791.54 287.688 791.877 287.481C792.214 287.274 792.492 287.393 792.492 287.754C792.492 288.114 792.214 288.404 791.877 288.404C791.54 288.404 791.262 288.28 791.262 288.132ZM691.241 286.464C690.75 285.973 690.721 285.405 691.147 284.606C691.484 283.973 691.596 283.193 691.395 282.867C690.839 281.968 692.229 279.791 693.358 279.791C694.263 279.791 694.257 279.898 693.317 280.933C692.507 281.832 692.412 282.424 692.897 283.695C693.873 286.263 692.814 288.032 691.241 286.458V286.464ZM382.581 284.441C382.581 284.293 382.858 283.997 383.196 283.79C383.533 283.583 383.811 283.701 383.811 284.062C383.811 284.423 383.533 284.713 383.196 284.713C382.858 284.713 382.581 284.589 382.581 284.441ZM808.777 282.867C808.57 282.53 808.688 282.252 809.049 282.252C809.41 282.252 809.699 282.53 809.699 282.867C809.699 283.204 809.575 283.482 809.427 283.482C809.28 283.482 808.984 283.204 808.777 282.867ZM386.27 277.064C386.27 276.916 386.548 276.62 386.885 276.413C387.222 276.206 387.5 276.325 387.5 276.685C387.5 277.046 387.222 277.336 386.885 277.336C386.548 277.336 386.27 277.212 386.27 277.064ZM681.881 267.818C680.71 265.085 680.55 264.961 678.747 265.357C676.949 265.753 676.884 265.706 677.558 264.446C678.114 263.405 678.634 263.198 679.953 263.488C681.23 263.766 682.04 263.488 683.288 262.328C684.199 261.488 684.944 260.299 684.956 259.69C684.973 258.14 687.256 263.34 687.776 266.126C688.172 268.238 688.125 268.356 687.161 267.558C685.736 266.375 684.364 267.599 685.535 269.013C686.002 269.575 686.061 269.959 685.683 269.959C685.334 269.959 684.607 270.125 684.074 270.332C683.359 270.604 682.785 269.948 681.875 267.824L681.881 267.818ZM569.826 268.906C569.141 267.788 568.75 262.778 569.247 261.453C569.773 260.045 569.815 260.063 571.376 262.376C573.25 265.15 573.853 266.931 573.232 267.877C572.641 268.788 570.205 269.522 569.826 268.906ZM707.071 265.724C707.071 265.387 707.349 264.937 707.686 264.73C708.023 264.523 708.301 264.629 708.301 264.967C708.301 265.304 708.023 265.753 707.686 265.961C707.349 266.168 707.071 266.061 707.071 265.724ZM803.556 265.653C803.556 265.316 803.68 265.038 803.828 265.038C803.975 265.038 804.271 265.316 804.478 265.653C804.685 265.99 804.567 266.268 804.206 266.268C803.845 266.268 803.556 265.99 803.556 265.653ZM664.053 262.104C664.053 261.843 665.282 260.252 666.79 258.566C668.996 256.105 669.534 255.756 669.558 256.774C669.575 257.466 668.647 259.057 667.506 260.311C665.566 262.429 664.053 263.216 664.053 262.104ZM677.363 260.465C677.138 259.879 677.186 258.992 677.464 258.495C677.895 257.72 678.078 257.714 678.682 258.442C679.226 259.098 679.202 259.56 678.581 260.412C677.818 261.453 677.741 261.459 677.363 260.465ZM206.741 258.069C207.12 257.614 207.244 257.063 207.019 256.839C206.794 256.614 207.191 256.436 207.888 256.436C208.858 256.436 209.089 256.726 208.84 257.667C208.651 258.383 208.001 258.897 207.285 258.897C206.321 258.897 206.203 258.714 206.735 258.075L206.741 258.069ZM681.49 257.903C681.26 257.265 680.964 256.531 680.822 256.277C680.686 256.022 680.834 255.815 681.153 255.815C681.768 255.815 682.632 258.341 682.17 258.797C682.023 258.945 681.715 258.542 681.484 257.903H681.49ZM675.264 256.3C674.401 255.259 675.24 253.78 676.535 254.064C677.345 254.248 677.375 254.502 676.724 255.703C676.098 256.862 675.826 256.975 675.264 256.294V256.3ZM682.531 254.188C681.827 253.289 681.348 252.455 681.479 252.331C681.975 251.834 683.708 252.934 684.624 254.336C686.038 256.496 684.246 256.371 682.531 254.188ZM672.426 251.81C671.876 251.26 671.432 250.497 671.432 250.107C671.432 249.716 672.041 250.006 672.78 250.746C673.519 251.485 673.969 252.254 673.774 252.449C673.579 252.645 672.97 252.355 672.426 251.81ZM190.025 251.722C189.8 251.497 189.617 251.024 189.617 250.675C189.617 250.29 189.901 250.326 190.344 250.769C190.746 251.172 190.929 251.639 190.752 251.816C190.575 251.994 190.249 251.952 190.025 251.722ZM186.542 250.899C186.542 250.562 186.666 250.284 186.814 250.284C186.962 250.284 187.257 250.562 187.464 250.899C187.671 251.237 187.553 251.515 187.192 251.515C186.832 251.515 186.542 251.237 186.542 250.899ZM215.428 249.669C215.428 249.332 215.552 249.054 215.7 249.054C215.847 249.054 216.143 249.332 216.35 249.669C216.557 250.006 216.439 250.284 216.078 250.284C215.717 250.284 215.428 250.006 215.428 249.669ZM678.605 249.574C677.99 249.225 676.819 249.107 676.009 249.314C674.82 249.61 673.998 249.137 671.769 246.841C668.623 243.6 668.008 242.239 668.931 240.512C669.286 239.843 669.581 238.465 669.581 237.453C669.581 234.117 671.817 234.253 673.454 237.69C674.359 239.595 674.365 240.003 673.514 242.044C672.597 244.244 672.615 244.339 674.253 246.049C675.435 247.285 676.322 247.705 677.257 247.468C678.049 247.267 678.9 247.516 679.362 248.078C680.467 249.415 679.983 250.361 678.599 249.58L678.605 249.574ZM211.738 245.706C211.738 245.558 212.016 245.262 212.353 245.055C212.69 244.848 212.968 244.966 212.968 245.327C212.968 245.688 212.69 245.978 212.353 245.978C212.016 245.978 211.738 245.853 211.738 245.706ZM308.223 243.517C308.223 243.18 308.501 242.902 308.838 242.902C309.175 242.902 309.453 243.18 309.453 243.517C309.453 243.854 309.175 244.132 308.838 244.132C308.501 244.132 308.223 243.854 308.223 243.517ZM209.893 241.133C209.893 240.796 210.171 240.346 210.508 240.139C210.845 239.932 211.123 240.038 211.123 240.376C211.123 240.713 210.845 241.162 210.508 241.369C210.171 241.576 209.893 241.47 209.893 241.133ZM204.672 238.607C204.459 238.258 204.701 238.157 205.251 238.364C206.315 238.772 206.511 239.216 205.624 239.216C205.304 239.216 204.879 238.944 204.672 238.607ZM302.38 238.601C302.174 238.264 302.292 237.986 302.652 237.986C303.013 237.986 303.303 238.264 303.303 238.601C303.303 238.938 303.179 239.216 303.031 239.216C302.883 239.216 302.587 238.938 302.38 238.601ZM207.126 237.37C206.919 237.033 207.037 236.755 207.398 236.755C207.758 236.755 208.048 237.033 208.048 237.37C208.048 237.708 207.924 237.986 207.776 237.986C207.628 237.986 207.333 237.708 207.126 237.37ZM209.893 237.37C209.893 237.033 210.017 236.755 210.165 236.755C210.313 236.755 210.608 237.033 210.815 237.37C211.022 237.708 210.904 237.986 210.543 237.986C210.183 237.986 209.893 237.708 209.893 237.37ZM167.643 235.732C167.224 235.56 166.875 235.17 166.875 234.856C166.875 233.969 169.589 234.2 170.907 235.194C172.043 236.051 172.007 236.093 170.257 236.069C169.246 236.051 168.069 235.903 167.643 235.732ZM183.195 235.383C182.645 235.075 181.427 234.992 180.487 235.194C179.553 235.401 178.11 235.3 177.282 234.969C175.957 234.436 176.076 234.377 178.299 234.43C181.569 234.507 182.438 233.975 181.604 232.413C181.013 231.307 181.19 231.218 184.123 231.218C187.056 231.218 191.054 232.52 191.745 233.644C192.207 234.389 184.295 235.998 183.195 235.383ZM194.986 235.773C194.259 235.046 195.163 234.294 196.772 234.294C197.735 234.294 198.226 234.584 198.073 235.063C197.789 235.921 195.636 236.418 194.986 235.773ZM639.602 234.797C637.976 233.17 639.584 231.224 642.558 231.224C643.877 231.224 643.877 231.236 642.747 233.17C641.429 235.43 640.642 235.838 639.602 234.797ZM200.059 234.673C200.059 234.543 200.473 234.271 200.982 234.075C201.49 233.88 201.904 233.987 201.904 234.318C201.904 234.649 201.49 234.916 200.982 234.916C200.473 234.916 200.059 234.809 200.059 234.673ZM173.492 230.266C173.302 230.077 172.007 229.905 170.606 229.887C168.678 229.864 168.217 229.668 168.69 229.1C169.145 228.55 168.489 227.817 166.23 226.356C161.801 223.487 159.33 222.925 156.349 224.114C153.558 225.232 153.345 225.261 153.345 224.557C153.345 223.268 158.236 221.854 161.76 222.126C165.13 222.38 167.017 223.102 173.628 226.64C177.25 228.58 178.48 229.718 177.317 230.053C175.325 230.621 173.923 230.698 173.492 230.266ZM177.932 225.078C179.121 224.309 179.777 224.309 179.777 225.078C179.777 225.415 179.156 225.687 178.394 225.681C177.276 225.675 177.187 225.557 177.932 225.078ZM667.364 223.989C666.991 223.741 666.353 222.907 665.945 222.126C665.33 220.955 665.389 220.381 666.317 218.796C667.748 216.341 668.718 216.033 669.185 217.89C669.676 219.843 668.263 224.581 667.364 223.989ZM181.965 223.167C182.373 222.505 184.691 222.428 184.691 223.078C184.691 223.333 183.999 223.581 183.16 223.629C182.32 223.676 181.782 223.469 181.965 223.167ZM169.814 217.24C168.832 216.11 168.974 214.625 170.068 214.625C170.417 214.625 170.565 215.163 170.387 215.826C170.21 216.488 170.387 217.139 170.777 217.281C171.162 217.417 171.316 217.713 171.12 217.932C170.919 218.151 170.334 217.843 169.819 217.246L169.814 217.24ZM173.385 212.413C173.166 211.845 173.125 211.235 173.296 211.07C173.468 210.898 173.781 211.23 174 211.797C174.219 212.365 174.26 212.975 174.089 213.14C173.917 213.312 173.604 212.981 173.385 212.413ZM169.536 211.857C169.536 211.348 170.062 210.934 170.706 210.934C171.747 210.934 171.777 211.034 170.955 211.857C170.446 212.365 169.92 212.779 169.784 212.779C169.648 212.779 169.536 212.365 169.536 211.857ZM684.944 198.375C684.944 197.896 684.27 196.701 683.454 195.725C681.508 193.412 682.194 191.862 684.5 193.376C686.156 194.465 687.025 196.683 686.416 198.28C685.955 199.487 684.944 199.558 684.944 198.375ZM208.048 194.678C208.048 194.53 208.326 194.234 208.663 194.027C209 193.82 209.278 193.938 209.278 194.299C209.278 194.66 209 194.95 208.663 194.95C208.326 194.95 208.048 194.826 208.048 194.678ZM688.367 193.921C687.971 192.879 688.911 191.897 690.319 191.886C691.294 191.874 691.312 193.246 690.348 194.21C689.349 195.21 688.835 195.139 688.367 193.921ZM693.985 191.678C692.79 189.856 691.105 189.608 687.25 190.679C685.683 191.117 684.601 191.122 683.867 190.697C683.276 190.353 683.117 190.064 683.513 190.052C683.909 190.04 685.068 189.33 686.085 188.472C687.398 187.366 688.362 187.023 689.402 187.283C690.502 187.561 691.691 187.029 694.186 185.154C699.047 181.498 699.49 180.344 697.509 176.44C695.611 172.689 696.137 171.483 698.952 173.145C700.998 174.358 702.932 177.818 702.37 179.279C702.169 179.806 702.47 181.456 703.038 182.947C703.842 185.059 703.919 185.946 703.381 186.952C702.594 188.425 700.395 189.413 697.899 189.413C696.498 189.413 696.084 189.774 695.623 191.365L695.061 193.317L693.985 191.667V191.678ZM445.023 189.578C444.29 188.845 444.68 188.182 445.845 188.182C446.502 188.182 447.211 187.904 447.418 187.567C447.992 186.644 448.962 186.828 448.595 187.792C448.217 188.78 445.556 190.111 445.023 189.578ZM424.067 188.514L422.222 187.668L424.682 187.626C427.745 187.573 429.998 188.147 429.555 188.869C429.058 189.667 426.184 189.484 424.067 188.514ZM399.244 182.379C396.784 181.119 396.666 180.959 397.955 180.628C399.492 180.226 402.898 180.729 402.827 181.344C402.804 181.557 402.597 182.184 402.366 182.746C401.988 183.669 401.692 183.633 399.244 182.379ZM386.927 175.73C386.395 174.204 386.436 173.618 387.128 172.926C388.375 171.678 389.345 172.553 389.345 174.937C389.345 177.747 387.802 178.256 386.921 175.73H386.927ZM372.516 176.239C372.954 175.103 374.823 174.908 374.444 176.038C374.302 176.458 373.729 176.895 373.167 177.002C372.451 177.138 372.256 176.907 372.516 176.233V176.239ZM693.624 169.223C692.501 167.643 692.471 167.354 693.299 166.165C694.115 164.999 694.109 164.65 693.269 163.023C691.886 160.35 692.081 160.19 694.476 162.018C695.658 162.923 698 164.07 699.673 164.567C703.133 165.597 703.966 166.401 702.163 166.975C701.483 167.194 700.927 167.768 700.927 168.259C700.927 168.927 700.501 169.045 699.236 168.72C695.995 167.892 695.073 168.093 695.28 169.59C695.534 171.424 695.12 171.335 693.618 169.229L693.624 169.223ZM387.914 169.945C387.199 169.229 387.471 168.04 388.429 167.673C389.097 167.419 389.351 167.738 389.351 168.838C389.351 170.311 388.748 170.779 387.914 169.945ZM689.722 156.984C689.201 156.392 687.942 154.245 686.93 152.216C685.919 150.187 683.235 146.46 680.97 143.934C678.439 141.112 677.156 139.243 677.635 139.083C678.067 138.941 678.989 139.58 679.687 140.515C681.378 142.768 683.459 144.721 686.747 147.146C689.473 149.151 690.815 151.015 689.059 150.334C687.031 149.56 687.54 151.405 690.159 154.357C691.691 156.079 692.938 157.617 692.938 157.776C692.938 158.522 690.561 157.942 689.722 156.99V156.984ZM240.009 155.907C240.009 155.398 240.275 154.984 240.606 154.984C240.937 154.984 241.043 155.398 240.848 155.907C240.653 156.416 240.387 156.83 240.251 156.83C240.115 156.83 240.009 156.416 240.009 155.907ZM236.798 153.925L234.509 153.683L238.82 149.418C241.191 147.069 243.438 145.152 243.817 145.152C244.219 145.152 244.095 145.602 243.533 146.229C242.256 147.643 243.125 149.234 245.466 149.749C246.489 149.974 247.506 150.754 247.897 151.618C248.529 153.002 248.423 153.144 246.294 153.736C244.059 154.357 241.392 154.41 236.81 153.931L236.798 153.925ZM87.0472 149.512C84.9184 147.525 84.6819 146.685 86.0952 146.14C87.3606 145.655 89.6903 147.235 90.5773 149.181C91.5057 151.216 91.488 151.293 90.122 151.293C89.4834 151.293 88.0997 150.488 87.0472 149.506V149.512ZM357.692 146.389C358.366 146.058 359.697 145.501 360.649 145.158C362.742 144.401 362.393 143.597 359.75 143.07C357.935 142.709 357.869 142.615 358.91 141.852C359.531 141.402 359.856 140.739 359.632 140.379C359.407 140.012 360.04 139.45 361.074 139.089C362.086 138.734 362.919 138.172 362.919 137.841C362.919 136.421 361.636 134.031 360.927 134.126C359.289 134.339 358.526 134.049 358.792 133.315C358.946 132.895 358.816 132.061 358.514 131.47C357.722 129.932 359.543 126.749 361.228 126.714C361.482 126.714 361.618 127.045 361.536 127.459C361.453 127.873 362.032 128.311 362.825 128.429L364.268 128.648L362.89 130.115L361.512 131.582L363.067 132.174C364.735 132.807 366.343 134.877 367.981 138.486C368.767 140.219 369.282 140.668 370.198 140.432C372.079 139.941 372.298 141.213 370.535 142.366C369.341 143.147 369.116 143.591 369.637 144.111C370.157 144.632 369.128 144.987 365.557 145.501C362.925 145.88 359.809 146.371 358.626 146.59C356.983 146.898 356.764 146.844 357.704 146.383L357.692 146.389ZM347.326 142.993C347.113 142.443 347.356 141.201 347.859 140.225C348.438 139.107 348.55 138.314 348.16 138.077C347.096 137.421 347.492 136.581 349.059 136.184C349.893 135.977 350.892 135.415 351.282 134.942C352.098 133.954 355.889 133.771 356.456 134.694C356.663 135.031 356.403 135.924 355.877 136.675C355.351 137.427 354.919 138.781 354.919 139.68C354.919 141.053 354.499 141.461 352.305 142.224C350.868 142.721 349.242 143.325 348.698 143.561C348.054 143.839 347.569 143.638 347.32 142.993H347.326ZM358.615 136.882C358.615 136.735 358.892 136.439 359.23 136.232C359.567 136.025 359.844 136.143 359.844 136.504C359.844 136.865 359.567 137.155 359.23 137.155C358.892 137.155 358.615 137.03 358.615 136.882ZM85.8764 133.919C85.2732 133.191 85.3146 132.854 86.0656 132.227C87.3133 131.192 87.9341 131.896 87.2068 133.522C86.7042 134.646 86.5209 134.7 85.8764 133.919ZM84.9125 129.293C84.7056 128.956 84.948 128.34 85.4506 127.92C86.4499 127.092 86.6569 127.743 85.8172 129.068C85.4979 129.577 85.1431 129.659 84.9125 129.293ZM45.188 128.902C45.188 128.47 47.0506 127.713 49.6938 127.074C50.6931 126.832 51.2903 126.891 51.0893 127.21C50.9001 127.518 49.9776 127.926 49.0434 128.116C48.1091 128.305 46.8555 128.648 46.2642 128.873C45.6729 129.103 45.188 129.115 45.188 128.902ZM410.39 121.987C409.255 121.531 409.456 120.822 410.751 120.727C411.372 120.68 411.88 121.035 411.88 121.52C411.88 122.437 411.667 122.502 410.396 121.987H410.39ZM275.34 118.846C271.449 116.722 269.592 113.463 270.716 110.741C271.248 109.452 271.266 108.641 270.775 107.73C269.758 105.826 271.082 103.601 274.482 101.507C276.097 100.513 277.705 99.1587 278.06 98.4962C279.041 96.6564 278.166 93.5034 276.451 92.7226C275.582 92.3262 275.115 91.7051 275.304 91.2023C275.742 90.0665 273.696 86.1799 271.656 84.2751C270.154 82.8731 269.509 82.7371 264.377 82.7016C257.381 82.6543 256.081 82.2697 256.199 80.2584C256.246 79.4243 256.429 78.7441 256.607 78.7441C256.784 78.7441 259.274 78.4542 262.136 78.1052C265.79 77.6556 269.072 76.7268 273.146 74.9877C279.455 72.2961 279.94 72.2428 294.995 72.5978C299.749 72.7102 304.125 72.3552 309.742 71.4087C314.976 70.5273 318.825 70.196 320.906 70.4445C322.674 70.6574 325.229 70.5155 326.678 70.125C330.03 69.22 338.735 70.3084 342.164 72.0535C344.186 73.0888 345.263 73.2248 348.675 72.8817C352.364 72.5149 352.642 72.5623 351.537 73.3786C350.862 73.8755 348.787 74.4848 346.93 74.7274C342.897 75.2598 339.19 78.1347 340.171 79.9745C340.597 80.7672 340.29 81.4416 338.924 82.7548C337.93 83.7072 336.967 84.9495 336.789 85.5115C336.363 86.8602 330.929 89.3684 328.233 89.4631C325.241 89.5696 324.927 90.2025 327.239 91.4803C328.333 92.0837 329.93 93.1071 330.787 93.7637L332.348 94.9468L330.941 95.4674C329.859 95.8697 328.984 95.6094 327.186 94.3612C324.75 92.6693 322.125 92.6634 323.526 94.3494C324.07 95.006 323.94 95.2604 322.917 95.5325C320.634 96.13 322.249 97.3131 324.768 96.8872C326.37 96.615 327.275 96.757 327.772 97.3604C328.369 98.0821 327.588 98.4134 323.112 99.354C320.155 99.9751 316.217 100.507 314.361 100.537C310.907 100.59 308.418 101.578 304.758 104.364C303.563 105.27 301.026 106.175 298.058 106.743C291.855 107.932 289.756 109.304 286.019 114.628C283.015 118.905 281.206 120.502 279.331 120.514C278.823 120.514 277.025 119.769 275.334 118.846H275.34ZM231.766 114.734C230.447 113.924 228.827 112.41 228.17 111.374C226.887 109.345 225.705 109.091 222.245 110.085C221.075 110.422 219.756 110.452 219.23 110.162C217.409 109.144 220.696 108.139 224.356 108.6C227.142 108.949 227.757 108.848 228.082 108.003C228.732 106.305 231.718 105.08 233.38 105.837C234.403 106.305 235.331 106.293 236.638 105.79C238.394 105.122 238.418 105.057 237.271 104.217C236.614 103.737 235.863 103.341 235.609 103.341C235.355 103.341 234.415 102.105 233.528 100.596C232.641 99.0878 230.985 97.2717 229.844 96.5677C227.904 95.3669 227.65 95.3491 225.912 96.2424C224.392 97.0291 223.517 97.0824 221.116 96.544C219.502 96.1832 217.243 96.059 216.102 96.2719C214.121 96.6446 210.496 95.6745 210.496 94.7753C210.496 93.1248 215.7 89.4158 218.792 88.8656L221.252 88.4279L219.496 90.3031C217.071 92.8882 217.982 94.0773 220.613 91.7643C221.731 90.7823 223.659 89.7885 224.9 89.5577C226.799 89.2028 227.609 89.4335 229.992 91.013C233.161 93.113 233.404 93.1722 235.195 92.2138C236.271 91.64 236.674 91.7938 237.838 93.2609C238.649 94.2784 240.452 95.3787 242.214 95.9407C245.023 96.828 245.212 97.0232 245.212 98.9576C245.212 100.413 245.632 101.324 246.619 102.034C250.741 104.986 250.652 104.861 249.759 106.293C248.535 108.251 247.572 108.393 244.863 107.015C242.977 106.05 242.155 105.92 241.209 106.429C240.05 107.05 240.038 107.18 240.972 108.99C241.741 110.475 241.812 111.221 241.286 112.368C240.641 113.776 240.541 113.8 238.796 112.901C235.367 111.126 233.061 112.297 236.26 114.184C237.259 114.776 237.939 115.486 237.773 115.764C237.176 116.728 234.137 116.213 231.754 114.752L231.766 114.734ZM358 115.533C358 115.249 358.414 115.018 358.922 115.018C359.431 115.018 359.844 115.249 359.844 115.533C359.844 115.817 359.431 116.048 358.922 116.048C358.414 116.048 358 115.817 358 115.533ZM208.592 112.226C207.38 111.587 206.44 111.534 204.743 112.001C201.857 112.8 200.852 112.214 202.312 110.599C204.187 108.529 205.458 108.121 207.717 108.866C210.26 109.706 211.389 110.954 210.703 112.167C210.265 112.942 209.97 112.948 208.592 112.226ZM330.651 111.948C329.64 111.28 328.345 110.883 327.783 111.061C327.009 111.309 326.837 111.09 327.074 110.179C327.44 108.783 332.839 106.76 334.666 107.34C335.305 107.541 336.931 107.375 338.279 106.973C340.402 106.334 340.964 106.388 342.401 107.328L344.062 108.417L342.584 109.57C341.336 110.546 339.018 111.386 333.425 112.912C332.916 113.049 331.674 112.617 330.657 111.948H330.651ZM163.8 100.472C162.954 100.336 160.897 99.6142 159.223 98.863L156.184 97.4965L160.453 97.1888C162.801 97.0173 164.722 96.6032 164.722 96.266C164.722 95.9288 163.061 95.5029 161.033 95.3195C158.354 95.0829 157.851 94.9113 159.188 94.7043C161.429 94.3553 161.588 93.3851 159.495 92.8586C157.987 92.48 157.999 92.4564 160.122 91.5395C163.8 89.9541 167.72 89.6524 171.191 90.6817C174.041 91.5276 174.485 91.5276 175.833 90.6462C176.785 90.0251 177.347 89.9186 177.394 90.3563C177.436 90.7349 177.507 91.362 177.548 91.7583C177.69 93.0893 178.914 92.9178 180.38 91.362C181.734 89.9186 184.082 89.2265 184.076 90.2735C184.076 90.5279 183.526 91.6282 182.864 92.7226L181.652 94.7102L183.633 95.7454L185.613 96.7807L182.355 98.2655C179.417 99.6083 178.813 99.6852 176.182 99.0523C173.628 98.437 172.894 98.508 170.322 99.6142C167.419 100.862 166.804 100.939 163.794 100.466L163.8 100.472ZM188.446 100.04C187.89 99.3717 188.121 99.0404 189.552 98.4489C190.551 98.0348 191.982 97.8987 192.751 98.1413C194.081 98.5613 194.052 98.6323 192.029 99.7089C189.445 101.081 189.321 101.099 188.446 100.04ZM358 97.1948C359.188 96.4257 359.844 96.4257 359.844 97.1948C359.844 97.532 359.224 97.8041 358.461 97.7981C357.343 97.7922 357.255 97.6739 358 97.1948ZM470.769 95.4911C467.629 94.2488 467.694 94.3198 468.605 93.2136C469.031 92.6989 469.143 92.2671 468.848 92.2552C468.552 92.2434 468.865 91.8175 469.539 91.3088C470.213 90.8 470.775 90.1848 470.781 89.9423C470.805 89.0313 473.306 86.6354 475.074 85.8309C476.085 85.3695 478.717 84.8489 480.91 84.6715C483.11 84.4999 486.049 84.1746 487.45 83.9616C488.94 83.7309 490.153 83.8255 490.377 84.1864C490.815 84.8903 489.981 85.192 485.209 86.0498C480.479 86.9016 477.629 88.2267 475.76 90.4569C473.785 92.8054 473.72 94.2843 475.535 95.5502L476.919 96.5145L475.074 96.4849C474.063 96.4672 472.123 96.0176 470.769 95.4852V95.4911ZM148.899 93.7105C147.905 92.7167 148.136 92.5037 152.89 89.9008C158.46 86.8484 161.263 86.4461 166.26 87.9664L169.027 88.8065L165.337 89.54C162.322 90.1375 155.929 92.2789 150.886 94.373C150.371 94.586 149.484 94.2902 148.905 93.7105H148.899ZM193.295 92.9119C193.295 92.5865 192.532 91.8826 191.604 91.3442L189.912 90.3741L192.177 90.729C193.785 90.9834 194.584 90.8296 194.944 90.2085C195.37 89.469 199.279 87.9842 200.84 87.9724C201.1 87.9724 200.887 88.8005 200.367 89.8121C199.131 92.1961 193.301 94.7516 193.301 92.906L193.295 92.9119ZM202.862 91.1195C201.981 89.6938 207.995 87.4873 210.549 88.2977C212.412 88.8893 211.164 89.9068 207.918 90.4451C206.463 90.6876 204.819 91.078 204.264 91.3147C203.708 91.5513 203.075 91.4626 202.862 91.1195ZM222.488 86.594C218.432 86.2687 215.037 85.9374 214.943 85.8487C214.393 85.3399 215.765 83.6776 217.237 83.0683C218.686 82.465 219.354 82.5478 221.341 83.5593C223.274 84.5472 224.522 84.707 228.117 84.4467C230.542 84.2692 233.309 84.3284 234.261 84.5709L235.999 85.0087L233.847 86.1563C232.664 86.7892 231.281 87.2743 230.772 87.2388C230.264 87.2033 226.533 86.9076 222.476 86.5881L222.488 86.594ZM399.344 84.0799C396.323 82.5359 396.033 81.832 398.404 81.8202C399.333 81.8202 400.509 81.5125 401.018 81.1458C401.816 80.572 401.804 80.5246 400.941 80.8027C400.391 80.9801 399.616 80.8027 399.226 80.4063C398.682 79.8621 398.398 79.8739 398.043 80.4477C397.712 80.9801 397.038 81.0452 395.767 80.6607C392.526 79.6905 391.805 79.2587 391.805 78.2945C391.805 77.4781 392.615 77.4071 397.641 77.7562C401.467 78.0283 403.478 77.9514 403.478 77.5373C403.478 76.3246 405.181 76.9221 405.636 78.2945L406.091 79.6787L406.363 78.2945C406.511 77.5314 407.031 76.9102 407.516 76.9102C408.001 76.9102 408.397 76.5789 408.397 76.1708C408.397 75.597 408.563 75.597 409.137 76.1708C409.568 76.6026 411.62 76.9102 414.05 76.9102C418.444 76.9102 419.479 77.697 416.546 78.8091C415.02 79.3889 412.377 79.2232 409.474 78.3714C408.882 78.1998 408.397 78.2826 408.403 78.5607C408.403 79.1286 411.862 81.2168 412.797 81.2168C413.134 81.2168 413.796 81.6072 414.269 82.0804C415.008 82.8199 415.002 82.9914 414.228 83.2931C413.731 83.4824 413.323 83.3405 413.323 82.9796C413.323 82.5478 412.543 82.465 411.112 82.7312C409.562 83.021 409.024 82.9441 409.32 82.465C409.55 82.0923 409.409 81.3824 409.001 80.8914C408.214 79.939 405.949 79.6491 405.949 80.501C405.949 80.779 405.051 81.9976 403.951 83.2103L401.952 85.4168L399.356 84.0858L399.344 84.0799ZM236.313 82.7252C235.249 82.0982 233.741 81.9207 231.399 82.1337C229.211 82.3348 227.526 82.1633 226.609 81.6368C225.35 80.9151 225.657 80.8382 229.495 80.8677C234.296 80.9092 236.402 79.8798 233.806 78.7677C232.57 78.2412 232.753 78.1939 234.87 78.4838C237.632 78.8683 238.708 78.1288 237.2 76.8747C235.597 75.5437 237.359 75.1296 243.072 75.4964C246.608 75.7271 248.825 75.597 249.736 75.1119C251.474 74.1831 250.794 72.9941 248.807 73.4969C247.436 73.84 237.898 73.2781 238.3 72.8758C238.589 72.5859 252.095 71.3377 260.971 70.7758C265.571 70.4859 270.686 70.0777 272.342 69.8766L275.346 69.5039L270.39 71.8879C265.743 74.124 258.186 76.3009 255.081 76.3009C254.324 76.3009 252.154 77.1291 250.25 78.1466C248.352 79.1581 246.413 79.9922 245.951 79.9922C245.49 79.9922 243.474 80.8204 241.487 81.8261C239.5 82.8317 237.868 83.654 237.868 83.6481C237.868 83.6422 237.176 83.2281 236.331 82.7312L236.313 82.7252ZM224.327 77.1054C221.347 76.4488 221.24 76.2004 223.428 75.0646C226.621 73.4082 229.637 72.9882 231.009 73.9998C232.097 74.8043 232.032 74.9285 229.897 76.1885C227.674 77.5018 226.769 77.6497 224.327 77.1114V77.1054Z" fill="#F6F7FE"/>
<path d="M866.691 175.084V180.952C839.951 185.43 775.835 197.007 700.785 216.41C480.97 271.567 157.532 393.257 403.839 597.693H0C0 597.693 102.51 218.498 866.691 175.084Z" fill="#CCCCCC"/>
<path d="M421.453 597.693H403.838C157.532 393.257 480.969 271.567 700.785 216.41C637.863 232.684 567.26 254.459 504.557 282.18C345.499 352.492 237.199 460.943 421.453 597.693Z" fill="#FDFDFD"/>
<path d="M423.203 597.694H421.453C237.199 460.944 345.498 352.493 504.556 282.181C567.259 254.46 637.862 232.685 700.784 216.411C753.677 203.143 800.568 193.719 832.08 187.928C680.993 217.476 100.948 350.447 423.203 597.694Z" fill="#CCCCCC"/>
<path d="M179.304 598.64C179.221 598.209 179.18 597.919 179.12 597.57L178.973 596.582C178.884 595.931 178.795 595.286 178.724 594.641C178.57 593.358 178.446 592.08 178.34 590.808C178.127 588.259 177.991 585.721 177.902 583.189C177.825 580.657 177.796 578.125 177.831 575.599C177.855 573.073 177.95 570.553 178.068 568.033L186.778 568.376C186.725 570.784 186.695 573.192 186.737 575.593C186.766 577.995 186.855 580.397 186.985 582.787C187.127 585.177 187.316 587.555 187.576 589.915C187.706 591.092 187.848 592.269 188.02 593.429C188.102 594.009 188.191 594.582 188.286 595.15L188.434 595.99L188.581 596.742L179.31 598.64H179.304Z" fill="white"/>
<path d="M179.037 556.09C180.149 546.169 181.929 536.349 184.294 526.689C186.665 517.029 189.651 507.534 193.146 498.253L199.828 500.708C196.617 509.8 193.915 519.07 191.815 528.458C189.71 537.846 188.232 547.364 187.41 556.912L179.031 556.09H179.037Z" fill="white"/>
<path d="M197.615 487.22C201.548 478.122 205.994 469.26 210.855 460.641C215.721 452.028 221.031 443.675 226.708 435.601L231.468 438.896C226.034 446.917 220.972 455.187 216.36 463.694C211.742 472.194 207.597 480.944 203.948 489.882L197.609 487.22H197.615Z" fill="white"/>
<path d="M233.703 426.047C239.681 418.197 246.008 410.625 252.631 403.331C259.248 396.031 266.172 389.021 273.303 382.248L276.497 385.573C269.525 392.352 262.825 399.409 256.421 406.715C250.017 414.021 243.921 421.581 238.179 429.395L233.703 426.047Z" fill="white"/>
<path d="M281.992 374.256C296.657 361.147 312.214 349.086 328.363 337.929L330.456 340.922C314.568 352.215 299.312 364.389 284.978 377.551L281.992 374.25V374.256Z" fill="white"/>
<path d="M338.125 331.35C346.321 325.955 354.658 320.779 363.108 315.81C371.564 310.847 380.114 306.05 388.771 301.453L390.09 303.902C381.516 308.57 373.036 313.397 364.699 318.466C356.355 323.524 348.136 328.783 340.07 334.255L338.131 331.35H338.125Z" fill="white"/>
<path d="M399.201 296.028C416.663 287.131 434.479 278.956 452.544 271.39L453.36 273.318C435.413 281.044 417.733 289.367 400.419 298.4L399.195 296.028H399.201Z" fill="white"/>
<path d="M463.414 266.923C472.497 263.262 481.632 259.748 490.822 256.37C500.005 252.986 509.253 249.762 518.519 246.621L518.98 247.982C509.738 251.158 500.555 254.501 491.413 257.955C482.277 261.416 473.188 265.013 464.165 268.751L463.414 266.917V266.923Z" fill="white"/>
<path d="M529.664 242.924C548.273 236.861 567.035 231.282 585.91 226.118L586.182 227.1C567.354 232.371 548.639 238.056 530.09 244.22L529.664 242.924Z" fill="white"/>
<path d="M597.246 223.072C616.162 218.079 635.191 213.488 654.29 209.259L654.42 209.85C635.35 214.192 616.369 218.895 597.489 223.995L597.246 223.078V223.072Z" fill="white"/>
<path d="M665.756 206.762C675.317 204.71 684.909 202.769 694.5 200.864C704.097 198.965 713.706 197.149 723.326 195.404L723.385 195.736C713.765 197.498 704.162 199.332 694.571 201.249C684.98 203.154 675.412 205.189 665.862 207.289L665.75 206.768L665.756 206.762Z" fill="white"/>
<path d="M734.887 193.351C754.158 189.991 773.476 186.921 792.836 184.117L792.865 184.312C773.511 187.158 754.199 190.263 734.94 193.659L734.887 193.351Z" fill="white"/>
<path d="M804.453 182.461C823.825 179.757 843.232 177.314 862.668 175.096V175.155C843.243 177.409 823.842 179.893 804.477 182.632L804.453 182.461Z" fill="white"/>
<path d="M874.371 173.795L889.077 172.274L892.755 171.884C893.979 171.73 895.185 171.446 896.38 171.008C897.574 170.576 898.751 169.985 899.916 169.198C901.075 168.394 902.222 167.447 903.322 166.027L904.25 175.445C902.902 174.285 901.595 173.593 900.3 173.043C899.011 172.511 897.74 172.18 896.48 172.002C895.227 171.819 893.985 171.789 892.755 171.896L889.077 172.274L874.377 173.824V173.789L874.371 173.795Z" fill="white"/>
<path d="M1030 598.195H954.701L824.133 245.201L842.617 241.562L1030 598.195Z" fill="#B499E5"/>
<path d="M954.702 598.195H917.059L812.898 241.681L824.133 245.2L954.702 598.195Z" fill="#F9F8FD"/>
<path d="M917.059 598.195H776.604L775.883 249.625L812.603 241.586L812.899 241.681L917.059 598.195Z" fill="#B499E5"/>
<path d="M776.605 598.195H674.633L748.116 245.78L748.488 245.91L775.825 249.637L775.884 249.625L776.605 598.195Z" fill="#F9F8FD"/>
<path d="M734.219 240.758L617.534 598.195H512.387L701.791 249.773L734.219 240.758Z" fill="#F9F8FD"/>
<path d="M775.597 113.999L734.217 240.758L701.789 249.774L775.597 113.999Z" fill="white"/>
<path d="M775.599 113.999L748.115 245.781L734.242 240.752L734.219 240.758L775.599 113.999Z" fill="#F0EBFA"/>
<path d="M775.881 249.626L775.822 249.637L748.486 245.911L748.113 245.781L775.598 113.999L775.881 249.626Z" fill="white"/>
<path d="M842.617 241.563L824.133 245.201L775.598 113.999L842.617 241.563Z" fill="#F0EBFA"/>
<path d="M824.133 245.201L812.898 241.681L775.598 113.999L824.133 245.201Z" fill="#FDFDFD"/>
<path d="M812.898 241.681L812.602 241.586L775.881 249.626L775.598 113.999L812.898 241.681Z" fill="#F0EBFA"/>
<path d="M748.115 245.78L674.633 598.195H617.535L734.219 240.758L734.243 240.752L748.115 245.78Z" fill="#B499E5"/>
<path d="M737.296 597.694H680.772L582.762 332.717L596.64 329.984L737.296 597.694Z" fill="#B499E5"/>
<path d="M680.775 597.694H652.522L574.332 330.073L582.764 332.717L680.775 597.694Z" fill="#F9F8FD"/>
<path d="M652.522 597.694H547.085L546.547 336.036L574.108 330.002L574.333 330.073L652.522 597.694Z" fill="#B499E5"/>
<path d="M547.085 597.694H470.539L525.703 333.149L525.981 333.25L546.499 336.048L546.547 336.036L547.085 597.694Z" fill="#F9F8FD"/>
<path d="M515.27 329.381L427.679 597.694H348.75L490.926 336.148L515.27 329.381Z" fill="#F9F8FD"/>
<path d="M546.332 234.229L515.27 329.381L490.926 336.148L546.332 234.229Z" fill="white"/>
<path d="M546.331 234.229L525.7 333.149L515.287 329.375L515.27 329.381L546.331 234.229Z" fill="#F0EBFA"/>
<path d="M546.543 336.036L546.496 336.048L525.977 333.25L525.699 333.149L546.33 234.229L546.543 336.036Z" fill="white"/>
<path d="M596.641 329.984L582.763 332.717L546.332 234.229L596.641 329.984Z" fill="#F0EBFA"/>
<path d="M582.763 332.717L574.331 330.073L546.332 234.229L582.763 332.717Z" fill="#FDFDFD"/>
<path d="M574.331 330.073L574.106 330.002L546.545 336.036L546.332 234.229L574.331 330.073Z" fill="#F0EBFA"/>
<path d="M525.702 333.149L470.538 597.694H427.68L515.271 329.381L515.289 329.375L525.702 333.149Z" fill="#B499E5"/>
<path d="M493.281 597.695H464.526L414.66 462.878L421.72 461.488L493.281 597.695Z" fill="#B499E5"/>
<path d="M464.524 597.694H450.149L410.371 461.535L414.658 462.878L464.524 597.694Z" fill="#F9F8FD"/>
<path d="M450.15 597.695H396.506L396.234 464.57L410.254 461.5L410.373 461.535L450.15 597.695Z" fill="#B499E5"/>
<path d="M396.507 597.695H357.562L385.626 463.098L385.768 463.151L396.211 464.577L396.235 464.571L396.507 597.695Z" fill="#F9F8FD"/>
<path d="M380.321 461.181L335.76 597.695H295.598L367.933 464.624L380.321 461.181Z" fill="#F9F8FD"/>
<path d="M396.127 412.773L380.322 461.181L367.934 464.624L396.127 412.773Z" fill="white"/>
<path d="M396.126 412.773L385.624 463.097L380.332 461.181H380.32L396.126 412.773Z" fill="#F0EBFA"/>
<path d="M396.233 464.57L396.21 464.576L385.767 463.151L385.625 463.097L396.127 412.773L396.233 464.57Z" fill="white"/>
<path d="M421.721 461.488L414.661 462.878L396.129 412.773L421.721 461.488Z" fill="#F0EBFA"/>
<path d="M414.661 462.878L410.374 461.536L396.129 412.773L414.661 462.878Z" fill="#FDFDFD"/>
<path d="M410.374 461.536L410.255 461.5L396.235 464.57L396.129 412.773L410.374 461.536Z" fill="#F0EBFA"/>
<path d="M385.623 463.097L357.56 597.695H335.758L380.319 461.181H380.331L385.623 463.097Z" fill="#B499E5"/>
<path d="M322.344 495.401C321.072 496.667 319.825 497.957 318.583 499.235C313.965 504.003 309.116 508.504 304.303 513.083C298.685 518.425 293.068 523.778 287.166 528.807C281.135 533.947 274.831 538.769 268.652 543.726C246.283 561.668 223.807 579.48 201.656 597.694H403.839C359.579 560.958 333.715 526.89 322.344 495.407V495.401Z" fill="#CCCCCC"/>
<path d="M329.857 488.688C327.197 490.734 324.725 493.03 322.336 495.408C333.707 526.896 359.571 560.958 403.831 597.694H421.446C369.34 559.018 340.637 522.613 329.852 488.688H329.857Z" fill="#FDFDFD"/>
<path d="M332.146 487.037C331.365 487.564 330.608 488.114 329.863 488.688C340.643 522.613 369.345 559.024 421.458 597.694H423.208C371.285 557.858 342.795 520.987 332.152 487.037H332.146Z" fill="#CCCCCC"/>
<g clip-path="url(#clip0_442_879)">
<path d="M737.161 64.9472C737.161 64.9472 736.616 66.1093 736.618 66.6559C736.62 67.2026 736.688 68.3394 736.688 68.3394L736.288 69.9399L737.099 70.1364C737.099 70.1364 737.592 72.4155 737.603 72.6706C737.613 72.9257 737.601 73.6211 738.232 73.5542C738.864 73.4872 739.633 73.665 739.633 73.665L739.658 74.272C739.658 74.272 742.432 75.9357 742.49 75.8669C742.549 75.7981 744.595 72.5914 744.595 72.5914L744.234 71.0426L744.928 71.0139C744.928 71.0139 744.766 70.1775 744.802 70.0687C744.839 69.9599 745.738 67.7101 745.747 67.4338C745.756 67.1575 746.179 65.1369 745.799 64.1204C745.42 63.1038 744.704 62.602 744.704 62.602C744.704 62.602 743.816 61.0341 742.071 60.7689C740.327 60.5036 737.961 60.9182 737.419 61.1705C736.878 61.4228 736.113 62.2362 736.296 63.0718C736.479 63.9074 737.148 64.2579 737.148 64.2579L737.155 64.9321L737.161 64.9472Z" fill="#96A6E9"/>
<path d="M742.39 76.0397L741.936 76.8198L742.442 77.3048L747.21 95.3148C747.21 95.3148 749.967 96.8259 749.963 96.7188C749.959 96.6117 750.951 94.0208 750.951 94.0208L743.611 76.8733L743.85 75.9794L742.721 75.7705L742.395 76.0395L742.39 76.0397Z" fill="#96A6E9"/>
<path d="M739.749 74.4419L744.718 92.4896L744.438 101.065C744.438 101.065 741.246 101.514 741.185 101.537C741.125 101.56 737.799 100.261 737.799 100.261L738.07 88.39C738.07 88.39 736.856 81.0357 736.754 81.0399C736.652 81.0441 727.267 73.1842 727.267 73.1842L720.998 60.4229L724.115 58.6487L729.86 68.8563C729.86 68.8563 738.094 73.9788 738.202 73.9999C738.31 74.021 739.415 74.2819 739.415 74.2819L739.76 74.4415L739.749 74.4419Z" fill="#96A6E9"/>
<path d="M744.821 71.9942C744.821 71.9942 755.673 97.5405 755.735 97.5584C755.797 97.5762 758.92 97.4268 758.92 97.4268L759.677 94.3347C759.677 94.3347 755.566 83.1961 755.517 83.1316C755.469 83.0672 754.619 78.2121 754.619 78.2121C754.619 78.2121 777.97 71.0033 777.904 71.006C777.838 71.0088 776.827 67.9488 776.827 67.9488L752.794 72.4007L748.05 72.5558L744.815 71.9944L744.821 71.9942Z" fill="#96A6E9"/>
<path d="M776.944 68.1387L778.961 67.3196L779.979 66.4548L779.795 67.4487L782.102 67.3534C782.102 67.3534 782.155 68.1534 782.067 69.1075C781.979 70.0617 781.808 70.5133 781.808 70.5133L779.56 70.3097L778.253 70.3637L777.888 70.6752L776.939 68.1389L776.944 68.1387Z" fill="#96A6E9"/>
<path d="M721.412 60.0121L720.933 59.0559C720.933 59.0559 720.416 58.5509 719.739 57.889C719.062 57.2271 718.995 56.5809 719.267 56.2477C719.54 55.9145 722.003 54.6324 722.484 54.5308C722.966 54.4291 723.488 54.3258 723.733 55.2917C723.977 56.2576 723.811 57.1741 723.811 57.1741L724.102 58.6542L721.407 60.0123L721.412 60.0121Z" fill="#96A6E9"/>
<path d="M754.547 95.6762C754.426 95.722 744.604 99.6944 744.604 99.6944L744.388 101.4L744.781 102.119C744.781 102.119 745.76 123.863 745.57 124.193C745.379 124.523 747.233 141.81 747.233 141.81C747.233 141.81 751.009 140.882 750.888 140.928C750.767 140.974 750.889 123.242 750.889 123.242L754.1 104.652C754.809 104.138 767.173 100.786 767.173 100.786L771.85 113.736C771.85 113.736 775.263 111.811 775.099 111.818C774.936 111.825 771.936 96.1282 771.606 95.0892C771.277 94.0501 770.212 93.7671 768.956 93.8189C767.701 93.8708 759.239 94.3838 759.239 94.3838L754.542 95.6713L754.547 95.6762Z" fill="#96A6E9"/>
<path d="M773.238 117.823L775.326 117.108L775.615 116.427L776.441 116.755L781.681 114.878C781.681 114.878 782.15 114.455 781.09 114.295C780.03 114.134 778.068 113.811 778.068 113.811L775.102 111.823C775.102 111.823 772.246 113.484 772.052 113.61C771.858 113.736 771.962 115.397 772.365 116.234C772.767 117.071 773.243 117.823 773.243 117.823L773.238 117.823Z" fill="#96A6E9"/>
<path d="M750.697 141.064L752.576 144.354L750.887 145.681C750.309 145.418 749.529 147.198 749.529 147.198L745.277 149.362L744.722 148.695L746.438 146.028C746.438 146.028 747.042 143.933 747.134 143.199C747.226 142.464 747.514 141.64 747.514 141.64L750.697 141.064Z" fill="#96A6E9"/>
<path d="M779.665 113.663L782.954 32.7229L781.173 32.7965L778.065 113.811L779.665 113.663Z" fill="#B499E5"/>
<path d="M784.17 5.0487L784.162 4.84975L782.539 4.91679L781.174 32.797L783.242 32.7116L784.17 5.0487Z" fill="#B499E5"/>
<path d="M783.242 32.7113C783.242 32.7113 789.471 26.2863 801.466 26.7669C813.462 27.2476 819.892 35.6179 827.282 37.6275C834.672 39.632 841.259 39.8915 841.265 40.0496C841.272 40.2078 839.933 32.3119 842.672 24.9579C845.411 17.6091 848.436 13.2224 848.436 13.2224C848.436 13.2224 846.377 14.3755 836.943 14.0241C822.025 13.4649 819.114 3.89146 805.251 2.39442C791.388 0.89737 784.326 4.84266 784.326 4.84266L783.243 32.7164L783.242 32.7113Z" fill="#B499E5"/>
</g>
<defs>
<clipPath id="clip0_442_879">
<rect width="131" height="145" fill="white" transform="translate(717 5.40527) rotate(-2.36483)"/>
</clipPath>
</defs>
</svg>
