<svg width="324" height="242" viewBox="0 0 324 242" fill="none" xmlns="http://www.w3.org/2000/svg">
<g clip-path="url(#clip0_123_515)">
<path opacity="0.3" d="M174.602 96.2177C174.175 96.3265 162.988 99.848 160.11 101.131C157.231 102.413 154.462 104.015 153.29 107.427C152.119 110.84 138.69 135.296 138.69 135.296L136.665 127.072C136.665 127.072 129.737 130.383 123.562 130.702C117.386 131.021 111.203 130.166 111.203 130.166L112.592 140.52C112.592 140.52 116.533 141.912 118.775 142.23C121.017 142.549 121.762 143.622 123.251 147.143C124.741 150.665 136.781 185.476 136.781 185.476C136.781 185.476 139.66 181.099 142.91 178.852C146.161 176.606 150.738 174.258 150.738 174.258C150.738 174.258 154.57 166.787 156.921 162.084C159.272 157.381 163.74 153.65 163.74 153.65L166.937 173.613C166.937 173.613 169.07 175.214 173.329 175.533C177.588 175.852 186.859 175.642 187.286 175.642C187.713 175.642 190.273 175.751 190.273 175.751C190.273 175.751 192.507 177.78 191.762 182.902C191.018 188.025 189.101 191.764 189.101 191.764L217.868 192.402C217.868 192.402 217.868 190.801 218.295 190.373C218.722 189.945 219.575 187.489 230.444 187.17C241.313 186.851 242.484 189.837 242.484 189.837V192.402H255.805C255.805 192.402 251.01 125.462 249.839 119.057C248.667 112.651 247.178 107.63 240.359 103.68C233.539 99.7314 217.767 91.5068 217.767 91.5068C217.767 91.5068 203.919 103.782 191.134 104.427C178.349 105.072 174.617 96.2022 174.617 96.2022L174.602 96.2177Z" fill="#B499E5"/>
<path d="M200.275 63.8711L203.898 61.0959C205.069 60.886 207.948 61.0959 207.948 61.0959C207.948 61.0959 209.972 58.9581 210.508 59.0669C211.043 59.1758 211.361 56.9291 211.361 56.5016C211.361 56.074 212.851 45.5018 211.361 40.4877C209.872 35.4737 206.885 29.5968 202.408 27.8865C197.932 26.1763 191.431 26.9226 191.431 26.9226C191.431 26.9226 183.013 22.3283 175.558 25.8576C168.102 29.3869 168.529 34.2921 168.529 34.2921C168.529 34.2921 161.71 34.2921 161.5 39.7337C161.291 45.1753 159.584 45.393 166.504 47.5307C173.424 49.6685 179.289 50.8423 180.996 50.6247C182.703 50.407 188.025 49.6607 188.025 49.6607H195.054C195.054 49.6607 195.907 50.9434 197.932 52.6536C199.957 54.3638 200.065 55.6465 200.065 55.6465L200.275 63.8711Z" fill="#B499E5"/>
<path d="M154.997 199.5L142.701 203.488L54.4844 197.082V200.86L142.701 207.468L168.279 197.96" stroke="#303030" stroke-width="2" stroke-linecap="round" stroke-linejoin="round"/>
<path d="M143.064 203.938L142.699 207.468" stroke="#303030" stroke-width="2" stroke-linecap="round" stroke-linejoin="round"/>
<path d="M141.615 200.223L121.552 143.599C121.164 142.511 120.171 141.749 119.023 141.656L35.9271 135.274C33.7937 135.11 32.211 137.225 32.9636 139.23L53.6697 194.245" stroke="#303030" stroke-width="2" stroke-linecap="round" stroke-linejoin="round"/>
<path d="M84.0204 168.467C84.8428 169.003 85.3936 169.975 85.3936 171.087C85.3936 172.773 84.1213 174.142 82.5464 174.142C80.9715 174.142 79.6992 172.773 79.6992 171.087C79.6992 170.511 79.8466 169.983 80.1026 169.524" stroke="#303030" stroke-width="2" stroke-linecap="round" stroke-linejoin="round"/>
<path d="M175.602 192.799H215.548" stroke="#303030" stroke-width="2" stroke-linecap="round" stroke-linejoin="round"/>
<path d="M242.758 192.799H295.636" stroke="#303030" stroke-width="2" stroke-linecap="round" stroke-linejoin="round"/>
<path d="M221.516 215.249C220.507 214.682 219.863 213.655 219.77 212.497C219.351 207.32 218.032 191.189 217.73 189.899C217.365 188.36 219.444 186.276 231.019 186.276C242.594 186.276 242.408 188.181 241.686 190.987C241.089 193.304 239.631 207.569 239.134 212.443C239.018 213.57 238.374 214.588 237.381 215.132C235.798 215.995 233.06 217.068 229.204 217.068C225.348 217.068 222.997 216.081 221.516 215.241V215.249Z" stroke="#303030" stroke-width="2" stroke-linecap="round" stroke-linejoin="round"/>
<path d="M221.336 189.899C221.336 189.899 228.566 191.345 237.783 189.899" stroke="#303030" stroke-width="2" stroke-linecap="round" stroke-linejoin="round"/>
<path d="M241.951 197.082C241.951 197.082 245.015 197.51 244.565 201.676C244.115 205.843 240.5 206.294 240.5 206.294" stroke="#303030" stroke-width="2" stroke-linecap="round" stroke-linejoin="round"/>
<path d="M245.108 193.25C245.108 193.25 250.26 195.427 249.088 203.301C247.917 211.176 239.957 210.453 239.957 210.453" stroke="#303030" stroke-width="2" stroke-linecap="round" stroke-linejoin="round"/>
<path d="M218.087 200.223L182.99 198.684L153.191 221.235L198.467 225.223L218.087 207.468" stroke="#303030" stroke-width="2" stroke-linecap="round" stroke-linejoin="round"/>
<path d="M190.776 26.7365C190.776 26.7365 186.098 22.9974 178.642 25.8503C171.187 28.7033 168.611 33.523 168.611 33.523C168.611 33.523 162.032 34.8134 161.699 39.501C161.365 44.1885 166.578 49.6923 178.58 50.9128" stroke="#303030" stroke-width="2" stroke-linecap="round" stroke-linejoin="round"/>
<path d="M171.258 43.2402C171.258 43.2402 179.598 49.9645 191.863 49.5603" stroke="#303030" stroke-width="2" stroke-linecap="round" stroke-linejoin="round"/>
<path d="M194.371 49.0781C194.371 49.0781 195.861 51.1148 197.56 52.4752C199.259 53.8356 200.003 54.3798 200.065 54.6519C200.128 54.924 200.065 64.2991 200.065 64.2991L203.386 60.6299" stroke="#303030" stroke-width="2" stroke-linecap="round" stroke-linejoin="round"/>
<path d="M206.031 61.3764L208.747 59.5418C211.121 59.3396 214.038 59.1997 213.766 64.2993C213.494 69.3988 210.515 73.4023 206.039 74.6228" stroke="#303030" stroke-width="2" stroke-linecap="round" stroke-linejoin="round"/>
<path d="M211.252 58.2516C211.182 51.3874 210.779 36.7883 207.792 32.4428C204.805 28.0973 199.25 25.4465 193.758 27.2111" stroke="#303030" stroke-width="2" stroke-linecap="round" stroke-linejoin="round"/>
<path d="M164.207 49.5762C164.277 56.6891 164.82 67.7589 165.091 74.009C165.363 80.259 169.901 96.8326 181.562 96.7626C193.222 96.6927 200.336 86.7812 204.138 79.6449" stroke="#303030" stroke-width="2" stroke-linecap="round" stroke-linejoin="round"/>
<path d="M176.23 98.3243C176.23 98.3243 176.952 104.162 186.37 104.504C195.788 104.846 202.639 101.037 208.946 90.7139" stroke="#303030" stroke-width="2" stroke-linecap="round" stroke-linejoin="round"/>
<path d="M207.59 77.1338V82.4977" stroke="#303030" stroke-width="2" stroke-linecap="round" stroke-linejoin="round"/>
<path d="M209.902 85.6924C209.902 85.6924 210.841 88.8174 215.519 91.1262C220.197 93.435 233.417 99.9572 237.886 102.608C242.354 105.259 245.481 107.91 247.583 111.369C249.685 114.828 250.5 120.604 250.834 127.81C251.167 135.017 255.644 192.41 255.644 192.41" stroke="#303030" stroke-width="2" stroke-linecap="round" stroke-linejoin="round"/>
<path d="M224.27 131.682C224.27 131.682 224.774 163.476 225.084 168.024" stroke="#303030" stroke-width="2" stroke-linecap="round" stroke-linejoin="round"/>
<path d="M232.778 170.263C232.607 170.333 213.755 171.825 204.679 172.641C195.602 173.458 189.496 173.932 189.496 173.932C189.496 173.932 191.94 176.987 192.072 182.017C192.204 187.046 189.837 190.233 189.837 190.233" stroke="#303030" stroke-width="2" stroke-linecap="round" stroke-linejoin="round"/>
<path d="M202.035 177.057C202.035 177.057 204.269 179.365 204.138 184.325C204.006 189.285 202.035 190.847 202.035 190.847" stroke="#303030" stroke-width="2" stroke-linecap="round" stroke-linejoin="round"/>
<path d="M187.116 175.696C186.914 175.766 182.166 176.241 177.356 176.171C172.546 176.101 169.49 175.424 165.696 173.994C161.902 172.564 159.459 171.071 155.254 172.089C151.049 173.108 147.255 175.759 144.067 178.339C140.878 180.92 136.883 185.468 136.883 185.468" stroke="#303030" stroke-width="2" stroke-linecap="round" stroke-linejoin="round"/>
<path d="M156.611 177.057C151.32 179.505 148.954 179.98 145.765 183.237C142.577 186.494 140.746 188.811 140.001 189.619C139.256 190.427 138.372 192.674 139.388 194.167C140.405 195.659 142.507 195.115 143.795 194.571" stroke="#303030" stroke-width="2" stroke-linecap="round" stroke-linejoin="round"/>
<path d="M162.576 181.332C157.014 182.49 154.376 183.322 150.645 186.097C146.913 188.873 145.152 191.049 144.477 191.656C143.802 192.262 143.057 193.148 144.477 194.781C145.897 196.413 147.107 196.141 149.489 194.781C151.87 193.42 152.413 192.744 154.446 191.383C156.479 190.023 160.885 187.668 166.851 186.432" stroke="#303030" stroke-width="2" stroke-linecap="round" stroke-linejoin="round"/>
<path d="M166.851 186.836C166.378 186.906 163.391 189.759 161.025 190.847C158.659 191.935 156.688 192.752 155.734 193.358C154.78 193.964 153.771 194.781 154.516 196.281C155.261 197.781 156.688 197.439 159.939 196.685C163.19 195.931 173.019 190.847 173.019 190.847" stroke="#303030" stroke-width="2" stroke-linecap="round" stroke-linejoin="round"/>
<path d="M175.797 193.421H217.83" stroke="#303030" stroke-width="2" stroke-linecap="round" stroke-linejoin="round"/>
<path d="M241.957 193.017H298.226" stroke="#303030" stroke-width="2" stroke-linecap="round" stroke-linejoin="round"/>
<path d="M176.23 82.9795C176.23 82.9795 177.425 84.8841 180.544 84.8841C183.663 84.8841 185.967 82.9795 185.967 82.9795" stroke="#303030" stroke-width="2" stroke-linecap="round" stroke-linejoin="round"/>
<path d="M179.799 65.3877C179.458 70.7516 176.23 73.6745 176.23 73.6745L179.186 77.1416" stroke="#303030" stroke-width="2" stroke-linecap="round" stroke-linejoin="round"/>
<path d="M189.171 63.3817C189.556 63.3817 189.869 63.0685 189.869 62.6821C189.869 62.2957 189.556 61.9824 189.171 61.9824C188.785 61.9824 188.473 62.2957 188.473 62.6821C188.473 63.0685 188.785 63.3817 189.171 63.3817Z" stroke="#303030" stroke-width="2" stroke-linecap="round" stroke-linejoin="round"/>
<path d="M173.611 63.3823C174.125 63.3823 174.542 62.9646 174.542 62.4494C174.542 61.9343 174.125 61.5166 173.611 61.5166C173.096 61.5166 172.68 61.9343 172.68 62.4494C172.68 62.9646 173.096 63.3823 173.611 63.3823Z" stroke="#303030" stroke-width="2" stroke-linecap="round" stroke-linejoin="round"/>
<path d="M158.582 127.328C159.466 133.648 161.429 142.339 162.717 151.372C164.005 160.405 166.239 170.667 166.239 170.667" stroke="#303030" stroke-width="2" stroke-linecap="round" stroke-linejoin="round"/>
<path d="M160.344 157.086C160.142 157.218 149.84 171.304 149.84 171.304" stroke="#303030" stroke-width="2" stroke-linecap="round" stroke-linejoin="round"/>
<path d="M151.871 136.299L158.582 145.604" stroke="#303030" stroke-width="2" stroke-linecap="round" stroke-linejoin="round"/>
<path d="M171.529 97.1045C167.666 98.325 163.934 99.4832 161.157 100.572C158.379 101.66 155.175 103.79 153.088 107.568C150.877 111.571 140.001 134.022 140.21 133.789" stroke="#303030" stroke-width="2" stroke-linecap="round" stroke-linejoin="round"/>
<path d="M142.041 159.667L136.207 127.328" stroke="#303030" stroke-width="2" stroke-linecap="round" stroke-linejoin="round"/>
<path d="M114.719 130.049C114.719 130.049 115.875 131.744 123.059 131.068C130.243 130.391 133.291 128.557 133.291 128.557" stroke="#303030" stroke-width="2" stroke-linecap="round" stroke-linejoin="round"/>
<path d="M111.535 129.436L112.07 139.052" stroke="#303030" stroke-width="2" stroke-linecap="round" stroke-linejoin="round"/>
<path d="M114.718 127.942C114.718 127.942 107.534 87.3246 106.991 84.8759C106.448 82.4272 105.362 79.17 107.534 78.4937C109.706 77.8173 111.126 78.7657 112.072 81.4166C113.019 84.0674 115.121 94.5231 115.121 94.5231" stroke="#303030" stroke-width="2" stroke-linecap="round" stroke-linejoin="round"/>
<path d="M121.094 91.1266C121.094 91.1266 117.3 75.9757 116.959 73.8068C116.617 71.6379 113.499 70.3397 112.482 70.9227C111.466 71.5058 110.372 72.9983 110.683 74.623C110.993 76.2477 111.536 79.1085 111.536 79.1085" stroke="#303030" stroke-width="2" stroke-linecap="round" stroke-linejoin="round"/>
<path d="M116.48 71.5679C115.929 68.8937 116.348 67.6966 117.969 67.0513C119.591 66.4061 121.561 68.0386 122.034 69.469C122.508 70.8993 127.325 88.5534 127.325 88.5534C127.325 88.5534 131.119 86.1747 132.135 85.7005C133.152 85.2263 135.727 84.6122 137.287 86.3146C138.846 88.0171 141.22 92.9067 142.034 93.8551C142.849 94.8035 142.166 97.4543 141.15 97.9985C140.134 98.5427 138.505 98.7448 137.418 97.1123C136.332 95.4798 134.3 92.3548 134.3 92.5647C134.3 92.7746 130.638 95.1455 129.761 96.366C128.885 97.5865 127.457 100.377 128.605 102.204C129.754 104.031 131.111 105.671 132.127 106.347C133.144 107.024 133.757 106.48 135.045 105.461C136.332 104.443 137.147 102.678 138.636 101.186C140.126 99.6932 141.825 98.4027 143.656 99.4211C145.487 100.439 145.96 101.178 144.874 103.121C143.788 105.065 142.159 107.436 141.01 108.998C139.862 110.561 139.451 114.3 136.875 116.881C134.3 119.462 132.197 121.156 124.401 120.41" stroke="#303030" stroke-width="2" stroke-linecap="round" stroke-linejoin="round"/>
<path d="M89.707 65.3877L93.7722 67.0435" stroke="#303030" stroke-width="2" stroke-linecap="round" stroke-linejoin="round"/>
<path d="M93.2266 58.251L97.8348 62.682" stroke="#303030" stroke-width="2" stroke-linecap="round" stroke-linejoin="round"/>
<path d="M99.7383 53.7031L101.367 59.4712" stroke="#303030" stroke-width="2" stroke-linecap="round" stroke-linejoin="round"/>
</g>
<defs>
<clipPath id="clip0_123_515">
<rect width="267" height="202" fill="white" transform="translate(32 24)"/>
</clipPath>
</defs>
</svg>
