<svg width="324" height="242" viewBox="0 0 324 242" fill="none" xmlns="http://www.w3.org/2000/svg">
<g clip-path="url(#clip0_123_514)">
<path opacity="0.3" d="M212.335 212.849C212.335 212.849 215.31 166.623 215.835 163.119C216.359 159.615 216.007 157.687 210.236 158.04C204.466 158.393 112.983 157.61 110.703 158.002C108.424 158.393 106.154 159.443 105.982 163.644C105.811 167.845 108.433 213.546 108.433 213.546C108.433 213.546 100.04 211.092 93.2115 208.114C86.3827 205.135 82.5391 198.834 82.5391 194.633C82.5391 190.433 83.9411 183.425 86.3827 177.649C88.8243 171.874 101.252 131.251 103.703 127.576C106.154 123.9 109.473 121.093 114.547 118.468C119.621 115.842 137.284 108.663 137.284 108.663C137.284 108.663 141.309 118.821 158.801 118.296C176.293 117.771 183.636 108.663 183.636 108.663C183.636 108.663 200.775 116.367 204.981 118.296C209.187 120.224 214.948 122.325 217.046 128.979C219.144 135.633 234.013 182.91 235.759 187.636C237.504 192.361 237.332 200.591 232.258 203.923C227.185 207.255 212.316 212.849 212.316 212.849H212.335Z" fill="#B499E5"/>
<path d="M140.965 67.869C140.965 67.869 145.686 66.9907 150.064 63.1433C154.442 59.2958 156.883 57.8924 156.883 57.8924C156.883 57.8924 157.408 59.9928 162.654 57.8924C167.899 55.7921 171.047 53.5104 171.047 53.5104C171.047 53.5104 171.218 56.1358 174.194 60.6897C177.17 65.2436 182.587 66.647 182.587 66.647C182.587 66.647 184.514 60.1646 183.808 53.5104C183.102 46.8561 180.66 41.7772 174.709 41.0802C174.709 41.0802 171.562 30.8841 157.57 32.3925C143.579 33.9009 136.578 45.806 136.578 55.0856C136.578 64.3653 137.799 66.6374 137.799 66.6374L140.946 67.8595L140.965 67.869Z" fill="#B499E5"/>
<path d="M158.828 59.4486C158.828 59.4486 167.355 59.1813 171.16 51.7061" stroke="#303030" stroke-width="2" stroke-linecap="round" stroke-linejoin="round"/>
<path d="M172.6 54.5889C172.6 54.5889 170.845 61.7777 179.028 65.7493" stroke="#303030" stroke-width="2" stroke-linecap="round" stroke-linejoin="round"/>
<path d="M183.359 65.7495C183.359 65.7495 185.457 54.8564 183.359 48.1544C181.26 41.4525 175.738 41.5861 175.738 41.5861" stroke="#303030" stroke-width="2" stroke-linecap="round" stroke-linejoin="round"/>
<path d="M173.124 37.6525C173.124 37.6525 166.83 28.201 152.8 33.8433C138.77 39.4855 134.002 51.5815 138.246 63.9067" stroke="#303030" stroke-width="2" stroke-linecap="round" stroke-linejoin="round"/>
<path d="M138.541 68.5473C134.879 68.2132 132.704 70.2181 132.962 75.0584C133.22 79.8987 136.882 82.5623 139.295 83.4883" stroke="#303030" stroke-width="2" stroke-linecap="round" stroke-linejoin="round"/>
<path d="M138.541 68.5473C134.879 68.2132 132.704 70.2181 132.962 75.0584C133.22 79.8987 136.882 82.5623 139.295 83.4883" stroke="#303030" stroke-width="2" stroke-linecap="round" stroke-linejoin="round"/>
<path d="M181.863 68.5473C185.525 68.2132 187.7 70.2181 187.442 75.0584C187.185 79.8987 183.522 82.5623 181.109 83.4883" stroke="#303030" stroke-width="2" stroke-linecap="round" stroke-linejoin="round"/>
<path d="M180.547 76.5469C179.793 84.2226 177.962 92.5667 175.129 97.2351C172.297 101.904 166.46 106.076 159.965 106.076C153.47 106.076 149.044 102.734 146.298 99.4023C143.551 96.0704 140.88 91.8984 139.879 79.3823" stroke="#303030" stroke-width="2" stroke-linecap="round" stroke-linejoin="round"/>
<path d="M160.213 77.3877C160.213 77.3877 159.546 81.5597 156.961 84.4811L160.213 87.4025" stroke="#303030" stroke-width="2" stroke-linecap="round" stroke-linejoin="round"/>
<path d="M156.453 92.8154C156.453 92.8154 157.703 94.2379 160.201 94.2379C162.7 94.2379 164.198 92.8154 164.198 92.8154" stroke="#303030" stroke-width="2" stroke-linecap="round" stroke-linejoin="round"/>
<path d="M168.462 74.3037C169.015 74.3037 169.464 73.8549 169.464 73.3013C169.464 72.7476 169.015 72.2988 168.462 72.2988C167.909 72.2988 167.461 72.7476 167.461 73.3013C167.461 73.8549 167.909 74.3037 168.462 74.3037Z" stroke="#303030" stroke-width="2" stroke-linecap="round" stroke-linejoin="round"/>
<path d="M151.419 74.3037C151.972 74.3037 152.421 73.8549 152.421 73.3013C152.421 72.7476 151.972 72.2988 151.419 72.2988C150.866 72.2988 150.418 72.7476 150.418 73.3013C150.418 73.8549 150.866 74.3037 151.419 74.3037Z" stroke="#303030" stroke-width="2" stroke-linecap="round" stroke-linejoin="round"/>
<path d="M139.867 111.843C139.867 111.843 146.706 117.686 160.325 117.686C173.945 117.686 181.107 111.843 181.107 111.843" stroke="#303030" stroke-width="2" stroke-linecap="round" stroke-linejoin="round"/>
<path d="M175.203 107.747V98.5723" stroke="#303030" stroke-width="2" stroke-linecap="round" stroke-linejoin="round"/>
<path d="M144.293 97.6553V108.252" stroke="#303030" stroke-width="2" stroke-linecap="round" stroke-linejoin="round"/>
<path d="M183.539 108.673C183.539 108.673 201.202 115.346 206.954 118.602C212.705 121.857 216.205 125.523 218.284 130.86C220.363 136.197 235.366 182.996 236.367 186.92C237.369 190.844 237.788 199.846 231.284 204.018C224.779 208.19 214.612 213.365 214.612 213.365" stroke="#303030" stroke-width="2" stroke-linecap="round" stroke-linejoin="round"/>
<path d="M217.715 182.413C217.715 182.413 223.38 184.828 227.052 192.342" stroke="#303030" stroke-width="2" stroke-linecap="round" stroke-linejoin="round"/>
<path d="M207.29 133.695L204.543 154.212" stroke="#303030" stroke-width="2" stroke-linecap="round" stroke-linejoin="round"/>
<path d="M111.121 133.695L114.783 154.212" stroke="#303030" stroke-width="2" stroke-linecap="round" stroke-linejoin="round"/>
<path d="M102.624 182.824C102.624 182.824 95.3756 186.576 92.543 192.753" stroke="#303030" stroke-width="2" stroke-linecap="round" stroke-linejoin="round"/>
<path d="M108.956 222.367L104.874 162.995C104.693 160.36 106.772 158.126 109.414 158.126H211.446C214.069 158.126 216.158 160.35 215.986 162.976L212.133 222.778" stroke="#303030" stroke-width="2" stroke-linecap="round" stroke-linejoin="round"/>
<path d="M160.841 196.4C162.479 196.4 163.807 195.071 163.807 193.431C163.807 191.791 162.479 190.462 160.841 190.462C159.203 190.462 157.875 191.791 157.875 193.431C157.875 195.071 159.203 196.4 160.841 196.4Z" stroke="#303030" stroke-width="2" stroke-linecap="round" stroke-linejoin="round"/>
<path d="M208.461 224.038H112.371C110.438 224.038 108.871 225.607 108.871 227.542C108.871 229.477 110.438 231.046 112.371 231.046H208.461C210.395 231.046 211.962 229.477 211.962 227.542C211.962 225.607 210.395 224.038 208.461 224.038Z" stroke="#303030" stroke-width="2" stroke-linecap="round" stroke-linejoin="round"/>
<path d="M237.543 204.438H250.047" stroke="#303030" stroke-width="2" stroke-linecap="round" stroke-linejoin="round"/>
<path d="M81.1177 203.933H65.9531" stroke="#303030" stroke-width="2" stroke-linecap="round" stroke-linejoin="round"/>
<path d="M137.428 107.747C137.428 107.747 118.372 115.556 114.786 117.676C111.2 119.795 105.373 122.01 102.616 128.579C99.8601 135.147 84.9721 180.963 83.8657 186.08C82.7594 191.197 81.9773 200.095 90.3131 205.432C98.6488 210.768 104.314 213.356 104.314 213.356" stroke="#303030" stroke-width="2" stroke-linecap="round" stroke-linejoin="round"/>
<path d="M143.281 67.2675C143.281 67.2675 154.555 60.365 160.325 52.8516" stroke="#303030" stroke-width="2" stroke-linecap="round" stroke-linejoin="round"/>
<path d="M100.039 31.3135L107.755 33.051" stroke="#303030" stroke-width="2" stroke-linecap="round" stroke-linejoin="round"/>
<path d="M105.418 21.8525L110.473 27.3993" stroke="#303030" stroke-width="2" stroke-linecap="round" stroke-linejoin="round"/>
<path d="M114.652 16.9551L116.34 24.0771" stroke="#303030" stroke-width="2" stroke-linecap="round" stroke-linejoin="round"/>
</g>
<defs>
<clipPath id="clip0_123_514">
<rect width="186" height="216" fill="white" transform="translate(65 16)"/>
</clipPath>
</defs>
</svg>
