<svg width="82" height="82" viewBox="0 0 82 82" fill="none" xmlns="http://www.w3.org/2000/svg">
<circle cx="41" cy="41" r="41" fill="#FFAE63"/>
<g clip-path="url(#clip0_132_508)">
<path d="M51.12 23.9102H56.09C58.19 23.9102 59.97 25.6202 59.97 27.7202V61.1202C59.97 63.2202 58.26 65.0002 56.09 65.0002H26.81C24.71 65.0002 23 63.2902 23 61.1202V27.7202C23 25.6202 24.71 23.9102 26.81 23.9102H32.09" stroke="white" stroke-width="2" stroke-linecap="round" stroke-linejoin="round"/>
<path d="M28.6719 35.8698L31.4719 38.6698L36.1319 34.0898" stroke="white" stroke-width="2" stroke-linecap="round" stroke-linejoin="round"/>
<path d="M28.6719 45.5007L31.4719 48.3807L36.1319 43.7207" stroke="white" stroke-width="2" stroke-linecap="round" stroke-linejoin="round"/>
<path d="M28.6719 55.2096L31.4719 58.0096L36.1319 53.3496" stroke="white" stroke-width="2" stroke-linecap="round" stroke-linejoin="round"/>
<path d="M39.9297 37.6602H53.1397" stroke="white" stroke-width="2" stroke-linecap="round" stroke-linejoin="round"/>
<path d="M39.9297 46.8301H53.1397" stroke="white" stroke-width="2" stroke-linecap="round" stroke-linejoin="round"/>
<path d="M39.9297 55.9902H53.1397" stroke="white" stroke-width="2" stroke-linecap="round" stroke-linejoin="round"/>
<path d="M46.0687 21.58C46.0687 19.02 43.9687 17 41.4887 17C39.0087 17 36.9087 19.1 36.9087 21.58H32.7188V28.73H50.3488V21.58H46.0787H46.0687Z" stroke="white" stroke-width="2" stroke-linecap="round" stroke-linejoin="round"/>
</g>
<defs>
<clipPath id="clip0_132_508">
<rect width="38.97" height="50" fill="white" transform="translate(22 16)"/>
</clipPath>
</defs>
</svg>
