<svg width="230" height="197" viewBox="0 0 230 197" fill="none" xmlns="http://www.w3.org/2000/svg">
<g clip-path="url(#clip0_442_648)">
<path opacity="0.3" d="M192.932 193.254L1.19531 195.046L4.71954 160.213C4.71954 160.213 6.48751 163.914 17.388 164.652C28.2886 165.39 37.8661 162.122 37.8661 162.122L38.0183 151.347C38.0183 151.347 41.1795 150.176 42.9475 145.772C44.7155 141.368 45.0199 140.174 46.2141 138.511C47.4084 136.847 51.6117 130.394 53.7192 127.981C55.8268 125.568 55.7565 124.022 54.7379 122.699C53.7192 121.376 51.4712 120.345 51.4712 120.345C51.4712 120.345 53.0987 117.101 53.0987 116.702C53.0987 116.304 54.5974 115.473 54.5974 115.473L85.5427 107.286C85.5427 107.286 94.8392 119.22 112.753 119.22C130.667 119.22 135.983 115.332 140.455 105.915C141.31 105.775 167.221 117.265 173.286 118.881C179.35 120.497 184.092 128.93 185.614 137.726C187.137 146.522 192.909 193.242 192.909 193.242L192.932 193.254Z" fill="#B297E3"/>
<path d="M139.097 50.3635H143.265C143.265 50.3635 146.625 39.7171 145.408 29.7149C144.19 19.7126 142.071 13.3763 131.674 13.8213C130.69 2.94066 116.266 -0.338769 106.372 2.1208C96.4784 4.58037 87.3224 8.72651 83.1659 19.818C79.0094 30.9095 82.1473 49.368 82.1473 49.368C82.1473 49.368 83.5874 52.1321 88.3527 49.368C93.118 46.6039 97.5321 43.9687 100.951 40.7009C104.37 37.4332 104.522 38.3936 104.522 38.3936C104.522 38.3936 104.756 41.1577 112.203 38.1242C119.649 35.0908 127.833 27.876 127.833 27.876C127.833 27.876 131.65 46.1354 139.097 50.3635Z" fill="#B297E3"/>
<path d="M57.8047 114.722L88.5158 105.458L92.4265 93.2891" stroke="#303030" stroke-width="2" stroke-linecap="round" stroke-linejoin="round"/>
<path d="M87.2031 110.236C87.2031 110.236 94.4389 119.22 112.833 119.22C131.227 119.22 138.322 110.236 138.322 110.236" stroke="#303030" stroke-width="2" stroke-linecap="round" stroke-linejoin="round"/>
<path d="M131.672 92.1289L134.283 103.279C134.283 103.279 151.81 110.81 161.95 114.722C172.089 118.634 181.362 118.774 185.121 135.734C188.879 152.693 192.076 183.836 192.942 193.252" stroke="#303030" stroke-width="2" stroke-linecap="round" stroke-linejoin="round"/>
<path d="M84.7461 65.9043C84.6056 76.0471 88.2235 87.9233 93.867 93.2875C99.5104 98.6517 104.44 100.971 111.535 100.971C118.63 100.971 123.126 98.5112 127.47 94.5993C131.814 90.6874 136.158 86.4827 137.317 74.466" stroke="#303030" stroke-width="2" stroke-linecap="round" stroke-linejoin="round"/>
<path d="M140.499 51.5575C140.499 51.5575 149.479 50.5385 146.587 61.7003C144.304 70.5079 139.352 70.8241 139.352 70.8241" stroke="#303030" stroke-width="2" stroke-linecap="round" stroke-linejoin="round"/>
<path d="M81.6778 50.3856C81.6778 50.3856 72.6975 49.3667 75.5894 60.5284C77.8726 69.336 82.8252 69.6523 82.8252 69.6523" stroke="#303030" stroke-width="2" stroke-linecap="round" stroke-linejoin="round"/>
<path d="M100.199 54.8956C100.619 54.8956 100.96 54.5548 100.96 54.1343C100.96 53.7139 100.619 53.373 100.199 53.373C99.7782 53.373 99.4375 53.7139 99.4375 54.1343C99.4375 54.5548 99.7782 54.8956 100.199 54.8956Z" stroke="#303030" stroke-width="2" stroke-linecap="round" stroke-linejoin="round"/>
<path d="M123.523 54.8956C123.943 54.8956 124.284 54.5548 124.284 54.1343C124.284 53.7139 123.943 53.373 123.523 53.373C123.102 53.373 122.762 53.7139 122.762 54.1343C122.762 54.5548 123.102 54.8956 123.523 54.8956Z" stroke="#303030" stroke-width="2" stroke-linecap="round" stroke-linejoin="round"/>
<path d="M113.324 59.0527C113.125 59.0527 108.418 68.2 108.418 68.2L112.773 72.0885" stroke="#303030" stroke-width="2" stroke-linecap="round" stroke-linejoin="round"/>
<path d="M106.371 80.4863C106.371 80.4863 107.94 83.145 111.968 83.145C115.995 83.145 118.033 80.8963 118.033 80.8963" stroke="#303030" stroke-width="2" stroke-linecap="round" stroke-linejoin="round"/>
<path d="M88.3633 49.368C88.3633 49.368 101.301 43.2308 111.031 29.7148" stroke="#303030" stroke-width="2" stroke-linecap="round" stroke-linejoin="round"/>
<path d="M109.777 39.5404C109.777 39.5404 123.347 35.5817 126.626 27.875" stroke="#303030" stroke-width="2" stroke-linecap="round" stroke-linejoin="round"/>
<path d="M129.016 32.3145C129.016 32.3145 129.215 40.7707 137.61 47.2593" stroke="#303030" stroke-width="2" stroke-linecap="round" stroke-linejoin="round"/>
<path d="M81.5351 46.7085C81.5351 46.7085 79.0763 36.6125 79.8257 29.7257C80.575 22.8389 86.2419 10.9627 98.3133 5.02458C110.385 -0.913526 125.254 -0.292777 129.341 9.0536" stroke="#303030" stroke-width="2" stroke-linecap="round" stroke-linejoin="round"/>
<path d="M132.621 13.8203C137.258 14.0194 143.674 17.9782 145.173 27.875C146.671 37.7719 143.252 47.8678 143.252 47.8678" stroke="#303030" stroke-width="2" stroke-linecap="round" stroke-linejoin="round"/>
<path d="M36.7266 193.252L38.0262 157.846" stroke="#303030" stroke-width="2" stroke-linecap="round" stroke-linejoin="round"/>
<path d="M9.30859 161.324C9.30859 161.324 14.2847 164.252 21.38 164.604C28.4753 164.955 33.4513 162.484 33.4513 162.484" stroke="#303030" stroke-width="2" stroke-linecap="round" stroke-linejoin="round"/>
<path d="M4.0617 161.055C4.0617 161.055 0.853594 195.301 1.19314 195.032" stroke="#303030" stroke-width="2" stroke-linecap="round" stroke-linejoin="round"/>
<path d="M9.30843 155.258C9.30843 155.258 9.50747 151.849 9.98752 148.16C10.4676 144.471 9.78847 139.013 8.48884 133.625C7.18921 128.238 2.93905 99.648 2.61122 98.0785C2.28338 96.5091 2.21313 94.0495 4.05135 93.0306C5.88957 92.0116 8.27809 94.2604 8.27809 94.2604" stroke="#303030" stroke-width="2" stroke-linecap="round" stroke-linejoin="round"/>
<path d="M16.4036 117.941C16.4036 117.941 6.4515 91.0618 5.69045 89.4221C4.9294 87.7824 3.92248 86.213 5.69045 84.7138C7.45842 83.2146 9.50739 83.9642 11.0061 85.194" stroke="#303030" stroke-width="2" stroke-linecap="round" stroke-linejoin="round"/>
<path d="M23.3571 113.364C23.3571 113.364 14.084 88.0534 12.7141 85.9335C11.3442 83.8136 8.11273 81.5648 10.1383 79.3161C12.1638 77.0673 15.7115 77.3367 17.7605 80.4756C19.8094 83.6145 24.7153 93.2302 29.422 109.135" stroke="#303030" stroke-width="2" stroke-linecap="round" stroke-linejoin="round"/>
<path d="M30.8607 108.455C30.8607 108.455 34.9586 104.356 35.9773 103.477C36.9959 102.599 40.0752 100.749 43.1428 103.477C46.2104 106.206 50.3084 110.645 51.4675 112.554C52.6266 114.464 52.8959 117.193 51.4675 118.903C50.0391 120.613 48.3297 121.561 46.9715 120.132C45.6133 118.703 39.1971 113.035 39.1971 113.035C39.1971 113.035 36.27 115.834 35.5792 118.223C34.8884 120.613 33.8112 123.002 35.5089 125.45C37.2067 127.898 39.1268 130.498 39.1268 130.498C39.1268 130.498 44.9928 124.63 46.2924 123.271C47.592 121.913 51.2685 119.113 53.3174 120.952C55.3664 122.791 55.8465 124.571 54.2775 127.16C52.7086 129.748 46.0231 138.755 45.344 139.785C44.6649 140.816 44.3254 144.763 41.3866 147.972C38.4478 151.181 34.9118 152.95 27.9453 152.54" stroke="#303030" stroke-width="2" stroke-linecap="round" stroke-linejoin="round"/>
<path d="M214.402 149.953C214.402 149.953 218.208 147.564 219.671 146.72C221.135 145.877 226.005 143.769 227.551 145.736C229.096 147.704 229.53 149.672 227.129 151.581C224.729 153.49 214.391 159.744 214.391 159.744" fill="white"/>
<path d="M214.402 149.953C214.402 149.953 218.208 147.564 219.671 146.72C221.135 145.877 226.005 143.769 227.551 145.736C229.096 147.704 229.53 149.672 227.129 151.581C224.729 153.49 214.391 159.744 214.391 159.744" stroke="#303030" stroke-miterlimit="10"/>
<path d="M172.967 195.829C172.967 195.829 170.075 187.314 167.909 182.664C165.743 178.014 163.401 168.035 161.364 165.634C159.327 163.233 157.711 159.661 156.517 156.487C155.322 153.313 154.62 149.518 157.219 148.195C159.818 146.871 162.64 147.773 164.385 150.936" fill="white"/>
<path d="M166.476 127.466L162.312 184.728C162.073 188.018 164.545 190.88 167.834 191.119L207.281 193.989C210.57 194.228 213.431 191.755 213.67 188.465L217.833 131.203C218.073 127.912 215.6 125.051 212.311 124.812L172.864 121.942C169.575 121.702 166.715 124.176 166.476 127.466Z" fill="#B297E3"/>
<path d="M175.563 131.985L175.042 139.146C174.952 140.385 175.883 141.462 177.121 141.552L206.945 143.722C208.184 143.812 209.261 142.881 209.351 141.642L209.871 134.481C209.961 133.243 209.031 132.165 207.792 132.075L177.968 129.905C176.73 129.815 175.653 130.746 175.563 131.985Z" fill="white" stroke="#303030" stroke-miterlimit="10"/>
<path d="M173.121 149.229L172.632 155.957C172.583 156.634 173.092 157.224 173.769 157.273L180.495 157.762C181.173 157.811 181.761 157.302 181.811 156.625L182.3 149.896C182.349 149.219 181.84 148.63 181.163 148.581L174.437 148.091C173.76 148.042 173.171 148.551 173.121 149.229Z" fill="white"/>
<path d="M186.032 150.164L185.542 156.893C185.493 157.57 186.002 158.159 186.679 158.208L193.406 158.698C194.083 158.747 194.672 158.238 194.721 157.56L195.21 150.832C195.259 150.155 194.75 149.565 194.073 149.516L187.347 149.027C186.67 148.978 186.081 149.487 186.032 150.164Z" fill="white"/>
<path d="M198.93 151.096L198.441 157.824C198.391 158.502 198.901 159.091 199.578 159.14L206.304 159.629C206.981 159.679 207.57 159.169 207.619 158.492L208.109 151.764C208.158 151.086 207.649 150.497 206.972 150.448L200.245 149.958C199.568 149.909 198.979 150.418 198.93 151.096Z" fill="white"/>
<path d="M172.176 162.209L171.687 168.938C171.638 169.615 172.147 170.204 172.824 170.253L179.55 170.743C180.227 170.792 180.816 170.283 180.865 169.605L181.355 162.877C181.404 162.199 180.895 161.61 180.218 161.561L173.491 161.072C172.814 161.022 172.225 161.532 172.176 162.209Z" fill="white"/>
<path d="M185.086 163.131L184.597 169.859C184.548 170.537 185.057 171.126 185.734 171.175L192.46 171.665C193.137 171.714 193.726 171.205 193.776 170.527L194.265 163.799C194.314 163.121 193.805 162.532 193.128 162.483L186.402 161.994C185.724 161.944 185.135 162.454 185.086 163.131Z" fill="white"/>
<path d="M197.985 164.088L197.495 170.816C197.446 171.494 197.955 172.083 198.632 172.132L205.359 172.622C206.036 172.671 206.625 172.162 206.674 171.484L207.163 164.756C207.212 164.078 206.703 163.489 206.026 163.44L199.3 162.951C198.623 162.901 198.034 163.411 197.985 164.088Z" fill="white"/>
<path d="M171.176 175.807L170.687 182.535C170.638 183.213 171.147 183.802 171.824 183.851L178.55 184.34C179.227 184.39 179.816 183.88 179.865 183.203L180.355 176.475C180.404 175.797 179.895 175.208 179.218 175.159L172.491 174.669C171.814 174.62 171.225 175.129 171.176 175.807Z" fill="white"/>
<path d="M184.086 176.766L183.597 183.494C183.548 184.172 184.057 184.761 184.734 184.81L191.46 185.299C192.137 185.349 192.726 184.839 192.776 184.162L193.265 177.433C193.314 176.756 192.805 176.167 192.128 176.118L185.402 175.628C184.724 175.579 184.135 176.088 184.086 176.766Z" fill="white"/>
<path d="M197 177.699L196.511 184.428C196.462 185.105 196.971 185.694 197.648 185.744L204.374 186.233C205.051 186.282 205.64 185.773 205.69 185.096L206.179 178.367C206.228 177.69 205.719 177.101 205.042 177.051L198.316 176.562C197.638 176.513 197.05 177.022 197 177.699Z" fill="white"/>
<path d="M218.055 157.976C220.443 158.163 222.563 159.041 222.621 161.782C222.68 164.523 221.216 165.647 218.816 165.799C216.416 165.952 214.308 166.291 212.692 166.221C211.077 166.151 209.309 165.799 208.758 163.539C208.208 161.278 209.461 158.69 211.568 158.503C213.676 158.327 216.463 157.858 218.032 157.976H218.043H218.055Z" fill="white" stroke="#303030" stroke-miterlimit="10"/>
<path d="M218.267 167.123C220.246 167.064 222.423 168.107 222.622 170.848C222.821 173.588 221.498 175.72 219.239 175.708C216.979 175.696 214.309 176.188 212.565 176.048C210.82 175.907 208.912 174.654 208.631 172.183C208.35 169.711 210.446 167.392 212.846 167.392C215.246 167.392 215.586 167.182 218.267 167.111V167.123Z" fill="white" stroke="#303030" stroke-miterlimit="10"/>
<path d="M215.631 177.031C219.741 176.855 221.708 178.015 221.603 181.177C221.497 184.339 220.432 185.967 215.245 186.108C210.058 186.248 209.098 184.128 209.122 181.563C209.145 179.467 210.538 177.242 215.631 177.031Z" fill="white" stroke="#303030" stroke-miterlimit="10"/>
<path d="M163.343 169.687C162.476 167.204 162.16 166.571 161.364 165.634C159.327 163.245 157.711 159.661 156.517 156.487C155.322 153.313 154.62 149.518 157.219 148.195C159.818 146.871 162.64 147.773 164.385 150.936" stroke="#303030" stroke-width="2" stroke-linecap="round" stroke-linejoin="round"/>
<path d="M172.967 195.83C172.967 195.83 172.44 194.248 171.375 191.379" stroke="#303030" stroke-width="2" stroke-linecap="round" stroke-linejoin="round"/>
<path d="M216.535 149.295C216.535 149.295 218.209 147.562 219.673 146.707C221.137 145.852 226.007 143.755 227.553 145.723C229.098 147.691 229.531 149.658 227.131 151.568C224.731 153.477 219.673 157.119 219.673 157.119" stroke="#303030" stroke-width="2" stroke-linecap="round" stroke-linejoin="round"/>
<path d="M218.055 157.976C220.443 158.163 222.563 159.041 222.621 161.782C222.68 164.523 221.216 165.647 218.816 165.799C216.416 165.952 214.308 166.291 212.692 166.221C211.077 166.151 209.309 165.799 208.758 163.539C208.208 161.278 209.461 158.69 211.568 158.503C213.676 158.327 216.463 157.858 218.032 157.976H218.043H218.055Z" stroke="#303030" stroke-width="2" stroke-linecap="round" stroke-linejoin="round"/>
<path d="M218.267 167.123C220.246 167.064 222.423 168.107 222.622 170.848C222.821 173.588 221.498 175.72 219.239 175.708C216.979 175.696 214.309 176.188 212.565 176.048C210.82 175.907 208.912 174.654 208.631 172.183C208.35 169.711 210.446 167.392 212.846 167.392C215.246 167.392 215.586 167.182 218.267 167.111V167.123Z" stroke="#303030" stroke-width="2" stroke-linecap="round" stroke-linejoin="round"/>
<path d="M215.631 177.031C219.741 176.855 221.708 178.015 221.603 181.177C221.497 184.339 220.432 185.967 215.245 186.108C210.058 186.248 209.098 184.128 209.122 181.563C209.145 179.467 210.538 177.242 215.631 177.031Z" stroke="#303030" stroke-width="2" stroke-linecap="round" stroke-linejoin="round"/>
<path d="M213.829 186.458L213.689 188.449C213.455 191.74 210.586 194.212 207.308 193.977L167.874 191.12C164.584 190.885 162.113 188.016 162.347 184.736L166.504 127.475C166.738 124.184 169.607 121.713 172.885 121.947L212.319 124.805C215.609 125.039 218.079 127.909 217.845 131.188L215.937 157.47" stroke="#303030" stroke-width="2" stroke-linecap="round" stroke-linejoin="round"/>
<path d="M175.563 131.985L175.042 139.146C174.952 140.385 175.883 141.462 177.121 141.552L206.945 143.722C208.184 143.812 209.261 142.881 209.351 141.642L209.871 134.481C209.961 133.243 209.031 132.165 207.792 132.075L177.968 129.905C176.73 129.815 175.653 130.746 175.563 131.985Z" stroke="#303030" stroke-width="2" stroke-linecap="round" stroke-linejoin="round"/>
<path d="M203.293 104.004L205.471 111.547" stroke="#B297E3" stroke-width="2" stroke-linecap="round" stroke-linejoin="round"/>
<path d="M215.634 105.059L212.742 113.878" stroke="#B297E3" stroke-width="2" stroke-linecap="round" stroke-linejoin="round"/>
<path d="M226.042 110.973L220.668 116.7" stroke="#B297E3" stroke-width="2" stroke-linecap="round" stroke-linejoin="round"/>
</g>
<defs>
<clipPath id="clip0_442_648">
<rect width="230" height="197" fill="white"/>
</clipPath>
</defs>
</svg>
