<svg width="180" height="353" viewBox="0 0 180 353" fill="none" xmlns="http://www.w3.org/2000/svg">
<g clip-path="url(#clip0_442_840)">
<path d="M25.1567 326.378L23.2031 348.363L137.959 352.129L141.866 317.389C141.866 317.389 113.896 339.71 83.6621 338.797C53.4283 337.875 40.0456 320.354 40.0456 320.354V301.074C40.0456 301.074 36.5514 314.062 34.1675 319.94C31.775 325.826 25.1567 326.378 25.1567 326.378Z" fill="#B499E5"/>
<path d="M13.8818 34.3354C11.8163 49.34 18.4518 64.448 28.065 76.1432C27.5142 71.6013 29.7174 66.8267 33.5385 64.3188C37.3597 61.8108 42.6095 61.6729 46.5512 63.9826C42.7817 51.0034 45.5012 36.2918 53.6772 25.5275C57.5414 32.4825 59.2024 40.6441 58.3676 48.5557C67.9378 41.4801 74.1601 30.0435 74.9002 18.1501C83.7131 20.2271 91.4845 26.3634 95.5639 34.4561C95.1077 21.7785 87.3449 9.62655 76.0535 3.88671C53.3588 -7.64467 17.462 8.36827 13.8818 34.3354Z" fill="#B499E5"/>
<path d="M45.5005 61.1129C41.1543 59.3548 35.7496 60.7078 32.7374 64.3103C29.7252 67.9128 29.3465 73.4803 31.8337 77.4533C33.7013 80.4353 36.9459 82.5209 38.168 85.8218C39.2265 88.6745 38.538 91.846 38.7618 94.8797C39.1749 100.602 42.8756 105.696 47.5316 109.04C52.1876 112.384 57.7386 114.211 63.2552 115.762C67.2313 116.874 71.414 117.96 74.4778 120.726C79.6329 125.389 80.0632 133.309 79.1854 140.204C78.3076 147.107 76.5089 154.226 78.5227 160.879C87.2839 162.025 96.0451 163.18 104.798 164.327C106.157 155.251 109.824 146.53 115.366 139.221C118.12 135.584 121.477 131.973 121.941 127.431C122.406 122.889 117.802 117.753 113.731 119.804C116.132 112.177 110.719 103.067 102.887 101.533C106.046 99.8697 107.052 95.7071 106.545 92.1735C106.037 88.64 104.376 85.365 103.558 81.8918C101.94 74.9885 103.722 67.7921 103.868 60.6992C104.238 42.6351 92.8608 24.8813 76.3109 17.7021C75.5019 27.8977 70.2693 37.6709 62.2397 43.9968C62.7561 37.9036 60.1311 31.6294 55.4321 27.7167C47.7812 37.3176 44.9325 50.5812 47.9791 62.4832C43.6846 62.3453 39.3814 62.1988 35.0869 62.0609" fill="white"/>
<path d="M21.7289 252.294C21.0404 254.001 20.524 255.897 21.0232 257.672C21.5224 259.447 23.3641 260.938 25.137 260.456C27.607 251.786 37.3148 245.873 46.1449 247.657C39.475 248.416 33.9412 254.466 33.2871 261.154C32.633 267.842 36.5575 274.624 42.4614 277.822C46.0502 276.9 48.4944 272.806 47.5993 269.203C45.8437 272.315 49.5788 276.115 53.1504 276.124C56.722 276.124 59.8633 273.952 63.1078 272.461C77.0328 266.075 94.4863 272.056 108.033 264.886C108.05 260.542 108.067 256.198 108.084 251.855C101.733 255.276 95.3727 258.689 89.0213 262.11C86.0177 263.731 71.5592 250.39 69.3301 248.33C64.743 244.098 60.328 238.203 54.3294 235.885C42.2721 231.222 26.2558 241.039 21.7375 252.286H21.7289V252.294Z" fill="white"/>
<path d="M37.6875 87.0625V101.24C37.6875 101.24 47.688 107.686 56.5869 113.064C66.3636 118.976 77.4829 121.467 77.6464 121.7" stroke="#303030" stroke-width="2" stroke-linecap="round" stroke-linejoin="round"/>
<path d="M76.7414 134.051L74.0305 147.375C74.0305 147.375 55.8282 135.714 48.16 130.138C40.4918 124.562 36.4297 119.598 36.4297 119.598" stroke="#303030" stroke-width="2" stroke-linecap="round" stroke-linejoin="round"/>
<path d="M34.9321 104.377L31.0249 119.588C31.0249 119.588 25.7579 127.267 18.9933 131.637C12.2288 136.006 1.54843 144.056 0.945995 152.08C0.343556 160.103 3.05453 177.125 3.80327 194.741C4.55202 212.365 11.6264 268.962 13.4251 277.563C15.2238 286.164 23.9505 297.756 23.9505 297.756" stroke="#303030" stroke-width="2" stroke-linecap="round" stroke-linejoin="round"/>
<path d="M25.1551 305.297C25.0088 306.202 20.043 324.577 20.043 324.577L25.1551 326.387L31.1709 324.577C31.1709 324.577 33.4257 323.474 34.9318 317.398C36.4379 311.322 40.0439 301.083 40.0439 301.083C40.0439 301.083 40.6464 317.648 40.0439 320.362C39.4415 323.077 40.7927 330.601 54.3303 334.221C67.868 337.832 75.3899 339.193 91.3287 338.737C107.267 338.289 116.898 337.832 126.218 330.601C135.539 323.37 142.613 317.596 141.856 317.398" stroke="#303030" stroke-width="2" stroke-linecap="round" stroke-linejoin="round"/>
<path d="M137.957 264.325V313.131" stroke="#303030" stroke-width="2" stroke-linecap="round" stroke-linejoin="round"/>
<path d="M119.309 270.651L124.722 321.258" stroke="#303030" stroke-width="2" stroke-linecap="round" stroke-linejoin="round"/>
<path d="M140.513 326.68L137.957 352.138" stroke="#303030" stroke-width="2" stroke-linecap="round" stroke-linejoin="round"/>
<path d="M130.885 333.91L124.723 350.13" stroke="#303030" stroke-width="2" stroke-linecap="round" stroke-linejoin="round"/>
<path d="M25.1567 326.378L23.2031 348.372" stroke="#303030" stroke-width="2" stroke-linecap="round" stroke-linejoin="round"/>
<path d="M146.529 196.853L139.23 214.279" stroke="#303030" stroke-width="2" stroke-linecap="round" stroke-linejoin="round"/>
<path d="M132.091 160.034C131.944 169.144 132.693 183.157 132.091 196.86C131.488 210.564 127.805 220.406 127.805 220.406" stroke="#303030" stroke-width="2" stroke-linecap="round" stroke-linejoin="round"/>
<path d="M152.245 215.184L119.309 228.49C119.309 228.49 129.653 236.643 124.722 255.905" stroke="#303030" stroke-width="2" stroke-linecap="round" stroke-linejoin="round"/>
<path d="M108.027 253.639C108.027 253.639 109.533 257.405 108.027 268.402C108.027 268.402 145.026 254.553 156.154 251.536C167.281 248.52 185.028 239.738 177.213 220.407C169.399 201.076 143.072 153.037 139.234 145.349C135.395 137.67 124.723 127.88 124.723 127.88" stroke="#303030" stroke-width="2" stroke-linecap="round" stroke-linejoin="round"/>
<path d="M17.8906 143.289C17.8906 143.289 25.6018 142.436 31.7725 143.289C37.9432 144.143 39.8968 145.797 46.2138 153.855C52.5308 161.914 70.277 185.709 70.277 185.709" stroke="#303030" stroke-width="2" stroke-linecap="round" stroke-linejoin="round"/>
<path d="M20.043 198.137C20.043 198.137 69.529 248.968 76.741 255.897C83.9531 262.826 87.2665 265.989 97.6456 259.81C108.025 253.63 112.534 249.873 111.786 238.126C111.037 226.379 111.863 193.845 111.863 193.845" stroke="#303030" stroke-width="2" stroke-linecap="round" stroke-linejoin="round"/>
<path d="M87.7227 190.216H106.071" stroke="#303030" stroke-width="2" stroke-linecap="round" stroke-linejoin="round"/>
<path d="M110.282 188.768V165.826L77.6468 162.767L74.4883 214.279" stroke="#303030" stroke-width="2" stroke-linecap="round" stroke-linejoin="round"/>
<path d="M47.2642 238.126H35.3531C33.9503 238.126 32.6249 238.79 31.7901 239.919L20.3868 255.208C19.0872 256.949 19.6983 259.439 21.6433 260.387C23.115 261.103 24.8965 260.689 25.8948 259.388L35.3014 247.132C36.0244 246.184 37.0916 245.555 38.2706 245.383L44.0798 244.504" stroke="#303030" stroke-width="2" stroke-linecap="round" stroke-linejoin="round"/>
<path d="M50.2356 242.538L34.6927 256.586C33.4362 257.724 33.0833 259.551 33.8149 261.076L41.1216 276.227C41.6982 277.425 43.0408 278.063 44.3317 277.753C45.6915 277.425 46.6124 276.15 46.4919 274.745L46.1304 270.651" stroke="#303030" stroke-width="2" stroke-linecap="round" stroke-linejoin="round"/>
<path d="M52.7571 249.872L41.7669 260.49C40.76 261.455 40.6997 263.05 41.6206 264.092L42.7652 265.394C43.7119 266.462 45.3471 266.557 46.4057 265.601L57.1119 255.896" stroke="#303030" stroke-width="2" stroke-linecap="round" stroke-linejoin="round"/>
<path d="M64.7866 269.152L54.9152 276.064C53.6931 276.917 52.0321 276.684 51.094 275.521L44.4844 267.342" stroke="#303030" stroke-width="2" stroke-linecap="round" stroke-linejoin="round"/>
<path d="M54.6328 269.901L63.2993 263.093C64.8312 261.886 67.0086 261.964 68.4631 263.265L72.0003 266.437C72.0003 266.437 78.2398 270.427 86.5879 268.393C94.9359 266.359 103.732 264.325 103.732 264.325" stroke="#303030" stroke-width="2" stroke-linecap="round" stroke-linejoin="round"/>
<path d="M80.2529 163.007C80.2529 163.007 80.8037 150.235 81.1049 145.193C81.4061 140.152 79.7537 128.629 78.6952 125.164C77.6452 121.7 80.3476 114.693 83.5061 110.401C85.8384 107.238 96.1831 96.0427 101.459 90.3805C103.154 88.562 106.011 88.5361 107.75 90.3115L108.568 91.1475C110.074 92.6902 110.229 95.1033 108.929 96.827L103.223 104.377L104.428 102.782C105.228 101.722 106.614 101.291 107.888 101.688C109.325 102.145 110.461 103.342 110.771 103.825C111.192 104.463 111.278 105.954 110.934 106.643L110.289 107.54L111.726 107.307C113.172 107.074 114.626 107.609 115.59 108.712C116.511 109.772 116.847 111.211 116.494 112.564L114.652 119.588H116.227C117.854 119.588 119.437 120.045 120.814 120.915C123.069 122.346 124.05 125.13 123.198 127.655C122.183 130.671 120.453 134.834 117.664 138.859C112.397 146.469 105.03 151.588 104.583 153.846C104.135 156.104 104.127 165.24 104.127 165.24" stroke="#303030" stroke-width="2" stroke-linecap="round" stroke-linejoin="round"/>
<path d="M80.4421 116.46C81.5007 110.247 82.1892 104.222 80.4421 100.206C78.6951 96.19 76.0271 92.1738 78.4627 90.3639C80.8983 88.5541 84.1084 90.1657 86.5182 93.4752C88.9279 96.7846 89.7455 99.5339 89.8316 103.033" stroke="#303030" stroke-width="2" stroke-linecap="round" stroke-linejoin="round"/>
<path d="M40.0431 7.72242C40.0431 7.72242 27.6759 7.27426 17.8906 17.9438" stroke="#303030" stroke-width="2" stroke-linecap="round" stroke-linejoin="round"/>
<path d="M17.8941 27.6904C17.8941 27.6904 8.31529 52.8388 24.1766 69.9463" stroke="#303030" stroke-width="2" stroke-linecap="round" stroke-linejoin="round"/>
<path d="M47.2656 3.72266C55.9407 -1.09501 75.8901 0.111564 83.6615 7.73021C91.433 15.3489 96.8979 35.0505 96.8979 35.0505C88.2228 20.9939 74.4872 17.9516 74.4872 17.9516C74.4872 17.9516 74.2893 32.6028 61.4488 43.2638C61.4488 43.2638 60.6484 31.9823 58.8411 27.6904" stroke="#303030" stroke-width="2" stroke-linecap="round" stroke-linejoin="round"/>
<path d="M50.2358 33.4395C50.2358 33.4395 41.8963 43.5747 47.258 62.0007C47.258 62.0007 42.2922 61.2423 36.4313 62.0007C30.5618 62.7592 24.3653 78.1602 43.3335 82.5297" stroke="#303030" stroke-width="2" stroke-linecap="round" stroke-linejoin="round"/>
<path d="M100.977 50.4863C100.977 50.4863 106.708 62.0436 104.531 89.5189" stroke="#303030" stroke-width="2" stroke-linecap="round" stroke-linejoin="round"/>
<path d="M70.2572 60.3325C71.8654 59.8055 72.6178 57.6913 71.9378 55.6104C71.2578 53.5295 69.4029 52.2698 67.7947 52.7968C66.1865 53.3238 65.4341 55.4379 66.1141 57.5188C66.7941 59.5997 68.649 60.8595 70.2572 60.3325Z" fill="#303030"/>
<path d="M92.1205 49.0073C93.7287 48.4803 94.4811 46.3661 93.8011 44.2852C93.1211 42.2043 91.2662 40.9446 89.658 41.4716C88.0498 41.9986 87.2973 44.1127 87.9773 46.1936C88.6573 48.2745 90.5123 49.5343 92.1205 49.0073Z" fill="#303030"/>
<path d="M86.793 62.0605C86.793 62.0605 88.738 62.6638 89.831 64.2668C90.924 65.8699 89.831 68.6881 89.831 68.6881" stroke="#303030" stroke-width="2" stroke-linecap="round" stroke-linejoin="round"/>
<path d="M86.793 82.5379C86.793 82.5379 91.3285 75.8932 96.8881 78.1598" stroke="#303030" stroke-width="2" stroke-linecap="round" stroke-linejoin="round"/>
<path d="M54.0312 96.6982C54.0312 96.6982 66.8546 107.135 81.5024 105.635" stroke="#303030" stroke-width="2" stroke-linecap="round" stroke-linejoin="round"/>
</g>
<defs>
<clipPath id="clip0_442_840">
<rect width="180" height="353" fill="white"/>
</clipPath>
</defs>
</svg>
