<svg xmlns="http://www.w3.org/2000/svg" width="11.997" height="13.71" viewBox="0 0 11.997 13.71">
  <path id="Icon_metro-file-picture" data-name="Icon metro-file-picture" d="M12.282,12.854H3.713V11.14L6.284,6.855,9.805,11.14l2.477-1.714v3.428Zm0-5.57A1.285,1.285,0,1,1,11,6a1.285,1.285,0,0,1,1.285,1.285Zm1.149-3.36a12.141,12.141,0,0,0-1.167-1.335,12.144,12.144,0,0,0-1.335-1.167A2.136,2.136,0,0,0,9.712.857H3.071A1.072,1.072,0,0,0,2,1.928V13.5a1.072,1.072,0,0,0,1.071,1.071h9.854A1.072,1.072,0,0,0,14,13.5V5.141a2.135,2.135,0,0,0-.565-1.217Zm-1.773-.729a11.687,11.687,0,0,1,.972,1.09H10.568V2.223a11.675,11.675,0,0,1,1.09.972Zm1.481,10.3a.217.217,0,0,1-.214.214H3.071a.217.217,0,0,1-.214-.214V1.928a.217.217,0,0,1,.214-.214H9.712v3a.428.428,0,0,0,.428.428h3V13.5Z" transform="translate(-1.999 -0.857)"/>
</svg>
