<svg xmlns="http://www.w3.org/2000/svg" xmlns:xlink="http://www.w3.org/1999/xlink" width="40" height="30" viewBox="0 0 40 30">
  <defs>
    <linearGradient id="linear-gradient" x1="0.054" y1="0.086" x2="1" y2="1" gradientUnits="objectBoundingBox">
      <stop offset="0" stop-color="#7d81ee"/>
      <stop offset="1" stop-color="#d48fdf"/>
    </linearGradient>
  </defs>
  <g id="Group_90" data-name="Group 90" transform="translate(-483 -1550)">
    <rect id="Rectangle_42" data-name="Rectangle 42" width="40" height="30" transform="translate(483 1550)" fill="url(#linear-gradient)"/>
    <path id="Icon_awesome-instagram" data-name="Icon awesome-instagram" d="M7,4.406A3.591,3.591,0,1,0,10.594,8,3.585,3.585,0,0,0,7,4.406Zm0,5.925A2.334,2.334,0,1,1,9.337,8,2.339,2.339,0,0,1,7,10.331Zm4.575-6.072a.837.837,0,1,1-.837-.838A.836.836,0,0,1,11.578,4.259Zm2.378.85a4.145,4.145,0,0,0-1.131-2.934A4.172,4.172,0,0,0,9.891,1.044c-1.156-.066-4.622-.066-5.778,0A4.166,4.166,0,0,0,1.178,2.172,4.158,4.158,0,0,0,.047,5.106c-.066,1.156-.066,4.622,0,5.778a4.145,4.145,0,0,0,1.131,2.934A4.177,4.177,0,0,0,4.113,14.95c1.156.066,4.622.066,5.778,0a4.145,4.145,0,0,0,2.934-1.131,4.172,4.172,0,0,0,1.131-2.934c.066-1.156.066-4.619,0-5.775Zm-1.494,7.016a2.363,2.363,0,0,1-1.331,1.331A15.434,15.434,0,0,1,7,13.738a15.555,15.555,0,0,1-4.128-.281,2.363,2.363,0,0,1-1.331-1.331A15.434,15.434,0,0,1,1.262,8a15.555,15.555,0,0,1,.281-4.128A2.363,2.363,0,0,1,2.875,2.537,15.434,15.434,0,0,1,7,2.256a15.555,15.555,0,0,1,4.128.281,2.363,2.363,0,0,1,1.331,1.331A15.434,15.434,0,0,1,12.744,8,15.425,15.425,0,0,1,12.462,12.125Z" transform="translate(496.002 1557.005)"/>
  </g>
</svg>
