<svg id="Group_1" data-name="Group 1" xmlns="http://www.w3.org/2000/svg" width="126.32" height="57.707" viewBox="0 0 126.32 57.707">
  <path id="Path_1" data-name="Path 1" d="M1008.505,35.951a.125.125,0,0,0-.125-.119h-4.894v-1.8H980.928V29.466L989.413.66a.126.126,0,0,0-.019-.11.125.125,0,0,0-.1-.05H977.269a.121.121,0,0,0-.088.037.128.128,0,0,0-.037.088V4.2H972.6V42.309h22.7l13.5,3.618a.131.131,0,0,0,.032,0,.126.126,0,0,0,.079-.028.123.123,0,0,0,.046-.1l-.453-9.849ZM977.394.75h11.733l-8.2,27.832V4.2h-3.534Zm18.869,41.559h7.224V36.081h4.774l.44,9.56-12.439-3.332Z" transform="translate(-882.64 -0.5)" fill="#fff"/>
  <path id="Path_2" data-name="Path 2" d="M37.453,45.942,49.611,23.466v6.78L41.541,45.825a.123.123,0,0,0,0,.122.125.125,0,0,0,.106.06h10.54a.124.124,0,0,0,.122-.1l.778-3.6h4.35V26.355h18.7V42.308h4.474l.778,3.6a.124.124,0,0,0,.122.1h10.54a.125.125,0,0,0,.111-.182L84.006,30.079V16.428L92.164.682a.123.123,0,0,0,0-.122A.125.125,0,0,0,92.053.5H81.513a.126.126,0,0,0-.122.1L80.6,4.2H76.138V18.08h-18.7V4.2H53.107L52.313.6a.125.125,0,0,0-.122-.1H41.652a.125.125,0,0,0-.111.182l8.071,15.579v6.781L37.453.566A.125.125,0,0,0,37.343.5H12.861a.125.125,0,0,0-.11.066L.51,23.194a.122.122,0,0,0,0,.118L12.751,45.941a.125.125,0,0,0,.11.066H37.343a.125.125,0,0,0,.11-.066Zm54.394-.184H81.613l-.746-3.45h3.138V30.623l7.841,15.135ZM81.613.75H91.847L84.006,15.885V4.2H80.853L81.613.75ZM52.09,45.758H41.856L49.61,30.789V42.308h3.225l-.746,3.45ZM41.857.75H52.091l.761,3.45h-3.24V15.719ZM12.936,45.758.762,23.254,12.936.751H37.269l12.173,22.5-12.173,22.5Z" transform="translate(-0.495 -0.5)" fill="#fff"/>
  <path id="Path_3" data-name="Path 3" d="M93.027,46.06a19.055,19.055,0,1,0,5.58,13.474A18.927,18.927,0,0,0,93.027,46.06ZM75.386,45.2a13.6,13.6,0,0,0-1.525,2.676A29.4,29.4,0,0,0,71.716,58.7H67.2c.307-6.237,3.635-11.481,8.187-13.5Zm-6.572,3.5a19.046,19.046,0,0,0-3.284,10h-1.21A15.2,15.2,0,0,1,68.814,48.695Zm-4.495,11.67h1.2a19.29,19.29,0,0,0,2.789,9.482,15.2,15.2,0,0,1-3.99-9.482Zm2.869,0h4.524a29.6,29.6,0,0,0,2.15,11.073,13.631,13.631,0,0,0,1.525,2.676c-4.61-2.05-7.965-7.4-8.2-13.748ZM78.721,74.77l-.129-.008c-1.166-.536-2.294-1.928-3.2-4a27.86,27.86,0,0,1-2.008-10.4h5.341Zm0-16.069H73.385a27.663,27.663,0,0,1,2-10.158c.942-2.143,2.12-3.559,3.332-4.05V58.7Zm16.069,0H93.577a19.048,19.048,0,0,0-3.288-10.008A15.208,15.208,0,0,1,94.79,58.7Zm-2.882,0h-4.3a29.422,29.422,0,0,0-2.148-10.827,13.809,13.809,0,0,0-1.411-2.525C88.433,47.473,91.607,52.613,91.908,58.7ZM80.386,44.414c1.288.4,2.551,1.857,3.551,4.128A27.677,27.677,0,0,1,85.943,58.7H80.386Zm.385,30.329c-.129.011-.256.019-.385.026v-14.4h5.561a27.859,27.859,0,0,1-2.01,10.4c-.9,2.046-2.015,3.43-3.166,3.977Zm3.28-.781a13.934,13.934,0,0,0,1.411-2.525,29.526,29.526,0,0,0,2.152-11.073H91.92C91.693,66.558,88.492,71.807,84.051,73.962Zm6.744-4.11a19.3,19.3,0,0,0,2.793-9.486h1.2a15.185,15.185,0,0,1-4,9.486Z" transform="translate(-54.947 -36.78)" fill="#fff"/>
  <path id="Path_4" data-name="Path 4" d="M315.376,567.36a1.983,1.983,0,0,0-1.458.591,2.991,2.991,0,0,0-.777,1.643l-.154.874a2.094,2.094,0,0,0,.22,1.577,1.416,1.416,0,0,0,1.251.564,2.006,2.006,0,0,0,1.449-.568,2.835,2.835,0,0,0,.767-1.6l.154-.874a2.22,2.22,0,0,0-.211-1.63,1.385,1.385,0,0,0-1.241-.58Zm.414,2.228-.156.887a2.153,2.153,0,0,1-.37.963.8.8,0,0,1-.654.31.565.565,0,0,1-.562-.317,1.779,1.779,0,0,1-.026-.987l.16-.909a2.3,2.3,0,0,1,.378-.987.8.8,0,0,1,.664-.325.538.538,0,0,1,.552.337A1.974,1.974,0,0,1,315.79,569.588Z" transform="translate(-284.02 -514.902)" fill="#fff"/>
  <path id="Path_5" data-name="Path 5" d="M360.8,568.12l-.591,3.355-.921-3.355H358.26l-.9,5.109h1.031l.591-3.351.918,3.351h1.031l.9-5.109Z" transform="translate(-324.335 -515.591)" fill="#fff"/>
  <path id="Path_6" data-name="Path 6" d="M404.9,573.229h2.934l.151-.856h-1.9l.239-1.355h1.607l.146-.831h-1.607l.213-1.208h1.9l.152-.86H405.8Z" transform="translate(-367.476 -515.591)" fill="#fff"/>
  <path id="Path_7" data-name="Path 7" d="M463.991,570.187h-1.522l.364-2.067H461.8l-.9,5.109h1.032l.385-2.186h1.523l-.386,2.186h1.028l.9-5.109h-1.028Z" transform="translate(-418.293 -515.591)" fill="#fff"/>
  <path id="Path_8" data-name="Path 8" d="M513.71,568.111l-.623,3.533a1.226,1.226,0,0,1-.247.605.7.7,0,0,1-.538.184c-.245,0-.4-.062-.476-.186a.979.979,0,0,1-.031-.621l.62-3.516h-1.038l-.619,3.512a1.252,1.252,0,0,0,1.394,1.667,1.961,1.961,0,0,0,1.313-.423,2,2,0,0,0,.653-1.22l.624-3.537h-1.032Z" transform="translate(-463.501 -515.582)" fill="#fff"/>
  <path id="Path_9" data-name="Path 9" d="M556.364,568.12l-.591,3.355-.921-3.355H553.82l-.9,5.109h1.032l.59-3.351.918,3.351h1.032l.9-5.109Z" transform="translate(-501.797 -515.591)" fill="#fff"/>
  <path id="Path_10" data-name="Path 10" d="M602.712,568.12H601.36l-.9,5.108h1.322a2.247,2.247,0,0,0,1.566-.574,2.687,2.687,0,0,0,.811-1.581l.146-.828a1.962,1.962,0,0,0-.267-1.557A1.56,1.56,0,0,0,602.712,568.12Zm.557,2.154-.156.887a1.883,1.883,0,0,1-.387.938,1.02,1.02,0,0,1-.775.272h-.309l.6-3.393h.376a.67.67,0,0,1,.628.3A1.7,1.7,0,0,1,603.269,570.274Z" transform="translate(-544.938 -515.591)" fill="#fff"/>
  <path id="Path_11" data-name="Path 11" d="M646.916,568.12H645.27l-.9,5.108H645.4l.329-1.867h.512l.44,1.867h1.109l.008-.049-.526-2.091a1.84,1.84,0,0,0,.991-1.424,1.314,1.314,0,0,0-.221-1.142,1.424,1.424,0,0,0-1.127-.4Zm.3,1.628a1.051,1.051,0,0,1-.252.549.649.649,0,0,1-.5.205h-.586l.268-1.522h.6q.6,0,.465.768Z" transform="translate(-584.784 -515.591)" fill="#fff"/>
  <path id="Path_12" data-name="Path 12" d="M690.358,571.018l.147-.831H688.9l.213-1.208H691l.152-.86H688.23l-.9,5.109h2.933l.151-.856h-1.9l.24-1.355Z" transform="translate(-623.769 -515.591)" fill="#fff"/>
  <path id="Path_13" data-name="Path 13" d="M727.673,568.12h-1.351l-.9,5.108h1.322a2.247,2.247,0,0,0,1.566-.574,2.687,2.687,0,0,0,.811-1.581l.146-.828a1.962,1.962,0,0,0-.267-1.557,1.56,1.56,0,0,0-1.326-.568Zm.557,2.154-.156.887a1.883,1.883,0,0,1-.387.938,1.02,1.02,0,0,1-.775.272H726.6l.6-3.393h.376a.67.67,0,0,1,.628.3A1.7,1.7,0,0,1,728.23,570.274Z" transform="translate(-658.334 -515.591)" fill="#fff"/>
  <path id="Path_14" data-name="Path 14" d="M789.123,568.12h-1.032l-.9,5.109h2.842l.152-.856h-1.811Z" transform="translate(-714.388 -515.591)" fill="#fff"/>
  <path id="Path_15" data-name="Path 15" d="M825.741,568.12l-.9,5.109h1.032l.9-5.109Z" transform="translate(-748.553 -515.591)" fill="#fff"/>
  <path id="Path_16" data-name="Path 16" d="M849.534,568.12l-1.612,3.7-.314-3.7H846.26l-.9,5.109h1.031l.244-1.383.28-2.13.4,3.513h.7l1.641-3.513-.47,2.13-.244,1.383h1.036l.9-5.109Z" transform="translate(-767.174 -515.591)" fill="#fff"/>
  <path id="Path_17" data-name="Path 17" d="M905.63,568.12l-.9,5.109h1.031l.9-5.109Z" transform="translate(-821.05 -515.591)" fill="#fff"/>
  <path id="Path_18" data-name="Path 18" d="M928.684,568.12l-.591,3.355-.921-3.355h-1.031l-.9,5.109h1.032l.59-3.351.918,3.351h1.032l.9-5.109Z" transform="translate(-839.662 -515.591)" fill="#fff"/>
  <path id="Path_19" data-name="Path 19" d="M971.678,568.12l-2.5,5.108h1.091l.458-1.046h1.407l.09,1.046h1.1l-.706-5.108h-.944Zm-.572,3.2.8-1.821.156,1.821h-.954Z" transform="translate(-879.536 -515.591)" fill="#fff"/>
  <path id="Path_20" data-name="Path 20" d="M1021.083,568.12h-1.032l-.9,5.109h2.843l.151-.856h-1.811Z" transform="translate(-924.882 -515.591)" fill="#fff"/>
</svg>
