<svg xmlns="http://www.w3.org/2000/svg" width="10.897" height="12.543" viewBox="0 0 10.897 12.543">
  <path id="Icon_simple-tiktok" data-name="Icon simple-tiktok" d="M7.039.01C7.724,0,8.4.005,9.083,0A3.255,3.255,0,0,0,10,2.179a3.686,3.686,0,0,0,2.216.935V5.221a5.594,5.594,0,0,1-2.2-.507,6.457,6.457,0,0,1-.847-.486c-.005,1.526.005,3.052-.01,4.573a3.992,3.992,0,0,1-.706,2.059,3.894,3.894,0,0,1-3.089,1.678A3.811,3.811,0,0,1,3.234,12,3.941,3.941,0,0,1,1.327,9.015c-.01-.261-.016-.523-.005-.779A3.934,3.934,0,0,1,5.884,4.745c.01.773-.021,1.547-.021,2.32A1.793,1.793,0,0,0,3.574,8.174a2.073,2.073,0,0,0-.073.841,1.779,1.779,0,0,0,1.829,1.5,1.756,1.756,0,0,0,1.448-.841,1.206,1.206,0,0,0,.214-.554c.052-.935.031-1.866.037-2.8.005-2.106-.005-4.207.01-6.308Z" transform="translate(-1.316)" fill="#fff"/>
</svg>
