<svg xmlns="http://www.w3.org/2000/svg" xmlns:xlink="http://www.w3.org/1999/xlink" width="40" height="30" viewBox="0 0 40 30">
  <defs>
    <linearGradient id="linear-gradient" x1="0.054" y1="0.086" x2="1" y2="1" gradientUnits="objectBoundingBox">
      <stop offset="0" stop-color="#7d81ee"/>
      <stop offset="1" stop-color="#d48fdf"/>
    </linearGradient>
  </defs>
  <g id="Group_89" data-name="Group 89" transform="translate(-430 -1550)">
    <rect id="Rectangle_41" data-name="Rectangle 41" width="40" height="30" transform="translate(430 1550)" fill="url(#linear-gradient)"/>
    <path id="Icon_awesome-twitter" data-name="Icon awesome-twitter" d="M14.355,4.741c.01.142.01.284.01.426a9.266,9.266,0,0,1-9.33,9.33A9.267,9.267,0,0,1,0,13.025a6.784,6.784,0,0,0,.792.041,6.567,6.567,0,0,0,4.071-1.4A3.285,3.285,0,0,1,1.8,9.391a4.135,4.135,0,0,0,.619.051,3.468,3.468,0,0,0,.863-.112A3.28,3.28,0,0,1,.65,6.112V6.071a3.3,3.3,0,0,0,1.482.416A3.284,3.284,0,0,1,1.117,2.1,9.321,9.321,0,0,0,7.878,5.533,3.7,3.7,0,0,1,7.8,4.782a3.282,3.282,0,0,1,5.675-2.244,6.456,6.456,0,0,0,2.081-.792,3.27,3.27,0,0,1-1.442,1.807A6.574,6.574,0,0,0,16,3.046a7.049,7.049,0,0,1-1.645,1.7Z" transform="translate(442 1557.498)"/>
  </g>
</svg>
