<svg xmlns="http://www.w3.org/2000/svg" width="16" height="15.238" viewBox="0 0 16 15.238">
  <path id="Icon_simple-line" data-name="Icon simple-line" d="M12.91,6.575a.42.42,0,0,1,0,.841H11.74v.75h1.17a.42.42,0,1,1,0,.839H11.319a.421.421,0,0,1-.418-.419V5.405a.421.421,0,0,1,.42-.42h1.591a.42.42,0,0,1,0,.84H11.74v.75h1.17ZM10.34,8.586a.42.42,0,0,1-.288.4A.431.431,0,0,1,9.919,9a.412.412,0,0,1-.34-.167L7.951,6.626v1.96a.419.419,0,1,1-.838,0V5.405a.418.418,0,0,1,.287-.4.388.388,0,0,1,.129-.022.431.431,0,0,1,.33.169L9.5,7.376V5.405a.42.42,0,0,1,.84,0V8.586Zm-3.827,0a.419.419,0,1,1-.839,0V5.405a.419.419,0,1,1,.839,0V8.586Zm-1.644.419H3.278a.422.422,0,0,1-.42-.419V5.405a.42.42,0,0,1,.84,0V8.166H4.869a.42.42,0,0,1,0,.839M16,6.876C16,3.3,12.41.381,8,.381S0,3.3,0,6.876c0,3.207,2.847,5.895,6.69,6.405.261.055.615.172.705.393a1.628,1.628,0,0,1,.025.72l-.109.68c-.03.2-.16.791.7.43a25.789,25.789,0,0,0,6.291-4.65A5.749,5.749,0,0,0,16,6.876" transform="translate(0 -0.381)" fill="#0f3b5e"/>
</svg>
