<svg xmlns="http://www.w3.org/2000/svg" width="15.302" height="15.331" viewBox="0 0 15.302 15.331">
  <path id="Icon_feather-phone" data-name="Icon feather-phone" d="M15.709,12.062v2.157a1.438,1.438,0,0,1-1.568,1.438,14.23,14.23,0,0,1-6.205-2.207A14.022,14.022,0,0,1,3.621,9.135,14.23,14.23,0,0,1,1.414,2.9,1.438,1.438,0,0,1,2.845,1.333H5A1.438,1.438,0,0,1,6.44,2.57a9.233,9.233,0,0,0,.5,2.021A1.438,1.438,0,0,1,6.62,6.108l-.913.913a11.5,11.5,0,0,0,4.314,4.314l.913-.913a1.438,1.438,0,0,1,1.517-.324,9.233,9.233,0,0,0,2.021.5,1.438,1.438,0,0,1,1.237,1.46Z" transform="translate(-0.907 -0.833)" fill="none" stroke="#0f3b5e" stroke-linecap="round" stroke-linejoin="round" stroke-width="1"/>
</svg>
