<svg xmlns="http://www.w3.org/2000/svg" width="11.501" height="16.001" viewBox="0 0 11.501 16.001">
  <g id="Layer_2" data-name="Layer 2" transform="translate(0 0.001)">
    <g id="Layer_1" data-name="Layer 1">
      <path id="Path_21" data-name="Path 21" d="M5.38,15.84a10.09,10.09,0,0,1-.91-1.12Q0,9.06,0,5.75A5.65,5.65,0,0,1,1.34,2.09,5.48,5.48,0,0,1,5.75,0,5.65,5.65,0,0,1,9.41,1.34,5.48,5.48,0,0,1,11.5,5.75a8.74,8.74,0,0,1-.94,3.53,29.26,29.26,0,0,1-4.43,6.56.72.72,0,0,1-.38.16.55.55,0,0,1-.37-.16ZM2.88,2A4.55,4.55,0,0,0,1,5.75a4.4,4.4,0,0,0,.13,1c.45,2.13,2,4.77,4.62,7.94.13-.17.27-.34.44-.53Q10.5,8.75,10.5,5.75a4.52,4.52,0,0,0-1-2.87A4.52,4.52,0,0,0,5.75,1,4.61,4.61,0,0,0,2.88,2ZM7.53,6.66A1.86,1.86,0,0,1,5.75,7.75a2,2,0,0,1-.91-.22A1.86,1.86,0,0,1,3.75,5.75,2,2,0,0,1,4,4.84,1.86,1.86,0,0,1,5.75,3.75,2,2,0,0,1,6.66,4,1.88,1.88,0,0,1,7.75,5.75,2,2,0,0,1,7.53,6.66Zm-2.75-.6a.93.93,0,0,0,1,.69h.31a.93.93,0,0,0,.69-1,2,2,0,0,0,0-.31.93.93,0,0,0-1-.69H5.47a.93.93,0,0,0-.69,1,2,2,0,0,0,0,.31Z" fill="#0f3b5e"/>
    </g>
  </g>
</svg>
