<svg xmlns="http://www.w3.org/2000/svg" xmlns:xlink="http://www.w3.org/1999/xlink" width="31.363" height="31.109" viewBox="0 0 31.363 31.109">
  <defs>
    <clipPath id="clip-path">
      <rect id="Rectangle_796" data-name="Rectangle 796" width="31.363" height="31.109" transform="translate(0 0)" fill="none" stroke="#26a9e0" stroke-width="1"/>
    </clipPath>
  </defs>
  <g id="Group_1773" data-name="Group 1773" transform="translate(0 0)">
    <line id="Line_35" data-name="Line 35" x2="2.962" y2="3.293" transform="translate(18.664 6.159)" fill="none" stroke="#26a9e0" stroke-linecap="round" stroke-linejoin="round" stroke-width="2"/>
    <line id="Line_36" data-name="Line 36" x1="2.962" y2="3.293" transform="translate(21.626 6.16)" fill="none" stroke="#26a9e0" stroke-linecap="round" stroke-linejoin="round" stroke-width="2"/>
    <line id="Line_37" data-name="Line 37" x2="5.207" transform="translate(19.023 9.909)" fill="none" stroke="#26a9e0" stroke-linecap="round" stroke-linejoin="round" stroke-width="2"/>
    <line id="Line_38" data-name="Line 38" x2="5.207" transform="translate(19.023 12.529)" fill="none" stroke="#26a9e0" stroke-linecap="round" stroke-linejoin="round" stroke-width="2"/>
    <line id="Line_39" data-name="Line 39" y2="5.709" transform="translate(21.626 9.451)" fill="none" stroke="#26a9e0" stroke-linecap="round" stroke-linejoin="round" stroke-width="2"/>
    <g id="Group_1772" data-name="Group 1772">
      <g id="Group_1771" data-name="Group 1771" clip-path="url(#clip-path)">
        <path id="Path_14931" data-name="Path 14931" d="M1,21.175l3.123-1.162,3.632,8.825L4.741,30.109" fill="none" stroke="#26a9e0" stroke-linecap="round" stroke-linejoin="round" stroke-width="2"/>
        <path id="Path_14932" data-name="Path 14932" d="M5.249,21.1l6.146-2.58a1.914,1.914,0,0,1,1.679.1l6.673,3.762a1.535,1.535,0,0,1-1.406,2.726l-3.25-1.527" fill="none" stroke="#26a9e0" stroke-linecap="round" stroke-linejoin="round" stroke-width="2"/>
        <path id="Path_14933" data-name="Path 14933" d="M21.484,23.027l7.345-1.974a1.056,1.056,0,0,1,.734,1.97L18.7,28.282a1.958,1.958,0,0,1-1.571.06l-6.683-2.627L7.429,27.058" fill="none" stroke="#26a9e0" stroke-linecap="round" stroke-linejoin="round" stroke-width="2"/>
        <circle id="Ellipse_5" data-name="Ellipse 5" cx="8.737" cy="8.737" r="8.737" transform="translate(12.889 1)" fill="none" stroke="#26a9e0" stroke-linecap="round" stroke-linejoin="round" stroke-width="2"/>
      </g>
    </g>
  </g>
</svg>
