<svg id="Group_1866" data-name="Group 1866" xmlns="http://www.w3.org/2000/svg" width="674.932" height="315.613" viewBox="0 0 674.932 315.613">
  <path id="Path_15698" data-name="Path 15698" d="M265.272,131.348l4.952-11.6.115-.278a3.006,3.006,0,0,0-1.29-3.791l-9.179-5.159a3.142,3.142,0,0,1-.424-.287,2.961,2.961,0,0,1-.972-3.1,52.5,52.5,0,0,0,1.606-20.709,3.321,3.321,0,0,1,.023-.846,3.051,3.051,0,0,1,1.9-2.323l8.224-3.094a3.061,3.061,0,0,0,1.927-2.52,3.323,3.323,0,0,0-.08-1.055l-3.217-12.468a3.074,3.074,0,0,0-3.493-2.254L253.84,63.826a2.964,2.964,0,0,1-2.933-1.236c-.969-1.353-1.981-2.67-3.08-3.948a52.51,52.51,0,0,0-6.655-6.483l-.009-.011a3.019,3.019,0,0,1-.978-3.312l3.708-11.278.181-.568a2.959,2.959,0,0,0-1.649-3.659L230.57,28.264a3.1,3.1,0,0,0-3.9,1.325L220.927,39.8a3,3,0,0,1-3.194,1.485,52.658,52.658,0,0,0-16.241-.465,3.015,3.015,0,0,1-3.18-1.933l-3.688-9.741a3.07,3.07,0,0,0-3.647-1.887l-12.519,3.226a2.935,2.935,0,0,0-2.156,3.329l2.277,13.552a3.073,3.073,0,0,1-1.219,3q-1.751,1.265-3.412,2.7a53.107,53.107,0,0,0-5.735,5.738,2.917,2.917,0,0,1-3.18.9l-13.549-4.473a3.023,3.023,0,0,0-3.716,1.677L142.678,68.8a3.036,3.036,0,0,0,.929,3.553,2.045,2.045,0,0,0,.364.238l11.329,6.38a2.982,2.982,0,0,1,1.534,2.933,1.466,1.466,0,0,1-.043.313,8.985,8.985,0,0,0-.166.929,52.527,52.527,0,0,0-.9,11.183,2.912,2.912,0,0,1-1.93,2.842l-10.286,3.9a3.064,3.064,0,0,0-1.872,3.639l.711,2.773,2.509,9.672a3.02,3.02,0,0,0,3.43,2.228l11.355-1.927a2.916,2.916,0,0,1,3.025,1.437,52.913,52.913,0,0,0,5.712,8.04,52.015,52.015,0,0,0,5.2,5.25l-.783,2.366-3.189,9.709a2.917,2.917,0,0,0,.984,3.249,2.62,2.62,0,0,0,.668.39l11.923,5.121a3.035,3.035,0,0,0,3.8-1.3l3.914-6.988a3.013,3.013,0,0,1,3.378-1.425,52.922,52.922,0,0,0,16.568,1.778,2.918,2.918,0,0,1,2.936,1.907l4.66,12.31a2.9,2.9,0,0,0,3.432,1.772l12.654-3.277a2.938,2.938,0,0,0,2.179-3.349l-2.377-14.1a2.992,2.992,0,0,1,1.4-3.071,51.026,51.026,0,0,0,6.5-4.78q1.682-1.445,3.212-3a3.029,3.029,0,0,1,3.071-.751l12.992,4.284a3.061,3.061,0,0,0,3.768-1.686M231.5,76.947c5.853,8.582,6.566,18.289,3.349,25.738-11.326,26.094-46.458,23.757-54.421-3.134-1.95-6.911-1.121-14.612,3.863-22.114a28.335,28.335,0,0,1,47.209-.49" transform="translate(191.278 -27.163)" fill="#dfedfb"/>
  <path id="Path_15699" data-name="Path 15699" d="M267.594,249.928l11.364-19.49.27-.467a5.379,5.379,0,0,0-1.451-7.017l-15.149-11.2a5.4,5.4,0,0,1-.688-.6,5.294,5.294,0,0,1-1.038-5.721,93.988,93.988,0,0,0,7.452-36.411,5.848,5.848,0,0,1,.227-1.5,5.469,5.469,0,0,1,3.891-3.7l15.289-3.665a5.466,5.466,0,0,0,3.98-4.049,5.9,5.9,0,0,0,.095-1.89l-2.945-22.851a5.5,5.5,0,0,0-5.7-4.777l-20.9.912a5.311,5.311,0,0,1-4.935-2.85c-1.416-2.618-2.919-5.176-4.588-7.69a93.739,93.739,0,0,0-10.374-12.99l-.014-.023a5.416,5.416,0,0,1-1-6.1l9.09-19.2.447-.969a5.3,5.3,0,0,0-2.116-6.865L228.886,59.191a5.544,5.544,0,0,0-7.22,1.485L209.2,77.534a5.356,5.356,0,0,1-6,1.927,94.3,94.3,0,0,0-28.737-4.433,5.4,5.4,0,0,1-5.213-4.138l-4.384-18.117a5.489,5.489,0,0,0-6.056-4.155l-22.948,2.945a5.249,5.249,0,0,0-4.568,5.431l1.035,24.565a5.5,5.5,0,0,1-2.833,5.052q-3.385,1.858-6.655,4.029a95.446,95.446,0,0,0-11.458,8.912,5.222,5.222,0,0,1-5.847.9L82.472,89.5A5.4,5.4,0,0,0,75.5,91.651L63.825,111.637a5.428,5.428,0,0,0,.86,6.512,3.623,3.623,0,0,0,.591.5l18.7,13.847a5.34,5.34,0,0,1,2.076,5.546,2.871,2.871,0,0,1-.149.548,15.755,15.755,0,0,0-.5,1.614,93.858,93.858,0,0,0-4.078,19.656,5.209,5.209,0,0,1-4.055,4.611l-19.132,4.642A5.475,5.475,0,0,0,54,175.159l.645,5.084,2.305,17.729a5.4,5.4,0,0,0,5.594,4.717l20.588-.9a5.221,5.221,0,0,1,5.052,3.22,94.821,94.821,0,0,0,8.353,15.547,93.743,93.743,0,0,0,8.069,10.478l-1.913,4.026-7.817,16.528a5.215,5.215,0,0,0,1.021,5.987,4.762,4.762,0,0,0,1.1.84l20.032,11.745a5.437,5.437,0,0,0,7.04-1.462l8.5-11.536a5.384,5.384,0,0,1,6.314-1.784,94.638,94.638,0,0,0,29.021,6.842,5.216,5.216,0,0,1,4.789,4.034l5.537,22.894a5.2,5.2,0,0,0,5.7,3.911l23.192-3.011a5.253,5.253,0,0,0,4.614-5.462l-1.084-25.557a5.354,5.354,0,0,1,3.16-5.141,90.861,90.861,0,0,0,12.6-7.042q3.3-2.189,6.366-4.605a5.425,5.425,0,0,1,5.626-.654l22.114,10.492a5.48,5.48,0,0,0,7.065-2.153M219.716,145.834a58.07,58.07,0,0,1,5.789,18.882,33.077,33.077,0,0,1,.27,4.946c-.158,7.636-2.454,16.883-5.832,22.616-25.907,43.809-87.767,31.857-95.925-17.658-.123-.814-.249-1.629-.35-2.46-1-7.736,1.457-19.648,5.345-26.395a63.068,63.068,0,0,1,6.773-9.551c24.588-28.259,67.689-21.973,83.93,9.62" transform="translate(27.72 12.815)" fill="#d6e8fc"/>
  <path id="Path_15700" data-name="Path 15700" d="M44.939,142.911a29.278,29.278,0,0,0-2-7.5c-1.4-2.8-10.3-1.018-10.3-1.018s-1.781,1.526-2.162,8.648Z" transform="translate(-16.14 172.031)" fill="#233862"/>
  <path id="Path_15701" data-name="Path 15701" d="M46.9,146.667c-2.093-1.276-.9-10.8-.9-10.8s9.746-7.8,11.088-1.827,9.262,8.651,13.769,9.382c3.111.5,4.075,2.231,4.373,3.249Z" transform="translate(12.232 168.212)" fill="#233862"/>
  <path id="Path_15702" data-name="Path 15702" d="M48.386,160.166a45.8,45.8,0,0,1,.717,5.265c.906,17.678,14.879,58.094,17.377,59.038,3.868,1.46,9.959-1.643,13.144-2.658a2.731,2.731,0,0,0,1.918-3.1c-6.919-31.814-9.463-77.622-10.389-104.745a123.021,123.021,0,0,0-2.813-23.1s-34.08-9.093-34.283,2.412c-.178,10.179,11.289,50.1,14.329,66.889" transform="translate(-9.444 85.427)" fill="#213f7a"/>
  <path id="Path_15703" data-name="Path 15703" d="M48.386,160.166l22.767-46.2a123.021,123.021,0,0,0-2.813-23.1s-34.08-9.093-34.283,2.412c-.178,10.179,11.289,50.1,14.329,66.889" transform="translate(-9.444 85.427)" fill="#233862"/>
  <path id="Path_15704" data-name="Path 15704" d="M66.6,92.2,48.579,222.784s-7.911,1.907-14.065.381c0,0-5.276-69.449-4.837-86.238S25.892,92,30.644,88.9,66.6,92.2,66.6,92.2" transform="translate(-20.07 86.538)" fill="#213f7a"/>
  <path id="Path_15705" data-name="Path 15705" d="M27.939,140.787a2.5,2.5,0,0,0,1.8,2.584c2.515.728,5.411,1.236,11,2.394a106.607,106.607,0,0,0,20.987,2.108c13.8.089,19.025-4.668,19.025-4.668.6.011-.313-2.876-1.133-16.611-.275-4.651-.545-10.546-.737-18-.175-6.7-.292-14.67-.3-24.124-.017-11.367-17.615-23.6-17.939-23.6l0,.006c0,1.637-2.581,4.657-6.555,4.918-4.717.31-10.5-2.039-10.5-4.754,0-.029-8.525,13.638-11.553,28.2-.384,1.847-.682,3.794-.92,5.844-.717,6.176-.023,1.769-3.171,45.7" transform="translate(-20.878 35.78)" fill="#28a1de"/>
  <path id="Path_15706" data-name="Path 15706" d="M39.341,60.869s16.364-.138,20.3,5.385,12.574,35.235,8.069,45.122-12.938-4.089-17.618-10.145S39.341,60.869,39.341,60.869" transform="translate(0.426 35.78)" fill="#28a1de"/>
  <path id="Path_15707" data-name="Path 15707" d="M50.637,66.353l-.009,1.692s.459,5.29-6.053,6.062-11.367-.972-11.189-5.052a59.044,59.044,0,0,0,1.19-9.038,18.639,18.639,0,0,0-.232-3.169l12.622-.252,3.719.608Z" transform="translate(-10.703 27.799)" fill="#f9dac5"/>
  <path id="Path_15708" data-name="Path 15708" d="M50.059,57.2l-.049,9.15a10.643,10.643,0,0,1-4.551,1c-5.8,0-9.551-4.252-11.51-7.341a18.35,18.35,0,0,0-.232-3.169l12.622-.252Z" transform="translate(-10.076 27.799)" fill="#e8c5ac"/>
  <path id="Path_15709" data-name="Path 15709" d="M34.723,68.9c1.465,7.883,11.636,7.625,16.029,7.128,1.239-.138,2.016-.3,2.016-.3,1.4-.373,2.174-2.569,2.535-5.448.717-5.695-.189-14.053-1.15-16.192-1.448-3.217-4.175-6.7-14.417-4.186S32.845,58.8,34.723,68.9" transform="translate(-12.048 13.71)" fill="#f9dac5"/>
  <path id="Path_15710" data-name="Path 15710" d="M46.608,68.591s6.328,13.976,6.145,18.165a21.869,21.869,0,0,0-6.145.791c-4.946,1.474,0-18.957,0-18.957" transform="translate(9.891 50.201)" fill="#1282af"/>
  <path id="Path_15711" data-name="Path 15711" d="M60.2,50.422a33.917,33.917,0,0,1-9.827-2.658c-4.316-1.878-9.761.189-11.527,1.121a2.614,2.614,0,0,1,.43-1.064,2.36,2.36,0,0,0-.909,1.351c-.083.06-.12.1-.1.115a3.033,3.033,0,0,0-1.48.095s.407-.057.551.2a.255.255,0,0,0,.066.072c-6.733,3.252-7.355,13.893-5.19,16.353a83.51,83.51,0,0,1,6.469,9.554,10.219,10.219,0,0,0-.069-4.1c-.476-2.606,1.775-2.606,4.619-3.791s.473-4.5,2.962-6.518,11.61-.829,11.493-2.368c3.386-1.233,2.509-8.015,2.509-8.361" transform="translate(-14.955 9.883)" fill="#233862"/>
  <path id="Path_15712" data-name="Path 15712" d="M32.66,78.114c2.672,10.73,31.565,16.273,38.134,17.4-.278-4.651-.545-10.549-.737-18Z" transform="translate(-12.05 66.86)" fill="#1282af"/>
  <path id="Path_15713" data-name="Path 15713" d="M42.34,86.3c-.275,0-6.423-.918-7.524-1.468s-6.136-7.708-2.839-9.543S44.129,80.8,44.129,80.8Z" transform="translate(-15.387 62.16)" fill="#f9dac5"/>
  <path id="Path_15714" data-name="Path 15714" d="M73.8,88.046s-23.777,1.29-39.734-2.128a6.853,6.853,0,0,1,4.611-6.655s24.872-5.273,30.845-3.805S73.8,88.046,73.8,88.046" transform="translate(-9.448 62.543)" fill="#28a1de"/>
  <path id="Path_15715" data-name="Path 15715" d="M35.212,96.039c4.935,5.95,11.387,10.807,18.5,11.946v0a13.24,13.24,0,0,0,1.761-7.94,15.866,15.866,0,0,0-2.589-7.289,16.139,16.139,0,0,1-1.4-2.819c-3.883-9.91-3.3-29.007-3.3-29.007S31.688,62.656,26.549,70c-3.148,4.5.866,16.634,8.663,26.042" transform="translate(-25.472 35.889)" fill="#28a1de"/>
  <path id="Path_15716" data-name="Path 15716" d="M38.977,62.2c1.236-.138,2.016-.3,2.016-.3,1.394-.373,2.174-2.569,2.535-5.448a6.894,6.894,0,0,0-4.313,3.527,5.058,5.058,0,0,0-.238,2.217" transform="translate(-0.273 27.541)" fill="#e8c5ac"/>
  <path id="Path_15717" data-name="Path 15717" d="M45.083,66.427s5.695-9.4,1.267-9.807a6.7,6.7,0,0,0-6.85,3.69c-.639,1.1.169,6.068.169,6.068Z" transform="translate(0.264 27.774)" fill="#f9dac5"/>
  <path id="Path_15718" data-name="Path 15718" d="M33.734,102.52a12.273,12.273,0,0,0,.972,3.263,15.633,15.633,0,0,0,3.624,5l0,0c14.79-6.675,17.784-29.6,18.286-42.2.2-5.064,0-8.459,0-8.459-6.673-2.208-8.548,1.632-8.548,1.632S40.191,80.483,36.1,92.727c-1.563,4.685-2.572,8.422-2.371,9.792" transform="translate(-10.093 33.095)" fill="#28a1de"/>
  <path id="Path_15719" data-name="Path 15719" d="M28.869,92.877c4.935,5.95,11.387,10.807,18.5,11.946v0c14.793-6.675,17.787-29.6,18.286-42.2,0,0-7,25.385-16.525,34.26a10.4,10.4,0,0,1-5.388,2.948s-12.015-3.4-14.532-6.592c-.181-.229-.29-.344-.338-.358" transform="translate(-19.13 39.05)" fill="#1282af"/>
  <path id="Path_15720" data-name="Path 15720" d="M246.064,132.518s-7.235-8.439-.447-13.8c0,0,4.961-3,9-2.758,0,0-5.729,9.606-3.877,10.564s5.612-11.166,5.612-11.166,11.283-1.1,14.914.651c0,0-9.646,7.894-7.613,8.364s12.45-7.278,12.45-7.278,10.5,1.786,9.941,8.192-4.178,8.384-5.769,8.215-10.893-3.722-11.1-2.42,5.4,5.563,9.319,5.761c0,0-7.4,8.166-12.324,5.809s-5.342-6.09-8.407-7.493-5.686-1.4-4.422.032,6.819,2.819,8.574,5.921,3.326,5.2-1.763,4.43-13.368-4.493-13.729-8.757Z" transform="translate(380.21 136.898)" fill="#c8dbf4"/>
  <path id="Path_15721" data-name="Path 15721" d="M282.839,118.691s-28.525-1.1-34.822,7.06a20.635,20.635,0,0,1-5.68,7.971l-.668,1.821s4.943-5.213,6.71-5.528c0,0-2.764-10.1,34.461-11.324" transform="translate(378.26 143.668)" fill="#c8dbf4"/>
  <path id="Path_15722" data-name="Path 15722" d="M246.164,124.368a17.908,17.908,0,0,0-6.546,12.617l1.11.1s1.956-8.364,5.491-11.636-.054-1.081-.054-1.081" transform="translate(374.432 153.02)" fill="#c8dbf4"/>
  <path id="Path_15723" data-name="Path 15723" d="M262.554,136.827s11.5-6.446,6.136-15.192c0,0-4.3-5.368-8.9-6.75,0,0,2.454,13.041,0,13.348S258.1,113.5,258.1,113.5s-12.121-5.83-16.878-5.371c0,0,7.518,12.737,5.064,12.43s-10.893-13.2-10.893-13.2-12.427-2.3-14.426,5.064,1.227,11.045,3.074,11.507,13.652.307,13.348,1.841-8.287,3.989-12.737,2.609c0,0,4.909,12.121,11.355,11.507s8.439-4.6,12.427-4.909,6.9.766,4.909,1.841-8.746.353-11.969,3.091-5.83,4.427.155,5.655,16.729.462,18.874-4.143Z" transform="translate(338.429 121.976)" fill="#c8dbf4"/>
  <path id="Path_15724" data-name="Path 15724" d="M222.539,109.713s32.221,10.435,35.906,22.1a24.459,24.459,0,0,0,3.068,11.2v2.3s-3.375-7.828-5.219-8.9c0,0,7.212-10.128-33.756-26.7" transform="translate(342.538 126.994)" fill="#c8dbf4"/>
  <path id="Path_15725" data-name="Path 15725" d="M237.133,122.258a21.253,21.253,0,0,1,2.136,16.732l-1.279-.344s1.242-10.116-1.359-15.206.5-1.181.5-1.181" transform="translate(366.918 147.746)" fill="#c8dbf4"/>
  <path id="Path_15726" data-name="Path 15726" d="M247.94,139.9s-15.169-8.5-8.092-20.023c0,0,5.666-7.08,11.734-8.9,0,0-3.237,17.193,0,17.6s2.225-19.418,2.225-19.418,15.977-7.685,22.249-7.077c0,0-9.913,16.786-6.675,16.382s14.36-17.394,14.36-17.394,16.385-3.034,19.014,6.675-1.62,14.561-4.046,15.169-18,.4-17.6,2.426,10.922,5.259,16.789,3.441c0,0-6.472,15.977-14.968,15.169s-11.126-6.068-16.385-6.472-9.1,1.009-6.472,2.426,11.53.465,15.777,4.075,7.688,5.835-.2,7.455-22.048.605-24.881-5.462Z" transform="translate(371.349 110.012)" fill="#d4e4f8"/>
  <path id="Path_15727" data-name="Path 15727" d="M291.408,104.162s-42.475,13.755-47.33,29.125a32.265,32.265,0,0,1-4.043,14.767v3.034s4.447-10.317,6.876-11.731c0,0-9.506-13.351,44.5-35.195" transform="translate(375.211 116.628)" fill="#d4e4f8"/>
  <path id="Path_15728" data-name="Path 15728" d="M242.618,120.7s-6.549,9.947-2.816,22.056l1.686-.453s-1.637-13.336,1.789-20.043-.66-1.56-.66-1.56" transform="translate(372.628 143.981)" fill="#d4e4f8"/>
  <path id="Path_15729" data-name="Path 15729" d="M260.619,155.669a29.717,29.717,0,0,0,29.715-29.715H230.9a29.716,29.716,0,0,0,29.715,29.715" transform="translate(358.159 157.323)" fill="#d4e4f8"/>
  <path id="Path_15730" data-name="Path 15730" d="M291.012,139.231H230.761a3.665,3.665,0,0,1,3.667-3.665h52.919a3.664,3.664,0,0,1,3.665,3.665" transform="translate(357.892 175.273)" fill="#d4e4f8"/>
  <rect id="Rectangle_847" data-name="Rectangle 847" width="61.082" height="0.912" transform="translate(588.088 283.277)" fill="#9fc1f4"/>
  <path id="Path_15731" data-name="Path 15731" d="M227.914,57.687a9.973,9.973,0,0,0-7.88-.843c-13.382-1.571-17.288,14.036-17.1,19.407s.794,11.137-5.184,18.114c-17.262,20.155,18.894,21.044,18.894,21.044.307-16.1,19.608-10.228,18.762-8.6,24.743,5.938,2.46-43.964-7.487-49.125" transform="translate(287.519 27.438)" fill="#163560"/>
  <path id="Path_15732" data-name="Path 15732" d="M196.443,83.033s-2.354-3.584-4.25-3.653-5.411-1.055-5.13-.353,2.46.774,2.67,1.2-3.232,1.052-4.215,1.124-3.3,0-3.232.49,4.181,2.529,7.077,2.248a19.673,19.673,0,0,1,6.483.843Z" transform="translate(267.365 69.219)" fill="#f9dac5"/>
  <path id="Path_15733" data-name="Path 15733" d="M222.19,99.3a35.406,35.406,0,0,1-3.6,5.445c-2.8,3.5-7.108,7.547-12.525,8.347a13.435,13.435,0,0,1-7.438-1.207l-.009,0c-6.575-2.919-11.521-9.632-11.521-9.632a5.41,5.41,0,0,1,.737-5.3s13.279,2.988,14.544,2.354,8.642-21.884,10.4-24.554,7.742-4.057,7.742-4.057Z" transform="translate(275.654 54.113)" fill="#fffbf8"/>
  <path id="Path_15734" data-name="Path 15734" d="M210.838,87.146c-2.8,3.5-7.108,7.55-12.522,8.347a13.449,13.449,0,0,1-7.441-1.207c.258.034,6.825.846,9.442-3.837,2.67-4.78,5.557-12.367,9.523-9.838,1.712,1.093,1.637,3.805,1,6.535" transform="translate(283.407 71.707)" fill="#ede5df"/>
  <path id="Path_15735" data-name="Path 15735" d="M225.927,131.789s4.052,3.7,3.26,6.326-4.445,4.379-4.941,7.587-2.469,4.964-4.25,4.964h-8.479s-1.31-2.26,1.852-2.939,4.356-4.456,4.158-7.957a61.812,61.812,0,0,1,.3-8.175l6.721-1.557Z" transform="translate(321.455 164.948)" fill="#233862"/>
  <path id="Path_15736" data-name="Path 15736" d="M219.444,131.195s1.457,15.665-.321,16.539l-22.765-.046s0-2.627,3.656-3.212,10.082-2.724,11.169-7.493,8.261-5.789,8.261-5.789" transform="translate(293.647 167.11)" fill="#233862"/>
  <path id="Path_15737" data-name="Path 15737" d="M235.012,141.358c-4.685-10.506-7.55-13.52-7-16.78.407-2.429-1.242-45.248-1.242-45.248-.556-.172-1.669-.327-2.28-.459a5.73,5.73,0,0,1-4.172-3.63,29.16,29.16,0,0,1-1.416-9.663l-.6.118-10.088,2s.229,3.177.235,6.165v.077a5.8,5.8,0,0,1-4.186,5.612c-1.276.364-2.383.682-2.383.682a92.512,92.512,0,0,0-4.413,21.44c-.708,10.865,6.736,15.587-.057,37.3-6.933,22.177,40.193,8.189,37.606,2.386" transform="translate(294.3 44.572)" fill="#f9dac5"/>
  <path id="Path_15738" data-name="Path 15738" d="M200.719,67.617s.229,3.174.235,6.165c5.646-.158,8.631-5.308,9.855-8.164Z" transform="translate(301.791 44.649)" fill="#e8c5ac"/>
  <path id="Path_15739" data-name="Path 15739" d="M202.958,81.983s13.359.221,13.368-8.1,1.738-13.9-6.79-14.389-10.188,2.681-10.868,5.457.814,16.76,4.29,17.033" transform="translate(297.664 33.116)" fill="#f9dac5"/>
  <path id="Path_15740" data-name="Path 15740" d="M200.234,60.49s3.656,9.761,9.27,11.206,8.049-.06,8.049-.06a15.9,15.9,0,0,1-5.2-9.391s-9.359-6.4-12.118-1.755" transform="translate(300.885 31.915)" fill="#163560"/>
  <path id="Path_15741" data-name="Path 15741" d="M204.955,60.7a8.3,8.3,0,0,0-3.828,2.991,13.45,13.45,0,0,0-1.806,7.639s-2.756-6.635.341-10.389c3.283-3.98,5.293-.241,5.293-.241" transform="translate(297.07 32.495)" fill="#163560"/>
  <path id="Path_15742" data-name="Path 15742" d="M204.216,65.806a3.352,3.352,0,0,1-2.767,1.124,2.446,2.446,0,0,1-2.056-1.356,8.971,8.971,0,0,1,4.823.232" transform="translate(299.314 44.131)" fill="#ebf3fa"/>
  <path id="Path_15743" data-name="Path 15743" d="M237.3,89.315a90.888,90.888,0,0,1,0,10.521c-.227,3.805-4.075,8.9-4.619,10.159-1.371,3.163-2.916,3.676-2.916,3.676L217.814,116.6l-4.2,1.029-13.253-3.96s-6.036-16.846-3.613-26.332a72.838,72.838,0,0,1,6.128-16.069s10.813,10.589,24.9-.9Z" transform="translate(293.301 53.529)" fill="#fffbf8"/>
  <path id="Path_15744" data-name="Path 15744" d="M223.089,83.7c-.227,3.805-.576,7.346-1.121,8.608-1.371,3.16-2.916,3.676-2.916,3.676L207.1,98.908l-5.19-1.525s17.328-2.627,15.41-17.534Z" transform="translate(304.015 71.223)" fill="#ede5df"/>
  <path id="Path_15745" data-name="Path 15745" d="M202.483,86.365s-6.564,20.428-6.985,27.387,12.545,98.8,13.067,102c.493,3.019,4.244,4.946,4.244,4.946a5.67,5.67,0,0,0,4.186.321c3.418-.963,4.5-2.119,4.5-2.119s5.11-65.5,1.947-88.9a370.766,370.766,0,0,1-3.2-43.637Z" transform="translate(292.021 83.393)" fill="#1282af"/>
  <path id="Path_15746" data-name="Path 15746" d="M224.325,86.153s10.01,13.431,10.945,22.512,1.462,40.976,3.452,49.828,9.293,25.884,9.293,53.5a5.51,5.51,0,0,1-3.105,2.426,25.318,25.318,0,0,1-2.73.754,4.285,4.285,0,0,1-4.8-2.28c-4.941-9.944-20.674-42.017-21.48-48.672-.571-4.711-5.537-35.895-16.373-54.192-2.6-4.393,1.6-21.861,1.6-21.861Z" transform="translate(297.984 82.997)" fill="#28a1de"/>
  <path id="Path_15747" data-name="Path 15747" d="M204.006,65.988s-.232.981-2.67.829c0,0-2.05-.126-1.987-1.2a6.6,6.6,0,0,1,4.657.376" transform="translate(299.229 44.17)" fill="#fff"/>
  <path id="Path_15748" data-name="Path 15748" d="M197.8,85.266s2.635,2.085,7.868,2.191c6.251.126,21.744-1.594,21.744-1.594a12.789,12.789,0,0,1,.659,3.954s-18.919,4.771-29.882.7a6.933,6.933,0,0,1-.39-5.247" transform="translate(295.651 81.34)" fill="#233862"/>
  <path id="Path_15749" data-name="Path 15749" d="M201.64,92.113a3.253,3.253,0,1,1,2.853-3.229,3.061,3.061,0,0,1-2.853,3.229m0-5.511a2.319,2.319,0,1,0,1.907,2.282A2.122,2.122,0,0,0,201.64,86.6" transform="translate(298.183 82.069)" fill="#fff"/>
  <rect id="Rectangle_848" data-name="Rectangle 848" width="25.703" height="35.184" transform="matrix(0.754, -0.657, 0.657, 0.754, 500.945, 160.645)" fill="#2b478b"/>
  <path id="Path_15750" data-name="Path 15750" d="M210.974,86.576s-7.1.832-7.08,2.518,1.769,5.147,2.647,5.3,5.781-4.683,5.781-4.683Z" transform="translate(307.72 83.787)" fill="#f9dac5"/>
  <path id="Path_15751" data-name="Path 15751" d="M209.993,70.373s9.483.665,13.116,9.5,10.532,23.674,10.532,26.168-3.851,10.191-24.54,14.612c0,0-2.142-2.251-2.013-4.032,0,0,12.915-11.091,12.881-12.387-.066-2.455-2.116-5.692-13.454-17.033-3.083-3.085,3.478-16.829,3.478-16.829" transform="translate(311.075 53.529)" fill="#fffbf8"/>
  <path id="Path_15752" data-name="Path 15752" d="M259.187,53.119l5.655,19.765A2.546,2.546,0,0,1,263.1,76.03l-34.323,9.821a2.553,2.553,0,0,1-3.143-1.746l-5.652-19.757a2.541,2.541,0,0,1,1.743-3.146l34.323-9.821a2.546,2.546,0,0,1,3.143,1.738" transform="translate(337.57 17.878)" fill="#cde0fb"/>
  <path id="Path_15753" data-name="Path 15753" d="M260.946,62.248a2.546,2.546,0,0,1-1.838,2.274l-34.323,9.821a2.545,2.545,0,0,1-2.77-.969L239.5,57.445Z" transform="translate(341.56 29.386)" fill="#bed7fb"/>
  <path id="Path_15754" data-name="Path 15754" d="M259.187,53.119,243.82,72.2,220.267,65.36l-.29-1.012a2.541,2.541,0,0,1,1.743-3.146l34.323-9.821a2.546,2.546,0,0,1,3.143,1.738" transform="translate(337.57 17.878)" fill="#dfebfd"/>
  <path id="Path_15755" data-name="Path 15755" d="M139.4,182.031h-.1a1.025,1.025,0,0,1-1.027-1.049l1.557-67.5,4.588-.536L140.5,180.985a1.107,1.107,0,0,1-1.107,1.047" transform="translate(185.176 133.037)" fill="#b0d4ff"/>
  <path id="Path_15756" data-name="Path 15756" d="M130.074,182.031h-.1a1.025,1.025,0,0,1-1.027-1.049l1.557-67.5,4.588-.536-3.914,68.036a1.107,1.107,0,0,1-1.107,1.047" transform="translate(167.766 133.037)" fill="#95c0f4"/>
  <path id="Path_15757" data-name="Path 15757" d="M158.337,182.031h.1a1.025,1.025,0,0,0,1.027-1.049l-1.557-67.5-4.588-.536,3.914,68.036a1.108,1.108,0,0,0,1.107,1.047" transform="translate(213.268 133.037)" fill="#b0d4ff"/>
  <path id="Path_15758" data-name="Path 15758" d="M128.282,151.395V105.143a14.736,14.736,0,0,1,14.736-14.736H176.34a14.736,14.736,0,0,1,14.736,14.736v48.018Z" transform="translate(166.519 90.941)" fill="#b0d4ff"/>
  <path id="Path_15759" data-name="Path 15759" d="M197.046,118.977h-64.34a4.425,4.425,0,0,1-4.424-4.424v-2.876h68.764Z" transform="translate(166.519 130.661)" fill="#95c0f4"/>
  <path id="Path_15760" data-name="Path 15760" d="M188.783,118.977H140.108a3.272,3.272,0,0,1-3.272-3.272v-.757a3.27,3.27,0,0,1,3.272-3.272h48.675a3.271,3.271,0,0,1,3.272,3.272v.757a3.272,3.272,0,0,1-3.272,3.272" transform="translate(182.493 130.661)" fill="#b0d4ff"/>
  <path id="Path_15761" data-name="Path 15761" d="M177.58,108.543c-4.774,8.31-10.779,11.516-10.779,11.516H141.823s39.4-17.853,35.757-11.516" transform="translate(191.806 122.268)" fill="#233862"/>
  <path id="Path_15762" data-name="Path 15762" d="M147.991,143.57a2.31,2.31,0,0,0-.413,2.469l.009.014c.594,1.646,2.563,3.484,4.849,5.319.293.235.553.45.78.648.057.055.118.106.175.158s.089.083.132.12c2.133,1.967,1.331,2.417,5.161,6.406,4.367,4.542,7.375,4.625,8.23,4.212.723-.353-.746-2.764-2.374-5.474-.08-.129-.158-.261-.238-.393q-.327-.542-.648-1.09c-1.91-3.26-1.419-4.789-.966-9.64.367-3.943,6.134-22.028,6.134-22.028l-8.37-1.442s-2.52,14.4-5.3,16.62c-1.483,1.181-3.146,1.2-4.574,2.073-.1.06-.2.123-.3.186a11.039,11.039,0,0,0-2.291,1.841" transform="translate(202.212 151.526)" fill="#f9dac5"/>
  <path id="Path_15763" data-name="Path 15763" d="M147.991,131.4a2.31,2.31,0,0,0-.413,2.469l.009.014c.728,1.643,2.647,3.472,4.857,5.3.29.241.542.462.771.665.057.054.118.106.175.158s.089.083.132.12c2.133,1.967,1.331,2.417,5.161,6.406,4.367,4.542,7.375,4.625,8.23,4.212.723-.353-.746-2.764-2.374-5.474a18.6,18.6,0,0,1-7.788-5.735c-2.629-3.358-4.381-7.668-6.174-10.165-.1.06-.2.123-.3.186a11.039,11.039,0,0,0-2.291,1.841" transform="translate(202.212 163.7)" fill="#233862"/>
  <path id="Path_15764" data-name="Path 15764" d="M175.5,140c.513,2.584,4.2,2.153,8.31,1.147s3.14.189,8.992-.459,7.633-2.83,7.808-3.7c.161-.771-2.733-1.044-5.835-1.4-.39-.043-.78-.092-1.176-.14-3.5-.439-6.068-2.7-9.25-4.556-3.017-1.761-7.516-8.926-7.516-8.926l-8.032.637s4.215,6.4,5.847,9.184c.958,1.634.906,3.8.789,5.471A10.137,10.137,0,0,0,175.5,140" transform="translate(242.189 149.868)" fill="#f9dac5"/>
  <path id="Path_15765" data-name="Path 15765" d="M179.532,132.276c4.115-1.006,3.137.189,8.992-.459s7.63-2.83,7.808-3.7c.161-.771-2.733-1.044-5.838-1.4l-.029.06a16.506,16.506,0,0,1-8.384,2.607c-3.974.095-8.181-1.044-10.925-1a10.252,10.252,0,0,0,.063,2.747c.516,2.584,4.2,2.153,8.313,1.147" transform="translate(246.471 158.74)" fill="#233862"/>
  <path id="Path_15766" data-name="Path 15766" d="M178.348,118.729l-7.507,20.2-9.8,26.375a15.838,15.838,0,0,1-5.207-.476,22.565,22.565,0,0,1-5.035-2.452s2.721-28.319,7.8-44.577c1.3-4.172,2.758-7.547,4.367-9.445,7.871-9.3,15.384,10.374,15.384,10.374" transform="translate(208.566 119.793)" fill="#233862"/>
  <path id="Path_15767" data-name="Path 15767" d="M205.033,101.785c-4.918-1.586-18.945.45-33.036,3.209l-2.951-4.866-30.435-2.377s-10.042,22.271-4.545,36.462a5.144,5.144,0,0,0,5.153,3.467h.444s18.114-.009,23.995-.009c15.137,0,32.032-10.406,34.22-10.842,3.576-.717,5.007,6.44,8.585,13.953s33.629,33.274,33.629,33.274,4.619.046,6.529-.671a6.421,6.421,0,0,0,2.8-1.769s-33.3-66.252-44.391-69.831" transform="translate(174.249 104.655)" fill="#2b478b"/>
  <path id="Path_15768" data-name="Path 15768" d="M178.375,69.338c-3.9-2.047-9.83-2.326-10.8-2.455-11.533-1.548-18.472,15.209-18.882,20.287-.751,9.359-5.7,10.787-12.674,16.648-13.973,11.754-9.875,25.411-2.234,30.487,4.585,3.045,12.665,0,12.665,0,.115.077,22.1-12.293,32.938-18.26,16.247-2.308,8.918-41.492-1.018-46.708" transform="translate(163.724 46.824)" fill="#233862"/>
  <path id="Path_15769" data-name="Path 15769" d="M151.621,93.289c.049.032-5.333,1.867-8.929.275-3.386-1.5-5.95-7.065-5.9-7.068,1.54-.072,3.229-1.416,4.531-10.248l.657.235L153,80.449s-.8,3.538-1.316,6.9c-.436,2.827-.668,5.537-.066,5.936" transform="translate(182.412 64.5)" fill="#f9dac5"/>
  <path id="Path_15770" data-name="Path 15770" d="M149.624,80.3s-.8,3.536-1.316,6.9c-6.331-1.141-8.815-7.45-9.706-10.87Z" transform="translate(185.791 64.655)" fill="#e8c5ac"/>
  <path id="Path_15771" data-name="Path 15771" d="M151.985,96.214s-15.08-2.024-13.675-11.4.4-15.946,10.093-15.051,11.017,4.751,11.309,7.994-3.768,18.736-7.728,18.452" transform="translate(185.073 52.247)" fill="#f9dac5"/>
  <path id="Path_15772" data-name="Path 15772" d="M161.982,73.164s-9.655,8.318-16.221,8.989-9.053-1.437-9.053-1.437a25.644,25.644,0,0,0,6.2-8.4,4.626,4.626,0,0,1,3.808-2.724c4.688-.4,13.577-.588,15.266,3.57" transform="translate(182.254 51.706)" fill="#233862"/>
  <path id="Path_15773" data-name="Path 15773" d="M143.417,71.627s3.229,3.123,4.247,5.44c.981,2.234,1.276,7.582.493,9.7,0,0,5.032-9.784,2.185-14.538-3.022-5.041-6.925-.605-6.925-.605" transform="translate(194.782 52.501)" fill="#233862"/>
  <path id="Path_15774" data-name="Path 15774" d="M172.749,109.062c-.456,30.527-.126,24.15-3.464,27.046-.806.7-3.068,1.113-6.045,1.31-9.359.619-25.816-.923-26.441-2.652-2.159-5.984-.637-7.845-2.437-17.01-.186-.975-.422-2.03-.694-3.177-1.5-6.294-2.962-8.436,2.366-18.547,4.832-9.161,9.853-16.594,10.306-16.327,12.749,7.57,13.775,1.207,13.775,1.207s12.858,13.259,12.634,28.15" transform="translate(173.984 70.943)" fill="#fff"/>
  <path id="Path_15775" data-name="Path 15775" d="M170.841,131.149l-9.8,26.375a15.839,15.839,0,0,1-5.207-.476A22.612,22.612,0,0,1,150.8,154.6s2.721-28.322,7.8-44.577Z" transform="translate(208.566 127.571)" fill="#2b478b"/>
  <path id="Path_15776" data-name="Path 15776" d="M141.987,80.121s13.119,2.225,14.658,7.871,10.607,38.854,10.607,38.854-6.67,1.2-9.749-1.881-10.721-28.586-10.721-28.586Z" transform="translate(192.112 71.732)" fill="#fff"/>
  <path id="Path_15777" data-name="Path 15777" d="M161.884,120.911c-9.359.622-25.816-.92-26.441-2.649-2.159-5.987-.637-7.845-2.437-17.01l4.516-12.714s-.748,14.157,3.427,17.881,17.1,7.189,19.126,10.3a11.371,11.371,0,0,1,1.809,4.192" transform="translate(175.34 87.451)" fill="#ebf3ff"/>
  <path id="Path_15778" data-name="Path 15778" d="M139.337,98.682s9.233-2.056,10.721-1.236,5.136,3.8,5.589,4.843-3.318-.789-4.545-1.118c-.794-.212-2.888.513-3.923.86-4.359,1.451-7.028.705-7.028.705Z" transform="translate(187.163 103.725)" fill="#f9dac5"/>
  <path id="Path_15779" data-name="Path 15779" d="M156.662,79.7s-12.4.763-16.694,6.75c-6.042,8.43-18.028,44.348-11.157,49.136,7.736,5.4,35.209,1.411,35.209,1.411s.915-4.273-.358-6.34-21.945-5.405-22.9-6.36,11.926-18.6,11.926-21.469S156.662,79.7,156.662,79.7" transform="translate(163.653 70.944)" fill="#fff"/>
  <path id="Path_15780" data-name="Path 15780" d="M143.233,98.216a17.9,17.9,0,0,0,2.569,2.793,1.889,1.889,0,0,0,1.044.224l-1.3-2.346Z" transform="translate(194.439 105.524)" fill="#f9dac5"/>
  <path id="Path_15781" data-name="Path 15781" d="M143.077,97.32l5.626,2.733a1,1,0,0,1-.932.358,13.373,13.373,0,0,1-2.44-.671Z" transform="translate(194.147 103.851)" fill="#f9dac5"/>
  <path id="Path_15782" data-name="Path 15782" d="M144.129,122.2h44.5l13.385-33.291H157.586Z" transform="translate(196.112 88.153)" fill="#28a1de"/>
  <path id="Path_15783" data-name="Path 15783" d="M198.1,100.072H139.337v1.3H197.58Z" transform="translate(187.162 108.989)" fill="#1282af"/>
  <path id="Path_15784" data-name="Path 15784" d="M158.547,96.1a1.542,1.542,0,0,0-1.511-2.119,3.038,3.038,0,0,0-2.727,2.119,1.542,1.542,0,0,0,1.511,2.119,3.038,3.038,0,0,0,2.727-2.119" transform="translate(214.962 97.613)" fill="#fff"/>
  <path id="Path_15785" data-name="Path 15785" d="M74.4,158.744h-.143a3,3,0,0,1-2.994-3V92.529a2.994,2.994,0,0,1,2.994-2.994H74.4a2.992,2.992,0,0,1,2.994,2.994v63.218a3,3,0,0,1-2.994,3" transform="translate(60.031 89.312)" fill="#b0d4ff"/>
  <path id="Path_15786" data-name="Path 15786" d="M73.051,182.031h-.1a1.025,1.025,0,0,1-1.027-1.049l1.557-67.5,4.588-.536-3.914,68.036a1.107,1.107,0,0,1-1.107,1.047" transform="translate(61.279 133.037)" fill="#95c0f4"/>
  <path id="Path_15787" data-name="Path 15787" d="M101.313,182.031h.1a1.025,1.025,0,0,0,1.027-1.049l-1.557-67.5-4.588-.536,3.914,68.036a1.108,1.108,0,0,0,1.107,1.047" transform="translate(106.779 133.037)" fill="#b0d4ff"/>
  <path id="Path_15788" data-name="Path 15788" d="M147.734,111.676H71.259v2.876a4.423,4.423,0,0,0,4.424,4.424h72.05a3.27,3.27,0,0,0,3.272-3.269v-.76a3.272,3.272,0,0,0-3.272-3.272" transform="translate(60.031 130.66)" fill="#b0d4ff"/>
  <path id="Path_15789" data-name="Path 15789" d="M111.446,134.514s-1.127,14,1.379,14.179c.333.026,12.711.026,12.711.026l15.8-.092s-.1-3.808-4.723-4.611-13.758-4.691-16.557-10.8c-2.942-6.42-8.611,1.293-8.611,1.293" transform="translate(134.606 166.125)" fill="#163560"/>
  <path id="Path_15790" data-name="Path 15790" d="M78.132,111.093s.525,13.752,2.951,18.366H136.96s13.428,1.388,14.653,2.294c1.543,1.141-5.379,12.476,20.571,56.764l12.708-.324s-13.291-71.827-15.65-73.645c-3.533-2.718-44.873-12.184-51.949-12.39s-39.161,8.935-39.161,8.935" transform="translate(72.866 112.879)" fill="#1c468a"/>
  <path id="Path_15791" data-name="Path 15791" d="M102.907,91.525c4.313,2.67,4.556,7.992,4.556,7.992-10.518,2.721-25.821-8.955-25.821-8.955a25.812,25.812,0,0,0,9.279-14.547c.126-.5.241-1.021.344-1.548a31.834,31.834,0,0,0,.568-5.474l4.832,4.327,8.035,7.2a69.417,69.417,0,0,1-1.187,8.123c-.175.895-.376,1.858-.605,2.882" transform="translate(79.421 50.951)" fill="#f9dac5"/>
  <path id="Path_15792" data-name="Path 15792" d="M119.3,136.874c-.358,2.346.37,4.235.717,5.981a6.694,6.694,0,0,1,.161,1.956c-.576,6.489,1.738,7.315,1.015,9.408a51.4,51.4,0,0,1-7,3.163c-1.97.743-4.33,1.543-7.045,2.291-.14.04-.284.077-.43.118a103.446,103.446,0,0,1-24.689,3.366c-5.964-.161-7.166-15.281-4.955-34.323,3.447-29.667,8.109-44.05,20.393-54.441.774-.657.252,1.571,4.379,3.561a19.294,19.294,0,0,0,11.989,1.474l2.807,2.882c5.58,8.812,6.165,19.272,5.689,27.992a255.824,255.824,0,0,1-3.031,26.573" transform="translate(68.967 60.816)" fill="#b0d4ff"/>
  <path id="Path_15793" data-name="Path 15793" d="M98.53,77.7s.427-.45-.576,4.688c-8.9-2.575-11.8-7.108-12.987-10.113-.338-.849,3.306-1.3,5.528-1.772Z" transform="translate(85.59 53.771)" fill="#e8c5ac"/>
  <path id="Path_15794" data-name="Path 15794" d="M104.166,91.557S87,94.014,85.631,83.3s-4.5-17.615,6.4-19.639,13.56,1.8,14.888,5.262,1.677,21.721-2.753,22.636" transform="translate(84.089 39.941)" fill="#f9dac5"/>
  <rect id="Rectangle_849" data-name="Rectangle 849" width="36.027" height="1.376" transform="translate(252.883 210.921) rotate(-72.66)" fill="#1c468a"/>
  <rect id="Rectangle_850" data-name="Rectangle 850" width="2.263" height="37.806" transform="translate(216.383 210.937) rotate(-89.405)" fill="#1c468a"/>
  <path id="Path_15795" data-name="Path 15795" d="M83.513,66.688c-.138-.161-.456-.292-1.17-.335a2.9,2.9,0,0,1,1.336-.367c.155-.989.7-2.741,2.409-3.154a2.141,2.141,0,0,0-1.049,1.534c1.993-2.016,6.242-3.458,17.97-2.44,15.456,1.342,10.28,11.2,8.27,12.367s-7.025-2.11-10.759-1.844-4.485,5.652-5.755,6.38S94,78.255,92.293,77.47s-1.89,2.047-1.411,3.9-1.893,4.261-1.893,4.261L86.633,83.05c-2.357-2.578-4.51-13.443-3.412-15.745.1-.2.192-.41.292-.617" transform="translate(80.73 37.127)" fill="#2c3a64"/>
  <path id="Path_15796" data-name="Path 15796" d="M109.106,131.815a51.174,51.174,0,0,1-7,3.163c-19.59-14.294-19.481-48.127-19.59-48.7l24.606,21.664.811,12.511a6.8,6.8,0,0,1,.158,1.956c-.576,6.492,1.741,7.318,1.015,9.411" transform="translate(81.053 83.223)" fill="#91b8ef"/>
  <path id="Path_15797" data-name="Path 15797" d="M104.158,98.861a6.086,6.086,0,0,0,3.237-.525c1.663-.78,7.4-3.243,8.473-2.908s4.594,2.323,5.422,2.7a10.541,10.541,0,0,1,2.291,2.311c-.608.614-2.744-.794-3.7-.766s-8,3.877-10.1,3.96a40.373,40.373,0,0,1-5.359-.347Z" transform="translate(121.468 100.26)" fill="#f9dac5"/>
  <path id="Path_15798" data-name="Path 15798" d="M108.613,96.744c.017.115,2.578,2.965,4.525,2.062L111,96.695Z" transform="translate(129.788 102.683)" fill="#f9dac5"/>
  <path id="Path_15799" data-name="Path 15799" d="M105.287,98.471a36.865,36.865,0,0,0,3.054-3.146s.459.209.479.6a5.171,5.171,0,0,1-.6,1.832Z" transform="translate(123.577 100.125)" fill="#f9dac5"/>
  <path id="Path_15800" data-name="Path 15800" d="M104.342,80.279C91.729,72.6,76.847,86.017,83.1,99.391c7.26,15.5,19.335,34.418,28.935,35.536,6.839.794,26.395,3.3,34.676,1.758,0,0,4.009.2,1.832-6.263,0,0-26.756-7.455-31.2-13.242-2.38-3.1-6.44-9.374-12.714-36.72-.026-.112-.195-.12-.29-.181" transform="translate(79.394 67.835)" fill="#b0d4ff"/>
  <path id="Path_15801" data-name="Path 15801" d="M212.308,199.193h.135a1.421,1.421,0,0,0,1.419-1.451L211.711,104.5l-6.337-.74,5.4,93.989a1.534,1.534,0,0,0,1.531,1.445" transform="translate(310.484 115.875)" fill="#739af0"/>
  <path id="Path_15802" data-name="Path 15802" d="M100.147,199.193h-.135a1.421,1.421,0,0,1-1.419-1.451l2.151-93.244,6.337-.74-5.4,93.989a1.534,1.534,0,0,1-1.531,1.445" transform="translate(111.076 115.875)" fill="#739af0"/>
  <path id="Path_15803" data-name="Path 15803" d="M423.119,111.943H99.7a4.259,4.259,0,0,1-4.261-4.258v-2.733a4.264,4.264,0,0,1,4.261-4.261H423.119a4.262,4.262,0,0,1,4.261,4.261v2.733a4.257,4.257,0,0,1-4.261,4.258" transform="translate(105.192 110.146)" fill="#739af0"/>
  <rect id="Rectangle_851" data-name="Rectangle 851" width="5.399" height="19.869" transform="translate(122.932 67.003)" fill="#d6e8fc"/>
  <path id="Path_15804" data-name="Path 15804" d="M72.909,50.723H69.1a.675.675,0,0,1,0-1.351h3.805a.675.675,0,0,1,0,1.351" transform="translate(54.748 14.31)" fill="#d6e8fc"/>
  <rect id="Rectangle_852" data-name="Rectangle 852" width="5.399" height="35.473" transform="translate(113.621 51.398)" fill="#d6e8fc"/>
  <path id="Path_15805" data-name="Path 15805" d="M69.619,45.455H65.814a.675.675,0,0,1,0-1.351h3.805a.675.675,0,0,1,0,1.351" transform="translate(48.605 4.473)" fill="#d6e8fc"/>
  <rect id="Rectangle_853" data-name="Rectangle 853" width="5.399" height="60.173" transform="translate(104.701 26.698)" fill="#d6e8fc"/>
  <path id="Path_15806" data-name="Path 15806" d="M66.507,36.779H62.7a.674.674,0,1,1,0-1.348h3.805a.674.674,0,1,1,0,1.348" transform="translate(42.793 -11.724)" fill="#d6e8fc"/>
  <rect id="Rectangle_854" data-name="Rectangle 854" width="5.399" height="49.254" transform="translate(95.542 37.617)" fill="#d6e8fc"/>
  <path id="Path_15807" data-name="Path 15807" d="M63.314,40.7H59.509a.675.675,0,0,1,0-1.351h3.805a.675.675,0,0,1,0,1.351" transform="translate(36.83 -4.403)" fill="#d6e8fc"/>
  <rect id="Rectangle_855" data-name="Rectangle 855" width="5.399" height="76.589" transform="translate(86.619 10.282)" fill="#d6e8fc"/>
  <path id="Path_15808" data-name="Path 15808" d="M60.2,31.115H56.4a.674.674,0,1,1,0-1.348H60.2a.674.674,0,1,1,0,1.348" transform="translate(31.019 -22.301)" fill="#d6e8fc"/>
  <rect id="Rectangle_856" data-name="Rectangle 856" width="5.399" height="64.626" transform="translate(77.93 22.245)" fill="#d6e8fc"/>
  <path id="Path_15809" data-name="Path 15809" d="M57.172,35.321H53.367a.675.675,0,0,1,0-1.351h3.805a.675.675,0,0,1,0,1.351" transform="translate(25.36 -14.452)" fill="#d6e8fc"/>
  <path id="Path_15810" data-name="Path 15810" d="M230.665,122.373h-44.5L172.777,89.082h44.431Z" transform="translate(249.61 88.466)" fill="#2b478b"/>
  <path id="Path_15811" data-name="Path 15811" d="M177.263,100.239h58.765v1.3H177.785Z" transform="translate(257.988 109.302)" fill="#2b478b"/>
  <path id="Path_15812" data-name="Path 15812" d="M181.419,96.267a1.542,1.542,0,0,1,1.511-2.119,3.038,3.038,0,0,1,2.727,2.119,1.542,1.542,0,0,1-1.511,2.119,3.038,3.038,0,0,1-2.727-2.119" transform="translate(265.588 97.927)" fill="#fff"/>
</svg>
