<svg xmlns="http://www.w3.org/2000/svg" xmlns:xlink="http://www.w3.org/1999/xlink" width="28.539" height="29.73" viewBox="0 0 28.539 29.73">
  <defs>
    <clipPath id="clip-path">
      <rect id="Rectangle_804" data-name="Rectangle 804" width="28.539" height="29.73" fill="none" stroke="#26a9e0" stroke-width="1"/>
    </clipPath>
  </defs>
  <g id="Group_1785" data-name="Group 1785" transform="translate(0 0)">
    <g id="Group_1784" data-name="Group 1784" transform="translate(0 0.001)" clip-path="url(#clip-path)">
      <rect id="Rectangle_803" data-name="Rectangle 803" width="26.55" height="25.303" rx="2.833" transform="translate(0.995 3.432)" fill="none" stroke="#26a9e0" stroke-linecap="round" stroke-linejoin="round" stroke-width="2"/>
      <line id="Line_53" data-name="Line 53" x2="25.846" transform="translate(0.995 10.25)" fill="none" stroke="#26a9e0" stroke-linecap="round" stroke-linejoin="round" stroke-width="2"/>
      <line id="Line_54" data-name="Line 54" y2="5.039" transform="translate(6.589 0.994)" fill="none" stroke="#26a9e0" stroke-linecap="round" stroke-linejoin="round" stroke-width="2"/>
      <line id="Line_55" data-name="Line 55" y2="5.039" transform="translate(22.153 0.994)" fill="none" stroke="#26a9e0" stroke-linecap="round" stroke-linejoin="round" stroke-width="2"/>
      <path id="Path_14948" data-name="Path 14948" d="M5.652,21.417a2.161,2.161,0,0,0,.186.957,1.269,1.269,0,0,0,1.251.7,1.383,1.383,0,0,0,.97-.382,1.418,1.418,0,0,0,.415-1.1,1.238,1.238,0,0,0-.768-1.268,3.89,3.89,0,0,0-1.377-.179V18.789a3.545,3.545,0,0,0,1.283-.179,1.107,1.107,0,0,0,.629-1.129,1.26,1.26,0,0,0-.321-.9,1.174,1.174,0,0,0-.9-.345,1.145,1.145,0,0,0-.984.425,1.805,1.805,0,0,0-.3,1.135H3.966a4.719,4.719,0,0,1,.245-1.361,3.071,3.071,0,0,1,.73-1.042,2.551,2.551,0,0,1,.881-.517,3.823,3.823,0,0,1,1.254-.18,3.332,3.332,0,0,1,2.225.714,2.38,2.38,0,0,1,.845,1.916,2.118,2.118,0,0,1-.5,1.433,1.729,1.729,0,0,1-.664.5,1.365,1.365,0,0,1,.744.445,2.376,2.376,0,0,1,.723,1.832A3.088,3.088,0,0,1,9.6,23.685a3.224,3.224,0,0,1-2.5.926,3.027,3.027,0,0,1-2.839-1.335,3.956,3.956,0,0,1-.464-1.859Z" transform="translate(-0.021 -0.08)" fill="#26a9e0"/>
      <path id="Path_14949" data-name="Path 14949" d="M16.023,17.168a.966.966,0,0,0-.179-.511,1.039,1.039,0,0,0-.923-.452,1.365,1.365,0,0,0-1.315,1.035,6.435,6.435,0,0,0-.291,1.686,2.134,2.134,0,0,1,.817-.611,2.99,2.99,0,0,1,3.163.678,3.109,3.109,0,0,1,.82,2.223,3.758,3.758,0,0,1-.8,2.377,2.969,2.969,0,0,1-2.5,1.029A2.872,2.872,0,0,1,12.133,23.1a6.192,6.192,0,0,1-.671-3.066,13.989,13.989,0,0,1,.093-1.793A5.484,5.484,0,0,1,12.2,16.2a3.3,3.3,0,0,1,1.079-1.122,2.906,2.906,0,0,1,1.6-.425,3.156,3.156,0,0,1,2.137.687,2.609,2.609,0,0,1,.9,1.829Zm-2.244,5.424a1.334,1.334,0,0,0,1.062.491,1.18,1.18,0,0,0,.993-.474,1.98,1.98,0,0,0,.362-1.232,1.845,1.845,0,0,0-.412-1.291,1.318,1.318,0,0,0-1.01-.448,1.35,1.35,0,0,0-.856.291,1.655,1.655,0,0,0-.557,1.4,1.888,1.888,0,0,0,.418,1.267" transform="translate(-0.062 -0.08)" fill="#26a9e0"/>
      <path id="Path_14950" data-name="Path 14950" d="M20.885,21.8a1.818,1.818,0,0,0,.431.953,1.217,1.217,0,0,0,.927.335,1.251,1.251,0,0,0,1.069-.494,2.028,2.028,0,0,0,.368-1.245,2.17,2.17,0,0,0-.344-1.244,1.205,1.205,0,0,0-1.073-.508,1.806,1.806,0,0,0-.6.087,1.186,1.186,0,0,0-.669.591l-1.7-.08.675-5.318h5.3v1.606H21.341L21,18.585a3.9,3.9,0,0,1,.682-.379,2.878,2.878,0,0,1,1-.153,2.9,2.9,0,0,1,2.97,3.141,3.671,3.671,0,0,1-.855,2.383,3.111,3.111,0,0,1-2.56,1.049,3.4,3.4,0,0,1-2.255-.737A2.869,2.869,0,0,1,19,21.8Z" transform="translate(-0.103 -0.081)" fill="#26a9e0"/>
    </g>
  </g>
</svg>
