<svg xmlns="http://www.w3.org/2000/svg" width="22.148" height="28.793" viewBox="0 0 22.148 28.793">
  <path id="Icon_ionic-md-calculator" data-name="Icon ionic-md-calculator" d="M22.576,1.875H7.072A3.323,3.323,0,0,0,3.75,5.2V27.346a3.323,3.323,0,0,0,3.322,3.322h15.5A3.332,3.332,0,0,0,25.9,27.346V5.2A3.323,3.323,0,0,0,22.576,1.875ZM10.948,27.346H7.626V24.023h3.322Zm0-6.091H7.626V17.933h3.322Zm0-6.091H7.626V11.842h3.322Zm5.537,12.182H13.163V24.023h3.322Zm0-6.091H13.163V17.933h3.322Zm0-6.091H13.163V11.842h3.322Zm5.537,12.182H18.7V17.933h3.322Zm0-12.182H18.7V11.842h3.322Zm0-6.645H7.626V5.2h14.4Z" transform="translate(-3.75 -1.875)" fill="#fff"/>
</svg>
