<svg xmlns="http://www.w3.org/2000/svg" width="29.648" height="21.001" viewBox="0 0 29.648 21.001">
  <path id="Icon_material-laptop-mac" data-name="Icon material-laptop-mac" d="M24.707,21.03a2.467,2.467,0,0,0,2.458-2.471l.012-13.589A2.478,2.478,0,0,0,24.707,2.5H4.941A2.478,2.478,0,0,0,2.471,4.971V18.56A2.478,2.478,0,0,0,4.941,21.03H0A2.478,2.478,0,0,0,2.471,23.5H27.178a2.478,2.478,0,0,0,2.471-2.471H24.707ZM4.941,4.971H24.707V18.56H4.941Zm9.883,17.295A1.235,1.235,0,1,1,16.06,21.03,1.239,1.239,0,0,1,14.824,22.266Z" transform="translate(0 -2.5)" fill="#fff"/>
</svg>
