<svg xmlns="http://www.w3.org/2000/svg" xmlns:xlink="http://www.w3.org/1999/xlink" width="29.747" height="28.057" viewBox="0 0 29.747 28.057">
  <defs>
    <clipPath id="clip-path">
      <rect id="Rectangle_797" data-name="Rectangle 797" width="29.747" height="28.057" transform="translate(0 0)" fill="none" stroke="#26a9e0" stroke-width="1"/>
    </clipPath>
  </defs>
  <g id="Group_1775" data-name="Group 1775" transform="translate(0 0)">
    <g id="Group_1774" data-name="Group 1774" clip-path="url(#clip-path)">
      <path id="Path_14934" data-name="Path 14934" d="M6.266,20.539H3.215A2.215,2.215,0,0,1,1,18.324V3.215A2.215,2.215,0,0,1,3.215,1H26.532a2.215,2.215,0,0,1,2.215,2.215V18.324a2.215,2.215,0,0,1-2.215,2.215H23.59" fill="none" stroke="#26a9e0" stroke-linecap="round" stroke-linejoin="round" stroke-width="2"/>
      <line id="Line_40" data-name="Line 40" x2="27.747" transform="translate(1 6.738)" fill="none" stroke="#26a9e0" stroke-linecap="round" stroke-linejoin="round" stroke-width="2"/>
      <line id="Line_41" data-name="Line 41" x2="14.455" transform="translate(4.341 11.314)" fill="none" stroke="#26a9e0" stroke-linecap="round" stroke-linejoin="round" stroke-width="2"/>
      <line id="Line_42" data-name="Line 42" y2="11.153" transform="translate(15.146 15.904)" fill="none" stroke="#26a9e0" stroke-linecap="round" stroke-linejoin="round" stroke-width="2"/>
      <path id="Path_14935" data-name="Path 14935" d="M19.486,22.667l-4.34,4.34L10.969,22.83" fill="none" stroke="#26a9e0" stroke-linecap="round" stroke-linejoin="round" stroke-width="2"/>
      <path id="Path_14936" data-name="Path 14936" d="M19.486,19.433l-4.34-4.34L10.969,19.27" fill="none" stroke="#26a9e0" stroke-linecap="round" stroke-linejoin="round" stroke-width="2"/>
    </g>
  </g>
</svg>
