<svg xmlns="http://www.w3.org/2000/svg" width="20.193" height="20.355" viewBox="0 0 20.193 20.355">
  <path id="Path_19157" data-name="Path 19157" d="M4.91,9.9A14.8,14.8,0,0,0,7.1,12.968a12.462,12.462,0,0,0,3.464,2.556.361.361,0,0,0,.3.017,1.3,1.3,0,0,0,.416-.3,4.658,4.658,0,0,0,.38-.465c.556-.733,1.246-1.641,2.219-1.187.021.01.038.021.059.031l3.246,1.867c.009,0,.021.017.031.021a1.463,1.463,0,0,1,.609,1.263,3.423,3.423,0,0,1-.475,1.61,3.306,3.306,0,0,1-1.56,1.379,7.1,7.1,0,0,1-1.924.523,6.511,6.511,0,0,1-2.939-.245A13.073,13.073,0,0,1,7.964,18.6l-.078-.05c-.48-.3-1-.621-1.507-1a18.879,18.879,0,0,1-5-5.673A9.211,9.211,0,0,1,.088,6.05,4.183,4.183,0,0,1,1.5,3.394a3.805,3.805,0,0,1,2.823-.754.4.4,0,0,1,.326.208l2.08,3.518A1.1,1.1,0,0,1,6.91,7.543a2.3,2.3,0,0,1-.8.893c-.112.1-.246.192-.385.294-.465.338-.994.727-.813,1.187ZM8.786,8.225a.6.6,0,1,1,.3-1.164A6.207,6.207,0,0,1,11.72,8.535a5.894,5.894,0,0,1,1.616,2.5.6.6,0,0,1-1.15.359A4.674,4.674,0,0,0,10.9,9.416,5,5,0,0,0,8.786,8.225Zm.08-3.687a.6.6,0,0,1,.2-1.188A9.86,9.86,0,0,1,14.048,5.91a10.135,10.135,0,0,1,2.923,4.828.6.6,0,0,1-1.169.3,8.925,8.925,0,0,0-2.574-4.249A8.648,8.648,0,0,0,8.866,4.539Zm.387-3.347a.6.6,0,0,1,.137-1.2,12.538,12.538,0,0,1,6.9,3.212,12.683,12.683,0,0,1,3.9,6.568.6.6,0,1,1-1.173.259A11.47,11.47,0,0,0,15.481,4.1,11.326,11.326,0,0,0,9.254,1.192Z" transform="translate(-0.004 0.009)" fill="#fff"/>
</svg>
