<svg xmlns="http://www.w3.org/2000/svg" width="16.8" height="16.8" viewBox="0 0 16.8 16.8">
  <path id="Icon_ionic-ios-checkmark-circle" data-name="Icon ionic-ios-checkmark-circle" d="M10.275,1.875a8.4,8.4,0,1,0,8.4,8.4A8.4,8.4,0,0,0,10.275,1.875Zm4.3,6.078-5.4,5.424h0A.729.729,0,0,1,8.7,13.6a.707.707,0,0,1-.472-.23L5.97,11.107a.161.161,0,0,1,0-.23l.719-.719a.156.156,0,0,1,.226,0l1.793,1.793,4.927-4.963a.159.159,0,0,1,.113-.048h0a.147.147,0,0,1,.113.048l.707.731A.159.159,0,0,1,14.576,7.953Z" transform="translate(-1.875 -1.875)" fill="#26a9e0"/>
</svg>
