<svg id="Group_2376" data-name="Group 2376" xmlns="http://www.w3.org/2000/svg" xmlns:xlink="http://www.w3.org/1999/xlink" width="135.533" height="157.659" viewBox="0 0 135.533 157.659">
  <defs>
    <clipPath id="clip-path">
      <rect id="Rectangle_1933" data-name="Rectangle 1933" width="135.533" height="157.659" fill="none"/>
    </clipPath>
  </defs>
  <g id="Group_2375" data-name="Group 2375" transform="translate(0 0)" clip-path="url(#clip-path)">
    <path id="Path_18958" data-name="Path 18958" d="M66.417,15.7l-6.325,12-3.245-1.178,1.055,3.2-6.34,19.1S48.054,24.556,66.417,15.7" transform="translate(26.096 7.989)" fill="#234662"/>
    <path id="Path_18959" data-name="Path 18959" d="M56.91,22.735S49.916,48.518,49.242,73.12c0,0,5.8,2.023,14.914.422,9.158-1.61-7.247-50.808-7.247-50.808" transform="translate(25.053 11.567)" fill="#234662"/>
    <path id="Path_18960" data-name="Path 18960" d="M33.184,48.036c1.877-.035,4.52.2,5.392-.759a2.643,2.643,0,0,1,2.158-.923L40.5,45.116l-.282-1.479s-.107-.134-.492-.13a7.286,7.286,0,0,1-2.01-.174c-1.58-.564-7.87,3.2-7.657,4.249.08.391,2.328.468,3.128.453" transform="translate(15.289 22.018)" fill="#ed8b5d"/>
    <path id="Path_18961" data-name="Path 18961" d="M64.647,22.4S54.024,44.344,50.735,46.7s-15.006,7.449-15.006,7.449a2.981,2.981,0,0,0-.023,1.8,2.237,2.237,0,0,0,.881,1.427s16.385-1.464,20.195-3.834,12.21-11.824,12.21-11.824Z" transform="translate(18.104 11.396)" fill="#234662"/>
    <path id="Path_18962" data-name="Path 18962" d="M75.478,108.249h6.287a3.807,3.807,0,0,0,1.72-2.882c.308-2.025,2.578-3.129,3.069-4.787s-2.025-3.988-2.025-3.988l-.421-.542-.439-.563L79.5,96.47s-.1.994-.166,2.26a28.9,28.9,0,0,0-.018,2.894c.124,2.209-.617,4.59-2.58,5.02-1.451.317-1.387,1.178-1.254,1.605" transform="translate(38.368 48.581)" fill="#234662"/>
    <path id="Path_18963" data-name="Path 18963" d="M51.271,106.425H65.65c.691-.843.436-3.958.332-4.974-.021-.205-.036-.324-.036-.324s-4.91-3.927-5.585-.92c-.021.094-.045.186-.072.278-.849,2.812-4.662,4.09-6.862,4.446a2.489,2.489,0,0,0-2.155,1.5" transform="translate(26.085 50.405)" fill="#234662"/>
    <path id="Path_18964" data-name="Path 18964" d="M53.086,51.182s.745,9.3,1.622,20.485c1.192,15.19,2.624,33.848,2.766,37.383.244,6.138,1.228,15.955,1.228,15.955s2.33,2.333,6.995,1.35A160.619,160.619,0,0,0,71.04,97.511c.02-.243.038-.487.056-.733,1.1-15.1,2.823-46.883,2.823-46.883Z" transform="translate(27.009 25.385)" fill="#28a1de"/>
    <path id="Path_18965" data-name="Path 18965" d="M53.086,51.182s.745,9.3,1.622,20.485L71.04,97.511c.02-.243.038-.487.056-.733,1.1-15.1,2.823-46.883,2.823-46.883Z" transform="translate(27.009 25.385)" fill="#1282af"/>
    <path id="Path_18966" data-name="Path 18966" d="M55.343,53.529s13.439,33.689,22.275,49.522,11.6,20.251,11.6,20.251,5.063-2.025,5.524-3.405c0,0-3.38-30.566-9.3-38.016-3.343-4.211-7.272-16.845-7.456-21.263s-1.2-13.164-1.2-13.164Z" transform="translate(28.157 24.143)" fill="#28a1de"/>
    <path id="Path_18967" data-name="Path 18967" d="M57.561,23.651C62.813,25.308,71.9,20.836,71.9,20.836A13.675,13.675,0,0,1,67.311,9.645l-4.06,3.273L60.493,15.14a32.855,32.855,0,0,0,.312,3.607c.056.419.119.871.2,1.353a.975.975,0,0,1-.441.981,12.4,12.4,0,0,0-3,2.569" transform="translate(29.285 4.907)" fill="#ffa77d"/>
    <path id="Path_18968" data-name="Path 18968" d="M52.707,69.352a.849.849,0,0,0,.552.21c1.972-.026,7.723,1.07,12.589.569a36.252,36.252,0,0,0,11.631-3.355c.519-.232,1.711-.869,1.684-1.447-.018-.635-.081-1.554-.16-2.711a144.891,144.891,0,0,1-.288-18.934c.084-1.486.128-2.962.134-4.415.041-10.822-2.106-20.343-6.418-23.565a35.741,35.741,0,0,1-5.089,2.352c-2.038.652-3.09.521-4.148-.181a12.9,12.9,0,0,0-2.939,1.984,20.807,20.807,0,0,0-4.682,9.4,80.609,80.609,0,0,0-2.022,15.587c-.131,3.051-.976,24.4-.845,24.5" transform="translate(26.809 7.989)" fill="#fff"/>
    <path id="Path_18969" data-name="Path 18969" d="M76.63,33.586,70.848,15.7S56.97,20.937,56.328,40.534C56.074,45,55,63.3,56.942,78.468c0,0,10.813,4.212,24.069-4.1Z" transform="translate(28.391 7.989)" fill="#2b5c8b"/>
    <path id="Path_18970" data-name="Path 18970" d="M59.5,14.064a33.375,33.375,0,0,0,.312,3.607c3.057-.525,6.524-5.465,6.524-5.465a9.743,9.743,0,0,0-4.078-.365Z" transform="translate(30.273 5.985)" fill="#ed8b5d"/>
    <path id="Path_18971" data-name="Path 18971" d="M58.618,18.472s9.458,1.572,10.347-4.335,2.707-9.68-3.3-10.933-7.517.824-8.292,2.722-1.2,11.984,1.24,12.545" transform="translate(28.884 1.436)" fill="#ffa77d"/>
    <path id="Path_18972" data-name="Path 18972" d="M94.2,69.751,74.883,72.5a4.629,4.629,0,0,1-5.22-3.918L68.47,60.214a4.63,4.63,0,0,1,3.92-5.22L91.7,52.242a4.63,4.63,0,0,1,5.222,3.918l1.192,8.369A4.629,4.629,0,0,1,94.2,69.751" transform="translate(34.812 26.555)" fill="#234662"/>
    <path id="Path_18973" data-name="Path 18973" d="M70.156,60.692l1.207,8.466a4.64,4.64,0,0,0,2.728,3.586,4.544,4.544,0,0,0,1.5.38h0a4.6,4.6,0,0,0,1-.032l19.278-2.747a4.645,4.645,0,0,0,3.933-5.24L98.61,56.638A4.649,4.649,0,0,0,93.369,52.7l-6.637.946-.258-1.806a1.528,1.528,0,0,0-1.729-1.3l-.727.1-4.037.576-1,.143a1.53,1.53,0,0,0-1.3,1.729l.256,1.806-3.846.546c-.152.023-.3.051-.445.088l0,0a4.646,4.646,0,0,0-3.484,5.152m15.626-6.907-6.9.984-.258-1.806a.573.573,0,0,1,.486-.646l1.732-.246,3.177-.454.857-.122a.6.6,0,0,1,.172,0,.573.573,0,0,1,.475.483Z" transform="translate(35.67 25.709)" fill="#2b5c8b"/>
    <path id="Path_18974" data-name="Path 18974" d="M75.772,47.759a6.733,6.733,0,0,1,1.055,1.89c.273,3.659-1.4,4.166,2.929,6.2,0,0,1.848.7,1.88-.73s-1.282-1.457-1.043-3.466c.278-2.317.249-2.339-1.27-3.549l-1.008-1.664Z" transform="translate(38.55 23.627)" fill="#ffa77d"/>
    <path id="Path_18975" data-name="Path 18975" d="M85.319,64.432a14.792,14.792,0,0,1-3.4.189S77.079,49.665,76.456,48.3s-14.38-17.535-14.38-17.535L67.657,15.7s3.273,1.916,6.732,7.885c4.274,7.375,8.973,19.252,9.809,21.182,2.5,5.771,3.363,18.709,3.363,18.709a6.216,6.216,0,0,1-2.242.954" transform="translate(31.582 7.989)" fill="#2b5c8b"/>
    <path id="Path_18976" data-name="Path 18976" d="M69.8,15.005s-.97-.163-.815-1.5.155-3.084-.932-2.758-1.141,1.195-1.587.688-.454-2.649-3.689-2.8-4.549.976-6.053.315-1.584-2.938-1.584-2.938a2.6,2.6,0,0,0,1.074,1.071s-2.509-3.432.4-5.786S62.479.486,64.161.589c3.7.223,6.1.447,7.307,2.88s.711,9.193-1.666,11.536" transform="translate(28.055 0)" fill="#2b5c8b"/>
    <path id="Path_18977" data-name="Path 18977" d="M77.346,48.38s-.976,1.018-1.038,1.441c-.2,1.361-.652,1.948-.424,2.1.472.308,1.1-.7,1.4-1.6a4.135,4.135,0,0,0,.065-1.934" transform="translate(38.576 24.614)" fill="#ffa77d"/>
    <path id="Path_18978" data-name="Path 18978" d="M70.875,15.7l-6.325,12-3.244-1.178,1.053,3.2-6.34,19.1S52.512,24.556,70.875,15.7" transform="translate(28.365 7.989)" fill="#234662"/>
    <path id="Path_18979" data-name="Path 18979" d="M57.561,11.014a1.57,1.57,0,0,0,1.29,1,2.341,2.341,0,0,0,1.631-.869,7.306,7.306,0,0,0-2.921-.131" transform="translate(29.285 5.543)" fill="#fff"/>
    <path id="Path_18980" data-name="Path 18980" d="M27.426,78.392l19.205-4.449a4.679,4.679,0,0,0,3.493-5.6L48.2,60.021a4.678,4.678,0,0,0-5.6-3.491L23.392,60.979a4.678,4.678,0,0,0-3.491,5.6L21.829,74.9a4.679,4.679,0,0,0,5.6,3.491" transform="translate(10.064 28.699)" fill="#28a1de"/>
    <path id="Path_18981" data-name="Path 18981" d="M45.39,58.961l0,0a4.7,4.7,0,0,0-4.034-1.467h0c-.149.021-.3.047-.451.081l-3.825.887-.416-1.8A1.546,1.546,0,0,0,34.8,55.509l-1,.231-4.015.931-.724.167a1.548,1.548,0,0,0-1.156,1.854l.416,1.8-6.6,1.53a4.7,4.7,0,0,0-3.5,5.619l1.952,8.419a4.7,4.7,0,0,0,5.617,3.5l19.172-4.442a4.516,4.516,0,0,0,.96-.336h0l0,0a4.577,4.577,0,0,0,1.279-.907A4.69,4.69,0,0,0,48.467,69.5l-1.949-8.419a4.654,4.654,0,0,0-1.127-2.12m-16.536-.487a.578.578,0,0,1,.272-.628.624.624,0,0,1,.16-.065l.854-.2,3.159-.732,1.723-.4a.578.578,0,0,1,.693.43l.416,1.8-6.86,1.589Z" transform="translate(9.209 28.221)" fill="#1282af"/>
    <path id="Path_18982" data-name="Path 18982" d="M29.511,50.738a8.488,8.488,0,0,0-.38,2.713c1.349,4.442,3.681,7.348-2.591,6.6,0,0,.26-.256-.94-2.517-1.385-2.607-1.362-2.645-.121-4.768l.428-2.423Z" transform="translate(12.493 25.612)" fill="#ffa77d"/>
    <path id="Path_18983" data-name="Path 18983" d="M35.413,49.186c-1.894-.115-4.2-.61-5.042-1.611a4.66,4.66,0,0,0-1.906-1.439l.291-1.24.349-1.48s.113-.131.5-.11c0,0,1.485.335,2.037-.091a2.093,2.093,0,0,1,2.18.246c.789.524,1.854.439,1.829.7,0,0-1.566.769-1.42.9,1.433,1.273,5.208,1.779,4.964,2.773-.1.391-2.975,1.406-3.782,1.358" transform="translate(14.482 21.875)" fill="#ffa77d"/>
    <path id="Path_18984" data-name="Path 18984" d="M19.223,17.04l-.006,1.029s.281,3.22-3.683,3.689-7.213.409-7.106-2.075a52.186,52.186,0,0,0,1.023-6.5,11.107,11.107,0,0,0-.14-1.927l7.68-.154,2.262.37Z" transform="translate(4.287 5.649)" fill="#ffa77d"/>
    <path id="Path_18985" data-name="Path 18985" d="M18.954,11.473l-.029,5.567a6.507,6.507,0,0,1-2.769.611c-3.531,0-5.812-2.589-7-4.467a11.269,11.269,0,0,0-.142-1.927l7.681-.154Z" transform="translate(4.585 5.649)" fill="#ed8b5d"/>
    <path id="Path_18986" data-name="Path 18986" d="M9.044,14.459c.892,4.8,7.079,4.638,9.753,4.336.753-.083,1.227-.18,1.227-.18.849-.226,1.322-1.563,1.542-3.313.438-3.466-.115-8.552-.7-9.852-.881-1.957-2.541-4.074-8.772-2.547S7.9,8.314,9.044,14.459" transform="translate(3.963 1.211)" fill="#ffa77d"/>
    <path id="Path_18987" data-name="Path 18987" d="M5.265,106.306h8.769a21.315,21.315,0,0,0-.7-3.147,8.771,8.771,0,0,0-.5-1.263c-.852-1.7-6.269-.62-6.269-.62a4.165,4.165,0,0,0-.9,2.078,17.358,17.358,0,0,0-.407,2.953" transform="translate(2.679 51.353)" fill="#234662"/>
    <path id="Path_18988" data-name="Path 18988" d="M22.829,104.742a4.752,4.752,0,0,0,.607,2.767H40.781a2.994,2.994,0,0,0-2.625-1.86c-2.023-.327-5.178-1.3-7.019-3.248a5.223,5.223,0,0,1-1.359-2.461c-.816-3.633-6.747,1.113-6.747,1.113a29.568,29.568,0,0,0-.2,3.689" transform="translate(11.613 50.15)" fill="#234662"/>
    <path id="Path_18989" data-name="Path 18989" d="M18.122,91.549a27.456,27.456,0,0,1,.436,3.2c.551,10.756,9.053,35.347,10.573,35.921,2.352.887,6.058-1,8-1.617a1.661,1.661,0,0,0,1.166-1.889c-4.209-19.356-5.757-47.228-6.32-63.729a74.819,74.819,0,0,0-1.711-14.053S9.527,43.852,9.4,50.852c-.109,6.193,6.868,30.482,8.718,40.7" transform="translate(4.784 24.069)" fill="#2b5c8b"/>
    <path id="Path_18990" data-name="Path 18990" d="M18.122,91.549,31.974,63.438a74.819,74.819,0,0,0-1.711-14.053S9.527,43.852,9.4,50.852c-.109,6.193,6.868,30.482,8.718,40.7" transform="translate(4.784 24.069)" fill="#234662"/>
    <path id="Path_18991" data-name="Path 18991" d="M26.084,50.526,15.122,129.975s-4.814,1.16-8.559.232c0,0-3.209-42.255-2.941-52.47s-2.3-27.334.585-29.222,21.876,2.011,21.876,2.011" transform="translate(1.436 24.42)" fill="#2b5c8b"/>
    <path id="Path_18992" data-name="Path 18992" d="M21.981,7.406c-1.712.54-5.333-.011-6.847,1.213s-.072,3.244-1.8,3.965l-.008,0a.855.855,0,0,1-.994-.249c-.478-.6-1.141-1.195-1.747-.948-.5.2-.522.845-.3,1.47a1.74,1.74,0,0,1-.186,1.571.86.86,0,0,0-.189.632c.143.792.537,1.821.68,2.348l.041.552a28.413,28.413,0,0,1-4.119-5.777C5.671,10.374,5.687,3.6,9.785,1.625a.118.118,0,0,1-.039-.044c-.089-.158-.336-.122-.336-.122a1.852,1.852,0,0,1,.9-.059c-.012-.008.011-.033.06-.071a1.443,1.443,0,0,1,.554-.821,1.592,1.592,0,0,0-.263.647C11.736.588,15.048-.669,17.675.473a21.9,21.9,0,0,0,4.51,1.4,1.879,1.879,0,0,1,1.524,1.916c-.048,1.3-.5,3.171-1.728,3.618" transform="translate(3.089 0.005)" fill="#234662"/>
    <path id="Path_18993" data-name="Path 18993" d="M7.807,17.7l2.524,54.151S31.4,72.2,30.793,67.434,23.2,19.363,23.2,19.363" transform="translate(3.972 9.008)" fill="#e9f3fe"/>
    <path id="Path_18994" data-name="Path 18994" d="M18.591,52.305s-1.07,14.463-3.123,23.544c0,0-12.292.652-15.21-4.095,0,0,2.31-19.539,2.31-23.5,0-1.394-.107-3.288-.278-5.4-.255-3.206-.652-6.921-1.029-10.156-.522-4.507-1-8.089-1-8.089l10.134-8.235Z" transform="translate(0.131 8.329)" fill="#2a567a"/>
    <path id="Path_18995" data-name="Path 18995" d="M34.795,69.381a9.453,9.453,0,0,1-5.905.954c-1.314,3.224-4.415,4.32-4.415,4.028,0-.036-.7-6.089-1.518-13.223-.081-.712-.164-1.435-.247-2.164l-.023-.187c-.139-1.195-.276-2.4-.416-3.606-.988-8.591-1.939-16.826-1.939-16.826C18.176,25.164,16.35,16.443,16.35,16.443c4.6.478,7.7,2.115,8.941,4.261,3.669,6.362,6.328,22.272,7.885,34.184,0,.03.006.06.011.091.269,2.055.5,3.992.7,5.736.014.109.026.217.038.323.573,4.991.866,8.344.866,8.344" transform="translate(8.318 8.366)" fill="#2a567a"/>
    <path id="Path_18996" data-name="Path 18996" d="M14.441,11.1s.2.619,1.761.392c0,0,1.311-.189,1.215-.878a4.25,4.25,0,0,0-2.975.486" transform="translate(7.347 5.357)" fill="#fff"/>
    <path id="Path_18997" data-name="Path 18997" d="M7.411,16.743c-.026-.518,2.422-1.231,2.422-1.231s2.8,3.885,7.419,3.951c0,0-1.316,2.56-2.867,3.224,0,0-6.821-2.876-6.974-5.945" transform="translate(3.77 7.892)" fill="#d9e9f9"/>
    <path id="Path_18998" data-name="Path 18998" d="M13.933,19.1s2.446-1.45,2.453-3.021c0,0,1.58-.2,2.269.567,0,0,.581,2.693-.189,4.258,0,0-3.521-.536-4.534-1.8" transform="translate(7.089 8.168)" fill="#d9e9f9"/>
    <path id="Path_18999" data-name="Path 18999" d="M12.88,18.184l3.316-.8a.5.5,0,0,1,.421.578,4.223,4.223,0,0,1-1.343,2.245c-.407.125-3.179-.935-2.394-2.028" transform="translate(6.482 8.847)" fill="#ba4c43"/>
    <path id="Path_19000" data-name="Path 19000" d="M7.667,16.684C7.641,16.167,9.3,15.1,9.3,15.1s3.206,3.748,7.823,3.814c0,0-1.316,2.56-2.867,3.223,0,0-6.435-2.387-6.587-5.456" transform="translate(3.901 7.684)" fill="#e9f3fe"/>
    <path id="Path_19001" data-name="Path 19001" d="M13.933,18.6s2.473-1.311,2.482-2.883A7.918,7.918,0,0,1,18.6,17.143a4.534,4.534,0,0,1-.13,3.265s-3.521-.536-4.534-1.8" transform="translate(7.089 7.998)" fill="#e9f3fe"/>
    <path id="Path_19002" data-name="Path 19002" d="M20.257,62.543a7.046,7.046,0,0,1-1.667,4.072L17.1,68.292a.757.757,0,0,1-1.258-.109l-1.794-2.812a4.335,4.335,0,0,1-.617-2.677c.192-2.147.549-6.283.84-10.275.238-3.233.435-6.375.466-8.285.1-6.1-.7-25.53-.7-25.53l1.192.062a89.731,89.731,0,0,1,4.341,17.764c.358,2.523.628,5.211.747,7.995,0,0,.514,11.1-.062,18.117" transform="translate(6.826 9.466)" fill="#c65447"/>
    <path id="Path_19003" data-name="Path 19003" d="M20.257,56.532A7.046,7.046,0,0,1,18.59,60.6L17.1,62.281a.757.757,0,0,1-1.258-.109L14.052,59.36a4.335,4.335,0,0,1-.617-2.677c.192-2.147.549-6.283.84-10.275,3.34-4.578,4.736-10.865,5.3-15.988.358,2.523.628,5.211.747,7.995,0,0,.514,11.1-.062,18.117" transform="translate(6.826 15.477)" fill="#ba4c43"/>
    <path id="Path_19004" data-name="Path 19004" d="M10.029,15.1s6.565,27.5,5.521,37.855c0,0-2.414-11.07-8.223-20.136,0,0,2.12-1.863,2.005-2.551a7.265,7.265,0,0,0-3.1-.152S6.4,18.265,7.352,17.013a6.932,6.932,0,0,1,2.677-1.91" transform="translate(3.17 7.684)" fill="#234662"/>
    <path id="Path_19005" data-name="Path 19005" d="M15.608,15.721c-.984.08,6.506,26.87,7.061,35.456,0,0-.658-15.323-.593-19.739,0,0-2.726-1.444-2.726-1.951s2.907-1.875,2.907-1.875-1.841-9.437-2.847-10.477-3.8-1.414-3.8-1.414" transform="translate(7.896 7.998)" fill="#234662"/>
    <path id="Path_19006" data-name="Path 19006" d="M24.753,52.885a2.925,2.925,0,0,0-.166,2.161c.29,1.546.13,2.4.53,2.132a9.251,9.251,0,0,0,1.225-2.121Z" transform="translate(12.461 26.906)" fill="#ffa77d"/>
    <path id="Path_19007" data-name="Path 19007" d="M17.451,52.758C9.808,51.618,4.7,44.475,1.951,39.066,1.7,35.86,1.3,32.145.924,28.909l1.788-5.1Z" transform="translate(0.47 12.113)" fill="#234662"/>
    <path id="Path_19008" data-name="Path 19008" d="M31.792,47.385a25.8,25.8,0,0,1-10.972.1c-.081-.712-.163-1.435-.247-2.164l-.023-.187q.238-.93.477-1.86c2.735.979,8.847,3.125,10.727,3.785.014.109.026.217.038.323" transform="translate(10.455 22.018)" fill="#234662"/>
    <path id="Path_19009" data-name="Path 19009" d="M10.522,16.369S3.807,17.217.741,21.5s3.517,27.583,17.18,35.047c6.571,3.589,25.534,4.4,25.534,4.4s1.043.1,1.456-1.995a8.356,8.356,0,0,0,0-1.98s-21.586-8.093-23.484-9.652S10.522,16.369,10.522,16.369" transform="translate(0 8.328)" fill="#2a567a"/>
  </g>
</svg>
