<svg id="Group_2380" data-name="Group 2380" xmlns="http://www.w3.org/2000/svg" xmlns:xlink="http://www.w3.org/1999/xlink" width="183.921" height="141.148" viewBox="0 0 183.921 141.148">
  <defs>
    <clipPath id="clip-path">
      <rect id="Rectangle_1939" data-name="Rectangle 1939" width="183.921" height="141.148" fill="none"/>
    </clipPath>
  </defs>
  <g id="Group_2379" data-name="Group 2379" clip-path="url(#clip-path)">
    <path id="Path_19040" data-name="Path 19040" d="M25.687,3.379c-.061-.334-.847-3.92-6.394-3.309,0,0,2.761-.07,3.4,1.055,0,0-2.061-1.206-3.5-.513s-1.937,3.458-1.82,4.327S18.737,8.48,19.727,8.58a2.94,2.94,0,0,0,1.157-.167,13.3,13.3,0,0,0-.549,1.431c-1.546,4.841,1.367,8.929,3.16,8.17,1.15-.486,1.785,1.5,1.785,1.5L35.531,8.428S29.983.218,25.687,3.379" transform="translate(-3.435 0)" fill="#2c3a64"/>
    <path id="Path_19041" data-name="Path 19041" d="M39.335,151.635l-2.494.929s-10.83-15.021-12.163-28.237a20.077,20.077,0,0,1,.356-6.757s-.106-.6-.291-1.673c-.085-.5-.191-1.1-.311-1.787-.352-2.017-.837-4.778-1.391-7.921-1.274-7.233-2.925-16.48-4.207-23.277l.671-.216,7.27-2.345,1.5-4.771,5.413-1.425s1.21,2.365,2.291,13.54c.2,1.465.38,3.082.517,4.834a95.671,95.671,0,0,1-.515,19.574c-.249,1.943-.561,3.947-.951,6.008a26.8,26.8,0,0,0-.208,5.932c.545,10.8,4.511,27.594,4.511,27.594" transform="translate(-3.727 -14.673)" fill="#326290"/>
    <path id="Path_19042" data-name="Path 19042" d="M36.5,92.527,24.742,115.9c-.085-.5-.191-1.1-.31-1.787-.353-2.017-.837-4.778-1.391-7.922-1.275-7.233-2.926-16.479-4.208-23.276l.671-.216,7.27-2.345,1.5-4.772,5.413-1.425s1.21,2.365,2.29,13.539c.2,1.466.381,3.083.517,4.835" transform="translate(-3.727 -14.673)" fill="#2a557d"/>
    <path id="Path_19043" data-name="Path 19043" d="M28.646,76.481l-.272-2.333c-4.559,1.212-16.74-3.383-16.74-3.383S7.218,74.646,7.8,83.952c.283,4.542.8,23.842,1.34,29.554.195,2.069.366,3.543.436,4.131l0,.006a.818.818,0,0,1-.132.506,26.815,26.815,0,0,0-1.993,4.191c-5.3,14.122.817,31.514.817,31.514l1.587-.639s3.48-19.355,6.309-27.906a16.9,16.9,0,0,1,1.362-3.271,36.947,36.947,0,0,0,3.406-9.083,223.366,223.366,0,0,0,4.582-24.1c.144.006,3.135-12.376,3.135-12.376" transform="translate(-1.047 -14.002)" fill="#326290"/>
    <path id="Path_19044" data-name="Path 19044" d="M42.351,50.993a3.081,3.081,0,0,0,.281.268c3.9,3.631,9.143,6.841,11.951,7.549,1.847.472,5.919-.16,9.3-.856,2.252-.444,4.214-.935,5.023-1.128.258-.06.4-.106.4-.106l-.354-2.28s-2.026-.16-4.544-.444c-3.508-.412-7.953-1.045-9.092-1.718-2.641-1.57-7.277-8.153-10.995-12.292-.195-.225-.388-.442-.58-.655-.14-.156-.28-.308-.419-.457a.529.529,0,0,0-.11-.1c-.171-.164-.316-.317-.456-.451-.006-.017-.03-.029-.054-.043a16.384,16.384,0,0,0-1.82-1.469c-.65-.371-1.185-.443-1.562-.127a5.989,5.989,0,0,0-.963,1.372c-.1.188-.2.394-.3.619a1.4,1.4,0,0,0-.156.385,7.875,7.875,0,0,0-.5,3.082,9.761,9.761,0,0,0,.612,3.05,16.617,16.617,0,0,0,4.335,5.806" transform="translate(-7.4 -7.218)" fill="#ffb27d"/>
    <path id="Path_19045" data-name="Path 19045" d="M35.287,38.7a14.194,14.194,0,0,1-5.019,1.971c-7.695,1.551-10.443-4.993-11.417-9.46a6.58,6.58,0,0,1,2.613-.723c.554-.049,1.137-.076,1.619-.087.877-.633,2.232-3.288,2.633-7.458l.356.107,5.979,1.818s-.33,1.907-.517,3.714a7.169,7.169,0,0,0,.06,3.106c.467.116.748.19.748.19l0,.006A38.709,38.709,0,0,1,35.287,38.7" transform="translate(-3.73 -4.54)" fill="#ffb27d"/>
    <path id="Path_19046" data-name="Path 19046" d="M35.991,45.366c-.035.164-.079.324-.126.489-1.351,4.516-2.443,22.569-2.443,22.569.715,2.256-12.4,2.718-19.638,1.676-2.631-.378-4.483-.955-4.611-1.718-1.295-2.918,1.873-8.368,3.7-11.138a7.053,7.053,0,0,0,1.161-4.129c-.055-1.432-.177-2.822-.326-4.124-.28-2.455-.655-4.6-.85-6.116v0c.38-.377.751-.728,1.1-1.063a11.174,11.174,0,0,0,1.311-1.453,2.285,2.285,0,0,0,.51-1.513,7.62,7.62,0,0,0-.2-1.177c-.045-.184-.1-.368-.152-.552a16.108,16.108,0,0,0-1.669-3.589c1.96-1.146,5.733-1.181,5.733-1.181s.026.206.073.543c.184,1.353.7,4.823,1.229,5.416.66.741,11.093,2.885,11.457,1.7.358-1.166-1.8-6.076-1.878-6.261l0-.006a16.712,16.712,0,0,1,4.858,1.744h0c-1.813,1.587,1.722,5.556.77,9.884" transform="translate(-1.755 -6.401)" fill="#42b9f3"/>
    <path id="Path_19047" data-name="Path 19047" d="M33.831,24.894s-.331,1.906-.516,3.714c-3.4-.438-4.9-3.732-5.463-5.532Z" transform="translate(-5.511 -4.566)" fill="#ed985f"/>
    <path id="Path_19048" data-name="Path 19048" d="M34.636,24.166s-8.09-.675-7.592-5.706-.209-8.507,4.976-8.288,6,2.237,6.24,3.957-1.506,10.084-3.623,10.038" transform="translate(-5.347 -2.011)" fill="#ffb27d"/>
    <path id="Path_19049" data-name="Path 19049" d="M37.694,11.054c-1.1-1.637-2.074-1.4-2.649-1a5.672,5.672,0,0,0-7.374.436,9.666,9.666,0,0,1-3.711,5.362s1.38,1.056,4.862.524a5.806,5.806,0,0,0,2.938-1.621,18.955,18.955,0,0,1-3.638,3.635c4.24-1.468,6.432-6.942,6.654-7.523A6.386,6.386,0,0,1,36.3,13.391c.274,1.323.191,3.978.969,3.964,0,0,2.067-3.845.423-6.3" transform="translate(-4.741 -1.758)" fill="#2c3a64"/>
    <path id="Path_19050" data-name="Path 19050" d="M83.809,58.105c-.809.771-1.627,2.7-4.119,2.661a35.94,35.94,0,0,0-4.449.293c-.339.059-.536.083-.536.083l-.089-2.823a.478.478,0,0,0,.116-.01c.6-.091,3.659-.561,4.869-1.363,1.359-.91,4.534-.067,4.534-.067s.488.468-.327,1.225" transform="translate(-14.765 -11.184)" fill="#ffb27d"/>
    <path id="Path_19051" data-name="Path 19051" d="M17.389,174.221H4.83a6.9,6.9,0,0,1,.355-3.367c.628-1.393,1.613-2.026,1.377-3.712a4.524,4.524,0,0,0,3.914,1.5,13.751,13.751,0,0,0,2.179,2.824c.821.59,4.481.38,4.733,2.757" transform="translate(-0.942 -33.073)" fill="#2a557d"/>
    <path id="Path_19052" data-name="Path 19052" d="M50.99,174.36H38.431a5.222,5.222,0,0,1,.355-3.367A2.421,2.421,0,0,0,38.7,168.1a4.869,4.869,0,0,0,2.115.4,4.424,4.424,0,0,0,1.867-.657,45.313,45.313,0,0,0,3.578,3.759c.821.59,4.481.38,4.733,2.757" transform="translate(-7.578 -33.212)" fill="#2a557d"/>
    <path id="Path_19053" data-name="Path 19053" d="M34.108,23.918s.113.666,1.753.667c0,0,1.376,0,1.379-.722a4.419,4.419,0,0,0-3.132.055" transform="translate(-6.749 -4.672)" fill="#fff"/>
    <path id="Path_19054" data-name="Path 19054" d="M15.5,61.731c-.5,3.147-2.772,9.46-1.714,12.476-2.631-.378-4.483-.955-4.611-1.717-1.294-2.918,1.874-8.368,3.7-11.138a7.059,7.059,0,0,0,1.161-4.129c-.055-1.432-.177-2.821-.327-4.124,0,0,2.317,5.288,1.788,8.633" transform="translate(-1.755 -10.507)" fill="#3ca0d7"/>
    <path id="Path_19055" data-name="Path 19055" d="M39.3,37.167c.087,2.8,2.11,10.474,2.59,9.461.548-1.157,2.672-5.55,3.669-5.712a50.665,50.665,0,0,0-4.313-4.664,8.231,8.231,0,0,0-1.946.914" transform="translate(-7.775 -7.173)" fill="#42b9f3"/>
    <path id="Path_19056" data-name="Path 19056" d="M12.263,76.91,10.18,78.3s-.528-.659-1.362-1.712c-.249-.318-.383-.509-.383-.509-.66-.851-1.428-1.895-2.268-3.026l-.014-.014C4.745,71.06,3.2,68.814,2.017,66.781A19.773,19.773,0,0,1,.243,62.958a2.12,2.12,0,0,1-.075-.316c-.612-2.659.51-7.939,2.295-13.091.245-.712.5-1.413.752-2.1A51.5,51.5,0,0,1,6.3,40.633a20.149,20.149,0,0,1,1.859-2.91,8.475,8.475,0,0,1,.618-.738c.116-.131.23-.257.344-.376a8.7,8.7,0,0,1,5.826,2.852c-.034.119-.068.237-.1.357-.788,2.542-2.005,5.661-3.266,8.718-.686,1.679-1.388,3.345-2,4.912-.39.937-.743,1.83-1.06,2.655A25.892,25.892,0,0,0,7.3,59.918a9.112,9.112,0,0,0,.373,3.1,84.632,84.632,0,0,0,2.584,8.408c.4,1.15.795,2.219,1.124,3.107.527,1.435.885,2.373.885,2.373" transform="translate(0 -7.244)" fill="#ffb27d"/>
    <path id="Path_19057" data-name="Path 19057" d="M14.439,46.577c-2.082-3.14-8.045-4.493-8.045-4.493C9.759,31.406,18.6,32.4,18.6,32.4s-3.215,11.11-4.156,14.181" transform="translate(-1.265 -6.405)" fill="#42b9f3"/>
    <path id="Path_19058" data-name="Path 19058" d="M12.691,88.239a4.062,4.062,0,0,1,.609,1.389,6.851,6.851,0,0,0,1.253,3.119c.673.612,2.2,1.836,2.417,1.652a2.774,2.774,0,0,0,.259-2.646c-.259-.46-.61-1.744-1.075-2.054-.563-.378-1.38-2.848-1.38-2.848Z" transform="translate(-2.511 -17.186)" fill="#ffb27d"/>
    <path id="Path_19059" data-name="Path 19059" d="M15.3,87.243s1.657.841,1.88,1.514,1.15,2.029,1.056,2.187-1.542-.749-2.032-1.586a13.124,13.124,0,0,1-.9-2.115" transform="translate(-3.027 -17.263)" fill="#ffb27d"/>
    <path id="Path_19060" data-name="Path 19060" d="M64.453,68.155l60.676-36.325a10.581,10.581,0,0,1,10.869,0l60.675,36.325V127.36l-132.22-6.63Z" transform="translate(-12.753 -6.001)" fill="#3ca0d7"/>
    <rect id="Rectangle_1935" data-name="Rectangle 1935" width="109.458" height="94.593" transform="translate(63.081 35.923)" fill="#fcecdb"/>
    <path id="Path_19061" data-name="Path 19061" d="M82.807,49.651a1.125,1.125,0,1,1,1.125,1.125,1.125,1.125,0,0,1-1.125-1.125" transform="translate(-16.385 -9.602)" fill="#efcbab"/>
    <path id="Path_19062" data-name="Path 19062" d="M208.047,49.651a1.125,1.125,0,1,1,1.125,1.125,1.125,1.125,0,0,1-1.125-1.125" transform="translate(-41.167 -9.602)" fill="#efcbab"/>
    <rect id="Rectangle_1936" data-name="Rectangle 1936" width="100.459" height="0.245" transform="translate(67.547 39.927)" fill="#efcbab"/>
    <rect id="Rectangle_1937" data-name="Rectangle 1937" width="0.245" height="100.459" transform="translate(67.425 39.602)" fill="#efcbab"/>
    <rect id="Rectangle_1938" data-name="Rectangle 1938" width="0.245" height="100.459" transform="translate(167.922 39.602)" fill="#efcbab"/>
    <path id="Path_19063" data-name="Path 19063" d="M196.674,77.283V156.44H64.454V77.283l66.11,39.579Z" transform="translate(-12.754 -15.292)" fill="#42b9f3"/>
    <path id="Path_19064" data-name="Path 19064" d="M64.453,164.816,125.014,121.4a9.525,9.525,0,0,1,11.1,0l60.561,43.418Z" transform="translate(-12.753 -23.668)" fill="#3ca0d7"/>
    <path id="Path_19065" data-name="Path 19065" d="M161.929,60.6H122.02a1.054,1.054,0,0,1,0-2.107h39.909a1.054,1.054,0,1,1,0,2.107" transform="translate(-23.936 -11.574)" fill="#efcbab"/>
    <path id="Path_19066" data-name="Path 19066" d="M169.672,65.872H109.2a1.054,1.054,0,1,1,0-2.107h60.468a1.054,1.054,0,1,1,0,2.107" transform="translate(-21.4 -12.617)" fill="#efcbab"/>
    <path id="Path_19067" data-name="Path 19067" d="M164.092,82.362H120.341a.762.762,0,0,1,0-1.525h43.751a.762.762,0,0,1,0,1.525" transform="translate(-23.661 -15.995)" fill="#efcbab"/>
    <path id="Path_19068" data-name="Path 19068" d="M122.775,87.326H110.439a.762.762,0,0,1,0-1.525h12.336a.762.762,0,0,1,0,1.525" transform="translate(-21.702 -16.978)" fill="#efcbab"/>
    <path id="Path_19069" data-name="Path 19069" d="M145.336,87.326h-14.9a.762.762,0,0,1,0-1.525h14.9a.762.762,0,0,1,0,1.525" transform="translate(-25.658 -16.978)" fill="#efcbab"/>
    <path id="Path_19070" data-name="Path 19070" d="M178.431,87.326H152.667a.762.762,0,0,1,0-1.525h25.764a.762.762,0,1,1,0,1.525" transform="translate(-30.058 -16.978)" fill="#efcbab"/>
    <path id="Path_19071" data-name="Path 19071" d="M143.223,93.1H119.26a.762.762,0,1,1,0-1.525h23.964a.762.762,0,0,1,0,1.525" transform="translate(-23.447 -18.119)" fill="#efcbab"/>
    <path id="Path_19072" data-name="Path 19072" d="M171.311,93.1H152.436a.762.762,0,0,1,0-1.525h18.875a.762.762,0,0,1,0,1.525" transform="translate(-30.012 -18.119)" fill="#efcbab"/>
    <path id="Path_19073" data-name="Path 19073" d="M154.537,104.733a30.42,30.42,0,0,1-4.608,3.1,3.751,3.751,0,0,0,.231-1.276c-.029-.549-.467-.79-.9-1.017-.109-.056-.21-.116-.31-.176a.558.558,0,0,0,.144-.65.473.473,0,0,0-.879.036.7.7,0,0,0-.059.208.54.54,0,0,1-.171-.134c.267-.5.519-1.007.75-1.526a.284.284,0,0,0-.107-.326.891.891,0,0,0-1.22.168,1.64,1.64,0,0,0-.1,1.583c.012.034.026.068.04.1q-.51.92-1.107,1.791c-.036-.037-.074-.074-.112-.111a2.418,2.418,0,0,1-.31-.372,5.41,5.41,0,0,0,.342-1.488.284.284,0,0,0-.405-.273,1.2,1.2,0,0,0-.752,1.3,1.634,1.634,0,0,0,.173.544,4.9,4.9,0,0,1-.428.75.264.264,0,0,0,.1.391,3.939,3.939,0,0,1-.813,1.6c-.329.343-.942.6-1.341.2a1.7,1.7,0,0,1-.32-1.028,18.732,18.732,0,0,1-.118-2.554,3.9,3.9,0,0,1,.194-1.184c.084-.235.2-.59.318-.186a2.227,2.227,0,0,1-.042.708.281.281,0,0,0,.56.043c.042-.423.232-1.31-.247-1.575-.4-.22-.761.1-.945.425-.661,1.186-.4,2.815-.3,4.105.079,1.028.464,2.289,1.778,1.963,1.235-.308,1.689-1.866,1.974-2.937a.285.285,0,0,0-.009-.18c0-.009.01-.017.015-.026.051.052.1.1.154.155.073.064.143.132.21.2q-.195.271-.4.535a.285.285,0,0,0,.022.343.658.658,0,0,0,1.149-.486.93.93,0,0,0-.094-.385q.586-.842,1.093-1.733a.881.881,0,0,0,.674.27c.019,0,.038,0,.057-.006a2.1,2.1,0,0,0,.489.372,3.222,3.222,0,0,1,.486.262c.267.218.188.466.129.776a12.48,12.48,0,0,1-.326,1.21,2.54,2.54,0,0,0-1.312,1.387,1.412,1.412,0,0,0,.489,1.586.283.283,0,0,0,.421-.14c.319-.784.606-1.58.853-2.39.008-.026.016-.051.025-.078.5-.283,1.021-.533,1.514-.825a28.738,28.738,0,0,0,3.721-2.63c.278-.231-.092-.652-.371-.421m-6.82-.748c0-.224.114-.635.373-.63-.117.253-.237.5-.363.752,0-.04-.008-.081-.01-.121m.713,6.485c-.236-.442.1-.988.488-1.348q-.226.68-.488,1.348" transform="translate(-28.03 -20.342)" fill="#f99746"/>
    <path id="Path_19074" data-name="Path 19074" d="M75.355,57.919s1.794-.679,2-1.149.8-.673,1.509-1,1.142-.918,1.244-.837a.68.68,0,0,1-.163.8,21.267,21.267,0,0,1-1.951,2.692c-.456.245-2.637-.5-2.637-.5" transform="translate(-14.911 -10.869)" fill="#ffb27d"/>
  </g>
</svg>
