<svg id="Group_2160" data-name="Group 2160" xmlns="http://www.w3.org/2000/svg" xmlns:xlink="http://www.w3.org/1999/xlink" width="392.657" height="252.884" viewBox="0 0 392.657 252.884">
  <defs>
    <clipPath id="clip-path">
      <rect id="Rectangle_1771" data-name="Rectangle 1771" width="392.657" height="252.884" fill="none"/>
    </clipPath>
  </defs>
  <g id="Group_2159" data-name="Group 2159" clip-path="url(#clip-path)">
    <path id="Path_17063" data-name="Path 17063" d="M350.088,86.978C286.264,100.3,323.685-46.984,236.74,15.532,202.163,40.393,152.375,10.307,104.7,26.752c-43.788,15.1-33,64.655-28.764,80.867,8.558,32.75-34.066,19.688-58.772,33.76C-21.6,163.452,12.4,252.438,49.012,252.808s305.59-.738,305.59-.738,15.978-12.5,24.461-38.263c17.392-52.814,27.225-138.557-28.975-126.829" transform="translate(0 0)" fill="#dcf3fd"/>
    <rect id="Rectangle_1515" data-name="Rectangle 1515" width="16.535" height="34.075" transform="translate(333.733 218.108)" fill="#c8e8f9"/>
    <path id="Path_17064" data-name="Path 17064" d="M93.012,114.256V99.363h4.521V73.757h24.24V99.363h22.661v-35.1L169.442,54.8V84.724h5.7V44.872l25.008,8.288v59.858h31.626v35.356H243.6v8.906h27.143V141.943h15.584V100.266h19.251V177.2h19.251v66.946H73.7V114.256Z" transform="translate(13.632 8.3)" fill="#c1e7f7"/>
    <rect id="Rectangle_1516" data-name="Rectangle 1516" width="16.869" height="6.177" transform="translate(193.177 64.491)" fill="#b1daed"/>
    <rect id="Rectangle_1517" data-name="Rectangle 1517" width="16.869" height="6.177" transform="translate(193.177 76.097)" fill="#b1daed"/>
    <rect id="Rectangle_1518" data-name="Rectangle 1518" width="16.869" height="6.177" transform="translate(193.177 86.538)" fill="#b1daed"/>
    <rect id="Rectangle_1519" data-name="Rectangle 1519" width="19.608" height="9.535" transform="translate(299.597 136.645)" fill="#b1daed"/>
    <rect id="Rectangle_1520" data-name="Rectangle 1520" width="19.421" height="9.535" transform="translate(299.784 165.915)" fill="#b1daed"/>
    <rect id="Rectangle_1521" data-name="Rectangle 1521" width="19.421" height="9.535" transform="translate(299.784 180.32)" fill="#b1daed"/>
    <rect id="Rectangle_1522" data-name="Rectangle 1522" width="19.421" height="9.535" transform="translate(300.102 195.39)" fill="#b1daed"/>
    <rect id="Rectangle_1523" data-name="Rectangle 1523" width="19.421" height="9.535" transform="translate(300.101 210.149)" fill="#b1daed"/>
    <rect id="Rectangle_1524" data-name="Rectangle 1524" width="19.421" height="9.535" transform="translate(300.102 225.22)" fill="#b1daed"/>
    <rect id="Rectangle_1525" data-name="Rectangle 1525" width="17.743" height="6.177" transform="translate(162.037 86.538)" fill="#b1daed"/>
    <rect id="Rectangle_1526" data-name="Rectangle 1526" width="17.743" height="6.177" transform="translate(162.037 76.19)" fill="#b1daed"/>
    <rect id="Rectangle_1527" data-name="Rectangle 1527" width="48.438" height="6.177" transform="translate(162.038 96.662)" fill="#b1daed"/>
    <rect id="Rectangle_1528" data-name="Rectangle 1528" width="48.438" height="6.177" transform="translate(162.038 105.95)" fill="#b1daed"/>
    <rect id="Rectangle_1529" data-name="Rectangle 1529" width="48.438" height="5.941" transform="translate(162.038 115.176)" fill="#b1daed"/>
    <rect id="Rectangle_1530" data-name="Rectangle 1530" width="19.421" height="9.535" transform="translate(299.784 151.511)" fill="#b1daed"/>
    <rect id="Rectangle_1531" data-name="Rectangle 1531" width="4.24" height="5.976" transform="translate(236.328 127.112)" fill="#b1daed"/>
    <rect id="Rectangle_1532" data-name="Rectangle 1532" width="4.24" height="5.976" transform="translate(228.4 127.112)" fill="#b1daed"/>
    <rect id="Rectangle_1533" data-name="Rectangle 1533" width="4.24" height="5.976" transform="translate(220.649 127.112)" fill="#b1daed"/>
    <rect id="Rectangle_1534" data-name="Rectangle 1534" width="4.24" height="5.976" transform="translate(213.301 127.112)" fill="#b1daed"/>
    <rect id="Rectangle_1535" data-name="Rectangle 1535" width="4.24" height="5.976" transform="translate(205.812 127.112)" fill="#b1daed"/>
    <rect id="Rectangle_1536" data-name="Rectangle 1536" width="4.24" height="5.976" transform="translate(198.237 127.112)" fill="#b1daed"/>
    <rect id="Rectangle_1537" data-name="Rectangle 1537" width="4.239" height="5.976" transform="translate(190.311 127.112)" fill="#b1daed"/>
    <rect id="Rectangle_1538" data-name="Rectangle 1538" width="4.24" height="5.976" transform="translate(182.56 127.112)" fill="#b1daed"/>
    <rect id="Rectangle_1539" data-name="Rectangle 1539" width="4.239" height="5.976" transform="translate(175.213 127.112)" fill="#b1daed"/>
    <rect id="Rectangle_1540" data-name="Rectangle 1540" width="4.24" height="5.976" transform="translate(167.721 127.112)" fill="#b1daed"/>
    <rect id="Rectangle_1541" data-name="Rectangle 1541" width="4.24" height="5.976" transform="translate(159.917 127.112)" fill="#b1daed"/>
    <rect id="Rectangle_1542" data-name="Rectangle 1542" width="4.239" height="5.976" transform="translate(151.991 127.112)" fill="#b1daed"/>
    <rect id="Rectangle_1543" data-name="Rectangle 1543" width="4.239" height="5.976" transform="translate(144.241 127.112)" fill="#b1daed"/>
    <rect id="Rectangle_1544" data-name="Rectangle 1544" width="4.239" height="5.976" transform="translate(136.893 127.112)" fill="#b1daed"/>
    <rect id="Rectangle_1545" data-name="Rectangle 1545" width="4.24" height="5.976" transform="translate(129.402 127.112)" fill="#b1daed"/>
    <rect id="Rectangle_1546" data-name="Rectangle 1546" width="4.24" height="5.976" transform="translate(121.827 127.112)" fill="#b1daed"/>
    <rect id="Rectangle_1547" data-name="Rectangle 1547" width="4.239" height="5.976" transform="translate(113.901 127.112)" fill="#b1daed"/>
    <rect id="Rectangle_1548" data-name="Rectangle 1548" width="4.24" height="5.976" transform="translate(106.149 127.112)" fill="#b1daed"/>
    <rect id="Rectangle_1549" data-name="Rectangle 1549" width="4.24" height="5.976" transform="translate(98.801 127.112)" fill="#b1daed"/>
    <rect id="Rectangle_1550" data-name="Rectangle 1550" width="4.239" height="5.976" transform="translate(91.313 127.112)" fill="#b1daed"/>
    <rect id="Rectangle_1551" data-name="Rectangle 1551" width="4.24" height="5.976" transform="translate(236.328 137.656)" fill="#b1daed"/>
    <rect id="Rectangle_1552" data-name="Rectangle 1552" width="4.24" height="5.976" transform="translate(228.4 137.656)" fill="#b1daed"/>
    <rect id="Rectangle_1553" data-name="Rectangle 1553" width="4.24" height="5.976" transform="translate(220.649 137.656)" fill="#b1daed"/>
    <rect id="Rectangle_1554" data-name="Rectangle 1554" width="4.24" height="5.976" transform="translate(213.301 137.656)" fill="#b1daed"/>
    <rect id="Rectangle_1555" data-name="Rectangle 1555" width="4.24" height="5.976" transform="translate(205.812 137.656)" fill="#b1daed"/>
    <rect id="Rectangle_1556" data-name="Rectangle 1556" width="4.24" height="5.976" transform="translate(198.237 137.656)" fill="#b1daed"/>
    <rect id="Rectangle_1557" data-name="Rectangle 1557" width="4.239" height="5.976" transform="translate(190.311 137.656)" fill="#b1daed"/>
    <rect id="Rectangle_1558" data-name="Rectangle 1558" width="4.24" height="5.976" transform="translate(182.56 137.656)" fill="#b1daed"/>
    <rect id="Rectangle_1559" data-name="Rectangle 1559" width="4.239" height="5.976" transform="translate(175.213 137.656)" fill="#b1daed"/>
    <rect id="Rectangle_1560" data-name="Rectangle 1560" width="4.24" height="5.976" transform="translate(167.721 137.656)" fill="#b1daed"/>
    <rect id="Rectangle_1561" data-name="Rectangle 1561" width="4.24" height="5.976" transform="translate(159.917 137.656)" fill="#b1daed"/>
    <rect id="Rectangle_1562" data-name="Rectangle 1562" width="4.239" height="5.976" transform="translate(151.991 137.656)" fill="#b1daed"/>
    <rect id="Rectangle_1563" data-name="Rectangle 1563" width="4.239" height="5.976" transform="translate(144.241 137.656)" fill="#b1daed"/>
    <rect id="Rectangle_1564" data-name="Rectangle 1564" width="4.239" height="5.976" transform="translate(136.893 137.656)" fill="#b1daed"/>
    <rect id="Rectangle_1565" data-name="Rectangle 1565" width="4.24" height="5.976" transform="translate(129.402 137.656)" fill="#b1daed"/>
    <rect id="Rectangle_1566" data-name="Rectangle 1566" width="4.24" height="5.976" transform="translate(121.827 137.656)" fill="#b1daed"/>
    <rect id="Rectangle_1567" data-name="Rectangle 1567" width="4.239" height="5.976" transform="translate(113.901 137.656)" fill="#b1daed"/>
    <rect id="Rectangle_1568" data-name="Rectangle 1568" width="4.24" height="5.976" transform="translate(106.149 137.656)" fill="#b1daed"/>
    <rect id="Rectangle_1569" data-name="Rectangle 1569" width="4.24" height="5.976" transform="translate(98.801 137.656)" fill="#b1daed"/>
    <rect id="Rectangle_1570" data-name="Rectangle 1570" width="4.239" height="5.976" transform="translate(91.313 137.656)" fill="#b1daed"/>
    <rect id="Rectangle_1571" data-name="Rectangle 1571" width="4.24" height="5.976" transform="translate(236.328 148.039)" fill="#b1daed"/>
    <rect id="Rectangle_1572" data-name="Rectangle 1572" width="4.24" height="5.976" transform="translate(228.4 148.039)" fill="#b1daed"/>
    <rect id="Rectangle_1573" data-name="Rectangle 1573" width="4.24" height="5.976" transform="translate(220.649 148.039)" fill="#b1daed"/>
    <rect id="Rectangle_1574" data-name="Rectangle 1574" width="4.24" height="5.976" transform="translate(213.301 148.039)" fill="#b1daed"/>
    <rect id="Rectangle_1575" data-name="Rectangle 1575" width="4.24" height="5.976" transform="translate(205.812 148.039)" fill="#b1daed"/>
    <rect id="Rectangle_1576" data-name="Rectangle 1576" width="4.24" height="5.976" transform="translate(198.237 148.039)" fill="#b1daed"/>
    <rect id="Rectangle_1577" data-name="Rectangle 1577" width="4.239" height="5.976" transform="translate(190.311 148.039)" fill="#b1daed"/>
    <rect id="Rectangle_1578" data-name="Rectangle 1578" width="4.24" height="5.976" transform="translate(182.56 148.039)" fill="#b1daed"/>
    <rect id="Rectangle_1579" data-name="Rectangle 1579" width="4.239" height="5.976" transform="translate(175.213 148.039)" fill="#b1daed"/>
    <rect id="Rectangle_1580" data-name="Rectangle 1580" width="4.24" height="5.976" transform="translate(167.721 148.039)" fill="#b1daed"/>
    <rect id="Rectangle_1581" data-name="Rectangle 1581" width="4.24" height="5.976" transform="translate(159.917 148.039)" fill="#b1daed"/>
    <rect id="Rectangle_1582" data-name="Rectangle 1582" width="4.239" height="5.976" transform="translate(151.991 148.039)" fill="#b1daed"/>
    <rect id="Rectangle_1583" data-name="Rectangle 1583" width="4.239" height="5.976" transform="translate(144.241 148.039)" fill="#b1daed"/>
    <rect id="Rectangle_1584" data-name="Rectangle 1584" width="4.239" height="5.976" transform="translate(136.893 148.039)" fill="#b1daed"/>
    <rect id="Rectangle_1585" data-name="Rectangle 1585" width="4.24" height="5.976" transform="translate(129.402 148.039)" fill="#b1daed"/>
    <rect id="Rectangle_1586" data-name="Rectangle 1586" width="4.24" height="5.976" transform="translate(121.827 148.039)" fill="#b1daed"/>
    <rect id="Rectangle_1587" data-name="Rectangle 1587" width="4.239" height="5.976" transform="translate(113.901 148.039)" fill="#b1daed"/>
    <rect id="Rectangle_1588" data-name="Rectangle 1588" width="4.24" height="5.976" transform="translate(106.149 148.039)" fill="#b1daed"/>
    <rect id="Rectangle_1589" data-name="Rectangle 1589" width="4.24" height="5.976" transform="translate(98.801 148.039)" fill="#b1daed"/>
    <rect id="Rectangle_1590" data-name="Rectangle 1590" width="4.239" height="5.976" transform="translate(91.313 148.039)" fill="#b1daed"/>
    <rect id="Rectangle_1591" data-name="Rectangle 1591" width="4.24" height="5.976" transform="translate(236.328 159.07)" fill="#b1daed"/>
    <rect id="Rectangle_1592" data-name="Rectangle 1592" width="4.24" height="5.976" transform="translate(228.4 159.07)" fill="#b1daed"/>
    <rect id="Rectangle_1593" data-name="Rectangle 1593" width="4.24" height="5.976" transform="translate(220.649 159.07)" fill="#b1daed"/>
    <rect id="Rectangle_1594" data-name="Rectangle 1594" width="4.24" height="5.976" transform="translate(213.301 159.07)" fill="#b1daed"/>
    <rect id="Rectangle_1595" data-name="Rectangle 1595" width="4.24" height="5.976" transform="translate(205.812 159.07)" fill="#b1daed"/>
    <rect id="Rectangle_1596" data-name="Rectangle 1596" width="4.24" height="5.976" transform="translate(198.237 159.07)" fill="#b1daed"/>
    <rect id="Rectangle_1597" data-name="Rectangle 1597" width="4.239" height="5.976" transform="translate(190.311 159.07)" fill="#b1daed"/>
    <rect id="Rectangle_1598" data-name="Rectangle 1598" width="4.24" height="5.976" transform="translate(182.56 159.07)" fill="#b1daed"/>
    <rect id="Rectangle_1599" data-name="Rectangle 1599" width="4.239" height="5.976" transform="translate(175.213 159.07)" fill="#b1daed"/>
    <rect id="Rectangle_1600" data-name="Rectangle 1600" width="4.24" height="5.976" transform="translate(167.721 159.07)" fill="#b1daed"/>
    <rect id="Rectangle_1601" data-name="Rectangle 1601" width="4.24" height="5.976" transform="translate(159.917 159.07)" fill="#b1daed"/>
    <rect id="Rectangle_1602" data-name="Rectangle 1602" width="4.239" height="5.976" transform="translate(151.991 159.07)" fill="#b1daed"/>
    <rect id="Rectangle_1603" data-name="Rectangle 1603" width="4.239" height="5.976" transform="translate(144.241 159.07)" fill="#b1daed"/>
    <rect id="Rectangle_1604" data-name="Rectangle 1604" width="4.239" height="5.976" transform="translate(136.893 159.07)" fill="#b1daed"/>
    <rect id="Rectangle_1605" data-name="Rectangle 1605" width="4.24" height="5.976" transform="translate(129.402 159.07)" fill="#b1daed"/>
    <rect id="Rectangle_1606" data-name="Rectangle 1606" width="4.24" height="5.976" transform="translate(121.827 159.07)" fill="#b1daed"/>
    <rect id="Rectangle_1607" data-name="Rectangle 1607" width="4.239" height="5.976" transform="translate(113.901 159.07)" fill="#b1daed"/>
    <rect id="Rectangle_1608" data-name="Rectangle 1608" width="4.24" height="5.976" transform="translate(106.149 159.07)" fill="#b1daed"/>
    <rect id="Rectangle_1609" data-name="Rectangle 1609" width="4.24" height="5.976" transform="translate(98.801 159.07)" fill="#b1daed"/>
    <rect id="Rectangle_1610" data-name="Rectangle 1610" width="4.239" height="5.976" transform="translate(91.313 159.07)" fill="#b1daed"/>
    <rect id="Rectangle_1611" data-name="Rectangle 1611" width="4.24" height="5.976" transform="translate(236.328 169.615)" fill="#b1daed"/>
    <rect id="Rectangle_1612" data-name="Rectangle 1612" width="4.24" height="5.976" transform="translate(228.4 169.615)" fill="#b1daed"/>
    <rect id="Rectangle_1613" data-name="Rectangle 1613" width="4.24" height="5.976" transform="translate(220.649 169.615)" fill="#b1daed"/>
    <rect id="Rectangle_1614" data-name="Rectangle 1614" width="4.24" height="5.976" transform="translate(213.301 169.615)" fill="#b1daed"/>
    <rect id="Rectangle_1615" data-name="Rectangle 1615" width="4.24" height="5.976" transform="translate(205.812 169.615)" fill="#b1daed"/>
    <rect id="Rectangle_1616" data-name="Rectangle 1616" width="4.24" height="5.976" transform="translate(198.237 169.615)" fill="#b1daed"/>
    <rect id="Rectangle_1617" data-name="Rectangle 1617" width="4.239" height="5.976" transform="translate(190.311 169.615)" fill="#b1daed"/>
    <rect id="Rectangle_1618" data-name="Rectangle 1618" width="4.24" height="5.976" transform="translate(182.56 169.615)" fill="#b1daed"/>
    <rect id="Rectangle_1619" data-name="Rectangle 1619" width="4.239" height="5.976" transform="translate(175.213 169.615)" fill="#b1daed"/>
    <rect id="Rectangle_1620" data-name="Rectangle 1620" width="4.24" height="5.976" transform="translate(167.721 169.615)" fill="#b1daed"/>
    <rect id="Rectangle_1621" data-name="Rectangle 1621" width="4.24" height="5.976" transform="translate(159.917 169.615)" fill="#b1daed"/>
    <rect id="Rectangle_1622" data-name="Rectangle 1622" width="4.239" height="5.976" transform="translate(151.991 169.615)" fill="#b1daed"/>
    <rect id="Rectangle_1623" data-name="Rectangle 1623" width="4.239" height="5.976" transform="translate(144.241 169.615)" fill="#b1daed"/>
    <rect id="Rectangle_1624" data-name="Rectangle 1624" width="4.239" height="5.976" transform="translate(136.893 169.615)" fill="#b1daed"/>
    <rect id="Rectangle_1625" data-name="Rectangle 1625" width="4.24" height="5.976" transform="translate(129.402 169.615)" fill="#b1daed"/>
    <rect id="Rectangle_1626" data-name="Rectangle 1626" width="4.24" height="5.976" transform="translate(121.827 169.615)" fill="#b1daed"/>
    <rect id="Rectangle_1627" data-name="Rectangle 1627" width="4.239" height="5.976" transform="translate(113.901 169.615)" fill="#b1daed"/>
    <rect id="Rectangle_1628" data-name="Rectangle 1628" width="4.24" height="5.976" transform="translate(98.801 169.615)" fill="#b1daed"/>
    <rect id="Rectangle_1629" data-name="Rectangle 1629" width="4.24" height="5.976" transform="translate(106.149 169.615)" fill="#b1daed"/>
    <rect id="Rectangle_1630" data-name="Rectangle 1630" width="4.239" height="5.976" transform="translate(91.313 169.615)" fill="#b1daed"/>
    <rect id="Rectangle_1631" data-name="Rectangle 1631" width="4.24" height="5.976" transform="translate(236.328 179.998)" fill="#b1daed"/>
    <rect id="Rectangle_1632" data-name="Rectangle 1632" width="4.24" height="5.976" transform="translate(228.4 179.998)" fill="#b1daed"/>
    <rect id="Rectangle_1633" data-name="Rectangle 1633" width="4.24" height="5.976" transform="translate(220.649 179.998)" fill="#b1daed"/>
    <rect id="Rectangle_1634" data-name="Rectangle 1634" width="4.24" height="5.976" transform="translate(213.301 179.998)" fill="#b1daed"/>
    <rect id="Rectangle_1635" data-name="Rectangle 1635" width="4.24" height="5.976" transform="translate(205.812 179.998)" fill="#b1daed"/>
    <rect id="Rectangle_1636" data-name="Rectangle 1636" width="4.24" height="5.976" transform="translate(198.237 179.998)" fill="#b1daed"/>
    <rect id="Rectangle_1637" data-name="Rectangle 1637" width="4.239" height="5.976" transform="translate(190.311 179.998)" fill="#b1daed"/>
    <rect id="Rectangle_1638" data-name="Rectangle 1638" width="4.24" height="5.976" transform="translate(182.56 179.998)" fill="#b1daed"/>
    <rect id="Rectangle_1639" data-name="Rectangle 1639" width="4.239" height="5.976" transform="translate(175.213 179.998)" fill="#b1daed"/>
    <rect id="Rectangle_1640" data-name="Rectangle 1640" width="4.24" height="5.976" transform="translate(167.721 179.998)" fill="#b1daed"/>
    <rect id="Rectangle_1641" data-name="Rectangle 1641" width="4.24" height="5.976" transform="translate(159.917 179.998)" fill="#b1daed"/>
    <rect id="Rectangle_1642" data-name="Rectangle 1642" width="4.239" height="5.976" transform="translate(151.991 179.998)" fill="#b1daed"/>
    <rect id="Rectangle_1643" data-name="Rectangle 1643" width="4.239" height="5.976" transform="translate(144.241 179.998)" fill="#b1daed"/>
    <rect id="Rectangle_1644" data-name="Rectangle 1644" width="4.239" height="5.976" transform="translate(136.893 179.998)" fill="#b1daed"/>
    <rect id="Rectangle_1645" data-name="Rectangle 1645" width="4.24" height="5.976" transform="translate(129.402 179.998)" fill="#b1daed"/>
    <rect id="Rectangle_1646" data-name="Rectangle 1646" width="4.24" height="5.976" transform="translate(121.827 179.998)" fill="#b1daed"/>
    <rect id="Rectangle_1647" data-name="Rectangle 1647" width="4.239" height="5.976" transform="translate(113.901 179.998)" fill="#b1daed"/>
    <rect id="Rectangle_1648" data-name="Rectangle 1648" width="4.24" height="5.976" transform="translate(98.801 179.998)" fill="#b1daed"/>
    <rect id="Rectangle_1649" data-name="Rectangle 1649" width="4.239" height="5.976" transform="translate(91.313 179.998)" fill="#b1daed"/>
    <rect id="Rectangle_1650" data-name="Rectangle 1650" width="9.431" height="63.805" transform="translate(46.343 168.186)" fill="#b1daed"/>
    <rect id="Rectangle_1651" data-name="Rectangle 1651" width="10.124" height="44.318" transform="translate(55.774 206.978)" fill="#9bcde0"/>
    <path id="Path_17065" data-name="Path 17065" d="M235.332,128.708V116.278h-.511v12.429h-6.995v15.337h14.4V128.708Z" transform="translate(42.142 21.509)" fill="#b1daed"/>
    <path id="Path_17066" data-name="Path 17066" d="M273.514,101.817V92.282h-4.053v-4.15h-.511v4.15H251.112v-4.15H250.6v4.15h-3.586v41.672h7.161V116h19.338v-9.535H254.176v-4.646Z" transform="translate(45.692 16.302)" fill="#b1daed"/>
    <path id="Path_17067" data-name="Path 17067" d="M101.147,151.219V205H47.069V141.932Z" transform="translate(8.707 26.254)" fill="#c1e7f7"/>
    <rect id="Rectangle_1652" data-name="Rectangle 1652" width="67.465" height="45.372" transform="translate(42.389 206.811)" fill="#c1e7f7"/>
    <rect id="Rectangle_1653" data-name="Rectangle 1653" width="67.465" height="14.747" transform="translate(42.389 179.959)" fill="#b1daed"/>
    <rect id="Rectangle_1654" data-name="Rectangle 1654" width="3.465" height="4.884" transform="translate(101.795 219.114)" fill="#b1daed"/>
    <rect id="Rectangle_1655" data-name="Rectangle 1655" width="3.465" height="4.884" transform="translate(95.316 219.114)" fill="#b1daed"/>
    <rect id="Rectangle_1656" data-name="Rectangle 1656" width="3.465" height="4.884" transform="translate(88.982 219.114)" fill="#b1daed"/>
    <rect id="Rectangle_1657" data-name="Rectangle 1657" width="3.465" height="4.884" transform="translate(82.975 219.114)" fill="#b1daed"/>
    <rect id="Rectangle_1658" data-name="Rectangle 1658" width="3.465" height="4.884" transform="translate(76.855 219.114)" fill="#b1daed"/>
    <rect id="Rectangle_1659" data-name="Rectangle 1659" width="3.465" height="4.884" transform="translate(70.664 219.114)" fill="#b1daed"/>
    <rect id="Rectangle_1660" data-name="Rectangle 1660" width="3.465" height="4.884" transform="translate(64.184 219.114)" fill="#b1daed"/>
    <rect id="Rectangle_1661" data-name="Rectangle 1661" width="3.465" height="4.884" transform="translate(57.849 219.114)" fill="#b1daed"/>
    <rect id="Rectangle_1662" data-name="Rectangle 1662" width="3.465" height="4.884" transform="translate(51.844 219.114)" fill="#b1daed"/>
    <rect id="Rectangle_1663" data-name="Rectangle 1663" width="3.465" height="4.884" transform="translate(45.722 219.114)" fill="#b1daed"/>
    <rect id="Rectangle_1664" data-name="Rectangle 1664" width="3.465" height="4.883" transform="translate(101.795 227.732)" fill="#b1daed"/>
    <rect id="Rectangle_1665" data-name="Rectangle 1665" width="3.465" height="4.883" transform="translate(95.316 227.732)" fill="#b1daed"/>
    <rect id="Rectangle_1666" data-name="Rectangle 1666" width="3.465" height="4.883" transform="translate(88.982 227.732)" fill="#b1daed"/>
    <rect id="Rectangle_1667" data-name="Rectangle 1667" width="3.465" height="4.883" transform="translate(82.975 227.732)" fill="#b1daed"/>
    <rect id="Rectangle_1668" data-name="Rectangle 1668" width="3.465" height="4.883" transform="translate(76.855 227.732)" fill="#b1daed"/>
    <rect id="Rectangle_1669" data-name="Rectangle 1669" width="3.465" height="4.883" transform="translate(70.664 227.732)" fill="#b1daed"/>
    <rect id="Rectangle_1670" data-name="Rectangle 1670" width="3.465" height="4.883" transform="translate(64.184 227.732)" fill="#b1daed"/>
    <rect id="Rectangle_1671" data-name="Rectangle 1671" width="3.465" height="4.883" transform="translate(57.849 227.732)" fill="#b1daed"/>
    <rect id="Rectangle_1672" data-name="Rectangle 1672" width="3.465" height="4.883" transform="translate(51.844 227.732)" fill="#b1daed"/>
    <rect id="Rectangle_1673" data-name="Rectangle 1673" width="3.465" height="4.883" transform="translate(45.722 227.732)" fill="#b1daed"/>
    <rect id="Rectangle_1674" data-name="Rectangle 1674" width="3.465" height="4.884" transform="translate(101.795 201.748)" fill="#b1daed"/>
    <rect id="Rectangle_1675" data-name="Rectangle 1675" width="3.465" height="4.884" transform="translate(95.316 201.748)" fill="#b1daed"/>
    <rect id="Rectangle_1676" data-name="Rectangle 1676" width="3.465" height="4.884" transform="translate(88.982 201.748)" fill="#b1daed"/>
    <rect id="Rectangle_1677" data-name="Rectangle 1677" width="3.465" height="4.884" transform="translate(82.975 201.748)" fill="#b1daed"/>
    <rect id="Rectangle_1678" data-name="Rectangle 1678" width="3.465" height="4.884" transform="translate(76.855 201.748)" fill="#b1daed"/>
    <rect id="Rectangle_1679" data-name="Rectangle 1679" width="3.465" height="4.884" transform="translate(70.664 201.748)" fill="#b1daed"/>
    <rect id="Rectangle_1680" data-name="Rectangle 1680" width="3.465" height="4.884" transform="translate(64.184 201.748)" fill="#b1daed"/>
    <rect id="Rectangle_1681" data-name="Rectangle 1681" width="3.465" height="4.884" transform="translate(57.849 201.748)" fill="#b1daed"/>
    <rect id="Rectangle_1682" data-name="Rectangle 1682" width="3.465" height="4.883" transform="translate(101.795 210.366)" fill="#b1daed"/>
    <rect id="Rectangle_1683" data-name="Rectangle 1683" width="3.465" height="4.883" transform="translate(95.316 210.366)" fill="#b1daed"/>
    <rect id="Rectangle_1684" data-name="Rectangle 1684" width="3.465" height="4.883" transform="translate(88.982 210.366)" fill="#b1daed"/>
    <rect id="Rectangle_1685" data-name="Rectangle 1685" width="3.465" height="4.883" transform="translate(82.975 210.366)" fill="#b1daed"/>
    <rect id="Rectangle_1686" data-name="Rectangle 1686" width="3.465" height="4.883" transform="translate(76.855 210.366)" fill="#b1daed"/>
    <rect id="Rectangle_1687" data-name="Rectangle 1687" width="3.465" height="4.883" transform="translate(70.664 210.366)" fill="#b1daed"/>
    <rect id="Rectangle_1688" data-name="Rectangle 1688" width="3.465" height="4.883" transform="translate(64.184 210.366)" fill="#b1daed"/>
    <rect id="Rectangle_1689" data-name="Rectangle 1689" width="3.465" height="4.883" transform="translate(57.849 210.366)" fill="#b1daed"/>
    <rect id="Rectangle_1690" data-name="Rectangle 1690" width="3.465" height="4.883" transform="translate(51.844 210.366)" fill="#b1daed"/>
    <rect id="Rectangle_1691" data-name="Rectangle 1691" width="3.465" height="4.883" transform="translate(45.722 210.366)" fill="#b1daed"/>
    <rect id="Rectangle_1692" data-name="Rectangle 1692" width="3.465" height="4.884" transform="translate(101.795 236.218)" fill="#b1daed"/>
    <rect id="Rectangle_1693" data-name="Rectangle 1693" width="3.465" height="4.884" transform="translate(95.316 236.218)" fill="#b1daed"/>
    <rect id="Rectangle_1694" data-name="Rectangle 1694" width="3.465" height="4.884" transform="translate(88.982 236.218)" fill="#b1daed"/>
    <rect id="Rectangle_1695" data-name="Rectangle 1695" width="3.465" height="4.884" transform="translate(82.975 236.218)" fill="#b1daed"/>
    <rect id="Rectangle_1696" data-name="Rectangle 1696" width="3.465" height="4.884" transform="translate(76.855 236.218)" fill="#b1daed"/>
    <rect id="Rectangle_1697" data-name="Rectangle 1697" width="3.465" height="4.884" transform="translate(70.664 236.218)" fill="#b1daed"/>
    <rect id="Rectangle_1698" data-name="Rectangle 1698" width="3.465" height="4.884" transform="translate(64.184 236.218)" fill="#b1daed"/>
    <rect id="Rectangle_1699" data-name="Rectangle 1699" width="3.465" height="4.884" transform="translate(57.849 236.218)" fill="#b1daed"/>
    <rect id="Rectangle_1700" data-name="Rectangle 1700" width="3.465" height="4.884" transform="translate(51.844 236.218)" fill="#b1daed"/>
    <rect id="Rectangle_1701" data-name="Rectangle 1701" width="3.465" height="4.884" transform="translate(45.722 236.218)" fill="#b1daed"/>
    <rect id="Rectangle_1702" data-name="Rectangle 1702" width="0.999" height="12.788" transform="translate(59.402 158.058)" fill="#c1e7f7"/>
    <rect id="Rectangle_1703" data-name="Rectangle 1703" width="2.911" height="5.037" transform="translate(101.795 184.102)" fill="#c1e7f7"/>
    <rect id="Rectangle_1704" data-name="Rectangle 1704" width="2.911" height="5.037" transform="translate(72.889 184.102)" fill="#c1e7f7"/>
    <rect id="Rectangle_1705" data-name="Rectangle 1705" width="2.911" height="5.037" transform="translate(49.895 184.102)" fill="#c1e7f7"/>
    <rect id="Rectangle_1706" data-name="Rectangle 1706" width="97.091" height="56.793" transform="translate(192.429 195.389)" fill="#b1daed"/>
    <rect id="Rectangle_1707" data-name="Rectangle 1707" width="5.177" height="7.904" transform="translate(196.238 201.212)" fill="#c1e7f7"/>
    <rect id="Rectangle_1708" data-name="Rectangle 1708" width="5.177" height="7.904" transform="translate(205.366 201.212)" fill="#c1e7f7"/>
    <rect id="Rectangle_1709" data-name="Rectangle 1709" width="5.176" height="7.904" transform="translate(214.556 201.212)" fill="#c1e7f7"/>
    <rect id="Rectangle_1710" data-name="Rectangle 1710" width="5.176" height="7.904" transform="translate(223.684 201.212)" fill="#c1e7f7"/>
    <rect id="Rectangle_1711" data-name="Rectangle 1711" width="5.176" height="7.904" transform="translate(233.086 201.212)" fill="#c1e7f7"/>
    <rect id="Rectangle_1712" data-name="Rectangle 1712" width="5.177" height="7.904" transform="translate(242.212 201.212)" fill="#c1e7f7"/>
    <rect id="Rectangle_1713" data-name="Rectangle 1713" width="5.177" height="7.904" transform="translate(251.402 201.212)" fill="#c1e7f7"/>
    <rect id="Rectangle_1714" data-name="Rectangle 1714" width="5.176" height="7.904" transform="translate(260.531 201.212)" fill="#c1e7f7"/>
    <rect id="Rectangle_1715" data-name="Rectangle 1715" width="5.176" height="7.904" transform="translate(270.104 201.212)" fill="#c1e7f7"/>
    <rect id="Rectangle_1716" data-name="Rectangle 1716" width="5.176" height="7.904" transform="translate(279.233 201.212)" fill="#c1e7f7"/>
    <rect id="Rectangle_1717" data-name="Rectangle 1717" width="5.177" height="7.904" transform="translate(196.238 212.901)" fill="#c1e7f7"/>
    <rect id="Rectangle_1718" data-name="Rectangle 1718" width="5.177" height="7.904" transform="translate(205.366 212.901)" fill="#c1e7f7"/>
    <rect id="Rectangle_1719" data-name="Rectangle 1719" width="5.176" height="7.904" transform="translate(214.556 212.901)" fill="#c1e7f7"/>
    <rect id="Rectangle_1720" data-name="Rectangle 1720" width="5.176" height="7.904" transform="translate(223.684 212.901)" fill="#c1e7f7"/>
    <rect id="Rectangle_1721" data-name="Rectangle 1721" width="5.176" height="7.904" transform="translate(233.086 212.901)" fill="#c1e7f7"/>
    <rect id="Rectangle_1722" data-name="Rectangle 1722" width="5.177" height="7.904" transform="translate(242.212 212.901)" fill="#c1e7f7"/>
    <rect id="Rectangle_1723" data-name="Rectangle 1723" width="5.177" height="7.904" transform="translate(251.402 212.901)" fill="#c1e7f7"/>
    <rect id="Rectangle_1724" data-name="Rectangle 1724" width="5.176" height="7.904" transform="translate(260.531 212.901)" fill="#c1e7f7"/>
    <rect id="Rectangle_1725" data-name="Rectangle 1725" width="5.176" height="7.904" transform="translate(270.104 212.901)" fill="#c1e7f7"/>
    <rect id="Rectangle_1726" data-name="Rectangle 1726" width="5.176" height="7.904" transform="translate(279.233 212.901)" fill="#c1e7f7"/>
    <rect id="Rectangle_1727" data-name="Rectangle 1727" width="5.177" height="7.904" transform="translate(196.238 225.457)" fill="#c1e7f7"/>
    <rect id="Rectangle_1728" data-name="Rectangle 1728" width="5.177" height="7.904" transform="translate(205.366 225.457)" fill="#c1e7f7"/>
    <rect id="Rectangle_1729" data-name="Rectangle 1729" width="5.176" height="7.904" transform="translate(214.556 225.457)" fill="#c1e7f7"/>
    <rect id="Rectangle_1730" data-name="Rectangle 1730" width="5.176" height="7.904" transform="translate(223.684 225.457)" fill="#c1e7f7"/>
    <rect id="Rectangle_1731" data-name="Rectangle 1731" width="5.176" height="7.904" transform="translate(233.086 225.457)" fill="#c1e7f7"/>
    <rect id="Rectangle_1732" data-name="Rectangle 1732" width="5.177" height="7.904" transform="translate(242.212 225.457)" fill="#c1e7f7"/>
    <rect id="Rectangle_1733" data-name="Rectangle 1733" width="5.177" height="7.904" transform="translate(251.402 225.457)" fill="#c1e7f7"/>
    <rect id="Rectangle_1734" data-name="Rectangle 1734" width="5.176" height="7.904" transform="translate(260.531 225.457)" fill="#c1e7f7"/>
    <rect id="Rectangle_1735" data-name="Rectangle 1735" width="5.176" height="7.904" transform="translate(270.104 225.457)" fill="#c1e7f7"/>
    <rect id="Rectangle_1736" data-name="Rectangle 1736" width="5.176" height="7.904" transform="translate(279.233 225.457)" fill="#c1e7f7"/>
    <rect id="Rectangle_1737" data-name="Rectangle 1737" width="5.177" height="7.904" transform="translate(196.238 237.145)" fill="#c1e7f7"/>
    <rect id="Rectangle_1738" data-name="Rectangle 1738" width="5.177" height="7.904" transform="translate(205.366 237.145)" fill="#c1e7f7"/>
    <rect id="Rectangle_1739" data-name="Rectangle 1739" width="5.176" height="7.904" transform="translate(214.556 237.145)" fill="#c1e7f7"/>
    <rect id="Rectangle_1740" data-name="Rectangle 1740" width="5.176" height="7.904" transform="translate(223.684 237.145)" fill="#c1e7f7"/>
    <rect id="Rectangle_1741" data-name="Rectangle 1741" width="5.176" height="7.904" transform="translate(233.086 237.145)" fill="#c1e7f7"/>
    <rect id="Rectangle_1742" data-name="Rectangle 1742" width="5.177" height="7.904" transform="translate(242.212 237.145)" fill="#c1e7f7"/>
    <rect id="Rectangle_1743" data-name="Rectangle 1743" width="5.177" height="7.904" transform="translate(251.402 237.145)" fill="#c1e7f7"/>
    <rect id="Rectangle_1744" data-name="Rectangle 1744" width="5.176" height="7.904" transform="translate(260.531 237.145)" fill="#c1e7f7"/>
    <rect id="Rectangle_1745" data-name="Rectangle 1745" width="5.176" height="7.904" transform="translate(270.104 237.145)" fill="#c1e7f7"/>
    <rect id="Rectangle_1746" data-name="Rectangle 1746" width="5.176" height="7.904" transform="translate(279.233 237.145)" fill="#c1e7f7"/>
    <path id="Path_17068" data-name="Path 17068" d="M216.1,169.836H236.36V152.171L216.1,159.928Z" transform="translate(39.973 28.148)" fill="#b1daed"/>
    <path id="Path_17069" data-name="Path 17069" d="M139.07,220.69H92.706V170.255l46.365,16.05Z" transform="translate(17.148 31.493)" fill="#b1daed"/>
    <rect id="Rectangle_1747" data-name="Rectangle 1747" width="43.915" height="1.558" transform="translate(111.08 219.469)" fill="#c1e7f7"/>
    <rect id="Rectangle_1748" data-name="Rectangle 1748" width="43.915" height="1.558" transform="translate(111.08 224.478)" fill="#c1e7f7"/>
    <rect id="Rectangle_1749" data-name="Rectangle 1749" width="43.915" height="1.558" transform="translate(111.08 229.487)" fill="#c1e7f7"/>
    <rect id="Rectangle_1750" data-name="Rectangle 1750" width="43.915" height="1.558" transform="translate(111.08 234.497)" fill="#c1e7f7"/>
    <rect id="Rectangle_1751" data-name="Rectangle 1751" width="43.915" height="1.558" transform="translate(111.08 239.506)" fill="#c1e7f7"/>
    <rect id="Rectangle_1752" data-name="Rectangle 1752" width="43.915" height="1.558" transform="translate(111.08 244.516)" fill="#c1e7f7"/>
    <rect id="Rectangle_1753" data-name="Rectangle 1753" width="3.896" height="15.071" transform="translate(276.333 180.32)" fill="#b1daed"/>
    <rect id="Rectangle_1754" data-name="Rectangle 1754" width="7.904" height="5.177" transform="translate(264.149 187.881)" fill="#c1e7f7"/>
    <rect id="Rectangle_1755" data-name="Rectangle 1755" width="2.686" height="22.793" transform="translate(114.002 84.159)" fill="#b1daed"/>
    <rect id="Rectangle_1756" data-name="Rectangle 1756" width="2.686" height="22.793" transform="translate(119.345 84.159)" fill="#b1daed"/>
    <rect id="Rectangle_1757" data-name="Rectangle 1757" width="2.686" height="22.793" transform="translate(124.616 84.159)" fill="#b1daed"/>
    <rect id="Rectangle_1758" data-name="Rectangle 1758" width="2.686" height="22.793" transform="translate(130.071 84.159)" fill="#b1daed"/>
    <path id="Path_17070" data-name="Path 17070" d="M20.256,215.523s4.358-12.054,24.809-8.8,29.5.978,39.562-1.628,14.376-2.737,23.951.749,12.928,10.653,44.107,3.486,45.93-13.031,65.375-7.493,43.4-4.589,67.387,4.886,61.017-7.167,79.791,8.8Z" transform="translate(3.747 36.93)" fill="#6ca0b3"/>
    <path id="Path_17071" data-name="Path 17071" d="M54.226,123.338c0,2.807,2.863,4.533,5.936,5.371-4.235-5.043,5.033-35.559,5.268-36.338-4.69,11.13-11.2,27.376-11.2,30.967" transform="translate(10.03 17.086)" fill="#3ca0d7"/>
    <path id="Path_17072" data-name="Path 17072" d="M56.856,131.608s-.987,2.325-2.014,2.974a5.754,5.754,0,0,0-2.217,3.461,3.058,3.058,0,0,0,2.671,3.73c1.3,0,2.538-1.769,3.3-5.995.043-.233,1.274-2.657,1.274-2.657Z" transform="translate(9.724 24.344)" fill="#ffb27d"/>
    <path id="Path_17073" data-name="Path 17073" d="M93.925,58.849c-1.551-2.355-7.707-1.037-13.752,2.943s-9.687,9.116-8.136,11.472,7.707,1.036,13.752-2.943,9.687-9.117,8.136-11.472" transform="translate(13.259 10.67)" fill="#3ca0d7"/>
    <path id="Path_17074" data-name="Path 17074" d="M63.806,141.548l1.193.071c-.011-.026.463-20.839,2.289-29.261a82.9,82.9,0,0,1,12.39-28.076L77.543,83.6a69.491,69.491,0,0,0-4.179,7.544c-2.2,4.44-5.738,11.838-7.3,20.451-1.543,8.507-2.3,29.842-2.257,29.955" transform="translate(11.802 15.464)" fill="#69bbee"/>
    <path id="Path_17075" data-name="Path 17075" d="M85.483,58.542s-7.8-1.664-11.544,4.679-3.952,17.368-6.447,20.973-6.9,18.822-2.218,22.227,33.509-.124,35.127-1.677-.1-17.533-2.915-22.161,4.048-26.4-12-24.041" transform="translate(11.692 10.792)" fill="#2b5c8b"/>
    <path id="Path_17076" data-name="Path 17076" d="M92.873,123.314c8.825-2.246,18.526-15.938,18.526-15.938l-2.485-2.155c-2.573,3.034-13.271,8.257-13.271,8.257.057-2.775-.015-5.307-.191-7.611-1.186-15.662-7.091-20.88-8.7-22.025a3.947,3.947,0,0,0-.41-.263s-.007.113-.015.328c-.024.466-.066,1.4-.11,2.69-.327,9.586-.719,38.6,6.657,36.718" transform="translate(15.922 15.46)" fill="#ffb27d"/>
    <path id="Path_17077" data-name="Path 17077" d="M105.349,103.261c.037-.37.286-5.751,1.354-6.775s3.18-2.42,3.786-2.307,2.666,3.538,1.695,5.9-4.35,5.338-4.35,5.338Z" transform="translate(19.487 17.42)" fill="#ffb27d"/>
    <path id="Path_17078" data-name="Path 17078" d="M75.975,206.339c.538,2.138,1.129,4.173,1.731,6.067.13.406.257.806.386,1.2l.192.575q.19.563.377,1.1c.164.468.326.925.487,1.367.118.328.237.649.352.965,1.79,4.8,3.289,7.841,3.289,7.841l3.567-.245a97,97,0,0,1-1.607-15.491q-.014-.489-.025-.986c-.013-.707-.023-1.428-.023-2.165,0-.3,0-.607,0-.915a81.893,81.893,0,0,1,4.149-26.008A169.634,169.634,0,0,0,94.531,159.6C98.8,139.926,97.8,127,97.8,127l-20.06,2.346-.935.11c-.085,9.213-.322,21.723-.528,31.5-.037,1.7-.07,3.314-.1,4.816-.139,6.279-.243,10.572-.243,10.572-3.858,8.305-2.458,20.031.046,29.989" transform="translate(13.602 23.492)" fill="#ffb27d"/>
    <path id="Path_17079" data-name="Path 17079" d="M67.529,134.675c3.792-8.5,5.6-10.907,5.669-13.582.05-2.115-.993-4.4-3.019-10a20.8,20.8,0,0,1-1.01-4.046c-1.6-10.79,4.637-22.455,8.515-23.249,1.08-.286,2.908-4.183,2.885-10.463l.486.1,8.167,1.618s-.186,2.57-.192,4.99c0,2.018.1,4.072.56,4.312.588.053,7,1.2,8.164,3.038,1.146,1.808-.132,1.975.315,8.558.6,8.794-5.6,19.217-.105,36.792,5.613,17.949-32.53,6.63-30.436,1.932" transform="translate(12.476 13.566)" fill="#ffb27d"/>
    <path id="Path_17080" data-name="Path 17080" d="M87.1,75.038s-.187,2.57-.192,4.991c-4.57-.129-6.985-4.3-7.975-6.609Z" transform="translate(14.6 13.581)" fill="#ef9e67"/>
    <path id="Path_17081" data-name="Path 17081" d="M88.818,79.568S78.006,79.746,78,73.013s-1.408-11.249,5.495-11.647,8.246,2.17,8.8,4.418-.66,13.566-3.472,13.785" transform="translate(14.405 11.343)" fill="#ffb27d"/>
    <path id="Path_17082" data-name="Path 17082" d="M88.96,61.434s-2.96,7.9-7.5,9.069-6.514-.049-6.514-.049a12.863,12.863,0,0,0,4.208-7.6s7.577-5.181,9.809-1.42" transform="translate(13.863 11.11)" fill="#2b5c8b"/>
    <path id="Path_17083" data-name="Path 17083" d="M86.153,61.963A9.53,9.53,0,0,1,88.9,65.442c.539,1.715.782,5.245,1.811,5.125,0,0,2.23-5.37-.276-8.409-2.658-3.221-4.284-.2-4.284-.2" transform="translate(15.936 11.223)" fill="#2b5c8b"/>
    <path id="Path_17084" data-name="Path 17084" d="M55.65,142.1l3.246.975s10.707-17.766,11.68-22.389c.318-1.5,1.1-4.516,2-7.89,1.879-6.989,4.306-15.537,4.306-15.537l.8-3.462L80.412,82a37.039,37.039,0,0,0-8.272,1.808,3.8,3.8,0,0,0-2.05,1.517c-2.243,4.931-4.482,17.375-6.055,26.252-.877,4.947-1.546,8.788-1.9,9.6-.973,2.269-3.947,14.762-6.489,20.925" transform="translate(10.294 15.168)" fill="#ffb27d"/>
    <path id="Path_17085" data-name="Path 17085" d="M87.724,62.323S85.615,70.6,79.883,73.247c0,0,5.732-5.084,6.219-10.545s1.622-.379,1.622-.379" transform="translate(14.776 11.13)" fill="#2b5c8b"/>
    <path id="Path_17086" data-name="Path 17086" d="M65.927,205.271a49.378,49.378,0,0,0,6.233,20.271l1.734,1.577s1.58-9.013,2.721-19.332c1.085-9.807,2.576-20.185,4.261-23.355,2.519-4.733,4.376-14.413,5.713-24.639,2.209-16.924,2.992-35.349,2.992-35.349l-20.339-1.01c-2.046,3.439-2.938,9.08-3.15,15.494a156.223,156.223,0,0,0,1.045,21.133c1.029,9.506,2.461,17.43,2.793,19.211l0,.008a1.05,1.05,0,0,1-.134.68c-4.048,8.012-4.632,17.176-3.871,25.31" transform="translate(12.142 22.832)" fill="#ffb27d"/>
    <path id="Path_17087" data-name="Path 17087" d="M100.763,115.189c-.316,4.137-1.87,9.7-7.83,10.572-2.109.308-3.618-1.595-4.689-4.764-1.4-4.138-2.049-10.433-2.306-16.761-.248-5.995-.146-12.024,0-16.282,2.446-.277,6.934-2.349,8.311-2.864.039.041.078.085.114.128s.056.07.081.1a1.639,1.639,0,0,1,.123.2c.595,1.129.683,7.467.978,13.449.256,5.235.672,10.2,1.722,11.171.478.437,3.409.451,3.409.451a23.574,23.574,0,0,1,.088,4.6" transform="translate(15.869 15.74)" fill="#69bbee"/>
    <path id="Path_17088" data-name="Path 17088" d="M85.914,102.446c.457,11.173,2.128,22.237,6.994,21.525,5.962-.871,7.515-6.436,7.833-10.574-1.465-.073-4.042-.43-5.066-1.992-1.467-2.236-6.041-16.63-6.041-16.63s-1.8,3.231-3.72,7.67" transform="translate(15.892 17.531)" fill="#3ca0d7"/>
    <path id="Path_17089" data-name="Path 17089" d="M98.024,114.133s-11.965,3-22.461-.494c0,0-5.763,12.236-7.348,17.48s-13.562,72.359-13.562,72.359,26.357,7.623,43.875,1.039c0,0,5.163-71.751,2.866-79.269s-3.37-11.115-3.37-11.115" transform="translate(10.109 21.02)" fill="#2b5c8b"/>
    <path id="Path_17090" data-name="Path 17090" d="M101.3,99.171c-.876,8.649-3.278,20.383-3.278,20.383A19.49,19.49,0,0,1,94,121.133c-9.3,2.526-18.437-2.071-18.437-2.071s-.014-.268-.037-.591c-.019-.268-.046-.568-.077-.79-.069-.489-2.275-5.74-2.275-5.74s-.084.409-.229,1.106c-.807,3.839-3.576,16.453-5.273,17.589-.984.656-4.131.666-7.084-.139-3.075-.835-5.937-2.556-5.937-5.354,0-3.581,6.513-19.777,11.205-30.873l0-.017c2.5-5.917,3.95-10.032,5.86-10.492,0,0,12.853,5.23,19.974,4.428,2.446-.276,6.934-2.342,8.311-2.856.039.041.078.085.114.129a1.1,1.1,0,0,1,.081.1c.028.039.053.077.076.115,1.043,1.537.878,4.086.931,5.059a44.541,44.541,0,0,1,.094,8.432" transform="translate(10.11 15.493)" fill="#69bbee"/>
    <path id="Path_17091" data-name="Path 17091" d="M70.284,109.969s2.206,5.266,2.275,5.758c.031.222.058.524.079.792a10.861,10.861,0,0,0,3.67,1.932c3.733,1.13,5.355-6.024,5.133-9.6s-5.5-13.762-7.263-13.973-3.9,15.088-3.9,15.088" transform="translate(13.001 17.55)" fill="#3ca0d7"/>
    <path id="Path_17092" data-name="Path 17092" d="M70.091,108.721c.145-.7.228-1.107.228-1.107a5.625,5.625,0,0,0-.228,1.107" transform="translate(12.965 19.906)" fill="#e58638"/>
    <path id="Path_17093" data-name="Path 17093" d="M85.159,116.806c6.815,0,9.519-1.913,9.726-2.073l.441-3.209c-.065.049-9.21,5.539-23.361.28l.3,2.432a35.467,35.467,0,0,0,12.894,2.57" transform="translate(13.312 20.629)" fill="#163560"/>
    <path id="Path_17094" data-name="Path 17094" d="M79.9,213.9h2.276c.762-.12,1.325-.341,2.107-.443a2.107,2.107,0,0,1,1.843.443.172.172,0,0,1,.021.023h9.669c.243-.347.009-1.152-.219-1.744a1.375,1.375,0,0,0-.905-.827,10.413,10.413,0,0,1-4.9-2.237c-1.042-.941-5.029-3.46-5.029-3.46l-.021,0c-.088,0-.5.13-2.318,1.661-.938.79-2.536-1.116-2.536-1.116a2.26,2.26,0,0,0-.525.711,2.411,2.411,0,0,0-.207,1.484,9.634,9.634,0,0,1-.692,3.586c-.226.664-.416,1.134-.416,1.134s-.109.546,1.85.792" transform="translate(14.437 38.039)" fill="#234662"/>
    <path id="Path_17095" data-name="Path 17095" d="M79.162,206.9a7.211,7.211,0,0,0,2.452,1.236c1.026.135,2.947-2.487,2.947-2.487l-.02,0c-.088,0-.5.13-2.319,1.661-.937.79-2.536-1.116-2.536-1.116a2.288,2.288,0,0,0-.524.711" transform="translate(14.643 38.039)" fill="#466aa5"/>
    <path id="Path_17096" data-name="Path 17096" d="M79.9,212.91h2.276c.762-.12,1.325-.341,2.107-.443a2.107,2.107,0,0,1,1.843.443.172.172,0,0,1,.021.023h9.669c.243-.347.009-1.152-.219-1.744-.294-.261-.377,1.134-.538,1.357s-7.888.081-8.334-.243a4.669,4.669,0,0,0-3.651-.447c-1.623.387-4.017-.607-4.608-.871-.226.664-.416,1.134-.416,1.134s-.109.546,1.85.792" transform="translate(14.437 39.027)" fill="#466aa5"/>
    <path id="Path_17097" data-name="Path 17097" d="M69.652,213.9h2.276c.761-.12,1.324-.341,2.107-.443a2.116,2.116,0,0,1,1.844.443.126.126,0,0,1,.019.023h9.671c.242-.347.008-1.152-.22-1.744a1.372,1.372,0,0,0-.905-.827,10.4,10.4,0,0,1-4.9-2.237c-1.043-.941-5.03-3.46-5.03-3.46l-.02,0c-.088,0-.506.13-2.319,1.661-.938.79-2.536-1.116-2.536-1.116a2.29,2.29,0,0,0-.524.711,2.4,2.4,0,0,0-.209,1.484,9.634,9.634,0,0,1-.692,3.586c-.225.664-.416,1.134-.416,1.134s-.107.546,1.851.792" transform="translate(12.541 38.039)" fill="#234662"/>
    <path id="Path_17098" data-name="Path 17098" d="M68.912,206.9a7.2,7.2,0,0,0,2.452,1.236c1.026.135,2.947-2.487,2.947-2.487l-.02,0c-.088,0-.5.13-2.319,1.661-.937.79-2.536-1.116-2.536-1.116a2.288,2.288,0,0,0-.524.711" transform="translate(12.747 38.039)" fill="#466aa5"/>
    <path id="Path_17099" data-name="Path 17099" d="M69.652,212.91h2.276c.761-.12,1.324-.341,2.107-.443a2.116,2.116,0,0,1,1.844.443.126.126,0,0,1,.019.023h9.671c.242-.347.008-1.152-.22-1.744-.294-.261-.374,1.134-.537,1.357s-7.89.081-8.335-.243a4.667,4.667,0,0,0-3.651-.447c-1.622.387-4.017-.607-4.608-.871-.225.664-.416,1.134-.416,1.134s-.107.546,1.851.792" transform="translate(12.541 39.027)" fill="#466aa5"/>
    <path id="Path_17100" data-name="Path 17100" d="M110.674,93.426l-.409,4.195a.359.359,0,0,1-.357.325h-7.477a.359.359,0,0,1-.355-.406l.55-4.195a.359.359,0,0,1,.357-.312h7.334a.359.359,0,0,1,.358.393" transform="translate(18.881 17.209)" fill="#d17a33"/>
    <path id="Path_17101" data-name="Path 17101" d="M80.968,141.9l-1.192-.09c.014-.025,2.333-20.852,1.652-29.5A84.372,84.372,0,0,0,72.961,82.73a.129.129,0,0,1,.092-.187l1.94-.347a.129.129,0,0,1,.137.069,75.056,75.056,0,0,1,3.121,8.066c1.584,4.727,4.1,12.582,4.493,21.386.389,8.694-1.718,30.081-1.777,30.187" transform="translate(13.493 15.204)" fill="#69bbee"/>
    <path id="Path_17102" data-name="Path 17102" d="M67.526,129.273s1.158-2.851,3-3.562l9.4,1.772s-2.321,2.209-2.539,3.649Z" transform="translate(12.491 23.253)" fill="#d2e4ff"/>
    <path id="Path_17103" data-name="Path 17103" d="M80.173,144.86,64.1,141.832a1.391,1.391,0,0,1-1.11-1.625L65,129.554a1.391,1.391,0,0,1,1.625-1.11L82.7,131.473a1.392,1.392,0,0,1,1.11,1.625L81.8,143.751a1.391,1.391,0,0,1-1.625,1.109" transform="translate(11.648 23.754)" fill="#4a92cb"/>
    <rect id="Rectangle_1759" data-name="Rectangle 1759" width="9.851" height="7.685" transform="translate(78.265 156.462) rotate(-89.496)" fill="#e58638"/>
    <rect id="Rectangle_1760" data-name="Rectangle 1760" width="9.851" height="7.685" transform="translate(77.825 156.458) rotate(-89.496)" fill="#ee9849"/>
    <rect id="Rectangle_1761" data-name="Rectangle 1761" width="9.851" height="7.685" transform="matrix(0.608, -0.794, 0.794, 0.608, 78.181, 155.712)" fill="#578e9b"/>
    <rect id="Rectangle_1762" data-name="Rectangle 1762" width="9.851" height="7.685" transform="matrix(0.608, -0.794, 0.794, 0.608, 77.499, 155.19)" fill="#74acbe"/>
    <path id="Path_17104" data-name="Path 17104" d="M76.8,144.217l-15.387-2.9a1.74,1.74,0,0,1-1.386-2.031l1.879-9.97a1.739,1.739,0,0,1,2.031-1.386l15.386,2.9a1.739,1.739,0,0,1,1.388,2.031l-1.879,9.97a1.74,1.74,0,0,1-2.031,1.386" transform="translate(11.097 23.658)" fill="#69bbee"/>
    <path id="Path_17105" data-name="Path 17105" d="M71.371,68.375s-4.919-9.791,1.955-13.662,11.9-2.35,15.687,2.383Z" transform="translate(12.887 9.714)" fill="#3ca0d7"/>
    <path id="Path_17106" data-name="Path 17106" d="M99.561,55.709c-1.415-2.267-6.365-1.9-12.338.545A49.279,49.279,0,0,0,79.9,60.04a47.21,47.21,0,0,0-7.931,6.129c-3.954,3.869-5.885,7.571-4.6,9.627a2.927,2.927,0,0,0,1.862,1.267c.876-1.886,3.39-3.653,4.1-5.123a22.444,22.444,0,0,1,8.208-8.749c3.577-2.232,7.135-3.544,9.584-3.7,1.423-.091,2.474.206,2.935.947a2.467,2.467,0,0,1-.05,2.266,11.009,11.009,0,0,1,1.071,2.512c3.874-3.823,5.751-7.471,4.482-9.5" transform="translate(12.389 10.025)" fill="#69bbee"/>
    <rect id="Rectangle_1763" data-name="Rectangle 1763" width="64.355" height="153.109" transform="translate(191.298 98.849)" fill="#69bbee"/>
    <path id="Path_17107" data-name="Path 17107" d="M164.688,130.66l-20.837,17.663h66.993l18.2-17.663Z" transform="translate(26.609 24.169)" fill="#76d1ff"/>
    <path id="Path_17108" data-name="Path 17108" d="M169.781,133.173l-13.812,11.71h44.409l12.064-11.71Z" transform="translate(28.85 24.634)" fill="#fff"/>
    <rect id="Rectangle_1764" data-name="Rectangle 1764" width="66.993" height="79.419" transform="translate(170.461 172.492)" fill="#69bbee"/>
    <path id="Path_17109" data-name="Path 17109" d="M218.586,83.419V139.4l-18.2,17.664v79.466h42.405V83.419Z" transform="translate(37.067 15.43)" fill="#4a92cb"/>
    <rect id="Rectangle_1765" data-name="Rectangle 1765" width="50.531" height="29.244" transform="translate(197.275 114.202)" fill="#4a92cb"/>
    <rect id="Rectangle_1766" data-name="Rectangle 1766" width="50.172" height="29.244" transform="translate(199.543 114.202)" fill="#fff"/>
    <rect id="Rectangle_1767" data-name="Rectangle 1767" width="17.075" height="2.551" transform="translate(176.348 178.577)" fill="#4a92cb"/>
    <rect id="Rectangle_1768" data-name="Rectangle 1768" width="17.075" height="2.551" transform="translate(213.056 178.577)" fill="#4a92cb"/>
    <rect id="Rectangle_1769" data-name="Rectangle 1769" width="109.399" height="0.404" transform="translate(170.46 228.141)" fill="#4a92cb"/>
    <rect id="Rectangle_1770" data-name="Rectangle 1770" width="109.399" height="0.404" transform="translate(170.46 187.055)" fill="#4a92cb"/>
    <path id="Path_17110" data-name="Path 17110" d="M110.579,93.743h-8.073l-.154,1.166h8.093Z" transform="translate(18.932 17.34)" fill="#163560"/>
    <path id="Path_17111" data-name="Path 17111" d="M110.655,94.67s-1.584-1.769-3.169-.417.1,4.239,1.479,5.028a11.147,11.147,0,0,1,1.815,1.2Z" transform="translate(19.764 17.34)" fill="#ffb27d"/>
    <path id="Path_17112" data-name="Path 17112" d="M212.107,40.089H235.4a.993.993,0,0,1,.991.991V51.155a.994.994,0,0,1-.991.992h-1.321V54.79l-4.12-2.642H212.107a.994.994,0,0,1-.991-.992V41.08a.993.993,0,0,1,.991-.991" transform="translate(39.051 7.415)" fill="#2b5c8b"/>
    <path id="Path_17113" data-name="Path 17113" d="M214.007,43.711h18.666a.661.661,0,0,0,0-1.321H214.007a.661.661,0,1,0,0,1.321" transform="translate(39.464 7.841)" fill="#fff"/>
    <path id="Path_17114" data-name="Path 17114" d="M214.007,45.732h18.666a.661.661,0,0,0,0-1.321H214.007a.661.661,0,1,0,0,1.321" transform="translate(39.464 8.215)" fill="#fff"/>
    <path id="Path_17115" data-name="Path 17115" d="M214.007,47.753h18.666a.661.661,0,0,0,0-1.321H214.007a.661.661,0,1,0,0,1.321" transform="translate(39.464 8.589)" fill="#fff"/>
    <path id="Path_17116" data-name="Path 17116" d="M181.391,103.215a.608.608,0,0,1,.46.162,1.4,1.4,0,0,1,.267.488l4.682,12.078a.388.388,0,0,1,.02.134.492.492,0,0,1-.153.364.5.5,0,0,1-.364.153h-1.376a.712.712,0,0,1-.534-.162.934.934,0,0,1-.21-.315l-.822-2.122h-6.039l-.824,2.122a.953.953,0,0,1-.21.315.713.713,0,0,1-.536.162h-1.376a.5.5,0,0,1-.364-.153.5.5,0,0,1-.152-.364.458.458,0,0,1,.018-.134l4.683-12.078a1.345,1.345,0,0,1,.269-.488.6.6,0,0,1,.457-.162Zm1.052,8.391-2.1-5.447-2.1,5.447Z" transform="translate(32.16 19.092)" fill="#2b5c8b"/>
    <path id="Path_17117" data-name="Path 17117" d="M194.193,103.215a.522.522,0,0,1,.517.517v1.357a.5.5,0,0,1-.153.363.492.492,0,0,1-.364.153h-3.44v10.474a.492.492,0,0,1-.153.363.5.5,0,0,1-.363.154h-1.549a.524.524,0,0,1-.517-.517V105.6h-3.44a.489.489,0,0,1-.363-.153.5.5,0,0,1-.153-.363v-1.357a.522.522,0,0,1,.515-.517Z" transform="translate(34.075 19.092)" fill="#2b5c8b"/>
    <path id="Path_17118" data-name="Path 17118" d="M200.955,110.039l3.63-6.308c.052-.064.137-.166.258-.306a.71.71,0,0,1,.565-.211h1.3a.522.522,0,0,1,.517.517v12.346a.522.522,0,0,1-.517.517h-1.549a.5.5,0,0,1-.363-.153.5.5,0,0,1-.152-.364v-7.471l-2.485,4.3a1.709,1.709,0,0,1-.268.315.618.618,0,0,1-.44.162h-1a.61.61,0,0,1-.437-.162,1.631,1.631,0,0,1-.269-.315l-2.484-4.3v7.471a.522.522,0,0,1-.517.517H195.2a.524.524,0,0,1-.517-.517V103.732a.524.524,0,0,1,.517-.517h1.3a.707.707,0,0,1,.564.211c.121.14.206.242.258.306Z" transform="translate(36.012 19.092)" fill="#2b5c8b"/>
    <path id="Path_17119" data-name="Path 17119" d="M218.441,102.529s-3.573-2.921-4.857-2.935-3.722-.658-3.626-.241,2.15.962,1.8,1.155-3.338-.61-4.172-.128-2.793,2.471-1.221,3.337,6.291,2.247,7.51,2.087,3.979-.353,3.979-.353Z" transform="translate(38.062 18.352)" fill="#ffb27d"/>
    <path id="Path_17120" data-name="Path 17120" d="M256.167,193.65l-3,12.621-4.489-.025-.165-12.6Z" transform="translate(45.969 35.82)" fill="#ffb27d"/>
    <path id="Path_17121" data-name="Path 17121" d="M224.959,194.364l-8.527,12.083-3.323-4.267,5.132-9.477Z" transform="translate(39.42 35.645)" fill="#ffb27d"/>
    <path id="Path_17122" data-name="Path 17122" d="M237.883,67.685v0a.608.608,0,0,1,.007-.092c.057-.629.129-1.25.213-1.87v0a40.984,40.984,0,0,1,1.076-5.337c.26-.933.542-1.8.847-2.586.046-.121.092-.233.136-.35l0,0a7.3,7.3,0,0,1,2.411-3.541,8.719,8.719,0,0,1,4.706-.9,2.2,2.2,0,0,0-.993-.47,7.275,7.275,0,0,1,2.6.678c11.2-4.316,12.966,12.18,12.729,16.014s3.767,5.084,9.595,8.1c11.122,5.761,12.1,13.477,12.1,13.477-.085.051-.178.11-.273.178-.552-.935-1.69-2.691-2.647-2.955a38.986,38.986,0,0,1,1.543,3.75c-1.4,1.071-3.327,2.691-5.407,4.506l0,0c-2.782,2.426-5.841,5.2-8.288,7.44a6.317,6.317,0,0,0-.293-2.429l-.467,2.814-.062.367c-1.562,1.435-2.791,2.58-3.415,3.165-.064.059-.121.114-.172.16-.182.169-.28.262-.28.262.09-.984-1.292-3.307-3.457-6.173-.148-.2-.3-.4-.465-.609-.7-.9-1.463-1.851-2.282-2.824-.3-.352-.594-.7-.9-1.061l0,0c-.246-.288-.5-.572-.751-.863l0,0c-.606-.688-1.23-1.379-1.864-2.069-1.644-1.791-3.363-3.554-5.042-5.156a51.2,51.2,0,0,0-6.694-5.579c-.071-.105-.141-.213-.205-.323a11.681,11.681,0,0,1-.917-1.89c-.079-.2-.154-.4-.223-.606a27.48,27.48,0,0,1-1.153-4.854,28.179,28.179,0,0,0,.8,4.946c.071.262.143.5.218.726v0a10.433,10.433,0,0,0,.5,1.258,6.955,6.955,0,0,1-.9-1.017,7.955,7.955,0,0,1-.506-.786c-1.871-3.261-2.275-8.481-1.82-13.5" transform="translate(43.971 9.71)" fill="#234662"/>
    <path id="Path_17123" data-name="Path 17123" d="M241.779,80.78c-.038.017,3.6,1.905,6.336,1.157,2.573-.7,4.254-4.038,4.219-4.045-1.089-.217-1.4-1.713-1.381-8.149l-.493.1-8.284,1.64s.188,2.607.194,5.063c.006,2.062-.12,4.017-.591,4.237" transform="translate(44.723 12.901)" fill="#ffb27d"/>
    <path id="Path_17124" data-name="Path 17124" d="M251.123,56.275a6.622,6.622,0,0,0-9.217-.223,35.889,35.889,0,0,1,9.217.223" transform="translate(44.746 10.039)" fill="#4189c4"/>
    <path id="Path_17125" data-name="Path 17125" d="M242.114,71.464s.188,2.607.194,5.063c4.636-.132,7.086-4.36,8.09-6.7Z" transform="translate(44.785 12.916)" fill="#ed975d"/>
    <path id="Path_17126" data-name="Path 17126" d="M252.068,71.72A24.357,24.357,0,0,0,255.08,64.6c.416-2.343-.777-11.029-9.506-9.777a11.842,11.842,0,0,0-4.918,1.859c-1.895,1.28-4.63,4.042-1.571,11.622l.794,2.56Z" transform="translate(43.971 10.118)" fill="#234662"/>
    <path id="Path_17127" data-name="Path 17127" d="M214.251,212.736l4.392.134,4.753.146A93.814,93.814,0,0,0,240.533,181.2c.143-.455.294-.916.455-1.383,3.37-9.827,10.357-22.163,14.038-33.327.587-1.779,1.113-3.452,1.584-5.036.152-.508.3-1.006.438-1.5a118.4,118.4,0,0,0,4.223-22.231l-26.586.212a495.675,495.675,0,0,1-20.435,94.8" transform="translate(39.631 21.776)" fill="#2b5c8b"/>
    <path id="Path_17128" data-name="Path 17128" d="M235.239,110.39c.066,12.652-1.857,18.08-1.857,18.08a35.727,35.727,0,0,0,24.913,1.525c.16-.05,8.969-2.223,8.969-2.223-.225-.512-2.319-9.141-2.539-9.611a30.512,30.512,0,0,1-3.052-10.954,40.1,40.1,0,0,1-.328-10.6,85.036,85.036,0,0,1,3.28-16.645,86.514,86.514,0,0,1-10.975-3.752c-.883,1.1-3.58,2.249-5.921,2.2-2.695-.059-3.568-1.213-3.428-2.473-2.872,1.6-5.164,3.108-5.164,3.108-2.441,4.24-7.391,8.356-7.75,14.861-.088,1.6,3.85,16.132,3.854,16.487" transform="translate(42.8 14.046)" fill="#4189c4"/>
    <path id="Path_17129" data-name="Path 17129" d="M241.378,76.06s10.968.181,10.975-6.651S253.781,58,246.779,57.6s-8.366,2.2-8.923,4.48.668,13.761,3.522,13.984" transform="translate(43.973 10.646)" fill="#ffb27d"/>
    <path id="Path_17130" data-name="Path 17130" d="M241.15,57.808s3,8.015,7.611,9.2,6.607-.05,6.607-.05-1.167-6.008-1.9-10.909c0,0-10.051-2.056-12.317,1.758" transform="translate(44.607 10.265)" fill="#234662"/>
    <path id="Path_17131" data-name="Path 17131" d="M242.645,58.2s-2.242,1.789-2.789,3.529-.793,5.322-1.837,5.2c0,0-2.262-5.449.281-8.529,2.7-3.268,4.345-.2,4.345-.2" transform="translate(43.856 10.524)" fill="#234662"/>
    <path id="Path_17132" data-name="Path 17132" d="M253.479,203.706a12.156,12.156,0,0,0,.57,5.175s.735,3.348-2.562,3.409-4.1-.249-3.732-2.3,1.083-5.6,1.083-5.6Z" transform="translate(45.813 37.68)" fill="#ffb27d"/>
    <path id="Path_17133" data-name="Path 17133" d="M247.374,213.484H254.6c.3-1.484-.358-4.652-.466-5.26-.008-.046-.015-.079-.021-.1a.33.33,0,0,0,0-.033c-3.73,3.42-6.067-.088-6.067-.088l-.007.018a22.05,22.05,0,0,0-.655,5.466" transform="translate(45.758 38.475)" fill="#234662"/>
    <path id="Path_17134" data-name="Path 17134" d="M206.405,210.88s6.078-6.746,7.944-10.179l4.52,2.315-10.1,9.488-2.363-.312Z" transform="translate(38.179 37.125)" fill="#ffb27d"/>
    <path id="Path_17135" data-name="Path 17135" d="M203.147,214.473h7.647c1.127,0,2.025-1.866,3.239-4.292a4.083,4.083,0,0,1,2.753-1.84l-.03,6.132h1.764l1.625-6.485c1.076-1.978.085-3.771-.672-5.334-.882,0-3.252.6-7.741,5.661a5.886,5.886,0,0,1-4.723,2.2.45.45,0,0,1-.066.036c-3.733,1.679-3.794,3.919-3.794,3.919" transform="translate(37.577 37.486)" fill="#234662"/>
    <path id="Path_17136" data-name="Path 17136" d="M217.956,209.865l4.753.146a93.814,93.814,0,0,0,17.137-31.818q.215-.683.455-1.383c3.37-9.827,10.358-22.163,14.04-33.327.585-1.779,1.112-3.453,1.584-5.037.15-.507.3-1,.438-1.5l-3.915-2.971s-11.755,19.035-15.394,36.948c-3.162,15.56-15.822,34.284-19.1,38.939" transform="translate(40.316 24.783)" fill="#234662"/>
    <path id="Path_17137" data-name="Path 17137" d="M247.127,173.383c-.068,8.711.373,28.739,1.507,37.029h4.21c2.327,0,3.489-.033,3.489-.033,2.845-14.415,4.87-26.344,6.344-36.623,1.21-8.435,2.285-15.667,3.111-21.892.833-6.264,1.411-11.51,1.619-15.941.031-.7.056-1.378.069-2.036s.017-1.307.011-1.932l-22.972-2.24c.289,15.262,2.65,38.6,2.613,43.668" transform="translate(45.229 23.994)" fill="#2b5c8b"/>
    <path id="Path_17138" data-name="Path 17138" d="M251.545,209.444c2.327,0,3.487-.033,3.487-.033,2.846-14.416,4.871-26.344,6.346-36.624,1.209-8.435,2.285-15.665,3.111-21.891.832-6.265,1.411-11.511,1.618-15.943l-8.429,4.959s5.38,1.9,3.327,16.266-6.6,51.231-9.46,53.266" transform="translate(46.529 24.963)" fill="#234662"/>
    <path id="Path_17139" data-name="Path 17139" d="M251.854,145.678s1.617,5.847,7.216,5.1,13.56-4.106,13.56-4.106-2.392-7.559-5.368-17.491c-3.6-12.023-4.5-28.922-6.6-38.7-.589-2.738-4.554-3.628-4.7-5.267L251.315,76.2s-6.925,15.543-7.3,19.462,7.837,50.013,7.837,50.013" transform="translate(45.135 14.096)" fill="#69bbee"/>
    <path id="Path_17140" data-name="Path 17140" d="M253.934,104.153c.25,6.344,2.469,17.167,11.389,21.924.034.019.071.036.107.051-3.6-12.024-3.556-23.56-5.657-33.336-4.794-1-5.975,7.867-5.838,11.36" transform="translate(46.969 17.15)" fill="#3ca0d7"/>
    <path id="Path_17141" data-name="Path 17141" d="M263.157,114.3s-4-.864-5.028.278-1.6,2.957-.578,3.594,4-1.113,5.072-.406c.766.506,1.008,1.792,1.777,1.341s1.581-3.395,1.581-3.395Z" transform="translate(47.541 21.085)" fill="#ffb27d"/>
    <path id="Path_17142" data-name="Path 17142" d="M250.174,76.2s10.793.474,13.388,2.883,18.127,21.024,18.384,25.9-13.608,18.743-13.608,18.743-3.851-.928-5.52-3.352c0,0,8.6-15.336,8.087-16.005s-15.084-12.608-16.278-9.96C253.6,96.7,250.174,76.2,250.174,76.2" transform="translate(46.276 14.096)" fill="#69bbee"/>
    <path id="Path_17143" data-name="Path 17143" d="M215.748,105.253s12.324,4.108,13.864,3.766,3.741-17.041,4.93-22.766c1.532-7.371,7.373-8.836,7.373-8.836l5.542-1.482s-6.346,15.676-6.532,18.848-.747,51.879-.747,51.879.373,2.238-3.919,1.306-5.412-1.866-5.412-1.866,1.86-13.615,2.735-25.7c-4.374-.748-18.435-7.873-18.435-7.873-2.182-3.427.6-7.272.6-7.272" transform="translate(39.643 14.046)" fill="#69bbee"/>
    <path id="Path_17144" data-name="Path 17144" d="M169.585,136.033h3.672l1.27-1.261H170.85Z" transform="translate(31.369 24.929)" fill="#69bbee"/>
    <path id="Path_17145" data-name="Path 17145" d="M165.784,139.819h3.658l1.26-1.251H167.04Z" transform="translate(30.666 25.632)" fill="#69bbee"/>
    <path id="Path_17146" data-name="Path 17146" d="M163.9,141.7h3.651l1.255-1.247h-3.656Z" transform="translate(30.316 25.98)" fill="#69bbee"/>
    <path id="Path_17147" data-name="Path 17147" d="M181.144,137.243h-1.927l1-.986h1.928Z" transform="translate(33.151 25.204)" fill="#69bbee"/>
    <path id="Path_17148" data-name="Path 17148" d="M179.662,138.721h-1.923l1-.984h1.924Z" transform="translate(32.877 25.478)" fill="#69bbee"/>
    <path id="Path_17149" data-name="Path 17149" d="M180.219,135.761H178.29l1-.989h1.931Z" transform="translate(32.979 24.929)" fill="#69bbee"/>
    <path id="Path_17150" data-name="Path 17150" d="M182.63,135.761H180.7l1-.989h1.932Z" transform="translate(33.425 24.929)" fill="#69bbee"/>
    <path id="Path_17151" data-name="Path 17151" d="M185,135.761H183.07l1.006-.989h1.932Z" transform="translate(33.863 24.929)" fill="#69bbee"/>
    <path id="Path_17152" data-name="Path 17152" d="M178.737,137.243H176.81l1-.986h1.928Z" transform="translate(32.705 25.204)" fill="#69bbee"/>
    <path id="Path_17153" data-name="Path 17153" d="M183.509,137.243h-1.927l1-.986h1.928Z" transform="translate(33.588 25.204)" fill="#69bbee"/>
    <path id="Path_17154" data-name="Path 17154" d="M177.258,138.721h-1.923l1-.984h1.924Z" transform="translate(32.433 25.478)" fill="#69bbee"/>
    <path id="Path_17155" data-name="Path 17155" d="M182.023,138.721H180.1l1-.984h1.926Z" transform="translate(33.314 25.478)" fill="#69bbee"/>
    <path id="Path_17156" data-name="Path 17156" d="M175.6,140.335H173.68l.993-.98h1.922Z" transform="translate(32.126 25.777)" fill="#69bbee"/>
    <path id="Path_17157" data-name="Path 17157" d="M178,140.335h-1.92l.994-.98H179Z" transform="translate(32.57 25.777)" fill="#69bbee"/>
    <path id="Path_17158" data-name="Path 17158" d="M176.584,141.727h-1.917l.992-.978h1.918Z" transform="translate(32.309 26.035)" fill="#69bbee"/>
    <path id="Path_17159" data-name="Path 17159" d="M180.357,140.335h-1.921l1-.98h1.922Z" transform="translate(33.006 25.777)" fill="#69bbee"/>
    <path id="Path_17160" data-name="Path 17160" d="M167.681,137.93h3.665l1.264-1.256h-3.669Z" transform="translate(31.017 25.281)" fill="#69bbee"/>
    <path id="Path_17161" data-name="Path 17161" d="M189.619,136.033h3.672l1.3-1.261h-3.677Z" transform="translate(35.075 24.929)" fill="#69bbee"/>
    <path id="Path_17162" data-name="Path 17162" d="M187.676,137.93h3.665l1.29-1.256h-3.669Z" transform="translate(34.715 25.281)" fill="#69bbee"/>
    <path id="Path_17163" data-name="Path 17163" d="M185.74,139.819H189.4l1.286-1.251h-3.662Z" transform="translate(34.357 25.632)" fill="#69bbee"/>
    <path id="Path_17164" data-name="Path 17164" d="M183.812,141.7h3.651l1.281-1.247h-3.656Z" transform="translate(34.001 25.98)" fill="#69bbee"/>
  </g>
</svg>
