<svg id="Group_2158" data-name="Group 2158" xmlns="http://www.w3.org/2000/svg" xmlns:xlink="http://www.w3.org/1999/xlink" width="391.542" height="242.257" viewBox="0 0 391.542 242.257">
  <defs>
    <clipPath id="clip-path">
      <rect id="Rectangle_1514" data-name="Rectangle 1514" width="391.542" height="242.257" fill="none"/>
    </clipPath>
    <clipPath id="clip-path-3">
      <rect id="Rectangle_1388" data-name="Rectangle 1388" width="35.334" height="43.349" fill="none"/>
    </clipPath>
    <clipPath id="clip-path-4">
      <rect id="Rectangle_1386" data-name="Rectangle 1386" width="18.677" height="36.892" fill="none"/>
    </clipPath>
    <clipPath id="clip-path-5">
      <rect id="Rectangle_1387" data-name="Rectangle 1387" width="35.334" height="41.086" fill="none"/>
    </clipPath>
    <clipPath id="clip-path-6">
      <rect id="Rectangle_1389" data-name="Rectangle 1389" width="80.491" height="59.414" fill="none"/>
    </clipPath>
    <clipPath id="clip-path-7">
      <rect id="Rectangle_1390" data-name="Rectangle 1390" width="62.766" height="41.669" fill="none"/>
    </clipPath>
  </defs>
  <g id="Group_2157" data-name="Group 2157" clip-path="url(#clip-path)">
    <g id="Group_2156" data-name="Group 2156">
      <g id="Group_2155" data-name="Group 2155" clip-path="url(#clip-path)">
        <path id="Path_16909" data-name="Path 16909" d="M372.9,242.257l-337.37-.117S-21.478,163.567,8.928,111,83.747,95.544,87.449,57.57c.127-1.286.026-2.558.026-3.8,0-.3,0-.587.019-.879,1.138-21.81,15.369-35.9,34.148-44.013q.909-.393,1.832-.765c29.947-12.136,70.44-9.639,88.365.795,30.5,17.754,30.31,39.123,93.291,32.075s74.993,51.9,58.6,81.927c-23.262,42.612,64.507,35.614,9.177,119.348" transform="translate(0 0)" fill="#dcf3fd"/>
        <path id="Path_16910" data-name="Path 16910" d="M183.437,88.594l-8.2-8.07L167.192,72.6a1.452,1.452,0,0,1-.339-1.405c.414-1.475,2.917-2.944,4.378-4.175l.147-.126a4.592,4.592,0,0,1,6.453.547l9.837,11.661h0l2.917,3.459a4.591,4.591,0,0,1-.548,6.452l-.147.127a4.6,4.6,0,0,1-6.454-.549" transform="translate(58.326 23.018)" fill="#ffae73"/>
        <path id="Path_16911" data-name="Path 16911" d="M209.193,50.425a3.747,3.747,0,0,1-3.342,2.932,34.849,34.849,0,0,1-17.414-2.066c-8.016.038-13.691-2.882-15.409-1.37-.063.054-.046.174.045.344,1.572,3.049,25.894,23.328,26.247,25.578.374,2.375-45.243,13.554-45.243,13.554s-6.739-4.2-14.286-9.716c-3.826-2.793-7.859-5.922-11.327-9.015-3.5-3.112-6.42-6.192-7.982-8.845l-.008-.018a10.962,10.962,0,0,1-.606-1.163c-.028-.061-.053-.115-.073-.165a22.316,22.316,0,0,0-5.666-7.539,50.959,50.959,0,0,0-14.16-8.626l33.5-17.874s30.757,3.613,35.676,6.6c7.171,4.354,22.188,7.546,25.077,9.233,2.145,1.251,13.447,5.31,14.272,5.673a2.84,2.84,0,0,1,.7,2.483" transform="translate(34.958 9.244)" fill="#ffae73"/>
        <path id="Path_16912" data-name="Path 16912" d="M135.164,28.254s-.008.067-.027.2h0a83.772,83.772,0,0,1-2.385,11.131v0c-.058.2-.116.4-.177.6h0l-.081.27v0c-1.935,6.4-5.082,13.5-9.938,16.356h0c-.278.165-.563.313-.852.449a9,9,0,0,1-2.112.687,8.666,8.666,0,0,1-1.678.162s-4.26-.512-10.631-1.288l-1.066-.132c-11.52-1.406-29.126-3.585-41.4-5.226,0-.3,0-.587.019-.879,1.138-21.81,15.369-35.9,34.148-44.013,9.973,5.964,19.317,11.563,26.013,15.577l.005,0,.016.009,1.25.749.026.015,8.876,5.325" transform="translate(22.664 2.3)" fill="#ff912b"/>
        <path id="Path_16913" data-name="Path 16913" d="M121.814,42.031a.389.389,0,0,1,.039.088c3.147,19.9,14.7,16.617,14.7,16.617l-.435,16.36c-3.828-2.794-7.859-5.924-11.327-9.016-3.5-3.112-6.42-6.192-7.982-8.845l-.009-.018c-.271-.494-.476-.887-.606-1.163-.027-.061-.051-.113-.072-.165a22.3,22.3,0,0,0-5.666-7.538c1.231-2.1,2.667-4.49,4.087-6.828a4.1,4.1,0,0,1,7.267.507" transform="translate(38.627 13.83)" fill="#fa9d65"/>
        <path id="Path_16914" data-name="Path 16914" d="M114.4,18.1S103.6,27.452,99.144,34.02l3.226,5.594L96.883,39.1s-2.8,10.142-1.278,13.567l14.963,1.408,17.249-27.6Z" transform="translate(33.274 6.331)" fill="#fc7600"/>
        <path id="Path_16915" data-name="Path 16915" d="M96.227,55.886c-.443-4.067,3.5-12.373,3.5-12.373L113,46.162,102.781,35.4c2.305-4.772,7.836-12.055,11.258-16.37,1.7-2.147,2.884-3.56,2.884-3.56,9.826,7.468,18.973,14.91,18.973,14.91-4.011,1.555-7.763,5.774-10.887,10.436a96.959,96.959,0,0,0-8.641,16.719c-7.963-.752-20.141-1.644-20.141-1.644" transform="translate(33.637 5.408)" fill="#d8e9ff"/>
        <path id="Path_16916" data-name="Path 16916" d="M96.227,54.964c-.443-4.067,3.5-12.373,3.5-12.373L113,45.239,102.781,34.474c2.305-4.772,7.836-12.055,11.258-16.37.175,11.9,10.97,21.785,10.97,21.785a96.959,96.959,0,0,0-8.641,16.719c-7.963-.752-20.141-1.644-20.141-1.644" transform="translate(33.637 6.331)" fill="#c5e0ff"/>
        <path id="Path_16917" data-name="Path 16917" d="M107.608,25.977a1.625,1.625,0,1,1-1.783,1.448,1.625,1.625,0,0,1,1.783-1.448" transform="translate(37.003 9.081)" fill="#ff912b"/>
        <rect id="Rectangle_1384" data-name="Rectangle 1384" width="99.266" height="45.601" transform="translate(163.826 72.777) rotate(-15.921)" fill="#6fa3b4"/>
        <rect id="Rectangle_1385" data-name="Rectangle 1385" width="99.266" height="45.6" transform="translate(169.011 70.049) rotate(-10.449)" fill="#99c5d3"/>
        <path id="Path_16918" data-name="Path 16918" d="M224.74,75.417l-4.165-22.586v-.008L218.523,41.7l-1.065.2-18.282,3.372h0l-.208.039-13.694,2.524-1.752.323h0l-14.682,2.709-38.6,7.118h-.008l-.026.007-.655.12h-.02l-.015,0-.983.181,1.483,8.045,1.736,9.406,3.747,20.32,21.093-3.89.939-.173,3.5-.645.779-.144,1.026-.189.938-.173,1.788-.331,4.365-.8,1.238-.228,1.718-.317,1.5-.275,8.761-1.617h0l1.779-.328,1.4-.259,12.128-2.236,10.9-2.008,3.983-.736,12.158-2.242Zm-5.423,3.535L199.6,82.588h0l-2.354.435h0L184.9,85.3l-1.146.212-8.7,1.6-2.753.507-1.768.327-1.263.233-4.118.759-1.7.313-1.034.193-.983.181-.787.143-3.485.644-.988.182-15.1,2.783a4.341,4.341,0,0,1-5.059-3.482l-2.359-12.8-2.438-13.222a4.344,4.344,0,0,1,3.482-5.06l35.628-6.569,16.681-3.076,4.75-.877h0l5.974-1.1.194-.038h0l15.01-2.767A4.342,4.342,0,0,1,218,47.875l4.8,26.017a4.341,4.341,0,0,1-3.484,5.06" transform="translate(44.946 14.583)" fill="#6fa3b4"/>
        <path id="Path_16919" data-name="Path 16919" d="M169.256,75.96a11.431,11.431,0,1,1,9.41-13.145,11.431,11.431,0,0,1-9.41,13.145" transform="translate(54.536 18.621)" fill="#6fa3b4"/>
        <path id="Path_16920" data-name="Path 16920" d="M149.434,70.292a4.22,4.22,0,1,1,3.474-4.852,4.219,4.219,0,0,1-3.474,4.852" transform="translate(50.539 21.649)" fill="#6fa3b4"/>
        <path id="Path_16921" data-name="Path 16921" d="M183.064,64.09a4.22,4.22,0,1,1,3.474-4.852,4.219,4.219,0,0,1-3.474,4.852" transform="translate(62.299 19.48)" fill="#6fa3b4"/>
        <path id="Path_16922" data-name="Path 16922" d="M157.456,87.086l-.36-.969-2.42-6.52a4.547,4.547,0,0,1-.142-.463,4.44,4.44,0,0,1,2.753-5.229l.25-.093a4.441,4.441,0,0,1,5.693,2.61l2.255,6.079.165.441.359.969A4.44,4.44,0,0,1,163.4,89.6l-.251.093a4.44,4.44,0,0,1-5.692-2.61" transform="translate(53.993 25.715)" fill="#ffae73"/>
        <path id="Path_16923" data-name="Path 16923" d="M156.913,81.347a25.871,25.871,0,0,1-1.259-4.11,1.735,1.735,0,0,1,.688-1.351,4.007,4.007,0,0,1,1.482-.806,4.617,4.617,0,0,1,.942-.215,3.936,3.936,0,0,1,1.119.045,1.119,1.119,0,0,1,.794.626l0,.005A25.551,25.551,0,0,1,162.2,79.5a1.713,1.713,0,0,1-.966,2.116l-.374.135-1.917.682a1.635,1.635,0,0,1-2.027-1.082" transform="translate(54.428 26.172)" fill="#ffd0b1"/>
        <path id="Path_16924" data-name="Path 16924" d="M156.913,81.176a25.871,25.871,0,0,1-1.259-4.11,1.735,1.735,0,0,1,.688-1.351c.128-.053.262-.1.406-.148a4.65,4.65,0,0,1,.943-.215,3.935,3.935,0,0,1,1.119.045,1.116,1.116,0,0,1,.794.626l0,0a25.619,25.619,0,0,1,1.516,3.956,1.874,1.874,0,0,1-.266,1.594l-1.917.682a1.635,1.635,0,0,1-2.027-1.082" transform="translate(54.428 26.343)" fill="#ffbd8f"/>
        <path id="Path_16925" data-name="Path 16925" d="M150.278,83.61l-1.325-5.024a2.879,2.879,0,0,1,2.042-3.509l.57-.15a2.88,2.88,0,0,1,3.508,2.043l1.325,5.024a2.879,2.879,0,0,1-2.043,3.509l-.568.15a2.879,2.879,0,0,1-3.508-2.043" transform="translate(52.054 26.168)" fill="#ffae73"/>
        <path id="Path_16926" data-name="Path 16926" d="M150.29,80.671a22.613,22.613,0,0,1-.7-3.463,1.689,1.689,0,0,1,1.1-1.359,3.36,3.36,0,0,1,.709-.252,3.394,3.394,0,0,1,.738-.105,2.841,2.841,0,0,1,.857.119.887.887,0,0,1,.568.571l0,0a22.467,22.467,0,0,1,.907,3.357,1.42,1.42,0,0,1-.879,1.667l-.452.126-1.359.375a1.272,1.272,0,0,1-1.487-1.038" transform="translate(52.309 26.398)" fill="#ffd0b1"/>
        <path id="Path_16927" data-name="Path 16927" d="M150.29,80.6a22.613,22.613,0,0,1-.7-3.463,1.689,1.689,0,0,1,1.1-1.359,3.181,3.181,0,0,1,.692-.1,2.882,2.882,0,0,1,.857.117.9.9,0,0,1,.568.572l0,0a22.465,22.465,0,0,1,.907,3.357,1.515,1.515,0,0,1-.576,1.531l-1.359.375A1.272,1.272,0,0,1,150.29,80.6" transform="translate(52.309 26.466)" fill="#ffbd8f"/>
        <path id="Path_16928" data-name="Path 16928" d="M164.263,87.1,164.227,87l-1.636-6.586a5.433,5.433,0,0,1,3.527-6.615l1.362-.379a5.039,5.039,0,0,1,6.049,3.575l.54,2.174,1.1,4.411a5.433,5.433,0,0,1-3.527,6.615l-1.362.381a5.028,5.028,0,0,1-6.013-3.467" transform="translate(56.795 25.613)" fill="#ffae73"/>
        <path id="Path_16929" data-name="Path 16929" d="M165.554,82.879l-1.414-3.2,0-.02a3.227,3.227,0,0,1-.077-.387c-.008-.053-.013-.108-.019-.162a.373.373,0,0,1,0-.067.508.508,0,0,1,.722-.435,3.18,3.18,0,0,0,2.164.2l.278-.074h.009l.908-.24a3.4,3.4,0,0,0,1.773-1.145c.054-.065.1-.132.153-.2a.917.917,0,0,1,1.63.281l.005.02.5,3.508a1.669,1.669,0,0,1-1.313,1.927l-1.034.274-2.207.582c-.869.228-1.849.015-2.077-.853" transform="translate(57.362 26.84)" fill="#ffd0b1"/>
        <path id="Path_16930" data-name="Path 16930" d="M165.554,82.727l-1.414-3.2,0-.02c-.013-.076-.051-.309-.1-.617a.508.508,0,0,1,.722-.435,3.18,3.18,0,0,0,2.164.2l.278-.074h.009l.908-.24a3.4,3.4,0,0,0,1.773-1.145.889.889,0,0,1,.354.506l.005.02.5,3.508A1.594,1.594,0,0,1,169.838,83l-2.207.582c-.869.228-1.849.015-2.077-.853" transform="translate(57.362 26.992)" fill="#ffbd8f"/>
        <path id="Path_16931" data-name="Path 16931" d="M148.836,41.057s-1.614-12.6,3.307-9.611c7.171,4.355,22.186,7.546,25.077,9.232,2.143,1.251,13.446,5.31,14.27,5.674a2.522,2.522,0,0,1,.379,2.9,6.979,6.979,0,0,1-3.539,3.4c-7.022,2.73-16.589-2.957-16.894-2.954-8.017.038-15.806-.857-18.07-.533-.79.112-4.531-8.109-4.531-8.109" transform="translate(51.958 10.836)" fill="#ffae73"/>
        <path id="Path_16932" data-name="Path 16932" d="M183.18,43.272l-7.935-2.886a4.089,4.089,0,0,0-.393,2.57c.379.992,7.73,2.739,8.328.316" transform="translate(61.107 14.123)" fill="#ffbd8f"/>
        <path id="Path_16933" data-name="Path 16933" d="M74.7,115.172l1.579,1.282s4.32-1.548,5.295,3.585c0,0,.259,2.188-1.127,2.192a27.485,27.485,0,0,0-2.776-.182c-1.962.058-3.589-.977-3.876-2.57l-.938-1.348Z" transform="translate(25.478 40.274)" fill="#f78840"/>
        <path id="Path_16934" data-name="Path 16934" d="M86.257,125.772a3.224,3.224,0,0,0,1.158-2.288s-14.589-11.943-16.068-12.917a180.191,180.191,0,0,1-16.774-16c-2.492-2.88-5.577-1.763-9.108-.75l-2.907.834c-3.511,1.008-4.423,5.918-1.543,8.3,8.112,6.72,21.607,14.278,24.132,15.867,6.269,3.942,18.539,8.629,18.539,8.629a7.786,7.786,0,0,0,2.57-1.683" transform="translate(13.744 32.428)" fill="#153d74"/>
        <path id="Path_16935" data-name="Path 16935" d="M87.634,171.581a11,11,0,0,0,8.966,1.251s4.373-1,5.333,1.185c0,0-6.708,3.408-8.406,4.339a20.343,20.343,0,0,0-3.558,2.668,1.759,1.759,0,0,1-2.547-.2c-.3-.362-.633-.795-1-1.3-1.035-1.4-3.444-5.929-3.444-5.929Z" transform="translate(29.015 60)" fill="#154276"/>
        <path id="Path_16936" data-name="Path 16936" d="M56.5,106.193a24.754,24.754,0,1,1,24.753,24.753A24.753,24.753,0,0,1,56.5,106.193" transform="translate(19.757 28.479)" fill="#ef7c00"/>
        <path id="Path_16937" data-name="Path 16937" d="M54.9,106.193a24.754,24.754,0,1,1,24.753,24.753A24.753,24.753,0,0,1,54.9,106.193" transform="translate(19.198 28.479)" fill="#ffc459"/>
        <path id="Path_16938" data-name="Path 16938" d="M79.083,128.394a22.552,22.552,0,1,1,15.948-6.605,22.407,22.407,0,0,1-15.948,6.605m0-43.761a21.208,21.208,0,1,0,21.208,21.208A21.232,21.232,0,0,0,79.083,84.633" transform="translate(19.768 29.125)" fill="#ff9f00"/>
        <path id="Path_16939" data-name="Path 16939" d="M78.9,110.858a3.741,3.741,0,0,0-.053-1.309,2.72,2.72,0,0,0-.555-1.088,5.142,5.142,0,0,0-1.107-.977,13.662,13.662,0,0,0-1.715-.961,35.406,35.406,0,0,1-3.169-1.741,11.207,11.207,0,0,1-2.37-1.929,6.592,6.592,0,0,1-1.4-2.35,7.445,7.445,0,0,1,.6-5.636,6.262,6.262,0,0,1,1.748-1.941,7.783,7.783,0,0,1,2.5-1.192,10.377,10.377,0,0,1,3.125-.36l.44-3.717,2.992.355L79.5,91.78a9.409,9.409,0,0,1,2.815,1.2A7.082,7.082,0,0,1,85.466,97.5a9.4,9.4,0,0,1,.124,3.195l-5.4-.641a4.584,4.584,0,0,0-.556-3.228A3.182,3.182,0,0,0,77.275,95.5a4.038,4.038,0,0,0-1.477.062,2.752,2.752,0,0,0-1.077.524,2.558,2.558,0,0,0-.694.9,3.766,3.766,0,0,0-.329,1.176,3.435,3.435,0,0,0,.049,1.186,2.565,2.565,0,0,0,.53,1.041,5.161,5.161,0,0,0,1.118.977,17.3,17.3,0,0,0,1.783,1.031q1.733.893,3.135,1.782a11.309,11.309,0,0,1,2.358,1.945,6.682,6.682,0,0,1,1.4,2.358,7.482,7.482,0,0,1-.615,5.67,6.217,6.217,0,0,1-1.755,1.923,7.543,7.543,0,0,1-2.516,1.146,11.264,11.264,0,0,1-3.141.332L75.633,121l-2.973-.352.408-3.439a12.632,12.632,0,0,1-2.921-1.034,8.006,8.006,0,0,1-2.393-1.807,7.173,7.173,0,0,1-1.5-2.689A8.732,8.732,0,0,1,66,108.024l5.4.641a5.377,5.377,0,0,0,.1,2.1,3.466,3.466,0,0,0,.768,1.429,3.381,3.381,0,0,0,1.236.852,5.778,5.778,0,0,0,1.482.378,4.833,4.833,0,0,0,1.57-.042,3.229,3.229,0,0,0,1.186-.494,2.567,2.567,0,0,0,.786-.866,3.129,3.129,0,0,0,.366-1.163" transform="translate(23.052 30.653)" fill="#ff9f00"/>
        <path id="Path_16940" data-name="Path 16940" d="M102.109,186.972s-2.155,4.971-7.132,4.057c0,0-10.155-8.386-17.121-17.1a38.708,38.708,0,0,1-5.32-8.314c-4.619-10.694-17.086-26.644-25.011-34.727l19.831-7.175s6.352,12.779,14.8,28.473c6.091,11.309,13.27,24.134,19.95,34.784" transform="translate(16.619 43.262)" fill="#2b5c8b"/>
        <path id="Path_16941" data-name="Path 16941" d="M82.16,152.188l-4.3,21.743a38.74,38.74,0,0,1-5.32-8.314c-4.619-10.695-17.086-26.644-25.012-34.729l19.832-7.174s6.352,12.778,14.8,28.473" transform="translate(16.619 43.262)" fill="#234662"/>
        <path id="Path_16942" data-name="Path 16942" d="M63.023,174.282s-.216,3.967,4.593,4.5c0,0,2.975.077,2.983,2.6l-14.481-.005s-.128-1.031-.227-3.212c-.076-1.675,1.624-6.053,1.624-6.053Z" transform="translate(19.544 60.184)" fill="#154276"/>
        <path id="Path_16943" data-name="Path 16943" d="M62.389,123.943s8.835,9.708,14.443,27.2c3.052,9.515-5.593,33.44-7.278,41.753,0,0-5.8.491-9.764-1.041,0,0-.3-17.169,2.018-30.4,1.3-7.406-11.633-15.839-17.283-29.221-3.844-9.1.833-8.948,6.578-9.167Z" transform="translate(15.08 43.034)" fill="#2b5c8b"/>
        <path id="Path_16944" data-name="Path 16944" d="M53.723,94.73c-4.916,2.775-14.979.216-14.979.216s4.087-4.673,2.23-12.2l3.86,1.96,4.145,2.105a34.222,34.222,0,0,1,.455,3.716c.047.614.09,1.3.119,2.052a12.881,12.881,0,0,1,4.171,2.147" transform="translate(13.548 28.937)" fill="#ffab70"/>
        <path id="Path_16945" data-name="Path 16945" d="M72.706,135.045c0,.864-.995,1.278-1.207,1.32-1.983.362-7.518,2.516-12.5,3.008a39.994,39.994,0,0,1-12.381-.837c-.567-.115-1.9-.474-1.992-1.016-.119-.594-16.52-33.437-3.77-47.545.3-.331,2.815.266,5.118.813a9.457,9.457,0,0,0,5.816-.475l2.16,1.135c2.651,1.477,7.666,6.725,8.253,10.842.3,2.095,1.5,3.646,1.841,5.488q.194,1.022.394,1.995.393,1.909.808,3.635c.749,3.115,1.541,5.8,2.319,8.112.826,2.459,1.639,4.505,2.363,6.215.939,2.22,1.734,3.878,2.23,5.148a6.335,6.335,0,0,1,.552,2.164" transform="translate(12.589 31.43)" fill="#69bbee"/>
        <path id="Path_16946" data-name="Path 16946" d="M70.863,129.993A64.443,64.443,0,0,1,39.692,98.139s18.811,6.939,23.451,8.746q.391,1.907.807,3.633c.75,3.115,1.541,5.8,2.319,8.112.827,2.459,1.639,4.505,2.363,6.217.941,2.219,1.734,3.876,2.231,5.146" transform="translate(13.88 34.318)" fill="#3ca0d7"/>
        <path id="Path_16947" data-name="Path 16947" d="M73.094,117.089l2,.734a4.279,4.279,0,0,1,6.5,1.773s.9,2.012-.526,2.45-.908.026-2.915.7-3.986.186-4.744-1.247l-1.359-1Z" transform="translate(25.195 40.9)" fill="#ffab70"/>
        <path id="Path_16948" data-name="Path 16948" d="M86.861,128.123c.74-1.93,1.077-2.8,1.077-2.8S72.821,113,71.281,111.939c-1.05-.719-11.5-8.531-16.594-14.618a10.663,10.663,0,0,0-10.366-3.592l-3.174.665a4.719,4.719,0,0,0-2.1,8.2c8.372,7.178,22.493,15.5,25.126,17.233,6.535,4.3,20.992,10.322,20.992,10.322a3.724,3.724,0,0,0,1.7-2.029" transform="translate(13.075 32.696)" fill="#69bbee"/>
        <path id="Path_16949" data-name="Path 16949" d="M48.731,90.022c-4.833.271-7.977-3.72-7.977-3.72a38.414,38.414,0,0,0,3.377-2.1l4.145,2.106a34.286,34.286,0,0,1,.455,3.716" transform="translate(14.251 29.444)" fill="#f78840"/>
        <path id="Path_16950" data-name="Path 16950" d="M51.966,88.032s-7.323,5.256-10.526.645-6.306-7.039-1.765-10.59,6.681-2.429,8.125-1.15,5.989,9.608,4.166,11.094" transform="translate(13.075 26.472)" fill="#ffab70"/>
        <path id="Path_16951" data-name="Path 16951" d="M50.286,74.314a11.828,11.828,0,0,0-.853-3.019s-.46,1.9-3.94,1.641-8.993.341-10.831,4.307c-.117.252-.221.512-.314.777a9.139,9.139,0,0,1-.413-2.2,6.766,6.766,0,0,0,0,3.841c-.009.062-.018.126-.027.188a7.747,7.747,0,0,0-1.413,2.667,2.423,2.423,0,0,1,1.3-1.157c-.015,3.085,1.236,6.1,3.432,7,3.211,1.313,3.185.312,6.415,2.454,0,0,.866-1.074.275-1.8s-2.824-1.772-1.575-2.822,1.706.131,2.166-.591-1.838-2.822,1.116-4.793,4.924-4.727,4.66-6.5" transform="translate(11.363 24.931)" fill="#234662"/>
        <path id="Path_16952" data-name="Path 16952" d="M246.707,112.36a2,2,0,0,1,.7,1.109,8.549,8.549,0,0,1-.051,2.2c-.1,1.522,2.01,3.76,3.372,4.538s0-3.241,0-4.214a5.8,5.8,0,0,0-.714-3.888c-1.1-2.2-3.305.259-3.305.259" transform="translate(86.271 38.88)" fill="#ffae73"/>
        <path id="Path_16953" data-name="Path 16953" d="M223.955,86.264A6.333,6.333,0,0,1,233.5,80.3c.09.054.18.111.267.167,6.568,4.227,19.182,21.42,21.05,24.842,1.946,3.565,4.52,18.786,4.52,18.786s-3.558,1.3-5.221-.049c0,0-5.566-13.2-7.611-15.465-2.154-2.386-22.09-13.406-22.279-18.082-.05-1.236-.15-2.722-.269-4.239" transform="translate(78.308 27.762)" fill="#234662"/>
        <path id="Path_16954" data-name="Path 16954" d="M255.82,170.331s2.648,2.417,2.131,4.134-2.906,2.861-3.23,4.96-1.614,3.245-2.776,3.245H246.4s-.856-1.478,1.211-1.923,2.846-2.911,2.717-5.2a40.5,40.5,0,0,1,.194-5.342l4.392-1.018Z" transform="translate(86.102 59.162)" fill="#194279"/>
        <path id="Path_16955" data-name="Path 16955" d="M233.295,175.217s.475,5.5-.687,6.072l-14.879-.03s0-1.718,2.389-2.1,6.589-1.782,7.3-4.9,5.878.954,5.878.954" transform="translate(76.137 60.527)" fill="#194279"/>
        <path id="Path_16956" data-name="Path 16956" d="M219.955,117.446s.784,9.641,1.707,21.231c1.254,15.743,2.761,35.08,2.91,38.744.258,6.361,1.293,16.536,1.293,16.536s2.452,2.417,7.364,1.4a164.251,164.251,0,0,0,5.624-29.894c.02-.252.039-.506.058-.76,1.163-15.646,2.971-48.592,2.971-48.592Z" transform="translate(76.916 40.602)" fill="#69bbee"/>
        <path id="Path_16957" data-name="Path 16957" d="M219.955,117.446s.784,9.641,1.707,21.231l17.191,26.785c.02-.252.039-.506.058-.76,1.163-15.646,2.971-48.592,2.971-48.592Z" transform="translate(76.916 40.602)" fill="#3ca0d7"/>
        <path id="Path_16958" data-name="Path 16958" d="M222.61,119.58S236.756,154.5,246.057,170.9s12.208,20.989,12.208,20.989,5.329-2.1,5.813-3.531c0,0-3.556-31.677-9.787-39.4-3.519-4.364-7.653-17.458-7.847-22.036s-1.259-13.643-1.259-13.643Z" transform="translate(77.844 39.614)" fill="#69bbee"/>
        <path id="Path_16959" data-name="Path 16959" d="M235.541,82.121s-9.477,4.806-15.029,3.2a12.218,12.218,0,0,1,2.154-2.06,3.046,3.046,0,0,0,1.181-2.9q-.083-.518-.14-.976a20.589,20.589,0,0,1-.231-3.22l3.573-2.7,3.446-2.848a14.113,14.113,0,0,0,5.046,11.5" transform="translate(77.111 24.696)" fill="#ffae73"/>
        <path id="Path_16960" data-name="Path 16960" d="M246.193,128.755A39.051,39.051,0,0,1,234.5,133.79c-5,1.185-11.147.835-13.2,1.149a.86.86,0,0,1-.6-.151c-.161-.084-1.069-6.183-1.977-13.882-.04-.31-.082-.624-.1-.937l-.013-.1c-.354-3.01-.663-6.171-.933-9.34-.219-2.466-.4-4.9-.524-7.2-.158-2.865-.224-5.5-.158-7.665.028-.989.086-1.879.174-2.652A18.784,18.784,0,0,1,221.614,82.9l2.335-1.873a8.132,8.132,0,0,0,5.4-1.5c2.047-1.347,4.256-2.8,4.673-2.555,3.137,1.717,5.69,6.164,7.514,12.037a66.957,66.957,0,0,1,2.362,11.279c.166,1.262.306,2.555.413,3.843.022.238.039.476.058.711.246,3.52.648,6.82,1.093,9.766.6,3.975,1.282,7.3,1.765,9.648.242,1.193.426,2.116.536,2.778.1.576-1.057,1.4-1.572,1.724" transform="translate(75.872 26.906)" fill="#2b5c8b"/>
        <path id="Path_16961" data-name="Path 16961" d="M229.87,72.913s-2.331,4.457-6.91,5.781a37.684,37.684,0,0,1-.293-6.08l3.635.162Z" transform="translate(77.858 25.392)" fill="#f99352"/>
        <path id="Path_16962" data-name="Path 16962" d="M220.893,77.012s8.564,3.5,10.657-1.776,4.608-8.38-.771-10.839-7.246-.864-8.38.727-3.679,10.841-1.506,11.888" transform="translate(76.947 22.074)" fill="#ffae73"/>
        <path id="Path_16963" data-name="Path 16963" d="M237.455,66.124c.1-.074.305-.105.725-.034a1.717,1.717,0,0,0-.723-.4,2.138,2.138,0,0,0-.961-2.164,1.274,1.274,0,0,1,.4,1.035c-.877-1.444-3.142-2.871-10.085-3.9-9.151-1.358-7.512,5.078-6.507,6.03s4.368-.252,6.495.418,1.821,3.9,2.456,4.5.522-.228,1.621-.449.814,1.45.279,2.456.509,2.734.509,2.734l1.724-1.17c1.724-1.17,4.476-7.174,4.157-8.661-.028-.131-.057-.265-.085-.4" transform="translate(76.757 21.149)" fill="#2a3967"/>
        <path id="Path_16964" data-name="Path 16964" d="M233.061,91.317s-7.722,5.875-15.907,7.163c-.157-2.865-.223-5.5-.157-7.665Z" transform="translate(75.872 31.757)" fill="#234662"/>
        <path id="Path_16965" data-name="Path 16965" d="M197.381,77.881c-.08-.161-.024-5.655-2.739-6.094-1.771-.287-6.36-1.512-6.317.953.018.968,5.76,6.946,5.76,6.946Z" transform="translate(65.855 24.908)" fill="#ffae73"/>
        <path id="Path_16966" data-name="Path 16966" d="M243.333,87.13a6.333,6.333,0,0,1-3.959,10.532c-.1.012-.209.022-.313.03-7.786.632-29.937-5.711-33-7.407-5.088-2.814-13.813-11.717-13.813-11.717s2.035-3.195,4.177-3.133c0,0,11.679,7.438,15.86,8.328,2.821.6,25.27-3.436,28.261.163.791.952,1.772,2.072,2.788,3.2" transform="translate(67.226 26.379)" fill="#2b5c8b"/>
        <path id="Path_16967" data-name="Path 16967" d="M249.746,113.094s.416.915.71,1.628.458,2.042.231,1.913a6.737,6.737,0,0,1-1.3-1.559c-.259-.483.356-1.981.356-1.981" transform="translate(87.186 39.548)" fill="#ffae73"/>
        <g id="Group_2148" data-name="Group 2148" transform="translate(130.948 136.1)" opacity="0.5">
          <g id="Group_2147" data-name="Group 2147">
            <g id="Group_2146" data-name="Group 2146" clip-path="url(#clip-path-3)">
              <g id="Group_2142" data-name="Group 2142" transform="translate(15.252)" opacity="0.5">
                <g id="Group_2141" data-name="Group 2141">
                  <g id="Group_2140" data-name="Group 2140" clip-path="url(#clip-path-4)">
                    <path id="Path_16968" data-name="Path 16968" d="M127,137.73s-2.693-22.556-14.25-36.015a2.523,2.523,0,0,0-4.427,1.707l0,.119c.15,4.023,13.089,21,18.673,34.189" transform="translate(-108.321 -100.838)" fill="#a8ccff"/>
                  </g>
                </g>
              </g>
              <g id="Group_2145" data-name="Group 2145" transform="translate(0 2.263)" opacity="0.5">
                <g id="Group_2144" data-name="Group 2144">
                  <g id="Group_2143" data-name="Group 2143" clip-path="url(#clip-path-5)">
                    <path id="Path_16969" data-name="Path 16969" d="M132.354,143.6s-11.517-28.192-31.189-40.661a2.676,2.676,0,0,0-3.628.686c-.524.763-.76,1.954-.171,3.813,1.567,4.959,23.506,21.65,34.988,36.162" transform="translate(-97.021 -102.515)" fill="#a8ccff"/>
                  </g>
                </g>
              </g>
            </g>
          </g>
        </g>
        <g id="Group_2151" data-name="Group 2151" transform="translate(105.056 175.941)" opacity="0.5">
          <g id="Group_2150" data-name="Group 2150">
            <g id="Group_2149" data-name="Group 2149" clip-path="url(#clip-path-6)">
              <path id="Path_16970" data-name="Path 16970" d="M77.98,142.561c1.132-11.75,20.685-11.464,20.685-11.464s16.215,17.47,20.04,17.3-10.947-17.643-10.947-17.643c7.136-1.937,27.137,3.813,27.137,3.813s2.73,23.135,6.395,22.03-3.462-20.361-3.462-20.361c7.379.912,15.324,7.989,15.324,7.989,10.46,11.947-5.422,24.763-5.422,24.763a37.883,37.883,0,0,0,7.587,16.288,27.528,27.528,0,0,1,3.011,4.169l-1.915.325c-.243-.486-.5-.953-.772-1.4l-.005-.008-.011-.019c-.182-.274-.441-.663-.764-1.135v0h0c-.78-1.046-1.319-1.825-1.672-2.392l0-.005c-2.363-3.3-5.684-7.549-7.535-8.245a3.71,3.71,0,0,0,.26-.947q-.124.453-.26.947c-2.081,7.578-18.265,11.534-27.71,11.215s-5.9-3.571-1.7-8.585,14.69-5.663,17.454-7.819-1.962-3.038-7.967-1.535-8.013,8.1-17.684,10.712-20.3-14.608-20.3-14.608c7.145.952,18.678-4.862,18.749-7.282s-17.91.879-20.839.653-8.8-5.006-7.665-16.756" transform="translate(-77.837 -130.356)" fill="#a8ccff"/>
            </g>
          </g>
        </g>
        <g id="Group_2154" data-name="Group 2154" transform="translate(231.684 173.747)" opacity="0.5">
          <g id="Group_2153" data-name="Group 2153">
            <g id="Group_2152" data-name="Group 2152" clip-path="url(#clip-path-7)">
              <path id="Path_16971" data-name="Path 16971" d="M234.42,140.733c.189-8.684-14.124-10.165-14.124-10.165s-13.358,11.364-16.138,10.91,9.523-11.946,9.523-11.946c-5.047-2.031-20.158.441-20.158.441s-4,16.669-6.577,15.544,4.289-14.578,4.289-14.578c-5.47.028-11.889,4.513-11.889,4.513-8.674,7.826,1.822,18.562,1.822,18.562a27.869,27.869,0,0,1-6.951,11.246,20.165,20.165,0,0,0-2.56,2.787l1.371.4c.22-.335.448-.655.684-.956l0-.005.011-.012c.157-.185.379-.445.656-.764h0c.66-.7,1.12-1.219,1.428-1.6l0,0c2.012-2.2,4.806-5.025,6.218-5.373a2.747,2.747,0,0,1-.108-.715c.035.228.07.466.108.715.867,5.717,12.351,10.007,19.28,10.588s4.624-2.1,1.985-6.126-10.244-5.408-12.078-7.221,1.7-2.052,5.955-.433,5.154,6.615,11.995,9.356,16.1-8.92,16.1-8.92c-5.3.08-13.228-5.167-13.07-6.94s13.012,2.189,15.171,2.278,6.862-2.9,7.049-11.582" transform="translate(-171.657 -128.731)" fill="#a8ccff"/>
            </g>
          </g>
        </g>
        <path id="Path_16972" data-name="Path 16972" d="M117.875,137.6v10.989a3.928,3.928,0,0,1-4,3.826h-8.233a3.928,3.928,0,0,1-4-3.826V137.6a3.927,3.927,0,0,1,4-3.825h8.233a3.927,3.927,0,0,1,4,3.825" transform="translate(35.543 46.781)" fill="#fc7600"/>
        <path id="Path_16973" data-name="Path 16973" d="M117.875,137.6v6.122a3.928,3.928,0,0,1-4,3.826h-8.233a3.928,3.928,0,0,1-4-3.826V137.6a3.927,3.927,0,0,1,4-3.825h8.233a3.927,3.927,0,0,1,4,3.825" transform="translate(35.543 46.781)" fill="#ff912b"/>
        <path id="Path_16974" data-name="Path 16974" d="M206.581,151.279a39,39,0,0,1-3.374,15.88c-6.516,14.666-21.746,25.019-39.385,25.019H151.6c-.734,0-1.46-.018-2.188-.053a43.684,43.684,0,0,1-23.9-8.5,42,42,0,0,1-10.71-11.58,39.115,39.115,0,0,1-2.587-36.649c6.512-14.664,21.745-25.018,39.383-25.018h12.223a43.2,43.2,0,0,1,37.4,21.143,39.177,39.177,0,0,1,5.356,19.755" transform="translate(38.061 38.599)" fill="#fc7600"/>
        <path id="Path_16975" data-name="Path 16975" d="M156,159.578l-3.988,24.771a3.057,3.057,0,0,0,3.058,3.8h10.48a6.042,6.042,0,0,0,5.335-3.111l16.289-31.081Z" transform="translate(53.119 53.836)" fill="#fc7600"/>
        <path id="Path_16976" data-name="Path 16976" d="M145.79,187.407H135.307a6.037,6.037,0,0,1-5.333-3.111L119.9,167.281l-6.639-11.211,32.391,3.193,1.17,8.9,1.047,7.981.98,7.46a3.058,3.058,0,0,1-3.057,3.8" transform="translate(39.605 54.576)" fill="#fc7600"/>
        <path id="Path_16977" data-name="Path 16977" d="M200.143,146.551c-8.63,23.74-16.8,36.432-49.878,37.538q-.964.032-1.9.057a220.047,220.047,0,0,1-22.852-.518c-1.487-.116-2.845-.243-4.071-.368L114.8,172.047a39.113,39.113,0,0,1-2.587-36.648c6.512-14.664,21.745-25.018,39.383-25.018h12.224a43.2,43.2,0,0,1,37.4,21.142,32.075,32.075,0,0,1-1.081,15.029" transform="translate(38.06 38.599)" fill="#ff912b"/>
        <path id="Path_16978" data-name="Path 16978" d="M141.939,124.8H125.122c-1.7,0-3.071-.985-3.071-2.2V100.641a1.709,1.709,0,0,1,.336-1.011,3.794,3.794,0,0,1,4.592-.741c6.384,3.462,16.847,10.985,18.022,23.566.121,1.271-1.286,2.35-3.062,2.35" transform="translate(42.68 34.423)" fill="#ff912b"/>
        <path id="Path_16979" data-name="Path 16979" d="M125.8,124.5h-.684c-1.7,0-3.071-.985-3.071-2.2V100.332a1.718,1.718,0,0,1,.336-1.011,2.16,2.16,0,0,1,.208.193,26.817,26.817,0,0,1,7.435,22.237c-.216,1.556-2.041,2.744-4.225,2.744" transform="translate(42.68 34.731)" fill="#fc7600"/>
        <path id="Path_16980" data-name="Path 16980" d="M118.265,129.473a2.508,2.508,0,1,1,2.505,2.4,2.453,2.453,0,0,1-2.505-2.4" transform="translate(41.356 44.437)" fill="#2b5c8b"/>
        <path id="Path_16981" data-name="Path 16981" d="M155.678,176.639V179.2a.874.874,0,0,0,.2.551,1.169,1.169,0,0,0,.552.37,1.242,1.242,0,0,0,.215.05,1.311,1.311,0,0,0,.208.016h48.585a1.111,1.111,0,0,0,1.174-.937c0-.016,0-.034,0-.05v-2.562c0-.018,0-.034,0-.051a1.11,1.11,0,0,0-1.174-.935H156.854a1.492,1.492,0,0,0-.208.015,1.248,1.248,0,0,0-.215.051,1.169,1.169,0,0,0-.552.37.872.872,0,0,0-.2.551" transform="translate(54.439 61.424)" fill="#ffc459"/>
        <path id="Path_16982" data-name="Path 16982" d="M173.354,180.187h26.029a1.029,1.029,0,0,0,1.049-.937v-2.663a1.029,1.029,0,0,0-1.049-.937H176.55a7.945,7.945,0,0,1-3.2,4.536" transform="translate(60.62 61.423)" fill="#fa0"/>
        <rect id="Rectangle_1391" data-name="Rectangle 1391" width="0.552" height="4.535" transform="translate(216.028 237.076)" fill="#ff9f00"/>
        <rect id="Rectangle_1392" data-name="Rectangle 1392" width="0.552" height="4.535" transform="translate(217.898 237.076)" fill="#ff9f00"/>
        <rect id="Rectangle_1393" data-name="Rectangle 1393" width="0.552" height="4.535" transform="translate(220.138 237.076)" fill="#ff9f00"/>
        <rect id="Rectangle_1394" data-name="Rectangle 1394" width="0.552" height="4.535" transform="translate(223.575 237.076)" fill="#ff9f00"/>
        <rect id="Rectangle_1395" data-name="Rectangle 1395" width="0.552" height="4.535" transform="translate(227.208 237.076)" fill="#ff9f00"/>
        <rect id="Rectangle_1396" data-name="Rectangle 1396" width="0.552" height="4.535" transform="translate(232.778 237.076)" fill="#ff9f00"/>
        <rect id="Rectangle_1397" data-name="Rectangle 1397" width="0.552" height="4.535" transform="translate(237.992 237.076)" fill="#ff9f00"/>
        <rect id="Rectangle_1398" data-name="Rectangle 1398" width="0.552" height="4.535" transform="translate(242.65 237.076)" fill="#ff9f00"/>
        <rect id="Rectangle_1399" data-name="Rectangle 1399" width="0.552" height="4.535" transform="translate(214.25 237.076)" fill="#ff9f00"/>
        <rect id="Rectangle_1400" data-name="Rectangle 1400" width="0.552" height="4.535" transform="translate(213.074 237.076)" fill="#ff9f00"/>
        <rect id="Rectangle_1401" data-name="Rectangle 1401" width="0.552" height="4.535" transform="translate(211.939 237.076)" fill="#ff9f00"/>
        <path id="Path_16983" data-name="Path 16983" d="M156.395,175.667v4.5a1.309,1.309,0,0,0,.208.016h.344v-4.536H156.6a1.309,1.309,0,0,0-.208.016" transform="translate(54.69 61.423)" fill="#ff9f00"/>
        <path id="Path_16984" data-name="Path 16984" d="M155.827,176.07v3.663a1.169,1.169,0,0,0,.552.37v-4.4a1.169,1.169,0,0,0-.552.37" transform="translate(54.491 61.44)" fill="#ff9f00"/>
        <path id="Path_16985" data-name="Path 16985" d="M159.526,173.278v2.562a.875.875,0,0,0,.2.551,1.169,1.169,0,0,0,.552.37,1.244,1.244,0,0,0,.215.05,1.311,1.311,0,0,0,.208.016h48.585a1.111,1.111,0,0,0,1.174-.937c0-.016,0-.034,0-.05v-2.562c0-.018,0-.034,0-.051a1.11,1.11,0,0,0-1.174-.935H160.7c-.031,0-.062,0-.093,0l-.039,0-.045.005-.031,0a1.247,1.247,0,0,0-.215.051l-.031.011-.03.011c-.019.007-.039.015-.059.024l-.034.015-.03.015-.055.03c-.02.012-.04.024-.059.038a.541.541,0,0,0-.046.031l0,0-.03.022a.9.9,0,0,0-.085.074.192.192,0,0,0-.024.023l-.023.023c-.015.018-.03.034-.043.051a.872.872,0,0,0-.2.551" transform="translate(55.784 60.248)" fill="#ffc459"/>
        <path id="Path_16986" data-name="Path 16986" d="M177.2,176.826h26.029a1.029,1.029,0,0,0,1.049-.937v-2.663a1.029,1.029,0,0,0-1.049-.937H180.4l-.032.112a7.933,7.933,0,0,1-3.165,4.424" transform="translate(61.966 60.248)" fill="#fa0"/>
        <rect id="Rectangle_1402" data-name="Rectangle 1402" width="0.552" height="4.535" transform="translate(221.223 232.539)" fill="#ff9f00"/>
        <rect id="Rectangle_1403" data-name="Rectangle 1403" width="0.552" height="4.535" transform="translate(223.093 232.539)" fill="#ff9f00"/>
        <rect id="Rectangle_1404" data-name="Rectangle 1404" width="0.552" height="4.535" transform="translate(225.333 232.539)" fill="#ff9f00"/>
        <rect id="Rectangle_1405" data-name="Rectangle 1405" width="0.552" height="4.535" transform="translate(228.77 232.539)" fill="#ff9f00"/>
        <rect id="Rectangle_1406" data-name="Rectangle 1406" width="0.552" height="4.535" transform="translate(232.403 232.539)" fill="#ff9f00"/>
        <rect id="Rectangle_1407" data-name="Rectangle 1407" width="0.552" height="4.535" transform="translate(237.972 232.539)" fill="#ff9f00"/>
        <rect id="Rectangle_1408" data-name="Rectangle 1408" width="0.552" height="4.535" transform="translate(243.187 232.539)" fill="#ff9f00"/>
        <rect id="Rectangle_1409" data-name="Rectangle 1409" width="0.552" height="4.535" transform="translate(247.843 232.539)" fill="#ff9f00"/>
        <rect id="Rectangle_1410" data-name="Rectangle 1410" width="0.552" height="4.535" transform="translate(219.443 232.539)" fill="#ff9f00"/>
        <rect id="Rectangle_1411" data-name="Rectangle 1411" width="0.552" height="4.535" transform="translate(218.269 232.539)" fill="#ff9f00"/>
        <rect id="Rectangle_1412" data-name="Rectangle 1412" width="0.552" height="4.535" transform="translate(217.134 232.539)" fill="#ff9f00"/>
        <path id="Path_16987" data-name="Path 16987" d="M160.244,172.306v4.5a1.312,1.312,0,0,0,.208.016h.344V172.29h-.344a1.312,1.312,0,0,0-.208.016" transform="translate(56.036 60.248)" fill="#ff9f00"/>
        <path id="Path_16988" data-name="Path 16988" d="M159.676,172.709v3.663a1.169,1.169,0,0,0,.552.37v-4.4a1.169,1.169,0,0,0-.552.37" transform="translate(55.837 60.265)" fill="#ff9f00"/>
        <path id="Path_16989" data-name="Path 16989" d="M157.667,170v2.562a.873.873,0,0,0,.2.551,1.167,1.167,0,0,0,.553.37,1.2,1.2,0,0,0,.213.05,1.322,1.322,0,0,0,.208.016h48.586a1.352,1.352,0,0,0,.541-.112,1.013,1.013,0,0,0,.629-.78.244.244,0,0,0,0-.045l0-.05V170l0-.051a1.108,1.108,0,0,0-1.173-.935H158.841a1.505,1.505,0,0,0-.208.015,1.2,1.2,0,0,0-.213.051,1.166,1.166,0,0,0-.553.37.873.873,0,0,0-.2.551" transform="translate(55.134 59.102)" fill="#ffc459"/>
        <path id="Path_16990" data-name="Path 16990" d="M175.343,173.548h26.029a1.087,1.087,0,0,0,.483-.112.992.992,0,0,0,.561-.78l0-.045v-2.663a1.029,1.029,0,0,0-1.049-.937H178.539a7.956,7.956,0,0,1-3.037,4.424l-.159.112" transform="translate(61.315 59.102)" fill="#fa0"/>
        <rect id="Rectangle_1413" data-name="Rectangle 1413" width="0.552" height="4.535" transform="translate(218.713 228.116)" fill="#ff9f00"/>
        <rect id="Rectangle_1414" data-name="Rectangle 1414" width="0.552" height="4.535" transform="translate(220.582 228.116)" fill="#ff9f00"/>
        <rect id="Rectangle_1415" data-name="Rectangle 1415" width="0.552" height="4.535" transform="translate(222.823 228.116)" fill="#ff9f00"/>
        <rect id="Rectangle_1416" data-name="Rectangle 1416" width="0.552" height="4.535" transform="translate(226.259 228.116)" fill="#ff9f00"/>
        <rect id="Rectangle_1417" data-name="Rectangle 1417" width="0.552" height="4.535" transform="translate(229.893 228.116)" fill="#ff9f00"/>
        <rect id="Rectangle_1418" data-name="Rectangle 1418" width="0.552" height="4.535" transform="translate(235.461 228.116)" fill="#ff9f00"/>
        <rect id="Rectangle_1419" data-name="Rectangle 1419" width="0.552" height="4.535" transform="translate(240.677 228.116)" fill="#ff9f00"/>
        <rect id="Rectangle_1420" data-name="Rectangle 1420" width="0.552" height="4.535" transform="translate(245.333 228.116)" fill="#ff9f00"/>
        <rect id="Rectangle_1421" data-name="Rectangle 1421" width="0.552" height="4.535" transform="translate(216.933 228.116)" fill="#ff9f00"/>
        <rect id="Rectangle_1422" data-name="Rectangle 1422" width="0.552" height="4.535" transform="translate(215.759 228.116)" fill="#ff9f00"/>
        <rect id="Rectangle_1423" data-name="Rectangle 1423" width="0.552" height="4.535" transform="translate(214.623 228.116)" fill="#ff9f00"/>
        <path id="Path_16991" data-name="Path 16991" d="M158.384,169.029v4.5a1.309,1.309,0,0,0,.208.016h.344v-4.536h-.344a1.309,1.309,0,0,0-.208.016" transform="translate(55.385 59.102)" fill="#ff9f00"/>
        <path id="Path_16992" data-name="Path 16992" d="M157.816,169.432V173.1a1.177,1.177,0,0,0,.552.368v-4.4a1.169,1.169,0,0,0-.552.37" transform="translate(55.186 59.119)" fill="#ff9f00"/>
        <path id="Path_16993" data-name="Path 16993" d="M156.8,166.64V169.2a.874.874,0,0,0,.2.551,1.169,1.169,0,0,0,.552.37,1.243,1.243,0,0,0,.215.05,1.309,1.309,0,0,0,.208.016h48.585a1.111,1.111,0,0,0,1.174-.937c0-.016,0-.034,0-.05V166.64c0-.018,0-.034,0-.051a1.083,1.083,0,0,0-1.035-.929,1.183,1.183,0,0,0-.139-.007H157.98a1.49,1.49,0,0,0-.208.015,1.242,1.242,0,0,0-.215.051,1.169,1.169,0,0,0-.552.37.872.872,0,0,0-.2.551" transform="translate(54.833 57.927)" fill="#ffc459"/>
        <path id="Path_16994" data-name="Path 16994" d="M174.481,170.188H200.51a1.029,1.029,0,0,0,1.049-.937v-2.663a1.018,1.018,0,0,0-.925-.929.944.944,0,0,0-.124-.007H177.677v.007a7.953,7.953,0,0,1-3.195,4.528" transform="translate(61.014 57.927)" fill="#fa0"/>
        <rect id="Rectangle_1424" data-name="Rectangle 1424" width="0.552" height="4.536" transform="translate(217.548 223.579)" fill="#ff9f00"/>
        <rect id="Rectangle_1425" data-name="Rectangle 1425" width="0.552" height="4.536" transform="translate(219.418 223.579)" fill="#ff9f00"/>
        <rect id="Rectangle_1426" data-name="Rectangle 1426" width="0.552" height="4.536" transform="translate(221.659 223.579)" fill="#ff9f00"/>
        <rect id="Rectangle_1427" data-name="Rectangle 1427" width="0.552" height="4.536" transform="translate(225.096 223.579)" fill="#ff9f00"/>
        <rect id="Rectangle_1428" data-name="Rectangle 1428" width="0.552" height="4.536" transform="translate(228.728 223.579)" fill="#ff9f00"/>
        <rect id="Rectangle_1429" data-name="Rectangle 1429" width="0.552" height="4.536" transform="translate(234.298 223.579)" fill="#ff9f00"/>
        <rect id="Rectangle_1430" data-name="Rectangle 1430" width="0.552" height="4.536" transform="translate(239.513 223.579)" fill="#ff9f00"/>
        <rect id="Rectangle_1431" data-name="Rectangle 1431" width="0.552" height="4.536" transform="translate(244.169 223.579)" fill="#ff9f00"/>
        <rect id="Rectangle_1432" data-name="Rectangle 1432" width="0.552" height="4.536" transform="translate(215.769 223.579)" fill="#ff9f00"/>
        <rect id="Rectangle_1433" data-name="Rectangle 1433" width="0.552" height="4.536" transform="translate(214.594 223.579)" fill="#ff9f00"/>
        <rect id="Rectangle_1434" data-name="Rectangle 1434" width="0.552" height="4.536" transform="translate(213.459 223.579)" fill="#ff9f00"/>
        <path id="Path_16995" data-name="Path 16995" d="M157.522,165.668v4.5a1.309,1.309,0,0,0,.208.016h.344v-4.536h-.344a1.309,1.309,0,0,0-.208.016" transform="translate(55.084 57.927)" fill="#ff9f00"/>
        <path id="Path_16996" data-name="Path 16996" d="M156.954,166.071v3.663a1.162,1.162,0,0,0,.552.37v-4.4a1.162,1.162,0,0,0-.552.37" transform="translate(54.885 57.944)" fill="#ff9f00"/>
        <path id="Path_16997" data-name="Path 16997" d="M159.451,163.284v2.562a.874.874,0,0,0,.2.551,1.169,1.169,0,0,0,.552.37,1.244,1.244,0,0,0,.215.05l.069.009.038,0,.039,0h48.647a1.111,1.111,0,0,0,1.174-.937c0-.016,0-.034,0-.05v-2.562c0-.018,0-.034,0-.051l0-.04a1.066,1.066,0,0,0-.881-.865l-.036-.007a1.408,1.408,0,0,0-.254-.023H160.627l-.105,0-.047.005-.055.007a1.246,1.246,0,0,0-.215.051,1.169,1.169,0,0,0-.552.37.872.872,0,0,0-.2.551" transform="translate(55.758 56.753)" fill="#ffc459"/>
        <path id="Path_16998" data-name="Path 16998" d="M177.127,166.833h26.029a1.029,1.029,0,0,0,1.049-.937v-2.663l0-.04a1.012,1.012,0,0,0-.814-.871l-.045-.009a1.208,1.208,0,0,0-.186-.016H180.323l-.008.032a7.95,7.95,0,0,1-3.177,4.5l-.011.007" transform="translate(61.939 56.753)" fill="#fa0"/>
        <rect id="Rectangle_1435" data-name="Rectangle 1435" width="0.552" height="4.535" transform="translate(221.121 219.052)" fill="#ff9f00"/>
        <rect id="Rectangle_1436" data-name="Rectangle 1436" width="0.552" height="4.535" transform="translate(222.99 219.052)" fill="#ff9f00"/>
        <rect id="Rectangle_1437" data-name="Rectangle 1437" width="0.552" height="4.535" transform="translate(225.232 219.052)" fill="#ff9f00"/>
        <rect id="Rectangle_1438" data-name="Rectangle 1438" width="0.552" height="4.535" transform="translate(228.667 219.052)" fill="#ff9f00"/>
        <rect id="Rectangle_1439" data-name="Rectangle 1439" width="0.552" height="4.535" transform="translate(232.3 219.052)" fill="#ff9f00"/>
        <rect id="Rectangle_1440" data-name="Rectangle 1440" width="0.552" height="4.535" transform="translate(237.87 219.052)" fill="#ff9f00"/>
        <rect id="Rectangle_1441" data-name="Rectangle 1441" width="0.552" height="4.535" transform="translate(243.086 219.052)" fill="#ff9f00"/>
        <rect id="Rectangle_1442" data-name="Rectangle 1442" width="0.552" height="4.535" transform="translate(247.742 219.052)" fill="#ff9f00"/>
        <rect id="Rectangle_1443" data-name="Rectangle 1443" width="0.552" height="4.535" transform="translate(219.342 219.052)" fill="#ff9f00"/>
        <rect id="Rectangle_1444" data-name="Rectangle 1444" width="0.552" height="4.535" transform="translate(218.166 219.052)" fill="#ff9f00"/>
        <rect id="Rectangle_1445" data-name="Rectangle 1445" width="0.552" height="4.535" transform="translate(217.031 219.052)" fill="#ff9f00"/>
        <path id="Path_16999" data-name="Path 16999" d="M160.168,162.313v4.5a1.307,1.307,0,0,0,.208.016h.344V162.3h-.344a1.307,1.307,0,0,0-.208.016" transform="translate(56.009 56.753)" fill="#ff9f00"/>
        <path id="Path_17000" data-name="Path 17000" d="M159.6,162.716v3.663a1.169,1.169,0,0,0,.552.37v-4.4a1.169,1.169,0,0,0-.552.37" transform="translate(55.81 56.771)" fill="#ff9f00"/>
        <path id="Path_17001" data-name="Path 17001" d="M159.526,159.948v2.562a.875.875,0,0,0,.2.551,1.224,1.224,0,0,0,.719.412h0a.3.3,0,0,0,.046.008,1.309,1.309,0,0,0,.208.016h48.585a1.428,1.428,0,0,0,.153-.008l.058-.008a1.069,1.069,0,0,0,.964-.92c0-.016,0-.034,0-.05v-2.562c0-.018,0-.034,0-.051a1.11,1.11,0,0,0-1.174-.935H160.7c-.031,0-.062,0-.093,0l-.039,0-.045.005-.031,0a1.244,1.244,0,0,0-.215.051l-.031.011-.03.011a.55.55,0,0,0-.059.024l-.063.03-.055.03c-.02.012-.04.024-.059.038a.541.541,0,0,0-.046.031l0,0-.03.022a.9.9,0,0,0-.085.074.191.191,0,0,0-.024.023l-.023.023c-.015.018-.03.034-.043.051a.872.872,0,0,0-.2.551" transform="translate(55.784 55.587)" fill="#ffc459"/>
        <path id="Path_17002" data-name="Path 17002" d="M177.2,163.5h26.091l.066-.007a1.019,1.019,0,0,0,.92-.929V159.9a1.029,1.029,0,0,0-1.049-.937H180.4l-.032.112a7.935,7.935,0,0,1-3.118,4.392l-.047.032" transform="translate(61.966 55.587)" fill="#fa0"/>
        <rect id="Rectangle_1446" data-name="Rectangle 1446" width="0.552" height="4.535" transform="translate(221.223 214.548)" fill="#ff9f00"/>
        <rect id="Rectangle_1447" data-name="Rectangle 1447" width="0.552" height="4.535" transform="translate(223.093 214.548)" fill="#ff9f00"/>
        <rect id="Rectangle_1448" data-name="Rectangle 1448" width="0.552" height="4.535" transform="translate(225.333 214.548)" fill="#ff9f00"/>
        <rect id="Rectangle_1449" data-name="Rectangle 1449" width="0.552" height="4.535" transform="translate(228.77 214.548)" fill="#ff9f00"/>
        <rect id="Rectangle_1450" data-name="Rectangle 1450" width="0.552" height="4.535" transform="translate(232.403 214.548)" fill="#ff9f00"/>
        <rect id="Rectangle_1451" data-name="Rectangle 1451" width="0.552" height="4.535" transform="translate(237.972 214.548)" fill="#ff9f00"/>
        <rect id="Rectangle_1452" data-name="Rectangle 1452" width="0.552" height="4.535" transform="translate(243.187 214.548)" fill="#ff9f00"/>
        <rect id="Rectangle_1453" data-name="Rectangle 1453" width="0.552" height="4.535" transform="translate(247.843 214.548)" fill="#ff9f00"/>
        <rect id="Rectangle_1454" data-name="Rectangle 1454" width="0.552" height="4.535" transform="translate(219.443 214.548)" fill="#ff9f00"/>
        <rect id="Rectangle_1455" data-name="Rectangle 1455" width="0.552" height="4.535" transform="translate(218.269 214.548)" fill="#ff9f00"/>
        <rect id="Rectangle_1456" data-name="Rectangle 1456" width="0.552" height="4.535" transform="translate(217.134 214.548)" fill="#ff9f00"/>
        <path id="Path_17003" data-name="Path 17003" d="M160.244,158.976v4.5a1.309,1.309,0,0,0,.208.016h.344V158.96h-.344a1.309,1.309,0,0,0-.208.016" transform="translate(56.036 55.587)" fill="#ff9f00"/>
        <path id="Path_17004" data-name="Path 17004" d="M159.676,159.379v3.663a1.169,1.169,0,0,0,.552.37v-4.4a1.169,1.169,0,0,0-.552.37" transform="translate(55.837 55.604)" fill="#ff9f00"/>
        <path id="Path_17005" data-name="Path 17005" d="M157.667,156.67v2.562a.873.873,0,0,0,.2.551,1.167,1.167,0,0,0,.553.37,1.2,1.2,0,0,0,.213.05,1.322,1.322,0,0,0,.208.016h48.586a1.352,1.352,0,0,0,.541-.112,1.013,1.013,0,0,0,.629-.78.244.244,0,0,0,0-.045l0-.05V156.67l0-.051a1.108,1.108,0,0,0-1.173-.935H158.841a1.505,1.505,0,0,0-.208.015,1.2,1.2,0,0,0-.213.051,1.167,1.167,0,0,0-.553.37.87.87,0,0,0-.2.551" transform="translate(55.134 54.441)" fill="#ffc459"/>
        <path id="Path_17006" data-name="Path 17006" d="M175.343,160.218h26.029a1.087,1.087,0,0,0,.483-.112.993.993,0,0,0,.561-.78l0-.045v-2.663a1.029,1.029,0,0,0-1.049-.937H178.539a7.956,7.956,0,0,1-3.037,4.424l-.159.112" transform="translate(61.315 54.44)" fill="#fa0"/>
        <rect id="Rectangle_1457" data-name="Rectangle 1457" width="0.552" height="4.535" transform="translate(218.713 210.124)" fill="#ff9f00"/>
        <rect id="Rectangle_1458" data-name="Rectangle 1458" width="0.552" height="4.535" transform="translate(220.582 210.124)" fill="#ff9f00"/>
        <rect id="Rectangle_1459" data-name="Rectangle 1459" width="0.552" height="4.535" transform="translate(222.823 210.124)" fill="#ff9f00"/>
        <rect id="Rectangle_1460" data-name="Rectangle 1460" width="0.552" height="4.535" transform="translate(226.259 210.124)" fill="#ff9f00"/>
        <rect id="Rectangle_1461" data-name="Rectangle 1461" width="0.552" height="4.535" transform="translate(229.893 210.124)" fill="#ff9f00"/>
        <rect id="Rectangle_1462" data-name="Rectangle 1462" width="0.552" height="4.535" transform="translate(235.461 210.124)" fill="#ff9f00"/>
        <rect id="Rectangle_1463" data-name="Rectangle 1463" width="0.552" height="4.535" transform="translate(240.677 210.124)" fill="#ff9f00"/>
        <rect id="Rectangle_1464" data-name="Rectangle 1464" width="0.552" height="4.535" transform="translate(245.333 210.124)" fill="#ff9f00"/>
        <rect id="Rectangle_1465" data-name="Rectangle 1465" width="0.552" height="4.535" transform="translate(216.933 210.124)" fill="#ff9f00"/>
        <rect id="Rectangle_1466" data-name="Rectangle 1466" width="0.552" height="4.535" transform="translate(215.759 210.124)" fill="#ff9f00"/>
        <rect id="Rectangle_1467" data-name="Rectangle 1467" width="0.552" height="4.535" transform="translate(214.623 210.124)" fill="#ff9f00"/>
        <path id="Path_17007" data-name="Path 17007" d="M158.384,155.7v4.5a1.312,1.312,0,0,0,.208.016h.344v-4.536h-.344a1.309,1.309,0,0,0-.208.016" transform="translate(55.385 54.441)" fill="#ff9f00"/>
        <path id="Path_17008" data-name="Path 17008" d="M157.816,156.1v3.663a1.169,1.169,0,0,0,.552.37v-4.4a1.169,1.169,0,0,0-.552.37" transform="translate(55.186 54.458)" fill="#ff9f00"/>
        <path id="Path_17009" data-name="Path 17009" d="M154.725,153.31v2.562a.875.875,0,0,0,.2.551,1.169,1.169,0,0,0,.552.37,1.243,1.243,0,0,0,.215.05,1.311,1.311,0,0,0,.208.016h48.585a1.111,1.111,0,0,0,1.174-.937v-2.663a1.084,1.084,0,0,0-1.035-.929,1.187,1.187,0,0,0-.139-.007H155.9a1.49,1.49,0,0,0-.208.015,1.244,1.244,0,0,0-.215.051,1.169,1.169,0,0,0-.552.37.875.875,0,0,0-.2.551" transform="translate(54.106 53.266)" fill="#ffc459"/>
        <path id="Path_17010" data-name="Path 17010" d="M172.4,156.858H198.43a1.029,1.029,0,0,0,1.049-.937v-2.663a1.018,1.018,0,0,0-.925-.929.946.946,0,0,0-.124-.007H175.6v.007a7.949,7.949,0,0,1-3.195,4.528" transform="translate(60.287 53.266)" fill="#fa0"/>
        <rect id="Rectangle_1468" data-name="Rectangle 1468" width="0.552" height="4.536" transform="translate(214.742 205.587)" fill="#ff9f00"/>
        <rect id="Rectangle_1469" data-name="Rectangle 1469" width="0.552" height="4.536" transform="translate(216.612 205.587)" fill="#ff9f00"/>
        <rect id="Rectangle_1470" data-name="Rectangle 1470" width="0.552" height="4.536" transform="translate(218.852 205.587)" fill="#ff9f00"/>
        <rect id="Rectangle_1471" data-name="Rectangle 1471" width="0.552" height="4.536" transform="translate(222.288 205.587)" fill="#ff9f00"/>
        <rect id="Rectangle_1472" data-name="Rectangle 1472" width="0.552" height="4.536" transform="translate(225.922 205.587)" fill="#ff9f00"/>
        <rect id="Rectangle_1473" data-name="Rectangle 1473" width="0.552" height="4.536" transform="translate(231.492 205.587)" fill="#ff9f00"/>
        <rect id="Rectangle_1474" data-name="Rectangle 1474" width="0.552" height="4.536" transform="translate(236.706 205.587)" fill="#ff9f00"/>
        <rect id="Rectangle_1475" data-name="Rectangle 1475" width="0.552" height="4.536" transform="translate(241.363 205.587)" fill="#ff9f00"/>
        <rect id="Rectangle_1476" data-name="Rectangle 1476" width="0.552" height="4.536" transform="translate(212.963 205.587)" fill="#ff9f00"/>
        <rect id="Rectangle_1477" data-name="Rectangle 1477" width="0.552" height="4.536" transform="translate(211.788 205.587)" fill="#ff9f00"/>
        <rect id="Rectangle_1478" data-name="Rectangle 1478" width="0.552" height="4.536" transform="translate(210.653 205.587)" fill="#ff9f00"/>
        <path id="Path_17011" data-name="Path 17011" d="M155.442,152.338v4.5a1.311,1.311,0,0,0,.208.016h.344v-4.536h-.344a1.311,1.311,0,0,0-.208.016" transform="translate(54.356 53.265)" fill="#ff9f00"/>
        <path id="Path_17012" data-name="Path 17012" d="M154.874,152.741V156.4a1.169,1.169,0,0,0,.552.37v-4.4a1.169,1.169,0,0,0-.552.37" transform="translate(54.158 53.282)" fill="#ff9f00"/>
        <path id="Path_17013" data-name="Path 17013" d="M159.451,149.954v2.562a.874.874,0,0,0,.2.551,1.169,1.169,0,0,0,.552.37,1.242,1.242,0,0,0,.215.05l.069.009c.018,0,.036,0,.054,0h48.67a1.111,1.111,0,0,0,1.174-.937c0-.016,0-.034,0-.05v-2.562c0-.018,0-.034,0-.051a1.111,1.111,0,0,0-1.174-.935H160.564a1.3,1.3,0,0,0-.146.013,1.242,1.242,0,0,0-.215.051c-.035.011-.07.024-.1.038s-.04.018-.059.028l-.007,0c-.02.009-.04.02-.059.031l-.009.005a.341.341,0,0,0-.053.032.933.933,0,0,0-.117.085.229.229,0,0,0-.032.03l-.007.005-.02.018,0,0-.034.036c-.016.018-.032.035-.047.054a.874.874,0,0,0-.2.551" transform="translate(55.758 52.092)" fill="#ffc459"/>
        <path id="Path_17014" data-name="Path 17014" d="M177.127,153.5h26.029a1.029,1.029,0,0,0,1.049-.937V149.9a1.028,1.028,0,0,0-1.049-.935H180.323c-.008.034-.019.069-.03.1a7.936,7.936,0,0,1-3.156,4.424l-.011.007" transform="translate(61.939 52.092)" fill="#fa0"/>
        <rect id="Rectangle_1479" data-name="Rectangle 1479" width="0.552" height="4.535" transform="translate(221.121 201.06)" fill="#ff9f00"/>
        <rect id="Rectangle_1480" data-name="Rectangle 1480" width="0.552" height="4.535" transform="translate(222.99 201.06)" fill="#ff9f00"/>
        <rect id="Rectangle_1481" data-name="Rectangle 1481" width="0.552" height="4.535" transform="translate(225.232 201.06)" fill="#ff9f00"/>
        <rect id="Rectangle_1482" data-name="Rectangle 1482" width="0.552" height="4.535" transform="translate(228.667 201.06)" fill="#ff9f00"/>
        <rect id="Rectangle_1483" data-name="Rectangle 1483" width="0.552" height="4.535" transform="translate(232.3 201.06)" fill="#ff9f00"/>
        <rect id="Rectangle_1484" data-name="Rectangle 1484" width="0.552" height="4.535" transform="translate(237.87 201.06)" fill="#ff9f00"/>
        <rect id="Rectangle_1485" data-name="Rectangle 1485" width="0.552" height="4.535" transform="translate(243.086 201.06)" fill="#ff9f00"/>
        <rect id="Rectangle_1486" data-name="Rectangle 1486" width="0.552" height="4.535" transform="translate(247.742 201.06)" fill="#ff9f00"/>
        <rect id="Rectangle_1487" data-name="Rectangle 1487" width="0.552" height="4.535" transform="translate(219.342 201.06)" fill="#ff9f00"/>
        <rect id="Rectangle_1488" data-name="Rectangle 1488" width="0.552" height="4.535" transform="translate(218.166 201.06)" fill="#ff9f00"/>
        <rect id="Rectangle_1489" data-name="Rectangle 1489" width="0.552" height="4.535" transform="translate(217.031 201.06)" fill="#ff9f00"/>
        <path id="Path_17015" data-name="Path 17015" d="M160.168,148.983v4.5a1.307,1.307,0,0,0,.208.016h.344v-4.536h-.344a1.307,1.307,0,0,0-.208.016" transform="translate(56.009 52.092)" fill="#ff9f00"/>
        <path id="Path_17016" data-name="Path 17016" d="M159.6,149.386v3.663a1.169,1.169,0,0,0,.552.37v-4.4a1.169,1.169,0,0,0-.552.37" transform="translate(55.81 52.109)" fill="#ff9f00"/>
        <path id="Path_17017" data-name="Path 17017" d="M156.8,146.671v2.562a.874.874,0,0,0,.2.551,1.169,1.169,0,0,0,.552.37,1.242,1.242,0,0,0,.215.05,1.309,1.309,0,0,0,.208.016h48.585a1.359,1.359,0,0,0,.525-.1,1.015,1.015,0,0,0,.646-.792l0-.04c0-.016,0-.034,0-.05v-2.562c0-.018,0-.034,0-.051a1.083,1.083,0,0,0-1.035-.929,1.19,1.19,0,0,0-.139-.007H157.98a1.49,1.49,0,0,0-.208.015,1.241,1.241,0,0,0-.215.051,1.169,1.169,0,0,0-.552.37.872.872,0,0,0-.2.551" transform="translate(54.833 50.944)" fill="#ffc459"/>
        <path id="Path_17018" data-name="Path 17018" d="M174.481,150.219H200.51a1.079,1.079,0,0,0,.468-.105.988.988,0,0,0,.576-.791l0-.04V146.62a1.018,1.018,0,0,0-.925-.929.946.946,0,0,0-.124-.008H177.677v.008a7.953,7.953,0,0,1-3.045,4.423q-.073.055-.15.105" transform="translate(61.014 50.944)" fill="#fa0"/>
        <rect id="Rectangle_1490" data-name="Rectangle 1490" width="0.552" height="4.535" transform="translate(217.548 196.628)" fill="#ff9f00"/>
        <rect id="Rectangle_1491" data-name="Rectangle 1491" width="0.552" height="4.535" transform="translate(219.418 196.628)" fill="#ff9f00"/>
        <rect id="Rectangle_1492" data-name="Rectangle 1492" width="0.552" height="4.535" transform="translate(221.659 196.628)" fill="#ff9f00"/>
        <rect id="Rectangle_1493" data-name="Rectangle 1493" width="0.552" height="4.535" transform="translate(225.096 196.628)" fill="#ff9f00"/>
        <rect id="Rectangle_1494" data-name="Rectangle 1494" width="0.552" height="4.535" transform="translate(228.728 196.628)" fill="#ff9f00"/>
        <rect id="Rectangle_1495" data-name="Rectangle 1495" width="0.552" height="4.535" transform="translate(234.298 196.628)" fill="#ff9f00"/>
        <rect id="Rectangle_1496" data-name="Rectangle 1496" width="0.552" height="4.535" transform="translate(239.513 196.628)" fill="#ff9f00"/>
        <rect id="Rectangle_1497" data-name="Rectangle 1497" width="0.552" height="4.535" transform="translate(244.169 196.628)" fill="#ff9f00"/>
        <rect id="Rectangle_1498" data-name="Rectangle 1498" width="0.552" height="4.535" transform="translate(215.769 196.628)" fill="#ff9f00"/>
        <rect id="Rectangle_1499" data-name="Rectangle 1499" width="0.552" height="4.535" transform="translate(214.594 196.628)" fill="#ff9f00"/>
        <rect id="Rectangle_1500" data-name="Rectangle 1500" width="0.552" height="4.535" transform="translate(213.459 196.628)" fill="#ff9f00"/>
        <path id="Path_17019" data-name="Path 17019" d="M157.522,145.7v4.5a1.312,1.312,0,0,0,.208.016h.344v-4.536h-.344a1.312,1.312,0,0,0-.208.016" transform="translate(55.084 50.944)" fill="#ff9f00"/>
        <path id="Path_17020" data-name="Path 17020" d="M156.954,146.1v3.663a1.163,1.163,0,0,0,.552.37v-4.4a1.162,1.162,0,0,0-.552.37" transform="translate(54.885 50.961)" fill="#ff9f00"/>
        <path id="Path_17021" data-name="Path 17021" d="M155.678,143.316v2.562a.875.875,0,0,0,.2.551,1.169,1.169,0,0,0,.552.37,1.242,1.242,0,0,0,.215.05l.069.009.038,0,.039,0h48.647a1.111,1.111,0,0,0,1.174-.937c0-.016,0-.034,0-.05v-2.562c0-.018,0-.034,0-.051a1.11,1.11,0,0,0-1.174-.935H156.854a1.492,1.492,0,0,0-.208.015,1.243,1.243,0,0,0-.215.051,1.169,1.169,0,0,0-.552.37.872.872,0,0,0-.2.551" transform="translate(54.439 49.771)" fill="#ffc459"/>
        <path id="Path_17022" data-name="Path 17022" d="M173.354,146.864h26.029a1.029,1.029,0,0,0,1.049-.937v-2.663a1.028,1.028,0,0,0-1.049-.935H176.55a7.95,7.95,0,0,1-3.185,4.528l-.011.007" transform="translate(60.62 49.771)" fill="#fa0"/>
        <rect id="Rectangle_1501" data-name="Rectangle 1501" width="0.552" height="4.536" transform="translate(216.028 192.099)" fill="#ff9f00"/>
        <rect id="Rectangle_1502" data-name="Rectangle 1502" width="0.552" height="4.536" transform="translate(217.898 192.099)" fill="#ff9f00"/>
        <rect id="Rectangle_1503" data-name="Rectangle 1503" width="0.552" height="4.536" transform="translate(220.138 192.099)" fill="#ff9f00"/>
        <rect id="Rectangle_1504" data-name="Rectangle 1504" width="0.552" height="4.536" transform="translate(223.575 192.099)" fill="#ff9f00"/>
        <rect id="Rectangle_1505" data-name="Rectangle 1505" width="0.552" height="4.536" transform="translate(227.208 192.099)" fill="#ff9f00"/>
        <rect id="Rectangle_1506" data-name="Rectangle 1506" width="0.552" height="4.536" transform="translate(232.778 192.099)" fill="#ff9f00"/>
        <rect id="Rectangle_1507" data-name="Rectangle 1507" width="0.552" height="4.536" transform="translate(237.992 192.099)" fill="#ff9f00"/>
        <rect id="Rectangle_1508" data-name="Rectangle 1508" width="0.552" height="4.535" transform="translate(242.648 192.1)" fill="#ff9f00"/>
        <rect id="Rectangle_1509" data-name="Rectangle 1509" width="0.552" height="4.536" transform="translate(214.25 192.099)" fill="#ff9f00"/>
        <rect id="Rectangle_1510" data-name="Rectangle 1510" width="0.552" height="4.536" transform="translate(213.074 192.099)" fill="#ff9f00"/>
        <rect id="Rectangle_1511" data-name="Rectangle 1511" width="0.552" height="4.536" transform="translate(211.939 192.099)" fill="#ff9f00"/>
        <path id="Path_17023" data-name="Path 17023" d="M156.395,142.344v4.5a1.309,1.309,0,0,0,.208.016h.344v-4.536H156.6a1.309,1.309,0,0,0-.208.016" transform="translate(54.69 49.771)" fill="#ff9f00"/>
        <path id="Path_17024" data-name="Path 17024" d="M155.827,142.748v3.663a1.169,1.169,0,0,0,.552.37v-4.4a1.169,1.169,0,0,0-.552.37" transform="translate(54.491 49.788)" fill="#ff9f00"/>
        <path id="Path_17025" data-name="Path 17025" d="M228.082,167.75a23.09,23.09,0,1,0-23.09,23.09,23.09,23.09,0,0,0,23.09-23.09" transform="translate(63.609 50.586)" fill="#ef7c00"/>
        <path id="Path_17026" data-name="Path 17026" d="M229.575,167.75a23.09,23.09,0,1,0-23.09,23.09,23.09,23.09,0,0,0,23.09-23.09" transform="translate(64.131 50.586)" fill="#ffc459"/>
        <path id="Path_17027" data-name="Path 17027" d="M191.075,182.3a21.04,21.04,0,1,1,14.876,6.161,20.9,20.9,0,0,1-14.876-6.161m-4.906-14.876a19.783,19.783,0,1,0,19.782-19.782,19.8,19.8,0,0,0-19.782,19.782" transform="translate(64.662 51.188)" fill="#ff9f00"/>
        <path id="Path_17028" data-name="Path 17028" d="M205.791,172.1a3.476,3.476,0,0,0-.05-1.221,2.537,2.537,0,0,0-.516-1.015,4.827,4.827,0,0,0-1.034-.911,12.531,12.531,0,0,0-1.6-.9,33.076,33.076,0,0,1-2.956-1.625,10.5,10.5,0,0,1-2.209-1.8,6.166,6.166,0,0,1-1.305-2.192,6.946,6.946,0,0,1,.561-5.258,5.862,5.862,0,0,1,1.63-1.811,7.3,7.3,0,0,1,2.334-1.111,9.741,9.741,0,0,1,2.915-.336l.41-3.467,2.791.331-.417,3.516a8.7,8.7,0,0,1,2.626,1.118,6.588,6.588,0,0,1,2.941,4.218,8.809,8.809,0,0,1,.115,2.98l-5.041-.6a4.275,4.275,0,0,0-.518-3.011,2.972,2.972,0,0,0-2.2-1.239,3.774,3.774,0,0,0-1.378.059,2.566,2.566,0,0,0-1,.487,2.382,2.382,0,0,0-.647.835,3.491,3.491,0,0,0-.308,1.1,3.214,3.214,0,0,0,.046,1.107,2.367,2.367,0,0,0,.5.97,4.779,4.779,0,0,0,1.041.912,16.376,16.376,0,0,0,1.664.962q1.618.832,2.925,1.661a10.569,10.569,0,0,1,2.2,1.814,5.95,5.95,0,0,1,1.531,4.987,6.356,6.356,0,0,1-.8,2.5,5.793,5.793,0,0,1-1.637,1.8,7.06,7.06,0,0,1-2.347,1.069,10.507,10.507,0,0,1-2.929.309l-.383,3.224-2.774-.329.381-3.208a11.82,11.82,0,0,1-2.724-.964,7.457,7.457,0,0,1-2.232-1.686,6.707,6.707,0,0,1-1.4-2.508,8.152,8.152,0,0,1-.232-3.413l5.041.6a5,5,0,0,0,.1,1.957,3.238,3.238,0,0,0,.717,1.335,3.142,3.142,0,0,0,1.153.794,5.38,5.38,0,0,0,1.382.354,4.493,4.493,0,0,0,1.464-.041,3,3,0,0,0,1.107-.46,2.374,2.374,0,0,0,.733-.808,2.9,2.9,0,0,0,.342-1.085" transform="translate(67.728 52.614)" fill="#ff9f00"/>
        <path id="Path_17029" data-name="Path 17029" d="M129.558,158.48s-2.914,4.1-5.585,4.16-6.736-1.9-6.736-1.9-2.454-5.466-.79-7.606a3.571,3.571,0,0,1,3.413.56,5.3,5.3,0,0,1,.9.865,2.873,2.873,0,0,0,1.4.952c1.907.579,4.169-.784,5.015.532a8.941,8.941,0,0,0,1.474,1.745,6.7,6.7,0,0,0,.9.694" transform="translate(40.518 53.476)" fill="#ffebd9"/>
        <path id="Path_17030" data-name="Path 17030" d="M97.864,185.555s10.3-24.957,28.839-25.432c0,0,17.114,1.9,18.064,25.432Z" transform="translate(34.222 55.993)" fill="#ffebd9"/>
        <path id="Path_17031" data-name="Path 17031" d="M115.477,161.525s7.431,1.652,9.724.682c0,0,.346-3.107-2.783-2.672a6.563,6.563,0,0,1-4.358-1.149c-1.161-.591-2.892,1.84-2.583,3.139" transform="translate(40.368 55.354)" fill="#2b5c8b"/>
        <path id="Path_17032" data-name="Path 17032" d="M120.761,158.519c-.475.356-1.934-5.025-1.934-5.025a5.348,5.348,0,0,1,.9.865,2.862,2.862,0,0,0,1.4.952c0,.157.09,2.861-.371,3.208" transform="translate(41.552 53.675)" fill="#eabf9b"/>
        <path id="Path_17033" data-name="Path 17033" d="M126.393,156.979a30.547,30.547,0,0,1-4.007,2.12c-.475,0,2.533-3.866,2.533-3.866a8.9,8.9,0,0,0,1.474,1.745" transform="translate(42.779 54.284)" fill="#eabf9b"/>
        <path id="Path_17034" data-name="Path 17034" d="M105.32,176.674c-.19-.163,7.29-11.012,9.349-11.092s6.688,2.377,10.039,2.694,6.6-.634,7.233,1.347,2.377,9,1.307,10.127-23.815.437-27.928-3.076" transform="translate(36.828 57.902)" fill="#fddbba"/>
        <path id="Path_17035" data-name="Path 17035" d="M158.229,64.666l-.7-3.96,1.524-.27.7,3.919c.2,1.128.869,1.613,1.8,1.447a1.456,1.456,0,0,0,1.2-1.929l-.706-3.969,1.525-.27.694,3.91a2.832,2.832,0,0,1-2.482,3.667,2.791,2.791,0,0,1-3.546-2.546" transform="translate(55.084 20.853)" fill="#9bd399"/>
        <path id="Path_17036" data-name="Path 17036" d="M163.15,59.593l3.216-.571a2.537,2.537,0,0,1,1.921.292,1.734,1.734,0,0,1,.043,2.77,1.728,1.728,0,0,1,1.6,1.493c.225,1.266-.691,2.083-2.255,2.361l-3.3.586Zm3.388,2.288c.673-.119,1.06-.413.965-.947-.081-.455-.483-.649-1.126-.534l-1.5.267.261,1.464Zm.9,2.72c.673-.12,1.037-.429.942-.964-.082-.466-.48-.691-1.262-.552l-1.763.313.271,1.524Z" transform="translate(57.052 20.618)" fill="#9bd399"/>
        <rect id="Rectangle_1512" data-name="Rectangle 1512" width="1.548" height="7.038" transform="translate(227.416 78.929) rotate(-10.095)" fill="#9bd399"/>
        <path id="Path_17037" data-name="Path 17037" d="M175.012,166.718a1.266,1.266,0,0,1,.225,1.355l0,.007A8.426,8.426,0,0,1,172.573,171c-.161.13-.3.247-.428.356-.032.028-.065.057-.1.086l-.073.066c-1.17,1.078-.73,1.325-2.832,3.513-2.4,2.494-4.046,2.539-4.516,2.312-.4-.194.41-1.516,1.3-3,.043-.072.086-.144.131-.216.119-.2.236-.4.355-.6,1.047-1.79.779-2.629.53-5.291-.2-2.164-3.366-12.086-3.366-12.086l4.593-.791s1.383,7.9,2.907,9.118c.814.648,1.726.656,2.509,1.138.055.032.111.067.163.1a5.981,5.981,0,0,1,1.257,1.01" transform="translate(57.203 54.324)" fill="#ffae73"/>
        <path id="Path_17038" data-name="Path 17038" d="M174.768,164.061a1.265,1.265,0,0,1,.225,1.355l0,.007a9.764,9.764,0,0,1-2.666,2.91c-.159.132-.3.252-.424.366-.032.028-.065.057-.1.086l-.073.066c-1.17,1.078-.73,1.325-2.832,3.513-2.4,2.494-4.046,2.539-4.516,2.312-.4-.194.41-1.516,1.3-3a10.205,10.205,0,0,0,4.272-3.147c1.443-1.841,2.405-4.207,3.388-5.577.055.032.111.067.163.1a5.982,5.982,0,0,1,1.257,1.01" transform="translate(57.447 56.981)" fill="#234662"/>
        <path id="Path_17039" data-name="Path 17039" d="M148.186,164.212c-.283,1.417-2.3,1.181-4.562.629s-1.721.105-4.934-.251-4.185-1.553-4.284-2.031c-.088-.424,1.5-.574,3.2-.769.215-.024.429-.051.645-.077,1.922-.242,3.33-1.482,5.076-2.5,1.655-.965,4.123-4.9,4.123-4.9l4.405.35s-2.312,3.512-3.206,5.038a5.331,5.331,0,0,0-.433,3,5.7,5.7,0,0,1-.034,1.508" transform="translate(46.999 53.962)" fill="#ffae73"/>
        <path id="Path_17040" data-name="Path 17040" d="M143.624,162.9c-2.258-.552-1.721.1-4.934-.251s-4.185-1.555-4.284-2.033c-.088-.424,1.5-.572,3.2-.769l.016.034a9.051,9.051,0,0,0,4.6,1.429c2.18.053,4.489-.571,5.994-.547a5.7,5.7,0,0,1-.034,1.508c-.283,1.417-2.3,1.181-4.562.629" transform="translate(46.999 55.898)" fill="#234662"/>
        <path id="Path_17041" data-name="Path 17041" d="M157.126,142.6l4.119,11.084,5.377,14.473a8.7,8.7,0,0,0,2.857-.26,12.411,12.411,0,0,0,2.763-1.346s-1.493-15.539-4.279-24.459a15.879,15.879,0,0,0-2.4-5.184c-4.318-5.1-8.441,5.693-8.441,5.693" transform="translate(54.945 47.396)" fill="#234662"/>
        <path id="Path_17042" data-name="Path 17042" d="M166.54,128.3c2.7-.871,10.4.247,18.126,1.761l1.62-2.671,16.7-1.3s5.511,12.22,2.494,20.008a2.823,2.823,0,0,1-2.826,1.9h-.244s-9.939-.005-13.168-.005c-8.3,0-17.576-5.709-18.775-5.948-1.964-.393-2.748,3.533-4.712,7.655S147.3,167.959,147.3,167.959a14.508,14.508,0,0,1-3.582-.367,3.522,3.522,0,0,1-1.537-.972s18.272-36.353,24.358-38.316" transform="translate(49.719 44.092)" fill="#2b5c8b"/>
        <path id="Path_17043" data-name="Path 17043" d="M172.279,116.835c5.266,4.283,17.956,11.706,18.025,11.673,0,0,4.065,2.436,6.839,1.24,4.623-1.991,8.172-8.963,1.779-16.678-3.189-3.847-5.833-5.114-5.212-10.229.672-5.542-1.83-12.509-8.209-12.8a17.62,17.62,0,0,0-6.068.269c-5.875,1.844-15.7,23.688-7.153,26.527" transform="translate(59.073 31.434)" fill="#234662"/>
        <path id="Path_17044" data-name="Path 17044" d="M193.188,135.262c-.344.949-9.372,1.8-14.51,1.454a7.021,7.021,0,0,1-3.315-.717c-1.833-1.591-1.651,1.91-1.9-14.84-.121-8.17,6.933-15.446,6.933-15.446s.563,3.49,7.558-.664c.248-.146,3,3.934,5.657,8.958,2.921,5.55-.069,20.279-.421,21.255" transform="translate(60.657 36.733)" fill="#69bbee"/>
        <path id="Path_17045" data-name="Path 17045" d="M160.178,151.987l5.377,14.473a8.718,8.718,0,0,0,2.857-.262,12.368,12.368,0,0,0,2.763-1.344s-1.493-15.539-4.279-24.458Z" transform="translate(56.012 49.095)" fill="#2b5c8b"/>
        <path id="Path_17046" data-name="Path 17046" d="M183.81,105.538s-6.387,1.567-8.044,4.32c-2.016,3.351-12.077,18.468-12.077,18.468s9.918,3.508,11.607,1.818,5.883-15.685,5.883-15.685Z" transform="translate(57.24 36.905)" fill="#69bbee"/>
        <path id="Path_17047" data-name="Path 17047" d="M186.374,106.55a17.337,17.337,0,0,1-4.485,3.095c-.748.273-1.988.571-1.988.571s-1-1.007-1.011-1.02c-.885-.827,0-1.066-.13-2.629-.007-.074-.012-.15-.022-.225a28.364,28.364,0,0,0-.717-3.789v-.005l6.18-1.768-.2.341c.381,3.208,1.533,5.335,2.373,5.43" transform="translate(62.252 35.241)" fill="#ffae73"/>
        <path id="Path_17048" data-name="Path 17048" d="M184.2,100.78a6.908,6.908,0,0,1-5.569,4.727,29.605,29.605,0,0,0-.61-2.954v-.005Z" transform="translate(62.252 35.242)" fill="#f9924f"/>
        <path id="Path_17049" data-name="Path 17049" d="M178.187,107.186s8.33-.553,7.906-5.736.364-8.745-4.974-8.611-6.207,2.2-6.485,3.961,1.374,10.4,3.552,10.386" transform="translate(61.057 32.463)" fill="#ffae73"/>
        <path id="Path_17050" data-name="Path 17050" d="M176.149,93.06s2.07,6.074,6.985,6.779c3.585.516,5.009-.454,5.009-.454a14.079,14.079,0,0,1-3.085-4.828,2.533,2.533,0,0,0-1.984-1.629c-2.552-.394-5.846-2.084-6.924.131" transform="translate(61.597 32.151)" fill="#234662"/>
        <path id="Path_17051" data-name="Path 17051" d="M178.609,93.856a5.5,5.5,0,0,0-2.525,2.821,10.6,10.6,0,0,0-.626,5.295s-2.4-5.542-.661-8.039c1.838-2.649,3.813-.077,3.813-.077" transform="translate(60.904 32.429)" fill="#234662"/>
        <path id="Path_17052" data-name="Path 17052" d="M178.884,105.067s.509,3.076,1.14,3.65a4.47,4.47,0,0,1-2.357-2.655s.559-.925,1.216-.995" transform="translate(62.129 36.741)" fill="#8aaff7"/>
        <path id="Path_17053" data-name="Path 17053" d="M175.235,112.821s-4.652,5.581-4.079,7.6,3.794,2.02,3.794,2.02-.6-4.305,0-6.547.979-3.208.285-3.076" transform="translate(59.834 39.448)" fill="#8aaff7"/>
        <path id="Path_17054" data-name="Path 17054" d="M182.26,128.005s6.7-4.084,6.613-6.457,0-6.728.632-6.118,2.616,5.5,2.424,6.886-6.958,11.055-7.8,11.032c-5.974-.167-1.873-5.343-1.873-5.343" transform="translate(63.254 40.344)" fill="#8aaff7"/>
        <path id="Path_17055" data-name="Path 17055" d="M184.587,104s-3.66,4.6-5.173,5.092a10.4,10.4,0,0,0,7.336-3.59s-1.015-1.487-2.162-1.5" transform="translate(62.739 36.367)" fill="#8aaff7"/>
        <path id="Path_17056" data-name="Path 17056" d="M158.125,125.445a16.984,16.984,0,1,1,16.983,16.983,16.984,16.984,0,0,1-16.983-16.983" transform="translate(55.295 37.928)" fill="#ef7c00"/>
        <path id="Path_17057" data-name="Path 17057" d="M157.028,125.445a16.984,16.984,0,1,1,16.983,16.983,16.984,16.984,0,0,1-16.983-16.983" transform="translate(54.911 37.928)" fill="#ffc459"/>
        <path id="Path_17058" data-name="Path 17058" d="M173.62,140.676a15.472,15.472,0,1,1,10.942-4.531,15.376,15.376,0,0,1-10.942,4.531m0-30.024A14.551,14.551,0,1,0,188.171,125.2a14.568,14.568,0,0,0-14.551-14.551" transform="translate(55.302 38.371)" fill="#ff9f00"/>
        <path id="Path_17059" data-name="Path 17059" d="M173.5,128.645a2.577,2.577,0,0,0-.036-.9,1.872,1.872,0,0,0-.381-.746,3.521,3.521,0,0,0-.759-.669,9.486,9.486,0,0,0-1.178-.66,23.935,23.935,0,0,1-2.173-1.194,7.665,7.665,0,0,1-1.626-1.323,4.532,4.532,0,0,1-.96-1.613,5.1,5.1,0,0,1,.413-3.867,4.288,4.288,0,0,1,1.2-1.332,5.379,5.379,0,0,1,1.717-.818,7.23,7.23,0,0,1,2.145-.247l.3-2.55,2.053.243-.308,2.586a6.451,6.451,0,0,1,1.933.822,4.849,4.849,0,0,1,2.162,3.1,6.441,6.441,0,0,1,.085,2.192l-3.708-.44a3.151,3.151,0,0,0-.382-2.215,2.18,2.18,0,0,0-1.616-.911,2.778,2.778,0,0,0-1.014.043,1.888,1.888,0,0,0-.738.359,1.754,1.754,0,0,0-.476.614,2.539,2.539,0,0,0-.225.807,2.378,2.378,0,0,0,.032.814,1.773,1.773,0,0,0,.364.714,3.543,3.543,0,0,0,.767.671,11.792,11.792,0,0,0,1.224.707q1.188.613,2.151,1.223a7.77,7.77,0,0,1,1.617,1.333,4.371,4.371,0,0,1,1.126,3.668,4.674,4.674,0,0,1-.588,1.84,4.255,4.255,0,0,1-1.2,1.32,5.218,5.218,0,0,1-1.726.787,7.732,7.732,0,0,1-2.154.227l-.282,2.373-2.039-.243.279-2.359a8.693,8.693,0,0,1-2-.709,5.518,5.518,0,0,1-1.641-1.24,4.92,4.92,0,0,1-1.03-1.845,5.984,5.984,0,0,1-.171-2.51l3.709.44a3.691,3.691,0,0,0,.069,1.441,2.383,2.383,0,0,0,.528.981,2.316,2.316,0,0,0,.848.583,3.9,3.9,0,0,0,1.018.259,3.276,3.276,0,0,0,1.076-.028,2.2,2.2,0,0,0,.815-.339,1.75,1.75,0,0,0,.539-.6,2.144,2.144,0,0,0,.251-.8" transform="translate(57.555 39.419)" fill="#ff9f00"/>
        <path id="Path_17060" data-name="Path 17060" d="M156.156,123.886s-.19-2.79.864-2.68c1.294.135,2.67,3.2,2.038,3.8s-2.89-.429-2.9-1.118" transform="translate(54.601 42.383)" fill="#ffae73"/>
        <path id="Path_17061" data-name="Path 17061" d="M184.938,128.308l-1.574-.942a4.067,4.067,0,0,0-1.551-.308c-.575.082-1.94-.159-1.983.063s1.312,1.22,1.312,1.22c-.815,1.25-3.767,1.479-3.991,1.95-.273.571,1.061,1.107,1.784,1.417a4.217,4.217,0,0,0,3.641-.219c.781-.593,2.065-1.374,2.065-1.374Z" transform="translate(61.935 44.419)" fill="#ffae73"/>
        <path id="Path_17062" data-name="Path 17062" d="M184.953,105.049s6.609.432,8.261,3.01,6.96,17.263,6.1,21.757-16.578,9.889-16.578,9.889a2.953,2.953,0,0,1-.7-2.213,4.6,4.6,0,0,1,.5-1.9s9.644-8.059,8.981-9.664c-2.452-5.929-6.573-20.878-6.573-20.878" transform="translate(63.658 36.734)" fill="#69bbee"/>
      </g>
    </g>
  </g>
</svg>
