<svg id="Group_2232" data-name="Group 2232" xmlns="http://www.w3.org/2000/svg" xmlns:xlink="http://www.w3.org/1999/xlink" width="439.093" height="237.43" viewBox="0 0 439.093 237.43">
  <defs>
    <clipPath id="clip-path">
      <rect id="Rectangle_1852" data-name="Rectangle 1852" width="439.093" height="237.43" fill="none"/>
    </clipPath>
    <clipPath id="clip-path-3">
      <rect id="Rectangle_1848" data-name="Rectangle 1848" width="42.897" height="71.929" fill="none"/>
    </clipPath>
  </defs>
  <g id="Group_2231" data-name="Group 2231" clip-path="url(#clip-path)">
    <g id="Group_2230" data-name="Group 2230">
      <g id="Group_2229" data-name="Group 2229" clip-path="url(#clip-path)">
        <path id="Path_17607" data-name="Path 17607" d="M430.575,235.918v0l-.1.184c-.244.437-.5.881-.755,1.326L34.7,237.311s-.385-.429-1.073-1.25c-.038-.047-.078-.095-.119-.144a148.791,148.791,0,0,1-9.474-12.862l0-.006C13,206.364-2.285,176.818.286,144.026A89.879,89.879,0,0,1,7.228,115.7C19.568,86.708,56.38,67.165,89.544,66.773c12.836-.153,25.127,2.563,35.24,8.713a21.821,21.821,0,0,0,6.671,2.5,41.165,41.165,0,0,0,7.364.873c21.539.758,56.567-11.379,77.344-41.916,11.032-16.216,27.97-26.831,47.437-32.36.907-.256,1.82-.5,2.737-.739a119.646,119.646,0,0,1,13.6-2.647c.834-.112,1.671-.218,2.51-.313a146.228,146.228,0,0,1,62.724,6.9q3.988,1.346,7.872,2.919c37.977,15.379,67.523,46.783,64.925,90.632q-.154,2.6-.462,5.26a101.969,101.969,0,0,1-1.741,10.339q-.688,3.107-1.581,6.285c-15.653,55.587,46.922,58.1,16.389,112.7" transform="translate(0 0)" fill="#dcf3fd"/>
        <path id="Path_17608" data-name="Path 17608" d="M385.267,205.269v0L77.8,205.3l2.65-91.892V88.444h11.5v-19.5H114.89V85.5H121.9V54.886h1.524V52.747h.272v2.139h5.535V52.747h.275v2.139h7.833V52.747h.275v2.139h4.931V52.747h.271v2.139h2.027V83.461h7.744V78.839l9.132.041V71.389h1.837v-1.48h.244v1.48h7.053v0h1.41V69.909h.244v1.484h1.7v14.89h10.871v5.481h6.045V88.583h5.606V75.948h2.8V70.053h.422v5.894h6.7V64.9h.658V75.948h4.432v-.153h-.008v-1.4h.008V73.064h-.008V70.857h.008v-1.41h-.008V67.238h.008V65.83h-.008V63.621h.008V62.1h-.008V59.891h.008v-1.94h-.008V55.744h.008V54.28h1.32V52.628h.212V54.28h9.784V52.628h.21V54.28h1.786V65.83l1.255.006V65.83h-.009V63.621h.009V62.1h-.009V59.891h.009V58.372h-.009V56.165h.009v-.008h11.865v.008H240.2l.318.176V71.069H242.7V68.945h25.041V85.5h7.648V54.886h1.661V52.747h.3v2.139h6.037V52.747h.3v2.139h8.553V52.747h.3v2.139h5.382V52.747h.3v2.139h2.212V83.461h8.452V78.839l9.966.041V71.392h2.006V69.909h.267v1.483h7.7v0h1.54V69.909h.264v1.484h1.858V86.285h11.865v5.48h6.6V88.583h6.119V75.946h3.051V70.053h.46v5.893h7.312V64.9h.717V75.946h3.6a101.969,101.969,0,0,1-1.741,10.339q-.688,3.107-1.581,6.285c-15.653,55.587,46.922,58.1,16.389,112.7" transform="translate(45.307 30.649)" fill="#dcf1fb"/>
        <path id="Path_17609" data-name="Path 17609" d="M226.007,7.838V233.052h-7.872V4.919q3.988,1.346,7.872,2.919" transform="translate(127.037 2.865)" fill="#a8dfff"/>
        <path id="Path_17610" data-name="Path 17610" d="M131.454,53.414v158.07H33.627l-.12-.142a148.532,148.532,0,0,1-9.472-12.862l0-.008C13,181.789-2.285,152.243.288,119.45A89.834,89.834,0,0,1,7.228,91.12C19.567,62.131,56.381,42.59,89.543,42.2c12.718.139,24.837,2.885,34.9,8.713a23.759,23.759,0,0,0,7.008,2.5" transform="translate(0 24.575)" fill="#c9ecff"/>
        <path id="Path_17611" data-name="Path 17611" d="M179.42.56V28.294c0,2.163-.529,3.927-1.171,3.927h-.168c-.644,0-1.171-1.764-1.171-3.927V.875Q178.161.7,179.42.56" transform="translate(103.029 0.326)" fill="#97c0f8"/>
        <path id="Path_17612" data-name="Path 17612" d="M183.381,16.353c-9.141,0-16.55,7.836-16.55,17.5h33.1c0-9.665-7.409-17.5-16.55-17.5" transform="translate(97.159 9.524)" fill="#ff9223"/>
        <path id="Path_17613" data-name="Path 17613" d="M182.627,16.545a6.767,6.767,0,0,0-1.454-.158c-5.954,0-10.782,7.811-10.782,17.446H173.3c0-8.838,4.062-16.139,9.33-17.287" transform="translate(99.232 9.543)" fill="#ffc180"/>
        <path id="Path_17614" data-name="Path 17614" d="M246.924,136.7s-4.4-5.138-.272-8.4c0,0,3.019-1.828,5.481-1.679,0,0-3.489,5.848-2.359,6.431s3.416-6.8,3.416-6.8,6.869-.666,9.08.4c0,0-5.872,4.807-4.636,5.092s7.581-4.431,7.581-4.431,6.393,1.089,6.053,4.989-2.544,5.1-3.513,5-6.632-2.266-6.755-1.472,3.287,3.386,5.673,3.507c0,0-4.507,4.972-7.5,3.537s-3.252-3.709-5.119-4.562-3.462-.85-2.69.019,4.151,1.717,5.219,3.6,2.025,3.163-1.074,2.7-8.138-2.734-8.358-5.333Z" transform="translate(142.615 73.405)" fill="#62bbea"/>
        <path id="Path_17615" data-name="Path 17615" d="M268.8,130.073s-17.367-.669-21.2,4.3a12.565,12.565,0,0,1-3.457,4.853l-.407,1.109s3.01-3.174,4.086-3.366c0,0-1.684-6.152,20.981-6.894" transform="translate(141.943 75.734)" fill="#62bbea"/>
        <path id="Path_17616" data-name="Path 17616" d="M245.454,136.006a10.9,10.9,0,0,0-3.986,7.682l.676.06s1.192-5.092,3.342-7.084-.032-.658-.032-.658" transform="translate(140.626 78.952)" fill="#62bbea"/>
        <path id="Path_17617" data-name="Path 17617" d="M245.9,135.372s7.005-3.924,3.738-9.249c0,0-2.619-3.269-5.42-4.109,0,0,1.494,7.94,0,8.127s-1.027-8.969-1.027-8.969-7.382-3.549-10.278-3.269c0,0,4.579,7.754,3.082,7.567s-6.633-8.034-6.633-8.034-7.567-1.4-8.781,3.082.747,6.727,1.869,7.007,8.314.187,8.127,1.12-5.045,2.429-7.752,1.589c0,0,2.988,7.38,6.912,7.007s5.14-2.8,7.565-2.989,4.2.467,2.991,1.12-5.325.214-7.285,1.881-3.552,2.7.092,3.443,10.183.28,11.49-2.522Z" transform="translate(128.239 68.271)" fill="#62bbea"/>
        <path id="Path_17618" data-name="Path 17618" d="M222.626,120.192s19.618,6.353,21.861,13.452a14.911,14.911,0,0,0,1.867,6.82v1.4s-2.054-4.765-3.176-5.418c0,0,4.391-6.167-20.552-16.256" transform="translate(129.653 69.997)" fill="#62bbea"/>
        <path id="Path_17619" data-name="Path 17619" d="M237.966,133.324a12.939,12.939,0,0,1,1.3,10.187l-.779-.209s.756-6.16-.828-9.259.305-.72.305-.72" transform="translate(138.04 77.137)" fill="#62bbea"/>
        <path id="Path_17620" data-name="Path 17620" d="M245.72,134.076s-9.236-5.173-4.926-12.191c0,0,3.448-4.31,7.143-5.42,0,0-1.97,10.467,0,10.714s1.355-11.822,1.355-11.822,9.728-4.679,13.545-4.31c0,0-6.034,10.221-4.064,9.975s8.744-10.591,8.744-10.591,9.974-1.847,11.575,4.064-.986,8.866-2.464,9.236-10.96.247-10.713,1.478,6.649,3.2,10.221,2.094c0,0-3.94,9.728-9.113,9.235s-6.773-3.693-9.974-3.94-5.542.616-3.942,1.478,7.019.283,9.605,2.481,4.681,3.552-.122,4.538-13.423.369-15.148-3.325Z" transform="translate(139.566 64.155)" fill="#97d5f8"/>
        <path id="Path_17621" data-name="Path 17621" d="M273.207,114.067s-25.861,8.374-28.815,17.734a19.664,19.664,0,0,1-2.464,8.99v1.847s2.709-6.28,4.187-7.143c0,0-5.788-8.127,27.092-21.427" transform="translate(140.894 66.43)" fill="#97d5f8"/>
        <path id="Path_17622" data-name="Path 17622" d="M242.817,131.378a17.056,17.056,0,0,0-1.714,13.428l1.025-.275s-1-8.119,1.09-12.2-.4-.949-.4-.949" transform="translate(140.005 75.842)" fill="#97d5f8"/>
        <path id="Path_17623" data-name="Path 17623" d="M249.946,156.2a18.092,18.092,0,0,0,18.091-18.091H231.855A18.092,18.092,0,0,0,249.946,156.2" transform="translate(135.027 80.433)" fill="#97d5f8"/>
        <path id="Path_17624" data-name="Path 17624" d="M253.588,156.064a18.1,18.1,0,0,1-20.34-17.954h4.5a18.093,18.093,0,0,0,15.844,17.954" transform="translate(135.839 80.432)" fill="#a8dfff"/>
        <rect id="Rectangle_1846" data-name="Rectangle 1846" width="37.189" height="0.555" transform="translate(366.288 218.542)" fill="#97d5f8"/>
        <path id="Path_17625" data-name="Path 17625" d="M196.605,177.208l-17.778-73.786,1.242-2.905L197.681,177.2a.313.313,0,0,1-.305.383h-.294a.491.491,0,0,1-.476-.375" transform="translate(104.145 58.538)" fill="#6fbfea"/>
        <path id="Path_17626" data-name="Path 17626" d="M139.577,161.153h0a.591.591,0,0,1-.584-.688l5.236-31.738h2.244l-6.244,31.89a.664.664,0,0,1-.652.536" transform="translate(80.942 74.968)" fill="#6fbfea"/>
        <path id="Path_17627" data-name="Path 17627" d="M171.319,161.153h0a.591.591,0,0,1-.584-.688l5.236-31.738h2.244l-6.244,31.89a.664.664,0,0,1-.652.536" transform="translate(99.428 74.968)" fill="#6fbfea"/>
        <path id="Path_17628" data-name="Path 17628" d="M201.813,158.663H139.279l12.957-81.222h62.534Z" transform="translate(81.113 45.1)" fill="#f3fbff"/>
        <rect id="Rectangle_1847" data-name="Rectangle 1847" width="71.818" height="2.389" transform="translate(215.787 203.143)" fill="#6fbfea"/>
        <path id="Path_17629" data-name="Path 17629" d="M171.742,92.639a13.137,13.137,0,0,1-12.593,12.153c-6.462.011-11.3-5.412-10.808-12.113s6.132-12.142,12.594-12.153a10.865,10.865,0,0,1,3.815.673,10.682,10.682,0,0,1,1.524.707,10.563,10.563,0,0,1,2.763,2.263,10.942,10.942,0,0,1,1.171,1.633,10.453,10.453,0,0,1,.543,1.051,11.466,11.466,0,0,1,.921,3.247,12.378,12.378,0,0,1,.1,1.775q0,.377-.033.764" transform="translate(86.371 46.897)" fill="#b5e3fc"/>
        <path id="Path_17630" data-name="Path 17630" d="M166.433,86.345l-10.71,5.807s4.42-7.782,6.233-10.754a10.562,10.562,0,0,1,2.761,2.264A10.759,10.759,0,0,1,165.89,85.3a10.589,10.589,0,0,1,.543,1.049" transform="translate(90.69 47.404)" fill="#fff"/>
        <path id="Path_17631" data-name="Path 17631" d="M166.8,85.259l-9.784,5.3s4.037-7.108,5.693-9.822a9.634,9.634,0,0,1,2.522,2.067A10.051,10.051,0,0,1,166.3,84.3c.179.309.345.628.5.959" transform="translate(91.44 47.022)" fill="#28acde"/>
        <path id="Path_17632" data-name="Path 17632" d="M194.594,135.8l-51.47,0,5.211-29.7,51.47,0Zm-51.054-.3,50.744,0,5.1-29.1-50.742,0Z" transform="translate(83.352 61.79)" fill="#b5e3fc"/>
        <path id="Path_17633" data-name="Path 17633" d="M190.513,125.194l-45.65,0s8.1-4.342,10.319-4.114,5.415,1.984,7.469,2.054,4.274-6.1,6.559-5.8,3.146,5.741,4.328,5.209a11.976,11.976,0,0,1,6.784,0c2.046.764,5.029-2.426,6.826-2.326s3.366,4.984,3.366,4.984" transform="translate(84.365 68.323)" fill="#28acde"/>
        <path id="Path_17634" data-name="Path 17634" d="M155.009,116.949H146.29l.081-.464,8.719,0Z" transform="translate(85.196 67.839)" fill="#28acde"/>
        <path id="Path_17635" data-name="Path 17635" d="M154.9,117.573h-8.719l.081-.464,8.719,0Z" transform="translate(85.133 68.202)" fill="#28acde"/>
        <path id="Path_17636" data-name="Path 17636" d="M146.514,115.783l45.648,0s-6.573-4.344-8.876-4.116-6.11,1.984-8.187,2.052-2.136-6.1-4.522-5.8-5.16,5.741-6.157,5.208-4.469-.763-6.782,0-4.176-2.427-6.01-2.328-5.114,4.984-5.114,4.984" transform="translate(85.327 62.844)" fill="#b5e3fc"/>
        <path id="Path_17637" data-name="Path 17637" d="M156.566,108.078h-8.719l.081-.464,8.719,0Z" transform="translate(86.103 62.673)" fill="#b5e3fc"/>
        <path id="Path_17638" data-name="Path 17638" d="M156.456,108.7h-8.719l.081-.464,8.719,0Z" transform="translate(86.039 63.036)" fill="#b5e3fc"/>
        <path id="Path_17639" data-name="Path 17639" d="M149.121,106.934h-2l1.739-9.382h2Z" transform="translate(85.679 56.812)" fill="#b5e3fc"/>
        <path id="Path_17640" data-name="Path 17640" d="M150.845,106.156h-2l1.348-7.268h2Z" transform="translate(86.683 57.59)" fill="#b5e3fc"/>
        <path id="Path_17641" data-name="Path 17641" d="M152.569,106.27h-2l1.405-7.58h2Z" transform="translate(87.687 57.475)" fill="#b5e3fc"/>
        <path id="Path_17642" data-name="Path 17642" d="M154.292,105.6h-2l1.068-5.765h2Z" transform="translate(88.691 58.143)" fill="#b5e3fc"/>
        <path id="Path_17643" data-name="Path 17643" d="M156.016,105.757h-2l1.147-6.186h2Z" transform="translate(89.695 57.989)" fill="#b5e3fc"/>
        <path id="Path_17644" data-name="Path 17644" d="M157.739,105.246h-2l.889-4.8h2Z" transform="translate(90.698 58.5)" fill="#b5e3fc"/>
        <path id="Path_17645" data-name="Path 17645" d="M166.047,106.934h-2l1.739-9.382h2Z" transform="translate(95.537 56.812)" fill="#28acde"/>
        <path id="Path_17646" data-name="Path 17646" d="M167.771,106.156h-2l1.347-7.268h2Z" transform="translate(96.541 57.59)" fill="#28acde"/>
        <path id="Path_17647" data-name="Path 17647" d="M169.495,106.27h-2l1.405-7.58h2Z" transform="translate(97.544 57.475)" fill="#28acde"/>
        <path id="Path_17648" data-name="Path 17648" d="M171.218,105.6h-2l1.068-5.765h2Z" transform="translate(98.548 58.143)" fill="#28acde"/>
        <path id="Path_17649" data-name="Path 17649" d="M172.942,105.757h-2l1.147-6.186h2Z" transform="translate(99.552 57.989)" fill="#28acde"/>
        <path id="Path_17650" data-name="Path 17650" d="M174.665,105.246h-2l.889-4.8h2Z" transform="translate(100.556 58.5)" fill="#28acde"/>
        <path id="Path_17651" data-name="Path 17651" d="M173.8,84.455h-6.518l.168-.892h6.518Z" transform="translate(97.422 48.665)" fill="#b5e3fc"/>
        <path id="Path_17652" data-name="Path 17652" d="M179.1,84.455h-7.2l.168-.892h7.2Z" transform="translate(100.115 48.665)" fill="#b5e3fc"/>
        <path id="Path_17653" data-name="Path 17653" d="M181.385,84.455H176.8l.168-.892h4.587Z" transform="translate(102.963 48.665)" fill="#b5e3fc"/>
        <path id="Path_17654" data-name="Path 17654" d="M183.706,84.455h-3.54l.168-.892h3.54Z" transform="translate(104.925 48.665)" fill="#b5e3fc"/>
        <path id="Path_17655" data-name="Path 17655" d="M173.349,86.862h-6.518l.168-.892h6.518Z" transform="translate(97.159 50.067)" fill="#b5e3fc"/>
        <path id="Path_17656" data-name="Path 17656" d="M178.652,86.862h-7.2l.168-.892h7.2Z" transform="translate(99.852 50.067)" fill="#b5e3fc"/>
        <path id="Path_17657" data-name="Path 17657" d="M180.933,86.862h-4.587l.168-.892H181.1Z" transform="translate(102.7 50.067)" fill="#b5e3fc"/>
        <path id="Path_17658" data-name="Path 17658" d="M183.254,86.862h-3.54l.168-.892h3.54Z" transform="translate(104.662 50.067)" fill="#b5e3fc"/>
        <path id="Path_17659" data-name="Path 17659" d="M177.53,83.138h-10l.168-.892h10Z" transform="translate(97.567 47.898)" fill="#b5e3fc"/>
        <path id="Path_17660" data-name="Path 17660" d="M180.216,83.138h-5.765l.168-.892h5.765Z" transform="translate(101.597 47.898)" fill="#b5e3fc"/>
        <path id="Path_17661" data-name="Path 17661" d="M185.01,83.138h-6.4l.168-.892h6.4Z" transform="translate(104.018 47.898)" fill="#b5e3fc"/>
        <path id="Path_17662" data-name="Path 17662" d="M177.05,85.7h-10l.168-.892h10Z" transform="translate(97.287 49.389)" fill="#b5e3fc"/>
        <path id="Path_17663" data-name="Path 17663" d="M179.736,85.7h-5.765l.168-.892H179.9Z" transform="translate(101.317 49.389)" fill="#b5e3fc"/>
        <path id="Path_17664" data-name="Path 17664" d="M184.529,85.7h-6.4l.168-.892h6.4Z" transform="translate(103.738 49.389)" fill="#b5e3fc"/>
        <path id="Path_17665" data-name="Path 17665" d="M172.9,89.269h-6.518l.168-.892h6.518Z" transform="translate(96.896 51.469)" fill="#b5e3fc"/>
        <path id="Path_17666" data-name="Path 17666" d="M178.2,89.269H171l.168-.892h7.2Z" transform="translate(99.589 51.469)" fill="#b5e3fc"/>
        <path id="Path_17667" data-name="Path 17667" d="M180.481,89.269h-4.587l.168-.892h4.587Z" transform="translate(102.437 51.469)" fill="#b5e3fc"/>
        <path id="Path_17668" data-name="Path 17668" d="M182.8,89.269h-3.54l.166-.892h3.541Z" transform="translate(104.399 51.469)" fill="#b5e3fc"/>
        <path id="Path_17669" data-name="Path 17669" d="M176.6,88.105h-10l.168-.892h10Z" transform="translate(97.023 50.791)" fill="#b5e3fc"/>
        <path id="Path_17670" data-name="Path 17670" d="M179.284,88.105h-5.765l.168-.892h5.765Z" transform="translate(101.054 50.791)" fill="#b5e3fc"/>
        <path id="Path_17671" data-name="Path 17671" d="M184.077,88.105h-6.4l.168-.892h6.4Z" transform="translate(103.475 50.791)" fill="#b5e3fc"/>
        <path id="Path_17672" data-name="Path 17672" d="M172.473,91.526h-6.518l.168-.892h6.518Z" transform="translate(96.649 52.783)" fill="#b5e3fc"/>
        <path id="Path_17673" data-name="Path 17673" d="M177.776,91.526h-7.2l.168-.892h7.2Z" transform="translate(99.342 52.783)" fill="#b5e3fc"/>
        <path id="Path_17674" data-name="Path 17674" d="M180.057,91.526H175.47l.168-.892h4.587Z" transform="translate(102.19 52.783)" fill="#b5e3fc"/>
        <path id="Path_17675" data-name="Path 17675" d="M182.379,91.526h-3.54l.168-.892h3.54Z" transform="translate(104.152 52.783)" fill="#b5e3fc"/>
        <path id="Path_17676" data-name="Path 17676" d="M176.174,90.362h-10l.168-.892h10Z" transform="translate(96.777 52.105)" fill="#b5e3fc"/>
        <path id="Path_17677" data-name="Path 17677" d="M178.86,90.362H173.1l.168-.892h5.765Z" transform="translate(100.807 52.105)" fill="#b5e3fc"/>
        <path id="Path_17678" data-name="Path 17678" d="M183.653,90.362h-6.4l.168-.892h6.4Z" transform="translate(103.228 52.105)" fill="#b5e3fc"/>
        <path id="Path_17679" data-name="Path 17679" d="M161.875,98.594h-3.19l.082-.437h3.19Z" transform="translate(92.415 57.165)" fill="#b5e3fc"/>
        <path id="Path_17680" data-name="Path 17680" d="M164.471,98.594h-3.522l.082-.437h3.522Z" transform="translate(93.733 57.165)" fill="#b5e3fc"/>
        <path id="Path_17681" data-name="Path 17681" d="M161.654,99.773h-3.19l.082-.437h3.19Z" transform="translate(92.286 57.851)" fill="#b5e3fc"/>
        <path id="Path_17682" data-name="Path 17682" d="M164.25,99.773h-3.522l.082-.437h3.522Z" transform="translate(93.604 57.851)" fill="#b5e3fc"/>
        <path id="Path_17683" data-name="Path 17683" d="M163.7,97.95h-4.894l.082-.437h4.894Z" transform="translate(92.486 56.79)" fill="#b5e3fc"/>
        <path id="Path_17684" data-name="Path 17684" d="M165.015,97.95h-2.821l.082-.437H165.1Z" transform="translate(94.458 56.79)" fill="#b5e3fc"/>
        <path id="Path_17685" data-name="Path 17685" d="M163.465,99.2h-4.894l.082-.437h4.894Z" transform="translate(92.349 57.519)" fill="#b5e3fc"/>
        <path id="Path_17686" data-name="Path 17686" d="M164.78,99.2h-2.821l.082-.437h2.821Z" transform="translate(94.321 57.519)" fill="#b5e3fc"/>
        <path id="Path_17687" data-name="Path 17687" d="M178.025,98.594h-3.19l.082-.437h3.19Z" transform="translate(101.82 57.165)" fill="#b5e3fc"/>
        <path id="Path_17688" data-name="Path 17688" d="M180.62,98.594H177.1l.082-.437H180.7Z" transform="translate(103.138 57.165)" fill="#b5e3fc"/>
        <path id="Path_17689" data-name="Path 17689" d="M177.8,99.773h-3.19l.082-.437h3.19Z" transform="translate(101.691 57.851)" fill="#b5e3fc"/>
        <path id="Path_17690" data-name="Path 17690" d="M180.4,99.773h-3.522l.082-.437h3.522Z" transform="translate(103.009 57.851)" fill="#b5e3fc"/>
        <path id="Path_17691" data-name="Path 17691" d="M179.85,97.95h-4.894l.082-.437h4.894Z" transform="translate(101.891 56.79)" fill="#b5e3fc"/>
        <path id="Path_17692" data-name="Path 17692" d="M181.165,97.95h-2.821l.082-.437h2.821Z" transform="translate(103.863 56.79)" fill="#b5e3fc"/>
        <path id="Path_17693" data-name="Path 17693" d="M179.615,99.2h-4.894l.082-.437H179.7Z" transform="translate(101.754 57.519)" fill="#b5e3fc"/>
        <path id="Path_17694" data-name="Path 17694" d="M180.929,99.2h-2.821l.082-.437h2.821Z" transform="translate(103.726 57.519)" fill="#b5e3fc"/>
        <path id="Path_17695" data-name="Path 17695" d="M192.988,152.328c-.112,1.527-2.266,1.543-4.711,1.26s-1.794.335-5.217.383-4.6-1.084-4.768-1.573c-.147-.434,1.5-.8,3.264-1.228.222-.054.445-.111.668-.166,1.987-.5,3.3-1.994,5.005-3.293,1.612-1.231,3.69-5.685,3.69-5.685l4.676-.212s-1.97,3.994-2.709,5.716a5.626,5.626,0,0,0-.06,3.211,6.018,6.018,0,0,1,.161,1.589" transform="translate(103.828 82.589)" fill="#ffa77d"/>
        <path id="Path_17696" data-name="Path 17696" d="M188.278,150.3c-2.445-.283-1.794.335-5.217.383s-4.6-1.084-4.768-1.573c-.147-.434,1.5-.8,3.264-1.228l.021.032a9.58,9.58,0,0,0,5.022.9c2.3-.229,4.641-1.188,6.225-1.361a6.018,6.018,0,0,1,.163,1.589c-.112,1.527-2.266,1.543-4.711,1.26" transform="translate(103.829 85.874)" fill="#204965"/>
        <path id="Path_17697" data-name="Path 17697" d="M213.394,153.679c-.111,1.527-2.264,1.546-4.709,1.264s-1.794.337-5.217.388-4.6-1.079-4.769-1.568c-.147-.434,1.5-.8,3.263-1.231.222-.054.445-.109.668-.166,1.987-.508,3.3-2,5-3.3,1.611-1.233,0-8.531,0-8.531l5.143-.5s-.247,6.144-.244,8.937a15.7,15.7,0,0,0,.7,3.117,6,6,0,0,1,.163,1.587" transform="translate(115.712 81.555)" fill="#ffa77d"/>
        <path id="Path_17698" data-name="Path 17698" d="M208.685,150.506c-2.445-.282-1.794.337-5.217.388s-4.6-1.079-4.769-1.568c-.147-.434,1.5-.8,3.263-1.231l.022.032a9.6,9.6,0,0,0,5.022.9c2.3-.233,4.64-1.195,6.225-1.367a6,6,0,0,1,.163,1.587c-.111,1.527-2.264,1.546-4.709,1.264" transform="translate(115.712 85.991)" fill="#204965"/>
        <path id="Path_17699" data-name="Path 17699" d="M198.607,72.628c-.885-3.641.4-5.337,1.555-6.239a5.527,5.527,0,0,1,1.817-2.671,6.58,6.58,0,0,1,3.549-.679,1.661,1.661,0,0,0-.748-.354,5.5,5.5,0,0,1,1.964.513c8.45-3.257,9.778,9.186,9.6,12.075s-.153,6.295,4.244,8.572c8.387,4.347-2.788,20.721-2.788,20.721.214-2.336-10.564-14.662-16.188-18.354a16.254,16.254,0,0,1-1.891-5.855,15.345,15.345,0,0,0,1.15,5.3c-2.563-2.358-2.943-8.023-2.264-13.025" transform="translate(115.492 36.491)" fill="#204965"/>
        <path id="Path_17700" data-name="Path 17700" d="M200.608,80.723c-.029.013,2.715,1.437,4.779.872,1.94-.529,3.209-3.044,3.182-3.051-.823-.163-1.06-1.293-1.043-6.146l-.37.073-6.247,1.237s.141,1.967.146,3.818c0,1.555-.09,3.03-.446,3.2" transform="translate(116.83 42.163)" fill="#ffa77d"/>
        <path id="Path_17701" data-name="Path 17701" d="M200.8,73.681s.142,1.967.146,3.818c3.5-.1,5.345-3.288,6.1-5.056Z" transform="translate(116.94 42.19)" fill="#ed8b5d"/>
        <path id="Path_17702" data-name="Path 17702" d="M184.76,169.144a1.533,1.533,0,0,0,1.389,2l2.44.114,2.582.079a2.073,2.073,0,0,0,1.673-.763,72.639,72.639,0,0,0,12.254-23.2q.164-.515.343-1.043c2.541-7.412,7.812-16.715,10.588-25.136.443-1.34.839-2.6,1.2-3.8q.171-.574.331-1.13A89.292,89.292,0,0,0,220.74,99.5l-20.05.16a441.71,441.71,0,0,1-15.93,69.487" transform="translate(107.558 57.945)" fill="#2b5c8b"/>
        <path id="Path_17703" data-name="Path 17703" d="M197.644,101.881c.051,9.542-1.4,13.635-1.4,13.635a26.948,26.948,0,0,0,18.789,1.15c.12-.038,7.3-2.07,7.3-2.07-.171-.386-1.59-6.771-1.756-7.125-2.154-4.625-2.741-6.568-3-7.991a30.307,30.307,0,0,1-.248-7.994,64.183,64.183,0,0,1,2.475-12.553,65.215,65.215,0,0,1-8.277-2.829,6.467,6.467,0,0,1-4.465,1.655c-2.033-.044-2.692-.915-2.586-1.864-2.166,1.206-3.894,2.344-3.894,2.344-1.842,3.2-5.575,6.3-5.845,11.208-.066,1.206,2.9,12.167,2.905,12.434" transform="translate(113.411 44.2)" fill="#fff"/>
        <path id="Path_17704" data-name="Path 17704" d="M208.581,99.092c.877,1.241,2.557,8.781,6.738,9.728-2.154-5.374-3.79-7.73-4.046-9.382a40.828,40.828,0,0,1-.248-9.285c-1.4-2.454-2.443-4.135-2.443-4.135-.109-.4-2.225-6.934-2.9-1.092s1.923,12.778,2.9,14.165" transform="translate(119.718 48.052)" fill="#4b9ba9"/>
        <path id="Path_17705" data-name="Path 17705" d="M201.073,79.471s8.271.136,8.277-5.016,1.078-8.6-4.2-8.91-6.309,1.661-6.73,3.38.5,10.379,2.657,10.547" transform="translate(115.496 38.154)" fill="#ffa77d"/>
        <path id="Path_17706" data-name="Path 17706" d="M200.253,65.839s2.264,6.045,5.741,6.939,4.983-.038,4.983-.038a9.842,9.842,0,0,1-3.22-5.815s-5.795-3.962-7.5-1.086" transform="translate(116.623 37.734)" fill="#204965"/>
        <path id="Path_17707" data-name="Path 17707" d="M202.148,66.127a7.3,7.3,0,0,0-2.1,2.662c-.413,1.312-.6,4.013-1.386,3.921,0,0-1.706-4.108.212-6.432,2.033-2.465,3.277-.15,3.277-.15" transform="translate(115.288 37.937)" fill="#204965"/>
        <path id="Path_17708" data-name="Path 17708" d="M193.272,96.5l-3.907,11.911,2.228.894,6.459-10.523Z" transform="translate(110.282 56.201)" fill="#ffa77d"/>
        <path id="Path_17709" data-name="Path 17709" d="M202.725,76.933s-4.606,1.828-5.94,4.678-3.351,21.967-4.155,23.93-1.408,3.518-1.408,3.518a9.612,9.612,0,0,0,4.659,2.1c2.336.144,6.845-34.225,6.845-34.225" transform="translate(111.363 44.804)" fill="#28a1de"/>
        <path id="Path_17710" data-name="Path 17710" d="M205.5,75.9s-4.785,11.822-4.926,14.215-.563,39.128-.563,39.128.282,1.688-2.956.984-4.081-1.407-4.081-1.407,3.1-22.66,2.252-30.541S201.7,77.538,201.7,77.538Z" transform="translate(112.386 44.2)" fill="#28a1de"/>
        <path id="Path_17711" data-name="Path 17711" d="M187.154,165.909l2.8.085a1.617,1.617,0,0,0,1.3-.587,72.336,72.336,0,0,0,12.4-23.384q.164-.515.343-1.043c2.541-7.412,7.811-16.715,10.588-25.136.443-1.34.839-2.6,1.195-3.8.114-.383.226-.76.331-1.13l-2.953-2.241s-8.865,14.357-11.61,27.866c-2.383,11.735-11.931,25.856-14.4,29.367" transform="translate(108.995 63.291)" fill="#234662"/>
        <path id="Path_17712" data-name="Path 17712" d="M204.123,139.2c-.047,6.216.247,20.068,1,26.84a1.224,1.224,0,0,0,1.217,1.087h2.092c.881,0,1.541-.006,1.98-.013a.806.806,0,0,0,.777-.65c2.081-10.588,3.57-19.383,4.66-26.983.911-6.361,1.722-11.816,2.345-16.511.628-4.725,1.065-8.681,1.22-12.023q.038-.79.052-1.536c.011-.5.013-.984.01-1.456l-17.325-1.69c.218,11.512,2,29.116,1.97,32.934" transform="translate(117.73 61.889)" fill="#2b5c8b"/>
        <path id="Path_17713" data-name="Path 17713" d="M206.123,165.407c.793,0,1.405,0,1.839-.011a.976.976,0,0,0,.945-.788c2.067-10.526,3.548-19.28,4.632-26.847.913-6.361,1.723-11.816,2.347-16.511.628-4.725,1.063-8.681,1.22-12.023l-6.356,3.739s4.057,1.43,2.51,12.268-4.98,38.637-7.135,40.172" transform="translate(120.042 63.612)" fill="#234662"/>
        <path id="Path_17714" data-name="Path 17714" d="M207.785,128.444s1.22,4.41,5.442,3.847a50.888,50.888,0,0,0,10.227-3.1s-1.8-5.7-4.048-13.192c-2.717-9.067-6.078-20.758-7.663-28.132a45.5,45.5,0,0,1-.861-5.027l-3.5-6.8s-5.223,11.722-5.505,14.678,5.912,37.719,5.912,37.719" transform="translate(117.561 44.288)" fill="#28a1de"/>
        <path id="Path_17715" data-name="Path 17715" d="M214.277,90.285l-4.624-14.238a71.463,71.463,0,0,1,8.771,3.215s1.831,2.362,2.965,7.811c0,0,1.2,13.083-1.476,17.868,0,0-8.445,1.688-21.956-2.956v-3.1s14.778.774,17.8,1.127Z" transform="translate(115.287 44.288)" fill="#ffa77d"/>
        <path id="Path_17716" data-name="Path 17716" d="M205.726,92.565c.187,4.785,1.313,14.074,11.352,19.047.027.013.055.027.082.038-2.719-9.069-6.081-20.759-7.665-28.132-1.843,2.755-3.872,6.412-3.769,9.046" transform="translate(119.809 48.64)" fill="#1889b5"/>
        <path id="Path_17717" data-name="Path 17717" d="M205.531,76.047s8.57.6,10.635,5.2,2.72,19.892.093,24.4c0,0-3.617,1.03-10.015-.166l-.236-.046s-2.041-5-.212-5.981c0,0,5.4.282,4.833-1.5s-5.1-21.9-5.1-21.9" transform="translate(119.409 44.288)" fill="#28a1de"/>
        <path id="Path_17718" data-name="Path 17718" d="M191.77,93.3l.252.812,14.064-4.375a.542.542,0,0,0,.095-.5.4.4,0,0,0-.348-.315Z" transform="translate(111.683 51.789)" fill="#204965"/>
        <path id="Path_17719" data-name="Path 17719" d="M191.127,92.458l1.017-.767.252.812Z" transform="translate(111.308 53.398)" fill="#204965"/>
        <path id="Path_17720" data-name="Path 17720" d="M191.285,103.824s-3.568,1.972-4.037,3.473-.147,4.647.419,4.6,1.412-3.38,1.88-3.614,1.127-.938,1.127-.423-.468,1.456-.234,1.6.986-1.315,1.5-1.6.734-2.6,1.236-3.226-1.893-.81-1.893-.81" transform="translate(108.918 60.465)" fill="#ffa77d"/>
        <path id="Path_17721" data-name="Path 17721" d="M200.928,91.106s-3.19-1.965-4.529-1.663-4.749,2.774-3.108,3.309,2.969-.027,3.6.361,1.1,1.1,4.037,1.09,0-3.1,0-3.1" transform="translate(112.315 52.071)" fill="#ffa77d"/>
        <g id="Group_2228" data-name="Group 2228" transform="translate(175.423 164.187)" opacity="0.6">
          <g id="Group_2227" data-name="Group 2227">
            <g id="Group_2226" data-name="Group 2226" clip-path="url(#clip-path-3)">
              <path id="Path_17722" data-name="Path 17722" d="M121.2,162.893h-.052a.552.552,0,0,1-.552-.565l.837-36.308,2.467-.288-2.1,36.6a.6.6,0,0,1-.6.563" transform="translate(-105.189 -90.964)" fill="#6ca3ea"/>
              <path id="Path_17723" data-name="Path 17723" d="M112.116,162.893h-.052a.552.552,0,0,1-.552-.565l.837-36.308,2.467-.288-2.1,36.6a.6.6,0,0,1-.6.563" transform="translate(-110.481 -90.964)" fill="#6ca3ea"/>
              <path id="Path_17724" data-name="Path 17724" d="M137.962,162.893h.052a.552.552,0,0,0,.552-.565l-.837-36.308-2.467-.288,2.1,36.6a.6.6,0,0,0,.6.563" transform="translate(-96.649 -90.964)" fill="#6ca3ea"/>
              <path id="Path_17725" data-name="Path 17725" d="M110.86,136.566v-24.88a7.927,7.927,0,0,1,7.926-7.926h17.925a7.926,7.926,0,0,1,7.926,7.926v25.831Z" transform="translate(-110.86 -103.76)" fill="#6ca3ea"/>
              <path id="Path_17726" data-name="Path 17726" d="M147.85,128.419H113.24a2.38,2.38,0,0,1-2.38-2.38v-1.548h36.99Z" transform="translate(-110.86 -91.686)" fill="#6ca3ea"/>
              <path id="Path_17727" data-name="Path 17727" d="M147.141,128.419H120.958a1.76,1.76,0,0,1-1.76-1.76v-.408a1.76,1.76,0,0,1,1.76-1.76h26.184a1.76,1.76,0,0,1,1.76,1.76v.408a1.76,1.76,0,0,1-1.76,1.76" transform="translate(-106.004 -91.686)" fill="#6ca3ea"/>
            </g>
          </g>
        </g>
        <path id="Path_17728" data-name="Path 17728" d="M150.429,143.282c.25,1.25,2.033,1.041,4.024.555s1.518.092,4.353-.222,3.692-1.372,3.779-1.793c.078-.373-1.323-.5-2.825-.679-.19-.021-.38-.044-.57-.068-1.7-.212-2.937-1.307-4.478-2.206-1.459-.851-3.636-4.32-3.636-4.32l-3.888.309s2.04,3.1,2.829,4.445a4.693,4.693,0,0,1,.381,2.649,4.988,4.988,0,0,0,.03,1.329" transform="translate(85.719 78.359)" fill="#ffa77d"/>
        <path id="Path_17729" data-name="Path 17729" d="M153.282,141.409c1.992-.486,1.518.092,4.353-.222s3.692-1.37,3.779-1.793c.078-.373-1.323-.5-2.825-.679l-.014.03a8,8,0,0,1-4.059,1.261c-1.924.046-3.961-.5-5.288-.483a4.988,4.988,0,0,0,.03,1.329c.25,1.25,2.032,1.043,4.024.555" transform="translate(86.89 80.785)" fill="#204965"/>
        <path id="Path_17730" data-name="Path 17730" d="M128.21,146.547c-.772,1.014.563,2.214,2.245,3.385s.935,1.2,3.046,3.117,3.47,1.862,3.844,1.649c.332-.19-.5-1.326-1.359-2.568-.109-.155-.218-.313-.326-.47-.962-1.413-.962-3.068-1.309-4.818-.326-1.658,2.382-7.749,2.382-7.749l-4.35-.548a48.388,48.388,0,0,1-1.055,5.162c-.288.872-1.5,1.446-2.139,1.938a5.033,5.033,0,0,0-.978.9" transform="translate(74.536 80.686)" fill="#ffa77d"/>
        <path id="Path_17731" data-name="Path 17731" d="M130.455,147.32c1.682,1.171.935,1.2,3.046,3.117s3.47,1.862,3.844,1.649c.331-.19-.5-1.328-1.359-2.568l-.032.009a7.99,7.99,0,0,1-3.632-2.211c-1.307-1.41-2.241-3.3-3.135-4.283a4.984,4.984,0,0,0-.978.9c-.772,1.014.563,2.214,2.245,3.385" transform="translate(74.536 83.299)" fill="#204965"/>
        <path id="Path_17732" data-name="Path 17732" d="M144.713,126.428l-3.972,10.686-5.184,13.953a8.4,8.4,0,0,1-2.755-.252,11.922,11.922,0,0,1-2.665-1.3s1.44-14.982,4.125-23.582a15.316,15.316,0,0,1,2.312-5c4.163-4.92,8.138,5.489,8.138,5.489" transform="translate(75.79 69.663)" fill="#094163"/>
        <path id="Path_17733" data-name="Path 17733" d="M150.936,113.983c-2.6-.839-10.444-.339-17.9,1.12l-1.141-2-16.1-1.258s-5.314,11.782-2.405,19.291a2.725,2.725,0,0,0,2.726,1.834h.234s9.583-.006,12.7-.006c8.007,0,16.946-5.5,18.1-5.735,1.893-.378,2.649,3.407,4.541,7.382s17.794,17.6,17.794,17.6a14,14,0,0,0,3.451-.354,3.41,3.41,0,0,0,1.483-.937s-17.617-35.05-23.483-36.942" transform="translate(65.53 65.138)" fill="#2b5c8b"/>
        <path id="Path_17734" data-name="Path 17734" d="M128.56,81.924a16.969,16.969,0,0,0-5.855.153c-6.114.714-7.481,10.213-7.026,12.868.837,4.9-1.514,6.276-4.32,10.192-5.627,7.852-1.741,14.317,2.84,15.919,2.749.962,6.493-1.655,6.493-1.655.07.025,9.722-9.19,14.5-13.667,8.026-3.309-.854-22.435-6.63-23.81" transform="translate(63.229 47.585)" fill="#204965"/>
        <path id="Path_17735" data-name="Path 17735" d="M125.155,98.716c.028.009-2.489,1.655-4.541,1.309-1.931-.324-3.973-2.844-3.948-2.851.78-.237,1.47-1.149.983-5.847l.367.035,6.17.592s.052,1.918.228,3.712c.147,1.5.381,2.924.742,3.051" transform="translate(67.943 53.186)" fill="#ffa77d"/>
        <path id="Path_17736" data-name="Path 17736" d="M123.688,91.94s.054,1.918.228,3.711c-3.394.244-5.492-2.665-6.4-4.3Z" transform="translate(68.44 53.199)" fill="#ed8b5d"/>
        <path id="Path_17737" data-name="Path 17737" d="M125.571,97.614s-8,.934-8.5-4.054-1.878-8.227,3.206-9.034,6.269,1,6.844,2.619.517,10.1-1.549,10.469" transform="translate(67.857 49.11)" fill="#ffa77d"/>
        <path id="Path_17738" data-name="Path 17738" d="M127.02,84.858s-3.861,5.527-7.14,6.73-4.828.446-4.828.446a13.571,13.571,0,0,0,2.079-5.116,2.439,2.439,0,0,1,1.6-1.893c2.351-.821,6.883-2.078,8.293-.168" transform="translate(67.004 48.835)" fill="#204965"/>
        <path id="Path_17739" data-name="Path 17739" d="M120.6,85.274a12.6,12.6,0,0,1,2.888,2.233,9.647,9.647,0,0,1,1.522,4.91s1.3-5.674-.782-7.738c-2.207-2.19-3.628.595-3.628.595" transform="translate(70.234 48.826)" fill="#204965"/>
        <path id="Path_17740" data-name="Path 17740" d="M133.795,110.053c-.241,16.15-.066,12.775-1.832,14.308a6.8,6.8,0,0,1-3.2.693c-4.951.329-13.658-.487-13.988-1.4-1.142-3.168-.335-4.151-1.288-9-.1-.516-.223-1.074-.367-1.682-.794-3.329-1.568-4.462,1.25-9.812,2.557-4.845,5.318-8.716,5.557-8.573,6.744,4,7.182.576,7.182.576s6.8,7.015,6.684,14.892" transform="translate(65.451 55.082)" fill="#fff"/>
        <path id="Path_17741" data-name="Path 17741" d="M140.808,134.79l-5.3,14.534a8.938,8.938,0,0,1-3.293.419,4.127,4.127,0,0,1-2.188-.976s1.62-16.555,4.306-25.155Z" transform="translate(75.723 71.989)" fill="#2b5c8b"/>
        <path id="Path_17742" data-name="Path 17742" d="M121.692,94.948s6.94,1.177,7.755,4.165,6.774,19.454,6.774,19.454-4.692,1.734-6.322.1-5.671-15.121-5.671-15.121Z" transform="translate(70.871 55.296)" fill="#fff"/>
        <path id="Path_17743" data-name="Path 17743" d="M128.36,119.613c-4.954.329-13.659-.487-13.99-1.4-1.142-3.166-.334-4.151-1.29-9l2.323-5.288s-.329,6.053,1.881,8.023,9.042,3.8,10.118,5.448a6.063,6.063,0,0,1,.957,2.218" transform="translate(65.856 60.523)" fill="#dceaff"/>
        <path id="Path_17744" data-name="Path 17744" d="M122.991,111.661a11.043,11.043,0,0,0,1.894,1.375,1.165,1.165,0,0,0,.658.008l-1.074-1.26Z" transform="translate(71.627 65.029)" fill="#ffa77d"/>
        <path id="Path_17745" data-name="Path 17745" d="M122.622,110.714l3.734.964a.619.619,0,0,1-.519.332,8.323,8.323,0,0,1-1.557-.108Z" transform="translate(71.412 64.478)" fill="#ffa77d"/>
        <path id="Path_17746" data-name="Path 17746" d="M118.621,112.783s5.331-2.372,6.331-2.059a13.35,13.35,0,0,1,3.97,2.245c.4.571-2.1-.071-2.883-.12a6.73,6.73,0,0,0-2.268,1,8.041,8.041,0,0,1-4.162,1.285Z" transform="translate(69.082 64.467)" fill="#ffa77d"/>
        <path id="Path_17747" data-name="Path 17747" d="M123.011,94.584s-7.543,1.415-8.94,3.507c-3.048,4.56-9.537,23.46-5.9,25.994,4.094,2.855,18.628.747,18.628.747s.484-2.261-.188-3.355-11.61-2.861-12.115-3.364,4.986-7.8,4.4-9.2c-1.874-4.475,4.117-14.327,4.117-14.327" transform="translate(62.368 55.084)" fill="#fff"/>
        <path id="Path_17748" data-name="Path 17748" d="M136.24,111.5s5.279,1.426,5.822,2.245a12.583,12.583,0,0,1,1.56,3.977c-.046.655-1.487-1.293-2.027-1.791a6.343,6.343,0,0,0-2.237-.612,6.682,6.682,0,0,1-2.915-1.329,1.591,1.591,0,0,0-.872-.2Z" transform="translate(78.954 64.938)" fill="#ffa77d"/>
        <path id="Path_17749" data-name="Path 17749" d="M139.381,113.831a10.38,10.38,0,0,0,.565,2.119,1.1,1.1,0,0,0,.475.4l-.038-1.552Z" transform="translate(81.173 66.293)" fill="#ffa77d"/>
        <path id="Path_17750" data-name="Path 17750" d="M139.673,112.924l2.146,2.908a.578.578,0,0,1-.573-.066,7.766,7.766,0,0,1-1.07-1Z" transform="translate(81.343 65.765)" fill="#ffa77d"/>
        <path id="Path_17751" data-name="Path 17751" d="M136.122,113.078a3.322,3.322,0,0,0,1.467,1.614c.976.426,1.693,1.065,1.85.835s-.739-1.442-.739-1.442Z" transform="translate(79.275 65.854)" fill="#ffa77d"/>
        <path id="Path_17752" data-name="Path 17752" d="M131.8,107.413l11.1,7.018a9.171,9.171,0,0,1-1.555,1.7c-2.056.753-11.3.032-14.466-4.722Z" transform="translate(73.892 62.555)" fill="#fff"/>
        <path id="Path_17753" data-name="Path 17753" d="M127.309,112.4c.654,0,7.17-.451,7.17-.451a3.077,3.077,0,0,0,.215,1.772l-6.349,1.215-1.307-.383Z" transform="translate(73.984 65.196)" fill="#fffaf5"/>
        <path id="Path_17754" data-name="Path 17754" d="M120.519,113.281l10.868-1.048s-.383,2.011,1.036,2.537l-11.982.875a1.878,1.878,0,0,1,.078-2.364" transform="translate(69.906 65.362)" fill="#28a1de"/>
        <path id="Path_17755" data-name="Path 17755" d="M134.432,112.118l-7.345.565s.054-.253.191-.256,7.3-.524,7.3-.524l-.025.2Z" transform="translate(74.013 65.17)" fill="#28a1de"/>
        <path id="Path_17756" data-name="Path 17756" d="M128.042,114.35l6.467-1.229-.059-.168-6.894,1.321Z" transform="translate(74.286 65.781)" fill="#28a1de"/>
        <path id="Path_17757" data-name="Path 17757" d="M59.874,164.451h-.059a.614.614,0,0,1-.612-.631l.929-40.541,2.739-.321-2.336,40.865a.664.664,0,0,1-.661.628" transform="translate(34.479 71.608)" fill="#6abeea"/>
        <path id="Path_17758" data-name="Path 17758" d="M49.786,164.451h-.059a.614.614,0,0,1-.612-.631l.929-40.541,2.739-.321-2.336,40.865a.664.664,0,0,1-.661.628" transform="translate(28.603 71.608)" fill="#6abeea"/>
        <path id="Path_17759" data-name="Path 17759" d="M78.478,164.451h.059a.614.614,0,0,0,.612-.631l-.929-40.541-2.739-.321,2.336,40.865a.664.664,0,0,0,.661.628" transform="translate(43.959 71.608)" fill="#6abeea"/>
        <path id="Path_17760" data-name="Path 17760" d="M48.392,135.054v-27.78a8.825,8.825,0,0,1,8.8-8.85h19.9a8.825,8.825,0,0,1,8.8,8.85v28.842Z" transform="translate(28.182 57.32)" fill="#6abeea"/>
        <path id="Path_17761" data-name="Path 17761" d="M89.455,125.958H51.042a2.651,2.651,0,0,1-2.65-2.65v-1.736H89.455Z" transform="translate(28.182 70.801)" fill="#6abeea"/>
        <path id="Path_17762" data-name="Path 17762" d="M88.663,125.958H59.609A1.96,1.96,0,0,1,57.648,124v-.467a1.961,1.961,0,0,1,1.961-1.961H88.663a1.96,1.96,0,0,1,1.959,1.961V124a1.958,1.958,0,0,1-1.959,1.959" transform="translate(33.573 70.801)" fill="#6abeea"/>
        <path id="Path_17763" data-name="Path 17763" d="M68.13,91.939s-1.666,1.416-2.027,5.09c-.275,2.791,1.66,24.451,3.117,26.173,4.1,4.844,9.233,2.8,11.244,3.532l1.9-1.706s-6.671-4.924-7.179-6.53c-1.956-6.186-.744-24.223-7.053-26.559" transform="translate(38.481 53.543)" fill="#fffaf5"/>
        <path id="Path_17764" data-name="Path 17764" d="M72.179,82.613s.112-3.972-5.127-4.752-6.686.446-7.576,1.782-2.562,6.792-2.394,8.963,6.143,4.856,6.045,6.124,9.053-12.116,9.053-12.116" transform="translate(33.236 45.202)" fill="#094163"/>
        <path id="Path_17765" data-name="Path 17765" d="M82.118,150.536c-.169,1.342,1.662,1.737,3.791,1.924s1.468.608,4.374,1.255,4.1-.125,4.331-.521c.2-.35-1.138-.957-2.565-1.641-.179-.085-.359-.172-.538-.261-1.6-.79-2.467-2.312-3.69-3.738-1.157-1.351-2.152-5.579-2.152-5.579l-3.943-1.01s.983,3.807,1.313,5.431a5.08,5.08,0,0,1-.506,2.793,5.3,5.3,0,0,0-.415,1.347" transform="translate(47.596 82.096)" fill="#ffa77d"/>
        <path id="Path_17766" data-name="Path 17766" d="M85.769,149.434c2.13.187,1.47.608,4.374,1.255s4.106-.125,4.333-.521c.2-.35-1.139-.957-2.565-1.641l-.024.024a8.185,8.185,0,0,1-4.431-.108c-1.916-.606-3.744-1.851-5.064-2.28a5.425,5.425,0,0,0-.415,1.347c-.169,1.342,1.662,1.737,3.791,1.924" transform="translate(47.736 85.122)" fill="#204965"/>
        <path id="Path_17767" data-name="Path 17767" d="M65.445,113.793s26.359,2.734,30.7,6.769,3.571,41.628,3.571,41.628c-.677.7-1.176.685-2.245.6a14.932,14.932,0,0,1-3.116-.962s-5.646-18.458-5.716-22.732-.964-11.528-2.757-11.955-23.133,1.965-25.473-4.776a14.529,14.529,0,0,1,1.546-12.286Z" transform="translate(34.748 64.109)" fill="#1889b5"/>
        <path id="Path_17768" data-name="Path 17768" d="M55.91,131.342a12,12,0,0,0,6.583,2.057c6.106.223,13.726-.506,15.226-1.923a2.573,2.573,0,0,0,.633-1.741c.166-2.342-.953-6.2-1.7-9.387-.489-2.073-.821-3.864-.549-4.779.829-2.787,3.4-8.463,3.625-10.328s-2-11.862-5.083-13.1-14.96,0-14.96,0c-4.641.943-4.837,10.838-3.3,19.261.041.218.081.434.122.647,1.671,8.553-3.769,17.166-.6,19.292" transform="translate(31.97 53.341)" fill="#fffaf5"/>
        <path id="Path_17769" data-name="Path 17769" d="M68.237,96.2c-.084.543-1.57,1.423-4.746.585-3.043-.8-3.408-1.793-3.407-2.446,0-.775,1.323-1.82,1.305-6.586l.364.073,6.136,1.215s-.141,1.93-.144,3.749c0,1.527.63,2.506.491,3.41" transform="translate(34.992 51.104)" fill="#ffa77d"/>
        <path id="Path_17770" data-name="Path 17770" d="M67.276,89.012s-.141,1.93-.146,3.75c-3.432-.1-5.246-3.23-5.991-4.966Z" transform="translate(35.607 51.131)" fill="#ed8b5d"/>
        <path id="Path_17771" data-name="Path 17771" d="M68.767,94.7s-8.122.135-8.129-4.926-1.057-8.45,4.128-8.749,6.2,1.63,6.608,3.318-.5,10.192-2.608,10.357" transform="translate(35.262 47.168)" fill="#ffa77d"/>
        <path id="Path_17772" data-name="Path 17772" d="M69.428,81.311s-2.225,5.936-5.636,6.814-4.894-.036-4.894-.036a9.669,9.669,0,0,0,3.162-5.711s5.692-3.891,7.369-1.067" transform="translate(34.3 46.755)" fill="#094163"/>
        <path id="Path_17773" data-name="Path 17773" d="M65.2,81.593a7.165,7.165,0,0,1,2.067,2.614c.4,1.288.587,3.94,1.359,3.85,0,0,1.676-4.035-.207-6.317-2-2.419-3.219-.147-3.219-.147" transform="translate(37.973 46.955)" fill="#094163"/>
        <path id="Path_17774" data-name="Path 17774" d="M69.463,152.327c-.019,1.353,1.843,1.535,3.98,1.475s1.529.435,4.486.742,4.065-.6,4.246-1.014c.161-.37-1.237-.821-2.731-1.336l-.563-.2c-1.682-.6-2.709-2.013-4.081-3.29-1.3-1.209,1.57-7.059,1.57-7.059l-3.763-1.862s-.715,4.177-1.633,7.831c-.237.943-1.011,2.5-1.249,3.325a5.408,5.408,0,0,0-.261,1.386" transform="translate(40.454 81.408)" fill="#ffa77d"/>
        <path id="Path_17775" data-name="Path 17775" d="M56.022,124.691c1.138.761,3.01,2.94,6.421,3.062,5.632-1.28,12.043-2.772,15.859-3.662.165-2.343-.954-6.2-1.706-9.388-4.448,1.358-11.067-3.269-13.29-5.1-2.339-1.921-2.266-8.322-2.266-8.322l-4.7,4.473c.04.217.081.432.122.646,1.671,8.553-3.608,16.161-.435,18.288" transform="translate(32.022 58.986)" fill="#ede5dd"/>
        <path id="Path_17776" data-name="Path 17776" d="M73.444,149.7c2.135-.06,1.525.435,4.484.742s4.065-.6,4.246-1.014c.161-.372-1.236-.821-2.73-1.336l-.022.027a8.2,8.2,0,0,1-4.415.4c-1.97-.381-3.926-1.408-5.284-1.682a5.341,5.341,0,0,0-.261,1.386c-.021,1.353,1.843,1.535,3.981,1.475" transform="translate(40.454 85.514)" fill="#204965"/>
        <path id="Path_17777" data-name="Path 17777" d="M62.75,114.05c6.692-.19,26.68,1.405,30.521,4.3,4.727,3.564-8.776,42.1-8.776,42.1a17.307,17.307,0,0,1-2.065.095,6.618,6.618,0,0,1-3.018-.9s.052-22.683,1.63-27.021c1.457-4.01,2.351-5.428.525-5.666s-24.622,2.668-26.524-4.214a17.046,17.046,0,0,1,.71-10.35s.821,1.826,7,1.65" transform="translate(31.756 65.459)" fill="#28a1de"/>
        <path id="Path_17778" data-name="Path 17778" d="M60.266,91.944s-4.649.394-5.011,4.07c-.274,2.79-2.3,22.579-.84,24.3,4.1,4.844,17.762,5.871,19.773,6.6l.554-2.29s-14.586-7.35-14.365-9.02,4.348-24.327-.111-23.666" transform="translate(31.386 53.538)" fill="#fffaf5"/>
        <path id="Path_17779" data-name="Path 17779" d="M62.391,80.028s.334-2.119-2.606-2.666-2.994,5.7-3.309,7.2.47,2.407,1.59,2.5,4.325-7.034,4.325-7.034" transform="translate(32.85 45.034)" fill="#094163"/>
        <path id="Path_17780" data-name="Path 17780" d="M67.625,112.878s4.154-1.176,5.144-.9,4.378,2.519,3.9,3.128-3.462-.364-4.837-.18-2.437.864-3.426.717a11.5,11.5,0,0,1-2.025-.536Z" transform="translate(38.66 65.189)" fill="#ffa77d"/>
        <path id="Path_17781" data-name="Path 17781" d="M67.168,113.152a15.658,15.658,0,0,0,2.611-1.638.16.16,0,0,1,.252.028c.155.244.3.715-.413,1.185a3.828,3.828,0,0,1-2.45.424" transform="translate(39.117 64.915)" fill="#ffa77d"/>
        <path id="Path_17782" data-name="Path 17782" d="M77.067,112.85s4.31.236,5.157.816,3.326,3.806,2.677,4.227-3.158-1.468-4.518-1.741-2.586.025-3.473-.434a11.441,11.441,0,0,1-1.741-1.165Z" transform="translate(43.777 65.721)" fill="#ffa77d"/>
        <path id="Path_17783" data-name="Path 17783" d="M64.318,152.705H46.779c-.845-1.03-.533-4.828-.405-6.068.025-.25.044-.4.044-.4s5.989-4.791,6.812-1.122c.024.114.055.226.089.339,1.036,3.431,5.685,4.989,8.369,5.424a3.043,3.043,0,0,1,2.63,1.823" transform="translate(26.912 83.709)" fill="#123454"/>
        <path id="Path_17784" data-name="Path 17784" d="M31.465,113.386c.633,0,30.045,5.522,34.91,11.545,2.429,3.008,2.791,37.752,2.791,37.752s-3.008,3.727-9.5,1.563c0,0-4.761-23.772-4.41-30.981.1-1.994-20.095-.29-23.791-1.245s-12.725-9-10.736-12.914,10.736-5.72,10.736-5.72" transform="translate(11.907 66.034)" fill="#204965"/>
        <path id="Path_17785" data-name="Path 17785" d="M41.158,112.355a10.874,10.874,0,0,0,3.812,2.084,17.2,17.2,0,0,1,2.8.851c1.747.8,5.059,4.38,4.752,4.734-.989,1.141-4.967-1.829-5.728-1.619s1.248,1.935.451,2.405c-.416.244-1.2-1.247-1.935-1.457-.992-.283-1.652-1.783-1.95-1.886a23.714,23.714,0,0,1-3-2.366Z" transform="translate(23.509 65.433)" fill="#ffa77d"/>
        <path id="Path_17786" data-name="Path 17786" d="M69.217,152.705H51.678c-.845-1.03-.533-4.828-.405-6.068.025-.25.044-.4.044-.4s5.989-4.791,6.812-1.122c.024.114.055.226.089.339,1.036,3.431,5.685,4.989,8.369,5.424a3.043,3.043,0,0,1,2.63,1.823" transform="translate(29.765 83.709)" fill="#12416b"/>
        <path id="Path_17787" data-name="Path 17787" d="M36.941,113.386c.633,0,30.045,5.522,34.909,11.545,2.431,3.008,2.793,37.752,2.793,37.752s-3.008,3.727-9.5,1.563c0,0-4.761-23.772-4.41-30.981.1-1.994-20.095-.29-23.791-1.245s-12.725-9-10.736-12.914,10.736-5.72,10.736-5.72" transform="translate(15.097 66.034)" fill="#245e8f"/>
        <path id="Path_17788" data-name="Path 17788" d="M35.3,96.588a28.538,28.538,0,0,1-6.252-1.361c-2.4-.777-4.328-1.915-3.082-4.1,1.147-2.019,3-6.529,2.878-10.265L33.3,84.452l3.03,2.442a36.38,36.38,0,0,1-.343,3.961c-.062.46-.131.956-.215,1.486a1.079,1.079,0,0,0,.5,1.086l.068.043a1.692,1.692,0,0,1-1.041,3.12" transform="translate(14.896 47.09)" fill="#ffa77d"/>
        <path id="Path_17789" data-name="Path 17789" d="M34.339,84.987a7.372,7.372,0,0,1-.111,2.453A12.683,12.683,0,0,1,29,84.844c1.375-.378,1.875-1.864,2.9-1.725Z" transform="translate(16.89 48.402)" fill="#ed8b5d"/>
        <path id="Path_17790" data-name="Path 17790" d="M38.527,90.9s-10.388,1.726-11.365-4.76-2.972-10.632,3.619-12.009,8.257.905,9.108,2.991S41.2,90.285,38.527,90.9" transform="translate(15.201 42.929)" fill="#ffa77d"/>
        <path id="Path_17791" data-name="Path 17791" d="M42.265,74.759c.446,1.562-.748,3.464-2.752,4.09-2.975.93-2.318,4.579-3.657,4.53s-1.878-2.1-3.075-.462c-1.019,1.4.85,3.051.72,3.815-.22,1.315-2.279,4-4.133,3.869s-5.326-8.95-4.632-11.678,3.47-5.6,6.1-6,6.277.737,7.121.737,4.068.253,4.309,1.1" transform="translate(14.354 42.421)" fill="#245e8f"/>
        <path id="Path_17792" data-name="Path 17792" d="M48.347,127.267c-.174,1.5-.489,2.516-.984,2.847-1.549,1.036-3.6,2.328-5.894,3.6-8.127,4.532-19.253,8.9-21.516,1.245-2.658-8.994-.911-25.885,1.7-36.376,1.5-6.043,5.651-12.384,8.458-12.377,4.78.008,11.654,1.271,14.43,8.116C45.611,96.979,47.19,106.17,48,114.589a69.76,69.76,0,0,1,.351,12.678" transform="translate(10.849 50.207)" fill="#fff"/>
        <path id="Path_17793" data-name="Path 17793" d="M25.577,87.144l1.082-2.438s9.6.976,11.229,6.492c0,0-7.421-3.935-12.311-4.054" transform="translate(14.896 49.331)" fill="#dceaff"/>
        <path id="Path_17794" data-name="Path 17794" d="M43.347,117.488c-.174,1.5-.489,2.516-.984,2.847-1.549,1.036-3.6,2.328-5.894,3.6-2.391-1.454-7.3-4.923-8.45-9.012-1.5-5.345-.448-11.923-.448-11.923Z" transform="translate(15.848 59.987)" fill="#dceaff"/>
        <path id="Path_17795" data-name="Path 17795" d="M26.808,92.068s.831,22.975,2.139,27.518c2.226,7.746,22.547,10.5,22.547,10.5a4.155,4.155,0,0,0,.66-3.609s-12.145-9.575-12.5-11.4,2.647-14.175-.782-18.667-9.759-8.383-12.062-4.347" transform="translate(15.612 52.634)" fill="#fff"/>
        <path id="Path_17796" data-name="Path 17796" d="M11.073,163.042l-.066,0a.909.909,0,0,1-.919-.972l3.651-36.456,3.185.285-5.241,36.653a.593.593,0,0,1-.609.492" transform="translate(5.872 73.154)" fill="#68bbea"/>
        <path id="Path_17797" data-name="Path 17797" d="M22.947,163.042l-.066,0a.909.909,0,0,1-.919-.972l3.651-36.456,3.185.285-5.241,36.653a.593.593,0,0,1-.609.492" transform="translate(12.788 73.154)" fill="#68bbea"/>
        <path id="Path_17798" data-name="Path 17798" d="M47.027,163.042l.066,0a.909.909,0,0,0,.919-.972l-3.651-36.456-3.185.285,5.241,36.653a.593.593,0,0,0,.609.492" transform="translate(23.981 73.154)" fill="#68bbea"/>
        <path id="Path_17799" data-name="Path 17799" d="M12.664,137.126,9.2,106.678c-.456-4.388,1.013-8.684,7.345-9.016l11.14-.679c6.6-.272,9.583,5.222,10.418,9.453L44.717,139.9Z" transform="translate(5.313 56.475)" fill="#68bbea"/>
        <path id="Path_17800" data-name="Path 17800" d="M13.2,128.1h49.44a1.812,1.812,0,0,0,1.807-1.805v-2.225a1.811,1.811,0,0,0-1.807-1.805H11.4v4.03A1.811,1.811,0,0,0,13.2,128.1" transform="translate(6.637 71.202)" fill="#68bbea"/>
        <path id="Path_17801" data-name="Path 17801" d="M12.8,128.1H41.99a1.407,1.407,0,0,0,1.4-1.4v-3.032a1.407,1.407,0,0,0-1.4-1.4H11.4v4.434a1.406,1.406,0,0,0,1.4,1.4" transform="translate(6.637 71.202)" fill="#68bbea"/>
        <path id="Path_17802" data-name="Path 17802" d="M67.7,71.029H50.581A1.432,1.432,0,0,1,49.152,69.6V53.082a1.432,1.432,0,0,1,1.429-1.429H67.7a1.432,1.432,0,0,1,1.429,1.429V69.6A1.432,1.432,0,0,1,67.7,71.029" transform="translate(28.625 30.082)" fill="#6ca3ea"/>
        <path id="Path_17803" data-name="Path 17803" d="M66.635,69.88H51a1.308,1.308,0,0,1-1.3-1.305V53.488A1.308,1.308,0,0,1,51,52.183H66.635a1.309,1.309,0,0,1,1.305,1.305V68.575a1.309,1.309,0,0,1-1.305,1.305" transform="translate(28.944 30.39)" fill="#dceaff"/>
        <path id="Path_17804" data-name="Path 17804" d="M55.2,53.453a.414.414,0,1,1,.413.413.413.413,0,0,1-.413-.413" transform="translate(32.148 30.889)" fill="#6ca3ea"/>
        <path id="Path_17805" data-name="Path 17805" d="M57.33,53.748a.414.414,0,1,1,.161.563.415.415,0,0,1-.161-.563" transform="translate(33.358 31.178)" fill="#6ca3ea"/>
        <path id="Path_17806" data-name="Path 17806" d="M59.188,55.13a.413.413,0,1,1-.123.571.414.414,0,0,1,.123-.571" transform="translate(34.359 32.068)" fill="#6ca3ea"/>
        <path id="Path_17807" data-name="Path 17807" d="M60.166,57.329a.414.414,0,1,1-.413.413.413.413,0,0,1,.413-.413" transform="translate(34.799 33.387)" fill="#6ca3ea"/>
        <path id="Path_17808" data-name="Path 17808" d="M59.816,59.953a.414.414,0,1,1-.585,0,.414.414,0,0,1,.585,0" transform="translate(34.424 34.845)" fill="#6ca3ea"/>
        <path id="Path_17809" data-name="Path 17809" d="M58.175,61.6a.414.414,0,1,1-.585,0,.414.414,0,0,1,.585,0" transform="translate(33.468 35.803)" fill="#6ca3ea"/>
        <path id="Path_17810" data-name="Path 17810" d="M55.2,62.555a.414.414,0,1,1,.413.413.413.413,0,0,1-.413-.413" transform="translate(32.148 36.19)" fill="#6ca3ea"/>
        <path id="Path_17811" data-name="Path 17811" d="M53.891,53.748a.414.414,0,1,0-.161.563.415.415,0,0,0,.161-.563" transform="translate(30.934 31.178)" fill="#6ca3ea"/>
        <path id="Path_17812" data-name="Path 17812" d="M52.034,55.13a.413.413,0,1,0,.123.571.414.414,0,0,0-.123-.571" transform="translate(29.932 32.068)" fill="#6ca3ea"/>
        <path id="Path_17813" data-name="Path 17813" d="M51.055,57.329a.414.414,0,1,0,.413.413.413.413,0,0,0-.413-.413" transform="translate(29.493 33.387)" fill="#6ca3ea"/>
        <path id="Path_17814" data-name="Path 17814" d="M51.406,59.953a.413.413,0,1,0,.584,0,.412.412,0,0,0-.584,0" transform="translate(29.867 34.845)" fill="#6ca3ea"/>
        <path id="Path_17815" data-name="Path 17815" d="M53.047,61.6a.414.414,0,1,0,.585,0,.414.414,0,0,0-.585,0" transform="translate(30.823 35.803)" fill="#6ca3ea"/>
        <path id="Path_17816" data-name="Path 17816" d="M55.392,57.742a.414.414,0,1,1,.413.413.413.413,0,0,1-.413-.413" transform="translate(32.259 33.387)" fill="#6ca3ea"/>
        <rect id="Rectangle_1849" data-name="Rectangle 1849" width="0.112" height="5.168" transform="translate(88.009 85.961)" fill="#6ca3ea"/>
        <rect id="Rectangle_1850" data-name="Rectangle 1850" width="3.484" height="0.339" transform="translate(87.909 90.99) rotate(-38.158)" fill="#6ca3ea"/>
      </g>
    </g>
  </g>
</svg>
