<svg id="Group_2225" data-name="Group 2225" xmlns="http://www.w3.org/2000/svg" xmlns:xlink="http://www.w3.org/1999/xlink" width="361.396" height="260.144" viewBox="0 0 361.396 260.144">
  <defs>
    <clipPath id="clip-path">
      <rect id="Rectangle_1845" data-name="Rectangle 1845" width="361.396" height="260.144" fill="none"/>
    </clipPath>
    <clipPath id="clip-path-3">
      <rect id="Rectangle_1842" data-name="Rectangle 1842" width="43.629" height="43.629" fill="none"/>
    </clipPath>
  </defs>
  <g id="Group_2224" data-name="Group 2224" clip-path="url(#clip-path)">
    <g id="Group_2223" data-name="Group 2223">
      <g id="Group_2222" data-name="Group 2222" clip-path="url(#clip-path)">
        <path id="Path_17496" data-name="Path 17496" d="M32.221,259.4S-29.15,207,17.5,157.334C67.173,104.457,23.168,36.575,90.592,9.186c72.9-29.61,91.653,22.542,122.17,14.534C273.628,7.747,350.834,15.612,337.989,93.2c-16.125,97.394,50.033,84.972,10.74,166.527Z" transform="translate(0 0)" fill="#dcf3fd"/>
        <path id="Path_17497" data-name="Path 17497" d="M140.121,83.27S150.306,40.1,184.67,35.35c0,0,6.686-.821,8.911,6.541S182.515,49.306,174.3,52.268s-27.372,15.514-34.176,31" transform="translate(72.64 18.312)" fill="#69bbee"/>
        <path id="Path_17498" data-name="Path 17498" d="M139.667,78.314s-3.573-35.76,21.5-48.452a6.863,6.863,0,0,1,8.552,2.663c3.646,5.053-6.525,8.6-12.039,13.031s-16.883,19.1-18.016,32.758" transform="translate(72.313 15.188)" fill="#69bbee"/>
        <path id="Path_17499" data-name="Path 17499" d="M107.175,96.59s14.738-8.254,7.861-19.455c0,0-5.5-6.877-11.4-8.646,0,0,3.145,16.7,0,17.1s-2.161-18.865-2.161-18.865-15.524-7.468-21.616-6.878c0,0,9.628,16.311,6.484,15.917s-13.951-16.9-13.951-16.9S56.476,55.912,53.92,65.344s1.572,14.149,3.931,14.739,17.489.393,17.1,2.358-10.612,5.109-16.311,3.341c0,0,6.289,15.524,14.542,14.738S83.986,94.625,89.1,94.232s8.843.982,6.289,2.358-11.2.451-15.328,3.958-7.468,5.671.2,7.243,21.42.589,24.172-5.305Z" transform="translate(27.535 30.287)" fill="#69bbee"/>
        <path id="Path_17500" data-name="Path 17500" d="M58.434,64.922s41.267,13.364,45.983,28.3a31.35,31.35,0,0,0,3.931,14.344v2.949s-4.323-10.023-6.683-11.4c0,0,9.236-12.97-43.232-34.193" transform="translate(30.293 33.656)" fill="#69bbee"/>
        <path id="Path_17501" data-name="Path 17501" d="M91.979,93.633s6.364,9.665,2.736,21.428l-1.637-.439s1.588-12.958-1.742-19.475.642-1.514.642-1.514" transform="translate(46.66 47.589)" fill="#69bbee"/>
        <path id="Path_17502" data-name="Path 17502" d="M131.9,139.8s9.656-28.926-13.137-35.528c0,0-15.7-2.5-25.723,2.3,0,0,24.49,18.487,20.769,22.831S88,106.832,88,106.832,58.2,115.72,50.78,123.907c0,0,32.672,10.084,28,13.379s-39.163-5.62-39.163-5.62-24.837,15.4-16.789,31.1,19.287,16.985,23.153,14.908,23.833-20.722,25.694-17.621-7.964,19.715-17.721,24.276c0,0,27.255,13.092,37.322,2.015s7.272-21,13.617-27.734,13-9.429,11.262-4.49-14.411,14.209-15.659,23.907-3.084,16.643,9.06,9.432,29.319-25.234,25.831-36.448Z" transform="translate(11.001 53.716)" fill="#69bbee"/>
        <path id="Path_17503" data-name="Path 17503" d="M31.03,146.753s71.341-32.287,95.781-18.074c0,0,8.309,10.187,3.488,11.215,0,0-3.421-28.538-99.269,6.859" transform="translate(16.086 64.834)" fill="#69bbee"/>
        <path id="Path_17504" data-name="Path 17504" d="M165.975,134.548s2.844-17.3,16.206-14.546c0,0,8.656,2.938,12.466,8.066,0,0-17.412,2.835-16.683,6.043s19.173-4.56,19.173-4.56,12.774,12.51,14.352,18.663c0,0-19.32-3.63-17.825-.7s21.423,7.641,21.423,7.641,8.5,14.492.2,20.318-14.363,3.467-15.772,1.374-6.564-16.927-8.344-15.849-1.234,12.161,2.505,17.1c0,0-17.372-.65-19.522-8.981s1.933-12.63.51-17.755-4.085-8.283-4.523-5.3,3.52,11.09,1.553,16.358-2.893,9.291-7.135,2.367-8.148-20.693-3.366-25.462Z" transform="translate(82.426 62.056)" fill="#69bbee"/>
        <path id="Path_17505" data-name="Path 17505" d="M213.7,164.353s-27.626-35.546-43.867-34.87a32.531,32.531,0,0,1-15.388,1.236l-2.877,1.042s11.309.676,13.485,2.492c0,0,9.391-13.6,48.647,30.1" transform="translate(78.572 67.12)" fill="#69bbee"/>
        <path id="Path_17506" data-name="Path 17506" d="M160.928,130.463s-11.68-2.794-21.877,4.9l1.008,1.442s12.082-6.131,19.618-5.185,1.251-1.162,1.251-1.162" transform="translate(72.085 67.377)" fill="#69bbee"/>
        <path id="Path_17507" data-name="Path 17507" d="M164.217,98.223S146.2,88.135,154.608,74.442c0,0,6.727-8.407,13.933-10.57,0,0-3.845,20.418,0,20.9s2.642-23.06,2.642-23.06,18.977-9.129,26.423-8.407c0,0-11.771,19.937-7.928,19.457S206.734,52.1,206.734,52.1s19.458-3.6,22.58,7.926-1.921,17.3-4.8,18.016-21.379.481-20.9,2.883,12.972,6.245,19.938,4.083c0,0-7.688,18.977-17.776,18.016s-13.212-7.206-19.457-7.686-10.811,1.2-7.688,2.882,13.691.551,18.737,4.839,9.127,6.932-.241,8.852-26.182.721-29.545-6.485Z" transform="translate(78.991 26.734)" fill="#69bbee"/>
        <path id="Path_17508" data-name="Path 17508" d="M218.023,59.514S167.579,75.849,161.813,94.1a38.321,38.321,0,0,1-4.8,17.535v3.6s5.286-12.251,8.168-13.931c0,0-11.289-15.854,52.847-41.8" transform="translate(81.395 30.852)" fill="#69bbee"/>
        <path id="Path_17509" data-name="Path 17509" d="M158.617,94.61s-7.779,11.813-3.344,26.194l2-.538s-1.944-15.84,2.127-23.806-.785-1.851-.785-1.851" transform="translate(79.786 47.884)" fill="#69bbee"/>
        <rect id="Rectangle_1821" data-name="Rectangle 1821" width="134.663" height="184.152" transform="translate(122.361 75)" fill="#69bbee"/>
        <rect id="Rectangle_1822" data-name="Rectangle 1822" width="123.187" height="174.11" transform="translate(128.099 79.968)" fill="#f1f9ff"/>
        <path id="Path_17510" data-name="Path 17510" d="M108.109,49.394v6.273a6.271,6.271,0,0,0,6.268,6.274H148.04a6.271,6.271,0,0,0,6.266-6.274V49.394Z" transform="translate(56.044 25.606)" fill="#2b5c8b"/>
        <rect id="Rectangle_1823" data-name="Rectangle 1823" width="15.24" height="1.543" transform="translate(142.401 229.433)" fill="#69bbee"/>
        <rect id="Rectangle_1824" data-name="Rectangle 1824" width="15.24" height="1.543" transform="translate(161.171 229.433)" fill="#69bbee"/>
        <rect id="Rectangle_1825" data-name="Rectangle 1825" width="21.138" height="1.543" transform="translate(142.399 232.857)" fill="#69bbee"/>
        <path id="Path_17511" data-name="Path 17511" d="M105.44,66.52h5.579a4.862,4.862,0,0,1,3.556,1.238,3.86,3.86,0,0,1,1.046,2.824,3.79,3.79,0,0,1-2.615,3.784l2.981,4.359h-3.139L110.2,74.82h-2.074v3.905H105.44Zm5.4,5.928c1.307,0,2.057-.7,2.057-1.761,0-1.151-.8-1.743-2.109-1.743h-2.668v3.5Z" transform="translate(54.661 34.484)" fill="#69bbee"/>
        <path id="Path_17512" data-name="Path 17512" d="M113.615,73.494V66.52H116.3v6.9c0,1.988.995,3.016,2.633,3.016s2.633-.993,2.633-2.929V66.52h2.685v6.887c0,3.7-2.074,5.509-5.352,5.509s-5.283-1.831-5.283-5.422" transform="translate(58.899 34.484)" fill="#69bbee"/>
        <path id="Path_17513" data-name="Path 17513" d="M122.422,66.52h2.685v9.763h6.084v2.44h-8.769Z" transform="translate(63.464 34.484)" fill="#69bbee"/>
        <path id="Path_17514" data-name="Path 17514" d="M129.529,66.52h9.2v2.388H132.2v2.475h5.753v2.39H132.2v2.562h6.625v2.388h-9.293Z" transform="translate(67.149 34.484)" fill="#69bbee"/>
        <path id="Path_17515" data-name="Path 17515" d="M136.672,77.005l1.587-1.9a5.59,5.59,0,0,0,3.644,1.482c1.1,0,1.76-.436,1.76-1.184,0-.68-.418-1.029-2.458-1.552-2.458-.629-4.044-1.307-4.044-3.766,0-2.215,1.778-3.679,4.271-3.679a7.059,7.059,0,0,1,4.532,1.552l-1.4,2.023a5.72,5.72,0,0,0-3.172-1.2c-1.029,0-1.57.471-1.57,1.1,0,.8.524,1.063,2.633,1.6,2.475.645,3.87,1.535,3.87,3.7,0,2.423-1.848,3.784-4.481,3.784a7.766,7.766,0,0,1-5.178-1.953" transform="translate(70.852 34.425)" fill="#69bbee"/>
        <rect id="Rectangle_1826" data-name="Rectangle 1826" width="66.183" height="0.855" transform="translate(155.549 116.085)" fill="#69bbee"/>
        <path id="Path_17516" data-name="Path 17516" d="M164.985,102.883h-22.28V80.6h22.28Zm-21.229-1.049h20.181V81.652H143.756Z" transform="translate(73.979 41.785)" fill="#a8ccff"/>
        <path id="Path_17517" data-name="Path 17517" d="M153.29,99.709a1.575,1.575,0,0,1-1.213-.571L145.2,90.821a1.574,1.574,0,1,1,2.426-2.006l5.453,6.594,9.864-16.554a1.574,1.574,0,1,1,2.7,1.611L154.643,98.94a1.578,1.578,0,0,1-1.231.764c-.041,0-.082,0-.121,0" transform="translate(75.087 40.481)" fill="#f07f3c"/>
        <rect id="Rectangle_1827" data-name="Rectangle 1827" width="49.495" height="2.174" transform="translate(149.996 125.677)" fill="#69bbee"/>
        <rect id="Rectangle_1828" data-name="Rectangle 1828" width="45.614" height="2.174" transform="translate(149.996 135.386)" fill="#69bbee"/>
        <rect id="Rectangle_1829" data-name="Rectangle 1829" width="13.493" height="2.174" transform="translate(185.999 130.531)" fill="#69bbee"/>
        <rect id="Rectangle_1830" data-name="Rectangle 1830" width="32.265" height="2.174" transform="translate(149.996 130.531)" fill="#69bbee"/>
        <path id="Path_17518" data-name="Path 17518" d="M92.4,84.8l-2.214.615-.457-1.757,3.3-1.055h1.511v12.39H92.4Z" transform="translate(46.516 42.821)" fill="#69bbee"/>
        <path id="Path_17519" data-name="Path 17519" d="M93.833,90.513a.783.783,0,1,1,.782.782.782.782,0,0,1-.782-.782" transform="translate(48.644 46.517)" fill="#69bbee"/>
        <path id="Path_17520" data-name="Path 17520" d="M165.1,124.8h-22.28v-22.28H165.1Zm-21.23-1.049h20.181V103.571H143.868Z" transform="translate(74.038 53.148)" fill="#a8ccff"/>
        <path id="Path_17521" data-name="Path 17521" d="M153.4,121.628a1.575,1.575,0,0,1-1.213-.571l-6.875-8.316a1.574,1.574,0,1,1,2.426-2.006l5.453,6.594,9.864-16.554a1.574,1.574,0,1,1,2.7,1.611l-11.005,18.473a1.574,1.574,0,0,1-1.231.764c-.041,0-.082,0-.121,0" transform="translate(75.146 51.844)" fill="#f07f3c"/>
        <path id="Path_17522" data-name="Path 17522" d="M89.666,115.218l4.206-3.577c1.675-1.414,2.285-2.2,2.285-3.3a1.832,1.832,0,0,0-1.971-1.9c-1.118,0-1.886.61-2.827,1.833l-1.518-1.187c1.169-1.64,2.32-2.565,4.5-2.565,2.391,0,4.031,1.465,4.031,3.682,0,1.919-1.029,2.949-3.177,4.728l-2.513,2.1H98.5v1.884h-8.83Z" transform="translate(46.483 54.184)" fill="#69bbee"/>
        <path id="Path_17523" data-name="Path 17523" d="M96.439,112.434a.777.777,0,1,1,.777.777.777.777,0,0,1-.777-.777" transform="translate(49.995 57.884)" fill="#69bbee"/>
        <rect id="Rectangle_1831" data-name="Rectangle 1831" width="52.01" height="2.174" transform="translate(150.406 158.957)" fill="#69bbee"/>
        <rect id="Rectangle_1832" data-name="Rectangle 1832" width="47.932" height="2.174" transform="translate(150.407 168.668)" fill="#69bbee"/>
        <rect id="Rectangle_1833" data-name="Rectangle 1833" width="14.177" height="2.174" transform="translate(188.238 163.813)" fill="#69bbee"/>
        <rect id="Rectangle_1834" data-name="Rectangle 1834" width="33.905" height="2.174" transform="translate(150.406 163.813)" fill="#69bbee"/>
        <path id="Path_17524" data-name="Path 17524" d="M165.1,146.883h-22.28V124.6H165.1Zm-21.23-1.049h20.181V125.652H143.868Z" transform="translate(74.038 64.595)" fill="#a8ccff"/>
        <path id="Path_17525" data-name="Path 17525" d="M153.4,143.709a1.575,1.575,0,0,1-1.213-.571l-6.875-8.316a1.574,1.574,0,1,1,2.426-2.006l5.453,6.594,9.864-16.554a1.574,1.574,0,1,1,2.7,1.611L154.757,142.94a1.574,1.574,0,0,1-1.231.764c-.041,0-.082,0-.121,0" transform="translate(75.146 63.291)" fill="#f07f3c"/>
        <rect id="Rectangle_1835" data-name="Rectangle 1835" width="52.01" height="2.174" transform="translate(150.406 192.485)" fill="#69bbee"/>
        <rect id="Rectangle_1836" data-name="Rectangle 1836" width="47.932" height="2.174" transform="translate(150.407 202.194)" fill="#69bbee"/>
        <rect id="Rectangle_1837" data-name="Rectangle 1837" width="14.177" height="2.174" transform="translate(188.238 197.34)" fill="#69bbee"/>
        <rect id="Rectangle_1838" data-name="Rectangle 1838" width="33.905" height="2.174" transform="translate(150.406 197.34)" fill="#69bbee"/>
        <path id="Path_17526" data-name="Path 17526" d="M89.564,136.736l1.468-1.367a3.9,3.9,0,0,0,3.142,1.572A1.877,1.877,0,0,0,96.24,135.1c0-1.178-1.075-1.843-2.748-1.843h-.973l-.342-1.315L95.4,128.5H90.231v-1.827h7.906v1.572l-3.33,3.415c1.895.273,3.517,1.247,3.517,3.4,0,2.2-1.707,3.773-4.183,3.773a5.664,5.664,0,0,1-4.576-2.1" transform="translate(46.431 65.671)" fill="#69bbee"/>
        <path id="Path_17527" data-name="Path 17527" d="M95.73,134.444a.76.76,0,1,1,.761.761.76.76,0,0,1-.761-.761" transform="translate(49.627 69.302)" fill="#69bbee"/>
        <path id="Path_17528" data-name="Path 17528" d="M134.066,157.187a9.477,9.477,0,0,1-9.258-7.546.647.647,0,0,1,1.268-.258,8.157,8.157,0,0,0,15.963.076.648.648,0,0,1,1.266.272,9.5,9.5,0,0,1-9.24,7.457" transform="translate(64.695 77.173)" fill="#69bbee"/>
        <path id="Path_17529" data-name="Path 17529" d="M125.431,150.313a.586.586,0,0,1-.125-.012.645.645,0,0,1-.512-.758,9.452,9.452,0,0,1,18.443-.5.647.647,0,1,1-1.256.316,8.157,8.157,0,0,0-15.916.433.647.647,0,0,1-.635.524" transform="translate(64.688 73.561)" fill="#69bbee"/>
        <path id="Path_17530" data-name="Path 17530" d="M135.487,166.143a13.433,13.433,0,1,1,13.433-13.433,13.449,13.449,0,0,1-13.433,13.433m0-25.026a11.593,11.593,0,1,0,11.593,11.593,11.606,11.606,0,0,0-11.593-11.593" transform="translate(63.274 72.202)" fill="#69bbee"/>
        <rect id="Rectangle_1839" data-name="Rectangle 1839" width="5.32" height="0.852" transform="translate(196.101 223.227)" fill="#69bbee"/>
        <rect id="Rectangle_1840" data-name="Rectangle 1840" width="5.32" height="0.852" transform="translate(196.101 226.712)" fill="#69bbee"/>
        <rect id="Rectangle_1841" data-name="Rectangle 1841" width="7.83" height="0.852" transform="translate(194.846 224.909)" fill="#69bbee"/>
        <path id="Path_17531" data-name="Path 17531" d="M73.507,111.065s.419-.941.689-1.386,1.429-1.752,1.626-1.456.985,2.285.566,2.842.027,1.526-2.056,2.114Z" transform="translate(38.107 56.081)" fill="#ffae73"/>
        <path id="Path_17532" data-name="Path 17532" d="M58.265,106.167s10.661,8.9,14.818,8.075a81.786,81.786,0,0,0,8.239-2.355l1,2.552s-4.473,6.069-9.138,6.109A26.575,26.575,0,0,1,60.5,117.391Z" transform="translate(30.205 55.038)" fill="#3ca0d7"/>
        <path id="Path_17533" data-name="Path 17533" d="M45.951,168.534s.31,4.993,1.275,5.064c.129.009,4.9.009,4.9.009l6.09-.035a1.979,1.979,0,0,0-1.821-1.778c-1.78-.31-4.759-1.561-5.837-3.913-1.134-2.475-4.607.653-4.607.653" transform="translate(23.821 86.537)" fill="#074a92"/>
        <path id="Path_17534" data-name="Path 17534" d="M45.72,189.257a12.691,12.691,0,0,0,3.3.619,12.113,12.113,0,0,0,3.078-.439,84.134,84.134,0,0,1,2.265-10.8c1.007-3.892,2.442-8.9,4.485-15.116,5.648-17.187,7.366-27.242,7.522-28.194.009-.05.012-.076.012-.076l-.018-.008L49,127.622s2.147,23.689-.592,32.781a38.3,38.3,0,0,0-.993,4.356c-1.729,9.876-1.69,24.5-1.69,24.5" transform="translate(23.702 66.16)" fill="#1c468a"/>
        <path id="Path_17535" data-name="Path 17535" d="M53.449,178.64c1.005-3.892,2.442-8.9,4.484-15.116,5.648-17.187,7.367-27.242,7.524-28.194a.74.74,0,0,0-.008-.084l-17.364-7.625s2.146,23.689-.592,32.781c-.384,1.271,5.957,18.238,5.957,18.238" transform="translate(24.612 66.16)" fill="#163560"/>
        <path id="Path_17536" data-name="Path 17536" d="M54.884,168.534s.31,4.993,1.275,5.064c.129.009,4.9.009,4.9.009l6.09-.035a1.977,1.977,0,0,0-1.821-1.778c-1.78-.31-4.759-1.561-5.837-3.913-1.136-2.475-4.607.653-4.607.653" transform="translate(28.452 86.537)" fill="#074a92"/>
        <path id="Path_17537" data-name="Path 17537" d="M67.672,127.99a247.052,247.052,0,0,1-2.431,34.2c-2.656,18.846-1.755,26.847-1.755,26.847a18.163,18.163,0,0,1-2.56.651,11.6,11.6,0,0,1-3.8-.44s-3.8-18.854-2.712-28.286-5.205-32.371-5.205-32.371Z" transform="translate(25.51 66.351)" fill="#1c468a"/>
        <path id="Path_17538" data-name="Path 17538" d="M53.258,106.923l3.389,2.223,3.088-.873a7.381,7.381,0,0,0,.723-3.7,23.208,23.208,0,0,0-.121-2.466l-4.573-2.018-1.707-.752c0,.026.132,1.4.15,1.6a11.674,11.674,0,0,1-.949,5.986" transform="translate(27.609 51.496)" fill="#ffae73"/>
        <path id="Path_17539" data-name="Path 17539" d="M68.726,144.961c-4.22,4.074-20.187,3.389-21.171-1.1s1.074-38.209,8.28-40.327c1.5-.439,9.492,2.146,9.492,2.146a50.767,50.767,0,0,1,2.077,7.461c.159.812.626,9.429.975,17.491.162,3.77.3,7.42.37,10.093a28.929,28.929,0,0,1-.023,4.236" transform="translate(24.533 53.647)" fill="#69bbee"/>
        <path id="Path_17540" data-name="Path 17540" d="M54.153,100.744c.928,1.569,4.183,2.941,5.908,3.571a23.208,23.208,0,0,0-.121-2.466l-4.573-2.018c-1.011-.014-1.626.213-1.213.913" transform="translate(28.006 51.753)" fill="#ffa05e"/>
        <path id="Path_17541" data-name="Path 17541" d="M62.565,105.117s-7.369,2.3-8.729-2.313-3.23-7.419,1.418-9.082,6.086-.175,6.913,1.256,2.279,9.423.4,10.138" transform="translate(27.106 48.206)" fill="#ffae73"/>
        <path id="Path_17542" data-name="Path 17542" d="M62.973,95.393s-.471,5.366-1.579,5.132-2.332-.73-2.17.887-1.078,4.39-2.678,4.384c-3.432-.014-7.161-8.82-6.221-10.491,2.71-4.818,16.566-5.79,12.648.088" transform="translate(26.012 47.347)" fill="#0b3563"/>
        <path id="Path_17543" data-name="Path 17543" d="M60.462,104.367c-.1-.039-5.486-2.458-6.116-2.25s-1.417,2.133-1.417,2.133l9.493,2.147a4.711,4.711,0,0,0-1.96-2.03" transform="translate(27.439 52.931)" fill="#3ca0d7"/>
        <path id="Path_17544" data-name="Path 17544" d="M91.274,121.779,61.056,150.23c-.592.557-1.339.735-1.66.395l-1.02-1.084c-.32-.34-.1-1.075.493-1.632l30.218-28.45c.594-.557,1.339-.735,1.661-.395l1.019,1.083c.32.342.1,1.077-.493,1.634" transform="translate(30.186 61.633)" fill="#0b4d87"/>
        <path id="Path_17545" data-name="Path 17545" d="M74.316,132.1l-13.26,12.484c-.592.557-1.339.735-1.66.395l-1.02-1.083c-.32-.342-.1-1.077.493-1.634l13.26-12.484Z" transform="translate(30.186 67.278)" fill="#69bbee"/>
        <path id="Path_17546" data-name="Path 17546" d="M75.769,124.163a23.684,23.684,0,1,0,39.255-23.8c-.12-.121-.244-.241-.37-.358a23.686,23.686,0,0,0-38.885,24.159M82.538,102.3a21.816,21.816,0,1,1,.94,30.837,21.788,21.788,0,0,1-.94-30.837" transform="translate(38.746 48.507)" fill="#0b4d87"/>
        <g id="Group_2221" data-name="Group 2221" transform="translate(115.357 143.946)" opacity="0.5">
          <g id="Group_2220" data-name="Group 2220">
            <g id="Group_2219" data-name="Group 2219" clip-path="url(#clip-path-3)">
              <path id="Path_17547" data-name="Path 17547" d="M113.675,131.562a21.815,21.815,0,1,1-.94-30.836,21.714,21.714,0,0,1,.94,30.836" transform="translate(-75.973 -94.8)" fill="#accefc"/>
            </g>
          </g>
        </g>
        <path id="Path_17548" data-name="Path 17548" d="M66.657,137.466c-16.651-11.865-15.266-27.7-15.266-27.7,6.086,3.433,12.124,11.022,14.9,17.6.162,3.772.3,7.42.37,10.093" transform="translate(26.627 56.905)" fill="#3ca0d7"/>
        <path id="Path_17549" data-name="Path 17549" d="M72.938,124.9a4.543,4.543,0,0,0,2.126-1.313s.5.033-.082,1.1c-.049.09-.156.319-.238.481a.1.1,0,0,0,.088.149,11.094,11.094,0,0,1,2.663.055c.181.038.232.469.226.653a1.668,1.668,0,0,1-.351,1.137,5.8,5.8,0,0,1-2.1,1.1,6.373,6.373,0,0,1-3.255-.408l-1.066-.493.331-1.982.267.056c.425.09.952-.43,1.4-.539" transform="translate(36.778 64.068)" fill="#ffae73"/>
        <path id="Path_17550" data-name="Path 17550" d="M56.667,104.931s-14.961,2.849,4.4,24.513c3.1,3.465,19.827,7.976,19.827,7.976s1.7-1.444.841-2.612c0,0-11.52-8.366-14.054-9.7-1.14-.6-4.425-13.351-6.283-16.423a8.383,8.383,0,0,0-4.733-3.76" transform="translate(26.518 54.397)" fill="#69bbee"/>
        <path id="Path_17551" data-name="Path 17551" d="M73.774,111.5a7.636,7.636,0,0,0,.585-1.429,7.907,7.907,0,0,1,.966-2.185c.1-.1.437.03.477.466a2.531,2.531,0,0,1-.241.946,10.643,10.643,0,0,0-.316,1.88c-.232.755-1.47.322-1.47.322" transform="translate(38.245 55.911)" fill="#ffae73"/>
        <path id="Path_17552" data-name="Path 17552" d="M106.316,168.782a5.838,5.838,0,0,0,.047.752,6.166,6.166,0,0,0,6.125,5.421h86.8a6.173,6.173,0,1,0,0-12.346h-86.8a6.173,6.173,0,0,0-6.172,6.174" transform="translate(55.115 84.297)" fill="#2b5c8b"/>
        <path id="Path_17553" data-name="Path 17553" d="M111,162.52h29.762a.947.947,0,1,0,0-1.895H111a.947.947,0,1,0,0,1.895" transform="translate(57.052 83.269)" fill="#2b5c8b"/>
        <rect id="Rectangle_1843" data-name="Rectangle 1843" width="3.227" height="1.118" transform="translate(169.696 245.788)" fill="#234662"/>
        <path id="Path_17554" data-name="Path 17554" d="M106.809,168.618a6.183,6.183,0,0,0,5.422,3.219h18.388v-3.219Z" transform="translate(55.37 87.413)" fill="#234662"/>
        <path id="Path_17555" data-name="Path 17555" d="M213.031,166.973v3.615a4.36,4.36,0,0,1-4.362,4.365H118.246a4.36,4.36,0,0,1-4.362-4.365v-3.615a4.363,4.363,0,0,1,4.362-4.365h90.423a4.363,4.363,0,0,1,4.362,4.365" transform="translate(59.038 84.297)" fill="#1c468a"/>
        <path id="Path_17556" data-name="Path 17556" d="M212.828,168.618a4.362,4.362,0,0,1-4.211,3.219H118.2a4.364,4.364,0,0,1-4.212-3.219Z" transform="translate(59.09 87.413)" fill="#163560"/>
        <path id="Path_17557" data-name="Path 17557" d="M173.267,168.8a6.864,6.864,0,0,0,1.795,4.766c.026.024.049.05.074.074a4.38,4.38,0,0,0,3.1,1.353c1.83,0,6.367-2.762,9.179-4.595,1.4-.916,2.375-1.6,2.375-1.6s-.973-.683-2.375-1.6c-2.812-1.836-7.349-4.6-9.179-4.6a4.085,4.085,0,0,0-1.52.295,4.962,4.962,0,0,0-2.092,1.651,6.807,6.807,0,0,0-1.257,3.022.355.355,0,0,0,0,.039,7.585,7.585,0,0,0-.093,1.189" transform="translate(89.823 84.297)" fill="#69bbee"/>
        <path id="Path_17558" data-name="Path 17558" d="M173.267,167.094a6.864,6.864,0,0,0,1.795,4.766l13.918-4.788L173.36,165.9a7.585,7.585,0,0,0-.093,1.189" transform="translate(89.823 86.006)" fill="#3ca0d7"/>
        <path id="Path_17559" data-name="Path 17559" d="M174.158,164.454l13.883,3.791L176.25,162.8a4.988,4.988,0,0,0-2.092,1.652" transform="translate(90.285 84.398)" fill="#9cafff"/>
        <path id="Path_17560" data-name="Path 17560" d="M181.986,167.233a1.714,1.714,0,0,0,.906,1.6c1.4-.916,2.373-1.6,2.373-1.6s-.973-.683-2.373-1.6a1.707,1.707,0,0,0-.906,1.6" transform="translate(94.343 85.867)" fill="#122d4e"/>
        <path id="Path_17561" data-name="Path 17561" d="M204.454,92.6a5.238,5.238,0,0,0-4.142-.443c-7.035-.826-9.088,7.379-8.992,10.2s.418,5.855-2.724,9.523c-9.076,10.594,9.932,11.062,9.932,11.062.159-8.465,10.307-5.377,9.862-4.519,13.007,3.122,1.294-23.112-3.936-25.825" transform="translate(96.497 47.654)" fill="#0b3563"/>
        <path id="Path_17562" data-name="Path 17562" d="M182.87,115.257s-1.237-1.883-2.235-1.921-2.842-.554-2.7-.184,1.292.405,1.4.627-1.7.554-2.215.591-1.736,0-1.7.26a5.874,5.874,0,0,0,3.72,1.181,10.342,10.342,0,0,1,3.407.443Z" transform="translate(90.943 58.59)" fill="#ffae73"/>
        <path id="Path_17563" data-name="Path 17563" d="M198.478,120.03a18.594,18.594,0,0,1-1.892,2.862c-1.471,1.842-3.737,3.968-6.584,4.388a7.076,7.076,0,0,1-3.911-.635l0,0a17.831,17.831,0,0,1-6.055-5.062,2.844,2.844,0,0,1,.387-2.789s6.98,1.57,7.645,1.237,4.753-9.4,5.488-10.91a8.278,8.278,0,0,1,4.048-4.13Z" transform="translate(93.227 54.428)" fill="#1c468a"/>
        <path id="Path_17564" data-name="Path 17564" d="M194.45,118.043c-1.47,1.842-3.737,3.969-6.584,4.388a7.055,7.055,0,0,1-3.91-.635c.135.018,3.586.445,4.962-2.018,1.4-2.511,2.923-6.5,5.008-5.17.9.574.859,2,.524,3.435" transform="translate(95.364 59.277)" fill="#163560"/>
        <path id="Path_17565" data-name="Path 17565" d="M211.9,164.83s2.13,1.944,1.714,3.325-2.338,2.3-2.6,3.989-1.3,2.609-2.234,2.609h-4.458s-.688-1.187.975-1.546,2.288-2.341,2.185-4.183a32.238,32.238,0,0,1,.156-4.3l3.532-.818Z" transform="translate(105.849 84.972)" fill="#074a92"/>
        <path id="Path_17566" data-name="Path 17566" d="M201.534,165.06s.767,8.234-.169,8.694L189.4,173.73s0-1.382,1.921-1.688,5.3-1.432,5.87-3.939,4.344-3.043,4.344-3.043" transform="translate(98.186 85.568)" fill="#074a92"/>
        <path id="Path_17567" data-name="Path 17567" d="M210.836,114.813a48.259,48.259,0,0,1,0,5.532c-.118,2-2.141,4.678-2.429,5.34-.72,1.663-1.534,1.933-1.534,1.933l-6.283,1.54-2.206.541-6.969-2.08s-3.172-8.857-1.9-13.843a38.392,38.392,0,0,1,3.222-8.448s4.722-1.863,13.087-.471Z" transform="translate(98.09 54.09)" fill="#1c468a"/>
        <path id="Path_17568" data-name="Path 17568" d="M206.043,116.108a19.554,19.554,0,0,1-.589,4.525c-.721,1.661-1.532,1.933-1.532,1.933l-6.283,1.54-2.73-.8s9.11-1.38,8.1-9.217Z" transform="translate(101.042 59.142)" fill="#f8caa4"/>
        <path id="Path_17569" data-name="Path 17569" d="M192.211,120.555s-3.45,10.738-3.672,14.395,6.594,51.94,6.869,53.624c.258,1.588,2.231,2.6,2.231,2.6a2.988,2.988,0,0,0,2.2.17,5.444,5.444,0,0,0,2.363-1.115s2.686-34.436,1.023-46.737a194.927,194.927,0,0,1-1.681-22.939Z" transform="translate(97.738 62.497)" fill="#3ca0d7"/>
        <path id="Path_17570" data-name="Path 17570" d="M205.185,120.344s5.263,7.061,5.753,11.834.77,21.54,1.814,26.194,4.886,13.608,4.886,28.122a2.9,2.9,0,0,1-1.632,1.274,13.294,13.294,0,0,1-1.435.4,2.256,2.256,0,0,1-2.522-1.2c-2.6-5.228-10.867-22.088-11.291-25.588-.3-2.477-2.912-18.869-8.608-28.487-1.368-2.309.838-11.493.838-11.493Z" transform="translate(99.38 62.387)" fill="#69bbee"/>
        <path id="Path_17571" data-name="Path 17571" d="M190.66,119.463a7.231,7.231,0,0,0,4.136,1.152c3.287.065,11.431-.84,11.431-.84a6.766,6.766,0,0,1,.348,2.079s-9.947,2.508-15.709.366a3.638,3.638,0,0,1-.2-2.757" transform="translate(98.738 61.93)" fill="#234662"/>
        <path id="Path_17572" data-name="Path 17572" d="M193.31,123.245a1.71,1.71,0,1,1,1.5-1.7,1.609,1.609,0,0,1-1.5,1.7m0-2.9a1.22,1.22,0,1,0,1,1.2,1.116,1.116,0,0,0-1-1.2" transform="translate(99.436 62.132)" fill="#fff"/>
        <path id="Path_17573" data-name="Path 17573" d="M214.269,126.229l-8.076,7.033a1.4,1.4,0,0,1-1.977-.137L193.91,121.289a1.4,1.4,0,0,1,.137-1.977l8.076-7.032a1.4,1.4,0,0,1,1.977.137l10.305,11.834a1.4,1.4,0,0,1-.137,1.977" transform="translate(100.345 58.028)" fill="#2b5c8b"/>
        <path id="Path_17574" data-name="Path 17574" d="M200.8,120.764c-.115.03-4.289.521-4.291,1.383a2.6,2.6,0,0,0,2.378,2.272c.468-.026,2.621-2.006,2.621-2.006Z" transform="translate(101.869 62.605)" fill="#ffae73"/>
        <path id="Path_17575" data-name="Path 17575" d="M200.114,106.112a13.9,13.9,0,0,1-.744-5.079l-.316.062-5.3,1.051s.12,1.669.125,3.242v.038c.006,1.367-.923,2.736,1.268,3.278.677.167,5.969-.172,4.971-2.592" transform="translate(100.407 52.376)" fill="#ffae73"/>
        <path id="Path_17576" data-name="Path 17576" d="M193.728,102.123s.12,1.67.125,3.242c2.969-.084,4.537-2.789,5.179-4.291Z" transform="translate(100.43 52.397)" fill="#f48f4e"/>
        <path id="Path_17577" data-name="Path 17577" d="M193.874,106.792s7.023.115,7.027-4.258.914-7.307-3.57-7.565-5.355,1.409-5.712,2.868.428,8.811,2.255,8.954" transform="translate(99.293 49.219)" fill="#ffae73"/>
        <path id="Path_17578" data-name="Path 17578" d="M193.246,95.193s1.922,5.132,4.874,5.89,4.23-.032,4.23-.032a8.352,8.352,0,0,1-2.733-4.936s-4.921-3.365-6.371-.922" transform="translate(100.18 48.887)" fill="#0b3563"/>
        <path id="Path_17579" data-name="Path 17579" d="M194.774,95.45a4.352,4.352,0,0,0-2.012,1.573,7.072,7.072,0,0,0-.951,4.015s-1.449-3.488.181-5.46c1.725-2.092,2.782-.128,2.782-.128" transform="translate(99.129 49.048)" fill="#0b3563"/>
        <path id="Path_17580" data-name="Path 17580" d="M200.3,120.848a4.76,4.76,0,0,0-1.669-.228c-.67.094-1.165-.014-1.165.175s.864.273,1.048.364a9.12,9.12,0,0,0,1.786-.311" transform="translate(102.367 62.521)" fill="#ffae73"/>
        <path id="Path_17581" data-name="Path 17581" d="M200.925,104.679a8.5,8.5,0,0,1,6.9,4.994c1.912,4.646,5.536,12.445,5.536,13.757s-2.024,5.357-12.9,7.682c0,0-1.125-1.183-1.057-2.12,0,0,6.789-5.831,6.771-6.512-.035-1.289-1.113-2.991-7.074-8.954-1.62-1.62,1.83-8.846,1.83-8.846" transform="translate(102.988 54.266)" fill="#1c468a"/>
        <path id="Path_17582" data-name="Path 17582" d="M93.218,13.772s-4-.676-6.535,1.239-2.941,1.3-4.371,2.48.033,2.592-.755,3.381-.82,2.309.351,2.7.381,2.536,2.917,2.817,1.4,1.456,3.8,1.634a21.18,21.18,0,0,1,5.662.793,2,2,0,0,0,2.779-.982c.363-.964,1.377.279,1.672-1.04s-.761-1.84-.169-2.911,2.054-8.678-5.354-10.114" transform="translate(41.987 7.08)" fill="#234662"/>
        <path id="Path_17583" data-name="Path 17583" d="M93.685,67.325a.987.987,0,0,0-.169,1.058l0,0a6.562,6.562,0,0,0,2.091,2.262c.126.1.237.19.336.275l.074.067.058.052c.919.834.577,1.029,2.227,2.724,1.881,1.93,3.169,1.957,3.533,1.777.308-.153-.328-1.18-1.033-2.334-.035-.055-.068-.112-.1-.169-.094-.153-.187-.308-.281-.463-.826-1.389-.621-2.045-.442-4.122.146-1.687,2.557-9.441,2.557-9.441l-3.585-.592s-1.034,6.169-2.215,7.126c-.632.51-1.344.522-1.951.9l-.126.082a4.661,4.661,0,0,0-.975.794" transform="translate(48.437 30.287)" fill="#ffae73"/>
        <path id="Path_17584" data-name="Path 17584" d="M93.685,64.585a.987.987,0,0,0-.169,1.058l0,0A7.609,7.609,0,0,0,95.614,67.9c.125.1.234.194.333.282l.074.067.058.052c.919.834.577,1.029,2.227,2.724,1.881,1.93,3.169,1.957,3.533,1.777.308-.153-.328-1.18-1.033-2.334a7.96,7.96,0,0,1-3.348-2.431c-1.136-1.427-1.9-3.266-2.672-4.33l-.126.082a4.661,4.661,0,0,0-.975.794" transform="translate(48.437 33.027)" fill="#234662"/>
        <path id="Path_17585" data-name="Path 17585" d="M113.6,65.315c.229,1.1,1.8.908,3.561.466s1.342.071,3.845-.223,3.255-1.234,3.33-1.608c.067-.331-1.172-.439-2.5-.583-.167-.017-.336-.036-.5-.056-1.5-.178-2.606-1.137-3.974-1.922-1.294-.743-3.24-3.794-3.24-3.794l-3.435.3s1.822,2.726,2.528,3.911a4.146,4.146,0,0,1,.354,2.338,4.42,4.42,0,0,0,.035,1.175" transform="translate(57.379 29.857)" fill="#ffae73"/>
        <path id="Path_17586" data-name="Path 17586" d="M116.184,63.809c1.757-.442,1.342.071,3.846-.223s3.255-1.234,3.328-1.608c.067-.331-1.172-.439-2.5-.582l-.012.026a7.075,7.075,0,0,1-3.58,1.14c-1.7.053-3.5-.422-4.677-.395a4.485,4.485,0,0,0,.035,1.175c.229,1.1,1.8.908,3.561.466" transform="translate(58.355 31.828)" fill="#234662"/>
        <path id="Path_17587" data-name="Path 17587" d="M107.81,50.141l-3.151,8.666L100.546,70.12a6.816,6.816,0,0,1-2.229-.188A9.636,9.636,0,0,1,96.155,68.9s1.08-12.124,3.2-19.094a12.38,12.38,0,0,1,1.84-4.056c3.339-4,6.613,4.393,6.613,4.393" transform="translate(49.847 23.156)" fill="#163560"/>
        <path id="Path_17588" data-name="Path 17588" d="M112.18,39.769c-2.109-.664-8.1.251-14.124,1.473l-1.277-2.073L83.75,38.243s-4.078,9.025-1.834,15.614c.436,1.278,2.522,1.324,2.522,1.324s7.632.084,10.149.065c6.474-.046,13.673-4.548,14.607-4.74,1.528-.317,2.162,2.739,3.716,5.943S127.4,70.582,127.4,70.582a11.271,11.271,0,0,0,2.789-.307,2.742,2.742,0,0,0,1.2-.765s-14.448-28.244-19.2-29.741" transform="translate(42.116 19.825)" fill="#1c468a"/>
        <path id="Path_17589" data-name="Path 17589" d="M90.944,28.108a6.125,6.125,0,0,1-3.82.144c-1.452-.63-2.566-3-2.543-3,.657-.035,1.377-.616,1.907-4.4l.281.1L91.5,22.612s-.331,1.515-.542,2.956c-.178,1.212-.269,2.372-.011,2.54" transform="translate(43.847 10.808)" fill="#ffae73"/>
        <path id="Path_17590" data-name="Path 17590" d="M90.749,22.578s-.2,1.061-.481,2.58a5.508,5.508,0,0,1-4.247-4.244Z" transform="translate(44.594 10.842)" fill="#f9924f"/>
        <path id="Path_17591" data-name="Path 17591" d="M91.626,26.864s-6.458-.818-5.885-4.833.125-6.824,4.273-6.468,4.728,2,4.863,3.386-1.556,8.026-3.251,7.915" transform="translate(44.43 8.052)" fill="#ffae73"/>
        <path id="Path_17592" data-name="Path 17592" d="M95.264,16.874s-4.106,3.588-6.913,3.895-3.876-.588-3.876-.588A10.97,10.97,0,0,0,87.1,16.569a1.974,1.974,0,0,1,1.62-1.175c2.006-.188,5.808-.293,6.543,1.48" transform="translate(43.792 7.929)" fill="#234662"/>
        <path id="Path_17593" data-name="Path 17593" d="M89.878,16.4a10.15,10.15,0,0,1,1.833,2.314,7.809,7.809,0,0,1,.241,4.15s2.123-4.2.89-6.225c-1.307-2.149-2.964-.238-2.964-.238" transform="translate(46.593 8.098)" fill="#234662"/>
        <path id="Path_17594" data-name="Path 17594" d="M98.306,36.127c-.1,13.061.02,10.331-1.4,11.581a5.488,5.488,0,0,1-2.583.579c-4,.295-11.046-.316-11.32-1.054-.943-2.554-.3-3.354-1.095-7.27-.082-.416-.185-.867-.305-1.357-.662-2.688-1.294-3.6.955-7.943,2.041-3.933,4.165-7.129,4.359-7.015,5.477,3.2,5.9.475,5.9.475s5.539,5.633,5.489,12" transform="translate(41.984 12.257)" fill="#69bbee"/>
        <path id="Path_17595" data-name="Path 17595" d="M104.66,57.052l-4.113,11.314a6.769,6.769,0,0,1-2.229-.188,9.662,9.662,0,0,1-2.162-1.033s1.08-12.124,3.2-19.1Z" transform="translate(49.847 24.909)" fill="#1c468a"/>
        <path id="Path_17596" data-name="Path 17596" d="M88.778,23.958s5.62.913,6.3,3.324,4.655,16.59,4.655,16.59-2.85.533-4.177-.776-4.674-12.2-4.674-12.2Z" transform="translate(46.023 12.42)" fill="#69bbee"/>
        <path id="Path_17597" data-name="Path 17597" d="M94.009,44.577c-4,.295-11.048-.316-11.321-1.054-.941-2.555-.295-3.356-1.093-7.27L83.488,30.8s-.276,6.058,1.521,7.639,7.335,3.023,8.213,4.349a4.891,4.891,0,0,1,.787,1.789" transform="translate(42.299 15.967)" fill="#3ca0d7"/>
        <path id="Path_17598" data-name="Path 17598" d="M86.737,38.435s3.945-.908,4.586-.562a9.3,9.3,0,0,1,2.405,2.056c.2.442-1.423-.328-1.948-.465a4.636,4.636,0,0,0-1.676.38,5.568,5.568,0,0,1-3,.322Z" transform="translate(44.965 19.593)" fill="#ffae73"/>
        <path id="Path_17599" data-name="Path 17599" d="M89.21,23.644s-5.3.364-7.121,2.938c-2.56,3.624-7.58,19.027-4.627,21.056,3.327,2.285,15.069.5,15.069.5a4.78,4.78,0,0,0-.172-2.712c-.551-.881-9.405-2.247-9.816-2.653s5.047-8,5.038-9.22,1.629-9.908,1.629-9.908" transform="translate(39.689 12.257)" fill="#69bbee"/>
        <path id="Path_17600" data-name="Path 17600" d="M89.887,38.57A7.623,7.623,0,0,0,91,39.757a.8.8,0,0,0,.446.093l-.565-1Z" transform="translate(46.598 19.995)" fill="#ffae73"/>
        <path id="Path_17601" data-name="Path 17601" d="M89.756,37.846,92.172,39a.435.435,0,0,1-.4.158,5.778,5.778,0,0,1-1.046-.279Z" transform="translate(46.53 19.62)" fill="#ffae73"/>
        <path id="Path_17602" data-name="Path 17602" d="M90.278,45.409l19.039-.134,5.627-14.284-19.01.134Z" transform="translate(46.801 16.067)" fill="#234662"/>
        <path id="Path_17603" data-name="Path 17603" d="M111.545,40.032,86.4,40.21l0,.554,24.919-.176Z" transform="translate(44.792 20.753)" fill="#234662"/>
        <path id="Path_17604" data-name="Path 17604" d="M100.249,36.039a.66.66,0,0,0-.653-.9,1.3,1.3,0,0,0-1.16.914.659.659,0,0,0,.653.9,1.3,1.3,0,0,0,1.16-.914" transform="translate(51.012 18.215)" fill="#dcf3fd"/>
        <path id="Path_17605" data-name="Path 17605" d="M26.735,175.974H40.628c.746-.632-.515-2.067-1.831-2.162a8.135,8.135,0,0,0-2.12.251c-.191-2.539-1.285-13.956-5.4-13.5-4.627.513,0,5.027,1.309,7.7a63.878,63.878,0,0,1,2.458,6.159c-.377.08-.765.161-1.162.234-.613-1.883-2.9-8.216-5.8-7.847-3.407.431-2.038,2.972.377,4.478,1.772,1.108,3.948,2.685,4.982,3.445a14.686,14.686,0,0,1-2.718.219,5.864,5.864,0,0,0-3.992,1.022" transform="translate(13.501 83.232)" fill="#9bd399"/>
        <path id="Path_17606" data-name="Path 17606" d="M229.872,176.513H214.5c-.823-.7.571-2.285,2.027-2.391a8.949,8.949,0,0,1,2.346.276c.211-2.809,1.42-15.439,5.972-14.932,5.119.568,0,5.562-1.447,8.518a70.318,70.318,0,0,0-2.719,6.813c.416.09.846.179,1.286.26.677-2.083,3.2-9.091,6.412-8.682,3.77.478,2.255,3.287-.416,4.955-1.96,1.227-4.368,2.97-5.512,3.813a16.314,16.314,0,0,0,3.006.24c2.633-.062,3.919.714,4.417,1.131" transform="translate(111.071 82.661)" fill="#9bd399"/>
      </g>
    </g>
  </g>
</svg>
