<svg xmlns="http://www.w3.org/2000/svg" xmlns:xlink="http://www.w3.org/1999/xlink" width="25.227" height="30.378" viewBox="0 0 25.227 30.378">
  <defs>
    <clipPath id="clip-path">
      <rect id="Rectangle_795" data-name="Rectangle 795" width="25.227" height="30.378" fill="none" stroke="#26a9e0" stroke-width="1"/>
    </clipPath>
  </defs>
  <g id="Group_2288" data-name="Group 2288" transform="translate(0 0)">
    <g id="Group_1769" data-name="Group 1769" transform="translate(0 0)" clip-path="url(#clip-path)">
      <path id="Path_14929" data-name="Path 14929" d="M21.539,1.118H8.585L1,8.7V26.682a2.542,2.542,0,0,0,2.542,2.542h18a2.542,2.542,0,0,0,2.542-2.542V3.66A2.542,2.542,0,0,0,21.539,1.118Z" transform="translate(0.073 0.081)" fill="none" stroke="#26a9e0" stroke-linecap="round" stroke-linejoin="round" stroke-width="2"/>
      <path id="Path_14930" data-name="Path 14930" d="M8.625,1V6.765a1.9,1.9,0,0,1-1.9,1.9H1" transform="translate(0.073 0.073)" fill="none" stroke="#26a9e0" stroke-linecap="round" stroke-linejoin="round" stroke-width="2"/>
      <line id="Line_26" data-name="Line 26" x2="7.274" transform="translate(12.613 8.474)" fill="none" stroke="#26a9e0" stroke-linecap="round" stroke-linejoin="round" stroke-width="2"/>
      <line id="Line_27" data-name="Line 27" x2="15.002" transform="translate(4.885 13.704)" fill="none" stroke="#26a9e0" stroke-linecap="round" stroke-linejoin="round" stroke-width="2"/>
      <line id="Line_28" data-name="Line 28" x2="5.771" transform="translate(4.885 18.992)" fill="none" stroke="#26a9e0" stroke-linecap="round" stroke-linejoin="round" stroke-width="2"/>
      <line id="Line_29" data-name="Line 29" x2="5.771" transform="translate(4.885 24.076)" fill="none" stroke="#26a9e0" stroke-linecap="round" stroke-linejoin="round" stroke-width="2"/>
      <line id="Line_30" data-name="Line 30" x2="3.177" y2="3.532" transform="translate(13.533 17.052)" fill="none" stroke="#26a9e0" stroke-linecap="round" stroke-linejoin="round" stroke-width="2"/>
      <line id="Line_31" data-name="Line 31" x1="3.177" y2="3.532" transform="translate(16.711 17.053)" fill="none" stroke="#26a9e0" stroke-linecap="round" stroke-linejoin="round" stroke-width="2"/>
      <line id="Line_32" data-name="Line 32" x2="5.585" transform="translate(13.918 21.074)" fill="none" stroke="#26a9e0" stroke-linecap="round" stroke-linejoin="round" stroke-width="2"/>
      <line id="Line_33" data-name="Line 33" x2="5.585" transform="translate(13.918 23.885)" fill="none" stroke="#26a9e0" stroke-linecap="round" stroke-linejoin="round" stroke-width="2"/>
      <line id="Line_34" data-name="Line 34" y2="6.123" transform="translate(16.711 20.584)" fill="none" stroke="#26a9e0" stroke-linecap="round" stroke-linejoin="round" stroke-width="2"/>
    </g>
  </g>
</svg>
