<svg id="Group_2043" data-name="Group 2043" xmlns="http://www.w3.org/2000/svg" xmlns:xlink="http://www.w3.org/1999/xlink" width="392.523" height="227.379" viewBox="0 0 392.523 227.379">
  <defs>
    <clipPath id="clip-path">
      <rect id="Rectangle_1070" data-name="Rectangle 1070" width="392.523" height="227.379" fill="none"/>
    </clipPath>
    <clipPath id="clip-path-3">
      <rect id="Rectangle_930" data-name="Rectangle 930" width="32.993" height="29.335" fill="none"/>
    </clipPath>
    <clipPath id="clip-path-4">
      <rect id="Rectangle_931" data-name="Rectangle 931" width="37.691" height="22.537" fill="none"/>
    </clipPath>
    <clipPath id="clip-path-5">
      <rect id="Rectangle_932" data-name="Rectangle 932" width="80.494" height="59.938" fill="none"/>
    </clipPath>
    <clipPath id="clip-path-6">
      <rect id="Rectangle_1068" data-name="Rectangle 1068" width="19.882" height="39.558" fill="none"/>
    </clipPath>
  </defs>
  <g id="Group_2042" data-name="Group 2042" clip-path="url(#clip-path)">
    <g id="Group_2041" data-name="Group 2041">
      <g id="Group_2040" data-name="Group 2040" clip-path="url(#clip-path)">
        <path id="Path_16138" data-name="Path 16138" d="M19.622,227.063s-44.57-42.66.637-104.422C60.652,67.456,30.49,41.09,71.95,14.2c41.907-27.18,77.564-10.625,117.677,10.387S285.136-4.7,344.989,22.039s51.246,67.62,36.44,109.648c-12.5,35.478,25.508,61.113,4.776,95.437,0,0-367.856-1.334-366.583-.061" transform="translate(0 0)" fill="#dcf3fd"/>
        <g id="Group_2030" data-name="Group 2030" transform="translate(249.392 42.88)" opacity="0.4">
          <g id="Group_2029" data-name="Group 2029">
            <g id="Group_2028" data-name="Group 2028" clip-path="url(#clip-path-3)">
              <path id="Path_16139" data-name="Path 16139" d="M209.819,65.411s6.31-26.46,27.389-29.319a5.2,5.2,0,0,1,5.456,4.025c1.354,4.518-6.8,4.531-11.841,6.334s-16.808,9.473-21,18.961" transform="translate(-209.819 -36.076)" fill="#c8defb"/>
            </g>
          </g>
        </g>
        <g id="Group_2033" data-name="Group 2033" transform="translate(249.779 54.693)" opacity="0.4">
          <g id="Group_2032" data-name="Group 2032">
            <g id="Group_2031" data-name="Group 2031" clip-path="url(#clip-path-4)">
              <path id="Path_16140" data-name="Path 16140" d="M210.144,68.551s12.086-24.369,33.269-22.427a5.2,5.2,0,0,1,4.413,5.145c.305,4.707-7.64,2.89-12.961,3.516s-18.505,5.462-24.722,13.765" transform="translate(-210.144 -46.014)" fill="#c8defb"/>
            </g>
          </g>
        </g>
        <path id="Path_16141" data-name="Path 16141" d="M263.661,155.014s6.31-26.458,27.389-29.318a5.194,5.194,0,0,1,5.456,4.023c1.354,4.518-6.8,4.531-11.841,6.334s-16.808,9.473-21,18.961" transform="translate(49.728 23.704)" fill="#c8defb"/>
        <path id="Path_16142" data-name="Path 16142" d="M264.274,149.025s-3.459-26.98,15.245-37.113a5.194,5.194,0,0,1,6.525,1.834c2.866,3.746-4.754,6.642-8.833,10.114s-12.37,14.808-12.938,25.165" transform="translate(49.797 21.015)" fill="#dceaff"/>
        <path id="Path_16143" data-name="Path 16143" d="M328.171,148.991c-2.376-10.1-19.385-7.539-19.385-7.539s-12.068,17.122-15.421,17.426,7.456-16.651,7.456-16.651c-6.449-.843-23.2,6.522-23.2,6.522s.355,20.462-2.969,19.932.611-18.133.611-18.133c-6.325,1.665-12.413,8.764-12.413,8.764-7.7,11.634,7.652,20.916,7.652,20.916a33.25,33.25,0,0,1-4.687,15.075,24.116,24.116,0,0,0-2.131,3.984l1.707.058q.232-.679.508-1.307l0-.008.008-.018c.126-.259.307-.629.531-1.078h0v0c.555-1,.933-1.744,1.174-2.28v0c1.671-3.149,4.063-7.242,5.592-8.066a3.331,3.331,0,0,1-.339-.8l.339.8c2.711,6.351,17.285,7.885,25.48,6.492s4.725-3.806.467-7.675-13.473-3.2-16.137-4.747,1.35-2.876,6.762-2.276,7.942,6.111,16.68,7.24,15.97-15.113,15.97-15.113c-6.115,1.672-16.856-2.028-17.2-4.127s15.716-1.348,18.24-1.889,7.077-5.4,4.7-15.492" transform="translate(49.167 26.624)" fill="#dceaff"/>
        <path id="Path_16144" data-name="Path 16144" d="M54.419,74.255c2.376-10.1,19.385-7.539,19.385-7.539S85.872,83.838,89.225,84.142s-7.456-16.651-7.456-16.651c6.449-.843,23.2,6.522,23.2,6.522s-.355,20.462,2.969,19.932-.611-18.133-.611-18.133c6.325,1.665,12.413,8.764,12.413,8.764,7.7,11.634-7.652,20.916-7.652,20.916a33.25,33.25,0,0,0,4.687,15.075,24.114,24.114,0,0,1,2.131,3.984l-1.707.058q-.232-.679-.508-1.307l0-.008-.008-.018c-.126-.259-.307-.629-.531-1.078h0v0c-.555-1-.933-1.744-1.174-2.28v0c-1.671-3.149-4.063-7.242-5.592-8.066a3.333,3.333,0,0,0,.339-.794c-.108.253-.221.517-.339.794-2.711,6.351-17.285,7.885-25.48,6.492s-4.725-3.806-.467-7.675,13.473-3.2,16.137-4.747-1.35-2.876-6.762-2.276-7.942,6.111-16.68,7.24-15.97-15.113-15.97-15.113c6.115,1.672,16.856-2.028,17.2-4.127s-15.716-1.348-18.24-1.889-7.077-5.4-4.7-15.492" transform="translate(10.138 12.529)" fill="#dceaff"/>
        <path id="Path_16145" data-name="Path 16145" d="M141.752,32.3c4.993-9.566,21.482-2.611,21.482-2.611s7.759,20.367,11.061,21.536-3.231-18.705-3.231-18.705c6.718.809,21.711,12.546,21.711,12.546S187.151,65.6,190.64,65.923s4.051-18.438,4.051-18.438c5.947,3.306,10.258,12.029,10.258,12.029,4.772,13.712-13.1,19.115-13.1,19.115a34.575,34.575,0,0,0,.844,16.4h0a25.034,25.034,0,0,1,1.122,4.565l-1.735-.382q-.059-.743-.175-1.449l0-.008,0-.02c-.059-.295-.147-.713-.258-1.224v0c-.3-1.153-.492-2-.6-2.6v-.006c-.874-3.6-2.231-8.346-3.561-9.571a3.427,3.427,0,0,0,.546-.713c-.175.227-.355.465-.546.713-4.368,5.705-19.454,3.5-27.357-.013s-3.783-5.052,1.5-7.857,14.4.245,17.489-.632-.622-3.247-6.231-4.035-9.58,4.116-18.678,3S142,55.458,142,55.458c5.734,3.26,17.513,2.293,18.4.267s-15.495-5.4-17.9-6.6-5.745-7.261-.751-16.827" transform="translate(26.247 5.139)" fill="#dceaff"/>
        <g id="Group_2036" data-name="Group 2036" transform="translate(295.376 49.44)" opacity="0.5">
          <g id="Group_2035" data-name="Group 2035">
            <g id="Group_2034" data-name="Group 2034" clip-path="url(#clip-path-5)">
              <path id="Path_16146" data-name="Path 16146" d="M319.255,43.881l9.646,36.9a3.069,3.069,0,0,1-2.187,3.735l-64.728,16.92a3.07,3.07,0,0,1-3.735-2.186l-9.646-36.9a3.069,3.069,0,0,1,2.187-3.735l64.728-16.921a3.069,3.069,0,0,1,3.735,2.187" transform="translate(-248.506 -41.595)" fill="#a2c8f8"/>
              <path id="Path_16147" data-name="Path 16147" d="M288.465,79.068l-17.251,4.51a1.375,1.375,0,0,1-1.674-.981l-.044-.165a1.376,1.376,0,0,1,.981-1.674l17.251-4.51a1.374,1.374,0,0,1,1.674.979l.044.166a1.376,1.376,0,0,1-.981,1.674" transform="translate(-244.555 -35.067)" fill="#c8dffd"/>
              <path id="Path_16148" data-name="Path 16148" d="M278.387,64.756a3.31,3.31,0,0,1,.076,1.632,1.5,1.5,0,0,1-2.557.668,3.957,3.957,0,0,1-.813-3.084,1.513,1.513,0,0,1,2.569-.672,3.315,3.315,0,0,1,.725,1.456m-.792.2A3.3,3.3,0,0,0,277.2,64q-.365-.549-.833-.427t-.525.776a3.153,3.153,0,0,0,.121,1.036q.421,1.61,1.242,1.394c.316-.082.489-.345.516-.786a3.26,3.26,0,0,0-.127-1.035" transform="translate(-243.504 -37.593)" fill="#c8dffd"/>
              <path id="Path_16149" data-name="Path 16149" d="M281.367,63.976a3.315,3.315,0,0,1,.076,1.633,1.5,1.5,0,0,1-2.557.668,3.957,3.957,0,0,1-.813-3.084,1.513,1.513,0,0,1,2.569-.672,3.317,3.317,0,0,1,.725,1.455m-.792.2a3.3,3.3,0,0,0-.393-.959q-.366-.549-.833-.427t-.525.776a3.149,3.149,0,0,0,.121,1.036q.421,1.61,1.242,1.394c.316-.082.489-.345.516-.786a3.261,3.261,0,0,0-.127-1.035" transform="translate(-242.942 -37.74)" fill="#c8dffd"/>
              <path id="Path_16150" data-name="Path 16150" d="M285.883,62.8a3.309,3.309,0,0,1,.076,1.632,1.5,1.5,0,0,1-2.557.668,3.957,3.957,0,0,1-.813-3.084,1.513,1.513,0,0,1,2.569-.672,3.315,3.315,0,0,1,.725,1.456m-.792.2a3.3,3.3,0,0,0-.393-.959q-.365-.549-.833-.427c-.321.083-.5.342-.527.776a3.186,3.186,0,0,0,.122,1.036q.421,1.61,1.242,1.394c.316-.082.489-.345.516-.786A3.259,3.259,0,0,0,285.092,63" transform="translate(-242.09 -37.962)" fill="#c8dffd"/>
              <path id="Path_16151" data-name="Path 16151" d="M288.863,62.016a3.315,3.315,0,0,1,.076,1.633,1.5,1.5,0,0,1-2.557.668,3.957,3.957,0,0,1-.813-3.084,1.513,1.513,0,0,1,2.569-.672,3.317,3.317,0,0,1,.725,1.455m-.792.2a3.3,3.3,0,0,0-.393-.959q-.366-.549-.833-.427t-.525.776a3.154,3.154,0,0,0,.121,1.036q.421,1.61,1.242,1.394c.316-.082.488-.345.516-.786a3.26,3.26,0,0,0-.127-1.035" transform="translate(-241.528 -38.109)" fill="#c8dffd"/>
              <path id="Path_16152" data-name="Path 16152" d="M291.843,61.238a3.31,3.31,0,0,1,.076,1.632,1.5,1.5,0,0,1-2.557.668,3.957,3.957,0,0,1-.813-3.084,1.513,1.513,0,0,1,2.569-.672,3.315,3.315,0,0,1,.725,1.456m-.792.2a3.3,3.3,0,0,0-.393-.959q-.365-.549-.833-.427c-.321.083-.5.342-.527.776a3.185,3.185,0,0,0,.122,1.036q.421,1.61,1.242,1.394c.316-.082.489-.345.516-.786a3.261,3.261,0,0,0-.127-1.035" transform="translate(-240.966 -38.256)" fill="#c8dffd"/>
              <path id="Path_16153" data-name="Path 16153" d="M294.823,60.459a3.278,3.278,0,0,1,.076,1.631,1.5,1.5,0,0,1-2.557.669,3.95,3.95,0,0,1-.812-3.084A1.513,1.513,0,0,1,294.1,59a3.328,3.328,0,0,1,.724,1.456m-.79.2a3.3,3.3,0,0,0-.395-.959c-.242-.366-.522-.509-.833-.427s-.494.342-.525.776a3.121,3.121,0,0,0,.122,1.036q.419,1.61,1.241,1.394c.317-.082.489-.345.517-.786a3.261,3.261,0,0,0-.127-1.035" transform="translate(-240.404 -38.403)" fill="#c8dffd"/>
              <path id="Path_16154" data-name="Path 16154" d="M299.34,59.277a3.319,3.319,0,0,1,.076,1.634,1.5,1.5,0,0,1-2.557.668,3.96,3.96,0,0,1-.813-3.084,1.513,1.513,0,0,1,2.569-.673,3.33,3.33,0,0,1,.725,1.455m-.792.2a3.291,3.291,0,0,0-.393-.958q-.365-.549-.833-.427t-.527.776a3.193,3.193,0,0,0,.122,1.036q.421,1.61,1.242,1.394c.316-.082.489-.346.516-.787a3.262,3.262,0,0,0-.127-1.035" transform="translate(-239.552 -38.626)" fill="#c8dffd"/>
              <path id="Path_16155" data-name="Path 16155" d="M302.32,58.5a3.315,3.315,0,0,1,.076,1.633,1.5,1.5,0,0,1-2.557.668,3.957,3.957,0,0,1-.813-3.084,1.513,1.513,0,0,1,2.569-.672,3.317,3.317,0,0,1,.725,1.455m-.792.2a3.3,3.3,0,0,0-.393-.959q-.366-.549-.833-.427c-.321.083-.5.342-.527.776a3.187,3.187,0,0,0,.122,1.036q.421,1.61,1.242,1.394c.316-.082.488-.345.516-.786a3.26,3.26,0,0,0-.127-1.035" transform="translate(-238.99 -38.773)" fill="#c8dffd"/>
              <path id="Path_16156" data-name="Path 16156" d="M305.3,57.72a3.31,3.31,0,0,1,.076,1.632,1.5,1.5,0,0,1-2.557.668,3.957,3.957,0,0,1-.813-3.084,1.513,1.513,0,0,1,2.569-.672,3.316,3.316,0,0,1,.725,1.456m-.792.2a3.3,3.3,0,0,0-.393-.959q-.365-.549-.834-.427c-.32.083-.5.342-.525.776a3.185,3.185,0,0,0,.122,1.036q.421,1.61,1.242,1.394c.316-.082.489-.345.516-.786a3.26,3.26,0,0,0-.127-1.035" transform="translate(-238.428 -38.92)" fill="#c8dffd"/>
              <path id="Path_16157" data-name="Path 16157" d="M308.28,56.941a3.31,3.31,0,0,1,.076,1.632,1.5,1.5,0,0,1-2.557.668,3.957,3.957,0,0,1-.813-3.084,1.513,1.513,0,0,1,2.569-.672,3.315,3.315,0,0,1,.725,1.456m-.792.2a3.3,3.3,0,0,0-.393-.959q-.365-.549-.833-.427c-.321.083-.5.342-.527.776a3.186,3.186,0,0,0,.122,1.036q.421,1.61,1.242,1.394c.316-.082.489-.345.516-.786a3.26,3.26,0,0,0-.127-1.035" transform="translate(-237.866 -39.067)" fill="#c8dffd"/>
              <path id="Path_16158" data-name="Path 16158" d="M271.4,56.7l-16.883,4.413a1.372,1.372,0,1,1-.693-2.654l16.882-4.413A1.372,1.372,0,1,1,271.4,56.7" transform="translate(-247.696 -39.255)" fill="#c8dffd"/>
              <path id="Path_16159" data-name="Path 16159" d="M303,50.02a2.1,2.1,0,0,0-.781-1.158.224.224,0,0,0-.329.069l-.058.1a.222.222,0,0,0,.058.289,1.539,1.539,0,0,1,.484,1.852.224.224,0,0,0,.09.281l.1.059a.226.226,0,0,0,.321-.1A2.106,2.106,0,0,0,303,50.02" transform="translate(-238.453 -40.233)" fill="#c8dffd"/>
              <path id="Path_16160" data-name="Path 16160" d="M304,49.89a3.217,3.217,0,0,0-1.323-1.864.224.224,0,0,0-.317.076l-.032.058a.225.225,0,0,0,.07.3,2.717,2.717,0,0,1,.906,3.464.225.225,0,0,0,.084.295l.056.033a.224.224,0,0,0,.315-.088A3.223,3.223,0,0,0,304,49.89" transform="translate(-238.36 -40.389)" fill="#c8dffd"/>
              <path id="Path_16161" data-name="Path 16161" d="M304.879,49.777A4.213,4.213,0,0,0,303.09,47.3a.224.224,0,0,0-.242.377,3.774,3.774,0,0,1,1.287,4.924.224.224,0,0,0,.4.209,4.217,4.217,0,0,0,.348-3.035" transform="translate(-238.276 -40.526)" fill="#c8dffd"/>
              <path id="Path_16162" data-name="Path 16162" d="M305.842,49.652a5.278,5.278,0,0,0-2.294-3.136.224.224,0,0,0-.315.078l-.057.1a.223.223,0,0,0,.074.3,4.733,4.733,0,0,1,1.633,6.246.223.223,0,0,0,.082.3l.1.059a.224.224,0,0,0,.313-.087,5.281,5.281,0,0,0,.466-3.857" transform="translate(-238.2 -40.673)" fill="#c8dffd"/>
            </g>
          </g>
        </g>
        <path id="Path_16163" data-name="Path 16163" d="M295.938,210.659H93.013a5.29,5.29,0,0,1-5.275-5.274V71a5.29,5.29,0,0,1,5.275-5.274H295.938A5.289,5.289,0,0,1,301.212,71v134.38a5.289,5.289,0,0,1-5.274,5.274" transform="translate(16.548 12.397)" fill="#2b5c8b"/>
        <rect id="Rectangle_933" data-name="Rectangle 933" width="203.845" height="138.391" transform="translate(109.101 83.192)" fill="#dae6ff"/>
        <path id="Path_16164" data-name="Path 16164" d="M326.831,192.2H70.176a3.791,3.791,0,0,1-3.792-3.792v-1.694a3.792,3.792,0,0,1,3.792-3.793H326.831a3.792,3.792,0,0,1,3.792,3.793v1.694a3.791,3.791,0,0,1-3.792,3.792" transform="translate(12.521 34.501)" fill="#2b5c8b"/>
        <rect id="Rectangle_934" data-name="Rectangle 934" width="203.845" height="134.714" transform="translate(109.101 83.192)" fill="#48a6cc"/>
        <path id="Path_16165" data-name="Path 16165" d="M34.592,192.254a10.278,10.278,0,0,1,.3-2.658c.3-.663,1.4-3.364,1.4-3.364h4.312a24,24,0,0,1,.853,3.269c.05.806,0,2.753,0,2.753Z" transform="translate(6.524 35.125)" fill="#234662"/>
        <path id="Path_16166" data-name="Path 16166" d="M58.722,192.254a10.278,10.278,0,0,0-.3-2.658c-.3-.663-1.4-3.364-1.4-3.364H52.7a24,24,0,0,0-.853,3.269c-.05.806,0,2.753,0,2.753Z" transform="translate(9.775 35.125)" fill="#234662"/>
        <path id="Path_16167" data-name="Path 16167" d="M43.968,97.482a36.132,36.132,0,0,1-.754,6.43l-4.762,3.139,17.925,2.534L52.1,104s-1.291-5.955-.613-8.157-7.522,1.634-7.522,1.634" transform="translate(7.253 17.949)" fill="#ffae73"/>
        <path id="Path_16168" data-name="Path 16168" d="M43.071,97.63s1.418,3.224,4.088,3.153,3.278-2.924,3.278-2.924Z" transform="translate(8.124 18.414)" fill="#f99352"/>
        <path id="Path_16169" data-name="Path 16169" d="M42.014,97.47a38.547,38.547,0,0,0-1.464-5.3c-.6-1.231-1.1-6.726,5.566-7.012a8.091,8.091,0,0,0,3.962-.521s0,.806-.352,1.09A4.606,4.606,0,0,1,53.838,87.1c1.8,1.895-1.2,8.527-1.053,10.09Z" transform="translate(7.586 15.964)" fill="#2a3967"/>
        <path id="Path_16170" data-name="Path 16170" d="M47.124,101.167c-1.935-.032-5.5-2.466-5.5-5.481v-4.7a1.916,1.916,0,0,1,1.805-2h7.381a1.916,1.916,0,0,1,1.805,2v4.437c0,3.161-3.277,5.784-5.5,5.747" transform="translate(7.851 16.783)" fill="#ffae73"/>
        <path id="Path_16171" data-name="Path 16171" d="M41.668,93.664s.011-2.827,2.38-3.26,7.671,1.378,8.424-.683-10.249-2.025-10.8-.711,0,4.655,0,4.655" transform="translate(7.812 16.614)" fill="#2a3967"/>
        <path id="Path_16172" data-name="Path 16172" d="M35.185,133.186s.755,21.767-.373,34.187.008,29.7.008,29.7a8.975,8.975,0,0,0,7.519,0s4.288-23.993,4.261-29.7c-.029-6.082,4.669-33.238,4.669-33.238Z" transform="translate(6.472 25.12)" fill="#2b5c8b"/>
        <path id="Path_16173" data-name="Path 16173" d="M60.106,197.081a8.968,8.968,0,0,1-7.518,0s-4.29-23.993-4.262-29.7a146.828,146.828,0,0,0-1.783-15.35c-1.318-8.827-2.886-17.887-2.886-17.887l16.708-.987s-1.379,21.8-.25,34.224-.01,29.7-.01,29.7" transform="translate(8.234 25.114)" fill="#2b5c8b"/>
        <path id="Path_16174" data-name="Path 16174" d="M61.91,142.59a88.355,88.355,0,0,1-13.621,1.3,69.6,69.6,0,0,1-8.365-.6c-2.711-.34-4.655-.7-4.655-.7s-1.444.119-.591-6.607a89.374,89.374,0,0,0,.3-14.5c-.017-.529,0-1.154.03-1.851.277-5.544,2.053-15.524,3.4-16.06a25.95,25.95,0,0,1,5.565-1.051c0,.065,2.062,2.913,4.51,3.233a8.468,8.468,0,0,0,4.379-3.14,50.191,50.191,0,0,1,6.864,1.25s.256,1.058,1.222,19.4c.384,7.266,3.008,19.343.958,19.32" transform="translate(6.49 19.337)" fill="#69bbee"/>
        <path id="Path_16175" data-name="Path 16175" d="M47.869,165.583a146.83,146.83,0,0,0-1.783-15.35,29.61,29.61,0,0,1,3.437-7.563c3.084,8.172-1.655,22.913-1.655,22.913" transform="translate(8.692 26.909)" fill="#234662"/>
        <path id="Path_16176" data-name="Path 16176" d="M30.722,125.263c-.17.133.423,1.52,1.3,3.328,1.8,3.714,4.779,9.2,4.779,9.2a15.793,15.793,0,0,1-.906,2.5,61.757,61.757,0,0,1-10.319-9.325c-2.9-3.418-3.5-5.378-3.5-5.378,11.174-21.489,19.038-22.28,19.038-22.28l-.929,14.2s-8.942,7.344-9.459,7.751" transform="translate(4.163 19.485)" fill="#3ca0d7"/>
        <path id="Path_16177" data-name="Path 16177" d="M34.024,132.775s2.708-2.369,3.811-1.042,1.3,3.411.452,3.269-2.608-.9-2.859-.521-1.374,1.1-1.715.528.311-2.233.311-2.233" transform="translate(6.34 24.77)" fill="#ffae73"/>
        <path id="Path_16178" data-name="Path 16178" d="M36.241,133.779a15.65,15.65,0,0,1-.906,2.5,61.753,61.753,0,0,1-10.319-9.325,13.341,13.341,0,0,0,6.446-2.378c1.8,3.714,4.779,9.2,4.779,9.2" transform="translate(4.718 23.497)" fill="#ffae73"/>
        <path id="Path_16179" data-name="Path 16179" d="M73.731,125.558s-.6,1.96-3.5,5.377a61.7,61.7,0,0,1-10.319,9.326,15.793,15.793,0,0,1-.906-2.5s2.983-5.485,4.779-9.2c.872-1.808,1.466-3.195,1.3-3.328-.4-.316-5.863-4.8-8.3-6.8-.707-.581-1.158-.953-1.158-.953l-.559-13.99s7.493.581,18.667,22.07" transform="translate(10.385 19.519)" fill="#3ca0d7"/>
        <path id="Path_16180" data-name="Path 16180" d="M59.642,132.775s-2.709-2.369-3.812-1.042-1.3,3.411-.452,3.269,2.608-.9,2.859-.521,1.374,1.1,1.715.528-.31-2.233-.31-2.233" transform="translate(10.345 24.77)" fill="#ffae73"/>
        <path id="Path_16181" data-name="Path 16181" d="M58.381,133.779a15.649,15.649,0,0,0,.906,2.5,61.753,61.753,0,0,0,10.319-9.325,13.341,13.341,0,0,1-6.446-2.378c-1.8,3.714-4.779,9.2-4.779,9.2" transform="translate(11.011 23.497)" fill="#ffae73"/>
        <path id="Path_16182" data-name="Path 16182" d="M42.831,101.613a1.844,1.844,0,0,0-1.022,1.166s3.193,3.1,5.282,3.15Z" transform="translate(7.885 19.165)" fill="#2b5c8b"/>
        <path id="Path_16183" data-name="Path 16183" d="M46.253,105.955l4.121-4.473a1.821,1.821,0,0,1,.839,1.4s-3.188,3.193-4.96,3.074" transform="translate(8.724 19.14)" fill="#2b5c8b"/>
        <path id="Path_16184" data-name="Path 16184" d="M45.99,104.972s-3.145,25.654-2.05,28.78a20.916,20.916,0,0,0,1.918,3.975,1.149,1.149,0,0,0,1.93,0c.834-1.369,1.927-3.352,1.927-4.359,0-1.63-2.387-28.414-2.387-28.414Z" transform="translate(8.244 19.794)" fill="#2b5c8b"/>
        <path id="Path_16185" data-name="Path 16185" d="M44.976,103.927a21.035,21.035,0,0,1,3.058-.069.3.3,0,0,1,.246.449c-.324.552-.987,1.508-1.678,1.508-.973,0-2.488-1.826-1.626-1.889" transform="translate(8.435 19.582)" fill="#2b5c8b"/>
        <path id="Path_16186" data-name="Path 16186" d="M44.956,96.7a2.151,2.151,0,0,0,1.655.743,1.99,1.99,0,0,0,1.548-.743,11.123,11.123,0,0,0-3.2,0" transform="translate(8.479 18.216)" fill="#fff"/>
        <rect id="Rectangle_935" data-name="Rectangle 935" width="131.832" height="140.389" transform="translate(157.124 67.492)" fill="#8ae3ff"/>
        <path id="Path_16187" data-name="Path 16187" d="M215.67,155.266H190.551a.04.04,0,0,1-.039-.039v-1.552a.039.039,0,0,1,.039-.038H215.67a.039.039,0,0,1,.039.038v1.552a.04.04,0,0,1-.039.039" transform="translate(35.932 28.977)" fill="#2b5c8b"/>
        <path id="Path_16188" data-name="Path 16188" d="M221.913,152.148H190.549a.037.037,0,0,1-.037-.037v-1.556a.037.037,0,0,1,.037-.037h31.364a.037.037,0,0,1,.037.037v1.556a.037.037,0,0,1-.037.037" transform="translate(35.932 28.389)" fill="#2b5c8b"/>
        <rect id="Rectangle_936" data-name="Rectangle 936" width="108.961" height="76.66" transform="translate(168.56 91.198)" fill="#69bbee"/>
        <rect id="Rectangle_937" data-name="Rectangle 937" width="0.175" height="80.988" transform="translate(194.112 86.871)" fill="#24198e"/>
        <rect id="Rectangle_938" data-name="Rectangle 938" width="0.175" height="80.988" transform="translate(262.341 86.871)" fill="#24198e"/>
        <rect id="Rectangle_939" data-name="Rectangle 939" width="0.175" height="80.988" transform="translate(205.698 86.871)" fill="#24198e"/>
        <rect id="Rectangle_940" data-name="Rectangle 940" width="108.961" height="0.175" transform="translate(168.56 153.516)" fill="#24198e"/>
        <rect id="Rectangle_941" data-name="Rectangle 941" width="108.961" height="0.175" transform="translate(168.56 137.472)" fill="#24198e"/>
        <rect id="Rectangle_942" data-name="Rectangle 942" width="108.961" height="0.175" transform="translate(168.56 121.428)" fill="#24198e"/>
        <rect id="Rectangle_943" data-name="Rectangle 943" width="108.961" height="0.175" transform="translate(168.56 105.383)" fill="#24198e"/>
        <rect id="Rectangle_944" data-name="Rectangle 944" width="108.961" height="15.556" transform="translate(168.56 77.334)" fill="#1c468a"/>
        <path id="Path_16189" data-name="Path 16189" d="M226.623,166.192a19.182,19.182,0,0,1-6.737,1c-2.872-.226-4.489-1.647-4.554-4a5.91,5.91,0,0,1,2.38-4.832c-.015-.127-.029-.256-.038-.383-.106-1.318.193-2.193.885-2.6,1.122-.661,2.787.242,2.857.282l-.372.6c-.373-.206-1.482-.657-2.1-.292-.529.314-.593,1.176-.547,1.876a16.136,16.136,0,0,1,5.107-2.159,28.832,28.832,0,0,1,4.811-.776,4.137,4.137,0,0,1,.042-.43c.05-.324.169-.7.506-.779a.566.566,0,0,1,.594.295,1.594,1.594,0,0,1,.226.845c.535-.011,1.032,0,1.471.029l.013-.026a7.533,7.533,0,0,1,.113-2.427c.187-.806.493-1.215.924-1.254a.569.569,0,0,1,.584.342c.241.547-.209,2.024-.862,3.442v.007c.611.1,1.027.258,1.158.481a.5.5,0,0,1-.149.654.908.908,0,0,1-1.079.218,1.018,1.018,0,0,1-.4-.427,7.269,7.269,0,0,1-1.454,2.044.759.759,0,0,1-.858.118.8.8,0,0,1-.187-.14,9.391,9.391,0,0,1-.562,1.1c-.771,1.28-1.64,1.939-2.514,1.9a1.46,1.46,0,0,1-.94-.393,12.8,12.8,0,0,1-1.693,2.628,2.043,2.043,0,0,1-2.2.738c-1.431-.422-2.725-2.377-3.21-4.694a5.085,5.085,0,0,0-1.777,4c.056,2.009,1.36,3.127,3.877,3.326,6.355.5,17.5-5.08,18.344-9.187-.687,3.339-5.975,7.144-11.667,8.885m-8.129-7.56c.387,2.444,1.683,4.24,2.783,4.564a1.293,1.293,0,0,0,1.41-.512,11.842,11.842,0,0,0,1.777-2.867,4.075,4.075,0,0,1-.307-.909,6.183,6.183,0,0,1,0-2.67,19.387,19.387,0,0,0-3.479,1.143,11.531,11.531,0,0,0-2.187,1.25m6.785,1.143a.849.849,0,0,0,.649.417c.559.023,1.23-.541,1.839-1.548a8.985,8.985,0,0,0,.762-1.624,6.467,6.467,0,0,1-.208-1.417c-.818.062-1.709.166-2.627.323.478.88.2,2.367-.415,3.848m4.019-2.742c.115.328.218.391.219.392a6.507,6.507,0,0,0,1.312-1.885c-.351-.012-.745-.014-1.176,0a8.028,8.028,0,0,1-.355,1.5m-4.33-.9a5.058,5.058,0,0,0-.094,2.605,3.256,3.256,0,0,0,.094-2.605m7.264-.445h0m-.109-3.575a4.112,4.112,0,0,0-.175.729,5.16,5.16,0,0,0,.175-.729" transform="translate(40.613 28.508)" fill="#2b5c8b"/>
        <rect id="Rectangle_945" data-name="Rectangle 945" width="0.975" height="5.548" transform="translate(177.044 82.338)" fill="#dcf3fd"/>
        <path id="Path_16190" data-name="Path 16190" d="M151.018,69.273h.9l2.973,3.837V69.273h.959v5.548h-.817l-3.059-3.947v3.947h-.959Z" transform="translate(28.483 13.065)" fill="#dcf3fd"/>
        <path id="Path_16191" data-name="Path 16191" d="M155.886,69.273h1.078l1.672,4.265,1.664-4.265h1.054l-2.306,5.588h-.856Z" transform="translate(29.401 13.065)" fill="#dcf3fd"/>
        <path id="Path_16192" data-name="Path 16192" d="M160.794,72.062a2.9,2.9,0,1,1,2.893,2.869,2.842,2.842,0,0,1-2.893-2.869m4.779,0a1.9,1.9,0,0,0-1.886-1.973,1.879,1.879,0,0,0-1.871,1.973,1.9,1.9,0,0,0,1.886,1.973,1.879,1.879,0,0,0,1.871-1.973" transform="translate(30.327 13.05)" fill="#dcf3fd"/>
        <rect id="Rectangle_946" data-name="Rectangle 946" width="0.975" height="5.548" transform="translate(198.16 82.338)" fill="#dcf3fd"/>
        <path id="Path_16193" data-name="Path 16193" d="M168.576,72.062a2.808,2.808,0,0,1,2.861-2.869,2.893,2.893,0,0,1,2.173.864l-.626.721a2.208,2.208,0,0,0-1.553-.689,1.979,1.979,0,0,0,0,3.946,2.176,2.176,0,0,0,1.593-.72l.626.634a2.862,2.862,0,0,1-2.251.983,2.794,2.794,0,0,1-2.822-2.869" transform="translate(31.795 13.05)" fill="#dcf3fd"/>
        <path id="Path_16194" data-name="Path 16194" d="M173.7,69.273h4.114v.872h-3.139v1.442h2.783v.872h-2.783v1.489h3.178v.872H173.7Z" transform="translate(32.762 13.065)" fill="#dcf3fd"/>
        <path id="Path_16195" data-name="Path 16195" d="M134.735,201.786l-55.69-.346a4.5,4.5,0,0,1-4.467-4.524l.364-58.531a4.5,4.5,0,0,1,4.524-4.468l55.689.347a4.494,4.494,0,0,1,4.467,4.523l-.364,58.532a4.5,4.5,0,0,1-4.523,4.467" transform="translate(14.066 25.258)" fill="#3ca0d7"/>
        <path id="Path_16196" data-name="Path 16196" d="M133.257,148.858,79.9,148.526a1.978,1.978,0,0,1-1.965-1.99l.043-6.774A1.977,1.977,0,0,1,79.97,137.8l53.353.332a1.978,1.978,0,0,1,1.965,1.99l-.043,6.774a1.976,1.976,0,0,1-1.989,1.965" transform="translate(14.7 25.99)" fill="#69bbee"/>
        <path id="Path_16197" data-name="Path 16197" d="M95.661,170.435l-4.568-.029a2.067,2.067,0,0,1-2.054-2.079l.029-4.568a2.066,2.066,0,0,1,2.08-2.054l4.568.029a2.066,2.066,0,0,1,2.053,2.079l-.029,4.568a2.066,2.066,0,0,1-2.079,2.054" transform="translate(16.793 30.499)" fill="#69bbee"/>
        <path id="Path_16198" data-name="Path 16198" d="M95.6,179.418l-4.568-.029a2.067,2.067,0,0,1-2.054-2.079l.029-4.568a2.066,2.066,0,0,1,2.08-2.054l4.568.029a2.066,2.066,0,0,1,2.053,2.079l-.029,4.568a2.066,2.066,0,0,1-2.079,2.054" transform="translate(16.783 32.193)" fill="#69bbee"/>
        <path id="Path_16199" data-name="Path 16199" d="M95.549,188.4l-4.568-.029a2.067,2.067,0,0,1-2.054-2.079l.029-4.568a2.066,2.066,0,0,1,2.08-2.054l4.567.029a2.066,2.066,0,0,1,2.054,2.079l-.029,4.568a2.067,2.067,0,0,1-2.079,2.054" transform="translate(16.772 33.888)" fill="#69bbee"/>
        <path id="Path_16200" data-name="Path 16200" d="M105.335,170.5l-4.568-.029a2.067,2.067,0,0,1-2.054-2.079l.029-4.568a2.066,2.066,0,0,1,2.08-2.054l4.567.029a2.066,2.066,0,0,1,2.054,2.079l-.029,4.568a2.067,2.067,0,0,1-2.079,2.054" transform="translate(18.618 30.51)" fill="#69bbee"/>
        <path id="Path_16201" data-name="Path 16201" d="M105.279,179.478l-4.568-.029a2.067,2.067,0,0,1-2.054-2.079l.029-4.568a2.066,2.066,0,0,1,2.08-2.054l4.568.029a2.066,2.066,0,0,1,2.053,2.079l-.029,4.568a2.066,2.066,0,0,1-2.079,2.054" transform="translate(18.607 32.205)" fill="#69bbee"/>
        <path id="Path_16202" data-name="Path 16202" d="M105.223,188.461l-4.568-.029a2.067,2.067,0,0,1-2.054-2.079l.029-4.568a2.066,2.066,0,0,1,2.08-2.054l4.567.029a2.066,2.066,0,0,1,2.054,2.079l-.029,4.568a2.067,2.067,0,0,1-2.079,2.054" transform="translate(18.597 33.899)" fill="#69bbee"/>
        <path id="Path_16203" data-name="Path 16203" d="M114.607,179.536l-4.568-.029a2.067,2.067,0,0,1-2.054-2.079l.029-4.568a2.066,2.066,0,0,1,2.08-2.054l4.567.029a2.066,2.066,0,0,1,2.054,2.079l-.029,4.568a2.067,2.067,0,0,1-2.079,2.054" transform="translate(20.367 32.216)" fill="#69bbee"/>
        <path id="Path_16204" data-name="Path 16204" d="M114.551,188.519l-4.568-.029a2.067,2.067,0,0,1-2.054-2.079l.029-4.568a2.066,2.066,0,0,1,2.08-2.054l4.568.029a2.066,2.066,0,0,1,2.053,2.079l-.029,4.568a2.067,2.067,0,0,1-2.079,2.054" transform="translate(20.356 33.91)" fill="#69bbee"/>
        <path id="Path_16205" data-name="Path 16205" d="M86.484,159.536l-4.568-.029a2.067,2.067,0,0,1-2.054-2.079l.017-2.71a2.067,2.067,0,0,1,2.08-2.053l4.568.027a2.068,2.068,0,0,1,2.054,2.08l-.017,2.709a2.068,2.068,0,0,1-2.08,2.054" transform="translate(15.063 28.794)" fill="#69bbee"/>
        <path id="Path_16206" data-name="Path 16206" d="M86.425,168.955l-4.568-.029a2.067,2.067,0,0,1-2.054-2.079l.017-2.71a2.068,2.068,0,0,1,2.08-2.054l4.568.029a2.068,2.068,0,0,1,2.054,2.08L88.5,166.9a2.068,2.068,0,0,1-2.08,2.054" transform="translate(15.051 30.57)" fill="#69bbee"/>
        <path id="Path_16207" data-name="Path 16207" d="M86.367,178.374l-4.568-.029a2.067,2.067,0,0,1-2.054-2.079l.017-2.71a2.067,2.067,0,0,1,2.08-2.053l4.568.027a2.068,2.068,0,0,1,2.054,2.08l-.017,2.709a2.068,2.068,0,0,1-2.08,2.054" transform="translate(15.041 32.347)" fill="#69bbee"/>
        <path id="Path_16208" data-name="Path 16208" d="M86.308,187.793l-4.568-.029a2.067,2.067,0,0,1-2.054-2.079l.017-2.71a2.068,2.068,0,0,1,2.08-2.054l4.568.029a2.068,2.068,0,0,1,2.054,2.08l-.018,2.709a2.067,2.067,0,0,1-2.079,2.054" transform="translate(15.029 34.123)" fill="#69bbee"/>
        <path id="Path_16209" data-name="Path 16209" d="M95.716,161.452l-4.568-.029a2.067,2.067,0,0,1-2.054-2.079l.029-4.568a2.066,2.066,0,0,1,2.08-2.054l4.568.029a2.066,2.066,0,0,1,2.053,2.079l-.029,4.568a2.066,2.066,0,0,1-2.079,2.054" transform="translate(16.804 28.805)" fill="#69bbee"/>
        <path id="Path_16210" data-name="Path 16210" d="M105.39,161.512l-4.568-.029a2.067,2.067,0,0,1-2.054-2.079l.029-4.568a2.066,2.066,0,0,1,2.08-2.054l4.568.029a2.066,2.066,0,0,1,2.053,2.079l-.027,4.568a2.068,2.068,0,0,1-2.08,2.054" transform="translate(18.628 28.816)" fill="#69bbee"/>
        <path id="Path_16211" data-name="Path 16211" d="M114.719,161.57l-4.568-.029a2.067,2.067,0,0,1-2.054-2.079l.029-4.568a2.066,2.066,0,0,1,2.08-2.054l4.567.029a2.066,2.066,0,0,1,2.054,2.079l-.029,4.568a2.067,2.067,0,0,1-2.079,2.054" transform="translate(20.388 28.827)" fill="#69bbee"/>
        <path id="Path_16212" data-name="Path 16212" d="M123.43,170.651l-4.568-.029a2.067,2.067,0,0,1-2.054-2.079l.029-4.568a2.066,2.066,0,0,1,2.08-2.054l4.568.029a2.066,2.066,0,0,1,2.053,2.079l-.027,4.568a2.068,2.068,0,0,1-2.08,2.054" transform="translate(22.031 30.54)" fill="#69bbee"/>
        <path id="Path_16213" data-name="Path 16213" d="M123.486,161.668l-4.568-.029a2.067,2.067,0,0,1-2.054-2.079l.029-4.568a2.066,2.066,0,0,1,2.08-2.054l4.568.029a2.066,2.066,0,0,1,2.053,2.079l-.029,4.568a2.066,2.066,0,0,1-2.079,2.054" transform="translate(22.041 28.845)" fill="#69bbee"/>
        <path id="Path_16214" data-name="Path 16214" d="M123.318,190.311l-4.568-.029A2.067,2.067,0,0,1,116.7,188.2l.1-15.245a2.066,2.066,0,0,1,2.079-2.054l4.568.029a2.066,2.066,0,0,1,2.054,2.079l-.1,15.245a2.066,2.066,0,0,1-2.079,2.054" transform="translate(22.01 32.234)" fill="#69bbee"/>
        <path id="Path_16215" data-name="Path 16215" d="M93.687,142.646l.01-1.463.213-.556a.446.446,0,0,1,.346.351l-.012,1.951-.14.139Zm.416.56.137.14-.012,1.951a.448.448,0,0,1-.351.347l-.206-.559.01-1.464Z" transform="translate(17.667 26.523)" fill="#2b5c8b"/>
        <path id="Path_16216" data-name="Path 16216" d="M95.836,141.337l-.008,1.323-.421.416-.138-.14.011-1.811Zm-.581,3.829.011-1.811.14-.139.416.421-.008,1.324Zm2.435.5-2.09-.013a.446.446,0,0,1-.347-.351l.559-.206,1.672.011Zm-.181-4.461-1.665-.011-.556-.212a.446.446,0,0,1,.351-.347l2.082.013Zm.13,1.464.01-1.463.213-.556a.446.446,0,0,1,.346.351l-.012,1.951-.14.139Zm.415.56.139.14-.013,1.95a.448.448,0,0,1-.351.347l-.2-.559.008-1.463Z" transform="translate(17.966 26.525)" fill="#2b5c8b"/>
        <path id="Path_16217" data-name="Path 16217" d="M99.412,141.359l-.008,1.323-.421.416-.138-.14.011-1.811Zm-.581,3.829.011-1.811.14-.139.416.421-.008,1.324Zm2.435.5-2.09-.013a.446.446,0,0,1-.347-.351l.559-.206,1.672.011Zm-.181-4.461-1.665-.011-.556-.212a.446.446,0,0,1,.351-.347l2.082.013Zm.13,1.464.01-1.463.213-.556a.446.446,0,0,1,.346.351l-.012,1.951-.14.139Zm.415.56.139.14-.013,1.95a.446.446,0,0,1-.351.347l-.206-.559.01-1.463Z" transform="translate(18.64 26.53)" fill="#2b5c8b"/>
        <path id="Path_16218" data-name="Path 16218" d="M102.988,141.38l-.008,1.324-.421.416-.139-.14.012-1.811Zm-.581,3.83.011-1.811.14-.139.416.421L102.966,145Zm2.435.5-2.091-.013a.446.446,0,0,1-.346-.351l.559-.206,1.672.011Zm-.181-4.461L103,141.241l-.555-.212a.446.446,0,0,1,.351-.347l2.082.013Zm.13,1.464.01-1.463.213-.556a.446.446,0,0,1,.346.351L105.348,143l-.14.139Zm.415.56.139.14-.013,1.951a.448.448,0,0,1-.351.347l-.206-.559.01-1.464Z" transform="translate(19.315 26.534)" fill="#2b5c8b"/>
        <path id="Path_16219" data-name="Path 16219" d="M106.564,141.4l-.008,1.323-.421.416L106,143l.011-1.811Zm-.581,3.828L106,143.42l.139-.139.416.421-.008,1.324Zm2.435.5-2.09-.013a.449.449,0,0,1-.347-.351l.559-.206,1.672.011Zm-.179-4.461-1.666-.011-.556-.212a.446.446,0,0,1,.351-.347l2.082.013Zm.128,1.464.01-1.463.213-.556a.446.446,0,0,1,.346.351l-.012,1.95-.139.139Zm.416.56.138.14-.013,1.951a.448.448,0,0,1-.351.347l-.206-.559.01-1.463Z" transform="translate(19.989 26.538)" fill="#2b5c8b"/>
        <path id="Path_16220" data-name="Path 16220" d="M110.14,141.425l-.008,1.323-.421.417-.138-.14.011-1.813Zm-.581,3.829.011-1.811.14-.139.416.421-.008,1.324Zm2.435.5-2.091-.013a.447.447,0,0,1-.346-.349l.559-.207,1.672.011Zm-.181-4.461-1.665-.011-.556-.212a.448.448,0,0,1,.351-.347l2.082.013Zm.13,1.466.01-1.464.213-.556a.446.446,0,0,1,.346.351l-.012,1.95-.14.14Zm.415.559.139.14-.013,1.951a.446.446,0,0,1-.351.347l-.206-.559.01-1.463Z" transform="translate(20.663 26.542)" fill="#2b5c8b"/>
        <path id="Path_16221" data-name="Path 16221" d="M113.716,141.447l-.008,1.324-.421.416-.138-.14.011-1.811Zm-.581,3.83.011-1.811.14-.139.416.421-.008,1.324Zm2.435.5-2.091-.013a.446.446,0,0,1-.346-.351l.559-.206,1.672.011Zm-.181-4.461-1.665-.011-.556-.212a.446.446,0,0,1,.351-.347l2.082.013Zm.13,1.464.01-1.463.213-.556a.446.446,0,0,1,.346.351l-.012,1.951-.14.139Zm.415.56.139.14-.013,1.951a.448.448,0,0,1-.351.347l-.206-.559.01-1.464Z" transform="translate(21.338 26.546)" fill="#2b5c8b"/>
        <path id="Path_16222" data-name="Path 16222" d="M117.292,141.47l-.008,1.323-.421.416-.139-.14.012-1.811Zm-.581,3.829.011-1.811.14-.139.416.421-.008,1.324Zm2.435.5-2.091-.013a.446.446,0,0,1-.346-.351l.559-.206,1.672.011Zm-.181-4.461-1.666-.011-.555-.212a.446.446,0,0,1,.351-.347l2.082.013Zm.13,1.464.01-1.463.213-.556a.446.446,0,0,1,.346.351l-.012,1.951-.14.139Zm.415.56.139.14-.013,1.951a.446.446,0,0,1-.351.347l-.206-.559.01-1.463Z" transform="translate(22.012 26.55)" fill="#2b5c8b"/>
        <path id="Path_16223" data-name="Path 16223" d="M120.868,141.492l-.008,1.323-.421.416-.138-.14.011-1.811Zm-.581,3.829.011-1.811.14-.139.416.421-.008,1.324Zm2.435.5-2.091-.013a.446.446,0,0,1-.346-.351l.559-.206,1.672.011Zm-.181-4.461-1.665-.011-.556-.212a.446.446,0,0,1,.351-.347l2.082.013Zm.13,1.464.01-1.463.213-.556a.446.446,0,0,1,.346.351l-.012,1.95-.14.139Zm.415.56.138.14-.012,1.951a.446.446,0,0,1-.351.347l-.206-.559.01-1.463Z" transform="translate(22.687 26.555)" fill="#2b5c8b"/>
        <path id="Path_16224" data-name="Path 16224" d="M178.837,188.32v2.267a.773.773,0,0,1-.178.487,1.039,1.039,0,0,1-.487.326.936.936,0,0,1-.191.046,1.173,1.173,0,0,1-.183.013H134.814a1,1,0,0,1-1.029-.743.654.654,0,0,1-.01-.086v-2.355a.7.7,0,0,1,.01-.087,1,1,0,0,1,1.029-.742H177.8a1.175,1.175,0,0,1,.183.013,1.121,1.121,0,0,1,.191.045,1.05,1.05,0,0,1,.487.327.771.771,0,0,1,.178.487" transform="translate(25.231 35.354)" fill="#ffb600"/>
        <path id="Path_16225" data-name="Path 16225" d="M157.73,191.46H134.7a.921.921,0,0,1-.893-.647.635.635,0,0,1-.025-.1.654.654,0,0,1-.01-.086v-2.355a.7.7,0,0,1,.01-.087.717.717,0,0,1,.025-.1.921.921,0,0,1,.893-.645h20.2a7.032,7.032,0,0,0,2.828,4.012" transform="translate(25.231 35.354)" fill="#ff9f00"/>
        <rect id="Rectangle_947" data-name="Rectangle 947" width="0.489" height="4.013" transform="translate(198.348 222.801)" fill="#ff9f00"/>
        <rect id="Rectangle_948" data-name="Rectangle 948" width="0.489" height="4.013" transform="translate(196.694 222.801)" fill="#ff9f00"/>
        <rect id="Rectangle_949" data-name="Rectangle 949" width="0.489" height="4.013" transform="translate(194.712 222.801)" fill="#ff9f00"/>
        <rect id="Rectangle_950" data-name="Rectangle 950" width="0.489" height="4.013" transform="translate(191.673 222.801)" fill="#ff9f00"/>
        <rect id="Rectangle_951" data-name="Rectangle 951" width="0.489" height="4.013" transform="translate(188.457 222.801)" fill="#ff9f00"/>
        <rect id="Rectangle_952" data-name="Rectangle 952" width="0.489" height="4.013" transform="translate(183.531 222.801)" fill="#ff9f00"/>
        <rect id="Rectangle_953" data-name="Rectangle 953" width="0.489" height="4.013" transform="translate(178.916 222.801)" fill="#ff9f00"/>
        <rect id="Rectangle_954" data-name="Rectangle 954" width="0.489" height="4.013" transform="translate(174.797 222.801)" fill="#ff9f00"/>
        <rect id="Rectangle_955" data-name="Rectangle 955" width="0.489" height="4.013" transform="translate(199.923 222.801)" fill="#ff9f00"/>
        <rect id="Rectangle_956" data-name="Rectangle 956" width="0.489" height="4.013" transform="translate(200.961 222.801)" fill="#ff9f00"/>
        <rect id="Rectangle_957" data-name="Rectangle 957" width="0.489" height="4.013" transform="translate(201.966 222.801)" fill="#ff9f00"/>
        <path id="Path_16226" data-name="Path 16226" d="M171.043,187.461v3.984a1.163,1.163,0,0,1-.183.014h-.305v-4.013h.305a1.163,1.163,0,0,1,.183.014" transform="translate(32.168 35.354)" fill="#ff9f00"/>
        <path id="Path_16227" data-name="Path 16227" d="M171.614,187.824v3.241a1.047,1.047,0,0,1-.489.327v-3.9a1.03,1.03,0,0,1,.489.327" transform="translate(32.275 35.363)" fill="#ff9f00"/>
        <path id="Path_16228" data-name="Path 16228" d="M174.969,184.946v2.265a.78.78,0,0,1-.177.489,1,1,0,0,1-.1.1,1.068,1.068,0,0,1-.39.222,1.1,1.1,0,0,1-.191.045,1.325,1.325,0,0,1-.182.014H130.947a1,1,0,0,1-1.028-.744.657.657,0,0,1-.01-.084c0-.014,0-.03,0-.045v-2.265c0-.015,0-.031,0-.045a.7.7,0,0,1,.01-.086,1.007,1.007,0,0,1,1.028-.744H173.93c.026,0,.055,0,.081,0l.03,0h.006a.161.161,0,0,1,.039,0l.026,0a1.094,1.094,0,0,1,.191.044c.036.012.07.026.1.04h0l.067.032.038.021.034.021a.829.829,0,0,1,.127.093c.013.011.024.024.036.034s.014.013.021.019l.011.013.01.01a.355.355,0,0,1,.039.044.772.772,0,0,1,.177.487" transform="translate(24.502 34.717)" fill="#ffb600"/>
        <path id="Path_16229" data-name="Path 16229" d="M153.863,188.085H130.835a.92.92,0,0,1-.891-.648.673.673,0,0,1-.025-.1c0-.029-.008-.056-.01-.084s0-.03,0-.045v-2.265c0-.015,0-.031,0-.046s.006-.056.01-.084a.657.657,0,0,1,.025-.1.921.921,0,0,1,.891-.649h20.2c.008.034.018.067.029.1a7.012,7.012,0,0,0,2.8,3.914" transform="translate(24.502 34.717)" fill="#ff9f00"/>
        <rect id="Rectangle_958" data-name="Rectangle 958" width="0.489" height="4.013" transform="translate(193.753 218.788)" fill="#ff9f00"/>
        <rect id="Rectangle_959" data-name="Rectangle 959" width="0.489" height="4.013" transform="translate(192.099 218.788)" fill="#ff9f00"/>
        <rect id="Rectangle_960" data-name="Rectangle 960" width="0.489" height="4.013" transform="translate(190.115 218.788)" fill="#ff9f00"/>
        <rect id="Rectangle_961" data-name="Rectangle 961" width="0.489" height="4.013" transform="translate(187.076 218.788)" fill="#ff9f00"/>
        <rect id="Rectangle_962" data-name="Rectangle 962" width="0.489" height="4.013" transform="translate(183.862 218.788)" fill="#ff9f00"/>
        <rect id="Rectangle_963" data-name="Rectangle 963" width="0.489" height="4.013" transform="translate(178.934 218.788)" fill="#ff9f00"/>
        <rect id="Rectangle_964" data-name="Rectangle 964" width="0.489" height="4.013" transform="translate(174.321 218.788)" fill="#ff9f00"/>
        <rect id="Rectangle_965" data-name="Rectangle 965" width="0.489" height="4.013" transform="translate(170.201 218.788)" fill="#ff9f00"/>
        <rect id="Rectangle_966" data-name="Rectangle 966" width="0.489" height="4.013" transform="translate(195.326 218.788)" fill="#ff9f00"/>
        <rect id="Rectangle_967" data-name="Rectangle 967" width="0.489" height="4.013" transform="translate(196.366 218.788)" fill="#ff9f00"/>
        <rect id="Rectangle_968" data-name="Rectangle 968" width="0.489" height="4.013" transform="translate(197.371 218.788)" fill="#ff9f00"/>
        <path id="Path_16230" data-name="Path 16230" d="M167.176,184.085v3.984a1.154,1.154,0,0,1-.183.014h-.305v-4.013h.305a1.154,1.154,0,0,1,.183.014" transform="translate(31.438 34.717)" fill="#ff9f00"/>
        <path id="Path_16231" data-name="Path 16231" d="M167.747,184.448v3.241a1.047,1.047,0,0,1-.489.327v-3.9a1.03,1.03,0,0,1,.489.327" transform="translate(31.546 34.727)" fill="#ff9f00"/>
        <path id="Path_16232" data-name="Path 16232" d="M176.837,181.652v2.267a.773.773,0,0,1-.178.487,1.033,1.033,0,0,1-.487.326,1.216,1.216,0,0,1-.191.046,1.3,1.3,0,0,1-.182.013H132.815a1.179,1.179,0,0,1-.479-.1.9.9,0,0,1-.548-.634c0-.019-.006-.037-.008-.056s0-.026,0-.039,0-.03,0-.044v-2.267c0-.014,0-.03,0-.044a.509.509,0,0,1,.01-.086,1,1,0,0,1,1.028-.743H175.8a1.139,1.139,0,0,1,.182.013,1.1,1.1,0,0,1,.191.044,1.055,1.055,0,0,1,.487.328.771.771,0,0,1,.178.487" transform="translate(24.854 34.097)" fill="#ffb600"/>
        <path id="Path_16233" data-name="Path 16233" d="M155.731,184.792H132.7a.96.96,0,0,1-.427-.1.881.881,0,0,1-.489-.634c0-.019-.006-.037-.008-.056s0-.026,0-.039,0-.03,0-.044v-2.267c0-.015,0-.03,0-.044a.509.509,0,0,1,.01-.086.884.884,0,0,1,.024-.093.918.918,0,0,1,.893-.65h20.2a7.044,7.044,0,0,0,2.686,3.912c.046.034.093.068.141.1" transform="translate(24.854 34.097)" fill="#ff9f00"/>
        <rect id="Rectangle_969" data-name="Rectangle 969" width="0.489" height="4.013" transform="translate(195.973 214.875)" fill="#ff9f00"/>
        <rect id="Rectangle_970" data-name="Rectangle 970" width="0.489" height="4.013" transform="translate(194.32 214.875)" fill="#ff9f00"/>
        <rect id="Rectangle_971" data-name="Rectangle 971" width="0.489" height="4.013" transform="translate(192.337 214.875)" fill="#ff9f00"/>
        <rect id="Rectangle_972" data-name="Rectangle 972" width="0.489" height="4.013" transform="translate(189.298 214.875)" fill="#ff9f00"/>
        <rect id="Rectangle_973" data-name="Rectangle 973" width="0.489" height="4.013" transform="translate(186.084 214.875)" fill="#ff9f00"/>
        <rect id="Rectangle_974" data-name="Rectangle 974" width="0.489" height="4.013" transform="translate(181.156 214.875)" fill="#ff9f00"/>
        <rect id="Rectangle_975" data-name="Rectangle 975" width="0.489" height="4.013" transform="translate(176.542 214.875)" fill="#ff9f00"/>
        <rect id="Rectangle_976" data-name="Rectangle 976" width="0.489" height="4.013" transform="translate(172.422 214.875)" fill="#ff9f00"/>
        <rect id="Rectangle_977" data-name="Rectangle 977" width="0.489" height="4.013" transform="translate(197.548 214.875)" fill="#ff9f00"/>
        <rect id="Rectangle_978" data-name="Rectangle 978" width="0.489" height="4.013" transform="translate(198.588 214.875)" fill="#ff9f00"/>
        <rect id="Rectangle_979" data-name="Rectangle 979" width="0.489" height="4.013" transform="translate(199.591 214.875)" fill="#ff9f00"/>
        <path id="Path_16234" data-name="Path 16234" d="M169.045,180.792v3.984a1.162,1.162,0,0,1-.183.014h-.305v-4.013h.305a1.162,1.162,0,0,1,.183.014" transform="translate(31.791 34.096)" fill="#ff9f00"/>
        <path id="Path_16235" data-name="Path 16235" d="M169.616,181.155V184.4a1.039,1.039,0,0,1-.489.327v-3.9a1.038,1.038,0,0,1,.489.327" transform="translate(31.899 34.106)" fill="#ff9f00"/>
        <path id="Path_16236" data-name="Path 16236" d="M177.7,178.277v2.266a.771.771,0,0,1-.178.487c-.015.019-.031.036-.048.053a1.007,1.007,0,0,1-.3.216,1.172,1.172,0,0,1-.144.057,1.121,1.121,0,0,1-.191.045c-.03,0-.058.008-.089.011s-.064,0-.094,0H133.682a1.006,1.006,0,0,1-1.029-.744.656.656,0,0,1-.01-.084v-2.356a.959.959,0,0,1,.915-.823c.04,0,.082-.006.124-.006h42.982c.03,0,.062,0,.094,0s.059.006.089.011a1.122,1.122,0,0,1,.191.044,1.05,1.05,0,0,1,.487.327.769.769,0,0,1,.178.488" transform="translate(25.017 33.46)" fill="#ffb600"/>
        <path id="Path_16237" data-name="Path 16237" d="M156.6,181.416H133.57a.922.922,0,0,1-.893-.648.634.634,0,0,1-.025-.1.681.681,0,0,1-.01-.084V178.23a.9.9,0,0,1,.818-.821c.036,0,.073-.007.109-.007h20.2v.007a7.038,7.038,0,0,0,2.827,4.007" transform="translate(25.017 33.459)" fill="#ff9f00"/>
        <rect id="Rectangle_980" data-name="Rectangle 980" width="0.489" height="4.013" transform="translate(197.003 210.863)" fill="#ff9f00"/>
        <rect id="Rectangle_981" data-name="Rectangle 981" width="0.489" height="4.013" transform="translate(195.349 210.863)" fill="#ff9f00"/>
        <rect id="Rectangle_982" data-name="Rectangle 982" width="0.489" height="4.013" transform="translate(193.366 210.863)" fill="#ff9f00"/>
        <rect id="Rectangle_983" data-name="Rectangle 983" width="0.489" height="4.013" transform="translate(190.327 210.863)" fill="#ff9f00"/>
        <rect id="Rectangle_984" data-name="Rectangle 984" width="0.489" height="4.013" transform="translate(187.113 210.863)" fill="#ff9f00"/>
        <rect id="Rectangle_985" data-name="Rectangle 985" width="0.489" height="4.013" transform="translate(182.185 210.863)" fill="#ff9f00"/>
        <rect id="Rectangle_986" data-name="Rectangle 986" width="0.489" height="4.013" transform="translate(177.572 210.863)" fill="#ff9f00"/>
        <rect id="Rectangle_987" data-name="Rectangle 987" width="0.489" height="4.013" transform="translate(173.452 210.863)" fill="#ff9f00"/>
        <rect id="Rectangle_988" data-name="Rectangle 988" width="0.489" height="4.013" transform="translate(198.577 210.863)" fill="#ff9f00"/>
        <rect id="Rectangle_989" data-name="Rectangle 989" width="0.489" height="4.013" transform="translate(199.617 210.863)" fill="#ff9f00"/>
        <rect id="Rectangle_990" data-name="Rectangle 990" width="0.489" height="4.013" transform="translate(200.622 210.863)" fill="#ff9f00"/>
        <path id="Path_16238" data-name="Path 16238" d="M169.911,177.416V181.4a1.165,1.165,0,0,1-.183.014h-.305V177.4h.305a1.166,1.166,0,0,1,.183.014" transform="translate(31.954 33.459)" fill="#ff9f00"/>
        <path id="Path_16239" data-name="Path 16239" d="M170.482,177.779v3.241a1.048,1.048,0,0,1-.489.327v-3.9a1.039,1.039,0,0,1,.489.327" transform="translate(32.062 33.469)" fill="#ff9f00"/>
        <path id="Path_16240" data-name="Path 16240" d="M175.045,174.906v2.265a.77.77,0,0,1-.177.487,1.03,1.03,0,0,1-.489.327,1.109,1.109,0,0,1-.19.045.534.534,0,0,1-.059.007h-.008a.146.146,0,0,1-.032,0l-.029,0H131.024a.982.982,0,0,1-1.039-.828c0-.014,0-.03,0-.045v-2.265c0-.014,0-.031,0-.045a.36.36,0,0,1,0-.037.942.942,0,0,1,.78-.764l.031-.006a1.173,1.173,0,0,1,.226-.021h42.982c.032,0,.061,0,.093,0l.038,0h0l.048.007a1.107,1.107,0,0,1,.19.044,1.032,1.032,0,0,1,.489.328.765.765,0,0,1,.177.487" transform="translate(24.516 32.824)" fill="#ffb600"/>
        <path id="Path_16241" data-name="Path 16241" d="M153.939,178.045H130.913a.909.909,0,0,1-.928-.828c0-.014,0-.03,0-.045v-2.265c0-.015,0-.031,0-.045a.36.36,0,0,1,0-.037.9.9,0,0,1,.721-.769.135.135,0,0,1,.039-.008.937.937,0,0,1,.165-.015h20.2a.216.216,0,0,0,.008.03,7.026,7.026,0,0,0,2.81,3.977l.01.007" transform="translate(24.516 32.824)" fill="#ff9f00"/>
        <rect id="Rectangle_991" data-name="Rectangle 991" width="0.489" height="4.013" transform="translate(193.843 206.856)" fill="#ff9f00"/>
        <rect id="Rectangle_992" data-name="Rectangle 992" width="0.489" height="4.013" transform="translate(192.19 206.856)" fill="#ff9f00"/>
        <rect id="Rectangle_993" data-name="Rectangle 993" width="0.489" height="4.013" transform="translate(190.206 206.856)" fill="#ff9f00"/>
        <rect id="Rectangle_994" data-name="Rectangle 994" width="0.489" height="4.013" transform="translate(187.167 206.856)" fill="#ff9f00"/>
        <rect id="Rectangle_995" data-name="Rectangle 995" width="0.489" height="4.013" transform="translate(183.952 206.856)" fill="#ff9f00"/>
        <rect id="Rectangle_996" data-name="Rectangle 996" width="0.489" height="4.013" transform="translate(179.025 206.856)" fill="#ff9f00"/>
        <rect id="Rectangle_997" data-name="Rectangle 997" width="0.489" height="4.013" transform="translate(174.412 206.856)" fill="#ff9f00"/>
        <rect id="Rectangle_998" data-name="Rectangle 998" width="0.489" height="4.013" transform="translate(170.292 206.856)" fill="#ff9f00"/>
        <rect id="Rectangle_999" data-name="Rectangle 999" width="0.489" height="4.013" transform="translate(195.417 206.856)" fill="#ff9f00"/>
        <rect id="Rectangle_1000" data-name="Rectangle 1000" width="0.489" height="4.013" transform="translate(196.457 206.856)" fill="#ff9f00"/>
        <rect id="Rectangle_1001" data-name="Rectangle 1001" width="0.489" height="4.013" transform="translate(197.461 206.856)" fill="#ff9f00"/>
        <path id="Path_16242" data-name="Path 16242" d="M167.253,174.046v3.984a1.163,1.163,0,0,1-.183.014h-.305v-4.013h.305a1.163,1.163,0,0,1,.183.014" transform="translate(31.453 32.824)" fill="#ff9f00"/>
        <path id="Path_16243" data-name="Path 16243" d="M167.823,174.409v3.241a1.047,1.047,0,0,1-.489.327v-3.9a1.039,1.039,0,0,1,.489.327" transform="translate(31.56 32.833)" fill="#ff9f00"/>
        <path id="Path_16244" data-name="Path 16244" d="M174.969,171.555v2.266a.776.776,0,0,1-.177.487,1.161,1.161,0,0,1-.1.1,1.068,1.068,0,0,1-.39.222,1.089,1.089,0,0,1-.149.038h0c-.013,0-.026.006-.039.007a1.163,1.163,0,0,1-.182.014H130.947a1.022,1.022,0,0,1-.134-.008l-.051-.006a.968.968,0,0,1-.844-.739.517.517,0,0,1-.008-.075c0-.015,0-.031,0-.045v-2.266c0-.017,0-.031,0-.045a.7.7,0,0,1,.01-.086,1.006,1.006,0,0,1,1.028-.743H173.93l.081,0h.036a.263.263,0,0,1,.039.006.106.106,0,0,1,.026,0,1.1,1.1,0,0,1,.191.044c.036.012.07.026.1.04h0a1.044,1.044,0,0,1,.343.242c.013.014.027.029.039.044a.775.775,0,0,1,.177.489" transform="translate(24.502 32.192)" fill="#ffb600"/>
        <path id="Path_16245" data-name="Path 16245" d="M153.863,174.694H130.782l-.059-.006a.9.9,0,0,1-.8-.746.517.517,0,0,1-.008-.075c0-.017,0-.031,0-.045v-2.266c0-.017,0-.031,0-.046s.006-.056.01-.084a.656.656,0,0,1,.025-.1.92.92,0,0,1,.891-.648h20.2c.008.033.018.065.029.1a7.017,7.017,0,0,0,2.758,3.884c.013.011.029.019.042.03" transform="translate(24.502 32.192)" fill="#ff9f00"/>
        <rect id="Rectangle_1002" data-name="Rectangle 1002" width="0.489" height="4.013" transform="translate(193.753 202.872)" fill="#ff9f00"/>
        <rect id="Rectangle_1003" data-name="Rectangle 1003" width="0.489" height="4.013" transform="translate(192.099 202.872)" fill="#ff9f00"/>
        <rect id="Rectangle_1004" data-name="Rectangle 1004" width="0.489" height="4.013" transform="translate(190.115 202.872)" fill="#ff9f00"/>
        <rect id="Rectangle_1005" data-name="Rectangle 1005" width="0.489" height="4.013" transform="translate(187.076 202.872)" fill="#ff9f00"/>
        <rect id="Rectangle_1006" data-name="Rectangle 1006" width="0.489" height="4.013" transform="translate(183.862 202.872)" fill="#ff9f00"/>
        <rect id="Rectangle_1007" data-name="Rectangle 1007" width="0.489" height="4.013" transform="translate(178.934 202.872)" fill="#ff9f00"/>
        <rect id="Rectangle_1008" data-name="Rectangle 1008" width="0.489" height="4.013" transform="translate(174.321 202.872)" fill="#ff9f00"/>
        <rect id="Rectangle_1009" data-name="Rectangle 1009" width="0.489" height="4.013" transform="translate(170.201 202.872)" fill="#ff9f00"/>
        <rect id="Rectangle_1010" data-name="Rectangle 1010" width="0.489" height="4.013" transform="translate(195.326 202.872)" fill="#ff9f00"/>
        <rect id="Rectangle_1011" data-name="Rectangle 1011" width="0.489" height="4.013" transform="translate(196.366 202.872)" fill="#ff9f00"/>
        <rect id="Rectangle_1012" data-name="Rectangle 1012" width="0.489" height="4.013" transform="translate(197.371 202.872)" fill="#ff9f00"/>
        <path id="Path_16246" data-name="Path 16246" d="M167.176,170.694v3.984a1.154,1.154,0,0,1-.183.014h-.305V170.68h.305a1.156,1.156,0,0,1,.183.014" transform="translate(31.438 32.192)" fill="#ff9f00"/>
        <path id="Path_16247" data-name="Path 16247" d="M167.747,171.057V174.3a1.048,1.048,0,0,1-.489.327v-3.9a1.03,1.03,0,0,1,.489.327" transform="translate(31.546 32.201)" fill="#ff9f00"/>
        <path id="Path_16248" data-name="Path 16248" d="M176.837,168.262v2.265a.774.774,0,0,1-.178.489,1.033,1.033,0,0,1-.487.326,1.1,1.1,0,0,1-.191.045,1.138,1.138,0,0,1-.182.014H132.815a1.2,1.2,0,0,1-.479-.1.906.906,0,0,1-.548-.635c0-.018-.006-.037-.008-.056s0-.026,0-.039,0-.03,0-.045v-2.265c0-.014,0-.031,0-.045a.523.523,0,0,1,.01-.086,1.006,1.006,0,0,1,1.028-.743H175.8a1.138,1.138,0,0,1,.182.014,1.1,1.1,0,0,1,.191.044,1.029,1.029,0,0,1,.487.328.766.766,0,0,1,.178.487" transform="translate(24.854 31.571)" fill="#ffb600"/>
        <path id="Path_16249" data-name="Path 16249" d="M155.731,171.4H132.7a.96.96,0,0,1-.427-.1.881.881,0,0,1-.489-.634c0-.019-.006-.038-.008-.056s0-.026,0-.039,0-.03,0-.046v-2.264c0-.015,0-.031,0-.046a.524.524,0,0,1,.01-.084.815.815,0,0,1,.024-.093.92.92,0,0,1,.893-.651h20.2a7.04,7.04,0,0,0,2.686,3.914c.046.034.093.067.141.1" transform="translate(24.854 31.57)" fill="#ff9f00"/>
        <rect id="Rectangle_1013" data-name="Rectangle 1013" width="0.489" height="4.013" transform="translate(195.973 198.959)" fill="#ff9f00"/>
        <rect id="Rectangle_1014" data-name="Rectangle 1014" width="0.489" height="4.013" transform="translate(194.32 198.959)" fill="#ff9f00"/>
        <rect id="Rectangle_1015" data-name="Rectangle 1015" width="0.489" height="4.013" transform="translate(192.337 198.959)" fill="#ff9f00"/>
        <rect id="Rectangle_1016" data-name="Rectangle 1016" width="0.489" height="4.013" transform="translate(189.298 198.959)" fill="#ff9f00"/>
        <rect id="Rectangle_1017" data-name="Rectangle 1017" width="0.489" height="4.013" transform="translate(186.084 198.959)" fill="#ff9f00"/>
        <rect id="Rectangle_1018" data-name="Rectangle 1018" width="0.489" height="4.013" transform="translate(181.156 198.959)" fill="#ff9f00"/>
        <rect id="Rectangle_1019" data-name="Rectangle 1019" width="0.489" height="4.013" transform="translate(176.542 198.959)" fill="#ff9f00"/>
        <rect id="Rectangle_1020" data-name="Rectangle 1020" width="0.489" height="4.013" transform="translate(172.422 198.959)" fill="#ff9f00"/>
        <rect id="Rectangle_1021" data-name="Rectangle 1021" width="0.489" height="4.013" transform="translate(197.548 198.959)" fill="#ff9f00"/>
        <rect id="Rectangle_1022" data-name="Rectangle 1022" width="0.489" height="4.013" transform="translate(198.588 198.959)" fill="#ff9f00"/>
        <rect id="Rectangle_1023" data-name="Rectangle 1023" width="0.489" height="4.013" transform="translate(199.591 198.959)" fill="#ff9f00"/>
        <path id="Path_16250" data-name="Path 16250" d="M169.045,167.4v3.984a1.164,1.164,0,0,1-.183.014h-.305v-4.013h.305a1.164,1.164,0,0,1,.183.014" transform="translate(31.791 31.57)" fill="#ff9f00"/>
        <path id="Path_16251" data-name="Path 16251" d="M169.616,167.764v3.241a1.047,1.047,0,0,1-.489.327v-3.9a1.03,1.03,0,0,1,.489.327" transform="translate(31.899 31.58)" fill="#ff9f00"/>
        <path id="Path_16252" data-name="Path 16252" d="M179.793,164.884v2.267a.776.776,0,0,1-.177.486h0c-.015.019-.031.036-.048.053a.947.947,0,0,1-.229.179,1.041,1.041,0,0,1-.137.067h0a.746.746,0,0,1-.073.026,1.1,1.1,0,0,1-.191.045,1.139,1.139,0,0,1-.182.013H135.771a1,1,0,0,1-1.028-.743.5.5,0,0,1-.01-.086c0-.014,0-.03,0-.044v-2.267c0-.014,0-.03,0-.044a.958.958,0,0,1,.915-.823,1.044,1.044,0,0,1,.122-.006h42.984a1.3,1.3,0,0,1,.182.013,1.215,1.215,0,0,1,.191.045,1.056,1.056,0,0,1,.44.273.7.7,0,0,1,.048.053h0a.776.776,0,0,1,.177.486" transform="translate(25.411 30.934)" fill="#ffb600"/>
        <path id="Path_16253" data-name="Path 16253" d="M158.687,168.024H135.659a.919.919,0,0,1-.893-.649.834.834,0,0,1-.024-.094.5.5,0,0,1-.01-.086c0-.014,0-.03,0-.044v-2.267c0-.015,0-.03,0-.044a.9.9,0,0,1,.817-.823.833.833,0,0,1,.109-.006h20.2v.006a7.029,7.029,0,0,0,2.827,4.006" transform="translate(25.411 30.934)" fill="#ff9f00"/>
        <rect id="Rectangle_1024" data-name="Rectangle 1024" width="0.489" height="4.013" transform="translate(199.486 194.946)" fill="#ff9f00"/>
        <rect id="Rectangle_1025" data-name="Rectangle 1025" width="0.489" height="4.013" transform="translate(197.832 194.946)" fill="#ff9f00"/>
        <rect id="Rectangle_1026" data-name="Rectangle 1026" width="0.489" height="4.013" transform="translate(195.849 194.946)" fill="#ff9f00"/>
        <rect id="Rectangle_1027" data-name="Rectangle 1027" width="0.489" height="4.013" transform="translate(192.81 194.946)" fill="#ff9f00"/>
        <rect id="Rectangle_1028" data-name="Rectangle 1028" width="0.489" height="4.013" transform="translate(189.596 194.946)" fill="#ff9f00"/>
        <rect id="Rectangle_1029" data-name="Rectangle 1029" width="0.489" height="4.013" transform="translate(184.668 194.946)" fill="#ff9f00"/>
        <rect id="Rectangle_1030" data-name="Rectangle 1030" width="0.489" height="4.013" transform="translate(180.055 194.946)" fill="#ff9f00"/>
        <rect id="Rectangle_1031" data-name="Rectangle 1031" width="0.489" height="4.013" transform="translate(175.935 194.946)" fill="#ff9f00"/>
        <rect id="Rectangle_1032" data-name="Rectangle 1032" width="0.489" height="4.013" transform="translate(201.06 194.946)" fill="#ff9f00"/>
        <rect id="Rectangle_1033" data-name="Rectangle 1033" width="0.489" height="4.013" transform="translate(202.1 194.946)" fill="#ff9f00"/>
        <rect id="Rectangle_1034" data-name="Rectangle 1034" width="0.489" height="4.013" transform="translate(203.105 194.946)" fill="#ff9f00"/>
        <path id="Path_16254" data-name="Path 16254" d="M172,164.025v3.984a1.163,1.163,0,0,1-.183.014h-.305v-4.013h.305a1.163,1.163,0,0,1,.183.014" transform="translate(32.348 30.934)" fill="#ff9f00"/>
        <path id="Path_16255" data-name="Path 16255" d="M172.571,164.388v3.241a1.047,1.047,0,0,1-.489.327v-3.9a1.03,1.03,0,0,1,.489.327" transform="translate(32.456 30.943)" fill="#ff9f00"/>
        <path id="Path_16256" data-name="Path 16256" d="M175.045,161.515v2.265a.77.77,0,0,1-.177.487,1.03,1.03,0,0,1-.489.327,1.109,1.109,0,0,1-.19.045l-.059.008h-.008c-.014,0-.027,0-.04,0H131.024a1.091,1.091,0,0,1-.884-.416.767.767,0,0,1-.155-.412c0-.015,0-.031,0-.045v-2.265c0-.015,0-.031,0-.045a.923.923,0,0,1,.737-.79,1.193,1.193,0,0,1,.3-.038h43.037l.026,0a.935.935,0,0,1,.1.011,1.107,1.107,0,0,1,.19.044.565.565,0,0,1,.088.034h0a.986.986,0,0,1,.3.189l0,0,.012.011a.96.96,0,0,1,.082.088.771.771,0,0,1,.177.489" transform="translate(24.516 30.298)" fill="#ffb600"/>
        <path id="Path_16257" data-name="Path 16257" d="M153.939,164.654H130.913a.943.943,0,0,1-.776-.4.823.823,0,0,1-.152-.433c0-.017,0-.031,0-.045v-2.265c0-.017,0-.031,0-.046a.9.9,0,0,1,.739-.809.979.979,0,0,1,.189-.019h20.2c.008.031.018.062.027.093a7.015,7.015,0,0,0,2.791,3.914l.01.007" transform="translate(24.516 30.298)" fill="#ff9f00"/>
        <rect id="Rectangle_1035" data-name="Rectangle 1035" width="0.489" height="4.013" transform="translate(193.843 190.939)" fill="#ff9f00"/>
        <rect id="Rectangle_1036" data-name="Rectangle 1036" width="0.489" height="4.013" transform="translate(192.19 190.939)" fill="#ff9f00"/>
        <rect id="Rectangle_1037" data-name="Rectangle 1037" width="0.489" height="4.013" transform="translate(190.206 190.939)" fill="#ff9f00"/>
        <rect id="Rectangle_1038" data-name="Rectangle 1038" width="0.489" height="4.013" transform="translate(187.167 190.939)" fill="#ff9f00"/>
        <rect id="Rectangle_1039" data-name="Rectangle 1039" width="0.489" height="4.013" transform="translate(183.952 190.939)" fill="#ff9f00"/>
        <rect id="Rectangle_1040" data-name="Rectangle 1040" width="0.489" height="4.013" transform="translate(179.025 190.939)" fill="#ff9f00"/>
        <rect id="Rectangle_1041" data-name="Rectangle 1041" width="0.489" height="4.013" transform="translate(174.412 190.939)" fill="#ff9f00"/>
        <rect id="Rectangle_1042" data-name="Rectangle 1042" width="0.489" height="4.013" transform="translate(170.292 190.939)" fill="#ff9f00"/>
        <rect id="Rectangle_1043" data-name="Rectangle 1043" width="0.489" height="4.013" transform="translate(195.417 190.939)" fill="#ff9f00"/>
        <rect id="Rectangle_1044" data-name="Rectangle 1044" width="0.489" height="4.013" transform="translate(196.457 190.939)" fill="#ff9f00"/>
        <rect id="Rectangle_1045" data-name="Rectangle 1045" width="0.489" height="4.013" transform="translate(197.461 190.939)" fill="#ff9f00"/>
        <path id="Path_16258" data-name="Path 16258" d="M167.253,160.655v3.984a1.165,1.165,0,0,1-.183.014h-.305v-4.013h.305a1.167,1.167,0,0,1,.183.014" transform="translate(31.453 30.298)" fill="#ff9f00"/>
        <path id="Path_16259" data-name="Path 16259" d="M167.823,161.018v3.241a1.047,1.047,0,0,1-.489.327v-3.9a1.03,1.03,0,0,1,.489.327" transform="translate(31.56 30.308)" fill="#ff9f00"/>
        <path id="Path_16260" data-name="Path 16260" d="M177.7,158.217v2.265a.774.774,0,0,1-.178.489,1.041,1.041,0,0,1-.489.327,1.107,1.107,0,0,1-.19.044,1.154,1.154,0,0,1-.183.014H133.682a1.192,1.192,0,0,1-.465-.093.892.892,0,0,1-.571-.7l0-.036v-2.356a.957.957,0,0,1,.916-.821,1.044,1.044,0,0,1,.122-.007h42.982a1.154,1.154,0,0,1,.183.014,1.11,1.11,0,0,1,.19.045,1.024,1.024,0,0,1,.489.327.769.769,0,0,1,.178.487" transform="translate(25.017 29.676)" fill="#ffb600"/>
        <path id="Path_16261" data-name="Path 16261" d="M156.6,161.356H133.57a.961.961,0,0,1-.415-.093.878.878,0,0,1-.51-.7l0-.036c0-.014,0-.03,0-.045v-2.265c0-.015,0-.03,0-.045a.9.9,0,0,1,.817-.822,1.107,1.107,0,0,1,.111-.006h20.2v.006a7.038,7.038,0,0,0,2.695,3.914l.132.093" transform="translate(25.017 29.676)" fill="#ff9f00"/>
        <rect id="Rectangle_1046" data-name="Rectangle 1046" width="0.489" height="4.013" transform="translate(197.003 187.019)" fill="#ff9f00"/>
        <rect id="Rectangle_1047" data-name="Rectangle 1047" width="0.489" height="4.013" transform="translate(195.349 187.019)" fill="#ff9f00"/>
        <rect id="Rectangle_1048" data-name="Rectangle 1048" width="0.489" height="4.013" transform="translate(193.366 187.019)" fill="#ff9f00"/>
        <rect id="Rectangle_1049" data-name="Rectangle 1049" width="0.489" height="4.013" transform="translate(190.327 187.019)" fill="#ff9f00"/>
        <rect id="Rectangle_1050" data-name="Rectangle 1050" width="0.489" height="4.013" transform="translate(187.113 187.019)" fill="#ff9f00"/>
        <rect id="Rectangle_1051" data-name="Rectangle 1051" width="0.489" height="4.013" transform="translate(182.185 187.019)" fill="#ff9f00"/>
        <rect id="Rectangle_1052" data-name="Rectangle 1052" width="0.489" height="4.013" transform="translate(177.572 187.019)" fill="#ff9f00"/>
        <rect id="Rectangle_1053" data-name="Rectangle 1053" width="0.489" height="4.013" transform="translate(173.452 187.019)" fill="#ff9f00"/>
        <rect id="Rectangle_1054" data-name="Rectangle 1054" width="0.489" height="4.013" transform="translate(198.577 187.019)" fill="#ff9f00"/>
        <rect id="Rectangle_1055" data-name="Rectangle 1055" width="0.489" height="4.013" transform="translate(199.617 187.019)" fill="#ff9f00"/>
        <rect id="Rectangle_1056" data-name="Rectangle 1056" width="0.489" height="4.013" transform="translate(200.622 187.019)" fill="#ff9f00"/>
        <path id="Path_16262" data-name="Path 16262" d="M169.911,157.357v3.984a1.165,1.165,0,0,1-.183.014h-.305v-4.013h.305a1.165,1.165,0,0,1,.183.014" transform="translate(31.954 29.676)" fill="#ff9f00"/>
        <path id="Path_16263" data-name="Path 16263" d="M170.482,157.719v3.241a1.048,1.048,0,0,1-.489.327v-3.9a1.039,1.039,0,0,1,.489.327" transform="translate(32.062 29.685)" fill="#ff9f00"/>
        <path id="Path_16264" data-name="Path 16264" d="M178.837,154.846v2.266a.774.774,0,0,1-.178.489,1.047,1.047,0,0,1-.489.327,1.106,1.106,0,0,1-.19.044l-.059.008-.034,0-.034,0H134.814a.982.982,0,0,1-1.039-.828V154.8a.983.983,0,0,1,1.039-.828H177.8a1.154,1.154,0,0,1,.183.014,1.11,1.11,0,0,1,.19.045,1.03,1.03,0,0,1,.489.327.769.769,0,0,1,.178.487" transform="translate(25.231 29.04)" fill="#ffb600"/>
        <path id="Path_16265" data-name="Path 16265" d="M157.729,157.985H134.7a.908.908,0,0,1-.927-.828c0-.015,0-.03,0-.045v-2.266c0-.015,0-.03,0-.045a.908.908,0,0,1,.927-.828h20.2a7.037,7.037,0,0,0,2.818,4.007l.009.006" transform="translate(25.231 29.04)" fill="#ff9f00"/>
        <rect id="Rectangle_1057" data-name="Rectangle 1057" width="0.489" height="4.013" transform="translate(198.348 183.012)" fill="#ff9f00"/>
        <rect id="Rectangle_1058" data-name="Rectangle 1058" width="0.489" height="4.013" transform="translate(196.694 183.012)" fill="#ff9f00"/>
        <rect id="Rectangle_1059" data-name="Rectangle 1059" width="0.489" height="4.013" transform="translate(194.712 183.012)" fill="#ff9f00"/>
        <rect id="Rectangle_1060" data-name="Rectangle 1060" width="0.489" height="4.013" transform="translate(191.673 183.012)" fill="#ff9f00"/>
        <rect id="Rectangle_1061" data-name="Rectangle 1061" width="0.489" height="4.013" transform="translate(188.457 183.012)" fill="#ff9f00"/>
        <rect id="Rectangle_1062" data-name="Rectangle 1062" width="0.489" height="4.013" transform="translate(183.531 183.012)" fill="#ff9f00"/>
        <rect id="Rectangle_1063" data-name="Rectangle 1063" width="0.489" height="4.013" transform="translate(178.916 183.012)" fill="#ff9f00"/>
        <rect id="Rectangle_1064" data-name="Rectangle 1064" width="0.489" height="4.013" transform="translate(174.797 183.012)" fill="#ff9f00"/>
        <rect id="Rectangle_1065" data-name="Rectangle 1065" width="0.489" height="4.013" transform="translate(199.923 183.012)" fill="#ff9f00"/>
        <rect id="Rectangle_1066" data-name="Rectangle 1066" width="0.489" height="4.013" transform="translate(200.961 183.012)" fill="#ff9f00"/>
        <rect id="Rectangle_1067" data-name="Rectangle 1067" width="0.489" height="4.013" transform="translate(201.966 183.012)" fill="#ff9f00"/>
        <path id="Path_16266" data-name="Path 16266" d="M171.043,153.986v3.984a1.165,1.165,0,0,1-.183.014h-.305v-4.013h.305a1.165,1.165,0,0,1,.183.014" transform="translate(32.168 29.04)" fill="#ff9f00"/>
        <path id="Path_16267" data-name="Path 16267" d="M171.614,154.349v3.241a1.039,1.039,0,0,1-.489.327v-3.9a1.039,1.039,0,0,1,.489.327" transform="translate(32.275 29.05)" fill="#ff9f00"/>
        <path id="Path_16268" data-name="Path 16268" d="M161.906,135.417s-2.257,3.178-4.328,3.222-5.218-1.473-5.218-1.473-1.9-4.235-.612-5.893a2.768,2.768,0,0,1,2.645.435,4.01,4.01,0,0,1,.7.67,2.235,2.235,0,0,0,1.086.737c1.476.448,3.229-.609,3.886.412a6.975,6.975,0,0,0,1.141,1.351,5.265,5.265,0,0,0,.7.537" transform="translate(28.536 24.729)" fill="#ffebd9"/>
        <path id="Path_16269" data-name="Path 16269" d="M135.461,157.149s7.979-19.335,22.342-19.7c0,0,13.259,1.474,13.995,19.7Z" transform="translate(25.549 25.923)" fill="#ffebd9"/>
        <path id="Path_16270" data-name="Path 16270" d="M150.952,138.339s5.758,1.28,7.533.528a1.778,1.778,0,0,0-2.156-2.069,5.09,5.09,0,0,1-3.376-.89c-.9-.458-2.241,1.425-2,2.432" transform="translate(28.466 25.62)" fill="#e96200"/>
        <path id="Path_16271" data-name="Path 16271" d="M155.4,135.507c-.368.276-1.5-3.893-1.5-3.893a4.1,4.1,0,0,1,.7.67,2.225,2.225,0,0,0,1.086.737c0,.121.069,2.217-.288,2.485" transform="translate(29.027 24.823)" fill="#eabf9b"/>
        <path id="Path_16272" data-name="Path 16272" d="M160.133,134.5a23.717,23.717,0,0,1-3.1,1.643c-.368,0,1.962-2.994,1.962-2.994a6.946,6.946,0,0,0,1.142,1.351" transform="translate(29.609 25.112)" fill="#eabf9b"/>
        <path id="Path_16273" data-name="Path 16273" d="M142.02,150.841c-.147-.126,5.647-8.532,7.243-8.594s5.181,1.844,7.777,2.087,5.112-.491,5.6,1.045,1.842,6.975,1.013,7.845-18.45.339-21.636-2.383" transform="translate(26.786 26.829)" fill="#fddbba"/>
        <g id="Group_2039" data-name="Group 2039" transform="translate(154.41 185.881)" opacity="0.5">
          <g id="Group_2038" data-name="Group 2038">
            <g id="Group_2037" data-name="Group 2037" clip-path="url(#clip-path-6)">
              <path id="Path_16274" data-name="Path 16274" d="M149.761,177.36l0,.03a19.217,19.217,0,0,1-.645,3.977v.007q-.077.282-.162.562a19.675,19.675,0,0,1-1.417,3.443,19.922,19.922,0,0,1-2.7,3.913c-.029.033-.057.068-.087.1a20.736,20.736,0,0,1-4.722,3.914q-.572.348-1.174.664c-.271.143-.543.277-.818.406-.262.152-.538.282-.8.442a11.139,11.139,0,0,1-2.73,1.123v-1.808a.7.7,0,0,1,.01-.087.657.657,0,0,1,.025-.1.921.921,0,0,1,.893-.647h-4.6a.92.92,0,0,1-.891-.648.716.716,0,0,1-.025-.1c0-.029-.008-.056-.01-.084s0-.03,0-.046v-2.264c0-.015,0-.031,0-.046s.006-.056.01-.084a.657.657,0,0,1,.025-.1.92.92,0,0,1,.891-.649h1.795a.876.876,0,0,1-.489-.634.488.488,0,0,1-.008-.056c0-.012,0-.026,0-.039s0-.03,0-.044v-2.267c0-.015,0-.03,0-.045s0-.057.01-.084a.591.591,0,0,1,.025-.093.919.919,0,0,1,.893-.651h1.029a.921.921,0,0,1-.893-.648.657.657,0,0,1-.025-.1.7.7,0,0,1-.01-.086V182.2a.9.9,0,0,1,.818-.821h-3.05a.908.908,0,0,1-.927-.828c0-.015,0-.03,0-.046v-2.265c0-.014,0-.031,0-.045l0-.036a.9.9,0,0,1,.721-.77.906.906,0,0,1-.806-.746.536.536,0,0,1-.008-.075c0-.017,0-.031,0-.046v-2.264c0-.017,0-.031,0-.046s.006-.056.01-.084a.658.658,0,0,1,.025-.1.92.92,0,0,1,.891-.649h1.795a.876.876,0,0,1-.489-.634.489.489,0,0,1-.008-.056c0-.014,0-.026,0-.039s0-.03,0-.046v-2.264c0-.015,0-.031,0-.046s0-.056.01-.084a.628.628,0,0,1,.025-.093.92.92,0,0,1,.893-.651h3.512a.918.918,0,0,1-.893-.649.664.664,0,0,1-.024-.093.522.522,0,0,1-.01-.087.265.265,0,0,1,0-.044v-2.267a.272.272,0,0,1,0-.044.9.9,0,0,1,.815-.821h-5.532a.946.946,0,0,1-.776-.4l0-.02.582-3.558,0-.02.83-5.077a22.165,22.165,0,0,1,2.848.573l.164.044.011,0q.817.226,1.611.517l.014,0a21.291,21.291,0,0,1,6.673,3.914q.053.045.1.093a20.142,20.142,0,0,1,2.8,3.014c.168.22.329.445.487.673.052.075.1.151.155.227l0,.007q.382.562.723,1.153a19.8,19.8,0,0,1,1.36,2.851,19.063,19.063,0,0,1,1.042,3.914c.006.034.011.067.015.1a19.116,19.116,0,0,1,.184,3.884" transform="translate(-129.908 -156.385)" fill="#ef7c00"/>
            </g>
          </g>
        </g>
        <path id="Path_16275" data-name="Path 16275" d="M109.674,185.852A21.142,21.142,0,1,1,138.4,194.16a21.142,21.142,0,0,1-28.722-8.308" transform="translate(20.189 29.14)" fill="#ef7c00"/>
        <path id="Path_16276" data-name="Path 16276" d="M137.831,194.448q-.39.239-.794.461c-.092.05-.183.1-.273.147-.209.112-.417.218-.628.322a21.142,21.142,0,0,1-19.512-37.5c.271-.149.544-.292.819-.428s.535-.259.806-.379a21.082,21.082,0,0,1,6.345-1.706,21.145,21.145,0,0,1,13.238,39.083" transform="translate(19.933 29.281)" fill="#ffb600"/>
        <path id="Path_16277" data-name="Path 16277" d="M126.612,195.181a19.017,19.017,0,0,1-5.292-.755,18.828,18.828,0,1,1,5.292.755m-.058-37.382a18.43,18.43,0,1,0,16.173,9.531,18.315,18.315,0,0,0-16.173-9.531" transform="translate(20.3 29.666)" fill="#ff9f00"/>
        <path id="Path_16278" data-name="Path 16278" d="M134.3,177.269c-.042-.1-.086-.2-.131-.3a5.553,5.553,0,0,0-1.283-1.832,5.725,5.725,0,0,0-2.018-1.187,9.708,9.708,0,0,0-2.565-.483q-1.416-.087-3.081-.039a15.04,15.04,0,0,1-1.759-.036,4.38,4.38,0,0,1-1.237-.271,2.177,2.177,0,0,1-.827-.56,2.963,2.963,0,0,1-.525-.867,3.221,3.221,0,0,1-.239-1.016,2.18,2.18,0,0,1,.151-.956,2.329,2.329,0,0,1,.59-.836,3.453,3.453,0,0,1,1.078-.656,2.723,2.723,0,0,1,2.309.021,3.923,3.923,0,0,1,1.746,2.186l4.307-1.748a8.041,8.041,0,0,0-1.411-2.338,6.036,6.036,0,0,0-4.222-2.084,7.99,7.99,0,0,0-2.6.266l-1.22-3-2.384.969,1.2,2.962A8.931,8.931,0,0,0,118,167.015a6.671,6.671,0,0,0-1.379,1.923,5.353,5.353,0,0,0-.508,2.173,6.367,6.367,0,0,0,1.873,4.463A5.657,5.657,0,0,0,120,176.756a9.545,9.545,0,0,0,2.566.465,30.414,30.414,0,0,0,3.088,0,11.247,11.247,0,0,1,1.68.012,4.351,4.351,0,0,1,1.231.273,2.323,2.323,0,0,1,.863.585,3.212,3.212,0,0,1,.58.958,2.686,2.686,0,0,1,.206,1.021,2.178,2.178,0,0,1-.231.972,2.741,2.741,0,0,1-.685.858,4.1,4.1,0,0,1-1.157.68,5.034,5.034,0,0,1-1.263.328,2.9,2.9,0,0,1-1.275-.128,2.967,2.967,0,0,1-1.165-.752,4.566,4.566,0,0,1-.941-1.529l-4.306,1.75a7.427,7.427,0,0,0,1.694,2.633,6.118,6.118,0,0,0,2.231,1.392,6.821,6.821,0,0,0,2.535.365,10.672,10.672,0,0,0,2.611-.431l1.113,2.741,2.369-.962-1.117-2.754a9.619,9.619,0,0,0,2.211-1.544,6.534,6.534,0,0,0,1.335-1.742c.026-.05.051-.1.075-.152a5.285,5.285,0,0,0,.519-2.161,5.8,5.8,0,0,0-.464-2.359" transform="translate(21.899 30.465)" fill="#ff9f00"/>
        <path id="Path_16279" data-name="Path 16279" d="M107.081,86.031a.982.982,0,0,0-.168,1.051l0,0a6.521,6.521,0,0,0,2.078,2.248c.125.1.235.189.333.273l.075.065.057.051c.912.83.573,1.022,2.212,2.706,1.87,1.917,3.147,1.943,3.51,1.765.307-.152-.326-1.172-1.026-2.319-.034-.055-.068-.111-.1-.166-.094-.152-.187-.307-.278-.46-.821-1.38-.618-2.031-.44-4.095.144-1.677,2.54-9.379,2.54-9.379l-3.561-.587s-1.028,6.127-2.2,7.078c-.628.506-1.334.517-1.937.894-.043.026-.084.053-.126.081a4.634,4.634,0,0,0-.968.789" transform="translate(20.15 14.558)" fill="#ffae73"/>
        <path id="Path_16280" data-name="Path 16280" d="M107.081,84.766a.982.982,0,0,0-.168,1.051l0,0A7.55,7.55,0,0,0,109,88.062c.122.1.232.194.329.281l.075.065.057.051c.912.83.573,1.022,2.212,2.706,1.87,1.917,3.147,1.943,3.51,1.765.307-.152-.326-1.172-1.026-2.319a7.9,7.9,0,0,1-3.326-2.414c-1.128-1.418-1.886-3.245-2.654-4.3-.043.026-.084.053-.126.081a4.634,4.634,0,0,0-.968.789" transform="translate(20.15 15.823)" fill="#234662"/>
        <path id="Path_16281" data-name="Path 16281" d="M131.617,83.806c.227,1.1,1.791.9,3.536.462s1.334.071,3.82-.221,3.234-1.227,3.307-1.6c.065-.328-1.165-.435-2.484-.578q-.25-.027-.5-.057c-1.491-.176-2.588-1.129-3.946-1.909-1.286-.738-3.22-3.77-3.22-3.77l-3.41.295s1.81,2.708,2.51,3.886a4.124,4.124,0,0,1,.352,2.323,4.367,4.367,0,0,0,.034,1.167" transform="translate(24.278 14.36)" fill="#ffae73"/>
        <path id="Path_16282" data-name="Path 16282" d="M134.7,83.358c1.745-.44,1.334.071,3.82-.222s3.233-1.225,3.307-1.6c.065-.329-1.165-.436-2.484-.579l-.013.026a7.013,7.013,0,0,1-3.555,1.133c-1.688.052-3.48-.418-4.645-.391a4.366,4.366,0,0,0,.034,1.167c.227,1.1,1.79.9,3.536.462" transform="translate(24.728 15.27)" fill="#234662"/>
        <path id="Path_16283" data-name="Path 16283" d="M121.862,65.171l-3.13,8.607-4.085,11.238a6.768,6.768,0,0,1-2.214-.187,9.632,9.632,0,0,1-2.148-1.027s1.072-12.043,3.181-18.967a12.274,12.274,0,0,1,1.828-4.028c3.316-3.976,6.568,4.363,6.568,4.363" transform="translate(20.801 11.266)" fill="#234662"/>
        <path id="Path_16284" data-name="Path 16284" d="M122.1,53.1c-2.094-.66-8.049.248-14.029,1.462L106.8,52.5l-12.94-.919s-4.2,9.495-1.822,15.509c.349.884,2.5,1.315,2.5,1.316s7.581.082,10.081.064c6.433-.045,13.582-4.517,14.509-4.709,1.518-.315,2.148,2.722,3.691,5.9s14.392,14.039,14.392,14.039a11.225,11.225,0,0,0,2.772-.3,2.727,2.727,0,0,0,1.185-.761S126.824,54.585,122.1,53.1" transform="translate(17.222 9.729)" fill="#2b5c8b"/>
        <path id="Path_16285" data-name="Path 16285" d="M106.281,20.528a4.588,4.588,0,0,0-2.491-.625,7.424,7.424,0,0,1-1.236-.073c-4.905-.624-7.806,6.52-7.964,8.678-.291,3.979-2.391,4.6-5.336,7.113-5.9,5.037-4.121,10.828-.858,12.962,1.958,1.28,5.383-.038,5.383-.038.049.034,9.354-5.289,13.942-7.858,6.9-1.029,1.344-18.527-1.441-20.159" transform="translate(16.103 3.733)" fill="#234662"/>
        <path id="Path_16286" data-name="Path 16286" d="M101.918,36.722a6.092,6.092,0,0,1-3.794.144c-1.443-.626-2.548-2.985-2.528-2.986.655-.034,1.369-.612,1.9-4.369l.279.1,4.7,1.652s-.329,1.5-.538,2.938c-.176,1.2-.267,2.355-.011,2.522" transform="translate(18.03 5.566)" fill="#ffae73"/>
        <path id="Path_16287" data-name="Path 16287" d="M102.122,31.246s-.2,1.055-.478,2.563a5.47,5.47,0,0,1-4.218-4.215Z" transform="translate(18.375 5.582)" fill="#f9924f"/>
        <path id="Path_16288" data-name="Path 16288" d="M102.906,34.021s-6.415-.815-5.847-4.8.125-6.777,4.243-6.426,4.7,1.986,4.831,3.364-1.545,7.973-3.227,7.864" transform="translate(18.299 4.293)" fill="#ffae73"/>
        <path id="Path_16289" data-name="Path 16289" d="M106.18,24.032S102.1,27.6,99.313,27.9s-3.851-.582-3.851-.582a10.9,10.9,0,0,0,2.61-3.588,1.96,1.96,0,0,1,1.609-1.168c1.991-.187,5.767-.291,6.5,1.47" transform="translate(18.005 4.237)" fill="#234662"/>
        <path id="Path_16290" data-name="Path 16290" d="M102.32,23.655a10.076,10.076,0,0,1,1.821,2.3,7.753,7.753,0,0,1,.239,4.122s2.11-4.173.884-6.184c-1.3-2.134-2.944-.237-2.944-.237" transform="translate(19.298 4.315)" fill="#234662"/>
        <path id="Path_16291" data-name="Path 16291" d="M108.241,45.456c-.1,12.975.019,10.262-1.391,11.5a5.459,5.459,0,0,1-2.565.575c-3.976.291-10.973-.314-11.244-1.047-.935-2.538-.294-3.333-1.086-7.222-.083-.414-.185-.861-.3-1.348-.657-2.671-1.285-3.577.95-7.889,2.025-3.907,4.136-7.082,4.329-6.969,5.441,3.178,5.859.472,5.859.472s5.5,5.6,5.453,11.924" transform="translate(17.17 6.235)" fill="#69bbee"/>
        <path id="Path_16292" data-name="Path 16292" d="M118.732,72.968l-4.085,11.238a6.768,6.768,0,0,1-2.214-.187,9.632,9.632,0,0,1-2.148-1.027s1.072-12.043,3.181-18.967Z" transform="translate(20.801 12.076)" fill="#2b5c8b"/>
        <path id="Path_16293" data-name="Path 16293" d="M100.924,33.456s5.582.906,6.253,3.3S111.8,53.237,111.8,53.237s-2.831.529-4.149-.771-4.642-12.114-4.642-12.114Z" transform="translate(19.035 6.31)" fill="#69bbee"/>
        <path id="Path_16294" data-name="Path 16294" d="M104.141,55.822c-3.976.292-10.974-.314-11.245-1.047-.934-2.538-.292-3.332-1.085-7.221l1.88-5.416s-.276,6.019,1.51,7.588,7.286,3,8.157,4.319a4.849,4.849,0,0,1,.783,1.777" transform="translate(17.316 7.948)" fill="#3ca0d7"/>
        <path id="Path_16295" data-name="Path 16295" d="M98.334,51.65s3.919-.9,4.554-.557a9.2,9.2,0,0,1,2.389,2.041c.2.44-1.412-.324-1.934-.461a4.656,4.656,0,0,0-1.665.377,5.531,5.531,0,0,1-2.985.321Z" transform="translate(18.547 9.622)" fill="#ffae73"/>
        <path id="Path_16296" data-name="Path 16296" d="M97.986,33.057s-5.267.361-7.073,2.92c-2.542,3.6-7.529,18.9-4.6,20.914,3.3,2.27,14.967.494,14.967.494a4.742,4.742,0,0,0-.17-2.695c-.548-.874-9.342-2.23-9.75-2.634s5.012-7.941,5-9.157,1.619-9.843,1.619-9.843" transform="translate(16.111 6.235)" fill="#69bbee"/>
        <path id="Path_16297" data-name="Path 16297" d="M102.332,52a7.574,7.574,0,0,0,1.1,1.179.81.81,0,0,0,.445.093l-.562-.994Z" transform="translate(19.301 9.807)" fill="#ffae73"/>
        <path id="Path_16298" data-name="Path 16298" d="M102.165,51.08l2.4,1.145a.426.426,0,0,1-.395.156,5.726,5.726,0,0,1-1.039-.278Z" transform="translate(19.269 9.634)" fill="#ffae73"/>
        <path id="Path_16299" data-name="Path 16299" d="M102.827,56.7l18.912-.133,5.589-14.187-18.882.133Z" transform="translate(19.394 7.994)" fill="#234662"/>
        <path id="Path_16300" data-name="Path 16300" d="M122.883,53.853l-24.973.176,0,.552,24.752-.175Z" transform="translate(18.467 10.157)" fill="#234662"/>
        <path id="Path_16301" data-name="Path 16301" d="M114.97,48.537a.656.656,0,0,0-.649-.9,1.29,1.29,0,0,0-1.152.909.655.655,0,0,0,.649.9,1.29,1.29,0,0,0,1.152-.908" transform="translate(21.338 8.985)" fill="#dcf3fd"/>
        <path id="Path_16302" data-name="Path 16302" d="M248.258,92.506a5.106,5.106,0,0,0-4.053.208c-6.9.284-7.151,7.352-6.341,9.982,1.136,3.694-2.886,6.607,1.575,8.1,5.176,1.735,9.52-1,9.224-.111,16.369,1.29,5.042-16.372-.4-18.181" transform="translate(44.753 17.389)" fill="#1f529f"/>
        <path id="Path_16303" data-name="Path 16303" d="M242.116,123.7a18.032,18.032,0,0,1-1.844,2.788c-1.432,1.794-8.95-2.465-8.3-2.788s4.309-10.716,5.859-12.559a6.6,6.6,0,0,1,3.432-2.094Z" transform="translate(43.744 20.567)" fill="#2b5c8b"/>
        <path id="Path_16304" data-name="Path 16304" d="M263.037,183.276s2.075,1.893,1.67,3.239-2.277,2.243-2.531,3.887-1.265,2.542-2.176,2.542h-4.343s-.67-1.158.95-1.507,2.23-2.281,2.129-4.075a31.643,31.643,0,0,1,.152-4.186l3.441-.8Z" transform="translate(48.193 34.398)" fill="#3075c6"/>
        <path id="Path_16305" data-name="Path 16305" d="M248.944,183.81s.746,8.022-.164,8.47l-11.659-.024s0-1.346,1.873-1.644,5.162-1.4,5.718-3.837,4.231-2.966,4.231-2.966" transform="translate(44.723 34.668)" fill="#3075c6"/>
        <path id="Path_16306" data-name="Path 16306" d="M257.955,118.392a46.483,46.483,0,0,1,0,5.388c-.115,1.949-2.086,4.558-2.365,5.2-.7,1.619-1.493,1.883-1.493,1.883l-6.121,1.5-2.153.527-6.787-2.027s-3.092-8.628-1.851-13.486a37.352,37.352,0,0,1,3.138-8.23,48.41,48.41,0,0,1,12.75-.46Z" transform="translate(44.68 20.467)" fill="#2b5c8b"/>
        <path id="Path_16307" data-name="Path 16307" d="M257.039,122.253c-.115,1.948-2.67,4.489-2.949,5.136-.7,1.619-1.493,1.882-1.493,1.882l-6.121,1.5-1.633-2.3s9.909-2.756,8.034-11.493Z" transform="translate(46.179 22.063)" fill="#0b3563"/>
        <path id="Path_16308" data-name="Path 16308" d="M239.627,128.422s-3.361,10.462-3.577,14.024,6.424,50.6,6.692,52.242c.252,1.548,2.173,2.534,2.173,2.534a2.913,2.913,0,0,0,2.145.165,5.32,5.32,0,0,0,2.3-1.085s2.616-33.548,1-45.533a189.969,189.969,0,0,1-1.639-22.347Z" transform="translate(44.52 24.221)" fill="#3ca0d7"/>
        <path id="Path_16309" data-name="Path 16309" d="M253.192,128.159s5.084,6.88,5.558,11.529.743,20.985,1.753,25.518,4.719,13.258,4.719,27.4a2.8,2.8,0,0,1-1.576,1.242,12.783,12.783,0,0,1-1.386.386,2.174,2.174,0,0,1-2.438-1.167c-2.508-5.092-10.5-21.519-10.907-24.929-.29-2.413-2.812-18.382-8.314-27.753-1.322-2.25.811-11.2.811-11.2Z" transform="translate(45.298 24.172)" fill="#69bbee"/>
        <path id="Path_16310" data-name="Path 16310" d="M238.638,127.063a7.041,7.041,0,0,0,4.029,1.121c3.2.065,11.136-.815,11.136-.815a6.549,6.549,0,0,1,.339,2.024s-9.691,2.445-15.3.358a3.552,3.552,0,0,1-.2-2.687" transform="translate(44.973 23.965)" fill="#0b3563"/>
        <path id="Path_16311" data-name="Path 16311" d="M241.584,130.853a1.666,1.666,0,1,1,1.461-1.653,1.568,1.568,0,0,1-1.461,1.653m0-2.823a1.189,1.189,0,1,0,.977,1.17,1.088,1.088,0,0,0-.977-1.17" transform="translate(45.289 24.056)" fill="#fff"/>
        <path id="Path_16312" data-name="Path 16312" d="M250.689,135.531l-14.564.137-7.166-16.843,14.564-.137Z" transform="translate(43.183 22.386)" fill="#e2521e"/>
        <path id="Path_16313" data-name="Path 16313" d="M246.824,126.878l-1.067-1.311a3.77,3.77,0,0,0-1.247-.755c-.524-.108-1.631-.746-1.739-.567s.851,1.463.851,1.463l.049.007c-1.1.827-3.876.1-4.218.433-.415.41.572,1.294,1.1,1.79a3.9,3.9,0,0,0,3.225.957c.863-.27,2.222-.543,2.222-.543Z" transform="translate(45.144 23.428)" fill="#ffae73"/>
        <path id="Path_16314" data-name="Path 16314" d="M229.9,121.4s.915-1.04,1.5-.541-.152,2.954-.707,2.7-1.109-1.858-.79-2.163" transform="translate(43.343 22.77)" fill="#ffae73"/>
        <path id="Path_16315" data-name="Path 16315" d="M251.668,108.663a8.281,8.281,0,0,1,6.718,4.866c1.861,4.525,5.283,11.973,4.548,15.094-.294,1.244-3.831,5.553-18.586,2.815a3.45,3.45,0,0,1,1.117-2.267s10.4-3.338,10.379-4c-.034-1.256-1.4-2.342-7.212-8.15-1.578-1.58,3.037-8.357,3.037-8.357" transform="translate(46.086 20.495)" fill="#2b5c8b"/>
        <path id="Path_16316" data-name="Path 16316" d="M248.806,109.859c.143-.193-.042-.8-.27-1.946a21.2,21.2,0,0,1-.552-4.429l-.308.051-5.167.87s.118,1.381.121,2.683v.032c.006,1.13-.305,2.838.076,3.062,1.958,1.147,5.547.416,6.1-.323" transform="translate(45.739 19.518)" fill="#ffae73"/>
        <path id="Path_16317" data-name="Path 16317" d="M242.509,104.4s.1,1.948.106,3.25c2.892-.069,4.435-2.876,5.061-4.119Z" transform="translate(45.739 19.526)" fill="#f48f4e"/>
        <path id="Path_16318" data-name="Path 16318" d="M242.81,108.111s6.774-.965,6.108-5.174-.24-7.168-4.593-6.73-4.937,2.176-5.058,3.635,1.763,8.412,3.542,8.269" transform="translate(45.127 18.137)" fill="#ffae73"/>
        <path id="Path_16319" data-name="Path 16319" d="M240.919,96.71s2.636,4.643,5.591,4.921,4.066-.68,4.066-.68a8.138,8.138,0,0,1-3.386-4.33s-5.25-2.483-6.271.089" transform="translate(45.439 18.02)" fill="#1f529f"/>
        <path id="Path_16320" data-name="Path 16320" d="M241.848,96.9a4.242,4.242,0,0,0-1.695,1.822,6.877,6.877,0,0,0-.3,4.008s-1.928-3.133-.664-5.281c1.341-2.277,2.658-.549,2.658-.549" transform="translate(45.032 18.158)" fill="#1f529f"/>
      </g>
    </g>
  </g>
</svg>
