<svg xmlns="http://www.w3.org/2000/svg" xmlns:xlink="http://www.w3.org/1999/xlink" width="214.41" height="48.281" viewBox="0 0 214.41 48.281">
  <defs>
    <clipPath id="clip-path">
      <rect id="Rectangle_869" data-name="Rectangle 869" width="214.41" height="48.281" fill="none"/>
    </clipPath>
  </defs>
  <g id="Group_1921" data-name="Group 1921" transform="translate(0 0)">
    <g id="Group_1920" data-name="Group 1920" transform="translate(0 0)" clip-path="url(#clip-path)">
      <path id="Path_15905" data-name="Path 15905" d="M3.619,18.673A16,16,0,0,1,27.21,4.589,16,16,0,1,0,8.405,30.081,15.939,15.939,0,0,1,3.619,18.673" transform="translate(0 0)" fill="#26a9e0"/>
      <path id="Path_15906" data-name="Path 15906" d="M25.632,27.587A16,16,0,0,1,1.639,14.2a16,16,0,1,0,31.479,3.539,15.94,15.94,0,0,1-7.486,9.849" transform="translate(0.919 11.594)" fill="#1b75bb"/>
      <path id="Path_15907" data-name="Path 15907" d="M23.6,6.763A16,16,0,0,1,24,34.235,16,16,0,1,0,11.324,5.2,15.947,15.947,0,0,1,23.6,6.763" transform="translate(9.247 2.304)" fill="#00b7ce"/>
      <path id="Path_15908" data-name="Path 15908" d="M4.689,9.448l9.332-4.184a.45.45,0,0,1,.569.643l-5.363,8.9a.45.45,0,0,1-.73.058L4.53,10.147a.449.449,0,0,1,.16-.7" transform="translate(3.612 4.265)" fill="#26a9e0"/>
      <path id="Path_15909" data-name="Path 15909" d="M8.025,19.537l6.22-2.788a.3.3,0,0,1,.38.429L11.049,23.11a.3.3,0,0,1-.487.04L7.917,20a.3.3,0,0,1,.107-.467" transform="translate(6.408 13.654)" fill="#1b75bb"/>
      <path id="Path_15910" data-name="Path 15910" d="M16.328,11.329l6.22-2.788a.3.3,0,0,1,.38.429L19.352,14.9a.3.3,0,0,1-.487.038L16.22,11.8a.3.3,0,0,1,.107-.467" transform="translate(13.188 6.951)" fill="#00b7ce"/>
      <path id="Path_15911" data-name="Path 15911" d="M40.742,12.39c-.033-1.978-.033-2.191-.049-4.2h1.882c0,2.187.016,2.561.047,4.069l3.308-.227.131,1.913-3.373.243c.065,1.4.26,2.758.292,2.936a10.459,10.459,0,0,0,1.166-2.594l1.655.908a15.365,15.365,0,0,1-2.254,4.036c.243.7.487,1.428.779,1.428.129,0,.469-.276.827-1.768l1.086,1.508c-.323,1.59-1.1,2.87-1.929,2.87-1.037,0-1.768-1.2-2.238-2.351a14.182,14.182,0,0,1-2.821,2.14l-1.33-1.686c.405-.213.6-.309,1-.552H36.1v2.449H34.19V21.064H30.671v-1.88H34.19V18.112H31.24V11.271h5.237A13.764,13.764,0,0,0,37.823,8.2l1.978.6a23.627,23.627,0,0,1-1.33,2.465h.585v6.841H36.1v1.072h3.422v1.524a14,14,0,0,0,1.9-1.606,27.752,27.752,0,0,1-.618-4.783l-1.41.1L39.251,12.5ZM32.44,8.3a8.7,8.7,0,0,1,1.15,2.287l-1.815.632a11.029,11.029,0,0,0-1.086-2.336Zm.5,5.642H34.3v-1.2H32.942Zm0,2.645H34.3V15.342H32.942Zm2.837-8.482a14.723,14.723,0,0,1,.552,2.512l-1.847.26A12.48,12.48,0,0,0,33.932,8.3Zm.227,5.837h1.362v-1.2H36.006Zm0,2.645h1.362V15.342H36.006Zm8.287-8.255a13.22,13.22,0,0,1,1.637,2.676l-1.571.925A21.652,21.652,0,0,0,42.8,9.227Z" transform="translate(25.045 6.621)" fill="#58595b"/>
      <path id="Path_15912" data-name="Path 15912" d="M54.67,9.543V11.36a10.892,10.892,0,0,1-2.124,2.627,10.856,10.856,0,0,0,3.128,1.2l-.7,1.946c-.18-.049-.227-.082-.358-.114v6.131h-7.07V17.067c-.08.033-.129.049-.307.129l-.632-1.377v6.761H40.53V8.847h6.082v2.529a6.743,6.743,0,0,0,2.756-3.259l1.946.307a7.084,7.084,0,0,1-.5,1.119Zm-11.82,1.1h-.81v4.118h.81Zm0,5.853h-.81v4.233h.81ZM45.1,10.646h-.828v4.118H45.1Zm0,5.853h-.828v4.233H45.1Zm1.51-1.232A11.274,11.274,0,0,0,49.595,14a9.508,9.508,0,0,1-1.281-1.459,7.284,7.284,0,0,1-.876.649L46.612,12.1Zm7.717,1.655a13.282,13.282,0,0,1-3.292-1.735,16.308,16.308,0,0,1-3.144,1.735Zm-1.555,1.735H49.4v2.69h3.373Zm-3.212-7.346c-.033.033-.033.049-.065.082a7.127,7.127,0,0,0,1.54,1.573,8.126,8.126,0,0,0,1.524-1.655Z" transform="translate(33.096 6.628)" fill="#58595b"/>
      <path id="Path_15913" data-name="Path 15913" d="M60.12,8.378a19.576,19.576,0,0,1-.52,1.962h5.092c0,2.5,0,9.114-.454,11.254a1.984,1.984,0,0,1-2.3,1.882H59.13l-.405-2.06h2.61c.585,0,.859-.049,1.006-.908a63.5,63.5,0,0,0,.356-8.255H58.839A13.5,13.5,0,0,1,56.763,15.5L56,14.767v7.8H50.245V10.422h1.637A11.866,11.866,0,0,0,52.4,8.2l1.995.162a11.006,11.006,0,0,1-.583,2.06H56V13.1a10.81,10.81,0,0,0,2.107-4.963ZM54.152,12.27H52.142v3.2h2.011Zm0,4.963H52.142V20.7h2.011ZM59.6,19.389a18.532,18.532,0,0,0-2.027-4.362l1.688-.908A20.168,20.168,0,0,1,61.5,18.4Z" transform="translate(41.029 6.643)" fill="#58595b"/>
      <path id="Path_15914" data-name="Path 15914" d="M65.813,10.127a29.594,29.594,0,0,1-3.955,12.52l-2.158-1.1C60.625,20.1,62.814,16.6,63.577,9.82Zm5.775,12.211A42.378,42.378,0,0,0,67.824,10.6l2.011-.89a40.947,40.947,0,0,1,4.1,12.031Zm.209-13.6a14.469,14.469,0,0,1,1.526,3.114l-1.184.632A13.5,13.5,0,0,0,70.679,9.3Zm2.076-.876a14.249,14.249,0,0,1,1.54,3.114l-1.184.632A12.756,12.756,0,0,0,72.77,8.441Z" transform="translate(48.75 6.416)" fill="#58595b"/>
      <path id="Path_15915" data-name="Path 15915" d="M70.922,15.481a15.915,15.915,0,0,0-1.283-4.036l1.737-.47a16.6,16.6,0,0,1,1.393,4.055Zm-.147,3.958c5.415-1.184,7.2-3.341,8.189-8.968l2.107.47c-.876,4.038-2.238,8.529-8.934,10.135ZM74.52,14.7A19.081,19.081,0,0,0,73.4,10.714l1.72-.356a16.189,16.189,0,0,1,1.2,3.94Z" transform="translate(56.865 8.458)" fill="#58595b"/>
      <path id="Path_15916" data-name="Path 15916" d="M78.492,20.184c4.411-.81,8.676-3.177,9.631-9.243H83.048a13.171,13.171,0,0,1-4.118,4.2l-1.379-1.606a10.4,10.4,0,0,0,4.071-4.589h9c-.26,3.259-1.248,11.237-11.254,13.248Z" transform="translate(63.326 7.306)" fill="#58595b"/>
      <path id="Path_15917" data-name="Path 15917" d="M86.373,13.211V11.168h7.346V8.59h2.156v2.578h3.68v2.044H95.892v6.972c0,2.156-1.784,2.156-2.514,2.156-.34,0-.52,0-2.205-.08l-.292-2.125c1.233.114,1.671.147,2.06.147.552,0,.81-.113.81-.616l-.016-4.412a19.429,19.429,0,0,1-6.7,5.66l-1.3-1.688a22.031,22.031,0,0,0,7.344-6.015Z" transform="translate(70.014 7.014)" fill="#58595b"/>
      <path id="Path_15918" data-name="Path 15918" d="M107.625,9.117c-.26,4.184-1.021,10.8-10.443,12.714L96.242,19.8c6.972-1.313,8.416-4.881,8.918-8.563H95.009V9.117Z" transform="translate(77.582 7.445)" fill="#58595b"/>
      <path id="Path_15919" data-name="Path 15919" d="M110.225,21.41H108.23V15.962a21.242,21.242,0,0,1-4.621,2.189l-.892-1.768a18.951,18.951,0,0,0,9.437-6.454l1.688,1.25a23.065,23.065,0,0,1-3.617,3.4Z" transform="translate(83.876 8.108)" fill="#58595b"/>
      <path id="Path_15920" data-name="Path 15920" d="M122.018,8.974a16.515,16.515,0,0,1-2.9,6.745,49.659,49.659,0,0,1,5.27,4.574l-1.817,1.751a50.426,50.426,0,0,0-4.783-4.719,19.671,19.671,0,0,1-6.307,4.687l-1.232-1.8a15.492,15.492,0,0,0,5.739-4.022,14.87,14.87,0,0,0,3.179-5.172h-8.027V8.974Z" transform="translate(90.025 7.328)" fill="#58595b"/>
      <path id="Path_15921" data-name="Path 15921" d="M46.832,22.088a3.479,3.479,0,0,0-1.484-.329c-.636,0-1.384.227-1.384,1.054,0,1.519,3.4,1.168,3.4,3.777,0,1.688-1.3,2.356-2.89,2.356a5.315,5.315,0,0,1-1.62-.327l.113-1.055a4.777,4.777,0,0,0,1.644.387,1.417,1.417,0,0,0,1.553-1.293c0-1.768-3.4-1.281-3.4-3.74,0-1.406,1.11-2.154,2.54-2.154a5.272,5.272,0,0,1,1.688.283Z" transform="translate(34.919 16.954)" fill="#58595b"/>
      <path id="Path_15922" data-name="Path 15922" d="M49.692,23.626h-1.53v3.163a.917.917,0,0,0,.894,1.032,1.317,1.317,0,0,0,.727-.2v.906a3.371,3.371,0,0,1-.906.158c-1.1,0-1.78-.521-1.78-1.677V23.626h-1.3v-.861h1.3V21.426l1.066-.34v1.679h1.53Z" transform="translate(37.393 17.218)" fill="#58595b"/>
      <path id="Path_15923" data-name="Path 15923" d="M48.832,22.071h1v.9h.024a1.758,1.758,0,0,1,1.508-1.032,3,3,0,0,1,.7.08v.952a1.565,1.565,0,0,0-.589-.1c-.954,0-1.577.906-1.577,2.358v2.63H48.832Z" transform="translate(39.875 17.911)" fill="#58595b"/>
      <path id="Path_15924" data-name="Path 15924" d="M51.864,22.48a3.678,3.678,0,0,1,1.906-.545c1.655,0,2.323.816,2.323,2.392V26.72a8.965,8.965,0,0,0,.045,1.134h-1V27.1h-.022a2.145,2.145,0,0,1-1.791.883c-1.246,0-2.12-.543-2.12-1.8,0-1.451,1.588-1.9,2.687-1.9.42,0,.714,0,1.134.022,0-1-.363-1.508-1.428-1.508a2.717,2.717,0,0,0-1.679.59ZM55.026,25.1c-.225,0-.452-.022-.679-.022-.578,0-2.007.091-2.007,1.11a1.019,1.019,0,0,0,1.077.941,1.46,1.46,0,0,0,1.609-1.519Z" transform="translate(41.814 17.911)" fill="#58595b"/>
      <path id="Path_15925" data-name="Path 15925" d="M58.49,23.626h-1.53v3.163a.917.917,0,0,0,.894,1.032,1.322,1.322,0,0,0,.727-.2v.906a3.371,3.371,0,0,1-.906.158c-1.1,0-1.78-.521-1.78-1.677V23.626h-1.3v-.861h1.3V21.426l1.066-.34v1.679h1.53Z" transform="translate(44.577 17.218)" fill="#58595b"/>
      <path id="Path_15926" data-name="Path 15926" d="M62.238,27.615a4.443,4.443,0,0,1-1.826.372c-2.051,0-2.992-1.246-2.992-3.128a2.685,2.685,0,0,1,2.709-2.925c1.927,0,2.55,1.406,2.55,3.264H58.552a1.894,1.894,0,0,0,1.906,1.927,3.43,3.43,0,0,0,1.78-.578Zm-.692-3.21A1.459,1.459,0,0,0,60.107,22.8a1.6,1.6,0,0,0-1.555,1.609Z" transform="translate(46.888 17.911)" fill="#58595b"/>
      <path id="Path_15927" data-name="Path 15927" d="M66.546,27.6c0,1.757-.908,2.765-2.983,2.765a5.831,5.831,0,0,1-2.075-.4l.114-.986a4.4,4.4,0,0,0,2.085.521,1.748,1.748,0,0,0,1.791-1.984v-.567h-.022a2.414,2.414,0,0,1-1.94.9c-1.655,0-2.471-1.35-2.471-2.845s.839-3.074,2.585-3.074a1.9,1.9,0,0,1,1.9,1h.024v-.861h.986ZM65.479,25.03c0-1.2-.556-2.233-1.689-2.233-1.077,0-1.609,1.168-1.609,2.153,0,1.09.612,2.042,1.609,2.042a1.8,1.8,0,0,0,1.689-1.962" transform="translate(49.849 17.911)" fill="#58595b"/>
      <path id="Path_15928" data-name="Path 15928" d="M66.471,21.838h-1.2v-1.2h1.2Zm-1.134,1.293H66.4v5.782H65.337Z" transform="translate(53.296 16.851)" fill="#58595b"/>
      <path id="Path_15929" data-name="Path 15929" d="M71.011,23.047a3.079,3.079,0,0,0-1.157-.249A1.979,1.979,0,0,0,68,24.963a1.956,1.956,0,0,0,1.927,2.165,2.222,2.222,0,0,0,1.144-.331l.08.954a3.269,3.269,0,0,1-1.339.238,2.923,2.923,0,0,1-2.946-3.026,2.854,2.854,0,0,1,2.946-3.028,3.984,3.984,0,0,1,1.293.227Z" transform="translate(54.598 17.911)" fill="#58595b"/>
      <path id="Path_15930" data-name="Path 15930" d="M71.963,20.837H74.1c1.644,0,2.778.532,2.778,1.995a1.831,1.831,0,0,1-1.631,1.882v.022a1.853,1.853,0,0,1,1.837,1.906c0,1.7-1.406,2.109-3.016,2.109H71.963ZM73.1,24.216h.623c1.1,0,2.029-.1,2.029-1.272,0-.941-.8-1.179-1.462-1.179H73.1Zm0,3.6h.85c1.021,0,1.938-.216,1.938-1.281,0-1.224-1.077-1.4-2.051-1.4H73.1Z" transform="translate(58.763 17.015)" fill="#58595b"/>
      <path id="Path_15931" data-name="Path 15931" d="M76.361,22.48a3.676,3.676,0,0,1,1.9-.545c1.657,0,2.325.816,2.325,2.392V26.72a8.966,8.966,0,0,0,.045,1.134h-1V27.1h-.022a2.145,2.145,0,0,1-1.791.883c-1.248,0-2.12-.543-2.12-1.8,0-1.451,1.586-1.9,2.687-1.9.42,0,.714,0,1.134.022,0-1-.363-1.508-1.428-1.508a2.716,2.716,0,0,0-1.679.59ZM79.523,25.1c-.225,0-.452-.022-.679-.022-.579,0-2.007.091-2.007,1.11a1.019,1.019,0,0,0,1.077.941,1.46,1.46,0,0,0,1.609-1.519Z" transform="translate(61.817 17.911)" fill="#58595b"/>
      <path id="Path_15932" data-name="Path 15932" d="M83.431,23.047a3.079,3.079,0,0,0-1.157-.249,1.979,1.979,0,0,0-1.858,2.165,1.957,1.957,0,0,0,1.927,2.165,2.217,2.217,0,0,0,1.144-.331l.08.954a3.269,3.269,0,0,1-1.339.238,2.923,2.923,0,0,1-2.946-3.026,2.854,2.854,0,0,1,2.946-3.028,3.975,3.975,0,0,1,1.293.227Z" transform="translate(64.74 17.911)" fill="#58595b"/>
      <path id="Path_15933" data-name="Path 15933" d="M82.473,20.512h1.064V25.58l2.325-2.347h1.451l-2.687,2.561,3.026,3.221H86.122l-2.585-2.972v2.972H82.473Z" transform="translate(67.345 16.749)" fill="#58595b"/>
      <path id="Path_15934" data-name="Path 15934" d="M91.633,20.762c2.4,0,3.809,1.746,3.809,4.093,0,2.4-1.4,4.093-3.809,4.093s-3.809-1.689-3.809-4.093c0-2.347,1.406-4.093,3.809-4.093m0,7.188c1.826,0,2.609-1.519,2.609-3.1,0-1.609-.863-3.106-2.609-3.1-1.746-.011-2.609,1.486-2.609,3.1,0,1.577.783,3.1,2.609,3.1" transform="translate(71.715 16.954)" fill="#58595b"/>
      <path id="Path_15935" data-name="Path 15935" d="M94,24.156H92.639v-.861H94V22.76c0-1.406.363-2.323,1.938-2.323a4.5,4.5,0,0,1,.714.067l-.044.863a1.692,1.692,0,0,0-.51-.069c-.919,0-1.032.59-1.032,1.373v.623H96.6v.861h-1.53v4.919H94Z" transform="translate(75.647 16.688)" fill="#58595b"/>
      <path id="Path_15936" data-name="Path 15936" d="M96.585,24.156H95.224v-.861h1.361v-.532c0-1.406.363-2.325,1.938-2.325a4.5,4.5,0,0,1,.714.067l-.045.863a1.672,1.672,0,0,0-.509-.069c-.919,0-1.032.59-1.032,1.373v.623h1.53v.861h-1.53v4.921H96.585ZM101.573,22h-1.2V20.8h1.2Zm-1.134,1.293H101.5v5.782h-1.065Z" transform="translate(77.758 16.688)" fill="#58595b"/>
      <path id="Path_15937" data-name="Path 15937" d="M103.8,23.047a3.079,3.079,0,0,0-1.157-.249,1.979,1.979,0,0,0-1.858,2.165,1.957,1.957,0,0,0,1.927,2.165,2.217,2.217,0,0,0,1.144-.331l.08.954a3.269,3.269,0,0,1-1.339.238,2.923,2.923,0,0,1-2.946-3.026,2.854,2.854,0,0,1,2.946-3.028,3.984,3.984,0,0,1,1.293.227Z" transform="translate(81.373 17.911)" fill="#58595b"/>
      <path id="Path_15938" data-name="Path 15938" d="M107.448,27.615a4.443,4.443,0,0,1-1.826.372c-2.051,0-2.992-1.246-2.992-3.128a2.685,2.685,0,0,1,2.709-2.925c1.927,0,2.55,1.406,2.55,3.264h-4.125a1.892,1.892,0,0,0,1.9,1.927,3.43,3.43,0,0,0,1.78-.578Zm-.692-3.21a1.459,1.459,0,0,0-1.439-1.609,1.6,1.6,0,0,0-1.553,1.609Z" transform="translate(83.805 17.911)" fill="#58595b"/>
    </g>
  </g>
</svg>
