<svg xmlns="http://www.w3.org/2000/svg" xmlns:xlink="http://www.w3.org/1999/xlink" width="435" height="432" viewBox="0 0 435 432">
  <defs>
    <radialGradient id="radial-gradient" cx="0.5" cy="0.96" r="0.983" gradientTransform="translate(0.517 -0.483) rotate(90)" gradientUnits="objectBoundingBox">
      <stop offset="0" stop-color="#0090d8"/>
      <stop offset="1" stop-color="#006ca2"/>
    </radialGradient>
    <filter id="Ellipse_14" x="123" y="119" width="187" height="187" filterUnits="userSpaceOnUse">
      <feOffset dy="3" input="SourceAlpha"/>
      <feGaussianBlur stdDeviation="5" result="blur"/>
      <feFlood flood-opacity="0.161"/>
      <feComposite operator="in" in2="blur"/>
      <feComposite in="SourceGraphic"/>
    </filter>
    <radialGradient id="radial-gradient-2" cx="0.5" cy="0.021" r="0.791" gradientTransform="translate(0.521 -0.479) rotate(90)" gradientUnits="objectBoundingBox">
      <stop offset="0" stop-color="#f2f2f2"/>
      <stop offset="1" stop-color="#fff"/>
    </radialGradient>
    <filter id="Ellipse_15" x="119" y="0" width="200" height="200" filterUnits="userSpaceOnUse">
      <feOffset dy="10" input="SourceAlpha"/>
      <feGaussianBlur stdDeviation="10" result="blur-2"/>
      <feFlood flood-opacity="0.161"/>
      <feComposite operator="in" in2="blur-2"/>
      <feComposite in="SourceGraphic"/>
    </filter>
    <filter id="Ellipse_15-2" x="119" y="0" width="200" height="200" filterUnits="userSpaceOnUse">
      <feOffset dy="2" input="SourceAlpha"/>
      <feGaussianBlur result="blur-3"/>
      <feFlood flood-color="#fff" result="color"/>
      <feComposite operator="out" in="SourceGraphic" in2="blur-3"/>
      <feComposite operator="in" in="color"/>
      <feComposite operator="in" in2="SourceGraphic"/>
    </filter>
    <filter id="Ellipse_15-3" x="0" y="97" width="200" height="200" filterUnits="userSpaceOnUse">
      <feOffset dy="10" input="SourceAlpha"/>
      <feGaussianBlur stdDeviation="10" result="blur-4"/>
      <feFlood flood-opacity="0.161"/>
      <feComposite operator="in" in2="blur-4"/>
      <feComposite in="SourceGraphic"/>
    </filter>
    <filter id="Ellipse_15-4" x="0" y="97" width="200" height="200" filterUnits="userSpaceOnUse">
      <feOffset dy="2" input="SourceAlpha"/>
      <feGaussianBlur result="blur-5"/>
      <feFlood flood-color="#fff" result="color-2"/>
      <feComposite operator="out" in="SourceGraphic" in2="blur-5"/>
      <feComposite operator="in" in="color-2"/>
      <feComposite operator="in" in2="SourceGraphic"/>
    </filter>
    <filter id="Ellipse_15-5" x="235" y="97" width="200" height="200" filterUnits="userSpaceOnUse">
      <feOffset dy="10" input="SourceAlpha"/>
      <feGaussianBlur stdDeviation="10" result="blur-6"/>
      <feFlood flood-opacity="0.161"/>
      <feComposite operator="in" in2="blur-6"/>
      <feComposite in="SourceGraphic"/>
    </filter>
    <filter id="Ellipse_15-6" x="235" y="97" width="200" height="200" filterUnits="userSpaceOnUse">
      <feOffset dy="2" input="SourceAlpha"/>
      <feGaussianBlur result="blur-7"/>
      <feFlood flood-color="#fff" result="color-3"/>
      <feComposite operator="out" in="SourceGraphic" in2="blur-7"/>
      <feComposite operator="in" in="color-3"/>
      <feComposite operator="in" in2="SourceGraphic"/>
    </filter>
    <filter id="Ellipse_15-7" x="44" y="232" width="200" height="200" filterUnits="userSpaceOnUse">
      <feOffset dy="10" input="SourceAlpha"/>
      <feGaussianBlur stdDeviation="10" result="blur-8"/>
      <feFlood flood-opacity="0.161"/>
      <feComposite operator="in" in2="blur-8"/>
      <feComposite in="SourceGraphic"/>
    </filter>
    <filter id="Ellipse_15-8" x="44" y="232" width="200" height="200" filterUnits="userSpaceOnUse">
      <feOffset dy="2" input="SourceAlpha"/>
      <feGaussianBlur result="blur-9"/>
      <feFlood flood-color="#fff" result="color-4"/>
      <feComposite operator="out" in="SourceGraphic" in2="blur-9"/>
      <feComposite operator="in" in="color-4"/>
      <feComposite operator="in" in2="SourceGraphic"/>
    </filter>
    <filter id="Ellipse_15-9" x="190" y="232" width="200" height="200" filterUnits="userSpaceOnUse">
      <feOffset dy="10" input="SourceAlpha"/>
      <feGaussianBlur stdDeviation="10" result="blur-10"/>
      <feFlood flood-opacity="0.161"/>
      <feComposite operator="in" in2="blur-10"/>
      <feComposite in="SourceGraphic"/>
    </filter>
    <filter id="Ellipse_15-10" x="190" y="232" width="200" height="200" filterUnits="userSpaceOnUse">
      <feOffset dy="2" input="SourceAlpha"/>
      <feGaussianBlur result="blur-11"/>
      <feFlood flood-color="#fff" result="color-5"/>
      <feComposite operator="out" in="SourceGraphic" in2="blur-11"/>
      <feComposite operator="in" in="color-5"/>
      <feComposite operator="in" in2="SourceGraphic"/>
    </filter>
  </defs>
  <g id="Group_2533" data-name="Group 2533" transform="translate(-286 -1327)">
    <g id="Group_2524" data-name="Group 2524" transform="translate(-22 578)">
      <g transform="matrix(1, 0, 0, 1, 308, 749)" filter="url(#Ellipse_14)">
        <circle id="Ellipse_14-2" data-name="Ellipse 14" cx="78.5" cy="78.5" r="78.5" transform="translate(138 131)" fill="url(#radial-gradient)"/>
      </g>
      <path id="Path_20047" data-name="Path 20047" d="M-32.545-8.164V1.809H-34.6V-6.012q-.974.918-2.032,1.744l-1.085-1.791a22.637,22.637,0,0,0,5.854-6.216l1.6,1.048A25.9,25.9,0,0,1-32.545-8.164Zm9.9-.1v8.21a1.586,1.586,0,0,1-.566,1.392,2.768,2.768,0,0,1-1.512.315q-1.716,0-3.3-.111l-.362-1.995q1.642.158,2.9.158.529,0,.64-.2a.884.884,0,0,0,.093-.445v-7.32h-5.78v-1.9H-19.4v1.9Zm-14.937-3.516a15.58,15.58,0,0,0,4.963-4.388l1.633,1.085a20.465,20.465,0,0,1-5.492,4.954Zm8.3-3.433h8.609v1.865h-8.609Zm23.128,2.9.093-3.934h1.865l-.083,3.934H-.761Q-.854-1.939-1.54.25A1.7,1.7,0,0,1-2.616,1.457,3.824,3.824,0,0,1-3.8,1.6a13.922,13.922,0,0,1-1.948-.13L-6.114-.492a10.169,10.169,0,0,0,1.883.2q.659,0,.844-.362a6.785,6.785,0,0,0,.343-1.707q.334-2.69.427-7.663l.009-.464H-4.4a27.464,27.464,0,0,1-.983,6.828A13.112,13.112,0,0,1-8.544,1.828L-10.066.649a8.853,8.853,0,0,0,.733-.761q-4.639.844-8.888,1.252l-.417-1.753q2.31-.139,4.388-.343v-1.29h-3.989V-3.711h3.989V-4.769H-17.8v-6.1h3.553v-1.03h-4.277v-1.447h4.277v-.826q-1.4.139-3.191.241l-.668-1.429a45.474,45.474,0,0,0,7.951-.965L-9.1-14.974a27.347,27.347,0,0,1-3.321.6v1.03h4.156v1.03Zm-.083,1.828H-8.3v-1.41h-4.119v1.03h3.609v6.1h-3.609v1.058h3.841v1.466h-3.841v1.1l.779-.074q1.559-.158,3.368-.464a20.05,20.05,0,0,0,2.022-8.554Zm-7.96.872h-2.013v1.178h2.013Zm1.716,0v1.178h2.069V-9.611Zm-1.716,2.319h-2.013v1.271h2.013Zm1.716,0v1.271h2.069V-7.292Zm15.5-5.529v-3.423H5.019v3.423H7.246v1.846H5.019v3.182q1.03-.3,2.189-.733l.148,1.707q-1.16.492-2.338.891V0a1.748,1.748,0,0,1-.445,1.354,2.006,2.006,0,0,1-1.345.353A10.65,10.65,0,0,1,1.2,1.521L.835-.492a8.777,8.777,0,0,0,1.688.186q.362,0,.445-.167A.748.748,0,0,0,3.024-.8v-4.49Q1.753-4.917.8-4.694L.269-6.587,1.586-6.9l1.438-.343v-3.729H.557v-1.846ZM9.9-13.833a33.248,33.248,0,0,0,6.476-1.726L17.683-14A46.132,46.132,0,0,1,9.9-12.265v1.113a.574.574,0,0,0,.445.622,21.648,21.648,0,0,0,2.746.083,16.994,16.994,0,0,0,2.653-.111q.343-.083.445-.584a9.49,9.49,0,0,0,.13-1.419l1.9.612a4.827,4.827,0,0,1-.538,2.607,2.063,2.063,0,0,1-1.354.547q-.937.1-3.4.1a23.754,23.754,0,0,1-3.776-.176A1.353,1.353,0,0,1,8.09-9.593a2.374,2.374,0,0,1-.13-.891v-5.761H9.9Zm7.524,6.6V1.809H15.484V.928H10.168v.881h-1.9V-7.236ZM10.168-5.771v1.8h5.316v-1.8Zm0,3.266V-.649h5.316V-2.5Zm17.386-8.47v.928H25.179V-8h3.1V-9.648h3.646v-6.6h2.05v6.6h3.553v1.9H33.974V1.809h-2.05V-7.747h-3.5v1.364H25.179v5.14l.278-.074q1.688-.4,3.4-.881L29.02-.6a66.557,66.557,0,0,1-8.786,2.282L19.473-.13q1.865-.278,3.655-.659.083-.019.148-.037V-6.383H19.649V-8h3.627v-2.05H21.208q-.362.353-.974.872l-.946-1.688a15.76,15.76,0,0,0,3.971-5.381h2.087a22.377,22.377,0,0,1,3.516,3.952Zm-.52-.649a31.108,31.108,0,0,0-2.356-2.867l-.121-.13a18.864,18.864,0,0,1-1.92,3ZM20.976-1.364A15.533,15.533,0,0,0,19.937-5l1.688-.547a15.492,15.492,0,0,1,1.1,3.59ZM25.466-2.5a22.359,22.359,0,0,0,.983-3.331l1.726.455a18.382,18.382,0,0,1-1.132,3.256Z" transform="translate(524 966)" fill="#fff" stroke="rgba(0,0,0,0)" stroke-width="1"/>
    </g>
    <g id="Group_2521" data-name="Group 2521" transform="translate(-7 378)">
      <g data-type="innerShadowGroup">
        <g transform="matrix(1, 0, 0, 1, 293, 949)" filter="url(#Ellipse_15)">
          <circle id="Ellipse_15-11" data-name="Ellipse 15" cx="70" cy="70" r="70" transform="translate(149 20)" fill="url(#radial-gradient-2)"/>
        </g>
        <g transform="matrix(1, 0, 0, 1, 293, 949)" filter="url(#Ellipse_15-2)">
          <circle id="Ellipse_15-12" data-name="Ellipse 15" cx="70" cy="70" r="70" transform="translate(149 20)" fill="#fff"/>
        </g>
      </g>
      <path id="Path_20042" data-name="Path 20042" d="M-29.751-12.349a13.689,13.689,0,0,0-1.257-2.426l1.477-.615a12.623,12.623,0,0,1,1.38,2.355l-1.5.686h2.118v1.67h-3.63A35.313,35.313,0,0,0-30.7-6.047,29.728,29.728,0,0,0-29.593-9.1L-28-8.306a32.286,32.286,0,0,1-2.136,4.7A10.762,10.762,0,0,0-29.3-1.547q.255.457.369.457.1,0,.185-.448a16.735,16.735,0,0,0,.237-1.907l1.389,1.028A10.4,10.4,0,0,1-27.809.861q-.325.712-.835.712-.536,0-1.248-.817a8.721,8.721,0,0,1-1.415-2.479,16.354,16.354,0,0,1-3,3.322L-35.543.308a16.818,16.818,0,0,0,3.577-4,35.887,35.887,0,0,1-.976-6.987h-3.182v2.2h2.9V-7.8a24.507,24.507,0,0,1-.352,5.353,1.238,1.238,0,0,1-1.318.932,5.627,5.627,0,0,1-.853-.07l-.343-1.661a5.406,5.406,0,0,0,.8.079q.281,0,.352-.466a21.224,21.224,0,0,0,.158-2.417l.018-.817h-1.362a34.443,34.443,0,0,1-.3,4.852A11.6,11.6,0,0,1-37.6,1.705l-1.107-.9h-3.8v.9h-1.652V-4.342h5.449V.149a23.172,23.172,0,0,0,.853-7.321v-5.177h4.843q-.044-1.02-.07-3.041h1.8q.009.914.053,3.041ZM-42.5-2.83V-.686h2.18V-2.83Zm-1.4-11.909h4.9v1.477h-4.9Zm-.7,2.575h6.249v1.582H-44.6Zm.7,2.7h4.9v1.459h-4.9Zm0,2.575h4.9v1.424h-4.9Zm26.8-5.168v1.424h4.395v1.424H-17.1V-7.9h5.634V-6.46H-17.1v1.389h7.646v1.547h-7.2a7.448,7.448,0,0,0,2.391,2A12.678,12.678,0,0,0-9.87-.035l-1,1.749A12.3,12.3,0,0,1-15.486-.141,8.272,8.272,0,0,1-17.9-2.628,6.359,6.359,0,0,1-20.689.352a13.748,13.748,0,0,1-4.438,1.4L-26.139.114A14.055,14.055,0,0,0-21.56-1.2a4.512,4.512,0,0,0,2.171-2.329h-7.163V-5.071h7.541V-6.46h-5.44V-7.9h5.44v-1.31H-23.3v-1.424h4.289v-1.424h-5V-9.6h-1.925v-3.937h6.908V-15.39H-17.1v1.854h7.022V-9.6h-1.925v-2.461ZM-6.812.958a53.454,53.454,0,0,1-.334-5.941A59.36,59.36,0,0,1-6.4-14.6l1.934.2a50.227,50.227,0,0,0-.712,8.886A49.166,49.166,0,0,0-4.808.7Zm5.273-13.922H6.908v1.872H-1.538ZM7.506-.123A27.677,27.677,0,0,1,3.331.149q-6.073,0-6.073-3.568a4.129,4.129,0,0,1,.756-2.47l1.661.738A2.533,2.533,0,0,0-.8-3.647,1.416,1.416,0,0,0,.229-2.232a8.938,8.938,0,0,0,3.12.439A25.947,25.947,0,0,0,7.3-2.074Zm7.207-12.1h3.524v.993h4.43V-15.39h1.872v4.157h2.109v1.784H24.539V-.237a2.483,2.483,0,0,1-.264,1.3,1.523,1.523,0,0,1-1.362.5,25.219,25.219,0,0,1-2.839-.158L19.661-.5a19.681,19.681,0,0,0,2.514.193q.352,0,.431-.132a1.049,1.049,0,0,0,.062-.439V-9.448H18.009v-1.028H16.937a21.8,21.8,0,0,1-1.3,5.774l.773,1.011q.844,1.09,1.485,1.978L16.515-.29q-.782-1.134-1.521-2.136l-.255-.343A12.827,12.827,0,0,1,10.854,1.6L9.58.176a12.038,12.038,0,0,0,3.9-4.6l-.791-1.028q-1.318-1.731-2.408-2.936l1.336-1.169q1.134,1.23,2.663,3.129a20.721,20.721,0,0,0,.835-4.052H9.633v-1.749h3.19V-15.39h1.89Zm5.221,9.378a26.6,26.6,0,0,0-2.021-4.711l1.564-.888a20.906,20.906,0,0,1,2.092,4.685ZM37.2-13.263h6.812v1.67H30.63v3.524a36.964,36.964,0,0,1-.378,5.933A12.539,12.539,0,0,1,29,1.635L27.36.193a11.024,11.024,0,0,0,1.09-3.709,38.64,38.64,0,0,0,.229-4.693v-5.054h6.5V-15.39H37.2ZM34.682-7.611h1.872v6.5q0,.475.272.58a3.165,3.165,0,0,0,1.02.105A6.8,6.8,0,0,0,39.12-.51a.461.461,0,0,0,.36-.4,19.51,19.51,0,0,0,.193-2.812l1.837.6A9.543,9.543,0,0,1,41.063.545a1.474,1.474,0,0,1-1.046.686,11.694,11.694,0,0,1-2.206.141,8.383,8.383,0,0,1-2.417-.2,1.284,1.284,0,0,1-.712-1.345Zm-4.3,6.82a19.816,19.816,0,0,0,1.564-5.994l1.775.466A19.789,19.789,0,0,1,32.036.29ZM38.6-7.022a17.583,17.583,0,0,0-3.683-3.094l1.274-1.239a19.121,19.121,0,0,1,3.779,2.971ZM43.128-.58A29.3,29.3,0,0,0,40.14-6.513L41.7-7.436A25.212,25.212,0,0,1,44.78-1.67Z" transform="translate(512 1046)" fill="#303030" stroke="rgba(0,0,0,0)" stroke-width="1"/>
    </g>
    <g id="Group_2529" data-name="Group 2529" transform="translate(-126 475)">
      <g data-type="innerShadowGroup">
        <g transform="matrix(1, 0, 0, 1, 412, 852)" filter="url(#Ellipse_15-3)">
          <circle id="Ellipse_15-13" data-name="Ellipse 15" cx="70" cy="70" r="70" transform="translate(30 117)" fill="url(#radial-gradient-2)"/>
        </g>
        <g transform="matrix(1, 0, 0, 1, 412, 852)" filter="url(#Ellipse_15-4)">
          <circle id="Ellipse_15-14" data-name="Ellipse 15" cx="70" cy="70" r="70" transform="translate(30 117)" fill="#fff"/>
        </g>
      </g>
      <path id="Path_20043" data-name="Path 20043" d="M-52.866-12.261h4.1q.246-1.09.554-2.821l1.986.246q-.264,1.362-.562,2.575h5.854v1.749H-47.2A67.536,67.536,0,0,1-51.082,1.134L-53.024.448a69.968,69.968,0,0,0,3.85-10.96h-3.691ZM-37.31.668a25.061,25.061,0,0,1-3.2.185A14.482,14.482,0,0,1-44.851.36a2.785,2.785,0,0,1-.958-.545,2.316,2.316,0,0,1-.773-1.793,2.96,2.96,0,0,1,.721-1.969l1.564.923a1.187,1.187,0,0,0-.272.756.879.879,0,0,0,.65.923,9.789,9.789,0,0,0,2.83.316,24.2,24.2,0,0,0,3.56-.264Zm-8.244-8.71a70.374,70.374,0,0,1,7.541-.422l.088,1.784A72.4,72.4,0,0,0-45.3-6.3Zm13.28-4.939a30.309,30.309,0,0,0-.773,6.267,7.785,7.785,0,0,1,2.408-3.814,9.212,9.212,0,0,1,3.964-2l-.018-.272q-.088-1.31-.167-2.2h1.925l.009.07q.07.8.158,1.969l.018.193a5.8,5.8,0,0,1,4.43,1.652,5.68,5.68,0,0,1,1.345,3.99A5.359,5.359,0,0,1-21.287-2.54a6.7,6.7,0,0,1-4.025,1.1A4.952,4.952,0,0,1-27.325.844a8.184,8.184,0,0,1-1.459.65L-30.059.29a4.641,4.641,0,0,0,2.8-2,6.548,6.548,0,0,1-2.663-1.6l.65-1.512a5.742,5.742,0,0,0,2.575,1.441A22.721,22.721,0,0,0-26.5-6.75q0-1.521-.088-4.157a8.079,8.079,0,0,0-3.472,2.03,10.413,10.413,0,0,0-1.687,2.408,6.181,6.181,0,0,0-.817,2.83,8.757,8.757,0,0,0,.123,1.354l-1.89.413a25.76,25.76,0,0,1-.51-4.948,30.972,30.972,0,0,1,.677-6.627Zm7.611,1.784q.114,2.127.114,3.735a28.335,28.335,0,0,1-.255,4.28,3.936,3.936,0,0,0,2.751-1.046,4.252,4.252,0,0,0,1.063-3.059Q-20.988-11.083-24.662-11.2Zm15.214-3.779h1.942v2.215h5.528v1.67H-7.506V-9h5.221v1.652H-7.506v2.716a24.513,24.513,0,0,1,6.17,3.173L-2.373.211A28.926,28.926,0,0,0-7.506-2.83,4.894,4.894,0,0,1-8.086-.5Q-8.974.932-11.584.932A6.089,6.089,0,0,1-14.818.176a2.579,2.579,0,0,1-1.362-2.285,2.7,2.7,0,0,1,1.837-2.549,7.973,7.973,0,0,1,3.2-.545,12.909,12.909,0,0,1,1.7.123V-7.348H-15.68V-9h6.231v-2.092h-6.609v-1.67h6.609Zm0,11.531a9.749,9.749,0,0,0-2-.22,4.491,4.491,0,0,0-1.9.343,1.287,1.287,0,0,0-.87,1.178,1.177,1.177,0,0,0,.677,1.037,3.582,3.582,0,0,0,1.828.4,2.134,2.134,0,0,0,1.863-.721,2.872,2.872,0,0,0,.4-1.679ZM4.57-14.08q.281,1.705.615,3.1a9.936,9.936,0,0,1,3.929-1.169q.2-1.213.4-2.848l1.907.4q-.193,1.23-.439,2.5a7.706,7.706,0,0,1,2.54.861,5.858,5.858,0,0,1,2.628,3.551A7.339,7.339,0,0,1,16.4-5.7a9.322,9.322,0,0,1-.413,2.7,17.382,17.382,0,0,1,1.74,1.529L16.761.176a19.93,19.93,0,0,0-1.582-1.564A4.134,4.134,0,0,1,11.637.589,4.334,4.334,0,0,1,10.274.378,2.4,2.4,0,0,1,9.123-.413,2.317,2.317,0,0,1,8.64-1.89a2.667,2.667,0,0,1,.773-1.969,3.278,3.278,0,0,1,2.426-.905,5.654,5.654,0,0,1,2.382.624,9.614,9.614,0,0,0,.158-1.723,4.464,4.464,0,0,0-1.573-3.656,4.691,4.691,0,0,0-2.162-.923A26.478,26.478,0,0,1,9.29-5.871,15.67,15.67,0,0,1,6.53-1.433,4.05,4.05,0,0,1,3.6.105a2.19,2.19,0,0,1-2-1.222,5.387,5.387,0,0,1-.554-2.628,8.237,8.237,0,0,1,2.628-6.1q-.422-1.687-.791-3.656ZM13.7-2.558a3.6,3.6,0,0,0-2.013-.7,1.569,1.569,0,0,0-.8.185,1.155,1.155,0,0,0-.677,1,.889.889,0,0,0,.563.826,1.927,1.927,0,0,0,.905.211,1.876,1.876,0,0,0,1.512-.694,3.685,3.685,0,0,0,.378-.58A1.254,1.254,0,0,0,13.7-2.558ZM4.192-7.884A6.894,6.894,0,0,0,2.839-3.841a3.458,3.458,0,0,0,.308,1.564.781.781,0,0,0,.686.51q.738,0,2.021-1.564A28.873,28.873,0,0,1,4.192-7.884Zm4.6-2.575A7.743,7.743,0,0,0,5.616-9.272,33.323,33.323,0,0,0,7-5.168,20.441,20.441,0,0,0,8.789-10.459Zm19,3.938-.123,1.143h6.46A22.076,22.076,0,0,1,33.381.387a1.606,1.606,0,0,1-.984.984,4.826,4.826,0,0,1-1.441.158q-1.512,0-3.524-.193l-.308-1.7q2.145.22,3.375.22.791,0,1.02-.475a11.87,11.87,0,0,0,.519-3.164H27.387l-.035.105A5.979,5.979,0,0,1,24.5.053,15.043,15.043,0,0,1,19.784,1.6L18.756-.018a14.278,14.278,0,0,0,4.21-1.169,4.593,4.593,0,0,0,2.391-2.593H19.749v-1.6h5.977l.141-1.187H27.4l-.94-1.187a13.339,13.339,0,0,0,3.27-1.679,9.863,9.863,0,0,1-2.171-3.454h-.439v-1.494h6.9l.844.686a12.223,12.223,0,0,1-2.531,4.166,18.389,18.389,0,0,0,3.542,1.591l-.993,1.582a17.385,17.385,0,0,1-3.858-1.986A12.212,12.212,0,0,1,27.791-6.521ZM31-10.529a9.063,9.063,0,0,0,1.564-2.355H29.285A7.25,7.25,0,0,0,31-10.529Zm-8.6,1.758a29.707,29.707,0,0,0-2.971-1.2l.229-.378a18.058,18.058,0,0,0,.914-1.7l.114-.246H18.6v-1.529h2.733q.343-.888.606-1.67l1.784.281q-.316.993-.475,1.389h3.718a9.159,9.159,0,0,1-1.8,4.553q.7.325,1.6.809L25.646-7q-.861-.527-1.635-.949a12.931,12.931,0,0,1-4.7,2.1L18.4-7.163A14.209,14.209,0,0,0,22.395-8.771Zm1.23-1.16a7.951,7.951,0,0,0,1.2-2.364H22.605q-.422.914-.853,1.679,1.02.352,1.74.633Zm26.815.018H45.387a16.431,16.431,0,0,1-1.7,6.372A12.6,12.6,0,0,1,38.3,1.477L36.879-.141a11.257,11.257,0,0,0,4.8-4.21,13.434,13.434,0,0,0,1.644-5.563H37.362v-1.8H43.5l.149-3.674h2.03l-.167,3.674H52.5l-.018,1.371a59.905,59.905,0,0,1-.668,9.861A2.165,2.165,0,0,1,50.8.993a3.294,3.294,0,0,1-1.635.343,23.8,23.8,0,0,1-3.357-.255L45.431-.967a17.821,17.821,0,0,0,3.094.343q1,0,1.239-.554A11.543,11.543,0,0,0,50.1-3.3Q50.344-5.722,50.44-9.914Z" transform="translate(512 1046)" fill="#303030" stroke="rgba(0,0,0,0)" stroke-width="1"/>
    </g>
    <g id="Group_2530" data-name="Group 2530" transform="translate(109 475)">
      <g data-type="innerShadowGroup">
        <g transform="matrix(1, 0, 0, 1, 177, 852)" filter="url(#Ellipse_15-5)">
          <circle id="Ellipse_15-15" data-name="Ellipse 15" cx="70" cy="70" r="70" transform="translate(265 117)" fill="url(#radial-gradient-2)"/>
        </g>
        <g transform="matrix(1, 0, 0, 1, 177, 852)" filter="url(#Ellipse_15-6)">
          <circle id="Ellipse_15-16" data-name="Ellipse 15" cx="70" cy="70" r="70" transform="translate(265 117)" fill="#fff"/>
        </g>
      </g>
      <path id="Path_20046" data-name="Path 20046" d="M-40.465-2.364q1.8,1.942,5.6,1.942h7.7a7.086,7.086,0,0,0-.571,1.714h-7.181A10.182,10.182,0,0,1-39.19.536,6.9,6.9,0,0,1-41.124-.949l-.044-.044A15.7,15.7,0,0,1-43.69,1.723l-.984-1.8q1.336-.958,2.373-1.828v-4.4h-2.25V-8.042h4.087Zm10.222-12.164-.07,1.925q-.044,1.248-.044,2.391A22.017,22.017,0,0,0-29.7-4q.158.5.246.5t.237-.475a14.219,14.219,0,0,0,.448-2.391l1.406,1.151q-.615,3.99-1.942,3.99-.984,0-1.793-1.652a9.692,9.692,0,0,1-.835-2.962,38.794,38.794,0,0,1-.246-4.931q0-.633.009-1.213l.026-.914H-39.56v-1.635ZM-36.949-8.71v-3.656h1.784V-8.71h2.54v1.635h-2.54v5.651h-1.784V-7.075H-39.92V-8.71Zm-4.667-2a21.147,21.147,0,0,0-2.61-3.507l1.459-1.081a16.087,16.087,0,0,1,2.681,3.313Zm19.187,8.6.114.114A4.605,4.605,0,0,0-20.61-.879a10.907,10.907,0,0,0,3.744.563h7.7a7.152,7.152,0,0,0-.571,1.67h-7.181A10.3,10.3,0,0,1-21.437.571,6.293,6.293,0,0,1-23.186-.8a16.1,16.1,0,0,1-2.5,2.566l-.984-1.775a19.739,19.739,0,0,0,2.391-1.767V-6.311h-2.25V-8.042h4.1Zm5.722-2.76A13.452,13.452,0,0,1-20.6-1.406l-1.2-1.345a14.144,14.144,0,0,0,4.623-3.656h-3.612v-4.465h4.078v-1.2h-4.764v-1.582h4.764V-15.39h1.8v1.731h4.922v1.582h-4.922v1.2h4.236v4.465h-4.236v.343a34.2,34.2,0,0,1,4.975,2.7l-1.134,1.512A35.911,35.911,0,0,0-14.906-4.5V-.826h-1.8Zm0-4.623h-2.347v1.758h2.347Zm1.8,0v1.758h2.487V-9.5Zm-8.675-1.283a20.09,20.09,0,0,0-2.646-3.366l1.441-1.116a17.85,17.85,0,0,1,2.733,3.243ZM-6.812.958a53.454,53.454,0,0,1-.334-5.941A59.36,59.36,0,0,1-6.4-14.6l1.934.2a50.227,50.227,0,0,0-.712,8.886A49.166,49.166,0,0,0-4.808.7Zm5.273-13.922H6.908v1.872H-1.538ZM7.506-.123A27.677,27.677,0,0,1,3.331.149q-6.073,0-6.073-3.568a4.129,4.129,0,0,1,.756-2.47l1.661.738A2.533,2.533,0,0,0-.8-3.647,1.416,1.416,0,0,0,.229-2.232a8.938,8.938,0,0,0,3.12.439A25.947,25.947,0,0,0,7.3-2.074Zm6.662-7.611V1.714H12.226V-5.7q-.923.87-1.925,1.652l-1.028-1.7a21.446,21.446,0,0,0,5.546-5.889l1.512.993A24.539,24.539,0,0,1,14.168-7.734Zm9.378-.1V-.053a1.5,1.5,0,0,1-.536,1.318,2.622,2.622,0,0,1-1.433.3q-1.626,0-3.129-.105l-.343-1.89q1.556.149,2.751.149.5,0,.606-.193A.838.838,0,0,0,21.551-.9V-7.831H16.075v-1.8H26.622v1.8ZM9.4-11.162a14.76,14.76,0,0,0,4.7-4.157l1.547,1.028a19.388,19.388,0,0,1-5.2,4.693Zm7.866-3.252h8.156v1.767H17.262Zm21.911,2.751.088-3.727h1.767l-.079,3.727h3.331q-.088,9.826-.738,11.9a1.607,1.607,0,0,1-1.02,1.143,3.623,3.623,0,0,1-1.125.132,13.189,13.189,0,0,1-1.846-.123L39.208-.466a9.634,9.634,0,0,0,1.784.193q.624,0,.8-.343a6.428,6.428,0,0,0,.325-1.617q.316-2.549.4-7.26l.009-.439h-1.7A26.018,26.018,0,0,1,39.9-3.463a12.422,12.422,0,0,1-3,5.194L35.464.615a8.387,8.387,0,0,0,.694-.721q-4.395.8-8.42,1.187l-.4-1.661Q29.531-.712,31.5-.905V-2.127H27.721V-3.516H31.5v-1H28.134v-5.774H31.5v-.976H27.448v-1.371H31.5v-.782q-1.327.132-3.023.229l-.633-1.354a43.081,43.081,0,0,0,7.532-.914l1,1.274a25.908,25.908,0,0,1-3.146.571v.976h3.938v.976Zm-.079,1.731h-1.96v-1.336h-3.9v.976H36.65v5.774H33.231v1H36.87v1.389H33.231v1.046l.738-.07q1.477-.149,3.19-.439a18.994,18.994,0,0,0,1.916-8.1Zm-7.541.826H29.646v1.116h1.907Zm1.626,0v1.116h1.96V-9.105Zm-1.626,2.2H29.646v1.2h1.907Zm1.626,0v1.2h1.96v-1.2Z" transform="translate(512 1046)" fill="#303030" stroke="rgba(0,0,0,0)" stroke-width="1"/>
    </g>
    <g id="Group_2531" data-name="Group 2531" transform="translate(-82 610)">
      <g data-type="innerShadowGroup">
        <g transform="matrix(1, 0, 0, 1, 368, 717)" filter="url(#Ellipse_15-7)">
          <circle id="Ellipse_15-17" data-name="Ellipse 15" cx="70" cy="70" r="70" transform="translate(74 252)" fill="url(#radial-gradient-2)"/>
        </g>
        <g transform="matrix(1, 0, 0, 1, 368, 717)" filter="url(#Ellipse_15-8)">
          <circle id="Ellipse_15-18" data-name="Ellipse 15" cx="70" cy="70" r="70" transform="translate(74 252)" fill="#fff"/>
        </g>
      </g>
      <path id="Path_20044" data-name="Path 20044" d="M-44.244-15.029h1.978V-12.6h5.186v1.7h-5.186v3.762a7.13,7.13,0,0,1,.308,1.925,6.534,6.534,0,0,1-1.38,4.6A8.272,8.272,0,0,1-47.865,1.6l-1-1.494a8.937,8.937,0,0,0,3.48-1.266,3.76,3.76,0,0,0,1.433-2.1A2.937,2.937,0,0,1-46.2-2.232a3.371,3.371,0,0,1-2.364-.826,3.648,3.648,0,0,1-1.063-2.83,4.06,4.06,0,0,1,.466-1.881,3.3,3.3,0,0,1,.756-.967,3.721,3.721,0,0,1,2.487-.879,3.232,3.232,0,0,1,1.67.439v-1.731h-8.675v-1.7h8.675Zm.07,9.123v-.325a1.863,1.863,0,0,0-.264-.993,1.572,1.572,0,0,0-1.424-.809,1.62,1.62,0,0,0-.888.264,2.046,2.046,0,0,0-.967,1.863,2.414,2.414,0,0,0,.352,1.336,1.62,1.62,0,0,0,1.45.756,1.572,1.572,0,0,0,1.38-.782A2.347,2.347,0,0,0-44.174-5.906Zm8.93,2.9A31.776,31.776,0,0,0-32.88-6.548a41.418,41.418,0,0,0,2.531-5.045,1.7,1.7,0,0,1,1.608-1.239,1.684,1.684,0,0,1,1.125.439,6.494,6.494,0,0,1,.984,1.4A40.406,40.406,0,0,0-24.108-7.33a42.647,42.647,0,0,0,5.335,5.889L-20.048.237A53.37,53.37,0,0,1-28.3-10q-.281-.439-.422-.439-.185,0-.492.791a34.747,34.747,0,0,1-2.259,4.605A34.843,34.843,0,0,1-33.645-1.7Zm12.4-6.548a15.422,15.422,0,0,0-1.767-3.19l1.371-.483a14.729,14.729,0,0,1,1.767,3.111Zm2.25-1.2a14.029,14.029,0,0,0-1.749-3.182l1.318-.448a11.284,11.284,0,0,1,1.749,3.023Zm3.8-2.5q8.086-.123,15.284-.413l.105,1.749a13.844,13.844,0,0,0-4.939.967A6.859,6.859,0,0,0-9.053-8.807a5.655,5.655,0,0,0-1.16,3.463A3.279,3.279,0,0,0-8.895-2.5,10.388,10.388,0,0,0-4.254-1.011L-4.667.967Q-8.745.422-10.406-1.143A5.451,5.451,0,0,1-12.19-5.291a6.463,6.463,0,0,1,1.617-4.2,8.254,8.254,0,0,1,3.226-2.3q-3.63.123-9.36.413ZM2.188.958a53.454,53.454,0,0,1-.334-5.941A59.36,59.36,0,0,1,2.6-14.6l1.934.2a50.227,50.227,0,0,0-.712,8.886A49.166,49.166,0,0,0,4.192.7ZM7.462-12.964h8.446v1.872H7.462ZM16.506-.123a27.677,27.677,0,0,1-4.175.272q-6.073,0-6.073-3.568a4.129,4.129,0,0,1,.756-2.47l1.661.738a2.533,2.533,0,0,0-.475,1.5A1.416,1.416,0,0,0,9.229-2.232a8.938,8.938,0,0,0,3.12.439A25.947,25.947,0,0,0,16.3-2.074ZM32.405-13.5a16.691,16.691,0,0,0-1.468-1.292l1.406-.7a13.278,13.278,0,0,1,1.705,1.415l-1.072.58H34.8v1.477H30.3A14.042,14.042,0,0,0,31.184-8.5a19.983,19.983,0,0,0,2.021-2.856l1.459.791A25.986,25.986,0,0,1,32.027-7a5.049,5.049,0,0,0,.879.888,1.016,1.016,0,0,0,.466.237q.255,0,.483-1.556.035-.2.07-.422L35.455-7a10.056,10.056,0,0,1-.589,2.241q-.457.958-1.143.958a2.738,2.738,0,0,1-1.31-.483,7.079,7.079,0,0,1-1.679-1.45A13.865,13.865,0,0,1,28.521-4.1l-.686-.756h-5.7V-8.71h5.739v3.059a17.959,17.959,0,0,0,1.934-1.468,15.7,15.7,0,0,1-1.389-4.9H21.208v2.03A25.177,25.177,0,0,1,21-6.117a8.188,8.188,0,0,1-1.037,2.7L18.343-4.605a7.251,7.251,0,0,0,.861-2.83,20.852,20.852,0,0,0,.114-2.373V-13.5h8.93q-.07-.712-.141-1.89h1.872q.062,1.063.141,1.89ZM23.792-7.392v1.239h2.443V-7.392Zm-2.013-3.7h6.3V-9.7h-6.3ZM18.756.325a12.885,12.885,0,0,0,1.415-3.709l1.784.519a11.158,11.158,0,0,1-1.494,4.324Zm4.588-3.639h1.907v2.47q0,.483.308.58a7.635,7.635,0,0,0,1.775.123A10.29,10.29,0,0,0,29.47-.272q.29-.079.378-.519A12.866,12.866,0,0,0,30-2.145l1.89.5q-.1,2.18-.729,2.689A2.035,2.035,0,0,1,30.1,1.4a25.5,25.5,0,0,1-2.716.123,12.022,12.022,0,0,1-3.357-.272,1.173,1.173,0,0,1-.686-1.23ZM33.926.993a20.7,20.7,0,0,0-2.232-3.929l1.6-.844a15.449,15.449,0,0,1,2.347,3.6Zm-6.425-2a18.508,18.508,0,0,0-1.925-2.575l1.345-.844A11.982,11.982,0,0,1,29-2.03ZM47.628-7.646l.809,1.028q-.527.826-.809,1.23V.237a1.338,1.338,0,0,1-.413,1.169,2.086,2.086,0,0,1-1.143.229q-1.055,0-1.758-.07L43.989-.07l.36.026q.993.079,1.248.079.448,0,.448-.466V-3.3A17.568,17.568,0,0,1,42.319.035l-.853-1.274V.809H38.215v.9H36.65V-4.342h4.816v2.874a16.182,16.182,0,0,0,4.2-3.542,1.212,1.212,0,0,0-.141.035,33.8,33.8,0,0,1-3.894.835l-.4-1.327h-4.4V-6.891h4.421v1.143l1.028-.1v-8.1h1.635l.018-.088q.123-.483.29-1.477l1.731.229a12.242,12.242,0,0,1-.448,1.336h2.118ZM43.813-6.038q.817-.114,1.775-.281l.457-.079V-7.62H43.813Zm2.232-6.469H43.813v1.222h2.232ZM38.215-2.83V-.686h1.652V-2.83Zm7.831-7.216H43.813v1.187h2.232Zm4.729-.984v-4.087h1.767v4.087h1.134v1.784H52.541V.105a1.819,1.819,0,0,1-.255,1.09,1.584,1.584,0,0,1-1.3.422,13.074,13.074,0,0,1-1.863-.141L48.8-.272a14.025,14.025,0,0,0,1.6.132q.3,0,.352-.149a1.121,1.121,0,0,0,.026-.29V-3.5l-1.406.677A31.189,31.189,0,0,0,48.2-7.8l1.441-.6a33,33,0,0,1,1.134,4.562V-9.246H48.129V-11.03ZM36.826-14.739h4.43v1.477h-4.43Zm-.466,2.575h5.414v1.582H36.36Zm.466,2.7h4.43v1.459h-4.43Z" transform="translate(512 1046)" fill="#303030" stroke="rgba(0,0,0,0)" stroke-width="1"/>
    </g>
    <g id="Group_2532" data-name="Group 2532" transform="translate(64 610)">
      <g data-type="innerShadowGroup">
        <g transform="matrix(1, 0, 0, 1, 222, 717)" filter="url(#Ellipse_15-9)">
          <circle id="Ellipse_15-19" data-name="Ellipse 15" cx="70" cy="70" r="70" transform="translate(220 252)" fill="url(#radial-gradient-2)"/>
        </g>
        <g transform="matrix(1, 0, 0, 1, 222, 717)" filter="url(#Ellipse_15-10)">
          <circle id="Ellipse_15-20" data-name="Ellipse 15" cx="70" cy="70" r="70" transform="translate(220 252)" fill="#fff"/>
        </g>
      </g>
      <path id="Path_20045" data-name="Path 20045" d="M-49.333-11.048V1.714h-1.89V-7.471Q-51.9-6.39-52.831-5.177l-.9-1.951A19.629,19.629,0,0,0-51-11.953q.589-1.459,1.257-3.63l1.925.5A40.48,40.48,0,0,1-49.333-11.048Zm5.81-.87V-15.39h1.89v3.472h4.614v7.945h-4.614V1.714h-1.89V-3.973h-4.535v-7.945Zm4.649,1.731h-2.76v4.5h2.76Zm-4.649,0h-2.7v4.5h2.7Zm15.583-4.649V-8.35h-5V1.714h-1.89v-16.55Zm-5,1.406v1.151h3.217V-13.43Zm0,2.443v1.23h3.217v-1.23Zm13.79-3.85V-.343A2.122,2.122,0,0,1-19.5,1.02a1.975,1.975,0,0,1-1.582.492q-.721,0-1.687-.053l-.325-1.8a13.56,13.56,0,0,0,1.556.105q.369,0,.448-.158a.936.936,0,0,0,.053-.378V-8.35h-5.133v-6.486Zm-5.221,1.406v1.151h3.331V-13.43Zm0,2.443v1.23h3.331v-1.23Zm1.081,3.656V-.554H-29.1V.413H-30.85V-7.33ZM-29.1-5.941V-4.7h4.043V-5.941Zm0,2.575V-2h4.043V-3.366Zm13.078-9.554h4.737q.782-1.248,1.187-2.013l1.96.281q-.264.475-.932,1.547l-.114.185h6.2v1.731h-7.365a33.932,33.932,0,0,1-2.2,2.742,6.022,6.022,0,0,1,3.032-.993A2.7,2.7,0,0,1-6.732-7.3q2.25-.747,4.588-1.477l.756,1.705-.308.088-.87.229Q-5.027-6.091-6.5-5.616q.105,1.143.149,2.953l-1.925.105Q-8.288-3.6-8.314-4.825V-5q-4.043,1.38-4.043,2.777,0,.721,1.037.984a16.856,16.856,0,0,0,3.586.255,48.4,48.4,0,0,0,5-.272L-2.522.615q-2.54.193-5.265.193A15.629,15.629,0,0,1-12.56.3a2.3,2.3,0,0,1-1.749-2.276A3.163,3.163,0,0,1-13.069-4.43,15.347,15.347,0,0,1-8.552-6.7a1.985,1.985,0,0,0-.466-.949,1.2,1.2,0,0,0-.861-.308,5.174,5.174,0,0,0-2.188.659A16.9,16.9,0,0,0-15.557-4.86L-16.726-6.2a25.633,25.633,0,0,0,4.28-4.992h-3.577ZM10.222-9.07a14.554,14.554,0,0,0,2.3,4.377A15.376,15.376,0,0,0,17.6-.211L16.348,1.6a16.7,16.7,0,0,1-5.326-4.983A17.668,17.668,0,0,1,9.176-6.82,13.2,13.2,0,0,1,7.022-2.54a12.937,12.937,0,0,1-5.3,4.2L.483.053A12.105,12.105,0,0,0,5.818-4.2,10.915,10.915,0,0,0,7.84-9.07H.826v-1.907H7.919v-4.236h2.03v4.236h7.242V-9.07Zm15.768-2.777v-.844h-7.11v-1.441h7.11V-15.39H27.9v1.257h7.225v1.441H27.9v.844h5.818v3.621H27.9v.879h6.231v2.32h1.459v1.389H34.128V-.483H32.221v-.738H27.9V.105a1.848,1.848,0,0,1-.29,1.169,2.012,2.012,0,0,1-1.547.439A21.228,21.228,0,0,1,23.6,1.582L23.291.018A20.578,20.578,0,0,0,25.6.158q.281,0,.343-.123a.612.612,0,0,0,.044-.264v-.993h-6.17V-2.593h6.17V-3.639H18.413V-5.027h7.576v-1H19.837V-7.348h6.152v-.879h-5.7v-3.621Zm0,1.2H22.122v1.213h3.867Zm1.907,0v1.213h3.981v-1.213Zm0,8.051h4.324V-3.639H27.9Zm0-2.435h4.324v-1H27.9ZM38.188.958a53.454,53.454,0,0,1-.334-5.941A59.36,59.36,0,0,1,38.6-14.6l1.934.2a50.227,50.227,0,0,0-.712,8.886A49.166,49.166,0,0,0,40.192.7Zm5.273-13.922h8.446v1.872H43.462ZM52.506-.123a27.677,27.677,0,0,1-4.175.272q-6.073,0-6.073-3.568a4.129,4.129,0,0,1,.756-2.47l1.661.738a2.533,2.533,0,0,0-.475,1.5,1.416,1.416,0,0,0,1.028,1.415,8.938,8.938,0,0,0,3.12.439A25.947,25.947,0,0,0,52.3-2.074Z" transform="translate(512 1046)" fill="#303030" stroke="rgba(0,0,0,0)" stroke-width="1"/>
    </g>
  </g>
</svg>
