<svg xmlns="http://www.w3.org/2000/svg" xmlns:xlink="http://www.w3.org/1999/xlink" width="319" height="330" viewBox="0 0 319 330">
  <defs>
    <radialGradient id="radial-gradient" cx="0.5" cy="1" r="0.983" gradientTransform="translate(0.517 -0.483) rotate(90)" gradientUnits="objectBoundingBox">
      <stop offset="0" stop-color="#0090d8"/>
      <stop offset="1" stop-color="#006ca2"/>
    </radialGradient>
    <filter id="Ellipse_14" x="0" y="168" width="162" height="162" filterUnits="userSpaceOnUse">
      <feOffset dy="3" input="SourceAlpha"/>
      <feGaussianBlur stdDeviation="5" result="blur"/>
      <feFlood flood-opacity="0.161"/>
      <feComposite operator="in" in2="blur"/>
      <feComposite in="SourceGraphic"/>
    </filter>
    <radialGradient id="radial-gradient-2" cx="0.5" cy="0.962" r="0.983" gradientTransform="translate(0.517 -0.483) rotate(90)" gradientUnits="objectBoundingBox">
      <stop offset="0" stop-color="#4979cd"/>
      <stop offset="1" stop-color="#3c609d"/>
    </radialGradient>
    <filter id="Ellipse_14-2" x="157" y="168" width="162" height="162" filterUnits="userSpaceOnUse">
      <feOffset dy="3" input="SourceAlpha"/>
      <feGaussianBlur stdDeviation="5" result="blur-2"/>
      <feFlood flood-opacity="0.161"/>
      <feComposite operator="in" in2="blur-2"/>
      <feComposite in="SourceGraphic"/>
    </filter>
    <radialGradient id="radial-gradient-3" cx="0.5" cy="0.916" r="0.916" gradientTransform="translate(-0.416 1.416) rotate(-90)" gradientUnits="objectBoundingBox">
      <stop offset="0" stop-color="#01bed6"/>
      <stop offset="1" stop-color="#019fb3"/>
    </radialGradient>
    <filter id="Ellipse_14-3" x="78" y="0" width="162" height="162" filterUnits="userSpaceOnUse">
      <feOffset dy="3" input="SourceAlpha"/>
      <feGaussianBlur stdDeviation="5" result="blur-3"/>
      <feFlood flood-opacity="0.161"/>
      <feComposite operator="in" in2="blur-3"/>
      <feComposite in="SourceGraphic"/>
    </filter>
    <radialGradient id="radial-gradient-4" cx="0.5" cy="0.021" r="0.791" gradientTransform="translate(0.521 -0.479) rotate(90)" gradientUnits="objectBoundingBox">
      <stop offset="0" stop-color="#f2f2f2"/>
      <stop offset="1" stop-color="#fff"/>
    </radialGradient>
    <filter id="Ellipse_15" x="59" y="82" width="200" height="200" filterUnits="userSpaceOnUse">
      <feOffset dy="10" input="SourceAlpha"/>
      <feGaussianBlur stdDeviation="10" result="blur-4"/>
      <feFlood flood-opacity="0.161"/>
      <feComposite operator="in" in2="blur-4"/>
      <feComposite in="SourceGraphic"/>
    </filter>
    <filter id="Ellipse_15-2" x="59" y="82" width="200" height="200" filterUnits="userSpaceOnUse">
      <feOffset dy="2" input="SourceAlpha"/>
      <feGaussianBlur result="blur-5"/>
      <feFlood flood-color="#fff" result="color"/>
      <feComposite operator="out" in="SourceGraphic" in2="blur-5"/>
      <feComposite operator="in" in="color"/>
      <feComposite operator="in" in2="SourceGraphic"/>
    </filter>
  </defs>
  <g id="Group_2528" data-name="Group 2528" transform="translate(-354 -645)">
    <g id="Group_2526" data-name="Group 2526">
      <g id="Group_2524" data-name="Group 2524" transform="translate(-77 -55)">
        <g transform="matrix(1, 0, 0, 1, 431, 700)" filter="url(#Ellipse_14)">
          <circle id="Ellipse_14-4" data-name="Ellipse 14" cx="66" cy="66" r="66" transform="translate(15 180)" fill="url(#radial-gradient)"/>
        </g>
        <path id="Path_20040" data-name="Path 20040" d="M-29.2-1.3A25.69,25.69,0,0,1-24.437.289L-25.6,1.617A41.494,41.494,0,0,0-30.82-.336l.867-.961h-4.484l1.008.93A24.083,24.083,0,0,1-38.5,1.7L-39.586.188A21.853,21.853,0,0,0-34.859-1.3H-37.8V-8.734h11.57V-1.3Zm-6.852-6.289v.961h8.086v-.961Zm0,2.031v.945h8.086v-.945Zm0,2.031v1.008h8.086V-3.523Zm10.93-9.609v3.711H-38.9v-3.711Zm-12.094,1.25v1.273h2.43v-1.273ZM-26.8-10.609v-1.273H-29.25v1.273Zm-6.445-1.273v1.273h2.43v-1.273Zm17.313,8.406Q-17.383.773-19.18.773q-1.281,0-2.2-1.8a10.335,10.335,0,0,1-.969-3.062,34.638,34.638,0,0,1-.32-5.219q0-1.383.1-2.969l1.836.141q-.1,1.586-.1,3.016,0,5.016.938,6.992.383.813.719.813.219,0,.547-.5a12.925,12.925,0,0,0,1.3-2.8Zm4.945,1.859a35.832,35.832,0,0,0-.977-5.328A32.473,32.473,0,0,0-13.6-11.453l1.664-.406a25.339,25.339,0,0,1,1.914,4.922,34.247,34.247,0,0,1,.852,4.891ZM.984-11.484v2.523H6.656v1.539H.984v2.156H7.6V-3.7H.984V-.18a1.463,1.463,0,0,1-.523,1.3,2.429,2.429,0,0,1-1.328.273,27.829,27.829,0,0,1-2.977-.156l-.3-1.68a23.094,23.094,0,0,0,2.727.234q.438,0,.547-.164A.8.8,0,0,0-.8-.766V-3.7H-7.6v-1.57H-.8V-7.422h-6V-8.961h6v-2.3l-.43.047q-2.234.242-4.672.375l-.672-1.453a64.9,64.9,0,0,0,11.25-1.375l.977,1.344Q3.461-11.828.984-11.484Zm18.6,9.68a14.364,14.364,0,0,0,4.2,1.719l-1.07,1.508A17.829,17.829,0,0,1,19.555.133a8.965,8.965,0,0,1-4.328-5.047H12.258V-.75q2.383-.492,4.461-1.062l.117,1.43a48.121,48.121,0,0,1-7.7,1.852L8.516-.117q.664-.086,1.953-.3v-11.6h4.563V-13.68h1.8v1.664h4.609v6.859L22.8-3.937A23.4,23.4,0,0,1,19.586-1.8Zm-1.2-.984a21.36,21.36,0,0,0,2.781-2.125h-4.18A6.939,6.939,0,0,0,18.383-2.789Zm1.273-3.453V-7.789h-7.4v1.547Zm0-2.859v-1.523h-7.4V-9.1Zm7.4-3.922H28.9v9.313q0,2.945,3.094,2.945a3.925,3.925,0,0,0,3.344-1.883A12.276,12.276,0,0,0,36.852-6.4l1.586.961a12.127,12.127,0,0,1-1.914,4.219,5.6,5.6,0,0,1-4.57,2.18q-2.938,0-4.141-1.812a5.158,5.158,0,0,1-.758-2.922Z" transform="translate(512 952)" fill="#fff" stroke="rgba(0,0,0,0)" stroke-width="1"/>
      </g>
      <g id="Group_2525" data-name="Group 2525" transform="translate(80 -55)">
        <g transform="matrix(1, 0, 0, 1, 274, 700)" filter="url(#Ellipse_14-2)">
          <circle id="Ellipse_14-5" data-name="Ellipse 14" cx="66" cy="66" r="66" transform="translate(172 180)" fill="url(#radial-gradient-2)"/>
        </g>
        <path id="Path_20041" data-name="Path 20041" d="M-29.359-9.984v-2.961h1.742v2.961h2.531v-3.7h1.758v3.7h2.75v-3.391h1.727v3.391H-16.4V-8.43h-2.453v4.977h-6.234V-8.43h-2.531v7.32h10.531V.445H-27.617V1.523h-1.742V-8.43H-31.6V-9.984Zm8.781,1.555h-2.75v3.469h2.75Zm11.742-4.758v5.766h-4.445V1.523h-1.68V-13.187Zm-4.445,1.25v1.023h2.859v-1.023Zm0,2.172v1.094h2.859V-9.766Zm12.258-3.422V-.3A1.886,1.886,0,0,1-1.336.906a1.756,1.756,0,0,1-1.406.438q-.641,0-1.5-.047L-4.531-.3a12.053,12.053,0,0,0,1.383.094q.328,0,.4-.141A.832.832,0,0,0-2.7-.687V-7.422H-7.266v-5.766Zm-4.641,1.25v1.023H-2.7v-1.023Zm0,2.172v1.094H-2.7V-9.766Zm.961,3.25V-.492H-9.867V.367h-1.555V-6.516ZM-9.867-5.281v1.1h3.594v-1.1Zm0,2.289v1.219h3.594V-2.992ZM11.586-1.8a14.364,14.364,0,0,0,4.2,1.719l-1.07,1.508A17.829,17.829,0,0,1,11.555.133,8.965,8.965,0,0,1,7.227-4.914H4.258V-.75q2.383-.492,4.461-1.062l.117,1.43a48.121,48.121,0,0,1-7.7,1.852L.516-.117Q1.18-.2,2.469-.414v-11.6H7.031V-13.68h1.8v1.664h4.609v6.859L14.8-3.937A23.4,23.4,0,0,1,11.586-1.8Zm-1.2-.984a21.36,21.36,0,0,0,2.781-2.125H8.984A6.939,6.939,0,0,0,10.383-2.789Zm1.273-3.453V-7.789h-7.4v1.547Zm0-2.859v-1.523h-7.4V-9.1Zm7.4-3.922H20.9v9.313q0,2.945,3.094,2.945a3.925,3.925,0,0,0,3.344-1.883A12.276,12.276,0,0,0,28.852-6.4l1.586.961a12.127,12.127,0,0,1-1.914,4.219,5.6,5.6,0,0,1-4.57,2.18q-2.938,0-4.141-1.812a5.158,5.158,0,0,1-.758-2.922Z" transform="translate(512 952)" fill="#fff" stroke="rgba(0,0,0,0)" stroke-width="1"/>
      </g>
    </g>
    <g id="Group_2527" data-name="Group 2527">
      <g id="Group_2518" data-name="Group 2518" transform="translate(1 -223)">
        <g transform="matrix(1, 0, 0, 1, 353, 868)" filter="url(#Ellipse_14-3)">
          <circle id="Ellipse_14-6" data-name="Ellipse 14" cx="66" cy="66" r="66" transform="translate(93 12)" fill="url(#radial-gradient-3)"/>
        </g>
        <path id="Path_20038" data-name="Path 20038" d="M-32.914-12.227V-13.68H-31.2v1.453h6.711v1.375H-31.2V-9.6h5.664v1.359H-38.227V-9.6h5.313v-1.25h-6.6v-1.375Zm8.031,5.219V-3.68h-1.727v-2H-37.391v2.094h-1.727V-7.008ZM-39.7.07q2.844-.258,3.93-1.523a3.472,3.472,0,0,0,.75-1.664,12.683,12.683,0,0,0,.148-1.711h1.75a9.841,9.841,0,0,1-.445,3.242,4.144,4.144,0,0,1-1.8,2.1,10.335,10.335,0,0,1-3.4,1.086Zm8.547-4.953h1.758V-.9q0,.422.211.508a3.648,3.648,0,0,0,1.125.117,4.056,4.056,0,0,0,1.266-.117.7.7,0,0,0,.352-.555,10.459,10.459,0,0,0,.125-1.391l.008-.273,1.727.477A5.779,5.779,0,0,1-25.109.8a1.522,1.522,0,0,1-1.148.461q-1.031.062-2.273.063a5.738,5.738,0,0,1-2.047-.227,1.222,1.222,0,0,1-.57-1.219Zm14.383-1.633a8,8,0,0,1-1.6,2.2,2.028,2.028,0,0,1-1.289.633q-.75,0-1.211-1.016a8.639,8.639,0,0,1-.477-3.328,25.394,25.394,0,0,1,.531-4.945l1.711.258a23.972,23.972,0,0,0-.516,4.469q0,2.461.352,2.461.133,0,.453-.375A7.97,7.97,0,0,0-17.758-7.82ZM-17.953-.4a7.513,7.513,0,0,0,3.617-2.008,7.113,7.113,0,0,0,1.492-4.937,37.12,37.12,0,0,0-.484-5.633l1.789-.172a36.622,36.622,0,0,1,.516,5.883q0,4.422-2.273,6.367A11.026,11.026,0,0,1-17.023,1.07ZM.984-11.484v2.523H6.656v1.539H.984v2.156H7.6V-3.7H.984V-.18a1.463,1.463,0,0,1-.523,1.3,2.429,2.429,0,0,1-1.328.273,27.829,27.829,0,0,1-2.977-.156l-.3-1.68a23.094,23.094,0,0,0,2.727.234q.438,0,.547-.164A.8.8,0,0,0-.8-.766V-3.7H-7.6v-1.57H-.8V-7.422h-6V-8.961h6v-2.3l-.43.047q-2.234.242-4.672.375l-.672-1.453a64.9,64.9,0,0,0,11.25-1.375l.977,1.344Q3.461-11.828.984-11.484Zm18.6,9.68a14.364,14.364,0,0,0,4.2,1.719l-1.07,1.508A17.829,17.829,0,0,1,19.555.133a8.965,8.965,0,0,1-4.328-5.047H12.258V-.75q2.383-.492,4.461-1.062l.117,1.43a48.121,48.121,0,0,1-7.7,1.852L8.516-.117q.664-.086,1.953-.3v-11.6h4.563V-13.68h1.8v1.664h4.609v6.859L22.8-3.937A23.4,23.4,0,0,1,19.586-1.8Zm-1.2-.984a21.36,21.36,0,0,0,2.781-2.125h-4.18A6.939,6.939,0,0,0,18.383-2.789Zm1.273-3.453V-7.789h-7.4v1.547Zm0-2.859v-1.523h-7.4V-9.1Zm7.4-3.922H28.9v9.313q0,2.945,3.094,2.945a3.925,3.925,0,0,0,3.344-1.883A12.276,12.276,0,0,0,36.852-6.4l1.586.961a12.127,12.127,0,0,1-1.914,4.219,5.6,5.6,0,0,1-4.57,2.18q-2.938,0-4.141-1.812a5.158,5.158,0,0,1-.758-2.922Z" transform="translate(512 952)" fill="#fff" stroke="rgba(0,0,0,0)" stroke-width="1"/>
      </g>
      <g id="Group_2521" data-name="Group 2521" transform="translate(1 -222)">
        <g data-type="innerShadowGroup">
          <g transform="matrix(1, 0, 0, 1, 353, 867)" filter="url(#Ellipse_15)">
            <circle id="Ellipse_15-3" data-name="Ellipse 15" cx="70" cy="70" r="70" transform="translate(89 102)" fill="url(#radial-gradient-4)"/>
          </g>
          <g transform="matrix(1, 0, 0, 1, 353, 867)" filter="url(#Ellipse_15-2)">
            <circle id="Ellipse_15-4" data-name="Ellipse 15" cx="70" cy="70" r="70" transform="translate(89 102)" fill="#fff"/>
          </g>
        </g>
        <g id="Group_2585" data-name="Group 2585">
          <path id="Path_20039" data-name="Path 20039" d="M-37.939-15.3H-22.08v2.08H-37.939Zm1.1,6.445h13.672v2.021H-36.836ZM-39.2-1.885h18.4V.2H-39.2Zm28.682-9.951q-.068,1.631-.2,2.871h7.871q-.146,6.777-.762,8.8A2.148,2.148,0,0,1-4.766,1.24a4.862,4.862,0,0,1-1.943.3,25.933,25.933,0,0,1-3.057-.205l-.381-2.2a27.106,27.106,0,0,0,3.232.322q.791,0,1.006-.449.518-1.094.723-6.035H-11A13.077,13.077,0,0,1-11.9-3.975,12.181,12.181,0,0,1-17.354,1.68L-18.9-.039a10,10,0,0,0,5.059-5.225,23.356,23.356,0,0,0,1.064-6.572h-6.465v-2h7.979V-17.1H-9v3.262H-.762v2Zm25,9.58A17.955,17.955,0,0,0,19.727-.107L18.389,1.777A22.286,22.286,0,0,1,14.443.166a11.206,11.206,0,0,1-5.41-6.309H5.322V-.937Q8.3-1.553,10.9-2.266l.146,1.787A60.151,60.151,0,0,1,1.426,1.836L.645-.146q.83-.107,2.441-.371v-14.5h5.7V-17.1h2.256v2.08h5.762v8.574l1.7,1.523A29.253,29.253,0,0,1,14.482-2.256Zm-1.5-1.23a26.7,26.7,0,0,0,3.477-2.656H11.23A8.674,8.674,0,0,0,12.979-3.486ZM14.57-7.8V-9.736H5.322V-7.8Zm0-3.574v-1.9H5.322v1.9Zm9.248-4.9h2.3V-4.639q0,3.682,3.867,3.682a4.907,4.907,0,0,0,4.18-2.354A15.345,15.345,0,0,0,36.064-8l1.982,1.2a15.159,15.159,0,0,1-2.393,5.273A7,7,0,0,1,29.941,1.2q-3.672,0-5.176-2.266a6.447,6.447,0,0,1-.947-3.652Z" transform="translate(512 1047)" fill="#303030" stroke="rgba(0,0,0,0)" stroke-width="1"/>
        </g>
      </g>
    </g>
  </g>
</svg>
