<svg xmlns="http://www.w3.org/2000/svg" width="459.605" height="214.921" viewBox="0 0 459.605 214.921">
  <g id="Group_2535" data-name="Group 2535" transform="translate(-50.182 -53.513)">
    <g id="Group_1866" data-name="Group 1866" transform="translate(50.182 53.513)">
      <path id="Path_15698" data-name="Path 15698" d="M225.8,98.11l3.372-7.9.078-.189a2.047,2.047,0,0,0-.879-2.581l-6.25-3.513a2.138,2.138,0,0,1-.289-.2,2.016,2.016,0,0,1-.662-2.111,35.752,35.752,0,0,0,1.093-14.1,2.261,2.261,0,0,1,.016-.576,2.078,2.078,0,0,1,1.295-1.582l5.6-2.107a2.084,2.084,0,0,0,1.312-1.716,2.262,2.262,0,0,0-.055-.719l-2.191-8.49A2.093,2.093,0,0,0,225.86,50.8l-7.848,1.332a2.018,2.018,0,0,1-2-.842c-.66-.922-1.349-1.818-2.1-2.689a35.76,35.76,0,0,0-4.532-4.415l-.006-.008a2.056,2.056,0,0,1-.666-2.255l2.525-7.68.123-.387a2.015,2.015,0,0,0-1.123-2.492l-8.072-3.45a2.111,2.111,0,0,0-2.656.9L195.6,35.77a2.042,2.042,0,0,1-2.175,1.011,35.858,35.858,0,0,0-11.06-.316,2.053,2.053,0,0,1-2.165-1.316l-2.511-6.633a2.091,2.091,0,0,0-2.484-1.285l-8.525,2.2a2,2,0,0,0-1.468,2.267l1.55,9.228a2.093,2.093,0,0,1-.83,2.042q-1.192.861-2.324,1.835a36.163,36.163,0,0,0-3.905,3.907,1.987,1.987,0,0,1-2.165.613l-9.226-3.046a2.058,2.058,0,0,0-2.531,1.142l-3.466,8.1a2.067,2.067,0,0,0,.633,2.419,1.392,1.392,0,0,0,.248.162l7.715,4.345a2.03,2.03,0,0,1,1.045,2,1,1,0,0,1-.029.213,6.113,6.113,0,0,0-.113.633A35.768,35.768,0,0,0,151.2,72.9a1.983,1.983,0,0,1-1.314,1.935l-7,2.656a2.086,2.086,0,0,0-1.275,2.478l.484,1.888,1.709,6.586a2.056,2.056,0,0,0,2.335,1.517l7.732-1.312a1.986,1.986,0,0,1,2.06.978,36.031,36.031,0,0,0,3.89,5.475,35.42,35.42,0,0,0,3.542,3.575l-.533,1.611-2.171,6.612a1.986,1.986,0,0,0,.67,2.212,1.784,1.784,0,0,0,.455.266l8.119,3.487a2.067,2.067,0,0,0,2.589-.885l2.665-4.759a2.052,2.052,0,0,1,2.3-.97,36.038,36.038,0,0,0,11.282,1.211,1.987,1.987,0,0,1,2,1.3l3.173,8.383a1.976,1.976,0,0,0,2.337,1.207l8.617-2.232a2,2,0,0,0,1.484-2.281l-1.619-9.6a2.037,2.037,0,0,1,.951-2.091,34.745,34.745,0,0,0,4.427-3.255q1.145-.984,2.187-2.04a2.063,2.063,0,0,1,2.091-.512l8.847,2.917A2.084,2.084,0,0,0,225.8,98.11m-23-37.045c3.985,5.844,4.472,12.454,2.281,17.527-7.713,17.769-31.636,16.178-37.059-2.134a17.806,17.806,0,0,1,2.63-15.059,19.3,19.3,0,0,1,32.148-.334" transform="translate(85.097 -27.163)" fill="#dfedfb"/>
      <path id="Path_15699" data-name="Path 15699" d="M199.436,185.688l7.738-13.272.184-.318a3.663,3.663,0,0,0-.988-4.778l-10.316-7.627a3.676,3.676,0,0,1-.469-.41,3.605,3.605,0,0,1-.707-3.9,64,64,0,0,0,5.075-24.794,3.982,3.982,0,0,1,.154-1.019,3.724,3.724,0,0,1,2.65-2.521l10.411-2.5a3.722,3.722,0,0,0,2.71-2.757,4.019,4.019,0,0,0,.064-1.287l-2.005-15.561a3.742,3.742,0,0,0-3.88-3.253l-14.231.621a3.617,3.617,0,0,1-3.36-1.941c-.965-1.783-1.988-3.524-3.124-5.237a63.834,63.834,0,0,0-7.065-8.845l-.01-.016a3.688,3.688,0,0,1-.681-4.153l6.19-13.073.3-.66a3.606,3.606,0,0,0-1.441-4.675L173.077,55.8a3.775,3.775,0,0,0-4.917,1.011l-8.492,11.479a3.647,3.647,0,0,1-4.083,1.312,64.212,64.212,0,0,0-19.569-3.019,3.674,3.674,0,0,1-3.55-2.818l-2.986-12.337a3.737,3.737,0,0,0-4.124-2.829L109.73,50.609a3.575,3.575,0,0,0-3.111,3.7l.7,16.728a3.749,3.749,0,0,1-1.929,3.441q-2.305,1.265-4.532,2.743a65,65,0,0,0-7.8,6.069,3.556,3.556,0,0,1-3.981.611l-15.7-7.459a3.679,3.679,0,0,0-4.745,1.466l-7.953,13.61a3.7,3.7,0,0,0,.586,4.434,2.467,2.467,0,0,0,.4.344L74.4,105.724a3.636,3.636,0,0,1,1.414,3.776,1.955,1.955,0,0,1-.1.373,10.729,10.729,0,0,0-.342,1.1,63.914,63.914,0,0,0-2.777,13.385,3.547,3.547,0,0,1-2.761,3.14L56.8,130.659a3.729,3.729,0,0,0-2.814,4.114l.439,3.462L56,150.308a3.68,3.68,0,0,0,3.81,3.212l14.02-.611a3.555,3.555,0,0,1,3.441,2.193,64.569,64.569,0,0,0,5.688,10.587,63.834,63.834,0,0,0,5.495,7.135l-1.3,2.741-5.323,11.255a3.551,3.551,0,0,0,.7,4.077,3.242,3.242,0,0,0,.75.572l13.641,8a3.7,3.7,0,0,0,4.794-1l5.79-7.855a3.666,3.666,0,0,1,4.3-1.215,64.445,64.445,0,0,0,19.763,4.659,3.552,3.552,0,0,1,3.261,2.747l3.771,15.59a3.54,3.54,0,0,0,3.882,2.663l15.793-2.05a3.577,3.577,0,0,0,3.142-3.72l-.738-17.4a3.646,3.646,0,0,1,2.152-3.5,61.873,61.873,0,0,0,8.582-4.8q2.249-1.491,4.335-3.136a3.694,3.694,0,0,1,3.831-.445l15.059,7.145a3.732,3.732,0,0,0,4.811-1.466m-32.6-70.884a39.543,39.543,0,0,1,3.942,12.858,22.529,22.529,0,0,1,.184,3.368c-.107,5.2-1.671,11.5-3.972,15.4-17.642,29.832-59.766,21.694-65.321-12.024-.084-.555-.17-1.109-.238-1.675-.678-5.268.992-13.379,3.64-17.974a42.945,42.945,0,0,1,4.612-6.5,34.526,34.526,0,0,1,57.153,6.551" transform="translate(1.662 -6.769)" fill="#d6e8fc"/>
      <path id="Path_15700" data-name="Path 15700" d="M40.323,140.014a19.938,19.938,0,0,0-1.365-5.11c-.953-1.906-7.016-.693-7.016-.693s-1.213,1.039-1.472,5.889Z" transform="translate(-20.712 74.451)" fill="#233862"/>
      <path id="Path_15701" data-name="Path 15701" d="M46.507,141.919c-1.425-.869-.613-7.358-.613-7.358s6.637-5.309,7.551-1.244,6.307,5.891,9.377,6.389c2.119.344,2.775,1.519,2.978,2.212Z" transform="translate(-6.238 72.502)" fill="#233862"/>
      <path id="Path_15702" data-name="Path 15702" d="M43.814,136.968a31.187,31.187,0,0,1,.488,3.585c.617,12.038,10.132,39.56,11.833,40.2,2.634.994,6.781-1.119,8.951-1.81a1.86,1.86,0,0,0,1.306-2.113c-4.712-21.664-6.444-52.858-7.074-71.328A83.773,83.773,0,0,0,57.4,89.777S34.2,83.586,34.057,91.419c-.121,6.932,7.687,34.114,9.757,45.549" transform="translate(-17.296 30.272)" fill="#213f7a"/>
      <path id="Path_15703" data-name="Path 15703" d="M43.814,136.968l15.5-31.463A83.773,83.773,0,0,0,57.4,89.777S34.2,83.586,34.057,91.419c-.121,6.932,7.687,34.114,9.757,45.549" transform="translate(-17.296 30.272)" fill="#233862"/>
      <path id="Path_15704" data-name="Path 15704" d="M54.4,90.878,42.131,179.8s-5.387,1.3-9.578.26c0,0-3.593-47.293-3.294-58.725s-2.577-30.594.658-32.706S54.4,90.878,54.4,90.878" transform="translate(-22.716 30.838)" fill="#213f7a"/>
      <path id="Path_15705" data-name="Path 15705" d="M27.937,115.291a1.7,1.7,0,0,0,1.228,1.759c1.712.5,3.685.842,7.49,1.63a72.6,72.6,0,0,0,14.291,1.435c9.4.061,12.956-3.179,12.956-3.179.406.008-.213-1.958-.771-11.312-.187-3.167-.371-7.182-.5-12.259-.119-4.565-.2-9.99-.205-16.427-.012-7.74-12-16.07-12.216-16.07l0,0c0,1.115-1.757,3.171-4.464,3.349-3.212.211-7.152-1.388-7.152-3.237,0-.02-5.805,9.287-7.867,19.2-.262,1.257-.465,2.583-.627,3.979-.488,4.206-.016,1.2-2.16,31.123" transform="translate(-23.129 4.946)" fill="#28a1de"/>
      <path id="Path_15706" data-name="Path 15706" d="M39.341,60.869s11.144-.094,13.825,3.667S61.728,88.53,58.66,95.263s-8.81-2.784-12-6.908-7.322-27.485-7.322-27.485" transform="translate(-12.261 4.946)" fill="#28a1de"/>
      <path id="Path_15707" data-name="Path 15707" d="M45.132,63.24l-.006,1.152s.312,3.6-4.122,4.128-7.74-.662-7.619-3.441a40.207,40.207,0,0,0,.81-6.155,12.692,12.692,0,0,0-.158-2.158l8.6-.172,2.533.414Z" transform="translate(-17.938 0.874)" fill="#f9dac5"/>
      <path id="Path_15708" data-name="Path 15708" d="M44.845,57.009l-.033,6.231a7.248,7.248,0,0,1-3.1.683c-3.95,0-6.5-2.9-7.838-5a12.5,12.5,0,0,0-.158-2.158l8.6-.172Z" transform="translate(-17.618 0.874)" fill="#e8c5ac"/>
      <path id="Path_15709" data-name="Path 15709" d="M34.065,62.569c1,5.368,7.924,5.192,10.915,4.854.844-.094,1.373-.2,1.373-.2.951-.254,1.48-1.75,1.726-3.71.488-3.878-.129-9.57-.783-11.026-.986-2.191-2.843-4.559-9.818-2.851s-4.692,6.057-3.413,12.934" transform="translate(-18.625 -6.313)" fill="#f9dac5"/>
      <path id="Path_15710" data-name="Path 15710" d="M45.906,68.591s4.309,9.517,4.184,12.37a14.892,14.892,0,0,0-4.184.539c-3.368,1,0-12.909,0-12.909" transform="translate(-7.433 12.302)" fill="#1282af"/>
      <path id="Path_15711" data-name="Path 15711" d="M50.919,49.33a23.1,23.1,0,0,1-6.692-1.81c-2.939-1.279-6.647.129-7.85.763a1.78,1.78,0,0,1,.293-.724,1.607,1.607,0,0,0-.619.92c-.057.041-.082.068-.066.078a2.065,2.065,0,0,0-1.008.064s.277-.039.375.139a.173.173,0,0,0,.045.049c-4.585,2.214-5.008,9.46-3.534,11.136a56.867,56.867,0,0,1,4.405,6.506,6.959,6.959,0,0,0-.047-2.794c-.324-1.775,1.209-1.775,3.146-2.581s.322-3.066,2.017-4.438,7.906-.564,7.826-1.613c2.306-.84,1.709-5.458,1.709-5.694" transform="translate(-20.107 -8.265)" fill="#233862"/>
      <path id="Path_15712" data-name="Path 15712" d="M32.66,77.922C34.48,85.229,54.155,89,58.628,89.771c-.189-3.167-.371-7.184-.5-12.259Z" transform="translate(-18.625 20.8)" fill="#1282af"/>
      <path id="Path_15713" data-name="Path 15713" d="M38.682,82.694a34.675,34.675,0,0,1-5.124-1c-.75-.375-4.179-5.249-1.933-6.5S39.9,78.945,39.9,78.945Z" transform="translate(-20.328 18.403)" fill="#f9dac5"/>
      <path id="Path_15714" data-name="Path 15714" d="M61.116,83.948s-16.191.879-27.058-1.449a4.667,4.667,0,0,1,3.14-4.532s16.937-3.591,21-2.591,2.913,8.572,2.913,8.572" transform="translate(-17.298 18.598)" fill="#28a1de"/>
      <path id="Path_15715" data-name="Path 15715" d="M32.1,84.837c3.36,4.052,7.754,7.359,12.6,8.135v0a9.016,9.016,0,0,0,1.2-5.407A10.8,10.8,0,0,0,44.137,82.6a10.99,10.99,0,0,1-.953-1.919c-2.644-6.748-2.249-19.753-2.249-19.753S29.7,62.1,26.206,67.1c-2.144,3.062.59,11.327,5.9,17.734" transform="translate(-25.472 5.001)" fill="#28a1de"/>
      <path id="Path_15716" data-name="Path 15716" d="M38.973,60.368c.842-.094,1.373-.2,1.373-.2.949-.254,1.48-1.75,1.726-3.71a4.694,4.694,0,0,0-2.937,2.4,3.444,3.444,0,0,0-.162,1.509" transform="translate(-12.618 0.743)" fill="#e8c5ac"/>
      <path id="Path_15717" data-name="Path 15717" d="M43.224,63.286s3.878-6.4.863-6.678a4.562,4.562,0,0,0-4.665,2.513c-.435.75.115,4.132.115,4.132Z" transform="translate(-12.344 0.862)" fill="#f9dac5"/>
      <path id="Path_15718" data-name="Path 15718" d="M33.725,88.773a8.357,8.357,0,0,0,.662,2.222,10.645,10.645,0,0,0,2.468,3.4l0,0c10.072-4.546,12.11-20.159,12.452-28.737.137-3.448,0-5.76,0-5.76-4.544-1.5-5.821,1.111-5.821,1.111S38.123,73.767,35.34,82.1c-1.064,3.191-1.752,5.735-1.615,6.668" transform="translate(-17.627 3.576)" fill="#28a1de"/>
      <path id="Path_15719" data-name="Path 15719" d="M28.869,83.224c3.36,4.052,7.754,7.359,12.6,8.135v0C51.539,86.811,53.578,71.2,53.917,62.62c0,0-4.766,17.287-11.253,23.33A7.08,7.08,0,0,1,39,87.957s-8.182-2.312-9.9-4.489c-.123-.156-.2-.234-.23-.244" transform="translate(-22.237 6.614)" fill="#1282af"/>
      <path id="Path_15720" data-name="Path 15720" d="M244.995,126.934s-4.926-5.747-.3-9.4c0,0,3.378-2.044,6.131-1.878,0,0-3.9,6.541-2.64,7.193s3.821-7.6,3.821-7.6,7.684-.746,10.156.443c0,0-6.569,5.376-5.184,5.7s8.478-4.956,8.478-4.956,7.151,1.216,6.77,5.579-2.845,5.71-3.929,5.594-7.418-2.535-7.557-1.648,3.675,3.788,6.346,3.923c0,0-5.042,5.561-8.392,3.956s-3.638-4.147-5.725-5.1-3.872-.951-3.011.021,4.643,1.919,5.838,4.032,2.265,3.538-1.2,3.017-9.1-3.06-9.349-5.963Z" transform="translate(181.476 56.528)" fill="#c8dbf4"/>
      <path id="Path_15721" data-name="Path 15721" d="M269.7,118.675s-19.425-.748-23.713,4.807a14.052,14.052,0,0,1-3.868,5.428l-.455,1.24s3.366-3.55,4.569-3.765c0,0-1.882-6.881,23.467-7.711" transform="translate(180.481 59.982)" fill="#c8dbf4"/>
      <path id="Path_15722" data-name="Path 15722" d="M244.076,124.139a12.194,12.194,0,0,0-4.458,8.592l.756.068s1.332-5.7,3.739-7.924-.037-.736-.037-.736" transform="translate(178.529 64.752)" fill="#c8dbf4"/>
      <path id="Path_15723" data-name="Path 15723" d="M249.086,127.319s7.834-4.389,4.179-10.345c0,0-2.927-3.655-6.061-4.6,0,0,1.671,8.881,0,9.089s-1.15-10.031-1.15-10.031-8.254-3.97-11.493-3.657c0,0,5.12,8.674,3.448,8.465s-7.418-8.986-7.418-8.986-8.463-1.568-9.824,3.448.836,7.522,2.093,7.836,9.3.209,9.089,1.254-5.643,2.716-8.674,1.777c0,0,3.343,8.254,7.732,7.836s5.747-3.134,8.463-3.343,4.7.521,3.343,1.254-5.956.24-8.15,2.1-3.97,3.015.105,3.851,11.392.314,12.852-2.822Z" transform="translate(160.163 48.916)" fill="#c8dbf4"/>
      <path id="Path_15724" data-name="Path 15724" d="M222.539,109.713s21.942,7.106,24.451,15.047a16.655,16.655,0,0,0,2.089,7.627v1.568s-2.3-5.331-3.554-6.061c0,0,4.911-6.9-22.986-18.181" transform="translate(162.259 51.476)" fill="#c8dbf4"/>
      <path id="Path_15725" data-name="Path 15725" d="M236.642,121.8a14.473,14.473,0,0,1,1.455,11.394l-.871-.234s.846-6.889-.926-10.355.342-.8.342-.8" transform="translate(174.695 62.062)" fill="#c8dbf4"/>
      <path id="Path_15726" data-name="Path 15726" d="M244.758,127.37s-10.329-5.786-5.51-13.635c0,0,3.858-4.821,7.99-6.061,0,0-2.2,11.708,0,11.983s1.515-13.223,1.515-13.223,10.88-5.233,15.15-4.819c0,0-6.75,11.431-4.546,11.155s9.779-11.845,9.779-11.845,11.157-2.066,12.948,4.546-1.1,9.915-2.755,10.329-12.259.275-11.983,1.652,7.438,3.581,11.433,2.343c0,0-4.407,10.88-10.193,10.329s-7.576-4.132-11.157-4.407-6.2.687-4.407,1.652,7.852.316,10.743,2.775,5.235,3.974-.137,5.077-15.014.412-16.943-3.72Z" transform="translate(176.956 42.813)" fill="#d4e4f8"/>
      <path id="Path_15727" data-name="Path 15727" d="M275.018,104.162s-28.924,9.367-32.23,19.833a21.971,21.971,0,0,1-2.753,10.056v2.066s3.029-7.026,4.682-7.988c0,0-6.473-9.091,30.3-23.967" transform="translate(178.926 46.188)" fill="#d4e4f8"/>
      <path id="Path_15728" data-name="Path 15728" d="M241.353,120.1a19.081,19.081,0,0,0-1.917,15.02l1.148-.309s-1.115-9.082,1.218-13.649-.449-1.062-.449-1.062" transform="translate(177.608 60.141)" fill="#d4e4f8"/>
      <path id="Path_15729" data-name="Path 15729" d="M251.139,146.189a20.236,20.236,0,0,0,20.235-20.235H230.9a20.236,20.236,0,0,0,20.235,20.235" transform="translate(170.227 66.948)" fill="#d4e4f8"/>
      <path id="Path_15730" data-name="Path 15730" d="M271.79,138.061H230.761a2.5,2.5,0,0,1,2.5-2.5h36.036a2.5,2.5,0,0,1,2.5,2.5" transform="translate(170.091 76.104)" fill="#d4e4f8"/>
      <rect id="Rectangle_847" data-name="Rectangle 847" width="41.595" height="0.621" transform="translate(400.467 192.902)" fill="#9fc1f4"/>
      <path id="Path_15731" data-name="Path 15731" d="M216.8,57.277a6.791,6.791,0,0,0-5.366-.574c-9.113-1.07-11.772,9.558-11.647,13.215s.541,7.584-3.53,12.335c-11.755,13.725,12.866,14.33,12.866,14.33.209-10.966,13.352-6.965,12.776-5.854,16.849,4.044,1.675-29.938-5.1-33.452" transform="translate(134.192 0.69)" fill="#163560"/>
      <path id="Path_15732" data-name="Path 15732" d="M191.926,81.674s-1.6-2.441-2.894-2.488-3.685-.719-3.493-.24,1.675.527,1.818.814-2.2.717-2.87.765-2.247,0-2.2.334,2.847,1.722,4.819,1.531a13.4,13.4,0,0,1,4.415.574Z" transform="translate(123.911 22.004)" fill="#f9dac5"/>
      <path id="Path_15733" data-name="Path 15733" d="M210.875,90.169a24.11,24.11,0,0,1-2.451,3.708c-1.906,2.384-4.841,5.139-8.529,5.684a9.149,9.149,0,0,1-5.065-.822l-.006,0c-4.477-1.988-7.846-6.559-7.846-6.559a3.684,3.684,0,0,1,.5-3.612s9.043,2.035,9.9,1.6,5.885-14.9,7.08-16.72,5.272-2.763,5.272-2.763Z" transform="translate(128.14 14.298)" fill="#fffbf8"/>
      <path id="Path_15734" data-name="Path 15734" d="M204.469,84.9c-1.9,2.386-4.841,5.141-8.527,5.684a9.158,9.158,0,0,1-5.067-.822c.176.023,4.647.576,6.43-2.613,1.818-3.255,3.784-8.422,6.485-6.7,1.166.744,1.115,2.591.68,4.45" transform="translate(132.095 23.273)" fill="#ede5df"/>
      <path id="Path_15735" data-name="Path 15735" d="M221.244,131.23s2.759,2.517,2.22,4.308-3.027,2.982-3.364,5.167-1.681,3.38-2.894,3.38h-5.774s-.892-1.539,1.261-2,2.966-3.034,2.831-5.419a42.1,42.1,0,0,1,.2-5.567l4.577-1.06Z" transform="translate(151.504 70.837)" fill="#233862"/>
      <path id="Path_15736" data-name="Path 15736" d="M212.079,131.195s.992,10.667-.219,11.263l-15.5-.031s0-1.789,2.49-2.187,6.865-1.855,7.606-5.1,5.625-3.942,5.625-3.942" transform="translate(137.318 71.94)" fill="#233862"/>
      <path id="Path_15737" data-name="Path 15737" d="M222.791,117.181c-3.191-7.154-5.141-9.207-4.768-11.427.277-1.654-.846-30.812-.846-30.812-.379-.117-1.136-.223-1.552-.312a3.9,3.9,0,0,1-2.841-2.472,19.858,19.858,0,0,1-.965-6.58l-.41.08-6.869,1.361s.156,2.163.16,4.2v.053a3.952,3.952,0,0,1-2.851,3.821l-1.623.465a63,63,0,0,0-3.005,14.6c-.482,7.4,4.587,10.614-.039,25.4-4.721,15.1,27.37,5.577,25.609,1.625" transform="translate(137.651 9.431)" fill="#f9dac5"/>
      <path id="Path_15738" data-name="Path 15738" d="M200.719,66.979s.156,2.162.16,4.2c3.845-.107,5.877-3.614,6.711-5.559Z" transform="translate(141.472 9.47)" fill="#e8c5ac"/>
      <path id="Path_15739" data-name="Path 15739" d="M201.539,74.791s9.1.15,9.1-5.516,1.183-9.462-4.624-9.8-6.938,1.826-7.4,3.716.555,11.413,2.921,11.6" transform="translate(139.367 3.587)" fill="#f9dac5"/>
      <path id="Path_15740" data-name="Path 15740" d="M200.234,59.951s2.49,6.647,6.313,7.631,5.481-.041,5.481-.041a10.828,10.828,0,0,1-3.542-6.395s-6.373-4.358-8.252-1.2" transform="translate(141.01 2.974)" fill="#163560"/>
      <path id="Path_15741" data-name="Path 15741" d="M202.8,60.194a5.648,5.648,0,0,0-2.607,2.037,9.159,9.159,0,0,0-1.23,5.2s-1.876-4.518.232-7.074c2.236-2.71,3.6-.164,3.6-.164" transform="translate(139.064 3.27)" fill="#163560"/>
      <path id="Path_15742" data-name="Path 15742" d="M202.677,65.658a2.282,2.282,0,0,1-1.884.765,1.666,1.666,0,0,1-1.4-.924,6.109,6.109,0,0,1,3.284.158" transform="translate(140.209 9.206)" fill="#ebf3fa"/>
      <path id="Path_15743" data-name="Path 15743" d="M224.18,83.272a61.891,61.891,0,0,1,0,7.164c-.154,2.591-2.775,6.061-3.146,6.918-.933,2.154-1.986,2.5-1.986,2.5l-8.139,2-2.861.7-9.025-2.7s-4.11-11.472-2.46-17.931a49.6,49.6,0,0,1,4.173-10.943s7.363,7.211,16.953-.611Z" transform="translate(137.142 14)" fill="#fffbf8"/>
      <path id="Path_15744" data-name="Path 15744" d="M216.332,82.468a25.428,25.428,0,0,1-.763,5.862c-.933,2.152-1.986,2.5-1.986,2.5l-8.139,1.994-3.534-1.039S213.71,90,212.4,79.848Z" transform="translate(142.607 23.026)" fill="#ede5df"/>
      <path id="Path_15745" data-name="Path 15745" d="M200.251,86.365s-4.47,13.91-4.757,18.65,8.543,67.278,8.9,69.461c.336,2.056,2.89,3.368,2.89,3.368a3.861,3.861,0,0,0,2.851.219,7.033,7.033,0,0,0,3.062-1.443s3.48-44.606,1.326-60.539a252.479,252.479,0,0,1-2.177-29.715Z" transform="translate(136.489 29.234)" fill="#1282af"/>
      <path id="Path_15746" data-name="Path 15746" d="M216.144,86.153s6.817,9.146,7.453,15.33,1,27.9,2.351,33.931,6.328,17.626,6.328,36.428a3.752,3.752,0,0,1-2.115,1.652,17.241,17.241,0,0,1-1.859.514,2.918,2.918,0,0,1-3.267-1.552c-3.364-6.772-14.078-28.612-14.627-33.144-.389-3.208-3.77-24.443-11.149-36.9-1.771-2.991,1.088-14.887,1.088-14.887Z" transform="translate(139.53 29.032)" fill="#28a1de"/>
      <path id="Path_15747" data-name="Path 15747" d="M202.519,65.788s-.158.668-1.818.564c0,0-1.4-.086-1.353-.82a4.493,4.493,0,0,1,3.171.256" transform="translate(140.166 9.225)" fill="#fff"/>
      <path id="Path_15748" data-name="Path 15748" d="M197.685,85.266a9.369,9.369,0,0,0,5.358,1.492c4.257.086,14.807-1.086,14.807-1.086a8.709,8.709,0,0,1,.449,2.693s-12.883,3.249-20.348.474a4.721,4.721,0,0,1-.266-3.573" transform="translate(138.34 28.187)" fill="#233862"/>
      <path id="Path_15749" data-name="Path 15749" d="M200.73,90.053a2.215,2.215,0,1,1,1.943-2.2,2.084,2.084,0,0,1-1.943,2.2m0-3.753a1.579,1.579,0,1,0,1.3,1.554,1.445,1.445,0,0,0-1.3-1.554" transform="translate(139.632 28.559)" fill="#fff"/>
      <rect id="Rectangle_848" data-name="Rectangle 848" width="17.503" height="23.959" transform="matrix(0.754, -0.657, 0.657, 0.754, 341.126, 109.393)" fill="#2b478b"/>
      <path id="Path_15750" data-name="Path 15750" d="M208.715,86.576s-4.837.566-4.821,1.714,1.2,3.5,1.8,3.61,3.936-3.189,3.936-3.189Z" transform="translate(144.497 29.435)" fill="#f9dac5"/>
      <path id="Path_15751" data-name="Path 15751" d="M208.62,70.373s6.457.453,8.931,6.469,7.172,16.121,7.172,17.82-2.622,6.94-16.711,9.951c0,0-1.459-1.533-1.371-2.745,0,0,8.795-7.553,8.771-8.435-.045-1.671-1.441-3.876-9.162-11.6-2.1-2.1,2.368-11.46,2.368-11.46" transform="translate(146.208 14)" fill="#fffbf8"/>
      <path id="Path_15752" data-name="Path 15752" d="M246.646,52.533,250.5,65.992a1.734,1.734,0,0,1-1.189,2.142l-23.373,6.688a1.738,1.738,0,0,1-2.14-1.189l-3.849-13.454a1.731,1.731,0,0,1,1.187-2.142l23.373-6.688a1.734,1.734,0,0,1,2.14,1.183" transform="translate(159.724 -4.186)" fill="#cde0fb"/>
      <path id="Path_15753" data-name="Path 15753" d="M248.526,60.716a1.733,1.733,0,0,1-1.252,1.548L223.9,68.952a1.733,1.733,0,0,1-1.886-.66L233.92,57.445Z" transform="translate(161.759 1.684)" fill="#bed7fb"/>
      <path id="Path_15754" data-name="Path 15754" d="M246.646,52.533,236.182,65.528l-16.039-4.659-.2-.689a1.731,1.731,0,0,1,1.187-2.142l23.373-6.688a1.734,1.734,0,0,1,2.14,1.183" transform="translate(159.724 -4.186)" fill="#dfebfd"/>
      <path id="Path_15755" data-name="Path 15755" d="M139.038,159.992h-.066a.7.7,0,0,1-.7-.715l1.06-45.963,3.124-.365-2.665,46.33a.754.754,0,0,1-.754.713" transform="translate(81.984 54.559)" fill="#b0d4ff"/>
      <path id="Path_15756" data-name="Path 15756" d="M129.715,159.992h-.066a.7.7,0,0,1-.7-.715l1.06-45.963,3.124-.365-2.665,46.33a.754.754,0,0,1-.754.713" transform="translate(73.103 54.559)" fill="#95c0f4"/>
      <path id="Path_15757" data-name="Path 15757" d="M156.735,159.992h.066a.7.7,0,0,0,.7-.715l-1.06-45.963-3.124-.365,2.665,46.33a.754.754,0,0,0,.754.713" transform="translate(96.315 54.559)" fill="#b0d4ff"/>
      <path id="Path_15758" data-name="Path 15758" d="M128.282,131.937v-31.5a10.035,10.035,0,0,1,10.035-10.035h22.691a10.035,10.035,0,0,1,10.035,10.035v32.7Z" transform="translate(72.467 33.084)" fill="#b0d4ff"/>
      <path id="Path_15759" data-name="Path 15759" d="M175.108,116.648H131.295a3.013,3.013,0,0,1-3.013-3.013v-1.958h46.826Z" transform="translate(72.467 53.347)" fill="#95c0f4"/>
      <path id="Path_15760" data-name="Path 15760" d="M172.21,116.648H139.064a2.228,2.228,0,0,1-2.228-2.228V113.9a2.227,2.227,0,0,1,2.228-2.228H172.21a2.227,2.227,0,0,1,2.228,2.228v.516a2.228,2.228,0,0,1-2.228,2.228" transform="translate(80.616 53.347)" fill="#b0d4ff"/>
      <path id="Path_15761" data-name="Path 15761" d="M166.172,108.109a21.1,21.1,0,0,1-7.34,7.842H141.823s26.829-12.157,24.349-7.842" transform="translate(85.366 49.065)" fill="#233862"/>
      <path id="Path_15762" data-name="Path 15762" d="M147.8,136.96a1.573,1.573,0,0,0-.281,1.681l.006.01c.4,1.121,1.746,2.372,3.3,3.622.2.16.377.307.531.441.039.037.08.072.119.107s.061.057.09.082c1.453,1.339.906,1.646,3.515,4.362,2.974,3.093,5.022,3.15,5.6,2.868.492-.24-.508-1.882-1.617-3.728-.055-.088-.107-.178-.162-.268q-.223-.369-.441-.742c-1.3-2.22-.967-3.261-.658-6.565.25-2.685,4.177-15,4.177-15l-5.7-.982s-1.716,9.806-3.608,11.317c-1.01.8-2.142.814-3.114,1.412-.068.041-.137.084-.2.127a7.517,7.517,0,0,0-1.56,1.254" transform="translate(90.675 63.991)" fill="#f9dac5"/>
      <path id="Path_15763" data-name="Path 15763" d="M147.8,130.75a1.573,1.573,0,0,0-.281,1.681l.006.01a12.091,12.091,0,0,0,3.308,3.61c.2.164.369.314.525.453.039.037.08.072.119.107s.061.057.09.082c1.453,1.339.906,1.646,3.515,4.362,2.974,3.093,5.022,3.15,5.6,2.868.492-.24-.508-1.882-1.617-3.728a12.669,12.669,0,0,1-5.3-3.905c-1.791-2.287-2.984-5.221-4.2-6.922-.068.041-.137.084-.2.127a7.517,7.517,0,0,0-1.56,1.254" transform="translate(90.675 70.201)" fill="#233862"/>
      <path id="Path_15764" data-name="Path 15764" d="M173.364,134.246c.349,1.759,2.861,1.466,5.659.781s2.138.129,6.123-.312,5.2-1.927,5.317-2.521c.109-.525-1.861-.711-3.974-.955-.265-.029-.531-.062-.8-.1-2.386-.3-4.132-1.839-6.3-3.1-2.054-1.2-5.118-6.079-5.118-6.079l-5.469.433s2.87,4.358,3.981,6.254a6.619,6.619,0,0,1,.537,3.726,6.9,6.9,0,0,0,.043,1.871" transform="translate(111.068 63.145)" fill="#f9dac5"/>
      <path id="Path_15765" data-name="Path 15765" d="M176.841,130.5c2.8-.685,2.136.129,6.123-.312s5.2-1.927,5.317-2.521c.109-.525-1.861-.711-3.976-.955l-.02.041a11.24,11.24,0,0,1-5.709,1.775c-2.706.064-5.571-.711-7.439-.68a6.981,6.981,0,0,0,.043,1.871c.351,1.759,2.859,1.466,5.661.781" transform="translate(113.252 67.671)" fill="#233862"/>
      <path id="Path_15766" data-name="Path 15766" d="M169.559,114.622l-5.112,13.756-6.674,17.96a10.785,10.785,0,0,1-3.546-.324,15.366,15.366,0,0,1-3.429-1.67s1.853-19.284,5.311-30.356a19.674,19.674,0,0,1,2.974-6.432c5.36-6.334,10.476,7.065,10.476,7.065" transform="translate(93.916 47.803)" fill="#233862"/>
      <path id="Path_15767" data-name="Path 15767" d="M181.867,100.5c-3.349-1.08-12.9.307-22.5,2.185l-2.009-3.314-20.725-1.619s-6.838,15.166-3.095,24.83a3.5,3.5,0,0,0,3.509,2.361h.3s12.335-.006,16.34-.006c10.308,0,21.813-7.086,23.3-7.383,2.435-.488,3.409,4.386,5.846,9.5s22.9,22.658,22.9,22.658a18,18,0,0,0,4.446-.457,4.373,4.373,0,0,0,1.908-1.2S189.42,102.935,181.867,100.5" transform="translate(76.41 40.081)" fill="#2b478b"/>
      <path id="Path_15768" data-name="Path 15768" d="M161.916,68.523c-2.656-1.394-6.694-1.584-7.352-1.671-7.853-1.054-12.579,10.357-12.858,13.815-.512,6.373-3.884,7.346-8.631,11.337-9.515,8-6.725,17.3-1.521,20.76,3.122,2.074,8.625,0,8.625,0,.078.053,15.051-8.371,22.43-12.434,11.064-1.572,6.073-28.255-.693-31.806" transform="translate(71.041 10.58)" fill="#233862"/>
      <path id="Path_15769" data-name="Path 15769" d="M146.89,87.852c.033.021-3.632,1.271-6.08.187-2.306-1.019-4.052-4.811-4.017-4.813,1.049-.049,2.2-.965,3.085-6.979l.447.16,7.506,2.7s-.545,2.41-.9,4.7c-.3,1.925-.455,3.771-.045,4.042" transform="translate(80.574 19.596)" fill="#f9dac5"/>
      <path id="Path_15770" data-name="Path 15770" d="M146.108,79.031s-.545,2.408-.9,4.7c-4.311-.777-6-5.073-6.61-7.4Z" transform="translate(82.298 19.675)" fill="#e8c5ac"/>
      <path id="Path_15771" data-name="Path 15771" d="M147.593,87.751s-10.269-1.379-9.312-7.76.275-10.859,6.873-10.249,7.5,3.236,7.7,5.444-2.566,12.758-5.262,12.565" transform="translate(81.932 13.346)" fill="#f9dac5"/>
      <path id="Path_15772" data-name="Path 15772" d="M153.918,71.962s-6.574,5.665-11.046,6.121-6.164-.978-6.164-.978a17.463,17.463,0,0,0,4.222-5.719,3.15,3.15,0,0,1,2.593-1.855c3.193-.273,9.246-.4,10.4,2.431" transform="translate(80.494 13.07)" fill="#233862"/>
      <path id="Path_15773" data-name="Path 15773" d="M143.417,71.051a16.2,16.2,0,0,1,2.892,3.7,12.427,12.427,0,0,1,.336,6.608s3.427-6.662,1.488-9.9c-2.058-3.433-4.716-.412-4.716-.412" transform="translate(86.885 13.476)" fill="#233862"/>
      <path id="Path_15774" data-name="Path 15774" d="M159.838,99.694c-.31,20.788-.086,16.445-2.359,18.417-.549.474-2.089.758-4.116.892-6.373.422-17.579-.629-18.005-1.806-1.47-4.075-.433-5.342-1.66-11.583-.127-.664-.287-1.382-.473-2.164-1.021-4.286-2.017-5.745,1.611-12.63,3.29-6.239,6.709-11.3,7.018-11.118,8.681,5.155,9.38.822,9.38.822s8.756,9.029,8.6,19.169" transform="translate(76.275 22.883)" fill="#fff"/>
      <path id="Path_15775" data-name="Path 15775" d="M164.447,124.409l-6.674,17.96a10.786,10.786,0,0,1-3.546-.324,15.4,15.4,0,0,1-3.429-1.668s1.853-19.286,5.311-30.356Z" transform="translate(93.916 51.77)" fill="#2b478b"/>
      <path id="Path_15776" data-name="Path 15776" d="M141.987,80.121s8.933,1.515,9.982,5.36,7.223,26.458,7.223,26.458-4.542.816-6.639-1.281-7.3-19.466-7.3-19.466Z" transform="translate(85.523 23.286)" fill="#fff"/>
      <path id="Path_15777" data-name="Path 15777" d="M152.671,110.583c-6.373.424-17.579-.627-18.005-1.8-1.47-4.077-.433-5.342-1.66-11.583l3.075-8.658s-.51,9.64,2.333,12.177,11.642,4.9,13.024,7.014a7.744,7.744,0,0,1,1.232,2.855" transform="translate(76.967 31.304)" fill="#ebf3ff"/>
      <path id="Path_15778" data-name="Path 15778" d="M139.337,98.226s6.287-1.4,7.3-.842a14.71,14.71,0,0,1,3.806,3.3c.311.707-2.259-.537-3.095-.762a7.433,7.433,0,0,0-2.671.586,8.89,8.89,0,0,1-4.786.48Z" transform="translate(82.998 39.606)" fill="#f9dac5"/>
      <path id="Path_15779" data-name="Path 15779" d="M147.118,79.7s-8.445.519-11.368,4.6c-4.114,5.741-12.276,30.2-7.6,33.46,5.268,3.675,23.976.961,23.976.961s.623-2.909-.244-4.317-14.943-3.681-15.592-4.331,8.121-12.669,8.121-14.619,2.7-15.75,2.7-15.75" transform="translate(71.005 22.884)" fill="#fff"/>
      <path id="Path_15780" data-name="Path 15780" d="M143.233,98.216a12.192,12.192,0,0,0,1.75,1.9,1.287,1.287,0,0,0,.711.152l-.887-1.6Z" transform="translate(86.71 40.524)" fill="#f9dac5"/>
      <path id="Path_15781" data-name="Path 15781" d="M143.077,97.32l3.831,1.861a.682.682,0,0,1-.635.244,9.107,9.107,0,0,1-1.662-.457Z" transform="translate(86.561 39.67)" fill="#f9dac5"/>
      <path id="Path_15782" data-name="Path 15782" d="M144.129,111.584h30.3l9.115-22.67H153.293Z" transform="translate(87.563 31.662)" fill="#28a1de"/>
      <path id="Path_15783" data-name="Path 15783" d="M179.354,100.072H139.337v.883H179Z" transform="translate(82.998 42.291)" fill="#1282af"/>
      <path id="Path_15784" data-name="Path 15784" d="M157.168,95.423a1.05,1.05,0,0,0-1.029-1.443,2.069,2.069,0,0,0-1.857,1.443,1.05,1.05,0,0,0,1.029,1.443,2.069,2.069,0,0,0,1.857-1.443" transform="translate(97.179 36.488)" fill="#fff"/>
      <path id="Path_15785" data-name="Path 15785" d="M73.4,136.664h-.1a2.04,2.04,0,0,1-2.039-2.04V91.574A2.039,2.039,0,0,1,73.3,89.535h.1a2.038,2.038,0,0,1,2.039,2.039v43.05a2.039,2.039,0,0,1-2.039,2.04" transform="translate(18.145 32.254)" fill="#b0d4ff"/>
      <path id="Path_15786" data-name="Path 15786" d="M72.693,159.992h-.066a.7.7,0,0,1-.7-.715l1.06-45.963,3.124-.365-2.665,46.33a.754.754,0,0,1-.754.713" transform="translate(18.781 54.559)" fill="#95c0f4"/>
      <path id="Path_15787" data-name="Path 15787" d="M99.711,159.992h.066a.7.7,0,0,0,.7-.715l-1.06-45.963-3.124-.365,2.665,46.33a.754.754,0,0,0,.754.713" transform="translate(41.992 54.559)" fill="#b0d4ff"/>
      <path id="Path_15788" data-name="Path 15788" d="M123.336,111.676H71.259v1.958a3.012,3.012,0,0,0,3.013,3.013h49.064a2.227,2.227,0,0,0,2.228-2.226V113.9a2.228,2.228,0,0,0-2.228-2.228" transform="translate(18.145 53.346)" fill="#b0d4ff"/>
      <path id="Path_15789" data-name="Path 15789" d="M111.365,133.287s-.767,9.531.939,9.656c.226.018,8.656.018,8.656.018l10.759-.063a3.49,3.49,0,0,0-3.216-3.14c-3.146-.549-9.369-3.195-11.274-7.352-2-4.372-5.864.881-5.864.881" transform="translate(56.187 71.438)" fill="#163560"/>
      <path id="Path_15790" data-name="Path 15790" d="M78.132,108.242s.357,9.365,2.009,12.507h38.051s9.144.945,9.978,1.562c1.051.777-3.663,8.5,14.008,38.654l8.654-.221s-9.05-48.911-10.657-50.149c-2.406-1.851-30.557-8.3-35.376-8.437s-26.667,6.084-26.667,6.084" transform="translate(24.693 44.276)" fill="#1c468a"/>
      <path id="Path_15791" data-name="Path 15791" d="M96.123,84.337a7.277,7.277,0,0,1,3.1,5.442c-7.162,1.853-17.583-6.1-17.583-6.1a17.577,17.577,0,0,0,6.319-9.906c.086-.342.164-.7.234-1.054a21.677,21.677,0,0,0,.387-3.728l3.29,2.947,5.471,4.9a47.271,47.271,0,0,1-.808,5.532c-.119.609-.256,1.265-.412,1.962" transform="translate(28.036 12.685)" fill="#f9dac5"/>
      <path id="Path_15792" data-name="Path 15792" d="M105.5,116.9a10.732,10.732,0,0,0,.488,4.073,4.558,4.558,0,0,1,.109,1.332c-.392,4.419,1.183,4.981.691,6.407a35,35,0,0,1-4.766,2.154c-1.341.506-2.948,1.05-4.8,1.56-.1.027-.193.053-.293.08A70.443,70.443,0,0,1,80.121,134.8c-4.061-.109-4.88-10.406-3.374-23.373,2.347-20.2,5.522-30,13.887-37.073.527-.447.172,1.07,2.982,2.425a13.139,13.139,0,0,0,8.164,1l1.912,1.962c3.8,6,4.2,13.124,3.874,19.062a174.211,174.211,0,0,1-2.064,18.1" transform="translate(22.703 17.717)" fill="#b0d4ff"/>
      <path id="Path_15793" data-name="Path 15793" d="M94.2,75.4s.291-.307-.392,3.193c-6.061-1.753-8.035-4.841-8.843-6.887-.23-.578,2.251-.887,3.765-1.207Z" transform="translate(31.183 14.123)" fill="#e8c5ac"/>
      <path id="Path_15794" data-name="Path 15794" d="M97.777,82.477S86.085,84.15,85.156,76.853,82.088,64.858,89.514,63.48s9.234,1.222,10.138,3.583,1.142,14.791-1.875,15.414" transform="translate(30.418 7.068)" fill="#f9dac5"/>
      <rect id="Rectangle_849" data-name="Rectangle 849" width="24.533" height="0.937" transform="translate(172.204 143.63) rotate(-72.66)" fill="#1c468a"/>
      <rect id="Rectangle_850" data-name="Rectangle 850" width="1.541" height="25.745" transform="translate(147.35 143.641) rotate(-89.405)" fill="#1c468a"/>
      <path id="Path_15795" data-name="Path 15795" d="M83.14,65.062c-.094-.109-.31-.2-.8-.228a1.978,1.978,0,0,1,.91-.25,2.439,2.439,0,0,1,1.64-2.148,1.458,1.458,0,0,0-.715,1.045c1.357-1.373,4.251-2.355,12.237-1.662,10.525.914,7,7.629,5.631,8.422s-4.784-1.437-7.326-1.256-3.054,3.849-3.919,4.345-.521-.391-1.683-.926-1.287,1.394-.961,2.654-1.289,2.9-1.289,2.9L85.264,76.2c-1.605-1.755-3.071-9.154-2.324-10.722.066-.139.131-.279.2-.42" transform="translate(28.704 5.633)" fill="#2c3a64"/>
      <path id="Path_15796" data-name="Path 15796" d="M100.623,117.286a34.848,34.848,0,0,1-4.766,2.154c-13.34-9.734-13.266-32.773-13.34-33.165l16.756,14.752.553,8.519a4.63,4.63,0,0,1,.107,1.332c-.392,4.421,1.185,4.983.691,6.409" transform="translate(28.869 29.147)" fill="#91b8ef"/>
      <path id="Path_15797" data-name="Path 15797" d="M104.158,97.756a4.144,4.144,0,0,0,2.2-.357c1.133-.531,5.038-2.208,5.77-1.98s3.128,1.582,3.692,1.839a7.178,7.178,0,0,1,1.56,1.574c-.414.418-1.869-.541-2.519-.521s-5.448,2.64-6.875,2.7a27.493,27.493,0,0,1-3.649-.236Z" transform="translate(49.486 37.838)" fill="#f9dac5"/>
      <path id="Path_15798" data-name="Path 15798" d="M108.613,96.728c.012.078,1.755,2.019,3.081,1.4l-1.455-1.437Z" transform="translate(53.73 39.075)" fill="#f9dac5"/>
      <path id="Path_15799" data-name="Path 15799" d="M105.287,97.467a25.1,25.1,0,0,0,2.08-2.142s.312.143.326.406a3.521,3.521,0,0,1-.41,1.248Z" transform="translate(50.561 37.77)" fill="#f9dac5"/>
      <path id="Path_15800" data-name="Path 15800" d="M97.1,79.563c-8.59-5.229-18.724,3.907-14.463,13.014,4.944,10.558,13.167,23.437,19.7,24.2,4.657.541,17.974,2.249,23.613,1.2,0,0,2.73.135,1.248-4.265,0,0-18.22-5.077-21.247-9.017-1.621-2.109-4.386-6.383-8.658-25.005-.018-.076-.133-.082-.2-.123" transform="translate(28.022 21.298)" fill="#b0d4ff"/>
      <path id="Path_15801" data-name="Path 15801" d="M210.1,168.746h.092a.967.967,0,0,0,.967-.988l-1.464-63.5-4.315-.5,3.679,64a1.044,1.044,0,0,0,1.043.984" transform="translate(145.907 45.804)" fill="#739af0"/>
      <path id="Path_15802" data-name="Path 15802" d="M99.651,168.746H99.56a.967.967,0,0,1-.967-.988l1.464-63.5,4.315-.5-3.679,64a1.044,1.044,0,0,1-1.043.984" transform="translate(44.184 45.804)" fill="#739af0"/>
      <path id="Path_15803" data-name="Path 15803" d="M318.578,108.353H98.344a2.9,2.9,0,0,1-2.9-2.9v-1.861a2.9,2.9,0,0,1,2.9-2.9H318.578a2.9,2.9,0,0,1,2.9,2.9v1.861a2.9,2.9,0,0,1-2.9,2.9" transform="translate(41.183 42.881)" fill="#739af0"/>
      <rect id="Rectangle_851" data-name="Rectangle 851" width="3.677" height="13.53" transform="translate(83.712 45.627)" fill="#d6e8fc"/>
      <path id="Path_15804" data-name="Path 15804" d="M71.48,50.292H68.889a.46.46,0,0,1,0-.92H71.48a.46.46,0,0,1,0,.92" transform="translate(15.45 -6.007)" fill="#d6e8fc"/>
      <rect id="Rectangle_852" data-name="Rectangle 852" width="3.677" height="24.156" transform="translate(77.372 35)" fill="#d6e8fc"/>
      <path id="Path_15805" data-name="Path 15805" d="M68.19,45.024H65.6a.46.46,0,0,1,0-.92H68.19a.46.46,0,0,1,0,.92" transform="translate(12.316 -11.025)" fill="#d6e8fc"/>
      <rect id="Rectangle_853" data-name="Rectangle 853" width="3.677" height="40.976" transform="translate(71.297 18.18)" fill="#d6e8fc"/>
      <path id="Path_15806" data-name="Path 15806" d="M65.078,36.349H62.487a.459.459,0,1,1,0-.918h2.591a.459.459,0,1,1,0,.918" transform="translate(9.351 -19.287)" fill="#d6e8fc"/>
      <rect id="Rectangle_854" data-name="Rectangle 854" width="3.677" height="33.54" transform="translate(65.061 25.616)" fill="#d6e8fc"/>
      <path id="Path_15807" data-name="Path 15807" d="M61.885,40.271H59.294a.46.46,0,0,1,0-.92h2.591a.46.46,0,0,1,0,.92" transform="translate(6.31 -15.553)" fill="#d6e8fc"/>
      <rect id="Rectangle_855" data-name="Rectangle 855" width="3.677" height="52.155" transform="translate(58.984 7.002)" fill="#d6e8fc"/>
      <path id="Path_15808" data-name="Path 15808" d="M58.773,30.685H56.182a.459.459,0,0,1,0-.918h2.591a.459.459,0,1,1,0,.918" transform="translate(3.345 -24.683)" fill="#d6e8fc"/>
      <rect id="Rectangle_856" data-name="Rectangle 856" width="3.677" height="44.008" transform="translate(53.068 15.148)" fill="#d6e8fc"/>
      <path id="Path_15809" data-name="Path 15809" d="M55.743,34.89H53.152a.46.46,0,0,1,0-.92h2.591a.46.46,0,0,1,0,.92" transform="translate(0.459 -20.679)" fill="#d6e8fc"/>
      <path id="Path_15810" data-name="Path 15810" d="M212.2,111.752h-30.3l-9.115-22.67h30.256Z" transform="translate(114.854 31.822)" fill="#2b478b"/>
      <path id="Path_15811" data-name="Path 15811" d="M177.263,100.239H217.28v.883H177.619Z" transform="translate(119.128 42.451)" fill="#2b478b"/>
      <path id="Path_15812" data-name="Path 15812" d="M181.392,95.591a1.05,1.05,0,0,1,1.029-1.443,2.069,2.069,0,0,1,1.857,1.443,1.05,1.05,0,0,1-1.029,1.443,2.069,2.069,0,0,1-1.857-1.443" transform="translate(123.005 36.648)" fill="#fff"/>
    </g>
  </g>
</svg>
