<svg xmlns="http://www.w3.org/2000/svg" xmlns:xlink="http://www.w3.org/1999/xlink" width="120.883" height="182.024" viewBox="0 0 120.883 182.024">
  <defs>
    <clipPath id="clip-path">
      <rect id="Rectangle_1891" data-name="Rectangle 1891" width="116.441" height="148.663" fill="none"/>
    </clipPath>
  </defs>
  <g id="Group_2594" data-name="Group 2594" transform="translate(-1241.91 -814.38)">
    <path id="Path_18437" data-name="Path 18437" d="M-11463.436-10479.336a4.57,4.57,0,0,1-3.674-2.25c-1.518-2.312-1.156-4.608,0-5.664s7.717.307,12.224,5.082,3.094,10.5.575,11.7-7.82-.795-12.169-4.516-5.988-8.913-4.461-10.329,7.662,1.212,9.865,5.562,5.034,10.069,1.258,12.586-9.022-1-10.124-2.572-1.74-3.192-1-4.294,3.1.416,4.461,2.618a4.3,4.3,0,0,1-1.518,5.767c-1.629,1-3-.157-3.888-.944a2.432,2.432,0,0,1-.786-2.571c.314-.418,1.259.628,1.73,1.47s.677,4.191-.944,5.35a4.1,4.1,0,0,1-3.35.629" transform="translate(12814.244 11302.52)" fill="none" stroke="#1b75bb" stroke-width="1"/>
    <g id="Group_2309" data-name="Group 2309" transform="translate(1241.91 847.741)">
      <g id="Group_2308" data-name="Group 2308" clip-path="url(#clip-path)">
        <path id="Path_18344" data-name="Path 18344" d="M71.857,39.1s-.5,7.833-3.217,9a1.743,1.743,0,0,1-.649.143c-2.073.053-4.28-2.071-5.313-3.246-.221-.25-.387-.455-.488-.589-1.323-1.741-1.942-3.626,2.889-7.116,2.78-2.009,2.494-12.265,6.779-15.663,2.843-2.256,0,17.475,0,17.475" transform="translate(11.182 3.916)" fill="#42b9f3"/>
        <path id="Path_18345" data-name="Path 18345" d="M57.364,24.516s-.192-4.158-1.289-4.95-2.1-2.32-2.438-1.975,1.729,2.669.765,2.846c-.458.085-3.461-5.069-4.363-4.833s-.7,3.977.177,5.486a36.71,36.71,0,0,0,3.542,4.365Z" transform="translate(9.029 2.848)" fill="#ffb27d"/>
        <path id="Path_18346" data-name="Path 18346" d="M65.208,124.782H80.845c1.12-.76-.3-8.188-.3-8.188s-4.267-1.619-5,1.673-5.435,4.338-7.921,4.739a2.675,2.675,0,0,0-2.409,1.776" transform="translate(11.906 21.215)" fill="#1c4b8e"/>
        <path id="Path_18347" data-name="Path 18347" d="M88.4,59.176s-.493,9.122-1.109,19.692c-.445,7.579-.95,15.9-1.384,22.138-.058.828-.115,1.619-.169,2.366-.015.232-.033.461-.051.691a139.033,139.033,0,0,1-4.863,26.227c-4.4.927-6.382-.769-6.382-.769S71.416,94.019,70.3,79.7c-.827-10.54-1.53-25.887-1.53-25.887Z" transform="translate(12.555 9.825)" fill="#326290"/>
        <path id="Path_18348" data-name="Path 18348" d="M86,76.709c-.443,7.579-.95,15.9-1.384,22.137-2.874-6.779-8.745-33.2-8.745-33.2Z" transform="translate(13.852 11.985)" fill="#2a557d"/>
        <path id="Path_18349" data-name="Path 18349" d="M84.819,124.782h15.637c1.12-.76-.3-8.188-.3-8.188s-4.267-1.619-5,1.673-5.435,4.338-7.921,4.739a2.675,2.675,0,0,0-2.409,1.776" transform="translate(15.486 21.215)" fill="#1c4b8e"/>
        <path id="Path_18350" data-name="Path 18350" d="M72.358,57.642s11.167,27.8,14.736,38.333c2.543,7.5,9.715,33.834,9.715,33.834a7.208,7.208,0,0,0,5.739-.886s2.668-26.9-2.721-34.484c-2.859-4.024-.711-41.831-12.3-42.154s-15.165,5.357-15.165,5.357" transform="translate(13.211 9.544)" fill="#326290"/>
        <path id="Path_18351" data-name="Path 18351" d="M96.209,47.047c-.018,2.81-.047,5.484-.076,7.8-.018,1.566-.037,2.967-.05,4.133-.022,1.777-.037,3.011-.03,3.454.031,2.392-1.5,2.933-3.075,3.3,0,0-1.456.315-3.293.626a36.21,36.21,0,0,1-5.5.589,49.684,49.684,0,0,1-14.4-2.371c-1.475,0-2.148-2.282-2.389-5.467-.163-2.158.5-23.663.585-29.033a14.021,14.021,0,0,1,2.761-7.93c5.477-4.841,21.633-4.232,24.54-.893.719.825.928,8.788.953,17.509.007,2.755,0,5.585-.021,8.29" transform="translate(12.299 3.401)" fill="#42b9f3"/>
        <path id="Path_18352" data-name="Path 18352" d="M84.847,20.372c-2.062,2.235-8.99,1.9-8.784-.047.027-.24.072-1.669.1-1.89.017-.177.034-.351.048-.516.047-.481.085-.906.117-1.274.092-1.069.122-1.65.122-1.65h.007c.2-.056,4.652-1.32,6.868-1.844a3.587,3.587,0,0,1,1.228-.2c-.68,4.977.973,6.691.3,7.424" transform="translate(13.887 2.36)" fill="#ffb27d"/>
        <path id="Path_18353" data-name="Path 18353" d="M83.515,14.586s-1.86,1.89-7.233,2.026c.092-1.069.122-1.65.122-1.65h.007c.2-.056,4.653-1.32,6.868-1.844.39.16-.127,1.2.235,1.468" transform="translate(13.927 2.395)" fill="#ed975d"/>
        <path id="Path_18354" data-name="Path 18354" d="M75.376,16.551a16.8,16.8,0,0,0,3.095.721c2.535.342,5.87.141,6.917-2.928,1.764-5.164,4.018-8.26-1.174-10.369-2.779-1.129-4.558-1.19-5.765-.758a4.171,4.171,0,0,0-2.136,1.85c-1.009,1.58-3.037,10.581-.937,11.484" transform="translate(13.595 0.542)" fill="#ffb27d"/>
        <path id="Path_18355" data-name="Path 18355" d="M76.526,1.612a2.45,2.45,0,0,0,.937,4.457,18.026,18.026,0,0,1,3.044.559c1.291.574,2.4,1.181,2.1,3.185-.1.681-.435,1.511,1.319,1.1a.852.852,0,0,1,.636.038c.728.432-.2,2.524-.482,2.977,0,0-.4,1.5.492,2.228.109.086,1.867.856,6.107-5.631A6.028,6.028,0,0,0,90.946,5c-1.028-2.208-3.894-5-9.3-5a10.3,10.3,0,0,0-5.125,1.612" transform="translate(13.771)" fill="#2a557d"/>
        <path id="Path_18356" data-name="Path 18356" d="M91.64,20.843s7.947,11.874,8.842,25.651c0,0,.6,3.75-4.422,3.316s-8.6-8.679-8.769-15.664,4.348-13.3,4.348-13.3" transform="translate(15.937 3.805)" fill="#42b9f3"/>
        <path id="Path_18357" data-name="Path 18357" d="M93.439,43.605c-.018,2.81-.047,5.484-.076,7.8-.018,1.566-.037,2.967-.05,4.133-2.423-.439-4.257-4.857-3.5-7.8.768-3-3.842-5.309-5.8-7.265s-1.4-3-1.4-3Z" transform="translate(15.069 6.842)" fill="#3ca0d7"/>
        <path id="Path_18358" data-name="Path 18358" d="M91.5,37.124s-1.724-6.685-2.423-6.685.932,2.934.279,3.772-3.994-.94-4.3.182,6.827,4.138,6.446,2.731" transform="translate(15.527 5.558)" fill="#3ca0d7"/>
        <path id="Path_18359" data-name="Path 18359" d="M83.549,33.777s-3.432-.957-3.662-2.158-.242-2.908-1.373-3.573-3.8-1.5-4.28-.917.519,2.084,1.513,3.087.548,3.15,1.575,3.937a36.218,36.218,0,0,0,4.664,2.332Z" transform="translate(13.531 4.917)" fill="#ffb27d"/>
        <path id="Path_18360" data-name="Path 18360" d="M79.089,31.313s.239-1.758.39-2.344-.293-.339-.487-.118a1.807,1.807,0,0,0-.486,1.42,2.044,2.044,0,0,0,.583,1.042" transform="translate(14.33 5.223)" fill="#ffb27d"/>
        <path id="Path_18361" data-name="Path 18361" d="M79.211,31.367s15.648,6.075,17.883,7.752a5.406,5.406,0,0,1,1.583,6.292c-.959,1.8-4.435,1.364-9.66-2.5C84.88,39.858,77.837,34,77.837,34Z" transform="translate(14.211 5.727)" fill="#ffb27d"/>
        <path id="Path_18362" data-name="Path 18362" d="M68.419,44.606h0a1.767,1.767,0,0,1-.649.143c-2.074.053-4.28-2.071-5.313-3.246,1.2-.681,3.2-1.069,4.056-.525,1.4.885,1.257-.419,1.906-.419s0,4.046,0,4.046" transform="translate(11.403 7.405)" fill="#3ca0d7"/>
        <path id="Path_18363" data-name="Path 18363" d="M53.094,24.077s9.733,22.07,13.232,22.361,2.151-6.024,1.406-8.115c-.838-2.351-4.682-5.648-7.116-8.72A42.382,42.382,0,0,1,56.7,23.138Z" transform="translate(9.694 4.225)" fill="#ffb27d"/>
        <path id="Path_18364" data-name="Path 18364" d="M15.84,36.158c-.531-1.023,11.569-4.705,11.761,5.388,0,0,22.666-.557,11.844-13.19C35.7,23.981,36.084,20.366,36.2,17S33.863,3.849,25.472,4.834a6.245,6.245,0,0,0-4.938.529C14.3,8.6.33,39.881,15.84,36.158" transform="translate(1.603 0.832)" fill="#2a557d"/>
        <path id="Path_18365" data-name="Path 18365" d="M46.085,39.525s1.476-2.246,2.664-2.291,3.392-.66,3.215-.22-1.542.485-1.675.749,2.027.661,2.643.7,2.07,0,2.026.309-2.619,1.586-4.437,1.41a12.327,12.327,0,0,0-4.063.529Z" transform="translate(8.414 6.729)" fill="#ffb27d"/>
        <path id="Path_18366" data-name="Path 18366" d="M28.042,42.5A22.112,22.112,0,0,0,30.3,45.91c1.754,2.2,4.456,4.733,7.851,5.233a8.428,8.428,0,0,0,4.663-.757h.006a21.261,21.261,0,0,0,7.222-6.038,3.39,3.39,0,0,0-.462-3.325s-8.324,1.872-9.117,1.476-5.667-11.208-6.544-13.01a9.87,9.87,0,0,0-4.827-4.925Z" transform="translate(5.12 4.484)" fill="#326290"/>
        <path id="Path_18367" data-name="Path 18367" d="M29.992,43.294c1.754,2.2,4.455,4.733,7.851,5.233A8.427,8.427,0,0,0,42.5,47.77c-.161.021-4.276.53-5.918-2.405-1.675-3-3.485-7.752-5.971-6.167-1.074.685-1.025,2.385-.624,4.1" transform="translate(5.428 7.099)" fill="#2a557d"/>
        <path id="Path_18368" data-name="Path 18368" d="M2.109,115.874s-2.54,2.318-2.045,3.965,2.789,2.745,3.1,4.758,1.549,3.11,2.664,3.11h5.316s.821-1.416-1.161-1.842-2.729-2.793-2.606-4.989a38.662,38.662,0,0,0-.186-5.123l-4.212-.976Z" transform="translate(0 20.956)" fill="#1c4b8e"/>
        <path id="Path_18369" data-name="Path 18369" d="M20.015,116.537s-.913,9.819.2,10.368l14.27-.028s0-1.647-2.292-2.013-6.319-1.709-7-4.7-5.18-3.629-5.18-3.629" transform="translate(3.59 21.277)" fill="#1c4b8e"/>
        <path id="Path_18370" data-name="Path 18370" d="M10.679,36.055s1.98-2.357,2.194,1.241c.141,2.385.36,10.934.7,11.724.859,1.982,1.827,2.3,1.827,2.3L22.9,53.161l2.634.645,8.309-2.481S37.621,40.762,36.1,34.817a45.723,45.723,0,0,0-3.841-10.074s-5.633-2.222-15.606-.563Z" transform="translate(1.95 4.302)" fill="#326290"/>
        <path id="Path_18371" data-name="Path 18371" d="M12.533,40.9a23.405,23.405,0,0,0,.7,5.4c.859,1.981,1.827,2.3,1.827,2.3l7.493,1.837,3.254-.957s-10.863-1.646-9.659-10.992Z" transform="translate(2.288 7.027)" fill="#2a557d"/>
        <path id="Path_18372" data-name="Path 18372" d="M31.942,48.394S36.056,61.2,36.32,65.56,28.456,127.5,28.13,129.506c-.309,1.895-2.661,3.1-2.661,3.1a3.559,3.559,0,0,1-2.624.2,6.506,6.506,0,0,1-2.819-1.329s-3.2-41.064-1.22-55.733a232.338,232.338,0,0,0,2.006-27.354Z" transform="translate(3.315 8.836)" fill="#3ca0d7"/>
        <path id="Path_18373" data-name="Path 18373" d="M17.368,48.072s-6.277,8.42-6.861,14.113S9.589,87.87,8.342,93.42s-5.825,16.227-5.825,33.536a3.445,3.445,0,0,0,1.944,1.52,15.911,15.911,0,0,0,1.712.473,2.69,2.69,0,0,0,3.008-1.427c3.1-6.235,12.959-26.34,13.464-30.513.358-2.954,3.472-22.5,10.266-33.972,1.63-2.754-1-13.7-1-13.7Z" transform="translate(0.46 8.777)" fill="#42b9f3"/>
        <path id="Path_18374" data-name="Path 18374" d="M33.3,46.722a8.625,8.625,0,0,1-4.933,1.373c-3.919.079-13.63-1-13.63-1a8.032,8.032,0,0,0-.414,2.479s11.86,2.992,18.733.436a4.344,4.344,0,0,0,.244-3.289" transform="translate(2.615 8.53)" fill="#2a557d"/>
        <path id="Path_18375" data-name="Path 18375" d="M25.482,49.341a1.8,1.8,0,1,1,1.788,2.025,1.919,1.919,0,0,1-1.788-2.025m.592,0a1.215,1.215,0,1,0,1.2-1.431,1.331,1.331,0,0,0-1.2,1.431" transform="translate(4.652 8.639)" fill="#fff"/>
        <path id="Path_18376" data-name="Path 18376" d="M19.176,24.56a16.6,16.6,0,0,0,.887-6.057l.376.075,6.324,1.252s-.143,1.99-.148,3.866v.046c-.007,1.628,1.1,3.263-1.513,3.91-.807.2-7.118-.206-5.927-3.091" transform="translate(3.474 3.378)" fill="#ffb27d"/>
        <path id="Path_18377" data-name="Path 18377" d="M26.547,19.818s-.144,1.99-.148,3.866c-3.539-.1-5.41-3.329-6.178-5.118Z" transform="translate(3.692 3.39)" fill="#e8945b"/>
        <path id="Path_18378" data-name="Path 18378" d="M27.877,23.308s-8.374.138-8.38-5.078-1.09-8.711,4.256-9.021,6.387,1.682,6.813,3.421-.511,10.507-2.689,10.678" transform="translate(3.543 1.676)" fill="#ffb27d"/>
        <path id="Path_18379" data-name="Path 18379" d="M27.983,9.261s-2.293,6.12-5.811,7.025-5.045-.038-5.045-.038a9.967,9.967,0,0,0,3.259-5.887s5.868-4.012,7.6-1.1" transform="translate(3.127 1.497)" fill="#2a557d"/>
        <path id="Path_18380" data-name="Path 18380" d="M25.827,9.671a5.193,5.193,0,0,1,2.4,1.876,8.439,8.439,0,0,1,1.132,4.788s1.727-4.159-.214-6.511c-2.059-2.5-3.318-.153-3.318-.153" transform="translate(4.715 1.584)" fill="#2a557d"/>
        <path id="Path_18381" data-name="Path 18381" d="M16.917,24.085s-3.815.84-5.491,3.214S7.732,48.955,10.942,50s6.841-.488,6.981-8.1a167.833,167.833,0,0,0-1.005-17.814" transform="translate(1.687 4.397)" fill="#326290"/>
        <path id="Path_18382" data-name="Path 18382" d="M25.277,32.96a37.928,37.928,0,0,1-4.909,3.652c-3.113,1.911-6.822,3.6-7.657,4.81-1.559,2.267-1.988,5.811-.259,6.275s3.994-.109,7.512-4a93.718,93.718,0,0,0,6.566-8.3Z" transform="translate(2.07 6.018)" fill="#ffb27d"/>
        <path id="Path_18383" data-name="Path 18383" d="M23.153,33.928a19.294,19.294,0,0,1-.08-4.041c.264-.757,4.262-2.771,4.326-2.1s-1.3,1.653-1.128,2.761c.193,1.244.422,2.755-.231,3.392a14.606,14.606,0,0,0-1.634,2.42Z" transform="translate(4.194 5.049)" fill="#ffb27d"/>
        <path id="Path_18384" data-name="Path 18384" d="M23.282,33.409a13,13,0,0,0-.928-2.585c-.419-.615.73-.294,1.089.448a3.554,3.554,0,0,1-.161,2.137" transform="translate(4.065 5.569)" fill="#ffb27d"/>
      </g>
    </g>
  </g>
</svg>
