<svg xmlns="http://www.w3.org/2000/svg" xmlns:xlink="http://www.w3.org/1999/xlink" width="170.224" height="180.231" viewBox="0 0 170.224 180.231">
  <defs>
    <clipPath id="clip-path">
      <rect id="Rectangle_1889" data-name="Rectangle 1889" width="170.224" height="141.686" fill="none"/>
    </clipPath>
  </defs>
  <g id="Group_2591" data-name="Group 2591" transform="translate(-1211.43 -614.007)">
    <path id="Path_18181" data-name="Path 18181" d="M-11463.752-10479.336a4.57,4.57,0,0,0,3.674-2.25c1.518-2.312,1.156-4.608,0-5.664s-7.717.307-12.224,5.082-3.094,10.5-.575,11.7,7.82-.795,12.169-4.516,5.988-8.913,4.461-10.329-7.662,1.212-9.865,5.562-5.034,10.069-1.258,12.586,9.022-1,10.124-2.572,1.74-3.192,1-4.294-3.1.416-4.461,2.618a4.3,4.3,0,0,0,1.518,5.767c1.629,1,3-.157,3.888-.944a2.432,2.432,0,0,0,.786-2.571c-.314-.418-1.259.628-1.73,1.47s-.677,4.191.944,5.35a4.1,4.1,0,0,0,3.35.629" transform="translate(12737.231 11102.146)" fill="none" stroke="#1b75bb" stroke-width="1"/>
    <g id="Group_2305" data-name="Group 2305" transform="translate(1211.43 652.552)">
      <g id="Group_2304" data-name="Group 2304" transform="translate(0 0)" clip-path="url(#clip-path)">
        <path id="Path_18268" data-name="Path 18268" d="M47.59,120.349c.088.184.286,1.168.639,1.982h0a2.046,2.046,0,0,0,.808,1.069,3.532,3.532,0,0,0,2.366-.293,19.5,19.5,0,0,0,2.789.176c.247-.117.494-3.933.494-3.933s-1.977-2.055-2.154-2.114-1.624.7-1.871.7-1.7-.945-2.083-.708a6.932,6.932,0,0,0-.989,3.115" transform="translate(7.37 18.157)" fill="#fff"/>
        <path id="Path_18269" data-name="Path 18269" d="M50.248,117.937a7.275,7.275,0,0,0,.564,1.086c.124.088,1.307-1.79,1.307-1.79-.177-.059-1.625.7-1.871.7" transform="translate(7.785 18.162)" fill="#f2f7fe"/>
        <path id="Path_18270" data-name="Path 18270" d="M48.5,118.088a17.252,17.252,0,0,1,1.783,1.829,9.8,9.8,0,0,1-2.025,1.232c-.07-.039.412-1.311.388-1.526s-.147-1.536-.147-1.536" transform="translate(7.476 18.295)" fill="#f2f7fe"/>
        <path id="Path_18271" data-name="Path 18271" d="M47.59,120.344c.088.184.286,1.168.639,1.982h0l-.215-1.865.565-3.233a6.932,6.932,0,0,0-.989,3.115" transform="translate(7.37 18.162)" fill="#f2f7fe"/>
        <path id="Path_18272" data-name="Path 18272" d="M50.889,122.819a19.5,19.5,0,0,0,2.789.176c.247-.117.494-3.933.494-3.933s-.553,1.958-.565,2.055-.795-.117-.795-.117Z" transform="translate(7.884 18.446)" fill="#f2f7fe"/>
        <path id="Path_18273" data-name="Path 18273" d="M53.275,119.062l-.283,1.012H52.41l.432-.425Z" transform="translate(8.12 18.446)" fill="#f2f7fe"/>
        <path id="Path_18274" data-name="Path 18274" d="M114.212,120.349c.088.184.286,1.168.639,1.982h0a2.041,2.041,0,0,0,.808,1.069,3.531,3.531,0,0,0,2.366-.293,19.5,19.5,0,0,0,2.789.176c.247-.117.494-3.933.494-3.933s-1.977-2.055-2.154-2.114-1.624.7-1.871.7-1.7-.945-2.083-.708a6.931,6.931,0,0,0-.989,3.115" transform="translate(17.692 18.157)" fill="#fff"/>
        <path id="Path_18275" data-name="Path 18275" d="M116.869,117.937a7.184,7.184,0,0,0,.565,1.086c.124.088,1.306-1.79,1.306-1.79-.177-.059-1.624.7-1.871.7" transform="translate(18.106 18.162)" fill="#f2f7fe"/>
        <path id="Path_18276" data-name="Path 18276" d="M115.124,118.088a17.254,17.254,0,0,1,1.783,1.829,9.8,9.8,0,0,1-2.025,1.232c-.07-.039.412-1.311.388-1.526s-.147-1.536-.147-1.536" transform="translate(17.797 18.295)" fill="#f2f7fe"/>
        <path id="Path_18277" data-name="Path 18277" d="M114.212,120.344c.088.184.286,1.168.639,1.982h0l-.215-1.865.565-3.233a6.931,6.931,0,0,0-.989,3.115" transform="translate(17.692 18.162)" fill="#f2f7fe"/>
        <path id="Path_18278" data-name="Path 18278" d="M117.511,122.819a19.5,19.5,0,0,0,2.789.176c.247-.117.494-3.933.494-3.933s-.552,1.958-.565,2.055-.795-.117-.795-.117Z" transform="translate(18.205 18.446)" fill="#f2f7fe"/>
        <path id="Path_18279" data-name="Path 18279" d="M119.9,119.062l-.283,1.012h-.582l.432-.425Z" transform="translate(18.441 18.446)" fill="#f2f7fe"/>
        <path id="Path_18280" data-name="Path 18280" d="M129.135,114.121c.089.184.286,1.169.639,1.982h0a2.042,2.042,0,0,0,.81,1.069,3.529,3.529,0,0,0,2.365-.293,19.5,19.5,0,0,0,2.789.176c.247-.117.494-3.933.494-3.933s-1.977-2.055-2.154-2.112-1.624.7-1.871.7-1.7-.945-2.083-.708a6.932,6.932,0,0,0-.989,3.115" transform="translate(20.004 17.192)" fill="#fff"/>
        <path id="Path_18281" data-name="Path 18281" d="M131.793,111.71a7.186,7.186,0,0,0,.565,1.086c.124.088,1.306-1.79,1.306-1.79-.177-.059-1.624.7-1.871.7" transform="translate(20.418 17.197)" fill="#f2f7fe"/>
        <path id="Path_18282" data-name="Path 18282" d="M130.048,111.86a17.253,17.253,0,0,1,1.783,1.829,9.769,9.769,0,0,1-2.025,1.232c-.07-.038.412-1.311.388-1.526s-.147-1.536-.147-1.536" transform="translate(20.109 17.33)" fill="#f2f7fe"/>
        <path id="Path_18283" data-name="Path 18283" d="M129.135,114.116c.089.184.286,1.169.639,1.982h0l-.215-1.865.565-3.233a6.932,6.932,0,0,0-.989,3.115" transform="translate(20.004 17.197)" fill="#f2f7fe"/>
        <path id="Path_18284" data-name="Path 18284" d="M132.435,116.591a19.5,19.5,0,0,0,2.789.176c.247-.117.494-3.933.494-3.933s-.553,1.958-.565,2.055-.795-.117-.795-.117Z" transform="translate(20.518 17.481)" fill="#f2f7fe"/>
        <path id="Path_18285" data-name="Path 18285" d="M134.821,112.834l-.282,1.012h-.583l.433-.425Z" transform="translate(20.753 17.481)" fill="#f2f7fe"/>
        <path id="Path_18286" data-name="Path 18286" d="M90.7,99.819c.088.182.286,1.168.639,1.982h0a2.051,2.051,0,0,0,.81,1.069,3.534,3.534,0,0,0,2.365-.295,19.491,19.491,0,0,0,2.789.177c.247-.118.494-3.933.494-3.933s-1.977-2.055-2.154-2.114-1.624.7-1.871.7-1.694-.945-2.083-.708a6.927,6.927,0,0,0-.989,3.115" transform="translate(14.048 14.976)" fill="#fff"/>
        <path id="Path_18287" data-name="Path 18287" d="M93.353,97.407a7.186,7.186,0,0,0,.565,1.086c.124.089,1.306-1.79,1.306-1.79-.177-.059-1.624.7-1.871.7" transform="translate(14.463 14.981)" fill="#f2f7fe"/>
        <path id="Path_18288" data-name="Path 18288" d="M91.608,97.558a17.252,17.252,0,0,1,1.783,1.829,9.8,9.8,0,0,1-2.025,1.232c-.07-.039.412-1.311.388-1.526s-.147-1.536-.147-1.536" transform="translate(14.154 15.114)" fill="#f2f7fe"/>
        <path id="Path_18289" data-name="Path 18289" d="M90.7,99.814c.088.182.286,1.168.639,1.982h0l-.215-1.866.565-3.231a6.927,6.927,0,0,0-.989,3.115" transform="translate(14.048 14.981)" fill="#f2f7fe"/>
        <path id="Path_18290" data-name="Path 18290" d="M94,102.289a19.5,19.5,0,0,0,2.789.176c.247-.117.494-3.933.494-3.933s-.553,1.958-.565,2.055-.795-.117-.795-.117Z" transform="translate(14.562 15.265)" fill="#f2f7fe"/>
        <path id="Path_18291" data-name="Path 18291" d="M96.381,98.532,96.1,99.544h-.582l.432-.425Z" transform="translate(14.798 15.265)" fill="#f2f7fe"/>
        <path id="Path_18292" data-name="Path 18292" d="M134.454,43.626H83.476L86.889,8.579h50.978Z" transform="translate(12.932 1.329)" fill="#2a557d"/>
        <path id="Path_18293" data-name="Path 18293" d="M136.051,43.626H85.072L88.486,8.579h50.978Z" transform="translate(13.18 1.329)" fill="#326290"/>
        <path id="Path_18294" data-name="Path 18294" d="M110.873,46.24h-9.047l2.959-20.2h9.047Z" transform="translate(15.775 4.035)" fill="#2a557d"/>
        <rect id="Rectangle_1888" data-name="Rectangle 1888" width="18.572" height="1.455" transform="translate(112.286 49.669)" fill="#2a557d"/>
        <path id="Path_18295" data-name="Path 18295" d="M71.36,108.943H33.542v-3.416l19.275-1.738,18.543,1.738Z" transform="translate(5.196 16.079)" fill="#6196d6"/>
        <path id="Path_18296" data-name="Path 18296" d="M30.36,108.2a3.111,3.111,0,1,1,3.111,3.111A3.111,3.111,0,0,1,30.36,108.2" transform="translate(4.704 16.282)" fill="#6196d6"/>
        <path id="Path_18297" data-name="Path 18297" d="M63.1,108.2a3.111,3.111,0,1,1,3.111,3.111A3.111,3.111,0,0,1,63.1,108.2" transform="translate(9.777 16.282)" fill="#6196d6"/>
        <path id="Path_18298" data-name="Path 18298" d="M70.258,76.028H35.15A3.246,3.246,0,0,1,31.9,72.781H73.5a3.246,3.246,0,0,1-3.246,3.247" transform="translate(4.943 11.276)" fill="#6196d6"/>
        <path id="Path_18299" data-name="Path 18299" d="M52.322,114.889H48.433L47.342,65.407h5.941Z" transform="translate(7.334 10.133)" fill="#6196d6"/>
        <path id="Path_18300" data-name="Path 18300" d="M22.487,75.665V25.87c0-8.762,5.583-15.865,12.469-15.865h28.2c6.886,0,12.469,7.1,12.469,15.865V75.665Z" transform="translate(3.484 1.55)" fill="#77a4e5"/>
        <path id="Path_18301" data-name="Path 18301" d="M86.918,73.7H26.632a4.145,4.145,0,0,1-4.145-4.146v-2.7H86.918Z" transform="translate(3.484 10.358)" fill="#77a4e5"/>
        <path id="Path_18302" data-name="Path 18302" d="M91.059,73.7H45.45a3.066,3.066,0,0,1-3.065-3.065v-.711a3.066,3.066,0,0,1,3.065-3.065H91.059a3.066,3.066,0,0,1,3.065,3.065v.711A3.065,3.065,0,0,1,91.059,73.7" transform="translate(6.567 10.358)" fill="#b0d4ff"/>
        <path id="Path_18303" data-name="Path 18303" d="M25.08,75.665V25.87c0-8.762,5.583-15.865,12.469-15.865h28.2c6.886,0,12.469,7.1,12.469,15.865V75.665Z" transform="translate(3.886 1.55)" fill="#9fc3f7"/>
        <path id="Path_18304" data-name="Path 18304" d="M81.865,94.969s-1.918,5.136-1.511,7.042-.251,5.6.529,7.251,2.174,4.053.836,4.66c-.507.231-6.409-4.347-6.747-5.7s-.6-5.337-1.731-7.5a3.215,3.215,0,0,1,1.451-4.7c1.633-.8,3.908-5.152,3.908-5.152Z" transform="translate(11.27 14.078)" fill="#2a557d"/>
        <path id="Path_18305" data-name="Path 18305" d="M77.055,5.135c-1.96-2.4-5.6-3.04-5.6-3.04C64.283-3.929,58.072,4.64,56.844,7.783s-1.974,8.482-7.156,11.02c-9.2,4.508.791,12.209.791,12.209,4.175-9.214,23.641,7.221,22.747,7.952,18.195,8.045,8.285-28.382,3.827-33.829" transform="translate(7.094 0)" fill="#2a557d"/>
        <path id="Path_18306" data-name="Path 18306" d="M58.651,29.861A63.98,63.98,0,0,0,66.782,41c2.506,2.668,5.393,5.047,8.362,6.083a8.6,8.6,0,0,0,4.367.439c.926-.161.523-5.63-.763-9.787-1.7-5.476-6.982-19.082-6.982-19.082l-3.024,1.29s4.195,17.136,3.695,17.208L68,25.925Z" transform="translate(9.087 2.89)" fill="#e5925a"/>
        <path id="Path_18307" data-name="Path 18307" d="M53.239,52.4s33.7-.537,38.2,2.324-4.495,48.53-4.495,48.53-8.717.278-9.41-2.029c0,0,1.568-21.4.2-25.1s-.527-8.819-.527-8.819-17.049,2.6-22.463,1.32-1.5-16.229-1.5-16.229" transform="translate(8.036 8.112)" fill="#2a557d"/>
        <path id="Path_18308" data-name="Path 18308" d="M86.288,101.458s1.848,5.163,3.389,6.354,3.421,4.44,5.083,5.2,4.274,1.694,3.646,3.021c-.239.5-7.7.813-8.832,0s-3.9-3.689-6.162-4.613a3.215,3.215,0,0,1-1.926-4.53c.735-1.662-.338-6.458-.338-6.458Z" transform="translate(12.572 15.559)" fill="#2a4e96"/>
        <path id="Path_18309" data-name="Path 18309" d="M36.635,51.358s40,6.259,43.076,9.818S95,111.092,95,111.092s-3.562,2-6.808.149c0,0-9.291-15.712-13.4-20.641s-5.679-20.178-6.356-20.332-22.2,2.6-30.129-2.647c-4.673-3.093-1.673-16.262-1.673-16.262" transform="translate(5.529 7.957)" fill="#326290"/>
        <path id="Path_18310" data-name="Path 18310" d="M50.61,22.853c2.36-1.777,9.463-3.738,13.906-1.739,2.1.946,5.3,2.187,7.206,4.561,2.062,2.56,4.436,11.225,4.436,11.225-.777,4.562-4.4,5.121-4.4,5.121,2.125,8.033-7.884,5.934-7.237,10.389,1.128,7.773-6.143,11.854-10.106,13.666-5.187,2.371-19.762,5.359-19.777,0-.072-24.413,9.19-38.113,15.976-43.222" transform="translate(5.366 3.141)" fill="#fff"/>
        <path id="Path_18311" data-name="Path 18311" d="M49.166,30.006s2.627,14.187,9.748,18.352h6.7l-7.074-8.84Z" transform="translate(7.617 4.649)" fill="#ebf3fa"/>
        <path id="Path_18312" data-name="Path 18312" d="M70.2,20.9a34.359,34.359,0,0,0,2.557-3.377c.382-.785-.331-4.167-1.22-4.145-.559.014-1.248,2.063-1.859,2.808s-3.274,1.8-2.148,4.934c.127.352,2.67-.219,2.67-.219" transform="translate(10.419 2.073)" fill="#e5925a"/>
        <path id="Path_18313" data-name="Path 18313" d="M66.3,25.981c.614.922-.135,3.5-3.615,2.7-2.284-.528-6.737-4.233-5.933-6.125.382-.9,2.572-3.009,3.949-8.494l.4.189,6.7,3.195s-.726,2.179-1.263,4.27a9.2,9.2,0,0,0-.236,4.266" transform="translate(8.778 2.178)" fill="#ffb27d"/>
        <path id="Path_18314" data-name="Path 18314" d="M67.208,17.42s-.728,2.179-1.263,4.27c-3.921-1.117-5.091-5.25-5.437-7.464Z" transform="translate(9.374 2.204)" fill="#f4a269"/>
        <path id="Path_18315" data-name="Path 18315" d="M71.229,20.108s-9.392,2.179-10.659-3.691-3.332-9.541,2.611-11.18,7.595.348,8.493,2.2,1.965,11.949-.446,12.667" transform="translate(9.167 0.717)" fill="#ffb27d"/>
        <path id="Path_18316" data-name="Path 18316" d="M67.685,4.328s-.059,6.755-5.033,10.033c-2.91,1.918-3.048,3.882-3.048,3.882a56.05,56.05,0,0,1-2-10.128s7.427-6.648,10.078-3.787" transform="translate(8.925 0.56)" fill="#2a557d"/>
        <path id="Path_18317" data-name="Path 18317" d="M65.821,5.523a16.273,16.273,0,0,1,4.011,1.945c1.828,1.514,2.305,6.435,2.087,7.661,0,0,.5-8.553-2.256-10.733-2.92-2.311-3.842,1.127-3.842,1.127" transform="translate(10.197 0.557)" fill="#2a557d"/>
        <path id="Path_18318" data-name="Path 18318" d="M49.273,31.168a49.084,49.084,0,0,0,3.235,6.364c4.482,7.41,9.962,11.886,11.942,9.8.547-.577,1.929-1.416.485-4.518-1.117-2.4-2.5-5.394-3.854-8.344C58.286,28.387,55.6,22.506,55.6,22.506c-.853,0-9.832.313-6.331,8.662" transform="translate(7.509 3.487)" fill="#ffb27d"/>
        <path id="Path_18319" data-name="Path 18319" d="M57.5,38.242c.307-.184,17.2,3.92,22.438,5.2l1.528.374v1.971s-17.484.821-20.215-.433a19.893,19.893,0,0,1-5.338-4.174Z" transform="translate(8.662 5.924)" fill="#ffb27d"/>
        <path id="Path_18320" data-name="Path 18320" d="M49.273,31.168a49.084,49.084,0,0,0,3.235,6.364,24.92,24.92,0,0,0,8.573-3.063C58.286,28.387,55.6,22.506,55.6,22.506c-.853,0-9.832.313-6.331,8.662" transform="translate(7.509 3.487)" fill="#fff"/>
        <path id="Path_18321" data-name="Path 18321" d="M76.712,42.907s5.566-1.6,7.115-1.157c1.093.312,2.488,1.929,3.215,2.854a.409.409,0,0,1-.327.662,8.527,8.527,0,0,1-3.226-.485c-.744-.392-1.851.47-3.085.475-.947,0-2.165,0-2.165,0Z" transform="translate(11.885 6.456)" fill="#ffb27d"/>
        <path id="Path_18322" data-name="Path 18322" d="M7.425,134.165H7.349c-.452,0-.814-.6-.8-1.329L7.763,47.457l3.588-.677L8.291,132.842c-.027.743-.407,1.324-.866,1.324" transform="translate(1.014 7.247)" fill="#5d95d8"/>
        <path id="Path_18323" data-name="Path 18323" d="M139.969,134.165h.076c.452,0,.814-.6.8-1.329L139.63,47.457l-3.588-.677,3.061,86.062c.027.743.407,1.324.866,1.324" transform="translate(21.076 7.247)" fill="#5d95d8"/>
        <path id="Path_18324" data-name="Path 18324" d="M168.16,49.417H2.065A2.066,2.066,0,0,1,0,47.352V46.331a2.066,2.066,0,0,1,2.066-2.065H168.16a2.064,2.064,0,0,1,2.064,2.065v1.021a2.064,2.064,0,0,1-2.064,2.065" transform="translate(0 6.858)" fill="#5d95d8"/>
      </g>
    </g>
  </g>
</svg>
