<svg xmlns="http://www.w3.org/2000/svg" xmlns:xlink="http://www.w3.org/1999/xlink" width="132.374" height="200.904" viewBox="0 0 132.374 200.904">
  <defs>
    <clipPath id="clip-path">
      <rect id="Rectangle_1882" data-name="Rectangle 1882" width="132.374" height="165.394" fill="none"/>
    </clipPath>
  </defs>
  <g id="Group_2590" data-name="Group 2590" transform="translate(-963 -582.997)">
    <path id="Path_18433" data-name="Path 18433" d="M-11463.752-10479.336a4.57,4.57,0,0,0,3.674-2.25c1.518-2.312,1.156-4.608,0-5.664s-7.717.307-12.224,5.082-3.094,10.5-.575,11.7,7.82-.795,12.169-4.516,5.988-8.913,4.461-10.329-7.662,1.212-9.865,5.562-5.034,10.069-1.258,12.586,9.022-1,10.124-2.572,1.74-3.192,1-4.294-3.1.416-4.461,2.618a4.3,4.3,0,0,0,1.518,5.767c1.629,1,3-.157,3.888-.944a2.432,2.432,0,0,0,.786-2.571c-.314-.418-1.259.628-1.73,1.47s-.677,4.191.944,5.35a4.1,4.1,0,0,0,3.35.629" transform="translate(12519.231 11071.137)" fill="none" stroke="#1b75bb" stroke-width="1"/>
    <g id="Group_2301" data-name="Group 2301" transform="translate(963 618.508)">
      <g id="Group_2300" data-name="Group 2300" clip-path="url(#clip-path)">
        <path id="Path_18182" data-name="Path 18182" d="M22.116,82.489S9.974,91.9.187,91.7L0,106.332s15.63-1.976,20.708-8.489Z" transform="translate(0 18.446)" fill="#afd8fb"/>
        <path id="Path_18183" data-name="Path 18183" d="M59.689,61.892s-18.128,3.021-28.321-2.746l-8.5,15.309s17.585,6.789,26.63,2.811Z" transform="translate(5.113 13.226)" fill="#afd8fb"/>
        <path id="Path_18184" data-name="Path 18184" d="M80.9.125s7.957-1.2,11.81,3.814,2.238,9.882,8.7,10.431,7.584,3.12,6.216,6.683,6.714,3.688,8.454,8.536.87,13.178-11.437,10.94-16.819-9.7-22.521-7.708S68.342,29.084,71.2,25.544,69.462,22.4,69.835,14.37,75.462-.062,80.9.125" transform="translate(15.611 0)" fill="#2a557d"/>
        <path id="Path_18185" data-name="Path 18185" d="M41.5,37.287s-2.211-2.319-3.968-2.773c-1.924-.5-4.638-.961-4.925-.335-.339.74,3.108,1.96,3.586,2.774s-.288.74-1.626.645-.86.335-.622.406a27.3,27.3,0,0,0,2.893,1.22,6.986,6.986,0,0,0,.881.078,25.619,25.619,0,0,1,3.781.328,3.5,3.5,0,0,0,0-2.343" transform="translate(7.286 7.575)" fill="#ffb27d"/>
        <path id="Path_18186" data-name="Path 18186" d="M38.713,40.356a4.346,4.346,0,0,0,.887,1.716s11.059,4.246,19.095,3.016c.28-.042.557-.092.827-.148,1.474-.307,3.041-.694,4.613-1.118C70.852,42,77.64,39.47,77.64,39.47s.143-.563.348-1.484c.848-3.831,2.735-13.867-.348-15.451a17.9,17.9,0,0,0-3.634,2.326c-4.562,3.675-12.258,10.622-16.432,11.687-3.847.983-14.056,1.969-18.562,2.225a2.089,2.089,0,0,0-.3,1.583" transform="translate(8.644 5.039)" fill="#42b9f3"/>
        <path id="Path_18187" data-name="Path 18187" d="M65.618,36.732c-2.445,1.954-4.045,3.536-6.141,4.531,6.718-1.82,13.506-4.35,13.506-4.35s.143-.564.346-1.484l-.718-1.438s-3.076-.393-6.993,2.741" transform="translate(13.3 7.597)" fill="#3ca0d7"/>
        <path id="Path_18188" data-name="Path 18188" d="M55.032,40.993c.279-.042.556-.092.826-.148a2.3,2.3,0,0,0-.826.148" transform="translate(12.306 9.134)" fill="#3ca0d7"/>
        <path id="Path_18189" data-name="Path 18189" d="M106.919,124.179s2.948,2.69,2.373,4.6-3.235,3.185-3.595,5.521-1.8,3.61-3.091,3.61H96.438s-.953-1.643,1.347-2.139,3.168-3.24,3.024-5.789a44.958,44.958,0,0,1,.217-5.946l4.887-1.132Z" transform="translate(21.521 27.483)" fill="#3e5b87"/>
        <path id="Path_18190" data-name="Path 18190" d="M87.651,125.055s1.06,11.394-.234,12.032l-16.559-.034s0-1.911,2.66-2.336,7.332-1.982,8.122-5.45,6.01-4.212,6.01-4.212" transform="translate(15.845 27.964)" fill="#3e5b87"/>
        <path id="Path_18191" data-name="Path 18191" d="M73.763,52.387,84.14,60.534l9.9-7.044h0l.805-.291s1.632-.811,2.118-4.669c.06-.477.405-4.552.748-8.658.37-4.433.735-8.9.735-8.9L92.129,21.6c-13.273-2.8-21.293,1.367-21.293,1.367s-.617,4.942-1.63,11.991,4.558,17.434,4.558,17.434" transform="translate(15.448 4.612)" fill="#42b9f3"/>
        <path id="Path_18192" data-name="Path 18192" d="M74.461,48.458s-4.775,14.861-5.08,19.919,9.126,71.873,9.505,74.2c.357,2.2,3.087,3.6,3.087,3.6a4.128,4.128,0,0,0,3.046.235,7.544,7.544,0,0,0,3.271-1.542S92,97.221,89.7,80.2a269.622,269.622,0,0,1-2.326-31.742Z" transform="translate(15.513 10.836)" fill="#2a557d"/>
        <path id="Path_18193" data-name="Path 18193" d="M93.471,48.1s7.282,9.771,7.961,16.377,1.066,29.806,2.512,36.245,6.76,18.831,6.76,38.916a4,4,0,0,1-2.258,1.763,18.479,18.479,0,0,1-1.986.549,3.122,3.122,0,0,1-3.492-1.657c-3.593-7.234-15.037-30.565-15.623-35.408-.416-3.427-4.029-26.111-11.912-39.42-1.892-3.2,1.161-15.9,1.161-15.9Z" transform="translate(16.73 10.755)" fill="#326290"/>
        <path id="Path_18194" data-name="Path 18194" d="M83.178,24.878a2.443,2.443,0,0,0,1.994-2.7,34.326,34.326,0,0,1-.239-7.1l-.443.037-7.457.625-.335,4.53c-.231,2.92-.037,6.477,6.479,4.6" transform="translate(17.139 3.373)" fill="#ffb27d"/>
        <path id="Path_18195" data-name="Path 18195" d="M77.023,15.736s-.092,2.314-.33,4.477c4.094.343,6.67-3.137,7.786-5.1Z" transform="translate(17.15 3.379)" fill="#e8945b"/>
        <path id="Path_18196" data-name="Path 18196" d="M76.053,20.094s9.638,1.244,10.321-4.77S88.76,5.419,82.635,4.37s-7.583,1.111-8.3,3.063-.773,12.182,1.717,12.661" transform="translate(16.527 0.916)" fill="#ffb27d"/>
        <path id="Path_18197" data-name="Path 18197" d="M77.46,3.975s1.851,7.354,5.791,8.854,5.823.609,5.823.609a11.557,11.557,0,0,1-3-7.211S79.833.841,77.46,3.975" transform="translate(17.321 0.67)" fill="#2a557d"/>
        <path id="Path_18198" data-name="Path 18198" d="M78.921,4.572a6.031,6.031,0,0,0-3.01,1.851A9.788,9.788,0,0,0,73.985,11.8s-1.454-5.02,1.09-7.481c2.7-2.611,3.846.255,3.846.255" transform="translate(16.452 0.72)" fill="#2a557d"/>
        <path id="Path_18199" data-name="Path 18199" d="M104.95,57.332s-.7,2.724-1.329,3.143-2.462,2.8-1.991,3.82c.634,1.367,2.2,3.369,2.962,3.143s.058-2.21,1.487-3.656c.722-.73,2.4-2.063,2.259-3.5s-.5-3.238-.5-3.238Z" transform="translate(22.709 12.757)" fill="#ffb27d"/>
        <path id="Path_18200" data-name="Path 18200" d="M104.578,58.629a28.436,28.436,0,0,1-3.055,1.883c-.981.437-.587.789-.083.793a3.745,3.745,0,0,0,2.114-.655c.952-.565,1.531-2.034,1.024-2.021" transform="translate(22.567 13.11)" fill="#ffb27d"/>
        <path id="Path_18201" data-name="Path 18201" d="M88.552,21.418s5.768,1.392,9.555,4.951c5.959,5.6,12.54,11,13.923,16.615,1.148,4.65,1.319,11.077,0,23.465a5.921,5.921,0,0,1-2.343.264,3.607,3.607,0,0,1-1.99-.559s-2.86-16.209-5.192-20.646c-1.188-2.261-17.435-10.855-17.435-10.855Z" transform="translate(19.023 4.789)" fill="#42b9f3"/>
        <path id="Path_18202" data-name="Path 18202" d="M89.82,50.367h0l.806-.291s1.631-.811,2.118-4.669c.06-.477.405-4.552.748-8.658,0,0-3.659-3.643-4.777-1.466s1.465,6.277.516,8.7-2.594,5.676.587,6.384" transform="translate(19.668 7.735)" fill="#3ca0d7"/>
        <path id="Path_18203" data-name="Path 18203" d="M72.957,46.583a10.008,10.008,0,0,0,5.724,1.593c4.548.092,15.816-1.16,15.816-1.16a9.338,9.338,0,0,1,.481,2.877s-13.763,3.471-21.738.507a5.038,5.038,0,0,1-.284-3.816" transform="translate(16.254 10.417)" fill="#2a557d"/>
        <path id="Path_18204" data-name="Path 18204" d="M77.073,51.946A2.367,2.367,0,1,1,79.148,49.6a2.228,2.228,0,0,1-2.075,2.349m0-4.01a1.688,1.688,0,1,0,1.388,1.66,1.545,1.545,0,0,0-1.388-1.66" transform="translate(16.771 10.566)" fill="#fff"/>
      </g>
    </g>
  </g>
</svg>
