<svg xmlns="http://www.w3.org/2000/svg" xmlns:xlink="http://www.w3.org/1999/xlink" width="151.195" height="198.398" viewBox="0 0 151.195 198.398">
  <defs>
    <clipPath id="clip-path">
      <rect id="Rectangle_1895" data-name="Rectangle 1895" width="150.692" height="168.4" fill="none"/>
    </clipPath>
  </defs>
  <g id="Group_2589" data-name="Group 2589" transform="translate(-550.922 -557.007)">
    <path id="Path_18434" data-name="Path 18434" d="M-11463.752-10479.336a4.57,4.57,0,0,0,3.674-2.25c1.518-2.312,1.156-4.608,0-5.664s-7.717.307-12.224,5.082-3.094,10.5-.575,11.7,7.82-.795,12.169-4.516,5.988-8.913,4.461-10.329-7.662,1.212-9.865,5.562-5.034,10.069-1.258,12.586,9.022-1,10.124-2.572,1.74-3.192,1-4.294-3.1.416-4.461,2.618a4.3,4.3,0,0,0,1.518,5.767c1.629,1,3-.157,3.888-.944a2.432,2.432,0,0,0,.786-2.571c-.314-.418-1.259.628-1.73,1.47s-.677,4.191.944,5.35a4.1,4.1,0,0,0,3.35.629" transform="translate(12026.658 11045.146)" fill="none" stroke="#1b75bb" stroke-width="1"/>
    <g id="Group_2312" data-name="Group 2312" transform="translate(551.425 587.005)">
      <rect id="Rectangle_1892" data-name="Rectangle 1892" width="3.586" height="6.125" transform="translate(28.031 32.842)" fill="#eef8ff"/>
      <rect id="Rectangle_1893" data-name="Rectangle 1893" width="3.586" height="6.127" transform="translate(48.009 50.775)" fill="#eef8ff"/>
      <g id="Group_2311" data-name="Group 2311">
        <g id="Group_2310" data-name="Group 2310" clip-path="url(#clip-path)">
          <path id="Path_18385" data-name="Path 18385" d="M45.884,92.7V57.441c0-6.205,4.543-11.234,10.146-11.234H78.973c5.6,0,10.146,5.029,10.146,11.234V92.7Z" transform="translate(13.148 13.241)" fill="#9fd0f7"/>
          <path id="Path_18386" data-name="Path 18386" d="M47.779,92.7V57.441c0-6.205,4.543-11.234,10.146-11.234H80.868c5.6,0,10.146,5.029,10.146,11.234V92.7Z" transform="translate(13.691 13.241)" fill="#afd8fb"/>
          <path id="Path_18387" data-name="Path 18387" d="M98.311,87.915H49.259a3.374,3.374,0,0,1-3.375-3.373V82.348H98.311Z" transform="translate(13.148 23.597)" fill="#9fd0f7"/>
          <path id="Path_18388" data-name="Path 18388" d="M100.025,87.915H62.913A2.494,2.494,0,0,1,60.42,85.42v-.578a2.494,2.494,0,0,1,2.493-2.495h37.112a2.494,2.494,0,0,1,2.495,2.495v.578a2.494,2.494,0,0,1-2.495,2.495" transform="translate(17.314 23.597)" fill="#b0dfff"/>
          <path id="Path_18389" data-name="Path 18389" d="M68.092,126.939H64.927l-.888-40.264h4.834Z" transform="translate(18.351 24.837)" fill="#9fd0f7"/>
          <path id="Path_18390" data-name="Path 18390" d="M84.732,118.905H53.959v-2.779l15.684-1.415,15.089,1.415Z" transform="translate(15.462 32.871)" fill="#9fd0f7"/>
          <path id="Path_18391" data-name="Path 18391" d="M51.635,118.2a2.531,2.531,0,1,1,2.531,2.532,2.53,2.53,0,0,1-2.531-2.532" transform="translate(14.796 33.144)" fill="#9fd0f7"/>
          <path id="Path_18392" data-name="Path 18392" d="M75.554,118.2a2.531,2.531,0,1,1,2.531,2.532,2.53,2.53,0,0,1-2.531-2.532" transform="translate(21.65 33.144)" fill="#9fd0f7"/>
          <path id="Path_18393" data-name="Path 18393" d="M83.971,89.316H55.4a2.642,2.642,0,0,1-2.643-2.641H86.613a2.641,2.641,0,0,1-2.641,2.641" transform="translate(15.119 24.837)" fill="#9fd0f7"/>
          <path id="Path_18394" data-name="Path 18394" d="M7.764,141.158H7.7c-.368,0-.663-.472-.654-1.046L8.04,72.906l2.92-.534L8.469,140.116c-.021.585-.331,1.042-.705,1.042" transform="translate(2.02 20.739)" fill="#77b4e5"/>
          <path id="Path_18395" data-name="Path 18395" d="M112.972,141.158h.062c.368,0,.663-.472.654-1.046L112.7,72.906l-2.92-.534,2.491,67.744c.021.585.331,1.042.705,1.042" transform="translate(31.457 20.739)" fill="#77b4e5"/>
          <path id="Path_18396" data-name="Path 18396" d="M148.336,74.65H3.974a1.707,1.707,0,0,1-1.706-1.707V72.3A1.706,1.706,0,0,1,3.974,70.6H148.336a1.706,1.706,0,0,1,1.707,1.707v.639a1.707,1.707,0,0,1-1.707,1.707" transform="translate(0.65 20.23)" fill="#77b4e5"/>
          <path id="Path_18397" data-name="Path 18397" d="M113.113,73.046H71.632l2.778-28.518H115.89Z" transform="translate(20.526 12.76)" fill="#77b4e5"/>
          <path id="Path_18398" data-name="Path 18398" d="M114.279,73.046H72.8l2.778-28.518h41.481Z" transform="translate(20.861 12.76)" fill="#5793ce"/>
          <path id="Path_18399" data-name="Path 18399" d="M92.4,73.719h-7.36l2.407-16.434H94.8Z" transform="translate(24.368 16.415)" fill="#9fd0f7"/>
          <rect id="Rectangle_1894" data-name="Rectangle 1894" width="15.112" height="1.184" transform="translate(105.078 89.641)" fill="#9fd0f7"/>
          <path id="Path_18400" data-name="Path 18400" d="M39.107,133.047c-1.36-.83-.587-7.023-.587-7.023s6.338-5.069,7.21-1.187,6.02,5.624,8.951,6.1c2.024.328,2.65,1.449,2.843,2.111Z" transform="translate(10.976 35.353)" fill="#1d3356"/>
          <path id="Path_18401" data-name="Path 18401" d="M17.7,133.047c-1.36-.83-.587-7.023-.587-7.023s6.338-5.069,7.209-1.187,6.021,5.624,8.952,6.1c2.024.328,2.65,1.449,2.843,2.111Z" transform="translate(4.841 35.353)" fill="#1d3356"/>
          <path id="Path_18402" data-name="Path 18402" d="M20.954,62.649c0,6.1,2.369,14.7,2.369,14.7C25.128,86.09,40.793,145.7,42.3,146.27c2.515.948,8.93-1.043,8.831-1.936-4.884-43.817-6.6-80.181-6.887-81.589-.8-.62-20.261-6.893-23.292-.1" transform="translate(6.004 17.053)" fill="#2a557d"/>
          <path id="Path_18403" data-name="Path 18403" d="M37.765,4.831S33.484.162,32.162.006,25.392,2.46,25.08,3.49s5.991-1.031,6.341,0,.74,1.73,2.529,1.808A7.545,7.545,0,0,1,37.3,6.388Z" transform="translate(7.184 0)" fill="#ffb27d"/>
          <path id="Path_18404" data-name="Path 18404" d="M30.5,20.775l-.005,1.1a3.7,3.7,0,0,1-3.228,3.942c-3.475.5-6.107-1.341-6.013-4a37.517,37.517,0,0,0,.679-5.166,14.288,14.288,0,0,0-.124-2.058l6.734-.163,1.983.394Z" transform="translate(6.09 4.136)" fill="#ffb27d"/>
          <path id="Path_18405" data-name="Path 18405" d="M30.4,14.828l-.019,4.427c-7.624-.57-8.6-3.9-8.7-4.659l6.734-.163Z" transform="translate(6.215 4.136)" fill="#e8945b"/>
          <path id="Path_18406" data-name="Path 18406" d="M32.534,20.851S22.024,22.974,20.8,16.408,17.4,5.7,24.061,4.062s8.432.629,9.373,2.721,1.8,13.345-.9,14.067" transform="translate(5.577 1.004)" fill="#ffb27d"/>
          <path id="Path_18407" data-name="Path 18407" d="M40.438,58.817C29,110.909,27.533,147.224,27.533,147.224s-3.43,1-10.267.151c0,0-1.566-23.077-2.363-40.364-.233-5.068-2.621-34.99.67-49.5,1.326-5.846,26.163-4.608,24.865,1.3" transform="translate(3.968 15.389)" fill="#326290"/>
          <path id="Path_18408" data-name="Path 18408" d="M47.282,74.56s-3.4,3.092-12.369,3.035a99.492,99.492,0,0,1-16.678-2.055c-4.589-.951-3.86-2.612-3.487-6.01.477-4.355.669-12.251-1.782-25.635q-.542-2.962-1.265-6.289C9.64,28.162,21.516,22.689,23.049,20.46c8.723,8,11.158.579,11.158.579h0a13.169,13.169,0,0,0,7.831-1.624c3.533-2.113,3.233,11.4,3.24,15.763.005,4.686.979,16.239,1.114,21.331.175,6.608.889,18.053.889,18.053" transform="translate(3.285 5.499)" fill="#42b9f3"/>
          <path id="Path_18409" data-name="Path 18409" d="M55.924,16.809A10.9,10.9,0,0,1,55.617,18l0,0c-2.583,8.2-13.36,17.582-14.79,20.643-.841,1.8-1.189,7.1-1.16,6.929l-7.9-17.82S43.135,19.211,43.613,18c.724-1.836-10.4-11.924-10.4-11.924A2.767,2.767,0,0,1,33.339,3.6a2.98,2.98,0,0,1,1.418-1.611s21.95,10.784,21.166,14.82" transform="translate(9.103 0.57)" fill="#42b9f3"/>
          <path id="Path_18410" data-name="Path 18410" d="M14.786,55.1c-.807-5.513-.843-6.765-2.828-20.146.747.152,3.344-1.108,4.607,1.038C20.232,42.227,21.43,47,14.786,55.1" transform="translate(3.427 9.95)" fill="#3ca0d7"/>
          <path id="Path_18411" data-name="Path 18411" d="M12.016,53.28s5.455-3.3,7.146-2.879,5.359,2.012,5.132,2.986-4.489,1.64-5.23,1.526a3.64,3.64,0,0,0-2.424.439c-.486.419-4.352.575-4.825-.556s.2-1.516.2-1.516" transform="translate(3.338 14.432)" fill="#ffb27d"/>
          <path id="Path_18412" data-name="Path 18412" d="M26.332,20.176S17.993,21.8,14.747,24.49C11.431,27.231-.735,43.451.035,49.072.816,54.775,14.341,63.6,14.341,63.6s2.655.883,2.749-3.346c0,0-7.137-10.55-6.761-11.772.237-.767,10.756-9.2,10.756-9.2Z" transform="translate(0 5.782)" fill="#42b9f3"/>
          <path id="Path_18413" data-name="Path 18413" d="M36.616,64.1a5.727,5.727,0,0,1-1.63,3.794l-1.566,1.6a.964.964,0,0,1-1.415-.04l-2.172-2.48a3.441,3.441,0,0,1-.848-2.414c.089-1.967.246-5.759.34-9.414.077-2.962.113-5.838.036-7.582C29.116,41.994,27.083,24.3,27.083,24.3h1.339a71.542,71.542,0,0,1,5.9,16,62.021,62.021,0,0,1,1.3,7.26A135.57,135.57,0,0,1,36.616,64.1" transform="translate(7.761 6.964)" fill="#2a4e96"/>
          <path id="Path_18414" data-name="Path 18414" d="M25.671,23.426l3.718-.892a.563.563,0,0,1,.472.648A4.728,4.728,0,0,1,28.356,25.7c-.458.142-3.565-1.049-2.685-2.273" transform="translate(7.311 6.457)" fill="#2a557d"/>
          <path id="Path_18415" data-name="Path 18415" d="M19.275,20.637c-.028-.579,2.766-1.505,2.766-1.505s2.1,4.71,7.279,4.786c0,0-1.476,2.87-3.214,3.614,0,0-6.66-3.453-6.832-6.895" transform="translate(5.523 5.482)" fill="#3ca0d7"/>
          <path id="Path_18416" data-name="Path 18416" d="M27.083,23.852s1.739-2.725,1.748-4.488A12.125,12.125,0,0,1,32.38,21.1s-.214,3.388-1.539,5.088a14.3,14.3,0,0,0-3.758-2.338" transform="translate(7.761 5.549)" fill="#3ca0d7"/>
          <path id="Path_18417" data-name="Path 18417" d="M17.136,13.088c1.6,5.379,5.3,6.129,5.3,6.129a7.405,7.405,0,0,1-.486-2.259,2.2,2.2,0,0,1,.121-.794,3.424,3.424,0,0,0-.046-2.1c-.158-.462-.156-.906.229-1.126.616-.351,1.364.292,1.829.812a1.162,1.162,0,0,0,1.226.331l.008,0c1.814-.6.162-4.723,2.143-4.637,6.547.287,7.13-.732,8.193-1.824.768-.789.448-3.481-.612-3.773a20.027,20.027,0,0,1-4.4-1.737,9.434,9.434,0,0,0-9.264.01c-4.31,1.7-5.333,7.295-4.239,10.97" transform="translate(4.794 0.256)" fill="#2a4e96"/>
        </g>
      </g>
    </g>
  </g>
</svg>
