<svg xmlns="http://www.w3.org/2000/svg" width="171.541" height="180.974" viewBox="0 0 171.541 180.974">
  <g id="Group_2595" data-name="Group 2595" transform="translate(-558.604 -813.494)">
    <path id="Path_18435" data-name="Path 18435" d="M-11463.752-10479.336a4.57,4.57,0,0,0,3.674-2.25c1.518-2.312,1.156-4.608,0-5.664s-7.717.307-12.224,5.082-3.094,10.5-.575,11.7,7.82-.795,12.169-4.516,5.988-8.913,4.461-10.329-7.662,1.212-9.865,5.562-5.034,10.069-1.258,12.586,9.022-1,10.124-2.572,1.74-3.192,1-4.294-3.1.416-4.461,2.618a4.3,4.3,0,0,0,1.518,5.767c1.629,1,3-.157,3.888-.944a2.432,2.432,0,0,0,.786-2.571c-.314-.418-1.259.628-1.73,1.47s-.677,4.191.944,5.35a4.1,4.1,0,0,0,3.35.629" transform="translate(12072.658 11301.634)" fill="none" stroke="#1b75bb" stroke-width="1"/>
    <g id="Group_2303" data-name="Group 2303" transform="translate(558.604 812.367)">
      <g id="Group_2315" data-name="Group 2315" transform="translate(0 0)">
        <path id="Path_18220" data-name="Path 18220" d="M28.813,94.9V53.969c0-7.2,5.273-13.04,11.777-13.04H67.223c6.5,0,11.777,5.838,11.777,13.04V94.9Z" transform="translate(15.661 22.247)" fill="#9fd0f7"/>
        <path id="Path_18221" data-name="Path 18221" d="M30.646,94.9V53.969c0-7.2,5.273-13.04,11.777-13.04H69.056c6.5,0,11.779,5.838,11.779,13.04V94.9Z" transform="translate(16.658 22.247)" fill="#afd8fb"/>
        <path id="Path_18222" data-name="Path 18222" d="M89.672,82.36H32.729a3.916,3.916,0,0,1-3.916-3.916V75.9H89.672Z" transform="translate(15.661 41.254)" fill="#9fd0f7"/>
        <path id="Path_18223" data-name="Path 18223" d="M88.852,82.36H45.771a2.9,2.9,0,0,1-2.894-2.9v-.671a2.9,2.9,0,0,1,2.894-2.9H88.852a2.9,2.9,0,0,1,2.9,2.9v.671a2.9,2.9,0,0,1-2.9,2.9" transform="translate(23.306 41.254)" fill="#b0dfff"/>
        <path id="Path_18224" data-name="Path 18224" d="M51.083,126.823H47.411L46.38,80.084h5.611Z" transform="translate(25.21 43.53)" fill="#9fd0f7"/>
        <path id="Path_18225" data-name="Path 18225" d="M72.348,112.078H36.626v-3.226l18.208-1.642,17.515,1.642Z" transform="translate(19.908 58.274)" fill="#9fd0f7"/>
        <path id="Path_18226" data-name="Path 18226" d="M34.378,111.071a2.938,2.938,0,1,1,2.939,2.939,2.939,2.939,0,0,1-2.939-2.939" transform="translate(18.686 58.775)" fill="#9fd0f7"/>
        <path id="Path_18227" data-name="Path 18227" d="M57.52,111.071a2.938,2.938,0,1,1,2.939,2.939,2.939,2.939,0,0,1-2.939-2.939" transform="translate(31.265 58.775)" fill="#9fd0f7"/>
        <path id="Path_18228" data-name="Path 18228" d="M71.7,83.149H38.534a3.065,3.065,0,0,1-3.065-3.065H74.763A3.066,3.066,0,0,1,71.7,83.149" transform="translate(19.279 43.53)" fill="#9fd0f7"/>
        <path id="Path_18229" data-name="Path 18229" d="M13.108,47.119c.039.043.077.086.116.127l.009.009c.037.042.076.082.114.12,1.1.957,4.754-.758,8.287-3.918s5.643-6.6,4.816-7.8c-.034-.043-.069-.085-.108-.127l-.008-.009c-.036-.043-.074-.086-.113-.13A8.8,8.8,0,1,0,13.108,47.119" transform="translate(5.907 17.643)" fill="#9fd0f7"/>
        <path id="Path_18230" data-name="Path 18230" d="M12.465,46.269l.008.008a.568.568,0,0,0,.037.045.522.522,0,0,0,.079.076c1.1.957,4.754-.755,8.287-3.918s5.643-6.6,4.817-7.8c-.023-.029-.045-.06-.069-.086a.247.247,0,0,0-.04-.04l-.008-.009c-.75-.71-2.786-.077-5.166,1.463a25.861,25.861,0,0,0-3.152,2.428,27.336,27.336,0,0,0-2.247,2.254c-2.144,2.434-3.224,4.68-2.545,5.58" transform="translate(6.666 18.619)" fill="#b4defc"/>
        <path id="Path_18231" data-name="Path 18231" d="M14.043,40.073a3.627,3.627,0,0,0,5.4-4.682,25.743,25.743,0,0,0-3.152,2.428,27.364,27.364,0,0,0-2.249,2.254" transform="translate(7.633 19.237)" fill="#c5e7ff"/>
        <path id="Path_18232" data-name="Path 18232" d="M10.665,79.839h.807V65.95L3.221,44.895,17.954,33.477l-.494-.637L2.248,44.626,10.665,66.1Z" transform="translate(1.222 17.85)" fill="#9fd0f7"/>
        <path id="Path_18233" data-name="Path 18233" d="M14.392,35.332h0a.822.822,0,0,0,.194-1.147l-1.227-1.732a.823.823,0,0,0-1.341.952l1.227,1.73a.822.822,0,0,0,1.147.2" transform="translate(6.449 17.452)" fill="#9fd0f7"/>
        <path id="Path_18234" data-name="Path 18234" d="M4.126,40.869a1.068,1.068,0,1,0-1.068,1.068,1.068,1.068,0,0,0,1.068-1.068" transform="translate(1.082 21.634)" fill="#9fd0f7"/>
        <path id="Path_18235" data-name="Path 18235" d="M5.426,65.34h8.116v-.82a1.491,1.491,0,0,0-1.491-1.491H6.977A1.551,1.551,0,0,0,5.426,64.58Z" transform="translate(2.949 34.26)" fill="#9fd0f7"/>
        <rect id="Rectangle_1885" data-name="Rectangle 1885" width="1.704" height="12.906" transform="translate(11.442 84.784)" fill="#9fd0f7"/>
        <path id="Path_18236" data-name="Path 18236" d="M107.729,146.093h.073c.426,0,.769-.548.758-1.215l-1.15-78.014-3.39-.619,2.891,78.639c.025.678.384,1.209.818,1.209" transform="translate(56.54 36.008)" fill="#77b4e5"/>
        <path id="Path_18237" data-name="Path 18237" d="M8.389,146.093H8.316c-.426,0-.769-.548-.758-1.215l1.15-78.014,3.39-.619L9.207,144.884c-.025.678-.383,1.209-.818,1.209" transform="translate(4.108 36.008)" fill="#77b4e5"/>
        <path id="Path_18238" data-name="Path 18238" d="M169.559,69.234H1.98A1.981,1.981,0,0,1,0,67.252v-.744a1.981,1.981,0,0,1,1.98-1.982H169.559a1.982,1.982,0,0,1,1.982,1.982v.744a1.982,1.982,0,0,1-1.982,1.982" transform="translate(0 35.073)" fill="#77b4e5"/>
        <path id="Path_18239" data-name="Path 18239" d="M115.266,72.409H67.113l3.224-33.1H118.49Z" transform="translate(36.479 21.364)" fill="#b0d6ed"/>
        <path id="Path_18240" data-name="Path 18240" d="M116.394,72.409H68.241l3.224-33.1h48.153Z" transform="translate(37.093 21.364)" fill="#77b4e5"/>
        <path id="Path_18241" data-name="Path 18241" d="M88.628,70.725H80.082l2.8-19.078h8.544Z" transform="translate(43.529 28.073)" fill="#9fd0f7"/>
        <rect id="Rectangle_1886" data-name="Rectangle 1886" width="17.542" height="1.375" transform="translate(118.591 98.224)" fill="#9fd0f7"/>
        <path id="Path_18242" data-name="Path 18242" d="M23.346,46.669c0-.1,1.417-3.028.966-3.254s-1.26-.193-1.352.321a17.925,17.925,0,0,0,.386,2.933" transform="translate(12.473 23.526)" fill="#ffb27d"/>
        <path id="Path_18243" data-name="Path 18243" d="M25.552,49.3c0-.287-.332-4.677-1.073-5.551s-2.252-2.116-2.727-2.079-2.335,2.51-1.777,4.4,2.919,4.456,2.919,4.456Z" transform="translate(10.801 22.647)" fill="#ffb27d"/>
        <path id="Path_18244" data-name="Path 18244" d="M27.889,46.245l-4.311,1.292a.271.271,0,0,1-.336-.182l-2.464-8.219a.27.27,0,0,1,.182-.336l4.31-1.292a.272.272,0,0,1,.338.182l2.462,8.219a.27.27,0,0,1-.181.336" transform="translate(11.288 20.381)" fill="#f1a34f"/>
        <path id="Path_18245" data-name="Path 18245" d="M27.074,46.465l-3.91,1.172a.479.479,0,0,1-.6-.321L20.224,39.5a.481.481,0,0,1,.321-.6l3.91-1.172a.479.479,0,0,1,.6.323L27.4,45.868a.478.478,0,0,1-.321.6" transform="translate(10.982 20.496)" fill="#d86713"/>
        <path id="Path_18246" data-name="Path 18246" d="M20.8,42.794s1.8-2.761,2.234-2.609c.627.219-1.627,3.725-1.627,3.725s1.669-2.619,1.929-2.422c.6.449-.35,2.095-1.289,3.356,0,0,1.679-1.537,1.733-1.261.191.969-1.843,3.32-1.843,3.32L20.8,44.3Z" transform="translate(11.307 21.839)" fill="#ffb27d"/>
        <path id="Path_18247" data-name="Path 18247" d="M19.93,45.771c.086-.338.523-6.934.713-6.308s.633,4.084.633,4.084Z" transform="translate(10.833 21.427)" fill="#ffb27d"/>
        <path id="Path_18248" data-name="Path 18248" d="M47.608,45.694a48.86,48.86,0,0,1-2.257,12.958c-1.633,4.57-4.439,8.28-9.255,6.909q-.739-.211-1.431-.452l-.006,0A22.028,22.028,0,0,1,21.712,53.9c.73-1.2,2.84-1.644,2.84-1.644,1.97.107,10.626,3.782,11.178,3.894,2,.4,3.62-10.6,4.921-14.412s6.626-5.517,6.626-5.517Z" transform="translate(11.802 19.688)" fill="#42b9f3"/>
        <path id="Path_18249" data-name="Path 18249" d="M40.978,47.408l-.188,5.168c-1.633,4.57-4.441,8.278-9.255,6.907q-.739-.208-1.431-.452c.154.02,3.1.418,4.334-.815,1.267-1.269,1.135-5.473,3.47-8.275s3.07-2.533,3.07-2.533" transform="translate(16.363 25.765)" fill="#3ca0d7"/>
        <path id="Path_18250" data-name="Path 18250" d="M40.4,108.994s2.408,2.2,1.937,3.759-2.643,2.6-2.936,4.509-1.468,2.948-2.524,2.948h-5.04s-.778-1.341,1.1-1.746,2.587-2.647,2.47-4.729a36.72,36.72,0,0,1,.176-4.856l3.993-.925Z" transform="translate(17.216 58.679)" fill="#0b2442"/>
        <path id="Path_18251" data-name="Path 18251" d="M20.14,119.656H34.977a1.074,1.074,0,0,0,1.074-1.043,7.562,7.562,0,0,0-.529-3.2c-.792-1.755-1.292-2.062,2.053-7.171-1.006,1.036-3.718.562-6.006.255-.281.454-4.527,7.012-5.463,7.685-1.034.744-5.648.478-5.966,3.475" transform="translate(10.947 58.835)" fill="#0b2442"/>
        <path id="Path_18252" data-name="Path 18252" d="M40.023,62.9S29.266,83.2,26.342,94.374c-2.267,8.676,11.578,42.242,11.578,42.242a11.13,11.13,0,0,0,2.979-.8,4.833,4.833,0,0,0,2.5-2.624s-.821-24-3.623-35.611c-.63-2.606,3.047-11.013,9.252-15.618s8.791-19.418,5.1-20.42-14.1,1.358-14.1,1.358" transform="translate(14.182 33.317)" fill="#2a557d"/>
        <path id="Path_18253" data-name="Path 18253" d="M49.4,58.6s-11.308,41.454-14.738,50.763-8.871,29.065-8.871,29.065a14.325,14.325,0,0,0,7.843.85s16.536-24.223,17.255-34.931C51.22,99.4,67.851,79.782,66,66.989Z" transform="translate(14.017 31.853)" fill="#326290"/>
        <path id="Path_18254" data-name="Path 18254" d="M61.915,84.192a19.687,19.687,0,0,1-6.66,1.57h0c-4.87.409-12.165-.309-21.049-5.256,0,0-2.479-2.041.566-10.726,2.3-6.574,3.427-20.435,6.239-33.068,0,0,9.125-2.863,16.447-.389,5.594,1.892,5.037,10.476,6.069,19.415.1.835.207,1.672.337,2.507,1.528,9.786-1.943,25.947-1.943,25.947" transform="translate(18.073 19.196)" fill="#42b9f3"/>
        <path id="Path_18255" data-name="Path 18255" d="M36.191,26.363s6.228-10.138,11.05-4.921c0,0,3.153.806,4.959,5.714,1.843,5.009-1.026,9.431-2.944,8.718-1.229-.458-1.8,1.659-1.8,1.659Z" transform="translate(19.672 10.844)" fill="#2a557d"/>
        <path id="Path_18256" data-name="Path 18256" d="M42.732,21.744s.429-4.2,6.562-3.789c0,0-2.9.052-3.522,1.263,0,0,2.108-1.36,3.646-.7s2.19,3.539,2.108,4.455-1.264,3.78-2.3,3.93a4.82,4.82,0,0,1-2.389-.582Z" transform="translate(23.227 9.744)" fill="#2a557d"/>
        <path id="Path_18257" data-name="Path 18257" d="M47.791,38.638a28.3,28.3,0,0,1-2.122-8.05l-.37.128L39.109,32.9s.434,1.985.71,3.873c.113.773.194,2.15.247,3.354.054,1.23,1.266,1.346,2.5,1.29,3.272-.151,5.077-1.372,5.23-2.777" transform="translate(21.258 16.626)" fill="#ffb27d"/>
        <path id="Path_18258" data-name="Path 18258" d="M39.109,32.852s.434,1.985.71,3.873c3.552-.614,4.969-4.138,5.481-6.054Z" transform="translate(21.258 16.671)" fill="#e8945b"/>
        <path id="Path_18259" data-name="Path 18259" d="M47.761,34.608A18.947,18.947,0,0,0,49.289,28.8c.06-1.849-1.821-8.4-8.4-6.467A9.21,9.21,0,0,0,37.314,24.3c-1.315,1.2-3.112,3.624.08,9.116l.9,1.882Z" transform="translate(19.354 11.945)" fill="#2a557d"/>
        <path id="Path_18260" data-name="Path 18260" d="M40.009,38.581s8.457-1.077,7.7-6.333-.165-8.936-5.6-8.471-6.19,2.621-6.367,4.438,2.041,10.512,4.262,10.366" transform="translate(19.425 12.902)" fill="#ffb27d"/>
        <path id="Path_18261" data-name="Path 18261" d="M37.368,24.537s3.2,5.833,6.875,6.233S49.321,30,49.321,30a10.149,10.149,0,0,1-4.138-5.458s-6.5-3.191-7.815,0" transform="translate(20.311 12.568)" fill="#2a557d"/>
        <path id="Path_18262" data-name="Path 18262" d="M39.155,24.593A7.537,7.537,0,0,0,37.4,27.617c-.227,1.4-.019,4.181-.835,4.2,0,0-2.345-3.939-.732-6.593,1.712-2.812,3.322-.634,3.322-.634" transform="translate(19.169 12.931)" fill="#2a557d"/>
        <path id="Path_18263" data-name="Path 18263" d="M37.6,25.1s2.576,6.219,7.347,7.642c0,0-5.044-3.322-6.038-7.529S37.6,25.1,37.6,25.1" transform="translate(20.436 12.674)" fill="#2a557d"/>
        <path id="Path_18264" data-name="Path 18264" d="M54.675,77.246a19.687,19.687,0,0,1-6.66,1.57h0a7.46,7.46,0,0,1,.4-9.294c3.9-4.91-.3-13.971,2.7-18.9,2.09-3.43,4.123-2.632,5.168-1.831.1.835.207,1.672.337,2.507,1.528,9.786-1.943,25.947-1.943,25.947" transform="translate(25.313 26.143)" fill="#3ca0d7"/>
        <path id="Path_18265" data-name="Path 18265" d="M62.663,62.263s.519,1.207,1.243,1.287a15.2,15.2,0,0,1,3.788,1.334c.959.568.894,3.115-.065,3.354s-1.437-1.9-4.432-2.47c-1.016-.194-2.5.508-3.095-1.925Z" transform="translate(32.669 33.843)" fill="#ffb27d"/>
        <path id="Path_18266" data-name="Path 18266" d="M49.563,35.993c8.709,3.2,9.03,18.631,12.912,25.425,4,7.006,7.9,16.229,7.9,16.229s-.071.276-1.564.7a6.244,6.244,0,0,1-2.15.173S58.439,71.081,56.2,68.145,48.7,51.588,48.7,51.588s-2.592-16.866.866-15.595" transform="translate(25.963 19.527)" fill="#42b9f3"/>
        <path id="Path_18267" data-name="Path 18267" d="M60.241,63.677a3.294,3.294,0,0,0,1.5,1.875c1.284.838,2.314,1.678,2.437,1.158s-.713-1.077-.914-2.036-3.019-1-3.019-1" transform="translate(32.744 34.612)" fill="#ffb27d"/>
      </g>
    </g>
  </g>
</svg>
