<svg id="Group_2561" data-name="Group 2561" xmlns="http://www.w3.org/2000/svg" xmlns:xlink="http://www.w3.org/1999/xlink" width="408.238" height="236.482" viewBox="0 0 408.238 236.482">
  <defs>
    <clipPath id="clip-path">
      <rect id="Rectangle_2536" data-name="Rectangle 2536" width="408.238" height="236.482" fill="none"/>
    </clipPath>
    <clipPath id="clip-path-3">
      <rect id="Rectangle_2396" data-name="Rectangle 2396" width="34.314" height="30.509" fill="none"/>
    </clipPath>
    <clipPath id="clip-path-4">
      <rect id="Rectangle_2397" data-name="Rectangle 2397" width="39.2" height="23.439" fill="none"/>
    </clipPath>
    <clipPath id="clip-path-5">
      <rect id="Rectangle_2398" data-name="Rectangle 2398" width="83.716" height="62.337" fill="none"/>
    </clipPath>
    <clipPath id="clip-path-6">
      <rect id="Rectangle_2534" data-name="Rectangle 2534" width="20.678" height="41.141" fill="none"/>
    </clipPath>
  </defs>
  <g id="Group_2560" data-name="Group 2560" clip-path="url(#clip-path)">
    <g id="Group_2559" data-name="Group 2559">
      <g id="Group_2558" data-name="Group 2558" clip-path="url(#clip-path)">
        <path id="Path_19650" data-name="Path 19650" d="M20.407,236.153s-46.355-44.368.663-108.6C63.08,70.156,31.711,42.735,74.83,14.767,118.415-13.5,155.5,3.717,197.218,25.57S296.552-4.892,358.8,22.921s53.3,70.327,37.9,114.038c-13,36.9,26.529,63.56,4.967,99.258,0,0-382.583-1.387-381.259-.063" transform="translate(0 0)" fill="#dcf3fd"/>
        <g id="Group_2548" data-name="Group 2548" transform="translate(259.377 44.597)" opacity="0.4">
          <g id="Group_2547" data-name="Group 2547">
            <g id="Group_2546" data-name="Group 2546" clip-path="url(#clip-path-3)">
              <path id="Path_19651" data-name="Path 19651" d="M209.819,66.585s6.563-27.519,28.486-30.493a5.4,5.4,0,0,1,5.674,4.186c1.408,4.7-7.07,4.712-12.315,6.588s-17.481,9.852-21.845,19.72" transform="translate(-209.819 -36.076)" fill="#c8defb"/>
            </g>
          </g>
        </g>
        <g id="Group_2551" data-name="Group 2551" transform="translate(259.778 56.882)" opacity="0.4">
          <g id="Group_2550" data-name="Group 2550">
            <g id="Group_2549" data-name="Group 2549" clip-path="url(#clip-path-4)">
              <path id="Path_19652" data-name="Path 19652" d="M210.144,69.453s12.57-25.344,34.6-23.324a5.4,5.4,0,0,1,4.59,5.351c.318,4.9-7.946,3.005-13.479,3.657s-19.246,5.68-25.712,14.316" transform="translate(-210.144 -46.014)" fill="#c8defb"/>
            </g>
          </g>
        </g>
        <path id="Path_19653" data-name="Path 19653" d="M263.661,156.188s6.563-27.518,28.486-30.492a5.4,5.4,0,0,1,5.674,4.185c1.408,4.7-7.07,4.712-12.315,6.588s-17.481,9.852-21.845,19.72" transform="translate(62.275 29.685)" fill="#c8defb"/>
        <path id="Path_19654" data-name="Path 19654" d="M264.284,150.53s-3.6-28.06,15.855-38.6a5.4,5.4,0,0,1,6.787,1.907c2.98,3.9-4.945,6.908-9.186,10.519s-12.865,15.4-13.456,26.173" transform="translate(62.36 26.317)" fill="#dceaff"/>
        <path id="Path_19655" data-name="Path 19655" d="M330.872,149.3c-2.471-10.5-20.161-7.841-20.161-7.841s-12.551,17.807-16.038,18.124,7.755-17.318,7.755-17.318c-6.708-.876-24.132,6.783-24.132,6.783s.37,21.281-3.088,20.73.635-18.859.635-18.859c-6.578,1.732-12.91,9.114-12.91,9.114-8.013,12.1,7.959,21.753,7.959,21.753a34.581,34.581,0,0,1-4.874,15.679,25.081,25.081,0,0,0-2.216,4.144l1.775.061q.241-.706.528-1.36l0-.009.009-.019c.131-.27.319-.654.553-1.121h0v0c.577-1.042.97-1.813,1.221-2.371v0c1.738-3.275,4.225-7.532,5.816-8.389a3.464,3.464,0,0,1-.352-.827l.352.827c2.82,6.6,17.977,8.2,26.5,6.752s4.914-3.958.486-7.982-14.012-3.325-16.783-4.937,1.4-2.992,7.033-2.367,8.26,6.355,17.347,7.53S324.9,171.673,324.9,171.673c-6.36,1.739-17.53-2.109-17.891-4.292s16.345-1.4,18.971-1.964,7.36-5.612,4.889-16.113" transform="translate(61.572 33.342)" fill="#dceaff"/>
        <path id="Path_19656" data-name="Path 19656" d="M54.445,74.569c2.471-10.5,20.161-7.841,20.161-7.841S87.158,84.535,90.645,84.851,82.89,67.533,82.89,67.533c6.708-.876,24.132,6.783,24.132,6.783s-.37,21.281,3.088,20.73-.635-18.859-.635-18.859c6.578,1.732,12.91,9.114,12.91,9.114,8.013,12.1-7.959,21.753-7.959,21.753a34.581,34.581,0,0,0,4.874,15.679,25.081,25.081,0,0,1,2.216,4.144l-1.775.061q-.241-.706-.528-1.36l0-.009-.009-.019c-.131-.269-.319-.654-.553-1.121h0v0c-.577-1.042-.97-1.813-1.221-2.371v0c-1.738-3.275-4.225-7.532-5.816-8.389a3.467,3.467,0,0,0,.352-.826c-.112.263-.23.538-.352.826-2.82,6.6-17.977,8.2-26.5,6.752s-4.914-3.958-.486-7.982,14.012-3.325,16.783-4.937-1.4-2.992-7.033-2.367-8.26,6.355-17.347,7.53S60.414,96.938,60.414,96.938c6.36,1.739,17.53-2.109,17.891-4.292s-16.345-1.4-18.971-1.964-7.36-5.612-4.889-16.113" transform="translate(12.696 15.69)" fill="#dceaff"/>
        <path id="Path_19657" data-name="Path 19657" d="M141.856,32.5c5.193-9.949,22.342-2.716,22.342-2.716s8.07,21.182,11.5,22.4-3.36-19.454-3.36-19.454c6.987.842,22.58,13.048,22.58,13.048s-5.85,21.359-2.221,21.694S196.914,48.3,196.914,48.3c6.185,3.438,10.668,12.51,10.668,12.51,4.963,14.261-13.622,19.88-13.622,19.88a35.959,35.959,0,0,0,.878,17.059h0a26.035,26.035,0,0,1,1.167,4.748l-1.8-.4q-.061-.773-.182-1.507l0-.009,0-.021c-.062-.307-.153-.742-.268-1.273v0c-.314-1.2-.512-2.077-.621-2.7v-.006c-.909-3.747-2.32-8.681-3.7-9.954a3.565,3.565,0,0,0,.567-.742c-.182.236-.37.483-.567.742-4.543,5.934-20.233,3.642-28.452-.014s-3.935-5.254,1.564-8.171,14.981.255,18.189-.658-.647-3.377-6.48-4.2-9.964,4.281-19.426,3.125-12.7-20.119-12.7-20.119c5.963,3.391,18.214,2.385,19.14.278S145.141,51.244,142.637,50s-5.975-7.552-.781-17.5" transform="translate(32.869 6.435)" fill="#dceaff"/>
        <g id="Group_2554" data-name="Group 2554" transform="translate(307.201 51.419)" opacity="0.5">
          <g id="Group_2553" data-name="Group 2553">
            <g id="Group_2552" data-name="Group 2552" clip-path="url(#clip-path-5)">
              <path id="Path_19658" data-name="Path 19658" d="M322.088,43.972l10.032,38.375a3.192,3.192,0,0,1-2.275,3.884l-67.319,17.6a3.192,3.192,0,0,1-3.884-2.273L248.61,63.18a3.192,3.192,0,0,1,2.275-3.884L318.2,41.7a3.192,3.192,0,0,1,3.884,2.275" transform="translate(-248.506 -41.595)" fill="#a2c8f8"/>
              <path id="Path_19659" data-name="Path 19659" d="M289.226,79.183l-17.942,4.69a1.43,1.43,0,0,1-1.741-1.02l-.046-.172a1.431,1.431,0,0,1,1.02-1.741l17.942-4.69A1.429,1.429,0,0,1,290.2,77.27l.046.173a1.431,1.431,0,0,1-1.02,1.741" transform="translate(-243.559 -33.421)" fill="#c8dffd"/>
              <path id="Path_19660" data-name="Path 19660" d="M278.522,64.833a3.442,3.442,0,0,1,.079,1.7,1.563,1.563,0,0,1-2.659.695,4.115,4.115,0,0,1-.846-3.208,1.574,1.574,0,0,1,2.671-.7,3.448,3.448,0,0,1,.754,1.514m-.823.211a3.43,3.43,0,0,0-.409-1q-.38-.571-.867-.444t-.546.807A3.278,3.278,0,0,0,276,65.489q.438,1.674,1.292,1.45c.329-.085.508-.358.536-.817a3.389,3.389,0,0,0-.132-1.077" transform="translate(-242.242 -36.583)" fill="#c8dffd"/>
              <path id="Path_19661" data-name="Path 19661" d="M281.5,64.053a3.448,3.448,0,0,1,.079,1.7,1.563,1.563,0,0,1-2.659.695,4.115,4.115,0,0,1-.846-3.208,1.574,1.574,0,0,1,2.671-.7,3.449,3.449,0,0,1,.754,1.513m-.823.213a3.431,3.431,0,0,0-.409-1q-.38-.571-.867-.444t-.546.807a3.276,3.276,0,0,0,.126,1.078q.438,1.674,1.292,1.45c.329-.085.508-.358.536-.817a3.392,3.392,0,0,0-.132-1.077" transform="translate(-241.538 -36.767)" fill="#c8dffd"/>
              <path id="Path_19662" data-name="Path 19662" d="M286.018,62.874a3.442,3.442,0,0,1,.079,1.7,1.563,1.563,0,0,1-2.659.695,4.115,4.115,0,0,1-.846-3.208,1.574,1.574,0,0,1,2.671-.7,3.448,3.448,0,0,1,.754,1.514m-.823.211a3.431,3.431,0,0,0-.409-1q-.38-.571-.867-.444c-.334.087-.516.356-.548.807a3.313,3.313,0,0,0,.127,1.078q.438,1.674,1.292,1.45c.329-.085.508-.358.536-.817a3.39,3.39,0,0,0-.132-1.077" transform="translate(-240.471 -37.046)" fill="#c8dffd"/>
              <path id="Path_19663" data-name="Path 19663" d="M289,62.093a3.448,3.448,0,0,1,.079,1.7,1.563,1.563,0,0,1-2.659.695,4.115,4.115,0,0,1-.846-3.208,1.574,1.574,0,0,1,2.671-.7A3.449,3.449,0,0,1,289,62.093m-.823.213a3.431,3.431,0,0,0-.409-1q-.38-.571-.867-.444t-.546.807a3.28,3.28,0,0,0,.126,1.078q.438,1.674,1.292,1.45c.329-.085.508-.358.536-.817a3.392,3.392,0,0,0-.132-1.077" transform="translate(-239.768 -37.23)" fill="#c8dffd"/>
              <path id="Path_19664" data-name="Path 19664" d="M291.978,61.316a3.442,3.442,0,0,1,.079,1.7,1.563,1.563,0,0,1-2.659.695,4.115,4.115,0,0,1-.846-3.208,1.574,1.574,0,0,1,2.671-.7,3.448,3.448,0,0,1,.754,1.514m-.823.211a3.43,3.43,0,0,0-.409-1q-.38-.571-.867-.444c-.334.087-.515.356-.548.807a3.312,3.312,0,0,0,.127,1.078q.438,1.674,1.292,1.45c.329-.085.508-.358.537-.817a3.391,3.391,0,0,0-.132-1.077" transform="translate(-239.064 -37.414)" fill="#c8dffd"/>
              <path id="Path_19665" data-name="Path 19665" d="M294.958,60.537a3.41,3.41,0,0,1,.079,1.7,1.563,1.563,0,0,1-2.659.7,4.108,4.108,0,0,1-.844-3.208,1.574,1.574,0,0,1,2.671-.7,3.46,3.46,0,0,1,.753,1.514m-.822.211a3.428,3.428,0,0,0-.41-1c-.252-.381-.543-.529-.867-.444s-.514.356-.546.807a3.248,3.248,0,0,0,.127,1.078q.436,1.674,1.291,1.45c.33-.085.508-.358.538-.817a3.392,3.392,0,0,0-.132-1.077" transform="translate(-238.36 -37.598)" fill="#c8dffd"/>
              <path id="Path_19666" data-name="Path 19666" d="M299.475,59.354a3.452,3.452,0,0,1,.079,1.7,1.564,1.564,0,0,1-2.659.695,4.119,4.119,0,0,1-.846-3.208,1.574,1.574,0,0,1,2.671-.7,3.464,3.464,0,0,1,.754,1.513m-.823.213a3.423,3.423,0,0,0-.409-1q-.38-.571-.867-.444t-.548.807a3.321,3.321,0,0,0,.127,1.078q.438,1.674,1.292,1.45c.329-.085.508-.36.536-.818a3.392,3.392,0,0,0-.132-1.077" transform="translate(-237.293 -37.877)" fill="#c8dffd"/>
              <path id="Path_19667" data-name="Path 19667" d="M302.455,58.576a3.448,3.448,0,0,1,.079,1.7,1.563,1.563,0,0,1-2.659.695,4.115,4.115,0,0,1-.846-3.208,1.574,1.574,0,0,1,2.671-.7,3.449,3.449,0,0,1,.754,1.513m-.823.213a3.431,3.431,0,0,0-.409-1q-.38-.571-.867-.444c-.334.087-.515.356-.548.807a3.314,3.314,0,0,0,.127,1.078q.438,1.674,1.292,1.45c.329-.085.508-.358.536-.817a3.391,3.391,0,0,0-.132-1.077" transform="translate(-236.589 -38.06)" fill="#c8dffd"/>
              <path id="Path_19668" data-name="Path 19668" d="M305.435,57.8a3.442,3.442,0,0,1,.079,1.7,1.563,1.563,0,0,1-2.659.695,4.115,4.115,0,0,1-.846-3.208,1.574,1.574,0,0,1,2.671-.7,3.448,3.448,0,0,1,.754,1.514m-.823.211a3.431,3.431,0,0,0-.409-1q-.38-.571-.868-.444c-.333.087-.516.356-.546.807a3.313,3.313,0,0,0,.127,1.078q.438,1.674,1.292,1.45c.329-.085.508-.358.537-.817a3.391,3.391,0,0,0-.132-1.077" transform="translate(-235.885 -38.245)" fill="#c8dffd"/>
              <path id="Path_19669" data-name="Path 19669" d="M308.415,57.019a3.442,3.442,0,0,1,.079,1.7,1.563,1.563,0,0,1-2.659.695,4.115,4.115,0,0,1-.846-3.208,1.574,1.574,0,0,1,2.671-.7,3.448,3.448,0,0,1,.754,1.514m-.823.211a3.431,3.431,0,0,0-.409-1q-.38-.571-.867-.444c-.334.087-.516.356-.548.807a3.314,3.314,0,0,0,.127,1.078q.438,1.674,1.292,1.45c.329-.085.508-.358.536-.817a3.39,3.39,0,0,0-.132-1.077" transform="translate(-235.181 -38.429)" fill="#c8dffd"/>
              <path id="Path_19670" data-name="Path 19670" d="M272.148,56.808,254.589,61.4a1.426,1.426,0,1,1-.721-2.76l17.558-4.59a1.427,1.427,0,1,1,.722,2.76" transform="translate(-247.491 -38.665)" fill="#c8dffd"/>
              <path id="Path_19671" data-name="Path 19671" d="M303.052,50.068a2.185,2.185,0,0,0-.812-1.2.233.233,0,0,0-.342.072l-.061.105a.231.231,0,0,0,.061.3,1.6,1.6,0,0,1,.5,1.926.233.233,0,0,0,.094.292l.105.062a.235.235,0,0,0,.334-.105,2.191,2.191,0,0,0,.119-1.448" transform="translate(-235.917 -39.889)" fill="#c8dffd"/>
              <path id="Path_19672" data-name="Path 19672" d="M304.072,49.966a3.346,3.346,0,0,0-1.376-1.938.233.233,0,0,0-.33.079l-.033.061a.234.234,0,0,0,.073.31,2.825,2.825,0,0,1,.942,3.6.234.234,0,0,0,.088.307l.058.035a.233.233,0,0,0,.328-.091,3.352,3.352,0,0,0,.251-2.364" transform="translate(-235.8 -40.085)" fill="#c8dffd"/>
              <path id="Path_19673" data-name="Path 19673" d="M304.964,49.877A4.381,4.381,0,0,0,303.1,47.3a.233.233,0,0,0-.252.392,3.925,3.925,0,0,1,1.339,5.122.233.233,0,0,0,.412.218,4.386,4.386,0,0,0,.362-3.156" transform="translate(-235.695 -40.256)" fill="#c8dffd"/>
              <path id="Path_19674" data-name="Path 19674" d="M305.95,49.779a5.489,5.489,0,0,0-2.386-3.261.233.233,0,0,0-.328.082l-.059.1a.232.232,0,0,0,.077.312,4.923,4.923,0,0,1,1.7,6.5.232.232,0,0,0,.085.309l.1.062a.233.233,0,0,0,.325-.09,5.493,5.493,0,0,0,.485-4.011" transform="translate(-235.6 -40.441)" fill="#c8dffd"/>
            </g>
          </g>
        </g>
        <path id="Path_19675" data-name="Path 19675" d="M304.273,216.461H93.224a5.5,5.5,0,0,1-5.486-5.485V71.216a5.5,5.5,0,0,1,5.486-5.485H304.273a5.5,5.5,0,0,1,5.485,5.485v139.76a5.5,5.5,0,0,1-5.485,5.485" transform="translate(20.723 15.525)" fill="#2b5c8b"/>
        <rect id="Rectangle_2399" data-name="Rectangle 2399" width="212.006" height="143.931" transform="translate(113.469 86.522)" fill="#dae6ff"/>
        <path id="Path_19676" data-name="Path 19676" d="M337.257,192.573H70.327a3.943,3.943,0,0,1-3.943-3.943v-1.762a3.944,3.944,0,0,1,3.943-3.945h266.93a3.944,3.944,0,0,1,3.943,3.945v1.762a3.943,3.943,0,0,1-3.943,3.943" transform="translate(15.679 43.205)" fill="#2b5c8b"/>
        <rect id="Rectangle_2400" data-name="Rectangle 2400" width="212.006" height="140.108" transform="translate(113.469 86.522)" fill="#48a6cc"/>
        <path id="Path_19677" data-name="Path 19677" d="M34.592,192.5a10.689,10.689,0,0,1,.313-2.764c.313-.69,1.46-3.5,1.46-3.5H40.85a24.958,24.958,0,0,1,.888,3.4c.052.838,0,2.863,0,2.863Z" transform="translate(8.17 43.987)" fill="#234662"/>
        <path id="Path_19678" data-name="Path 19678" d="M59,192.5a10.69,10.69,0,0,0-.313-2.764c-.313-.69-1.46-3.5-1.46-3.5H52.74a24.958,24.958,0,0,0-.888,3.4c-.052.838,0,2.863,0,2.863Z" transform="translate(12.242 43.987)" fill="#234662"/>
        <path id="Path_19679" data-name="Path 19679" d="M44.189,97.574a37.579,37.579,0,0,1-.784,6.688l-4.952,3.265L57.1,110.162l-4.447-5.8s-1.343-6.193-.638-8.484-7.823,1.7-7.823,1.7" transform="translate(9.082 22.477)" fill="#ffae73"/>
        <path id="Path_19680" data-name="Path 19680" d="M43.071,97.63s1.475,3.353,4.251,3.28,3.409-3.041,3.409-3.041Z" transform="translate(10.173 23.059)" fill="#f99352"/>
        <path id="Path_19681" data-name="Path 19681" d="M42.086,97.984a40.091,40.091,0,0,0-1.523-5.511c-.626-1.281-1.147-7,5.789-7.292,0,0,2.66.3,4.12-.541,0,0,0,.838-.366,1.134A4.79,4.79,0,0,1,54.384,87.2c1.877,1.97-1.251,8.868-1.1,10.494Z" transform="translate(9.5 19.991)" fill="#2a3967"/>
        <path id="Path_19682" data-name="Path 19682" d="M47.344,101.655c-2.013-.033-5.716-2.565-5.716-5.7V91.064a1.993,1.993,0,0,1,1.878-2.081h7.677a1.993,1.993,0,0,1,1.878,2.081v4.615c0,3.287-3.408,6.015-5.716,5.977" transform="translate(9.832 21.017)" fill="#ffae73"/>
        <path id="Path_19683" data-name="Path 19683" d="M41.678,93.887s.011-2.94,2.475-3.391,7.978,1.433,8.761-.711-10.66-2.106-11.236-.739,0,4.841,0,4.841" transform="translate(9.784 20.805)" fill="#2a3967"/>
        <path id="Path_19684" data-name="Path 19684" d="M35.22,133.186s.785,22.638-.388,35.555.009,30.892.009,30.892a9.334,9.334,0,0,0,7.82,0s4.46-24.954,4.432-30.892c-.03-6.326,4.856-34.569,4.856-34.569Z" transform="translate(8.104 31.458)" fill="#2b5c8b"/>
        <path id="Path_19685" data-name="Path 19685" d="M60.765,199.64a9.327,9.327,0,0,1-7.819,0s-4.461-24.954-4.433-30.892c.012-2.671-.851-9.253-1.854-15.964-1.371-9.18-3-18.6-3-18.6l17.377-1.026s-1.434,22.678-.26,35.594-.01,30.892-.01,30.892" transform="translate(10.311 31.45)" fill="#2b5c8b"/>
        <path id="Path_19686" data-name="Path 19686" d="M63.011,144.194a91.893,91.893,0,0,1-14.167,1.355,72.383,72.383,0,0,1-8.7-.628c-2.82-.354-4.841-.727-4.841-.727s-1.5.124-.614-6.872A92.952,92.952,0,0,0,35,122.245c-.017-.55,0-1.2.031-1.925.288-5.766,2.135-16.146,3.54-16.7a26.989,26.989,0,0,1,5.788-1.093c0,.068,2.145,3.03,4.69,3.362A8.807,8.807,0,0,0,53.6,102.62a52.2,52.2,0,0,1,7.139,1.3s.266,1.1,1.271,20.18c.4,7.557,3.129,20.118,1,20.093" transform="translate(8.127 24.215)" fill="#69bbee"/>
        <path id="Path_19687" data-name="Path 19687" d="M47.94,166.5c.012-2.671-.85-9.253-1.854-15.964a30.8,30.8,0,0,1,3.575-7.866c3.208,8.5-1.721,23.83-1.721,23.83" transform="translate(10.885 33.698)" fill="#234662"/>
        <path id="Path_19688" data-name="Path 19688" d="M31.069,126.142c-.177.138.44,1.581,1.347,3.461,1.868,3.863,4.971,9.567,4.971,9.567a16.426,16.426,0,0,1-.942,2.6,64.23,64.23,0,0,1-10.733-9.7c-3.02-3.555-3.639-5.594-3.639-5.594,11.621-22.349,19.8-23.172,19.8-23.172l-.967,14.77s-9.3,7.638-9.838,8.061" transform="translate(5.213 24.401)" fill="#3ca0d7"/>
        <path id="Path_19689" data-name="Path 19689" d="M34.04,132.833s2.816-2.464,3.963-1.084,1.356,3.548.47,3.4-2.712-.936-2.973-.541-1.429,1.147-1.784.549.324-2.323.324-2.323" transform="translate(7.939 31.019)" fill="#ffae73"/>
        <path id="Path_19690" data-name="Path 19690" d="M36.691,134.147a16.277,16.277,0,0,1-.942,2.6,64.226,64.226,0,0,1-10.733-9.7,13.875,13.875,0,0,0,6.7-2.474c1.868,3.863,4.971,9.567,4.971,9.567" transform="translate(5.909 29.425)" fill="#ffae73"/>
        <path id="Path_19691" data-name="Path 19691" d="M74.478,126.442s-.619,2.038-3.639,5.593a64.171,64.171,0,0,1-10.733,9.7,16.426,16.426,0,0,1-.942-2.6s3.1-5.705,4.971-9.567c.907-1.88,1.524-3.323,1.347-3.461-.418-.329-6.1-4.992-8.634-7.071-.736-.6-1.2-.991-1.2-.991l-.581-14.55s7.793.6,19.414,22.954" transform="translate(13.006 24.443)" fill="#3ca0d7"/>
        <path id="Path_19692" data-name="Path 19692" d="M59.834,132.833s-2.817-2.464-3.964-1.084-1.356,3.548-.47,3.4,2.712-.936,2.973-.541,1.429,1.147,1.784.549-.323-2.323-.323-2.323" transform="translate(12.955 31.019)" fill="#ffae73"/>
        <path id="Path_19693" data-name="Path 19693" d="M58.381,134.147a16.277,16.277,0,0,0,.942,2.6,64.226,64.226,0,0,0,10.733-9.7,13.875,13.875,0,0,1-6.7-2.474c-1.868,3.863-4.971,9.567-4.971,9.567" transform="translate(13.789 29.425)" fill="#ffae73"/>
        <path id="Path_19694" data-name="Path 19694" d="M42.872,101.613a1.918,1.918,0,0,0-1.063,1.213s3.32,3.226,5.494,3.276Z" transform="translate(9.875 24)" fill="#2b5c8b"/>
        <path id="Path_19695" data-name="Path 19695" d="M46.253,106.134l4.286-4.652a1.894,1.894,0,0,1,.873,1.455s-3.315,3.32-5.159,3.2" transform="translate(10.925 23.969)" fill="#2b5c8b"/>
        <path id="Path_19696" data-name="Path 19696" d="M46.081,104.972S42.81,131.653,43.949,134.9a21.753,21.753,0,0,0,2,4.134,1.2,1.2,0,0,0,2.008,0c.868-1.424,2-3.486,2-4.533,0-1.695-2.482-29.551-2.482-29.551Z" transform="translate(10.324 24.788)" fill="#2b5c8b"/>
        <path id="Path_19697" data-name="Path 19697" d="M44.986,103.931a21.877,21.877,0,0,1,3.181-.072.313.313,0,0,1,.256.467c-.337.574-1.026,1.569-1.746,1.569-1.012,0-2.587-1.9-1.691-1.964" transform="translate(10.563 24.522)" fill="#2b5c8b"/>
        <path id="Path_19698" data-name="Path 19698" d="M44.956,96.709a2.237,2.237,0,0,0,1.721.773,2.07,2.07,0,0,0,1.61-.773,11.569,11.569,0,0,0-3.33,0" transform="translate(10.618 22.812)" fill="#fff"/>
        <rect id="Rectangle_2401" data-name="Rectangle 2401" width="137.11" height="146.009" transform="translate(163.415 70.193)" fill="#8ae3ff"/>
        <path id="Path_19699" data-name="Path 19699" d="M216.677,155.331H190.553a.041.041,0,0,1-.041-.041v-1.614a.04.04,0,0,1,.041-.04h26.124a.04.04,0,0,1,.041.04v1.614a.041.041,0,0,1-.041.041" transform="translate(44.998 36.288)" fill="#2b5c8b"/>
        <path id="Path_19700" data-name="Path 19700" d="M223.17,152.213H190.55a.039.039,0,0,1-.038-.038v-1.618a.039.039,0,0,1,.038-.038H223.17a.039.039,0,0,1,.038.038v1.618a.039.039,0,0,1-.038.038" transform="translate(44.998 35.551)" fill="#2b5c8b"/>
        <rect id="Rectangle_2402" data-name="Rectangle 2402" width="113.323" height="79.729" transform="translate(175.308 94.849)" fill="#69bbee"/>
        <rect id="Rectangle_2403" data-name="Rectangle 2403" width="0.182" height="84.23" transform="translate(201.883 90.348)" fill="#24198e"/>
        <rect id="Rectangle_2404" data-name="Rectangle 2404" width="0.182" height="84.23" transform="translate(272.844 90.348)" fill="#24198e"/>
        <rect id="Rectangle_2405" data-name="Rectangle 2405" width="0.182" height="84.23" transform="translate(213.933 90.348)" fill="#24198e"/>
        <rect id="Rectangle_2406" data-name="Rectangle 2406" width="113.323" height="0.182" transform="translate(175.308 159.662)" fill="#24198e"/>
        <rect id="Rectangle_2407" data-name="Rectangle 2407" width="113.323" height="0.182" transform="translate(175.308 142.976)" fill="#24198e"/>
        <rect id="Rectangle_2408" data-name="Rectangle 2408" width="113.323" height="0.182" transform="translate(175.308 126.289)" fill="#24198e"/>
        <rect id="Rectangle_2409" data-name="Rectangle 2409" width="113.323" height="0.182" transform="translate(175.308 109.602)" fill="#24198e"/>
        <rect id="Rectangle_2410" data-name="Rectangle 2410" width="113.323" height="16.179" transform="translate(175.308 80.43)" fill="#1c468a"/>
        <path id="Path_19701" data-name="Path 19701" d="M227.075,166.794a19.951,19.951,0,0,1-7.007,1.036c-2.987-.235-4.669-1.713-4.736-4.162a6.147,6.147,0,0,1,2.475-5.025c-.016-.132-.03-.266-.04-.4-.11-1.371.2-2.281.921-2.706,1.167-.687,2.9.252,2.972.293l-.387.626c-.388-.214-1.542-.684-2.179-.3-.55.326-.617,1.223-.569,1.951a16.782,16.782,0,0,1,5.312-2.245,29.985,29.985,0,0,1,5-.807,4.3,4.3,0,0,1,.043-.448c.052-.337.176-.731.527-.81a.589.589,0,0,1,.618.307,1.658,1.658,0,0,1,.235.879c.556-.011,1.073,0,1.53.03l.014-.027a7.835,7.835,0,0,1,.117-2.524c.194-.838.513-1.263.961-1.3a.591.591,0,0,1,.607.356c.251.569-.218,2.105-.9,3.58v.007c.635.1,1.068.268,1.2.5a.521.521,0,0,1-.155.68.944.944,0,0,1-1.122.226,1.059,1.059,0,0,1-.412-.444,7.56,7.56,0,0,1-1.512,2.126.79.79,0,0,1-.893.122.832.832,0,0,1-.194-.146,9.772,9.772,0,0,1-.585,1.141c-.8,1.331-1.706,2.016-2.615,1.974a1.518,1.518,0,0,1-.978-.409,13.309,13.309,0,0,1-1.76,2.733,2.125,2.125,0,0,1-2.292.768c-1.488-.439-2.835-2.472-3.339-4.882a5.289,5.289,0,0,0-1.848,4.161c.058,2.089,1.414,3.252,4.032,3.459,6.61.52,18.2-5.283,19.078-9.555-.715,3.472-6.214,7.43-12.134,9.241m-8.454-7.862c.4,2.542,1.75,4.409,2.894,4.747a1.345,1.345,0,0,0,1.466-.533,12.316,12.316,0,0,0,1.848-2.982,4.238,4.238,0,0,1-.319-.946,6.431,6.431,0,0,1,0-2.776,20.162,20.162,0,0,0-3.618,1.189,11.992,11.992,0,0,0-2.275,1.3m7.056,1.189a.883.883,0,0,0,.675.434c.581.023,1.279-.562,1.912-1.61a9.347,9.347,0,0,0,.792-1.689,6.726,6.726,0,0,1-.216-1.474c-.851.064-1.778.173-2.732.336.5.915.209,2.461-.431,4m4.18-2.852c.12.341.226.407.227.408a6.767,6.767,0,0,0,1.365-1.961c-.365-.012-.775-.015-1.223,0a8.353,8.353,0,0,1-.37,1.556m-4.5-.931a5.261,5.261,0,0,0-.1,2.71c.384-1.2.464-2.239.1-2.71m7.554-.462h0m-.114-3.719a4.277,4.277,0,0,0-.182.758,5.37,5.37,0,0,0,.182-.758" transform="translate(50.859 35.701)" fill="#2b5c8b"/>
        <rect id="Rectangle_2411" data-name="Rectangle 2411" width="1.014" height="5.771" transform="translate(184.132 85.635)" fill="#dcf3fd"/>
        <path id="Path_19702" data-name="Path 19702" d="M151.018,69.273h.939l3.092,3.99v-3.99h1v5.771H155.2l-3.182-4.105v4.105h-1Z" transform="translate(35.669 16.362)" fill="#dcf3fd"/>
        <path id="Path_19703" data-name="Path 19703" d="M155.886,69.273h1.121l1.739,4.435,1.731-4.435h1.1l-2.4,5.811h-.89Z" transform="translate(36.819 16.362)" fill="#dcf3fd"/>
        <path id="Path_19704" data-name="Path 19704" d="M160.794,72.177a3.017,3.017,0,1,1,3.009,2.984,2.956,2.956,0,0,1-3.009-2.984m4.971,0a1.976,1.976,0,0,0-1.962-2.052,1.954,1.954,0,0,0-1.946,2.052,1.976,1.976,0,0,0,1.962,2.052,1.954,1.954,0,0,0,1.946-2.052" transform="translate(37.978 16.343)" fill="#dcf3fd"/>
        <rect id="Rectangle_2412" data-name="Rectangle 2412" width="1.014" height="5.771" transform="translate(206.093 85.635)" fill="#dcf3fd"/>
        <path id="Path_19705" data-name="Path 19705" d="M168.576,72.177a2.92,2.92,0,0,1,2.976-2.984,3.008,3.008,0,0,1,2.26.9l-.651.75a2.3,2.3,0,0,0-1.616-.717,2.058,2.058,0,0,0,0,4.1,2.263,2.263,0,0,0,1.656-.749l.651.659a2.977,2.977,0,0,1-2.341,1.022,2.906,2.906,0,0,1-2.935-2.984" transform="translate(39.816 16.343)" fill="#dcf3fd"/>
        <path id="Path_19706" data-name="Path 19706" d="M173.7,69.273h4.278v.907h-3.265v1.5h2.894v.907h-2.894v1.549h3.306v.907H173.7Z" transform="translate(41.028 16.362)" fill="#dcf3fd"/>
        <path id="Path_19707" data-name="Path 19707" d="M137.143,204.5l-57.919-.36a4.676,4.676,0,0,1-4.646-4.7l.378-60.874a4.676,4.676,0,0,1,4.7-4.647l57.918.361a4.674,4.674,0,0,1,4.646,4.7l-.378,60.875a4.675,4.675,0,0,1-4.7,4.646" transform="translate(17.615 31.63)" fill="#3ca0d7"/>
        <path id="Path_19708" data-name="Path 19708" d="M135.471,149.3l-55.489-.345a2.058,2.058,0,0,1-2.043-2.069l.044-7.045a2.057,2.057,0,0,1,2.068-2.043l55.489.345a2.057,2.057,0,0,1,2.043,2.069l-.045,7.045a2.055,2.055,0,0,1-2.068,2.043" transform="translate(18.409 32.547)" fill="#69bbee"/>
        <path id="Path_19709" data-name="Path 19709" d="M95.926,170.785l-4.751-.03a2.149,2.149,0,0,1-2.136-2.162l.03-4.751a2.149,2.149,0,0,1,2.163-2.136l4.751.03a2.148,2.148,0,0,1,2.135,2.162l-.03,4.751a2.149,2.149,0,0,1-2.162,2.136" transform="translate(21.03 38.194)" fill="#69bbee"/>
        <path id="Path_19710" data-name="Path 19710" d="M95.87,179.768l-4.751-.03a2.149,2.149,0,0,1-2.136-2.162l.03-4.751a2.149,2.149,0,0,1,2.163-2.136l4.751.03a2.148,2.148,0,0,1,2.135,2.162l-.03,4.751a2.149,2.149,0,0,1-2.162,2.136" transform="translate(21.017 40.316)" fill="#69bbee"/>
        <path id="Path_19711" data-name="Path 19711" d="M95.814,188.751l-4.751-.03a2.149,2.149,0,0,1-2.136-2.162l.03-4.751a2.149,2.149,0,0,1,2.163-2.136l4.749.03a2.149,2.149,0,0,1,2.136,2.162l-.03,4.751a2.149,2.149,0,0,1-2.162,2.136" transform="translate(21.004 42.437)" fill="#69bbee"/>
        <path id="Path_19712" data-name="Path 19712" d="M105.6,170.845l-4.751-.03a2.149,2.149,0,0,1-2.136-2.162l.03-4.751a2.149,2.149,0,0,1,2.163-2.136l4.749.03a2.149,2.149,0,0,1,2.136,2.162l-.03,4.751a2.149,2.149,0,0,1-2.162,2.136" transform="translate(23.315 38.208)" fill="#69bbee"/>
        <path id="Path_19713" data-name="Path 19713" d="M105.544,179.828l-4.751-.03a2.149,2.149,0,0,1-2.136-2.162l.03-4.751a2.149,2.149,0,0,1,2.163-2.136l4.751.03a2.148,2.148,0,0,1,2.135,2.162l-.03,4.751a2.149,2.149,0,0,1-2.162,2.136" transform="translate(23.302 40.33)" fill="#69bbee"/>
        <path id="Path_19714" data-name="Path 19714" d="M105.488,188.811l-4.751-.03a2.149,2.149,0,0,1-2.136-2.162l.03-4.751a2.149,2.149,0,0,1,2.163-2.136l4.749.03a2.149,2.149,0,0,1,2.136,2.162l-.03,4.751a2.149,2.149,0,0,1-2.162,2.136" transform="translate(23.289 42.451)" fill="#69bbee"/>
        <path id="Path_19715" data-name="Path 19715" d="M114.872,179.886l-4.751-.03a2.149,2.149,0,0,1-2.136-2.162l.03-4.751a2.149,2.149,0,0,1,2.163-2.136l4.749.03A2.149,2.149,0,0,1,117.064,173l-.03,4.751a2.149,2.149,0,0,1-2.162,2.136" transform="translate(25.505 40.343)" fill="#69bbee"/>
        <path id="Path_19716" data-name="Path 19716" d="M114.816,188.869l-4.751-.03a2.149,2.149,0,0,1-2.136-2.162l.03-4.751a2.149,2.149,0,0,1,2.163-2.136l4.751.03a2.148,2.148,0,0,1,2.135,2.162l-.03,4.751a2.149,2.149,0,0,1-2.162,2.136" transform="translate(25.492 42.465)" fill="#69bbee"/>
        <path id="Path_19717" data-name="Path 19717" d="M86.749,159.811,82,159.782a2.149,2.149,0,0,1-2.136-2.162l.017-2.819a2.149,2.149,0,0,1,2.163-2.135l4.751.028a2.15,2.15,0,0,1,2.136,2.163l-.017,2.817a2.15,2.15,0,0,1-2.163,2.136" transform="translate(18.863 36.059)" fill="#69bbee"/>
        <path id="Path_19718" data-name="Path 19718" d="M86.69,169.23l-4.751-.03a2.149,2.149,0,0,1-2.136-2.162l.017-2.819a2.151,2.151,0,0,1,2.163-2.136l4.751.03a2.15,2.15,0,0,1,2.136,2.163l-.017,2.817a2.15,2.15,0,0,1-2.163,2.136" transform="translate(18.849 38.283)" fill="#69bbee"/>
        <path id="Path_19719" data-name="Path 19719" d="M86.632,178.649l-4.751-.03a2.149,2.149,0,0,1-2.136-2.162l.017-2.819a2.149,2.149,0,0,1,2.163-2.135l4.751.028a2.15,2.15,0,0,1,2.136,2.163l-.017,2.817a2.151,2.151,0,0,1-2.163,2.136" transform="translate(18.835 40.508)" fill="#69bbee"/>
        <path id="Path_19720" data-name="Path 19720" d="M86.573,188.068l-4.751-.03a2.149,2.149,0,0,1-2.136-2.162l.017-2.819a2.151,2.151,0,0,1,2.163-2.136l4.751.03a2.15,2.15,0,0,1,2.136,2.163l-.019,2.817a2.149,2.149,0,0,1-2.162,2.136" transform="translate(18.821 42.732)" fill="#69bbee"/>
        <path id="Path_19721" data-name="Path 19721" d="M95.981,161.8l-4.751-.03a2.149,2.149,0,0,1-2.136-2.162l.03-4.751a2.149,2.149,0,0,1,2.163-2.136l4.751.03a2.148,2.148,0,0,1,2.135,2.162l-.03,4.751a2.149,2.149,0,0,1-2.162,2.136" transform="translate(21.043 36.072)" fill="#69bbee"/>
        <path id="Path_19722" data-name="Path 19722" d="M105.655,161.862l-4.751-.03a2.149,2.149,0,0,1-2.136-2.162l.03-4.751a2.149,2.149,0,0,1,2.163-2.136l4.751.03a2.148,2.148,0,0,1,2.135,2.162l-.028,4.751a2.15,2.15,0,0,1-2.163,2.136" transform="translate(23.328 36.086)" fill="#69bbee"/>
        <path id="Path_19723" data-name="Path 19723" d="M114.984,161.92l-4.751-.03a2.149,2.149,0,0,1-2.136-2.162l.03-4.751a2.149,2.149,0,0,1,2.163-2.136l4.749.03a2.149,2.149,0,0,1,2.136,2.162l-.03,4.751a2.149,2.149,0,0,1-2.162,2.136" transform="translate(25.532 36.1)" fill="#69bbee"/>
        <path id="Path_19724" data-name="Path 19724" d="M123.695,171l-4.751-.03a2.149,2.149,0,0,1-2.136-2.162l.03-4.751A2.149,2.149,0,0,1,119,161.922l4.751.03a2.148,2.148,0,0,1,2.135,2.162l-.028,4.751A2.15,2.15,0,0,1,123.695,171" transform="translate(27.589 38.245)" fill="#69bbee"/>
        <path id="Path_19725" data-name="Path 19725" d="M123.751,162.018l-4.751-.03a2.149,2.149,0,0,1-2.136-2.162l.03-4.751a2.149,2.149,0,0,1,2.163-2.136l4.751.03a2.148,2.148,0,0,1,2.135,2.162l-.03,4.751a2.149,2.149,0,0,1-2.162,2.136" transform="translate(27.602 36.123)" fill="#69bbee"/>
        <path id="Path_19726" data-name="Path 19726" d="M123.583,191.088l-4.751-.03A2.149,2.149,0,0,1,116.7,188.9l.1-15.855a2.149,2.149,0,0,1,2.162-2.136l4.751.03a2.149,2.149,0,0,1,2.136,2.162l-.1,15.855a2.149,2.149,0,0,1-2.162,2.136" transform="translate(27.563 40.367)" fill="#69bbee"/>
        <path id="Path_19727" data-name="Path 19727" d="M93.688,142.727l.01-1.522.221-.579a.464.464,0,0,1,.36.365l-.012,2.029-.146.145Zm.433.582.142.146-.012,2.029a.466.466,0,0,1-.365.361l-.214-.581.01-1.523Z" transform="translate(22.125 33.215)" fill="#2b5c8b"/>
        <path id="Path_19728" data-name="Path 19728" d="M95.86,141.365l-.009,1.376-.438.433-.143-.146.011-1.884Zm-.6,3.982.011-1.884.146-.145.433.438-.009,1.377Zm2.533.523-2.173-.014a.464.464,0,0,1-.361-.365l.581-.214,1.739.011ZM97.6,141.23l-1.732-.011L95.29,141a.464.464,0,0,1,.365-.361l2.166.014Zm.135,1.523.01-1.522.221-.579a.464.464,0,0,1,.36.365l-.012,2.029-.146.145Zm.431.582.145.146L98.3,145.51a.466.466,0,0,1-.365.361l-.213-.581.009-1.522Z" transform="translate(22.498 33.218)" fill="#2b5c8b"/>
        <path id="Path_19729" data-name="Path 19729" d="M99.436,141.387l-.009,1.376-.438.433-.143-.146.011-1.884Zm-.6,3.982.011-1.884.146-.145.433.438-.009,1.377Zm2.533.523-2.173-.014a.464.464,0,0,1-.361-.365l.581-.214,1.739.011Zm-.188-4.639-1.732-.011-.579-.22a.464.464,0,0,1,.365-.361l2.166.014Zm.135,1.523.01-1.522.221-.579a.464.464,0,0,1,.36.365l-.012,2.029-.146.145Zm.431.582.145.146-.014,2.029a.464.464,0,0,1-.365.361l-.214-.581.01-1.522Z" transform="translate(23.343 33.223)" fill="#2b5c8b"/>
        <path id="Path_19730" data-name="Path 19730" d="M103.012,141.408,103,142.785l-.438.433-.145-.146.012-1.884Zm-.6,3.983.011-1.884.146-.145.433.438-.009,1.377Zm2.533.523-2.174-.014a.464.464,0,0,1-.36-.365l.581-.214,1.739.011Zm-.188-4.639-1.733-.011-.577-.22a.464.464,0,0,1,.365-.361l2.166.014Zm.135,1.523.01-1.522.221-.579a.464.464,0,0,1,.36.365l-.012,2.029-.146.145Zm.431.582.145.146-.014,2.029a.466.466,0,0,1-.365.361l-.214-.581.01-1.523Z" transform="translate(24.188 33.228)" fill="#2b5c8b"/>
        <path id="Path_19731" data-name="Path 19731" d="M106.588,141.431l-.009,1.376-.438.433-.143-.146.011-1.884Zm-.6,3.982.012-1.884.145-.145.433.438-.009,1.377Zm2.533.523-2.173-.014a.467.467,0,0,1-.361-.365l.581-.214,1.739.011Zm-.187-4.639-1.733-.011-.579-.22a.464.464,0,0,1,.365-.361l2.166.014Zm.134,1.523.01-1.522.221-.579a.464.464,0,0,1,.36.365l-.012,2.029-.145.145Zm.433.582.143.146-.014,2.029a.466.466,0,0,1-.365.361l-.214-.581.01-1.522Z" transform="translate(25.032 33.233)" fill="#2b5c8b"/>
        <path id="Path_19732" data-name="Path 19732" d="M110.164,141.453l-.009,1.376-.438.434-.143-.146.011-1.885Zm-.6,3.982.011-1.884.146-.145.433.438-.009,1.377Zm2.533.523-2.174-.014a.464.464,0,0,1-.36-.363l.581-.215,1.739.011Zm-.188-4.639-1.732-.011-.579-.22a.466.466,0,0,1,.365-.361l2.166.014Zm.135,1.524.01-1.523.221-.579a.464.464,0,0,1,.36.365l-.012,2.029-.146.146Zm.431.581.145.146L112.6,145.6a.464.464,0,0,1-.365.361l-.214-.581.01-1.522Z" transform="translate(25.877 33.238)" fill="#2b5c8b"/>
        <path id="Path_19733" data-name="Path 19733" d="M113.74,141.475l-.009,1.377-.438.433-.143-.146.011-1.884Zm-.6,3.983.011-1.884.146-.145.433.438-.009,1.377Zm2.533.523-2.174-.014a.464.464,0,0,1-.36-.365l.581-.214,1.739.011Zm-.188-4.639-1.732-.011-.579-.22a.464.464,0,0,1,.365-.361l2.166.014Zm.135,1.523.01-1.522.221-.579a.464.464,0,0,1,.36.365l-.012,2.029-.146.145Zm.431.582.145.146-.014,2.029a.466.466,0,0,1-.365.361l-.214-.581.01-1.523Z" transform="translate(26.721 33.244)" fill="#2b5c8b"/>
        <path id="Path_19734" data-name="Path 19734" d="M117.316,141.5l-.009,1.376-.438.433-.145-.146.012-1.884Zm-.6,3.982.011-1.884.146-.145.433.438-.009,1.377Zm2.533.523-2.174-.014a.464.464,0,0,1-.36-.365l.581-.214,1.739.011Zm-.188-4.639-1.733-.011-.577-.22a.464.464,0,0,1,.365-.361l2.166.014Zm.135,1.523.01-1.522.221-.579a.464.464,0,0,1,.36.365l-.012,2.029-.146.145Zm.431.582.145.146-.014,2.029a.464.464,0,0,1-.365.361l-.214-.581.01-1.522Z" transform="translate(27.566 33.249)" fill="#2b5c8b"/>
        <path id="Path_19735" data-name="Path 19735" d="M120.892,141.52l-.009,1.376-.438.433-.143-.146.011-1.884Zm-.6,3.982.011-1.884.146-.145.433.438-.009,1.377Zm2.533.523-2.174-.014a.464.464,0,0,1-.36-.365l.581-.214,1.739.011Zm-.188-4.639-1.732-.011-.579-.22a.464.464,0,0,1,.365-.361l2.166.014Zm.135,1.523.01-1.522.221-.579a.464.464,0,0,1,.36.365l-.012,2.029-.146.145Zm.431.582.143.146-.012,2.029a.464.464,0,0,1-.365.361l-.214-.581.01-1.522Z" transform="translate(28.411 33.254)" fill="#2b5c8b"/>
        <path id="Path_19736" data-name="Path 19736" d="M180.641,188.355v2.357a.8.8,0,0,1-.185.507,1.08,1.08,0,0,1-.507.339.974.974,0,0,1-.2.048,1.22,1.22,0,0,1-.19.014h-44.7a1.045,1.045,0,0,1-1.071-.773.673.673,0,0,1-.01-.089V188.31a.716.716,0,0,1,.01-.09,1.046,1.046,0,0,1,1.071-.771h44.7a1.224,1.224,0,0,1,.19.014,1.168,1.168,0,0,1,.2.047,1.092,1.092,0,0,1,.507.34.8.8,0,0,1,.185.507" transform="translate(31.596 44.274)" fill="#ffb600"/>
        <path id="Path_19737" data-name="Path 19737" d="M158.689,191.62h-23.95a.958.958,0,0,1-.928-.672.658.658,0,0,1-.026-.1.673.673,0,0,1-.01-.089V188.31a.716.716,0,0,1,.01-.09.742.742,0,0,1,.026-.1.958.958,0,0,1,.928-.671h21.009a7.314,7.314,0,0,0,2.941,4.172" transform="translate(31.596 44.274)" fill="#ff9f00"/>
        <rect id="Rectangle_2413" data-name="Rectangle 2413" width="0.508" height="4.173" transform="translate(206.288 231.721)" fill="#ff9f00"/>
        <rect id="Rectangle_2414" data-name="Rectangle 2414" width="0.508" height="4.173" transform="translate(204.569 231.721)" fill="#ff9f00"/>
        <rect id="Rectangle_2415" data-name="Rectangle 2415" width="0.508" height="4.173" transform="translate(202.507 231.721)" fill="#ff9f00"/>
        <rect id="Rectangle_2416" data-name="Rectangle 2416" width="0.508" height="4.173" transform="translate(199.346 231.721)" fill="#ff9f00"/>
        <rect id="Rectangle_2417" data-name="Rectangle 2417" width="0.508" height="4.173" transform="translate(196.002 231.721)" fill="#ff9f00"/>
        <rect id="Rectangle_2418" data-name="Rectangle 2418" width="0.508" height="4.173" transform="translate(190.878 231.721)" fill="#ff9f00"/>
        <rect id="Rectangle_2419" data-name="Rectangle 2419" width="0.508" height="4.173" transform="translate(186.079 231.721)" fill="#ff9f00"/>
        <rect id="Rectangle_2420" data-name="Rectangle 2420" width="0.508" height="4.173" transform="translate(181.794 231.721)" fill="#ff9f00"/>
        <rect id="Rectangle_2421" data-name="Rectangle 2421" width="0.508" height="4.173" transform="translate(207.926 231.721)" fill="#ff9f00"/>
        <rect id="Rectangle_2422" data-name="Rectangle 2422" width="0.508" height="4.173" transform="translate(209.007 231.721)" fill="#ff9f00"/>
        <rect id="Rectangle_2423" data-name="Rectangle 2423" width="0.508" height="4.173" transform="translate(210.051 231.721)" fill="#ff9f00"/>
        <path id="Path_19738" data-name="Path 19738" d="M171.062,187.462v4.144a1.211,1.211,0,0,1-.19.015h-.318v-4.173h.318a1.215,1.215,0,0,1,.19.015" transform="translate(40.284 44.274)" fill="#ff9f00"/>
        <path id="Path_19739" data-name="Path 19739" d="M171.633,187.837v3.371a1.089,1.089,0,0,1-.508.34V187.5a1.071,1.071,0,0,1,.508.34" transform="translate(40.418 44.285)" fill="#ff9f00"/>
        <path id="Path_19740" data-name="Path 19740" d="M176.773,184.981v2.356a.811.811,0,0,1-.184.508,1.044,1.044,0,0,1-.1.108,1.111,1.111,0,0,1-.405.231,1.142,1.142,0,0,1-.2.047,1.377,1.377,0,0,1-.189.015h-44.7a1.046,1.046,0,0,1-1.069-.774.676.676,0,0,1-.01-.088c0-.015,0-.031,0-.047v-2.356c0-.016,0-.032,0-.047a.72.72,0,0,1,.01-.089,1.047,1.047,0,0,1,1.069-.774h44.7c.027,0,.057,0,.084,0l.031,0h.006a.167.167,0,0,1,.041,0l.027,0a1.139,1.139,0,0,1,.2.046c.037.012.073.027.109.042h0l.069.033.04.022.036.022a.864.864,0,0,1,.132.1c.014.011.025.025.037.036s.015.014.022.02l.011.014.01.01a.37.37,0,0,1,.041.046.8.8,0,0,1,.184.507" transform="translate(30.683 43.476)" fill="#ffb600"/>
        <path id="Path_19741" data-name="Path 19741" d="M154.822,188.246h-23.95a.957.957,0,0,1-.927-.674.7.7,0,0,1-.026-.1c0-.03-.009-.058-.01-.088s0-.031,0-.047v-2.356c0-.016,0-.032,0-.048s.006-.058.01-.088a.68.68,0,0,1,.026-.1.958.958,0,0,1,.927-.675h21.009c.009.036.019.069.03.1a7.292,7.292,0,0,0,2.911,4.071" transform="translate(30.683 43.476)" fill="#ff9f00"/>
        <rect id="Rectangle_2424" data-name="Rectangle 2424" width="0.508" height="4.173" transform="translate(201.509 227.547)" fill="#ff9f00"/>
        <rect id="Rectangle_2425" data-name="Rectangle 2425" width="0.508" height="4.173" transform="translate(199.79 227.547)" fill="#ff9f00"/>
        <rect id="Rectangle_2426" data-name="Rectangle 2426" width="0.508" height="4.173" transform="translate(197.727 227.547)" fill="#ff9f00"/>
        <rect id="Rectangle_2427" data-name="Rectangle 2427" width="0.508" height="4.173" transform="translate(194.566 227.547)" fill="#ff9f00"/>
        <rect id="Rectangle_2428" data-name="Rectangle 2428" width="0.508" height="4.173" transform="translate(191.223 227.547)" fill="#ff9f00"/>
        <rect id="Rectangle_2429" data-name="Rectangle 2429" width="0.508" height="4.173" transform="translate(186.098 227.547)" fill="#ff9f00"/>
        <rect id="Rectangle_2430" data-name="Rectangle 2430" width="0.508" height="4.173" transform="translate(181.3 227.547)" fill="#ff9f00"/>
        <rect id="Rectangle_2431" data-name="Rectangle 2431" width="0.508" height="4.173" transform="translate(177.015 227.547)" fill="#ff9f00"/>
        <rect id="Rectangle_2432" data-name="Rectangle 2432" width="0.508" height="4.173" transform="translate(203.146 227.547)" fill="#ff9f00"/>
        <rect id="Rectangle_2433" data-name="Rectangle 2433" width="0.508" height="4.173" transform="translate(204.228 227.547)" fill="#ff9f00"/>
        <rect id="Rectangle_2434" data-name="Rectangle 2434" width="0.508" height="4.173" transform="translate(205.272 227.547)" fill="#ff9f00"/>
        <path id="Path_19742" data-name="Path 19742" d="M167.2,184.086v4.144a1.2,1.2,0,0,1-.19.015h-.318v-4.173H167a1.2,1.2,0,0,1,.19.015" transform="translate(39.37 43.476)" fill="#ff9f00"/>
        <path id="Path_19743" data-name="Path 19743" d="M167.766,184.461v3.371a1.089,1.089,0,0,1-.508.34v-4.051a1.071,1.071,0,0,1,.508.34" transform="translate(39.505 43.488)" fill="#ff9f00"/>
        <path id="Path_19744" data-name="Path 19744" d="M178.641,181.687v2.357a.8.8,0,0,1-.185.507,1.074,1.074,0,0,1-.507.339,1.265,1.265,0,0,1-.2.048,1.349,1.349,0,0,1-.189.014h-44.7a1.226,1.226,0,0,1-.5-.1.94.94,0,0,1-.57-.659c0-.02-.006-.038-.009-.058s0-.027,0-.041,0-.031,0-.046v-2.357c0-.015,0-.031,0-.046a.529.529,0,0,1,.01-.089,1.045,1.045,0,0,1,1.069-.773h44.7a1.187,1.187,0,0,1,.189.014,1.139,1.139,0,0,1,.2.046,1.1,1.1,0,0,1,.507.341.8.8,0,0,1,.185.507" transform="translate(31.125 42.699)" fill="#ffb600"/>
        <path id="Path_19745" data-name="Path 19745" d="M156.69,184.952H132.74a1,1,0,0,1-.444-.1.917.917,0,0,1-.508-.659c0-.02-.006-.038-.009-.058s0-.027,0-.041,0-.031,0-.046v-2.357c0-.016,0-.031,0-.046a.529.529,0,0,1,.01-.089.917.917,0,0,1,.025-.1.955.955,0,0,1,.928-.676h21.009a7.326,7.326,0,0,0,2.794,4.068c.048.036.1.07.147.1" transform="translate(31.125 42.699)" fill="#ff9f00"/>
        <rect id="Rectangle_2435" data-name="Rectangle 2435" width="0.508" height="4.173" transform="translate(203.819 223.478)" fill="#ff9f00"/>
        <rect id="Rectangle_2436" data-name="Rectangle 2436" width="0.508" height="4.173" transform="translate(202.099 223.478)" fill="#ff9f00"/>
        <rect id="Rectangle_2437" data-name="Rectangle 2437" width="0.508" height="4.173" transform="translate(200.037 223.478)" fill="#ff9f00"/>
        <rect id="Rectangle_2438" data-name="Rectangle 2438" width="0.508" height="4.173" transform="translate(196.876 223.478)" fill="#ff9f00"/>
        <rect id="Rectangle_2439" data-name="Rectangle 2439" width="0.508" height="4.173" transform="translate(193.533 223.478)" fill="#ff9f00"/>
        <rect id="Rectangle_2440" data-name="Rectangle 2440" width="0.508" height="4.173" transform="translate(188.408 223.478)" fill="#ff9f00"/>
        <rect id="Rectangle_2441" data-name="Rectangle 2441" width="0.508" height="4.173" transform="translate(183.609 223.478)" fill="#ff9f00"/>
        <rect id="Rectangle_2442" data-name="Rectangle 2442" width="0.508" height="4.173" transform="translate(179.325 223.478)" fill="#ff9f00"/>
        <rect id="Rectangle_2443" data-name="Rectangle 2443" width="0.508" height="4.173" transform="translate(205.456 223.478)" fill="#ff9f00"/>
        <rect id="Rectangle_2444" data-name="Rectangle 2444" width="0.508" height="4.173" transform="translate(206.538 223.478)" fill="#ff9f00"/>
        <rect id="Rectangle_2445" data-name="Rectangle 2445" width="0.508" height="4.173" transform="translate(207.581 223.478)" fill="#ff9f00"/>
        <path id="Path_19746" data-name="Path 19746" d="M169.064,180.793v4.144a1.211,1.211,0,0,1-.19.015h-.318v-4.173h.318a1.211,1.211,0,0,1,.19.015" transform="translate(39.812 42.698)" fill="#ff9f00"/>
        <path id="Path_19747" data-name="Path 19747" d="M169.635,181.168v3.371a1.08,1.08,0,0,1-.508.34v-4.051a1.08,1.08,0,0,1,.508.34" transform="translate(39.947 42.71)" fill="#ff9f00"/>
        <path id="Path_19748" data-name="Path 19748" d="M179.508,178.312v2.356a.8.8,0,0,1-.185.507c-.016.02-.032.037-.049.056a1.047,1.047,0,0,1-.308.225,1.215,1.215,0,0,1-.15.059,1.167,1.167,0,0,1-.2.047c-.031,0-.061.009-.093.011s-.067,0-.1,0h-44.7a1.046,1.046,0,0,1-1.071-.774.681.681,0,0,1-.01-.088v-2.45a1,1,0,0,1,.952-.855c.042,0,.085-.006.129-.006h44.7c.031,0,.064,0,.1,0s.062.006.093.011a1.167,1.167,0,0,1,.2.046,1.092,1.092,0,0,1,.507.34.8.8,0,0,1,.185.508" transform="translate(31.329 41.901)" fill="#ffb600"/>
        <path id="Path_19749" data-name="Path 19749" d="M157.557,181.577h-23.95a.959.959,0,0,1-.928-.674.662.662,0,0,1-.026-.1.706.706,0,0,1-.01-.088v-2.451a.939.939,0,0,1,.85-.854c.037,0,.075-.007.114-.007h21.009v.007a7.32,7.32,0,0,0,2.94,4.167" transform="translate(31.329 41.901)" fill="#ff9f00"/>
        <rect id="Rectangle_2446" data-name="Rectangle 2446" width="0.508" height="4.173" transform="translate(204.89 219.304)" fill="#ff9f00"/>
        <rect id="Rectangle_2447" data-name="Rectangle 2447" width="0.508" height="4.173" transform="translate(203.17 219.304)" fill="#ff9f00"/>
        <rect id="Rectangle_2448" data-name="Rectangle 2448" width="0.508" height="4.173" transform="translate(201.108 219.304)" fill="#ff9f00"/>
        <rect id="Rectangle_2449" data-name="Rectangle 2449" width="0.508" height="4.173" transform="translate(197.947 219.304)" fill="#ff9f00"/>
        <rect id="Rectangle_2450" data-name="Rectangle 2450" width="0.508" height="4.173" transform="translate(194.604 219.304)" fill="#ff9f00"/>
        <rect id="Rectangle_2451" data-name="Rectangle 2451" width="0.508" height="4.173" transform="translate(189.479 219.304)" fill="#ff9f00"/>
        <rect id="Rectangle_2452" data-name="Rectangle 2452" width="0.508" height="4.173" transform="translate(184.681 219.304)" fill="#ff9f00"/>
        <rect id="Rectangle_2453" data-name="Rectangle 2453" width="0.508" height="4.173" transform="translate(180.396 219.304)" fill="#ff9f00"/>
        <rect id="Rectangle_2454" data-name="Rectangle 2454" width="0.508" height="4.173" transform="translate(206.527 219.304)" fill="#ff9f00"/>
        <rect id="Rectangle_2455" data-name="Rectangle 2455" width="0.508" height="4.173" transform="translate(207.609 219.304)" fill="#ff9f00"/>
        <rect id="Rectangle_2456" data-name="Rectangle 2456" width="0.508" height="4.173" transform="translate(208.653 219.304)" fill="#ff9f00"/>
        <path id="Path_19750" data-name="Path 19750" d="M169.93,177.417v4.144a1.215,1.215,0,0,1-.19.015h-.318V177.4h.318a1.211,1.211,0,0,1,.19.015" transform="translate(40.016 41.901)" fill="#ff9f00"/>
        <path id="Path_19751" data-name="Path 19751" d="M170.5,177.792v3.371a1.09,1.09,0,0,1-.508.34v-4.051a1.081,1.081,0,0,1,.508.34" transform="translate(40.151 41.913)" fill="#ff9f00"/>
        <path id="Path_19752" data-name="Path 19752" d="M176.849,174.941V177.3a.8.8,0,0,1-.184.507,1.071,1.071,0,0,1-.508.34,1.154,1.154,0,0,1-.2.047.56.56,0,0,1-.062.007h-.009a.152.152,0,0,1-.033,0l-.03,0h-44.76a1.021,1.021,0,0,1-1.08-.862c0-.015,0-.031,0-.047v-2.356c0-.015,0-.032,0-.047a.37.37,0,0,1,0-.038.979.979,0,0,1,.811-.795l.032-.006a1.219,1.219,0,0,1,.235-.022h44.7c.033,0,.063,0,.1,0l.04,0h0l.049.007a1.152,1.152,0,0,1,.2.046,1.073,1.073,0,0,1,.508.341.8.8,0,0,1,.184.507" transform="translate(30.701 41.105)" fill="#ffb600"/>
        <path id="Path_19753" data-name="Path 19753" d="M154.9,178.206H130.951a.946.946,0,0,1-.965-.862c0-.015,0-.031,0-.047v-2.356c0-.016,0-.032,0-.047a.37.37,0,0,1,0-.038.931.931,0,0,1,.75-.8.14.14,0,0,1,.041-.009.974.974,0,0,1,.172-.016h21.007a.227.227,0,0,0,.009.031,7.308,7.308,0,0,0,2.922,4.136l.01.007" transform="translate(30.701 41.105)" fill="#ff9f00"/>
        <rect id="Rectangle_2457" data-name="Rectangle 2457" width="0.508" height="4.173" transform="translate(201.603 215.137)" fill="#ff9f00"/>
        <rect id="Rectangle_2458" data-name="Rectangle 2458" width="0.508" height="4.173" transform="translate(199.884 215.137)" fill="#ff9f00"/>
        <rect id="Rectangle_2459" data-name="Rectangle 2459" width="0.508" height="4.173" transform="translate(197.82 215.137)" fill="#ff9f00"/>
        <rect id="Rectangle_2460" data-name="Rectangle 2460" width="0.508" height="4.173" transform="translate(194.66 215.137)" fill="#ff9f00"/>
        <rect id="Rectangle_2461" data-name="Rectangle 2461" width="0.508" height="4.173" transform="translate(191.317 215.137)" fill="#ff9f00"/>
        <rect id="Rectangle_2462" data-name="Rectangle 2462" width="0.508" height="4.173" transform="translate(186.192 215.137)" fill="#ff9f00"/>
        <rect id="Rectangle_2463" data-name="Rectangle 2463" width="0.508" height="4.173" transform="translate(181.394 215.137)" fill="#ff9f00"/>
        <rect id="Rectangle_2464" data-name="Rectangle 2464" width="0.508" height="4.173" transform="translate(177.109 215.137)" fill="#ff9f00"/>
        <rect id="Rectangle_2465" data-name="Rectangle 2465" width="0.508" height="4.173" transform="translate(203.24 215.137)" fill="#ff9f00"/>
        <rect id="Rectangle_2466" data-name="Rectangle 2466" width="0.508" height="4.173" transform="translate(204.322 215.137)" fill="#ff9f00"/>
        <rect id="Rectangle_2467" data-name="Rectangle 2467" width="0.508" height="4.173" transform="translate(205.366 215.137)" fill="#ff9f00"/>
        <path id="Path_19754" data-name="Path 19754" d="M167.272,174.047v4.144a1.21,1.21,0,0,1-.19.015h-.318v-4.173h.318a1.21,1.21,0,0,1,.19.015" transform="translate(39.388 41.105)" fill="#ff9f00"/>
        <path id="Path_19755" data-name="Path 19755" d="M167.842,174.422v3.371a1.089,1.089,0,0,1-.508.34v-4.051a1.08,1.08,0,0,1,.508.34" transform="translate(39.523 41.117)" fill="#ff9f00"/>
        <path id="Path_19756" data-name="Path 19756" d="M176.773,171.59v2.356a.807.807,0,0,1-.184.507,1.2,1.2,0,0,1-.1.109,1.111,1.111,0,0,1-.405.231,1.13,1.13,0,0,1-.155.04h0c-.014,0-.027.006-.041.007a1.207,1.207,0,0,1-.189.015h-44.7a1.062,1.062,0,0,1-.14-.009l-.053-.006a1.007,1.007,0,0,1-.878-.769.536.536,0,0,1-.009-.078c0-.016,0-.032,0-.047V171.59c0-.017,0-.032,0-.047a.721.721,0,0,1,.01-.089,1.046,1.046,0,0,1,1.069-.773h44.7l.084,0h.037a.274.274,0,0,1,.041.006.11.11,0,0,1,.027,0,1.138,1.138,0,0,1,.2.046c.037.012.073.027.109.042h0a1.085,1.085,0,0,1,.357.252c.014.015.028.03.041.046a.806.806,0,0,1,.184.508" transform="translate(30.683 40.314)" fill="#ffb600"/>
        <path id="Path_19757" data-name="Path 19757" d="M154.822,174.854H130.817l-.062-.006a.941.941,0,0,1-.837-.776.536.536,0,0,1-.009-.078c0-.017,0-.032,0-.047V171.59c0-.017,0-.032,0-.048s.006-.058.01-.088a.681.681,0,0,1,.026-.1.957.957,0,0,1,.927-.674h21.009c.009.035.019.068.03.1a7.3,7.3,0,0,0,2.868,4.04c.014.011.03.02.043.031" transform="translate(30.683 40.314)" fill="#ff9f00"/>
        <rect id="Rectangle_2468" data-name="Rectangle 2468" width="0.508" height="4.173" transform="translate(201.509 210.993)" fill="#ff9f00"/>
        <rect id="Rectangle_2469" data-name="Rectangle 2469" width="0.508" height="4.173" transform="translate(199.79 210.993)" fill="#ff9f00"/>
        <rect id="Rectangle_2470" data-name="Rectangle 2470" width="0.508" height="4.173" transform="translate(197.727 210.993)" fill="#ff9f00"/>
        <rect id="Rectangle_2471" data-name="Rectangle 2471" width="0.508" height="4.173" transform="translate(194.566 210.993)" fill="#ff9f00"/>
        <rect id="Rectangle_2472" data-name="Rectangle 2472" width="0.508" height="4.173" transform="translate(191.223 210.993)" fill="#ff9f00"/>
        <rect id="Rectangle_2473" data-name="Rectangle 2473" width="0.508" height="4.173" transform="translate(186.098 210.993)" fill="#ff9f00"/>
        <rect id="Rectangle_2474" data-name="Rectangle 2474" width="0.508" height="4.173" transform="translate(181.3 210.993)" fill="#ff9f00"/>
        <rect id="Rectangle_2475" data-name="Rectangle 2475" width="0.508" height="4.173" transform="translate(177.015 210.993)" fill="#ff9f00"/>
        <rect id="Rectangle_2476" data-name="Rectangle 2476" width="0.508" height="4.173" transform="translate(203.146 210.993)" fill="#ff9f00"/>
        <rect id="Rectangle_2477" data-name="Rectangle 2477" width="0.508" height="4.173" transform="translate(204.228 210.993)" fill="#ff9f00"/>
        <rect id="Rectangle_2478" data-name="Rectangle 2478" width="0.508" height="4.173" transform="translate(205.272 210.993)" fill="#ff9f00"/>
        <path id="Path_19758" data-name="Path 19758" d="M167.2,170.695v4.144a1.2,1.2,0,0,1-.19.015h-.318V170.68H167a1.2,1.2,0,0,1,.19.015" transform="translate(39.37 40.313)" fill="#ff9f00"/>
        <path id="Path_19759" data-name="Path 19759" d="M167.766,171.07v3.371a1.089,1.089,0,0,1-.508.34V170.73a1.071,1.071,0,0,1,.508.34" transform="translate(39.505 40.325)" fill="#ff9f00"/>
        <path id="Path_19760" data-name="Path 19760" d="M178.641,168.3v2.356a.805.805,0,0,1-.185.508,1.074,1.074,0,0,1-.507.339,1.139,1.139,0,0,1-.2.047,1.186,1.186,0,0,1-.189.015h-44.7a1.246,1.246,0,0,1-.5-.1.942.942,0,0,1-.57-.66c0-.019-.006-.038-.009-.058s0-.027,0-.041,0-.031,0-.047V168.3c0-.015,0-.032,0-.047a.543.543,0,0,1,.01-.089,1.046,1.046,0,0,1,1.069-.773h44.7a1.186,1.186,0,0,1,.189.015,1.14,1.14,0,0,1,.2.046,1.07,1.07,0,0,1,.507.341.8.8,0,0,1,.185.507" transform="translate(31.125 39.536)" fill="#ffb600"/>
        <path id="Path_19761" data-name="Path 19761" d="M156.69,171.562H132.74a1,1,0,0,1-.444-.1.917.917,0,0,1-.508-.659c0-.02-.006-.04-.009-.058s0-.027,0-.041,0-.031,0-.048V168.3c0-.016,0-.032,0-.048a.544.544,0,0,1,.01-.088.845.845,0,0,1,.025-.1.957.957,0,0,1,.928-.677h21.009a7.322,7.322,0,0,0,2.794,4.071c.048.036.1.069.147.1" transform="translate(31.125 39.536)" fill="#ff9f00"/>
        <rect id="Rectangle_2479" data-name="Rectangle 2479" width="0.508" height="4.173" transform="translate(203.819 206.924)" fill="#ff9f00"/>
        <rect id="Rectangle_2480" data-name="Rectangle 2480" width="0.508" height="4.173" transform="translate(202.099 206.924)" fill="#ff9f00"/>
        <rect id="Rectangle_2481" data-name="Rectangle 2481" width="0.508" height="4.173" transform="translate(200.037 206.924)" fill="#ff9f00"/>
        <rect id="Rectangle_2482" data-name="Rectangle 2482" width="0.508" height="4.173" transform="translate(196.876 206.924)" fill="#ff9f00"/>
        <rect id="Rectangle_2483" data-name="Rectangle 2483" width="0.508" height="4.173" transform="translate(193.533 206.924)" fill="#ff9f00"/>
        <rect id="Rectangle_2484" data-name="Rectangle 2484" width="0.508" height="4.173" transform="translate(188.408 206.924)" fill="#ff9f00"/>
        <rect id="Rectangle_2485" data-name="Rectangle 2485" width="0.508" height="4.173" transform="translate(183.609 206.924)" fill="#ff9f00"/>
        <rect id="Rectangle_2486" data-name="Rectangle 2486" width="0.508" height="4.173" transform="translate(179.325 206.924)" fill="#ff9f00"/>
        <rect id="Rectangle_2487" data-name="Rectangle 2487" width="0.508" height="4.173" transform="translate(205.456 206.924)" fill="#ff9f00"/>
        <rect id="Rectangle_2488" data-name="Rectangle 2488" width="0.508" height="4.173" transform="translate(206.538 206.924)" fill="#ff9f00"/>
        <rect id="Rectangle_2489" data-name="Rectangle 2489" width="0.508" height="4.173" transform="translate(207.581 206.924)" fill="#ff9f00"/>
        <path id="Path_19762" data-name="Path 19762" d="M169.064,167.4v4.144a1.211,1.211,0,0,1-.19.015h-.318v-4.173h.318a1.211,1.211,0,0,1,.19.015" transform="translate(39.812 39.536)" fill="#ff9f00"/>
        <path id="Path_19763" data-name="Path 19763" d="M169.635,167.777v3.371a1.089,1.089,0,0,1-.508.34v-4.051a1.071,1.071,0,0,1,.508.34" transform="translate(39.947 39.547)" fill="#ff9f00"/>
        <path id="Path_19764" data-name="Path 19764" d="M181.6,164.919v2.357a.807.807,0,0,1-.184.506h0c-.016.02-.032.037-.049.056a.986.986,0,0,1-.239.187,1.083,1.083,0,0,1-.142.069h0a.776.776,0,0,1-.075.027,1.141,1.141,0,0,1-.2.047,1.185,1.185,0,0,1-.189.014h-44.7a1.045,1.045,0,0,1-1.069-.773.513.513,0,0,1-.01-.089c0-.015,0-.031,0-.046v-2.357c0-.015,0-.031,0-.046a1,1,0,0,1,.952-.855,1.084,1.084,0,0,1,.127-.006h44.7a1.351,1.351,0,0,1,.189.014,1.265,1.265,0,0,1,.2.047,1.1,1.1,0,0,1,.457.284.729.729,0,0,1,.049.056h0a.807.807,0,0,1,.184.506" transform="translate(31.823 38.738)" fill="#ffb600"/>
        <path id="Path_19765" data-name="Path 19765" d="M159.646,168.184H135.7a.956.956,0,0,1-.928-.675.872.872,0,0,1-.025-.1.513.513,0,0,1-.01-.089c0-.015,0-.031,0-.046v-2.357c0-.016,0-.031,0-.046a.937.937,0,0,1,.849-.855.865.865,0,0,1,.114-.006h21.009v.006a7.31,7.31,0,0,0,2.94,4.166" transform="translate(31.823 38.738)" fill="#ff9f00"/>
        <rect id="Rectangle_2490" data-name="Rectangle 2490" width="0.508" height="4.173" transform="translate(207.473 202.75)" fill="#ff9f00"/>
        <rect id="Rectangle_2491" data-name="Rectangle 2491" width="0.508" height="4.173" transform="translate(205.752 202.75)" fill="#ff9f00"/>
        <rect id="Rectangle_2492" data-name="Rectangle 2492" width="0.508" height="4.173" transform="translate(203.69 202.75)" fill="#ff9f00"/>
        <rect id="Rectangle_2493" data-name="Rectangle 2493" width="0.508" height="4.173" transform="translate(200.529 202.75)" fill="#ff9f00"/>
        <rect id="Rectangle_2494" data-name="Rectangle 2494" width="0.508" height="4.173" transform="translate(197.186 202.75)" fill="#ff9f00"/>
        <rect id="Rectangle_2495" data-name="Rectangle 2495" width="0.508" height="4.173" transform="translate(192.061 202.75)" fill="#ff9f00"/>
        <rect id="Rectangle_2496" data-name="Rectangle 2496" width="0.508" height="4.173" transform="translate(187.263 202.75)" fill="#ff9f00"/>
        <rect id="Rectangle_2497" data-name="Rectangle 2497" width="0.508" height="4.173" transform="translate(182.979 202.75)" fill="#ff9f00"/>
        <rect id="Rectangle_2498" data-name="Rectangle 2498" width="0.508" height="4.173" transform="translate(209.109 202.75)" fill="#ff9f00"/>
        <rect id="Rectangle_2499" data-name="Rectangle 2499" width="0.508" height="4.173" transform="translate(210.191 202.75)" fill="#ff9f00"/>
        <rect id="Rectangle_2500" data-name="Rectangle 2500" width="0.508" height="4.173" transform="translate(211.236 202.75)" fill="#ff9f00"/>
        <path id="Path_19766" data-name="Path 19766" d="M172.019,164.026v4.144a1.213,1.213,0,0,1-.19.015h-.318v-4.173h.318a1.213,1.213,0,0,1,.19.015" transform="translate(40.51 38.738)" fill="#ff9f00"/>
        <path id="Path_19767" data-name="Path 19767" d="M172.59,164.4v3.371a1.089,1.089,0,0,1-.508.34v-4.051a1.071,1.071,0,0,1,.508.34" transform="translate(40.645 38.75)" fill="#ff9f00"/>
        <path id="Path_19768" data-name="Path 19768" d="M176.849,161.55v2.356a.8.8,0,0,1-.184.507,1.071,1.071,0,0,1-.508.34,1.155,1.155,0,0,1-.2.047l-.062.009h-.009c-.015,0-.028,0-.042,0H131.066a1.135,1.135,0,0,1-.92-.433.8.8,0,0,1-.161-.429c0-.016,0-.032,0-.047V161.55c0-.016,0-.032,0-.047a.96.96,0,0,1,.766-.822,1.24,1.24,0,0,1,.314-.04h44.76l.027,0a.966.966,0,0,1,.106.011,1.152,1.152,0,0,1,.2.046.586.586,0,0,1,.091.036h0a1.025,1.025,0,0,1,.313.2l0,0,.012.011a1,1,0,0,1,.085.091.8.8,0,0,1,.184.508" transform="translate(30.701 37.942)" fill="#ffb600"/>
        <path id="Path_19769" data-name="Path 19769" d="M154.9,164.815H130.951a.981.981,0,0,1-.807-.412.856.856,0,0,1-.158-.45c0-.017,0-.032,0-.047V161.55c0-.017,0-.032,0-.048a.932.932,0,0,1,.769-.842,1.017,1.017,0,0,1,.2-.02h21.007c.009.032.019.064.028.1a7.3,7.3,0,0,0,2.9,4.071l.01.007" transform="translate(30.701 37.942)" fill="#ff9f00"/>
        <rect id="Rectangle_2501" data-name="Rectangle 2501" width="0.508" height="4.173" transform="translate(201.603 198.583)" fill="#ff9f00"/>
        <rect id="Rectangle_2502" data-name="Rectangle 2502" width="0.508" height="4.173" transform="translate(199.884 198.583)" fill="#ff9f00"/>
        <rect id="Rectangle_2503" data-name="Rectangle 2503" width="0.508" height="4.173" transform="translate(197.82 198.583)" fill="#ff9f00"/>
        <rect id="Rectangle_2504" data-name="Rectangle 2504" width="0.508" height="4.173" transform="translate(194.66 198.583)" fill="#ff9f00"/>
        <rect id="Rectangle_2505" data-name="Rectangle 2505" width="0.508" height="4.173" transform="translate(191.317 198.583)" fill="#ff9f00"/>
        <rect id="Rectangle_2506" data-name="Rectangle 2506" width="0.508" height="4.173" transform="translate(186.192 198.583)" fill="#ff9f00"/>
        <rect id="Rectangle_2507" data-name="Rectangle 2507" width="0.508" height="4.173" transform="translate(181.394 198.583)" fill="#ff9f00"/>
        <rect id="Rectangle_2508" data-name="Rectangle 2508" width="0.508" height="4.173" transform="translate(177.109 198.583)" fill="#ff9f00"/>
        <rect id="Rectangle_2509" data-name="Rectangle 2509" width="0.508" height="4.173" transform="translate(203.24 198.583)" fill="#ff9f00"/>
        <rect id="Rectangle_2510" data-name="Rectangle 2510" width="0.508" height="4.173" transform="translate(204.322 198.583)" fill="#ff9f00"/>
        <rect id="Rectangle_2511" data-name="Rectangle 2511" width="0.508" height="4.173" transform="translate(205.366 198.583)" fill="#ff9f00"/>
        <path id="Path_19770" data-name="Path 19770" d="M167.272,160.656V164.8a1.211,1.211,0,0,1-.19.015h-.318v-4.173h.318a1.211,1.211,0,0,1,.19.015" transform="translate(39.388 37.942)" fill="#ff9f00"/>
        <path id="Path_19771" data-name="Path 19771" d="M167.842,161.031V164.4a1.089,1.089,0,0,1-.508.34v-4.051a1.071,1.071,0,0,1,.508.34" transform="translate(39.523 37.954)" fill="#ff9f00"/>
        <path id="Path_19772" data-name="Path 19772" d="M179.509,158.252v2.356a.805.805,0,0,1-.185.508,1.083,1.083,0,0,1-.508.34,1.151,1.151,0,0,1-.2.046,1.2,1.2,0,0,1-.19.015h-44.7a1.24,1.24,0,0,1-.483-.1.928.928,0,0,1-.593-.728l0-.037V158.2a1,1,0,0,1,.953-.854,1.083,1.083,0,0,1,.127-.007h44.7a1.2,1.2,0,0,1,.19.015,1.155,1.155,0,0,1,.2.047,1.065,1.065,0,0,1,.508.34.8.8,0,0,1,.185.507" transform="translate(31.329 37.163)" fill="#ffb600"/>
        <path id="Path_19773" data-name="Path 19773" d="M157.556,161.516H133.607a1,1,0,0,1-.431-.1.913.913,0,0,1-.53-.728l0-.037c0-.015,0-.031,0-.047v-2.356c0-.016,0-.031,0-.047a.937.937,0,0,1,.849-.855c.037,0,.075-.006.115-.006h21.008v.006a7.32,7.32,0,0,0,2.8,4.071l.137.1" transform="translate(31.329 37.163)" fill="#ff9f00"/>
        <rect id="Rectangle_2512" data-name="Rectangle 2512" width="0.508" height="4.173" transform="translate(204.89 194.506)" fill="#ff9f00"/>
        <rect id="Rectangle_2513" data-name="Rectangle 2513" width="0.508" height="4.173" transform="translate(203.17 194.506)" fill="#ff9f00"/>
        <rect id="Rectangle_2514" data-name="Rectangle 2514" width="0.508" height="4.173" transform="translate(201.108 194.506)" fill="#ff9f00"/>
        <rect id="Rectangle_2515" data-name="Rectangle 2515" width="0.508" height="4.173" transform="translate(197.947 194.506)" fill="#ff9f00"/>
        <rect id="Rectangle_2516" data-name="Rectangle 2516" width="0.508" height="4.173" transform="translate(194.604 194.506)" fill="#ff9f00"/>
        <rect id="Rectangle_2517" data-name="Rectangle 2517" width="0.508" height="4.173" transform="translate(189.479 194.506)" fill="#ff9f00"/>
        <rect id="Rectangle_2518" data-name="Rectangle 2518" width="0.508" height="4.173" transform="translate(184.681 194.506)" fill="#ff9f00"/>
        <rect id="Rectangle_2519" data-name="Rectangle 2519" width="0.508" height="4.173" transform="translate(180.396 194.506)" fill="#ff9f00"/>
        <rect id="Rectangle_2520" data-name="Rectangle 2520" width="0.508" height="4.173" transform="translate(206.527 194.506)" fill="#ff9f00"/>
        <rect id="Rectangle_2521" data-name="Rectangle 2521" width="0.508" height="4.173" transform="translate(207.609 194.506)" fill="#ff9f00"/>
        <rect id="Rectangle_2522" data-name="Rectangle 2522" width="0.508" height="4.173" transform="translate(208.653 194.506)" fill="#ff9f00"/>
        <path id="Path_19774" data-name="Path 19774" d="M169.93,157.358V161.5a1.211,1.211,0,0,1-.19.015h-.318v-4.173h.318a1.211,1.211,0,0,1,.19.015" transform="translate(40.016 37.163)" fill="#ff9f00"/>
        <path id="Path_19775" data-name="Path 19775" d="M170.5,157.732V161.1a1.09,1.09,0,0,1-.508.34v-4.051a1.08,1.08,0,0,1,.508.34" transform="translate(40.151 37.175)" fill="#ff9f00"/>
        <path id="Path_19776" data-name="Path 19776" d="M180.641,154.881v2.356a.805.805,0,0,1-.185.508,1.089,1.089,0,0,1-.508.34,1.151,1.151,0,0,1-.2.046l-.062.009-.036,0-.036,0h-44.76a1.021,1.021,0,0,1-1.08-.862v-2.45a1.022,1.022,0,0,1,1.08-.862h44.7a1.2,1.2,0,0,1,.19.015,1.154,1.154,0,0,1,.2.047,1.071,1.071,0,0,1,.508.34.8.8,0,0,1,.185.507" transform="translate(31.596 36.367)" fill="#ffb600"/>
        <path id="Path_19777" data-name="Path 19777" d="M158.688,158.145H134.739a.945.945,0,0,1-.964-.862c0-.016,0-.031,0-.047v-2.356c0-.016,0-.031,0-.047a.945.945,0,0,1,.964-.862h21.008a7.319,7.319,0,0,0,2.931,4.167l.01.006" transform="translate(31.596 36.367)" fill="#ff9f00"/>
        <rect id="Rectangle_2523" data-name="Rectangle 2523" width="0.508" height="4.173" transform="translate(206.288 190.339)" fill="#ff9f00"/>
        <rect id="Rectangle_2524" data-name="Rectangle 2524" width="0.508" height="4.173" transform="translate(204.569 190.339)" fill="#ff9f00"/>
        <rect id="Rectangle_2525" data-name="Rectangle 2525" width="0.508" height="4.173" transform="translate(202.507 190.339)" fill="#ff9f00"/>
        <rect id="Rectangle_2526" data-name="Rectangle 2526" width="0.508" height="4.173" transform="translate(199.346 190.339)" fill="#ff9f00"/>
        <rect id="Rectangle_2527" data-name="Rectangle 2527" width="0.508" height="4.173" transform="translate(196.002 190.339)" fill="#ff9f00"/>
        <rect id="Rectangle_2528" data-name="Rectangle 2528" width="0.508" height="4.173" transform="translate(190.878 190.339)" fill="#ff9f00"/>
        <rect id="Rectangle_2529" data-name="Rectangle 2529" width="0.508" height="4.173" transform="translate(186.079 190.339)" fill="#ff9f00"/>
        <rect id="Rectangle_2530" data-name="Rectangle 2530" width="0.508" height="4.173" transform="translate(181.794 190.339)" fill="#ff9f00"/>
        <rect id="Rectangle_2531" data-name="Rectangle 2531" width="0.508" height="4.173" transform="translate(207.926 190.339)" fill="#ff9f00"/>
        <rect id="Rectangle_2532" data-name="Rectangle 2532" width="0.508" height="4.173" transform="translate(209.007 190.339)" fill="#ff9f00"/>
        <rect id="Rectangle_2533" data-name="Rectangle 2533" width="0.508" height="4.173" transform="translate(210.051 190.339)" fill="#ff9f00"/>
        <path id="Path_19778" data-name="Path 19778" d="M171.062,153.987v4.144a1.213,1.213,0,0,1-.19.015h-.318v-4.173h.318a1.213,1.213,0,0,1,.19.015" transform="translate(40.284 36.367)" fill="#ff9f00"/>
        <path id="Path_19779" data-name="Path 19779" d="M171.633,154.362v3.371a1.08,1.08,0,0,1-.508.34v-4.051a1.08,1.08,0,0,1,.508.34" transform="translate(40.418 36.379)" fill="#ff9f00"/>
        <path id="Path_19780" data-name="Path 19780" d="M162.331,135.589s-2.348,3.306-4.5,3.351-5.427-1.532-5.427-1.532-1.977-4.4-.637-6.129a2.879,2.879,0,0,1,2.751.452,4.17,4.17,0,0,1,.728.7,2.325,2.325,0,0,0,1.13.766c1.535.466,3.359-.633,4.041.429a7.255,7.255,0,0,0,1.187,1.406,5.476,5.476,0,0,0,.728.559" transform="translate(35.736 30.968)" fill="#ffebd9"/>
        <path id="Path_19781" data-name="Path 19781" d="M135.461,157.937s8.3-20.109,23.237-20.492c0,0,13.79,1.533,14.555,20.492Z" transform="translate(31.995 32.464)" fill="#ffebd9"/>
        <path id="Path_19782" data-name="Path 19782" d="M150.954,138.439s5.988,1.331,7.835.549a1.849,1.849,0,0,0-2.242-2.152,5.294,5.294,0,0,1-3.511-.926c-.936-.476-2.33,1.482-2.082,2.529" transform="translate(35.647 32.084)" fill="#e96200"/>
        <path id="Path_19783" data-name="Path 19783" d="M155.461,135.663c-.383.287-1.559-4.049-1.559-4.049a4.259,4.259,0,0,1,.728.7,2.314,2.314,0,0,0,1.13.766c0,.126.072,2.305-.3,2.585" transform="translate(36.351 31.086)" fill="#eabf9b"/>
        <path id="Path_19784" data-name="Path 19784" d="M160.259,134.551a24.669,24.669,0,0,1-3.229,1.708c-.383,0,2.041-3.114,2.041-3.114a7.224,7.224,0,0,0,1.188,1.406" transform="translate(37.08 31.448)" fill="#eabf9b"/>
        <path id="Path_19785" data-name="Path 19785" d="M142.021,151.185c-.153-.131,5.873-8.873,7.533-8.938s5.389,1.917,8.088,2.171,5.317-.511,5.827,1.087,1.916,7.254,1.053,8.159-19.188.352-22.5-2.479" transform="translate(33.544 33.597)" fill="#fddbba"/>
        <g id="Group_2557" data-name="Group 2557" transform="translate(160.591 193.323)" opacity="0.5">
          <g id="Group_2556" data-name="Group 2556">
            <g id="Group_2555" data-name="Group 2555" clip-path="url(#clip-path-6)">
              <path id="Path_19786" data-name="Path 19786" d="M150.556,178.2l0,.031a19.987,19.987,0,0,1-.671,4.136v.007c-.053.2-.109.391-.168.585a20.463,20.463,0,0,1-1.474,3.581,20.72,20.72,0,0,1-2.809,4.07c-.03.035-.059.07-.09.1a21.566,21.566,0,0,1-4.911,4.071q-.6.362-1.221.691c-.282.148-.565.288-.851.423-.272.158-.56.293-.831.46a11.585,11.585,0,0,1-2.84,1.168v-1.88a.719.719,0,0,1,.01-.09.682.682,0,0,1,.026-.1.958.958,0,0,1,.928-.673h-4.78a.957.957,0,0,1-.927-.674.743.743,0,0,1-.026-.1c0-.03-.009-.058-.01-.088s0-.031,0-.048V191.52c0-.016,0-.032,0-.048s.006-.058.01-.088a.68.68,0,0,1,.026-.1.957.957,0,0,1,.927-.675h1.867a.911.911,0,0,1-.508-.659.512.512,0,0,1-.009-.058c0-.012,0-.027,0-.041s0-.031,0-.046v-2.357c0-.016,0-.031,0-.047s0-.059.01-.088a.612.612,0,0,1,.026-.1.956.956,0,0,1,.928-.677h1.071a.957.957,0,0,1-.928-.674.687.687,0,0,1-.026-.1.726.726,0,0,1-.01-.089v-2.45a.938.938,0,0,1,.85-.854h-3.172a.945.945,0,0,1-.964-.862c0-.016,0-.031,0-.048v-2.356c0-.015,0-.032,0-.047l0-.037a.932.932,0,0,1,.75-.8.943.943,0,0,1-.838-.776.557.557,0,0,1-.009-.078c0-.017,0-.032,0-.048v-2.355c0-.017,0-.032,0-.048s.006-.058.01-.088a.681.681,0,0,1,.026-.1.957.957,0,0,1,.927-.675h1.867a.911.911,0,0,1-.508-.659.511.511,0,0,1-.009-.058c0-.015,0-.027,0-.041s0-.031,0-.048V170.9c0-.016,0-.032,0-.048s0-.058.01-.088a.65.65,0,0,1,.026-.1.957.957,0,0,1,.928-.677h3.653a.955.955,0,0,1-.928-.675.692.692,0,0,1-.025-.1.542.542,0,0,1-.01-.09.276.276,0,0,1,0-.046v-2.357a.284.284,0,0,1,0-.046.935.935,0,0,1,.848-.854h-5.753a.984.984,0,0,1-.807-.413l0-.021.606-3.7,0-.021.863-5.28a23.056,23.056,0,0,1,2.962.6l.171.046.011,0q.849.235,1.675.538l.015,0a22.144,22.144,0,0,1,6.94,4.071q.056.046.108.1a20.951,20.951,0,0,1,2.911,3.135c.174.229.342.462.507.7.054.078.109.157.161.236l0,.007q.4.584.752,1.2a20.6,20.6,0,0,1,1.414,2.966,19.826,19.826,0,0,1,1.084,4.071c.006.036.011.069.016.1a19.882,19.882,0,0,1,.192,4.04" transform="translate(-129.908 -156.385)" fill="#ef7c00"/>
            </g>
          </g>
        </g>
        <path id="Path_19787" data-name="Path 19787" d="M109.78,187.107a21.988,21.988,0,1,1,29.871,8.641,21.989,21.989,0,0,1-29.871-8.641" transform="translate(25.283 36.492)" fill="#ef7c00"/>
        <path id="Path_19788" data-name="Path 19788" d="M139.118,196.018q-.406.248-.826.48c-.1.052-.19.1-.284.153-.218.116-.434.226-.653.335a21.989,21.989,0,0,1-20.293-39c.282-.155.566-.3.852-.445s.556-.27.838-.394a21.925,21.925,0,0,1,6.6-1.774,21.992,21.992,0,0,1,13.767,40.647" transform="translate(24.962 36.668)" fill="#ffb600"/>
        <path id="Path_19789" data-name="Path 19789" d="M127.371,196.7a19.779,19.779,0,0,1-5.5-.785,19.581,19.581,0,1,1,5.5.785m-.061-38.878a19.168,19.168,0,1,0,16.821,9.913,19.048,19.048,0,0,0-16.821-9.913" transform="translate(25.422 37.15)" fill="#ff9f00"/>
        <path id="Path_19790" data-name="Path 19790" d="M135.03,177.9c-.043-.109-.089-.213-.136-.316a5.776,5.776,0,0,0-1.334-1.9,5.954,5.954,0,0,0-2.1-1.235,10.1,10.1,0,0,0-2.668-.5q-1.472-.091-3.2-.041a15.64,15.64,0,0,1-1.83-.037,4.555,4.555,0,0,1-1.287-.282,2.265,2.265,0,0,1-.86-.582,3.081,3.081,0,0,1-.546-.9,3.35,3.35,0,0,1-.248-1.057,2.267,2.267,0,0,1,.157-.994,2.422,2.422,0,0,1,.613-.869,3.591,3.591,0,0,1,1.121-.682,2.832,2.832,0,0,1,2.4.022,4.08,4.08,0,0,1,1.816,2.273l4.48-1.818a8.364,8.364,0,0,0-1.467-2.432,6.278,6.278,0,0,0-4.391-2.167,8.31,8.31,0,0,0-2.7.277l-1.268-3.125-2.48,1.008,1.251,3.081a9.289,9.289,0,0,0-2.277,1.621,6.938,6.938,0,0,0-1.434,2,5.568,5.568,0,0,0-.528,2.26,6.622,6.622,0,0,0,1.948,4.642,5.883,5.883,0,0,0,2.1,1.229,9.926,9.926,0,0,0,2.669.483,31.629,31.629,0,0,0,3.212,0,11.7,11.7,0,0,1,1.747.012,4.525,4.525,0,0,1,1.281.284,2.416,2.416,0,0,1,.9.608,3.341,3.341,0,0,1,.6,1,2.793,2.793,0,0,1,.214,1.062,2.265,2.265,0,0,1-.24,1.011,2.851,2.851,0,0,1-.712.893,4.268,4.268,0,0,1-1.2.707,5.235,5.235,0,0,1-1.314.341,3.014,3.014,0,0,1-1.326-.133,3.086,3.086,0,0,1-1.211-.783,4.749,4.749,0,0,1-.979-1.59l-4.479,1.82a7.724,7.724,0,0,0,1.762,2.738,6.363,6.363,0,0,0,2.32,1.448,7.1,7.1,0,0,0,2.637.38,11.1,11.1,0,0,0,2.716-.449l1.157,2.851,2.464-1-1.162-2.864a10,10,0,0,0,2.3-1.606,6.8,6.8,0,0,0,1.388-1.812c.027-.052.053-.1.078-.158a5.5,5.5,0,0,0,.54-2.247,6.034,6.034,0,0,0-.482-2.454" transform="translate(27.424 38.151)" fill="#ff9f00"/>
        <path id="Path_19791" data-name="Path 19791" d="M107.091,86.385a1.021,1.021,0,0,0-.174,1.093l0,0a6.782,6.782,0,0,0,2.161,2.338c.13.1.245.2.346.284l.078.068.059.053c.948.863.6,1.063,2.3,2.815,1.945,1.994,3.273,2.021,3.65,1.836.319-.158-.339-1.219-1.067-2.412-.036-.057-.07-.115-.106-.173-.1-.158-.194-.319-.289-.478-.854-1.435-.643-2.113-.457-4.259.15-1.744,2.642-9.755,2.642-9.755l-3.7-.611s-1.069,6.373-2.289,7.362c-.653.527-1.387.538-2.015.93-.044.027-.088.056-.131.084a4.82,4.82,0,0,0-1.006.821" transform="translate(25.233 18.231)" fill="#ffae73"/>
        <path id="Path_19792" data-name="Path 19792" d="M107.091,84.8a1.021,1.021,0,0,0-.174,1.093l0,0a7.853,7.853,0,0,0,2.165,2.33c.127.1.241.2.342.292l.078.068.059.053c.948.863.6,1.063,2.3,2.815,1.945,1.994,3.273,2.021,3.65,1.836.319-.158-.339-1.219-1.067-2.412a8.212,8.212,0,0,1-3.459-2.511c-1.173-1.475-1.962-3.375-2.76-4.474-.044.027-.088.056-.131.084a4.82,4.82,0,0,0-1.006.821" transform="translate(25.233 19.816)" fill="#234662"/>
        <path id="Path_19793" data-name="Path 19793" d="M131.733,84.113c.236,1.14,1.863.938,3.678.481s1.387.074,3.973-.23,3.364-1.276,3.439-1.661c.068-.341-1.211-.452-2.584-.6q-.26-.028-.519-.059c-1.55-.183-2.691-1.174-4.1-1.985-1.338-.768-3.349-3.921-3.349-3.921l-3.547.307s1.883,2.816,2.611,4.041A4.289,4.289,0,0,1,131.7,82.9a4.541,4.541,0,0,0,.036,1.214" transform="translate(30.403 17.983)" fill="#ffae73"/>
        <path id="Path_19794" data-name="Path 19794" d="M134.847,83.454c1.815-.457,1.387.074,3.973-.231s3.362-1.275,3.439-1.66c.068-.342-1.211-.454-2.584-.6l-.014.027a7.294,7.294,0,0,1-3.7,1.178c-1.755.054-3.62-.435-4.831-.407a4.541,4.541,0,0,0,.036,1.214c.236,1.14,1.862.938,3.678.481" transform="translate(30.967 19.122)" fill="#234662"/>
        <path id="Path_19795" data-name="Path 19795" d="M122.326,65.389l-3.255,8.951-4.249,11.688a7.039,7.039,0,0,1-2.3-.194,10.018,10.018,0,0,1-2.234-1.068s1.115-12.525,3.308-19.726a12.766,12.766,0,0,1,1.9-4.189c3.449-4.135,6.831,4.538,6.831,4.538" transform="translate(26.049 14.109)" fill="#234662"/>
        <path id="Path_19796" data-name="Path 19796" d="M123.333,53.159c-2.178-.686-8.371.258-14.591,1.521l-1.319-2.141-13.458-.956s-4.37,9.875-1.9,16.13c.363.92,2.6,1.367,2.6,1.368s7.884.085,10.484.067c6.69-.047,14.126-4.7,15.09-4.9,1.579-.328,2.234,2.831,3.838,6.14s14.968,14.6,14.968,14.6a11.675,11.675,0,0,0,2.883-.316,2.836,2.836,0,0,0,1.232-.791s-14.925-29.178-19.837-30.724" transform="translate(21.567 12.184)" fill="#2b5c8b"/>
        <path id="Path_19797" data-name="Path 19797" d="M107.117,20.557a4.771,4.771,0,0,0-2.591-.65,7.722,7.722,0,0,1-1.286-.075c-5.1-.649-8.118,6.781-8.282,9.025-.3,4.139-2.487,4.785-5.549,7.4-6.139,5.239-4.286,11.262-.893,13.481,2.036,1.331,5.6-.04,5.6-.04.051.036,9.729-5.5,14.5-8.172,7.174-1.071,1.4-19.269-1.5-20.966" transform="translate(20.166 4.675)" fill="#234662"/>
        <path id="Path_19798" data-name="Path 19798" d="M102.171,37.011a6.335,6.335,0,0,1-3.946.15c-1.5-.651-2.65-3.1-2.629-3.105.681-.036,1.424-.637,1.972-4.544l.291.1,4.884,1.718s-.342,1.565-.56,3.056c-.183,1.251-.278,2.449-.011,2.623" transform="translate(22.579 6.97)" fill="#ffae73"/>
        <path id="Path_19799" data-name="Path 19799" d="M102.31,31.312s-.208,1.1-.5,2.665a5.689,5.689,0,0,1-4.387-4.384Z" transform="translate(23.011 6.99)" fill="#f9924f"/>
        <path id="Path_19800" data-name="Path 19800" d="M103.142,34.472s-6.672-.848-6.081-4.994.13-7.049,4.413-6.683,4.885,2.066,5.024,3.5-1.607,8.292-3.356,8.179" transform="translate(22.916 5.377)" fill="#ffae73"/>
        <path id="Path_19801" data-name="Path 19801" d="M106.609,24.095s-4.241,3.709-7.141,4.024-4.005-.606-4.005-.606a11.34,11.34,0,0,0,2.715-3.732,2.038,2.038,0,0,1,1.674-1.215c2.071-.194,6-.3,6.758,1.529" transform="translate(22.547 5.306)" fill="#234662"/>
        <path id="Path_19802" data-name="Path 19802" d="M102.32,23.686a10.479,10.479,0,0,1,1.894,2.391,8.063,8.063,0,0,1,.248,4.287s2.194-4.34.92-6.432c-1.351-2.219-3.062-.246-3.062-.246" transform="translate(24.167 5.404)" fill="#234662"/>
        <path id="Path_19803" data-name="Path 19803" d="M108.93,45.953c-.106,13.494.02,10.673-1.446,11.964a5.677,5.677,0,0,1-2.668.6c-4.135.3-11.413-.326-11.694-1.089-.973-2.639-.305-3.466-1.13-7.511-.087-.43-.193-.9-.316-1.4-.684-2.778-1.336-3.72.988-8.2,2.106-4.063,4.3-7.365,4.5-7.248,5.659,3.306,6.093.491,6.093.491s5.724,5.82,5.672,12.4" transform="translate(21.502 7.808)" fill="#69bbee"/>
        <path id="Path_19804" data-name="Path 19804" d="M119.071,73.326l-4.249,11.688a7.039,7.039,0,0,1-2.3-.194,10.018,10.018,0,0,1-2.234-1.068s1.115-12.525,3.308-19.726Z" transform="translate(26.049 15.122)" fill="#2b5c8b"/>
        <path id="Path_19805" data-name="Path 19805" d="M100.924,33.456s5.805.942,6.5,3.434,4.809,17.139,4.809,17.139-2.945.55-4.316-.8-4.827-12.6-4.827-12.6Z" transform="translate(23.838 7.902)" fill="#69bbee"/>
        <path id="Path_19806" data-name="Path 19806" d="M104.634,56.37c-4.135.3-11.414-.326-11.7-1.089-.972-2.639-.3-3.465-1.129-7.51l1.956-5.633s-.287,6.26,1.57,7.892,7.578,3.124,8.484,4.492a5.043,5.043,0,0,1,.815,1.848" transform="translate(21.685 9.953)" fill="#3ca0d7"/>
        <path id="Path_19807" data-name="Path 19807" d="M98.334,51.675s4.076-.937,4.736-.58a9.569,9.569,0,0,1,2.485,2.123c.205.457-1.469-.337-2.011-.48a4.842,4.842,0,0,0-1.732.392,5.752,5.752,0,0,1-3.1.334Z" transform="translate(23.226 12.049)" fill="#ffae73"/>
        <path id="Path_19808" data-name="Path 19808" d="M98.489,33.057s-5.478.376-7.357,3.037c-2.644,3.743-7.83,19.654-4.779,21.751,3.437,2.361,15.566.514,15.566.514a4.932,4.932,0,0,0-.177-2.8c-.57-.909-9.716-2.319-10.14-2.739s5.213-8.259,5.2-9.524,1.684-10.237,1.684-10.237" transform="translate(20.176 7.808)" fill="#69bbee"/>
        <path id="Path_19809" data-name="Path 19809" d="M102.332,52a7.877,7.877,0,0,0,1.145,1.226.842.842,0,0,0,.462.1l-.585-1.033Z" transform="translate(24.17 12.281)" fill="#ffae73"/>
        <path id="Path_19810" data-name="Path 19810" d="M102.165,51.08l2.495,1.19a.443.443,0,0,1-.41.162,5.956,5.956,0,0,1-1.08-.289Z" transform="translate(24.131 12.065)" fill="#ffae73"/>
        <path id="Path_19811" data-name="Path 19811" d="M102.827,57.276l19.669-.138,5.813-14.755-19.638.138Z" transform="translate(24.287 10.01)" fill="#234662"/>
        <path id="Path_19812" data-name="Path 19812" d="M123.883,53.853l-25.972.183,0,.574,25.742-.182Z" transform="translate(23.126 12.72)" fill="#234662"/>
        <path id="Path_19813" data-name="Path 19813" d="M115.044,48.573a.682.682,0,0,0-.675-.932,1.341,1.341,0,0,0-1.2.946.681.681,0,0,0,.675.931,1.342,1.342,0,0,0,1.2-.944" transform="translate(26.722 11.252)" fill="#dcf3fd"/>
        <path id="Path_19814" data-name="Path 19814" d="M248.7,92.518a5.311,5.311,0,0,0-4.215.216c-7.171.3-7.437,7.646-6.6,10.382,1.182,3.842-3,6.872,1.638,8.426,5.384,1.8,9.9-1.045,9.593-.115,17.025,1.341,5.244-17.027-.42-18.909" transform="translate(56.044 21.777)" fill="#1f529f"/>
        <path id="Path_19815" data-name="Path 19815" d="M242.524,124.289a18.756,18.756,0,0,1-1.917,2.9c-1.49,1.865-9.309-2.564-8.635-2.9s4.481-11.146,6.093-13.062a6.867,6.867,0,0,1,3.569-2.178Z" transform="translate(54.78 25.757)" fill="#2b5c8b"/>
        <path id="Path_19816" data-name="Path 19816" d="M263.338,183.312s2.158,1.969,1.737,3.369-2.369,2.333-2.632,4.042-1.315,2.644-2.263,2.644h-4.517s-.7-1.2.988-1.567,2.319-2.372,2.214-4.238a32.911,32.911,0,0,1,.158-4.354l3.579-.829Z" transform="translate(60.352 43.077)" fill="#3075c6"/>
        <path id="Path_19817" data-name="Path 19817" d="M249.417,183.81s.776,8.343-.171,8.809l-12.126-.025s0-1.4,1.948-1.71,5.369-1.451,5.947-3.99,4.4-3.084,4.4-3.084" transform="translate(56.006 43.415)" fill="#3075c6"/>
        <path id="Path_19818" data-name="Path 19818" d="M258.8,118.788a48.341,48.341,0,0,1,0,5.6c-.12,2.027-2.17,4.741-2.46,5.412-.731,1.684-1.553,1.958-1.553,1.958l-6.366,1.56-2.239.548-7.059-2.108s-3.215-8.974-1.925-14.026a38.847,38.847,0,0,1,3.264-8.559s4.8-1.079,13.261-.478Z" transform="translate(55.952 25.631)" fill="#2b5c8b"/>
        <path id="Path_19819" data-name="Path 19819" d="M257.528,122.465c-.12,2.026-2.776,4.669-3.067,5.342-.729,1.684-1.553,1.957-1.553,1.957l-6.366,1.56-1.7-2.395s10.306-2.867,8.355-11.953Z" transform="translate(57.83 27.629)" fill="#0b3563"/>
        <path id="Path_19820" data-name="Path 19820" d="M239.771,128.422s-3.5,10.881-3.72,14.586,6.682,52.627,6.96,54.333c.262,1.61,2.26,2.636,2.26,2.636a3.03,3.03,0,0,0,2.231.172,5.533,5.533,0,0,0,2.395-1.129s2.721-34.892,1.037-47.356a197.575,197.575,0,0,1-1.7-23.242Z" transform="translate(55.752 30.332)" fill="#3ca0d7"/>
        <path id="Path_19821" data-name="Path 19821" d="M253.714,128.159s5.287,7.155,5.78,11.991.773,21.825,1.823,26.54,4.908,13.788,4.908,28.5a2.913,2.913,0,0,1-1.639,1.292,13.3,13.3,0,0,1-1.441.4,2.261,2.261,0,0,1-2.535-1.214c-2.608-5.3-10.917-22.38-11.343-25.927-.3-2.509-2.925-19.118-8.647-28.864-1.375-2.34.843-11.645.843-11.645Z" transform="translate(56.726 30.27)" fill="#69bbee"/>
        <path id="Path_19822" data-name="Path 19822" d="M238.646,127.063a7.323,7.323,0,0,0,4.191,1.166c3.33.068,11.582-.848,11.582-.848a6.811,6.811,0,0,1,.352,2.105s-10.079,2.543-15.917.372a3.694,3.694,0,0,1-.208-2.8" transform="translate(56.32 30.011)" fill="#0b3563"/>
        <path id="Path_19823" data-name="Path 19823" d="M241.642,130.985a1.733,1.733,0,1,1,1.519-1.72,1.63,1.63,0,0,1-1.519,1.72m0-2.936a1.236,1.236,0,1,0,1.016,1.216,1.131,1.131,0,0,0-1.016-1.216" transform="translate(56.715 30.125)" fill="#fff"/>
        <path id="Path_19824" data-name="Path 19824" d="M251.559,136.206l-15.147.142-7.453-17.517,15.147-.142Z" transform="translate(54.079 28.033)" fill="#e2521e"/>
        <path id="Path_19825" data-name="Path 19825" d="M247.124,126.984l-1.11-1.364a3.921,3.921,0,0,0-1.3-.785c-.545-.113-1.7-.776-1.809-.59s.885,1.522.885,1.522l.051.007c-1.143.86-4.031.1-4.387.45-.431.426.595,1.346,1.145,1.862a4.051,4.051,0,0,0,3.354,1c.9-.281,2.31-.565,2.31-.565Z" transform="translate(56.534 29.338)" fill="#ffae73"/>
        <path id="Path_19826" data-name="Path 19826" d="M229.9,121.43s.952-1.082,1.558-.562-.158,3.072-.736,2.812-1.153-1.932-.822-2.25" transform="translate(54.278 28.515)" fill="#ffae73"/>
        <path id="Path_19827" data-name="Path 19827" d="M251.961,108.663a8.612,8.612,0,0,1,6.987,5.061c1.936,4.706,5.495,12.452,4.73,15.7-.305,1.294-3.984,5.775-19.33,2.927a3.588,3.588,0,0,1,1.162-2.357s10.813-3.471,10.794-4.161c-.036-1.307-1.461-2.435-7.5-8.477-1.642-1.643,3.158-8.692,3.158-8.692" transform="translate(57.713 25.665)" fill="#2b5c8b"/>
        <path id="Path_19828" data-name="Path 19828" d="M249.058,110.115c.148-.2-.043-.837-.281-2.024a22.05,22.05,0,0,1-.574-4.606l-.32.053-5.374.9s.122,1.436.126,2.79v.033c.006,1.176-.318,2.952.079,3.184,2.036,1.193,5.769.433,6.343-.336" transform="translate(57.279 24.442)" fill="#ffae73"/>
        <path id="Path_19829" data-name="Path 19829" d="M242.509,104.433s.106,2.026.11,3.38c3.008-.072,4.612-2.992,5.264-4.283Z" transform="translate(57.279 24.453)" fill="#f48f4e"/>
        <path id="Path_19830" data-name="Path 19830" d="M242.952,108.589s7.045-1,6.353-5.381-.25-7.455-4.777-7-5.135,2.263-5.26,3.78,1.833,8.749,3.684,8.6" transform="translate(56.512 22.713)" fill="#ffae73"/>
        <path id="Path_19831" data-name="Path 19831" d="M240.919,96.757s2.742,4.829,5.815,5.118,4.229-.707,4.229-.707a8.464,8.464,0,0,1-3.522-4.5s-5.46-2.582-6.522.093" transform="translate(56.903 22.567)" fill="#1f529f"/>
        <path id="Path_19832" data-name="Path 19832" d="M241.971,96.926a4.412,4.412,0,0,0-1.763,1.9,7.153,7.153,0,0,0-.31,4.168s-2.005-3.259-.691-5.492c1.394-2.369,2.764-.571,2.764-.571" transform="translate(56.394 22.739)" fill="#1f529f"/>
      </g>
    </g>
  </g>
</svg>
