<svg xmlns="http://www.w3.org/2000/svg" xmlns:xlink="http://www.w3.org/1999/xlink" width="253.515" height="168.19" viewBox="0 0 253.515 168.19">
  <defs>
    <clipPath id="clip-path">
      <rect id="Rectangle_889" data-name="Rectangle 889" width="253.515" height="168.19" fill="none"/>
    </clipPath>
  </defs>
  <g id="Group_1961" data-name="Group 1961" clip-path="url(#clip-path)">
    <path id="Path_16095" data-name="Path 16095" d="M7.268,168.19s-28.65-78.531,27.816-78.531c29.835,0,17.544-21.547,37.828-46.482S164.133-1.681,179.231,46.47s-22.215,84.712,13.84,78.44c43.328-7.536,60.444,43.28,60.444,43.28Z" fill="#dcf3fd"/>
    <path id="Path_16096" data-name="Path 16096" d="M138.344,40.008c.579-.17,8.717-.124,8.677.215s-.173,5.067-.245,5.525c.024,1.019-1.293,2.459-4.291,2.53s-4.382-1.3-4.406-2.324c-.123-.515-.507-5.507-.507-5.507Z" fill="#2b5c8b"/>
    <path id="Path_16097" data-name="Path 16097" d="M151.975,27.829c-.073-3.053-2.608-9.428-9.963-9.428-7.749,0-9.894,6.722-9.973,9.291-.111,3.6,1.866,6.453,4.255,8.593,1.279,1.145,1.279,4.162,1.279,4.162l9.449-.224s-.218-2.656,1.269-4.056a11.1,11.1,0,0,0,3.684-8.338" fill="#ffc357"/>
    <path id="Path_16098" data-name="Path 16098" d="M137.211,29.98l-1.327-.574c-.165-.072-.156-.19.02-.263a.848.848,0,0,1,.571,0l.744.322a.271.271,0,0,0,.194,0l1.269-.585a.282.282,0,0,1,.186-.007l1.509.539a.282.282,0,0,0,.186-.007l.143-.066a3.705,3.705,0,0,1,2.561-.06l.157.063a.28.28,0,0,0,.183,0l1.589-.622a.275.275,0,0,1,.19,0l1.14.53a.278.278,0,0,0,.191,0l.958-.4a.834.834,0,0,1,.568,0c.164.071.155.189-.02.261l-1.569.647a.278.278,0,0,1-.193,0l-1.153-.537a.284.284,0,0,0-.191,0l-1.548.606a.283.283,0,0,1-.184,0l-.106-.043a3.705,3.705,0,0,0-2.561.061l-.109.05a.27.27,0,0,1-.186.007l-1.509-.539a.267.267,0,0,0-.185.007l-1.324.61a.27.27,0,0,1-.194,0" fill="#f27933"/>
    <path id="Path_16099" data-name="Path 16099" d="M143.818,41.643a.205.205,0,0,0,.205-.2,23.344,23.344,0,0,1,3.325-12.777.2.2,0,0,0-.353-.208,23.726,23.726,0,0,0-3.381,12.985.2.2,0,0,0,.2.2" fill="#2b5c8b"/>
    <path id="Path_16100" data-name="Path 16100" d="M140.193,41.643a.205.205,0,0,0,.205-.2,23.728,23.728,0,0,0-3.382-12.985.2.2,0,1,0-.352.208,23.352,23.352,0,0,1,3.325,12.777.2.2,0,0,0,.2.2" fill="#2b5c8b"/>
    <path id="Path_16101" data-name="Path 16101" d="M146.8,42.332l-8.909.212a.655.655,0,0,1-.67-.639v-.051a.654.654,0,0,1,.638-.67l8.91-.211a.654.654,0,0,1,.67.638v.051a.656.656,0,0,1-.639.67" fill="#5386b5"/>
    <path id="Path_16102" data-name="Path 16102" d="M146.84,44l-8.909.212a.655.655,0,0,1-.67-.639v-.051a.654.654,0,0,1,.638-.67l8.91-.211a.654.654,0,0,1,.67.638v.051a.656.656,0,0,1-.639.67" fill="#5386b5"/>
    <path id="Path_16103" data-name="Path 16103" d="M146.845,45.691l-8.909.212a.655.655,0,0,1-.67-.639l0-.051a.656.656,0,0,1,.639-.67l8.91-.211a.654.654,0,0,1,.67.638v.051a.655.655,0,0,1-.639.67" fill="#5386b5"/>
    <path id="Path_16104" data-name="Path 16104" d="M185.611,98.969l-.253,1.6a3.154,3.154,0,0,0,1.1,4.543s1.267.695,1.55-.273.019-.626.449-1.985a2.867,2.867,0,0,0-.768-3.313l-.625-.973Z" fill="#ffa77d"/>
    <path id="Path_16105" data-name="Path 16105" d="M186.656,100.5c-1.286.171-1.465.047-1.465.047s-3.96-11.843-4.38-12.938-10.367-14.358-10.367-14.358l5.154-10.9s10.4,20.086,11.415,22.88c1.67,4.617,1.331,14.576,1.331,14.576a3.6,3.6,0,0,1-1.688.7" fill="#3ca0d7"/>
    <path id="Path_16106" data-name="Path 16106" d="M188.518,100.714a6.547,6.547,0,0,0,.511,1.672c.275.382.539.719.3.9s-1.25-.818-1.288-1.024a9.027,9.027,0,0,1,.479-1.551" fill="#ffa77d"/>
    <path id="Path_16107" data-name="Path 16107" d="M198.313,121.292l-18.2,2.593a4.361,4.361,0,0,1-4.919-3.692l-1.124-7.886a4.363,4.363,0,0,1,3.692-4.92l18.2-2.593a4.363,4.363,0,0,1,4.92,3.693l1.123,7.886a4.362,4.362,0,0,1-3.692,4.919" fill="#234662"/>
    <path id="Path_16108" data-name="Path 16108" d="M204.417,116.117l-1.137-7.978a4.379,4.379,0,0,0-4.938-3.706l-6.254.891-.242-1.7a1.443,1.443,0,0,0-1.63-1.224l-5.435.775a1.443,1.443,0,0,0-1.223,1.63l.242,1.7-3.622.517a4.379,4.379,0,0,0-3.707,4.938l1.137,7.977a4.379,4.379,0,0,0,4.938,3.706l18.165-2.588a4.379,4.379,0,0,0,3.706-4.938m-19.965-11.44a.538.538,0,0,1,.457-.608l5.435-.775a.54.54,0,0,1,.608.457l.242,1.7-6.5.926Z" fill="#234662"/>
    <path id="Path_16109" data-name="Path 16109" d="M175.454,61.863s-4.066,3.362-8.026.928a13.117,13.117,0,0,1-.23-4.02c.035-.2.068-.4.1-.582.311-1.845.437-2.889.437-2.889h0c.209-.045,7-1.493,6.955-1.278-1.012,4.957.762,7.841.762,7.841" fill="#ffa77d"/>
    <path id="Path_16110" data-name="Path 16110" d="M173.842,55.093a10.046,10.046,0,0,1-6.546,3.1c.311-1.844.437-2.888.437-2.888h0c.184-.015,6.347-.507,6.1-.207" fill="#ed8b5d"/>
    <path id="Path_16111" data-name="Path 16111" d="M166.444,54.869s6.8,2.961,8.582-1.3,3.855-6.756-.413-8.827-5.8-.8-6.737.482-3.156,8.769-1.432,9.649" fill="#ffa77d"/>
    <path id="Path_16112" data-name="Path 16112" d="M174.564,54.73c.086.081,1.53.828,5.473-4.415a5.106,5.106,0,0,0,.539-4.65c-.745-1.923-4.256-3.967-7.27-5.126s-4.083.462-5.139,2.093a9.674,9.674,0,0,1-3.614,2.834c2.419,1.994,6.052.431,7.111.989s1.135,2.4,1.116,2.983.025,1.078,1.53.828.275,2.116-.038,2.556c0,0-.424,1.243.292,1.908" fill="#284464"/>
    <path id="Path_16113" data-name="Path 16113" d="M184.906,167.219h4.374c.916,0,1.935-.918,2.19-2.6s2.14-2.6,2.548-3.974-1.682-3.313-1.682-3.313l-.349-.449-.364-.468-3.464.815s-.086.825-.139,1.876a23.784,23.784,0,0,0-.014,2.4c.1,1.835-.514,3.811-2.144,4.168s-.956,1.54-.956,1.54" fill="#284464"/>
    <path id="Path_16114" data-name="Path 16114" d="M154.458,167.219h11.594a1.108,1.108,0,0,0,.246-.071c.774-.388.531-3.351.438-4.267-.018-.17-.03-.269-.03-.269s-4.077-3.261-4.638-.764c-.018.078-.038.154-.06.23h0c-.708,2.336-3.871,3.4-5.7,3.693a1.989,1.989,0,0,0-1.851,1.447" fill="#284464"/>
    <path id="Path_16115" data-name="Path 16115" d="M156.795,100.363s.619,7.725,1.347,17.01c.989,12.613,2.178,28.107,2.3,31.042.2,5.1,1.019,13.25,1.019,13.25s1.936,1.936,5.81,1.12a133.41,133.41,0,0,0,4.437-23.952q.024-.3.046-.608c.918-12.536,2.344-38.932,2.344-38.932Z" fill="#2b5c8b"/>
    <path id="Path_16116" data-name="Path 16116" d="M156.795,100.363s.619,7.725,1.347,17.01l13.562,21.46q.024-.3.046-.608c.918-12.536,2.344-38.932,2.344-38.932Z" fill="#234662"/>
    <path id="Path_16117" data-name="Path 16117" d="M159.622,101.28s11.16,27.976,18.5,41.122,9.631,16.816,9.631,16.816,4.2-1.681,4.587-2.828c0,0-2.807-25.38-7.721-31.568-2.776-3.5-6.038-13.987-6.191-17.656s-.994-10.931-.994-10.931Z" fill="#2b5c8b"/>
    <path id="Path_16118" data-name="Path 16118" d="M156.209,103.051a.692.692,0,0,0,.447.2c1.634.091,6.337,1.318,10.4,1.178a30.051,30.051,0,0,0,9.825-2.131c.443-.163,1.466-.622,1.477-1.1.02-.525.02-1.292.019-2.256a120.379,120.379,0,0,1,.821-15.7c.154-1.227.273-2.446.359-3.649a55.65,55.65,0,0,0-.033-8.88c-.463-5.063-1.762-9.112-3.966-11-.291-.239-2.226.55-4.005,1.283a7.153,7.153,0,0,1-4.722.251l-1.593,1.226a15.056,15.056,0,0,0-5.215,7.2c-1.649,5.106-2.922,18.869-3.089,21.417-.108.671-.908,11.8-.721,11.968" fill="#42b9f3"/>
    <path id="Path_16119" data-name="Path 16119" d="M158.705,75.762a46.651,46.651,0,0,1,1.356-6.1,14.481,14.481,0,0,1,4.378-6.49c2.593.845,5.344,1.916,6.489,2.953,2.434,2.206,2.056,6.731,2.056,6.731a52.9,52.9,0,0,1-16,17.489c.289-3.572.986-10.087,1.72-14.587" fill="#3ca0d7"/>
    <path id="Path_16120" data-name="Path 16120" d="M140.968,48.4c.057-.768.159-2.494-.066-2.445a.961.961,0,0,0-.5.526c-.152.632-1.334-.182-2-1.924a10.34,10.34,0,0,0-.71-1.95c-.288,0-.935.818-1,2.57s.438,3.759,1.847,4.723l.949,1.112,2.125-1.069s-.339-.756-.65-1.543" fill="#ffa77d"/>
    <path id="Path_16121" data-name="Path 16121" d="M139.992,49.383c1.13-.791,1.694-.3,1.694-.3S151.068,59.768,152,60.6s15.241,4.09,15.241,4.09,5.777,1.076,6.589,4.312a6,6,0,0,1-2.165,6.234,6.072,6.072,0,0,1-6.794.795c-4.97-2.583-14.841-7.8-16.566-9.39-3.841-3.537-9.62-15.77-9.62-15.77a4.339,4.339,0,0,1,1.306-1.483" fill="#42b9f3"/>
    <path id="Path_16122" data-name="Path 16122" d="M110.107,72.99c.758-.639,2.061-1.425,2.136-1.207.053.157-.2.657-.377.934a18.14,18.14,0,0,1,3.3.038c.633.08,1.626.234,1.826.539.092.141.166.426-.335.8a6.037,6.037,0,0,1-2.226,1.225,12.232,12.232,0,0,1-5.318.37l-.485-.08-.159-2.108a6.9,6.9,0,0,0,1.642-.51" fill="#ffa77d"/>
    <path id="Path_16123" data-name="Path 16123" d="M72.5,61.186s3.41,4.046,7.754,2.354a13.161,13.161,0,0,0,.947-3.926c0-.2,0-.4.007-.593.024-1.875.087-2.928.087-2.928h0c-.2-.082-6.639-2.727-6.634-2.507.111,5.073-2.156,7.6-2.156,7.6" fill="#ffa77d"/>
    <path id="Path_16124" data-name="Path 16124" d="M75.3,54.794a10.078,10.078,0,0,0,5.9,4.227c.023-1.876.087-2.928.087-2.928h0c-.178-.048-6.172-1.637-5.987-1.3" fill="#ed8b5d"/>
    <path id="Path_16125" data-name="Path 16125" d="M82.641,55.9S75.4,57.6,74.4,53.073s-2.593-7.357,1.99-8.636,5.863.252,6.562,1.683,1.543,9.218-.316,9.778" fill="#ffa77d"/>
    <path id="Path_16126" data-name="Path 16126" d="M74.653,54.307c-.1.063-1.346-1.1-3.271-4.848a5.791,5.791,0,0,1,0-5.1c1.08-1.765,3.752-2.475,6.912-3.187,2.826-.638,3.826.057,4.664,1.457,1.561,2.606,0,3.49,0,3.49-1.665.869-2.815.179-3.96.54s-1.55,2.165-1.635,2.743-.218,1.06-1.658.543-.651,2.041-.421,2.529c0,0,.2,1.3-.63,1.832" fill="#284464"/>
    <path id="Path_16127" data-name="Path 16127" d="M55.991,167.219H51.6c-.919,0-1.941-.921-2.2-2.606s-2.146-2.607-2.555-3.987,1.687-3.322,1.687-3.322l.35-.45.365-.47,3.475.817s.085.828.139,1.882a23.941,23.941,0,0,1,.014,2.412c-.1,1.84.515,3.821,2.15,4.179s.959,1.545.959,1.545" fill="#284464"/>
    <path id="Path_16128" data-name="Path 16128" d="M86.529,167.219H74.9a1.059,1.059,0,0,1-.247-.072c-.776-.388-.533-3.36-.439-4.279.017-.17.03-.269.03-.269s4.089-3.271,4.652-.767c.017.079.038.155.06.231h0c.709,2.343,3.882,3.407,5.715,3.7a2,2,0,0,1,1.857,1.452" fill="#284464"/>
    <path id="Path_16129" data-name="Path 16129" d="M84.185,100.166s-.621,7.747-1.351,17.06c-.992,12.651-2.185,28.19-2.3,31.134-.2,5.111-1.022,13.288-1.022,13.288s-1.941,1.942-5.827,1.124a133.731,133.731,0,0,1-4.45-24.023c-.016-.2-.031-.406-.047-.61-.919-12.572-2.35-39.046-2.35-39.046Z" fill="#2b5c8b"/>
    <path id="Path_16130" data-name="Path 16130" d="M84.185,100.166s-.621,7.747-1.351,17.06l-13.6,21.523c-.016-.2-.031-.406-.047-.61-.919-12.572-2.35-39.046-2.35-39.046Z" fill="#234662"/>
    <path id="Path_16131" data-name="Path 16131" d="M81.349,101.086S70.157,129.144,62.8,142.329,53.138,159.2,53.138,159.2s-4.216-1.687-4.6-2.837c0,0,2.814-25.455,7.743-31.661,2.785-3.506,6.056-14.028,6.209-17.708s1-10.963,1-10.963Z" fill="#2b5c8b"/>
    <path id="Path_16132" data-name="Path 16132" d="M109.384,74.158c-.119-1.3-.279-1.443-.279-1.443s-12.462-1.251-13.626-1.42-16.34-6.961-16.34-6.961L69.615,71.79s21.951,5.731,24.908,6.1c4.887.61,14.554-1.927,14.554-1.927a3.63,3.63,0,0,0,.307-1.805" fill="#3ca0d7"/>
    <path id="Path_16133" data-name="Path 16133" d="M86.548,77.9c-.043,2.4-.183,5.1-.371,7.836-.339,4.822-.685,8.237-.7,8.342-.611,6.213-1.252,11.121-1.371,11.2a.7.7,0,0,1-.477.121c-1.629-.205-6.49.165-10.47-.7a30.149,30.149,0,0,1-9.314-3.862c-.407-.24-1.334-.877-1.259-1.353.074-.523.211-1.279.385-2.229a120.664,120.664,0,0,0,2-15.642q.1-1.86.3-3.667A55.7,55.7,0,0,1,66.9,69.19c1.365-4.914,4.251-8.6,6.767-10.067.329-.184,1.216.86,2.84,1.9,1.5.962,2.922.524,4.458.389l1.509,2.2c4,4.646,4.185,8.149,4.075,14.29" fill="#42b9f3"/>
    <path id="Path_16134" data-name="Path 16134" d="M86.548,77.9c-.043,2.4-.183,5.1-.371,7.836-.011.162-.023.324-.034.487C76.836,80.4,78.88,63.953,78.88,63.953c3.971,1.533,6.577,5.426,7.209,6.375.131,1.466.5,5.5.459,7.576" fill="#3ca0d7"/>
    <path id="Path_16135" data-name="Path 16135" d="M110.406,81.144c.631-.445,2.061-1.426,2.136-1.207.053.157-.205.657-.377.934a18.14,18.14,0,0,1,3.3.038c.633.08,1.626.234,1.826.54.092.14.166.425-.335.8a6.037,6.037,0,0,1-2.226,1.225,12.232,12.232,0,0,1-5.318.37l-.485-.08-.179-2.38s.824-.1,1.662-.238" fill="#ffa77d"/>
    <path id="Path_16136" data-name="Path 16136" d="M110.062,82.493c.1-1.38-.619-1.61-.619-1.61S95.411,78.34,94.218,77.965,82.826,66.979,82.826,66.979s-3.91-4.409-7.111-3.435a6.018,6.018,0,0,0-4.24,5.083,6.089,6.089,0,0,0,2.828,6.25c4.789,2.937,14.375,8.724,16.633,9.386,5.025,1.474,18.526.118,18.526.118a4.346,4.346,0,0,0,.6-1.888" fill="#42b9f3"/>
    <line id="Line_77" data-name="Line 77" y1="7.296" x2="6.728" transform="translate(152.335 8.218)" fill="none" stroke="#42b9f3" stroke-linecap="round" stroke-linejoin="round" stroke-width="1"/>
    <line id="Line_78" data-name="Line 78" y1="0.699" x2="11.358" transform="translate(156.181 24.791)" fill="none" stroke="#42b9f3" stroke-linecap="round" stroke-linejoin="round" stroke-width="1"/>
    <line id="Line_79" data-name="Line 79" y1="12.175" x2="0.471" transform="translate(142.311 0.5)" fill="none" stroke="#42b9f3" stroke-linecap="round" stroke-linejoin="round" stroke-width="1"/>
    <line id="Line_80" data-name="Line 80" x1="8.915" y1="7.397" transform="translate(122.3 10.869)" fill="none" stroke="#42b9f3" stroke-linecap="round" stroke-linejoin="round" stroke-width="1"/>
    <line id="Line_81" data-name="Line 81" x1="11.214" y2="0.344" transform="translate(117.354 28.353)" fill="none" stroke="#42b9f3" stroke-linecap="round" stroke-linejoin="round" stroke-width="1"/>
  </g>
</svg>
