<svg id="Group_2577" data-name="Group 2577" xmlns="http://www.w3.org/2000/svg" xmlns:xlink="http://www.w3.org/1999/xlink" width="269.04" height="153.079" viewBox="0 0 269.04 153.079">
  <defs>
    <clipPath id="clip-path">
      <rect id="Rectangle_2562" data-name="Rectangle 2562" width="269.04" height="153.079" fill="none"/>
    </clipPath>
  </defs>
  <g id="Group_2576" data-name="Group 2576" clip-path="url(#clip-path)">
    <path id="Path_19839" data-name="Path 19839" d="M20.713,153s-32.073-38.635-16.4-78.409C14.532,48.668,52.858,34.462,74.487,48.668c9.212,6.05,38.767.2,54.548-24.846C159.7-24.856,266.724,4.707,247.24,79.444c-9.429,36.167,28.7,37.482,9.27,73.635Z" fill="#dcf3fd"/>
    <path id="Path_19840" data-name="Path 19840" d="M44.454,89.417s-3.235-3.774-.2-6.171a8.61,8.61,0,0,1,4.024-1.233s-2.561,4.295-1.733,4.723,2.51-4.992,2.51-4.992,5.045-.49,6.668.291c0,0-4.313,3.529-3.4,3.739s5.567-3.254,5.567-3.254,4.7.8,4.445,3.664-1.868,3.749-2.579,3.673-4.871-1.665-4.962-1.082,2.414,2.487,4.167,2.576c0,0-3.31,3.651-5.51,2.6s-2.388-2.724-3.76-3.35-2.542-.625-1.976.014,3.048,1.26,3.833,2.647,1.488,2.323-.789,1.981-5.976-2.008-6.139-3.916Z" fill="#c8dbf4"/>
    <path id="Path_19841" data-name="Path 19841" d="M60.024,86.261s-12.754-.491-15.57,3.156a9.226,9.226,0,0,1-2.54,3.564l-.3.815s2.21-2.331,3-2.472c0,0-1.237-4.518,15.408-5.063" fill="#c8dbf4"/>
    <path id="Path_19842" data-name="Path 19842" d="M41.914,92.981a8.013,8.013,0,0,0-2.928,5.642l.5.044s.875-3.74,2.455-5.2-.024-.483-.024-.483" fill="#c8dbf4"/>
    <path id="Path_19843" data-name="Path 19843" d="M33.144,84.671s5.145-2.881,2.744-6.792a10.222,10.222,0,0,0-3.979-3.019s1.1,5.832,0,5.969-.755-6.586-.755-6.586-5.419-2.607-7.546-2.4c0,0,3.361,5.694,2.264,5.557S21,71.5,21,71.5s-5.557-1.03-6.449,2.264.548,4.939,1.372,5.145,6.106.137,5.969.823-3.7,1.784-5.695,1.167c0,0,2.2,5.42,5.077,5.145s3.773-2.058,5.557-2.195,3.088.343,2.2.823-3.911.157-5.352,1.382-2.607,1.98.069,2.529,7.478.205,8.439-1.853Z" fill="#c8dbf4"/>
    <path id="Path_19844" data-name="Path 19844" d="M17.09,74.792S31.5,79.457,33.144,84.671a10.942,10.942,0,0,0,1.372,5.009v1.029s-1.509-3.5-2.333-3.979c0,0,3.225-4.529-15.093-11.938" fill="#c8dbf4"/>
    <path id="Path_19845" data-name="Path 19845" d="M34.516,89.68a9.5,9.5,0,0,1,.955,7.481l-.571-.154s.554-4.523-.608-6.8.224-.529.224-.529" fill="#c8dbf4"/>
    <path id="Path_19846" data-name="Path 19846" d="M41.33,80.7s-6.783-3.8-3.617-8.953c0,0,2.532-3.165,5.245-3.979,0,0-1.447,7.687,0,7.868s.995-8.682.995-8.682S51.1,63.514,53.9,63.785c0,0-4.432,7.507-2.985,7.326s6.421-7.778,6.421-7.778,7.326-1.356,8.5,2.985-.723,6.511-1.809,6.782-8.048.181-7.867,1.086,4.883,2.351,7.506,1.537c0,0-2.894,7.145-6.693,6.783S52,79.793,49.65,79.612s-4.069.452-2.894,1.085,5.155.207,7.054,1.822,3.437,2.609-.09,3.333-9.858.271-11.124-2.442Z" fill="#d4e4f8"/>
    <path id="Path_19847" data-name="Path 19847" d="M62.492,67.674S43.5,73.824,41.33,80.7a14.433,14.433,0,0,1-1.809,6.6v1.356s1.99-4.612,3.075-5.245c0,0-4.25-5.969,19.9-15.736" fill="#d4e4f8"/>
    <path id="Path_19848" data-name="Path 19848" d="M39.522,87.3a12.525,12.525,0,0,0-1.259,9.861l.753-.2S38.285,91,39.817,88s-.3-.7-.3-.7" fill="#d4e4f8"/>
    <path id="Path_19849" data-name="Path 19849" d="M41.1,108.9A13.286,13.286,0,0,0,54.388,95.615H27.816A13.286,13.286,0,0,0,41.1,108.9" fill="#d4e4f8"/>
    <path id="Path_19850" data-name="Path 19850" d="M54.572,109.577H27.633a1.639,1.639,0,0,1,1.639-1.639H52.933A1.639,1.639,0,0,1,54.572,109.577Z" fill="#d4e4f8"/>
    <rect id="Rectangle_2555" data-name="Rectangle 2555" width="27.311" height="0.408" transform="translate(27.379 95.614)" fill="#9fc1f4"/>
    <path id="Path_19851" data-name="Path 19851" d="M142.495,152.726h.066a.893.893,0,0,0,.9-.954L139.88,116l-3.125.279,5.143,35.96a.582.582,0,0,0,.6.483" fill="#8cb4f4"/>
    <path id="Path_19852" data-name="Path 19852" d="M108.01,152.726h-.066a.893.893,0,0,1-.9-.954L110.625,116l3.125.279-5.143,35.96a.582.582,0,0,1-.6.483" fill="#8cb4f4"/>
    <path id="Path_19853" data-name="Path 19853" d="M167.761,152.726h.066a.892.892,0,0,0,.9-.954L165.146,116l-3.125.279,5.143,35.96a.582.582,0,0,0,.6.483" fill="#8cb4f4"/>
    <path id="Path_19854" data-name="Path 19854" d="M109.076,110.8l-6.357-31.393A6.957,6.957,0,0,1,110,71.375l12.26.28a9.685,9.685,0,0,1,9.083,6.991l9.3,32.155Z" fill="#8cb4f4"/>
    <path id="Path_19855" data-name="Path 19855" d="M112.922,110.8l-6.357-31.393a6.957,6.957,0,0,1,7.279-8.033l12.26.28a9.685,9.685,0,0,1,9.083,6.991l9.3,32.155Z" fill="#8cb4f4"/>
    <path id="Path_19856" data-name="Path 19856" d="M110.848,116.527h48.507a1.776,1.776,0,0,0,1.771-1.772v-2.182a1.777,1.777,0,0,0-1.771-1.772H109.076v3.954a1.777,1.777,0,0,0,1.772,1.772" fill="#8cb4f4"/>
    <path id="Path_19857" data-name="Path 19857" d="M133.611,116.527h30.922a1.431,1.431,0,0,0,1.427-1.427v-2.871a1.432,1.432,0,0,0-1.427-1.428H133.611a1.432,1.432,0,0,0-1.427,1.428V115.1a1.431,1.431,0,0,0,1.427,1.427" fill="#8cb4f4"/>
    <path id="Path_19858" data-name="Path 19858" d="M61.767,110.393v1.071c0,.375-.121.681-.27.681H22.413c-.148,0-.27-.306-.27-.681v-1.071c0-.374.122-.681.27-.681H61.5c.149,0,.27.307.27.681" fill="#9abfe2"/>
    <path id="Path_19859" data-name="Path 19859" d="M61.767,110.393v1.071c0,.375-.111.681-.247.681H30.491c-.136,0-.248-.306-.248-.681v-1.071c0-.374.112-.681.248-.681H61.52c.136,0,.247.307.247.681" fill="#bad4f4"/>
    <rect id="Rectangle_2556" data-name="Rectangle 2556" width="27.748" height="40.444" transform="translate(24.127 112.145)" fill="#c8dbf4"/>
    <rect id="Rectangle_2557" data-name="Rectangle 2557" width="27.748" height="40.444" transform="translate(31.903 112.145)" fill="#dfebfd"/>
    <path id="Path_19860" data-name="Path 19860" d="M58.16,150.356H33.394V113.288H58.16Zm-24.5-.268H57.893V113.555H33.662Z" fill="#b7d3f3"/>
    <rect id="Rectangle_2558" data-name="Rectangle 2558" width="24.498" height="0.267" transform="translate(33.529 125.55)" fill="#b7d3f3"/>
    <rect id="Rectangle_2559" data-name="Rectangle 2559" width="24.498" height="0.267" transform="translate(33.529 138.052)" fill="#b7d3f3"/>
    <path id="Path_19861" data-name="Path 19861" d="M48.288,115.678H43.742a.4.4,0,0,1,0-.8h4.546a.4.4,0,0,1,0,.8" fill="#b7d3f3"/>
    <path id="Path_19862" data-name="Path 19862" d="M48.288,127.9H43.742a.4.4,0,1,1,0-.8h4.546a.4.4,0,0,1,0,.8" fill="#b7d3f3"/>
    <path id="Path_19863" data-name="Path 19863" d="M48.288,140.647H43.742a.4.4,0,0,1,0-.8h4.546a.4.4,0,0,1,0,.8" fill="#b7d3f3"/>
    <path id="Path_19864" data-name="Path 19864" d="M170.7,39.427H153.109a1.473,1.473,0,0,1-1.468-1.468V20.983a1.473,1.473,0,0,1,1.468-1.468H170.7a1.473,1.473,0,0,1,1.468,1.468V37.959a1.473,1.473,0,0,1-1.468,1.468" fill="#c0d8fb"/>
    <path id="Path_19865" data-name="Path 19865" d="M169.935,38.565H153.871a1.344,1.344,0,0,1-1.341-1.341V21.72a1.344,1.344,0,0,1,1.341-1.341h16.064a1.345,1.345,0,0,1,1.341,1.341v15.5a1.345,1.345,0,0,1-1.341,1.341" fill="#dfebfd"/>
    <path id="Path_19866" data-name="Path 19866" d="M161.478,22.2a.425.425,0,1,1,.425.425.425.425,0,0,1-.425-.425" fill="#b7d3f3"/>
    <path id="Path_19867" data-name="Path 19867" d="M164.908,22.8a.425.425,0,1,1,.165.578.426.426,0,0,1-.165-.578" fill="#b7d3f3"/>
    <path id="Path_19868" data-name="Path 19868" d="M167.847,25.131a.425.425,0,1,1-.127.588.426.426,0,0,1,.127-.588" fill="#b7d3f3"/>
    <path id="Path_19869" data-name="Path 19869" d="M169.3,28.745a.425.425,0,1,1-.425.425.425.425,0,0,1,.425-.425" fill="#b7d3f3"/>
    <path id="Path_19870" data-name="Path 19870" d="M168.56,32.94a.425.425,0,1,1-.6,0,.425.425,0,0,1,.6,0" fill="#b7d3f3"/>
    <path id="Path_19871" data-name="Path 19871" d="M165.89,35.616a.425.425,0,1,1-.6,0,.425.425,0,0,1,.6,0" fill="#b7d3f3"/>
    <path id="Path_19872" data-name="Path 19872" d="M161.478,37a.425.425,0,1,1,.425.425.425.425,0,0,1-.425-.425" fill="#b7d3f3"/>
    <path id="Path_19873" data-name="Path 19873" d="M158.884,22.8a.425.425,0,1,0-.165.578.426.426,0,0,0,.165-.578" fill="#b7d3f3"/>
    <path id="Path_19874" data-name="Path 19874" d="M155.945,25.131a.425.425,0,1,0,.127.588.426.426,0,0,0-.127-.588" fill="#b7d3f3"/>
    <path id="Path_19875" data-name="Path 19875" d="M154.489,28.745a.425.425,0,1,0,.425.425.425.425,0,0,0-.425-.425" fill="#b7d3f3"/>
    <path id="Path_19876" data-name="Path 19876" d="M155.232,32.94a.425.425,0,1,0,.6,0,.425.425,0,0,0-.6,0" fill="#b7d3f3"/>
    <path id="Path_19877" data-name="Path 19877" d="M157.9,35.616a.425.425,0,1,0,.6,0,.425.425,0,0,0-.6,0" fill="#b7d3f3"/>
    <path id="Path_19878" data-name="Path 19878" d="M161.788,29.171a.425.425,0,1,1,.425.425.425.425,0,0,1-.425-.425" fill="#b7d3f3"/>
    <rect id="Rectangle_2560" data-name="Rectangle 2560" width="0.116" height="5.311" transform="translate(162.155 23.86)" fill="#b7d3f3"/>
    <rect id="Rectangle_2561" data-name="Rectangle 2561" width="3.58" height="0.348" transform="translate(162.052 29.026) rotate(-38.122)" fill="#b7d3f3"/>
    <path id="Path_19879" data-name="Path 19879" d="M151.333,104.232a17.036,17.036,0,0,1-5.925,6.33H131.677s21.658-9.814,19.656-6.33" fill="#234662"/>
    <path id="Path_19880" data-name="Path 19880" d="M168.269,149.607c-.148,1.441,1.855,1.813,4.179,1.954s1.617.609,4.8,1.22,4.467-.247,4.7-.675c.209-.38-1.266-.993-2.837-1.685-.2-.086-.4-.175-.594-.265-1.769-.8-2.749-2.4-4.118-3.9-1.3-1.413-2.495-5.907-2.495-5.907l-4.321-.972s1.173,4.046,1.577,5.773a5.338,5.338,0,0,1-.476,3,5.689,5.689,0,0,0-.414,1.453" fill="#ffa77d"/>
    <path id="Path_19881" data-name="Path 19881" d="M172.448,151.56c2.324.141,1.616.609,4.8,1.221s4.466-.247,4.7-.675c.21-.38-1.265-.993-2.837-1.686l-.025.027a9.07,9.07,0,0,1-4.827.006c-2.1-.6-4.126-1.877-5.574-2.3a5.614,5.614,0,0,0-.414,1.452c-.149,1.441,1.855,1.813,4.179,1.954" fill="#0e3449"/>
    <path id="Path_19882" data-name="Path 19882" d="M161.723,99.553c-2.325-1.632-17.7-4.543-25.55-5.384l-8.674-7.53s-7.383,10.936-7.442,19.3c-.027,3.9,1.77,4.288,1.77,4.289s27.806.206,29.025.332c1.995.205,4.627,5.175,5.284,9.7S168.389,143.2,168.389,143.2a14.524,14.524,0,0,0,3.537.709,3.543,3.543,0,0,0,1.759-.473s-6.719-40.2-11.962-43.886" fill="#234662"/>
    <path id="Path_19883" data-name="Path 19883" d="M161.076,149.607c-.148,1.441,1.855,1.813,4.179,1.954s1.617.609,4.8,1.22,4.467-.247,4.7-.675c.209-.38-1.266-.993-2.837-1.685-.2-.086-.4-.175-.594-.265-1.769-.8-2.749-2.4-4.118-3.9-1.3-1.413-2.495-5.907-2.495-5.907l-4.321-.972s1.173,4.046,1.576,5.773a5.329,5.329,0,0,1-.475,3,5.689,5.689,0,0,0-.414,1.453" fill="#ffa77d"/>
    <path id="Path_19884" data-name="Path 19884" d="M165.256,151.56c2.324.141,1.616.609,4.8,1.221s4.467-.247,4.7-.675c.21-.38-1.265-.993-2.837-1.686l-.025.027a9.07,9.07,0,0,1-4.827.006c-2.1-.6-4.127-1.877-5.574-2.3a5.614,5.614,0,0,0-.414,1.452c-.149,1.441,1.855,1.813,4.179,1.954" fill="#234662"/>
    <path id="Path_19885" data-name="Path 19885" d="M154.467,99.553c-2.02-1.418-8.094-2.518-14.8-3.334a4.51,4.51,0,0,1-3.829-3.385l-15.6-6.195s-7.383,10.936-7.442,19.3c-.027,3.9,1.77,4.288,1.77,4.289s27.806.206,29.025.332c2,.205,4.627,5.175,5.284,9.7S161.133,143.2,161.133,143.2a14.524,14.524,0,0,0,3.536.709,3.545,3.545,0,0,0,1.76-.473s-6.719-40.2-11.962-43.886" fill="#2b5c8b"/>
    <path id="Path_19886" data-name="Path 19886" d="M133.6,41.2a17.653,17.653,0,0,0-5.935-1.349c-6.339-.851-10.156,8.36-10.379,11.152-.415,5.146-3.136,5.93-6.968,9.153-7.681,6.46-5.428,13.968-1.227,16.758,2.519,1.673,6.961,0,6.961,0,.064.044,12.149-6.758,18.108-10.037,8.931-1.27,4.9-22.808-.56-25.677" fill="#234662"/>
    <path id="Path_19887" data-name="Path 19887" d="M132.275,63.711c.028.014-2.817,1.308-4.871.63-1.931-.637-3.633-3.545-3.606-3.55.839-.121,1.691-.948,1.929-5.85l.371.093,6.243,1.578s-.246,1.978-.348,3.848c-.086,1.57-.069,3.065.282,3.251" fill="#ffa77d"/>
    <path id="Path_19888" data-name="Path 19888" d="M132.342,56.613s0,.407-.233,2.247c-3.531-.891-5.088-2.061-6.186-3.4Z" fill="#ed8b5d"/>
    <path id="Path_19889" data-name="Path 19889" d="M133.674,56.862s-8.256,1.344-9.014-3.81-2.334-8.452,2.9-9.528,6.555.74,7.227,2.4,1.01,10.458-1.118,10.94" fill="#ffa77d"/>
    <path id="Path_19890" data-name="Path 19890" d="M133.682,43.308s-3.749,5.918-7.1,7.32-4.991.69-4.991.69a14.107,14.107,0,0,0,1.919-5.409,2.538,2.538,0,0,1,1.568-2.04c2.4-.961,7.047-2.478,8.6-.561" fill="#234662"/>
    <path id="Path_19891" data-name="Path 19891" d="M130.388,43.88a13.088,13.088,0,0,1,3.1,2.182,10.028,10.028,0,0,1,1.809,5.026s1.084-5.951-1.173-8c-2.4-2.169-3.739.788-3.739.788" fill="#234662"/>
    <path id="Path_19892" data-name="Path 19892" d="M138.88,76.3c-.251,16.781-.069,13.275-1.9,14.867a7.056,7.056,0,0,1-3.323.72c-5.145.342-14.191-.506-14.535-1.457-1.187-3.291-.349-4.313-1.339-9.35-.1-.536-.231-1.116-.381-1.748-.826-3.46-1.629-4.637,1.3-10.195,2.656-5.035,5.78-9.126,6.028-8.978,7.009,4.16,7.248.673,7.248.673S139,68.118,138.88,76.3" fill="#fff"/>
    <path id="Path_19893" data-name="Path 19893" d="M131.975,60.835s7.172,1.216,8.019,4.321,5.83,21.358,5.83,21.358-3.666.658-5.36-1.035-5.893-15.713-5.893-15.713Z" fill="#fff"/>
    <path id="Path_19894" data-name="Path 19894" d="M133.653,91.89c-5.146.342-14.191-.506-14.535-1.457-1.187-3.291-.349-4.313-1.34-9.35l2.482-6.989s-.41,7.782,1.885,9.829,9.4,3.952,10.513,5.662a6.261,6.261,0,0,1,.995,2.305" fill="#ebf3ff"/>
    <path id="Path_19895" data-name="Path 19895" d="M127.757,88.617s5.077-1.13,5.9-.68a11.92,11.92,0,0,1,3.071,2.662c.251.571-1.823-.433-2.5-.614a6,6,0,0,0-2.156.472,7.163,7.163,0,0,1-3.864.388Z" fill="#ffa77d"/>
    <path id="Path_19896" data-name="Path 19896" d="M124.726,60.162s-7.185.42-9.545,3.711c-3.321,4.633-9.911,24.378-6.134,27.011,4.253,2.965,19.356.776,19.356.776s.5-2.35-.2-3.486-12.063-2.972-12.588-3.5,6.556-10.228,6.556-11.8,2.552-12.715,2.552-12.715" fill="#fff"/>
    <path id="Path_19897" data-name="Path 19897" d="M133.9,89.35a9.857,9.857,0,0,0,1.412,1.536,1.039,1.039,0,0,0,.574.123l-.716-1.29Z" fill="#ffa77d"/>
    <path id="Path_19898" data-name="Path 19898" d="M133.653,87.937l3.093,1.5a.553.553,0,0,1-.513.2,7.408,7.408,0,0,1-1.341-.369Z" fill="#ffa77d"/>
    <path id="Path_19899" data-name="Path 19899" d="M145.046,91.5H130.682a1.145,1.145,0,0,1,1.145-1.145h13.219Z" fill="#1282af"/>
    <path id="Path_19900" data-name="Path 19900" d="M145,75.854H167.21L161.884,91.5h-22.35Z" fill="#1282af"/>
    <path id="Path_19901" data-name="Path 19901" d="M167.538,75.854,162.212,91.5H139.861l5.471-15.643Z" fill="#28a1de"/>
    <path id="Path_19902" data-name="Path 19902" d="M155.565,83.531a1.443,1.443,0,0,1-1.332,1.082.833.833,0,0,1-.832-1.082,1.443,1.443,0,0,1,1.332-1.082.833.833,0,0,1,.832,1.082" fill="#fff"/>
    <path id="Path_19903" data-name="Path 19903" d="M125.718,95.016h97.316a.741.741,0,0,0,.741-.741V92.238a.741.741,0,0,0-.741-.741H125.718a.741.741,0,0,0-.741.741v2.037a.741.741,0,0,0,.741.741" fill="#203a4f"/>
    <path id="Path_19904" data-name="Path 19904" d="M225.416,152.988l.042-.005a.894.894,0,0,0,.788-.994l-8.672-58.7-3.175.091L224.6,152.4a.729.729,0,0,0,.813.591" fill="#203a4f"/>
    <path id="Path_19905" data-name="Path 19905" d="M122.459,152.988l-.042-.005a.894.894,0,0,1-.788-.994l8.672-58.7,3.175.091-10.2,59.018a.729.729,0,0,1-.813.591" fill="#203a4f"/>
    <path id="Path_19906" data-name="Path 19906" d="M142.535,152.988l-.042-.005a.894.894,0,0,1-.788-.994l8.672-58.7,3.175.091-10.2,59.018a.729.729,0,0,1-.813.591" fill="#203a4f"/>
    <path id="Path_19907" data-name="Path 19907" d="M193.7,152.94h17.209c.827-1.01.522-4.737.4-5.954-.026-.245-.044-.388-.044-.388s-5.876-4.7-6.683-1.1c-.025.113-.055.223-.087.332-1.017,3.366-5.579,4.9-8.212,5.322a2.984,2.984,0,0,0-2.58,1.789" fill="#234662"/>
    <path id="Path_19908" data-name="Path 19908" d="M240.652,97.024c-.621,0-29.477,5.418-34.25,11.326-2.385,2.952-2.739,37.04-2.739,37.04s2.95,3.657,9.321,1.533c0,0,4.671-23.322,4.326-30.4-.1-1.956,19.716-.283,23.342-1.221s12.486-8.827,10.533-12.669-10.533-5.613-10.533-5.613" fill="#234662"/>
    <path id="Path_19909" data-name="Path 19909" d="M206.526,88.677s-5.821.079-7.2.669-4.169,1.944-3.422,2.152,4.313-.086,5.083.032a12.979,12.979,0,0,0,2.193-.033h2.673Z" fill="#ffa77d"/>
    <path id="Path_19910" data-name="Path 19910" d="M199.721,74.708a10.638,10.638,0,0,0-3.912-1.693A16.881,16.881,0,0,1,193,72.434c-1.778-.626-5.336-3.825-5.067-4.2.863-1.2,5.017,1.343,5.742,1.069s-1.394-1.779-.657-2.309c.385-.277,1.285,1.11,2.021,1.25,1,.188,1.774,1.594,2.074,1.667a23.321,23.321,0,0,1,3.139,2.044Z" fill="#ffa77d"/>
    <path id="Path_19911" data-name="Path 19911" d="M237.778,58.148s-4.431,1.373-8.8,13.4-6.024,12.67-7.61,13.142-15.516,3.245-15.516,3.245V91.5h21.462s8.047-7.655,10.46-12.808,0-20.541,0-20.541" fill="#1282af"/>
    <path id="Path_19912" data-name="Path 19912" d="M186.091,152.94H203.3c.828-1.01.523-4.737.4-5.954-.026-.245-.044-.388-.044-.388s-5.876-4.7-6.683-1.1c-.025.113-.055.223-.087.332-1.017,3.366-5.579,4.9-8.213,5.322a2.983,2.983,0,0,0-2.579,1.789" fill="#1b3351"/>
    <path id="Path_19913" data-name="Path 19913" d="M232.149,97.024c-.621,0-29.477,5.418-34.25,11.326-2.385,2.952-2.739,37.04-2.739,37.04s2.95,3.657,9.321,1.533c0,0,4.671-23.322,4.326-30.4-.1-1.956,19.716-.283,23.342-1.221s12.486-8.827,10.533-12.669-10.533-5.613-10.533-5.613" fill="#2b5c8b"/>
    <path id="Path_19914" data-name="Path 19914" d="M233.955,61.957a28,28,0,0,0,6.133-1.335c2.352-.763,4.247-1.878,3.026-4.027-1.126-1.98-2.948-6.406-2.825-10.072l-4.375,3.526-2.972,2.4a35.55,35.55,0,0,0,.337,3.886c.059.452.129.939.211,1.458A1.059,1.059,0,0,1,233,58.854l-.067.042a1.659,1.659,0,0,0,1.021,3.061" fill="#ffa77d"/>
    <path id="Path_19915" data-name="Path 19915" d="M232.941,51.862a7.235,7.235,0,0,0,.109,2.406,12.423,12.423,0,0,0,5.127-2.546c-1.349-.37-1.84-1.828-2.845-1.692Z" fill="#ed8b5d"/>
    <path id="Path_19916" data-name="Path 19916" d="M230.49,52.294s10.193,1.693,11.15-4.67,2.916-10.431-3.551-11.782-8.1.888-8.936,2.934-1.29,12.914,1.337,13.518" fill="#ffa77d"/>
    <path id="Path_19917" data-name="Path 19917" d="M227.655,35.96c-.438,1.532.734,3.4,2.7,4.013,2.919.913,2.274,4.493,3.587,4.444s1.844-2.058,3.017-.452c1,1.369-.833,2.993-.707,3.743.217,1.29,2.236,3.927,4.056,3.795s5.225-8.781,4.544-11.457-3.4-5.5-5.984-5.886-6.159.724-6.986.724-3.99.248-4.227,1.076" fill="#2b5c8b"/>
    <path id="Path_19918" data-name="Path 19918" d="M251.322,66.98c-1.473-5.929-5.545-12.151-8.3-12.146-4.692.009-11.436,1.247-14.159,7.964-2.005,4.947-4.68,33.406-1.657,35.43,6.911,4.627,22.931,14.072,25.777,4.44,2.607-8.825.894-25.4-1.663-35.688" fill="#28a1de"/>
    <path id="Path_19919" data-name="Path 19919" d="M239.927,61.079a5.557,5.557,0,0,0-8.6-2.4,52.6,52.6,0,0,0-5.9,5.511c-8.755,9.323-10.535,9.265-12.179,9.073s-15.537-3.141-15.537-3.141a4.2,4.2,0,0,0-1.13,1.373,2.585,2.585,0,0,0-.277,1.9c-.545-.352,4.924,3.418,7.646,4.921a74.727,74.727,0,0,0,11.169,4.552A2.872,2.872,0,0,0,217,82.85c3.2-1.154,13.956-5.36,22.71-12.658,2.306-1.922,1.459-5.885.218-9.113" fill="#28a1de"/>
    <path id="Path_19920" data-name="Path 19920" d="M243.5,54.891,242.434,52.5s-9.508.775-11.106,6.187c0,0,7.37-3.678,12.168-3.794" fill="#fff"/>
    <path id="Path_19921" data-name="Path 19921" d="M266.578,152.726h.066a.893.893,0,0,0,.9-.954L263.963,116l-3.125.279,5.143,35.96a.582.582,0,0,0,.6.483" fill="#8cb4f4"/>
    <path id="Path_19922" data-name="Path 19922" d="M248.145,152.726h.065a.892.892,0,0,0,.9-.954L245.529,116l-3.125.279,5.144,35.96a.58.58,0,0,0,.6.483" fill="#8cb4f4"/>
    <path id="Path_19923" data-name="Path 19923" d="M213.538,152.726h-.066a.893.893,0,0,1-.9-.954L216.153,116l3.125.279-5.143,35.96a.582.582,0,0,1-.6.483" fill="#73a2e5"/>
    <path id="Path_19924" data-name="Path 19924" d="M265.566,110.937l3.4-29.873c.446-4.305-.995-8.521-7.207-8.847l-10.929-.665c-6.478-.268-9.4,5.123-10.222,9.274l-6.489,32.838Z" fill="#8cb4f4"/>
    <path id="Path_19925" data-name="Path 19925" d="M263.74,116.527H215.234a1.777,1.777,0,0,1-1.772-1.772v-2.182a1.777,1.777,0,0,1,1.772-1.772h50.278v3.954a1.777,1.777,0,0,1-1.772,1.772" fill="#73a2e5"/>
    <path id="Path_19926" data-name="Path 19926" d="M264.136,116.527H235.495a1.38,1.38,0,0,1-1.376-1.376v-2.974a1.38,1.38,0,0,1,1.376-1.376h30.017v4.35a1.38,1.38,0,0,1-1.376,1.376" fill="#8cb4f4"/>
  </g>
</svg>
