<svg xmlns="http://www.w3.org/2000/svg" xmlns:xlink="http://www.w3.org/1999/xlink" width="96.995" height="128.211" viewBox="0 0 96.995 128.211">
  <defs>
    <clipPath id="clip-path">
      <rect id="Rectangle_1926" data-name="Rectangle 1926" width="96.994" height="128.211" fill="none"/>
    </clipPath>
  </defs>
  <g id="Group_2366" data-name="Group 2366" transform="translate(0 0)">
    <g id="Group_2365" data-name="Group 2365" transform="translate(0 0)" clip-path="url(#clip-path)">
      <path id="Path_18681" data-name="Path 18681" d="M11.848,88.554h-.062a.655.655,0,0,1-.654-.669l.992-42.955,2.919-.34-2.49,43.3a.7.7,0,0,1-.7.665" transform="translate(9.9 39.656)" fill="#b0d4ff"/>
      <path id="Path_18682" data-name="Path 18682" d="M2.844,88.554H2.782a.655.655,0,0,1-.654-.669L3.12,44.93l2.919-.34-2.49,43.3a.7.7,0,0,1-.7.665" transform="translate(1.893 39.656)" fill="#95c0f4"/>
      <path id="Path_18683" data-name="Path 18683" d="M28.857,88.554h.062a.655.655,0,0,0,.654-.669L28.581,44.93l-2.919-.34,2.49,43.3a.7.7,0,0,0,.7.665" transform="translate(22.823 39.656)" fill="#b0d4ff"/>
      <path id="Path_18684" data-name="Path 18684" d="M1.483,61.63V32.2a9.377,9.377,0,0,1,9.377-9.377H32.068A9.377,9.377,0,0,1,41.445,32.2V62.755Z" transform="translate(1.319 20.294)" fill="#b0d4ff"/>
      <path id="Path_18685" data-name="Path 18685" d="M45.245,48.007H4.3a2.815,2.815,0,0,1-2.815-2.815V43.361H45.245Z" transform="translate(1.319 38.563)" fill="#95c0f4"/>
      <path id="Path_18686" data-name="Path 18686" d="M42.8,48.007H11.826a2.082,2.082,0,0,1-2.082-2.082v-.484a2.082,2.082,0,0,1,2.082-2.08H42.8a2.081,2.081,0,0,1,2.082,2.08v.484A2.081,2.081,0,0,1,42.8,48.007" transform="translate(8.666 38.563)" fill="#b0d4ff"/>
      <path id="Path_18687" data-name="Path 18687" d="M37.318,39.887a19.722,19.722,0,0,1-6.858,7.329h-15.9s25.074-11.363,22.756-7.329" transform="translate(12.951 34.703)" fill="#234662"/>
      <path id="Path_18688" data-name="Path 18688" d="M20.322,67.339a1.473,1.473,0,0,0-.263,1.572l0,.008A9.764,9.764,0,0,0,23.15,72.3c.187.151.351.287.5.414.038.032.076.066.111.1s.059.053.087.077c1.357,1.251.845,1.536,3.284,4.073,2.779,2.893,4.693,2.946,5.237,2.681.459-.225-.476-1.757-1.513-3.482-.049-.083-.1-.166-.151-.251-.138-.229-.274-.461-.412-.692-1.215-2.075-.9-3.049-.614-6.137.234-2.509,3.9-14.017,3.9-14.017l-5.326-.918s-1.6,9.165-3.373,10.577c-.945.752-2,.761-2.912,1.319-.064.038-.127.077-.189.119a6.994,6.994,0,0,0-1.457,1.171" transform="translate(17.737 48.161)" fill="#ffa77d"/>
      <path id="Path_18689" data-name="Path 18689" d="M20.322,61.739a1.473,1.473,0,0,0-.263,1.572l0,.008A11.326,11.326,0,0,0,23.156,66.7c.183.151.346.293.489.423.038.032.076.066.111.1s.059.053.087.077c1.357,1.251.845,1.536,3.284,4.073,2.779,2.893,4.693,2.946,5.237,2.681.459-.225-.476-1.757-1.513-3.482a11.85,11.85,0,0,1-4.954-3.65c-1.674-2.135-2.789-4.88-3.93-6.469-.064.038-.127.077-.189.119a6.994,6.994,0,0,0-1.457,1.171" transform="translate(17.737 53.761)" fill="#234662"/>
      <path id="Path_18690" data-name="Path 18690" d="M44.882,64.775c.329,1.644,2.672,1.37,5.29.729s2,.121,5.723-.291,4.856-1.8,4.969-2.356c.1-.491-1.74-.665-3.715-.892-.248-.028-.5-.059-.746-.091-2.231-.28-3.864-1.717-5.889-2.9-1.918-1.118-4.782-5.679-4.782-5.679l-5.111.4s2.683,4.073,3.72,5.844a6.183,6.183,0,0,1,.5,3.484,6.527,6.527,0,0,0,.04,1.748" transform="translate(36.127 47.398)" fill="#ffa77d"/>
      <path id="Path_18691" data-name="Path 18691" d="M48.2,61.425c2.619-.64,2,.121,5.723-.291s4.856-1.8,4.969-2.356c.1-.493-1.74-.665-3.715-.894l-.019.038a10.5,10.5,0,0,1-5.337,1.659c-2.528.062-5.205-.663-6.951-.635a6.543,6.543,0,0,0,.04,1.75c.329,1.644,2.672,1.37,5.29.729" transform="translate(38.096 51.48)" fill="#234662"/>
      <path id="Path_18692" data-name="Path 18692" d="M40.763,45.931,35.985,58.786,29.748,75.571a10.084,10.084,0,0,1-3.314-.3,14.364,14.364,0,0,1-3.2-1.561s1.733-18.023,4.963-28.369a18.442,18.442,0,0,1,2.779-6.012c5.009-5.918,9.791,6.6,9.791,6.6" transform="translate(20.66 33.564)" fill="#234662"/>
      <path id="Path_18693" data-name="Path 18693" d="M51.691,32.479c-3.131-1.009-12.056.287-21.025,2.042l-1.876-3.1L9.421,29.911S3.029,44.085,6.528,53.116a3.276,3.276,0,0,0,3.278,2.207h.283s11.529-.008,15.272-.008c9.632,0,20.386-6.62,21.777-6.9,2.277-.455,3.187,4.1,5.464,8.88S74,78.472,74,78.472a16.837,16.837,0,0,0,4.153-.427,4.071,4.071,0,0,0,1.784-1.126S58.75,34.755,51.691,32.479" transform="translate(4.874 26.601)" fill="#2b5c8b"/>
      <path id="Path_18694" data-name="Path 18694" d="M32.868,1.625C30.388.323,26.613.146,26,.064c-7.34-.988-11.758,9.677-12.016,12.91-.48,5.955-3.631,6.864-8.066,10.594-8.893,7.48-6.286,16.173-1.423,19.4,2.917,1.938,8.06,0,8.06,0,.074.051,14.066-7.822,20.963-11.62,10.341-1.47,5.676-26.4-.648-29.725" transform="translate(0.033 -0.001)" fill="#234662"/>
      <path id="Path_18695" data-name="Path 18695" d="M19.141,19.987c.03.019-3.393,1.188-5.683.174-2.154-.95-3.784-4.495-3.754-4.5.981-.045,2.056-.9,2.885-6.522l.418.149,7.013,2.524s-.508,2.25-.837,4.395c-.276,1.8-.425,3.522-.042,3.777" transform="translate(8.629 8.13)" fill="#ffa77d"/>
      <path id="Path_18696" data-name="Path 18696" d="M18.465,11.746s-.508,2.25-.837,4.395c-4.03-.726-5.61-4.74-6.178-6.919Z" transform="translate(10.183 8.201)" fill="#ed8b5d"/>
      <path id="Path_18697" data-name="Path 18697" d="M19.841,19.687s-9.6-1.289-8.7-7.253S11.4,2.286,17.561,2.856s7.013,3.025,7.2,5.088-2.4,11.924-4.918,11.742" transform="translate(9.852 2.494)" fill="#ffa77d"/>
      <path id="Path_18698" data-name="Path 18698" d="M25.705,4.923s-6.144,5.294-10.324,5.721S9.621,9.73,9.621,9.73a16.3,16.3,0,0,0,3.945-5.345,2.939,2.939,0,0,1,2.422-1.733c2.985-.257,8.642-.376,9.717,2.271" transform="translate(8.557 2.246)" fill="#234662"/>
      <path id="Path_18699" data-name="Path 18699" d="M16.1,4.084a15.11,15.11,0,0,1,2.7,3.461,11.618,11.618,0,0,1,.316,6.176s3.2-6.227,1.389-9.252C18.586,1.262,16.1,4.084,16.1,4.084" transform="translate(14.32 2.611)" fill="#234662"/>
      <path id="Path_18700" data-name="Path 18700" d="M31.1,31.16c-.291,19.428-.079,15.37-2.2,17.212-.512.444-1.952.709-3.847.835C19.09,49.6,8.619,48.62,8.22,47.519c-1.375-3.809-.4-4.99-1.551-10.824-.119-.622-.266-1.29-.44-2.024-.956-4-1.887-5.368,1.5-11.8C10.809,17.037,14,12.306,14.291,12.48c8.113,4.816,8.769.765,8.769.765S31.24,21.683,31.1,31.16" transform="translate(4.752 11.095)" fill="#fff"/>
      <path id="Path_18701" data-name="Path 18701" d="M35.985,55.21,29.748,71.995a10.084,10.084,0,0,1-3.314-.3,14.315,14.315,0,0,1-3.2-1.561s1.733-18.023,4.963-28.369Z" transform="translate(20.66 37.142)" fill="#2b5c8b"/>
      <path id="Path_18702" data-name="Path 18702" d="M14.72,12.883s8.349,1.415,9.33,5.011L30.8,42.62s-4.244.761-6.2-1.2-6.823-18.191-6.823-18.191Z" transform="translate(13.092 11.457)" fill="#fff"/>
      <path id="Path_18703" data-name="Path 18703" d="M24.425,41.615c-5.959.395-16.432-.586-16.829-1.687-1.374-3.809-.4-4.992-1.551-10.824l2.874-8.092s-.476,9.01,2.182,11.38S21.98,36.967,23.27,38.947a7.273,7.273,0,0,1,1.154,2.668" transform="translate(5.376 18.686)" fill="#ebf3ff"/>
      <path id="Path_18704" data-name="Path 18704" d="M12.16,30.339s5.878-1.309,6.826-.786a13.837,13.837,0,0,1,3.556,3.082c.289.661-2.112-.5-2.893-.712a6.95,6.95,0,0,0-2.5.548,8.3,8.3,0,0,1-4.474.448Z" transform="translate(10.815 26.173)" fill="#ffa77d"/>
      <path id="Path_18705" data-name="Path 18705" d="M19.039,12.475s-7.892.486-10.624,4.3C4.57,22.135-3.059,44.993,1.313,48.042c4.924,3.433,22.41.9,22.41.9s.582-2.719-.229-4.036S9.528,41.464,8.921,40.857s7.59-11.841,7.59-13.662,2.528-14.72,2.528-14.72" transform="translate(0 11.094)" fill="#fff"/>
      <path id="Path_18706" data-name="Path 18706" d="M15.923,30.36a11.387,11.387,0,0,0,1.634,1.778,1.21,1.21,0,0,0,.665.142l-.829-1.493Z" transform="translate(14.161 27.001)" fill="#ffa77d"/>
      <path id="Path_18707" data-name="Path 18707" d="M15.773,29.494l3.578,1.738a.638.638,0,0,1-.593.229,8.486,8.486,0,0,1-1.553-.425Z" transform="translate(14.028 26.23)" fill="#ffa77d"/>
      <path id="Path_18708" data-name="Path 18708" d="M16.788,42.561H45.11l8.519-21.185H25.351Z" transform="translate(14.931 19.011)" fill="#28a1de"/>
      <path id="Path_18709" data-name="Path 18709" d="M49.558,32.152H12.16v.826H49.226Z" transform="translate(10.815 28.594)" fill="#1282af"/>
      <path id="Path_18710" data-name="Path 18710" d="M29.289,27.617a.982.982,0,0,0-.962-1.349,1.933,1.933,0,0,0-1.734,1.349.981.981,0,0,0,.962,1.349,1.933,1.933,0,0,0,1.734-1.349" transform="translate(23.602 23.361)" fill="#fff"/>
    </g>
  </g>
</svg>
