<svg xmlns="http://www.w3.org/2000/svg" width="178.466" height="149.982" viewBox="0 0 178.466 149.982">
  <g id="Group_2317" data-name="Group 2317" transform="translate(-21.779 -0.001)">
    <g id="Group_2364" data-name="Group 2364" transform="translate(21.779 0.001)">
      <rect id="Rectangle_1899" data-name="Rectangle 1899" width="45.214" height="10.21" transform="translate(13.941 139.772)" fill="#4a92cb"/>
      <rect id="Rectangle_1900" data-name="Rectangle 1900" width="45.214" height="10.21" transform="translate(0 139.771)" fill="#69bbee"/>
      <rect id="Rectangle_1901" data-name="Rectangle 1901" width="33.667" height="47.057" transform="translate(76.942 102.922)" fill="#4a92cb"/>
      <rect id="Rectangle_1902" data-name="Rectangle 1902" width="33.667" height="47.057" transform="translate(66.56 102.922)" fill="#69bbee"/>
      <path id="Path_18439" data-name="Path 18439" d="M138.562,119.924l10.38,7.066v-7.066Z" transform="translate(-38.335 -17.002)" fill="#428cbc"/>
      <path id="Path_18440" data-name="Path 18440" d="M168.548,42.085c-.52-.079-2.089,1.371-2.089,1.371-3.349.387-8.245,1.276-10.007,1.616-1.25.24-4.61-.905-7.892-2.22-3.9-1.565-7.7-3.37-7.7-3.37-2.166-.111-4.626,3.841-.233,6.354a33.238,33.238,0,0,0,6.092,1.637h0c4,.825,8.731,1.541,10.34,1.289a57.6,57.6,0,0,0,10.31-3.711l.008,0,.035-.016a3.856,3.856,0,0,1,1.474-.4,3.293,3.293,0,0,0,1.944-1.332c.04-.288-1.763-1.131-2.284-1.21" transform="translate(-38.282 -5.598)" fill="#ed8b5d"/>
      <path id="Path_18441" data-name="Path 18441" d="M163.339,94.922,161.5,95.3s-8.438-9.481-9.74-13.471c-.7-2.132-5.152-3.054-9.807-4.257-4.053-1.048-8.256-2.31-10.264-4.773C127.368,67.5,134.394,61,134.394,61s7.47,4.44,13.915,9.027c4.5,3.205,8.509,6.482,9.112,8.365,1.465,4.58,4.572,13.286,5.918,16.527" transform="translate(-37.161 -8.649)" fill="#2b5c8b"/>
      <path id="Path_18442" data-name="Path 18442" d="M165.784,103.548h1.038c.347-.055.6-.155.96-.2a.963.963,0,0,1,.84.2l.009.01h4.406c.111-.158,0-.524-.1-.795a.63.63,0,0,0-.413-.377,4.757,4.757,0,0,1-2.232-1.02c-.474-.429-2.291-1.577-2.291-1.577l-.009,0c-.04,0-.23.059-1.056.757-.427.36-1.155-.508-1.155-.508a1.03,1.03,0,0,0-.239.324,1.093,1.093,0,0,0-.1.676,4.37,4.37,0,0,1-.316,1.634c-.1.3-.189.517-.189.517s-.05.249.843.36" transform="translate(-42.074 -14.147)" fill="#234662"/>
      <path id="Path_18443" data-name="Path 18443" d="M148.308,70.03l-6.361,7.54c-4.052-1.047-8.256-2.31-10.264-4.773C127.367,67.506,134.394,61,134.394,61s7.47,4.441,13.915,9.027" transform="translate(-37.161 -8.649)" fill="#1e4f70"/>
      <path id="Path_18444" data-name="Path 18444" d="M141.166,66.459s-.513,1.617-1.347,4.05c-1.056,3.076-2.628,7.456-4.334,11.518-.374.893-.756,1.771-1.14,2.615a29.5,29.5,0,0,1-4.149,7.167C127.9,94.257,122.314,110,122.314,110l-1.391-.385s-1.94-13.438,4.932-21.085a.485.485,0,0,0,.139-.286v0c.092-1.132.419-6.2,1.13-11.338.175-1.26.372-2.523.6-3.734.014-.077.028-.154.042-.23,1.046-5.6,2.047-8.088,3.339-9.34l9.5,2.7Z" transform="translate(-35.798 -9.016)" fill="#2b5c8b"/>
      <path id="Path_18445" data-name="Path 18445" d="M120.645,119.291h1.037c.348-.055.6-.155.96-.2a.96.96,0,0,1,.84.2l.009.01H127.9c.111-.158,0-.525-.1-.795a.625.625,0,0,0-.412-.377,4.753,4.753,0,0,1-2.232-1.02c-.475-.429-2.291-1.577-2.291-1.577l-.009,0c-.04,0-.23.059-1.056.757-.427.36-1.155-.509-1.155-.509a1.041,1.041,0,0,0-.239.324,1.092,1.092,0,0,0-.1.676,4.388,4.388,0,0,1-.315,1.634c-.1.3-.19.517-.19.517s-.05.249.843.36" transform="translate(-35.675 -16.379)" fill="#234662"/>
      <path id="Path_18446" data-name="Path 18446" d="M119.916,45.535s-1.589,3.889-3.423,7.674c-1.541,3.182-3.254,6.292-4.341,6.955-1.531.935-5.75,3.575-8.487,5.543,0,0-2.136-.016-2.467.392s-1.1,2.246-.874,2.432a3.294,3.294,0,0,0,2.334-.324,3.857,3.857,0,0,1,1.36-.7l.037-.011.009,0a57.654,57.654,0,0,0,10.121-4.2c1.359-.9,4.374-4.61,6.778-7.915h0a33.374,33.374,0,0,0,3.4-5.311c1.556-4.816-2.923-6.081-4.451-4.542" transform="translate(-32.908 -6.368)" fill="#ffa77d"/>
      <path id="Path_18447" data-name="Path 18447" d="M131.346,26.9a7.885,7.885,0,0,0-.57-.736,1.779,1.779,0,0,0,.7-.106c.558-.231.812-2,.729-2.528s-.859-2.045-1.814-2.2-1.944.91-1.944.91c.177-.766,1.794-1.208,1.794-1.208-3.331.614-3.161,2.836-3.139,3.042-3.049-1.087-4.839,4.656-4.839,4.656l7.9,4.654s.021-1.268.774-1.187c1.175.128,2.153-2.758.409-5.3" transform="translate(-36.024 -2.983)" fill="#284464"/>
      <path id="Path_18448" data-name="Path 18448" d="M132.48,40.862c-1.813.854-4.217-.376-4.2-.389.155-.155.1-.621-.041-1.229a8.956,8.956,0,0,0-1.1-2.538c-.13-.22-.259-.44-.415-.673l.207-.078,3.521-1.411s.57,1.023,1.165,1.955c.505.777,1.036,1.475,1.269,1.45.013-.013,2.342,1.592-.4,2.913" transform="translate(-36.656 -4.898)" fill="#ffa77d"/>
      <path id="Path_18449" data-name="Path 18449" d="M130.517,34.953c-.091,1.256-.518,3.521-2.213,4.35a8.953,8.953,0,0,0-1.1-2.537Z" transform="translate(-36.724 -4.956)" fill="#ed8b5d"/>
      <path id="Path_18450" data-name="Path 18450" d="M126.317,37.266s4.584-1.807,3.415-4.644-1.365-4.982-4.341-3.948-3.1,2.349-2.935,3.391,2.638,5.6,3.861,5.2" transform="translate(-36.045 -4.028)" fill="#ffa77d"/>
      <path id="Path_18451" data-name="Path 18451" d="M127.934,31.926c2.116-.3,2.734-1.154,2.734-1.154a5.865,5.865,0,0,1-3.095-2.468,4.906,4.906,0,0,0-4.142.539,1.182,1.182,0,0,0-.223.5c-.4-.132-1.012-.1-1.362,1.044-.527,1.716,1.347,3.588,1.347,3.588.455-.128-.058-1.657-.13-2.473a3.864,3.864,0,0,1,.446-1.734c.224.291,2.457,3.1,5.184,3.21a11.48,11.48,0,0,1-2.751-1.478,3.519,3.519,0,0,0,1.992.429" transform="translate(-35.952 -3.98)" fill="#284464"/>
      <path id="Path_18452" data-name="Path 18452" d="M140.313,47.193c-.039-.137-.081-.279-.124-.425a10.741,10.741,0,0,0,1.157-3.466,6.96,6.96,0,0,0-.22-3.392,23.185,23.185,0,0,0-4.584-1.9L136.525,38,136.468,38a19.46,19.46,0,0,0-4.485.431,2.221,2.221,0,0,1-1.078,2.626,3.273,3.273,0,0,1-3.454-.269l-.17.118h0s-4.393,2.9-4.788,3.562-2.084,3.943-2.084,3.943.536,2.753,6.471,2.984a13.736,13.736,0,0,1,.983,3.3c.471,3.738-.076,6.687.474,8.869s10.452.937,12.245.518,1.39-2.335,1.528-4.2c.174-2.338-1.214-10.628-1.8-12.691" transform="translate(-35.761 -5.382)" fill="#69bbee"/>
      <path id="Path_18453" data-name="Path 18453" d="M144.312,44.043a10.765,10.765,0,0,1-1.165,3.482,11.724,11.724,0,0,0-1.813-4.337,8.765,8.765,0,0,1,2.977.855" transform="translate(-38.728 -6.123)" fill="#4aa0d3"/>
      <path id="Path_18454" data-name="Path 18454" d="M97.819,72.208a31.339,31.339,0,0,1,2.242-2.5,6.81,6.81,0,0,1,2.24-.634c.1.094.1.228-.112.419s-1.04.672-.923.726,2.6-1.184,2.963-.767-.2,2.134-1.161,2.958-3.818,1.176-4,1.291c-1.525.975-1.25-1.492-1.25-1.492" transform="translate(-32.556 -9.791)" fill="#ed8b5d"/>
      <path id="Path_18455" data-name="Path 18455" d="M59.974,65.735s2.65,3.145,6.026,1.829a10.225,10.225,0,0,0,.736-3.05c0-.16,0-.314.006-.461.018-1.458.067-2.276.067-2.276h0c-.154-.064-5.16-2.119-5.155-1.948a8.877,8.877,0,0,1-1.676,5.907" transform="translate(-27.194 -8.481)" fill="#ffa77d"/>
      <path id="Path_18456" data-name="Path 18456" d="M62.512,60.919A7.835,7.835,0,0,0,67.1,64.2c.018-1.458.068-2.276.068-2.276h0c-.139-.037-4.8-1.272-4.653-1.008" transform="translate(-27.553 -8.632)" fill="#ed8b5d"/>
      <path id="Path_18457" data-name="Path 18457" d="M67.962,60.391s-5.63,1.323-6.4-2.2-2.015-5.718,1.547-6.711,4.557.2,5.1,1.307,1.2,7.165-.245,7.6" transform="translate(-27.298 -7.247)" fill="#ffa77d"/>
      <path id="Path_18458" data-name="Path 18458" d="M61.28,58.7c-.077.049-1.288.421-3.582-4.149a3.981,3.981,0,0,1,.233-3.641c.84-1.371,3.817-2.449,6.29-2.919s3.066.923,3.649,2.322a7.554,7.554,0,0,0,2.376,2.677c-2.133,1.191-4.7-.512-5.591-.233s-1.2,1.683-1.271,2.133-.17.823-1.289.421-.505,1.586-.326,1.965c0,0,.152,1.013-.49,1.424" transform="translate(-26.824 -6.791)" fill="#284464"/>
      <path id="Path_18459" data-name="Path 18459" d="M43.848,161.451H40.439c-.715,0-1.509-.725-1.708-2.053s-1.668-2.053-1.986-3.139,1.311-2.617,1.311-2.617l.272-.354.283-.37,2.7.644s.066.652.108,1.482c.029.6.045,1.292.011,1.9-.08,1.45.4,3.01,1.67,3.291s.746,1.217.746,1.217" transform="translate(-23.895 -21.679)" fill="#284464"/>
      <path id="Path_18460" data-name="Path 18460" d="M71.086,162.062H62.05a.792.792,0,0,1-.192-.057c-.6-.311-.415-2.689-.342-3.424.014-.136.024-.216.024-.216s3.177-2.617,3.615-.613c.014.062.029.124.046.184v0c.552,1.874,3.018,2.726,4.442,2.963a1.565,1.565,0,0,1,1.443,1.161" transform="translate(-27.4 -22.258)" fill="#284464"/>
      <path id="Path_18461" data-name="Path 18461" d="M68.331,101.873s-.482,6.021-1.05,13.258c-.771,9.832-1.7,21.908-1.789,24.2-.159,3.973-.795,10.327-.795,10.327a5,5,0,0,1-4.528.873,103.963,103.963,0,0,1-3.46-18.669c-.012-.157-.024-.315-.035-.474-.715-9.771-1.827-30.345-1.827-30.345Z" transform="translate(-26.467 -14.325)" fill="#42b9f3"/>
      <path id="Path_18462" data-name="Path 18462" d="M68.331,101.873s-.482,6.021-1.05,13.258L56.709,131.858c-.012-.157-.024-.315-.035-.474-.715-9.771-1.827-30.345-1.827-30.345Z" transform="translate(-26.467 -14.325)" fill="#3ca0d7"/>
      <path id="Path_18463" data-name="Path 18463" d="M63.779,102.194S55.081,124,49.362,134.247s-7.507,13.108-7.507,13.108-3.277-1.311-3.575-2.2c0,0,2.187-19.783,6.017-24.606,2.164-2.725,4.707-10.9,4.826-13.763s.774-8.52.774-8.52Z" transform="translate(-24.118 -13.931)" fill="#42b9f3"/>
      <path id="Path_18464" data-name="Path 18464" d="M44.081,98.434a29.312,29.312,0,0,1-.39,3.141,6.4,6.4,0,0,1-1.392,1.7c-.127-.018-.2-.12-.139-.384s.444-1.079.324-1.058-1.378,2.317-1.88,2.188-.992-1.761-.693-2.915,2.322-2.963,2.4-3.15c.656-1.575,1.771.482,1.771.482" transform="translate(-24.336 -13.803)" fill="#ed8b5d"/>
      <path id="Path_18465" data-name="Path 18465" d="M43.5,94.838c.963.309,1.117.239,1.117.239s4.686-8.532,5.161-9.313S59.727,76.2,59.727,76.2l-2.435-9.079S46.516,81.073,45.352,83.075C43.429,86.385,42.3,94.069,42.3,94.069a2.817,2.817,0,0,0,1.2.769" transform="translate(-24.689 -9.516)" fill="#1e4f70"/>
      <path id="Path_18466" data-name="Path 18466" d="M69.622,79.427c-.033,1.865-.142,3.961-.288,6.09-.009.126-.018.252-.027.378-.094,1.319-.195,2.641-.312,3.93q-.07.775-.148,1.529l-.008.068c0,.188-.027.391-.048.578-.475,4.828-.973,8.643-1.065,8.7a.544.544,0,0,1-.371.094c-1.267-.159-5.045.128-8.138-.545a23.435,23.435,0,0,1-7.238-3c-.316-.187-1.037-.682-.978-1.051.058-.407.164-.995.3-1.733A93.676,93.676,0,0,0,52.857,82.31q.08-1.446.233-2.85a43.3,43.3,0,0,1,1.261-6.8c1.061-3.818,2.619-6.743,4.574-7.886.256-.143,1.63.731,2.892,1.541a5.57,5.57,0,0,0,3.587.85l1.05,1.162a11.729,11.729,0,0,1,3,6.246c.028.207.051.427.071.66a40.776,40.776,0,0,1,.1,4.2" transform="translate(-25.921 -9.181)" fill="#2a6696"/>
      <path id="Path_18467" data-name="Path 18467" d="M71.267,80.8c-.033,1.865-.142,3.961-.288,6.09-.009.126-.018.252-.027.378C63.72,82.745,62.6,74.46,62.6,74.46A19.785,19.785,0,0,1,71.168,76.6a40.776,40.776,0,0,1,.1,4.2" transform="translate(-27.567 -10.557)" fill="#1e4f70"/>
      <path id="Path_18468" data-name="Path 18468" d="M93.821,72.463c-.372-1.008-.953-.943-.953-.943s-10.754,2.68-11.719,2.8-11.58-4.145-11.58-4.145-4.178-1.875-6.135-.163a4.677,4.677,0,0,0-1.381,4.955,4.733,4.733,0,0,0,4,3.526c4.331.552,12.971,1.59,14.782,1.338C84.866,79.265,94,73.993,94,73.993a3.39,3.39,0,0,0-.179-1.529" transform="translate(-27.46 -9.823)" fill="#2a6696"/>
      <path id="Path_18469" data-name="Path 18469" d="M221.762,95.847s1.494,1.384,1.2,2.369-1.64,1.64-1.822,2.842-.911,1.858-1.567,1.858h-3.127s-.483-.846.683-1.1,1.606-1.668,1.533-2.98a23.5,23.5,0,0,1,.109-3.061l2.478-.583Z" transform="translate(-49.362 -13.496)" fill="#284464"/>
      <path id="Path_18470" data-name="Path 18470" d="M199.557,103.264a5.739,5.739,0,0,1-1.415.164H191.07c.024-.21.189-.96,1.345-1.147,1.306-.213,3.569-.972,4.074-2.643.017-.053.032-.108.044-.163.4-1.786,3.315.546,3.315.546s.009.071.021.193c.068.657.24,2.774-.312,3.05" transform="translate(-45.779 -14.007)" fill="#284464"/>
      <path id="Path_18471" data-name="Path 18471" d="M193.041,48.228s.443,5.524.963,12.164c.707,9.02,1.558,20.1,1.643,22.2.145,3.645.729,9.475.729,9.475a4.582,4.582,0,0,0,4.154.8A95.31,95.31,0,0,0,203.7,75.738c.011-.144.022-.29.033-.435.657-8.964,1.676-27.84,1.676-27.84Z" transform="translate(-46.058 -6.729)" fill="#26518b"/>
      <path id="Path_18472" data-name="Path 18472" d="M193.041,48.228s.443,5.524.963,12.164l9.7,15.347c.011-.144.022-.29.033-.435.657-8.964,1.676-27.84,1.676-27.84Z" transform="translate(-46.058 -6.729)" fill="#284464"/>
      <path id="Path_18473" data-name="Path 18473" d="M195.4,48.523s7.98,20.005,13.228,29.407,6.886,12.025,6.886,12.025,3.006-1.2,3.28-2.022c0,0-2.007-18.151-5.521-22.575-1.985-2.5-4.318-10-4.428-12.626s-.711-7.817-.711-7.817Z" transform="translate(-46.392 -6.368)" fill="#26518b"/>
      <path id="Path_18474" data-name="Path 18474" d="M165.861,36.4a23.96,23.96,0,0,0-2.529-.47,5.245,5.245,0,0,0-1.656.662c-.017.1.044.187.263.2s.945-.079.9.009-2.134.5-2.157.918,1.121,1.2,2.087,1.253,2.867-1.07,3.03-1.085c1.381-.12.062-1.49.062-1.49" transform="translate(-41.471 -5.094)" fill="#ffa77d"/>
      <path id="Path_18475" data-name="Path 18475" d="M165.6,34.391c-.311-.989-.238-1.147-.238-1.147s8.775-4.744,9.578-5.226,9.871-10.131,9.871-10.131l9.288,2.557s-14.373,10.948-16.433,12.128c-3.4,1.948-11.287,3.051-11.287,3.051a2.886,2.886,0,0,1-.78-1.232" transform="translate(-42.132 -2.537)" fill="#3ca0d7"/>
      <path id="Path_18476" data-name="Path 18476" d="M190.054,11.708s-3.256,5.729-6.438,6.478a8.691,8.691,0,0,1,.907-3.241c-.318-.375-.6-.719-.838-1.026a19.2,19.2,0,0,1-1.182-1.656l1.081-2.9.733-1.97a9.381,9.381,0,0,0,1.145,1.65,7.783,7.783,0,0,0,4.592,2.668" transform="translate(-44.564 -1.048)" fill="#ffa77d"/>
      <path id="Path_18477" data-name="Path 18477" d="M185.461,9.312a6.042,6.042,0,0,1-1.777,4.879,19.2,19.2,0,0,1-1.182-1.656l1.081-2.9a6.178,6.178,0,0,1,1.878-.32" transform="translate(-44.564 -1.321)" fill="#ed8b5d"/>
      <path id="Path_18478" data-name="Path 18478" d="M180.823,12.011s4.865-1.9,3.637-4.908-1.426-5.283-4.585-4.2-3.29,2.479-3.124,3.583,2.775,5.942,4.071,5.526" transform="translate(-43.742 -0.373)" fill="#ffa77d"/>
      <path id="Path_18479" data-name="Path 18479" d="M206.907,41.689c-1.963,2.822-16.636,6.591-16.462,4.639a21.213,21.213,0,0,0,0-3.853c-.036-.419-.088-.862-.155-1.331a30.706,30.706,0,0,0-3.234-9.685q-.221-.43-.462-.867a29.877,29.877,0,0,1-2.035-4.571c-1.017-2.938-1.426-5.748-.913-7.587,0-.009.005-.016.008-.026,3.067-1.418,4.256-6.918,4.256-6.918s10.464,1.879,16.326,15.827c0,0,4.381,11.916,2.673,14.372" transform="translate(-44.694 -1.63)" fill="#42b9f3"/>
      <path id="Path_18480" data-name="Path 18480" d="M191.042,44.427c-.037-.419-.088-.862-.156-1.331a30.679,30.679,0,0,0-3.233-9.685,13.7,13.7,0,0,1,1.321-4.535c2.087-3.127,3.3-3.617,3.3-3.617s3.13,13.2-1.234,19.168" transform="translate(-45.294 -3.582)" fill="#3ca0d7"/>
      <path id="Path_18481" data-name="Path 18481" d="M171.385,43.934a31.338,31.338,0,0,0-3.344.313A6.805,6.805,0,0,0,166.2,45.67c.016.135.122.219.4.16s1.159-.437,1.132-.31-2.5,1.388-2.38,1.924,1.837,1.107,3.069.827,3.217-2.368,3.417-2.444c1.692-.645-.455-1.893-.455-1.893" transform="translate(-42.132 -6.229)" fill="#ffa77d"/>
      <path id="Path_18482" data-name="Path 18482" d="M171.7,40.885c-.58-.937-.162-1.365-.162-1.365s8.943-7,9.644-7.709,3.948-11.971,3.948-11.971,1.117-4.558,3.734-5.06a4.793,4.793,0,0,1,4.875,2.007,4.85,4.85,0,0,1,.329,5.454c-2.284,3.847-6.89,11.484-8.235,12.789-2.994,2.9-13.009,6.962-13.009,6.962a3.476,3.476,0,0,1-1.123-1.108" transform="translate(-42.988 -2.083)" fill="#42b9f3"/>
      <path id="Path_18483" data-name="Path 18483" d="M184.859,1.136c.034-.066.133-.138.375-.212a1.014,1.014,0,0,0-.49-.019,1.287,1.287,0,0,0-1.092-.9.768.768,0,0,1,.489.45c-.854-.541-2.436-.7-6.384.618-5.2,1.733-2.6,4.755-1.815,5s2.241-1.311,3.547-1.524S181.5,6.148,182,6.3s.215-.263.736-.678.82.56.809,1.246S184.55,8.2,184.55,8.2l.6-1.093c.6-1.093.434-5.064-.136-5.778-.051-.063-.1-.127-.152-.192" transform="translate(-43.443 -0.001)" fill="#2b5c8b"/>
      <path id="Path_18484" data-name="Path 18484" d="M88.4,162.727v5.89l-13.941-5.89Z" transform="translate(-29.247 -23.07)" fill="#428cbc"/>
      <rect id="Rectangle_1903" data-name="Rectangle 1903" width="46.106" height="60.559" transform="translate(132.359 89.42)" fill="#4a92cb"/>
      <rect id="Rectangle_1904" data-name="Rectangle 1904" width="46.107" height="60.559" transform="translate(118.143 89.42)" fill="#69bbee"/>
      <path id="Path_18485" data-name="Path 18485" d="M227.376,104.192v9.055l-14.216-9.055Z" transform="translate(-48.91 -14.772)" fill="#428cbc"/>
    </g>
  </g>
</svg>
