<svg id="Group_2370" data-name="Group 2370" xmlns="http://www.w3.org/2000/svg" xmlns:xlink="http://www.w3.org/1999/xlink" width="116.662" height="135.708" viewBox="0 0 116.662 135.708">
  <defs>
    <clipPath id="clip-path">
      <rect id="Rectangle_1929" data-name="Rectangle 1929" width="116.663" height="135.708" fill="none"/>
    </clipPath>
  </defs>
  <g id="Group_2369" data-name="Group 2369" transform="translate(0 0)" clip-path="url(#clip-path)">
    <path id="Path_18808" data-name="Path 18808" d="M64.311,15.7,58.867,26.032l-2.794-1.014.908,2.756L51.524,44.215S48.5,23.324,64.311,15.7" transform="translate(15.321 4.691)" fill="#234662"/>
    <path id="Path_18809" data-name="Path 18809" d="M55.842,22.735s-6.019,22.194-6.6,43.37c0,0,4.994,1.742,12.838.364,7.883-1.386-6.238-43.734-6.238-43.734" transform="translate(14.709 6.791)" fill="#234662"/>
    <path id="Path_18810" data-name="Path 18810" d="M32.748,47.373c1.616-.03,3.891.169,4.642-.653a2.275,2.275,0,0,1,1.857-.795l-.2-1.065L38.8,43.587s-.092-.116-.423-.112a6.272,6.272,0,0,1-1.73-.149c-1.36-.486-6.774,2.757-6.591,3.657.069.336,2,.4,2.692.39" transform="translate(8.976 12.927)" fill="#ed8b5d"/>
    <path id="Path_18811" data-name="Path 18811" d="M60.6,22.4S51.457,41.288,48.625,43.316s-12.917,6.412-12.917,6.412a2.566,2.566,0,0,0-.019,1.548,1.926,1.926,0,0,0,.758,1.229s14.1-1.26,17.383-3.3,10.51-10.178,10.51-10.178Z" transform="translate(10.629 6.691)" fill="#234662"/>
    <path id="Path_18812" data-name="Path 18812" d="M75.469,106.472H80.88a3.277,3.277,0,0,0,1.481-2.481c.265-1.743,2.219-2.694,2.642-4.121s-1.743-3.432-1.743-3.432l-.362-.466-.378-.484-3.592.845s-.088.856-.143,1.945a24.877,24.877,0,0,0-.016,2.491c.106,1.9-.531,3.951-2.221,4.321-1.249.273-1.194,1.014-1.079,1.382" transform="translate(22.526 28.523)" fill="#234662"/>
    <path id="Path_18813" data-name="Path 18813" d="M51.271,105.4H63.648c.595-.726.375-3.406.286-4.282-.018-.177-.031-.279-.031-.279s-4.226-3.381-4.808-.792c-.018.081-.039.16-.062.239-.731,2.421-4.013,3.521-5.907,3.827a2.142,2.142,0,0,0-1.855,1.287" transform="translate(15.315 29.593)" fill="#234662"/>
    <path id="Path_18814" data-name="Path 18814" d="M53.086,51s.642,8.008,1.4,17.632c1.026,13.075,2.258,29.135,2.381,32.178.21,5.283,1.057,13.734,1.057,13.734s2.005,2.008,6.021,1.162a138.255,138.255,0,0,0,4.6-24.829c.017-.209.032-.419.048-.631.951-12.994,2.43-40.356,2.43-40.356Z" transform="translate(15.857 14.903)" fill="#28a1de"/>
    <path id="Path_18815" data-name="Path 18815" d="M53.086,51s.642,8.008,1.4,17.632L68.541,90.881c.017-.209.032-.419.048-.631.951-12.994,2.43-40.356,2.43-40.356Z" transform="translate(15.857 14.903)" fill="#1282af"/>
    <path id="Path_18816" data-name="Path 18816" d="M55.343,52.683s11.568,29,19.174,42.627S84.5,112.741,84.5,112.741s4.358-1.743,4.755-2.931c0,0-2.909-26.31-8-32.723-2.878-3.625-6.26-14.5-6.418-18.3S73.8,47.453,73.8,47.453Z" transform="translate(16.531 14.174)" fill="#28a1de"/>
    <path id="Path_18817" data-name="Path 18817" d="M57.561,21.7C62.082,23.127,69.9,19.277,69.9,19.277a11.771,11.771,0,0,1-3.949-9.632l-3.495,2.817-2.374,1.913a28.28,28.28,0,0,0,.269,3.105c.048.361.1.749.169,1.165a.84.84,0,0,1-.379.844A10.67,10.67,0,0,0,57.561,21.7" transform="translate(17.194 2.881)" fill="#ffa77d"/>
    <path id="Path_18818" data-name="Path 18818" d="M52.7,61.882a.731.731,0,0,0,.475.181c1.7-.022,6.648.921,10.836.49a31.2,31.2,0,0,0,10.012-2.888c.447-.2,1.473-.748,1.449-1.245-.016-.547-.07-1.338-.138-2.334a124.717,124.717,0,0,1-.248-16.3c.073-1.279.11-2.549.116-3.8.035-9.316-1.813-17.51-5.525-20.284A30.764,30.764,0,0,1,65.3,17.728c-1.755.561-2.66.448-3.57-.156A11.1,11.1,0,0,0,59.2,19.28a17.91,17.91,0,0,0-4.03,8.095,69.386,69.386,0,0,0-1.74,13.417c-.113,2.626-.84,21-.727,21.091" transform="translate(15.74 4.691)" fill="#fff"/>
    <path id="Path_18819" data-name="Path 18819" d="M73.73,31.1,68.753,15.7s-11.945,4.505-12.5,21.374c-.218,3.844-1.14,19.6.529,32.652,0,0,9.308,3.626,20.718-3.53Z" transform="translate(16.669 4.691)" fill="#2b5c8b"/>
    <path id="Path_18820" data-name="Path 18820" d="M59.5,13.744a28.728,28.728,0,0,0,.269,3.105c2.631-.452,5.616-4.7,5.616-4.7a8.387,8.387,0,0,0-3.51-.314Z" transform="translate(17.774 3.514)" fill="#ed8b5d"/>
    <path id="Path_18821" data-name="Path 18821" d="M58.361,16.293s8.142,1.353,8.907-3.731,2.33-8.332-2.836-9.41-6.47.709-7.138,2.343-1.031,10.316,1.068,10.8" transform="translate(16.958 0.843)" fill="#ffa77d"/>
    <path id="Path_18822" data-name="Path 18822" d="M90.609,67.307,73.984,69.675A3.984,3.984,0,0,1,69.49,66.3L68.463,59.1A3.985,3.985,0,0,1,71.837,54.6l16.623-2.369a3.985,3.985,0,0,1,4.495,3.373l1.026,7.2a3.984,3.984,0,0,1-3.373,4.495" transform="translate(20.438 15.591)" fill="#234662"/>
    <path id="Path_18823" data-name="Path 18823" d="M70.15,59.278l1.039,7.287a3.994,3.994,0,0,0,2.348,3.087,3.911,3.911,0,0,0,1.295.327h0a3.957,3.957,0,0,0,.865-.027l16.594-2.365a4,4,0,0,0,3.386-4.51l-1.038-7.288A4,4,0,0,0,90.131,52.4l-5.713.814L84.2,51.662a1.316,1.316,0,0,0-1.488-1.117l-.626.088-3.475.5-.864.123a1.317,1.317,0,0,0-1.117,1.488l.221,1.555-3.31.47c-.131.019-.258.044-.383.075h0a4,4,0,0,0-3,4.435M83.6,53.332l-5.938.847-.222-1.555a.494.494,0,0,1,.418-.556l1.491-.212,2.735-.391.738-.105a.512.512,0,0,1,.148,0,.493.493,0,0,1,.409.416Z" transform="translate(20.942 15.094)" fill="#2b5c8b"/>
    <path id="Path_18824" data-name="Path 18824" d="M75.772,47.575A5.8,5.8,0,0,1,76.68,49.2c.235,3.149-1.2,3.586,2.521,5.335,0,0,1.591.606,1.618-.629s-1.1-1.255-.9-2.983c.239-1.995.214-2.013-1.094-3.055l-.868-1.432Z" transform="translate(22.633 13.871)" fill="#ffa77d"/>
    <path id="Path_18825" data-name="Path 18825" d="M82.083,57.647a12.732,12.732,0,0,1-2.925.162s-4.168-12.873-4.7-14.048S62.076,28.668,62.076,28.668L66.88,15.7s2.817,1.649,5.795,6.787c3.679,6.348,7.723,16.571,8.443,18.232,2.149,4.968,2.895,16.1,2.895,16.1a5.35,5.35,0,0,1-1.93.821" transform="translate(18.542 4.691)" fill="#2b5c8b"/>
    <path id="Path_18826" data-name="Path 18826" d="M67.762,12.916s-.835-.14-.7-1.291.134-2.655-.8-2.374-.982,1.029-1.366.592S64.5,7.563,61.716,7.434s-3.916.84-5.21.271-1.364-2.529-1.364-2.529a2.236,2.236,0,0,0,.925.922s-2.16-2.955.342-4.981,5.049-.7,6.5-.612C66.094.7,68.154.891,69.2,2.986s.612,7.913-1.434,9.93" transform="translate(16.471 0)" fill="#2b5c8b"/>
    <path id="Path_18827" data-name="Path 18827" d="M77.134,48.38s-.84.877-.894,1.24c-.17,1.171-.561,1.677-.365,1.8.406.265.945-.6,1.2-1.379a3.56,3.56,0,0,0,.056-1.665" transform="translate(22.648 14.451)" fill="#ffa77d"/>
    <path id="Path_18828" data-name="Path 18828" d="M68.769,15.7,63.325,26.032l-2.792-1.014.907,2.756L55.982,44.215S52.963,23.324,68.769,15.7" transform="translate(16.653 4.691)" fill="#234662"/>
    <path id="Path_18829" data-name="Path 18829" d="M57.561,11a1.351,1.351,0,0,0,1.11.861,2.015,2.015,0,0,0,1.4-.748A6.289,6.289,0,0,0,57.561,11" transform="translate(17.194 3.254)" fill="#fff"/>
    <path id="Path_18830" data-name="Path 18830" d="M26.362,75.331,42.893,71.5A4.028,4.028,0,0,0,45.9,66.683l-1.66-7.165a4.027,4.027,0,0,0-4.818-3.005l-16.532,3.83a4.027,4.027,0,0,0-3.005,4.818l1.66,7.165a4.027,4.027,0,0,0,4.818,3.005" transform="translate(5.908 16.85)" fill="#28a1de"/>
    <path id="Path_18831" data-name="Path 18831" d="M41.591,58.475h0a4.044,4.044,0,0,0-3.473-1.262h0c-.129.018-.258.04-.388.07l-3.292.764L34.074,56.5a1.331,1.331,0,0,0-1.6-1l-.858.2-3.456.8-.623.144a1.332,1.332,0,0,0-.995,1.6L26.9,59.79l-5.683,1.317A4.044,4.044,0,0,0,18.2,65.943l1.681,7.247a4.042,4.042,0,0,0,4.835,3.017l16.5-3.823a3.887,3.887,0,0,0,.826-.29h0a3.94,3.94,0,0,0,1.1-.781,4.037,4.037,0,0,0,1.087-3.765L42.561,60.3a4.006,4.006,0,0,0-.97-1.825m-14.234-.419a.5.5,0,0,1,.234-.54.537.537,0,0,1,.138-.056l.735-.17,2.719-.63,1.483-.343a.5.5,0,0,1,.6.37l.358,1.547L27.715,59.6Z" transform="translate(5.407 16.569)" fill="#1282af"/>
    <path id="Path_18832" data-name="Path 18832" d="M28.821,50.683a7.306,7.306,0,0,0-.327,2.335c1.161,3.823,3.169,6.325-2.23,5.679,0,0,.223-.221-.809-2.166-1.192-2.244-1.173-2.277-.1-4.1l.369-2.086Z" transform="translate(7.335 15.037)" fill="#ffa77d"/>
    <path id="Path_18833" data-name="Path 18833" d="M34.446,48.325c-1.63-.1-3.616-.525-4.34-1.387a4.011,4.011,0,0,0-1.64-1.239l.251-1.068.3-1.274s.1-.113.431-.095c0,0,1.278.288,1.753-.078a1.8,1.8,0,0,1,1.877.212c.679.451,1.6.378,1.574.6,0,0-1.348.662-1.222.774,1.234,1.1,4.483,1.531,4.273,2.387-.084.336-2.561,1.21-3.256,1.169" transform="translate(8.503 12.843)" fill="#ffa77d"/>
    <path id="Path_18834" data-name="Path 18834" d="M17.72,16.213l-.005.886s.242,2.771-3.17,3.175-6.209.352-6.117-1.786a44.921,44.921,0,0,0,.881-5.595,9.561,9.561,0,0,0-.121-1.658L15.8,11.1l1.947.318Z" transform="translate(2.517 3.316)" fill="#ffa77d"/>
    <path id="Path_18835" data-name="Path 18835" d="M17.569,11.421l-.025,4.792a5.6,5.6,0,0,1-2.383.526c-3.039,0-5-2.229-6.029-3.845a9.7,9.7,0,0,0-.122-1.658l6.612-.132Z" transform="translate(2.692 3.316)" fill="#ed8b5d"/>
    <path id="Path_18836" data-name="Path 18836" d="M8.869,12.777c.768,4.129,6.094,3.992,8.395,3.732.648-.071,1.056-.155,1.056-.155.731-.195,1.138-1.345,1.327-2.852.377-2.983-.1-7.361-.6-8.481-.758-1.684-2.187-3.506-7.551-2.192S7.885,7.488,8.869,12.777" transform="translate(2.327 0.711)" fill="#ffa77d"/>
    <path id="Path_18837" data-name="Path 18837" d="M5.265,105.558h7.548a18.347,18.347,0,0,0-.6-2.709,7.55,7.55,0,0,0-.427-1.087c-.734-1.466-5.4-.534-5.4-.534a3.585,3.585,0,0,0-.771,1.788,14.941,14.941,0,0,0-.351,2.542" transform="translate(1.573 30.15)" fill="#234662"/>
    <path id="Path_18838" data-name="Path 18838" d="M22.829,103.883a4.091,4.091,0,0,0,.522,2.382h14.93a2.577,2.577,0,0,0-2.26-1.6,11.325,11.325,0,0,1-6.042-2.8,4.5,4.5,0,0,1-1.17-2.118c-.7-3.127-5.808.958-5.808.958a25.452,25.452,0,0,0-.173,3.175" transform="translate(6.818 29.443)" fill="#234662"/>
    <path id="Path_18839" data-name="Path 18839" d="M16.908,85.39a23.633,23.633,0,0,1,.375,2.757c.474,9.258,7.792,30.426,9.1,30.92,2.025.764,5.214-.861,6.883-1.392a1.43,1.43,0,0,0,1-1.626c-3.623-16.661-4.956-40.652-5.44-54.856a64.4,64.4,0,0,0-1.473-12.1S9.509,44.334,9.4,50.358c-.094,5.331,5.912,26.238,7.5,35.031" transform="translate(2.809 14.131)" fill="#2b5c8b"/>
    <path id="Path_18840" data-name="Path 18840" d="M16.908,85.39l11.923-24.2a64.4,64.4,0,0,0-1.473-12.1S9.509,44.334,9.4,50.358c-.094,5.331,5.912,26.238,7.5,35.031" transform="translate(2.809 14.131)" fill="#234662"/>
    <path id="Path_18841" data-name="Path 18841" d="M22.845,50.174,13.41,118.561a18.477,18.477,0,0,1-7.368.2S3.28,82.39,3.511,73.6s-1.983-23.529.5-25.153,18.83,1.731,18.83,1.731" transform="translate(0.843 14.337)" fill="#2b5c8b"/>
    <path id="Path_18842" data-name="Path 18842" d="M19.766,6.376c-1.474.465-4.591-.009-5.894,1.044s-.062,2.792-1.551,3.413l-.006,0a.736.736,0,0,1-.856-.214c-.412-.516-.982-1.029-1.5-.816-.429.174-.449.727-.261,1.265a1.5,1.5,0,0,1-.16,1.352.74.74,0,0,0-.162.544c.123.682.462,1.568.586,2.021l.035.475a24.457,24.457,0,0,1-3.545-4.973C5.727,8.931,5.741,3.1,9.268,1.4a.1.1,0,0,1-.034-.038c-.077-.136-.29-.105-.29-.105a1.594,1.594,0,0,1,.774-.051c-.01-.006.009-.029.052-.061a1.242,1.242,0,0,1,.477-.706A1.37,1.37,0,0,0,10.021,1C10.947.508,13.8-.574,16.059.409a18.851,18.851,0,0,0,3.882,1.2,1.618,1.618,0,0,1,1.312,1.649c-.042,1.119-.431,2.73-1.487,3.114" transform="translate(1.814 0.003)" fill="#234662"/>
    <path id="Path_18843" data-name="Path 18843" d="M7.807,17.7,9.98,64.317s18.131.3,17.613-3.806-6.535-41.378-6.535-41.378" transform="translate(2.332 5.289)" fill="#e9f3fe"/>
    <path id="Path_18844" data-name="Path 18844" d="M16.039,47.3s-.921,12.449-2.688,20.266c0,0-10.581.561-13.092-3.525,0,0,1.988-16.818,1.988-20.229,0-1.2-.092-2.83-.239-4.652-.219-2.76-.561-5.957-.886-8.742C.672,26.542.258,23.459.258,23.459l8.723-7.088Z" transform="translate(0.077 4.89)" fill="#2a567a"/>
    <path id="Path_18845" data-name="Path 18845" d="M32.227,62.011a8.137,8.137,0,0,1-5.083.821c-1.131,2.775-3.8,3.718-3.8,3.468,0-.031-.6-5.242-1.306-11.382-.07-.613-.142-1.235-.213-1.862l-.019-.161c-.119-1.029-.238-2.068-.358-3.1-.851-7.395-1.669-14.483-1.669-14.483C17.921,23.95,16.35,16.443,16.35,16.443c3.96.412,6.63,1.821,7.7,3.668,3.158,5.477,5.447,19.171,6.787,29.425,0,.026.005.052.009.078.231,1.769.434,3.436.606,4.938.012.094.022.187.032.278.494,4.3.745,7.182.745,7.182" transform="translate(4.884 4.912)" fill="#2a567a"/>
    <path id="Path_18846" data-name="Path 18846" d="M14.441,11.022s.173.532,1.516.338c0,0,1.129-.162,1.045-.756a3.659,3.659,0,0,0-2.561.418" transform="translate(4.314 3.145)" fill="#fff"/>
    <path id="Path_18847" data-name="Path 18847" d="M7.411,16.572c-.022-.445,2.084-1.06,2.084-1.06a8.752,8.752,0,0,0,6.386,3.4s-1.132,2.2-2.468,2.775c0,0-5.871-2.475-6-5.117" transform="translate(2.214 4.633)" fill="#d9e9f9"/>
    <path id="Path_18848" data-name="Path 18848" d="M13.933,18.674s2.105-1.248,2.112-2.6c0,0,1.36-.17,1.953.488a6.994,6.994,0,0,1-.162,3.665s-3.031-.461-3.9-1.553" transform="translate(4.162 4.795)" fill="#d9e9f9"/>
    <path id="Path_18849" data-name="Path 18849" d="M12.861,18.073l2.855-.684a.432.432,0,0,1,.362.5,3.635,3.635,0,0,1-1.156,1.932c-.351.108-2.736-.805-2.061-1.745" transform="translate(3.806 5.194)" fill="#ba4c43"/>
    <path id="Path_18850" data-name="Path 18850" d="M7.667,16.464c-.022-.445,1.4-1.361,1.4-1.361A10.041,10.041,0,0,0,15.8,18.386s-1.132,2.2-2.468,2.774c0,0-5.539-2.055-5.67-4.7" transform="translate(2.29 4.511)" fill="#e9f3fe"/>
    <path id="Path_18851" data-name="Path 18851" d="M13.933,18.2s2.129-1.129,2.136-2.482a6.815,6.815,0,0,1,1.878,1.225,3.9,3.9,0,0,1-.112,2.81s-3.031-.461-3.9-1.553" transform="translate(4.162 4.696)" fill="#e9f3fe"/>
    <path id="Path_18852" data-name="Path 18852" d="M19.305,56.426a6.065,6.065,0,0,1-1.435,3.505l-1.279,1.443a.652.652,0,0,1-1.083-.094L13.964,58.86a3.732,3.732,0,0,1-.531-2.3c.165-1.848.473-5.408.723-8.844.205-2.783.374-5.487.4-7.131.084-5.249-.6-21.975-.6-21.975l1.026.053a77.238,77.238,0,0,1,3.736,15.291c.308,2.171.54,4.486.643,6.882,0,0,.443,9.553-.053,15.595" transform="translate(4.008 5.557)" fill="#c65447"/>
    <path id="Path_18853" data-name="Path 18853" d="M19.305,52.9A6.065,6.065,0,0,1,17.87,56.4l-1.279,1.443a.652.652,0,0,1-1.083-.094L13.964,55.33a3.732,3.732,0,0,1-.531-2.3c.165-1.848.473-5.408.723-8.844,2.875-3.94,4.077-9.352,4.56-13.762.308,2.171.54,4.486.643,6.882,0,0,.443,9.553-.053,15.595" transform="translate(4.008 9.087)" fill="#ba4c43"/>
    <path id="Path_18854" data-name="Path 18854" d="M9.5,15.1s5.651,23.669,4.752,32.584A60.734,60.734,0,0,0,7.174,30.355S9,28.751,8.9,28.159a6.253,6.253,0,0,0-2.669-.131s.145-10.2.965-11.281A5.967,5.967,0,0,1,9.5,15.1" transform="translate(1.861 4.511)" fill="#234662"/>
    <path id="Path_18855" data-name="Path 18855" d="M15.6,15.721c-.847.069,5.6,23.129,6.078,30.52,0,0-.566-13.19-.51-16.991,0,0-2.347-1.243-2.347-1.679s2.5-1.614,2.5-1.614-1.584-8.123-2.451-9.018S15.6,15.721,15.6,15.721" transform="translate(4.636 4.696)" fill="#234662"/>
    <path id="Path_18856" data-name="Path 18856" d="M24.717,52.885a2.518,2.518,0,0,0-.143,1.86c.249,1.331.112,2.065.456,1.835a7.963,7.963,0,0,0,1.055-1.826Z" transform="translate(7.316 15.797)" fill="#ffa77d"/>
    <path id="Path_18857" data-name="Path 18857" d="M15.15,48.728C8.571,47.746,4.172,41.6,1.808,36.942c-.219-2.76-.561-5.957-.884-8.743l1.539-4.391Z" transform="translate(0.276 7.112)" fill="#234662"/>
    <path id="Path_18858" data-name="Path 18858" d="M30.227,46.813a22.208,22.208,0,0,1-9.444.088c-.07-.613-.14-1.235-.213-1.862l-.019-.161q.2-.8.41-1.6c2.355.843,7.616,2.69,9.234,3.258.012.094.022.187.032.278" transform="translate(6.138 12.927)" fill="#234662"/>
    <path id="Path_18859" data-name="Path 18859" d="M9.057,16.369S3.277,17.1.638,20.782,3.665,44.525,15.426,50.95c5.656,3.09,21.979,3.786,21.979,3.786s.9.09,1.253-1.717a7.193,7.193,0,0,0,0-1.7s-18.581-6.966-20.214-8.308S9.057,16.369,9.057,16.369" transform="translate(0 4.889)" fill="#2a567a"/>
  </g>
</svg>
