<svg id="Group_2372" data-name="Group 2372" xmlns="http://www.w3.org/2000/svg" xmlns:xlink="http://www.w3.org/1999/xlink" width="160.313" height="133.437" viewBox="0 0 160.313 133.437">
  <defs>
    <clipPath id="clip-path">
      <rect id="Rectangle_1931" data-name="Rectangle 1931" width="160.313" height="133.437" fill="none"/>
    </clipPath>
  </defs>
  <g id="Group_2371" data-name="Group 2371" transform="translate(0 0)" clip-path="url(#clip-path)">
    <path id="Path_18860" data-name="Path 18860" d="M47.589,120.165c.083.173.27,1.1.6,1.866h0a1.927,1.927,0,0,0,.761,1.007,3.327,3.327,0,0,0,2.229-.276,18.369,18.369,0,0,0,2.627.165,21.4,21.4,0,0,0,.466-3.7s-1.862-1.935-2.029-1.99-1.529.663-1.762.663-1.6-.89-1.962-.667a6.528,6.528,0,0,0-.931,2.933" transform="translate(4.171 10.276)" fill="#fff"/>
    <path id="Path_18861" data-name="Path 18861" d="M50.248,117.9a6.852,6.852,0,0,0,.531,1.022c.116.083,1.231-1.686,1.231-1.686-.166-.055-1.53.663-1.762.663" transform="translate(4.406 10.279)" fill="#f2f7fe"/>
    <path id="Path_18862" data-name="Path 18862" d="M48.488,118.088a16.249,16.249,0,0,1,1.679,1.723,9.227,9.227,0,0,1-1.907,1.161c-.066-.037.388-1.235.365-1.437s-.138-1.447-.138-1.447" transform="translate(4.231 10.354)" fill="#f2f7fe"/>
    <path id="Path_18863" data-name="Path 18863" d="M47.589,120.162c.083.173.27,1.1.6,1.866h0l-.2-1.757.532-3.044a6.528,6.528,0,0,0-.931,2.933" transform="translate(4.171 10.279)" fill="#f2f7fe"/>
    <path id="Path_18864" data-name="Path 18864" d="M50.889,122.6a18.369,18.369,0,0,0,2.627.165,21.4,21.4,0,0,0,.466-3.7s-.521,1.844-.532,1.935-.748-.11-.748-.11Z" transform="translate(4.462 10.44)" fill="#f2f7fe"/>
    <path id="Path_18865" data-name="Path 18865" d="M53.225,119.062l-.266.953H52.41l.407-.4Z" transform="translate(4.595 10.44)" fill="#f2f7fe"/>
    <path id="Path_18866" data-name="Path 18866" d="M114.211,120.165c.083.173.27,1.1.6,1.866h0a1.922,1.922,0,0,0,.761,1.007,3.325,3.325,0,0,0,2.229-.276,18.369,18.369,0,0,0,2.627.165,21.4,21.4,0,0,0,.466-3.7s-1.862-1.935-2.029-1.99-1.529.663-1.762.663-1.6-.89-1.962-.667a6.528,6.528,0,0,0-.931,2.933" transform="translate(10.013 10.276)" fill="#fff"/>
    <path id="Path_18867" data-name="Path 18867" d="M116.869,117.9a6.766,6.766,0,0,0,.532,1.022c.116.083,1.23-1.686,1.23-1.686-.166-.055-1.529.663-1.762.663" transform="translate(10.247 10.279)" fill="#f2f7fe"/>
    <path id="Path_18868" data-name="Path 18868" d="M115.11,118.088a16.249,16.249,0,0,1,1.679,1.723,9.228,9.228,0,0,1-1.907,1.161c-.066-.037.388-1.235.365-1.437s-.138-1.447-.138-1.447" transform="translate(10.073 10.354)" fill="#f2f7fe"/>
    <path id="Path_18869" data-name="Path 18869" d="M114.211,120.162c.083.173.27,1.1.6,1.866h0l-.2-1.757.532-3.044a6.528,6.528,0,0,0-.931,2.933" transform="translate(10.013 10.279)" fill="#f2f7fe"/>
    <path id="Path_18870" data-name="Path 18870" d="M117.511,122.6a18.369,18.369,0,0,0,2.627.165,21.4,21.4,0,0,0,.466-3.7s-.52,1.844-.532,1.935-.748-.11-.748-.11Z" transform="translate(10.304 10.44)" fill="#f2f7fe"/>
    <path id="Path_18871" data-name="Path 18871" d="M119.847,119.062l-.266.953h-.548l.407-.4Z" transform="translate(10.437 10.44)" fill="#f2f7fe"/>
    <path id="Path_18872" data-name="Path 18872" d="M129.134,113.937c.084.173.27,1.1.6,1.866h0a1.923,1.923,0,0,0,.762,1.007,3.323,3.323,0,0,0,2.228-.276,18.369,18.369,0,0,0,2.627.165,21.4,21.4,0,0,0,.466-3.7s-1.862-1.935-2.029-1.989-1.529.662-1.762.662-1.6-.89-1.962-.667a6.528,6.528,0,0,0-.931,2.933" transform="translate(11.321 9.73)" fill="#fff"/>
    <path id="Path_18873" data-name="Path 18873" d="M131.793,111.669a6.768,6.768,0,0,0,.532,1.022c.116.083,1.23-1.686,1.23-1.686-.166-.055-1.529.663-1.762.663" transform="translate(11.556 9.733)" fill="#f2f7fe"/>
    <path id="Path_18874" data-name="Path 18874" d="M130.034,111.86a16.248,16.248,0,0,1,1.679,1.723,9.2,9.2,0,0,1-1.907,1.161c-.066-.036.388-1.235.365-1.437s-.138-1.447-.138-1.447" transform="translate(11.381 9.808)" fill="#f2f7fe"/>
    <path id="Path_18875" data-name="Path 18875" d="M129.134,113.934c.084.173.27,1.1.6,1.866h0l-.2-1.757.532-3.044a6.528,6.528,0,0,0-.931,2.933" transform="translate(11.321 9.733)" fill="#f2f7fe"/>
    <path id="Path_18876" data-name="Path 18876" d="M132.435,116.372a18.369,18.369,0,0,0,2.627.165,21.4,21.4,0,0,0,.466-3.7s-.521,1.844-.532,1.935-.748-.11-.748-.11Z" transform="translate(11.612 9.894)" fill="#f2f7fe"/>
    <path id="Path_18877" data-name="Path 18877" d="M134.77,112.834l-.265.953h-.549l.408-.4Z" transform="translate(11.746 9.894)" fill="#f2f7fe"/>
    <path id="Path_18878" data-name="Path 18878" d="M90.694,99.635c.083.172.27,1.1.6,1.866h0a1.932,1.932,0,0,0,.762,1.007,3.328,3.328,0,0,0,2.228-.277,18.355,18.355,0,0,0,2.627.166,21.416,21.416,0,0,0,.466-3.7s-1.862-1.935-2.029-1.99-1.529.663-1.762.663-1.6-.89-1.962-.667a6.524,6.524,0,0,0-.931,2.933" transform="translate(7.951 8.476)" fill="#fff"/>
    <path id="Path_18879" data-name="Path 18879" d="M93.353,97.366a6.767,6.767,0,0,0,.532,1.022c.116.084,1.23-1.686,1.23-1.686-.166-.055-1.529.663-1.762.663" transform="translate(8.185 8.479)" fill="#f2f7fe"/>
    <path id="Path_18880" data-name="Path 18880" d="M91.594,97.558a16.247,16.247,0,0,1,1.679,1.723,9.228,9.228,0,0,1-1.907,1.161c-.066-.037.388-1.235.365-1.437s-.138-1.447-.138-1.447" transform="translate(8.011 8.554)" fill="#f2f7fe"/>
    <path id="Path_18881" data-name="Path 18881" d="M90.694,99.632c.083.172.27,1.1.6,1.866h0l-.2-1.758.532-3.043a6.524,6.524,0,0,0-.931,2.933" transform="translate(7.951 8.479)" fill="#f2f7fe"/>
    <path id="Path_18882" data-name="Path 18882" d="M94,102.07a18.368,18.368,0,0,0,2.627.165,21.4,21.4,0,0,0,.466-3.7s-.521,1.844-.532,1.935-.748-.11-.748-.11Z" transform="translate(8.242 8.639)" fill="#f2f7fe"/>
    <path id="Path_18883" data-name="Path 18883" d="M96.33,98.532l-.266.953h-.548l.407-.4Z" transform="translate(8.375 8.64)" fill="#f2f7fe"/>
    <path id="Path_18884" data-name="Path 18884" d="M131.486,41.585H83.476L86.691,8.579H134.7Z" transform="translate(7.319 0.752)" fill="#2a557d"/>
    <path id="Path_18885" data-name="Path 18885" d="M133.083,41.585H85.072L88.287,8.579H136.3Z" transform="translate(7.459 0.752)" fill="#326290"/>
    <path id="Path_18886" data-name="Path 18886" d="M110.346,45.064h-8.52l2.787-19.022h8.52Z" transform="translate(8.928 2.283)" fill="#2a557d"/>
    <rect id="Rectangle_1930" data-name="Rectangle 1930" width="17.491" height="1.37" transform="translate(105.749 46.777)" fill="#2a557d"/>
    <path id="Path_18887" data-name="Path 18887" d="M69.158,108.643H33.542v-3.217l18.152-1.637,17.464,1.637Z" transform="translate(2.941 9.1)" fill="#6196d6"/>
    <path id="Path_18888" data-name="Path 18888" d="M30.36,108.023a2.93,2.93,0,1,1,2.93,2.93,2.93,2.93,0,0,1-2.93-2.93" transform="translate(2.662 9.215)" fill="#6196d6"/>
    <path id="Path_18889" data-name="Path 18889" d="M63.105,108.023a2.93,2.93,0,1,1,2.93,2.93,2.93,2.93,0,0,1-2.93-2.93" transform="translate(5.533 9.215)" fill="#6196d6"/>
    <path id="Path_18890" data-name="Path 18890" d="M68.025,75.838H34.961A3.057,3.057,0,0,1,31.9,72.781H71.082a3.057,3.057,0,0,1-3.057,3.057" transform="translate(2.797 6.382)" fill="#6196d6"/>
    <path id="Path_18891" data-name="Path 18891" d="M52.032,112.008H48.37l-1.028-46.6h5.6Z" transform="translate(4.151 5.735)" fill="#6196d6"/>
    <path id="Path_18892" data-name="Path 18892" d="M22.487,71.842v-46.9C22.487,16.694,27.745,10,34.23,10H60.784c6.485,0,11.743,6.689,11.743,14.941v46.9Z" transform="translate(1.972 0.877)" fill="#77a4e5"/>
    <path id="Path_18893" data-name="Path 18893" d="M83.167,73.3H26.391a3.9,3.9,0,0,1-3.9-3.9V66.857h60.68Z" transform="translate(1.972 5.862)" fill="#77a4e5"/>
    <path id="Path_18894" data-name="Path 18894" d="M88.225,73.3H45.272a2.887,2.887,0,0,1-2.887-2.887v-.67a2.888,2.888,0,0,1,2.887-2.887H88.225a2.887,2.887,0,0,1,2.887,2.887v.67A2.886,2.886,0,0,1,88.225,73.3" transform="translate(3.716 5.862)" fill="#b0d4ff"/>
    <path id="Path_18895" data-name="Path 18895" d="M25.08,71.842v-46.9C25.08,16.694,30.338,10,36.823,10H63.377c6.485,0,11.743,6.689,11.743,14.941v46.9Z" transform="translate(2.199 0.877)" fill="#9fc3f7"/>
    <path id="Path_18896" data-name="Path 18896" d="M81.334,94.73s-1.807,4.837-1.423,6.632-.236,5.273.5,6.828,2.047,3.817.787,4.389c-.477.218-6.036-4.094-6.354-5.366s-.567-5.026-1.63-7.063a3.028,3.028,0,0,1,1.366-4.43c1.538-.749,3.681-4.852,3.681-4.852Z" transform="translate(6.379 7.967)" fill="#2a557d"/>
    <path id="Path_18897" data-name="Path 18897" d="M75.234,4.836A9.912,9.912,0,0,0,69.96,1.973C63.207-3.7,57.357,4.37,56.2,7.33s-1.859,7.988-6.739,10.379c-8.669,4.245.745,11.5.745,11.5,3.932-8.678,22.265,6.8,21.423,7.489,17.135,7.577,7.8-26.73,3.6-31.859" transform="translate(4.015 0)" fill="#2a557d"/>
    <path id="Path_18898" data-name="Path 18898" d="M58.651,29.208A60.256,60.256,0,0,0,66.308,39.7c2.36,2.513,5.079,4.753,7.875,5.729a8.1,8.1,0,0,0,4.113.413c.872-.151.493-5.3-.719-9.217C75.98,31.465,71,18.651,71,18.651l-2.848,1.215S72.1,36,71.634,36.072L67.457,25.5Z" transform="translate(5.143 1.635)" fill="#e5925a"/>
    <path id="Path_18899" data-name="Path 18899" d="M53.16,52.4s31.741-.506,35.976,2.188-4.233,45.7-4.233,45.7-8.21.262-8.862-1.911c0,0,1.477-20.154.185-23.635s-.5-8.306-.5-8.306S59.673,68.89,54.574,67.684,53.16,52.4,53.16,52.4" transform="translate(4.548 4.591)" fill="#2a557d"/>
    <path id="Path_18900" data-name="Path 18900" d="M85.988,101.4s1.74,4.862,3.191,5.984,3.222,4.181,4.787,4.9,4.026,1.6,3.434,2.845c-.225.474-7.254.766-8.318,0s-3.674-3.474-5.8-4.344a3.028,3.028,0,0,1-1.814-4.266c.692-1.565-.319-6.082-.319-6.082Z" transform="translate(7.115 8.806)" fill="#2a4e96"/>
    <path id="Path_18901" data-name="Path 18901" d="M36.58,51.358S74.246,57.252,77.148,60.6s14.4,47.01,14.4,47.01-3.354,1.882-6.412.14c0,0-8.75-14.8-12.617-19.439s-5.348-19-5.986-19.149-20.906,2.448-28.374-2.493c-4.4-2.913-1.576-15.316-1.576-15.316" transform="translate(3.129 4.503)" fill="#326290"/>
    <path id="Path_18902" data-name="Path 18902" d="M49.68,22.7c2.222-1.674,8.912-3.521,13.1-1.638,1.981.891,4.987,2.06,6.786,4.3,1.942,2.411,4.178,10.571,4.178,10.571-.732,4.3-4.148,4.823-4.148,4.823,2,7.565-7.425,5.589-6.815,9.784,1.063,7.32-5.785,11.164-9.517,12.871-4.885,2.233-18.611,5.047-18.625,0C34.567,40.417,43.289,27.515,49.68,22.7" transform="translate(3.037 1.777)" fill="#fff"/>
    <path id="Path_18903" data-name="Path 18903" d="M49.166,30.006s2.474,13.361,9.18,17.283h6.312L58,38.964Z" transform="translate(4.311 2.631)" fill="#ebf3fa"/>
    <path id="Path_18904" data-name="Path 18904" d="M70.025,20.465a32.359,32.359,0,0,0,2.408-3.18c.36-.74-.312-3.924-1.149-3.9-.526.013-1.176,1.943-1.751,2.644s-3.084,1.7-2.023,4.647c.12.332,2.515-.207,2.515-.207" transform="translate(5.897 1.173)" fill="#e5925a"/>
    <path id="Path_18905" data-name="Path 18905" d="M65.743,25.287c.579.868-.127,3.3-3.4,2.542-2.151-.5-6.344-3.986-5.587-5.768a23.343,23.343,0,0,0,3.719-8l.375.178,6.31,3.009s-.684,2.052-1.19,4.021a8.665,8.665,0,0,0-.222,4.018" transform="translate(4.968 1.233)" fill="#ffb27d"/>
    <path id="Path_18906" data-name="Path 18906" d="M66.818,17.234s-.685,2.052-1.19,4.021c-3.693-1.052-4.795-4.945-5.121-7.03Z" transform="translate(5.305 1.247)" fill="#f4a269"/>
    <path id="Path_18907" data-name="Path 18907" d="M70.527,19.206s-8.845,2.052-10.038-3.476S57.35,6.745,62.948,5.2s7.153.327,8,2.075,1.85,11.253-.42,11.93" transform="translate(5.188 0.406)" fill="#ffb27d"/>
    <path id="Path_18908" data-name="Path 18908" d="M67.1,4.286s-.055,6.362-4.74,9.449c-2.741,1.807-2.87,3.656-2.87,3.656a52.787,52.787,0,0,1-1.881-9.538S64.6,1.592,67.1,4.286" transform="translate(5.051 0.317)" fill="#2a557d"/>
    <path id="Path_18909" data-name="Path 18909" d="M65.821,5.411A15.325,15.325,0,0,1,69.6,7.243c1.722,1.426,2.171,6.061,1.965,7.215,0,0,.469-8.055-2.124-10.108-2.75-2.176-3.619,1.062-3.619,1.062" transform="translate(5.771 0.315)" fill="#2a557d"/>
    <path id="Path_18910" data-name="Path 18910" d="M49.226,30.664a46.227,46.227,0,0,0,3.047,5.993c4.221,6.979,9.382,11.194,11.247,9.229.516-.544,1.816-1.333.457-4.255-1.052-2.257-2.353-5.079-3.63-7.859-2.632-5.728-5.158-11.266-5.158-11.266-.8,0-9.259.295-5.963,8.158" transform="translate(4.25 1.973)" fill="#ffb27d"/>
    <path id="Path_18911" data-name="Path 18911" d="M57.4,38.241c.289-.173,16.2,3.692,21.131,4.895l1.439.352v1.857s-16.466.773-19.038-.408a18.735,18.735,0,0,1-5.027-3.931Z" transform="translate(4.902 3.353)" fill="#ffb27d"/>
    <path id="Path_18912" data-name="Path 18912" d="M49.226,30.664a46.227,46.227,0,0,0,3.047,5.993,23.469,23.469,0,0,0,8.074-2.885c-2.632-5.728-5.158-11.266-5.158-11.266-.8,0-9.259.295-5.963,8.158" transform="translate(4.25 1.973)" fill="#fff"/>
    <path id="Path_18913" data-name="Path 18913" d="M76.712,42.835s5.242-1.506,6.7-1.09c1.029.294,2.343,1.816,3.028,2.688a.385.385,0,0,1-.308.623A8.03,8.03,0,0,1,83.1,44.6c-.7-.369-1.744.443-2.905.447-.892,0-2.039,0-2.039,0Z" transform="translate(6.726 3.654)" fill="#ffb27d"/>
    <path id="Path_18914" data-name="Path 18914" d="M7.374,129.077H7.3c-.425,0-.767-.566-.757-1.252L7.693,47.417l3.379-.637L8.19,127.831c-.025.7-.383,1.246-.816,1.246" transform="translate(0.574 4.102)" fill="#5d95d8"/>
    <path id="Path_18915" data-name="Path 18915" d="M139.74,129.077h.072c.425,0,.767-.566.757-1.252l-1.147-80.408-3.379-.637,2.882,81.051c.025.7.383,1.246.816,1.246" transform="translate(11.928 4.102)" fill="#5d95d8"/>
    <path id="Path_18916" data-name="Path 18916" d="M158.369,49.117H1.945A1.946,1.946,0,0,1,0,47.172v-.962a1.946,1.946,0,0,1,1.946-1.945H158.369a1.944,1.944,0,0,1,1.944,1.945v.962a1.944,1.944,0,0,1-1.944,1.945" transform="translate(0 3.881)" fill="#5d95d8"/>
  </g>
</svg>
