<svg id="Group_2363" data-name="Group 2363" xmlns="http://www.w3.org/2000/svg" xmlns:xlink="http://www.w3.org/1999/xlink" width="84.825" height="144.757" viewBox="0 0 84.825 144.757">
  <defs>
    <clipPath id="clip-path">
      <rect id="Rectangle_1925" data-name="Rectangle 1925" width="84.825" height="144.757" fill="none"/>
    </clipPath>
    <clipPath id="clip-path-3">
      <rect id="Rectangle_1910" data-name="Rectangle 1910" width="21.255" height="16.148" fill="none"/>
    </clipPath>
  </defs>
  <g id="Group_2362" data-name="Group 2362" clip-path="url(#clip-path)">
    <g id="Group_2361" data-name="Group 2361" transform="translate(0 0)">
      <g id="Group_2360" data-name="Group 2360" clip-path="url(#clip-path)">
        <path id="Path_18486" data-name="Path 18486" d="M26.75,46.843a.454.454,0,0,1-.454-.454V27.765a.454.454,0,1,1,.907,0V46.389a.454.454,0,0,1-.454.454" transform="translate(13.197 13.707)" fill="#4ca0ce"/>
        <rect id="Rectangle_1906" data-name="Rectangle 1906" width="3.237" height="6.982" transform="translate(38.328 40.301)" fill="#4ca0ce"/>
        <path id="Path_18487" data-name="Path 18487" d="M28.283,32.455a2.529,2.529,0,0,1-2.289,0,.7.7,0,0,1,0-1.322,2.529,2.529,0,0,1,2.289,0,.7.7,0,0,1,0,1.322" transform="translate(12.808 15.488)" fill="#4ca0ce"/>
        <rect id="Rectangle_1907" data-name="Rectangle 1907" width="5.243" height="10.952" transform="translate(37.326 30.567)" fill="#4ca0ce"/>
        <path id="Path_18488" data-name="Path 18488" d="M25.521,27.707v2.362a4.192,4.192,0,0,0,3.237,0V27.707a4.185,4.185,0,0,0-3.237,0" transform="translate(12.808 13.742)" fill="#3279aa"/>
        <path id="Path_18489" data-name="Path 18489" d="M29.328,29.221a4.1,4.1,0,0,1-3.708,0,1.129,1.129,0,0,1,0-2.14,4.1,4.1,0,0,1,3.708,0,1.129,1.129,0,0,1,0,2.14" transform="translate(12.472 13.369)" fill="#4ca0ce"/>
        <path id="Path_18490" data-name="Path 18490" d="M38.844,53.648a.454.454,0,0,1-.454-.454V34.57a.454.454,0,1,1,.907,0V53.194a.454.454,0,0,1-.454.454" transform="translate(19.267 17.122)" fill="#4ca0ce"/>
        <rect id="Rectangle_1908" data-name="Rectangle 1908" width="3.237" height="6.982" transform="translate(56.491 50.521)" fill="#4ca0ce"/>
        <path id="Path_18491" data-name="Path 18491" d="M40.377,39.26a2.529,2.529,0,0,1-2.289,0,.7.7,0,0,1,0-1.322,2.529,2.529,0,0,1,2.289,0,.7.7,0,0,1,0,1.322" transform="translate(18.878 18.903)" fill="#4ca0ce"/>
        <rect id="Rectangle_1909" data-name="Rectangle 1909" width="5.243" height="10.952" transform="translate(55.489 40.789)" fill="#4ca0ce"/>
        <path id="Path_18492" data-name="Path 18492" d="M37.615,34.512v2.362a4.192,4.192,0,0,0,3.237,0V34.512a4.185,4.185,0,0,0-3.237,0" transform="translate(18.878 17.157)" fill="#3279aa"/>
        <path id="Path_18493" data-name="Path 18493" d="M41.423,36.026a4.1,4.1,0,0,1-3.708,0,1.129,1.129,0,0,1,0-2.14,4.1,4.1,0,0,1,3.708,0,1.129,1.129,0,0,1,0,2.14" transform="translate(18.542 16.784)" fill="#4ca0ce"/>
        <path id="Path_18494" data-name="Path 18494" d="M50.924,43.434l7.03-4.141-6.7-8.356L49.5,33.813Z" transform="translate(24.842 15.526)" fill="#4ca0ce"/>
        <path id="Path_18495" data-name="Path 18495" d="M16.458,10.876l11.22-6.455s-.422,6.441-.422,6.455-6.446,2-6.446,2Z" transform="translate(8.26 2.219)" fill="#4ca0ce"/>
        <path id="Path_18496" data-name="Path 18496" d="M66.675,37.946a7.067,7.067,0,0,0-2.429-.9c-1.131-5.946-5.267-12.26-10.2-15.107a9.96,9.96,0,0,0-4.175-1.413C49.2,13.318,44.188,5.129,38.1,1.616,34.924-.219,32.039-.436,29.912.688V.682l-.1.06c-.054.03-.108.06-.162.093L23.031,4.743l2.2,1.736c-1.973.862-3.221,3.076-3.221,6.348,0,6.033,4.237,13.37,9.462,16.387l35.205,25.14c3.924,2.265,7.105.428,7.105-4.1a15.7,15.7,0,0,0-7.105-12.306" transform="translate(11.045 0.001)" fill="#4ca0ce"/>
        <path id="Path_18497" data-name="Path 18497" d="M22.226,10.169,37.413,1.3C34.465-.242,31.8-.368,29.8.687v0l-.1.059c-.056.03-.11.062-.162.093L22.921,4.742l2.2,1.736a5.311,5.311,0,0,0-2.894,3.692" transform="translate(11.154 0)" fill="#4ca0ce"/>
        <path id="Path_18498" data-name="Path 18498" d="M44.764,29.136l11.081-6.5A21.471,21.471,0,0,0,48.428,14.8c-.383-.221-.761-.415-1.135-.584L33.2,22.46Z" transform="translate(16.662 7.136)" fill="#4ca0ce"/>
        <path id="Path_18499" data-name="Path 18499" d="M24.768,5.372l4.938,2.851L38.749,2.9A17.988,17.988,0,0,0,36.717,1.52,12.7,12.7,0,0,0,33.557.192Z" transform="translate(12.43 0.097)" fill="#c1ecff"/>
        <path id="Path_18500" data-name="Path 18500" d="M50.419,18.548l-8.843,5.211,3.076,3.43,8.027-4.74a25.8,25.8,0,0,0-2.26-3.9" transform="translate(20.865 9.309)" fill="#c1ecff"/>
        <path id="Path_18501" data-name="Path 18501" d="M63.473,40.671a7.066,7.066,0,0,0-2.429-.9c-1.131-5.946-5.267-12.26-10.2-15.107a9.96,9.96,0,0,0-4.175-1.413C46,16.043,40.986,7.854,34.9,4.341,28.357.562,23.052,3.626,23.052,11.182c0,.255.008.515.02.775-4.786-2.22-8.525.281-8.525,5.949,0,6.033,4.235,13.371,9.462,16.387L63.473,57.079c3.924,2.265,7.105.428,7.105-4.1a15.7,15.7,0,0,0-7.105-12.306" transform="translate(7.301 1.367)" fill="#c1ecff"/>
        <path id="Path_18502" data-name="Path 18502" d="M22.348,9.324c-.012-.26-.02-.518-.02-.775l0-.032c-2.645-1.029-4.916-.581-6.342,1.069,1.55-1.275,3.8-1.449,6.36-.263" transform="translate(8.024 3.999)" fill="#fff"/>
        <path id="Path_18503" data-name="Path 18503" d="M60.333,40.3a7.066,7.066,0,0,0-2.429-.9c-1.131-5.946-5.267-12.26-10.2-15.107a9.96,9.96,0,0,0-4.175-1.413c-.673-7.207-5.683-15.4-11.769-18.91-4.078-2.353-7.672-2.052-9.8.338,2.172-1.856,5.5-1.928,9.226.225,6.086,3.513,11.1,11.7,11.77,18.91a9.978,9.978,0,0,1,4.174,1.412c4.934,2.849,9.071,9.163,10.2,15.109a7.06,7.06,0,0,1,2.427.9,15.7,15.7,0,0,1,7.105,12.3,5.856,5.856,0,0,1-1.132,3.78A5.264,5.264,0,0,0,67.438,52.6a15.7,15.7,0,0,0-7.105-12.3" transform="translate(11.019 1.179)" fill="#fff"/>
        <path id="Path_18504" data-name="Path 18504" d="M21.574,13.095,24.54,14.47,24.39,11.2c-.011-.23-.018-.457-.018-.683,0-2.915.88-5.03,2.48-5.953s3.87-.628,6.395.831c5.431,3.136,10.168,10.768,10.785,17.377l.156,1.666,1.667.128a8.011,8.011,0,0,1,3.336,1.153c4.313,2.49,8.2,8.277,9.244,13.76l.261,1.373,1.38.216a5.121,5.121,0,0,1,1.744.658,13.74,13.74,0,0,1,6.113,10.588c0,1.431-.4,2.483-1.089,2.882s-1.8.218-3.041-.5L24.337,31.915c-4.591-2.651-8.469-9.369-8.469-14.67,0-2.08.613-3.665,1.682-4.348a2.883,2.883,0,0,1,1.574-.421,5.945,5.945,0,0,1,2.45.619" transform="translate(7.964 2.028)" fill="#3279aa"/>
        <path id="Path_18505" data-name="Path 18505" d="M32.782,26.972l1.041-.523L32.8,25.673Z" transform="translate(16.452 12.885)" fill="#4ca0ce"/>
        <path id="Path_18506" data-name="Path 18506" d="M30.7,17.345l1.011-.511.018.529Z" transform="translate(15.407 8.449)" fill="#4ca0ce"/>
        <path id="Path_18507" data-name="Path 18507" d="M35.085,25.172l1.054-.53L34.11,22.71Z" transform="translate(17.119 11.398)" fill="#4ca0ce"/>
        <path id="Path_18508" data-name="Path 18508" d="M35.07,29.322l-4.929-2.9a1.05,1.05,0,0,1-.451-.829l.015-5.706L35.54,23.32l-.015,5.706c0,.311-.2.443-.455.3" transform="translate(14.9 9.979)" fill="#4ca0ce"/>
        <path id="Path_18509" data-name="Path 18509" d="M33.177,16.853l-5.324,3.426c-.225.146-.042.686.3.889l5.437,3.2,5.437,3.2c.344.2.529-.123.3-.533l-5.285-9.675c-.228-.418-.638-.659-.868-.511" transform="translate(13.929 8.436)" fill="#4ca0ce"/>
        <path id="Path_18510" data-name="Path 18510" d="M34.366,29.676l-4.929-2.9a1.05,1.05,0,0,1-.451-.829L29,20.238l5.835,3.436-.015,5.706c0,.311-.2.443-.455.3" transform="translate(14.547 10.157)" fill="#c1ecff"/>
        <path id="Path_18511" data-name="Path 18511" d="M32.474,17.207,27.15,20.632c-.225.146-.044.686.3.889l5.437,3.2,5.437,3.2c.344.2.529-.123.3-.533l-5.285-9.675c-.23-.418-.638-.659-.868-.511" transform="translate(13.576 8.614)" fill="#c1ecff"/>
        <path id="Path_18512" data-name="Path 18512" d="M26.6,30.992c0,.321-.225.452-.5.291a1.111,1.111,0,0,1-.5-.873c0-.321.225-.452.5-.291a1.114,1.114,0,0,1,.5.873" transform="translate(12.846 15.081)" fill="#c1ecff"/>
        <path id="Path_18513" data-name="Path 18513" d="M38.727,37.9c0,.321-.225.452-.5.291a1.111,1.111,0,0,1-.5-.873c0-.321.225-.452.5-.291a1.114,1.114,0,0,1,.5.873" transform="translate(18.93 18.546)" fill="#c1ecff"/>
        <path id="Path_18514" data-name="Path 18514" d="M24.626,92.213,1.562,79.063c-.843-.488-.737-1.338.237-1.9L15.068,69.5a3.664,3.664,0,0,1,3.292-.137L41.423,82.516c.844.487.737,1.337-.236,1.9l-13.27,7.661a3.656,3.656,0,0,1-3.291.137" transform="translate(0.498 34.647)" fill="#c1ecff"/>
        <path id="Path_18515" data-name="Path 18515" d="M43.976,95.806h0V41.962l-21.4-5.6-3.944-2.277a3.925,3.925,0,0,0-3.529.147L11.42,36.354,0,36.348,3.384,88.325a1.022,1.022,0,0,0,.607.946l21.36,16.118a3.927,3.927,0,0,0,3.531-.146l14.236-8.22a1.4,1.4,0,0,0,.859-1.218" transform="translate(0.002 16.929)" fill="#3279aa"/>
        <path id="Path_18516" data-name="Path 18516" d="M16.991,33.734a4.091,4.091,0,0,0-1.892.5l-3.678,2.125L0,36.347V90.335a1.022,1.022,0,0,0,.607.946l24.742,14.108a3.192,3.192,0,0,0,1.637.35l.255-54.325Z" transform="translate(0.001 16.93)" fill="#c1ecff"/>
        <path id="Path_18517" data-name="Path 18517" d="M17.032,99.807a4.025,4.025,0,0,0,2.822-.032v-54.7H17.032Z" transform="translate(8.548 22.624)" fill="#4ca0ce"/>
        <path id="Path_18518" data-name="Path 18518" d="M25.353,53.819.611,39.71c-.9-.521-.791-1.434.254-2.038L15.1,29.454a3.928,3.928,0,0,1,3.531-.147L43.372,43.415c.9.523.791,1.434-.254,2.038l-14.235,8.22a3.927,3.927,0,0,1-3.531.146" transform="translate(0 14.532)" fill="#c1ecff"/>
        <path id="Path_18519" data-name="Path 18519" d="M43.119,41.327l-14.236,8.22a3.924,3.924,0,0,1-3.529.146L.611,35.583a1.37,1.37,0,0,1-.452-.4.948.948,0,0,0,.452,1.4L25.353,50.694a3.925,3.925,0,0,0,3.529-.147l14.236-8.218c.813-.47,1.059-1.125.7-1.639a1.967,1.967,0,0,1-.7.637" transform="translate(0 17.658)" fill="#e7f9ff"/>
        <path id="Path_18520" data-name="Path 18520" d="M22.947,46.576,6.475,37.027c-.424-.245-.371-.671.119-.954l6.662-3.846a1.832,1.832,0,0,1,1.651-.068l16.472,9.549c.424.243.371.671-.119.954L24.6,46.507a1.835,1.835,0,0,1-1.652.069" transform="translate(3.106 16.057)" fill="#14497a"/>
        <path id="Path_18521" data-name="Path 18521" d="M11.757,36.048,10.8,35.5c-.059-.033-.051-.093.017-.132l.922-.532a.251.251,0,0,1,.228-.009l.955.551c.059.033.051.092-.017.131l-.922.533a.251.251,0,0,1-.228.009" transform="translate(5.401 17.465)" fill="#c1ecff"/>
        <path id="Path_18522" data-name="Path 18522" d="M13.881,37.269l-.955-.551c-.059-.033-.051-.093.017-.132l.922-.532a.251.251,0,0,1,.228-.009l.955.551c.059.033.051.092-.017.131l-.922.533a.251.251,0,0,1-.228.009" transform="translate(6.467 18.078)" fill="#c1ecff"/>
        <path id="Path_18523" data-name="Path 18523" d="M16,38.49l-.955-.551c-.059-.033-.051-.093.017-.132l.922-.532a.251.251,0,0,1,.228-.009l.955.551c.059.033.051.092-.017.131l-.922.533A.251.251,0,0,1,16,38.49" transform="translate(7.533 18.691)" fill="#c1ecff"/>
        <path id="Path_18524" data-name="Path 18524" d="M18.127,39.71l-.955-.551c-.059-.033-.051-.093.017-.132l.922-.532a.251.251,0,0,1,.228-.009l.955.551c.059.033.051.092-.017.131l-.922.533a.256.256,0,0,1-.228.009" transform="translate(8.598 19.303)" fill="#c1ecff"/>
        <path id="Path_18525" data-name="Path 18525" d="M6.475,37.027l.02.012a.826.826,0,0,1,.1-.069l6.661-3.846a1.835,1.835,0,0,1,1.652-.068l16.453,9.537c.39-.279.412-.659.02-.886L14.906,32.159a1.835,1.835,0,0,0-1.652.068L6.593,36.073c-.49.282-.542.709-.119.954" transform="translate(3.106 16.057)" fill="#4ca0ce"/>
        <path id="Path_18526" data-name="Path 18526" d="M21.4,56.413l9.366-5.362a2.287,2.287,0,0,0,.954-1.823V45.877c0-.7-.427-1.026-.954-.721L21.4,50.519a2.283,2.283,0,0,0-.954,1.823v3.349c0,.7.427,1.026.954.721" transform="translate(10.262 22.605)" fill="#14497a"/>
        <path id="Path_18527" data-name="Path 18527" d="M31.151,45.051a.934.934,0,0,1,.239.7V49.1a2.283,2.283,0,0,1-.954,1.823L21.07,56.283a.694.694,0,0,1-.464.1.569.569,0,0,0,.715.024l9.366-5.362a2.286,2.286,0,0,0,.955-1.823V45.874c0-.478-.2-.773-.491-.823" transform="translate(10.341 22.61)" fill="#fff"/>
        <path id="Path_18528" data-name="Path 18528" d="M23.027,50.856l.859-.5a.5.5,0,0,0,.209-.4v-.918c0-.153-.093-.224-.209-.158l-.859.5a.5.5,0,0,0-.207.4V50.7c0,.153.093.224.207.158" transform="translate(11.453 24.523)" fill="#3279aa"/>
        <path id="Path_18529" data-name="Path 18529" d="M24.94,49.752l.859-.5a.5.5,0,0,0,.209-.4v-.918c0-.153-.093-.224-.209-.158l-.859.5a.5.5,0,0,0-.209.4v.918c0,.153.095.224.209.158" transform="translate(12.412 23.969)" fill="#fff"/>
        <path id="Path_18530" data-name="Path 18530" d="M21.4,72.528l9.366-5.362a2.287,2.287,0,0,0,.954-1.823V61.992c0-.7-.427-1.026-.954-.721L21.4,66.634a2.283,2.283,0,0,0-.954,1.823v3.349c0,.7.427,1.026.954.721" transform="translate(10.262 30.693)" fill="#14497a"/>
        <path id="Path_18531" data-name="Path 18531" d="M31.151,61.166a.934.934,0,0,1,.239.7v3.349a2.283,2.283,0,0,1-.954,1.823L21.07,72.4a.7.7,0,0,1-.464.1.569.569,0,0,0,.715.024l9.366-5.362a2.286,2.286,0,0,0,.955-1.823V61.989c0-.478-.2-.773-.491-.823" transform="translate(10.341 30.697)" fill="#fff"/>
        <path id="Path_18532" data-name="Path 18532" d="M23.027,66.971l.859-.5a.5.5,0,0,0,.209-.4V65.16c0-.153-.093-.224-.209-.158l-.859.5a.5.5,0,0,0-.207.4v.918c0,.153.093.224.207.158" transform="translate(11.453 32.61)" fill="#3279aa"/>
        <path id="Path_18533" data-name="Path 18533" d="M24.94,65.867l.859-.5a.5.5,0,0,0,.209-.4v-.918c0-.153-.093-.224-.209-.158l-.859.5a.5.5,0,0,0-.209.4v.918c0,.153.095.224.209.158" transform="translate(12.412 32.056)" fill="#fff"/>
        <path id="Path_18534" data-name="Path 18534" d="M21.4,80.585l9.366-5.362A2.288,2.288,0,0,0,31.72,73.4V70.049c0-.7-.427-1.026-.954-.721L21.4,74.691a2.283,2.283,0,0,0-.954,1.823v3.349c0,.7.427,1.026.954.721" transform="translate(10.262 34.736)" fill="#14497a"/>
        <path id="Path_18535" data-name="Path 18535" d="M31.151,69.223a.934.934,0,0,1,.239.7v3.349a2.285,2.285,0,0,1-.954,1.823L21.07,80.455a.7.7,0,0,1-.464.1.569.569,0,0,0,.715.024l9.366-5.362a2.286,2.286,0,0,0,.955-1.823V70.046c0-.478-.2-.773-.491-.823" transform="translate(10.341 34.741)" fill="#fff"/>
        <path id="Path_18536" data-name="Path 18536" d="M23.027,75.029l.859-.5a.5.5,0,0,0,.209-.4v-.918c0-.153-.093-.224-.209-.158l-.859.5a.5.5,0,0,0-.207.4v.918c0,.153.093.224.207.158" transform="translate(11.453 36.654)" fill="#3279aa"/>
        <path id="Path_18537" data-name="Path 18537" d="M24.94,73.924l.859-.5a.5.5,0,0,0,.209-.4v-.918c0-.153-.093-.224-.209-.158l-.859.5a.5.5,0,0,0-.209.4v.918c0,.153.095.224.209.158" transform="translate(12.412 36.1)" fill="#fff"/>
        <path id="Path_18538" data-name="Path 18538" d="M21.4,64.47l9.366-5.362a2.287,2.287,0,0,0,.954-1.823V53.934c0-.7-.427-1.026-.954-.721L21.4,58.576a2.283,2.283,0,0,0-.954,1.823v3.349c0,.7.427,1.026.954.721" transform="translate(10.262 26.649)" fill="#14497a"/>
        <path id="Path_18539" data-name="Path 18539" d="M31.151,53.108a.934.934,0,0,1,.239.7v3.349a2.285,2.285,0,0,1-.954,1.823L21.07,64.34a.7.7,0,0,1-.464.1.569.569,0,0,0,.715.024L30.687,59.1a2.286,2.286,0,0,0,.955-1.823V53.931c0-.478-.2-.773-.491-.823" transform="translate(10.341 26.653)" fill="#fff"/>
        <path id="Path_18540" data-name="Path 18540" d="M23.027,58.914l.859-.5a.5.5,0,0,0,.209-.4V57.1c0-.153-.093-.224-.209-.158l-.859.5a.5.5,0,0,0-.207.4v.918c0,.153.093.224.207.158" transform="translate(11.453 28.567)" fill="#3279aa"/>
        <path id="Path_18541" data-name="Path 18541" d="M24.94,57.809l.859-.5a.5.5,0,0,0,.209-.4V56c0-.153-.093-.224-.209-.158l-.859.5a.5.5,0,0,0-.209.4v.918c0,.153.095.224.209.158" transform="translate(12.412 28.012)" fill="#fff"/>
        <path id="Path_18542" data-name="Path 18542" d="M23.194,56.691,1.587,44.217a2.1,2.1,0,0,1-.876-1.673V38.422c0-.644.392-.942.876-.662L23.194,50.236a2.1,2.1,0,0,1,.876,1.673v4.12c0,.646-.392.942-.876.662" transform="translate(0.357 18.898)" fill="#4ca0ce"/>
        <g id="Group_2320" data-name="Group 2320" transform="translate(2.119 58.05)" opacity="0.4">
          <g id="Group_2319" data-name="Group 2319">
            <g id="Group_2318" data-name="Group 2318" clip-path="url(#clip-path-3)">
              <path id="Path_18543" data-name="Path 18543" d="M22.222,54.746,1.856,42.988a1.069,1.069,0,0,1-.445-.85v-3.1c0-.327.2-.478.445-.336l20.367,11.76a1.064,1.064,0,0,1,.445.849v3.1c0,.327-.2.478-.445.336" transform="translate(-1.411 -38.652)" fill="#c1ecff"/>
            </g>
          </g>
        </g>
        <path id="Path_18544" data-name="Path 18544" d="M5.693,43.116l-3.04-1.754a1.038,1.038,0,0,1-.431-.825c0-.318.194-.464.431-.326l3.04,1.754a1.032,1.032,0,0,1,.431.825c0,.317-.192.464-.431.326" transform="translate(1.115 20.155)" fill="#c1ecff"/>
        <path id="Path_18545" data-name="Path 18545" d="M6.59,43.051c0,.318-.222.446-.5.288a1.1,1.1,0,0,1-.5-.864c0-.318.222-.446.5-.288a1.1,1.1,0,0,1,.5.864" transform="translate(2.807 21.139)" fill="#14497a"/>
        <path id="Path_18546" data-name="Path 18546" d="M7.76,43.727c0,.318-.222.446-.5.288a1.1,1.1,0,0,1-.5-.864c0-.318.222-.446.5-.288a1.1,1.1,0,0,1,.5.864" transform="translate(3.395 21.478)" fill="#14497a"/>
        <path id="Path_18547" data-name="Path 18547" d="M8.931,44.4c0,.318-.222.446-.5.287a1.1,1.1,0,0,1-.5-.862c0-.318.222-.446.5-.288a1.1,1.1,0,0,1,.5.864" transform="translate(3.982 21.817)" fill="#c1ecff"/>
        <path id="Path_18548" data-name="Path 18548" d="M10.1,45.078c0,.318-.222.446-.5.288a1.1,1.1,0,0,1-.5-.864c0-.318.222-.446.5-.288a1.1,1.1,0,0,1,.5.864" transform="translate(4.569 22.156)" fill="#14497a"/>
        <path id="Path_18549" data-name="Path 18549" d="M15.132,49.037l-1.024-.592a.659.659,0,0,1-.276-.529V46.834c0-.2.123-.3.276-.209l1.024.59a.663.663,0,0,1,.276.529v1.084c0,.2-.123.3-.276.209" transform="translate(6.941 23.383)" fill="#14497a"/>
        <path id="Path_18550" data-name="Path 18550" d="M23.194,61.529,1.587,49.055a2.1,2.1,0,0,1-.876-1.673V43.26c0-.644.392-.942.876-.662L23.194,55.074a2.1,2.1,0,0,1,.876,1.673v4.12c0,.646-.392.942-.876.662" transform="translate(0.357 21.326)" fill="#4ca0ce"/>
        <g id="Group_2323" data-name="Group 2323" transform="translate(2.119 65.316)" opacity="0.4">
          <g id="Group_2322" data-name="Group 2322">
            <g id="Group_2321" data-name="Group 2321" clip-path="url(#clip-path-3)">
              <path id="Path_18551" data-name="Path 18551" d="M22.222,59.584,1.856,47.825a1.064,1.064,0,0,1-.445-.849v-3.1c0-.327.2-.478.445-.336L22.222,55.3a1.064,1.064,0,0,1,.445.849v3.1c0,.327-.2.478-.445.336" transform="translate(-1.411 -43.49)" fill="#c1ecff"/>
            </g>
          </g>
        </g>
        <path id="Path_18552" data-name="Path 18552" d="M5.693,47.953,2.653,46.2a1.038,1.038,0,0,1-.431-.825c0-.318.194-.464.431-.326L5.693,46.8a1.032,1.032,0,0,1,.431.825c0,.317-.192.464-.431.326" transform="translate(1.115 22.582)" fill="#c1ecff"/>
        <path id="Path_18553" data-name="Path 18553" d="M6.59,47.889c0,.318-.222.446-.5.288a1.1,1.1,0,0,1-.5-.864c0-.318.222-.446.5-.287a1.094,1.094,0,0,1,.5.862" transform="translate(2.807 23.567)" fill="#fff"/>
        <path id="Path_18554" data-name="Path 18554" d="M7.76,48.565c0,.318-.222.446-.5.288a1.1,1.1,0,0,1-.5-.864c0-.318.222-.446.5-.288a1.1,1.1,0,0,1,.5.864" transform="translate(3.395 23.906)" fill="#14497a"/>
        <path id="Path_18555" data-name="Path 18555" d="M8.931,49.24c0,.317-.222.446-.5.287a1.1,1.1,0,0,1-.5-.862c0-.318.222-.446.5-.288a1.1,1.1,0,0,1,.5.864" transform="translate(3.982 24.245)" fill="#c1ecff"/>
        <path id="Path_18556" data-name="Path 18556" d="M10.1,49.916c0,.318-.222.446-.5.288a1.1,1.1,0,0,1-.5-.864c0-.318.222-.446.5-.288a1.1,1.1,0,0,1,.5.864" transform="translate(4.569 24.584)" fill="#14497a"/>
        <path id="Path_18557" data-name="Path 18557" d="M15.132,53.874l-1.024-.592a.659.659,0,0,1-.276-.529V51.671c0-.2.123-.3.276-.209l1.024.59a.663.663,0,0,1,.276.529v1.084c0,.2-.123.3-.276.209" transform="translate(6.941 25.81)" fill="#14497a"/>
        <path id="Path_18558" data-name="Path 18558" d="M23.194,66.366,1.587,53.892a2.1,2.1,0,0,1-.876-1.673V48.1c0-.644.392-.942.876-.662L23.194,59.911a2.1,2.1,0,0,1,.876,1.673V65.7c0,.646-.392.942-.876.662" transform="translate(0.357 23.754)" fill="#4ca0ce"/>
        <g id="Group_2326" data-name="Group 2326" transform="translate(2.119 72.581)" opacity="0.4">
          <g id="Group_2325" data-name="Group 2325">
            <g id="Group_2324" data-name="Group 2324" clip-path="url(#clip-path-3)">
              <path id="Path_18559" data-name="Path 18559" d="M22.222,64.422,1.856,52.664a1.069,1.069,0,0,1-.445-.85v-3.1c0-.327.2-.478.445-.336L22.222,60.14a1.064,1.064,0,0,1,.445.849v3.1c0,.327-.2.478-.445.336" transform="translate(-1.411 -48.327)" fill="#c1ecff"/>
            </g>
          </g>
        </g>
        <path id="Path_18560" data-name="Path 18560" d="M5.693,52.791l-3.04-1.754a1.038,1.038,0,0,1-.431-.825c0-.318.194-.464.431-.326l3.04,1.754a1.032,1.032,0,0,1,.431.825c0,.317-.192.464-.431.326" transform="translate(1.115 25.01)" fill="#c1ecff"/>
        <path id="Path_18561" data-name="Path 18561" d="M6.59,52.727c0,.318-.222.446-.5.288a1.1,1.1,0,0,1-.5-.864c0-.318.222-.446.5-.288a1.1,1.1,0,0,1,.5.864" transform="translate(2.807 25.995)" fill="#fff"/>
        <path id="Path_18562" data-name="Path 18562" d="M7.76,53.4c0,.318-.222.446-.5.288a1.1,1.1,0,0,1-.5-.864c0-.318.222-.446.5-.288a1.1,1.1,0,0,1,.5.864" transform="translate(3.395 26.334)" fill="#14497a"/>
        <path id="Path_18563" data-name="Path 18563" d="M8.931,54.078c0,.318-.222.446-.5.287a1.1,1.1,0,0,1-.5-.862c0-.318.222-.446.5-.288a1.1,1.1,0,0,1,.5.864" transform="translate(3.982 26.673)" fill="#c1ecff"/>
        <path id="Path_18564" data-name="Path 18564" d="M10.1,54.754c0,.318-.222.446-.5.288a1.1,1.1,0,0,1-.5-.864c0-.318.222-.446.5-.288a1.1,1.1,0,0,1,.5.864" transform="translate(4.569 27.012)" fill="#14497a"/>
        <path id="Path_18565" data-name="Path 18565" d="M15.132,58.712l-1.024-.592a.659.659,0,0,1-.276-.529V56.509c0-.2.123-.3.276-.209l1.024.59a.663.663,0,0,1,.276.529V58.5c0,.2-.123.3-.276.209" transform="translate(6.941 28.238)" fill="#14497a"/>
        <path id="Path_18566" data-name="Path 18566" d="M23.194,71.2,1.587,58.73a2.1,2.1,0,0,1-.876-1.673V52.935c0-.644.392-.942.876-.662L23.194,64.749a2.1,2.1,0,0,1,.876,1.673v4.12c0,.646-.392.942-.876.662" transform="translate(0.357 26.182)" fill="#4ca0ce"/>
        <g id="Group_2329" data-name="Group 2329" transform="translate(2.119 79.847)" opacity="0.4">
          <g id="Group_2328" data-name="Group 2328">
            <g id="Group_2327" data-name="Group 2327" clip-path="url(#clip-path-3)">
              <path id="Path_18567" data-name="Path 18567" d="M22.222,69.259,1.856,57.5a1.064,1.064,0,0,1-.445-.849v-3.1c0-.327.2-.478.445-.336l20.367,11.76a1.064,1.064,0,0,1,.445.849v3.1c0,.327-.2.478-.445.336" transform="translate(-1.411 -53.165)" fill="#c1ecff"/>
            </g>
          </g>
        </g>
        <path id="Path_18568" data-name="Path 18568" d="M5.693,57.629l-3.04-1.754a1.038,1.038,0,0,1-.431-.825c0-.318.194-.464.431-.326l3.04,1.754a1.032,1.032,0,0,1,.431.825c0,.317-.192.464-.431.326" transform="translate(1.115 27.438)" fill="#c1ecff"/>
        <path id="Path_18569" data-name="Path 18569" d="M6.59,57.564c0,.318-.222.446-.5.288a1.1,1.1,0,0,1-.5-.864c0-.318.222-.446.5-.287a1.1,1.1,0,0,1,.5.862" transform="translate(2.807 28.423)" fill="#14497a"/>
        <path id="Path_18570" data-name="Path 18570" d="M7.76,58.24c0,.318-.222.446-.5.288a1.1,1.1,0,0,1-.5-.864c0-.318.222-.446.5-.288a1.1,1.1,0,0,1,.5.864" transform="translate(3.395 28.762)" fill="#14497a"/>
        <path id="Path_18571" data-name="Path 18571" d="M8.931,58.916c0,.318-.222.446-.5.287a1.1,1.1,0,0,1-.5-.862c0-.318.222-.446.5-.288a1.1,1.1,0,0,1,.5.864" transform="translate(3.982 29.101)" fill="#c1ecff"/>
        <path id="Path_18572" data-name="Path 18572" d="M10.1,59.591c0,.318-.222.446-.5.288a1.1,1.1,0,0,1-.5-.864c0-.318.222-.446.5-.288a1.1,1.1,0,0,1,.5.864" transform="translate(4.569 29.44)" fill="#14497a"/>
        <path id="Path_18573" data-name="Path 18573" d="M15.132,63.55l-1.024-.592a.659.659,0,0,1-.276-.529V61.347c0-.2.123-.3.276-.209l1.024.59a.663.663,0,0,1,.276.529v1.084c0,.2-.123.3-.276.209" transform="translate(6.941 30.667)" fill="#c1ecff"/>
        <path id="Path_18574" data-name="Path 18574" d="M23.194,76.042,1.587,63.568a2.1,2.1,0,0,1-.876-1.673V57.773c0-.644.392-.942.876-.662L23.194,69.587a2.1,2.1,0,0,1,.876,1.673v4.12c0,.646-.392.942-.876.662" transform="translate(0.357 28.61)" fill="#4ca0ce"/>
        <g id="Group_2332" data-name="Group 2332" transform="translate(2.119 87.112)" opacity="0.4">
          <g id="Group_2331" data-name="Group 2331">
            <g id="Group_2330" data-name="Group 2330" clip-path="url(#clip-path-3)">
              <path id="Path_18575" data-name="Path 18575" d="M22.222,74.1,1.856,62.339a1.069,1.069,0,0,1-.445-.85v-3.1c0-.327.2-.478.445-.336l20.367,11.76a1.064,1.064,0,0,1,.445.849v3.1c0,.327-.2.478-.445.336" transform="translate(-1.411 -58.003)" fill="#c1ecff"/>
            </g>
          </g>
        </g>
        <path id="Path_18576" data-name="Path 18576" d="M5.693,62.466l-3.04-1.754a1.038,1.038,0,0,1-.431-.825c0-.318.194-.464.431-.326l3.04,1.754a1.032,1.032,0,0,1,.431.825c0,.317-.192.464-.431.326" transform="translate(1.115 29.866)" fill="#c1ecff"/>
        <path id="Path_18577" data-name="Path 18577" d="M6.59,62.4c0,.318-.222.446-.5.288a1.1,1.1,0,0,1-.5-.864c0-.318.222-.446.5-.288a1.1,1.1,0,0,1,.5.864" transform="translate(2.807 30.85)" fill="#14497a"/>
        <path id="Path_18578" data-name="Path 18578" d="M7.76,63.078c0,.318-.222.446-.5.288a1.1,1.1,0,0,1-.5-.864c0-.318.222-.446.5-.288a1.1,1.1,0,0,1,.5.864" transform="translate(3.395 31.19)" fill="#fff"/>
        <path id="Path_18579" data-name="Path 18579" d="M8.931,63.753c0,.318-.222.446-.5.287a1.1,1.1,0,0,1-.5-.862c0-.318.222-.446.5-.288a1.1,1.1,0,0,1,.5.864" transform="translate(3.982 31.528)" fill="#c1ecff"/>
        <path id="Path_18580" data-name="Path 18580" d="M10.1,64.429c0,.318-.222.446-.5.288a1.1,1.1,0,0,1-.5-.864c0-.318.222-.446.5-.288a1.1,1.1,0,0,1,.5.864" transform="translate(4.569 31.868)" fill="#fff"/>
        <path id="Path_18581" data-name="Path 18581" d="M15.132,68.387,14.107,67.8a.659.659,0,0,1-.276-.529V66.184c0-.2.123-.3.276-.209l1.024.59a.663.663,0,0,1,.276.529v1.084c0,.2-.123.3-.276.209" transform="translate(6.941 33.094)" fill="#c1ecff"/>
        <path id="Path_18582" data-name="Path 18582" d="M23.194,80.88,1.587,68.406a2.1,2.1,0,0,1-.876-1.673V62.611c0-.644.392-.942.876-.662L23.194,74.425a2.1,2.1,0,0,1,.876,1.673v4.12c0,.646-.392.942-.876.662" transform="translate(0.357 31.038)" fill="#4ca0ce"/>
        <g id="Group_2335" data-name="Group 2335" transform="translate(2.119 94.378)" opacity="0.4">
          <g id="Group_2334" data-name="Group 2334">
            <g id="Group_2333" data-name="Group 2333" clip-path="url(#clip-path-3)">
              <path id="Path_18583" data-name="Path 18583" d="M22.222,78.935,1.856,67.177a1.069,1.069,0,0,1-.445-.85v-3.1c0-.327.2-.478.445-.336l20.367,11.76a1.064,1.064,0,0,1,.445.849v3.1c0,.327-.2.478-.445.336" transform="translate(-1.411 -62.84)" fill="#c1ecff"/>
            </g>
          </g>
        </g>
        <path id="Path_18584" data-name="Path 18584" d="M5.693,67.3,2.653,65.55a1.038,1.038,0,0,1-.431-.825c0-.318.194-.464.431-.326l3.04,1.754a1.032,1.032,0,0,1,.431.825c0,.317-.192.464-.431.326" transform="translate(1.115 32.294)" fill="#c1ecff"/>
        <path id="Path_18585" data-name="Path 18585" d="M6.59,67.24c0,.318-.222.446-.5.288a1.1,1.1,0,0,1-.5-.864c0-.318.222-.446.5-.287a1.1,1.1,0,0,1,.5.862" transform="translate(2.807 33.279)" fill="#14497a"/>
        <path id="Path_18586" data-name="Path 18586" d="M7.76,67.915c0,.318-.222.446-.5.288a1.1,1.1,0,0,1-.5-.864c0-.318.222-.446.5-.288a1.1,1.1,0,0,1,.5.864" transform="translate(3.395 33.617)" fill="#14497a"/>
        <path id="Path_18587" data-name="Path 18587" d="M8.931,68.591c0,.318-.222.446-.5.287a1.1,1.1,0,0,1-.5-.862c0-.318.222-.446.5-.288a1.1,1.1,0,0,1,.5.864" transform="translate(3.982 33.956)" fill="#c1ecff"/>
        <path id="Path_18588" data-name="Path 18588" d="M10.1,69.267c0,.318-.222.446-.5.288a1.1,1.1,0,0,1-.5-.864c0-.318.222-.446.5-.288a1.1,1.1,0,0,1,.5.864" transform="translate(4.569 34.296)" fill="#14497a"/>
        <path id="Path_18589" data-name="Path 18589" d="M15.132,73.225l-1.024-.592a.659.659,0,0,1-.276-.529V71.022c0-.2.123-.3.276-.209l1.024.59a.663.663,0,0,1,.276.529v1.084c0,.2-.123.3-.276.209" transform="translate(6.941 35.522)" fill="#14497a"/>
        <path id="Path_18590" data-name="Path 18590" d="M23.194,85.717,1.587,73.243A2.1,2.1,0,0,1,.711,71.57V67.448c0-.644.392-.942.876-.662L23.194,79.262a2.1,2.1,0,0,1,.876,1.673v4.12c0,.646-.392.942-.876.662" transform="translate(0.357 33.465)" fill="#4ca0ce"/>
        <g id="Group_2338" data-name="Group 2338" transform="translate(2.119 101.643)" opacity="0.4">
          <g id="Group_2337" data-name="Group 2337">
            <g id="Group_2336" data-name="Group 2336" clip-path="url(#clip-path-3)">
              <path id="Path_18591" data-name="Path 18591" d="M22.222,83.772,1.856,72.014a1.069,1.069,0,0,1-.445-.85v-3.1c0-.327.2-.478.445-.336L22.222,79.49a1.064,1.064,0,0,1,.445.849v3.1c0,.327-.2.478-.445.336" transform="translate(-1.411 -67.678)" fill="#c1ecff"/>
            </g>
          </g>
        </g>
        <path id="Path_18592" data-name="Path 18592" d="M5.693,72.142l-3.04-1.754a1.038,1.038,0,0,1-.431-.825c0-.318.194-.464.431-.326l3.04,1.754a1.032,1.032,0,0,1,.431.825c0,.317-.192.464-.431.326" transform="translate(1.115 34.722)" fill="#c1ecff"/>
        <path id="Path_18593" data-name="Path 18593" d="M14.46,76.819c0,.6-.422.843-.942.544a2.08,2.08,0,0,1-.94-1.63c0-.6.421-.844.94-.544a2.08,2.08,0,0,1,.942,1.63" transform="translate(6.312 37.67)" fill="#fff"/>
        <path id="Path_18594" data-name="Path 18594" d="M6.59,72.138c0,.318-.222.446-.5.287a1.1,1.1,0,0,1-.5-.862c0-.318.222-.446.5-.288a1.1,1.1,0,0,1,.5.864" transform="translate(2.807 35.737)" fill="#14497a"/>
        <path id="Path_18595" data-name="Path 18595" d="M7.76,72.814c0,.318-.222.446-.5.288a1.1,1.1,0,0,1-.5-.864c0-.318.222-.446.5-.287a1.1,1.1,0,0,1,.5.862" transform="translate(3.395 36.076)" fill="#c1ecff"/>
        <path id="Path_18596" data-name="Path 18596" d="M8.931,73.489c0,.318-.222.446-.5.288a1.1,1.1,0,0,1-.5-.864c0-.318.222-.446.5-.288a1.1,1.1,0,0,1,.5.864" transform="translate(3.982 36.415)" fill="#14497a"/>
        <path id="Path_18597" data-name="Path 18597" d="M45.035,103.911,21.971,90.761c-.843-.488-.737-1.338.237-1.9L35.479,81.2a3.66,3.66,0,0,1,3.291-.137L61.832,94.214c.844.487.737,1.337-.236,1.9l-13.27,7.661a3.656,3.656,0,0,1-3.291.137" transform="translate(10.741 40.517)" fill="#c1ecff"/>
        <path id="Path_18598" data-name="Path 18598" d="M64.386,107.5h0V53.66l-21.4-5.6-3.944-2.277a3.925,3.925,0,0,0-3.529.147L31.83,48.052l-11.417-.006,3.381,51.976a1.022,1.022,0,0,0,.607.946l21.36,16.118a3.927,3.927,0,0,0,3.531-.146l14.236-8.22a1.4,1.4,0,0,0,.859-1.218" transform="translate(10.245 22.8)" fill="#3279aa"/>
        <path id="Path_18599" data-name="Path 18599" d="M37.4,45.432a4.087,4.087,0,0,0-1.892.5l-3.678,2.125-11.417-.008v53.987a1.022,1.022,0,0,0,.607.946l24.742,14.109a3.192,3.192,0,0,0,1.637.35l.255-54.325Z" transform="translate(10.244 22.801)" fill="#c1ecff"/>
        <path id="Path_18600" data-name="Path 18600" d="M37.442,111.5a4.021,4.021,0,0,0,2.82-.032v-54.7h-2.82Z" transform="translate(18.791 28.494)" fill="#4ca0ce"/>
        <path id="Path_18601" data-name="Path 18601" d="M45.762,65.517,21.02,51.408c-.9-.521-.791-1.434.254-2.038L35.51,41.152A3.924,3.924,0,0,1,39.039,41L63.781,55.113c.9.523.791,1.434-.254,2.038l-14.235,8.22a3.927,3.927,0,0,1-3.531.146" transform="translate(10.243 20.402)" fill="#c1ecff"/>
        <path id="Path_18602" data-name="Path 18602" d="M63.528,53.024l-14.236,8.22a3.924,3.924,0,0,1-3.529.146L21.02,47.28a1.37,1.37,0,0,1-.452-.4.948.948,0,0,0,.452,1.4L45.762,62.389a3.919,3.919,0,0,0,3.529-.146l14.236-8.218c.813-.47,1.059-1.125.7-1.639a1.968,1.968,0,0,1-.7.637" transform="translate(10.243 23.528)" fill="#e7f9ff"/>
        <path id="Path_18603" data-name="Path 18603" d="M43.356,58.274,26.884,48.725c-.424-.245-.371-.671.119-.954l6.662-3.846a1.835,1.835,0,0,1,1.652-.068L51.788,53.4c.424.245.371.673-.119.955L45.008,58.2a1.835,1.835,0,0,1-1.652.069" transform="translate(13.348 21.928)" fill="#14497a"/>
        <path id="Path_18604" data-name="Path 18604" d="M32.167,47.745l-.955-.551c-.059-.033-.051-.093.017-.132l.922-.532a.251.251,0,0,1,.228-.009l.955.551c.059.033.051.092-.017.131l-.922.533a.251.251,0,0,1-.228.009" transform="translate(15.644 23.336)" fill="#c1ecff"/>
        <path id="Path_18605" data-name="Path 18605" d="M34.29,48.966l-.955-.551c-.059-.033-.051-.093.017-.132l.922-.532a.251.251,0,0,1,.228-.009l.955.551c.059.033.051.092-.017.131l-.922.533a.251.251,0,0,1-.228.009" transform="translate(16.71 23.948)" fill="#c1ecff"/>
        <path id="Path_18606" data-name="Path 18606" d="M36.415,50.187l-.957-.551c-.059-.033-.051-.093.018-.132l.921-.532a.251.251,0,0,1,.228-.009l.955.551c.059.033.051.092-.017.131l-.922.533a.253.253,0,0,1-.227.009" transform="translate(17.775 24.561)" fill="#c1ecff"/>
        <path id="Path_18607" data-name="Path 18607" d="M38.537,51.408l-.955-.551c-.059-.033-.051-.093.017-.132l.922-.532a.251.251,0,0,1,.228-.009l.955.551c.059.033.051.092-.017.131l-.922.533a.251.251,0,0,1-.228.009" transform="translate(18.841 25.174)" fill="#c1ecff"/>
        <path id="Path_18608" data-name="Path 18608" d="M26.884,48.725l.02.012a.826.826,0,0,1,.1-.069l6.662-3.846a1.832,1.832,0,0,1,1.651-.068l16.453,9.537c.39-.279.412-.659.02-.886L35.315,43.857a1.832,1.832,0,0,0-1.651.068L27,47.771c-.49.282-.542.709-.119.954" transform="translate(13.348 21.928)" fill="#4ca0ce"/>
        <path id="Path_18609" data-name="Path 18609" d="M41.811,68.111l9.366-5.362a2.29,2.29,0,0,0,.952-1.823V57.575c0-.7-.427-1.026-.952-.721l-9.366,5.363a2.28,2.28,0,0,0-.955,1.823V67.39c0,.7.427,1.026.955.721" transform="translate(20.504 28.476)" fill="#14497a"/>
        <path id="Path_18610" data-name="Path 18610" d="M51.56,56.748a.934.934,0,0,1,.24.7v3.349a2.286,2.286,0,0,1-.955,1.823L41.479,67.98a.7.7,0,0,1-.464.1.569.569,0,0,0,.715.024L51.1,62.743a2.286,2.286,0,0,0,.955-1.823V57.571c0-.478-.2-.773-.491-.823" transform="translate(20.584 28.48)" fill="#fff"/>
        <path id="Path_18611" data-name="Path 18611" d="M43.437,62.554l.859-.5a.5.5,0,0,0,.209-.4v-.918c0-.153-.093-.224-.209-.158l-.859.5a.5.5,0,0,0-.209.4V62.4c0,.153.095.224.209.158" transform="translate(21.695 30.393)" fill="#3279aa"/>
        <path id="Path_18612" data-name="Path 18612" d="M45.349,61.45l.859-.5a.5.5,0,0,0,.209-.4v-.918c0-.153-.093-.224-.209-.158l-.859.5a.5.5,0,0,0-.207.4v.918c0,.153.093.224.207.158" transform="translate(22.655 29.839)" fill="#fff"/>
        <path id="Path_18613" data-name="Path 18613" d="M41.811,84.225l9.366-5.362a2.291,2.291,0,0,0,.952-1.825V73.689c0-.7-.427-1.026-.952-.721l-9.366,5.363a2.28,2.28,0,0,0-.955,1.823V83.5c0,.7.427,1.026.955.721" transform="translate(20.504 36.563)" fill="#14497a"/>
        <path id="Path_18614" data-name="Path 18614" d="M51.56,72.863a.934.934,0,0,1,.24.7v3.349a2.286,2.286,0,0,1-.955,1.823L41.479,84.1a.694.694,0,0,1-.464.1.569.569,0,0,0,.715.024L51.1,78.858a2.286,2.286,0,0,0,.955-1.823V73.686c0-.478-.2-.773-.491-.823" transform="translate(20.584 36.568)" fill="#fff"/>
        <path id="Path_18615" data-name="Path 18615" d="M43.437,78.669l.859-.5a.5.5,0,0,0,.209-.4v-.918c0-.153-.093-.224-.209-.158l-.859.5a.5.5,0,0,0-.209.4v.918c0,.153.095.224.209.158" transform="translate(21.695 38.481)" fill="#3279aa"/>
        <path id="Path_18616" data-name="Path 18616" d="M45.349,77.565l.859-.5a.5.5,0,0,0,.209-.4v-.918c0-.153-.093-.224-.209-.158l-.859.5a.5.5,0,0,0-.207.4v.918c0,.153.093.224.207.158" transform="translate(22.655 37.927)" fill="#fff"/>
        <path id="Path_18617" data-name="Path 18617" d="M41.811,92.283l9.366-5.362a2.291,2.291,0,0,0,.952-1.825V81.747c0-.7-.427-1.026-.952-.721l-9.366,5.363a2.28,2.28,0,0,0-.955,1.823v3.349c0,.7.427,1.026.955.721" transform="translate(20.504 40.607)" fill="#14497a"/>
        <path id="Path_18618" data-name="Path 18618" d="M51.56,80.921a.934.934,0,0,1,.24.7v3.349a2.286,2.286,0,0,1-.955,1.823l-9.366,5.363a.7.7,0,0,1-.464.1.569.569,0,0,0,.715.024L51.1,86.916a2.286,2.286,0,0,0,.955-1.823V81.744c0-.478-.2-.773-.491-.823" transform="translate(20.584 40.612)" fill="#fff"/>
        <path id="Path_18619" data-name="Path 18619" d="M43.437,86.726l.859-.5a.5.5,0,0,0,.209-.4v-.918c0-.153-.093-.224-.209-.158l-.859.5a.5.5,0,0,0-.209.4v.918c0,.153.095.224.209.158" transform="translate(21.695 42.524)" fill="#3279aa"/>
        <path id="Path_18620" data-name="Path 18620" d="M45.349,85.622l.859-.5a.5.5,0,0,0,.209-.4v-.918c0-.153-.093-.224-.209-.158l-.859.5a.5.5,0,0,0-.207.4v.918c0,.153.093.224.207.158" transform="translate(22.655 41.97)" fill="#fff"/>
        <path id="Path_18621" data-name="Path 18621" d="M41.811,76.168l9.366-5.362a2.29,2.29,0,0,0,.952-1.823V65.632c0-.7-.427-1.026-.952-.721l-9.366,5.363a2.28,2.28,0,0,0-.955,1.823v3.349c0,.7.427,1.026.955.721" transform="translate(20.504 32.519)" fill="#14497a"/>
        <path id="Path_18622" data-name="Path 18622" d="M51.56,64.806a.934.934,0,0,1,.24.7v3.349a2.284,2.284,0,0,1-.955,1.823l-9.366,5.363a.7.7,0,0,1-.464.1.569.569,0,0,0,.715.024L51.1,70.8a2.286,2.286,0,0,0,.955-1.823V65.629c0-.478-.2-.773-.491-.823" transform="translate(20.584 32.524)" fill="#fff"/>
        <path id="Path_18623" data-name="Path 18623" d="M43.437,70.612l.859-.5a.5.5,0,0,0,.209-.4V68.8c0-.153-.093-.224-.209-.158l-.859.5a.5.5,0,0,0-.209.4v.918c0,.153.095.224.209.158" transform="translate(21.695 34.437)" fill="#3279aa"/>
        <path id="Path_18624" data-name="Path 18624" d="M45.349,69.507l.859-.5a.5.5,0,0,0,.209-.4V67.7c0-.153-.093-.224-.209-.158l-.859.5a.5.5,0,0,0-.207.4v.918c0,.153.093.224.207.158" transform="translate(22.655 33.883)" fill="#fff"/>
        <path id="Path_18625" data-name="Path 18625" d="M43.6,68.389,22,55.915a2.1,2.1,0,0,1-.876-1.673V50.12c0-.644.392-.942.876-.662L43.6,61.934a2.1,2.1,0,0,1,.876,1.673v4.12c0,.646-.392.942-.876.662" transform="translate(10.599 24.769)" fill="#4ca0ce"/>
        <g id="Group_2341" data-name="Group 2341" transform="translate(32.771 75.619)" opacity="0.4">
          <g id="Group_2340" data-name="Group 2340">
            <g id="Group_2339" data-name="Group 2339" clip-path="url(#clip-path-3)">
              <path id="Path_18626" data-name="Path 18626" d="M42.631,66.444,22.265,54.685a1.064,1.064,0,0,1-.445-.849v-3.1c0-.327.2-.478.445-.336l20.367,11.76a1.064,1.064,0,0,1,.445.849v3.1c0,.327-.2.478-.445.336" transform="translate(-21.82 -50.35)" fill="#c1ecff"/>
            </g>
          </g>
        </g>
        <path id="Path_18627" data-name="Path 18627" d="M26.1,54.813l-3.04-1.754a1.038,1.038,0,0,1-.431-.825c0-.318.194-.464.431-.326l3.04,1.754a1.032,1.032,0,0,1,.431.825c0,.317-.192.464-.431.326" transform="translate(11.358 26.025)" fill="#c1ecff"/>
        <path id="Path_18628" data-name="Path 18628" d="M27,54.749c0,.318-.224.446-.5.288a1.1,1.1,0,0,1-.5-.864c0-.318.222-.446.5-.288a1.1,1.1,0,0,1,.5.864" transform="translate(13.05 27.01)" fill="#14497a"/>
        <path id="Path_18629" data-name="Path 18629" d="M28.17,55.425c0,.318-.224.446-.5.287a1.1,1.1,0,0,1-.5-.862c0-.318.222-.446.5-.288a1.1,1.1,0,0,1,.5.864" transform="translate(13.638 27.349)" fill="#14497a"/>
        <path id="Path_18630" data-name="Path 18630" d="M29.34,56.1c0,.318-.224.446-.5.287a1.1,1.1,0,0,1-.5-.862c0-.318.222-.446.5-.288a1.1,1.1,0,0,1,.5.864" transform="translate(14.225 27.688)" fill="#c1ecff"/>
        <path id="Path_18631" data-name="Path 18631" d="M30.51,56.776c0,.318-.224.446-.5.288a1.1,1.1,0,0,1-.5-.864c0-.318.222-.446.5-.288a1.1,1.1,0,0,1,.5.864" transform="translate(14.812 28.027)" fill="#14497a"/>
        <path id="Path_18632" data-name="Path 18632" d="M35.542,60.734l-1.024-.592a.659.659,0,0,1-.276-.529V58.531c0-.2.123-.3.276-.209l1.024.59a.663.663,0,0,1,.276.529v1.084c0,.2-.123.3-.276.209" transform="translate(17.184 29.253)" fill="#14497a"/>
        <path id="Path_18633" data-name="Path 18633" d="M43.6,73.226,22,60.752a2.1,2.1,0,0,1-.876-1.673V54.957c0-.644.392-.942.876-.662L43.6,66.771a2.1,2.1,0,0,1,.876,1.673v4.12c0,.646-.392.942-.876.662" transform="translate(10.599 27.196)" fill="#4ca0ce"/>
        <g id="Group_2344" data-name="Group 2344" transform="translate(32.771 82.884)" opacity="0.4">
          <g id="Group_2343" data-name="Group 2343">
            <g id="Group_2342" data-name="Group 2342" clip-path="url(#clip-path-3)">
              <path id="Path_18634" data-name="Path 18634" d="M42.631,71.282,22.265,59.524a1.069,1.069,0,0,1-.445-.85v-3.1c0-.327.2-.478.445-.336L42.631,67a1.064,1.064,0,0,1,.445.849v3.1c0,.327-.2.478-.445.336" transform="translate(-21.82 -55.187)" fill="#c1ecff"/>
            </g>
          </g>
        </g>
        <path id="Path_18635" data-name="Path 18635" d="M26.1,59.651,23.062,57.9a1.038,1.038,0,0,1-.431-.825c0-.318.194-.464.431-.326L26.1,58.5a1.032,1.032,0,0,1,.431.825c0,.317-.192.464-.431.326" transform="translate(11.358 28.453)" fill="#c1ecff"/>
        <path id="Path_18636" data-name="Path 18636" d="M27,59.587c0,.318-.224.446-.5.288a1.1,1.1,0,0,1-.5-.864c0-.318.222-.446.5-.288a1.1,1.1,0,0,1,.5.864" transform="translate(13.05 29.438)" fill="#fff"/>
        <path id="Path_18637" data-name="Path 18637" d="M28.17,60.262c0,.318-.224.446-.5.287a1.1,1.1,0,0,1-.5-.862c0-.318.222-.446.5-.287a1.1,1.1,0,0,1,.5.862" transform="translate(13.638 29.777)" fill="#14497a"/>
        <path id="Path_18638" data-name="Path 18638" d="M29.34,60.938c0,.318-.224.446-.5.287a1.1,1.1,0,0,1-.5-.862c0-.318.222-.446.5-.288a1.1,1.1,0,0,1,.5.864" transform="translate(14.225 30.116)" fill="#c1ecff"/>
        <path id="Path_18639" data-name="Path 18639" d="M30.51,61.614c0,.318-.224.446-.5.288a1.1,1.1,0,0,1-.5-.864c0-.318.222-.446.5-.287a1.1,1.1,0,0,1,.5.862" transform="translate(14.812 30.455)" fill="#14497a"/>
        <path id="Path_18640" data-name="Path 18640" d="M35.542,65.572l-1.024-.592a.659.659,0,0,1-.276-.529V63.369c0-.2.123-.3.276-.209l1.024.59a.663.663,0,0,1,.276.529v1.084c0,.2-.123.3-.276.209" transform="translate(17.184 31.681)" fill="#14497a"/>
        <path id="Path_18641" data-name="Path 18641" d="M43.6,78.064,22,65.59a2.1,2.1,0,0,1-.876-1.673V59.8c0-.644.392-.942.876-.662L43.6,71.609a2.1,2.1,0,0,1,.876,1.673V77.4c0,.646-.392.942-.876.662" transform="translate(10.599 29.624)" fill="#4ca0ce"/>
        <g id="Group_2347" data-name="Group 2347" transform="translate(32.771 90.15)" opacity="0.4">
          <g id="Group_2346" data-name="Group 2346">
            <g id="Group_2345" data-name="Group 2345" clip-path="url(#clip-path-3)">
              <path id="Path_18642" data-name="Path 18642" d="M42.631,76.119,22.265,64.36a1.064,1.064,0,0,1-.445-.849v-3.1c0-.327.2-.478.445-.336l20.367,11.76a1.064,1.064,0,0,1,.445.849v3.1c0,.327-.2.478-.445.336" transform="translate(-21.82 -60.025)" fill="#c1ecff"/>
            </g>
          </g>
        </g>
        <path id="Path_18643" data-name="Path 18643" d="M26.1,64.489l-3.04-1.754a1.038,1.038,0,0,1-.431-.825c0-.318.194-.464.431-.326l3.04,1.754a1.032,1.032,0,0,1,.431.825c0,.317-.192.464-.431.326" transform="translate(11.358 30.881)" fill="#c1ecff"/>
        <path id="Path_18644" data-name="Path 18644" d="M27,64.424c0,.318-.224.446-.5.288a1.1,1.1,0,0,1-.5-.864c0-.318.222-.446.5-.288a1.1,1.1,0,0,1,.5.864" transform="translate(13.05 31.865)" fill="#fff"/>
        <path id="Path_18645" data-name="Path 18645" d="M28.17,65.1c0,.318-.224.446-.5.288a1.1,1.1,0,0,1-.5-.864c0-.318.222-.446.5-.288a1.1,1.1,0,0,1,.5.864" transform="translate(13.638 32.204)" fill="#14497a"/>
        <path id="Path_18646" data-name="Path 18646" d="M29.34,65.776c0,.318-.224.446-.5.287a1.1,1.1,0,0,1-.5-.862c0-.318.222-.446.5-.288a1.1,1.1,0,0,1,.5.864" transform="translate(14.225 32.544)" fill="#c1ecff"/>
        <path id="Path_18647" data-name="Path 18647" d="M30.51,66.451c0,.318-.224.446-.5.288a1.1,1.1,0,0,1-.5-.864c0-.318.222-.446.5-.288a1.1,1.1,0,0,1,.5.864" transform="translate(14.812 32.882)" fill="#14497a"/>
        <path id="Path_18648" data-name="Path 18648" d="M35.542,70.41l-1.024-.592a.659.659,0,0,1-.276-.529V68.207c0-.2.123-.3.276-.209l1.024.59a.663.663,0,0,1,.276.529V70.2c0,.2-.123.3-.276.209" transform="translate(17.184 34.109)" fill="#14497a"/>
        <path id="Path_18649" data-name="Path 18649" d="M43.6,82.9,22,70.428a2.1,2.1,0,0,1-.876-1.673V64.633c0-.644.392-.942.876-.662L43.6,76.447a2.1,2.1,0,0,1,.876,1.673v4.12c0,.646-.392.942-.876.662" transform="translate(10.599 32.052)" fill="#4ca0ce"/>
        <g id="Group_2350" data-name="Group 2350" transform="translate(32.771 97.415)" opacity="0.4">
          <g id="Group_2349" data-name="Group 2349">
            <g id="Group_2348" data-name="Group 2348" clip-path="url(#clip-path-3)">
              <path id="Path_18650" data-name="Path 18650" d="M42.631,80.957,22.265,69.2a1.069,1.069,0,0,1-.445-.85v-3.1c0-.327.2-.478.445-.336l20.367,11.76a1.064,1.064,0,0,1,.445.849v3.1c0,.327-.2.478-.445.336" transform="translate(-21.82 -64.863)" fill="#c1ecff"/>
            </g>
          </g>
        </g>
        <path id="Path_18651" data-name="Path 18651" d="M26.1,69.326l-3.04-1.754a1.038,1.038,0,0,1-.431-.825c0-.318.194-.464.431-.326l3.04,1.754a1.032,1.032,0,0,1,.431.825c0,.317-.192.464-.431.326" transform="translate(11.358 33.309)" fill="#c1ecff"/>
        <path id="Path_18652" data-name="Path 18652" d="M27,69.262c0,.318-.224.446-.5.288a1.1,1.1,0,0,1-.5-.864c0-.318.222-.446.5-.288a1.1,1.1,0,0,1,.5.864" transform="translate(13.05 34.293)" fill="#14497a"/>
        <path id="Path_18653" data-name="Path 18653" d="M28.17,69.938c0,.318-.224.446-.5.288a1.1,1.1,0,0,1-.5-.864c0-.318.222-.446.5-.287a1.1,1.1,0,0,1,.5.862" transform="translate(13.638 34.633)" fill="#14497a"/>
        <path id="Path_18654" data-name="Path 18654" d="M29.34,70.613c0,.318-.224.446-.5.287a1.1,1.1,0,0,1-.5-.862c0-.318.222-.446.5-.288a1.1,1.1,0,0,1,.5.864" transform="translate(14.225 34.971)" fill="#c1ecff"/>
        <path id="Path_18655" data-name="Path 18655" d="M30.51,71.289c0,.318-.224.446-.5.288a1.1,1.1,0,0,1-.5-.864c0-.318.222-.446.5-.287a1.1,1.1,0,0,1,.5.862" transform="translate(14.812 35.311)" fill="#14497a"/>
        <path id="Path_18656" data-name="Path 18656" d="M35.542,75.247l-1.024-.592a.659.659,0,0,1-.276-.529V73.044c0-.2.123-.3.276-.209l1.024.59a.663.663,0,0,1,.276.529v1.084c0,.2-.123.3-.276.209" transform="translate(17.184 36.537)" fill="#c1ecff"/>
        <path id="Path_18657" data-name="Path 18657" d="M43.6,87.74,22,75.266a2.1,2.1,0,0,1-.876-1.673V69.471c0-.644.392-.942.876-.662L43.6,81.285a2.1,2.1,0,0,1,.876,1.673v4.12c0,.646-.392.942-.876.662" transform="translate(10.599 34.48)" fill="#4ca0ce"/>
        <g id="Group_2353" data-name="Group 2353" transform="translate(32.771 104.681)" opacity="0.4">
          <g id="Group_2352" data-name="Group 2352">
            <g id="Group_2351" data-name="Group 2351" clip-path="url(#clip-path-3)">
              <path id="Path_18658" data-name="Path 18658" d="M42.631,85.8,22.265,74.037a1.069,1.069,0,0,1-.445-.85v-3.1c0-.327.2-.478.445-.336l20.367,11.76a1.064,1.064,0,0,1,.445.849v3.1c0,.327-.2.478-.445.336" transform="translate(-21.82 -69.7)" fill="#c1ecff"/>
            </g>
          </g>
        </g>
        <path id="Path_18659" data-name="Path 18659" d="M26.1,74.164l-3.04-1.754a1.038,1.038,0,0,1-.431-.825c0-.318.194-.464.431-.326l3.04,1.754a1.032,1.032,0,0,1,.431.825c0,.317-.192.464-.431.326" transform="translate(11.358 35.737)" fill="#c1ecff"/>
        <path id="Path_18660" data-name="Path 18660" d="M27,74.1c0,.318-.224.446-.5.288a1.1,1.1,0,0,1-.5-.864c0-.318.222-.446.5-.288a1.1,1.1,0,0,1,.5.864" transform="translate(13.05 36.721)" fill="#14497a"/>
        <path id="Path_18661" data-name="Path 18661" d="M28.17,74.775c0,.318-.224.446-.5.288a1.1,1.1,0,0,1-.5-.864c0-.318.222-.446.5-.288a1.1,1.1,0,0,1,.5.864" transform="translate(13.638 37.06)" fill="#fff"/>
        <path id="Path_18662" data-name="Path 18662" d="M29.34,75.451c0,.318-.224.446-.5.287a1.1,1.1,0,0,1-.5-.862c0-.318.222-.446.5-.288a1.1,1.1,0,0,1,.5.864" transform="translate(14.225 37.399)" fill="#c1ecff"/>
        <path id="Path_18663" data-name="Path 18663" d="M30.51,76.127c0,.318-.224.446-.5.288a1.1,1.1,0,0,1-.5-.864c0-.318.222-.446.5-.288a1.1,1.1,0,0,1,.5.864" transform="translate(14.812 37.738)" fill="#fff"/>
        <path id="Path_18664" data-name="Path 18664" d="M35.542,80.085l-1.024-.592a.659.659,0,0,1-.276-.529V77.882c0-.2.123-.3.276-.209l1.024.59a.663.663,0,0,1,.276.529v1.084c0,.2-.123.3-.276.209" transform="translate(17.184 38.965)" fill="#c1ecff"/>
        <path id="Path_18665" data-name="Path 18665" d="M43.6,92.577,22,80.1a2.1,2.1,0,0,1-.876-1.673V74.308c0-.644.392-.942.876-.662L43.6,86.122a2.1,2.1,0,0,1,.876,1.673v4.12c0,.646-.392.942-.876.662" transform="translate(10.599 36.908)" fill="#4ca0ce"/>
        <g id="Group_2356" data-name="Group 2356" transform="translate(32.771 111.946)" opacity="0.4">
          <g id="Group_2355" data-name="Group 2355">
            <g id="Group_2354" data-name="Group 2354" clip-path="url(#clip-path-3)">
              <path id="Path_18666" data-name="Path 18666" d="M42.631,90.632,22.265,78.874a1.069,1.069,0,0,1-.445-.85v-3.1c0-.327.2-.478.445-.336L42.631,86.35a1.064,1.064,0,0,1,.445.849v3.1c0,.327-.2.478-.445.336" transform="translate(-21.82 -74.538)" fill="#c1ecff"/>
            </g>
          </g>
        </g>
        <path id="Path_18667" data-name="Path 18667" d="M26.1,79l-3.04-1.754a1.038,1.038,0,0,1-.431-.825c0-.318.194-.464.431-.326l3.04,1.754a1.032,1.032,0,0,1,.431.825c0,.317-.192.464-.431.326" transform="translate(11.358 38.165)" fill="#c1ecff"/>
        <path id="Path_18668" data-name="Path 18668" d="M27,78.938c0,.318-.224.446-.5.288a1.1,1.1,0,0,1-.5-.864c0-.318.222-.446.5-.288a1.1,1.1,0,0,1,.5.864" transform="translate(13.05 39.149)" fill="#14497a"/>
        <path id="Path_18669" data-name="Path 18669" d="M28.17,79.613c0,.318-.224.446-.5.288a1.1,1.1,0,0,1-.5-.864c0-.318.222-.446.5-.287a1.1,1.1,0,0,1,.5.862" transform="translate(13.638 39.488)" fill="#14497a"/>
        <path id="Path_18670" data-name="Path 18670" d="M29.34,80.289c0,.318-.224.446-.5.287a1.1,1.1,0,0,1-.5-.862c0-.318.222-.446.5-.288a1.1,1.1,0,0,1,.5.864" transform="translate(14.225 39.827)" fill="#c1ecff"/>
        <path id="Path_18671" data-name="Path 18671" d="M30.51,80.964c0,.318-.224.446-.5.288a1.1,1.1,0,0,1-.5-.864c0-.318.222-.446.5-.287a1.1,1.1,0,0,1,.5.862" transform="translate(14.812 40.166)" fill="#14497a"/>
        <path id="Path_18672" data-name="Path 18672" d="M35.542,84.923l-1.024-.592a.659.659,0,0,1-.276-.529V82.72c0-.2.123-.3.276-.209l1.024.59a.663.663,0,0,1,.276.529v1.084c0,.2-.123.3-.276.209" transform="translate(17.184 41.393)" fill="#14497a"/>
        <path id="Path_18673" data-name="Path 18673" d="M43.6,97.415,22,84.941a2.1,2.1,0,0,1-.876-1.673V79.146c0-.644.392-.942.876-.662L43.6,90.96a2.1,2.1,0,0,1,.876,1.673v4.12c0,.646-.392.942-.876.662" transform="translate(10.599 39.336)" fill="#4ca0ce"/>
        <g id="Group_2359" data-name="Group 2359" transform="translate(32.771 119.212)" opacity="0.4">
          <g id="Group_2358" data-name="Group 2358">
            <g id="Group_2357" data-name="Group 2357" clip-path="url(#clip-path-3)">
              <path id="Path_18674" data-name="Path 18674" d="M42.631,95.47,22.265,83.712a1.069,1.069,0,0,1-.445-.85v-3.1c0-.327.2-.478.445-.336l20.367,11.76a1.064,1.064,0,0,1,.445.849v3.1c0,.327-.2.478-.445.336" transform="translate(-21.82 -79.376)" fill="#c1ecff"/>
            </g>
          </g>
        </g>
        <path id="Path_18675" data-name="Path 18675" d="M26.1,83.84l-3.04-1.754a1.038,1.038,0,0,1-.431-.825c0-.318.194-.464.431-.326L26.1,82.69a1.032,1.032,0,0,1,.431.825c0,.317-.192.464-.431.326" transform="translate(11.358 40.593)" fill="#c1ecff"/>
        <path id="Path_18676" data-name="Path 18676" d="M27.666,84.314c0,.6-.422.843-.942.544a2.08,2.08,0,0,1-.94-1.63c0-.6.421-.844.94-.544a2.08,2.08,0,0,1,.942,1.63" transform="translate(12.94 41.432)" fill="#fff"/>
        <path id="Path_18677" data-name="Path 18677" d="M29.794,85.455c0,.318-.224.446-.5.288a1.1,1.1,0,0,1-.5-.864c0-.318.221-.446.5-.288a1.1,1.1,0,0,1,.5.864" transform="translate(14.453 42.42)" fill="#14497a"/>
        <path id="Path_18678" data-name="Path 18678" d="M30.964,86.131c0,.318-.224.446-.5.288a1.1,1.1,0,0,1-.5-.864c0-.318.222-.446.5-.287a1.1,1.1,0,0,1,.5.862" transform="translate(15.04 42.759)" fill="#c1ecff"/>
        <path id="Path_18679" data-name="Path 18679" d="M32.134,86.807c0,.318-.224.446-.5.287a1.1,1.1,0,0,1-.5-.862c0-.318.222-.446.5-.288a1.1,1.1,0,0,1,.5.864" transform="translate(15.627 43.098)" fill="#14497a"/>
        <path id="Path_18680" data-name="Path 18680" d="M35.542,89.76l-1.024-.592a.659.659,0,0,1-.276-.529V87.557c0-.2.123-.3.276-.209l1.024.59a.663.663,0,0,1,.276.529v1.084c0,.2-.123.3-.276.209" transform="translate(17.184 43.82)" fill="#c1ecff"/>
      </g>
    </g>
  </g>
</svg>
