<svg xmlns="http://www.w3.org/2000/svg" width="18.779" height="15.875" viewBox="0 0 18.779 15.875">
  <path id="Path_2363" data-name="Path 2363" d="M-2.694-2.148a3.862,3.862,0,0,0,1-.127,4.958,4.958,0,0,0,.674-.245L-2.48-3.906-.935-5.52.528-4.142a6.792,6.792,0,0,0,.478-1.23,7.083,7.083,0,0,0,.215-1.845,6.146,6.146,0,0,0-.991-3.745,3.394,3.394,0,0,0-2.9-1.323,3.531,3.531,0,0,0-2.852,1.27,5.8,5.8,0,0,0-1.064,3.8q0,2.959,1.524,4.238A3.552,3.552,0,0,0-2.694-2.148ZM4.229-7.432A9.576,9.576,0,0,1,3.76-4.209,5.362,5.362,0,0,1,2.64-2.152L4.293-.6,2.725,1.041,1-.6A7.253,7.253,0,0,1-.373.077,7.342,7.342,0,0,1-2.689.4a6.631,6.631,0,0,1-4.653-1.68A7.611,7.611,0,0,1-9.57-7.217a7.547,7.547,0,0,1,2.285-5.967,6.745,6.745,0,0,1,4.639-1.65,6.652,6.652,0,0,1,4.688,1.748A7.316,7.316,0,0,1,4.229-7.432ZM6.25-2.92H9.209V0H6.25Z" transform="translate(9.57 14.834)" fill="#a21f2d"/>
</svg>
