<svg xmlns="http://www.w3.org/2000/svg" width="258.758" height="93.373" viewBox="0 0 258.758 93.373">
  <g id="Group_364" data-name="Group 364" transform="translate(-363.121 -8588)">
    <g id="Group_363" data-name="Group 363" transform="translate(0 15)">
      <path id="Path_2010" data-name="Path 2010" d="M25.676-5.5a1.454,1.454,0,0,1,.916,1.518q0,1.477-1.285,1.572L19.277-2a1.245,1.245,0,0,1-.383.9,1.71,1.71,0,0,1-1.244.451,1.412,1.412,0,0,1-1.613-1.49L15.477-15.34v-.109a1.228,1.228,0,0,1,.41-.957,1.725,1.725,0,0,1,1.23-.424,1.648,1.648,0,0,1,1.436.67l4.84-.561q.547-.041.793-.041a1.9,1.9,0,0,1,2.146,2.146q0,.164-.014.424ZM22.6-5.4l.355-6.959q.027-.465.027-.561,0-.629-.506-.629-.1,0-.738.082l-2.871.342.3,7.971ZM9.078-14.123A33.97,33.97,0,0,1,5.127-3.295Q3.09.082,1.969.082a1.2,1.2,0,0,1-.766-.3,1.087,1.087,0,0,1-.437-.875,3.1,3.1,0,0,1,.588-1.34,29.925,29.925,0,0,0,3.5-7.629q.437-1.531.875-3.637l-2.762.342a2,2,0,0,1-.246.014q-1.408,0-1.408-1.654a1.3,1.3,0,0,1,1.23-1.49l3.746-.437q.342-2.516.438-4.279a1.467,1.467,0,0,1,1.682-1.5q1.613,0,1.613,1.5,0,.533-.4,3.9l1.627-.191a5.755,5.755,0,0,1,.656-.041,2.131,2.131,0,0,1,2.037,1,4.059,4.059,0,0,1,.383,1.955,55.747,55.747,0,0,1-.957,9.857A16.684,16.684,0,0,1,12.059,0,2.276,2.276,0,0,1,9.98,1.2a6.481,6.481,0,0,1-3.6-1.436Q5.537-.82,5.537-1.422a1.107,1.107,0,0,1,.137-.52.879.879,0,0,1,.848-.465,1.784,1.784,0,0,1,.588.123,4.614,4.614,0,0,0,1.545.355.874.874,0,0,0,.82-.67,16.432,16.432,0,0,0,.684-2.639,54.411,54.411,0,0,0,.793-5.947q.164-2.078.164-2.447a.586.586,0,0,0-.67-.656.576.576,0,0,0-.1.014Zm39.58,2.393q.465.643.889,1.176l3.281-.26h.109a1.021,1.021,0,0,1,1.148,1.162q0,1.244-1.066,1.313l-1.49.1a27.88,27.88,0,0,0,3.145,2.926q.7.52.7.834,0,.287-.547.492a6,6,0,0,1-1.955.383,1.66,1.66,0,0,1-1.162-.506,12.184,12.184,0,0,1-.875-.943,4.965,4.965,0,0,1-1.395.984,2.129,2.129,0,0,1-.889.273.784.784,0,0,1-.561-.26.787.787,0,0,1-.246-.574,1.192,1.192,0,0,1,.41-.834q.273-.273.834-.916a2.818,2.818,0,0,1,.451-.437q-.588-.82-.861-1.23L44-7.67a18.533,18.533,0,0,1-1.162,1.6q1.23.41,1.23,1.271a1.164,1.164,0,0,1-.273.711,1.089,1.089,0,0,1-.889.451,1.071,1.071,0,0,1-.766-.355q-.068-.082-.643-.656-1.34,1.217-1.982,1.217a.772.772,0,0,1-.738-.479V-.246Q38.773,2,36.9,2A5.846,5.846,0,0,1,33.975.848a1.066,1.066,0,0,1-.561-.93q0-.834.793-.834a1.26,1.26,0,0,1,.342.055,4.347,4.347,0,0,0,1,.164q.479,0,.479-.588V-4.662L33.3-4.348A15.084,15.084,0,0,1,31.555.93a1.441,1.441,0,0,1-1.217.848,1.1,1.1,0,0,1-.629-.219.9.9,0,0,1-.424-.807,3.254,3.254,0,0,1,.273-.971,21.1,21.1,0,0,0,1.176-5.209q.219-2.229.219-5.291L30.9-14.506q0-1.572,1.449-1.572a1.382,1.382,0,0,1,1.121.492l2.953-.4a3.505,3.505,0,0,1,.547-.041q1.8,0,1.8,1.941v9.543a3.024,3.024,0,0,1,.533-.684,18.167,18.167,0,0,0,1.736-2.242l-.561.041q-.123.014-.164.014a1,1,0,0,1-1-.643,1.635,1.635,0,0,1-.137-.684,1.038,1.038,0,0,1,1.08-1.176l2.215-.137q.287-.684.492-1.23l-2.037.137h-.123q-1.135,0-1.135-1.176,0-1.2,1.08-1.285l.656-.055a1.69,1.69,0,0,1-.492-.615q-.424-.766-.656-1.148a1.372,1.372,0,0,1-.205-.643.6.6,0,0,1,.205-.451.913.913,0,0,1,.629-.246,3.335,3.335,0,0,1,1.846.943,1.385,1.385,0,0,1,.615,1.025,1.158,1.158,0,0,1-.7,1.039l1.066-.082q.273-1.217.41-2.16.191-1.326,1.367-1.326,1.559,0,1.559,1.3a9.7,9.7,0,0,1-.4,1.969l1.012-.068a.947.947,0,0,1-.027-.191,1.549,1.549,0,0,1,.314-.766q.561-.834,1.012-1.668a1.248,1.248,0,0,1,1.094-.779,1.809,1.809,0,0,1,.834.219,1.045,1.045,0,0,1,.615.971q0,.916-1.75,2.051l1.777-.137h.109q1.258,0,1.258,1.2a1.069,1.069,0,0,1-1.066,1.23Zm-2.174.055-.615.055q-.383.984-.643,1.586l2.037-.15Q46.881-10.842,46.484-11.676ZM36.025-6.986V-9.051l-2.311.26q-.041,1.094-.123,2.064Zm0-4.43v-1.723q0-.342-.383-.342a.921.921,0,0,0-.15.014l-1.736.26v.807q.014.533.014,1.271Zm10.814-7.7-.109.52a1.407,1.407,0,0,1-1.559,1.148,1.5,1.5,0,0,1-1.271-.533,1.129,1.129,0,0,1-.232-.711.815.815,0,0,1,.014-.178v-.068l-3.992.246.068.656v.137q-.068,1.271-1.449,1.271-1.449,0-1.627-1.121l-.123-.766-5.236.314H31.2a1.074,1.074,0,0,1-.984-.547,1.485,1.485,0,0,1-.205-.779,1.053,1.053,0,0,1,.711-1.08,1.03,1.03,0,0,1,.41-.082l5.018-.3-.123-.766a2.491,2.491,0,0,1-.014-.273,1.28,1.28,0,0,1,.848-1.23,1.956,1.956,0,0,1,.834-.178,1.832,1.832,0,0,1,1.176.369,1.345,1.345,0,0,1,.52.971l.082.9,4.512-.26.109-1q.15-1.3,1.654-1.3h.082a1.785,1.785,0,0,1,1.3.492,1.229,1.229,0,0,1,.4.916,1.377,1.377,0,0,1-.041.3l-.082.383,5.018-.3h.1a1.143,1.143,0,0,1,1.094.684,1.279,1.279,0,0,1,.15.6,1.11,1.11,0,0,1-.684,1.094,1.174,1.174,0,0,1-.465.123ZM43.148-3.268a.878.878,0,0,1,.834.438,1.006,1.006,0,0,1,.137.492q0,.533-1.039,1.3A5.319,5.319,0,0,1,40.564.273a.969.969,0,0,1-.848-.479,1.407,1.407,0,0,1-.246-.766q0-.779,1.053-1.176a12.648,12.648,0,0,0,1.75-.834A1.974,1.974,0,0,1,43.148-3.268ZM48.74-3.2a6.127,6.127,0,0,1,1.449.342,11.322,11.322,0,0,1,2.229.916A1.478,1.478,0,0,1,53.279-.7a1.531,1.531,0,0,1-.287.834,1.26,1.26,0,0,1-1.135.643A1.82,1.82,0,0,1,50.791.328a19.218,19.218,0,0,0-2.324-1.49q-.752-.437-.752-1.012a1.149,1.149,0,0,1,.164-.574A.915.915,0,0,1,48.74-3.2ZM47.291-6.166v6.7a1.975,1.975,0,0,1-.41,1.285,1.586,1.586,0,0,1-1.3.588,6.193,6.193,0,0,1-2.912-.93,1.032,1.032,0,0,1-.656-.889.634.634,0,0,1,.711-.725,1.841,1.841,0,0,1,.3.027A4.727,4.727,0,0,0,44,0q.52,0,.52-.588V-6.166a1.05,1.05,0,0,1,.561-.984,1.6,1.6,0,0,1,.834-.219A1.464,1.464,0,0,1,46.949-7,1.079,1.079,0,0,1,47.291-6.166ZM78.873-17.91a31.083,31.083,0,0,1-1.053,3.5l3.432-.26a1.459,1.459,0,0,1,.656.1,1.2,1.2,0,0,1,.7,1.244,1.118,1.118,0,0,1-1.162,1.258L67.307-11.061q-1.326.1-1.326-1.312a1.105,1.105,0,0,1,1.162-1.23l2.57-.205q-.6-2.2-1.025-3.281l-.738.068h-.205q-1.121-.055-1.121-1.312a1.085,1.085,0,0,1,1.107-1.217l4.361-.369v-2.229a1.231,1.231,0,0,1,.738-1.176,1.726,1.726,0,0,1,.807-.191,1.637,1.637,0,0,1,1.23.479,1.231,1.231,0,0,1,.342.889v1.969l4.252-.369q.123-.014.164-.014,1.189,0,1.189,1.354a1.084,1.084,0,0,1-1.107,1.23Zm-2.939.246-4.539.355A33.407,33.407,0,0,1,72.324-14l2.816-.205Q75.592-15.777,75.934-17.664Zm.26,8.7a1.264,1.264,0,0,1,1.326-.957A1.4,1.4,0,0,1,79-9.133L81.621-9.3a1.3,1.3,0,0,1,.9.246,1.258,1.258,0,0,1,.465,1.066,1.219,1.219,0,0,1-1.23,1.408L78.627-6.4a11.661,11.661,0,0,1-2.174,4.061q2.105.848,3.6,1.613A1.645,1.645,0,0,1,81.143.7a1.7,1.7,0,0,1-.232.82,1.394,1.394,0,0,1-1.326.766,1.774,1.774,0,0,1-.779-.178q-.082-.041-.807-.492A39.849,39.849,0,0,0,74.252-.328,16.138,16.138,0,0,1,68.373,2.01a8.691,8.691,0,0,1-1.408.205q-1.2,0-1.2-1.148a.969.969,0,0,1,.547-.875A5.334,5.334,0,0,1,67.43-.164a15.912,15.912,0,0,0,3.965-1.422L70.82-1.8l-.779-.3A7.159,7.159,0,0,1,68.414-2.9a1.3,1.3,0,0,1-.561-1.025,3.17,3.17,0,0,1,.629-1.559q.123-.191.205-.342l-2.338.137-.123.014a1.068,1.068,0,0,1-.93-.383,1.32,1.32,0,0,1-.314-.93,1.2,1.2,0,0,1,1.23-1.381L70.027-8.6q.041-.1.082-.205.287-.711.492-1.285.451-1.217,1.436-1.217a2.166,2.166,0,0,1,.957.219,1.122,1.122,0,0,1,.684,1.039,4.073,4.073,0,0,1-.369,1.258Zm-.807,2.762-3.459.191a8.111,8.111,0,0,1-.451.779,1.522,1.522,0,0,0-.3.684q0,.287.615.492,1,.342,1.887.656A10.048,10.048,0,0,0,75.387-6.207Zm-11.84-8.586v3.2q.082-.041.205-.1a4.026,4.026,0,0,1,1.381-.424,1.055,1.055,0,0,1,.9.451,1.2,1.2,0,0,1,.26.766,1.318,1.318,0,0,1-.67,1.08,18.006,18.006,0,0,1-2.078,1.244V-.424q0,2.352-1.969,2.352A6.315,6.315,0,0,1,59.063,1.2,10.7,10.7,0,0,1,57.791.52a1.081,1.081,0,0,1-.547-.943q0-.93.971-.93a1.909,1.909,0,0,1,.52.082,3.719,3.719,0,0,0,1.066.178q.67,0,.67-.779v-5.2a6.767,6.767,0,0,1-2.037.67,1.291,1.291,0,0,1-1.258-.752,1.955,1.955,0,0,1-.191-.861,1.334,1.334,0,0,1,.6-1.148A4.156,4.156,0,0,1,58.6-9.584q.889-.287,1.873-.7V-14.4l-1.846.232q-.137.014-.205.014a1.143,1.143,0,0,1-1.121-.793,2.42,2.42,0,0,1-.15-.889,1.193,1.193,0,0,1,1.135-1.354l2.188-.273v-4.129a1.249,1.249,0,0,1,.574-1.107,1.69,1.69,0,0,1,.971-.287,1.586,1.586,0,0,1,1.189.479,1.3,1.3,0,0,1,.342.916v3.746l1.121-.137a1.568,1.568,0,0,1,.191-.014,1.076,1.076,0,0,1,.916.41,1.832,1.832,0,0,1,.355,1.189,1.24,1.24,0,0,1-1.162,1.408Zm41.207-.971,3.664-.219a1.762,1.762,0,0,1,.219-.014,1.961,1.961,0,0,1,1.244.355,1.193,1.193,0,0,1,.451.971,5.134,5.134,0,0,1-1.271,2.57,10.9,10.9,0,0,1-1.2,1.395,1.274,1.274,0,0,1-.9.4,1.339,1.339,0,0,1-.656-.246.66.66,0,0,1-.342-.6,2.925,2.925,0,0,1,.328-1,3.045,3.045,0,0,0,.342-1.025q0-.342-.451-.314l-16.83,1.066a11.033,11.033,0,0,1-.3,2.406A1.488,1.488,0,0,1,87.527-8.9a2.111,2.111,0,0,1-.848-.178,1.349,1.349,0,0,1-.82-1.326,2.964,2.964,0,0,1,.26-1.053,13.189,13.189,0,0,0,.793-3.021,1.108,1.108,0,0,1,1.189-1.08,1.078,1.078,0,0,1,1.135.752l1.736-.109-.451-6.562a1.219,1.219,0,0,1,.533-1.148,1.879,1.879,0,0,1,1.135-.328,1.522,1.522,0,0,1,1.381.588l9.3-.711h.273a1.837,1.837,0,0,1,2.064,2.092q0,.178-.014.328Zm-8.381.52v-2.68q0-1.148,1.395-1.148a1.629,1.629,0,0,1,.971.273l3.213-.26.055-.93v-.082q0-.492-.451-.451l-7.684.574.219,4.84Zm2.775-.178,2.6-.15.082-1.49-2.68.219Zm2.488,12.031-7.3.355V.533a1.315,1.315,0,0,1-.383.971,1.783,1.783,0,0,1-1.34.506A1.613,1.613,0,0,1,91.041,1.2a1.424,1.424,0,0,1-.15-.67V-10.391a1.264,1.264,0,0,1,.725-1.217,2.118,2.118,0,0,1,.984-.232,1.921,1.921,0,0,1,1.3.424l8.7-.6h.287a1.976,1.976,0,0,1,2.2,2.27V-.314q0,2.721-2.174,2.721a9.03,9.03,0,0,1-3.4-.82q-1.34-.561-1.34-1.326a.888.888,0,0,1,1-1.012,2.1,2.1,0,0,1,.547.082,4.9,4.9,0,0,0,1.189.137q.533,0,.656-.246a1.242,1.242,0,0,0,.082-.506Zm0-5.182v-.561q0-.67-.574-.615h-.041l-6.686.465v1.176Zm0,1.955-7.3.424v1.258l7.3-.465Zm15.395-.807V.588a1.15,1.15,0,0,1-.3.807,1.456,1.456,0,0,1-1.135.451,1.4,1.4,0,0,1-1.285-.629,1.2,1.2,0,0,1-.164-.629V-18.785a1.3,1.3,0,0,1-.82-1.381,1.143,1.143,0,0,1,1.121-1.285l5.5-.588q.15-.014.342-.014,1.818,0,1.818,1.613a8.8,8.8,0,0,1-.561,2.29q-.561,1.661-1.381,3.493a9.284,9.284,0,0,1,1.859,5.551,2.859,2.859,0,0,1-.561,1.887,1.844,1.844,0,0,1-1.518.7A5.373,5.373,0,0,1,117.031-7.424Zm0-2.078q.15-.014.191-.014a1.444,1.444,0,0,1,.4.082,3.069,3.069,0,0,0,.943.164q.656,0,.656-.916a8.3,8.3,0,0,0-1.449-3.9,1.1,1.1,0,0,1-.178-.588,1.1,1.1,0,0,1,.4-.848,19.522,19.522,0,0,0,.9-3.322q0-.314-.4-.342h-.123l-1.34.164Zm14.424-9.844,4.648-.479q.273-.027.424-.027a2.508,2.508,0,0,1,1.23.273,1.2,1.2,0,0,1,.629,1.107q0,1.176-1.8,3.281-.738.861-1.258.861a.82.82,0,0,1-.479-.164.752.752,0,0,1-.355-.67,1.077,1.077,0,0,1,.109-.424,4.183,4.183,0,0,0,.369-1.2q0-.355-.41-.355a1.11,1.11,0,0,0-.137.014l-9.105.957v.232q-.137,3.035-1.709,3.035a1.809,1.809,0,0,1-.82-.191,1.231,1.231,0,0,1-.738-1.176,2.164,2.164,0,0,1,.178-.766,9.8,9.8,0,0,0,.7-3.35,1.028,1.028,0,0,1,1.135-1.121,1.015,1.015,0,0,1,1.121.82l3.09-.328v-3.1a1.173,1.173,0,0,1,.67-1.107,1.9,1.9,0,0,1,.93-.232A1.635,1.635,0,0,1,131.1-23a1.161,1.161,0,0,1,.355.875Zm1.887,11.334-.15,6.248a.566.566,0,0,0,.451.629,4.872,4.872,0,0,0,.916.055,3.926,3.926,0,0,0,1.408-.164.837.837,0,0,0,.424-.67,20.412,20.412,0,0,0,.191-2.064q.027-.889.875-.889.711,0,1,1.121a13.069,13.069,0,0,1,.424,3.158,1.887,1.887,0,0,1-1.285,2.01,12.825,12.825,0,0,1-3.555.328,5.922,5.922,0,0,1-3.062-.533A2.271,2.271,0,0,1,130.225-.7V-.807l.15-6.973L128.16-7.6a1.176,1.176,0,0,1,.779,1.148,6.236,6.236,0,0,1-.547,2.105A10.377,10.377,0,0,1,123.744.943a4.16,4.16,0,0,1-1.969.684.938.938,0,0,1-.807-.4,1.166,1.166,0,0,1-.232-.684q0-.615.82-1.121a9.427,9.427,0,0,0,2.9-2.775A10.379,10.379,0,0,0,126-6.727a1.562,1.562,0,0,1,.369-.725l-2.529.205h-.205a1.082,1.082,0,0,1-.848-.369,1.356,1.356,0,0,1-.328-.957,1.23,1.23,0,0,1,1.217-1.422l12.906-1.012h.1q1.244,0,1.244,1.3,0,1.326-1.176,1.422Zm.014-4.5-6.945.643h-.178q-1.135,0-1.135-1.189a1.163,1.163,0,0,1,1.121-1.34l6.918-.67h.164q1.258,0,1.258,1.162A1.228,1.228,0,0,1,133.355-12.51Z" transform="translate(483 8619)" fill="#0085d7"/>
      <path id="Path_2009" data-name="Path 2009" d="M2.725-3.229v2.52a.6.6,0,0,1-.1.346.791.791,0,0,1-.7.316A.92.92,0,0,1,1.26-.281a.58.58,0,0,1-.17-.428V-8.414a.569.569,0,0,1,.117-.357.829.829,0,0,1,.7-.3.871.871,0,0,1,.645.234.573.573,0,0,1,.17.422v3.24l3.7-3.621a.85.85,0,0,1,.621-.264.792.792,0,0,1,.516.182.717.717,0,0,1,.281.592.685.685,0,0,1-.234.521L4.875-5.221,8.221-1.365a.815.815,0,0,1,.223.551.7.7,0,0,1-.322.592.913.913,0,0,1-.545.182.866.866,0,0,1-.7-.357L3.744-4.213Zm8.654.768L10.67-.639a.814.814,0,0,1-.8.592,1.024,1.024,0,0,1-.451-.111A.649.649,0,0,1,9-.762a1.081,1.081,0,0,1,.088-.4l2.818-7.02a1.267,1.267,0,0,1,1.207-.937,1.28,1.28,0,0,1,1.219.938l2.818,7.02a1.142,1.142,0,0,1,.082.416.627.627,0,0,1-.4.58,1.011,1.011,0,0,1-.475.123.807.807,0,0,1-.791-.592l-.709-1.822Zm1.74-5-1.248,3.6h2.484Zm7.664-.023h-2.52a.545.545,0,0,1-.293-.076.7.7,0,0,1-.3-.645.765.765,0,0,1,.229-.592.512.512,0,0,1,.369-.141h6.7a.553.553,0,0,1,.328.1.738.738,0,0,1,.27.627.739.739,0,0,1-.24.6.537.537,0,0,1-.357.123h-2.52V-.732a.6.6,0,0,1-.211.48.909.909,0,0,1-.621.205.793.793,0,0,1-.732-.34.627.627,0,0,1-.094-.346Zm9.8-1.658a4.034,4.034,0,0,1,2.344.7,4.061,4.061,0,0,1,1.5,1.975,5.437,5.437,0,0,1,.328,1.916,4.873,4.873,0,0,1-1,3.129,3.866,3.866,0,0,1-3.2,1.465,3.829,3.829,0,0,1-3.3-1.623,4.943,4.943,0,0,1-.879-2.971,5.2,5.2,0,0,1,.533-2.379,3.777,3.777,0,0,1,2.309-2A4.4,4.4,0,0,1,30.58-9.146Zm-.029,1.365a2.1,2.1,0,0,0-1.729.85,3.7,3.7,0,0,0-.7,2.35,3.845,3.845,0,0,0,.539,2.109,2.126,2.126,0,0,0,1.9,1.066,2.126,2.126,0,0,0,1.852-1,3.793,3.793,0,0,0,.58-2.174,3.63,3.63,0,0,0-.727-2.385A2.131,2.131,0,0,0,30.551-7.781Zm7.535,3.75V-.709a.594.594,0,0,1-.117.363.819.819,0,0,1-.7.3.871.871,0,0,1-.645-.234.58.58,0,0,1-.17-.428V-8.414a.576.576,0,0,1,.164-.416.875.875,0,0,1,.656-.24.8.8,0,0,1,.721.334.55.55,0,0,1,.094.322v2.953h4.055V-8.414a.569.569,0,0,1,.117-.357.812.812,0,0,1,.7-.3.871.871,0,0,1,.645.234.573.573,0,0,1,.17.422V-.709a.584.584,0,0,1-.164.422.855.855,0,0,1-.65.24.794.794,0,0,1-.721-.334.56.56,0,0,1-.094-.328V-4.031Z" transform="translate(483 8648)" fill="#0085d7"/>
    </g>
    <g id="Layer_2" data-name="Layer 2" transform="translate(363.121 8588)">
      <g id="Group_536" data-name="Group 536">
        <path id="Path_1997" data-name="Path 1997" d="M56.034,36.634H45.328L46.614,28.4a1.688,1.688,0,0,0-1.669-1.948H40.625a1.686,1.686,0,0,0-1.669,1.431l-1.365,8.757H32.367a1.727,1.727,0,0,0-.009,3.454l4.69.026L31.4,76.336a1.688,1.688,0,0,0,1.669,1.948h4.319a1.686,1.686,0,0,0,1.669-1.431l5.719-36.7,5,.026L46.918,72.286l-2.831-.349a1.791,1.791,0,0,0-.442,3.555l9.371,1.184a1.365,1.365,0,0,0,1.532-1.245l2.932-37.242a1.446,1.446,0,0,0-1.444-1.559Z" transform="translate(-17.109 -14.769)" fill="#0085d7"/>
        <path id="Path_1998" data-name="Path 1998" d="M113.453,41.448H100.787A1.613,1.613,0,0,0,99.37,40.6H95.2a1.619,1.619,0,0,0-1.621,1.621V83.937A1.619,1.619,0,0,0,95.2,85.558H99.37a1.619,1.619,0,0,0,1.621-1.621v-.384h6.368v.194a1.815,1.815,0,0,0,1.815,1.815h4.089a1.815,1.815,0,0,0,1.815-1.815V43.069a1.619,1.619,0,0,0-1.621-1.621Zm-6.1,38.51h-6.368V45.038h6.368V79.962Z" transform="translate(-52.253 -22.67)" fill="#0085d7"/>
        <path id="Path_1999" data-name="Path 1999" d="M58.646,185.74H57.083L54,196.759h1.563l.83-2.972h2.981l.83,2.972h1.563L58.686,185.74h-.044Zm-2.067,7.388,1.307-4.677,1.307,4.677Z" transform="translate(-30.152 -103.712)" fill="#0085d7"/>
        <path id="Path_2000" data-name="Path 2000" d="M78.25,186.394h2.7v10.268h1.546V186.394h2.681v-.654H78.25Z" transform="translate(-43.693 -103.712)" fill="#0085d7"/>
        <path id="Path_2001" data-name="Path 2001" d="M105.1,185.13c-2.367,0-4.284,2.6-4.284,5.807s1.917,5.807,4.284,5.807,4.284-2.6,4.284-5.807S107.471,185.13,105.1,185.13Zm0,10.334c-1.453,0-2.632-2.027-2.632-4.527s1.179-4.527,2.632-4.527,2.632,2.027,2.632,4.527S106.557,195.464,105.1,195.464Z" transform="translate(-56.295 -103.372)" fill="#0085d7"/>
        <path id="Path_2002" data-name="Path 2002" d="M36.252,185.74l-3.674,4.681h-.212V185.74h-1.7v10.921h1.7V192.1h.517l3.268,4.655h1.563L33.682,191l4.134-5.264Z" transform="translate(-17.125 -103.712)" fill="#0085d7"/>
        <path id="Path_2003" data-name="Path 2003" d="M39,0A39,39,0,1,0,78,39,39,39,0,0,0,39,0Zm0,74.913A35.913,35.913,0,1,1,74.913,39,35.914,35.914,0,0,1,39,74.913Z" fill="#0085d7"/>
        <path id="Path_2004" data-name="Path 2004" d="M135.639,186.01h-.592a.5.5,0,0,0-.5.5v5.105h-4.655v-5.105a.5.5,0,0,0-.5-.5h-.592a.5.5,0,0,0-.5.5v9.892a.5.5,0,0,0,.5.5h.592a.5.5,0,0,0,.5-.5v-4.067h4.655v4.067a.5.5,0,0,0,.5.5h.592a.5.5,0,0,0,.5-.5v-9.892A.5.5,0,0,0,135.639,186.01Z" transform="translate(-71.634 -103.863)" fill="#0085d7"/>
      </g>
    </g>
  </g>
</svg>
