<svg xmlns="http://www.w3.org/2000/svg" width="583.994" height="189.004" viewBox="0 0 583.994 189.004">
  <g id="Group_550" data-name="Group 550" transform="translate(-445.004 -3669.998)">
    <path id="Union_9" data-name="Union 9" d="M9799,18470a20,20,0,0,1-20-20v-138a20,20,0,0,1,20-20h520a20,20,0,0,1,20,20v47.73l21,11.928-21,11.922V18450a20,20,0,0,1-20,20Z" transform="translate(-9331 -14611)" fill="#f2f9fd"/>
    <g id="Union_10" data-name="Union 10" transform="translate(-9333.998 -14622)" fill="none">
      <path d="M9799,18470a20,20,0,0,1-20-20v-138a20,20,0,0,1,20-20h520a20,20,0,0,1,20,20v47.73l21,11.928-21,11.922V18450a20,20,0,0,1-20,20Z" stroke="none"/>
      <path d="M 10318.998046875 18469.001953125 C 10321.5634765625 18469.001953125 10324.0517578125 18468.5 10326.3935546875 18467.509765625 C 10328.65625 18466.55078125 10330.6884765625 18465.181640625 10332.4345703125 18463.435546875 C 10334.1796875 18461.689453125 10335.5498046875 18459.658203125 10336.5068359375 18457.39453125 C 10337.498046875 18455.052734375 10338 18452.564453125 10338 18450 L 10338 18382.998046875 L 10338.505859375 18382.7109375 L 10357.97265625 18371.658203125 L 10338 18360.3125 L 10338 18312 C 10338 18309.435546875 10337.498046875 18306.947265625 10336.5068359375 18304.60546875 C 10335.5498046875 18302.341796875 10334.1796875 18300.310546875 10332.4345703125 18298.564453125 C 10330.6884765625 18296.818359375 10328.65625 18295.44921875 10326.3935546875 18294.490234375 C 10324.0517578125 18293.5 10321.5634765625 18292.998046875 10318.998046875 18292.998046875 L 9798.9990234375 18292.998046875 C 9796.43359375 18292.998046875 9793.9453125 18293.5 9791.6044921875 18294.490234375 C 9789.341796875 18295.447265625 9787.310546875 18296.818359375 9785.5654296875 18298.564453125 C 9783.8203125 18300.310546875 9782.451171875 18302.341796875 9781.494140625 18304.60546875 C 9780.50390625 18306.947265625 9780.001953125 18309.435546875 9780.001953125 18312 L 9780.001953125 18450 C 9780.001953125 18452.564453125 9780.50390625 18455.052734375 9781.494140625 18457.39453125 C 9782.451171875 18459.658203125 9783.8203125 18461.689453125 9785.5654296875 18463.435546875 C 9787.310546875 18465.181640625 9789.341796875 18466.552734375 9791.6044921875 18467.509765625 C 9793.9453125 18468.5 9796.43359375 18469.001953125 9798.9990234375 18469.001953125 L 10318.998046875 18469.001953125 M 10318.998046875 18470.001953125 L 9798.9990234375 18470.001953125 C 9787.953125 18470.001953125 9779.001953125 18461.044921875 9779.001953125 18450 L 9779.001953125 18312 C 9779.001953125 18300.955078125 9787.953125 18291.998046875 9798.9990234375 18291.998046875 L 10318.998046875 18291.998046875 C 10330.0439453125 18291.998046875 10339 18300.955078125 10339 18312 L 10339 18359.73046875 L 10359.998046875 18371.658203125 L 10339 18383.580078125 L 10339 18450 C 10339 18461.044921875 10330.0439453125 18470.001953125 10318.998046875 18470.001953125 Z" stroke="none" fill="#0085d7"/>
    </g>
  </g>
</svg>
