<svg xmlns="http://www.w3.org/2000/svg" width="1185.787" height="95.695" viewBox="0 0 1185.787 95.695">
  <g id="Group_546" data-name="Group 546" transform="translate(-366.809 -3941.836)">
    <g id="Group_544" data-name="Group 544">
      <path id="Path_2010" data-name="Path 2010" d="M34.414-20.937A34.686,34.686,0,0,1,30.7-7.637,36.622,36.622,0,0,0,37.832-.293q1.191.918,1.191,1.5,0,.547-.9.84a11.826,11.826,0,0,1-3.418.742,2.814,2.814,0,0,1-2.031-1.035,41.14,41.14,0,0,1-4.414-5.8,28.292,28.292,0,0,1-7.6,6.5,2.966,2.966,0,0,1-1.406.469,1.327,1.327,0,0,1-1.133-.605,1.686,1.686,0,0,1-.352-1.035A1.63,1.63,0,0,1,18.379-.02q.078-.078.957-.7a23.31,23.31,0,0,0,6.7-7.031Q22.4-14.277,22.4-15.586a1.409,1.409,0,0,1,.742-1.27,1.938,1.938,0,0,1,1.035-.332q1,0,1.875,1.816.742,1.543,1.758,3.3l.176.293a42.868,42.868,0,0,0,2.031-8.809l-5.449.449q-2.422,4.727-4.2,4.727a1.457,1.457,0,0,1-.859-.293,1.6,1.6,0,0,1-.625-1.367,2.9,2.9,0,0,1,.039-.43,2.369,2.369,0,0,1-1.836.859,1.757,1.757,0,0,1-1.738-1.289A82.214,82.214,0,0,1,7.09-15.977,13.864,13.864,0,0,1,4.98-15.7,2,2,0,0,1,3.2-16.836a3.435,3.435,0,0,1-.566-1.6,2.571,2.571,0,0,1,.645-1.484,55.4,55.4,0,0,0,3.691-5.684l-3.125.254H3.613a1.823,1.823,0,0,1-1.25-.43,1.959,1.959,0,0,1-.645-1.582q0-2.031,1.641-2.148l15.117-1.094h.176a1.819,1.819,0,0,1,1.211.41,2.146,2.146,0,0,1,.664,1.7q0,1.855-1.6,1.973l-7.07.547a60.948,60.948,0,0,1-4.1,5.859,52.539,52.539,0,0,0,5.625-.957l.469-.1q-.137-.273-.645-1.113a2.693,2.693,0,0,1-.469-1.289,1.278,1.278,0,0,1,.527-1.016,1.709,1.709,0,0,1,1.055-.371q.9,0,2.383,1.7a22.981,22.981,0,0,1,2.207,2.832,3,3,0,0,1,.508,1.621,2.369,2.369,0,0,1-.02.293q.1-.2.273-.508a42.788,42.788,0,0,0,3.906-11.523q.469-2.187,2.266-2.187a3.016,3.016,0,0,1,1,.156,1.88,1.88,0,0,1,1.348,1.953,8.273,8.273,0,0,1-.312,1.777,41.548,41.548,0,0,1-1.348,4.277l9.238-.918h.273a1.793,1.793,0,0,1,1.816,1.348,2.949,2.949,0,0,1,.156.938,2.029,2.029,0,0,1-.879,1.816,1.914,1.914,0,0,1-.937.313ZM13.789-8.574v3.359q2.6-.7,4.57-1.309a4.222,4.222,0,0,1,1.172-.2q1.641,0,1.641,1.758a1.733,1.733,0,0,1-1.094,1.523,37.862,37.862,0,0,1-5.2,1.973Q10.156.059,5.332,1.211a6.26,6.26,0,0,1-1.406.215q-1.973,0-1.973-2.266A1.809,1.809,0,0,1,3.008-2.617a8.489,8.489,0,0,1,1.719-.43q1.543-.273,4.512-1V-8.105l-4.316.43H4.668A1.722,1.722,0,0,1,3.4-8.184a2.153,2.153,0,0,1-.566-1.562A1.684,1.684,0,0,1,4.473-11.68l4.766-.469v-2.168a1.766,1.766,0,0,1,.879-1.523,2.528,2.528,0,0,1,1.445-.449,2.241,2.241,0,0,1,1.816.742,1.743,1.743,0,0,1,.41,1.191v1.777l3.848-.391h.234a1.846,1.846,0,0,1,1.445.586,2.089,2.089,0,0,1,.488,1.445A1.725,1.725,0,0,1,18.086-9ZM49.16-30.918q2.559,0,2.559,2.637,0,.723-.293,5.8l-.2,3.164q-.352,6.211-.352,9.3,0,5.938,4.863,5.938A8.705,8.705,0,0,0,61.211-5.84a12.9,12.9,0,0,0,3.828-4.687,1.943,1.943,0,0,1,1.855-1.191,1.918,1.918,0,0,1,1.406.586A1.76,1.76,0,0,1,68.828-9.8a7.784,7.784,0,0,1-1.309,3.4Q63.32.8,55.605.8q-5.684,0-8.145-4.16a12.578,12.578,0,0,1-1.5-6.484q0-3.125.449-10.586.254-4.57.254-5.723l-.02-2.168Q46.641-30.918,49.16-30.918Zm38.359,4.16v-3.77a1.734,1.734,0,0,1,.684-1.484,2.531,2.531,0,0,1,1.563-.469q2.363,0,2.363,1.992v3.535q2.422-.137,4.414-.137,2.832,0,2.832,2.148A1.948,1.948,0,0,1,98.2-22.91a4.671,4.671,0,0,1-1.445.2q-1.816.02-4.18.059l-.449.02v4.473a20.078,20.078,0,0,0,3.086-.508,3.254,3.254,0,0,1,.859-.117q2.051,0,2.051,2.344,0,1.484-1.758,1.973a35.346,35.346,0,0,1-4.238.664v6.133a39.717,39.717,0,0,1,6.953,3.008A2.812,2.812,0,0,1,100.7-2.324a2.884,2.884,0,0,1-.293,1.23A1.936,1.936,0,0,1,98.535.078,3.14,3.14,0,0,1,96.8-.586,34.63,34.63,0,0,0,91.816-3.4,5.678,5.678,0,0,1,88.5.449a12.271,12.271,0,0,1-4.727.781A9.425,9.425,0,0,1,78.3-.312a4.974,4.974,0,0,1-2.461-4.18A3.936,3.936,0,0,1,77.6-7.676a9.362,9.362,0,0,1,5.879-1.719A23.584,23.584,0,0,1,87.52-9v-4.473q-1.621.059-2.891.059a29.465,29.465,0,0,1-3.965-.176,1.961,1.961,0,0,1-1.914-2.129q0-2.129,2.012-2.129.234,0,.742.039,1.25.117,3.34.117,1.25,0,2.676-.059V-22.4q-4.414.332-7.949.8a4.59,4.59,0,0,1-.664.059,2.072,2.072,0,0,1-2.344-2.344q0-1.621,1.875-1.953A89.5,89.5,0,0,1,87.52-26.758ZM87.441-5.117A15.57,15.57,0,0,0,83.2-5.84a4.8,4.8,0,0,0-2.5.566,1.1,1.1,0,0,0-.664.918q0,.605.82,1.152a5.115,5.115,0,0,0,2.91.762q2.91,0,3.477-1.738A5.269,5.269,0,0,0,87.441-5.117ZM123.75-26.035q-.059-2.07-.176-4.141-.02-.293-.02-.41,0-2.051,2.441-2.051,2.383,0,2.4,2.266,0,.137.1,3.535l.02.43q3.047-.234,6.289-.469,1.777-.117,2.559-.2.312-.02.508-.02a1.857,1.857,0,0,1,1.563.742,2.454,2.454,0,0,1,.449,1.5,2.082,2.082,0,0,1-1.367,2.207,7.038,7.038,0,0,1-1.348.156q-1.387.078-6.328.41l-1.543.1-.742.059q.117,6.523.117,8.184a9.165,9.165,0,0,1-.625,3.848q-.273,7.109-5.43,10.957a4.23,4.23,0,0,1-2.324,1.035,1.6,1.6,0,0,1-1.367-.625,1.815,1.815,0,0,1-.391-1.094A2.858,2.858,0,0,1,119.863-1.6a9.809,9.809,0,0,0,3.047-4.355,5.355,5.355,0,0,1-1.035.117,6.256,6.256,0,0,1-4.2-2.07,6.689,6.689,0,0,1-2.324-4.9,6.374,6.374,0,0,1,2.813-5.117,6.228,6.228,0,0,1,3.809-1.5A5.584,5.584,0,0,1,124-19q-.02-.332-.059-1.523,0-.391-.02-1.035-5.469.469-9.883.879-4.395.391-4.687.391-2.227,0-2.227-2.324a2.042,2.042,0,0,1,2.012-2.246q1.133-.156,13.477-1.094Zm0,15.234.039-1.191q0-3.926-1.66-3.926a2.55,2.55,0,0,0-1.68.859,2.864,2.864,0,0,0-1.016,2.012,3.681,3.681,0,0,0,1.367,2.7,2.27,2.27,0,0,0,1.445.742,1.517,1.517,0,0,0,1.172-.7A2.2,2.2,0,0,0,123.75-10.8Zm26.66,1.152a5.882,5.882,0,0,1,2.891.781,5.956,5.956,0,0,1,2.109,1.914A5.923,5.923,0,0,1,156.5-3.516a5.839,5.839,0,0,1-.879,3.086,5.99,5.99,0,0,1-2.236,2.217,6.014,6.014,0,0,1-3.037.811,5.892,5.892,0,0,1-3.359-1.055,5.811,5.811,0,0,1-2.734-5.1,5.837,5.837,0,0,1,.723-2.793A6.013,6.013,0,0,1,149-9.473,5.779,5.779,0,0,1,150.41-9.648Zm-.039,3.242a2.8,2.8,0,0,0-2.07.9,2.789,2.789,0,0,0-.8,1.992,2.744,2.744,0,0,0,.449,1.5,2.725,2.725,0,0,0,2.441,1.367,2.7,2.7,0,0,0,1.836-.7,2.736,2.736,0,0,0,1.035-2.168,2.765,2.765,0,0,0-1.25-2.383A2.842,2.842,0,0,0,150.371-6.406Z" transform="translate(1210 3998)" fill="#375565"/>
      <path id="Path_2009" data-name="Path 2009" d="M22.324-15.937v3.926l5.762-.312h.156a1.693,1.693,0,0,1,1.445.684,2.293,2.293,0,0,1,.391,1.367q0,2.07-1.836,2.148l-5.918.313v4.551L33.2-3.672l.078-.02a1.712,1.712,0,0,1,.762.156Q35.2-3.145,35.2-1.523,35.2.684,33.32.762L7.285,1.719Q5.273,1.8,5.273-.43q0-2.188,1.855-2.246l10.313-.391V-7.578l-5.879.293-.176.02a1.579,1.579,0,0,1-1.23-.449A2.1,2.1,0,0,1,9.57-9.3q0-2.051,1.836-2.148l6.035-.312v-3.926l-5.2.293H12.07a1.62,1.62,0,0,1-1.367-.566,1.981,1.981,0,0,1-.469-1.367V-17.5Q5.41-13.867,3.809-13.867a1.529,1.529,0,0,1-1.367-.723,1.888,1.888,0,0,1-.312-1.035A1.582,1.582,0,0,1,2.52-16.7a10.636,10.636,0,0,1,1.523-1.113A45.413,45.413,0,0,0,11.68-24.59a41.08,41.08,0,0,0,5.605-7.461,2.45,2.45,0,0,1,2.207-1.406,2.641,2.641,0,0,1,1.465.43,2.041,2.041,0,0,1,1.035,1.8,3.063,3.063,0,0,1-.1.742q.879.977,2.109,2.109a56.53,56.53,0,0,0,13.438,9.395q1.641.82,1.641,1.523,0,.586-1.113.957a14.511,14.511,0,0,1-3.945.879A2.465,2.465,0,0,1,32.676-16q-1.758-1.133-3.125-2.187-.176,1.855-1.8,1.953Zm4.531-4.414a61.668,61.668,0,0,1-6.836-6.895,46.161,46.161,0,0,1-7.246,7.715Zm33.828.9a36.149,36.149,0,0,1-5.566,12.07A30.343,30.343,0,0,1,47.188.2a2.817,2.817,0,0,1-1.543.547,1.822,1.822,0,0,1-1.5-.8,1.751,1.751,0,0,1-.332-1.035,1.9,1.9,0,0,1,.625-1.367q.117-.137,1.152-.977a29.091,29.091,0,0,0,8.3-11.914q.7-1.777,1.27-3.672l-8.008.625h-.215a1.855,1.855,0,0,1-1.5-.684,2.458,2.458,0,0,1-.508-1.6q0-2.285,1.953-2.441l9.492-.684A57.015,57.015,0,0,0,57.3-30.2q.2-2.48,2.852-2.48a2.683,2.683,0,0,1,1.855.645,2.118,2.118,0,0,1,.684,1.641,51.693,51.693,0,0,1-.9,6.191l7.637-.566q.332-.02.781-.02,3.945,0,3.945,3.926,0,1.152-.566,5.742Q72.3-4.844,70.332-.625a4.568,4.568,0,0,1-4.355,2.988A14.157,14.157,0,0,1,60.215.527Q57.148-1,57.148-2.109a1.568,1.568,0,0,1,.43-1.094,1.5,1.5,0,0,1,1.191-.488,4.736,4.736,0,0,1,1.328.254,15.279,15.279,0,0,0,3.711.84,2.08,2.08,0,0,0,1.914-1.25A25.5,25.5,0,0,0,67.5-10q.684-3.379,1.23-8.437a4.274,4.274,0,0,0,.039-.508q0-1.133-1.426-1.016Zm40.078-3.379q-4.3,1.016-10.254,1.953-5.176.8-5.918.8-2.4,0-2.4-2.6A2.029,2.029,0,0,1,83.672-24.8a15.741,15.741,0,0,1,2.207-.293q3.828-.371,10.605-1.406,5.2-.8,8.965-1.562a11.917,11.917,0,0,1,1.719-.273,2.19,2.19,0,0,1,2.031,1.152,3.385,3.385,0,0,1,.508,1.738,2.082,2.082,0,0,1-1.621,2.051,14.641,14.641,0,0,0-5.859,4A11.5,11.5,0,0,0,99-11.289a7,7,0,0,0,1.875,4.961,9.17,9.17,0,0,0,4.395,2.461,2.365,2.365,0,0,1,2.012,2.422,2.862,2.862,0,0,1-.586,1.8,2.123,2.123,0,0,1-1.8.82,9.4,9.4,0,0,1-4.629-1.719,11.7,11.7,0,0,1-6-10.469A13.776,13.776,0,0,1,99-21.406a15.666,15.666,0,0,1,1.523-1.25Zm9.57-8.535q1.094,0,3.516,2.188,2.051,1.855,2.051,2.93a1.646,1.646,0,0,1-.664,1.309,1.836,1.836,0,0,1-1.191.43,1.794,1.794,0,0,1-1.523-1.016,20.651,20.651,0,0,0-2.773-3.555,1.737,1.737,0,0,1-.547-1.172A.993.993,0,0,1,110.332-31.367Zm3.281-2.988q1.152,0,3.359,1.855,2.051,1.719,2.051,2.93a1.577,1.577,0,0,1-.645,1.328,1.714,1.714,0,0,1-1.055.352,1.843,1.843,0,0,1-1.484-.977,18.774,18.774,0,0,0-2.773-3.262,1.7,1.7,0,0,1-.625-1.172,1.036,1.036,0,0,1,.313-.723A1.123,1.123,0,0,1,113.613-34.355Zm29.063,11.6v-6.68a2.165,2.165,0,0,1,.605-1.6,2.575,2.575,0,0,1,1.875-.684,2.337,2.337,0,0,1,2.266,1.172,2.3,2.3,0,0,1,.254,1.113v6.27q3.34-.2,5.469-.41a4.856,4.856,0,0,1,.547-.039,1.977,1.977,0,0,1,2.266,2.207q0,1.738-1.211,2.168A5.423,5.423,0,0,1,153.34-19l-4,.293-1.23.078-.469.039a35.493,35.493,0,0,1-1.992,11.016A18.68,18.68,0,0,1,138.594.977a3.427,3.427,0,0,1-1.875.684,1.63,1.63,0,0,1-1.348-.645,1.867,1.867,0,0,1-.449-1.172,1.89,1.89,0,0,1,.41-1.191,10.469,10.469,0,0,1,1.367-1.23,15.929,15.929,0,0,0,5.2-9.258,40.507,40.507,0,0,0,.742-6.367l-.742.059q-3.828.273-7.09.527l-.605.059v6.113a2.332,2.332,0,0,1-.352,1.289,2.274,2.274,0,0,1-2.09,1,2.19,2.19,0,0,1-2.148-1.152,2.421,2.421,0,0,1-.254-1.133v-5.762l-.43.039q-4.2.293-5.293.391-.527.039-.781.039a2.072,2.072,0,0,1-2.3-2.383,2.1,2.1,0,0,1,1.055-2.031,3.441,3.441,0,0,1,1.406-.293q.273-.02,3.008-.176l2.715-.137.625-.039v-6a2.248,2.248,0,0,1,.41-1.387,2.328,2.328,0,0,1,1.992-.859,2.234,2.234,0,0,1,2.188,1.133,2.378,2.378,0,0,1,.254,1.113v5.664Q139.043-22.461,142.676-22.754Zm30.977-.879v-6.25a2.125,2.125,0,0,1,.605-1.6,2.481,2.481,0,0,1,1.836-.684,2.257,2.257,0,0,1,2.168,1.152,2.28,2.28,0,0,1,.273,1.133v5.918l.742-.059,2.441-.176,4.375-.352q2.031-.176,2.3-.176a2.029,2.029,0,0,1,1.563.684,2.354,2.354,0,0,1,.605,1.68,2.006,2.006,0,0,1-1.934,2.3q-1.309.137-10.059.7.078,10.039.117,12.07.059,3.184.059,4.355a5.417,5.417,0,0,1-.781,3.086,3.042,3.042,0,0,1-2.617,1.523,3.454,3.454,0,0,1-1.7-.527q-2.617-1.5-4.844-2.969a1.931,1.931,0,0,1-1.055-1.6,1.86,1.86,0,0,1,.234-.859,1.469,1.469,0,0,1,1.406-.82,2.942,2.942,0,0,1,1.074.254,14.993,14.993,0,0,0,2.852.957q.527,0,.527-1.445,0-.078-.02-.7-.039-.977-.059-6.387,0-1.211-.078-6.621l-.762.059-4.551.313q-4.98.332-5.078.332a2.143,2.143,0,0,1-1.641-.645,2.263,2.263,0,0,1-.566-1.641,2.124,2.124,0,0,1,1.309-2.227,5.31,5.31,0,0,1,1.563-.215q1.953-.078,8.887-.527Zm-7.812,8.34a2.123,2.123,0,0,1,1.055.273,1.979,1.979,0,0,1,1.035,1.855,10.385,10.385,0,0,1-.879,3.34A17.212,17.212,0,0,1,164-4.453a2.872,2.872,0,0,1-2.168,1.094,2.515,2.515,0,0,1-1.543-.527,2.269,2.269,0,0,1-1-1.895,3.666,3.666,0,0,1,1.055-2.227,23.491,23.491,0,0,0,3.574-5.781A2.1,2.1,0,0,1,165.84-15.293Zm18.672-.82q1.816,0,5.586,5,2.09,2.813,2.09,4.219a2.452,2.452,0,0,1-1.133,2.09,2.97,2.97,0,0,1-1.719.605q-1.484,0-2.324-1.992A36.461,36.461,0,0,0,183.3-12.93a2.761,2.761,0,0,1-.605-1.523,1.444,1.444,0,0,1,.449-1.055A1.845,1.845,0,0,1,184.512-16.113ZM190.059-35a4.419,4.419,0,0,1,2.148.566,4.4,4.4,0,0,1,1.719,1.7,4.37,4.37,0,0,1,.605,2.207A4.361,4.361,0,0,1,193.34-27.5a4.274,4.274,0,0,1-3.3,1.465,4.44,4.44,0,0,1-1.777-.371,4.414,4.414,0,0,1-1.836-1.5,4.376,4.376,0,0,1-.859-2.617,4.213,4.213,0,0,1,2.031-3.73A4.342,4.342,0,0,1,190.059-35Zm-.02,2.363a2.123,2.123,0,0,0-1.113.332,2,2,0,0,0-1,1.8,2.051,2.051,0,0,0,.527,1.387,2.059,2.059,0,0,0,1.6.723,2.04,2.04,0,0,0,.957-.234,1.988,1.988,0,0,0,1.152-1.875,2.055,2.055,0,0,0-.762-1.641A2.121,2.121,0,0,0,190.039-32.637ZM226.191-19.2a2.5,2.5,0,0,1,1.934.762,2.311,2.311,0,0,1,.605,1.68,2.13,2.13,0,0,1-1.855,2.344q-.488.117-13.184.664-5.84.254-12.363.605-.234.02-.449.02a2.7,2.7,0,0,1-1.836-.645,2.3,2.3,0,0,1-.762-1.8,2.2,2.2,0,0,1,1.426-2.207,10.764,10.764,0,0,1,2.773-.312q1.934-.059,9.785-.449,3.34-.176,9.141-.43,1.953-.078,3.086-.156Q225.918-19.2,226.191-19.2Zm19.258,3.359V-.527a2.063,2.063,0,0,1-.7,1.68,2.616,2.616,0,0,1-1.758.566q-2.5,0-2.5-2.246v-29.2q0-2.227,2.5-2.227A2.262,2.262,0,0,1,245.2-30.84a2.378,2.378,0,0,1,.254,1.113v9.609a36.7,36.7,0,0,1,10.84,4.375,3.158,3.158,0,0,1,1.7,2.676,2.494,2.494,0,0,1-.7,1.777,2.4,2.4,0,0,1-1.836.8,4.412,4.412,0,0,1-2.324-.957A62.635,62.635,0,0,0,245.449-15.84Z" transform="translate(950 3998)" fill="#0085d7"/>
      <path id="Path_2008" data-name="Path 2008" d="M9.473-10.937A30.7,30.7,0,0,1,5.039-5.371,3.442,3.442,0,0,1,2.93-4.16a1.542,1.542,0,0,1-1.094-.469A1.653,1.653,0,0,1,1.328-5.8,3.927,3.927,0,0,1,2.441-7.852a54.686,54.686,0,0,0,6.035-9.316L4.16-16.68a2.864,2.864,0,0,1-.312.02,1.792,1.792,0,0,1-1.23-.449,2.2,2.2,0,0,1-.684-1.738,1.8,1.8,0,0,1,1.7-2.07l5.84-.664v-4.18a30.786,30.786,0,0,1-4.512.859,1.631,1.631,0,0,1-1.855-1.836,1.6,1.6,0,0,1,.859-1.484,7.039,7.039,0,0,1,1.426-.469,61.811,61.811,0,0,0,9.492-3.32,3.89,3.89,0,0,1,1.523-.352,2.03,2.03,0,0,1,1.738.82,2.293,2.293,0,0,1,.449,1.367,2.177,2.177,0,0,1-1.367,1.992,23.063,23.063,0,0,1-3.105,1.172v4.922l3.809-.43a2.136,2.136,0,0,1,.254-.02,1.65,1.65,0,0,1,1.367.645,2.428,2.428,0,0,1,.508,1.582q0,1.855-1.66,2.031l-4.277.488v1.953A37.265,37.265,0,0,1,18.4-13.32a2.334,2.334,0,0,1,1.133,1.895,2.269,2.269,0,0,1-.449,1.309,1.792,1.792,0,0,1-1.543.8,2.756,2.756,0,0,1-1.953-1.035q-.7-.742-1.465-1.465V.762a1.722,1.722,0,0,1-.508,1.27,2.481,2.481,0,0,1-1.836.684A2.131,2.131,0,0,1,9.668,1.621a1.819,1.819,0,0,1-.2-.859ZM33.047-2.383A64.73,64.73,0,0,1,24.16.1a34.94,34.94,0,0,1-4.277.8,1.9,1.9,0,0,1-1.6-1.055A3.967,3.967,0,0,1,17.5-2.109a13.16,13.16,0,0,1,.9-2.969q1.66-4.395,3.5-10.879,1.836-6.426,2.91-11.719a2.223,2.223,0,0,1,2.285-2.09,3.175,3.175,0,0,1,1.5.371,2.048,2.048,0,0,1,1.152,1.953,53.523,53.523,0,0,1-1.953,7.891A157.736,157.736,0,0,1,22.559-4.238a66.4,66.4,0,0,0,8.828-1.68l.273-.059Q30.9-7.852,30.508-8.789q-.293-.762-1.406-3.4A3.877,3.877,0,0,1,28.77-13.5a1.4,1.4,0,0,1,.645-1.27,1.914,1.914,0,0,1,1.035-.293,2.29,2.29,0,0,1,1.738,1.094,37.531,37.531,0,0,1,2.754,4.414Q38.5-3.008,38.5-1.191A2.126,2.126,0,0,1,37.344.762a2.8,2.8,0,0,1-1.465.41A2.1,2.1,0,0,1,33.887-.02q-.1-.2-.449-1.23Q33.3-1.641,33.047-2.383Zm18.5-22.129q.82-2.93,1.367-5.332A2.123,2.123,0,0,1,55.2-31.68q2.578,0,2.578,2.051a21.738,21.738,0,0,1-1.055,4.512q2.4-.371,3.906-.723a4.016,4.016,0,0,1,.938-.117,1.747,1.747,0,0,1,1.719,1.016,2.89,2.89,0,0,1,.313,1.309A2.083,2.083,0,0,1,61.777-21.5a59.959,59.959,0,0,1-6.5,1.152l-.137.41-.723,2.168a164.267,164.267,0,0,1-5.8,15.762q-.449.957-.566,1.152A2.372,2.372,0,0,1,45.879.332a2.666,2.666,0,0,1-1.426-.41,2.052,2.052,0,0,1-1.094-1.836,5.553,5.553,0,0,1,.7-2.051,97.783,97.783,0,0,0,4.2-10.254q.469-1.25.8-2.344Q49.9-19.1,50.117-19.8q-3.125.293-4.18.293a1.962,1.962,0,0,1-1.719-.84,2.363,2.363,0,0,1-.391-1.406q0-2.246,2.461-2.344Q48.027-24.16,51.543-24.512ZM59.512-7.617a2.146,2.146,0,0,1,1.641.82q2.246,2.52,8.34,2.52.41,0,.7-.02.41-.02.469-.02a2.492,2.492,0,0,1,1.582.488,2.245,2.245,0,0,1,.859,1.855,2.46,2.46,0,0,1-.664,1.758,2.894,2.894,0,0,1-2.227.781A20.761,20.761,0,0,1,62.52-.8a8.017,8.017,0,0,1-4.375-3.5A3.042,3.042,0,0,1,57.7-5.762a1.819,1.819,0,0,1,.566-1.328A1.708,1.708,0,0,1,59.512-7.617Zm8.438-10.625a14.621,14.621,0,0,1,3.535.254,2.183,2.183,0,0,1,1.66,2.246,1.893,1.893,0,0,1-.566,1.426,2.323,2.323,0,0,1-1.719.645q-.156,0-.508-.039-1.777-.137-2.832-.137a31.979,31.979,0,0,0-6.289.8,3.485,3.485,0,0,1-.762.1A1.8,1.8,0,0,1,58.672-14a2.239,2.239,0,0,1-.2-.937A2.073,2.073,0,0,1,59.863-16.8a14.712,14.712,0,0,1,3.984-1.113A26.367,26.367,0,0,1,67.949-18.242Zm20.41-6.875q.781-3.516,1.289-5.41a2.038,2.038,0,0,1,2.148-1.68,3.319,3.319,0,0,1,1.719.449,1.728,1.728,0,0,1,.918,1.6,29.3,29.3,0,0,1-.8,3.418q-.176.605-.273,1.055,4.063-.566,6.348-1.074a5.648,5.648,0,0,1,1.191-.156q2.148,0,2.148,2.324a2.072,2.072,0,0,1-1.836,2.129,82.123,82.123,0,0,1-9,1.426l-.2.723q-1.172,4.844-1.66,7.109a18.733,18.733,0,0,1,8.887-2.4q8.594,0,8.594,7.012,0,5.1-5.254,7.813A21.8,21.8,0,0,1,96.191,1.25a13.987,13.987,0,0,1-2.051.273A1.81,1.81,0,0,1,92.266.41a2.357,2.357,0,0,1-.176-.859,1.576,1.576,0,0,1,1.016-1.484,13.365,13.365,0,0,1,1.738-.43,15.1,15.1,0,0,0,5.527-2.207,4.622,4.622,0,0,0,2.3-3.887q0-3.34-3.828-3.34a14.88,14.88,0,0,0-9.062,3.516,3.264,3.264,0,0,1-2.031.762,2.494,2.494,0,0,1-1.777-.7,2.577,2.577,0,0,1-.8-1.953q0-.7,1.934-9.531l.176-.82q-3.125.293-4.961.293A2.037,2.037,0,0,1,80-22.52a2.115,2.115,0,0,1,.938-1.973,3.358,3.358,0,0,1,1.68-.312Q84.707-24.8,88.359-25.117Zm47.344,1.27V-29a1.772,1.772,0,0,1,.605-1.406A2.531,2.531,0,0,1,138.047-31a2.173,2.173,0,0,1,2.129,1.094,1.834,1.834,0,0,1,.215.9v4.727l.313-.02q3.613-.352,3.887-.352a1.823,1.823,0,0,1,1.816,1.191,2.854,2.854,0,0,1,.234,1.172q0,1.895-2.207,2.07-.645.039-2.539.234-.586.059-1.5.137,0,7.109.156,11.25a33.788,33.788,0,0,1,5.742,3.164A2.572,2.572,0,0,1,147.5-3.262a2.257,2.257,0,0,1-.469,1.387,2.057,2.057,0,0,1-1.7.859,2.95,2.95,0,0,1-1.777-.7q-1.895-1.445-3.125-2.246-1.23,4-6.328,4a8.807,8.807,0,0,1-5.625-1.816,5.221,5.221,0,0,1-2.246-4.18,4.016,4.016,0,0,1,2.012-3.555,7.737,7.737,0,0,1,4.219-1.055,16.932,16.932,0,0,1,3.359.41l-.02-.937-.039-2.656q-.059-4.1-.059-5.645-1.855.156-6.172.625-.371.039-.586.039-2.051,0-2.051-2.227a1.913,1.913,0,0,1,1.66-2.109Q129.141-23.2,135.7-23.848Zm.234,17.617a10.161,10.161,0,0,0-3.574-.781q-2.051,0-2.051,1.211a1.7,1.7,0,0,0,.723,1.289,4.1,4.1,0,0,0,2.7.84q2.207,0,2.207-2.09ZM120.8-6.523q.9-1.973,1.387-2.852a1.208,1.208,0,0,1,1.094-.684,1.309,1.309,0,0,1,.625.156,1.212,1.212,0,0,1,.664,1.094,3.853,3.853,0,0,1-.391,1.27,51.909,51.909,0,0,0-1.992,5.625Q121.406.645,119.746.645q-3.672,0-3.672-12.09a128.059,128.059,0,0,1,.918-13.73,22.471,22.471,0,0,1,.469-3.086,2.137,2.137,0,0,1,2.246-1.6,2.819,2.819,0,0,1,1.523.391,1.968,1.968,0,0,1,.9,1.8,12.116,12.116,0,0,1-.2,1.465q-.664,4.082-1.172,10.137-.176,2.227-.176,4.238Q120.586-8.633,120.8-6.523Zm47.3-19.922q-2.637.488-7.031,1.016-1.387.176-1.738.176a1.947,1.947,0,0,1-1.484-.625,2.311,2.311,0,0,1-.625-1.68,1.962,1.962,0,0,1,1.016-1.914,5,5,0,0,1,1.836-.332q4.141-.254,11.172-1.27a7.6,7.6,0,0,1,1.035-.1,2.812,2.812,0,0,1,2.48,1.27,3.311,3.311,0,0,1,.566,1.895,2.353,2.353,0,0,1-.957,1.953,116.183,116.183,0,0,1-12.383,7.93l.078.156q7.344-1.309,16.738-2.7a5.946,5.946,0,0,1,.742-.059,2.132,2.132,0,0,1,2.148,1.27,2.749,2.749,0,0,1,.254,1.172q0,2.012-2.578,2.324A19.536,19.536,0,0,0,172.52-14q-4.453,2.4-4.453,6.172a4.274,4.274,0,0,0,1.6,3.262,9.284,9.284,0,0,0,3.809,1.934,2.166,2.166,0,0,1,1.738,2.285,2.67,2.67,0,0,1-.391,1.445,2.235,2.235,0,0,1-2.031,1.055,9.024,9.024,0,0,1-3.418-1.035Q163.34-1.7,163.34-7.4a7.757,7.757,0,0,1,2.227-5.41,10.676,10.676,0,0,1,3.145-2.266l-.137-.117q-5.508,1.211-13.027,2.578a17.366,17.366,0,0,1-2.012.293,1.876,1.876,0,0,1-1.855-1.328,3.44,3.44,0,0,1-.234-1.211,1.879,1.879,0,0,1,1.563-2.09,20.531,20.531,0,0,0,3.789-1.914q5.566-3.2,11.387-7.363ZM205-24.277a9.086,9.086,0,0,1,.273,2.383,23.5,23.5,0,0,1-1.719,7.6q-4.1,11.328-9.883,11.328a5.37,5.37,0,0,1-4.18-2.246,11.774,11.774,0,0,1-2.5-7.754,13.089,13.089,0,0,1,3.906-9.18,18.848,18.848,0,0,1,6.543-4.434,20.57,20.57,0,0,1,7.93-1.582,14.352,14.352,0,0,1,9.375,3.105,12.34,12.34,0,0,1,4.609,10.1,14.129,14.129,0,0,1-3.4,9.512,16.257,16.257,0,0,1-6.7,4.57,5.25,5.25,0,0,1-1.738.391,1.81,1.81,0,0,1-1.7-1,1.72,1.72,0,0,1-.215-.8q0-1,1.465-1.8,7.246-4.023,7.246-10.937a8.981,8.981,0,0,0-3.086-7.207,8.526,8.526,0,0,0-5.723-2.051Zm-4.414.879a15.663,15.663,0,0,0-6.8,4.668,8.809,8.809,0,0,0-2.148,5.625,8.866,8.866,0,0,0,.938,4.316q.664,1.172,1.387,1.172,1.68,0,3.77-4.375a35.491,35.491,0,0,0,2.461-6.5,14.323,14.323,0,0,0,.566-3.34,7.727,7.727,0,0,0-.1-1.074,2.116,2.116,0,0,0-.059-.352V-23.3A.588.588,0,0,0,200.586-23.4ZM243.73-12.891a1.764,1.764,0,0,1,1.094,1.621,4.655,4.655,0,0,1-.2,1.133l9.16-.508q.43-.02.566-.02,3.457,0,3.457,2.813a13.176,13.176,0,0,1-.664,3.32,16.68,16.68,0,0,1-2.656,5.762,4.6,4.6,0,0,1-3.672,1.855,12.845,12.845,0,0,1-3.73-.742q-4-1.27-4-2.676,0-1.348,1.465-1.348a4.321,4.321,0,0,1,.918.137,17.048,17.048,0,0,0,3.32.469,2.335,2.335,0,0,0,2.031-1.035,17.332,17.332,0,0,0,1.543-3.516,2.512,2.512,0,0,0,.156-.742q0-.605-.937-.547l-8.477.508a17.83,17.83,0,0,1-5.469,5.879,23.755,23.755,0,0,1-7.324,3.262,8.331,8.331,0,0,1-1.8.332,1.459,1.459,0,0,1-1.445-.8,1.811,1.811,0,0,1-.2-.82,1.485,1.485,0,0,1,.859-1.406,12.105,12.105,0,0,1,1.172-.371,18.172,18.172,0,0,0,7.188-4.141,11.44,11.44,0,0,0,1.465-1.6l-8.613.508-.156.02a1.389,1.389,0,0,1-1.445-.918,2.33,2.33,0,0,1-.254-1.055,1.547,1.547,0,0,1,1.016-1.6,2.375,2.375,0,0,1,.605-.117l10.781-.605q.273-.8.508-1.719a2.322,2.322,0,0,1,.664-1.172l-5.1.273q-.371,1.367-2.461,1.367a1.794,1.794,0,0,1-2.051-1.66l-1.309-10.605a1.587,1.587,0,0,1-.02-.2,1.48,1.48,0,0,1,.879-1.328,3.124,3.124,0,0,1,1.543-.391,2.445,2.445,0,0,1,1.895.664l5.391-.371q-.566-.352-1.738-1a1.462,1.462,0,0,1-.9-1.25,1.32,1.32,0,0,1,.313-.84,1.22,1.22,0,0,1,.977-.469A12.311,12.311,0,0,1,242.6-27.07q3.164-1.836,3.184-2.09,0-.137-.41-.137a3.181,3.181,0,0,0-.352.02l-11.445,1.035q-.2.02-.273.02-1.563,0-1.562-1.66,0-1.738,1.563-1.836l15.723-1.074q.2-.02.332-.02a3.611,3.611,0,0,1,2.324.7,1.757,1.757,0,0,1,.7,1.387,2.425,2.425,0,0,1-1.152,1.875,29.89,29.89,0,0,1-5.762,3.457l6.719-.449q.273-.02.547-.02,3.34,0,3.34,2.813a3.154,3.154,0,0,1-.02.41l-.879,8.359a2,2,0,0,1-2.187,2.051q-1.934,0-2.441-1.016Zm7.285-8.008.078-1.055a.32.32,0,0,0,.02-.078q.039-.527-.605-.488l-5.605.332v1.66Zm-.254,2.93-5.859.352v1.738l5.7-.293Zm-15.391,2.6,4.883-.254v-1.738l-5.059.293Zm-.488-4.531,5.371-.332v-1.66l-5.547.332Zm41.289-9.336,16.445-1.445h.234a1.652,1.652,0,0,1,1.738,1.895,1.539,1.539,0,0,1-1.523,1.758l-19.883,1.66a40.6,40.6,0,0,1-3.809,3.574,2.479,2.479,0,0,1-1.543.684,1.614,1.614,0,0,1-1.25-.566,1.554,1.554,0,0,1-.449-1.074,3.476,3.476,0,0,1,1.172-1.992,34.205,34.205,0,0,0,5.117-7.324,2.469,2.469,0,0,1,2.207-1.543,2.559,2.559,0,0,1,1.191.293,1.982,1.982,0,0,1,1.172,1.836,4.344,4.344,0,0,1-.742,2.07Zm5.2,22.109q1.191.84,3.066,2.363a3.037,3.037,0,0,1,1.348,2.3,2.281,2.281,0,0,1-.684,1.6,2.191,2.191,0,0,1-1.621.762,2.417,2.417,0,0,1-1.426-.508,11.866,11.866,0,0,1-1.133-1.055Q280-2.539,278.34-3.984a34.264,34.264,0,0,1-8.613,5.977,3.806,3.806,0,0,1-1.562.449A1.486,1.486,0,0,1,266.8,1.6a1.643,1.643,0,0,1-.215-.8,1.724,1.724,0,0,1,.645-1.289A13.573,13.573,0,0,1,268.75-1.5a39.92,39.92,0,0,0,6.27-5.156q-2.031-1.5-3.945-2.715a2.062,2.062,0,0,1-1.191-1.68,1.629,1.629,0,0,1,.371-1.035,1.59,1.59,0,0,1,1.289-.625,3.4,3.4,0,0,1,1.387.371,53.343,53.343,0,0,1,4.746,2.734,33.011,33.011,0,0,0,2.6-3.652,2.7,2.7,0,0,1,2.3-1.543,2.285,2.285,0,0,1,1.406.469,1.96,1.96,0,0,1,.879,1.68,2.9,2.9,0,0,1-.488,1.543A34.607,34.607,0,0,1,281.367-7.129Zm6.211-8.516-19.395,1.523a2.031,2.031,0,0,1-1.23-.293,1.624,1.624,0,0,1-.781-1.562q0-1.816,1.641-1.953l21.895-1.68q.371-.02.723-.02,3.32,0,3.32,3.027a11.517,11.517,0,0,1-.1,1.27,36.745,36.745,0,0,0-.156,3.789q0,5.293,1.719,8.047a4.087,4.087,0,0,0,.664.8q.547.547.8.547.293,0,.508-.937a21.663,21.663,0,0,0,.586-3.672A1.376,1.376,0,0,1,299.258-8.2q1.484,0,1.484,2.4A21.268,21.268,0,0,1,300,.957q-.9,2.324-2.871,2.324a5.9,5.9,0,0,1-4.1-2.207q-3.984-4.16-3.984-12.949l.02-2.383q0-1.387-1.25-1.387Zm2.051-5.879L273.3-20.156h-.273q-1.6,0-1.6-1.68a1.541,1.541,0,0,1,1.563-1.758l16.27-1.328h.234a1.739,1.739,0,0,1,1.113.371,1.494,1.494,0,0,1,.566,1.27A1.534,1.534,0,0,1,289.629-21.523Zm25.7-5.039q.43-2.441.8-3.828a2.071,2.071,0,0,1,2.168-1.7,3.764,3.764,0,0,1,1.367.234,1.731,1.731,0,0,1,1.27,1.7,3.88,3.88,0,0,1-.117.84q-.156.723-.449,2.148a57.557,57.557,0,0,0,5.684-1.152,3.846,3.846,0,0,1,.957-.137,1.972,1.972,0,0,1,2.031,1.523,2.839,2.839,0,0,1,.156.9q0,1.641-2.012,2.188a59.752,59.752,0,0,1-7.578,1.367q-.234,1.7-.43,4.121a28.423,28.423,0,0,1,5.156-.879q.078-.254.156-.547a3.244,3.244,0,0,1,.508-1.25,1.84,1.84,0,0,1,1.445-.566q2.637,0,2.637,2.051a3.422,3.422,0,0,1-.1.742,13.248,13.248,0,0,1,5.078,2.5A8.9,8.9,0,0,1,337.3-9.2q0,6.426-6.055,9.629a17.057,17.057,0,0,1-3.867,1.465,6.12,6.12,0,0,1-1.484.234A1.554,1.554,0,0,1,324.16.352q0-1.133,1.582-1.738a12.037,12.037,0,0,0,4.785-2.949,7.285,7.285,0,0,0,1.7-4.961,5.848,5.848,0,0,0-4.531-6.055,29.793,29.793,0,0,1-7.988,10.84l.02.137q.313,1.27.41,1.66a4.837,4.837,0,0,1,.215,1.328A2.029,2.029,0,0,1,318.965.664a3.313,3.313,0,0,1-1.211.254,1.987,1.987,0,0,1-2.012-1.562q-.2-.625-.254-.8A11.6,11.6,0,0,1,310.117.488a3.57,3.57,0,0,1-3.223-1.8,7.627,7.627,0,0,1-.957-4.062q0-6.27,8.438-11.074.078-2.109.371-5.547-2.988.156-4.062.156a2.54,2.54,0,0,1-1.641-.488,2.123,2.123,0,0,1-.781-1.758,2.031,2.031,0,0,1,1.152-1.992,2.466,2.466,0,0,1,1.152-.254h.332Q312.6-26.328,315.332-26.562Zm-1.074,14.8q-3.809,2.988-3.809,5.8,0,1.68.938,1.68a7.28,7.28,0,0,0,3.32-1.523A45.788,45.788,0,0,1,314.258-11.758Zm8.672-3.73a19.831,19.831,0,0,0-3.984,1.094q-.039.82-.039,1.387,0,1.465.117,3.5A28.149,28.149,0,0,0,322.93-15.488Zm34.98-10.586a58.089,58.089,0,0,1-7.422,1.113,2.183,2.183,0,0,1-1.7-.664,2.17,2.17,0,0,1-.547-1.543,2.126,2.126,0,0,1,1.406-2.187,8.367,8.367,0,0,1,1.719-.254,60.626,60.626,0,0,0,9.473-1.309,3.485,3.485,0,0,1,.762-.1,2.976,2.976,0,0,1,2.383,1.152,2.6,2.6,0,0,1,.664,1.719,2.48,2.48,0,0,1-.723,1.719q-2.48,2.754-11.523,10.977l.117.137a14.355,14.355,0,0,1,7.93-2.285,11.743,11.743,0,0,1,6.816,1.895,7.388,7.388,0,0,1,3.418,6.426,8.957,8.957,0,0,1-4.766,8.3,17.331,17.331,0,0,1-8.75,2.012,9.17,9.17,0,0,1-4.785-1.211,4.75,4.75,0,0,1-2.656-4.2,3.965,3.965,0,0,1,1.758-3.3,7.778,7.778,0,0,1,4.766-1.406,8.847,8.847,0,0,1,7.559,4.121,5.885,5.885,0,0,0,1.836-4.258,4,4,0,0,0-1.855-3.477,6.549,6.549,0,0,0-3.809-1.016,19.5,19.5,0,0,0-12.187,4.355,3.107,3.107,0,0,1-1.875.781,2,2,0,0,1-1.543-.762,2.776,2.776,0,0,1-.7-1.816,2.283,2.283,0,0,1,.684-1.68q.156-.156,1.113-1,6.66-5.84,12.617-12.129ZM360.2-3.125a5.242,5.242,0,0,0-4.1-2.441q-2.168,0-2.168,1.289a1.187,1.187,0,0,0,.664,1.016,4.689,4.689,0,0,0,2.441.527,11.213,11.213,0,0,0,2.91-.312.6.6,0,0,0,.117-.039A.816.816,0,0,0,360.2-3.125Zm49.688-10.586L379.8-12.441a2.2,2.2,0,0,1-1.289-.293,2.489,2.489,0,0,1-1.113-2.3,2.385,2.385,0,0,1,1.016-2.129,2.051,2.051,0,0,1,1.113-.352l30.078-1.328h.156a2.025,2.025,0,0,1,2.012,1.406,3.594,3.594,0,0,1,.234,1.309Q412.012-13.809,409.883-13.711Zm27.266,5.332a27.186,27.186,0,0,0,2.285-2.969,2.647,2.647,0,0,1,2.227-1.387,2.462,2.462,0,0,1,1.543.586,2.081,2.081,0,0,1,.9,1.68,4.735,4.735,0,0,1-.977,2.422,23.069,23.069,0,0,1-5.391,5.586A31.835,31.835,0,0,1,425.391,3.32a4.034,4.034,0,0,1-.879.137,1.6,1.6,0,0,1-1.543-.977,1.8,1.8,0,0,1-.215-.8,1.6,1.6,0,0,1,.762-1.406q.273-.156,1.934-.762a30.456,30.456,0,0,0,9.688-5.859,2.784,2.784,0,0,1-.762.117,12.747,12.747,0,0,1-4.082-.957,11.22,11.22,0,0,1-1.152-.469,1.58,1.58,0,0,1-.977-1.406,1.209,1.209,0,0,1,1.387-1.348,9.718,9.718,0,0,1,1.016.117,9.453,9.453,0,0,0,1.211.137q.742,0,.742-.957V-15.84a1.7,1.7,0,0,1,1.055-1.7l-14.375.82a1.945,1.945,0,0,1-1.367-.391,2.037,2.037,0,0,1-.664-1.641q0-2.109,1.758-2.207l4.395-.254v-6.074a1.915,1.915,0,0,1,1.465-1.953,2.833,2.833,0,0,1,.938-.156,2.706,2.706,0,0,1,1.6.469,1.916,1.916,0,0,1,.8,1.641V-21.5l4.2-.254V-31.68a1.9,1.9,0,0,1,1.133-1.855,3.057,3.057,0,0,1,1.309-.273,2.774,2.774,0,0,1,1.641.469,1.875,1.875,0,0,1,.84,1.66v2.617l7.676-.547h.156a1.7,1.7,0,0,1,1.758,1.367,3.009,3.009,0,0,1,.137.879,1.729,1.729,0,0,1-1.777,1.973l-7.949.469v2.891l12.871-.762a1.728,1.728,0,0,1,1.738.84,2.684,2.684,0,0,1,.352,1.406q0,1.973-1.8,2.07l-14.512.82a1.738,1.738,0,0,1,1.5,1.816v5.879A4.854,4.854,0,0,1,437.148-8.379Zm6.211-9.1q1.426,0,4.688,2.48,3.437,2.617,3.438,4.336a2.427,2.427,0,0,1-.742,1.7,2.277,2.277,0,0,1-1.719.742,2.814,2.814,0,0,1-2.207-1.367,41.773,41.773,0,0,0-4.375-5,1.955,1.955,0,0,1-.684-1.348,1.609,1.609,0,0,1,.41-1.055A1.434,1.434,0,0,1,443.359-17.48Zm-17.246,1.016a2.6,2.6,0,0,1,1.5.469,2.191,2.191,0,0,1,1,1.914q0,1.563-3.477,4.609-3.4,2.988-4.785,2.988a1.555,1.555,0,0,1-1.27-.605,1.655,1.655,0,0,1-.371-1.055,3.1,3.1,0,0,1,1.133-1.973,28.479,28.479,0,0,0,4.043-5A2.564,2.564,0,0,1,426.113-16.465Zm50.02,4.336V-8.2a2.176,2.176,0,0,1-.43,1.387,2.187,2.187,0,0,1-1.855.82q-2.3,0-2.3-2.207V-9.844q-3.926,2.441-3.926,4.355,0,1.836,3.945,1.836a59.156,59.156,0,0,0,8.027-.488,4.506,4.506,0,0,1,.645-.059,2.165,2.165,0,0,1,1.66.625,2.408,2.408,0,0,1,.605,1.719q0,1.934-2.207,2.266a60.6,60.6,0,0,1-8.008.352,14,14,0,0,1-6.523-1.23A4.868,4.868,0,0,1,462.891-5q0-3.3,3.438-6.074a44.8,44.8,0,0,1,4.8-3.164l.273-.156a1.871,1.871,0,0,0-1.914-1.6,6.925,6.925,0,0,0-4.277,1.445,3.3,3.3,0,0,1-1.953.781,2.108,2.108,0,0,1-1.641-.781,2.4,2.4,0,0,1-.645-1.6,2.386,2.386,0,0,1,.8-1.641,15.678,15.678,0,0,0,1.406-1.836q.547-.82,1.68-2.7l.156-.273h-.234l-1.953.1q-1.309.059-1.523.059-2.5,0-2.5-2.109a1.986,1.986,0,0,1,1.328-2.129,4.76,4.76,0,0,1,1.367-.176q1.992-.02,5.918-.273.664-1.309,1.895-3.965a2.5,2.5,0,0,1,2.285-1.68,3.01,3.01,0,0,1,1.641.469,1.722,1.722,0,0,1,.84,1.523,7.826,7.826,0,0,1-1.25,2.891l-.137.254a34.116,34.116,0,0,0,4.336-.8,3.63,3.63,0,0,1,.879-.137,1.825,1.825,0,0,1,1.816,1.152,2.661,2.661,0,0,1,.254,1.133q0,1.582-1.992,2.07a68.358,68.358,0,0,1-7.734,1.172q-.273.41-.8,1.25-.977,1.562-1.719,2.637l.078.117a10.035,10.035,0,0,1,3.574-.762q3.066,0,4.258,3.242a41.373,41.373,0,0,1,6.426-2.773,5.177,5.177,0,0,1,1.582-.312,1.947,1.947,0,0,1,1.758.918,2.781,2.781,0,0,1,.449,1.563,1.7,1.7,0,0,1-.918,1.6,8.157,8.157,0,0,1-.918.371Q480.156-13.867,476.133-12.129Z" transform="translate(460 3998)" fill="#375565"/>
      <g id="Group_545" data-name="Group 545">
        <circle id="Ellipse_120" data-name="Ellipse 120" cx="4" cy="4" r="4" transform="translate(1041 4007)" fill="#0085d7"/>
        <circle id="Ellipse_120-2" data-name="Ellipse 120" cx="4" cy="4" r="4" transform="translate(1003 4007)" fill="#0085d7"/>
        <circle id="Ellipse_124" data-name="Ellipse 124" cx="4" cy="4" r="4" transform="translate(967 4007)" fill="#0085d7"/>
      </g>
    </g>
    <g id="Group_511" data-name="Group 511" transform="translate(11300.728 17211.252)">
      <path id="Path_1944" data-name="Path 1944" d="M-10917.593-13216.992v-51.426h1092.608v51.426" transform="translate(29.997 0.002)" fill="none" stroke="#0085d7" stroke-width="2"/>
      <line id="Line_162" data-name="Line 162" x2="1091.008" transform="translate(-10887.316 -13190.019)" fill="none" stroke="#0085d7" stroke-width="2"/>
      <path id="Path_1945" data-name="Path 1945" d="M-10894.6-13262.35h-37.809l15.815,37.094-15.815,38.25h55.83" transform="translate(0 12.285)" fill="none" stroke="#0085d7" stroke-width="2"/>
      <path id="Path_1946" data-name="Path 1946" d="M-10914.386-13262.35h37.809l-15.816,37.094,15.816,38.25h-55.83" transform="translate(1126.932 12.285)" fill="none" stroke="#0085d7" stroke-width="2"/>
    </g>
  </g>
</svg>
