<svg xmlns="http://www.w3.org/2000/svg" width="370" height="305.732" viewBox="0 0 370 305.732">
  <g id="Group_551" data-name="Group 551" transform="translate(-360 -4219.268)">
    <rect id="施術風景3" width="370" height="280" rx="20" transform="translate(360 4245)" fill="#fff" opacity="0.8"/>
    <path id="Path_2011" data-name="Path 2011" d="M-21.182-45.732A15.018,15.018,0,0,1-7.91-38.408Q-3.955-32.373-3.955-23q0,8.408-2.959,14.121A17.23,17.23,0,0,1-11.865-2.9,15.248,15.248,0,0,1-21.24.117,15.063,15.063,0,0,1-34.6-7.178q-3.926-6.035-3.926-15.791,0-10.049,4.453-16.2A15.128,15.128,0,0,1-21.182-45.732Zm-.117,6.768q-3.9,0-6.357,4.043-2.637,4.395-2.637,12.1a26.77,26.77,0,0,0,1.611,9.932q2.461,6.035,7.5,6.035a7.108,7.108,0,0,0,5.947-3.369q3.047-4.277,3.047-12.627,0-7.822-2.725-12.217Q-17.314-38.965-21.3-38.965ZM14.326-8.174H34.541a2.686,2.686,0,0,1,2.021.82,3.863,3.863,0,0,1,1.055,2.813,3.5,3.5,0,0,1-1.553,3.223,2.777,2.777,0,0,1-1.523.41H9.58Q4.834-.908,4.834-5.1a9.17,9.17,0,0,1,2.607-5.83Q10.752-14.854,20.127-22.5a49.463,49.463,0,0,0,6.006-5.566,7.868,7.868,0,0,0,2.109-4.951,5.273,5.273,0,0,0-2.549-4.658,8.188,8.188,0,0,0-4.6-1.289,8.467,8.467,0,0,0-7.852,4.775,3.749,3.749,0,0,1-3.428,2.168,3.994,3.994,0,0,1-2.021-.557,3.189,3.189,0,0,1-1.729-2.93A7.007,7.007,0,0,1,7.705-39.7a13.478,13.478,0,0,1,4.541-3.809,18.321,18.321,0,0,1,8.936-2.227,17.258,17.258,0,0,1,9.4,2.549A11.509,11.509,0,0,1,36.475-32.93a12.177,12.177,0,0,1-3.223,8.262A66.047,66.047,0,0,1,25.4-17.93,92.569,92.569,0,0,0,14.326-8.174Z" transform="translate(409 4265)" fill="#fff"/>
    <g id="Layer_2" data-name="Layer 2" transform="translate(451.563 4300.381)">
      <g id="Group_437" data-name="Group 437" transform="translate(0 0)">
        <rect id="Rectangle_87" data-name="Rectangle 87" width="157.176" height="4.843" transform="translate(9.811 123.43)" fill="#0085d7"/>
        <path id="Path_934" data-name="Path 934" d="M41.329,59.56,18.78,78.761l27.891.841V60.728Z" transform="translate(8.908 31.634)" fill="#0085d7"/>
        <rect id="Rectangle_88" data-name="Rectangle 88" width="37.421" height="21.054" transform="translate(69.439 91.194)" fill="#0085d7"/>
        <path id="Path_935" data-name="Path 935" d="M112.58,80.6H74.66V59.56h33.622Z" transform="translate(40.049 31.634)" fill="#0085d7"/>
        <path id="Path_936" data-name="Path 936" d="M85.82,42.72l4.5,12.52h21.054L106.36,42.72Z" transform="translate(46.268 22.25)" fill="#0085d7"/>
        <path id="Path_937" data-name="Path 937" d="M68.335,42.72,57.481,55.24h-21.9l-.825-5,11.7-7.522Z" transform="translate(17.814 22.25)" fill="#0085d7"/>
        <path id="Path_938" data-name="Path 938" d="M35.24,1l.654,34.213L46.935,31.46l6.291,17.005,2.756-30.694L46.935,20.98Z" transform="translate(18.081 -1)" fill="#0085d7"/>
        <path id="Path_939" data-name="Path 939" d="M1,12.261,23.627,20.53l4.968-8.83L44.152,40.183,30.7,30.574l-2.772,9.608Z" transform="translate(-1 4.963)" fill="#0085d7"/>
        <ellipse id="Ellipse_47" data-name="Ellipse 47" cx="11.01" cy="11.01" rx="11.01" ry="11.01" transform="translate(19.373 138.146)" fill="none" stroke="#375565" stroke-linecap="round" stroke-linejoin="round" stroke-width="2"/>
        <ellipse id="Ellipse_48" data-name="Ellipse 48" cx="11.01" cy="11.01" rx="11.01" ry="11.01" transform="translate(131.076 138.146)" fill="none" stroke="#375565" stroke-linecap="round" stroke-linejoin="round" stroke-width="2"/>
        <rect id="Rectangle_89" data-name="Rectangle 89" width="37.312" height="20.758" rx="1.59" transform="translate(68.878 91.396)" fill="none" stroke="#375565" stroke-linecap="round" stroke-linejoin="round" stroke-width="2"/>
        <path id="Path_940" data-name="Path 940" d="M43.484,80.438H21.169a2.029,2.029,0,0,1-1.308-3.582L39.249,60.427a3.127,3.127,0,0,1,2.024-.747h2.211a3.13,3.13,0,0,1,3.13,3.13V77.293a3.13,3.13,0,0,1-3.13,3.13Z" transform="translate(9.105 31.701)" fill="none" stroke="#375565" stroke-linecap="round" stroke-linejoin="round" stroke-width="2"/>
        <path id="Path_941" data-name="Path 941" d="M109.3,80.433H77.173A2.383,2.383,0,0,1,74.79,78.05V62.073a2.383,2.383,0,0,1,2.383-2.383h29.542a2.39,2.39,0,0,1,2.351,2.009l2.57,15.978a2.392,2.392,0,0,1-2.352,2.772Z" transform="translate(40.121 31.706)" fill="none" stroke="#375565" stroke-linecap="round" stroke-linejoin="round" stroke-width="2"/>
        <line id="Line_52" data-name="Line 52" x1="88.157" transform="translate(41.984 150.448)" fill="none" stroke="#375565" stroke-linecap="round" stroke-linejoin="round" stroke-width="2"/>
        <path id="Path_942" data-name="Path 942" d="M16.839,123.376A12.913,12.913,0,0,1,6.53,110.73V92.6a11.365,11.365,0,0,1,4.111-8.736L48,52.909a8.358,8.358,0,0,1,5.45-2.009h95.9c3.395,0,7.849,3.6,8.954,8.627l5.887,26.988a3.069,3.069,0,0,1,.062.529v23.235a13.365,13.365,0,0,1-12.24,13.315" transform="translate(2.082 26.808)" fill="none" stroke="#375565" stroke-linecap="round" stroke-linejoin="round" stroke-width="2"/>
        <path id="Path_943" data-name="Path 943" d="M137.582,55.358H37.122A2.489,2.489,0,0,1,34.63,52.82v-.966a2.626,2.626,0,0,1,.888-1.838L41.7,44.722A7.6,7.6,0,0,1,46.652,42.9h87.114a2.6,2.6,0,0,1,2.3,1.386l3.8,7.288a2.6,2.6,0,0,1-2.3,3.8Z" transform="translate(17.741 22.35)" fill="none" stroke="#375565" stroke-linecap="round" stroke-linejoin="round" stroke-width="2"/>
        <line id="Line_53" data-name="Line 53" x1="14.452" y2="12.474" transform="translate(73.519 65.234)" fill="none" stroke="#375565" stroke-linecap="round" stroke-linejoin="round" stroke-width="2"/>
        <line id="Line_54" data-name="Line 54" x2="4.298" y2="12.474" transform="translate(131.574 65.234)" fill="none" stroke="#375565" stroke-linecap="round" stroke-linejoin="round" stroke-width="2"/>
        <line id="Line_55" data-name="Line 55" x2="26.053" transform="translate(156.958 93.374)" fill="none" stroke="#375565" stroke-linecap="round" stroke-linejoin="round" stroke-width="2"/>
        <line id="Line_56" data-name="Line 56" x2="26.489" transform="translate(160.384 106.082)" fill="none" stroke="#375565" stroke-linecap="round" stroke-linejoin="round" stroke-width="2"/>
        <line id="Line_57" data-name="Line 57" x2="25.493" transform="translate(160.384 114.07)" fill="none" stroke="#375565" stroke-linecap="round" stroke-linejoin="round" stroke-width="2"/>
        <line id="Line_58" data-name="Line 58" x2="26.271" transform="translate(160.384 135.327)" fill="none" stroke="#375565" stroke-linecap="round" stroke-linejoin="round" stroke-width="2"/>
        <line id="Line_59" data-name="Line 59" x2="157.736" transform="translate(8.612 122.308)" fill="none" stroke="#375565" stroke-linecap="round" stroke-linejoin="round" stroke-width="2"/>
        <line id="Line_60" data-name="Line 60" x2="157.736" transform="translate(8.612 130.219)" fill="none" stroke="#375565" stroke-linecap="round" stroke-linejoin="round" stroke-width="2"/>
        <path id="Path_944" data-name="Path 944" d="M35.24,1l.654,34.213L46.935,31.46l6.291,17.005,2.756-30.694L46.935,20.98Z" transform="translate(18.081 -1)" fill="none" stroke="#375565" stroke-linecap="round" stroke-linejoin="round" stroke-width="2"/>
        <path id="Path_945" data-name="Path 945" d="M1,12.261,23.627,20.53l4.968-8.83L44.152,40.183,30.7,30.574l-2.772,9.608Z" transform="translate(-1 4.963)" fill="none" stroke="#375565" stroke-linecap="round" stroke-linejoin="round" stroke-width="2"/>
      </g>
    </g>
  </g>
</svg>
