<svg xmlns="http://www.w3.org/2000/svg" width="276" height="226" viewBox="0 0 276 226">
  <g id="Group_482" data-name="Group 482" transform="translate(-512 -2245)">
    <g id="Group_481" data-name="Group 481" transform="translate(80 30)">
      <g id="Ellipse_102" data-name="Ellipse 102" transform="translate(517 2215)" fill="#fff" stroke="#0085d7" stroke-width="1">
        <circle cx="58" cy="58" r="58" stroke="none"/>
        <circle cx="58" cy="58" r="57.5" fill="none"/>
      </g>
      <g id="Layer_2" data-name="Layer 2" transform="translate(543 2243.637)">
        <g id="Group_476" data-name="Group 476" transform="translate(1 0.983)">
          <path id="Path_1456" data-name="Path 1456" d="M60.688,46.814s-23.131-2.057-32.835-.93c0,0,3.235-7.479,4.7-10.97s6.078-10.4,9.018-13.952,3.92-4.534,5.784-5.611,2.452-1.472,3.824-1.275,2.158,1.077,4.606,2.057,4.509.492,7.353,2.452,4.017,3.529,4.412,4.9a1.448,1.448,0,0,0,2.549.782c1.077-.883,1.472-3.306,1.472-3.306a8.184,8.184,0,0,0,1.96-.711c.589-.391.883-1.178.782-3.138S71.082,6.82,70.884,4.86s-2.255-3.529-5.393-3.824-17.25.686-19.9,1.472S40.4,3.686,37.755,8.094s-16.367,18.23-19.5,20.779-8.429,8.917-8.429,8.917-5.489,5-7.058,6.957S1,49.258,1,52.884,2.666,57.1,6.784,58.861s20.876,6.175,34.892,6.663,29.793,0,29.793,0l10.39-20.582s-11.567.492-21.17,1.863Zm5.153-36.061a1.528,1.528,0,0,1,2.431,1.031l.337,2.654a.673.673,0,0,1-1.1.6L64.019,12.12l1.821-1.363Z" transform="translate(-1 -0.983)" fill="#e5f3fb"/>
          <path id="Path_1457" data-name="Path 1457" d="M81.858,44.96s-11.567.492-21.17,1.863c0,0-23.131-2.057-32.835-.93,0,0,3.235-7.479,4.7-10.97s6.078-10.4,9.018-13.952,3.92-4.534,5.784-5.611,2.452-1.472,3.824-1.275,2.158,1.077,4.606,2.057,4.509.492,7.353,2.452,4.017,3.529,4.412,4.9a1.448,1.448,0,0,0,2.549.782c1.077-.883,1.472-3.306,1.472-3.306a8.184,8.184,0,0,0,1.96-.711c.589-.391.883-1.178.782-3.138S71.082,6.83,70.884,4.87s-2.255-3.529-5.393-3.824-17.25.686-19.9,1.472S40.4,3.7,37.755,8.1s-16.367,18.23-19.5,20.779S9.821,37.8,9.821,37.8s-5.489,5-7.058,6.957S1,49.268,1,52.894s1.666,4.215,5.784,5.977,20.876,6.175,34.892,6.663,29.793,0,29.793,0" transform="translate(-1 -0.989)" fill="none" stroke="#0085d7" stroke-linecap="round" stroke-linejoin="round" stroke-width="1"/>
          <path id="Path_1458" data-name="Path 1458" d="M150.83,25.155l3.491,2.919a.673.673,0,0,0,1.1-.6l-.337-2.654a1.528,1.528,0,0,0-2.431-1.031l-1.821,1.363Z" transform="translate(-87.806 -14.018)" fill="none" stroke="#0085d7" stroke-linecap="round" stroke-linejoin="round" stroke-width="1"/>
        </g>
      </g>
    </g>
    <g id="Group_479" data-name="Group 479" transform="translate(74 24)">
      <g id="Ellipse_104" data-name="Ellipse 104" transform="translate(598 2331)" fill="#fff" stroke="#0085d7" stroke-width="1">
        <circle cx="58" cy="58" r="58" stroke="none"/>
        <circle cx="58" cy="58" r="57.5" fill="none"/>
      </g>
      <g id="Layer_2-2" data-name="Layer 2" transform="translate(615.24 2342)">
        <g id="Group_477" data-name="Group 477" transform="translate(1 1)">
          <path id="Path_1459" data-name="Path 1459" d="M115.865,1s-16.6,15.314-20.112,18.267-4.612,1.845-8.116,2.213-10.888.736-12.178,6.457-.922,9.039,2.767,11.81,7.748,0,7.748,0S85.606,47.936,89.85,51.5s6.826,4.672,11.438.428,3.876-6.089,5.349-12.733,1.291-7.38,4.981-10.147,17.713-16.6,17.713-16.6" transform="translate(-45.571 -1)" fill="#e5f3fb"/>
          <path id="Path_1460" data-name="Path 1460" d="M46.655,182.647s1.318-10.333.922-16.236S45.947,160.139,44.1,157s-6.089-4.426-6.826-11.256,6.089-8.3,11.256-8.3a9.494,9.494,0,0,1,7.566,3.322s5.167-5.586,9.965-4.454,7.748,4.454,7.566,10.725-4.058,6.826-5.9,10.333-3.789,5.9-3.741,11.81,0,13.469,0,13.469" transform="translate(-22.881 -82.647)" fill="#e5f3fb"/>
          <path id="Path_1461" data-name="Path 1461" d="M115.865,1s-16.6,15.314-20.112,18.267-4.612,1.845-8.116,2.213-10.888.736-12.178,6.457-.922,9.039,2.767,11.81,7.748,0,7.748,0S85.606,47.936,89.85,51.5s6.826,4.672,11.438.428,3.876-6.089,5.349-12.733,1.291-7.38,4.981-10.147,17.713-16.6,17.713-16.6" transform="translate(-45.571 -1)" fill="none" stroke="#0085d7" stroke-linecap="round" stroke-linejoin="round" stroke-width="1"/>
          <path id="Path_1462" data-name="Path 1462" d="M46.655,182.647s1.318-10.333.922-16.236S45.947,160.139,44.1,157s-6.089-4.426-6.826-11.256,6.089-8.3,11.256-8.3a9.494,9.494,0,0,1,7.566,3.322s5.167-5.586,9.965-4.454,7.748,4.454,7.566,10.725-4.058,6.826-5.9,10.333-3.789,5.9-3.741,11.81,0,13.469,0,13.469" transform="translate(-22.881 -82.647)" fill="none" stroke="#0085d7" stroke-linecap="round" stroke-linejoin="round" stroke-width="1"/>
          <path id="Path_1463" data-name="Path 1463" d="M104.8,150.59s5.4,1.109,2.633,8.671" transform="translate(-63.704 -91.365)" fill="none" stroke="#0085d7" stroke-linecap="round" stroke-linejoin="round" stroke-width="1"/>
          <path id="Path_1464" data-name="Path 1464" d="M94.077,65.31s-6.089.186-3.876,7.934" transform="translate(-54.592 -39.849)" fill="none" stroke="#0085d7" stroke-linecap="round" stroke-linejoin="round" stroke-width="1"/>
          <line id="Line_136" data-name="Line 136" y1="3.508" x2="9.225" transform="translate(67.159 44.833)" fill="none" stroke="#0085d7" stroke-linecap="round" stroke-linejoin="round" stroke-width="1"/>
          <line id="Line_137" data-name="Line 137" x2="8.857" y2="7.198" transform="translate(66.236 56.826)" fill="none" stroke="#0085d7" stroke-linecap="round" stroke-linejoin="round" stroke-width="1"/>
          <line id="Line_138" data-name="Line 138" x2="3.876" y2="8.671" transform="translate(61.07 67.899)" fill="none" stroke="#0085d7" stroke-linecap="round" stroke-linejoin="round" stroke-width="1"/>
          <line id="Line_139" data-name="Line 139" x2="4.798" y2="7.934" transform="translate(8.302 20.295)" fill="none" stroke="#0085d7" stroke-linecap="round" stroke-linejoin="round" stroke-width="1"/>
          <line id="Line_140" data-name="Line 140" x2="8.671" y2="3.508" transform="translate(0 35.609)" fill="none" stroke="#0085d7" stroke-linecap="round" stroke-linejoin="round" stroke-width="1"/>
          <line id="Line_141" data-name="Line 141" y1="5.349" x2="8.302" transform="translate(1.845 49.264)" fill="none" stroke="#0085d7" stroke-linecap="round" stroke-linejoin="round" stroke-width="1"/>
          <path id="Path_1465" data-name="Path 1465" d="M55.624,89.54c-3.322,4.8-5.183,8.4-3.69,14.205" transform="translate(-31.454 -54.486)" fill="none" stroke="#0085d7" stroke-linecap="round" stroke-linejoin="round" stroke-width="1"/>
        </g>
      </g>
    </g>
    <g id="Group_480" data-name="Group 480" transform="translate(74 24)">
      <g id="Ellipse_103" data-name="Ellipse 103" transform="translate(438 2331)" fill="#fff" stroke="#0085d7" stroke-width="1">
        <circle cx="58" cy="58" r="58" stroke="none"/>
        <circle cx="58" cy="58" r="57.5" fill="none"/>
      </g>
      <g id="Layer_2-3" data-name="Layer 2" transform="translate(442.966 2372.848)">
        <g id="Group_478" data-name="Group 478" transform="translate(1 1)">
          <path id="Path_1466" data-name="Path 1466" d="M32.016,25.9c.4.131,1.323,2.512,1.323,2.512L32.68,29.6l.66,1.189-1.323,1.849s-.66,1.058,5.948,3.436,11.762,4.759,20.747,7.267,9.12,3.7,23.129,1.323,18.236-6.343,22.465-7.8,10.7-3.306,10.7-3.306l-.924-1.588-.529-3.965,2.776-2.907a24.626,24.626,0,0,1-14.14-3.172c-7.137-4.1-26.3-5.154-33.434-5.285S44.576,22.99,40.741,23.519A49.236,49.236,0,0,0,32.02,25.9Z" transform="translate(-21.062 -11.125)" fill="#e5f3fb"/>
          <line id="Line_142" data-name="Line 142" x2="9.536" transform="translate(0 14.14)" fill="none" stroke="#0085d7" stroke-linecap="round" stroke-linejoin="round" stroke-width="1"/>
          <line id="Line_143" data-name="Line 143" x2="8.548" transform="translate(0.988 22.688)" fill="none" stroke="#0085d7" stroke-linecap="round" stroke-linejoin="round" stroke-width="1"/>
          <line id="Line_144" data-name="Line 144" y1="0.162" x2="6.248" transform="translate(2.466 19.566)" fill="none" stroke="#0085d7" stroke-linecap="round" stroke-linejoin="round" stroke-width="1"/>
          <path id="Path_1467" data-name="Path 1467" d="M30.354,25.607l2.632,1.81-1.972,1.478,1.972,1.316-2.632,1.972a18.648,18.648,0,0,1,8.714,3.782c4.11,3.288,21.22,10.852,36.5,9.536s22.024-6.576,29.094-9.208,10.192-2.96,10.192-2.96l-1.478-1.972-.494-3.782,1.972-1.972a22.254,22.254,0,0,0-6.576-1.81c-3.944-.494-20.716-8.054-36.333-7.892s-28.77,6.082-33.211,7.4-8.386,2.3-8.386,2.3Z" transform="translate(-19.996 -10.645)" fill="none" stroke="#0085d7" stroke-linecap="round" stroke-linejoin="round" stroke-width="1"/>
          <line id="Line_145" data-name="Line 145" x1="9.208" transform="translate(94.861 14.14)" fill="none" stroke="#0085d7" stroke-linecap="round" stroke-linejoin="round" stroke-width="1"/>
          <path id="Path_1468" data-name="Path 1468" d="M278.448,65.31c-.494.494-8.548,0-8.548,0" transform="translate(-175.036 -42.622)" fill="none" stroke="#0085d7" stroke-linecap="round" stroke-linejoin="round" stroke-width="1"/>
          <path id="Path_1469" data-name="Path 1469" d="M55.99,9.054l1.972-3.616L61.25,7.082l2.138-3.944,3.948,1.806L70.292,1l4.276,2.96" transform="translate(-36.59 -1)" fill="none" stroke="#0085d7" stroke-linecap="round" stroke-linejoin="round" stroke-width="1"/>
          <path id="Path_1470" data-name="Path 1470" d="M196.26,91.9l3.126,2.3,2.3-3.3,4.77,1.648,1.644-4.759,4.272,3.112,1.81-5.084" transform="translate(-127.375 -55.897)" fill="none" stroke="#0085d7" stroke-linecap="round" stroke-linejoin="round" stroke-width="1"/>
          <path id="Path_1471" data-name="Path 1471" d="M79.29,58.646c8.22,1.316,19.573-.328,27.955,0s13.642-2.152,16.436-1.076" transform="translate(-51.67 -37.437)" fill="none" stroke="#0085d7" stroke-linecap="round" stroke-linejoin="round" stroke-width="1"/>
          <path id="Path_1472" data-name="Path 1472" d="M117.5,41.517c12.824,1.316,31.9-5.355,43.731.988" transform="translate(-76.4 -26.061)" fill="none" stroke="#0085d7" stroke-linecap="round" stroke-linejoin="round" stroke-width="1"/>
          <path id="Path_1473" data-name="Path 1473" d="M106.79,66.76c12.5,3.944,38.242-5.779,46.857-4.413" transform="translate(-69.469 -40.619)" fill="none" stroke="#0085d7" stroke-linecap="round" stroke-linejoin="round" stroke-width="1"/>
        </g>
      </g>
    </g>
  </g>
</svg>
