<svg xmlns="http://www.w3.org/2000/svg" width="222.326" height="248.491" viewBox="0 0 222.326 248.491">
  <g id="Layer_2" data-name="Layer 2" transform="translate(0.504 0.693)">
    <g id="Group_463" data-name="Group 463" transform="translate(-0.001 -0.001)">
      <path id="Path_1374" data-name="Path 1374" d="M33.347,60.21C29.028,62.61,17.057,68,13.931,82.972s-1.8,30.906-3.113,38.105-5.992,17.016-6.705,21.8S3.03,154.259,3.03,154.259s1.316,4.909,14.014-.233,27.314-14.85,27.314-14.85l3.839.96s-1.44-.123.357-4.8,3.113-6.115,3.113-6.115l-10.9-3.716A48.152,48.152,0,0,0,44.6,101.661C43.411,87.757,33.347,60.21,33.347,60.21Z" transform="translate(0.449 21.658)" fill="rgba(0,133,215,0.2)"/>
      <path id="Path_1375" data-name="Path 1375" d="M49.9,64.016c1.316,10.9,2.633,26.244,2.153,33.073S42.7,129.435,42.7,129.435l4.552.713L56.6,106.18l9.351,15.933s5.745-3.716,8.625-4.072a10.157,10.157,0,0,0,3.593-.823s-2.989-.247-6.225-6.486S66.435,94.923,65,84.858s-1.563-15.81-5.389-19.046-4.429-4.552-4.429-4.552l-5.265,2.756Z" transform="translate(15.174 22.048)" fill="rgba(0,133,215,0.2)"/>
      <path id="Path_1376" data-name="Path 1376" d="M25.6,46.037a19.859,19.859,0,0,1,0-12.944c2.4-7.2,6.349-15.22,18.086-17.016S65.857,16.2,71.479,24.7,77.224,46.75,77.224,46.75s-3.716,1.8-15.22.96S40.791,33.093,40.791,33.093s-7.542,5.636-8.748,17.249c0,0-3.113-3.716-6.472-4.319Z" transform="translate(8.43 5.048)" fill="rgba(0,133,215,0.5)"/>
      <path id="Path_1377" data-name="Path 1377" d="M29.076,25.749l5.156-4.2,5.512-3.839s1.673-6.952-.123-9.585-9.1-7.665-16.18-.6-3.469,11.628,0,14.493a23.835,23.835,0,0,0,5.636,3.716Z" transform="translate(6.517 0.765)" fill="rgba(0,133,215,0.5)"/>
      <path id="Path_1378" data-name="Path 1378" d="M88.05,110.4l24.928-19.046,9.1,17.976L150,68.95,123.043,94.235l-7.788-15.344Z" transform="translate(32.007 24.903)" fill="rgba(0,133,215,0.5)"/>
      <path id="Path_1379" data-name="Path 1379" d="M89.54,122.908l28.932-20.828,3.291,15.193L148.72,102.08,117.1,129.024l-3-15.7Z" transform="translate(32.56 37.2)" fill="rgba(0,133,215,0.5)"/>
      <path id="Path_1380" data-name="Path 1380" d="M51.334,153.16l57.274,14.493s.96,2.043,5.745-.713,4.909-2.4,4.909-2.4-14.617-41.7-17.373-47.21a53.4,53.4,0,0,0-7.912-10.9l-6.115.357-4.909,5.032s1.083,7.912,4.909,9.708,12.7,5.869,12.7,5.869l-.6,5.389L92.525,137.4l-9.585-2.1-4.2-.6L67.72,124.516,44.958,122.24S23.115,134.827,15.286,137.4,3.96,138.5,3.96,138.5A24.832,24.832,0,0,0,10.1,152.68c5.992,7.062,15.1,12.217,23.722,8.981a128.724,128.724,0,0,0,17.5-8.5Z" transform="translate(0.794 38.815)" fill="rgba(0,133,215,0.5)"/>
      <path id="Path_1381" data-name="Path 1381" d="M88.05,140.25,133.82,157.5l-3.359,8.748L92.726,157.5l-3.113-5.869,1.193-1.44Z" transform="translate(32.007 51.368)" fill="rgba(0,133,215,0.5)"/>
      <path id="Path_1382" data-name="Path 1382" d="M34.14,24.59c6.705,15.179,17.729,18.429,27.479,18.881s9.749-.823,11.655,2.523" transform="translate(11.997 8.437)" fill="none" stroke="#000" stroke-linecap="round" stroke-linejoin="round" stroke-width="1"/>
      <path id="Path_1383" data-name="Path 1383" d="M74.717,53.029c.48-.562,4.8-3.195,2.07-16.413S59.853,6.053,34.13,15.363" transform="translate(11.993 4.034)" fill="none" stroke="#000" stroke-linecap="round" stroke-linejoin="round" stroke-width="1"/>
      <path id="Path_1384" data-name="Path 1384" d="M32.923,16C23.174,23.788,19.828,33.537,24.3,45.837" transform="translate(7.619 5.249)" fill="none" stroke="#000" stroke-linecap="round" stroke-linejoin="round" stroke-width="1"/>
      <path id="Path_1385" data-name="Path 1385" d="M43.976,17.282c2.879-6.911-6.705-25.6-22.049-11.861s2.427,24.2,7.048,22.967" transform="translate(5.191 -0.503)" fill="none" stroke="#000" stroke-linecap="round" stroke-linejoin="round" stroke-width="1"/>
      <path id="Path_1386" data-name="Path 1386" d="M24.914,6.07c-3.99,8.309-.315,13.492,6.87,13.616" transform="translate(7.963 1.563)" fill="none" stroke="#000" stroke-linecap="round" stroke-linejoin="round" stroke-width="1"/>
      <path id="Path_1387" data-name="Path 1387" d="M20.162,11.66c-.165,7.185,3.291,9.777,9.475,9.763" transform="translate(6.806 3.638)" fill="none" stroke="#000" stroke-linecap="round" stroke-linejoin="round" stroke-width="1"/>
      <path id="Path_1388" data-name="Path 1388" d="M41.567,28.93C36.261,32.084,33.4,37.2,31.955,44.383A10.02,10.02,0,0,0,27.7,41.86c-2.29-.507-7.048,1.22-3.784,7.226s5.485,6.486,8.049,6.486a21.842,21.842,0,0,0,8.309,15.014" transform="translate(7.792 10.048)" fill="none" stroke="#000" stroke-linecap="round" stroke-linejoin="round" stroke-width="1"/>
      <path id="Path_1389" data-name="Path 1389" d="M43.46,69.723c7.829,1.275,17.1-.48,22.364-7.514s3.195-11.984,3.99-20.609" transform="translate(15.456 14.751)" fill="none" stroke="#000" stroke-linecap="round" stroke-linejoin="round" stroke-width="1"/>
      <path id="Path_1390" data-name="Path 1390" d="M60.139,46.06a19.015,19.015,0,0,0-4.8,1.563,14.411,14.411,0,0,1,4.8,0" transform="translate(19.866 16.406)" fill="none" stroke="#000" stroke-linecap="round" stroke-linejoin="round" stroke-width="1"/>
      <ellipse id="Ellipse_89" data-name="Ellipse 89" cx="1.042" cy="1.879" rx="1.042" ry="1.879" transform="translate(56.832 61.534)" fill="none" stroke="#000" stroke-linecap="round" stroke-linejoin="round" stroke-width="1"/>
      <path id="Path_1391" data-name="Path 1391" d="M36.72,41.28c3,2.879,6.678,1.92,7.158-3.99" transform="translate(12.954 13.151)" fill="none" stroke="#000" stroke-linecap="round" stroke-linejoin="round" stroke-width="1"/>
      <path id="Path_1392" data-name="Path 1392" d="M51.97,48.94l1.508,3.195L51.97,53.89" transform="translate(18.615 17.475)" fill="none" stroke="#000" stroke-linecap="round" stroke-linejoin="round" stroke-width="1"/>
      <path id="Path_1393" data-name="Path 1393" d="M47.54,57.979a2.738,2.738,0,0,1,3.4-2.125,1.965,1.965,0,0,1,1.714,2.989" transform="translate(16.971 20.023)" fill="none" stroke="#000" stroke-linecap="round" stroke-linejoin="round" stroke-width="1"/>
      <path id="Path_1394" data-name="Path 1394" d="M76.457,118.886V117.3c-11.82-5.1-13.739-33.882-14.535-42.342s-1.44-11.5-7.953-13.9" transform="translate(19.357 21.97)" fill="none" stroke="#000" stroke-linecap="round" stroke-linejoin="round" stroke-width="1"/>
      <path id="Path_1395" data-name="Path 1395" d="M70.37,102.118c1.124-.178,12.615-1.234,15.974,6.966s-.8,16.344-1.92,17.3a1.72,1.72,0,0,1-2.235,0" transform="translate(25.445 37.162)" fill="none" stroke="#000" stroke-linecap="round" stroke-linejoin="round" stroke-width="1"/>
      <path id="Path_1396" data-name="Path 1396" d="M80.545,108.59s1.124,6.705,0,8.94-2.715.8-2.715.8" transform="translate(28.214 39.616)" fill="none" stroke="#000" stroke-linecap="round" stroke-linejoin="round" stroke-width="1"/>
      <path id="Path_1397" data-name="Path 1397" d="M48.41,115.215S65.262,106.8,69.1,104.7s10.86-4.018,14.055,3.167,21.569,55.588,21.569,55.588-.137,6.225-14.37,5.745l-15.823-31.3" transform="translate(17.294 37.461)" fill="none" stroke="#000" stroke-linecap="round" stroke-linejoin="round" stroke-width="1"/>
      <path id="Path_1398" data-name="Path 1398" d="M87.27,111.67,115.215,79.9l7.35,14.7L152.442,67.12l-31.3,42.644-8.309-15.933L95.566,105.623" transform="translate(31.718 24.223)" fill="none" stroke="#000" stroke-linecap="round" stroke-linejoin="round" stroke-width="1"/>
      <path id="Path_1399" data-name="Path 1399" d="M119.029,112.606l-1.275-9.708L89.48,122.519,113.6,112.7l3.524,15.727,32.1-25.929-27.629,14.864" transform="translate(32.538 37.356)" fill="none" stroke="#000" stroke-linecap="round" stroke-linejoin="round" stroke-width="1"/>
      <path id="Path_1400" data-name="Path 1400" d="M29.7,58.38C20.906,61.89,14.036,66.525,11.486,79.3s-1.6,28.329-3.839,39.97-1.92,10.832-4.319,16.742-4.95,18.525,0,28.589,13.822,18.209,27.122,15.659,48.924-26.2,48.924-26.2" transform="translate(-0.493 20.979)" fill="none" stroke="#000" stroke-linecap="round" stroke-linejoin="round" stroke-width="1"/>
      <path id="Path_1401" data-name="Path 1401" d="M31.445,53.48a16.389,16.389,0,0,1-5.115,4.607" transform="translate(9.098 19.16)" fill="none" stroke="#000" stroke-linecap="round" stroke-linejoin="round" stroke-width="1"/>
      <line id="Line_118" data-name="Line 118" x2="52.777" y2="12.779" transform="translate(53.267 192.934)" fill="none" stroke="#000" stroke-linecap="round" stroke-linejoin="round" stroke-width="1"/>
      <path id="Path_1402" data-name="Path 1402" d="M86.1,138.17l50.967,17.935s-3.195,2.564-4.635,8.46" transform="translate(31.284 50.596)" fill="none" stroke="#000" stroke-linecap="round" stroke-linejoin="round" stroke-width="1"/>
      <path id="Path_1403" data-name="Path 1403" d="M91.81,159.57s58.947,15.81,63.1,16.619A13.727,13.727,0,0,1,163.7,181.3c1.755,2.4,2.55,4.319,6.074,3.839s3.839-.96,7.185-5.115.48-7.994,2.4-11.655,5.745-9.1,6.87-13.9-.96-10.38,0-11.024,2.235-4.045,1.44-4.182a2.739,2.739,0,0,0-1.755.658s1.92-1.755,0-2.235a6.529,6.529,0,0,0-3.359,0s0-1.124-1.6-1.44-3.51,3.017-3.51,3.017.315-4.607-2.235-3.976-3.03,2.715-3.03,5.115.315,4.758-1.275,7.4-7.034,15.878-7.034,15.878" transform="translate(33.403 49.503)" fill="none" stroke="#000" stroke-linecap="round" stroke-linejoin="round" stroke-width="1"/>
      <line id="Line_119" data-name="Line 119" x2="26.875" y2="9.077" transform="translate(167.185 207.908)" fill="none" stroke="#000" stroke-linecap="round" stroke-linejoin="round" stroke-width="1"/>
      <path id="Path_1404" data-name="Path 1404" d="M89.48,149.25s3.51,9.749,5.594,13.739a31.006,31.006,0,0,0,9.9,10.544c4.306,3.03,15.014,7.665,18.059,8.542s4.8,4.868,3.195,5.348a8.485,8.485,0,0,1-3.675,0" transform="translate(32.538 54.709)" fill="none" stroke="#000" stroke-linecap="round" stroke-linejoin="round" stroke-width="1"/>
      <path id="Path_1405" data-name="Path 1405" d="M111.03,174.53c2.879,1.6,3.99,4.155,3.03,4.95a4.4,4.4,0,0,1-2.715.644" transform="translate(40.537 64.092)" fill="none" stroke="#000" stroke-linecap="round" stroke-linejoin="round" stroke-width="1"/>
      <path id="Path_1406" data-name="Path 1406" d="M108.12,174.96c3.195,2.139,6.074,5.649,3.99,6.129a14.406,14.406,0,0,1-3.99.315" transform="translate(39.457 64.252)" fill="none" stroke="#000" stroke-linecap="round" stroke-linejoin="round" stroke-width="1"/>
      <path id="Path_1407" data-name="Path 1407" d="M106.14,176.05c2.4,1.755,4.635,5.115,2.715,5.745s-2.715,0-2.715,0" transform="translate(38.722 64.656)" fill="none" stroke="#000" stroke-linecap="round" stroke-linejoin="round" stroke-width="1"/>
      <path id="Path_1408" data-name="Path 1408" d="M110.75,185.652c3.209,1.988,5.293,6.307,2.18,5.828s-4.072-.987-6.952-3.538-9.749-7.007-13.095-7.967-4.319-3.359-3.839-6.39a21.347,21.347,0,0,0,0-7.829c-.48-2.235-6.554-13.616-6.554-13.616" transform="translate(29.944 55.781)" fill="none" stroke="#000" stroke-linecap="round" stroke-linejoin="round" stroke-width="1"/>
      <path id="Path_1409" data-name="Path 1409" d="M2.92,132.185a34.234,34.234,0,0,0,23.475-3.99,124.785,124.785,0,0,1,19.334-9.585" transform="translate(0.408 43.336)" fill="none" stroke="#000" stroke-linecap="round" stroke-linejoin="round" stroke-width="1"/>
      <path id="Path_1410" data-name="Path 1410" d="M20.74,79c.8,23.488,5.594,36.323,10.544,38.448s14.055,4.689,14.055,4.689" transform="translate(7.023 28.633)" fill="none" stroke="#000" stroke-linecap="round" stroke-linejoin="round" stroke-width="1"/>
      <path id="Path_1411" data-name="Path 1411" d="M46.185,119.27a25.443,25.443,0,0,0-.987,7.843s-7.829-.8-14.7-1.44S19.475,121.038,17.4,114.649,10.37,93.56,10.37,93.56" transform="translate(3.174 34.037)" fill="none" stroke="#000" stroke-linecap="round" stroke-linejoin="round" stroke-width="1"/>
      <path id="Path_1412" data-name="Path 1412" d="M25.17,61.64c4.95,13.9,12.779,31.469,12.3,42.493a76.235,76.235,0,0,1-4.333,21.1" transform="translate(8.667 22.189)" fill="none" stroke="#000" stroke-linecap="round" stroke-linejoin="round" stroke-width="1"/>
      <path id="Path_1413" data-name="Path 1413" d="M53.97,71.163c-7.034,5.91-19.772,4.443-26.34-2.893" transform="translate(9.58 24.65)" fill="none" stroke="#000" stroke-linecap="round" stroke-linejoin="round" stroke-width="1"/>
      <path id="Path_1414" data-name="Path 1414" d="M50.808,64.32C50.89,64.8,52.275,82.8,52.3,90.5s-2.057,14.562-3.647,21.116-6.705,16.77-6.705,16.77" transform="translate(14.896 23.184)" fill="none" stroke="#000" stroke-linecap="round" stroke-linejoin="round" stroke-width="1"/>
      <path id="Path_1415" data-name="Path 1415" d="M57.8,78.53c-.165,11.353-.1,16.934-4.2,26.532s-7.871,19.169-7.871,19.169" transform="translate(16.299 28.459)" fill="none" stroke="#000" stroke-linecap="round" stroke-linejoin="round" stroke-width="1"/>
      <path id="Path_1416" data-name="Path 1416" d="M53.07,94.83a30.492,30.492,0,0,0,9.886,15.124" transform="translate(19.023 34.509)" fill="none" stroke="#000" stroke-linecap="round" stroke-linejoin="round" stroke-width="1"/>
      <path id="Path_1417" data-name="Path 1417" d="M39.97,113.128c.644.494,16.454,3.167,16.454,3.167a25.7,25.7,0,0,1,8.09-8.035c5.279-3.209,8.364-3.4,9.489-2.208s-2.235,2.3-2.879,3.743-3.839,4.237-2.715,6.513,3.195,3.4,7.829,6.431,7.829,3.51,9.585,4.635,1.6,2.674-.48,3.579" transform="translate(14.161 38.424)" fill="none" stroke="#000" stroke-linecap="round" stroke-linejoin="round" stroke-width="1"/>
      <path id="Path_1418" data-name="Path 1418" d="M64.051,119.97c5.265,4.21,11.34,6.28,14.219,6.129s.8,4.045-3.359,3.222-10.572-4.347-14.631-7.377" transform="translate(21.699 43.84)" fill="none" stroke="#000" stroke-linecap="round" stroke-linejoin="round" stroke-width="1"/>
      <path id="Path_1419" data-name="Path 1419" d="M58.58,122.73c5.937,4.58,10.023,7.13,13.246,7.775s2.756-2.235,2.756-2.235" transform="translate(21.068 44.865)" fill="none" stroke="#000" stroke-linecap="round" stroke-linejoin="round" stroke-width="1"/>
      <path id="Path_1420" data-name="Path 1420" d="M36.49,118.03l18.689,1.6s13.081,15.6,21.1,11.244" transform="translate(12.869 43.12)" fill="none" stroke="#000" stroke-linecap="round" stroke-linejoin="round" stroke-width="1"/>
      <path id="Path_1421" data-name="Path 1421" d="M41.04,18.78c4.676,10.2,14.973,17.277,14.973,17.277s1.618-2.66-.686-8.638c0,0,8.3,8.282,12.094,10.435" transform="translate(14.558 6.28)" fill="none" stroke="#000" stroke-linecap="round" stroke-linejoin="round" stroke-width="1"/>
    </g>
  </g>
</svg>
