<svg xmlns="http://www.w3.org/2000/svg" xmlns:xlink="http://www.w3.org/1999/xlink" width="196" height="196" viewBox="0 0 196 196">
  <defs>
    <clipPath id="clip-path">
      <circle id="replicate-prediction-tpckb7rcizlr4djlnysxsbmxw4" cx="94" cy="94" r="94" transform="translate(-13923 -10818)" fill="#fff0ef" stroke="#375565" stroke-width="4"/>
    </clipPath>
  </defs>
  <g id="Group_504" data-name="Group 504" transform="translate(13927 10822)">
    <g id="replicate-prediction-tpckb7rcizlr4djlnysxsbmxw4-2" data-name="replicate-prediction-tpckb7rcizlr4djlnysxsbmxw4" transform="translate(-13923 -10818)" fill="#fff" stroke="#f2f9fd" stroke-width="4">
      <circle cx="94" cy="94" r="94" stroke="none"/>
      <circle cx="94" cy="94" r="96" fill="none"/>
    </g>
    <g id="Mask_Group_1" data-name="Mask Group 1" clip-path="url(#clip-path)">
      <g id="Layer_2" data-name="Layer 2" transform="translate(-13888.936 -10813.083)">
        <g id="Group_516" data-name="Group 516" transform="translate(0.999 1.002)">
          <path id="Path_1947" data-name="Path 1947" d="M143.09,39a34.054,34.054,0,0,1,9.413.983,57.25,57.25,0,0,1,9.249,2.618l1.555-2.29s-4.992-4.748-9.328-5.236-8.837.08-10.883,3.929Z" transform="translate(-76.55 -19.038)" fill="#f2f9fd"/>
          <path id="Path_1948" data-name="Path 1948" d="M142.7,20.531a4.828,4.828,0,0,1-1.475-5.905c1.143-3.109,4.5-7.61,11.946-6.631s12.438,7.938,11.539,12.03-3.517,4.346-3.517,4.346-3.194-4.018-7.938-4.753-10.555.913-10.555.913Z" transform="translate(-75.336 -4.648)" fill="rgba(0,133,215,0.2)"/>
          <path id="Path_1949" data-name="Path 1949" d="M77.443,96.732l-1.8-.819s-2.21.983.9-12.686,12.438-31.1,36.335-28.969,31.835,19.069,30.935,32.9-4.009,17.594-4.009,17.594l-1.639.08s.9-6.547-1.639-17.186a44.678,44.678,0,0,0-8.673-17.594A39.3,39.3,0,0,1,107.887,81.18c-12.194,2.374-22.342,2.866-25.452,4.5s-4.992,11.047-4.992,11.047Z" transform="translate(-40.284 -29.224)" fill="rgba(0,133,215,0.2)"/>
          <path id="Path_1950" data-name="Path 1950" d="M126.326,251.585v13.5a120.373,120.373,0,0,1-17.022,1.962,69.226,69.226,0,0,1-12.85-1.063v-14.4l-3.845,1.555-1.719,2.7-3.03,17.514,3.6,20.951L90.15,315.909l43.209.407V290.458l2.374-14.976L131.8,253.711a23.66,23.66,0,0,0-5.484-2.126Z" transform="translate(-47.183 -134.236)" fill="rgba(0,133,215,0.5)"/>
          <path id="Path_1951" data-name="Path 1951" d="M71.26,89.182c0-18.334,4.847-46.82,42.226-44.029,36.171,2.7,34.209,48.2,26.435,54.748" transform="translate(-38.357 -24.376)" fill="none" stroke="#4d4c4c" stroke-linecap="round" stroke-linejoin="round" stroke-width="1"/>
          <path id="Path_1952" data-name="Path 1952" d="M137.683,20.552a12.675,12.675,0,0,1-2.374-8.837c.492-4.172,5.484-12.194,18.17-10.476s15.3,19.476,4.828,22.178" transform="translate(-72.369 -1.002)" fill="none" stroke="#4d4c4c" stroke-linecap="round" stroke-linejoin="round" stroke-width="1"/>
          <path id="Path_1953" data-name="Path 1953" d="M147.28,20.059c-2.936-4.257-3.016-9,2.548-13.829" transform="translate(-77.723 -3.782)" fill="none" stroke="#4d4c4c" stroke-linecap="round" stroke-linejoin="round" stroke-width="1"/>
          <path id="Path_1954" data-name="Path 1954" d="M163.75,5c-4.009,3.681-5.156,5.891-4.009,13.342" transform="translate(-85.179 -3.128)" fill="none" stroke="#4d4c4c" stroke-linecap="round" stroke-linejoin="round" stroke-width="1"/>
          <path id="Path_1955" data-name="Path 1955" d="M181.323,12.87c3.765,6.954,2.374,9.984-1.883,11.867" transform="translate(-95.877 -7.312)" fill="none" stroke="#4d4c4c" stroke-linecap="round" stroke-linejoin="round" stroke-width="1"/>
          <path id="Path_1956" data-name="Path 1956" d="M141.52,37.592c6.631-4.172,13.913-5.727,20.951,1.962" transform="translate(-75.715 -18.613)" fill="none" stroke="#4d4c4c" stroke-linecap="round" stroke-linejoin="round" stroke-width="1"/>
          <path id="Path_1957" data-name="Path 1957" d="M84.9,72.435c12.11-.407,21.687-10.967,23.977-19.725" transform="translate(-45.609 -28.496)" fill="none" stroke="#4d4c4c" stroke-linecap="round" stroke-linejoin="round" stroke-width="1"/>
          <path id="Path_1958" data-name="Path 1958" d="M79.48,85.8c5.891-7.774,3.845-5.919,16.367-8.322S118.1,66.565,121.3,54.45" transform="translate(-42.728 -29.421)" fill="none" stroke="#4d4c4c" stroke-linecap="round" stroke-linejoin="round" stroke-width="1"/>
          <path id="Path_1959" data-name="Path 1959" d="M134.215,72.28C127.1,83.327,122.761,89.3,106.146,92.168S83.719,92.5,80.53,98.715" transform="translate(-43.286 -38.901)" fill="none" stroke="#4d4c4c" stroke-linecap="round" stroke-linejoin="round" stroke-width="1"/>
          <path id="Path_1960" data-name="Path 1960" d="M80.225,134.85c-3.681,16.2-5.4,32.162,19.968,39.037l-.534,8.757" transform="translate(-42.002 -72.17)" fill="none" stroke="#4d4c4c" stroke-linecap="round" stroke-linejoin="round" stroke-width="1"/>
          <path id="Path_1961" data-name="Path 1961" d="M150.78,160.44V153.4s21.93-.9,25.7-18.085.08-32.9-6.219-42.226" transform="translate(-80.638 -49.966)" fill="none" stroke="#4d4c4c" stroke-linecap="round" stroke-linejoin="round" stroke-width="1"/>
          <path id="Path_1962" data-name="Path 1962" d="M202.51,81.2c6.547,12.85,8.921,22.586,7.282,29.217" transform="translate(-108.144 -43.644)" fill="none" stroke="#4d4c4c" stroke-linecap="round" stroke-linejoin="round" stroke-width="1"/>
          <path id="Path_1963" data-name="Path 1963" d="M209.8,164.368c.773-1.063,5.849-3.929,5.357,3.929s-4.992,6.514-6.256,4.749" transform="translate(-111.541 -87.124)" fill="none" stroke="#4d4c4c" stroke-linecap="round" stroke-linejoin="round" stroke-width="1"/>
          <path id="Path_1964" data-name="Path 1964" d="M71.032,145.116c-1.817-2.21-6.074-2.866-6.238,3.194s4.009,6.547,5.891,5.812" transform="translate(-34.917 -76.789)" fill="none" stroke="#4d4c4c" stroke-linecap="round" stroke-linejoin="round" stroke-width="1"/>
          <ellipse id="Ellipse_122" data-name="Ellipse 122" cx="2.74" cy="1.452" rx="2.74" ry="1.452" transform="translate(51.02 68.004) rotate(-84.51)" fill="none" stroke="#4d4c4c" stroke-linecap="round" stroke-linejoin="round" stroke-width="1"/>
          <ellipse id="Ellipse_123" data-name="Ellipse 123" cx="2.74" cy="1.452" rx="2.74" ry="1.452" transform="translate(78.947 72.082) rotate(-84.51)" fill="none" stroke="#4d4c4c" stroke-linecap="round" stroke-linejoin="round" stroke-width="1"/>
          <path id="Path_1965" data-name="Path 1965" d="M176.99,117.2c3.681-6.3,8.429-4.5,7.938,5.156" transform="translate(-94.574 -60.822)" fill="none" stroke="#4d4c4c" stroke-linecap="round" stroke-linejoin="round" stroke-width="1"/>
          <path id="Path_1966" data-name="Path 1966" d="M135.294,149.42c-2.374,1.278-5.484,2.665-5.484,2.665a22.275,22.275,0,0,1,3.765,4.627" transform="translate(-69.488 -79.917)" fill="none" stroke="#4d4c4c" stroke-linecap="round" stroke-linejoin="round" stroke-width="1"/>
          <path id="Path_1967" data-name="Path 1967" d="M121.692,173.99l18.741,2.046s-2.946,12.85-11.623,11.375-7.938-11.3-7.938-11.3" transform="translate(-64.728 -92.981)" fill="none" stroke="#4d4c4c" stroke-linecap="round" stroke-linejoin="round" stroke-width="1"/>
          <path id="Path_1968" data-name="Path 1968" d="M89.263,238.48c-8.429,1.962-15.3,6.631-17.594,14.484s-6.879,25.367-6.879,25.367" transform="translate(-34.917 -127.271)" fill="none" stroke="#4d4c4c" stroke-linecap="round" stroke-linejoin="round" stroke-width="1"/>
          <path id="Path_1969" data-name="Path 1969" d="M58.859,320.706s-4.172,8.429-6.219,13.5-5.484,7.774-8.757,1.719S33,305.889,33,305.889a15.79,15.79,0,0,0,5.4-1.147c2.782-1.147,5.484-1.962,5.484-1.962l5.891,19.968" transform="translate(-18.014 -161.46)" fill="none" stroke="#4d4c4c" stroke-linecap="round" stroke-linejoin="round" stroke-width="1"/>
          <path id="Path_1970" data-name="Path 1970" d="M42.08,326.118c3.273,0,8.673-2.538,8.673-2.538" transform="translate(-22.842 -172.519)" fill="none" stroke="#4d4c4c" stroke-linecap="round" stroke-linejoin="round" stroke-width="1"/>
          <path id="Path_1971" data-name="Path 1971" d="M47.15,342.086c4.257-.243,8.837-2.946,8.837-2.946" transform="translate(-25.538 -180.792)" fill="none" stroke="#4d4c4c" stroke-linecap="round" stroke-linejoin="round" stroke-width="1"/>
          <path id="Path_1972" data-name="Path 1972" d="M51.34,358.493c4.664,0,9.417-3.273,9.417-3.273" transform="translate(-27.765 -189.342)" fill="none" stroke="#4d4c4c" stroke-linecap="round" stroke-linejoin="round" stroke-width="1"/>
          <path id="Path_1973" data-name="Path 1973" d="M70.04,341.89a15.344,15.344,0,0,1,5.727,4.116" transform="translate(-37.708 -182.255)" fill="none" stroke="#4d4c4c" stroke-linecap="round" stroke-linejoin="round" stroke-width="1"/>
          <path id="Path_1974" data-name="Path 1974" d="M67.77,320.79a24.255,24.255,0,0,1,10.841,6.547" transform="translate(-36.501 -171.036)" fill="none" stroke="#4d4c4c" stroke-linecap="round" stroke-linejoin="round" stroke-width="1"/>
          <path id="Path_1975" data-name="Path 1975" d="M71.26,303.84c3.03.407,7.938,2.946,7.938,2.946" transform="translate(-38.357 -162.023)" fill="none" stroke="#4d4c4c" stroke-linecap="round" stroke-linejoin="round" stroke-width="1"/>
          <path id="Path_1976" data-name="Path 1976" d="M76.16,284.27c1.962.407,6.3,1.639,6.3,1.639" transform="translate(-40.962 -151.618)" fill="none" stroke="#4d4c4c" stroke-linecap="round" stroke-linejoin="round" stroke-width="1"/>
          <path id="Path_1977" data-name="Path 1977" d="M82.89,264.34a21.437,21.437,0,0,1,4.542,1.475" transform="translate(-44.541 -141.021)" fill="none" stroke="#4d4c4c" stroke-linecap="round" stroke-linejoin="round" stroke-width="1"/>
          <path id="Path_1978" data-name="Path 1978" d="M39,270.419l-3.437-10.391a16.437,16.437,0,0,0,2.538-6.954c.412-3.924.407-5.891.407-5.891s-1.719-2.946-2.946-3.194a31.3,31.3,0,0,0-6.875-.08c-1.8.248-3.273,2.454-1.311,3.681a11.066,11.066,0,0,0,4.093,1.475" transform="translate(-14.53 -130.077)" fill="none" stroke="#4d4c4c" stroke-linecap="round" stroke-linejoin="round" stroke-width="1"/>
          <path id="Path_1979" data-name="Path 1979" d="M29.831,216.314c0-.407-2.618-9.82-5.156-16.695s-8.1-7.858-6.383.656a61.921,61.921,0,0,0,5.975,16.039" transform="translate(-10.022 -103.714)" fill="none" stroke="#4d4c4c" stroke-linecap="round" stroke-linejoin="round" stroke-width="1"/>
          <path id="Path_1980" data-name="Path 1980" d="M20.622,234.268c-1.147-.82-5.32-.164-4.257,3.194s1.391,4.009,2.946,5.891,4.257.9,4.257,0" transform="translate(-9.078 -124.862)" fill="none" stroke="#4d4c4c" stroke-linecap="round" stroke-linejoin="round" stroke-width="1"/>
          <path id="Path_1981" data-name="Path 1981" d="M11.964,240.736c-1.555-1.475-5.484-.407-3.517,3.765s1.475,4.172,3.517,5.484,4.336-1.208,4.093-2.281" transform="translate(-4.672 -128.136)" fill="none" stroke="#4d4c4c" stroke-linecap="round" stroke-linejoin="round" stroke-width="1"/>
          <path id="Path_1982" data-name="Path 1982" d="M4.23,250.151c-1.264-1.466-4.453-1.035-2.735,2.473s2.782,4.084,4.664,4.491,3.035-.89,2.786-1.915" transform="translate(-0.999 -133.056)" fill="none" stroke="#4d4c4c" stroke-linecap="round" stroke-linejoin="round" stroke-width="1"/>
          <path id="Path_1983" data-name="Path 1983" d="M10.45,267.49a17.328,17.328,0,0,0,6.378,5.563c2.131,1.306,3.358,2.29,3.685,4.585s1.719,8.35,1.719,8.35" transform="translate(-6.024 -142.696)" fill="none" stroke="#4d4c4c" stroke-linecap="round" stroke-linejoin="round" stroke-width="1"/>
          <path id="Path_1984" data-name="Path 1984" d="M157.42,238.48c5.484,2.374,10.719,3.517,14.648,7.446s6.954,8.837,7.118,17.186-1.147,32.326-1.475,36.747-.82,9.413-.82,9.413" transform="translate(-84.169 -127.271)" fill="none" stroke="#4d4c4c" stroke-linecap="round" stroke-linejoin="round" stroke-width="1"/>
          <path id="Path_1985" data-name="Path 1985" d="M181.654,319.01l1.288-25.208,2.313-15.468s-4.571-17.664-4.575-20.614" transform="translate(-96.536 -137.501)" fill="none" stroke="#4d4c4c" stroke-linecap="round" stroke-linejoin="round" stroke-width="1"/>
          <path id="Path_1986" data-name="Path 1986" d="M135.9,249.36c0,.309.08,14.466.08,14.466a75.64,75.64,0,0,1-14.648,1.391c-7.694-.084-15.468-.571-15.468-.571l.492-14.494" transform="translate(-56.754 -133.056)" fill="none" stroke="#4d4c4c" stroke-linecap="round" stroke-linejoin="round" stroke-width="1"/>
          <path id="Path_1987" data-name="Path 1987" d="M108.84,256.33s1.227,3.428,10.555,3.756a36.234,36.234,0,0,0,16.123-3.1" transform="translate(-58.339 -136.762)" fill="none" stroke="#4d4c4c" stroke-linecap="round" stroke-linejoin="round" stroke-width="1"/>
          <path id="Path_1988" data-name="Path 1988" d="M107.79,272.22a76.546,76.546,0,0,0,13.051,1.545,49.383,49.383,0,0,0,14.934-1.545" transform="translate(-57.78 -145.211)" fill="none" stroke="#4d4c4c" stroke-linecap="round" stroke-linejoin="round" stroke-width="1"/>
          <path id="Path_1989" data-name="Path 1989" d="M91.318,260.36,87.74,277.692l3.086,21.115-1.3,22.094" transform="translate(-47.12 -138.905)" fill="none" stroke="#4d4c4c" stroke-linecap="round" stroke-linejoin="round" stroke-width="1"/>
          <path id="Path_1990" data-name="Path 1990" d="M184.33,271.854a62.787,62.787,0,0,0,6.219-2.154" transform="translate(-98.477 -143.871)" fill="none" stroke="#4d4c4c" stroke-linecap="round" stroke-linejoin="round" stroke-width="1"/>
          <path id="Path_1991" data-name="Path 1991" d="M187.71,290.582c.056.272,6.875-.492,6.875-.492" transform="translate(-100.274 -154.712)" fill="none" stroke="#4d4c4c" stroke-linecap="round" stroke-linejoin="round" stroke-width="1"/>
          <path id="Path_1992" data-name="Path 1992" d="M188.99,310.335c.164,0,6.275-.435,6.275-.435" transform="translate(-100.955 -165.245)" fill="none" stroke="#4d4c4c" stroke-linecap="round" stroke-linejoin="round" stroke-width="1"/>
          <path id="Path_1993" data-name="Path 1993" d="M186.78,331.122a52.32,52.32,0,0,0,6.711-.492" transform="translate(-99.78 -176.268)" fill="none" stroke="#4d4c4c" stroke-linecap="round" stroke-linejoin="round" stroke-width="1"/>
          <path id="Path_1994" data-name="Path 1994" d="M184.56,350.32a58.4,58.4,0,0,0,7.83.164" transform="translate(-98.599 -186.737)" fill="none" stroke="#4d4c4c" stroke-linecap="round" stroke-linejoin="round" stroke-width="1"/>
          <path id="Path_1995" data-name="Path 1995" d="M183.4,367.68a69.546,69.546,0,0,0,8.293.492" transform="translate(-97.983 -195.967)" fill="none" stroke="#4d4c4c" stroke-linecap="round" stroke-linejoin="round" stroke-width="1"/>
          <path id="Path_1996" data-name="Path 1996" d="M183.4,385.27c1.255.136,7.146.272,7.146.272" transform="translate(-97.983 -205.32)" fill="none" stroke="#4d4c4c" stroke-linecap="round" stroke-linejoin="round" stroke-width="1"/>
        </g>
      </g>
    </g>
  </g>
</svg>
