<svg xmlns="http://www.w3.org/2000/svg" width="280" height="321" viewBox="0 0 280 321">
  <g id="Group_557" data-name="Group 557" transform="translate(-360 -4057)">
    <g id="IMG20230814163249_2" data-name="IMG20230814163249~2" transform="translate(360 4098)" fill="#fff" stroke="#0085d7" stroke-width="1">
      <rect width="280" height="280" rx="20" stroke="none"/>
      <rect x="0.5" y="0.5" width="279" height="279" rx="19.5" fill="none"/>
    </g>
    <g id="Ellipse_121" data-name="Ellipse 121" transform="translate(467 4057)" fill="#fff" stroke="#0085d7" stroke-width="1">
      <circle cx="33" cy="33" r="33" stroke="none"/>
      <circle cx="33" cy="33" r="32.5" fill="none"/>
    </g>
    <path id="Path_2019" data-name="Path 2019" d="M-10.591-22.866A7.509,7.509,0,0,1-3.955-19.2,13.8,13.8,0,0,1-1.978-11.5,15.232,15.232,0,0,1-3.457-4.438,8.615,8.615,0,0,1-5.933-1.45,7.624,7.624,0,0,1-10.62.059,7.532,7.532,0,0,1-17.3-3.589a14.265,14.265,0,0,1-1.963-7.9,13.509,13.509,0,0,1,2.227-8.1A7.564,7.564,0,0,1-10.591-22.866Zm-.059,3.384a3.643,3.643,0,0,0-3.179,2.021,11.758,11.758,0,0,0-1.318,6.05,13.385,13.385,0,0,0,.806,4.966q1.23,3.018,3.75,3.018A3.554,3.554,0,0,0-7.617-5.112q1.523-2.139,1.523-6.313a11.581,11.581,0,0,0-1.362-6.108A3.625,3.625,0,0,0-10.649-19.482ZM7.163-4.087H17.271a1.343,1.343,0,0,1,1.011.41,1.932,1.932,0,0,1,.527,1.406,1.749,1.749,0,0,1-.776,1.611,1.388,1.388,0,0,1-.762.205H4.79q-2.373,0-2.373-2.095a4.585,4.585,0,0,1,1.3-2.915,52.887,52.887,0,0,1,6.343-5.786,24.732,24.732,0,0,0,3-2.783,3.934,3.934,0,0,0,1.055-2.476,2.636,2.636,0,0,0-1.274-2.329,4.094,4.094,0,0,0-2.3-.645,4.234,4.234,0,0,0-3.926,2.388,1.875,1.875,0,0,1-1.714,1.084A2,2,0,0,1,3.9-16.289a1.6,1.6,0,0,1-.864-1.465,3.5,3.5,0,0,1,.82-2.095,6.739,6.739,0,0,1,2.271-1.9,9.16,9.16,0,0,1,4.468-1.113,8.629,8.629,0,0,1,4.7,1.274,5.755,5.755,0,0,1,2.944,5.127,6.088,6.088,0,0,1-1.611,4.131A33.023,33.023,0,0,1,12.7-8.965,46.285,46.285,0,0,0,7.163-4.087Z" transform="translate(500 4095)" fill="#0085d7"/>
    <path id="Path_2020" data-name="Path 2020" d="M-18.41-3.516V-.7a.584.584,0,0,1-.164.422.8.8,0,0,1-.6.229.728.728,0,0,1-.65-.3.6.6,0,0,1-.1-.346V-5.906a.577.577,0,0,1,.146-.4.746.746,0,0,1,.568-.223.656.656,0,0,1,.633.34.557.557,0,0,1,.07.281v.615a3.514,3.514,0,0,1,.6-.8,1.886,1.886,0,0,1,1.318-.5,1.519,1.519,0,0,1,1.037.381.822.822,0,0,1,.311.627.745.745,0,0,1-.17.469.733.733,0,0,1-.6.3.634.634,0,0,1-.4-.129.793.793,0,0,0-.5-.17Q-17.795-5.115-18.41-3.516Zm5.209.6a1.618,1.618,0,0,0,.5,1.148,1.8,1.8,0,0,0,1.289.48A2.032,2.032,0,0,0-9.9-1.928a.529.529,0,0,1,.4-.182.661.661,0,0,1,.475.217.674.674,0,0,1,.2.486.873.873,0,0,1-.322.627,3.216,3.216,0,0,1-2.32.8,3.269,3.269,0,0,1-2.15-.715A3.15,3.15,0,0,1-14.76-3.275a3.433,3.433,0,0,1,.645-2.1,2.924,2.924,0,0,1,2.5-1.213,2.791,2.791,0,0,1,2.191.979A2.728,2.728,0,0,1-8.689-3.75a.934.934,0,0,1-.17.639.805.805,0,0,1-.609.2Zm.023-1.178h2.76q.182,0,.182-.146a1.013,1.013,0,0,0-.264-.639,1.375,1.375,0,0,0-1.131-.5,1.587,1.587,0,0,0-.814.223A1.446,1.446,0,0,0-13.178-4.09Zm10.395-1.6.035-.381q.041-.48.627-.48a.653.653,0,0,1,.645.357.633.633,0,0,1,.059.275V-.686a.691.691,0,0,1-.088.352.633.633,0,0,1-.586.287.608.608,0,0,1-.656-.592l-.064-.4A2.083,2.083,0,0,1-4.8,0,2.615,2.615,0,0,1-7.107-1.207a3.636,3.636,0,0,1-.574-2.074A3.469,3.469,0,0,1-7.1-5.291,2.79,2.79,0,0,1-5.854-6.322a2.756,2.756,0,0,1,1.107-.229A2.322,2.322,0,0,1-2.783-5.689Zm-.123,2.508V-3.65a1.567,1.567,0,0,0-.48-1.137,1.536,1.536,0,0,0-1.125-.492A1.406,1.406,0,0,0-5.7-4.664a2.272,2.272,0,0,0-.4,1.377,2.5,2.5,0,0,0,.281,1.225,1.4,1.4,0,0,0,1.295.779,1.405,1.405,0,0,0,.973-.4A1.941,1.941,0,0,0-2.906-3.182Zm5.725-3.4a3.51,3.51,0,0,1,2.039.533.822.822,0,0,1,.416.68.728.728,0,0,1-.141.428.619.619,0,0,1-.527.264.812.812,0,0,1-.48-.205,2.12,2.12,0,0,0-1.33-.463q-.949,0-.949.539a.541.541,0,0,0,.34.492,3.633,3.633,0,0,0,.381.141A17.647,17.647,0,0,1,4.529-3.5a1.623,1.623,0,0,1,.979,1.553A1.717,1.717,0,0,1,4.723-.434,3.309,3.309,0,0,1,2.865.023,3.754,3.754,0,0,1,.656-.586a1.08,1.08,0,0,1-.562-.832.689.689,0,0,1,.135-.4.583.583,0,0,1,.5-.264.666.666,0,0,1,.463.205,2.312,2.312,0,0,0,1.664.627q1.049,0,1.049-.562,0-.381-.527-.639A17.053,17.053,0,0,0,1.74-3.006,1.709,1.709,0,0,1,.334-4.723,1.653,1.653,0,0,1,1.3-6.252,3.147,3.147,0,0,1,2.818-6.586Zm6.814,0a2.911,2.911,0,0,1,2.18.879,3.312,3.312,0,0,1,.9,2.414,3.616,3.616,0,0,1-.551,2.021A2.834,2.834,0,0,1,9.621.023,2.869,2.869,0,0,1,7.289-1.008,3.449,3.449,0,0,1,6.539-3.3,3.283,3.283,0,0,1,7.43-5.7,2.942,2.942,0,0,1,9.633-6.586ZM9.615-5.314a1.336,1.336,0,0,0-1.172.645A2.422,2.422,0,0,0,8.086-3.3a2.785,2.785,0,0,0,.2,1.1,1.377,1.377,0,0,0,1.348.926A1.324,1.324,0,0,0,10.8-1.916,2.485,2.485,0,0,0,11.162-3.3,2.363,2.363,0,0,0,10.781-4.7,1.347,1.347,0,0,0,9.615-5.314Zm5.912-.146a2.592,2.592,0,0,1,.791-.715,2.621,2.621,0,0,1,1.348-.375,2.149,2.149,0,0,1,1.693.715,2.73,2.73,0,0,1,.563,1.875V-.7a.591.591,0,0,1-.141.4.793.793,0,0,1-.627.252.73.73,0,0,1-.662-.316A.606.606,0,0,1,18.4-.7V-3.791a2.045,2.045,0,0,0-.164-.867.891.891,0,0,0-.861-.562,1.624,1.624,0,0,0-1.207.656A1.594,1.594,0,0,0,15.709-3.5V-.7a.584.584,0,0,1-.164.422.8.8,0,0,1-.6.229.736.736,0,0,1-.668-.316A.588.588,0,0,1,14.186-.7V-5.883a.665.665,0,0,1,.111-.393.568.568,0,0,1,.5-.24.613.613,0,0,1,.645.586Z" transform="translate(500 4111)" fill="#0085d7"/>
    <g id="Group_509" data-name="Group 509" transform="translate(-306 -1688)">
      <g id="Layer_2" data-name="Layer 2" transform="translate(765 5846)">
        <g id="Group_471" data-name="Group 471">
          <path id="Path_1422" data-name="Path 1422" d="M25.97,64.47v9.15H1V64.47A10.45,10.45,0,0,1,11.67,54.25H15.3A10.457,10.457,0,0,1,25.97,64.47Z" fill="rgba(0,133,215,0.2)"/>
          <path id="Path_1423" data-name="Path 1423" d="M50.95,64.47v9.15H25.98V64.47A10.45,10.45,0,0,1,36.65,54.25h3.63A10.457,10.457,0,0,1,50.95,64.47Z" fill="rgba(0,133,215,0.2)"/>
          <path id="Path_1424" data-name="Path 1424" d="M75.92,64.47v9.15H50.95V64.47A10.45,10.45,0,0,1,61.62,54.25h3.63A10.457,10.457,0,0,1,75.92,64.47Z" fill="rgba(0,133,215,0.2)"/>
          <path id="Path_1425" data-name="Path 1425" d="M100.89,64.47v9.15H75.92V64.47A10.45,10.45,0,0,1,86.59,54.25h3.63a10.457,10.457,0,0,1,10.67,10.22Z" fill="rgba(0,133,215,0.2)"/>
          <path id="Path_1426" data-name="Path 1426" d="M38.46,54.25H36.64A10.457,10.457,0,0,0,25.97,64.47,10.45,10.45,0,0,0,15.3,54.25H13.49a7.3,7.3,0,0,0,1.53-14.43,10.769,10.769,0,0,1,9.14-4.94h3.63a10.769,10.769,0,0,1,9.14,4.94,7.3,7.3,0,0,0,1.54,14.43Z" fill="rgba(0,133,215,0.2)"/>
          <path id="Path_1427" data-name="Path 1427" d="M63.43,54.25H61.62A10.457,10.457,0,0,0,50.95,64.47,10.45,10.45,0,0,0,40.28,54.25H38.47A7.3,7.3,0,0,0,40,39.82a10.769,10.769,0,0,1,9.14-4.94h3.63a10.769,10.769,0,0,1,9.14,4.94,7.3,7.3,0,0,0,1.53,14.43Z" fill="rgba(0,133,215,0.2)"/>
          <path id="Path_1428" data-name="Path 1428" d="M88.41,54.25H86.6A10.457,10.457,0,0,0,75.93,64.47,10.45,10.45,0,0,0,65.26,54.25H63.45a7.3,7.3,0,0,0,1.53-14.43,10.769,10.769,0,0,1,9.14-4.94h3.63a10.782,10.782,0,0,1,9.14,4.94,7.3,7.3,0,0,0,1.53,14.43Z" fill="rgba(0,133,215,0.2)"/>
          <path id="Path_1429" data-name="Path 1429" d="M50.95,34.88H49.14A10.769,10.769,0,0,0,40,39.82a7.031,7.031,0,0,0-1.53-.16,7.709,7.709,0,0,0-1.53.16,10.769,10.769,0,0,0-9.14-4.94H25.99a4.434,4.434,0,0,0,.52-.02A7.3,7.3,0,0,0,27.73,20.5a10.756,10.756,0,0,1,9.18-5.01h3.63a10.766,10.766,0,0,1,9.12,4.92,7.292,7.292,0,0,0,.77,14.45,4.52,4.52,0,0,0,.52.02Z" fill="rgba(0,133,215,0.2)"/>
          <path id="Path_1430" data-name="Path 1430" d="M75.92,34.88H74.1a10.782,10.782,0,0,0-9.14,4.94,7.031,7.031,0,0,0-1.53-.16,7.709,7.709,0,0,0-1.53.16,10.769,10.769,0,0,0-9.14-4.94H50.95a4.434,4.434,0,0,0,.52-.02A7.3,7.3,0,0,0,52.69,20.5a10.756,10.756,0,0,1,9.18-5.01h.22a7.521,7.521,0,0,0,3.18,0h.22a10.766,10.766,0,0,1,9.12,4.92,7.292,7.292,0,0,0,.77,14.45,4.52,4.52,0,0,0,.52.02Z" fill="rgba(0,133,215,0.2)"/>
          <g id="Group_468" data-name="Group 468">
            <circle id="Ellipse_90" data-name="Ellipse 90" cx="7.3" cy="7.3" r="7.3" transform="translate(6.19 39.65)" fill="none" stroke="#0085d7" stroke-linecap="round" stroke-linejoin="round" stroke-width="2"/>
            <path id="Path_1431" data-name="Path 1431" d="M25.97,73.62V64.47A10.459,10.459,0,0,0,15.3,54.24H11.67A10.459,10.459,0,0,0,1,64.47v9.15H25.97Z" fill="none" stroke="#0085d7" stroke-linecap="round" stroke-linejoin="round" stroke-width="2"/>
            <circle id="Ellipse_91" data-name="Ellipse 91" cx="7.3" cy="7.3" r="7.3" transform="translate(31.16 39.65)" fill="none" stroke="#0085d7" stroke-linecap="round" stroke-linejoin="round" stroke-width="2"/>
            <path id="Path_1432" data-name="Path 1432" d="M50.95,73.62V64.47A10.459,10.459,0,0,0,40.28,54.24H36.65A10.459,10.459,0,0,0,25.98,64.47v9.15H50.95Z" fill="none" stroke="#0085d7" stroke-linecap="round" stroke-linejoin="round" stroke-width="2"/>
            <circle id="Ellipse_92" data-name="Ellipse 92" cx="7.3" cy="7.3" r="7.3" transform="translate(56.13 39.65)" fill="none" stroke="#0085d7" stroke-linecap="round" stroke-linejoin="round" stroke-width="2"/>
            <path id="Path_1433" data-name="Path 1433" d="M75.92,73.62V64.47A10.459,10.459,0,0,0,65.25,54.24H61.62A10.459,10.459,0,0,0,50.95,64.47v9.15Z" fill="none" stroke="#0085d7" stroke-linecap="round" stroke-linejoin="round" stroke-width="2"/>
            <circle id="Ellipse_93" data-name="Ellipse 93" cx="7.3" cy="7.3" r="7.3" transform="translate(81.11 39.65)" fill="none" stroke="#0085d7" stroke-linecap="round" stroke-linejoin="round" stroke-width="2"/>
            <path id="Path_1434" data-name="Path 1434" d="M100.89,73.62V64.47A10.459,10.459,0,0,0,90.22,54.24H86.59A10.459,10.459,0,0,0,75.92,64.47v9.15h24.97Z" fill="none" stroke="#0085d7" stroke-linecap="round" stroke-linejoin="round" stroke-width="2"/>
          </g>
          <circle id="Ellipse_94" data-name="Ellipse 94" cx="7.3" cy="7.3" r="7.3" transform="translate(18.67 20.28)" fill="none" stroke="#0085d7" stroke-linecap="round" stroke-linejoin="round" stroke-width="2"/>
          <path id="Path_1435" data-name="Path 1435" d="M36.82,39.66a10.782,10.782,0,0,0-9.03-4.78H24.16a10.769,10.769,0,0,0-9.14,4.94" fill="none" stroke="#0085d7" stroke-linecap="round" stroke-linejoin="round" stroke-width="2"/>
          <circle id="Ellipse_95" data-name="Ellipse 95" cx="7.3" cy="7.3" r="7.3" transform="translate(43.7 20.28)" fill="none" stroke="#0085d7" stroke-linecap="round" stroke-linejoin="round" stroke-width="2"/>
          <path id="Path_1436" data-name="Path 1436" d="M61.85,39.66a10.782,10.782,0,0,0-9.03-4.78H49.19a10.769,10.769,0,0,0-9.14,4.94" fill="none" stroke="#0085d7" stroke-linecap="round" stroke-linejoin="round" stroke-width="2"/>
          <circle id="Ellipse_96" data-name="Ellipse 96" cx="7.3" cy="7.3" r="7.3" transform="translate(31.24 1)" fill="none" stroke="#0085d7" stroke-linecap="round" stroke-linejoin="round" stroke-width="2"/>
          <path id="Path_1437" data-name="Path 1437" d="M49.39,20.37a10.782,10.782,0,0,0-9.03-4.78H36.73a10.769,10.769,0,0,0-9.14,4.94" fill="none" stroke="#0085d7" stroke-linecap="round" stroke-linejoin="round" stroke-width="2"/>
          <circle id="Ellipse_97" data-name="Ellipse 97" cx="7.3" cy="7.3" r="7.3" transform="translate(56.26 1)" fill="none" stroke="#0085d7" stroke-linecap="round" stroke-linejoin="round" stroke-width="2"/>
          <path id="Path_1438" data-name="Path 1438" d="M74.41,20.37a10.782,10.782,0,0,0-9.03-4.78H61.75a10.769,10.769,0,0,0-9.14,4.94" fill="none" stroke="#0085d7" stroke-linecap="round" stroke-linejoin="round" stroke-width="2"/>
          <circle id="Ellipse_98" data-name="Ellipse 98" cx="7.3" cy="7.3" r="7.3" transform="translate(68.73 20.28)" fill="none" stroke="#0085d7" stroke-linecap="round" stroke-linejoin="round" stroke-width="2"/>
          <path id="Path_1439" data-name="Path 1439" d="M86.87,39.66a10.782,10.782,0,0,0-9.03-4.78H74.21a10.769,10.769,0,0,0-9.14,4.94" fill="none" stroke="#0085d7" stroke-linecap="round" stroke-linejoin="round" stroke-width="2"/>
          <g id="Group_469" data-name="Group 469">
            <line id="Line_120" data-name="Line 120" x2="8.75" transform="translate(1 66.76)" fill="none" stroke="#0085d7" stroke-linecap="round" stroke-linejoin="round" stroke-width="2"/>
            <circle id="Ellipse_99" data-name="Ellipse 99" cx="0.24" cy="0.24" r="0.24" transform="translate(15.08 66.45)" fill="none" stroke="#0085d7" stroke-linecap="round" stroke-linejoin="round" stroke-width="2"/>
          </g>
          <g id="Group_470" data-name="Group 470">
            <line id="Line_121" data-name="Line 121" x1="8.75" transform="translate(92.25 66.76)" fill="none" stroke="#0085d7" stroke-linecap="round" stroke-linejoin="round" stroke-width="2"/>
            <circle id="Ellipse_100" data-name="Ellipse 100" cx="0.24" cy="0.24" r="0.24" transform="translate(86.44 66.45)" fill="none" stroke="#0085d7" stroke-linecap="round" stroke-linejoin="round" stroke-width="2"/>
          </g>
        </g>
      </g>
      <path id="Path_2021" data-name="Path 2021" d="M17.6-16.074a9.774,9.774,0,0,1,3.887,1.152,6.991,6.991,0,0,1,3.027,3.438A6.828,6.828,0,0,1,25-8.906a7.918,7.918,0,0,1-3.711,6.973A13.127,13.127,0,0,1,13.828.078q-5.859,0-9.062-3.262A4.125,4.125,0,0,1,3.3-5.977,2.024,2.024,0,0,1,3.945-7.52a2.447,2.447,0,0,1,1.738-.7,2.092,2.092,0,0,1,1.484.566,6.694,6.694,0,0,1,.586.684,7.409,7.409,0,0,0,6.055,2.578,6.865,6.865,0,0,0,3.73-.937,4.023,4.023,0,0,0,2.012-3.633,4.585,4.585,0,0,0-1.211-3.3,4.8,4.8,0,0,0-2.656-1.348,24.5,24.5,0,0,0-3.789-.234q-2.578,0-2.578-2.187,0-2.09,2.676-2.09a10.019,10.019,0,0,0,4.063-.742,3.6,3.6,0,0,0,2.422-3.5,3.236,3.236,0,0,0-1.387-2.754,5.658,5.658,0,0,0-3.437-.977,6.038,6.038,0,0,0-5.215,2.52,2.11,2.11,0,0,1-1.8.957A2.358,2.358,0,0,1,5.059-23.2a1.941,1.941,0,0,1-.742-1.543,3.438,3.438,0,0,1,.977-2.148,9.576,9.576,0,0,1,2.813-2.187,12.056,12.056,0,0,1,5.7-1.367,11.881,11.881,0,0,1,6.094,1.5,7.25,7.25,0,0,1,3.848,6.66,5.626,5.626,0,0,1-2.227,4.609,7.732,7.732,0,0,1-3.574,1.543ZM42.52-30.488a10.012,10.012,0,0,1,8.848,4.883A18.4,18.4,0,0,1,54-15.332a20.309,20.309,0,0,1-1.973,9.414,11.487,11.487,0,0,1-3.3,3.984A10.165,10.165,0,0,1,42.48.078a10.042,10.042,0,0,1-8.906-4.863q-2.617-4.023-2.617-10.527,0-6.7,2.969-10.8A10.085,10.085,0,0,1,42.52-30.488Zm-.078,4.512a4.857,4.857,0,0,0-4.238,2.7,15.677,15.677,0,0,0-1.758,8.066A17.847,17.847,0,0,0,37.52-8.594q1.641,4.023,5,4.023a4.738,4.738,0,0,0,3.965-2.246q2.031-2.852,2.031-8.418,0-5.215-1.816-8.145A4.833,4.833,0,0,0,42.441-25.977ZM64.1-8.125a3.554,3.554,0,0,1,2.871,1.348,4.622,4.622,0,0,1,1.055,3.086,10.428,10.428,0,0,1-1.465,5.059A11,11,0,0,1,62.949,5.43a2.28,2.28,0,0,1-1.211.41A1.3,1.3,0,0,1,60.43,4.531a1.975,1.975,0,0,1,.742-1.289,9.666,9.666,0,0,0,2.09-3.281,1.671,1.671,0,0,0,.117-.488q0-.293-.586-.391a2.751,2.751,0,0,1-1.641-.82,3.367,3.367,0,0,1-1-2.48,3.729,3.729,0,0,1,1.328-2.949A3.888,3.888,0,0,1,64.1-8.125ZM85.723-30.488a10.012,10.012,0,0,1,8.848,4.883,18.4,18.4,0,0,1,2.637,10.273,20.309,20.309,0,0,1-1.973,9.414,11.487,11.487,0,0,1-3.3,3.984A10.165,10.165,0,0,1,85.684.078a10.042,10.042,0,0,1-8.906-4.863Q74.16-8.809,74.16-15.312q0-6.7,2.969-10.8A10.085,10.085,0,0,1,85.723-30.488Zm-.078,4.512a4.857,4.857,0,0,0-4.238,2.7,15.677,15.677,0,0,0-1.758,8.066,17.847,17.847,0,0,0,1.074,6.621q1.641,4.023,5,4.023a4.738,4.738,0,0,0,3.965-2.246q2.031-2.852,2.031-8.418,0-5.215-1.816-8.145A4.833,4.833,0,0,0,85.645-25.977Zm28.4-4.512a10.012,10.012,0,0,1,8.848,4.883,18.4,18.4,0,0,1,2.637,10.273,20.309,20.309,0,0,1-1.973,9.414,11.487,11.487,0,0,1-3.3,3.984A10.165,10.165,0,0,1,114,.078,10.042,10.042,0,0,1,105.1-4.785q-2.617-4.023-2.617-10.527,0-6.7,2.969-10.8A10.085,10.085,0,0,1,114.043-30.488Zm-.078,4.512a4.857,4.857,0,0,0-4.238,2.7,15.677,15.677,0,0,0-1.758,8.066,17.847,17.847,0,0,0,1.074,6.621q1.641,4.023,5,4.023a4.738,4.738,0,0,0,3.965-2.246q2.031-2.852,2.031-8.418,0-5.215-1.816-8.145A4.833,4.833,0,0,0,113.965-25.977Zm28.4-4.512a10.012,10.012,0,0,1,8.848,4.883,18.4,18.4,0,0,1,2.637,10.273,20.309,20.309,0,0,1-1.973,9.414,11.487,11.487,0,0,1-3.3,3.984,10.165,10.165,0,0,1-6.25,2.012,10.042,10.042,0,0,1-8.906-4.863Q130.8-8.809,130.8-15.312q0-6.7,2.969-10.8A10.085,10.085,0,0,1,142.363-30.488Zm-.078,4.512a4.857,4.857,0,0,0-4.238,2.7,15.677,15.677,0,0,0-1.758,8.066,17.847,17.847,0,0,0,1.074,6.621q1.641,4.023,5,4.023a4.738,4.738,0,0,0,3.965-2.246q2.031-2.852,2.031-8.418,0-5.215-1.816-8.145A4.833,4.833,0,0,0,142.285-25.977ZM167.178-9.385l.186.3a25.193,25.193,0,0,0,4.785,5.43,22.442,22.442,0,0,0,2.959,2.207q.967.6.967,1.016,0,.322-.615.479a9.563,9.563,0,0,1-2.3.391A1.531,1.531,0,0,1,172.07.02a24.332,24.332,0,0,1-1.729-1.836A46.312,46.312,0,0,1,166.3-7.334,18.635,18.635,0,0,1,159.609.225a1.809,1.809,0,0,1-.957.352.956.956,0,0,1-.771-.41.946.946,0,0,1-.205-.576,1.234,1.234,0,0,1,.586-.947,19.166,19.166,0,0,0,7.422-13.135q.205-1.406,1.348-1.406,1.387,0,1.387,1.328a10.26,10.26,0,0,1-.264,1.719A27.24,27.24,0,0,1,167.178-9.385Zm22.588,5.01A20.939,20.939,0,0,1,185.43-.156q-.5.371-.732.518a1.248,1.248,0,0,1-.664.215.88.88,0,0,1-.674-.312.933.933,0,0,1-.283-.645,1.158,1.158,0,0,1,.557-.859,18.255,18.255,0,0,0,4.922-5.645,26.873,26.873,0,0,0,2.5-7.178,1.105,1.105,0,0,1,1.152-1.016,1.869,1.869,0,0,1,.811.176,1.029,1.029,0,0,1,.605,1.006,15.919,15.919,0,0,1-.977,3.73,24.264,24.264,0,0,1-1.807,4.131,23.808,23.808,0,0,1,4.121,3.652,2.013,2.013,0,0,1,.6,1.338,1.232,1.232,0,0,1-.439.957,1.37,1.37,0,0,1-.928.371,1.1,1.1,0,0,1-.811-.332,3.9,3.9,0,0,1-.42-.557A30.094,30.094,0,0,0,189.766-4.375Zm-7.949-1q1.475-.859,2.529-1.611a1.518,1.518,0,0,1,.85-.332.768.768,0,0,1,.605.283.9.9,0,0,1,.234.6,1.48,1.48,0,0,1-.527.938,19.973,19.973,0,0,1-2.051,1.67,27.941,27.941,0,0,1-4.248,2.666,1.552,1.552,0,0,1-.645.176,1.071,1.071,0,0,1-1.016-.615,1.579,1.579,0,0,1-.2-.762,1,1,0,0,1,.381-.84,4.633,4.633,0,0,1,.664-.352q.439-.215,1.133-.566l-.879-9.1a.884.884,0,0,1-.01-.156q0-1.006,1.357-1.006a.965.965,0,0,1,1.1.967Zm2.539-8.848q.781,0,2.266,2.119a4.2,4.2,0,0,1,.938,1.982,1.075,1.075,0,0,1-.41.879,1.449,1.449,0,0,1-.937.332,1.042,1.042,0,0,1-.967-.537,4.473,4.473,0,0,1-.205-.459,25.647,25.647,0,0,0-1.387-3,1.082,1.082,0,0,1-.166-.547.691.691,0,0,1,.313-.586A.923.923,0,0,1,184.355-14.219Zm22.93,3.672,4.541-.293a1.044,1.044,0,0,1,.488.078,1.054,1.054,0,0,1,.654,1.1,1.169,1.169,0,0,1-.449,1.006.966.966,0,0,1-.518.176l-4.717.3v5.645l6.8-.332h.078a1,1,0,0,1,.693.244,1.15,1.15,0,0,1,.371.918,1.148,1.148,0,0,1-.566,1.113,1,1,0,0,1-.469.127L198.828.283h-.1a.975.975,0,0,1-.674-.244,1.138,1.138,0,0,1-.371-.908,1.172,1.172,0,0,1,.547-1.113,1,1,0,0,1,.479-.137l5.938-.283V-14.9a.97.97,0,0,1,.518-.889,1.648,1.648,0,0,1,.811-.205,1.479,1.479,0,0,1,.908.283.949.949,0,0,1,.4.811Z" transform="translate(721 5996)" fill="#0085d7"/>
    </g>
  </g>
</svg>
