<svg xmlns="http://www.w3.org/2000/svg" xmlns:xlink="http://www.w3.org/1999/xlink" width="592" height="547.88" viewBox="0 0 592 547.88">
  <defs>
    <filter id="Ellipse_19" x="170.6" y="0" width="258.4" height="258.4" filterUnits="userSpaceOnUse">
      <feOffset dy="3" input="SourceAlpha"/>
      <feGaussianBlur stdDeviation="5" result="blur"/>
      <feFlood flood-color="#739ed1" flood-opacity="0.161"/>
      <feComposite operator="in" in2="blur"/>
      <feComposite in="SourceGraphic"/>
    </filter>
    <filter id="Ellipse_23" x="333.6" y="268.4" width="258.4" height="258.4" filterUnits="userSpaceOnUse">
      <feOffset dy="3" input="SourceAlpha"/>
      <feGaussianBlur stdDeviation="5" result="blur-2"/>
      <feFlood flood-color="#739ed1" flood-opacity="0.161"/>
      <feComposite operator="in" in2="blur-2"/>
      <feComposite in="SourceGraphic"/>
    </filter>
    <filter id="Ellipse_28" x="0" y="268.4" width="258.4" height="258.4" filterUnits="userSpaceOnUse">
      <feOffset dy="3" input="SourceAlpha"/>
      <feGaussianBlur stdDeviation="5" result="blur-3"/>
      <feFlood flood-color="#739ed1" flood-opacity="0.161"/>
      <feComposite operator="in" in2="blur-3"/>
      <feComposite in="SourceGraphic"/>
    </filter>
  </defs>
  <g id="Group_65" data-name="Group 65" transform="translate(-297 -4544)">
    <g id="Layer_2-2" transform="translate(251 4556)">
      <path id="Path_495" data-name="Path 495" d="M598.2,452,349.6,123.6,101,452" fill="none" stroke="#739ed1" stroke-miterlimit="10" stroke-width="2" stroke-dasharray="2"/>
      <g id="Group_56" data-name="Group 56">
        <g id="Group_55" data-name="Group 55">
          <g transform="matrix(1, 0, 0, 1, 46, -12)" filter="url(#Ellipse_19)">
            <circle id="Ellipse_19-2" data-name="Ellipse 19" cx="114.2" cy="114.2" r="114.2" transform="translate(185.6 12)" fill="#fff"/>
          </g>
          <g id="Group_54" data-name="Group 54" transform="translate(12.435 10.93)">
            <path id="Path_496" data-name="Path 496" d="M278.262,99.728c-8.589,0-15.562-6.633-15.562-14.8s6.973-14.8,15.562-14.8a15.561,15.561,0,0,1,9.949,3.486,18.858,18.858,0,0,1-.255-3.146c0-10.374,8.674-18.793,19.473-18.793a19.531,19.531,0,0,1,11.82,3.912,32.566,32.566,0,0,1,63.437,10.374,34.419,34.419,0,0,1-.425,5.1,16.033,16.033,0,0,1,6.123-1.191A15.606,15.606,0,0,1,404.03,85.527c0,8.674-6.973,14.371-15.647,14.371l-110.122-.17Z" transform="translate(0 -0.03)" fill="#e3ecf6"/>
            <path id="Path_497" data-name="Path 497" d="M296.972,107.6h81.72a5.3,5.3,0,0,1,5.272,5.272v8.674a5.3,5.3,0,0,1-5.272,5.272h-81.72a5.3,5.3,0,0,1-5.272-5.272v-8.674A5.191,5.191,0,0,1,296.972,107.6Z" transform="translate(-4.339 -11.133)" fill="#b8cee8"/>
            <path id="Path_498" data-name="Path 498" d="M378.692,141.5h-81.72a5.3,5.3,0,0,0-5.272,5.272v8.674a5.3,5.3,0,0,0,5.272,5.272h81.72a5.3,5.3,0,0,0,5.272-5.272v-8.674A5.3,5.3,0,0,0,378.692,141.5Zm-6.8,11.735a2.126,2.126,0,1,1,2.126-2.126A2.16,2.16,0,0,1,371.889,153.235Z" transform="translate(-4.339 -16.206)" fill="#b8cee8"/>
            <path id="Path_499" data-name="Path 499" d="M378.692,175.4h-81.72a5.3,5.3,0,0,0-5.272,5.272v8.674a5.3,5.3,0,0,0,5.272,5.272h81.72a5.3,5.3,0,0,0,5.272-5.272v-8.674A5.3,5.3,0,0,0,378.692,175.4Zm-6.8,11.735a2.126,2.126,0,1,1,2.126-2.126A2.16,2.16,0,0,1,371.889,187.135Z" transform="translate(-4.339 -21.278)" fill="#b8cee8"/>
            <path id="Path_500" data-name="Path 500" d="M388.384,100.974a15.647,15.647,0,0,0,0-31.293,16.358,16.358,0,0,0-6.123,1.191,32.554,32.554,0,0,0-63.012-15.477,19.718,19.718,0,0,0-11.82-3.912c-10.715,0-19.473,8.419-19.473,18.793a19.625,19.625,0,0,0,.255,3.146,16.241,16.241,0,0,0-9.949-3.486c-8.589,0-15.562,6.633-15.562,14.8s6.973,14.8,15.562,14.8" transform="translate(0 0)" fill="none" stroke="#739ed1" stroke-linecap="round" stroke-linejoin="round" stroke-width="2"/>
            <line id="Line_10" data-name="Line 10" y2="19.643" transform="translate(352.923 65.429)" fill="none" stroke="#739ed1" stroke-linecap="round" stroke-linejoin="round" stroke-width="2"/>
            <path id="Path_501" data-name="Path 501" d="M374.951,86.77l-7.483,7.483L359.9,86.6" transform="translate(-14.545 -7.991)" fill="none" stroke="#739ed1" stroke-linecap="round" stroke-linejoin="round" stroke-width="2"/>
            <line id="Line_11" data-name="Line 11" y2="19.643" transform="translate(314.402 65.429)" fill="none" stroke="#739ed1" stroke-linecap="round" stroke-linejoin="round" stroke-width="2"/>
            <path id="Path_502" data-name="Path 502" d="M329.651,78.583,322.168,71.1,314.6,78.668" transform="translate(-7.766 -5.671)" fill="none" stroke="#739ed1" stroke-linecap="round" stroke-linejoin="round" stroke-width="2"/>
            <path id="Path_503" data-name="Path 503" d="M296.972,107.6h81.72a5.3,5.3,0,0,1,5.272,5.272v8.674a5.3,5.3,0,0,1-5.272,5.272h-81.72a5.3,5.3,0,0,1-5.272-5.272v-8.674A5.191,5.191,0,0,1,296.972,107.6Z" transform="translate(-4.339 -11.133)" fill="none" stroke="#739ed1" stroke-linecap="round" stroke-linejoin="round" stroke-width="2"/>
            <line id="Line_12" data-name="Line 12" x2="44.559" transform="translate(295.609 106.076)" fill="none" stroke="#739ed1" stroke-linecap="round" stroke-linejoin="round" stroke-width="2"/>
            <line id="Line_13" data-name="Line 13" x2="5.782" transform="translate(349.777 106.076)" fill="none" stroke="#739ed1" stroke-linecap="round" stroke-linejoin="round" stroke-width="2"/>
            <circle id="Ellipse_20" data-name="Ellipse 20" cx="2.126" cy="2.126" r="2.126" transform="translate(365.424 103.95)" fill="none" stroke="#739ed1" stroke-linecap="round" stroke-linejoin="round" stroke-width="2"/>
            <path id="Path_504" data-name="Path 504" d="M296.972,141.5h81.72a5.3,5.3,0,0,1,5.272,5.272v8.674a5.3,5.3,0,0,1-5.272,5.272h-81.72a5.3,5.3,0,0,1-5.272-5.272v-8.674A5.191,5.191,0,0,1,296.972,141.5Z" transform="translate(-4.339 -16.206)" fill="none" stroke="#739ed1" stroke-linecap="round" stroke-linejoin="round" stroke-width="2"/>
            <line id="Line_14" data-name="Line 14" x2="44.559" transform="translate(295.609 134.988)" fill="none" stroke="#739ed1" stroke-linecap="round" stroke-linejoin="round" stroke-width="2"/>
            <line id="Line_15" data-name="Line 15" x2="5.782" transform="translate(349.777 134.988)" fill="none" stroke="#739ed1" stroke-linecap="round" stroke-linejoin="round" stroke-width="2"/>
            <circle id="Ellipse_21" data-name="Ellipse 21" cx="2.126" cy="2.126" r="2.126" transform="translate(365.424 132.863)" fill="none" stroke="#739ed1" stroke-linecap="round" stroke-linejoin="round" stroke-width="2"/>
            <path id="Path_505" data-name="Path 505" d="M296.972,175.4h81.72a5.3,5.3,0,0,1,5.272,5.272v8.674a5.3,5.3,0,0,1-5.272,5.272h-81.72a5.3,5.3,0,0,1-5.272-5.272v-8.674A5.191,5.191,0,0,1,296.972,175.4Z" transform="translate(-4.339 -21.278)" fill="none" stroke="#739ed1" stroke-linecap="round" stroke-linejoin="round" stroke-width="2"/>
            <line id="Line_16" data-name="Line 16" x2="44.559" transform="translate(295.609 163.816)" fill="none" stroke="#739ed1" stroke-linecap="round" stroke-linejoin="round" stroke-width="2"/>
            <line id="Line_17" data-name="Line 17" x2="5.782" transform="translate(349.777 163.816)" fill="none" stroke="#739ed1" stroke-linecap="round" stroke-linejoin="round" stroke-width="2"/>
            <circle id="Ellipse_22" data-name="Ellipse 22" cx="2.126" cy="2.126" r="2.126" transform="translate(365.424 161.69)" fill="none" stroke="#739ed1" stroke-linecap="round" stroke-linejoin="round" stroke-width="2"/>
          </g>
        </g>
      </g>
      <g id="Group_60" data-name="Group 60" transform="translate(-63 -54)">
        <g id="Group_58" data-name="Group 58">
          <g transform="matrix(1, 0, 0, 1, 109, 42)" filter="url(#Ellipse_23)">
            <circle id="Ellipse_23-2" data-name="Ellipse 23" cx="114.2" cy="114.2" r="114.2" transform="translate(348.6 280.4)" fill="#fff"/>
          </g>
          <g id="Group_57" data-name="Group 57" transform="translate(503.475 381.114)">
            <path id="Path_506" data-name="Path 506" d="M502,375.3v74.029H616.654V375.3Zm106.036,65.9h-97.5v-56.63h97.5Z" transform="translate(-491.002 -375.3)" fill="#b8cee8"/>
            <path id="Path_507" data-name="Path 507" d="M625.167,488.4v4.6a3.468,3.468,0,0,1-3.447,3.447H492.047a3.468,3.468,0,0,1-3.447-3.447v-4.6l11-22.488v-.41H614.251v.41Z" transform="translate(-488.6 -391.471)" fill="#e3ecf6"/>
            <rect id="Rectangle_34" data-name="Rectangle 34" width="114.654" height="74.439" transform="translate(10.998 0)" fill="none" stroke="#739ed1" stroke-linecap="round" stroke-linejoin="round" stroke-width="2"/>
            <path id="Path_508" data-name="Path 508" d="M614.251,466H499.6l-11,22.488H625.167Z" transform="translate(-488.6 -391.561)" fill="none" stroke="#739ed1" stroke-linecap="round" stroke-linejoin="round" stroke-width="2"/>
            <rect id="Rectangle_35" data-name="Rectangle 35" width="97.501" height="56.63" transform="translate(19.533 9.356)" fill="none" stroke="#739ed1" stroke-linecap="round" stroke-linejoin="round" stroke-width="2"/>
            <path id="Path_509" data-name="Path 509" d="M488.6,493.4V498a3.468,3.468,0,0,0,3.447,3.447H621.8A3.468,3.468,0,0,0,625.249,498v-4.6" transform="translate(-488.6 -396.473)" fill="none" stroke="#739ed1" stroke-linecap="round" stroke-linejoin="round" stroke-width="2"/>
            <path id="Path_510" data-name="Path 510" d="M585.911,490.765H549.8l3.365-12.065h29.464Z" transform="translate(-499.572 -393.838)" fill="none" stroke="#739ed1" stroke-linecap="round" stroke-linejoin="round" stroke-width="2"/>
          </g>
        </g>
        <g id="Group_59" data-name="Group 59" transform="translate(544.019 400.032)">
          <rect id="Rectangle_36" data-name="Rectangle 36" width="7.469" height="15.265" transform="translate(0.082 28.972)" fill="#739ed1"/>
          <rect id="Rectangle_37" data-name="Rectangle 37" width="7.469" height="25.196" transform="translate(13.049 19.123)" fill="#739ed1"/>
          <rect id="Rectangle_38" data-name="Rectangle 38" width="7.469" height="20.764" transform="translate(26.017 23.473)" fill="#739ed1"/>
          <rect id="Rectangle_39" data-name="Rectangle 39" width="7.469" height="28.725" transform="translate(38.984 15.512)" fill="#739ed1"/>
          <path id="Path_511" data-name="Path 511" d="M544.9,413.96l13.624-10.341,13.706,5.171,13.378-8.289" transform="translate(-541.699 -396.56)" fill="none" stroke="#739ed1" stroke-miterlimit="10" stroke-width="2"/>
          <ellipse id="Ellipse_24" data-name="Ellipse 24" cx="3.939" cy="3.939" rx="3.939" ry="3.939" transform="translate(0 13.132)" fill="#739ed1"/>
          <ellipse id="Ellipse_25" data-name="Ellipse 25" cx="3.939" cy="3.939" rx="3.939" ry="3.939" transform="translate(12.885 3.119)" fill="#739ed1"/>
          <ellipse id="Ellipse_26" data-name="Ellipse 26" cx="3.939" cy="3.939" rx="3.939" ry="3.939" transform="translate(25.853 7.633)" fill="#739ed1"/>
          <ellipse id="Ellipse_27" data-name="Ellipse 27" cx="3.939" cy="3.939" rx="3.939" ry="3.939" transform="translate(39.066 0)" fill="#739ed1"/>
        </g>
      </g>
      <g id="Group_64" data-name="Group 64" transform="translate(61 -54)">
        <g id="Group_63" data-name="Group 63">
          <g transform="matrix(1, 0, 0, 1, -15, 42)" filter="url(#Ellipse_28)">
            <circle id="Ellipse_28-2" data-name="Ellipse 28" cx="114.2" cy="114.2" r="114.2" transform="translate(15 280.4)" fill="#fff"/>
          </g>
          <g id="Group_62" data-name="Group 62">
            <path id="Path_512" data-name="Path 512" d="M139.6,325.2V548.1a114.492,114.492,0,0,0,62.1-37.9V363.1a114.492,114.492,0,0,0-62.1-37.9Z" fill="#f2f7ff"/>
            <g id="Group_61" data-name="Group 61" transform="translate(16.345 7.387)">
              <path id="Path_513" data-name="Path 513" d="M108.183,378.932c-3.577,1.5-83.759,35.35-88.417,37.346H19.6v22.042l13.059-5.407a18.774,18.774,0,0,0,18.715,16.8,19.032,19.032,0,0,0,14.473-6.737l4.824-2.163h0l2.994,1.747v3.161l22.125-9.316V458.2a5.041,5.041,0,0,0,5.074,5.074H127.9v13.807a5.361,5.361,0,0,0,5.323,5.323h10.813a5.307,5.307,0,0,0,5.323-5.323v-38.76A5.307,5.307,0,0,0,144.033,433H133.22a5.307,5.307,0,0,0-5.323,5.323v13.807h-21.21V432l40.59-17.051a4.177,4.177,0,0,0,2.578-3.909v-28.28c-15.471-6.987-37.929-5.323-41.672-3.826ZM51.29,439.319a8.235,8.235,0,1,1,8.235-8.235A8.2,8.2,0,0,1,51.29,439.319Z" transform="translate(0 -0.214)" fill="#b8cee8"/>
              <path id="Path_514" data-name="Path 514" d="M19.6,415.256s25.535-10.064,49.657.416l80.432-34.019s-14.39-7.819-40.923-4.242L19.6,415.256Z" transform="translate(0 -0.023)" fill="#e3ecf6"/>
              <path id="Path_515" data-name="Path 515" d="M159.615,403.661,79.1,437.347V416.387L159.615,382.7Z" transform="translate(-10.01 -1.071)" fill="none" stroke="#739ed1" stroke-linecap="round" stroke-linejoin="round" stroke-width="2"/>
              <path id="Path_516" data-name="Path 516" d="M84.4,449.988l73.528-30.942a4.177,4.177,0,0,0,2.578-3.909V407.9" transform="translate(-10.901 -5.31)" fill="none" stroke="#739ed1" stroke-linecap="round" stroke-linejoin="round" stroke-width="2"/>
              <path id="Path_517" data-name="Path 517" d="M111,447.04v21.21a5.024,5.024,0,0,0,5.074,4.991h32.439a5.573,5.573,0,0,0,5.573-5.573h0a5.573,5.573,0,0,0-5.573-5.573H121.9V441.8" transform="translate(-15.376 -11.013)" fill="none" stroke="#739ed1" stroke-linecap="round" stroke-linejoin="round" stroke-width="2"/>
              <path id="Path_518" data-name="Path 518" d="M149.6,461.648V448.507a5.379,5.379,0,0,1,5.323-5.406h10.813a5.326,5.326,0,0,1,5.323,5.406v38.76a5.379,5.379,0,0,1-5.323,5.407H154.923a5.326,5.326,0,0,1-5.323-5.407v-12.56" transform="translate(-21.87 -11.232)" fill="none" stroke="#739ed1" stroke-linecap="round" stroke-linejoin="round" stroke-width="2"/>
              <path id="Path_519" data-name="Path 519" d="M25.755,434.7l-6.155,2.5V415.15s84.924-35.849,88.583-37.43,26.2-3.244,41.422,3.826" transform="translate(0)" fill="none" stroke="#739ed1" stroke-linecap="round" stroke-linejoin="round" stroke-width="2"/>
              <path id="Path_520" data-name="Path 520" d="M19.6,422.14s26.617-10.73,49.49.083" transform="translate(0 -6.908)" fill="none" stroke="#739ed1" stroke-linecap="round" stroke-linejoin="round" stroke-width="2"/>
              <circle id="Ellipse_29" data-name="Ellipse 29" cx="8.235" cy="8.235" r="8.235" transform="translate(43.056 421.638)" fill="none" stroke="#739ed1" stroke-linecap="round" stroke-linejoin="round" stroke-width="2"/>
              <path id="Path_521" data-name="Path 521" d="M68.371,450.321A18.807,18.807,0,1,1,39.508,426.2" transform="translate(-2.608 -8.389)" fill="none" stroke="#739ed1" stroke-linecap="round" stroke-linejoin="round" stroke-width="2"/>
            </g>
          </g>
        </g>
      </g>
    </g>
    <path id="Path_541" data-name="Path 541" d="M17.98-12.44q-.16.28-.34.67t-.32.77a20.318,20.318,0,0,1-.73,2.01,21.106,21.106,0,0,1-1.16,2.34,17.773,17.773,0,0,1-1.59,2.33A18.963,18.963,0,0,1,10.49-1.2,21.278,21.278,0,0,1,5.76,1.32L3.4-.8A19.191,19.191,0,0,0,6.92-2.18,15.813,15.813,0,0,0,9.5-3.85a15.108,15.108,0,0,0,1.96-1.89,10.851,10.851,0,0,0,1.28-1.77,17.677,17.677,0,0,0,1-1.97,8.483,8.483,0,0,0,.56-1.72H7.56l.92-2.26H14.2a7.338,7.338,0,0,0,.93-.06,3.959,3.959,0,0,0,.81-.18ZM11.46-15.6q-.36.52-.7,1.12t-.52.92a21.668,21.668,0,0,1-1.67,2.49,22.275,22.275,0,0,1-2.25,2.5A22.9,22.9,0,0,1,3.64-6.36L1.38-8.02A19.3,19.3,0,0,0,3.71-9.7a16.483,16.483,0,0,0,1.75-1.71,16.624,16.624,0,0,0,1.27-1.64q.53-.79.91-1.41a7.11,7.11,0,0,0,.5-.99,9.182,9.182,0,0,0,.4-1.11Zm13,.26a9.509,9.509,0,0,0,1,.08q.58.02,1.08.02h7.7q.46,0,1.1-.02a9.913,9.913,0,0,0,1.06-.08v2.58q-.4-.04-1.03-.05t-1.17-.01H26.54q-.48,0-1.05.02t-1.03.04Zm13.62,5.8q-.1.2-.21.44t-.17.4a22.029,22.029,0,0,1-1.15,2.87,11.3,11.3,0,0,1-1.81,2.67A13.176,13.176,0,0,1,31.38-.43,17.1,17.1,0,0,1,27.6,1.16L25.62-1.1a15.672,15.672,0,0,0,4.02-1.4,11.208,11.208,0,0,0,2.9-2.1,7.735,7.735,0,0,0,1.29-1.73,11.545,11.545,0,0,0,.77-1.73H24.94q-.36,0-1.02.02t-1.3.08v-2.6l1.25.08q.61.04,1.07.04h9.9a5.751,5.751,0,0,0,.87-.06,2.847,2.847,0,0,0,.59-.14Zm13.36-6.8q-.06.64-.1,1.03a7.94,7.94,0,0,0-.04.81v2.88H48.52V-14.5q0-.42-.03-.81t-.13-1.03Zm6.74,4.22a6.273,6.273,0,0,0-.23.81q-.11.49-.17.79-.12.7-.29,1.42t-.4,1.44q-.23.72-.52,1.42t-.65,1.38A11.268,11.268,0,0,1,53.89-2.2,12.127,12.127,0,0,1,51.1-.17a15.894,15.894,0,0,1-3.34,1.31l-2.08-2.4q.68-.12,1.44-.33t1.38-.45a10.965,10.965,0,0,0,1.67-.81A9.973,9.973,0,0,0,51.74-4a8.426,8.426,0,0,0,1.3-1.46,9.333,9.333,0,0,0,.86-1.59,11.333,11.333,0,0,0,.58-1.76,17.926,17.926,0,0,0,.34-1.79H44.9v2.92q0,.34.02.76t.04.72H42.2q.04-.38.07-.83t.03-.85v-3.46q0-.34-.02-.85a7.082,7.082,0,0,0-.08-.87q.52.06,1,.08t1.04.02H54.78a5.915,5.915,0,0,0,1.01-.07,5.665,5.665,0,0,0,.65-.15Zm15.46-2.76q.28.4.62.94t.65,1.08q.31.54.55,1l-1.74.78q-.28-.64-.55-1.14t-.55-.97q-.28-.47-.66-.99Zm2.62-1.1q.3.4.65.92t.68,1.05a10.3,10.3,0,0,1,.55.99l-1.68.82q-.32-.64-.61-1.13t-.58-.94q-.29-.45-.67-.93ZM65.66-1.62v-11.5q0-.54-.05-1.22a10.5,10.5,0,0,0-.15-1.2h3.12q-.06.52-.12,1.16t-.06,1.26v11.5q0,.26.03.77T68.51.2q.05.54.09.96H65.46a13.064,13.064,0,0,0,.15-1.39Q65.66-1.04,65.66-1.62Zm2.16-8.74q1,.26,2.23.67t2.49.88q1.26.47,2.38.92t1.84.81L75.64-4.3q-.86-.46-1.88-.9t-2.07-.87q-1.05-.43-2.05-.79t-1.82-.62Z" transform="translate(562 4819)" fill="#4b6380"/>
    <path id="Path_542" data-name="Path 542" d="M3.58-15.12H5.9V1.78H3.58Zm-2.7,3.6h7v2.24h-7Zm2.9,1.06,1.4.6q-.3,1.08-.69,2.24T3.63-5.33A21.745,21.745,0,0,1,2.61-3.2,12.9,12.9,0,0,1,1.48-1.46,7.521,7.521,0,0,0,.99-2.63,11.981,11.981,0,0,0,.36-3.74,9.789,9.789,0,0,0,1.4-5.15q.5-.81.96-1.73t.82-1.84Q3.54-9.64,3.78-10.46Zm2.9-6.32,1.6,1.84a18.511,18.511,0,0,1-2.19.67q-1.19.29-2.42.48t-2.37.33a7.092,7.092,0,0,0-.28-.93,6.422,6.422,0,0,0-.4-.91q1.1-.16,2.2-.39t2.1-.51A18.191,18.191,0,0,0,6.68-16.78ZM5.72-8.8a6.857,6.857,0,0,1,.55.51q.37.37.8.81t.77.81q.34.37.48.53L6.96-4.24q-.18-.38-.47-.86t-.62-1q-.33-.52-.65-.99t-.56-.77ZM12.3-17h2.4v6.4H12.3Zm-3.92.94H18.86v1.44H8.38Zm.36,2.12H18.4v1.4H8.74Zm-.98,2.08H19.28v1.5H7.76Zm3.4,5.84v.86h4.88v-.86Zm0,2.24v.86h4.88v-.86Zm0-4.44v.84h4.88v-.84ZM9.02-9.7H18.3v8.26H9.02ZM14.16-.54l1.6-1.14q.66.36,1.37.8t1.35.85q.64.41,1.1.71l-2.1,1.14q-.36-.3-.92-.71T15.38.26Q14.76-.18,14.16-.54ZM11.24-1.78,13.1-.56a11.158,11.158,0,0,1-1.42.95,16.329,16.329,0,0,1-1.71.85q-.89.38-1.71.64a10.168,10.168,0,0,0-.69-.75Q7.14.7,6.78.38A11.538,11.538,0,0,0,8.44-.21q.84-.37,1.58-.78A9.05,9.05,0,0,0,11.24-1.78ZM22.56-16.32H37.4v1.86H22.56Zm1.42,5.28h4.16v1.56H23.98Zm-.44,2.3h4.62v1.58H23.54Zm8.22,0h4.66v1.58H31.76Zm0-2.3h4.2v1.56h-4.2Zm-8.3,7.52h12v1.8h-12ZM22.74-.7H35.62V1.22H22.74Zm6.02-14.92h2.36v8.66H28.76ZM23.02-6.36H36.84V1.86h-2.4V-4.46H23.02Zm-1.84-7.28H38.84v4.6H36.62v-2.74H23.32v2.74H21.18ZM46.4-6.72H59.12v2.14H46.4Zm6.88-7.68h2.2v3.14a.842.842,0,0,0,.08.46q.08.1.36.1h1.02a.352.352,0,0,0,.34-.27,5.4,5.4,0,0,0,.14-1.27,3.314,3.314,0,0,0,.88.46q.58.22,1.02.34a5.708,5.708,0,0,1-.35,1.63,1.578,1.578,0,0,1-.68.82,2.346,2.346,0,0,1-1.11.23H55.54a3.494,3.494,0,0,1-1.42-.23,1.209,1.209,0,0,1-.67-.78,5.135,5.135,0,0,1-.17-1.47Zm-6.82-1.78H59.12v3.48H56.96v-1.5H48.54v2.04H46.46Zm4.98,7.44H53.8V1.72H51.44ZM50-14.38h2.22a13.8,13.8,0,0,1-.28,2.27,4.968,4.968,0,0,1-.75,1.78A4.548,4.548,0,0,1,49.7-9a9.526,9.526,0,0,1-2.52.94,3.68,3.68,0,0,0-.47-.93,5.477,5.477,0,0,0-.67-.85,8.591,8.591,0,0,0,2.05-.64,3.019,3.019,0,0,0,1.16-.93,3.47,3.47,0,0,0,.55-1.28A9.884,9.884,0,0,0,50-14.38Zm4.54,8.8a10.91,10.91,0,0,0,1.31,1.82A13.014,13.014,0,0,0,57.61-2.1,12.06,12.06,0,0,0,59.56-.84a3.95,3.95,0,0,0-.6.55q-.32.35-.61.72a8.041,8.041,0,0,0-.49.69A10.692,10.692,0,0,1,55.92-.5a18.719,18.719,0,0,1-1.75-2.12A14.969,14.969,0,0,1,52.8-4.96Zm-3.62-.26,1.88.62a14.6,14.6,0,0,1-1.56,2.58,14.854,14.854,0,0,1-2.03,2.2,11.108,11.108,0,0,1-2.39,1.62Q46.54.76,46.1.22a9.328,9.328,0,0,0-.8-.88,10.8,10.8,0,0,0,2.28-1.3,11.857,11.857,0,0,0,1.94-1.8A10.168,10.168,0,0,0,50.92-5.84Zm-9.48-9.2,1.38-1.76q.6.26,1.27.62t1.29.74a5.333,5.333,0,0,1,.98.74L44.9-12.78a5.992,5.992,0,0,0-.93-.77q-.59-.41-1.25-.81A12.044,12.044,0,0,0,41.44-15.04Zm-.86,5.5,1.24-1.88q.62.2,1.31.49t1.33.62a6.3,6.3,0,0,1,1.04.65l-1.3,2.1a6.284,6.284,0,0,0-.99-.7q-.61-.36-1.3-.7T40.58-9.54Zm.5,9.76q.5-.78,1.07-1.83t1.17-2.25q.6-1.2,1.12-2.36L46.28-4.8q-.46,1.06-.98,2.18T44.26-.42Q43.74.66,43.2,1.64ZM71.82-13.7q-.2,1.52-.52,3.24a31.519,31.519,0,0,1-.86,3.48A17.877,17.877,0,0,1,69.08-3.5a7.628,7.628,0,0,1-1.71,2.25,3.071,3.071,0,0,1-2.03.79,3.165,3.165,0,0,1-2.03-.75,5.123,5.123,0,0,1-1.48-2.07,7.739,7.739,0,0,1-.55-3,7.834,7.834,0,0,1,.7-3.28,8.726,8.726,0,0,1,1.95-2.73,9.245,9.245,0,0,1,2.92-1.87,9.481,9.481,0,0,1,3.61-.68,8.9,8.9,0,0,1,3.35.6,7.54,7.54,0,0,1,2.55,1.66,7.205,7.205,0,0,1,1.62,2.48,8.266,8.266,0,0,1,.56,3.06,8.053,8.053,0,0,1-.86,3.76A7.109,7.109,0,0,1,75.13-.54,10.934,10.934,0,0,1,70.92.94l-1.5-2.38q.58-.06,1.02-.14t.84-.18a7.611,7.611,0,0,0,1.79-.69,5.586,5.586,0,0,0,1.45-1.12,4.9,4.9,0,0,0,.97-1.57,5.419,5.419,0,0,0,.35-1.98,6.222,6.222,0,0,0-.36-2.16,4.863,4.863,0,0,0-1.06-1.71,4.671,4.671,0,0,0-1.7-1.12,6.3,6.3,0,0,0-2.3-.39,6.594,6.594,0,0,0-2.82.57,6.6,6.6,0,0,0-2.06,1.47,6.454,6.454,0,0,0-1.27,1.94,5.184,5.184,0,0,0-.43,1.98,5,5,0,0,0,.24,1.67,2.528,2.528,0,0,0,.59,1,1.079,1.079,0,0,0,.75.33,1.168,1.168,0,0,0,.83-.43,4.8,4.8,0,0,0,.81-1.31,17.723,17.723,0,0,0,.8-2.22,27.317,27.317,0,0,0,.78-3.08,31.344,31.344,0,0,0,.46-3.2Zm16.92,3.44H99.58v2.38H88.74Zm4.22-6.64h2.42V1.8H92.96ZM81.58-10.86h6.46v1.82H81.58Zm.12-5.5h6.36v1.8H81.7Zm-.12,8.24h6.46v1.8H81.58Zm-.98-5.56h8.22v1.9H80.6Zm2.08,8.32h5.3V.74h-5.3v-1.9h3.18v-2.3H82.68Zm-1.16,0H83.6V1.52H81.52Zm26.64-5.16v1.7h1.96v-1.7Zm0,3.62v1.72h1.96V-6.9Zm0-7.22v1.68h1.96v-1.68Zm-2.02-2.08h6.08V-3.1h-6.08Zm3.38,14.12,1.82-1.02q.38.46.79,1.02t.76,1.1q.35.54.57.96l-1.92,1.14a8.073,8.073,0,0,0-.52-.98q-.34-.56-.73-1.15T109.52-2.08Zm-2.84-.84,2.18.6a14.605,14.605,0,0,1-1.22,2.28,13.28,13.28,0,0,1-1.46,1.9q-.22-.18-.57-.42T104.9.98q-.36-.22-.62-.36A9.12,9.12,0,0,0,105.65-1,10,10,0,0,0,106.68-2.92ZM116.52-17h2.18V-.9a4.265,4.265,0,0,1-.19,1.42,1.447,1.447,0,0,1-.73.8,3.662,3.662,0,0,1-1.33.37,18.465,18.465,0,0,1-1.99.09A7.293,7.293,0,0,0,114.2.63a8.892,8.892,0,0,0-.42-1.15q.76.02,1.42.03t.9.01a.531.531,0,0,0,.33-.11.431.431,0,0,0,.09-.31Zm-3.3,2.06h2.06v11.6h-2.06Zm-11.9-.14,1.36-1.74q.54.22,1.15.54t1.16.67a6.034,6.034,0,0,1,.89.67l-1.44,1.92a4.687,4.687,0,0,0-.83-.71q-.53-.37-1.13-.73A12.473,12.473,0,0,0,101.32-15.08Zm-.76,5.36,1.32-1.78q.56.22,1.17.51t1.16.62a6.1,6.1,0,0,1,.89.63L103.7-7.8a7.061,7.061,0,0,0-.85-.66q-.53-.36-1.13-.69T100.56-9.72ZM100.9.34q.38-.78.83-1.84t.92-2.25q.47-1.19.85-2.35l1.94,1.24q-.32,1.08-.72,2.19T103.9-.49q-.42,1.07-.84,2.07Z" transform="translate(368 5090)" fill="#4b6380"/>
    <path id="Path_543" data-name="Path 543" d="M8.74-10.26H19.58v2.38H8.74Zm4.22-6.64h2.42V1.8H12.96ZM1.58-10.86H8.04v1.82H1.58Zm.12-5.5H8.06v1.8H1.7ZM1.58-8.12H8.04v1.8H1.58ZM.6-13.68H8.82v1.9H.6ZM2.68-5.36h5.3V.74H2.68v-1.9H5.86v-2.3H2.68Zm-1.16,0H3.6V1.52H1.52Zm26.64-5.16v1.7h1.96v-1.7Zm0,3.62v1.72h1.96V-6.9Zm0-7.22v1.68h1.96v-1.68ZM26.14-16.2h6.08V-3.1H26.14ZM29.52-2.08,31.34-3.1q.38.46.79,1.02t.76,1.1q.35.54.57.96L31.54,1.12a8.073,8.073,0,0,0-.52-.98q-.34-.56-.73-1.15T29.52-2.08Zm-2.84-.84,2.18.6A14.605,14.605,0,0,1,27.64-.04a13.281,13.281,0,0,1-1.46,1.9q-.22-.18-.57-.42T24.9.98q-.36-.22-.62-.36A9.12,9.12,0,0,0,25.65-1,10,10,0,0,0,26.68-2.92ZM36.52-17H38.7V-.9A4.265,4.265,0,0,1,38.51.52a1.447,1.447,0,0,1-.73.8,3.662,3.662,0,0,1-1.33.37,18.465,18.465,0,0,1-1.99.09A7.293,7.293,0,0,0,34.2.63a8.892,8.892,0,0,0-.42-1.15q.76.02,1.42.03t.9.01a.531.531,0,0,0,.33-.11.431.431,0,0,0,.09-.31Zm-3.3,2.06h2.06v11.6H33.22Zm-11.9-.14,1.36-1.74q.54.22,1.15.54t1.16.67a6.034,6.034,0,0,1,.89.67l-1.44,1.92a4.686,4.686,0,0,0-.83-.71q-.53-.37-1.13-.73A12.472,12.472,0,0,0,21.32-15.08Zm-.76,5.36,1.32-1.78q.56.22,1.17.51t1.16.62a6.1,6.1,0,0,1,.89.63L23.7-7.8a7.061,7.061,0,0,0-.85-.66q-.53-.36-1.13-.69T20.56-9.72ZM20.9.34q.38-.78.83-1.84t.92-2.25q.47-1.19.85-2.35l1.94,1.24q-.32,1.08-.72,2.19T23.9-.49q-.42,1.07-.84,2.07ZM43.76-15.1q.48.08,1.06.12t1.08.04h6.54q.52,0,1.08-.04t1.08-.12v2.58q-.52-.04-1.08-.05t-1.08-.01H45.9q-.52,0-1.1.01t-1.04.05ZM41.44-9.98q.44.06.95.09t.97.03h13.1q.32,0,.87-.03t.95-.09v2.6q-.36-.04-.88-.05t-.94-.01H43.36q-.44,0-.97.02t-.95.06Zm10.24,1.4a16.347,16.347,0,0,1-.34,3.49,11.37,11.37,0,0,1-.98,2.79,7.126,7.126,0,0,1-.95,1.4A10.758,10.758,0,0,1,48.02.46a8.584,8.584,0,0,1-1.68,1.08L44-.16a7.436,7.436,0,0,0,2.04-1.19,7.849,7.849,0,0,0,1.58-1.67,6.748,6.748,0,0,0,1.02-2.54,16.548,16.548,0,0,0,.26-3.02Zm4.12-7.9q.26.36.55.86t.56,1q.27.5.47.88l-1.6.7q-.32-.62-.75-1.41a15.381,15.381,0,0,0-.83-1.37Zm2.36-.9q.26.38.56.89t.59,1q.29.49.47.83l-1.6.7q-.3-.64-.75-1.42t-.85-1.34Zm3.68,8.12.92.05q.56.03,1.17.05t1.13.02H75.8q.7,0,1.32-.05t1.02-.07v3.14l-1.02-.06q-.68-.04-1.32-.04H65.06q-.86,0-1.76.03t-1.46.07Zm26.74-.1q.92.52,2.01,1.23T92.8-6.66q1.12.76,2.11,1.48T96.58-3.9l-1.9,2.26q-.66-.6-1.63-1.39T90.96-4.65q-1.12-.83-2.21-1.59T86.8-7.54Zm9.4-3.4a5.888,5.888,0,0,0-.36.66,5.987,5.987,0,0,0-.3.76,20.5,20.5,0,0,1-.81,2.05,22.591,22.591,0,0,1-1.21,2.3A20.282,20.282,0,0,1,93.7-4.7a21.645,21.645,0,0,1-3.41,3.34,18.247,18.247,0,0,1-4.87,2.68L83.1-.7a17.8,17.8,0,0,0,3.64-1.52A15.971,15.971,0,0,0,89.41-4.1a19.073,19.073,0,0,0,1.97-2,13.99,13.99,0,0,0,1.29-1.75,17.416,17.416,0,0,0,1.06-1.94,9.286,9.286,0,0,0,.63-1.73H87.6l.92-2.28H94.2a7.5,7.5,0,0,0,.95-.06,4.683,4.683,0,0,0,.79-.16Zm-6.6-3.08q-.36.52-.71,1.12t-.53.92a22.01,22.01,0,0,1-1.72,2.55,26.454,26.454,0,0,1-2.33,2.63,20.373,20.373,0,0,1-2.73,2.28L81.2-8a17.378,17.378,0,0,0,2.99-2.31,18.905,18.905,0,0,0,2.05-2.34,22.073,22.073,0,0,0,1.32-2.01,6.622,6.622,0,0,0,.51-.97,8.329,8.329,0,0,0,.41-1.11Z" transform="translate(720 5090)" fill="#4b6380"/>
  </g>
</svg>
