<svg xmlns="http://www.w3.org/2000/svg" width="810.84" height="86.88" viewBox="0 0 810.84 86.88">
  <path id="Path_943" data-name="Path 943" d="M37.56,1.44a68.532,68.532,0,0,1-19.32-2.7A45.2,45.2,0,0,1,3.36-8.28l6.6-14.64a48.22,48.22,0,0,0,12.78,6.3,46.966,46.966,0,0,0,14.94,2.46,31.116,31.116,0,0,0,9.3-1.14,10.889,10.889,0,0,0,5.22-3.18,7.153,7.153,0,0,0,1.68-4.68,6.33,6.33,0,0,0-2.64-5.34,21.677,21.677,0,0,0-6.96-3.24q-4.32-1.26-9.54-2.4T24.3-36.96a44.156,44.156,0,0,1-9.54-4.32,21.23,21.23,0,0,1-7.02-6.96,20.52,20.52,0,0,1-2.7-11.04,23.438,23.438,0,0,1,3.9-13.14A26.679,26.679,0,0,1,20.7-81.9q7.86-3.54,19.74-3.54a66.041,66.041,0,0,1,15.6,1.86A44.954,44.954,0,0,1,69.6-78l-6,14.76a51.062,51.062,0,0,0-11.76-4.98,43.258,43.258,0,0,0-11.52-1.62,27.246,27.246,0,0,0-9.24,1.32,10.9,10.9,0,0,0-5.16,3.42,7.931,7.931,0,0,0-1.56,4.86A6.216,6.216,0,0,0,27-55.02a20.848,20.848,0,0,0,6.96,3.18q4.32,1.2,9.54,2.4t10.44,2.76a40.364,40.364,0,0,1,9.54,4.2,21.23,21.23,0,0,1,7.02,6.96A20.272,20.272,0,0,1,73.2-24.6a22.708,22.708,0,0,1-3.96,12.96A27.663,27.663,0,0,1,57.42-2.16Q49.56,1.44,37.56,1.44ZM86.52,0V-84h36.36q11.28,0,19.44,3.66a28.466,28.466,0,0,1,12.6,10.5,29.312,29.312,0,0,1,4.44,16.32,29.091,29.091,0,0,1-4.44,16.2,28.466,28.466,0,0,1-12.6,10.5q-8.16,3.66-19.44,3.66H97.32l8.64-8.76V0Zm19.44-29.76L97.32-39H121.8q9,0,13.44-3.84t4.44-10.68q0-6.96-4.44-10.8T121.8-68.16H97.32l8.64-9.24Zm109.2,31.2A51.084,51.084,0,0,1,196.74-1.8a43.583,43.583,0,0,1-14.64-9.12,41.616,41.616,0,0,1-9.6-13.8A43.123,43.123,0,0,1,169.08-42a43.123,43.123,0,0,1,3.42-17.28,41.2,41.2,0,0,1,9.66-13.8A44.388,44.388,0,0,1,196.8-82.2a50.26,50.26,0,0,1,18.24-3.24,50.124,50.124,0,0,1,18.3,3.24,43.851,43.851,0,0,1,14.52,9.12,42.554,42.554,0,0,1,9.66,13.74A42.36,42.36,0,0,1,261-42a42.9,42.9,0,0,1-3.48,17.34,41.546,41.546,0,0,1-9.66,13.8A44.359,44.359,0,0,1,233.34-1.8,49.782,49.782,0,0,1,215.16,1.44Zm-.12-16.56a27.4,27.4,0,0,0,10.38-1.92,24.889,24.889,0,0,0,8.34-5.52,25.21,25.21,0,0,0,5.58-8.52A29,29,0,0,0,241.32-42a29,29,0,0,0-1.98-10.92,25.672,25.672,0,0,0-5.52-8.52,24.118,24.118,0,0,0-8.34-5.52,27.855,27.855,0,0,0-10.44-1.92,27.4,27.4,0,0,0-10.38,1.92,24.889,24.889,0,0,0-8.34,5.52,25.21,25.21,0,0,0-5.58,8.52A29,29,0,0,0,188.76-42a29.134,29.134,0,0,0,1.98,10.86,25.532,25.532,0,0,0,5.52,8.58,24.118,24.118,0,0,0,8.34,5.52A27.855,27.855,0,0,0,215.04-15.12ZM275.64,0V-84H312q11.28,0,19.44,3.66a28.466,28.466,0,0,1,12.6,10.5,29.312,29.312,0,0,1,4.44,16.32,28.8,28.8,0,0,1-4.44,16.14A28.232,28.232,0,0,1,331.44-27q-8.16,3.6-19.44,3.6H286.44l8.64-8.52V0Zm53.4,0-21-30.48H328.8L350.04,0ZM295.08-29.76l-8.64-9.12h24.48q9,0,13.44-3.9t4.44-10.74q0-6.96-4.44-10.8t-13.44-3.84H286.44l8.64-9.24ZM380.04,0V-68.16H353.16V-84h73.2v15.84H399.48V0ZM463.8,1.44a68.532,68.532,0,0,1-19.32-2.7A45.2,45.2,0,0,1,429.6-8.28l6.6-14.64a48.219,48.219,0,0,0,12.78,6.3,46.966,46.966,0,0,0,14.94,2.46,31.116,31.116,0,0,0,9.3-1.14,10.889,10.889,0,0,0,5.22-3.18,7.153,7.153,0,0,0,1.68-4.68,6.33,6.33,0,0,0-2.64-5.34,21.677,21.677,0,0,0-6.96-3.24q-4.32-1.26-9.54-2.4t-10.44-2.82A44.155,44.155,0,0,1,441-41.28a21.23,21.23,0,0,1-7.02-6.96,20.52,20.52,0,0,1-2.7-11.04,23.438,23.438,0,0,1,3.9-13.14,26.679,26.679,0,0,1,11.76-9.48q7.86-3.54,19.74-3.54a66.042,66.042,0,0,1,15.6,1.86A44.954,44.954,0,0,1,495.84-78l-6,14.76a51.062,51.062,0,0,0-11.76-4.98,43.259,43.259,0,0,0-11.52-1.62,27.247,27.247,0,0,0-9.24,1.32,10.9,10.9,0,0,0-5.16,3.42,7.931,7.931,0,0,0-1.56,4.86,6.216,6.216,0,0,0,2.64,5.22,20.849,20.849,0,0,0,6.96,3.18q4.32,1.2,9.54,2.4t10.44,2.76a40.364,40.364,0,0,1,9.54,4.2,21.23,21.23,0,0,1,7.02,6.96,20.272,20.272,0,0,1,2.7,10.92,22.708,22.708,0,0,1-3.96,12.96,27.663,27.663,0,0,1-11.82,9.48Q475.8,1.44,463.8,1.44Zm123.48,0a50.968,50.968,0,0,1-18.3-3.18,43.071,43.071,0,0,1-14.52-9.06,41.616,41.616,0,0,1-9.6-13.8A43.43,43.43,0,0,1,541.44-42a43.43,43.43,0,0,1,3.42-17.4,41.2,41.2,0,0,1,9.66-13.8,43.6,43.6,0,0,1,14.64-9.06,51.806,51.806,0,0,1,18.48-3.18,51.875,51.875,0,0,1,20.1,3.72,39.8,39.8,0,0,1,15.06,10.8L610.32-59.4a30.455,30.455,0,0,0-9.96-7.14,29.258,29.258,0,0,0-11.76-2.34,31.122,31.122,0,0,0-11.16,1.92,24.864,24.864,0,0,0-8.7,5.52,24.777,24.777,0,0,0-5.64,8.52A29,29,0,0,0,561.12-42a28.67,28.67,0,0,0,1.98,10.8,25.411,25.411,0,0,0,5.64,8.58,24.558,24.558,0,0,0,8.64,5.58,30.286,30.286,0,0,0,10.98,1.92,34.563,34.563,0,0,0,11.22-1.86,32.379,32.379,0,0,0,10.62-6.3L621.24-9.24a50.635,50.635,0,0,1-15.9,7.92A61.7,61.7,0,0,1,587.28,1.44Zm16.2-13.2V-43.32h17.76V-9.24ZM660.12,0V-34.32l4.44,11.76L627.6-84h20.64l28.32,47.16H664.68L693.12-84H712.2L675.24-22.56l4.32-11.76V0Zm59.4,0V-84H735.6l35.76,59.28h-8.52L798-84h15.96l.24,84H795.96l-.12-56.04h3.36L771.12-8.88h-8.76L733.68-56.04h4.08V0Z" transform="translate(-3.36 85.44)" fill="#fff" opacity="0.2"/>
</svg>
