<svg xmlns="http://www.w3.org/2000/svg" width="79.12" height="540.4" viewBox="0 0 79.12 540.4">
  <path id="Path_942" data-name="Path 942" d="M6.64,0V-56H30.88a31.486,31.486,0,0,1,12.96,2.44,18.978,18.978,0,0,1,8.4,7A19.542,19.542,0,0,1,55.2-35.68a19.2,19.2,0,0,1-2.96,10.76A18.821,18.821,0,0,1,43.84-18a31.944,31.944,0,0,1-12.96,2.4H13.84l5.76-5.68V0Zm35.6,0-14-20.32H42.08L56.24,0ZM19.6-19.84l-5.76-6.08H30.16q6,0,8.96-2.6a9.035,9.035,0,0,0,2.96-7.16,9.008,9.008,0,0,0-2.96-7.2q-2.96-2.56-8.96-2.56H13.84L19.6-51.6ZM85.92.64A27.708,27.708,0,0,1,73-2.24a21.234,21.234,0,0,1-8.6-7.88,21.5,21.5,0,0,1-3.04-11.4,21.876,21.876,0,0,1,3-11.48,21.268,21.268,0,0,1,8.2-7.84,24.129,24.129,0,0,1,11.76-2.84A24.052,24.052,0,0,1,95.72-41a20.066,20.066,0,0,1,8.04,7.68,23.063,23.063,0,0,1,2.96,11.96q0,.72-.08,1.64T106.48-18H71.52v-7.28h28.4l-4.8,2.16a11.962,11.962,0,0,0-1.36-5.84A9.928,9.928,0,0,0,90-32.84a10.912,10.912,0,0,0-5.6-1.4,11.131,11.131,0,0,0-5.64,1.4,9.778,9.778,0,0,0-3.8,3.92,12.371,12.371,0,0,0-1.36,5.96v1.92a12.1,12.1,0,0,0,1.56,6.2,10.178,10.178,0,0,0,4.4,4.08,14.945,14.945,0,0,0,6.68,1.4,16.189,16.189,0,0,0,6.04-1.04,14.712,14.712,0,0,0,4.76-3.12l6.64,7.2a19.343,19.343,0,0,1-7.44,5.16A27.527,27.527,0,0,1,85.92.64ZM116.56,0V-44q0-7.28,4.32-11.64T133.2-60a24.089,24.089,0,0,1,5.24.56,12.236,12.236,0,0,1,4.28,1.76l-3.28,9.04a8.5,8.5,0,0,0-2.32-1.12,9.069,9.069,0,0,0-2.72-.4,5.513,5.513,0,0,0-4.2,1.56,6.571,6.571,0,0,0-1.48,4.68v4l.32,5.36V0Zm-6.64-32.48v-9.6h29.84v9.6ZM146.32,0V-43.04h11.92v12.16l-1.68-3.52a13.829,13.829,0,0,1,6.16-6.92,20.939,20.939,0,0,1,10.32-2.36v11.52q-.8-.08-1.44-.12t-1.36-.04a11.717,11.717,0,0,0-8.28,2.92q-3.16,2.92-3.16,9.08V0Zm34.16,0V-43.04h12.48V0Zm6.24-49.04a7.916,7.916,0,0,1-5.6-2A6.487,6.487,0,0,1,178.96-56a6.487,6.487,0,0,1,2.16-4.96,7.916,7.916,0,0,1,5.6-2,8.222,8.222,0,0,1,5.6,1.88,6.123,6.123,0,0,1,2.16,4.84,6.856,6.856,0,0,1-2.12,5.16A7.792,7.792,0,0,1,186.72-49.04Zm38.08,65.2a45.985,45.985,0,0,1-11.72-1.48,25.44,25.44,0,0,1-9.4-4.44l4.96-8.96a20.373,20.373,0,0,0,6.92,3.56,27.512,27.512,0,0,0,8.28,1.32q6.64,0,9.64-2.96t3-8.8v-6.48l.8-10.8-.16-10.88v-9.28h11.84V-7.2q0,12-6.24,17.68T224.8,16.16ZM222.88-2.08a22.538,22.538,0,0,1-10.84-2.6,20.352,20.352,0,0,1-7.76-7.28,20.2,20.2,0,0,1-2.92-10.92,20.349,20.349,0,0,1,2.92-11,20.05,20.05,0,0,1,7.76-7.24,22.822,22.822,0,0,1,10.84-2.56,20.231,20.231,0,0,1,9.6,2.2,15.13,15.13,0,0,1,6.48,6.8,26.183,26.183,0,0,1,2.32,11.8,25.976,25.976,0,0,1-2.32,11.72,15.364,15.364,0,0,1-6.48,6.84A19.936,19.936,0,0,1,222.88-2.08Zm2.48-10.24a12.56,12.56,0,0,0,5.84-1.32,9.8,9.8,0,0,0,4-3.72,10.519,10.519,0,0,0,1.44-5.52,10.464,10.464,0,0,0-1.44-5.56,9.884,9.884,0,0,0-4-3.68,12.56,12.56,0,0,0-5.84-1.32,12.56,12.56,0,0,0-5.84,1.32,10.167,10.167,0,0,0-4.04,3.68A10.246,10.246,0,0,0,214-22.88a10.3,10.3,0,0,0,1.48,5.52,10.072,10.072,0,0,0,4.04,3.72A12.56,12.56,0,0,0,225.36-12.32ZM281.92.64A27.708,27.708,0,0,1,269-2.24a21.234,21.234,0,0,1-8.6-7.88,21.5,21.5,0,0,1-3.04-11.4,21.876,21.876,0,0,1,3-11.48,21.268,21.268,0,0,1,8.2-7.84,24.129,24.129,0,0,1,11.76-2.84A24.052,24.052,0,0,1,291.72-41a20.065,20.065,0,0,1,8.04,7.68,23.064,23.064,0,0,1,2.96,11.96q0,.72-.08,1.64T302.48-18H267.52v-7.28h28.4l-4.8,2.16a11.962,11.962,0,0,0-1.36-5.84A9.928,9.928,0,0,0,286-32.84a10.912,10.912,0,0,0-5.6-1.4,11.131,11.131,0,0,0-5.64,1.4,9.778,9.778,0,0,0-3.8,3.92,12.372,12.372,0,0,0-1.36,5.96v1.92a12.1,12.1,0,0,0,1.56,6.2,10.178,10.178,0,0,0,4.4,4.08,14.945,14.945,0,0,0,6.68,1.4,16.189,16.189,0,0,0,6.04-1.04,14.712,14.712,0,0,0,4.76-3.12l6.64,7.2a19.343,19.343,0,0,1-7.44,5.16A27.527,27.527,0,0,1,281.92.64ZM311.04,0V-43.04h11.92v12.16l-1.68-3.52a13.829,13.829,0,0,1,6.16-6.92,20.939,20.939,0,0,1,10.32-2.36v11.52q-.8-.08-1.44-.12t-1.36-.04a11.717,11.717,0,0,0-8.28,2.92q-3.16,2.92-3.16,9.08V0ZM368.8,0V-8.4l-.8-1.84V-25.28a8.047,8.047,0,0,0-2.44-6.24q-2.44-2.24-7.48-2.24a21.724,21.724,0,0,0-6.76,1.08,17.884,17.884,0,0,0-5.64,2.92l-4.48-8.72a26.987,26.987,0,0,1,8.48-3.84,37.951,37.951,0,0,1,10.08-1.36q9.84,0,15.28,4.64t5.44,14.48V0ZM355.68.64a19.891,19.891,0,0,1-8.64-1.72,13.126,13.126,0,0,1-5.52-4.68,11.938,11.938,0,0,1-1.92-6.64,12.015,12.015,0,0,1,1.88-6.72,12.31,12.31,0,0,1,5.96-4.52,28.947,28.947,0,0,1,10.64-1.64h11.44V-18H359.44q-4.4,0-6.04,1.44a4.593,4.593,0,0,0-1.64,3.6,4.488,4.488,0,0,0,1.88,3.8,8.468,8.468,0,0,0,5.16,1.4,10.716,10.716,0,0,0,5.6-1.48A8.479,8.479,0,0,0,368-13.6l1.92,5.76a11.142,11.142,0,0,1-4.96,6.32A17.837,17.837,0,0,1,355.68.64Zm53.68,0q-7.6,0-11.84-3.88T393.28-14.8V-52.56h12.48v37.6a5.775,5.775,0,0,0,1.44,4.2,5.216,5.216,0,0,0,3.92,1.48,8.021,8.021,0,0,0,5.04-1.6l3.36,8.8a13.711,13.711,0,0,1-4.6,2.04A22.521,22.521,0,0,1,409.36.64ZM386.64-32.48v-9.6h29.84v9.6ZM426.56,0V-43.04h12.48V0Zm6.24-49.04a7.916,7.916,0,0,1-5.6-2A6.487,6.487,0,0,1,425.04-56a6.487,6.487,0,0,1,2.16-4.96,7.916,7.916,0,0,1,5.6-2,8.222,8.222,0,0,1,5.6,1.88,6.123,6.123,0,0,1,2.16,4.84,6.856,6.856,0,0,1-2.12,5.16A7.792,7.792,0,0,1,432.8-49.04ZM471.12.64a25.219,25.219,0,0,1-12.2-2.88,21.927,21.927,0,0,1-8.4-7.88,21.291,21.291,0,0,1-3.08-11.4A21.439,21.439,0,0,1,450.52-33a21.631,21.631,0,0,1,8.4-7.84,25.507,25.507,0,0,1,12.2-2.84,25.571,25.571,0,0,1,12.16,2.84,21.365,21.365,0,0,1,8.4,7.8,21.6,21.6,0,0,1,3.04,11.52,21.5,21.5,0,0,1-3.04,11.4,21.557,21.557,0,0,1-8.4,7.88A25.282,25.282,0,0,1,471.12.64Zm0-10.24a10.946,10.946,0,0,0,5.6-1.44,10.253,10.253,0,0,0,3.92-4.12,13.253,13.253,0,0,0,1.44-6.36,13.2,13.2,0,0,0-1.44-6.4A10.318,10.318,0,0,0,476.72-32a10.946,10.946,0,0,0-5.6-1.44,10.946,10.946,0,0,0-5.6,1.44,10.6,10.6,0,0,0-3.96,4.08,12.9,12.9,0,0,0-1.48,6.4,12.96,12.96,0,0,0,1.48,6.36,10.527,10.527,0,0,0,3.96,4.12A10.946,10.946,0,0,0,471.12-9.6ZM529.2-43.68a20.04,20.04,0,0,1,9.16,2.04,14.793,14.793,0,0,1,6.36,6.24,22.108,22.108,0,0,1,2.32,10.76V0H534.56V-22.72q0-5.2-2.28-7.68a8.31,8.31,0,0,0-6.44-2.48,11.262,11.262,0,0,0-5.32,1.24,8.606,8.606,0,0,0-3.68,3.8,14.282,14.282,0,0,0-1.32,6.56V0H503.04V-43.04h11.92v11.92l-2.24-3.6a15.942,15.942,0,0,1,6.64-6.64A20.469,20.469,0,0,1,529.2-43.68Z" transform="translate(16.16 -6.64) rotate(90)" fill="#fff"/>
</svg>
