<svg xmlns="http://www.w3.org/2000/svg" width="413.76" height="86.88" viewBox="0 0 413.76 86.88">
  <path id="Path_537" data-name="Path 537" d="M-177.42,0-204.9-84h20.16l23.88,74.4h-10.08L-145.98-84h18l24,74.4h-9.72L-89.22-84h18.6L-98.1,0h-20.88l-21.24-65.28h5.52L-156.54,0ZM-19.98,1.44A51.083,51.083,0,0,1-38.4-1.8a43.583,43.583,0,0,1-14.64-9.12,41.616,41.616,0,0,1-9.6-13.8A43.123,43.123,0,0,1-66.06-42a43.123,43.123,0,0,1,3.42-17.28,41.2,41.2,0,0,1,9.66-13.8A44.388,44.388,0,0,1-38.34-82.2,50.26,50.26,0,0,1-20.1-85.44,50.124,50.124,0,0,1-1.8-82.2a43.851,43.851,0,0,1,14.52,9.12,42.554,42.554,0,0,1,9.66,13.74A42.36,42.36,0,0,1,25.86-42a42.9,42.9,0,0,1-3.48,17.34,41.546,41.546,0,0,1-9.66,13.8A44.359,44.359,0,0,1-1.8-1.8,49.782,49.782,0,0,1-19.98,1.44Zm-.12-16.56A27.4,27.4,0,0,0-9.72-17.04a24.889,24.889,0,0,0,8.34-5.52A25.21,25.21,0,0,0,4.2-31.08,29,29,0,0,0,6.18-42,29,29,0,0,0,4.2-52.92a25.672,25.672,0,0,0-5.52-8.52,24.118,24.118,0,0,0-8.34-5.52A27.855,27.855,0,0,0-20.1-68.88a27.4,27.4,0,0,0-10.38,1.92,24.889,24.889,0,0,0-8.34,5.52,25.21,25.21,0,0,0-5.58,8.52A29,29,0,0,0-46.38-42,29.133,29.133,0,0,0-44.4-31.14a25.532,25.532,0,0,0,5.52,8.58,24.118,24.118,0,0,0,8.34,5.52A27.855,27.855,0,0,0-20.1-15.12ZM40.5,0V-84H76.86q11.28,0,19.44,3.66a28.466,28.466,0,0,1,12.6,10.5,29.312,29.312,0,0,1,4.44,16.32,28.8,28.8,0,0,1-4.44,16.14A28.232,28.232,0,0,1,96.3-27q-8.16,3.6-19.44,3.6H51.3l8.64-8.52V0ZM93.9,0l-21-30.48H93.66L114.9,0ZM59.94-29.76,51.3-38.88H75.78q9,0,13.44-3.9t4.44-10.74q0-6.96-4.44-10.8T75.78-68.16H51.3l8.64-9.24ZM146.1-19.2l-1.08-22.44L185.22-84h21.6L170.58-45l-10.8,11.52ZM128.7,0V-84h19.32V0Zm57.48,0L156.3-36.6l12.72-13.8L208.86,0Z" transform="translate(204.9 85.44)" fill="#739ed1" opacity="0.09"/>
</svg>
