<svg xmlns="http://www.w3.org/2000/svg" width="377.28" height="86.88" viewBox="0 0 377.28 86.88">
  <path id="Path_536" data-name="Path 536" d="M-185.34,0V-84h16.08l49.56,60.48h-7.8V-84h19.2V0h-15.96l-49.68-60.48h7.8V0ZM-70.5-50.16h40.44v15.12H-70.5Zm1.44,34.56h45.72V0H-88.38V-84H-24.9v15.6H-69.06ZM11.1,0-16.38-84H3.78L27.66-9.6H17.58L42.54-84h18l24,74.4H74.82L99.3-84h18.6L90.42,0H69.54L48.3-65.28h5.52L31.98,0ZM156.3,1.44a68.532,68.532,0,0,1-19.32-2.7A45.2,45.2,0,0,1,122.1-8.28l6.6-14.64a48.219,48.219,0,0,0,12.78,6.3,46.966,46.966,0,0,0,14.94,2.46,31.116,31.116,0,0,0,9.3-1.14,10.889,10.889,0,0,0,5.22-3.18,7.153,7.153,0,0,0,1.68-4.68,6.33,6.33,0,0,0-2.64-5.34,21.677,21.677,0,0,0-6.96-3.24q-4.32-1.26-9.54-2.4t-10.44-2.82a44.156,44.156,0,0,1-9.54-4.32,21.23,21.23,0,0,1-7.02-6.96,20.52,20.52,0,0,1-2.7-11.04,23.438,23.438,0,0,1,3.9-13.14,26.679,26.679,0,0,1,11.76-9.48q7.86-3.54,19.74-3.54a66.042,66.042,0,0,1,15.6,1.86A44.954,44.954,0,0,1,188.34-78l-6,14.76a51.062,51.062,0,0,0-11.76-4.98,43.258,43.258,0,0,0-11.52-1.62,27.246,27.246,0,0,0-9.24,1.32,10.9,10.9,0,0,0-5.16,3.42,7.931,7.931,0,0,0-1.56,4.86,6.216,6.216,0,0,0,2.64,5.22,20.848,20.848,0,0,0,6.96,3.18q4.32,1.2,9.54,2.4t10.44,2.76a40.364,40.364,0,0,1,9.54,4.2,21.23,21.23,0,0,1,7.02,6.96,20.272,20.272,0,0,1,2.7,10.92,22.708,22.708,0,0,1-3.96,12.96,27.663,27.663,0,0,1-11.82,9.48Q168.3,1.44,156.3,1.44Z" transform="translate(185.34 85.44)" fill="#739ed1" opacity="0.09"/>
</svg>
