<svg xmlns="http://www.w3.org/2000/svg" width="647.16" height="86.88" viewBox="0 0 647.16 86.88">
  <path id="Path_538" data-name="Path 538" d="M-305.58-46.2h40.32v15.6h-40.32ZM-304.14,0h-19.44V-84h63.48v15.6h-44.04Zm94.56,1.44q-17.88,0-27.96-9.96t-10.08-28.44V-84h19.44v46.32q0,12,4.92,17.28t13.8,5.28q8.88,0,13.8-5.28t4.92-17.28V-84h19.2v47.04q0,18.48-10.08,28.44T-209.58,1.44ZM-152.34,0V-84h16.08L-86.7-23.52h-7.8V-84h19.2V0H-91.26l-49.68-60.48h7.8V0ZM-15.18,1.44A50.273,50.273,0,0,1-33.24-1.74,42.422,42.422,0,0,1-47.7-10.8a42.044,42.044,0,0,1-9.54-13.8A43.43,43.43,0,0,1-60.66-42a43.43,43.43,0,0,1,3.42-17.4,41.616,41.616,0,0,1,9.6-13.8,43.2,43.2,0,0,1,14.46-9.06,50.135,50.135,0,0,1,18.12-3.18A49.632,49.632,0,0,1,4.68-81.66,38.457,38.457,0,0,1,19.5-70.56L7.02-59.04a29.206,29.206,0,0,0-9.6-7.38A26.938,26.938,0,0,0-14.1-68.88a29.464,29.464,0,0,0-10.8,1.92,24.483,24.483,0,0,0-8.52,5.52A25.21,25.21,0,0,0-39-52.92,29,29,0,0,0-40.98-42,29,29,0,0,0-39-31.08a25.21,25.21,0,0,0,5.58,8.52,24.483,24.483,0,0,0,8.52,5.52,29.463,29.463,0,0,0,10.8,1.92A26.938,26.938,0,0,0-2.58-17.58a28.574,28.574,0,0,0,9.6-7.5L19.5-13.56A39,39,0,0,1,4.68-2.4,49.27,49.27,0,0,1-15.18,1.44ZM49.14,0V-68.16H22.26V-84h73.2v15.84H68.58V0ZM105.9,0V-84h19.44V0Zm80.16,1.44A51.084,51.084,0,0,1,167.64-1.8,43.583,43.583,0,0,1,153-10.92a41.616,41.616,0,0,1-9.6-13.8A43.123,43.123,0,0,1,139.98-42a43.123,43.123,0,0,1,3.42-17.28,41.2,41.2,0,0,1,9.66-13.8A44.388,44.388,0,0,1,167.7-82.2a50.26,50.26,0,0,1,18.24-3.24,50.124,50.124,0,0,1,18.3,3.24,43.851,43.851,0,0,1,14.52,9.12,42.554,42.554,0,0,1,9.66,13.74A42.36,42.36,0,0,1,231.9-42a42.9,42.9,0,0,1-3.48,17.34,41.546,41.546,0,0,1-9.66,13.8A44.359,44.359,0,0,1,204.24-1.8,49.782,49.782,0,0,1,186.06,1.44Zm-.12-16.56a27.4,27.4,0,0,0,10.38-1.92,24.889,24.889,0,0,0,8.34-5.52,25.21,25.21,0,0,0,5.58-8.52A29,29,0,0,0,212.22-42a29,29,0,0,0-1.98-10.92,25.672,25.672,0,0,0-5.52-8.52,24.118,24.118,0,0,0-8.34-5.52,27.855,27.855,0,0,0-10.44-1.92,27.4,27.4,0,0,0-10.38,1.92,24.889,24.889,0,0,0-8.34,5.52,25.21,25.21,0,0,0-5.58,8.52A29,29,0,0,0,159.66-42a29.134,29.134,0,0,0,1.98,10.86,25.532,25.532,0,0,0,5.52,8.58,24.118,24.118,0,0,0,8.34,5.52A27.855,27.855,0,0,0,185.94-15.12ZM246.54,0V-84h16.08l49.56,60.48h-7.8V-84h19.2V0H307.62L257.94-60.48h7.8V0Z" transform="translate(323.58 85.44)" fill="#739ed1" opacity="0.09"/>
</svg>
