<svg xmlns="http://www.w3.org/2000/svg" width="129.575" height="23" viewBox="0 0 129.575 23">
  <g id="Group_18" data-name="Group 18" transform="translate(-1289.425 -7695)">
    <path id="Path_207" data-name="Path 207" d="M-46.575,0V-12.348h7.056a3.985,3.985,0,0,1,1.755.378,3,3,0,0,1,1.233,1.062,2.848,2.848,0,0,1,.45,1.6,3.061,3.061,0,0,1-.27,1.314,2.7,2.7,0,0,1-.729.954,3.037,3.037,0,0,1-1.035.558v.072a3.059,3.059,0,0,1,1.215.54,2.861,2.861,0,0,1,.846,1.017,3.205,3.205,0,0,1,.315,1.467,3.258,3.258,0,0,1-.513,1.872A3.173,3.173,0,0,1-37.611-.378,4.583,4.583,0,0,1-39.5,0Zm2.682-2.2h3.87a1.573,1.573,0,0,0,1.089-.378,1.492,1.492,0,0,0,.423-1.17,1.717,1.717,0,0,0-.18-.81,1.248,1.248,0,0,0-.54-.531,1.967,1.967,0,0,0-.918-.189h-3.744Zm0-5.166h3.564a1.637,1.637,0,0,0,.819-.189,1.272,1.272,0,0,0,.5-.5,1.5,1.5,0,0,0,.171-.729,1.381,1.381,0,0,0-.387-1.062,1.433,1.433,0,0,0-1.017-.36h-3.654Zm12.6,7.578a5.024,5.024,0,0,1-1-.108,3.172,3.172,0,0,1-1-.387,2.123,2.123,0,0,1-.765-.81,2.763,2.763,0,0,1-.3-1.359,2.893,2.893,0,0,1,.432-1.638A2.891,2.891,0,0,1-32.688-5.1a6.6,6.6,0,0,1,1.917-.513A19.363,19.363,0,0,1-28.3-5.76v-.7a1.772,1.772,0,0,0-.135-.72,1.017,1.017,0,0,0-.468-.486,1.971,1.971,0,0,0-.927-.18A2.692,2.692,0,0,0-30.8-7.7a1.084,1.084,0,0,0-.522.369.862.862,0,0,0-.153.495v.216H-33.9a.873.873,0,0,1-.018-.171V-7a2.16,2.16,0,0,1,.5-1.431,3.181,3.181,0,0,1,1.422-.927,6.433,6.433,0,0,1,2.142-.324,6.19,6.19,0,0,1,2.2.342A2.909,2.909,0,0,1-26.28-8.334,2.8,2.8,0,0,1-25.8-6.66v4.3a.578.578,0,0,0,.189.477.655.655,0,0,0,.423.153h.594V-.09A3.08,3.08,0,0,1-25.155.1a3.671,3.671,0,0,1-.918.1A2.611,2.611,0,0,1-27,.045a1.816,1.816,0,0,1-.675-.432,1.532,1.532,0,0,1-.378-.675h-.126a3.208,3.208,0,0,1-.747.666,3.64,3.64,0,0,1-1.026.45A5.038,5.038,0,0,1-31.293.216Zm.846-1.89a2.483,2.483,0,0,0,.9-.153,1.961,1.961,0,0,0,.666-.414,1.83,1.83,0,0,0,.423-.639,2.138,2.138,0,0,0,.153-.81v-.522a10.789,10.789,0,0,0-1.8.135,3.05,3.05,0,0,0-1.251.459,1.04,1.04,0,0,0-.459.9.956.956,0,0,0,.162.558,1.025,1.025,0,0,0,.468.36A1.937,1.937,0,0,0-30.447-1.674ZM-19.2.216a5.479,5.479,0,0,1-2.538-.531,3.473,3.473,0,0,1-1.557-1.638,6.421,6.421,0,0,1-.531-2.781,6.4,6.4,0,0,1,.531-2.8,3.525,3.525,0,0,1,1.566-1.629A5.415,5.415,0,0,1-19.2-9.7a6.121,6.121,0,0,1,1.755.234,3.739,3.739,0,0,1,1.359.72,3.11,3.11,0,0,1,.873,1.2,4.35,4.35,0,0,1,.3,1.683h-2.5a2.467,2.467,0,0,0-.2-1.062,1.363,1.363,0,0,0-.6-.63,2.145,2.145,0,0,0-1.017-.216,1.956,1.956,0,0,0-1.17.324,1.886,1.886,0,0,0-.666.954,4.881,4.881,0,0,0-.216,1.566v.414A4.636,4.636,0,0,0-21.06-2.97a1.84,1.84,0,0,0,.693.945,2.154,2.154,0,0,0,1.224.315,2.145,2.145,0,0,0,1.017-.216,1.444,1.444,0,0,0,.621-.648,2.314,2.314,0,0,0,.216-1.044h2.376a4.264,4.264,0,0,1-.3,1.638,3.137,3.137,0,0,1-.864,1.206,3.856,3.856,0,0,1-1.359.738A5.8,5.8,0,0,1-19.2.216ZM-13.041,0V-13.032h2.5v7.506l3.312-3.942h2.934L-7.533-5.76-4.131,0H-6.993L-9.171-4l-1.368,1.332V0ZM3.069.216A2.884,2.884,0,0,1,1.611-.108,1.926,1.926,0,0,1,.8-.981,2.878,2.878,0,0,1,.549-2.2V-7.542H-.621V-9.468H.639l.468-2.7H3.051v2.7H4.779v1.926H3.051V-2.61a.966.966,0,0,0,.2.657.823.823,0,0,0,.648.225h.882V-.072a4.965,4.965,0,0,1-.5.135q-.288.063-.612.108A4.345,4.345,0,0,1,3.069.216Zm7.686,0A5.913,5.913,0,0,1,8.127-.315,3.553,3.553,0,0,1,6.489-1.953a6.153,6.153,0,0,1-.558-2.781,6.129,6.129,0,0,1,.558-2.8,3.57,3.57,0,0,1,1.638-1.62,5.913,5.913,0,0,1,2.628-.531,5.946,5.946,0,0,1,2.655.531,3.579,3.579,0,0,1,1.629,1.62,6.129,6.129,0,0,1,.558,2.8,6.153,6.153,0,0,1-.558,2.781A3.562,3.562,0,0,1,13.41-.315,5.946,5.946,0,0,1,10.755.216Zm0-1.944a2.5,2.5,0,0,0,1.323-.306,1.786,1.786,0,0,0,.729-.936,4.472,4.472,0,0,0,.234-1.548V-4.95A4.472,4.472,0,0,0,12.807-6.5a1.832,1.832,0,0,0-.729-.945,2.439,2.439,0,0,0-1.323-.315,2.4,2.4,0,0,0-1.305.315,1.832,1.832,0,0,0-.729.945A4.472,4.472,0,0,0,8.487-4.95v.432A4.472,4.472,0,0,0,8.721-2.97a1.786,1.786,0,0,0,.729.936A2.457,2.457,0,0,0,10.755-1.728ZM23.787.216a2.884,2.884,0,0,1-1.458-.324,1.926,1.926,0,0,1-.81-.873A2.878,2.878,0,0,1,21.267-2.2V-7.542H20.1V-9.468h1.26l.468-2.7h1.944v2.7H25.5v1.926H23.769V-2.61a.966.966,0,0,0,.2.657.823.823,0,0,0,.648.225H25.5V-.072a4.965,4.965,0,0,1-.5.135q-.288.063-.612.108A4.345,4.345,0,0,1,23.787.216Zm7.686,0a5.913,5.913,0,0,1-2.628-.531,3.553,3.553,0,0,1-1.638-1.638,6.153,6.153,0,0,1-.558-2.781,6.129,6.129,0,0,1,.558-2.8,3.57,3.57,0,0,1,1.638-1.62,5.913,5.913,0,0,1,2.628-.531,5.946,5.946,0,0,1,2.655.531,3.579,3.579,0,0,1,1.629,1.62,6.129,6.129,0,0,1,.558,2.8,6.153,6.153,0,0,1-.558,2.781A3.562,3.562,0,0,1,34.128-.315,5.946,5.946,0,0,1,31.473.216Zm0-1.944A2.5,2.5,0,0,0,32.8-2.034a1.786,1.786,0,0,0,.729-.936,4.472,4.472,0,0,0,.234-1.548V-4.95A4.472,4.472,0,0,0,33.525-6.5a1.832,1.832,0,0,0-.729-.945,2.439,2.439,0,0,0-1.323-.315,2.4,2.4,0,0,0-1.305.315,1.832,1.832,0,0,0-.729.945A4.472,4.472,0,0,0,29.2-4.95v.432a4.472,4.472,0,0,0,.234,1.548,1.786,1.786,0,0,0,.729.936A2.457,2.457,0,0,0,31.473-1.728ZM38.151,3.2V-9.468H40.2l.216,1.278h.126a2.849,2.849,0,0,1,1.224-1.134,3.844,3.844,0,0,1,1.674-.36,3.846,3.846,0,0,1,2.043.522A3.322,3.322,0,0,1,46.8-7.542a7.4,7.4,0,0,1,.459,2.826,7.107,7.107,0,0,1-.468,2.772A3.462,3.462,0,0,1,45.486-.315a3.567,3.567,0,0,1-1.953.531A4.52,4.52,0,0,1,42.4.081a2.891,2.891,0,0,1-.936-.423,2.788,2.788,0,0,1-.7-.7h-.108V3.2Zm4.518-5.04a2.116,2.116,0,0,0,1.2-.3,1.666,1.666,0,0,0,.639-.9,4.809,4.809,0,0,0,.2-1.485v-.414a4.879,4.879,0,0,0-.2-1.5,1.666,1.666,0,0,0-.639-.9,2.116,2.116,0,0,0-1.2-.3,1.924,1.924,0,0,0-1.152.324,1.886,1.886,0,0,0-.666.936A4.455,4.455,0,0,0,40.635-4.9v.306a4.8,4.8,0,0,0,.126,1.143,2.7,2.7,0,0,0,.369.873,1.606,1.606,0,0,0,.621.549A2.036,2.036,0,0,0,42.669-1.836Z" transform="translate(1336 7711)" fill="#fff"/>
    <g id="Group_17" data-name="Group 17" transform="translate(-1 1)">
      <circle id="Ellipse_2" data-name="Ellipse 2" cx="11.5" cy="11.5" r="11.5" transform="translate(1397 7694)" fill="#fff"/>
      <g id="Group_16" data-name="Group 16" transform="translate(-0.403 -0.403)">
        <path id="Path_72" data-name="Path 72" d="M3910.247,7705.5l4.1-4.1,4.1,4.1" transform="translate(-2505.843)" fill="none" stroke="#1c85a8" stroke-width="1"/>
        <line id="Line_6" data-name="Line 6" y1="9" transform="translate(1408.5 7701.5)" fill="none" stroke="#1c85a8" stroke-width="1"/>
      </g>
    </g>
  </g>
</svg>
