<svg id="Group_72" data-name="Group 72" xmlns="http://www.w3.org/2000/svg" width="1200.094" height="165.433" viewBox="0 0 1200.094 165.433">
  <path id="Path_6" data-name="Path 6" d="M91.585,4.723A51.709,51.709,0,0,1,118.228,24.56a69.412,69.412,0,0,1,11.15,25.231,120.385,120.385,0,0,1,2.968,25.883q0,31.168-12.525,52.815-17,29.159-52.417,29.177H0V1.32H67.4q14.552.217,24.181,3.4ZM31.711,28.47V130.481H61.865q23.132,0,32.29-22.806c3.33-8.326,5-18.281,5-29.792q0-23.838-7.493-36.634Q84.164,28.488,61.865,28.47H31.711Z" transform="translate(0 3.458)" fill="#303030"/>
  <path id="Path_7" data-name="Path 7" d="M197.912,147.188q-17.7,18.245-51.223,18.245-33.5,0-51.223-18.245Q71.684,124.817,71.72,82.716c0-28.055,7.928-50.137,23.747-64.472Q113.169,0,146.69,0q33.5,0,51.223,18.245Q221.533,39.8,221.551,82.716C221.551,111.35,213.659,132.274,197.912,147.188ZM177.5,123.441q11.4-14.335,11.4-40.725c0-17.593-3.8-31.1-11.4-40.689S159.613,27.657,146.69,27.657s-23.276,4.778-30.951,14.335q-11.566,14.335-11.548,40.725,0,26.39,11.548,40.725,11.566,14.335,30.951,14.335T177.5,123.441Z" transform="translate(187.904 0)" fill="#303030"/>
  <path id="Path_8" data-name="Path 8" d="M149.85,1.32H184.1l62.046,109V1.32h30.444V157.63H243.933L180.294,46.714V157.63H149.85Z" transform="translate(392.603 3.458)" fill="#303030"/>
  <path id="Path_9" data-name="Path 9" d="M276.08,1.32h36.96l55.313,156.31h-35.44L322.6,125.485H265.039L254.432,157.63H220.26Zm-2.136,97.269h40.037l-19.765-61.5Z" transform="translate(577.075 3.458)" fill="#303030"/>
  <path id="Path_10" data-name="Path 10" d="M296.51,1.32h34.245l62.046,109V1.32h30.444V157.63H390.593L326.955,46.714V157.63H296.51Z" transform="translate(776.848 3.458)" fill="#303030"/>
</svg>
