<svg id="Group_26445" data-name="Group 26445" xmlns="http://www.w3.org/2000/svg" xmlns:xlink="http://www.w3.org/1999/xlink" width="60" height="60" viewBox="0 0 60 60">
  <defs>
    <clipPath id="clip-path">
      <rect id="Rectangle_2728" data-name="Rectangle 2728" width="60" height="60" fill="none"/>
    </clipPath>
  </defs>
  <g id="Group_26444" data-name="Group 26444" clip-path="url(#clip-path)">
    <path id="Path_13109" data-name="Path 13109" d="M30,0A30,30,0,1,0,60,30,30,30,0,0,0,30,0" transform="translate(0 0)" fill="#f4f4f2"/>
    <path id="Path_13110" data-name="Path 13110" d="M52.6,86.252l-1.809-.425V85.3a.9.9,0,0,0-.9-.9H48.768a.9.9,0,0,0-.9.9v2.4a.9.9,0,0,0,.9.9h1.125a.9.9,0,0,0,.9-.9v-.375l1.809.425Z" transform="translate(-35.3 -62.243)" fill="#988969"/>
    <path id="Path_13111" data-name="Path 13111" d="M162.629,87.751l1.809-.425V87.7a.9.9,0,0,0,.9.9h1.125a.9.9,0,0,0,.9-.9V85.3a.9.9,0,0,0-.9-.9h-1.125a.9.9,0,0,0-.9.9v.525l-1.809.425Z" transform="translate(-119.93 -62.243)" fill="#988969"/>
    <path id="Path_13112" data-name="Path 13112" d="M85.273,98.089a3.707,3.707,0,1,1,3.706-3.706,3.711,3.711,0,0,1-3.706,3.706m0-6.1a2.389,2.389,0,1,0,2.389,2.389,2.391,2.391,0,0,0-2.389-2.389" transform="translate(-60.151 -66.869)" fill="#988969"/>
    <path id="Path_13113" data-name="Path 13113" d="M82.356,80.091a1.366,1.366,0,0,0,1.366-1.366v-4.4a3.216,3.216,0,0,0-2.947-3.2l-1.165-6.833a5.941,5.941,0,0,0-5.857-4.942H59.92a5.941,5.941,0,0,0-5.857,4.942L52.9,71.12a3.216,3.216,0,0,0-2.947,3.2v4.4a1.365,1.365,0,0,0,1.366,1.366H61.382v.9H51.317a1.366,1.366,0,1,0,0,2.731H82.356a1.366,1.366,0,1,0,0-2.731H71.925v-.9Zm-3.721-6.754a2.388,2.388,0,1,1-2.388,2.388,2.388,2.388,0,0,1,2.388-2.388m-23.6,4.777a2.388,2.388,0,1,1,2.388-2.388,2.388,2.388,0,0,1-2.388,2.388m15.9,2.965a1.155,1.155,0,0,1-1.153,1.153h-6.26a1.155,1.155,0,0,1-1.153-1.153V79.35A1.155,1.155,0,0,1,63.523,78.2h6.26a1.155,1.155,0,0,1,1.153,1.153Zm-14.73-9.973,1.079-6.327a3.178,3.178,0,0,1,3.133-2.644H73.254a3.178,3.178,0,0,1,3.133,2.644l1.079,6.327Z" transform="translate(-36.836 -43.764)" fill="#988969"/>
    <path id="Path_13114" data-name="Path 13114" d="M61.952,157.462a2.47,2.47,0,0,0,2.47,2.47h2.686a2.47,2.47,0,0,0,2.47-2.47v-1.522l-7.626-.01Z" transform="translate(-45.686 -114.989)" fill="#988969"/>
    <path id="Path_13115" data-name="Path 13115" d="M137.527,157.462a2.47,2.47,0,0,0,2.47,2.47h2.686a2.47,2.47,0,0,0,2.47-2.47v-1.522l-7.626-.01Z" transform="translate(-101.419 -114.989)" fill="#988969"/>
  </g>
</svg>
