<svg xmlns="http://www.w3.org/2000/svg" xmlns:xlink="http://www.w3.org/1999/xlink" width="60" height="60" viewBox="0 0 60 60">
  <defs>
    <clipPath id="clip-path">
      <rect id="Rectangle_2729" data-name="Rectangle 2729" width="60" height="60" fill="none"/>
    </clipPath>
  </defs>
  <g id="Group_26446" data-name="Group 26446" clip-path="url(#clip-path)">
    <path id="Path_13116" data-name="Path 13116" d="M30,0A30,30,0,1,0,60,30,30,30,0,0,0,30,0" transform="translate(0 0)" fill="#f4f4f2"/>
    <path id="Path_13117" data-name="Path 13117" d="M86.358,50.194h-1.2V47.731a1.76,1.76,0,0,0-1.76-1.76H67.208a1.76,1.76,0,0,0-1.76,1.76v2.464h-1.2a2.691,2.691,0,0,0-2.816,2.546V66.88a14,14,0,0,0,.617,4.1l1.2,3.916a2.788,2.788,0,0,0,2.714,1.866h1.509L65.763,78.9c-.678.848-.181,2.264.8,2.264h17.49c.976,0,1.473-1.416.8-2.264l-1.708-2.135h1.509A2.787,2.787,0,0,0,87.357,74.9l1.2-3.916a14,14,0,0,0,.617-4.1V52.74a2.691,2.691,0,0,0-2.816-2.546M67.912,49.138a1.056,1.056,0,0,1,1.056-1.056H81.638a1.056,1.056,0,0,1,1.056,1.056v1.056H67.912Zm-2.649,6.584a1.645,1.645,0,0,1,1.645-1.645H83.455A1.645,1.645,0,0,1,85.1,55.722V64a1.645,1.645,0,0,1-1.645,1.644H66.908A1.644,1.644,0,0,1,65.263,64Zm1.853,15.691a2.108,2.108,0,1,1,2.108-2.108,2.108,2.108,0,0,1-2.108,2.108m11.531-.159H71.959a.616.616,0,1,1,0-1.232h6.687a.616.616,0,1,1,0,1.232m0-2.288H71.959a.616.616,0,0,1,0-1.232h6.687a.616.616,0,0,1,0,1.232m4.844,2.447A2.108,2.108,0,1,1,85.6,69.306a2.108,2.108,0,0,1-2.108,2.108" transform="translate(-45.303 -33.901)" fill="#988969"/>
  </g>
</svg>
