<svg xmlns="http://www.w3.org/2000/svg" xmlns:xlink="http://www.w3.org/1999/xlink" width="88" height="88" viewBox="0 0 88 88">
  <defs>
    <filter id="Path_13125" x="0" y="0" width="88" height="88" filterUnits="userSpaceOnUse">
      <feOffset dy="3" input="SourceAlpha"/>
      <feGaussianBlur stdDeviation="3" result="blur"/>
      <feFlood flood-opacity="0.161"/>
      <feComposite operator="in" in2="blur"/>
      <feComposite in="SourceGraphic"/>
    </filter>
  </defs>
  <g id="Group_26464" data-name="Group 26464" transform="translate(-1198 6)">
    <g transform="matrix(1, 0, 0, 1, 1198, -6)" filter="url(#Path_13125)">
      <path id="Path_13125-2" data-name="Path 13125" d="M35,0A35,35,0,1,1,0,35,35,35,0,0,1,35,0Z" transform="translate(9 6)" fill="#fff"/>
    </g>
    <path id="Path_13123" data-name="Path 13123" d="M1.729-3.1a2.46,2.46,0,0,0,.876.017,1.473,1.473,0,0,0,.684-.3,1.514,1.514,0,0,0,.444-.627,2.6,2.6,0,0,0,.159-.967,2.908,2.908,0,0,0-.083-.72,1.621,1.621,0,0,0-.247-.552A1.117,1.117,0,0,0,3.149-6.6a1.284,1.284,0,0,0-.581-.125,3.418,3.418,0,0,0-.366.017q-.156.017-.264.037a1.492,1.492,0,0,0-.21.054ZM.7-7l.205.02q.093.01.208.012l.237,0a3.851,3.851,0,0,0,.515-.046,6.043,6.043,0,0,1,.828-.046,2.651,2.651,0,0,1,.867.137,1.982,1.982,0,0,1,.691.4,1.826,1.826,0,0,1,.457.642,2.153,2.153,0,0,1,.164.862A2.308,2.308,0,0,1,4.609-3.9a2.155,2.155,0,0,1-.693.767,2.623,2.623,0,0,1-1,.4,3.573,3.573,0,0,1-1.187.012v.811q0,.415.012.725t.029.535q.017.225.044.376A2.6,2.6,0,0,0,1.87-.02V0H.7V-.02A2.6,2.6,0,0,0,.754-.273Q.781-.425.8-.649T.83-1.184q.01-.31.01-.725V-5.088q0-.415-.01-.725T.8-6.35q-.02-.227-.046-.378A2.6,2.6,0,0,0,.7-6.982Zm9.468,7V-.02a.286.286,0,0,0,.015-.073q0-.049,0-.088a1.524,1.524,0,0,0-.042-.334,2.762,2.762,0,0,0-.159-.457L9.395-2.3q-.273-.01-.728-.01H6.941q-.359,0-.647.01L5.732-1.011q-.073.181-.156.4a1.2,1.2,0,0,0-.083.435.47.47,0,0,0,.01.1.192.192,0,0,0,.02.056V0h-1V-.02a1.756,1.756,0,0,0,.22-.33q.132-.237.288-.593l2.8-6.206h.391l2.651,5.967q.093.21.193.408t.188.354q.088.156.156.264T11.5-.02V0ZM7-2.729l.581,0,.583,0,.549,0q.264,0,.479-.007L7.822-5.85,6.475-2.729ZM18.267-.82a.551.551,0,0,1-.012.112.175.175,0,0,1-.056.1,3.778,3.778,0,0,1-.476.305,3.649,3.649,0,0,1-.554.242A3.9,3.9,0,0,1,16.526.1a4.6,4.6,0,0,1-.74.056A4.8,4.8,0,0,1,14.165-.11a3.672,3.672,0,0,1-1.257-.74A3.292,3.292,0,0,1,12.095-2a3.745,3.745,0,0,1-.288-1.492,3.533,3.533,0,0,1,.12-.913,3.615,3.615,0,0,1,.349-.854A3.505,3.505,0,0,1,12.842-6a3.633,3.633,0,0,1,.769-.588,3.934,3.934,0,0,1,.952-.388,4.342,4.342,0,0,1,1.125-.139q.234,0,.479.022t.483.063q.239.042.461.1t.422.132l.332.9-.039.02a2.72,2.72,0,0,0-.439-.317,3.485,3.485,0,0,0-.532-.254,3.666,3.666,0,0,0-.593-.168,3.241,3.241,0,0,0-.627-.061,3.18,3.18,0,0,0-1.128.193,2.464,2.464,0,0,0-.881.559,2.528,2.528,0,0,0-.574.9,3.349,3.349,0,0,0-.205,1.211,4.728,4.728,0,0,0,.2,1.387,3.187,3.187,0,0,0,.581,1.108,2.678,2.678,0,0,0,.964.735,3.2,3.2,0,0,0,1.35.266,3.13,3.13,0,0,0,.61-.054A2.268,2.268,0,0,0,17-.51a.907.907,0,0,0,.281-.176.264.264,0,0,0,.1-.173v-.19q0-.342-.01-.591t-.029-.432q-.02-.183-.044-.315a2.242,2.242,0,0,0-.059-.244v-.02h1.172v.02q-.029.1-.056.242t-.046.33q-.02.19-.029.447t-.01.593ZM19.526-7q.61,0,1.213,0t1.106-.012q.5-.007.859-.022a3.941,3.941,0,0,0,.483-.039l-.239.649a3.586,3.586,0,0,0-.376-.078q-.186-.029-.452-.056t-.613-.027q-.117,0-.281.007t-.315.017l-.356.02v2.666q.5,0,.908-.029t.688-.049q.332-.029.586-.068l-.151.708q-.337-.044-.688-.083-.3-.034-.659-.061t-.684-.027V-.43a10.592,10.592,0,0,0,1.06-.049q.483-.049.845-.112.42-.068.767-.161l-.142.791q-.059,0-.176-.01L22.649.02l-.3-.007-.3,0-.251,0-.159,0H19.526V-.02a2.6,2.6,0,0,0,.056-.254q.027-.151.046-.376t.029-.535q.01-.31.01-.725V-5.088q0-.415-.01-.725t-.029-.537q-.02-.227-.046-.378a2.6,2.6,0,0,0-.056-.254Zm9.741.43a9.536,9.536,0,0,0-1.04.051q-.464.051-.8.11-.391.073-.7.161l.142-.791q.059,0,.176.01l.261.01.3.007.3,0,.251,0,.159,0h2.788l.159,0,.251,0,.3,0,.3-.007.261-.01q.117,0,.176-.01l.142.791q-.312-.088-.7-.161-.337-.059-.8-.11a9.536,9.536,0,0,0-1.04-.051v4.663q0,.415.012.725t.029.535q.017.225.044.376A2.6,2.6,0,0,0,30.3-.02V0H29.131V-.02a2.246,2.246,0,0,0,.054-.254q.024-.151.044-.376t.029-.535q.01-.31.01-.725Zm7.124-.547a4.157,4.157,0,0,1,1.506.266,3.553,3.553,0,0,1,1.194.747,3.4,3.4,0,0,1,.786,1.155,3.807,3.807,0,0,1,.283,1.489,3.913,3.913,0,0,1-.107.913,3.718,3.718,0,0,1-.315.85,3.586,3.586,0,0,1-.51.74,3.272,3.272,0,0,1-.691.586,3.386,3.386,0,0,1-.857.386A3.536,3.536,0,0,1,36.67.151,4.226,4.226,0,0,1,35.164-.11,3.511,3.511,0,0,1,33.97-.85,3.378,3.378,0,0,1,33.184-2,3.8,3.8,0,0,1,32.9-3.491a3.913,3.913,0,0,1,.107-.913,3.814,3.814,0,0,1,.315-.854A3.584,3.584,0,0,1,33.831-6a3.276,3.276,0,0,1,.688-.588,3.327,3.327,0,0,1,.859-.388A3.562,3.562,0,0,1,36.392-7.119ZM36.67-.288a2.46,2.46,0,0,0,.991-.2,2.162,2.162,0,0,0,.774-.566,2.64,2.64,0,0,0,.505-.906,3.781,3.781,0,0,0,.181-1.213,5.335,5.335,0,0,0-.173-1.394,3.373,3.373,0,0,0-.515-1.113,2.426,2.426,0,0,0-.852-.737,2.536,2.536,0,0,0-1.189-.266,2.487,2.487,0,0,0-.991.193,2.162,2.162,0,0,0-.774.559,2.59,2.59,0,0,0-.505.9,3.758,3.758,0,0,0-.181,1.211,5.443,5.443,0,0,0,.171,1.394A3.362,3.362,0,0,0,34.624-1.3a2.457,2.457,0,0,0,.854.745A2.513,2.513,0,0,0,36.67-.288ZM42.29-3.1a2.46,2.46,0,0,0,.876.017,1.473,1.473,0,0,0,.684-.3,1.514,1.514,0,0,0,.444-.627,2.6,2.6,0,0,0,.159-.967,2.908,2.908,0,0,0-.083-.72,1.621,1.621,0,0,0-.247-.552,1.117,1.117,0,0,0-.413-.352,1.284,1.284,0,0,0-.581-.125,3.418,3.418,0,0,0-.366.017q-.156.017-.264.037a1.492,1.492,0,0,0-.21.054ZM41.26-7l.205.02q.093.01.208.012l.237,0a3.851,3.851,0,0,0,.515-.046,6.043,6.043,0,0,1,.828-.046,2.651,2.651,0,0,1,.867.137,1.982,1.982,0,0,1,.691.4,1.826,1.826,0,0,1,.457.642,2.153,2.153,0,0,1,.164.862A2.308,2.308,0,0,1,45.171-3.9a2.155,2.155,0,0,1-.693.767,2.623,2.623,0,0,1-1,.4,3.573,3.573,0,0,1-1.187.012v.811q0,.415.012.725t.029.535q.017.225.044.376a2.6,2.6,0,0,0,.056.254V0H41.26V-.02a2.6,2.6,0,0,0,.056-.254q.027-.151.046-.376t.029-.535q.01-.31.01-.725V-5.088q0-.415-.01-.725t-.029-.537q-.02-.227-.046-.378a2.6,2.6,0,0,0-.056-.254Z" transform="translate(1220 50)" fill="#ae9f80"/>
    <path id="Path_13124" data-name="Path 13124" d="M23.883,2.117a1.252,1.252,0,0,0-1.77,0l-6.25,6.25a1.251,1.251,0,0,0,1.77,1.77L21.75,6.016V18a1.25,1.25,0,0,0,2.5,0V6.016l4.117,4.117a1.251,1.251,0,0,0,1.77-1.77l-6.25-6.25Z" transform="translate(1219 16)" fill="#ae9f80" stroke="#fff" stroke-width="0.5"/>
  </g>
</svg>
