<svg xmlns="http://www.w3.org/2000/svg" width="17.25" height="23" viewBox="0 0 17.25 23">
  <path id="Path_13121" data-name="Path 13121" d="M83.75-.125A2.878,2.878,0,0,0,80.875,2.75V20a2.878,2.878,0,0,0,2.875,2.875h11.5A2.878,2.878,0,0,0,98.125,20V7.063h-5.75a1.436,1.436,0,0,1-1.437-1.437V-.125Zm8.625,0v5.75h5.75Zm-6.469,11.5h7.188a.719.719,0,0,1,0,1.438H85.906a.719.719,0,0,1,0-1.437Zm0,2.875h7.188a.719.719,0,0,1,0,1.438H85.906a.719.719,0,0,1,0-1.437Zm0,2.875h7.188a.719.719,0,0,1,0,1.438H85.906a.719.719,0,0,1,0-1.437Z" transform="translate(-80.875 0.125)" fill="#fff"/>
</svg>
