<svg xmlns="http://www.w3.org/2000/svg" xmlns:xlink="http://www.w3.org/1999/xlink" buffered-rendering="static" width="120px" height="14px" viewBox="0,0,120,14">
<desc>
This file was created by http://www.h2.dion.ne.jp/~defghi/img2svg3/dot2svg3.htm at Thu Aug 22 2019 16:52:26 GMT+0900 (日本標準時)
path count:2
</desc>
<defs>
<g id="dots">
<path d="m0,0h106v2h1v1h1v1h1v1h1v1h1v1h1v1h1v1h1v1h1v1h1v1h-116zm108,0h12v12h-1v-1h-1v-1h-1v-1h-1v-1h-1v-1h-1v-1h-1v-1h-1v-1h-1v-1h-1v-1h-1v-1h-1z" opacity="0"/>
<path d="m106,0h2v1h1v1h1v1h1v1h1v1h1v1h1v1h1v1h1v1h1v1h1v1h1v1h1v2h-120v-2h116v-1h-1v-1h-1v-1h-1v-1h-1v-1h-1v-1h-1v-1h-1v-1h-1v-1h-1v-1h-1z"/>
</g>
</defs>
<use xlink:href="#dots"/>
</svg>