<svg height="30" viewBox="0 0 14 30" width="14" xmlns="http://www.w3.org/2000/svg"><path d="m0 0h6v1h-1v1h-1v1h-1v1h-1v1h-1v1h-1zm4 1h-1v1h1zm4-1h6v6h-1v-1h-1v-1h-1v-1h-1v-1h-1v-1h-1zm3 1h-1v1h1zm-9 2h-1v1h1zm11 0h-1v1h1zm-8 1h1v26h-6v-22h2v-1h1v-1h1v-1h1zm3 0h1v1h1v1h1v1h1v1h2v22h-6zm-3 2h-1v1h1zm5 0h-1v1h1zm-7 2h-1v1h1zm9 0h-1v1h1z" opacity="0"/><path d="m6 0h2v1h1v1h1v1h1v1h1v1h1v1h1v2h-2v-1h-1v-1h-1v-1h-1v-1h-1v26h-2v-26h-1v1h-1v1h-1v1h-1v1h-2v-2h1v-1h1v-1h1v-1h1v-1h1v-1h1z"/><path d="m3 1h1v1h-1zm7 0h1v1h-1zm-9 2h1v1h-1zm11 0h1v1h-1zm-8 3h1v1h-1zm5 0h1v1h-1zm-7 2h1v1h-1zm9 0h1v1h-1z" fill="#aaa" opacity="0"/></svg>