<svg xmlns="http://www.w3.org/2000/svg" xmlns:xlink="http://www.w3.org/1999/xlink" buffered-rendering="static" width="14px" height="30px" viewBox="0,0,14,30">
<desc>
This file was created by http://www.h2.dion.ne.jp/~defghi/img2svg3/dot2svg3.htm at Thu Aug 22 2019 16:51:35 GMT+0900 (日本標準時)
path count:3
</desc>
<defs>
<g id="dots">
<path d="m0,0h6v26h-1v-1h-1v-1h-1v-1h-1v-1h-2zm8,0h6v22h-2v1h-1v1h-1v1h-1v1h-1zm-5,21h-1v1h1zm9,0h-1v1h1zm-7,2h-1v1h1zm5,0h-1v1h1zm-10,1h1v1h1v1h1v1h1v1h1v1h1v1h-6zm13,0h1v6h-6v-1h1v-1h1v-1h1v-1h1v-1h1zm-11,2h-1v1h1zm11,0h-1v1h1zm-9,2h-1v1h1zm7,0h-1v1h1z" opacity="0"/>
<path d="m6,0h2v26h1v-1h1v-1h1v-1h1v-1h2v2h-1v1h-1v1h-1v1h-1v1h-1v1h-1v1h-2v-1h-1v-1h-1v-1h-1v-1h-1v-1h-1v-1h-1v-2h2v1h1v1h1v1h1v1h1z"/>
<path d="m2,21h1v1h-1zm9,0h1v1h-1zm-7,2h1v1h-1zm5,0h1v1h-1zm-8,3h1v1h-1zm11,0h1v1h-1zm-9,2h1v1h-1zm7,0h1v1h-1z" fill="#aaa" opacity="0"/>
</g>
</defs>
<use xlink:href="#dots"/>
</svg>