<svg xmlns="http://www.w3.org/2000/svg" width="2050.401" height="112.181" viewBox="0 0 2050.401 112.181">
  <path id="Path_236" data-name="Path 236" d="M-1020.04-106.4h28.28v83.58h45.08V0h-73.36ZM-893.06,2.24q-13.58,0-23.31-4.62a34.265,34.265,0,0,1-14.98-13.23q-5.25-8.61-5.25-20.51a40.963,40.963,0,0,1,4.76-20.02,33.986,33.986,0,0,1,13.3-13.51,39.407,39.407,0,0,1,19.74-4.83q10.92,0,18.9,4.41a30.021,30.021,0,0,1,12.25,12.46q4.27,8.05,4.27,19.25,0,1.96-.14,3.92t-.42,4.06h-48.02q1.68,7.28,7.21,10.57t15.05,3.29a58.313,58.313,0,0,0,12.04-1.33,50.471,50.471,0,0,0,11.06-3.57l2.24,18.2A58.441,58.441,0,0,1-877.73.84,83.261,83.261,0,0,1-893.06,2.24Zm6.16-46.34a12.232,12.232,0,0,0-.28-2.66,14.039,14.039,0,0,0-4.06-7.77,11.237,11.237,0,0,0-7.98-2.87q-10.92,0-13.16,13.3Zm43.68,17.92V-51.94H-855.4v-20.3h12.18V-90.86h25.2v18.62h20.58v20.3h-20.58v20.02q0,6.44,2.17,9.03t7.21,2.59a28.34,28.34,0,0,0,11.76-2.52l2.52,20.86q-8.12,4.2-21.84,4.2Q-843.22,2.24-843.22-26.18Zm57.54-80.22h24.08l-2.38,44.24H-783.3Zm32.48,83.58a44.173,44.173,0,0,0,11.9,5.32,46.685,46.685,0,0,0,12.74,1.82q9.52,0,9.52-4.9a4.286,4.286,0,0,0-2.1-3.85q-2.1-1.33-8.82-3.15-13.44-3.64-19.11-9.03t-5.67-14.77q0-10.92,8.26-17.01t22.68-6.09a68.2,68.2,0,0,1,14.42,1.54,40.966,40.966,0,0,1,11.76,4.2l-2.52,17.64a49.922,49.922,0,0,0-21.98-5.46q-8.12,0-8.12,4.62A4.333,4.333,0,0,0-728-48.23q2.24,1.47,8.82,3.29,13.44,3.64,19.18,9.31t5.74,14.91q0,10.92-8.61,16.94t-24.01,6.02A68.419,68.419,0,0,1-743.26.28,39.706,39.706,0,0,1-756-4.9Zm107.52-1.12q-7-12.18-7-28.98a56.5,56.5,0,0,1,4.27-22.26,51.188,51.188,0,0,1,12.04-17.43,53.938,53.938,0,0,1,18.48-11.34,67.1,67.1,0,0,1,23.59-3.99,76.757,76.757,0,0,1,18.27,2.24,55.733,55.733,0,0,1,15.47,6.02l-4.48,23.38a71.059,71.059,0,0,0-13.72-5.04,55.516,55.516,0,0,0-13.72-1.82q-14.28,0-22.61,8.19t-8.33,21.91q0,13.72,8.33,21.77t22.75,8.05a54.636,54.636,0,0,0,14.84-2.31,72.982,72.982,0,0,0,14.84-5.95l2.94,24.36a57.36,57.36,0,0,1-16.1,6.3A79.941,79.941,0,0,1-595,1.54q-17.78,0-30.73-6.65A47.432,47.432,0,0,1-645.68-23.94ZM-507.64,2.24a41.427,41.427,0,0,1-20.44-4.97,37.139,37.139,0,0,1-14.14-13.65,37.773,37.773,0,0,1-5.18-19.74,37.773,37.773,0,0,1,5.18-19.74,37,37,0,0,1,14.21-13.65,41.536,41.536,0,0,1,20.37-4.97,41.032,41.032,0,0,1,20.37,4.97A37.448,37.448,0,0,1-473.2-55.93a37.672,37.672,0,0,1,5.18,19.81,37.773,37.773,0,0,1-5.18,19.74A37.139,37.139,0,0,1-487.34-2.73,41.139,41.139,0,0,1-507.64,2.24Zm14.42-38.36a16.184,16.184,0,0,0-4.06-11.41,13.459,13.459,0,0,0-10.36-4.41,13.62,13.62,0,0,0-10.5,4.41,16.183,16.183,0,0,0-4.06,11.41,16.244,16.244,0,0,0,4.06,11.34,13.519,13.519,0,0,0,10.5,4.48,13.361,13.361,0,0,0,10.36-4.48A16.244,16.244,0,0,0-493.22-36.12ZM-384.02,0h-24.92l-.28-8.82a19.016,19.016,0,0,1-8.4,8.19A27.851,27.851,0,0,1-430.5,2.24q-11.9,0-18.2-7.63T-455-27.72V-72.24h25.34V-32.9q0,12.6,9.8,12.6a9.2,9.2,0,0,0,7.77-3.57q2.73-3.57,2.73-10.15V-72.24h25.34Zm17.08-72.24h24.78l.28,9.1a20.245,20.245,0,0,1,8.4-8.4,26.166,26.166,0,0,1,12.6-2.94q12.04,0,18.48,7.77t6.44,22.75V0H-321.3V-39.2q0-12.74-9.66-12.74a9.353,9.353,0,0,0-7.91,3.57q-2.73,3.57-2.73,10.15V0h-25.34Zm93.1,46.06V-51.94h-12.18v-20.3h12.18V-90.86h25.2v18.62h20.58v20.3h-20.58v20.02q0,6.44,2.17,9.03t7.21,2.59a28.34,28.34,0,0,0,11.76-2.52l2.52,20.86q-8.12,4.2-21.84,4.2Q-273.84,2.24-273.84-26.18ZM-173.32,2.24q-13.58,0-23.31-4.62a34.265,34.265,0,0,1-14.98-13.23q-5.25-8.61-5.25-20.51a40.963,40.963,0,0,1,4.76-20.02,33.986,33.986,0,0,1,13.3-13.51,39.406,39.406,0,0,1,19.74-4.83q10.92,0,18.9,4.41a30.021,30.021,0,0,1,12.25,12.46q4.27,8.05,4.27,19.25,0,1.96-.14,3.92t-.42,4.06h-48.02q1.68,7.28,7.21,10.57t15.05,3.29a58.313,58.313,0,0,0,12.04-1.33,50.471,50.471,0,0,0,11.06-3.57l2.24,18.2A58.442,58.442,0,0,1-157.99.84,83.261,83.261,0,0,1-173.32,2.24Zm6.16-46.34a12.236,12.236,0,0,0-.28-2.66,14.039,14.039,0,0,0-4.06-7.77,11.238,11.238,0,0,0-7.98-2.87q-10.92,0-13.16,13.3Zm38.08-28.14h24.64l.14,13.02a22.886,22.886,0,0,1,7.07-10.64A17.191,17.191,0,0,1-86.1-73.64a22.18,22.18,0,0,1,8.26,1.4l-2.1,23.94a25.545,25.545,0,0,0-4.48-1.19,27.2,27.2,0,0,0-4.9-.49q-14.42,0-14.42,19.04V0h-25.34ZM86.1-106.4h28.28v83.58h45.08V0H86.1ZM213.08,2.24q-13.58,0-23.31-4.62a34.265,34.265,0,0,1-14.98-13.23q-5.25-8.61-5.25-20.51a40.963,40.963,0,0,1,4.76-20.02,33.986,33.986,0,0,1,13.3-13.51,39.406,39.406,0,0,1,19.74-4.83q10.92,0,18.9,4.41a30.021,30.021,0,0,1,12.25,12.46q4.27,8.05,4.27,19.25,0,1.96-.14,3.92t-.42,4.06H194.18q1.68,7.28,7.21,10.57t15.05,3.29a58.313,58.313,0,0,0,12.04-1.33,50.471,50.471,0,0,0,11.06-3.57l2.24,18.2A58.442,58.442,0,0,1,228.41.84,83.261,83.261,0,0,1,213.08,2.24Zm6.16-46.34a12.236,12.236,0,0,0-.28-2.66,14.039,14.039,0,0,0-4.06-7.77,11.238,11.238,0,0,0-7.98-2.87q-10.92,0-13.16,13.3Zm43.68,17.92V-51.94H250.74v-20.3h12.18V-90.86h25.2v18.62H308.7v20.3H288.12v20.02q0,6.44,2.17,9.03t7.21,2.59a28.34,28.34,0,0,0,11.76-2.52l2.52,20.86q-8.12,4.2-21.84,4.2Q262.92,2.24,262.92-26.18Zm57.54-80.22h24.08l-2.38,44.24H322.84Zm32.48,83.58a44.174,44.174,0,0,0,11.9,5.32,46.685,46.685,0,0,0,12.74,1.82q9.52,0,9.52-4.9a4.286,4.286,0,0,0-2.1-3.85q-2.1-1.33-8.82-3.15-13.44-3.64-19.11-9.03T351.4-51.38q0-10.92,8.26-17.01t22.68-6.09a68.2,68.2,0,0,1,14.42,1.54,40.965,40.965,0,0,1,11.76,4.2L406-51.1a49.922,49.922,0,0,0-21.98-5.46q-8.12,0-8.12,4.62a4.333,4.333,0,0,0,2.24,3.71q2.24,1.47,8.82,3.29,13.44,3.64,19.18,9.31t5.74,14.91q0,10.92-8.61,16.94T379.26,2.24A68.419,68.419,0,0,1,362.88.28,39.707,39.707,0,0,1,350.14-4.9Zm107.52-1.12q-7-12.18-7-28.98a56.5,56.5,0,0,1,4.27-22.26,51.188,51.188,0,0,1,12.04-17.43,53.938,53.938,0,0,1,18.48-11.34,67.1,67.1,0,0,1,23.59-3.99,76.757,76.757,0,0,1,18.27,2.24,55.733,55.733,0,0,1,15.47,6.02L541.1-76.3a71.059,71.059,0,0,0-13.72-5.04,55.516,55.516,0,0,0-13.72-1.82q-14.28,0-22.61,8.19t-8.33,21.91q0,13.72,8.33,21.77t22.75,8.05a54.636,54.636,0,0,0,14.84-2.31,72.982,72.982,0,0,0,14.84-5.95l2.94,24.36a57.36,57.36,0,0,1-16.1,6.3,79.941,79.941,0,0,1-19.18,2.38q-17.78,0-30.73-6.65A47.432,47.432,0,0,1,460.46-23.94ZM598.5,2.24a41.427,41.427,0,0,1-20.44-4.97,37.139,37.139,0,0,1-14.14-13.65,37.773,37.773,0,0,1-5.18-19.74,37.773,37.773,0,0,1,5.18-19.74,37,37,0,0,1,14.21-13.65,41.536,41.536,0,0,1,20.37-4.97,41.032,41.032,0,0,1,20.37,4.97,37.448,37.448,0,0,1,14.07,13.58,37.672,37.672,0,0,1,5.18,19.81,37.773,37.773,0,0,1-5.18,19.74A37.139,37.139,0,0,1,618.8-2.73,41.139,41.139,0,0,1,598.5,2.24Zm14.42-38.36a16.183,16.183,0,0,0-4.06-11.41,13.459,13.459,0,0,0-10.36-4.41A13.62,13.62,0,0,0,588-47.53a16.183,16.183,0,0,0-4.06,11.41A16.244,16.244,0,0,0,588-24.78a13.519,13.519,0,0,0,10.5,4.48,13.361,13.361,0,0,0,10.36-4.48A16.244,16.244,0,0,0,612.92-36.12ZM722.12,0H697.2l-.28-8.82a19.016,19.016,0,0,1-8.4,8.19,27.85,27.85,0,0,1-12.88,2.87q-11.9,0-18.2-7.63t-6.3-22.33V-72.24h25.34V-32.9q0,12.6,9.8,12.6a9.2,9.2,0,0,0,7.77-3.57q2.73-3.57,2.73-10.15V-72.24h25.34ZM739.2-72.24h24.78l.28,9.1a20.245,20.245,0,0,1,8.4-8.4,26.166,26.166,0,0,1,12.6-2.94q12.04,0,18.48,7.77t6.44,22.75V0H784.84V-39.2q0-12.74-9.66-12.74a9.353,9.353,0,0,0-7.91,3.57q-2.73,3.57-2.73,10.15V0H739.2Zm93.1,46.06V-51.94H820.12v-20.3H832.3V-90.86h25.2v18.62h20.58v20.3H857.5v20.02q0,6.44,2.17,9.03t7.21,2.59a28.34,28.34,0,0,0,11.76-2.52l2.52,20.86q-8.12,4.2-21.84,4.2Q832.3,2.24,832.3-26.18ZM932.82,2.24q-13.58,0-23.31-4.62a34.265,34.265,0,0,1-14.98-13.23q-5.25-8.61-5.25-20.51a40.963,40.963,0,0,1,4.76-20.02,33.986,33.986,0,0,1,13.3-13.51,39.407,39.407,0,0,1,19.74-4.83q10.92,0,18.9,4.41a30.021,30.021,0,0,1,12.25,12.46q4.27,8.05,4.27,19.25,0,1.96-.14,3.92t-.42,4.06H913.92q1.68,7.28,7.21,10.57t15.05,3.29a58.313,58.313,0,0,0,12.04-1.33,50.471,50.471,0,0,0,11.06-3.57l2.24,18.2A58.441,58.441,0,0,1,948.15.84,83.261,83.261,0,0,1,932.82,2.24Zm6.16-46.34a12.232,12.232,0,0,0-.28-2.66,14.039,14.039,0,0,0-4.06-7.77,11.237,11.237,0,0,0-7.98-2.87q-10.92,0-13.16,13.3Zm38.08-28.14h24.64l.14,13.02a22.886,22.886,0,0,1,7.07-10.64,17.191,17.191,0,0,1,11.13-3.78,22.18,22.18,0,0,1,8.26,1.4l-2.1,23.94a25.547,25.547,0,0,0-4.48-1.19,27.2,27.2,0,0,0-4.9-.49q-14.42,0-14.42,19.04V0H977.06Z" transform="translate(1021.04 108.94)" fill="none" stroke="#fff" stroke-width="2"/>
</svg>
