<svg xmlns="http://www.w3.org/2000/svg" width="157.8" height="60" viewBox="0 0 157.8 60">
  <g id="Group_1" data-name="Group 1" transform="translate(1505 -2266)">
    <g id="logo" transform="translate(-1440 2271)">
      <path id="Path_1" data-name="Path 1" d="M18.9,1.4,10.8,20.2h-9V16.3H8.2l4.7-11H8L5.2,12H1L3.7,5.3H.3L1.9,1.4H5.3L5.9,0h4.2L9.5,1.4Z"/>
      <path id="Path_2" data-name="Path 2" d="M79.7,1.4,71.6,20.2H60.9V16.3h8.2L70.9,12H66.4V8.1h6.2l1.2-2.8H66.2l-2.1,4.8L59.9,10l3.7-8.6H79.7Z"/>
      <path id="Path_3" data-name="Path 3" d="M51.7,20.2H40.4V16.3h8.7L55.5,1.4h4.2l-8,18.8Z"/>
      <path id="Path_4" data-name="Path 4" d="M43,1.4,41.4,5.3h8.4l1.7-3.9H43Z"/>
      <path id="Path_5" data-name="Path 5" d="M80.1,10.1,78.4,14H92.8V10.1Z"/>
      <path id="Path_6" data-name="Path 6" d="M39.3,1.4,31.2,20.2H20.4V16.3h8.2l4.7-11h-8l-2,4.8L19,10l3.7-8.4V1.4H27L27.5,0h4.3l-.6,1.4h8.1Z"/>
      <path id="Path_7" data-name="Path 7" d="M79.4,39.8l1.8-3.1-3.9-2.9,2.1-2.6,2.5-3.1H77.5v-3H73.9v3H71v3.1h4.3l-4.6,5.7,1.7,3.2,1.5-2v7.8h3.6V37.6Z"/>
      <path id="Path_8" data-name="Path 8" d="M88,41.9v-8h4.2V30.6H88V25.1H84.4v5.5H80.5v3.3h3.9v8H79v3.4H92.8V41.9Z"/>
      <path id="Path_9" data-name="Path 9" d="M52.2,31.9v1.9H64.5V31.9L68,34.2l1.8-3.3-9.3-5.7H56.4L47,31l1.8,3.3Zm6.2-4.1,4.7,3.1H53.8Z"/>
      <path id="Path_10" data-name="Path 10" d="M70.1,45.4l-5.7-6.5H60.1l2.6,2.9-8,.3,1.8-3.7H68.8V35.2H47.9v3.2h4.8L51,42.2H48.1l.5,3.2L65,44.5l.8.9h4.3Z"/>
      <path id="Path_11" data-name="Path 11" d="M22.8,41l-4.6-4.8h4.2V33.1H17.3V31H22V27.9H17.3V25.1H14v2.8H12.5l.8-1.9H10.1L8.5,29.6v-.9h-2V25.1H3.3v3.6H.4v2.9H3.2L0,37.7,1.1,42l2.2-4.4v8.2H6.5V36.7l1.3,3,2-2.5-.8-1h3.7L7.6,41.6l2,3.1L14,39.3v6.6h3.3V39.6l4.1,5.1L22.8,41ZM6.5,32.5v-.9H7.8l-.4.9h3.2l.7-1.5H14v2.1H8.7v2.6L6.5,32.5Z"/>
      <path id="Path_12" data-name="Path 12" d="M45.4,24.8H42.2l-1.1,2.4h3.2Z"/>
      <path id="Path_13" data-name="Path 13" d="M36.2,40.9l-4.6.4V36.5h3.8V33.3H24.5v3.2h3.8v5.1l-4.4.4.3,3.1,12-1.1,1.7-.2V40.7l-1.7.2Z"/>
      <path id="Path_14" data-name="Path 14" d="M40.6,31.4H46V28.2H39.4l-1.2-3H34.6l1.1,3H24.1v3.2H36.9l5.3,14.5h3.9L40.6,31.4Z"/>
    </g>
    <g id="Counter-logo" transform="translate(-1505 2266)">
      <path id="Path_15" data-name="Path 15" d="M44.6,12.5,53,10.7l-2.2,9.1A17.08,17.08,0,0,1,52.3,26H42c-.8-2.5-4.1-5.3-8-5.3a8.237,8.237,0,0,0-8.2,8.2v2.2A8.237,8.237,0,0,0,34,39.3c3.9,0,7.2-2.8,8-5.3H52.3a14.524,14.524,0,0,1-1.5,6.2L53,49.3l-8.4-1.8L38.5,57.7,34,50.8,21.7,57.7l.7-11L9.4,47l6.7-10.4L2.7,30,16,23.5,9.4,13l13,.2-.7-11L34,9.2l4.6-6.9Z" fill="red"/>
      <path id="Path_16" data-name="Path 16" d="M38.6,60l-5-7.6L20.4,59.9,21.1,48l-14,.2L14.3,37,0,30l14.3-7L7.2,11.8l14,.2L20.4.1,33.6,7.6l5-7.6,6.6,11.1L54.6,9,52,19.6a15.959,15.959,0,0,1,1.4,6.3v1.2H41.1l-.3-.8a7.5,7.5,0,0,0-6.9-4.5,6.957,6.957,0,0,0-7,7V31a6.957,6.957,0,0,0,7,7,7.5,7.5,0,0,0,6.9-4.5l.3-.8H53.5v1.2a15.588,15.588,0,0,1-1.4,6.3l2.5,10.5-9.4-2.1ZM23.7,45.5,23,55.6l11.3-6.4,4.1,6.2L43.9,46l7.4,1.6L49.5,40l.2-.4A15.307,15.307,0,0,0,51,35.1H42.8A10.023,10.023,0,0,1,34,40.4,9.389,9.389,0,0,1,24.6,31V28.8A9.389,9.389,0,0,1,34,19.4a10.023,10.023,0,0,1,8.8,5.3H51a14.488,14.488,0,0,0-1.3-4.5l-.2-.4,1.8-7.6L44,13.9,38.5,4.6l-4.1,6.2L23,4.4l.7,10.1-12.1-.2L17.8,24,5.4,30l12.4,6-6.2,9.7Z"/>
    </g>
  </g>
</svg>
