<svg xmlns="http://www.w3.org/2000/svg" width="152.68" height="162.132" viewBox="0 0 152.68 162.132">
  <g id="Group_14" data-name="Group 14" transform="translate(0 0.003)">
    <path id="Path_17" data-name="Path 17" d="M22.45,48.69l-3.07-1.4-3.85,8.45L1.62,49.4,0,52.95l16.99,7.74Z"/>
    <path id="Path_18" data-name="Path 18" d="M17.01,43.99c4.51,3.47,7.82,2.24,10.2-.85a6,6,0,0,0,.2-7.52l-2.28,2.97a2.326,2.326,0,0,1-.23,2.77c-1.79,2.33-3.77,1.07-4.66.52l5.78-7.52-.52-.4c-5.01-3.85-8.34-1.65-10,.51C11.81,39.27,15.69,42.97,17.01,43.99Zm.83-7.65c.71-.93,2.12-1.65,4.02-.45l-3.44,4.47C17.1,39.09,16.79,37.7,17.84,36.34Z"/>
    <path id="Path_19" data-name="Path 19" d="M21.67,27.75l1.76,1.91,1.38-1.27,5.69,6.18c1.21,1.32,2.45,1.81,4.76-.32l.34-.32q.63-.585,1.23-1.2L34.96,30.7c-.17.19-.35.39-.52.55-1.09,1-1.32.79-1.87.2l-5.09-5.53,1.67-1.53-1.76-1.91-1.67,1.53-2.54-2.76L20.5,23.72l2.54,2.75-1.38,1.27Z"/>
    <rect id="Rectangle_18" data-name="Rectangle 18" width="2.55" height="7.05" transform="matrix(0.806, -0.592, 0.592, 0.806, 27.334, 16.453)"/>
    <path id="Path_20" data-name="Path 20" d="M48.15,21.07c.24.46.27,1.47-1.39,2.33-2.03,1.05-3.07.63-3.61-.41l-3.32,1.73c1.79,3.23,5.32,2.63,8.11,1.18,1.92-1,5.04-3.44,3.18-7.01-2.35-4.52-9.3.87-10.31-1.06-.28-.53-.39-1.32,1.36-2.23s2.46-.22,3.01.49l3.16-1.64c-2.05-3.33-5.22-2.44-7.62-1.2-3.83,1.99-3.76,4.88-2.83,6.68,2.38,4.59,9.19-.91,10.26,1.15Z"/>
    <path id="Path_21" data-name="Path 21" d="M68.74,16.24c-3.28.4-4.96-2.44-5.36-5.77-.63-5.24,1.96-6.81,3.81-7.04a3.787,3.787,0,0,1,4.49,2.71l3.87-.47C75.01,2.96,72.31-.59,66.76.08c-4.78.58-8.12,4.33-7.34,10.81.77,6.4,4.71,9.31,9.64,8.71,4.65-.56,6.94-3.69,7.23-7.81l-3.87.47A3.982,3.982,0,0,1,68.74,16.24Z"/>
    <path id="Path_22" data-name="Path 22" d="M84.84,19.65c3.68.51,7.32-1.3,8-6.25s-2.33-7.67-6.01-8.18-7.32,1.3-8,6.25S81.16,19.14,84.84,19.65Zm-2.3-7.67c.24-1.75,1.09-4.1,3.87-3.72s2.96,2.88,2.72,4.63-1.09,4.1-3.87,3.72-2.96-2.88-2.72-4.63Z"/>
    <path id="Path_23" data-name="Path 23" d="M102.46,22.23l-.72,1.81,3.24,1.28,5.08-12.87-3.39-1.34-2.93,7.42c-.91,2.3-2.66,2.33-3.77,1.9-1.04-.41-2.05-1.26-1.26-3.24l3.15-7.98L98.47,7.87l-3.34,8.46c-1.3,3.29-.03,5.47,2.5,6.47a4.539,4.539,0,0,0,4.77-.61l.05.02Z"/>
    <path id="Path_24" data-name="Path 24" d="M110.06,28.56l4.57-6.48c1.21-1.72,2.86-1.89,4.18-.96,1.89,1.33.94,2.77.36,3.59l-4.84,6.86,2.97,2.1,5.51-7.82c1.75-2.48.95-4.99-1.26-6.55a4.453,4.453,0,0,0-4.78-.44l-.04-.03,1.17-1.66-2.85-2.01-7.97,11.3,2.97,2.1Z"/>
    <path id="Path_25" data-name="Path 25" d="M121.41,33.95c-1.28,1.25-1.74,2.5.46,4.75l.33.33c.4.41.82.8,1.24,1.19l1.97-1.92c-.2-.17-.4-.34-.56-.5-1.04-1.06-.83-1.3-.25-1.86l5.38-5.25,1.58,1.62,1.86-1.82-1.58-1.62,2.68-2.61-2.54-2.6-2.68,2.62-1.31-1.34-1.86,1.82,1.31,1.34-6.01,5.87Z"/>
    <path id="Path_26" data-name="Path 26" d="M129.69,35.99c-4.68,3.25-4.51,6.77-2.29,9.98a5.994,5.994,0,0,0,7.1,2.48l-2.14-3.08a2.332,2.332,0,0,1-2.57-1.06c-1.68-2.41.13-3.92.92-4.6l5.41,7.8.53-.37c5.19-3.6,4.11-7.44,2.55-9.69-3.46-4.98-8.16-2.41-9.53-1.46Zm7.04,3.12c.67.96.93,2.52-.79,3.97l-3.22-4.64C134.33,37.57,135.75,37.7,136.73,39.11Z"/>
    <path id="Path_27" data-name="Path 27" d="M133.3,55.74l6.57-2.96c1.4-.63,3.22-.88,4.39,1.7a6.485,6.485,0,0,1,.38.97l3.37-1.51a5.207,5.207,0,0,0-.24-.66c-.91-2.02-2.48-2.22-4.07-2.33l-.02-.05,2.18-.98-1.43-3.18-12.62,5.67,1.49,3.32Z"/>
    <path id="Path_28" data-name="Path 28" d="M135.66,101.19l-5.4,12.02,3.08,1.39,3.8-8.47,13.94,6.26,1.6-3.55Z"/>
    <path id="Path_29" data-name="Path 29" d="M135.73,117.86c-4.54-3.45-7.83-2.2-10.19.91a5.991,5.991,0,0,0-.16,7.52l2.26-2.98a2.355,2.355,0,0,1,.21-2.78c1.78-2.34,3.77-1.09,4.66-.54l-5.74,7.56.52.39c5.03,3.82,8.35,1.61,10-.57,3.67-4.83-.23-8.51-1.56-9.51Zm-.79,7.66c-.71.93-2.11,1.66-4.02.47l3.41-4.49c1.32,1.27,1.64,2.65.6,4.02Z"/>
    <path id="Path_30" data-name="Path 30" d="M131.14,134.15l-1.77-1.9L128,133.52l-5.72-6.15c-1.22-1.31-2.46-1.8-4.76.34l-.34.32c-.42.39-.82.8-1.22,1.21l1.88,2.02a6.95,6.95,0,0,1,.52-.55c1.08-1.01,1.32-.8,1.87-.21l5.12,5.5-1.66,1.54,1.77,1.9,1.66-1.54,2.55,2.74,2.67-2.48-2.55-2.74,1.37-1.27Z"/>
    <rect id="Rectangle_19" data-name="Rectangle 19" width="2.55" height="7.04" transform="translate(119.316 141.319) rotate(-36.57)"/>
    <path id="Path_31" data-name="Path 31" d="M104.72,140.95c-.24-.46-.27-1.47,1.38-2.34,2.02-1.06,3.07-.64,3.61.39l3.31-1.74c-1.81-3.22-5.33-2.6-8.12-1.14-1.91,1-5.02,3.46-3.15,7.03,2.37,4.51,9.3-.92,10.31,1.01.28.53.4,1.32-1.35,2.24s-2.46.24-3.01-.47l-3.15,1.66c2.07,3.32,5.24,2.42,7.63,1.16,3.82-2.01,3.74-4.9,2.79-6.7-2.41-4.58-9.19.96-10.27-1.09Z"/>
    <path id="Path_32" data-name="Path 32" d="M83.8,142.53c-4.64.58-6.92,3.73-7.19,7.85l3.87-.49a3.984,3.984,0,0,1,3.66-4c3.28-.41,4.97,2.41,5.39,5.74.66,5.24-1.92,6.82-3.78,7.05A3.8,3.8,0,0,1,81.24,156l-3.87.49c.55,2.71,3.28,6.25,8.82,5.55,4.77-.6,8.1-4.38,7.28-10.85-.81-6.4-4.76-9.28-9.69-8.66Z"/>
    <path id="Path_33" data-name="Path 33" d="M68.02,142.57c-3.68-.49-7.31,1.34-7.97,6.29s2.37,7.66,6.05,8.15,7.31-1.34,7.97-6.29S71.7,143.06,68.02,142.57Zm2.34,7.65c-.23,1.75-1.07,4.11-3.85,3.74s-2.98-2.86-2.75-4.61,1.07-4.11,3.85-3.74S70.59,148.47,70.36,150.22Z"/>
    <path id="Path_34" data-name="Path 34" d="M55.21,139.46a4.563,4.563,0,0,0-4.77.63l-.05-.02.71-1.82-3.25-1.26-5.02,12.89,3.39,1.32,2.89-7.44c.9-2.3,2.64-2.35,3.76-1.91,1.04.41,2.05,1.25,1.28,3.23l-3.11,8,3.39,1.32,3.3-8.48c1.28-3.3,0-5.47-2.54-6.46Z"/>
    <path id="Path_35" data-name="Path 35" d="M42.74,133.77l-4.54,6.5c-1.21,1.73-2.85,1.91-4.17.99-1.9-1.32-.96-2.76-.38-3.59l4.81-6.88-2.98-2.08-5.47,7.84c-1.74,2.49-.92,5,1.29,6.55a4.459,4.459,0,0,0,4.78.42l.04.03-1.16,1.66,2.86,1.99,7.92-11.34-2.98-2.08Z"/>
    <path id="Path_36" data-name="Path 36" d="M31.37,128.44c1.28-1.26,1.73-2.51-.48-4.75l-.33-.33c-.4-.41-.82-.8-1.24-1.18l-1.96,1.93c.2.17.4.33.57.5,1.04,1.05.84,1.29.26,1.86l-5.35,5.27-1.59-1.61-1.85,1.83,1.59,1.61-2.67,2.63,2.55,2.59,2.67-2.63,1.31,1.33,1.85-1.83-1.31-1.33,5.98-5.89Z"/>
    <path id="Path_37" data-name="Path 37" d="M23.1,126.46c4.66-3.27,4.47-6.79,2.23-9.98a5.991,5.991,0,0,0-7.11-2.44l2.15,3.06a2.346,2.346,0,0,1,2.58,1.05c1.69,2.4-.11,3.92-.9,4.6l-5.45-7.76-.53.37c-5.17,3.63-4.07,7.46-2.5,9.7,3.48,4.96,8.17,2.36,9.53,1.41Zm-7.06-3.08c-.67-.96-.94-2.52.77-3.97l3.24,4.62C18.44,124.91,17.03,124.79,16.04,123.38Z"/>
    <path id="Path_38" data-name="Path 38" d="M19.37,106.71l-6.55,2.99c-1.4.64-3.22.9-4.4-1.68a6.484,6.484,0,0,1-.38-.97l-3.36,1.53c.07.22.15.45.24.66.92,2.01,2.49,2.21,4.08,2.31l.02.05-2.18.99,1.45,3.17,12.58-5.74-1.51-3.31Z"/>
    <circle id="Ellipse_4" data-name="Ellipse 4" cx="3.84" cy="3.84" r="3.84" transform="translate(141.29 77.24)"/>
    <circle id="Ellipse_5" data-name="Ellipse 5" cx="3.84" cy="3.84" r="3.84" transform="translate(3.23 77.24)"/>
  </g>
</svg>
