<svg xmlns="http://www.w3.org/2000/svg" width="60" height="60" viewBox="0 0 60 60">
  <g id="Group_180" data-name="Group 180" transform="translate(-338.119 -8544)">
    <circle id="Ellipse_7" data-name="Ellipse 7" cx="30" cy="30" r="30" transform="translate(338.119 8544)" fill="#fff"/>
    <path id="Icon_feather-phone-call" data-name="Icon feather-phone-call" d="M17.853,5.809a6.219,6.219,0,0,1,4.913,4.913M17.853.833a11.194,11.194,0,0,1,9.888,9.876M26.5,20.635v3.731a2.488,2.488,0,0,1-2.712,2.488,24.616,24.616,0,0,1-10.734-3.819,24.255,24.255,0,0,1-7.463-7.463A24.615,24.615,0,0,1,1.77,4.789,2.488,2.488,0,0,1,4.245,2.077H7.977a2.488,2.488,0,0,1,2.488,2.139,15.971,15.971,0,0,0,.871,3.5,2.488,2.488,0,0,1-.56,2.624L9.2,11.916a19.9,19.9,0,0,0,7.463,7.463l1.58-1.58a2.488,2.488,0,0,1,2.624-.56,15.971,15.971,0,0,0,3.5.871A2.488,2.488,0,0,1,26.5,20.635Z" transform="translate(353.359 8560.167)" fill="none" stroke="#ccc" stroke-linecap="round" stroke-linejoin="round" stroke-width="1.667"/>
  </g>
</svg>
