<svg xmlns="http://www.w3.org/2000/svg" width="16.247" height="16.276" viewBox="0 0 16.247 16.276">
  <path id="Icon_feather-phone-call" data-name="Icon feather-phone-call" d="M11.171,3.743a3.637,3.637,0,0,1,2.873,2.873M11.171.833a6.547,6.547,0,0,1,5.783,5.776m-.727,5.8V14.6a1.455,1.455,0,0,1-1.586,1.455,14.4,14.4,0,0,1-6.277-2.233A14.184,14.184,0,0,1,4,9.453,14.4,14.4,0,0,1,1.766,3.146,1.455,1.455,0,0,1,3.213,1.561H5.4A1.455,1.455,0,0,1,6.85,2.812,9.34,9.34,0,0,0,7.36,4.856a1.455,1.455,0,0,1-.327,1.535l-.924.924a11.638,11.638,0,0,0,4.364,4.364l.924-.924a1.455,1.455,0,0,1,1.535-.327,9.34,9.34,0,0,0,2.044.509,1.455,1.455,0,0,1,1.251,1.477Z" transform="translate(-1.26 -0.281)" fill="none" stroke="#fff" stroke-linecap="round" stroke-linejoin="round" stroke-width="1"/>
</svg>
