<svg xmlns="http://www.w3.org/2000/svg" width="30.802" height="28.193" viewBox="0 0 30.802 28.193">
  <g id="Layer_2" data-name="Layer 2" transform="translate(0.5 0.5)">
    <g id="Group_170" data-name="Group 170" transform="translate(0 0)">
      <ellipse id="Ellipse_24" data-name="Ellipse 24" cx="5.032" cy="5.032" rx="5.032" ry="5.032" transform="translate(4.704 9.801)" fill="none" stroke="#004eb1" stroke-linecap="round" stroke-linejoin="round" stroke-width="1"/>
      <path id="Path_87" data-name="Path 87" d="M20.469,18.945l-.989-2.673-1.982.2a8.084,8.084,0,0,0-1.709-1.848l.358-1.957-2.588-1.192L12.3,13.024a8.177,8.177,0,0,0-2.514-.1L8.655,11.29l-2.673.989.2,1.982A8.084,8.084,0,0,0,4.338,15.97l-1.957-.358L1.189,18.2l1.545,1.257a8.177,8.177,0,0,0-.1,2.514L1,23.1l.989,2.673,1.982-.2A8.083,8.083,0,0,0,5.68,27.42l-.358,1.957L7.91,30.57l1.257-1.545a8.178,8.178,0,0,0,2.514.1l1.133,1.634,2.673-.989-.2-1.982a8.084,8.084,0,0,0,1.848-1.709l1.957.358,1.192-2.588-1.545-1.257a8.177,8.177,0,0,0,.1-2.514l1.634-1.133Z" transform="translate(-1 -6.188)" fill="none" stroke="#004eb1" stroke-linecap="round" stroke-linejoin="round" stroke-width="1"/>
      <path id="Path_88" data-name="Path 88" d="M37.18,12.977a3.794,3.794,0,1,1,3.378,4.168" transform="translate(-19.207 -5.327)" fill="none" stroke="#004eb1" stroke-linecap="round" stroke-linejoin="round" stroke-width="1"/>
      <path id="Path_89" data-name="Path 89" d="M41.6,14.458a6.61,6.61,0,0,0,1.446-1.51l1.639.2.859-2.206L44.2,9.977a6.725,6.725,0,0,0-.045-2.091l1.3-1.018L44.5,4.7l-1.634.268a6.61,6.61,0,0,0-1.51-1.446l.2-1.639L39.351,1.02l-.964,1.341a6.725,6.725,0,0,0-2.091.045L35.278,1.1l-2.171.954.268,1.634A6.61,6.61,0,0,0,31.929,5.2L30.29,5" transform="translate(-15.739 -1.02)" fill="none" stroke="#004eb1" stroke-linecap="round" stroke-linejoin="round" stroke-width="1"/>
      <ellipse id="Ellipse_25" data-name="Ellipse 25" cx="2.265" cy="2.265" rx="2.265" ry="2.265" transform="translate(20 18.564)" fill="none" stroke="#004eb1" stroke-linecap="round" stroke-linejoin="round" stroke-width="1"/>
      <path id="Path_90" data-name="Path 90" d="M34.67,39.966l1.287-.209A5.3,5.3,0,0,0,37.149,40.9l-.159,1.3,1.744.681.76-1.058a5.257,5.257,0,0,0,1.649-.035l.8,1.028,1.714-.75-.209-1.287A5.3,5.3,0,0,0,44.6,39.584l1.3.159L46.573,38l-1.058-.76a5.257,5.257,0,0,0-.035-1.649l1.028-.8-.75-1.714-1.287.209a5.3,5.3,0,0,0-1.192-1.143l.159-1.3-1.744-.681-.76,1.058a5.257,5.257,0,0,0-1.649.035l-.8-1.028" transform="translate(-17.944 -15.684)" fill="none" stroke="#004eb1" stroke-linecap="round" stroke-linejoin="round" stroke-width="1"/>
    </g>
  </g>
</svg>
