<svg xmlns="http://www.w3.org/2000/svg" width="35.728" height="22.809" viewBox="0 0 35.728 22.809">
  <g id="Layer_2" data-name="Layer 2" transform="translate(0.7 0.699)">
    <g id="Group_171" data-name="Group 171" transform="translate(0 0)">
      <rect id="Rectangle_95" data-name="Rectangle 95" width="6.517" height="11.178" rx="2.05" transform="translate(22.425 3.893) rotate(-36.68)" fill="none" stroke="#004eb1" stroke-linecap="round" stroke-linejoin="round" stroke-width="1"/>
      <rect id="Rectangle_96" data-name="Rectangle 96" width="6.517" height="11.178" rx="2.05" transform="translate(5.226 12.859) rotate(-143.32)" fill="none" stroke="#004eb1" stroke-linecap="round" stroke-linejoin="round" stroke-width="1"/>
      <path id="Path_91" data-name="Path 91" d="M32.983,9.121,30.031,8.5a2.78,2.78,0,0,0-1.493.1l-3.565,1.27a1.947,1.947,0,0,0-.958.741L22.59,12.146a.976.976,0,0,0,.791,1.638l1.509-.123a1.945,1.945,0,0,0,1.03-.4l.93-.718a1.972,1.972,0,0,1,2.362-.033l6.478,4.818,1.236-.964a2.826,2.826,0,0,0,.824-1.036l.123-.262" transform="translate(-9.991 -3.84)" fill="none" stroke="#004eb1" stroke-linecap="round" stroke-linejoin="round" stroke-width="1"/>
      <path id="Path_92" data-name="Path 92" d="M42.08,23.432h0a1.263,1.263,0,0,1,.234,1.766l-.045.05a1.266,1.266,0,0,1-1.782.095L37.63,22.97" transform="translate(-16.771 -10.276)" fill="none" stroke="#004eb1" stroke-linecap="round" stroke-linejoin="round" stroke-width="1"/>
      <path id="Path_93" data-name="Path 93" d="M39.38,27.032h0a1.263,1.263,0,0,1,.234,1.766l-.045.05a1.266,1.266,0,0,1-1.782.095L34.93,26.57" transform="translate(-15.575 -11.871)" fill="none" stroke="#004eb1" stroke-linecap="round" stroke-linejoin="round" stroke-width="1"/>
      <path id="Path_94" data-name="Path 94" d="M36.8,30.3h0a1.263,1.263,0,0,1,.234,1.766l-.045.05a1.266,1.266,0,0,1-1.782.095L32.35,29.84" transform="translate(-14.432 -13.319)" fill="none" stroke="#004eb1" stroke-linecap="round" stroke-linejoin="round" stroke-width="1"/>
      <path id="Path_95" data-name="Path 95" d="M33.845,32.69h0a1.263,1.263,0,0,1,.234,1.766l-.045.05a1.266,1.266,0,0,1-1.782.095L30.67,33.286" transform="translate(-13.688 -14.582)" fill="none" stroke="#004eb1" stroke-linecap="round" stroke-linejoin="round" stroke-width="1"/>
      <path id="Path_96" data-name="Path 96" d="M23.744,10.331s-2.434-.73-2.919-.824A6.231,6.231,0,0,0,19.7,9.429" transform="translate(-8.828 -4.276)" fill="none" stroke="#004eb1" stroke-linecap="round" stroke-linejoin="round" stroke-width="1"/>
      <path id="Path_97" data-name="Path 97" d="M12.587,23.441s-1.827-1.654-2.027-2.451" transform="translate(-4.779 -9.398)" fill="none" stroke="#004eb1" stroke-linecap="round" stroke-linejoin="round" stroke-width="1"/>
      <rect id="Rectangle_97" data-name="Rectangle 97" width="5.397" height="2.389" rx="1.195" transform="matrix(0.691, -0.723, 0.723, 0.691, 7.259, 15.14)" fill="none" stroke="#004eb1" stroke-linecap="round" stroke-linejoin="round" stroke-width="1"/>
      <rect id="Rectangle_98" data-name="Rectangle 98" width="4.589" height="2.389" rx="1.195" transform="matrix(0.691, -0.723, 0.723, 0.691, 10.975, 18.226)" fill="none" stroke="#004eb1" stroke-linecap="round" stroke-linejoin="round" stroke-width="1"/>
      <rect id="Rectangle_99" data-name="Rectangle 99" width="3.877" height="2.389" rx="1.195" transform="matrix(0.691, -0.723, 0.723, 0.691, 12.818, 19.753)" fill="none" stroke="#004eb1" stroke-linecap="round" stroke-linejoin="round" stroke-width="1"/>
      <rect id="Rectangle_100" data-name="Rectangle 100" width="6.272" height="2.389" rx="1.195" transform="matrix(0.691, -0.723, 0.723, 0.691, 8.742, 17.129)" fill="none" stroke="#004eb1" stroke-linecap="round" stroke-linejoin="round" stroke-width="1"/>
    </g>
  </g>
</svg>
