<svg xmlns="http://www.w3.org/2000/svg" width="1001" height="504" viewBox="0 0 1001 504">
  <g id="Group_399" data-name="Group 399" transform="translate(-322 -17275)">
    <rect id="Rectangle_186" data-name="Rectangle 186" width="1001" height="504" transform="translate(322 17275)" fill="none"/>
    <path id="Path_182" data-name="Path 182" d="M10.5-2.37c0,.57-.21.81-.84.54-.93-.42-2.28-1.11-3.39-1.68A35.971,35.971,0,0,1,10.5-6.96Zm1.35-8.13c0-1.38.03-2.82.12-4.17a32.866,32.866,0,0,0,4.44-1.65c.63-.3.96-.66.96-1.17-.03-.66-.81-.78-1.35-.78-.63.03-1.62,1.02-3.96,1.89a20.984,20.984,0,0,1,.36-2.94c.21-.96.66-1.41.66-2.13s-1.92-1.68-3.06-1.68a4.576,4.576,0,0,0-2.1.57l.09.57a5.76,5.76,0,0,1,1.89.21c.48.15.6.27.6.93.03.72,0,2.73,0,4.95a14.641,14.641,0,0,1-3.18.54c-1.59.06-2.04-.24-3.57-1.74l-.51.39c1.23,2.73,2.49,3,3.96,3a16.021,16.021,0,0,0,3.3-.54v5.79C8.49-7.32,6.15-5.49,5.04-4.83a2.226,2.226,0,0,1-1.71.33c-.66-.06-.84.18-.84.87A1.645,1.645,0,0,0,3.03-2.4a1.456,1.456,0,0,0,.96.51c.42,0,.81-.24,1.71-1.08A35.965,35.965,0,0,1,8.91-.6c.96.87,1.02,1.8,1.71,1.8.9,0,1.71-1.38,1.71-2.73,0-1.08-.33-2.19-.45-6.27,2.37-1.35,5.16-2.61,7.65-2.61,3.21,0,4.65,1.74,4.65,3.99,0,2.37-1.65,4.26-4.62,4.26a7.362,7.362,0,0,1-4.74-1.8l-.48.48a6.868,6.868,0,0,0,5.64,3c3.78,0,6.09-2.49,6.09-5.55,0-3.33-2.46-5.49-5.91-5.49a18.232,18.232,0,0,0-8.31,2.31Zm7.74-8.1c2.1-.15,4.41.06,5.61,1.74.33.48.3.72-.03,1.08a22.316,22.316,0,0,1-2.4,1.65l.33.54a11.37,11.37,0,0,1,2.31-.9c.96-.18,1.23.6,1.92.45.57-.06.78-.57.75-1.17-.09-1.89-2.25-3.87-4.56-4.32a10.059,10.059,0,0,0-3.99.15ZM35.31-9.72c.09-1.53.09-3.06.09-4.44v-1.71h4.83v6.15Zm4.92-12.81v5.76H35.4v-5.76Zm1.86.3a2.35,2.35,0,0,0,1.17-.57l-2.34-1.8-.96,1.17H35.79l-2.25-.96v10.23c0,5.61-.12,11.58-2.49,16.29l.48.24c2.55-3.18,3.42-7.29,3.72-11.22h4.98v6.66c0,.45-.15.63-.66.63-.57,0-3.18-.21-3.18-.21v.48a4.235,4.235,0,0,1,2.22.75A2.069,2.069,0,0,1,39.21.9c2.58-.27,2.88-1.26,2.88-2.82ZM58.11-6.81h-.42c-.3,2.07-.69,4.92-.9,5.43-.09.33-.18.36-.33.39a9.113,9.113,0,0,1-1.05.03h-.96c-.54,0-.66-.18-.66-.66V-21.9a2,2,0,0,0,1.29-.51l-2.34-2.07L51.6-23.22H47.37l-2.25-.99v10.8c0,5.73-.45,11.22-3.96,15.51l.45.3c4.95-4.2,5.4-10.38,5.4-15.84v-8.88H51.9v21.3c0,1.35.33,1.95,2.04,1.95h1.47c2.73,0,3.54-.42,3.54-1.2,0-.42-.12-.63-.72-.87ZM74.49-16.83a14.121,14.121,0,0,1-1.08,4.62c-1.23,2.85-3.99,7.59-5.97,7.59-1.23,0-2.55-2.19-2.55-5.07a9.653,9.653,0,0,1,3.09-6.93,11.412,11.412,0,0,1,5.67-2.97A5.236,5.236,0,0,1,74.49-16.83ZM73.98.12c9.81-.63,12.93-5.73,12.93-10.71,0-6.21-4.77-10.26-10.95-10.26a12.97,12.97,0,0,0-8.76,3.21,11.524,11.524,0,0,0-3.99,8.43c0,3.69,2.1,6.87,4.11,6.87,3.06,0,6.54-5.82,7.8-9.42a15.038,15.038,0,0,0,.93-4.83,5.6,5.6,0,0,0-1.29-3.18c.36-.03.72-.06,1.08-.06,4.95,0,8.91,3.42,8.91,8.76,0,5.43-3.54,9.21-10.89,10.5Zm43.77-12.6c.42,0,.75-.15.81-.48-1.08-.96-2.82-2.31-2.82-2.31l-1.56,1.89h-8.25v-5.4h9.63c.42,0,.72-.15.81-.48-1.05-.96-2.7-2.22-2.7-2.22l-1.5,1.83h-6.24v-4.32c.75-.12.99-.42,1.05-.84l-3.06-.36v5.52H93.84l.21.87h9.87v5.4H91.5l.24.9h10.5A33.718,33.718,0,0,1,91.02-.18l.33.45a31.246,31.246,0,0,0,12.57-11.34V2.34h.39c.78,0,1.62-.51,1.62-.81V-12.48h.09A25.771,25.771,0,0,0,117.09.03a2.263,2.263,0,0,1,1.86-1.62l.06-.33a26.3,26.3,0,0,1-12.3-10.56Zm30.06,1.74c.42,0,.72-.15.78-.48-1.08-.99-2.82-2.31-2.82-2.31l-1.56,1.92h-8.28V-19.5h10.56c.42,0,.72-.15.78-.48-1.05-.96-2.73-2.22-2.73-2.22l-1.5,1.83h-7.11v-3.6c.75-.12.99-.42,1.05-.84l-3.06-.36v4.8H122.85l.27.87h10.8v7.89H121.41l.24.87h10.86A33,33,0,0,1,121.05.42l.33.48a31.5,31.5,0,0,0,12.54-9.99V2.34h.39c.78,0,1.62-.51,1.62-.81V-10.35A24.248,24.248,0,0,0,147.09.51a2.236,2.236,0,0,1,1.8-1.68l.06-.27a26,26,0,0,1-12.54-9.3Zm-21.57-7.98a12.7,12.7,0,0,1,2.58,5.85c2.01,1.77,3.96-2.79-2.25-6.03Zm12.39,6.51a27.223,27.223,0,0,0,4.65-4.92,1,1,0,0,0,1.11-.45l-2.91-1.29a37.742,37.742,0,0,1-3.27,6.36Zm33.75-3.78a4.256,4.256,0,0,1,1.47,1.02c.42.48.36.75-.15,1.02-1.8.96-4.86,2.19-7.29,3.51-.3-2.25-1.44-3.54-3.33-3.54a7.608,7.608,0,0,0-3.3,1.02c-.21.12-.3-.03-.18-.18a35.624,35.624,0,0,0,2.88-4.23,35.142,35.142,0,0,0,7.23-2.22c.57-.27.84-.54.84-.93,0-.57-.63-.81-1.29-.81-.45,0-.66.27-1.92.84a29.564,29.564,0,0,1-3.9,1.29c.36-.75.75-1.5.96-1.98.33-.66.57-.87.57-1.29,0-.72-1.95-1.23-2.88-1.23a6.42,6.42,0,0,0-1.71.3v.57a5.906,5.906,0,0,1,1.68.42c.6.24.69.45.54.99a11.739,11.739,0,0,1-.99,2.64,14.551,14.551,0,0,1-2.67.3c-2.22,0-2.73-.63-3.93-1.89l-.63.39c1.2,2.37,1.71,3.03,4.17,3.03a18.256,18.256,0,0,0,2.16-.15,28.939,28.939,0,0,1-4.2,5.49c-1.35,1.44-2.46,2.19-2.46,3,0,.75.42,1.2,1.02,1.2.72-.03,1.56-1.44,2.61-2.58,1.26-1.32,3.24-3,4.92-3,1.56,0,2.13.93,2.25,3.48-3.51,2.22-6.24,4.62-6.24,6.99s1.83,4.11,7.41,4.11a32.725,32.725,0,0,0,6.72-.81c.96-.27,1.11-.66,1.11-1.11,0-.57-.54-.93-1.59-.93-1.44,0-3.18.93-7.62.93-2.85,0-4.77-.72-4.77-2.4,0-1.77,2.1-3.69,5.01-5.34-.03,1.62-.15,3.24-.15,3.96,0,.81.48,1.14.99,1.14.6,0,.93-.45.93-1.17,0-.96,0-3.15-.09-4.86a57.879,57.879,0,0,1,8.55-3.39c1.17-.36,1.47-.45,1.47-.99a3.5,3.5,0,0,0-1.62-2.34,5.063,5.063,0,0,0-2.22-.81Zm9.48,1.59a4.374,4.374,0,0,0,.48,1.68,3.941,3.941,0,0,0,2.64,1.74c.87,0,1.68-.84,3.9-2.22,2.25-1.41,6.3-4.08,9.96-4.08,3.87,0,6.21,2.16,6.21,5.52,0,3.21-1.59,5.43-4.98,7.02-3,1.47-6.24,1.95-10.23,2.19l.06.81c4.68.24,9-.42,11.67-1.71,3.24-1.53,5.61-4.05,5.61-7.95,0-3.72-2.82-7.11-8.31-7.11-4.47,0-9.09,2.64-11.91,4.08a5.218,5.218,0,0,1-2.67.93,3.04,3.04,0,0,1-2.01-1.17Zm45.09-7.02c0,.36-.18.66-.69,1.26-1.38,1.68-5.82,6-7.32,7.77a2.424,2.424,0,0,0-.78,1.59,2.564,2.564,0,0,0,1.17,1.92c3.63,3.09,5.79,5.25,7.2,7.38a22.221,22.221,0,0,1,1.44,2.61,1.228,1.228,0,0,0,1.05.72c.75,0,1.14-.51,1.14-1.29a5.96,5.96,0,0,0-1.47-3.12c-2.13-2.7-4.74-4.65-7.83-7.11-.66-.51-1.02-.9-1.02-1.29,0-.36.18-.69,1.05-1.56,1.26-1.26,5.22-4.92,7.23-6.54,1.05-.78,1.56-1.02,1.56-1.65,0-.72-1.11-1.98-2.16-2.55a6.188,6.188,0,0,0-1.86-.63l-.36.57C226.53-22.5,226.95-21.93,226.95-21.42Zm23.16,1.23c0,1.62-1.44,7.41-1.44,10.65a8.372,8.372,0,0,0,.45,2.79,1.059,1.059,0,0,0,1.05.75.856.856,0,0,0,.84-.96c0-.99-.18-1.86-.18-3.06a12.068,12.068,0,0,1,1.56-5.73c1.05-2.01,2.94-3.36,4.35-3.36,2.1,0,3.45,2.91,3.45,7.8,0,5.37-1.77,9.93-9.03,12.84l.33.69c8.04-2.1,10.8-7.11,10.8-13.32,0-5.34-1.65-9.21-5.25-9.21-1.95,0-4.05,1.8-5.46,4.29-.33.6-.57.57-.45-.06a23.93,23.93,0,0,1,.69-3.03,7.011,7.011,0,0,0,.39-1.77,4.58,4.58,0,0,0-1.98-2.76,4.565,4.565,0,0,0-1.44-.66l-.39.39C249.66-22.47,250.11-21.75,250.11-20.19Zm44.46,9.96v9H285.9V-12.81h7.2v1.56h.36c.72,0,1.56-.39,1.56-.6v-9.39c.72-.12,1.02-.39,1.08-.78l-3-.33v8.64h-7.2V-23.82c.72-.12.96-.42,1.05-.84l-3.06-.33v11.28h-7.02v-7.53c.75-.12,1.02-.39,1.08-.78l-2.97-.33V-11.1h.36c.72,0,1.53-.39,1.53-.63v-1.08h7.02V-1.23h-8.46V-9.09c.75-.12,1.02-.39,1.08-.81l-2.97-.33V2.31h.36c.72,0,1.53-.39,1.53-.63V-.33h19.14V2.04h.36c.75,0,1.56-.42,1.56-.66V-9.09c.75-.12,1.02-.39,1.08-.81Zm20.46,3.72a2.588,2.588,0,0,1-2.43-2.88,2.611,2.611,0,0,1,2.46-2.85c1.29,0,2.25.99,2.25,2.94C317.31-7.23,316.53-6.51,315.03-6.51Zm-1.53-15.6a12.017,12.017,0,0,1,1.98.21c.48.15.63.33.69.93.06.75.12,1.77.15,2.85-3.54.39-9.72,1.32-10.83,1.29-1.02,0-1.59-.96-2.25-1.95l-.57.21a5.8,5.8,0,0,0,.3,1.8c.33.84,1.74,2.19,2.73,2.19.78,0,1.38-.48,2.73-.81a67.516,67.516,0,0,1,7.95-1.47c.06,1.35.12,2.64.15,3.54a5.312,5.312,0,0,0-1.23-.15,3.992,3.992,0,0,0-3.93,4.23c0,3.06,2.4,5.37,5.34,4.02-1.08,2.94-4.08,5.07-7.74,6.42l.39.75c5.79-1.44,9.93-4.8,9.93-10.29a5.706,5.706,0,0,0-1.26-4.05c0-1.5-.03-3.18-.03-4.62a38.364,38.364,0,0,1,9.27.21c.57,0,.84-.24.84-.78,0-.96-1.56-1.53-2.61-1.53-.63,0-2.55.27-7.5.81.03-.72.03-1.32.06-1.71.06-.75.51-1.23.51-1.92,0-.75-1.86-1.41-3.09-1.41a4.671,4.671,0,0,0-2.04.63ZM3.456,40.95c0,2.835-.054,3.186-1.62,3.375l-.675.081a.52.52,0,0,0,.054.675C2.484,45.027,3.456,45,4.59,45c1.08,0,2,.027,3.213.081a.528.528,0,0,0,.054-.675l-.567-.081c-1.566-.216-1.62-.54-1.62-3.375v-3.4c0-.567.054-.594,1.269-.594a1.927,1.927,0,0,1,1.917.864C9.693,39.033,10.8,40.9,11.5,41.9c1.917,2.727,3.294,3.4,5.589,3.4a4.2,4.2,0,0,0,1.188-.135.226.226,0,0,0-.027-.378,3.232,3.232,0,0,1-1.863-.756c-1.836-1.539-3.267-3.7-5.427-7.182-.135-.216-.27-.486-.135-.648A4.994,4.994,0,0,0,14.2,31.689a4.023,4.023,0,0,0-2.241-3.78,9.56,9.56,0,0,0-4.509-.81c-2.646,0-4.509.081-6.021.216a.451.451,0,0,0-.027.675l.864.108c1.107.135,1.188.594,1.188,3.159ZM5.67,28.8c0-.756.081-.864,1.755-.864a3.977,3.977,0,0,1,4.32,4.158,3.872,3.872,0,0,1-1.35,3.348,4.524,4.524,0,0,1-2.781.7c-1.377,0-1.782-.054-1.863-.135a2.126,2.126,0,0,1-.081-.891Zm15.2,12.15c0,2.835-.135,3.24-1.674,3.375l-.891.081a.524.524,0,0,0,.054.675c1.593-.054,2.511-.081,3.672-.081h2.43c2.4,0,4.806.027,7.236.081a23.529,23.529,0,0,0,1.215-3.753.5.5,0,0,0-.675-.189,6.779,6.779,0,0,1-1.917,2.619c-.594.3-1.377.4-3.456.4-2.376,0-2.943-.3-3.267-.621-.432-.459-.513-1.377-.513-2.808V36.927c0-.7.081-.729.891-.729h1.566a9.031,9.031,0,0,1,2.079.135,1.154,1.154,0,0,1,.837,1.026l.243,1.053a.534.534,0,0,0,.7-.027c0-.594-.108-1.62-.108-2.592,0-1.026.108-2.079.108-2.727a.534.534,0,0,0-.7-.027l-.216,1.107c-.135.675-.324.837-.648.945a10.015,10.015,0,0,1-2.3.162H23.976c-.81,0-.891,0-.891-.756V29.1c0-1.026,0-1.08.81-1.08h1.944a12.89,12.89,0,0,1,2.619.162c1.4.351,1.647,1.3,2.052,2.565a.531.531,0,0,0,.675-.054,30.338,30.338,0,0,0-.432-3.591,36.241,36.241,0,0,1-3.645.081H22.032c-1.107,0-2.025-.027-3.186-.081-.162.081-.216.567-.054.675l.432.054c1.593.189,1.647.594,1.647,3.4Zm15.768,0c0,2.835-.054,3.132-1.485,3.375l-.486.081a.524.524,0,0,0,.054.675c1-.027,1.917-.081,3.1-.081,1.134,0,2.457.081,3.24.081,4.86,0,7.182-2.106,7.182-5.238a4.467,4.467,0,0,0-3.618-4.509c-.3-.054-.513-.135-.513-.4,1.62-.756,2.754-1.755,2.754-3.7a3.544,3.544,0,0,0-2.052-3.375,10.272,10.272,0,0,0-4.536-.756c-2.511,0-4.347.081-5.805.216a.432.432,0,0,0-.027.675l.864.081c1.215.108,1.323.621,1.323,2.619Zm2.214-4.4c0-.54.108-.7,1.566-.7,4.293,0,5.373,2.484,5.373,4.617,0,2.7-1.836,3.78-4.239,3.78a2.621,2.621,0,0,1-2.133-.756,5.29,5.29,0,0,1-.567-2.943Zm0-7.749c0-.486.108-.621.378-.7a3.323,3.323,0,0,1,1.242-.162c2.052,0,4.023,1,4.023,3.645,0,2.538-1.485,3.348-4.239,3.456-1.377.054-1.4,0-1.4-.756ZM60.372,45.432a9.218,9.218,0,0,0,9.369-9.423c0-4.752-3.132-9.261-9.369-9.261a9.333,9.333,0,0,0-9.612,9.531C50.76,41.139,54.378,45.432,60.372,45.432Zm.351-.837c-5.319,0-7.263-5.184-7.263-9.18,0-5.913,3.645-7.83,6.453-7.83,5.157,0,7.128,4.806,7.128,9.261C67.041,42.165,63.963,44.6,60.723,44.6ZM74.439,40.95c0,2.835-.054,3.186-1.62,3.375l-.675.081a.52.52,0,0,0,.054.675c1.269-.054,2.241-.081,3.375-.081,1.08,0,2,.027,3.213.081a.528.528,0,0,0,.054-.675l-.567-.081c-1.566-.216-1.62-.54-1.62-3.375v-3.4c0-.567.054-.594,1.269-.594a1.927,1.927,0,0,1,1.917.864c.837,1.215,1.944,3.078,2.646,4.077,1.917,2.727,3.294,3.4,5.589,3.4a4.2,4.2,0,0,0,1.188-.135.226.226,0,0,0-.027-.378,3.232,3.232,0,0,1-1.863-.756c-1.836-1.539-3.267-3.7-5.427-7.182-.135-.216-.27-.486-.135-.648a4.994,4.994,0,0,0,3.375-4.509,4.023,4.023,0,0,0-2.241-3.78,9.56,9.56,0,0,0-4.509-.81c-2.646,0-4.509.081-6.021.216a.451.451,0,0,0-.027.675l.864.108c1.107.135,1.188.594,1.188,3.159ZM76.653,28.8c0-.756.081-.864,1.755-.864a3.977,3.977,0,0,1,4.32,4.158,3.872,3.872,0,0,1-1.35,3.348,4.524,4.524,0,0,1-2.781.7c-1.377,0-1.782-.054-1.863-.135a2.126,2.126,0,0,1-.081-.891Zm29.727,5.157c0-1.242-.054-4.59.4-5.562.108-.216.648-.432,1.512-.567l.378-.054a.474.474,0,0,0-.054-.675c-.918.054-1.62.081-2.781.081-1.026,0-1.944-.027-3.186-.081-.216.081-.243.513-.054.675l.459.054c1.08.135,1.512.3,1.674.54.513.81.54,4.32.54,5.589v5.778a2.723,2.723,0,0,1-.108,1.134h-.054c-1.269-1.3-2.592-2.808-4.455-4.887l-2.619-2.943c-.891-1-4.077-4.563-4.617-5.94a8.721,8.721,0,0,1-1.242.081c-.486,0-1.917,0-3.051-.081a.472.472,0,0,0-.054.675l.459.054a2.929,2.929,0,0,1,1.674.648A2.476,2.476,0,0,1,91.8,30.42v7.8c0,1.3.027,4.59-.351,5.562-.135.3-.567.459-1.188.54l-.729.081a.5.5,0,0,0,.054.675c.945-.054,1.674-.081,2.808-.081,1,0,1.944.027,3.159.081a.5.5,0,0,0,.054-.675l-.837-.081c-.675-.054-1.215-.216-1.377-.513-.459-.81-.486-4.32-.486-5.589V32.337a6.861,6.861,0,0,1,.135-1.755H93.1c.567.594,2.4,2.808,3.132,3.645l6.264,7.128c2.349,2.673,3.132,3.618,3.456,4.077a.487.487,0,0,0,.513-.3c-.081-.7-.081-3.915-.081-4.725Zm15.336,8.451a5.533,5.533,0,0,1,.351,1.431c0,.27-.378.432-.945.486l-.783.081a.453.453,0,0,0,.054.675c.783-.027,1.809-.081,3.1-.081,1.215,0,2.16.027,3.267.081a.529.529,0,0,0,0-.675l-.729-.081c-1.161-.135-1.512-.54-2.295-2.862l-3.7-10.854c-.4-1.188-.837-2.43-1.188-3.618a.382.382,0,0,0-.4-.243,3.028,3.028,0,0,1-1.4,1.026,3.873,3.873,0,0,1-.459,1.917l-2.754,7.29c-1.134,3.024-1.89,4.779-2.376,6.021a1.8,1.8,0,0,1-1.62,1.323l-.891.081a.531.531,0,0,0,.054.675c.729-.027,1.7-.081,2.592-.081,1.269.027,2.106.027,2.808.081a.434.434,0,0,0,.054-.675l-.891-.081c-.648-.054-.783-.216-.783-.54a10.322,10.322,0,0,1,.594-2.241l.945-2.835c.189-.567.351-.648,1.026-.648h4.077c.81,0,.918.081,1.107.675Zm-4.833-10.773a16.457,16.457,0,0,1,.648-1.593h.054a17.786,17.786,0,0,1,.621,1.7l1.458,4.4c.243.729.189.837-.594.837h-3.321c-.756,0-.783-.027-.567-.648Zm28.026,8.8c0-2.565-1.674-4.131-3.375-5.184l-2.16-1.35a4.246,4.246,0,0,1-2.3-3.321c0-1.242.567-3,3.213-3,2.592,0,3.321,1.755,3.672,3.051.135.162.567.081.675-.081a11.81,11.81,0,0,0-.486-3.294,3.628,3.628,0,0,1-.945-.162,10.437,10.437,0,0,0-2.511-.351c-3.51,0-5.508,2.079-5.508,4.644a5.759,5.759,0,0,0,2.916,4.644l2.565,1.674a4.056,4.056,0,0,1,2.214,3.78,3.067,3.067,0,0,1-3.375,3.105c-3.132,0-4.239-2.646-4.644-4.023-.108-.162-.513-.108-.648.081a12.469,12.469,0,0,0,.729,3.78,8.427,8.427,0,0,0,4.212,1C142.668,45.432,144.909,43.407,144.909,40.437Zm4.86.513c0,2.835-.054,3.159-1.485,3.375l-.54.081a.52.52,0,0,0,.054.675c1.107-.054,2.025-.081,3.132-.081,1.053,0,1.971.027,3.294.081.162-.081.216-.567.054-.675l-.729-.081c-1.512-.162-1.566-.54-1.566-3.375V37.467c0-.945.054-1.3.459-1.3.648,0,1.08.54,2.619,2.268l2.16,2.43c1.026,1.161,1.728,1.89,2.241,2.538.189.243.378.459.378.621,0,.135-.27.216-.648.27l-.621.108c-.162.162-.081.621.108.675,1.242-.054,2.187-.081,3.294-.081,1.269,0,2.322.027,3.024.081a.472.472,0,0,0,.054-.675l-.729-.081a3.366,3.366,0,0,1-2.16-1.107c-2.106-2.214-4.185-4.644-6.75-7.587-.351-.432-.513-.648-.513-.837,0-.216.243-.459.621-.837l2.43-2.3a27.082,27.082,0,0,1,3.78-3.132,6.669,6.669,0,0,1,2.511-.756.5.5,0,0,0-.054-.675c-.81.054-1.728.081-2.673.081s-2.025-.027-2.97-.081a.451.451,0,0,0-.054.675l.729.162c.351.081.459.162.459.27a.8.8,0,0,1-.189.432,30.482,30.482,0,0,1-2.106,2.241l-2.916,2.889c-.3.27-1,.972-1.377,1.3a1.54,1.54,0,0,1-.756.3c-.3,0-.351-.513-.351-1.026v-3.1c0-2.835.054-3.24,1.62-3.4l.513-.054c.162-.108.108-.594-.054-.675-1.161.054-2.079.081-3.132.081-1.215,0-2.079-.027-3.4-.081-.162.081-.216.567-.054.675l.675.054c1.566.135,1.62.567,1.62,3.4Zm18.225-.054c0,2.862-.054,3.24-1.647,3.429l-.675.081a.524.524,0,0,0,.054.675c1.35-.054,2.268-.081,3.4-.081,1.08,0,2,.027,3.348.081.162-.081.216-.567.054-.675l-.675-.081c-1.593-.189-1.647-.567-1.647-3.429V31.284c0-2.862.054-3.321,1.647-3.456l.675-.054c.162-.108.108-.594-.054-.675-1.35.054-2.268.081-3.348.081-1.134,0-2.052-.027-3.4-.081-.162.081-.216.567-.054.675l.675.054c1.593.135,1.647.594,1.647,3.456Zm23.652-6.939c0-1.242-.054-4.59.405-5.562.108-.216.648-.432,1.512-.567l.378-.054a.474.474,0,0,0-.054-.675c-.918.054-1.62.081-2.781.081-1.026,0-1.944-.027-3.186-.081-.216.081-.243.513-.054.675l.459.054c1.08.135,1.512.3,1.674.54.513.81.54,4.32.54,5.589v5.778a2.723,2.723,0,0,1-.108,1.134h-.054c-1.269-1.3-2.592-2.808-4.455-4.887L183.3,33.039c-.891-1-4.077-4.563-4.617-5.94a8.721,8.721,0,0,1-1.242.081c-.486,0-1.917,0-3.051-.081a.472.472,0,0,0-.054.675l.459.054a2.929,2.929,0,0,1,1.674.648,2.476,2.476,0,0,1,.594,1.944v7.8c0,1.3.027,4.59-.351,5.562-.135.3-.567.459-1.188.54l-.729.081a.5.5,0,0,0,.054.675c.945-.054,1.674-.081,2.808-.081,1,0,1.944.027,3.159.081a.5.5,0,0,0,.054-.675l-.837-.081c-.675-.054-1.215-.216-1.377-.513-.459-.81-.486-4.32-.486-5.589V32.337a6.861,6.861,0,0,1,.135-1.755h.054c.567.594,2.4,2.808,3.132,3.645l6.264,7.128c2.349,2.673,3.132,3.618,3.456,4.077a.487.487,0,0,0,.513-.3c-.081-.7-.081-3.915-.081-4.725Zm11.1,2.241a8.7,8.7,0,0,0,3.834,7.425,11.828,11.828,0,0,0,6.723,1.809,15.911,15.911,0,0,0,4.266-.621,5.437,5.437,0,0,1,.945-.27,10.148,10.148,0,0,0,1.3-3.7.568.568,0,0,0-.7-.108,5.756,5.756,0,0,1-5.643,3.861c-4.428,0-8.019-3.132-8.019-8.8,0-5.589,3.51-8.208,7.641-8.208,3.915,0,5.13,2.106,5.535,3.942a.569.569,0,0,0,.729-.054c-.216-1.647-.351-3.348-.378-3.969a2.037,2.037,0,0,1-.756-.108,20.834,20.834,0,0,0-4.779-.648,11.635,11.635,0,0,0-7.29,2.3A8.969,8.969,0,0,0,202.743,36.2ZM223.8,40.95c0,2.835-.054,3.186-1.62,3.375l-.675.081a.52.52,0,0,0,.054.675c1.269-.054,2.241-.081,3.375-.081,1.08,0,2,.027,3.213.081a.528.528,0,0,0,.054-.675l-.567-.081c-1.566-.216-1.62-.54-1.62-3.375v-3.4c0-.567.054-.594,1.269-.594a1.927,1.927,0,0,1,1.917.864c.837,1.215,1.944,3.078,2.646,4.077,1.917,2.727,3.294,3.4,5.589,3.4a4.2,4.2,0,0,0,1.188-.135.226.226,0,0,0-.027-.378,3.231,3.231,0,0,1-1.863-.756c-1.836-1.539-3.267-3.7-5.427-7.182-.135-.216-.27-.486-.135-.648a4.994,4.994,0,0,0,3.375-4.509,4.023,4.023,0,0,0-2.241-3.78,9.56,9.56,0,0,0-4.509-.81c-2.646,0-4.509.081-6.021.216a.451.451,0,0,0-.027.675l.864.108c1.107.135,1.188.594,1.188,3.159Zm2.214-12.15c0-.756.081-.864,1.755-.864a3.977,3.977,0,0,1,4.32,4.158,3.872,3.872,0,0,1-1.35,3.348,4.524,4.524,0,0,1-2.781.7c-1.377,0-1.782-.054-1.863-.135a2.126,2.126,0,0,1-.081-.891Zm15.2,12.15c0,2.835-.135,3.24-1.674,3.375l-.891.081a.524.524,0,0,0,.054.675c1.593-.054,2.511-.081,3.672-.081h2.43c2.4,0,4.806.027,7.236.081a23.529,23.529,0,0,0,1.215-3.753.5.5,0,0,0-.675-.189,6.779,6.779,0,0,1-1.917,2.619c-.594.3-1.377.4-3.456.4-2.376,0-2.943-.3-3.267-.621-.432-.459-.513-1.377-.513-2.808V36.927c0-.7.081-.729.891-.729h1.566a9.031,9.031,0,0,1,2.079.135,1.154,1.154,0,0,1,.837,1.026l.243,1.053a.534.534,0,0,0,.7-.027c0-.594-.108-1.62-.108-2.592,0-1.026.108-2.079.108-2.727a.534.534,0,0,0-.7-.027l-.216,1.107c-.135.675-.324.837-.648.945a10.015,10.015,0,0,1-2.295.162h-1.566c-.81,0-.891,0-.891-.756V29.1c0-1.026,0-1.08.81-1.08h1.944a12.89,12.89,0,0,1,2.619.162c1.4.351,1.647,1.3,2.052,2.565a.531.531,0,0,0,.675-.054A30.337,30.337,0,0,0,251.1,27.1a36.241,36.241,0,0,1-3.645.081h-5.076c-1.107,0-2.025-.027-3.186-.081-.162.081-.216.567-.054.675l.432.054c1.593.189,1.647.594,1.647,3.4Zm24.489,1.458a5.533,5.533,0,0,1,.351,1.431c0,.27-.378.432-.945.486l-.783.081a.453.453,0,0,0,.054.675c.783-.027,1.809-.081,3.105-.081,1.215,0,2.16.027,3.267.081a.529.529,0,0,0,0-.675l-.729-.081c-1.161-.135-1.512-.54-2.3-2.862l-3.7-10.854c-.4-1.188-.837-2.43-1.188-3.618a.382.382,0,0,0-.4-.243,3.028,3.028,0,0,1-1.4,1.026,3.873,3.873,0,0,1-.459,1.917l-2.754,7.29c-1.134,3.024-1.89,4.779-2.376,6.021a1.8,1.8,0,0,1-1.62,1.323l-.891.081a.531.531,0,0,0,.054.675c.729-.027,1.7-.081,2.592-.081,1.269.027,2.106.027,2.808.081a.434.434,0,0,0,.054-.675l-.891-.081c-.648-.054-.783-.216-.783-.54a10.321,10.321,0,0,1,.594-2.241l.945-2.835c.189-.567.351-.648,1.026-.648h4.077c.81,0,.918.081,1.107.675Zm-4.833-10.773a16.456,16.456,0,0,1,.648-1.593h.054a17.784,17.784,0,0,1,.621,1.7l1.458,4.4c.243.729.189.837-.594.837H259.74c-.756,0-.783-.027-.567-.648Zm17.523-2.7c0-.891-.027-.918.783-.918H281.1a5.384,5.384,0,0,1,3.132.675c.4.3.594,1.3.675,1.971a.507.507,0,0,0,.7-.054,16.343,16.343,0,0,1,.4-4.1c-.054-.108-.351-.135-.486-.081-.4.7-.648.756-2.106.756H272.484c-1.242,0-2.133.027-2.3-.837a.675.675,0,0,0-.513,0,28.432,28.432,0,0,1-1.026,4.023.522.522,0,0,0,.7.189,4.93,4.93,0,0,1,1.215-1.863c.675-.621,2.16-.675,3.321-.675h1.485c.81,0,.81.027.81.864V40.95c0,2.835-.135,3.24-1.674,3.375l-.972.081a.472.472,0,0,0,0,.675c1.728-.054,2.673-.081,3.753-.081s2,.027,3.537.081c.162-.081.216-.567.054-.675l-.864-.081c-1.566-.135-1.62-.54-1.62-3.375ZM289.737,40.9c0,2.862-.054,3.24-1.647,3.429l-.675.081a.524.524,0,0,0,.054.675c1.35-.054,2.268-.081,3.4-.081,1.08,0,2,.027,3.348.081.162-.081.216-.567.054-.675l-.675-.081c-1.593-.189-1.647-.567-1.647-3.429V31.284c0-2.862.054-3.321,1.647-3.456l.675-.054c.162-.108.108-.594-.054-.675-1.35.054-2.268.081-3.348.081-1.134,0-2.052-.027-3.4-.081-.162.081-.216.567-.054.675l.675.054c1.593.135,1.647.594,1.647,3.456Zm16.524,4.536a9.218,9.218,0,0,0,9.369-9.423c0-4.752-3.132-9.261-9.369-9.261a9.333,9.333,0,0,0-9.612,9.531C296.649,41.139,300.267,45.432,306.261,45.432Zm.351-.837c-5.319,0-7.263-5.184-7.263-9.18,0-5.913,3.645-7.83,6.453-7.83,5.157,0,7.128,4.806,7.128,9.261C312.93,42.165,309.852,44.6,306.612,44.6Zm28.242-10.638c0-1.242-.054-4.59.4-5.562.108-.216.648-.432,1.512-.567l.378-.054a.474.474,0,0,0-.054-.675c-.918.054-1.62.081-2.781.081-1.026,0-1.944-.027-3.186-.081-.216.081-.243.513-.054.675l.459.054c1.08.135,1.512.3,1.674.54.513.81.54,4.32.54,5.589v5.778a2.723,2.723,0,0,1-.108,1.134h-.054c-1.269-1.3-2.592-2.808-4.455-4.887l-2.619-2.943c-.891-1-4.077-4.563-4.617-5.94a8.721,8.721,0,0,1-1.242.081c-.486,0-1.917,0-3.051-.081a.472.472,0,0,0-.054.675l.459.054a2.929,2.929,0,0,1,1.674.648,2.476,2.476,0,0,1,.594,1.944v7.8c0,1.3.027,4.59-.351,5.562-.135.3-.567.459-1.188.54l-.729.081a.5.5,0,0,0,.054.675c.945-.054,1.674-.081,2.808-.081,1,0,1.944.027,3.159.081a.5.5,0,0,0,.054-.675l-.837-.081c-.675-.054-1.215-.216-1.377-.513-.459-.81-.486-4.32-.486-5.589V32.337a6.86,6.86,0,0,1,.135-1.755h.054c.567.594,2.4,2.808,3.132,3.645l6.264,7.128c2.349,2.673,3.132,3.618,3.456,4.077a.487.487,0,0,0,.513-.3c-.081-.7-.081-3.915-.081-4.725Z" transform="translate(322 17521)" fill="#3c505a"/>
    <path id="Path_181" data-name="Path 181" d="M16.89-11.4l7.68-13.44-.87-.54L15.69-11.4,23.7,2.58l.87-.54Zm4.26,0,7.71-13.44-.87-.54L19.95-11.4,27.99,2.58l.87-.54ZM35.7-17.94a6.853,6.853,0,0,0,1.29,1.98,2.869,2.869,0,0,0,1.86.99c.72,0,2.37-.33,4.38-.6a3.653,3.653,0,0,1,.96,2.67c0,1.35-.09,4.74-.24,6.96-4.05.39-7.65.78-8.52.78a3.163,3.163,0,0,1-2.37-1.59l-.57.24a3.7,3.7,0,0,0,.39,1.65c.33.66,1.74,1.98,2.64,1.98a12.645,12.645,0,0,0,2.34-.72A62.619,62.619,0,0,1,51.3-4.83a57.525,57.525,0,0,1,5.79.78c.57,0,.9-.27.9-.78,0-1.08-2.37-2.07-3.6-2.07a14.158,14.158,0,0,1-2.04.33c-1.95.09-4.26.24-6.57.45.12-2.13.33-4.98.48-6.27.09-.87.45-1.38.45-1.89,0-.57-.78-1.08-1.71-1.5,2.67-.3,6.48-.72,7.62-.87.84-.12,1.11-.45,1.11-.9,0-.69-1.68-1.32-2.79-1.32-.81,0-.36.75-5.04,1.41a65.157,65.157,0,0,1-6.69.72,4.7,4.7,0,0,1-3-1.53Zm35.94-4.62c1.05.45,1.83.93,1.83,1.44,0,1.74-4.41,7.86-9.09,11.22l.45.63a27.726,27.726,0,0,0,8.88-7.8,2.464,2.464,0,0,0,1.29.72,9.964,9.964,0,0,0,1.68-.39c1.08-.21,4.14-.69,4.8-.69.27,0,.39.09.24.45C79.38-11.04,72.33-3.3,64.62.72l.45.66A37.651,37.651,0,0,0,83.73-15.78c.42-.78,1.41-.96,1.41-1.56,0-.78-1.89-2.01-2.61-2.01-.51,0-.72.51-1.53.69a57.829,57.829,0,0,1-5.97.57,3.825,3.825,0,0,1-.57-.03c.36-.51.69-1.08,1.02-1.62.45-.75.87-1.05.87-1.56,0-.54-1.59-1.44-2.76-1.71a9.7,9.7,0,0,0-1.8-.12Zm42.48,5.64c.42-.99,1.29-1.14,1.29-1.77,0-.81-1.71-2.4-3-2.61a8.637,8.637,0,0,0-1.95-.06l-.24.66c2.16.72,2.28,1.17,2.04,2.1C110.88-13.08,105.03-4.5,96.57.24l.48.66C105.33-2.7,110.88-9.36,114.12-16.92Zm-15.63,1.2c1.32,1.95,1.74,3.45,2.67,3.42.63,0,1.05-.57,1.05-1.32-.06-2.19-3.42-4.92-6.48-6.36l-.45.6A20.954,20.954,0,0,1,98.49-15.72Zm45.63-1.2c.42-.99,1.29-1.14,1.29-1.77,0-.81-1.71-2.4-3-2.61a8.637,8.637,0,0,0-1.95-.06l-.24.66c2.16.72,2.28,1.17,2.04,2.1-1.38,5.52-7.23,14.1-15.69,18.84l.48.66C135.33-2.7,140.88-9.36,144.12-16.92Zm-15.63,1.2c1.32,1.95,1.74,3.45,2.67,3.42.63,0,1.05-.57,1.05-1.32-.06-2.19-3.42-4.92-6.48-6.36l-.45.6A20.954,20.954,0,0,1,128.49-15.72Zm24.54,3.21a5.323,5.323,0,0,0,.27,1.68c.42,1.02,1.83,2.49,2.67,2.49.87,0,1.2-.45,2.91-.63,2.25-.27,10.68-.72,12.57-.72,1.83,0,2.88.06,3.93.06,1.02,0,1.32-.33,1.32-.87,0-.81-1.35-1.32-2.49-1.32-.78,0-1.62.18-3.63.33-1.38.06-11.88.75-14.55.75-1.26,0-1.74-.93-2.4-1.95Zm44.88,1.53a20,20,0,0,1,4.08,5.19c-3.3.6-9.18,1.32-12.93,1.71,2.13-3.57,5.34-9.87,6.72-12.72.33-.63,1.02-.84,1.02-1.35,0-.75-1.32-1.98-2.55-2.37a5.985,5.985,0,0,0-1.71-.3l-.21.54c.99.54,1.56,1.08,1.56,1.74,0,1.44-4.29,10.71-6.51,14.61-.72.06-1.26.09-1.53.09a2.718,2.718,0,0,1-1.62-.72l-.39.21a3.737,3.737,0,0,0,.09,1.14c.27.87,1.47,2.19,2.28,2.19.51,0,1.11-.75,1.74-.87,2.7-.6,10.17-1.77,14.58-2.73,1.14,2.64,1.08,3.99,2.04,3.99.72,0,1.17-.57,1.17-1.41,0-3.21-3.87-7.41-7.29-9.48Zm23.25,8.25V-6.48h7.59v3.75Zm9.48-3.51a1.82,1.82,0,0,0,1.11-.51L229.5-8.46l-.99,1.08h-7.23l-2.01-.87V-.09h.3a2.27,2.27,0,0,0,1.59-.6V-1.86h7.59V-.57h.3c.63,0,1.56-.45,1.59-.66Zm3.84-4.38H215.46l-2.13-.96V2.28h.33c.78,0,1.59-.45,1.59-.66V-9.72h19.53V-.6c0,.45-.15.63-.69.63-.63,0-3.51-.21-3.51-.21V.27a5.555,5.555,0,0,1,2.46.72,1.921,1.921,0,0,1,.63,1.35c2.7-.27,3.06-1.23,3.06-2.73V-9.36a2.352,2.352,0,0,0,1.29-.57l-2.55-1.89Zm-14.82-3.54v-3.51h10.65v3.51Zm10.95,2.19a2.781,2.781,0,0,0,1.65-.6v-4.74a2.585,2.585,0,0,0,1.29-.6l-2.43-1.83-1.11,1.17h-10.2l-2.07-.9v7.68h.3c.78,0,1.62-.45,1.62-.63v-.87h10.65v1.32Zm3.51-9.78H225.9v-2.22c.72-.09,1.02-.39,1.08-.81l-3.06-.33v3.36H211.71l.24.87h25.77c.42,0,.72-.15.81-.45-1.11-1.02-2.85-2.31-2.85-2.31ZM248.16-.57V-6.54h13.8V-.57Zm13.5-6.84h-2.4c.99-1.74,2.16-3.9,2.82-5.13a2.192,2.192,0,0,0,1.44-.45l-2.25-1.95-1.08,1.14H245.37l.27.87h14.43c-.75,1.59-1.83,3.75-2.85,5.52h-8.88l-2.16-.99V2.37h.27c.84,0,1.71-.48,1.71-.69V.3h13.8V2.16h.3a2.7,2.7,0,0,0,1.68-.63V-6.15a2.7,2.7,0,0,0,1.32-.6l-2.49-1.92Zm-4.68-10.14h-7.05l.24.9h9.66c.42,0,.69-.15.78-.48-.93-.84-2.37-1.89-2.37-1.89Zm-3.06-7.95c-1.68,3.93-7.89,9.57-12.9,12.18l.24.45c5.49-2.37,11.49-6.96,14.4-10.89,2.28,3.93,6.93,7.59,11.73,9.84a2.3,2.3,0,0,1,1.8-1.56l.06-.45c-5.19-1.89-10.26-4.83-13.02-8.19.72-.06,1.08-.21,1.2-.54Zm38.04,11.13v3.78H280.29v-3.78ZM280.29-5.88V-9.69h11.67v3.81Zm14.25-14.58H283.17a34.875,34.875,0,0,0,1.47-3.3c.81.06,1.08-.12,1.2-.48l-3.12-1.02a33.745,33.745,0,0,1-1.8,4.8h-9.45l.27.87h8.76a31.013,31.013,0,0,1-9.24,11.28l.3.36a26.708,26.708,0,0,0,6.81-5.49V2.31h.33c.93,0,1.59-.51,1.59-.69v-6.6h11.67V-.81c0,.45-.12.66-.69.66-.63,0-3.78-.24-3.78-.24V.09a5.932,5.932,0,0,1,2.61.78,2.123,2.123,0,0,1,.69,1.44c2.85-.27,3.15-1.26,3.15-2.85V-13.92a2.686,2.686,0,0,0,1.44-.66l-2.67-1.98-1.08,1.29H280.65l-.57-.24a30.4,30.4,0,0,0,2.64-4.08h15.21c.42,0,.66-.15.75-.48-1.02-.96-2.67-2.22-2.67-2.22ZM306.3,2.58l8.01-13.98L306.3-25.38l-.87.54,7.68,13.44L305.43,2.04Zm-4.29,0,8.04-13.98-8.04-13.98-.87.54,7.71,13.44L301.14,2.04Z" transform="translate(322 17452)" fill="#3c505a"/>
    <path id="Path_180" data-name="Path 180" d="M6-7.08a.907.907,0,0,0,.9-.9.907.907,0,0,0-.9-.9.907.907,0,0,0-.9.9A.907.907,0,0,0,6-7.08ZM6-4.908,2.04-8.868l-.348.348,3.96,3.96L1.68-.588l.348.348L6-4.212,9.96-.252,10.308-.6,6.348-4.56l3.96-3.96L9.96-8.868ZM3.48-4.56a.907.907,0,0,0-.9-.9.907.907,0,0,0-.9.9.907.907,0,0,0,.9.9A.907.907,0,0,0,3.48-4.56Zm5.04,0a.907.907,0,0,0,.9.9.907.907,0,0,0,.9-.9.907.907,0,0,0-.9-.9A.907.907,0,0,0,8.52-4.56ZM6-2.04a.907.907,0,0,0-.9.9.907.907,0,0,0,.9.9.907.907,0,0,0,.9-.9A.907.907,0,0,0,6-2.04ZM13.056,0H17.88V-.912H16.116v-7.9h-.84a5.3,5.3,0,0,1-1.824.636v.7h1.56V-.912H13.056Zm7.272.156a.793.793,0,0,0,.792-.828.806.806,0,0,0-.792-.852.806.806,0,0,0-.792.852A.793.793,0,0,0,20.328.156Zm8.184-9.384H27.4a5.844,5.844,0,0,1,.072.972v6.6c0,.972.516,1.392,1.428,1.56a12.779,12.779,0,0,0,1.932.12A33.551,33.551,0,0,0,34.98-.228V-1.32a19.72,19.72,0,0,1-4.1.384,11.594,11.594,0,0,1-1.6-.1c-.576-.12-.84-.276-.84-.888V-4.56a48.519,48.519,0,0,0,5.04-1.608c.36-.132.792-.324,1.14-.468l-.42-.972a8.069,8.069,0,0,1-1.056.552,33.725,33.725,0,0,1-4.7,1.512V-8.256A7.843,7.843,0,0,1,28.512-9.228ZM40.728-1.056A10.573,10.573,0,0,1,40.644.36h1.164c-.048-.4-.072-1.044-.072-1.416,0-.348,0-2.16-.012-3.96A31.46,31.46,0,0,1,46.44-3.084l.408-1.02a38.354,38.354,0,0,0-5.124-1.98V-8.04c0-.36.048-.876.084-1.248H40.632a7.574,7.574,0,0,1,.1,1.248ZM54.972-8.508c.084.276.2.636.348,1.08a25.074,25.074,0,0,1-4.74-.144l.024.96a30.831,30.831,0,0,0,5.04.024A16.029,16.029,0,0,0,57.1-3.852c-.432-.048-1.32-.12-1.992-.18l-.072.8a27.123,27.123,0,0,1,2.892.324l.492-.672c-.18-.2-.36-.408-.528-.636a12.768,12.768,0,0,1-1.344-2.472,17.841,17.841,0,0,0,2.484-.492l-.108-.936a15.413,15.413,0,0,1-2.676.588,14.338,14.338,0,0,1-.552-2.052l-1.02.132C54.78-9.132,54.888-8.76,54.972-8.508ZM52.428-3.744l-.936-.216a4.678,4.678,0,0,0-.576,1.992c0,1.632,1.44,2.46,3.72,2.472a17.428,17.428,0,0,0,3.1-.264l.048-.96a13.376,13.376,0,0,1-3.1.3c-1.776-.012-2.82-.516-2.82-1.656A3.087,3.087,0,0,1,52.428-3.744ZM63.36-8.376,62.2-8.4a5.413,5.413,0,0,1,.084,1.068c0,.7.024,2.16.132,3.2C62.736-1.02,63.828.108,64.968.108c.8,0,1.536-.7,2.256-2.736l-.756-.852c-.312,1.2-.876,2.448-1.488,2.448-.852,0-1.44-1.332-1.632-3.336-.084-1-.1-2.088-.084-2.844A9.137,9.137,0,0,1,63.36-8.376Zm6.252.336-.936.324A12.158,12.158,0,0,1,70.764-1.68l.96-.4A12.9,12.9,0,0,0,69.612-8.04Zm4.056,5.016H74.5v-1.62h3.72v1.26h-3.2V.024h.864V-2.652h2.34V.912h.864V-2.652h2.58v1.74c0,.132-.048.168-.216.18s-.72.024-1.356,0a3.246,3.246,0,0,1,.276.768,5.555,5.555,0,0,0,1.728-.144c.348-.132.432-.348.432-.8V-3.384H79.08v-1.26h3.78v1.62h.852V-5.376H73.668ZM81.24-6.852H79.08V-8.028h2.16Zm-5.1-1.176h2.088v1.176H76.14ZM82.1-8.772v-1.2H81.24v1.2H79.08v-1.26h-.852v1.26H76.14v-1.2H75.3v1.2H73.344v.744H75.3V-6.12h6.8V-8.028h1.944v-.744Zm5.184,1.92H89V-.6H87.288ZM91.572-.6H89.82V-6.852h1.752Zm2.592-6.252V-.6H92.412V-6.852Zm.9,6.252V-7.7H90.1c.324-.636.66-1.4.948-2.088l-1.032-.252a16.769,16.769,0,0,1-.864,2.34H86.412V-.6h-1.2V.264H96.168V-.6Zm3.48-4.068H101.2v.936H98.544Zm0-1.6H101.2v.912H98.544Zm1.74,3.24h1.728V-6.972h-1.728V-7.98h2.088v-.792h-2.088v-1.272H99.42v1.272H97.356v.792H99.42v1.008H97.74v3.948h1.68v1.008h-2.2V-1.2h2.2V.912h.864V-1.2h2.2v-.816h-2.2Zm5.34-2.256h1.74v-.828H103.1a11.139,11.139,0,0,0,2.088-3,12.767,12.767,0,0,0,2.652,3.384,6.389,6.389,0,0,1,.5-.792,11.336,11.336,0,0,1-2.772-3.468h-.84A9.942,9.942,0,0,1,102.048-6.3a2.925,2.925,0,0,1,.468.732,6.264,6.264,0,0,0,.516-.468v.756h1.7V-3.6h-2.28v.828h2.28V.888h.888v-3.66h2.4V-3.6h-2.4Zm4.212,2.04A9.282,9.282,0,0,1,109.092-.4a3.117,3.117,0,0,1,.7.336,11,11,0,0,0,.816-3.048Zm2.592.18a11.785,11.785,0,0,1,.78,2.328l.72-.24a11.974,11.974,0,0,0-.816-2.316Zm-.216-2.892a10.042,10.042,0,0,1,.54.936l-1.86.12a31.969,31.969,0,0,0,2.412-3.42l-.744-.36a25.6,25.6,0,0,1-1.344,2.232,8.471,8.471,0,0,0-.732-.84,25.807,25.807,0,0,0,1.4-2.448l-.8-.312a15.14,15.14,0,0,1-1.1,2.268c-.12-.108-.228-.216-.348-.312l-.456.588a9.452,9.452,0,0,1,1.572,1.728c-.24.336-.48.66-.72.936-.336.024-.648.048-.936.06l.132.816,1.98-.18V.9h.8V-4.212l1.08-.108a7.942,7.942,0,0,1,.336.888l.72-.348a10.414,10.414,0,0,0-1.26-2.46Zm5.112,5.244V-4.14h1.644V-.708ZM114.972-4.14h1.56V-.708h-1.56Zm1.56-4.116v3.3h-1.56v-3.3Zm2.436,3.3h-1.644v-3.3h1.644Zm-4.8-4.128V.768h.8V.12h4V.672h.828V-9.084Zm8.556,5.148c.024-.492.024-.96.024-1.38v-.672h1.536v2.052Zm1.56-4.848V-6.8h-1.536v-1.98ZM127.92.024c-.768,0-.924-.084-.924-.5V-3.2h2.6V-6.54h-3.18a10.271,10.271,0,0,0,.636-1.2h3.876c-.084,3.348-.168,4.536-.384,4.824a.357.357,0,0,1-.36.168c-.2,0-.672-.012-1.176-.048a2.225,2.225,0,0,1,.252.816,8.9,8.9,0,0,0,1.3-.012.9.9,0,0,0,.744-.4c.312-.408.384-1.752.468-5.736.012-.132.012-.432.012-.432H127.4a12.414,12.414,0,0,0,.432-1.284l-.9-.2A9.711,9.711,0,0,1,125.1-6.312V-9.6h-3.144v4.3A14.73,14.73,0,0,1,121.1.528a2.427,2.427,0,0,1,.708.408,12.02,12.02,0,0,0,.864-4.056h1.608V-.144c0,.156-.06.2-.216.216-.132.012-.612.012-1.14,0A3.121,3.121,0,0,1,123.18.9,4.116,4.116,0,0,0,124.7.744c.3-.156.4-.42.4-.888V-6.18c.216.156.528.408.672.54a8.054,8.054,0,0,0,.516-.7v.564h2.484v1.8h-2.628v3.5c0,1.032.4,1.272,1.728,1.272h2.736c1.2,0,1.476-.432,1.6-2.148a2.717,2.717,0,0,1-.792-.336c-.072,1.464-.18,1.7-.864,1.7ZM142.848-5.7h-3.3V-6.864h3.3Zm0,1.812h-3.3V-5.064h3.3Zm0,1.848h-3.3V-3.228h3.3Zm-4.116-5.52v6.216h4.956V-7.56h-2.316c.108-.348.24-.744.348-1.128h2.292v-.78h-5.664v.78h2.412a9.394,9.394,0,0,1-.228,1.128Zm-4.92,2.76a12.445,12.445,0,0,1-.756,5.16,4.121,4.121,0,0,1,.6.516,12.575,12.575,0,0,0,.9-5.676V-9.612h-.744Zm1.632,4.008h.66V-8.76h-.66Zm1.62,1.3h.732V-9.648h-.732Zm2.94-1.6a6.992,6.992,0,0,1-2.172,1.44,4.178,4.178,0,0,1,.552.588,8.965,8.965,0,0,0,2.364-1.584Zm1.668.468A12.227,12.227,0,0,1,143.64.924l.684-.492a12.668,12.668,0,0,0-1.992-1.5Zm6.792-9.228a13.271,13.271,0,0,1-3.48,4.836,5.954,5.954,0,0,1,.54.9,14.317,14.317,0,0,0,1.56-1.692v6.7h.9V-7.068a16.116,16.116,0,0,0,1.332-2.5ZM152.208-.1c-.66,0-.792-.144-.792-.816v-3.48a28.238,28.238,0,0,0,4.224-2.616L155-7.776a21,21,0,0,1-3.588,2.484V-9.756h-.9V-.924c0,1.308.384,1.668,1.632,1.668h2.46c1.236,0,1.5-.684,1.644-2.628a2.864,2.864,0,0,1-.852-.384c-.084,1.74-.192,2.172-.852,2.172Zm15.756-8.52h-3.012v-1.4h-.876v1.4h-2.988v.8h6.876Zm-4.4,2.8a6.777,6.777,0,0,0-.6-1.92l-.8.192a6.929,6.929,0,0,1,.564,1.932Zm-3.924-.492h1.332v-.852h-1.332V-9.948h-.84v2.784h-1.44v.852h1.44v3.84c-.624.24-1.2.444-1.668.6l.3.9c1.092-.444,2.532-1.02,3.864-1.584l-.168-.816c-.492.192-1,.4-1.488.576Zm6.876,3.468V-.516H162.6V-2.844ZM161.772.9h.828V.288h3.912V.864h.876V-3.66h-5.616Zm4.38-8.688a14.627,14.627,0,0,1-.684,1.968l.756.216c.264-.5.552-1.26.84-1.932ZM168.18-5.6h-7.512v.816h7.512Zm4.332,4.224h1.74a4.664,4.664,0,0,0,1.152,1c-.984.084-1.98.168-2.892.24ZM176.2-5.388a6.347,6.347,0,0,0,.852.96H175.08v-.66h-.84v.66h-1.872a7.388,7.388,0,0,0,.888-.96Zm-3.684,1.56h4.344v.648h-4.344Zm0,1.848v-.672h4.344v.672Zm5.232.6V-3.864a7.292,7.292,0,0,0,1.908,1.008,2.872,2.872,0,0,1,.564-.7,7.071,7.071,0,0,1-3.084-1.836h2.82v-.7h-4.836v-.684h3.5V-7.44h-3.5v-.672h4.152V-8.82h-2.28c.24-.288.492-.648.744-1l-.948-.24a12.146,12.146,0,0,1-.72,1.236h-2.808l.06-.024a4.444,4.444,0,0,0-.852-1.224l-.768.276a5.855,5.855,0,0,1,.672.972h-2.292v.708h4.14v.672h-3.48v.672h3.48v.684H169.4v.7h2.808a8.654,8.654,0,0,1-3.108,2.04,3.446,3.446,0,0,1,.624.636,10.519,10.519,0,0,0,1.9-1.1V-.084l-1.368.108.1.78c1.392-.12,3.36-.3,5.232-.492V-.276a10.194,10.194,0,0,0,3.936,1.2,2.864,2.864,0,0,1,.492-.744,14.324,14.324,0,0,1-2.652-.468,12.647,12.647,0,0,0,1.8-.912l-.66-.4a18.545,18.545,0,0,1-1.92,1.032,5.271,5.271,0,0,1-1.4-.816ZM192.12-8.724h-3.588v-1.32h-.9v1.32H184.26v.84h7.86Zm-7.956.036a7.839,7.839,0,0,0-1.908-1.248l-.516.636a8.31,8.31,0,0,1,1.9,1.308Zm-.528,3.048a7.873,7.873,0,0,0-1.956-1.08l-.48.648a8.2,8.2,0,0,1,1.92,1.152ZM182.268.828c.5-1.092,1.08-2.556,1.5-3.8l-.708-.492a35.8,35.8,0,0,1-1.6,3.8Zm3.564-8.544a11.223,11.223,0,0,1-2.3,4.032,3.748,3.748,0,0,1,.588.564,9.863,9.863,0,0,0,.948-1.212V.9h.792V-5.664a15.731,15.731,0,0,0,.816-1.812Zm2.532,2.928a5.41,5.41,0,0,1,1.1,1.332l.492-.432a5.338,5.338,0,0,0-1.128-1.26Zm2.424-.744A9.1,9.1,0,0,1,189.24-2.22a9.344,9.344,0,0,1-1.4-2.568c.144-.24.288-.492.408-.744Zm.408-.756-.132.024H188.6c.18-.408.348-.828.48-1.224l-.828-.216a10.494,10.494,0,0,1-2.3,4.128,6.125,6.125,0,0,1,.564.552,7.922,7.922,0,0,0,.84-1.02,10.919,10.919,0,0,0,1.368,2.436A7.5,7.5,0,0,1,186.1.24a3.348,3.348,0,0,1,.516.672,8.4,8.4,0,0,0,2.64-1.884A7.727,7.727,0,0,0,191.76.888a3.63,3.63,0,0,1,.576-.7,7.332,7.332,0,0,1-2.556-1.776A10.272,10.272,0,0,0,191.736-6.1Zm9.828,1.728a7.973,7.973,0,0,0,2.388,5.712l.72-.372A7.509,7.509,0,0,1,201.9-4.56a7.509,7.509,0,0,1,2.232-5.34l-.72-.372A7.973,7.973,0,0,0,201.024-4.56Zm5.46-2.856h1.272v1.008h-1.272Zm3.372,0v1.008h-1.3V-7.416Zm4.572-.564a5.073,5.073,0,0,1-.96,1.8,6.344,6.344,0,0,1-1.1-1.764l.024-.036Zm-6.672,4.224h.8V-5.208c.576.324,1.356.78,1.7,1.02l.432-.588c-.336-.192-1.584-.816-2.064-1.044h1.98V-6.96a4.19,4.19,0,0,1,.564.576,5.848,5.848,0,0,0,.744-.864,7.018,7.018,0,0,0,1.02,1.6A6.441,6.441,0,0,1,210.5-4.38a2.9,2.9,0,0,1,.528.66,7.888,7.888,0,0,0,2.448-1.356,6.612,6.612,0,0,0,2.268,1.4,3.828,3.828,0,0,1,.516-.708,6.219,6.219,0,0,1-2.244-1.236,5.9,5.9,0,0,0,1.272-2.364h.768V-8.7h-3.3a9.463,9.463,0,0,0,.432-1.152l-.816-.18a6.336,6.336,0,0,1-1.764,3V-8H208.56v-.612h2.34v-.648h-2.34v-.78h-.8v.78H205.4v.648h2.352V-8h-2V-5.82h1.656a7.5,7.5,0,0,1-2.208,1.5,2.592,2.592,0,0,1,.528.564,8.379,8.379,0,0,0,2.028-1.536ZM211.1-1.08h3.444v-.7H211.1V-2.7h4.224v-.732H206.1V-2.7h4.14V-.1H208.1V-2.16h-.84V-.1H205.3V.648h10.812V-.1h-5Zm7.716-2.88c.012-.48.024-.936.024-1.344v-.672h1.776V-3.96Zm1.8-4.812V-6.8h-1.776V-8.772Zm.84-.828h-3.444v4.3A14,14,0,0,1,217.128.5a2.845,2.845,0,0,1,.744.444,12.093,12.093,0,0,0,.9-4.056h1.848V-.252c0,.168-.06.216-.216.228s-.624.012-1.176-.012a2.8,2.8,0,0,1,.264.852,3.736,3.736,0,0,0,1.56-.18c.3-.144.408-.4.408-.888Zm5.352,9.468a.332.332,0,0,1-.192-.06c-.06-.06-.072-.276-.072-.66V-9.6H222.8v5.04c0,1.632-.1,3.648-1.164,5a3.684,3.684,0,0,1,.744.54c1.128-1.464,1.3-3.8,1.3-5.544V-8.748h1.992V-.924c0,1.008.06,1.212.24,1.392a1.1,1.1,0,0,0,.684.24h.588A1.2,1.2,0,0,0,227.82.54a.973.973,0,0,0,.312-.648,17.242,17.242,0,0,0,.108-1.74,2.012,2.012,0,0,1-.72-.4c0,.756-.012,1.356-.036,1.608s-.06.372-.12.42a.309.309,0,0,1-.24.084Zm9.912-9.312A12.284,12.284,0,0,1,238.848-8l.552-.612a11.446,11.446,0,0,0-2.148-1.368Zm1.7,3.24a11.884,11.884,0,0,1-1.536,3.24,21.644,21.644,0,0,1-.66-4.164h3.816V-8h-3.876c-.036-.648-.048-1.32-.048-2.016H235.2c.012.684.024,1.356.072,2.016h-5v3.348A9.313,9.313,0,0,1,229.176.408a3.549,3.549,0,0,1,.744.6c1.08-1.56,1.26-3.972,1.26-5.652v-.1h2.184c-.048,2.064-.108,2.82-.276,3-.072.108-.192.132-.36.132-.2,0-.72-.012-1.272-.06a1.855,1.855,0,0,1,.252.84,13.846,13.846,0,0,0,1.428,0,.928.928,0,0,0,.72-.348c.252-.312.324-1.32.384-4.008v-.384h-3.06v-1.56h4.14a23.6,23.6,0,0,0,.876,5.052,9.576,9.576,0,0,1-2.76,2.22,5.022,5.022,0,0,1,.648.708,10.728,10.728,0,0,0,2.472-1.992c.552,1.236,1.272,1.968,2.2,1.968s1.236-.588,1.4-2.628a2.109,2.109,0,0,1-.768-.48c-.084,1.6-.228,2.22-.564,2.22-.612,0-1.164-.684-1.608-1.86a13.531,13.531,0,0,0,2.112-4.056ZM244.6-9.792a10.192,10.192,0,0,1-3.588,4.512,5.187,5.187,0,0,1,.756.684,12.364,12.364,0,0,0,3.768-4.932Zm-1.644,4.26v.864H245.4c-.276,2.028-.936,3.924-3.756,4.86a3.539,3.539,0,0,1,.576.78c3.048-1.1,3.816-3.276,4.128-5.64h3.1c-.144,3.024-.312,4.224-.624,4.524-.108.132-.252.156-.5.156-.276,0-1.02-.012-1.8-.084a2.169,2.169,0,0,1,.3.888A17.19,17.19,0,0,0,248.7.84a1.2,1.2,0,0,0,.924-.42c.408-.456.588-1.836.756-5.52.012-.12.024-.432.024-.432ZM247.9-9.48a15.87,15.87,0,0,0,3.72,4.776,4.589,4.589,0,0,1,.732-.792,12.7,12.7,0,0,1-3.612-4.32Zm8.448,4.92a7.973,7.973,0,0,0-2.388-5.712l-.72.372a7.509,7.509,0,0,1,2.232,5.34A7.509,7.509,0,0,1,253.236.78l.72.372A7.973,7.973,0,0,0,256.344-4.56ZM6,12.92a.9.9,0,1,0-.9-.9A.907.907,0,0,0,6,12.92Zm0,2.172-3.96-3.96-.348.348,3.96,3.96L1.68,19.412l.348.348L6,15.788l3.96,3.96.348-.348-3.96-3.96,3.96-3.96-.348-.348Zm-2.52.348a.9.9,0,1,0-.9.9A.907.907,0,0,0,3.48,15.44Zm5.04,0a.9.9,0,1,0,.9-.9A.907.907,0,0,0,8.52,15.44ZM6,17.96a.9.9,0,1,0,.9.9A.907.907,0,0,0,6,17.96ZM12.528,20H18.06v-.948H15.576c-.456,0-.984.048-1.44.084C16.164,17,17.628,15.4,17.628,13.8a2.369,2.369,0,0,0-2.556-2.508,3.364,3.364,0,0,0-2.592,1.3l.636.612a2.5,2.5,0,0,1,1.824-1.02,1.507,1.507,0,0,1,1.62,1.668c0,1.4-1.452,2.94-4.032,5.508Zm7.8.156a.793.793,0,0,0,.792-.828.794.794,0,1,0-1.584,0A.793.793,0,0,0,20.328,20.156Zm5.424,2.232h1.1c-.024-1.092-.036-2.124-.072-3.228a3.018,3.018,0,0,0,2.328,1,2.563,2.563,0,0,0,2.556-2.748,2.371,2.371,0,0,0-2.1-2.52v-.06A2.524,2.524,0,0,0,30.876,12.6a2.257,2.257,0,0,0-2.448-2.3c-1.824,0-2.676,1.332-2.676,3.12Zm3.108-3.144a2.518,2.518,0,0,1-2.076-1.02c0-1.572.012-3.108.036-4.656s.624-2.4,1.62-2.4a1.359,1.359,0,0,1,1.368,1.512A2.114,2.114,0,0,1,27.9,14.756l.168.84a2.517,2.517,0,0,1,.672-.084,1.7,1.7,0,0,1,1.836,1.836A1.729,1.729,0,0,1,28.86,19.244Zm3.948-2.184H35.88v-.84H32.808Zm5.748-4.872v1.08c.372-.012.768-.036,1.188-.036H44.88c.4,0,.852.012,1.188.036v-1.08a11.791,11.791,0,0,1-1.188.048H39.744C39.348,12.236,38.94,12.212,38.556,12.188Zm-1.032,5.94V19.28c.408-.024.828-.06,1.26-.06h7.188c.324,0,.732.024,1.092.06V18.128a10.9,10.9,0,0,1-1.092.06H38.784C38.352,18.188,37.932,18.152,37.524,18.128Zm12.96-6.36v1.068c.276-.012.876-.036,1.32-.036h5.748v5.664H51.66a12.671,12.671,0,0,1-1.332-.072v1.092c.324-.024.864-.048,1.356-.048h5.868c-.012.288-.012.54-.024.672h1.08c-.012-.192-.048-.732-.048-1.164V12.752c0-.288.024-.66.036-.936-.24.012-.6.024-.888.024H51.792A12.11,12.11,0,0,1,50.484,11.768Zm11.928-.108.24.888c.924-.012,2.28-.048,3.492-.168v2.184H62.532c-.36,0-.78-.024-1.056-.048v1c.288-.024.7-.048,1.08-.048H66.12a4.763,4.763,0,0,1-3.036,4.368l.948.66A5.687,5.687,0,0,0,67.1,15.464h3.348c.3,0,.66.024.924.048v-1c-.252.024-.684.048-.948.048H67.116v-2.3c.864-.132,1.788-.312,2.388-.468.168-.048.408-.108.672-.18l-.636-.828a16.273,16.273,0,0,1-3.1.7A28.968,28.968,0,0,1,62.412,11.66ZM75.144,11.2l-.684.732a24.922,24.922,0,0,1,2.988,2.508l.756-.756A26.276,26.276,0,0,0,75.144,11.2Zm-1.032,8.04.636.984a13.153,13.153,0,0,0,4.716-1.86A11.989,11.989,0,0,0,83.5,14.1l-.576-1.02a11.3,11.3,0,0,1-4.008,4.416A12.39,12.39,0,0,1,74.112,19.244Zm21.48-7.356L95,11.324a5.926,5.926,0,0,1-.84.072H87.276a10.183,10.183,0,0,1-1.368-.108V12.38a13.409,13.409,0,0,1,1.368-.072h6.84A8.152,8.152,0,0,1,91.488,15l.792.636a11.57,11.57,0,0,0,2.988-3.312C95.352,12.188,95.508,12.008,95.592,11.888ZM90.8,13.472h-1.08a7.215,7.215,0,0,1,.048.864c0,2-.264,3.708-2.124,4.848a4.133,4.133,0,0,1-1.08.54l.888.72C90.516,18.92,90.8,16.724,90.8,13.472Zm8.82-2.556-.348.888a39.723,39.723,0,0,1,6.264,1.428l.384-.924A41.062,41.062,0,0,0,99.624,10.916Zm-.54,3.168-.36.9a35.12,35.12,0,0,1,6.024,1.464l.384-.924A42.737,42.737,0,0,0,99.084,14.084Zm-.66,3.492-.372.912a39.173,39.173,0,0,1,7.1,1.812l.408-.924A42.237,42.237,0,0,0,98.424,17.576Zm17.628-6.216-.66.3a11.908,11.908,0,0,1,1.068,1.824l.684-.312A18.08,18.08,0,0,0,116.052,11.36Zm1.452-.6-.66.312a11.674,11.674,0,0,1,1.116,1.8l.672-.336A16.206,16.206,0,0,0,117.5,10.76ZM111.84,19.1a13.139,13.139,0,0,1-.072,1.416h1.152c-.036-.384-.072-1.032-.072-1.416V15.152a30.753,30.753,0,0,1,4.7,1.92l.42-1.02a40.763,40.763,0,0,0-5.124-1.98V12.116a11.085,11.085,0,0,1,.084-1.248h-1.188a7.574,7.574,0,0,1,.1,1.248Zm10.512-7.62v.96c.324-.024.672-.036,1.08-.036h1.6v2.544h-2.34c-.312,0-.8-.036-1.128-.06V15.9c.336-.024.828-.048,1.128-.048h2.34V18.56c0,.984.576,1.62,2.388,1.62,1.14,0,2.292-.048,3.228-.12l.06-1.008a26.523,26.523,0,0,1-3.156.168c-1.1,0-1.524-.36-1.524-.96V15.848h4.068a8.881,8.881,0,0,1,.972.036V14.9c-.264.024-.744.048-1,.048h-4.044V12.4h3.12c.42,0,.7.024.984.036v-.96c-.264.024-.6.048-.984.048h-5.712C123.024,11.528,122.676,11.5,122.352,11.48Zm19.452-.108-1.14-.312a12.5,12.5,0,0,1-2.268,5.088,10.424,10.424,0,0,1-4.536,3.18l.84.876a11.92,11.92,0,0,0,4.524-3.42,16.4,16.4,0,0,0,2.2-4.368A10.086,10.086,0,0,1,141.8,11.372ZM154,12.056l-.7-.54a1.868,1.868,0,0,1-.672.12h-4.944c-.456,0-.948-.036-1.284-.06V12.6c.336-.012.852-.036,1.284-.036h4.944A10.39,10.39,0,0,1,150.9,16.2a32.734,32.734,0,0,0-3.276-2.04l-.612.732a28.726,28.726,0,0,1,3.24,2.052,10.4,10.4,0,0,1-4.5,2.772l.84.84a11.7,11.7,0,0,0,4.476-3,28.924,28.924,0,0,1,2.3,1.932l.708-.816c-.624-.564-1.464-1.224-2.376-1.9A13.685,13.685,0,0,0,153.7,12.7,2.731,2.731,0,0,1,154,12.056Zm8.628-1.38-1.116-.36a4.109,4.109,0,0,1-.372.948,9.892,9.892,0,0,1-3.768,4.056l.828.624a12.165,12.165,0,0,0,3.048-2.952H165.3a9.865,9.865,0,0,1-1.92,3.744,9.708,9.708,0,0,1-4.788,3.012l.864.78a10.521,10.521,0,0,0,4.776-3.264,11.639,11.639,0,0,0,2.136-4.128,3.77,3.77,0,0,1,.276-.636l-.8-.492a2.008,2.008,0,0,1-.78.12h-3.252a5.4,5.4,0,0,0,.288-.5A9.075,9.075,0,0,1,162.624,10.676Zm8.22,8.94.7.6a1.854,1.854,0,0,1,.5-.216,13.881,13.881,0,0,0,7.02-4.284l-.54-.84a12.949,12.949,0,0,1-6.564,4.092v-6.8a7.76,7.76,0,0,1,.084-1.092h-1.188a7.312,7.312,0,0,1,.108,1.092v6.864A1.322,1.322,0,0,1,170.844,19.616ZM188.1,10.6h-1.116a9.954,9.954,0,0,1,.108,1.008c.012.276.024.684.036,1.164H182.76a10.889,10.889,0,0,1-1.1-.072v1.02c.372-.024.72-.036,1.128-.036h3.948a15.1,15.1,0,0,1-5.52,4.62l.7.78a16.673,16.673,0,0,0,5.244-4.5c.024,1.608.036,3.4.036,4.356,0,.324-.1.48-.444.48a11.353,11.353,0,0,1-1.692-.144l.084.984c.588.048,1.3.072,1.92.072.72,0,1.092-.336,1.092-.96-.012-1.5-.048-3.888-.084-5.688h1.908c.288,0,.708.012.984.024V12.7c-.24.024-.708.072-1.02.072h-1.884c-.012-.48-.024-.888-.024-1.164A7.121,7.121,0,0,1,188.1,10.6Zm6.072,1.056.24.888c.924-.012,2.28-.048,3.492-.168v2.184h-3.612c-.36,0-.78-.024-1.056-.048v1c.288-.024.7-.048,1.08-.048h3.564a4.763,4.763,0,0,1-3.036,4.368l.948.66a5.687,5.687,0,0,0,3.072-5.028h3.348c.3,0,.66.024.924.048v-1c-.252.024-.684.048-.948.048h-3.312v-2.3c.864-.132,1.788-.312,2.388-.468.168-.048.408-.108.672-.18l-.636-.828a16.273,16.273,0,0,1-3.1.7A28.968,28.968,0,0,1,194.172,11.66Zm17.88-.3-.66.3a11.909,11.909,0,0,1,1.068,1.824l.684-.312A18.082,18.082,0,0,0,212.052,11.36Zm1.452-.6-.66.312a11.674,11.674,0,0,1,1.116,1.8l.672-.336A16.206,16.206,0,0,0,213.5,10.76ZM207.84,19.1a13.139,13.139,0,0,1-.072,1.416h1.152c-.036-.384-.072-1.032-.072-1.416V15.152a30.752,30.752,0,0,1,4.7,1.92l.42-1.02a40.763,40.763,0,0,0-5.124-1.98V12.116a11.083,11.083,0,0,1,.084-1.248h-1.188a7.573,7.573,0,0,1,.1,1.248Zm16.68-3.66a7.973,7.973,0,0,0,2.388,5.712l.72-.372a7.5,7.5,0,0,1,0-10.68l-.72-.372A7.973,7.973,0,0,0,224.52,15.44Zm5.46-2.856h1.272v1.008H229.98Zm3.372,0v1.008h-1.3V12.584Zm4.572-.564a5.073,5.073,0,0,1-.96,1.8,6.343,6.343,0,0,1-1.1-1.764l.024-.036Zm-6.672,4.224h.8V14.792c.576.324,1.356.78,1.7,1.02l.432-.588c-.336-.192-1.584-.816-2.064-1.044h1.98V13.04a4.19,4.19,0,0,1,.564.576,5.848,5.848,0,0,0,.744-.864,7.018,7.018,0,0,0,1.02,1.6A6.441,6.441,0,0,1,234,15.62a2.9,2.9,0,0,1,.528.66,7.888,7.888,0,0,0,2.448-1.356,6.612,6.612,0,0,0,2.268,1.4,3.828,3.828,0,0,1,.516-.708,6.219,6.219,0,0,1-2.244-1.236,5.9,5.9,0,0,0,1.272-2.364h.768V11.3h-3.3a9.463,9.463,0,0,0,.432-1.152l-.816-.18a6.336,6.336,0,0,1-1.764,3V12h-2.052v-.612h2.34v-.648h-2.34v-.78h-.8v.78H228.9v.648h2.352V12h-2V14.18H230.9a7.5,7.5,0,0,1-2.208,1.5,2.592,2.592,0,0,1,.528.564,8.379,8.379,0,0,0,2.028-1.536ZM234.6,18.92h3.444v-.7H234.6V17.3h4.224v-.732H229.6V17.3h4.14v2.6H231.6V17.84h-.84V19.9h-1.968v.744H239.6V19.9h-5Zm7.716-2.88c.012-.48.024-.936.024-1.344v-.672h1.776V16.04Zm1.8-4.812V13.2H242.34V11.228Zm.84-.828h-3.444v4.3a14,14,0,0,1-.888,5.808,2.845,2.845,0,0,1,.744.444,12.093,12.093,0,0,0,.9-4.056h1.848v2.856c0,.168-.06.216-.216.228s-.624.012-1.176-.012a2.8,2.8,0,0,1,.264.852,3.736,3.736,0,0,0,1.56-.18c.3-.144.408-.4.408-.888Zm5.352,9.468a.332.332,0,0,1-.192-.06c-.06-.06-.072-.276-.072-.66V10.4H246.3v5.04c0,1.632-.1,3.648-1.164,5a3.684,3.684,0,0,1,.744.54c1.128-1.464,1.3-3.8,1.3-5.544V11.252h1.992v7.824c0,1.008.06,1.212.24,1.392a1.1,1.1,0,0,0,.684.24h.588a1.2,1.2,0,0,0,.636-.168.973.973,0,0,0,.312-.648,17.242,17.242,0,0,0,.108-1.74,2.012,2.012,0,0,1-.72-.4c0,.756-.012,1.356-.036,1.608s-.06.372-.12.42a.309.309,0,0,1-.24.084Zm9.912-9.312A12.284,12.284,0,0,1,262.344,12l.552-.612a11.446,11.446,0,0,0-2.148-1.368Zm1.7,3.24a11.883,11.883,0,0,1-1.536,3.24,21.646,21.646,0,0,1-.66-4.164h3.816V12h-3.876c-.036-.648-.048-1.32-.048-2.016H258.7c.012.684.024,1.356.072,2.016h-5v3.348a9.313,9.313,0,0,1-1.092,5.064,3.55,3.55,0,0,1,.744.6c1.08-1.56,1.26-3.972,1.26-5.652v-.1h2.184c-.048,2.064-.108,2.82-.276,3-.072.108-.192.132-.36.132-.2,0-.72-.012-1.272-.06a1.855,1.855,0,0,1,.252.84,13.848,13.848,0,0,0,1.428,0,.928.928,0,0,0,.72-.348c.252-.312.324-1.32.384-4.008v-.384h-3.06v-1.56h4.14a23.6,23.6,0,0,0,.876,5.052,9.576,9.576,0,0,1-2.76,2.22,5.024,5.024,0,0,1,.648.708,10.729,10.729,0,0,0,2.472-1.992c.552,1.236,1.272,1.968,2.2,1.968s1.236-.588,1.4-2.628a2.109,2.109,0,0,1-.768-.48c-.084,1.6-.228,2.22-.564,2.22-.612,0-1.164-.684-1.608-1.86a13.531,13.531,0,0,0,2.112-4.056Zm6.168-3.588A10.192,10.192,0,0,1,264.5,14.72a5.185,5.185,0,0,1,.756.684,12.363,12.363,0,0,0,3.768-4.932Zm-1.644,4.26v.864H268.9c-.276,2.028-.936,3.924-3.756,4.86a3.539,3.539,0,0,1,.576.78c3.048-1.1,3.816-3.276,4.128-5.64h3.1c-.144,3.024-.312,4.224-.624,4.524-.108.132-.252.156-.5.156-.276,0-1.02-.012-1.8-.084a2.169,2.169,0,0,1,.3.888,17.191,17.191,0,0,0,1.884.024,1.2,1.2,0,0,0,.924-.42c.408-.456.588-1.836.756-5.52.012-.12.024-.432.024-.432Zm4.944-3.948a15.87,15.87,0,0,0,3.72,4.776,4.589,4.589,0,0,1,.732-.792,12.7,12.7,0,0,1-3.612-4.32Zm8.448,4.92a7.973,7.973,0,0,0-2.388-5.712l-.72.372a7.5,7.5,0,0,1,0,10.68l.72.372A7.973,7.973,0,0,0,279.84,15.44Z" transform="translate(322 17719)" fill="#3c505a" stroke="rgba(0,0,0,0)" stroke-width="1"/>
  </g>
</svg>
