<svg xmlns="http://www.w3.org/2000/svg" width="161" height="47" viewBox="0 0 161 47">
  <g id="Group_107" data-name="Group 107" transform="translate(-5346.528 15474.24)">
    <g id="Rectangle_103" data-name="Rectangle 103" transform="translate(5346.528 -15474.24)" fill="none" stroke="#3c505a" stroke-width="1">
      <rect width="161" height="47" rx="23.5" stroke="none"/>
      <rect x="0.5" y="0.5" width="160" height="46" rx="23" fill="none"/>
    </g>
    <path id="Path_170" data-name="Path 170" d="M-52.88-.64-51.36.672A4.13,4.13,0,0,1-50.416.24a20.05,20.05,0,0,0,9.28-5.76l-1.136-1.808a18.333,18.333,0,0,1-8.224,5.3v-8.32a11.7,11.7,0,0,1,.16-1.824h-2.512a10.222,10.222,0,0,1,.176,1.824V-1.68A2.09,2.09,0,0,1-52.88-.64Zm24.688-12.32-1.264.512a19.149,19.149,0,0,1,1.248,2.224l1.3-.544C-27.216-11.36-27.792-12.368-28.192-12.96Zm1.888-.72-1.264.512a16.963,16.963,0,0,1,1.3,2.208l1.264-.544A17.662,17.662,0,0,0-26.3-13.68Zm-8.784,1.408h-2.368a13.238,13.238,0,0,1,.128,1.664v8.72a2.308,2.308,0,0,0,2.192,2.4,17.81,17.81,0,0,0,2.688.176,45.466,45.466,0,0,0,5.7-.336V-1.984a27.106,27.106,0,0,1-5.568.56,14.964,14.964,0,0,1-1.856-.1c-.72-.144-1.04-.32-1.04-1.008v-2.96A55.227,55.227,0,0,0-28.944-7.44c.528-.192,1.248-.5,1.872-.752l-.864-2.032a10.347,10.347,0,0,1-1.744.864,40.351,40.351,0,0,1-5.536,1.776v-3.024A12.02,12.02,0,0,1-35.088-12.272Zm23.232,4.64-1.552-.752a3.622,3.622,0,0,1-1.184.176h-4.1c-.432,0-1.168-.048-1.584-.1v2.112c.464-.032,1.088-.08,1.6-.08h4.32c-.048.9-.4,3.168-.624,4.528H-20.16a15.371,15.371,0,0,1-1.584-.08V.256c.608-.032,1.008-.048,1.584-.048h8.416c.432,0,1.216.032,1.536.048V-1.808c-.416.048-1.152.064-1.568.064H-12.8c.24-1.52.656-4.272.784-5.216A4.46,4.46,0,0,1-11.856-7.632Zm5.328.224V-4.9c.592-.048,1.664-.08,2.576-.08H4.64c.672,0,1.488.064,1.872.08V-7.408c-.416.032-1.12.1-1.872.1H-3.952C-4.784-7.312-5.952-7.36-6.528-7.408Zm22.3-5.424-2.112-.176a8.9,8.9,0,0,1-.32,1.84h-.768A20.819,20.819,0,0,1,9.76-11.36v1.872c.88.064,2.048.1,2.7.1h.208A15.7,15.7,0,0,1,9.136-4.976L10.848-3.7a18.422,18.422,0,0,1,1.488-1.76,3.9,3.9,0,0,1,2.5-1.1,1.231,1.231,0,0,1,1.12.544c-1.824.944-3.744,2.224-3.744,4.272C12.208.32,14.064.928,16.576.928A40.025,40.025,0,0,0,21.1.656l.064-2.064a26.174,26.174,0,0,1-4.544.448c-1.568,0-2.32-.24-2.32-1.12,0-.8.64-1.424,1.84-2.112-.016.7-.032,1.472-.08,1.952h1.92c-.016-.736-.048-1.92-.064-2.816.976-.448,1.888-.8,2.608-1.088.544-.208,1.392-.528,1.9-.672l-.8-1.856c-.592.3-1.152.56-1.776.832-.656.288-1.328.56-2.16.944a2.167,2.167,0,0,0-2.128-1.232,5.422,5.422,0,0,0-1.808.32,11.171,11.171,0,0,0,.912-1.632,47.662,47.662,0,0,0,5.216-.4L19.9-11.7a40.507,40.507,0,0,1-4.528.464A15.307,15.307,0,0,0,15.776-12.832ZM28.656-6.32h6.688v.992H28.656Zm0-2.544h6.688v.992H28.656Zm0-2.528h6.688v.992H28.656ZM35.376-.544c-.608,0-.7-.064-.7-.576V-3.664H37.28v-9.392H26.816v9.392h1.952C28.5-1.92,27.808-.848,24.528-.24a6.03,6.03,0,0,1,1.056,1.7c3.952-.9,4.9-2.576,5.232-5.12h1.936V-1.1c0,1.792.448,2.368,2.352,2.368h2.112C38.8,1.264,39.3.608,39.5-1.92a6.06,6.06,0,0,1-1.744-.752c-.08,1.856-.176,2.128-.72,2.128ZM46.24-1.888c0-.4.384-.768.992-.768.864,0,1.456.672,1.552,1.712a8.353,8.353,0,0,1-.928.048C46.9-.9,46.24-1.3,46.24-1.888Zm-2.72-10.3.064,2.08c.368-.048.88-.1,1.312-.128.848-.048,3.056-.144,3.872-.16-.784.688-2.448,2.032-3.344,2.768-.944.784-2.88,2.416-4.016,3.328l1.456,1.5c1.712-1.952,3.312-3.248,5.76-3.248,1.888,0,3.328.976,3.328,2.416a2.319,2.319,0,0,1-1.328,2.176,3.2,3.2,0,0,0-3.408-2.736,2.681,2.681,0,0,0-2.864,2.5c0,1.6,1.68,2.624,3.9,2.624,3.872,0,5.792-2,5.792-4.528,0-2.336-2.064-4.032-4.784-4.032a6.25,6.25,0,0,0-1.52.176c1.008-.8,2.688-2.208,3.552-2.816.368-.272.752-.5,1.12-.736l-1.04-1.424a6.991,6.991,0,0,1-1.216.176c-.912.08-4.336.144-5.184.144A11.1,11.1,0,0,1,43.52-12.192Z" transform="translate(5425.528 -15444.24)" fill="#3c505a"/>
    <path id="Polygon_7" data-name="Polygon 7" d="M5,0l5,6H0Z" transform="translate(5497.528 -15455.24) rotate(90)" fill="#3c505a"/>
  </g>
</svg>
