<svg xmlns="http://www.w3.org/2000/svg" width="375" height="513" viewBox="0 0 375 513">
  <g id="Group_400" data-name="Group 400" transform="translate(0 -14044)">
    <rect id="Rectangle_187" data-name="Rectangle 187" width="375" height="513" transform="translate(0 14044)" fill="none"/>
    <path id="Path_185" data-name="Path 185" d="M-103-1.58c0,.38-.14.54-.56.36-.62-.28-1.52-.74-2.26-1.12A23.981,23.981,0,0,1-103-4.64Zm.9-5.42c0-.92.02-1.88.08-2.78a21.911,21.911,0,0,0,2.96-1.1c.42-.2.64-.44.64-.78-.02-.44-.54-.52-.9-.52-.42.02-1.08.68-2.64,1.26a13.989,13.989,0,0,1,.24-1.96c.14-.64.44-.94.44-1.42s-1.28-1.12-2.04-1.12a3.05,3.05,0,0,0-1.4.38l.06.38a3.84,3.84,0,0,1,1.26.14c.32.1.4.18.4.62.02.48,0,1.82,0,3.3a9.76,9.76,0,0,1-2.12.36c-1.06.04-1.36-.16-2.38-1.16l-.34.26c.82,1.82,1.66,2,2.64,2A10.681,10.681,0,0,0-103-9.5v3.86c-1.34.76-2.9,1.98-3.64,2.42a1.484,1.484,0,0,1-1.14.22c-.44-.04-.56.12-.56.58a1.1,1.1,0,0,0,.36.82.971.971,0,0,0,.64.34c.28,0,.54-.16,1.14-.72A23.977,23.977,0,0,1-104.06-.4c.64.58.68,1.2,1.14,1.2.6,0,1.14-.92,1.14-1.82,0-.72-.22-1.46-.3-4.18a11.184,11.184,0,0,1,5.1-1.74c2.14,0,3.1,1.16,3.1,2.66a2.8,2.8,0,0,1-3.08,2.84,4.908,4.908,0,0,1-3.16-1.2l-.32.32a4.579,4.579,0,0,0,3.76,2,3.729,3.729,0,0,0,4.06-3.7,3.617,3.617,0,0,0-3.94-3.66,12.155,12.155,0,0,0-5.54,1.54Zm5.16-5.4c1.4-.1,2.94.04,3.74,1.16.22.32.2.48-.02.72a14.877,14.877,0,0,1-1.6,1.1l.22.36a7.58,7.58,0,0,1,1.54-.6c.64-.12.82.4,1.28.3.38-.04.52-.38.5-.78-.06-1.26-1.5-2.58-3.04-2.88a6.706,6.706,0,0,0-2.66.1Zm10.48,5.92c.06-1.02.06-2.04.06-2.96v-1.14h3.22v4.1Zm3.28-8.54v3.84H-86.4v-3.84Zm1.24.2a1.567,1.567,0,0,0,.78-.38l-1.56-1.2-.64.78h-2.78l-1.5-.64v6.82c0,3.74-.08,7.72-1.66,10.86l.32.16A13.388,13.388,0,0,0-86.5-5.9h3.32v4.44c0,.3-.1.42-.44.42-.38,0-2.12-.14-2.12-.14v.32a2.823,2.823,0,0,1,1.48.5,1.379,1.379,0,0,1,.4.96c1.72-.18,1.92-.84,1.92-1.88ZM-71.26-4.54h-.28c-.2,1.38-.46,3.28-.6,3.62-.06.22-.12.24-.22.26a6.075,6.075,0,0,1-.7.02h-.64c-.36,0-.44-.12-.44-.44V-14.6a1.336,1.336,0,0,0,.86-.34l-1.56-1.38-.76.84h-2.82l-1.5-.66v7.2c0,3.82-.3,7.48-2.64,10.34l.3.2c3.3-2.8,3.6-6.92,3.6-10.56v-5.92h3.26V-.68c0,.9.22,1.3,1.36,1.3h.98c1.82,0,2.36-.28,2.36-.8,0-.28-.08-.42-.48-.58Zm10.92-6.68a9.414,9.414,0,0,1-.72,3.08c-.82,1.9-2.66,5.06-3.98,5.06-.82,0-1.7-1.46-1.7-3.38a6.436,6.436,0,0,1,2.06-4.62,7.608,7.608,0,0,1,3.78-1.98A3.491,3.491,0,0,1-60.34-11.22ZM-60.68.08c6.54-.42,8.62-3.82,8.62-7.14,0-4.14-3.18-6.84-7.3-6.84a8.647,8.647,0,0,0-5.84,2.14,7.683,7.683,0,0,0-2.66,5.62c0,2.46,1.4,4.58,2.74,4.58,2.04,0,4.36-3.88,5.2-6.28a10.025,10.025,0,0,0,.62-3.22,3.732,3.732,0,0,0-.86-2.12c.24-.02.48-.04.72-.04A5.676,5.676,0,0,1-53.5-7.38c0,3.62-2.36,6.14-7.26,7Zm29.18-8.4c.28,0,.5-.1.54-.32-.72-.64-1.88-1.54-1.88-1.54l-1.04,1.26h-5.5v-3.6h6.42c.28,0,.48-.1.54-.32-.7-.64-1.8-1.48-1.8-1.48l-1,1.22h-4.16v-2.88c.5-.08.66-.28.7-.56l-2.04-.24v3.68h-6.72l.14.58h6.58v3.6H-49l.16.6h7a22.478,22.478,0,0,1-7.48,8.2l.22.3a20.831,20.831,0,0,0,8.38-7.56V1.56h.26c.52,0,1.08-.34,1.08-.54V-8.32h.06A17.181,17.181,0,0,0-31.94.02,1.509,1.509,0,0,1-30.7-1.06l.04-.22a17.532,17.532,0,0,1-8.2-7.04Zm20.04,1.16c.28,0,.48-.1.52-.32-.72-.66-1.88-1.54-1.88-1.54l-1.04,1.28h-5.52V-13h7.04c.28,0,.48-.1.52-.32-.7-.64-1.82-1.48-1.82-1.48l-1,1.22h-4.74v-2.4c.5-.08.66-.28.7-.56l-2.04-.24v3.2H-28.1l.18.58h7.2v5.26h-8.34l.16.58h7.24A22,22,0,0,1-29.3.28l.22.32a21,21,0,0,0,8.36-6.66V1.56h.26c.52,0,1.08-.34,1.08-.54V-6.9A16.165,16.165,0,0,0-11.94.34a1.491,1.491,0,0,1,1.2-1.12l.04-.18a17.336,17.336,0,0,1-8.36-6.2Zm-14.38-5.32a8.465,8.465,0,0,1,1.72,3.9c1.34,1.18,2.64-1.86-1.5-4.02Zm8.26,4.34a18.149,18.149,0,0,0,3.1-3.28.667.667,0,0,0,.74-.3l-1.94-.86a25.161,25.161,0,0,1-2.18,4.24Zm22.5-2.52a2.837,2.837,0,0,1,.98.68c.28.32.24.5-.1.68C4.6-8.66,2.56-7.84.94-6.96c-.2-1.5-.96-2.36-2.22-2.36a5.072,5.072,0,0,0-2.2.68c-.14.08-.2-.02-.12-.12a23.749,23.749,0,0,0,1.92-2.82,23.428,23.428,0,0,0,4.82-1.48c.38-.18.56-.36.56-.62,0-.38-.42-.54-.86-.54-.3,0-.44.18-1.28.56a19.71,19.71,0,0,1-2.6.86c.24-.5.5-1,.64-1.32.22-.44.38-.58.38-.86,0-.48-1.3-.82-1.92-.82a4.28,4.28,0,0,0-1.14.2v.38a3.937,3.937,0,0,1,1.12.28c.4.16.46.3.36.66a7.825,7.825,0,0,1-.66,1.76,9.7,9.7,0,0,1-1.78.2,2.866,2.866,0,0,1-2.62-1.26l-.42.26c.8,1.58,1.14,2.02,2.78,2.02a12.171,12.171,0,0,0,1.44-.1,19.293,19.293,0,0,1-2.8,3.66c-.9.96-1.64,1.46-1.64,2,0,.5.28.8.68.8.48-.02,1.04-.96,1.74-1.72.84-.88,2.16-2,3.28-2,1.04,0,1.42.62,1.5,2.32C-2.44-4.86-4.26-3.26-4.26-1.68S-3.04,1.06.68,1.06A21.816,21.816,0,0,0,5.16.52C5.8.34,5.9.08,5.9-.22c0-.38-.36-.62-1.06-.62-.96,0-2.12.62-5.08.62-1.9,0-3.18-.48-3.18-1.6,0-1.18,1.4-2.46,3.34-3.56C-.1-4.3-.18-3.22-.18-2.74c0,.54.32.76.66.76.4,0,.62-.3.62-.78,0-.64,0-2.1-.06-3.24a38.586,38.586,0,0,1,5.7-2.26c.78-.24.98-.3.98-.66a2.335,2.335,0,0,0-1.08-1.56,3.376,3.376,0,0,0-1.48-.54ZM11.24-9.6a2.916,2.916,0,0,0,.32,1.12,2.627,2.627,0,0,0,1.76,1.16c.58,0,1.12-.56,2.6-1.48,1.5-.94,4.2-2.72,6.64-2.72,2.58,0,4.14,1.44,4.14,3.68,0,2.14-1.06,3.62-3.32,4.68A17.382,17.382,0,0,1,16.56-1.7l.04.54A17.14,17.14,0,0,0,24.38-2.3c2.16-1.02,3.74-2.7,3.74-5.3,0-2.48-1.88-4.74-5.54-4.74-2.98,0-6.06,1.76-7.94,2.72A3.478,3.478,0,0,1,12.86-9a2.027,2.027,0,0,1-1.34-.78ZM41.3-14.28c0,.24-.12.44-.46.84-.92,1.12-3.88,4-4.88,5.18a1.616,1.616,0,0,0-.52,1.06,1.709,1.709,0,0,0,.78,1.28A25.155,25.155,0,0,1,41.02-1,14.813,14.813,0,0,1,41.98.74a.819.819,0,0,0,.7.48c.5,0,.76-.34.76-.86a3.973,3.973,0,0,0-.98-2.08,30.26,30.26,0,0,0-5.22-4.74c-.44-.34-.68-.6-.68-.86,0-.24.12-.46.7-1.04.84-.84,3.48-3.28,4.82-4.36.7-.52,1.04-.68,1.04-1.1,0-.48-.74-1.32-1.44-1.7a4.125,4.125,0,0,0-1.24-.42l-.24.38C41.02-15,41.3-14.62,41.3-14.28Zm15.44.82c0,1.08-.96,4.94-.96,7.1a5.581,5.581,0,0,0,.3,1.86.706.706,0,0,0,.7.5.571.571,0,0,0,.56-.64c0-.66-.12-1.24-.12-2.04a8.045,8.045,0,0,1,1.04-3.82,3.88,3.88,0,0,1,2.9-2.24c1.4,0,2.3,1.94,2.3,5.2,0,3.58-1.18,6.62-6.02,8.56l.22.46c5.36-1.4,7.2-4.74,7.2-8.88,0-3.56-1.1-6.14-3.5-6.14-1.3,0-2.7,1.2-3.64,2.86-.22.4-.38.38-.3-.04a15.954,15.954,0,0,1,.46-2.02,4.674,4.674,0,0,0,.26-1.18,3.054,3.054,0,0,0-1.32-1.84,3.043,3.043,0,0,0-.96-.44l-.26.26A3.25,3.25,0,0,1,56.74-13.46ZM86.38-6.82v6H80.6V-8.54h4.8V-7.5h.24c.48,0,1.04-.26,1.04-.4v-6.26c.48-.08.68-.26.72-.52l-2-.22v5.76H80.6v-6.74c.48-.08.64-.28.7-.56l-2.04-.22v7.52H74.58v-5.02c.5-.08.68-.26.72-.52l-1.98-.22v7.5h.24c.48,0,1.02-.26,1.02-.42v-.72h4.68V-.82H73.62V-6.06c.5-.08.68-.26.72-.54l-1.98-.22V1.54h.24c.48,0,1.02-.26,1.02-.42V-.22H86.38V1.36h.24c.5,0,1.04-.28,1.04-.44V-6.06c.5-.08.68-.26.72-.54Zm13.64,2.48A1.725,1.725,0,0,1,98.4-6.26a1.741,1.741,0,0,1,1.64-1.9c.86,0,1.5.66,1.5,1.96C101.54-4.82,101.02-4.34,100.02-4.34ZM99-14.74a8.011,8.011,0,0,1,1.32.14c.32.1.42.22.46.62.04.5.08,1.18.1,1.9-2.36.26-6.48.88-7.22.86-.68,0-1.06-.64-1.5-1.3l-.38.14a3.869,3.869,0,0,0,.2,1.2A2.682,2.682,0,0,0,93.8-9.72a11.372,11.372,0,0,0,1.82-.54,45.01,45.01,0,0,1,5.3-.98c.04.9.08,1.76.1,2.36a3.541,3.541,0,0,0-.82-.1,2.661,2.661,0,0,0-2.62,2.82c0,2.04,1.6,3.58,3.56,2.68C100.42-1.52,98.42-.1,95.98.8l.26.5c3.86-.96,6.62-3.2,6.62-6.86a3.8,3.8,0,0,0-.84-2.7c0-1-.02-2.12-.02-3.08a25.576,25.576,0,0,1,6.18.14c.38,0,.56-.16.56-.52,0-.64-1.04-1.02-1.74-1.02-.42,0-1.7.18-5,.54.02-.48.02-.88.04-1.14.04-.5.34-.82.34-1.28,0-.5-1.24-.94-2.06-.94a3.114,3.114,0,0,0-1.36.42ZM-122.63,27c0,2.1-.04,2.36-1.2,2.5l-.5.06a.385.385,0,0,0,.04.5c.94-.04,1.66-.06,2.5-.06.8,0,1.48.02,2.38.06a.391.391,0,0,0,.04-.5l-.42-.06c-1.16-.16-1.2-.4-1.2-2.5V24.48c0-.42.04-.44.94-.44a1.427,1.427,0,0,1,1.42.64c.62.9,1.44,2.28,1.96,3.02,1.42,2.02,2.44,2.52,4.14,2.52a3.113,3.113,0,0,0,.88-.1.167.167,0,0,0-.02-.28,2.394,2.394,0,0,1-1.38-.56c-1.36-1.14-2.42-2.74-4.02-5.32-.1-.16-.2-.36-.1-.48a3.7,3.7,0,0,0,2.5-3.34,2.98,2.98,0,0,0-1.66-2.8,7.082,7.082,0,0,0-3.34-.6c-1.96,0-3.34.06-4.46.16a.334.334,0,0,0-.02.5l.64.08c.82.1.88.44.88,2.34Zm1.64-9c0-.56.06-.64,1.3-.64a2.946,2.946,0,0,1,3.2,3.08,2.868,2.868,0,0,1-1,2.48,3.351,3.351,0,0,1-2.06.52c-1.02,0-1.32-.04-1.38-.1a1.575,1.575,0,0,1-.06-.66Zm11.26,9c0,2.1-.1,2.4-1.24,2.5l-.66.06a.388.388,0,0,0,.04.5c1.18-.04,1.86-.06,2.72-.06h1.8c1.78,0,3.56.02,5.36.06a17.428,17.428,0,0,0,.9-2.78.368.368,0,0,0-.5-.14,5.022,5.022,0,0,1-1.42,1.94,5.853,5.853,0,0,1-2.56.3c-1.76,0-2.18-.22-2.42-.46-.32-.34-.38-1.02-.38-2.08V24.02c0-.52.06-.54.66-.54h1.16a6.69,6.69,0,0,1,1.54.1.855.855,0,0,1,.62.76l.18.78a.4.4,0,0,0,.52-.02c0-.44-.08-1.2-.08-1.92,0-.76.08-1.54.08-2.02a.4.4,0,0,0-.52-.02l-.16.82c-.1.5-.24.62-.48.7a7.419,7.419,0,0,1-1.7.12h-1.16c-.6,0-.66,0-.66-.56v-4c0-.76,0-.8.6-.8h1.44a9.548,9.548,0,0,1,1.94.12c1.04.26,1.22.96,1.52,1.9a.393.393,0,0,0,.5-.04,22.472,22.472,0,0,0-.32-2.66,26.844,26.844,0,0,1-2.7.06h-3.76c-.82,0-1.5-.02-2.36-.06-.12.06-.16.42-.04.5l.32.04c1.18.14,1.22.44,1.22,2.52Zm11.68,0c0,2.1-.04,2.32-1.1,2.5l-.36.06a.388.388,0,0,0,.04.5c.74-.02,1.42-.06,2.3-.06.84,0,1.82.06,2.4.06,3.6,0,5.32-1.56,5.32-3.88a3.309,3.309,0,0,0-2.68-3.34c-.22-.04-.38-.1-.38-.3a2.893,2.893,0,0,0,2.04-2.74,2.625,2.625,0,0,0-1.52-2.5,7.609,7.609,0,0,0-3.36-.56c-1.86,0-3.22.06-4.3.16a.32.32,0,0,0-.02.5l.64.06c.9.08.98.46.98,1.94Zm1.64-3.26c0-.4.08-.52,1.16-.52,3.18,0,3.98,1.84,3.98,3.42,0,2-1.36,2.8-3.14,2.8a1.941,1.941,0,0,1-1.58-.56,3.918,3.918,0,0,1-.42-2.18Zm0-5.74c0-.36.08-.46.28-.52a2.461,2.461,0,0,1,.92-.12c1.52,0,2.98.74,2.98,2.7,0,1.88-1.1,2.48-3.14,2.56-1.02.04-1.04,0-1.04-.56Zm15.94,12.32a6.828,6.828,0,0,0,6.94-6.98,6.583,6.583,0,0,0-6.94-6.86,6.913,6.913,0,0,0-7.12,7.06A6.735,6.735,0,0,0-80.47,30.32Zm.26-.62c-3.94,0-5.38-3.84-5.38-6.8,0-4.38,2.7-5.8,4.78-5.8,3.82,0,5.28,3.56,5.28,6.86C-75.53,27.9-77.81,29.7-80.21,29.7ZM-70.05,27c0,2.1-.04,2.36-1.2,2.5l-.5.06a.385.385,0,0,0,.04.5c.94-.04,1.66-.06,2.5-.06.8,0,1.48.02,2.38.06a.391.391,0,0,0,.04-.5l-.42-.06c-1.16-.16-1.2-.4-1.2-2.5V24.48c0-.42.04-.44.94-.44a1.427,1.427,0,0,1,1.42.64c.62.9,1.44,2.28,1.96,3.02,1.42,2.02,2.44,2.52,4.14,2.52a3.113,3.113,0,0,0,.88-.1.167.167,0,0,0-.02-.28,2.394,2.394,0,0,1-1.38-.56c-1.36-1.14-2.42-2.74-4.02-5.32-.1-.16-.2-.36-.1-.48a3.7,3.7,0,0,0,2.5-3.34,2.98,2.98,0,0,0-1.66-2.8,7.082,7.082,0,0,0-3.34-.6c-1.96,0-3.34.06-4.46.16a.334.334,0,0,0-.02.5l.64.08c.82.1.88.44.88,2.34Zm1.64-9c0-.56.06-.64,1.3-.64a2.946,2.946,0,0,1,3.2,3.08,2.868,2.868,0,0,1-1,2.48,3.351,3.351,0,0,1-2.06.52c-1.02,0-1.32-.04-1.38-.1a1.575,1.575,0,0,1-.06-.66Zm22.02,3.82a16.135,16.135,0,0,1,.3-4.12c.08-.16.48-.32,1.12-.42l.28-.04a.351.351,0,0,0-.04-.5c-.68.04-1.2.06-2.06.06-.76,0-1.44-.02-2.36-.06-.16.06-.18.38-.04.5l.34.04c.8.1,1.12.22,1.24.4.38.6.4,3.2.4,4.14V26.1a2.017,2.017,0,0,1-.08.84h-.04c-.94-.96-1.92-2.08-3.3-3.62l-1.94-2.18a27.52,27.52,0,0,1-3.42-4.4,6.46,6.46,0,0,1-.92.06c-.36,0-1.42,0-2.26-.06a.35.35,0,0,0-.04.5l.34.04a2.169,2.169,0,0,1,1.24.48,1.834,1.834,0,0,1,.44,1.44v5.78a19.309,19.309,0,0,1-.26,4.12c-.1.22-.42.34-.88.4l-.54.06a.371.371,0,0,0,.04.5c.7-.04,1.24-.06,2.08-.06.74,0,1.44.02,2.34.06a.366.366,0,0,0,.04-.5l-.62-.06c-.5-.04-.9-.16-1.02-.38-.34-.6-.36-3.2-.36-4.14V20.62a5.082,5.082,0,0,1,.1-1.3h.04c.42.44,1.78,2.08,2.32,2.7l4.64,5.28c1.74,1.98,2.32,2.68,2.56,3.02a.361.361,0,0,0,.38-.22c-.06-.52-.06-2.9-.06-3.5Zm11.36,6.26a4.1,4.1,0,0,1,.26,1.06c0,.2-.28.32-.7.36l-.58.06a.335.335,0,0,0,.04.5c.58-.02,1.34-.06,2.3-.06.9,0,1.6.02,2.42.06a.392.392,0,0,0,0-.5l-.54-.06c-.86-.1-1.12-.4-1.7-2.12l-2.74-8.04c-.3-.88-.62-1.8-.88-2.68a.283.283,0,0,0-.3-.18,2.243,2.243,0,0,1-1.04.76,2.869,2.869,0,0,1-.34,1.42l-2.04,5.4c-.84,2.24-1.4,3.54-1.76,4.46a1.33,1.33,0,0,1-1.2.98l-.66.06a.393.393,0,0,0,.04.5c.54-.02,1.26-.06,1.92-.06.94.02,1.56.02,2.08.06a.322.322,0,0,0,.04-.5l-.66-.06c-.48-.04-.58-.16-.58-.4a7.646,7.646,0,0,1,.44-1.66l.7-2.1c.14-.42.26-.48.76-.48h3.02c.6,0,.68.06.82.5Zm-3.58-7.98a12.19,12.19,0,0,1,.48-1.18h.04a13.174,13.174,0,0,1,.46,1.26l1.08,3.26c.18.54.14.62-.44.62h-2.46c-.56,0-.58-.02-.42-.48Zm20.76,6.52a4.5,4.5,0,0,0-2.5-3.84l-1.6-1a3.145,3.145,0,0,1-1.7-2.46,2.1,2.1,0,0,1,2.38-2.22,2.62,2.62,0,0,1,2.72,2.26c.1.12.42.06.5-.06a8.748,8.748,0,0,0-.36-2.44,2.688,2.688,0,0,1-.7-.12,7.731,7.731,0,0,0-1.86-.26c-2.6,0-4.08,1.54-4.08,3.44a4.266,4.266,0,0,0,2.16,3.44l1.9,1.24a3,3,0,0,1,1.64,2.8,2.272,2.272,0,0,1-2.5,2.3,3.639,3.639,0,0,1-3.44-2.98c-.08-.12-.38-.08-.48.06a9.236,9.236,0,0,0,.54,2.8,6.242,6.242,0,0,0,3.12.74C-19.51,30.32-17.85,28.82-17.85,26.62Zm3.6.38c0,2.1-.04,2.34-1.1,2.5l-.4.06a.385.385,0,0,0,.04.5c.82-.04,1.5-.06,2.32-.06.78,0,1.46.02,2.44.06.12-.06.16-.42.04-.5l-.54-.06c-1.12-.12-1.16-.4-1.16-2.5V24.42c0-.7.04-.96.34-.96.48,0,.8.4,1.94,1.68l1.6,1.8c.76.86,1.28,1.4,1.66,1.88.14.18.28.34.28.46,0,.1-.2.16-.48.2l-.46.08c-.12.12-.06.46.08.5.92-.04,1.62-.06,2.44-.06.94,0,1.72.02,2.24.06a.35.35,0,0,0,.04-.5l-.54-.06a2.493,2.493,0,0,1-1.6-.82c-1.56-1.64-3.1-3.44-5-5.62-.26-.32-.38-.48-.38-.62,0-.16.18-.34.46-.62l1.8-1.7a20.061,20.061,0,0,1,2.8-2.32,4.94,4.94,0,0,1,1.86-.56.371.371,0,0,0-.04-.5c-.6.04-1.28.06-1.98.06s-1.5-.02-2.2-.06a.334.334,0,0,0-.04.5l.54.12c.26.06.34.12.34.2a.591.591,0,0,1-.14.32,22.579,22.579,0,0,1-1.56,1.66l-2.16,2.14c-.22.2-.74.72-1.02.96a1.141,1.141,0,0,1-.56.22c-.22,0-.26-.38-.26-.76V19.8c0-2.1.04-2.4,1.2-2.52l.38-.04c.12-.08.08-.44-.04-.5-.86.04-1.54.06-2.32.06-.9,0-1.54-.02-2.52-.06-.12.06-.16.42-.04.5l.5.04c1.16.1,1.2.42,1.2,2.52Zm13.5-.04c0,2.12-.04,2.4-1.22,2.54l-.5.06a.388.388,0,0,0,.04.5c1-.04,1.68-.06,2.52-.06.8,0,1.48.02,2.48.06.12-.06.16-.42.04-.5l-.5-.06C.93,29.36.89,29.08.89,26.96V19.84c0-2.12.04-2.46,1.22-2.56l.5-.04c.12-.08.08-.44-.04-.5-1,.04-1.68.06-2.48.06-.84,0-1.52-.02-2.52-.06-.12.06-.16.42-.04.5l.5.04c1.18.1,1.22.44,1.22,2.56Zm17.52-5.14a16.135,16.135,0,0,1,.3-4.12c.08-.16.48-.32,1.12-.42l.28-.04a.351.351,0,0,0-.04-.5c-.68.04-1.2.06-2.06.06-.76,0-1.44-.02-2.36-.06-.16.06-.18.38-.04.5l.34.04c.8.1,1.12.22,1.24.4.38.6.4,3.2.4,4.14V26.1a2.017,2.017,0,0,1-.08.84h-.04c-.94-.96-1.92-2.08-3.3-3.62l-1.94-2.18a27.52,27.52,0,0,1-3.42-4.4,6.46,6.46,0,0,1-.92.06c-.36,0-1.42,0-2.26-.06a.35.35,0,0,0-.04.5l.34.04a2.169,2.169,0,0,1,1.24.48,1.834,1.834,0,0,1,.44,1.44v5.78a19.309,19.309,0,0,1-.26,4.12c-.1.22-.42.34-.88.4l-.54.06a.371.371,0,0,0,.04.5c.7-.04,1.24-.06,2.08-.06.74,0,1.44.02,2.34.06a.366.366,0,0,0,.04-.5l-.62-.06c-.5-.04-.9-.16-1.02-.38-.34-.6-.36-3.2-.36-4.14V20.62a5.082,5.082,0,0,1,.1-1.3h.04c.42.44,1.78,2.08,2.32,2.7l4.64,5.28c1.74,1.98,2.32,2.68,2.56,3.02a.361.361,0,0,0,.38-.22c-.06-.52-.06-2.9-.06-3.5Zm8.22,1.66a6.447,6.447,0,0,0,2.84,5.5,8.761,8.761,0,0,0,4.98,1.34,11.786,11.786,0,0,0,3.16-.46,4.027,4.027,0,0,1,.7-.2,7.517,7.517,0,0,0,.96-2.74.42.42,0,0,0-.52-.08,4.264,4.264,0,0,1-4.18,2.86c-3.28,0-5.94-2.32-5.94-6.52,0-4.14,2.6-6.08,5.66-6.08,2.9,0,3.8,1.56,4.1,2.92a.422.422,0,0,0,.54-.04c-.16-1.22-.26-2.48-.28-2.94a1.509,1.509,0,0,1-.56-.08,15.432,15.432,0,0,0-3.54-.48,8.619,8.619,0,0,0-5.4,1.7A6.644,6.644,0,0,0,24.99,23.48ZM40.59,27c0,2.1-.04,2.36-1.2,2.5l-.5.06a.385.385,0,0,0,.04.5c.94-.04,1.66-.06,2.5-.06.8,0,1.48.02,2.38.06a.391.391,0,0,0,.04-.5l-.42-.06c-1.16-.16-1.2-.4-1.2-2.5V24.48c0-.42.04-.44.94-.44a1.427,1.427,0,0,1,1.42.64c.62.9,1.44,2.28,1.96,3.02,1.42,2.02,2.44,2.52,4.14,2.52a3.113,3.113,0,0,0,.88-.1.167.167,0,0,0-.02-.28,2.394,2.394,0,0,1-1.38-.56c-1.36-1.14-2.42-2.74-4.02-5.32-.1-.16-.2-.36-.1-.48a3.7,3.7,0,0,0,2.5-3.34,2.98,2.98,0,0,0-1.66-2.8,7.082,7.082,0,0,0-3.34-.6c-1.96,0-3.34.06-4.46.16a.334.334,0,0,0-.02.5l.64.08c.82.1.88.44.88,2.34Zm1.64-9c0-.56.06-.64,1.3-.64a2.946,2.946,0,0,1,3.2,3.08,2.868,2.868,0,0,1-1,2.48,3.351,3.351,0,0,1-2.06.52c-1.02,0-1.32-.04-1.38-.1a1.575,1.575,0,0,1-.06-.66Zm11.26,9c0,2.1-.1,2.4-1.24,2.5l-.66.06a.388.388,0,0,0,.04.5c1.18-.04,1.86-.06,2.72-.06h1.8c1.78,0,3.56.02,5.36.06a17.429,17.429,0,0,0,.9-2.78.368.368,0,0,0-.5-.14,5.022,5.022,0,0,1-1.42,1.94,5.853,5.853,0,0,1-2.56.3c-1.76,0-2.18-.22-2.42-.46-.32-.34-.38-1.02-.38-2.08V24.02c0-.52.06-.54.66-.54h1.16a6.69,6.69,0,0,1,1.54.1.855.855,0,0,1,.62.76l.18.78a.4.4,0,0,0,.52-.02c0-.44-.08-1.2-.08-1.92,0-.76.08-1.54.08-2.02a.4.4,0,0,0-.52-.02l-.16.82c-.1.5-.24.62-.48.7a7.419,7.419,0,0,1-1.7.12H55.79c-.6,0-.66,0-.66-.56v-4c0-.76,0-.8.6-.8h1.44a9.548,9.548,0,0,1,1.94.12c1.04.26,1.22.96,1.52,1.9a.393.393,0,0,0,.5-.04,22.472,22.472,0,0,0-.32-2.66,26.844,26.844,0,0,1-2.7.06H54.35c-.82,0-1.5-.02-2.36-.06-.12.06-.16.42-.04.5l.32.04c1.18.14,1.22.44,1.22,2.52Zm18.14,1.08a4.1,4.1,0,0,1,.26,1.06c0,.2-.28.32-.7.36l-.58.06a.335.335,0,0,0,.04.5c.58-.02,1.34-.06,2.3-.06.9,0,1.6.02,2.42.06a.392.392,0,0,0,0-.5l-.54-.06c-.86-.1-1.12-.4-1.7-2.12l-2.74-8.04c-.3-.88-.62-1.8-.88-2.68a.283.283,0,0,0-.3-.18,2.243,2.243,0,0,1-1.04.76,2.869,2.869,0,0,1-.34,1.42l-2.04,5.4c-.84,2.24-1.4,3.54-1.76,4.46a1.33,1.33,0,0,1-1.2.98l-.66.06a.393.393,0,0,0,.04.5c.54-.02,1.26-.06,1.92-.06.94.02,1.56.02,2.08.06a.322.322,0,0,0,.04-.5l-.66-.06c-.48-.04-.58-.16-.58-.4a7.646,7.646,0,0,1,.44-1.66l.7-2.1c.14-.42.26-.48.76-.48h3.02c.6,0,.68.06.82.5ZM68.05,20.1a12.191,12.191,0,0,1,.48-1.18h.04a13.174,13.174,0,0,1,.46,1.26l1.08,3.26c.18.54.14.62-.44.62H67.21c-.56,0-.58-.02-.42-.48Zm12.98-2c0-.66-.02-.68.58-.68h1.42a3.988,3.988,0,0,1,2.32.5c.3.22.44.96.5,1.46a.376.376,0,0,0,.52-.04,12.106,12.106,0,0,1,.3-3.04c-.04-.08-.26-.1-.36-.06-.3.52-.48.56-1.56.56h-8.1c-.92,0-1.58.02-1.7-.62a.5.5,0,0,0-.38,0,21.062,21.062,0,0,1-.76,2.98.387.387,0,0,0,.52.14,3.652,3.652,0,0,1,.9-1.38,4.1,4.1,0,0,1,2.46-.5h1.1c.6,0,.6.02.6.64V27c0,2.1-.1,2.4-1.24,2.5l-.72.06a.349.349,0,0,0,0,.5c1.28-.04,1.98-.06,2.78-.06s1.48.02,2.62.06c.12-.06.16-.42.04-.5l-.64-.06c-1.16-.1-1.2-.4-1.2-2.5Zm8.4,8.86c0,2.12-.04,2.4-1.22,2.54l-.5.06a.388.388,0,0,0,.04.5c1-.04,1.68-.06,2.52-.06.8,0,1.48.02,2.48.06.12-.06.16-.42.04-.5l-.5-.06c-1.18-.14-1.22-.42-1.22-2.54V19.84c0-2.12.04-2.46,1.22-2.56l.5-.04c.12-.08.08-.44-.04-.5-1,.04-1.68.06-2.48.06-.84,0-1.52-.02-2.52-.06-.12.06-.16.42-.04.5l.5.04c1.18.1,1.22.44,1.22,2.56Zm12.24,3.36a6.828,6.828,0,0,0,6.94-6.98,6.583,6.583,0,0,0-6.94-6.86,6.913,6.913,0,0,0-7.12,7.06A6.735,6.735,0,0,0,101.67,30.32Zm.26-.62c-3.94,0-5.38-3.84-5.38-6.8,0-4.38,2.7-5.8,4.78-5.8,3.82,0,5.28,3.56,5.28,6.86C106.61,27.9,104.33,29.7,101.93,29.7Zm20.92-7.88a16.135,16.135,0,0,1,.3-4.12c.08-.16.48-.32,1.12-.42l.28-.04a.351.351,0,0,0-.04-.5c-.68.04-1.2.06-2.06.06-.76,0-1.44-.02-2.36-.06-.16.06-.18.38-.04.5l.34.04c.8.1,1.12.22,1.24.4.38.6.4,3.2.4,4.14V26.1a2.017,2.017,0,0,1-.08.84h-.04c-.94-.96-1.92-2.08-3.3-3.62l-1.94-2.18a27.52,27.52,0,0,1-3.42-4.4,6.46,6.46,0,0,1-.92.06c-.36,0-1.42,0-2.26-.06a.35.35,0,0,0-.04.5l.34.04a2.169,2.169,0,0,1,1.24.48,1.834,1.834,0,0,1,.44,1.44v5.78a19.309,19.309,0,0,1-.26,4.12c-.1.22-.42.34-.88.4l-.54.06a.371.371,0,0,0,.04.5c.7-.04,1.24-.06,2.08-.06.74,0,1.44.02,2.34.06a.366.366,0,0,0,.04-.5l-.62-.06c-.5-.04-.9-.16-1.02-.38-.34-.6-.36-3.2-.36-4.14V20.62a5.082,5.082,0,0,1,.1-1.3h.04c.42.44,1.78,2.08,2.32,2.7l4.64,5.28c1.74,1.98,2.32,2.68,2.56,3.02a.361.361,0,0,0,.38-.22c-.06-.52-.06-2.9-.06-3.5Z" transform="translate(187 14145.768)" fill="#3c505a"/>
    <path id="Path_184" data-name="Path 184" d="M11.26-7.6l5.12-8.96-.58-.36L10.46-7.6,15.8,1.72l.58-.36Zm2.84,0,5.14-8.96-.58-.36L13.3-7.6l5.36,9.32.58-.36Zm9.7-4.36a4.569,4.569,0,0,0,.86,1.32,1.913,1.913,0,0,0,1.24.66c.48,0,1.58-.22,2.92-.4a2.435,2.435,0,0,1,.64,1.78c0,.9-.06,3.16-.16,4.64-2.7.26-5.1.52-5.68.52A2.108,2.108,0,0,1,22.04-4.5l-.38.16a2.463,2.463,0,0,0,.26,1.1,2.89,2.89,0,0,0,1.76,1.32,8.43,8.43,0,0,0,1.56-.48,41.746,41.746,0,0,1,8.96-.82,38.35,38.35,0,0,1,3.86.52c.38,0,.6-.18.6-.52,0-.72-1.58-1.38-2.4-1.38a9.439,9.439,0,0,1-1.36.22c-1.3.06-2.84.16-4.38.3.08-1.42.22-3.32.32-4.18.06-.58.3-.92.3-1.26,0-.38-.52-.72-1.14-1,1.78-.2,4.32-.48,5.08-.58.56-.08.74-.3.74-.6,0-.46-1.12-.88-1.86-.88-.54,0-.24.5-3.36.94a43.438,43.438,0,0,1-4.46.48,3.133,3.133,0,0,1-2-1.02Zm23.96-3.08c.7.3,1.22.62,1.22.96,0,1.16-2.94,5.24-6.06,7.48l.3.42a18.484,18.484,0,0,0,5.92-5.2,1.643,1.643,0,0,0,.86.48,6.643,6.643,0,0,0,1.12-.26c.72-.14,2.76-.46,3.2-.46.18,0,.26.06.16.3C52.92-7.36,48.22-2.2,43.08.48l.3.44A25.1,25.1,0,0,0,55.82-10.52c.28-.52.94-.64.94-1.04,0-.52-1.26-1.34-1.74-1.34-.34,0-.48.34-1.02.46a38.553,38.553,0,0,1-3.98.38,2.55,2.55,0,0,1-.38-.02c.24-.34.46-.72.68-1.08.3-.5.58-.7.58-1.04,0-.36-1.06-.96-1.84-1.14a6.467,6.467,0,0,0-1.2-.08Zm28.32,3.76c.28-.66.86-.76.86-1.18,0-.54-1.14-1.6-2-1.74a5.758,5.758,0,0,0-1.3-.04l-.16.44c1.44.48,1.52.78,1.36,1.4C73.92-8.72,70.02-3,64.38.16L64.7.6A22,22,0,0,0,76.08-11.28Zm-10.42.8c.88,1.3,1.16,2.3,1.78,2.28.42,0,.7-.38.7-.88-.04-1.46-2.28-3.28-4.32-4.24l-.3.4A13.969,13.969,0,0,1,65.66-10.48Zm30.42-.8c.28-.66.86-.76.86-1.18,0-.54-1.14-1.6-2-1.74a5.758,5.758,0,0,0-1.3-.04l-.16.44c1.44.48,1.52.78,1.36,1.4C93.92-8.72,90.02-3,84.38.16L84.7.6A22,22,0,0,0,96.08-11.28Zm-10.42.8c.88,1.3,1.16,2.3,1.78,2.28.42,0,.7-.38.7-.88-.04-1.46-2.28-3.28-4.32-4.24l-.3.4A13.969,13.969,0,0,1,85.66-10.48Zm16.36,2.14a3.549,3.549,0,0,0,.18,1.12c.28.68,1.22,1.66,1.78,1.66.58,0,.8-.3,1.94-.42,1.5-.18,7.12-.48,8.38-.48,1.22,0,1.92.04,2.62.04.68,0,.88-.22.88-.58,0-.54-.9-.88-1.66-.88-.52,0-1.08.12-2.42.22-.92.04-7.92.5-9.7.5-.84,0-1.16-.62-1.6-1.3Zm29.92,1.02a13.335,13.335,0,0,1,2.72,3.46c-2.2.4-6.12.88-8.62,1.14,1.42-2.38,3.56-6.58,4.48-8.48.22-.42.68-.56.68-.9,0-.5-.88-1.32-1.7-1.58a3.99,3.99,0,0,0-1.14-.2l-.14.36c.66.36,1.04.72,1.04,1.16,0,.96-2.86,7.14-4.34,9.74-.48.04-.84.06-1.02.06a1.812,1.812,0,0,1-1.08-.48l-.26.14a2.491,2.491,0,0,0,.06.76c.18.58.98,1.46,1.52,1.46.34,0,.74-.5,1.16-.58,1.8-.4,6.78-1.18,9.72-1.82.76,1.76.72,2.66,1.36,2.66.48,0,.78-.38.78-.94,0-2.14-2.58-4.94-4.86-6.32Zm15.5,5.5v-2.5h5.06v2.5Zm6.32-2.34a1.214,1.214,0,0,0,.74-.34L153-5.64l-.66.72h-4.82l-1.34-.58V-.06h.2a1.514,1.514,0,0,0,1.06-.4v-.78h5.06v.86h.2c.42,0,1.04-.3,1.06-.44Zm2.56-2.92H143.64l-1.42-.64V1.52h.22c.52,0,1.06-.3,1.06-.44V-6.48h13.02V-.4c0,.3-.1.42-.46.42-.42,0-2.34-.14-2.34-.14v.3a3.7,3.7,0,0,1,1.64.48,1.281,1.281,0,0,1,.42.9c1.8-.18,2.04-.82,2.04-1.82V-6.24a1.568,1.568,0,0,0,.86-.38l-1.7-1.26Zm-9.88-2.36v-2.34h7.1v2.34Zm7.3,1.46a1.854,1.854,0,0,0,1.1-.4v-3.16a1.723,1.723,0,0,0,.86-.4l-1.62-1.22-.74.78h-6.8l-1.38-.6v5.12h.2c.52,0,1.08-.3,1.08-.42v-.58h7.1v.88Zm2.34-6.52H150.6v-1.48c.48-.06.68-.26.72-.54l-2.04-.22v2.24h-8.14l.16.58h17.18c.28,0,.48-.1.54-.3-.74-.68-1.9-1.54-1.9-1.54ZM165.44-.38V-4.36h9.2V-.38Zm9-4.56h-1.6c.66-1.16,1.44-2.6,1.88-3.42a1.461,1.461,0,0,0,.96-.3l-1.5-1.3-.72.76h-9.88l.18.58h9.62c-.5,1.06-1.22,2.5-1.9,3.68h-5.92l-1.44-.66V1.58h.18c.56,0,1.14-.32,1.14-.46V.2h9.2V1.44h.2a1.8,1.8,0,0,0,1.12-.42V-4.1a1.8,1.8,0,0,0,.88-.4l-1.66-1.28Zm-3.12-6.76h-4.7l.16.6h6.44c.28,0,.46-.1.52-.32-.62-.56-1.58-1.26-1.58-1.26ZM169.28-17c-1.12,2.62-5.26,6.38-8.6,8.12l.16.3a26.161,26.161,0,0,0,9.6-7.26c1.52,2.62,4.62,5.06,7.82,6.56a1.536,1.536,0,0,1,1.2-1.04l.04-.3c-3.46-1.26-6.84-3.22-8.68-5.46.48-.04.72-.14.8-.36Zm25.36,7.42v2.52h-7.78V-9.58Zm-7.78,5.66V-6.46h7.78v2.54Zm9.5-9.72h-7.58a23.242,23.242,0,0,0,.98-2.2c.54.04.72-.08.8-.32l-2.08-.68a22.5,22.5,0,0,1-1.2,3.2h-6.3l.18.58H187a20.675,20.675,0,0,1-6.16,7.52l.2.24a17.806,17.806,0,0,0,4.54-3.66V1.54h.22c.62,0,1.06-.34,1.06-.46v-4.4h7.78V-.54c0,.3-.08.44-.46.44-.42,0-2.52-.16-2.52-.16V.06a3.954,3.954,0,0,1,1.74.52,1.415,1.415,0,0,1,.46.96c1.9-.18,2.1-.84,2.1-1.9V-9.28a1.791,1.791,0,0,0,.96-.44l-1.78-1.32-.72.86H187.1l-.38-.16a20.269,20.269,0,0,0,1.76-2.72h10.14c.28,0,.44-.1.5-.32-.68-.64-1.78-1.48-1.78-1.48ZM204.2,1.72l5.34-9.32-5.34-9.32-.58.36,5.12,8.96-5.12,8.96Zm-2.86,0L206.7-7.6l-5.36-9.32-.58.36L205.9-7.6l-5.14,8.96Z" transform="translate(77 14106.768)" fill="#3c505a"/>
    <path id="Path_183" data-name="Path 183" d="M6-7.08a.907.907,0,0,0,.9-.9.907.907,0,0,0-.9-.9.907.907,0,0,0-.9.9A.907.907,0,0,0,6-7.08ZM6-4.908,2.04-8.868l-.348.348,3.96,3.96L1.68-.588l.348.348L6-4.212,9.96-.252,10.308-.6,6.348-4.56l3.96-3.96L9.96-8.868ZM3.48-4.56a.907.907,0,0,0-.9-.9.907.907,0,0,0-.9.9.907.907,0,0,0,.9.9A.907.907,0,0,0,3.48-4.56Zm5.04,0a.907.907,0,0,0,.9.9.907.907,0,0,0,.9-.9.907.907,0,0,0-.9-.9A.907.907,0,0,0,8.52-4.56ZM6-2.04a.907.907,0,0,0-.9.9.907.907,0,0,0,.9.9.907.907,0,0,0,.9-.9A.907.907,0,0,0,6-2.04ZM13.056,0H17.88V-.912H16.116v-7.9h-.84a5.3,5.3,0,0,1-1.824.636v.7h1.56V-.912H13.056Zm7.272.156a.793.793,0,0,0,.792-.828.806.806,0,0,0-.792-.852.806.806,0,0,0-.792.852A.793.793,0,0,0,20.328.156Zm8.184-9.384H27.4a5.844,5.844,0,0,1,.072.972v6.6c0,.972.516,1.392,1.428,1.56a12.779,12.779,0,0,0,1.932.12A33.551,33.551,0,0,0,34.98-.228V-1.32a19.72,19.72,0,0,1-4.1.384,11.594,11.594,0,0,1-1.6-.1c-.576-.12-.84-.276-.84-.888V-4.56a48.519,48.519,0,0,0,5.04-1.608c.36-.132.792-.324,1.14-.468l-.42-.972a8.069,8.069,0,0,1-1.056.552,33.725,33.725,0,0,1-4.7,1.512V-8.256A7.843,7.843,0,0,1,28.512-9.228ZM40.728-1.056A10.573,10.573,0,0,1,40.644.36h1.164c-.048-.4-.072-1.044-.072-1.416,0-.348,0-2.16-.012-3.96A31.46,31.46,0,0,1,46.44-3.084l.408-1.02a38.354,38.354,0,0,0-5.124-1.98V-8.04c0-.36.048-.876.084-1.248H40.632a7.574,7.574,0,0,1,.1,1.248ZM54.972-8.508c.084.276.2.636.348,1.08a25.074,25.074,0,0,1-4.74-.144l.024.96a30.831,30.831,0,0,0,5.04.024A16.029,16.029,0,0,0,57.1-3.852c-.432-.048-1.32-.12-1.992-.18l-.072.8a27.123,27.123,0,0,1,2.892.324l.492-.672c-.18-.2-.36-.408-.528-.636a12.768,12.768,0,0,1-1.344-2.472,17.841,17.841,0,0,0,2.484-.492l-.108-.936a15.413,15.413,0,0,1-2.676.588,14.338,14.338,0,0,1-.552-2.052l-1.02.132C54.78-9.132,54.888-8.76,54.972-8.508ZM52.428-3.744l-.936-.216a4.678,4.678,0,0,0-.576,1.992c0,1.632,1.44,2.46,3.72,2.472a17.428,17.428,0,0,0,3.1-.264l.048-.96a13.376,13.376,0,0,1-3.1.3c-1.776-.012-2.82-.516-2.82-1.656A3.087,3.087,0,0,1,52.428-3.744ZM63.36-8.376,62.2-8.4a5.413,5.413,0,0,1,.084,1.068c0,.7.024,2.16.132,3.2C62.736-1.02,63.828.108,64.968.108c.8,0,1.536-.7,2.256-2.736l-.756-.852c-.312,1.2-.876,2.448-1.488,2.448-.852,0-1.44-1.332-1.632-3.336-.084-1-.1-2.088-.084-2.844A9.137,9.137,0,0,1,63.36-8.376Zm6.252.336-.936.324A12.158,12.158,0,0,1,70.764-1.68l.96-.4A12.9,12.9,0,0,0,69.612-8.04Zm4.056,5.016H74.5v-1.62h3.72v1.26h-3.2V.024h.864V-2.652h2.34V.912h.864V-2.652h2.58v1.74c0,.132-.048.168-.216.18s-.72.024-1.356,0a3.246,3.246,0,0,1,.276.768,5.555,5.555,0,0,0,1.728-.144c.348-.132.432-.348.432-.8V-3.384H79.08v-1.26h3.78v1.62h.852V-5.376H73.668ZM81.24-6.852H79.08V-8.028h2.16Zm-5.1-1.176h2.088v1.176H76.14ZM82.1-8.772v-1.2H81.24v1.2H79.08v-1.26h-.852v1.26H76.14v-1.2H75.3v1.2H73.344v.744H75.3V-6.12h6.8V-8.028h1.944v-.744Zm5.184,1.92H89V-.6H87.288ZM91.572-.6H89.82V-6.852h1.752Zm2.592-6.252V-.6H92.412V-6.852Zm.9,6.252V-7.7H90.1c.324-.636.66-1.4.948-2.088l-1.032-.252a16.769,16.769,0,0,1-.864,2.34H86.412V-.6h-1.2V.264H96.168V-.6Zm3.48-4.068H101.2v.936H98.544Zm0-1.6H101.2v.912H98.544Zm1.74,3.24h1.728V-6.972h-1.728V-7.98h2.088v-.792h-2.088v-1.272H99.42v1.272H97.356v.792H99.42v1.008H97.74v3.948h1.68v1.008h-2.2V-1.2h2.2V.912h.864V-1.2h2.2v-.816h-2.2Zm5.34-2.256h1.74v-.828H103.1a11.139,11.139,0,0,0,2.088-3,12.767,12.767,0,0,0,2.652,3.384,6.389,6.389,0,0,1,.5-.792,11.336,11.336,0,0,1-2.772-3.468h-.84A9.942,9.942,0,0,1,102.048-6.3a2.925,2.925,0,0,1,.468.732,6.264,6.264,0,0,0,.516-.468v.756h1.7V-3.6h-2.28v.828h2.28V.888h.888v-3.66h2.4V-3.6h-2.4Zm4.212,2.04A9.282,9.282,0,0,1,109.092-.4a3.117,3.117,0,0,1,.7.336,11,11,0,0,0,.816-3.048Zm2.592.18a11.785,11.785,0,0,1,.78,2.328l.72-.24a11.974,11.974,0,0,0-.816-2.316Zm-.216-2.892a10.042,10.042,0,0,1,.54.936l-1.86.12a31.969,31.969,0,0,0,2.412-3.42l-.744-.36a25.6,25.6,0,0,1-1.344,2.232,8.471,8.471,0,0,0-.732-.84,25.807,25.807,0,0,0,1.4-2.448l-.8-.312a15.14,15.14,0,0,1-1.1,2.268c-.12-.108-.228-.216-.348-.312l-.456.588a9.452,9.452,0,0,1,1.572,1.728c-.24.336-.48.66-.72.936-.336.024-.648.048-.936.06l.132.816,1.98-.18V.9h.8V-4.212l1.08-.108a7.942,7.942,0,0,1,.336.888l.72-.348a10.414,10.414,0,0,0-1.26-2.46Zm5.112,5.244V-4.14h1.644V-.708ZM114.972-4.14h1.56V-.708h-1.56Zm1.56-4.116v3.3h-1.56v-3.3Zm2.436,3.3h-1.644v-3.3h1.644Zm-4.8-4.128V.768h.8V.12h4V.672h.828V-9.084Zm8.556,5.148c.024-.492.024-.96.024-1.38v-.672h1.536v2.052Zm1.56-4.848V-6.8h-1.536v-1.98ZM127.92.024c-.768,0-.924-.084-.924-.5V-3.2h2.6V-6.54h-3.18a10.271,10.271,0,0,0,.636-1.2h3.876c-.084,3.348-.168,4.536-.384,4.824a.357.357,0,0,1-.36.168c-.2,0-.672-.012-1.176-.048a2.225,2.225,0,0,1,.252.816,8.9,8.9,0,0,0,1.3-.012.9.9,0,0,0,.744-.4c.312-.408.384-1.752.468-5.736.012-.132.012-.432.012-.432H127.4a12.414,12.414,0,0,0,.432-1.284l-.9-.2A9.711,9.711,0,0,1,125.1-6.312V-9.6h-3.144v4.3A14.73,14.73,0,0,1,121.1.528a2.427,2.427,0,0,1,.708.408,12.02,12.02,0,0,0,.864-4.056h1.608V-.144c0,.156-.06.2-.216.216-.132.012-.612.012-1.14,0A3.121,3.121,0,0,1,123.18.9,4.116,4.116,0,0,0,124.7.744c.3-.156.4-.42.4-.888V-6.18c.216.156.528.408.672.54a8.054,8.054,0,0,0,.516-.7v.564h2.484v1.8h-2.628v3.5c0,1.032.4,1.272,1.728,1.272h2.736c1.2,0,1.476-.432,1.6-2.148a2.717,2.717,0,0,1-.792-.336c-.072,1.464-.18,1.7-.864,1.7ZM142.848-5.7h-3.3V-6.864h3.3Zm0,1.812h-3.3V-5.064h3.3Zm0,1.848h-3.3V-3.228h3.3Zm-4.116-5.52v6.216h4.956V-7.56h-2.316c.108-.348.24-.744.348-1.128h2.292v-.78h-5.664v.78h2.412a9.394,9.394,0,0,1-.228,1.128Zm-4.92,2.76a12.445,12.445,0,0,1-.756,5.16,4.121,4.121,0,0,1,.6.516,12.575,12.575,0,0,0,.9-5.676V-9.612h-.744Zm1.632,4.008h.66V-8.76h-.66Zm1.62,1.3h.732V-9.648h-.732Zm2.94-1.6a6.992,6.992,0,0,1-2.172,1.44,4.178,4.178,0,0,1,.552.588,8.965,8.965,0,0,0,2.364-1.584Zm1.668.468A12.227,12.227,0,0,1,143.64.924l.684-.492a12.668,12.668,0,0,0-1.992-1.5Zm6.792-9.228a13.271,13.271,0,0,1-3.48,4.836,5.954,5.954,0,0,1,.54.9,14.317,14.317,0,0,0,1.56-1.692v6.7h.9V-7.068a16.116,16.116,0,0,0,1.332-2.5ZM152.208-.1c-.66,0-.792-.144-.792-.816v-3.48a28.238,28.238,0,0,0,4.224-2.616L155-7.776a21,21,0,0,1-3.588,2.484V-9.756h-.9V-.924c0,1.308.384,1.668,1.632,1.668h2.46c1.236,0,1.5-.684,1.644-2.628a2.864,2.864,0,0,1-.852-.384c-.084,1.74-.192,2.172-.852,2.172Zm15.756-8.52h-3.012v-1.4h-.876v1.4h-2.988v.8h6.876Zm-4.4,2.8a6.777,6.777,0,0,0-.6-1.92l-.8.192a6.929,6.929,0,0,1,.564,1.932Zm-3.924-.492h1.332v-.852h-1.332V-9.948h-.84v2.784h-1.44v.852h1.44v3.84c-.624.24-1.2.444-1.668.6l.3.9c1.092-.444,2.532-1.02,3.864-1.584l-.168-.816c-.492.192-1,.4-1.488.576Zm6.876,3.468V-.516H162.6V-2.844ZM161.772.9h.828V.288h3.912V.864h.876V-3.66h-5.616Zm4.38-8.688a14.627,14.627,0,0,1-.684,1.968l.756.216c.264-.5.552-1.26.84-1.932ZM168.18-5.6h-7.512v.816h7.512Zm4.332,4.224h1.74a4.664,4.664,0,0,0,1.152,1c-.984.084-1.98.168-2.892.24ZM176.2-5.388a6.347,6.347,0,0,0,.852.96H175.08v-.66h-.84v.66h-1.872a7.388,7.388,0,0,0,.888-.96Zm-3.684,1.56h4.344v.648h-4.344Zm0,1.848v-.672h4.344v.672Zm5.232.6V-3.864a7.292,7.292,0,0,0,1.908,1.008,2.872,2.872,0,0,1,.564-.7,7.071,7.071,0,0,1-3.084-1.836h2.82v-.7h-4.836v-.684h3.5V-7.44h-3.5v-.672h4.152V-8.82h-2.28c.24-.288.492-.648.744-1l-.948-.24a12.146,12.146,0,0,1-.72,1.236h-2.808l.06-.024a4.444,4.444,0,0,0-.852-1.224l-.768.276a5.855,5.855,0,0,1,.672.972h-2.292v.708h4.14v.672h-3.48v.672h3.48v.684H169.4v.7h2.808a8.654,8.654,0,0,1-3.108,2.04,3.446,3.446,0,0,1,.624.636,10.519,10.519,0,0,0,1.9-1.1V-.084l-1.368.108.1.78c1.392-.12,3.36-.3,5.232-.492V-.276a10.194,10.194,0,0,0,3.936,1.2,2.864,2.864,0,0,1,.492-.744,14.324,14.324,0,0,1-2.652-.468,12.647,12.647,0,0,0,1.8-.912l-.66-.4a18.545,18.545,0,0,1-1.92,1.032,5.271,5.271,0,0,1-1.4-.816ZM192.12-8.724h-3.588v-1.32h-.9v1.32H184.26v.84h7.86Zm-7.956.036a7.839,7.839,0,0,0-1.908-1.248l-.516.636a8.31,8.31,0,0,1,1.9,1.308Zm-.528,3.048a7.873,7.873,0,0,0-1.956-1.08l-.48.648a8.2,8.2,0,0,1,1.92,1.152ZM182.268.828c.5-1.092,1.08-2.556,1.5-3.8l-.708-.492a35.8,35.8,0,0,1-1.6,3.8Zm3.564-8.544a11.223,11.223,0,0,1-2.3,4.032,3.748,3.748,0,0,1,.588.564,9.863,9.863,0,0,0,.948-1.212V.9h.792V-5.664a15.731,15.731,0,0,0,.816-1.812Zm2.532,2.928a5.41,5.41,0,0,1,1.1,1.332l.492-.432a5.338,5.338,0,0,0-1.128-1.26Zm2.424-.744A9.1,9.1,0,0,1,189.24-2.22a9.344,9.344,0,0,1-1.4-2.568c.144-.24.288-.492.408-.744Zm.408-.756-.132.024H188.6c.18-.408.348-.828.48-1.224l-.828-.216a10.494,10.494,0,0,1-2.3,4.128,6.125,6.125,0,0,1,.564.552,7.922,7.922,0,0,0,.84-1.02,10.919,10.919,0,0,0,1.368,2.436A7.5,7.5,0,0,1,186.1.24a3.348,3.348,0,0,1,.516.672,8.4,8.4,0,0,0,2.64-1.884A7.727,7.727,0,0,0,191.76.888a3.63,3.63,0,0,1,.576-.7,7.332,7.332,0,0,1-2.556-1.776A10.272,10.272,0,0,0,191.736-6.1Zm9.828,1.728a7.973,7.973,0,0,0,2.388,5.712l.72-.372A7.509,7.509,0,0,1,201.9-4.56a7.509,7.509,0,0,1,2.232-5.34l-.72-.372A7.973,7.973,0,0,0,201.024-4.56Zm5.46-2.856h1.272v1.008h-1.272Zm3.372,0v1.008h-1.3V-7.416Zm4.572-.564a5.073,5.073,0,0,1-.96,1.8,6.344,6.344,0,0,1-1.1-1.764l.024-.036Zm-6.672,4.224h.8V-5.208c.576.324,1.356.78,1.7,1.02l.432-.588c-.336-.192-1.584-.816-2.064-1.044h1.98V-6.96a4.19,4.19,0,0,1,.564.576,5.848,5.848,0,0,0,.744-.864,7.018,7.018,0,0,0,1.02,1.6A6.441,6.441,0,0,1,210.5-4.38a2.9,2.9,0,0,1,.528.66,7.888,7.888,0,0,0,2.448-1.356,6.612,6.612,0,0,0,2.268,1.4,3.828,3.828,0,0,1,.516-.708,6.219,6.219,0,0,1-2.244-1.236,5.9,5.9,0,0,0,1.272-2.364h.768V-8.7h-3.3a9.463,9.463,0,0,0,.432-1.152l-.816-.18a6.336,6.336,0,0,1-1.764,3V-8H208.56v-.612h2.34v-.648h-2.34v-.78h-.8v.78H205.4v.648h2.352V-8h-2V-5.82h1.656a7.5,7.5,0,0,1-2.208,1.5,2.592,2.592,0,0,1,.528.564,8.379,8.379,0,0,0,2.028-1.536ZM211.1-1.08h3.444v-.7H211.1V-2.7h4.224v-.732H206.1V-2.7h4.14V-.1H208.1V-2.16h-.84V-.1H205.3V.648h10.812V-.1h-5Zm7.716-2.88c.012-.48.024-.936.024-1.344v-.672h1.776V-3.96Zm1.8-4.812V-6.8h-1.776V-8.772Zm.84-.828h-3.444v4.3A14,14,0,0,1,217.128.5a2.845,2.845,0,0,1,.744.444,12.093,12.093,0,0,0,.9-4.056h1.848V-.252c0,.168-.06.216-.216.228s-.624.012-1.176-.012a2.8,2.8,0,0,1,.264.852,3.736,3.736,0,0,0,1.56-.18c.3-.144.408-.4.408-.888Zm5.352,9.468a.332.332,0,0,1-.192-.06c-.06-.06-.072-.276-.072-.66V-9.6H222.8v5.04c0,1.632-.1,3.648-1.164,5a3.684,3.684,0,0,1,.744.54c1.128-1.464,1.3-3.8,1.3-5.544V-8.748h1.992V-.924c0,1.008.06,1.212.24,1.392a1.1,1.1,0,0,0,.684.24h.588A1.2,1.2,0,0,0,227.82.54a.973.973,0,0,0,.312-.648,17.242,17.242,0,0,0,.108-1.74,2.012,2.012,0,0,1-.72-.4c0,.756-.012,1.356-.036,1.608s-.06.372-.12.42a.309.309,0,0,1-.24.084Zm9.912-9.312A12.284,12.284,0,0,1,238.848-8l.552-.612a11.446,11.446,0,0,0-2.148-1.368Zm1.7,3.24a11.884,11.884,0,0,1-1.536,3.24,21.644,21.644,0,0,1-.66-4.164h3.816V-8h-3.876c-.036-.648-.048-1.32-.048-2.016H235.2c.012.684.024,1.356.072,2.016h-5v3.348A9.313,9.313,0,0,1,229.176.408a3.549,3.549,0,0,1,.744.6c1.08-1.56,1.26-3.972,1.26-5.652v-.1h2.184c-.048,2.064-.108,2.82-.276,3-.072.108-.192.132-.36.132-.2,0-.72-.012-1.272-.06a1.855,1.855,0,0,1,.252.84,13.846,13.846,0,0,0,1.428,0,.928.928,0,0,0,.72-.348c.252-.312.324-1.32.384-4.008v-.384h-3.06v-1.56h4.14a23.6,23.6,0,0,0,.876,5.052,9.576,9.576,0,0,1-2.76,2.22,5.022,5.022,0,0,1,.648.708,10.728,10.728,0,0,0,2.472-1.992c.552,1.236,1.272,1.968,2.2,1.968s1.236-.588,1.4-2.628a2.109,2.109,0,0,1-.768-.48c-.084,1.6-.228,2.22-.564,2.22-.612,0-1.164-.684-1.608-1.86a13.531,13.531,0,0,0,2.112-4.056ZM244.6-9.792a10.192,10.192,0,0,1-3.588,4.512,5.187,5.187,0,0,1,.756.684,12.364,12.364,0,0,0,3.768-4.932Zm-1.644,4.26v.864H245.4c-.276,2.028-.936,3.924-3.756,4.86a3.539,3.539,0,0,1,.576.78c3.048-1.1,3.816-3.276,4.128-5.64h3.1c-.144,3.024-.312,4.224-.624,4.524-.108.132-.252.156-.5.156-.276,0-1.02-.012-1.8-.084a2.169,2.169,0,0,1,.3.888A17.19,17.19,0,0,0,248.7.84a1.2,1.2,0,0,0,.924-.42c.408-.456.588-1.836.756-5.52.012-.12.024-.432.024-.432ZM247.9-9.48a15.87,15.87,0,0,0,3.72,4.776,4.589,4.589,0,0,1,.732-.792,12.7,12.7,0,0,1-3.612-4.32Zm8.448,4.92a7.973,7.973,0,0,0-2.388-5.712l-.72.372a7.509,7.509,0,0,1,2.232,5.34A7.509,7.509,0,0,1,253.236.78l.72.372A7.973,7.973,0,0,0,256.344-4.56ZM6,12.92a.9.9,0,1,0-.9-.9A.907.907,0,0,0,6,12.92Zm0,2.172-3.96-3.96-.348.348,3.96,3.96L1.68,19.412l.348.348L6,15.788l3.96,3.96.348-.348-3.96-3.96,3.96-3.96-.348-.348Zm-2.52.348a.9.9,0,1,0-.9.9A.907.907,0,0,0,3.48,15.44Zm5.04,0a.9.9,0,1,0,.9-.9A.907.907,0,0,0,8.52,15.44ZM6,17.96a.9.9,0,1,0,.9.9A.907.907,0,0,0,6,17.96ZM12.528,20H18.06v-.948H15.576c-.456,0-.984.048-1.44.084C16.164,17,17.628,15.4,17.628,13.8a2.369,2.369,0,0,0-2.556-2.508,3.364,3.364,0,0,0-2.592,1.3l.636.612a2.5,2.5,0,0,1,1.824-1.02,1.507,1.507,0,0,1,1.62,1.668c0,1.4-1.452,2.94-4.032,5.508Zm7.8.156a.793.793,0,0,0,.792-.828.794.794,0,1,0-1.584,0A.793.793,0,0,0,20.328,20.156Zm5.424,2.232h1.1c-.024-1.092-.036-2.124-.072-3.228a3.018,3.018,0,0,0,2.328,1,2.563,2.563,0,0,0,2.556-2.748,2.371,2.371,0,0,0-2.1-2.52v-.06A2.524,2.524,0,0,0,30.876,12.6a2.257,2.257,0,0,0-2.448-2.3c-1.824,0-2.676,1.332-2.676,3.12Zm3.108-3.144a2.518,2.518,0,0,1-2.076-1.02c0-1.572.012-3.108.036-4.656s.624-2.4,1.62-2.4a1.359,1.359,0,0,1,1.368,1.512A2.114,2.114,0,0,1,27.9,14.756l.168.84a2.517,2.517,0,0,1,.672-.084,1.7,1.7,0,0,1,1.836,1.836A1.729,1.729,0,0,1,28.86,19.244Zm3.948-2.184H35.88v-.84H32.808Zm5.748-4.872v1.08c.372-.012.768-.036,1.188-.036H44.88c.4,0,.852.012,1.188.036v-1.08a11.791,11.791,0,0,1-1.188.048H39.744C39.348,12.236,38.94,12.212,38.556,12.188Zm-1.032,5.94V19.28c.408-.024.828-.06,1.26-.06h7.188c.324,0,.732.024,1.092.06V18.128a10.9,10.9,0,0,1-1.092.06H38.784C38.352,18.188,37.932,18.152,37.524,18.128Zm12.96-6.36v1.068c.276-.012.876-.036,1.32-.036h5.748v5.664H51.66a12.671,12.671,0,0,1-1.332-.072v1.092c.324-.024.864-.048,1.356-.048h5.868c-.012.288-.012.54-.024.672h1.08c-.012-.192-.048-.732-.048-1.164V12.752c0-.288.024-.66.036-.936-.24.012-.6.024-.888.024H51.792A12.11,12.11,0,0,1,50.484,11.768Zm11.928-.108.24.888c.924-.012,2.28-.048,3.492-.168v2.184H62.532c-.36,0-.78-.024-1.056-.048v1c.288-.024.7-.048,1.08-.048H66.12a4.763,4.763,0,0,1-3.036,4.368l.948.66A5.687,5.687,0,0,0,67.1,15.464h3.348c.3,0,.66.024.924.048v-1c-.252.024-.684.048-.948.048H67.116v-2.3c.864-.132,1.788-.312,2.388-.468.168-.048.408-.108.672-.18l-.636-.828a16.273,16.273,0,0,1-3.1.7A28.968,28.968,0,0,1,62.412,11.66ZM75.144,11.2l-.684.732a24.922,24.922,0,0,1,2.988,2.508l.756-.756A26.276,26.276,0,0,0,75.144,11.2Zm-1.032,8.04.636.984a13.153,13.153,0,0,0,4.716-1.86A11.989,11.989,0,0,0,83.5,14.1l-.576-1.02a11.3,11.3,0,0,1-4.008,4.416A12.39,12.39,0,0,1,74.112,19.244Zm21.48-7.356L95,11.324a5.926,5.926,0,0,1-.84.072H87.276a10.183,10.183,0,0,1-1.368-.108V12.38a13.409,13.409,0,0,1,1.368-.072h6.84A8.152,8.152,0,0,1,91.488,15l.792.636a11.57,11.57,0,0,0,2.988-3.312C95.352,12.188,95.508,12.008,95.592,11.888ZM90.8,13.472h-1.08a7.215,7.215,0,0,1,.048.864c0,2-.264,3.708-2.124,4.848a4.133,4.133,0,0,1-1.08.54l.888.72C90.516,18.92,90.8,16.724,90.8,13.472Zm8.82-2.556-.348.888a39.723,39.723,0,0,1,6.264,1.428l.384-.924A41.062,41.062,0,0,0,99.624,10.916Zm-.54,3.168-.36.9a35.12,35.12,0,0,1,6.024,1.464l.384-.924A42.737,42.737,0,0,0,99.084,14.084Zm-.66,3.492-.372.912a39.173,39.173,0,0,1,7.1,1.812l.408-.924A42.237,42.237,0,0,0,98.424,17.576Zm17.628-6.216-.66.3a11.908,11.908,0,0,1,1.068,1.824l.684-.312A18.08,18.08,0,0,0,116.052,11.36Zm1.452-.6-.66.312a11.674,11.674,0,0,1,1.116,1.8l.672-.336A16.206,16.206,0,0,0,117.5,10.76ZM111.84,19.1a13.139,13.139,0,0,1-.072,1.416h1.152c-.036-.384-.072-1.032-.072-1.416V15.152a30.753,30.753,0,0,1,4.7,1.92l.42-1.02a40.763,40.763,0,0,0-5.124-1.98V12.116a11.085,11.085,0,0,1,.084-1.248h-1.188a7.574,7.574,0,0,1,.1,1.248Zm10.512-7.62v.96c.324-.024.672-.036,1.08-.036h1.6v2.544h-2.34c-.312,0-.8-.036-1.128-.06V15.9c.336-.024.828-.048,1.128-.048h2.34V18.56c0,.984.576,1.62,2.388,1.62,1.14,0,2.292-.048,3.228-.12l.06-1.008a26.523,26.523,0,0,1-3.156.168c-1.1,0-1.524-.36-1.524-.96V15.848h4.068a8.881,8.881,0,0,1,.972.036V14.9c-.264.024-.744.048-1,.048h-4.044V12.4h3.12c.42,0,.7.024.984.036v-.96c-.264.024-.6.048-.984.048h-5.712C123.024,11.528,122.676,11.5,122.352,11.48Zm19.452-.108-1.14-.312a12.5,12.5,0,0,1-2.268,5.088,10.424,10.424,0,0,1-4.536,3.18l.84.876a11.92,11.92,0,0,0,4.524-3.42,16.4,16.4,0,0,0,2.2-4.368A10.086,10.086,0,0,1,141.8,11.372ZM154,12.056l-.7-.54a1.868,1.868,0,0,1-.672.12h-4.944c-.456,0-.948-.036-1.284-.06V12.6c.336-.012.852-.036,1.284-.036h4.944A10.39,10.39,0,0,1,150.9,16.2a32.734,32.734,0,0,0-3.276-2.04l-.612.732a28.726,28.726,0,0,1,3.24,2.052,10.4,10.4,0,0,1-4.5,2.772l.84.84a11.7,11.7,0,0,0,4.476-3,28.924,28.924,0,0,1,2.3,1.932l.708-.816c-.624-.564-1.464-1.224-2.376-1.9A13.685,13.685,0,0,0,153.7,12.7,2.731,2.731,0,0,1,154,12.056Zm8.628-1.38-1.116-.36a4.109,4.109,0,0,1-.372.948,9.892,9.892,0,0,1-3.768,4.056l.828.624a12.165,12.165,0,0,0,3.048-2.952H165.3a9.865,9.865,0,0,1-1.92,3.744,9.708,9.708,0,0,1-4.788,3.012l.864.78a10.521,10.521,0,0,0,4.776-3.264,11.639,11.639,0,0,0,2.136-4.128,3.77,3.77,0,0,1,.276-.636l-.8-.492a2.008,2.008,0,0,1-.78.12h-3.252a5.4,5.4,0,0,0,.288-.5A9.075,9.075,0,0,1,162.624,10.676Zm8.22,8.94.7.6a1.854,1.854,0,0,1,.5-.216,13.881,13.881,0,0,0,7.02-4.284l-.54-.84a12.949,12.949,0,0,1-6.564,4.092v-6.8a7.76,7.76,0,0,1,.084-1.092h-1.188a7.312,7.312,0,0,1,.108,1.092v6.864A1.322,1.322,0,0,1,170.844,19.616ZM188.1,10.6h-1.116a9.954,9.954,0,0,1,.108,1.008c.012.276.024.684.036,1.164H182.76a10.889,10.889,0,0,1-1.1-.072v1.02c.372-.024.72-.036,1.128-.036h3.948a15.1,15.1,0,0,1-5.52,4.62l.7.78a16.673,16.673,0,0,0,5.244-4.5c.024,1.608.036,3.4.036,4.356,0,.324-.1.48-.444.48a11.353,11.353,0,0,1-1.692-.144l.084.984c.588.048,1.3.072,1.92.072.72,0,1.092-.336,1.092-.96-.012-1.5-.048-3.888-.084-5.688h1.908c.288,0,.708.012.984.024V12.7c-.24.024-.708.072-1.02.072h-1.884c-.012-.48-.024-.888-.024-1.164A7.121,7.121,0,0,1,188.1,10.6Zm6.072,1.056.24.888c.924-.012,2.28-.048,3.492-.168v2.184h-3.612c-.36,0-.78-.024-1.056-.048v1c.288-.024.7-.048,1.08-.048h3.564a4.763,4.763,0,0,1-3.036,4.368l.948.66a5.687,5.687,0,0,0,3.072-5.028h3.348c.3,0,.66.024.924.048v-1c-.252.024-.684.048-.948.048h-3.312v-2.3c.864-.132,1.788-.312,2.388-.468.168-.048.408-.108.672-.18l-.636-.828a16.273,16.273,0,0,1-3.1.7A28.968,28.968,0,0,1,194.172,11.66Zm17.88-.3-.66.3a11.909,11.909,0,0,1,1.068,1.824l.684-.312A18.082,18.082,0,0,0,212.052,11.36Zm1.452-.6-.66.312a11.674,11.674,0,0,1,1.116,1.8l.672-.336A16.206,16.206,0,0,0,213.5,10.76ZM207.84,19.1a13.139,13.139,0,0,1-.072,1.416h1.152c-.036-.384-.072-1.032-.072-1.416V15.152a30.752,30.752,0,0,1,4.7,1.92l.42-1.02a40.763,40.763,0,0,0-5.124-1.98V12.116a11.083,11.083,0,0,1,.084-1.248h-1.188a7.573,7.573,0,0,1,.1,1.248Zm16.68-3.66a7.973,7.973,0,0,0,2.388,5.712l.72-.372a7.5,7.5,0,0,1,0-10.68l-.72-.372A7.973,7.973,0,0,0,224.52,15.44Zm5.46-2.856h1.272v1.008H229.98Zm3.372,0v1.008h-1.3V12.584Zm4.572-.564a5.073,5.073,0,0,1-.96,1.8,6.343,6.343,0,0,1-1.1-1.764l.024-.036Zm-6.672,4.224h.8V14.792c.576.324,1.356.78,1.7,1.02l.432-.588c-.336-.192-1.584-.816-2.064-1.044h1.98V13.04a4.19,4.19,0,0,1,.564.576,5.848,5.848,0,0,0,.744-.864,7.018,7.018,0,0,0,1.02,1.6A6.441,6.441,0,0,1,234,15.62a2.9,2.9,0,0,1,.528.66,7.888,7.888,0,0,0,2.448-1.356,6.612,6.612,0,0,0,2.268,1.4,3.828,3.828,0,0,1,.516-.708,6.219,6.219,0,0,1-2.244-1.236,5.9,5.9,0,0,0,1.272-2.364h.768V11.3h-3.3a9.463,9.463,0,0,0,.432-1.152l-.816-.18a6.336,6.336,0,0,1-1.764,3V12h-2.052v-.612h2.34v-.648h-2.34v-.78h-.8v.78H228.9v.648h2.352V12h-2V14.18H230.9a7.5,7.5,0,0,1-2.208,1.5,2.592,2.592,0,0,1,.528.564,8.379,8.379,0,0,0,2.028-1.536ZM234.6,18.92h3.444v-.7H234.6V17.3h4.224v-.732H229.6V17.3h4.14v2.6H231.6V17.84h-.84V19.9h-1.968v.744H239.6V19.9h-5Zm7.716-2.88c.012-.48.024-.936.024-1.344v-.672h1.776V16.04Zm1.8-4.812V13.2H242.34V11.228Zm.84-.828h-3.444v4.3a14,14,0,0,1-.888,5.808,2.845,2.845,0,0,1,.744.444,12.093,12.093,0,0,0,.9-4.056h1.848v2.856c0,.168-.06.216-.216.228s-.624.012-1.176-.012a2.8,2.8,0,0,1,.264.852,3.736,3.736,0,0,0,1.56-.18c.3-.144.408-.4.408-.888Zm5.352,9.468a.332.332,0,0,1-.192-.06c-.06-.06-.072-.276-.072-.66V10.4H246.3v5.04c0,1.632-.1,3.648-1.164,5a3.684,3.684,0,0,1,.744.54c1.128-1.464,1.3-3.8,1.3-5.544V11.252h1.992v7.824c0,1.008.06,1.212.24,1.392a1.1,1.1,0,0,0,.684.24h.588a1.2,1.2,0,0,0,.636-.168.973.973,0,0,0,.312-.648,17.242,17.242,0,0,0,.108-1.74,2.012,2.012,0,0,1-.72-.4c0,.756-.012,1.356-.036,1.608s-.06.372-.12.42a.309.309,0,0,1-.24.084Zm9.912-9.312A12.284,12.284,0,0,1,262.344,12l.552-.612a11.446,11.446,0,0,0-2.148-1.368Zm1.7,3.24a11.883,11.883,0,0,1-1.536,3.24,21.646,21.646,0,0,1-.66-4.164h3.816V12h-3.876c-.036-.648-.048-1.32-.048-2.016H258.7c.012.684.024,1.356.072,2.016h-5v3.348a9.313,9.313,0,0,1-1.092,5.064,3.55,3.55,0,0,1,.744.6c1.08-1.56,1.26-3.972,1.26-5.652v-.1h2.184c-.048,2.064-.108,2.82-.276,3-.072.108-.192.132-.36.132-.2,0-.72-.012-1.272-.06a1.855,1.855,0,0,1,.252.84,13.848,13.848,0,0,0,1.428,0,.928.928,0,0,0,.72-.348c.252-.312.324-1.32.384-4.008v-.384h-3.06v-1.56h4.14a23.6,23.6,0,0,0,.876,5.052,9.576,9.576,0,0,1-2.76,2.22,5.024,5.024,0,0,1,.648.708,10.729,10.729,0,0,0,2.472-1.992c.552,1.236,1.272,1.968,2.2,1.968s1.236-.588,1.4-2.628a2.109,2.109,0,0,1-.768-.48c-.084,1.6-.228,2.22-.564,2.22-.612,0-1.164-.684-1.608-1.86a13.531,13.531,0,0,0,2.112-4.056Zm6.168-3.588A10.192,10.192,0,0,1,264.5,14.72a5.185,5.185,0,0,1,.756.684,12.363,12.363,0,0,0,3.768-4.932Zm-1.644,4.26v.864H268.9c-.276,2.028-.936,3.924-3.756,4.86a3.539,3.539,0,0,1,.576.78c3.048-1.1,3.816-3.276,4.128-5.64h3.1c-.144,3.024-.312,4.224-.624,4.524-.108.132-.252.156-.5.156-.276,0-1.02-.012-1.8-.084a2.169,2.169,0,0,1,.3.888,17.191,17.191,0,0,0,1.884.024,1.2,1.2,0,0,0,.924-.42c.408-.456.588-1.836.756-5.52.012-.12.024-.432.024-.432Zm4.944-3.948a15.87,15.87,0,0,0,3.72,4.776,4.589,4.589,0,0,1,.732-.792,12.7,12.7,0,0,1-3.612-4.32Zm8.448,4.92a7.973,7.973,0,0,0-2.388-5.712l-.72.372a7.5,7.5,0,0,1,0,10.68l.72.372A7.973,7.973,0,0,0,279.84,15.44Z" transform="translate(32.827 14504.5)" fill="#3c505a" stroke="rgba(0,0,0,0)" stroke-width="1"/>
  </g>
</svg>
