<svg xmlns="http://www.w3.org/2000/svg" width="290" height="64" viewBox="0 0 290 64">
  <g id="Group_107" data-name="Group 107" transform="translate(-5346 15473)">
    <g id="Rectangle_103" data-name="Rectangle 103" transform="translate(5346 -15473)" fill="none" stroke="#3c505a" stroke-width="1">
      <rect width="290" height="64" rx="32" stroke="none"/>
      <rect x="0.5" y="0.5" width="289" height="63" rx="31.5" fill="none"/>
    </g>
    <path id="Path_169" data-name="Path 169" d="M-66.1-.8-64.2.84A5.162,5.162,0,0,1-63.02.3c4.72-1.54,8.86-3.92,11.6-7.2l-1.42-2.26A22.917,22.917,0,0,1-63.12-2.54v-10.4a14.629,14.629,0,0,1,.2-2.28h-3.14a12.779,12.779,0,0,1,.22,2.28V-2.1A2.612,2.612,0,0,1-66.1-.8Zm30.86-15.4-1.58.64a23.936,23.936,0,0,1,1.56,2.78l1.62-.68C-34.02-14.2-34.74-15.46-35.24-16.2Zm2.36-.9-1.58.64a21.2,21.2,0,0,1,1.62,2.76l1.58-.68A22.078,22.078,0,0,0-32.88-17.1Zm-10.98,1.76h-2.96a16.548,16.548,0,0,1,.16,2.08v10.9c0,1.72,1,2.68,2.74,3a22.262,22.262,0,0,0,3.36.22A56.833,56.833,0,0,0-33.44.44V-2.48a33.882,33.882,0,0,1-6.96.7,18.7,18.7,0,0,1-2.32-.12c-.9-.18-1.3-.4-1.3-1.26v-3.7A69.033,69.033,0,0,0-36.18-9.3c.66-.24,1.56-.62,2.34-.94l-1.08-2.54A12.934,12.934,0,0,1-37.1-11.7a50.439,50.439,0,0,1-6.92,2.22v-3.78A15.025,15.025,0,0,1-43.86-15.34Zm29.04,5.8-1.94-.94a4.527,4.527,0,0,1-1.48.22h-5.12c-.54,0-1.46-.06-1.98-.12v2.64c.58-.04,1.36-.1,2-.1h5.4c-.06,1.12-.5,3.96-.78,5.66H-25.2a19.213,19.213,0,0,1-1.98-.1V.32c.76-.04,1.26-.06,1.98-.06h10.52c.54,0,1.52.04,1.92.06V-2.26c-.52.06-1.44.08-1.96.08H-16c.3-1.9.82-5.34.98-6.52A5.575,5.575,0,0,1-14.82-9.54Zm6.66.28v3.14c.74-.06,2.08-.1,3.22-.1H5.8c.84,0,1.86.08,2.34.1V-9.26c-.52.04-1.4.12-2.34.12H-4.94C-5.98-9.14-7.44-9.2-8.16-9.26Zm27.88-6.78-2.64-.22a11.119,11.119,0,0,1-.4,2.3h-.96a26.023,26.023,0,0,1-3.52-.24v2.34c1.1.08,2.56.12,3.38.12h.26a19.628,19.628,0,0,1-4.42,5.52l2.14,1.6a23.027,23.027,0,0,1,1.86-2.2A4.872,4.872,0,0,1,18.54-8.2a1.539,1.539,0,0,1,1.4.68c-2.28,1.18-4.68,2.78-4.68,5.34,0,2.58,2.32,3.34,5.46,3.34A50.031,50.031,0,0,0,26.38.82l.08-2.58a32.718,32.718,0,0,1-5.68.56c-1.96,0-2.9-.3-2.9-1.4,0-1,.8-1.78,2.3-2.64-.02.88-.04,1.84-.1,2.44h2.4c-.02-.92-.06-2.4-.08-3.52,1.22-.56,2.36-1,3.26-1.36.68-.26,1.74-.66,2.38-.84l-1-2.32c-.74.38-1.44.7-2.22,1.04-.82.36-1.66.7-2.7,1.18a2.708,2.708,0,0,0-2.66-1.54,6.777,6.777,0,0,0-2.26.4,13.964,13.964,0,0,0,1.14-2.04,59.578,59.578,0,0,0,6.52-.5l.02-2.32a50.633,50.633,0,0,1-5.66.58A19.135,19.135,0,0,0,19.72-16.04ZM35.82-7.9h8.36v1.24H35.82Zm0-3.18h8.36v1.24H35.82Zm0-3.16h8.36V-13H35.82ZM44.22-.68c-.76,0-.88-.08-.88-.72V-4.58H46.6V-16.32H33.52V-4.58h2.44c-.34,2.18-1.2,3.52-5.3,4.28a7.537,7.537,0,0,1,1.32,2.12C36.92.7,38.1-1.4,38.52-4.58h2.42v3.2c0,2.24.56,2.96,2.94,2.96h2.64c1.98,0,2.6-.82,2.86-3.98a7.575,7.575,0,0,1-2.18-.94c-.1,2.32-.22,2.66-.9,2.66ZM57.8-2.36c0-.5.48-.96,1.24-.96,1.08,0,1.82.84,1.94,2.14a10.441,10.441,0,0,1-1.16.06C58.62-1.12,57.8-1.62,57.8-2.36ZM54.4-15.24l.08,2.6c.46-.06,1.1-.12,1.64-.16,1.06-.06,3.82-.18,4.84-.2-.98.86-3.06,2.54-4.18,3.46-1.18.98-3.6,3.02-5.02,4.16L53.58-3.5c2.14-2.44,4.14-4.06,7.2-4.06,2.36,0,4.16,1.22,4.16,3.02a2.9,2.9,0,0,1-1.66,2.72,4,4,0,0,0-4.26-3.42,3.351,3.351,0,0,0-3.58,3.12c0,2,2.1,3.28,4.88,3.28,4.84,0,7.24-2.5,7.24-5.66,0-2.92-2.58-5.04-5.98-5.04a7.813,7.813,0,0,0-1.9.22c1.26-1,3.36-2.76,4.44-3.52.46-.34.94-.62,1.4-.92l-1.3-1.78a8.738,8.738,0,0,1-1.52.22c-1.14.1-5.42.18-6.48.18A13.879,13.879,0,0,1,54.4-15.24Z" transform="translate(5491 -15432)" fill="#3c505a"/>
    <path id="Polygon_7" data-name="Polygon 7" d="M6.5,0,13,9H0Z" transform="translate(5599 -15447) rotate(90)" fill="#3c505a"/>
  </g>
</svg>
