<svg xmlns="http://www.w3.org/2000/svg" width="40" height="40" viewBox="0 0 40 40">
  <g id="Group_191" data-name="Group 191" transform="translate(-200.5 -27200)">
    <circle id="Ellipse_98" data-name="Ellipse 98" cx="20" cy="20" r="20" transform="translate(200.5 27200)" fill="#ffbe00"/>
    <path id="Path_284" data-name="Path 284" d="M7.42-1.26c-2.64,0-4.36-2.38-4.36-6.12,0-3.68,1.72-5.94,4.36-5.94,2.62,0,4.36,2.26,4.36,5.94C11.78-3.64,10.04-1.26,7.42-1.26ZM11.9,3.68A6.6,6.6,0,0,0,14,3.36l-.36-1.44a5.043,5.043,0,0,1-1.54.22A3.834,3.834,0,0,1,8.5.18c3.1-.54,5.18-3.34,5.18-7.56,0-4.7-2.58-7.56-6.26-7.56S1.16-12.08,1.16-7.38C1.16-3.08,3.32-.24,6.52.2A5.533,5.533,0,0,0,11.9,3.68ZM17.62.26a1.321,1.321,0,0,0,1.32-1.38,1.344,1.344,0,0,0-1.32-1.42A1.344,1.344,0,0,0,16.3-1.12,1.321,1.321,0,0,0,17.62.26Z" transform="translate(210.5 27226)" fill="#fff"/>
  </g>
</svg>
