<svg xmlns="http://www.w3.org/2000/svg" width="439" height="100" viewBox="0 0 439 100">
  <g id="Group_147" data-name="Group 147" transform="translate(-5346 15473)">
    <rect id="Rectangle_103" data-name="Rectangle 103" width="439" height="100" rx="50" transform="translate(5346 -15473)" fill="#ffbe00"/>
    <path id="Path_163" data-name="Path 163" d="M-46.38,0h2.96V-5.6h2.06L-38.32,0h3.3l-3.46-6.06a4.237,4.237,0,0,0,2.82-4.26c0-3.4-2.46-4.5-5.56-4.5h-5.16Zm2.96-7.94v-4.52h1.92c1.9,0,2.96.54,2.96,2.14,0,1.58-1.06,2.38-2.96,2.38ZM-32.74,0h9.3V-2.48h-6.34V-6.44h5.2V-8.92h-5.2v-3.42h6.12v-2.48h-9.08Zm12.3,0h5.28c3.26,0,5.74-1.38,5.74-4.36a3.365,3.365,0,0,0-2.78-3.5v-.1a3.357,3.357,0,0,0,2.02-3.2c0-2.76-2.32-3.66-5.36-3.66h-4.9Zm2.96-8.78v-3.76h1.76c1.78,0,2.66.52,2.66,1.82,0,1.18-.82,1.94-2.7,1.94Zm0,6.5V-6.6h2.06c2.04,0,3.12.62,3.12,2.06,0,1.54-1.1,2.26-3.12,2.26ZM-.94.28c3.92,0,6.62-2.94,6.62-7.74s-2.7-7.62-6.62-7.62-6.62,2.8-6.62,7.62C-7.56-2.66-4.86.28-.94.28Zm0-2.56c-2.2,0-3.6-2.02-3.6-5.18,0-3.18,1.4-5.08,3.6-5.08s3.6,1.9,3.6,5.08C2.66-4.3,1.26-2.28-.94-2.28ZM8.58,0h2.96V-5.6H13.6L16.64,0h3.3L16.48-6.06a4.237,4.237,0,0,0,2.82-4.26c0-3.4-2.46-4.5-5.56-4.5H8.58Zm2.96-7.94v-4.52h1.92c1.9,0,2.96.54,2.96,2.14,0,1.58-1.06,2.38-2.96,2.38ZM22.22,0h2.8V-5.94c0-1.7-.22-3.56-.36-5.16h.1l1.5,3.18L30.54,0h3V-14.82h-2.8V-8.9c0,1.68.24,3.64.38,5.18h-.1l-1.48-3.2-4.3-7.9H22.22Zm18.2-7.72c.44-1.54.88-3.22,1.26-4.84h.1c.42,1.6.82,3.3,1.28,4.84L43.5-6.1H39.98ZM35.3,0h3l1.04-3.8h4.8L45.18,0h3.1L43.52-14.82H40.04ZM-69.68,30.28c3.92,0,6.62-2.94,6.62-7.74s-2.7-7.62-6.62-7.62-6.62,2.8-6.62,7.62C-76.3,27.34-73.6,30.28-69.68,30.28Zm0-2.56c-2.2,0-3.6-2.02-3.6-5.18,0-3.18,1.4-5.08,3.6-5.08s3.6,1.9,3.6,5.08C-66.08,25.7-67.48,27.72-69.68,27.72ZM-60.16,30h2.96V24h5.26V21.52H-57.2V17.66h6.16V15.18h-9.12Zm11.7,0h2.96V24h5.26V21.52H-45.5V17.66h6.16V15.18h-9.12Zm11.7,0h2.96V15.18h-2.96Zm12.64.28A5.99,5.99,0,0,0-19.4,28.1l-1.56-1.84a4.082,4.082,0,0,1-3.06,1.46c-2.34,0-3.86-1.94-3.86-5.16,0-3.18,1.68-5.1,3.92-5.1a3.9,3.9,0,0,1,2.74,1.24l1.54-1.88a6.037,6.037,0,0,0-4.34-1.9c-3.74,0-6.88,2.86-6.88,7.74C-30.9,27.6-27.86,30.28-24.12,30.28Zm7.1-.28h2.96V15.18h-2.96Zm9.82-7.72c.44-1.54.88-3.22,1.26-4.84h.1c.42,1.6.82,3.3,1.28,4.84l.44,1.62H-7.64ZM-12.32,30h3l1.04-3.8h4.8L-2.44,30H.66L-4.1,15.18H-7.58ZM2.4,30h8.98V27.52H5.36V15.18H2.4Zm20.52.28c3.42,0,5.44-2.06,5.44-4.48,0-2.14-1.18-3.28-2.98-4.02l-1.94-.82c-1.26-.5-2.3-.88-2.3-1.94,0-.98.82-1.56,2.12-1.56a4.721,4.721,0,0,1,3.14,1.22l1.5-1.86a6.568,6.568,0,0,0-4.64-1.9c-3,0-5.12,1.86-5.12,4.28a4.288,4.288,0,0,0,3,3.98l1.98.84c1.32.56,2.22.9,2.22,2,0,1.04-.82,1.7-2.36,1.7a5.823,5.823,0,0,1-3.76-1.64l-1.7,2.04A7.887,7.887,0,0,0,22.92,30.28ZM33.46,30h2.96V17.66h4.2V15.18H29.3v2.48h4.16Zm14.82.28c3.92,0,6.62-2.94,6.62-7.74s-2.7-7.62-6.62-7.62-6.62,2.8-6.62,7.62C41.66,27.34,44.36,30.28,48.28,30.28Zm0-2.56c-2.2,0-3.6-2.02-3.6-5.18,0-3.18,1.4-5.08,3.6-5.08s3.6,1.9,3.6,5.08C51.88,25.7,50.48,27.72,48.28,27.72ZM57.8,30h2.96V24.4h2.06L65.86,30h3.3L65.7,23.94a4.237,4.237,0,0,0,2.82-4.26c0-3.4-2.46-4.5-5.56-4.5H57.8Zm2.96-7.94V17.54h1.92c1.9,0,2.96.54,2.96,2.14,0,1.58-1.06,2.38-2.96,2.38ZM71.44,30h9.3V27.52H74.4V23.56h5.2V21.08H74.4V17.66h6.12V15.18H71.44Z" transform="translate(5566 -15429)" fill="#fff"/>
    <path id="Polygon_7" data-name="Polygon 7" d="M6.5,0,13,9H0Z" transform="translate(5738 -15429) rotate(90)" fill="#fff"/>
  </g>
</svg>
