<svg id="Group_225" data-name="Group 225" xmlns="http://www.w3.org/2000/svg" width="50.358" height="50.358" viewBox="0 0 50.358 50.358">
  <circle id="Ellipse_105" data-name="Ellipse 105" cx="25.179" cy="25.179" r="25.179" fill="#fbd433"/>
  <g id="Group_224" data-name="Group 224" transform="translate(0 0)">
    <path id="Path_144" data-name="Path 144" d="M0,25.179A25.179,25.179,0,1,0,25.179,0,25.213,25.213,0,0,0,0,25.179Zm2.028,0A23.129,23.129,0,1,1,25.157,48.308,23.167,23.167,0,0,1,2.028,25.179Z" fill="#3c505a"/>
    <ellipse id="Ellipse_106" data-name="Ellipse 106" cx="2.447" cy="5.799" rx="2.447" ry="5.799" transform="translate(29.082 12.369)" fill="#3c505a"/>
    <ellipse id="Ellipse_107" data-name="Ellipse 107" cx="2.447" cy="5.799" rx="2.447" ry="5.799" transform="translate(16.36 12.369)" fill="#3c505a"/>
    <path id="Path_145" data-name="Path 145" d="M3.608,13.537a13.8,13.8,0,0,1,3.748-1.08,1.013,1.013,0,0,1,.287,2.006c-.2.022-.375.066-.573.088A15.32,15.32,0,0,0,12.1,22a15.164,15.164,0,0,0,18.962,0,15.32,15.32,0,0,0,5.027-7.452,5.15,5.15,0,0,0-.573-.088,1.013,1.013,0,1,1,.287-2.006,13.8,13.8,0,0,1,3.748,1.08,1.009,1.009,0,0,1,.507,1.345,1.035,1.035,0,0,1-.926.6.955.955,0,0,1-.419-.088,6.35,6.35,0,0,0-.683-.287,17.1,17.1,0,0,1-5.733,8.467,17.175,17.175,0,0,1-21.475,0A17.5,17.5,0,0,1,5.085,15.1c-.22.088-.463.176-.683.287a.955.955,0,0,1-.419.088,1.011,1.011,0,0,1-.926-.6,1.027,1.027,0,0,1,.507-1.345Z" transform="translate(3.58 14.993)" fill="#3c505a"/>
  </g>
</svg>
