<svg xmlns="http://www.w3.org/2000/svg" width="340" height="72" viewBox="0 0 340 72">
  <g id="Group_147" data-name="Group 147" transform="translate(-5477 15462)">
    <rect id="Rectangle_103" data-name="Rectangle 103" width="340" height="72" rx="36" transform="translate(5477 -15462)" fill="#ffbe00"/>
    <path id="Path_164" data-name="Path 164" d="M-32.466,0h2.072V-3.92h1.442L-26.824,0h2.31l-2.422-4.242a2.966,2.966,0,0,0,1.974-2.982c0-2.38-1.722-3.15-3.892-3.15h-3.612Zm2.072-5.558V-8.722h1.344c1.33,0,2.072.378,2.072,1.5s-.742,1.666-2.072,1.666ZM-22.918,0h6.51V-1.736h-4.438V-4.508h3.64V-6.244h-3.64V-8.638h4.284v-1.736h-6.356Zm8.61,0h3.7C-8.33,0-6.594-.966-6.594-3.052A2.356,2.356,0,0,0-8.54-5.5v-.07a2.35,2.35,0,0,0,1.414-2.24c0-1.932-1.624-2.562-3.752-2.562h-3.43Zm2.072-6.146V-8.778H-11c1.246,0,1.862.364,1.862,1.274,0,.826-.574,1.358-1.89,1.358Zm0,4.55V-4.62h1.442c1.428,0,2.184.434,2.184,1.442C-8.61-2.1-9.38-1.6-10.794-1.6ZM-.658.2C2.086.2,3.976-1.862,3.976-5.222s-1.89-5.334-4.634-5.334S-5.292-8.6-5.292-5.222-3.4.2-.658.2Zm0-1.792c-1.54,0-2.52-1.414-2.52-3.626s.98-3.556,2.52-3.556,2.52,1.33,2.52,3.556S.882-1.6-.658-1.6ZM6.006,0H8.078V-3.92H9.52L11.648,0h2.31L11.536-4.242A2.966,2.966,0,0,0,13.51-7.224c0-2.38-1.722-3.15-3.892-3.15H6.006ZM8.078-5.558V-8.722H9.422c1.33,0,2.072.378,2.072,1.5s-.742,1.666-2.072,1.666ZM15.554,0h1.96V-4.158c0-1.19-.154-2.492-.252-3.612h.07l1.05,2.226,3,5.544h2.1V-10.374h-1.96V-6.23c0,1.176.168,2.548.266,3.626h-.07l-1.036-2.24-3.01-5.53H15.554Zm12.74-5.4c.308-1.078.616-2.254.882-3.388h.07c.294,1.12.574,2.31.9,3.388L30.45-4.27H27.986ZM24.71,0h2.1l.728-2.66H30.9L31.626,0H33.8L30.464-10.374H28.028ZM-48.776,20.2c2.744,0,4.634-2.058,4.634-5.418s-1.89-5.334-4.634-5.334-4.634,1.96-4.634,5.334S-51.52,20.2-48.776,20.2Zm0-1.792c-1.54,0-2.52-1.414-2.52-3.626s.98-3.556,2.52-3.556,2.52,1.33,2.52,3.556S-47.236,18.4-48.776,18.4Zm6.664,1.6h2.072V15.8h3.682V14.064H-40.04v-2.7h4.312V9.626h-6.384Zm8.19,0h2.072V15.8h3.682V14.064H-31.85v-2.7h4.312V9.626h-6.384Zm8.19,0h2.072V9.626h-2.072Zm8.848.2a4.193,4.193,0,0,0,3.3-1.526l-1.092-1.288A2.857,2.857,0,0,1-16.814,18.4c-1.638,0-2.7-1.358-2.7-3.612,0-2.226,1.176-3.57,2.744-3.57a2.729,2.729,0,0,1,1.918.868l1.078-1.316a4.226,4.226,0,0,0-3.038-1.33c-2.618,0-4.816,2-4.816,5.418C-21.63,18.32-19.5,20.2-16.884,20.2Zm4.97-.2h2.072V9.626h-2.072Zm6.874-5.4c.308-1.078.616-2.254.882-3.388h.07c.294,1.12.574,2.31.9,3.388l.308,1.134H-5.348ZM-8.624,20h2.1l.728-2.66h3.36L-1.708,20H.462L-2.87,9.626H-5.306Zm10.3,0H7.966V18.264H3.752V9.626H1.68Zm14.364.2c2.394,0,3.808-1.442,3.808-3.136a2.862,2.862,0,0,0-2.086-2.814l-1.358-.574c-.882-.35-1.61-.616-1.61-1.358,0-.686.574-1.092,1.484-1.092a3.3,3.3,0,0,1,2.2.854l1.05-1.3a4.6,4.6,0,0,0-3.248-1.33c-2.1,0-3.584,1.3-3.584,3a3,3,0,0,0,2.1,2.786l1.386.588c.924.392,1.554.63,1.554,1.4,0,.728-.574,1.19-1.652,1.19a4.076,4.076,0,0,1-2.632-1.148l-1.19,1.428A5.521,5.521,0,0,0,16.044,20.2Zm7.378-.2h2.072V11.362h2.94V9.626H20.51v1.736h2.912Zm10.374.2c2.744,0,4.634-2.058,4.634-5.418S36.54,9.444,33.8,9.444s-4.634,1.96-4.634,5.334S31.052,20.2,33.8,20.2Zm0-1.792c-1.54,0-2.52-1.414-2.52-3.626s.98-3.556,2.52-3.556,2.52,1.33,2.52,3.556S35.336,18.4,33.8,18.4ZM40.46,20h2.072V16.08h1.442L46.1,20h2.31L45.99,15.758a2.966,2.966,0,0,0,1.974-2.982c0-2.38-1.722-3.15-3.892-3.15H40.46Zm2.072-5.558V11.278h1.344c1.33,0,2.072.378,2.072,1.5s-.742,1.666-2.072,1.666ZM50.008,20h6.51V18.264H52.08V15.492h3.64V13.756H52.08V11.362h4.284V9.626H50.008Z" transform="translate(5647 -15430)" fill="#fff"/>
    <path id="Polygon_7" data-name="Polygon 7" d="M6.5,0,13,9H0Z" transform="translate(5787 -15432) rotate(90)" fill="#fff"/>
  </g>
</svg>
