<svg xmlns="http://www.w3.org/2000/svg" width="241.963" height="63.375" viewBox="0 0 241.963 63.375">
  <g id="Group_67" data-name="Group 67" transform="translate(-449 -21591)">
    <g id="Path_146" data-name="Path 146" transform="translate(449 21591)" fill="#fff">
      <path d="M 240.4481506347656 62.37524795532227 L 1.520951628684998 62.37524795532227 L 14.30692195892334 32.75887298583984 L 14.47445297241211 32.37077713012695 L 14.31285953521729 31.98021507263184 L 1.495915532112122 0.999997079372406 L 240.4612731933594 0.999997079372406 L 227.6513977050781 31.65634155273438 L 227.4884796142578 32.04624557495117 L 227.6545104980469 32.43484115600586 L 240.4481506347656 62.37524795532227 Z" stroke="none"/>
      <path d="M 2.991836547851562 1.999996185302734 L 15.56007385253906 32.37908935546875 L 3.041839599609375 61.37524795532227 L 238.933349609375 61.37524795532227 L 226.40283203125 32.05062103271484 L 238.9595947265625 1.999996185302734 L 2.991836547851562 1.999996185302734 M -1.52587890625e-05 -3.814697265625e-06 L 241.962890625 -3.814697265625e-06 L 228.5740509033203 32.04190063476562 L 241.962890625 63.37524795532227 L -1.52587890625e-05 63.37524795532227 L 13.38882446289062 32.36249542236328 L -1.52587890625e-05 -3.814697265625e-06 Z" stroke="none" fill="#ffbe00"/>
    </g>
    <path id="Path_282" data-name="Path 282" d="M-82.56-9.712l-.848.848h-3.856l.144.464h3.808a13.572,13.572,0,0,1-4.3,8.08l.16.192a11.867,11.867,0,0,0,5.728-8.064c.352-.016.512-.08.624-.224Zm7.76-.96a28.625,28.625,0,0,1-2.864,3.936,15.182,15.182,0,0,1-1.584-4.64v-1.44c.416-.064.528-.208.576-.432l-2.128-.224V-.752c0,.24-.1.336-.384.336-.4,0-2.336-.144-2.336-.144v.24a2.942,2.942,0,0,1,1.584.56,1.758,1.758,0,0,1,.448,1.12c1.984-.176,2.24-.848,2.24-2v-9.6c.9,5.264,2.768,7.968,5.392,10.032A1.832,1.832,0,0,1-72.48-1.552l.064-.16A12.293,12.293,0,0,1-77.472-6.4,27.867,27.867,0,0,0-73.52-9.328c.352.064.512,0,.608-.16ZM-66.7-.5c-1.04,0-1.664-.4-1.664-.96,0-.688.976-1.28,2.512-1.28a8.041,8.041,0,0,1,1.568.144C-64.32-1.136-64.912-.5-66.7-.5Zm3.5-3.072c-.128-1.2-.176-2.9-.176-3.648,0-.224.016-.512.032-.816A2.98,2.98,0,0,0-62.08-7.6a10,10,0,0,0,2.672-.448c.448-.176.608-.4.608-.656,0-.56-.608-.752-1.232-.752a7.482,7.482,0,0,0-.992.384A7.381,7.381,0,0,1-63.04-8.7,1.464,1.464,0,0,1-63.3-8.72a9.276,9.276,0,0,1,.224-1.616c.128-.448.368-.592.368-.976,0-.512-1.1-1.184-2.1-1.184a3.3,3.3,0,0,0-1.392.416l.016.256a4.414,4.414,0,0,1,1.168.272.56.56,0,0,1,.416.576c.048.384.112,2.528.128,3.472.016.992.112,2.576.16,3.84-.24-.016-.5-.032-.752-.032-2.144,0-4.048.752-4.048,2.384C-69.1-.016-67.84.72-66.112.72c2.288,0,3.12-1.056,3.12-2.352,0-.224-.016-.416-.032-.608a7.892,7.892,0,0,1,1.168.56C-60.32-.8-59.76.208-59.1.208a.563.563,0,0,0,.624-.64c0-.944-1.28-1.808-2.384-2.32A11.42,11.42,0,0,0-63.2-3.52Zm12.288-7.072c0,.976-.736,3.824-.736,5.456a4.425,4.425,0,0,0,.272,1.632.819.819,0,0,0,.8.56.63.63,0,0,0,.656-.656c0-.64-.112-1.152-.112-1.856a6.39,6.39,0,0,1,.784-3.008,2.79,2.79,0,0,1,2.1-1.712c1.024,0,1.664,1.344,1.664,4.08s-.8,5.456-4.864,7.072l.144.336c4.624-.944,6.336-3.712,6.336-7.2,0-3.2-1.072-5.04-2.944-5.04-1.056,0-2.112.912-2.9,2.32-.16.288-.288.272-.256-.032a8.953,8.953,0,0,1,.352-1.44,3.5,3.5,0,0,0,.24-1.04A2.512,2.512,0,0,0-50.688-12.8a2.984,2.984,0,0,0-.992-.3l-.16.176A3.053,3.053,0,0,1-50.912-10.64Zm14.656,4.448c0-.72,1.344-1.52,2.384-1.584-.176.768-.368,1.744-.528,2.688C-35.68-5.28-36.256-5.7-36.256-6.192Zm5.472-.752c1.424,1.088,2.464,2.128,2.464,3.92A2.82,2.82,0,0,1-31.408-.3c-1.488,0-2.448-.688-2.448-2.224a6.648,6.648,0,0,1,.1-1.072,8.752,8.752,0,0,0,1.808.032c.64-.08.944-.32.944-.72,0-.448-.32-.656-.816-.688-.352-.032-.944,0-1.664-.032.224-.96.528-1.952.784-2.72a6.191,6.191,0,0,0,.928.016c.432-.032.7-.16.7-.544,0-.352-.256-.736-.944-.816l-.208-.016a9.208,9.208,0,0,1,.608-1.376c.192-.368.448-.528.448-.88,0-.5-1.072-1.408-1.968-1.408a3.853,3.853,0,0,0-1.024.144l-.016.3a3.966,3.966,0,0,1,.768.272.642.642,0,0,1,.4.672,18.968,18.968,0,0,1-.512,2.208,7.012,7.012,0,0,1-1.792-.368A3.129,3.129,0,0,1-36.8-10.784l-.24.128a2.5,2.5,0,0,0,1.008,1.792,3.671,3.671,0,0,0,1.1.528c-1.152.608-2.016,1.52-2.016,2.416,0,.944.848,1.776,2.352,2.16a10.537,10.537,0,0,0-.1,1.312c0,1.984,1.152,3.36,3.5,3.36,3.072,0,4.368-1.936,4.368-3.552,0-1.856-1.184-3.424-3.776-4.544ZM-9.088-3.2H-9.28A17.846,17.846,0,0,1-9.936-.784a.38.38,0,0,1-.368.256c-.208.016-.672.016-1.232.016H-12.96c-.528,0-.592-.08-.592-.336v-5.36h4.464c.24,0,.4-.08.448-.256C-9.3-7.056-10.4-7.92-10.4-7.92l-.976,1.248h-3.872v-3.2h4.928c.224,0,.4-.08.432-.256-.672-.576-1.712-1.344-1.712-1.344l-.928,1.152h-2.72v-2.464c.416-.08.56-.24.592-.464l-2.16-.192v3.12h-2.7a13.06,13.06,0,0,0,.832-1.856c.352.016.528-.128.592-.336l-2.128-.576a15.226,15.226,0,0,1-2.208,5.824l.208.16a9.011,9.011,0,0,0,2.448-2.768h2.96v3.2h-6.576l.144.464h4.32C-19.1-2.848-20.016-.5-23.488,1.2l.08.208c4.512-1.264,5.92-3.728,6.24-7.616h2.08V-.464c0,1.12.32,1.44,1.808,1.44h1.616C-9.1.976-8.5.672-8.5,0c0-.32-.1-.5-.56-.672Zm6.272-2.832c-.4.8-1.248,2.528-1.632,3.1-.144.224-.288.208-.384-.016a2.622,2.622,0,0,1-.192-1.168,9.087,9.087,0,0,1,1.12-3.9c.384-.816.608-1.136.608-1.536a2.856,2.856,0,0,0-1.232-1.92,3.093,3.093,0,0,0-1.056-.512l-.208.192a2.738,2.738,0,0,1,.848,1.808,7.914,7.914,0,0,1-.384,2.016,15.806,15.806,0,0,0-.72,4.144A6.708,6.708,0,0,0-5.088-.08a1.277,1.277,0,0,0,.944.656c.432,0,.656-.256.656-.72,0-.448-.32-.976-.32-1.5a5.75,5.75,0,0,1,.224-1.2c.16-.592.8-2.16,1.12-3.024Zm1.584,1.5a4.608,4.608,0,0,0,.1,1.376C-.8-1.392.5-.288,3.3-.288,5.136-.288,6.7-.5,6.7-1.344c0-.5-.592-.736-1.168-.736a13.869,13.869,0,0,1-2.656.3C.9-1.776.1-2.256-.5-3.3a6.031,6.031,0,0,1-.432-1.28Zm.576-4.464a10.24,10.24,0,0,1,2.784-.464c1.136,0,1.088.144.912.336C2.752-8.832,1.792-8.1,1.088-7.536l.24.256a19.635,19.635,0,0,1,2.64-1.344,9.932,9.932,0,0,1,1.536-.3c.368-.064.528-.224.528-.544a.829.829,0,0,0-.56-.736,4.76,4.76,0,0,0-2.256-.384,7.011,7.011,0,0,0-4,1.28Zm14.992-2.9c.224,0,.384-.08.416-.256-.544-.5-1.408-1.184-1.408-1.184l-.784.976H9.28l.128.464ZM9.392-5.712h4.944c.224,0,.384-.08.432-.256-.512-.5-1.344-1.152-1.344-1.152l-.736.944H9.264Zm3.3-2.528H9.264l.128.448h4.944c.224,0,.384-.08.432-.24-.512-.48-1.344-1.136-1.344-1.136ZM10.768-.288V-3.712h2.144V-.288Zm1.984-3.888h-1.92L9.376-4.784V1.36h.192c.592,0,1.2-.3,1.2-.432V.176h2.144v.912h.224A1.787,1.787,0,0,0,14.3.64V-3.488a1.135,1.135,0,0,0,.64-.32L13.456-4.944Zm.672-6.112H8.48l.128.448h6.624c.224,0,.384-.08.432-.256-.56-.5-1.456-1.2-1.456-1.2Zm9.232,7.312h-.192a16.137,16.137,0,0,1-.672,2.3.426.426,0,0,1-.416.24c-.256.016-.848.032-1.552.032H18.048c-.656,0-.752-.1-.752-.4V-6.672h3.456v.784h.24a2.126,2.126,0,0,0,1.248-.448V-11.5a1.083,1.083,0,0,0,.656-.32l-1.568-1.2-.736.8H15.664l.144.464h4.944v4.624H17.5l-1.7-.672V-.464c0,1.152.384,1.44,1.968,1.44H19.7c2.9,0,3.584-.256,3.584-.928,0-.288-.128-.464-.592-.624Zm4.32,0V-4.032H28.32v1.056Zm1.344-2.56V-4.5H26.976v-1.04Zm2.752,0V-4.5h-1.36v-1.04Zm-1.36,2.56V-4.032h1.36v1.056Zm3.5,2.128c.224,0,.384-.08.432-.256-.56-.5-1.472-1.184-1.472-1.184l-.784.992h-1.68V-2.512h1.36v.368H31.3a1.749,1.749,0,0,0,1.088-.416V-5.408a.955.955,0,0,0,.5-.24l-1.3-.976-.64.64H29.712V-7.04h3.12c.224,0,.384-.08.416-.256-.56-.5-1.424-1.12-1.424-1.12l-.768.912H29.712v-.88c.32-.048.432-.176.448-.368l-1.84-.192V-7.5h-3.2l.112.464H28.32v1.056H27.056L25.7-6.56v4.64h.176c.544,0,1.1-.288,1.1-.4v-.192H28.32V-1.3H24.8l.128.448H28.32v2.16h.272c.512,0,1.12-.288,1.12-.432V-.848ZM39.3-2.832l-.176-.032a13.552,13.552,0,0,1-.784,1.9c-.144.288-.24.3-.464.08a5.354,5.354,0,0,1-1.536-1.952,15.683,15.683,0,0,0,1.936-4.32c.432,0,.544-.112.608-.3l-2.016-.528a17.077,17.077,0,0,1-1.1,3.7,20.231,20.231,0,0,1-.7-4.8h3.936c.224,0,.4-.08.448-.256-.48-.416-1.184-.96-1.52-1.216.768-.32.72-1.968-2.24-2.272l-.144.128a4.559,4.559,0,0,1,1.584,2.032,1.087,1.087,0,0,0,.448.16l-.784.96H35.04c-.032-1.04-.032-2.128-.016-3.232.416-.064.544-.24.576-.448l-2.112-.24c0,1.36.016,2.672.08,3.92H29.76v-1.584h2.864c.224,0,.384-.08.416-.256-.544-.528-1.44-1.232-1.44-1.232L30.816-11.6H29.76v-1.232c.416-.064.56-.224.576-.448l-2.064-.176V-11.6H25.488l.128.464h2.656v1.584H24.608l.144.464H33.6a20.763,20.763,0,0,0,1.264,6.544,11.582,11.582,0,0,1-3.392,3.616l.144.192a11.37,11.37,0,0,0,3.728-2.8A7.482,7.482,0,0,0,37.072.592c.672.576,1.728,1.12,2.288.512C39.568.9,39.488.5,39.008-.272Zm6.016-8.8c.928.032,1.456.1,1.728.512.288.432.64,1.12.992,1.76a11.822,11.822,0,0,1-2.832.512,3.7,3.7,0,0,1-2.752-1.088l-.256.208c.784,1.472,1.344,2.112,3.168,2.08A12.9,12.9,0,0,0,48.7-8.24a28.776,28.776,0,0,0,2.272,3.008c.144.144.1.176-.08.144a12.706,12.706,0,0,0-3.3-.464c-2.528,0-4.416,1.36-4.416,3.136,0,2.1,2.288,3.1,5.168,3.1C50.56.688,51.36.32,51.36-.224s-.512-.768-1.12-.768c-.592,0-1.216.176-2.368.176-2.352,0-3.584-.784-3.584-1.888,0-1.248,1.232-2.192,2.96-2.192A7.294,7.294,0,0,1,51.1-3.744c.5.3.768.592,1.2.592.48,0,.752-.784.736-1.3,0-.32-.144-.512-.512-.88A16.691,16.691,0,0,1,49.76-8.592a10.5,10.5,0,0,0,2.88-1.52.639.639,0,0,0,.128-.848,1.235,1.235,0,0,0-1.088-.224,14.193,14.193,0,0,1-2.544,1.44,14.388,14.388,0,0,1-.752-2.128c-.1-.336-.768-.592-1.536-.592a3.117,3.117,0,0,0-1.584.56ZM60.48-1.9c0,.288-.128.32-.3.144-.192-.208-.656-.736-1.04-1.184.464-.688.928-1.376,1.376-2.048C60.464-3.744,60.5-2.544,60.48-1.9ZM71.664-2.992a4.05,4.05,0,0,1-2.72,1.152c-.736,0-1.056-.32-1.056-1.168,0-1.664.64-3.552.64-4.944,0-1.552-.656-2.368-2.016-2.368-1.424,0-3.056,1.12-4.32,2.24l.032-.032c.224-.256.368-.4.368-.608,0-.144-.288-.48-.576-.672.112-.4.208-.736.288-.944.192-.56.384-.752.384-1.12,0-.528-.96-1.376-1.76-1.376a3.1,3.1,0,0,0-1.152.256l.016.288a4.073,4.073,0,0,1,.928.32c.288.128.352.224.352.576,0,.4-.1,1.184-.208,2.128a11.568,11.568,0,0,1-2.7,1.1c-.336,0-.592-.288-.848-.736l-.256.08a2.883,2.883,0,0,0,.032.832,2.122,2.122,0,0,0,1.6,1.344c.3,0,.464-.416.8-.64.288-.176.768-.464,1.232-.72-.032.352-.064.7-.1,1.072a35.914,35.914,0,0,1-3.392,4.336,1.317,1.317,0,0,0-.416,1.008c0,.464.272.752.576.752.336-.016.528-.32.784-.688l.72-1.072a10,10,0,0,1,.912,1.648A6.506,6.506,0,0,1,60.128.24c.064.416.256.656.7.656.528,0,.912-.752.912-1.52A12.969,12.969,0,0,0,61.6-1.968a27.522,27.522,0,0,1-.128-4.32l.016-.208c1.424-1.728,3.2-3.12,4.56-3.12.784,0,1.056.528,1.056,1.52,0,1.744-.656,3.52-.656,5.376,0,1.568.784,2.288,2,2.288a4.155,4.155,0,0,0,3.424-2.336ZM79.776-.576c-1.36,0-2.064-.432-2.064-1.024,0-.5.4-.816.992-.816.9,0,1.6.656,1.808,1.808C80.272-.592,80.032-.576,79.776-.576ZM76.24-11.936a2.559,2.559,0,0,0-.064.976,1.863,1.863,0,0,0,1.536,1.44c.3,0,.56-.256.864-.416a13.12,13.12,0,0,1,2.352-.944c.224-.032.368.064.144.352-.752,1.1-3.92,4.112-5.888,6.112-.464.448-.672.736-.688,1.12-.032.512.272.864.56.864.32.016.48-.1.8-.528,1.36-1.744,2.928-3.264,5.152-3.264A2.572,2.572,0,0,1,83.872-3.6,2.861,2.861,0,0,1,81.76-.864a2.714,2.714,0,0,0-2.7-2.24,1.788,1.788,0,0,0-2,1.648c0,1.28,1.312,2.064,3.152,2.064,3.184,0,5.04-1.7,5.056-3.776a3.6,3.6,0,0,0-3.872-3.68,8.17,8.17,0,0,0-2.72.544c-.144.064-.224-.064-.08-.208A37.073,37.073,0,0,1,82.24-9.744c.544-.416,1.024-.512,1.024-.9,0-.576-1.1-1.44-1.744-1.44-.288,0-.3.208-.816.368a17.415,17.415,0,0,1-3.232.7c-.416,0-.736-.48-.976-.96ZM-84.5,16.408h3.136V18.12H-84.5Zm3.136-2.16v1.7H-84.5v-1.7Zm.048,6.224h-.912V18.584h.864v.384h.224a2.044,2.044,0,0,0,1.184-.384V14.472a1.321,1.321,0,0,0,.64-.3l-1.5-1.136-.688.752h-.7V12.152h2.752c.24,0,.384-.08.432-.256-.56-.56-1.536-1.328-1.536-1.328l-.848,1.12h-.8V10.12c.4-.064.528-.208.544-.432L-83.7,9.512v2.176H-86.56l.128.464H-83.7v1.632h-.72L-85.9,13.16v6.08h.208c.592,0,1.2-.32,1.2-.448v-.208h.8v1.888h-2.912l.128.464H-83.7v3.44h.24a1.758,1.758,0,0,0,1.232-.336v-3.1h2.816c.224,0,.368-.08.416-.256-.56-.544-1.5-1.3-1.5-1.3Zm7.216-2.016H-75.12v-2.72h1.808c.224,0,.384-.08.432-.256-.544-.512-1.424-1.248-1.424-1.248l-.768,1.04H-78.72l.128.464h1.984v2.72h-2.784l.128.464h2.656v5.424h.256c.768,0,1.232-.288,1.232-.368V18.92h2.96c.24,0,.4-.08.432-.256-.56-.576-1.52-1.392-1.52-1.392ZM-76.64,9.544a13.311,13.311,0,0,1-3.248,5.872l.128.192a11.328,11.328,0,0,0,4.416-5.168,9.485,9.485,0,0,0,2.912,4.944,1.471,1.471,0,0,1,.992-1.216l.016-.192a8.492,8.492,0,0,1-3.712-3.712c.368-.032.528-.112.544-.288ZM-68.1,9.48a23.723,23.723,0,0,1-.9,2.88,5.4,5.4,0,0,0-1.2-.448l-.16.112a5.517,5.517,0,0,1,1.408,2.416c1.008.72,1.9-.8.288-1.872a12.6,12.6,0,0,0,1.92-2.08c.352,0,.544-.112.608-.3Zm1.76,8.832a7.788,7.788,0,0,1,.72,3.168c1.072,1.088,2.4-1.3-.512-3.248Zm-.112-3.472a7.7,7.7,0,0,1,.656,1.312c-.832.048-1.632.112-2.336.16A22.093,22.093,0,0,0-65.04,12.36c.352.032.56-.08.64-.256l-1.9-.736a27.6,27.6,0,0,1-2.464,4.976c-.752.048-1.36.08-1.76.08l.464,1.5a.607.607,0,0,0,.416-.336c.592-.144,1.136-.288,1.632-.416v1.632L-69.6,18.44a17,17,0,0,1-1.024,4.624l.256.144a10.329,10.329,0,0,0,2-4,.763.763,0,0,0,.352-.08V24.36h.24c.7,0,1.152-.3,1.152-.4V16.792l.96-.288a4.632,4.632,0,0,1,.24,1.152c1.136,1.056,2.384-1.328-.848-2.912Zm6.9,7.776V17.1h1.76v5.52Zm-3.04-5.52h1.68v5.52h-1.68Zm1.68-5.616v5.152h-1.68V11.48Zm3.12,0v5.152h-1.76V11.48Zm.672-1.344-.768.88H-62.4l-1.6-.624V24.248h.24c.7,0,1.168-.3,1.168-.416V23.08h4.8V24.1h.224a1.529,1.529,0,0,0,1.232-.448V11.64a1.073,1.073,0,0,0,.7-.32Zm4.8,7.808c.08-1.056.08-2.064.08-2.976v-.352h1.568v3.328Zm1.648-7.008v3.216H-52.24V10.936Zm.528-1.232-.672.784H-52l-1.632-.64v5.136c0,3.04-.016,6.5-1.072,9.264l.24.128a10.907,10.907,0,0,0,2.1-5.968h1.7V22.36c0,.224-.064.32-.32.32-.272,0-1.5-.1-1.5-.1v.24a1.688,1.688,0,0,1,1.1.5,2,2,0,0,1,.288,1.024c1.648-.16,1.84-.768,1.84-1.824V11.144a1.078,1.078,0,0,0,.608-.3Zm9.872,10.688h-.176a10.335,10.335,0,0,1-.624,1.888c-.112.16-.208.208-.48.224-.288.032-1.024.032-1.936.032H-45.68c-.752,0-.864-.08-.864-.368v-4.48h2v.848h.224a1.708,1.708,0,0,0,1.1-.432V14.76a.838.838,0,0,0,.464-.24l-1.3-.976-.608.64h-3.008A11.441,11.441,0,0,0-46.4,12.328h4.784c-.08,4.416-.224,6.256-.608,6.656a.5.5,0,0,1-.448.16c-.272,0-.864-.032-1.264-.064v.24a1.731,1.731,0,0,1,.928.432,1.556,1.556,0,0,1,.208.992,2.182,2.182,0,0,0,1.616-.624c.672-.656.864-2.416.928-7.584a1,1,0,0,0,.64-.272l-1.408-1.2-.768.8H-46.16a14.569,14.569,0,0,0,.64-1.44.561.561,0,0,0,.608-.32L-46.928,9.5a16.94,16.94,0,0,1-2.24,5.808l.224.144a7.813,7.813,0,0,0,1.216-1.2l.128.4h3.056V17.24h-1.792l-1.6-.64v5.9c0,1.136.4,1.392,2.08,1.392h2.272c3.28,0,3.968-.288,3.968-.944,0-.288-.128-.448-.608-.608Zm6.688-8.24h9.44c.224,0,.4-.08.432-.256-.624-.592-1.664-1.408-1.664-1.408l-.928,1.2h-1.84V10.216c.416-.048.56-.208.592-.432l-2.1-.192v2.1h-4.064Zm1.552.352a6.842,6.842,0,0,1,.88,3.04c1.232,1.216,2.7-1.472-.688-3.12Zm-3.216,1.92h1.984c.224,0,.384-.08.416-.256-.464-.56-1.312-1.392-1.312-1.392l-.752,1.184h-.336V10.488c.432-.064.56-.224.592-.448l-2.064-.208V13.96h-1.856l.128.464h1.728V19.7c-.912.208-1.648.368-2.1.448l.8,1.872a.6.6,0,0,0,.384-.4c2.16-1.136,3.728-2.048,4.768-2.672l-.064-.192c-.784.208-1.584.4-2.32.592Zm4.176,8.048v-3.68h4.592v3.68Zm4.448-4.144h-4.352l-1.568-.656V24.36h.224c.624,0,1.248-.336,1.248-.48v-.944h4.592V24.2h.256a2.109,2.109,0,0,0,1.28-.432v-4.7a1.083,1.083,0,0,0,.656-.336L-25.872,17.5Zm.56-2.224H-27.84a17.355,17.355,0,0,0,2.112-2.9c.352,0,.528-.128.592-.32l-2.144-.624a23.589,23.589,0,0,1-.944,3.84h-5.92l.128.464h10.1c.224,0,.384-.08.432-.256-.608-.592-1.648-1.44-1.648-1.44Zm8.352,4.048V19.064h5.152v1.088Zm0,.464h2.32a6.3,6.3,0,0,0,1.12,1.44c-1.2.128-2.384.24-3.44.336Zm4.976-5.184a6.735,6.735,0,0,0,.624,1.024l-.576.592h-1.76v-.736c.32-.064.432-.192.448-.368l-1.856-.176v1.28H-17.5l-.48-.192A8.354,8.354,0,0,0-16.8,15.432ZM-17.712,17.5h5.152v1.1h-5.152Zm5.392,3.6a2.427,2.427,0,0,0,1.248-.368V17.64h.032a10.493,10.493,0,0,0,2.432,1.6A1.575,1.575,0,0,1-7.52,17.928l.032-.176a10.3,10.3,0,0,1-4.8-2.32h4.016c.224,0,.4-.08.432-.256-.608-.512-1.6-1.248-1.6-1.248l-.88,1.056h-4.128V13.736h5.072c.208,0,.384-.08.416-.256-.576-.5-1.52-1.152-1.52-1.152l-.8.944h-3.168V12.1h5.856c.24,0,.384-.08.416-.256C-8.768,11.32-9.744,10.6-9.744,10.6l-.864,1.04h-3.024a12.666,12.666,0,0,0,1.744-1.3c.352.032.544-.08.624-.272l-2.048-.624a21.8,21.8,0,0,1-.832,2.192h-2.528c.624-.464.448-1.9-2.176-2.128l-.144.112a5.176,5.176,0,0,1,1.36,2.016h-4.3l.144.464h5.872v1.168h-5.248l.128.464h5.12v1.248h-6.416l.128.448h3.552a11.892,11.892,0,0,1-4.1,3.968l.144.224a14.679,14.679,0,0,0,3.424-1.76V22.52c-.912.08-1.664.128-2.16.16l.848,1.712a.607.607,0,0,0,.416-.336c2.672-.752,4.544-1.312,5.856-1.76l-.016-.208a10.166,10.166,0,0,0,5.392,2.224,1.571,1.571,0,0,1,1.024-1.3V22.84a18.279,18.279,0,0,1-4.048-.576c.848-.336,1.728-.736,2.336-1.04.352.1.48.032.608-.112l-1.488-1.04a18.109,18.109,0,0,1-2.08,2,5.978,5.978,0,0,1-2.464-1.456h2.4v.48Zm9.792-9.024H7.9c.224,0,.384-.08.432-.256C7.728,11.224,6.7,10.44,6.7,10.44l-.912,1.168H3.168v-1.44c.384-.064.5-.208.528-.416L1.712,9.576v2.032H-2.656ZM-5.7,9.96A5.418,5.418,0,0,1-4.16,12.072c1.424.864,2.464-1.856-1.408-2.24Zm-.976,3.6a4.215,4.215,0,0,1,1.3,2.064c1.376.944,2.528-1.744-1.152-2.192Zm4.224-.624c-2.512,5.92-2.512,5.92-2.816,6.48-.176.3-.24.3-.448.3H-6.4v.336a1.468,1.468,0,0,1,.784.24c.352.24.432,1.632.176,3.28.08.544.368.816.688.816a1.12,1.12,0,0,0,1.12-1.216c.048-1.36-.5-2.032-.512-2.816a6.972,6.972,0,0,1,.208-1.408c.192-.752,1.2-4.128,1.76-5.952Zm2.176,2.592A16.2,16.2,0,0,0,.992,13.1c.416.016.56-.08.624-.256l-1.968-.688a18.887,18.887,0,0,1-3.376,6.976l.16.192a13.085,13.085,0,0,0,2.112-2.1V24.36h.24a1.653,1.653,0,0,0,1.088-.384v-7.9a.652.652,0,0,0,.512-.288Zm3.344.224c.144-.24.272-.48.4-.72H6.016A14.339,14.339,0,0,1,4.176,20.2,8.79,8.79,0,0,1,2.5,16.68c.192-.288.368-.576.528-.848a4.257,4.257,0,0,1,.96,2.048c1.088.9,2.256-1.264-.816-2.192Zm3.68-2.016-.832.832H3.712c.256-.528.5-1.04.672-1.52.416,0,.544-.1.608-.288l-1.984-.608A20.072,20.072,0,0,1,.256,18.9l.192.176A12.683,12.683,0,0,0,2.272,17a13.891,13.891,0,0,0,1.28,4.08A10.755,10.755,0,0,1-.1,24.12l.144.224a11.91,11.91,0,0,0,4.048-2.4A6.94,6.94,0,0,0,7.36,24.36,1.654,1.654,0,0,1,8.544,22.9l.032-.16a8.5,8.5,0,0,1-3.6-1.728,13.406,13.406,0,0,0,2.592-5.76c.352-.032.5-.08.624-.224Zm4.992,4.352a12.113,12.113,0,0,1,2.7-7.936l-.352-.3a10.79,10.79,0,0,0,0,16.48l.352-.3A12.262,12.262,0,0,1,11.744,18.088Zm4.656-8.3a5.68,5.68,0,0,1,1.488,2.24c1.392.912,2.528-1.776-1.344-2.368Zm-.96,3.568a4.164,4.164,0,0,1,1.28,2.1c1.36.944,2.512-1.712-1.136-2.208Zm4.192-.928c-2.576,6.368-2.576,6.368-2.864,6.944-.16.32-.224.32-.432.32h-.688v.32a1.384,1.384,0,0,1,.784.256c.368.24.448,1.632.176,3.3.08.544.352.8.688.8a1.117,1.117,0,0,0,1.1-1.216c.032-1.36-.512-2.032-.528-2.832a6.611,6.611,0,0,1,.224-1.44c.192-.816,1.248-4.432,1.824-6.368Zm4.32,7.3h1.312a8.188,8.188,0,0,0,1.072,2.256c-.816.112-1.632.224-2.384.32ZM21.76,15.128h6.32v.432H28.3a.443.443,0,0,0,.144-.016l-.592.7H21.664l-.96-.368c.528-.032,1.056-.3,1.056-.416Zm1.232-3.584v1.3H21.76v-1.3Zm2.5,0v1.3H24.24v-1.3Zm2.592,0v1.3H26.736v-1.3ZM26.736,13.3H28.08V14.68H26.736Zm-2.5,0h1.248V14.68H24.24ZM21.76,14.68V13.3h1.232V14.68Zm6.848,5.088a15.6,15.6,0,0,1-1.584,1.648,5.95,5.95,0,0,1-1.408-1.7h4.416c.224,0,.368-.08.416-.24-.56-.5-1.456-1.136-1.456-1.136l-.784.928H21.392c.032-.384.032-.736.032-1.072V16.712h8.384c.224,0,.384-.08.416-.256-.384-.352-.944-.768-1.264-1.008.256-.1.464-.192.48-.256V11.784a1.136,1.136,0,0,0,.656-.336l-1.488-1.1-.688.736H26.736V10.072c.32-.048.464-.176.48-.384l-1.728-.176V11.08H24.24V10.072c.32-.048.464-.192.48-.384l-1.728-.176V11.08H21.856l-1.44-.592v5.28l-.352-.144v2.592a9.133,9.133,0,0,1-1.6,5.936l.176.192a6.131,6.131,0,0,0,2.7-4.624h1.28v2.752c-.688.08-1.248.144-1.632.176l.848,1.712a.578.578,0,0,0,.4-.352c1.936-.784,3.3-1.392,4.256-1.824a6.536,6.536,0,0,0,3.056,2.176,1.366,1.366,0,0,1,.992-1.184L30.56,23a7.921,7.921,0,0,1-3.152-1.3A13.64,13.64,0,0,0,29.36,21c.32.112.48.08.608-.064ZM21.6,17.72l.128.464H28.96c.224,0,.384-.08.432-.256-.56-.48-1.424-1.1-1.424-1.1l-.768.9Zm19.552-2.992V16.7H38.528V14.728Zm-6.624,0h2.56v3.36h.24c.544,0,1.2-.3,1.2-.432v-.5h2.624v.816h.24c.576,0,1.248-.3,1.248-.432V14.728h3.248c.224,0,.384-.08.432-.256-.56-.544-1.488-1.312-1.488-1.312L44,14.264H42.64V13.112c.384-.048.5-.192.528-.384l-2.016-.192v1.728H38.528V13.128c.384-.064.5-.208.528-.4l-1.968-.192v1.728h-2.56V12.04h11.36c.224,0,.4-.08.432-.256-.592-.576-1.616-1.376-1.616-1.376l-.912,1.184H40.128V10.12c.416-.048.56-.208.592-.432L38.656,9.5v2.1H34.784l-1.728-.752v4.816c0,2.88-.112,6.032-1.536,8.512l.208.144c2.672-2.4,2.8-5.952,2.8-8.656Zm7.424,4.432A8.478,8.478,0,0,1,39.9,21.336a6.614,6.614,0,0,1-2.576-2.176Zm1.024-1.2-.96.736h-7.04l.144.464h1.824a7.808,7.808,0,0,0,2.064,2.768A18.248,18.248,0,0,1,33.3,24.1l.1.24a19.546,19.546,0,0,0,6.512-1.76,14.159,14.159,0,0,0,5.424,1.776,1.635,1.635,0,0,1,1.2-1.408V22.76a20.824,20.824,0,0,1-5.376-.912,9.641,9.641,0,0,0,2.528-2.432c.416-.016.576-.064.7-.208Zm6.672-5.248h5.28v-1.5h-5.92l-.368,5.5.464.176a5.532,5.532,0,0,1,1.7-.272,2.587,2.587,0,0,1,2.688,2.912c0,1.92-.976,3.072-2.64,3.072a3.664,3.664,0,0,1-1.056-.144l-.272-1.2c-.192-.848-.464-1.136-.992-1.136a.872.872,0,0,0-.864.592c.288,1.632,1.488,2.528,3.376,2.528,2.528,0,4.24-1.488,4.24-3.824,0-2.368-1.568-3.68-3.952-3.68a6.056,6.056,0,0,0-1.888.272Zm8.832,4.32c0-4.288.96-5.424,2.048-5.424,1.04,0,2.016,1.152,2.016,5.424,0,4.4-.976,5.568-2.016,5.568C59.44,22.6,58.48,21.448,58.48,17.032Zm2.048-6.048c-1.968,0-3.808,1.7-3.808,6.048,0,4.5,1.84,6.208,3.808,6.208,1.936,0,3.776-1.712,3.776-6.208C64.3,12.68,62.464,10.984,60.528,10.984Zm7.056,3.9c0-2.416.608-3.264,1.3-3.264.72,0,1.28.848,1.28,3.264,0,2.384-.544,3.2-1.28,3.2C68.176,18.088,67.584,17.272,67.584,14.888Zm8.3,4.688c0-2.4.592-3.248,1.28-3.248.736,0,1.3.848,1.3,3.248,0,2.384-.544,3.2-1.3,3.2C76.464,22.776,75.888,21.96,75.888,19.576Zm1.28-3.68c-1.28,0-2.608,1.088-2.608,3.68,0,2.576,1.328,3.632,2.608,3.632,1.344,0,2.608-1.056,2.608-3.632C79.776,16.984,78.512,15.9,77.168,15.9Zm-8.288-4.7c-1.28,0-2.608,1.088-2.608,3.7,0,2.56,1.328,3.632,2.608,3.632,1.344,0,2.608-1.072,2.608-3.632C71.488,12.28,70.224,11.192,68.88,11.192Zm.5,12.16,8.144-11.68-.624-.416-8.144,11.7Zm14.88-5.264a12.054,12.054,0,0,1-2.7,7.936l.352.3a10.79,10.79,0,0,0,0-16.48l-.352.3A12.233,12.233,0,0,1,84.256,18.088Z" transform="translate(570 21618)" fill="#3c505a"/>
  </g>
</svg>
