<svg xmlns="http://www.w3.org/2000/svg" width="714" height="68" viewBox="0 0 714 68">
  <g id="Group_67" data-name="Group 67" transform="translate(-443 -21591)">
    <g id="Path_146" data-name="Path 146" transform="translate(443 21591)" fill="#fff">
      <path d="M 712.6593017578125 67 L 1.344739437103271 67 L 10.95772743225098 35.01190948486328 L 11.04236316680908 34.7300910949707 L 10.96090888977051 34.44736480712891 L 1.32858681678772 1 L 712.667724609375 1 L 703.039794921875 34.1008186340332 L 702.9576416015625 34.38327407836914 L 703.0415649414062 34.66518020629883 L 712.6593017578125 67 Z" stroke="none"/>
      <path d="M 2.65728759765625 2 L 12.084716796875 34.73609161376953 L 2.68939208984375 66 L 711.3185424804688 66 L 701.915283203125 34.3863639831543 L 711.3353271484375 2 L 2.65728759765625 2 M 0 0 L 714 0 L 704 34.38009262084961 L 714 68 L 0 68 L 10 34.72409057617188 L 0 0 Z" stroke="none" fill="#ffbe00"/>
    </g>
    <path id="Path_293" data-name="Path 293" d="M-318.18-18.21l-1.59,1.59H-327l.27.87h7.14c-1.05,5.67-3.57,11.46-8.07,15.15l.3.36c6.36-3.48,9.33-9.3,10.74-15.12.66-.03.96-.15,1.17-.42Zm14.55-1.8A53.671,53.671,0,0,1-309-12.63a28.466,28.466,0,0,1-2.97-8.7v-2.7c.78-.12.99-.39,1.08-.81l-3.99-.42V-1.41c0,.45-.18.63-.72.63-.75,0-4.38-.27-4.38-.27V-.6A5.517,5.517,0,0,1-317.01.45a3.3,3.3,0,0,1,.84,2.1c3.72-.33,4.2-1.59,4.2-3.75v-18c1.68,9.87,5.19,14.94,10.11,18.81a3.435,3.435,0,0,1,2.58-2.52l.12-.3A23.05,23.05,0,0,1-308.64-12a52.25,52.25,0,0,0,7.41-5.49c.66.12.96,0,1.14-.3ZM-288.45-.93c-1.95,0-3.12-.75-3.12-1.8,0-1.29,1.83-2.4,4.71-2.4a15.076,15.076,0,0,1,2.94.27C-283.98-2.13-285.09-.93-288.45-.93Zm6.57-5.76c-.24-2.25-.33-5.43-.33-6.84,0-.42.03-.96.06-1.53a5.587,5.587,0,0,0,2.37.81,18.752,18.752,0,0,0,5.01-.84c.84-.33,1.14-.75,1.14-1.23,0-1.05-1.14-1.41-2.31-1.41a14.03,14.03,0,0,0-1.86.72,13.839,13.839,0,0,1-3.78.69,2.745,2.745,0,0,1-.48-.03,17.393,17.393,0,0,1,.42-3.03c.24-.84.69-1.11.69-1.83,0-.96-2.07-2.22-3.93-2.22a6.178,6.178,0,0,0-2.61.78l.03.48a8.277,8.277,0,0,1,2.19.51,1.05,1.05,0,0,1,.78,1.08c.09.72.21,4.74.24,6.51.03,1.86.21,4.83.3,7.2-.45-.03-.93-.06-1.41-.06-4.02,0-7.59,1.41-7.59,4.47,0,2.43,2.37,3.81,5.61,3.81,4.29,0,5.85-1.98,5.85-4.41,0-.42-.03-.78-.06-1.14a14.8,14.8,0,0,1,2.19,1.05c2.88,1.65,3.93,3.54,5.16,3.54a1.055,1.055,0,0,0,1.17-1.2c0-1.77-2.4-3.39-4.47-4.35a21.413,21.413,0,0,0-4.38-1.44Zm23.04-13.26c0,1.83-1.38,7.17-1.38,10.23a8.3,8.3,0,0,0,.51,3.06,1.536,1.536,0,0,0,1.5,1.05,1.181,1.181,0,0,0,1.23-1.23c0-1.2-.21-2.16-.21-3.48a11.982,11.982,0,0,1,1.47-5.64c1.02-2.01,2.67-3.21,3.93-3.21,1.92,0,3.12,2.52,3.12,7.65s-1.5,10.23-9.12,13.26l.27.63c8.67-1.77,11.88-6.96,11.88-13.5,0-6-2.01-9.45-5.52-9.45-1.98,0-3.96,1.71-5.43,4.35-.3.54-.54.51-.48-.06a16.788,16.788,0,0,1,.66-2.7,6.561,6.561,0,0,0,.45-1.95c0-.87-1.14-2.34-2.46-3.06a5.6,5.6,0,0,0-1.86-.57l-.3.33A5.725,5.725,0,0,1-258.84-19.95Zm27.48,8.34c0-1.35,2.52-2.85,4.47-2.97-.33,1.44-.69,3.27-.99,5.04C-230.28-9.9-231.36-10.68-231.36-11.61Zm10.26-1.41c2.67,2.04,4.62,3.99,4.62,7.35,0,2.73-2.19,5.1-5.79,5.1-2.79,0-4.59-1.29-4.59-4.17a12.467,12.467,0,0,1,.18-2.01,16.409,16.409,0,0,0,3.39.06c1.2-.15,1.77-.6,1.77-1.35,0-.84-.6-1.23-1.53-1.29-.66-.06-1.77,0-3.12-.06.42-1.8.99-3.66,1.47-5.1a11.608,11.608,0,0,0,1.74.03c.81-.06,1.32-.3,1.32-1.02,0-.66-.48-1.38-1.77-1.53l-.39-.03a17.265,17.265,0,0,1,1.14-2.58c.36-.69.84-.99.84-1.65,0-.93-2.01-2.64-3.69-2.64a7.224,7.224,0,0,0-1.92.27l-.03.57a7.436,7.436,0,0,1,1.44.51,1.2,1.2,0,0,1,.75,1.26,35.563,35.563,0,0,1-.96,4.14,13.147,13.147,0,0,1-3.36-.69,5.867,5.867,0,0,1-2.79-2.37l-.45.24a4.694,4.694,0,0,0,1.89,3.36,6.884,6.884,0,0,0,2.07.99c-2.16,1.14-3.78,2.85-3.78,4.53,0,1.77,1.59,3.33,4.41,4.05a19.757,19.757,0,0,0-.18,2.46c0,3.72,2.16,6.3,6.57,6.3,5.76,0,8.19-3.63,8.19-6.66,0-3.48-2.22-6.42-7.08-8.52ZM-180.42-6h-.36a33.463,33.463,0,0,1-1.23,4.53.712.712,0,0,1-.69.48c-.39.03-1.26.03-2.31.03h-2.67c-.99,0-1.11-.15-1.11-.63V-11.64h8.37c.45,0,.75-.15.84-.48-1.23-1.11-3.3-2.73-3.3-2.73l-1.83,2.34h-7.26v-6h9.24c.42,0,.75-.15.81-.48-1.26-1.08-3.21-2.52-3.21-2.52l-1.74,2.16h-5.1v-4.62c.78-.15,1.05-.45,1.11-.87l-4.05-.36v5.85h-5.07a24.488,24.488,0,0,0,1.56-3.48c.66.03.99-.24,1.11-.63l-3.99-1.08a28.549,28.549,0,0,1-4.14,10.92l.39.3a16.9,16.9,0,0,0,4.59-5.19h5.55v6h-12.33l.27.87h8.1c-.33,6.3-2.04,10.71-8.55,13.89l.15.39c8.46-2.37,11.1-6.99,11.7-14.28h3.9V-.87c0,2.1.6,2.7,3.39,2.7h3.03c4.8,0,5.94-.57,5.94-1.83,0-.6-.18-.93-1.05-1.26Zm11.76-5.31c-.75,1.5-2.34,4.74-3.06,5.82-.27.42-.54.39-.72-.03a4.917,4.917,0,0,1-.36-2.19,17.039,17.039,0,0,1,2.1-7.32c.72-1.53,1.14-2.13,1.14-2.88,0-1.5-1.5-3.03-2.31-3.6a5.8,5.8,0,0,0-1.98-.96l-.39.36a5.134,5.134,0,0,1,1.59,3.39,14.838,14.838,0,0,1-.72,3.78,29.636,29.636,0,0,0-1.35,7.77,12.577,12.577,0,0,0,1.8,7.02,2.394,2.394,0,0,0,1.77,1.23c.81,0,1.23-.48,1.23-1.35,0-.84-.6-1.83-.6-2.82a10.781,10.781,0,0,1,.42-2.25c.3-1.11,1.5-4.05,2.1-5.67Zm2.97,2.82a8.64,8.64,0,0,0,.18,2.58c.63,3.3,3.06,5.37,8.31,5.37,3.45,0,6.39-.39,6.39-1.98,0-.93-1.11-1.38-2.19-1.38a26,26,0,0,1-4.98.57c-3.72,0-5.22-.9-6.33-2.85a11.308,11.308,0,0,1-.81-2.4Zm1.08-8.37a19.2,19.2,0,0,1,5.22-.87c2.13,0,2.04.27,1.71.63-.54.54-2.34,1.92-3.66,2.97l.45.48a36.816,36.816,0,0,1,4.95-2.52,18.622,18.622,0,0,1,2.88-.57c.69-.12.99-.42.99-1.02a1.554,1.554,0,0,0-1.05-1.38,8.924,8.924,0,0,0-4.23-.72,13.145,13.145,0,0,0-7.5,2.4Zm28.11-5.43c.42,0,.72-.15.78-.48-1.02-.93-2.64-2.22-2.64-2.22l-1.47,1.83h-6.15l.24.87Zm-9.27,11.58h9.27c.42,0,.72-.15.81-.48-.96-.93-2.52-2.16-2.52-2.16l-1.38,1.77h-6.42Zm6.18-4.74h-6.42l.24.84h9.27c.42,0,.72-.15.81-.45-.96-.9-2.52-2.13-2.52-2.13Zm-3.6,14.91V-6.96h4.02V-.54Zm3.72-7.29h-3.6l-2.73-1.14V2.55h.36c1.11,0,2.25-.57,2.25-.81V.33h4.02V2.04h.42a3.351,3.351,0,0,0,2.19-.84V-6.54a2.127,2.127,0,0,0,1.2-.6l-2.79-2.13Zm1.26-11.46h-9.27l.24.84h12.42c.42,0,.72-.15.81-.48-1.05-.93-2.73-2.25-2.73-2.25ZM-120.9-5.58h-.36a30.258,30.258,0,0,1-1.26,4.32.8.8,0,0,1-.78.45c-.48.03-1.59.06-2.91.06h-3.33c-1.23,0-1.41-.18-1.41-.75V-12.51h6.48v1.47h.45a3.986,3.986,0,0,0,2.34-.84v-9.69a2.031,2.031,0,0,0,1.23-.6l-2.94-2.25-1.38,1.5h-9.24l.27.87h9.27v8.67h-6.09l-3.18-1.26V-.87c0,2.16.72,2.7,3.69,2.7h3.6c5.43,0,6.72-.48,6.72-1.74,0-.54-.24-.87-1.11-1.17Zm8.1,0V-7.56h2.52v1.98Zm2.52-4.8v1.95h-2.52v-1.95Zm5.16,0v1.95h-2.55v-1.95Zm-2.55,4.8V-7.56h2.55v1.98Zm6.57,3.99c.42,0,.72-.15.81-.48-1.05-.93-2.76-2.22-2.76-2.22l-1.47,1.86h-3.15V-4.71h2.55v.69h.42a3.279,3.279,0,0,0,2.04-.78v-5.34a1.791,1.791,0,0,0,.93-.45l-2.43-1.83-1.2,1.2h-2.31V-13.2h5.85c.42,0,.72-.15.78-.48-1.05-.93-2.67-2.1-2.67-2.1l-1.44,1.71h-2.52v-1.65c.6-.09.81-.33.84-.69l-3.45-.36v2.7h-6l.21.87h5.79v1.98h-2.37l-2.55-1.08v8.7h.33c1.02,0,2.07-.54,2.07-.75v-.36h2.52v2.28h-6.6l.24.84h6.36V2.46h.51c.96,0,2.1-.54,2.1-.81V-1.59Zm11.4-3.72-.33-.06A25.41,25.41,0,0,1-91.5-1.8c-.27.54-.45.57-.87.15a10.039,10.039,0,0,1-2.88-3.66,29.407,29.407,0,0,0,3.63-8.1c.81,0,1.02-.21,1.14-.57l-3.78-.99a32.02,32.02,0,0,1-2.07,6.93,37.933,37.933,0,0,1-1.32-9h7.38c.42,0,.75-.15.84-.48-.9-.78-2.22-1.8-2.85-2.28,1.44-.6,1.35-3.69-4.2-4.26l-.27.24a8.549,8.549,0,0,1,2.97,3.81,2.038,2.038,0,0,0,.84.3l-1.47,1.8h-3.27c-.06-1.95-.06-3.99-.03-6.06.78-.12,1.02-.45,1.08-.84l-3.96-.45c0,2.55.03,5.01.15,7.35h-7.14v-2.97h5.37c.42,0,.72-.15.78-.48-1.02-.99-2.7-2.31-2.7-2.31l-1.47,1.92h-1.98v-2.31c.78-.12,1.05-.42,1.08-.84l-3.87-.33v3.48h-5.22l.24.87h4.98v2.97h-6.87l.27.87h16.59A38.931,38.931,0,0,0-98.01-4.77a21.716,21.716,0,0,1-6.36,6.78l.27.36a21.319,21.319,0,0,0,6.99-5.25,14.029,14.029,0,0,0,3.24,3.99c1.26,1.08,3.24,2.1,4.29.96.39-.39.24-1.14-.66-2.58Zm11.28-16.5c1.74.06,2.73.18,3.24.96.54.81,1.2,2.1,1.86,3.3a22.167,22.167,0,0,1-5.31.96c-2.22,0-3.27-.51-5.16-2.04l-.48.39c1.47,2.76,2.52,3.96,5.94,3.9a24.181,24.181,0,0,0,6.27-1.11A53.954,53.954,0,0,0-67.8-9.81c.27.27.18.33-.15.27a23.823,23.823,0,0,0-6.18-.87c-4.74,0-8.28,2.55-8.28,5.88,0,3.93,4.29,5.82,9.69,5.82,4.14,0,5.64-.69,5.64-1.71s-.96-1.44-2.1-1.44c-1.11,0-2.28.33-4.44.33-4.41,0-6.72-1.47-6.72-3.54,0-2.34,2.31-4.11,5.55-4.11a13.676,13.676,0,0,1,7.23,2.16c.93.57,1.44,1.11,2.25,1.11.9,0,1.41-1.47,1.38-2.43,0-.6-.27-.96-.96-1.65a31.3,31.3,0,0,1-5.19-6.12,19.684,19.684,0,0,0,5.4-2.85,1.2,1.2,0,0,0,.24-1.59,2.315,2.315,0,0,0-2.04-.42c-.75.27-1.65,1.47-4.77,2.7a26.977,26.977,0,0,1-1.41-3.99c-.18-.63-1.44-1.11-2.88-1.11a5.844,5.844,0,0,0-2.97,1.05ZM-49.98-3.57c0,.54-.24.6-.57.27-.36-.39-1.23-1.38-1.95-2.22.87-1.29,1.74-2.58,2.58-3.84C-50.01-7.02-49.95-4.77-49.98-3.57Zm20.97-2.04a7.593,7.593,0,0,1-5.1,2.16c-1.38,0-1.98-.6-1.98-2.19,0-3.12,1.2-6.66,1.2-9.27,0-2.91-1.23-4.44-3.78-4.44-2.67,0-5.73,2.1-8.1,4.2l.06-.06c.42-.48.69-.75.69-1.14,0-.27-.54-.9-1.08-1.26.21-.75.39-1.38.54-1.77.36-1.05.72-1.41.72-2.1,0-.99-1.8-2.58-3.3-2.58a5.817,5.817,0,0,0-2.16.48l.03.54a7.637,7.637,0,0,1,1.74.6c.54.24.66.42.66,1.08,0,.75-.18,2.22-.39,3.99-1.47.75-4.23,2.07-5.07,2.07-.63,0-1.11-.54-1.59-1.38l-.48.15a5.406,5.406,0,0,0,.06,1.56,3.978,3.978,0,0,0,3,2.52c.57,0,.87-.78,1.5-1.2.54-.33,1.44-.87,2.31-1.35-.06.66-.12,1.32-.18,2.01a67.339,67.339,0,0,1-6.36,8.13,2.47,2.47,0,0,0-.78,1.89c0,.87.51,1.41,1.08,1.41.63-.03.99-.6,1.47-1.29l1.35-2.01a18.747,18.747,0,0,1,1.71,3.09,12.2,12.2,0,0,1,.6,2.22c.12.78.48,1.23,1.32,1.23.99,0,1.71-1.41,1.71-2.85a24.319,24.319,0,0,0-.27-2.52,51.6,51.6,0,0,1-.24-8.1l.03-.39c2.67-3.24,6-5.85,8.55-5.85,1.47,0,1.98.99,1.98,2.85,0,3.27-1.23,6.6-1.23,10.08,0,2.94,1.47,4.29,3.75,4.29,3,0,5.25-2.28,6.42-4.38ZM-13.8-1.08c-2.55,0-3.87-.81-3.87-1.92,0-.93.75-1.53,1.86-1.53,1.68,0,3,1.23,3.39,3.39C-12.87-1.11-13.32-1.08-13.8-1.08Zm-6.63-21.3a4.8,4.8,0,0,0-.12,1.83c.15.96,1.38,2.7,2.88,2.7.57,0,1.05-.48,1.62-.78a24.6,24.6,0,0,1,4.41-1.77c.42-.06.69.12.27.66-1.41,2.07-7.35,7.71-11.04,11.46-.87.84-1.26,1.38-1.29,2.1-.06.96.51,1.62,1.05,1.62.6.03.9-.18,1.5-.99,2.55-3.27,5.49-6.12,9.66-6.12,3.57,0,5.43,2.28,5.37,4.92a5.364,5.364,0,0,1-3.96,5.13,5.088,5.088,0,0,0-5.07-4.2c-2.13,0-3.75,1.26-3.75,3.09,0,2.4,2.46,3.87,5.91,3.87,5.97,0,9.45-3.18,9.48-7.08.06-4.35-3.3-6.9-7.26-6.9a15.319,15.319,0,0,0-5.1,1.02c-.27.12-.42-.12-.15-.39a69.511,69.511,0,0,1,6.84-6.06c1.02-.78,1.92-.96,1.92-1.68,0-1.08-2.07-2.7-3.27-2.7-.54,0-.57.39-1.53.69a32.653,32.653,0,0,1-6.06,1.32c-.78,0-1.38-.9-1.83-1.8Zm27,10.02h5.88v3.21H6.57Zm5.88-4.05v3.18H6.57v-3.18Zm.09,11.67H10.83V-8.28h1.62v.72h.42a3.832,3.832,0,0,0,2.22-.72v-7.71a2.477,2.477,0,0,0,1.2-.57l-2.82-2.13-1.29,1.41H10.86v-3.06h5.16c.45,0,.72-.15.81-.48-1.05-1.05-2.88-2.49-2.88-2.49l-1.59,2.1h-1.5v-2.94c.75-.12.99-.39,1.02-.81l-3.81-.33v4.08H2.7l.24.87H8.07v3.06H6.72L3.93-18.45v11.4h.39c1.11,0,2.25-.6,2.25-.84v-.39h1.5v3.54H2.61l.24.87H8.07V2.58h.45a3.3,3.3,0,0,0,2.31-.63V-3.87h5.28c.42,0,.69-.15.78-.48-1.05-1.02-2.82-2.43-2.82-2.43ZM26.07-8.52H24.15v-5.1h3.39c.42,0,.72-.15.81-.48-1.02-.96-2.67-2.34-2.67-2.34l-1.44,1.95H17.4l.24.87h3.72v5.1H16.14l.24.87h4.98V2.52h.48c1.44,0,2.31-.54,2.31-.69V-7.65H29.7c.45,0,.75-.15.81-.48-1.05-1.08-2.85-2.61-2.85-2.61ZM21.3-25.23c-.6,3.39-3.45,8.37-6.09,11.01l.24.36a21.24,21.24,0,0,0,8.28-9.69,17.784,17.784,0,0,0,5.46,9.27,2.758,2.758,0,0,1,1.86-2.28l.03-.36a15.923,15.923,0,0,1-6.96-6.96c.69-.06.99-.21,1.02-.54Zm16.02-.12a44.481,44.481,0,0,1-1.68,5.4,10.134,10.134,0,0,0-2.25-.84l-.3.21a10.345,10.345,0,0,1,2.64,4.53c1.89,1.35,3.57-1.5.54-3.51a23.632,23.632,0,0,0,3.6-3.9c.66,0,1.02-.21,1.14-.57Zm3.3,16.56a14.6,14.6,0,0,1,1.35,5.94c2.01,2.04,4.5-2.43-.96-6.09Zm-.21-6.51a14.441,14.441,0,0,1,1.23,2.46c-1.56.09-3.06.21-4.38.3a41.425,41.425,0,0,0,5.79-7.41c.66.06,1.05-.15,1.2-.48l-3.57-1.38a51.756,51.756,0,0,1-4.62,9.33c-1.41.09-2.55.15-3.3.15l.87,2.82a1.138,1.138,0,0,0,.78-.63c1.11-.27,2.13-.54,3.06-.78v3.06L34.5-8.55A31.874,31.874,0,0,1,32.58.12l.48.27a19.366,19.366,0,0,0,3.75-7.5,1.43,1.43,0,0,0,.66-.15V2.55h.45c1.32,0,2.16-.57,2.16-.75V-11.64l1.8-.54a8.685,8.685,0,0,1,.45,2.16c2.13,1.98,4.47-2.49-1.59-5.46ZM53.34-.72V-11.07h3.3V-.72Zm-5.7-10.35h3.15V-.72H47.64ZM50.79-21.6v9.66H47.64V-21.6Zm5.85,0v9.66h-3.3V-21.6Zm1.26-2.52-1.44,1.65H48l-3-1.17V2.34h.45c1.32,0,2.19-.57,2.19-.78V.15h9V2.07h.42a2.866,2.866,0,0,0,2.31-.84V-21.3a2.011,2.011,0,0,0,1.32-.6Zm9,14.64c.15-1.98.15-3.87.15-5.58v-.66h2.94v6.24Zm3.09-13.14v6.03H67.05v-6.03Zm.99-2.31-1.26,1.47H67.5l-3.06-1.2v9.63c0,5.7-.03,12.18-2.01,17.37l.45.24C65.46-.6,66.45-4.68,66.81-8.61h3.18V-1.2c0,.42-.12.6-.6.6-.51,0-2.82-.18-2.82-.18v.45A3.166,3.166,0,0,1,68.64.6a3.754,3.754,0,0,1,.54,1.92c3.09-.3,3.45-1.44,3.45-3.42V-22.23a2.021,2.021,0,0,0,1.14-.57ZM89.49-4.89h-.33a19.377,19.377,0,0,1-1.17,3.54c-.21.3-.39.39-.9.42-.54.06-1.92.06-3.63.06H79.35c-1.41,0-1.62-.15-1.62-.69v-8.4h3.75v1.59h.42a3.2,3.2,0,0,0,2.07-.81v-6.27a1.572,1.572,0,0,0,.87-.45l-2.43-1.83-1.14,1.2H75.63A21.451,21.451,0,0,0,78-20.01h8.97c-.15,8.28-.42,11.73-1.14,12.48a.942.942,0,0,1-.84.3c-.51,0-1.62-.06-2.37-.12v.45a3.245,3.245,0,0,1,1.74.81,2.917,2.917,0,0,1,.39,1.86A4.091,4.091,0,0,0,87.78-5.4c1.26-1.23,1.62-4.53,1.74-14.22a1.869,1.869,0,0,0,1.2-.51l-2.64-2.25-1.44,1.5H78.45a27.316,27.316,0,0,0,1.2-2.7,1.052,1.052,0,0,0,1.14-.6l-3.78-1.14a31.762,31.762,0,0,1-4.2,10.89l.42.27a14.649,14.649,0,0,0,2.28-2.25l.24.75h5.73v4.86H78.12l-3-1.2V-.93c0,2.13.75,2.61,3.9,2.61h4.26c6.15,0,7.44-.54,7.44-1.77,0-.54-.24-.84-1.14-1.14Zm12.54-15.45h17.7c.42,0,.75-.15.81-.48-1.17-1.11-3.12-2.64-3.12-2.64l-1.74,2.25h-3.45v-2.76c.78-.09,1.05-.39,1.11-.81l-3.93-.36v3.93h-7.62Zm2.91.66a12.828,12.828,0,0,1,1.65,5.7c2.31,2.28,5.07-2.76-1.29-5.85Zm-6.03,3.6h3.72c.42,0,.72-.15.78-.48-.87-1.05-2.46-2.61-2.46-2.61l-1.41,2.22h-.63v-6.51c.81-.12,1.05-.42,1.11-.84l-3.87-.39v7.74H92.67l.24.87h3.24v9.9c-1.71.39-3.09.69-3.93.84l1.5,3.51a1.126,1.126,0,0,0,.72-.75c4.05-2.13,6.99-3.84,8.94-5.01l-.12-.36c-1.47.39-2.97.75-4.35,1.11ZM106.74-.99v-6.9h8.61v6.9Zm8.34-7.77h-8.16l-2.94-1.23V2.55h.42c1.17,0,2.34-.63,2.34-.9V-.12h8.61V2.25h.48a3.954,3.954,0,0,0,2.4-.81V-7.38a2.031,2.031,0,0,0,1.23-.63l-2.97-2.31Zm1.05-4.17H112.8a32.54,32.54,0,0,0,3.96-5.43c.66,0,.99-.24,1.11-.6l-4.02-1.17a44.229,44.229,0,0,1-1.77,7.2h-11.1l.24.87h18.93c.42,0,.72-.15.81-.48-1.14-1.11-3.09-2.7-3.09-2.7Zm15.66,7.59V-7.38h9.66v2.04Zm0,.87h4.35a11.822,11.822,0,0,0,2.1,2.7c-2.25.24-4.47.45-6.45.63Zm9.33-9.72a12.629,12.629,0,0,0,1.17,1.92l-1.08,1.11h-3.3v-1.38c.6-.12.81-.36.84-.69l-3.48-.33v2.4h-3.09l-.9-.36a15.664,15.664,0,0,0,2.22-2.67Zm-9.33,3.87h9.66v2.07h-9.66ZM141.9-3.57a4.551,4.551,0,0,0,2.34-.69v-5.79h.06a19.675,19.675,0,0,0,4.56,3,2.953,2.953,0,0,1,2.04-2.46l.06-.33c-3.21-.72-6.9-2.22-9-4.35h7.53c.42,0,.75-.15.81-.48-1.14-.96-3-2.34-3-2.34l-1.65,1.98h-7.74v-2.34h9.51c.39,0,.72-.15.78-.48-1.08-.93-2.85-2.16-2.85-2.16l-1.5,1.77h-5.94v-2.19h10.98c.45,0,.72-.15.78-.48-1.11-.99-2.94-2.34-2.94-2.34l-1.62,1.95h-5.67a23.749,23.749,0,0,0,3.27-2.43c.66.06,1.02-.15,1.17-.51l-3.84-1.17a40.886,40.886,0,0,1-1.56,4.11h-4.74c1.17-.87.84-3.57-4.08-3.99l-.27.21a9.7,9.7,0,0,1,2.55,3.78h-8.07l.27.87h11.01v2.19h-9.84l.24.87h9.6v2.34H123.12l.24.84h6.66a22.3,22.3,0,0,1-7.68,7.44l.27.42a27.523,27.523,0,0,0,6.42-3.3V-.9c-1.71.15-3.12.24-4.05.3l1.59,3.21a1.138,1.138,0,0,0,.78-.63c5.01-1.41,8.52-2.46,10.98-3.3l-.03-.39c2.43,2.25,5.82,3.45,10.11,4.17A2.945,2.945,0,0,1,150.33.03V-.3a34.273,34.273,0,0,1-7.59-1.08c1.59-.63,3.24-1.38,4.38-1.95.66.18.9.06,1.14-.21l-2.79-1.95a33.955,33.955,0,0,1-3.9,3.75,11.209,11.209,0,0,1-4.62-2.73h4.5v.9Zm18.36-16.92h19.56c.42,0,.72-.15.81-.48-1.14-1.11-3.06-2.58-3.06-2.58l-1.71,2.19h-4.92v-2.7c.72-.12.93-.39.99-.78l-3.72-.33v3.81h-8.19Zm-5.94-3.96a10.159,10.159,0,0,1,2.88,3.96c2.67,1.62,4.62-3.48-2.64-4.2Zm-1.83,6.75a7.9,7.9,0,0,1,2.43,3.87c2.58,1.77,4.74-3.27-2.16-4.11Zm7.92-1.17c-4.71,11.1-4.71,11.1-5.28,12.15-.33.57-.45.57-.84.57H153v.63a2.752,2.752,0,0,1,1.47.45c.66.45.81,3.06.33,6.15.15,1.02.69,1.53,1.29,1.53a2.1,2.1,0,0,0,2.1-2.28c.09-2.55-.93-3.81-.96-5.28a13.072,13.072,0,0,1,.39-2.64c.36-1.41,2.25-7.74,3.3-11.16Zm4.08,4.86a30.367,30.367,0,0,0,2.37-4.56c.78.03,1.05-.15,1.17-.48l-3.69-1.29c-.99,3.93-3.27,9.48-6.33,13.08l.3.36a24.535,24.535,0,0,0,3.96-3.93V2.55h.45a3.1,3.1,0,0,0,2.04-.72V-12.99a1.222,1.222,0,0,0,.96-.54Zm6.27.42c.27-.45.51-.9.75-1.35h4.77a26.885,26.885,0,0,1-3.45,9.69,16.481,16.481,0,0,1-3.15-6.6c.36-.54.69-1.08.99-1.59a7.982,7.982,0,0,1,1.8,3.84c2.04,1.68,4.23-2.37-1.53-4.11Zm6.9-3.78-1.56,1.56h-4.14c.48-.99.93-1.95,1.26-2.85.78,0,1.02-.18,1.14-.54l-3.72-1.14c-.78,3.69-2.64,9.12-5.16,12.66l.36.33a23.781,23.781,0,0,0,3.42-3.9,26.045,26.045,0,0,0,2.4,7.65,20.165,20.165,0,0,1-6.84,5.7l.27.42a22.331,22.331,0,0,0,7.59-4.5,13.012,13.012,0,0,0,6.12,4.53,3.1,3.1,0,0,1,2.22-2.73l.06-.3a15.943,15.943,0,0,1-6.75-3.24,25.136,25.136,0,0,0,4.86-10.8c.66-.06.93-.15,1.17-.42Zm9.36,8.16c0-5.49,1.14-9.42,5.07-14.88l-.66-.57c-4.77,4.38-7.17,9.27-7.17,15.45,0,6.15,2.4,11.04,7.17,15.45l.66-.57C188.22.27,187.02-3.75,187.02-9.21Zm8.73-15.57a10.651,10.651,0,0,1,2.79,4.2c2.61,1.71,4.74-3.33-2.52-4.44Zm-1.8,6.69a7.808,7.808,0,0,1,2.4,3.93c2.55,1.77,4.71-3.21-2.13-4.14Zm7.86-1.74c-4.83,11.94-4.83,11.94-5.37,13.02-.3.6-.42.6-.81.6h-1.29v.6a2.6,2.6,0,0,1,1.47.48c.69.45.84,3.06.33,6.18.15,1.02.66,1.5,1.29,1.5A2.1,2.1,0,0,0,199.5.27c.06-2.55-.96-3.81-.99-5.31a12.4,12.4,0,0,1,.42-2.7c.36-1.53,2.34-8.31,3.42-11.94Zm8.1,13.68h2.46a15.352,15.352,0,0,0,2.01,4.23c-1.53.21-3.06.42-4.47.6Zm-4.11-8.61h11.85v.81h.42a.831.831,0,0,0,.27-.03l-1.11,1.32H205.62l-1.8-.69c.99-.06,1.98-.57,1.98-.78Zm2.31-6.72v2.43H205.8v-2.43Zm4.68,0v2.43h-2.34v-2.43Zm4.86,0v2.43h-2.52v-2.43Zm-2.52,3.3h2.52v2.58h-2.52Zm-4.68,0h2.34v2.58h-2.34ZM205.8-15.6v-2.58h2.31v2.58Zm12.84,9.54a29.239,29.239,0,0,1-2.97,3.09,11.157,11.157,0,0,1-2.64-3.18h8.28c.42,0,.69-.15.78-.45-1.05-.93-2.73-2.13-2.73-2.13l-1.47,1.74H205.11c.06-.72.06-1.38.06-2.01v-2.79h15.72c.42,0,.72-.15.78-.48-.72-.66-1.77-1.44-2.37-1.89.48-.18.87-.36.9-.48v-6.39a2.13,2.13,0,0,0,1.23-.63l-2.79-2.07-1.29,1.38h-2.22v-1.89c.6-.09.87-.33.9-.72l-3.24-.33v2.94h-2.34v-1.89c.6-.09.87-.36.9-.72l-3.24-.33v2.94h-2.13l-2.7-1.11v9.9l-.66-.27v4.86c0,3.6-.3,7.74-3,11.13l.33.36a11.5,11.5,0,0,0,5.07-8.67h2.4V-.99c-1.29.15-2.34.27-3.06.33l1.59,3.21a1.083,1.083,0,0,0,.75-.66c3.63-1.47,6.18-2.61,7.98-3.42a12.254,12.254,0,0,0,5.73,4.08A2.562,2.562,0,0,1,222.27.33L222.3,0a14.852,14.852,0,0,1-5.91-2.43,25.576,25.576,0,0,0,3.66-1.32c.6.21.9.15,1.14-.12ZM205.5-9.9l.24.87H219.3c.42,0,.72-.15.81-.48-1.05-.9-2.67-2.07-2.67-2.07L216-9.9Zm36.66-5.61v3.69h-4.92v-3.69Zm-12.42,0h4.8v6.3h.45c1.02,0,2.25-.57,2.25-.81v-.93h4.92v1.53h.45c1.08,0,2.34-.57,2.34-.81v-5.28h6.09c.42,0,.72-.15.81-.48-1.05-1.02-2.79-2.46-2.79-2.46l-1.56,2.07h-2.55v-2.16c.72-.09.93-.36.99-.72l-3.78-.36v3.24h-4.92v-2.13c.72-.12.93-.39.99-.75l-3.69-.36v3.24h-4.8v-4.17h21.3c.42,0,.75-.15.81-.48-1.11-1.08-3.03-2.58-3.03-2.58l-1.71,2.22h-6.87v-2.76c.78-.09,1.05-.39,1.11-.81l-3.87-.36v3.93h-7.26l-3.24-1.41v9.03c0,5.4-.21,11.31-2.88,15.96l.39.27c5.01-4.5,5.25-11.16,5.25-16.23ZM243.66-7.2a15.9,15.9,0,0,1-3.84,4.08,12.4,12.4,0,0,1-4.83-4.08Zm1.92-2.25-1.8,1.38h-13.2l.27.87h3.42a14.64,14.64,0,0,0,3.87,5.19,34.215,34.215,0,0,1-10.71,4.08l.18.45a36.648,36.648,0,0,0,12.21-3.3,26.548,26.548,0,0,0,10.17,3.33,3.066,3.066,0,0,1,2.25-2.64V-.45a39.046,39.046,0,0,1-10.08-1.71,18.078,18.078,0,0,0,4.74-4.56c.78-.03,1.08-.12,1.32-.39Zm12.51-9.84h9.9v-2.82h-11.1l-.69,10.32.87.33a10.374,10.374,0,0,1,3.18-.51c3.06,0,5.04,1.98,5.04,5.46,0,3.6-1.83,5.76-4.95,5.76a6.87,6.87,0,0,1-1.98-.27l-.51-2.25c-.36-1.59-.87-2.13-1.86-2.13a1.636,1.636,0,0,0-1.62,1.11c.54,3.06,2.79,4.74,6.33,4.74,4.74,0,7.95-2.79,7.95-7.17,0-4.44-2.94-6.9-7.41-6.9a11.355,11.355,0,0,0-3.54.51Zm16.56,8.1c0-8.04,1.8-10.17,3.84-10.17,1.95,0,3.78,2.16,3.78,10.17,0,8.25-1.83,10.44-3.78,10.44C276.45-.75,274.65-2.91,274.65-11.19Zm3.84-11.34c-3.69,0-7.14,3.18-7.14,11.34,0,8.43,3.45,11.64,7.14,11.64,3.63,0,7.08-3.21,7.08-11.64C285.57-19.35,282.12-22.53,278.49-22.53Zm13.23,7.32c0-4.53,1.14-6.12,2.43-6.12,1.35,0,2.4,1.59,2.4,6.12,0,4.47-1.02,6-2.4,6C292.83-9.21,291.72-10.74,291.72-15.21Zm15.57,8.79c0-4.5,1.11-6.09,2.4-6.09,1.38,0,2.43,1.59,2.43,6.09,0,4.47-1.02,6-2.43,6C308.37-.42,307.29-1.95,307.29-6.42Zm2.4-6.9c-2.4,0-4.89,2.04-4.89,6.9,0,4.83,2.49,6.81,4.89,6.81,2.52,0,4.89-1.98,4.89-6.81C314.58-11.28,312.21-13.32,309.69-13.32Zm-15.54-8.82c-2.4,0-4.89,2.04-4.89,6.93,0,4.8,2.49,6.81,4.89,6.81,2.52,0,4.89-2.01,4.89-6.81C299.04-20.1,296.67-22.14,294.15-22.14Zm.93,22.8,15.27-21.9-1.17-.78L293.91-.09Zm27.9-9.87c0,5.46-1.11,9.42-5.07,14.88l.66.57c4.77-4.38,7.17-9.3,7.17-15.45,0-6.18-2.4-11.04-7.17-15.45l-.66.57C321.78-18.69,322.98-14.7,322.98-9.21Z" transform="translate(800 21636)" fill="#3c505a"/>
  </g>
</svg>
