<svg xmlns="http://www.w3.org/2000/svg" width="608.038" height="294.039" viewBox="0 0 608.038 294.039">
  <g id="Group_428" data-name="Group 428" transform="translate(-595.999 -19370)">
    <g id="Group_421" data-name="Group 421" transform="translate(402.726 -1892)">
      <g id="Group_26" data-name="Group 26" transform="translate(-15253.474 6646.806) rotate(-45)">
        <g id="Ellipse_11" data-name="Ellipse 11" transform="translate(530 21315)" fill="rgba(255,255,255,0.35)" stroke="#a9a9a9" stroke-width="1">
          <circle cx="57.996" cy="57.996" r="57.996" stroke="none"/>
          <circle cx="57.996" cy="57.996" r="57.496" fill="none"/>
        </g>
        <line id="Line_4" data-name="Line 4" x2="35.953" transform="translate(530.001 21372.633)" fill="none" stroke="#a9a9a9" stroke-width="1"/>
        <line id="Line_5" data-name="Line 5" x2="41.08" transform="translate(604.913 21372.633)" fill="none" stroke="#a9a9a9" stroke-width="1"/>
      </g>
      <path id="Path_292" data-name="Path 292" d="M-20.32-4.064V-.5h-7.344V-4.064Zm-8.512,5.3h1.168V.576h7.344v.656H-19.1V-5.136h-9.728ZM-28-8.192v1.056h8.016V-8.192Zm3.3-5.152a17.972,17.972,0,0,1-6.7,5.888,4.325,4.325,0,0,1,.736.944,19.7,19.7,0,0,0,6.64-5.68,21.4,21.4,0,0,0,6.768,5.584,5.432,5.432,0,0,1,.784-1.024A19.007,19.007,0,0,1-23.5-13.344Zm19.424.752a16.379,16.379,0,0,1,2.832,1.92l.736-.816a15.262,15.262,0,0,0-2.864-1.824Zm2.272,4.32a15.845,15.845,0,0,1-2.048,4.32A28.859,28.859,0,0,1-5.936-9.5H-.848v-1.168H-6.016c-.048-.864-.064-1.76-.064-2.688H-7.312c.016.912.032,1.808.1,2.688h-6.672v4.464c0,2.064-.144,4.8-1.456,6.752a4.733,4.733,0,0,1,.992.8c1.44-2.08,1.68-5.3,1.68-7.536V-6.32H-9.76c-.064,2.752-.144,3.76-.368,4-.1.144-.256.176-.48.176-.272,0-.96-.016-1.7-.08a2.473,2.473,0,0,1,.336,1.12,18.462,18.462,0,0,0,1.9,0,1.238,1.238,0,0,0,.96-.464c.336-.416.432-1.76.512-5.344v-.512h-4.08V-9.5h5.52A31.461,31.461,0,0,0-5.984-2.768,12.768,12.768,0,0,1-9.664.192a6.7,6.7,0,0,1,.864.944A14.3,14.3,0,0,0-5.5-1.52C-4.768.128-3.808,1.1-2.576,1.1-1.36,1.1-.928.32-.7-2.4a2.812,2.812,0,0,1-1.024-.64C-1.84-.912-2.032-.08-2.48-.08c-.816,0-1.552-.912-2.144-2.48A18.041,18.041,0,0,0-1.808-7.968ZM11.7-4.1v1.44H4.48V-4.1ZM4.48-.288v-1.5H11.7v1.5ZM3.312,1.232H4.48V.672H11.7V1.2h1.216V-5.04h-9.6ZM15.04-8.656V-9.728H8.592V-11.52a32.594,32.594,0,0,0,4.72-.816l-.9-.928a61.55,61.55,0,0,1-10.16,1.2,3.846,3.846,0,0,1,.3,1.008c1.536-.064,3.2-.176,4.816-.336v1.664H.976v1.072H6.112A14.75,14.75,0,0,1,.656-5.12a4.316,4.316,0,0,1,.784.944A15.111,15.111,0,0,0,7.376-8.592v3.1H8.592v-3.1a17.047,17.047,0,0,0,6,4.24,4.481,4.481,0,0,1,.784-.96,15.812,15.812,0,0,1-5.5-3.344ZM27.376-10.3a12.334,12.334,0,0,0-2.512-1.952l-.608.8a13.219,13.219,0,0,1,2.512,2.064ZM26.688-6.48A12.446,12.446,0,0,0,24-8.272l-.56.832A11.976,11.976,0,0,1,26.1-5.52Zm-4.624-5.952a29.555,29.555,0,0,1-1.056,3.6l.768.256a32.739,32.739,0,0,0,1.312-3.6ZM18.736-8.864a14.539,14.539,0,0,0-.944-3.5l-.864.208a15.45,15.45,0,0,1,.864,3.552ZM20.48-6.928h2.608v-1.12H20.48v-5.28h-1.1v5.28h-2.56v1.12h2.24a16.453,16.453,0,0,1-2.5,4.976A7.173,7.173,0,0,1,17.168-.8a18.35,18.35,0,0,0,2.208-4.56V1.216h1.1v-6.56c.576.9,1.328,2.128,1.616,2.72l.784-.928c-.352-.544-1.952-2.656-2.4-3.152Zm10.912,3.28-.176-1.088L29.328-4.4v-8.976h-1.12v9.184l-5.152.912.192,1.1,4.96-.9V1.216h1.12v-4.5Z" transform="translate(275.274 21351)" fill="#3c505a"/>
    </g>
    <g id="Group_422" data-name="Group 422" transform="translate(550.726 -1892)">
      <g id="Group_26-2" data-name="Group 26" transform="translate(-15253.474 6646.806) rotate(-45)">
        <g id="Ellipse_11-2" data-name="Ellipse 11" transform="translate(530 21315)" fill="rgba(255,255,255,0.35)" stroke="#a9a9a9" stroke-width="1">
          <circle cx="57.996" cy="57.996" r="57.996" stroke="none"/>
          <circle cx="57.996" cy="57.996" r="57.496" fill="none"/>
        </g>
        <line id="Line_4-2" data-name="Line 4" x2="35.953" transform="translate(530.001 21372.633)" fill="none" stroke="#a9a9a9" stroke-width="1"/>
        <line id="Line_5-2" data-name="Line 5" x2="41.08" transform="translate(604.913 21372.633)" fill="none" stroke="#a9a9a9" stroke-width="1"/>
      </g>
      <path id="Path_291" data-name="Path 291" d="M-28.32-4.064V-.5h-7.344V-4.064Zm-8.512,5.3h1.168V.576h7.344v.656H-27.1V-5.136h-9.728ZM-36-8.192v1.056h8.016V-8.192Zm3.3-5.152a17.972,17.972,0,0,1-6.7,5.888,4.325,4.325,0,0,1,.736.944,19.7,19.7,0,0,0,6.64-5.68,21.4,21.4,0,0,0,6.768,5.584,5.432,5.432,0,0,1,.784-1.024A19.007,19.007,0,0,1-31.5-13.344Zm19.424.752a16.379,16.379,0,0,1,2.832,1.92l.736-.816a15.262,15.262,0,0,0-2.864-1.824Zm2.272,4.32a15.845,15.845,0,0,1-2.048,4.32,28.859,28.859,0,0,1-.88-5.552h5.088v-1.168h-5.168c-.048-.864-.064-1.76-.064-2.688h-1.232c.016.912.032,1.808.1,2.688h-6.672v4.464c0,2.064-.144,4.8-1.456,6.752a4.733,4.733,0,0,1,.992.8c1.44-2.08,1.68-5.3,1.68-7.536V-6.32h2.912c-.064,2.752-.144,3.76-.368,4-.1.144-.256.176-.48.176-.272,0-.96-.016-1.7-.08a2.473,2.473,0,0,1,.336,1.12,18.462,18.462,0,0,0,1.9,0,1.238,1.238,0,0,0,.96-.464c.336-.416.432-1.76.512-5.344v-.512h-4.08V-9.5h5.52a31.461,31.461,0,0,0,1.168,6.736,12.768,12.768,0,0,1-3.68,2.96,6.7,6.7,0,0,1,.864.944A14.3,14.3,0,0,0-13.5-1.52c.736,1.648,1.7,2.624,2.928,2.624C-9.36,1.1-8.928.32-8.7-2.4a2.812,2.812,0,0,1-1.024-.64c-.112,2.128-.3,2.96-.752,2.96-.816,0-1.552-.912-2.144-2.48A18.041,18.041,0,0,0-9.808-7.968ZM4.192-4.72v.96H-2.5v-.96ZM-2.5-.3V-1.3H4.192V-.3ZM4.192-2.048H-2.5v-.96H4.192ZM6.88-6.592v-.976H.592v-1.1h4.88V-9.6H.592v-1.1h5.6v-.96H3.12c.352-.4.736-.9,1.1-1.392l-1.248-.368a14.367,14.367,0,0,1-1.088,1.7l.176.064H-2.16l.192-.08a5.91,5.91,0,0,0-1.168-1.648l-1.024.368a9.048,9.048,0,0,1,.944,1.36H-6.144v.96H-.608v1.1H-5.44v.928H-.608v1.1H-6.9v.976h3.344a11.036,11.036,0,0,1-3.856,4.96,6.676,6.676,0,0,1,.9.88,12.49,12.49,0,0,0,2.848-3.12V1.184H-2.5V.608H4.192v.544H5.408V-5.632h-8.08c.144-.32.288-.64.416-.96ZM17.3-11.28A13.569,13.569,0,0,1,16.08-9.44h-4.4a16.684,16.684,0,0,0,1.584-1.84Zm3.488,5.824H16.72v-2.9h4.064Zm-9.04-2.9h3.792v2.9H11.744Zm2.1,8.288c-1.76,0-2.1-.24-2.1-1.232V-4.384h9.04v.72h1.2V-9.44H17.472a16.923,16.923,0,0,0,1.5-2.432l-.8-.512-.224.08H14c.192-.3.384-.592.56-.88l-1.312-.256A14.908,14.908,0,0,1,8.624-8.384a3.293,3.293,0,0,1,.864.832c.368-.272.736-.544,1.072-.848v7.088c0,1.9.784,2.352,3.36,2.352h6.208c2.352,0,2.848-.688,3.12-3.024a3.933,3.933,0,0,1-1.184-.448C21.872-.5,21.632-.064,20.1-.064ZM35.376-10.3a12.334,12.334,0,0,0-2.512-1.952l-.608.8a13.219,13.219,0,0,1,2.512,2.064ZM34.688-6.48A12.446,12.446,0,0,0,32-8.272l-.56.832A11.976,11.976,0,0,1,34.1-5.52Zm-4.624-5.952a29.555,29.555,0,0,1-1.056,3.6l.768.256a32.739,32.739,0,0,0,1.312-3.6ZM26.736-8.864a14.539,14.539,0,0,0-.944-3.5l-.864.208a15.45,15.45,0,0,1,.864,3.552ZM28.48-6.928h2.608v-1.12H28.48v-5.28h-1.1v5.28h-2.56v1.12h2.24a16.453,16.453,0,0,1-2.5,4.976A7.173,7.173,0,0,1,25.168-.8a18.35,18.35,0,0,0,2.208-4.56V1.216h1.1v-6.56c.576.9,1.328,2.128,1.616,2.72l.784-.928c-.352-.544-1.952-2.656-2.4-3.152Zm10.912,3.28-.176-1.088L37.328-4.4v-8.976h-1.12v9.184l-5.152.912.192,1.1,4.96-.9V1.216h1.12v-4.5Z" transform="translate(275.274 21351)" fill="#3c505a"/>
    </g>
    <g id="Group_423" data-name="Group 423" transform="translate(698.726 -1892)">
      <g id="Group_26-3" data-name="Group 26" transform="translate(-15253.474 6646.806) rotate(-45)">
        <g id="Ellipse_11-3" data-name="Ellipse 11" transform="translate(530 21315)" fill="rgba(255,255,255,0.35)" stroke="#a9a9a9" stroke-width="1">
          <circle cx="57.996" cy="57.996" r="57.996" stroke="none"/>
          <circle cx="57.996" cy="57.996" r="57.496" fill="none"/>
        </g>
        <line id="Line_4-3" data-name="Line 4" x2="35.953" transform="translate(530.001 21372.633)" fill="none" stroke="#a9a9a9" stroke-width="1"/>
        <line id="Line_5-3" data-name="Line 5" x2="41.08" transform="translate(604.913 21372.633)" fill="none" stroke="#a9a9a9" stroke-width="1"/>
      </g>
      <path id="Path_290" data-name="Path 290" d="M-19.472-11.152a1.059,1.059,0,0,1,1.056-1.072,1.069,1.069,0,0,1,1.056,1.072A1.065,1.065,0,0,1-18.416-10.1,1.055,1.055,0,0,1-19.472-11.152Zm-.736,0A1.789,1.789,0,0,0-18.416-9.36a1.8,1.8,0,0,0,1.792-1.792,1.813,1.813,0,0,0-1.792-1.808A1.8,1.8,0,0,0-20.208-11.152Zm-8.3,6.336A21.016,21.016,0,0,1-30.976-.464l1.36.576a23.2,23.2,0,0,0,2.352-4.4A35.084,35.084,0,0,0-25.808-9.3c.064-.336.192-.8.288-1.152l-1.424-.3A24.389,24.389,0,0,1-28.512-4.816Zm7.872-.608A47.946,47.946,0,0,1-18.832.08l1.424-.464c-.416-1.44-1.264-3.888-1.92-5.472a51.725,51.725,0,0,0-2.336-5.056l-1.3.432A40.917,40.917,0,0,1-20.64-5.424Zm8.336-6.5v1.328c.432-.032.944-.048,1.44-.048h6.272c.544,0,1.088.016,1.472.048V-11.92a9.966,9.966,0,0,1-1.456.08h-6.288A10.005,10.005,0,0,1-12.3-11.92ZM-1.952-7.7l-.912-.576a2.126,2.126,0,0,1-.88.128h-8.432a15.122,15.122,0,0,1-1.568-.1V-6.9c.576-.032,1.184-.048,1.568-.048h8.5a8.179,8.179,0,0,1-1.9,3.536A10.662,10.662,0,0,1-11.216-.48l.992,1.136A11.586,11.586,0,0,0-4.5-2.688,11.019,11.019,0,0,0-2.16-7.232,2.8,2.8,0,0,1-1.952-7.7Zm13.008-3.152-.912.384a17.71,17.71,0,0,1,1.488,2.576l.944-.432A27.764,27.764,0,0,0,11.056-10.848Zm2.048-.816-.9.416A16.617,16.617,0,0,1,13.744-8.72l.928-.448A20.287,20.287,0,0,0,13.1-11.664ZM.848-4.208l1.2,1.216c.24-.336.592-.832.912-1.232.736-.9,2.064-2.64,2.832-3.584.544-.656.848-.72,1.472-.112.672.656,2.16,2.24,3.088,3.3,1.024,1.168,2.432,2.8,3.568,4.176l1.1-1.168c-1.232-1.312-2.832-3.056-3.9-4.192-.944-1.008-2.3-2.432-3.28-3.36-1.088-1.024-1.84-.848-2.7.16-1.008,1.184-2.4,2.96-3.152,3.728C1.552-4.848,1.264-4.56.848-4.208Zm18.784-7.52-.912.976A33.23,33.23,0,0,1,22.7-7.408l1.008-1.008A35.036,35.036,0,0,0,19.632-11.728ZM18.256-1.008,19.1.3a17.538,17.538,0,0,0,6.288-2.48,15.986,15.986,0,0,0,5.376-5.7L30-9.232a15.072,15.072,0,0,1-5.344,5.888A16.521,16.521,0,0,1,18.256-1.008Z" transform="translate(275.274 21351)" fill="#3c505a"/>
    </g>
    <g id="Group_424" data-name="Group 424" transform="translate(846.726 -1892)">
      <g id="Group_26-4" data-name="Group 26" transform="translate(-15253.474 6646.806) rotate(-45)">
        <g id="Ellipse_11-4" data-name="Ellipse 11" transform="translate(530 21315)" fill="rgba(255,255,255,0.35)" stroke="#a9a9a9" stroke-width="1">
          <circle cx="57.996" cy="57.996" r="57.996" stroke="none"/>
          <circle cx="57.996" cy="57.996" r="57.496" fill="none"/>
        </g>
        <line id="Line_4-4" data-name="Line 4" x2="35.953" transform="translate(530.001 21372.633)" fill="none" stroke="#a9a9a9" stroke-width="1"/>
        <line id="Line_5-4" data-name="Line 5" x2="41.08" transform="translate(604.913 21372.633)" fill="none" stroke="#a9a9a9" stroke-width="1"/>
      </g>
      <path id="Path_289" data-name="Path 289" d="M-15.44-9.776h6.56v-1.088h-3.328v-2.48h-1.136v2.48h-3.2v3.056a25.248,25.248,0,0,1-.7,6.592l-.064-.512-2.224.48v-4.5h2.256v-1.04h-2.256v-1.7h1.808V-9.5H-21.9a15.061,15.061,0,0,0,1.968-2.8,17.257,17.257,0,0,1,2.3,2.64l.8-.9a20.1,20.1,0,0,0-2.72-2.816h-1.072a11.3,11.3,0,0,1-2.992,4.1,4.112,4.112,0,0,1,.736.752c.224-.208.448-.416.656-.624v.672h1.648v1.7h-2.5v1.04h2.5v4.7c-.992.208-1.9.4-2.64.528L-22.96.576c1.52-.32,3.536-.8,5.536-1.248a11.021,11.021,0,0,1-.56,1.328,5.265,5.265,0,0,1,.96.576c1.376-2.656,1.584-6.464,1.584-9.024ZM-22.7-4.7a13.289,13.289,0,0,1,.576,3.04l.88-.224a12.541,12.541,0,0,0-.64-3.008Zm4.528,2.752c.24-.736.544-1.888.8-2.848l-.928-.24a26.991,26.991,0,0,1-.656,2.88ZM-8.512.72A26.9,26.9,0,0,0-10.592-4.5l-.992.336c.448.912.912,1.968,1.28,2.96-1.136.112-2.256.208-3.28.288.576-2.16,1.184-5.232,1.6-7.616l-1.2-.24a65.343,65.343,0,0,1-1.5,7.952c-.448.032-.864.064-1.232.1l.128,1.152c1.6-.16,3.744-.352,5.856-.576.16.48.288.928.384,1.3ZM-1.3-5.232l-.16-1.056-1.856.576V-8.976H-1.68v-1.152H-3.312v-3.248h-1.1v3.248H-5.648c.112-.7.224-1.44.3-2.16l-1.04-.176a18.723,18.723,0,0,1-1.1,5.328,5.655,5.655,0,0,1,.912.528,12.664,12.664,0,0,0,.7-2.368h1.456v3.568c-1.12.352-2.144.624-2.96.848l.32,1.136c.784-.24,1.7-.528,2.64-.816V1.232h1.1V-4.592ZM.928-10.72a22.884,22.884,0,0,0,.7-2.448L.544-13.392a13.667,13.667,0,0,1-2.8,6.144,8,8,0,0,1,.912.688A13.194,13.194,0,0,0,.48-9.6H1.856C1.12-7.04-.3-4.368-2-3.04a3.882,3.882,0,0,1,.944.688C.688-3.872,2.16-6.864,2.88-9.6H4.192C3.36-5.584,1.632-1.648-.992.24A3.6,3.6,0,0,1,0,.96C2.656-1.152,4.416-5.408,5.216-9.6h.768C5.664-3.264,5.312-.9,4.8-.336a.678.678,0,0,1-.592.272c-.32,0-.96-.016-1.68-.08a2.582,2.582,0,0,1,.336,1.168,9.8,9.8,0,0,0,1.824,0,1.376,1.376,0,0,0,1.1-.608c.64-.8.992-3.28,1.344-10.528.016-.144.016-.608.016-.608Zm11.44,3.5A19.183,19.183,0,0,0,9.376-8.832l-.656.88a17.175,17.175,0,0,1,2.992,1.744ZM10.288.976c.8-1.312,1.728-3.04,2.464-4.528l-.88-.752A43.047,43.047,0,0,1,9.248.208Zm-.752-13.3A19.971,19.971,0,0,1,12.608-10.5l.688-.976a16.428,16.428,0,0,0-3.088-1.712ZM18.8-.9V-4.4h2.736V-.9ZM15.008-4.4h2.624V-.9H15.008Zm2.624-4.512v3.376H15.008V-8.912Zm3.9,0v3.376H18.8V-8.912ZM18.8-10.048V-13.36H17.632v3.312h-3.76V1.184h1.136V.24h6.528v.848h1.152V-10.048Z" transform="translate(275.274 21351)" fill="#3c505a"/>
    </g>
    <g id="Group_425" data-name="Group 425" transform="translate(458.726 -1762)">
      <g id="Group_26-5" data-name="Group 26" transform="translate(-15253.473 6646.806) rotate(-45)">
        <g id="Ellipse_11-5" data-name="Ellipse 11" transform="translate(530 21315)" fill="rgba(255,255,255,0.35)" stroke="#a9a9a9" stroke-width="1">
          <circle cx="57.996" cy="57.996" r="57.996" stroke="none"/>
          <circle cx="57.996" cy="57.996" r="57.496" fill="none"/>
        </g>
        <line id="Line_4-5" data-name="Line 4" x2="35.953" transform="translate(530.001 21372.633)" fill="none" stroke="#a9a9a9" stroke-width="1"/>
        <line id="Line_5-5" data-name="Line 5" x2="41.08" transform="translate(604.913 21372.633)" fill="none" stroke="#a9a9a9" stroke-width="1"/>
      </g>
      <path id="Path_288" data-name="Path 288" d="M-36.5-9.6a1.168,1.168,0,0,1,1.184-1.168A1.164,1.164,0,0,1-34.144-9.6a1.175,1.175,0,0,1-1.168,1.168A1.178,1.178,0,0,1-36.5-9.6Zm-.768,0a1.946,1.946,0,0,0,1.952,1.936A1.932,1.932,0,0,0-33.376-9.6a1.946,1.946,0,0,0-1.936-1.952A1.96,1.96,0,0,0-37.264-9.6Zm-9.648,5.392,1.2,1.216c.24-.336.592-.832.912-1.232.736-.9,2.064-2.64,2.832-3.584.544-.656.848-.72,1.472-.112.672.656,2.16,2.24,3.088,3.3,1.024,1.168,2.432,2.8,3.568,4.176l1.1-1.168c-1.232-1.312-2.832-3.056-3.9-4.192-.944-1.008-2.3-2.432-3.28-3.36-1.088-1.024-1.84-.848-2.7.16-1.008,1.184-2.4,2.96-3.152,3.728C-46.208-4.848-46.5-4.56-46.912-4.208ZM-23.376-.336l.848.7A3.424,3.424,0,0,1-21.984,0a15.906,15.906,0,0,0,5.456-4.432L-17.28-5.52a12.294,12.294,0,0,1-4.672,3.936v-9.232A9.9,9.9,0,0,1-21.888-12H-23.36a7.594,7.594,0,0,1,.1,1.184v9.584A3.81,3.81,0,0,1-23.376-.336ZM-30.7-.416-29.5.4A8.942,8.942,0,0,0-26.656-4a35,35,0,0,0,.5-6.8c0-.48.064-.96.08-1.152h-1.472a5.894,5.894,0,0,1,.112,1.168,28.562,28.562,0,0,1-.48,6.432A7.594,7.594,0,0,1-30.7-.416ZM-4.192-12.544l-.848.368a19.392,19.392,0,0,1,1.3,2.208l.864-.384A24.8,24.8,0,0,0-4.192-12.544Zm1.76-.64-.848.368a16.629,16.629,0,0,1,1.328,2.192l.848-.384A19.839,19.839,0,0,0-2.432-13.184Zm-6,.784h-1.5a9.3,9.3,0,0,1,.112,1.328c0,.56-.032,1.1-.064,1.616H-12.7c-.608,0-1.264-.032-1.824-.08v1.344a17.073,17.073,0,0,1,1.84-.064H-10A10.288,10.288,0,0,1-13.168-1.52,7.886,7.886,0,0,1-14.816-.336l1.168.944c2.672-1.84,4.336-4.256,4.912-8.864h4.48c0,1.712-.208,5.648-.816,6.88A.875.875,0,0,1-6-.864,19.466,19.466,0,0,1-8.384-1.04l.16,1.328C-7.392.352-6.464.4-5.648.4A1.64,1.64,0,0,0-3.936-.576c.72-1.536.912-6.192.976-7.728a5,5,0,0,1,.08-.784l-.9-.448a5.766,5.766,0,0,1-1.024.08H-8.608c.032-.528.064-1.072.08-1.648C-8.512-11.488-8.48-12.048-8.432-12.4Zm21.072.912A1.069,1.069,0,0,1,13.7-12.56a1.072,1.072,0,0,1,1.072,1.072A1.069,1.069,0,0,1,13.7-10.432,1.065,1.065,0,0,1,12.64-11.488Zm-.736,0a1.8,1.8,0,0,0,.08.512c-.192.016-.368.016-.512.016H3.44a12.348,12.348,0,0,1-1.6-.112v1.424c.416-.016.96-.048,1.6-.048h8.176A11.975,11.975,0,0,1,9.52-4.48,10.535,10.535,0,0,1,3.28-.64L4.368.56a12.116,12.116,0,0,0,6.3-4.272,15.631,15.631,0,0,0,2.384-5.9.826.826,0,0,0,.032-.176,1.934,1.934,0,0,0,.608.1A1.8,1.8,0,0,0,15.5-11.488,1.816,1.816,0,0,0,13.7-13.3,1.8,1.8,0,0,0,11.9-11.488Zm7.3-.352v1.328c.4-.032.928-.048,1.456-.048H27.12c.464,0,1.024.016,1.488.048V-11.84a11.805,11.805,0,0,1-1.488.1H20.64A13.309,13.309,0,0,1,19.2-11.84ZM17.28-7.824V-6.5c.448-.032.912-.032,1.392-.032h4.8a7.746,7.746,0,0,1-.928,3.968A6.623,6.623,0,0,1,19.52-.112L20.7.768A7.808,7.808,0,0,0,23.856-2.16,9.685,9.685,0,0,0,24.8-6.528h4.352c.384,0,.9.016,1.248.032V-7.824a8.577,8.577,0,0,1-1.248.08H18.672A12.79,12.79,0,0,1,17.28-7.824Zm18.112-3.9-.912.976a33.23,33.23,0,0,1,3.984,3.344l1.008-1.008A35.036,35.036,0,0,0,35.392-11.728ZM34.016-1.008,34.864.3a17.538,17.538,0,0,0,6.288-2.48,15.986,15.986,0,0,0,5.376-5.7l-.768-1.36a15.072,15.072,0,0,1-5.344,5.888A16.521,16.521,0,0,1,34.016-1.008Z" transform="translate(275.274 21351)" fill="#3c505a"/>
    </g>
    <g id="Group_426" data-name="Group 426" transform="translate(606.726 -1762)">
      <g id="Group_26-6" data-name="Group 26" transform="translate(-15253.473 6646.806) rotate(-45)">
        <g id="Ellipse_11-6" data-name="Ellipse 11" transform="translate(530 21315)" fill="rgba(255,255,255,0.35)" stroke="#a9a9a9" stroke-width="1">
          <circle cx="57.996" cy="57.996" r="57.996" stroke="none"/>
          <circle cx="57.996" cy="57.996" r="57.496" fill="none"/>
        </g>
        <line id="Line_4-6" data-name="Line 4" x2="35.953" transform="translate(530.001 21372.633)" fill="none" stroke="#a9a9a9" stroke-width="1"/>
        <line id="Line_5-6" data-name="Line 5" x2="41.08" transform="translate(604.913 21372.633)" fill="none" stroke="#a9a9a9" stroke-width="1"/>
      </g>
      <path id="Path_287" data-name="Path 287" d="M-15.424-12.56l-1.456-.464a5.778,5.778,0,0,1-.512,1.264,14.662,14.662,0,0,1-5.136,5.568l1.072.832a17.454,17.454,0,0,0,4.24-4.24h5.408a13.367,13.367,0,0,1-2.176,4.432c-1.12-.784-2.32-1.552-3.376-2.16l-.864.88c1.024.64,2.24,1.472,3.392,2.3A14.036,14.036,0,0,1-21.024-.288L-19.872.7a15.183,15.183,0,0,0,6.1-4.064c.656.528,1.264,1.024,1.744,1.456l.944-1.1c-.512-.416-1.152-.912-1.824-1.408a16.105,16.105,0,0,0,2.5-4.976,5.251,5.251,0,0,1,.384-.864l-1.056-.64a3.189,3.189,0,0,1-1.056.16H-16.48a5.366,5.366,0,0,0,.336-.576C-15.984-11.6-15.7-12.144-15.424-12.56ZM.384-.336l.848.7A3.424,3.424,0,0,1,1.776,0,15.906,15.906,0,0,0,7.232-4.432L6.48-5.52A12.294,12.294,0,0,1,1.808-1.584v-9.232A9.9,9.9,0,0,1,1.872-12H.4a7.594,7.594,0,0,1,.1,1.184v9.584A3.81,3.81,0,0,1,.384-.336Zm-7.328-.08,1.2.816A8.942,8.942,0,0,0-2.9-4a35,35,0,0,0,.5-6.8c0-.48.064-.96.08-1.152H-3.792a5.894,5.894,0,0,1,.112,1.168,28.562,28.562,0,0,1-.48,6.432A7.594,7.594,0,0,1-6.944-.416ZM16.592-12.432l-1.488-.48a5.479,5.479,0,0,1-.5,1.264A13.19,13.19,0,0,1,9.584-6.24l1.1.832a16.22,16.22,0,0,0,4.064-3.936H20.16A13.154,13.154,0,0,1,17.6-4.352,12.944,12.944,0,0,1,11.216-.336L12.368.7a14.028,14.028,0,0,0,6.368-4.352,15.519,15.519,0,0,0,2.848-5.5A5.028,5.028,0,0,1,21.952-10l-1.072-.656a2.678,2.678,0,0,1-1.04.16H15.5a7.191,7.191,0,0,0,.384-.672A12.1,12.1,0,0,1,16.592-12.432Z" transform="translate(275.274 21351)" fill="#3c505a"/>
    </g>
    <g id="Group_427" data-name="Group 427" transform="translate(754.726 -1762)">
      <g id="Group_26-7" data-name="Group 26" transform="translate(-15253.473 6646.806) rotate(-45)">
        <g id="Ellipse_11-7" data-name="Ellipse 11" transform="translate(530 21315)" fill="rgba(255,255,255,0.35)" stroke="#a9a9a9" stroke-width="1">
          <circle cx="57.996" cy="57.996" r="57.996" stroke="none"/>
          <circle cx="57.996" cy="57.996" r="57.496" fill="none"/>
        </g>
        <line id="Line_4-7" data-name="Line 4" x2="35.953" transform="translate(530.001 21372.633)" fill="none" stroke="#a9a9a9" stroke-width="1"/>
        <line id="Line_5-7" data-name="Line 5" x2="41.08" transform="translate(604.913 21372.633)" fill="none" stroke="#a9a9a9" stroke-width="1"/>
      </g>
      <path id="Path_286" data-name="Path 286" d="M-27.184-12.288l-.72,1.072c.944.544,2.672,1.7,3.44,2.272l.752-1.088C-24.4-10.544-26.24-11.76-27.184-12.288Zm-2.4,11.44.736,1.3a19.918,19.918,0,0,0,5.312-1.984,18.644,18.644,0,0,0,6.144-5.728l-.768-1.312A16.318,16.318,0,0,1-24.224-2.72,17,17,0,0,1-29.584-.848Zm-.016-7.84L-30.3-7.6a35.07,35.07,0,0,1,3.488,2.192l.736-1.12C-26.784-7.04-28.656-8.176-29.6-8.688Zm26.016-3.456h-1.5a11.478,11.478,0,0,1,.08,1.392v2.528c0,3.024-.192,4.32-1.328,5.648A7.335,7.335,0,0,1-10.16-.448l1.04,1.1A8.546,8.546,0,0,0-5.312-1.68c1.152-1.376,1.68-2.64,1.68-6.48v-2.592C-3.632-11.3-3.616-11.744-3.584-12.144Zm-7.424.128h-1.456c.032.3.064.864.064,1.152v5.328A10.487,10.487,0,0,1-12.48-4.3h1.472c-.032-.288-.064-.816-.064-1.216v-5.344C-11.072-11.248-11.04-11.712-11.008-12.016Zm13.76,1.04v1.424C3.12-9.568,3.92-9.6,4.512-9.6h7.664v7.552H4.32a16.894,16.894,0,0,1-1.776-.1V-.688C2.976-.72,3.7-.752,4.352-.752h7.824c-.016.384-.016.72-.032.9h1.44c-.016-.256-.064-.976-.064-1.552V-9.664c0-.384.032-.88.048-1.248-.32.016-.8.032-1.184.032H4.5A16.146,16.146,0,0,1,2.752-10.976Zm16.88-.752-.912.976A33.23,33.23,0,0,1,22.7-7.408l1.008-1.008A35.036,35.036,0,0,0,19.632-11.728ZM18.256-1.008,19.1.3a17.538,17.538,0,0,0,6.288-2.48,15.986,15.986,0,0,0,5.376-5.7L30-9.232a15.072,15.072,0,0,1-5.344,5.888A16.521,16.521,0,0,1,18.256-1.008Z" transform="translate(275.274 21351)" fill="#3c505a"/>
    </g>
  </g>
</svg>
