<svg xmlns="http://www.w3.org/2000/svg" width="393.732" height="206.729" viewBox="0 0 393.732 206.729">
  <g id="Group_435" data-name="Group 435" transform="translate(-290.137 -19469.002)">
    <g id="Group_431" data-name="Group 431" transform="translate(91 -1800)">
      <g id="Group_26" data-name="Group 26" transform="translate(-15247.61 6632.153) rotate(-45)">
        <g id="Ellipse_11" data-name="Ellipse 11" transform="translate(530 21315)" fill="rgba(255,255,255,0.35)" stroke="#a9a9a9" stroke-width="1">
          <circle cx="42.685" cy="42.685" r="42.685" stroke="none"/>
          <circle cx="42.685" cy="42.685" r="42.185" fill="none"/>
        </g>
        <line id="Line_4" data-name="Line 4" x2="26.462" transform="translate(530 21357.418)" fill="none" stroke="#a9a9a9" stroke-width="1"/>
        <line id="Line_5" data-name="Line 5" x2="30.235" transform="translate(585.136 21357.418)" fill="none" stroke="#a9a9a9" stroke-width="1"/>
      </g>
      <path id="Path_280" data-name="Path 280" d="M-15.24-3.048V-.372h-5.508V-3.048ZM-21.624.924h.876V.432h5.508V.924h.912V-3.852h-7.3ZM-21-6.144v.792h6.012v-.792Zm2.472-3.864a13.479,13.479,0,0,1-5.028,4.416A3.243,3.243,0,0,1-23-4.884a14.777,14.777,0,0,0,4.98-4.26,16.049,16.049,0,0,0,5.076,4.188,4.074,4.074,0,0,1,.588-.768,14.255,14.255,0,0,1-5.268-4.284Zm14.568.564A12.284,12.284,0,0,1-1.836-8l.552-.612A11.446,11.446,0,0,0-3.432-9.984Zm1.7,3.24a11.883,11.883,0,0,1-1.536,3.24,21.644,21.644,0,0,1-.66-4.164H-.636V-8H-4.512c-.036-.648-.048-1.32-.048-2.016h-.924c.012.684.024,1.356.072,2.016h-5v3.348A9.313,9.313,0,0,1-11.508.408a3.55,3.55,0,0,1,.744.6C-9.684-.552-9.5-2.964-9.5-4.644v-.1H-7.32c-.048,2.064-.108,2.82-.276,3-.072.108-.192.132-.36.132-.2,0-.72-.012-1.272-.06a1.854,1.854,0,0,1,.252.84,13.846,13.846,0,0,0,1.428,0,.928.928,0,0,0,.72-.348c.252-.312.324-1.32.384-4.008v-.384H-9.5v-1.56h4.14a23.6,23.6,0,0,0,.876,5.052A9.576,9.576,0,0,1-7.248.144,5.023,5.023,0,0,1-6.6.852,10.729,10.729,0,0,0-4.128-1.14C-3.576.1-2.856.828-1.932.828S-.7.24-.528-1.8A2.109,2.109,0,0,1-1.3-2.28C-1.38-.684-1.524-.06-1.86-.06c-.612,0-1.164-.684-1.608-1.86A13.531,13.531,0,0,0-1.356-5.976ZM8.772-3.072v1.08H3.36v-1.08ZM3.36-.216V-1.344H8.772V-.216ZM2.484.924H3.36V.5H8.772V.9h.912V-3.78h-7.2Zm8.8-7.416v-.8H6.444V-8.64a24.445,24.445,0,0,0,3.54-.612l-.672-.7a46.162,46.162,0,0,1-7.62.9,2.884,2.884,0,0,1,.228.756c1.152-.048,2.4-.132,3.612-.252V-7.3H.732v.8H4.584A11.062,11.062,0,0,1,.492-3.84a3.237,3.237,0,0,1,.588.708A11.333,11.333,0,0,0,5.532-6.444v2.328h.912V-6.444a12.785,12.785,0,0,0,4.5,3.18,3.36,3.36,0,0,1,.588-.72A11.859,11.859,0,0,1,7.4-6.492Zm9.252-1.236a9.25,9.25,0,0,0-1.884-1.464l-.456.6a9.914,9.914,0,0,1,1.884,1.548ZM20.016-4.86A9.334,9.334,0,0,0,18-6.2l-.42.624a8.982,8.982,0,0,1,1.992,1.44ZM16.548-9.324a22.167,22.167,0,0,1-.792,2.7l.576.192a24.554,24.554,0,0,0,.984-2.7Zm-2.5,2.676a10.9,10.9,0,0,0-.708-2.628L12.7-9.12a11.587,11.587,0,0,1,.648,2.664ZM15.36-5.2h1.956v-.84H15.36V-10h-.828v3.96h-1.92v.84h1.68A12.34,12.34,0,0,1,12.42-1.464a5.38,5.38,0,0,1,.456.864,13.762,13.762,0,0,0,1.656-3.42V.912h.828v-4.92c.432.672,1,1.6,1.212,2.04l.588-.7c-.264-.408-1.464-1.992-1.8-2.364Zm8.184,2.46-.132-.816L22-3.3v-6.732h-.84v6.888l-3.864.684.144.828,3.72-.672V.912H22V-2.46Z" transform="translate(259.137 21335)" fill="#3c505a"/>
    </g>
    <g id="Group_432" data-name="Group 432" transform="translate(182 -1800)">
      <g id="Group_26-2" data-name="Group 26" transform="translate(-15247.61 6632.153) rotate(-45)">
        <g id="Ellipse_11-2" data-name="Ellipse 11" transform="translate(530 21315)" fill="rgba(255,255,255,0.35)" stroke="#a9a9a9" stroke-width="1">
          <circle cx="42.685" cy="42.685" r="42.685" stroke="none"/>
          <circle cx="42.685" cy="42.685" r="42.185" fill="none"/>
        </g>
        <line id="Line_4-2" data-name="Line 4" x2="26.462" transform="translate(530 21357.418)" fill="none" stroke="#a9a9a9" stroke-width="1"/>
        <line id="Line_5-2" data-name="Line 5" x2="30.235" transform="translate(585.136 21357.418)" fill="none" stroke="#a9a9a9" stroke-width="1"/>
      </g>
      <path id="Path_279" data-name="Path 279" d="M-21.24-3.048V-.372h-5.508V-3.048ZM-27.624.924h.876V.432h5.508V.924h.912V-3.852h-7.3ZM-27-6.144v.792h6.012v-.792Zm2.472-3.864a13.479,13.479,0,0,1-5.028,4.416A3.243,3.243,0,0,1-29-4.884a14.777,14.777,0,0,0,4.98-4.26,16.049,16.049,0,0,0,5.076,4.188,4.074,4.074,0,0,1,.588-.768,14.255,14.255,0,0,1-5.268-4.284Zm14.568.564A12.284,12.284,0,0,1-7.836-8l.552-.612A11.446,11.446,0,0,0-9.432-9.984Zm1.7,3.24a11.883,11.883,0,0,1-1.536,3.24,21.644,21.644,0,0,1-.66-4.164h3.816V-8h-3.876c-.036-.648-.048-1.32-.048-2.016h-.924c.012.684.024,1.356.072,2.016h-5v3.348A9.313,9.313,0,0,1-17.508.408a3.55,3.55,0,0,1,.744.6c1.08-1.56,1.26-3.972,1.26-5.652v-.1h2.184c-.048,2.064-.108,2.82-.276,3-.072.108-.192.132-.36.132-.2,0-.72-.012-1.272-.06a1.854,1.854,0,0,1,.252.84,13.846,13.846,0,0,0,1.428,0,.928.928,0,0,0,.72-.348c.252-.312.324-1.32.384-4.008v-.384H-15.5v-1.56h4.14a23.6,23.6,0,0,0,.876,5.052,9.576,9.576,0,0,1-2.76,2.22A5.023,5.023,0,0,1-12.6.852,10.729,10.729,0,0,0-10.128-1.14C-9.576.1-8.856.828-7.932.828S-6.7.24-6.528-1.8A2.109,2.109,0,0,1-7.3-2.28C-7.38-.684-7.524-.06-7.86-.06c-.612,0-1.164-.684-1.608-1.86A13.531,13.531,0,0,0-7.356-5.976ZM3.144-3.54v.72H-1.872v-.72ZM-1.872-.228V-.972H3.144v.744ZM3.144-1.536H-1.872v-.72H3.144ZM5.16-4.944v-.732H.444V-6.5H4.1v-.7H.444v-.828h4.2v-.72H2.34c.264-.3.552-.672.828-1.044l-.936-.276A10.775,10.775,0,0,1,1.416-8.8l.132.048H-1.62l.144-.06a4.433,4.433,0,0,0-.876-1.236l-.768.276a6.786,6.786,0,0,1,.708,1.02h-2.2v.72H-.456V-7.2H-4.08v.7H-.456v.828H-5.172v.732h2.508a8.277,8.277,0,0,1-2.892,3.72,5.007,5.007,0,0,1,.672.66A9.367,9.367,0,0,0-2.748-2.9V.888h.876V.456H3.144V.864h.912V-4.224H-2c.108-.24.216-.48.312-.72ZM12.972-8.46a10.177,10.177,0,0,1-.912,1.38H8.76A12.513,12.513,0,0,0,9.948-8.46Zm2.616,4.368H12.54V-6.264h3.048ZM8.808-6.264h2.844v2.172H8.808ZM10.38-.048c-1.32,0-1.572-.18-1.572-.924V-3.288h6.78v.54h.9V-7.08H13.1A12.692,12.692,0,0,0,14.232-8.9l-.6-.384-.168.06H10.5c.144-.228.288-.444.42-.66l-.984-.192A11.181,11.181,0,0,1,6.468-6.288a2.47,2.47,0,0,1,.648.624c.276-.2.552-.408.8-.636V-.984C7.92.444,8.508.78,10.44.78H15.1c1.764,0,2.136-.516,2.34-2.268a2.95,2.95,0,0,1-.888-.336C16.4-.372,16.224-.048,15.072-.048Zm16.152-7.68a9.25,9.25,0,0,0-1.884-1.464l-.456.6a9.914,9.914,0,0,1,1.884,1.548ZM26.016-4.86A9.334,9.334,0,0,0,24-6.2l-.42.624a8.982,8.982,0,0,1,1.992,1.44ZM22.548-9.324a22.167,22.167,0,0,1-.792,2.7l.576.192a24.554,24.554,0,0,0,.984-2.7Zm-2.5,2.676a10.9,10.9,0,0,0-.708-2.628L18.7-9.12a11.587,11.587,0,0,1,.648,2.664ZM21.36-5.2h1.956v-.84H21.36V-10h-.828v3.96h-1.92v.84h1.68A12.34,12.34,0,0,1,18.42-1.464a5.38,5.38,0,0,1,.456.864,13.762,13.762,0,0,0,1.656-3.42V.912h.828v-4.92c.432.672,1,1.6,1.212,2.04l.588-.7c-.264-.408-1.464-1.992-1.8-2.364Zm8.184,2.46-.132-.816L28-3.3v-6.732h-.84v6.888l-3.864.684.144.828,3.72-.672V.912H28V-2.46Z" transform="translate(259.137 21335)" fill="#3c505a"/>
    </g>
    <g id="Group_433" data-name="Group 433" transform="translate(273 -1800)">
      <g id="Group_26-3" data-name="Group 26" transform="translate(-15247.61 6632.153) rotate(-45)">
        <g id="Ellipse_11-3" data-name="Ellipse 11" transform="translate(530 21315)" fill="rgba(255,255,255,0.35)" stroke="#a9a9a9" stroke-width="1">
          <circle cx="42.685" cy="42.685" r="42.685" stroke="none"/>
          <circle cx="42.685" cy="42.685" r="42.185" fill="none"/>
        </g>
        <line id="Line_4-3" data-name="Line 4" x2="26.462" transform="translate(530 21357.418)" fill="none" stroke="#a9a9a9" stroke-width="1"/>
        <line id="Line_5-3" data-name="Line 5" x2="30.235" transform="translate(585.136 21357.418)" fill="none" stroke="#a9a9a9" stroke-width="1"/>
      </g>
      <path id="Path_281" data-name="Path 281" d="M-14.6-8.364a.794.794,0,0,1,.792-.8.8.8,0,0,1,.792.8.8.8,0,0,1-.792.792A.791.791,0,0,1-14.6-8.364Zm-.552,0A1.342,1.342,0,0,0-13.812-7.02a1.349,1.349,0,0,0,1.344-1.344A1.36,1.36,0,0,0-13.812-9.72,1.352,1.352,0,0,0-15.156-8.364Zm-6.228,4.752A15.762,15.762,0,0,1-23.232-.348l1.02.432a17.4,17.4,0,0,0,1.764-3.3,26.313,26.313,0,0,0,1.092-3.756c.048-.252.144-.6.216-.864l-1.068-.228A18.292,18.292,0,0,1-21.384-3.612Zm5.9-.456A35.96,35.96,0,0,1-14.124.06l1.068-.348c-.312-1.08-.948-2.916-1.44-4.1a38.794,38.794,0,0,0-1.752-3.792l-.972.324A30.687,30.687,0,0,1-15.48-4.068ZM-9.228-8.94v1c.324-.024.708-.036,1.08-.036h4.7c.408,0,.816.012,1.1.036v-1a7.474,7.474,0,0,1-1.092.06H-8.148A7.5,7.5,0,0,1-9.228-8.94Zm7.764,3.168L-2.148-6.2a1.594,1.594,0,0,1-.66.1H-9.132a11.342,11.342,0,0,1-1.176-.072v1.008c.432-.024.888-.036,1.176-.036H-2.76A6.135,6.135,0,0,1-4.188-2.556,8,8,0,0,1-8.412-.36l.744.852a8.69,8.69,0,0,0,4.3-2.508A8.264,8.264,0,0,0-1.62-5.424,2.1,2.1,0,0,1-1.464-5.772ZM8.292-8.136l-.684.288A13.282,13.282,0,0,1,8.724-5.916l.708-.324A20.823,20.823,0,0,0,8.292-8.136Zm1.536-.612-.672.312a12.462,12.462,0,0,1,1.152,1.9l.7-.336A15.215,15.215,0,0,0,9.828-8.748ZM.636-3.156l.9.912c.18-.252.444-.624.684-.924.552-.672,1.548-1.98,2.124-2.688.408-.492.636-.54,1.1-.084.5.492,1.62,1.68,2.316,2.472.768.876,1.824,2.1,2.676,3.132l.828-.876C10.344-2.2,9.144-3.5,8.34-4.356c-.708-.756-1.728-1.824-2.46-2.52-.816-.768-1.38-.636-2.028.12-.756.888-1.8,2.22-2.364,2.8C1.164-3.636.948-3.42.636-3.156ZM14.724-8.8l-.684.732a24.922,24.922,0,0,1,2.988,2.508l.756-.756A26.277,26.277,0,0,0,14.724-8.8ZM13.692-.756l.636.984a13.153,13.153,0,0,0,4.716-1.86A11.989,11.989,0,0,0,23.076-5.9L22.5-6.924a11.3,11.3,0,0,1-4.008,4.416A12.391,12.391,0,0,1,13.692-.756Z" transform="translate(259.137 21335)" fill="#3c505a"/>
    </g>
    <g id="Group_434" data-name="Group 434" transform="translate(364 -1800)">
      <g id="Group_26-4" data-name="Group 26" transform="translate(-15247.61 6632.153) rotate(-45)">
        <g id="Ellipse_11-4" data-name="Ellipse 11" transform="translate(530 21315)" fill="rgba(255,255,255,0.35)" stroke="#a9a9a9" stroke-width="1">
          <circle cx="42.685" cy="42.685" r="42.685" stroke="none"/>
          <circle cx="42.685" cy="42.685" r="42.185" fill="none"/>
        </g>
        <line id="Line_4-4" data-name="Line 4" x2="26.462" transform="translate(530 21357.418)" fill="none" stroke="#a9a9a9" stroke-width="1"/>
        <line id="Line_5-4" data-name="Line 5" x2="30.235" transform="translate(585.136 21357.418)" fill="none" stroke="#a9a9a9" stroke-width="1"/>
      </g>
      <path id="Path_277" data-name="Path 277" d="M-11.58-7.332h4.92v-.816h-2.5v-1.86h-.852v1.86h-2.4v2.292a18.936,18.936,0,0,1-.528,4.944l-.048-.384-1.668.36V-4.308h1.692v-.78h-1.692V-6.36H-13.3v-.768h-3.132a11.3,11.3,0,0,0,1.476-2.1,12.943,12.943,0,0,1,1.728,1.98l.6-.672a15.078,15.078,0,0,0-2.04-2.112h-.8A8.474,8.474,0,0,1-17.712-6.96a3.084,3.084,0,0,1,.552.564c.168-.156.336-.312.492-.468v.5h1.236v1.272H-17.3v.78h1.872V-.78c-.744.156-1.428.3-1.98.4l.192.816c1.14-.24,2.652-.6,4.152-.936a8.266,8.266,0,0,1-.42,1,3.949,3.949,0,0,1,.72.432A15.853,15.853,0,0,0-11.58-5.844Zm-5.448,3.8a9.966,9.966,0,0,1,.432,2.28l.66-.168a9.406,9.406,0,0,0-.48-2.256Zm3.4,2.064c.18-.552.408-1.416.6-2.136l-.7-.18a20.244,20.244,0,0,1-.492,2.16Zm7.248,2a20.177,20.177,0,0,0-1.56-3.912l-.744.252c.336.684.684,1.476.96,2.22-.852.084-1.692.156-2.46.216.432-1.62.888-3.924,1.2-5.712l-.9-.18A49.007,49.007,0,0,1-11.016-.612c-.336.024-.648.048-.924.072l.1.864C-10.644.2-9.036.06-7.452-.108c.12.36.216.7.288.972ZM-.972-3.924l-.12-.792-1.392.432V-6.732H-1.26V-7.6H-2.484v-2.436h-.828V-7.6h-.924c.084-.528.168-1.08.228-1.62l-.78-.132a14.042,14.042,0,0,1-.828,4,4.241,4.241,0,0,1,.684.4A9.5,9.5,0,0,0-4.4-6.732h1.092v2.676c-.84.264-1.608.468-2.22.636l.24.852c.588-.18,1.272-.4,1.98-.612v4.1h.828V-3.444ZM.7-8.04a17.163,17.163,0,0,0,.528-1.836l-.816-.168a10.251,10.251,0,0,1-2.1,4.608,6,6,0,0,1,.684.516A9.9,9.9,0,0,0,.36-7.2H1.392A10.143,10.143,0,0,1-1.5-2.28a2.912,2.912,0,0,1,.708.516A11.667,11.667,0,0,0,2.16-7.2h.984C2.52-4.188,1.224-1.236-.744.18A2.7,2.7,0,0,1,0,.72C1.992-.864,3.312-4.056,3.912-7.2h.576c-.24,4.752-.5,6.528-.888,6.948a.508.508,0,0,1-.444.2c-.24,0-.72-.012-1.26-.06a1.937,1.937,0,0,1,.252.876,7.35,7.35,0,0,0,1.368,0A1.032,1.032,0,0,0,4.344.312c.48-.6.744-2.46,1.008-7.9.012-.108.012-.456.012-.456Zm8.58,2.628A14.387,14.387,0,0,0,7.032-6.624l-.492.66A12.882,12.882,0,0,1,8.784-4.656ZM7.716.732c.6-.984,1.3-2.28,1.848-3.4L8.9-3.228A32.285,32.285,0,0,1,6.936.156ZM7.152-9.24a14.978,14.978,0,0,1,2.3,1.368L9.972-8.6A12.321,12.321,0,0,0,7.656-9.888ZM14.1-.672V-3.3h2.052V-.672ZM11.256-3.3h1.968V-.672H11.256Zm1.968-3.384v2.532H11.256V-6.684Zm2.928,0v2.532H14.1V-6.684ZM14.1-7.536V-10.02h-.876v2.484H10.4V.888h.852V.18h4.9V.816h.864V-7.536Z" transform="translate(259.137 21335)" fill="#3c505a"/>
    </g>
    <g id="Group_428" data-name="Group 428" transform="translate(137 -1713.725)">
      <g id="Group_26-5" data-name="Group 26" transform="translate(-15247.61 6631.876) rotate(-45)">
        <g id="Ellipse_11-5" data-name="Ellipse 11" transform="translate(530 21315)" fill="rgba(255,255,255,0.35)" stroke="#a9a9a9" stroke-width="1">
          <circle cx="42.685" cy="42.685" r="42.685" stroke="none"/>
          <circle cx="42.685" cy="42.685" r="42.185" fill="none"/>
        </g>
        <line id="Line_4-5" data-name="Line 4" x2="26.462" transform="translate(530 21357.418)" fill="none" stroke="#a9a9a9" stroke-width="1"/>
        <line id="Line_5-5" data-name="Line 5" x2="30.235" transform="translate(585.136 21357.418)" fill="none" stroke="#a9a9a9" stroke-width="1"/>
      </g>
      <path id="Path_276" data-name="Path 276" d="M-27.372-7.2a.876.876,0,0,1,.888-.876.873.873,0,0,1,.876.876.881.881,0,0,1-.876.876A.883.883,0,0,1-27.372-7.2Zm-.576,0a1.46,1.46,0,0,0,1.464,1.452A1.449,1.449,0,0,0-25.032-7.2a1.46,1.46,0,0,0-1.452-1.464A1.47,1.47,0,0,0-27.948-7.2Zm-7.236,4.044.9.912c.18-.252.444-.624.684-.924.552-.672,1.548-1.98,2.124-2.688.408-.492.636-.54,1.1-.084.5.492,1.62,1.68,2.316,2.472.768.876,1.824,2.1,2.676,3.132l.828-.876C-25.476-2.2-26.676-3.5-27.48-4.356c-.708-.756-1.728-1.824-2.46-2.52-.816-.768-1.38-.636-2.028.12-.756.888-1.8,2.22-2.364,2.8C-34.656-3.636-34.872-3.42-35.184-3.156Zm17.652,2.9.636.528A2.568,2.568,0,0,1-16.488,0,11.93,11.93,0,0,0-12.4-3.324l-.564-.816a9.22,9.22,0,0,1-3.5,2.952V-8.112A7.426,7.426,0,0,1-16.416-9h-1.1a5.7,5.7,0,0,1,.072.888V-.924A2.857,2.857,0,0,1-17.532-.252Zm-5.5-.06.9.612A6.707,6.707,0,0,0-19.992-3a26.25,26.25,0,0,0,.372-5.1c0-.36.048-.72.06-.864h-1.1a4.421,4.421,0,0,1,.084.876,21.422,21.422,0,0,1-.36,4.824A5.7,5.7,0,0,1-23.028-.312Zm19.884-9.1-.636.276a14.544,14.544,0,0,1,.972,1.656l.648-.288A18.6,18.6,0,0,0-3.144-9.408Zm1.32-.48-.636.276a12.472,12.472,0,0,1,1,1.644l.636-.288A14.879,14.879,0,0,0-1.824-9.888Zm-4.5.588H-7.452a6.971,6.971,0,0,1,.084,1c0,.42-.024.828-.048,1.212H-9.528c-.456,0-.948-.024-1.368-.06v1.008a12.8,12.8,0,0,1,1.38-.048H-7.5A7.716,7.716,0,0,1-9.876-1.14a5.915,5.915,0,0,1-1.236.888l.876.708c2-1.38,3.252-3.192,3.684-6.648h3.36c0,1.284-.156,4.236-.612,5.16a.657.657,0,0,1-.7.384A14.6,14.6,0,0,1-6.288-.78l.12,1C-5.544.264-4.848.3-4.236.3A1.23,1.23,0,0,0-2.952-.432c.54-1.152.684-4.644.732-5.8a3.753,3.753,0,0,1,.06-.588l-.672-.336a4.325,4.325,0,0,1-.768.06H-6.456c.024-.4.048-.8.06-1.236C-6.384-8.616-6.36-9.036-6.324-9.3Zm15.8.684a.8.8,0,0,1,.792-.8.8.8,0,0,1,.8.8.8.8,0,0,1-.8.792A.8.8,0,0,1,9.48-8.616Zm-.552,0a1.352,1.352,0,0,0,.06.384c-.144.012-.276.012-.384.012H2.58A9.261,9.261,0,0,1,1.38-8.3v1.068c.312-.012.72-.036,1.2-.036H8.712A8.981,8.981,0,0,1,7.14-3.36,7.9,7.9,0,0,1,2.46-.48l.816.9A9.087,9.087,0,0,0,8-2.784,11.723,11.723,0,0,0,9.792-7.212a.619.619,0,0,0,.024-.132,1.451,1.451,0,0,0,.456.072,1.352,1.352,0,0,0,1.356-1.344,1.362,1.362,0,0,0-1.356-1.356A1.352,1.352,0,0,0,8.928-8.616ZM14.4-8.88v1c.3-.024.7-.036,1.092-.036H20.34c.348,0,.768.012,1.116.036v-1a8.854,8.854,0,0,1-1.116.072H15.48A9.982,9.982,0,0,1,14.4-8.88ZM12.96-5.868v1C13.3-4.9,13.644-4.9,14-4.9h3.6a5.809,5.809,0,0,1-.7,2.976A4.968,4.968,0,0,1,14.64-.084l.888.66a5.856,5.856,0,0,0,2.364-2.2A7.264,7.264,0,0,0,18.6-4.9h3.264c.288,0,.672.012.936.024v-1a6.433,6.433,0,0,1-.936.06H14A9.592,9.592,0,0,1,12.96-5.868ZM26.544-8.8l-.684.732a24.922,24.922,0,0,1,2.988,2.508l.756-.756A26.277,26.277,0,0,0,26.544-8.8ZM25.512-.756l.636.984a13.153,13.153,0,0,0,4.716-1.86A11.989,11.989,0,0,0,34.9-5.9l-.576-1.02a11.3,11.3,0,0,1-4.008,4.416A12.391,12.391,0,0,1,25.512-.756Z" transform="translate(259.137 21334.725)" fill="#3c505a"/>
    </g>
    <g id="Group_429" data-name="Group 429" transform="translate(228 -1713.725)">
      <g id="Group_26-6" data-name="Group 26" transform="translate(-15247.61 6631.876) rotate(-45)">
        <g id="Ellipse_11-6" data-name="Ellipse 11" transform="translate(530 21315)" fill="rgba(255,255,255,0.35)" stroke="#a9a9a9" stroke-width="1">
          <circle cx="42.685" cy="42.685" r="42.685" stroke="none"/>
          <circle cx="42.685" cy="42.685" r="42.185" fill="none"/>
        </g>
        <line id="Line_4-6" data-name="Line 4" x2="26.462" transform="translate(530 21357.418)" fill="none" stroke="#a9a9a9" stroke-width="1"/>
        <line id="Line_5-6" data-name="Line 5" x2="30.235" transform="translate(585.136 21357.418)" fill="none" stroke="#a9a9a9" stroke-width="1"/>
      </g>
      <path id="Path_275" data-name="Path 275" d="M-11.568-9.42l-1.092-.348a4.334,4.334,0,0,1-.384.948A11,11,0,0,1-16.9-4.644l.8.624a13.09,13.09,0,0,0,3.18-3.18h4.056a10.025,10.025,0,0,1-1.632,3.324c-.84-.588-1.74-1.164-2.532-1.62l-.648.66c.768.48,1.68,1.1,2.544,1.728A10.527,10.527,0,0,1-15.768-.216l.864.744A11.387,11.387,0,0,0-10.332-2.52c.492.4.948.768,1.308,1.092l.708-.828C-8.7-2.568-9.18-2.94-9.684-3.312A12.079,12.079,0,0,0-7.812-7.044a3.938,3.938,0,0,1,.288-.648l-.792-.48a2.391,2.391,0,0,1-.792.12H-12.36a4.024,4.024,0,0,0,.252-.432C-11.988-8.7-11.772-9.108-11.568-9.42ZM.288-.252.924.276A2.568,2.568,0,0,1,1.332,0,11.93,11.93,0,0,0,5.424-3.324L4.86-4.14a9.22,9.22,0,0,1-3.5,2.952V-8.112A7.426,7.426,0,0,1,1.4-9H.3a5.7,5.7,0,0,1,.072.888V-.924A2.857,2.857,0,0,1,.288-.252Zm-5.5-.06.9.612A6.707,6.707,0,0,0-2.172-3,26.25,26.25,0,0,0-1.8-8.1c0-.36.048-.72.06-.864h-1.1a4.421,4.421,0,0,1,.084.876,21.422,21.422,0,0,1-.36,4.824A5.7,5.7,0,0,1-5.208-.312ZM12.444-9.324l-1.116-.36a4.109,4.109,0,0,1-.372.948A9.892,9.892,0,0,1,7.188-4.68l.828.624a12.165,12.165,0,0,0,3.048-2.952H15.12A9.865,9.865,0,0,1,13.2-3.264,9.708,9.708,0,0,1,8.412-.252l.864.78a10.521,10.521,0,0,0,4.776-3.264,11.639,11.639,0,0,0,2.136-4.128,3.771,3.771,0,0,1,.276-.636l-.8-.492a2.008,2.008,0,0,1-.78.12H11.628a5.393,5.393,0,0,0,.288-.5A9.074,9.074,0,0,1,12.444-9.324Z" transform="translate(259.137 21334.725)" fill="#3c505a"/>
    </g>
    <g id="Group_430" data-name="Group 430" transform="translate(319 -1713.725)">
      <g id="Group_26-7" data-name="Group 26" transform="translate(-15247.61 6631.876) rotate(-45)">
        <g id="Ellipse_11-7" data-name="Ellipse 11" transform="translate(530 21315)" fill="rgba(255,255,255,0.35)" stroke="#a9a9a9" stroke-width="1">
          <circle cx="42.685" cy="42.685" r="42.685" stroke="none"/>
          <circle cx="42.685" cy="42.685" r="42.185" fill="none"/>
        </g>
        <line id="Line_4-7" data-name="Line 4" x2="26.462" transform="translate(530 21357.418)" fill="none" stroke="#a9a9a9" stroke-width="1"/>
        <line id="Line_5-7" data-name="Line 5" x2="30.235" transform="translate(585.136 21357.418)" fill="none" stroke="#a9a9a9" stroke-width="1"/>
      </g>
      <path id="Path_278" data-name="Path 278" d="M-20.388-9.216l-.54.8c.708.408,2,1.272,2.58,1.7l.564-.816C-18.3-7.908-19.68-8.82-20.388-9.216Zm-1.8,8.58.552.972a14.939,14.939,0,0,0,3.984-1.488,13.983,13.983,0,0,0,4.608-4.3l-.576-.984A12.239,12.239,0,0,1-18.168-2.04,12.747,12.747,0,0,1-22.188-.636Zm-.012-5.88-.528.816a26.3,26.3,0,0,1,2.616,1.644l.552-.84C-20.088-5.28-21.492-6.132-22.2-6.516ZM-2.688-9.108H-3.816a8.609,8.609,0,0,1,.06,1.044v1.9c0,2.268-.144,3.24-1,4.236A5.5,5.5,0,0,1-7.62-.336l.78.828A6.41,6.41,0,0,0-3.984-1.26c.864-1.032,1.26-1.98,1.26-4.86V-8.064C-2.724-8.472-2.712-8.808-2.688-9.108Zm-5.568.1H-9.348c.024.228.048.648.048.864v4a7.865,7.865,0,0,1-.06.924h1.1C-8.28-3.444-8.3-3.84-8.3-4.14V-8.148C-8.3-8.436-8.28-8.784-8.256-9.012Zm10.32.78v1.068c.276-.012.876-.036,1.32-.036H9.132v5.664H3.24a12.671,12.671,0,0,1-1.332-.072V-.516c.324-.024.864-.048,1.356-.048H9.132c-.012.288-.012.54-.024.672h1.08c-.012-.192-.048-.732-.048-1.164V-7.248c0-.288.024-.66.036-.936-.24.012-.6.024-.888.024H3.372A12.11,12.11,0,0,1,2.064-8.232ZM14.724-8.8l-.684.732a24.922,24.922,0,0,1,2.988,2.508l.756-.756A26.277,26.277,0,0,0,14.724-8.8ZM13.692-.756l.636.984a13.153,13.153,0,0,0,4.716-1.86A11.989,11.989,0,0,0,23.076-5.9L22.5-6.924a11.3,11.3,0,0,1-4.008,4.416A12.391,12.391,0,0,1,13.692-.756Z" transform="translate(259.137 21334.725)" fill="#3c505a"/>
    </g>
  </g>
</svg>
