<svg xmlns="http://www.w3.org/2000/svg" width="191.372" height="62.855" viewBox="0 0 191.372 62.855">
  <g id="Group_190" data-name="Group 190" transform="translate(-725.491 -19274.6)">
    <path id="Path_274" data-name="Path 274" d="M-63-1.58c0,.38-.14.54-.56.36-.62-.28-1.52-.74-2.26-1.12A23.981,23.981,0,0,1-63-4.64ZM-62.1-7c0-.92.02-1.88.08-2.78a21.911,21.911,0,0,0,2.96-1.1c.42-.2.64-.44.64-.78-.02-.44-.54-.52-.9-.52-.42.02-1.08.68-2.64,1.26a13.989,13.989,0,0,1,.24-1.96c.14-.64.44-.94.44-1.42s-1.28-1.12-2.04-1.12a3.05,3.05,0,0,0-1.4.38l.06.38a3.84,3.84,0,0,1,1.26.14c.32.1.4.18.4.62.02.48,0,1.82,0,3.3a9.76,9.76,0,0,1-2.12.36c-1.06.04-1.36-.16-2.38-1.16l-.34.26c.82,1.82,1.66,2,2.64,2A10.681,10.681,0,0,0-63-9.5v3.86c-1.34.76-2.9,1.98-3.64,2.42A1.484,1.484,0,0,1-67.78-3c-.44-.04-.56.12-.56.58a1.1,1.1,0,0,0,.36.82.971.971,0,0,0,.64.34c.28,0,.54-.16,1.14-.72A23.977,23.977,0,0,1-64.06-.4c.64.58.68,1.2,1.14,1.2.6,0,1.14-.92,1.14-1.82,0-.72-.22-1.46-.3-4.18a11.184,11.184,0,0,1,5.1-1.74c2.14,0,3.1,1.16,3.1,2.66a2.8,2.8,0,0,1-3.08,2.84,4.908,4.908,0,0,1-3.16-1.2l-.32.32a4.579,4.579,0,0,0,3.76,2,3.729,3.729,0,0,0,4.06-3.7,3.617,3.617,0,0,0-3.94-3.66A12.155,12.155,0,0,0-62.1-6.14Zm5.16-5.4c1.4-.1,2.94.04,3.74,1.16.22.32.2.48-.02.72a14.877,14.877,0,0,1-1.6,1.1l.22.36a7.58,7.58,0,0,1,1.54-.6c.64-.12.82.4,1.28.3.38-.04.52-.38.5-.78-.06-1.26-1.5-2.58-3.04-2.88a6.706,6.706,0,0,0-2.66.1Zm10.48,5.92c.06-1.02.06-2.04.06-2.96v-1.14h3.22v4.1Zm3.28-8.54v3.84H-46.4v-3.84Zm1.24.2a1.567,1.567,0,0,0,.78-.38l-1.56-1.2-.64.78h-2.78l-1.5-.64v6.82c0,3.74-.08,7.72-1.66,10.86l.32.16A13.388,13.388,0,0,0-46.5-5.9h3.32v4.44c0,.3-.1.42-.44.42-.38,0-2.12-.14-2.12-.14v.32a2.824,2.824,0,0,1,1.48.5,1.379,1.379,0,0,1,.4.96c1.72-.18,1.92-.84,1.92-1.88ZM-31.26-4.54h-.28c-.2,1.38-.46,3.28-.6,3.62-.06.22-.12.24-.22.26a6.075,6.075,0,0,1-.7.02h-.64c-.36,0-.44-.12-.44-.44V-14.6a1.336,1.336,0,0,0,.86-.34l-1.56-1.38-.76.84h-2.82l-1.5-.66v7.2c0,3.82-.3,7.48-2.64,10.34l.3.2c3.3-2.8,3.6-6.92,3.6-10.56v-5.92h3.26V-.68c0,.9.22,1.3,1.36,1.3h.98c1.82,0,2.36-.28,2.36-.8,0-.28-.08-.42-.48-.58Zm7.68-2.98c-.44,1.02-1.56,3.52-2,4.22-.18.26-.32.22-.44-.02a3.076,3.076,0,0,1-.32-1.72,11.877,11.877,0,0,1,1.28-4.9c.48-1.2.76-1.56.76-2.02a3.383,3.383,0,0,0-1.3-2.1,4.716,4.716,0,0,0-1.02-.6l-.32.26a3.23,3.23,0,0,1,1.12,2.1,12.25,12.25,0,0,1-.5,2.32,17.923,17.923,0,0,0-.96,5.28A9.083,9.083,0,0,0-26.12-.22c.26.42.58.74.94.74a.533.533,0,0,0,.58-.6c0-.48-.4-1.12-.4-1.7a5.312,5.312,0,0,1,.34-1.44c.22-.76,1.14-3.02,1.56-4.06Zm2.02,2.04A6.39,6.39,0,0,0-21.3-3.7c.6,2.04,2.3,3.08,5.42,3.08,2.16,0,4.02-.24,4.02-1.04,0-.46-.52-.64-1.06-.64a19.113,19.113,0,0,1-3.4.36c-2.46,0-3.52-.7-4.2-1.88a7.73,7.73,0,0,1-.58-1.74Zm.88-5.86a12.531,12.531,0,0,1,3.8-.66c1.32,0,1.34.14,1.1.36-.42.36-1.84,1.4-2.74,2.04l.34.36a32.583,32.583,0,0,1,3.28-1.82,5.417,5.417,0,0,1,1.64-.38c.42-.06.54-.24.54-.5,0-.24-.18-.52-.6-.7a6.649,6.649,0,0,0-2.78-.42,10.252,10.252,0,0,0-4.78,1.24Zm18.64-3.82A3.348,3.348,0,0,1,.12-13.74c.14.32.06.46-.22.48-.58.06-2.24.14-3.9.28-.62.04-1.44-.08-1.66.94-.2.78.22,1.1.58,1.54A11.731,11.731,0,0,1-4.02-9.04l-1.68.86a4.62,4.62,0,0,1-1.72.62c-.46,0-.88-.52-1.18-.96l-.42.18a2.162,2.162,0,0,0,.28,1.12A2.709,2.709,0,0,0-6.98-6.08c.56,0,.82-.42,1.8-1.02.56-.34,1.14-.7,1.72-1.04A27.1,27.1,0,0,1-.94-2.5c.4,1.3.6,2.42.74,2.84.16.54.38.74.7.74.44,0,.7-.4.7-.96A9.177,9.177,0,0,0,.52-2.52,46.222,46.222,0,0,0-2.54-8.7c2.48-1.44,4.98-2.64,7.04-2.64A2.527,2.527,0,0,1,7.28-8.92c0,1.5-1.2,2.4-2.92,2.4A6.067,6.067,0,0,1,.44-7.9l-.36.32a5.815,5.815,0,0,0,4.34,2.2c2.24,0,4.16-1.12,4.16-3.28,0-1.96-1.58-3.36-4-3.36-2.26,0-4.86,1.1-7.66,2.5A8.557,8.557,0,0,1-4.46-11.8c0-.4.24-.48.84-.56A21.5,21.5,0,0,1,.12-12.4c.54.04.88.22,1.22.22s.56-.2.56-.66a2.261,2.261,0,0,0-.66-1.42,4.677,4.677,0,0,0-3.1-1.32Zm19.04.7c1.14-.02,1.64-.06,1.98.46a28.155,28.155,0,0,1,1.38,2.54,15.37,15.37,0,0,1-3.72.62,4.472,4.472,0,0,1-3.38-1.4l-.36.32c1.1,1.54,1.84,2.24,3.74,2.22a17.484,17.484,0,0,0,4.3-.76A35.137,35.137,0,0,0,24-6.26c.14.16.1.18-.1.14a14.53,14.53,0,0,0-4.36-.72c-3.06,0-5.38,1.62-5.38,3.78C14.16-.34,17.2.72,20.54.72,23.04.72,24,.34,24-.18c0-.42-.44-.66-1.04-.66-.7,0-1.36.22-2.88.22-3.12,0-4.9-1.06-4.9-2.6,0-1.64,1.74-2.88,3.98-2.88a9.823,9.823,0,0,1,4.9,1.34c.56.32.86.62,1.28.62.44,0,.74-.76.72-1.32-.02-.34-.18-.52-.66-.98a21.294,21.294,0,0,1-3.52-4.32,15,15,0,0,0,3.82-1.92c.28-.24.4-.58.22-.8a1.157,1.157,0,0,0-1.18-.14,15.461,15.461,0,0,1-3.4,1.84,20.9,20.9,0,0,1-1.1-2.96c-.1-.36-.9-.6-1.64-.6a3.876,3.876,0,0,0-1.68.5Zm18.62.42c.34.2.46.42.46,1.14,0,1.16-.48,5.86-.48,8.96C35.6-.52,36.98.78,39.66.78a8.925,8.925,0,0,0,8.02-5.32l-.44-.3A9.279,9.279,0,0,1,39.66-.56c-2.2,0-2.94-.96-2.94-3.5a52.755,52.755,0,0,1,.66-7.84c.18-.94.56-1.08.56-1.5,0-.56-1.38-1.58-2.32-1.62a5.542,5.542,0,0,0-1.3.14v.42A3.971,3.971,0,0,1,35.62-14.04ZM53.18-7.02c.06,3.82,2.14,5.56,3.7,6.24.82.34,1.36.02,1.36-.52,0-.42-.32-.52-.14-1.42.12-.62.76-2.3,1.22-3.62l-.52-.24a32.651,32.651,0,0,1-1.88,3.66.471.471,0,0,1-.7.14c-.84-.44-2-1.74-2-4.28,0-2.06.68-3.32.68-4.2,0-.82-1.04-1.72-1.76-2.06a5.523,5.523,0,0,0-1.26-.32l-.18.32c1.42,1,1.56,1.5,1.56,2.58C53.26-9.84,53.14-8.46,53.18-7.02Zm12.5-1.8a10.9,10.9,0,0,1,1.14,4c.08.46.32.7.64.7.54,0,.8-.34.8-1.12a7.121,7.121,0,0,0-1.74-4.5,6.219,6.219,0,0,0-3.76-1.98l-.18.48A5.79,5.79,0,0,1,65.68-8.82Z" transform="translate(848.603 19291)" fill="#3c505a"/>
    <path id="Path_273" data-name="Path 273" d="M-65.122-13.92a4.228,4.228,0,0,0,.464,1.624,3.809,3.809,0,0,0,2.552,1.682c.841,0,1.624-.812,3.77-2.146,2.175-1.363,6.09-3.944,9.628-3.944,3.741,0,6,2.088,6,5.336,0,3.1-1.537,5.249-4.814,6.786-2.9,1.421-6.032,1.885-9.889,2.117l.058.783c4.524.232,8.7-.406,11.281-1.653,3.132-1.479,5.423-3.915,5.423-7.685,0-3.6-2.726-6.873-8.033-6.873-4.321,0-8.787,2.552-11.513,3.944a5.044,5.044,0,0,1-2.581.9,2.939,2.939,0,0,1-1.943-1.131Zm36.379,3.261a8.943,8.943,0,0,1-.684,2.926c-.779,1.805-2.527,4.807-3.781,4.807-.779,0-1.615-1.387-1.615-3.211a6.114,6.114,0,0,1,1.957-4.389,7.228,7.228,0,0,1,3.591-1.881A3.316,3.316,0,0,1-28.743-10.659ZM-29.066.076c6.213-.4,8.189-3.629,8.189-6.783,0-3.933-3.021-6.5-6.935-6.5a8.215,8.215,0,0,0-5.548,2.033,7.3,7.3,0,0,0-2.527,5.339c0,2.337,1.33,4.351,2.6,4.351,1.938,0,4.142-3.686,4.94-5.966a9.524,9.524,0,0,0,.589-3.059,3.546,3.546,0,0,0-.817-2.014c.228-.019.456-.038.684-.038a5.392,5.392,0,0,1,5.643,5.548c0,3.439-2.242,5.833-6.9,6.65ZM-13-19.517l-.551.2a5.877,5.877,0,0,0,.29,1.653c.29.725,1.653,2.117,2.523,2.117.551,0,1.189-.58,1.972-.754,1.653-.377,9.889-1.537,11.165-1.537.29,0,.464.058.348.493C.945-10.556-4.391-4.35-12.685-.174l.435.7C-3.695-2.755,1.5-8.178,4.541-15.4c.406-.957,1.334-1.45,1.334-2.088,0-.812-2.03-2.32-2.871-2.32-.493,0-.87.464-1.624.638-1.392.29-10.614,1.276-12.267,1.276C-11.9-17.893-12.54-18.821-13-19.517Zm42.543,7.772c.087-1.8.2-4.727.261-6.438.058-.928.551-1.1.551-1.711s-1.914-1.74-3.016-1.74a5.653,5.653,0,0,0-1.972.551l.029.58a5.825,5.825,0,0,1,1.74.377,1.3,1.3,0,0,1,.638,1.189,66.219,66.219,0,0,1-.087,7.105C27.335-5.887,24.609-2,18.954.986l.377.638C25.885-.841,29.22-5.017,29.539-11.745ZM17.5-18.937c.493.2.522.435.58,1.131.116,1.073.174,3.915.174,5.249-.058,2.378-.29,3.509-.29,4.292,0,1.073.493,1.972,1.131,1.972.522,0,.928-.348.928-1.45,0-1.189-.058-7.569.029-8.816.087-1.073.435-1.363.435-1.914,0-.725-1.769-1.769-2.842-1.769A6.347,6.347,0,0,0,16-19.923v.58A6.284,6.284,0,0,1,17.5-18.937Zm23.345,6.844a5.146,5.146,0,0,0,.261,1.624c.406.986,1.769,2.407,2.581,2.407.841,0,1.16-.435,2.813-.609,2.175-.261,10.324-.7,12.151-.7,1.769,0,2.784.058,3.8.058.986,0,1.276-.319,1.276-.841,0-.783-1.305-1.276-2.407-1.276-.754,0-1.566.174-3.509.319-1.334.058-11.484.725-14.065.725-1.218,0-1.682-.9-2.32-1.885Z" transform="translate(845.603 19323)" fill="#3c505a"/>
    <path id="Path_272" data-name="Path 272" d="M-21.112-2.093l5.278,3.549L24.752-60.7h-44.59v6.188H13.377Z" transform="translate(746.603 19336)" fill="#3c505a"/>
  </g>
</svg>
