<svg xmlns="http://www.w3.org/2000/svg" width="900" height="168" viewBox="0 0 900 168">
  <g id="Group_155" data-name="Group 155" transform="translate(-3810.96 15997.984)">
    <g id="Rectangle_139" data-name="Rectangle 139" transform="translate(3810.96 -15997.984)" fill="#fff" stroke="#a9a9a9" stroke-width="1">
      <rect width="900" height="168" stroke="none"/>
      <rect x="0.5" y="0.5" width="899" height="167" fill="none"/>
    </g>
    <line id="Line_34" data-name="Line 34" x2="860" transform="translate(3831.46 -15928.484)" fill="none" stroke="#a9a9a9" stroke-width="1" stroke-dasharray="2"/>
    <path id="Path_175" data-name="Path 175" d="M-4.28-16.74a19.812,19.812,0,0,1-1.86,3.36l1.22.44c.66-.84,1.46-2.16,2.16-3.3Zm3.2,9.24V-8.84H-6.82a4.874,4.874,0,0,0,.02-.54v-2.24h5.12v-1.32H-10.3l1.2-.54a11.107,11.107,0,0,0-1.82-3.18l-1.26.5a11.047,11.047,0,0,1,1.72,3.22h-2.5v1.32h4.68V-9.4a5.43,5.43,0,0,1-.02.56h-5.3V-7.5h5.14c-.36,1.72-1.52,3.62-4.98,5.02a7.042,7.042,0,0,1,.98,1.1c3.18-1.42,4.6-3.26,5.22-5.06A8.253,8.253,0,0,0-1.98-1.3a5.077,5.077,0,0,1,.94-1.24A7.308,7.308,0,0,1-6.26-7.5Zm-13.08-5.66a14.806,14.806,0,0,0-3.48-3.08l-1.1.9a13.8,13.8,0,0,1,3.4,3.16Zm-.56,4.26h-4.24v1.4h2.78v5.06A33.4,33.4,0,0,1-19.22-.16l.8,1.5c1.06-.86,2.06-1.72,3.02-2.56,1.28,1.54,3.06,2.26,5.66,2.36,2.2.08,6.3.04,8.48-.04A6.767,6.767,0,0,1-.78-.42c-2.34.16-6.78.22-8.96.14-2.3-.1-4.04-.78-4.98-2.24Zm28.94-3.98a15.417,15.417,0,0,0-3.14-2.44l-.76,1a16.523,16.523,0,0,1,3.14,2.58ZM13.36-8.1A15.557,15.557,0,0,0,10-10.34L9.3-9.3a14.969,14.969,0,0,1,3.32,2.4ZM7.58-15.54a36.945,36.945,0,0,1-1.32,4.5l.96.32a40.924,40.924,0,0,0,1.64-4.5ZM3.42-11.08a18.174,18.174,0,0,0-1.18-4.38l-1.08.26a19.312,19.312,0,0,1,1.08,4.44ZM5.6-8.66H8.86v-1.4H5.6v-6.6H4.22v6.6H1.02v1.4h2.8A20.567,20.567,0,0,1,.7-2.44,8.967,8.967,0,0,1,1.46-1,22.937,22.937,0,0,0,4.22-6.7V1.52H5.6v-8.2c.72,1.12,1.66,2.66,2.02,3.4L8.6-4.44c-.44-.68-2.44-3.32-3-3.94Zm13.64,4.1-.22-1.36-2.36.42V-16.72h-1.4V-5.24L8.82-4.1l.24,1.38,6.2-1.12V1.52h1.4V-4.1Z" transform="translate(3850.96 -15954.984)" fill="#3c505a"/>
    <path id="Path_174" data-name="Path 174" d="M15.72-16.74a19.812,19.812,0,0,1-1.86,3.36l1.22.44c.66-.84,1.46-2.16,2.16-3.3Zm3.2,9.24V-8.84H13.18a4.874,4.874,0,0,0,.02-.54v-2.24h5.12v-1.32H9.7l1.2-.54a11.107,11.107,0,0,0-1.82-3.18l-1.26.5a11.047,11.047,0,0,1,1.72,3.22H7.04v1.32h4.68V-9.4a5.43,5.43,0,0,1-.02.56H6.4V-7.5h5.14c-.36,1.72-1.52,3.62-4.98,5.02a7.042,7.042,0,0,1,.98,1.1c3.18-1.42,4.6-3.26,5.22-5.06A8.253,8.253,0,0,0,18.02-1.3a5.077,5.077,0,0,1,.94-1.24A7.308,7.308,0,0,1,13.74-7.5ZM5.84-13.16a14.806,14.806,0,0,0-3.48-3.08l-1.1.9a13.8,13.8,0,0,1,3.4,3.16ZM5.28-8.9H1.04v1.4H3.82v5.06A33.4,33.4,0,0,1,.78-.16l.8,1.5C2.64.48,3.64-.38,4.6-1.22,5.88.32,7.66,1.04,10.26,1.14c2.2.08,6.3.04,8.48-.04a6.767,6.767,0,0,1,.48-1.52c-2.34.16-6.78.22-8.96.14-2.3-.1-4.04-.78-4.98-2.24Zm28.94-3.98a15.417,15.417,0,0,0-3.14-2.44l-.76,1a16.523,16.523,0,0,1,3.14,2.58ZM33.36-8.1A15.557,15.557,0,0,0,30-10.34L29.3-9.3a14.97,14.97,0,0,1,3.32,2.4Zm-5.78-7.44a36.944,36.944,0,0,1-1.32,4.5l.96.32a40.924,40.924,0,0,0,1.64-4.5Zm-4.16,4.46a18.174,18.174,0,0,0-1.18-4.38l-1.08.26a19.312,19.312,0,0,1,1.08,4.44ZM25.6-8.66h3.26v-1.4H25.6v-6.6H24.22v6.6h-3.2v1.4h2.8A20.567,20.567,0,0,1,20.7-2.44,8.967,8.967,0,0,1,21.46-1a22.937,22.937,0,0,0,2.76-5.7V1.52H25.6v-8.2c.72,1.12,1.66,2.66,2.02,3.4l.98-1.16c-.44-.68-2.44-3.32-3-3.94Zm13.64,4.1-.22-1.36-2.36.42V-16.72h-1.4V-5.24L28.82-4.1l.24,1.38,6.2-1.12V1.52h1.4V-4.1ZM54.68-9.74H52.34v-3.38h2.34Zm0,4.74H52.34V-8.42h2.34ZM45.26-8.42h2.22V-5H45.26Zm5.8,0V-5H48.74V-8.42ZM48.74-9.74v-3.38h2.32v3.38Zm-3.48-3.38h2.22v3.38H45.26ZM43.92-9.74H41.14v1.32h2.78V-5H41.46v1.34H58.6V-5H56.08V-8.42h2.8V-9.74h-2.8v-3.38h2.06v-1.32H45.52a14.565,14.565,0,0,0,1.06-1.88l-1.42-.42a14.151,14.151,0,0,1-4.26,5.22,7.279,7.279,0,0,1,1.22.98,16.72,16.72,0,0,0,1.8-1.78ZM42.4,1.54a9.353,9.353,0,0,0,2.46-4.02l-1.38-.34A8.744,8.744,0,0,1,41,.96Zm4.54-3.86a24.181,24.181,0,0,1,.42,3.66l1.42-.2a24.219,24.219,0,0,0-.48-3.6Zm4.04.02A23.717,23.717,0,0,1,52.2,1.36l1.44-.3a19.337,19.337,0,0,0-1.28-3.62Zm4.06-.14a23.581,23.581,0,0,1,2.6,4l1.48-.54A24.5,24.5,0,0,0,56.4-2.9ZM74.22-12.88a15.417,15.417,0,0,0-3.14-2.44l-.76,1a16.523,16.523,0,0,1,3.14,2.58ZM73.36-8.1A15.557,15.557,0,0,0,70-10.34L69.3-9.3a14.97,14.97,0,0,1,3.32,2.4Zm-5.78-7.44a36.945,36.945,0,0,1-1.32,4.5l.96.32a40.923,40.923,0,0,0,1.64-4.5Zm-4.16,4.46a18.174,18.174,0,0,0-1.18-4.38l-1.08.26a19.312,19.312,0,0,1,1.08,4.44ZM65.6-8.66h3.26v-1.4H65.6v-6.6H64.22v6.6h-3.2v1.4h2.8A20.567,20.567,0,0,1,60.7-2.44,8.967,8.967,0,0,1,61.46-1a22.937,22.937,0,0,0,2.76-5.7V1.52H65.6v-8.2c.72,1.12,1.66,2.66,2.02,3.4l.98-1.16c-.44-.68-2.44-3.32-3-3.94Zm13.64,4.1-.22-1.36-2.36.42V-16.72h-1.4V-5.24L68.82-4.1l.24,1.38,6.2-1.12V1.52h1.4V-4.1ZM0,3H80V4H0Zm84.78.94,1.14-.54a18.437,18.437,0,0,1-2.56-9.62,18.487,18.487,0,0,1,2.56-9.62l-1.14-.52A18.679,18.679,0,0,0,81.84-6.22,18.747,18.747,0,0,0,84.78,3.94ZM96.06-16.44V-.54c0,.4-.16.54-.58.54-.38.02-1.82.04-3.28-.02a7.094,7.094,0,0,1,.62,1.54,13.88,13.88,0,0,0,3.82-.26c.7-.26,1-.7,1-1.8v-15.9Zm4.78,5.04a33.8,33.8,0,0,1,3.78,8.94l1.56-.66a31.8,31.8,0,0,0-3.94-8.82Zm-10-.4c-.48,2.68-1.58,6.12-3.36,8.22a8.034,8.034,0,0,1,1.4.78c1.8-2.22,2.96-5.8,3.6-8.7Zm33.72-4.8h-1.42v8.86c0,.28-.08.36-.38.36a23.17,23.17,0,0,1-2.44,0,4.685,4.685,0,0,1,.5,1.36,10.087,10.087,0,0,0,2.98-.24c.6-.24.76-.62.76-1.44Zm-3.74,1h-1.38v6.66h1.38Zm-8.74,3.62V-14.6h2.46v2.74h-2.46Zm2.46,1.44v4.28h1.4v-4.28h2.26v-1.32h-2.26V-14.6h1.86v-1.32h-8.96v1.32h1.86v2.74h-2.52v1.32h2.42A5.184,5.184,0,0,1,108-6.8a6.868,6.868,0,0,1,.98,1.04,6.391,6.391,0,0,0,3-4.78Zm3.08,10V-3.06h6.04V-4.42h-6.04V-6.66h-1.5v2.24h-6.28v1.36h6.28V-.54h-8.34V.86h17.96V-.54Zm12.3-12.72H143.6v2.86h1.54v-4.24h-7.66v-2.08h-1.54v2.08h-7.52v4.24h1.5ZM138.16-.02c-1.28,0-1.5-.18-1.5-1.02V-4.92l8.88-1.02-.2-1.38-8.68.98V-9.46a33.141,33.141,0,0,0,5.32-1.62l-1.22-1.18c-2.48,1.14-7,2.08-10.98,2.7a4.767,4.767,0,0,1,.46,1.26c1.56-.22,3.22-.5,4.84-.82v2.96l-7.22.8.2,1.44,7.02-.82v3.7c0,1.94.66,2.46,2.98,2.46h4.46c2.14,0,2.62-.84,2.86-3.84a4.842,4.842,0,0,1-1.48-.62c-.12,2.5-.3,3.02-1.46,3.02Zm20.36-14a15.016,15.016,0,0,1-1.32,1.94h-5.84a16.865,16.865,0,0,0,1.7-1.94Zm-8.2,3.2h11.5v1.66h-11.3V-8h11.3v1.7H149.9v1.26h4.94l-.62.64a13.388,13.388,0,0,1,3.58,2.2l.98-1.06a11.775,11.775,0,0,0-2.94-1.78h7.42v-7.04H158.9a19.38,19.38,0,0,0,1.68-2.56l-1-.66-.24.06H153.9a14.054,14.054,0,0,0,.76-1.26l-1.58-.3A14.675,14.675,0,0,1,147.7-11a4.844,4.844,0,0,1,1.06,1.06,15.92,15.92,0,0,0,1.56-1.18ZM148.92.86a7.238,7.238,0,0,0,2.88-4.14l-1.34-.48A6.465,6.465,0,0,1,147.7-.02Zm6.54-.88c-.98,0-1.16-.1-1.16-.62v-2.9h-1.44V-.62c0,1.46.48,1.88,2.48,1.88h3.64c1.6,0,2.04-.58,2.2-3a3.832,3.832,0,0,1-1.28-.52c-.1,1.94-.24,2.24-1.06,2.24Zm5.56-3.26A18.161,18.161,0,0,1,164.6.82l1.32-.78a17.994,17.994,0,0,0-3.7-4.02Zm10.92-13.38a22.93,22.93,0,0,1-4.38,7.94,9.954,9.954,0,0,1,.86,1.46,20.55,20.55,0,0,0,1.6-2.14V1.5h1.42V-11.82a31.979,31.979,0,0,0,1.9-4.42ZM175.28-6.2V-8.26h3.5v1c0,.34,0,.72-.02,1.06Zm0-5.22h3.5v2.06h-3.5Zm8.2,0v2.06h-3.24v-2.06Zm0,5.22H180.2a9.392,9.392,0,0,0,.04-1.06v-1h3.24Zm1.46,1.16v-7.54h-4.7v-1.66h5.38v-1.34H173.36v1.34h5.42v1.66h-4.9v7.54h4.76a5.549,5.549,0,0,1-1.36,2.9,7.8,7.8,0,0,1-2.68-2.4l-1.26.48a9.167,9.167,0,0,0,2.86,2.82A11.732,11.732,0,0,1,172.16.38a7.369,7.369,0,0,1,.9,1.22A12.77,12.77,0,0,0,177.5-.48a22.646,22.646,0,0,0,7.7,1.9,5.791,5.791,0,0,1,.88-1.38,24.017,24.017,0,0,1-7.52-1.54,7.058,7.058,0,0,0,1.52-3.54Zm3.8,8.98A18.592,18.592,0,0,0,191.7-6.22a18.525,18.525,0,0,0-2.96-10.14l-1.12.52a18.678,18.678,0,0,1,2.56,9.62,18.627,18.627,0,0,1-2.56,9.62ZM223.52-11.8a1.511,1.511,0,0,0,1.5-1.5,1.511,1.511,0,0,0-1.5-1.5,1.511,1.511,0,0,0-1.5,1.5A1.511,1.511,0,0,0,223.52-11.8Zm0,3.62-6.6-6.6-.58.58,6.6,6.6L216.32-.98l.58.58,6.62-6.62,6.6,6.6L230.7-1l-6.6-6.6,6.6-6.6-.58-.58Zm-4.2.58a1.511,1.511,0,0,0-1.5-1.5,1.511,1.511,0,0,0-1.5,1.5,1.511,1.511,0,0,0,1.5,1.5A1.511,1.511,0,0,0,219.32-7.6Zm8.4,0a1.511,1.511,0,0,0,1.5,1.5,1.511,1.511,0,0,0,1.5-1.5,1.511,1.511,0,0,0-1.5-1.5A1.511,1.511,0,0,0,227.72-7.6Zm-4.2,4.2a1.511,1.511,0,0,0-1.5,1.5,1.511,1.511,0,0,0,1.5,1.5,1.511,1.511,0,0,0,1.5-1.5A1.511,1.511,0,0,0,223.52-3.4Zm22.04-7.2v1.76H242.2V-10.6Zm4.82,1.76H246.9V-10.6h3.48ZM246.9-5.92V-7.74h3.48v1.82Zm-4.7,0V-7.74h3.36v1.82Zm0,1.14h3.36v3.24h1.34V-4.78h3.48v1.82c0,.26-.08.34-.34.34-.24,0-1.1.02-2.04-.02a4.647,4.647,0,0,1,.42,1.22,8.8,8.8,0,0,0,2.7-.22c.52-.22.68-.58.68-1.3v-8.8h-2.52c-.44-.24-.96-.52-1.54-.8a17.683,17.683,0,0,0,4.04-2.74l-.92-.7-.28.08h-9.76v1.18h8.34a15.3,15.3,0,0,1-2.74,1.58c-.94-.4-1.92-.8-2.78-1.1l-.94.84c1.2.44,2.62,1.08,3.8,1.66h-5.7V-1.46h1.4Zm-3.02-8.28a14.992,14.992,0,0,0-3.38-3.22l-1.04.92a15.3,15.3,0,0,1,3.32,3.32Zm-.44,4.16h-4.32v1.4h2.88v5.14A34.591,34.591,0,0,1,234.18-.1l.72,1.44c1.14-.84,2.2-1.7,3.22-2.58,1.22,1.58,3.02,2.28,5.64,2.38,2.2.1,6.44.06,8.66-.04a7.354,7.354,0,0,1,.46-1.46c-2.38.16-6.94.22-9.12.12-2.34-.08-4.06-.74-5.02-2.24Zm21.06-.9h7.54v1.96H259.8Zm10.86,4.72h-6.14V-6.72h4.3v-4.2H258.38v4.2h4.64v1.64H256.6V.64h1.48V-3.72h4.94V1.54h1.5V-3.72h4.64v2.8c0,.24-.1.3-.4.32s-1.36.02-2.56-.02a5.949,5.949,0,0,1,.52,1.36A10.407,10.407,0,0,0,269.88.5c.62-.22.78-.62.78-1.4Zm-1.94-11.5a15.933,15.933,0,0,1-1.66,2.44l1.2.5a27.531,27.531,0,0,0,2-2.4Zm3.16,2.94H264.4v-3.1h-1.5v3.1h-4.18l1.24-.56a11.852,11.852,0,0,0-1.7-2.34l-1.32.54a12.284,12.284,0,0,1,1.56,2.36h-3.2v4.26h1.42v-2.96h13.7v2.96h1.46Zm24.26.26v-1.36H284.36c.34-.58.62-1.16.88-1.72l-1.6-.28a15.085,15.085,0,0,1-4.28,5.94,5.345,5.345,0,0,1,1.22.9,17.764,17.764,0,0,0,2.96-3.48Zm-7.92,10.9c.16-.96.3-2.12.44-3.32h4.12c-.1,1.38-.22,2.46-.34,3.32ZM287.3-5.8c-.14,1.2-.3,2.36-.46,3.32h-3.96c.18-1.04.36-2.16.54-3.32Zm.46-4.46c-.08.98-.2,2.04-.32,3.12h-3.82c.18-1.06.34-2.12.48-3.12Zm1.06,3.12c.12-1.06.24-2.14.34-3.12h3.9c-.06,1.16-.12,2.18-.18,3.12Zm8.3,1.34V-7.14h-2.8c.08-1.08.16-2.32.22-3.7,0-.2.02-.72.02-.72H282.8c-.16,1.34-.36,2.86-.6,4.42h-3.28V-5.8h3.06c-.36,2.16-.74,4.26-1.08,5.78l1.5.1c.08-.38.16-.8.24-1.24h9.56a2.878,2.878,0,0,1-.54,1.3.916.916,0,0,1-.8.3c-.44,0-1.42-.02-2.56-.12a2.988,2.988,0,0,1,.36,1.16,23.193,23.193,0,0,0,2.78.06A1.934,1.934,0,0,0,292.96.8a4.637,4.637,0,0,0,.74-1.96h2.88V-2.48H293.9c.12-.88.24-1.98.34-3.32Zm5.98,4.34V-7.04h9.92v5.58Zm9.92-12.44v5.4H303.1v-5.4ZM301.6-15.36V1.3h1.5V0h9.92V1.22h1.56V-15.36ZM329.62-5.3h-3.48V-8.28h3.48Zm3.84-2.98v-.76a12.723,12.723,0,0,0,2.86,1.74,6.131,6.131,0,0,1,1.02-1.24,13,13,0,0,1-3.74-2.32,32.1,32.1,0,0,0,3.14-2.58l-1.12-.8a24.6,24.6,0,0,1-2.86,2.58,16.029,16.029,0,0,1-1.3-1.54,26.513,26.513,0,0,0,2.94-2.52l-1.12-.8a25.657,25.657,0,0,1-2.46,2.38,14.825,14.825,0,0,1-1.26-2.52l-1.28.38a17.235,17.235,0,0,0,4.46,6.62h-9.4a13.955,13.955,0,0,0,4.16-5.8l-.98-.48-.26.06h-5.7v1.32h4.96a14.01,14.01,0,0,1-1.86,2.64,27.811,27.811,0,0,0-2.42-1.96l-.92.78a21.2,21.2,0,0,1,2.4,2.1,13.832,13.832,0,0,1-4.06,2.6,8.044,8.044,0,0,1,.92,1.12,16.387,16.387,0,0,0,2.98-1.76v.76h2.1V-5.3h-4.6v1.38h4.44c-.36,1.66-1.5,3.24-4.84,4.36a5.8,5.8,0,0,1,.94,1.18c3.92-1.36,5.1-3.4,5.42-5.54h3.6v3.2c0,1.64.44,2.08,2.12,2.08h2.62c1.46,0,1.88-.7,2.02-3.24a4.1,4.1,0,0,1-1.34-.62c-.08,2.14-.18,2.54-.8,2.54h-2.28c-.68,0-.8-.12-.8-.74V-3.92h4.74V-5.3h-4.74V-8.28Zm20.26-8.46a19.813,19.813,0,0,1-1.86,3.36l1.22.44c.66-.84,1.46-2.16,2.16-3.3Zm3.2,9.24V-8.84h-5.74a4.869,4.869,0,0,0,.02-.54v-2.24h5.12v-1.32H347.7l1.2-.54a11.106,11.106,0,0,0-1.82-3.18l-1.26.5a11.047,11.047,0,0,1,1.72,3.22h-2.5v1.32h4.68V-9.4a5.433,5.433,0,0,1-.02.56h-5.3V-7.5h5.14c-.36,1.72-1.52,3.62-4.98,5.02a7.043,7.043,0,0,1,.98,1.1c3.18-1.42,4.6-3.26,5.22-5.06a8.253,8.253,0,0,0,5.26,5.14,5.077,5.077,0,0,1,.94-1.24,7.308,7.308,0,0,1-5.22-4.96Zm-13.08-5.66a14.805,14.805,0,0,0-3.48-3.08l-1.1.9a13.8,13.8,0,0,1,3.4,3.16Zm-.56,4.26h-4.24v1.4h2.78v5.06a33.4,33.4,0,0,1-3.04,2.28l.8,1.5c1.06-.86,2.06-1.72,3.02-2.56,1.28,1.54,3.06,2.26,5.66,2.36,2.2.08,6.3.04,8.48-.04a6.767,6.767,0,0,1,.48-1.52c-2.34.16-6.78.22-8.96.14-2.3-.1-4.04-.78-4.98-2.24Z" transform="translate(3951.96 -15954.984)" fill="#3c505a"/>
    <line id="Line_35" data-name="Line 35" y2="29" transform="translate(3931.46 -15977.484)" fill="none" stroke="#a9a9a9" stroke-width="1" stroke-dasharray="2"/>
    <path id="Path_173" data-name="Path 173" d="M-36.84-13.04h13.62v2.92h1.52v-4.32h-7.56v-2.28H-30.8v2.28h-7.5v4.32h1.46Zm7.58,8.5h5.92V-5.92h-5.92V-9.24h5.1v-1.4H-35.74v1.4h4.96V-.86a6.007,6.007,0,0,1-3.68-3.86,25.245,25.245,0,0,0,.48-2.66l-1.52-.14c-.44,3.58-1.52,6.42-3.74,8.14a7.764,7.764,0,0,1,1.22,1,10.957,10.957,0,0,0,2.98-4.46c1.82,3.38,4.8,4.1,8.94,4.1h4.64a4.383,4.383,0,0,1,.56-1.5c-.96.02-4.4.02-5.12.02a18.258,18.258,0,0,1-3.24-.24Zm13.4-2.1h3.62v2h-3.62Zm3.62-6.12V-11h-3.62v-1.76ZM-15.86-9.8h3.62v1.96h-3.62ZM-9.4-4.64h-1.46v-8.12H-9.4V-14.1h-1.46v-2.4h-1.38v2.4h-3.62v-2.4h-1.36v2.4H-18.9v1.34h1.68v8.12h-1.94V-3.3H-9.4Zm-7,1.76A10.433,10.433,0,0,1-19.14.68a9.194,9.194,0,0,1,1.2.86A13.22,13.22,0,0,0-14.98-2.5Zm2.84.62A15.7,15.7,0,0,1-11.5.78l1.2-.7a14.816,14.816,0,0,0-2.1-2.96Zm6.5-4.28c.02-.68.04-1.36.04-1.98V-9.86h4.08v3.32Zm4.12-7.84v3.18H-7.02v-3.18Zm1.44-1.36H-8.42v7.22c0,2.86-.16,6.66-1.82,9.3a3.811,3.811,0,0,1,1.18.86A15.658,15.658,0,0,0-7.16-5.2h4.22V-.4c0,.32-.12.42-.42.42-.28.02-1.28.02-2.34,0a6.046,6.046,0,0,1,.46,1.44,8.865,8.865,0,0,0,2.98-.28C-1.72.94-1.5.5-1.5-.38ZM6-12.2H3.02v-2.54H6ZM6-8.48H3.02v-2.56H6ZM6-4.7H3.02V-7.3H6ZM7.34-15.98H1.72v12.5H7.34ZM2.7-3.06A8.772,8.772,0,0,1,.7.74a10.063,10.063,0,0,1,1.12.8,11.976,11.976,0,0,0,2.22-4.3Zm2.5.48A16.658,16.658,0,0,1,6.8.56L7.98,0A16.828,16.828,0,0,0,6.32-3.08Zm8.82-.32V-4.4h2.56v1.5ZM10.26-4.4H12.7v1.5H10.26ZM12.7-6.86v1.42H10.26V-6.86Zm3.88,0v1.42H14.02V-6.86ZM11.9-11.58h2.96v1.32H11.9Zm0-2.3h2.96v1.2H11.9ZM19.14-2.9h-1.2V-7.98H14.02V-9.14h5.04v-1.12H16.2v-1.32h2.12v-1.1H16.2v-1.2h2.44V-15H16.2v-1.72H14.86V-15H11.9v-1.72H10.58V-15H8.16v1.12h2.42v1.2H8.68v1.1h1.9v1.32H7.7v1.12h5v1.16H8.92V-2.9H7.62v1.14h1.3v3.3h1.34v-3.3h6.32V-.02c0,.26-.1.32-.34.34-.28,0-1.24,0-2.28-.02a4.776,4.776,0,0,1,.42,1.2,10.346,10.346,0,0,0,2.9-.2c.5-.22.66-.6.66-1.32V-1.76h1.2ZM24.6-15.52v1.48h4.92c.04.76.12,1.64.26,2.56l-.88-.14C27.68-6.02,25.22-2,20.8.3a9.734,9.734,0,0,1,1.34,1.18c3.98-2.34,6.5-5.98,7.98-11.16A17.259,17.259,0,0,0,38.06,1.46,7.067,7.067,0,0,1,39.26.22c-7.84-4.66-8.3-12.2-8.3-15.74Zm-58.32,30.1a14.278,14.278,0,0,0-3.6-2.14l-.8,1.08a15.419,15.419,0,0,1,3.54,2.24Zm-.98,5.2a16.076,16.076,0,0,0-3.66-2l-.82,1.12a15.458,15.458,0,0,1,3.64,2.12Zm-.5,3.06a62.5,62.5,0,0,1-3.42,6.46l1.28.94c1.06-1.88,2.32-4.36,3.28-6.48Zm7.86-6h3.38v4.54h-3.46c.06-.76.08-1.54.08-2.3Zm6.48,5.92V21.38h-1.66V15.46h-4.82V12.3H-28.8v3.16h-3.94v1.38h3.94v2.22a22.264,22.264,0,0,1-.1,2.32h-4.92v1.38h4.7c-.54,2.56-1.96,4.92-5.62,6.74a7.384,7.384,0,0,1,1.16,1.06c3.74-1.92,5.28-4.48,5.88-7.24,1.08,3.42,3,5.96,5.98,7.24A4.787,4.787,0,0,1-20.7,29.3a9.74,9.74,0,0,1-5.7-6.54Zm7.14-8.18a14.278,14.278,0,0,0-3.6-2.14l-.8,1.08a15.418,15.418,0,0,1,3.54,2.24Zm-.98,5.2a16.076,16.076,0,0,0-3.66-2l-.82,1.12a15.458,15.458,0,0,1,3.64,2.12Zm-.34,3.06a65.318,65.318,0,0,1-3.54,6.46l1.26.94c1.1-1.86,2.42-4.36,3.4-6.48Zm4.52,2.62a13.747,13.747,0,0,0,.1-1.76v-.14h6.24v1.9Zm6.34-3.16h-6.24V21.12h-1.42V23.7a7.4,7.4,0,0,1-2.58,6.18,7.175,7.175,0,0,1,1.16.84,7.214,7.214,0,0,0,2.5-3.98h6.58V30.5h1.46V21.12H-4.18Zm-.78-6.64a7.95,7.95,0,0,1-2.3,2.16A10.021,10.021,0,0,1-9.9,15.66Zm3.92,0v-1.3H-6.58V12.28h-1.5v2.08h-5.46v1.3h2.06a11.321,11.321,0,0,0,2.9,2.88,21.773,21.773,0,0,1-5.56,1.62,5.911,5.911,0,0,1,.74,1.26,22.089,22.089,0,0,0,6.12-2.1A23.64,23.64,0,0,0-1.5,21.26a3.875,3.875,0,0,1,.82-1.32,24.579,24.579,0,0,1-5.24-1.46,9.2,9.2,0,0,0,2.6-2.82Zm19.92,1.46V15.7h-8.2V12.22H9.18V15.7H1.12v1.42H7.26c-.24,4.6-.82,9.78-6.34,12.26A5.056,5.056,0,0,1,1.98,30.6c4.06-1.96,5.66-5.26,6.36-8.8h6.6c-.34,4.62-.72,6.58-1.32,7.1-.2.2-.48.22-.94.22-.5,0-1.92,0-3.34-.14a3.4,3.4,0,0,1,.52,1.44c1.34.08,2.64.1,3.34.06a2.229,2.229,0,0,0,1.7-.66c.78-.8,1.18-3,1.58-8.7.02-.24.04-.72.04-.72H8.56c.16-1.1.24-2.2.3-3.28Zm7.74-2.66A14.683,14.683,0,0,0,22.7,12.4l-.8,1.1a15.958,15.958,0,0,1,3.88,2.18Zm-1.04,5.22a16.954,16.954,0,0,0-3.96-1.84l-.78,1.14a16.81,16.81,0,0,1,3.94,1.96Zm-.46,3.22a60.172,60.172,0,0,1-3.58,6.42l1.26.96c1.12-1.86,2.44-4.32,3.44-6.42Zm14.16,6.88a27.178,27.178,0,0,0-3.82-5.74l-1.26.66a34.488,34.488,0,0,1,2.06,2.84c-2.36.16-4.74.3-6.8.4.88-1.74,1.82-4.02,2.56-5.92h6.92V20.6H33.26V16.94H38v-1.4H33.26V12.28H31.74v3.26H27.18v1.4h4.56V20.6H26.18v1.42h4.08a47.188,47.188,0,0,1-2.4,6.02l-1.66.08.22,1.48c2.76-.18,6.78-.44,10.64-.74a13.226,13.226,0,0,1,.84,1.7Z" transform="translate(3870.96 -15884.984)" fill="#3c505a"/>
    <path id="Path_172" data-name="Path 172" d="M10.74-15.54l-1.86-.6a6.849,6.849,0,0,1-.62,1.58A16.487,16.487,0,0,1,1.98-7.8L3.36-6.76a20.275,20.275,0,0,0,5.08-4.92H15.2A16.442,16.442,0,0,1,12-5.44,16.18,16.18,0,0,1,4.02-.42L5.46.88a17.535,17.535,0,0,0,7.96-5.44,19.4,19.4,0,0,0,3.56-6.88,6.284,6.284,0,0,1,.46-1.06l-1.34-.82a3.347,3.347,0,0,1-1.3.2H9.38a8.988,8.988,0,0,0,.48-.84A15.123,15.123,0,0,1,10.74-15.54ZM24.44-.64l1.16,1A3.09,3.09,0,0,1,26.44,0c4.98-1.44,9.1-3.92,11.7-7.14l-.9-1.4A21.583,21.583,0,0,1,26.3-1.72V-13.06a12.934,12.934,0,0,1,.14-1.82H24.46a12.187,12.187,0,0,1,.18,1.82V-1.62A2.2,2.2,0,0,1,24.44-.64ZM54.32-14.92l-1.1.46a22.363,22.363,0,0,1,1.82,3.16l1.14-.52A29.53,29.53,0,0,0,54.32-14.92Zm2.62-.96-1.12.48a21.745,21.745,0,0,1,1.9,3.1l1.14-.52A28.839,28.839,0,0,0,56.94-15.88Zm-11.16.66-.9,1.34c1.16.68,3.34,2.12,4.3,2.86l.94-1.38C49.26-13.02,46.96-14.56,45.78-15.22Zm-3,14.3L43.7.7a23.882,23.882,0,0,0,6.62-2.48,23.538,23.538,0,0,0,7.7-7.14l-.96-1.66a20.443,20.443,0,0,1-7.58,7.34A21.891,21.891,0,0,1,42.78-.92Zm-.02-9.8-.9,1.36a44.187,44.187,0,0,1,4.38,2.74l.9-1.4C46.28-8.64,43.94-10.08,42.76-10.72Zm26.9-.8-1.46.5a37.7,37.7,0,0,1,1.56,4.34l1.48-.52C70.98-8.08,70-10.72,69.66-11.52ZM76.9-10.4l-1.72-.54A13.715,13.715,0,0,1,72.42-4.1,13.467,13.467,0,0,1,65.92.16L67.24,1.5a15.241,15.241,0,0,0,6.52-4.76A15.676,15.676,0,0,0,76.6-9.4C76.68-9.66,76.76-9.98,76.9-10.4Zm-11.88-.12-1.48.58a35.773,35.773,0,0,1,1.78,4.5L66.84-6C66.46-7.04,65.42-9.66,65.02-10.52ZM86.74-1.76A17.623,17.623,0,0,1,86.6.6h1.94c-.08-.66-.12-1.74-.12-2.36,0-.58,0-3.6-.02-6.6a52.434,52.434,0,0,1,7.86,3.22l.68-1.7a63.923,63.923,0,0,0-8.54-3.3V-13.4c0-.6.08-1.46.14-2.08H86.58a12.624,12.624,0,0,1,.16,2.08Zm23.42-13.98h-1.88a12.124,12.124,0,0,1,.14,1.66c0,.72-.04,1.4-.08,2.04h-3.52a20.933,20.933,0,0,1-2.28-.12v1.7a21.341,21.341,0,0,1,2.3-.08h3.36c-.54,4.12-1.98,6.62-3.96,8.42a9.858,9.858,0,0,1-2.06,1.48L103.64.54c3.34-2.3,5.42-5.34,6.14-11.08h5.6c0,2.14-.26,7.06-1.02,8.58a1.083,1.083,0,0,1-1.16.66,24.333,24.333,0,0,1-2.98-.22l.2,1.66c1.04.06,2.2.14,3.22.14a2.076,2.076,0,0,0,2.14-1.22c.9-1.92,1.14-7.74,1.22-9.66a6.256,6.256,0,0,1,.1-.98l-1.12-.56a7.208,7.208,0,0,1-1.28.1h-4.76c.04-.66.08-1.34.1-2.06C110.06-14.58,110.1-15.28,110.16-15.74Zm11.88,7.08V-6.7c.62-.06,1.68-.1,2.78-.1H135.8c.9,0,1.74.08,2.14.1V-8.66c-.44.04-1.16.1-2.16.1H124.82C123.7-8.56,122.64-8.62,122.04-8.66Zm31.08-5.74-1.1.5a19.849,19.849,0,0,1,1.78,3.04l1.14-.52A30.138,30.138,0,0,0,153.12-14.4Zm2.42-1-1.1.52a19.458,19.458,0,0,1,1.86,3l1.12-.56A27.009,27.009,0,0,0,155.54-15.4ZM146.1-1.5a21.9,21.9,0,0,1-.12,2.36h1.92c-.06-.64-.12-1.72-.12-2.36V-8.08a51.254,51.254,0,0,1,7.84,3.2l.7-1.7a67.938,67.938,0,0,0-8.54-3.3v-3.26a18.473,18.473,0,0,1,.14-2.08h-1.98a12.624,12.624,0,0,1,.16,2.08ZM170-9.72a2.108,2.108,0,0,0-2.12,2.12A2.108,2.108,0,0,0,170-5.48a2.108,2.108,0,0,0,2.12-2.12A2.108,2.108,0,0,0,170-9.72ZM186.08.26c3.06,0,4.98-1.84,4.98-4.16,0-2.18-1.32-3.18-3.02-3.92l-2.1-.9c-1.14-.48-2.42-1.02-2.42-2.44,0-1.32,1.08-2.16,2.74-2.16a4.749,4.749,0,0,1,3.34,1.38l.98-1.18a6.012,6.012,0,0,0-4.32-1.82c-2.66,0-4.62,1.64-4.62,3.9,0,2.14,1.62,3.18,2.98,3.76l2.12.92c1.38.62,2.44,1.1,2.44,2.6,0,1.44-1.16,2.4-3.08,2.4a5.679,5.679,0,0,1-4.04-1.82l-1.12,1.26A7.006,7.006,0,0,0,186.08.26Zm7.7-.26h1.82V-7.88c1.1-1.1,1.86-1.66,2.98-1.66,1.44,0,2.06.86,2.06,2.9V0h1.82V-6.88c0-2.78-1.04-4.26-3.32-4.26a5.1,5.1,0,0,0-3.6,1.82l.06-2.24v-4.36h-1.82Zm16.36.26c2.66,0,5.04-2.08,5.04-5.68,0-3.62-2.38-5.72-5.04-5.72s-5.04,2.1-5.04,5.72C205.1-1.82,207.48.26,210.14.26Zm0-1.52c-1.88,0-3.14-1.66-3.14-4.16s1.26-4.2,3.14-4.2,3.16,1.7,3.16,4.2S212.02-1.26,210.14-1.26Zm7.9,5.84h1.82V.9L219.82-1a4.9,4.9,0,0,0,3,1.26c2.5,0,4.72-2.14,4.72-5.86,0-3.34-1.52-5.54-4.32-5.54a5.791,5.791,0,0,0-3.46,1.52h-.06l-.16-1.24h-1.5Zm4.48-5.84a4.209,4.209,0,0,1-2.66-1.14V-8.1a4.528,4.528,0,0,1,2.92-1.5c2.06,0,2.86,1.62,2.86,4.02C225.64-2.88,224.32-1.26,222.52-1.26ZM235.08,0h1.86V-5.82h2.42c3.22,0,5.4-1.44,5.4-4.54,0-3.2-2.2-4.32-5.48-4.32h-4.2Zm1.86-7.32v-5.84h2.1c2.58,0,3.88.68,3.88,2.8,0,2.1-1.22,3.04-3.8,3.04ZM249.1.26a5.818,5.818,0,0,0,3.6-1.56h.06l.16,1.3h1.5V-6.68c0-2.68-1.12-4.46-3.76-4.46a8.169,8.169,0,0,0-4.28,1.42l.72,1.26a5.983,5.983,0,0,1,3.26-1.16c1.78,0,2.24,1.34,2.24,2.74-4.62.52-6.68,1.7-6.68,4.06A2.944,2.944,0,0,0,249.1.26Zm.52-1.46c-1.08,0-1.92-.5-1.92-1.74,0-1.4,1.24-2.3,4.9-2.74v3.04A4.438,4.438,0,0,1,249.62-1.2Zm8.44,5.88c2.16,0,3.3-1.64,4.04-3.78l4.1-11.76h-1.78l-1.94,6.04c-.3.96-.62,2.06-.92,3.04h-.1c-.34-.98-.72-2.1-1.04-3.04l-2.22-6.04h-1.9L260.66.02l-.24.82c-.44,1.34-1.22,2.34-2.46,2.34a2.6,2.6,0,0,1-.82-.18l-.36,1.46A3.343,3.343,0,0,0,258.06,4.68Zm18.4-14.4a2.108,2.108,0,0,0-2.12,2.12,2.108,2.108,0,0,0,2.12,2.12,2.108,2.108,0,0,0,2.12-2.12A2.108,2.108,0,0,0,276.46-9.72ZM294.22.26a6.3,6.3,0,0,0,4.54-1.7V-7.6h-4.8v1.54h3.1v3.84a4.021,4.021,0,0,1-2.64.86c-3.16,0-4.9-2.32-4.9-6.02,0-3.66,1.92-5.94,4.86-5.94a4.112,4.112,0,0,1,3.18,1.4l1-1.2a5.58,5.58,0,0,0-4.22-1.82c-3.88,0-6.72,2.88-6.72,7.62C287.62-2.56,290.38.26,294.22.26Zm12.08,0c2.66,0,5.04-2.08,5.04-5.68,0-3.62-2.38-5.72-5.04-5.72s-5.04,2.1-5.04,5.72C301.26-1.82,303.64.26,306.3.26Zm0-1.52c-1.88,0-3.14-1.66-3.14-4.16s1.26-4.2,3.14-4.2,3.16,1.7,3.16,4.2S308.18-1.26,306.3-1.26ZM318.42.26c2.66,0,5.04-2.08,5.04-5.68,0-3.62-2.38-5.72-5.04-5.72s-5.04,2.1-5.04,5.72C313.38-1.82,315.76.26,318.42.26Zm0-1.52c-1.88,0-3.14-1.66-3.14-4.16s1.26-4.2,3.14-4.2,3.16,1.7,3.16,4.2S320.3-1.26,318.42-1.26ZM329.98,5c3.36,0,5.5-1.74,5.5-3.76,0-1.78-1.28-2.58-3.8-2.58h-2.12c-1.46,0-1.9-.48-1.9-1.18a1.617,1.617,0,0,1,.7-1.3,3.777,3.777,0,0,0,1.62.38,3.724,3.724,0,0,0,3.96-3.78,3.1,3.1,0,0,0-.88-2.24h2.22v-1.4H331.5a4.48,4.48,0,0,0-1.52-.28,3.868,3.868,0,0,0-4.08,3.88,3.813,3.813,0,0,0,1.42,2.92v.08a2.65,2.65,0,0,0-1.22,2.02,1.964,1.964,0,0,0,1,1.78v.08a3.048,3.048,0,0,0-1.6,2.46C325.5,3.96,327.32,5,329.98,5Zm0-9.68a2.38,2.38,0,0,1-2.32-2.58,2.322,2.322,0,0,1,2.32-2.54,2.333,2.333,0,0,1,2.32,2.54A2.391,2.391,0,0,1,329.98-4.68Zm.26,8.44c-1.96,0-3.14-.76-3.14-1.92A2.264,2.264,0,0,1,328.2,0a6.108,6.108,0,0,0,1.4.18h1.88c1.44,0,2.22.34,2.22,1.34C333.7,2.66,332.32,3.76,330.24,3.76ZM339.5.26A2.8,2.8,0,0,0,340.56.1l-.26-1.4a1.6,1.6,0,0,1-.38.04c-.28,0-.52-.22-.52-.78V-15.92h-1.82V-2.16C337.58-.62,338.14.26,339.5.26Zm8.16,0a6.464,6.464,0,0,0,3.6-1.12l-.66-1.2a4.682,4.682,0,0,1-2.72.86c-2.06,0-3.48-1.48-3.6-3.8h7.32a7.1,7.1,0,0,0,.08-1.04c0-3.1-1.56-5.1-4.32-5.1-2.52,0-4.9,2.2-4.9,5.72C342.46-1.84,344.78.26,347.66.26Zm-3.4-6.58c.22-2.12,1.58-3.36,3.12-3.36,1.7,0,2.7,1.18,2.7,3.36ZM359,0h1.86V-5.82h2.42c3.22,0,5.4-1.44,5.4-4.54,0-3.2-2.2-4.32-5.48-4.32H359Zm1.86-7.32v-5.84h2.1c2.58,0,3.88.68,3.88,2.8,0,2.1-1.22,3.04-3.8,3.04ZM373.02.26a5.818,5.818,0,0,0,3.6-1.56h.06l.16,1.3h1.5V-6.68c0-2.68-1.12-4.46-3.76-4.46a8.169,8.169,0,0,0-4.28,1.42l.72,1.26a5.983,5.983,0,0,1,3.26-1.16c1.78,0,2.24,1.34,2.24,2.74-4.62.52-6.68,1.7-6.68,4.06A2.944,2.944,0,0,0,373.02.26Zm.52-1.46c-1.08,0-1.92-.5-1.92-1.74,0-1.4,1.24-2.3,4.9-2.74v3.04A4.438,4.438,0,0,1,373.54-1.2Zm8.44,5.88c2.16,0,3.3-1.64,4.04-3.78l4.1-11.76h-1.78L386.4-4.82c-.3.96-.62,2.06-.92,3.04h-.1c-.34-.98-.72-2.1-1.04-3.04l-2.22-6.04h-1.9L384.58.02l-.24.82c-.44,1.34-1.22,2.34-2.46,2.34a2.6,2.6,0,0,1-.82-.18l-.36,1.46A3.343,3.343,0,0,0,381.98,4.68Zm13.18-.74,1.14-.54a18.436,18.436,0,0,1-2.56-9.62,18.487,18.487,0,0,1,2.56-9.62l-1.14-.52a18.679,18.679,0,0,0-2.94,10.14A18.747,18.747,0,0,0,395.16,3.94Zm20.6-17.04a21.106,21.106,0,0,0-3.3-3.2l-1.08.72a21.338,21.338,0,0,1,3.22,3.28Zm-12.34-3.4a22.42,22.42,0,0,1-5.78,8.12,9.769,9.769,0,0,1,.86,1.44,22.666,22.666,0,0,0,2.68-2.94V1.5h1.5V-12.02a26.96,26.96,0,0,0,2.14-4.04Zm12.72,6.44-.2-1.4-5.98.76c-.2-1.76-.32-3.7-.38-5.72H408.1c.08,2.08.22,4.06.38,5.92l-4.84.6.2,1.4,4.8-.6c.76,6.24,2.36,10.38,5.64,10.62,1.04.06,1.84-.98,2.28-4.4a6.05,6.05,0,0,1-1.24-.78c-.2,2.3-.52,3.48-1.1,3.44-2.14-.2-3.44-3.78-4.12-9.08Zm4.46,2.94c.18-.9.34-1.88.5-2.82h6.02V-15.9h-7.98v1.4h6.52v3.16h-5.84c-.28,2.02-.76,4.66-1.16,6.32l1.46.24c.06-.3.14-.62.22-.96h5.26c-.26,3.6-.6,5.14-1.08,5.56a1.161,1.161,0,0,1-.88.22c-.5,0-1.82-.02-3.14-.14a3.369,3.369,0,0,1,.52,1.52,29.108,29.108,0,0,0,3.16.04,1.928,1.928,0,0,0,1.58-.64c.72-.68,1.06-2.54,1.42-7.26.02-.2.04-.68.04-.68Zm11.98-9.4V1.52h1.48V-16.52Zm14.6,2.56a4.665,4.665,0,0,0,.14.5,40.072,40.072,0,0,1-6.6-.24l.1,1.46a47.924,47.924,0,0,0,6.88.14q.24.72.54,1.56c.12.34.26.68.4,1.04a44.833,44.833,0,0,1-8.3-.1l.08,1.5a58.194,58.194,0,0,0,8.8-.04,21.158,21.158,0,0,0,1.56,2.88c-.64-.08-1.94-.22-3-.34l-.14,1.22a37.058,37.058,0,0,1,4.38.64l.82-1.22a6.009,6.009,0,0,1-.74-.86,19.87,19.87,0,0,1-1.4-2.48,31.185,31.185,0,0,0,3.62-.72l-.24-1.5a22.1,22.1,0,0,1-4,.86c-.16-.4-.32-.82-.46-1.2-.14-.42-.3-.88-.44-1.38a29.122,29.122,0,0,0,3.94-.8l-.22-1.44a22.256,22.256,0,0,1-4.1.9,15.213,15.213,0,0,1-.48-2.38l-1.7.22C446.82-15.18,447.02-14.56,447.18-13.96ZM443.24-5.3l-1.56-.32a5.809,5.809,0,0,0-.78,2.86c.02,2.56,2.22,3.72,6.14,3.72a30.416,30.416,0,0,0,4.68-.34l.06-1.6a22.647,22.647,0,0,1-4.76.42c-3.14,0-4.62-.82-4.62-2.48A3.876,3.876,0,0,1,443.24-5.3Zm22.58-2.84-3.08.76v-3.9h2.92v-1.38h-2.92v-4.08h-1.42v4.08h-3.18v1.38h3.18v4.24c-1.32.32-2.52.6-3.46.8l.36,1.46c.92-.24,1.98-.52,3.1-.8V-.3c0,.34-.12.42-.42.44s-1.34.04-2.42,0a6.367,6.367,0,0,1,.46,1.4,9.673,9.673,0,0,0,3.02-.26c.58-.24.78-.66.78-1.58V-5.96c1.06-.28,2.16-.56,3.22-.84ZM476.46.94a37.563,37.563,0,0,0-3.88-8.42l-1.26.5a40.984,40.984,0,0,1,2.66,5.4c-2.34.28-4.7.54-6.76.78,1.28-4.24,2.7-10.3,3.6-15.1l-1.6-.28A129.272,129.272,0,0,1,465.68-.64c-.74.1-1.42.16-2.02.22l.32,1.54c2.74-.34,6.74-.86,10.52-1.38.24.64.42,1.26.56,1.78Zm5.14-14.9L479.66-14a9.02,9.02,0,0,1,.14,1.78c0,1.16.04,3.6.22,5.34.54,5.18,2.36,7.06,4.26,7.06,1.34,0,2.56-1.16,3.76-4.56L486.78-5.8c-.52,2-1.46,4.08-2.48,4.08-1.42,0-2.4-2.22-2.72-5.56-.14-1.66-.16-3.48-.14-4.74A15.23,15.23,0,0,1,481.6-13.96Zm10.42.56-1.56.54c1.92,2.34,3.12,6.44,3.48,10.06l1.6-.66A21.494,21.494,0,0,0,492.02-13.4Zm15.12,3.68a2.108,2.108,0,0,0-2.12,2.12,2.108,2.108,0,0,0,2.12,2.12,2.108,2.108,0,0,0,2.12-2.12A2.108,2.108,0,0,0,507.14-9.72Zm12,9.72H521V-5.82h2.42c3.22,0,5.4-1.44,5.4-4.54,0-3.2-2.2-4.32-5.48-4.32h-4.2ZM521-7.32v-5.84h2.1c2.58,0,3.88.68,3.88,2.8,0,2.1-1.22,3.04-3.8,3.04ZM533.16.26a5.818,5.818,0,0,0,3.6-1.56h.06l.16,1.3h1.5V-6.68c0-2.68-1.12-4.46-3.76-4.46a8.169,8.169,0,0,0-4.28,1.42l.72,1.26a5.983,5.983,0,0,1,3.26-1.16c1.78,0,2.24,1.34,2.24,2.74-4.62.52-6.68,1.7-6.68,4.06A2.944,2.944,0,0,0,533.16.26Zm.52-1.46c-1.08,0-1.92-.5-1.92-1.74,0-1.4,1.24-2.3,4.9-2.74v3.04A4.439,4.439,0,0,1,533.68-1.2Zm8.44,5.88c2.16,0,3.3-1.64,4.04-3.78l4.1-11.76h-1.78l-1.94,6.04c-.3.96-.62,2.06-.92,3.04h-.1c-.34-.98-.72-2.1-1.04-3.04l-2.22-6.04h-1.9L544.72.02l-.24.82c-.44,1.34-1.22,2.34-2.46,2.34A2.6,2.6,0,0,1,541.2,3l-.36,1.46A3.344,3.344,0,0,0,542.12,4.68ZM557,0h1.86V-5.82h2.42c3.22,0,5.4-1.44,5.4-4.54,0-3.2-2.2-4.32-5.48-4.32H557Zm1.86-7.32v-5.84h2.1c2.58,0,3.88.68,3.88,2.8,0,2.1-1.22,3.04-3.8,3.04ZM571.02.26a5.818,5.818,0,0,0,3.6-1.56h.06l.16,1.3h1.5V-6.68c0-2.68-1.12-4.46-3.76-4.46a8.169,8.169,0,0,0-4.28,1.42l.72,1.26a5.983,5.983,0,0,1,3.26-1.16c1.78,0,2.24,1.34,2.24,2.74-4.62.52-6.68,1.7-6.68,4.06A2.944,2.944,0,0,0,571.02.26Zm.52-1.46c-1.08,0-1.92-.5-1.92-1.74,0-1.4,1.24-2.3,4.9-2.74v3.04A4.439,4.439,0,0,1,571.54-1.2Zm8.44,5.88c2.16,0,3.3-1.64,4.04-3.78l4.1-11.76h-1.78L584.4-4.82c-.3.96-.62,2.06-.92,3.04h-.1c-.34-.98-.72-2.1-1.04-3.04l-2.22-6.04h-1.9L582.58.02l-.24.82c-.44,1.34-1.22,2.34-2.46,2.34a2.6,2.6,0,0,1-.82-.18l-.36,1.46A3.344,3.344,0,0,0,579.98,4.68Zm18.4-14.4a2.108,2.108,0,0,0-2.12,2.12,2.108,2.108,0,0,0,2.12,2.12A2.108,2.108,0,0,0,600.5-7.6,2.108,2.108,0,0,0,598.38-9.72ZM3.44,15.28v1.78C3.9,17.04,4.9,17,5.64,17h9.58v9.44H5.4a21.118,21.118,0,0,1-2.22-.12v1.82c.54-.04,1.44-.08,2.26-.08h9.78c-.02.48-.02.9-.04,1.12h1.8c-.02-.32-.08-1.22-.08-1.94V16.92c0-.48.04-1.1.06-1.56-.4.02-1,.04-1.48.04H5.62A20.183,20.183,0,0,1,3.44,15.28Zm21.1-.94L23.4,15.56a41.537,41.537,0,0,1,4.98,4.18l1.26-1.26A43.8,43.8,0,0,0,24.54,14.34Zm-1.72,13.4,1.06,1.64a21.922,21.922,0,0,0,7.86-3.1,19.982,19.982,0,0,0,6.72-7.12l-.96-1.7a18.841,18.841,0,0,1-6.68,7.36A20.651,20.651,0,0,1,22.82,27.74ZM54.56,13.32l-1.06.46a22.856,22.856,0,0,1,1.62,2.78l1.08-.5A31,31,0,0,0,54.56,13.32Zm2.2-.8-1.06.46a21.026,21.026,0,0,1,1.66,2.76l1.08-.5A28.618,28.618,0,0,0,56.76,12.52ZM45.58,14H43.72a10.84,10.84,0,0,1,.12,1.62v11c0,1.62.86,2.32,2.4,2.6a21.017,21.017,0,0,0,3.2.2A55.919,55.919,0,0,0,56.36,29V27.18a32.733,32.733,0,0,1-6.84.64,19.007,19.007,0,0,1-2.64-.16c-.98-.2-1.4-.46-1.4-1.48v-4.4a76.673,76.673,0,0,0,8.18-2.6c.6-.22,1.32-.54,1.88-.78l-.7-1.6a14.581,14.581,0,0,1-1.76.9,54.478,54.478,0,0,1-7.6,2.44V15.62A13.281,13.281,0,0,1,45.58,14Zm17.98,1.98v1.8c.62-.02,1.28-.06,1.98-.06H74.1c.66,0,1.42.02,1.98.06v-1.8a19.652,19.652,0,0,1-1.98.08H65.54C64.88,16.06,64.2,16.02,63.56,15.98Zm-1.72,9.9V27.8c.68-.04,1.38-.1,2.1-.1H75.92c.54,0,1.22.04,1.82.1V25.88a18.163,18.163,0,0,1-1.82.1H63.94C63.22,25.98,62.52,25.92,61.84,25.88Zm26.84-5.02-3.08.76v-3.9h2.92V16.34H85.6V12.26H84.18v4.08H81v1.38h3.18v4.24c-1.32.32-2.52.6-3.46.8l.36,1.46c.92-.24,1.98-.52,3.1-.8V28.7c0,.34-.12.42-.42.44s-1.34.04-2.42,0a6.368,6.368,0,0,1,.46,1.4,9.673,9.673,0,0,0,3.02-.26c.58-.24.78-.66.78-1.58V23.04c1.06-.28,2.16-.56,3.22-.84Zm10.64,9.08a37.561,37.561,0,0,0-3.88-8.42l-1.26.5a40.985,40.985,0,0,1,2.66,5.4c-2.34.28-4.7.54-6.76.78,1.28-4.24,2.7-10.3,3.6-15.1l-1.6-.28a129.275,129.275,0,0,1-3.54,15.54c-.74.1-1.42.16-2.02.22l.32,1.54c2.74-.34,6.74-.86,10.52-1.38.24.64.42,1.26.56,1.78Zm5.14-14.9L102.52,15a9.021,9.021,0,0,1,.14,1.78c0,1.16.04,3.6.22,5.34.54,5.18,2.36,7.06,4.26,7.06,1.34,0,2.56-1.16,3.76-4.56l-1.26-1.42c-.52,2-1.46,4.08-2.48,4.08-1.42,0-2.4-2.22-2.72-5.56-.14-1.66-.16-3.48-.14-4.74A15.227,15.227,0,0,1,104.46,15.04Zm10.42.56-1.56.54c1.92,2.34,3.12,6.44,3.48,10.06l1.6-.66A21.494,21.494,0,0,0,114.88,15.6Zm14.04,11c0-.98,1.06-1.62,2.56-1.62a6.806,6.806,0,0,1,2.04.32c.02.26.02.5.02.7,0,1.32-.5,2.18-2.18,2.18C129.92,28.18,128.92,27.62,128.92,26.6Zm6.06-13h-1.8c.04.34.08.88.08,1.22V17.3c-.62.02-1.26.04-1.88.04-1.2,0-2.26-.06-3.4-.16v1.5c1.18.08,2.22.14,3.36.14.64,0,1.28-.02,1.92-.04.02,1.64.14,3.6.2,5.14a9.172,9.172,0,0,0-1.86-.18c-2.62,0-4.12,1.34-4.12,3.02,0,1.8,1.48,2.86,4.16,2.86,2.7,0,3.46-1.58,3.46-3.22v-.42a16.271,16.271,0,0,1,3.02,2.32l.88-1.34a13.183,13.183,0,0,0-3.96-2.58c-.08-1.68-.22-3.68-.24-5.7,1.2-.08,2.36-.2,3.46-.38V16.76a33.771,33.771,0,0,1-3.46.46c.02-.94.04-1.88.06-2.42Q134.89,14.2,134.98,13.6Zm-9.88.12-1.76-.14a12,12,0,0,1-.12,1.42,59.509,59.509,0,0,0-.92,8.42,24.157,24.157,0,0,0,.76,6.32l1.4-.1c-.02-.22-.04-.5-.04-.7a3.583,3.583,0,0,1,.08-.9c.2-.98.94-3.02,1.42-4.42l-.82-.64c-.34.82-.82,2.04-1.14,2.94a18.761,18.761,0,0,1-.2-2.78,49.589,49.589,0,0,1,1-8.06A10.4,10.4,0,0,1,125.1,13.72Zm33.44,1.44V13.68H141.46v1.48h8.84a23.2,23.2,0,0,1-9.34,8.72,10.23,10.23,0,0,1,1,1.3,25.646,25.646,0,0,0,7.24-5.82V30.48h1.58V17.36c.5-.74.98-1.46,1.42-2.2Zm-7.36,4.3a44.628,44.628,0,0,1,6.74,5.44l1.18-1.14a45.648,45.648,0,0,0-6.82-5.26Zm18.7.06v4.56h-5.22V19.52Zm1.46,5.98V18.08h-8.12V27.1h1.44V25.5Zm7.54-11.82h-17.7v1.48H174.9V28.38c0,.42-.14.56-.58.58-.46.02-2.1.04-3.7-.04a7.485,7.485,0,0,1,.64,1.58,15.441,15.441,0,0,0,4.14-.28c.76-.22,1.02-.76,1.02-1.82V15.16h2.46Zm3.1,19.26a18.882,18.882,0,0,0,0-20.3l-1.12.52a18.678,18.678,0,0,1,2.56,9.62,18.627,18.627,0,0,1-2.56,9.62Z" transform="translate(3951.96 -15884.984)" fill="#3c505a"/>
    <line id="Line_36" data-name="Line 36" y2="58" transform="translate(3931.46 -15908.484)" fill="none" stroke="#a9a9a9" stroke-width="1" stroke-dasharray="2"/>
  </g>
</svg>
