<svg xmlns="http://www.w3.org/2000/svg" xmlns:xlink="http://www.w3.org/1999/xlink" width="223.71" height="193.738" viewBox="0 0 223.71 193.738">
  <defs>
    <linearGradient id="linear-gradient" x1="0.5" x2="0.5" y2="1" gradientUnits="objectBoundingBox">
      <stop offset="0" stop-color="#dddddb"/>
      <stop offset="0.494" stop-color="#8c8667"/>
      <stop offset="1" stop-color="#f8f489"/>
    </linearGradient>
  </defs>
  <g id="Group_296" data-name="Group 296" transform="translate(4160.29 716)">
    <g id="Group_270" data-name="Group 270" transform="translate(-0.655 -0.039)">
      <g id="Group_269" data-name="Group 269" transform="translate(415.645 331)">
        <path id="Path_84" data-name="Path 84" d="M55.928,0,0,96.87l55.928,96.869H167.782L223.71,96.87,167.782,0Z" transform="translate(-4575.28 -1046.961)" fill="url(#linear-gradient)"/>
        <path id="Path_152" data-name="Path 152" d="M53.662,0,0,92.945,53.662,185.89H160.985l53.662-92.945L160.985,0Z" transform="translate(-4570.748 -1043.035)" fill="#fff"/>
      </g>
    </g>
    <g id="Group_273" data-name="Group 273" transform="translate(-6.849 7.676)">
      <path id="Path_179" data-name="Path 179" d="M-32.19-22.02c.99.24,2.22.6,2.34,1.41a32.909,32.909,0,0,1,.18,5.16c-3.42.45-7.86.99-9.06.99a3.26,3.26,0,0,1-2.4-1.35l-.39.15a5.465,5.465,0,0,0,.27,1.71c.39,1.05,2.31,2.79,3.36,2.79A8.9,8.9,0,0,0-35.37-12c1.2-.33,3.51-.84,5.64-1.17a17.844,17.844,0,0,1-8.46,14.4l.36.54c7.44-2.79,10.77-7.71,11.4-15.27a77.882,77.882,0,0,1,8.97.12c.78,0,1.5-.33,1.5-1.35,0-1.23-2.76-2.31-3.99-2.31a55.084,55.084,0,0,1-6.33,1.17c.06-1.14.09-2.37.18-3.45.12-1.2.72-1.26.72-2.07,0-.93-2.28-2.28-4.05-2.28a6.008,6.008,0,0,0-2.79,1.2ZM2.82-18.96a6.108,6.108,0,0,1-.63,2.28C.15-11.79-5.49-4.05-12.51.72l.36.6A35.948,35.948,0,0,0,6.27-15.9c.54-1.08,1.71-1.23,1.71-2.28,0-1.17-2.01-2.97-3.78-3.6a7.955,7.955,0,0,0-3.36-.24l-.12.54C2.46-20.46,2.82-19.95,2.82-18.96ZM15-9.6a24.729,24.729,0,0,0,3.9-3.45V2.67h.63a5.619,5.619,0,0,0,2.82-.75V-15.84c.57-.12.84-.3.96-.6l-1.38-.48a36.508,36.508,0,0,0,3.3-6.39c.72.03,1.08-.24,1.23-.6l-5.04-1.62A46.883,46.883,0,0,1,14.67-9.87ZM41.55-7.41h-.33a37.669,37.669,0,0,1-1.59,5.22,1.214,1.214,0,0,1-.93.54c-.51.03-1.44.06-2.64.06H33c-1.23,0-1.59-.3-1.59-1.11v-9.24a40.05,40.05,0,0,0,9.72-5.46c.69.15,1.02.03,1.2-.24l-4.05-2.94a39.469,39.469,0,0,1-6.87,7.53v-10.5c.75-.12,1.05-.45,1.08-.84l-4.56-.48V-1.68c0,2.82,1.17,3.51,4.5,3.51h3.36c5.7,0,7.2-.66,7.2-2.28,0-.63-.3-1.05-1.32-1.5ZM-52.83,32.51c.09-1.83.27-5.67.36-7.41.06-.9.66-1.23.66-2.01,0-.9-2.67-2.4-3.93-2.4a6.086,6.086,0,0,0-2.82,1.29l.03.48a7.281,7.281,0,0,1,1.8.69c.57.33.63.66.66,1.35a65.51,65.51,0,0,1-.06,8.01c-.45,5.94-3.45,9.87-9.15,12.99l.33.54C-57.54,43.91-53.25,39.68-52.83,32.51ZM-66.9,23.93a1.2,1.2,0,0,1,.66,1.11c.18,1.23.18,4.41.18,5.88a28.67,28.67,0,0,1-.42,3.69c0,1.77.96,3.27,1.95,3.27,1.02,0,1.62-.66,1.62-2.25,0-2.04-.03-7.32.06-8.61.06-1.23.72-1.68.72-2.46,0-1.08-2.76-2.58-4.08-2.58a5.931,5.931,0,0,0-2.4.69v.48A9.241,9.241,0,0,1-66.9,23.93Zm46.59-3.78a2.1,2.1,0,0,1,2.13,2.13,2.094,2.094,0,0,1-2.13,2.1,2.087,2.087,0,0,1-2.1-2.1A2.094,2.094,0,0,1-20.31,20.15Zm0,5.46a3.348,3.348,0,0,0,3.36-3.33,3.354,3.354,0,0,0-3.36-3.36,3.348,3.348,0,0,0-3.33,3.36A3.342,3.342,0,0,0-20.31,25.61Zm-16.2,8.01a9.348,9.348,0,0,1-3.12,4.23c-1.5,1.23-2.28,1.44-2.28,2.76a1.639,1.639,0,0,0,1.68,1.74c2.82,0,4.41-5.04,4.32-8.67Zm2.67-10.89c1.26.3,2.04.57,2.28,1.29a27.836,27.836,0,0,1,.3,4.17c-2.49.27-6.84.75-8.22.75-.9.03-1.38-.45-2.13-1.38l-.42.15a6.347,6.347,0,0,0,.18,2.13c.54,1.23,1.86,2.43,2.82,2.43.81,0,1.41-.66,2.52-.93a43.235,43.235,0,0,1,5.31-.9l.03,2.16c.03,2.55.06,6.93-.09,8.49-.03.39-.21.45-.54.42a21.615,21.615,0,0,1-3.15-.54l-.21.48a7.329,7.329,0,0,1,2.28,2.22c.72,1.29.72,1.89,2.01,1.89,1.53,0,2.76-1.95,2.76-3.51,0-1.2-.3-6.36-.3-9.45V30.14c1.89-.18,3.75-.3,4.89-.3,1.77,0,2.76.18,3.93.18.84,0,1.29-.36,1.29-1.17,0-1.38-2.13-2.22-3.48-2.22-.78,0-.96.45-6.57,1.23a18.007,18.007,0,0,1,.24-2.55c.12-.81.66-1.05.66-1.77,0-.93-2.13-2.07-3.66-2.1a6.2,6.2,0,0,0-2.76.81Zm8.4,11.07a15.211,15.211,0,0,1,4.02,5.64c.45,1.02.93,2.16,2.16,2.16,1.08,0,1.71-.87,1.65-2.04-.27-3.06-3.84-5.4-7.53-6.21ZM9.54,27.68c.48-1.14,1.56-1.5,1.56-2.28,0-1.35-2.82-3.51-4.41-3.6a8.578,8.578,0,0,0-2.61.51l-.09.51c1.89.69,2.46,1.17,2.37,1.86C5.91,29.33.12,39.08-9.75,44.69l.39.57C0,42.14,6.03,35.6,9.54,27.68Zm-17.28.42c1.26,2.1,1.71,3.96,3.18,3.96A2.05,2.05,0,0,0-2.67,29.9c-.03-3.09-3.96-5.4-7.89-6.51l-.33.45A21.2,21.2,0,0,1-7.74,28.1Zm25.29,2.25a4.876,4.876,0,0,0,.09,2.28c.54,1.47,2.4,3.42,3.57,3.42,1.14,0,1.59-.72,3.75-.93,2.31-.27,9.03-.69,11.31-.69,2.1,0,3.15.09,4.35.09,1.26,0,1.98-.42,1.98-1.29,0-1.29-1.56-2.22-3.36-2.22-.72,0-2.07.24-4.08.42-1.83.15-10.89.75-14.1.75-1.59,0-2.1-.81-3-2.01Zm45.33,2.34a18.115,18.115,0,0,1,3.6,5.13c-2.88.39-7.71.9-11.25,1.23,2.25-3.66,4.86-8.43,6.33-11.13.54-.99,1.62-1.53,1.62-2.22,0-.93-1.92-2.73-3.75-3.3a8.974,8.974,0,0,0-2.37-.3l-.15.42c.99.99,1.41,1.68,1.41,2.46,0,1.71-3.3,9.93-5.49,14.28-.96.06-1.65.12-1.89.12a4.053,4.053,0,0,1-2.13-.99l-.39.18a5.445,5.445,0,0,0-.15,1.44c.09,1.35,1.95,3.63,3.33,3.63.63,0,1.53-.96,2.19-1.11,2.19-.6,9.12-1.92,13.35-3,1.05,2.97.93,4.29,2.55,4.29a2.1,2.1,0,0,0,2.07-2.34c0-3.93-4.11-7.47-8.49-9.18ZM-18.78,69.16h-2.49c.06-1.74.06-3.48.09-5.16.75-.12,1.02-.39,1.11-.84l-4.65-.42c0,2.13.03,4.26,0,6.42h-4.02l.27.84h3.72c-.12,7.08-.87,14.16-4.77,20.25l.42.42c6.33-5.64,7.5-13.2,7.8-20.67h2.82c-.21,9.99-.54,14.97-1.56,15.93a1.438,1.438,0,0,1-1.05.36c-.6,0-2.16-.12-3.12-.21l-.03.42a4.205,4.205,0,0,1,2.43,1.23,3.933,3.933,0,0,1,.48,2.43,5.223,5.223,0,0,0,3.96-1.5c1.62-1.68,2.04-6.03,2.28-18.06A1.985,1.985,0,0,0-13.8,70l-3.15-2.73ZM-9.54,85.6V68.47h3.66V85.6Zm5.07-19.89-1.71,1.92H-9.42l-3.54-1.53V90.04h.6c1.47,0,2.82-.81,2.82-1.23V86.47h3.66V89.5h.57a4.3,4.3,0,0,0,3-1.26V69.1a2.242,2.242,0,0,0,1.23-.66ZM23.04,87.37H16.89V68.11h9.54c.42,0,.78-.15.87-.48-1.47-1.29-3.9-3.15-3.9-3.15l-2.16,2.76H2.97l.24.87h9.81V87.37H.99l.24.84H28.26c.48,0,.78-.15.87-.48-1.47-1.29-3.9-3.15-3.9-3.15Z" transform="translate(-4041.441 -653.676)" fill="#3c505a"/>
    </g>
  </g>
</svg>
