<svg xmlns="http://www.w3.org/2000/svg" xmlns:xlink="http://www.w3.org/1999/xlink" width="223.71" height="193.738" viewBox="0 0 223.71 193.738">
  <defs>
    <linearGradient id="linear-gradient" x1="0.5" x2="0.5" y2="1" gradientUnits="objectBoundingBox">
      <stop offset="0" stop-color="#dddddb"/>
      <stop offset="0.494" stop-color="#8c8667"/>
      <stop offset="1" stop-color="#f8f489"/>
    </linearGradient>
  </defs>
  <g id="Group_295" data-name="Group 295" transform="translate(4628 716)">
    <g id="Group_268" data-name="Group 268" transform="translate(-52.72 330.961)">
      <path id="Path_84" data-name="Path 84" d="M55.928,0,0,96.87l55.928,96.869H167.782L223.71,96.87,167.782,0Z" transform="translate(-4575.28 -1046.961)" fill="url(#linear-gradient)"/>
      <path id="Path_152" data-name="Path 152" d="M53.662,0,0,92.945,53.662,185.89H160.985l53.662-92.945L160.985,0Z" transform="translate(-4570.748 -1043.035)" fill="#fff"/>
    </g>
    <g id="Group_271" data-name="Group 271" transform="translate(10 -15.268)">
      <path id="Path_178" data-name="Path 178" d="M-62.075-18.725c1.225.275,1.75.45,1.825,1.125a26.254,26.254,0,0,1,.175,4.3c-1.425.15-3.2.35-4.575.475,0-.75.025-1.5.05-1.925.075-.9.5-.95.5-1.525,0-1-1.975-1.875-2.95-1.875a4.252,4.252,0,0,0-1.975.625l.025.35c1.15.325,1.7.575,1.825,1.225A30.121,30.121,0,0,1-67-12.575c-1.525.15-3.65.4-4.5.4-.7,0-1.125-.425-1.8-1.2l-.325.1A4.178,4.178,0,0,0-73.45-11.5c.25.55,1.225,2,2.2,2a6.6,6.6,0,0,0,1.775-.625A17.619,17.619,0,0,1-67-10.7a26.956,26.956,0,0,1-.45,3.65c0,1.025.7,2.5,1.625,2.5.825,0,1.2-.475,1.2-1.475,0-1.15-.025-2.975-.025-5.025,1.3-.15,3-.325,4.575-.45-.05,2.925-.4,5.9-1.4,7.575A13.426,13.426,0,0,1-67.15,1.05l.225.425c3.375-.9,6.075-2.45,7.725-4.85,1.375-1.925,1.6-4.775,1.725-8.25h.225c2.5,0,3.825.425,4.725.425.7,0,1.125-.15,1.125-.975,0-1.2-1.675-1.875-3.15-1.875-.5,0-.8.275-2.925.5,0-.725.025-1.525.05-2.35.075-1.425.65-1.3.65-1.925,0-.85-1.9-2-3.225-2a4.907,4.907,0,0,0-2.1.725Zm32.65-1.15A1.75,1.75,0,0,1-27.65-18.1a1.745,1.745,0,0,1-1.775,1.75,1.739,1.739,0,0,1-1.75-1.75A1.745,1.745,0,0,1-29.425-19.875Zm0,4.55a2.79,2.79,0,0,0,2.8-2.775,2.8,2.8,0,0,0-2.8-2.8A2.79,2.79,0,0,0-32.2-18.1,2.785,2.785,0,0,0-29.425-15.325Zm-13.5,6.675a7.79,7.79,0,0,1-2.6,3.525c-1.25,1.025-1.9,1.2-1.9,2.3a1.366,1.366,0,0,0,1.4,1.45c2.35,0,3.675-4.2,3.6-7.225Zm2.225-9.075c1.05.25,1.7.475,1.9,1.075a23.2,23.2,0,0,1,.25,3.475c-2.075.225-5.7.625-6.85.625-.75.025-1.15-.375-1.775-1.15l-.35.125a5.29,5.29,0,0,0,.15,1.775,3.353,3.353,0,0,0,2.35,2.025c.675,0,1.175-.55,2.1-.775A36.029,36.029,0,0,1-38.5-11.3l.025,1.8c.025,2.125.05,5.775-.075,7.075-.025.325-.175.375-.45.35a18.012,18.012,0,0,1-2.625-.45l-.175.4a6.107,6.107,0,0,1,1.9,1.85C-39.3.8-39.3,1.3-38.225,1.3c1.275,0,2.3-1.625,2.3-2.925,0-1-.25-5.3-.25-7.875v-2.05c1.575-.15,3.125-.25,4.075-.25,1.475,0,2.3.15,3.275.15.7,0,1.075-.3,1.075-.975,0-1.15-1.775-1.85-2.9-1.85-.65,0-.8.375-5.475,1.025a15.005,15.005,0,0,1,.2-2.125c.1-.675.55-.875.55-1.475,0-.775-1.775-1.725-3.05-1.75a5.167,5.167,0,0,0-2.3.675Zm7,9.225a12.676,12.676,0,0,1,3.35,4.7c.375.85.775,1.8,1.8,1.8.9,0,1.425-.725,1.375-1.7-.225-2.55-3.2-4.5-6.275-5.175Zm10.825-2.875a4.064,4.064,0,0,0,.075,1.9c.45,1.225,2,2.85,2.975,2.85.95,0,1.325-.6,3.125-.775,1.925-.225,7.525-.575,9.425-.575,1.75,0,2.625.075,3.625.075C-2.6-7.9-2-8.25-2-8.975c0-1.075-1.3-1.85-2.8-1.85-.6,0-1.725.2-3.4.35-1.525.125-9.075.625-11.75.625-1.325,0-1.75-.675-2.5-1.675Zm30.1-7.25c1.025.175,1.8.45,1.95,1.275A55.253,55.253,0,0,1,9.45-11c0,1.5-.025,4.85-.225,6.725-.125,1.1-.35,1.675-.35,2.35,0,1.85.7,3.2,2,3.2,1,0,1.275-.525,1.275-1.825,0-.35-.05-1.2-.1-2.475-.075-2.15-.1-5.35-.025-8a13.278,13.278,0,0,1,3,1.875C16.95-7.375,17.05-6,18.65-6A1.452,1.452,0,0,0,20.1-7.525a3.022,3.022,0,0,0-1.825-2.725,16.79,16.79,0,0,0-6.225-1.775,30.911,30.911,0,0,1,.225-3.775c.125-.925.675-1.175.675-1.9,0-.825-2.225-2.05-3.475-2.05a5.91,5.91,0,0,0-2.275.725Zm41.75,13.25-.25-.05a27.862,27.862,0,0,1-1.575,3.05c-.275.45-.45.45-.825.1A10.949,10.949,0,0,1,43.7-5.125a24.881,24.881,0,0,0,3.45-6.45c.675.025.9-.175,1-.475l-3.9-1.3a27.949,27.949,0,0,1-1.9,5.475A27.351,27.351,0,0,1,40.875-15.4H48.45c.375,0,.65-.125.7-.375-.825-.725-2.075-1.725-2.625-2.15.525-1.05-.35-2.925-4.35-2.675L42-20.4a7.276,7.276,0,0,1,2.525,2.975,1.8,1.8,0,0,0,.975.2L44.6-16.1H40.85c-.075-1.325-.1-2.675-.075-4.025.65-.1.875-.4.9-.725l-3.8-.375c0,1.75.05,3.45.15,5.125h-6.5L28.15-17.3v6.575c0,4.225-.225,9.05-2.625,12.85l.225.225c4.975-3.525,5.325-9.05,5.325-13.05H34.25c-.1,4.025-.3,5.9-.75,6.3a.842.842,0,0,1-.675.2c-.425,0-1.45-.05-2.025-.1v.325a3.1,3.1,0,0,1,1.55.8,3.215,3.215,0,0,1,.35,1.85,4.187,4.187,0,0,0,2.7-.8c1.1-.875,1.425-2.8,1.575-8.15a1.544,1.544,0,0,0,.975-.425l-2.525-2.1-1.4,1.4h-2.95v-4H38.1A29.741,29.741,0,0,0,40.6-4.8a20.788,20.788,0,0,1-6.825,6.5l.175.3A20.855,20.855,0,0,0,41.7-2.85,15.236,15.236,0,0,0,44.6.475c1.175,1.05,3.275,2.1,4.4,1,.425-.4.3-1.15-.6-2.625Zm9.3-15.725a23.688,23.688,0,0,1-7.55,11.2l.2.275a21.038,21.038,0,0,0,10.25-9.5c.625.05.85-.125.975-.425ZM66.5-11.05H54.125l.225.7h4.525c-.2,3.75-.9,8.2-7.35,12.2l.25.35c8.375-3.375,9.825-8.15,10.3-12.55h4.65C66.45-5.425,66-2.075,65.25-1.425a1.282,1.282,0,0,1-.925.275c-.625,0-2.65-.15-3.95-.25v.325A6.326,6.326,0,0,1,63.2,0a2.6,2.6,0,0,1,.6,2A4.875,4.875,0,0,0,67.35.95c1.4-1.15,2-4.675,2.325-10.8a1.716,1.716,0,0,0,1.05-.45L68.05-12.575ZM64.55-21.075a17.687,17.687,0,0,0,7.525,10.7A3.323,3.323,0,0,1,74.6-12.95l.075-.275c-3.775-1.425-8.125-4.05-9.825-8Z" transform="translate(-4525.865 -625.289)" fill="#3c505a"/>
      <path id="Path_177" data-name="Path 177" d="M21.682-51.4q1.1,0,1.1.8-.033,1.826-.166,7.969-.1,4.084-.1,7.072v21.283q0,5.313.133,6.74a6.587,6.587,0,0,0,.631,2.291,2.928,2.928,0,0,0,2.258,1.361q.664.133,3.52.432.6.066.6,1,0,.963-.6.963-4.748-.2-10.061-.2-5.512,0-10.326.2-.7,0-.7-.963,0-.93.7-1a28.662,28.662,0,0,0,3.885-.465A2.476,2.476,0,0,0,14.41-5.246q.7-1.428.7-9.031V-38.615q0-4.283-.7-5.213-.365-.631-1.594-.631a8.929,8.929,0,0,0-2.391.4l-2.656.73a2.336,2.336,0,0,1-.5.1q-.5,0-.7-.83a3.193,3.193,0,0,1-.1-.6q0-.4.73-.631Q14.045-47.779,21.682-51.4ZM40.475-50.17q4.482.2,13.646.2,6.674,0,13.281-.2.531,0,.531,1.428a3.953,3.953,0,0,1-.266,1.76Q58.3-30.182,55.781-17.465A42.07,42.07,0,0,0,54.752-8.5l.1,4.549a3.218,3.218,0,0,1-1.793,2.789,6.392,6.392,0,0,1-3.354.9q-4.283,0-4.283-2.988,0-6.607,4.881-17.266A190.588,190.588,0,0,1,63.385-43.4H48.643q-4.316,0-5.578,1.494a13.034,13.034,0,0,0-2.391,4.482q-.232.564-.664.564a3.4,3.4,0,0,1-.564-.066q-.764-.1-.764-.531a1.4,1.4,0,0,1,.033-.232Q39.977-45.754,40.475-50.17Z" transform="translate(-4594.865 -556.732)" fill="#3c505a"/>
      <path id="Path_176" data-name="Path 176" d="M23.661,30.377h3.267V31.9h.561a1.607,1.607,0,0,0,.4-.033L26.169,34.04H23.661Zm-6.435-.924V25.691h2.937v3.762Zm-3.4-10.593v1.353c-1.089-1.089-2.508-2.343-2.508-2.343L9.636,20.279H9.207V14.768c1.122-.231,2.178-.528,3.036-.792a3.242,3.242,0,0,0,.726.165L13,14.5c2.277.033,4.752-.033,7.161-.165v2.343H12.276l.231.924h7.656v2.706H17.424Zm6.336,5.94H17.226V21.269h2.937Zm6.765-3.531V24.8H23.661V21.269Zm0,8.184H23.661V25.691h3.267Zm.33,9.306h-3.6V34.964h6.765c.462,0,.825-.165.891-.528-1.023-.924-2.607-2.178-3.135-2.607A4.453,4.453,0,0,0,30.426,31v-9.24a2.322,2.322,0,0,0,1.221-.627l-3.4-2.574L26.6,20.312H23.661V17.606H31.35c.462,0,.792-.165.891-.495-1.287-1.188-3.432-2.838-3.432-2.838l-1.881,2.409H23.661V14.075c1.947-.165,3.729-.363,5.181-.594a2.283,2.283,0,0,0,2.145.033l-3.663-3.5a80.14,80.14,0,0,1-13.1,3.762l-4.092-3.432A43.877,43.877,0,0,1,.759,15.692l.1.4c1.551-.132,3.2-.363,4.818-.627v4.818H1.023l.264.924h3.96C4.356,25.988,2.838,31.136.462,34.8l.4.363A25.907,25.907,0,0,0,5.676,29.42V40.937H6.3c1.749,0,2.9-.792,2.9-1.056V24.668a12.888,12.888,0,0,1,1.584,4.719c2.64,2.409,5.808-2.838-1.584-5.478V21.2H13.4a1.672,1.672,0,0,0,.429-.066V32.423h.495c1.452,0,2.9-.726,2.9-1.056v-.99h2.937V34.04h-7l.264.924h6.732v3.795H11.418l.264.957H31.713c.462,0,.825-.165.924-.528-1.32-1.188-3.5-2.937-3.5-2.937ZM35.112,11.6A8.973,8.973,0,0,1,36.2,15.956c2.343,2.376,5.808-2.244-.726-4.554ZM34.023,26.45a21.384,21.384,0,0,0,6.138-4.488v4.059h.594c1.188,0,2.706-.726,2.706-1.056V19.883A12.071,12.071,0,0,1,46.068,24.4c3.135,2.046,5.676-3.828-2.607-5.148V18.4h5.61a.79.79,0,0,0,.858-.528c-1.122-.99-2.871-2.376-2.871-2.376l-1.584,1.947H43.461V11.468c.594-.1.792-.33.825-.627l-4.125-.4v7h-5.94l.264.957h4.257a19.351,19.351,0,0,1-5.016,7.59ZM48.741,31.1c.462,0,.825-.165.924-.528-1.254-1.188-3.3-2.9-3.3-2.9l-1.782,2.475H43.032c.1-.792.165-1.617.2-2.442.726-.132,1.023-.429,1.089-.858l-4.851-.4c0,1.287-.033,2.508-.1,3.7H34.188l.264.957H39.3a10.794,10.794,0,0,1-5.511,8.844l.3.462c5.247-1.848,7.392-4.29,8.316-7.128a12.809,12.809,0,0,1,3.234,4.587c3.5,1.947,5.742-4.521-3-5.379.132-.429.2-.924.3-1.386Zm8.118,3.333a19.437,19.437,0,0,1,4.851,6.072c3.564,1.947,5.577-5.049-4.554-6.336ZM59.532,18.1v3.993H53.658V18.1ZM53.658,32.093V28.034h5.874v4.059Zm0-9.042h5.874V27.11H53.658Zm5.511-10.263H49.5L45.54,11.27c-.4,1.815-.891,3.8-1.287,5.049l.5.264a28.108,28.108,0,0,0,3.5-3.168,1.169,1.169,0,0,0,1.155-.462l.231.792h5.181c0,1.155-.033,2.508-.1,3.432h-.891L50.16,15.659V34.964h.528a5.5,5.5,0,0,0,2.046-.429,21.786,21.786,0,0,1-6.93,6.039l.231.429C49.7,40.31,53.922,38.462,56,36.581c.561.132.891.066,1.056-.2l-3.762-2.178c.231-.165.363-.33.363-.429v-.759h5.874v1.188h.627c1.221,0,2.937-.726,2.97-.99V18.563a1.994,1.994,0,0,0,1.155-.594l-3.366-2.574-1.683,1.782h-3.5a28.9,28.9,0,0,0,3.069-3.432h5.346c.5,0,.858-.165.957-.528-1.452-1.287-3.828-3.168-3.828-3.168Z" transform="translate(-4520.865 -604.232)" fill="#3c505a"/>
    </g>
  </g>
</svg>
