<svg xmlns="http://www.w3.org/2000/svg" xmlns:xlink="http://www.w3.org/1999/xlink" width="223.71" height="193.738" viewBox="0 0 223.71 193.738">
  <defs>
    <linearGradient id="linear-gradient" x1="0.5" x2="0.5" y2="1" gradientUnits="objectBoundingBox">
      <stop offset="0" stop-color="#dddddb"/>
      <stop offset="0.494" stop-color="#8c8667"/>
      <stop offset="1" stop-color="#f8f489"/>
    </linearGradient>
  </defs>
  <g id="Group_293" data-name="Group 293" transform="translate(4575.28 1046.961)">
    <g id="Group_266" data-name="Group 266">
      <path id="Path_84" data-name="Path 84" d="M55.928,0,0,96.87l55.928,96.869H167.782L223.71,96.87,167.782,0Z" transform="translate(-4575.28 -1046.961)" fill="url(#linear-gradient)"/>
      <path id="Path_152" data-name="Path 152" d="M53.662,0,0,92.945,53.662,185.89H160.985l53.662-92.945L160.985,0Z" transform="translate(-4570.748 -1043.035)" fill="#fff"/>
    </g>
    <path id="Path_171" data-name="Path 171" d="M-3.33-7.08a.907.907,0,0,0,.9-.9.907.907,0,0,0-.9-.9.907.907,0,0,0-.9.9A.907.907,0,0,0-3.33-7.08Zm0,2.172-3.96-3.96-.348.348,3.96,3.96L-7.65-.588-7.3-.24-3.33-4.212.63-.252.978-.6l-3.96-3.96L.978-8.52.63-8.868Zm-2.52.348a.907.907,0,0,0-.9-.9.907.907,0,0,0-.9.9.907.907,0,0,0,.9.9A.907.907,0,0,0-5.85-4.56Zm5.04,0a.907.907,0,0,0,.9.9.907.907,0,0,0,.9-.9.907.907,0,0,0-.9-.9A.907.907,0,0,0-.81-4.56ZM-3.33-2.04a.907.907,0,0,0-.9.9.907.907,0,0,0,.9.9.907.907,0,0,0,.9-.9A.907.907,0,0,0-3.33-2.04ZM3.726,0H8.55V-.912H6.786v-7.9h-.84a5.3,5.3,0,0,1-1.824.636v.7h1.56V-.912H3.726Z" transform="translate(-4421.925 -1010.592)" fill="#3c505a" stroke="rgba(0,0,0,0)" stroke-width="1"/>
    <path id="Path_170" data-name="Path 170" d="M-40.035-10.625a2.726,2.726,0,0,1,.306.7.669.669,0,0,1-.255.765,20.878,20.878,0,0,1-4.981,2.941c.068-1.479.17-3.043.289-3.825.1-.527.476-.68.476-1.122,0-.6-1.241-1.564-2.244-1.581a4.546,4.546,0,0,0-1.581.51v.2c.748.2,1.224.391,1.343.782.187.544-.034,5.7.017,8.143.051,2.584.459,3.247,4.182,3.247A19.1,19.1,0,0,0-37.4-.357a.98.98,0,0,0,.833-1c0-.663-.68-.969-1.955-.969a19.3,19.3,0,0,1-4.42.629c-1.853,0-2.074-.2-2.091-1.615-.017-.476,0-1.224.017-2.074A50.088,50.088,0,0,0-38.4-7.752c.663-.306,1.139-.374,1.139-.8a2.574,2.574,0,0,0-1.156-1.683,2.986,2.986,0,0,0-1.445-.544Zm10.948-2.04c.7.119,1.224.306,1.326.867a37.572,37.572,0,0,1,.187,4.318c0,1.02-.017,3.3-.153,4.573-.085.748-.238,1.139-.238,1.6,0,1.258.476,2.176,1.36,2.176.68,0,.867-.357.867-1.241,0-.238-.034-.816-.068-1.683-.051-1.462-.068-3.638-.017-5.44a9.029,9.029,0,0,1,2.04,1.275c1.309,1.207,1.377,2.142,2.465,2.142a.987.987,0,0,0,.986-1.037A2.055,2.055,0,0,0-21.573-6.97a11.417,11.417,0,0,0-4.233-1.207,21.02,21.02,0,0,1,.153-2.567c.085-.629.459-.8.459-1.292,0-.561-1.513-1.394-2.363-1.394a4.019,4.019,0,0,0-1.547.493Zm17.527.255c.969.068,1.632.2,1.921.646.272.425.629,1.071.986,1.683a11.478,11.478,0,0,1-2.924.527,3.869,3.869,0,0,1-2.958-1.122l-.238.187c.765,1.751,1.326,2.5,3.5,2.465a13.936,13.936,0,0,0,3.485-.629A31.118,31.118,0,0,0-5.508-5.729c.153.17.119.2-.085.17a14.724,14.724,0,0,0-3.349-.408c-2.754,0-4.777,1.5-4.777,3.417,0,2.176,2.312,3.383,5.525,3.383,2.516,0,3.4-.459,3.4-1.139,0-.714-.68-.986-1.428-.986-.663,0-1.377.187-2.567.187-2.38,0-3.536-.8-3.536-1.87,0-1.275,1.19-2.227,2.958-2.227A7.147,7.147,0,0,1-5.321-3.927c.561.374.9.7,1.411.7.629,0,.935-.952.935-1.547a1.4,1.4,0,0,0-.561-1.037A18.016,18.016,0,0,1-6.46-9.129a10.482,10.482,0,0,0,2.941-1.6.779.779,0,0,0,.1-1.071A1.544,1.544,0,0,0-4.675-12.1a23.317,23.317,0,0,1-2.55,1.513,11.59,11.59,0,0,1-.714-2.074c-.1-.408-.85-.714-1.819-.714a3.382,3.382,0,0,0-1.87.714ZM2.363-5.236A5.414,5.414,0,0,0,5.491-.391c1.071.442,1.87.051,1.87-.731,0-.527-.272-.493-.238-1.53A19.006,19.006,0,0,1,7.905-6l-.357-.153A30.55,30.55,0,0,1,5.78-3.128a.532.532,0,0,1-.68.153A2.826,2.826,0,0,1,3.774-5.593c0-2.142.9-3.077.9-3.91,0-.782-1.02-1.751-1.887-2.108a4.127,4.127,0,0,0-1.6-.221l-.085.187A2.915,2.915,0,0,1,2.414-9.231C2.414-8.075,2.244-6.579,2.363-5.236ZM13.056-7.021A18.6,18.6,0,0,1,13.7-3.927a.87.87,0,0,0,.867.646c.833,0,1.19-.578,1.19-1.649a5.1,5.1,0,0,0-1.5-3.689,5.505,5.505,0,0,0-3.808-1.632l-.085.289A4.955,4.955,0,0,1,13.056-7.021ZM24.5-11.628v1.8H22.61v-1.8Zm3.91,0v1.8H26.469v-1.8Zm-10.608,0h2.89v3.247h.34c.748,0,1.581-.289,1.581-.425v-.527h5.8v.816h.34a2.581,2.581,0,0,0,1.6-.442v-2.669h2.669c.238,0,.425-.085.476-.272-.629-.612-1.683-1.513-1.683-1.513l-.952,1.292h-.51v-1.428c.459-.068.595-.255.629-.476l-2.567-.221v2.125H26.469V-13.77c.459-.068.595-.238.629-.476l-2.6-.221v2.346H22.61v-1.445c.442-.068.595-.238.629-.476l-2.55-.221v2.142H17.663ZM28.611-5.253H26.4V-6.545c.408-.068.527-.221.561-.442l-2.533-.221v1.955H22.457l-2.091-.816V.646h.289C21.454.646,22.3.2,22.3.017V-4.76h2.125V1.479H24.8c.731,0,1.6-.357,1.6-.51V-4.76h2.4v3.2c0,.2-.051.306-.289.306-.34,0-1.547-.085-1.547-.085v.221a1.728,1.728,0,0,1,1.156.561,2.141,2.141,0,0,1,.289,1.19c2.108-.17,2.4-.816,2.4-1.989V-4.352a1.223,1.223,0,0,0,.816-.425L29.546-6.341ZM31.858-9.01,30.8-7.973H19.992a7.173,7.173,0,0,0-.408-1.258h-.2A2.349,2.349,0,0,1,18.326-7c-1.479.782-.561,2.482.782,1.87a2.065,2.065,0,0,0,.986-2.346h10.8c-.136.578-.323,1.309-.476,1.768l.17.1a23.271,23.271,0,0,0,2.448-1.462.938.938,0,0,0,.646-.187Zm6.46-1.054h1.411V.051H38.318Zm4.675,0V.051H41.531V-10.064Zm3.247,0V.051H44.812V-10.064ZM48.246-.034V-9.843c.442-.085.629-.17.765-.34l-2.074-1.462-.85,1.105h-5.2a24.949,24.949,0,0,0,2.5-2.6c.408.017.578-.136.663-.34l-2.992-.731c-.17,1.054-.527,2.584-.833,3.672H38.488l-2.091-.8V.051H34.476l.136.476H50.32c.238,0,.425-.085.459-.272C50.2-.425,49.13-1.513,49.13-1.513ZM-37.3,20.189h-.765V17.333h1.836a.407.407,0,0,0,.442-.272c-.612-.612-1.666-1.5-1.666-1.5l-.952,1.292h-3.74l.136.476h1.989v2.856h-2.754l.136.476h2.618V26.5h.357a2.244,2.244,0,0,0,1.6-.459V20.665h3.111c.238,0,.425-.085.459-.272-.646-.663-1.785-1.666-1.785-1.666Zm-10.727-.374V17.979h2.975v1.836Zm2.975-4.148V17.5h-2.975V15.667Zm4.981-5.049a14.324,14.324,0,0,1-3.179,6.358V15.939a1.2,1.2,0,0,0,.629-.323l-1.768-1.326-.833.884h-.391V13.457h2.856c.255,0,.442-.085.476-.272-.663-.646-1.785-1.547-1.785-1.547l-.969,1.326h-.578V11.247c.459-.068.578-.238.612-.476l-2.55-.2v2.4h-2.924l.136.493h2.788v1.717h-.391l-1.87-.748V21h.255c.731,0,1.53-.391,1.53-.561v-.136h.476v2.04h-2.975l.136.493h2.839v3.672h.34a2.477,2.477,0,0,0,1.6-.408V22.841h2.839c.238,0,.425-.085.476-.272-.663-.629-1.785-1.547-1.785-1.547l-.952,1.326h-.578v-2.04h.561V20.7h.306a2.944,2.944,0,0,0,1.5-.459V17.061l.085.1a11.294,11.294,0,0,0,4.794-5.525,9.7,9.7,0,0,0,2.856,5.287,2,2,0,0,1,1.258-1.666v-.187a7.673,7.673,0,0,1-3.893-3.621c.408-.034.561-.136.612-.323Zm9.1-.085a24.409,24.409,0,0,1-.8,3.043,6.356,6.356,0,0,0-1.326-.442l-.17.1a5.845,5.845,0,0,1,1.36,2.635c1.224.935,2.38-.884.544-2.074a12.653,12.653,0,0,0,2.193-2.091c.374,0,.6-.136.663-.34ZM-28.951,20a7.832,7.832,0,0,1,.7,3.281c1.258,1.309,2.924-1.445-.493-3.366Zm-.136-3.842a8.785,8.785,0,0,1,.646,1.5c-.816.051-1.6.085-2.329.136A23.4,23.4,0,0,0-27.4,13.78c.374.034.595-.085.68-.272l-2.329-.9a30,30,0,0,1-2.465,5.219c-.816.051-1.5.068-1.921.068l.527,1.87a.7.7,0,0,0,.493-.391c.561-.17,1.071-.323,1.547-.476v1.615l-1.649-.357a17.562,17.562,0,0,1-1.02,5l.255.136a9.51,9.51,0,0,0,2.3-4.267l.119-.017V26.53h.323a1.886,1.886,0,0,0,1.5-.51V18.3l.748-.255a6.4,6.4,0,0,1,.2,1.207c1.36,1.292,2.958-1.513-.8-3.2Zm7.514,8.5V18.676h1.462V24.66Zm-3.145-5.984h1.36V24.66h-1.36Zm1.36-5.95v5.491h-1.36V12.726Zm3.247,0v5.491h-1.462V12.726Zm.884-1.615-.969,1.122h-4.318l-2.04-.782V26.428h.34c.918,0,1.5-.408,1.5-.544v-.731h4.607v1.1h.323a1.983,1.983,0,0,0,1.564-.561V12.913a1.193,1.193,0,0,0,.765-.357Zm5.355,8.534c.1-1.105.1-2.193.1-3.162v-.408h1.326v3.57Zm1.428-7.5V15.6H-13.77V12.148Zm.663-1.445-.833.952h-.867l-2.074-.765v5.593c0,3.23.017,6.953-1.037,9.911l.221.119a11.15,11.15,0,0,0,2.465-6.392h1.462v3.995c0,.2-.068.323-.323.323-.272,0-1.462-.085-1.462-.085v.238a1.54,1.54,0,0,1,1.105.6,2.923,2.923,0,0,1,.289,1.309c1.955-.187,2.21-.9,2.21-2.193V12.4a1.2,1.2,0,0,0,.612-.323Zm10.523,11.39h-.187a11.672,11.672,0,0,1-.731,1.87.685.685,0,0,1-.544.238c-.306.017-1.02.034-1.87.034H-6.8c-.731,0-.85-.085-.85-.391V19.271h1.632v.867h.289a2.165,2.165,0,0,0,1.394-.527V16.279a1.018,1.018,0,0,0,.493-.238l-1.564-1.156-.748.765H-8.925a12.9,12.9,0,0,0,1.411-1.938h4.607c-.051,4.522-.153,6.324-.527,6.732a.685.685,0,0,1-.493.153c-.272,0-.884-.034-1.275-.068v.238a1.816,1.816,0,0,1,1,.561,2.185,2.185,0,0,1,.221,1.241,2.507,2.507,0,0,0,1.853-.663c.748-.731.918-2.38.969-7.922a1.114,1.114,0,0,0,.7-.289l-1.683-1.428-.935.969H-7.242a15.314,15.314,0,0,0,.748-1.6c.374,0,.6-.153.663-.357l-2.516-.748a19.253,19.253,0,0,1-2.21,6.273l.221.136A11.338,11.338,0,0,0-9.061,15.8l.1.323h2.941V18.8H-7.412l-2.057-.782V24.3c0,1.377.493,1.683,2.4,1.683H-4.76c3.5,0,4.3-.374,4.3-1.207,0-.34-.153-.561-.731-.765ZM5.9,13.44H16.065c.238,0,.425-.085.476-.272-.731-.7-1.938-1.7-1.938-1.7L13.5,12.947H11.917V11.366c.459-.068.6-.238.629-.476l-2.584-.2v2.261h-4.2Zm1.615.357a7.811,7.811,0,0,1,.867,3.332c1.547,1.479,3.4-1.7-.68-3.417Zm-3.2,2.057h2.04c.221,0,.391-.085.425-.272A19.372,19.372,0,0,0,5.321,13.95l-.85,1.411H4.318V11.638c.459-.068.578-.255.629-.493l-2.584-.221v4.437H.527l.136.493h1.7v5.423c-.9.17-1.649.289-2.108.357l.969,2.38a.808.808,0,0,0,.476-.442A54.866,54.866,0,0,0,6.715,20.6l-.034-.187c-.8.17-1.6.34-2.363.493Zm4.607,8.6V20.58h4.352v3.876ZM13.107,20.1H9.027l-2.04-.816v7.225h.272c.816,0,1.666-.442,1.666-.612v-.952h4.352v1.428h.34a2.84,2.84,0,0,0,1.649-.561v-4.9a1.1,1.1,0,0,0,.68-.374l-1.9-1.462Zm.561-2.363h-1.7a19.009,19.009,0,0,0,2.482-3.094c.391.017.561-.119.629-.306l-2.618-.782a28.668,28.668,0,0,1-.884,4.182H5.321l.136.493h10.8c.238,0,.442-.085.493-.272-.731-.7-1.972-1.734-1.972-1.734Zm14.28,4.607v.51h.34a4.2,4.2,0,0,0,1.36-.289c-.391.425-.85.9-1.275,1.292a6.529,6.529,0,0,1-2.7-1.513Zm-4.9,0h2.142a7.164,7.164,0,0,0,1.088,1.513c-1.122.085-2.21.187-3.23.272Zm5.032-5.491a6.3,6.3,0,0,0,.493.952l-.765.8H26.418v-.8c.34-.051.459-.187.476-.391l-2.329-.2v1.394H23.273l-.595-.221a8.426,8.426,0,0,0,1.19-1.53Zm-.136,3.383h-4.9V19.084h4.9Zm0,1.632h-4.9V20.716h4.9Zm5.746-2.754a10.647,10.647,0,0,1-5.134-2.261h4.284c.255,0,.442-.085.476-.272-.731-.612-1.887-1.445-1.887-1.445L30.4,16.364H26.418V15.089h5.355a.419.419,0,0,0,.442-.272c-.68-.578-1.785-1.36-1.785-1.36L29.461,14.6H26.418V13.389h6.137c.238,0,.425-.085.459-.272-.714-.612-1.853-1.445-1.853-1.445L30.141,12.9H27a16.527,16.527,0,0,0,2.091-1.377c.391.017.578-.1.663-.306L27.183,10.5a22.782,22.782,0,0,1-.748,2.4H23.851c.816-.561.629-2.3-2.482-2.3l-.136.1A6.5,6.5,0,0,1,22.644,12.9h-4.42l.136.493h6.12V14.6H18.989l.153.493H24.48v1.275H17.8l.136.493h3.536a12,12,0,0,1-4.131,4.4l.136.238a16.171,16.171,0,0,0,3.638-1.819v4.607c-.969.068-1.751.119-2.278.136l1.088,2.142a.625.625,0,0,0,.442-.391c2.856-.9,4.726-1.581,6.035-2.108v-.1a10.649,10.649,0,0,0,5.661,2.516,1.986,1.986,0,0,1,1.309-1.7l-.017-.2a21.518,21.518,0,0,1-4.182-.493c.918-.34,1.836-.731,2.482-1.037.357.1.51.017.612-.136l-1.8-1.292c-.153.187-.357.425-.578.7V19.407a10.725,10.725,0,0,0,2.38,1.632,2.132,2.132,0,0,1,1.394-1.734Zm5.287-5.746H50.065c.238,0,.425-.085.476-.272-.714-.663-1.9-1.615-1.9-1.615L47.6,12.879H45.186v-1.6c.408-.068.527-.221.561-.442l-2.448-.2v2.244H38.845Zm-3.5-2.363a6.2,6.2,0,0,1,1.445,2.414c1.751,1.088,3.162-2.193-1.309-2.516Zm-1.054,3.74a4.862,4.862,0,0,1,1.207,2.414c1.649,1.224,3.23-1.989-1.071-2.516Zm4.624-.442c-2.72,6.171-2.72,6.171-3.06,6.783-.187.34-.255.34-.51.34h-.748v.34a1.689,1.689,0,0,1,.867.272c.391.255.459,1.836.153,3.6.119.646.493.884.867.884a1.362,1.362,0,0,0,1.411-1.394c.051-1.513-.629-2.142-.663-3.026a6.066,6.066,0,0,1,.221-1.564c.187-.833,1.19-4.318,1.734-6.188Zm2.618,3.451a.583.583,0,0,0,.527-.306l-.731-.289a19.016,19.016,0,0,0,1.377-2.55c.425,0,.578-.119.646-.289l-2.431-.867a19.861,19.861,0,0,1-3.349,7.429l.187.187a12.056,12.056,0,0,0,2.057-1.887v7.327h.323a2.156,2.156,0,0,0,1.394-.493Zm6.154-1.173a15.845,15.845,0,0,1-1.768,5.321,7.729,7.729,0,0,1-1.768-3.468c.221-.289.425-.6.629-.9a4.341,4.341,0,0,1,.731,1.989c1.275,1.088,2.805-1.36-.578-2.244.136-.238.272-.459.408-.7Zm.867-1.513-1,1.037H45.73c.289-.544.527-1.071.731-1.547.425-.017.578-.136.629-.323l-2.431-.748a21.122,21.122,0,0,1-2.737,7.174l.187.17a13.542,13.542,0,0,0,1.972-2.091,14.943,14.943,0,0,0,1.258,4.284,11.155,11.155,0,0,1-3.74,3.264l.153.2a12.354,12.354,0,0,0,4.233-2.414,6.863,6.863,0,0,0,3.247,2.431,2.191,2.191,0,0,1,1.53-1.989l.017-.187a10.191,10.191,0,0,1-3.638-1.479,13.932,13.932,0,0,0,2.618-5.967c.391-.034.544-.085.68-.272Z" transform="translate(-4463.925 -990.592)" fill="#3c505a"/>
    <path id="Path_169" data-name="Path 169" d="M8-37.91l-.85,10.781q-.029.469-.176,1.523-.117,1-.176,1.611,3.281-3.721,9.463-3.721a11.3,11.3,0,0,1,9.258,4.043,13.757,13.757,0,0,1,2.871,8.994q0,6.768-3.984,10.752A13.127,13.127,0,0,1,14.648-.234,17.036,17.036,0,0,1,6.182-2.285q-4.072-2.344-4.072-5.1A2.055,2.055,0,0,1,3.369-9.17a6.07,6.07,0,0,1,3.047-.674,3.141,3.141,0,0,1,2.7,1.787,21.177,21.177,0,0,1,1.2,2.666Q11.689-2.08,14.648-2.08q3.545,0,5.244-4.043a22.355,22.355,0,0,0,1.348-8.5q0-5.273-2.4-8.32a5.8,5.8,0,0,0-4.658-2.49,8.311,8.311,0,0,0-7.559,4.365q-.322.557-.732.557a2.907,2.907,0,0,1-.908-.234q-.762-.352-.762-.82a2.469,2.469,0,0,1,.059-.41q.293-1.2.352-1.67L6.064-42.773a1.327,1.327,0,0,1,.352-.791,1.223,1.223,0,0,1,.85-.352q2.4.059,9.4.059,4.893,0,10.2-.234.557,0,.557.381,0,.059,0,.088L25.459-38.2a.622.622,0,0,1-.615.41q-4.8-.117-6.064-.117Zm39.023-7.148q6.65,0,10.254,6.826,3.076,5.889,3.076,15.5,0,11.133-4.014,17.168Q52.822-.234,47.021-.234q-6.855,0-10.371-6.65Q33.6-12.627,33.6-22.383q0-11.309,3.984-17.373A10.817,10.817,0,0,1,47.021-45.059Zm0,1.846q-3.838,0-5.3,6.357a69.447,69.447,0,0,0-1.084,14.3q0,10.9,1.465,15.615Q43.623-2.08,47.021-2.08q3.75,0,5.215-6.3a68.67,68.67,0,0,0,1.084-14.18q0-10.986-1.436-15.732Q50.391-43.213,47.021-43.213Zm24.7,12.423a6.865,6.865,0,0,1,5.565,2.643,9.3,9.3,0,0,1,1.982,6.086,9.419,9.419,0,0,1-2.482,6.907,6.852,6.852,0,0,1-5.065,2.082,6.641,6.641,0,0,1-5.445-2.6,9.335,9.335,0,0,1-1.922-6.086A9.583,9.583,0,0,1,66.8-28.628,6.53,6.53,0,0,1,71.726-30.79Zm.02,1.141q-1.742,0-2.623,2.282a15.426,15.426,0,0,0-.781,5.485,13.661,13.661,0,0,0,1.021,5.966,2.662,2.662,0,0,0,2.382,1.742q1.762,0,2.683-2.262a14.7,14.7,0,0,0,.821-5.445,13.457,13.457,0,0,0-1.061-6.026A2.723,2.723,0,0,0,71.746-29.649Zm.561,31.09L70.965.621l20.12-32.812,1.361.821ZM91.425-17.877a6.713,6.713,0,0,1,5.465,2.623,9.339,9.339,0,0,1,1.942,6.066A9.613,9.613,0,0,1,96.41-2.242,6.674,6.674,0,0,1,91.425-.16a6.829,6.829,0,0,1-5.545-2.623,9.289,9.289,0,0,1-1.962-6.106A9.449,9.449,0,0,1,86.4-15.755,6.783,6.783,0,0,1,91.425-17.877Zm0,1.1q-1.782,0-2.683,2.282a15.171,15.171,0,0,0-.8,5.485,13.43,13.43,0,0,0,1.041,5.966A2.723,2.723,0,0,0,91.425-1.3q1.742,0,2.643-2.262a15.384,15.384,0,0,0,.781-5.445,13.779,13.779,0,0,0-1.021-6.006A2.7,2.7,0,0,0,91.425-16.776Z" transform="translate(-4524 -905)" fill="#3c505a"/>
    <path id="Path_168" data-name="Path 168" d="M5.94,11.06H5.16V8.14h.78Zm2.14.58v3.68H7.36c-.14,0-.18-.06-.18-.26V11.64Zm-5,10.62V19.5h5v2.76Zm.86-10.62v.76a9.408,9.408,0,0,1-.86,4.68V11.64ZM7.46,16.7a5.379,5.379,0,0,0,.62-.04v2.26h-5V17.3l.16.18a6.181,6.181,0,0,0,1.92-5.06v-.78h.78v3.92c0,.82.12,1.14,1.02,1.14Zm.4-9.12H.64l.16.56H3.58v2.92H3.2l-2.02-.84V24.7H1.5c.84,0,1.58-.46,1.58-.68V22.84h5v1.54h.34a2.689,2.689,0,0,0,1.68-.62V11.94a1.347,1.347,0,0,0,.76-.38l-2-1.54-.98,1.04H7.52V8.14h3.02c.3,0,.5-.1.56-.32C10.3,7.1,9,6.08,9,6.08Zm10.92,11.3h-.22a20.788,20.788,0,0,1-.86,2.8.488.488,0,0,1-.46.28c-.24.02-.76.02-1.4.02H14.28c-.62,0-.72-.12-.72-.46v-8H16.1v1.9h.36a3.578,3.578,0,0,0,1.78-.52V8.58a1.631,1.631,0,0,0,.92-.48L16.94,6.38,15.88,7.56H11.34l.18.58H16.1v4.8H13.82l-2.38-.92V22.1c0,1.56.44,1.98,2.32,1.98h1.9c3.04,0,3.94-.48,3.94-1.38,0-.38-.16-.66-.76-.9ZM6.42,47.52V42.84H13.7v4.68Zm7.08-5.26H6.58L3.96,41.22v8.54h.36c1.02,0,2.1-.54,2.1-.76v-.9H13.7v1.46h.42A4.284,4.284,0,0,0,16.2,49V43.26a1.491,1.491,0,0,0,.84-.44l-2.4-1.84Zm-2.4-3.52H5.36l.16.58h8.72c.3,0,.5-.1.56-.32-.9-.82-2.38-1.98-2.38-1.98ZM8.5,30.92C7.66,33.8,4.02,37.88.58,39.98l.12.24c4.02-1.54,8.12-4.7,10.02-7.74a13.58,13.58,0,0,0,6.92,6.96,2.8,2.8,0,0,1,1.84-2.16l.02-.32c-3.08-.84-6.68-2.26-8.46-4.72.64-.06.9-.18.98-.44Z" transform="translate(-4418.925 -950.091)" fill="#3c505a"/>
  </g>
</svg>
