<svg xmlns="http://www.w3.org/2000/svg" xmlns:xlink="http://www.w3.org/1999/xlink" width="223.71" height="193.738" viewBox="0 0 223.71 193.738">
  <defs>
    <linearGradient id="linear-gradient" x1="0.5" x2="0.5" y2="1" gradientUnits="objectBoundingBox">
      <stop offset="0" stop-color="#dddddb"/>
      <stop offset="0.494" stop-color="#8c8667"/>
      <stop offset="1" stop-color="#f8f489"/>
    </linearGradient>
  </defs>
  <g id="Group_294" data-name="Group 294" transform="translate(4153 1047)">
    <g id="Group_267" data-name="Group 267" transform="translate(422.28 -0.039)">
      <path id="Path_84" data-name="Path 84" d="M55.928,0,0,96.87l55.928,96.869H167.782L223.71,96.87,167.782,0Z" transform="translate(-4575.28 -1046.961)" fill="url(#linear-gradient)"/>
      <path id="Path_152" data-name="Path 152" d="M53.662,0,0,92.945,53.662,185.89H160.985l53.662-92.945L160.985,0Z" transform="translate(-4570.748 -1043.035)" fill="#fff"/>
    </g>
    <g id="Group_275" data-name="Group 275" transform="translate(-1.924 -2.092)">
      <path id="Path_175" data-name="Path 175" d="M-3.33-7.08a.907.907,0,0,0,.9-.9.907.907,0,0,0-.9-.9.907.907,0,0,0-.9.9A.907.907,0,0,0-3.33-7.08Zm0,2.172-3.96-3.96-.348.348,3.96,3.96L-7.65-.588-7.3-.24-3.33-4.212.63-.252.978-.6l-3.96-3.96L.978-8.52.63-8.868Zm-2.52.348a.907.907,0,0,0-.9-.9.907.907,0,0,0-.9.9.907.907,0,0,0,.9.9A.907.907,0,0,0-5.85-4.56Zm5.04,0a.907.907,0,0,0,.9.9.907.907,0,0,0,.9-.9.907.907,0,0,0-.9-.9A.907.907,0,0,0-.81-4.56ZM-3.33-2.04a.907.907,0,0,0-.9.9.907.907,0,0,0,.9.9.907.907,0,0,0,.9-.9A.907.907,0,0,0-3.33-2.04ZM3.2,0H8.73V-.948H6.294c-.444,0-.984.048-1.44.084C6.918-2.82,8.3-4.608,8.3-6.36a2.413,2.413,0,0,0-2.556-2.6,3.364,3.364,0,0,0-2.592,1.3l.636.624A2.463,2.463,0,0,1,5.61-8.064a1.546,1.546,0,0,1,1.62,1.74C7.23-4.812,5.958-3.06,3.2-.648Z" transform="translate(-3979.076 -991.908)" fill="#3c505a" stroke="rgba(0,0,0,0)" stroke-width="1"/>
      <path id="Path_174" data-name="Path 174" d="M8.56-24.68c0-4.36,1.92-6.6,4.92-6.6,2.68,0,4.68,1.88,4.68,5.68s-2.28,6.04-6.68,7.04l.44,2.8c5.6-.12,7.88,2.76,7.88,6.64C19.8-5.32,17.52-3,13.88-3A8.4,8.4,0,0,1,8.44-5.12ZM3.6-1.4,3.28,8.32l.32.24L9.2,7.52,8.2-3.96A8.252,8.252,0,0,0,15.88.64,8.274,8.274,0,0,0,24.44-8c0-5.16-3.32-8.16-9.68-8.68,5.56-1.44,7.84-5.28,7.84-8.84,0-4.56-3.56-7.24-8.64-7.24C7.68-32.76,3.6-28.6,3.6-20.6ZM27.88-9.92H38.96v-2.72H27.88Zm44-19.76H61.08v1.44l5.16.56.12,19.76L50.68-29.68H42.24v1.44l3.04.36.64.84-.2,25.16L42-1.4V0H52.8V-1.4l-5.12-.52-.12-22.8L65.24.16H68l.2-27.88,3.68-.52Zm39.72,1.44v-1.44H102L93.36-7.12,84.48-29.68H74.72v1.44l4.2.52L78.76-1.88l-4.24.48V0h10.4V-1.4l-4.2-.48V-14.64c0-1.68-.08-7-.2-11L90.56,0h1.96l9.76-25.8-.08,12.6c-.08,3.48,0,7.48-.12,11.44L98.4-1.4V0h13.2V-1.4l-3.84-.36c-.04-4-.04-8.04-.04-12.08V-15.8c0-4,0-8.04.04-12.08Zm32.96-1.44h-10.8v1.44l5.16.56.12,19.76L123.36-29.68h-8.44v1.44l3.04.36.64.84-.2,25.16-3.72.48V0h10.8V-1.4l-5.12-.52-.12-22.8L137.92.16h2.76l.2-27.88,3.68-.52Z" transform="translate(-4112.076 -951.908)" fill="#3c505a"/>
      <path id="Path_173" data-name="Path 173" d="M26.74-25.585H19.46v-2.73c.945-.14,1.19-.49,1.26-.98l-5.39-.42v4.13H1.5l.28,1.015H32.62c.49,0,.875-.175.98-.56-1.68-1.435-4.41-3.465-4.41-3.465ZM12.5-16.555V-20.9H22.4v4.34ZM23.1-13.9c1.3,0,3.4-.665,3.43-.91V-20.23a2.37,2.37,0,0,0,1.435-.735L23.94-23.94l-1.89,2.065H12.7L8.47-23.52v9.975h.56c1.645,0,3.465-.91,3.465-1.225v-.77H22.4V-13.9ZM14.28-3.255V-7.63h6.335v4.375Zm13.335-9.31H7.455L3.08-14.245V3.08h.63c1.645,0,3.4-.91,3.4-1.33v-13.3h20.86v9.8c0,.42-.175.63-.7.63-.56,0-2.24-.07-3.22-.14.175-.1.28-.175.28-.245v-5.6a2.011,2.011,0,0,0,1.26-.63l-3.64-2.73L20.265-8.61H14.42l-3.85-1.54V.105H11.1c1.54,0,3.185-.84,3.185-1.155V-2.275h6.335v1.82h.63a6.28,6.28,0,0,0,2.1-.455v.07A4.442,4.442,0,0,1,26.18.42a5.166,5.166,0,0,1,.735,2.695c4.515-.385,5.145-1.89,5.145-4.48v-9.52a2.184,2.184,0,0,0,1.4-.7L29.435-14.63Zm10.36-16.66A13.865,13.865,0,0,1,40.81-23.87c3.535,2.45,6.685-4.2-2.52-5.565Zm-2.1,7.91a9.952,9.952,0,0,1,2.485,5.04c3.325,2.485,6.58-4.025-2.205-5.25Zm9.45-2.31c-5.81,14.14-5.81,14.14-6.475,15.435-.35.735-.49.735-.98.735H36.295v.665a3.5,3.5,0,0,1,1.82.56c.8.56.945,3.815.315,7.49.245,1.3.98,1.82,1.75,1.82A2.72,2.72,0,0,0,42.98.21c.07-3.15-1.26-4.48-1.33-6.335a13.639,13.639,0,0,1,.455-3.29c.42-1.89,2.59-9.8,3.815-14.07Zm9.87,16.31H57.61A18.747,18.747,0,0,0,59.745-2.38c-1.54.21-3.115.385-4.55.525Zm9.59,0A37.49,37.49,0,0,1,61.6-3.605a12.64,12.64,0,0,1-3.255-3.71ZM50.435-17.36h12.88v.84h.84L62.86-14.98H50.225l-2.065-.77c1.19-.175,2.275-.77,2.275-1.05ZM52.5-25.27v2.905H50.435V-25.27Zm5.285,0v2.905H55.72V-25.27Zm5.53,0v2.905h-2.31V-25.27Zm-2.31,3.85h2.31v3.045h-2.31Zm-5.285,0h2.065v3.045H55.72Zm-5.285,3.045V-21.42H52.5v3.045Zm14.42,11.06h3.29c.49,0,.84-.175.945-.56-1.33-1.155-3.43-2.66-3.43-2.66L63.84-8.3H49.6c.035-.8.07-1.61.07-2.31v-.6l.14.49h16.03a.838.838,0,0,0,.91-.56c-1.225-1.085-3.255-2.555-3.255-2.555L61.705-11.69H49.665V-14H67.55c.49,0,.84-.175.91-.56-.875-.735-2.065-1.645-2.835-2.24.665-.175,1.19-.42,1.225-.56v-7.28a2.842,2.842,0,0,0,1.47-.77l-3.675-2.73-1.68,1.855h-1.96v-2.2c.665-.105.91-.385.98-.805l-4.2-.385v3.4H55.72v-2.2c.665-.105.91-.42.98-.805l-4.2-.385v3.4H50.645L46.9-27.79v11.585l-.84-.315v5.915c0,4.235-.28,9.24-3.255,13.3l.315.35a13.546,13.546,0,0,0,6.37-10.36h2.2V-1.5c-1.33.14-2.415.245-3.15.28L50.61,3.15a1.436,1.436,0,0,0,.945-.805C55.51.56,58.205-.805,60.13-1.82a13.75,13.75,0,0,0,6.51,4.935,3.732,3.732,0,0,1,2.52-3.15L69.2-.42A17.144,17.144,0,0,1,62.58-2.94a25.094,25.094,0,0,0,4.13-1.435c.77.245,1.155.175,1.435-.14Zm27.09-10.85v4.2h-4.97v-4.2Zm-13.58,0h4.8v7.42h.665c1.435,0,3.15-.77,3.15-1.085v-1.155h4.97v1.96h.665c1.54,0,3.325-.735,3.325-1.085v-6.055H102.9c.525,0,.875-.175.98-.56-1.33-1.26-3.5-3.115-3.5-3.115l-2,2.66h-2.45v-2.59c.84-.1,1.085-.385,1.12-.805l-5.11-.455v3.85h-4.97v-2.555c.875-.14,1.12-.42,1.19-.84l-5-.455v3.85h-4.8v-4.865h24.5c.49,0,.875-.175.98-.56-1.47-1.365-3.885-3.36-3.885-3.36l-2.17,2.94H90.475V-28.35c.945-.14,1.225-.49,1.26-.98l-5.285-.42v4.725H79l-4.62-1.925V-16c0,6.265-.175,13.23-3.395,18.76l.42.28c6.58-5.18,6.965-13.055,6.965-19.075Zm15.3,9.7a17.982,17.982,0,0,1-3.99,4.515A13.7,13.7,0,0,1,83.93-8.47Zm2.485-2.835L93.73-9.45H78.925l.315.98h3.955a16.447,16.447,0,0,0,4.27,6.125A38.682,38.682,0,0,1,75.11,2.59l.175.525A42.218,42.218,0,0,0,89.67-.665,30.25,30.25,0,0,0,101.045,3.15,4.62,4.62,0,0,1,104.2-.77l.035-.42A51.488,51.488,0,0,1,93.135-2.7,21.39,21.39,0,0,0,98.175-7.7c.91-.07,1.295-.175,1.54-.525Z" transform="translate(-4105.076 -900.908)" fill="#3c505a"/>
      <path id="Path_172" data-name="Path 172" d="M5.94,11.06H5.16V8.14h.78Zm2.14.58v3.68H7.36c-.14,0-.18-.06-.18-.26V11.64Zm-5,10.62V19.5h5v2.76Zm.86-10.62v.76a9.408,9.408,0,0,1-.86,4.68V11.64ZM7.46,16.7a5.379,5.379,0,0,0,.62-.04v2.26h-5V17.3l.16.18a6.181,6.181,0,0,0,1.92-5.06v-.78h.78v3.92c0,.82.12,1.14,1.02,1.14Zm.4-9.12H.64l.16.56H3.58v2.92H3.2l-2.02-.84V24.7H1.5c.84,0,1.58-.46,1.58-.68V22.84h5v1.54h.34a2.689,2.689,0,0,0,1.68-.62V11.94a1.347,1.347,0,0,0,.76-.38l-2-1.54-.98,1.04H7.52V8.14h3.02c.3,0,.5-.1.56-.32C10.3,7.1,9,6.08,9,6.08Zm10.92,11.3h-.22a20.788,20.788,0,0,1-.86,2.8.488.488,0,0,1-.46.28c-.24.02-.76.02-1.4.02H14.28c-.62,0-.72-.12-.72-.46v-8H16.1v1.9h.36a3.578,3.578,0,0,0,1.78-.52V8.58a1.631,1.631,0,0,0,.92-.48L16.94,6.38,15.88,7.56H11.34l.18.58H16.1v4.8H13.82l-2.38-.92V22.1c0,1.56.44,1.98,2.32,1.98h1.9c3.04,0,3.94-.48,3.94-1.38,0-.38-.16-.66-.76-.9ZM6.42,44.52V39.84H13.7v4.68Zm7.08-5.26H6.58L3.96,38.22v8.54h.36c1.02,0,2.1-.54,2.1-.76v-.9H13.7v1.46h.42A4.284,4.284,0,0,0,16.2,46V40.26a1.491,1.491,0,0,0,.84-.44l-2.4-1.84Zm-2.4-3.52H5.36l.16.58h8.72c.3,0,.5-.1.56-.32-.9-.82-2.38-1.98-2.38-1.98ZM8.5,27.92C7.66,30.8,4.02,34.88.58,36.98l.12.24c4.02-1.54,8.12-4.7,10.02-7.74a13.58,13.58,0,0,0,6.92,6.96,2.8,2.8,0,0,1,1.84-2.16l.02-.32c-3.08-.84-6.68-2.26-8.46-4.72.64-.06.9-.18.98-.44Z" transform="translate(-3989.076 -941.908)" fill="#3c505a"/>
    </g>
  </g>
</svg>
