<svg xmlns="http://www.w3.org/2000/svg" width="28.26" height="310.29" viewBox="0 0 28.26 310.29">
  <g id="Group_254" data-name="Group 254" transform="translate(-6.273 -9.75)">
    <path id="Path_167" data-name="Path 167" d="M21.373,11.91h5.79a27.327,27.327,0,0,1,3.48.15V9.75a21.806,21.806,0,0,1-3.51.18H13.962a21.806,21.806,0,0,1-3.51-.18v2.31a27.327,27.327,0,0,1,3.48-.15h5.22V25.2h-7.5a21.394,21.394,0,0,1-3.48-.18v2.34a27.385,27.385,0,0,1,3.45-.15h17.82a27.615,27.615,0,0,1,3.48.15V25.02a21.585,21.585,0,0,1-3.51.18h-8.04Zm-3.06,29.64a13.6,13.6,0,0,1-1.89,4.38,22.226,22.226,0,0,1-7.53,8.22,4.461,4.461,0,0,1,1.68,1.56,28.921,28.921,0,0,0,7.17-7.8l10.11-.18a27.565,27.565,0,0,1-5.16,10.05A25.518,25.518,0,0,1,12.1,65.37a4.523,4.523,0,0,1,1.5,1.77,29.377,29.377,0,0,0,10.44-7.5,31.739,31.739,0,0,0,6-11.28c.33-1.08.33-1.11.6-1.47l-1.29-1.26a2.947,2.947,0,0,1-1.56.21c-8.67.15-8.67.15-9.06.24a28.694,28.694,0,0,0,1.38-2.67,5.731,5.731,0,0,1,.66-1.23ZM10,81.15a33.532,33.532,0,0,1,3.93,9.3l2.22-.93a36.243,36.243,0,0,0-4.02-9.21Zm18.3-.99a14.206,14.206,0,0,1-.36,2.49c-1.29,5.73-3.33,9.99-6.45,13.29a22.156,22.156,0,0,1-7.89,5.43,5.09,5.09,0,0,1,1.59,1.83,26.258,26.258,0,0,0,8.01-5.82,29.753,29.753,0,0,0,6.84-13.71,15.6,15.6,0,0,1,.78-2.85ZM10,117.15a33.532,33.532,0,0,1,3.93,9.3l2.22-.93a36.243,36.243,0,0,0-4.02-9.21Zm18.3-.99a14.206,14.206,0,0,1-.36,2.49c-1.29,5.73-3.33,9.99-6.45,13.29a22.156,22.156,0,0,1-7.89,5.43,5.091,5.091,0,0,1,1.59,1.83,26.258,26.258,0,0,0,8.01-5.82,29.753,29.753,0,0,0,6.84-13.71,15.6,15.6,0,0,1,.78-2.85Zm-10.14,69.99a56.925,56.925,0,0,1-2.37,8.64,114.415,114.415,0,0,1-4.53,11.88c-.69.06-2.34.15-2.55.15-.15,0-.15,0-.84-.03l.3,2.49a20.862,20.862,0,0,1,2.55-.33,185.323,185.323,0,0,0,18.45-2.49,40.721,40.721,0,0,1,1.77,4.05l2.1-1.14a77.709,77.709,0,0,0-7.47-13.56l-1.86,1.02a58.357,58.357,0,0,1,4.62,7.77c-3.54.69-10.59,1.62-14.58,1.89a162.537,162.537,0,0,0,6.24-17.55,11.861,11.861,0,0,1,.81-2.16Zm1.17,37.32h-8.85a21.031,21.031,0,0,1-3.03-.18v1.98a22.285,22.285,0,0,1,2.97-.15h20.19a22.285,22.285,0,0,1,2.97.15v-1.98a21,21,0,0,1-2.97.18h-9.36v-.6a10.432,10.432,0,0,1,.18-2.01h-2.28a10.984,10.984,0,0,1,.18,2.04Zm-6.9,7.41a21.993,21.993,0,0,1-.09,2.34,24.83,24.83,0,0,1,2.7-.12h11.07a23.243,23.243,0,0,1,2.76.12,15.178,15.178,0,0,1-.09-2.34v-1.62c0-1.02.03-1.44.09-2.31a20.44,20.44,0,0,1-2.55.12H15.193a23.944,23.944,0,0,1-2.85-.12c.06.63.09,1.32.09,2.28Zm1.83-2.25h12.69v2.94H14.263Zm-5.82,16.71a21.622,21.622,0,0,1-.18,3.03h2.22a18.651,18.651,0,0,1-.18-3.06v-8.64h20.55v8.79c0,.6-.15.69-1.23.69a23.014,23.014,0,0,1-3.39-.27,6.027,6.027,0,0,1,.39,1.86c1.92.09,2.1.09,2.79.09,1.59,0,2.1-.09,2.58-.42.51-.33.69-.84.69-1.86V237.6a24.406,24.406,0,0,1,.12-2.64,23.166,23.166,0,0,1-2.91.12h-18.6a27.623,27.623,0,0,1-2.97-.12,25.19,25.19,0,0,1,.12,2.7Zm18.06-4.77a17.671,17.671,0,0,1,.09-2.04c-.78.06-1.5.09-2.64.09h-7.2c-1.11,0-1.74-.03-2.43-.09a21.529,21.529,0,0,1,.09,2.19v3a17.451,17.451,0,0,1-.15,2.49h1.95v-1.65h7.62c1.05,0,1.98.03,2.76.09a18.372,18.372,0,0,1-.09-2.13Zm-10.32-.45h8.58v2.94h-8.58Zm8.07,34.11,4.32-3.78c.24-.21.42-.39.51-.45.15-.15.27-.24.3-.27a3.752,3.752,0,0,0,.3-.27l-1.17-1.17a13.939,13.939,0,0,1-2.34.12H13.6a17.12,17.12,0,0,1-2.67-.15v1.95a25.4,25.4,0,0,1,2.82-.15h12.78l-4.83,4.17H13a14.771,14.771,0,0,1-2.16-.12,17.809,17.809,0,0,1,.15,2.28v5.31a18.447,18.447,0,0,1-.18,2.52h2.1v-1.41h15.48v1.41h2.1a17.182,17.182,0,0,1-.18-2.52v-5.28a14.013,14.013,0,0,1,.15-2.31,14.078,14.078,0,0,1-2.13.12Zm-11.34,1.68h15.48v5.19H12.913Zm6.51-18.69a24.491,24.491,0,0,1-6.12,5.91,33.157,33.157,0,0,1-6.78,3.69,5.951,5.951,0,0,1,1.32,1.68,39.71,39.71,0,0,0,6.69-3.96,29.816,29.816,0,0,0,5.94-5.67,36.289,36.289,0,0,0,13.08,9.51,6.227,6.227,0,0,1,1.23-1.77,28.181,28.181,0,0,1-6.18-3.06,25.329,25.329,0,0,1-7.14-6.33Zm-3.99,8.85a15.078,15.078,0,0,1,2.55-.15h5.4a14.485,14.485,0,0,1,2.52.15v-1.89a13.7,13.7,0,0,1-2.49.15h-5.46a14.485,14.485,0,0,1-2.52-.15Zm-2.07,50.55a29.466,29.466,0,0,1-.18,3.42H15.4a26.868,26.868,0,0,1-.15-3.42v-3.21h12.66v3.66c0,.75-.21.9-1.41.9a25.151,25.151,0,0,1-3.78-.3,6.655,6.655,0,0,1,.45,1.92c1.29.09,2.49.12,3.36.12a4.452,4.452,0,0,0,2.46-.39,2.125,2.125,0,0,0,.81-1.92V305.37c0-1.56.03-2.61.12-3.51a22.6,22.6,0,0,1-3.21.15H15.762a23.612,23.612,0,0,0,2.04-3.39h12.81a25.469,25.469,0,0,1,3.27.18v-2.16a24.822,24.822,0,0,1-3.27.18H18.643c.33-.75.48-1.2.75-1.92a16.035,16.035,0,0,1,.6-1.65l-2.19-.27a14.382,14.382,0,0,1-1.11,3.84h-6.03a25.179,25.179,0,0,1-3.33-.18v2.16a26.147,26.147,0,0,1,3.33-.18h5.19a23.2,23.2,0,0,1-3.39,4.89,27.06,27.06,0,0,1-5.91,5.1,4.4,4.4,0,0,1,1.32,1.53,32.136,32.136,0,0,0,5.49-5.04Zm14.55-8.1v3.27H15.253v-3.27Zm0-1.62H15.253v-3.18h12.66Z" transform="translate(-0.25)" fill="#3c505a"/>
    <path id="Path_168" data-name="Path 168" d="M5.548,19.71a32.772,32.772,0,0,1,3.72-.12h17.4a34.319,34.319,0,0,1,3.66.12V17.28a23.661,23.661,0,0,1-3.63.15H9.267a21.222,21.222,0,0,1-3.72-.18Z" transform="translate(38.75 144.5) rotate(90)" fill="#3c505a"/>
  </g>
</svg>
