<svg xmlns="http://www.w3.org/2000/svg" width="631" height="197" viewBox="0 0 631 197">
  <g id="Group_278" data-name="Group 278" transform="translate(-507 -25880)">
    <g id="Group_69" data-name="Group 69" transform="translate(246 -2817)">
      <circle id="Ellipse_12" data-name="Ellipse 12" cx="98.5" cy="98.5" r="98.5" transform="translate(261 28697)" fill="#fffa96"/>
      <path id="Path_291" data-name="Path 291" d="M-63.28-33.08a14.112,14.112,0,0,1,3.24,6.68c2.64,2.2,5.2-3.52-2.8-6.96Zm-3.76,30.6c6.68-2.44,10-5.56,11.64-9.44,3.52,2.24,7.88,6,9.44,9.04,3.52,1.68,4.28-5.72-9.16-9.76a17.588,17.588,0,0,0,.88-3.32h11.56c.56,0,.92-.2,1-.64-1.28-1.24-3.44-2.88-3.44-2.88L-47-17.16h-7.08a63.525,63.525,0,0,0,.44-6.48h10.36c.56,0,.96-.2,1.04-.64-1.36-1.2-3.44-2.84-3.44-2.84l-1.88,2.28h-4.6a45,45,0,0,0,5.12-6.52c.84.08,1.32-.2,1.52-.64l-4.08-1.6a65.39,65.39,0,0,1-3.76,8.76H-66.92l.32,1.2h10c-.04,2.32-.08,4.48-.28,6.48H-67.36l.32,1.2h10c-.84,5.28-3.24,9.48-10.48,12.8ZM-77.2-31.96c2.04,1.76,4.56,4.84,5.24,7.2,3.04,2.08,5.04-4.36-4.84-7.52Zm7.4,17.04a2.914,2.914,0,0,0,1.92-.72l-3.44-2.84-1.52,2h-5.52l.24,1.2h5.88V-3.52c-2.28,1.28-4.72,2.56-6.28,3.24l1.88,3.36a.864.864,0,0,0,.48-1,72.157,72.157,0,0,0,5.8-5.48c2.8,4.6,6,5.52,13.24,5.52h13.76A2.317,2.317,0,0,1-41.4-.08V-.64c-4.76.16-11.04.16-15.76.16C-64-.48-67-.96-69.8-4.16Zm50.88-14.44c1.92,1.4,4.28,3.88,4.92,5.92,2.76,1.76,4.4-4.08-4.56-6.28Zm-1,9.36c2.04,1.28,4.56,3.72,5.28,5.72,2.88,1.64,4.36-4.32-4.92-6.12Zm-6.04-1.08a70.557,70.557,0,0,0,4.28-7.16,1.346,1.346,0,0,0,1.4-.8l-3.88-1.28c-.76,3.08-1.68,6.64-2.48,8.92Zm-11.92-8.84a19,19,0,0,1,2.44,7.76c2.28,2.24,4.84-3.04-1.92-7.96Zm9.8,12.68h6.88c.56,0,.96-.2,1.04-.64C-21.4-19-23.4-20.6-23.4-20.6l-1.68,2.2h-3V-31.84c1-.16,1.32-.56,1.44-1.12l-3.92-.48V-18.4h-7.88l.32,1.16h6.32a35.856,35.856,0,0,1-6.72,13.6l.48.56a30.028,30.028,0,0,0,7.48-9.72V3.08h.48c.96,0,2-.6,2-1V-13.88c1.96,1.52,4.16,4,4.76,6.04,2.76,1.8,4.48-4.16-4.76-6.72Zm22.28,7L-6.88-10V-31.84c1-.16,1.32-.56,1.44-1.12l-4-.48v24L-21.56-6.8l.52,1.04,11.6-2.48V3.08h.52c.92,0,2.04-.64,2.04-1.04V-8.8l5.16-1.12a.972.972,0,0,0,.84-.88c-1.32-.92-3.52-2.36-3.52-2.36ZM7.88-6.32A7.974,7.974,0,0,1,3.2.28C2.36.8,1.84,1.56,2.16,2.36c.44.92,1.92.88,3.04.16,1.92-1.04,4.24-3.88,3.36-8.8Zm5.44.64a18.24,18.24,0,0,1,1.4,7.84c2.16,2.48,5.12-2.88-.84-8.04Zm7.44.04c1.6,1.96,3.56,5.2,3.84,7.68,2.52,2.2,4.76-3.64-3.36-8Zm7.84-.44C31.36-4,34.68-.28,35.48,2.68c3.2,2.08,4.92-5.12-6.4-9.12Zm.48-2.88H24.44v-8.28h4.64ZM10.44-17.24h4.4v8.28h-4.4Zm0-9.4h4.4v8.28h-4.4Zm11.52,9.4v8.28H17.24v-8.28Zm0-9.4v8.28H17.24v-8.28Zm7.12,0v8.28H24.44v-8.28Zm8.48,9.4c.56,0,.92-.2,1-.64-1.24-1.2-3.36-2.88-3.36-2.88l-1.8,2.4H31.56v-8.28h4.88c.56,0,.96-.2,1.04-.64-1.28-1.2-3.4-2.92-3.4-2.92l-1.92,2.4H10.84l-.72-.32a29.614,29.614,0,0,0,2.2-3.16,1.585,1.585,0,0,0,1.64-.52L10-33.64A35.953,35.953,0,0,1,1.68-21.6l.48.48a26.979,26.979,0,0,0,5.88-4.64v7.4H1.56l.32,1.12H8.04v8.28H1.84l.32,1.12H37.24c.56,0,.88-.2,1-.6C37.04-9.68,35-11.36,35-11.36l-1.72,2.4H31.56v-8.28ZM61.08-29.36c1.92,1.4,4.28,3.88,4.92,5.92,2.76,1.76,4.4-4.08-4.56-6.28Zm-1,9.36c2.04,1.28,4.56,3.72,5.28,5.72,2.88,1.64,4.36-4.32-4.92-6.12Zm-6.04-1.08a70.557,70.557,0,0,0,4.28-7.16,1.346,1.346,0,0,0,1.4-.8l-3.88-1.28c-.76,3.08-1.68,6.64-2.48,8.92ZM42.12-29.92a19,19,0,0,1,2.44,7.76c2.28,2.24,4.84-3.04-1.92-7.96Zm9.8,12.68H58.8c.56,0,.96-.2,1.04-.64C58.6-19,56.6-20.6,56.6-20.6l-1.68,2.2h-3V-31.84c1-.16,1.32-.56,1.44-1.12l-3.92-.48V-18.4H41.56l.32,1.16H48.2a35.856,35.856,0,0,1-6.72,13.6l.48.56a30.028,30.028,0,0,0,7.48-9.72V3.08h.48c.96,0,2-.6,2-1V-13.88c1.96,1.52,4.16,4,4.76,6.04,2.76,1.8,4.48-4.16-4.76-6.72Zm22.28,7L73.12-10V-31.84c1-.16,1.32-.56,1.44-1.12l-4-.48v24L58.44-6.8l.52,1.04,11.6-2.48V3.08h.52c.92,0,2.04-.64,2.04-1.04V-8.8l5.16-1.12a.972.972,0,0,0,.84-.88c-1.32-.92-3.52-2.36-3.52-2.36Z" transform="translate(360 28813)" fill="#3c505a"/>
    </g>
    <g id="Group_71" data-name="Group 71" transform="translate(60 -2817)">
      <circle id="Ellipse_14" data-name="Ellipse 14" cx="98.5" cy="98.5" r="98.5" transform="translate(881 28697)" fill="#fffa96"/>
      <path id="Path_290" data-name="Path 290" d="M-55.23-10.53c.09,5.73,3.21,8.34,5.55,9.36,1.23.51,2.04.03,2.04-.78,0-.63-.48-.78-.21-2.13.18-.93,1.14-3.45,1.83-5.43l-.78-.36a48.977,48.977,0,0,1-2.82,5.49.707.707,0,0,1-1.05.21c-1.26-.66-3-2.61-3-6.42,0-3.09,1.02-4.98,1.02-6.3,0-1.23-1.56-2.58-2.64-3.09a8.284,8.284,0,0,0-1.89-.48l-.27.48c2.13,1.5,2.34,2.25,2.34,3.87C-55.11-14.76-55.29-12.69-55.23-10.53Zm18.75-2.7a16.352,16.352,0,0,1,1.71,6c.12.69.48,1.05.96,1.05.81,0,1.2-.51,1.2-1.68a10.682,10.682,0,0,0-2.61-6.75,9.328,9.328,0,0,0-5.64-2.97l-.27.72A8.685,8.685,0,0,1-36.48-13.23Zm8.34-1.17a4.374,4.374,0,0,0,.48,1.68,3.941,3.941,0,0,0,2.64,1.74c.87,0,1.68-.84,3.9-2.22,2.25-1.41,6.3-4.08,9.96-4.08,3.87,0,6.21,2.16,6.21,5.52,0,3.21-1.59,5.43-4.98,7.02-3,1.47-6.24,1.95-10.23,2.19l.06.81c4.68.24,9-.42,11.67-1.71C-5.19-4.98-2.82-7.5-2.82-11.4c0-3.72-2.82-7.11-8.31-7.11-4.47,0-9.09,2.64-11.91,4.08a5.218,5.218,0,0,1-2.67.93,3.04,3.04,0,0,1-2.01-1.17ZM1.68-18.42a7.36,7.36,0,0,0,.12,1.38A3.722,3.722,0,0,0,4.68-14.7a5.036,5.036,0,0,0,1.83-.75,63.356,63.356,0,0,1,9.42-3.06c.33-.09.36.09.15.27a12.573,12.573,0,0,0-4.5,10.17c0,3.39.99,5.19,2.88,6.57C16.5.06,19.47.18,21.21.18c1.35,0,2.16-.27,2.16-.99,0-.75-.99-1.26-1.71-1.26-1.23,0-3.87.18-5.82-.99-1.2-.75-2.55-2.1-2.55-5.37,0-6,3-8.79,4.35-9.6a10.07,10.07,0,0,1,5.04-1.11c1.11,0,2.01.09,2.58.09.66,0,1.02-.36,1.02-.78s-.24-.75-.9-1.05a6.107,6.107,0,0,0-2.13-.33,40.491,40.491,0,0,0-6.81,1.23C11.49-18.84,5.7-17.1,4.14-17.1a2.676,2.676,0,0,1-1.89-1.5Zm21.24,1.98a15.172,15.172,0,0,1,2.79,2.4c.63.75.93,1.44,1.41,1.44.45,0,.69-.27.69-.78a2.379,2.379,0,0,0-1.11-1.86,12.046,12.046,0,0,0-3.39-1.74Zm-2.67,1.98a16.972,16.972,0,0,1,2.76,2.61c.6.78.93,1.47,1.38,1.47a.7.7,0,0,0,.72-.78,2.505,2.505,0,0,0-1.02-1.8,11.4,11.4,0,0,0-3.42-2.01Zm17.04,3.09c0-1.44,2.67-3.18,4.68-3.33-.36,1.5-.84,3.57-1.17,5.55C37.98-9.54,37.29-10.47,37.29-11.37Zm10.14-1.29c2.79,2.07,4.8,3.96,4.8,7.26,0,2.52-1.89,5.1-5.85,5.1-2.82,0-4.77-1.38-4.77-4.38a16.094,16.094,0,0,1,.24-2.43,17.524,17.524,0,0,0,3.45.09c1.11-.09,1.47-.42,1.47-.93,0-.6-.48-.93-1.2-.99-.63-.06-1.86.03-3.36-.06.42-2.01.99-4.14,1.44-5.64a15.2,15.2,0,0,0,1.92.06c.75-.03,1.14-.3,1.14-.78,0-.51-.39-1.02-1.35-1.11-.36-.03-.72-.06-1.11-.06a26.482,26.482,0,0,1,1.2-3.18c.36-.75.78-.93.78-1.5,0-.81-1.8-2.28-3.21-2.28a13.738,13.738,0,0,0-1.65.12l-.03.69a6.331,6.331,0,0,1,1.59.45c.54.24.75.42.69,1.17a40.332,40.332,0,0,1-1.14,4.41,10.633,10.633,0,0,1-3.33-.75,6.52,6.52,0,0,1-2.73-2.46l-.51.3a4.775,4.775,0,0,0,2.07,3.03,7.745,7.745,0,0,0,2.19.96c-2.28,1.14-4.08,2.88-4.08,4.53,0,1.74,1.62,3.12,4.44,3.72a22.637,22.637,0,0,0-.21,2.64c0,3.66,2.16,6.12,6.24,6.12,5.22,0,7.68-3.39,7.68-6.27,0-3.27-1.74-6.03-6.39-8.34ZM-25.92,21.98a10.068,10.068,0,0,1-5.1,7.89l.21.42c4.08-1.65,6.27-4.23,7.11-8.31h4.5c-.18,3.21-.42,4.92-.87,5.34a1.222,1.222,0,0,1-.87.21c-.45,0-2.01-.12-2.88-.21v.51a5.28,5.28,0,0,1,2.01.63,1.559,1.559,0,0,1,.45,1.29A4.084,4.084,0,0,0-18.87,29c.93-.78,1.32-2.79,1.47-6.84.6-.06.93-.18,1.11-.42L-18.45,20l-1.02,1.08H-30.66l.27.9Zm-9.81,14.85V32.51h2.58v4.32Zm-4.05-4.32h2.43v4.32h-2.58a40.736,40.736,0,0,0,.15-4.17Zm4.44-9.72a27.388,27.388,0,0,1-1.68,3.99h-2.4l-1.23-.57a22.622,22.622,0,0,0,2.1-3.42Zm-4.44,4.86h2.43v3.99h-2.43Zm6.63,0v3.99h-2.58V27.65Zm.63-2.1-.93,1.23h-2.79a30.862,30.862,0,0,0,2.91-3.84,2.124,2.124,0,0,0,1.17-.24l-2.07-1.98-1.14,1.17H-38.1c.24-.54.45-1.08.66-1.62.66.03,1.02-.24,1.14-.6l-2.82-.87a27.83,27.83,0,0,1-4.65,10.08l.39.3a18.134,18.134,0,0,0,1.86-1.86v5.37c0,4.41-.12,9.27-2.22,13.26l.42.33a15.736,15.736,0,0,0,3.33-8.61h6.84v5.79c0,.45-.15.63-.66.63-.6,0-3.39-.21-3.39-.21v.48a5.285,5.285,0,0,1,2.37.69,1.589,1.589,0,0,1,.6,1.17c2.55-.24,2.88-1.14,2.88-2.55V28.01a2.869,2.869,0,0,0,1.29-.6ZM-19.23,39.2h-3.21V34.91h5.22c.42,0,.69-.15.78-.48-.9-.84-2.28-1.89-2.28-1.89l-1.2,1.5h-2.52V30.98c.66-.09.93-.39.99-.72l-2.88-.33v4.11h-3.39a20.761,20.761,0,0,0,1.08-2.49.98.98,0,0,0,1.08-.6l-2.64-.78a20.97,20.97,0,0,1-2.85,7.32l.42.3a11.463,11.463,0,0,0,2.4-2.88h3.9V39.2h-6.54l.24.87h6.3v6.21h.36c.69,0,1.53-.45,1.53-.69V40.07h6.06c.42,0,.72-.15.81-.48-.9-.87-2.4-2.01-2.4-2.01ZM-8.58,18.83a44.82,44.82,0,0,1-2.22,5.73,9.394,9.394,0,0,0-2.31-.96l-.3.27a9.966,9.966,0,0,1,3.15,4.08c1.44.96,2.52-1.17.12-2.97a33.829,33.829,0,0,0,3.36-4.56,1.013,1.013,0,0,0,1.08-.51ZM-13.5,43.76a21.942,21.942,0,0,0,3.42-7.14c.66-.03.96-.3,1.08-.66l-2.7-.72a33.817,33.817,0,0,1-2.25,8.25Zm8.04-8.46a16.545,16.545,0,0,1,2.04,5.76c1.8,1.65,3.63-2.31-1.62-5.88Zm-.42-6.51a22.081,22.081,0,0,1,1.5,2.31c-1.86.15-3.63.3-5.16.42a55.632,55.632,0,0,0,5.85-7.59,1.093,1.093,0,0,0,1.17-.51l-2.82-1.11a68.231,68.231,0,0,1-5.16,9.27c-1.38.09-2.49.15-3.21.15l.63,2.25a.977.977,0,0,0,.78-.6c1.38-.24,2.67-.48,3.84-.72V46.31h.3c.93,0,1.59-.48,1.59-.66V32.27q1.35-.27,2.52-.54a10.282,10.282,0,0,1,.78,2.28c1.86,1.47,3.51-2.43-2.25-5.43Zm17.16-4.86-1.17,1.32H1.74A45.011,45.011,0,0,0,3.6,20.48a1.041,1.041,0,0,0,1.08-.6l-3.06-.9A40.454,40.454,0,0,1-2.34,30.59l.45.3a22.661,22.661,0,0,0,3.21-4.8h9.12c-.27,8.79-.84,16.02-2.01,17.13a1.543,1.543,0,0,1-1.29.45c-.75,0-3.42-.27-5.01-.45l-.03.54a12.861,12.861,0,0,1,3.57.99,1.663,1.663,0,0,1,.6,1.5,4.667,4.667,0,0,0,3.69-1.44c1.5-1.77,2.16-9,2.4-18.45a1.839,1.839,0,0,0,1.26-.48ZM1.23,30.35c1.38,1.62,2.94,4.26,3.12,6.36,2.07,1.77,3.99-3.12-2.79-6.54Zm20.43,5.73V28.13h7.35v7.95Zm8.13-10.02-1.05,1.2H21.81l-2.04-.93v14.1h.33c.81,0,1.56-.45,1.56-.63V36.98h7.35v2.31h.27a2.683,2.683,0,0,0,1.68-.66V28.49a2.466,2.466,0,0,0,1.26-.6Zm9.6-4.89H16.26l.24.9H37.08V43.1c0,.54-.21.78-.87.78-.81,0-4.98-.3-4.98-.3v.45a8.877,8.877,0,0,1,3.36.84,1.73,1.73,0,0,1,.84,1.44c3.21-.3,3.6-1.5,3.6-3.09V22.07h3.96c.42,0,.69-.15.75-.48-1.05-1.02-2.79-2.34-2.79-2.34Z" transform="translate(980 28787)" fill="#3c505a"/>
    </g>
    <g id="Group_70" data-name="Group 70" transform="translate(165 -2817)">
      <circle id="Ellipse_13" data-name="Ellipse 13" cx="98.5" cy="98.5" r="98.5" transform="translate(559 28697)" fill="#fffa96"/>
      <path id="Path_292" data-name="Path 292" d="M-31.675-34.75a13.09,13.09,0,0,1,3.25-.4c4.4,0,6.9,2.55,6.9,7.1,0,4.85-3.2,7.65-8.2,7.65h-2.15v2.25h2.55c5.9,0,8.8,3.25,8.8,8.35,0,4.95-3.05,8.5-8.45,8.5a11.683,11.683,0,0,1-3.6-.55l-.95-3.1c-.65-2.2-1.2-3.2-2.7-3.2a2.534,2.534,0,0,0-2.35,1.55c1.1,5.1,5.05,7.3,10.2,7.3,7.05,0,11.9-4.35,11.9-10.3,0-5-2.85-8.6-8.65-9.65,4.8-1.5,7.5-4.9,7.5-9.05,0-5.35-3.9-8.9-10.05-8.9-4.75,0-8.9,2.15-10,6.75a2.3,2.3,0,0,0,2.35,1.75c1.6,0,2.2-.9,2.7-2.95Zm24.15,16.2c0-12.95,3.45-16.6,7.05-16.6,3.5,0,6.9,3.65,6.9,16.6C6.425-5,3.025-1.3-.475-1.3-4.075-1.3-7.525-4.95-7.525-18.55ZM-.475-37.2c-5.7,0-11.2,5.1-11.2,18.65C-11.675-4.4-6.175.7-.475.7c5.65,0,11.05-5.1,11.05-19.25C10.575-32.1,5.175-37.2-.475-37.2ZM19.915.78l15.27-21.99-.81-.66L19.075.12Zm-2.55-15.6c0-4.68,1.2-5.79,2.4-5.79,1.26,0,2.4,1.14,2.4,5.79,0,4.68-1.14,5.82-2.4,5.82C18.565-9,17.365-10.14,17.365-14.82Zm2.4-6.75c-2.25,0-4.47,1.98-4.47,6.75,0,4.8,2.22,6.78,4.47,6.78s4.44-1.98,4.44-6.78C24.205-19.59,22.015-21.57,19.765-21.57Zm12,15.12c0-4.71,1.23-5.82,2.43-5.82,1.23,0,2.37,1.14,2.37,5.82,0,4.65-1.14,5.79-2.37,5.79C33-.66,31.765-1.8,31.765-6.45ZM34.2-13.2c-2.25,0-4.47,1.95-4.47,6.75S31.945.3,34.2.3s4.44-1.95,4.44-6.75S36.445-13.2,34.2-13.2ZM-25.32,38.05c0-5.16,2.22-10.08,6.96-10.08,4.68,0,6.9,4.92,6.9,10.08,0,5.19-2.22,10.11-6.9,10.11C-23.1,48.16-25.32,43.24-25.32,38.05Zm6.96-11.43c-5.13,0-9.9,4.35-9.9,11.43,0,7.32,4.74,11.43,9.9,11.43,5.1,0,9.81-4.32,9.81-11.43C-8.55,30.73-13.26,26.62-18.36,26.62Zm26.4,1.83.78,4.32h1.5l-.24-5.64H-5.97v1.05l3.12.33c.09,2.88.09,5.82.09,8.73v1.65c0,2.94,0,5.85-.09,8.7l-3.12.33V49h9V47.92l-3.21-.33c-.09-2.88-.09-5.82-.09-9.12H5.16l.42,3.42H6.84V34.03H5.58l-.39,3.24H-.27c0-3.06,0-6,.09-8.82Zm18.57,0,.78,4.32h1.5l-.24-5.64H12.6v1.05l3.12.33c.09,2.88.09,5.82.09,8.73v1.65c0,2.94,0,5.85-.09,8.7l-3.12.33V49h9V47.92l-3.21-.33c-.09-2.88-.09-5.82-.09-9.12h5.43l.42,3.42h1.26V34.03H24.15l-.39,3.24H18.3c0-3.06,0-6,.09-8.82Z" transform="translate(658 28796)" fill="#3c505a"/>
    </g>
  </g>
</svg>
