<svg xmlns="http://www.w3.org/2000/svg" width="334" height="105" viewBox="0 0 334 105">
  <g id="Group_278" data-name="Group 278" transform="translate(247 -91)">
    <g id="Group_69" data-name="Group 69" transform="translate(-247 91)">
      <circle id="Ellipse_12" data-name="Ellipse 12" cx="52.5" cy="52.5" r="52.5" fill="#fffa96"/>
      <path id="Path_295" data-name="Path 295" d="M-31.64-16.54a7.056,7.056,0,0,1,1.62,3.34c1.32,1.1,2.6-1.76-1.4-3.48Zm-1.88,15.3c3.34-1.22,5-2.78,5.82-4.72a14.873,14.873,0,0,1,4.72,4.52c1.76.84,2.14-2.86-4.58-4.88a8.794,8.794,0,0,0,.44-1.66h5.78c.28,0,.46-.1.5-.32-.64-.62-1.72-1.44-1.72-1.44l-.94,1.16h-3.54a31.763,31.763,0,0,0,.22-3.24h5.18c.28,0,.48-.1.52-.32-.68-.6-1.72-1.42-1.72-1.42l-.94,1.14h-2.3a22.5,22.5,0,0,0,2.56-3.26c.42.04.66-.1.76-.32l-2.04-.8a32.7,32.7,0,0,1-1.88,4.38h-6.78l.16.6h5c-.02,1.16-.04,2.24-.14,3.24h-5.24l.16.6h5c-.42,2.64-1.62,4.74-5.24,6.4ZM-38.6-15.98a9.228,9.228,0,0,1,2.62,3.6c1.52,1.04,2.52-2.18-2.42-3.76Zm3.7,8.52a1.457,1.457,0,0,0,.96-.36l-1.72-1.42-.76,1h-2.76l.12.6h2.94v5.88c-1.14.64-2.36,1.28-3.14,1.62l.94,1.68a.432.432,0,0,0,.24-.5,36.079,36.079,0,0,0,2.9-2.74c1.4,2.3,3,2.76,6.62,2.76h6.88a1.158,1.158,0,0,1,.98-1.1V-.32c-2.38.08-5.52.08-7.88.08C-32-.24-33.5-.48-34.9-2.08Zm25.44-7.22A7.211,7.211,0,0,1-7-11.72c1.38.88,2.2-2.04-2.28-3.14ZM-9.96-10A7.054,7.054,0,0,1-7.32-7.14c1.44.82,2.18-2.16-2.46-3.06Zm-3.02-.54a35.279,35.279,0,0,0,2.14-3.58.673.673,0,0,0,.7-.4l-1.94-.64c-.38,1.54-.84,3.32-1.24,4.46Zm-5.96-4.42a9.5,9.5,0,0,1,1.22,3.88c1.14,1.12,2.42-1.52-.96-3.98Zm4.9,6.34h3.44c.28,0,.48-.1.52-.32-.62-.56-1.62-1.36-1.62-1.36l-.84,1.1h-1.5v-6.72c.5-.08.66-.28.72-.56l-1.96-.24V-9.2h-3.94l.16.58h3.16a17.928,17.928,0,0,1-3.36,6.8l.24.28A15.014,15.014,0,0,0-15.28-6.4V1.54h.24c.48,0,1-.3,1-.5V-6.94a7.209,7.209,0,0,1,2.38,3.02c1.38.9,2.24-2.08-2.38-3.36ZM-2.9-5.12-3.44-5V-15.92c.5-.08.66-.28.72-.56l-2-.24v12L-10.78-3.4l.26.52,5.8-1.24V1.54h.26c.46,0,1.02-.32,1.02-.52V-4.4l2.58-.56A.486.486,0,0,0-.44-5.4C-1.1-5.86-2.2-6.58-2.2-6.58ZM3.94-3.16A3.987,3.987,0,0,1,1.6.14C1.18.4.92.78,1.08,1.18c.22.46.96.44,1.52.08C3.56.74,4.72-.68,4.28-3.14Zm2.72.32a9.12,9.12,0,0,1,.7,3.92C8.44,2.32,9.92-.36,6.94-2.94Zm3.72.02A8.827,8.827,0,0,1,12.3,1.02c1.26,1.1,2.38-1.82-1.68-4Zm3.92-.22a10.1,10.1,0,0,1,3.44,4.38c1.6,1.04,2.46-2.56-3.2-4.56Zm.24-1.44H12.22V-8.62h2.32ZM5.22-8.62h2.2v4.14H5.22Zm0-4.7h2.2v4.14H5.22Zm5.76,4.7v4.14H8.62V-8.62Zm0-4.7v4.14H8.62v-4.14Zm3.56,0v4.14H12.22v-4.14Zm4.24,4.7c.28,0,.46-.1.5-.32-.62-.6-1.68-1.44-1.68-1.44l-.9,1.2h-.92v-4.14h2.44c.28,0,.48-.1.52-.32-.64-.6-1.7-1.46-1.7-1.46l-.96,1.2H5.42l-.36-.16a14.807,14.807,0,0,0,1.1-1.58.793.793,0,0,0,.82-.26L5-16.82A17.976,17.976,0,0,1,.84-10.8l.24.24a13.489,13.489,0,0,0,2.94-2.32v3.7H.78l.16.56H4.02v4.14H.92l.16.56H18.62c.28,0,.44-.1.5-.3-.6-.62-1.62-1.46-1.62-1.46l-.86,1.2h-.86V-8.62Zm11.76-6.06A7.211,7.211,0,0,1,33-11.72c1.38.88,2.2-2.04-2.28-3.14ZM30.04-10a7.054,7.054,0,0,1,2.64,2.86c1.44.82,2.18-2.16-2.46-3.06Zm-3.02-.54a35.278,35.278,0,0,0,2.14-3.58.673.673,0,0,0,.7-.4l-1.94-.64c-.38,1.54-.84,3.32-1.24,4.46Zm-5.96-4.42a9.5,9.5,0,0,1,1.22,3.88c1.14,1.12,2.42-1.52-.96-3.98Zm4.9,6.34H29.4c.28,0,.48-.1.52-.32C29.3-9.5,28.3-10.3,28.3-10.3l-.84,1.1h-1.5v-6.72c.5-.08.66-.28.72-.56l-1.96-.24V-9.2H20.78l.16.58H24.1a17.928,17.928,0,0,1-3.36,6.8l.24.28A15.014,15.014,0,0,0,24.72-6.4V1.54h.24c.48,0,1-.3,1-.5V-6.94a7.209,7.209,0,0,1,2.38,3.02c1.38.9,2.24-2.08-2.38-3.36ZM37.1-5.12,36.56-5V-15.92c.5-.08.66-.28.72-.56l-2-.24v12L29.22-3.4l.26.52,5.8-1.24V1.54h.26c.46,0,1.02-.32,1.02-.52V-4.4l2.58-.56a.486.486,0,0,0,.42-.44c-.66-.46-1.76-1.18-1.76-1.18Z" transform="translate(50 60)" fill="#3c505a"/>
    </g>
    <g id="Group_71" data-name="Group 71" transform="translate(-16.923 91)">
      <ellipse id="Ellipse_14" data-name="Ellipse 14" cx="52" cy="52.5" rx="52" ry="52.5" transform="translate(-0.077)" fill="#fffa96"/>
      <path id="Path_294" data-name="Path 294" d="M-27.615-5.265A4.805,4.805,0,0,0-24.84-.585c.615.255,1.02.015,1.02-.39,0-.315-.24-.39-.1-1.065.09-.465.57-1.725.915-2.715l-.39-.18A24.488,24.488,0,0,1-24.81-2.19a.354.354,0,0,1-.525.105,3.437,3.437,0,0,1-1.5-3.21,23.014,23.014,0,0,1,.51-3.15c0-.615-.78-1.29-1.32-1.545a4.142,4.142,0,0,0-.945-.24l-.135.24c1.065.75,1.17,1.125,1.17,1.935C-27.555-7.38-27.645-6.345-27.615-5.265Zm9.375-1.35a8.176,8.176,0,0,1,.855,3c.06.345.24.525.48.525.4,0,.6-.255.6-.84A5.341,5.341,0,0,0-17.61-7.305,4.664,4.664,0,0,0-20.43-8.79l-.135.36A4.342,4.342,0,0,1-18.24-6.615Zm4.17-.585a2.187,2.187,0,0,0,.24.84,1.97,1.97,0,0,0,1.32.87c.435,0,.84-.42,1.95-1.11s3.15-2.04,4.98-2.04c1.935,0,3.105,1.08,3.105,2.76a3.674,3.674,0,0,1-2.49,3.51,13.037,13.037,0,0,1-5.115,1.1l.03.4a12.855,12.855,0,0,0,5.835-.855A4.308,4.308,0,0,0-1.41-5.7c0-1.86-1.41-3.555-4.155-3.555-2.235,0-4.545,1.32-5.955,2.04a2.609,2.609,0,0,1-1.335.465,1.52,1.52,0,0,1-1.005-.585ZM.84-9.21a3.68,3.68,0,0,0,.06.69A1.861,1.861,0,0,0,2.34-7.35a2.518,2.518,0,0,0,.915-.375,31.678,31.678,0,0,1,4.71-1.53c.165-.045.18.045.075.135A6.287,6.287,0,0,0,5.79-4.035,3.58,3.58,0,0,0,7.23-.75a5.7,5.7,0,0,0,3.375.84c.675,0,1.08-.135,1.08-.5,0-.375-.495-.63-.855-.63a5.65,5.65,0,0,1-2.91-.5A2.809,2.809,0,0,1,6.645-4.215c0-3,1.5-4.395,2.175-4.8a5.035,5.035,0,0,1,2.52-.555c.555,0,1.005.045,1.29.045.33,0,.51-.18.51-.39s-.12-.375-.45-.525a3.053,3.053,0,0,0-1.065-.165A20.245,20.245,0,0,0,8.22-9.99c-2.475.57-5.37,1.44-6.15,1.44a1.338,1.338,0,0,1-.945-.75Zm10.62.99a7.586,7.586,0,0,1,1.395,1.2c.315.375.465.72.7.72s.345-.135.345-.39a1.189,1.189,0,0,0-.555-.93,6.023,6.023,0,0,0-1.7-.87Zm-1.335.99a8.486,8.486,0,0,1,1.38,1.305c.3.39.465.735.69.735a.347.347,0,0,0,.36-.39,1.253,1.253,0,0,0-.51-.9,5.7,5.7,0,0,0-1.71-1.005Zm8.52,1.545c0-.72,1.335-1.59,2.34-1.665-.18.75-.42,1.785-.585,2.775C18.99-4.77,18.645-5.235,18.645-5.685Zm5.07-.645c1.4,1.035,2.4,1.98,2.4,3.63A2.627,2.627,0,0,1,23.19-.15c-1.41,0-2.385-.69-2.385-2.19a8.047,8.047,0,0,1,.12-1.215,8.762,8.762,0,0,0,1.725.045c.555-.045.735-.21.735-.465,0-.3-.24-.465-.6-.5-.315-.03-.93.015-1.68-.03.21-1.005.5-2.07.72-2.82a7.6,7.6,0,0,0,.96.03c.375-.015.57-.15.57-.39,0-.255-.195-.51-.675-.555-.18-.015-.36-.03-.555-.03a13.241,13.241,0,0,1,.6-1.59c.18-.375.39-.465.39-.75,0-.4-.9-1.14-1.6-1.14a6.869,6.869,0,0,0-.825.06l-.015.345a3.166,3.166,0,0,1,.8.225c.27.12.375.21.345.585a20.166,20.166,0,0,1-.57,2.205A5.316,5.316,0,0,1,19.575-8.7,3.26,3.26,0,0,1,18.21-9.93l-.255.15A2.388,2.388,0,0,0,18.99-8.265a3.872,3.872,0,0,0,1.095.48c-1.14.57-2.04,1.44-2.04,2.265,0,.87.81,1.56,2.22,1.86a11.319,11.319,0,0,0-.1,1.32A2.839,2.839,0,0,0,23.28.72c2.61,0,3.84-1.7,3.84-3.135,0-1.635-.87-3.015-3.2-4.17ZM-12.96,9.99a5.034,5.034,0,0,1-2.55,3.945l.105.21A5.31,5.31,0,0,0-11.85,9.99H-9.6c-.09,1.6-.21,2.46-.435,2.67a.611.611,0,0,1-.435.105c-.225,0-1.005-.06-1.44-.105v.255a2.64,2.64,0,0,1,1.005.315.779.779,0,0,1,.225.645A2.042,2.042,0,0,0-9.435,13.5c.465-.39.66-1.4.735-3.42.3-.03.465-.09.555-.21L-9.225,9l-.51.54h-5.6l.135.45Zm-4.905,7.425v-2.16h1.29v2.16Zm-2.025-2.16h1.215v2.16h-1.29a20.368,20.368,0,0,0,.075-2.085Zm2.22-4.86a13.694,13.694,0,0,1-.84,2h-1.2l-.615-.285a11.311,11.311,0,0,0,1.05-1.71Zm-2.22,2.43h1.215V14.82H-19.89Zm3.315,0V14.82h-1.29V12.825Zm.315-1.05-.465.615H-18.12a15.431,15.431,0,0,0,1.455-1.92,1.062,1.062,0,0,0,.585-.12l-1.035-.99-.57.585H-19.05c.12-.27.225-.54.33-.81.33.015.51-.12.57-.3L-19.56,8.4a13.915,13.915,0,0,1-2.325,5.04l.195.15a9.067,9.067,0,0,0,.93-.93v2.685c0,2.2-.06,4.635-1.11,6.63l.21.165a7.868,7.868,0,0,0,1.665-4.305h3.42v2.9c0,.225-.075.315-.33.315-.3,0-1.7-.1-1.7-.1v.24a2.643,2.643,0,0,1,1.185.345.8.8,0,0,1,.3.585c1.275-.12,1.44-.57,1.44-1.275V13a1.435,1.435,0,0,0,.645-.3ZM-9.615,18.6h-1.6V16.455h2.61c.21,0,.345-.075.39-.24-.45-.42-1.14-.945-1.14-.945l-.6.75h-1.26V14.49c.33-.045.465-.195.495-.36l-1.44-.165V16.02H-13.86a10.38,10.38,0,0,0,.54-1.245.49.49,0,0,0,.54-.3l-1.32-.39a10.485,10.485,0,0,1-1.425,3.66l.21.15a5.732,5.732,0,0,0,1.2-1.44h1.95V18.6h-3.27l.12.435h3.15v3.1h.18c.345,0,.765-.225.765-.345v-2.76h3.03c.21,0,.36-.075.405-.24-.45-.435-1.2-1.005-1.2-1.005ZM-4.29,8.415A22.41,22.41,0,0,1-5.4,11.28a4.7,4.7,0,0,0-1.155-.48l-.15.135a4.983,4.983,0,0,1,1.575,2.04c.72.48,1.26-.585.06-1.485A16.915,16.915,0,0,0-3.39,9.21a.507.507,0,0,0,.54-.255ZM-6.75,20.88a10.971,10.971,0,0,0,1.71-3.57c.33-.015.48-.15.54-.33l-1.35-.36a16.908,16.908,0,0,1-1.125,4.125Zm4.02-4.23a8.272,8.272,0,0,1,1.02,2.88c.9.825,1.815-1.155-.81-2.94Zm-.21-3.255a11.04,11.04,0,0,1,.75,1.155c-.93.075-1.815.15-2.58.21a27.816,27.816,0,0,0,2.925-3.8.546.546,0,0,0,.585-.255l-1.41-.555A34.115,34.115,0,0,1-5.25,14.79c-.69.045-1.245.075-1.605.075l.315,1.125a.489.489,0,0,0,.39-.3c.69-.12,1.335-.24,1.92-.36v6.825h.15c.465,0,.8-.24.8-.33v-6.69q.675-.135,1.26-.27a5.141,5.141,0,0,1,.39,1.14C-.7,16.74.12,14.79-2.76,13.29Zm8.58-2.43-.585.66H.87A22.506,22.506,0,0,0,1.8,9.24a.52.52,0,0,0,.54-.3L.81,8.49A20.227,20.227,0,0,1-1.17,14.3l.225.15a11.331,11.331,0,0,0,1.605-2.4H5.22c-.135,4.395-.42,8.01-1.005,8.565a.771.771,0,0,1-.645.225c-.375,0-1.71-.135-2.505-.225l-.015.27a6.43,6.43,0,0,1,1.785.5.832.832,0,0,1,.3.75,2.333,2.333,0,0,0,1.845-.72c.75-.885,1.08-4.5,1.2-9.225a.92.92,0,0,0,.63-.24ZM.615,14.175a6.61,6.61,0,0,1,1.56,3.18c1.035.885,2-1.56-1.395-3.27ZM10.83,17.04V13.065h3.675V17.04ZM14.9,12.03l-.525.6H10.905l-1.02-.465v7.05h.165c.4,0,.78-.225.78-.315V17.49h3.675v1.155h.135a1.342,1.342,0,0,0,.84-.33v-5.07a1.233,1.233,0,0,0,.63-.3Zm4.8-2.445H8.13l.12.45H18.54V20.55c0,.27-.1.39-.435.39-.4,0-2.49-.15-2.49-.15v.225a4.438,4.438,0,0,1,1.68.42.865.865,0,0,1,.42.72c1.6-.15,1.8-.75,1.8-1.545V10.035H21.5c.21,0,.345-.075.375-.24-.525-.51-1.395-1.17-1.395-1.17Z" transform="translate(49.923 47)" fill="#3c505a"/>
    </g>
    <g id="Group_70" data-name="Group 70" transform="translate(-131.962 91)">
      <ellipse id="Ellipse_13" data-name="Ellipse 13" cx="52" cy="52.5" rx="52" ry="52.5" transform="translate(-0.039)" fill="#fffa96"/>
      <path id="Path_293" data-name="Path 293" d="M-16.658-18.07a6.807,6.807,0,0,1,1.69-.208c2.288,0,3.588,1.326,3.588,3.692,0,2.522-1.664,3.978-4.264,3.978h-1.118v1.17h1.326c3.068,0,4.576,1.69,4.576,4.342a4.115,4.115,0,0,1-4.394,4.42,6.075,6.075,0,0,1-1.872-.286l-.494-1.612c-.338-1.144-.624-1.664-1.4-1.664a1.318,1.318,0,0,0-1.222.806c.572,2.652,2.626,3.8,5.3,3.8,3.666,0,6.188-2.262,6.188-5.356,0-2.6-1.482-4.472-4.5-5.018,2.5-.78,3.9-2.548,3.9-4.706,0-2.782-2.028-4.628-5.226-4.628-2.47,0-4.628,1.118-5.2,3.51a1.194,1.194,0,0,0,1.222.91c.832,0,1.144-.468,1.4-1.534ZM-4.1-9.646c0-6.734,1.794-8.632,3.666-8.632,1.82,0,3.588,1.9,3.588,8.632,0,7.046-1.768,8.97-3.588,8.97C-2.306-.676-4.1-2.574-4.1-9.646Zm3.666-9.7c-2.964,0-5.824,2.652-5.824,9.7C-6.258-2.288-3.4.364-.434.364,2.5.364,5.312-2.288,5.312-9.646,5.312-16.692,2.5-19.344-.434-19.344ZM10.262.416l8.144-11.728-.432-.352L9.814.064ZM8.9-7.9c0-2.5.64-3.088,1.28-3.088.672,0,1.28.608,1.28,3.088,0,2.5-.608,3.1-1.28,3.1C9.542-4.8,8.9-5.408,8.9-7.9Zm1.28-3.6c-1.2,0-2.384,1.056-2.384,3.6,0,2.56,1.184,3.616,2.384,3.616S12.55-5.344,12.55-7.9C12.55-10.448,11.382-11.5,10.182-11.5Zm6.4,8.064c0-2.512.656-3.1,1.3-3.1.656,0,1.264.608,1.264,3.1,0,2.48-.608,3.088-1.264,3.088C17.238-.352,16.582-.96,16.582-3.44Zm1.3-3.6c-1.2,0-2.384,1.04-2.384,3.6S16.678.16,17.878.16s2.368-1.04,2.368-3.6S19.078-7.04,17.878-7.04ZM-13.5,19.16c0-2.752,1.184-5.376,3.712-5.376,2.5,0,3.68,2.624,3.68,5.376,0,2.768-1.184,5.392-3.68,5.392C-12.32,24.552-13.5,21.928-13.5,19.16Zm3.712-6.1c-2.736,0-5.28,2.32-5.28,6.1,0,3.9,2.528,6.1,5.28,6.1,2.72,0,5.232-2.3,5.232-6.1C-4.56,15.256-7.072,13.064-9.792,13.064Zm14.08.976.416,2.3h.8l-.128-3.008h-8.56v.56l1.664.176c.048,1.536.048,3.1.048,4.656v.88c0,1.568,0,3.12-.048,4.64l-1.664.176V25h4.8v-.576L-.1,24.248c-.048-1.536-.048-3.1-.048-4.864h2.9l.224,1.824h.672V17.016H2.976l-.208,1.728H-.144c0-1.632,0-3.2.048-4.7Zm9.9,0,.416,2.3h.8l-.128-3.008H6.72v.56l1.664.176c.048,1.536.048,3.1.048,4.656v.88c0,1.568,0,3.12-.048,4.64l-1.664.176V25h4.8v-.576l-1.712-.176c-.048-1.536-.048-3.1-.048-4.864h2.9l.224,1.824h.672V17.016H12.88l-.208,1.728H9.76c0-1.632,0-3.2.048-4.7Z" transform="translate(51.961 51)" fill="#3c505a"/>
    </g>
  </g>
</svg>
