<svg xmlns="http://www.w3.org/2000/svg" xmlns:xlink="http://www.w3.org/1999/xlink" width="368" height="120" viewBox="0 0 368 120">
  <defs>
    <linearGradient id="linear-gradient" x1="0.698" x2="0.696" y2="0.958" gradientUnits="objectBoundingBox">
      <stop offset="0" stop-color="#ff8325"/>
      <stop offset="0.513" stop-color="#ff4f25"/>
      <stop offset="1" stop-color="#ff2c25"/>
    </linearGradient>
    <filter id="Rectangle_166" x="0" y="0" width="368" height="120" filterUnits="userSpaceOnUse">
      <feOffset dy="3" input="SourceAlpha"/>
      <feGaussianBlur stdDeviation="5" result="blur"/>
      <feFlood flood-color="#e74d13" flood-opacity="0.62"/>
      <feComposite operator="in" in2="blur"/>
      <feComposite in="SourceGraphic"/>
    </filter>
  </defs>
  <g id="Group_260" data-name="Group 260" transform="translate(4378 16722)">
    <g transform="matrix(1, 0, 0, 1, -4378, -16722)" filter="url(#Rectangle_166)">
      <rect id="Rectangle_166-2" data-name="Rectangle 166" width="338" height="90" rx="45" transform="translate(15 12)" fill="url(#linear-gradient)"/>
    </g>
    <path id="Path_164" data-name="Path 164" d="M-96.6-8.79l-3.96-.36a21.921,21.921,0,0,0-.57,4.32c0,4.14,3.45,6.45,10.32,6.45A46,46,0,0,0-80.4.57l-.03-4.2A42.733,42.733,0,0,1-90.96-2.46c-4.32,0-6.15-1.35-6.15-3.3A11.243,11.243,0,0,1-96.6-8.79ZM-81.48-24.6l-2.37.96a22.137,22.137,0,0,1,1.29,2.13c-2.31.21-5.55.39-8.4.39a70.385,70.385,0,0,1-8.16-.39v3.99c2.43.18,5.04.33,8.19.33,2.85,0,6.57-.21,8.67-.36v-3.36c.27.51.54,1.02.75,1.47l2.43-1.05A44.3,44.3,0,0,0-81.48-24.6Zm3.57-1.35-2.4.96a31.808,31.808,0,0,1,2.43,4.14l2.4-1.02A42.834,42.834,0,0,0-77.91-25.95Zm11.25,7.23h-2.97v-2.76h2.97Zm0,5.46h-2.97v-2.79h2.97Zm0,5.46h-2.97v-2.82h2.97Zm3.12-16.5h-9.12V-4.95h9.12ZM-71.22-4.74A14.231,14.231,0,0,1-74.31.93a18.266,18.266,0,0,1,2.64,1.74A19.86,19.86,0,0,0-68.1-4.05Zm3.51,1.05a26,26,0,0,1,2.46,5.07L-62.49.03A27.368,27.368,0,0,0-65.07-4.8Zm14.67-1.02v-1.5h2.34v1.5Zm-5.37-1.5h2.28v1.5h-2.28Zm2.28-3.57V-8.4h-2.28V-9.78Zm5.43,0V-8.4h-2.34V-9.78Zm-5.43-7.32h3.06v1.17h-3.06Zm0-3.48h3.06v1.11h-3.06ZM-46.08-4.71h-1.38v-7.56h-5.58v-1.14h6.93v-2.52h-3.78V-17.1h2.76v-2.37h-2.76v-1.11h3.24V-23.1h-3.24v-2.28h-3.18v2.28h-3.06v-2.28h-3.12v2.28h-3.24v2.52h3.24v1.11H-61.8v2.37h2.55v1.17H-63v2.52h6.87v1.14h-5.4v7.56h-1.62v2.49h1.62V2.64h3.12V-2.22h7.71V-.66c0,.33-.12.45-.51.45-.36,0-1.65,0-2.82-.03a10.933,10.933,0,0,1,.93,2.85,10.724,10.724,0,0,0,4.35-.51c.99-.48,1.29-1.23,1.29-2.73V-2.22h1.38Zm8.01-19.02v3.63h6.84c.09,1.02.21,2.1.42,3.24l-1.83-.33C-34.29-9.3-37.86-3.51-44.1-.36a28.494,28.494,0,0,1,3.27,2.91c5.22-3.12,8.82-8.1,11.07-14.82A25.348,25.348,0,0,0-18.72,2.52,19.207,19.207,0,0,1-15.84-.6C-26.88-7.11-27.69-18.06-27.69-23.73ZM-.78-3.9c0-1.14,1.14-1.86,2.85-1.86a9.262,9.262,0,0,1,2.4.33v.54c0,1.77-.63,2.73-2.46,2.73C.42-2.16-.78-2.67-.78-3.9ZM8.13-23.49H3.84a12.739,12.739,0,0,1,.21,1.98c0,.63.03,1.86.03,3.33-.69.03-1.41.03-2.1.03a49.988,49.988,0,0,1-5.25-.27v3.57c1.77.12,3.48.18,5.25.18.69,0,1.41,0,2.13-.03.03,2.13.15,4.32.21,6.18a13.346,13.346,0,0,0-1.95-.12c-4.08,0-6.66,2.1-6.66,5.13,0,3.15,2.58,4.89,6.72,4.89,4.05,0,5.67-2.04,5.85-4.92A31.467,31.467,0,0,1,11.94-.51l2.07-3.15A19.634,19.634,0,0,0,8.19-7.53c-.12-2.04-.27-4.44-.33-7.35,1.65-.12,3.21-.3,4.65-.51v-3.75a41.1,41.1,0,0,1-4.65.69c.03-1.32.06-2.43.09-3.09A18.787,18.787,0,0,1,8.13-23.49Zm-14.64.33-4.14-.36a28.618,28.618,0,0,1-.3,2.94A95.007,95.007,0,0,0-12.18-8.07a35.236,35.236,0,0,0,1.2,9.6l3.39-.27C-7.62.84-7.65.33-7.65.03A8.372,8.372,0,0,1-7.5-1.38C-7.14-3-6.18-6.06-5.34-8.52l-1.83-1.5C-7.62-9-8.13-7.98-8.52-6.93a14.18,14.18,0,0,1-.12-1.95A80.083,80.083,0,0,1-7.2-20.49,19.479,19.479,0,0,1-6.51-23.16Zm28.05,1.35v3.96c2.43.21,5.04.33,8.19.33,2.85,0,6.57-.18,8.67-.36v-3.99c-2.31.24-5.73.42-8.7.42A78.7,78.7,0,0,1,21.54-21.81ZM24.06-9.09l-3.93-.36a19.407,19.407,0,0,0-.6,4.32c0,4.11,3.45,6.42,10.32,6.42A46.229,46.229,0,0,0,40.26.27l-.03-4.23A41.192,41.192,0,0,1,29.7-2.76c-4.32,0-6.15-1.38-6.15-3.3A11.054,11.054,0,0,1,24.06-9.09ZM58.59-23.91l-4.26-.18a13.6,13.6,0,0,1-.15,3.03c-.06.36-.12.78-.18,1.23a42.878,42.878,0,0,1-5.88-.57v3.72c1.53.15,3.3.24,5.19.27A48.006,48.006,0,0,1,49.89-6.33l3.54,1.26a11.088,11.088,0,0,1,.84-1.32A10.381,10.381,0,0,1,62.58-9.9c2.94,0,4.47,1.5,4.47,3.3,0,4.41-6.63,5.22-13.2,4.14L54.9,1.41C64.59,2.46,71.1.03,71.1-6.72c0-3.84-3.21-6.42-8.07-6.42a14.618,14.618,0,0,0-7.44,1.89c.45-1.47.93-3.39,1.35-5.22,4.02-.21,8.79-.78,11.91-1.29l-.06-3.57a73.456,73.456,0,0,1-11.1,1.41c.06-.33.12-.66.18-.93C58.08-21.84,58.26-22.86,58.59-23.91Zm26.43-.24-.96,3.6c2.34.6,9.03,2.01,12.06,2.4l.9-3.66A91.823,91.823,0,0,1,85.02-24.15Zm.18,6.03-4.02-.57a110.676,110.676,0,0,1-1.5,12.54l3.45.87a7.268,7.268,0,0,1,1.11-1.74,10.68,10.68,0,0,1,8.34-3.54c2.61,0,4.47,1.44,4.47,3.39,0,3.81-4.77,6-13.77,4.77l1.14,3.93c12.48,1.05,16.8-3.15,16.8-8.61,0-3.63-3.06-6.87-8.31-6.87a14.685,14.685,0,0,0-8.85,2.85C84.27-12.81,84.81-16.47,85.2-18.12Z" transform="translate(-4194 -16652)" fill="#fff"/>
    <path id="Polygon_16" data-name="Polygon 16" d="M6.5,0,13,8H0Z" transform="translate(-4059 -16671) rotate(90)" fill="#fff"/>
  </g>
</svg>
