<svg xmlns="http://www.w3.org/2000/svg" width="300" height="181.539" viewBox="0 0 300 181.539">
  <g id="Group_206" data-name="Group 206" transform="translate(-3835.96 16238.72)">
    <g id="Union_3" data-name="Union 3" transform="translate(1733 -16531)" fill="#fff">
      <path d="M 2402.45947265625 473.3185119628906 L 2103.4599609375 473.3185119628906 L 2103.4599609375 309.2108154296875 L 2136.411865234375 309.2108154296875 L 2136.6533203125 309.2108154296875 L 2136.803466796875 309.021728515625 L 2149.460205078125 293.08349609375 L 2162.116943359375 309.021728515625 L 2162.26708984375 309.2108154296875 L 2162.508544921875 309.2108154296875 L 2402.45947265625 309.2108154296875 L 2402.45947265625 473.3185119628906 Z" stroke="none"/>
      <path d="M 2401.95947265625 472.8185119628906 L 2401.95947265625 309.7108154296875 L 2162.025634765625 309.7108154296875 L 2149.460205078125 293.8875427246094 L 2136.894775390625 309.7108154296875 L 2103.9599609375 309.7108154296875 L 2103.9599609375 472.8185119628906 L 2401.95947265625 472.8185119628906 M 2402.95947265625 473.8185119628906 L 2102.9599609375 473.8185119628906 L 2102.9599609375 308.7108154296875 L 2136.411865234375 308.7108154296875 L 2149.460205078125 292.2795104980469 L 2162.508544921875 308.7108154296875 L 2402.95947265625 308.7108154296875 L 2402.95947265625 473.8185119628906 Z" stroke="none" fill="#a9a9a9"/>
    </g>
    <g id="Group_404" data-name="Group 404" transform="translate(-3.223 -10.73)">
      <path id="Path_174" data-name="Path 174" d="M1.6,19H3.088V14.024H5.2L8.048,19h1.68L6.72,13.864a3.181,3.181,0,0,0,2.656-3.3c0-2.448-1.712-3.312-4.1-3.312H1.6Zm1.488-6.176V8.472H5.056c1.84,0,2.848.544,2.848,2.1,0,1.52-1.008,2.256-2.848,2.256ZM11.776,19H18.72V17.736H13.264V13.464h4.448V12.2H13.264V8.52h5.28V7.256H11.776Zm9.408,0h3.744c2.624,0,4.448-1.136,4.448-3.44a2.706,2.706,0,0,0-2.384-2.8v-.08A2.562,2.562,0,0,0,28.7,10.136c0-2.064-1.648-2.88-4.032-2.88H21.184Zm1.488-6.736V8.44H24.48c1.824,0,2.768.512,2.768,1.888,0,1.184-.816,1.936-2.832,1.936Zm0,5.552V13.384H24.72c2.048,0,3.2.672,3.2,2.128,0,1.584-1.184,2.3-3.2,2.3Zm13.36,1.392c2.944,0,5.008-2.352,5.008-6.112s-2.064-6.048-5.008-6.048S31.024,9.336,31.024,13.1,33.088,19.208,36.032,19.208Zm0-1.3c-2.112,0-3.488-1.888-3.488-4.816,0-2.944,1.376-4.752,3.488-4.752,2.1,0,3.488,1.808,3.488,4.752C39.52,16.024,38.128,17.912,36.032,17.912ZM43.568,19h1.488V14.024h2.112L50.016,19H51.7l-3.008-5.136a3.181,3.181,0,0,0,2.656-3.3c0-2.448-1.712-3.312-4.1-3.312h-3.68Zm1.488-6.176V8.472h1.968c1.84,0,2.848.544,2.848,2.1,0,1.52-1.008,2.256-2.848,2.256ZM53.744,19h1.408V12.84c0-1.232-.112-2.48-.176-3.664h.064L56.3,11.592,60.576,19H62.1V7.256H60.688v6.112c0,1.216.112,2.528.192,3.712H60.8l-1.248-2.416L55.28,7.256H53.744Zm13.584-6.56c.416-1.328.8-2.592,1.168-3.968h.064c.384,1.36.752,2.64,1.184,3.968l.56,1.792H66.752ZM63.744,19h1.5l1.136-3.584h4.288L71.792,19H73.36L69.376,7.256H67.728Zm24.192-5.6a5.8,5.8,0,0,0-6.128-5.888,6.82,6.82,0,0,0-6.992,6.512c0,2.64,1.424,4.272,2.848,4.272,1.488,0,2.752-1.68,3.728-4.976a31.474,31.474,0,0,0,.96-4.608,4.456,4.456,0,0,1,4.272,4.64A4.832,4.832,0,0,1,82.56,18.1a12.086,12.086,0,0,1-1.376.208l.752,1.184C85.728,19,87.936,16.76,87.936,13.4Zm-11.872.512a5.581,5.581,0,0,1,4.96-5.184,26.141,26.141,0,0,1-.9,4.32c-.816,2.7-1.664,3.776-2.416,3.776C76.992,16.824,76.064,15.928,76.064,13.912ZM91.936,8.568h10.9V10.9h1.216V7.448H98V5.624H96.768V7.448h-6V10.9h1.168ZM98,15.368h4.736v-1.1H98V11.608h4.08v-1.12H92.816v1.12h3.968v6.7a4.805,4.805,0,0,1-2.944-3.088,20.2,20.2,0,0,0,.384-2.128l-1.216-.112c-.352,2.864-1.216,5.136-2.992,6.512a6.211,6.211,0,0,1,.976.8,8.765,8.765,0,0,0,2.384-3.568c1.456,2.7,3.84,3.28,7.152,3.28h3.712a3.506,3.506,0,0,1,.448-1.2c-.768.016-3.52.016-4.1.016A14.606,14.606,0,0,1,98,18.632Zm10.72-1.68h2.9v1.6h-2.9Zm2.9-4.9V10.2h-2.9V8.792Zm-2.9,2.368h2.9v1.568h-2.9Zm5.168,4.128H112.72v-6.5h1.168V7.72H112.72V5.8h-1.1V7.72h-2.9V5.8h-1.088V7.72h-1.344V8.792h1.344v6.5H106.08V16.36h7.808Zm-5.6,1.408a8.347,8.347,0,0,1-2.192,2.848,7.356,7.356,0,0,1,.96.688A10.576,10.576,0,0,0,109.424,17Zm2.272.5a12.561,12.561,0,0,1,1.648,2.432l.96-.56a11.853,11.853,0,0,0-1.68-2.368Zm5.2-3.424c.016-.544.032-1.088.032-1.584V11.112h3.264v2.656Zm3.3-6.272V10.04h-3.264V7.5Zm1.152-1.088h-5.536v5.776c0,2.288-.128,5.328-1.456,7.44a3.049,3.049,0,0,1,.944.688,12.526,12.526,0,0,0,1.52-5.472h3.376v3.84c0,.256-.1.336-.336.336-.224.016-1.024.016-1.872,0a4.837,4.837,0,0,1,.368,1.152,7.092,7.092,0,0,0,2.384-.224c.432-.192.608-.544.608-1.248Zm6,2.832h-2.384V7.208h2.384Zm0,2.976h-2.384V10.168h2.384Zm0,3.024h-2.384V13.16h2.384Zm1.072-9.024h-4.5v10h4.5Zm-3.712,10.336a7.018,7.018,0,0,1-1.6,3.04,8.05,8.05,0,0,1,.9.64,9.581,9.581,0,0,0,1.776-3.44Zm2,.384a13.326,13.326,0,0,1,1.28,2.512l.944-.448a13.462,13.462,0,0,0-1.328-2.464Zm7.056-.256v-1.2h2.048v1.2Zm-3.008-1.2h1.952v1.2h-1.952Zm1.952-1.968v1.136h-1.952V13.512Zm3.1,0v1.136h-2.048V13.512Zm-3.744-3.776H133.3v1.056h-2.368Zm0-1.84H133.3v.96h-2.368Zm5.792,8.784h-.96V12.616h-3.136v-.928h4.032v-.9h-2.288V9.736h1.7v-.88h-1.7V7.9h1.952V7h-1.952V5.624H133.3V7h-2.368V5.624h-1.056V7h-1.936v.9h1.936v.96h-1.52v.88h1.52v1.056h-2.3v.9h4v.928h-3.024V16.68H127.5v.912h1.04v2.64h1.072v-2.64h5.056v1.392c0,.208-.08.256-.272.272-.224,0-.992,0-1.824-.016a3.821,3.821,0,0,1,.336.96,8.277,8.277,0,0,0,2.32-.16c.4-.176.528-.48.528-1.056V17.592h.96Zm4.368-10.1V7.768h3.936c.032.608.1,1.312.208,2.048l-.7-.112c-.976,4.48-2.944,7.7-6.48,9.536a7.787,7.787,0,0,1,1.072.944c3.184-1.872,5.2-4.784,6.384-8.928a13.807,13.807,0,0,0,6.352,8.912,5.654,5.654,0,0,1,.96-.992c-6.272-3.728-6.64-9.76-6.64-12.592Zm19.456,10.5c0-.784.848-1.3,2.048-1.3a5.445,5.445,0,0,1,1.632.256c.016.208.016.4.016.56,0,1.056-.4,1.744-1.744,1.744C161.344,18.344,160.544,17.9,160.544,17.08Zm4.848-10.4h-1.44c.032.272.064.7.064.976V9.64c-.5.016-1.008.032-1.5.032-.96,0-1.808-.048-2.72-.128v1.2c.944.064,1.776.112,2.688.112.512,0,1.024-.016,1.536-.032.016,1.312.112,2.88.16,4.112a7.338,7.338,0,0,0-1.488-.144c-2.1,0-3.3,1.072-3.3,2.416,0,1.44,1.184,2.288,3.328,2.288,2.16,0,2.768-1.264,2.768-2.576v-.336A13.017,13.017,0,0,1,167.9,18.44l.7-1.072A10.546,10.546,0,0,0,165.44,15.3c-.064-1.344-.176-2.944-.192-4.56.96-.064,1.888-.16,2.768-.3V9.208a27.018,27.018,0,0,1-2.768.368c.016-.752.032-1.5.048-1.936Q165.32,7.16,165.392,6.68Zm-7.9.1-1.408-.112a9.6,9.6,0,0,1-.1,1.136,47.606,47.606,0,0,0-.736,6.736,19.326,19.326,0,0,0,.608,5.056l1.12-.08c-.016-.176-.032-.4-.032-.56a2.866,2.866,0,0,1,.064-.72c.16-.784.752-2.416,1.136-3.536l-.656-.512c-.272.656-.656,1.632-.912,2.352a15.009,15.009,0,0,1-.16-2.224,39.672,39.672,0,0,1,.8-6.448A8.319,8.319,0,0,1,157.488,6.776Zm15.488,1.056L171.424,7.8a7.218,7.218,0,0,1,.112,1.424c0,.928.032,2.88.176,4.272.432,4.144,1.888,5.648,3.408,5.648,1.072,0,2.048-.928,3.008-3.648L177.12,14.36c-.416,1.6-1.168,3.264-1.984,3.264-1.136,0-1.92-1.776-2.176-4.448-.112-1.328-.128-2.784-.112-3.792A12.183,12.183,0,0,1,172.976,7.832Zm8.336.448-1.248.432c1.536,1.872,2.5,5.152,2.784,8.048l1.28-.528A17.2,17.2,0,0,0,181.312,8.28Zm5.264,2.368.592,1.408c1.264-.512,5.344-2.256,7.968-2.256,2.16,0,3.408,1.312,3.408,2.992,0,3.28-3.744,4.544-7.936,4.656l.576,1.328c4.928-.272,8.752-2.128,8.752-5.952,0-2.688-2.112-4.224-4.768-4.224-2.336,0-5.472,1.152-6.832,1.584A15.963,15.963,0,0,1,186.576,10.648Zm16.1-2.176.144,1.392c1.728-.368,5.808-.752,7.52-.944a6.5,6.5,0,0,0-2.992,5.408c0,3.568,3.376,5.152,6.336,5.264l.464-1.328c-2.608-.1-5.52-1.088-5.52-4.208a5.631,5.631,0,0,1,3.664-5.072,13.4,13.4,0,0,1,3.136-.256V7.448c-1.072.048-2.576.144-4.32.288-2.944.24-5.968.544-7.008.656C203.792,8.424,203.28,8.456,202.672,8.472ZM213.12,10.7l-.816.352a14.852,14.852,0,0,1,1.312,2.256l.816-.384A18.991,18.991,0,0,0,213.12,10.7Zm1.744-.672-.784.368a14.83,14.83,0,0,1,1.344,2.24l.832-.4A21.133,21.133,0,0,0,214.864,10.024Zm9.632-3.6-1.44-.1a5.487,5.487,0,0,1-.016,1.136c-.032.464-.1,1.04-.176,1.68a15.865,15.865,0,0,1-3.5-.592L219.3,9.72a22.067,22.067,0,0,0,3.44.56c-.128.944-.256,1.952-.352,2.9a14.279,14.279,0,0,1-3.408-.656l-.064,1.232a15.813,15.813,0,0,0,3.344.576c-.08.752-.128,1.392-.128,1.84,0,2.624,1.744,3.568,3.92,3.568,3.168,0,5.28-1.44,5.28-3.824a5.251,5.251,0,0,0-1.632-3.7l-1.408.288a4.438,4.438,0,0,1,1.744,3.264c0,1.648-1.552,2.72-3.984,2.72-1.824,0-2.688-.96-2.688-2.512,0-.384.032-.944.1-1.584h.576a28.982,28.982,0,0,0,3.136-.16l.032-1.216a23.531,23.531,0,0,1-3.328.208h-.3c.112-.944.24-1.952.352-2.9h.112c1.3,0,2.224-.048,3.248-.144l.032-1.2a21.576,21.576,0,0,1-3.248.208c.1-.672.176-1.232.224-1.648A8.928,8.928,0,0,1,224.5,6.424ZM5.088,39.112V37.24h1.44v1.872Zm-2.3-1.872h1.44v1.872H2.752c.032-.432.032-.864.032-1.248Zm2.4-5.264a14.443,14.443,0,0,1-.7,1.664H2.64a17.9,17.9,0,0,0,.8-1.664Zm-.1,2.608h1.44v1.76H5.088Zm-2.3,0h1.44v1.76H2.784Zm11.024-3.152c-.1,1.856-.24,2.592-.416,2.8-.112.144-.24.16-.448.144a14.35,14.35,0,0,1-1.44-.064,3.05,3.05,0,0,1,.272.992,14.565,14.565,0,0,0,1.648.016,1.089,1.089,0,0,0,.864-.4c.352-.384.48-1.408.608-4.048.016-.144.016-.448.016-.448H8v1.008h2.16a4.378,4.378,0,0,1-2.624,3.5v-1.3h-2a20.913,20.913,0,0,0,1.008-2.208l-.7-.448-.176.048H3.792c.128-.384.256-.784.368-1.184l-1.1-.24a11.739,11.739,0,0,1-2.5,5.056,5.877,5.877,0,0,1,.9.72,5.079,5.079,0,0,0,.336-.432v2.912c0,1.792-.112,4.16-1.184,5.84a3.5,3.5,0,0,1,.848.544A9.574,9.574,0,0,0,2.688,40.04h3.84v2.88c0,.208-.08.272-.3.288-.208.016-.928.016-1.76-.016A3.722,3.722,0,0,1,4.848,44.2a6.167,6.167,0,0,0,2.144-.192c.416-.176.544-.512.544-1.088V34.952a3.065,3.065,0,0,1,.64.8,5.273,5.273,0,0,0,3.072-4.32Zm1.536,8.688H12.3V38.152h2.768V37.128H12.3V35.5H11.168v1.632H9.776c.128-.416.24-.848.336-1.28L9.1,35.64a9.1,9.1,0,0,1-1.472,3.584,7.118,7.118,0,0,1,.928.5,7.992,7.992,0,0,0,.832-1.568h1.776V40.12H7.808v1.024h3.36v2.992H12.3V41.144h3.04Zm2.16-1.44a11.5,11.5,0,0,1-1.04,3.808,4.156,4.156,0,0,1,.928.448,14.081,14.081,0,0,0,1.136-4.064Zm3.472.224A15.935,15.935,0,0,1,22,42.008l.944-.32a13.86,13.86,0,0,0-1.072-3.072Zm-.4-3.792a14.961,14.961,0,0,1,.784,1.424c-.88.032-1.76.08-2.56.112a51.676,51.676,0,0,0,3.312-4.768l-1.024-.448c-.448.864-1.056,1.9-1.712,2.912a11.26,11.26,0,0,0-.976-1.1,28.79,28.79,0,0,0,1.824-3.216l-1.056-.4A21.839,21.839,0,0,1,17.744,32.6c-.16-.144-.32-.288-.48-.416l-.608.784a14.535,14.535,0,0,1,2.1,2.288A15.712,15.712,0,0,1,17.68,36.68c-.368.016-.736.032-1.056.032l.1,1.072,2.608-.128v6.592H20.4V37.592l1.392-.08a5.521,5.521,0,0,1,.3.912l.944-.448a13.677,13.677,0,0,0-1.584-3.248Zm10.4-2.624H25.1a20.323,20.323,0,0,0,.976-2.608l-1.2-.272a14.067,14.067,0,0,1-2.848,5.536,8.436,8.436,0,0,1,1.04.7,12.665,12.665,0,0,0,1.488-2.24h5.248c-.24,6.24-.512,8.672-1.04,9.216a.785.785,0,0,1-.688.24c-.4,0-1.376,0-2.448-.1a2.722,2.722,0,0,1,.384,1.168,18.717,18.717,0,0,0,2.464.032,1.646,1.646,0,0,0,1.328-.64c.656-.784.88-3.264,1.168-10.432Zm-3.584,7.1a16.178,16.178,0,0,0-2.24-3.648l-.96.464a17.132,17.132,0,0,1,2.16,3.728ZM40,35.224a1.7,1.7,0,1,0,1.7,1.7A1.687,1.687,0,0,0,40,35.224Zm12.72-5.5a16.442,16.442,0,0,1-4.336,6.416,6.809,6.809,0,0,1,.72,1.2,16.233,16.233,0,0,0,1.888-2.112V44.2H52.16V33.512A23.77,23.77,0,0,0,53.9,30.088Zm10.48,5.1V33.672H58.576v-3.84H57.408v3.84h-4.5v1.152h3.872a16.254,16.254,0,0,1-4.432,6.544,6.9,6.9,0,0,1,.9.912,17.865,17.865,0,0,0,4.16-6.16v8.112h1.168V35.784a19.424,19.424,0,0,0,4.144,6.432,4.262,4.262,0,0,1,.9-.96,16.882,16.882,0,0,1-4.352-6.432Zm10.016,7.44V36.136H78.4V34.968H73.216v-5.3H71.984V42.264H68.272V33.128H67.056v9.136H64.848v1.168H79.12V42.264Zm13.568-11.7-1.472-.144a17.863,17.863,0,0,1-.416,3.488c-.976.08-1.9.16-2.432.176-.512.016-.928.016-1.44,0l.144,1.376c.4-.064,1.072-.144,1.44-.192.416-.048,1.184-.128,2.032-.208a25.379,25.379,0,0,1-3.376,7.968l1.3.528a32.655,32.655,0,0,0,3.376-8.624c.688-.064,1.328-.112,1.712-.112,1.024,0,1.7.272,1.7,1.728a13.518,13.518,0,0,1-.752,4.9,1.334,1.334,0,0,1-1.408.832,7.79,7.79,0,0,1-1.952-.336l.208,1.344a9.693,9.693,0,0,0,1.888.224,2.252,2.252,0,0,0,2.336-1.328,15.52,15.52,0,0,0,.928-5.776c0-2.176-1.168-2.72-2.608-2.72-.384,0-1.04.048-1.792.112.176-.864.32-1.808.416-2.272C86.656,31.208,86.72,30.872,86.784,30.568Zm5.5,1.856-1.168.528A18.771,18.771,0,0,1,93.984,38.7l1.232-.592A27.3,27.3,0,0,0,92.288,32.424Zm.192-2.32-.864.352a19.585,19.585,0,0,1,1.3,2.224l.88-.384A22.675,22.675,0,0,0,92.48,30.1Zm1.76-.656-.848.368a17.94,17.94,0,0,1,1.328,2.208l.864-.384A23.092,23.092,0,0,0,94.24,29.448Zm5.6,12.784V39.864h8.528v2.368Zm8.528-5.808v2.32H99.84v-2.32Zm0-3.5V35.3H99.84V32.92Zm-4.512-1.136c.272-.608.56-1.328.8-2.016l-1.36-.176a20.165,20.165,0,0,1-.624,2.192H98.656V44.248H99.84v-.9h8.528v.816H109.6V31.784Zm16.688,10.288V38.52h4.4v3.552Zm-5.488-3.552h4.3v3.552h-4.3Zm4.3-4.624v3.456h-4.3V33.9Zm5.584,0v3.456h-4.4V33.9Zm-4.4-1.184V29.64H119.36v3.072h-5.488v11.52h1.184V43.24h9.888v.912h1.2V32.712ZM131.1,39.1a2.44,2.44,0,1,0,2.448,2.432A2.441,2.441,0,0,0,131.1,39.1Zm0,4.064a1.624,1.624,0,1,1,1.632-1.632A1.625,1.625,0,0,1,131.1,43.16Z" transform="translate(3879.96 -16200.273)" fill="#3c505a"/>
      <g id="Icon_feather-check-square" data-name="Icon feather-check-square" transform="translate(3845.183 -16200.604)">
        <path id="Path_125" data-name="Path 125" d="M13.5,13.654l3.28,3.28L27.714,6" transform="translate(-3.43 -2.668)" fill="none" stroke="#ffbe00" stroke-linecap="round" stroke-linejoin="round" stroke-width="2"/>
        <path id="Path_126" data-name="Path 126" d="M21.209,12.855v6.5a1.857,1.857,0,0,1-1.857,1.857h-13A1.857,1.857,0,0,1,4.5,19.353v-13A1.857,1.857,0,0,1,6.357,4.5H16.568" transform="translate(0 -0.445)" fill="none" stroke="#a9a9a9" stroke-linecap="round" stroke-linejoin="round" stroke-width="2"/>
      </g>
    </g>
    <g id="Group_405" data-name="Group 405" transform="translate(-3.223 47.27)">
      <path id="Path_173" data-name="Path 173" d="M.768,12.12v1.3H15.3v-1.3ZM31.04,8.28V7.192H25.072V5.624H23.856V7.192H17.984v4.576c0,2.3-.112,5.536-1.424,7.808a4.6,4.6,0,0,1,.976.672c1.376-2.416,1.568-6.016,1.568-8.48V8.28ZM27.2,11.048v1.68H23.328v-1.68Zm1.152,2.64v-2.64h2.576v-.976H28.352V8.68H27.2v1.392H23.328V8.68H22.192v1.392H19.648v.976h2.544v2.64ZM28.1,15.672a7.353,7.353,0,0,1-2.7,2.032A7.167,7.167,0,0,1,22.8,15.672Zm.992-1.024-.208.048H19.84v.976H22.3l-.64.24A8.051,8.051,0,0,0,24.176,18.2a21.7,21.7,0,0,1-4.928,1.024,4.111,4.111,0,0,1,.5.992,21.671,21.671,0,0,0,5.632-1.376,18.251,18.251,0,0,0,5.264,1.408,3.527,3.527,0,0,1,.688-1.008,20.346,20.346,0,0,1-4.7-1.008,7.9,7.9,0,0,0,3.216-3.184Zm11.36.752-1.2-.112a8.974,8.974,0,0,0-.24,1.888c0,1.584,1.376,2.368,3.9,2.368A21.076,21.076,0,0,0,46,19.3l.048-1.3a15.4,15.4,0,0,1-3.12.32c-2.288,0-2.7-.736-2.7-1.488A5.657,5.657,0,0,1,40.448,15.4Zm-1.84-8.752L37.072,6.52a6.278,6.278,0,0,1-.048,1.312c-.048.32-.128.832-.24,1.392-.624.048-1.2.08-1.728.08a14.494,14.494,0,0,1-1.92-.112l.048,1.248c.576.032,1.152.064,1.856.064.448,0,.944-.016,1.472-.048-.128.576-.272,1.184-.416,1.712a34.889,34.889,0,0,1-2.688,7.152l1.408.48a48.419,48.419,0,0,0,2.5-7.328c.192-.7.352-1.44.512-2.144a30.725,30.725,0,0,0,3.328-.544V8.536a26.736,26.736,0,0,1-3.072.56c.08-.432.176-.832.24-1.184C38.384,7.592,38.512,6.984,38.608,6.648Zm1.5,4.864v1.2a26.3,26.3,0,0,1,2.976-.176,20.23,20.23,0,0,1,2.688.192l.032-1.216a25.61,25.61,0,0,0-2.768-.144C42.016,11.368,40.96,11.432,40.112,11.512ZM44.08,7.128l-.848.368a18.285,18.285,0,0,1,1.3,2.224l.864-.384A17.842,17.842,0,0,0,44.08,7.128Zm1.76-.656-.832.368a17.013,17.013,0,0,1,1.328,2.224L47.2,8.68A20.581,20.581,0,0,0,45.84,6.472Zm14.336.048H58.688a9.622,9.622,0,0,1,.144.96c.032.4.08,1.472.1,2.48-.672.032-1.36.048-2.016.048a17.94,17.94,0,0,1-2.576-.176v1.28c.688.048,1.824.1,2.592.1.656,0,1.344-.016,2.032-.048v.5c0,3.072-.1,4.88-1.808,6.384a5.247,5.247,0,0,1-1.552.992l1.168.912c3.392-2,3.392-4.608,3.392-8.288V11.1c.96-.064,1.856-.16,2.592-.272V9.512a18.947,18.947,0,0,1-2.608.368c-.016-.992-.032-2.064-.016-2.416A8.242,8.242,0,0,1,60.176,6.52Zm-8.1.24-1.488-.144a6.644,6.644,0,0,1-.08,1.072,43.215,43.215,0,0,0-.608,6.384,17.826,17.826,0,0,0,.848,5.072l1.088-.128c-.016-.16-.032-.384-.048-.544a2.415,2.415,0,0,1,.08-.72c.176-.784.656-2.416,1.04-3.536l-.688-.416c-.3.8-.64,1.776-.864,2.448-.608-2.624-.064-6.128.448-8.448C51.888,7.5,52,7.064,52.08,6.76Zm18.5-.544H69.152a8.437,8.437,0,0,1,.08,1.136c0,.288-.016.992-.016,1.824-.448.032-.864.048-1.232.048A14.806,14.806,0,0,1,65.936,9.1l.032,1.216a17.575,17.575,0,0,0,2.048.08c.336,0,.736-.016,1.184-.048-.016.7-.016,1.456-.016,2.1v.912c-1.84.784-3.5,2.176-3.5,3.5,0,1.424,2.08,2.656,3.328,2.656.864,0,1.408-.48,1.408-1.968,0-.688-.032-2.112-.064-3.472a10.481,10.481,0,0,1,3.488-.624c1.52,0,2.752.736,2.752,2.1,0,1.472-1.28,2.224-2.688,2.5a8.183,8.183,0,0,1-1.872.112l.448,1.3a12.133,12.133,0,0,0,1.984-.224c2.192-.528,3.408-1.76,3.408-3.7,0-1.92-1.68-3.184-4.016-3.184a12.1,12.1,0,0,0-3.52.592v-.56c0-.64.016-1.408.032-2.16a29.373,29.373,0,0,0,3.36-.56L73.7,8.408a21.518,21.518,0,0,1-3.3.64c.016-.72.048-1.344.064-1.728A10.265,10.265,0,0,1,70.576,6.216Zm4.96,1.776-.576.96a20.3,20.3,0,0,1,3.584,2.4l.656-1.024A29.083,29.083,0,0,0,75.536,7.992Zm-8.608,8.8c0-.72.976-1.648,2.288-2.256.016,1.168.048,2.256.048,2.832,0,.528-.224.784-.592.784C68.048,18.152,66.928,17.528,66.928,16.792ZM95.36,7.768a10.1,10.1,0,0,0-1.648-2.032l-.832.432A11.268,11.268,0,0,1,94.5,8.28Zm-9.52-1.6H81.456v.96H85.84Zm-.96,9.488v2.688H82.368V15.656ZM85.9,14.68H81.36v5.36h1.008V19.3H85.9ZM81.376,13.5H85.92v-.96H81.376Zm0-2.128H85.92v-.944H81.376Zm-.7-2.128H86.3V8.264H80.672Zm8.8,8.224V13.128H91.1V12.1H86.688v1.024h1.7v4.56c-.752.16-1.44.288-2,.4l.272,1.088c1.376-.32,3.184-.72,4.9-1.136l-.064-.992Zm5.7-7.6V8.792h-2.5q-.024-1.512,0-3.168H91.52c.016,1.1.016,2.16.032,3.168H86.56V9.864h5.024c.144,6.3.624,10.3,2.576,10.368.528.016,1.1-.576,1.392-2.9a4.294,4.294,0,0,1-.88-.672c-.064,1.3-.24,2.112-.5,2.1-.944-.064-1.392-3.584-1.488-8.9Zm6.272-3.328L99.824,6.52a8.444,8.444,0,0,1,.128,1.632c0,1.68-.16,5.728-.16,8.1,0,2.608,1.584,3.568,3.888,3.568a8.042,8.042,0,0,0,6.688-3.536l-.912-1.088a6.666,6.666,0,0,1-5.728,3.312c-1.52,0-2.624-.624-2.624-2.384,0-2.384.112-6.16.192-7.968A13.775,13.775,0,0,1,101.44,6.536Zm14.128,1.3L114.016,7.8a7.217,7.217,0,0,1,.112,1.424c0,.928.032,2.88.176,4.272.432,4.144,1.888,5.648,3.408,5.648,1.072,0,2.048-.928,3.008-3.648l-1.008-1.136c-.416,1.6-1.168,3.264-1.984,3.264-1.136,0-1.92-1.776-2.176-4.448-.112-1.328-.128-2.784-.112-3.792A12.182,12.182,0,0,1,115.568,7.832Zm8.336.448-1.248.432c1.536,1.872,2.5,5.152,2.784,8.048l1.28-.528A17.2,17.2,0,0,0,123.9,8.28Zm13.024,6.9-1.2-.112a10,10,0,0,0-.24,1.888c0,1.584,1.376,2.352,3.9,2.352a21.271,21.271,0,0,0,3.088-.224l.048-1.3a15.4,15.4,0,0,1-3.12.32c-2.288,0-2.7-.736-2.7-1.488A5.657,5.657,0,0,1,136.928,15.176Zm-1.84-8.768-1.536-.128a6.4,6.4,0,0,1-.048,1.328c-.048.32-.128.832-.24,1.392-.624.048-1.2.08-1.728.08a14.5,14.5,0,0,1-1.92-.112l.048,1.248c.576.032,1.152.064,1.856.064.448,0,.944-.016,1.472-.048-.128.576-.272,1.184-.416,1.712a34.889,34.889,0,0,1-2.688,7.152l1.408.48a49.036,49.036,0,0,0,2.5-7.328c.192-.7.368-1.44.512-2.144a30.726,30.726,0,0,0,3.328-.544V8.3a23.688,23.688,0,0,1-3.072.576c.1-.432.176-.848.24-1.184C134.864,7.368,134.992,6.76,135.088,6.408Zm1.5,4.88v1.184a26.292,26.292,0,0,1,2.976-.16,20.23,20.23,0,0,1,2.688.192l.032-1.216a25.61,25.61,0,0,0-2.768-.144C138.5,11.144,137.44,11.208,136.592,11.288ZM152.448,15.4l-1.2-.112a8.974,8.974,0,0,0-.24,1.888c0,1.584,1.376,2.368,3.9,2.368A21.076,21.076,0,0,0,158,19.3l.048-1.3a15.4,15.4,0,0,1-3.12.32c-2.288,0-2.7-.736-2.7-1.488A5.657,5.657,0,0,1,152.448,15.4Zm-1.84-8.752-1.536-.128a6.278,6.278,0,0,1-.048,1.312c-.048.32-.128.832-.24,1.392-.624.048-1.2.08-1.728.08a14.5,14.5,0,0,1-1.92-.112l.048,1.248c.576.032,1.152.064,1.856.064.448,0,.944-.016,1.472-.048-.128.576-.272,1.184-.416,1.712a34.889,34.889,0,0,1-2.688,7.152l1.408.48a48.419,48.419,0,0,0,2.5-7.328c.192-.7.352-1.44.512-2.144a30.726,30.726,0,0,0,3.328-.544V8.536a26.737,26.737,0,0,1-3.072.56c.08-.432.176-.832.24-1.184C150.384,7.592,150.512,6.984,150.608,6.648Zm1.5,4.864v1.2a26.3,26.3,0,0,1,2.976-.176,20.23,20.23,0,0,1,2.688.192l.032-1.216a25.61,25.61,0,0,0-2.768-.144C154.016,11.368,152.96,11.432,152.112,11.512Zm3.968-4.384-.848.368a18.283,18.283,0,0,1,1.3,2.224l.864-.384A17.841,17.841,0,0,0,156.08,7.128Zm1.76-.656-.832.368a17.014,17.014,0,0,1,1.328,2.224l.864-.384A20.58,20.58,0,0,0,157.84,6.472Zm5.728,1.36L162.016,7.8a7.218,7.218,0,0,1,.112,1.424c0,.928.032,2.88.176,4.272.432,4.144,1.888,5.648,3.408,5.648,1.072,0,2.048-.928,3.008-3.648l-1.008-1.136c-.416,1.6-1.168,3.264-1.984,3.264-1.136,0-1.92-1.776-2.176-4.448-.112-1.328-.128-2.784-.112-3.792A12.183,12.183,0,0,1,163.568,7.832Zm8.336.448-1.248.432c1.536,1.872,2.5,5.152,2.784,8.048l1.28-.528A17.2,17.2,0,0,0,171.9,8.28Zm4.976.1.144,1.392c1.728-.368,5.808-.752,7.52-.944a6.5,6.5,0,0,0-2.992,5.408c0,3.568,3.376,5.152,6.336,5.264l.464-1.328c-2.608-.1-5.52-1.088-5.52-4.224A5.628,5.628,0,0,1,186.5,8.888a13.4,13.4,0,0,1,3.136-.256V7.352c-1.072.048-2.576.128-4.32.288-2.944.24-5.968.544-7.008.656C178,8.328,177.488,8.36,176.88,8.376Zm19.584.656a17.708,17.708,0,0,0-2.928-2.352l-.848.848a18.605,18.605,0,0,1,2.88,2.448Zm-.56,4.176c-1.36,1.408-2.8,2.88-3.728,3.744l.768.976c1.088-1.024,2.416-2.416,3.6-3.7Zm5.984-3.552h3.3a17.586,17.586,0,0,1-1.232,2.976c.288.112.736.368.992.48a20.985,20.985,0,0,0,1.76-4.224l-.864-.48-.24.064h-6.448c.288-.832.528-1.7.752-2.592l-1.248-.224a15.425,15.425,0,0,1-2.864,6.576,7.089,7.089,0,0,1,1.136.672A15.1,15.1,0,0,0,198.7,9.656h1.952v2.016a8.483,8.483,0,0,1-5.68,7.584,5.279,5.279,0,0,1,.736.96,9.2,9.2,0,0,0,5.552-6.32,9.042,9.042,0,0,0,4.928,6.32c.192-.288.56-.784.768-1.056a8.448,8.448,0,0,1-5.072-7.488Zm15.52,5.008h-3.872V11.016h3.872ZM212.4,9.944V15.72h6.176V9.944Zm-2.3,8.288V7.464h10.8V18.232ZM208.9,6.28V20.216h1.2v-.864h10.8v.864h1.264V6.28Zm29.152,7.12a5.8,5.8,0,0,0-6.128-5.888,6.82,6.82,0,0,0-6.992,6.512c0,2.64,1.424,4.272,2.848,4.272,1.488,0,2.752-1.68,3.728-4.976a31.471,31.471,0,0,0,.96-4.608,4.456,4.456,0,0,1,4.272,4.64,4.832,4.832,0,0,1-4.064,4.752,12.086,12.086,0,0,1-1.376.208l.752,1.184C235.84,19,238.048,16.76,238.048,13.4Zm-11.872.512a5.581,5.581,0,0,1,4.96-5.184,26.142,26.142,0,0,1-.9,4.32c-.816,2.7-1.664,3.776-2.416,3.776C227.1,16.824,226.176,15.928,226.176,13.912ZM6.272,31.688c.048.192.16.816.336,1.68-1.5.24-2.9.448-3.52.512-.512.064-.928.1-1.328.112l.272,1.44c.48-.112.848-.192,1.3-.272.608-.112,2-.336,3.52-.576.192.992.416,2.128.64,3.216-1.824.288-3.568.56-4.368.672-.416.064-1.04.128-1.408.144L2,40.008c.336-.1.784-.176,1.408-.288.784-.144,2.5-.432,4.3-.736.3,1.584.56,2.88.624,3.232.112.48.16.96.24,1.5l1.456-.272c-.144-.448-.272-.992-.384-1.456-.08-.368-.336-1.648-.656-3.216,1.568-.24,3.056-.48,3.936-.624.592-.1,1.1-.176,1.44-.208L14.112,36.6c-.352.1-.8.192-1.424.3-.8.144-2.32.416-3.936.672-.208-1.072-.432-2.208-.64-3.2,1.536-.24,2.992-.48,3.728-.592.416-.064.912-.128,1.152-.16L12.72,32.28a10.035,10.035,0,0,1-1.136.272c-.672.128-2.144.368-3.7.624-.192-.9-.3-1.552-.336-1.728-.048-.352-.128-.8-.144-1.1l-1.44.256A7.5,7.5,0,0,1,6.272,31.688Zm15.888,1.52-1.376.336a3.976,3.976,0,0,1,.384.96c.1.3.288.992.528,1.84-.976.176-1.728.32-1.952.352-.48.08-.88.144-1.328.176l.32,1.216c.432-.1,1.744-.352,3.248-.656.624,2.288,1.392,5.12,1.6,5.84a8.935,8.935,0,0,1,.24,1.168l1.36-.352c-.1-.288-.256-.784-.352-1.088-.208-.7-.992-3.52-1.632-5.824,2.224-.448,4.48-.9,4.848-.96a14.769,14.769,0,0,1-2.752,3.3l1.136.56A22.133,22.133,0,0,0,29.84,35.4l-.8-.56a3.38,3.38,0,0,1-.608.192c-.544.128-3.264.656-5.52,1.088-.24-.848-.432-1.536-.528-1.888C22.288,33.832,22.208,33.48,22.16,33.208Zm13.472-1.936-.912.976A33.23,33.23,0,0,1,38.7,35.592l1.008-1.008A35.036,35.036,0,0,0,35.632,31.272Zm-1.376,10.72L35.1,43.3a17.538,17.538,0,0,0,6.288-2.48,15.986,15.986,0,0,0,5.376-5.7L46,33.768a15.072,15.072,0,0,1-5.344,5.888A16.521,16.521,0,0,1,34.256,41.992ZM52.9,40.936c0,1.584.544,2.352,3.52,2.352a34.4,34.4,0,0,0,5.024-.32l.064-1.376a25.7,25.7,0,0,1-4.992.464c-1.9,0-2.32-.352-2.32-1.456V35.832c2.832-.576,5.776-1.168,6.048-1.216a15.065,15.065,0,0,1-2.848,3.808l1.12.672a24.355,24.355,0,0,0,3.28-4.656c.112-.208.272-.48.384-.64l-.944-.736a3.24,3.24,0,0,1-.848.288c-.672.144-3.472.72-6.192,1.248V32.1a9.121,9.121,0,0,1,.112-1.472h-1.52A8.985,8.985,0,0,1,52.9,32.1V34.84c-1.7.32-3.216.592-3.936.688l.24,1.328c.656-.144,2.08-.432,3.7-.768Zm19.488,1.728.848.7A3.424,3.424,0,0,1,73.776,43a15.906,15.906,0,0,0,5.456-4.432L78.48,37.48a12.294,12.294,0,0,1-4.672,3.936V32.184A9.9,9.9,0,0,1,73.872,31H72.4a7.594,7.594,0,0,1,.1,1.184v9.584A3.81,3.81,0,0,1,72.384,42.664Zm-7.328-.08,1.2.816A8.942,8.942,0,0,0,69.1,39a35,35,0,0,0,.5-6.8c0-.48.064-.96.08-1.152H68.208a5.894,5.894,0,0,1,.112,1.168,28.562,28.562,0,0,1-.48,6.432A7.594,7.594,0,0,1,65.056,42.584Zm22.032-12.16-1.44-.1a5.489,5.489,0,0,1-.016,1.136c-.032.464-.1,1.04-.176,1.68a15.864,15.864,0,0,1-3.5-.592l-.064,1.168a22.067,22.067,0,0,0,3.44.56c-.128.944-.256,1.952-.352,2.9a14.279,14.279,0,0,1-3.408-.656L81.5,37.752a15.813,15.813,0,0,0,3.344.576c-.08.752-.128,1.392-.128,1.84,0,2.624,1.744,3.568,3.92,3.568,3.168,0,5.28-1.44,5.28-3.824a5.251,5.251,0,0,0-1.632-3.7L90.88,36.5a4.438,4.438,0,0,1,1.744,3.264c0,1.648-1.552,2.72-3.984,2.72-1.824,0-2.688-.96-2.688-2.512,0-.384.032-.944.1-1.584h.576a28.981,28.981,0,0,0,3.136-.16l.032-1.216a23.531,23.531,0,0,1-3.328.208h-.3c.112-.944.24-1.952.352-2.9h.112c1.3,0,2.224-.048,3.248-.144l.032-1.2a21.576,21.576,0,0,1-3.248.208c.1-.672.176-1.232.224-1.648A8.931,8.931,0,0,1,87.088,30.424ZM103.9,35.416v3.648H99.728V35.416Zm1.168,4.784V34.264h-6.5V41.48h1.152V40.2Zm6.032-9.456H96.944v1.184H107.92V42.5c0,.336-.112.448-.464.464-.368.016-1.68.032-2.96-.032a5.988,5.988,0,0,1,.512,1.264,12.353,12.353,0,0,0,3.312-.224c.608-.176.816-.608.816-1.456V31.928H111.1Zm14.368,5.84c1.264,0,1.632-.512,1.776-2.448a3.339,3.339,0,0,1-1.088-.464c-.064,1.584-.176,1.84-.784,1.84h-2.544c-.72,0-.848-.1-.848-.608V33.288a33.449,33.449,0,0,0,4.5-1.616l-.8-.864a26.623,26.623,0,0,1-3.7,1.5V29.64h-1.168v5.28c0,1.312.4,1.664,1.92,1.664Zm-10.7,3.456V38.568h3.376V40.04Zm3.376-3.776V37.64h-3.376V36.264Zm1.168-.992h-5.648V44.2h1.1V40.952h3.376V42.84c0,.208-.048.256-.256.256-.224.016-.9.032-1.648,0a4.53,4.53,0,0,1,.384,1.072,6.658,6.658,0,0,0,2.144-.192c.432-.192.544-.528.544-1.12Zm-1.968-4.16a18.3,18.3,0,0,1,1.072,1.648l-3.28.144c.5-.912,1.008-2.032,1.44-3.008l-1.2-.288a25.091,25.091,0,0,1-1.472,3.344c-.448.016-.848.032-1.216.048l.112,1.12c1.632-.1,3.936-.208,6.176-.336a8.62,8.62,0,0,1,.416.944l1.008-.448a15.546,15.546,0,0,0-2.08-3.552Zm5.536,11.92c-.752,0-.9-.1-.9-.624V40.552a23.11,23.11,0,0,0,4.672-1.776l-.784-.9a17.892,17.892,0,0,1-3.888,1.68V37.032h-1.168v5.376c0,1.312.416,1.664,1.936,1.664H125.6c1.328,0,1.68-.56,1.84-2.7a3.178,3.178,0,0,1-1.072-.448c-.08,1.792-.192,2.112-.864,2.112Zm6.384-10.56.144,1.392c1.728-.368,5.808-.752,7.52-.944a6.5,6.5,0,0,0-2.992,5.408c0,3.568,3.376,5.152,6.336,5.264l.464-1.328c-2.608-.1-5.52-1.088-5.52-4.208a5.631,5.631,0,0,1,3.664-5.072,13.4,13.4,0,0,1,3.136-.256v-1.28c-1.072.048-2.576.144-4.32.288-2.944.24-5.968.544-7.008.656C130.384,32.424,129.872,32.456,129.264,32.472ZM139.712,34.7l-.816.352a14.853,14.853,0,0,1,1.312,2.256l.816-.384A18.991,18.991,0,0,0,139.712,34.7Zm1.744-.672-.784.368a14.83,14.83,0,0,1,1.344,2.24l.832-.4A21.134,21.134,0,0,0,141.456,34.024Zm12.576-3.7h-1.456c.016.128.08.592.1,1.008.016.224.032.608.032,1.056-2.384.032-5.392.128-7.168.16l.032,1.232c2-.144,4.72-.256,7.152-.272.016.56.016,1.136.016,1.616a3.2,3.2,0,0,0-1.072-.176,2.793,2.793,0,0,0-2.816,2.784,2.547,2.547,0,0,0,2.624,2.672,2.254,2.254,0,0,0,1.392-.432c-.64,1.456-2.112,2.352-4.24,2.832l1.072,1.056c3.728-1.12,4.784-3.52,4.784-5.68a3.888,3.888,0,0,0-.512-2.048c-.016-.736-.032-1.728-.032-2.64h.224c2.336,0,3.792.032,4.688.08l.016-1.184c-.768,0-2.736-.016-4.688-.016h-.24c0-.432.016-.8.016-1.04C153.968,31.128,154,30.5,154.032,30.328Zm-3.984,7.392a1.63,1.63,0,0,1,1.616-1.7,1.434,1.434,0,0,1,1.424,1.008c.144,1.52-.464,2.272-1.408,2.272A1.541,1.541,0,0,1,150.048,37.72ZM161.5,39.1a2.44,2.44,0,1,0,2.448,2.432A2.441,2.441,0,0,0,161.5,39.1Zm0,4.064a1.624,1.624,0,1,1,1.632-1.632A1.625,1.625,0,0,1,161.5,43.16Z" transform="translate(3879.96 -16200.273)" fill="#3c505a"/>
      <g id="Icon_feather-check-square-2" data-name="Icon feather-check-square" transform="translate(3845.183 -16200.604)">
        <path id="Path_125-2" data-name="Path 125" d="M13.5,13.654l3.28,3.28L27.714,6" transform="translate(-3.43 -2.668)" fill="none" stroke="#ffbe00" stroke-linecap="round" stroke-linejoin="round" stroke-width="2"/>
        <path id="Path_126-2" data-name="Path 126" d="M21.209,12.855v6.5a1.857,1.857,0,0,1-1.857,1.857h-13A1.857,1.857,0,0,1,4.5,19.353v-13A1.857,1.857,0,0,1,6.357,4.5H16.568" transform="translate(0 -0.445)" fill="none" stroke="#a9a9a9" stroke-linecap="round" stroke-linejoin="round" stroke-width="2"/>
      </g>
    </g>
    <g id="Group_406" data-name="Group 406" transform="translate(-3.223 105.27)">
      <path id="Path_175" data-name="Path 175" d="M6.576,6.216H5.152a8.437,8.437,0,0,1,.08,1.136c0,.288-.016.992-.016,1.824-.448.032-.864.048-1.232.048A14.805,14.805,0,0,1,1.936,9.1l.032,1.216a17.575,17.575,0,0,0,2.048.08c.336,0,.736-.016,1.184-.048-.016.7-.016,1.456-.016,2.1v.912c-1.84.784-3.5,2.176-3.5,3.5,0,1.424,2.08,2.656,3.328,2.656.864,0,1.408-.48,1.408-1.968,0-.688-.032-2.112-.064-3.472a10.481,10.481,0,0,1,3.488-.624c1.52,0,2.752.736,2.752,2.1,0,1.472-1.28,2.224-2.688,2.5a8.183,8.183,0,0,1-1.872.112l.448,1.3a12.133,12.133,0,0,0,1.984-.224c2.192-.528,3.408-1.76,3.408-3.7,0-1.92-1.68-3.184-4.016-3.184a12.1,12.1,0,0,0-3.52.592v-.56c0-.64.016-1.408.032-2.16a29.373,29.373,0,0,0,3.36-.56L9.7,8.408a21.518,21.518,0,0,1-3.3.64c.016-.72.048-1.344.064-1.728A10.264,10.264,0,0,1,6.576,6.216Zm4.96,1.776-.576.96a20.3,20.3,0,0,1,3.584,2.4l.656-1.024A29.083,29.083,0,0,0,11.536,7.992Zm-8.608,8.8c0-.72.976-1.648,2.288-2.256.016,1.168.048,2.256.048,2.832,0,.528-.224.784-.592.784C4.048,18.152,2.928,17.528,2.928,16.792ZM28.9,7.5V9.544H19.5V7.5Zm1.168,3.136V6.408H18.32v4.64c0,2.544-.144,6.064-1.744,8.544a5.924,5.924,0,0,1,1.04.608c1.664-2.576,1.888-6.464,1.888-9.152v-.416Zm-4.192,7.936V16.536h3.216v2.032Zm-4.24-2.032H24.72v2.032H21.632Zm3.088-2.88v1.9H21.632v-1.9Zm4.368,0v1.9H25.872v-1.9Zm-3.216-1.072V10.76H24.72v1.824H20.5V20.2h1.136v-.56h7.456v.56h1.168V12.584Zm18.3-6.064H42.688a9.622,9.622,0,0,1,.144.96c.032.4.08,1.472.1,2.48-.672.032-1.36.048-2.016.048a17.94,17.94,0,0,1-2.576-.176v1.28c.688.048,1.824.1,2.592.1.656,0,1.344-.016,2.032-.048v.5c0,3.072-.1,4.88-1.808,6.384a5.247,5.247,0,0,1-1.552.992l1.168.912c3.392-2,3.392-4.608,3.392-8.288V11.1c.96-.064,1.856-.16,2.592-.272V9.512a18.947,18.947,0,0,1-2.608.368c-.016-.992-.032-2.064-.016-2.416A8.242,8.242,0,0,1,44.176,6.52Zm-8.1.24-1.488-.144a6.644,6.644,0,0,1-.08,1.072,43.215,43.215,0,0,0-.608,6.384,17.826,17.826,0,0,0,.848,5.072l1.088-.128c-.016-.16-.032-.384-.048-.544a2.415,2.415,0,0,1,.08-.72c.176-.784.656-2.416,1.04-3.536l-.688-.416c-.3.8-.64,1.776-.864,2.448-.608-2.624-.064-6.128.448-8.448C35.888,7.5,36,7.064,36.08,6.76Zm23.44,4.9V11.08h1.76c.7,0,1.3.032,1.472.048V9.784a11.764,11.764,0,0,1-1.472.08H59.52v-2a12.131,12.131,0,0,1,.08-1.312H58.16a8.92,8.92,0,0,1,.08,1.312v2H53.68V7.816a9.875,9.875,0,0,1,.08-1.168H52.336A9.881,9.881,0,0,1,52.4,7.816V9.864H50.672a11.73,11.73,0,0,1-1.6-.112v1.392c.192-.016.912-.064,1.6-.064H52.4v2.592c0,.608-.048,1.3-.064,1.456h1.408c-.016-.16-.064-.864-.064-1.456V11.08h4.56v.672c0,4.48-1.456,5.856-4.368,6.976l1.072,1.008C58.608,18.1,59.52,15.912,59.52,11.656Zm5.856,1.568.64,1.248a31.6,31.6,0,0,0,6.1-2.608v5.92a14.841,14.841,0,0,1-.1,1.712h1.568a12.074,12.074,0,0,1-.1-1.712V11.032a26.175,26.175,0,0,0,4.32-3.568l-1.072-.992a19.064,19.064,0,0,1-4.368,3.76A26.449,26.449,0,0,1,65.376,13.224Zm22.9-6.656-1.488-.48a5.479,5.479,0,0,1-.5,1.264,13.19,13.19,0,0,1-5.024,5.408l1.1.832a16.22,16.22,0,0,0,4.064-3.936H91.84a13.154,13.154,0,0,1-2.56,4.992A12.944,12.944,0,0,1,82.9,18.664l1.152,1.04a14.028,14.028,0,0,0,6.368-4.352,15.519,15.519,0,0,0,2.848-5.5A5.027,5.027,0,0,1,93.632,9L92.56,8.344a2.678,2.678,0,0,1-1.04.16H87.184a7.189,7.189,0,0,0,.384-.672A12.1,12.1,0,0,1,88.272,6.568Zm15.312,12.1.848.7a3.423,3.423,0,0,1,.544-.368,15.906,15.906,0,0,0,5.456-4.432l-.752-1.088a12.294,12.294,0,0,1-4.672,3.936V8.184A9.9,9.9,0,0,1,105.072,7H103.6a7.594,7.594,0,0,1,.1,1.184v9.584A3.81,3.81,0,0,1,103.584,18.664Zm-7.328-.08,1.2.816A8.942,8.942,0,0,0,100.3,15a35,35,0,0,0,.5-6.8c0-.48.064-.96.08-1.152H99.408a5.894,5.894,0,0,1,.112,1.168,28.562,28.562,0,0,1-.48,6.432A7.594,7.594,0,0,1,96.256,18.584Zm22.032-12.16-1.44-.1a5.489,5.489,0,0,1-.016,1.136c-.032.464-.1,1.04-.176,1.68a15.864,15.864,0,0,1-3.5-.592l-.064,1.168a22.067,22.067,0,0,0,3.44.56c-.128.944-.256,1.952-.352,2.9a14.279,14.279,0,0,1-3.408-.656l-.064,1.232a15.813,15.813,0,0,0,3.344.576c-.08.752-.128,1.392-.128,1.84,0,2.624,1.744,3.568,3.92,3.568,3.168,0,5.28-1.44,5.28-3.824a5.251,5.251,0,0,0-1.632-3.7l-1.408.288a4.438,4.438,0,0,1,1.744,3.264c0,1.648-1.552,2.72-3.984,2.72-1.824,0-2.688-.96-2.688-2.512,0-.384.032-.944.1-1.584h.576a28.982,28.982,0,0,0,3.136-.16l.032-1.216a23.531,23.531,0,0,1-3.328.208h-.3c.112-.944.24-1.952.352-2.9h.112c1.3,0,2.224-.048,3.248-.144l.032-1.2a21.576,21.576,0,0,1-3.248.208c.1-.672.176-1.232.224-1.648A8.931,8.931,0,0,1,118.288,6.424Zm15.1,1.952a4.658,4.658,0,0,1-2.512,4.5,3.753,3.753,0,0,1,.864.8,5.551,5.551,0,0,0,2.768-5.28V8.3h2.208v3.5c0,.176-.048.224-.256.24-.208,0-.9,0-1.7-.016a4.374,4.374,0,0,1,.336,1.04,7.809,7.809,0,0,0,2.224-.16c.448-.192.544-.5.544-1.088V8.3h4.32V7.208h-6.4V5.624h-1.2V7.208h-6.32V8.3h5.12ZM138.7,9.608a18.359,18.359,0,0,1,2.768,3.168l.992-.624a18.411,18.411,0,0,0-2.848-3.088Zm-8.032-.48a7.48,7.48,0,0,1-2.688,2.8,8.587,8.587,0,0,1,.816.7,9.648,9.648,0,0,0,2.992-3.184Zm2.192,5.856h5.248a8.814,8.814,0,0,1-2.816,2.24,7.994,7.994,0,0,1-2.528-2.144Zm6.24-1.04-.224.048h-4.96a11.7,11.7,0,0,0,.832-.976l-1.28-.224a11.266,11.266,0,0,1-5.072,3.584,3.567,3.567,0,0,1,.752.864,15.767,15.767,0,0,0,2.784-1.536,9.561,9.561,0,0,0,2.176,2.064A24.261,24.261,0,0,1,128,19.224a3.03,3.03,0,0,1,.576,1.04,23.834,23.834,0,0,0,6.672-1.824,18.482,18.482,0,0,0,6.592,1.808,3.906,3.906,0,0,1,.688-1.088,20.29,20.29,0,0,1-6.048-1.36,9.32,9.32,0,0,0,3.408-3.328Zm7.776.1V12.424h3.808v.64c0,.32,0,.656-.032.976Zm0-4.16h3.808v1.6H146.88Zm9.056,0v1.6H151.9V9.88Zm0,4.16h-4.064c.016-.3.032-.64.032-.96v-.656h4.032Zm1.168.992V8.888h-5.2V7.544h6.208V6.472H144.288V7.544h6.4V8.888h-4.944v6.144H150.5a3.89,3.89,0,0,1-1.3,2.112,6.746,6.746,0,0,1-1.936-1.984l-.992.4a7.734,7.734,0,0,0,1.968,2.256A13.941,13.941,0,0,1,144,19.192a4.97,4.97,0,0,1,.7,1.04,13.364,13.364,0,0,0,4.64-1.728c2.176,1.152,5.088,1.5,8.784,1.664a3.187,3.187,0,0,1,.5-1.168c-3.552-.1-6.3-.336-8.32-1.248a5.177,5.177,0,0,0,1.424-2.72Zm5.936,3.2V15.864h8.528v2.368Zm8.528-5.808v2.32H163.04v-2.32Zm0-3.5V11.3H163.04V8.92Zm-4.512-1.136c.272-.608.56-1.328.8-2.016l-1.36-.176a20.167,20.167,0,0,1-.624,2.192h-4.016V20.248h1.184v-.9h8.528v.816H172.8V7.784Zm16.688,10.288V14.52h4.4v3.552Zm-5.488-3.552h4.3v3.552h-4.3Zm4.3-4.624v3.456h-4.3V9.9Zm5.584,0v3.456h-4.4V9.9Zm-4.4-1.184V5.64H182.56V8.712h-5.488v11.52h1.184V19.24h9.888v.912h1.2V8.712Zm8.72-.24.144,1.392c1.728-.368,5.808-.752,7.52-.944a6.5,6.5,0,0,0-2.992,5.408c0,3.568,3.376,5.152,6.336,5.264l.464-1.328c-2.608-.1-5.52-1.088-5.52-4.208a5.631,5.631,0,0,1,3.664-5.072,13.4,13.4,0,0,1,3.136-.256V7.448c-1.072.048-2.576.144-4.32.288-2.944.24-5.968.544-7.008.656C193.584,8.424,193.072,8.456,192.464,8.472ZM202.912,10.7l-.816.352a14.852,14.852,0,0,1,1.312,2.256l.816-.384A18.991,18.991,0,0,0,202.912,10.7Zm1.744-.672-.784.368a14.83,14.83,0,0,1,1.344,2.24l.832-.4A21.133,21.133,0,0,0,204.656,10.024Zm12.576-3.7h-1.456c.016.128.08.592.1,1.008.016.224.032.608.032,1.056-2.384.032-5.392.128-7.168.16l.032,1.232c2-.144,4.72-.256,7.152-.272.016.56.016,1.136.016,1.616a3.2,3.2,0,0,0-1.072-.176,2.793,2.793,0,0,0-2.816,2.784,2.547,2.547,0,0,0,2.624,2.672,2.254,2.254,0,0,0,1.392-.432c-.64,1.456-2.112,2.352-4.24,2.832l1.072,1.056c3.728-1.12,4.784-3.52,4.784-5.68a3.888,3.888,0,0,0-.512-2.048c-.016-.736-.032-1.728-.032-2.64h.224c2.336,0,3.792.032,4.688.08l.016-1.184c-.768,0-2.736-.016-4.688-.016h-.24c0-.432.016-.8.016-1.04C217.168,7.128,217.2,6.5,217.232,6.328Zm-3.984,7.392a1.63,1.63,0,0,1,1.616-1.7,1.434,1.434,0,0,1,1.424,1.008c.144,1.52-.464,2.272-1.408,2.272A1.541,1.541,0,0,1,213.248,13.72ZM224.7,15.1a2.44,2.44,0,1,0,2.448,2.432A2.441,2.441,0,0,0,224.7,15.1Zm0,4.064a1.624,1.624,0,1,1,1.632-1.632A1.625,1.625,0,0,1,224.7,19.16Z" transform="translate(3879.96 -16200.273)" fill="#3c505a"/>
      <g id="Icon_feather-check-square-3" data-name="Icon feather-check-square" transform="translate(3845.183 -16200.604)">
        <path id="Path_125-3" data-name="Path 125" d="M13.5,13.654l3.28,3.28L27.714,6" transform="translate(-3.43 -2.668)" fill="none" stroke="#ffbe00" stroke-linecap="round" stroke-linejoin="round" stroke-width="2"/>
        <path id="Path_126-3" data-name="Path 126" d="M21.209,12.855v6.5a1.857,1.857,0,0,1-1.857,1.857h-13A1.857,1.857,0,0,1,4.5,19.353v-13A1.857,1.857,0,0,1,6.357,4.5H16.568" transform="translate(0 -0.445)" fill="none" stroke="#a9a9a9" stroke-linecap="round" stroke-linejoin="round" stroke-width="2"/>
      </g>
    </g>
  </g>
</svg>
