<svg xmlns="http://www.w3.org/2000/svg" width="900" height="237.539" viewBox="0 0 900 237.539">
  <g id="Group_206" data-name="Group 206" transform="translate(-3835.96 16249.72)">
    <g id="Union_3" data-name="Union 3" transform="translate(1733 -16531)" fill="#fff">
      <path d="M 3002.4599609375 518.318603515625 L 2103.4599609375 518.318603515625 L 2103.4599609375 309.2107849121094 L 2306.234619140625 309.2107849121094 L 2306.548583984375 309.2107849121094 L 2306.68505859375 308.9279174804688 L 2319.460205078125 282.4308166503906 L 2332.23583984375 308.9279174804688 L 2332.3720703125 309.2107849121094 L 2332.68603515625 309.2107849121094 L 3002.4599609375 309.2107849121094 L 3002.4599609375 518.318603515625 Z" stroke="none"/>
      <path d="M 3001.9599609375 517.818603515625 L 3001.9599609375 309.7107849121094 L 2332.05810546875 309.7107849121094 L 2319.460205078125 283.5823059082031 L 2306.862548828125 309.7107849121094 L 2103.9599609375 309.7107849121094 L 2103.9599609375 517.818603515625 L 3001.9599609375 517.818603515625 M 3002.9599609375 518.818603515625 L 2102.9599609375 518.818603515625 L 2102.9599609375 308.7107849121094 L 2306.234619140625 308.7107849121094 L 2319.460205078125 281.2796936035156 L 2332.68603515625 308.7107849121094 L 3002.9599609375 308.7107849121094 L 3002.9599609375 518.818603515625 Z" stroke="none" fill="#a9a9a9"/>
    </g>
    <g id="Group_400" data-name="Group 400" transform="translate(17)">
      <path id="Path_171" data-name="Path 171" d="M3,0H5.79V-9.33H9.75L15.09,0h3.15L12.6-9.63a5.964,5.964,0,0,0,4.98-6.18c0-4.59-3.21-6.21-7.68-6.21H3ZM5.79-11.58v-8.16H9.48c3.45,0,5.34,1.02,5.34,3.93,0,2.85-1.89,4.23-5.34,4.23ZM22.08,0H35.1V-2.37H24.87v-8.01h8.34v-2.37H24.87v-6.9h9.9v-2.37H22.08ZM39.72,0h7.02c4.92,0,8.34-2.13,8.34-6.45a5.074,5.074,0,0,0-4.47-5.25v-.15a4.8,4.8,0,0,0,3.21-4.77c0-3.87-3.09-5.4-7.56-5.4H39.72Zm2.79-12.63V-19.8H45.9c3.42,0,5.19.96,5.19,3.54,0,2.22-1.53,3.63-5.31,3.63Zm0,10.41v-8.31h3.84c3.84,0,6,1.26,6,3.99,0,2.97-2.22,4.32-6,4.32ZM67.56.39c5.52,0,9.39-4.41,9.39-11.46s-3.87-11.34-9.39-11.34-9.39,4.29-9.39,11.34S62.04.39,67.56.39Zm0-2.43c-3.96,0-6.54-3.54-6.54-9.03,0-5.52,2.58-8.91,6.54-8.91,3.93,0,6.54,3.39,6.54,8.91C74.1-5.58,71.49-2.04,67.56-2.04ZM81.69,0h2.79V-9.33h3.96L93.78,0h3.15L91.29-9.63a5.964,5.964,0,0,0,4.98-6.18c0-4.59-3.21-6.21-7.68-6.21h-6.9Zm2.79-11.58v-8.16h3.69c3.45,0,5.34,1.02,5.34,3.93,0,2.85-1.89,4.23-5.34,4.23ZM100.77,0h2.64V-11.55c0-2.31-.21-4.65-.33-6.87h.12l2.37,4.53L113.58,0h2.85V-22.02h-2.64v11.46c0,2.28.21,4.74.36,6.96H114l-2.34-4.53-8.01-13.89h-2.88Zm25.47-12.3c.78-2.49,1.5-4.86,2.19-7.44h.12c.72,2.55,1.41,4.95,2.22,7.44l1.05,3.36h-6.66ZM119.52,0h2.82l2.13-6.72h8.04L134.61,0h2.94l-7.47-22.02h-3.09Zm45.36-10.5c0-6.09-4.47-11.04-11.49-11.04-7.32,0-13.11,5.7-13.11,12.21,0,4.95,2.67,8.01,5.34,8.01,2.79,0,5.16-3.15,6.99-9.33a59.014,59.014,0,0,0,1.8-8.64,8.354,8.354,0,0,1,8.01,8.7c0,5.19-3.78,8.04-7.62,8.91a22.662,22.662,0,0,1-2.58.39L153.63.93C160.74,0,164.88-4.2,164.88-10.5Zm-22.26.96c0-4.08,3.54-9,9.3-9.72a49.016,49.016,0,0,1-1.68,8.1c-1.53,5.07-3.12,7.08-4.53,7.08C144.36-4.08,142.62-5.76,142.62-9.54Zm29.76-10.02h20.43v4.38h2.28v-6.48H183.75v-3.42h-2.31v3.42H170.19v6.48h2.19ZM183.75-6.81h8.88V-8.88h-8.88v-4.98h7.65v-2.1H174.03v2.1h7.44V-1.29a9.01,9.01,0,0,1-5.52-5.79,37.864,37.864,0,0,0,.72-3.99l-2.28-.21c-.66,5.37-2.28,9.63-5.61,12.21a11.646,11.646,0,0,1,1.83,1.5,16.435,16.435,0,0,0,4.47-6.69c2.73,5.07,7.2,6.15,13.41,6.15h6.96a6.575,6.575,0,0,1,.84-2.25c-1.44.03-6.6.03-7.68.03a27.387,27.387,0,0,1-4.86-.36Zm20.1-3.15h5.43v3h-5.43Zm5.43-9.18v2.64h-5.43v-2.64Zm-5.43,4.44h5.43v2.94h-5.43Zm9.69,7.74h-2.19V-19.14h2.19v-2.01h-2.19v-3.6h-2.07v3.6h-5.43v-3.6h-2.04v3.6h-2.52v2.01h2.52V-6.96H198.9v2.01h14.64Zm-10.5,2.64a15.65,15.65,0,0,1-4.11,5.34,13.79,13.79,0,0,1,1.8,1.29,19.83,19.83,0,0,0,4.44-6.06Zm4.26.93a23.551,23.551,0,0,1,3.09,4.56l1.8-1.05a22.224,22.224,0,0,0-3.15-4.44Zm9.75-6.42c.03-1.02.06-2.04.06-2.97v-2.01h6.12v4.98Zm6.18-11.76v4.77h-6.12v-4.77Zm2.16-2.04H215.01v10.83c0,4.29-.24,9.99-2.73,13.95a5.717,5.717,0,0,1,1.77,1.29c1.8-2.88,2.55-6.69,2.85-10.26h6.33V-.6c0,.48-.18.63-.63.63-.42.03-1.92.03-3.51,0a9.069,9.069,0,0,1,.69,2.16,13.3,13.3,0,0,0,4.47-.42c.81-.36,1.14-1.02,1.14-2.34Zm11.25,5.31h-4.47v-3.81h4.47Zm0,5.58h-4.47v-3.84h4.47Zm0,5.67h-4.47v-3.9h4.47Zm2.01-16.92h-8.43V-5.22h8.43ZM231.69-4.59a13.159,13.159,0,0,1-3,5.7,15.094,15.094,0,0,1,1.68,1.2,17.965,17.965,0,0,0,3.33-6.45Zm3.75.72a24.987,24.987,0,0,1,2.4,4.71L239.61,0a25.241,25.241,0,0,0-2.49-4.62Zm13.23-.48V-6.6h3.84v2.25ZM243.03-6.6h3.66v2.25h-3.66Zm3.66-3.69v2.13h-3.66v-2.13Zm5.82,0v2.13h-3.84v-2.13Zm-7.02-7.08h4.44v1.98h-4.44Zm0-3.45h4.44v1.8h-4.44ZM256.35-4.35h-1.8v-7.62h-5.88v-1.74h7.56v-1.68h-4.29v-1.98h3.18v-1.65h-3.18v-1.8h3.66V-22.5h-3.66v-2.58h-2.01v2.58h-4.44v-2.58h-1.98v2.58h-3.63v1.68h3.63v1.8h-2.85v1.65h2.85v1.98h-4.32v1.68h7.5v1.74h-5.67v7.62h-1.95v1.71h1.95V2.31h2.01V-2.64h9.48V-.03c0,.39-.15.48-.51.51-.42,0-1.86,0-3.42-.03a7.164,7.164,0,0,1,.63,1.8,15.519,15.519,0,0,0,4.35-.3c.75-.33.99-.9.99-1.98V-2.64h1.8Zm8.19-18.93v2.22h7.38c.06,1.14.18,2.46.39,3.84l-1.32-.21C269.16-9.03,265.47-3,258.84.45a14.6,14.6,0,0,1,2.01,1.77c5.97-3.51,9.75-8.97,11.97-16.74A25.889,25.889,0,0,0,284.73,2.19a10.6,10.6,0,0,1,1.8-1.86c-11.76-6.99-12.45-18.3-12.45-23.61ZM301.02-3.6c0-1.47,1.59-2.43,3.84-2.43a10.209,10.209,0,0,1,3.06.48c.03.39.03.75.03,1.05,0,1.98-.75,3.27-3.27,3.27C302.52-1.23,301.02-2.07,301.02-3.6Zm9.09-19.5h-2.7c.06.51.12,1.32.12,1.83v3.72c-.93.03-1.89.06-2.82.06-1.8,0-3.39-.09-5.1-.24v2.25c1.77.12,3.33.21,5.04.21.96,0,1.92-.03,2.88-.06.03,2.46.21,5.4.3,7.71a13.758,13.758,0,0,0-2.79-.27c-3.93,0-6.18,2.01-6.18,4.53,0,2.7,2.22,4.29,6.24,4.29,4.05,0,5.19-2.37,5.19-4.83v-.63a24.406,24.406,0,0,1,4.53,3.48l1.32-2.01a19.774,19.774,0,0,0-5.94-3.87c-.12-2.52-.33-5.52-.36-8.55,1.8-.12,3.54-.3,5.19-.57v-2.31a50.659,50.659,0,0,1-5.19.69c.03-1.41.06-2.82.09-3.63Q309.975-22.2,310.11-23.1Zm-14.82.18-2.64-.21a18,18,0,0,1-.18,2.13,89.267,89.267,0,0,0-1.38,12.63,36.235,36.235,0,0,0,1.14,9.48l2.1-.15c-.03-.33-.06-.75-.06-1.05a5.374,5.374,0,0,1,.12-1.35c.3-1.47,1.41-4.53,2.13-6.63l-1.23-.96c-.51,1.23-1.23,3.06-1.71,4.41a28.143,28.143,0,0,1-.3-4.17,74.382,74.382,0,0,1,1.5-12.09A15.6,15.6,0,0,1,295.29-22.92Zm29.04,1.98L321.42-21a13.533,13.533,0,0,1,.21,2.67c0,1.74.06,5.4.33,8.01C322.77-2.55,325.5.27,328.35.27c2.01,0,3.84-1.74,5.64-6.84L332.1-8.7c-.78,3-2.19,6.12-3.72,6.12-2.13,0-3.6-3.33-4.08-8.34-.21-2.49-.24-5.22-.21-7.11A22.842,22.842,0,0,1,324.33-20.94Zm15.63.84-2.34.81c2.88,3.51,4.68,9.66,5.22,15.09l2.4-.99C344.79-10.26,342.63-16.62,339.96-20.1Zm9.87,4.44,1.11,2.64c2.37-.96,10.02-4.23,14.94-4.23,4.05,0,6.39,2.46,6.39,5.61,0,6.15-7.02,8.52-14.88,8.73l1.08,2.49c9.24-.51,16.41-3.99,16.41-11.16,0-5.04-3.96-7.92-8.94-7.92-4.38,0-10.26,2.16-12.81,2.97A29.933,29.933,0,0,1,349.83-15.66Zm30.18-4.08.27,2.61c3.24-.69,10.89-1.41,14.1-1.77a12.186,12.186,0,0,0-5.61,10.14c0,6.69,6.33,9.66,11.88,9.87l.87-2.49c-4.89-.18-10.35-2.04-10.35-7.89a10.559,10.559,0,0,1,6.87-9.51,25.128,25.128,0,0,1,5.88-.48v-2.4c-2.01.09-4.83.27-8.1.54-5.52.45-11.19,1.02-13.14,1.23C382.11-19.83,381.15-19.77,380.01-19.74Zm19.59,4.17-1.53.66a27.851,27.851,0,0,1,2.46,4.23l1.53-.72A35.607,35.607,0,0,0,399.6-15.57Zm3.27-1.26-1.47.69a27.807,27.807,0,0,1,2.52,4.2l1.56-.75A39.622,39.622,0,0,0,402.87-16.83Zm18.06-6.75-2.7-.18a10.292,10.292,0,0,1-.03,2.13c-.06.87-.18,1.95-.33,3.15a29.746,29.746,0,0,1-6.57-1.11l-.12,2.19a41.375,41.375,0,0,0,6.45,1.05c-.24,1.77-.48,3.66-.66,5.43a26.773,26.773,0,0,1-6.39-1.23l-.12,2.31a29.65,29.65,0,0,0,6.27,1.08c-.15,1.41-.24,2.61-.24,3.45,0,4.92,3.27,6.69,7.35,6.69,5.94,0,9.9-2.7,9.9-7.17,0-2.58-.99-4.65-3.06-6.93l-2.64.54a8.322,8.322,0,0,1,3.27,6.12c0,3.09-2.91,5.1-7.47,5.1-3.42,0-5.04-1.8-5.04-4.71,0-.72.06-1.77.18-2.97h1.08a54.34,54.34,0,0,0,5.88-.3l.06-2.28a44.12,44.12,0,0,1-6.24.39h-.57c.21-1.77.45-3.66.66-5.43h.21c2.43,0,4.17-.09,6.09-.27l.06-2.25a40.455,40.455,0,0,1-6.09.39c.18-1.26.33-2.31.42-3.09A16.739,16.739,0,0,1,420.93-23.58ZM447.18-7.29V-10.8h2.7v3.51Zm-4.32-3.51h2.7v3.51H442.8c.06-.81.06-1.62.06-2.34Zm4.5-9.87a27.081,27.081,0,0,1-1.32,3.12h-3.45a33.562,33.562,0,0,0,1.5-3.12Zm-.18,4.89h2.7v3.3h-2.7Zm-4.32,0h2.7v3.3h-2.7Zm20.67-5.91c-.18,3.48-.45,4.86-.78,5.25-.21.27-.45.3-.84.27a26.906,26.906,0,0,1-2.7-.12,5.719,5.719,0,0,1,.51,1.86,27.308,27.308,0,0,0,3.09.03,2.042,2.042,0,0,0,1.62-.75c.66-.72.9-2.64,1.14-7.59.03-.27.03-.84.03-.84H452.64v1.89h4.05c-.57,2.82-1.77,5.19-4.92,6.57v-2.43h-3.75a39.207,39.207,0,0,0,1.89-4.14l-1.32-.84-.33.09h-3.51c.24-.72.48-1.47.69-2.22l-2.07-.45a22.01,22.01,0,0,1-4.68,9.48,11.021,11.021,0,0,1,1.68,1.35,9.524,9.524,0,0,0,.63-.81v5.46c0,3.36-.21,7.8-2.22,10.95a6.567,6.567,0,0,1,1.59,1.02,17.951,17.951,0,0,0,2.31-7.89h7.2v5.4c0,.39-.15.51-.57.54-.39.03-1.74.03-3.3-.03a6.979,6.979,0,0,1,.72,1.89,11.563,11.563,0,0,0,4.02-.36c.78-.33,1.02-.96,1.02-2.04V-15.09a5.747,5.747,0,0,1,1.2,1.5c3.69-1.68,5.13-4.56,5.76-8.1ZM466.41-5.4h-5.7V-9.09h5.19v-1.92h-5.19v-3.06h-2.13v3.06h-2.61c.24-.78.45-1.59.63-2.4l-1.89-.39a17.059,17.059,0,0,1-2.76,6.72,13.343,13.343,0,0,1,1.74.93,14.984,14.984,0,0,0,1.56-2.94h3.33V-5.4h-6.3v1.92h6.3V2.13h2.13V-3.48h5.7Zm4.05-2.7a21.561,21.561,0,0,1-1.95,7.14,7.792,7.792,0,0,1,1.74.84,26.4,26.4,0,0,0,2.13-7.62Zm6.51.42a29.876,29.876,0,0,1,1.92,5.82l1.77-.6a25.988,25.988,0,0,0-2.01-5.76Zm-.75-7.11a28.044,28.044,0,0,1,1.47,2.67c-1.65.06-3.3.15-4.8.21a96.889,96.889,0,0,0,6.21-8.94l-1.92-.84c-.84,1.62-1.98,3.57-3.21,5.46a21.11,21.11,0,0,0-1.83-2.07,53.983,53.983,0,0,0,3.42-6.03l-1.98-.75a40.946,40.946,0,0,1-2.67,5.58c-.3-.27-.6-.54-.9-.78l-1.14,1.47a27.253,27.253,0,0,1,3.93,4.29,29.459,29.459,0,0,1-2.01,2.67c-.69.03-1.38.06-1.98.06l.18,2.01,4.89-.24V2.34h2.01V-10.14l2.61-.15a10.349,10.349,0,0,1,.57,1.71l1.77-.84a25.645,25.645,0,0,0-2.97-6.09Zm19.5-4.92H484.71a38.1,38.1,0,0,0,1.83-4.89l-2.25-.51a26.376,26.376,0,0,1-5.34,10.38,15.819,15.819,0,0,1,1.95,1.32,23.746,23.746,0,0,0,2.79-4.2h9.84c-.45,11.7-.96,16.26-1.95,17.28a1.471,1.471,0,0,1-1.29.45c-.75,0-2.58,0-4.59-.18a5.1,5.1,0,0,1,.72,2.19,35.094,35.094,0,0,0,4.62.06,3.086,3.086,0,0,0,2.49-1.2c1.23-1.47,1.65-6.12,2.19-19.56ZM489-6.39a30.334,30.334,0,0,0-4.2-6.84l-1.8.87a32.121,32.121,0,0,1,4.05,6.99Zm23.64-8.19a3.163,3.163,0,0,0-3.18,3.18,3.163,3.163,0,0,0,3.18,3.18,3.163,3.163,0,0,0,3.18-3.18A3.163,3.163,0,0,0,512.64-14.58ZM536.49-24.9a30.827,30.827,0,0,1-8.13,12.03,12.765,12.765,0,0,1,1.35,2.25,30.437,30.437,0,0,0,3.54-3.96V2.25h2.19V-17.79a44.57,44.57,0,0,0,3.27-6.42Zm19.65,9.57v-2.16h-8.67v-7.2h-2.19v7.2h-8.43v2.16h7.26c-1.89,4.89-5.07,9.72-8.31,12.27a12.946,12.946,0,0,1,1.68,1.71,33.5,33.5,0,0,0,7.8-11.55V2.31h2.19V-13.53c2.01,4.8,4.86,9.36,7.77,12.06a7.991,7.991,0,0,1,1.68-1.8c-3.12-2.52-6.24-7.29-8.16-12.06ZM574.92-1.38V-12.87h9.72v-2.19h-9.72v-9.93h-2.31V-1.38h-6.96V-18.51h-2.28V-1.38h-4.14V.81h26.76V-1.38Zm25.44-21.93-2.76-.27a33.492,33.492,0,0,1-.78,6.54c-1.83.15-3.57.3-4.56.33-.96.03-1.74.03-2.7,0l.27,2.58c.75-.12,2.01-.27,2.7-.36.78-.09,2.22-.24,3.81-.39-1.02,4.02-3.27,10.86-6.33,14.94l2.43.99c3.18-5.07,5.22-11.88,6.33-16.17,1.29-.12,2.49-.21,3.21-.21,1.92,0,3.18.51,3.18,3.24,0,3.24-.45,7.17-1.41,9.18a2.5,2.5,0,0,1-2.64,1.56,14.606,14.606,0,0,1-3.66-.63l.39,2.52a18.175,18.175,0,0,0,3.54.42c1.92,0,3.42-.48,4.38-2.49,1.23-2.49,1.74-7.26,1.74-10.83,0-4.08-2.19-5.1-4.89-5.1-.72,0-1.95.09-3.36.21.33-1.62.6-3.39.78-4.26C600.12-22.11,600.24-22.74,600.36-23.31Zm10.32,3.48-2.19.99c2.13,2.46,4.47,7.68,5.37,10.77l2.31-1.11A51.179,51.179,0,0,0,610.68-19.83Zm.36-4.35-1.62.66a36.729,36.729,0,0,1,2.43,4.17l1.65-.72A42.518,42.518,0,0,0,611.04-24.18Zm3.3-1.23-1.59.69a33.633,33.633,0,0,1,2.49,4.14l1.62-.72A43.291,43.291,0,0,0,614.34-25.41Zm10.5,23.97V-5.88h15.99v4.44Zm15.99-10.89v4.35H624.84v-4.35Zm0-6.57v4.47H624.84V-18.9Zm-8.46-2.13c.51-1.14,1.05-2.49,1.5-3.78l-2.55-.33a37.807,37.807,0,0,1-1.17,4.11h-7.53V2.34h2.22V.66h15.99V2.19h2.31V-21.03ZM663.66-1.74V-8.4h8.25v6.66ZM653.37-8.4h8.07v6.66h-8.07Zm8.07-8.67v6.48h-8.07v-6.48Zm10.47,0v6.48h-8.25v-6.48Zm-8.25-2.22v-5.76h-2.22v5.76H651.15V2.31h2.22V.45h18.54V2.16h2.25V-19.29Zm19.8,11.97a4.577,4.577,0,0,0-4.56,4.56,4.584,4.584,0,0,0,4.56,4.59,4.571,4.571,0,0,0,4.59-4.59A4.564,4.564,0,0,0,683.46-7.32Zm0,7.62a3.047,3.047,0,0,1-3.03-3.06,3.061,3.061,0,0,1,3.03-3.03,3.047,3.047,0,0,1,3.06,3.03A3.035,3.035,0,0,1,683.46.3Z" transform="translate(3904.96 -16164.721)" fill="#3c505a"/>
      <g id="Icon_feather-check-square" data-name="Icon feather-check-square" transform="translate(3846.183 -16195.053)">
        <path id="Path_125" data-name="Path 125" d="M13.5,18.368l5.3,5.3L36.468,6" transform="translate(0 -2.668)" fill="none" stroke="#ffbe00" stroke-linecap="round" stroke-linejoin="round" stroke-width="3"/>
        <path id="Path_126" data-name="Path 126" d="M31.5,18V28.5a3,3,0,0,1-3,3H7.5a3,3,0,0,1-3-3V7.5a3,3,0,0,1,3-3H24" fill="none" stroke="#a9a9a9" stroke-linecap="round" stroke-linejoin="round" stroke-width="3"/>
      </g>
    </g>
    <g id="Group_401" data-name="Group 401" transform="translate(17 59)">
      <path id="Path_170" data-name="Path 170" d="M1.44-12.9v2.43H28.68V-12.9ZM58.2-20.1v-2.04H47.01v-2.94H44.73v2.94H33.72v8.58c0,4.32-.21,10.38-2.67,14.64a8.624,8.624,0,0,1,1.83,1.26c2.58-4.53,2.94-11.28,2.94-15.9V-20.1ZM51-14.91v3.15H43.74v-3.15Zm2.16,4.95v-4.95h4.83v-1.83H53.16v-2.61H51v2.61H43.74v-2.61H41.61v2.61H36.84v1.83h4.77v4.95Zm-.48,3.72a13.788,13.788,0,0,1-5.07,3.81,13.438,13.438,0,0,1-4.86-3.81Zm1.86-1.92-.39.09H37.2v1.83h4.62l-1.2.45A15.1,15.1,0,0,0,45.33-1.5,40.7,40.7,0,0,1,36.09.42a7.709,7.709,0,0,1,.93,1.86A40.634,40.634,0,0,0,47.58-.3a34.221,34.221,0,0,0,9.87,2.64A6.614,6.614,0,0,1,58.74.45a38.149,38.149,0,0,1-8.82-1.89,14.818,14.818,0,0,0,6.03-5.97Zm21.3,1.41-2.25-.21a16.827,16.827,0,0,0-.45,3.54c0,2.97,2.58,4.44,7.32,4.44A39.516,39.516,0,0,0,86.25.57l.09-2.43a28.876,28.876,0,0,1-5.85.6c-4.29,0-5.07-1.38-5.07-2.79A10.608,10.608,0,0,1,75.84-6.75ZM72.39-23.16l-2.88-.24a11.771,11.771,0,0,1-.09,2.46c-.09.6-.24,1.56-.45,2.61-1.17.09-2.25.15-3.24.15a27.177,27.177,0,0,1-3.6-.21l.09,2.34c1.08.06,2.16.12,3.48.12.84,0,1.77-.03,2.76-.09-.24,1.08-.51,2.22-.78,3.21C66.57-8.58,64.44-2.49,62.64.6l2.64.9a90.784,90.784,0,0,0,4.68-13.74c.36-1.32.66-2.7.96-4.02a57.609,57.609,0,0,0,6.24-1.02v-2.34a50.13,50.13,0,0,1-5.76,1.05c.15-.81.33-1.56.45-2.22C71.97-21.39,72.21-22.53,72.39-23.16Zm2.82,9.12v2.25a49.306,49.306,0,0,1,5.58-.33,37.931,37.931,0,0,1,5.04.36l.06-2.28a48.019,48.019,0,0,0-5.19-.27C78.78-14.31,76.8-14.19,75.21-14.04Zm7.44-8.22-1.59.69a34.284,34.284,0,0,1,2.43,4.17l1.62-.72A33.454,33.454,0,0,0,82.65-22.26Zm3.3-1.23-1.56.69a31.9,31.9,0,0,1,2.49,4.17l1.62-.72A38.589,38.589,0,0,0,85.95-23.49Zm26.88.09h-2.79a18.039,18.039,0,0,1,.27,1.8c.06.75.15,2.76.18,4.65-1.26.06-2.55.09-3.78.09a33.638,33.638,0,0,1-4.83-.33v2.4c1.29.09,3.42.18,4.86.18,1.23,0,2.52-.03,3.81-.09v.93c0,5.76-.18,9.15-3.39,11.97A9.838,9.838,0,0,1,104.25.06l2.19,1.71c6.36-3.75,6.36-8.64,6.36-15.54v-1.05c1.8-.12,3.48-.3,4.86-.51v-2.46a35.525,35.525,0,0,1-4.89.69c-.03-1.86-.06-3.87-.03-4.53A15.455,15.455,0,0,1,112.83-23.4Zm-15.18.45-2.79-.27a12.457,12.457,0,0,1-.15,2.01A81.029,81.029,0,0,0,93.57-9.24,33.424,33.424,0,0,0,95.16.27L97.2.03c-.03-.3-.06-.72-.09-1.02a4.528,4.528,0,0,1,.15-1.35c.33-1.47,1.23-4.53,1.95-6.63l-1.29-.78c-.57,1.5-1.2,3.33-1.62,4.59-1.14-4.92-.12-11.49.84-15.84C97.29-21.57,97.5-22.38,97.65-22.95Zm34.68-1.02h-2.67a15.82,15.82,0,0,1,.15,2.13c0,.54-.03,1.86-.03,3.42-.84.06-1.62.09-2.31.09a27.76,27.76,0,0,1-3.84-.24l.06,2.28a32.954,32.954,0,0,0,3.84.15c.63,0,1.38-.03,2.22-.09-.03,1.32-.03,2.73-.03,3.93v1.71c-3.45,1.47-6.57,4.08-6.57,6.57,0,2.67,3.9,4.98,6.24,4.98,1.62,0,2.64-.9,2.64-3.69,0-1.29-.06-3.96-.12-6.51a19.652,19.652,0,0,1,6.54-1.17c2.85,0,5.16,1.38,5.16,3.93,0,2.76-2.4,4.17-5.04,4.68a15.342,15.342,0,0,1-3.51.21L135.9.84a22.749,22.749,0,0,0,3.72-.42c4.11-.99,6.39-3.3,6.39-6.93,0-3.6-3.15-5.97-7.53-5.97a22.688,22.688,0,0,0-6.6,1.11v-1.05c0-1.2.03-2.64.06-4.05a55.074,55.074,0,0,0,6.3-1.05l-.06-2.34a40.345,40.345,0,0,1-6.18,1.2c.03-1.35.09-2.52.12-3.24A19.246,19.246,0,0,1,132.33-23.97Zm9.3,3.33-1.08,1.8a38.055,38.055,0,0,1,6.72,4.5l1.23-1.92A54.53,54.53,0,0,0,141.63-20.64ZM125.49-4.14c0-1.35,1.83-3.09,4.29-4.23.03,2.19.09,4.23.09,5.31,0,.99-.42,1.47-1.11,1.47C127.59-1.59,125.49-2.76,125.49-4.14ZM178.8-21.06a18.943,18.943,0,0,0-3.09-3.81l-1.56.81a21.126,21.126,0,0,1,3.03,3.96Zm-17.85-3h-8.22v1.8h8.22Zm-1.8,17.79v5.04h-4.71V-6.27Zm1.92-1.83h-8.52V1.95h1.89V.57h6.63Zm-8.49-2.22h8.52v-1.8h-8.52Zm0-3.99h8.52v-1.77h-8.52Zm-1.32-3.99h10.56v-1.83H151.26Zm16.5,15.42v-8.13h3.06v-1.92h-8.28v1.92h3.18v8.55c-1.41.3-2.7.54-3.75.75l.51,2.04c2.58-.6,5.97-1.35,9.18-2.13l-.12-1.86Zm10.68-14.25v-2.01h-4.68q-.045-2.835,0-5.94H171.6c.03,2.07.03,4.05.06,5.94H162.3v2.01h9.42c.27,11.82,1.17,19.32,4.83,19.44.99.03,2.07-1.08,2.61-5.43a8.05,8.05,0,0,1-1.65-1.26c-.12,2.43-.45,3.96-.93,3.93-1.77-.12-2.61-6.72-2.79-16.68Zm11.76-6.24-3.03-.03a15.832,15.832,0,0,1,.24,3.06c0,3.15-.3,10.74-.3,15.18,0,4.89,2.97,6.69,7.29,6.69A15.078,15.078,0,0,0,206.94-5.1l-1.71-2.04c-2.16,3.12-5.25,6.21-10.74,6.21-2.85,0-4.92-1.17-4.92-4.47,0-4.47.21-11.55.36-14.94A25.83,25.83,0,0,1,190.2-23.37Zm26.49,2.43L213.78-21a13.532,13.532,0,0,1,.21,2.67c0,1.74.06,5.4.33,8.01.81,7.77,3.54,10.59,6.39,10.59,2.01,0,3.84-1.74,5.64-6.84L224.46-8.7c-.78,3-2.19,6.12-3.72,6.12-2.13,0-3.6-3.33-4.08-8.34-.21-2.49-.24-5.22-.21-7.11A22.842,22.842,0,0,1,216.69-20.94Zm15.63.84-2.34.81c2.88,3.51,4.68,9.66,5.22,15.09l2.4-.99C237.15-10.26,234.99-16.62,232.32-20.1ZM256.74-7.17l-2.25-.21a18.751,18.751,0,0,0-.45,3.54c0,2.97,2.58,4.41,7.32,4.41a39.883,39.883,0,0,0,5.79-.42l.09-2.43a28.876,28.876,0,0,1-5.85.6c-4.29,0-5.07-1.38-5.07-2.79A10.608,10.608,0,0,1,256.74-7.17Zm-3.45-16.44-2.88-.24a11.993,11.993,0,0,1-.09,2.49c-.09.6-.24,1.56-.45,2.61-1.17.09-2.25.15-3.24.15a27.177,27.177,0,0,1-3.6-.21l.09,2.34c1.08.06,2.16.12,3.48.12.84,0,1.77-.03,2.76-.09-.24,1.08-.51,2.22-.78,3.21C247.47-9,245.34-2.91,243.54.18l2.64.9a91.94,91.94,0,0,0,4.68-13.74c.36-1.32.69-2.7.96-4.02a57.61,57.61,0,0,0,6.24-1.02v-2.37a44.416,44.416,0,0,1-5.76,1.08c.18-.81.33-1.59.45-2.22C252.87-21.81,253.11-22.95,253.29-23.61Zm2.82,9.15v2.22a49.3,49.3,0,0,1,5.58-.3,37.931,37.931,0,0,1,5.04.36l.06-2.28a48.019,48.019,0,0,0-5.19-.27C259.68-14.73,257.7-14.61,256.11-14.46Zm29.73,7.71-2.25-.21a16.827,16.827,0,0,0-.45,3.54c0,2.97,2.58,4.44,7.32,4.44a39.516,39.516,0,0,0,5.79-.45l.09-2.43a28.876,28.876,0,0,1-5.85.6c-4.29,0-5.07-1.38-5.07-2.79A10.608,10.608,0,0,1,285.84-6.75Zm-3.45-16.41-2.88-.24a11.771,11.771,0,0,1-.09,2.46c-.09.6-.24,1.56-.45,2.61-1.17.09-2.25.15-3.24.15a27.177,27.177,0,0,1-3.6-.21l.09,2.34c1.08.06,2.16.12,3.48.12.84,0,1.77-.03,2.76-.09-.24,1.08-.51,2.22-.78,3.21C276.57-8.58,274.44-2.49,272.64.6l2.64.9a90.784,90.784,0,0,0,4.68-13.74c.36-1.32.66-2.7.96-4.02a57.611,57.611,0,0,0,6.24-1.02v-2.34a50.13,50.13,0,0,1-5.76,1.05c.15-.81.33-1.56.45-2.22C281.97-21.39,282.21-22.53,282.39-23.16Zm2.82,9.12v2.25a49.306,49.306,0,0,1,5.58-.33,37.932,37.932,0,0,1,5.04.36l.06-2.28a48.019,48.019,0,0,0-5.19-.27C288.78-14.31,286.8-14.19,285.21-14.04Zm7.44-8.22-1.59.69a34.281,34.281,0,0,1,2.43,4.17l1.62-.72A33.451,33.451,0,0,0,292.65-22.26Zm3.3-1.23-1.56.69a31.9,31.9,0,0,1,2.49,4.17l1.62-.72A38.59,38.59,0,0,0,295.95-23.49Zm10.74,2.55L303.78-21a13.533,13.533,0,0,1,.21,2.67c0,1.74.06,5.4.33,8.01.81,7.77,3.54,10.59,6.39,10.59,2.01,0,3.84-1.74,5.64-6.84L314.46-8.7c-.78,3-2.19,6.12-3.72,6.12-2.13,0-3.6-3.33-4.08-8.34-.21-2.49-.24-5.22-.21-7.11A22.842,22.842,0,0,1,306.69-20.94Zm15.63.84-2.34.81c2.88,3.51,4.68,9.66,5.22,15.09l2.4-.99C327.15-10.26,324.99-16.62,322.32-20.1Zm9.33.18.27,2.61c3.24-.69,10.89-1.41,14.1-1.77a12.186,12.186,0,0,0-5.61,10.14c0,6.69,6.33,9.66,11.88,9.87l.87-2.49c-4.89-.18-10.35-2.04-10.35-7.92a10.552,10.552,0,0,1,6.87-9.48,25.128,25.128,0,0,1,5.88-.48v-2.4c-2.01.09-4.83.24-8.1.54-5.52.45-11.19,1.02-13.14,1.23C333.75-20.01,332.79-19.95,331.65-19.92Zm36.72,1.23a33.2,33.2,0,0,0-5.49-4.41l-1.59,1.59a34.884,34.884,0,0,1,5.4,4.59Zm-1.05,7.83c-2.55,2.64-5.25,5.4-6.99,7.02l1.44,1.83c2.04-1.92,4.53-4.53,6.75-6.93Zm11.22-6.66h6.18a32.973,32.973,0,0,1-2.31,5.58c.54.21,1.38.69,1.86.9a39.348,39.348,0,0,0,3.3-7.92l-1.62-.9-.45.12H373.41c.54-1.56.99-3.18,1.41-4.86l-2.34-.42c-1.02,4.77-2.85,9.39-5.37,12.33a13.293,13.293,0,0,1,2.13,1.26,28.309,28.309,0,0,0,3.33-6.09h3.66v3.78c0,2.79-1.56,10.62-10.65,14.22a9.9,9.9,0,0,1,1.38,1.8A17.244,17.244,0,0,0,377.37-9.57a16.954,16.954,0,0,0,9.24,11.85c.36-.54,1.05-1.47,1.44-1.98a15.84,15.84,0,0,1-9.51-14.04Zm29.1,9.39h-7.26v-6.84h7.26Zm-9.39-8.85V-6.15h11.58V-16.98ZM393.93-1.44V-21.63h20.25V-1.44Zm-2.25-22.41V2.28h2.25V.66h20.25V2.28h2.37V-23.85ZM446.34-10.5c0-6.09-4.47-11.04-11.49-11.04-7.32,0-13.11,5.7-13.11,12.21,0,4.95,2.67,8.01,5.34,8.01,2.79,0,5.16-3.15,6.99-9.33a59.012,59.012,0,0,0,1.8-8.64,8.354,8.354,0,0,1,8.01,8.7c0,5.19-3.78,8.04-7.62,8.91a22.661,22.661,0,0,1-2.58.39L435.09.93C442.2,0,446.34-4.2,446.34-10.5Zm-22.26.96c0-4.08,3.54-9,9.3-9.72a49.015,49.015,0,0,1-1.68,8.1c-1.53,5.07-3.12,7.08-4.53,7.08C425.82-4.08,424.08-5.76,424.08-9.54Zm36.78-11.67c.09.36.3,1.53.63,3.15-2.82.45-5.43.84-6.6.96-.96.12-1.74.18-2.49.21l.51,2.7c.9-.21,1.59-.36,2.43-.51,1.14-.21,3.75-.63,6.6-1.08.36,1.86.78,3.99,1.2,6.03-3.42.54-6.69,1.05-8.19,1.26-.78.12-1.95.24-2.64.27l.54,2.61c.63-.18,1.47-.33,2.64-.54,1.47-.27,4.68-.81,8.07-1.38.57,2.97,1.05,5.4,1.17,6.06.21.9.3,1.8.45,2.82l2.73-.51c-.27-.84-.51-1.86-.72-2.73-.15-.69-.63-3.09-1.23-6.03,2.94-.45,5.73-.9,7.38-1.17,1.11-.18,2.07-.33,2.7-.39L475.56-12c-.66.18-1.5.36-2.67.57-1.5.27-4.35.78-7.38,1.26-.39-2.01-.81-4.14-1.2-6,2.88-.45,5.61-.9,6.99-1.11.78-.12,1.71-.24,2.16-.3l-.51-2.52a18.818,18.818,0,0,1-2.13.51c-1.26.24-4.02.69-6.93,1.17-.36-1.68-.57-2.91-.63-3.24-.09-.66-.24-1.5-.27-2.07l-2.7.48A14.055,14.055,0,0,1,460.86-21.21Zm29.79,2.85-2.58.63a7.455,7.455,0,0,1,.72,1.8c.18.57.54,1.86.99,3.45-1.83.33-3.24.6-3.66.66-.9.15-1.65.27-2.49.33l.6,2.28c.81-.18,3.27-.66,6.09-1.23,1.17,4.29,2.61,9.6,3,10.95a16.758,16.758,0,0,1,.45,2.19l2.55-.66c-.18-.54-.48-1.47-.66-2.04-.39-1.32-1.86-6.6-3.06-10.92,4.17-.84,8.4-1.68,9.09-1.8a27.692,27.692,0,0,1-5.16,6.18l2.13,1.05a41.5,41.5,0,0,0,6.39-8.76l-1.5-1.05a6.339,6.339,0,0,1-1.14.36c-1.02.24-6.12,1.23-10.35,2.04-.45-1.59-.81-2.88-.99-3.54C490.89-17.19,490.74-17.85,490.65-18.36Zm25.26-3.63-1.71,1.83a62.307,62.307,0,0,1,7.47,6.27l1.89-1.89A65.7,65.7,0,0,0,515.91-21.99Zm-2.58,20.1L514.92.57a32.884,32.884,0,0,0,11.79-4.65,29.974,29.974,0,0,0,10.08-10.68l-1.44-2.55A28.261,28.261,0,0,1,525.33-6.27,30.977,30.977,0,0,1,513.33-1.89Zm34.95-1.98c0,2.97,1.02,4.41,6.6,4.41a64.5,64.5,0,0,0,9.42-.6l.12-2.58a48.191,48.191,0,0,1-9.36.87c-3.57,0-4.35-.66-4.35-2.73v-8.94c5.31-1.08,10.83-2.19,11.34-2.28a28.248,28.248,0,0,1-5.34,7.14l2.1,1.26a45.666,45.666,0,0,0,6.15-8.73c.21-.39.51-.9.72-1.2l-1.77-1.38a6.075,6.075,0,0,1-1.59.54c-1.26.27-6.51,1.35-11.61,2.34v-4.68a17.1,17.1,0,0,1,.21-2.76h-2.85a16.845,16.845,0,0,1,.21,2.76v5.13c-3.18.6-6.03,1.11-7.38,1.29l.45,2.49c1.23-.27,3.9-.81,6.93-1.44ZM584.82-.63,586.41.69A6.418,6.418,0,0,1,587.43,0a29.824,29.824,0,0,0,10.23-8.31l-1.41-2.04a23.051,23.051,0,0,1-8.76,7.38V-20.28a18.557,18.557,0,0,1,.12-2.22h-2.76a14.234,14.234,0,0,1,.18,2.22V-2.31A7.14,7.14,0,0,1,584.82-.63ZM571.08-.78,573.33.75a16.767,16.767,0,0,0,5.34-8.25c.81-3,.93-9.42.93-12.75,0-.9.12-1.8.15-2.16h-2.76a11.053,11.053,0,0,1,.21,2.19c0,3.33-.03,9.33-.9,12.06A14.24,14.24,0,0,1,571.08-.78Zm41.31-22.8-2.7-.18a10.29,10.29,0,0,1-.03,2.13c-.06.87-.18,1.95-.33,3.15a29.746,29.746,0,0,1-6.57-1.11l-.12,2.19a41.376,41.376,0,0,0,6.45,1.05c-.24,1.77-.48,3.66-.66,5.43a26.773,26.773,0,0,1-6.39-1.23l-.12,2.31a29.65,29.65,0,0,0,6.27,1.08c-.15,1.41-.24,2.61-.24,3.45,0,4.92,3.27,6.69,7.35,6.69,5.94,0,9.9-2.7,9.9-7.17,0-2.58-.99-4.65-3.06-6.93l-2.64.54a8.322,8.322,0,0,1,3.27,6.12c0,3.09-2.91,5.1-7.47,5.1-3.42,0-5.04-1.8-5.04-4.71,0-.72.06-1.77.18-2.97h1.08a54.34,54.34,0,0,0,5.88-.3l.06-2.28a44.12,44.12,0,0,1-6.24.39h-.57c.21-1.77.45-3.66.66-5.43h.21c2.43,0,4.17-.09,6.09-.27l.06-2.25a40.455,40.455,0,0,1-6.09.39c.18-1.26.33-2.31.42-3.09A16.744,16.744,0,0,1,612.39-23.58Zm31.53,9.36v6.84h-7.83v-6.84Zm2.19,8.97V-16.38H633.93V-2.85h2.16v-2.4Zm11.31-17.73H630.87v2.22h20.58V-.93c0,.63-.21.84-.87.87-.69.03-3.15.06-5.55-.06a11.23,11.23,0,0,1,.96,2.37c2.94,0,5.01,0,6.21-.42,1.14-.33,1.53-1.14,1.53-2.73V-20.76h3.69Zm26.94,10.95c2.37,0,3.06-.96,3.33-4.59a6.26,6.26,0,0,1-2.04-.87c-.12,2.97-.33,3.45-1.47,3.45h-4.77c-1.35,0-1.59-.18-1.59-1.14v-3.03a62.718,62.718,0,0,0,8.43-3.03l-1.5-1.62a49.917,49.917,0,0,1-6.93,2.82v-5.01h-2.19v9.9c0,2.46.75,3.12,3.6,3.12ZM664.29-5.55V-8.31h6.33v2.76Zm6.33-7.08v2.58h-6.33v-2.58Zm2.19-1.86H662.22V2.25h2.07V-3.84h6.33V-.3c0,.39-.09.48-.48.48-.42.03-1.68.06-3.09,0a8.495,8.495,0,0,1,.72,2.01,12.484,12.484,0,0,0,4.02-.36c.81-.36,1.02-.99,1.02-2.1Zm-3.69-7.8a34.3,34.3,0,0,1,2.01,3.09l-6.15.27c.93-1.71,1.89-3.81,2.7-5.64l-2.25-.54a47.045,47.045,0,0,1-2.76,6.27c-.84.03-1.59.06-2.28.09l.21,2.1c3.06-.18,7.38-.39,11.58-.63a16.169,16.169,0,0,1,.78,1.77l1.89-.84a29.148,29.148,0,0,0-3.9-6.66ZM679.5.06c-1.41,0-1.68-.18-1.68-1.17V-4.59a43.331,43.331,0,0,0,8.76-3.33L685.11-9.6a33.547,33.547,0,0,1-7.29,3.15v-4.74h-2.19V-1.11c0,2.46.78,3.12,3.63,3.12h5.34c2.49,0,3.15-1.05,3.45-5.07a5.959,5.959,0,0,1-2.01-.84c-.15,3.36-.36,3.96-1.62,3.96Zm11.97-19.8.27,2.61c3.24-.69,10.89-1.41,14.1-1.77a12.186,12.186,0,0,0-5.61,10.14c0,6.69,6.33,9.66,11.88,9.87l.87-2.49c-4.89-.18-10.35-2.04-10.35-7.89a10.559,10.559,0,0,1,6.87-9.51,25.128,25.128,0,0,1,5.88-.48v-2.4c-2.01.09-4.83.27-8.1.54-5.52.45-11.19,1.02-13.14,1.23C693.57-19.83,692.61-19.77,691.47-19.74Zm19.59,4.17-1.53.66a27.848,27.848,0,0,1,2.46,4.23l1.53-.72A35.607,35.607,0,0,0,711.06-15.57Zm3.27-1.26-1.47.69a27.809,27.809,0,0,1,2.52,4.2l1.56-.75A39.617,39.617,0,0,0,714.33-16.83Zm23.58-6.93h-2.73c.03.24.15,1.11.18,1.89.03.42.06,1.14.06,1.98-4.47.06-10.11.24-13.44.3l.06,2.31c3.75-.27,8.85-.48,13.41-.51.03,1.05.03,2.13.03,3.03a6.006,6.006,0,0,0-2.01-.33,5.236,5.236,0,0,0-5.28,5.22,4.776,4.776,0,0,0,4.92,5.01,4.226,4.226,0,0,0,2.61-.81c-1.2,2.73-3.96,4.41-7.95,5.31l2.01,1.98c6.99-2.1,8.97-6.6,8.97-10.65a7.29,7.29,0,0,0-.96-3.84c-.03-1.38-.06-3.24-.06-4.95h.42c4.38,0,7.11.06,8.79.15l.03-2.22c-1.44,0-5.13-.03-8.79-.03h-.45c0-.81.03-1.5.03-1.95C737.79-22.26,737.85-23.43,737.91-23.76ZM730.44-9.9a3.057,3.057,0,0,1,3.03-3.18,2.689,2.689,0,0,1,2.67,1.89c.27,2.85-.87,4.26-2.64,4.26A2.889,2.889,0,0,1,730.44-9.9Zm21.48,2.58a4.577,4.577,0,0,0-4.56,4.56,4.584,4.584,0,0,0,4.56,4.59,4.571,4.571,0,0,0,4.59-4.59A4.564,4.564,0,0,0,751.92-7.32Zm0,7.62a3.047,3.047,0,0,1-3.03-3.06,3.061,3.061,0,0,1,3.03-3.03,3.047,3.047,0,0,1,3.06,3.03A3.035,3.035,0,0,1,751.92.3Z" transform="translate(3904.96 -16164.721)" fill="#3c505a"/>
      <g id="Icon_feather-check-square-2" data-name="Icon feather-check-square" transform="translate(3846.183 -16195.053)">
        <path id="Path_125-2" data-name="Path 125" d="M13.5,18.368l5.3,5.3L36.468,6" transform="translate(0 -2.668)" fill="none" stroke="#ffbe00" stroke-linecap="round" stroke-linejoin="round" stroke-width="3"/>
        <path id="Path_126-2" data-name="Path 126" d="M31.5,18V28.5a3,3,0,0,1-3,3H7.5a3,3,0,0,1-3-3V7.5a3,3,0,0,1,3-3H24" fill="none" stroke="#a9a9a9" stroke-linecap="round" stroke-linejoin="round" stroke-width="3"/>
      </g>
    </g>
    <g id="Group_402" data-name="Group 402" transform="translate(17 118)">
      <path id="Path_169" data-name="Path 169" d="M12.33-23.97H9.66a15.819,15.819,0,0,1,.15,2.13c0,.54-.03,1.86-.03,3.42-.84.06-1.62.09-2.31.09a27.76,27.76,0,0,1-3.84-.24l.06,2.28a32.954,32.954,0,0,0,3.84.15c.63,0,1.38-.03,2.22-.09-.03,1.32-.03,2.73-.03,3.93v1.71C6.27-9.12,3.15-6.51,3.15-4.02,3.15-1.35,7.05.96,9.39.96c1.62,0,2.64-.9,2.64-3.69,0-1.29-.06-3.96-.12-6.51a19.652,19.652,0,0,1,6.54-1.17c2.85,0,5.16,1.38,5.16,3.93,0,2.76-2.4,4.17-5.04,4.68a15.342,15.342,0,0,1-3.51.21L15.9.84A22.749,22.749,0,0,0,19.62.42c4.11-.99,6.39-3.3,6.39-6.93,0-3.6-3.15-5.97-7.53-5.97a22.688,22.688,0,0,0-6.6,1.11v-1.05c0-1.2.03-2.64.06-4.05a55.074,55.074,0,0,0,6.3-1.05l-.06-2.34A40.346,40.346,0,0,1,12-18.66c.03-1.35.09-2.52.12-3.24A19.246,19.246,0,0,1,12.33-23.97Zm9.3,3.33-1.08,1.8a38.055,38.055,0,0,1,6.72,4.5l1.23-1.92A54.53,54.53,0,0,0,21.63-20.64ZM5.49-4.14c0-1.35,1.83-3.09,4.29-4.23.03,2.19.09,4.23.09,5.31,0,.99-.42,1.47-1.11,1.47C7.59-1.59,5.49-2.76,5.49-4.14ZM54.18-21.57v3.84H36.57v-3.84Zm2.19,5.88v-7.92H34.35v8.7c0,4.77-.27,11.37-3.27,16.02a11.107,11.107,0,0,1,1.95,1.14c3.12-4.83,3.54-12.12,3.54-17.16v-.78ZM48.51-.81V-4.62h6.03V-.81ZM40.56-4.62h5.79V-.81H40.56Zm5.79-5.4v3.57H40.56v-3.57Zm8.19,0v3.57H48.51v-3.57Zm-6.03-2.01v-3.42H46.35v3.42H38.43V2.25h2.13V1.2H54.54V2.25h2.19V-12.03ZM82.83-23.4H80.04a18.039,18.039,0,0,1,.27,1.8c.06.75.15,2.76.18,4.65-1.26.06-2.55.09-3.78.09a33.638,33.638,0,0,1-4.83-.33v2.4c1.29.09,3.42.18,4.86.18,1.23,0,2.52-.03,3.81-.09v.93c0,5.76-.18,9.15-3.39,11.97A9.838,9.838,0,0,1,74.25.06l2.19,1.71C82.8-1.98,82.8-6.87,82.8-13.77v-1.05c1.8-.12,3.48-.3,4.86-.51v-2.46a35.525,35.525,0,0,1-4.89.69c-.03-1.86-.06-3.87-.03-4.53A15.455,15.455,0,0,1,82.83-23.4Zm-15.18.45-2.79-.27a12.457,12.457,0,0,1-.15,2.01A81.029,81.029,0,0,0,63.57-9.24,33.424,33.424,0,0,0,65.16.27L67.2.03c-.03-.3-.06-.72-.09-1.02a4.528,4.528,0,0,1,.15-1.35c.33-1.47,1.23-4.53,1.95-6.63l-1.29-.78c-.57,1.5-1.2,3.33-1.62,4.59-1.14-4.92-.12-11.49.84-15.84C67.29-21.57,67.5-22.38,67.65-22.95Zm43.95,9.18v-1.08h3.3c1.32,0,2.43.06,2.76.09v-2.52a22.058,22.058,0,0,1-2.76.15h-3.3v-3.75a22.745,22.745,0,0,1,.15-2.46h-2.7a16.726,16.726,0,0,1,.15,2.46v3.75h-8.55v-3.84a18.517,18.517,0,0,1,.15-2.19H98.13a18.528,18.528,0,0,1,.12,2.19v3.84H95.01a21.994,21.994,0,0,1-3-.21v2.61c.36-.03,1.71-.12,3-.12h3.24v4.86c0,1.14-.09,2.43-.12,2.73h2.64c-.03-.3-.12-1.62-.12-2.73v-4.86h8.55v1.26c0,8.4-2.73,10.98-8.19,13.08l2.01,1.89C109.89-1.68,111.6-5.79,111.6-13.77Zm10.98,2.94,1.2,2.34a59.258,59.258,0,0,0,11.43-4.89v11.1a27.829,27.829,0,0,1-.18,3.21h2.94a22.639,22.639,0,0,1-.18-3.21V-14.94a49.079,49.079,0,0,0,8.1-6.69l-2.01-1.86a35.745,35.745,0,0,1-8.19,7.05A49.592,49.592,0,0,1,122.58-10.83Zm42.93-12.48-2.79-.9a10.274,10.274,0,0,1-.93,2.37,24.73,24.73,0,0,1-9.42,10.14l2.07,1.56a30.413,30.413,0,0,0,7.62-7.38H172.2a24.664,24.664,0,0,1-4.8,9.36A24.269,24.269,0,0,1,155.43-.63l2.16,1.95a26.3,26.3,0,0,0,11.94-8.16,29.1,29.1,0,0,0,5.34-10.32,9.426,9.426,0,0,1,.69-1.59l-2.01-1.23a5.021,5.021,0,0,1-1.95.3h-8.13a13.483,13.483,0,0,0,.72-1.26A22.683,22.683,0,0,1,165.51-23.31ZM194.22-.63,195.81.69A6.42,6.42,0,0,1,196.83,0a29.824,29.824,0,0,0,10.23-8.31l-1.41-2.04a23.051,23.051,0,0,1-8.76,7.38V-20.28a18.559,18.559,0,0,1,.12-2.22h-2.76a14.238,14.238,0,0,1,.18,2.22V-2.31A7.143,7.143,0,0,1,194.22-.63ZM180.48-.78,182.73.75a16.767,16.767,0,0,0,5.34-8.25c.81-3,.93-9.42.93-12.75,0-.9.12-1.8.15-2.16h-2.76a11.052,11.052,0,0,1,.21,2.19c0,3.33-.03,9.33-.9,12.06A14.239,14.239,0,0,1,180.48-.78Zm41.31-22.8-2.7-.18a10.292,10.292,0,0,1-.03,2.13c-.06.87-.18,1.95-.33,3.15a29.746,29.746,0,0,1-6.57-1.11l-.12,2.19a41.375,41.375,0,0,0,6.45,1.05c-.24,1.77-.48,3.66-.66,5.43a26.773,26.773,0,0,1-6.39-1.23l-.12,2.31a29.65,29.65,0,0,0,6.27,1.08c-.15,1.41-.24,2.61-.24,3.45,0,4.92,3.27,6.69,7.35,6.69,5.94,0,9.9-2.7,9.9-7.17,0-2.58-.99-4.65-3.06-6.93l-2.64.54a8.322,8.322,0,0,1,3.27,6.12c0,3.09-2.91,5.1-7.47,5.1-3.42,0-5.04-1.8-5.04-4.71,0-.72.06-1.77.18-2.97h1.08a54.341,54.341,0,0,0,5.88-.3l.06-2.28a44.12,44.12,0,0,1-6.24.39h-.57c.21-1.77.45-3.66.66-5.43h.21c2.43,0,4.17-.09,6.09-.27l.06-2.25a40.455,40.455,0,0,1-6.09.39c.18-1.26.33-2.31.42-3.09A16.745,16.745,0,0,1,221.79-23.58Zm28.32,3.66a8.735,8.735,0,0,1-4.71,8.43,7.035,7.035,0,0,1,1.62,1.5c4.71-2.85,5.19-6.84,5.19-9.9v-.18h4.14v6.57c0,.33-.09.42-.48.45-.39,0-1.68,0-3.18-.03a8.2,8.2,0,0,1,.63,1.95,14.641,14.641,0,0,0,4.17-.3c.84-.36,1.02-.93,1.02-2.04v-6.6h8.1v-2.04h-12v-2.97h-2.25v2.97H240.51v2.04h9.6Zm9.96,2.31a34.424,34.424,0,0,1,5.19,5.94l1.86-1.17a34.519,34.519,0,0,0-5.34-5.79Zm-15.06-.9a14.025,14.025,0,0,1-5.04,5.25,16.1,16.1,0,0,1,1.53,1.32,18.089,18.089,0,0,0,5.61-5.97Zm4.11,10.98h9.84a16.526,16.526,0,0,1-5.28,4.2,14.989,14.989,0,0,1-4.74-4.02Zm11.7-1.95-.42.09h-9.3a21.929,21.929,0,0,0,1.56-1.83l-2.4-.42a21.123,21.123,0,0,1-9.51,6.72,6.689,6.689,0,0,1,1.41,1.62,29.562,29.562,0,0,0,5.22-2.88,17.928,17.928,0,0,0,4.08,3.87A45.49,45.49,0,0,1,240,.42a5.682,5.682,0,0,1,1.08,1.95,44.689,44.689,0,0,0,12.51-3.42,34.654,34.654,0,0,0,12.36,3.39A7.323,7.323,0,0,1,267.24.3,38.043,38.043,0,0,1,255.9-2.25a17.474,17.474,0,0,0,6.39-6.24Zm14.58.18v-3.03h7.14v1.2c0,.6,0,1.23-.06,1.83Zm0-7.8h7.14v3H275.4Zm16.98,0v3h-7.56v-3Zm0,7.8h-7.62c.03-.57.06-1.2.06-1.8v-1.23h7.56Zm2.19,1.86V-18.96h-9.75v-2.52h11.64v-2.01H270.54v2.01h12v2.52h-9.27V-7.44h8.91a7.293,7.293,0,0,1-2.43,3.96,12.649,12.649,0,0,1-3.63-3.72l-1.86.75a14.5,14.5,0,0,0,3.69,4.23A26.139,26.139,0,0,1,270,.36a9.321,9.321,0,0,1,1.32,1.95,25.057,25.057,0,0,0,8.7-3.24c4.08,2.16,9.54,2.82,16.47,3.12A5.975,5.975,0,0,1,297.42,0c-6.66-.18-11.82-.63-15.6-2.34a9.707,9.707,0,0,0,2.67-5.1Zm11.13,6V-5.88h15.99v4.44Zm15.99-10.89v4.35H305.7v-4.35Zm0-6.57v4.47H305.7V-18.9Zm-8.46-2.13c.51-1.14,1.05-2.49,1.5-3.78l-2.55-.33a37.814,37.814,0,0,1-1.17,4.11h-7.53V2.34h2.22V.66h15.99V2.19H324V-21.03ZM344.52-1.74V-8.4h8.25v6.66ZM334.23-8.4h8.07v6.66h-8.07Zm8.07-8.67v6.48h-8.07v-6.48Zm10.47,0v6.48h-8.25v-6.48Zm-8.25-2.22v-5.76H342.3v5.76H332.01V2.31h2.22V.45h18.54V2.16h2.25V-19.29Zm16.35-.45.27,2.61c3.24-.69,10.89-1.41,14.1-1.77a12.186,12.186,0,0,0-5.61,10.14c0,6.69,6.33,9.66,11.88,9.87l.87-2.49c-4.89-.18-10.35-2.04-10.35-7.89a10.559,10.559,0,0,1,6.87-9.51,25.128,25.128,0,0,1,5.88-.48v-2.4c-2.01.09-4.83.27-8.1.54-5.52.45-11.19,1.02-13.14,1.23C362.97-19.83,362.01-19.77,360.87-19.74Zm19.59,4.17-1.53.66a27.851,27.851,0,0,1,2.46,4.23l1.53-.72A35.607,35.607,0,0,0,380.46-15.57Zm3.27-1.26-1.47.69a27.807,27.807,0,0,1,2.52,4.2l1.56-.75A39.622,39.622,0,0,0,383.73-16.83Zm23.58-6.93h-2.73c.03.24.15,1.11.18,1.89.03.42.06,1.14.06,1.98-4.47.06-10.11.24-13.44.3l.06,2.31c3.75-.27,8.85-.48,13.41-.51.03,1.05.03,2.13.03,3.03a6.007,6.007,0,0,0-2.01-.33,5.236,5.236,0,0,0-5.28,5.22,4.776,4.776,0,0,0,4.92,5.01,4.226,4.226,0,0,0,2.61-.81c-1.2,2.73-3.96,4.41-7.95,5.31l2.01,1.98c6.99-2.1,8.97-6.6,8.97-10.65a7.29,7.29,0,0,0-.96-3.84c-.03-1.38-.06-3.24-.06-4.95h.42c4.38,0,7.11.06,8.79.15l.03-2.22c-1.44,0-5.13-.03-8.79-.03h-.45c0-.81.03-1.5.03-1.95C407.19-22.26,407.25-23.43,407.31-23.76ZM399.84-9.9a3.057,3.057,0,0,1,3.03-3.18,2.689,2.689,0,0,1,2.67,1.89c.27,2.85-.87,4.26-2.64,4.26A2.889,2.889,0,0,1,399.84-9.9Zm21.48,2.58a4.577,4.577,0,0,0-4.56,4.56,4.584,4.584,0,0,0,4.56,4.59,4.571,4.571,0,0,0,4.59-4.59A4.565,4.565,0,0,0,421.32-7.32Zm0,7.62a3.047,3.047,0,0,1-3.03-3.06,3.061,3.061,0,0,1,3.03-3.03,3.047,3.047,0,0,1,3.06,3.03A3.035,3.035,0,0,1,421.32.3Z" transform="translate(3904.96 -16164.721)" fill="#3c505a"/>
      <g id="Icon_feather-check-square-3" data-name="Icon feather-check-square" transform="translate(3846.183 -16195.053)">
        <path id="Path_125-3" data-name="Path 125" d="M13.5,18.368l5.3,5.3L36.468,6" transform="translate(0 -2.668)" fill="none" stroke="#ffbe00" stroke-linecap="round" stroke-linejoin="round" stroke-width="3"/>
        <path id="Path_126-3" data-name="Path 126" d="M31.5,18V28.5a3,3,0,0,1-3,3H7.5a3,3,0,0,1-3-3V7.5a3,3,0,0,1,3-3H24" fill="none" stroke="#a9a9a9" stroke-linecap="round" stroke-linejoin="round" stroke-width="3"/>
      </g>
    </g>
  </g>
</svg>
