<svg xmlns="http://www.w3.org/2000/svg" width="300" height="184" viewBox="0 0 300 184">
  <g id="Group_155" data-name="Group 155" transform="translate(-3810.96 15997.984)">
    <g id="Rectangle_139" data-name="Rectangle 139" transform="translate(3810.96 -15997.984)" fill="#fff" stroke="#a9a9a9" stroke-width="1">
      <rect width="300" height="184" stroke="none"/>
      <rect x="0.5" y="0.5" width="299" height="183" fill="none"/>
    </g>
    <line id="Line_34" data-name="Line 34" x2="280" transform="translate(3820.96 -15929.984)" fill="none" stroke="#a9a9a9" stroke-width="1" stroke-dasharray="2"/>
    <path id="Path_179" data-name="Path 179" d="M-3.424-13.392A15.849,15.849,0,0,1-4.912-10.7l.976.352c.528-.672,1.168-1.728,1.728-2.64ZM-.864-6V-7.072H-5.456A3.9,3.9,0,0,0-5.44-7.5V-9.3h4.1v-1.056h-6.9l.96-.432a8.886,8.886,0,0,0-1.456-2.544l-1.008.4a8.837,8.837,0,0,1,1.376,2.576h-2V-9.3h3.744V-7.52a4.344,4.344,0,0,1-.016.448h-4.24V-6h4.112c-.288,1.376-1.216,2.9-3.984,4.016a5.634,5.634,0,0,1,.784.88c2.544-1.136,3.68-2.608,4.176-4.048A6.6,6.6,0,0,0-1.584-1.04a4.062,4.062,0,0,1,.752-.992A5.846,5.846,0,0,1-5.008-6Zm-10.464-4.528a11.845,11.845,0,0,0-2.784-2.464l-.88.72a11.039,11.039,0,0,1,2.72,2.528Zm-.448,3.408h-3.392V-6h2.224v4.048A26.717,26.717,0,0,1-15.376-.128l.64,1.2C-13.888.384-13.088-.3-12.32-.976A5.7,5.7,0,0,0-7.792.912c1.76.064,5.04.032,6.784-.032A5.414,5.414,0,0,1-.624-.336C-2.5-.208-6.048-.16-7.792-.224c-1.84-.08-3.232-.624-3.984-1.792ZM11.376-10.3a12.334,12.334,0,0,0-2.512-1.952l-.608.8a13.219,13.219,0,0,1,2.512,2.064ZM10.688-6.48A12.446,12.446,0,0,0,8-8.272l-.56.832A11.976,11.976,0,0,1,10.1-5.52ZM6.064-12.432a29.556,29.556,0,0,1-1.056,3.6l.768.256a32.739,32.739,0,0,0,1.312-3.6ZM2.736-8.864a14.539,14.539,0,0,0-.944-3.5l-.864.208a15.45,15.45,0,0,1,.864,3.552ZM4.48-6.928H7.088v-1.12H4.48v-5.28h-1.1v5.28H.816v1.12h2.24A16.453,16.453,0,0,1,.56-1.952,7.173,7.173,0,0,1,1.168-.8,18.35,18.35,0,0,0,3.376-5.36V1.216h1.1v-6.56c.576.9,1.328,2.128,1.616,2.72l.784-.928C6.528-4.1,4.928-6.208,4.48-6.7Zm10.912,3.28-.176-1.088L13.328-4.4v-8.976h-1.12v9.184L7.056-3.28l.192,1.1,4.96-.9V1.216h1.12v-4.5Z" transform="translate(3836.96 -15956.984)" fill="#3c505a"/>
    <path id="Path_178" data-name="Path 178" d="M12.576-13.392A15.849,15.849,0,0,1,11.088-10.7l.976.352c.528-.672,1.168-1.728,1.728-2.64ZM15.136-6V-7.072H10.544A3.9,3.9,0,0,0,10.56-7.5V-9.3h4.1v-1.056H7.76l.96-.432a8.886,8.886,0,0,0-1.456-2.544l-1.008.4a8.837,8.837,0,0,1,1.376,2.576h-2V-9.3H9.376V-7.52a4.344,4.344,0,0,1-.016.448H5.12V-6H9.232C8.944-4.624,8.016-3.1,5.248-1.984a5.634,5.634,0,0,1,.784.88c2.544-1.136,3.68-2.608,4.176-4.048A6.6,6.6,0,0,0,14.416-1.04a4.062,4.062,0,0,1,.752-.992A5.846,5.846,0,0,1,10.992-6ZM4.672-10.528a11.845,11.845,0,0,0-2.784-2.464l-.88.72a11.039,11.039,0,0,1,2.72,2.528ZM4.224-7.12H.832V-6H3.056v4.048A26.717,26.717,0,0,1,.624-.128l.64,1.2C2.112.384,2.912-.3,3.68-.976A5.7,5.7,0,0,0,8.208.912c1.76.064,5.04.032,6.784-.032a5.414,5.414,0,0,1,.384-1.216C13.5-.208,9.952-.16,8.208-.224,6.368-.3,4.976-.848,4.224-2.016ZM27.376-10.3a12.334,12.334,0,0,0-2.512-1.952l-.608.8a13.219,13.219,0,0,1,2.512,2.064ZM26.688-6.48A12.446,12.446,0,0,0,24-8.272l-.56.832A11.976,11.976,0,0,1,26.1-5.52Zm-4.624-5.952a29.555,29.555,0,0,1-1.056,3.6l.768.256a32.739,32.739,0,0,0,1.312-3.6ZM18.736-8.864a14.539,14.539,0,0,0-.944-3.5l-.864.208a15.45,15.45,0,0,1,.864,3.552ZM20.48-6.928h2.608v-1.12H20.48v-5.28h-1.1v5.28h-2.56v1.12h2.24a16.453,16.453,0,0,1-2.5,4.976A7.173,7.173,0,0,1,17.168-.8a18.35,18.35,0,0,0,2.208-4.56V1.216h1.1v-6.56c.576.9,1.328,2.128,1.616,2.72l.784-.928c-.352-.544-1.952-2.656-2.4-3.152Zm10.912,3.28-.176-1.088L29.328-4.4v-8.976h-1.12v9.184l-5.152.912.192,1.1,4.96-.9V1.216h1.12v-4.5ZM43.744-7.792H41.872v-2.7h1.872Zm0,3.792H41.872V-6.736h1.872ZM36.208-6.736h1.776V-4H36.208Zm4.64,0V-4H38.992V-6.736ZM38.992-7.792v-2.7h1.856v2.7Zm-2.784-2.7h1.776v2.7H36.208Zm-1.072,2.7H32.912v1.056h2.224V-4H33.168v1.072H46.88V-4H44.864V-6.736H47.1V-7.792h-2.24v-2.7h1.648v-1.056h-10.1a11.651,11.651,0,0,0,.848-1.5l-1.136-.336A11.32,11.32,0,0,1,32.72-9.216a5.823,5.823,0,0,1,.976.784,13.377,13.377,0,0,0,1.44-1.424ZM33.92,1.232a7.482,7.482,0,0,0,1.968-3.216l-1.1-.272A7,7,0,0,1,32.8.768Zm3.632-3.088a19.345,19.345,0,0,1,.336,2.928l1.136-.16a19.376,19.376,0,0,0-.384-2.88Zm3.232.016a18.975,18.975,0,0,1,.976,2.928l1.152-.24a15.47,15.47,0,0,0-1.024-2.9Zm3.248-.112a18.865,18.865,0,0,1,2.08,3.2L47.3.816A19.6,19.6,0,0,0,45.12-2.32ZM59.376-10.3a12.334,12.334,0,0,0-2.512-1.952l-.608.8a13.219,13.219,0,0,1,2.512,2.064ZM58.688-6.48A12.446,12.446,0,0,0,56-8.272l-.56.832A11.976,11.976,0,0,1,58.1-5.52Zm-4.624-5.952a29.555,29.555,0,0,1-1.056,3.6l.768.256a32.739,32.739,0,0,0,1.312-3.6ZM50.736-8.864a14.539,14.539,0,0,0-.944-3.5l-.864.208a15.449,15.449,0,0,1,.864,3.552ZM52.48-6.928h2.608v-1.12H52.48v-5.28h-1.1v5.28h-2.56v1.12h2.24a16.454,16.454,0,0,1-2.5,4.976A7.173,7.173,0,0,1,49.168-.8a18.35,18.35,0,0,0,2.208-4.56V1.216h1.1v-6.56c.576.9,1.328,2.128,1.616,2.72l.784-.928c-.352-.544-1.952-2.656-2.4-3.152Zm10.912,3.28-.176-1.088L61.328-4.4v-8.976h-1.12v9.184l-5.152.912.192,1.1,4.96-.9V1.216h1.12v-4.5ZM0,2H64V3H0ZM67.824,3.152l.912-.432a14.749,14.749,0,0,1-2.048-7.7,14.79,14.79,0,0,1,2.048-7.7l-.912-.416a14.943,14.943,0,0,0-2.352,8.112A15,15,0,0,0,67.824,3.152Zm9.024-16.3V-.432c0,.32-.128.432-.464.432-.3.016-1.456.032-2.624-.016a5.675,5.675,0,0,1,.5,1.232,11.1,11.1,0,0,0,3.056-.208c.56-.208.8-.56.8-1.44v-12.72ZM80.672-9.12A27.044,27.044,0,0,1,83.7-1.968L84.944-2.5a25.44,25.44,0,0,0-3.152-7.056Zm-8-.32a14.993,14.993,0,0,1-2.688,6.576,6.427,6.427,0,0,1,1.12.624,17.946,17.946,0,0,0,2.88-6.96Zm26.976-3.84H98.512v7.088c0,.224-.064.288-.3.288a18.536,18.536,0,0,1-1.952,0,3.748,3.748,0,0,1,.4,1.088,8.07,8.07,0,0,0,2.384-.192c.48-.192.608-.5.608-1.152Zm-2.992.8h-1.1v5.328h1.1Zm-6.992,2.9v-2.1h1.968v2.192H89.664Zm1.968,1.152v3.424h1.12V-8.432H94.56V-9.488H92.752V-11.68H94.24v-1.056H87.072v1.056H88.56v2.192H86.544v1.056H88.48A4.147,4.147,0,0,1,86.4-5.44a5.494,5.494,0,0,1,.784.832,5.112,5.112,0,0,0,2.4-3.824Zm2.464,8V-2.448h4.832V-3.536H94.1V-5.328H92.9v1.792H87.872v1.088H92.9V-.432H86.224V.688h14.368V-.432Zm9.84-10.176H114.88V-8.32h1.232v-3.392h-6.128v-1.664h-1.232v1.664h-6.016V-8.32h1.2ZM110.528-.016c-1.024,0-1.2-.144-1.2-.816v-3.1l7.1-.816-.16-1.1-6.944.784v-2.5a26.513,26.513,0,0,0,4.256-1.3l-.976-.944a39.322,39.322,0,0,1-8.784,2.16,3.813,3.813,0,0,1,.368,1.008c1.248-.176,2.576-.4,3.872-.656v2.368l-5.776.64.16,1.152,5.616-.656v2.96c0,1.552.528,1.968,2.384,1.968h3.568c1.712,0,2.1-.672,2.288-3.072a3.874,3.874,0,0,1-1.184-.5c-.1,2-.24,2.416-1.168,2.416Zm16.288-11.2a12.012,12.012,0,0,1-1.056,1.552h-4.672a13.492,13.492,0,0,0,1.36-1.552Zm-6.56,2.56h9.2v1.328h-9.04V-6.4h9.04v1.36H119.92v1.008h3.952l-.5.512a10.71,10.71,0,0,1,2.864,1.76l.784-.848a9.42,9.42,0,0,0-2.352-1.424h5.936V-9.664H127.12a15.5,15.5,0,0,0,1.344-2.048l-.8-.528-.192.048H123.12a11.244,11.244,0,0,0,.608-1.008l-1.264-.24a11.74,11.74,0,0,1-4.3,4.64,3.875,3.875,0,0,1,.848.848,12.737,12.737,0,0,0,1.248-.944ZM119.136.688a5.79,5.79,0,0,0,2.3-3.312l-1.072-.384A5.172,5.172,0,0,1,118.16-.016Zm5.232-.7c-.784,0-.928-.08-.928-.5v-2.32h-1.152V-.5c0,1.168.384,1.5,1.984,1.5h2.912c1.28,0,1.632-.464,1.76-2.4a3.065,3.065,0,0,1-1.024-.416c-.08,1.552-.192,1.792-.848,1.792Zm4.448-2.608A14.529,14.529,0,0,1,131.68.656l1.056-.624a14.4,14.4,0,0,0-2.96-3.216Zm8.736-10.7a18.344,18.344,0,0,1-3.5,6.352,7.962,7.962,0,0,1,.688,1.168,16.439,16.439,0,0,0,1.28-1.712V1.2h1.136V-9.456a25.584,25.584,0,0,0,1.52-3.536Zm2.672,8.368V-6.608h2.8v.8c0,.272,0,.576-.016.848Zm0-4.176h2.8v1.648h-2.8Zm6.56,0v1.648h-2.592V-9.136Zm0,4.176H144.16a7.513,7.513,0,0,0,.032-.848v-.8h2.592Zm1.168.928v-6.032h-3.76v-1.328h4.3v-1.072h-9.808v1.072h4.336v1.328H139.1v6.032h3.808a4.439,4.439,0,0,1-1.088,2.32,6.242,6.242,0,0,1-2.144-1.92l-1.008.384A7.334,7.334,0,0,0,140.96-.992,9.386,9.386,0,0,1,137.728.3a5.9,5.9,0,0,1,.72.976A10.216,10.216,0,0,0,142-.384a18.117,18.117,0,0,0,6.16,1.52,4.633,4.633,0,0,1,.7-1.1A19.214,19.214,0,0,1,142.848-1.2a5.646,5.646,0,0,0,1.216-2.832Zm3.04,7.184a14.874,14.874,0,0,0,2.368-8.128,14.82,14.82,0,0,0-2.368-8.112l-.9.416a14.943,14.943,0,0,1,2.048,7.7,14.9,14.9,0,0,1-2.048,7.7ZM8,14.56a1.2,1.2,0,1,0-1.2-1.2A1.209,1.209,0,0,0,8,14.56Zm0,2.9-5.28-5.28-.464.464,5.28,5.28-5.3,5.3.464.464,5.3-5.3,5.28,5.28.464-.464-5.28-5.28,5.28-5.28-.464-.464Zm-3.36.464a1.2,1.2,0,1,0-1.2,1.2A1.209,1.209,0,0,0,4.64,17.92Zm6.72,0a1.2,1.2,0,1,0,1.2-1.2A1.209,1.209,0,0,0,11.36,17.92ZM8,21.28a1.2,1.2,0,1,0,1.2,1.2A1.209,1.209,0,0,0,8,21.28Zm17.632-5.76v1.408H22.944V15.52Zm3.856,1.408H26.7V15.52h2.784ZM26.7,19.264V17.808h2.784v1.456Zm-3.76,0V17.808h2.688v1.456Zm0,.912h2.688v2.592H26.7V20.176h2.784v1.456c0,.208-.064.272-.272.272-.192,0-.88.016-1.632-.016a3.718,3.718,0,0,1,.336.976,7.041,7.041,0,0,0,2.16-.176c.416-.176.544-.464.544-1.04v-7.04H28.608c-.352-.192-.768-.416-1.232-.64a14.146,14.146,0,0,0,3.232-2.192l-.736-.56-.224.064H21.84v.944h6.672a12.238,12.238,0,0,1-2.192,1.264c-.752-.32-1.536-.64-2.224-.88l-.752.672c.96.352,2.1.864,3.04,1.328h-4.56v8.224h1.12Zm-2.416-6.624a11.994,11.994,0,0,0-2.7-2.576l-.832.736a12.243,12.243,0,0,1,2.656,2.656Zm-.352,3.328H16.72V18h2.3v4.112a27.671,27.671,0,0,1-2.5,1.808l.576,1.152c.912-.672,1.76-1.36,2.576-2.064.976,1.264,2.416,1.824,4.512,1.9,1.76.08,5.152.048,6.928-.032a5.884,5.884,0,0,1,.368-1.168c-1.9.128-5.552.176-7.3.1-1.872-.064-3.248-.592-4.016-1.792Zm16.848-.72h6.032v1.568H37.024Zm8.688,3.776H40.8V18.624h3.44v-3.36H35.888v3.36H39.6v1.312H34.464v4.576h1.184V21.024H39.6v4.208h1.2V21.024h3.712v2.24c0,.192-.08.24-.32.256s-1.088.016-2.048-.016a4.759,4.759,0,0,1,.416,1.088,8.326,8.326,0,0,0,2.528-.192c.5-.176.624-.5.624-1.12Zm-1.552-9.2a12.746,12.746,0,0,1-1.328,1.952l.96.4a22.022,22.022,0,0,0,1.6-1.92Zm2.528,2.352H40.7v-2.48H39.5v2.48H36.16l.992-.448a9.482,9.482,0,0,0-1.36-1.872l-1.056.432a9.828,9.828,0,0,1,1.248,1.888h-2.56V16.5H34.56V14.128H45.52V16.5h1.168ZM66.1,13.3V12.208H56.672c.272-.464.5-.928.7-1.376l-1.28-.224a12.068,12.068,0,0,1-3.424,4.752,4.276,4.276,0,0,1,.976.72A14.211,14.211,0,0,0,56.016,13.3Zm-6.336,8.72c.128-.768.24-1.7.352-2.656h3.3c-.08,1.1-.176,1.968-.272,2.656Zm-.736-2.656c-.112.96-.24,1.888-.368,2.656H55.488c.144-.832.288-1.728.432-2.656Zm.368-3.568c-.064.784-.16,1.632-.256,2.5H56.08c.144-.848.272-1.7.384-2.5Zm.848,2.5c.1-.848.192-1.712.272-2.5h3.12c-.048.928-.1,1.744-.144,2.5Zm6.64,1.072V18.288H64.64c.064-.864.128-1.856.176-2.96,0-.16.016-.576.016-.576H55.424c-.128,1.072-.288,2.288-.48,3.536H52.32V19.36h2.448c-.288,1.728-.592,3.408-.864,4.624l1.2.08c.064-.3.128-.64.192-.992h7.648a2.3,2.3,0,0,1-.432,1.04.733.733,0,0,1-.64.24c-.352,0-1.136-.016-2.048-.1a2.39,2.39,0,0,1,.288.928,18.555,18.555,0,0,0,2.224.048,1.547,1.547,0,0,0,1.216-.592,3.71,3.71,0,0,0,.592-1.568h2.3V22.016H64.3c.1-.7.192-1.584.272-2.656Zm4.784,3.472V18.368H79.6v4.464ZM79.6,12.88V17.2H71.664V12.88Zm-9.136-1.168V25.04h1.2V24H79.6v.976h1.248V11.712ZM92.88,19.76H90.1V17.376H92.88Zm3.072-2.384v-.608A10.179,10.179,0,0,0,98.24,18.16a4.905,4.905,0,0,1,.816-.992,10.4,10.4,0,0,1-2.992-1.856,25.685,25.685,0,0,0,2.512-2.064l-.9-.64a19.681,19.681,0,0,1-2.288,2.064,12.823,12.823,0,0,1-1.04-1.232A21.212,21.212,0,0,0,96.7,11.424l-.9-.64a20.527,20.527,0,0,1-1.968,1.9,11.86,11.86,0,0,1-1.008-2.016l-1.024.3a13.788,13.788,0,0,0,3.568,5.3h-7.52a11.164,11.164,0,0,0,3.328-4.64l-.784-.384-.208.048h-4.56v1.056H89.6a11.208,11.208,0,0,1-1.488,2.112A22.249,22.249,0,0,0,86.176,12.9l-.736.624a16.961,16.961,0,0,1,1.92,1.68,11.066,11.066,0,0,1-3.248,2.08,6.436,6.436,0,0,1,.736.9,13.11,13.11,0,0,0,2.384-1.408v.608h1.68V19.76h-3.68v1.1h3.552c-.288,1.328-1.2,2.592-3.872,3.488a4.644,4.644,0,0,1,.752.944c3.136-1.088,4.08-2.72,4.336-4.432h2.88v2.56c0,1.312.352,1.664,1.7,1.664h2.1c1.168,0,1.5-.56,1.616-2.592a3.278,3.278,0,0,1-1.072-.5c-.064,1.712-.144,2.032-.64,2.032H94.752c-.544,0-.64-.1-.64-.592V20.864H97.9v-1.1H94.112V17.376Zm16.208-6.768a15.85,15.85,0,0,1-1.488,2.688l.976.352c.528-.672,1.168-1.728,1.728-2.64ZM114.72,18V16.928h-4.592a3.9,3.9,0,0,0,.016-.432V14.7h4.1V13.648h-6.9l.96-.432a8.886,8.886,0,0,0-1.456-2.544l-1.008.4a8.837,8.837,0,0,1,1.376,2.576h-2V14.7h3.744V16.48a4.344,4.344,0,0,1-.016.448H104.7V18h4.112c-.288,1.376-1.216,2.9-3.984,4.016a5.634,5.634,0,0,1,.784.88c2.544-1.136,3.68-2.608,4.176-4.048A6.6,6.6,0,0,0,114,22.96a4.062,4.062,0,0,1,.752-.992A5.846,5.846,0,0,1,110.576,18Zm-10.464-4.528a11.845,11.845,0,0,0-2.784-2.464l-.88.72a11.039,11.039,0,0,1,2.72,2.528Zm-.448,3.408h-3.392V18h2.224v4.048a26.718,26.718,0,0,1-2.432,1.824l.64,1.2c.848-.688,1.648-1.376,2.416-2.048a5.7,5.7,0,0,0,4.528,1.888c1.76.064,5.04.032,6.784-.032a5.414,5.414,0,0,1,.384-1.216c-1.872.128-5.424.176-7.168.112-1.84-.08-3.232-.624-3.984-1.792Z" transform="translate(3903.96 -15968.984)" fill="#3c505a"/>
    <line id="Line_35" data-name="Line 35" y2="47" transform="translate(3893.46 -15987.484)" fill="none" stroke="#a9a9a9" stroke-width="1" stroke-dasharray="2"/>
    <path id="Path_177" data-name="Path 177" d="M-29.472-10.432h10.9V-8.1h1.216v-3.456h-6.048v-1.824H-24.64v1.824h-6V-8.1h1.168Zm6.064,6.8h4.736v-1.1h-4.736V-7.392h4.08v-1.12h-9.264v1.12h3.968v6.7a4.805,4.805,0,0,1-2.944-3.088A20.2,20.2,0,0,0-27.184-5.9L-28.4-6.016C-28.752-3.152-29.616-.88-31.392.5a6.211,6.211,0,0,1,.976.8,8.765,8.765,0,0,0,2.384-3.568c1.456,2.7,3.84,3.28,7.152,3.28h3.712a3.506,3.506,0,0,1,.448-1.2c-.768.016-3.52.016-4.1.016a14.606,14.606,0,0,1-2.592-.192Zm10.72-1.68h2.9v1.6h-2.9Zm2.9-4.9V-8.8h-2.9v-1.408Zm-2.9,2.368h2.9v1.568h-2.9ZM-7.52-3.712H-8.688v-6.5H-7.52V-11.28H-8.688V-13.2h-1.1v1.92h-2.9V-13.2h-1.088v1.92H-15.12v1.072h1.344v6.5h-1.552V-2.64H-7.52ZM-13.12-2.3A8.347,8.347,0,0,1-15.312.544a7.355,7.355,0,0,1,.96.688A10.576,10.576,0,0,0-11.984-2Zm2.272.5A12.561,12.561,0,0,1-9.2.624l.96-.56A11.853,11.853,0,0,0-9.92-2.3Zm5.2-3.424c.016-.544.032-1.088.032-1.584V-7.888h3.264v2.656Zm3.3-6.272V-8.96H-5.616V-11.5ZM-1.2-12.592H-6.736v5.776c0,2.288-.128,5.328-1.456,7.44a3.049,3.049,0,0,1,.944.688A12.526,12.526,0,0,0-5.728-4.16h3.376V-.32c0,.256-.1.336-.336.336-.224.016-1.024.016-1.872,0a4.837,4.837,0,0,1,.368,1.152A7.092,7.092,0,0,0-1.808.944C-1.376.752-1.2.4-1.2-.3Zm6,2.832H2.416v-2.032H4.8Zm0,2.976H2.416V-8.832H4.8Zm0,3.024H2.416V-5.84H4.8Zm1.072-9.024h-4.5v10h4.5ZM2.16-2.448A7.018,7.018,0,0,1,.56.592a8.05,8.05,0,0,1,.9.64,9.581,9.581,0,0,0,1.776-3.44Zm2,.384A13.326,13.326,0,0,1,5.44.448L6.384,0A13.462,13.462,0,0,0,5.056-2.464Zm7.056-.256v-1.2h2.048v1.2ZM8.208-3.52H10.16v1.2H8.208ZM10.16-5.488v1.136H8.208V-5.488Zm3.1,0v1.136H11.216V-5.488ZM9.52-9.264h2.368v1.056H9.52Zm0-1.84h2.368v.96H9.52ZM15.312-2.32h-.96V-6.384H11.216v-.928h4.032v-.9H12.96V-9.264h1.7v-.88h-1.7v-.96h1.952V-12H12.96v-1.376H11.888V-12H9.52v-1.376H8.464V-12H6.528v.9H8.464v.96H6.944v.88h1.52v1.056H6.16v.9h4v.928H7.136V-2.32H6.1v.912h1.04v2.64H8.208v-2.64h5.056V-.016c0,.208-.08.256-.272.272-.224,0-.992,0-1.824-.016a3.821,3.821,0,0,1,.336.96,8.277,8.277,0,0,0,2.32-.16c.4-.176.528-.48.528-1.056V-1.408h.96Zm4.368-10.1v1.184h3.936c.032.608.1,1.312.208,2.048l-.7-.112c-.976,4.48-2.944,7.7-6.48,9.536a7.787,7.787,0,0,1,1.072.944C20.9-.688,22.912-3.6,24.1-7.744a13.807,13.807,0,0,0,6.352,8.912,5.654,5.654,0,0,1,.96-.992c-6.272-3.728-6.64-9.76-6.64-12.592Zm-46.656,24.88a11.422,11.422,0,0,0-2.88-1.712l-.64.864a12.335,12.335,0,0,1,2.832,1.792Zm-.784,4.16a12.861,12.861,0,0,0-2.928-1.6l-.656.9a12.366,12.366,0,0,1,2.912,1.7Zm-.4,2.448A50,50,0,0,1-30.9,24.24l1.024.752c.848-1.5,1.856-3.488,2.624-5.184Zm6.288-4.8h2.7V17.9h-2.768c.048-.608.064-1.232.064-1.84Zm5.184,4.736V17.9h-1.328V13.168h-3.856V10.64H-23.04v2.528h-3.152v1.1h3.152v1.776a17.811,17.811,0,0,1-.08,1.856h-3.936v1.1h3.76c-.432,2.048-1.568,3.936-4.5,5.392a5.907,5.907,0,0,1,.928.848,8.184,8.184,0,0,0,4.7-5.792,8.73,8.73,0,0,0,4.784,5.792,3.83,3.83,0,0,1,.816-1.008,7.792,7.792,0,0,1-4.56-5.232Zm5.712-6.544a11.422,11.422,0,0,0-2.88-1.712l-.64.864a12.335,12.335,0,0,1,2.832,1.792Zm-.784,4.16a12.861,12.861,0,0,0-2.928-1.6l-.656.9a12.366,12.366,0,0,1,2.912,1.7Zm-.272,2.448a52.255,52.255,0,0,1-2.832,5.168l1.008.752c.88-1.488,1.936-3.488,2.72-5.184Zm3.616,2.1a11,11,0,0,0,.08-1.408v-.112h4.992v1.52Zm5.072-2.528H-8.336V17.7H-9.472V19.76A5.916,5.916,0,0,1-11.536,24.7a5.74,5.74,0,0,1,.928.672,5.771,5.771,0,0,0,2-3.184h5.264V25.2h1.168V17.7H-3.344Zm-.624-5.312a6.36,6.36,0,0,1-1.84,1.728A8.017,8.017,0,0,1-7.92,13.328Zm3.136,0v-1.04H-5.264V10.624h-1.2v1.664h-4.368v1.04h1.648a9.057,9.057,0,0,0,2.32,2.3,17.418,17.418,0,0,1-4.448,1.3,4.729,4.729,0,0,1,.592,1.008,17.671,17.671,0,0,0,4.9-1.68A18.912,18.912,0,0,0-1.2,17.808a3.1,3.1,0,0,1,.656-1.056,19.663,19.663,0,0,1-4.192-1.168,7.356,7.356,0,0,0,2.08-2.256ZM15.1,14.5V13.36H8.544V10.576h-1.2V13.36H.9V14.5H5.808C5.616,18.176,5.152,22.32.736,24.3a4.045,4.045,0,0,1,.848.976,9.146,9.146,0,0,0,5.088-7.04h5.28c-.272,3.7-.576,5.264-1.056,5.68-.16.16-.384.176-.752.176-.4,0-1.536,0-2.672-.112a2.721,2.721,0,0,1,.416,1.152c1.072.064,2.112.08,2.672.048a1.784,1.784,0,0,0,1.36-.528c.624-.64.944-2.4,1.264-6.96.016-.192.032-.576.032-.576H6.848c.128-.88.192-1.76.24-2.624ZM21.3,12.368A11.746,11.746,0,0,0,18.16,10.72l-.64.88a12.766,12.766,0,0,1,3.1,1.744Zm-.832,4.176A13.564,13.564,0,0,0,17.3,15.072l-.624.912a13.448,13.448,0,0,1,3.152,1.568ZM20.1,19.12a48.137,48.137,0,0,1-2.864,5.136l1.008.768c.9-1.488,1.952-3.456,2.752-5.136Zm11.328,5.5a21.742,21.742,0,0,0-3.056-4.592l-1.008.528a27.59,27.59,0,0,1,1.648,2.272c-1.888.128-3.792.24-5.44.32.7-1.392,1.456-3.216,2.048-4.736h5.536V17.28H26.608V14.352H30.4v-1.12H26.608V10.624H25.392v2.608H21.744v1.12h3.648V17.28H20.944v1.136h3.264a37.75,37.75,0,0,1-1.92,4.816L20.96,23.3l.176,1.184c2.208-.144,5.424-.352,8.512-.592a10.581,10.581,0,0,1,.672,1.36Z" transform="translate(3852.96 -15876.984)" fill="#3c505a"/>
    <path id="Path_176" data-name="Path 176" d="M8.592,6.568,7.1,6.088a5.479,5.479,0,0,1-.5,1.264A13.19,13.19,0,0,1,1.584,12.76l1.1.832A16.22,16.22,0,0,0,6.752,9.656H12.16A13.154,13.154,0,0,1,9.6,14.648a12.944,12.944,0,0,1-6.384,4.016L4.368,19.7a14.028,14.028,0,0,0,6.368-4.352,15.519,15.519,0,0,0,2.848-5.5A5.028,5.028,0,0,1,13.952,9L12.88,8.344a2.678,2.678,0,0,1-1.04.16H7.5a7.19,7.19,0,0,0,.384-.672A12.1,12.1,0,0,1,8.592,6.568Zm10.96,11.92.928.8A2.472,2.472,0,0,1,21.152,19a18.507,18.507,0,0,0,9.36-5.712l-.72-1.12a17.266,17.266,0,0,1-8.752,5.456V8.552A10.347,10.347,0,0,1,21.152,7.1H19.568a9.75,9.75,0,0,1,.144,1.456V17.7A1.762,1.762,0,0,1,19.552,18.488Zm23.9-11.424-.88.368A17.891,17.891,0,0,1,44.032,9.96l.912-.416A23.624,23.624,0,0,0,43.456,7.064Zm2.1-.768-.9.384a17.4,17.4,0,0,1,1.52,2.48l.912-.416A23.071,23.071,0,0,0,45.552,6.3Zm-8.928.528L35.9,7.9c.928.544,2.672,1.7,3.44,2.288l.752-1.1C39.408,8.584,37.568,7.352,36.624,6.824Zm-2.4,11.44.736,1.3a19.106,19.106,0,0,0,5.3-1.984,18.83,18.83,0,0,0,6.16-5.712l-.768-1.328a16.354,16.354,0,0,1-6.064,5.872A17.512,17.512,0,0,1,34.224,18.264Zm-.016-7.84-.72,1.088a35.349,35.349,0,0,1,3.5,2.192l.72-1.12C37.024,12.088,35.152,10.936,34.208,10.424Zm21.52-.64-1.168.4a30.16,30.16,0,0,1,1.248,3.472l1.184-.416C56.784,12.536,56,10.424,55.728,9.784Zm5.792.9-1.376-.432a10.972,10.972,0,0,1-2.208,5.472,10.774,10.774,0,0,1-5.2,3.408L53.792,20.2a12.192,12.192,0,0,0,5.216-3.808A12.54,12.54,0,0,0,61.28,11.48C61.344,11.272,61.408,11.016,61.52,10.68Zm-9.5-.1-1.184.464a28.619,28.619,0,0,1,1.424,3.6l1.216-.448C53.168,13.368,52.336,11.272,52.016,10.584Zm17.376,7.008a14.1,14.1,0,0,1-.112,1.888h1.552c-.064-.528-.1-1.392-.1-1.888,0-.464,0-2.88-.016-5.28a41.947,41.947,0,0,1,6.288,2.576l.544-1.36a51.139,51.139,0,0,0-6.832-2.64V8.28c0-.48.064-1.168.112-1.664H69.264a10.1,10.1,0,0,1,.128,1.664ZM88.128,6.408h-1.5a9.7,9.7,0,0,1,.112,1.328c0,.576-.032,1.12-.064,1.632H83.856a16.746,16.746,0,0,1-1.824-.1v1.36a17.073,17.073,0,0,1,1.84-.064H86.56A10.288,10.288,0,0,1,83.392,17.3a7.886,7.886,0,0,1-1.648,1.184l1.168.944c2.672-1.84,4.336-4.272,4.912-8.864H92.3c0,1.712-.208,5.648-.816,6.864a.866.866,0,0,1-.928.528,19.466,19.466,0,0,1-2.384-.176l.16,1.328c.832.048,1.76.112,2.576.112a1.661,1.661,0,0,0,1.712-.976c.72-1.536.912-6.192.976-7.728a5,5,0,0,1,.08-.784l-.9-.448a5.766,5.766,0,0,1-1.024.08H87.952c.032-.528.064-1.072.08-1.648C88.048,7.336,88.08,6.776,88.128,6.408Zm9.5,5.664V13.64c.5-.048,1.344-.08,2.224-.08h8.784c.72,0,1.392.064,1.712.08V12.072c-.352.032-.928.08-1.728.08H99.856C98.96,12.152,98.112,12.1,97.632,12.072ZM122.5,7.48l-.88.4a15.879,15.879,0,0,1,1.424,2.432l.912-.416A24.11,24.11,0,0,0,122.5,7.48Zm1.936-.8-.88.416a15.566,15.566,0,0,1,1.488,2.4l.9-.448A21.609,21.609,0,0,0,124.432,6.68ZM116.88,17.8a17.519,17.519,0,0,1-.1,1.888h1.536c-.048-.512-.1-1.376-.1-1.888V12.536A41,41,0,0,1,124.5,15.1l.56-1.36a54.35,54.35,0,0,0-6.832-2.64V8.488a14.78,14.78,0,0,1,.112-1.664h-1.584a10.1,10.1,0,0,1,.128,1.664ZM136,11.224a1.7,1.7,0,1,0,1.7,1.7A1.687,1.687,0,0,0,136,11.224Zm12.864,7.984c2.448,0,3.984-1.472,3.984-3.328,0-1.744-1.056-2.544-2.416-3.136l-1.68-.72c-.912-.384-1.936-.816-1.936-1.952,0-1.056.864-1.728,2.192-1.728a3.8,3.8,0,0,1,2.672,1.1l.784-.944a4.809,4.809,0,0,0-3.456-1.456c-2.128,0-3.7,1.312-3.7,3.12a3.313,3.313,0,0,0,2.384,3.008l1.7.736c1.1.5,1.952.88,1.952,2.08,0,1.152-.928,1.92-2.464,1.92a4.543,4.543,0,0,1-3.232-1.456l-.9,1.008A5.6,5.6,0,0,0,148.864,19.208Zm6.16-.208h1.456V12.7a3.3,3.3,0,0,1,2.384-1.328c1.152,0,1.648.688,1.648,2.32V19h1.456V13.5c0-2.224-.832-3.408-2.656-3.408a4.079,4.079,0,0,0-2.88,1.456l.048-1.792V6.264h-1.456Zm13.088.208c2.128,0,4.032-1.664,4.032-4.544,0-2.9-1.9-4.576-4.032-4.576s-4.032,1.68-4.032,4.576C164.08,17.544,165.984,19.208,168.112,19.208Zm0-1.216c-1.5,0-2.512-1.328-2.512-3.328s1.008-3.36,2.512-3.36,2.528,1.36,2.528,3.36S169.616,17.992,168.112,17.992Zm6.32,4.672h1.456V19.72l-.032-1.52a3.92,3.92,0,0,0,2.4,1.008c2,0,3.776-1.712,3.776-4.688,0-2.672-1.216-4.432-3.456-4.432a4.633,4.633,0,0,0-2.768,1.216h-.048l-.128-.992h-1.2Zm3.584-4.672a3.367,3.367,0,0,1-2.128-.912V12.52a3.622,3.622,0,0,1,2.336-1.2c1.648,0,2.288,1.3,2.288,3.216C180.512,16.7,179.456,17.992,178.016,17.992ZM1.6,43H3.088V38.344H5.024c2.576,0,4.32-1.152,4.32-3.632,0-2.56-1.76-3.456-4.384-3.456H1.6Zm1.488-5.856V32.472h1.68c2.064,0,3.1.544,3.1,2.24,0,1.68-.976,2.432-3.04,2.432Zm9.728,6.064A4.655,4.655,0,0,0,15.7,41.96h.048L15.872,43h1.2V37.656c0-2.144-.9-3.568-3.008-3.568a6.535,6.535,0,0,0-3.424,1.136l.576,1.008a4.787,4.787,0,0,1,2.608-.928c1.424,0,1.792,1.072,1.792,2.192-3.7.416-5.344,1.36-5.344,3.248A2.355,2.355,0,0,0,12.816,43.208Zm.416-1.168c-.864,0-1.536-.4-1.536-1.392,0-1.12.992-1.84,3.92-2.192v2.432A3.551,3.551,0,0,1,13.232,42.04Zm6.752,4.7c1.728,0,2.64-1.312,3.232-3.024l3.28-9.408H25.072L23.52,39.144c-.24.768-.5,1.648-.736,2.432H22.7c-.272-.784-.576-1.68-.832-2.432L20.1,34.312h-1.52l3.488,8.7-.192.656c-.352,1.072-.976,1.872-1.968,1.872a2.076,2.076,0,0,1-.656-.144l-.288,1.168A2.675,2.675,0,0,0,19.984,46.744ZM34.7,35.224a1.7,1.7,0,1,0,1.7,1.7A1.687,1.687,0,0,0,34.7,35.224Zm14.208,7.984a5.036,5.036,0,0,0,3.632-1.36V36.92H48.7v1.232h2.48v3.072a3.217,3.217,0,0,1-2.112.688c-2.528,0-3.92-1.856-3.92-4.816,0-2.928,1.536-4.752,3.888-4.752a3.289,3.289,0,0,1,2.544,1.12l.8-.96a4.464,4.464,0,0,0-3.376-1.456c-3.1,0-5.376,2.3-5.376,6.1C43.632,40.952,45.84,43.208,48.912,43.208Zm9.664,0c2.128,0,4.032-1.664,4.032-4.544,0-2.9-1.9-4.576-4.032-4.576s-4.032,1.68-4.032,4.576C54.544,41.544,56.448,43.208,58.576,43.208Zm0-1.216c-1.5,0-2.512-1.328-2.512-3.328s1.008-3.36,2.512-3.36,2.528,1.36,2.528,3.36S60.08,41.992,58.576,41.992Zm9.7,1.216c2.128,0,4.032-1.664,4.032-4.544,0-2.9-1.9-4.576-4.032-4.576s-4.032,1.68-4.032,4.576C64.24,41.544,66.144,43.208,68.272,43.208Zm0-1.216c-1.5,0-2.512-1.328-2.512-3.328s1.008-3.36,2.512-3.36,2.528,1.36,2.528,3.36S69.776,41.992,68.272,41.992ZM77.52,47c2.688,0,4.4-1.392,4.4-3.008,0-1.424-1.024-2.064-3.04-2.064h-1.7c-1.168,0-1.52-.384-1.52-.944a1.294,1.294,0,0,1,.56-1.04,3.022,3.022,0,0,0,1.3.3,2.979,2.979,0,0,0,3.168-3.024,2.481,2.481,0,0,0-.7-1.792H81.76v-1.12H78.736a3.584,3.584,0,0,0-1.216-.224,3.1,3.1,0,0,0-3.264,3.1,3.05,3.05,0,0,0,1.136,2.336v.064a2.12,2.12,0,0,0-.976,1.616,1.571,1.571,0,0,0,.8,1.424V42.7a2.438,2.438,0,0,0-1.28,1.968C73.936,46.168,75.392,47,77.52,47Zm0-7.744a1.9,1.9,0,0,1-1.856-2.064,1.864,1.864,0,1,1,3.712,0A1.913,1.913,0,0,1,77.52,39.256Zm.208,6.752c-1.568,0-2.512-.608-2.512-1.536A1.811,1.811,0,0,1,76.1,43a4.887,4.887,0,0,0,1.12.144h1.5c1.152,0,1.776.272,1.776,1.072C80.5,45.128,79.392,46.008,77.728,46.008Zm7.408-2.8a2.241,2.241,0,0,0,.848-.128l-.208-1.12a1.278,1.278,0,0,1-.3.032c-.224,0-.416-.176-.416-.624v-11.1H83.6V41.272C83.6,42.5,84.048,43.208,85.136,43.208Zm6.528,0a5.171,5.171,0,0,0,2.88-.9l-.528-.96a3.745,3.745,0,0,1-2.176.688A2.879,2.879,0,0,1,88.96,39h5.856a5.683,5.683,0,0,0,.064-.832c0-2.48-1.248-4.08-3.456-4.08-2.016,0-3.92,1.76-3.92,4.576C87.5,41.528,89.36,43.208,91.664,43.208Zm-2.72-5.264a2.668,2.668,0,0,1,2.5-2.688c1.36,0,2.16.944,2.16,2.688ZM100.736,43h1.488V38.344h1.936c2.576,0,4.32-1.152,4.32-3.632,0-2.56-1.76-3.456-4.384-3.456h-3.36Zm1.488-5.856V32.472h1.68c2.064,0,3.1.544,3.1,2.24,0,1.68-.976,2.432-3.04,2.432Zm9.728,6.064a4.655,4.655,0,0,0,2.88-1.248h.048l.128,1.04h1.2V37.656c0-2.144-.9-3.568-3.008-3.568a6.535,6.535,0,0,0-3.424,1.136l.576,1.008a4.787,4.787,0,0,1,2.608-.928c1.424,0,1.792,1.072,1.792,2.192-3.7.416-5.344,1.36-5.344,3.248A2.355,2.355,0,0,0,111.952,43.208Zm.416-1.168c-.864,0-1.536-.4-1.536-1.392,0-1.12.992-1.84,3.92-2.192v2.432A3.551,3.551,0,0,1,112.368,42.04Zm6.752,4.7c1.728,0,2.64-1.312,3.232-3.024l3.28-9.408h-1.424l-1.552,4.832c-.24.768-.5,1.648-.736,2.432h-.08c-.272-.784-.576-1.68-.832-2.432l-1.776-4.832h-1.52l3.488,8.7-.192.656c-.352,1.072-.976,1.872-1.968,1.872a2.076,2.076,0,0,1-.656-.144l-.288,1.168A2.675,2.675,0,0,0,119.12,46.744Zm10.544-.592.912-.432a14.749,14.749,0,0,1-2.048-7.7,14.79,14.79,0,0,1,2.048-7.7l-.912-.416a15.193,15.193,0,0,0,0,16.24Zm16.48-13.632a16.884,16.884,0,0,0-2.64-2.56l-.864.576a17.072,17.072,0,0,1,2.576,2.624Zm-9.872-2.72a17.936,17.936,0,0,1-4.624,6.5,7.817,7.817,0,0,1,.688,1.152A18.131,18.131,0,0,0,134.48,35.1v9.1h1.2V33.384a21.567,21.567,0,0,0,1.712-3.232Zm10.176,5.152-.16-1.12-4.784.608c-.16-1.408-.256-2.96-.3-4.576h-1.184c.064,1.664.176,3.248.3,4.736l-3.872.48.16,1.12,3.84-.48c.608,4.992,1.888,8.3,4.512,8.5.832.048,1.472-.784,1.824-3.52a4.84,4.84,0,0,1-.992-.624c-.16,1.84-.416,2.784-.88,2.752-1.712-.16-2.752-3.024-3.3-7.264Zm3.568,2.352c.144-.72.272-1.5.4-2.256h4.816V30.28h-6.384V31.4h5.216v2.528h-4.672c-.224,1.616-.608,3.728-.928,5.056l1.168.192c.048-.24.112-.5.176-.768h4.208c-.208,2.88-.48,4.112-.864,4.448a.929.929,0,0,1-.7.176c-.4,0-1.456-.016-2.512-.112a2.7,2.7,0,0,1,.416,1.216,23.287,23.287,0,0,0,2.528.032,1.543,1.543,0,0,0,1.264-.512c.576-.544.848-2.032,1.136-5.808.016-.16.032-.544.032-.544Zm9.584-7.52V44.216h1.184V29.784Zm11.68,2.048a3.734,3.734,0,0,0,.112.4,32.057,32.057,0,0,1-5.28-.192l.08,1.168a38.339,38.339,0,0,0,5.5.112q.192.576.432,1.248c.1.272.208.544.32.832a35.867,35.867,0,0,1-6.64-.08l.064,1.2a46.555,46.555,0,0,0,7.04-.032,16.927,16.927,0,0,0,1.248,2.3c-.512-.064-1.552-.176-2.4-.272l-.112.976a29.648,29.648,0,0,1,3.5.512l.656-.976a4.807,4.807,0,0,1-.592-.688,15.893,15.893,0,0,1-1.12-1.984,24.948,24.948,0,0,0,2.9-.576l-.192-1.2a17.677,17.677,0,0,1-3.2.688c-.128-.32-.256-.656-.368-.96-.112-.336-.24-.7-.352-1.1a23.3,23.3,0,0,0,3.152-.64l-.176-1.152a17.8,17.8,0,0,1-3.28.72,12.167,12.167,0,0,1-.384-1.9l-1.36.176C170.992,30.856,171.152,31.352,171.28,31.832Zm-3.152,6.928L166.88,38.5a4.647,4.647,0,0,0-.624,2.288c.016,2.048,1.776,2.976,4.912,2.976a24.333,24.333,0,0,0,3.744-.272l.048-1.28a18.118,18.118,0,0,1-3.808.336c-2.512,0-3.7-.656-3.7-1.984A3.1,3.1,0,0,1,168.128,38.76Zm18.064-2.272-2.464.608v-3.12h2.336v-1.1h-2.336V29.608h-1.136v3.264h-2.544v1.1h2.544v3.392c-1.056.256-2.016.48-2.768.64l.288,1.168c.736-.192,1.584-.416,2.48-.64V42.76c0,.272-.1.336-.336.352s-1.072.032-1.936,0a5.1,5.1,0,0,1,.368,1.12,7.739,7.739,0,0,0,2.416-.208c.464-.192.624-.528.624-1.264V38.232c.848-.224,1.728-.448,2.576-.672Zm8.512,7.264a30.049,30.049,0,0,0-3.1-6.736l-1.008.4a32.787,32.787,0,0,1,2.128,4.32c-1.872.224-3.76.432-5.408.624,1.024-3.392,2.16-8.24,2.88-12.08l-1.28-.224a103.421,103.421,0,0,1-2.832,12.432c-.592.08-1.136.128-1.616.176l.256,1.232c2.192-.272,5.392-.688,8.416-1.1.192.512.336,1.008.448,1.424ZM3.568,55.832,2.016,55.8a7.217,7.217,0,0,1,.112,1.424c0,.928.032,2.88.176,4.272.432,4.144,1.888,5.648,3.408,5.648,1.072,0,2.048-.928,3.008-3.648L7.712,62.36c-.416,1.6-1.168,3.264-1.984,3.264-1.136,0-1.92-1.776-2.176-4.448-.112-1.328-.128-2.784-.112-3.792A12.182,12.182,0,0,1,3.568,55.832Zm8.336.448-1.248.432c1.536,1.872,2.5,5.152,2.784,8.048l1.28-.528A17.2,17.2,0,0,0,11.9,56.28ZM24,59.224a1.7,1.7,0,1,0,1.7,1.7A1.687,1.687,0,0,0,24,59.224ZM33.6,67h1.488V62.344h1.936c2.576,0,4.32-1.152,4.32-3.632,0-2.56-1.76-3.456-4.384-3.456H33.6Zm1.488-5.856V56.472h1.68c2.064,0,3.1.544,3.1,2.24,0,1.68-.976,2.432-3.04,2.432Zm9.728,6.064A4.655,4.655,0,0,0,47.7,65.96h.048L47.872,67h1.2V61.656c0-2.144-.9-3.568-3.008-3.568a6.535,6.535,0,0,0-3.424,1.136l.576,1.008a4.787,4.787,0,0,1,2.608-.928c1.424,0,1.792,1.072,1.792,2.192-3.7.416-5.344,1.36-5.344,3.248A2.355,2.355,0,0,0,44.816,67.208Zm.416-1.168c-.864,0-1.536-.4-1.536-1.392,0-1.12.992-1.84,3.92-2.192v2.432A3.551,3.551,0,0,1,45.232,66.04Zm6.752,4.7c1.728,0,2.64-1.312,3.232-3.024l3.28-9.408H57.072L55.52,63.144c-.24.768-.5,1.648-.736,2.432H54.7c-.272-.784-.576-1.68-.832-2.432L52.1,58.312h-1.52l3.488,8.7-.192.656c-.352,1.072-.976,1.872-1.968,1.872a2.076,2.076,0,0,1-.656-.144l-.288,1.168A2.675,2.675,0,0,0,51.984,70.744ZM63.888,67h1.488V62.344h1.936c2.576,0,4.32-1.152,4.32-3.632,0-2.56-1.76-3.456-4.384-3.456h-3.36Zm1.488-5.856V56.472h1.68c2.064,0,3.1.544,3.1,2.24,0,1.68-.976,2.432-3.04,2.432ZM75.1,67.208a4.655,4.655,0,0,0,2.88-1.248h.048L78.16,67h1.2V61.656c0-2.144-.9-3.568-3.008-3.568a6.535,6.535,0,0,0-3.424,1.136l.576,1.008a4.787,4.787,0,0,1,2.608-.928c1.424,0,1.792,1.072,1.792,2.192-3.7.416-5.344,1.36-5.344,3.248A2.355,2.355,0,0,0,75.1,67.208Zm.416-1.168c-.864,0-1.536-.4-1.536-1.392,0-1.12.992-1.84,3.92-2.192v2.432A3.551,3.551,0,0,1,75.52,66.04Zm6.752,4.7c1.728,0,2.64-1.312,3.232-3.024l3.28-9.408H87.36l-1.552,4.832c-.24.768-.5,1.648-.736,2.432h-.08c-.272-.784-.576-1.68-.832-2.432l-1.776-4.832h-1.52l3.488,8.7-.192.656c-.352,1.072-.976,1.872-1.968,1.872a2.076,2.076,0,0,1-.656-.144l-.288,1.168A2.675,2.675,0,0,0,82.272,70.744Zm14.72-11.52a1.7,1.7,0,1,0,1.7,1.7A1.687,1.687,0,0,0,96.992,59.224Zm10.752-3.2v1.424c.368-.016,1.168-.048,1.76-.048h7.664v7.552h-7.856a16.9,16.9,0,0,1-1.776-.1v1.456c.432-.032,1.152-.064,1.808-.064h7.824c-.016.384-.016.72-.032.9h1.44c-.016-.256-.064-.976-.064-1.552V57.336c0-.384.032-.88.048-1.248-.32.016-.8.032-1.184.032h-7.888A16.146,16.146,0,0,1,107.744,56.024Zm16.88-.752-.912.976a33.23,33.23,0,0,1,3.984,3.344l1.008-1.008A35.036,35.036,0,0,0,124.624,55.272Zm-1.376,10.72L124.1,67.3a17.538,17.538,0,0,0,6.288-2.48,15.986,15.986,0,0,0,5.376-5.7l-.768-1.36a15.072,15.072,0,0,1-5.344,5.888A16.521,16.521,0,0,1,123.248,65.992ZM148.64,54.456l-.848.368a18.287,18.287,0,0,1,1.3,2.224l.864-.4A24.8,24.8,0,0,0,148.64,54.456Zm1.76-.64-.848.368a16.821,16.821,0,0,1,1.328,2.208l.864-.4A22.893,22.893,0,0,0,150.4,53.816ZM141.456,55h-1.488a8.672,8.672,0,0,1,.1,1.3v8.8c0,1.3.688,1.856,1.92,2.08a16.814,16.814,0,0,0,2.56.16A44.735,44.735,0,0,0,150.08,67V65.544a26.187,26.187,0,0,1-5.472.512,15.205,15.205,0,0,1-2.112-.128c-.784-.16-1.12-.368-1.12-1.184v-3.52a61.339,61.339,0,0,0,6.544-2.08c.48-.176,1.056-.432,1.5-.624l-.56-1.28a11.664,11.664,0,0,1-1.408.72,43.582,43.582,0,0,1-6.08,1.952V56.3A10.625,10.625,0,0,1,141.456,55Zm14.384,1.584v1.44c.5-.016,1.024-.048,1.584-.048h6.848c.528,0,1.136.016,1.584.048v-1.44a15.722,15.722,0,0,1-1.584.064h-6.848C156.9,56.648,156.352,56.616,155.84,56.584Zm-1.376,7.92V66.04c.544-.032,1.1-.08,1.68-.08h9.584c.432,0,.976.032,1.456.08V64.5a14.53,14.53,0,0,1-1.456.08h-9.584C155.568,64.584,155.008,64.536,154.464,64.5Zm21.472-4.016-2.464.608v-3.12h2.336v-1.1h-2.336V53.608h-1.136v3.264h-2.544v1.1h2.544v3.392c-1.056.256-2.016.48-2.768.64l.288,1.168c.736-.192,1.584-.416,2.48-.64V66.76c0,.272-.1.336-.336.352s-1.072.032-1.936,0a5.1,5.1,0,0,1,.368,1.12,7.739,7.739,0,0,0,2.416-.208c.464-.192.624-.528.624-1.264V62.232c.848-.224,1.728-.448,2.576-.672Zm8.512,7.264a30.049,30.049,0,0,0-3.1-6.736l-1.008.4a32.787,32.787,0,0,1,2.128,4.32c-1.872.224-3.76.432-5.408.624,1.024-3.392,2.16-8.24,2.88-12.08l-1.28-.224a103.421,103.421,0,0,1-2.832,12.432c-.592.08-1.136.128-1.616.176l.256,1.232c2.192-.272,5.392-.688,8.416-1.1.192.512.336,1.008.448,1.424ZM3.568,79.832,2.016,79.8a7.217,7.217,0,0,1,.112,1.424c0,.928.032,2.88.176,4.272.432,4.144,1.888,5.648,3.408,5.648,1.072,0,2.048-.928,3.008-3.648L7.712,86.36c-.416,1.6-1.168,3.264-1.984,3.264-1.136,0-1.92-1.776-2.176-4.448-.112-1.328-.128-2.784-.112-3.792A12.182,12.182,0,0,1,3.568,79.832Zm8.336.448-1.248.432c1.536,1.872,2.5,5.152,2.784,8.048l1.28-.528A17.2,17.2,0,0,0,11.9,80.28Zm11.232,8.8c0-.784.848-1.3,2.048-1.3a5.445,5.445,0,0,1,1.632.256c.016.208.016.4.016.56,0,1.056-.4,1.744-1.744,1.744C23.936,90.344,23.136,89.9,23.136,89.08Zm4.848-10.4h-1.44c.032.272.064.7.064.976V81.64c-.5.016-1.008.032-1.5.032-.96,0-1.808-.048-2.72-.128v1.2c.944.064,1.776.112,2.688.112.512,0,1.024-.016,1.536-.032.016,1.312.112,2.88.16,4.112a7.337,7.337,0,0,0-1.488-.144c-2.1,0-3.3,1.072-3.3,2.416,0,1.44,1.184,2.288,3.328,2.288,2.16,0,2.768-1.264,2.768-2.576v-.336A13.016,13.016,0,0,1,30.5,90.44l.7-1.072A10.546,10.546,0,0,0,28.032,87.3c-.064-1.344-.176-2.944-.192-4.56.96-.064,1.888-.16,2.768-.3V81.208a27.017,27.017,0,0,1-2.768.368c.016-.752.032-1.5.048-1.936Q27.912,79.16,27.984,78.68Zm-7.9.1-1.408-.112a9.6,9.6,0,0,1-.1,1.136,47.607,47.607,0,0,0-.736,6.736,19.325,19.325,0,0,0,.608,5.056l1.12-.08c-.016-.176-.032-.4-.032-.56a2.866,2.866,0,0,1,.064-.72c.16-.784.752-2.416,1.136-3.536l-.656-.512c-.272.656-.656,1.632-.912,2.352a15.009,15.009,0,0,1-.16-2.224,39.671,39.671,0,0,1,.8-6.448A8.32,8.32,0,0,1,20.08,78.776Zm26.752,1.152V78.744H33.168v1.184H40.24A18.563,18.563,0,0,1,32.768,86.9a8.184,8.184,0,0,1,.8,1.04,20.517,20.517,0,0,0,5.792-4.656v8.9h1.264v-10.5c.4-.592.784-1.168,1.136-1.76Zm-5.888,3.44a35.7,35.7,0,0,1,5.392,4.352l.944-.912A36.519,36.519,0,0,0,41.824,82.6Zm14.96.048v3.648H51.728V83.416ZM57.072,88.2V82.264h-6.5V89.48h1.152V88.2ZM63.1,78.744H48.944v1.184H59.92V90.5c0,.336-.112.448-.464.464-.368.016-1.68.032-2.96-.032a5.989,5.989,0,0,1,.512,1.264,12.353,12.353,0,0,0,3.312-.224c.608-.176.816-.608.816-1.456V79.928H63.1Zm2.48,15.408a15.106,15.106,0,0,0,0-16.24l-.9.416a15.484,15.484,0,0,1,0,15.392Z" transform="translate(3904.96 -15919.984)" fill="#3c505a"/>
    <line id="Line_36" data-name="Line 36" y2="96" transform="translate(3893.46 -15919.484)" fill="none" stroke="#a9a9a9" stroke-width="1" stroke-dasharray="2"/>
  </g>
</svg>
