<svg xmlns="http://www.w3.org/2000/svg" width="300.357" height="56.647" viewBox="0 0 300.357 56.647">
  <g id="Group_403" data-name="Group 403" transform="translate(-20.043 -271.881)">
    <g id="Group_154" data-name="Group 154" transform="translate(-3935.541 16606.469)">
      <path id="Path_171" data-name="Path 171" d="M14.9,0H19.04V-37.352H10.808l-2.184,3.92H14.9ZM45.024-38.248,32.312-20.608a14.731,14.731,0,0,0-3.08,8.568A12.472,12.472,0,0,0,42.168.672,12.384,12.384,0,0,0,54.992-12.152c0-6.944-4.928-12.32-12.1-12.32a10.731,10.731,0,0,0-3.3.5L48.16-35.9ZM42.112-3.136a8.547,8.547,0,0,1-8.736-8.9,8.4,8.4,0,0,1,8.68-8.624,8.43,8.43,0,0,1,8.792,8.624A8.548,8.548,0,0,1,42.112-3.136ZM59.36,7.448l2.632,1.064L67.648-4.144l-3.7-1.344Zm35.672-26.88a9.121,9.121,0,0,0,4.536-8.176c0-5.32-3.584-10.36-10.3-10.36s-10.3,5.04-10.3,10.36A9.121,9.121,0,0,0,83.5-19.432,9.427,9.427,0,0,0,77.84-10.3C77.84-4.48,81.648.672,89.264.672S100.688-4.48,100.688-10.3A9.427,9.427,0,0,0,95.032-19.432Zm-5.768-1.68a6.257,6.257,0,0,1-6.384-6.44,6.3,6.3,0,0,1,6.384-6.608,6.3,6.3,0,0,1,6.384,6.608A6.257,6.257,0,0,1,89.264-21.112Zm0,17.976a6.968,6.968,0,0,1-7.28-7.28,6.9,6.9,0,0,1,7.28-7.112,6.9,6.9,0,0,1,7.28,7.112A6.968,6.968,0,0,1,89.264-3.136ZM121.072.672c2.968,0,6.72-1.456,9.576-5.6a24.256,24.256,0,0,0,3.752-13.72,24.256,24.256,0,0,0-3.752-13.72c-2.856-4.144-6.608-5.6-9.576-5.6s-6.72,1.456-9.576,5.6a24.256,24.256,0,0,0-3.752,13.72A24.256,24.256,0,0,0,111.5-4.928C114.352-.784,118.1.672,121.072.672Zm0-34.832c1.9,0,4.48,1.008,6.44,4.144,2.016,3.192,2.744,7.448,2.744,11.368s-.728,8.176-2.744,11.368c-1.96,3.136-4.536,4.144-6.44,4.144s-4.48-1.008-6.44-4.144c-2.016-3.192-2.744-7.448-2.744-11.368s.728-8.176,2.744-11.368C116.592-33.152,119.168-34.16,121.072-34.16ZM152.88.672c2.968,0,6.72-1.456,9.576-5.6a24.256,24.256,0,0,0,3.752-13.72,24.256,24.256,0,0,0-3.752-13.72c-2.856-4.144-6.608-5.6-9.576-5.6s-6.72,1.456-9.576,5.6a24.256,24.256,0,0,0-3.752,13.72A24.256,24.256,0,0,0,143.3-4.928C146.16-.784,149.912.672,152.88.672Zm0-34.832c1.9,0,4.48,1.008,6.44,4.144,2.016,3.192,2.744,7.448,2.744,11.368s-.728,8.176-2.744,11.368c-1.96,3.136-4.536,4.144-6.44,4.144s-4.48-1.008-6.44-4.144c-2.016-3.192-2.744-7.448-2.744-11.368s.728-8.176,2.744-11.368C148.4-33.152,150.976-34.16,152.88-34.16ZM194.4-1.02a2.293,2.293,0,0,1-.75,1.912q-.666.552-3.894.552a1.093,1.093,0,0,1-.566-.085,1.291,1.291,0,0,1-.184-.5,4.568,4.568,0,0,0-.552-1.331q1.189.113,2.818.113a1.622,1.622,0,0,0,1.076-.255,1.13,1.13,0,0,0,.227-.807v-8.793H174.094V-3.6l.057,5.069q0,.241-.227.241h-1.43q-.227,0-.227-.241l.057-5.452V-16.213l-.057-5.466q0-.269.227-.269l4.092.057h13.523l4.064-.057q.227,0,.227.269l-.057,5.522V-5.65Zm-1.827-10.79v-8.482h-8.5v8.482Zm-10.238,0v-8.482h-8.241v8.482Z" transform="translate(4061.541 -16286.453)" fill="#ff6525"/>
      <path id="Path_170" data-name="Path 170" d="M2.39,1.97l.57-.27A9.218,9.218,0,0,1,1.68-3.11,9.244,9.244,0,0,1,2.96-7.92l-.57-.26A9.339,9.339,0,0,0,.92-3.11,9.374,9.374,0,0,0,2.39,1.97ZM11.66-8.37a10.528,10.528,0,0,1-.9,1.73l.62.25a16.971,16.971,0,0,0,1.03-1.72ZM9.49-6.68A7.4,7.4,0,0,0,8.6-8.35l-.62.26a7.653,7.653,0,0,1,.86,1.72ZM7.61-2.89C7.41-3.12,6.56-4,6.25-4.26v-.61H7.5v-.7H6.25V-7.26a8.291,8.291,0,0,0,1.27-.4L7-8.22a14.644,14.644,0,0,1-3.16.8,2.8,2.8,0,0,1,.23.58c.46-.07.97-.15,1.46-.25v1.52H3.9v.7H5.43A10.327,10.327,0,0,1,3.71-1.74a3.44,3.44,0,0,1,.37.68A10.623,10.623,0,0,0,5.53-3.68V.74h.72V-3.54A11.452,11.452,0,0,1,7.16-2.3Zm.97-2.82h3.13v1.95H8.58ZM11.43-.03c-.22,0-.25-.04-.25-.29V-3.1h1.27V-6.36H7.87V-3.1H8.89C8.73-1.68,8.33-.43,6.77.2a2.35,2.35,0,0,1,.45.57C8.95.01,9.44-1.42,9.62-3.1h.85V-.32c0,.74.16.96.85.96h.85c.59,0,.78-.34.85-1.62a1.843,1.843,0,0,1-.65-.3c-.02,1.09-.07,1.25-.28,1.25Zm6.01-7.83v.7h1.82c.05.44.1.86.17,1.27l-.32-.05a6.526,6.526,0,0,1-2.7,4.53,4.361,4.361,0,0,1,.58.55,7.145,7.145,0,0,0,2.65-4.05A6.066,6.066,0,0,0,22.3-.86a3.448,3.448,0,0,1,.59-.56c-2-1.03-2.78-3.39-3.02-6.44ZM16.3-6.58a7.61,7.61,0,0,0-1.74-1.54l-.55.45a6.9,6.9,0,0,1,1.7,1.58Zm-.28,2.13H13.9v.7h1.39v2.53A16.7,16.7,0,0,1,13.77-.08l.4.75C14.7.24,15.2-.19,15.68-.61A3.564,3.564,0,0,0,18.51.57c1.1.04,3.15.02,4.24-.02a3.384,3.384,0,0,1,.24-.76c-1.17.08-3.39.11-4.48.07a2.911,2.911,0,0,1-2.49-1.12Zm8.35,6.42a9.3,9.3,0,0,0,1.48-5.08,9.262,9.262,0,0,0-1.48-5.07l-.56.26a9.339,9.339,0,0,1,1.28,4.81A9.313,9.313,0,0,1,23.81,1.7Z" transform="translate(4228.542 -16317.204)" fill="#a9a9a9"/>
    </g>
    <g id="Group_153" data-name="Group 153" transform="translate(-3891.957 16607.881)">
      <path id="Path_108" data-name="Path 108" d="M0,0H94.266L111,52.52H0Z" transform="translate(3912 -16336)" fill="#ffbe00"/>
      <path id="Path_169" data-name="Path 169" d="M3.16-13.04H16.78v2.92H18.3v-4.32H10.74v-2.28H9.2v2.28H1.7v4.32H3.16Zm7.58,8.5h5.92V-5.92H10.74V-9.24h5.1v-1.4H4.26v1.4H9.22V-.86A6.007,6.007,0,0,1,5.54-4.72a25.244,25.244,0,0,0,.48-2.66L4.5-7.52C4.06-3.94,2.98-1.1.76.62a7.764,7.764,0,0,1,1.22,1A10.957,10.957,0,0,0,4.96-2.84c1.82,3.38,4.8,4.1,8.94,4.1h4.64a4.383,4.383,0,0,1,.56-1.5c-.96.02-4.4.02-5.12.02a18.258,18.258,0,0,1-3.24-.24Zm13.4-2.1h3.62v2H24.14Zm3.62-6.12V-11H24.14v-1.76ZM24.14-9.8h3.62v1.96H24.14ZM30.6-4.64H29.14v-8.12H30.6V-14.1H29.14v-2.4H27.76v2.4H24.14v-2.4H22.78v2.4H21.1v1.34h1.68v8.12H20.84V-3.3H30.6Zm-7,1.76A10.433,10.433,0,0,1,20.86.68a9.194,9.194,0,0,1,1.2.86A13.22,13.22,0,0,0,25.02-2.5Zm2.84.62A15.7,15.7,0,0,1,28.5.78l1.2-.7a14.816,14.816,0,0,0-2.1-2.96Zm6.5-4.28c.02-.68.04-1.36.04-1.98V-9.86h4.08v3.32Zm4.12-7.84v3.18H32.98v-3.18Zm1.44-1.36H31.58v7.22c0,2.86-.16,6.66-1.82,9.3a3.811,3.811,0,0,1,1.18.86,15.658,15.658,0,0,0,1.9-6.84h4.22V-.4c0,.32-.12.42-.42.42-.28.02-1.28.02-2.34,0a6.046,6.046,0,0,1,.46,1.44,8.865,8.865,0,0,0,2.98-.28c.54-.24.76-.68.76-1.56Zm6.62-.94A22.1,22.1,0,0,1,40.46-8.9a11.521,11.521,0,0,1,.82,1.4,20.505,20.505,0,0,0,1.86-2.32V1.5h1.42V-12.12a32.314,32.314,0,0,0,1.92-4.14Zm8.6,6.56H51.44v-3.26h2.28Zm3.62,8.7H55.02V-8.78h2.32ZM47.92-8.78h2.22v7.36H47.92Zm5.8,0v7.36H51.44V-8.78Zm5.22-4.6v-1.34H46.3v1.34h3.74v3.26H46.56V1.2h1.36V-.1h9.42V1.08h1.44v-11.2H55.14v-3.26Zm11.3,7.62A18.648,18.648,0,0,0,73.5-8.02a14.532,14.532,0,0,0,3.36,2.26Zm.38,5.12V-4.48H76.2V-.64Zm.86-12.66h4.36a12.488,12.488,0,0,1-2.36,3.4,13.179,13.179,0,0,1-2.24-3.04Zm5.3-1.36-.26.06H72.24c.3-.58.58-1.16.82-1.76l-1.44-.4a15.189,15.189,0,0,1-3.54,5.4v-1.1H65.5v-4.28H64.08v4.28H61.1v1.38h2.82a21.647,21.647,0,0,1-3.28,7.54,6.741,6.741,0,0,1,.78,1.32,21.229,21.229,0,0,0,2.66-5.72V1.5H65.5V-8.48c.62.86,1.32,1.92,1.64,2.5l.88-1.16c-.38-.48-1.94-2.4-2.52-3.04v-.9h2.28c-.16.14-.34.28-.5.42a8.2,8.2,0,0,1,1.18,1,15.474,15.474,0,0,0,1.96-2.12,15.357,15.357,0,0,0,2.08,2.8,16.55,16.55,0,0,1-5.66,3.16,4.189,4.189,0,0,1,.84,1.2,15.508,15.508,0,0,0,1.58-.66V1.54h1.36V.66H76.2v.8h1.4V-5.42c.3.12.62.24.94.36a5.706,5.706,0,0,1,.92-1.24,14.155,14.155,0,0,1-4.98-2.68,14.112,14.112,0,0,0,3.22-5.24Z" transform="translate(3916.957 -16292.11)" fill="#3c505a"/>
      <path id="Path_168" data-name="Path 168" d="M5.754-11.186H4.508a7.382,7.382,0,0,1,.07.994c0,.252-.014.868-.014,1.6-.392.028-.756.042-1.078.042a12.955,12.955,0,0,1-1.792-.112L1.722-7.6a15.378,15.378,0,0,0,1.792.07c.294,0,.644-.014,1.036-.042-.014.616-.014,1.274-.014,1.834v.8c-1.61.686-3.066,1.9-3.066,3.066C1.47-.63,3.29.448,4.382.448c.756,0,1.232-.42,1.232-1.722,0-.6-.028-1.848-.056-3.038A9.171,9.171,0,0,1,8.61-4.858c1.33,0,2.408.644,2.408,1.834,0,1.288-1.12,1.946-2.352,2.184a7.16,7.16,0,0,1-1.638.1L7.42.392A10.616,10.616,0,0,0,9.156.2c1.918-.462,2.982-1.54,2.982-3.234s-1.47-2.786-3.514-2.786a10.588,10.588,0,0,0-3.08.518V-5.8c0-.56.014-1.232.028-1.89a25.7,25.7,0,0,0,2.94-.49L8.484-9.268a18.828,18.828,0,0,1-2.884.56c.014-.63.042-1.176.056-1.512A8.981,8.981,0,0,1,5.754-11.186Zm4.34,1.554-.5.84a17.759,17.759,0,0,1,3.136,2.1l.574-.9A25.447,25.447,0,0,0,10.094-9.632Zm-7.532,7.7c0-.63.854-1.442,2-1.974.014,1.022.042,1.974.042,2.478,0,.462-.2.686-.518.686C3.542-.742,2.562-1.288,2.562-1.932ZM25.354-9.366H20.748v-1.12h4.606Zm0,1.89H20.748V-8.61h4.606ZM26.39-11.27H19.74v4.592h6.65Zm-8.848-.392a10.731,10.731,0,0,1-2.968,2.856,4.537,4.537,0,0,1,.546.84,14,14,0,0,0,3.416-3.318Zm.252,3.052A13.139,13.139,0,0,1,14.35-4.83a6.52,6.52,0,0,1,.546.994,13.514,13.514,0,0,0,1.638-1.512V1.064h1.022V-6.524A16,16,0,0,0,18.7-8.246Zm1.974,6.566A11.873,11.873,0,0,1,21.49-.014l.8-.56A12.323,12.323,0,0,0,20.51-2.52ZM27.3-3.654H25.214v-1.19h1.834v-.9H18.886v.9h5.292v1.19H18.564v.9h5.614V-.1c0,.182-.056.238-.28.252-.2.014-.9.014-1.68-.014a3.517,3.517,0,0,1,.336.952A7.17,7.17,0,0,0,24.682.924c.406-.168.532-.434.532-.994V-2.758H27.3Zm7.084-5.8v1.12a32.908,32.908,0,0,0,5.754,0V-9.464A23.953,23.953,0,0,1,34.384-9.45Zm.546,5.7-1.008-.1A7.524,7.524,0,0,0,33.684-2.2c0,1.316,1.05,2.1,3.4,2.1a18.972,18.972,0,0,0,3.5-.294l-.028-1.176a15.444,15.444,0,0,1-3.472.364c-1.9,0-2.366-.616-2.366-1.26A4.889,4.889,0,0,1,34.93-3.752Zm-3.22-6.776-1.246-.112a6.127,6.127,0,0,1-.1.994,39.379,39.379,0,0,0-.63,5.614A17.627,17.627,0,0,0,30.254.462l1.008-.07c-.014-.14-.028-.336-.042-.49a2.7,2.7,0,0,1,.07-.63,28.572,28.572,0,0,1,.994-3.136L31.7-4.312c-.238.574-.574,1.414-.812,2.044a15.354,15.354,0,0,1-.126-1.96,32.509,32.509,0,0,1,.7-5.362C31.514-9.842,31.64-10.29,31.71-10.528Zm16.044-.658H46.508a7.382,7.382,0,0,1,.07.994c0,.252-.014.868-.014,1.6-.392.028-.756.042-1.078.042a12.955,12.955,0,0,1-1.792-.112L43.722-7.6a15.378,15.378,0,0,0,1.792.07c.294,0,.644-.014,1.036-.042-.014.616-.014,1.274-.014,1.834v.8c-1.61.686-3.066,1.9-3.066,3.066C43.47-.63,45.29.448,46.382.448c.756,0,1.232-.42,1.232-1.722,0-.6-.028-1.848-.056-3.038a9.171,9.171,0,0,1,3.052-.546c1.33,0,2.408.644,2.408,1.834,0,1.288-1.12,1.946-2.352,2.184a7.16,7.16,0,0,1-1.638.1L49.42.392A10.616,10.616,0,0,0,51.156.2c1.918-.462,2.982-1.54,2.982-3.234s-1.47-2.786-3.514-2.786a10.588,10.588,0,0,0-3.08.518V-5.8c0-.56.014-1.232.028-1.89a25.7,25.7,0,0,0,2.94-.49l-.028-1.092a18.828,18.828,0,0,1-2.884.56c.014-.63.042-1.176.056-1.512A8.982,8.982,0,0,1,47.754-11.186Zm4.34,1.554-.5.84a17.759,17.759,0,0,1,3.136,2.1l.574-.9A25.448,25.448,0,0,0,52.094-9.632Zm-7.532,7.7c0-.63.854-1.442,2-1.974.014,1.022.042,1.974.042,2.478,0,.462-.2.686-.518.686C45.542-.742,44.562-1.288,44.562-1.932ZM61.278-3.808c-1.708.98-3.514,1.988-4.7,2.6l.63.924c1.246-.7,2.9-1.68,4.4-2.6Zm-.5-1.2a12.33,12.33,0,0,0-2.268-2.534l-.8.532a12.14,12.14,0,0,1,2.226,2.6ZM64.82-11a16.417,16.417,0,0,1,2.548,1.638l.658-.728a16.872,16.872,0,0,0-2.59-1.568ZM67.592-7.8A20.832,20.832,0,0,1,65.016-5,14.529,14.529,0,0,1,63.5-8.232v-.14h5.6v-.994H63.5v-2.31h-1.05v2.31h-5.5v.994h5.5V-.35c0,.28-.1.35-.364.364S60.914.028,59.948,0a5.068,5.068,0,0,1,.378,1.092,8.95,8.95,0,0,0,2.52-.2c.476-.182.658-.5.658-1.246V-5.866A11.82,11.82,0,0,0,68.754.042a3.907,3.907,0,0,1,.756-.91,9.691,9.691,0,0,1-3.976-3.346,29.409,29.409,0,0,0,2.954-2.954Zm11.774-3.038-1.2-.112a8.408,8.408,0,0,1-.084,1.064c-.056.336-.14.672-.224,1.022a7.065,7.065,0,0,0-3.6.994C74.13-8.26,74-8.638,73.92-8.96c-.1-.392-.21-.854-.28-1.246l-1.162.378a9.453,9.453,0,0,1,.462,1.26c.126.42.266.854.42,1.288A5.868,5.868,0,0,0,71.2-2.94c0,1.638.882,2.52,1.946,2.52a3.793,3.793,0,0,0,2.772-1.75,9.762,9.762,0,0,0,.658.812l.882-.728a8.637,8.637,0,0,1-.868-.98,18.152,18.152,0,0,0,2.044-4.76,3.4,3.4,0,0,1,2.94,3.5c0,2.156-1.624,3.7-4.55,3.948l.658.994c3-.42,5-2.114,5-4.9A4.361,4.361,0,0,0,78.9-8.778c.084-.336.154-.658.224-.966C79.184-10.01,79.268-10.486,79.366-10.836ZM72.212-3.024a4.758,4.758,0,0,1,1.512-3.248,15.826,15.826,0,0,0,1.26,2.688c.112.182.21.364.322.532-.616.826-1.358,1.526-2.044,1.526C72.632-1.526,72.212-2.1,72.212-3.024ZM75.67-4.466A15.814,15.814,0,0,1,74.578-6.93a6.219,6.219,0,0,1,3.01-.966A18.079,18.079,0,0,1,75.95-4C75.852-4.158,75.754-4.312,75.67-4.466Z" transform="translate(3916.957 -16317.37)" fill="#3c505a"/>
    </g>
  </g>
</svg>
