<svg xmlns="http://www.w3.org/2000/svg" xmlns:xlink="http://www.w3.org/1999/xlink" width="183" height="73" viewBox="0 0 183 73">
  <defs>
    <linearGradient id="linear-gradient" x1="0.698" x2="0.696" y2="0.958" gradientUnits="objectBoundingBox">
      <stop offset="0" stop-color="#ff8325"/>
      <stop offset="0.513" stop-color="#ff4f25"/>
      <stop offset="1" stop-color="#ff2c25"/>
    </linearGradient>
    <filter id="Rectangle_166" x="0" y="0" width="183" height="73" filterUnits="userSpaceOnUse">
      <feOffset dy="3" input="SourceAlpha"/>
      <feGaussianBlur stdDeviation="2.5" result="blur"/>
      <feFlood flood-color="#e74d13" flood-opacity="0.302"/>
      <feComposite operator="in" in2="blur"/>
      <feComposite in="SourceGraphic"/>
    </filter>
  </defs>
  <g id="Group_260" data-name="Group 260" transform="translate(4308.788 16714.775)">
    <g transform="matrix(1, 0, 0, 1, -4308.79, -16714.78)" filter="url(#Rectangle_166)">
      <rect id="Rectangle_166-2" data-name="Rectangle 166" width="168" height="58" rx="29" transform="translate(7.5 4.5)" fill="url(#linear-gradient)"/>
    </g>
    <path id="Path_172" data-name="Path 172" d="M-45.08-4.1l-1.848-.168a10.23,10.23,0,0,0-.266,2.016c0,1.932,1.61,3.01,4.816,3.01A21.468,21.468,0,0,0-37.52.266l-.014-1.96a19.942,19.942,0,0,1-4.914.546c-2.016,0-2.87-.63-2.87-1.54A5.247,5.247,0,0,1-45.08-4.1Zm7.056-7.378-1.106.448a10.331,10.331,0,0,1,.6.994c-1.078.1-2.59.182-3.92.182a32.846,32.846,0,0,1-3.808-.182v1.862c1.134.084,2.352.154,3.822.154,1.33,0,3.066-.1,4.046-.168V-9.758c.126.238.252.476.35.686l1.134-.49A20.671,20.671,0,0,0-38.024-11.48Zm1.666-.63-1.12.448A14.843,14.843,0,0,1-36.344-9.73l1.12-.476A19.989,19.989,0,0,0-36.358-12.11Zm5.25,3.374h-1.386v-1.288h1.386Zm0,2.548h-1.386v-1.3h1.386Zm0,2.548h-1.386V-4.956h1.386Zm1.456-7.7h-4.256v9.03h4.256Zm-3.584,9.128A6.641,6.641,0,0,1-34.678.434a8.524,8.524,0,0,1,1.232.812A9.268,9.268,0,0,0-31.78-1.89Zm1.638.49A12.132,12.132,0,0,1-30.45.644l1.288-.63a12.772,12.772,0,0,0-1.2-2.254Zm6.846-.476v-.7h1.092v.7Zm-2.506-.7h1.064v.7h-1.064Zm1.064-1.666v.644h-1.064v-.644Zm2.534,0v.644h-1.092v-.644ZM-26.194-7.98h1.428v.546h-1.428Zm0-1.624h1.428v.518h-1.428ZM-21.5-2.2h-.644V-5.726h-2.6v-.532h3.234V-7.434h-1.764V-7.98h1.288V-9.086h-1.288V-9.6h1.512V-10.78h-1.512v-1.064h-1.484v1.064h-1.428v-1.064H-27.65v1.064h-1.512V-9.6h1.512v.518h-1.19V-7.98h1.19v.546H-29.4v1.176h3.206v.532h-2.52V-2.2h-.756v1.162h.756V1.232h1.456V-1.036h3.6v.728c0,.154-.056.21-.238.21s-.77,0-1.316-.014a5.1,5.1,0,0,1,.434,1.33A5,5,0,0,0-22.75.98c.462-.224.6-.574.6-1.274v-.742h.644Zm3.738-8.876V-9.38h3.192c.042.476.1.98.2,1.512l-.854-.154C-16-4.34-17.668-1.638-20.58-.168A13.3,13.3,0,0,1-19.054,1.19a12.115,12.115,0,0,0,5.166-6.916,11.829,11.829,0,0,0,5.152,6.9A8.963,8.963,0,0,1-7.392-.28c-5.152-3.038-5.53-8.148-5.53-10.794ZM-.364-1.82c0-.532.532-.868,1.33-.868a4.322,4.322,0,0,1,1.12.154v.252c0,.826-.294,1.274-1.148,1.274C.2-1.008-.364-1.246-.364-1.82Zm4.158-9.142h-2a5.945,5.945,0,0,1,.1.924c0,.294.014.868.014,1.554-.322.014-.658.014-.98.014A23.328,23.328,0,0,1-1.526-8.6V-6.93C-.7-6.874.1-6.846.924-6.846c.322,0,.658,0,.994-.014.014.994.07,2.016.1,2.884a6.228,6.228,0,0,0-.91-.056C-.8-4.032-2-3.052-2-1.638-2-.168-.8.644,1.134.644c1.89,0,2.646-.952,2.73-2.3A14.685,14.685,0,0,1,5.572-.238l.966-1.47A9.163,9.163,0,0,0,3.822-3.514c-.056-.952-.126-2.072-.154-3.43.77-.056,1.5-.14,2.17-.238v-1.75a19.182,19.182,0,0,1-2.17.322c.014-.616.028-1.134.042-1.442A8.767,8.767,0,0,1,3.794-10.962Zm-6.832.154-1.932-.168A13.355,13.355,0,0,1-5.11-9.6a44.337,44.337,0,0,0-.574,5.838,16.444,16.444,0,0,0,.56,4.48L-3.542.588C-3.556.392-3.57.154-3.57.014A3.907,3.907,0,0,1-3.5-.644c.168-.756.616-2.184,1.008-3.332l-.854-.7c-.21.476-.448.952-.63,1.442a6.617,6.617,0,0,1-.056-.91A37.372,37.372,0,0,1-3.36-9.562,9.09,9.09,0,0,1-3.038-10.808Zm13.09.63V-8.33c1.134.1,2.352.154,3.822.154,1.33,0,3.066-.084,4.046-.168v-1.862c-1.078.112-2.674.2-4.06.2A36.726,36.726,0,0,1,10.052-10.178Zm1.176,5.936L9.394-4.41a9.057,9.057,0,0,0-.28,2.016c0,1.918,1.61,3,4.816,3A21.574,21.574,0,0,0,18.788.126l-.014-1.974a19.223,19.223,0,0,1-4.914.56c-2.016,0-2.87-.644-2.87-1.54A5.159,5.159,0,0,1,11.228-4.242Zm16.114-6.916-1.988-.084a6.349,6.349,0,0,1-.07,1.414c-.028.168-.056.364-.084.574a20.009,20.009,0,0,1-2.744-.266v1.736c.714.07,1.54.112,2.422.126a22.4,22.4,0,0,1-1.6,4.7l1.652.588a5.174,5.174,0,0,1,.392-.616A4.844,4.844,0,0,1,29.2-4.62c1.372,0,2.086.7,2.086,1.54,0,2.058-3.094,2.436-6.16,1.932L25.62.658c4.522.49,7.56-.644,7.56-3.794,0-1.792-1.5-3-3.766-3a6.822,6.822,0,0,0-3.472.882c.21-.686.434-1.582.63-2.436,1.876-.1,4.1-.364,5.558-.6L32.1-9.954a34.279,34.279,0,0,1-5.18.658c.028-.154.056-.308.084-.434C27.1-10.192,27.188-10.668,27.342-11.158Zm12.334-.112-.448,1.68c1.092.28,4.214.938,5.628,1.12l.42-1.708A42.851,42.851,0,0,1,39.676-11.27Zm.084,2.814-1.876-.266a51.648,51.648,0,0,1-.7,5.852l1.61.406a3.392,3.392,0,0,1,.518-.812A4.984,4.984,0,0,1,43.2-4.928c1.218,0,2.086.672,2.086,1.582,0,1.778-2.226,2.8-6.426,2.226L39.4.714c5.824.49,7.84-1.47,7.84-4.018,0-1.694-1.428-3.206-3.878-3.206a6.853,6.853,0,0,0-4.13,1.33C39.326-5.978,39.578-7.686,39.76-8.456Z" transform="translate(-4224.288 -16676.275)" fill="#fff"/>
    <path id="Polygon_16" data-name="Polygon 16" d="M5,0l5,6H0Z" transform="translate(-4155.288 -16686.275) rotate(90)" fill="#fff"/>
  </g>
</svg>
