<svg xmlns="http://www.w3.org/2000/svg" width="526.36" height="86.606" viewBox="0 0 526.36 86.606">
  <g id="Group_399" data-name="Group 399" transform="translate(-182 -309.762)">
    <g id="Group_154" data-name="Group 154" transform="translate(-3716.957 16636.016)">
      <path id="Path_166" data-name="Path 166" d="M26.866,0H34.34V-67.367H19.493L15.554-60.3H26.866ZM81.2-68.983,58.277-37.168c-5.05,7.07-5.555,12.928-5.555,15.453,0,10.6,7.474,22.927,23.331,22.927,13.433,0,23.129-9.7,23.129-23.129,0-12.524-8.888-22.22-21.816-22.22a19.354,19.354,0,0,0-5.959.909L86.86-64.741ZM75.952-5.656c-9.393,0-15.756-7.07-15.756-16.059,0-8.787,6.464-15.554,15.655-15.554S91.708-30.7,91.708-21.715C91.708-12.625,85.244-5.656,75.952-5.656ZM107.06,13.433l4.747,1.919,10.2-22.826L115.342-9.9ZM171.4-35.047a16.451,16.451,0,0,0,8.181-14.746c0-9.595-6.464-18.685-18.584-18.685s-18.584,9.09-18.584,18.685a16.451,16.451,0,0,0,8.181,14.746c-6.868,3.03-10.2,9.191-10.2,16.463,0,10.5,6.868,19.8,20.6,19.8s20.6-9.292,20.6-19.8C181.6-25.856,178.265-32.017,171.4-35.047Zm-10.4-3.03A11.284,11.284,0,0,1,149.48-49.692c0-7.373,5.353-11.918,11.514-11.918s11.514,4.545,11.514,11.918A11.284,11.284,0,0,1,160.994-38.077Zm0,32.421c-7.777,0-13.13-5.454-13.13-13.13,0-7.575,5.454-12.827,13.13-12.827s13.13,5.252,13.13,12.827C174.124-11.11,168.771-5.656,160.994-5.656Zm57.368,6.868c5.353,0,12.12-2.626,17.271-10.1,4.444-6.464,6.767-15.15,6.767-24.745s-2.323-18.281-6.767-24.745c-5.151-7.474-11.918-10.1-17.271-10.1s-12.12,2.626-17.271,10.1c-4.444,6.464-6.767,15.15-6.767,24.745s2.323,18.281,6.767,24.745C206.242-1.414,213.009,1.212,218.362,1.212Zm0-62.822c3.434,0,8.08,1.818,11.615,7.474,3.636,5.757,4.949,13.433,4.949,20.5s-1.313,14.746-4.949,20.5c-3.535,5.656-8.181,7.474-11.615,7.474s-8.08-1.818-11.615-7.474c-3.636-5.757-4.949-13.433-4.949-20.5s1.313-14.746,4.949-20.5C210.282-59.792,214.928-61.61,218.362-61.61ZM275.73,1.212c5.353,0,12.12-2.626,17.271-10.1,4.444-6.464,6.767-15.15,6.767-24.745S297.445-51.914,293-58.378c-5.151-7.474-11.918-10.1-17.271-10.1s-12.12,2.626-17.271,10.1c-4.444,6.464-6.767,15.15-6.767,24.745s2.323,18.281,6.767,24.745C263.61-1.414,270.377,1.212,275.73,1.212Zm0-62.822c3.434,0,8.08,1.818,11.615,7.474,3.636,5.757,4.949,13.433,4.949,20.5s-1.313,14.746-4.949,20.5c-3.535,5.656-8.181,7.474-11.615,7.474s-8.08-1.818-11.615-7.474c-3.636-5.757-4.949-13.433-4.949-20.5s1.313-14.746,4.949-20.5C267.65-59.792,272.3-61.61,275.73-61.61ZM349.462-1.793a4.032,4.032,0,0,1-1.32,3.362q-1.17.971-6.848.971a1.921,1.921,0,0,1-1-.149,2.27,2.27,0,0,1-.324-.872A8.033,8.033,0,0,0,339-.822q2.092.2,4.956.2a2.852,2.852,0,0,0,1.893-.448,1.987,1.987,0,0,0,.4-1.419V-17.955h-32.5V-6.325l.1,8.915q0,.423-.4.423h-2.515q-.4,0-.4-.423L310.64-7V-28.513l-.1-9.612q0-.473.4-.473l7.2.1h23.782l7.147-.1q.4,0,.4.473l-.1,9.712V-9.936ZM346.25-20.769V-35.685H331.309v14.917Zm-18,0V-35.685H313.752v14.917Z" transform="translate(4071 -16255)" fill="#ff6525"/>
      <path id="Path_165" data-name="Path 165" d="M3.824,3.152l.912-.432a14.749,14.749,0,0,1-2.048-7.7,14.79,14.79,0,0,1,2.048-7.7l-.912-.416A14.943,14.943,0,0,0,1.472-4.976,15,15,0,0,0,3.824,3.152ZM18.656-13.392a16.845,16.845,0,0,1-1.44,2.768l.992.4a27.154,27.154,0,0,0,1.648-2.752Zm-3.472,2.7A11.844,11.844,0,0,0,13.76-13.36l-.992.416a12.245,12.245,0,0,1,1.376,2.752ZM12.176-4.624C11.856-4.992,10.5-6.4,10-6.816v-.976h2v-1.12H10v-2.7a13.266,13.266,0,0,0,2.032-.64l-.832-.9a23.43,23.43,0,0,1-5.056,1.28,4.479,4.479,0,0,1,.368.928c.736-.112,1.552-.24,2.336-.4v2.432H6.24v1.12H8.688A16.523,16.523,0,0,1,5.936-2.784,5.5,5.5,0,0,1,6.528-1.7a17,17,0,0,0,2.32-4.192V1.184H10V-5.664A18.324,18.324,0,0,1,11.456-3.68Zm1.552-4.512h5.008v3.12H13.728Zm4.56,9.088c-.352,0-.4-.064-.4-.464V-4.96H19.92v-5.216H12.592V-4.96h1.632c-.256,2.272-.9,4.272-3.392,5.28a3.759,3.759,0,0,1,.72.912C14.32.016,15.1-2.272,15.392-4.96h1.36V-.512c0,1.184.256,1.536,1.36,1.536h1.36c.944,0,1.248-.544,1.36-2.592a2.948,2.948,0,0,1-1.04-.48c-.032,1.744-.112,2-.448,2ZM27.9-12.576v1.12h2.912c.08.7.16,1.376.272,2.032l-.512-.08c-.64,3.264-1.984,5.76-4.32,7.248a6.977,6.977,0,0,1,.928.88,11.432,11.432,0,0,0,4.24-6.48c.72,2.912,2.016,5.168,4.256,6.48a5.517,5.517,0,0,1,.944-.9c-3.2-1.648-4.448-5.424-4.832-10.3ZM26.08-10.528A12.175,12.175,0,0,0,23.3-12.992l-.88.72a11.039,11.039,0,0,1,2.72,2.528ZM25.632-7.12H22.24V-6h2.224v4.048A26.717,26.717,0,0,1,22.032-.128l.64,1.2C23.52.384,24.32-.3,25.088-.976A5.7,5.7,0,0,0,29.616.912c1.76.064,5.04.032,6.784-.032a5.414,5.414,0,0,1,.384-1.216c-1.872.128-5.424.176-7.168.112-1.84-.08-3.232-.624-3.984-1.792ZM38.992,3.152A14.874,14.874,0,0,0,41.36-4.976a14.82,14.82,0,0,0-2.368-8.112l-.9.416a14.943,14.943,0,0,1,2.048,7.7A14.9,14.9,0,0,1,38.1,2.72Z" transform="translate(4383.958 -16303.591)" fill="#a9a9a9"/>
    </g>
    <g id="Group_153" data-name="Group 153" transform="translate(-3730 16645.762)">
      <path id="Path_108" data-name="Path 108" d="M0,0H148.411l26.345,82.687H0Z" transform="translate(3912 -16336)" fill="#ffbe00"/>
      <path id="Path_168" data-name="Path 168" d="M4.74-19.56H25.17v4.38h2.28v-6.48H16.11v-3.42H13.8v3.42H2.55v6.48H4.74ZM16.11-6.81h8.88V-8.88H16.11v-4.98h7.65v-2.1H6.39v2.1h7.44V-1.29A9.01,9.01,0,0,1,8.31-7.08a37.867,37.867,0,0,0,.72-3.99l-2.28-.21C6.09-5.91,4.47-1.65,1.14.93a11.645,11.645,0,0,1,1.83,1.5A16.435,16.435,0,0,0,7.44-4.26c2.73,5.07,7.2,6.15,13.41,6.15h6.96a6.575,6.575,0,0,1,.84-2.25c-1.44.03-6.6.03-7.68.03a27.387,27.387,0,0,1-4.86-.36Zm20.1-3.15h5.43v3H36.21Zm5.43-9.18v2.64H36.21v-2.64ZM36.21-14.7h5.43v2.94H36.21ZM45.9-6.96H43.71V-19.14H45.9v-2.01H43.71v-3.6H41.64v3.6H36.21v-3.6H34.17v3.6H31.65v2.01h2.52V-6.96H31.26v2.01H45.9ZM35.4-4.32a15.65,15.65,0,0,1-4.11,5.34,13.791,13.791,0,0,1,1.8,1.29,19.83,19.83,0,0,0,4.44-6.06Zm4.26.93a23.551,23.551,0,0,1,3.09,4.56L44.55.12A22.224,22.224,0,0,0,41.4-4.32Zm9.75-6.42c.03-1.02.06-2.04.06-2.97v-2.01h6.12v4.98Zm6.18-11.76v4.77H49.47v-4.77Zm2.16-2.04H47.37v10.83c0,4.29-.24,9.99-2.73,13.95a5.717,5.717,0,0,1,1.77,1.29c1.8-2.88,2.55-6.69,2.85-10.26h6.33V-.6c0,.48-.18.63-.63.63-.42.03-1.92.03-3.51,0a9.069,9.069,0,0,1,.69,2.16,13.3,13.3,0,0,0,4.47-.42c.81-.36,1.14-1.02,1.14-2.34Zm9.93-1.41a33.147,33.147,0,0,1-6.99,11.67,17.282,17.282,0,0,1,1.23,2.1,30.758,30.758,0,0,0,2.79-3.48V2.25h2.13V-18.18a48.472,48.472,0,0,0,2.88-6.21Zm12.9,9.84H77.16v-4.89h3.42ZM86.01-2.13H82.53V-13.17h3.48ZM71.88-13.17h3.33V-2.13H71.88Zm8.7,0V-2.13H77.16V-13.17Zm7.83-6.9v-2.01H69.45v2.01h5.61v4.89H69.84V1.8h2.04V-.15H86.01V1.62h2.16v-16.8H82.71v-4.89ZM105.36-8.64a27.972,27.972,0,0,0,4.89-3.39,21.8,21.8,0,0,0,5.04,3.39Zm.57,7.68V-6.72h8.37V-.96Zm1.29-18.99h6.54a18.731,18.731,0,0,1-3.54,5.1,19.769,19.769,0,0,1-3.36-4.56Zm7.95-2.04-.39.09h-6.42c.45-.87.87-1.74,1.23-2.64l-2.16-.6a22.783,22.783,0,0,1-5.31,8.1v-1.65H98.25v-6.42H96.12v6.42H91.65v2.07h4.23c-.96,4.11-2.94,8.79-4.92,11.31a10.112,10.112,0,0,1,1.17,1.98,31.843,31.843,0,0,0,3.99-8.58V2.25h2.13V-12.72c.93,1.29,1.98,2.88,2.46,3.75l1.32-1.74c-.57-.72-2.91-3.6-3.78-4.56v-1.35h3.42c-.24.21-.51.42-.75.63a12.3,12.3,0,0,1,1.77,1.5,23.211,23.211,0,0,0,2.94-3.18,23.035,23.035,0,0,0,3.12,4.2,24.825,24.825,0,0,1-8.49,4.74,6.284,6.284,0,0,1,1.26,1.8,23.261,23.261,0,0,0,2.37-.99V2.31h2.04V.99h8.37v1.2h2.1V-8.13c.45.18.93.36,1.41.54a8.559,8.559,0,0,1,1.38-1.86,21.232,21.232,0,0,1-7.47-4.02,21.168,21.168,0,0,0,4.83-7.86Z" transform="translate(3923 -16267)" fill="#3c505a"/>
      <path id="Path_167" data-name="Path 167" d="M8.22-15.98H6.44a10.546,10.546,0,0,1,.1,1.42c0,.36-.02,1.24-.02,2.28-.56.04-1.08.06-1.54.06a18.507,18.507,0,0,1-2.56-.16l.04,1.52a21.969,21.969,0,0,0,2.56.1c.42,0,.92-.02,1.48-.06C6.48-9.94,6.48-9,6.48-8.2v1.14C4.18-6.08,2.1-4.34,2.1-2.68,2.1-.9,4.7.64,6.26.64c1.08,0,1.76-.6,1.76-2.46,0-.86-.04-2.64-.08-4.34a13.1,13.1,0,0,1,4.36-.78c1.9,0,3.44.92,3.44,2.62,0,1.84-1.6,2.78-3.36,3.12a10.228,10.228,0,0,1-2.34.14L10.6.56A15.166,15.166,0,0,0,13.08.28c2.74-.66,4.26-2.2,4.26-4.62,0-2.4-2.1-3.98-5.02-3.98a15.126,15.126,0,0,0-4.4.74v-.7c0-.8.02-1.76.04-2.7a36.716,36.716,0,0,0,4.2-.7l-.04-1.56a26.9,26.9,0,0,1-4.12.8c.02-.9.06-1.68.08-2.16A12.831,12.831,0,0,1,8.22-15.98Zm6.2,2.22-.72,1.2a25.37,25.37,0,0,1,4.48,3L19-10.84A36.353,36.353,0,0,0,14.42-13.76ZM3.66-2.76c0-.9,1.22-2.06,2.86-2.82.02,1.46.06,2.82.06,3.54,0,.66-.28.98-.74.98C5.06-1.06,3.66-1.84,3.66-2.76ZM36.22-13.38H29.64v-1.6h6.58Zm0,2.7H29.64V-12.3h6.58ZM37.7-16.1H28.2v6.56h9.5Zm-12.64-.56a15.331,15.331,0,0,1-4.24,4.08,6.482,6.482,0,0,1,.78,1.2,20,20,0,0,0,4.88-4.74Zm.36,4.36A18.77,18.77,0,0,1,20.5-6.9a9.315,9.315,0,0,1,.78,1.42,19.306,19.306,0,0,0,2.34-2.16V1.52h1.46V-9.32a22.857,22.857,0,0,0,1.64-2.46Zm2.82,9.38A16.961,16.961,0,0,1,30.7-.02l1.14-.8A17.6,17.6,0,0,0,29.3-3.6ZM39-5.22H36.02v-1.7h2.62V-8.2H26.98v1.28h7.56v1.7H26.52v1.28h8.02v3.8c0,.26-.08.34-.4.36-.28.02-1.28.02-2.4-.02a5.025,5.025,0,0,1,.48,1.36,10.243,10.243,0,0,0,3.04-.24c.58-.24.76-.62.76-1.42V-3.94H39ZM49.12-13.5v1.6a47.011,47.011,0,0,0,8.22,0v-1.62A34.218,34.218,0,0,1,49.12-13.5Zm.78,8.14L48.46-5.5a10.749,10.749,0,0,0-.34,2.36c0,1.88,1.5,3,4.86,3a27.1,27.1,0,0,0,5-.42l-.04-1.68a22.063,22.063,0,0,1-4.96.52c-2.72,0-3.38-.88-3.38-1.8A6.984,6.984,0,0,1,49.9-5.36Zm-4.6-9.68-1.78-.16a8.753,8.753,0,0,1-.14,1.42,56.255,56.255,0,0,0-.9,8.02A25.182,25.182,0,0,0,43.22.66l1.44-.1c-.02-.2-.04-.48-.06-.7a3.86,3.86,0,0,1,.1-.9,40.818,40.818,0,0,1,1.42-4.48l-.84-.64c-.34.82-.82,2.02-1.16,2.92a21.935,21.935,0,0,1-.18-2.8,46.441,46.441,0,0,1,1-7.66C45.02-14.06,45.2-14.7,45.3-15.04Zm22.92-.94H66.44a10.547,10.547,0,0,1,.1,1.42c0,.36-.02,1.24-.02,2.28-.56.04-1.08.06-1.54.06a18.507,18.507,0,0,1-2.56-.16l.04,1.52a21.969,21.969,0,0,0,2.56.1c.42,0,.92-.02,1.48-.06-.02.88-.02,1.82-.02,2.62v1.14c-2.3.98-4.38,2.72-4.38,4.38C62.1-.9,64.7.64,66.26.64c1.08,0,1.76-.6,1.76-2.46,0-.86-.04-2.64-.08-4.34a13.1,13.1,0,0,1,4.36-.78c1.9,0,3.44.92,3.44,2.62,0,1.84-1.6,2.78-3.36,3.12a10.228,10.228,0,0,1-2.34.14L70.6.56A15.166,15.166,0,0,0,73.08.28c2.74-.66,4.26-2.2,4.26-4.62,0-2.4-2.1-3.98-5.02-3.98a15.126,15.126,0,0,0-4.4.74v-.7c0-.8.02-1.76.04-2.7a36.716,36.716,0,0,0,4.2-.7l-.04-1.56a26.9,26.9,0,0,1-4.12.8c.02-.9.06-1.68.08-2.16A12.83,12.83,0,0,1,68.22-15.98Zm6.2,2.22-.72,1.2a25.37,25.37,0,0,1,4.48,3L79-10.84A36.353,36.353,0,0,0,74.42-13.76Zm-10.76,11c0-.9,1.22-2.06,2.86-2.82.02,1.46.06,2.82.06,3.54,0,.66-.28.98-.74.98C65.06-1.06,63.66-1.84,63.66-2.76ZM87.54-5.44c-2.44,1.4-5.02,2.84-6.72,3.72l.9,1.32c1.78-1,4.14-2.4,6.28-3.72Zm-.72-1.72a17.614,17.614,0,0,0-3.24-3.62l-1.14.76A17.343,17.343,0,0,1,85.62-6.3Zm5.78-8.56a23.453,23.453,0,0,1,3.64,2.34l.94-1.04a24.1,24.1,0,0,0-3.7-2.24Zm3.96,4.58a29.76,29.76,0,0,1-3.68,4,20.755,20.755,0,0,1-2.16-4.62v-.2h8v-1.42h-8v-3.3h-1.5v3.3H81.36v1.42h7.86V-.5c0,.4-.14.5-.52.52S87.02.04,85.64,0a7.241,7.241,0,0,1,.54,1.56,12.786,12.786,0,0,0,3.6-.28c.68-.26.94-.72.94-1.78V-8.38c1.72,3.74,4.22,6.84,7.5,8.44a5.581,5.581,0,0,1,1.08-1.3,13.844,13.844,0,0,1-5.68-4.78,42.015,42.015,0,0,0,4.22-4.22Zm16.82-4.34-1.72-.16a12.011,12.011,0,0,1-.12,1.52c-.08.48-.2.96-.32,1.46a10.092,10.092,0,0,0-5.14,1.42c-.18-.56-.36-1.1-.48-1.56-.14-.56-.3-1.22-.4-1.78l-1.66.54a13.506,13.506,0,0,1,.66,1.8c.18.6.38,1.22.6,1.84a8.382,8.382,0,0,0-3.08,6.2c0,2.34,1.26,3.6,2.78,3.6,1.5,0,2.72-1,3.96-2.5a13.944,13.944,0,0,0,.94,1.16l1.26-1.04a12.338,12.338,0,0,1-1.24-1.4,25.932,25.932,0,0,0,2.92-6.8,4.855,4.855,0,0,1,4.2,5c0,3.08-2.32,5.28-6.5,5.64l.94,1.42c4.28-.6,7.14-3.02,7.14-7a6.23,6.23,0,0,0-5.4-6.42c.12-.48.22-.94.32-1.38C113.12-14.3,113.24-14.98,113.38-15.48ZM103.16-4.32a6.8,6.8,0,0,1,2.16-4.64,22.608,22.608,0,0,0,1.8,3.84c.16.26.3.52.46.76-.88,1.18-1.94,2.18-2.92,2.18C103.76-2.18,103.16-3,103.16-4.32Zm4.94-2.06a22.592,22.592,0,0,1-1.56-3.52,8.884,8.884,0,0,1,4.3-1.38,25.827,25.827,0,0,1-2.34,5.56C108.36-5.94,108.22-6.16,108.1-6.38Z" transform="translate(3923 -16308.422)" fill="#3c505a"/>
    </g>
  </g>
</svg>
