<svg xmlns="http://www.w3.org/2000/svg" width="602" height="854.327" viewBox="0 0 602 854.327">
  <g id="Group_169" data-name="Group 169" transform="translate(-260 -6855.856)">
    <rect id="Rectangle_112" data-name="Rectangle 112" width="567" height="621" transform="translate(295 7007)" fill="#fff" opacity="0.8"/>
    <g id="Group_409" data-name="Group 409" transform="translate(-755 18653)">
      <rect id="Rectangle_146" data-name="Rectangle 146" width="60" height="68" transform="translate(1015 -11537)" fill="#fffa96"/>
      <path id="Path_191" data-name="Path 191" d="M8-32.75H23.6v-3.7H6.05L4.9-19.5l1.4.3a16.788,16.788,0,0,1,5.45-.85c5.25,0,8.75,3.2,8.75,9.2,0,5.8-3.1,9.55-8.7,9.55a13.338,13.338,0,0,1-3.75-.55l-1-3.25C6.4-7.45,5.8-8.15,4.4-8.15A2.354,2.354,0,0,0,2.05-6.5C3.2-1.7,6.75.7,12.05.7,19.6.7,24.5-4.25,24.5-11.3c0-7.3-4.7-11.4-11.6-11.4a17.38,17.38,0,0,0-5.65.9Zm25.45,14.2c0-12.95,3.45-16.6,7.05-16.6,3.5,0,6.9,3.65,6.9,16.6C47.4-5,44-1.3,40.5-1.3,36.9-1.3,33.45-4.95,33.45-18.55ZM40.5-37.2c-5.7,0-11.2,5.1-11.2,18.65C29.3-4.4,34.8.7,40.5.7c5.65,0,11.05-5.1,11.05-19.25C51.55-32.1,46.15-37.2,40.5-37.2ZM59.492.624,71.708-16.968,71.06-17.5,58.82.1Zm-2.04-12.48c0-3.744.96-4.632,1.92-4.632,1.008,0,1.92.912,1.92,4.632,0,3.744-.912,4.656-1.92,4.656C58.412-7.2,57.452-8.112,57.452-11.856Zm1.92-5.4c-1.8,0-3.576,1.584-3.576,5.4,0,3.84,1.776,5.424,3.576,5.424s3.552-1.584,3.552-5.424C62.924-15.672,61.172-17.256,59.372-17.256Zm9.6,12.1c0-3.768.984-4.656,1.944-4.656.984,0,1.9.912,1.9,4.656,0,3.72-.912,4.632-1.9,4.632C69.956-.528,68.972-1.44,68.972-5.16Zm1.944-5.4c-1.8,0-3.576,1.56-3.576,5.4S69.116.24,70.916.24s3.552-1.56,3.552-5.4S72.716-10.56,70.916-10.56ZM87.284-21.636h-2.2v-5.04h2.2Zm4.5,1.044v6.84h-.216a1.271,1.271,0,0,1-.5.108H89.48c-.324,0-.4-.108-.4-.468v-6.48ZM80.948-1.656v-4.9H91.784v4.9ZM83.36-20.592v1.512c0,2.556-.144,5.724-2.412,8.5V-20.592Zm6.624,8.676a11.366,11.366,0,0,0,1.8-.108V-7.6H80.948V-10.44l.36.432c3.492-2.592,3.78-6.444,3.78-9.036v-1.548h2.2v7.056c0,1.116.216,1.62,1.656,1.62Zm1.08-15.8H77.852l.252,1.044H83.18v5.04H81.092l-2.3-1.116V2.628h.4c.972,0,1.764-.576,1.764-.828V-.576H91.784V2.016h.324a2.727,2.727,0,0,0,1.836-.792V-20.16a2.814,2.814,0,0,0,1.548-.72L92.72-23.04l-1.3,1.4h-2.16v-5.04h5.544c.5,0,.828-.18.936-.576-1.152-1.08-3.024-2.52-3.024-2.52Zm19.152,21.1h-.468A51.77,51.77,0,0,1,108.6-1.116a.678.678,0,0,1-.72.5c-.468.072-1.764.072-3.492.072h-3.6c-1.44,0-1.656-.216-1.656-.9V-16.776h7.236v3.168h.36a2.944,2.944,0,0,0,1.872-.756V-26.136a3.23,3.23,0,0,0,1.8-.792L107.3-29.3l-1.368,1.512H96.5l.324,1.08h9.54v8.856h-6.8L96.9-19.008V-.9c0,1.944.648,2.484,3.528,2.484h3.96c5.724,0,6.912-.4,6.912-1.476,0-.432-.216-.72-.972-1.008ZM122.492-.972V-9.5h15.732V-.972Zm15.372-9.576H122.672l-2.628-1.188V2.736h.4c1.008,0,2.052-.54,2.052-.792V.108h15.732v2.34h.36c.792,0,2.052-.5,2.088-.756V-9.036a2.959,2.959,0,0,0,1.512-.72l-2.988-2.3Zm-3.528-6.7H121.844l.288,1.044h16.02c.5,0,.864-.18.972-.54-1.224-1.116-3.132-2.592-3.132-2.592ZM128.9-30.42c-1.908,5.184-9.18,12.42-15.336,15.84l.288.54c6.8-3.1,13.824-9.036,17.172-14.256,2.556,5.256,8.028,9.972,13.968,12.924a2.709,2.709,0,0,1,2.124-1.872l.072-.54c-6.336-2.52-12.312-6.408-15.48-10.944.864-.072,1.332-.216,1.44-.648Zm25.344,19.548c0-6.516,1.368-11.16,6.084-18l-.756-.648c-5.436,5.436-7.992,11.448-7.992,18.648S154.136,2.3,159.572,7.74l.756-.612C155.648.324,154.244-4.392,154.244-10.872Zm13.932-10.656a8.224,8.224,0,0,0,1.548,2.376,3.443,3.443,0,0,0,2.232,1.188c.864,0,2.844-.4,5.256-.72a4.383,4.383,0,0,1,1.152,3.2c0,1.62-.108,5.688-.288,8.352-4.86.468-9.18.936-10.224.936-1.26,0-2.088-.936-2.844-1.908l-.684.288a4.434,4.434,0,0,0,.468,1.98c.4.792,2.088,2.376,3.168,2.376.828,0,1.44-.5,2.808-.864A75.143,75.143,0,0,1,186.9-5.8a69.029,69.029,0,0,1,6.948.936c.684,0,1.08-.324,1.08-.936,0-1.3-2.844-2.484-4.32-2.484a16.99,16.99,0,0,1-2.448.4c-2.34.108-5.112.288-7.884.54.144-2.556.4-5.976.576-7.524.108-1.044.54-1.656.54-2.268,0-.684-.936-1.3-2.052-1.8,3.2-.36,7.776-.864,9.144-1.044,1.008-.144,1.332-.54,1.332-1.08,0-.828-2.016-1.584-3.348-1.584-.972,0-.432.9-6.048,1.692a78.188,78.188,0,0,1-8.028.864c-1.368,0-2.448-.828-3.6-1.836ZM211.3-27.072c1.26.54,2.2,1.116,2.2,1.728,0,2.088-5.292,9.432-10.908,13.464l.54.756a33.271,33.271,0,0,0,10.656-9.36,2.957,2.957,0,0,0,1.548.864,11.957,11.957,0,0,0,2.016-.468c1.3-.252,4.968-.828,5.76-.828.324,0,.468.108.288.54C220.592-13.248,212.132-3.96,202.88.864l.54.792c10.152-4.212,17.46-11.628,22.392-20.592.5-.936,1.692-1.152,1.692-1.872,0-.936-2.268-2.412-3.132-2.412-.612,0-.864.612-1.836.828a69.394,69.394,0,0,1-7.164.684,4.59,4.59,0,0,1-.684-.036c.432-.612.828-1.3,1.224-1.944.54-.9,1.044-1.26,1.044-1.872,0-.648-1.908-1.728-3.312-2.052a11.641,11.641,0,0,0-2.16-.144ZM262.28-20.3c.5-1.188,1.548-1.368,1.548-2.124,0-.972-2.052-2.88-3.6-3.132a10.365,10.365,0,0,0-2.34-.072l-.288.792c2.592.864,2.736,1.4,2.448,2.52C258.392-15.7,251.372-5.4,241.22.288l.576.792C251.732-3.24,258.392-11.232,262.28-20.3Zm-18.756,1.44c1.584,2.34,2.088,4.14,3.2,4.1.756,0,1.26-.684,1.26-1.584-.072-2.628-4.1-5.9-7.776-7.632l-.54.72A25.145,25.145,0,0,1,243.524-18.864ZM298.28-20.3c.5-1.188,1.548-1.368,1.548-2.124,0-.972-2.052-2.88-3.6-3.132a10.365,10.365,0,0,0-2.34-.072l-.288.792c2.592.864,2.736,1.4,2.448,2.52C294.392-15.7,287.372-5.4,277.22.288l.576.792C287.732-3.24,294.392-11.232,298.28-20.3Zm-18.756,1.44c1.584,2.34,2.088,4.14,3.2,4.1.756,0,1.26-.684,1.26-1.584-.072-2.628-4.1-5.9-7.776-7.632l-.54.72A25.144,25.144,0,0,1,279.524-18.864Zm29.448,3.852A6.388,6.388,0,0,0,309.3-13c.5,1.224,2.2,2.988,3.2,2.988,1.044,0,1.44-.54,3.492-.756,2.7-.324,12.816-.864,15.084-.864,2.2,0,3.456.072,4.716.072,1.224,0,1.584-.4,1.584-1.044,0-.972-1.62-1.584-2.988-1.584-.936,0-1.944.216-4.356.4-1.656.072-14.256.9-17.46.9-1.512,0-2.088-1.116-2.88-2.34Zm53.856,1.836a24,24,0,0,1,4.9,6.228c-3.96.72-11.016,1.584-15.516,2.052,2.556-4.284,6.408-11.844,8.064-15.264.4-.756,1.224-1.008,1.224-1.62,0-.9-1.584-2.376-3.06-2.844a7.183,7.183,0,0,0-2.052-.36l-.252.648c1.188.648,1.872,1.3,1.872,2.088,0,1.728-5.148,12.852-7.812,17.532-.864.072-1.512.108-1.836.108a3.261,3.261,0,0,1-1.944-.864l-.468.252a4.484,4.484,0,0,0,.108,1.368c.324,1.044,1.764,2.628,2.736,2.628.612,0,1.332-.9,2.088-1.044,3.24-.72,12.2-2.124,17.5-3.276,1.368,3.168,1.3,4.788,2.448,4.788.864,0,1.4-.684,1.4-1.692,0-3.852-4.644-8.892-8.748-11.376Zm27.9,9.9v-4.5h9.108v4.5ZM402.1-7.488a2.184,2.184,0,0,0,1.332-.612l-2.7-2.052-1.188,1.3h-8.676L388.46-9.9V-.108h.36a2.725,2.725,0,0,0,1.908-.72v-1.4h9.108V-.684h.36c.756,0,1.872-.54,1.908-.792Zm4.608-5.256H383.888L381.332-13.9V2.736h.4c.936,0,1.908-.54,1.908-.792V-11.664h23.436V-.72c0,.54-.18.756-.828.756-.756,0-4.212-.252-4.212-.252v.54a6.666,6.666,0,0,1,2.952.864,2.305,2.305,0,0,1,.756,1.62c3.24-.324,3.672-1.476,3.672-3.276V-11.232a2.823,2.823,0,0,0,1.548-.684l-3.06-2.268Zm-17.784-4.248V-21.2h12.78v4.212Zm13.14,2.628a3.338,3.338,0,0,0,1.98-.72v-5.688a3.1,3.1,0,0,0,1.548-.72l-2.916-2.2-1.332,1.4h-12.24l-2.484-1.08v9.216h.36c.936,0,1.944-.54,1.944-.756v-1.044h12.78v1.584ZM406.28-26.1h-9.864v-2.664c.864-.108,1.224-.468,1.3-.972l-3.672-.4V-26.1H379.388l.288,1.044H410.6c.5,0,.864-.18.972-.54-1.332-1.224-3.42-2.772-3.42-2.772ZM423.128-.684V-7.848h16.56V-.684Zm16.2-8.208h-2.88c1.188-2.088,2.592-4.68,3.384-6.156a2.631,2.631,0,0,0,1.728-.54l-2.7-2.34-1.3,1.368H419.78l.324,1.044H437.42c-.9,1.908-2.2,4.5-3.42,6.624H423.344l-2.592-1.188V2.844h.324c1.008,0,2.052-.576,2.052-.828V.36h16.56V2.592h.36a3.24,3.24,0,0,0,2.016-.756V-7.38a3.245,3.245,0,0,0,1.584-.72l-2.988-2.3ZM433.712-21.06h-8.46l.288,1.08h11.592c.5,0,.828-.18.936-.576-1.116-1.008-2.844-2.268-2.844-2.268ZM430.04-30.6c-2.016,4.716-9.468,11.484-15.48,14.616l.288.54c6.588-2.844,13.788-8.352,17.28-13.068C434.864-23.8,440.444-19.4,446.2-16.7a2.765,2.765,0,0,1,2.16-1.872l.072-.54c-6.228-2.268-12.312-5.8-15.624-9.828.864-.072,1.3-.252,1.44-.648Zm45.648,13.356v4.536h-14v-4.536Zm-14,10.188v-4.572h14v4.572Zm17.1-17.5H465.14a41.841,41.841,0,0,0,1.764-3.96c.972.072,1.3-.144,1.44-.576L464.6-30.312a40.495,40.495,0,0,1-2.16,5.76H451.1l.324,1.044h10.512A37.216,37.216,0,0,1,450.848-9.972l.36.432a32.051,32.051,0,0,0,8.172-6.588v18.9h.4c1.116,0,1.908-.612,1.908-.828v-7.92h14v5c0,.54-.144.792-.828.792-.756,0-4.536-.288-4.536-.288V.108a7.118,7.118,0,0,1,3.132.936,2.547,2.547,0,0,1,.828,1.728c3.42-.324,3.78-1.512,3.78-3.42V-16.7a3.223,3.223,0,0,0,1.728-.792l-3.2-2.376-1.3,1.548H462.116l-.684-.288a36.483,36.483,0,0,0,3.168-4.9h18.252c.5,0,.792-.18.9-.576-1.224-1.152-3.2-2.664-3.2-2.664Zm13.644,13.68c0,6.48-1.368,11.16-6.084,18l.756.612c5.436-5.436,7.992-11.412,7.992-18.612S492.536-24.084,487.1-29.52l-.756.648C491.024-22.068,492.428-17.388,492.428-10.872Z" transform="translate(1086 -11477)" fill="#3c505a"/>
      <path id="Path_190" data-name="Path 190" d="M5.1-12.3H3.616a7.792,7.792,0,0,1,.1,1.3v8.8c0,1.3.688,1.856,1.9,2.08a17.039,17.039,0,0,0,2.576.16A44.735,44.735,0,0,0,13.728-.3V-1.76a26.293,26.293,0,0,1-5.472.512,15.458,15.458,0,0,1-2.128-.128c-.768-.16-1.12-.368-1.12-1.184V-6.08a64.692,64.692,0,0,0,6.72-2.144c.48-.176,1.056-.432,1.52-.624l-.56-1.3a10.758,10.758,0,0,1-1.408.736A44.966,44.966,0,0,1,5.008-7.392v-3.616A10.458,10.458,0,0,1,5.1-12.3Zm16.288,10.9A14.1,14.1,0,0,1,21.28.48h1.552c-.064-.528-.1-1.392-.1-1.888,0-.464,0-2.88-.016-5.28a41.947,41.947,0,0,1,6.288,2.576l.544-1.36a51.139,51.139,0,0,0-6.832-2.64V-10.72c0-.48.064-1.168.112-1.664H21.264a10.1,10.1,0,0,1,.128,1.664Zm18.992-9.936c.112.368.272.848.464,1.44a33.432,33.432,0,0,1-6.32-.192l.032,1.28a41.108,41.108,0,0,0,6.72.032,21.373,21.373,0,0,0,1.936,3.648c-.576-.064-1.76-.16-2.656-.24l-.1,1.072a36.164,36.164,0,0,1,3.856.432l.656-.9c-.24-.272-.48-.544-.7-.848a17.024,17.024,0,0,1-1.792-3.3,23.788,23.788,0,0,0,3.312-.656l-.144-1.248a20.551,20.551,0,0,1-3.568.784,19.117,19.117,0,0,1-.736-2.736l-1.36.176C40.128-12.176,40.272-11.68,40.384-11.344ZM36.992-4.992,35.744-5.28a6.238,6.238,0,0,0-.768,2.656c0,2.176,1.92,3.28,4.96,3.3A23.237,23.237,0,0,0,44.064.32l.064-1.28A17.835,17.835,0,0,1,40-.56c-2.368-.016-3.76-.688-3.76-2.208A4.116,4.116,0,0,1,36.992-4.992Zm14.576-6.176L50.016-11.2a7.217,7.217,0,0,1,.112,1.424c0,.928.032,2.88.176,4.272C50.736-1.36,52.192.144,53.712.144c1.072,0,2.048-.928,3.008-3.648L55.712-4.64c-.416,1.6-1.168,3.264-1.984,3.264-1.136,0-1.92-1.776-2.176-4.448-.112-1.328-.128-2.784-.112-3.792A12.182,12.182,0,0,1,51.568-11.168Zm8.336.448-1.248.432c1.536,1.872,2.5,5.152,2.784,8.048l1.28-.528A17.2,17.2,0,0,0,59.9-10.72Zm5.408,6.688h1.1v-2.16h4.96v1.68H67.1V.032h1.152V-3.536h3.12V1.216h1.152V-3.536h3.44v2.32c0,.176-.064.224-.288.24-.208.016-.96.032-1.808,0A4.329,4.329,0,0,1,74.24.048a7.406,7.406,0,0,0,2.3-.192c.464-.176.576-.464.576-1.072v-3.3H72.528v-1.68h5.04v2.16H78.7V-7.168H65.312Zm10.1-5.1h-2.88V-10.7h2.88Zm-6.8-1.568h2.784v1.568H68.608ZM76.56-11.7v-1.6H75.408v1.6h-2.88v-1.68H71.392v1.68H68.608v-1.6h-1.12v1.6H64.88v.992h2.608V-8.16H76.56V-10.7h2.592V-11.7Zm6.912,2.56H85.76V-.8H83.472ZM89.184-.8H86.848V-9.136h2.336ZM92.64-9.136V-.8H90.3V-9.136ZM93.84-.8v-9.472H87.216c.432-.848.88-1.872,1.264-2.784L87.1-13.392a22.36,22.36,0,0,1-1.152,3.12H82.3V-.8H80.7V.352H95.312V-.8Zm4.64-5.424h3.536v1.248H98.48Zm0-2.128h3.536v1.216H98.48Zm2.32,4.32h2.3V-9.3h-2.3V-10.64h2.784V-11.7H100.8v-1.7H99.648v1.7H96.9v1.056h2.752V-9.3h-2.24v5.264h2.24v1.344H96.72V-1.6h2.928V1.216H100.8V-1.6h2.928V-2.688H100.8Zm7.12-3.008h2.32v-1.1h-5.68a14.852,14.852,0,0,0,2.784-4,17.023,17.023,0,0,0,3.536,4.512,8.518,8.518,0,0,1,.672-1.056,15.115,15.115,0,0,1-3.7-4.624h-1.12A13.257,13.257,0,0,1,103.152-8.4a3.9,3.9,0,0,1,.624.976,8.354,8.354,0,0,0,.688-.624V-7.04h2.272V-4.8H103.7v1.1h3.04v4.88h1.184V-3.7h3.2V-4.8h-3.2Zm5.616,2.72a12.376,12.376,0,0,1-.992,3.792,4.156,4.156,0,0,1,.928.448,14.67,14.67,0,0,0,1.088-4.064Zm3.456.24a15.713,15.713,0,0,1,1.04,3.1l.96-.32A15.964,15.964,0,0,0,117.9-4.384ZM116.7-7.936a13.393,13.393,0,0,1,.72,1.248l-2.48.16a42.625,42.625,0,0,0,3.216-4.56l-.992-.48a34.131,34.131,0,0,1-1.792,2.976,11.3,11.3,0,0,0-.976-1.12,34.406,34.406,0,0,0,1.872-3.264l-1.072-.416a20.187,20.187,0,0,1-1.472,3.024c-.16-.144-.3-.288-.464-.416l-.608.784a12.6,12.6,0,0,1,2.1,2.3c-.32.448-.64.88-.96,1.248-.448.032-.864.064-1.248.08l.176,1.088,2.64-.24V1.2h1.072V-5.616l1.44-.144a10.589,10.589,0,0,1,.448,1.184l.96-.464a13.886,13.886,0,0,0-1.68-3.28ZM123.52-.944V-5.52h2.192V-.944ZM120.384-5.52h2.08V-.944h-2.08Zm2.08-5.488v4.4h-2.08v-4.4Zm3.248,4.4H123.52v-4.4h2.192Zm-6.4-5.5V1.024h1.072V.16h5.328V.9h1.1V-12.112ZM130.72-5.248c.032-.656.032-1.28.032-1.84v-.9H132.8v2.736Zm2.08-6.464v2.64h-2.048v-2.64ZM137.648.032c-1.024,0-1.232-.112-1.232-.672V-4.272h3.472V-8.72h-4.24a13.693,13.693,0,0,0,.848-1.6h5.168c-.112,4.464-.224,6.048-.512,6.432a.477.477,0,0,1-.48.224c-.272,0-.9-.016-1.568-.064a2.967,2.967,0,0,1,.336,1.088,11.871,11.871,0,0,0,1.728-.016,1.2,1.2,0,0,0,.992-.528c.416-.544.512-2.336.624-7.648.016-.176.016-.576.016-.576h-5.84a16.548,16.548,0,0,0,.576-1.712l-1.2-.272a12.948,12.948,0,0,1-2.448,4.976V-12.8H129.7v5.728c0,2.336-.08,5.536-1.136,7.776a3.236,3.236,0,0,1,.944.544,16.026,16.026,0,0,0,1.152-5.408H132.8V-.192c0,.208-.08.272-.288.288-.176.016-.816.016-1.52,0a4.161,4.161,0,0,1,.336,1.1A5.488,5.488,0,0,0,133.36.992c.4-.208.528-.56.528-1.184V-8.24c.288.208.7.544.9.72a10.737,10.737,0,0,0,.688-.928V-7.7h3.312v2.4h-3.5V-.624c0,1.376.528,1.7,2.3,1.7h3.648c1.6,0,1.968-.576,2.128-2.864A3.623,3.623,0,0,1,142.3-2.24c-.1,1.952-.24,2.272-1.152,2.272Zm21.392-11.52h-4.016V-13.36h-1.168v1.872h-3.984v1.072h9.168ZM153.168-7.76a9.035,9.035,0,0,0-.8-2.56l-1.072.256a9.24,9.24,0,0,1,.752,2.576Zm-5.232-.656h1.776V-9.552h-1.776v-3.712h-1.12v3.712H144.9v1.136h1.92V-3.3c-.832.32-1.6.592-2.224.8l.4,1.2c1.456-.592,3.376-1.36,5.152-2.112L149.92-4.5c-.656.256-1.328.528-1.984.768ZM157.1-3.792v3.1h-5.216v-3.1ZM150.784,1.2h1.1V.384H157.1v.768h1.168V-4.88h-7.488Zm5.84-11.584a19.5,19.5,0,0,1-.912,2.624l1.008.288c.352-.672.736-1.68,1.12-2.576Zm2.7,2.912H149.312v1.088h10.016ZM165.1-1.84h2.32A6.218,6.218,0,0,0,168.96-.512c-1.312.112-2.64.224-3.856.32Zm4.912-5.344a8.462,8.462,0,0,0,1.136,1.28h-2.624v-.88h-1.12v.88h-2.5a9.85,9.85,0,0,0,1.184-1.28ZM165.1-5.1H170.9v.864H165.1Zm0,2.464v-.9H170.9v.9Zm6.976.8V-5.152a9.723,9.723,0,0,0,2.544,1.344,3.829,3.829,0,0,1,.752-.928,9.428,9.428,0,0,1-4.112-2.448h3.76v-.928h-6.448v-.912h4.672v-.9h-4.672v-.9h5.536v-.944h-3.04c.32-.384.656-.864.992-1.328l-1.264-.32a16.192,16.192,0,0,1-.96,1.648H166.1l.08-.032a5.926,5.926,0,0,0-1.136-1.632l-1.024.368a7.807,7.807,0,0,1,.9,1.3h-3.056v.944h5.52v.9h-4.64v.9h4.64v.912H160.96v.928H164.7a11.539,11.539,0,0,1-4.144,2.72,4.594,4.594,0,0,1,.832.848,14.024,14.024,0,0,0,2.528-1.472V-.112L162.1.032l.128,1.04c1.856-.16,4.48-.4,6.976-.656V-.368a13.592,13.592,0,0,0,5.248,1.6A3.819,3.819,0,0,1,175.1.24a19.1,19.1,0,0,1-3.536-.624,16.863,16.863,0,0,0,2.4-1.216l-.88-.528a24.727,24.727,0,0,1-2.56,1.376,7.029,7.029,0,0,1-1.872-1.088Zm19.168-9.792h-4.784v-1.76h-1.2v1.76h-4.5v1.12h10.48Zm-10.608.048a10.453,10.453,0,0,0-2.544-1.664l-.688.848a11.08,11.08,0,0,1,2.528,1.744Zm-.7,4.064a10.5,10.5,0,0,0-2.608-1.44l-.64.864a10.939,10.939,0,0,1,2.56,1.536ZM178.112,1.1c.672-1.456,1.44-3.408,2-5.072l-.944-.656A47.728,47.728,0,0,1,177.04.448Zm4.752-11.392a14.964,14.964,0,0,1-3.072,5.376,5,5,0,0,1,.784.752,13.149,13.149,0,0,0,1.264-1.616V1.2H182.9V-7.552a20.973,20.973,0,0,0,1.088-2.416Zm3.376,3.9a7.214,7.214,0,0,1,1.472,1.776l.656-.576a7.118,7.118,0,0,0-1.5-1.68Zm3.232-.992a12.132,12.132,0,0,1-2.064,4.416,12.458,12.458,0,0,1-1.872-3.424c.192-.32.384-.656.544-.992Zm.544-1.008-.176.032h-3.28c.24-.544.464-1.1.64-1.632l-1.1-.288a13.992,13.992,0,0,1-3.072,5.5,8.165,8.165,0,0,1,.752.736,10.564,10.564,0,0,0,1.12-1.36,14.559,14.559,0,0,0,1.824,3.248,10,10,0,0,1-3.5,2.464,4.464,4.464,0,0,1,.688.9,11.2,11.2,0,0,0,3.52-2.512,10.3,10.3,0,0,0,3.344,2.48,4.84,4.84,0,0,1,.768-.928,9.776,9.776,0,0,1-3.408-2.368,13.7,13.7,0,0,0,2.608-6.016Z" transform="translate(1086 -11520)" fill="#3c505a"/>
      <path id="Path_189" data-name="Path 189" d="M2.1-5.96c0-.32.01-.36.54-.36a1.475,1.475,0,0,1,1.61,1.6A1.555,1.555,0,0,1,2.78-3.04c-.06.02-.06.17.01.2a3.376,3.376,0,0,0,1.38-.3,1.7,1.7,0,0,0,1-1.59,1.728,1.728,0,0,0-.8-1.5,3.612,3.612,0,0,0-1.92-.4,15.766,15.766,0,0,0-1.98.08.167.167,0,0,0-.02.25l.36.04c.45.05.47.22.47,1.07V-1.5c0,1.05-.02,1.17-.6,1.25L.47-.22A.194.194,0,0,0,.49.03C.93.01,1.29,0,1.71,0c.4,0,.73.01,1.3.03a.2.2,0,0,0,.02-.25L2.76-.25C2.12-.32,2.1-.45,2.1-1.5ZM9.51.16a3.414,3.414,0,0,0,3.47-3.49A3.291,3.291,0,0,0,9.51-6.76,3.457,3.457,0,0,0,5.95-3.23,3.367,3.367,0,0,0,9.51.16Zm.13-.31c-1.97,0-2.69-1.92-2.69-3.4,0-2.19,1.35-2.9,2.39-2.9,1.91,0,2.64,1.78,2.64,3.43C11.98-1.05,10.84-.15,9.64-.15Zm5.08-1.37c0,1.06-.02,1.2-.61,1.27l-.25.03a.194.194,0,0,0,.02.25c.5-.02.84-.03,1.26-.03.4,0,.74.01,1.24.03.06-.03.08-.21.02-.25l-.25-.03c-.59-.07-.61-.21-.61-1.27V-5.08c0-1.06.02-1.23.61-1.28l.25-.02c.06-.04.04-.22-.02-.25-.5.02-.84.03-1.24.03-.42,0-.76-.01-1.26-.03-.06.03-.08.21-.02.25l.25.02c.59.05.61.22.61,1.28Zm8.76-2.57a8.068,8.068,0,0,1,.15-2.06c.04-.08.24-.16.56-.21l.14-.02a.176.176,0,0,0-.02-.25c-.34.02-.6.03-1.03.03-.38,0-.72-.01-1.18-.03-.08.03-.09.19-.02.25l.17.02c.4.05.56.11.62.2a7.034,7.034,0,0,1,.2,2.07v2.14a1.009,1.009,0,0,1-.04.42h-.02c-.47-.48-.96-1.04-1.65-1.81l-.97-1.09a13.76,13.76,0,0,1-1.71-2.2,3.23,3.23,0,0,1-.46.03c-.18,0-.71,0-1.13-.03a.175.175,0,0,0-.02.25l.17.02a1.085,1.085,0,0,1,.62.24.917.917,0,0,1,.22.72v2.89a9.655,9.655,0,0,1-.13,2.06c-.05.11-.21.17-.44.2l-.27.03a.185.185,0,0,0,.02.25C17.61.01,17.88,0,18.3,0c.37,0,.72.01,1.17.03a.183.183,0,0,0,.02-.25l-.31-.03c-.25-.02-.45-.08-.51-.19a7.828,7.828,0,0,1-.18-2.07V-4.69a2.541,2.541,0,0,1,.05-.65h.02c.21.22.89,1.04,1.16,1.35l2.32,2.64c.87.99,1.16,1.34,1.28,1.51a.18.18,0,0,0,.19-.11c-.03-.26-.03-1.45-.03-1.75Zm4.85-1.86c0-.33-.01-.34.29-.34h.71a1.994,1.994,0,0,1,1.16.25c.15.11.22.48.25.73A.188.188,0,0,0,31-5.33a6.053,6.053,0,0,1,.15-1.52c-.02-.04-.13-.05-.18-.03-.15.26-.24.28-.78.28H26.14c-.46,0-.79.01-.85-.31a.25.25,0,0,0-.19,0,10.531,10.531,0,0,1-.38,1.49.193.193,0,0,0,.26.07,1.826,1.826,0,0,1,.45-.69,2.047,2.047,0,0,1,1.23-.25h.55c.3,0,.3.01.3.32V-1.5c0,1.05-.05,1.2-.62,1.25l-.36.03a.175.175,0,0,0,0,.25c.64-.02.99-.03,1.39-.03s.74.01,1.31.03c.06-.03.08-.21.02-.25l-.32-.03c-.58-.05-.6-.2-.6-1.25Z" transform="translate(1028 -11520)" fill="#3c505a"/>
      <path id="Path_188" data-name="Path 188" d="M10.75-27.52c-6.278,0-8.9,7.568-8.9,14.061C1.849-6.708,4.472.6,10.75.6s8.9-7.31,8.9-14.061C19.651-19.952,17.028-27.52,10.75-27.52Zm0,1.29c4.73,0,5.074,8.729,5.074,12.771S15.48-.688,10.75-.688,5.676-9.417,5.676-13.459,6.02-26.23,10.75-26.23ZM30.96-5.246c0,3.311-.043,4.042-1.849,4.171l-1.763.129c-.258.258-.215.946.086,1.075C29.111.043,31.046,0,32.594,0c1.5,0,3.44.043,5.117.129.3-.129.344-.817.086-1.075l-1.806-.129c-1.763-.129-1.849-.86-1.849-4.171V-21.93c0-2.451.086-4.6.172-5.375a.529.529,0,0,0-.43-.215,19.833,19.833,0,0,1-7.1,2.494.564.564,0,0,0,.043.946l2.064.172c1.935.172,2.064,1.118,2.064,4.042Z" transform="translate(1023 -11485)" fill="#3c505a"/>
    </g>
    <g id="Group_410" data-name="Group 410" transform="translate(-755 18777)">
      <rect id="Rectangle_146-2" data-name="Rectangle 146" width="60" height="68" transform="translate(1015 -11537)" fill="#fffa96"/>
      <path id="Path_187" data-name="Path 187" d="M8.7-28.3c0-6.45,2.75-10,7.15-10,3.8,0,6.1,2.7,6.1,7.1,0,5-3.2,8.05-8.7,9.15l.5,2.55c8-.35,11,3.75,11,8.85,0,4.95-2.95,8.25-8.3,8.25A12.269,12.269,0,0,1,8.7-5.35ZM5-.4,4.65,9.9l.6.45L9,9.45,8.4-3.8a10.686,10.686,0,0,0,9,4.5c5.75,0,11.15-3.95,11.15-11.15,0-6.4-4.1-9.9-11.35-10.4A10.925,10.925,0,0,0,25.75-31.3c0-5.8-4.25-9.05-9.45-9.05C9.6-40.35,5.05-35.25,5.05-27ZM32.95-12.15h12.6v-2.9H32.95Zm52.5-24.3H72.65v1.75l5.85.7.05,26.5L57.85-36.45h-7.8v1.7l4.1.5.45.65L54.55-2.4l-4.7.6V0H62.7V-1.8l-5.8-.65-.05-28L79.1.4h1.65l.05-34.45,4.65-.65Zm48.5,1.75v-1.75h-9.9l-12.3,31L99-36.45H89.7v1.75l5.05.6L94.7-2.4l-4.85.6V0H101.9V-1.8l-4.85-.6V-20.15c0-.05-.15-6.65-.25-11.4L109.9,0h2.05l12.6-31.75L124.5-16.7c-.05,4.75,0,9.6-.1,14.4l-4.9.5V0h14.45V-1.8l-5.2-.5c-.1-4.85-.1-9.7-.1-14.55V-19.6c0-4.95,0-9.8.1-14.55Zm40.35-1.75H161.5v1.75l5.85.7.05,26.5L146.7-36.45h-7.8v1.7l4.1.5.45.65L143.4-2.4l-4.7.6V0h12.85V-1.8l-5.8-.65-.05-28L167.95.4h1.65l.05-34.45,4.65-.65Zm29.006,17.262a5.107,5.107,0,0,1,1.764,1.224c.5.576.432.9-.18,1.224-2.16,1.152-5.832,2.628-8.748,4.212-.36-2.7-1.728-4.248-4-4.248a9.129,9.129,0,0,0-3.96,1.224c-.252.144-.36-.036-.216-.216a42.748,42.748,0,0,0,3.456-5.076,42.17,42.17,0,0,0,8.676-2.664c.684-.324,1.008-.648,1.008-1.116,0-.684-.756-.972-1.548-.972-.54,0-.792.324-2.3,1.008a35.478,35.478,0,0,1-4.68,1.548c.432-.9.9-1.8,1.152-2.376.4-.792.684-1.044.684-1.548,0-.864-2.34-1.476-3.456-1.476a7.7,7.7,0,0,0-2.052.36v.684a7.087,7.087,0,0,1,2.016.5c.72.288.828.54.648,1.188a14.086,14.086,0,0,1-1.188,3.168,17.461,17.461,0,0,1-3.2.36c-2.664,0-3.276-.756-4.716-2.268l-.756.468c1.44,2.844,2.052,3.636,5,3.636a21.908,21.908,0,0,0,2.592-.18,34.727,34.727,0,0,1-5.04,6.588c-1.62,1.728-2.952,2.628-2.952,3.6,0,.9.5,1.44,1.224,1.44.864-.036,1.872-1.728,3.132-3.1,1.512-1.584,3.888-3.6,5.9-3.6,1.872,0,2.556,1.116,2.7,4.176-4.212,2.664-7.488,5.544-7.488,8.388s2.2,4.932,8.892,4.932a39.269,39.269,0,0,0,8.064-.972C204.89.612,205.07.144,205.07-.4c0-.684-.648-1.116-1.908-1.116-1.728,0-3.816,1.116-9.144,1.116-3.42,0-5.724-.864-5.724-2.88,0-2.124,2.52-4.428,6.012-6.408-.036,1.944-.18,3.888-.18,4.752,0,.972.576,1.368,1.188,1.368.72,0,1.116-.54,1.116-1.4,0-1.152,0-3.78-.108-5.832a69.454,69.454,0,0,1,10.26-4.068c1.4-.432,1.764-.54,1.764-1.188a4.2,4.2,0,0,0-1.944-2.808,6.076,6.076,0,0,0-2.664-.972ZM225.842-3.276v-4.5h9.108v4.5Zm11.376-4.212A2.184,2.184,0,0,0,238.55-8.1l-2.7-2.052-1.188,1.3h-8.676L223.574-9.9V-.108h.36a2.725,2.725,0,0,0,1.908-.72v-1.4h9.108V-.684h.36c.756,0,1.872-.54,1.908-.792Zm4.608-5.256H219L216.446-13.9V2.736h.4c.936,0,1.908-.54,1.908-.792V-11.664h23.436V-.72c0,.54-.18.756-.828.756-.756,0-4.212-.252-4.212-.252v.54a6.666,6.666,0,0,1,2.952.864,2.305,2.305,0,0,1,.756,1.62c3.24-.324,3.672-1.476,3.672-3.276V-11.232a2.823,2.823,0,0,0,1.548-.684l-3.06-2.268Zm-17.784-4.248V-21.2h12.78v4.212Zm13.14,2.628a3.337,3.337,0,0,0,1.98-.72v-5.688a3.1,3.1,0,0,0,1.548-.72l-2.916-2.2-1.332,1.4h-12.24l-2.484-1.08v9.216h.36c.936,0,1.944-.54,1.944-.756v-1.044h12.78v1.584ZM241.394-26.1H231.53v-2.664c.864-.108,1.224-.468,1.3-.972l-3.672-.4V-26.1H214.5l.288,1.044h30.924c.5,0,.864-.18.972-.54-1.332-1.224-3.42-2.772-3.42-2.772Zm10.548-3.348a12.7,12.7,0,0,1,3.888,4.464c2.52,1.476,4.032-3.528-3.564-4.788Zm-2.2,7.956a8.824,8.824,0,0,1,3.384,4.1c2.52,1.476,4.1-3.528-3.024-4.428Zm9.072-1.656c-5.58,13.932-5.58,13.932-6.156,15.192-.324.72-.432.72-.864.72H250.25v.792a3.078,3.078,0,0,1,1.728.54c.792.5.972,3.312.5,6.948.072,1.152.432,1.8,1.044,1.8,1.188,0,1.872-.936,1.944-2.448.072-2.916-.864-4.644-.9-6.192a12.867,12.867,0,0,1,.5-3.06c.468-1.692,3.06-9.792,4.428-14.112Zm15.7,4.5V-21.6h3.96v2.952ZM262.886-21.6h3.744v2.952h-3.744Zm3.744-3.96v2.916h-3.744V-25.56Zm5.8,3.96v2.952h-3.708V-21.6Zm0-3.96v2.916h-3.708V-25.56Zm6.048,0v2.916h-3.96V-25.56Zm.72,18.576a33.291,33.291,0,0,1-3.924,3.42,13.974,13.974,0,0,1-2.952-3.708h9.756c.5,0,.792-.18.9-.54a37.008,37.008,0,0,0-2.952-2.3l-1.584,1.8H262.166c.072-.828.072-1.62.072-2.376v-3.24h19.476c.5,0,.864-.18.936-.576-.936-.828-2.3-1.836-2.808-2.2a1.69,1.69,0,0,0,.828-.5v-7.92a3.257,3.257,0,0,0,1.548-.72l-2.808-2.16-1.3,1.4h-3.6v-2.268c.792-.108,1.152-.432,1.224-.9l-3.312-.4V-26.6h-3.708v-2.268c.792-.108,1.152-.432,1.224-.9l-3.312-.4V-26.6H263.1l-2.376-1.116v11.808h.324a2.444,2.444,0,0,0,1.836-.684v-.972h15.588v1.08h.36a2.779,2.779,0,0,0,.54-.072l-1.368,1.548H262.67l-2.628-1.152v5.472c0,4.284-.432,9.036-3.888,13l.468.468a13.736,13.736,0,0,0,5.436-10.044h3.672V-.828c-1.8.288-3.276.5-4.212.612l1.548,2.988a1.149,1.149,0,0,0,.792-.828c4.536-1.476,7.848-2.736,10.188-3.6L273.9-2.2c-2.052.36-4.1.684-5.976,1.008V-7.272h3.564A15.691,15.691,0,0,0,281.534,2.772,2.359,2.359,0,0,1,283.3.864l.036-.4a17.229,17.229,0,0,1-7.38-3.42,25.106,25.106,0,0,0,4.5-1.692c.648.216,1.008.18,1.3-.108Zm-15.912-4.788.288,1.08h16.056a.843.843,0,0,0,.9-.576,29.648,29.648,0,0,0-2.916-2.268l-1.548,1.764Zm28.476-12.852H317.75c.5,0,.864-.18.936-.576-1.224-1.116-3.2-2.7-3.2-2.7l-1.764,2.232h-9.252V-28.8c.9-.144,1.26-.5,1.332-1.008l-3.636-.36v4.5H292.154l-2.736-1.26v10.3c0,6.372-.288,13.32-3.42,18.936l.54.36c4.932-5.508,5.22-13.392,5.22-19.332ZM300.794-14v-4.68h6.948V-14Zm7.38,2.664c.9,0,1.872-.54,1.872-.792v-6.552h7.6c.5,0,.864-.18.972-.576-1.188-1.044-2.988-2.556-2.988-2.556l-1.692,2.124h-3.888V-22.14c.9-.144,1.224-.432,1.3-.9l-3.6-.4v3.744h-6.948V-22.14c.864-.144,1.188-.432,1.26-.9l-3.528-.4v3.744h-6.66l.252,1.008h6.408v7.524h.4c.864,0,1.872-.5,1.872-.792V-12.96h6.948v1.62Zm1.548,2.664a19.28,19.28,0,0,1-5.328,5.184,15.31,15.31,0,0,1-5.724-5.184Zm1.944-2.376L309.938-9.72H293.27l.324,1.044h4.212a17.673,17.673,0,0,0,4.968,6.192,43.841,43.841,0,0,1-13.1,4.608l.216.612A42.7,42.7,0,0,0,304.322-1.4C307.706.72,311.99,1.98,317.174,2.772A2.446,2.446,0,0,1,319.19.684V.252a41.037,41.037,0,0,1-12.852-2.808,22.314,22.314,0,0,0,6.228-5.8c.9,0,1.3-.108,1.584-.432Zm19.728-10.584h-2.2v-5.04h2.2Zm4.5,1.044v6.84h-.216a1.27,1.27,0,0,1-.5.108H333.59c-.324,0-.4-.108-.4-.468v-6.48ZM325.058-1.656v-4.9h10.836v4.9Zm2.412-18.936v1.512c0,2.556-.144,5.724-2.412,8.5V-20.592Zm6.624,8.676a11.366,11.366,0,0,0,1.8-.108V-7.6H325.058V-10.44l.36.432c3.492-2.592,3.78-6.444,3.78-9.036v-1.548h2.2v7.056c0,1.116.216,1.62,1.656,1.62Zm1.08-15.8H321.962l.252,1.044h5.076v5.04H325.2l-2.3-1.116V2.628h.4c.972,0,1.764-.576,1.764-.828V-.576h10.836V2.016h.324a2.727,2.727,0,0,0,1.836-.792V-20.16a2.814,2.814,0,0,0,1.548-.72l-2.772-2.16-1.3,1.4h-2.16v-5.04h5.544c.5,0,.828-.18.936-.576-1.152-1.08-3.024-2.52-3.024-2.52Zm19.152,21.1h-.468a51.772,51.772,0,0,1-1.152,5.508.678.678,0,0,1-.72.5c-.468.072-1.764.072-3.492.072h-3.6c-1.44,0-1.656-.216-1.656-.9V-16.776h7.236v3.168h.36a2.944,2.944,0,0,0,1.872-.756V-26.136a3.23,3.23,0,0,0,1.8-.792l-3.1-2.376-1.368,1.512H340.61l.324,1.08h9.54v8.856h-6.8l-2.664-1.152V-.9c0,1.944.648,2.484,3.528,2.484h3.96c5.724,0,6.912-.4,6.912-1.476,0-.432-.216-.72-.972-1.008ZM366.6-.972V-9.5h15.732V-.972Zm15.372-9.576H366.782l-2.628-1.188V2.736h.4c1.008,0,2.052-.54,2.052-.792V.108h15.732v2.34h.36c.792,0,2.052-.5,2.088-.756V-9.036a2.959,2.959,0,0,0,1.512-.72l-2.988-2.3Zm-3.528-6.7H365.954l.288,1.044h16.02c.5,0,.864-.18.972-.54-1.224-1.116-3.132-2.592-3.132-2.592ZM373.01-30.42C371.1-25.236,363.83-18,357.674-14.58l.288.54c6.8-3.1,13.824-9.036,17.172-14.256,2.556,5.256,8.028,9.972,13.968,12.924a2.709,2.709,0,0,1,2.124-1.872l.072-.54c-6.336-2.52-12.312-6.408-15.48-10.944.864-.072,1.332-.216,1.44-.648Z" transform="translate(1086 -11477)" fill="#3c505a"/>
      <path id="Path_186" data-name="Path 186" transform="translate(1086 -11520)" fill="#3c505a"/>
      <path id="Path_185" data-name="Path 185" d="M2.1-5.96c0-.32.01-.36.54-.36a1.475,1.475,0,0,1,1.61,1.6A1.555,1.555,0,0,1,2.78-3.04c-.06.02-.06.17.01.2a3.376,3.376,0,0,0,1.38-.3,1.7,1.7,0,0,0,1-1.59,1.728,1.728,0,0,0-.8-1.5,3.612,3.612,0,0,0-1.92-.4,15.766,15.766,0,0,0-1.98.08.167.167,0,0,0-.02.25l.36.04c.45.05.47.22.47,1.07V-1.5c0,1.05-.02,1.17-.6,1.25L.47-.22A.194.194,0,0,0,.49.03C.93.01,1.29,0,1.71,0c.4,0,.73.01,1.3.03a.2.2,0,0,0,.02-.25L2.76-.25C2.12-.32,2.1-.45,2.1-1.5ZM9.51.16a3.414,3.414,0,0,0,3.47-3.49A3.291,3.291,0,0,0,9.51-6.76,3.457,3.457,0,0,0,5.95-3.23,3.367,3.367,0,0,0,9.51.16Zm.13-.31c-1.97,0-2.69-1.92-2.69-3.4,0-2.19,1.35-2.9,2.39-2.9,1.91,0,2.64,1.78,2.64,3.43C11.98-1.05,10.84-.15,9.64-.15Zm5.08-1.37c0,1.06-.02,1.2-.61,1.27l-.25.03a.194.194,0,0,0,.02.25c.5-.02.84-.03,1.26-.03.4,0,.74.01,1.24.03.06-.03.08-.21.02-.25l-.25-.03c-.59-.07-.61-.21-.61-1.27V-5.08c0-1.06.02-1.23.61-1.28l.25-.02c.06-.04.04-.22-.02-.25-.5.02-.84.03-1.24.03-.42,0-.76-.01-1.26-.03-.06.03-.08.21-.02.25l.25.02c.59.05.61.22.61,1.28Zm8.76-2.57a8.068,8.068,0,0,1,.15-2.06c.04-.08.24-.16.56-.21l.14-.02a.176.176,0,0,0-.02-.25c-.34.02-.6.03-1.03.03-.38,0-.72-.01-1.18-.03-.08.03-.09.19-.02.25l.17.02c.4.05.56.11.62.2a7.034,7.034,0,0,1,.2,2.07v2.14a1.009,1.009,0,0,1-.04.42h-.02c-.47-.48-.96-1.04-1.65-1.81l-.97-1.09a13.76,13.76,0,0,1-1.71-2.2,3.23,3.23,0,0,1-.46.03c-.18,0-.71,0-1.13-.03a.175.175,0,0,0-.02.25l.17.02a1.085,1.085,0,0,1,.62.24.917.917,0,0,1,.22.72v2.89a9.655,9.655,0,0,1-.13,2.06c-.05.11-.21.17-.44.2l-.27.03a.185.185,0,0,0,.02.25C17.61.01,17.88,0,18.3,0c.37,0,.72.01,1.17.03a.183.183,0,0,0,.02-.25l-.31-.03c-.25-.02-.45-.08-.51-.19a7.828,7.828,0,0,1-.18-2.07V-4.69a2.541,2.541,0,0,1,.05-.65h.02c.21.22.89,1.04,1.16,1.35l2.32,2.64c.87.99,1.16,1.34,1.28,1.51a.18.18,0,0,0,.19-.11c-.03-.26-.03-1.45-.03-1.75Zm4.85-1.86c0-.33-.01-.34.29-.34h.71a1.994,1.994,0,0,1,1.16.25c.15.11.22.48.25.73A.188.188,0,0,0,31-5.33a6.053,6.053,0,0,1,.15-1.52c-.02-.04-.13-.05-.18-.03-.15.26-.24.28-.78.28H26.14c-.46,0-.79.01-.85-.31a.25.25,0,0,0-.19,0,10.531,10.531,0,0,1-.38,1.49.193.193,0,0,0,.26.07,1.826,1.826,0,0,1,.45-.69,2.047,2.047,0,0,1,1.23-.25h.55c.3,0,.3.01.3.32V-1.5c0,1.05-.05,1.2-.62,1.25l-.36.03a.175.175,0,0,0,0,.25c.64-.02.99-.03,1.39-.03s.74.01,1.31.03c.06-.03.08-.21.02-.25l-.32-.03c-.58-.05-.6-.2-.6-1.25Z" transform="translate(1028 -11520)" fill="#3c505a"/>
      <path id="Path_184" data-name="Path 184" d="M10.75-27.52c-6.278,0-8.9,7.568-8.9,14.061C1.849-6.708,4.472.6,10.75.6s8.9-7.31,8.9-14.061C19.651-19.952,17.028-27.52,10.75-27.52Zm0,1.29c4.73,0,5.074,8.729,5.074,12.771S15.48-.688,10.75-.688,5.676-9.417,5.676-13.459,6.02-26.23,10.75-26.23ZM29.756-2.666c-1.118,0-1.333-.086-1.333-.387,0-.258.387-.946,3.913-4.988l2.623-3.01c3.354-3.87,4.6-6.794,4.6-9.46a6.681,6.681,0,0,0-7.1-7.009,9.05,9.05,0,0,0-8.643,6.063.693.693,0,0,0,1.032.559c1.161-2.537,3.01-4.3,5.59-4.3,3.483,0,5.375,2.365,5.375,6.278,0,4.6-3.311,8.772-6.149,11.825-3.182,3.44-4.6,4.9-6.579,6.192-.258.172-.473.344-.473.473a.619.619,0,0,0,.3.559C23.865.043,25.284,0,27.692,0h6.235c1.978,0,3.784.043,5.547.129a19.184,19.184,0,0,0,1.978-5.246.863.863,0,0,0-.946-.258A5.771,5.771,0,0,1,39.13-3.612c-.774.688-2.064.946-4.042.946Z" transform="translate(1023 -11485)" fill="#3c505a"/>
    </g>
    <g id="Group_411" data-name="Group 411" transform="translate(-755 18901)">
      <rect id="Rectangle_146-3" data-name="Rectangle 146" width="60" height="68" transform="translate(1015 -11537)" fill="#fffa96"/>
      <path id="Path_183" data-name="Path 183" d="M19.3-26.388c1.548.216,2.484.4,2.592,1.152.144,1.4.144,3.636.108,6.876-2.376.252-5.328.54-7.632.756,0-1.584.036-3.024.108-3.672.072-1.152.5-1.188.5-1.944,0-.972-2.16-1.98-3.312-1.98a6.677,6.677,0,0,0-2.016.4v.72c1.512.216,2.34.432,2.52,1.152a38.332,38.332,0,0,1,.252,5.508c-2.16.252-5.616.648-6.984.648-.9,0-1.548-1.116-2.2-2.16l-.648.216a5.67,5.67,0,0,0,.216,1.98c.36.792,1.836,2.484,2.736,2.484a13.606,13.606,0,0,0,2.52-.72,32.078,32.078,0,0,1,4.356-.756c-.072,3.816-.576,4.86-.576,6.084,0,1.008.54,2.556,1.476,2.556.756,0,1.044-.54,1.044-1.98,0-1.044-.036-4,0-6.876,2.268-.252,5.04-.5,7.632-.684-.036,4.176-.432,8.28-2.2,11.052A18.526,18.526,0,0,1,11.88.792l.5.828c4.392-1.584,7.6-4,9.18-6.264,2.34-3.168,2.484-7.668,2.628-12.132,1.116-.036,2.16-.072,3.06-.072,2.7,0,4.032.324,4.9.324.648,0,.9-.216.9-.828,0-1.116-1.98-1.8-3.42-1.8-.792,0-1.152.252-5.4.612.036-1.548.108-3.42.144-4.752.072-1.476.72-1.3.72-2.052,0-.792-1.98-2.268-3.636-2.268a7.309,7.309,0,0,0-2.16.468Zm45.828-1.656a2.689,2.689,0,0,1,2.664,2.7,2.666,2.666,0,0,1-2.664,2.7,2.674,2.674,0,0,1-2.7-2.7A2.7,2.7,0,0,1,65.124-28.044Zm0,6.588a3.864,3.864,0,0,0,3.852-3.888,3.887,3.887,0,0,0-3.852-3.888,3.9,3.9,0,0,0-3.888,3.888A3.872,3.872,0,0,0,65.124-21.456ZM46.44-11.916a11.232,11.232,0,0,1-4.212,5.868c-1.116.864-1.836,1.08-1.836,1.98a1.189,1.189,0,0,0,1.26,1.26c2.556,0,5.328-4.968,5.724-8.892Zm3.744-13.068c1.872.252,2.7.468,2.844,1.584.108.828.144,2.988.18,5.184-2.7.324-8.568,1.08-10.224,1.116-.792.036-1.548-.9-2.232-1.836l-.648.288a7.034,7.034,0,0,0,.432,1.98,4.19,4.19,0,0,0,2.736,2.2c.792,0,1.152-.648,2.592-.936,1.872-.432,5.04-.828,7.38-1.152v3.024c0,3.06,0,8.928-.108,10.584-.036.5-.36.54-.756.468-.936-.216-2.3-.684-3.492-1.08l-.36.756A13.18,13.18,0,0,1,51.552-.576c.792.972.756,1.692,1.764,1.692,1.224,0,2.052-1.584,2.052-3.132,0-.972-.18-8.784-.18-11.484,0-.9,0-2.088.036-3.276,2.412-.252,5.4-.576,6.84-.576,1.584,0,2.592.108,3.672.108.9,0,1.26-.252,1.26-1.044,0-.828-1.8-1.656-3.132-1.656a73.59,73.59,0,0,1-8.6,1.512c.036-1.584.072-3.024.144-3.888.072-1.008.792-1.08.792-1.728,0-.828-1.872-2.016-3.348-2.088a14.664,14.664,0,0,0-2.7.36Zm9.5,13.284a17.177,17.177,0,0,1,5.076,5.76c.684,1.152,1.116,2.34,2.124,2.34.864,0,1.3-.756,1.116-1.764-.576-2.952-4.176-5.544-7.812-6.984Zm15.948-3.312A6.388,6.388,0,0,0,75.96-13c.5,1.224,2.2,2.988,3.2,2.988,1.044,0,1.44-.54,3.492-.756,2.7-.324,12.816-.864,15.084-.864,2.2,0,3.456.072,4.716.072,1.224,0,1.584-.4,1.584-1.044,0-.972-1.62-1.584-2.988-1.584-.936,0-1.944.216-4.356.4-1.656.072-14.256.9-17.46.9-1.512,0-2.088-1.116-2.88-2.34ZM119.772-26.1c1.908.216,2.7.432,2.808,1.584.216,1.8.216,5.724.216,8.6,0,2.736,0,8.64-.288,11.3-.144,1.368-.468,2.016-.468,2.808,0,1.224.612,3.2,1.8,3.2.792,0,1.152-.432,1.152-1.368,0-.612-.072-1.692-.108-3.276-.036-3.816,0-9.72.036-12.2a28.228,28.228,0,0,1,6.012,3.1c2.16,1.656,2.556,2.88,3.744,2.88a1.152,1.152,0,0,0,1.152-1.224c0-1.116-.936-2.016-2.016-2.7A30.938,30.938,0,0,0,124.92-16.7c.036-1.98.108-4.608.288-6.336.144-1.188.792-1.332.792-2.052,0-.828-2.448-2.2-3.96-2.2a10.982,10.982,0,0,0-2.3.432Zm47.988-2.844A11.721,11.721,0,0,1,172.4-25.02c2.448,1.08,3.24-3.672-4.32-4.284Zm10.368,23.4-.468-.072a32.579,32.579,0,0,1-1.584,4.032c-.324.72-.576.72-1.224.252A15.413,15.413,0,0,1,169.56-6.7a33.822,33.822,0,0,0,5.184-10.044c.972.036,1.3-.18,1.44-.612L172.4-18.5A34.456,34.456,0,0,1,168.48-8.82a39.142,39.142,0,0,1-2.916-13.068H177.48c.5,0,.864-.18.936-.54-1.188-1.116-3.132-2.664-3.132-2.664l-1.728,2.16h-8.064c-.108-1.908-.144-3.816-.144-5.76.9-.108,1.188-.54,1.26-1.008l-3.672-.4c0,2.448.072,4.86.252,7.164h-11.3l-2.772-1.224v9c0,6.012-.4,12.492-3.96,17.676l.5.432c5.292-5.04,5.832-12.312,5.832-17.856H158c-.18,6.12-.576,9.288-1.3,9.972-.252.252-.5.288-1.08.288-.612,0-2.376-.108-3.42-.216v.612a5.922,5.922,0,0,1,2.376.756,2.236,2.236,0,0,1,.5,1.656,4.538,4.538,0,0,0,3.132-1.08c1.26-1.188,1.836-4.536,2.052-11.736a2.022,2.022,0,0,0,1.368-.54l-2.664-2.124-1.3,1.368h-6.192v-5.94H163.26c.5,5.832,1.656,11.052,3.78,15.264a28.441,28.441,0,0,1-10.152,8.748l.36.468a28.888,28.888,0,0,0,10.8-7.452A18.225,18.225,0,0,0,173.7.972c1.728,1.188,3.924,2.088,4.68,1.008.324-.4.216-.864-.864-2.2Zm14.544-24.588a34.166,34.166,0,0,1-11.232,15.66l.324.468a32.084,32.084,0,0,0,13.176-14.22c.9.108,1.224-.108,1.368-.5ZM205.416-16.02H186.444l.324,1.08h7.56C194-9.612,192.564-3.168,182.844,2.2l.468.576c11.088-5,13-11.736,13.608-17.712H205.7c-.4,7.2-1.26,13.032-2.52,14.076a1.832,1.832,0,0,1-1.476.468c-.9,0-4.1-.288-5.94-.468l-.036.612a14.466,14.466,0,0,1,4.1,1.08,1.908,1.908,0,0,1,.792,1.728,5.842,5.842,0,0,0,4.248-1.4c1.728-1.656,2.772-7.884,3.24-15.8a2.356,2.356,0,0,0,1.44-.54l-2.772-2.3Zm-4.1-13.86a29.641,29.641,0,0,0,11.412,15.048,2.66,2.66,0,0,1,2.232-1.872l.108-.4c-5.184-2.52-10.872-7.56-13.14-13.14ZM232.1-2.55c-.05-3-.1-5.95-.1-8.9V-28.6l.2-7.8-.75-.55-10.8,2.8v1.8l7.5-.85v21.75c0,2.95-.05,5.9-.1,8.9l-7.9.95V0H239.9V-1.6Zm13.5-33.9v3.7h19.05L250.35-.5l.5.5h3.55l13.05-34.15v-2.3Zm33.588,17.982H283.8c.5,0,.828-.18.936-.576-1.08-1.008-2.772-2.448-2.772-2.448l-1.512,2.016h-1.26v-6.66c1.3-.432,2.484-.864,3.42-1.26.864.288,1.44.252,1.764-.108l-2.988-2.3a43.411,43.411,0,0,1-10.116,4.968l.216.576a51.677,51.677,0,0,0,5.472-1.224v6.012h-5.4l.252,1.008h4.644a38.836,38.836,0,0,1-5.868,14.4l.5.468a30.34,30.34,0,0,0,5.868-8.748V2.772h.36c1.08,0,1.872-.54,1.872-.756V-14.076A16.46,16.46,0,0,1,282.1-9.288c2.088,1.62,3.888-2.628-2.916-5.508ZM287.18-9.72v-3.816h5.148V-9.72Zm5.148-8.46v3.636H287.18V-18.18Zm7.776,0v3.636H294.56V-18.18ZM294.56-9.72v-3.816H300.1V-9.72ZM300.176.324H294.56V-3.888h7.92c.468,0,.828-.18.9-.576-1.116-1.044-2.916-2.484-2.916-2.484l-1.62,2.016H294.56V-8.64H300.1v1.224h.36a2.866,2.866,0,0,0,1.872-.72V-17.82a2.82,2.82,0,0,0,1.4-.684L301-20.556l-1.224,1.332h-5.22v-3.1h9.108c.54,0,.864-.144.936-.54a32.936,32.936,0,0,0-3.024-2.52l-1.62,2.016h-5.4V-26.6c2.412-.288,4.644-.648,6.444-1.008a1.946,1.946,0,0,0,1.836.072L300.1-30.132a83.779,83.779,0,0,1-16.38,3.672l.144.648c2.772-.036,5.688-.252,8.46-.54v2.988h-9.18l.288,1.044h8.892v3.1H287.36l-2.376-1.08V-7.02h.36c.936,0,1.836-.5,1.836-.72v-.9h5.148v3.708h-8.136l.288,1.044h7.848V.324h-10.4l.288,1.044h21.78c.432,0,.792-.144.9-.54-1.152-1.08-3.06-2.592-3.06-2.592Zm35.856-21.78v4.176H326.96v-4.176ZM326.96-6.588v-4.32h9.072v4.32Zm0-9.684h9.072v4.284H326.96Zm2.88-10.188c-.072,1.368-.18,2.916-.324,3.96H327.14l-2.412-1.152V-3.6h.36c.972,0,1.872-.54,1.872-.828V-5.544h9.072V-4h.324a2.863,2.863,0,0,0,1.908-.792v-16.38a2.3,2.3,0,0,0,1.332-.612l-2.628-2.052-1.26,1.332h-5.184a33.625,33.625,0,0,0,2.016-3.96h6.948c.5,0,.828-.18.9-.576-1.152-1.116-3.132-2.628-3.132-2.628l-1.692,2.124H323.576l.288,1.08ZM319.9-28.8c-.576,1.872-1.3,3.816-1.836,5.112l.576.324a34.194,34.194,0,0,0,3.168-3.528,1.184,1.184,0,0,0,1.3-.648Zm-11.3.36a8.6,8.6,0,0,1,1.98,4.572c1.872,1.692,4.032-2.3-1.548-4.824Zm-1.044,15.516a21.508,21.508,0,0,0,6.876-5.724v5.472h.432c.792,0,1.692-.5,1.692-.792v-5.544a14.954,14.954,0,0,1,4.464,4.86c2.448,1.332,3.744-3.528-4.464-5.436v-1.188H323c.5,0,.828-.18.9-.576-1.008-.972-2.592-2.232-2.592-2.232l-1.44,1.728h-3.312v-6.228c.828-.108,1.152-.432,1.188-.864l-3.312-.4v7.488h-6.984l.252,1.08h5.58a20.331,20.331,0,0,1-6.156,7.776Zm15.3,5.184c.5,0,.828-.18.936-.576-1.116-1.08-2.88-2.484-2.88-2.484L319.4-8.82h-3.024c.072-.828.108-1.656.144-2.484.756-.108,1.044-.468,1.116-.9l-3.456-.36c0,1.26-.036,2.52-.108,3.744h-6.624l.252,1.08h6.264C313.5-4,312.056-.684,307.16,1.944l.432.576C312.7.432,314.828-2.3,315.728-5.292a15.222,15.222,0,0,1,4.644,4.9c2.628,1.4,3.78-3.888-4.428-5.616a14.568,14.568,0,0,0,.324-1.728ZM320.588,2.844c3.492-.972,7.452-2.916,9.432-4.932.612.18,1.044.144,1.224-.216L328.256-4a21.349,21.349,0,0,1-7.992,6.264Zm11.736-6.336c2.16,1.4,5,4,6.048,5.976,2.7,1.4,3.708-4.1-5.688-6.336Z" transform="translate(1086 -11477)" fill="#3c505a"/>
      <path id="Path_182" data-name="Path 182" transform="translate(1086 -11520)" fill="#3c505a"/>
      <path id="Path_181" data-name="Path 181" d="M2.1-5.96c0-.32.01-.36.54-.36a1.475,1.475,0,0,1,1.61,1.6A1.555,1.555,0,0,1,2.78-3.04c-.06.02-.06.17.01.2a3.376,3.376,0,0,0,1.38-.3,1.7,1.7,0,0,0,1-1.59,1.728,1.728,0,0,0-.8-1.5,3.612,3.612,0,0,0-1.92-.4,15.766,15.766,0,0,0-1.98.08.167.167,0,0,0-.02.25l.36.04c.45.05.47.22.47,1.07V-1.5c0,1.05-.02,1.17-.6,1.25L.47-.22A.194.194,0,0,0,.49.03C.93.01,1.29,0,1.71,0c.4,0,.73.01,1.3.03a.2.2,0,0,0,.02-.25L2.76-.25C2.12-.32,2.1-.45,2.1-1.5ZM9.51.16a3.414,3.414,0,0,0,3.47-3.49A3.291,3.291,0,0,0,9.51-6.76,3.457,3.457,0,0,0,5.95-3.23,3.367,3.367,0,0,0,9.51.16Zm.13-.31c-1.97,0-2.69-1.92-2.69-3.4,0-2.19,1.35-2.9,2.39-2.9,1.91,0,2.64,1.78,2.64,3.43C11.98-1.05,10.84-.15,9.64-.15Zm5.08-1.37c0,1.06-.02,1.2-.61,1.27l-.25.03a.194.194,0,0,0,.02.25c.5-.02.84-.03,1.26-.03.4,0,.74.01,1.24.03.06-.03.08-.21.02-.25l-.25-.03c-.59-.07-.61-.21-.61-1.27V-5.08c0-1.06.02-1.23.61-1.28l.25-.02c.06-.04.04-.22-.02-.25-.5.02-.84.03-1.24.03-.42,0-.76-.01-1.26-.03-.06.03-.08.21-.02.25l.25.02c.59.05.61.22.61,1.28Zm8.76-2.57a8.068,8.068,0,0,1,.15-2.06c.04-.08.24-.16.56-.21l.14-.02a.176.176,0,0,0-.02-.25c-.34.02-.6.03-1.03.03-.38,0-.72-.01-1.18-.03-.08.03-.09.19-.02.25l.17.02c.4.05.56.11.62.2a7.034,7.034,0,0,1,.2,2.07v2.14a1.009,1.009,0,0,1-.04.42h-.02c-.47-.48-.96-1.04-1.65-1.81l-.97-1.09a13.76,13.76,0,0,1-1.71-2.2,3.23,3.23,0,0,1-.46.03c-.18,0-.71,0-1.13-.03a.175.175,0,0,0-.02.25l.17.02a1.085,1.085,0,0,1,.62.24.917.917,0,0,1,.22.72v2.89a9.655,9.655,0,0,1-.13,2.06c-.05.11-.21.17-.44.2l-.27.03a.185.185,0,0,0,.02.25C17.61.01,17.88,0,18.3,0c.37,0,.72.01,1.17.03a.183.183,0,0,0,.02-.25l-.31-.03c-.25-.02-.45-.08-.51-.19a7.828,7.828,0,0,1-.18-2.07V-4.69a2.541,2.541,0,0,1,.05-.65h.02c.21.22.89,1.04,1.16,1.35l2.32,2.64c.87.99,1.16,1.34,1.28,1.51a.18.18,0,0,0,.19-.11c-.03-.26-.03-1.45-.03-1.75Zm4.85-1.86c0-.33-.01-.34.29-.34h.71a1.994,1.994,0,0,1,1.16.25c.15.11.22.48.25.73A.188.188,0,0,0,31-5.33a6.053,6.053,0,0,1,.15-1.52c-.02-.04-.13-.05-.18-.03-.15.26-.24.28-.78.28H26.14c-.46,0-.79.01-.85-.31a.25.25,0,0,0-.19,0,10.531,10.531,0,0,1-.38,1.49.193.193,0,0,0,.26.07,1.826,1.826,0,0,1,.45-.69,2.047,2.047,0,0,1,1.23-.25h.55c.3,0,.3.01.3.32V-1.5c0,1.05-.05,1.2-.62,1.25l-.36.03a.175.175,0,0,0,0,.25c.64-.02.99-.03,1.39-.03s.74.01,1.31.03c.06-.03.08-.21.02-.25l-.32-.03c-.58-.05-.6-.2-.6-1.25Z" transform="translate(1028 -11520)" fill="#3c505a"/>
      <path id="Path_180" data-name="Path 180" d="M10.75-27.52c-6.278,0-8.9,7.568-8.9,14.061C1.849-6.708,4.472.6,10.75.6s8.9-7.31,8.9-14.061C19.651-19.952,17.028-27.52,10.75-27.52Zm0,1.29c4.73,0,5.074,8.729,5.074,12.771S15.48-.688,10.75-.688,5.676-9.417,5.676-13.459,6.02-26.23,10.75-26.23ZM27.52,2.408a14.533,14.533,0,0,0,8.987-3.7A11.455,11.455,0,0,0,40.678-9.8a6.442,6.442,0,0,0-6.235-6.622c-.516-.043-.731-.215-.516-.645,3.913-2.064,4.6-3.741,4.6-5.5,0-3.053-2.451-4.945-5.977-4.945a8.787,8.787,0,0,0-7.783,5.2.712.712,0,0,0,.9.6C27-23.908,28.939-25.5,31.476-25.5A3.48,3.48,0,0,1,35-21.8a5.325,5.325,0,0,1-2.279,4.128,36.341,36.341,0,0,1-6.88,3.741,1.107,1.107,0,0,0,.946,1.505,6.247,6.247,0,0,1,4.644-2.107c3.741,0,5.547,3.225,5.547,7.009,0,4.773-4.9,8.428-7.7,8.428A2.411,2.411,0,0,1,27-.387c-.473-.688-1.032-1.548-2.064-1.548A1.651,1.651,0,0,0,23.263-.258C23.263,1.763,25.585,2.408,27.52,2.408Z" transform="translate(1023 -11485)" fill="#3c505a"/>
    </g>
    <g id="Group_412" data-name="Group 412" transform="translate(-755 19025)">
      <rect id="Rectangle_146-4" data-name="Rectangle 146" width="60" height="68" transform="translate(1015 -11537)" fill="#fffa96"/>
      <path id="Path_179" data-name="Path 179" d="M15.12-25.776c1.188.108,2.844.216,2.952,1.08a57,57,0,0,1,.144,7.236c-3.384.36-9.5,1.044-11.016,1.044-1.152.036-1.944-1.116-2.664-2.16l-.612.252a4.646,4.646,0,0,0,.432,2.016c.36.792,2.124,2.52,3.06,2.52.864,0,1.4-.576,2.556-.828,1.8-.36,5.4-.864,8.172-1.152C17.6-7.884,14.616-3.06,7.452,1.008l.54.756c8.64-3.492,11.952-9.252,12.492-17.712A100.666,100.666,0,0,1,32-16.2c.612,0,1.116-.288,1.116-.972,0-.972-2.3-1.728-3.384-1.728a85.427,85.427,0,0,1-9.216,1.224c.036-1.692.072-3.708.18-5.328.072-1.476.72-1.4.72-2.232,0-.792-2.16-2.016-3.78-2.016a8.1,8.1,0,0,0-2.592.792Zm42.012,3.1a5.95,5.95,0,0,1-.612,2.232c-2.412,5.616-8.244,14.076-17.676,20.3l.612.864c9.9-5.148,15.732-12.24,19.944-20.772.612-1.26,1.44-1.368,1.44-2.16,0-1.008-1.944-2.664-3.456-3.06a9.261,9.261,0,0,0-2.448-.216l-.18.72C56.448-24.048,57.132-23.544,57.132-22.68ZM71.244-11.412a34.732,34.732,0,0,0,4.968-5.436V2.736h.468a2.807,2.807,0,0,0,1.908-.72V-19.26c.612-.108.972-.288,1.116-.612L78.552-20.3a53.9,53.9,0,0,0,4-7.884c.792.072,1.224-.216,1.4-.648L80.1-30.168a58.448,58.448,0,0,1-9.324,18.36ZM102.708-7.7h-.468a47.4,47.4,0,0,1-1.4,6.408.947.947,0,0,1-.864.612,35.993,35.993,0,0,1-4.248.144H91.368c-1.944,0-2.34-.432-2.34-1.44V-13.5a51.073,51.073,0,0,0,12.24-7.992c.792.252,1.152.144,1.4-.18L99.432-23.9a50,50,0,0,1-10.4,9.432V-28.188c.9-.144,1.26-.5,1.332-.972l-3.708-.432V-1.4c0,2.448,1.08,3.132,4.428,3.132h4.572c6.8,0,8.316-.36,8.316-1.62,0-.5-.252-.792-1.152-1.116Zm28.368-6.876c.108-2.232.252-5.868.324-7.992.072-1.152.684-1.368.684-2.124s-2.376-2.16-3.744-2.16a7.017,7.017,0,0,0-2.448.684l.036.72a7.231,7.231,0,0,1,2.16.468,1.609,1.609,0,0,1,.792,1.476,82.206,82.206,0,0,1-.108,8.82c-.432,7.38-3.816,12.2-10.836,15.912l.468.792C126.54-1.044,130.68-6.228,131.076-14.58Zm-14.94-8.928c.612.252.648.54.72,1.4.144,1.332.216,4.86.216,6.516-.072,2.952-.36,4.356-.36,5.328,0,1.332.612,2.448,1.4,2.448.648,0,1.152-.432,1.152-1.8,0-1.476-.072-9.4.036-10.944.108-1.332.54-1.692.54-2.376,0-.9-2.2-2.2-3.528-2.2a7.879,7.879,0,0,0-2.052.4v.72A7.8,7.8,0,0,1,116.136-23.508ZM170.6-28.044a2.689,2.689,0,0,1,2.664,2.7,2.666,2.666,0,0,1-2.664,2.7,2.674,2.674,0,0,1-2.7-2.7A2.7,2.7,0,0,1,170.6-28.044Zm0,6.588a3.864,3.864,0,0,0,3.852-3.888,3.887,3.887,0,0,0-3.852-3.888,3.9,3.9,0,0,0-3.888,3.888A3.872,3.872,0,0,0,170.6-21.456Zm-18.684,9.54a11.232,11.232,0,0,1-4.212,5.868c-1.116.864-1.836,1.08-1.836,1.98a1.189,1.189,0,0,0,1.26,1.26c2.556,0,5.328-4.968,5.724-8.892Zm3.744-13.068c1.872.252,2.7.468,2.844,1.584.108.828.144,2.988.18,5.184-2.7.324-8.568,1.08-10.224,1.116-.792.036-1.548-.9-2.232-1.836l-.648.288a7.034,7.034,0,0,0,.432,1.98,4.19,4.19,0,0,0,2.736,2.2c.792,0,1.152-.648,2.592-.936,1.872-.432,5.04-.828,7.38-1.152v3.024c0,3.06,0,8.928-.108,10.584-.036.5-.36.54-.756.468-.936-.216-2.3-.684-3.492-1.08l-.36.756a13.18,13.18,0,0,1,3.024,2.232c.792.972.756,1.692,1.764,1.692,1.224,0,2.052-1.584,2.052-3.132,0-.972-.18-8.784-.18-11.484,0-.9,0-2.088.036-3.276,2.412-.252,5.4-.576,6.84-.576,1.584,0,2.592.108,3.672.108.9,0,1.26-.252,1.26-1.044,0-.828-1.8-1.656-3.132-1.656a73.589,73.589,0,0,1-8.6,1.512c.036-1.584.072-3.024.144-3.888.072-1.008.792-1.08.792-1.728,0-.828-1.872-2.016-3.348-2.088a14.664,14.664,0,0,0-2.7.36Zm9.5,13.284a17.177,17.177,0,0,1,5.076,5.76c.684,1.152,1.116,2.34,2.124,2.34.864,0,1.3-.756,1.116-1.764-.576-2.952-4.176-5.544-7.812-6.984Zm41.256-8.6c.5-1.188,1.548-1.368,1.548-2.124,0-.972-2.052-2.88-3.6-3.132a10.365,10.365,0,0,0-2.34-.072l-.288.792c2.592.864,2.736,1.4,2.448,2.52C202.536-15.7,195.516-5.4,185.364.288l.576.792C195.876-3.24,202.536-11.232,206.424-20.3Zm-18.756,1.44c1.584,2.34,2.088,4.14,3.2,4.1.756,0,1.26-.684,1.26-1.584-.072-2.628-4.1-5.9-7.776-7.632l-.54.72A25.145,25.145,0,0,1,187.668-18.864Zm29.448,3.852A6.387,6.387,0,0,0,217.44-13c.5,1.224,2.2,2.988,3.2,2.988,1.044,0,1.44-.54,3.492-.756,2.7-.324,12.816-.864,15.084-.864,2.2,0,3.456.072,4.716.072,1.224,0,1.584-.4,1.584-1.044,0-.972-1.62-1.584-2.988-1.584-.936,0-1.944.216-4.356.4-1.656.072-14.256.9-17.46.9-1.512,0-2.088-1.116-2.88-2.34Zm53.856,1.836a24,24,0,0,1,4.9,6.228c-3.96.72-11.016,1.584-15.516,2.052,2.556-4.284,6.408-11.844,8.064-15.264.4-.756,1.224-1.008,1.224-1.62,0-.9-1.584-2.376-3.06-2.844a7.182,7.182,0,0,0-2.052-.36l-.252.648c1.188.648,1.872,1.3,1.872,2.088,0,1.728-5.148,12.852-7.812,17.532-.864.072-1.512.108-1.836.108a3.261,3.261,0,0,1-1.944-.864l-.468.252a4.484,4.484,0,0,0,.108,1.368c.324,1.044,1.764,2.628,2.736,2.628.612,0,1.332-.9,2.088-1.044,3.24-.72,12.2-2.124,17.5-3.276,1.368,3.168,1.3,4.788,2.448,4.788.864,0,1.4-.684,1.4-1.692,0-3.852-4.644-8.892-8.748-11.376Zm29.448-9.216h-4.752c.072-2.16.072-4.248.108-6.264.9-.144,1.152-.5,1.26-1.008l-3.78-.4c0,2.484,0,5.076-.036,7.668h-5.9l.324,1.08h5.544C292.9-13.1,291.672-4.644,286.452,2.16l.612.576c6.7-6.768,8.172-15.732,8.532-24.048h5.184c-.252,11.34-.828,18.684-2.088,19.908a1.693,1.693,0,0,1-1.44.5c-.756,0-3.2-.252-4.68-.4l-.036.648A9.009,9.009,0,0,1,295.884.36a2.2,2.2,0,0,1,.612,1.8,5.217,5.217,0,0,0,4-1.656c1.62-1.944,2.34-9.108,2.628-21.492a2.584,2.584,0,0,0,1.512-.612l-2.808-2.34Zm8.64,19.764v-20.34h6.66v20.34Zm7.668-23-1.4,1.584H309.24l-2.484-1.224V1.908h.432c1.008,0,1.872-.576,1.872-.828v-2.7h6.66V1.44h.36A3.1,3.1,0,0,0,318.1.576v-23a3.09,3.09,0,0,0,1.692-.792ZM350.784-1.26H340.668v-22.5h12.06a.907.907,0,0,0,.972-.576c-1.3-1.188-3.456-2.844-3.456-2.844l-1.872,2.34h-22.9l.324,1.08h12.384v22.5H323.028l.288,1.08H355.14c.54,0,.828-.18.936-.576-1.3-1.188-3.42-2.844-3.42-2.844Z" transform="translate(1086 -11477)" fill="#3c505a"/>
      <path id="Path_178" data-name="Path 178" d="M8.928-3.328V-5.552H12.72v2.224ZM7.776-5.552v2.224H4.048a13.7,13.7,0,0,0,.208-2.224Zm1.712-5.9a14.14,14.14,0,0,1-1.12,1.7H4.256a16.188,16.188,0,0,0,1.36-1.7ZM4.256-8.688h3.52v2.112H4.256ZM12.72-6.576H8.928V-8.688H12.72ZM13.872-9.76H9.664a14.32,14.32,0,0,0,1.456-2.224l-.8-.528-.192.064H6.272c.144-.256.288-.512.432-.752l-1.3-.224A13.972,13.972,0,0,1,.96-8.416a3.618,3.618,0,0,1,.864.848A16.463,16.463,0,0,0,3.1-8.608v2.816C3.1-3.76,2.848-1.3.592.448a3.727,3.727,0,0,1,.816.848,6.981,6.981,0,0,0,2.4-3.584H12.72V-.3c0,.32-.112.416-.448.416-.352.032-1.6.032-2.9-.016A4.144,4.144,0,0,1,9.84,1.248a12.972,12.972,0,0,0,3.248-.208c.592-.176.784-.56.784-1.328Zm7.12-.4v2h1.056v-2h1.888v-.928h-4.8V-11.9a25.65,25.65,0,0,0,4.384-.7l-.8-.736a27.681,27.681,0,0,1-3.7.656l-.944-.272v1.584a4.245,4.245,0,0,1-1.328,3.328,3.312,3.312,0,0,1,.8.768,4.988,4.988,0,0,0,1.488-2.88Zm-.96,6.88H28.1v1.152H20.032Zm0-1.888H28.1v1.12H20.032Zm0-1.872H28.1v1.1H20.032ZM18.9-1.328H29.28V-7.84H18.9Zm2.7.16A18.322,18.322,0,0,1,16.912.368a9.251,9.251,0,0,1,.88.9,22.8,22.8,0,0,0,4.88-1.92Zm3.728.656a35.074,35.074,0,0,1,4.464,1.76L31.1.656C29.936.128,28.032-.56,26.3-1.12Zm.288-10.576a2.958,2.958,0,0,0,.016-.368v-.432a28.837,28.837,0,0,0,4.688-.688l-.8-.752a26.372,26.372,0,0,1-4.032.64l-.912-.224v1.424A3.05,3.05,0,0,1,23.04-8.736a2.643,2.643,0,0,1,.736.784A3.927,3.927,0,0,0,25.44-10.16h2.224v2.032h1.072V-10.16H31.1v-.928Zm18.7,8.432v.9H38.144v-.9ZM38.144-.08v-.944H44.32V-.08Zm-1.136,1.3h1.136V.736H44.32v.448h1.2v-4.64H37.008Zm7.968-11.568H35.488V-11.68h9.488Zm-5.44,2.016a4.281,4.281,0,0,0-.768-1.056h4.576c-.24.336-.544.752-.8,1.056Zm5.456,1.712H41.68v-.96h3.312Zm0,1.712H41.68V-5.9h3.312Zm-7.6-.992h3.184v.992H37.392Zm0-1.68h3.184v.96H37.392ZM46.16-12.64H34.3v4.624c0,2.56-.144,6.064-1.728,8.544a5.924,5.924,0,0,1,1.04.608c1.632-2.576,1.872-6.448,1.872-9.152V-9.392h2.576l-.384.144a5.546,5.546,0,0,1,.7.912h-2.1V-4.16h9.84V-8.336H43.7a11.808,11.808,0,0,0,.8-.944l-.336-.112h2ZM62.528-5.6A5.8,5.8,0,0,0,56.4-11.488a6.82,6.82,0,0,0-6.992,6.512c0,2.64,1.424,4.272,2.848,4.272,1.488,0,2.752-1.68,3.728-4.976a31.474,31.474,0,0,0,.96-4.608,4.456,4.456,0,0,1,4.272,4.64A4.832,4.832,0,0,1,57.152-.9a12.086,12.086,0,0,1-1.376.208L56.528.5C60.32,0,62.528-2.24,62.528-5.6Zm-11.872.512a5.581,5.581,0,0,1,4.96-5.184,26.142,26.142,0,0,1-.9,4.32c-.816,2.7-1.664,3.776-2.416,3.776C51.584-2.176,50.656-3.072,50.656-5.088Zm23.376-7.584H72.576c.016.128.08.592.1,1.008.016.224.032.608.032,1.056-2.384.032-5.392.128-7.168.16l.032,1.232c2-.144,4.72-.256,7.152-.272.016.56.016,1.136.016,1.616a3.2,3.2,0,0,0-1.072-.176,2.793,2.793,0,0,0-2.816,2.784,2.547,2.547,0,0,0,2.624,2.672,2.254,2.254,0,0,0,1.392-.432c-.64,1.456-2.112,2.352-4.24,2.832L69.7.864c3.728-1.12,4.784-3.52,4.784-5.68a3.888,3.888,0,0,0-.512-2.048c-.016-.736-.032-1.728-.032-2.64h.224c2.336,0,3.792.032,4.688.08l.016-1.184c-.768,0-2.736-.016-4.688-.016h-.24c0-.432.016-.8.016-1.04C73.968-11.872,74-12.5,74.032-12.672ZM70.048-5.28a1.63,1.63,0,0,1,1.616-1.7,1.434,1.434,0,0,1,1.424,1.008c.144,1.52-.464,2.272-1.408,2.272A1.541,1.541,0,0,1,70.048-5.28Zm13.52-6.448.064,1.3c.384-.032.832-.08,1.184-.1.736-.048,2.688-.128,3.328-.16-.5.992-1.1,2.384-1.664,3.648-3.152.08-5.328,1.888-5.328,4.24a2.039,2.039,0,0,0,2.08,2.192,2.252,2.252,0,0,0,2.016-1.1A34.6,34.6,0,0,0,87.264-5.9,11.5,11.5,0,0,1,91.84-4.432,6.865,6.865,0,0,1,87.648.08L88.7.96a7.55,7.55,0,0,0,4.208-4.752,16.7,16.7,0,0,1,1.664,1.264L95.168-3.9a20.911,20.911,0,0,0-1.936-1.232,21.458,21.458,0,0,0,.336-3.088l-1.3-.144c.032.448.016.992,0,1.472-.032.384-.064.784-.128,1.184a14.4,14.4,0,0,0-4.4-1.28c.672-1.488,1.376-3.12,1.824-3.84a6.706,6.706,0,0,1,.416-.528l-.8-.656a3.307,3.307,0,0,1-.8.176c-.672.048-2.768.16-3.616.16C84.448-11.68,83.984-11.7,83.568-11.728ZM82.32-2.96c0-1.376,1.328-2.784,3.664-2.96A21.361,21.361,0,0,1,84.24-2.432a1.152,1.152,0,0,1-.96.56A.98.98,0,0,1,82.32-2.96ZM105.568-12.5h-1.456c.032.128.08.592.112,1.008.016.224.016.608.032,1.056-2.384.032-5.392.128-7.184.16l.048,1.248c2-.144,4.7-.256,7.152-.288,0,.56.016,1.136.016,1.616a3.2,3.2,0,0,0-1.072-.176,2.8,2.8,0,0,0-2.832,2.784,2.551,2.551,0,0,0,2.64,2.672,2.335,2.335,0,0,0,1.408-.432c-.656,1.456-2.144,2.352-4.256,2.832l1.072,1.056c3.712-1.1,4.768-3.5,4.768-5.68a3.888,3.888,0,0,0-.512-2.048c-.016-.752-.032-1.728-.032-2.64h.224c2.352,0,3.792.048,4.688.1l.016-1.2c-.752,0-2.72-.016-4.688-.016h-.24c0-.432.016-.8.016-1.04C105.5-11.68,105.552-12.32,105.568-12.5ZM101.584-5.1A1.63,1.63,0,0,1,103.2-6.8a1.468,1.468,0,0,1,1.44,1.024c.128,1.5-.5,2.256-1.424,2.256A1.55,1.55,0,0,1,101.584-5.1Zm6.192-7.712-.88.368a18.228,18.228,0,0,1,1.168,1.968l.912-.4A19.641,19.641,0,0,0,107.776-12.816Zm1.952-.416-.9.384a12.732,12.732,0,0,1,1.184,1.936l.912-.4C110.592-11.936,110.1-12.688,109.728-13.232Zm5.84,1.5.064,1.3c.384-.032.832-.08,1.184-.1.736-.048,2.688-.128,3.328-.16-.5.992-1.1,2.384-1.664,3.648-3.152.08-5.328,1.888-5.328,4.24a2.039,2.039,0,0,0,2.08,2.192,2.252,2.252,0,0,0,2.016-1.1A34.6,34.6,0,0,0,119.264-5.9a11.5,11.5,0,0,1,4.576,1.472A6.865,6.865,0,0,1,119.648.08L120.7.96a7.55,7.55,0,0,0,4.208-4.752,16.7,16.7,0,0,1,1.664,1.264l.592-1.376a20.911,20.911,0,0,0-1.936-1.232,21.458,21.458,0,0,0,.336-3.088l-1.3-.144c.032.448.016.992,0,1.472-.032.384-.064.784-.128,1.184a14.4,14.4,0,0,0-4.4-1.28c.672-1.488,1.376-3.12,1.824-3.84a6.706,6.706,0,0,1,.416-.528l-.8-.656a3.307,3.307,0,0,1-.8.176c-.672.048-2.768.16-3.616.16C116.448-11.68,115.984-11.7,115.568-11.728ZM114.32-2.96c0-1.376,1.328-2.784,3.664-2.96a21.361,21.361,0,0,1-1.744,3.488,1.152,1.152,0,0,1-.96.56A.98.98,0,0,1,114.32-2.96ZM132.1-1.68c0-.736.832-1.328,2.352-1.328a7.1,7.1,0,0,1,1.552.16c0,.416.016.8.016,1.072,0,1.1-.784,1.392-1.7,1.392C132.736-.384,132.1-.944,132.1-1.68ZM137.168-12.7h-1.36a8.782,8.782,0,0,1,.064.96v1.136h-.736a29.071,29.071,0,0,1-4.1-.352l.016,1.184c1.008.112,2.976.272,4.1.272h.7v2.24h-.864a29.6,29.6,0,0,1-4.032-.3l.016,1.2c1.152.128,2.912.224,4,.224h.912c.016.688.048,1.456.064,2.176a9.163,9.163,0,0,0-1.344-.1c-2.3,0-3.7.992-3.7,2.448,0,1.536,1.248,2.352,3.552,2.352,2.08,0,2.816-1.136,2.816-2.24,0-.256-.016-.592-.032-.992A11.8,11.8,0,0,1,141.12-.08l.736-1.136a12.733,12.733,0,0,0-4.672-2.5c-.032-.768-.08-1.632-.112-2.464,1.52-.048,2.928-.176,4.432-.368l.016-1.2a39.814,39.814,0,0,1-4.464.432v-2.24c1.536-.08,3.056-.224,4.32-.368l.016-1.168a39.783,39.783,0,0,1-4.336.432c0-.416.016-.768.016-.976A8.007,8.007,0,0,1,137.168-12.7Zm8.1,2.176.144,1.392c1.728-.368,5.808-.752,7.52-.944a6.5,6.5,0,0,0-2.992,5.408c0,3.568,3.376,5.152,6.336,5.264l.464-1.328c-2.608-.1-5.52-1.088-5.52-4.208a5.631,5.631,0,0,1,3.664-5.072,13.4,13.4,0,0,1,3.136-.256v-1.28c-1.072.048-2.576.144-4.32.288-2.944.24-5.968.544-7.008.656C146.384-10.576,145.872-10.544,145.264-10.528ZM155.712-8.3l-.816.352A14.853,14.853,0,0,1,156.208-5.7l.816-.384A18.991,18.991,0,0,0,155.712-8.3Zm1.744-.672-.784.368a14.83,14.83,0,0,1,1.344,2.24l.832-.4A21.133,21.133,0,0,0,157.456-8.976Zm16.464-3.84h-7.776v.928H172.8v1.1h-6.288v.864H172.8V-8.8h-6.768v.928h7.888Zm-7.792,6.88h7.728v1.648h1.136V-6.9H165.04v2.672h1.088Zm-1.264-5.6a10.3,10.3,0,0,0-2.72-1.712l-.672.864a11.328,11.328,0,0,1,2.7,1.792Zm-.784,4.128a11.982,11.982,0,0,0-2.752-1.584l-.672.88a11.666,11.666,0,0,1,2.736,1.68Zm-.4,2.576a45.418,45.418,0,0,1-2.592,5.1l1.04.736c.816-1.488,1.76-3.456,2.48-5.136Zm8.336,1.056a7.043,7.043,0,0,1-2.048,2.08,6.143,6.143,0,0,1-1.888-2.08Zm.832-.992-.224.048h-6.352v.944h1.5l-.784.24a7.837,7.837,0,0,0,1.984,2.416,14.546,14.546,0,0,1-4.4,1.344,3.885,3.885,0,0,1,.592.976,15.563,15.563,0,0,0,4.768-1.632,12.879,12.879,0,0,0,4.72,1.664,4.366,4.366,0,0,1,.736-1.04,13.882,13.882,0,0,1-4.432-1.28,7.814,7.814,0,0,0,2.64-3.344Zm12.64-2.048h1.136V-9.008a11.5,11.5,0,0,0,4.1,2.928,3.534,3.534,0,0,1,.72-.88A10.388,10.388,0,0,1,187.3-9.5h3.872v-.944h-4.544V-11.76a33.852,33.852,0,0,0,3.856-.544l-.768-.8a59.087,59.087,0,0,1-8.208.8,3.371,3.371,0,0,1,.272.832c1.168-.032,2.448-.1,3.712-.192v1.216h-4.464V-9.5h3.728a11.17,11.17,0,0,1-4.24,2.72,4.038,4.038,0,0,1,.736.832,12.07,12.07,0,0,0,4.24-3.04Zm2.64,1.808c.1-.48.176-.976.256-1.44h-6.1V-5.5h1.9a4.127,4.127,0,0,1-3.168,3.632,3.445,3.445,0,0,1,.64.88A5,5,0,0,0,185.3-5.5h1.888c-.128.64-.272,1.3-.416,1.792l1.024.128a4.261,4.261,0,0,0,.128-.528h1.568c-.144,1.2-.288,1.728-.48,1.92-.128.112-.272.112-.544.112-.24,0-.992,0-1.76-.064a2.64,2.64,0,0,1,.288.912,15.918,15.918,0,0,0,1.936.016,1.26,1.26,0,0,0,.96-.336c.368-.336.56-1.136.736-2.992a3.216,3.216,0,0,0,.032-.464Zm-7.7-5.376a11.962,11.962,0,0,0-2.576-2.608l-.912.672a11.82,11.82,0,0,1,2.528,2.672Zm-.48,3.264H176.8V-6h2.032v4.1a26.334,26.334,0,0,1-2.208,1.84l.624,1.136c.784-.688,1.52-1.36,2.224-2.048C180.464.272,181.9.832,184,.912c1.792.08,5.168.048,6.96-.032a4.355,4.355,0,0,1,.384-1.168c-1.92.128-5.6.176-7.36.1-1.872-.064-3.28-.608-4.032-1.792Zm20.432-4.224c.112.368.272.848.464,1.44a33.432,33.432,0,0,1-6.32-.192l.032,1.28a41.108,41.108,0,0,0,6.72.032,21.373,21.373,0,0,0,1.936,3.648c-.576-.064-1.76-.16-2.656-.24l-.1,1.072a36.164,36.164,0,0,1,3.856.432l.656-.9c-.24-.272-.48-.544-.7-.848a17.024,17.024,0,0,1-1.792-3.3,23.788,23.788,0,0,0,3.312-.656l-.144-1.248a20.551,20.551,0,0,1-3.568.784,19.117,19.117,0,0,1-.736-2.736l-1.36.176C200.128-12.176,200.272-11.68,200.384-11.344Zm-3.392,6.352-1.248-.288a6.238,6.238,0,0,0-.768,2.656c0,2.176,1.92,3.28,4.96,3.3A23.237,23.237,0,0,0,204.064.32l.064-1.28A17.835,17.835,0,0,1,200-.56c-2.368-.016-3.76-.688-3.76-2.208A4.116,4.116,0,0,1,196.992-4.992Zm22.848-7.344h-1.36a9.049,9.049,0,0,1,.08,1.2v2.288c-1.712.144-3.568.32-5.136.464.016-.848.016-1.632.016-2.16,0-.5.032-.928.064-1.3h-1.392a9.718,9.718,0,0,1,.1,1.36c0,.272,0,1.152-.016,2.224-.768.064-1.408.128-1.808.16a15.609,15.609,0,0,1-1.664.1l.144,1.312c.432-.064,1.12-.16,1.616-.224.416-.048,1.008-.112,1.712-.192,0,1.6,0,3.3.016,3.984.08,2.544.432,3.392,4.128,3.392,1.616,0,3.568-.144,4.64-.256l.048-1.36a30.405,30.405,0,0,1-4.752.384c-2.768,0-2.8-.608-2.848-2.336-.016-.624-.016-2.288,0-3.936,1.6-.16,3.472-.352,5.12-.48-.032,1.008-.1,2.1-.176,2.624-.048.368-.224.432-.608.432a8.278,8.278,0,0,1-1.6-.208l-.032,1.1a15.852,15.852,0,0,0,2.112.224c.736,0,1.088-.208,1.232-.912a23.905,23.905,0,0,0,.224-3.344c.7-.048,1.312-.08,1.792-.1.4,0,1.008-.016,1.264,0V-9.136c-.384.016-.832.048-1.248.08-.528.032-1.136.064-1.776.112.016-.7.016-1.5.032-2.24C219.776-11.52,219.792-12.064,219.84-12.336ZM229.856-1.68a1.169,1.169,0,0,1,1.28-1.024A2.182,2.182,0,0,1,233.28-.528a8.215,8.215,0,0,1-1.3.1C230.736-.432,229.856-.912,229.856-1.68Zm-2.048-10.112.048,1.328c.336-.048.7-.08,1.056-.1.848-.048,4.048-.192,4.9-.224-.816.72-2.816,2.4-3.712,3.136-.928.784-2.976,2.5-4.3,3.584l.912.944c2.032-2.064,3.456-3.2,6.128-3.2,2.08,0,3.584,1.184,3.584,2.752a2.81,2.81,0,0,1-2,2.736,3.1,3.1,0,0,0-3.264-2.832,2.247,2.247,0,0,0-2.464,2.08c0,1.328,1.328,2.272,3.5,2.272,3.392,0,5.5-1.664,5.5-4.24,0-2.16-1.9-3.76-4.56-3.76a6.77,6.77,0,0,0-2.224.336c1.248-1.04,3.424-2.9,4.224-3.5.288-.24.608-.448.9-.656l-.736-.928a3.773,3.773,0,0,1-.864.128c-.848.08-4.656.208-5.488.208A9.54,9.54,0,0,1,227.808-11.792Z" transform="translate(1086 -11520)" fill="#3c505a"/>
      <path id="Path_177" data-name="Path 177" d="M2.1-5.96c0-.32.01-.36.54-.36a1.475,1.475,0,0,1,1.61,1.6A1.555,1.555,0,0,1,2.78-3.04c-.06.02-.06.17.01.2a3.376,3.376,0,0,0,1.38-.3,1.7,1.7,0,0,0,1-1.59,1.728,1.728,0,0,0-.8-1.5,3.612,3.612,0,0,0-1.92-.4,15.766,15.766,0,0,0-1.98.08.167.167,0,0,0-.02.25l.36.04c.45.05.47.22.47,1.07V-1.5c0,1.05-.02,1.17-.6,1.25L.47-.22A.194.194,0,0,0,.49.03C.93.01,1.29,0,1.71,0c.4,0,.73.01,1.3.03a.2.2,0,0,0,.02-.25L2.76-.25C2.12-.32,2.1-.45,2.1-1.5ZM9.51.16a3.414,3.414,0,0,0,3.47-3.49A3.291,3.291,0,0,0,9.51-6.76,3.457,3.457,0,0,0,5.95-3.23,3.367,3.367,0,0,0,9.51.16Zm.13-.31c-1.97,0-2.69-1.92-2.69-3.4,0-2.19,1.35-2.9,2.39-2.9,1.91,0,2.64,1.78,2.64,3.43C11.98-1.05,10.84-.15,9.64-.15Zm5.08-1.37c0,1.06-.02,1.2-.61,1.27l-.25.03a.194.194,0,0,0,.02.25c.5-.02.84-.03,1.26-.03.4,0,.74.01,1.24.03.06-.03.08-.21.02-.25l-.25-.03c-.59-.07-.61-.21-.61-1.27V-5.08c0-1.06.02-1.23.61-1.28l.25-.02c.06-.04.04-.22-.02-.25-.5.02-.84.03-1.24.03-.42,0-.76-.01-1.26-.03-.06.03-.08.21-.02.25l.25.02c.59.05.61.22.61,1.28Zm8.76-2.57a8.068,8.068,0,0,1,.15-2.06c.04-.08.24-.16.56-.21l.14-.02a.176.176,0,0,0-.02-.25c-.34.02-.6.03-1.03.03-.38,0-.72-.01-1.18-.03-.08.03-.09.19-.02.25l.17.02c.4.05.56.11.62.2a7.034,7.034,0,0,1,.2,2.07v2.14a1.009,1.009,0,0,1-.04.42h-.02c-.47-.48-.96-1.04-1.65-1.81l-.97-1.09a13.76,13.76,0,0,1-1.71-2.2,3.23,3.23,0,0,1-.46.03c-.18,0-.71,0-1.13-.03a.175.175,0,0,0-.02.25l.17.02a1.085,1.085,0,0,1,.62.24.917.917,0,0,1,.22.72v2.89a9.655,9.655,0,0,1-.13,2.06c-.05.11-.21.17-.44.2l-.27.03a.185.185,0,0,0,.02.25C17.61.01,17.88,0,18.3,0c.37,0,.72.01,1.17.03a.183.183,0,0,0,.02-.25l-.31-.03c-.25-.02-.45-.08-.51-.19a7.828,7.828,0,0,1-.18-2.07V-4.69a2.541,2.541,0,0,1,.05-.65h.02c.21.22.89,1.04,1.16,1.35l2.32,2.64c.87.99,1.16,1.34,1.28,1.51a.18.18,0,0,0,.19-.11c-.03-.26-.03-1.45-.03-1.75Zm4.85-1.86c0-.33-.01-.34.29-.34h.71a1.994,1.994,0,0,1,1.16.25c.15.11.22.48.25.73A.188.188,0,0,0,31-5.33a6.053,6.053,0,0,1,.15-1.52c-.02-.04-.13-.05-.18-.03-.15.26-.24.28-.78.28H26.14c-.46,0-.79.01-.85-.31a.25.25,0,0,0-.19,0,10.531,10.531,0,0,1-.38,1.49.193.193,0,0,0,.26.07,1.826,1.826,0,0,1,.45-.69,2.047,2.047,0,0,1,1.23-.25h.55c.3,0,.3.01.3.32V-1.5c0,1.05-.05,1.2-.62,1.25l-.36.03a.175.175,0,0,0,0,.25c.64-.02.99-.03,1.39-.03s.74.01,1.31.03c.06-.03.08-.21.02-.25l-.32-.03c-.58-.05-.6-.2-.6-1.25Z" transform="translate(1028 -11520)" fill="#3c505a"/>
      <path id="Path_176" data-name="Path 176" d="M10.75-27.52c-6.278,0-8.9,7.568-8.9,14.061C1.849-6.708,4.472.6,10.75.6s8.9-7.31,8.9-14.061C19.651-19.952,17.028-27.52,10.75-27.52Zm0,1.29c4.73,0,5.074,8.729,5.074,12.771S15.48-.688,10.75-.688,5.676-9.417,5.676-13.459,6.02-26.23,10.75-26.23Zm22.489,18.1c1.118,0,1.247.043,1.247,1.075v1.806c0,3.311-.129,4.042-1.935,4.171l-1.935.129C30.358-.688,30.4,0,30.7.129,32.594.043,34.529,0,36.077,0,37.41,0,39,.043,40.549.129c.3-.129.344-.817.086-1.075l-1.118-.129c-1.763-.215-1.849-.774-1.849-4.171V-7.181c0-.9.215-.946,1.29-.946H41.28a1.548,1.548,0,0,0,0-1.806H38.528c-.731,0-.86-.172-.86-.989v-8.3c0-.86,0-1.376-.6-1.333a5.3,5.3,0,0,0-2.193.731.913.913,0,0,0-.387.86v7.912c0,.989-.172,1.118-1.2,1.118H26.617c-1.118,0-1.72,0-1.2-.688l13.674-18.92a.906.906,0,0,0,.215-.473c0-.215-.215-.344-.645-.344h-.731a1.2,1.2,0,0,0-.989.6l-13.8,19.264c-.6.86-.774,1.118-.774,1.634,0,.43.215.731.6.731Z" transform="translate(1023 -11485)" fill="#3c505a"/>
    </g>
    <path id="Path_175" data-name="Path 175" d="M8-9.44a1.209,1.209,0,0,0,1.2-1.2A1.209,1.209,0,0,0,8-11.84a1.209,1.209,0,0,0-1.2,1.2A1.209,1.209,0,0,0,8-9.44Zm0,2.9-5.28-5.28-.464.464,5.28,5.28-5.3,5.3L2.7-.32,8-5.616l5.28,5.28L13.744-.8,8.464-6.08l5.28-5.28-.464-.464ZM4.64-6.08a1.209,1.209,0,0,0-1.2-1.2,1.209,1.209,0,0,0-1.2,1.2,1.209,1.209,0,0,0,1.2,1.2A1.209,1.209,0,0,0,4.64-6.08Zm6.72,0a1.209,1.209,0,0,0,1.2,1.2,1.209,1.209,0,0,0,1.2-1.2,1.209,1.209,0,0,0-1.2-1.2A1.209,1.209,0,0,0,11.36-6.08ZM8-2.72a1.209,1.209,0,0,0-1.2,1.2A1.209,1.209,0,0,0,8-.32a1.209,1.209,0,0,0,1.2-1.2A1.209,1.209,0,0,0,8-2.72ZM17.408,0H23.84V-1.216H21.488V-11.744h-1.12a7.065,7.065,0,0,1-2.432.848v.928h2.08v8.752H17.408Zm9.7.208A1.057,1.057,0,0,0,28.16-.9,1.075,1.075,0,0,0,27.1-2.032,1.075,1.075,0,0,0,26.048-.9,1.057,1.057,0,0,0,27.1.208ZM38.016-12.3H36.528a7.792,7.792,0,0,1,.1,1.3v8.8c0,1.3.688,1.856,1.9,2.08A17.039,17.039,0,0,0,41.1.032,44.735,44.735,0,0,0,46.64-.3V-1.76a26.293,26.293,0,0,1-5.472.512,15.458,15.458,0,0,1-2.128-.128c-.768-.16-1.12-.368-1.12-1.184V-6.08a64.692,64.692,0,0,0,6.72-2.144c.48-.176,1.056-.432,1.52-.624l-.56-1.3a10.758,10.758,0,0,1-1.408.736A44.966,44.966,0,0,1,37.92-7.392v-3.616A10.458,10.458,0,0,1,38.016-12.3ZM54.3-1.408A14.1,14.1,0,0,1,54.192.48h1.552c-.064-.528-.1-1.392-.1-1.888,0-.464,0-2.88-.016-5.28A41.947,41.947,0,0,1,61.92-4.112l.544-1.36a51.139,51.139,0,0,0-6.832-2.64V-10.72c0-.48.064-1.168.112-1.664H54.176A10.1,10.1,0,0,1,54.3-10.72ZM73.3-11.344c.112.368.272.848.464,1.44a33.432,33.432,0,0,1-6.32-.192l.032,1.28a41.108,41.108,0,0,0,6.72.032,21.373,21.373,0,0,0,1.936,3.648c-.576-.064-1.76-.16-2.656-.24l-.1,1.072a36.164,36.164,0,0,1,3.856.432l.656-.9c-.24-.272-.48-.544-.7-.848a17.024,17.024,0,0,1-1.792-3.3A23.788,23.788,0,0,0,78.7-9.568l-.144-1.248a20.551,20.551,0,0,1-3.568.784,19.117,19.117,0,0,1-.736-2.736l-1.36.176C73.04-12.176,73.184-11.68,73.3-11.344ZM69.9-4.992,68.656-5.28a6.238,6.238,0,0,0-.768,2.656c0,2.176,1.92,3.28,4.96,3.3A23.237,23.237,0,0,0,76.976.32L77.04-.96a17.835,17.835,0,0,1-4.128.4c-2.368-.016-3.76-.688-3.76-2.208A4.116,4.116,0,0,1,69.9-4.992ZM84.48-11.168,82.928-11.2a7.217,7.217,0,0,1,.112,1.424c0,.928.032,2.88.176,4.272C83.648-1.36,85.1.144,86.624.144c1.072,0,2.048-.928,3.008-3.648L88.624-4.64c-.416,1.6-1.168,3.264-1.984,3.264-1.136,0-1.92-1.776-2.176-4.448-.112-1.328-.128-2.784-.112-3.792A12.182,12.182,0,0,1,84.48-11.168Zm8.336.448-1.248.432c1.536,1.872,2.5,5.152,2.784,8.048l1.28-.528A17.2,17.2,0,0,0,92.816-10.72Zm5.408,6.688h1.1v-2.16h4.96v1.68h-4.272V.032h1.152V-3.536h3.12V1.216h1.152V-3.536h3.44v2.32c0,.176-.064.224-.288.24-.208.016-.96.032-1.808,0a4.329,4.329,0,0,1,.368,1.024,7.406,7.406,0,0,0,2.3-.192c.464-.176.576-.464.576-1.072v-3.3H105.44v-1.68h5.04v2.16h1.136V-7.168H98.224Zm10.1-5.1h-2.88V-10.7h2.88Zm-6.8-1.568H104.3v1.568H101.52Zm7.952-.992v-1.6H108.32v1.6h-2.88v-1.68H104.3v1.68H101.52v-1.6H100.4v1.6H97.792v.992H100.4V-8.16h9.072V-10.7h2.592V-11.7Zm6.912,2.56h2.288V-.8h-2.288ZM122.1-.8H119.76V-9.136H122.1Zm3.456-8.336V-.8h-2.336V-9.136Zm1.2,8.336v-9.472h-6.624c.432-.848.88-1.872,1.264-2.784l-1.376-.336a22.36,22.36,0,0,1-1.152,3.12h-3.648V-.8h-1.6V.352h14.608V-.8Zm4.64-5.424h3.536v1.248h-3.536Zm0-2.128h3.536v1.216h-3.536Zm2.32,4.32h2.3V-9.3h-2.3V-10.64H136.5V-11.7h-2.784v-1.7H132.56v1.7h-2.752v1.056h2.752V-9.3h-2.24v5.264h2.24v1.344h-2.928V-1.6h2.928V1.216h1.152V-1.6h2.928V-2.688h-2.928Zm7.12-3.008h2.32v-1.1h-5.68a14.852,14.852,0,0,0,2.784-4,17.023,17.023,0,0,0,3.536,4.512,8.517,8.517,0,0,1,.672-1.056,15.115,15.115,0,0,1-3.7-4.624h-1.12A13.257,13.257,0,0,1,136.064-8.4a3.9,3.9,0,0,1,.624.976,8.352,8.352,0,0,0,.688-.624V-7.04h2.272V-4.8h-3.04v1.1h3.04v4.88h1.184V-3.7h3.2V-4.8h-3.2Zm5.616,2.72a12.376,12.376,0,0,1-.992,3.792,4.156,4.156,0,0,1,.928.448,14.669,14.669,0,0,0,1.088-4.064Zm3.456.24a15.714,15.714,0,0,1,1.04,3.1l.96-.32a15.966,15.966,0,0,0-1.088-3.088Zm-.288-3.856a13.387,13.387,0,0,1,.72,1.248l-2.48.16a42.624,42.624,0,0,0,3.216-4.56l-.992-.48a34.137,34.137,0,0,1-1.792,2.976,11.3,11.3,0,0,0-.976-1.12,34.4,34.4,0,0,0,1.872-3.264l-1.072-.416a20.187,20.187,0,0,1-1.472,3.024c-.16-.144-.3-.288-.464-.416l-.608.784a12.6,12.6,0,0,1,2.1,2.3c-.32.448-.64.88-.96,1.248-.448.032-.864.064-1.248.08l.176,1.088,2.64-.24V1.2h1.072V-5.616l1.44-.144a10.591,10.591,0,0,1,.448,1.184l.96-.464a13.886,13.886,0,0,0-1.68-3.28Zm6.816,6.992V-5.52h2.192V-.944ZM153.3-5.52h2.08V-.944H153.3Zm2.08-5.488v4.4H153.3v-4.4Zm3.248,4.4h-2.192v-4.4h2.192Zm-6.4-5.5V1.024H153.3V.16h5.328V.9h1.1V-12.112Zm11.408,6.864c.032-.656.032-1.28.032-1.84v-.9h2.048v2.736Zm2.08-6.464v2.64h-2.048v-2.64ZM170.56.032c-1.024,0-1.232-.112-1.232-.672V-4.272H172.8V-8.72h-4.24a13.693,13.693,0,0,0,.848-1.6h5.168c-.112,4.464-.224,6.048-.512,6.432a.477.477,0,0,1-.48.224c-.272,0-.9-.016-1.568-.064a2.967,2.967,0,0,1,.336,1.088,11.871,11.871,0,0,0,1.728-.016,1.2,1.2,0,0,0,.992-.528c.416-.544.512-2.336.624-7.648.016-.176.016-.576.016-.576h-5.84a16.548,16.548,0,0,0,.576-1.712l-1.2-.272A12.948,12.948,0,0,1,166.8-8.416V-12.8h-4.192v5.728c0,2.336-.08,5.536-1.136,7.776a3.236,3.236,0,0,1,.944.544,16.027,16.027,0,0,0,1.152-5.408h2.144V-.192c0,.208-.08.272-.288.288-.176.016-.816.016-1.52,0a4.161,4.161,0,0,1,.336,1.1,5.488,5.488,0,0,0,2.032-.208c.4-.208.528-.56.528-1.184V-8.24c.288.208.7.544.9.72a10.737,10.737,0,0,0,.688-.928V-7.7H171.7v2.4h-3.5V-.624c0,1.376.528,1.7,2.3,1.7h3.648c1.6,0,1.968-.576,2.128-2.864a3.622,3.622,0,0,1-1.056-.448c-.1,1.952-.24,2.272-1.152,2.272Zm19.9-7.632h-4.4V-9.152h4.4Zm0,2.416h-4.4V-6.752h4.4Zm0,2.464h-4.4V-4.3h4.4Zm-5.488-7.36v8.288h6.608V-10.08H188.5c.144-.464.32-.992.464-1.5h3.056v-1.04h-7.552v1.04h3.216a12.526,12.526,0,0,1-.3,1.5Zm-6.56,3.68A16.594,16.594,0,0,1,177.408.48a5.5,5.5,0,0,1,.8.688c1.072-2.128,1.2-4.672,1.2-7.568v-6.416h-.992Zm2.176,5.344h.88V-11.68h-.88Zm2.16,1.728h.976V-12.864h-.976Zm3.92-2.128a9.323,9.323,0,0,1-2.9,1.92,5.572,5.572,0,0,1,.736.784,11.953,11.953,0,0,0,3.152-2.112Zm2.224.624a16.3,16.3,0,0,1,2.624,2.064l.912-.656a16.892,16.892,0,0,0-2.656-2Zm9.056-12.3a17.7,17.7,0,0,1-4.64,6.448,7.939,7.939,0,0,1,.72,1.2,19.088,19.088,0,0,0,2.08-2.256V1.184h1.2V-9.424a21.486,21.486,0,0,0,1.776-3.328ZM202.944-.128c-.88,0-1.056-.192-1.056-1.088v-4.64a37.651,37.651,0,0,0,5.632-3.488l-.848-1.024a28.006,28.006,0,0,1-4.784,3.312v-5.952h-1.2V-1.232c0,1.744.512,2.224,2.176,2.224h3.28c1.648,0,2-.912,2.192-3.5a3.819,3.819,0,0,1-1.136-.512c-.112,2.32-.256,2.9-1.136,2.9Zm21.008-11.36h-4.016V-13.36h-1.168v1.872h-3.984v1.072h9.168ZM218.08-7.76a9.035,9.035,0,0,0-.8-2.56l-1.072.256a9.24,9.24,0,0,1,.752,2.576Zm-5.232-.656h1.776V-9.552h-1.776v-3.712h-1.12v3.712h-1.92v1.136h1.92V-3.3c-.832.32-1.6.592-2.224.8l.4,1.2c1.456-.592,3.376-1.36,5.152-2.112L214.832-4.5c-.656.256-1.328.528-1.984.768Zm9.168,4.624v3.1H216.8v-3.1ZM215.7,1.2h1.1V.384h5.216v.768h1.168V-4.88H215.7Zm5.84-11.584a19.5,19.5,0,0,1-.912,2.624l1.008.288c.352-.672.736-1.68,1.12-2.576Zm2.7,2.912H214.224v1.088H224.24Zm5.776,5.632h2.32a6.218,6.218,0,0,0,1.536,1.328c-1.312.112-2.64.224-3.856.32Zm4.912-5.344a8.463,8.463,0,0,0,1.136,1.28H233.44v-.88h-1.12v.88h-2.5a9.85,9.85,0,0,0,1.184-1.28ZM230.016-5.1h5.792v.864h-5.792Zm0,2.464v-.9h5.792v.9Zm6.976.8V-5.152a9.723,9.723,0,0,0,2.544,1.344,3.829,3.829,0,0,1,.752-.928,9.428,9.428,0,0,1-4.112-2.448h3.76v-.928h-6.448v-.912h4.672v-.9h-4.672v-.9h5.536v-.944h-3.04c.32-.384.656-.864.992-1.328l-1.264-.32a16.192,16.192,0,0,1-.96,1.648h-3.744l.08-.032a5.926,5.926,0,0,0-1.136-1.632l-1.024.368a7.807,7.807,0,0,1,.9,1.3h-3.056v.944h5.52v.9h-4.64v.9h4.64v.912h-6.416v.928h3.744a11.539,11.539,0,0,1-4.144,2.72,4.594,4.594,0,0,1,.832.848,14.024,14.024,0,0,0,2.528-1.472V-.112l-1.824.144.128,1.04c1.856-.16,4.48-.4,6.976-.656V-.368a13.592,13.592,0,0,0,5.248,1.6,3.819,3.819,0,0,1,.656-.992,19.1,19.1,0,0,1-3.536-.624,16.864,16.864,0,0,0,2.4-1.216L238-2.128a24.727,24.727,0,0,1-2.56,1.376,7.029,7.029,0,0,1-1.872-1.088Zm19.168-9.792h-4.784v-1.76h-1.2v1.76h-4.5v1.12h10.48Zm-10.608.048a10.453,10.453,0,0,0-2.544-1.664l-.688.848a11.08,11.08,0,0,1,2.528,1.744Zm-.7,4.064a10.5,10.5,0,0,0-2.608-1.44l-.64.864a10.939,10.939,0,0,1,2.56,1.536ZM243.024,1.1c.672-1.456,1.44-3.408,2-5.072l-.944-.656A47.728,47.728,0,0,1,241.952.448Zm4.752-11.392A14.964,14.964,0,0,1,244.7-4.912a5,5,0,0,1,.784.752,13.149,13.149,0,0,0,1.264-1.616V1.2h1.056V-7.552A20.973,20.973,0,0,0,248.9-9.968Zm3.376,3.9a7.214,7.214,0,0,1,1.472,1.776l.656-.576a7.118,7.118,0,0,0-1.5-1.68Zm3.232-.992A12.132,12.132,0,0,1,252.32-2.96a12.458,12.458,0,0,1-1.872-3.424c.192-.32.384-.656.544-.992Zm.544-1.008-.176.032h-3.28c.24-.544.464-1.1.64-1.632l-1.1-.288a13.992,13.992,0,0,1-3.072,5.5,8.165,8.165,0,0,1,.752.736,10.564,10.564,0,0,0,1.12-1.36,14.559,14.559,0,0,0,1.824,3.248,10,10,0,0,1-3.5,2.464,4.464,4.464,0,0,1,.688.9,11.2,11.2,0,0,0,3.52-2.512,10.3,10.3,0,0,0,3.344,2.48,4.84,4.84,0,0,1,.768-.928,9.776,9.776,0,0,1-3.408-2.368,13.7,13.7,0,0,0,2.608-6.016Zm13.1,2.3a10.63,10.63,0,0,0,3.184,7.616l.96-.5A10.012,10.012,0,0,1,269.2-6.08a10.012,10.012,0,0,1,2.976-7.12l-.96-.5A10.63,10.63,0,0,0,268.032-6.08Zm7.28-3.808h1.7v1.344h-1.7Zm4.5,0v1.344H278.08V-9.888Zm6.1-.752a6.764,6.764,0,0,1-1.28,2.4,8.457,8.457,0,0,1-1.472-2.352l.032-.048Zm-8.9,5.632h1.072V-6.944c.768.432,1.808,1.04,2.272,1.36l.576-.784c-.448-.256-2.112-1.088-2.752-1.392h2.64V-9.28a5.586,5.586,0,0,1,.752.768,7.8,7.8,0,0,0,.992-1.152,9.358,9.358,0,0,0,1.36,2.128,8.588,8.588,0,0,1-3.248,1.7,3.863,3.863,0,0,1,.7.88,10.517,10.517,0,0,0,3.264-1.808A8.816,8.816,0,0,0,287.664-4.9a5.1,5.1,0,0,1,.688-.944,8.292,8.292,0,0,1-2.992-1.648,7.866,7.866,0,0,0,1.7-3.152h1.024v-.96h-4.4a12.619,12.619,0,0,0,.576-1.536l-1.088-.24a8.448,8.448,0,0,1-2.352,4v-1.3H278.08v-.816h3.12v-.864h-3.12v-1.04h-1.072v1.04h-3.136v.864h3.136v.816h-2.672V-7.76h2.208a10,10,0,0,1-2.944,2,3.455,3.455,0,0,1,.7.752,11.172,11.172,0,0,0,2.7-2.048Zm4.464,3.568h4.592v-.928h-4.592V-3.6H287.1v-.976H274.8V-3.6h5.52V-.128h-2.848V-2.88h-1.12V-.128h-2.624V.864h14.416V-.128h-6.672ZM291.76-5.28c.016-.64.032-1.248.032-1.792v-.9h2.368V-5.28Zm2.4-6.416v2.624h-2.368V-11.7Zm1.12-1.1h-4.592v5.728c0,2.352-.08,5.5-1.184,7.744a3.793,3.793,0,0,1,.992.592,16.124,16.124,0,0,0,1.2-5.408h2.464V-.336c0,.224-.08.288-.288.3-.192,0-.832.016-1.568-.016a3.735,3.735,0,0,1,.352,1.136,4.982,4.982,0,0,0,2.08-.24c.4-.192.544-.528.544-1.184ZM302.416-.176a.443.443,0,0,1-.256-.08c-.08-.08-.1-.368-.1-.88V-12.8h-4.992v6.72c0,2.176-.128,4.864-1.552,6.672a4.913,4.913,0,0,1,.992.72c1.5-1.952,1.728-5.072,1.728-7.392v-5.584H300.9V-1.232c0,1.344.08,1.616.32,1.856a1.473,1.473,0,0,0,.912.32h.784A1.593,1.593,0,0,0,303.76.72a1.3,1.3,0,0,0,.416-.864,22.993,22.993,0,0,0,.144-2.32,2.683,2.683,0,0,1-.96-.528c0,1.008-.016,1.808-.048,2.144s-.08.5-.16.56a.412.412,0,0,1-.32.112Zm13.216-12.416a16.38,16.38,0,0,1,2.832,1.92l.736-.816a15.261,15.261,0,0,0-2.864-1.824Zm2.272,4.32a15.844,15.844,0,0,1-2.048,4.32,28.859,28.859,0,0,1-.88-5.552h5.088v-1.168H314.9c-.048-.864-.064-1.76-.064-2.688H313.6c.016.912.032,1.808.1,2.688h-6.672v4.464c0,2.064-.144,4.8-1.456,6.752a4.733,4.733,0,0,1,.992.8c1.44-2.08,1.68-5.3,1.68-7.536V-6.32h2.912c-.064,2.752-.144,3.76-.368,4-.1.144-.256.176-.48.176-.272,0-.96-.016-1.7-.08a2.473,2.473,0,0,1,.336,1.12,18.462,18.462,0,0,0,1.9,0,1.238,1.238,0,0,0,.96-.464c.336-.416.432-1.76.512-5.344v-.512h-4.08V-9.5h5.52a31.462,31.462,0,0,0,1.168,6.736,12.768,12.768,0,0,1-3.68,2.96,6.7,6.7,0,0,1,.864.944,14.3,14.3,0,0,0,3.3-2.656c.736,1.648,1.7,2.624,2.928,2.624,1.216,0,1.648-.784,1.872-3.5a2.812,2.812,0,0,1-1.024-.64c-.112,2.128-.3,2.96-.752,2.96-.816,0-1.552-.912-2.144-2.48A18.041,18.041,0,0,0,319.1-7.968Zm8.224-4.784a13.59,13.59,0,0,1-4.784,6.016,6.916,6.916,0,0,1,1.008.912,16.485,16.485,0,0,0,5.024-6.576Zm-2.192,5.68v1.152H327.2c-.368,2.7-1.248,5.232-5.008,6.48a4.718,4.718,0,0,1,.768,1.04c4.064-1.472,5.088-4.368,5.5-7.52h4.128c-.192,4.032-.416,5.632-.832,6.032-.144.176-.336.208-.672.208-.368,0-1.36-.016-2.4-.112a2.892,2.892,0,0,1,.4,1.184,22.92,22.92,0,0,0,2.512.032,1.6,1.6,0,0,0,1.232-.56c.544-.608.784-2.448,1.008-7.36.016-.16.032-.576.032-.576Zm6.592-5.264a21.16,21.16,0,0,0,4.96,6.368,6.117,6.117,0,0,1,.976-1.056,16.93,16.93,0,0,1-4.816-5.76Zm11.264,6.56a10.63,10.63,0,0,0-3.184-7.616l-.96.5a10.012,10.012,0,0,1,2.976,7.12,10.012,10.012,0,0,1-2.976,7.12l.96.5A10.63,10.63,0,0,0,341.792-6.08ZM8,20.56a1.2,1.2,0,1,0-1.2-1.2A1.209,1.209,0,0,0,8,20.56Zm0,2.9-5.28-5.28-.464.464,5.28,5.28-5.3,5.3.464.464,5.3-5.3,5.28,5.28.464-.464-5.28-5.28,5.28-5.28-.464-.464Zm-3.36.464a1.2,1.2,0,1,0-1.2,1.2A1.209,1.209,0,0,0,4.64,23.92Zm6.72,0a1.2,1.2,0,1,0,1.2-1.2A1.209,1.209,0,0,0,11.36,23.92ZM8,27.28a1.2,1.2,0,1,0,1.2,1.2A1.209,1.209,0,0,0,8,27.28ZM16.7,30H24.08V28.736H20.768c-.608,0-1.312.064-1.92.112,2.7-2.848,4.656-4.976,4.656-7.12A3.159,3.159,0,0,0,20.1,18.384a4.486,4.486,0,0,0-3.456,1.728l.848.816a3.336,3.336,0,0,1,2.432-1.36,2.01,2.01,0,0,1,2.16,2.224c0,1.872-1.936,3.92-5.376,7.344Zm10.4.208a1.057,1.057,0,0,0,1.056-1.1,1.059,1.059,0,1,0-2.112,0A1.057,1.057,0,0,0,27.1,30.208Zm7.232,2.976h1.472c-.032-1.456-.048-2.832-.1-4.3a4.025,4.025,0,0,0,3.1,1.328,3.417,3.417,0,0,0,3.408-3.664,3.162,3.162,0,0,0-2.8-3.36V23.1a3.366,3.366,0,0,0,1.744-2.976A3.01,3.01,0,0,0,37.9,17.056c-2.432,0-3.568,1.776-3.568,4.16Zm4.144-4.192a3.358,3.358,0,0,1-2.768-1.36c0-2.1.016-4.144.048-6.208.016-2.08.832-3.2,2.16-3.2a1.812,1.812,0,0,1,1.824,2.016A2.819,2.819,0,0,1,37.2,23.008l.224,1.12a3.355,3.355,0,0,1,.9-.112,2.26,2.26,0,0,1,2.448,2.448A2.306,2.306,0,0,1,38.48,28.992Zm5.264-2.912h4.1V24.96h-4.1Zm7.664-6.5v1.44c.5-.016,1.024-.048,1.584-.048H59.84c.528,0,1.136.016,1.584.048v-1.44a15.722,15.722,0,0,1-1.584.064H52.992C52.464,19.648,51.92,19.616,51.408,19.584ZM50.032,27.5V29.04c.544-.032,1.1-.08,1.68-.08H61.3c.432,0,.976.032,1.456.08V27.5a14.531,14.531,0,0,1-1.456.08H51.712C51.136,27.584,50.576,27.536,50.032,27.5Zm17.28-8.48v1.424c.368-.016,1.168-.048,1.76-.048h7.664v7.552H68.88a16.894,16.894,0,0,1-1.776-.1v1.456c.432-.032,1.152-.064,1.808-.064h7.824c-.016.384-.016.72-.032.9h1.44c-.016-.256-.064-.976-.064-1.552V20.336c0-.384.032-.88.048-1.248-.32.016-.8.032-1.184.032H69.056A16.146,16.146,0,0,1,67.312,19.024Zm15.9-.144.32,1.184c1.232-.016,3.04-.064,4.656-.224v2.912H83.376c-.48,0-1.04-.032-1.408-.064v1.328c.384-.032.928-.064,1.44-.064H88.16a6.351,6.351,0,0,1-4.048,5.824l1.264.88a7.583,7.583,0,0,0,4.1-6.7h4.464c.4,0,.88.032,1.232.064V22.688c-.336.032-.912.064-1.264.064H89.488V19.68c1.152-.176,2.384-.416,3.184-.624.224-.064.544-.144.9-.24l-.848-1.1a21.7,21.7,0,0,1-4.128.928A38.624,38.624,0,0,1,83.216,18.88Zm16.976-.608-.912.976a33.23,33.23,0,0,1,3.984,3.344l1.008-1.008A35.036,35.036,0,0,0,100.192,18.272Zm-1.376,10.72.848,1.312a17.538,17.538,0,0,0,6.288-2.48,15.986,15.986,0,0,0,5.376-5.7l-.768-1.36a15.072,15.072,0,0,1-5.344,5.888A16.521,16.521,0,0,1,98.816,28.992Zm28.64-9.808-.784-.752a7.9,7.9,0,0,1-1.12.1h-9.184a13.577,13.577,0,0,1-1.824-.144V19.84a17.878,17.878,0,0,1,1.824-.1h9.12a10.869,10.869,0,0,1-3.5,3.584l1.056.848a15.426,15.426,0,0,0,3.984-4.416C127.136,19.584,127.344,19.344,127.456,19.184ZM121.072,21.3h-1.44a9.618,9.618,0,0,1,.064,1.152c0,2.672-.352,4.944-2.832,6.464a5.511,5.511,0,0,1-1.44.72l1.184.96C120.688,28.56,121.072,25.632,121.072,21.3Zm11.76-3.408-.464,1.184a52.965,52.965,0,0,1,8.352,1.9l.512-1.232A54.75,54.75,0,0,0,132.832,17.888Zm-.72,4.224-.48,1.2a46.826,46.826,0,0,1,8.032,1.952l.512-1.232A56.982,56.982,0,0,0,132.112,22.112Zm-.88,4.656-.5,1.216a52.231,52.231,0,0,1,9.472,2.416l.544-1.232A56.316,56.316,0,0,0,131.232,26.768Zm23.5-8.288-.88.4a15.878,15.878,0,0,1,1.424,2.432l.912-.416A24.11,24.11,0,0,0,154.736,18.48Zm1.936-.8-.88.416a15.566,15.566,0,0,1,1.488,2.4l.9-.448A21.609,21.609,0,0,0,156.672,17.68ZM149.12,28.8a17.517,17.517,0,0,1-.1,1.888h1.536c-.048-.512-.1-1.376-.1-1.888V23.536a41,41,0,0,1,6.272,2.56l.56-1.36a54.35,54.35,0,0,0-6.832-2.64V19.488a14.78,14.78,0,0,1,.112-1.664h-1.584a10.1,10.1,0,0,1,.128,1.664Zm14.016-10.16v1.28c.432-.032.9-.048,1.44-.048H166.7v3.392h-3.12c-.416,0-1.072-.048-1.5-.08v1.344c.448-.032,1.1-.064,1.5-.064h3.12V28.08c0,1.312.768,2.16,3.184,2.16,1.52,0,3.056-.064,4.3-.16l.08-1.344a35.364,35.364,0,0,1-4.208.224c-1.472,0-2.032-.48-2.032-1.28V24.464h5.424a11.842,11.842,0,0,1,1.3.048V23.2c-.352.032-.992.064-1.328.064h-5.392V19.872h4.16c.56,0,.928.032,1.312.048V18.64c-.352.032-.8.064-1.312.064h-7.616C164.032,18.7,163.568,18.672,163.136,18.64Zm25.936-.144-1.52-.416a16.662,16.662,0,0,1-3.024,6.784,13.9,13.9,0,0,1-6.048,4.24l1.12,1.168a15.894,15.894,0,0,0,6.032-4.56,21.87,21.87,0,0,0,2.928-5.824A13.447,13.447,0,0,1,189.072,18.5Zm16.256.912-.928-.72a2.49,2.49,0,0,1-.9.16h-6.592c-.608,0-1.264-.048-1.712-.08v1.36c.448-.016,1.136-.048,1.712-.048H203.5a13.854,13.854,0,0,1-2.3,4.848,43.646,43.646,0,0,0-4.368-2.72l-.816.976a38.3,38.3,0,0,1,4.32,2.736,13.868,13.868,0,0,1-6,3.7l1.12,1.12a15.6,15.6,0,0,0,5.968-4,38.566,38.566,0,0,1,3.072,2.576l.944-1.088c-.832-.752-1.952-1.632-3.168-2.528a18.246,18.246,0,0,0,2.656-5.424A3.641,3.641,0,0,1,205.328,19.408Zm11.5-1.84-1.488-.48a5.479,5.479,0,0,1-.5,1.264,13.19,13.19,0,0,1-5.024,5.408l1.1.832a16.22,16.22,0,0,0,4.064-3.936H220.4a13.154,13.154,0,0,1-2.56,4.992,12.944,12.944,0,0,1-6.384,4.016l1.152,1.04a14.028,14.028,0,0,0,6.368-4.352,15.519,15.519,0,0,0,2.848-5.5,5.028,5.028,0,0,1,.368-.848l-1.072-.656a2.678,2.678,0,0,1-1.04.16h-4.336a7.191,7.191,0,0,0,.384-.672A12.1,12.1,0,0,1,216.832,17.568Zm10.96,11.92.928.8a2.472,2.472,0,0,1,.672-.288,18.507,18.507,0,0,0,9.36-5.712l-.72-1.12a17.266,17.266,0,0,1-8.752,5.456V19.552a10.348,10.348,0,0,1,.112-1.456h-1.584a9.748,9.748,0,0,1,.144,1.456V28.7A1.762,1.762,0,0,1,227.792,29.488ZM250.8,17.472h-1.488a13.278,13.278,0,0,1,.144,1.344c.016.368.032.912.048,1.552H243.68a14.518,14.518,0,0,1-1.472-.1v1.36c.5-.032.96-.048,1.5-.048h5.264a20.139,20.139,0,0,1-7.36,6.16l.928,1.04a22.231,22.231,0,0,0,6.992-6c.032,2.144.048,4.528.048,5.808,0,.432-.128.64-.592.64a15.138,15.138,0,0,1-2.256-.192l.112,1.312c.784.064,1.728.1,2.56.1.96,0,1.456-.448,1.456-1.28-.016-2-.064-5.184-.112-7.584H253.3c.384,0,.944.016,1.312.032V20.272c-.32.032-.944.1-1.36.1h-2.512c-.016-.64-.032-1.184-.032-1.552A9.493,9.493,0,0,1,250.8,17.472Zm8.1,1.408.32,1.184c1.232-.016,3.04-.064,4.656-.224v2.912h-4.816c-.48,0-1.04-.032-1.408-.064v1.328c.384-.032.928-.064,1.44-.064h4.752a6.351,6.351,0,0,1-4.048,5.824l1.264.88a7.583,7.583,0,0,0,4.1-6.7h4.464c.4,0,.88.032,1.232.064V22.688c-.336.032-.912.064-1.264.064h-4.416V19.68c1.152-.176,2.384-.416,3.184-.624.224-.064.544-.144.9-.24l-.848-1.1a21.7,21.7,0,0,1-4.128.928A38.624,38.624,0,0,1,258.9,18.88Zm23.84-.4-.88.4a15.877,15.877,0,0,1,1.424,2.432l.912-.416A24.107,24.107,0,0,0,282.736,18.48Zm1.936-.8-.88.416a15.566,15.566,0,0,1,1.488,2.4l.9-.448A21.611,21.611,0,0,0,284.672,17.68ZM277.12,28.8a17.521,17.521,0,0,1-.1,1.888h1.536c-.048-.512-.1-1.376-.1-1.888V23.536a41,41,0,0,1,6.272,2.56l.56-1.36a54.351,54.351,0,0,0-6.832-2.64V19.488a14.78,14.78,0,0,1,.112-1.664h-1.584a10.1,10.1,0,0,1,.128,1.664Zm22.24-4.88a10.63,10.63,0,0,0,3.184,7.616l.96-.5a10.005,10.005,0,0,1,0-14.24l-.96-.5A10.63,10.63,0,0,0,299.36,23.92Zm7.28-3.808h1.7v1.344h-1.7Zm4.5,0v1.344h-1.728V20.112Zm6.1-.752a6.764,6.764,0,0,1-1.28,2.4,8.457,8.457,0,0,1-1.472-2.352l.032-.048Zm-8.9,5.632h1.072V23.056c.768.432,1.808,1.04,2.272,1.36l.576-.784c-.448-.256-2.112-1.088-2.752-1.392h2.64V20.72a5.586,5.586,0,0,1,.752.768,7.8,7.8,0,0,0,.992-1.152,9.358,9.358,0,0,0,1.36,2.128A8.588,8.588,0,0,1,312,24.16a3.863,3.863,0,0,1,.7.88,10.517,10.517,0,0,0,3.264-1.808,8.816,8.816,0,0,0,3.024,1.872,5.1,5.1,0,0,1,.688-.944,8.291,8.291,0,0,1-2.992-1.648,7.866,7.866,0,0,0,1.7-3.152h1.024V18.4h-4.4a12.62,12.62,0,0,0,.576-1.536l-1.088-.24a8.448,8.448,0,0,1-2.352,4v-1.3h-2.736v-.816h3.12v-.864h-3.12v-1.04h-1.072v1.04H305.2v.864h3.136v.816h-2.672V22.24h2.208a10,10,0,0,1-2.944,2,3.455,3.455,0,0,1,.7.752,11.172,11.172,0,0,0,2.7-2.048ZM312.8,28.56h4.592v-.928H312.8V26.4h5.632v-.976h-12.3V26.4h5.52v3.472H308.8V27.12h-1.12v2.752h-2.624v.992h14.416v-.992H312.8Zm10.288-3.84c.016-.64.032-1.248.032-1.792v-.9h2.368V24.72Zm2.4-6.416v2.624H323.12V18.3Zm1.12-1.1h-4.592v5.728c0,2.352-.08,5.5-1.184,7.744a3.793,3.793,0,0,1,.992.592,16.124,16.124,0,0,0,1.2-5.408h2.464v3.808c0,.224-.08.288-.288.3-.192,0-.832.016-1.568-.016a3.735,3.735,0,0,1,.352,1.136,4.982,4.982,0,0,0,2.08-.24c.4-.192.544-.528.544-1.184Zm7.136,12.624a.443.443,0,0,1-.256-.08c-.08-.08-.1-.368-.1-.88V17.2H328.4v6.72c0,2.176-.128,4.864-1.552,6.672a4.913,4.913,0,0,1,.992.72c1.5-1.952,1.728-5.072,1.728-7.392V18.336h2.656V28.768c0,1.344.08,1.616.32,1.856a1.473,1.473,0,0,0,.912.32h.784a1.593,1.593,0,0,0,.848-.224,1.3,1.3,0,0,0,.416-.864,22.993,22.993,0,0,0,.144-2.32,2.683,2.683,0,0,1-.96-.528c0,1.008-.016,1.808-.048,2.144s-.08.5-.16.56a.412.412,0,0,1-.32.112ZM346.96,17.408a16.38,16.38,0,0,1,2.832,1.92l.736-.816a15.261,15.261,0,0,0-2.864-1.824Zm2.272,4.32a15.844,15.844,0,0,1-2.048,4.32,28.859,28.859,0,0,1-.88-5.552h5.088V19.328h-5.168c-.048-.864-.064-1.76-.064-2.688h-1.232c.016.912.032,1.808.1,2.688h-6.672v4.464c0,2.064-.144,4.8-1.456,6.752a4.733,4.733,0,0,1,.992.8c1.44-2.08,1.68-5.3,1.68-7.536V23.68h2.912c-.064,2.752-.144,3.76-.368,4-.1.144-.256.176-.48.176-.272,0-.96-.016-1.7-.08a2.473,2.473,0,0,1,.336,1.12,18.462,18.462,0,0,0,1.9,0,1.238,1.238,0,0,0,.96-.464c.336-.416.432-1.76.512-5.344v-.512h-4.08V20.5h5.52a31.462,31.462,0,0,0,1.168,6.736,12.768,12.768,0,0,1-3.68,2.96,6.7,6.7,0,0,1,.864.944,14.3,14.3,0,0,0,3.3-2.656c.736,1.648,1.7,2.624,2.928,2.624,1.216,0,1.648-.784,1.872-3.5a2.812,2.812,0,0,1-1.024-.64c-.112,2.128-.3,2.96-.752,2.96-.816,0-1.552-.912-2.144-2.48a18.041,18.041,0,0,0,2.816-5.408Zm8.224-4.784a13.59,13.59,0,0,1-4.784,6.016,6.916,6.916,0,0,1,1.008.912A16.485,16.485,0,0,0,358.7,17.3Zm-2.192,5.68v1.152h3.264c-.368,2.7-1.248,5.232-5.008,6.48a4.718,4.718,0,0,1,.768,1.04c4.064-1.472,5.088-4.368,5.5-7.52h4.128c-.192,4.032-.416,5.632-.832,6.032-.144.176-.336.208-.672.208-.368,0-1.36-.016-2.4-.112a2.892,2.892,0,0,1,.4,1.184,22.921,22.921,0,0,0,2.512.032,1.6,1.6,0,0,0,1.232-.56c.544-.608.784-2.448,1.008-7.36.016-.16.032-.576.032-.576Zm6.592-5.264a21.16,21.16,0,0,0,4.96,6.368,6.117,6.117,0,0,1,.976-1.056,16.93,16.93,0,0,1-4.816-5.76Zm11.264,6.56a10.63,10.63,0,0,0-3.184-7.616l-.96.5a10.005,10.005,0,0,1,0,14.24l.96.5A10.63,10.63,0,0,0,373.12,23.92Z" transform="translate(295 7677)" fill="#3c505a"/>
    <path id="Path_174" data-name="Path 174" d="M6-7.08a.907.907,0,0,0,.9-.9.907.907,0,0,0-.9-.9.907.907,0,0,0-.9.9A.907.907,0,0,0,6-7.08ZM6-4.908,2.04-8.868l-.348.348,3.96,3.96L1.68-.588l.348.348L6-4.212,9.96-.252,10.308-.6,6.348-4.56l3.96-3.96L9.96-8.868ZM3.48-4.56a.907.907,0,0,0-.9-.9.907.907,0,0,0-.9.9.907.907,0,0,0,.9.9A.907.907,0,0,0,3.48-4.56Zm5.04,0a.907.907,0,0,0,.9.9.907.907,0,0,0,.9-.9.907.907,0,0,0-.9-.9A.907.907,0,0,0,8.52-4.56ZM6-2.04a.907.907,0,0,0-.9.9.907.907,0,0,0,.9.9.907.907,0,0,0,.9-.9A.907.907,0,0,0,6-2.04ZM13.056,0H17.88V-.912H16.116v-7.9h-.84a5.3,5.3,0,0,1-1.824.636v.7h1.56V-.912H13.056Z" transform="translate(524 7118)" fill="#3c505a"/>
    <path id="Path_173" data-name="Path 173" d="M6-7.08a.907.907,0,0,0,.9-.9.907.907,0,0,0-.9-.9.907.907,0,0,0-.9.9A.907.907,0,0,0,6-7.08ZM6-4.908,2.04-8.868l-.348.348,3.96,3.96L1.68-.588l.348.348L6-4.212,9.96-.252,10.308-.6,6.348-4.56l3.96-3.96L9.96-8.868ZM3.48-4.56a.907.907,0,0,0-.9-.9.907.907,0,0,0-.9.9.907.907,0,0,0,.9.9A.907.907,0,0,0,3.48-4.56Zm5.04,0a.907.907,0,0,0,.9.9.907.907,0,0,0,.9-.9.907.907,0,0,0-.9-.9A.907.907,0,0,0,8.52-4.56ZM6-2.04a.907.907,0,0,0-.9.9.907.907,0,0,0,.9.9.907.907,0,0,0,.9-.9A.907.907,0,0,0,6-2.04ZM12.528,0H18.06V-.948H15.624c-.444,0-.984.048-1.44.084,2.064-1.956,3.444-3.744,3.444-5.5a2.413,2.413,0,0,0-2.556-2.6,3.364,3.364,0,0,0-2.592,1.3l.636.624a2.463,2.463,0,0,1,1.824-1.02,1.546,1.546,0,0,1,1.62,1.74c0,1.512-1.272,3.264-4.032,5.676Z" transform="translate(504 7260)" fill="#3c505a"/>
    <g id="Group_170" data-name="Group 170">
      <path id="Path_172" data-name="Path 172" d="M6.4-7.5c0,5.25-.1,5.9-3,6.25L2.15-1.1A.963.963,0,0,0,2.25.15C4.6.05,6.4,0,8.5,0c2,0,3.7.05,5.95.15a.978.978,0,0,0,.1-1.25L13.5-1.25c-2.9-.4-3-1-3-6.25v-6.3c0-1.05.1-1.1,2.35-1.1,2,0,2.8.5,3.55,1.6,1.55,2.25,3.6,5.7,4.9,7.55C24.85-.7,27.4.55,31.65.55A7.783,7.783,0,0,0,33.85.3a.419.419,0,0,0-.05-.7,5.984,5.984,0,0,1-3.45-1.4C26.95-4.65,24.3-8.65,20.3-15.1c-.25-.4-.5-.9-.25-1.2,2.5-1,6.25-3.6,6.25-8.35a7.45,7.45,0,0,0-4.15-7c-2.3-1.25-5.25-1.5-8.35-1.5-4.9,0-8.35.15-11.15.4A.835.835,0,0,0,2.6-31.5l1.6.2c2.05.25,2.2,1.1,2.2,5.85ZM10.5-30c0-1.4.15-1.6,3.25-1.6,5.55,0,8,3.75,8,7.7,0,3.4-1.15,5.15-2.5,6.2a8.377,8.377,0,0,1-5.15,1.3c-2.55,0-3.3-.1-3.45-.25a3.937,3.937,0,0,1-.15-1.65ZM38.65-7.5c0,5.25-.25,6-3.1,6.25L33.9-1.1A.971.971,0,0,0,34,.15C36.95.05,38.65,0,40.8,0h4.5c4.45,0,8.9.05,13.4.15A43.572,43.572,0,0,0,60.95-6.8a.92.92,0,0,0-1.25-.35c-1.3,2.6-2.65,4.35-3.55,4.85-1.1.55-2.55.75-6.4.75-4.4,0-5.45-.55-6.05-1.15-.8-.85-.95-2.55-.95-5.2v-7.05c0-1.3.15-1.35,1.65-1.35h2.9a16.725,16.725,0,0,1,3.85.25,2.138,2.138,0,0,1,1.55,1.9l.45,1.95a.988.988,0,0,0,1.3-.05c0-1.1-.2-3-.2-4.8,0-1.9.2-3.85.2-5.05a.988.988,0,0,0-1.3-.05l-.4,2.05c-.25,1.25-.6,1.55-1.2,1.75a18.546,18.546,0,0,1-4.25.3H44.4c-1.5,0-1.65,0-1.65-1.4v-10c0-1.9,0-2,1.5-2h3.6a23.87,23.87,0,0,1,4.85.3c2.6.65,3.05,2.4,3.8,4.75a.983.983,0,0,0,1.25-.1,56.18,56.18,0,0,0-.8-6.65A67.111,67.111,0,0,1,50.2-33H40.8c-2.05,0-3.75-.05-5.9-.15-.3.15-.4,1.05-.1,1.25l.8.1c2.95.35,3.05,1.1,3.05,6.3Zm29.2,0c0,5.25-.1,5.8-2.75,6.25l-.9.15A.971.971,0,0,0,64.3.15C66.15.1,67.85,0,70.05,0c2.1,0,4.55.15,6,.15,9,0,13.3-3.9,13.3-9.7a8.273,8.273,0,0,0-6.7-8.35c-.55-.1-.95-.25-.95-.75,3-1.4,5.1-3.25,5.1-6.85A6.564,6.564,0,0,0,83-31.75c-2.25-1.15-5.25-1.4-8.4-1.4-4.65,0-8.05.15-10.75.4a.8.8,0,0,0-.05,1.25l1.6.15c2.25.2,2.45,1.15,2.45,4.85Zm4.1-8.15c0-1,.2-1.3,2.9-1.3,7.95,0,9.95,4.6,9.95,8.55,0,5-3.4,7-7.85,7A4.853,4.853,0,0,1,73-2.8c-.95-1.1-1.05-3.65-1.05-5.45Zm0-14.35c0-.9.2-1.15.7-1.3a6.154,6.154,0,0,1,2.3-.3c3.8,0,7.45,1.85,7.45,6.75,0,4.7-2.75,6.2-7.85,6.4-2.55.1-2.6,0-2.6-1.4ZM111.8.8a17.071,17.071,0,0,0,17.35-17.45c0-8.8-5.8-17.15-17.35-17.15C101.5-33.8,94-26.15,94-16.15,94-7.15,100.7.8,111.8.8Zm.65-1.55c-9.85,0-13.45-9.6-13.45-17,0-10.95,6.75-14.5,11.95-14.5,9.55,0,13.2,8.9,13.2,17.15C124.15-5.25,118.45-.75,112.45-.75Zm25.4-6.75c0,5.25-.1,5.9-3,6.25l-1.25.15a.963.963,0,0,0,.1,1.25c2.35-.1,4.15-.15,6.25-.15,2,0,3.7.05,5.95.15A.978.978,0,0,0,146-1.1l-1.05-.15c-2.9-.4-3-1-3-6.25v-6.3c0-1.05.1-1.1,2.35-1.1,2,0,2.8.5,3.55,1.6,1.55,2.25,3.6,5.7,4.9,7.55C156.3-.7,158.85.55,163.1.55A7.783,7.783,0,0,0,165.3.3a.419.419,0,0,0-.05-.7,5.984,5.984,0,0,1-3.45-1.4c-3.4-2.85-6.05-6.85-10.05-13.3-.25-.4-.5-.9-.25-1.2,2.5-1,6.25-3.6,6.25-8.35a7.45,7.45,0,0,0-4.15-7c-2.3-1.25-5.25-1.5-8.35-1.5-4.9,0-8.35.15-11.15.4a.835.835,0,0,0-.05,1.25l1.6.2c2.05.25,2.2,1.1,2.2,5.85Zm4.1-22.5c0-1.4.15-1.6,3.25-1.6,5.55,0,8,3.75,8,7.7,0,3.4-1.15,5.15-2.5,6.2a8.377,8.377,0,0,1-5.15,1.3c-2.55,0-3.3-.1-3.45-.25a3.937,3.937,0,0,1-.15-1.65ZM197-20.45c0-2.3-.1-8.5.75-10.3.2-.4,1.2-.8,2.8-1.05l.7-.1a.878.878,0,0,0-.1-1.25c-1.7.1-3,.15-5.15.15-1.9,0-3.6-.05-5.9-.15-.4.15-.45.95-.1,1.25l.85.1c2,.25,2.8.55,3.1,1,.95,1.5,1,8,1,10.35v10.7a5.043,5.043,0,0,1-.2,2.1h-.1c-2.35-2.4-4.8-5.2-8.25-9.05l-4.85-5.45C179.9-24,174-30.6,173-33.15a16.15,16.15,0,0,1-2.3.15c-.9,0-3.55,0-5.65-.15a.875.875,0,0,0-.1,1.25l.85.1a5.423,5.423,0,0,1,3.1,1.2A4.586,4.586,0,0,1,170-27v14.45c0,2.4.05,8.5-.65,10.3-.25.55-1.05.85-2.2,1l-1.35.15a.926.926,0,0,0,.1,1.25C167.65.05,169,0,171.1,0c1.85,0,3.6.05,5.85.15a.916.916,0,0,0,.1-1.25l-1.55-.15c-1.25-.1-2.25-.4-2.55-.95-.85-1.5-.9-8-.9-10.35v-10.9a12.7,12.7,0,0,1,.25-3.25h.1c1.05,1.1,4.45,5.2,5.8,6.75l11.6,13.2c4.35,4.95,5.8,6.7,6.4,7.55a.9.9,0,0,0,.95-.55C197-1.05,197-7,197-8.5ZM225.4-4.8a10.246,10.246,0,0,1,.65,2.65c0,.5-.7.8-1.75.9l-1.45.15a.838.838,0,0,0,.1,1.25C224.4.1,226.3,0,228.7,0c2.25,0,4,.05,6.05.15a.98.98,0,0,0,0-1.25l-1.35-.15c-2.15-.25-2.8-1-4.25-5.3l-6.85-20.1c-.75-2.2-1.55-4.5-2.2-6.7a.708.708,0,0,0-.75-.45,5.607,5.607,0,0,1-2.6,1.9c.15.8-.15,1.75-.85,3.55l-5.1,13.5c-2.1,5.6-3.5,8.85-4.4,11.15a3.324,3.324,0,0,1-3,2.45l-1.65.15a.983.983,0,0,0,.1,1.25C203.2.1,205,0,206.65,0c2.35.05,3.9.05,5.2.15a.8.8,0,0,0,.1-1.25l-1.65-.15c-1.2-.1-1.45-.4-1.45-1a19.115,19.115,0,0,1,1.1-4.15l1.75-5.25c.35-1.05.65-1.2,1.9-1.2h7.55c1.5,0,1.7.15,2.05,1.25Zm-8.95-19.95a30.469,30.469,0,0,1,1.2-2.95h.1a32.942,32.942,0,0,1,1.15,3.15l2.7,8.15c.45,1.35.35,1.55-1.1,1.55h-6.15c-1.4,0-1.45-.05-1.05-1.2Zm51.9,16.3c0-4.75-3.1-7.65-6.25-9.6l-4-2.5c-1.85-1.15-4.25-3.25-4.25-6.15,0-2.3,1.05-5.55,5.95-5.55,4.8,0,6.15,3.25,6.8,5.65.25.3,1.05.15,1.25-.15a21.871,21.871,0,0,0-.9-6.1,6.719,6.719,0,0,1-1.75-.3,19.327,19.327,0,0,0-4.65-.65c-6.5,0-10.2,3.85-10.2,8.6,0,4.1,2.9,6.95,5.4,8.6l4.75,3.1c3.65,2.35,4.1,4.8,4.1,7,0,3-2.05,5.75-6.25,5.75-5.8,0-7.85-4.9-8.6-7.45-.2-.3-.95-.2-1.2.15a23.091,23.091,0,0,0,1.35,7A15.606,15.606,0,0,0,257.7.8C264.2.8,268.35-2.95,268.35-8.45Zm9,.95c0,5.25-.25,6-3.1,6.25l-1.65.15a.971.971,0,0,0,.1,1.25c2.95-.1,4.65-.15,6.8-.15H284c4.45,0,8.9.05,13.4.15a43.573,43.573,0,0,0,2.25-6.95.92.92,0,0,0-1.25-.35c-1.3,2.6-2.65,4.35-3.55,4.85-1.1.55-2.55.75-6.4.75-4.4,0-5.45-.55-6.05-1.15-.8-.85-.95-2.55-.95-5.2v-7.05c0-1.3.15-1.35,1.65-1.35H286a16.724,16.724,0,0,1,3.85.25,2.138,2.138,0,0,1,1.55,1.9l.45,1.95a.988.988,0,0,0,1.3-.05c0-1.1-.2-3-.2-4.8,0-1.9.2-3.85.2-5.05a.988.988,0,0,0-1.3-.05l-.4,2.05c-.25,1.25-.6,1.55-1.2,1.75a18.546,18.546,0,0,1-4.25.3h-2.9c-1.5,0-1.65,0-1.65-1.4v-10c0-1.9,0-2,1.5-2h3.6a23.87,23.87,0,0,1,4.85.3c2.6.65,3.05,2.4,3.8,4.75a.983.983,0,0,0,1.25-.1,56.186,56.186,0,0,0-.8-6.65,67.112,67.112,0,0,1-6.75.15h-9.4c-2.05,0-3.75-.05-5.9-.15-.3.15-.4,1.05-.1,1.25l.8.1c2.95.35,3.05,1.1,3.05,6.3Zm29.2,0c0,5.25-.1,5.9-3,6.25l-1.25.15a.963.963,0,0,0,.1,1.25c2.35-.1,4.15-.15,6.25-.15,2,0,3.7.05,5.95.15a.978.978,0,0,0,.1-1.25l-1.05-.15c-2.9-.4-3-1-3-6.25v-6.3c0-1.05.1-1.1,2.35-1.1,2,0,2.8.5,3.55,1.6,1.55,2.25,3.6,5.7,4.9,7.55C325-.7,327.55.55,331.8.55A7.783,7.783,0,0,0,334,.3a.419.419,0,0,0-.05-.7,5.984,5.984,0,0,1-3.45-1.4c-3.4-2.85-6.05-6.85-10.05-13.3-.25-.4-.5-.9-.25-1.2,2.5-1,6.25-3.6,6.25-8.35a7.45,7.45,0,0,0-4.15-7c-2.3-1.25-5.25-1.5-8.35-1.5-4.9,0-8.35.15-11.15.4a.835.835,0,0,0-.05,1.25l1.6.2c2.05.25,2.2,1.1,2.2,5.85Zm4.1-22.5c0-1.4.15-1.6,3.25-1.6,5.55,0,8,3.75,8,7.7,0,3.4-1.15,5.15-2.5,6.2a8.377,8.377,0,0,1-5.15,1.3c-2.55,0-3.3-.1-3.45-.25a3.937,3.937,0,0,1-.15-1.65ZM361.4-14.7c0,7.6-2.75,13.3-10,13.3-7.65,0-10.15-5.3-10.15-13.35v-10.8c0-5.2.1-6.05,3-6.3l1.2-.1c.3-.2.2-1.05-.1-1.2-2.45.1-4.1.15-6.15.15-2,0-3.7-.05-6.2-.15-.3.15-.4,1-.1,1.2l1.25.1c2.9.25,3,1.1,3,6.3v11.8c0,5.95,1.25,9.6,3.9,11.8C343.5.15,346.95.8,350.4.8c3.7,0,7.4-1.3,9.55-3.65,2.8-3,3.5-7.6,3.5-11.95v-5.65c0-2.8,0-8.55.7-10.2a2.927,2.927,0,0,1,2.5-1.2l1.2-.1a.864.864,0,0,0-.1-1.2c-1.8.1-3.15.15-5.25.15-1.95,0-3.8-.05-5.7-.15a.9.9,0,0,0-.1,1.2l1.25.1a3.1,3.1,0,0,1,2.5,1.05c.85,1.5.95,7.25.95,10.35Zm20.8-10.2c-1.55-3.2-2.8-6.3-2.6-8.25-1.65.15-3,.15-4.15.15-1.25,0-2.45-.05-3.95-.15a.936.936,0,0,0-.2,1.25l.8.1c3.05.4,3.45,1.15,3.35,4.3-.1,2.75-.3,7-.55,11.15-.3,4.95-.55,7.7-.85,11-.3,3.5-1,3.8-3.1,4.1l-1.1.15a.988.988,0,0,0,.1,1.25c1.7-.1,3.5-.15,5.1-.15,1.9,0,3.85.05,5.55.15.35-.15.4-.95.05-1.25l-1.9-.15c-1.95-.15-2.25-.95-2.25-4.65,0-4.25.2-8.7.35-11.75.15-2.9.3-5.8.5-8.9h.1c1.1,2.3,2.15,4.9,3.2,7.2l4.5,9.65c1.15,2.45,3.55,7.35,4.4,10a.611.611,0,0,0,.45.2.58.58,0,0,0,.5-.2c.9-2.3,3.15-7,5.4-11.4l4.45-8.75c1-1.95,2.9-5.95,3.25-6.5h.1l.15,20.85c0,3.2,0,4-2.45,4.25l-1.45.15a.926.926,0,0,0,.1,1.25c2.05-.1,4.3-.15,6.05-.15,1.8,0,3.85.05,5.9.15a.922.922,0,0,0,.1-1.25l-1.6-.15c-2.35-.2-2.3-1.55-2.45-4.05-.4-7.2-.45-16.45-.55-21.75-.05-3.5.35-4.45,3.5-4.75l1.05-.1a1.052,1.052,0,0,0-.05-1.25c-1.55.1-3.2.15-4.45.15-1,0-2.05,0-3.75-.15-.1,2.3-1.55,5.05-3.8,9.6L395.3-14c-1.25,2.55-2.5,5.15-3.85,7.5h-.1c-1.2-2.2-2.3-4.5-3.45-6.85ZM5.607,50.1,4.286,45.522Q24.814,40.85,30.809,40.85q8.637,0,12.955,6.026Q47.5,52.1,47.5,61.185a21.936,21.936,0,0,1-2.9,11.279,18.452,18.452,0,0,1-6.574,6.606q-7.348,4.254-20.593,5.672l-1.676-4.351q12.053-1.128,18.434-4.834a15.872,15.872,0,0,0,8.314-14.566q0-15.92-12.149-15.92Q24.363,45.071,5.607,50.1Zm71.35-1.058q-1.262,18.853-5.828,28.923-2.659,5.828-7.439,5.828-4.109,0-6.311-4.163-2.095-3.921-2.095-10.957a28.818,28.818,0,0,1,1.8-10.286,20.091,20.091,0,0,1,4.082-6.768,18.365,18.365,0,0,1,6.741-4.431,21.318,21.318,0,0,1,7.734-1.45q9.587,0,13.965,5.881,3.787,5.156,3.787,14.958,0,8.083-4.4,13.347-4.431,5.264-12.864,7.009l-1.907-3.3q15.066-2.874,15.066-18.1,0-8.647-4.055-12.971A11.035,11.035,0,0,0,76.957,49.041Zm-4.136.43a12.081,12.081,0,0,0-5.076,1.584,17.516,17.516,0,0,0-4.163,3.652q-4.512,5.156-4.512,14.072a18.084,18.084,0,0,0,1.611,8.352q1.289,2.417,2.954,2.417a3.222,3.222,0,0,0,2.444-1.021,10,10,0,0,0,1.746-2.981Q72.016,65.664,72.821,49.47ZM105.144,75.1c0,6.93-.132,7.722-3.63,8.25l-1.32.2a1.272,1.272,0,0,0,.132,1.65c2.706-.132,4.95-.2,7.656-.2,2.574,0,4.818.066,8.052.2.4-.2.528-1.386.132-1.65l-1.782-.2c-3.7-.4-3.828-1.32-3.828-8.25V66.586c0-2.31.132-3.168,1.122-3.168,1.584,0,2.64,1.32,6.4,5.544l5.28,5.94c2.508,2.838,4.224,4.62,5.478,6.2.462.594.924,1.122.924,1.518,0,.33-.66.528-1.584.66l-1.518.264c-.4.4-.2,1.518.264,1.65,3.036-.132,5.346-.2,8.052-.2,3.1,0,5.676.066,7.392.2a1.155,1.155,0,0,0,.132-1.65l-1.782-.2a8.228,8.228,0,0,1-5.28-2.706c-5.148-5.412-10.23-11.352-16.5-18.546-.858-1.056-1.254-1.584-1.254-2.046,0-.528.594-1.122,1.518-2.046l5.94-5.61a66.2,66.2,0,0,1,9.24-7.656,16.3,16.3,0,0,1,6.138-1.848,1.223,1.223,0,0,0-.132-1.65c-1.98.132-4.224.2-6.534.2s-4.95-.066-7.26-.2a1.1,1.1,0,0,0-.132,1.65l1.782.4c.858.2,1.122.4,1.122.66A1.949,1.949,0,0,1,128.9,45a74.51,74.51,0,0,1-5.148,5.478l-7.128,7.062c-.726.66-2.442,2.376-3.366,3.168a3.764,3.764,0,0,1-1.848.726c-.726,0-.858-1.254-.858-2.508V51.34c0-6.93.132-7.92,3.96-8.316l1.254-.132c.4-.264.264-1.452-.132-1.65-2.838.132-5.082.2-7.656.2-2.97,0-5.082-.066-8.316-.2-.4.2-.528,1.386-.132,1.65l1.65.132c3.828.33,3.96,1.386,3.96,8.316Zm56.5-7c2.772,0,3.7-.066,3.894-.462a4.078,4.078,0,0,0,.264-1.716c0-3.96-3.7-7.854-9.372-7.854-7.92,0-13.266,6.8-13.266,14.916a14.013,14.013,0,0,0,2.772,8.58,11.828,11.828,0,0,0,9.57,4.356c3.432,0,8.184-1.65,10.362-6.138a.872.872,0,0,0-1.188-.792c-2.046,2.574-3.894,3.234-6.072,3.234-7.062,0-10.956-5.676-10.956-12.342,0-1.65.066-1.782,1.782-1.782Zm-12.8-1.98c-.462,0-.462-.2-.462-.33.066-2.178,3.432-5.742,7.326-5.742,3.828,0,5.082,2.31,5.082,4.158,0,.858-.2,1.122-.4,1.254-.528.4-1.98.66-6.864.66Zm22.638,35.31c1.518,0,3.1-.594,4.224-3.1,3.234-7.194,8.646-18.678,10.824-23.1l3.7-7.59c2.244-4.686,3.432-6.6,5.61-7l1.122-.2a1.1,1.1,0,0,0-.132-1.65c-1.848.132-3.366.2-5.016.2-1.716,0-3.7-.066-5.808-.2-.528.2-.594,1.32-.132,1.65l2.046.33c1.188.2,1.584.66,1.584,1.122,0,.726-.858,3.168-2.31,6.6l-2.244,5.214A32.163,32.163,0,0,1,182.5,78.6a36.963,36.963,0,0,1-1.914-4.686L178.47,67.84a49.911,49.911,0,0,1-1.914-6.2c0-.462.528-.66,1.452-.858l1.65-.33c.462-.33.4-1.452-.132-1.65-2.112.132-3.96.2-5.742.2-2.178,0-4.158-.066-6.27-.2-.528.2-.594,1.32-.2,1.65l1.65.33c2.31.462,2.772,2.046,3.894,5.148l5.148,14.124c.858,2.442,1.122,3.234,1.122,4.554a9.992,9.992,0,0,1-.66,2.838,42.032,42.032,0,0,1-3.828,7.326,2.393,2.393,0,0,1-2.178,1.188H171.21a2.458,2.458,0,0,0-2.64,2.64A2.653,2.653,0,0,0,171.474,101.434Zm54.78-55.77c0-2.112.066-2.376,3.564-2.376,6.864,0,10.626,4.158,10.626,10.56,0,5.742-2.574,9.768-9.7,11.088-.4.132-.4,1.122.066,1.32a22.28,22.28,0,0,0,9.108-1.98,11.186,11.186,0,0,0,6.6-10.494,11.4,11.4,0,0,0-5.28-9.9c-3.1-1.914-7.194-2.64-12.672-2.64a104.058,104.058,0,0,0-13.068.528,1.1,1.1,0,0,0-.132,1.65l2.376.264c2.97.33,3.1,1.452,3.1,7.062V75.1c0,6.93-.132,7.722-3.96,8.25l-1.386.2a1.282,1.282,0,0,0,.132,1.65c2.9-.132,5.28-.2,8.052-.2,2.64,0,4.818.066,8.58.2a1.291,1.291,0,0,0,.132-1.65l-1.782-.2c-4.224-.462-4.356-1.32-4.356-8.25Zm35.178,12.408a13.869,13.869,0,0,0-14.058,14.256c0,8.25,5.94,13.6,13.53,13.6,8.25,0,13.926-5.94,13.926-14.19A13.185,13.185,0,0,0,261.432,58.072Zm7.722,14.718c0,5.082-1.782,11.154-7.59,11.154s-8.514-6.468-8.514-12.474c0-7.26,3.234-11.418,7.59-11.418C266.91,60.052,269.154,67.18,269.154,72.79Zm14.454,4.818c0,4.752-.066,5.412-2.508,5.742l-1.386.2a1.155,1.155,0,0,0,.132,1.65c1.848-.132,3.828-.2,6.2-.2,2.31,0,4.224.066,6.2.2a1.155,1.155,0,0,0,.132-1.65L291,83.35c-2.376-.33-2.508-.99-2.508-5.742V65.728c0-2.706.132-5.874.264-8.184a.61.61,0,0,0-.66-.4,45.34,45.34,0,0,1-6.8,3.234.9.9,0,0,0-.066,1.188l.594.4c1.782,1.188,1.782,1.518,1.782,4.092Zm2.178-33.792a3.431,3.431,0,0,0-3.564,3.564,3.433,3.433,0,0,0,6.864-.132A3.3,3.3,0,0,0,285.786,43.816ZM300.57,77.608c0,4.752-.066,5.412-2.508,5.742l-1.386.2a1.155,1.155,0,0,0,.132,1.65c1.848-.132,3.828-.2,6.2-.2,2.31,0,4.224.066,6.006.2a1.155,1.155,0,0,0,.132-1.65l-1.188-.2c-2.376-.4-2.508-.99-2.508-5.742V67.51c0-1.914.132-2.838.99-3.96a7.2,7.2,0,0,1,5.61-2.31c4.488,0,6.2,2.772,6.2,6.534v9.834c0,4.752-.066,5.346-2.508,5.742l-1.254.2a1.155,1.155,0,0,0,.132,1.65c1.782-.132,3.762-.2,6.138-.2,2.31,0,4.224.066,6.2.2a1.155,1.155,0,0,0,.132-1.65l-1.452-.2c-2.376-.33-2.508-.99-2.508-5.742V66.256c0-4.422-2.244-8.184-7.722-8.184-3.366,0-6.468,1.65-9.24,3.366a.692.692,0,0,1-.726-.726c0-.594,0-1.584.132-3.1a.77.77,0,0,0-.726-.462,35.963,35.963,0,0,1-6.6,3.234.9.9,0,0,0-.066,1.188l.594.4c1.782,1.188,1.782,1.518,1.782,4.092Zm47.52-15.84A2.109,2.109,0,0,0,348.024,59H340.7c-1.122,0-1.188-.066-1.188-1.254v-2.97c-.264-.462-1.056-.462-1.386-.33a16.338,16.338,0,0,1-2.772,3.894,13.1,13.1,0,0,1-4.224,2.046,1.1,1.1,0,0,0,.2,1.386h1.848c1.32,0,1.386.132,1.386,1.914V78.8c0,3.96,1.188,7.128,6.864,7.128a9.138,9.138,0,0,0,6.93-3.036c.132-.4-.132-1.122-.66-1.122-.2,0-1.056.726-1.65.924a5.039,5.039,0,0,1-1.782.33c-4.356,0-4.818-3.5-4.818-7.326V63.352c0-1.386.066-1.584,1.188-1.584Zm13.2-3.7c-5.016,0-8.976,2.706-8.976,7.524,0,3.63,2.706,5.94,6.534,8.118,2.442,1.386,5.082,3.036,5.082,6.072,0,2.838-2.046,4.224-4.422,4.224-3.762,0-5.874-3.168-7-6.8a1.121,1.121,0,0,0-1.518.066,19.623,19.623,0,0,0,.792,6.666c1.65,1.32,3.96,1.98,7.062,1.98,4.884,0,9.5-2.508,9.5-7.524,0-4.686-3.234-6.93-6.732-8.91-2.31-1.32-5.082-2.772-5.082-5.478a3.9,3.9,0,0,1,4.224-4.026c2.706,0,4.686,1.914,5.808,4.818a1.149,1.149,0,0,0,1.584-.2A15.415,15.415,0,0,0,367.1,59.26C366.5,58.732,364.062,58.072,361.29,58.072Z" transform="translate(407 6936)" fill="#3c505a"/>
      <path id="Path_171" data-name="Path 171" d="M102.9-166.144,4.72-29.736H85.432V0H102.9V-29.736h19.352V-45.784H102.9ZM35.636-45.784l49.8-69.62v69.62Z" transform="translate(258 7022)" fill="#3c505a"/>
    </g>
  </g>
</svg>
