<svg xmlns="http://www.w3.org/2000/svg" width="375" height="217.817" viewBox="0 0 375 217.817">
  <g id="Group_418" data-name="Group 418" transform="translate(7918 11917.932)">
    <path id="Path_122" data-name="Path 122" d="M300,0H675V156.741L300,189Z" transform="translate(-8218 -11889.114)" fill="#ffbe00"/>
    <g id="Point" transform="translate(-7760 -11917.932)">
      <g id="Ellipse_10" data-name="Ellipse 10" fill="#ffbe00" stroke="#3c505a" stroke-width="1">
        <circle cx="29.753" cy="29.753" r="29.753" stroke="none"/>
        <circle cx="29.753" cy="29.753" r="29.253" fill="none"/>
      </g>
      <path id="Path_238" data-name="Path 238" d="M4.865.035Q2.905-.1,1.54-.105q.385,0-5.6.105L-6.58.07A.824.824,0,0,1-7-.158q-.28-.227-.28-.368a.405.405,0,0,1,.123-.3L-7-.98l5.985-6.2A15.7,15.7,0,0,0,1.943-11.34a10.218,10.218,0,0,0,1.1-4.48,3.926,3.926,0,0,0-1.085-2.9A3.617,3.617,0,0,0-.7-19.81a4.933,4.933,0,0,0-2.643.77A5.693,5.693,0,0,0-5.32-16.975a1.033,1.033,0,0,1-.28.35.528.528,0,0,1-.315.14q-.14,0-.332-.315a1.381,1.381,0,0,1-.193-.735,3.236,3.236,0,0,1,.945-1.715,8.5,8.5,0,0,1,2.5-1.96,7,7,0,0,1,3.378-.84,5.364,5.364,0,0,1,4.1,1.593,5.84,5.84,0,0,1,1.5,4.182,7.915,7.915,0,0,1-.717,3.08A12.527,12.527,0,0,1,3.43-10.15q-.665.77-2.4,2.555t-2.5,2.59q-2.45,2.45-2.45,2.52,0,.1.14.158a1.906,1.906,0,0,0,.35.088q1.155.1,3.08.1,2.1,0,3.99-.1a6.087,6.087,0,0,0,2.118-.35,3.359,3.359,0,0,0,1.208-1.3q.49-.8.875-.8.245,0,.245.42a3.956,3.956,0,0,1-.28.91q-.6,1.82-.77,2.625-.175.84-.77.84Z" transform="translate(28.958 42.485)" fill="#3c505a"/>
      <g id="Layer_2" data-name="Layer 2" transform="translate(9.31 4.117)">
        <g id="Group_292" data-name="Group 292" transform="translate(0 0)">
          <path id="Path_153" data-name="Path 153" d="M6.949,17.292c1.1,1.052,1.258,1.161,1.971.556l.3-.254c.115-.012.272.175.242.272-.593.581-.931.913-1.33,1.336-.423.441-.768.828-1.191,1.312-.091.03-.278-.109-.284-.23l.181-.248c.5-.689.393-.828-.714-1.881L2.25,14.462c-.9-.853-1.095-1-1.6-.575l-.405.339a.243.243,0,0,1-.242-.272,22.368,22.368,0,0,1,1.9-2.159,5.2,5.2,0,0,1,2.34-1.615,2.506,2.506,0,0,1,2.377.659,2.468,2.468,0,0,1,.671,2.643,4.922,4.922,0,0,1-1.064,1.754c-.1.042-.26-.109-.218-.187a2.256,2.256,0,0,0-.3-3.229,2.14,2.14,0,0,0-3.3.091c-.532.556-.5.6-.163.925L6.943,17.3Z" transform="translate(-0.001 -3.988)" fill="#3c505a"/>
          <path id="Path_154" data-name="Path 154" d="M24.424,9.129a2.965,2.965,0,0,1-1.772,4,2.866,2.866,0,0,1-3.834-1.754,3.055,3.055,0,0,1,1.8-4.022A2.905,2.905,0,0,1,24.43,9.129ZM20.6,7.816c-.9.339-1.24,1.439-.683,2.939.466,1.24,1.518,2.358,2.715,1.911s1.095-1.838.7-2.885C22.9,8.627,21.89,7.333,20.6,7.816Z" transform="translate(-7.353 -2.821)" fill="#3c505a"/>
          <path id="Path_155" data-name="Path 155" d="M34.074,4.876c.012-.568.012-.641-.375-.907l-.127-.091c-.054-.06-.054-.218.018-.26A10.374,10.374,0,0,0,35.1,2.941a.137.137,0,0,1,.145.091c-.042.508-.085,1.2-.1,1.8L35.1,7.44c-.024,1.046,0,1.191.526,1.276l.3.048a.252.252,0,0,1-.036.363c-.435-.036-.859-.06-1.361-.073-.52-.012-.955,0-1.367.012a.252.252,0,0,1-.024-.363l.308-.036c.538-.06.556-.206.581-1.252l.054-2.54ZM35.368.764a.712.712,0,0,1-.786.738.72.72,0,0,1-.726-.744.757.757,0,0,1,.8-.768.722.722,0,0,1,.708.768Z" transform="translate(-13.072 0.01)" fill="#3c505a"/>
          <path id="Path_156" data-name="Path 156" d="M43.232,8.459c.23-.52.26-.587,0-.98l-.085-.133a.2.2,0,0,1,.121-.236,8.021,8.021,0,0,0,1.615-.06.161.161,0,0,1,.1.157c-.163.3-.248.49-.3.611a.154.154,0,0,0,.079.212,4.033,4.033,0,0,1,2.159.145,1.612,1.612,0,0,1,.822,2.334l-1.01,2.28c-.423.955-.454,1.1-.006,1.379l.272.169a.25.25,0,0,1-.175.321c-.387-.206-.768-.387-1.228-.593-.478-.212-.883-.375-1.252-.508a.259.259,0,0,1,.121-.345l.272.073c.526.139.593.024,1.016-.931l.877-1.978a1.257,1.257,0,0,0-.665-1.863,1.591,1.591,0,0,0-1.336-.036,1.216,1.216,0,0,0-.55.708l-.9,2.032c-.423.955-.448,1.089-.006,1.379l.224.145a.254.254,0,0,1-.175.321c-.345-.187-.726-.369-1.191-.575s-.883-.375-1.264-.514a.259.259,0,0,1,.121-.345l.3.085c.52.151.593.024,1.016-.931l1.028-2.322Z" transform="translate(-16.104 -2.78)" fill="#3c505a"/>
          <path id="Path_157" data-name="Path 157" d="M58.571,17.408c-.169-.181-.206-.163-.435.042l-2,1.832c-.623.568-1.119,1.161-.472,1.869a1.093,1.093,0,0,0,.321.242c.121.067.363.1.393.133.079.085,0,.236-.085.272a2,2,0,0,1-1.518-.677,1.329,1.329,0,0,1,.139-2.171l2.455-2.244c.29-.266.3-.3.1-.508l-.272-.3a.234.234,0,0,1,.194-.236,2.8,2.8,0,0,0,.962.381,3.418,3.418,0,0,0,1.04-.127c.073.036.187.163.151.272l-.484.441c-.194.175-.194.2-.024.381L60.125,18.2a.465.465,0,0,1-.441.423l-1.107-1.209Z" transform="translate(-21.452 -6.184)" fill="#3c505a"/>
        </g>
      </g>
    </g>
    <path id="Path_241" data-name="Path 241" d="M-123.945-3.09a6.724,6.724,0,0,0,2.37,2.31A7.078,7.078,0,0,0-117.555.3c4.35,0,7.35-2.85,7.35-6.99a5.321,5.321,0,0,0-1.53-3.84,4.89,4.89,0,0,0-2.7-1.47,6.417,6.417,0,0,0,3.72-1.86,6.212,6.212,0,0,0,1.59-4.23c0-3.06-2.31-5.07-5.76-5.07a6.544,6.544,0,0,0-5.28,2.28c-1.2,1.41-2.22,3.69-3.12,6.96l-3.9,14.16a22.919,22.919,0,0,1-1.14,3.33h2.76A17.388,17.388,0,0,1-124.9.33Zm2.73-10.26c1.53-5.67,3.3-7.89,6.24-7.89a3.315,3.315,0,0,1,3.63,3.33,4.763,4.763,0,0,1-1.44,3.33,5.963,5.963,0,0,1-4.32,1.44,8.134,8.134,0,0,1-1.68-.15l-.6,2.28a9.812,9.812,0,0,1,1.83-.15,5.5,5.5,0,0,1,2.88.75,3.987,3.987,0,0,1,2.13,3.72,4.853,4.853,0,0,1-5.04,5.04,6.149,6.149,0,0,1-4.44-1.86,5.805,5.805,0,0,1-1.32-1.92Zm19.29,5.7a17.713,17.713,0,0,1,2.73-.15h3.57a17.661,17.661,0,0,1,2.76.15v-2.52a17.429,17.429,0,0,1-2.76.15h-3.57a17.246,17.246,0,0,1-2.73-.15Zm12.27-15.33a18.787,18.787,0,0,1,.24,3.36V-3.75a19.161,19.161,0,0,1-.24,3.57h2.79a19.161,19.161,0,0,1-.24-3.57V-16.56c0-.78-.06-2.25-.18-3.66.42.81,1.41,2.52,1.65,2.88l9.63,14.46a20.293,20.293,0,0,1,1.56,2.7h3.27a17.153,17.153,0,0,1-.24-3.36V-19.53a18.784,18.784,0,0,1,.24-3.45h-2.79a18.993,18.993,0,0,1,.24,3.45V-6.81c0,.27.06,1.59.18,3.99-.72-1.29-1.62-2.76-1.95-3.27l-9.48-14.19a15.646,15.646,0,0,1-1.53-2.7Zm32.82,19.65a15.493,15.493,0,0,1,1.11,3.15h2.13a17,17,0,0,1,1.14-3.12l6.12-13.47a19.755,19.755,0,0,0,1.29-3.66c-.12,1.23-.21,2.85-.21,3.69V-3.72A20.065,20.065,0,0,1-45.5-.18h2.73A19.013,19.013,0,0,1-43-3.72V-19.41a20.43,20.43,0,0,1,.24-3.57h-3.45a15.22,15.22,0,0,1-1.02,2.97l-7.38,16.53-7.41-16.53a14.368,14.368,0,0,1-.99-2.97H-66.5a20.65,20.65,0,0,1,.24,3.57V-3.72A19.85,19.85,0,0,1-66.5-.18h2.73A19.013,19.013,0,0,1-64-3.72V-16.56c0-.72-.12-2.58-.21-3.87a27.658,27.658,0,0,0,1.35,3.72Zm18.75-19.65a18.787,18.787,0,0,1,.24,3.36V-3.75a19.161,19.161,0,0,1-.24,3.57h2.79a19.161,19.161,0,0,1-.24-3.57V-16.56c0-.78-.06-2.25-.18-3.66.42.81,1.41,2.52,1.65,2.88l9.63,14.46a20.292,20.292,0,0,1,1.56,2.7h3.27a17.153,17.153,0,0,1-.24-3.36V-19.53a18.783,18.783,0,0,1,.24-3.45H-22.4a18.993,18.993,0,0,1,.24,3.45V-6.81c0,.27.06,1.59.18,3.99-.72-1.29-1.62-2.76-1.95-3.27l-9.48-14.19a15.645,15.645,0,0,1-1.53-2.7Zm34.62.45h-8.85a21.032,21.032,0,0,1-3.03-.18v1.98a22.287,22.287,0,0,1,2.97-.15H7.815a22.287,22.287,0,0,1,2.97.15v-1.98a21.005,21.005,0,0,1-2.97.18h-9.36v-.6a10.432,10.432,0,0,1,.18-2.01h-2.28a10.984,10.984,0,0,1,.18,2.04Zm-6.9,7.41a21.993,21.993,0,0,1-.09,2.34,24.829,24.829,0,0,1,2.7-.12H3.315a23.242,23.242,0,0,1,2.76.12,15.177,15.177,0,0,1-.09-2.34v-1.62c0-1.02.03-1.44.09-2.31a20.439,20.439,0,0,1-2.55.12H-7.605a23.944,23.944,0,0,1-2.85-.12c.06.63.09,1.32.09,2.28Zm1.83-2.25H4.155v2.94H-8.535ZM-14.355-.66a21.622,21.622,0,0,1-.18,3.03h2.22A18.651,18.651,0,0,1-12.5-.69V-9.33H8.055V-.54c0,.6-.15.69-1.23.69a23.013,23.013,0,0,1-3.39-.27,6.027,6.027,0,0,1,.39,1.86c1.92.09,2.1.09,2.79.09,1.59,0,2.1-.09,2.58-.42.51-.33.69-.84.69-1.86V-8.4a24.405,24.405,0,0,1,.12-2.64,23.169,23.169,0,0,1-2.91.12h-18.6a27.626,27.626,0,0,1-2.97-.12,25.189,25.189,0,0,1,.12,2.7ZM3.7-5.43A17.671,17.671,0,0,1,3.8-7.47c-.78.06-1.5.09-2.64.09h-7.2c-1.11,0-1.74-.03-2.43-.09a21.529,21.529,0,0,1,.09,2.19v3A17.451,17.451,0,0,1-8.535.21h1.95V-1.44h7.62c1.05,0,1.98.03,2.76.09A18.372,18.372,0,0,1,3.7-3.48Zm-10.32-.45h8.58v2.94h-8.58Zm45.03.63a15.169,15.169,0,0,1,2.64.15V-6.84a13.949,13.949,0,0,1-2.64.15H23.2c.12-1.35.18-2.19.18-3.21v-1.62h14.85a16.9,16.9,0,0,1,2.82.15v-1.8a16.218,16.218,0,0,1-2.85.15H24.165a19.392,19.392,0,0,1-2.61-.12,23.153,23.153,0,0,1,.12,2.79c0,5.52-.87,8.73-3.06,11.19a4.7,4.7,0,0,1,1.53,1.23,14.551,14.551,0,0,0,2.88-7.32h2.85V-.09a21.538,21.538,0,0,1-3.24.45l.54,1.83c.75-.21,1.29-.33,2.94-.72,2.76-.63,3.63-.84,6.21-1.62l-.12-1.56c-2.34.72-3.06.9-4.59,1.26v-4.8h2.64A11.25,11.25,0,0,0,33.5-1.17a17.1,17.1,0,0,0,7.17,3.33,6.825,6.825,0,0,1,.9-1.74,14.772,14.772,0,0,1-5.49-1.77,24.308,24.308,0,0,0,3.57-2.58l-1.32-.99a14.748,14.748,0,0,1-3.54,2.76,7.935,7.935,0,0,1-2.73-3.09ZM34.275-22.8v-.18a9.19,9.19,0,0,1,.15-1.95h-1.89a9.776,9.776,0,0,1,.12,1.92v.21h-3.42v-.21a9.776,9.776,0,0,1,.12-1.92h-1.89a8.531,8.531,0,0,1,.15,1.95v.18h-2.34a23.153,23.153,0,0,1-2.79-.12,19.036,19.036,0,0,1,.12,2.52v3.24a18.4,18.4,0,0,1-.12,2.55c.78-.06,1.59-.09,2.64-.09h11.76c1.2,0,1.95.03,2.79.09a20.564,20.564,0,0,1-.12-2.61v-3.21a18.54,18.54,0,0,1,.12-2.49,22.526,22.526,0,0,1-2.79.12Zm-6.6,1.35v2.01h-3.42v-2.01Zm1.56,0h3.42v2.01h-3.42Zm4.98,0h3.66v2.01h-3.66Zm-6.54,3.33v2.1h-3.42v-2.1Zm1.56,0h3.42v2.1h-3.42Zm4.98,0h3.66v2.1h-3.66Zm-18.9-5.25a21.19,21.19,0,0,1,4.5,4.11l1.35-1.38a24.186,24.186,0,0,0-4.56-3.99Zm-1.23,7.38a20.8,20.8,0,0,1,4.83,3.84l1.17-1.5a24.742,24.742,0,0,0-4.86-3.69Zm4.44,7.23c-1.38,4.17-3,7.35-4.44,8.79L15.8,1.56c.12-.24.21-.39,1.02-1.83a34.889,34.889,0,0,0,3.15-7.26Zm20.73-1.2a16.042,16.042,0,0,1-2.28.12h-9.66a15.775,15.775,0,0,1-2.28-.12v1.65a16.591,16.591,0,0,1,2.28-.12h9.63a17.639,17.639,0,0,1,2.31.12Zm14.91-6v2.94a17.637,17.637,0,0,1-.09,1.8,17.693,17.693,0,0,1,2.16-.06h6.69a15.874,15.874,0,0,1,1.95.06,16.013,16.013,0,0,1-.09-1.8v-2.94h3.6a15.7,15.7,0,0,1,2.73.15v-1.92a15.7,15.7,0,0,1-2.73.15h-3.6v-.45a11.954,11.954,0,0,1,.12-2.01h-2.07a17.971,17.971,0,0,1,.12,1.98v.48h-6.96v-.51a13.083,13.083,0,0,1,.12-1.95h-2.07a12.251,12.251,0,0,1,.12,1.98v.48h-5.46l.03-3.21h19.2a22.229,22.229,0,0,1,3.12.15v-1.98a21.053,21.053,0,0,1-3.27.18h-8.22v-.87a11.449,11.449,0,0,1,.15-1.95h-2.22a9.8,9.8,0,0,1,.18,1.95v.87h-7.89c-1.17,0-2.13-.06-3.09-.15a34.319,34.319,0,0,1,.12,3.66c0,6.75-.27,10.89-.9,13.86A15.906,15.906,0,0,1,43.785.36a6.065,6.065,0,0,1,1.59,1.47c2.46-4.53,3.12-8.07,3.33-17.79Zm1.83,0h6.96v3.15h-6.96Zm10.29,6.93a18.632,18.632,0,0,1-2.07.09H53.325a18.012,18.012,0,0,1-3.03-.15v1.86a18.757,18.757,0,0,1,2.97-.15A18.484,18.484,0,0,0,58.1-2.34,30.521,30.521,0,0,1,48.015.39a5.969,5.969,0,0,1,.84,1.86,32.5,32.5,0,0,0,10.89-3.54,27.856,27.856,0,0,0,10.62,3.42,7.424,7.424,0,0,1,.9-1.98,26.559,26.559,0,0,1-9.78-2.49,27.1,27.1,0,0,0,4.86-4.38c.51-.6.66-.75,1.02-1.14Zm-1.71,1.65a19.992,19.992,0,0,1-4.8,4.08,13.262,13.262,0,0,1-4.41-4.08Zm14.61-14.85v3.48h-.72a26.825,26.825,0,0,1-3-.12,28.844,28.844,0,0,1,.12,3.03V-1.47a22.861,22.861,0,0,1-.21,3.72h1.92V.3h8.22V1.62h1.86a27.839,27.839,0,0,1-.15-3.09V-15.93a27.741,27.741,0,0,1,.12-2.94,30.768,30.768,0,0,1-3.21.12h-.45v-3.48h1.38a26.859,26.859,0,0,1,3,.15v-1.98a22.719,22.719,0,0,1-3.12.18h-7.23a21.622,21.622,0,0,1-3.03-.18v2.01a20.71,20.71,0,0,1,2.97-.18Zm1.47,0h1.56v3.48h-1.56Zm-1.47,4.98a23.922,23.922,0,0,1-.36,4.53,8.744,8.744,0,0,1-1.5,3.75,5.284,5.284,0,0,1,1.11,1.2c1.65-2.49,2.16-4.62,2.22-9.48h1.56v6.3c0,1.14.36,1.35,2.25,1.35.12,0,.27,0,1.05-.03v3.39h-8.22V-17.25Zm4.5,0h1.83v6.12c-.45,0-.69.03-.75.03-.96,0-1.11-.06-1.11-.48ZM77.295-4.71h8.22v3.39h-8.22Zm22.62-16.35c0-1.65.03-2.19.09-2.94a25.267,25.267,0,0,1-2.85.12h-5.01a21.95,21.95,0,0,1-3.09-.18v2.1a19.825,19.825,0,0,1,3.06-.15h5.91v7.44h-5.61a27.5,27.5,0,0,1-2.91-.12,18.838,18.838,0,0,1,.15,2.91V-1.05c0,2.13.78,2.52,5.04,2.52,5.91,0,6.21-.3,6.69-6.39a5.392,5.392,0,0,1-1.95-.9,13.954,13.954,0,0,1-.6,4.74c-.3.57-1.2.75-3.87.75a8.314,8.314,0,0,1-3.15-.3c-.21-.12-.27-.3-.27-.81V-12.9h5.58a26.087,26.087,0,0,1,2.91.12,23.152,23.152,0,0,1-.12-2.79Zm16.62-3.81a21.825,21.825,0,0,1-4.62,5.22,31.29,31.29,0,0,1-8.16,5.22,5.215,5.215,0,0,1,1.26,1.71,34.687,34.687,0,0,0,6.36-3.9,27.952,27.952,0,0,0,6.3-6.57,25.2,25.2,0,0,0,4.62,5.04,41.935,41.935,0,0,0,8.46,5.52,7.765,7.765,0,0,1,1.2-1.89,31.459,31.459,0,0,1-8.22-4.92,20.609,20.609,0,0,1-4.95-5.43Zm-5.85,11.16a17.253,17.253,0,0,1,2.34-.12h9.33a18.467,18.467,0,0,1,2.52.12v-2.04a17.914,17.914,0,0,1-2.52.12h-9.3a15.333,15.333,0,0,1-2.37-.12Zm-.21,15.66V.21h14.49V1.95h2.16a20.851,20.851,0,0,1-.18-2.94V-7.62a18.133,18.133,0,0,1,.15-2.76,15.9,15.9,0,0,1-2.34.12h-14.07a15.9,15.9,0,0,1-2.34-.12,18.868,18.868,0,0,1,.15,2.76V-.99a21.776,21.776,0,0,1-.18,2.94Zm0-10.38h14.49v6.87h-14.49Z" transform="translate(-7730 -11752.868)" fill="#3c505a"/>
    <path id="Path_240" data-name="Path 240" d="M-42.64-6.544a11.064,11.064,0,0,1,1.616.1V-7.584a10.333,10.333,0,0,1-1.616.1h-6.624l.848-1.792c.144-.32.144-.32.256-.544l-1.152-.256a10.3,10.3,0,0,1-1.072,2.592h-2.848a8.67,8.67,0,0,1-1.616-.1v1.136a11.373,11.373,0,0,1,1.616-.1H-50.9a20.5,20.5,0,0,1-2.08,3.024,32.842,32.842,0,0,1,4.352,1.328,9.967,9.967,0,0,1-1.76.992A18.147,18.147,0,0,1-54.88.1,3.556,3.556,0,0,1-54.288,1.1,18.313,18.313,0,0,0-52.1.544,19.286,19.286,0,0,0-49.168-.672a8.734,8.734,0,0,0,1.616-1.1,32.655,32.655,0,0,1,5.408,2.784L-41.376.1A44.665,44.665,0,0,0-46.8-2.48a9.782,9.782,0,0,0,2.352-4.064Zm-2.912,0a7.726,7.726,0,0,1-1.072,2.272,8.131,8.131,0,0,1-1.184,1.408A33.667,33.667,0,0,0-51.376-4,24.455,24.455,0,0,0-49.76-6.544Zm-3.136-4.992H-52.96a14.3,14.3,0,0,1-1.712-.08,9.7,9.7,0,0,1,.08,1.216v.912a8.385,8.385,0,0,1-.08,1.12H-53.6v-2.24h11.184v2.24h1.072a6.256,6.256,0,0,1-.08-1.12V-10.4a7.046,7.046,0,0,1,.08-1.216,14.578,14.578,0,0,1-1.728.08h-4.576v-.4a7.666,7.666,0,0,1,.1-1.328h-1.232a8.2,8.2,0,0,1,.1,1.328ZM-32.416-.88a5.377,5.377,0,0,1-1.728-.976,4.893,4.893,0,0,1-1.264-1.76c.112-.384.352-1.312.432-1.7l.192-.832-1.12-.224v.16A10.119,10.119,0,0,1-36.88-2.56,8.516,8.516,0,0,1-39.04.288a2.969,2.969,0,0,1,.832.752,10.822,10.822,0,0,0,2.432-3.632C-34.928-.9-33.36.064-30.864.416a21.687,21.687,0,0,0,3.5.128c.432,0,.544,0,1.936-.032a2.963,2.963,0,0,1,.352-1.12c-1.344.112-2.448.16-3.744.16a14.342,14.342,0,0,1-2.608-.176V-4.176h3.088a8.545,8.545,0,0,1,1.536.1V-5.168a9.616,9.616,0,0,1-1.536.1h-3.088V-7.68h2.8a10.442,10.442,0,0,1,1.584.1v-1.1a10.3,10.3,0,0,1-1.584.1h-6.624a10.3,10.3,0,0,1-1.584-.1v1.1a10.891,10.891,0,0,1,1.584-.1h2.832Zm-.24-10.56h-4.336c-.64,0-1.1-.016-1.616-.064a7.235,7.235,0,0,1,.064,1.088v1.008a7.647,7.647,0,0,1-.064,1.136h1.056v-2.24h11.168v2.24h1.04a7.647,7.647,0,0,1-.064-1.136v-1.008a7.235,7.235,0,0,1,.064-1.088c-.512.048-.976.064-1.6.064h-4.672v-.784a4.194,4.194,0,0,1,.112-.992h-1.248a5.505,5.505,0,0,1,.1,1.008Zm17.44,5.712a25.541,25.541,0,0,0,5.04-3.5c.752-.688.752-.688.976-.88l-.928-.848a11.274,11.274,0,0,1-2.288,2.224,21.735,21.735,0,0,1-2.8,1.84v-4.528a12.484,12.484,0,0,1,.1-1.728h-1.248a15.161,15.161,0,0,1,.1,1.728V-.816c0,1.248.416,1.44,3.088,1.44C-10.784.624-10,.48-9.6-.048a7.3,7.3,0,0,0,.752-3.136A3.652,3.652,0,0,1-9.9-3.68a7.048,7.048,0,0,1-.544,2.928c-.24.288-.848.384-2.672.384-1.856,0-2.1-.08-2.1-.64ZM-20.608-.8a18.982,18.982,0,0,1-.112,1.984h1.248c-.064-.656-.1-1.312-.1-1.936V-9.136c.592-1.328,1.136-2.608,1.28-2.976.272-.736.272-.736.336-.9l-1.184-.336a7.119,7.119,0,0,1-.544,1.92A14.975,14.975,0,0,1-23.3-6.032a5.815,5.815,0,0,1,.688.928,12.882,12.882,0,0,0,2.032-2.688c-.032.848-.032,1.056-.032,1.952Zm18.16-9.968a22.388,22.388,0,0,1-3.424-.176l-.016,1.1a2.837,2.837,0,0,1,.352-.016h.256c.592.016,2.1.048,2.352.048a1.772,1.772,0,0,0,.3-.032l-.144.24A15.921,15.921,0,0,1-6.352-5.024l.9.9A5.294,5.294,0,0,1-4.224-5.456a6.011,6.011,0,0,1,3.568-1.7C.1-7.152.48-6.768.608-5.888a12.42,12.42,0,0,0-2.384,1.28A3.308,3.308,0,0,0-3.408-2.08C-3.408-.432-2.016.384.848.384A24.822,24.822,0,0,0,4.736.064a6.3,6.3,0,0,1,.64-.08L5.232-1.248A13.406,13.406,0,0,1,.96-.624c-2.256,0-3.248-.464-3.248-1.52,0-.96.832-1.712,3.008-2.736a4.2,4.2,0,0,1,.016.48,23.01,23.01,0,0,1-.1,2.3l1.088-.016A3.478,3.478,0,0,1,1.7-2.688c0-.144,0-.368.016-.72.016-.32.016-.672.016-.88,0-.4,0-.56-.032-.976A26.565,26.565,0,0,1,5.968-6.672l-.512-1.12a3.52,3.52,0,0,1-1.088.464c-.7.256-1.616.592-2.784,1.056A1.942,1.942,0,0,0-.528-8.048a4.258,4.258,0,0,0-2.416.784c-.16.112-.16.112-.736.56a.123.123,0,0,1-.032-.048v-.016A.016.016,0,0,0-3.7-6.784c.016-.016.1-.08.208-.16.064-.048.384-.416.544-.608A11.8,11.8,0,0,0-1.5-9.824a51.662,51.662,0,0,0,5.28-.416,4.988,4.988,0,0,1,.64-.08l-.1-1.088A22.519,22.519,0,0,1-.72-10.8a2.724,2.724,0,0,0-.336.016c.08-.144.288-.576.5-1.088a3.4,3.4,0,0,1,.416-.864l-1.28-.224a6.79,6.79,0,0,1-.768,2.192ZM16.64-6.432v-.9a6.386,6.386,0,0,1,.1-1.3H15.648a10.407,10.407,0,0,1,.064,1.312v1.168l-.112.032a8.43,8.43,0,0,1-1.12.272l.208,1.056A9.052,9.052,0,0,1,15.712-5.2V-.592c0,1.184.512,1.376,3.664,1.376,3.392,0,3.52-.1,3.792-2.976a3.08,3.08,0,0,1-.992-.4A4.685,4.685,0,0,1,21.84-.416c-.176.208-.736.272-2.416.272-2.608,0-2.784-.048-2.784-.7v-4.64l1.824-.592v2.656A9.849,9.849,0,0,1,18.4-2.08h1.04a7.289,7.289,0,0,1-.08-1.344V-6.368l2.128-.688A24.759,24.759,0,0,1,21.312-3.9c-.048.336-.176.48-.464.48a7.884,7.884,0,0,1-1.04-.128,3.864,3.864,0,0,1,.224.944c.352.032.688.048.88.048.592,0,.912-.112,1.072-.384.24-.432.336-1.344.416-3.824.016-.336.016-.528.064-1.552a11.4,11.4,0,0,1-1.312.48l-1.792.56v-.944a7.526,7.526,0,0,1,.1-1.3H18.384a10.374,10.374,0,0,1,.08,1.328v1.184ZM11.376-10.72H10.112a8.351,8.351,0,0,1-1.392-.1v1.072a7.5,7.5,0,0,1,1.344-.08h.464A48.345,48.345,0,0,1,10.3-4.96,8.932,8.932,0,0,1,8.352.192a3.308,3.308,0,0,1,.752.8,10.021,10.021,0,0,0,1.808-3.808,20.18,20.18,0,0,0,.48-3.936H13.2a40.006,40.006,0,0,1-.272,5.36C12.768-.3,12.672-.16,12.112-.16a4.919,4.919,0,0,1-1.3-.176A3.771,3.771,0,0,1,11.008.7c.432.032.88.064,1.088.064a1.987,1.987,0,0,0,1.152-.24c.256-.192.432-.688.576-1.568a46.719,46.719,0,0,0,.3-5.664c0-.4.016-.688.032-.992a7.023,7.023,0,0,1-1.12.064H11.424c.032-1.28.032-1.28.064-2.192h1.968a10.577,10.577,0,0,1,1.424.064V-10.8a9.13,9.13,0,0,1-1.424.08H12.368v-1.056a8.005,8.005,0,0,1,.1-1.472H11.28a9.868,9.868,0,0,1,.1,1.472Zm10.048.576a16.115,16.115,0,0,1,1.632.064v-1.072a10.284,10.284,0,0,1-1.632.1H16.832c.208-.464.3-.672.576-1.328a3.6,3.6,0,0,1,.288-.672l-1.072-.256a4.553,4.553,0,0,1-.224.8A12.031,12.031,0,0,1,13.872-8.16a1.973,1.973,0,0,1,.768.64,17.506,17.506,0,0,0,1.728-2.624Zm6.288-2.336a4.921,4.921,0,0,1,.064.848c0,.256,0,.56-.016,1.04-.128,5.04-.144,5.44-.144,6.512,0,1.68.224,2.528.88,3.28A3.794,3.794,0,0,0,31.5.32a5.6,5.6,0,0,0,4.512-2,9.733,9.733,0,0,0,1.776-3.632A4.526,4.526,0,0,1,36.64-6.08a9.5,9.5,0,0,1-.784,2.512A4.6,4.6,0,0,1,31.568-.784a3.02,3.02,0,0,1-2-.624,2.519,2.519,0,0,1-.752-1.92c-.016-.368-.032-.768-.032-.96,0-.72.048-2.9.112-4.816A24.669,24.669,0,0,1,29.1-12.48ZM41.776-8.928a2.382,2.382,0,0,1,.272-.016h.064c.624.032.768.032,1.328.032.592,0,.784,0,1.1-.016A32.179,32.179,0,0,1,41.536-.08l1.168.5a42.16,42.16,0,0,0,1.84-4.88c.432-1.456.88-3.264,1.12-4.528a23.387,23.387,0,0,0,2.7-.384c.32-.064.32-.064.448-.08l-.08-1.1a13.193,13.193,0,0,1-2.88.544c.08-.48.128-.7.208-1.216a15.128,15.128,0,0,1,.288-1.52l-1.264-.128a15.646,15.646,0,0,1-.352,2.944c-.464.032-.64.032-.96.032a11.034,11.034,0,0,1-2-.144Zm12.08.784c-1.2-.048-1.44-.048-1.744-.048a18.127,18.127,0,0,0-4.24.528l.112,1.088a13.926,13.926,0,0,1,4-.544,16.064,16.064,0,0,1,1.888.112ZM48.032-4.688C47.184-3.6,46.96-3.1,46.96-2.384c0,1.584,1.36,2.4,3.984,2.4a16.033,16.033,0,0,0,2.848-.272c.528-.08.528-.08.7-.112l-.112-1.2a11.888,11.888,0,0,1-3.536.544c-1.824,0-2.8-.512-2.8-1.472a1.926,1.926,0,0,1,.4-1.136,5.362,5.362,0,0,1,.48-.608Z" transform="translate(-7730 -11798.868)" fill="#3c505a"/>
    <path id="Path_239" data-name="Path 239" d="M5-5.9a.755.755,0,0,0,.75-.75A.755.755,0,0,0,5-7.4a.755.755,0,0,0-.75.75A.755.755,0,0,0,5-5.9ZM5-4.09,1.7-7.39l-.29.29,3.3,3.3L1.4-.49l.29.29L5-3.51,8.3-.21,8.59-.5,5.29-3.8l3.3-3.3L8.3-7.39ZM2.9-3.8a.755.755,0,0,0-.75-.75.755.755,0,0,0-.75.75.755.755,0,0,0,.75.75A.755.755,0,0,0,2.9-3.8Zm4.2,0a.755.755,0,0,0,.75.75A.755.755,0,0,0,8.6-3.8a.755.755,0,0,0-.75-.75A.755.755,0,0,0,7.1-3.8ZM5-1.7a.755.755,0,0,0-.75.75A.755.755,0,0,0,5-.2a.755.755,0,0,0,.75-.75A.755.755,0,0,0,5-1.7ZM10.44,0h4.61V-.79H13.02c-.37,0-.82.04-1.2.07,1.72-1.63,2.87-3.12,2.87-4.58a2.011,2.011,0,0,0-2.13-2.17A2.8,2.8,0,0,0,10.4-6.39l.53.52a2.053,2.053,0,0,1,1.52-.85A1.289,1.289,0,0,1,13.8-5.27c0,1.26-1.06,2.72-3.36,4.73Z" transform="translate(-7754 -11782.868)" fill="#3c505a"/>
    <g id="Group_210" data-name="Group 210" transform="translate(-7853 -11848.561)">
      <g id="Group_174" data-name="Group 174" transform="translate(181.509)">
        <g id="Union_2" data-name="Union 2" fill="#3c505a">
          <path d="M 62.74691772460938 22.7041015625 L 2.745298862457275 22.7041015625 L 2.745298862457275 13.84717082977295 L 2.745298862457275 13.62721061706543 L 2.58315896987915 13.478590965271 L 0.7399134039878845 11.7890157699585 L 2.58319878578186 10.0990104675293 L 2.745298862457275 9.950390815734863 L 2.745298862457275 9.730470657348633 L 2.745298862457275 0.5000007748603821 L 62.74691772460938 0.5000007748603821 L 62.74691772460938 22.7041015625 Z" stroke="none"/>
          <path d="M 62.24691772460938 22.2041015625 L 62.24691772460938 1.000000834465027 L 3.245298862457275 1.000000834465027 L 3.245298862457275 10.17031097412109 L 1.479833841323853 11.78897571563721 L 3.245298862457275 13.40726089477539 L 3.245298862457275 22.2041015625 L 62.24691772460938 22.2041015625 M 63.24691772460938 23.2041015625 L 2.245298862457275 23.2041015625 L 2.245298862457275 13.84717082977295 L -1.137695335273747e-06 11.78906059265137 L 2.245298862457275 9.730470657348633 L 2.245298862457275 7.81249980263965e-07 L 63.24691772460938 7.81249980263965e-07 L 63.24691772460938 23.2041015625 Z" stroke="none" fill="#3c505a"/>
        </g>
        <path id="Path_243" data-name="Path 243" d="M-19.229-7.994v2.982h-2.814a8.253,8.253,0,0,1-1.358-.07v.966a9.065,9.065,0,0,1,1.4-.07h2.772v3.64h-4.06A11.148,11.148,0,0,1-24.815-.63V.392a10.3,10.3,0,0,1,1.54-.1h9.394a10.555,10.555,0,0,1,1.512.1V-.63a11.354,11.354,0,0,1-1.512.084h-4.368v-3.64H-15.2a8.572,8.572,0,0,1,1.358.07v-.966a8.465,8.465,0,0,1-1.358.07h-3.052V-7.994H-14.5a9.764,9.764,0,0,1,1.47.07V-8.9a10.4,10.4,0,0,1-1.47.084h-8.3a10.131,10.131,0,0,1-1.47-.084v.98a9.1,9.1,0,0,1,1.47-.07Zm-1.61-3.052A13.327,13.327,0,0,1-17.451-9.24l.574-.756a15.838,15.838,0,0,0-3.346-1.736ZM-.329-7.392a10.78,10.78,0,0,1-1.722,3.85,16.444,16.444,0,0,1-.924-5.04H-.021a11.548,11.548,0,0,1,1.568.07v-.952a7.619,7.619,0,0,1-1.5.084H-3c-.028-.658-.028-.868-.028-1.12a6.042,6.042,0,0,1,.07-1.148H-4.039A13.553,13.553,0,0,1-3.9-9.38h-4.13a14.828,14.828,0,0,1-1.708-.07,9.182,9.182,0,0,1,.084,1.638,26.628,26.628,0,0,1-.462,5.88,5.729,5.729,0,0,1-.98,2.1,2.582,2.582,0,0,1,.742.63,6.6,6.6,0,0,0,1.064-2.45,19.515,19.515,0,0,0,.448-3.864h2.8a20.954,20.954,0,0,1-.182,2.744c-.1.616-.21.742-.672.742a7.269,7.269,0,0,1-1.652-.224,3.271,3.271,0,0,1,.168.91,8.329,8.329,0,0,0,1.47.126c.784,0,1.092-.126,1.3-.56a10.414,10.414,0,0,0,.42-3.01,13.65,13.65,0,0,1,.1-1.568,6.912,6.912,0,0,1-1.05.056H-8.813c.014-.588.028-1.064.028-2.282h4.928a17.772,17.772,0,0,0,1.19,5.824A10.14,10.14,0,0,1-6.825.14a2.384,2.384,0,0,1,.686.714A11.905,11.905,0,0,0-2.261-1.932,6.811,6.811,0,0,0-1.1-.364,2.555,2.555,0,0,0,.371.5c.364,0,.644-.224.868-.672a5.871,5.871,0,0,0,.5-1.708,3.848,3.848,0,0,1-.756-.616C.819-1.2.581-.476.357-.476A1.325,1.325,0,0,1-.245-.8,5.011,5.011,0,0,1-1.659-2.66,12.813,12.813,0,0,0,.2-6.076c.238-.56.378-.868.42-.938Zm.77-2.8a10.963,10.963,0,0,0-2-1.386l-.6.49A9.261,9.261,0,0,1-.147-9.6ZM7.889-5.768a6.779,6.779,0,0,1-.756,2.884A7.133,7.133,0,0,1,3.605.182a2.926,2.926,0,0,1,.616.784A8.216,8.216,0,0,0,7.749-2.086,7.973,7.973,0,0,0,8.841-5.768H12.1a19.928,19.928,0,0,1-.462,5.18c-.1.266-.252.35-.7.35A10.786,10.786,0,0,1,8.967-.476a3.881,3.881,0,0,1,.224.994C10.073.6,10.563.63,11.025.63c.812,0,1.148-.14,1.386-.56.364-.658.63-3.024.63-5.74a6.185,6.185,0,0,1,.056-.994,10.593,10.593,0,0,1-1.47.07H7.021a10.746,10.746,0,0,1-1.456-.084v.994a11.274,11.274,0,0,1,1.442-.084Zm-.574-5.81a4.5,4.5,0,0,1-.6,1.47,11.536,11.536,0,0,1-3.836,4.1,3.082,3.082,0,0,1,.686.756,13.9,13.9,0,0,0,4.41-5.25,3.82,3.82,0,0,1,.392-.714Zm3.108.392c.07.112.154.266.224.392a14.183,14.183,0,0,0,4.718,5.628,3.453,3.453,0,0,1,.658-.854,11.676,11.676,0,0,1-4.13-4.354,5.668,5.668,0,0,1-.532-1.176Zm12.6,11.1A15.744,15.744,0,0,1,24.745,0V-1.176a12.222,12.222,0,0,1-1.708.1H18.571a3.923,3.923,0,0,1,.8-1.624,7.623,7.623,0,0,1,2.016-1.722,11.036,11.036,0,0,0,2.38-1.806,2.922,2.922,0,0,0,.826-1.988c0-1.652-1.358-2.716-3.472-2.716a3.579,3.579,0,0,0-2.814,1.078,3.807,3.807,0,0,0-.882,2.016l1.176.2a2.833,2.833,0,0,1,.49-1.414,2.315,2.315,0,0,1,2.03-.91c1.428,0,2.324.686,2.324,1.75,0,.854-.462,1.47-1.848,2.408a19.007,19.007,0,0,0-2.142,1.54,6.145,6.145,0,0,0-1.82,2.408,6.428,6.428,0,0,0-.406,1.848,10.027,10.027,0,0,1,1.54-.07Z" transform="translate(31.614 16.62)" fill="ivory"/>
      </g>
      <g id="Group_173" data-name="Group 173">
        <path id="Path_242" data-name="Path 242" d="M-81.382-8.806h-.812a6.307,6.307,0,0,1-1.064-.084v.924a8.119,8.119,0,0,1,1.036-.056h.84V-4.9a8.016,8.016,0,0,1-2,.588l.266.966a7.7,7.7,0,0,1,.784-.322c.35-.126.686-.252.952-.35V-.224c0,.252-.126.336-.476.336a7.073,7.073,0,0,1-1.078-.1A3.091,3.091,0,0,1-82.754.9a5.894,5.894,0,0,0,.644.028c1.274,0,1.61-.21,1.61-.994V-4.382c.742-.308.91-.392,1.512-.672l.014-.868a12.449,12.449,0,0,1-1.526.686V-8.022h.406a6.019,6.019,0,0,1,.938.056v-.91a4.318,4.318,0,0,1-.952.07H-80.5v-1.4a8,8,0,0,1,.1-1.4H-81.48a8.243,8.243,0,0,1,.1,1.428Zm5.656-.616H-77.49a10,10,0,0,1-1.47-.084v.966c.42-.042.924-.07,1.442-.07h5.264c.56,0,1.05.028,1.47.07v-.966a10.131,10.131,0,0,1-1.47.084h-2.59v-1.05a6.518,6.518,0,0,1,.07-1.106H-75.8a7.212,7.212,0,0,1,.07,1.092Zm1.68,2.968V-.112c0,.644.322.826,1.484.826,1.68,0,1.834-.238,2.016-3.066a3.619,3.619,0,0,1-.84-.336,10.165,10.165,0,0,1-.2,2.24c-.1.28-.238.336-.868.336-.588,0-.714-.056-.714-.308V-6.09a8.659,8.659,0,0,1,.056-1.218,9.048,9.048,0,0,1-1.288.056H-76.37a9.706,9.706,0,0,1-1.288-.056A8.948,8.948,0,0,1-77.6-6.1c0,3.78-.56,5.236-2.464,6.426a3.019,3.019,0,0,1,.7.7,5.315,5.315,0,0,0,1.834-2.058c.574-1.19.77-2.492.812-5.418Zm10.808.392a25.61,25.61,0,0,1-6.16,3,3.058,3.058,0,0,1,.574.8,33.088,33.088,0,0,0,3.052-1.358V-.658c0,.63.126.9.518,1.064A7.406,7.406,0,0,0-62.384.7c4.074,0,4.158-.042,4.41-2.7a2.438,2.438,0,0,1-.882-.42A3.871,3.871,0,0,1-59.192-.5c-.224.28-.9.364-2.716.364a17.951,17.951,0,0,1-2.254-.084c-.56-.084-.714-.21-.714-.574v-1.19a33.586,33.586,0,0,0,3.752-1.148c.882-.322,1.372-.532,1.96-.8A1.212,1.212,0,0,0-59-4c.126-.056.126-.056.2-.084l-.714-.77a5.641,5.641,0,0,1-1.316.686A28.907,28.907,0,0,1-64.876-2.8V-4.116a29.853,29.853,0,0,0,3-1.946h3.458a12.04,12.04,0,0,1,1.526.084v-.98a9.655,9.655,0,0,1-1.5.084h-2.45a21.266,21.266,0,0,0,2.7-2.674c.322-.392.378-.462.588-.686l-.9-.56a13.415,13.415,0,0,1-3.64,3.92h-1.05V-8.862h1.554a10.209,10.209,0,0,1,1.484.07v-.952a9.616,9.616,0,0,1-1.512.084H-63.14v-.574a8.252,8.252,0,0,1,.084-1.358H-64.12a7.032,7.032,0,0,1,.084,1.344v.588H-66.4a9.547,9.547,0,0,1-1.54-.084v.952a10.969,10.969,0,0,1,1.54-.07h2.366v1.988h-3.5A10.211,10.211,0,0,1-69.1-6.958v.98a12.6,12.6,0,0,1,1.568-.084Zm14.924,1.05A22.349,22.349,0,0,0-43.9-8.078c.658-.6.658-.6.854-.77l-.812-.742a9.865,9.865,0,0,1-2,1.946,19.018,19.018,0,0,1-2.45,1.61V-10a10.924,10.924,0,0,1,.084-1.512h-1.092A13.266,13.266,0,0,1-49.238-10V-.714c0,1.092.364,1.26,2.7,1.26,2.1,0,2.786-.126,3.136-.588a6.386,6.386,0,0,0,.658-2.744,3.2,3.2,0,0,1-.924-.434,6.167,6.167,0,0,1-.476,2.562c-.21.252-.742.336-2.338.336-1.624,0-1.834-.07-1.834-.56ZM-53.032-.7a16.609,16.609,0,0,1-.1,1.736h1.092c-.056-.574-.084-1.148-.084-1.694V-7.994c.518-1.162.994-2.282,1.12-2.6.238-.644.238-.644.294-.784l-1.036-.294A6.229,6.229,0,0,1-52.22-10a13.1,13.1,0,0,1-3.164,4.718,5.088,5.088,0,0,1,.6.812A11.272,11.272,0,0,0-53-6.818c-.028.742-.028.924-.028,1.708Zm13.706-9.548a9.793,9.793,0,0,1-.476,2.2,9.522,9.522,0,0,1-1.932,3.556,2.334,2.334,0,0,1,.5.84,6.406,6.406,0,0,0,1.05-1.708c-.028.63-.042,1.064-.042,1.568V-.686A8.489,8.489,0,0,1-40.306.672h.924V-.812h1.736v.7h.882a9.158,9.158,0,0,1-.056-1.176V-5.614a10.333,10.333,0,0,1,.042-1.12,6.4,6.4,0,0,1-.868.042H-39.4a13.71,13.71,0,0,0,.966-3.556h.868a9.157,9.157,0,0,1,1.134.056v-.924a5.465,5.465,0,0,1-1.176.084h-2.282a7.51,7.51,0,0,1-1.26-.084v.952a5.992,5.992,0,0,1,1.2-.084Zm-.056,4.3h1.736v4.382h-1.736Zm4.984-4.3V-6.37h-.42A9.084,9.084,0,0,1-36.2-6.44v.98a7.8,7.8,0,0,1,1.386-.084h.392C-34.552-2.66-35.21-.91-36.68.49a2.541,2.541,0,0,1,.812.63c1.6-1.848,2.2-3.542,2.338-6.664h2.31V-.518a10.492,10.492,0,0,1-.1,1.5h1.078a10.629,10.629,0,0,1-.1-1.5V-5.544h.448a9.087,9.087,0,0,1,1.4.084v-.994a7.42,7.42,0,0,1-1.4.084h-.448v-3.878H-30a7.37,7.37,0,0,1,1.358.084v-.966a9.342,9.342,0,0,1-1.4.084h-4.424a8.563,8.563,0,0,1-1.414-.084v.966a9.116,9.116,0,0,1,1.358-.084Zm.9,0h2.282V-6.37H-33.5v-3.878Zm11.928.1h-3.878a11.809,11.809,0,0,1-1.414-.07,6.292,6.292,0,0,1,.056.966v.7a6.732,6.732,0,0,1-.056.98h.924V-9.352h2.982A2.648,2.648,0,0,1-23.814-7.5a5.065,5.065,0,0,1-2.8,1.12,3.826,3.826,0,0,1,.532.77,12.978,12.978,0,0,0,1.3-.406A3.941,3.941,0,0,0-22.568-7.8a3.835,3.835,0,0,0,.49-1.554h1.722v2.408c0,.616.35.77,1.82.77a3.172,3.172,0,0,0,1.806-.308c.238-.21.35-.6.42-1.484a2.914,2.914,0,0,1-.84-.266c-.014.644-.084,1.022-.238,1.134a2.587,2.587,0,0,1-1.134.154,2.739,2.739,0,0,1-.9-.1c-.07-.042-.1-.112-.1-.28v-2.03h3.486V-7.56h.924a6.49,6.49,0,0,1-.056-.98v-.714a6.292,6.292,0,0,1,.056-.966,11.809,11.809,0,0,1-1.414.07h-4.158v-.434a4.085,4.085,0,0,1,.1-1.008h-1.092a4.315,4.315,0,0,1,.1,1.008Zm.028,5.488c.056-.35.084-.7.112-1.036a4.247,4.247,0,0,1,.112-.882l-1.064-.014a4.7,4.7,0,0,1,.056.756,9.936,9.936,0,0,1-.1,1.176h-2.408a9.448,9.448,0,0,1-1.484-.084v.994a9.99,9.99,0,0,1,1.512-.084H-22.6a4.575,4.575,0,0,1-1.946,2.744A8.741,8.741,0,0,1-27.23.168a2.159,2.159,0,0,1,.616.8A9.448,9.448,0,0,0-24.29-.182a6.175,6.175,0,0,0,1.5-1.344A5.369,5.369,0,0,0-21.7-3.836h2.6l-.056,3.29v.07c0,.938.364,1.12,2.072,1.12,2.254,0,2.338-.084,2.562-2.884a3.439,3.439,0,0,1-.91-.364,8.182,8.182,0,0,1-.224,2.1c-.1.252-.378.322-1.358.322-1.092,0-1.246-.056-1.246-.476L-18.2-3.5c.014-.63.028-.924.056-1.232a12.463,12.463,0,0,1-1.568.07Zm15.3-4.62a4.029,4.029,0,0,1,1.624.35A3.691,3.691,0,0,1-2.394-5.418,4.226,4.226,0,0,1-4.872-1.5,8.392,8.392,0,0,1-7.21-.84,2.225,2.225,0,0,1-6.72.1,10.831,10.831,0,0,0-4.592-.546a5.1,5.1,0,0,0,3.206-4.83A4.686,4.686,0,0,0-2.744-8.792a5.42,5.42,0,0,0-3.85-1.386,5.847,5.847,0,0,0-4.522,1.862,5.824,5.824,0,0,0-1.47,3.864c0,1.96.994,3.416,2.324,3.416,1.008,0,1.834-.84,2.646-2.688A20.986,20.986,0,0,0-6.244-9.282Zm-1.008.014a19.229,19.229,0,0,1-1.274,5.18c-.6,1.372-1.162,2.03-1.75,2.03-.756,0-1.344-1.036-1.344-2.38A4.841,4.841,0,0,1-9.338-8.61,4.421,4.421,0,0,1-7.252-9.268ZM2.24-5.53V-.77c-.588.056-1.064.084-1.3.084H.7L.924.238C1.33.14,1.6.1,1.96.042,4.116-.252,4.116-.252,5.894-.574v.35a7.5,7.5,0,0,1-.084,1.3h.966a6.313,6.313,0,0,1-.084-1.3V-5.53H12.04a7.186,7.186,0,0,1,1.288.084v-.91a6.394,6.394,0,0,1-1.3.084H1.974A6.013,6.013,0,0,1,.7-6.356v.91A6.954,6.954,0,0,1,1.96-5.53Zm.826,0H5.894v.994H3.066Zm0,1.652H5.894v1.036H3.066Zm0,1.694H5.894v.9c-1.218.224-1.638.294-2.828.42Zm8.96-2.422a6.221,6.221,0,0,1-1.064.056h-2.6a8.717,8.717,0,0,1-1.19-.056v.826c.294-.028.462-.042.686-.056a7.065,7.065,0,0,0,1.54,2.562A8.255,8.255,0,0,1,6.986.1a2.309,2.309,0,0,1,.546.714A9.445,9.445,0,0,0,9.954-.728,9.723,9.723,0,0,0,12.712.924a4.131,4.131,0,0,1,.532-.77,8.354,8.354,0,0,1-2.7-1.428,9.927,9.927,0,0,0,1.722-2.408,4.287,4.287,0,0,1,.252-.406Zm-.6.77a8.282,8.282,0,0,1-1.47,2.044A6.283,6.283,0,0,1,8.638-3.836Zm.252-6.23a8.235,8.235,0,0,1,.056-1.12c-.476.042-.868.056-1.512.056H3.892c-.644,0-1.05-.014-1.526-.056a8.5,8.5,0,0,1,.056,1.12v1.9a8.41,8.41,0,0,1-.056,1.106c.5-.042.9-.056,1.512-.056H10.29c.546,0,.994.014,1.442.056a8.142,8.142,0,0,1-.056-1.106Zm-8.428-.35h7.6v.98h-7.6Zm0,1.652h7.6v.98h-7.6Zm17.29.364v2.492H16.352a9.706,9.706,0,0,1-1.442-.084V-5a10.383,10.383,0,0,1,1.442-.084h2.562a10.477,10.477,0,0,1-.112,1.33,4.323,4.323,0,0,1-1.19,2.422A6.793,6.793,0,0,1,14.672.28a4.845,4.845,0,0,0,.308.434,2.671,2.671,0,0,1,.266.448,10.424,10.424,0,0,0,1.722-.84,5.37,5.37,0,0,0,2.31-2.45,6.871,6.871,0,0,0,.574-2.954h2.1v4.97c0,.77.42.966,2.1.966,1.82,0,2.324-.14,2.646-.756a6.085,6.085,0,0,0,.42-2.212,3.355,3.355,0,0,1-.91-.378,4.993,4.993,0,0,1-.266,2.086C25.76-.084,25.4,0,24.206,0c-1.162,0-1.344-.056-1.344-.42V-5.082H25.8A10.166,10.166,0,0,1,27.23-5v-.994a9.5,9.5,0,0,1-1.428.084H21.448V-8.4h3.346a8.914,8.914,0,0,1,1.344.084V-9.31a8.535,8.535,0,0,1-1.344.084H21.448v-1.106a8.113,8.113,0,0,1,.084-1.232H20.454a8.381,8.381,0,0,1,.084,1.232v1.106H17.976c.2-.42.294-.672.49-1.19.1-.266.168-.448.266-.672l-.994-.266A6.96,6.96,0,0,1,17.08-9.38a7.828,7.828,0,0,1-1.806,2.366,2.716,2.716,0,0,1,.742.616,11.317,11.317,0,0,0,1.526-2Zm10.038-.812h-.84a5.17,5.17,0,0,1-.938-.056v.882a6.609,6.609,0,0,1,.98-.056H32.13a5.269,5.269,0,0,1,.938.056v-.882a5.093,5.093,0,0,1-.924.056H31.43V-10.5a3.826,3.826,0,0,1,.084-1.036H30.492a4.593,4.593,0,0,1,.084,1.036ZM28.868-.28q.231-.084.5-.168c1.05-.294,2.436-.756,3.64-1.218v-.84c-.63.238-.84.322-1.288.476.392-1.652.532-2.394.742-3.64.224-1.484.266-1.722.308-1.932l-.924-.224a11.527,11.527,0,0,1-.1,1.344,37.3,37.3,0,0,1-.868,4.718,12.709,12.709,0,0,1-2.282.532ZM36.68-8.918H34.664v-1.134a5.8,5.8,0,0,1,.056-.994h-.98a7.815,7.815,0,0,1,.07,1.022V-8.96c0,.252-.014.5-.028.8A9.943,9.943,0,0,1,34.8-8.19h4.774c.21,0,.5,0,.616.014a2.636,2.636,0,0,1,.434.014,6.557,6.557,0,0,1-.042-.826v-1.078a4.524,4.524,0,0,1,.07-.98h-.98a6.213,6.213,0,0,1,.056.952v1.176h-2.2v-1.694a4.854,4.854,0,0,1,.084-1.036H36.6a5.131,5.131,0,0,1,.084,1.036ZM36.652-6.2a10.851,10.851,0,0,1-.714,1.484h-.994c-.49,0-.882-.014-1.442-.056.028.322.042.812.042,1.344V-.476a10.041,10.041,0,0,1-.07,1.526h.98a9.383,9.383,0,0,1-.07-1.512V-3.99h1.3V-.784A8.483,8.483,0,0,1,35.616.56h.952A7.87,7.87,0,0,1,36.5-.77V-3.99h1.316V-.784A8.591,8.591,0,0,1,37.744.56h.938a11.478,11.478,0,0,1-.056-1.33V-3.99H40.04V-.168c0,.238-.056.294-.266.294a6.075,6.075,0,0,1-.91-.084,3.307,3.307,0,0,1,.21.854c.294.014.6.028.77.028.784,0,1.036-.224,1.036-.9V-3.4a11.33,11.33,0,0,1,.056-1.386,10.428,10.428,0,0,1-1.428.07H36.82c.35-.644.462-.868.742-1.484h2.282a12.559,12.559,0,0,1,1.442.056v-.91a8.608,8.608,0,0,1-1.442.084H34.51a8.2,8.2,0,0,1-1.414-.07v.9A11.861,11.861,0,0,1,34.51-6.2Zm-7.5-1.344a30.8,30.8,0,0,1,.644,4.956l.826-.21a31.587,31.587,0,0,0-.672-4.914Zm17.71-1.876a19.589,19.589,0,0,1-3-.154l-.014.966a2.483,2.483,0,0,1,.308-.014h.224c.518.014,1.834.042,2.058.042A1.551,1.551,0,0,0,46.7-8.61l-.126.21a13.931,13.931,0,0,1-3.136,4l.784.784A4.632,4.632,0,0,1,45.3-4.774a5.259,5.259,0,0,1,3.122-1.484c.658,0,.994.336,1.106,1.106a10.868,10.868,0,0,0-2.086,1.12A2.9,2.9,0,0,0,46.018-1.82c0,1.442,1.218,2.156,3.724,2.156a21.719,21.719,0,0,0,3.4-.28,5.509,5.509,0,0,1,.56-.07l-.126-1.078a11.73,11.73,0,0,1-3.738.546C47.866-.546,47-.952,47-1.876c0-.84.728-1.5,2.632-2.394a3.679,3.679,0,0,1,.014.42,20.134,20.134,0,0,1-.084,2.016l.952-.014a3.043,3.043,0,0,1-.028-.5c0-.126,0-.322.014-.63.014-.28.014-.588.014-.77,0-.35,0-.49-.028-.854a23.244,23.244,0,0,1,3.738-1.232l-.448-.98a3.08,3.08,0,0,1-.952.406c-.616.224-1.414.518-2.436.924a1.7,1.7,0,0,0-1.848-1.554,3.726,3.726,0,0,0-2.114.686c-.14.1-.14.1-.644.49a.108.108,0,0,1-.028-.042v-.014a.014.014,0,0,0,.014-.014c.014-.014.084-.07.182-.14.056-.042.336-.364.476-.532A10.323,10.323,0,0,0,47.684-8.6,45.2,45.2,0,0,0,52.3-8.96a4.364,4.364,0,0,1,.56-.07l-.084-.952a19.7,19.7,0,0,1-4.41.532,2.383,2.383,0,0,0-.294.014c.07-.126.252-.5.434-.952a2.973,2.973,0,0,1,.364-.756l-1.12-.2a5.942,5.942,0,0,1-.672,1.918ZM62.454-.63a4.428,4.428,0,0,1-2.688-2.576c.084-.294.14-.532.252-.994s.112-.462.2-.826l-.98-.168a9.1,9.1,0,0,1-.56,2.548A7.922,7.922,0,0,1,56.686.336a3.056,3.056,0,0,1,.8.63,9.866,9.866,0,0,0,1.96-3.234,4.771,4.771,0,0,0,2.408,2.3,14.46,14.46,0,0,0,5.054.616c.56,0,1.036-.014,2.156-.056a3.4,3.4,0,0,1,.28-.98c-1.47.112-2.2.154-3.192.154a16.222,16.222,0,0,1-2.8-.2V-3.22h3.01a8.635,8.635,0,0,1,1.316.07v-.966a7.287,7.287,0,0,1-1.316.07H63.35V-6.132h4.27a12.212,12.212,0,0,1,1.428.084v-.98a9.627,9.627,0,0,1-1.428.084H63.35v-1.9h3.276a7.941,7.941,0,0,1,1.274.07V-9.73a7.732,7.732,0,0,1-1.274.07H63.35v-.672a5.023,5.023,0,0,1,.1-1.218H62.384a6.439,6.439,0,0,1,.084,1.218v.672H59.3a7.921,7.921,0,0,1-1.288-.07v.952a8.133,8.133,0,0,1,1.288-.07h3.164v1.9h-4.1a9.97,9.97,0,0,1-1.442-.084v.98a12.451,12.451,0,0,1,1.442-.084h4.088Zm10.92-8.75a6.9,6.9,0,0,1,.756-.07c2.128-.07,3.808-.168,4.256-.252a.542.542,0,0,1,.126-.014l.028.028-.056.056-.056.056-.2.2c-.966.952-3.178,2.9-4.676,4.088A15.6,15.6,0,0,1,71.6-3.864l.63.9A8.984,8.984,0,0,1,78.12-5.362c1.89,0,3.01.8,3.01,2.142,0,1.19-.77,2.044-2.24,2.45a4.008,4.008,0,0,0-.644-1.344,2.82,2.82,0,0,0-2.31-1.148,1.819,1.819,0,0,0-2.03,1.638c0,1.288,1.134,2.016,3.108,2.016,3.108,0,5.138-1.442,5.138-3.626,0-1.792-1.5-2.94-3.836-2.94a7.094,7.094,0,0,0-3.43.868l-.028-.042a35.924,35.924,0,0,0,4.606-3.976,2.584,2.584,0,0,1,.714-.588l-.588-.77a1.432,1.432,0,0,1-.672.154c-1.26.1-3.122.182-4.284.182a6.465,6.465,0,0,1-1.316-.084ZM77.966-.518a5.041,5.041,0,0,1-1.022.1,3.577,3.577,0,0,1-1.568-.322.955.955,0,0,1-.56-.854c0-.532.434-.868,1.134-.868C76.958-2.464,77.658-1.792,77.966-.518Z" transform="translate(90.736 16.994)" fill="#3c505a"/>
        <g id="Rectangle_150" data-name="Rectangle 150" fill="none" stroke="#3c505a" stroke-width="1">
          <rect width="184.129" height="23.203" stroke="none"/>
          <rect x="0.5" y="0.5" width="183.129" height="22.203" fill="none"/>
        </g>
      </g>
    </g>
  </g>
</svg>
