<svg xmlns="http://www.w3.org/2000/svg" width="1000" height="559.696" viewBox="0 0 1000 559.696">
  <g id="Group_175" data-name="Group 175" transform="translate(-300 -8368.304)">
    <path id="Path_122" data-name="Path 122" d="M300,0H1300V400L300,482.7Z" transform="translate(0 8445.304)" fill="#ffbe00"/>
    <g id="Point" transform="translate(721 8368.304)">
      <g id="Ellipse_10" data-name="Ellipse 10" fill="#ffbe00" stroke="#3c505a" stroke-width="1">
        <circle cx="79.5" cy="79.5" r="79.5" stroke="none"/>
        <circle cx="79.5" cy="79.5" r="79" fill="none"/>
      </g>
      <path id="Path_252" data-name="Path 252" d="M-7.9,3.8a17.936,17.936,0,0,1-4.85-.75A20.982,20.982,0,0,1-17.2,1.3Q-19,.3-19-.5q0-1.1,1.65-2.85T-14.6-5.1a3.451,3.451,0,0,1,1.65.4,10.039,10.039,0,0,1,1.4.9,10.469,10.469,0,0,1,.85.7A15.668,15.668,0,0,0-7.4-.85,9.335,9.335,0,0,0-3.2,0a13.9,13.9,0,0,0,7-1.95,15.51,15.51,0,0,0,5.5-5.3,13.568,13.568,0,0,0,2.1-7.35A19.76,19.76,0,0,0,8.3-25.65,9.655,9.655,0,0,0-.2-30.4a13.2,13.2,0,0,0-6.5,1.5,1.113,1.113,0,0,1-.5.1,1.463,1.463,0,0,1-.9-.3.641.641,0,0,1-.3-.7,5.4,5.4,0,0,1,3-3.4,43.955,43.955,0,0,0,8.35-5.45Q7.2-42.1,7.2-46.6a10.759,10.759,0,0,0-2.7-7.3A8.531,8.531,0,0,0-2.2-57q-4.9,0-7.45,2.05A21.441,21.441,0,0,0-14.2-49.8q-.4.7-.75,1.2t-.65.5a1.638,1.638,0,0,1-1-.6,1.815,1.815,0,0,1-.6-1.3q0-2.1,2.2-5.2a18.759,18.759,0,0,1,6.55-5.45A21.928,21.928,0,0,1,2.1-63a14.3,14.3,0,0,1,6.3,1.45,12.525,12.525,0,0,1,4.85,4.05,9.927,9.927,0,0,1,1.85,5.9,14.5,14.5,0,0,1-2.5,7.9,22.908,22.908,0,0,1-8,7.1q-.3.2-.3.4t.4.2a14.175,14.175,0,0,1,7.65,2.15,15.97,15.97,0,0,1,5.5,5.75,15.5,15.5,0,0,1,2.05,7.8,21.027,21.027,0,0,1-4,12.7A26.067,26.067,0,0,1,5.45.85,31.759,31.759,0,0,1-7.9,3.8Z" transform="translate(80 121)" fill="#3c505a"/>
      <g id="Layer_2" data-name="Layer 2" transform="translate(24.875 11.01)">
        <g id="Group_292" data-name="Group 292" transform="translate(0.001 -0.01)">
          <path id="Path_153" data-name="Path 153" d="M18.566,29.31c2.941,2.812,3.361,3.1,5.268,1.487l.808-.679c.307-.032.727.469.646.727C23.7,32.4,22.8,33.285,21.733,34.416,20.6,35.6,19.681,36.63,18.55,37.923c-.242.081-.743-.291-.759-.614l.485-.663c1.325-1.842,1.05-2.214-1.907-5.025L6.011,21.748c-2.392-2.278-2.925-2.666-4.266-1.535l-1.083.9a.649.649,0,0,1-.646-.727A59.767,59.767,0,0,1,5.09,14.621c2.214-2.327,4.185-3.781,6.253-4.314a6.7,6.7,0,0,1,6.35,1.761,6.594,6.594,0,0,1,1.794,7.061,13.151,13.151,0,0,1-2.844,4.686c-.275.113-.695-.291-.582-.5,2.327-3.571,1.664-6.3-.792-8.629-2.731-2.6-6.011-2.682-8.807.242-1.422,1.487-1.325,1.616-.436,2.472L18.55,29.326Z" transform="translate(-0.001 6.24)" fill="#3c505a"/>
          <path id="Path_154" data-name="Path 154" d="M34.16,12.432c1.7,4.541-.194,8.984-4.735,10.681a7.659,7.659,0,0,1-10.245-4.686,8.163,8.163,0,0,1,4.8-10.746,7.763,7.763,0,0,1,10.2,4.751ZM23.948,8.926c-2.392.9-3.313,3.846-1.826,7.853,1.244,3.313,4.056,6.3,7.255,5.106s2.925-4.912,1.874-7.708c-1.163-3.086-3.862-6.544-7.32-5.252Z" transform="translate(11.456 4.422)" fill="#3c505a"/>
          <path id="Path_155" data-name="Path 155" d="M35.752,13.046c.032-1.519.032-1.713-1-2.424l-.339-.242c-.145-.162-.145-.582.048-.695a27.718,27.718,0,0,0,4.04-1.81.365.365,0,0,1,.388.242c-.113,1.357-.226,3.216-.259,4.8L38.483,19.9c-.065,2.8,0,3.183,1.406,3.41l.808.129a.674.674,0,0,1-.1.97c-1.163-.1-2.295-.162-3.636-.194-1.39-.032-2.553,0-3.652.032a.673.673,0,0,1-.065-.97l.824-.1c1.438-.162,1.487-.549,1.551-3.345l.145-6.787ZM39.21,2.058a1.9,1.9,0,0,1-2.1,1.971A1.923,1.923,0,0,1,35.17,2.042,2.023,2.023,0,0,1,37.3-.01a1.929,1.929,0,0,1,1.891,2.052Z" transform="translate(20.367 0.01)" fill="#3c505a"/>
          <path id="Path_156" data-name="Path 156" d="M47.4,10.815c.614-1.39.695-1.567,0-2.618l-.226-.355a.538.538,0,0,1,.323-.63,21.432,21.432,0,0,0,4.314-.162.43.43,0,0,1,.275.42c-.436.792-.663,1.309-.808,1.632a.411.411,0,0,0,.21.566,10.776,10.776,0,0,1,5.769.388c2.941,1.309,3.248,3.862,2.2,6.237l-2.7,6.092c-1.131,2.553-1.212,2.941-.016,3.684l.727.452a.668.668,0,0,1-.469.856c-1.034-.549-2.052-1.034-3.28-1.584-1.277-.566-2.359-1-3.345-1.357a.693.693,0,0,1,.323-.921l.727.194c1.406.372,1.584.065,2.715-2.488l2.343-5.284c.889-2.02.63-3.91-1.777-4.977a4.251,4.251,0,0,0-3.571-.1,3.249,3.249,0,0,0-1.47,1.891l-2.392,5.429c-1.131,2.553-1.2,2.909-.016,3.684l.6.388a.68.68,0,0,1-.469.856c-.921-.5-1.939-.986-3.183-1.535-1.277-.566-2.359-1-3.377-1.374a.693.693,0,0,1,.323-.921l.792.226c1.39.4,1.584.065,2.715-2.488L47.4,10.815Z" transform="translate(25.092 4.358)" fill="#3c505a"/>
          <path id="Path_157" data-name="Path 157" d="M65.757,20.33c-.452-.485-.549-.436-1.163.113l-5.349,4.9c-1.664,1.519-2.989,3.1-1.26,4.993a2.921,2.921,0,0,0,.856.646c.323.178.97.259,1.05.356.21.226,0,.63-.226.727a5.33,5.33,0,0,1-4.056-1.81c-2.246-2.456-1.341-4.234.372-5.8l6.561-5.995c.776-.711.808-.792.275-1.357l-.727-.808a.624.624,0,0,1,.517-.63,7.489,7.489,0,0,0,2.569,1.018,9.134,9.134,0,0,0,2.779-.339c.194.1.5.436.4.727l-1.293,1.18c-.517.469-.517.533-.065,1.018l2.909,3.183a1.243,1.243,0,0,1-1.18,1.131l-2.957-3.232Z" transform="translate(33.425 9.661)" fill="#3c505a"/>
        </g>
      </g>
    </g>
    <path id="Path_251" data-name="Path 251" d="M-422.45-24.5v6.65h-5.81a34.762,34.762,0,0,1-6.3-.35v4.13a35.657,35.657,0,0,1,6.37-.35h31.99a41.713,41.713,0,0,1,6.86.35V-18.2a41.191,41.191,0,0,1-6.86.35h-6.51V-24.5h4.41a39.944,39.944,0,0,1,6.58.35v-4.06a36.563,36.563,0,0,1-6.44.35h-4.55c.07-2.1.14-3.01.28-4.48h-4.76a33.229,33.229,0,0,1,.35,4.48h-11.55a34.32,34.32,0,0,1,.28-4.48h-4.76a35.341,35.341,0,0,1,.35,4.48h-2.73a35.592,35.592,0,0,1-6.44-.35v4.06a37.98,37.98,0,0,1,6.51-.35Zm4.06,0h11.62v6.65h-11.62Zm3.64-27.93a29.927,29.927,0,0,1,.14-3.78,40.1,40.1,0,0,1-6.16.28h-7.42a30.936,30.936,0,0,1-5.53-.35v4.2a30.465,30.465,0,0,1,5.53-.35h9.52v5.25h-10.22a33.2,33.2,0,0,1-4.41-.21,28.083,28.083,0,0,1,.21,3.85v5.25c0,3.64,1.12,4.13,9.31,4.13,5.67,0,7.56-.28,8.54-1.19,1.19-1.05,1.61-2.38,2.03-5.88a11.237,11.237,0,0,1-3.64-1.68c-.21,2.66-.35,3.71-.7,4.27-.49.84-1.61,1.05-6.65,1.05-4.62,0-5.04-.21-5.04-1.96v-4.48h10.29a38.251,38.251,0,0,1,4.34.21,26.579,26.579,0,0,1-.14-3.71Zm23.17,0a28.807,28.807,0,0,1,.14-3.78,40.1,40.1,0,0,1-6.16.28h-7.42a30.935,30.935,0,0,1-5.53-.35v4.2a30.464,30.464,0,0,1,5.53-.35h9.52v5.25h-10.29a34.432,34.432,0,0,1-4.48-.21,27.117,27.117,0,0,1,.28,3.92v5.11c0,3.71,1.05,4.2,9.45,4.2,9.87,0,10.36-.28,11.2-7.07a14.247,14.247,0,0,1-3.71-1.68c-.21,2.73-.49,4.06-.98,4.62-.56.56-2.24.77-7.07.77a16.071,16.071,0,0,1-4.13-.35c-.7-.28-.84-.56-.84-1.68v-4.48h10.29a38.25,38.25,0,0,1,4.34.21,27.121,27.121,0,0,1-.14-3.71Zm-28.28,38.57c-3.85,3.5-6.93,5.32-12.67,7.56a9.909,9.909,0,0,1,3.22,3.15,43.7,43.7,0,0,0,12.88-8.47Zm11.27,2.45A50.168,50.168,0,0,0-393.61-2.8a17.364,17.364,0,0,1,3.01-3.57,45.866,45.866,0,0,1-14.7-7.28Zm-41.3-41.93a63.933,63.933,0,0,1,10.01,11.9l3.57-3.15a91.6,91.6,0,0,0-10.36-11.62Zm-1.19,27.44a26.97,26.97,0,0,1,5.11-.35h4.27V-9.31c-4.48,4.41-7.56,6.86-10.78,8.33l2.31,4.62c.98-.91.98-.91,2.24-1.96,2.45-2.03,2.45-2.03,3.29-2.73,1.61-1.4,2.8-2.59,4.9-4.76A18.4,18.4,0,0,0-432.46.91c4.2,1.96,7.84,2.38,20.09,2.38,8.47,0,16.31-.14,23.52-.49a18.415,18.415,0,0,1,1.61-5.04c-7.35.98-15.19,1.4-28.21,1.4-8.26,0-12.39-.56-15.89-2.1-2.87-1.33-4.34-2.8-6.02-6.37V-23.1a53.655,53.655,0,0,1,.28-7.35,31.325,31.325,0,0,1-5.32.35h-3.29a28.366,28.366,0,0,1-5.39-.35Zm84.7-30.8a14.032,14.032,0,0,1-.21,2.24c-1.75,12.39-2.38,18.97-2.38,25.83v1.61l.14,7.28.07,1.26v.77l5.04-.21c-.07-1.05-.07-1.4-.07-1.68a36.532,36.532,0,0,1,3.78-15.61c3.99-8.19,8.47-12.18,13.79-12.18,6.72,0,10.64,6.51,10.64,17.78,0,11.2-3.85,18.55-12.04,23.24-4.06,2.31-7.7,3.43-14.21,4.41a14.447,14.447,0,0,1,2.8,4.76,52.986,52.986,0,0,0,12.46-4.13c10.5-5.25,16.17-14.84,16.17-27.51,0-7.49-1.26-12.67-4.2-17.01a13.177,13.177,0,0,0-11.2-6.23c-5.46,0-10.08,3.01-14,9.03a31.235,31.235,0,0,0-4.27,10.43c-.35,1.47-.35,1.47-.49,2.03l-.28-.07c.21-3.57,1.19-11.2,2.31-18.27a39.682,39.682,0,0,1,1.61-7.21Zm90.09,10.08c-4.76.14-10.22.28-16.94.56-11.27.42-11.27.42-13.3.42-1.05,0-1.54,0-2.8-.07l.21,5.11c4.69-.77,18.83-1.47,32.9-1.75v3.64c0,.84.07,1.54.07,1.82,0,2.59,0,2.87.07,3.85a10.747,10.747,0,0,0-8.12-3.15c-7.14,0-12.39,4.9-12.39,11.55,0,6.44,4.76,11.06,11.48,11.06a10.943,10.943,0,0,0,8.82-3.78,9.8,9.8,0,0,0,1.89-3.43,18.131,18.131,0,0,1-7.84,14.77c-2.8,2.1-5.88,3.5-11.34,5.25a15.368,15.368,0,0,1,3.08,4.41,44.524,44.524,0,0,0,11.06-5.67,22.53,22.53,0,0,0,9.38-18.27,20.057,20.057,0,0,0-1.68-8.26V-42.42c5.67-.14,6.44-.14,7.49-.14,8.33,0,10.78.07,13.37.35v-4.97c-2.31.28-7.7.42-20.93.49v-.77a57.949,57.949,0,0,1,.35-8.75h-5.25a23.59,23.59,0,0,1,.28,4.06Zm-.21,20.44a7.845,7.845,0,0,1-8.19,8.26c-4.27,0-7.21-2.87-7.21-6.93,0-4.2,3.36-7.35,7.77-7.35a8.954,8.954,0,0,1,4.69,1.12A5.067,5.067,0,0,1-276.5-26.18Zm74.06-15.12a49.556,49.556,0,0,1,7.35,9.87l3.43-2.24a54.72,54.72,0,0,0-7.42-9.8Zm6.51-3.92a47.21,47.21,0,0,1,7.35,9.8l3.43-2.24a54.721,54.721,0,0,0-7.42-9.8Zm-6.79-11.2c-2.45,3.85-11.2,12.04-20.51,19.18-5.11,3.92-5.11,3.92-5.95,4.76a6.777,6.777,0,0,0-2.03,4.69c0,2.38,1.12,3.92,5.04,7,10.22,7.98,13.02,10.29,17.71,14.63,4.62,4.27,7.35,7.21,9.03,9.59l4.41-4.34a17.818,17.818,0,0,1-1.96-1.75,206.39,206.39,0,0,0-22.4-19.11c-5.67-4.41-6.23-4.9-6.23-6.16,0-.98.49-1.54,3.08-3.5,8.82-6.79,12.6-9.94,16.1-13.23,7.28-7,7.84-7.49,8.61-8.12Zm46.34-.28a14.031,14.031,0,0,1-.21,2.24c-1.75,12.39-2.38,18.97-2.38,25.83v1.61l.14,7.28.07,1.26v.77l5.04-.21c-.07-1.05-.07-1.4-.07-1.68a36.532,36.532,0,0,1,3.78-15.61c3.99-8.19,8.47-12.18,13.79-12.18,6.72,0,10.64,6.51,10.64,17.78,0,11.2-3.85,18.55-12.04,23.24-4.06,2.31-7.7,3.43-14.21,4.41a14.447,14.447,0,0,1,2.8,4.76,52.986,52.986,0,0,0,12.46-4.13c10.5-5.25,16.17-14.84,16.17-27.51,0-7.49-1.26-12.67-4.2-17.01a13.177,13.177,0,0,0-11.2-6.23c-5.46,0-10.08,3.01-14,9.03a31.235,31.235,0,0,0-4.27,10.43c-.35,1.47-.35,1.47-.49,2.03l-.28-.07c.21-3.57,1.19-11.2,2.31-18.27a39.682,39.682,0,0,1,1.61-7.21Zm90.16,10.29a20.145,20.145,0,0,1,8.12,1.75c7.07,3.15,11.13,9.59,11.13,17.57A21.13,21.13,0,0,1-59.36-7.49,41.96,41.96,0,0,1-71.05-4.2,11.123,11.123,0,0,1-68.6.49,54.152,54.152,0,0,0-57.96-2.73,25.489,25.489,0,0,0-41.93-26.88a23.432,23.432,0,0,0-6.79-17.08c-4.55-4.48-11.41-6.93-19.25-6.93-9.38,0-17.01,3.15-22.61,9.31a29.12,29.12,0,0,0-7.35,19.32c0,9.8,4.97,17.08,11.62,17.08,5.04,0,9.17-4.2,13.23-13.44C-69.93-25.97-67.27-36.68-66.22-46.41Zm-5.04.07c-.91,8.96-3.5,19.32-6.37,25.9-3.01,6.86-5.81,10.15-8.75,10.15-3.78,0-6.72-5.18-6.72-11.9A24.207,24.207,0,0,1-81.69-43.05,22.107,22.107,0,0,1-71.26-46.34ZM22.05-14.7a52.624,52.624,0,0,1,7.21.42v-4.69a46.708,46.708,0,0,1-7,.42H.84a33.508,33.508,0,0,0,.63-3.85,10.984,10.984,0,0,1,.21-1.68l-5.04-.07a16.239,16.239,0,0,1,.14,1.68,21.422,21.422,0,0,1-.42,3.92H-22.19a48.7,48.7,0,0,1-7-.42v4.69a52.246,52.246,0,0,1,7.14-.42H-4.9a20.457,20.457,0,0,1-7.77,8.89C-17.43-2.59-22.68-.77-30.73.49a14.65,14.65,0,0,1,2.17,4.48c8.26-1.89,12.67-3.5,17.36-6.51A27.318,27.318,0,0,0-.63-13.65,32.575,32.575,0,0,0,9.66-2.45c5.18,3.5,10.71,5.74,18.97,7.56A15.082,15.082,0,0,1,30.8.35,43.613,43.613,0,0,1,14.28-4.69,28.879,28.879,0,0,1,3.29-14.7ZM-20.23-49.91a48.7,48.7,0,0,1-7-.42v4.62a48.7,48.7,0,0,1,7-.42H-2.59v6.3h-15.4a35.58,35.58,0,0,1-6.02-.35v4.48a35.58,35.58,0,0,1,6.02-.35h15.4v6.79H-23.17a46.708,46.708,0,0,1-7-.42v4.69a49.381,49.381,0,0,1,7-.42H23.1a49.968,49.968,0,0,1,7,.35v-4.62a47.36,47.36,0,0,1-7,.42H1.75v-6.79H17.92a35.58,35.58,0,0,1,6.02.35v-4.48a36.086,36.086,0,0,1-6.02.35H1.75v-6.3H20.16a48.022,48.022,0,0,1,7,.42v-4.62a47.36,47.36,0,0,1-7,.42H9.66a54.1,54.1,0,0,0,4.97-6.58L10.29-58.1A35.329,35.329,0,0,1,4.9-49.91H-5.6a56.059,56.059,0,0,0-5.95-8.47l-3.92,1.82a37.659,37.659,0,0,1,5.11,6.65Zm87.22-2.31H48.09c-2.8,0-4.9-.07-7.07-.28a32.258,32.258,0,0,1,.28,4.76v4.48a33.262,33.262,0,0,1-.28,4.83h4.62v-9.73H94.78v9.73h4.55a32.048,32.048,0,0,1-.28-4.83v-4.48a32.258,32.258,0,0,1,.28-4.76c-2.24.21-4.27.28-7,.28H71.54v-2.17a18.256,18.256,0,0,1,.42-4.34H66.5a18.347,18.347,0,0,1,.49,4.34ZM51.03-.91a46.076,46.076,0,0,1-.42,6.3h4.83V1.89h29.4v3.5H89.6a43.6,43.6,0,0,1-.42-6.23V-16.66a104.29,104.29,0,0,0,10.01,5.81,15.108,15.108,0,0,1,2.59-4.27,66.052,66.052,0,0,1-15.96-8.89c-6.16-4.62-10.08-8.61-13.37-13.65H67.97c-3.08,4.83-6.44,8.4-12.11,12.88a69.331,69.331,0,0,1-17.01,9.87,12.846,12.846,0,0,1,2.66,3.92,70.12,70.12,0,0,0,8.12-4.69c.91-.63.91-.63,1.4-.98Zm4.2-18.69a52.611,52.611,0,0,0,6.3-4.9,59.543,59.543,0,0,0,8.82-9.45c4.76,6.3,7.63,9.1,14.63,14.35Zm.21,4.06h29.4V-2.17H55.44Zm3.71-29.4a44.478,44.478,0,0,1-8.61,8.75,35.561,35.561,0,0,1-8.26,4.83,13.167,13.167,0,0,1,3.36,3.5,45.12,45.12,0,0,0,8.75-6.09,54.964,54.964,0,0,0,8.54-8.89Zm17.57,2.31C83.51-35.21,87.01-32.55,95.69-28a17.075,17.075,0,0,1,2.66-3.85c-8.4-3.78-12.18-6.58-18.06-13.23Zm84.63,5.67c-.77,5.11-4.41,13.23-8.61,19.25-2.59-6.72-4.13-15.19-4.62-25.2h14.77a57.739,57.739,0,0,1,7.84.35v-4.76a38.094,38.094,0,0,1-7.49.42H147.98c-.14-3.29-.14-4.34-.14-5.6a30.21,30.21,0,0,1,.35-5.74H142.8c.35,1.61.42,2.73.7,11.34H122.85a74.139,74.139,0,0,1-8.54-.35,45.911,45.911,0,0,1,.42,8.19c0,13.65-.77,23.1-2.31,29.4a28.647,28.647,0,0,1-4.9,10.5,12.911,12.911,0,0,1,3.71,3.15,33.012,33.012,0,0,0,5.32-12.25c1.26-5.18,1.82-10.36,2.24-19.32h14a104.772,104.772,0,0,1-.91,13.72c-.49,3.08-1.05,3.71-3.36,3.71a36.347,36.347,0,0,1-8.26-1.12,16.357,16.357,0,0,1,.84,4.55,41.646,41.646,0,0,0,7.35.63c3.92,0,5.46-.63,6.51-2.8.98-2.03,1.68-7.14,2.1-15.05.28-6.37.28-6.37.49-7.84a34.561,34.561,0,0,1-5.25.28H118.93c.07-2.94.14-5.32.14-11.41h24.64c.7,11.69,2.73,21.63,5.95,29.12C143.99-7.21,137.62-2.8,128.87.7a11.922,11.922,0,0,1,3.43,3.57A59.526,59.526,0,0,0,151.69-9.66a34.053,34.053,0,0,0,5.81,7.84c2.73,2.73,5.53,4.34,7.35,4.34s3.22-1.12,4.34-3.36c1.05-2.03,1.61-3.92,2.52-8.54a19.239,19.239,0,0,1-3.78-3.08c-.84,6.44-2.03,10.08-3.15,10.08a6.625,6.625,0,0,1-3.01-1.61,25.054,25.054,0,0,1-7.07-9.31c3.99-5.25,5.32-7.77,9.31-17.08,1.19-2.8,1.89-4.34,2.1-4.69Zm3.85-14a54.816,54.816,0,0,0-10.01-6.93l-3.01,2.45a46.3,46.3,0,0,1,10.08,7.42Zm37.24,22.12c-.49,6.16-1.47,10.01-3.78,14.42C195.3-8.05,189.98-3.43,181.02.91a14.628,14.628,0,0,1,3.08,3.92c8.54-4.41,14-9.17,17.64-15.26,3.22-5.46,4.83-10.71,5.46-18.41h16.31c0,12.11-.84,21.63-2.31,25.9-.49,1.33-1.26,1.75-3.5,1.75a53.928,53.928,0,0,1-9.87-1.19,19.4,19.4,0,0,1,1.12,4.97c4.41.42,6.86.56,9.17.56,4.06,0,5.74-.7,6.93-2.8,1.82-3.29,3.15-15.12,3.15-28.7a30.926,30.926,0,0,1,.28-4.97,52.965,52.965,0,0,1-7.35.35H198.1a53.728,53.728,0,0,1-7.28-.42v4.97a56.368,56.368,0,0,1,7.21-.42Zm-2.87-29.05a22.514,22.514,0,0,1-3.01,7.35,57.678,57.678,0,0,1-19.18,20.51,15.408,15.408,0,0,1,3.43,3.78A69.483,69.483,0,0,0,202.86-52.5a19.1,19.1,0,0,1,1.96-3.57Zm15.54,1.96c.35.56.77,1.33,1.12,1.96,6.58,12.88,12.53,19.95,23.59,28.14a17.267,17.267,0,0,1,3.29-4.27c-9.59-6.3-15.54-12.6-20.65-21.77a28.339,28.339,0,0,1-2.66-5.88Zm54.18,8.82c-7.14,0-12.46-.28-14.98-.77l-.07,4.83a12.412,12.412,0,0,1,1.54-.07h1.12c2.59.07,9.17.21,10.29.21a7.753,7.753,0,0,0,1.33-.14L267.89-42c-5.04,8.96-10.85,16.31-15.68,20.02l3.92,3.92a23.163,23.163,0,0,1,5.39-5.81c5.67-4.83,11.2-7.42,15.61-7.42,3.29,0,4.97,1.68,5.53,5.53a54.339,54.339,0,0,0-10.43,5.6c-4.76,3.57-7.14,7.21-7.14,11.06,0,7.21,6.09,10.78,18.62,10.78A108.6,108.6,0,0,0,300.72.28a27.548,27.548,0,0,1,2.8-.35l-.63-5.39c-3.99,1.61-11.76,2.73-18.69,2.73-9.87,0-14.21-2.03-14.21-6.65,0-4.2,3.64-7.49,13.16-11.97a18.391,18.391,0,0,1,.07,2.1,100.659,100.659,0,0,1-.42,10.08l4.76-.07a15.218,15.218,0,0,1-.14-2.52c0-.63,0-1.61.07-3.15.07-1.4.07-2.94.07-3.85,0-1.75,0-2.45-.14-4.27,8.75-3.43,15.05-5.53,18.69-6.16l-2.24-4.9c-1.12.77-1.33.84-4.76,2.03-3.08,1.12-7.07,2.59-12.18,4.62-.91-5.18-4.06-7.77-9.24-7.77a18.629,18.629,0,0,0-10.57,3.43c-.7.49-.7.49-3.22,2.45a.539.539,0,0,1-.14-.21v-.07a.069.069,0,0,0,.07-.07,11.478,11.478,0,0,1,.91-.7c.28-.21,1.68-1.82,2.38-2.66a51.617,51.617,0,0,0,6.3-9.94,226.022,226.022,0,0,0,23.1-1.82,21.82,21.82,0,0,1,2.8-.35l-.42-4.76c-3.85,1.26-10.85,2.1-22.05,2.66a11.915,11.915,0,0,0-1.47.07c.35-.63,1.26-2.52,2.17-4.76,1.19-2.87,1.19-2.87,1.82-3.78l-5.6-.98c-.21,2.24-1.05,4.69-3.36,9.59Zm60.69-4.76v8.12H328.3a62.594,62.594,0,0,1-7-.28,67.3,67.3,0,0,1,.28,7.07V-3.43a53.341,53.341,0,0,1-.49,8.68h4.48V.7h19.18V3.78h4.34a64.957,64.957,0,0,1-.35-7.21V-37.17a64.734,64.734,0,0,1,.28-6.86,71.794,71.794,0,0,1-7.49.28h-1.05v-8.12h3.22a62.67,62.67,0,0,1,7,.35v-4.62a53.011,53.011,0,0,1-7.28.42H326.55a50.45,50.45,0,0,1-7.07-.42v4.69a48.323,48.323,0,0,1,6.93-.42Zm3.43,0h3.64v8.12h-3.64Zm-3.43,11.62c-.14,5.67-.28,7.77-.84,10.57a20.4,20.4,0,0,1-3.5,8.75,12.331,12.331,0,0,1,2.59,2.8c3.85-5.81,5.04-10.78,5.18-22.12h3.64v14.7c0,2.66.84,3.15,5.25,3.15.28,0,.63,0,2.45-.07v7.91H325.57V-40.25Zm10.5,0h4.27v14.28c-1.05,0-1.61.07-1.75.07-2.24,0-2.59-.14-2.59-1.12ZM325.57-10.99h19.18v7.91H325.57Zm52.78-38.15c0-3.85.07-5.11.21-6.86a58.957,58.957,0,0,1-6.65.28H360.22a51.216,51.216,0,0,1-7.21-.42v4.9a46.257,46.257,0,0,1,7.14-.35h13.79v17.36H360.85a64.172,64.172,0,0,1-6.79-.28,43.954,43.954,0,0,1,.35,6.79V-2.45c0,4.97,1.82,5.88,11.76,5.88,13.79,0,14.49-.7,15.61-14.91a12.582,12.582,0,0,1-4.55-2.1c-.07,5.39-.63,9.66-1.4,11.06-.7,1.33-2.8,1.75-9.03,1.75-4.34,0-6.58-.21-7.35-.7-.49-.28-.63-.7-.63-1.89V-30.1h13.02a60.87,60.87,0,0,1,6.79.28,54.026,54.026,0,0,1-.28-6.51Zm38.78-8.89a50.924,50.924,0,0,1-10.78,12.18,73.009,73.009,0,0,1-19.04,12.18,12.167,12.167,0,0,1,2.94,3.99,80.936,80.936,0,0,0,14.84-9.1,65.222,65.222,0,0,0,14.7-15.33,58.8,58.8,0,0,0,10.78,11.76,97.848,97.848,0,0,0,19.74,12.88,18.119,18.119,0,0,1,2.8-4.41,73.4,73.4,0,0,1-19.18-11.48c-5.39-4.41-8.61-7.91-11.55-12.67ZM403.48-31.99a40.257,40.257,0,0,1,5.46-.28h21.77a43.089,43.089,0,0,1,5.88.28v-4.76a41.8,41.8,0,0,1-5.88.28h-21.7a35.776,35.776,0,0,1-5.53-.28Zm-.49,36.54V.49H436.8V4.55h5.04a48.651,48.651,0,0,1-.42-6.86V-17.78a42.307,42.307,0,0,1,.35-6.44,37.1,37.1,0,0,1-5.46.28H403.48a37.1,37.1,0,0,1-5.46-.28,44.023,44.023,0,0,1,.35,6.44V-2.31a50.81,50.81,0,0,1-.42,6.86Zm0-24.22H436.8V-3.64H402.99Z" transform="translate(800 8787.606)" fill="#3c505a"/>
    <path id="Path_250" data-name="Path 250" d="M-181.2-22.84v8.52h-8.04a23.58,23.58,0,0,1-3.88-.2v2.76a25.9,25.9,0,0,1,4-.2h7.92v10.4h-11.6a31.852,31.852,0,0,1-4.36-.24V1.12a29.424,29.424,0,0,1,4.4-.28h26.84a30.157,30.157,0,0,1,4.32.28V-1.8a32.44,32.44,0,0,1-4.32.24H-178.4v-10.4h8.72a24.492,24.492,0,0,1,3.88.2v-2.76a24.185,24.185,0,0,1-3.88.2h-8.72v-8.52h10.72a27.9,27.9,0,0,1,4.2.2v-2.8a29.718,29.718,0,0,1-4.2.24H-191.4a28.945,28.945,0,0,1-4.2-.24v2.8a25.989,25.989,0,0,1,4.2-.2Zm-4.6-8.72a38.078,38.078,0,0,1,9.68,5.16l1.64-2.16a45.251,45.251,0,0,0-9.56-4.96Zm58.6,10.44c-.44,2.92-2.52,7.56-4.92,11a46.982,46.982,0,0,1-2.64-14.4h8.44a32.994,32.994,0,0,1,4.48.2v-2.72a21.768,21.768,0,0,1-4.28.24h-8.72c-.08-1.88-.08-2.48-.08-3.2a17.262,17.262,0,0,1,.2-3.28h-3.08c.2.92.24,1.56.4,6.48h-11.8a42.365,42.365,0,0,1-4.88-.2,26.236,26.236,0,0,1,.24,4.68c0,7.8-.44,13.2-1.32,16.8a16.37,16.37,0,0,1-2.8,6,7.378,7.378,0,0,1,2.12,1.8,18.864,18.864,0,0,0,3.04-7,55.759,55.759,0,0,0,1.28-11.04h8a59.869,59.869,0,0,1-.52,7.84c-.28,1.76-.6,2.12-1.92,2.12a20.77,20.77,0,0,1-4.72-.64,9.346,9.346,0,0,1,.48,2.6,23.8,23.8,0,0,0,4.2.36c2.24,0,3.12-.36,3.72-1.6.56-1.16.96-4.08,1.2-8.6a38.993,38.993,0,0,1,.28-4.48,19.749,19.749,0,0,1-3,.16h-7.64c.04-1.68.08-3.04.08-6.52h14.08c.4,6.68,1.56,12.36,3.4,16.64A28.972,28.972,0,0,1-145.76.4a6.813,6.813,0,0,1,1.96,2.04,34.015,34.015,0,0,0,11.08-7.96,19.459,19.459,0,0,0,3.32,4.48c1.56,1.56,3.16,2.48,4.2,2.48s1.84-.64,2.48-1.92a16.775,16.775,0,0,0,1.44-4.88,10.994,10.994,0,0,1-2.16-1.76c-.48,3.68-1.16,5.76-1.8,5.76a3.786,3.786,0,0,1-1.72-.92A14.317,14.317,0,0,1-131-7.6c2.28-3,3.04-4.44,5.32-9.76.68-1.6,1.08-2.48,1.2-2.68Zm2.2-8a31.323,31.323,0,0,0-5.72-3.96l-1.72,1.4a26.459,26.459,0,0,1,5.76,4.24Zm21.28,12.64a19.367,19.367,0,0,1-2.16,8.24c-1.92,3.64-4.96,6.28-10.08,8.76a8.359,8.359,0,0,1,1.76,2.24c4.88-2.52,8-5.24,10.08-8.72A22.779,22.779,0,0,0-101-16.48h9.32c0,6.92-.48,12.36-1.32,14.8-.28.76-.72,1-2,1a30.816,30.816,0,0,1-5.64-.68A11.088,11.088,0,0,1-100,1.48c2.52.24,3.92.32,5.24.32,2.32,0,3.28-.4,3.96-1.6C-89.76-1.68-89-8.44-89-16.2a17.674,17.674,0,0,1,.16-2.84,30.265,30.265,0,0,1-4.2.2H-106.2a30.7,30.7,0,0,1-4.16-.24v2.84a32.211,32.211,0,0,1,4.12-.24Zm-1.64-16.6a12.865,12.865,0,0,1-1.72,4.2,32.959,32.959,0,0,1-10.96,11.72A8.8,8.8,0,0,1-116.08-15a39.7,39.7,0,0,0,12.6-15,10.915,10.915,0,0,1,1.12-2.04Zm8.88,1.12c.2.32.44.76.64,1.12,3.76,7.36,7.16,11.4,13.48,16.08a9.867,9.867,0,0,1,1.88-2.44,33.359,33.359,0,0,1-11.8-12.44A16.193,16.193,0,0,1-93.8-33Zm30.96,5.04a55.969,55.969,0,0,1-8.56-.44l-.04,2.76a7.093,7.093,0,0,1,.88-.04h.64c1.48.04,5.24.12,5.88.12a4.43,4.43,0,0,0,.76-.08l-.36.6c-2.88,5.12-6.2,9.32-8.96,11.44l2.24,2.24a13.236,13.236,0,0,1,3.08-3.32c3.24-2.76,6.4-4.24,8.92-4.24,1.88,0,2.84.96,3.16,3.16a31.051,31.051,0,0,0-5.96,3.2c-2.72,2.04-4.08,4.12-4.08,6.32,0,4.12,3.48,6.16,10.64,6.16a62.055,62.055,0,0,0,9.72-.8,15.741,15.741,0,0,1,1.6-.2l-.36-3.08A33.515,33.515,0,0,1-57-1.56c-5.64,0-8.12-1.16-8.12-3.8,0-2.4,2.08-4.28,7.52-6.84a10.511,10.511,0,0,1,.04,1.2,57.523,57.523,0,0,1-.24,5.76l2.72-.04a8.7,8.7,0,0,1-.08-1.44c0-.36,0-.92.04-1.8.04-.8.04-1.68.04-2.2,0-1,0-1.4-.08-2.44a66.412,66.412,0,0,1,10.68-3.52l-1.28-2.8a8.8,8.8,0,0,1-2.72,1.16c-1.76.64-4.04,1.48-6.96,2.64a4.855,4.855,0,0,0-5.28-4.44,10.645,10.645,0,0,0-6.04,1.96c-.4.28-.4.28-1.84,1.4a.308.308,0,0,1-.08-.12v-.04a.039.039,0,0,0,.04-.04c.04-.04.24-.2.52-.4.16-.12.96-1.04,1.36-1.52a29.5,29.5,0,0,0,3.6-5.68,129.155,129.155,0,0,0,13.2-1.04,12.469,12.469,0,0,1,1.6-.2l-.24-2.72c-2.2.72-6.2,1.2-12.6,1.52a6.809,6.809,0,0,0-.84.04c.2-.36.72-1.44,1.24-2.72a8.494,8.494,0,0,1,1.04-2.16l-3.2-.56c-.12,1.28-.6,2.68-1.92,5.48Zm40,3.4v-4.72a17.283,17.283,0,0,1,.16-3.24H-28.6a23.168,23.168,0,0,1,.16,3.36v4.6h-3.32a29.074,29.074,0,0,1-4.68-.24v3.04a36.821,36.821,0,0,1,4.64-.2h3.36v6.56A22.817,22.817,0,0,1-28.6-11h3.24a21.994,21.994,0,0,1-.16-3.24v-6.68h12.16c-.04,3.24-.08,4.48-.16,5.76-.36,4.84-1.48,7.48-4.28,10a17.687,17.687,0,0,1-7.64,3.92,7.166,7.166,0,0,1,1.8,2.52A29.7,29.7,0,0,0-19-.76a16.918,16.918,0,0,0,6.52-6.6c1.48-2.88,1.88-5.44,1.96-13.56H-7a36.821,36.821,0,0,1,4.64.2v-3.04a29.074,29.074,0,0,1-4.68.24h-3.44v-4.2a27.429,27.429,0,0,1,.16-3.72h-3.12a26.587,26.587,0,0,1,.12,4.04v3.88Zm44.4-1.4H9.12a28.819,28.819,0,0,1-4.64-.24v3.04a36.128,36.128,0,0,1,4.6-.2h9.8V-2.36a22.065,22.065,0,0,1-.24,4.2h3.28a26.887,26.887,0,0,1-.2-4.24V-22.32H31.88a36.128,36.128,0,0,1,4.6.2v-3.04a29.074,29.074,0,0,1-4.68.24H21.72v-2.6a24.806,24.806,0,0,1,.2-4.16H18.64a20.65,20.65,0,0,1,.24,4.08Zm-8.64,6.28A29.863,29.863,0,0,1,6.76-8.52a19.138,19.138,0,0,1-3.8,5.16A8.868,8.868,0,0,1,5.6-1.64a36.071,36.071,0,0,0,7-13.8c.52-1.92.52-1.92.68-2.36Zm17.08.8c.32.68.56,1.36,1,2.6a65.413,65.413,0,0,0,2.8,6.88,38.919,38.919,0,0,0,4.16,6.88A9.42,9.42,0,0,1,37.8-3.36a34.072,34.072,0,0,1-6.2-10.72,26.994,26.994,0,0,1-1.48-4.52Zm7-16.56a4.114,4.114,0,0,0-4.12,4.12,4.114,4.114,0,0,0,4.12,4.12,4.106,4.106,0,0,0,4.08-4.12A4.106,4.106,0,0,0,34.32-34.4Zm0,1.68a2.416,2.416,0,0,1,2.4,2.44,2.416,2.416,0,0,1-2.4,2.44,2.45,2.45,0,0,1-2.44-2.44A2.424,2.424,0,0,1,34.32-32.72Zm8.56,19a43.7,43.7,0,0,1,4.96-.16h23.2a45.759,45.759,0,0,1,4.88.16v-3.24a31.549,31.549,0,0,1-4.84.2H47.84A28.3,28.3,0,0,1,42.88-17ZM94.68,1.24A27.205,27.205,0,0,1,94.48-3V-15.04a13.97,13.97,0,0,0-.16-2.36l.08-.04a4.414,4.414,0,0,0,1.24.68,81.555,81.555,0,0,1,14.92,7.92l1.72-2.96a99.2,99.2,0,0,0-17.8-8.44v-7.48a25.109,25.109,0,0,1,.2-4.16H91.24a23.716,23.716,0,0,1,.24,4.08V-2.96a25.726,25.726,0,0,1-.24,4.2Zm46.84-27.88c-2.72.08-5.84.16-9.68.32-6.44.24-6.44.24-7.6.24-.6,0-.88,0-1.6-.04l.12,2.92c2.68-.44,10.76-.84,18.8-1v2.08c0,.48.04.88.04,1.04,0,1.48,0,1.64.04,2.2a6.141,6.141,0,0,0-4.64-1.8c-4.08,0-7.08,2.8-7.08,6.6a6.2,6.2,0,0,0,6.56,6.32,6.253,6.253,0,0,0,5.04-2.16,5.6,5.6,0,0,0,1.08-1.96,10.36,10.36,0,0,1-4.48,8.44,20.5,20.5,0,0,1-6.48,3,8.782,8.782,0,0,1,1.76,2.52,25.443,25.443,0,0,0,6.32-3.24,12.874,12.874,0,0,0,5.36-10.44,11.461,11.461,0,0,0-.96-4.72v-7.92c3.24-.08,3.68-.08,4.28-.08a71.093,71.093,0,0,1,7.64.2v-2.84c-1.32.16-4.4.24-11.96.28v-.44a33.113,33.113,0,0,1,.2-5h-3a13.48,13.48,0,0,1,.16,2.32Zm-.12,11.68a4.483,4.483,0,0,1-4.68,4.72,3.866,3.866,0,0,1-4.12-3.96,4.233,4.233,0,0,1,4.44-4.2,5.117,5.117,0,0,1,2.68.64A2.9,2.9,0,0,1,141.4-14.96ZM169.04-26.8a19.7,19.7,0,0,1,2.16-.2c6.08-.2,10.88-.48,12.16-.72a1.547,1.547,0,0,1,.36-.04l.08.08-.16.16-.16.16-.56.56c-2.76,2.72-9.08,8.28-13.36,11.68a44.562,44.562,0,0,1-5.6,4.08l1.8,2.56a25.67,25.67,0,0,1,16.84-6.84c5.4,0,8.6,2.28,8.6,6.12,0,3.4-2.2,5.84-6.4,7a11.45,11.45,0,0,0-1.84-3.84,8.056,8.056,0,0,0-6.6-3.28c-3.32,0-5.8,2-5.8,4.68,0,3.68,3.24,5.76,8.88,5.76,8.88,0,14.68-4.12,14.68-10.36,0-5.12-4.28-8.4-10.96-8.4a20.267,20.267,0,0,0-9.8,2.48l-.08-.12c2.8-1.8,7.64-5.96,13.16-11.36a7.382,7.382,0,0,1,2.04-1.68l-1.68-2.2a4.09,4.09,0,0,1-1.92.44c-3.6.28-8.92.52-12.24.52a18.472,18.472,0,0,1-3.76-.24ZM182.16-1.48a14.4,14.4,0,0,1-2.92.28,10.22,10.22,0,0,1-4.48-.92,2.729,2.729,0,0,1-1.6-2.44c0-1.52,1.24-2.48,3.24-2.48C179.28-7.04,181.28-5.12,182.16-1.48Z" transform="translate(800 8678.956)" fill="#3c505a"/>
    <g id="Group_214" data-name="Group 214" transform="translate(-69 6.304)">
      <g id="Group_174" data-name="Group 174" transform="translate(-10 -1183.695)">
        <g id="Union_2" data-name="Union 2" transform="translate(2396 -7818.305)" fill="#3c505a">
          <path d="M -1278.501586914062 17603.501953125 L -1449.499633789062 17603.501953125 L -1449.499633789062 17579 L -1449.499633789062 17578.779296875 L -1449.661743164062 17578.630859375 L -1455.259399414062 17573.5 L -1449.661743164062 17568.369140625 L -1449.499633789062 17568.220703125 L -1449.499633789062 17568 L -1449.499633789062 17542.5 L -1278.501586914062 17542.5 L -1278.501586914062 17603.501953125 Z" stroke="none"/>
          <path d="M -1279.001586914062 17603.001953125 L -1279.001586914062 17543 L -1448.999633789062 17543 L -1448.999633789062 17568.439453125 L -1449.323852539062 17568.736328125 L -1454.519409179688 17573.5 L -1448.999633789062 17578.560546875 L -1448.999633789062 17603.001953125 L -1279.001586914062 17603.001953125 M -1278.001586914062 17604.001953125 L -1449.999633789062 17604.001953125 L -1449.999633789062 17579 L -1455.999267578125 17573.5 L -1449.999633789062 17568 L -1449.999633789062 17542 L -1278.001586914062 17542 L -1278.001586914062 17604.001953125 Z" stroke="none" fill="#3c505a"/>
        </g>
        <path id="Path_249" data-name="Path 249" d="M-68.588-15.288v-3.068a11.234,11.234,0,0,1,.1-2.106H-70.59a15.06,15.06,0,0,1,.1,2.184v2.99h-2.158a18.9,18.9,0,0,1-3.042-.156v1.976a23.933,23.933,0,0,1,3.016-.13h2.184v4.264a14.832,14.832,0,0,1-.1,2.184h2.106a14.3,14.3,0,0,1-.1-2.106V-13.6h7.9c-.026,2.106-.052,2.912-.1,3.744-.234,3.146-.962,4.862-2.782,6.5A11.5,11.5,0,0,1-68.536-.806,4.658,4.658,0,0,1-67.366.832,19.3,19.3,0,0,0-64.35-.494a11,11,0,0,0,4.238-4.29c.962-1.872,1.222-3.536,1.274-8.814h2.288a23.933,23.933,0,0,1,3.016.13v-1.976a18.9,18.9,0,0,1-3.042.156h-2.236v-2.73a17.829,17.829,0,0,1,.1-2.418h-2.028a17.281,17.281,0,0,1,.078,2.626v2.522Zm28.86-.91h-6.344a18.732,18.732,0,0,1-3.016-.156v1.976a23.483,23.483,0,0,1,2.99-.13h6.37V-1.534a14.342,14.342,0,0,1-.156,2.73h2.132a17.477,17.477,0,0,1-.13-2.756V-14.508h6.6a23.483,23.483,0,0,1,2.99.13v-1.976a18.9,18.9,0,0,1-3.042.156h-6.552v-1.69a16.124,16.124,0,0,1,.13-2.7h-2.132a13.423,13.423,0,0,1,.156,2.652Zm-5.616,4.082a19.411,19.411,0,0,1-2.262,6.578,12.44,12.44,0,0,1-2.47,3.354A5.764,5.764,0,0,1-48.36-1.066a23.446,23.446,0,0,0,4.55-8.97c.338-1.248.338-1.248.442-1.534Zm11.1.52c.208.442.364.884.65,1.69a42.519,42.519,0,0,0,1.82,4.472,25.3,25.3,0,0,0,2.7,4.472A6.123,6.123,0,0,1-27.43-2.184a22.147,22.147,0,0,1-4.03-6.968,17.546,17.546,0,0,1-.962-2.938Zm4.55-10.764a2.674,2.674,0,0,0-2.678,2.678A2.674,2.674,0,0,0-29.692-17a2.669,2.669,0,0,0,2.652-2.678A2.669,2.669,0,0,0-29.692-22.36Zm0,1.092a1.57,1.57,0,0,1,1.56,1.586,1.57,1.57,0,0,1-1.56,1.586,1.592,1.592,0,0,1-1.586-1.586A1.576,1.576,0,0,1-29.692-21.268Zm5.564,12.35a28.4,28.4,0,0,1,3.224-.1h15.08a29.743,29.743,0,0,1,3.172.1v-2.106a20.507,20.507,0,0,1-3.146.13H-20.9a18.392,18.392,0,0,1-3.224-.156ZM9.542.806a17.683,17.683,0,0,1-.13-2.756V-9.776a9.081,9.081,0,0,0-.1-1.534l.052-.026a2.869,2.869,0,0,0,.806.442,53.011,53.011,0,0,1,9.7,5.148L20.982-7.67a64.481,64.481,0,0,0-11.57-5.486v-4.862a16.32,16.32,0,0,1,.13-2.7H7.306a15.416,15.416,0,0,1,.156,2.652V-1.924A16.723,16.723,0,0,1,7.306.806Zm37-14.534a20.021,20.021,0,0,1-3.2,7.15,30.538,30.538,0,0,1-1.716-9.36h5.486a21.446,21.446,0,0,1,2.912.13v-1.768a14.149,14.149,0,0,1-2.782.156H41.574c-.052-1.222-.052-1.612-.052-2.08a11.221,11.221,0,0,1,.13-2.132h-2a25.17,25.17,0,0,1,.26,4.212H32.24a27.537,27.537,0,0,1-3.172-.13,17.053,17.053,0,0,1,.156,3.042,49.451,49.451,0,0,1-.858,10.92,10.64,10.64,0,0,1-1.82,3.9,4.8,4.8,0,0,1,1.378,1.17A12.262,12.262,0,0,0,29.9-3.068a36.243,36.243,0,0,0,.832-7.176h5.2a38.914,38.914,0,0,1-.338,5.1C35.412-4,35.2-3.77,34.346-3.77a13.5,13.5,0,0,1-3.068-.416A6.075,6.075,0,0,1,31.59-2.5a15.469,15.469,0,0,0,2.73.234c1.456,0,2.028-.234,2.418-1.04a19.34,19.34,0,0,0,.78-5.59A25.35,25.35,0,0,1,37.7-11.8a12.837,12.837,0,0,1-1.95.1H30.784c.026-1.092.052-1.976.052-4.238h9.152A33,33,0,0,0,42.2-5.122,18.832,18.832,0,0,1,34.476.26,4.428,4.428,0,0,1,35.75,1.586a22.11,22.11,0,0,0,7.2-5.174A12.648,12.648,0,0,0,45.11-.676,4.745,4.745,0,0,0,47.84.936c.676,0,1.2-.416,1.612-1.248a10.9,10.9,0,0,0,.936-3.172,7.146,7.146,0,0,1-1.4-1.144c-.312,2.392-.754,3.744-1.17,3.744a2.461,2.461,0,0,1-1.118-.6A9.306,9.306,0,0,1,44.07-4.94a23.8,23.8,0,0,0,3.458-6.344c.442-1.04.7-1.612.78-1.742Zm1.43-5.2A20.36,20.36,0,0,0,44.252-21.5l-1.118.91a17.2,17.2,0,0,1,3.744,2.756ZM61.8-10.712a12.589,12.589,0,0,1-1.4,5.356C59.15-2.99,57.174-1.274,53.846.338A5.433,5.433,0,0,1,54.99,1.794a15.258,15.258,0,0,0,6.552-5.668,14.807,14.807,0,0,0,2.028-6.838h6.058c0,4.5-.312,8.034-.858,9.62-.182.494-.468.65-1.3.65A20.03,20.03,0,0,1,63.8-.884,7.207,7.207,0,0,1,64.22.962c1.638.156,2.548.208,3.406.208,1.508,0,2.132-.26,2.574-1.04.676-1.222,1.17-5.616,1.17-10.66a11.488,11.488,0,0,1,.1-1.846,19.673,19.673,0,0,1-2.73.13H60.19a19.956,19.956,0,0,1-2.7-.156v1.846a20.937,20.937,0,0,1,2.678-.156ZM60.736-21.5a8.362,8.362,0,0,1-1.118,2.73,21.423,21.423,0,0,1-7.124,7.618,5.723,5.723,0,0,1,1.274,1.4,25.808,25.808,0,0,0,8.19-9.75,7.1,7.1,0,0,1,.728-1.326Zm5.772.728c.13.208.286.494.416.728A26.341,26.341,0,0,0,75.686-9.594a6.413,6.413,0,0,1,1.222-1.586,21.684,21.684,0,0,1-7.67-8.086,10.526,10.526,0,0,1-.988-2.184Z" transform="translate(1030 9764.695)" fill="#fff"/>
      </g>
      <g id="Group_173" data-name="Group 173" transform="translate(153.887 -1183.695)">
        <path id="Path_248" data-name="Path 248" d="M-110.694-25.042a38.4,38.4,0,0,1-7.752,1.634v-3.648a21.733,21.733,0,0,1,.19-3.534h-2.812a25.243,25.243,0,0,1,.19,3.61v3.762c-1.14.076-2.622.114-3.648.114a21.522,21.522,0,0,1-3.876-.266v2.508h1.558c.418.038,1.444.038,2.014.038,1.1,0,1.748,0,2.432-.038,1.178-.076,1.178-.076,1.52-.114v7.182a20.328,20.328,0,0,0-5.358,3.116c-2.052,1.748-3,3.382-3,5.054a4.583,4.583,0,0,0,1.748,3.572A10.036,10.036,0,0,0-121.22.38c1.862,0,2.774-.988,2.774-3.04v-9.5a25.639,25.639,0,0,1,8.056-1.482c4.978,0,8.132,2.318,8.132,6.042a5.044,5.044,0,0,1-5.092,5.358c-2.774,0-3.914-1.634-3.914-5.586a11.286,11.286,0,0,1,.076-1.482,8.236,8.236,0,0,1-2.508.988,13.866,13.866,0,0,0,.456,4.294A5.6,5.6,0,0,0-107.388.266,7.691,7.691,0,0,0-99.636-7.6a7.647,7.647,0,0,0-3.914-6.726,12.865,12.865,0,0,0-6.726-1.6,26.921,26.921,0,0,0-8.17,1.368v-6.574a66.695,66.695,0,0,0,6.726-1.14c.532-.114.684-.152,1.14-.228ZM-120.878-4.066c0,1.634-.114,1.862-.874,1.862a7.1,7.1,0,0,1-3.382-1.1c-1.1-.722-1.634-1.482-1.634-2.28,0-1.824,2.128-3.876,5.89-5.7ZM-98.04-20.14a31.932,31.932,0,0,0-7.676-7.22l-1.976,1.482a31.123,31.123,0,0,1,7.676,7.448ZM-82.232-9.728v8.664c0,.95-.19,1.14-1.178,1.14A16.917,16.917,0,0,1-86.716-.3a6.777,6.777,0,0,1,.494,2.432c1.254.114,2.2.152,3.04.152,2.546,0,3.268-.684,3.268-3.078V-25.764a38.277,38.277,0,0,1,.152-4.332,19.935,19.935,0,0,1-3.23.19h-3.762A21.166,21.166,0,0,1-90.1-30.1c.114,1.292.152,2.66.152,5.89,0,10.45-.114,14.136-.57,17.48A16.278,16.278,0,0,1-93.1.8,6.969,6.969,0,0,1-91.162,2.66c2.014-3.382,2.774-6.346,3.23-12.388Zm0-11.248H-87.59V-27.74h5.358Zm0,2.166v6.916h-5.586c.152-3.116.19-3.762.19-6.916Zm9.158-8.55h6.346V-.418c0,1.672.95,2.318,3.534,2.318,2.394,0,3.42-.3,4.028-1.14.646-.874.95-3.268,1.14-8.284A9,9,0,0,1-60.344-8.55a36.465,36.465,0,0,1-.532,7.372c-.228.646-.76.912-1.9.912-1.216,0-1.52-.19-1.52-.836V-26.03a36.223,36.223,0,0,1,.152-3.8,20.531,20.531,0,0,1-3.382.19h-4.788a20.308,20.308,0,0,1-3.344-.19,16.183,16.183,0,0,1,.152,2.318v5.738A81.349,81.349,0,0,1-76.874-5.32a16.592,16.592,0,0,1-2.7,6.27A9.374,9.374,0,0,1-77.6,2.85a22.563,22.563,0,0,0,3.534-9.766,121.9,121.9,0,0,0,.988-16.758Zm29.26,1.786a53.171,53.171,0,0,1-8.132-.418l-.038,2.622a6.738,6.738,0,0,1,.836-.038h.608c1.406.038,4.978.114,5.586.114a4.209,4.209,0,0,0,.722-.076l-.342.57c-2.736,4.864-5.89,8.854-8.512,10.868L-50.958-9.8a12.574,12.574,0,0,1,2.926-3.154c3.078-2.622,6.08-4.028,8.474-4.028,1.786,0,2.7.912,3,3a29.5,29.5,0,0,0-5.662,3.04c-2.584,1.938-3.876,3.914-3.876,6,0,3.914,3.306,5.852,10.108,5.852a58.952,58.952,0,0,0,9.234-.76,14.954,14.954,0,0,1,1.52-.19l-.342-2.926A31.84,31.84,0,0,1-35.72-1.482c-5.358,0-7.714-1.1-7.714-3.61,0-2.28,1.976-4.066,7.144-6.5a9.984,9.984,0,0,1,.038,1.14,54.647,54.647,0,0,1-.228,5.472l2.584-.038a8.26,8.26,0,0,1-.076-1.368c0-.342,0-.874.038-1.71.038-.76.038-1.6.038-2.09,0-.95,0-1.33-.076-2.318a63.092,63.092,0,0,1,10.146-3.344l-1.216-2.66a8.361,8.361,0,0,1-2.584,1.1C-29.3-16.8-31.464-16-34.238-14.9a4.612,4.612,0,0,0-5.016-4.218,10.113,10.113,0,0,0-5.738,1.862c-.38.266-.38.266-1.748,1.33a.292.292,0,0,1-.076-.114v-.038a.037.037,0,0,0,.038-.038c.038-.038.228-.19.494-.38.152-.114.912-.988,1.292-1.444a28.021,28.021,0,0,0,3.42-5.4,122.7,122.7,0,0,0,12.54-.988,11.846,11.846,0,0,1,1.52-.19l-.228-2.584c-2.09.684-5.89,1.14-11.97,1.444a6.469,6.469,0,0,0-.8.038c.19-.342.684-1.368,1.178-2.584a8.07,8.07,0,0,1,.988-2.052l-3.04-.532a16.127,16.127,0,0,1-1.824,5.206Zm51.946,8.55v-1.634A23.255,23.255,0,0,1,8.36-22.61h-3a20.3,20.3,0,0,1,.266,3.952v1.634h-17.86a25.918,25.918,0,0,1-3.838-.228v2.7a27.387,27.387,0,0,1,3.838-.228H5.624V-.722c0,.76-.38.95-1.824.95A36.622,36.622,0,0,1-1.33-.228,10.06,10.06,0,0,1-.456,2.394c1.444.076,3,.152,3.876.152,2.09,0,3.23-.152,3.762-.532a2.743,2.743,0,0,0,.95-2.47V-14.782h4.6a27.387,27.387,0,0,1,3.838.228v-2.7a25.918,25.918,0,0,1-3.838.228ZM-1.6-27.4H-11.932a37.165,37.165,0,0,1-3.8-.152,16.55,16.55,0,0,1,.152,2.584v2.47a17.3,17.3,0,0,1-.152,2.66h2.508v-5.32h26.6v5.32h2.508a17.615,17.615,0,0,1-.152-2.66v-2.47a15.941,15.941,0,0,1,.152-2.584,37.165,37.165,0,0,1-3.8.152H.874v-1.824a9.96,9.96,0,0,1,.266-2.356h-3A10.505,10.505,0,0,1-1.6-29.184Zm0,22.42a44.184,44.184,0,0,0-6.536-7.79l-2.014,1.52A33.155,33.155,0,0,1-3.762-3.23Zm30.7-25.8a7.617,7.617,0,0,1-.114,1.216A96.055,96.055,0,0,0,27.7-15.542v.874l.076,3.952.038.684v.418l2.736-.114c-.038-.57-.038-.76-.038-.912a19.832,19.832,0,0,1,2.052-8.474c2.166-4.446,4.6-6.612,7.486-6.612,3.648,0,5.776,3.534,5.776,9.652,0,6.08-2.09,10.07-6.536,12.616a20.079,20.079,0,0,1-7.714,2.394A7.843,7.843,0,0,1,33.1,1.52,28.764,28.764,0,0,0,39.862-.722c5.7-2.85,8.778-8.056,8.778-14.934,0-4.066-.684-6.878-2.28-9.234a7.153,7.153,0,0,0-6.08-3.382c-2.964,0-5.472,1.634-7.6,4.9a16.956,16.956,0,0,0-2.318,5.662c-.19.8-.19.8-.266,1.1l-.152-.038c.114-1.938.646-6.08,1.254-9.918a21.542,21.542,0,0,1,.874-3.914ZM69.616-17.936a24.623,24.623,0,0,1-2.47,4.408,13.533,13.533,0,0,1-1.52-2.052,41.558,41.558,0,0,0,3.952-7.106,8.454,8.454,0,0,1,.608-1.216l-1.064-1.33a8.245,8.245,0,0,1-1.786.114H65.664V-28.8a21.049,21.049,0,0,1,.19-2.85H63.27a18.827,18.827,0,0,1,.19,2.888v3.648H62.168a14.2,14.2,0,0,1-2.964-.19v2.47a23.378,23.378,0,0,1,3.078-.19H67.3A29.033,29.033,0,0,1,58.33-10.564a6.24,6.24,0,0,1,1.216,2.09,28.915,28.915,0,0,0,4.028-4.37c-.038,1.026-.114,3.268-.114,3.762V-.95a28.96,28.96,0,0,1-.228,3.914h2.66a27.279,27.279,0,0,1-.228-3.952V-9.766c0-.38-.038-1.368-.076-3a25.131,25.131,0,0,0,4.028,4.56A5.744,5.744,0,0,1,70.87-10.07,17.843,17.843,0,0,1,68.4-12.2a49.1,49.1,0,0,0,2.926-4.408ZM74.138-5.89h6V-.836A24.563,24.563,0,0,1,79.99,2.47h2.546a25.571,25.571,0,0,1-.152-3.344V-5.89h6.764v4.864c0,.8-.152.95-.988.95a23.622,23.622,0,0,1-3.382-.266,6.549,6.549,0,0,1,.608,2.394c1.14.076,1.71.114,2.584.114,1.71,0,2.242-.076,2.7-.494.532-.418.722-1.026.722-2.128v-17.1a28.58,28.58,0,0,1,.152-3.686,22.493,22.493,0,0,1-3.61.19H82.384v-3.8h6.84a25.852,25.852,0,0,1,3.382.152v-2.508a20.657,20.657,0,0,1-3.344.228H82.384v-1.178a22.732,22.732,0,0,1,.228-3.5h-2.7a22.9,22.9,0,0,1,.228,3.458v1.216h-6.46a17.2,17.2,0,0,1-3.078-.19v2.47a23.969,23.969,0,0,1,3-.152h6.536v3.8H75.354a24.6,24.6,0,0,1-3.61-.19,25.082,25.082,0,0,1,.152,3.61V-.912a27.218,27.218,0,0,1-.228,3.876h2.66a30.127,30.127,0,0,1-.19-3.914Zm0-1.976v-4.75h6v4.75Zm0-6.726v-4.446h6v4.446Zm8.246,6.726v-4.75h6.764v4.75Zm0-6.726v-4.446h6.764v4.446ZM90.44-28.88a25.96,25.96,0,0,0-4.788-2.926l-1.558,1.292a26.2,26.2,0,0,1,4.788,3.078Zm15.086,1.52a69.178,69.178,0,0,0,15.96,2.508l.418-2.736c-6.232-.076-11.742-.95-15.466-2.356Zm-3.952,12.35c2.964-1.216,10.564-2.546,14.478-2.546a10.584,10.584,0,0,1,4.674.836,4.61,4.61,0,0,1,2.432,4.256A8.507,8.507,0,0,1,121.22-7.3a9.3,9.3,0,0,1-3.268,2.7A24.123,24.123,0,0,1,107.274-1.52a9.643,9.643,0,0,1,1.216,2.774c5.662-1.064,8.132-1.862,11.02-3.61,4.218-2.584,6.536-6.194,6.536-10.26a6.759,6.759,0,0,0-3.23-6.042A12.085,12.085,0,0,0,116.28-20.1a63.493,63.493,0,0,0-11.59,1.368,29.9,29.9,0,0,1-3.838.646Z" transform="translate(629.113 9769.695)" fill="#3c505a"/>
        <g id="Rectangle_150" data-name="Rectangle 150" transform="translate(476.113 9723.695)" fill="none" stroke="#3c505a" stroke-width="1">
          <rect width="306.113" height="62" stroke="none"/>
          <rect x="0.5" y="0.5" width="305.113" height="61" fill="none"/>
        </g>
      </g>
    </g>
  </g>
</svg>
