<svg xmlns="http://www.w3.org/2000/svg" width="1000" height="559.696" viewBox="0 0 1000 559.696">
  <g id="Group_175" data-name="Group 175" transform="translate(-300 -8368.304)">
    <path id="Path_122" data-name="Path 122" d="M300,0H1300V400L300,482.7Z" transform="translate(0 8445.304)" fill="#ffbe00"/>
    <g id="Point" transform="translate(721 8368.304)">
      <g id="Ellipse_10" data-name="Ellipse 10" fill="#ffbe00" stroke="#3c505a" stroke-width="1">
        <circle cx="79.5" cy="79.5" r="79.5" stroke="none"/>
        <circle cx="79.5" cy="79.5" r="79" fill="none"/>
      </g>
      <path id="Path_249" data-name="Path 249" d="M13.9.1Q8.3-.3,4.4-.3q1.1,0-16,.3l-7.2.2A2.354,2.354,0,0,1-20-.45q-.8-.65-.8-1.05a1.157,1.157,0,0,1,.35-.85L-20-2.8-2.9-20.5A44.858,44.858,0,0,0,5.55-32.4,29.2,29.2,0,0,0,8.7-45.2a11.217,11.217,0,0,0-3.1-8.3A10.334,10.334,0,0,0-2-56.6a14.094,14.094,0,0,0-7.55,2.2,16.265,16.265,0,0,0-5.65,5.9,2.952,2.952,0,0,1-.8,1,1.51,1.51,0,0,1-.9.4q-.4,0-.95-.9a3.947,3.947,0,0,1-.55-2.1q0-1.7,2.7-4.9a24.291,24.291,0,0,1,7.15-5.6A20.01,20.01,0,0,1,1.1-63q7.4,0,11.7,4.55T17.1-46.5a22.613,22.613,0,0,1-2.05,8.8A35.793,35.793,0,0,1,9.8-29q-1.9,2.2-6.85,7.3T-4.2-14.3q-7,7-7,7.2,0,.3.4.45a5.446,5.446,0,0,0,1,.25q3.3.3,8.8.3,6,0,11.4-.3a17.391,17.391,0,0,0,6.05-1,9.6,9.6,0,0,0,3.45-3.7q1.4-2.3,2.5-2.3.7,0,.7,1.2a11.3,11.3,0,0,1-.8,2.6q-1.7,5.2-2.2,7.5Q19.6.3,17.9.3Z" transform="translate(80 121)" fill="#3c505a"/>
      <g id="Layer_2" data-name="Layer 2" transform="translate(24.875 11.01)">
        <g id="Group_292" data-name="Group 292" transform="translate(0.001 -0.01)">
          <path id="Path_153" data-name="Path 153" d="M18.566,29.31c2.941,2.812,3.361,3.1,5.268,1.487l.808-.679c.307-.032.727.469.646.727C23.7,32.4,22.8,33.285,21.733,34.416,20.6,35.6,19.681,36.63,18.55,37.923c-.242.081-.743-.291-.759-.614l.485-.663c1.325-1.842,1.05-2.214-1.907-5.025L6.011,21.748c-2.392-2.278-2.925-2.666-4.266-1.535l-1.083.9a.649.649,0,0,1-.646-.727A59.767,59.767,0,0,1,5.09,14.621c2.214-2.327,4.185-3.781,6.253-4.314a6.7,6.7,0,0,1,6.35,1.761,6.594,6.594,0,0,1,1.794,7.061,13.151,13.151,0,0,1-2.844,4.686c-.275.113-.695-.291-.582-.5,2.327-3.571,1.664-6.3-.792-8.629-2.731-2.6-6.011-2.682-8.807.242-1.422,1.487-1.325,1.616-.436,2.472L18.55,29.326Z" transform="translate(-0.001 6.24)" fill="#3c505a"/>
          <path id="Path_154" data-name="Path 154" d="M34.16,12.432c1.7,4.541-.194,8.984-4.735,10.681a7.659,7.659,0,0,1-10.245-4.686,8.163,8.163,0,0,1,4.8-10.746,7.763,7.763,0,0,1,10.2,4.751ZM23.948,8.926c-2.392.9-3.313,3.846-1.826,7.853,1.244,3.313,4.056,6.3,7.255,5.106s2.925-4.912,1.874-7.708c-1.163-3.086-3.862-6.544-7.32-5.252Z" transform="translate(11.456 4.422)" fill="#3c505a"/>
          <path id="Path_155" data-name="Path 155" d="M35.752,13.046c.032-1.519.032-1.713-1-2.424l-.339-.242c-.145-.162-.145-.582.048-.695a27.718,27.718,0,0,0,4.04-1.81.365.365,0,0,1,.388.242c-.113,1.357-.226,3.216-.259,4.8L38.483,19.9c-.065,2.8,0,3.183,1.406,3.41l.808.129a.674.674,0,0,1-.1.97c-1.163-.1-2.295-.162-3.636-.194-1.39-.032-2.553,0-3.652.032a.673.673,0,0,1-.065-.97l.824-.1c1.438-.162,1.487-.549,1.551-3.345l.145-6.787ZM39.21,2.058a1.9,1.9,0,0,1-2.1,1.971A1.923,1.923,0,0,1,35.17,2.042,2.023,2.023,0,0,1,37.3-.01a1.929,1.929,0,0,1,1.891,2.052Z" transform="translate(20.367 0.01)" fill="#3c505a"/>
          <path id="Path_156" data-name="Path 156" d="M47.4,10.815c.614-1.39.695-1.567,0-2.618l-.226-.355a.538.538,0,0,1,.323-.63,21.432,21.432,0,0,0,4.314-.162.43.43,0,0,1,.275.42c-.436.792-.663,1.309-.808,1.632a.411.411,0,0,0,.21.566,10.776,10.776,0,0,1,5.769.388c2.941,1.309,3.248,3.862,2.2,6.237l-2.7,6.092c-1.131,2.553-1.212,2.941-.016,3.684l.727.452a.668.668,0,0,1-.469.856c-1.034-.549-2.052-1.034-3.28-1.584-1.277-.566-2.359-1-3.345-1.357a.693.693,0,0,1,.323-.921l.727.194c1.406.372,1.584.065,2.715-2.488l2.343-5.284c.889-2.02.63-3.91-1.777-4.977a4.251,4.251,0,0,0-3.571-.1,3.249,3.249,0,0,0-1.47,1.891l-2.392,5.429c-1.131,2.553-1.2,2.909-.016,3.684l.6.388a.68.68,0,0,1-.469.856c-.921-.5-1.939-.986-3.183-1.535-1.277-.566-2.359-1-3.377-1.374a.693.693,0,0,1,.323-.921l.792.226c1.39.4,1.584.065,2.715-2.488L47.4,10.815Z" transform="translate(25.092 4.358)" fill="#3c505a"/>
          <path id="Path_157" data-name="Path 157" d="M65.757,20.33c-.452-.485-.549-.436-1.163.113l-5.349,4.9c-1.664,1.519-2.989,3.1-1.26,4.993a2.921,2.921,0,0,0,.856.646c.323.178.97.259,1.05.356.21.226,0,.63-.226.727a5.33,5.33,0,0,1-4.056-1.81c-2.246-2.456-1.341-4.234.372-5.8l6.561-5.995c.776-.711.808-.792.275-1.357l-.727-.808a.624.624,0,0,1,.517-.63,7.489,7.489,0,0,0,2.569,1.018,9.134,9.134,0,0,0,2.779-.339c.194.1.5.436.4.727l-1.293,1.18c-.517.469-.517.533-.065,1.018l2.909,3.183a1.243,1.243,0,0,1-1.18,1.131l-2.957-3.232Z" transform="translate(33.425 9.661)" fill="#3c505a"/>
        </g>
      </g>
    </g>
    <path id="Path_248" data-name="Path 248" d="M-289.2-7.21a15.688,15.688,0,0,0,5.53,5.39A16.515,16.515,0,0,0-274.295.7c10.15,0,17.15-6.65,17.15-16.31a12.415,12.415,0,0,0-3.57-8.96,11.409,11.409,0,0,0-6.3-3.43c4.41-1.05,6.51-2.03,8.68-4.34a14.5,14.5,0,0,0,3.71-9.87c0-7.14-5.39-11.83-13.44-11.83-5.18,0-9.31,1.75-12.32,5.32-2.8,3.29-5.18,8.61-7.28,16.24l-9.1,33.04a53.474,53.474,0,0,1-2.66,7.77h6.44a40.575,40.575,0,0,1,1.54-7.56Zm6.37-23.94c3.57-13.23,7.7-18.41,14.56-18.41,5.04,0,8.47,3.15,8.47,7.77a11.114,11.114,0,0,1-3.36,7.77q-3.465,3.36-10.08,3.36a18.98,18.98,0,0,1-3.92-.35l-1.4,5.32a22.894,22.894,0,0,1,4.27-.35,12.841,12.841,0,0,1,6.72,1.75,9.3,9.3,0,0,1,4.97,8.68,11.323,11.323,0,0,1-11.76,11.76,14.347,14.347,0,0,1-10.36-4.34,13.546,13.546,0,0,1-3.08-4.48Zm45.01,13.3a41.33,41.33,0,0,1,6.37-.35h8.33a41.208,41.208,0,0,1,6.44.35v-5.88a40.666,40.666,0,0,1-6.44.35h-8.33a40.24,40.24,0,0,1-6.37-.35Zm28.63-35.77a43.837,43.837,0,0,1,.56,7.84V-8.75a44.709,44.709,0,0,1-.56,8.33h6.51a44.709,44.709,0,0,1-.56-8.33V-38.64c0-1.82-.14-5.25-.42-8.54.98,1.89,3.29,5.88,3.85,6.72l22.47,33.74a47.349,47.349,0,0,1,3.64,6.3h7.63a40.023,40.023,0,0,1-.56-7.84V-45.57a43.827,43.827,0,0,1,.56-8.05h-6.51a44.316,44.316,0,0,1,.56,8.05v29.68c0,.63.14,3.71.42,9.31-1.68-3.01-3.78-6.44-4.55-7.63l-22.12-33.11a36.505,36.505,0,0,1-3.57-6.3Zm76.58,45.85a36.151,36.151,0,0,1,2.59,7.35h4.97a39.654,39.654,0,0,1,2.66-7.28l14.28-31.43a46.1,46.1,0,0,0,3.01-8.54c-.28,2.87-.49,6.65-.49,8.61V-8.68a46.819,46.819,0,0,1-.56,8.26h6.37a44.363,44.363,0,0,1-.56-8.26V-45.29a47.67,47.67,0,0,1,.56-8.33h-8.05a35.514,35.514,0,0,1-2.38,6.93l-17.22,38.57-17.29-38.57a33.525,33.525,0,0,1-2.31-6.93h-8.12a48.184,48.184,0,0,1,.56,8.33V-8.68a46.317,46.317,0,0,1-.56,8.26h6.37a44.363,44.363,0,0,1-.56-8.26V-38.64c0-1.68-.28-6.02-.49-9.03a64.534,64.534,0,0,0,3.15,8.68Zm43.75-45.85a43.837,43.837,0,0,1,.56,7.84V-8.75a44.709,44.709,0,0,1-.56,8.33h6.51a44.709,44.709,0,0,1-.56-8.33V-38.64c0-1.82-.14-5.25-.42-8.54.98,1.89,3.29,5.88,3.85,6.72l22.47,33.74a47.349,47.349,0,0,1,3.64,6.3h7.63a40.024,40.024,0,0,1-.56-7.84V-45.57a43.828,43.828,0,0,1,.56-8.05h-6.51a44.316,44.316,0,0,1,.56,8.05v29.68c0,.63.14,3.71.42,9.31-1.68-3.01-3.78-6.44-4.55-7.63l-22.12-33.11a36.506,36.506,0,0,1-3.57-6.3Zm80.78,1.05h-20.65a49.075,49.075,0,0,1-7.07-.42v4.62a52,52,0,0,1,6.93-.35h47.11a52,52,0,0,1,6.93.35v-4.62a49.013,49.013,0,0,1-6.93.42H-3.6v-1.4a24.341,24.341,0,0,1,.42-4.69H-8.5a25.629,25.629,0,0,1,.42,4.76Zm-16.1,17.29a51.317,51.317,0,0,1-.21,5.46,57.934,57.934,0,0,1,6.3-.28H7.735a54.232,54.232,0,0,1,6.44.28,35.414,35.414,0,0,1-.21-5.46v-3.78c0-2.38.07-3.36.21-5.39a47.691,47.691,0,0,1-5.95.28h-25.97a55.868,55.868,0,0,1-6.65-.28c.14,1.47.21,3.08.21,5.32Zm4.27-5.25H9.7v6.86h-29.61ZM-33.495-1.54a50.45,50.45,0,0,1-.42,7.07h5.18a43.52,43.52,0,0,1-.42-7.14V-21.77H18.8V-1.26c0,1.4-.35,1.61-2.87,1.61a53.7,53.7,0,0,1-7.91-.63,14.064,14.064,0,0,1,.91,4.34c4.48.21,4.9.21,6.51.21,3.71,0,4.9-.21,6.02-.98,1.19-.77,1.61-1.96,1.61-4.34V-19.6a56.945,56.945,0,0,1,.28-6.16,54.061,54.061,0,0,1-6.79.28h-43.4a64.461,64.461,0,0,1-6.93-.28,58.775,58.775,0,0,1,.28,6.3ZM8.645-12.67a41.232,41.232,0,0,1,.21-4.76c-1.82.14-3.5.21-6.16.21H-14.1c-2.59,0-4.06-.07-5.67-.21a50.235,50.235,0,0,1,.21,5.11v7a40.718,40.718,0,0,1-.35,5.81h4.55V-3.36H2.415c2.45,0,4.62.07,6.44.21a42.868,42.868,0,0,1-.21-4.97Zm-24.08-1.05H4.585v6.86h-20.02Zm105.07,1.47a35.394,35.394,0,0,1,6.16.35v-4.06a32.547,32.547,0,0,1-6.16.35H54.145c.28-3.15.42-5.11.42-7.49v-3.78h34.65a39.427,39.427,0,0,1,6.58.35v-4.2a37.842,37.842,0,0,1-6.65.35H56.385a45.248,45.248,0,0,1-6.09-.28,54.025,54.025,0,0,1,.28,6.51c0,12.88-2.03,20.37-7.14,26.11a10.963,10.963,0,0,1,3.57,2.87c3.64-4.62,5.67-9.87,6.72-17.08h6.65V-.21A50.256,50.256,0,0,1,52.815.84l1.26,4.27c1.75-.49,3.01-.77,6.86-1.68,6.44-1.47,8.47-1.96,14.49-3.78l-.28-3.64c-5.46,1.68-7.14,2.1-10.71,2.94v-11.2H70.6a26.249,26.249,0,0,0,7.56,9.52c4.62,3.71,9.66,6.09,16.73,7.77a15.925,15.925,0,0,1,2.1-4.06,34.468,34.468,0,0,1-12.81-4.13,56.719,56.719,0,0,0,8.33-6.02l-3.08-2.31a34.413,34.413,0,0,1-8.26,6.44,18.516,18.516,0,0,1-6.37-7.21ZM79.975-53.2v-.42a21.443,21.443,0,0,1,.35-4.55h-4.41a22.81,22.81,0,0,1,.28,4.48v.49h-7.98v-.49a22.809,22.809,0,0,1,.28-4.48h-4.41a19.906,19.906,0,0,1,.35,4.55v.42h-5.46a54.025,54.025,0,0,1-6.51-.28,44.418,44.418,0,0,1,.28,5.88v7.56a42.933,42.933,0,0,1-.28,5.95c1.82-.14,3.71-.21,6.16-.21h27.44c2.8,0,4.55.07,6.51.21a47.982,47.982,0,0,1-.28-6.09v-7.49a43.261,43.261,0,0,1,.28-5.81,52.562,52.562,0,0,1-6.51.28Zm-15.4,3.15v4.69H56.6v-4.69Zm3.64,0H76.2v4.69h-7.98Zm11.62,0h8.54v4.69h-8.54Zm-15.26,7.77v4.9H56.6v-4.9Zm3.64,0H76.2v4.9h-7.98Zm11.62,0h8.54v4.9h-8.54Zm-44.1-12.25a49.443,49.443,0,0,1,10.5,9.59l3.15-3.22a56.433,56.433,0,0,0-10.64-9.31Zm-2.87,17.22a48.528,48.528,0,0,1,11.27,8.96l2.73-3.5a57.73,57.73,0,0,0-11.34-8.61Zm10.36,16.87c-3.22,9.73-7,17.15-10.36,20.51l3.99,3.57c.28-.56.49-.91,2.38-4.27,2.87-4.9,4.62-8.89,7.35-16.94Zm48.37-2.8a37.431,37.431,0,0,1-5.32.28H63.735a36.809,36.809,0,0,1-5.32-.28v3.85a38.711,38.711,0,0,1,5.32-.28h22.47a41.158,41.158,0,0,1,5.39.28Zm34.79-14v6.86a41.151,41.151,0,0,1-.21,4.2,41.283,41.283,0,0,1,5.04-.14h15.61a37.04,37.04,0,0,1,4.55.14,37.364,37.364,0,0,1-.21-4.2v-6.86h8.4a36.634,36.634,0,0,1,6.37.35v-4.48a36.634,36.634,0,0,1-6.37.35h-8.4v-1.05a27.892,27.892,0,0,1,.28-4.69h-4.83a41.934,41.934,0,0,1,.28,4.62v1.12h-16.24v-1.19a30.527,30.527,0,0,1,.28-4.55h-4.83a28.586,28.586,0,0,1,.28,4.62v1.12h-12.74l.07-7.49h44.8a51.866,51.866,0,0,1,7.28.35v-4.62a49.125,49.125,0,0,1-7.63.42h-19.18v-2.03a26.713,26.713,0,0,1,.35-4.55h-5.18a22.87,22.87,0,0,1,.42,4.55v2.03h-18.41c-2.73,0-4.97-.14-7.21-.35a80.077,80.077,0,0,1,.28,8.54c0,15.75-.63,25.41-2.1,32.34A37.114,37.114,0,0,1,102.165.84a14.153,14.153,0,0,1,3.71,3.43c5.74-10.57,7.28-18.83,7.77-41.51Zm4.27,0H146.9v7.35h-16.24Zm24.01,16.17a43.474,43.474,0,0,1-4.83.21h-25.41a42.028,42.028,0,0,1-7.07-.35v4.34a43.767,43.767,0,0,1,6.93-.35,43.128,43.128,0,0,0,11.27,11.76c-6.65,3.22-13.23,5.04-23.52,6.37A13.928,13.928,0,0,1,114,5.25c10.85-1.89,18.06-4.2,25.41-8.26,7.35,4.2,14.28,6.44,24.78,7.98a17.322,17.322,0,0,1,2.1-4.62,61.972,61.972,0,0,1-22.82-5.81,63.221,63.221,0,0,0,11.34-10.22c1.19-1.4,1.54-1.75,2.38-2.66Zm-3.99,3.85c-4.41,4.76-6.79,6.79-11.2,9.52-4.9-3.08-7.63-5.6-10.29-9.52Zm34.09-34.65v8.12h-1.68a62.594,62.594,0,0,1-7-.28,67.309,67.309,0,0,1,.28,7.07V-3.43a53.341,53.341,0,0,1-.49,8.68h4.48V.7h19.18V3.78h4.34a64.957,64.957,0,0,1-.35-7.21V-37.17a64.73,64.73,0,0,1,.28-6.86,71.8,71.8,0,0,1-7.49.28h-1.05v-8.12h3.22a62.67,62.67,0,0,1,7,.35v-4.62a53.011,53.011,0,0,1-7.28.42h-16.87a50.451,50.451,0,0,1-7.07-.42v4.69a48.323,48.323,0,0,1,6.93-.42Zm3.43,0h3.64v8.12H188.2Zm-3.43,11.62c-.14,5.67-.28,7.77-.84,10.57a20.4,20.4,0,0,1-3.5,8.75,12.33,12.33,0,0,1,2.59,2.8c3.85-5.81,5.04-10.78,5.18-22.12h3.64v14.7c0,2.66.84,3.15,5.25,3.15.28,0,.63,0,2.45-.07v7.91h-19.18V-40.25Zm10.5,0h4.27v14.28c-1.05,0-1.61.07-1.75.07-2.24,0-2.59-.14-2.59-1.12Zm-14.91,29.26h19.18v7.91h-19.18Zm52.78-38.15c0-3.85.07-5.11.21-6.86a58.957,58.957,0,0,1-6.65.28h-11.69a51.216,51.216,0,0,1-7.21-.42v4.9a46.257,46.257,0,0,1,7.14-.35h13.79v17.36h-13.09a64.172,64.172,0,0,1-6.79-.28,43.954,43.954,0,0,1,.35,6.79V-2.45c0,4.97,1.82,5.88,11.76,5.88,13.79,0,14.49-.7,15.61-14.91a12.582,12.582,0,0,1-4.55-2.1c-.07,5.39-.63,9.66-1.4,11.06-.7,1.33-2.8,1.75-9.03,1.75-4.34,0-6.58-.21-7.35-.7-.49-.28-.63-.7-.63-1.89V-30.1h13.02a60.87,60.87,0,0,1,6.79.28,54.023,54.023,0,0,1-.28-6.51Zm38.78-8.89a50.924,50.924,0,0,1-10.78,12.18A73.009,73.009,0,0,1,242.1-33.67a12.167,12.167,0,0,1,2.94,3.99,80.936,80.936,0,0,0,14.84-9.1,65.222,65.222,0,0,0,14.7-15.33,58.8,58.8,0,0,0,10.78,11.76A97.848,97.848,0,0,0,305.1-29.47a18.119,18.119,0,0,1,2.8-4.41,73.4,73.4,0,0,1-19.18-11.48c-5.39-4.41-8.61-7.91-11.55-12.67Zm-13.65,26.04a40.257,40.257,0,0,1,5.46-.28H285.5a43.089,43.089,0,0,1,5.88.28v-4.76a41.8,41.8,0,0,1-5.88.28H263.8a35.776,35.776,0,0,1-5.53-.28Zm-.49,36.54V.49h33.81V4.55h5.04a48.651,48.651,0,0,1-.42-6.86V-17.78a42.307,42.307,0,0,1,.35-6.44,37.1,37.1,0,0,1-5.46.28h-32.83a37.1,37.1,0,0,1-5.46-.28,44.023,44.023,0,0,1,.35,6.44V-2.31a50.81,50.81,0,0,1-.42,6.86Zm0-24.22h33.81V-3.64h-33.81Z" transform="translate(800 8786)" fill="#3c505a"/>
    <path id="Path_247" data-name="Path 247" d="M-106.6-16.36a27.66,27.66,0,0,1,4.04.24v-2.84a25.832,25.832,0,0,1-4.04.24h-16.56l2.12-4.48c.36-.8.36-.8.64-1.36l-2.88-.64a25.758,25.758,0,0,1-2.68,6.48h-7.12a21.675,21.675,0,0,1-4.04-.24v2.84a28.432,28.432,0,0,1,4.04-.24h5.84a51.249,51.249,0,0,1-5.2,7.56,82.1,82.1,0,0,1,10.88,3.32A24.918,24.918,0,0,1-125.96-3,45.369,45.369,0,0,1-137.2.24a8.889,8.889,0,0,1,1.48,2.52,45.781,45.781,0,0,0,5.48-1.4,48.215,48.215,0,0,0,7.32-3.04,21.836,21.836,0,0,0,4.04-2.76,81.637,81.637,0,0,1,13.52,6.96l1.92-2.28A111.662,111.662,0,0,0-117-6.2c2.84-3,4.12-5.24,5.88-10.16Zm-7.28,0a19.314,19.314,0,0,1-2.68,5.68,20.329,20.329,0,0,1-2.96,3.52A84.167,84.167,0,0,0-128.44-10a61.136,61.136,0,0,0,4.04-6.36Zm-7.84-12.48H-132.4a35.754,35.754,0,0,1-4.28-.2,24.25,24.25,0,0,1,.2,3.04v2.28a20.964,20.964,0,0,1-.2,2.8H-134v-5.6h27.96v5.6h2.68a15.641,15.641,0,0,1-.2-2.8V-26a17.615,17.615,0,0,1,.2-3.04,36.446,36.446,0,0,1-4.32.2h-11.44v-1a19.165,19.165,0,0,1,.24-3.32h-3.08a20.5,20.5,0,0,1,.24,3.32ZM-81.04-2.2a13.443,13.443,0,0,1-4.32-2.44,12.234,12.234,0,0,1-3.16-4.4c.28-.96.88-3.28,1.08-4.24l.48-2.08-2.8-.56v.4A25.3,25.3,0,0,1-92.2-6.4,21.291,21.291,0,0,1-97.6.72,7.422,7.422,0,0,1-95.52,2.6a27.056,27.056,0,0,0,6.08-9.08C-87.32-2.24-83.4.16-77.16,1.04c2.04.28,2.84.32,8.76.32,1.08,0,1.36,0,4.84-.08a7.409,7.409,0,0,1,.88-2.8c-3.36.28-6.12.4-9.36.4a35.856,35.856,0,0,1-6.52-.44v-8.88h7.72A21.362,21.362,0,0,1-67-10.2v-2.72a24.039,24.039,0,0,1-3.84.24h-7.72V-19.2h7a26.1,26.1,0,0,1,3.96.24v-2.76a25.743,25.743,0,0,1-3.96.24H-88.12a25.743,25.743,0,0,1-3.96-.24v2.76a27.227,27.227,0,0,1,3.96-.24h7.08Zm-.6-26.4H-92.48c-1.6,0-2.76-.04-4.04-.16a18.089,18.089,0,0,1,.16,2.72v2.52a19.118,19.118,0,0,1-.16,2.84h2.64v-5.6h27.92v5.6h2.6a19.116,19.116,0,0,1-.16-2.84v-2.52a18.088,18.088,0,0,1,.16-2.72c-1.28.12-2.44.16-4,.16H-79.04v-1.96a10.484,10.484,0,0,1,.28-2.48h-3.12a13.763,13.763,0,0,1,.24,2.52Zm43.6,14.28a63.853,63.853,0,0,0,12.6-8.76c1.88-1.72,1.88-1.72,2.44-2.2l-2.32-2.12a28.185,28.185,0,0,1-5.72,5.56,54.337,54.337,0,0,1-7,4.6V-28.56a31.211,31.211,0,0,1,.24-4.32h-3.12a37.9,37.9,0,0,1,.24,4.32V-2.04c0,3.12,1.04,3.6,7.72,3.6,6,0,7.96-.36,8.96-1.68.84-1.16,1.4-3.44,1.88-7.84A9.129,9.129,0,0,1-24.76-9.2c-.32,4.32-.72,6.44-1.36,7.32-.6.72-2.12.96-6.68.96-4.64,0-5.24-.2-5.24-1.6ZM-51.52-2a47.453,47.453,0,0,1-.28,4.96h3.12c-.16-1.64-.24-3.28-.24-4.84V-22.84c1.48-3.32,2.84-6.52,3.2-7.44.68-1.84.68-1.84.84-2.24l-2.96-.84a17.8,17.8,0,0,1-1.36,4.8,37.437,37.437,0,0,1-9.04,13.48,14.537,14.537,0,0,1,1.72,2.32,32.2,32.2,0,0,0,5.08-6.72c-.08,2.12-.08,2.64-.08,4.88Zm45.4-24.92a55.969,55.969,0,0,1-8.56-.44l-.04,2.76a7.093,7.093,0,0,1,.88-.04h.64c1.48.04,5.24.12,5.88.12a4.43,4.43,0,0,0,.76-.08l-.36.6c-2.88,5.12-6.2,9.32-8.96,11.44l2.24,2.24a13.236,13.236,0,0,1,3.08-3.32c3.24-2.76,6.4-4.24,8.92-4.24,1.88,0,2.84.96,3.16,3.16a31.051,31.051,0,0,0-5.96,3.2C-7.16-9.48-8.52-7.4-8.52-5.2-8.52-1.08-5.04.96,2.12.96a62.055,62.055,0,0,0,9.72-.8,15.741,15.741,0,0,1,1.6-.2l-.36-3.08A33.515,33.515,0,0,1,2.4-1.56c-5.64,0-8.12-1.16-8.12-3.8,0-2.4,2.08-4.28,7.52-6.84A10.511,10.511,0,0,1,1.84-11,57.524,57.524,0,0,1,1.6-5.24l2.72-.04a8.7,8.7,0,0,1-.08-1.44c0-.36,0-.92.04-1.8.04-.8.04-1.68.04-2.2,0-1,0-1.4-.08-2.44a66.412,66.412,0,0,1,10.68-3.52l-1.28-2.8a8.8,8.8,0,0,1-2.72,1.16c-1.76.64-4.04,1.48-6.96,2.64a4.855,4.855,0,0,0-5.28-4.44,10.645,10.645,0,0,0-6.04,1.96c-.4.28-.4.28-1.84,1.4a.308.308,0,0,1-.08-.12v-.04a.039.039,0,0,0,.04-.04c.04-.04.24-.2.52-.4.16-.12.96-1.04,1.36-1.52a29.5,29.5,0,0,0,3.6-5.68A129.155,129.155,0,0,0,9.44-25.6a12.469,12.469,0,0,1,1.6-.2l-.24-2.72C8.6-27.8,4.6-27.32-1.8-27a6.809,6.809,0,0,0-.84.04c.2-.36.72-1.44,1.24-2.72A8.495,8.495,0,0,1-.36-31.84l-3.2-.56c-.12,1.28-.6,2.68-1.92,5.48ZM41.6-16.08v-2.24a15.965,15.965,0,0,1,.24-3.24H39.12a26.018,26.018,0,0,1,.16,3.28v2.92l-.28.08a21.075,21.075,0,0,1-2.8.68l.52,2.64A22.629,22.629,0,0,1,39.28-13V-1.48c0,2.96,1.28,3.44,9.16,3.44,8.48,0,8.8-.24,9.48-7.44a7.7,7.7,0,0,1-2.48-1c-.08,3.04-.36,4.92-.84,5.44-.44.52-1.84.68-6.04.68-6.52,0-6.96-.12-6.96-1.76v-11.6l4.56-1.48v6.64A24.622,24.622,0,0,1,46-5.2h2.6a18.224,18.224,0,0,1-.2-3.36v-7.36l5.32-1.72a61.9,61.9,0,0,1-.44,7.88c-.12.84-.44,1.2-1.16,1.2a19.711,19.711,0,0,1-2.6-.32,9.659,9.659,0,0,1,.56,2.36c.88.08,1.72.12,2.2.12,1.48,0,2.28-.28,2.68-.96.6-1.08.84-3.36,1.04-9.56.04-.84.04-1.32.16-3.88a28.51,28.51,0,0,1-3.28,1.2L48.4-18.2v-2.36a18.814,18.814,0,0,1,.24-3.24H45.96a25.935,25.935,0,0,1,.2,3.32v2.96ZM28.44-26.8H25.28a20.878,20.878,0,0,1-3.48-.24v2.68a18.761,18.761,0,0,1,3.36-.2h1.16a120.863,120.863,0,0,1-.56,12.16c-.64,5.76-2,9.36-4.88,12.88a8.269,8.269,0,0,1,1.88,2,25.053,25.053,0,0,0,4.52-9.52,50.451,50.451,0,0,0,1.2-9.84H33a100.014,100.014,0,0,1-.68,13.4C31.92-.76,31.68-.4,30.28-.4a12.3,12.3,0,0,1-3.24-.44,9.428,9.428,0,0,1,.48,2.6c1.08.08,2.2.16,2.72.16a4.968,4.968,0,0,0,2.88-.6C33.76.84,34.2-.4,34.56-2.6a116.8,116.8,0,0,0,.76-14.16c0-1,.04-1.72.08-2.48a17.557,17.557,0,0,1-2.8.16H28.56c.08-3.2.08-3.2.16-5.48h4.92a26.443,26.443,0,0,1,3.56.16V-27a22.825,22.825,0,0,1-3.56.2H30.92v-2.64a20.013,20.013,0,0,1,.24-3.68H28.2a24.67,24.67,0,0,1,.24,3.68Zm25.12,1.44a40.289,40.289,0,0,1,4.08.16v-2.68a25.711,25.711,0,0,1-4.08.24H42.08c.52-1.16.76-1.68,1.44-3.32a9,9,0,0,1,.72-1.68l-2.68-.64a11.382,11.382,0,0,1-.56,2A30.077,30.077,0,0,1,34.68-20.4a4.933,4.933,0,0,1,1.92,1.6,43.765,43.765,0,0,0,4.32-6.56ZM69.28-31.2a12.3,12.3,0,0,1,.16,2.12c0,.64,0,1.4-.04,2.6-.32,12.6-.36,13.6-.36,16.28,0,4.2.56,6.32,2.2,8.2C72.84-.16,75.36.8,78.76.8a14,14,0,0,0,11.28-5c1.76-2.04,2.92-4.4,4.44-9.08A11.315,11.315,0,0,1,91.6-15.2a23.762,23.762,0,0,1-1.96,6.28c-2.28,4.56-5.96,6.96-10.72,6.96a7.55,7.55,0,0,1-5-1.56c-1.2-1.08-1.72-2.4-1.88-4.8-.04-.92-.08-1.92-.08-2.4,0-1.8.12-7.24.28-12.04a61.672,61.672,0,0,1,.52-8.44Zm35.16,8.88a5.956,5.956,0,0,1,.68-.04h.16c1.56.08,1.92.08,3.32.08,1.48,0,1.96,0,2.76-.04-1.48,7.84-4.56,16.96-7.52,22.12l2.92,1.24a105.4,105.4,0,0,0,4.6-12.2c1.08-3.64,2.2-8.16,2.8-11.32a58.467,58.467,0,0,0,6.76-.96c.8-.16.8-.16,1.12-.2l-.2-2.76a32.982,32.982,0,0,1-7.2,1.36c.2-1.2.32-1.76.52-3.04a37.817,37.817,0,0,1,.72-3.8l-3.16-.32c0,1.76-.08,2.44-.88,7.36-1.16.08-1.6.08-2.4.08a27.586,27.586,0,0,1-5-.36Zm30.2,1.96c-3-.12-3.6-.12-4.36-.12a45.319,45.319,0,0,0-10.6,1.32l.28,2.72a34.814,34.814,0,0,1,10-1.36,40.158,40.158,0,0,1,4.72.28Zm-14.56,8.64C117.96-9,117.4-7.76,117.4-5.96c0,3.96,3.4,6,9.96,6a40.082,40.082,0,0,0,7.12-.68c1.32-.2,1.32-.2,1.76-.28l-.28-3a29.719,29.719,0,0,1-8.84,1.36c-4.56,0-7-1.28-7-3.68a4.814,4.814,0,0,1,1-2.84,13.406,13.406,0,0,1,1.2-1.52Z" transform="translate(800 8678)" fill="#3c505a"/>
    <path id="Path_246" data-name="Path 246" d="M8-9.44a1.209,1.209,0,0,0,1.2-1.2A1.209,1.209,0,0,0,8-11.84a1.209,1.209,0,0,0-1.2,1.2A1.209,1.209,0,0,0,8-9.44Zm0,2.9-5.28-5.28-.464.464,5.28,5.28-5.3,5.3L2.7-.32,8-5.616l5.28,5.28L13.744-.8,8.464-6.08l5.28-5.28-.464-.464ZM4.64-6.08a1.209,1.209,0,0,0-1.2-1.2,1.209,1.209,0,0,0-1.2,1.2,1.209,1.209,0,0,0,1.2,1.2A1.209,1.209,0,0,0,4.64-6.08Zm6.72,0a1.209,1.209,0,0,0,1.2,1.2,1.209,1.209,0,0,0,1.2-1.2,1.209,1.209,0,0,0-1.2-1.2A1.209,1.209,0,0,0,11.36-6.08ZM8-2.72a1.209,1.209,0,0,0-1.2,1.2A1.209,1.209,0,0,0,8-.32a1.209,1.209,0,0,0,1.2-1.2A1.209,1.209,0,0,0,8-2.72ZM16.7,0H24.08V-1.264H20.832c-.592,0-1.312.064-1.92.112C21.664-3.76,23.5-6.144,23.5-8.48A3.218,3.218,0,0,0,20.1-11.952a4.486,4.486,0,0,0-3.456,1.728l.848.832a3.284,3.284,0,0,1,2.432-1.36,2.062,2.062,0,0,1,2.16,2.32c0,2.016-1.7,4.352-5.376,7.568Z" transform="translate(753 8724)" fill="#3c505a"/>
    <g id="Group_215" data-name="Group 215" transform="translate(64 6)">
      <g id="Group_174" data-name="Group 174" transform="translate(-55 -1183.695)">
        <g id="Union_2" data-name="Union 2" transform="translate(2396 -7818.305)" fill="#3c505a">
          <path d="M -1278.501586914062 17603.501953125 L -1440.500122070312 17603.501953125 L -1440.500122070312 17579 L -1440.500122070312 17578.779296875 L -1440.662231445312 17578.630859375 L -1446.259887695312 17573.5 L -1440.662231445312 17568.369140625 L -1440.500122070312 17568.220703125 L -1440.500122070312 17568 L -1440.500122070312 17542.5 L -1278.501586914062 17542.5 L -1278.501586914062 17603.501953125 Z" stroke="none"/>
          <path d="M -1279.001586914062 17603.001953125 L -1279.001586914062 17543 L -1440.000122070312 17543 L -1440.000122070312 17568.439453125 L -1440.324340820312 17568.736328125 L -1445.519897460938 17573.5 L -1440.000122070312 17578.560546875 L -1440.000122070312 17603.001953125 L -1279.001586914062 17603.001953125 M -1278.001586914062 17604.001953125 L -1441.000122070312 17604.001953125 L -1441.000122070312 17579 L -1446.999755859375 17573.5 L -1441.000122070312 17568 L -1441.000122070312 17542 L -1278.001586914062 17542 L -1278.001586914062 17604.001953125 Z" stroke="none" fill="#3c505a"/>
        </g>
        <path id="Path_245" data-name="Path 245" d="M-53.566-22.269v8.307h-7.839a22.991,22.991,0,0,1-3.783-.195v2.691a25.252,25.252,0,0,1,3.9-.2h7.722v10.14h-11.31a31.055,31.055,0,0,1-4.251-.234V1.092a28.689,28.689,0,0,1,4.29-.273h26.169a29.4,29.4,0,0,1,4.212.273V-1.755a31.629,31.629,0,0,1-4.212.234H-50.836v-10.14h8.5a23.88,23.88,0,0,1,3.783.2v-2.691a23.58,23.58,0,0,1-3.783.195h-8.5v-8.307h10.452a27.2,27.2,0,0,1,4.1.195V-24.8a28.975,28.975,0,0,1-4.1.234H-63.512a28.221,28.221,0,0,1-4.095-.234v2.73a25.34,25.34,0,0,1,4.095-.195Zm-4.485-8.5a37.126,37.126,0,0,1,9.438,5.031l1.6-2.106a44.119,44.119,0,0,0-9.321-4.836ZM-.916-20.592c-.429,2.847-2.457,7.371-4.8,10.725a45.808,45.808,0,0,1-2.574-14.04H-.058a32.169,32.169,0,0,1,4.368.195v-2.652a21.224,21.224,0,0,1-4.173.234h-8.5c-.078-1.833-.078-2.418-.078-3.12a16.831,16.831,0,0,1,.195-3.2h-3c.195.9.234,1.521.39,6.318H-22.367a41.306,41.306,0,0,1-4.758-.195,25.58,25.58,0,0,1,.234,4.563c0,7.605-.429,12.87-1.287,16.38a15.96,15.96,0,0,1-2.73,5.85A7.193,7.193,0,0,1-28.84,2.223,18.393,18.393,0,0,0-25.876-4.6a54.364,54.364,0,0,0,1.248-10.764h7.8a58.371,58.371,0,0,1-.507,7.644c-.273,1.716-.585,2.067-1.872,2.067a20.25,20.25,0,0,1-4.6-.624,9.113,9.113,0,0,1,.468,2.535,23.2,23.2,0,0,0,4.095.351c2.184,0,3.042-.351,3.627-1.56.546-1.131.936-3.978,1.17-8.385a38.023,38.023,0,0,1,.273-4.368,19.256,19.256,0,0,1-2.925.156H-24.55c.039-1.638.078-2.964.078-6.357h13.728A49.507,49.507,0,0,0-7.43-7.683,28.248,28.248,0,0,1-19.013.39,6.642,6.642,0,0,1-17.1,2.379,33.165,33.165,0,0,0-6.3-5.382,18.973,18.973,0,0,0-3.061-1.014C-1.54.507.02,1.4,1.034,1.4S2.827.78,3.451-.468a16.355,16.355,0,0,0,1.4-4.758A10.719,10.719,0,0,1,2.75-6.942C2.282-3.354,1.619-1.326.994-1.326a3.691,3.691,0,0,1-1.677-.9A13.959,13.959,0,0,1-4.621-7.41C-2.4-10.335-1.657-11.739.566-16.926c.663-1.56,1.053-2.418,1.17-2.613Zm2.145-7.8a30.54,30.54,0,0,0-5.577-3.861l-1.677,1.365A25.8,25.8,0,0,1-.41-26.754ZM21.977-16.068a18.883,18.883,0,0,1-2.106,8.034C18-4.485,15.035-1.911,10.042.507a8.15,8.15,0,0,1,1.716,2.184c4.758-2.457,7.8-5.109,9.828-8.5a22.21,22.21,0,0,0,3.042-10.257h9.087c0,6.747-.468,12.051-1.287,14.43-.273.741-.7.975-1.95.975a30.046,30.046,0,0,1-5.5-.663A10.811,10.811,0,0,1,25.6,1.443c2.457.234,3.822.312,5.109.312,2.262,0,3.2-.39,3.861-1.56,1.014-1.833,1.755-8.424,1.755-15.99a17.231,17.231,0,0,1,.156-2.769,29.509,29.509,0,0,1-4.095.195H19.559A29.935,29.935,0,0,1,15.5-18.6v2.769a31.405,31.405,0,0,1,4.017-.234Zm-1.6-16.185A12.543,12.543,0,0,1,18.7-28.158,32.135,32.135,0,0,1,8.014-16.731a8.584,8.584,0,0,1,1.911,2.106A38.712,38.712,0,0,0,22.211-29.25,10.642,10.642,0,0,1,23.3-31.239Zm8.658,1.092c.195.312.429.741.624,1.092C33.326-22.893,36.64-18.954,42.8-14.391a9.62,9.62,0,0,1,1.833-2.379A32.525,32.525,0,0,1,33.131-28.9a15.789,15.789,0,0,1-1.482-3.276ZM64.135-.234a43.858,43.858,0,0,1,4.8.234V-3.276A34.048,34.048,0,0,1,64.174-3H51.733a10.929,10.929,0,0,1,2.223-4.524c1.287-1.638,2.535-2.73,5.616-4.8,4.446-2.964,5.46-3.705,6.63-5.031a8.14,8.14,0,0,0,2.3-5.538c0-4.6-3.783-7.566-9.672-7.566-3.432,0-6.084,1.014-7.839,3-1.287,1.443-1.872,2.808-2.457,5.616l3.276.546a7.891,7.891,0,0,1,1.365-3.939c1.17-1.677,3.081-2.535,5.655-2.535,3.978,0,6.474,1.911,6.474,4.875,0,2.379-1.287,4.095-5.148,6.708-4.524,3.081-4.6,3.12-5.967,4.29a17.119,17.119,0,0,0-5.07,6.708A17.908,17.908,0,0,0,47.989-.039a27.931,27.931,0,0,1,4.29-.195Z" transform="translate(1035 9769.695)" fill="#fff"/>
      </g>
      <g id="Group_173" data-name="Group 173" transform="translate(-45 -1183.695)">
        <path id="Path_244" data-name="Path 244" d="M-220.894-23.9h-2.2a17.119,17.119,0,0,1-2.888-.228v2.508a22.036,22.036,0,0,1,2.812-.152h2.28V-13.3a21.757,21.757,0,0,1-5.434,1.6l.722,2.622a20.9,20.9,0,0,1,2.128-.874c.95-.342,1.862-.684,2.584-.95v10.3c0,.684-.342.912-1.292.912a19.2,19.2,0,0,1-2.926-.266,8.39,8.39,0,0,1,.494,2.394,16,16,0,0,0,1.748.076c3.458,0,4.37-.57,4.37-2.7v-11.7c2.014-.836,2.47-1.064,4.1-1.824l.038-2.356a33.789,33.789,0,0,1-4.142,1.862v-7.562h1.1a16.338,16.338,0,0,1,2.546.152v-2.47a11.72,11.72,0,0,1-2.584.19H-218.5v-3.8a21.726,21.726,0,0,1,.266-3.8h-2.926a22.373,22.373,0,0,1,.266,3.876Zm15.352-1.672h-4.788a27.139,27.139,0,0,1-3.99-.228v2.622c1.14-.114,2.508-.19,3.914-.19h14.288c1.52,0,2.85.076,3.99.19V-25.8a27.5,27.5,0,0,1-3.99.228h-7.03v-2.85a17.693,17.693,0,0,1,.19-3h-2.774a19.576,19.576,0,0,1,.19,2.964Zm4.56,8.056V-.3c0,1.748.874,2.242,4.028,2.242,4.56,0,4.978-.646,5.472-8.322a9.823,9.823,0,0,1-2.28-.912,27.589,27.589,0,0,1-.532,6.08c-.266.76-.646.912-2.356.912-1.6,0-1.938-.152-1.938-.836V-16.53a23.5,23.5,0,0,1,.152-3.306,24.56,24.56,0,0,1-3.5.152h-5.358a26.344,26.344,0,0,1-3.5-.152,24.289,24.289,0,0,1,.152,3.268c0,10.26-1.52,14.212-6.688,17.442a8.194,8.194,0,0,1,1.9,1.9,14.425,14.425,0,0,0,4.978-5.586c1.558-3.23,2.09-6.764,2.2-14.706Zm29.336,1.064a69.513,69.513,0,0,1-16.72,8.132,8.3,8.3,0,0,1,1.558,2.166,89.811,89.811,0,0,0,8.284-3.686v8.056c0,1.71.342,2.432,1.406,2.888,1.292.608,3.268.8,7.79.8,11.058,0,11.286-.114,11.97-7.334a6.616,6.616,0,0,1-2.394-1.14c-.152,3.154-.38,4.522-.912,5.206-.608.76-2.432.988-7.372.988a48.722,48.722,0,0,1-6.118-.228c-1.52-.228-1.938-.57-1.938-1.558V-5.4a91.161,91.161,0,0,0,10.184-3.116c2.394-.874,3.724-1.444,5.32-2.166a3.291,3.291,0,0,0,.456-.19c.342-.152.342-.152.532-.228l-1.938-2.09a15.311,15.311,0,0,1-3.572,1.862A78.462,78.462,0,0,1-176.092-7.6v-3.572a81.029,81.029,0,0,0,8.132-5.282h9.386a32.679,32.679,0,0,1,4.142.228v-2.66a26.206,26.206,0,0,1-4.066.228h-6.65a57.724,57.724,0,0,0,7.334-7.258c.874-1.064,1.026-1.254,1.6-1.862l-2.432-1.52c-1.33,2.85-5.206,6.992-9.88,10.64h-2.85v-5.4h4.218a27.711,27.711,0,0,1,4.028.19v-2.584a26.1,26.1,0,0,1-4.1.228h-4.142v-1.558a22.4,22.4,0,0,1,.228-3.686h-2.888a19.087,19.087,0,0,1,.228,3.648v1.6h-6.422a25.912,25.912,0,0,1-4.18-.228v2.584a29.775,29.775,0,0,1,4.18-.19h6.422v5.4h-9.5a27.715,27.715,0,0,1-4.256-.228v2.66a34.19,34.19,0,0,1,4.256-.228Zm40.508,2.85a60.66,60.66,0,0,0,11.97-8.322c1.786-1.634,1.786-1.634,2.318-2.09l-2.2-2.014a26.775,26.775,0,0,1-5.434,5.282,51.62,51.62,0,0,1-6.65,4.37V-27.132a29.652,29.652,0,0,1,.228-4.1h-2.964a36.007,36.007,0,0,1,.228,4.1V-1.938c0,2.964.988,3.42,7.334,3.42,5.7,0,7.562-.342,8.512-1.6.8-1.1,1.33-3.268,1.786-7.448a8.673,8.673,0,0,1-2.508-1.178c-.3,4.1-.684,6.118-1.292,6.954-.57.684-2.014.912-6.346.912-4.408,0-4.978-.19-4.978-1.52ZM-143.944-1.9a45.078,45.078,0,0,1-.266,4.712h2.964c-.152-1.558-.228-3.116-.228-4.6V-21.7c1.406-3.154,2.7-6.194,3.04-7.068.646-1.748.646-1.748.8-2.128l-2.812-.8a16.908,16.908,0,0,1-1.292,4.56,35.565,35.565,0,0,1-8.588,12.806,13.81,13.81,0,0,1,1.634,2.2,30.594,30.594,0,0,0,4.826-6.384c-.076,2.014-.076,2.508-.076,4.636Zm37.2-25.916a26.58,26.58,0,0,1-1.292,5.966,25.845,25.845,0,0,1-5.244,9.652,6.336,6.336,0,0,1,1.368,2.28,17.388,17.388,0,0,0,2.85-4.636c-.076,1.71-.114,2.888-.114,4.256v8.436a23.041,23.041,0,0,1-.228,3.686h2.508V-2.2h4.712V-.3h2.394A24.857,24.857,0,0,1-99.94-3.5V-15.238a28.045,28.045,0,0,1,.114-3.04,17.367,17.367,0,0,1-2.356.114h-4.75a37.212,37.212,0,0,0,2.622-9.652h2.356a24.855,24.855,0,0,1,3.078.152v-2.508a14.834,14.834,0,0,1-3.192.228h-6.194a20.385,20.385,0,0,1-3.42-.228v2.584a16.264,16.264,0,0,1,3.268-.228Zm-.152,11.666h4.712V-4.256h-4.712Zm13.528-11.666V-17.29h-1.14a24.657,24.657,0,0,1-3.762-.19v2.66a21.158,21.158,0,0,1,3.762-.228h1.064C-93.784-7.22-95.57-2.47-99.56,1.33a6.9,6.9,0,0,1,2.2,1.71c4.332-5.016,5.966-9.614,6.346-18.088h6.27V-1.406a28.48,28.48,0,0,1-.266,4.066h2.926a28.85,28.85,0,0,1-.266-4.066V-15.048h1.216a24.665,24.665,0,0,1,3.8.228v-2.7a20.141,20.141,0,0,1-3.8.228h-1.216V-27.816h.912a20.005,20.005,0,0,1,3.686.228V-30.21a25.356,25.356,0,0,1-3.8.228H-93.556a23.242,23.242,0,0,1-3.838-.228v2.622a24.744,24.744,0,0,1,3.686-.228Zm2.432,0h6.194V-17.29h-6.194V-27.816Zm32.376.266H-69.084a32.053,32.053,0,0,1-3.838-.19,17.079,17.079,0,0,1,.152,2.622v1.9a18.271,18.271,0,0,1-.152,2.66h2.508v-4.826h8.094a7.188,7.188,0,0,1-2.318,5.016c-1.634,1.52-3.534,2.28-7.6,3.04a10.385,10.385,0,0,1,1.444,2.09,35.227,35.227,0,0,0,3.534-1.1,10.7,10.7,0,0,0,6-4.826,10.408,10.408,0,0,0,1.33-4.218h4.674v6.536c0,1.672.95,2.09,4.94,2.09,2.7,0,4.218-.266,4.9-.836.646-.57.95-1.634,1.14-4.028a7.91,7.91,0,0,1-2.28-.722c-.038,1.748-.228,2.774-.646,3.078a7.022,7.022,0,0,1-3.078.418,7.433,7.433,0,0,1-2.432-.266c-.19-.114-.266-.3-.266-.76v-5.51h9.462v4.864H-41a17.616,17.616,0,0,1-.152-2.66v-1.938A17.079,17.079,0,0,1-41-27.74a32.053,32.053,0,0,1-3.838.19H-56.126v-1.178a11.087,11.087,0,0,1,.266-2.736h-2.964a11.711,11.711,0,0,1,.266,2.736Zm.076,14.9c.152-.95.228-1.9.3-2.812a11.529,11.529,0,0,1,.3-2.394l-2.888-.038a12.745,12.745,0,0,1,.152,2.052,26.968,26.968,0,0,1-.266,3.192h-6.536a25.644,25.644,0,0,1-4.028-.228v2.7a27.116,27.116,0,0,1,4.1-.228h6a12.418,12.418,0,0,1-5.282,7.448,23.725,23.725,0,0,1-7.3,3.42,5.861,5.861,0,0,1,1.672,2.166A25.644,25.644,0,0,0-65.93-.494a16.761,16.761,0,0,0,4.066-3.648,14.573,14.573,0,0,0,2.964-6.27h7.068l-.152,8.93v.19c0,2.546.988,3.04,5.624,3.04,6.118,0,6.346-.228,6.954-7.828a9.334,9.334,0,0,1-2.47-.988,22.208,22.208,0,0,1-.608,5.7c-.266.684-1.026.874-3.686.874-2.964,0-3.382-.152-3.382-1.292L-49.4-9.5c.038-1.71.076-2.508.152-3.344a33.827,33.827,0,0,1-4.256.19Zm41.534-12.54a10.936,10.936,0,0,1,4.408.95A10.018,10.018,0,0,1-6.5-14.706a11.471,11.471,0,0,1-6.726,10.64A22.778,22.778,0,0,1-19.57-2.28,6.038,6.038,0,0,1-18.24.266a29.4,29.4,0,0,0,5.776-1.748,13.837,13.837,0,0,0,8.7-13.11,12.72,12.72,0,0,0-3.686-9.272c-2.47-2.432-6.194-3.762-10.45-3.762-5.092,0-9.234,1.71-12.274,5.054a15.808,15.808,0,0,0-3.99,10.488c0,5.32,2.7,9.272,6.308,9.272,2.736,0,4.978-2.28,7.182-7.3A56.962,56.962,0,0,0-16.948-25.194Zm-2.736.038A52.194,52.194,0,0,1-23.142-11.1c-1.634,3.724-3.154,5.51-4.75,5.51-2.052,0-3.648-2.812-3.648-6.46A13.141,13.141,0,0,1-25.346-23.37,12,12,0,0,1-19.684-25.156ZM6.08-15.01V-2.09c-1.6.152-2.888.228-3.534.228H1.9L2.508.646C3.61.38,4.332.266,5.32.114c5.852-.8,5.852-.8,10.678-1.672v.95a20.353,20.353,0,0,1-.228,3.534h2.622a17.135,17.135,0,0,1-.228-3.534v-14.4H32.68a19.5,19.5,0,0,1,3.5.228v-2.47a17.355,17.355,0,0,1-3.534.228H5.358A16.321,16.321,0,0,1,1.9-17.252v2.47a18.875,18.875,0,0,1,3.42-.228Zm2.242,0H16v2.7H8.322Zm0,4.484H16v2.812H8.322Zm0,4.6H16V-3.5c-3.306.608-4.446.8-7.676,1.14ZM32.642-12.5a16.885,16.885,0,0,1-2.888.152H22.686a23.659,23.659,0,0,1-3.23-.152v2.242c.8-.076,1.254-.114,1.862-.152A19.176,19.176,0,0,0,25.5-3.458,22.405,22.405,0,0,1,18.962.266,6.267,6.267,0,0,1,20.444,2.2a25.636,25.636,0,0,0,6.574-4.18A26.392,26.392,0,0,0,34.5,2.508,11.212,11.212,0,0,1,35.948.418a22.675,22.675,0,0,1-7.334-3.876,26.944,26.944,0,0,0,4.674-6.536,11.636,11.636,0,0,1,.684-1.1Zm-1.634,2.09a22.481,22.481,0,0,1-3.99,5.548,17.053,17.053,0,0,1-3.572-5.548Zm.684-16.91a22.352,22.352,0,0,1,.152-3.04c-1.292.114-2.356.152-4.1.152H10.564c-1.748,0-2.85-.038-4.142-.152a23.077,23.077,0,0,1,.152,3.04v5.168a22.828,22.828,0,0,1-.152,3c1.368-.114,2.432-.152,4.1-.152h17.4c1.482,0,2.7.038,3.914.152a22.1,22.1,0,0,1-.152-3Zm-22.876-.95H29.45v2.66H8.816Zm0,4.484H29.45v2.66H8.816Zm46.93.988v6.764H44.384a26.346,26.346,0,0,1-3.914-.228v2.7a28.182,28.182,0,0,1,3.914-.228h6.954a28.437,28.437,0,0,1-.3,3.61A11.735,11.735,0,0,1,47.8-3.61,18.437,18.437,0,0,1,39.824.76a13.149,13.149,0,0,0,.836,1.178,7.249,7.249,0,0,1,.722,1.216A28.3,28.3,0,0,0,46.056.874a14.577,14.577,0,0,0,6.27-6.65c1.064-2.394,1.368-3.914,1.558-8.018h5.7V-.3c0,2.09,1.14,2.622,5.7,2.622,4.94,0,6.308-.38,7.182-2.052.57-1.1.874-2.7,1.14-6a9.105,9.105,0,0,1-2.47-1.026c0,3-.228,4.75-.722,5.662C69.92-.228,68.932,0,65.7,0c-3.154,0-3.648-.152-3.648-1.14V-13.794h7.98a27.593,27.593,0,0,1,3.876.228v-2.7a25.779,25.779,0,0,1-3.876.228H58.216V-22.8H67.3a24.194,24.194,0,0,1,3.648.228v-2.7a23.168,23.168,0,0,1-3.648.228H58.216v-3a22.022,22.022,0,0,1,.228-3.344H55.518a22.749,22.749,0,0,1,.228,3.344v3H48.792c.532-1.14.8-1.824,1.33-3.23.266-.722.456-1.216.722-1.824l-2.7-.722A18.892,18.892,0,0,1,46.36-25.46a21.247,21.247,0,0,1-4.9,6.422,7.371,7.371,0,0,1,2.014,1.672A30.716,30.716,0,0,0,47.614-22.8ZM82.992-25h-2.28a14.033,14.033,0,0,1-2.546-.152v2.394a17.94,17.94,0,0,1,2.66-.152H87.21a14.3,14.3,0,0,1,2.546.152v-2.394A13.822,13.822,0,0,1,87.248-25H85.31v-3.5a10.384,10.384,0,0,1,.228-2.812H82.764a12.465,12.465,0,0,1,.228,2.812ZM78.356-.76q.627-.228,1.368-.456c2.85-.8,6.612-2.052,9.88-3.306V-6.8c-1.71.646-2.28.874-3.5,1.292,1.064-4.484,1.444-6.5,2.014-9.88.608-4.028.722-4.674.836-5.244l-2.508-.608a31.287,31.287,0,0,1-.266,3.648A101.233,101.233,0,0,1,83.828-4.788a34.5,34.5,0,0,1-6.194,1.444Zm21.2-23.446H94.088v-3.078a15.73,15.73,0,0,1,.152-2.7H91.58a21.212,21.212,0,0,1,.19,2.774v2.888c0,.684-.038,1.368-.076,2.166a26.989,26.989,0,0,1,2.774-.076h12.958c.57,0,1.368,0,1.672.038a7.154,7.154,0,0,1,1.178.038,17.8,17.8,0,0,1-.114-2.242v-2.926a12.278,12.278,0,0,1,.19-2.66h-2.66a16.864,16.864,0,0,1,.152,2.584v3.192h-5.966v-4.6a13.174,13.174,0,0,1,.228-2.812H99.332A13.927,13.927,0,0,1,99.56-28.8Zm-.076,7.372a29.453,29.453,0,0,1-1.938,4.028h-2.7c-1.33,0-2.394-.038-3.914-.152.076.874.114,2.2.114,3.648v8.018a27.255,27.255,0,0,1-.19,4.142h2.66a25.47,25.47,0,0,1-.19-4.1V-10.83h3.534v8.7a23.024,23.024,0,0,1-.19,3.648h2.584a21.361,21.361,0,0,1-.19-3.61v-8.74h3.572v8.7a23.318,23.318,0,0,1-.19,3.648h2.546a31.156,31.156,0,0,1-.152-3.61v-8.74h3.838V-.456c0,.646-.152.8-.722.8a16.49,16.49,0,0,1-2.47-.228,8.978,8.978,0,0,1,.57,2.318c.8.038,1.634.076,2.09.076,2.128,0,2.812-.608,2.812-2.432v-9.31A30.754,30.754,0,0,1,111.112-13a28.3,28.3,0,0,1-3.876.19h-7.3c.95-1.748,1.254-2.356,2.014-4.028h6.194a34.088,34.088,0,0,1,3.914.152v-2.47a23.365,23.365,0,0,1-3.914.228H93.67a22.256,22.256,0,0,1-3.838-.19v2.432a32.193,32.193,0,0,1,3.838-.152ZM79.116-20.482A83.589,83.589,0,0,1,80.864-7.03l2.242-.57a85.735,85.735,0,0,0-1.824-13.338Zm48.07-5.092a53.171,53.171,0,0,1-8.132-.418l-.038,2.622a6.738,6.738,0,0,1,.836-.038h.608c1.406.038,4.978.114,5.586.114a4.209,4.209,0,0,0,.722-.076l-.342.57c-2.736,4.864-5.89,8.854-8.512,10.868L120.042-9.8a12.574,12.574,0,0,1,2.926-3.154c3.078-2.622,6.08-4.028,8.474-4.028,1.786,0,2.7.912,3,3a29.5,29.5,0,0,0-5.662,3.04c-2.584,1.938-3.876,3.914-3.876,6,0,3.914,3.306,5.852,10.108,5.852a58.952,58.952,0,0,0,9.234-.76,14.954,14.954,0,0,1,1.52-.19l-.342-2.926A31.839,31.839,0,0,1,135.28-1.482c-5.358,0-7.714-1.1-7.714-3.61,0-2.28,1.976-4.066,7.144-6.5a9.986,9.986,0,0,1,.038,1.14,54.649,54.649,0,0,1-.228,5.472l2.584-.038a8.26,8.26,0,0,1-.076-1.368c0-.342,0-.874.038-1.71.038-.76.038-1.6.038-2.09,0-.95,0-1.33-.076-2.318a63.092,63.092,0,0,1,10.146-3.344l-1.216-2.66a8.361,8.361,0,0,1-2.584,1.1C141.7-16.8,139.536-16,136.762-14.9a4.612,4.612,0,0,0-5.016-4.218,10.113,10.113,0,0,0-5.738,1.862c-.38.266-.38.266-1.748,1.33a.292.292,0,0,1-.076-.114v-.038a.037.037,0,0,0,.038-.038c.038-.038.228-.19.494-.38.152-.114.912-.988,1.292-1.444a28.021,28.021,0,0,0,3.42-5.4,122.7,122.7,0,0,0,12.54-.988,11.846,11.846,0,0,1,1.52-.19l-.228-2.584c-2.09.684-5.89,1.14-11.97,1.444a6.469,6.469,0,0,0-.8.038c.19-.342.684-1.368,1.178-2.584a8.069,8.069,0,0,1,.988-2.052l-3.04-.532a16.127,16.127,0,0,1-1.824,5.206ZM169.518-1.71c-3.382-1.178-5.624-3.344-7.3-6.992.228-.8.38-1.444.684-2.7.266-1.216.3-1.254.532-2.242l-2.66-.456a24.689,24.689,0,0,1-1.52,6.916,21.5,21.5,0,0,1-5.4,8.094,8.3,8.3,0,0,1,2.166,1.71,26.78,26.78,0,0,0,5.32-8.778A12.95,12.95,0,0,0,167.884.076c2.622,1.1,7.182,1.672,13.718,1.672,1.52,0,2.812-.038,5.852-.152a9.222,9.222,0,0,1,.76-2.66c-3.99.3-5.966.418-8.664.418a44.032,44.032,0,0,1-7.6-.532V-8.74h8.17a23.439,23.439,0,0,1,3.572.19v-2.622a19.779,19.779,0,0,1-3.572.19h-8.17v-5.662h11.59a33.145,33.145,0,0,1,3.876.228v-2.66a26.13,26.13,0,0,1-3.876.228H171.95v-5.168h8.892a21.555,21.555,0,0,1,3.458.19V-26.41a20.986,20.986,0,0,1-3.458.19H171.95v-1.824a13.633,13.633,0,0,1,.266-3.306h-2.888a17.477,17.477,0,0,1,.228,3.306v1.824h-8.588a21.5,21.5,0,0,1-3.5-.19v2.584a22.076,22.076,0,0,1,3.5-.19h8.588v5.168H158.422a27.063,27.063,0,0,1-3.914-.228v2.66a33.8,33.8,0,0,1,3.914-.228h11.1Zm29.64-23.75a18.719,18.719,0,0,1,2.052-.19c5.776-.19,10.336-.456,11.552-.684a1.47,1.47,0,0,1,.342-.038l.076.076-.152.152-.152.152-.532.532c-2.622,2.584-8.626,7.866-12.692,11.1a42.336,42.336,0,0,1-5.32,3.876l1.71,2.432a24.386,24.386,0,0,1,16-6.5c5.13,0,8.17,2.166,8.17,5.814,0,3.23-2.09,5.548-6.08,6.65a10.878,10.878,0,0,0-1.748-3.648,7.654,7.654,0,0,0-6.27-3.116c-3.154,0-5.51,1.9-5.51,4.446,0,3.5,3.078,5.472,8.436,5.472,8.436,0,13.946-3.914,13.946-9.842,0-4.864-4.066-7.98-10.412-7.98a19.254,19.254,0,0,0-9.31,2.356l-.076-.114c2.66-1.71,7.258-5.662,12.5-10.792a7.013,7.013,0,0,1,1.938-1.6l-1.6-2.09a3.886,3.886,0,0,1-1.824.418c-3.42.266-8.474.494-11.628.494a17.549,17.549,0,0,1-3.572-.228ZM211.622-1.406a13.682,13.682,0,0,1-2.774.266,9.709,9.709,0,0,1-4.256-.874,2.593,2.593,0,0,1-1.52-2.318c0-1.444,1.178-2.356,3.078-2.356C208.886-6.688,210.786-4.864,211.622-1.406Z" transform="translate(700 9769.695)" fill="#3c505a"/>
        <g id="Rectangle_150" data-name="Rectangle 150" transform="translate(454 9723.695)" fill="none" stroke="#3c505a" stroke-width="1">
          <rect width="492" height="62" stroke="none"/>
          <rect x="0.5" y="0.5" width="491" height="61" fill="none"/>
        </g>
      </g>
    </g>
  </g>
</svg>
