<svg xmlns="http://www.w3.org/2000/svg" width="375" height="217.817" viewBox="0 0 375 217.817">
  <g id="Group_418" data-name="Group 418" transform="translate(7918 11917.932)">
    <path id="Path_122" data-name="Path 122" d="M300,0H675V156.741L300,189Z" transform="translate(-8218 -11889.114)" fill="#ffbe00"/>
    <g id="Point" transform="translate(-7760 -11917.932)">
      <g id="Ellipse_10" data-name="Ellipse 10" fill="#ffbe00" stroke="#3c505a" stroke-width="1">
        <circle cx="29.753" cy="29.753" r="29.753" stroke="none"/>
        <circle cx="29.753" cy="29.753" r="29.253" fill="none"/>
      </g>
      <path id="Path_257" data-name="Path 257" d="M-2.765,1.33a6.277,6.277,0,0,1-1.7-.262A7.344,7.344,0,0,1-6.02.455q-.63-.35-.63-.63a1.7,1.7,0,0,1,.578-1q.577-.612.962-.613a1.208,1.208,0,0,1,.578.14,3.514,3.514,0,0,1,.49.315,3.664,3.664,0,0,1,.3.245A5.484,5.484,0,0,0-2.59-.3,3.267,3.267,0,0,0-1.12,0,4.865,4.865,0,0,0,1.33-.683,5.428,5.428,0,0,0,3.255-2.538,4.749,4.749,0,0,0,3.99-5.11,6.916,6.916,0,0,0,2.905-8.977,3.379,3.379,0,0,0-.07-10.64a4.618,4.618,0,0,0-2.275.525.39.39,0,0,1-.175.035.512.512,0,0,1-.315-.1.224.224,0,0,1-.105-.245,1.891,1.891,0,0,1,1.05-1.19,15.384,15.384,0,0,0,2.923-1.908A3.527,3.527,0,0,0,2.52-16.31a3.766,3.766,0,0,0-.945-2.555A2.986,2.986,0,0,0-.77-19.95a4.085,4.085,0,0,0-2.608.718,7.5,7.5,0,0,0-1.592,1.8q-.14.245-.262.42t-.227.175a.573.573,0,0,1-.35-.21.635.635,0,0,1-.21-.455,3.4,3.4,0,0,1,.77-1.82,6.566,6.566,0,0,1,2.293-1.907A7.675,7.675,0,0,1,.735-22.05a5.005,5.005,0,0,1,2.2.507,4.384,4.384,0,0,1,1.7,1.417,3.474,3.474,0,0,1,.648,2.065A5.076,5.076,0,0,1,4.41-15.3a8.018,8.018,0,0,1-2.8,2.485q-.105.07-.1.14t.14.07a4.961,4.961,0,0,1,2.678.752A5.589,5.589,0,0,1,6.248-9.835a5.424,5.424,0,0,1,.718,2.73,7.36,7.36,0,0,1-1.4,4.445A9.123,9.123,0,0,1,1.908.3,11.116,11.116,0,0,1-2.765,1.33Z" transform="translate(28.958 42.485)" fill="#3c505a"/>
      <g id="Layer_2" data-name="Layer 2" transform="translate(9.31 4.117)">
        <g id="Group_292" data-name="Group 292" transform="translate(0 0)">
          <path id="Path_153" data-name="Path 153" d="M6.949,17.292c1.1,1.052,1.258,1.161,1.971.556l.3-.254c.115-.012.272.175.242.272-.593.581-.931.913-1.33,1.336-.423.441-.768.828-1.191,1.312-.091.03-.278-.109-.284-.23l.181-.248c.5-.689.393-.828-.714-1.881L2.25,14.462c-.9-.853-1.095-1-1.6-.575l-.405.339a.243.243,0,0,1-.242-.272,22.368,22.368,0,0,1,1.9-2.159,5.2,5.2,0,0,1,2.34-1.615,2.506,2.506,0,0,1,2.377.659,2.468,2.468,0,0,1,.671,2.643,4.922,4.922,0,0,1-1.064,1.754c-.1.042-.26-.109-.218-.187a2.256,2.256,0,0,0-.3-3.229,2.14,2.14,0,0,0-3.3.091c-.532.556-.5.6-.163.925L6.943,17.3Z" transform="translate(-0.001 -3.988)" fill="#3c505a"/>
          <path id="Path_154" data-name="Path 154" d="M24.424,9.129a2.965,2.965,0,0,1-1.772,4,2.866,2.866,0,0,1-3.834-1.754,3.055,3.055,0,0,1,1.8-4.022A2.905,2.905,0,0,1,24.43,9.129ZM20.6,7.816c-.9.339-1.24,1.439-.683,2.939.466,1.24,1.518,2.358,2.715,1.911s1.095-1.838.7-2.885C22.9,8.627,21.89,7.333,20.6,7.816Z" transform="translate(-7.353 -2.821)" fill="#3c505a"/>
          <path id="Path_155" data-name="Path 155" d="M34.074,4.876c.012-.568.012-.641-.375-.907l-.127-.091c-.054-.06-.054-.218.018-.26A10.374,10.374,0,0,0,35.1,2.941a.137.137,0,0,1,.145.091c-.042.508-.085,1.2-.1,1.8L35.1,7.44c-.024,1.046,0,1.191.526,1.276l.3.048a.252.252,0,0,1-.036.363c-.435-.036-.859-.06-1.361-.073-.52-.012-.955,0-1.367.012a.252.252,0,0,1-.024-.363l.308-.036c.538-.06.556-.206.581-1.252l.054-2.54ZM35.368.764a.712.712,0,0,1-.786.738.72.72,0,0,1-.726-.744.757.757,0,0,1,.8-.768.722.722,0,0,1,.708.768Z" transform="translate(-13.072 0.01)" fill="#3c505a"/>
          <path id="Path_156" data-name="Path 156" d="M43.232,8.459c.23-.52.26-.587,0-.98l-.085-.133a.2.2,0,0,1,.121-.236,8.021,8.021,0,0,0,1.615-.06.161.161,0,0,1,.1.157c-.163.3-.248.49-.3.611a.154.154,0,0,0,.079.212,4.033,4.033,0,0,1,2.159.145,1.612,1.612,0,0,1,.822,2.334l-1.01,2.28c-.423.955-.454,1.1-.006,1.379l.272.169a.25.25,0,0,1-.175.321c-.387-.206-.768-.387-1.228-.593-.478-.212-.883-.375-1.252-.508a.259.259,0,0,1,.121-.345l.272.073c.526.139.593.024,1.016-.931l.877-1.978a1.257,1.257,0,0,0-.665-1.863,1.591,1.591,0,0,0-1.336-.036,1.216,1.216,0,0,0-.55.708l-.9,2.032c-.423.955-.448,1.089-.006,1.379l.224.145a.254.254,0,0,1-.175.321c-.345-.187-.726-.369-1.191-.575s-.883-.375-1.264-.514a.259.259,0,0,1,.121-.345l.3.085c.52.151.593.024,1.016-.931l1.028-2.322Z" transform="translate(-16.104 -2.78)" fill="#3c505a"/>
          <path id="Path_157" data-name="Path 157" d="M58.571,17.408c-.169-.181-.206-.163-.435.042l-2,1.832c-.623.568-1.119,1.161-.472,1.869a1.093,1.093,0,0,0,.321.242c.121.067.363.1.393.133.079.085,0,.236-.085.272a2,2,0,0,1-1.518-.677,1.329,1.329,0,0,1,.139-2.171l2.455-2.244c.29-.266.3-.3.1-.508l-.272-.3a.234.234,0,0,1,.194-.236,2.8,2.8,0,0,0,.962.381,3.418,3.418,0,0,0,1.04-.127c.073.036.187.163.151.272l-.484.441c-.194.175-.194.2-.024.381L60.125,18.2a.465.465,0,0,1-.441.423l-1.107-1.209Z" transform="translate(-21.452 -6.184)" fill="#3c505a"/>
        </g>
      </g>
    </g>
    <path id="Path_254" data-name="Path 254" d="M-144.84-8.4v2.28h-1.992a11.919,11.919,0,0,1-2.16-.12v1.416a12.225,12.225,0,0,1,2.184-.12h10.968a14.3,14.3,0,0,1,2.352.12V-6.24a14.122,14.122,0,0,1-2.352.12h-2.232V-8.4h1.512a13.7,13.7,0,0,1,2.256.12V-9.672a12.536,12.536,0,0,1-2.208.12h-1.56c.024-.72.048-1.032.1-1.536h-1.632a11.391,11.391,0,0,1,.12,1.536h-3.96a11.77,11.77,0,0,1,.1-1.536h-1.632a12.118,12.118,0,0,1,.12,1.536h-.936a12.2,12.2,0,0,1-2.208-.12V-8.28a13.021,13.021,0,0,1,2.232-.12Zm1.392,0h3.984v2.28h-3.984Zm1.248-9.576a10.261,10.261,0,0,1,.048-1.3,13.749,13.749,0,0,1-2.112.1h-2.544a10.606,10.606,0,0,1-1.9-.12v1.44a10.445,10.445,0,0,1,1.9-.12h3.264v1.8h-3.5a11.383,11.383,0,0,1-1.512-.072,9.627,9.627,0,0,1,.072,1.32v1.8c0,1.248.384,1.416,3.192,1.416,1.944,0,2.592-.1,2.928-.408.408-.36.552-.816.7-2.016a3.853,3.853,0,0,1-1.248-.576,3.952,3.952,0,0,1-.24,1.464c-.168.288-.552.36-2.28.36-1.584,0-1.728-.072-1.728-.672V-15.1h3.528a13.115,13.115,0,0,1,1.488.072A9.113,9.113,0,0,1-142.2-16.3Zm7.944,0a9.875,9.875,0,0,1,.048-1.3,13.749,13.749,0,0,1-2.112.1h-2.544a10.606,10.606,0,0,1-1.9-.12v1.44a10.445,10.445,0,0,1,1.9-.12h3.264v1.8h-3.528a11.806,11.806,0,0,1-1.536-.072,9.3,9.3,0,0,1,.1,1.344v1.752c0,1.272.36,1.44,3.24,1.44,3.384,0,3.552-.1,3.84-2.424a4.885,4.885,0,0,1-1.272-.576,3.2,3.2,0,0,1-.336,1.584c-.192.192-.768.264-2.424.264a5.51,5.51,0,0,1-1.416-.12c-.24-.1-.288-.192-.288-.576V-15.1h3.528a13.115,13.115,0,0,1,1.488.072,9.3,9.3,0,0,1-.048-1.272Zm-9.7,13.224A12.235,12.235,0,0,1-148.3-2.16a3.4,3.4,0,0,1,1.1,1.08,14.982,14.982,0,0,0,4.416-2.9Zm3.864.84A17.2,17.2,0,0,0-134.952-.96a5.954,5.954,0,0,1,1.032-1.224,15.725,15.725,0,0,1-5.04-2.5Zm-14.16-14.376a21.92,21.92,0,0,1,3.432,4.08l1.224-1.08a31.4,31.4,0,0,0-3.552-3.984Zm-.408,9.408A9.247,9.247,0,0,1-152.9-9h1.464v5.808a13.414,13.414,0,0,1-3.7,2.856l.792,1.584c.336-.312.336-.312.768-.672.84-.7.84-.7,1.128-.936.552-.48.96-.888,1.68-1.632a6.307,6.307,0,0,0,2.5,2.3c1.44.672,2.688.816,6.888.816,2.9,0,5.592-.048,8.064-.168a6.314,6.314,0,0,1,.552-1.728,70.845,70.845,0,0,1-9.672.48c-2.832,0-4.248-.192-5.448-.72a3.791,3.791,0,0,1-2.064-2.184V-7.92a18.4,18.4,0,0,1,.1-2.52,10.74,10.74,0,0,1-1.824.12h-1.128a9.726,9.726,0,0,1-1.848-.12Zm29.04-10.56a4.81,4.81,0,0,1-.072.768,60.666,60.666,0,0,0-.816,8.856v.552l.048,2.5.024.432v.264l1.728-.072c-.024-.36-.024-.48-.024-.576a12.525,12.525,0,0,1,1.3-5.352c1.368-2.808,2.9-4.176,4.728-4.176,2.3,0,3.648,2.232,3.648,6.1,0,3.84-1.32,6.36-4.128,7.968a12.682,12.682,0,0,1-4.872,1.512A4.953,4.953,0,0,1-123.1.96a18.167,18.167,0,0,0,4.272-1.416c3.6-1.8,5.544-5.088,5.544-9.432a9.858,9.858,0,0,0-1.44-5.832,4.518,4.518,0,0,0-3.84-2.136c-1.872,0-3.456,1.032-4.8,3.1a10.709,10.709,0,0,0-1.464,3.576c-.12.5-.12.5-.168.7l-.1-.024c.072-1.224.408-3.84.792-6.264a13.605,13.605,0,0,1,.552-2.472Zm30.888,3.456c-1.632.048-3.5.1-5.808.192-3.864.144-3.864.144-4.56.144-.36,0-.528,0-.96-.024l.072,1.752c1.608-.264,6.456-.5,11.28-.6v1.248c0,.288.024.528.024.624,0,.888,0,.984.024,1.32a3.685,3.685,0,0,0-2.784-1.08,3.993,3.993,0,0,0-4.248,3.96,3.72,3.72,0,0,0,3.936,3.792,3.752,3.752,0,0,0,3.024-1.3,3.361,3.361,0,0,0,.648-1.176,6.216,6.216,0,0,1-2.688,5.064,12.3,12.3,0,0,1-3.888,1.8A5.269,5.269,0,0,1-99.6,1.248,15.266,15.266,0,0,0-95.808-.7,7.725,7.725,0,0,0-92.592-6.96a6.877,6.877,0,0,0-.576-2.832v-4.752c1.944-.048,2.208-.048,2.568-.048a42.656,42.656,0,0,1,4.584.12v-1.7c-.792.1-2.64.144-7.176.168v-.264a19.868,19.868,0,0,1,.12-3h-1.8a8.088,8.088,0,0,1,.1,1.392ZM-94.8-8.976a2.69,2.69,0,0,1-2.808,2.832A2.32,2.32,0,0,1-100.08-8.52a2.54,2.54,0,0,1,2.664-2.52,3.07,3.07,0,0,1,1.608.384A1.737,1.737,0,0,1-94.8-8.976Zm25.392-5.184a16.991,16.991,0,0,1,2.52,3.384l1.176-.768a18.762,18.762,0,0,0-2.544-3.36Zm2.232-1.344a16.186,16.186,0,0,1,2.52,3.36l1.176-.768a18.761,18.761,0,0,0-2.544-3.36Zm-2.328-3.84c-.84,1.32-3.84,4.128-7.032,6.576a18.543,18.543,0,0,0-2.04,1.632,2.324,2.324,0,0,0-.7,1.608c0,.816.384,1.344,1.728,2.4,3.5,2.736,4.464,3.528,6.072,5.016a22.656,22.656,0,0,1,3.1,3.288l1.512-1.488a6.11,6.11,0,0,1-.672-.6,70.762,70.762,0,0,0-7.68-6.552c-1.944-1.512-2.136-1.68-2.136-2.112,0-.336.168-.528,1.056-1.2a69.913,69.913,0,0,0,5.52-4.536c2.5-2.4,2.688-2.568,2.952-2.784Zm15.888-.1a4.81,4.81,0,0,1-.072.768A60.666,60.666,0,0,0-54.5-9.816v.552l.048,2.5.024.432v.264l1.728-.072c-.024-.36-.024-.48-.024-.576a12.525,12.525,0,0,1,1.3-5.352c1.368-2.808,2.9-4.176,4.728-4.176,2.3,0,3.648,2.232,3.648,6.1,0,3.84-1.32,6.36-4.128,7.968A12.681,12.681,0,0,1-52.056-.672,4.953,4.953,0,0,1-51.1.96,18.167,18.167,0,0,0-46.824-.456c3.6-1.8,5.544-5.088,5.544-9.432a9.858,9.858,0,0,0-1.44-5.832,4.518,4.518,0,0,0-3.84-2.136c-1.872,0-3.456,1.032-4.8,3.1a10.709,10.709,0,0,0-1.464,3.576c-.12.5-.12.5-.168.7l-.1-.024c.072-1.224.408-3.84.792-6.264a13.6,13.6,0,0,1,.552-2.472ZM-22.7-15.912a6.907,6.907,0,0,1,2.784.6A6.327,6.327,0,0,1-16.1-9.288a7.245,7.245,0,0,1-4.248,6.72A14.386,14.386,0,0,1-24.36-1.44,3.813,3.813,0,0,1-23.52.168a18.567,18.567,0,0,0,3.648-1.1,8.739,8.739,0,0,0,5.5-8.28A8.034,8.034,0,0,0-16.7-15.072a9.291,9.291,0,0,0-6.6-2.376,10.024,10.024,0,0,0-7.752,3.192,9.984,9.984,0,0,0-2.52,6.624c0,3.36,1.7,5.856,3.984,5.856,1.728,0,3.144-1.44,4.536-4.608A35.976,35.976,0,0,0-22.7-15.912Zm-1.728.024a32.964,32.964,0,0,1-2.184,8.88c-1.032,2.352-1.992,3.48-3,3.48-1.3,0-2.3-1.776-2.3-4.08a8.3,8.3,0,0,1,3.912-7.152A7.58,7.58,0,0,1-24.432-15.888ZM7.56-5.04a18.043,18.043,0,0,1,2.472.144V-6.5a16.014,16.014,0,0,1-2.4.144H.288A11.488,11.488,0,0,0,.5-7.68a3.766,3.766,0,0,1,.072-.576L-1.152-8.28A5.568,5.568,0,0,1-1.1-7.7,7.345,7.345,0,0,1-1.248-6.36h-6.36a16.7,16.7,0,0,1-2.4-.144V-4.9A17.913,17.913,0,0,1-7.56-5.04h5.88A7.014,7.014,0,0,1-4.344-1.992,14.309,14.309,0,0,1-10.536.168,5.023,5.023,0,0,1-9.792,1.7,16.974,16.974,0,0,0-3.84-.528,9.366,9.366,0,0,0-.216-4.68,11.168,11.168,0,0,0,3.312-.84a17.7,17.7,0,0,0,6.5,2.592A5.171,5.171,0,0,1,10.56.12,14.953,14.953,0,0,1,4.9-1.608,9.9,9.9,0,0,1,1.128-5.04Zm-14.5-12.072a16.7,16.7,0,0,1-2.4-.144v1.584a16.7,16.7,0,0,1,2.4-.144H-.888v2.16h-5.28a12.2,12.2,0,0,1-2.064-.12v1.536a12.2,12.2,0,0,1,2.064-.12h5.28v2.328H-7.944a16.014,16.014,0,0,1-2.4-.144v1.608a16.931,16.931,0,0,1,2.4-.144H7.92a17.132,17.132,0,0,1,2.4.12v-1.584a16.238,16.238,0,0,1-2.4.144H.6V-12.36H6.144a12.2,12.2,0,0,1,2.064.12v-1.536a12.372,12.372,0,0,1-2.064.12H.6v-2.16H6.912a16.465,16.465,0,0,1,2.4.144v-1.584a16.238,16.238,0,0,1-2.4.144h-3.6a18.548,18.548,0,0,0,1.7-2.256L3.528-19.92A12.113,12.113,0,0,1,1.68-17.112h-3.6a19.22,19.22,0,0,0-2.04-2.9l-1.344.624a12.911,12.911,0,0,1,1.752,2.28Zm29.9-.792h-6.48c-.96,0-1.68-.024-2.424-.1a11.06,11.06,0,0,1,.1,1.632v1.536a11.4,11.4,0,0,1-.1,1.656h1.584v-3.336H32.5v3.336h1.56a10.988,10.988,0,0,1-.1-1.656v-1.536a11.06,11.06,0,0,1,.1-1.632c-.768.072-1.464.1-2.4.1H24.528v-.744a6.259,6.259,0,0,1,.144-1.488H22.8a6.29,6.29,0,0,1,.168,1.488ZM17.5-.312a15.8,15.8,0,0,1-.144,2.16h1.656V.648h10.08v1.2H30.72a14.947,14.947,0,0,1-.144-2.136V-5.712A35.757,35.757,0,0,0,34.008-3.72,5.18,5.18,0,0,1,34.9-5.184a22.646,22.646,0,0,1-5.472-3.048,17.871,17.871,0,0,1-4.584-4.68H23.3A16.864,16.864,0,0,1,19.152-8.5,23.771,23.771,0,0,1,13.32-5.112a4.4,4.4,0,0,1,.912,1.344,24.041,24.041,0,0,0,2.784-1.608c.312-.216.312-.216.48-.336Zm1.44-6.408A18.038,18.038,0,0,0,21.1-8.4a20.415,20.415,0,0,0,3.024-3.24,20.833,20.833,0,0,0,5.016,4.92Zm.072,1.392h10.08V-.744H19.008Zm1.272-10.08a15.25,15.25,0,0,1-2.952,3A12.192,12.192,0,0,1,14.5-10.752a4.514,4.514,0,0,1,1.152,1.2,15.47,15.47,0,0,0,3-2.088,18.845,18.845,0,0,0,2.928-3.048Zm6.024.792a19.359,19.359,0,0,0,6.5,5.016,5.855,5.855,0,0,1,.912-1.32,15.3,15.3,0,0,1-6.192-4.536ZM55.32-12.672a18.481,18.481,0,0,1-2.952,6.6,28.189,28.189,0,0,1-1.584-8.64h5.064a19.8,19.8,0,0,1,2.688.12v-1.632a13.061,13.061,0,0,1-2.568.144H50.736c-.048-1.128-.048-1.488-.048-1.92a10.358,10.358,0,0,1,.12-1.968H48.96a23.233,23.233,0,0,1,.24,3.888H42.12a25.419,25.419,0,0,1-2.928-.12,15.741,15.741,0,0,1,.144,2.808,45.647,45.647,0,0,1-.792,10.08,9.822,9.822,0,0,1-1.68,3.6,4.427,4.427,0,0,1,1.272,1.08,11.319,11.319,0,0,0,1.824-4.2,33.455,33.455,0,0,0,.768-6.624h4.8a35.92,35.92,0,0,1-.312,4.7c-.168,1.056-.36,1.272-1.152,1.272a12.462,12.462,0,0,1-2.832-.384A5.608,5.608,0,0,1,41.52-2.3a14.279,14.279,0,0,0,2.52.216c1.344,0,1.872-.216,2.232-.96a17.853,17.853,0,0,0,.72-5.16A23.4,23.4,0,0,1,47.16-10.9a11.85,11.85,0,0,1-1.8.1H40.776c.024-1.008.048-1.824.048-3.912h8.448a30.466,30.466,0,0,0,2.04,9.984A17.383,17.383,0,0,1,44.184.24,4.088,4.088,0,0,1,45.36,1.464a20.409,20.409,0,0,0,6.648-4.776A11.675,11.675,0,0,0,54-.624,4.38,4.38,0,0,0,56.52.864c.624,0,1.1-.384,1.488-1.152a10.065,10.065,0,0,0,.864-2.928,6.6,6.6,0,0,1-1.3-1.056c-.288,2.208-.7,3.456-1.08,3.456a2.271,2.271,0,0,1-1.032-.552A8.59,8.59,0,0,1,53.04-4.56a21.965,21.965,0,0,0,3.192-5.856c.408-.96.648-1.488.72-1.608Zm1.32-4.8a18.794,18.794,0,0,0-3.432-2.376l-1.032.84a15.875,15.875,0,0,1,3.456,2.544ZM69.408-9.888a11.62,11.62,0,0,1-1.3,4.944C66.96-2.76,65.136-1.176,62.064.312A5.015,5.015,0,0,1,63.12,1.656a14.084,14.084,0,0,0,6.048-5.232A13.668,13.668,0,0,0,71.04-9.888h5.592c0,4.152-.288,7.416-.792,8.88-.168.456-.432.6-1.2.6a18.49,18.49,0,0,1-3.384-.408,6.653,6.653,0,0,1,.384,1.7c1.512.144,2.352.192,3.144.192,1.392,0,1.968-.24,2.376-.96.624-1.128,1.08-5.184,1.08-9.84a10.6,10.6,0,0,1,.1-1.7,18.159,18.159,0,0,1-2.52.12h-7.9a18.421,18.421,0,0,1-2.5-.144v1.7A19.326,19.326,0,0,1,67.9-9.888Zm-.984-9.96a7.719,7.719,0,0,1-1.032,2.52A19.775,19.775,0,0,1,60.816-10.3,5.283,5.283,0,0,1,61.992-9a23.823,23.823,0,0,0,7.56-9,6.549,6.549,0,0,1,.672-1.224Zm5.328.672c.12.192.264.456.384.672a24.314,24.314,0,0,0,8.088,9.648,5.92,5.92,0,0,1,1.128-1.464,20.016,20.016,0,0,1-7.08-7.464A9.716,9.716,0,0,1,75.36-19.8Zm18.576,3.024a33.582,33.582,0,0,1-5.136-.264l-.024,1.656a4.256,4.256,0,0,1,.528-.024h.384c.888.024,3.144.072,3.528.072a2.658,2.658,0,0,0,.456-.048l-.216.36a23.882,23.882,0,0,1-5.376,6.864l1.344,1.344a7.941,7.941,0,0,1,1.848-1.992c1.944-1.656,3.84-2.544,5.352-2.544,1.128,0,1.7.576,1.9,1.9a18.631,18.631,0,0,0-3.576,1.92C91.7-5.688,90.888-4.44,90.888-3.12c0,2.472,2.088,3.7,6.384,3.7A37.233,37.233,0,0,0,103.1.1a9.445,9.445,0,0,1,.96-.12l-.216-1.848a20.109,20.109,0,0,1-6.408.936c-3.384,0-4.872-.7-4.872-2.28,0-1.44,1.248-2.568,4.512-4.1a6.306,6.306,0,0,1,.024.72,34.515,34.515,0,0,1-.144,3.456l1.632-.024a5.217,5.217,0,0,1-.048-.864c0-.216,0-.552.024-1.08.024-.48.024-1.008.024-1.32,0-.6,0-.84-.048-1.464a39.848,39.848,0,0,1,6.408-2.112l-.768-1.68a5.28,5.28,0,0,1-1.632.7c-1.056.384-2.424.888-4.176,1.584a2.913,2.913,0,0,0-3.168-2.664A6.387,6.387,0,0,0,91.584-10.9c-.24.168-.24.168-1.1.84a.185.185,0,0,1-.048-.072v-.024a.024.024,0,0,0,.024-.024c.024-.024.144-.12.312-.24.1-.072.576-.624.816-.912a17.7,17.7,0,0,0,2.16-3.408,77.493,77.493,0,0,0,7.92-.624,7.482,7.482,0,0,1,.96-.12l-.144-1.632a33.778,33.778,0,0,1-7.56.912,4.085,4.085,0,0,0-.5.024c.12-.216.432-.864.744-1.632a5.1,5.1,0,0,1,.624-1.3l-1.92-.336a10.186,10.186,0,0,1-1.152,3.288Zm20.808-1.632V-15h-.576a21.46,21.46,0,0,1-2.4-.1,23.077,23.077,0,0,1,.1,2.424v11.5a18.288,18.288,0,0,1-.168,2.976h1.536V.24H118.2V1.3h1.488a22.269,22.269,0,0,1-.12-2.472V-12.744a22.194,22.194,0,0,1,.1-2.352,24.615,24.615,0,0,1-2.568.1h-.36v-2.784h1.1a21.487,21.487,0,0,1,2.4.12v-1.584a18.175,18.175,0,0,1-2.5.144H111.96a17.3,17.3,0,0,1-2.424-.144v1.608a16.568,16.568,0,0,1,2.376-.144Zm1.176,0h1.248V-15h-1.248ZM113.136-13.8a19.139,19.139,0,0,1-.288,3.624,7,7,0,0,1-1.2,3,4.228,4.228,0,0,1,.888.96c1.32-1.992,1.728-3.7,1.776-7.584h1.248v5.04c0,.912.288,1.08,1.8,1.08.1,0,.216,0,.84-.024v2.712h-6.576V-13.8Zm3.6,0H118.2v4.9c-.36,0-.552.024-.6.024-.768,0-.888-.048-.888-.384ZM111.624-3.768H118.2v2.712h-6.576Zm18.1-13.08c0-1.32.024-1.752.072-2.352a20.214,20.214,0,0,1-2.28.1H123.5a17.56,17.56,0,0,1-2.472-.144v1.68a15.86,15.86,0,0,1,2.448-.12h4.728v5.952H123.72a22,22,0,0,1-2.328-.1,15.07,15.07,0,0,1,.12,2.328V-.84c0,1.7.624,2.016,4.032,2.016,4.728,0,4.968-.24,5.352-5.112a4.314,4.314,0,0,1-1.56-.72,11.164,11.164,0,0,1-.48,3.792c-.24.456-.96.6-3.1.6a6.651,6.651,0,0,1-2.52-.24c-.168-.1-.216-.24-.216-.648V-10.32h4.464a20.87,20.87,0,0,1,2.328.1,18.521,18.521,0,0,1-.1-2.232Zm13.3-3.048a17.46,17.46,0,0,1-3.7,4.176,25.032,25.032,0,0,1-6.528,4.176,4.172,4.172,0,0,1,1.008,1.368,27.75,27.75,0,0,0,5.088-3.12,22.362,22.362,0,0,0,5.04-5.256,20.162,20.162,0,0,0,3.7,4.032,33.548,33.548,0,0,0,6.768,4.416,6.212,6.212,0,0,1,.96-1.512,25.167,25.167,0,0,1-6.576-3.936,16.487,16.487,0,0,1-3.96-4.344Zm-4.68,8.928a13.8,13.8,0,0,1,1.872-.1h7.464a14.774,14.774,0,0,1,2.016.1V-12.6a14.331,14.331,0,0,1-2.016.1h-7.44a12.266,12.266,0,0,1-1.9-.1ZM138.168,1.56V.168H149.76V1.56h1.728a16.679,16.679,0,0,1-.144-2.352V-6.1a14.505,14.505,0,0,1,.12-2.208,12.719,12.719,0,0,1-1.872.1H138.336a12.719,12.719,0,0,1-1.872-.1,15.1,15.1,0,0,1,.12,2.208v5.3a17.422,17.422,0,0,1-.144,2.352Zm0-8.3H149.76v5.5H138.168Z" transform="translate(-7730 -11760.379)" fill="#3c505a"/>
    <path id="Path_253" data-name="Path 253" d="M-72.48-9.136v3.408H-75.7a9.432,9.432,0,0,1-1.552-.08v1.1a10.36,10.36,0,0,1,1.6-.08h3.168v4.16h-4.64a12.741,12.741,0,0,1-1.744-.1V.448A11.77,11.77,0,0,1-77.1.336h10.736A12.063,12.063,0,0,1-64.64.448V-.72a12.976,12.976,0,0,1-1.728.1H-71.36v-4.16h3.488a9.8,9.8,0,0,1,1.552.08v-1.1a9.674,9.674,0,0,1-1.552.08H-71.36V-9.136h4.288a11.158,11.158,0,0,1,1.68.08v-1.12a11.887,11.887,0,0,1-1.68.1H-76.56a11.578,11.578,0,0,1-1.68-.1v1.12a10.4,10.4,0,0,1,1.68-.08Zm-1.84-3.488a15.231,15.231,0,0,1,3.872,2.064l.656-.864a18.1,18.1,0,0,0-3.824-1.984Zm23.44,4.176a12.32,12.32,0,0,1-1.968,4.4A18.793,18.793,0,0,1-53.9-9.808h3.376a13.2,13.2,0,0,1,1.792.08v-1.088a8.707,8.707,0,0,1-1.712.1h-3.488c-.032-.752-.032-.992-.032-1.28a6.9,6.9,0,0,1,.08-1.312H-55.12a15.489,15.489,0,0,1,.16,2.592h-4.72a16.946,16.946,0,0,1-1.952-.08,10.494,10.494,0,0,1,.1,1.872,30.432,30.432,0,0,1-.528,6.72,6.548,6.548,0,0,1-1.12,2.4,2.951,2.951,0,0,1,.848.72,7.546,7.546,0,0,0,1.216-2.8A22.3,22.3,0,0,0-60.608-6.3h3.2a23.948,23.948,0,0,1-.208,3.136c-.112.7-.24.848-.768.848a8.308,8.308,0,0,1-1.888-.256,3.739,3.739,0,0,1,.192,1.04,9.519,9.519,0,0,0,1.68.144c.9,0,1.248-.144,1.488-.64a11.9,11.9,0,0,0,.48-3.44,15.6,15.6,0,0,1,.112-1.792,7.9,7.9,0,0,1-1.2.064h-3.056c.016-.672.032-1.216.032-2.608h5.632a20.311,20.311,0,0,0,1.36,6.656A11.589,11.589,0,0,1-58.3.16a2.725,2.725,0,0,1,.784.816,13.606,13.606,0,0,0,4.432-3.184A7.784,7.784,0,0,0-51.76-.416a2.92,2.92,0,0,0,1.68.992c.416,0,.736-.256.992-.768a6.71,6.71,0,0,0,.576-1.952,4.4,4.4,0,0,1-.864-.7c-.192,1.472-.464,2.3-.72,2.3a1.514,1.514,0,0,1-.688-.368A5.727,5.727,0,0,1-52.4-3.04a14.644,14.644,0,0,0,2.128-3.9c.272-.64.432-.992.48-1.072Zm.88-3.2a12.529,12.529,0,0,0-2.288-1.584l-.688.56a10.583,10.583,0,0,1,2.3,1.7Zm8.512,5.056a7.747,7.747,0,0,1-.864,3.3,8.152,8.152,0,0,1-4.032,3.5,3.344,3.344,0,0,1,.7.9,9.389,9.389,0,0,0,4.032-3.488A9.112,9.112,0,0,0-40.4-6.592h3.728A22.775,22.775,0,0,1-37.2-.672c-.112.3-.288.4-.8.4a12.326,12.326,0,0,1-2.256-.272A4.435,4.435,0,0,1-40,.592c1.008.1,1.568.128,2.1.128.928,0,1.312-.16,1.584-.64.416-.752.72-3.456.72-6.56a7.07,7.07,0,0,1,.064-1.136,12.106,12.106,0,0,1-1.68.08H-42.48a12.281,12.281,0,0,1-1.664-.1V-6.5a12.884,12.884,0,0,1,1.648-.1Zm-.656-6.64a5.146,5.146,0,0,1-.688,1.68,13.184,13.184,0,0,1-4.384,4.688A3.522,3.522,0,0,1-46.432-6a15.882,15.882,0,0,0,5.04-6,4.366,4.366,0,0,1,.448-.816Zm3.552.448c.08.128.176.3.256.448A16.21,16.21,0,0,0-32.944-5.9a3.947,3.947,0,0,1,.752-.976,13.344,13.344,0,0,1-4.72-4.976A6.478,6.478,0,0,1-37.52-13.2Zm12.384,2.016a22.388,22.388,0,0,1-3.424-.176l-.016,1.1a2.837,2.837,0,0,1,.352-.016h.256c.592.016,2.1.048,2.352.048a1.772,1.772,0,0,0,.3-.032l-.144.24a15.921,15.921,0,0,1-3.584,4.576l.9.9a5.294,5.294,0,0,1,1.232-1.328,6.011,6.011,0,0,1,3.568-1.7c.752,0,1.136.384,1.264,1.264a12.42,12.42,0,0,0-2.384,1.28A3.308,3.308,0,0,0-27.168-2.08c0,1.648,1.392,2.464,4.256,2.464a24.822,24.822,0,0,0,3.888-.32,6.3,6.3,0,0,1,.64-.08l-.144-1.232A13.406,13.406,0,0,1-22.8-.624c-2.256,0-3.248-.464-3.248-1.52,0-.96.832-1.712,3.008-2.736a4.2,4.2,0,0,1,.016.48,23.01,23.01,0,0,1-.1,2.3l1.088-.016a3.478,3.478,0,0,1-.032-.576c0-.144,0-.368.016-.72.016-.32.016-.672.016-.88,0-.4,0-.56-.032-.976a26.565,26.565,0,0,1,4.272-1.408l-.512-1.12a3.52,3.52,0,0,1-1.088.464c-.7.256-1.616.592-2.784,1.056a1.942,1.942,0,0,0-2.112-1.776,4.258,4.258,0,0,0-2.416.784c-.16.112-.16.112-.736.56a.123.123,0,0,1-.032-.048v-.016a.016.016,0,0,0,.016-.016c.016-.016.1-.08.208-.16.064-.048.384-.416.544-.608a11.8,11.8,0,0,0,1.44-2.272,51.662,51.662,0,0,0,5.28-.416,4.988,4.988,0,0,1,.64-.08l-.1-1.088a22.519,22.519,0,0,1-5.04.608,2.724,2.724,0,0,0-.336.016c.08-.144.288-.576.5-1.088a3.4,3.4,0,0,1,.416-.864l-1.28-.224a6.79,6.79,0,0,1-.768,2.192Zm16,1.36V-11.3a6.913,6.913,0,0,1,.064-1.3h-1.3a9.267,9.267,0,0,1,.064,1.344v1.84H-12.7a11.63,11.63,0,0,1-1.872-.1v1.216a14.728,14.728,0,0,1,1.856-.08h1.344v2.624A9.127,9.127,0,0,1-11.44-4.4h1.3a8.8,8.8,0,0,1-.064-1.3V-8.368h4.864c-.016,1.3-.032,1.792-.064,2.3a5.206,5.206,0,0,1-1.712,4A7.075,7.075,0,0,1-10.176-.5,2.866,2.866,0,0,1-9.456.512,11.879,11.879,0,0,0-7.6-.3a6.767,6.767,0,0,0,2.608-2.64C-4.4-4.1-4.24-5.12-4.208-8.368H-2.8a14.728,14.728,0,0,1,1.856.08V-9.5a11.63,11.63,0,0,1-1.872.1H-4.192v-1.68a10.972,10.972,0,0,1,.064-1.488H-5.376a10.635,10.635,0,0,1,.048,1.616v1.552Zm17.76-.56h-3.9a11.527,11.527,0,0,1-1.856-.1v1.216a14.451,14.451,0,0,1,1.84-.08h3.92V-.944a8.826,8.826,0,0,1-.1,1.68H8.768a10.755,10.755,0,0,1-.08-1.7V-8.928h4.064a14.451,14.451,0,0,1,1.84.08v-1.216a11.63,11.63,0,0,1-1.872.1H8.688v-1.04a9.923,9.923,0,0,1,.08-1.664H7.456a8.26,8.26,0,0,1,.1,1.632ZM4.1-7.456A11.945,11.945,0,0,1,2.7-3.408a7.655,7.655,0,0,1-1.52,2.064A3.547,3.547,0,0,1,2.24-.656a14.428,14.428,0,0,0,2.8-5.52c.208-.768.208-.768.272-.944Zm6.832.32c.128.272.224.544.4,1.04a26.165,26.165,0,0,0,1.12,2.752A15.568,15.568,0,0,0,14.112-.592a3.768,3.768,0,0,1,1.008-.752,13.629,13.629,0,0,1-2.48-4.288,10.8,10.8,0,0,1-.592-1.808Zm2.8-6.624a1.646,1.646,0,0,0-1.648,1.648,1.646,1.646,0,0,0,1.648,1.648,1.642,1.642,0,0,0,1.632-1.648A1.642,1.642,0,0,0,13.728-13.76Zm0,.672a.966.966,0,0,1,.96.976.966.966,0,0,1-.96.976.98.98,0,0,1-.976-.976A.97.97,0,0,1,13.728-13.088Zm3.424,7.6a17.479,17.479,0,0,1,1.984-.064h9.28a18.3,18.3,0,0,1,1.952.064v-1.3a12.619,12.619,0,0,1-1.936.08h-9.3a11.318,11.318,0,0,1-1.984-.1ZM37.872.5a10.882,10.882,0,0,1-.08-1.7V-6.016a5.588,5.588,0,0,0-.064-.944l.032-.016a1.765,1.765,0,0,0,.5.272,32.622,32.622,0,0,1,5.968,3.168l.688-1.184A39.681,39.681,0,0,0,37.792-8.1v-2.992a10.043,10.043,0,0,1,.08-1.664H36.5a9.487,9.487,0,0,1,.1,1.632v9.936A10.291,10.291,0,0,1,36.5.5ZM56.608-10.656c-1.088.032-2.336.064-3.872.128-2.576.1-2.576.1-3.04.1-.24,0-.352,0-.64-.016L49.1-9.28c1.072-.176,4.3-.336,7.52-.4v.832c0,.192.016.352.016.416,0,.592,0,.656.016.88a2.457,2.457,0,0,0-1.856-.72,2.662,2.662,0,0,0-2.832,2.64A2.48,2.48,0,0,0,54.592-3.1a2.5,2.5,0,0,0,2.016-.864,2.241,2.241,0,0,0,.432-.784,4.144,4.144,0,0,1-1.792,3.376,8.2,8.2,0,0,1-2.592,1.2,3.513,3.513,0,0,1,.7,1.008,10.177,10.177,0,0,0,2.528-1.3A5.15,5.15,0,0,0,58.032-4.64a4.585,4.585,0,0,0-.384-1.888V-9.7c1.3-.032,1.472-.032,1.712-.032a28.437,28.437,0,0,1,3.056.08v-1.136c-.528.064-1.76.1-4.784.112v-.176a13.246,13.246,0,0,1,.08-2h-1.2a5.392,5.392,0,0,1,.064.928ZM56.56-5.984A1.793,1.793,0,0,1,54.688-4.1,1.546,1.546,0,0,1,53.04-5.68a1.693,1.693,0,0,1,1.776-1.68,2.047,2.047,0,0,1,1.072.256A1.158,1.158,0,0,1,56.56-5.984ZM67.616-10.72a7.882,7.882,0,0,1,.864-.08c2.432-.08,4.352-.192,4.864-.288a.619.619,0,0,1,.144-.016l.032.032-.064.064-.064.064-.224.224c-1.1,1.088-3.632,3.312-5.344,4.672a17.825,17.825,0,0,1-2.24,1.632l.72,1.024A10.268,10.268,0,0,1,73.04-6.128c2.16,0,3.44.912,3.44,2.448,0,1.36-.88,2.336-2.56,2.8a4.58,4.58,0,0,0-.736-1.536,3.223,3.223,0,0,0-2.64-1.312,2.078,2.078,0,0,0-2.32,1.872c0,1.472,1.3,2.3,3.552,2.3,3.552,0,5.872-1.648,5.872-4.144,0-2.048-1.712-3.36-4.384-3.36a8.107,8.107,0,0,0-3.92.992l-.032-.048a41.056,41.056,0,0,0,5.264-4.544,2.953,2.953,0,0,1,.816-.672l-.672-.88a1.636,1.636,0,0,1-.768.176c-1.44.112-3.568.208-4.9.208a7.389,7.389,0,0,1-1.5-.1ZM72.864-.592A5.761,5.761,0,0,1,71.7-.48,4.088,4.088,0,0,1,69.9-.848a1.092,1.092,0,0,1-.64-.976c0-.608.5-.992,1.3-.992C71.712-2.816,72.512-2.048,72.864-.592Z" transform="translate(-7730 -11798.868)" fill="#3c505a"/>
    <g id="Group_210" data-name="Group 210" transform="translate(-7875 -11848.561)">
      <g id="Group_174" data-name="Group 174" transform="translate(181.509)">
        <g id="Union_2" data-name="Union 2" transform="translate(-29)" fill="#3c505a">
          <path d="M 91.74729919433594 22.70289611816406 L 2.74549674987793 22.70289611816406 L 2.74549674987793 13.84740257263184 L 2.74549674987793 13.62744998931885 L 2.58335542678833 13.47882652282715 L 0.7399647831916809 11.78910350799561 L 2.58335542678833 10.09939098358154 L 2.74549674987793 9.950756072998047 L 2.74549674987793 9.730802536010742 L 2.74549674987793 0.500002920627594 L 91.74729919433594 0.500002920627594 L 91.74729919433594 22.70289611816406 Z" stroke="none"/>
          <path d="M 91.24729919433594 22.20289993286133 L 91.24729919433594 0.9999999403953552 L 3.245499610900879 0.9999999403953552 L 3.245499610900879 10.1707124710083 L 1.479918718338013 11.78909969329834 L 3.245499610900879 13.4074878692627 L 3.245499610900879 22.20289993286133 L 91.24729919433594 22.20289993286133 M 92.24729919433594 23.20289993286133 L 2.245499610900879 23.20289993286133 L 2.245499610900879 13.84739971160889 L -4.028320290672127e-07 11.78909969329834 L 2.245499610900879 9.730799674987793 L 2.245499610900879 -3.356933575560106e-08 L 92.24729919433594 -3.356933575560106e-08 L 92.24729919433594 23.20289993286133 Z" stroke="none" fill="#3c505a"/>
        </g>
        <path id="Path_256" data-name="Path 256" d="M-36.932-8.232V-9.884a6.049,6.049,0,0,1,.056-1.134H-38.01a8.109,8.109,0,0,1,.056,1.176v1.61h-1.162a10.176,10.176,0,0,1-1.638-.084v1.064a12.887,12.887,0,0,1,1.624-.07h1.176v2.3A7.986,7.986,0,0,1-38.01-3.85h1.134a7.7,7.7,0,0,1-.056-1.134V-7.322h4.256c-.014,1.134-.028,1.568-.056,2.016a4.555,4.555,0,0,1-1.5,3.5A6.191,6.191,0,0,1-36.9-.434a2.508,2.508,0,0,1,.63.882A10.394,10.394,0,0,0-34.65-.266a5.921,5.921,0,0,0,2.282-2.31c.518-1.008.658-1.9.686-4.746h1.232a12.887,12.887,0,0,1,1.624.07V-8.316a10.176,10.176,0,0,1-1.638.084h-1.2V-9.7a9.6,9.6,0,0,1,.056-1.3H-32.7a9.305,9.305,0,0,1,.042,1.414v1.358Zm15.54-.49h-3.416a10.087,10.087,0,0,1-1.624-.084v1.064a12.645,12.645,0,0,1,1.61-.07h3.43V-.826a7.723,7.723,0,0,1-.084,1.47h1.148A9.41,9.41,0,0,1-20.4-.84V-7.812h3.556a12.645,12.645,0,0,1,1.61.07V-8.806a10.176,10.176,0,0,1-1.638.084H-20.4v-.91a8.682,8.682,0,0,1,.07-1.456h-1.148a7.228,7.228,0,0,1,.084,1.428Zm-3.024,2.2a10.452,10.452,0,0,1-1.218,3.542,6.7,6.7,0,0,1-1.33,1.806,3.1,3.1,0,0,1,.924.6A12.625,12.625,0,0,0-23.59-5.4c.182-.672.182-.672.238-.826Zm5.978.28c.112.238.2.476.35.91a22.9,22.9,0,0,0,.98,2.408A13.622,13.622,0,0,0-15.652-.518a3.3,3.3,0,0,1,.882-.658,11.925,11.925,0,0,1-2.17-3.752,9.448,9.448,0,0,1-.518-1.582Zm2.45-5.8A1.44,1.44,0,0,0-17.43-10.6a1.44,1.44,0,0,0,1.442,1.442A1.437,1.437,0,0,0-14.56-10.6,1.437,1.437,0,0,0-15.988-12.04Zm0,.588a.846.846,0,0,1,.84.854.846.846,0,0,1-.84.854.857.857,0,0,1-.854-.854A.848.848,0,0,1-15.988-11.452Zm3,6.65a15.294,15.294,0,0,1,1.736-.056h8.12A16.015,16.015,0,0,1-1.428-4.8V-5.936a11.042,11.042,0,0,1-1.694.07h-8.134a9.9,9.9,0,0,1-1.736-.084ZM5.138.434a9.522,9.522,0,0,1-.07-1.484V-5.264a4.889,4.889,0,0,0-.056-.826L5.04-6.1a1.545,1.545,0,0,0,.434.238A28.544,28.544,0,0,1,10.7-3.094l.6-1.036a34.721,34.721,0,0,0-6.23-2.954V-9.7a8.788,8.788,0,0,1,.07-1.456h-1.2A8.3,8.3,0,0,1,4.018-9.73v8.694A9,9,0,0,1,3.934.434ZM25.06-7.392a10.78,10.78,0,0,1-1.722,3.85,16.444,16.444,0,0,1-.924-5.04h2.954a11.548,11.548,0,0,1,1.568.07v-.952a7.619,7.619,0,0,1-1.5.084H22.386c-.028-.658-.028-.868-.028-1.12a6.042,6.042,0,0,1,.07-1.148H21.35a13.553,13.553,0,0,1,.14,2.268H17.36a14.828,14.828,0,0,1-1.708-.07,9.182,9.182,0,0,1,.084,1.638,26.628,26.628,0,0,1-.462,5.88,5.729,5.729,0,0,1-.98,2.1,2.582,2.582,0,0,1,.742.63A6.6,6.6,0,0,0,16.1-1.652a19.515,19.515,0,0,0,.448-3.864h2.8a20.953,20.953,0,0,1-.182,2.744c-.1.616-.21.742-.672.742a7.269,7.269,0,0,1-1.652-.224,3.271,3.271,0,0,1,.168.91,8.329,8.329,0,0,0,1.47.126c.784,0,1.092-.126,1.3-.56a10.414,10.414,0,0,0,.42-3.01,13.65,13.65,0,0,1,.1-1.568,6.912,6.912,0,0,1-1.05.056H16.576c.014-.588.028-1.064.028-2.282h4.928a17.772,17.772,0,0,0,1.19,5.824A10.14,10.14,0,0,1,18.564.14a2.384,2.384,0,0,1,.686.714,11.905,11.905,0,0,0,3.878-2.786A6.811,6.811,0,0,0,24.29-.364,2.555,2.555,0,0,0,25.76.5c.364,0,.644-.224.868-.672a5.871,5.871,0,0,0,.5-1.708,3.848,3.848,0,0,1-.756-.616c-.168,1.288-.406,2.016-.63,2.016a1.325,1.325,0,0,1-.6-.322A5.011,5.011,0,0,1,23.73-2.66a12.813,12.813,0,0,0,1.862-3.416c.238-.56.378-.868.42-.938Zm.77-2.8a10.963,10.963,0,0,0-2-1.386l-.6.49A9.261,9.261,0,0,1,25.242-9.6Zm7.448,4.424a6.779,6.779,0,0,1-.756,2.884A7.133,7.133,0,0,1,28.994.182a2.926,2.926,0,0,1,.616.784,8.216,8.216,0,0,0,3.528-3.052A7.973,7.973,0,0,0,34.23-5.768h3.262a19.928,19.928,0,0,1-.462,5.18c-.1.266-.252.35-.7.35a10.786,10.786,0,0,1-1.974-.238,3.881,3.881,0,0,1,.224.994C35.462.6,35.952.63,36.414.63c.812,0,1.148-.14,1.386-.56.364-.658.63-3.024.63-5.74a6.186,6.186,0,0,1,.056-.994,10.593,10.593,0,0,1-1.47.07H32.41a10.746,10.746,0,0,1-1.456-.084v.994A11.274,11.274,0,0,1,32.4-5.768Zm-.574-5.81a4.5,4.5,0,0,1-.6,1.47,11.536,11.536,0,0,1-3.836,4.1,3.082,3.082,0,0,1,.686.756,13.9,13.9,0,0,0,4.41-5.25,3.82,3.82,0,0,1,.392-.714Zm3.108.392c.07.112.154.266.224.392a14.183,14.183,0,0,0,4.718,5.628,3.453,3.453,0,0,1,.658-.854,11.676,11.676,0,0,1-4.13-4.354,5.668,5.668,0,0,1-.532-1.176Z" transform="translate(16.614 16.62)" fill="ivory"/>
      </g>
      <g id="Group_173" data-name="Group 173">
        <path id="Path_255" data-name="Path 255" d="M-40.782-9.226a14.149,14.149,0,0,1-2.856.6V-9.968a8.007,8.007,0,0,1,.07-1.3H-44.6a9.3,9.3,0,0,1,.07,1.33v1.386c-.42.028-.966.042-1.344.042a7.929,7.929,0,0,1-1.428-.1v.924h.574c.154.014.532.014.742.014.406,0,.644,0,.9-.014.434-.028.434-.028.56-.042v2.646a7.489,7.489,0,0,0-1.974,1.148,2.534,2.534,0,0,0-1.106,1.862A1.688,1.688,0,0,0-46.97-.756a3.7,3.7,0,0,0,2.31.9c.686,0,1.022-.364,1.022-1.12v-3.5a9.446,9.446,0,0,1,2.968-.546c1.834,0,3,.854,3,2.226A1.858,1.858,0,0,1-39.55-.826c-1.022,0-1.442-.6-1.442-2.058a4.158,4.158,0,0,1,.028-.546,3.034,3.034,0,0,1-.924.364,5.109,5.109,0,0,0,.168,1.582A2.065,2.065,0,0,0-39.564.1a2.833,2.833,0,0,0,2.856-2.9A2.817,2.817,0,0,0-38.15-5.278a4.74,4.74,0,0,0-2.478-.588,9.918,9.918,0,0,0-3.01.5V-7.784A24.572,24.572,0,0,0-41.16-8.2c.2-.042.252-.056.42-.084ZM-44.534-1.5c0,.6-.042.686-.322.686A2.615,2.615,0,0,1-46.1-1.218c-.406-.266-.6-.546-.6-.84,0-.672.784-1.428,2.17-2.1ZM-36.12-7.42a11.765,11.765,0,0,0-2.828-2.66l-.728.546A11.466,11.466,0,0,1-36.848-6.79ZM-30.3-3.584V-.392c0,.35-.07.42-.434.42a6.233,6.233,0,0,1-1.218-.14,2.5,2.5,0,0,1,.182.9c.462.042.812.056,1.12.056.938,0,1.2-.252,1.2-1.134v-9.2a14.1,14.1,0,0,1,.056-1.6,7.344,7.344,0,0,1-1.19.07h-1.386a7.8,7.8,0,0,1-1.232-.07c.042.476.056.98.056,2.17a49.659,49.659,0,0,1-.21,6.44A6,6,0,0,1-34.3.294a2.568,2.568,0,0,1,.714.686A9.243,9.243,0,0,0-32.4-3.584Zm0-4.144H-32.27V-10.22H-30.3Zm0,.8v2.548h-2.058c.056-1.148.07-1.386.07-2.548Zm3.374-3.15h2.338V-.154c0,.616.35.854,1.3.854C-22.4.7-22.022.588-21.8.28s.35-1.2.42-3.052a3.315,3.315,0,0,1-.854-.378,13.435,13.435,0,0,1-.2,2.716c-.084.238-.28.336-.7.336-.448,0-.56-.07-.56-.308V-9.59a13.345,13.345,0,0,1,.056-1.4,7.564,7.564,0,0,1-1.246.07h-1.764a7.482,7.482,0,0,1-1.232-.07,5.962,5.962,0,0,1,.056.854v2.114a29.971,29.971,0,0,1-.5,6.062A6.113,6.113,0,0,1-29.316.35a3.454,3.454,0,0,1,.728.7,8.313,8.313,0,0,0,1.3-3.6,44.91,44.91,0,0,0,.364-6.174Zm10.78.658a19.589,19.589,0,0,1-3-.154l-.014.966a2.483,2.483,0,0,1,.308-.014h.224c.518.014,1.834.042,2.058.042A1.551,1.551,0,0,0-16.3-8.61l-.126.21a13.931,13.931,0,0,1-3.136,4l.784.784A4.632,4.632,0,0,1-17.7-4.774a5.259,5.259,0,0,1,3.122-1.484c.658,0,.994.336,1.106,1.106a10.868,10.868,0,0,0-2.086,1.12A2.9,2.9,0,0,0-16.982-1.82c0,1.442,1.218,2.156,3.724,2.156a21.719,21.719,0,0,0,3.4-.28,5.509,5.509,0,0,1,.56-.07l-.126-1.078a11.73,11.73,0,0,1-3.738.546C-15.134-.546-16-.952-16-1.876c0-.84.728-1.5,2.632-2.394a3.679,3.679,0,0,1,.014.42,20.133,20.133,0,0,1-.084,2.016l.952-.014a3.043,3.043,0,0,1-.028-.5c0-.126,0-.322.014-.63.014-.28.014-.588.014-.77,0-.35,0-.49-.028-.854A23.244,23.244,0,0,1-8.778-5.838l-.448-.98a3.08,3.08,0,0,1-.952.406c-.616.224-1.414.518-2.436.924a1.7,1.7,0,0,0-1.848-1.554,3.726,3.726,0,0,0-2.114.686c-.14.1-.14.1-.644.49a.108.108,0,0,1-.028-.042v-.014a.014.014,0,0,0,.014-.014c.014-.014.084-.07.182-.14.056-.042.336-.364.476-.532A10.323,10.323,0,0,0-15.316-8.6,45.2,45.2,0,0,0-10.7-8.96a4.364,4.364,0,0,1,.56-.07l-.084-.952a19.7,19.7,0,0,1-4.41.532,2.383,2.383,0,0,0-.294.014c.07-.126.252-.5.434-.952a2.973,2.973,0,0,1,.364-.756l-1.12-.2a5.942,5.942,0,0,1-.672,1.918ZM3-6.272v-.6A8.568,8.568,0,0,1,3.08-8.33H1.974a7.478,7.478,0,0,1,.1,1.456v.6h-6.58a9.549,9.549,0,0,1-1.414-.084v.994a10.09,10.09,0,0,1,1.414-.084h6.58v5.18c0,.28-.14.35-.672.35A13.492,13.492,0,0,1-.49-.084,3.706,3.706,0,0,1-.168.882C.364.91.938.938,1.26.938a2.773,2.773,0,0,0,1.386-.2A1.011,1.011,0,0,0,3-.168V-5.446H4.69A10.09,10.09,0,0,1,6.1-5.362v-.994a9.549,9.549,0,0,1-1.414.084ZM-.588-10.094H-4.4a13.692,13.692,0,0,1-1.4-.056A6.1,6.1,0,0,1-5.74-9.2v.91a6.373,6.373,0,0,1-.056.98h.924v-1.96h9.8v1.96h.924a6.49,6.49,0,0,1-.056-.98V-9.2a5.873,5.873,0,0,1,.056-.952,13.692,13.692,0,0,1-1.4.056H.322v-.672a3.669,3.669,0,0,1,.1-.868H-.686a3.87,3.87,0,0,1,.1.882Zm0,8.26A16.278,16.278,0,0,0-3-4.7l-.742.56A12.215,12.215,0,0,1-1.386-1.19ZM10.724-11.34a2.806,2.806,0,0,1-.042.448,35.388,35.388,0,0,0-.476,5.166V-5.4l.028,1.456.014.252v.154l1.008-.042c-.014-.21-.014-.28-.014-.336A7.306,7.306,0,0,1,12-7.042c.8-1.638,1.694-2.436,2.758-2.436,1.344,0,2.128,1.3,2.128,3.556a4.821,4.821,0,0,1-2.408,4.648,7.4,7.4,0,0,1-2.842.882,2.889,2.889,0,0,1,.56.952,10.6,10.6,0,0,0,2.492-.826,5.776,5.776,0,0,0,3.234-5.5,5.751,5.751,0,0,0-.84-3.4,2.635,2.635,0,0,0-2.24-1.246,3.339,3.339,0,0,0-2.8,1.806,6.247,6.247,0,0,0-.854,2.086c-.07.294-.07.294-.1.406l-.056-.014c.042-.714.238-2.24.462-3.654a7.936,7.936,0,0,1,.322-1.442ZM25.648-6.608a9.072,9.072,0,0,1-.91,1.624,4.986,4.986,0,0,1-.56-.756,15.311,15.311,0,0,0,1.456-2.618,3.114,3.114,0,0,1,.224-.448l-.392-.49a3.038,3.038,0,0,1-.658.042h-.616v-1.358a7.755,7.755,0,0,1,.07-1.05H23.31a6.936,6.936,0,0,1,.07,1.064v1.344H22.9a5.23,5.23,0,0,1-1.092-.07v.91a8.613,8.613,0,0,1,1.134-.07h1.848a10.7,10.7,0,0,1-3.3,4.592,2.3,2.3,0,0,1,.448.77,10.653,10.653,0,0,0,1.484-1.61c-.014.378-.042,1.2-.042,1.386v3A10.669,10.669,0,0,1,23.3,1.092h.98a10.05,10.05,0,0,1-.084-1.456V-3.6c0-.14-.014-.5-.028-1.106a9.258,9.258,0,0,0,1.484,1.68,2.116,2.116,0,0,1,.462-.686,6.574,6.574,0,0,1-.91-.784,18.09,18.09,0,0,0,1.078-1.624ZM27.314-2.17h2.212V-.308A9.05,9.05,0,0,1,29.47.91h.938a9.421,9.421,0,0,1-.056-1.232V-2.17h2.492V-.378c0,.294-.056.35-.364.35a8.7,8.7,0,0,1-1.246-.1,2.413,2.413,0,0,1,.224.882c.42.028.63.042.952.042.63,0,.826-.028.994-.182.2-.154.266-.378.266-.784v-6.3a10.529,10.529,0,0,1,.056-1.358,8.287,8.287,0,0,1-1.33.07H30.352v-1.4h2.52a9.525,9.525,0,0,1,1.246.056v-.924a7.61,7.61,0,0,1-1.232.084H30.352v-.434a8.375,8.375,0,0,1,.084-1.288h-.994a8.437,8.437,0,0,1,.084,1.274v.448h-2.38a6.336,6.336,0,0,1-1.134-.07v.91a8.831,8.831,0,0,1,1.106-.056h2.408v1.4H27.762a9.065,9.065,0,0,1-1.33-.07,9.24,9.24,0,0,1,.056,1.33v6.16A10.028,10.028,0,0,1,26.4,1.092h.98a11.1,11.1,0,0,1-.07-1.442Zm0-.728v-1.75h2.212V-2.9Zm0-2.478V-7.014h2.212v1.638ZM30.352-2.9v-1.75h2.492V-2.9Zm0-2.478V-7.014h2.492v1.638ZM33.32-10.64a9.564,9.564,0,0,0-1.764-1.078l-.574.476a9.654,9.654,0,0,1,1.764,1.134Zm5.558.56a25.487,25.487,0,0,0,5.88.924l.154-1.008a17.666,17.666,0,0,1-5.7-.868ZM37.422-5.53a19.55,19.55,0,0,1,5.334-.938,3.9,3.9,0,0,1,1.722.308,1.7,1.7,0,0,1,.9,1.568,3.134,3.134,0,0,1-.714,1.9,3.427,3.427,0,0,1-1.2.994A8.888,8.888,0,0,1,39.522-.56,3.553,3.553,0,0,1,39.97.462a10.752,10.752,0,0,0,4.06-1.33,4.461,4.461,0,0,0,2.408-3.78,2.49,2.49,0,0,0-1.19-2.226,4.452,4.452,0,0,0-2.408-.532,23.392,23.392,0,0,0-4.27.5,11.016,11.016,0,0,1-1.414.238Z" transform="translate(99.736 16.994)" fill="#3c505a"/>
        <g id="Rectangle_150" data-name="Rectangle 150" transform="translate(44)" fill="none" stroke="#3c505a" stroke-width="1">
          <rect width="140.129" height="23.203" stroke="none"/>
          <rect x="0.5" y="0.5" width="139.129" height="22.203" fill="none"/>
        </g>
      </g>
    </g>
  </g>
</svg>
