<svg xmlns="http://www.w3.org/2000/svg" width="375" height="247.817" viewBox="0 0 375 247.817">
  <g id="Group_417" data-name="Group 417" transform="translate(7918 11917.932)">
    <path id="Path_122" data-name="Path 122" d="M300,0H675V186.741L300,219Z" transform="translate(-8218 -11889.114)" fill="#ffbe00"/>
    <g id="Point" transform="translate(-7760 -11917.932)">
      <g id="Ellipse_10" data-name="Ellipse 10" fill="#ffbe00" stroke="#3c505a" stroke-width="1">
        <circle cx="29.753" cy="29.753" r="29.753" stroke="none"/>
        <circle cx="29.753" cy="29.753" r="29.253" fill="none"/>
      </g>
      <path id="Path_202" data-name="Path 202" d="M-4.655.105A.565.565,0,0,1-5.04-.018a.381.381,0,0,1-.14-.3.34.34,0,0,1,.157-.262A1.222,1.222,0,0,1-4.655-.77,18.021,18.021,0,0,0-2.31-1.453a2.514,2.514,0,0,0,1.12-.822A2.585,2.585,0,0,0-.8-3.815v-13.37a1.233,1.233,0,0,0-.77-1.243,6.977,6.977,0,0,0-2.17-.437,1.7,1.7,0,0,1-.648-.175.45.45,0,0,1-.262-.42.466.466,0,0,1,.245-.4,1.734,1.734,0,0,1,.63-.227,16.266,16.266,0,0,0,3.045-.683,6.09,6.09,0,0,0,2.2-1.488.277.277,0,0,1,.175-.035.582.582,0,0,1,.315.087.2.2,0,0,1,.105.227,17.653,17.653,0,0,0-.14,2.485v16.1A2.245,2.245,0,0,0,2.24-2.082a2.027,2.027,0,0,0,1,.682q.682.245,2.4.665a1.4,1.4,0,0,1,.42.193A.335.335,0,0,1,6.23-.28.333.333,0,0,1,6.09,0a.567.567,0,0,1-.35.105Q4.3.105,3.08,0,1.47-.07.6-.07-.77-.07-2.03.035-3.71.105-4.655.105Z" transform="translate(28.958 42.485)" fill="#3c505a"/>
      <g id="Layer_2" data-name="Layer 2" transform="translate(9.31 4.117)">
        <g id="Group_292" data-name="Group 292" transform="translate(0 0)">
          <path id="Path_153" data-name="Path 153" d="M6.949,17.292c1.1,1.052,1.258,1.161,1.971.556l.3-.254c.115-.012.272.175.242.272-.593.581-.931.913-1.33,1.336-.423.441-.768.828-1.191,1.312-.091.03-.278-.109-.284-.23l.181-.248c.5-.689.393-.828-.714-1.881L2.25,14.462c-.9-.853-1.095-1-1.6-.575l-.405.339a.243.243,0,0,1-.242-.272,22.368,22.368,0,0,1,1.9-2.159,5.2,5.2,0,0,1,2.34-1.615,2.506,2.506,0,0,1,2.377.659,2.468,2.468,0,0,1,.671,2.643,4.922,4.922,0,0,1-1.064,1.754c-.1.042-.26-.109-.218-.187a2.256,2.256,0,0,0-.3-3.229,2.14,2.14,0,0,0-3.3.091c-.532.556-.5.6-.163.925L6.943,17.3Z" transform="translate(-0.001 -3.988)" fill="#3c505a"/>
          <path id="Path_154" data-name="Path 154" d="M24.424,9.129a2.965,2.965,0,0,1-1.772,4,2.866,2.866,0,0,1-3.834-1.754,3.055,3.055,0,0,1,1.8-4.022A2.905,2.905,0,0,1,24.43,9.129ZM20.6,7.816c-.9.339-1.24,1.439-.683,2.939.466,1.24,1.518,2.358,2.715,1.911s1.095-1.838.7-2.885C22.9,8.627,21.89,7.333,20.6,7.816Z" transform="translate(-7.353 -2.821)" fill="#3c505a"/>
          <path id="Path_155" data-name="Path 155" d="M34.074,4.876c.012-.568.012-.641-.375-.907l-.127-.091c-.054-.06-.054-.218.018-.26A10.374,10.374,0,0,0,35.1,2.941a.137.137,0,0,1,.145.091c-.042.508-.085,1.2-.1,1.8L35.1,7.44c-.024,1.046,0,1.191.526,1.276l.3.048a.252.252,0,0,1-.036.363c-.435-.036-.859-.06-1.361-.073-.52-.012-.955,0-1.367.012a.252.252,0,0,1-.024-.363l.308-.036c.538-.06.556-.206.581-1.252l.054-2.54ZM35.368.764a.712.712,0,0,1-.786.738.72.72,0,0,1-.726-.744.757.757,0,0,1,.8-.768.722.722,0,0,1,.708.768Z" transform="translate(-13.072 0.01)" fill="#3c505a"/>
          <path id="Path_156" data-name="Path 156" d="M43.232,8.459c.23-.52.26-.587,0-.98l-.085-.133a.2.2,0,0,1,.121-.236,8.021,8.021,0,0,0,1.615-.06.161.161,0,0,1,.1.157c-.163.3-.248.49-.3.611a.154.154,0,0,0,.079.212,4.033,4.033,0,0,1,2.159.145,1.612,1.612,0,0,1,.822,2.334l-1.01,2.28c-.423.955-.454,1.1-.006,1.379l.272.169a.25.25,0,0,1-.175.321c-.387-.206-.768-.387-1.228-.593-.478-.212-.883-.375-1.252-.508a.259.259,0,0,1,.121-.345l.272.073c.526.139.593.024,1.016-.931l.877-1.978a1.257,1.257,0,0,0-.665-1.863,1.591,1.591,0,0,0-1.336-.036,1.216,1.216,0,0,0-.55.708l-.9,2.032c-.423.955-.448,1.089-.006,1.379l.224.145a.254.254,0,0,1-.175.321c-.345-.187-.726-.369-1.191-.575s-.883-.375-1.264-.514a.259.259,0,0,1,.121-.345l.3.085c.52.151.593.024,1.016-.931l1.028-2.322Z" transform="translate(-16.104 -2.78)" fill="#3c505a"/>
          <path id="Path_157" data-name="Path 157" d="M58.571,17.408c-.169-.181-.206-.163-.435.042l-2,1.832c-.623.568-1.119,1.161-.472,1.869a1.093,1.093,0,0,0,.321.242c.121.067.363.1.393.133.079.085,0,.236-.085.272a2,2,0,0,1-1.518-.677,1.329,1.329,0,0,1,.139-2.171l2.455-2.244c.29-.266.3-.3.1-.508l-.272-.3a.234.234,0,0,1,.194-.236,2.8,2.8,0,0,0,.962.381,3.418,3.418,0,0,0,1.04-.127c.073.036.187.163.151.272l-.484.441c-.194.175-.194.2-.024.381L60.125,18.2a.465.465,0,0,1-.441.423l-1.107-1.209Z" transform="translate(-21.452 -6.184)" fill="#3c505a"/>
        </g>
      </g>
    </g>
    <path id="Path_201" data-name="Path 201" d="M-52.255-28.681h-11.4l-4.171,13.846a9.364,9.364,0,0,1,5.547-1.978,6.8,6.8,0,0,1,7.052,7.052,7.125,7.125,0,0,1-7.052,7.353,7.037,7.037,0,0,1-4.644-1.72A6.671,6.671,0,0,1-68.853-6.45L-71.39-4.644A11.938,11.938,0,0,0-68.9-1.72,9.722,9.722,0,0,0-62.489.516C-56.855.516-52.04-3.4-52.04-9.8c0-5.59-3.7-9.933-9.46-9.933a7.808,7.808,0,0,0-1.806.172l1.849-6.192h9.2ZM-36.215.516a9.052,9.052,0,0,0,7.353-4.3,18.625,18.625,0,0,0,2.881-10.535,18.625,18.625,0,0,0-2.881-10.535,9.052,9.052,0,0,0-7.353-4.3,9.052,9.052,0,0,0-7.353,4.3,18.625,18.625,0,0,0-2.881,10.535A18.625,18.625,0,0,0-43.568-3.784,9.052,9.052,0,0,0-36.215.516Zm0-26.746a5.987,5.987,0,0,1,4.945,3.182,16.733,16.733,0,0,1,2.107,8.729A16.733,16.733,0,0,1-31.27-5.59a5.987,5.987,0,0,1-4.945,3.182A5.987,5.987,0,0,1-41.16-5.59a16.733,16.733,0,0,1-2.107-8.729,16.733,16.733,0,0,1,2.107-8.729A5.987,5.987,0,0,1-36.215-26.23ZM-19.779-.1-18.1,1.254l20.79-26.6L.978-26.664ZM-.771.924A6.074,6.074,0,0,0,3.684-.759C4.938-1.98,5.6-3.96,5.6-6.468a7.757,7.757,0,0,0-1.914-5.676A6.155,6.155,0,0,0-.771-13.827a6.291,6.291,0,0,0-4.488,1.683A7.81,7.81,0,0,0-7.173-6.468c0,2.508.66,4.488,1.914,5.709A6.1,6.1,0,0,0-.771.924Zm0-11.946A2.377,2.377,0,0,1,1.341-10a5.826,5.826,0,0,1,.891,3.3c0,3.2-1.023,4.851-3,4.851-1.947,0-3-1.65-3-4.686a5.738,5.738,0,0,1,.891-3.432A2.3,2.3,0,0,1-.771-11.022Zm-15.543-.594A6.074,6.074,0,0,0-11.859-13.3c1.254-1.221,1.914-3.2,1.914-5.709a7.757,7.757,0,0,0-1.914-5.676,6.155,6.155,0,0,0-4.455-1.683c-4.026,0-6.4,2.739-6.4,7.359A7.842,7.842,0,0,0-20.8-13.3,6.1,6.1,0,0,0-16.314-11.616Zm0-11.946a2.54,2.54,0,0,1,2.409,1.485,7.245,7.245,0,0,1,.594,3.069c0,2.97-1.089,4.62-3,4.62-1.947,0-3-1.65-3-4.686C-19.317-21.945-18.228-23.562-16.314-23.562Zm29.733,0v2.706h-.693a28.593,28.593,0,0,1-3.366-.132c.1,1.155.132,2.277.132,3.96V-1.749a41.327,41.327,0,0,1-.2,4.488h3.3V.891h7.821V2.145h3.168c-.1-.99-.132-2.079-.132-3.663v-15.84c0-1.386.033-2.607.1-3.63a29.237,29.237,0,0,1-3.4.132h-.462v-2.706h1.023c1.188,0,2.475.066,3.366.132v-3.5a30.451,30.451,0,0,1-3.7.2H12.3a29.311,29.311,0,0,1-3.63-.2V-23.4a35.2,35.2,0,0,1,3.6-.165Zm2.673,0h.924v2.706h-.924ZM12.594-10.4A8.185,8.185,0,0,1,13.98-7.953a10.972,10.972,0,0,0,1.452-3.531,30.312,30.312,0,0,0,.66-6.2v-.4h.924v6.435c0,1.287.33,1.485,2.475,1.485h.924V-7.59H12.594Zm0-7.689h1.287c-.066,3.8-.363,5.445-1.287,7.326Zm6.6,0h1.221V-12.9c-1.188-.033-1.221-.066-1.221-.594Zm-6.6,13.332h7.821v2.574H12.594ZM37.278-23.529a31.729,31.729,0,0,1,.132-3.333,31.891,31.891,0,0,1-3.4.132H28.566a28.957,28.957,0,0,1-3.7-.2v3.7a27.275,27.275,0,0,1,3.663-.165h5.214l.033,6.93H28.467a31.056,31.056,0,0,1-3.3-.132,28.588,28.588,0,0,1,.132,3.234V-1.287c0,3,.759,3.432,5.907,3.432,3.828,0,5.412-.363,6.27-1.419.66-.858.957-2.475,1.155-6.435a11.523,11.523,0,0,1-3.465-1.353A20.585,20.585,0,0,1,34.8-2.211c-.3.825-.957,1.023-3.4,1.023a6.681,6.681,0,0,1-2.343-.264c-.2-.132-.264-.3-.264-.891V-13.134H34.11a31.056,31.056,0,0,1,3.3.132,30.119,30.119,0,0,1-.132-3.234ZM47.871-14.52a24.847,24.847,0,0,1,2.838-.132H61.994a24.023,24.023,0,0,1,2.97.132v-2.31a32.073,32.073,0,0,0,5.379,2.9,17.767,17.767,0,0,1,1.815-3.63,31.03,31.03,0,0,1-8.415-4.521A21.561,21.561,0,0,1,58.2-27.654H54.273a23.046,23.046,0,0,1-5.181,5.511,32.972,32.972,0,0,1-8.415,4.752,12.779,12.779,0,0,1,1.914,3.366,33.6,33.6,0,0,0,5.28-2.772Zm2.871-3.564h-.924a23.1,23.1,0,0,0,6.468-6.435,30.144,30.144,0,0,0,6.8,6.435H50.742ZM49.125,2.508V.825H63.546V2.508h3.927a20.616,20.616,0,0,1-.2-3.465V-8.679a22.494,22.494,0,0,1,.165-3.267,21.646,21.646,0,0,1-2.871.132h-16.5a20.782,20.782,0,0,1-2.838-.132A29.794,29.794,0,0,1,45.4-8.679V-.99a26.387,26.387,0,0,1-.2,3.5Zm0-11.121H63.546v6.2H49.125Z" transform="translate(-7730 -11752.868)" fill="#3c505a"/>
    <path id="Path_200" data-name="Path 200" d="M-91.424-10.96a7.4,7.4,0,0,1,.08-1.344h-1.312a9.59,9.59,0,0,1,.064,1.328V-3.6c0,.656.016.976.032,1.248A2.124,2.124,0,0,0-91.9-.816c.56.464,1.616.656,3.5.656,1.1,0,3.216-.112,4.24-.224l1.5-.16-.1-1.264a10.649,10.649,0,0,1-1.584.32A31.652,31.652,0,0,1-88-1.232a16.686,16.686,0,0,1-1.888-.1A2.021,2.021,0,0,1-91.1-1.744c-.272-.272-.336-.64-.336-1.76V-3.7a.281.281,0,0,0,.016-.1V-6.128a24.346,24.346,0,0,0,7.712-2.72,5.666,5.666,0,0,1,.688-.352l-.816-1.072c-1.216,1.12-4.9,2.624-7.584,3.088ZM-73.888.5a10.882,10.882,0,0,1-.08-1.7V-6.016a5.588,5.588,0,0,0-.064-.944L-74-6.976a1.765,1.765,0,0,0,.5.272,32.622,32.622,0,0,1,5.968,3.168l.688-1.184A39.681,39.681,0,0,0-73.968-8.1v-2.992a10.044,10.044,0,0,1,.08-1.664h-1.376a9.486,9.486,0,0,1,.1,1.632v9.936a10.29,10.29,0,0,1-.1,1.68Zm12.3-8.96a3.534,3.534,0,0,1,.624-.048,47.111,47.111,0,0,0,5.7-.416c.1.16.1.192.272.528a19.51,19.51,0,0,0,1.92,3.136,7.99,7.99,0,0,0-3.312-.576,6.8,6.8,0,0,0-3.1.592A2.99,2.99,0,0,0-61.3-2.64a2.581,2.581,0,0,0,.72,1.76c.736.768,2.208,1.2,4.16,1.2a13.264,13.264,0,0,0,4.7-.864l-.176-1.232A10.549,10.549,0,0,1-56.432-.752a5.419,5.419,0,0,1-3.12-.736,1.6,1.6,0,0,1-.608-1.248A1.817,1.817,0,0,1-59.3-4.224a5.672,5.672,0,0,1,3.04-.672,8.67,8.67,0,0,1,2.8.416,3.2,3.2,0,0,1,1.1.656l1.072-.608a29.63,29.63,0,0,1-2.88-4.656l.544-.112c1.008-.192,1.2-.24,2.16-.5.48-.128.608-.16.944-.224l-.16-1.136a18.725,18.725,0,0,1-3.872,1.008,13.162,13.162,0,0,1-.576-1.408,5.1,5.1,0,0,1-.464-1.44l-1.264.176c.144.288.24.512.416.928.288.72.544,1.36.784,1.9a37.346,37.346,0,0,1-4.768.336,7.015,7.015,0,0,1-1.232-.08Zm15.76-2.88a8.655,8.655,0,0,1,.048.944c.08,3.936.3,5.984.864,7.5.544,1.536,1.376,2.432,2.272,2.432,1.136,0,1.872-1.072,2.656-3.872a5.115,5.115,0,0,1-.944-.912,11.512,11.512,0,0,1-.832,2.736c-.24.528-.512.8-.8.8-.608,0-1.264-1.1-1.616-2.736a27.4,27.4,0,0,1-.416-4.976,11.6,11.6,0,0,1,.112-1.9Zm8.1,1.36A14.131,14.131,0,0,1-34.4-2.1l1.136-.464a15.32,15.32,0,0,0-1.2-4.272,13.888,13.888,0,0,0-2.288-3.648Zm14.064-1.856v-.208a6.432,6.432,0,0,1,.08-1.28H-24.7a6.531,6.531,0,0,1,.08,1.28v.208H-27.84v-.144a6.736,6.736,0,0,1,.064-1.232h-1.1a6.587,6.587,0,0,1,.08,1.232v.144h-.576a10.027,10.027,0,0,1-1.76-.1v1.088a12.846,12.846,0,0,1,1.744-.08h.592v1.472a9.937,9.937,0,0,1-.048,1.1c.288-.032.912-.048,1.248-.048h7.024a9.447,9.447,0,0,1,1.312.048,10.437,10.437,0,0,1-.048-1.056v-1.52h.672a12.99,12.99,0,0,1,1.744.08v-1.088a10.233,10.233,0,0,1-1.776.1h-.64V-12a6.1,6.1,0,0,1,.08-1.216h-1.1a7.01,7.01,0,0,1,.064,1.2v.176Zm-.96,2.576H-27.84v-1.664h3.216Zm.96,0v-1.664h3.392v1.664Zm-.976,2.928v1.6H-27.3A13.913,13.913,0,0,1-28.848-4.8a13.242,13.242,0,0,1,.064,1.44v1.808a10.466,10.466,0,0,1-.08,1.616h1.12a12.055,12.055,0,0,1-.064-1.632V-3.856h3.168V-.32a11.037,11.037,0,0,1-.1,1.664h1.168a11.038,11.038,0,0,1-.1-1.664V-3.856h3.424v2.512c0,.224-.032.272-.192.32a2.954,2.954,0,0,1-.464.032,10.687,10.687,0,0,1-1.408-.08A5.747,5.747,0,0,1-22.08-.048c.5.016.72.016.864.016,1.648,0,1.952-.176,1.952-1.1V-3.392A11.246,11.246,0,0,1-19.2-4.8a13.476,13.476,0,0,1-1.52.064h-2.944v-1.6h5.456V-4h1.056a6.466,6.466,0,0,1-.064-1.088V-5.9A11.462,11.462,0,0,1-17.152-7.3c-.48.048-1.024.064-1.808.064H-29.184A15.235,15.235,0,0,1-30.912-7.3a9.929,9.929,0,0,1,.064,1.264v.816a8.8,8.8,0,0,1-.064,1.184h1.056v-2.3Zm12.7-4.1a15.777,15.777,0,0,1-1.824-.08,14.034,14.034,0,0,1,.1,1.728V-.848h-.512a6.669,6.669,0,0,1-1.248-.08V.192A13.1,13.1,0,0,1-13.536.1H-2.448a13.928,13.928,0,0,1,1.856.1V-.928a6.548,6.548,0,0,1-1.264.08H-2.32V-8.7a14.136,14.136,0,0,1,.1-1.808,13.622,13.622,0,0,1-1.728.08H-8.64a23.1,23.1,0,0,0,1.1-2.592l-1.152-.192a12.2,12.2,0,0,1-1.056,2.784Zm1.7.912V-.848h-2.384V-9.52Zm3.408,0V-.848h-2.4V-9.52Zm1.008,0H-3.36V-.848H-5.824ZM3.808-11.5H2.48a7.146,7.146,0,0,1-1.456-.1v1.024a9.447,9.447,0,0,1,1.456-.08H3.808v1.52H2.992A11.371,11.371,0,0,1,1.5-9.2a14.227,14.227,0,0,1,.064,1.568v2.24A15.271,15.271,0,0,1,1.5-3.744a13.227,13.227,0,0,1,1.488-.064h.816v1.584H2.4A9.2,9.2,0,0,1,.944-2.3v1.04A7.429,7.429,0,0,1,2.4-1.36H3.808v.944a10.13,10.13,0,0,1-.1,1.664h1.1a9.791,9.791,0,0,1-.1-1.664V-1.36H6.1a9.833,9.833,0,0,1,1.456.08V-2.3a9.2,9.2,0,0,1-1.456.08H4.72V-3.808h.736a12.538,12.538,0,0,1,1.536.048c-.032-.448-.048-.912-.048-1.648V-7.6c0-.544,0-.864.032-1.248a3.546,3.546,0,0,1,.576.688,11,11,0,0,0,3.456-4.064,11.629,11.629,0,0,0,4.032,4,3.7,3.7,0,0,1,.544-.9,9.893,9.893,0,0,1-2.512-1.872,7.918,7.918,0,0,1-1.552-2.16H10.432A8.825,8.825,0,0,1,6.976-9.008l.016-.176a11.557,11.557,0,0,1-1.536.048H4.72v-1.52H5.984a9.574,9.574,0,0,1,1.456.08V-11.6a7.146,7.146,0,0,1-1.456.1H4.72v-.208a8.735,8.735,0,0,1,.1-1.552h-1.1a10.642,10.642,0,0,1,.1,1.536ZM2.464-8.352h3.6v1.44h-3.6Zm0,2.24h3.6v1.52h-3.6Zm8.1-1.568v2.672H9.12a10.356,10.356,0,0,1-1.568-.1V-4A10.806,10.806,0,0,1,9.12-4.1h1.44V-.3a9.518,9.518,0,0,1-.1,1.568h1.2A8.192,8.192,0,0,1,11.552-.3V-4.1h1.776a11.045,11.045,0,0,1,1.584.1V-5.1a10.739,10.739,0,0,1-1.584.1H11.552V-7.68h.992a9.151,9.151,0,0,1,1.488.08V-8.672a7.4,7.4,0,0,1-1.488.1H9.872a7.5,7.5,0,0,1-1.488-.1V-7.6A12.4,12.4,0,0,1,9.9-7.68ZM16.9-5.312a5.062,5.062,0,0,1,.9-.1c.528-.032.992-.064,1.616-.112v5.1a11.131,11.131,0,0,1-.1,1.6h1.136a10.825,10.825,0,0,1-.1-1.6v-5.2c.672-.064.816-.08,1.456-.176.1.336.144.5.256,1.008l.816-.384a19.466,19.466,0,0,0-1.216-3.12l-.752.352c.3.624.4.816.608,1.344-.88.112-1.36.16-2.48.24.768-.96,1.824-2.464,2.688-3.824.208-.336.336-.512.464-.688l-.944-.512a14.362,14.362,0,0,1-1.584,2.784c-.464-.56-.48-.592-.96-1.136a28.717,28.717,0,0,0,1.44-2.512,6.988,6.988,0,0,1,.4-.72l-1.008-.4a10.731,10.731,0,0,1-1.424,2.992c-.288-.3-.336-.352-.72-.736l-.576.752a22.549,22.549,0,0,1,2.32,2.528c-.384.56-.592.832-1.12,1.52-.416.016-.512.016-.64.016a3.8,3.8,0,0,1-.624-.048Zm.7.8a10.98,10.98,0,0,1-.864,4.256l.88.432a14.7,14.7,0,0,0,.9-4.528Zm3.376.144A15.916,15.916,0,0,1,21.76-.544l.88-.24a22.051,22.051,0,0,0-.848-3.84Zm2.16,3.7a13.851,13.851,0,0,1-.1,1.76H24.1V.048h5.568V1.072H30.72a13.945,13.945,0,0,1-.1-1.776v-9.92a17.793,17.793,0,0,1,.064-1.84,12.237,12.237,0,0,1-1.616.064H24.656a12.949,12.949,0,0,1-1.584-.064c.048.48.064,1.024.064,1.776Zm.944-10.8h2.24v4.656H24.08Zm3.168,0H29.68V-6.8H27.248ZM24.08-5.92h2.24V-.848H24.08Zm3.168.016H29.68V-.848H27.248Zm9.536,1.68v3.84c0,.368-.1.464-.464.464a8.538,8.538,0,0,1-1.408-.144A2.639,2.639,0,0,1,35.12.944c.512.032.784.048,1.184.048,1.136,0,1.408-.256,1.408-1.3V-11.136a12.914,12.914,0,0,1,.064-1.6,7.709,7.709,0,0,1-1.232.064H34.88a9.354,9.354,0,0,1-1.248-.064,29.45,29.45,0,0,1,.08,3.232,52.414,52.414,0,0,1-.32,7.44,6.11,6.11,0,0,1-.88,2.48,3.471,3.471,0,0,1,.816.736c.8-1.376,1.088-2.624,1.232-5.376Zm0-4.672H34.656V-11.76h2.128Zm0,.864v2.944H34.592c.016-.4.016-.64.032-1.6,0-.288,0-.752.016-1.344Zm8.8-2.432a33.782,33.782,0,0,1-.464,6.336c-.1.432-.256.56-.688.56A7.946,7.946,0,0,1,43.008-3.7a3.023,3.023,0,0,1,.192.976c.608.048.928.064,1.3.064,1.3,0,1.52-.336,1.776-2.48.112-1.024.256-3.136.288-4.384a16.43,16.43,0,0,1,.1-1.936,10.154,10.154,0,0,1-1.392.08H40.7c.128-.288.192-.48.3-.8.176-.5.256-.72.32-.9L40.24-13.28a9.239,9.239,0,0,1-2.432,4.816,2.184,2.184,0,0,1,.656.736,11.41,11.41,0,0,0,1.84-2.736ZM40.224-4.7h2.224c.56,0,.944.016,1.36.048-.032-.416-.048-.736-.048-1.264v-1.7a11.358,11.358,0,0,1,.048-1.3,10.924,10.924,0,0,1-1.408.064H40.9a8,8,0,0,1-1.3-.064v1.024a8,8,0,0,1,1.3-.064h1.92v2.368H40.592c-.592,0-.96-.016-1.408-.048a12.448,12.448,0,0,1,.064,1.456V-.608c0,.64.112.912.464,1.1a7.3,7.3,0,0,0,3.024.32c2.5,0,3.376-.112,3.776-.5.368-.336.56-1.024.688-2.432a3.426,3.426,0,0,1-1.008-.432C46.16-1.3,46.064-.72,45.84-.464c-.272.288-.9.368-3.136.368a10.334,10.334,0,0,1-1.936-.112c-.4-.08-.544-.224-.544-.576ZM50.832-9.1H50.24a5.927,5.927,0,0,1-1.312-.1v1.088a5.842,5.842,0,0,1,1.312-.1h.592v5.28A10.583,10.583,0,0,1,48.7-2.24l.32,1.1a5.079,5.079,0,0,1,.672-.3A38.646,38.646,0,0,0,53.68-3.216l-.1-.928c-.768.384-1.024.512-1.76.816v-4.88h.368a10.3,10.3,0,0,1,1.3.064V-9.2a6.137,6.137,0,0,1-1.3.1h-.368v-2.5a8.273,8.273,0,0,1,.1-1.5H50.736a10.1,10.1,0,0,1,.1,1.52Zm7.728-2.384v-.544a6.382,6.382,0,0,1,.08-1.232H57.472a5.89,5.89,0,0,1,.1,1.216v.56H55.184a9.674,9.674,0,0,1-1.552-.08v1.056a9.33,9.33,0,0,1,1.536-.08h6.16a9.3,9.3,0,0,1,1.568.08v-1.056a12.246,12.246,0,0,1-1.584.08ZM54.624-7.28a8.779,8.779,0,0,1-1.5-.08v1.088a11.854,11.854,0,0,1,1.552-.08H61.6a12.8,12.8,0,0,1,1.584.08V-7.36a11.783,11.783,0,0,1-1.568.08H60a22.767,22.767,0,0,0,1.328-2.832l-1.008-.3A12.447,12.447,0,0,1,58.992-7.28Zm.288-2.832a11.4,11.4,0,0,1,1.024,2.624l.912-.336a15.548,15.548,0,0,0-.976-2.576Zm.48,10.16h5.44v.976H61.92A10.516,10.516,0,0,1,61.856-.3V-3.488c0-.688.016-1.04.048-1.392a8.273,8.273,0,0,1-1.216.064H55.632a10.139,10.139,0,0,1-1.3-.064A10.578,10.578,0,0,1,54.4-3.52v3.1a11.162,11.162,0,0,1-.08,1.44h1.072Zm0-3.968h5.456V-.848H55.392ZM71.28-2.192a8.257,8.257,0,0,0,2.576,2.08A13.8,13.8,0,0,0,78.8,1.3a3.466,3.466,0,0,1,.576-.944A15.338,15.338,0,0,1,75.12-.464a20.907,20.907,0,0,0,2.9-1.952L77.2-3.008a11.52,11.52,0,0,1-2.96,2.16A5.487,5.487,0,0,1,72.4-2.192h2.5a10.732,10.732,0,0,1,1.28.048c-.032-.336-.048-.72-.048-1.376V-5.584a14.347,14.347,0,0,0,2.9,1.76,2.808,2.808,0,0,1,.624-.9,10.462,10.462,0,0,1-2.752-1.3,8.921,8.921,0,0,1-1.888-1.7h2.528a10.739,10.739,0,0,1,1.584.1v-.976a8.393,8.393,0,0,1-1.584.1H72.4v-.976h4.112a8.34,8.34,0,0,1,1.392.08v-.944a7.886,7.886,0,0,1-1.392.08H72.4v-.976h4.48a10.653,10.653,0,0,1,1.568.1v-.976a9.927,9.927,0,0,1-1.568.1H74.736c.272-.352.448-.592.928-1.328L74.64-13.68a9.336,9.336,0,0,1-.992,1.664H70.416a8.621,8.621,0,0,0-1.2-1.648l-.944.32a6.716,6.716,0,0,1,1.04,1.328H67.184a10.067,10.067,0,0,1-1.568-.1v.976a10.653,10.653,0,0,1,1.568-.1H71.44v.976H67.584a7.978,7.978,0,0,1-1.408-.08v.944a8.433,8.433,0,0,1,1.408-.08H71.44V-8.5H66.528a10.015,10.015,0,0,1-1.584-.1v.976a10.442,10.442,0,0,1,1.584-.1h2.544A7.969,7.969,0,0,1,67.36-5.984a9.575,9.575,0,0,1-2.976,1.472,2.693,2.693,0,0,1,.672.88,12.739,12.739,0,0,0,2.608-1.536V.064c-.928.112-1.552.176-1.872.176A.312.312,0,0,1,65.68.224L65.9,1.248c.272-.064.48-.112.784-.16A54.006,54.006,0,0,0,72.528.032L72.48-.8a34.973,34.973,0,0,1-3.84.736V-2.192ZM69.1-6.416a9.967,9.967,0,0,0,1.088-1.3h3.776c.624.72.816.912,1.2,1.3h-2.64a4.6,4.6,0,0,1,.064-.944h-1.12a3.6,3.6,0,0,1,.08.944Zm-.464.752H75.2v.992H68.64Zm0,1.712H75.2v1.008H68.64ZM91.952-5.584a10.124,10.124,0,0,0-1.52-1.7l-.64.576a6.7,6.7,0,0,1,1.5,1.792ZM93.936-8.9a7.255,7.255,0,0,1-1.2.064h-2.56c.128-.336.144-.368.176-.448.192-.512.192-.512.256-.688l-1.024-.272a9.191,9.191,0,0,1-.88,2.56A11.949,11.949,0,0,1,86.672-4.8a2.394,2.394,0,0,1,.72.672c.448-.56.56-.7.88-1.152A12.492,12.492,0,0,0,90.32-2.336,10.934,10.934,0,0,1,86.768.208a2.706,2.706,0,0,1,.7.864,12.934,12.934,0,0,0,3.5-2.72,13.718,13.718,0,0,0,4.064,2.72A4.419,4.419,0,0,1,95.648.1a12.047,12.047,0,0,1-4.064-2.448,14.489,14.489,0,0,0,2.528-4.912c.208-.656.24-.768.352-1.072Zm-.608.912a13.18,13.18,0,0,1-2.416,4.96,12.073,12.073,0,0,1-2.1-3.088,16.748,16.748,0,0,0,1.008-1.872Zm-4.4-3.568h-3.04a11.012,11.012,0,0,1-1.424-.1v1.072a14.106,14.106,0,0,1,1.424-.08H93.76c.384,0,.816.032,1.424.08v-1.072a12.1,12.1,0,0,1-1.456.1H89.936v-.736a4.776,4.776,0,0,1,.08-1.072H88.848a4.761,4.761,0,0,1,.08,1.088ZM81.1-12.416a9.779,9.779,0,0,1,2.3,2.064L84.1-11.1a11.629,11.629,0,0,0-2.32-2Zm-.512,4A11.467,11.467,0,0,1,83.1-6.448l.624-.832A16.931,16.931,0,0,0,81.2-9.152Zm2.288,4A12.3,12.3,0,0,1,80.688.08l.88.8a3.238,3.238,0,0,1,.208-.368c.048-.08.144-.272.32-.576a18.663,18.663,0,0,0,1.568-3.728Zm2.384,3.7a14.3,14.3,0,0,1-.1,1.888h1.168a15.614,15.614,0,0,1-.1-1.84V-7.136a21.839,21.839,0,0,0,1.168-2.256c.176-.368.176-.368.272-.576l-1.024-.384a11.451,11.451,0,0,1-1.888,3.76,7.461,7.461,0,0,1-1.392,1.52,2.7,2.7,0,0,1,.64.864,7.037,7.037,0,0,0,1.3-1.744c-.032.736-.048,1.12-.048,1.808Z" transform="translate(-7730 -11798.868)" fill="#3c505a"/>
    <path id="Path_199" data-name="Path 199" d="M5-5.9a.755.755,0,0,0,.75-.75A.755.755,0,0,0,5-7.4a.755.755,0,0,0-.75.75A.755.755,0,0,0,5-5.9ZM5-4.09,1.7-7.39l-.29.29,3.3,3.3L1.4-.49l.29.29L5-3.51,8.3-.21,8.59-.5,5.29-3.8l3.3-3.3L8.3-7.39ZM2.9-3.8a.755.755,0,0,0-.75-.75.755.755,0,0,0-.75.75.755.755,0,0,0,.75.75A.755.755,0,0,0,2.9-3.8Zm4.2,0a.755.755,0,0,0,.75.75A.755.755,0,0,0,8.6-3.8a.755.755,0,0,0-.75-.75A.755.755,0,0,0,7.1-3.8ZM5-1.7a.755.755,0,0,0-.75.75A.755.755,0,0,0,5-.2a.755.755,0,0,0,.75-.75A.755.755,0,0,0,5-1.7ZM10.88,0H14.9V-.76H13.43V-7.34h-.7a4.416,4.416,0,0,1-1.52.53v.58h1.3V-.76H10.88Z" transform="translate(-7640 -11813.356)" fill="#3c505a"/>
    <g id="Group_210" data-name="Group 210" transform="translate(-7853 -11848.561)">
      <g id="Group_174" data-name="Group 174" transform="translate(181.509)">
        <g id="Union_2" data-name="Union 2" fill="#3c505a">
          <path d="M 62.74691772460938 22.7041015625 L 2.745298862457275 22.7041015625 L 2.745298862457275 13.84717082977295 L 2.745298862457275 13.62721061706543 L 2.58315896987915 13.478590965271 L 0.7399134039878845 11.7890157699585 L 2.58319878578186 10.0990104675293 L 2.745298862457275 9.950390815734863 L 2.745298862457275 9.730470657348633 L 2.745298862457275 0.5000007748603821 L 62.74691772460938 0.5000007748603821 L 62.74691772460938 22.7041015625 Z" stroke="none"/>
          <path d="M 62.24691772460938 22.2041015625 L 62.24691772460938 1.000000834465027 L 3.245298862457275 1.000000834465027 L 3.245298862457275 10.17031097412109 L 1.479833841323853 11.78897571563721 L 3.245298862457275 13.40726089477539 L 3.245298862457275 22.2041015625 L 62.24691772460938 22.2041015625 M 63.24691772460938 23.2041015625 L 2.245298862457275 23.2041015625 L 2.245298862457275 13.84717082977295 L -1.137695335273747e-06 11.78906059265137 L 2.245298862457275 9.730470657348633 L 2.245298862457275 7.81249980263965e-07 L 63.24691772460938 7.81249980263965e-07 L 63.24691772460938 23.2041015625 Z" stroke="none" fill="#3c505a"/>
        </g>
        <path id="Path_198" data-name="Path 198" d="M-19.229-7.994v2.982h-2.814a8.253,8.253,0,0,1-1.358-.07v.966a9.065,9.065,0,0,1,1.4-.07h2.772v3.64h-4.06A11.148,11.148,0,0,1-24.815-.63V.392a10.3,10.3,0,0,1,1.54-.1h9.394a10.555,10.555,0,0,1,1.512.1V-.63a11.354,11.354,0,0,1-1.512.084h-4.368v-3.64H-15.2a8.572,8.572,0,0,1,1.358.07v-.966a8.465,8.465,0,0,1-1.358.07h-3.052V-7.994H-14.5a9.764,9.764,0,0,1,1.47.07V-8.9a10.4,10.4,0,0,1-1.47.084h-8.3a10.131,10.131,0,0,1-1.47-.084v.98a9.1,9.1,0,0,1,1.47-.07Zm-1.61-3.052A13.327,13.327,0,0,1-17.451-9.24l.574-.756a15.838,15.838,0,0,0-3.346-1.736ZM-.329-7.392a10.78,10.78,0,0,1-1.722,3.85,16.444,16.444,0,0,1-.924-5.04H-.021a11.548,11.548,0,0,1,1.568.07v-.952a7.619,7.619,0,0,1-1.5.084H-3c-.028-.658-.028-.868-.028-1.12a6.042,6.042,0,0,1,.07-1.148H-4.039A13.553,13.553,0,0,1-3.9-9.38h-4.13a14.828,14.828,0,0,1-1.708-.07,9.182,9.182,0,0,1,.084,1.638,26.628,26.628,0,0,1-.462,5.88,5.729,5.729,0,0,1-.98,2.1,2.582,2.582,0,0,1,.742.63,6.6,6.6,0,0,0,1.064-2.45,19.515,19.515,0,0,0,.448-3.864h2.8a20.954,20.954,0,0,1-.182,2.744c-.1.616-.21.742-.672.742a7.269,7.269,0,0,1-1.652-.224,3.271,3.271,0,0,1,.168.91,8.329,8.329,0,0,0,1.47.126c.784,0,1.092-.126,1.3-.56a10.414,10.414,0,0,0,.42-3.01,13.65,13.65,0,0,1,.1-1.568,6.912,6.912,0,0,1-1.05.056H-8.813c.014-.588.028-1.064.028-2.282h4.928a17.772,17.772,0,0,0,1.19,5.824A10.14,10.14,0,0,1-6.825.14a2.384,2.384,0,0,1,.686.714A11.905,11.905,0,0,0-2.261-1.932,6.811,6.811,0,0,0-1.1-.364,2.555,2.555,0,0,0,.371.5c.364,0,.644-.224.868-.672a5.871,5.871,0,0,0,.5-1.708,3.848,3.848,0,0,1-.756-.616C.819-1.2.581-.476.357-.476A1.325,1.325,0,0,1-.245-.8,5.011,5.011,0,0,1-1.659-2.66,12.813,12.813,0,0,0,.2-6.076c.238-.56.378-.868.42-.938Zm.77-2.8a10.963,10.963,0,0,0-2-1.386l-.6.49A9.261,9.261,0,0,1-.147-9.6ZM7.889-5.768a6.779,6.779,0,0,1-.756,2.884A7.133,7.133,0,0,1,3.605.182a2.926,2.926,0,0,1,.616.784A8.216,8.216,0,0,0,7.749-2.086,7.973,7.973,0,0,0,8.841-5.768H12.1a19.928,19.928,0,0,1-.462,5.18c-.1.266-.252.35-.7.35A10.786,10.786,0,0,1,8.967-.476a3.881,3.881,0,0,1,.224.994C10.073.6,10.563.63,11.025.63c.812,0,1.148-.14,1.386-.56.364-.658.63-3.024.63-5.74a6.185,6.185,0,0,1,.056-.994,10.593,10.593,0,0,1-1.47.07H7.021a10.746,10.746,0,0,1-1.456-.084v.994a11.274,11.274,0,0,1,1.442-.084Zm-.574-5.81a4.5,4.5,0,0,1-.6,1.47,11.536,11.536,0,0,1-3.836,4.1,3.082,3.082,0,0,1,.686.756,13.9,13.9,0,0,0,4.41-5.25,3.82,3.82,0,0,1,.392-.714Zm3.108.392c.07.112.154.266.224.392a14.183,14.183,0,0,0,4.718,5.628,3.453,3.453,0,0,1,.658-.854,11.676,11.676,0,0,1-4.13-4.354,5.668,5.668,0,0,1-.532-1.176Zm8.232,1.5a8.463,8.463,0,0,1,1.218-.084h.756v8.106a8.831,8.831,0,0,1-.112,1.582h1.33a8.932,8.932,0,0,1-.112-1.582v-6.8a22.97,22.97,0,0,1,.126-2.324,7.971,7.971,0,0,1-1.162.07h-.882a6.78,6.78,0,0,1-1.162-.07Z" transform="translate(31.614 16.62)" fill="ivory"/>
      </g>
      <g id="Group_173" data-name="Group 173">
        <path id="Path_197" data-name="Path 197" d="M-75.782-9.226a14.149,14.149,0,0,1-2.856.6V-9.968a8.007,8.007,0,0,1,.07-1.3H-79.6a9.3,9.3,0,0,1,.07,1.33v1.386c-.42.028-.966.042-1.344.042a7.929,7.929,0,0,1-1.428-.1v.924h.574c.154.014.532.014.742.014.406,0,.644,0,.9-.014.434-.028.434-.028.56-.042v2.646a7.489,7.489,0,0,0-1.974,1.148,2.534,2.534,0,0,0-1.106,1.862A1.688,1.688,0,0,0-81.97-.756a3.7,3.7,0,0,0,2.31.9c.686,0,1.022-.364,1.022-1.12v-3.5a9.446,9.446,0,0,1,2.968-.546c1.834,0,3,.854,3,2.226A1.858,1.858,0,0,1-74.55-.826c-1.022,0-1.442-.6-1.442-2.058a4.158,4.158,0,0,1,.028-.546,3.034,3.034,0,0,1-.924.364,5.109,5.109,0,0,0,.168,1.582A2.065,2.065,0,0,0-74.564.1a2.833,2.833,0,0,0,2.856-2.9A2.817,2.817,0,0,0-73.15-5.278a4.74,4.74,0,0,0-2.478-.588,9.918,9.918,0,0,0-3.01.5V-7.784A24.572,24.572,0,0,0-76.16-8.2c.2-.042.252-.056.42-.084ZM-79.534-1.5c0,.6-.042.686-.322.686A2.615,2.615,0,0,1-81.1-1.218c-.406-.266-.6-.546-.6-.84,0-.672.784-1.428,2.17-2.1ZM-71.12-7.42a11.764,11.764,0,0,0-2.828-2.66l-.728.546A11.466,11.466,0,0,1-71.848-6.79ZM-65.3-3.584V-.392c0,.35-.07.42-.434.42a6.233,6.233,0,0,1-1.218-.14,2.5,2.5,0,0,1,.182.9c.462.042.812.056,1.12.056.938,0,1.2-.252,1.2-1.134v-9.2a14.1,14.1,0,0,1,.056-1.6,7.344,7.344,0,0,1-1.19.07h-1.386a7.8,7.8,0,0,1-1.232-.07c.042.476.056.98.056,2.17a49.659,49.659,0,0,1-.21,6.44A6,6,0,0,1-69.3.294a2.568,2.568,0,0,1,.714.686A9.243,9.243,0,0,0-67.4-3.584Zm0-4.144H-67.27V-10.22H-65.3Zm0,.8v2.548h-2.058c.056-1.148.07-1.386.07-2.548Zm3.374-3.15h2.338V-.154c0,.616.35.854,1.3.854C-57.4.7-57.022.588-56.8.28s.35-1.2.42-3.052a3.315,3.315,0,0,1-.854-.378,13.435,13.435,0,0,1-.2,2.716c-.084.238-.28.336-.7.336-.448,0-.56-.07-.56-.308V-9.59a13.345,13.345,0,0,1,.056-1.4,7.564,7.564,0,0,1-1.246.07h-1.764a7.482,7.482,0,0,1-1.232-.07,5.962,5.962,0,0,1,.056.854v2.114a29.971,29.971,0,0,1-.5,6.062A6.113,6.113,0,0,1-64.316.35a3.454,3.454,0,0,1,.728.7,8.313,8.313,0,0,0,1.3-3.6,44.91,44.91,0,0,0,.364-6.174Zm13.678.8a4.029,4.029,0,0,1,1.624.35,3.691,3.691,0,0,1,2.226,3.514A4.226,4.226,0,0,1-46.872-1.5,8.392,8.392,0,0,1-49.21-.84,2.225,2.225,0,0,1-48.72.1a10.83,10.83,0,0,0,2.128-.644,5.1,5.1,0,0,0,3.206-4.83,4.686,4.686,0,0,0-1.358-3.416,5.42,5.42,0,0,0-3.85-1.386,5.848,5.848,0,0,0-4.522,1.862,5.824,5.824,0,0,0-1.47,3.864c0,1.96.994,3.416,2.324,3.416,1.008,0,1.834-.84,2.646-2.688A20.986,20.986,0,0,0-48.244-9.282Zm-1.008.014a19.229,19.229,0,0,1-1.274,5.18c-.6,1.372-1.162,2.03-1.75,2.03-.756,0-1.344-1.036-1.344-2.38A4.841,4.841,0,0,1-51.338-8.61,4.421,4.421,0,0,1-49.252-9.268Zm9.422,5.74h-.21a8.659,8.659,0,0,1-1.344-.084v.952a9.523,9.523,0,0,1,1.33-.084h.224v2.31a11.5,11.5,0,0,1-.084,1.484h1.078A10,10,0,0,1-38.92-.42V-2.744H-31V-.35c0,.378-.126.462-.742.462a13.88,13.88,0,0,1-1.96-.14,3.3,3.3,0,0,1,.21.924c.462.042.952.056,1.414.056,1.638,0,1.974-.2,1.974-1.134V-2.744h.112a9.312,9.312,0,0,1,1.344.084v-.952a8.536,8.536,0,0,1-1.344.084H-30.1V-7.392a11.628,11.628,0,0,1,.056-1.288,9.873,9.873,0,0,1-1.274.056h-3.346v-1.638H-30.2a11.576,11.576,0,0,1,1.47.084v-.966a11.117,11.117,0,0,1-1.47.084h-9.464a10.681,10.681,0,0,1-1.47-.084v.966a11.267,11.267,0,0,1,1.47-.084h4.13v1.638h-3.094a9.629,9.629,0,0,1-1.26-.056,12.338,12.338,0,0,1,.056,1.316Zm.91,0V-5.362h3.388v1.834Zm0-2.59V-7.84h3.388v1.722Zm4.256,2.59V-5.362H-31v1.834Zm0-2.59V-7.84H-31v1.722ZM-21.28-7.84v3.01h-2.562a9.7,9.7,0,0,1-1.484-.084v.98a10.346,10.346,0,0,1,1.484-.084h2.562V-.35h-4.158a10.81,10.81,0,0,1-1.638-.1V.574a11.388,11.388,0,0,1,1.652-.1h9a11.313,11.313,0,0,1,1.638.1V-.448a10.766,10.766,0,0,1-1.652.1h-3.906V-4.018h2.828a10.564,10.564,0,0,1,1.5.084v-.98a9.779,9.779,0,0,1-1.5.084h-2.828V-7.84h3.458a13.672,13.672,0,0,1,1.582.084V-8.75a13.246,13.246,0,0,1-1.6.084h-3.444V-10.15a9.414,9.414,0,0,1,.1-1.484h-1.134a10.163,10.163,0,0,1,.1,1.484v1.484h-2.94c.294-.77.462-1.232.5-1.358a5.683,5.683,0,0,1,.28-.742l-1.05-.28a4.2,4.2,0,0,1-.308,1.316,11.468,11.468,0,0,1-2.506,4.3,2.742,2.742,0,0,1,.8.588,13.254,13.254,0,0,0,1.918-3Zm14.294-.868c.07-1.218.07-1.218.07-1.876a9.637,9.637,0,0,1,.07-1.134H-7.952a7.909,7.909,0,0,1,.084,1.358c0,.574-.014,1.022-.056,1.652H-10.71a12.106,12.106,0,0,1-1.736-.084V-7.77a12.418,12.418,0,0,1,1.722-.084H-7.98c-.322,3-1.106,4.8-2.73,6.272A8.635,8.635,0,0,1-13.062-.07a2.239,2.239,0,0,1,.742.784A9.556,9.556,0,0,0-8.428-2.912,12.324,12.324,0,0,0-7.042-7.854h4.326a52.08,52.08,0,0,1-.308,5.446C-3.234-.714-3.416-.364-4.158-.364a12.613,12.613,0,0,1-2.66-.35A4.4,4.4,0,0,1-6.58.336,17.405,17.405,0,0,0-4.088.56c1.12,0,1.54-.378,1.792-1.6a43.407,43.407,0,0,0,.49-5.908c.028-1.33.028-1.33.07-1.834a11.333,11.333,0,0,1-1.638.07ZM4.858-9.422a19.589,19.589,0,0,1-3-.154l-.014.966a2.483,2.483,0,0,1,.308-.014H2.38c.518.014,1.834.042,2.058.042A1.551,1.551,0,0,0,4.7-8.61l-.126.21a13.931,13.931,0,0,1-3.136,4l.784.784A4.632,4.632,0,0,1,3.3-4.774,5.259,5.259,0,0,1,6.426-6.258c.658,0,.994.336,1.106,1.106a10.868,10.868,0,0,0-2.086,1.12A2.9,2.9,0,0,0,4.018-1.82C4.018-.378,5.236.336,7.742.336a21.719,21.719,0,0,0,3.4-.28,5.509,5.509,0,0,1,.56-.07l-.126-1.078A11.73,11.73,0,0,1,7.84-.546C5.866-.546,5-.952,5-1.876c0-.84.728-1.5,2.632-2.394a3.679,3.679,0,0,1,.014.42A20.133,20.133,0,0,1,7.56-1.834l.952-.014a3.043,3.043,0,0,1-.028-.5c0-.126,0-.322.014-.63.014-.28.014-.588.014-.77,0-.35,0-.49-.028-.854a23.244,23.244,0,0,1,3.738-1.232l-.448-.98a3.08,3.08,0,0,1-.952.406c-.616.224-1.414.518-2.436.924A1.7,1.7,0,0,0,6.538-7.042a3.726,3.726,0,0,0-2.114.686c-.14.1-.14.1-.644.49a.108.108,0,0,1-.028-.042v-.014a.014.014,0,0,0,.014-.014c.014-.014.084-.07.182-.14.056-.042.336-.364.476-.532A10.323,10.323,0,0,0,5.684-8.6,45.2,45.2,0,0,0,10.3-8.96a4.364,4.364,0,0,1,.56-.07l-.084-.952a19.7,19.7,0,0,1-4.41.532,2.383,2.383,0,0,0-.294.014c.07-.126.252-.5.434-.952a2.973,2.973,0,0,1,.364-.756l-1.12-.2a5.942,5.942,0,0,1-.672,1.918ZM22.68-4.9H20.314a7.713,7.713,0,0,1-1.288-.07v.952a8.328,8.328,0,0,1,1.3-.07H22.68v3.7c0,.336-.1.392-.6.392A13.154,13.154,0,0,1,20.2-.154a3.687,3.687,0,0,1,.2.91c.616.056,1.218.084,1.68.084C23.24.84,23.562.6,23.562-.266V-4.088h2.45A10.969,10.969,0,0,1,27.482-4v-.98a9.759,9.759,0,0,1-1.428.084H23.562V-9.982a26.856,26.856,0,0,0,3.514-.882l-.672-.742c-1.134.616-4.074,1.148-7.2,1.3a2.561,2.561,0,0,1,.336.812c.364-.042.49-.042.938-.1,1.05-.1,1.05-.1,1.288-.14.364-.042.574-.07.91-.112Zm-6.552-5.67a7.83,7.83,0,0,1-1.078-.056,11.7,11.7,0,0,1,.056,1.358v6.846A11.653,11.653,0,0,1,15.022-.91h.938V-2.436h1.862v.994h.9c-.042-.462-.056-.9-.056-1.54V-9.31c0-.6.014-.994.042-1.316a9.19,9.19,0,0,1-1.064.056Zm-.168.8h1.862v6.538H15.96Zm5.5,3.808a15.431,15.431,0,0,0-1.232-3.01l-.8.308a11,11,0,0,1,1.246,3.024Zm4.606-3.458A10.964,10.964,0,0,1,24.556-5.95l.77.322a15.03,15.03,0,0,0,1.61-3.43ZM38.36-10.514a10.656,10.656,0,0,1,1.316,2.086l.686-.378a10.03,10.03,0,0,0-1.33-2.044Zm1.33-.658a9.467,9.467,0,0,1,1.33,2.016l.672-.392a10.779,10.779,0,0,0-1.344-1.96ZM29.666-8.988c.14-.014.14-.014.406-.028a12.358,12.358,0,0,0,3.122-.434A7.028,7.028,0,0,0,31.934-8.2a7.545,7.545,0,0,0-1.862,4.662A3.64,3.64,0,0,0,33.8.35a4.012,4.012,0,0,0,3.752-2.436,7.214,7.214,0,0,0,.546-2.856,8.985,8.985,0,0,0-.56-3.192c.112.2.112.2.28.5.14.266.252.434.476.8a9.334,9.334,0,0,0,1.778,2.058c.322.266.322.266.574.5l.532-.966a2.024,2.024,0,0,1-.518-.336A9.6,9.6,0,0,1,38.64-7.756,10.822,10.822,0,0,1,37.324-10.3l-1.008.336a11.538,11.538,0,0,1,.868,4.508,7.19,7.19,0,0,1-.5,2.912A3.182,3.182,0,0,1,33.8-.63a2.738,2.738,0,0,1-2.758-2.9,7.145,7.145,0,0,1,1.918-4.466,6.734,6.734,0,0,1,1.638-1.512l-.588-.882a11.9,11.9,0,0,1-3.7.448,4.587,4.587,0,0,1-.658-.042ZM45.78-1.414a5.342,5.342,0,0,1-1.358-1.792c.056-.476.1-.854.126-1.54a3.878,3.878,0,0,1,.056-.532l-.91-.126c.014.182.028.308.028.63A9.621,9.621,0,0,1,42.378.336a2.23,2.23,0,0,1,.784.532,10.59,10.59,0,0,0,1.092-3.094A4.776,4.776,0,0,0,45.668-.5c1.176.9,2.464,1.148,5.866,1.148,1.946,0,2.548-.014,3.836-.07a2.911,2.911,0,0,1,.322-1.008A30.528,30.528,0,0,1,51-.21c-2.506,0-3.486-.14-4.4-.616v-2.6H47.74a6.66,6.66,0,0,1,1.176.084V-4.27a6.981,6.981,0,0,1-1.162.07H46.606V-6.174H47.7a8.176,8.176,0,0,1,1.344.084v-.952a7.8,7.8,0,0,1-1.358.084H46.55V-8.834h.98a8.156,8.156,0,0,1,1.274.07v-.91a6.846,6.846,0,0,1-1.274.07h-.98v-.588a6.841,6.841,0,0,1,.084-1.372H45.626a7.009,7.009,0,0,1,.084,1.372V-9.6H44.59a6.952,6.952,0,0,1-1.26-.07v.91a7.857,7.857,0,0,1,1.26-.07h1.12v1.876H44.226a8.254,8.254,0,0,1-1.4-.084v.952a7.333,7.333,0,0,1,1.4-.084H45.78Zm8.68-8.008a10.617,10.617,0,0,1,.056-1.386,8.1,8.1,0,0,1-1.414.07H50.848a8.963,8.963,0,0,1-1.4-.084v.952a9.719,9.719,0,0,1,1.358-.07h2.786v2.814h-2.6a10.963,10.963,0,0,1-1.428-.056,11.422,11.422,0,0,1,.07,1.568v3.08c0,.63.1.854.462,1.022a5.026,5.026,0,0,0,2.044.224c1.876,0,2.506-.14,2.758-.588a5.61,5.61,0,0,0,.378-2.3,3.891,3.891,0,0,1-.868-.392,11.352,11.352,0,0,1-.084,1.582c-.084.532-.21.714-.588.784a17.2,17.2,0,0,1-1.89.084c-.77,0-1.134-.042-1.246-.154-.084-.07-.1-.154-.1-.42V-6.342h2.464a12.336,12.336,0,0,1,1.554.056,11,11,0,0,1-.056-1.5Zm4.83.35a3.288,3.288,0,0,1,.462.042,27.386,27.386,0,0,0,3.08.182,11.066,11.066,0,0,0,2.114-.182c-.14.084-.168.084-.266.14-.168.084-.2.1-.35.182a21.691,21.691,0,0,0-1.862,1.162l.714.574A19.94,19.94,0,0,1,66.71-9.1l-.07-.924A15.311,15.311,0,0,1,63.1-9.73a16.006,16.006,0,0,1-3.724-.336Zm.84,3.584a3.679,3.679,0,0,0-1.61,2.7,2.23,2.23,0,0,0,1.6,2.114,9.877,9.877,0,0,0,3.22.434,22.837,22.837,0,0,0,3.78-.322,3.916,3.916,0,0,1,.476-.07l-.126-1.148a13.281,13.281,0,0,1-4.2.532,8.915,8.915,0,0,1-2.562-.28c-.784-.266-1.19-.728-1.19-1.372s.42-1.3,1.33-2.058ZM77.742-9.324c-.952.028-2.044.056-3.388.112-2.254.084-2.254.084-2.66.084-.21,0-.308,0-.56-.014l.042,1.022c.938-.154,3.766-.294,6.58-.35v.728c0,.168.014.308.014.364,0,.518,0,.574.014.77a2.149,2.149,0,0,0-1.624-.63,2.329,2.329,0,0,0-2.478,2.31,2.17,2.17,0,0,0,2.3,2.212,2.189,2.189,0,0,0,1.764-.756,1.961,1.961,0,0,0,.378-.686A3.626,3.626,0,0,1,76.552-1.2a7.176,7.176,0,0,1-2.268,1.05A3.074,3.074,0,0,1,74.9.728,8.9,8.9,0,0,0,77.112-.406,4.506,4.506,0,0,0,78.988-4.06a4.011,4.011,0,0,0-.336-1.652V-8.484c1.134-.028,1.288-.028,1.5-.028a24.882,24.882,0,0,1,2.674.07v-.994c-.462.056-1.54.084-4.186.1v-.154a11.59,11.59,0,0,1,.07-1.75h-1.05a4.719,4.719,0,0,1,.056.812ZM77.7-5.236a1.569,1.569,0,0,1-1.638,1.652A1.353,1.353,0,0,1,74.62-4.97a1.482,1.482,0,0,1,1.554-1.47,1.791,1.791,0,0,1,.938.224A1.013,1.013,0,0,1,77.7-5.236Z" transform="translate(90.736 16.994)" fill="#3c505a"/>
        <g id="Rectangle_150" data-name="Rectangle 150" fill="none" stroke="#3c505a" stroke-width="1">
          <rect width="184.129" height="23.203" stroke="none"/>
          <rect x="0.5" y="0.5" width="183.129" height="22.203" fill="none"/>
        </g>
      </g>
    </g>
    <g id="Group_360" data-name="Group 360" transform="translate(9 9.133)">
      <rect id="Rectangle_155" data-name="Rectangle 155" width="149.606" height="30" rx="15" transform="translate(-7814 -11748)" fill="#3c505a"/>
      <path id="Path_196" data-name="Path 196" d="M-57.3-4.56-54.7.972h.78L-56.532-4.56l2.616-5.532h-.78Zm-1.44,0L-56.124.972h.768L-57.972-4.56l2.616-5.532h-.768Zm11.6-2.676h2.316a10.931,10.931,0,0,1,1.392.06V-8.1a8.722,8.722,0,0,1-1.4.072H-50.1A8.722,8.722,0,0,1-51.5-8.1v.924a10.93,10.93,0,0,1,1.392-.06h2.088V-1.92h-3a8.558,8.558,0,0,1-1.392-.072v.936a10.954,10.954,0,0,1,1.38-.06h7.128a11.046,11.046,0,0,1,1.392.06v-.936a8.634,8.634,0,0,1-1.4.072h-3.216Zm10.3-2.544A5.442,5.442,0,0,1-37.6-8.028,8.89,8.89,0,0,1-40.608-4.74a1.784,1.784,0,0,1,.672.624,11.568,11.568,0,0,0,2.868-3.12l4.044-.072a11.026,11.026,0,0,1-2.064,4.02A10.207,10.207,0,0,1-39.324-.252a1.809,1.809,0,0,1,.6.708,11.751,11.751,0,0,0,4.176-3,12.7,12.7,0,0,0,2.4-4.512c.132-.432.132-.444.24-.588l-.516-.5a1.179,1.179,0,0,1-.624.084c-3.468.06-3.468.06-3.624.1a11.478,11.478,0,0,0,.552-1.068,2.293,2.293,0,0,1,.264-.492Zm8.676,1.44a13.413,13.413,0,0,1,1.572,3.72l.888-.372a14.5,14.5,0,0,0-1.608-3.684Zm7.32-.4a5.682,5.682,0,0,1-.144,1,10.9,10.9,0,0,1-2.58,5.316A8.862,8.862,0,0,1-26.724-.252a2.036,2.036,0,0,1,.636.732,10.5,10.5,0,0,0,3.2-2.328,11.9,11.9,0,0,0,2.736-5.484,6.24,6.24,0,0,1,.312-1.14Zm4.68.4a13.413,13.413,0,0,1,1.572,3.72l.888-.372a14.5,14.5,0,0,0-1.608-3.684Zm7.32-.4a5.682,5.682,0,0,1-.144,1,10.9,10.9,0,0,1-2.58,5.316A8.862,8.862,0,0,1-14.724-.252a2.036,2.036,0,0,1,.636.732,10.5,10.5,0,0,0,3.2-2.328A11.9,11.9,0,0,0-8.148-7.332a6.24,6.24,0,0,1,.312-1.14ZM-4.9-4.116a13.109,13.109,0,0,1,1.488-.048h6.96a13.727,13.727,0,0,1,1.464.048v-.972a9.465,9.465,0,0,1-1.452.06H-3.408A8.489,8.489,0,0,1-4.9-5.1ZM10.5-9.54a22.77,22.77,0,0,1-.948,3.456A45.766,45.766,0,0,1,7.74-1.332c-.276.024-.936.06-1.02.06-.06,0-.06,0-.336-.012l.12,1A8.345,8.345,0,0,1,7.524-.42a74.127,74.127,0,0,0,7.38-1A16.288,16.288,0,0,1,15.612.2l.84-.456a31.083,31.083,0,0,0-2.988-5.424l-.744.408A23.343,23.343,0,0,1,14.568-2.16c-1.416.276-4.236.648-5.832.756a65.015,65.015,0,0,0,2.5-7.02,4.744,4.744,0,0,1,.324-.864Zm12.468.528h-3.54a8.413,8.413,0,0,1-1.212-.072v.792a8.915,8.915,0,0,1,1.188-.06H27.48a8.915,8.915,0,0,1,1.188.06v-.792a8.4,8.4,0,0,1-1.188.072H23.736v-.24a4.173,4.173,0,0,1,.072-.8H22.9a4.394,4.394,0,0,1,.072.816Zm-2.76,2.964a8.8,8.8,0,0,1-.036.936,9.932,9.932,0,0,1,1.08-.048H25.68a9.3,9.3,0,0,1,1.1.048,6.071,6.071,0,0,1-.036-.936V-6.7c0-.408.012-.576.036-.924a8.176,8.176,0,0,1-1.02.048H21.312a9.577,9.577,0,0,1-1.14-.048c.024.252.036.528.036.912Zm.732-.9h5.076v1.176H20.94ZM18.612-.264A8.649,8.649,0,0,1,18.54.948h.888a7.461,7.461,0,0,1-.072-1.224V-3.732h8.22V-.216c0,.24-.06.276-.492.276a9.205,9.205,0,0,1-1.356-.108A2.411,2.411,0,0,1,25.884.7c.768.036.84.036,1.116.036.636,0,.84-.036,1.032-.168s.276-.336.276-.744V-3.36a9.762,9.762,0,0,1,.048-1.056,9.268,9.268,0,0,1-1.164.048h-7.44a11.05,11.05,0,0,1-1.188-.048,10.076,10.076,0,0,1,.048,1.08Zm7.224-1.908a7.068,7.068,0,0,1,.036-.816c-.312.024-.6.036-1.056.036h-2.88c-.444,0-.7-.012-.972-.036A8.611,8.611,0,0,1,21-2.112v1.2a6.98,6.98,0,0,1-.06,1h.78v-.66h3.048c.42,0,.792.012,1.1.036a7.349,7.349,0,0,1-.036-.852Zm-4.128-.18H25.14v1.176H21.708Zm15.228-.756L38.664-4.62c.1-.084.168-.156.2-.18.06-.06.108-.1.12-.108a1.5,1.5,0,0,0,.12-.108l-.468-.468a5.575,5.575,0,0,1-.936.048H32.676a6.848,6.848,0,0,1-1.068-.06v.78a10.161,10.161,0,0,1,1.128-.06h5.112L35.916-3.108h-3.48a5.91,5.91,0,0,1-.864-.048,7.123,7.123,0,0,1,.06.912V-.12A7.379,7.379,0,0,1,31.56.888h.84V.324h6.192V.888h.84A6.873,6.873,0,0,1,39.36-.12V-2.232a5.605,5.605,0,0,1,.06-.924,5.633,5.633,0,0,1-.852.048ZM32.4-2.436h6.192V-.36H32.4ZM35-9.912a9.8,9.8,0,0,1-2.448,2.364,13.262,13.262,0,0,1-2.712,1.476,2.38,2.38,0,0,1,.528.672,15.884,15.884,0,0,0,2.676-1.584,11.926,11.926,0,0,0,2.376-2.268,14.515,14.515,0,0,0,5.232,3.8,2.491,2.491,0,0,1,.492-.708A11.273,11.273,0,0,1,38.676-7.38,10.132,10.132,0,0,1,35.82-9.912Zm-1.6,3.54a6.031,6.031,0,0,1,1.02-.06h2.16a5.794,5.794,0,0,1,1.008.06v-.756a5.481,5.481,0,0,1-1,.06H34.416a5.794,5.794,0,0,1-1.008-.06ZM44.58-.552A11.786,11.786,0,0,1,44.508.816H45.4a10.747,10.747,0,0,1-.06-1.368V-1.836H50.4V-.372c0,.3-.084.36-.564.36a10.06,10.06,0,0,1-1.512-.12,2.662,2.662,0,0,1,.18.768c.516.036,1,.048,1.344.048a1.781,1.781,0,0,0,.984-.156.85.85,0,0,0,.324-.768V-5.052c0-.624.012-1.044.048-1.4a9.04,9.04,0,0,1-1.284.06H45.54a9.445,9.445,0,0,0,.816-1.356H51.48a10.187,10.187,0,0,1,1.308.072v-.864a9.929,9.929,0,0,1-1.308.072H46.692c.132-.3.192-.48.3-.768a6.415,6.415,0,0,1,.24-.66l-.876-.108a5.753,5.753,0,0,1-.444,1.536H43.5a10.071,10.071,0,0,1-1.332-.072v.864A10.458,10.458,0,0,1,43.5-7.752h2.076A9.282,9.282,0,0,1,44.22-5.8a10.824,10.824,0,0,1-2.364,2.04,1.761,1.761,0,0,1,.528.612,12.854,12.854,0,0,0,2.2-2.016Zm5.82-3.24v1.308H45.336V-3.792Zm0-.648H45.336V-5.712H50.4Zm6.9-.12-2.616-5.532h-.768L56.532-4.56,53.916.972h.768Zm1.44,0-2.616-5.532h-.768l2.6,5.532L55.356.972h.768Z" transform="translate(-7739 -11729)" fill="#fff"/>
    </g>
  </g>
</svg>
