<svg xmlns="http://www.w3.org/2000/svg" width="471" height="470" viewBox="0 0 471 470">
  <g id="Group_324" data-name="Group 324" transform="translate(4545 10629)">
    <g id="Group_111" data-name="Group 111" transform="translate(-4189 736)">
      <circle id="Ellipse_84" data-name="Ellipse 84" cx="167" cy="167" r="167" transform="translate(-356 -11229)" fill="#fffa96" opacity="0.7"/>
      <circle id="Ellipse_85" data-name="Ellipse 85" cx="167" cy="167" r="167" transform="translate(-219 -11365)" fill="ivory" opacity="0.7"/>
      <path id="Intersection_1" data-name="Intersection 1" d="M137,167a168.056,168.056,0,0,1,2.464-28.741A167.147,167.147,0,0,1,331.536,331.74,167.146,167.146,0,0,1,137,167Z" transform="translate(-356 -11365)" fill="#feffda"/>
      <path id="Path_194" data-name="Path 194" d="M-134.37,0h9.22V-1.58h-4.06c-.74,0-1.64.08-2.4.14,3.44-3.26,5.74-6.24,5.74-9.16a4.022,4.022,0,0,0-4.26-4.34,5.607,5.607,0,0,0-4.32,2.16l1.06,1.04a4.106,4.106,0,0,1,3.04-1.7,2.577,2.577,0,0,1,2.7,2.9c0,2.52-2.12,5.44-6.72,9.46Zm11.68-10.44.74,1.76c1.58-.64,6.68-2.82,9.96-2.82,2.7,0,4.26,1.64,4.26,3.74,0,4.1-4.68,5.68-9.92,5.82l.72,1.66c6.16-.34,10.94-2.66,10.94-7.44,0-3.36-2.64-5.28-5.96-5.28-2.92,0-6.84,1.44-8.54,1.98A19.955,19.955,0,0,1-122.69-10.44ZM-85.99-7a7.247,7.247,0,0,0-7.66-7.36c-4.88,0-8.74,3.8-8.74,8.14,0,3.3,1.78,5.34,3.56,5.34,1.86,0,3.44-2.1,4.66-6.22a39.343,39.343,0,0,0,1.2-5.76,5.569,5.569,0,0,1,5.34,5.8c0,3.46-2.52,5.36-5.08,5.94a15.108,15.108,0,0,1-1.72.26l.94,1.48C-88.75,0-85.99-2.8-85.99-7Zm-14.84.64a6.976,6.976,0,0,1,6.2-6.48,32.677,32.677,0,0,1-1.12,5.4c-1.02,3.38-2.08,4.72-3.02,4.72C-99.67-2.72-100.83-3.84-100.83-6.36ZM-73.37-.58V-5.5h6.28V-6.92h-6.28V-11.3h7.1v-1.46h-6.46l.94-.68a22.935,22.935,0,0,0-3.66-3.22l-1.2.84a22.457,22.457,0,0,1,3.4,3.06h-8.78v1.46h7.08v4.38h-6.16V-5.5h6.16V-.58h-8V.88h17.68V-.58Zm22.62-15.16a20.474,20.474,0,0,1,3.54,2.4l.92-1.02a19.077,19.077,0,0,0-3.58-2.28Zm2.84,5.4a19.806,19.806,0,0,1-2.56,5.4,36.074,36.074,0,0,1-1.1-6.94h6.36v-1.46h-6.46c-.06-1.08-.08-2.2-.08-3.36h-1.54c.02,1.14.04,2.26.12,3.36h-8.34v5.58c0,2.58-.18,6-1.82,8.44a5.916,5.916,0,0,1,1.24,1c1.8-2.6,2.1-6.62,2.1-9.42V-7.9h3.64c-.08,3.44-.18,4.7-.46,5-.12.18-.32.22-.6.22-.34,0-1.2-.02-2.12-.1a3.091,3.091,0,0,1,.42,1.4,23.077,23.077,0,0,0,2.38,0,1.547,1.547,0,0,0,1.2-.58c.42-.52.54-2.2.64-6.68v-.64h-5.1v-2.6h6.9a39.326,39.326,0,0,0,1.46,8.42,15.96,15.96,0,0,1-4.6,3.7,8.371,8.371,0,0,1,1.08,1.18A17.881,17.881,0,0,0-51.03-1.9c.92,2.06,2.12,3.28,3.66,3.28,1.52,0,2.06-.98,2.34-4.38a3.515,3.515,0,0,1-1.28-.8c-.14,2.66-.38,3.7-.94,3.7-1.02,0-1.94-1.14-2.68-3.1a22.552,22.552,0,0,0,3.52-6.76Zm10.28-5.98A16.987,16.987,0,0,1-43.61-8.8a8.644,8.644,0,0,1,1.26,1.14,20.606,20.606,0,0,0,6.28-8.22Zm-2.74,7.1v1.44h4.08c-.46,3.38-1.56,6.54-6.26,8.1a5.9,5.9,0,0,1,.96,1.3c5.08-1.84,6.36-5.46,6.88-9.4h5.16c-.24,5.04-.52,7.04-1.04,7.54-.18.22-.42.26-.84.26-.46,0-1.7-.02-3-.14a3.616,3.616,0,0,1,.5,1.48,28.651,28.651,0,0,0,3.14.04A2.006,2.006,0,0,0-29.25.7c.68-.76.98-3.06,1.26-9.2.02-.2.04-.72.04-.72Zm8.24-6.58a26.45,26.45,0,0,0,6.2,7.96,7.648,7.648,0,0,1,1.22-1.32,21.162,21.162,0,0,1-6.02-7.2Zm14.14.24-1.58.66a67.03,67.03,0,0,0,2.9,6.16c-2.14,1.5-3.46,3.12-3.46,5.18,0,3,2.72,4.12,6.48,4.12A39.371,39.371,0,0,0-7.33.06V-1.72a29.759,29.759,0,0,1-6.4.68c-3.16,0-4.74-1.04-4.74-2.7,0-1.52,1.12-2.84,2.98-4.04A66.441,66.441,0,0,1-9.41-11.1c.58-.3,1.08-.56,1.54-.84l-.88-1.42a10.924,10.924,0,0,1-1.42.94c-1.1.6-3.26,1.66-5.14,2.8A43.07,43.07,0,0,1-17.99-15.56Zm16.74,2.18v1.76c.5-.06,1.3-.08,1.68-.08h4.5v9.2H-.71a13.7,13.7,0,0,1-1.76-.12V-.8c.62-.06,1.22-.08,1.76-.08H12.51a12.544,12.544,0,0,1,1.66.08V-2.62a14.069,14.069,0,0,1-1.66.12H6.63v-9.2h4.8a15.387,15.387,0,0,1,1.7.08v-1.76a14.151,14.151,0,0,1-1.7.12H.43A13.244,13.244,0,0,1-1.25-13.38Zm27.84-2.16-1.86-.6a6.849,6.849,0,0,1-.62,1.58A16.487,16.487,0,0,1,17.83-7.8l1.38,1.04a20.275,20.275,0,0,0,5.08-4.92h6.76a16.442,16.442,0,0,1-3.2,6.24A16.18,16.18,0,0,1,19.87-.42L21.31.88a17.535,17.535,0,0,0,7.96-5.44,19.4,19.4,0,0,0,3.56-6.88,6.284,6.284,0,0,1,.46-1.06l-1.34-.82a3.347,3.347,0,0,1-1.3.2H25.23a8.988,8.988,0,0,0,.48-.84A15.123,15.123,0,0,1,26.59-15.54ZM41.13-.72,42.63.54a16.645,16.645,0,0,0,7.08-6.16,20.52,20.52,0,0,0,2.74-7.14c.08-.36.24-1.06.4-1.58l-2-.28a8.678,8.678,0,0,1-.16,1.64,16.5,16.5,0,0,1-2.5,6.52A15.363,15.363,0,0,1,41.13-.72ZM39.91-14.38l-1.58.8A53.746,53.746,0,0,1,41.67-7.8l1.6-.9C42.55-10,40.79-13.08,39.91-14.38ZM61.13-.72,62.63.54a16.645,16.645,0,0,0,7.08-6.16,20.52,20.52,0,0,0,2.74-7.14c.08-.36.24-1.06.4-1.58l-2-.28a8.678,8.678,0,0,1-.16,1.64,16.5,16.5,0,0,1-2.5,6.52A15.363,15.363,0,0,1,61.13-.72ZM59.91-14.38l-1.58.8A53.746,53.746,0,0,1,61.67-7.8l1.6-.9C62.55-10,60.79-13.08,59.91-14.38ZM77.89-8.66V-6.7c.62-.06,1.68-.1,2.78-.1H91.65c.9,0,1.74.08,2.14.1V-8.66c-.44.04-1.16.1-2.16.1H80.67C79.55-8.56,78.49-8.62,77.89-8.66Zm27.8-6.26-2-.4a12.582,12.582,0,0,1-.38,1.92c-.56,1.96-2.6,8.36-3.72,11.12-.36.02-.7.04-1,.06-.58.02-1.26.04-1.86.02l.3,1.86c.58-.08,1.16-.18,1.66-.22,2.68-.24,9.38-.98,12.46-1.38.46.98.84,1.9,1.1,2.62l1.68-.76a56.349,56.349,0,0,0-4.44-8.14l-1.5.68a28.4,28.4,0,0,1,2.44,4.1c-2.2.3-6.04.72-8.98,1,1-2.6,2.98-8.74,3.56-10.62C105.27-13.9,105.49-14.42,105.69-14.92Zm18.04-.62-1.84-.18a22.329,22.329,0,0,1-.52,4.36c-1.22.1-2.38.2-3.04.22-.64.02-1.16.02-1.8,0l.18,1.72c.5-.08,1.34-.18,1.8-.24.52-.06,1.48-.16,2.54-.26-.68,2.68-2.18,7.24-4.22,9.96l1.62.66a40.818,40.818,0,0,0,4.22-10.78c.86-.08,1.66-.14,2.14-.14,1.28,0,2.12.34,2.12,2.16a16.9,16.9,0,0,1-.94,6.12A1.668,1.668,0,0,1,124.23-.9a9.737,9.737,0,0,1-2.44-.42l.26,1.68a12.117,12.117,0,0,0,2.36.28,2.815,2.815,0,0,0,2.92-1.66c.82-1.66,1.16-4.84,1.16-7.22,0-2.72-1.46-3.4-3.26-3.4-.48,0-1.3.06-2.24.14.22-1.08.4-2.26.52-2.84C123.57-14.74,123.65-15.16,123.73-15.54Zm6.88,2.32-1.46.66a23.463,23.463,0,0,1,3.58,7.18l1.54-.74A34.119,34.119,0,0,0,130.61-13.22Zm.24-2.9-1.08.44a24.482,24.482,0,0,1,1.62,2.78l1.1-.48A28.344,28.344,0,0,0,130.85-16.12Zm2.2-.82-1.06.46a22.425,22.425,0,0,1,1.66,2.76l1.08-.48A28.861,28.861,0,0,0,133.05-16.94ZM-108.08,24.6a15.47,15.47,0,0,1-1.24,4.74,5.2,5.2,0,0,1,1.16.56,18.337,18.337,0,0,0,1.36-5.08Zm4.32.3a19.642,19.642,0,0,1,1.3,3.88l1.2-.4a19.955,19.955,0,0,0-1.36-3.86Zm-.36-4.82a16.738,16.738,0,0,1,.9,1.56l-3.1.2a53.281,53.281,0,0,0,4.02-5.7l-1.24-.6a42.667,42.667,0,0,1-2.24,3.72,14.118,14.118,0,0,0-1.22-1.4,43.006,43.006,0,0,0,2.34-4.08l-1.34-.52a25.235,25.235,0,0,1-1.84,3.78c-.2-.18-.38-.36-.58-.52l-.76.98a15.753,15.753,0,0,1,2.62,2.88c-.4.56-.8,1.1-1.2,1.56-.56.04-1.08.08-1.56.1l.22,1.36,3.3-.3v8.4h1.34V22.98l1.8-.18a13.236,13.236,0,0,1,.56,1.48l1.2-.58a17.358,17.358,0,0,0-2.1-4.1Zm8.52,8.74V23.1h2.74v5.72Zm-3.92-5.72h2.6v5.72h-2.6Zm2.6-6.86v5.5h-2.6v-5.5Zm4.06,5.5H-95.6v-5.5h2.74Zm-8-6.88V31.28h1.34V30.2h6.66v.92h1.38V14.86Zm14.26,8.58c.04-.82.04-1.6.04-2.3V20.02H-84v3.42Zm2.6-8.08v3.3h-2.56v-3.3Zm6.06,14.68c-1.28,0-1.54-.14-1.54-.84V24.66h4.34V19.1h-5.3a17.116,17.116,0,0,0,1.06-2h6.46c-.14,5.58-.28,7.56-.64,8.04a.6.6,0,0,1-.6.28c-.34,0-1.12-.02-1.96-.08a3.709,3.709,0,0,1,.42,1.36,14.838,14.838,0,0,0,2.16-.02,1.5,1.5,0,0,0,1.24-.66c.52-.68.64-2.92.78-9.56.02-.22.02-.72.02-.72h-7.3a20.688,20.688,0,0,0,.72-2.14l-1.5-.34a16.186,16.186,0,0,1-3.06,6.22V14h-5.24v7.16c0,2.92-.1,6.92-1.42,9.72a4.045,4.045,0,0,1,1.18.68,20.033,20.033,0,0,0,1.44-6.76H-84v4.96c0,.26-.1.34-.36.36-.22.02-1.02.02-1.9,0a5.2,5.2,0,0,1,.42,1.38,6.86,6.86,0,0,0,2.54-.26c.5-.26.66-.7.66-1.48V19.7c.36.26.88.68,1.12.9a13.424,13.424,0,0,0,.86-1.16v.94h4.14v3H-80.9v5.84c0,1.72.66,2.12,2.88,2.12h4.56c2,0,2.46-.72,2.66-3.58a4.528,4.528,0,0,1-1.32-.56c-.12,2.44-.3,2.84-1.44,2.84Zm12.38-.68,1.16,1a3.09,3.09,0,0,1,.84-.36c4.98-1.44,9.1-3.92,11.7-7.14l-.9-1.4A21.583,21.583,0,0,1-63.7,28.28V16.94a12.934,12.934,0,0,1,.14-1.82h-1.98a12.187,12.187,0,0,1,.18,1.82V28.38A2.2,2.2,0,0,1-65.56,29.36Zm29.38-12.92-1.14.48a22.137,22.137,0,0,1,1.86,3.22l1.18-.54A34.7,34.7,0,0,0-36.18,16.44Zm2.56-1.02-1.12.52a20.771,20.771,0,0,1,1.92,3.16l1.16-.56A25.359,25.359,0,0,0-33.62,15.42Zm-15.32,9.32,1.5,1.52c.3-.42.74-1.04,1.14-1.54.92-1.12,2.58-3.3,3.54-4.48.68-.82,1.06-.9,1.84-.14.84.82,2.7,2.8,3.86,4.12,1.28,1.46,3.04,3.5,4.46,5.22l1.38-1.46c-1.54-1.64-3.54-3.82-4.88-5.24-1.18-1.26-2.88-3.04-4.1-4.2-1.36-1.28-2.3-1.06-3.38.2-1.26,1.48-3,3.7-3.94,4.66C-48.06,23.94-48.42,24.3-48.94,24.74Zm29.42,4.84,1.06.88a4.279,4.279,0,0,1,.68-.46,19.883,19.883,0,0,0,6.82-5.54l-.94-1.36a15.367,15.367,0,0,1-5.84,4.92V16.48A12.376,12.376,0,0,1-17.66,15H-19.5a9.492,9.492,0,0,1,.12,1.48V28.46A4.762,4.762,0,0,1-19.52,29.58Zm-9.16-.1,1.5,1.02A11.178,11.178,0,0,0-23.62,25,43.751,43.751,0,0,0-23,16.5c0-.6.08-1.2.1-1.44h-1.84a7.368,7.368,0,0,1,.14,1.46c0,2.22-.02,6.22-.6,8.04A9.493,9.493,0,0,1-28.68,29.48ZM-8.42,16.84l.18,1.74c2.16-.46,7.26-.94,9.4-1.18a8.124,8.124,0,0,0-3.74,6.76c0,4.46,4.22,6.44,7.92,6.58l.58-1.66c-3.26-.12-6.9-1.36-6.9-5.26A7.039,7.039,0,0,1,3.6,17.48a16.752,16.752,0,0,1,3.92-.32v-1.6c-1.34.06-3.22.18-5.4.36-3.68.3-7.46.68-8.76.82C-7.02,16.78-7.66,16.82-8.42,16.84ZM4.64,19.62l-1.02.44a18.567,18.567,0,0,1,1.64,2.82l1.02-.48A23.738,23.738,0,0,0,4.64,19.62Zm2.18-.84-.98.46a18.537,18.537,0,0,1,1.68,2.8l1.04-.5A26.415,26.415,0,0,0,6.82,18.78Zm21.8-2.3-.98-.94a9.877,9.877,0,0,1-1.4.12H14.76a16.972,16.972,0,0,1-2.28-.18V17.3a22.348,22.348,0,0,1,2.28-.12h11.4a13.586,13.586,0,0,1-4.38,4.48l1.32,1.06a19.283,19.283,0,0,0,4.98-5.52C28.22,16.98,28.48,16.68,28.62,16.48Zm-7.98,2.64h-1.8a12.023,12.023,0,0,1,.08,1.44c0,3.34-.44,6.18-3.54,8.08a6.888,6.888,0,0,1-1.8.9l1.48,1.2C20.16,28.2,20.64,24.54,20.64,19.12ZM46.1,15.64a1.33,1.33,0,1,1,1.32,1.32A1.336,1.336,0,0,1,46.1,15.64Zm-.92,0a2.254,2.254,0,0,0,.1.64c-.24.02-.46.02-.64.02H34.6a15.436,15.436,0,0,1-2-.14v1.78c.52-.02,1.2-.06,2-.06H44.82A14.969,14.969,0,0,1,42.2,24.4a13.169,13.169,0,0,1-7.8,4.8l1.36,1.5a15.145,15.145,0,0,0,7.88-5.34,19.539,19.539,0,0,0,2.98-7.38,1.032,1.032,0,0,0,.04-.22,2.418,2.418,0,0,0,.76.12,2.25,2.25,0,1,0-2.24-2.24Zm7.74.66c.04.48.04,1.1.04,1.56V27.7c0,.7-.04,2.18-.06,2.44h1.72c-.02-.16-.02-.64-.04-1.16H65.5c0,.54-.02,1.02-.02,1.16H67.2c-.02-.22-.04-1.78-.04-2.42V17.86c0-.5,0-1.06.04-1.56-.6.04-1.32.04-1.76.04H54.7C54.24,16.34,53.7,16.32,52.92,16.3Zm1.66,1.62H65.52v9.5H54.58Zm17.46,3.42V23.3c.62-.06,1.68-.1,2.78-.1H85.8c.9,0,1.74.08,2.14.1V21.34c-.44.04-1.16.1-2.16.1H74.82C73.7,21.44,72.64,21.38,72.04,21.34ZM93.32,16.1l.4,1.48c1.54-.02,3.8-.08,5.82-.28v3.64H93.52c-.6,0-1.3-.04-1.76-.08v1.66c.48-.04,1.16-.08,1.8-.08H99.5a7.939,7.939,0,0,1-5.06,7.28l1.58,1.1a9.479,9.479,0,0,0,5.12-8.38h5.58c.5,0,1.1.04,1.54.08V20.86c-.42.04-1.14.08-1.58.08h-5.52V17.1c1.44-.22,2.98-.52,3.98-.78.28-.08.68-.18,1.12-.3l-1.06-1.38a27.121,27.121,0,0,1-5.16,1.16A48.28,48.28,0,0,1,93.32,16.1Z" transform="translate(-189 -10997)" fill="#3c505a"/>
      <path id="Path_193" data-name="Path 193" d="M-55.6-9.18V-9.9h2.2c.88,0,1.62.04,1.84.06v-1.68a14.705,14.705,0,0,1-1.84.1h-2.2v-2.5a15.163,15.163,0,0,1,.1-1.64h-1.8a11.15,11.15,0,0,1,.1,1.64v2.5h-5.7v-2.56a12.344,12.344,0,0,1,.1-1.46h-1.78a12.35,12.35,0,0,1,.08,1.46v2.56h-2.16a14.663,14.663,0,0,1-2-.14v1.74c.24-.02,1.14-.08,2-.08h2.16v3.24c0,.76-.06,1.62-.08,1.82h1.76c-.02-.2-.08-1.08-.08-1.82V-9.9h5.7v.84c0,5.6-1.82,7.32-5.46,8.72L-61.32.92C-56.74-1.12-55.6-3.86-55.6-9.18Zm20.7-5.6a1.272,1.272,0,0,1,1.26-1.28,1.293,1.293,0,0,1,1.3,1.28,1.281,1.281,0,0,1-1.3,1.28A1.259,1.259,0,0,1-34.9-14.78Zm-.92,0a2.172,2.172,0,0,0,2.18,2.18,2.177,2.177,0,0,0,2.2-2.18,2.206,2.206,0,0,0-2.2-2.2A2.2,2.2,0,0,0-35.82-14.78Zm-3.34-.64h-1.88A7.253,7.253,0,0,1-40.9-14v2.06h-5.56a14.96,14.96,0,0,1-1.7-.1v1.68c.54-.04,1.1-.06,1.7-.06h5.56V-1.4c0,.52-.24.76-.78.76a14.226,14.226,0,0,1-2.3-.24l.14,1.6c.8.08,2,.14,2.84.14,1.2,0,1.72-.54,1.72-1.6v-9.68h5.3c.48,0,1.08,0,1.62.04v-1.66a15.346,15.346,0,0,1-1.64.1h-5.28v-2.04A9.476,9.476,0,0,1-39.16-15.42ZM-35.2-8l-1.36.72a33.228,33.228,0,0,1,3.34,5.32l1.48-.82A42.9,42.9,0,0,0-35.2-8Zm-8.36.66-1.4-.68a21.354,21.354,0,0,1-3.82,5.24l1.38.92A28.986,28.986,0,0,0-43.56-7.34Zm15.6-1.32V-6.7c.62-.06,1.68-.1,2.78-.1H-14.2c.9,0,1.74.08,2.14.1V-8.66c-.44.04-1.16.1-2.16.1H-25.18C-26.3-8.56-27.36-8.62-27.96-8.66Zm24.7,6.9A17.623,17.623,0,0,1-3.4.6h1.94c-.08-.66-.12-1.74-.12-2.36,0-.58,0-3.6-.02-6.6A52.434,52.434,0,0,1,6.26-5.14l.68-1.7a63.923,63.923,0,0,0-8.54-3.3V-13.4c0-.6.08-1.46.14-2.08H-3.42a12.623,12.623,0,0,1,.16,2.08ZM23.4-15.74a20.474,20.474,0,0,1,3.54,2.4l.92-1.02a19.077,19.077,0,0,0-3.58-2.28Zm2.84,5.4a19.806,19.806,0,0,1-2.56,5.4,36.074,36.074,0,0,1-1.1-6.94h6.36v-1.46H22.48c-.06-1.08-.08-2.2-.08-3.36H20.86c.02,1.14.04,2.26.12,3.36H12.64v5.58c0,2.58-.18,6-1.82,8.44a5.916,5.916,0,0,1,1.24,1c1.8-2.6,2.1-6.62,2.1-9.42V-7.9H17.8c-.08,3.44-.18,4.7-.46,5-.12.18-.32.22-.6.22-.34,0-1.2-.02-2.12-.1a3.091,3.091,0,0,1,.42,1.4,23.077,23.077,0,0,0,2.38,0,1.547,1.547,0,0,0,1.2-.58c.42-.52.54-2.2.64-6.68v-.64h-5.1v-2.6h6.9a39.326,39.326,0,0,0,1.46,8.42,15.96,15.96,0,0,1-4.6,3.7A8.371,8.371,0,0,1,19,1.42,17.881,17.881,0,0,0,23.12-1.9c.92,2.06,2.12,3.28,3.66,3.28C28.3,1.38,28.84.4,29.12-3a3.515,3.515,0,0,1-1.28-.8c-.14,2.66-.38,3.7-.94,3.7-1.02,0-1.94-1.14-2.68-3.1a22.552,22.552,0,0,0,3.52-6.76Zm10.28-5.98A16.987,16.987,0,0,1,30.54-8.8,8.644,8.644,0,0,1,31.8-7.66a20.606,20.606,0,0,0,6.28-8.22Zm-2.74,7.1v1.44h4.08C37.4-4.4,36.3-1.24,31.6.32a5.9,5.9,0,0,1,.96,1.3c5.08-1.84,6.36-5.46,6.88-9.4H44.6c-.24,5.04-.52,7.04-1.04,7.54-.18.22-.42.26-.84.26-.46,0-1.7-.02-3-.14a3.616,3.616,0,0,1,.5,1.48,28.651,28.651,0,0,0,3.14.04A2.006,2.006,0,0,0,44.9.7c.68-.76.98-3.06,1.26-9.2.02-.2.04-.72.04-.72Zm8.24-6.58a26.45,26.45,0,0,0,6.2,7.96,7.647,7.647,0,0,1,1.22-1.32,21.162,21.162,0,0,1-6.02-7.2Zm16.46.26-1.84-.18a22.328,22.328,0,0,1-.52,4.36c-1.22.1-2.38.2-3.04.22-.64.02-1.16.02-1.8,0l.18,1.72c.5-.08,1.34-.18,1.8-.24.52-.06,1.48-.16,2.54-.26-.68,2.68-2.18,7.24-4.22,9.96L53.2.7a40.819,40.819,0,0,0,4.22-10.78c.86-.08,1.66-.14,2.14-.14,1.28,0,2.12.34,2.12,2.16a16.9,16.9,0,0,1-.94,6.12A1.668,1.668,0,0,1,58.98-.9a9.737,9.737,0,0,1-2.44-.42L56.8.36a12.117,12.117,0,0,0,2.36.28,2.815,2.815,0,0,0,2.92-1.66c.82-1.66,1.16-4.84,1.16-7.22,0-2.72-1.46-3.4-3.26-3.4-.48,0-1.3.06-2.24.14.22-1.08.4-2.26.52-2.84C58.32-14.74,58.4-15.16,58.48-15.54Zm6.88,2.32-1.46.66a23.463,23.463,0,0,1,3.58,7.18l1.54-.74A34.119,34.119,0,0,0,65.36-13.22Zm.24-2.9-1.08.44a24.482,24.482,0,0,1,1.62,2.78l1.1-.48A28.344,28.344,0,0,0,65.6-16.12Zm2.2-.82-1.06.46a22.426,22.426,0,0,1,1.66,2.76l1.08-.48A28.866,28.866,0,0,0,67.8-16.94ZM-91.78,14.02h-1.78a10.547,10.547,0,0,1,.1,1.42c0,.36-.02,1.24-.02,2.28-.56.04-1.08.06-1.54.06a18.507,18.507,0,0,1-2.56-.16l.04,1.52a21.969,21.969,0,0,0,2.56.1c.42,0,.92-.02,1.48-.06-.02.88-.02,1.82-.02,2.62v1.14c-2.3.98-4.38,2.72-4.38,4.38,0,1.78,2.6,3.32,4.16,3.32,1.08,0,1.76-.6,1.76-2.46,0-.86-.04-2.64-.08-4.34a13.1,13.1,0,0,1,4.36-.78c1.9,0,3.44.92,3.44,2.62,0,1.84-1.6,2.78-3.36,3.12a10.228,10.228,0,0,1-2.34.14l.56,1.62a15.166,15.166,0,0,0,2.48-.28c2.74-.66,4.26-2.2,4.26-4.62,0-2.4-2.1-3.98-5.02-3.98a15.126,15.126,0,0,0-4.4.74v-.7c0-.8.02-1.76.04-2.7a36.717,36.717,0,0,0,4.2-.7l-.04-1.56a26.9,26.9,0,0,1-4.12.8c.02-.9.06-1.68.08-2.16A12.83,12.83,0,0,1-91.78,14.02Zm6.2,2.22-.72,1.2a25.37,25.37,0,0,1,4.48,3l.82-1.28A36.353,36.353,0,0,0-85.58,16.24Zm-10.76,11c0-.9,1.22-2.06,2.86-2.82.02,1.46.06,2.82.06,3.54,0,.66-.28.98-.74.98C-94.94,28.94-96.34,28.16-96.34,27.24Zm19.9-3.84c.02-.8.04-1.56.04-2.24V20.04h2.96V23.4Zm3-8.02v3.28H-76.4V15.38Zm1.4-1.38h-5.74v7.16c0,2.94-.1,6.88-1.48,9.68a4.741,4.741,0,0,1,1.24.74,20.155,20.155,0,0,0,1.5-6.76h3.08v4.76c0,.28-.1.36-.36.38-.24,0-1.04.02-1.96-.02a4.669,4.669,0,0,1,.44,1.42,6.227,6.227,0,0,0,2.6-.3c.5-.24.68-.66.68-1.48Zm8.92,15.78a.553.553,0,0,1-.32-.1c-.1-.1-.12-.46-.12-1.1V14H-69.8v8.4c0,2.72-.16,6.08-1.94,8.34a6.141,6.141,0,0,1,1.24.9c1.88-2.44,2.16-6.34,2.16-9.24V15.42h3.32V28.46c0,1.68.1,2.02.4,2.32a1.841,1.841,0,0,0,1.14.4h.98a1.992,1.992,0,0,0,1.06-.28,1.622,1.622,0,0,0,.52-1.08,28.741,28.741,0,0,0,.18-2.9,3.354,3.354,0,0,1-1.2-.66c0,1.26-.02,2.26-.06,2.68s-.1.62-.2.7a.516.516,0,0,1-.4.14Zm12.32-15.6-1.64-.14a10.245,10.245,0,0,1-.5,2.5c-.44.02-.9.02-1.32.02a29.273,29.273,0,0,1-3.38-.22v1.5c1.1.08,2.42.12,3.28.12h.88a21.1,21.1,0,0,1-4.62,6.12l1.36,1A26.421,26.421,0,0,1-54.92,23a5.265,5.265,0,0,1,3.44-1.46,1.669,1.669,0,0,1,1.82,1.24c-2.34,1.22-4.72,2.7-4.72,5.06,0,2.44,2.3,3.06,5.16,3.06a46.983,46.983,0,0,0,5.48-.36l.04-1.6a35.614,35.614,0,0,1-5.46.48c-2.06,0-3.62-.24-3.62-1.8,0-1.32,1.3-2.38,3.16-3.36,0,1.06-.02,2.36-.06,3.12h1.54c-.02-.98-.04-2.68-.06-3.84,1.52-.72,2.94-1.3,4.06-1.72a17.414,17.414,0,0,1,1.78-.64l-.66-1.5c-.56.3-1.04.52-1.64.78-1.04.48-2.26.96-3.62,1.62a2.582,2.582,0,0,0-2.68-1.8,5.726,5.726,0,0,0-2.78.74,15.88,15.88,0,0,0,1.8-3.1,57.851,57.851,0,0,0,6.64-.56l.02-1.48a49.187,49.187,0,0,1-6.1.62A20.418,20.418,0,0,0-50.8,14.18Zm20.1,3.52a24.494,24.494,0,0,1-1.64,5.4,25.113,25.113,0,0,0-3.74-2.62A22.69,22.69,0,0,0-34.6,17.7Zm5.7-4.42h-1.52V20.9a17.127,17.127,0,0,1-2.04-2.92l-.78.3c.1-.54.22-1.1.3-1.68l-.96-.36-.28.08h-3.76c.34-.88.64-1.82.9-2.76l-1.46-.3a18.69,18.69,0,0,1-4.78,8.92,8.624,8.624,0,0,1,1.22.96,14.38,14.38,0,0,0,1.32-1.54,24.622,24.622,0,0,1,3.82,2.84,14.307,14.307,0,0,1-5.92,5.88,5.591,5.591,0,0,1,1.18,1.1c3.8-2.12,6.8-6.1,8.26-12.4a22.8,22.8,0,0,0,2.98,3.92v8.54H-25V24.4a18.179,18.179,0,0,0,3.56,2.48,6.55,6.55,0,0,1,1.06-1.26A17.444,17.444,0,0,1-25,22.46Zm13.76,1.12-1.86-.2a20.9,20.9,0,0,1-.52,4.36c-1.2.1-2.38.2-3.04.22a17.612,17.612,0,0,1-1.78,0l.16,1.74c.52-.08,1.34-.18,1.8-.24.52-.06,1.48-.18,2.54-.28-.68,2.68-2.18,7.24-4.22,9.98l1.64.64a41.14,41.14,0,0,0,4.2-10.78c.88-.08,1.68-.14,2.16-.14,1.26,0,2.12.34,2.12,2.18A16.941,16.941,0,0,1-9,28a1.652,1.652,0,0,1-1.74,1.02,9.732,9.732,0,0,1-2.46-.4l.26,1.66a10.873,10.873,0,0,0,2.36.3A2.816,2.816,0,0,0-7.66,28.9c.84-1.66,1.16-4.84,1.16-7.22,0-2.7-1.46-3.38-3.24-3.38-.48,0-1.32.06-2.26.14.22-1.1.4-2.28.52-2.86C-11.4,15.2-11.32,14.76-11.24,14.4Zm6.88,2.12-1.46.66a23.5,23.5,0,0,1,3.56,7.24l1.56-.74A35.571,35.571,0,0,0-4.36,16.52ZM6.7,14.32l-.4,1.52c1.52.42,5.86,1.3,7.76,1.56l.38-1.54A54.63,54.63,0,0,1,6.7,14.32Zm-.44,3.64-1.68-.22a71.414,71.414,0,0,1-1.02,8.12l1.48.36a3.158,3.158,0,0,1,.6-1,7.839,7.839,0,0,1,6.2-2.68c2.04,0,3.52,1.14,3.52,2.74,0,2.74-3.08,4.56-9.4,3.78l.48,1.64c7.44.62,10.6-1.8,10.6-5.38,0-2.34-2.04-4.18-5.1-4.18a9.6,9.6,0,0,0-6.52,2.44C5.64,22.3,5.98,19.32,6.26,17.96ZM23.2,16.92H36.7V19.7h1.56V15.52H30.72V13.26H29.18v2.26H21.7V19.7h1.5Zm.46,7.18a19.154,19.154,0,0,1,3.24,4.24l1.24-.86a17.553,17.553,0,0,0-3.32-4.12Zm15.12-3.22H33.66V18.02h-1.5v2.86H21.24v1.46H32.16v7.28c0,.34-.14.46-.54.48-.38,0-1.78.02-3.22-.04a6.232,6.232,0,0,1,.52,1.48,15.542,15.542,0,0,0,3.8-.24c.7-.24.94-.7.94-1.68V22.34h5.12Zm8-6.66-1.76-.06c-.04.54-.08,1.12-.16,1.72a52.849,52.849,0,0,0-.62,6.46,24.356,24.356,0,0,0,.22,3.18L46,25.4a9.322,9.322,0,0,1-.04-2.46c.24-2.62,2.56-6.26,5.06-6.26,2.1,0,3.18,2.28,3.18,5.44,0,5.02-3.4,6.8-7.74,7.44L47.4,31c4.96-.9,8.44-3.34,8.44-8.9,0-4.2-1.9-6.86-4.56-6.86-2.54,0-4.62,2.5-5.44,4.54A37.131,37.131,0,0,1,46.78,14.22Zm31.94,1a11.673,11.673,0,0,0-2.86-1.76l-.78.8a14.06,14.06,0,0,1,2.82,1.86ZM67.4,20.66a18.29,18.29,0,0,1-1.28,2.08c-.28-.32-.52-.62-.74-.84a21.621,21.621,0,0,0,2.14-4.44l-.8-.5-.26.06h-1.4V13.34H63.68v3.68H61.12v1.36H65.8a18.75,18.75,0,0,1-5.12,6.92,5.144,5.144,0,0,1,.76,1.26,18.764,18.764,0,0,0,2.3-2.38v7.36h1.38V23.28c.7.94,1.54,2.1,1.92,2.72l.88-1c-.18-.26-.66-.86-1.18-1.5.48-.6,1.06-1.42,1.58-2.16Zm9.84-.02v2.14H74.28V20.64Zm-2.96,5.54v-2.2h2.96v2.2Zm-4.32,0v-2.2h2.9v2.2Zm2.9-5.54v2.14h-2.9V20.64Zm6.2-3.14V16.16H74.28V13.28H72.86v2.88H67.94V17.5h4.92v1.88H68.58V31.52h1.38V27.4h2.9v4.04h1.42V27.4h2.96v2.56c0,.22-.06.28-.28.28-.22.02-.84.02-1.58,0a6.373,6.373,0,0,1,.48,1.3,5.593,5.593,0,0,0,2.18-.24c.44-.24.58-.64.58-1.34V19.38H74.28V17.5ZM94.4,23.34c0,3.58-3.42,5.5-8.28,6.1l.9,1.52c5.18-.78,9.08-3.22,9.08-7.56,0-2.86-2.12-4.44-4.96-4.44a26.462,26.462,0,0,0-5.98.96,12.568,12.568,0,0,1-1.84.3l.52,1.86c.48-.2,1.06-.42,1.68-.62a18.741,18.741,0,0,1,5.46-1C93.04,20.46,94.4,21.66,94.4,23.34Zm-8.4-9-.26,1.52c2.26.4,6.3.8,8.52.94l.24-1.54A54.029,54.029,0,0,1,86,14.34Z" transform="translate(-17 -11257)" fill="#3c505a"/>
      <path id="Path_192" data-name="Path 192" d="M-11.78-15.98h-1.78a10.546,10.546,0,0,1,.1,1.42c0,.36-.02,1.24-.02,2.28-.56.04-1.08.06-1.54.06a18.507,18.507,0,0,1-2.56-.16l.04,1.52a21.969,21.969,0,0,0,2.56.1c.42,0,.92-.02,1.48-.06-.02.88-.02,1.82-.02,2.62v1.14c-2.3.98-4.38,2.72-4.38,4.38C-17.9-.9-15.3.64-13.74.64c1.08,0,1.76-.6,1.76-2.46,0-.86-.04-2.64-.08-4.34A13.1,13.1,0,0,1-7.7-6.94c1.9,0,3.44.92,3.44,2.62,0,1.84-1.6,2.78-3.36,3.12a10.228,10.228,0,0,1-2.34.14L-9.4.56A15.166,15.166,0,0,0-6.92.28c2.74-.66,4.26-2.2,4.26-4.62,0-2.4-2.1-3.98-5.02-3.98a15.126,15.126,0,0,0-4.4.74v-.7c0-.8.02-1.76.04-2.7a36.716,36.716,0,0,0,4.2-.7l-.04-1.56a26.9,26.9,0,0,1-4.12.8c.02-.9.06-1.68.08-2.16A12.831,12.831,0,0,1-11.78-15.98Zm6.2,2.22-.72,1.2a25.37,25.37,0,0,1,4.48,3L-1-10.84A36.353,36.353,0,0,0-5.58-13.76Zm-10.76,11c0-.9,1.22-2.06,2.86-2.82.02,1.46.06,2.82.06,3.54,0,.66-.28.98-.74.98C-14.94-1.06-16.34-1.84-16.34-2.76ZM3.56-6.6c.02-.8.04-1.56.04-2.24V-9.96H6.56V-6.6Zm3-8.02v3.28H3.6v-3.28ZM7.96-16H2.22v7.16C2.22-5.9,2.12-1.96.74.84a4.741,4.741,0,0,1,1.24.74,20.155,20.155,0,0,0,1.5-6.76H6.56V-.42c0,.28-.1.36-.36.38-.24,0-1.04.02-1.96-.02a4.669,4.669,0,0,1,.44,1.42,6.227,6.227,0,0,0,2.6-.3c.5-.24.68-.66.68-1.48ZM16.88-.22a.553.553,0,0,1-.32-.1c-.1-.1-.12-.46-.12-1.1V-16H10.2v8.4c0,2.72-.16,6.08-1.94,8.34a6.141,6.141,0,0,1,1.24.9C11.38-.8,11.66-4.7,11.66-7.6v-6.98h3.32V-1.54c0,1.68.1,2.02.4,2.32a1.841,1.841,0,0,0,1.14.4h.98A1.992,1.992,0,0,0,18.56.9a1.622,1.622,0,0,0,.52-1.08,28.742,28.742,0,0,0,.18-2.9,3.354,3.354,0,0,1-1.2-.66c0,1.26-.02,2.26-.06,2.68s-.1.62-.2.7a.516.516,0,0,1-.4.14Z" transform="translate(-121 -11121)" fill="#3c505a"/>
    </g>
    <g id="Layer_2" data-name="Layer 2" transform="translate(-4555.03 -10427.661) rotate(-13)">
      <g id="Group_208" data-name="Group 208">
        <path id="Path_127" data-name="Path 127" d="M19.17,92.07c1.26.47,1.81.97,1.88,1.93a10.935,10.935,0,0,1-1.01,3.97,8.431,8.431,0,0,0-2.61-.1c.49-1.14.96-2.47,1.1-2.84.12-.38.06-.54-.29-.67l-2.95-1.1.78,2.49a43.219,43.219,0,0,0-5.49,2.17,10.855,10.855,0,0,1,2.95,5.92,10.232,10.232,0,0,0-2.34.99l5.55,2.07-.87,2.34L.71,103.6l2.55-6.85L-.01,95.53l.9-2.42,3.27,1.22,2.56-6.89,12.44,4.63Zm-8.04,12.74a8.315,8.315,0,0,0-5.59-7.19l-1.67,4.49,7.26,2.7ZM6.44,95.2a16.5,16.5,0,0,1,2.12,1.1,55.388,55.388,0,0,1,6.69-3.05L8.14,90.61,6.43,95.2Z" fill="#3c505a"/>
        <path id="Path_128" data-name="Path 128" d="M11.94,75.87c.48.43,1.1.93,1.7,1.41.29-.63.55-1.2.76-1.59,1.05-1.96,2.67-2.88,5.33-1.45,2.18,1.17,5.04,3.04,6.22,4.71a3.345,3.345,0,0,1,.07,3.95,14.407,14.407,0,0,1-1.45,2.08l-2.66-.91A12.341,12.341,0,0,0,23.52,82a1.548,1.548,0,0,0-.05-1.81,16.794,16.794,0,0,0-4.72-3.5c-1.48-.8-2.02-.28-2.65.89-.16.3-.37.78-.61,1.32,2.43,2.21,6.08,5.94,7.88,9.1l-2.26,1.89c-1.46-3.1-4.51-6.38-6.68-8.41-.28.71-.52,1.32-.67,1.69-.19.57-.58,1.62-.79,2.22l-2.63-1.13a20.715,20.715,0,0,0,1.06-1.98c.29-.58.7-1.48,1.14-2.47a23.47,23.47,0,0,0-3.71-2.5l1.76-2.61c.42.37.94.82,1.36,1.16Zm12.44-6.14-.17,2.94a24.177,24.177,0,0,0-8.7-.67l.24-2.71a36.338,36.338,0,0,1,8.63.45Z" fill="#3c505a"/>
        <path id="Path_129" data-name="Path 129" d="M26.03,52.91l1.72,2c-1.46,1.57-4.98,4.8-6.27,5.89l-1.66-2.01a66.388,66.388,0,0,0,6.22-5.88Zm.83,11.74a10.264,10.264,0,0,1,1.98-6.2c2.14-2.99,5.23-3.42,7.29-1.94,3.11,2.22,3.75,6.39-1.93,13.07l-2.7-.95c4.36-4.63,5.06-8.23,2.89-9.79-1.11-.79-2.69-.32-3.75,1.17a7.475,7.475,0,0,0-1.38,6.19,5.259,5.259,0,0,0,.54,1.34l-1.9,1.61a78.718,78.718,0,0,0-6.53-5.96l1.96-2.06c.78.89,2.65,2.69,3.54,3.51Z" fill="#3c505a"/>
        <path id="Path_130" data-name="Path 130" d="M42.47,45.21s.49.49.7.76c3.17,3.41,4.4,5.07,4.5,6.17a2.871,2.871,0,0,1-.75,2.14,26.813,26.813,0,0,1-2.21,2.44,6.262,6.262,0,0,0-2.55-1.11c.95-.84,1.88-1.81,2.27-2.22a1.342,1.342,0,0,0,.46-.86c.04-.57-.74-1.67-2.6-3.71l-2.9,3.12c.2.27.39.54.56.78l-2.01,1.57a66.583,66.583,0,0,0-4.54-5.97l3.96-4.26-1.75-1.63-4.3,4.63L29.6,45.47l5.99-6.44,5.17,4.8-4.15,4.46c.47.58.94,1.18,1.37,1.76l4.5-4.85Zm-2.33-11.8L54.28,46.55l-1.7,1.83L38.45,35.24l1.7-1.83Z" fill="#3c505a"/>
        <path id="Path_131" data-name="Path 131" d="M55.75,28.93c-.24-.13-.47-.27-.68-.39-.44-.26-.79-.49-1.12-.68a50.064,50.064,0,0,1-5.56,4.38l-1.66-1.76a42.313,42.313,0,0,0,5.25-3.97c-.59-.38-1.18-.76-1.85-1.17l1.96-2.04c.56.51,1.13,1,1.7,1.45a24.022,24.022,0,0,0,2.6-3.34l1.8,1.64a31.651,31.651,0,0,1-2.47,3.07c.3.19.59.38.87.56.27.16.57.32.88.5a27.137,27.137,0,0,0,2.55-3.21l1.91,1.64a27.741,27.741,0,0,1-2.17,2.65A18.92,18.92,0,0,0,61.8,29a6.391,6.391,0,0,0,1.41.22l.25,2.31c-1.05.58-2.97,1.82-4.26,2.67l-1.12-1.67c.73-.5,1.67-1.15,2.2-1.5a22.042,22.042,0,0,1-2.3-.93,77.964,77.964,0,0,1-7.04,5.83l-1.7-1.81a54.228,54.228,0,0,0,6.48-5.18Zm.52,8.73c.99,1.19,2.53.74,4.66-1.04a28.231,28.231,0,0,0,3.76-3.73l1.59,2.14a32.076,32.076,0,0,1-3.67,3.57c-3.23,2.69-6.02,3.4-7.98,1.12a6.961,6.961,0,0,1-1.47-3.18l2.32-1.28a3.925,3.925,0,0,0,.78,2.38Z" fill="#3c505a"/>
        <path id="Path_132" data-name="Path 132" d="M80.41,15.85l4.78,7.49L83,24.74l-.64-1.01-9.81,6.26.66,1.03-2.14,1.37-4.79-7.5,2.14-1.37,2.82,4.41,3.7-2.36-3.41-5.35L66.4,23.5l-4.1-6.43,2.09-1.33,2.79,4.37,3.04-1.94-3.74-5.86,2.16-1.38,3.74,5.86,3.22-2.06-2.79-4.37,2.21-1.41,4.1,6.43-5.43,3.47L77.1,24.2l3.95-2.52-2.82-4.41,2.19-1.4Z" fill="#3c505a"/>
        <path id="Path_133" data-name="Path 133" d="M90.48,2c.07.15.17.36.26.6,1.92-.9,4.51-2.16,5.5-2.6l1.03,2.25c-1.17.48-2.95,1.27-5.54,2.48.45.97.96,2.01,1.36,2.84A5.484,5.484,0,0,1,95,9.85c1.16,2.47,1.19,6.3-2.84,9.77l-2.98-1.06a9.444,9.444,0,0,0,3.62-4.34,5.3,5.3,0,0,1-.81.5,3.705,3.705,0,0,1-4.91-1.97,3.956,3.956,0,0,1,2.14-5.34,6.371,6.371,0,0,1,.79-.3c-.2-.42-.4-.86-.62-1.26-2.85,1.38-5.77,2.89-8.04,4.12L80.21,7.7c2.17-1.02,5.59-2.71,8.16-3.96-.13-.24-.22-.43-.31-.57a13.554,13.554,0,0,0-.97-1.56L89.85.32c.1.32.51,1.38.63,1.7Zm1,10.39c.8-.37,1.22-1.31.17-2.86a1.559,1.559,0,0,0-1.55-.09,1.586,1.586,0,0,0-.75,2.21,1.566,1.566,0,0,0,2.13.74Z" fill="#3c505a"/>
      </g>
    </g>
    <g id="Layer_2-2" data-name="Layer 2" transform="translate(-4291.64 -10647.996) rotate(25)">
      <g id="Group_209" data-name="Group 209">
        <path id="Path_134" data-name="Path 134" d="M14.67,50.73a17.352,17.352,0,0,0,5-1.46,11.949,11.949,0,0,0,.45,2.81,17.642,17.642,0,0,1-2.93.84l4.83,4.2-1.71,1.96-6.67-5.8a23.15,23.15,0,0,1-4.23-.29c3.45,5.09,4.56,9.92,3.71,14.13a10.528,10.528,0,0,0-2.72.28,14.309,14.309,0,0,0-.37-7.86,27.271,27.271,0,0,0-3.87.8,10.525,10.525,0,0,1,.23,1.62,15.83,15.83,0,0,0-2.57.52c-.07-3.12-1.6-6.7-3.83-9.87l1.99-1.55c.51.75.98,1.49,1.42,2.27l1.92-2.2.23-.39,1.5-.86q.615.735,1.17,1.44l.29-.78a14.7,14.7,0,0,0,2.37.34L5.57,46.26,7.28,44.3l7.38,6.42ZM4.58,55.61a21.777,21.777,0,0,1,1.01,2.55,25.822,25.822,0,0,1,3.51-.93,24.066,24.066,0,0,0-2.49-3.95L4.58,55.61Z" fill="#3c505a"/>
        <path id="Path_135" data-name="Path 135" d="M20.65,35.46c.3.57.7,1.25,1.09,1.92.49-.49.94-.93,1.27-1.22,1.68-1.47,3.51-1.76,5.5.52,1.63,1.87,3.65,4.62,4.17,6.59a3.357,3.357,0,0,1-1.32,3.72,13.97,13.97,0,0,1-2.09,1.44L27.1,46.65a12.406,12.406,0,0,0,2.23-1.37,1.567,1.567,0,0,0,.59-1.72,16.666,16.666,0,0,0-3.2-4.93c-1.11-1.26-1.8-.97-2.79-.1-.25.22-.62.6-1.04,1.02,1.5,2.93,3.61,7.7,4.19,11.29l-2.77.98c-.28-3.41-1.98-7.56-3.3-10.22-.51.56-.95,1.05-1.22,1.35-.37.47-1.11,1.31-1.52,1.8L16.2,42.77a19.454,19.454,0,0,0,1.69-1.48c.48-.44,1.18-1.14,1.93-1.91a23.225,23.225,0,0,0-2.6-3.64l2.56-1.82c.26.49.6,1.1.86,1.56Zm13.8-1.38-1.19,2.69a24.085,24.085,0,0,0-7.91-3.68l1.18-2.45a35.835,35.835,0,0,1,7.92,3.45Z" fill="#3c505a"/>
        <path id="Path_136" data-name="Path 136" d="M38.53,30.19a10.3,10.3,0,0,1,4.02-5.12c3.05-2.05,6.09-1.37,7.51.74,2.14,3.17,1.27,7.3-6.38,11.57l-2.2-1.83c5.7-2.81,7.62-5.94,6.13-8.15-.76-1.13-2.41-1.24-3.92-.22a7.487,7.487,0,0,0-3.46,5.32,4.812,4.812,0,0,0,.04,1.44l-2.34.84a77.609,77.609,0,0,0-4.03-7.86l2.56-1.24c.42,1.11,1.54,3.45,2.08,4.52Zm3.33-11.28.91,2.48c-1.91.96-6.34,2.76-7.94,3.32l-.85-2.46a63.025,63.025,0,0,0,7.88-3.34Z" fill="#3c505a"/>
        <path id="Path_137" data-name="Path 137" d="M52.43,17.79l-2.27,1.14-2.21-4.41,6.8-3.4-.92-1.84L56.2,8.1l.92,1.84,6.84-3.42,2.21,4.41-2.39,1.19L62.61,9.79,51.26,15.47l1.17,2.33Zm15.61-4.1-4.6,2.3,2.87,5.73c.64,1.28.68,2.01-.02,2.78a12.561,12.561,0,0,1-3.69,2.34,9.308,9.308,0,0,0-1.93-1.88c1.25-.55,2.63-1.27,3.01-1.46s.48-.36.32-.68l-2.85-5.69-9.82,4.92-1.09-2.18,9.82-4.92L58.9,12.64l2.29-1.15,1.16,2.31,4.6-2.3,1.09,2.18Zm-12.66,6.9a19.266,19.266,0,0,1,4.84,2.25l-1.27,2.25a18.379,18.379,0,0,0-4.78-2.47l1.21-2.04Z" fill="#3c505a"/>
        <path id="Path_138" data-name="Path 138" d="M72.46,3.12c1.05-.36,5.28-1.9,6.38-2.38A8.843,8.843,0,0,0,80.28,0l1.9,1.33c-.35.45-.74.9-1.08,1.39-.81,1.12-2.3,3.58-3.21,5.01a8.579,8.579,0,0,1,1.81-.87c3.38-1.16,6.66.07,7.66,2.97,1.08,3.14-.46,6.44-5.27,8.09-2.76.95-5.28.39-5.96-1.6A3.523,3.523,0,0,1,78.62,12a4.218,4.218,0,0,1,5.4,1.95,3.027,3.027,0,0,0,.72-3.27c-.61-1.79-2.82-2.39-5.16-1.58-3.04,1.04-4.48,3.33-5.77,6.48l-2.45-1.25c1.02-1.62,2.73-4.47,3.57-5.84.8-1.29,2.29-3.67,2.97-4.86-1.01.37-3.71,1.43-4.74,1.85-.52.22-1.14.5-1.57.72l-.96-2.56a14.329,14.329,0,0,0,1.84-.52Zm8.35,12.7a10.227,10.227,0,0,0,1.13-.45,2.157,2.157,0,0,0-2.66-1.47c-.75.26-1.08.88-.91,1.38.25.74,1.24.95,2.43.54Z" fill="#3c505a"/>
      </g>
    </g>
  </g>
</svg>
