<svg xmlns="http://www.w3.org/2000/svg" width="1000" height="589.696" viewBox="0 0 1000 589.696">
  <g id="Group_175" data-name="Group 175" transform="translate(-300 -8368.304)">
    <path id="Path_122" data-name="Path 122" d="M300,0H1300V430L300,512.7Z" transform="translate(0 8445.304)" fill="#ffbe00"/>
    <g id="Point" transform="translate(721 8368.304)">
      <g id="Ellipse_10" data-name="Ellipse 10" fill="#ffbe00" stroke="#3c505a" stroke-width="1">
        <circle cx="79.5" cy="79.5" r="79.5" stroke="none"/>
        <circle cx="79.5" cy="79.5" r="79" fill="none"/>
      </g>
      <path id="Path_195" data-name="Path 195" d="M-13.3.3a1.614,1.614,0,0,1-1.1-.35,1.089,1.089,0,0,1-.4-.85.971.971,0,0,1,.45-.75A3.492,3.492,0,0,1-13.3-2.2,51.488,51.488,0,0,0-6.6-4.15,7.184,7.184,0,0,0-3.4-6.5a7.386,7.386,0,0,0,1.1-4.4V-49.1a3.524,3.524,0,0,0-2.2-3.55,19.935,19.935,0,0,0-6.2-1.25,4.846,4.846,0,0,1-1.85-.5,1.286,1.286,0,0,1-.75-1.2,1.333,1.333,0,0,1,.7-1.15,4.954,4.954,0,0,1,1.8-.65,46.474,46.474,0,0,0,8.7-1.95A17.4,17.4,0,0,0,4.2-63.6a.791.791,0,0,1,.5-.1,1.663,1.663,0,0,1,.9.25.559.559,0,0,1,.3.65,50.437,50.437,0,0,0-.4,7.1v46a6.415,6.415,0,0,0,.9,3.75A5.791,5.791,0,0,0,9.25-4q1.95.7,6.85,1.9a3.985,3.985,0,0,1,1.2.55.957.957,0,0,1,.5.75.95.95,0,0,1-.4.8,1.62,1.62,0,0,1-1,.3Q12.3.3,8.8,0,4.2-.2,1.7-.2q-3.9,0-7.5.3Q-10.6.3-13.3.3Z" transform="translate(80 121)" fill="#3c505a"/>
      <g id="Layer_2" data-name="Layer 2" transform="translate(24.875 11.01)">
        <g id="Group_292" data-name="Group 292" transform="translate(0.001 -0.01)">
          <path id="Path_153" data-name="Path 153" d="M18.566,29.31c2.941,2.812,3.361,3.1,5.268,1.487l.808-.679c.307-.032.727.469.646.727C23.7,32.4,22.8,33.285,21.733,34.416,20.6,35.6,19.681,36.63,18.55,37.923c-.242.081-.743-.291-.759-.614l.485-.663c1.325-1.842,1.05-2.214-1.907-5.025L6.011,21.748c-2.392-2.278-2.925-2.666-4.266-1.535l-1.083.9a.649.649,0,0,1-.646-.727A59.767,59.767,0,0,1,5.09,14.621c2.214-2.327,4.185-3.781,6.253-4.314a6.7,6.7,0,0,1,6.35,1.761,6.594,6.594,0,0,1,1.794,7.061,13.151,13.151,0,0,1-2.844,4.686c-.275.113-.695-.291-.582-.5,2.327-3.571,1.664-6.3-.792-8.629-2.731-2.6-6.011-2.682-8.807.242-1.422,1.487-1.325,1.616-.436,2.472L18.55,29.326Z" transform="translate(-0.001 6.24)" fill="#3c505a"/>
          <path id="Path_154" data-name="Path 154" d="M34.16,12.432c1.7,4.541-.194,8.984-4.735,10.681a7.659,7.659,0,0,1-10.245-4.686,8.163,8.163,0,0,1,4.8-10.746,7.763,7.763,0,0,1,10.2,4.751ZM23.948,8.926c-2.392.9-3.313,3.846-1.826,7.853,1.244,3.313,4.056,6.3,7.255,5.106s2.925-4.912,1.874-7.708c-1.163-3.086-3.862-6.544-7.32-5.252Z" transform="translate(11.456 4.422)" fill="#3c505a"/>
          <path id="Path_155" data-name="Path 155" d="M35.752,13.046c.032-1.519.032-1.713-1-2.424l-.339-.242c-.145-.162-.145-.582.048-.695a27.718,27.718,0,0,0,4.04-1.81.365.365,0,0,1,.388.242c-.113,1.357-.226,3.216-.259,4.8L38.483,19.9c-.065,2.8,0,3.183,1.406,3.41l.808.129a.674.674,0,0,1-.1.97c-1.163-.1-2.295-.162-3.636-.194-1.39-.032-2.553,0-3.652.032a.673.673,0,0,1-.065-.97l.824-.1c1.438-.162,1.487-.549,1.551-3.345l.145-6.787ZM39.21,2.058a1.9,1.9,0,0,1-2.1,1.971A1.923,1.923,0,0,1,35.17,2.042,2.023,2.023,0,0,1,37.3-.01a1.929,1.929,0,0,1,1.891,2.052Z" transform="translate(20.367 0.01)" fill="#3c505a"/>
          <path id="Path_156" data-name="Path 156" d="M47.4,10.815c.614-1.39.695-1.567,0-2.618l-.226-.355a.538.538,0,0,1,.323-.63,21.432,21.432,0,0,0,4.314-.162.43.43,0,0,1,.275.42c-.436.792-.663,1.309-.808,1.632a.411.411,0,0,0,.21.566,10.776,10.776,0,0,1,5.769.388c2.941,1.309,3.248,3.862,2.2,6.237l-2.7,6.092c-1.131,2.553-1.212,2.941-.016,3.684l.727.452a.668.668,0,0,1-.469.856c-1.034-.549-2.052-1.034-3.28-1.584-1.277-.566-2.359-1-3.345-1.357a.693.693,0,0,1,.323-.921l.727.194c1.406.372,1.584.065,2.715-2.488l2.343-5.284c.889-2.02.63-3.91-1.777-4.977a4.251,4.251,0,0,0-3.571-.1,3.249,3.249,0,0,0-1.47,1.891l-2.392,5.429c-1.131,2.553-1.2,2.909-.016,3.684l.6.388a.68.68,0,0,1-.469.856c-.921-.5-1.939-.986-3.183-1.535-1.277-.566-2.359-1-3.377-1.374a.693.693,0,0,1,.323-.921l.792.226c1.39.4,1.584.065,2.715-2.488L47.4,10.815Z" transform="translate(25.092 4.358)" fill="#3c505a"/>
          <path id="Path_157" data-name="Path 157" d="M65.757,20.33c-.452-.485-.549-.436-1.163.113l-5.349,4.9c-1.664,1.519-2.989,3.1-1.26,4.993a2.921,2.921,0,0,0,.856.646c.323.178.97.259,1.05.356.21.226,0,.63-.226.727a5.33,5.33,0,0,1-4.056-1.81c-2.246-2.456-1.341-4.234.372-5.8l6.561-5.995c.776-.711.808-.792.275-1.357l-.727-.808a.624.624,0,0,1,.517-.63,7.489,7.489,0,0,0,2.569,1.018,9.134,9.134,0,0,0,2.779-.339c.194.1.5.436.4.727l-1.293,1.18c-.517.469-.517.533-.065,1.018l2.909,3.183a1.243,1.243,0,0,1-1.18,1.131l-2.957-3.232Z" transform="translate(33.425 9.661)" fill="#3c505a"/>
        </g>
      </g>
    </g>
    <path id="Path_194" data-name="Path 194" d="M-142.4-77.372h-30.74L-184.391-40.02c6.96-4.872,12.18-5.336,14.964-5.336,11.02,0,19.024,7.888,19.024,19.024,0,10.9-8.12,19.836-19.024,19.836a18.983,18.983,0,0,1-12.528-4.64,18,18,0,0,1-5.22-6.264l-6.844,4.872a32.206,32.206,0,0,0,6.728,7.888,26.226,26.226,0,0,0,17.284,6.032c15.2,0,28.188-10.556,28.188-27.84,0-15.08-9.976-26.8-25.52-26.8a21.065,21.065,0,0,0-4.872.464l4.988-16.7H-142.4ZM-99.131,1.392c6.148,0,13.92-3.016,19.836-11.6,5.1-7.424,7.772-17.4,7.772-28.42s-2.668-21-7.772-28.42c-5.916-8.584-13.688-11.6-19.836-11.6s-13.92,3.016-19.836,11.6c-5.1,7.424-7.772,17.4-7.772,28.42s2.668,21,7.772,28.42C-113.051-1.624-105.279,1.392-99.131,1.392Zm0-72.152c3.944,0,9.28,2.088,13.34,8.584,4.176,6.612,5.684,15.428,5.684,23.548s-1.508,16.936-5.684,23.548c-4.06,6.5-9.4,8.584-13.34,8.584s-9.28-2.088-13.34-8.584c-4.176-6.612-5.684-15.428-5.684-23.548s1.508-16.936,5.684-23.548C-108.411-68.672-103.075-70.76-99.131-70.76ZM-54.667-.27l4.59,3.69,56.7-72.54-4.68-3.6Zm51.84,2.79c4.95,0,9.09-1.53,12.15-4.59,3.42-3.33,5.22-8.73,5.22-15.57,0-6.75-1.8-12.15-5.22-15.48a16.787,16.787,0,0,0-12.15-4.59,17.156,17.156,0,0,0-12.24,4.59c-3.42,3.42-5.22,8.73-5.22,15.48,0,6.84,1.8,12.24,5.22,15.57C-12.007.99-7.867,2.52-2.827,2.52Zm0-32.58a6.482,6.482,0,0,1,5.76,2.79,15.89,15.89,0,0,1,2.43,9c0,8.73-2.79,13.23-8.19,13.23-5.31,0-8.19-4.5-8.19-12.78,0-4.05.81-7.11,2.43-9.36A6.266,6.266,0,0,1-2.827-30.06Zm-42.39-1.62c4.95,0,9.09-1.53,12.15-4.59,3.42-3.33,5.22-8.73,5.22-15.57,0-6.75-1.8-12.15-5.22-15.48a16.787,16.787,0,0,0-12.15-4.59c-10.98,0-17.46,7.47-17.46,20.07,0,6.75,1.8,12.24,5.22,15.57C-54.4-33.21-50.257-31.68-45.217-31.68Zm0-32.58a6.927,6.927,0,0,1,6.57,4.05,19.759,19.759,0,0,1,1.62,8.37c0,8.1-2.97,12.6-8.19,12.6-5.31,0-8.19-4.5-8.19-12.78C-53.407-59.85-50.437-64.26-45.217-64.26Zm81.09,0v7.38h-1.89a77.982,77.982,0,0,1-9.18-.36c.27,3.15.36,6.21.36,10.8V-4.77a112.709,112.709,0,0,1-.54,12.24h9V2.43h21.33V5.85h8.64c-.27-2.7-.36-5.67-.36-9.99v-43.2c0-3.78.09-7.11.27-9.9a79.736,79.736,0,0,1-9.27.36h-1.26v-7.38h2.79c3.24,0,6.75.18,9.18.36v-9.54a83.047,83.047,0,0,1-10.08.54H32.813a79.939,79.939,0,0,1-9.9-.54v9.63a96,96,0,0,1,9.81-.45Zm7.29,0h2.52v7.38h-2.52Zm-9.54,35.91a22.324,22.324,0,0,1,3.78,6.66c2.34-4.14,3.15-6.03,3.96-9.63a82.668,82.668,0,0,0,1.8-16.92v-1.08h2.52v17.55c0,3.51.9,4.05,6.75,4.05h2.52v7.02H33.623Zm0-20.97h3.51c-.18,10.35-.99,14.85-3.51,19.98Zm18,0h3.33v14.13c-3.24-.09-3.33-.18-3.33-1.62Zm-18,36.36h21.33v7.02H33.623Zm67.32-51.21a86.536,86.536,0,0,1,.36-9.09,86.975,86.975,0,0,1-9.27.36H77.183a78.974,78.974,0,0,1-10.08-.54v10.08a74.385,74.385,0,0,1,9.99-.45h14.22l.09,18.9H76.913a84.7,84.7,0,0,1-9-.36,77.967,77.967,0,0,1,.36,8.82V-3.51c0,8.19,2.07,9.36,16.11,9.36,10.44,0,14.76-.99,17.1-3.87,1.8-2.34,2.61-6.75,3.15-17.55a31.428,31.428,0,0,1-9.45-3.69c0,6.57-.36,11.34-.99,13.23-.81,2.25-2.61,2.79-9.27,2.79-3.15,0-5.58-.27-6.39-.72-.54-.36-.72-.81-.72-2.43V-35.82H92.3a84.7,84.7,0,0,1,9,.36,82.144,82.144,0,0,1-.36-8.82Zm28.89,24.57a67.764,67.764,0,0,1,7.74-.36h30.78a65.517,65.517,0,0,1,8.1.36v-6.3a87.471,87.471,0,0,0,14.67,7.92,48.457,48.457,0,0,1,4.95-9.9,84.627,84.627,0,0,1-22.95-12.33c-7.2-5.4-11.25-9.45-15.12-15.21h-10.71a62.852,62.852,0,0,1-14.13,15.03,89.924,89.924,0,0,1-22.95,12.96,34.853,34.853,0,0,1,5.22,9.18,91.624,91.624,0,0,0,14.4-7.56Zm7.83-9.72h-2.52c8.28-5.94,12.24-9.81,17.64-17.55a82.21,82.21,0,0,0,18.54,17.55h-33.66Zm-4.41,56.16V2.25h39.33V6.84h10.71a56.225,56.225,0,0,1-.54-9.45V-23.67a61.345,61.345,0,0,1,.45-8.91,59.035,59.035,0,0,1-7.83.36h-45a56.678,56.678,0,0,1-7.74-.36,81.254,81.254,0,0,1,.45,8.91V-2.7a71.964,71.964,0,0,1-.54,9.54Zm0-30.33h39.33V-6.57h-39.33Z" transform="translate(800 8776.304)" fill="#3c505a"/>
    <path id="Path_193" data-name="Path 193" d="M-228.56-27.4a18.49,18.49,0,0,1,.2-3.36h-3.28a23.973,23.973,0,0,1,.16,3.32V-9c0,1.64.04,2.44.08,3.12.2,1.88.68,3.04,1.64,3.84C-228.36-.88-225.72-.4-221-.4c2.76,0,8.04-.28,10.6-.56l3.76-.4-.24-3.16a26.623,26.623,0,0,1-3.96.8,79.131,79.131,0,0,1-9.16.64,41.714,41.714,0,0,1-4.72-.24,5.052,5.052,0,0,1-3.04-1.04c-.68-.68-.84-1.6-.84-4.4v-.48a.7.7,0,0,0,.04-.24v-5.84a60.865,60.865,0,0,0,19.28-6.8,14.163,14.163,0,0,1,1.72-.88l-2.04-2.68c-3.04,2.8-12.24,6.56-18.96,7.72Zm43.84,28.64a27.2,27.2,0,0,1-.2-4.24V-15.04a13.969,13.969,0,0,0-.16-2.36l.08-.04a4.414,4.414,0,0,0,1.24.68,81.555,81.555,0,0,1,14.92,7.92l1.72-2.96a99.2,99.2,0,0,0-17.8-8.44v-7.48a25.108,25.108,0,0,1,.2-4.16h-3.44a23.716,23.716,0,0,1,.24,4.08V-2.96a25.726,25.726,0,0,1-.24,4.2Zm30.76-22.4a8.836,8.836,0,0,1,1.56-.12,117.778,117.778,0,0,0,14.24-1.04c.24.4.24.48.68,1.32a48.776,48.776,0,0,0,4.8,7.84c-1.68-.88-4.84-1.44-8.28-1.44a17,17,0,0,0-7.76,1.48,7.476,7.476,0,0,0-4.52,6.52,6.451,6.451,0,0,0,1.8,4.4c1.84,1.92,5.52,3,10.4,3a33.16,33.16,0,0,0,11.76-2.16l-.44-3.08a26.372,26.372,0,0,1-11.36,2.56c-3.44,0-6.32-.68-7.8-1.84a4,4,0,0,1-1.52-3.12,4.543,4.543,0,0,1,2.16-3.72c1.8-1.12,4.24-1.68,7.6-1.68a21.675,21.675,0,0,1,7,1.04,8,8,0,0,1,2.76,1.64l2.68-1.52a74.074,74.074,0,0,1-7.2-11.64c.4-.08.4-.08,1.36-.28,2.52-.48,3-.6,5.4-1.24,1.2-.32,1.52-.4,2.36-.56l-.4-2.84a46.813,46.813,0,0,1-9.68,2.52,32.908,32.908,0,0,1-1.44-3.52,12.749,12.749,0,0,1-1.16-3.6l-3.16.44c.36.72.6,1.28,1.04,2.32.72,1.8,1.36,3.4,1.96,4.76a93.364,93.364,0,0,1-11.92.84,17.537,17.537,0,0,1-3.08-.2Zm39.4-7.2a21.638,21.638,0,0,1,.12,2.36c.2,9.84.76,14.96,2.16,18.76,1.36,3.84,3.44,6.08,5.68,6.08,2.84,0,4.68-2.68,6.64-9.68a12.786,12.786,0,0,1-2.36-2.28,28.779,28.779,0,0,1-2.08,6.84c-.6,1.32-1.28,2-2,2-1.52,0-3.16-2.76-4.04-6.84a68.5,68.5,0,0,1-1.04-12.44,28.994,28.994,0,0,1,.28-4.76Zm20.24,3.4A35.327,35.327,0,0,1-86-5.24l2.84-1.16a38.3,38.3,0,0,0-3-10.68,34.72,34.72,0,0,0-5.72-9.12Zm35.16-4.64v-.52a16.08,16.08,0,0,1,.2-3.2h-2.8a16.328,16.328,0,0,1,.2,3.2v.52H-69.6v-.36a16.841,16.841,0,0,1,.16-3.08H-72.2a16.467,16.467,0,0,1,.2,3.08v.36h-1.44a25.067,25.067,0,0,1-4.4-.24v2.72a32.114,32.114,0,0,1,4.36-.2H-72v3.68a24.842,24.842,0,0,1-.12,2.76c.72-.08,2.28-.12,3.12-.12h17.56a23.617,23.617,0,0,1,3.28.12,26.093,26.093,0,0,1-.12-2.64v-3.8h1.68a32.475,32.475,0,0,1,4.36.2v-2.72a25.582,25.582,0,0,1-4.44.24h-1.6V-30a15.257,15.257,0,0,1,.2-3.04h-2.76a17.526,17.526,0,0,1,.16,3v.44Zm-2.4,6.44H-69.6v-4.16h8.04Zm2.4,0v-4.16h8.48v4.16Zm-2.44,7.32v4h-6.64A34.783,34.783,0,0,1-72.12-12a33.1,33.1,0,0,1,.16,3.6v4.52a26.165,26.165,0,0,1-.2,4.04h2.8a30.139,30.139,0,0,1-.16-4.08V-9.64h7.92V-.8a27.594,27.594,0,0,1-.24,4.16h2.92A27.593,27.593,0,0,1-59.16-.8V-9.64h8.56v6.28c0,.56-.08.68-.48.8a7.386,7.386,0,0,1-1.16.08,26.717,26.717,0,0,1-3.52-.2A14.368,14.368,0,0,1-55.2-.12c1.24.04,1.8.04,2.16.04,4.12,0,4.88-.44,4.88-2.76V-8.48A28.115,28.115,0,0,1-48-12a33.689,33.689,0,0,1-3.8.16h-7.36v-4h13.64V-10h2.64a16.164,16.164,0,0,1-.16-2.72v-2.04a28.653,28.653,0,0,1,.16-3.48c-1.2.12-2.56.16-4.52.16H-72.96a38.088,38.088,0,0,1-4.32-.16,24.824,24.824,0,0,1,.16,3.16v2.04a22.009,22.009,0,0,1-.16,2.96h2.64v-5.76Zm31.76-10.24a39.444,39.444,0,0,1-4.56-.2,35.085,35.085,0,0,1,.24,4.32V-2.12h-1.28a16.673,16.673,0,0,1-3.12-.2V.48A32.75,32.75,0,0,1-33.84.24H-6.12A34.819,34.819,0,0,1-1.48.48v-2.8a16.369,16.369,0,0,1-3.16.2H-5.8V-21.76a35.341,35.341,0,0,1,.24-4.52,34.054,34.054,0,0,1-4.32.2H-21.6a57.758,57.758,0,0,0,2.76-6.48l-2.88-.48a30.491,30.491,0,0,1-2.64,6.96Zm4.24,2.28V-2.12h-5.96V-23.8Zm8.52,0V-2.12h-6V-23.8Zm2.52,0H-8.4V-2.12h-6.16ZM9.52-28.76H6.2A17.864,17.864,0,0,1,2.56-29v2.56a23.617,23.617,0,0,1,3.64-.2H9.52v3.8H7.48A28.427,28.427,0,0,1,3.76-23a35.568,35.568,0,0,1,.16,3.92v5.6a38.179,38.179,0,0,1-.16,4.12,33.067,33.067,0,0,1,3.72-.16H9.52v3.96H6a23,23,0,0,1-3.64-.2v2.6A18.572,18.572,0,0,1,6-3.4H9.52v2.36a25.324,25.324,0,0,1-.24,4.16h2.76a24.479,24.479,0,0,1-.24-4.16V-3.4h3.44a24.583,24.583,0,0,1,3.64.2V-5.76a23,23,0,0,1-3.64.2H11.8V-9.52h1.84a31.346,31.346,0,0,1,3.84.12c-.08-1.12-.12-2.28-.12-4.12V-19c0-1.36,0-2.16.08-3.12a8.866,8.866,0,0,1,1.44,1.72,27.494,27.494,0,0,0,8.64-10.16,29.073,29.073,0,0,0,10.08,10,9.257,9.257,0,0,1,1.36-2.24,24.734,24.734,0,0,1-6.28-4.68,19.8,19.8,0,0,1-3.88-5.4H26.08a22.063,22.063,0,0,1-8.64,10.36l.04-.44a28.892,28.892,0,0,1-3.84.12H11.8v-3.8h3.16a23.935,23.935,0,0,1,3.64.2V-29a17.864,17.864,0,0,1-3.64.24H11.8v-.52a21.838,21.838,0,0,1,.24-3.88H9.28a26.606,26.606,0,0,1,.24,3.84ZM6.16-20.88h9v3.6h-9Zm0,5.6h9v3.8h-9ZM26.4-19.2v6.68H22.8a25.889,25.889,0,0,1-3.92-.24V-10a27.016,27.016,0,0,1,3.92-.24h3.6V-.76a23.794,23.794,0,0,1-.24,3.92h3a20.479,20.479,0,0,1-.28-3.92v-9.48h4.44a27.613,27.613,0,0,1,3.96.24v-2.76a26.846,26.846,0,0,1-3.96.24H28.88V-19.2h2.48a22.876,22.876,0,0,1,3.72.2v-2.68a18.5,18.5,0,0,1-3.72.24H24.68a18.739,18.739,0,0,1-3.72-.24V-19a30.99,30.99,0,0,1,3.8-.2Zm15.84,5.92a12.656,12.656,0,0,1,2.24-.24c1.32-.08,2.48-.16,4.04-.28V-1.04a27.826,27.826,0,0,1-.24,4h2.84a27.062,27.062,0,0,1-.24-4v-13c1.68-.16,2.04-.2,3.64-.44.24.84.36,1.24.64,2.52l2.04-.96a48.666,48.666,0,0,0-3.04-7.8l-1.88.88c.76,1.56,1,2.04,1.52,3.36-2.2.28-3.4.4-6.2.6,1.92-2.4,4.56-6.16,6.72-9.56.52-.84.84-1.28,1.16-1.72l-2.36-1.28c-.44,1.32-1.44,3.08-3.96,6.96-1.16-1.4-1.2-1.48-2.4-2.84a71.791,71.791,0,0,0,3.6-6.28,17.471,17.471,0,0,1,1-1.8l-2.52-1c-.44,1.88-1.48,4.08-3.56,7.48-.72-.76-.84-.88-1.8-1.84l-1.44,1.88a56.372,56.372,0,0,1,5.8,6.32c-.96,1.4-1.48,2.08-2.8,3.8-1.04.04-1.28.04-1.6.04a9.5,9.5,0,0,1-1.56-.12Zm1.76,2c-.24,4.8-.8,7.52-2.16,10.64L44.04.44C45.32-3,45.64-4.6,46.28-10.88Zm8.44.36A39.791,39.791,0,0,1,54.4-1.36l2.2-.6a55.128,55.128,0,0,0-2.12-9.6Zm5.4,9.24a34.628,34.628,0,0,1-.24,4.4h2.64V.12H74.16V2.68H76.8a34.861,34.861,0,0,1-.24-4.44v-24.8a44.483,44.483,0,0,1,.16-4.6,30.592,30.592,0,0,1-4.04.16H61.64a32.372,32.372,0,0,1-3.96-.16c.12,1.2.16,2.56.16,4.44Zm2.36-27h5.6v11.64H60.2Zm7.92,0H74.2V-17H68.12ZM60.2-14.8h5.6V-2.12H60.2Zm7.92.04H74.2V-2.12H68.12Zm23.84,4.2v9.6C91.96-.04,91.72.2,90.8.2a21.344,21.344,0,0,1-3.52-.36,6.6,6.6,0,0,1,.52,2.52c1.28.08,1.96.12,2.96.12,2.84,0,3.52-.64,3.52-3.24V-27.84a32.285,32.285,0,0,1,.16-4,19.273,19.273,0,0,1-3.08.16H87.2a23.384,23.384,0,0,1-3.12-.16,73.626,73.626,0,0,1,.2,8.08c0,9.8-.24,15.04-.8,18.6a15.275,15.275,0,0,1-2.2,6.2,8.678,8.678,0,0,1,2.04,1.84c2-3.44,2.72-6.56,3.08-13.44Zm0-11.68H86.64V-29.4h5.32Zm0,2.16v7.36H86.48c.04-1,.04-1.6.08-4,0-.72,0-1.88.04-3.36Zm22-6.08c-.08,7.64-.44,12.56-1.16,15.84-.24,1.08-.64,1.4-1.72,1.4a19.865,19.865,0,0,1-3.56-.32A7.557,7.557,0,0,1,108-6.8c1.52.12,2.32.16,3.24.16,3.24,0,3.8-.84,4.44-6.2.28-2.56.64-7.84.72-10.96a41.076,41.076,0,0,1,.24-4.84,25.385,25.385,0,0,1-3.48.2h-11.4c.32-.72.48-1.2.76-2,.44-1.24.64-1.8.8-2.24l-2.72-.52a23.1,23.1,0,0,1-6.08,12.04,5.461,5.461,0,0,1,1.64,1.84,28.525,28.525,0,0,0,4.6-6.84Zm-13.4,14.4h5.56c1.4,0,2.36.04,3.4.12-.08-1.04-.12-1.84-.12-3.16v-4.24a28.392,28.392,0,0,1,.12-3.24,27.311,27.311,0,0,1-3.52.16h-3.76A20,20,0,0,1,99-22.28v2.56a20,20,0,0,1,3.24-.16h4.8v5.92h-5.56c-1.48,0-2.4-.04-3.52-.12a31.119,31.119,0,0,1,.16,3.64v8.92c0,1.6.28,2.28,1.16,2.76,1.08.6,3.08.8,7.56.8,6.24,0,8.44-.28,9.44-1.24.92-.84,1.4-2.56,1.72-6.08a8.564,8.564,0,0,1-2.52-1.08c-.08,3.12-.32,4.56-.88,5.2-.68.72-2.24.92-7.84.92a25.836,25.836,0,0,1-4.84-.28c-1-.2-1.36-.56-1.36-1.44Zm26.52-11H125.6a14.817,14.817,0,0,1-3.28-.24v2.72a14.606,14.606,0,0,1,3.28-.24h1.48v13.2a26.457,26.457,0,0,1-5.32,1.72l.8,2.76a12.7,12.7,0,0,1,1.68-.76,96.617,96.617,0,0,0,9.96-4.44l-.24-2.32c-1.92.96-2.56,1.28-4.4,2.04v-12.2h.92a25.751,25.751,0,0,1,3.24.16V-23a15.344,15.344,0,0,1-3.24.24h-.92V-29a20.681,20.681,0,0,1,.24-3.76h-2.96a25.261,25.261,0,0,1,.24,3.8Zm19.32-5.96v-1.36a15.955,15.955,0,0,1,.2-3.08h-2.92a14.724,14.724,0,0,1,.24,3.04v1.4h-5.96a24.185,24.185,0,0,1-3.88-.2v2.64a23.326,23.326,0,0,1,3.84-.2h15.4a23.242,23.242,0,0,1,3.92.2v-2.64a30.615,30.615,0,0,1-3.96.2ZM136.56-18.2a21.948,21.948,0,0,1-3.76-.2v2.72a29.636,29.636,0,0,1,3.88-.2H154a32.008,32.008,0,0,1,3.96.2V-18.4a29.457,29.457,0,0,1-3.92.2H150a56.917,56.917,0,0,0,3.32-7.08l-2.52-.76a31.116,31.116,0,0,1-3.32,7.84Zm.72-7.08a28.5,28.5,0,0,1,2.56,6.56l2.28-.84A38.868,38.868,0,0,0,139.68-26Zm1.2,25.4h13.6V2.56h2.72a26.287,26.287,0,0,1-.16-3.32V-8.72c0-1.72.04-2.6.12-3.48a20.684,20.684,0,0,1-3.04.16H139.08a25.346,25.346,0,0,1-3.24-.16A26.444,26.444,0,0,1,136-8.8v7.76a27.905,27.905,0,0,1-.2,3.6h2.68Zm0-9.92h13.64v7.68H138.48ZM178.2-5.48a20.642,20.642,0,0,0,6.44,5.2c3.28,1.76,6.92,2.8,12.36,3.52A8.664,8.664,0,0,1,198.44.88,38.345,38.345,0,0,1,187.8-1.16a52.267,52.267,0,0,0,7.24-4.88L193-7.52a28.8,28.8,0,0,1-7.4,5.4A13.718,13.718,0,0,1,181-5.48h6.24a26.831,26.831,0,0,1,3.2.12c-.08-.84-.12-1.8-.12-3.44v-5.16a35.869,35.869,0,0,0,7.24,4.4,7.021,7.021,0,0,1,1.56-2.24,26.155,26.155,0,0,1-6.88-3.24,22.3,22.3,0,0,1-4.72-4.24h6.32a26.846,26.846,0,0,1,3.96.24v-2.44a20.983,20.983,0,0,1-3.96.24H181v-2.44h10.28a20.85,20.85,0,0,1,3.48.2v-2.36a19.715,19.715,0,0,1-3.48.2H181v-2.44h11.2a26.633,26.633,0,0,1,3.92.24v-2.44a24.817,24.817,0,0,1-3.92.24h-5.36c.68-.88,1.12-1.48,2.32-3.32l-2.56-.84a23.34,23.34,0,0,1-2.48,4.16h-8.08a21.554,21.554,0,0,0-3-4.12l-2.36.8a16.79,16.79,0,0,1,2.6,3.32h-5.32a25.168,25.168,0,0,1-3.92-.24v2.44a26.634,26.634,0,0,1,3.92-.24H178.6v2.44h-9.64a19.946,19.946,0,0,1-3.52-.2v2.36a21.083,21.083,0,0,1,3.52-.2h9.64v2.44H166.32a25.036,25.036,0,0,1-3.96-.24v2.44a26.1,26.1,0,0,1,3.96-.24h6.36a19.924,19.924,0,0,1-4.28,4.32,23.937,23.937,0,0,1-7.44,3.68,6.733,6.733,0,0,1,1.68,2.2,31.847,31.847,0,0,0,6.52-3.84V.16c-2.32.28-3.88.44-4.68.44a.781.781,0,0,1-.28-.04l.56,2.56c.68-.16,1.2-.28,1.96-.4A135.016,135.016,0,0,0,181.32.08L181.2-2a87.433,87.433,0,0,1-9.6,1.84V-5.48Zm-5.44-10.56a24.916,24.916,0,0,0,2.72-3.24h9.44c1.56,1.8,2.04,2.28,3,3.24h-6.6a11.505,11.505,0,0,1,.16-2.36h-2.8a9,9,0,0,1,.2,2.36Zm-1.16,1.88H188v2.48H171.6Zm0,4.28H188v2.52H171.6Zm58.28-4.08a25.31,25.31,0,0,0-3.8-4.24l-1.6,1.44a16.747,16.747,0,0,1,3.76,4.48Zm4.96-8.28a18.137,18.137,0,0,1-3,.16h-6.4c.32-.84.36-.92.44-1.12.48-1.28.48-1.28.64-1.72l-2.56-.68a22.976,22.976,0,0,1-2.2,6.4,29.874,29.874,0,0,1-5.08,7.2,5.986,5.986,0,0,1,1.8,1.68c1.12-1.4,1.4-1.76,2.2-2.88a31.23,31.23,0,0,0,5.12,7.36A27.335,27.335,0,0,1,216.92.52a6.766,6.766,0,0,1,1.76,2.16,32.336,32.336,0,0,0,8.76-6.8,34.3,34.3,0,0,0,10.16,6.8A11.047,11.047,0,0,1,239.12.24a30.118,30.118,0,0,1-10.16-6.12,36.223,36.223,0,0,0,6.32-12.28c.52-1.64.6-1.92.88-2.68Zm-1.52,2.28a32.95,32.95,0,0,1-6.04,12.4,30.182,30.182,0,0,1-5.24-7.72,41.868,41.868,0,0,0,2.52-4.68Zm-11-8.92h-7.6a27.529,27.529,0,0,1-3.56-.24v2.68a35.264,35.264,0,0,1,3.56-.2H234.4c.96,0,2.04.08,3.56.2v-2.68a30.25,30.25,0,0,1-3.64.24h-9.48v-1.84a11.939,11.939,0,0,1,.2-2.68h-2.92a11.9,11.9,0,0,1,.2,2.72Zm-19.56-2.16a24.447,24.447,0,0,1,5.76,5.16l1.72-1.88a29.073,29.073,0,0,0-5.8-5Zm-1.28,10a28.667,28.667,0,0,1,6.28,4.92l1.56-2.08A42.328,42.328,0,0,0,203-22.88Zm5.72,10c-1.48,4.96-3.6,9.28-5.48,11.24l2.2,2a8.093,8.093,0,0,1,.52-.92c.12-.2.36-.68.8-1.44a46.657,46.657,0,0,0,3.92-9.32Zm5.96,9.24a35.755,35.755,0,0,1-.24,4.72h2.92a39.031,39.031,0,0,1-.24-4.6V-17.84a54.6,54.6,0,0,0,2.92-5.64c.44-.92.44-.92.68-1.44l-2.56-.96a28.628,28.628,0,0,1-4.72,9.4,18.653,18.653,0,0,1-3.48,3.8,6.738,6.738,0,0,1,1.6,2.16,17.592,17.592,0,0,0,3.24-4.36c-.08,1.84-.12,2.8-.12,4.52Z" transform="translate(800 8662.304)" fill="#3c505a"/>
    <path id="Path_192" data-name="Path 192" d="M8-9.44a1.209,1.209,0,0,0,1.2-1.2A1.209,1.209,0,0,0,8-11.84a1.209,1.209,0,0,0-1.2,1.2A1.209,1.209,0,0,0,8-9.44Zm0,2.9-5.28-5.28-.464.464,5.28,5.28-5.3,5.3L2.7-.32,8-5.616l5.28,5.28L13.744-.8,8.464-6.08l5.28-5.28-.464-.464ZM4.64-6.08a1.209,1.209,0,0,0-1.2-1.2,1.209,1.209,0,0,0-1.2,1.2,1.209,1.209,0,0,0,1.2,1.2A1.209,1.209,0,0,0,4.64-6.08Zm6.72,0a1.209,1.209,0,0,0,1.2,1.2,1.209,1.209,0,0,0,1.2-1.2,1.209,1.209,0,0,0-1.2-1.2A1.209,1.209,0,0,0,11.36-6.08ZM8-2.72a1.209,1.209,0,0,0-1.2,1.2A1.209,1.209,0,0,0,8-.32a1.209,1.209,0,0,0,1.2-1.2A1.209,1.209,0,0,0,8-2.72ZM17.408,0H23.84V-1.216H21.488V-11.744h-1.12a7.065,7.065,0,0,1-2.432.848v.928h2.08v8.752H17.408Z" transform="translate(1033 8627.304)" fill="#3c505a"/>
    <g id="Group_210" data-name="Group 210" transform="translate(19)">
      <g id="Group_174" data-name="Group 174" transform="translate(-10 -1183.695)">
        <g id="Union_2" data-name="Union 2" transform="translate(2395.999 -7818)" fill="#3c505a">
          <path d="M -1278.501586914062 17603.501953125 L -1440.500122070312 17603.501953125 L -1440.500122070312 17579 L -1440.500122070312 17578.779296875 L -1440.662231445312 17578.630859375 L -1446.259887695312 17573.5 L -1440.662231445312 17568.369140625 L -1440.500122070312 17568.220703125 L -1440.500122070312 17568 L -1440.500122070312 17542.5 L -1278.501586914062 17542.5 L -1278.501586914062 17603.501953125 Z" stroke="none"/>
          <path d="M -1279.001586914062 17603.001953125 L -1279.001586914062 17543 L -1440.000122070312 17543 L -1440.000122070312 17568.439453125 L -1440.324340820312 17568.736328125 L -1445.519897460938 17573.5 L -1440.000122070312 17578.560546875 L -1440.000122070312 17603.001953125 L -1279.001586914062 17603.001953125 M -1278.001586914062 17604.001953125 L -1441.000122070312 17604.001953125 L -1441.000122070312 17579 L -1446.999755859375 17573.5 L -1441.000122070312 17568 L -1441.000122070312 17542 L -1278.001586914062 17542 L -1278.001586914062 17604.001953125 Z" stroke="none" fill="#3c505a"/>
        </g>
        <path id="Path_191" data-name="Path 191" d="M-53.566-22.269v8.307h-7.839a22.991,22.991,0,0,1-3.783-.195v2.691a25.252,25.252,0,0,1,3.9-.2h7.722v10.14h-11.31a31.055,31.055,0,0,1-4.251-.234V1.092a28.689,28.689,0,0,1,4.29-.273h26.169a29.4,29.4,0,0,1,4.212.273V-1.755a31.629,31.629,0,0,1-4.212.234H-50.836v-10.14h8.5a23.88,23.88,0,0,1,3.783.2v-2.691a23.58,23.58,0,0,1-3.783.195h-8.5v-8.307h10.452a27.2,27.2,0,0,1,4.1.195V-24.8a28.975,28.975,0,0,1-4.1.234H-63.512a28.221,28.221,0,0,1-4.095-.234v2.73a25.34,25.34,0,0,1,4.095-.195Zm-4.485-8.5a37.126,37.126,0,0,1,9.438,5.031l1.6-2.106a44.119,44.119,0,0,0-9.321-4.836ZM-.916-20.592c-.429,2.847-2.457,7.371-4.8,10.725a45.808,45.808,0,0,1-2.574-14.04H-.058a32.169,32.169,0,0,1,4.368.195v-2.652a21.224,21.224,0,0,1-4.173.234h-8.5c-.078-1.833-.078-2.418-.078-3.12a16.831,16.831,0,0,1,.195-3.2h-3c.195.9.234,1.521.39,6.318H-22.367a41.306,41.306,0,0,1-4.758-.195,25.58,25.58,0,0,1,.234,4.563c0,7.605-.429,12.87-1.287,16.38a15.96,15.96,0,0,1-2.73,5.85A7.193,7.193,0,0,1-28.84,2.223,18.393,18.393,0,0,0-25.876-4.6a54.364,54.364,0,0,0,1.248-10.764h7.8a58.371,58.371,0,0,1-.507,7.644c-.273,1.716-.585,2.067-1.872,2.067a20.25,20.25,0,0,1-4.6-.624,9.113,9.113,0,0,1,.468,2.535,23.2,23.2,0,0,0,4.095.351c2.184,0,3.042-.351,3.627-1.56.546-1.131.936-3.978,1.17-8.385a38.023,38.023,0,0,1,.273-4.368,19.256,19.256,0,0,1-2.925.156H-24.55c.039-1.638.078-2.964.078-6.357h13.728A49.507,49.507,0,0,0-7.43-7.683,28.248,28.248,0,0,1-19.013.39,6.642,6.642,0,0,1-17.1,2.379,33.165,33.165,0,0,0-6.3-5.382,18.973,18.973,0,0,0-3.061-1.014C-1.54.507.02,1.4,1.034,1.4S2.827.78,3.451-.468a16.355,16.355,0,0,0,1.4-4.758A10.719,10.719,0,0,1,2.75-6.942C2.282-3.354,1.619-1.326.994-1.326a3.691,3.691,0,0,1-1.677-.9A13.959,13.959,0,0,1-4.621-7.41C-2.4-10.335-1.657-11.739.566-16.926c.663-1.56,1.053-2.418,1.17-2.613Zm2.145-7.8a30.54,30.54,0,0,0-5.577-3.861l-1.677,1.365A25.8,25.8,0,0,1-.41-26.754ZM21.977-16.068a18.883,18.883,0,0,1-2.106,8.034C18-4.485,15.035-1.911,10.042.507a8.15,8.15,0,0,1,1.716,2.184c4.758-2.457,7.8-5.109,9.828-8.5a22.21,22.21,0,0,0,3.042-10.257h9.087c0,6.747-.468,12.051-1.287,14.43-.273.741-.7.975-1.95.975a30.046,30.046,0,0,1-5.5-.663A10.811,10.811,0,0,1,25.6,1.443c2.457.234,3.822.312,5.109.312,2.262,0,3.2-.39,3.861-1.56,1.014-1.833,1.755-8.424,1.755-15.99a17.231,17.231,0,0,1,.156-2.769,29.509,29.509,0,0,1-4.095.195H19.559A29.935,29.935,0,0,1,15.5-18.6v2.769a31.405,31.405,0,0,1,4.017-.234Zm-1.6-16.185A12.543,12.543,0,0,1,18.7-28.158,32.135,32.135,0,0,1,8.014-16.731a8.584,8.584,0,0,1,1.911,2.106A38.712,38.712,0,0,0,22.211-29.25,10.642,10.642,0,0,1,23.3-31.239Zm8.658,1.092c.195.312.429.741.624,1.092C33.326-22.893,36.64-18.954,42.8-14.391a9.62,9.62,0,0,1,1.833-2.379A32.525,32.525,0,0,1,33.131-28.9a15.789,15.789,0,0,1-1.482-3.276Zm22.932,4.173a23.574,23.574,0,0,1,3.393-.234h2.106V-4.641a24.6,24.6,0,0,1-.312,4.407H60.86a24.882,24.882,0,0,1-.312-4.407V-23.6a63.988,63.988,0,0,1,.351-6.474,22.206,22.206,0,0,1-3.237.195H55.2a18.887,18.887,0,0,1-3.237-.195Z" transform="translate(1035 9770)" fill="ivory"/>
      </g>
      <g id="Group_173" data-name="Group 173" transform="translate(0 -1183.695)">
        <path id="Path_190" data-name="Path 190" d="M-205.694-25.042a38.4,38.4,0,0,1-7.752,1.634v-3.648a21.732,21.732,0,0,1,.19-3.534h-2.812a25.244,25.244,0,0,1,.19,3.61v3.762c-1.14.076-2.622.114-3.648.114a21.522,21.522,0,0,1-3.876-.266v2.508h1.558c.418.038,1.444.038,2.014.038,1.1,0,1.748,0,2.432-.038,1.178-.076,1.178-.076,1.52-.114v7.182a20.328,20.328,0,0,0-5.358,3.116c-2.052,1.748-3,3.382-3,5.054a4.583,4.583,0,0,0,1.748,3.572A10.036,10.036,0,0,0-216.22.38c1.862,0,2.774-.988,2.774-3.04v-9.5a25.64,25.64,0,0,1,8.056-1.482c4.978,0,8.132,2.318,8.132,6.042a5.044,5.044,0,0,1-5.092,5.358c-2.774,0-3.914-1.634-3.914-5.586a11.285,11.285,0,0,1,.076-1.482,8.236,8.236,0,0,1-2.508.988,13.866,13.866,0,0,0,.456,4.294A5.6,5.6,0,0,0-202.388.266,7.691,7.691,0,0,0-194.636-7.6a7.647,7.647,0,0,0-3.914-6.726,12.865,12.865,0,0,0-6.726-1.6,26.921,26.921,0,0,0-8.17,1.368v-6.574a66.695,66.695,0,0,0,6.726-1.14c.532-.114.684-.152,1.14-.228ZM-215.878-4.066c0,1.634-.114,1.862-.874,1.862a7.1,7.1,0,0,1-3.382-1.1c-1.1-.722-1.634-1.482-1.634-2.28,0-1.824,2.128-3.876,5.89-5.7ZM-193.04-20.14a31.932,31.932,0,0,0-7.676-7.22l-1.976,1.482a31.123,31.123,0,0,1,7.676,7.448Zm15.808,10.412v8.664c0,.95-.19,1.14-1.178,1.14a16.917,16.917,0,0,1-3.306-.38,6.777,6.777,0,0,1,.494,2.432c1.254.114,2.2.152,3.04.152,2.546,0,3.268-.684,3.268-3.078V-25.764a38.277,38.277,0,0,1,.152-4.332,19.935,19.935,0,0,1-3.23.19h-3.762a21.166,21.166,0,0,1-3.344-.19c.114,1.292.152,2.66.152,5.89,0,10.45-.114,14.136-.57,17.48A16.277,16.277,0,0,1-188.1.8a6.969,6.969,0,0,1,1.938,1.862c2.014-3.382,2.774-6.346,3.23-12.388Zm0-11.248h-5.358V-27.74h5.358Zm0,2.166v6.916h-5.586c.152-3.116.19-3.762.19-6.916Zm9.158-8.55h6.346V-.418c0,1.672.95,2.318,3.534,2.318,2.394,0,3.42-.3,4.028-1.14.646-.874.95-3.268,1.14-8.284a9,9,0,0,1-2.318-1.026,36.464,36.464,0,0,1-.532,7.372c-.228.646-.76.912-1.9.912-1.216,0-1.52-.19-1.52-.836V-26.03a36.222,36.222,0,0,1,.152-3.8,20.531,20.531,0,0,1-3.382.19h-4.788a20.308,20.308,0,0,1-3.344-.19,16.183,16.183,0,0,1,.152,2.318v5.738A81.349,81.349,0,0,1-171.874-5.32a16.592,16.592,0,0,1-2.7,6.27,9.374,9.374,0,0,1,1.976,1.9,22.563,22.563,0,0,0,3.534-9.766,121.9,121.9,0,0,0,.988-16.758Zm37.126,2.166a10.936,10.936,0,0,1,4.408.95,10.018,10.018,0,0,1,6.042,9.538,11.471,11.471,0,0,1-6.726,10.64A22.778,22.778,0,0,1-133.57-2.28,6.038,6.038,0,0,1-132.24.266a29.4,29.4,0,0,0,5.776-1.748,13.837,13.837,0,0,0,8.7-13.11,12.72,12.72,0,0,0-3.686-9.272c-2.47-2.432-6.194-3.762-10.45-3.762-5.092,0-9.234,1.71-12.274,5.054a15.808,15.808,0,0,0-3.99,10.488c0,5.32,2.7,9.272,6.308,9.272,2.736,0,4.978-2.28,7.182-7.3A56.963,56.963,0,0,0-130.948-25.194Zm-2.736.038a52.193,52.193,0,0,1-3.458,14.06c-1.634,3.724-3.154,5.51-4.75,5.51-2.052,0-3.648-2.812-3.648-6.46a13.141,13.141,0,0,1,6.194-11.324A12,12,0,0,1-133.684-25.156Zm25.574,15.58h-.57a23.5,23.5,0,0,1-3.648-.228V-7.22a25.848,25.848,0,0,1,3.61-.228h.608v6.27a31.2,31.2,0,0,1-.228,4.028h2.926a27.14,27.14,0,0,1-.228-3.99V-7.448h21.508v6.5C-84.132.076-84.474.3-86.146.3a37.675,37.675,0,0,1-5.32-.38,8.949,8.949,0,0,1,.57,2.508c1.254.114,2.584.152,3.838.152,4.446,0,5.358-.532,5.358-3.078V-7.448h.3a25.275,25.275,0,0,1,3.648.228V-9.8a23.168,23.168,0,0,1-3.648.228h-.3V-20.064a31.563,31.563,0,0,1,.152-3.5,26.8,26.8,0,0,1-3.458.152h-9.082v-4.446h12.122a31.421,31.421,0,0,1,3.99.228v-2.622a30.174,30.174,0,0,1-3.99.228h-25.688a28.99,28.99,0,0,1-3.99-.228v2.622a30.583,30.583,0,0,1,3.99-.228h11.21v4.446h-8.4a26.137,26.137,0,0,1-3.42-.152,33.489,33.489,0,0,1,.152,3.572Zm2.47,0v-4.978h9.2v4.978Zm0-7.03V-21.28h9.2v4.674Zm11.552,7.03v-4.978h9.956v4.978Zm0-7.03V-21.28h9.956v4.674ZM-57.76-21.28v8.17h-6.954a26.317,26.317,0,0,1-4.028-.228v2.66a28.083,28.083,0,0,1,4.028-.228h6.954V-.95H-69.046a29.342,29.342,0,0,1-4.446-.266V1.558a30.912,30.912,0,0,1,4.484-.266h24.434a30.707,30.707,0,0,1,4.446.266V-1.216a29.222,29.222,0,0,1-4.484.266h-10.6v-9.956h7.676a28.675,28.675,0,0,1,4.066.228v-2.66a26.544,26.544,0,0,1-4.066.228h-7.676v-8.17h9.386a37.11,37.11,0,0,1,4.294.228v-2.7a35.953,35.953,0,0,1-4.332.228h-9.348V-27.55a25.551,25.551,0,0,1,.266-4.028h-3.078a27.586,27.586,0,0,1,.266,4.028v4.028h-7.98c.8-2.09,1.254-3.344,1.368-3.686a15.424,15.424,0,0,1,.76-2.014l-2.85-.76A11.413,11.413,0,0,1-67.3-26.41a31.127,31.127,0,0,1-6.8,11.666,7.444,7.444,0,0,1,2.166,1.6,35.975,35.975,0,0,0,5.206-8.132Zm38.8-2.356c.19-3.306.19-3.306.19-5.092a26.158,26.158,0,0,1,.19-3.078h-3a21.466,21.466,0,0,1,.228,3.686c0,1.558-.038,2.774-.152,4.484H-29.07a32.858,32.858,0,0,1-4.712-.228v2.774a33.706,33.706,0,0,1,4.674-.228h7.448c-.874,8.132-3,13.034-7.41,17.024a23.439,23.439,0,0,1-6.384,4.1A6.078,6.078,0,0,1-33.44,1.938C-28.31-.988-25.08-3.99-22.876-7.9a33.452,33.452,0,0,0,3.762-13.414H-7.372A141.36,141.36,0,0,1-8.208-6.536c-.57,4.6-1.064,5.548-3.078,5.548a34.236,34.236,0,0,1-7.22-.95A11.947,11.947,0,0,1-17.86.912,47.243,47.243,0,0,0-11.1,1.52c3.04,0,4.18-1.026,4.864-4.332A117.819,117.819,0,0,0-4.9-18.848c.076-3.61.076-3.61.19-4.978a30.761,30.761,0,0,1-4.446.19Zm32.148-1.938a53.171,53.171,0,0,1-8.132-.418L5.016-23.37a6.738,6.738,0,0,1,.836-.038H6.46c1.406.038,4.978.114,5.586.114a4.209,4.209,0,0,0,.722-.076l-.342.57c-2.736,4.864-5.89,8.854-8.512,10.868L6.042-9.8a12.574,12.574,0,0,1,2.926-3.154c3.078-2.622,6.08-4.028,8.474-4.028,1.786,0,2.7.912,3,3a29.5,29.5,0,0,0-5.662,3.04c-2.584,1.938-3.876,3.914-3.876,6,0,3.914,3.306,5.852,10.108,5.852a58.952,58.952,0,0,0,9.234-.76,14.954,14.954,0,0,1,1.52-.19l-.342-2.926A31.84,31.84,0,0,1,21.28-1.482c-5.358,0-7.714-1.1-7.714-3.61,0-2.28,1.976-4.066,7.144-6.5a9.985,9.985,0,0,1,.038,1.14,54.648,54.648,0,0,1-.228,5.472L23.1-5.016a8.26,8.26,0,0,1-.076-1.368c0-.342,0-.874.038-1.71.038-.76.038-1.6.038-2.09,0-.95,0-1.33-.076-2.318a63.092,63.092,0,0,1,10.146-3.344l-1.216-2.66a8.361,8.361,0,0,1-2.584,1.1C27.7-16.8,25.536-16,22.762-14.9a4.612,4.612,0,0,0-5.016-4.218,10.113,10.113,0,0,0-5.738,1.862c-.38.266-.38.266-1.748,1.33a.292.292,0,0,1-.076-.114v-.038a.037.037,0,0,0,.038-.038c.038-.038.228-.19.494-.38.152-.114.912-.988,1.292-1.444a28.021,28.021,0,0,0,3.42-5.4,122.7,122.7,0,0,0,12.54-.988,11.846,11.846,0,0,1,1.52-.19l-.228-2.584c-2.09.684-5.89,1.14-11.97,1.444a6.469,6.469,0,0,0-.8.038c.19-.342.684-1.368,1.178-2.584a8.07,8.07,0,0,1,.988-2.052l-3.04-.532a16.127,16.127,0,0,1-1.824,5.206ZM61.56-13.3H55.138a20.936,20.936,0,0,1-3.5-.19v2.584a22.6,22.6,0,0,1,3.534-.19H61.56V-1.064C61.56-.152,61.294,0,59.926,0a35.7,35.7,0,0,1-5.092-.418,10.008,10.008,0,0,1,.532,2.47c1.672.152,3.306.228,4.56.228,3.154,0,4.028-.646,4.028-3V-11.1H70.6a29.773,29.773,0,0,1,3.99.228v-2.66a26.488,26.488,0,0,1-3.876.228H63.954V-27.094a72.9,72.9,0,0,0,9.538-2.394L71.668-31.5C68.59-29.83,60.61-28.386,52.136-27.968a6.951,6.951,0,0,1,.912,2.2c.988-.114,1.33-.114,2.546-.266,2.85-.266,2.85-.266,3.5-.38.988-.114,1.558-.19,2.47-.3ZM43.776-28.69a21.254,21.254,0,0,1-2.926-.152A31.763,31.763,0,0,1,41-25.156V-6.574a31.629,31.629,0,0,1-.228,4.1H43.32V-6.612h5.054v2.7h2.432c-.114-1.254-.152-2.432-.152-4.18V-25.27c0-1.634.038-2.7.114-3.572a24.944,24.944,0,0,1-2.888.152Zm-.456,2.166h5.054V-8.778H43.32ZM58.254-16.188a41.883,41.883,0,0,0-3.344-8.17l-2.166.836a29.846,29.846,0,0,1,3.382,8.208Zm12.5-9.386a29.758,29.758,0,0,1-4.1,9.424l2.09.874a40.8,40.8,0,0,0,4.37-9.31Zm33.364-2.964a28.924,28.924,0,0,1,3.572,5.662l1.862-1.026a27.223,27.223,0,0,0-3.61-5.548Zm3.61-1.786a25.7,25.7,0,0,1,3.61,5.472l1.824-1.064a29.258,29.258,0,0,0-3.648-5.32ZM80.522-24.4c.38-.038.38-.038,1.1-.076,5.472-.418,5.814-.456,8.474-1.178a19.076,19.076,0,0,0-3.42,3.382c-3.306,4.1-5.054,8.474-5.054,12.654C81.624-3.382,85.766.95,91.732.95a10.891,10.891,0,0,0,10.184-6.612,19.58,19.58,0,0,0,1.482-7.752,24.389,24.389,0,0,0-1.52-8.664c.3.532.3.532.76,1.368.38.722.684,1.178,1.292,2.166a25.336,25.336,0,0,0,4.826,5.586c.874.722.874.722,1.558,1.368l1.444-2.622a5.493,5.493,0,0,1-1.406-.912,26.053,26.053,0,0,1-5.472-5.928,29.374,29.374,0,0,1-3.572-6.916l-2.736.912c1.406,2.888,2.356,7.866,2.356,12.236a19.515,19.515,0,0,1-1.368,7.9A8.636,8.636,0,0,1,91.732-1.71c-4.332,0-7.486-3.306-7.486-7.866,0-3.876,1.748-7.942,5.206-12.122A18.278,18.278,0,0,1,93.9-25.8L92.3-28.2c-1.406.684-5.814,1.216-10.032,1.216a12.451,12.451,0,0,1-1.786-.114ZM124.26-3.838A14.5,14.5,0,0,1,120.574-8.7c.152-1.292.266-2.318.342-4.18a10.526,10.526,0,0,1,.152-1.444l-2.47-.342c.038.494.076.836.076,1.71A26.114,26.114,0,0,1,115.026.912a6.052,6.052,0,0,1,2.128,1.444,28.745,28.745,0,0,0,2.964-8.4,12.964,12.964,0,0,0,3.838,4.674c3.192,2.432,6.688,3.116,15.922,3.116,5.282,0,6.916-.038,10.412-.19a7.9,7.9,0,0,1,.874-2.736,82.861,82.861,0,0,1-12.73.608c-6.8,0-9.462-.38-11.932-1.672V-9.31h3.078a18.076,18.076,0,0,1,3.192.228V-11.59a18.949,18.949,0,0,1-3.154.19H126.5v-5.358h2.964a22.192,22.192,0,0,1,3.648.228v-2.584a21.165,21.165,0,0,1-3.686.228H126.35v-5.092h2.66a22.139,22.139,0,0,1,3.458.19v-2.47a18.581,18.581,0,0,1-3.458.19h-2.66v-1.6a18.567,18.567,0,0,1,.228-3.724h-2.736a19.025,19.025,0,0,1,.228,3.724v1.6h-3.04a18.871,18.871,0,0,1-3.42-.19v2.47a21.326,21.326,0,0,1,3.42-.19h3.04v5.092h-4.028a22.4,22.4,0,0,1-3.8-.228v2.584a19.9,19.9,0,0,1,3.8-.228h4.218Zm23.56-21.736a28.817,28.817,0,0,1,.152-3.762,21.98,21.98,0,0,1-3.838.19h-6.118a24.327,24.327,0,0,1-3.8-.228v2.584a26.38,26.38,0,0,1,3.686-.19h7.562v7.638H138.4a29.755,29.755,0,0,1-3.876-.152,31,31,0,0,1,.19,4.256v8.36c0,1.71.266,2.318,1.254,2.774.912.456,2.356.608,5.548.608,5.092,0,6.8-.38,7.486-1.6.57-1.026.874-2.736,1.026-6.232a10.562,10.562,0,0,1-2.356-1.064,30.812,30.812,0,0,1-.228,4.294c-.228,1.444-.57,1.938-1.6,2.128a46.681,46.681,0,0,1-5.13.228c-2.09,0-3.078-.114-3.382-.418-.228-.19-.266-.418-.266-1.14v-9.918h6.688a33.483,33.483,0,0,1,4.218.152,29.846,29.846,0,0,1-.152-4.066Zm13.11.95a8.925,8.925,0,0,1,1.254.114,74.333,74.333,0,0,0,8.36.494,30.035,30.035,0,0,0,5.738-.494c-.38.228-.456.228-.722.38-.456.228-.532.266-.95.494a58.879,58.879,0,0,0-5.054,3.154l1.938,1.558A54.122,54.122,0,0,1,181.07-24.7l-.19-2.508a41.557,41.557,0,0,1-9.614.8,43.445,43.445,0,0,1-10.108-.912Zm2.28,9.728c-2.926,2.47-4.37,4.864-4.37,7.334,0,2.622,1.482,4.56,4.332,5.738a26.808,26.808,0,0,0,8.74,1.178,61.987,61.987,0,0,0,10.26-.874,10.629,10.629,0,0,1,1.292-.19l-.342-3.116c-2.128.874-6.65,1.444-11.4,1.444a24.2,24.2,0,0,1-6.954-.76c-2.128-.722-3.23-1.976-3.23-3.724,0-1.786,1.14-3.534,3.61-5.586Zm47.8-10.412c-2.584.076-5.548.152-9.2.3-6.118.228-6.118.228-7.22.228-.57,0-.836,0-1.52-.038l.114,2.774c2.546-.418,10.222-.8,17.86-.95v1.976c0,.456.038.836.038.988,0,1.406,0,1.558.038,2.09a5.834,5.834,0,0,0-4.408-1.71c-3.876,0-6.726,2.66-6.726,6.27a5.89,5.89,0,0,0,6.232,6,5.94,5.94,0,0,0,4.788-2.052,5.322,5.322,0,0,0,1.026-1.862,9.842,9.842,0,0,1-4.256,8.018,19.476,19.476,0,0,1-6.156,2.85A8.343,8.343,0,0,1,203.3,1.976a24.17,24.17,0,0,0,6-3.078A12.23,12.23,0,0,0,214.4-11.02a10.888,10.888,0,0,0-.912-4.484v-7.524c3.078-.076,3.5-.076,4.066-.076a67.538,67.538,0,0,1,7.258.19v-2.7c-1.254.152-4.18.228-11.362.266v-.418a31.459,31.459,0,0,1,.19-4.75h-2.85a12.805,12.805,0,0,1,.152,2.2Zm-.114,11.1a4.259,4.259,0,0,1-4.446,4.484,3.673,3.673,0,0,1-3.914-3.762,4.022,4.022,0,0,1,4.218-3.99,4.861,4.861,0,0,1,2.546.608A2.751,2.751,0,0,1,210.9-14.212Z" transform="translate(700 9770)" fill="#3c505a"/>
        <g id="Rectangle_150" data-name="Rectangle 150" transform="translate(454 9724)" fill="none" stroke="#3c505a" stroke-width="1">
          <rect width="492" height="62" stroke="none"/>
          <rect x="0.5" y="0.5" width="491" height="61" fill="none"/>
        </g>
      </g>
    </g>
    <rect id="Rectangle_155" data-name="Rectangle 155" width="357" height="69" rx="34.5" transform="translate(621 8801)" fill="#3c505a"/>
    <path id="Path_189" data-name="Path 189" d="M-152.8-12.16l6.944,14.752h2.08l-6.976-14.752,6.976-14.752h-2.08Zm-3.84,0,6.976,14.752h2.048l-6.976-14.752,6.976-14.752h-2.048ZM-125.7-19.3h6.176a29.148,29.148,0,0,1,3.712.16V-21.6a23.259,23.259,0,0,1-3.744.192H-133.6a23.259,23.259,0,0,1-3.744-.192v2.464a29.148,29.148,0,0,1,3.712-.16h5.568V-5.12h-8a22.82,22.82,0,0,1-3.712-.192v2.5a29.211,29.211,0,0,1,3.68-.16h19.008a29.457,29.457,0,0,1,3.712.16v-2.5a23.024,23.024,0,0,1-3.744.192H-125.7ZM-98.24-26.08a14.511,14.511,0,0,1-2.016,4.672,23.707,23.707,0,0,1-8.032,8.768,4.758,4.758,0,0,1,1.792,1.664,30.849,30.849,0,0,0,7.648-8.32l10.784-.192a29.4,29.4,0,0,1-5.5,10.72,27.219,27.219,0,0,1-11.3,8.1,4.825,4.825,0,0,1,1.6,1.888,31.336,31.336,0,0,0,11.136-8,33.854,33.854,0,0,0,6.4-12.032c.352-1.152.352-1.184.64-1.568l-1.376-1.344a3.144,3.144,0,0,1-1.664.224c-9.248.16-9.248.16-9.664.256A30.609,30.609,0,0,0-96.32-24.1a6.114,6.114,0,0,1,.7-1.312ZM-75.1-22.24a35.768,35.768,0,0,1,4.192,9.92l2.368-.992a38.659,38.659,0,0,0-4.288-9.824Zm19.52-1.056a15.153,15.153,0,0,1-.384,2.656c-1.376,6.112-3.552,10.656-6.88,14.176A23.633,23.633,0,0,1-71.264-.672a5.43,5.43,0,0,1,1.7,1.952,28.009,28.009,0,0,0,8.544-6.208,31.737,31.737,0,0,0,7.3-14.624,16.64,16.64,0,0,1,.832-3.04ZM-43.1-22.24a35.767,35.767,0,0,1,4.192,9.92l2.368-.992a38.659,38.659,0,0,0-4.288-9.824Zm19.52-1.056a15.153,15.153,0,0,1-.384,2.656c-1.376,6.112-3.552,10.656-6.88,14.176A23.633,23.633,0,0,1-39.264-.672a5.43,5.43,0,0,1,1.7,1.952,28.009,28.009,0,0,0,8.544-6.208,31.737,31.737,0,0,0,7.3-14.624,16.64,16.64,0,0,1,.832-3.04Zm10.528,12.32A34.957,34.957,0,0,1-9.088-11.1H9.472a36.607,36.607,0,0,1,3.9.128v-2.592a25.239,25.239,0,0,1-3.872.16H-9.088a22.637,22.637,0,0,1-3.968-.192ZM28-25.44a60.721,60.721,0,0,1-2.528,9.216A122.043,122.043,0,0,1,20.64-3.552c-.736.064-2.5.16-2.72.16-.16,0-.16,0-.9-.032l.32,2.656a22.252,22.252,0,0,1,2.72-.352,197.673,197.673,0,0,0,19.68-2.656A43.435,43.435,0,0,1,41.632.544l2.24-1.216A82.889,82.889,0,0,0,35.9-15.136L33.92-14.048A62.248,62.248,0,0,1,38.848-5.76c-3.776.736-11.3,1.728-15.552,2.016a173.372,173.372,0,0,0,6.656-18.72,12.651,12.651,0,0,1,.864-2.3Zm33.248,1.408h-9.44a22.434,22.434,0,0,1-3.232-.192v2.112a23.773,23.773,0,0,1,3.168-.16H73.28a23.773,23.773,0,0,1,3.168.16v-2.112a22.406,22.406,0,0,1-3.168.192H63.3v-.64a11.127,11.127,0,0,1,.192-2.144H61.056a11.716,11.716,0,0,1,.192,2.176Zm-7.36,7.9a23.46,23.46,0,0,1-.1,2.5,26.484,26.484,0,0,1,2.88-.128H68.48a24.792,24.792,0,0,1,2.944.128,16.19,16.19,0,0,1-.1-2.5v-1.728c0-1.088.032-1.536.1-2.464a21.8,21.8,0,0,1-2.72.128H56.832a25.54,25.54,0,0,1-3.04-.128c.064.672.1,1.408.1,2.432Zm1.952-2.4H69.376v3.136H55.84ZM49.632-.7a23.063,23.063,0,0,1-.192,3.232h2.368a19.9,19.9,0,0,1-.192-3.264V-9.952h21.92V-.576c0,.64-.16.736-1.312.736a24.547,24.547,0,0,1-3.616-.288,6.429,6.429,0,0,1,.416,1.984c2.048.1,2.24.1,2.976.1,1.7,0,2.24-.1,2.752-.448.544-.352.736-.9.736-1.984V-8.96a26.032,26.032,0,0,1,.128-2.816,24.714,24.714,0,0,1-3.1.128H52.672a29.468,29.468,0,0,1-3.168-.128,26.868,26.868,0,0,1,.128,2.88ZM68.9-5.792a18.85,18.85,0,0,1,.1-2.176c-.832.064-1.6.1-2.816.1H58.5c-1.184,0-1.856-.032-2.592-.1A22.964,22.964,0,0,1,56-5.632v3.2A18.614,18.614,0,0,1,55.84.224h2.08v-1.76h8.128c1.12,0,2.112.032,2.944.1a19.6,19.6,0,0,1-.1-2.272Zm-11.008-.48H67.04v3.136H57.888ZM98.5-8.288,103.1-12.32c.256-.224.448-.416.544-.48.16-.16.288-.256.32-.288a4,4,0,0,0,.32-.288l-1.248-1.248a14.868,14.868,0,0,1-2.5.128H87.136a18.26,18.26,0,0,1-2.848-.16v2.08a27.1,27.1,0,0,1,3.008-.16h13.632L95.776-8.288H86.5a15.76,15.76,0,0,1-2.3-.128,19,19,0,0,1,.16,2.432V-.32a19.678,19.678,0,0,1-.192,2.688H86.4V.864h16.512v1.5h2.24A18.327,18.327,0,0,1,104.96-.32V-5.952a14.947,14.947,0,0,1,.16-2.464,15.021,15.021,0,0,1-2.272.128ZM86.4-6.5h16.512V-.96H86.4Zm6.944-19.936a26.123,26.123,0,0,1-6.528,6.3,35.366,35.366,0,0,1-7.232,3.936A6.347,6.347,0,0,1,80.992-14.4a42.356,42.356,0,0,0,7.136-4.224,31.8,31.8,0,0,0,6.336-6.048,38.708,38.708,0,0,0,13.952,10.144,6.642,6.642,0,0,1,1.312-1.888,30.06,30.06,0,0,1-6.592-3.264,27.018,27.018,0,0,1-7.616-6.752Zm-4.256,9.44a16.083,16.083,0,0,1,2.72-.16h5.76a15.45,15.45,0,0,1,2.688.16v-2.016a14.615,14.615,0,0,1-2.656.16H91.776a15.45,15.45,0,0,1-2.688-.16ZM118.88-1.472a31.431,31.431,0,0,1-.192,3.648h2.368a28.658,28.658,0,0,1-.16-3.648V-4.9h13.5v3.9c0,.8-.224.96-1.5.96a26.826,26.826,0,0,1-4.032-.32,7.1,7.1,0,0,1,.48,2.048c1.376.1,2.656.128,3.584.128a4.749,4.749,0,0,0,2.624-.416,2.267,2.267,0,0,0,.864-2.048V-13.472c0-1.664.032-2.784.128-3.744a24.107,24.107,0,0,1-3.424.16H121.44a25.186,25.186,0,0,0,2.176-3.616H137.28a27.166,27.166,0,0,1,3.488.192v-2.3a26.476,26.476,0,0,1-3.488.192H124.512c.352-.8.512-1.28.8-2.048a17.108,17.108,0,0,1,.64-1.76l-2.336-.288a15.341,15.341,0,0,1-1.184,4.1H116a26.856,26.856,0,0,1-3.552-.192v2.3A27.889,27.889,0,0,1,116-20.672h5.536a24.751,24.751,0,0,1-3.616,5.216,28.864,28.864,0,0,1-6.3,5.44,4.7,4.7,0,0,1,1.408,1.632,34.277,34.277,0,0,0,5.856-5.376Zm15.52-8.64v3.488H120.9v-3.488Zm0-1.728H120.9v-3.392h13.5Zm18.4-.32-6.976-14.752h-2.048l6.976,14.752L143.776,2.592h2.048Zm3.84,0-6.976-14.752h-2.048L154.56-12.16,147.616,2.592h2.048Z" transform="translate(800 8848)" fill="#fff"/>
  </g>
</svg>
