<svg xmlns="http://www.w3.org/2000/svg" width="375" height="217.817" viewBox="0 0 375 217.817">
  <g id="Group_419" data-name="Group 419" transform="translate(7918 11917.932)">
    <path id="Path_122" data-name="Path 122" d="M300,0H675V156.741L300,189Z" transform="translate(-8218 -11889.114)" fill="#ffbe00"/>
    <g id="Point" transform="translate(-7760 -11917.932)">
      <g id="Ellipse_10" data-name="Ellipse 10" fill="#ffbe00" stroke="#3c505a" stroke-width="1">
        <circle cx="29.753" cy="29.753" r="29.753" stroke="none"/>
        <circle cx="29.753" cy="29.753" r="29.253" fill="none"/>
      </g>
      <path id="Path_267" data-name="Path 267" d="M-1.05.105a.827.827,0,0,1-.42-.123A.372.372,0,0,1-1.68-.35a.315.315,0,0,1,.193-.28A1.285,1.285,0,0,1-1.05-.77a4.453,4.453,0,0,0,2.117-.683A1.642,1.642,0,0,0,1.645-2.8V-6.055q0-.14-.21-.227A.924.924,0,0,0,1.12-6.37q-1.96,0-3.955.105-1.54.07-4.55.14a.315.315,0,0,1-.245-.122.363.363,0,0,1-.105-.227A.143.143,0,0,1-7.7-6.58l.805-.98a7.267,7.267,0,0,0,.56-.665L2.905-21.49q.665-.98,1.05-.98H4.69q.07,0,.07.1a.581.581,0,0,1-.053.227.567.567,0,0,1-.087.158L-4.83-8.4a.539.539,0,0,0-.088.21q-.018.105.088.105H1.225a.525.525,0,0,0,.28-.088q.14-.088.14-.193V-13.79a1.734,1.734,0,0,1,.053-.525.494.494,0,0,1,.262-.245,3.479,3.479,0,0,1,1.015-.35,5.276,5.276,0,0,1,.945-.1q.35,0,.437.472a11.594,11.594,0,0,1,.087,1.767V-8.26q0,.21.175.21.525.035,1.4.035.525,0,2.065-.07A.443.443,0,0,1,8.347-8a.242.242,0,0,1,.123.193,1.648,1.648,0,0,1-.3.858q-.3.473-.438.473L6.02-6.51a8.749,8.749,0,0,0-1.085.07,1.368,1.368,0,0,0-.28.105.81.81,0,0,0-.175.105v3.29a1.81,1.81,0,0,0,.438,1.4,5.232,5.232,0,0,0,1.908.77,1.382,1.382,0,0,1,.437.21.375.375,0,0,1,.193.28A.34.34,0,0,1,7.3-.018.581.581,0,0,1,6.93.105,17.612,17.612,0,0,1,4.76,0Q3.71-.07,2.975-.07q-.84,0-1.96.07A17.053,17.053,0,0,1-1.05.105Z" transform="translate(28.958 42.485)" fill="#3c505a"/>
      <g id="Layer_2" data-name="Layer 2" transform="translate(9.31 4.117)">
        <g id="Group_292" data-name="Group 292" transform="translate(0 0)">
          <path id="Path_153" data-name="Path 153" d="M6.949,17.292c1.1,1.052,1.258,1.161,1.971.556l.3-.254c.115-.012.272.175.242.272-.593.581-.931.913-1.33,1.336-.423.441-.768.828-1.191,1.312-.091.03-.278-.109-.284-.23l.181-.248c.5-.689.393-.828-.714-1.881L2.25,14.462c-.9-.853-1.095-1-1.6-.575l-.405.339a.243.243,0,0,1-.242-.272,22.368,22.368,0,0,1,1.9-2.159,5.2,5.2,0,0,1,2.34-1.615,2.506,2.506,0,0,1,2.377.659,2.468,2.468,0,0,1,.671,2.643,4.922,4.922,0,0,1-1.064,1.754c-.1.042-.26-.109-.218-.187a2.256,2.256,0,0,0-.3-3.229,2.14,2.14,0,0,0-3.3.091c-.532.556-.5.6-.163.925L6.943,17.3Z" transform="translate(-0.001 -3.988)" fill="#3c505a"/>
          <path id="Path_154" data-name="Path 154" d="M24.424,9.129a2.965,2.965,0,0,1-1.772,4,2.866,2.866,0,0,1-3.834-1.754,3.055,3.055,0,0,1,1.8-4.022A2.905,2.905,0,0,1,24.43,9.129ZM20.6,7.816c-.9.339-1.24,1.439-.683,2.939.466,1.24,1.518,2.358,2.715,1.911s1.095-1.838.7-2.885C22.9,8.627,21.89,7.333,20.6,7.816Z" transform="translate(-7.353 -2.821)" fill="#3c505a"/>
          <path id="Path_155" data-name="Path 155" d="M34.074,4.876c.012-.568.012-.641-.375-.907l-.127-.091c-.054-.06-.054-.218.018-.26A10.374,10.374,0,0,0,35.1,2.941a.137.137,0,0,1,.145.091c-.042.508-.085,1.2-.1,1.8L35.1,7.44c-.024,1.046,0,1.191.526,1.276l.3.048a.252.252,0,0,1-.036.363c-.435-.036-.859-.06-1.361-.073-.52-.012-.955,0-1.367.012a.252.252,0,0,1-.024-.363l.308-.036c.538-.06.556-.206.581-1.252l.054-2.54ZM35.368.764a.712.712,0,0,1-.786.738.72.72,0,0,1-.726-.744.757.757,0,0,1,.8-.768.722.722,0,0,1,.708.768Z" transform="translate(-13.072 0.01)" fill="#3c505a"/>
          <path id="Path_156" data-name="Path 156" d="M43.232,8.459c.23-.52.26-.587,0-.98l-.085-.133a.2.2,0,0,1,.121-.236,8.021,8.021,0,0,0,1.615-.06.161.161,0,0,1,.1.157c-.163.3-.248.49-.3.611a.154.154,0,0,0,.079.212,4.033,4.033,0,0,1,2.159.145,1.612,1.612,0,0,1,.822,2.334l-1.01,2.28c-.423.955-.454,1.1-.006,1.379l.272.169a.25.25,0,0,1-.175.321c-.387-.206-.768-.387-1.228-.593-.478-.212-.883-.375-1.252-.508a.259.259,0,0,1,.121-.345l.272.073c.526.139.593.024,1.016-.931l.877-1.978a1.257,1.257,0,0,0-.665-1.863,1.591,1.591,0,0,0-1.336-.036,1.216,1.216,0,0,0-.55.708l-.9,2.032c-.423.955-.448,1.089-.006,1.379l.224.145a.254.254,0,0,1-.175.321c-.345-.187-.726-.369-1.191-.575s-.883-.375-1.264-.514a.259.259,0,0,1,.121-.345l.3.085c.52.151.593.024,1.016-.931l1.028-2.322Z" transform="translate(-16.104 -2.78)" fill="#3c505a"/>
          <path id="Path_157" data-name="Path 157" d="M58.571,17.408c-.169-.181-.206-.163-.435.042l-2,1.832c-.623.568-1.119,1.161-.472,1.869a1.093,1.093,0,0,0,.321.242c.121.067.363.1.393.133.079.085,0,.236-.085.272a2,2,0,0,1-1.518-.677,1.329,1.329,0,0,1,.139-2.171l2.455-2.244c.29-.266.3-.3.1-.508l-.272-.3a.234.234,0,0,1,.194-.236,2.8,2.8,0,0,0,.962.381,3.418,3.418,0,0,0,1.04-.127c.073.036.187.163.151.272l-.484.441c-.194.175-.194.2-.024.381L60.125,18.2a.465.465,0,0,1-.441.423l-1.107-1.209Z" transform="translate(-21.452 -6.184)" fill="#3c505a"/>
        </g>
      </g>
    </g>
    <path id="Path_266" data-name="Path 266" d="M-104.376-12.984V-15.1l.024-1.728a11.576,11.576,0,0,1,.12-2.04h-2.016a11.555,11.555,0,0,1,.12,2.04V-15.1c0,.744,0,1.224-.024,2.112h-6.7a14.8,14.8,0,0,1-2.808-.168v1.872a22.092,22.092,0,0,1,2.784-.12h6.648c-.192,2.856-.456,4.08-1.224,5.52A11.087,11.087,0,0,1-113.4-.936,5.243,5.243,0,0,1-112.176.6a13.825,13.825,0,0,0,5.952-5.016c1.152-1.824,1.584-3.624,1.776-6.984h5.424a22.092,22.092,0,0,1,2.784.12v-1.872a14.649,14.649,0,0,1-2.808.168Zm25.224-5.376a22.654,22.654,0,0,1-2.52,6.144A23.018,23.018,0,0,1-93.5-1.872,5.672,5.672,0,0,1-92.28-.192,27.787,27.787,0,0,0-83.232-6.84,30.212,30.212,0,0,0-77.76-16.3a9.97,9.97,0,0,1,.6-1.392Zm19.488,9.768a38.312,38.312,0,0,0,7.56-5.256c1.128-1.032,1.128-1.032,1.464-1.32l-1.392-1.272A16.911,16.911,0,0,1-55.464-13.1a32.6,32.6,0,0,1-4.2,2.76v-6.792a18.727,18.727,0,0,1,.144-2.592h-1.872a22.741,22.741,0,0,1,.144,2.592V-1.224c0,1.872.624,2.16,4.632,2.16,3.6,0,4.776-.216,5.376-1.008.5-.7.84-2.064,1.128-4.7A5.477,5.477,0,0,1-51.7-5.52c-.192,2.592-.432,3.864-.816,4.392-.36.432-1.272.576-4.008.576-2.784,0-3.144-.12-3.144-.96ZM-67.752-1.2a28.472,28.472,0,0,1-.168,2.976h1.872c-.1-.984-.144-1.968-.144-2.9V-13.7c.888-1.992,1.7-3.912,1.92-4.464.408-1.1.408-1.1.5-1.344l-1.776-.5a10.679,10.679,0,0,1-.816,2.88,22.462,22.462,0,0,1-5.424,8.088,8.722,8.722,0,0,1,1.032,1.392A19.323,19.323,0,0,0-67.7-11.688c-.048,1.272-.048,1.584-.048,2.928ZM-43.2-18.528a14.115,14.115,0,0,1,.1,2.016V-10.1a14.551,14.551,0,0,1-.1,2.016h1.992a12.71,12.71,0,0,1-.1-1.992v-6.456a13.112,13.112,0,0,1,.1-1.992Zm10.608,0a13.345,13.345,0,0,1,.1,2.112V-13.7a29.841,29.841,0,0,1-.336,6.12,7.16,7.16,0,0,1-3.84,5.064,13.974,13.974,0,0,1-4.56,1.632A4.589,4.589,0,0,1-40.224.768,18.9,18.9,0,0,0-35.856-.96,9.12,9.12,0,0,0-31.3-6.288c.432-1.392.6-3.5.6-7.32V-16.44a10.713,10.713,0,0,1,.12-2.088Zm18.72,3.576h-5.856a17.291,17.291,0,0,1-2.784-.144v1.824a21.677,21.677,0,0,1,2.76-.12h5.88V-1.416a13.239,13.239,0,0,1-.144,2.52h1.968a16.132,16.132,0,0,1-.12-2.544V-13.392h6.1a21.677,21.677,0,0,1,2.76.12V-15.1a17.444,17.444,0,0,1-2.808.144h-6.048v-1.56a14.884,14.884,0,0,1,.12-2.5h-1.968a12.39,12.39,0,0,1,.144,2.448Zm-5.184,3.768a17.918,17.918,0,0,1-2.088,6.072,11.483,11.483,0,0,1-2.28,3.1A5.321,5.321,0,0,1-21.84-.984a21.643,21.643,0,0,0,4.2-8.28c.312-1.152.312-1.152.408-1.416Zm10.248.48c.192.408.336.816.6,1.56a39.248,39.248,0,0,0,1.68,4.128,23.351,23.351,0,0,0,2.5,4.128A5.652,5.652,0,0,1-2.52-2.016,20.443,20.443,0,0,1-6.24-8.448a16.2,16.2,0,0,1-.888-2.712Zm4.2-9.936A2.468,2.468,0,0,0-7.08-18.168,2.468,2.468,0,0,0-4.608-15.7,2.463,2.463,0,0,0-2.16-18.168,2.463,2.463,0,0,0-4.608-20.64Zm0,1.008a1.45,1.45,0,0,1,1.44,1.464A1.45,1.45,0,0,1-4.608-16.7a1.47,1.47,0,0,1-1.464-1.464A1.455,1.455,0,0,1-4.608-19.632Zm7.32,2.952A26.826,26.826,0,0,1,5.856-9.24l1.776-.744a28.994,28.994,0,0,0-3.216-7.368Zm14.64-.792a11.364,11.364,0,0,1-.288,1.992C16.032-10.9,14.4-7.488,11.9-4.848A17.725,17.725,0,0,1,5.592-.5,4.072,4.072,0,0,1,6.864.96,21.007,21.007,0,0,0,13.272-3.7a23.8,23.8,0,0,0,5.472-10.968,12.48,12.48,0,0,1,.624-2.28Zm7.9,9.24a26.218,26.218,0,0,1,2.976-.1h13.92a27.455,27.455,0,0,1,2.928.1v-1.944a18.929,18.929,0,0,1-2.9.12H28.224a16.977,16.977,0,0,1-2.976-.144ZM56.04-19.08a45.54,45.54,0,0,1-1.9,6.912,91.532,91.532,0,0,1-3.624,9.5c-.552.048-1.872.12-2.04.12-.12,0-.12,0-.672-.024l.24,1.992a16.689,16.689,0,0,1,2.04-.264,148.255,148.255,0,0,0,14.76-1.992A32.576,32.576,0,0,1,66.264.408L67.944-.5a62.167,62.167,0,0,0-5.976-10.848l-1.488.816a46.687,46.687,0,0,1,3.7,6.216c-2.832.552-8.472,1.3-11.664,1.512A130.029,130.029,0,0,0,57.5-16.848a9.489,9.489,0,0,1,.648-1.728Zm20.832,3.648c.1-3.912.1-3.912.216-4.536H75.264a10.985,10.985,0,0,1,.168,2.616c0,.744,0,1.248-.048,1.92H73.992a14.222,14.222,0,0,1-2.64-.168v1.776a14.3,14.3,0,0,1,2.52-.168h1.44A26.338,26.338,0,0,1,73.2-4.008,14.754,14.754,0,0,1,70.512-.024,5.453,5.453,0,0,1,71.736,1.32,18.5,18.5,0,0,0,74.16-2.352a19.808,19.808,0,0,0,1.752-4.824,37.575,37.575,0,0,0,.912-6.816h3.5c-.024,2.568-.072,3.912-.192,6.192a33.5,33.5,0,0,1-.912,6.456c-.168.408-.48.576-1.128.576a14.51,14.51,0,0,1-2.808-.384,6.035,6.035,0,0,1,.24,1.584A21.49,21.49,0,0,0,78.456.7c1.656,0,2.16-.552,2.592-2.952A73.541,73.541,0,0,0,81.84-12.48a18.928,18.928,0,0,1,.12-3.048,23.4,23.4,0,0,1-2.5.1ZM85.536-.984H90.5V.744H92.16a17.169,17.169,0,0,1-.144-2.352V-14.52a18.159,18.159,0,0,1,.12-2.52,13.8,13.8,0,0,1-2.088.12H86.016a13.743,13.743,0,0,1-2.112-.12,18.585,18.585,0,0,1,.12,2.52V-1.8A22.152,22.152,0,0,1,83.88.936h1.656Zm0-14.544H90.5V-2.376H85.536Zm19.392-.312v13.7H98.16A18.048,18.048,0,0,1,95.328-2.3V-.432A18.531,18.531,0,0,1,98.136-.6H113.9a17.914,17.914,0,0,1,2.808.168V-2.3a17.914,17.914,0,0,1-2.808.168h-7.248v-13.7h5.784a23.132,23.132,0,0,1,2.76.144V-17.52a21.4,21.4,0,0,1-2.784.144H99.648a20.891,20.891,0,0,1-2.784-.144V-15.7a22.85,22.85,0,0,1,2.76-.144Z" transform="translate(-7730 -11760.379)" fill="#3c505a"/>
    <path id="Path_265" data-name="Path 265" d="M-72.528-9.6v2.848h-4.784a11.093,11.093,0,0,1-1.648-.1v1.136a11.866,11.866,0,0,1,1.648-.1h2.928a11.972,11.972,0,0,1-.128,1.52,4.941,4.941,0,0,1-1.36,2.768A7.763,7.763,0,0,1-79.232.32a5.536,5.536,0,0,0,.352.5,3.052,3.052,0,0,1,.3.512,11.914,11.914,0,0,0,1.968-.96,6.138,6.138,0,0,0,2.64-2.8,7.852,7.852,0,0,0,.656-3.376h2.4v5.68c0,.88.48,1.1,2.4,1.1,2.08,0,2.656-.16,3.024-.864a6.954,6.954,0,0,0,.48-2.528,3.834,3.834,0,0,1-1.04-.432,5.706,5.706,0,0,1-.3,2.384C-66.56-.1-66.976,0-68.336,0c-1.328,0-1.536-.064-1.536-.48V-5.808h3.36a11.618,11.618,0,0,1,1.632.1V-6.848a10.854,10.854,0,0,1-1.632.1h-4.976V-9.6h3.824a10.187,10.187,0,0,1,1.536.1V-10.64a9.755,9.755,0,0,1-1.536.1h-3.824v-1.264a9.272,9.272,0,0,1,.1-1.408h-1.232a9.578,9.578,0,0,1,.1,1.408v1.264h-2.928c.224-.48.336-.768.56-1.36.112-.3.192-.512.3-.768l-1.136-.3a7.955,7.955,0,0,1-.752,2.256,8.946,8.946,0,0,1-2.064,2.7,3.1,3.1,0,0,1,.848.7A12.934,12.934,0,0,0-75.952-9.6Zm11.472-.928h-.96a5.909,5.909,0,0,1-1.072-.064v1.008a7.554,7.554,0,0,1,1.12-.064h2.688a6.022,6.022,0,0,1,1.072.064v-1.008a5.82,5.82,0,0,1-1.056.064h-.816V-12a4.372,4.372,0,0,1,.1-1.184h-1.168a5.249,5.249,0,0,1,.1,1.184ZM-63.008-.32q.264-.1.576-.192c1.2-.336,2.784-.864,4.16-1.392v-.96c-.72.272-.96.368-1.472.544.448-1.888.608-2.736.848-4.16.256-1.7.3-1.968.352-2.208L-59.6-8.944a13.174,13.174,0,0,1-.112,1.536A42.625,42.625,0,0,1-60.7-2.016a14.524,14.524,0,0,1-2.608.608Zm8.928-9.872h-2.3v-1.3a6.624,6.624,0,0,1,.064-1.136h-1.12a8.931,8.931,0,0,1,.08,1.168v1.216c0,.288-.016.576-.032.912a11.364,11.364,0,0,1,1.168-.032h5.456c.24,0,.576,0,.7.016a3.012,3.012,0,0,1,.5.016,7.5,7.5,0,0,1-.048-.944V-11.5a5.17,5.17,0,0,1,.08-1.12h-1.12a7.1,7.1,0,0,1,.064,1.088v1.344H-53.1v-1.936a5.547,5.547,0,0,1,.1-1.184h-1.168a5.864,5.864,0,0,1,.1,1.184Zm-.032,3.1a12.4,12.4,0,0,1-.816,1.7h-1.136c-.56,0-1.008-.016-1.648-.064.032.368.048.928.048,1.536V-.544a11.476,11.476,0,0,1-.08,1.744h1.12A10.725,10.725,0,0,1-56.7-.528V-4.56h1.488V-.9A9.7,9.7,0,0,1-55.3.64h1.088a8.994,8.994,0,0,1-.08-1.52V-4.56h1.5V-.9A9.819,9.819,0,0,1-52.864.64h1.072a13.118,13.118,0,0,1-.064-1.52V-4.56h1.616V-.192c0,.272-.064.336-.3.336a6.943,6.943,0,0,1-1.04-.1,3.78,3.78,0,0,1,.24.976c.336.016.688.032.88.032.9,0,1.184-.256,1.184-1.024v-3.92a12.949,12.949,0,0,1,.064-1.584,11.917,11.917,0,0,1-1.632.08H-53.92c.4-.736.528-.992.848-1.7h2.608a14.353,14.353,0,0,1,1.648.064v-1.04a9.838,9.838,0,0,1-1.648.1h-6.1a9.371,9.371,0,0,1-1.616-.08v1.024a13.555,13.555,0,0,1,1.616-.064Zm-8.576-1.536a35.2,35.2,0,0,1,.736,5.664l.944-.24a36.1,36.1,0,0,0-.768-5.616Zm23.552-1.984a4.6,4.6,0,0,1,1.856.4,4.218,4.218,0,0,1,2.544,4.016,4.83,4.83,0,0,1-2.832,4.48A9.591,9.591,0,0,1-40.24-.96,2.542,2.542,0,0,1-39.68.112a12.378,12.378,0,0,0,2.432-.736,5.826,5.826,0,0,0,3.664-5.52,5.356,5.356,0,0,0-1.552-3.9,6.194,6.194,0,0,0-4.4-1.584A6.683,6.683,0,0,0-44.7-9.5a6.656,6.656,0,0,0-1.68,4.416c0,2.24,1.136,3.9,2.656,3.9,1.152,0,2.1-.96,3.024-3.072A23.984,23.984,0,0,0-39.136-10.608Zm-1.152.016a21.976,21.976,0,0,1-1.456,5.92c-.688,1.568-1.328,2.32-2,2.32-.864,0-1.536-1.184-1.536-2.72A5.533,5.533,0,0,1-42.672-9.84,5.053,5.053,0,0,1-40.288-10.592Zm21.024-.16h-5.28a13.731,13.731,0,0,1-1.552-.064v.96a12.2,12.2,0,0,1,1.552-.064h5.28v1.184h-5.664a10.773,10.773,0,0,1-1.584-.08v.992a11.041,11.041,0,0,1,1.584-.08H-19.6c.72,0,.96,0,1.36.032-.032-.352-.048-.656-.048-1.136v-2.608c0-.48.016-.8.048-1.184a11.129,11.129,0,0,1-1.392.064h-5.152a13.23,13.23,0,0,1-1.68-.1v1.04a11.5,11.5,0,0,1,1.632-.08h5.568Zm.064,5.84a10.577,10.577,0,0,1-1.424.064H-24.88a10.224,10.224,0,0,1-1.3-.08v.976c.288-.032.5-.048.96-.064a8.057,8.057,0,0,0,2.24,2.576A14.758,14.758,0,0,1-27.9.16a3.041,3.041,0,0,1,.544.944A16.321,16.321,0,0,0-22.176-.864a18.077,18.077,0,0,0,4.832,2A3.313,3.313,0,0,1-16.8.16a17.617,17.617,0,0,1-4.544-1.584A10.13,10.13,0,0,0-19.072-3.68c.24-.336.24-.336.464-.64Zm-.784.9a7.612,7.612,0,0,1-2.16,2.064,6.6,6.6,0,0,1-2-2.064Zm-10.3-8.352a12.224,12.224,0,0,1,2.512,2.128l.672-.768a14.882,14.882,0,0,0-2.528-2.08ZM-31.12-8.48a10.679,10.679,0,0,1,2.672,2.016l.592-.864a14.962,14.962,0,0,0-2.688-1.92Zm2.4,3.936a12.987,12.987,0,0,1-2.5,4.656l.88.848c.064-.1.064-.1.16-.256a1.136,1.136,0,0,0,.144-.256c.1-.144.1-.144.256-.4a20.371,20.371,0,0,0,1.824-3.9Zm1.28-.752a5.913,5.913,0,0,1-.064.96H-26.5v-1.68h8.384v1.808h1.04a5.51,5.51,0,0,1-.064-.976v-.784a8.047,8.047,0,0,1,.048-.944c-.416.032-.7.048-1.552.048h-7.344c-.624,0-1.1-.016-1.5-.048a7.321,7.321,0,0,1,.048.944ZM-4.88-5.9a11.87,11.87,0,0,1-.7,1.952c.528-.032.736-.032,1.3-.032h1.424a8.022,8.022,0,0,1-.16,1.264c-.112.544-.24.64-.944.64a12.432,12.432,0,0,1-2.08-.176,4.667,4.667,0,0,1,.224.96c.752.064,1.344.1,1.888.1,1.024,0,1.44-.176,1.664-.72a7.967,7.967,0,0,0,.384-2.128c.048-.448.064-.56.1-.768a8.623,8.623,0,0,1-1.136.048H-4.3c.144-.4.256-.72.368-1.088.192-.624.192-.624.272-.9A9.25,9.25,0,0,1-4.832-6.7H-9.008A6.346,6.346,0,0,1-10.1-6.768v.928A5.285,5.285,0,0,1-9.12-5.9h1.136a5.031,5.031,0,0,1-.448,1.568,4.807,4.807,0,0,1-2.592,2.352,2.8,2.8,0,0,1,.7.784A6.022,6.022,0,0,0-7.6-3.84,7.054,7.054,0,0,0-7.008-5.9Zm-1.888-5.9v1.28h-3.12a6.368,6.368,0,0,1-1.152-.064v.944a6.256,6.256,0,0,1,1.072-.064h2.416A9.309,9.309,0,0,1-8.56-8.9a10.11,10.11,0,0,1-2.976,1.44,2.459,2.459,0,0,1,.528.864,11.486,11.486,0,0,0,2.288-1.2A10.154,10.154,0,0,0-6.7-9.536a8.28,8.28,0,0,0-.064,1.008v.592a5.56,5.56,0,0,1-.048.784h1.024a4.826,4.826,0,0,1-.048-.784v-.592c0-.272-.016-.512-.064-1.024A9.244,9.244,0,0,0-3.568-7.568,11.4,11.4,0,0,0-.976-6.416a3.75,3.75,0,0,1,.5-.928A10.5,10.5,0,0,1-3.744-8.7,8.118,8.118,0,0,1-5.1-9.712h2.9a8.563,8.563,0,0,1,1.248.08v-.976a8.088,8.088,0,0,1-1.248.08H-5.84v-1.36c1.36-.144,2.288-.272,4.08-.592l-.752-.912a1.794,1.794,0,0,1-.48.176c-.288.1-1.92.352-2.736.448a39.574,39.574,0,0,1-5.216.336,2.514,2.514,0,0,1,.368.864c1.168-.032,1.392-.048,2.64-.144Zm-8.176-.544a15.543,15.543,0,0,1,2.48,2.88l.816-.72a19.787,19.787,0,0,0-2.56-2.8Zm-.128,6.4a6.451,6.451,0,0,1,1.184-.08h1.056v3.856A10.8,10.8,0,0,1-15.424-.24L-14.9.816c.336-.3.384-.336.624-.528A16.384,16.384,0,0,0-12.384-1.36,3.771,3.771,0,0,0-10.72.144C-9.76.592-8.9.7-6.224.7c2,0,3.84-.032,5.472-.112A4.078,4.078,0,0,1-.384-.576a44.25,44.25,0,0,1-6.208.32c-2.56,0-3.44-.16-4.336-.768a2.375,2.375,0,0,1-.912-1.184V-5.376a11.093,11.093,0,0,1,.08-1.632,7.127,7.127,0,0,1-1.232.08h-.832a6.465,6.465,0,0,1-1.248-.08ZM9.6-7.312H7.584a9.2,9.2,0,0,1-1.424-.1v1.056c.384-.048.576-.064.96-.08A7.9,7.9,0,0,0,7.856-4.7a10.427,10.427,0,0,0,1.68,2.336,12.728,12.728,0,0,1-4.72,2.5,3.257,3.257,0,0,1,.592.96A14.768,14.768,0,0,0,10.224-1.68a15.136,15.136,0,0,0,4.528,2.848A4.288,4.288,0,0,1,15.376.144a12.212,12.212,0,0,1-4.416-2.48,13.982,13.982,0,0,0,2.7-3.536,8.01,8.01,0,0,1,.5-.9l-.544-.608a6.089,6.089,0,0,1-1.1.064H10.576V-9.92H13.3a11.8,11.8,0,0,1,1.664.1v-1.1a11.955,11.955,0,0,1-1.664.1h-2.72v-.8a9.594,9.594,0,0,1,.112-1.616h-1.2A10.117,10.117,0,0,1,9.6-11.632v.8H7.68A13.276,13.276,0,0,1,6-10.912V-9.84a13.957,13.957,0,0,1,1.7-.08H9.6Zm3.248.88a10.719,10.719,0,0,1-2.592,3.44,8.647,8.647,0,0,1-2.144-3.44Zm-9.68-2.8v3.6a9.691,9.691,0,0,1-2.224.768l.32,1.088c.24-.128.4-.192.64-.3.464-.192.832-.336,1.264-.528V-.32c0,.368-.128.464-.624.464A10.372,10.372,0,0,1,1.072.016a2.9,2.9,0,0,1,.24,1.008c.4.032.816.048,1.2.048,1.328,0,1.664-.224,1.664-1.136V-5.072c.576-.272.576-.272,1.552-.752l-.016-.992c-.72.368-.976.5-1.536.752V-9.232h.336a9.8,9.8,0,0,1,1.216.064v-1.04a6.776,6.776,0,0,1-1.184.08H4.176V-11.68a9.52,9.52,0,0,1,.112-1.6H3.056a10.253,10.253,0,0,1,.112,1.616v1.536H2.3a7.725,7.725,0,0,1-1.312-.1v1.088a8.407,8.407,0,0,1,1.312-.1ZM24.352-10v-1.648a10.175,10.175,0,0,1,.1-1.5H23.3a10.645,10.645,0,0,1,.1,1.5V-10H22.368a7.886,7.886,0,0,1-1.392-.08v1.056a6.774,6.774,0,0,1,1.248-.08h1.168V-.752a14.953,14.953,0,0,1-.1,1.792h1.152a14.217,14.217,0,0,1-.1-1.792V-9.1h1.04a6.774,6.774,0,0,1,1.248.08V-10.08a7.906,7.906,0,0,1-1.376.08Zm4.336,2V-.416c0,.288-.112.352-.528.352A9.856,9.856,0,0,1,26.24-.24,3.861,3.861,0,0,1,26.448.8C26.816.832,27.5.864,27.9.864A3.867,3.867,0,0,0,29.248.688c.3-.128.448-.5.448-1.088V-8h.352a7.134,7.134,0,0,1,1.3.08V-8.992a7.027,7.027,0,0,1-1.3.08H27.872a6.1,6.1,0,0,1-1.216-.08V-7.92A6.3,6.3,0,0,1,27.872-8Zm-9.072-5.328a8.982,8.982,0,0,1-2.944,3.2,2.337,2.337,0,0,1,.624.784,14.53,14.53,0,0,0,2.576-2.576c.48-.64.48-.64.688-.88Zm1.712,5.6A16.183,16.183,0,0,1,20.08-1.264a4.56,4.56,0,0,1,.864.512,20.686,20.686,0,0,0,1.312-6.88Zm3.824.192a28.106,28.106,0,0,1,1.2,5.968L27.3-1.9A35.694,35.694,0,0,0,26-7.792Zm-.416-4.96a9.078,9.078,0,0,1,1.328,2.032l.752-.5a12.048,12.048,0,0,0-1.344-1.952Zm6.32.24a8.007,8.007,0,0,1-1.2.08H28.272a8.007,8.007,0,0,1-1.2-.08v1.072a8.616,8.616,0,0,1,1.184-.08h1.6a8.336,8.336,0,0,1,1.2.08ZM18.4-.8a11.5,11.5,0,0,1-.1,1.888h1.168a11.165,11.165,0,0,1-.1-1.872V-7.328c.24-.32.64-.912.816-1.2.176-.32.368-.608.528-.864l-.928-.592a6.518,6.518,0,0,1-.7,1.424,10.353,10.353,0,0,1-2.576,2.784,3.344,3.344,0,0,1,.56.9,8.41,8.41,0,0,0,1.376-1.456c-.032.752-.048,1.232-.048,1.872Zm19.152-9.968a22.388,22.388,0,0,1-3.424-.176l-.016,1.1a2.837,2.837,0,0,1,.352-.016h.256c.592.016,2.1.048,2.352.048a1.772,1.772,0,0,0,.3-.032l-.144.24a15.921,15.921,0,0,1-3.584,4.576l.9.9a5.294,5.294,0,0,1,1.232-1.328,6.01,6.01,0,0,1,3.568-1.7c.752,0,1.136.384,1.264,1.264a12.421,12.421,0,0,0-2.384,1.28A3.308,3.308,0,0,0,36.592-2.08c0,1.648,1.392,2.464,4.256,2.464a24.822,24.822,0,0,0,3.888-.32,6.3,6.3,0,0,1,.64-.08l-.144-1.232a13.406,13.406,0,0,1-4.272.624c-2.256,0-3.248-.464-3.248-1.52,0-.96.832-1.712,3.008-2.736a4.2,4.2,0,0,1,.016.48,23.01,23.01,0,0,1-.1,2.3l1.088-.016a3.478,3.478,0,0,1-.032-.576c0-.144,0-.368.016-.72.016-.32.016-.672.016-.88,0-.4,0-.56-.032-.976a26.565,26.565,0,0,1,4.272-1.408l-.512-1.12a3.52,3.52,0,0,1-1.088.464c-.7.256-1.616.592-2.784,1.056a1.942,1.942,0,0,0-2.112-1.776,4.258,4.258,0,0,0-2.416.784c-.16.112-.16.112-.736.56a.123.123,0,0,1-.032-.048v-.016a.016.016,0,0,0,.016-.016c.016-.016.1-.08.208-.16.064-.048.384-.416.544-.608A11.8,11.8,0,0,0,38.5-9.824a51.662,51.662,0,0,0,5.28-.416,4.988,4.988,0,0,1,.64-.08l-.1-1.088a22.519,22.519,0,0,1-5.04.608,2.724,2.724,0,0,0-.336.016c.08-.144.288-.576.5-1.088a3.4,3.4,0,0,1,.416-.864l-1.28-.224a6.79,6.79,0,0,1-.768,2.192Zm17.024-1.2a10.214,10.214,0,0,1-1.616-.08v.928a15.462,15.462,0,0,1,1.648-.064h2.608a6.993,6.993,0,0,1-.48.912H55.68a13.73,13.73,0,0,1-1.7-.064,9.813,9.813,0,0,1,.064,1.36v2.56A11.9,11.9,0,0,1,54-5.1c.5-.032.976-.048,1.584-.048H60.4c.56,0,.928.016,1.28.048a10.577,10.577,0,0,1-.064-1.424V-8.944a10.967,10.967,0,0,1,.064-1.392,11.562,11.562,0,0,1-1.552.064H57.76c.144-.272.288-.544.464-.912H61.3a13.813,13.813,0,0,1,1.584.064v-.928a9.518,9.518,0,0,1-1.584.08H59.712a15.19,15.19,0,0,0,.992-1.216l-.96-.3a10.326,10.326,0,0,1-1.1,1.52H56.72a9.174,9.174,0,0,0-.976-1.552l-.944.24a7.461,7.461,0,0,1,.944,1.312Zm.384,2.416h5.728v.768H54.96Zm0,1.44h5.728v.768H54.96Zm0,1.44h5.728v.8H54.96ZM59.152-2.64H50.768a11.185,11.185,0,0,1-1.664-.1V-1.7a11.8,11.8,0,0,1,1.664-.1h8.384V-.16c0,.336-.128.4-.7.4a17.2,17.2,0,0,1-1.84-.112,2.51,2.51,0,0,1,.32.976c.5.016.912.032,1.392.032,1.552,0,1.808-.16,1.808-1.12V-1.792H61.3a11.731,11.731,0,0,1,1.68.1v-1.04a11.185,11.185,0,0,1-1.664.1H60.128v-.928c1.088-.016,2.384-.032,2.96-.064a2.529,2.529,0,0,1,.368-.944,58.488,58.488,0,0,1-6.512.224,10.809,10.809,0,0,1-3.232-.256,2.233,2.233,0,0,1-1.328-1.136V-7.552a9.815,9.815,0,0,1,.064-1.44,8.274,8.274,0,0,1-1.216.064h-.9a6.465,6.465,0,0,1-1.248-.08v.944a7.156,7.156,0,0,1,1.184-.064h1.152v2.48a13.362,13.362,0,0,1-2.016,1.2c-.1.048-.16.064-.176.08a1.022,1.022,0,0,1-.3.128l.5.912c.256-.16.3-.192.4-.24a16.049,16.049,0,0,0,2.128-1.424c.912,1.232,1.76,1.44,5.824,1.44h1.376Zm-9.728-9.92A11.679,11.679,0,0,1,51.7-10.3l.7-.72a13.83,13.83,0,0,0-2.3-2.128ZM55.328.16a12.535,12.535,0,0,0-2.24-1.872l-.7.576a8.974,8.974,0,0,1,2.192,2ZM71.52-11.328a13.911,13.911,0,0,1-.512,3.488,12.946,12.946,0,0,1-2.464,4.656A13.421,13.421,0,0,1,64.832-.032,2.87,2.87,0,0,1,65.7.912,15.138,15.138,0,0,0,67.712-.656a15.2,15.2,0,0,0,2.16-2.432,13.783,13.783,0,0,0,2.24-5.184,12.607,12.607,0,0,0,1.008,2.96,14.719,14.719,0,0,0,2.288,3.456A15,15,0,0,0,78.512.88a3.531,3.531,0,0,1,.9-1.024,13.023,13.023,0,0,1-2.992-2.32,14.3,14.3,0,0,1-2.4-3.312,11.667,11.667,0,0,1-1.36-5.584,8.286,8.286,0,0,1,.064-1.056,7.616,7.616,0,0,1-1.488.1H69.12A6.006,6.006,0,0,1,67.9-12.4v1.152c.528-.048.912-.08,1.216-.08Z" transform="translate(-7730 -11798.868)" fill="#3c505a"/>
    <g id="Group_210" data-name="Group 210" transform="translate(-7846 -11848.561)">
      <g id="Group_174" data-name="Group 174" transform="translate(181.509)">
        <g id="Union_2" data-name="Union 2" transform="translate(-29)" fill="#3c505a">
          <path d="M 91.74729919433594 22.70289611816406 L 2.74549674987793 22.70289611816406 L 2.74549674987793 13.84740257263184 L 2.74549674987793 13.62744998931885 L 2.58335542678833 13.47882652282715 L 0.7399647831916809 11.78910350799561 L 2.58335542678833 10.09939098358154 L 2.74549674987793 9.950756072998047 L 2.74549674987793 9.730802536010742 L 2.74549674987793 0.500002920627594 L 91.74729919433594 0.500002920627594 L 91.74729919433594 22.70289611816406 Z" stroke="none"/>
          <path d="M 91.24729919433594 22.20289993286133 L 91.24729919433594 0.9999999403953552 L 3.245499610900879 0.9999999403953552 L 3.245499610900879 10.1707124710083 L 1.479918718338013 11.78909969329834 L 3.245499610900879 13.4074878692627 L 3.245499610900879 22.20289993286133 L 91.24729919433594 22.20289993286133 M 92.24729919433594 23.20289993286133 L 2.245499610900879 23.20289993286133 L 2.245499610900879 13.84739971160889 L -4.028320290672127e-07 11.78909969329834 L 2.245499610900879 9.730799674987793 L 2.245499610900879 -3.356933575560106e-08 L 92.24729919433594 -3.356933575560106e-08 L 92.24729919433594 23.20289993286133 Z" stroke="none" fill="#3c505a"/>
        </g>
        <path id="Path_264" data-name="Path 264" d="M-38.346-1.33a5.351,5.351,0,0,1-1.26-1.652c.084-.7.112-.994.154-1.778a3.558,3.558,0,0,1,.028-.434l-.91-.084a4.123,4.123,0,0,1,.042.616,11.211,11.211,0,0,1-.35,2.842A7.114,7.114,0,0,1-41.566.462a2.581,2.581,0,0,1,.742.5A10.845,10.845,0,0,0-39.76-2,4.92,4.92,0,0,0-37.842-.028c1.092.6,2.31.77,5.712.77,1.218,0,1.932-.014,3.374-.07a2.592,2.592,0,0,1,.308-.966,36.31,36.31,0,0,1-4.312.2c-2.842,0-3.822-.126-4.76-.644V-3.486h.9a6.424,6.424,0,0,1,1.148.084v-.9a6.728,6.728,0,0,1-1.134.07h-.91v-2h.826a6.548,6.548,0,0,1,1.316.084v-.938A7.281,7.281,0,0,1-36.68-7h-.9V-8.876h.756a7.88,7.88,0,0,1,1.246.07v-.9a6.5,6.5,0,0,1-1.246.07h-.756v-.574a6.615,6.615,0,0,1,.1-1.372H-38.5a6.758,6.758,0,0,1,.084,1.372v.574h-1.12a6.418,6.418,0,0,1-1.232-.07v.9a7.907,7.907,0,0,1,1.232-.07h1.12V-7h-1.3a7.986,7.986,0,0,1-1.372-.084v.938a8.021,8.021,0,0,1,1.358-.084h1.386Zm5.18-8.75c-.126,1.96-.588,2.716-2.212,3.584a2.086,2.086,0,0,1,.574.7,4.44,4.44,0,0,0,2.114-2.3,6.519,6.519,0,0,0,.378-1.988h2.184a11.259,11.259,0,0,1-.266,2.772c-.112.168-.266.224-.714.224a9.459,9.459,0,0,1-1.176-.1,2.319,2.319,0,0,1,.2.882c.392.014.574.028.812.028.9,0,1.218-.084,1.484-.406.308-.35.392-.854.49-2.8.07-1.2.07-1.2.1-1.442a9.583,9.583,0,0,1-1.33.07H-33.74a8.6,8.6,0,0,1-1.4-.084V-10a5.935,5.935,0,0,1,1.274-.084ZM-34.79-2.506a9.787,9.787,0,0,1-.056,1.316,10.569,10.569,0,0,1,1.484-.07H-30.8a11.293,11.293,0,0,1,1.5.07,9.939,9.939,0,0,1-.056-1.386V-4.1A9.717,9.717,0,0,1-29.3-5.46a10.768,10.768,0,0,1-1.512.07h-2.632a9.177,9.177,0,0,1-1.4-.07,8.363,8.363,0,0,1,.056,1.246Zm.84-2.128h3.738v2.618H-33.95ZM-21-6.468A1.153,1.153,0,0,0-22.148-5.32,1.153,1.153,0,0,0-21-4.172,1.153,1.153,0,0,0-19.852-5.32,1.153,1.153,0,0,0-21-6.468Zm18.144-2.94h-4.62a12.015,12.015,0,0,1-1.358-.056v.84A10.67,10.67,0,0,1-7.476-8.68h4.62v1.036H-7.812A9.426,9.426,0,0,1-9.2-7.714v.868a9.661,9.661,0,0,1,1.386-.07H-3.15c.63,0,.84,0,1.19.028C-1.988-7.2-2-7.462-2-7.882v-2.282c0-.42.014-.7.042-1.036a9.738,9.738,0,0,1-1.218.056H-7.686a11.576,11.576,0,0,1-1.47-.084v.91a10.061,10.061,0,0,1,1.428-.07h4.872ZM-2.8-4.3a9.255,9.255,0,0,1-1.246.056H-7.77A8.946,8.946,0,0,1-8.9-4.312v.854c.252-.028.434-.042.84-.056A7.05,7.05,0,0,0-6.1-1.26,12.913,12.913,0,0,1-10.416.14,2.661,2.661,0,0,1-9.94.966,14.281,14.281,0,0,0-5.4-.756,15.818,15.818,0,0,0-1.176.994,2.9,2.9,0,0,1-.7.14,15.415,15.415,0,0,1-4.676-1.246,8.864,8.864,0,0,0-2.688-3.22c.21-.294.21-.294.406-.56Zm-.686.784a6.661,6.661,0,0,1-1.89,1.806,5.771,5.771,0,0,1-1.75-1.806ZM-12.5-10.822A10.7,10.7,0,0,1-10.3-8.96l.588-.672a13.022,13.022,0,0,0-2.212-1.82Zm-.728,3.4a9.344,9.344,0,0,1,2.338,1.764l.518-.756a13.092,13.092,0,0,0-2.352-1.68Zm2.1,3.444A11.364,11.364,0,0,1-13.314.1l.77.742c.056-.084.056-.084.14-.224a.994.994,0,0,0,.126-.224c.084-.126.084-.126.224-.35a17.825,17.825,0,0,0,1.6-3.416Zm1.12-.658a5.174,5.174,0,0,1-.056.84h.882v-1.47h7.336v1.582h.91a4.821,4.821,0,0,1-.056-.854v-.686a7.041,7.041,0,0,1,.042-.826c-.364.028-.616.042-1.358.042H-8.736c-.546,0-.966-.014-1.316-.042a6.405,6.405,0,0,1,.042.826ZM9.73-5.166a10.386,10.386,0,0,1-.616,1.708c.462-.028.644-.028,1.134-.028h1.246a7.02,7.02,0,0,1-.14,1.106c-.1.476-.21.56-.826.56a10.878,10.878,0,0,1-1.82-.154,4.083,4.083,0,0,1,.2.84c.658.056,1.176.084,1.652.084.9,0,1.26-.154,1.456-.63a6.971,6.971,0,0,0,.336-1.862c.042-.392.056-.49.084-.672a7.545,7.545,0,0,1-.994.042h-1.2c.126-.35.224-.63.322-.952.168-.546.168-.546.238-.784a8.094,8.094,0,0,1-1.022.042H6.118a5.553,5.553,0,0,1-.952-.056v.812a4.624,4.624,0,0,1,.854-.056h.994a4.4,4.4,0,0,1-.392,1.372A4.206,4.206,0,0,1,4.354-1.736a2.448,2.448,0,0,1,.616.686A5.27,5.27,0,0,0,7.35-3.36a6.172,6.172,0,0,0,.518-1.806ZM8.078-10.332v1.12H5.348A5.572,5.572,0,0,1,4.34-9.268v.826A5.474,5.474,0,0,1,5.278-8.5H7.392a8.145,8.145,0,0,1-.882.714,8.847,8.847,0,0,1-2.6,1.26,2.152,2.152,0,0,1,.462.756,10.05,10.05,0,0,0,2-1.05A8.885,8.885,0,0,0,8.134-8.344a7.245,7.245,0,0,0-.056.882v.518a4.865,4.865,0,0,1-.042.686h.9a4.223,4.223,0,0,1-.042-.686v-.518c0-.238-.014-.448-.056-.9a8.088,8.088,0,0,0,2.044,1.736,9.975,9.975,0,0,0,2.268,1.008,3.281,3.281,0,0,1,.434-.812,9.185,9.185,0,0,1-2.856-1.19A7.1,7.1,0,0,1,9.534-8.5h2.534a7.492,7.492,0,0,1,1.092.07v-.854a7.077,7.077,0,0,1-1.092.07H8.89V-10.4c1.19-.126,2-.238,3.57-.518l-.658-.8a1.57,1.57,0,0,1-.42.154c-.252.084-1.68.308-2.394.392a34.627,34.627,0,0,1-4.564.294,2.2,2.2,0,0,1,.322.756c1.022-.028,1.218-.042,2.31-.126ZM.924-10.808a13.6,13.6,0,0,1,2.17,2.52l.714-.63a17.313,17.313,0,0,0-2.24-2.45Zm-.112,5.6a5.644,5.644,0,0,1,1.036-.07h.924V-1.9A9.448,9.448,0,0,1,.5-.21L.966.714C1.26.448,1.3.42,1.512.252A14.336,14.336,0,0,0,3.164-1.19,3.3,3.3,0,0,0,4.62.126c.84.392,1.6.49,3.934.49,1.75,0,3.36-.028,4.788-.1A3.568,3.568,0,0,1,13.664-.5a38.719,38.719,0,0,1-5.432.28c-2.24,0-3.01-.14-3.794-.672a2.078,2.078,0,0,1-.8-1.036V-4.7a9.706,9.706,0,0,1,.07-1.428,6.236,6.236,0,0,1-1.078.07H1.9a5.656,5.656,0,0,1-1.092-.07ZM22.4-6.4H20.636a8.048,8.048,0,0,1-1.246-.084v.924c.336-.042.5-.056.84-.07a6.914,6.914,0,0,0,.644,1.512,9.124,9.124,0,0,0,1.47,2.044A11.137,11.137,0,0,1,18.214.112a2.85,2.85,0,0,1,.518.84A12.922,12.922,0,0,0,22.946-1.47a13.244,13.244,0,0,0,3.962,2.492,3.752,3.752,0,0,1,.546-.9,10.686,10.686,0,0,1-3.864-2.17,12.235,12.235,0,0,0,2.366-3.094,7.009,7.009,0,0,1,.434-.784l-.476-.532a5.328,5.328,0,0,1-.966.056H23.254V-8.68h2.38A10.322,10.322,0,0,1,27.09-8.6v-.966a10.461,10.461,0,0,1-1.456.084h-2.38v-.7a8.394,8.394,0,0,1,.1-1.414H22.3a8.852,8.852,0,0,1,.1,1.414v.7H20.72a11.617,11.617,0,0,1-1.47-.07v.938a12.212,12.212,0,0,1,1.484-.07H22.4Zm2.842.77a9.379,9.379,0,0,1-2.268,3.01A7.566,7.566,0,0,1,21.1-5.628Zm-8.47-2.45v3.15a8.479,8.479,0,0,1-1.946.672l.28.952c.21-.112.35-.168.56-.266.406-.168.728-.294,1.106-.462V-.28c0,.322-.112.406-.546.406A9.076,9.076,0,0,1,14.938.014a2.534,2.534,0,0,1,.21.882c.35.028.714.042,1.05.042,1.162,0,1.456-.2,1.456-.994V-4.438c.5-.238.5-.238,1.358-.658L19-5.964c-.63.322-.854.434-1.344.658V-8.078h.294a8.573,8.573,0,0,1,1.064.056v-.91a5.929,5.929,0,0,1-1.036.07h-.322V-10.22a8.33,8.33,0,0,1,.1-1.4H16.674a8.972,8.972,0,0,1,.1,1.414v1.344h-.756a6.76,6.76,0,0,1-1.148-.084v.952a7.356,7.356,0,0,1,1.148-.084ZM35.308-8.75v-1.442a8.9,8.9,0,0,1,.084-1.316H34.384a9.315,9.315,0,0,1,.084,1.316V-8.75h-.9a6.9,6.9,0,0,1-1.218-.07V-7.9a5.927,5.927,0,0,1,1.092-.07h1.022V-.658A13.083,13.083,0,0,1,34.384.91h1.008a12.44,12.44,0,0,1-.084-1.568V-7.966h.91a5.927,5.927,0,0,1,1.092.07V-8.82a6.917,6.917,0,0,1-1.2.07ZM39.1-7V-.364c0,.252-.1.308-.462.308A8.624,8.624,0,0,1,36.96-.21a3.379,3.379,0,0,1,.182.91c.322.028.924.056,1.274.056A3.384,3.384,0,0,0,39.592.6c.266-.112.392-.434.392-.952V-7h.308a6.242,6.242,0,0,1,1.134.07v-.938a6.149,6.149,0,0,1-1.134.07h-1.9a5.34,5.34,0,0,1-1.064-.07v.938A5.513,5.513,0,0,1,38.388-7Zm-7.938-4.662a7.859,7.859,0,0,1-2.576,2.8,2.044,2.044,0,0,1,.546.686,12.714,12.714,0,0,0,2.254-2.254c.42-.56.42-.56.6-.77Zm1.5,4.9A14.16,14.16,0,0,1,31.57-1.106a3.99,3.99,0,0,1,.756.448,18.1,18.1,0,0,0,1.148-6.02Zm3.346.168a24.593,24.593,0,0,1,1.05,5.222l.826-.294A31.232,31.232,0,0,0,36.75-6.818Zm-.364-4.34a7.943,7.943,0,0,1,1.162,1.778l.658-.434A10.542,10.542,0,0,0,36.288-11.3Zm5.53.21a7.006,7.006,0,0,1-1.05.07H38.738a7.006,7.006,0,0,1-1.05-.07v.938a7.539,7.539,0,0,1,1.036-.07h1.4a7.294,7.294,0,0,1,1.05.07ZM30.1-.7A10.061,10.061,0,0,1,30.016.952h1.022a9.769,9.769,0,0,1-.084-1.638V-6.412c.21-.28.56-.8.714-1.05.154-.28.322-.532.462-.756l-.812-.518A5.7,5.7,0,0,1,30.7-7.49a9.059,9.059,0,0,1-2.254,2.436,2.926,2.926,0,0,1,.49.784,7.358,7.358,0,0,0,1.2-1.274c-.028.658-.042,1.078-.042,1.638Z" transform="translate(16.614 16.62)" fill="ivory"/>
      </g>
      <g id="Group_173" data-name="Group 173">
        <path id="Path_263" data-name="Path 263" d="M-70.994-9.226a14.149,14.149,0,0,1-2.856.6V-9.968a8.007,8.007,0,0,1,.07-1.3h-1.036a9.3,9.3,0,0,1,.07,1.33v1.386c-.42.028-.966.042-1.344.042a7.929,7.929,0,0,1-1.428-.1v.924h.574c.154.014.532.014.742.014.406,0,.644,0,.9-.014.434-.028.434-.028.56-.042v2.646A7.489,7.489,0,0,0-76.72-3.934a2.534,2.534,0,0,0-1.106,1.862,1.688,1.688,0,0,0,.644,1.316,3.7,3.7,0,0,0,2.31.9c.686,0,1.022-.364,1.022-1.12v-3.5a9.446,9.446,0,0,1,2.968-.546c1.834,0,3,.854,3,2.226A1.858,1.858,0,0,1-69.762-.826c-1.022,0-1.442-.6-1.442-2.058a4.158,4.158,0,0,1,.028-.546,3.034,3.034,0,0,1-.924.364,5.109,5.109,0,0,0,.168,1.582A2.065,2.065,0,0,0-69.776.1,2.833,2.833,0,0,0-66.92-2.8a2.817,2.817,0,0,0-1.442-2.478,4.74,4.74,0,0,0-2.478-.588,9.918,9.918,0,0,0-3.01.5V-7.784a24.572,24.572,0,0,0,2.478-.42c.2-.042.252-.056.42-.084ZM-74.746-1.5c0,.6-.042.686-.322.686a2.615,2.615,0,0,1-1.246-.406c-.406-.266-.6-.546-.6-.84,0-.672.784-1.428,2.17-2.1Zm8.414-5.922a11.764,11.764,0,0,0-2.828-2.66l-.728.546A11.466,11.466,0,0,1-67.06-6.79Zm5.824,3.836V-.392c0,.35-.07.42-.434.42a6.233,6.233,0,0,1-1.218-.14,2.5,2.5,0,0,1,.182.9c.462.042.812.056,1.12.056.938,0,1.2-.252,1.2-1.134v-9.2a14.1,14.1,0,0,1,.056-1.6,7.344,7.344,0,0,1-1.19.07h-1.386a7.8,7.8,0,0,1-1.232-.07c.042.476.056.98.056,2.17a49.659,49.659,0,0,1-.21,6.44A6,6,0,0,1-64.512.294,2.568,2.568,0,0,1-63.8.98a9.243,9.243,0,0,0,1.19-4.564Zm0-4.144h-1.974V-10.22h1.974Zm0,.8v2.548h-2.058c.056-1.148.07-1.386.07-2.548Zm3.374-3.15H-54.8V-.154c0,.616.35.854,1.3.854.882,0,1.26-.112,1.484-.42s.35-1.2.42-3.052a3.315,3.315,0,0,1-.854-.378,13.435,13.435,0,0,1-.2,2.716c-.084.238-.28.336-.7.336-.448,0-.56-.07-.56-.308V-9.59a13.345,13.345,0,0,1,.056-1.4,7.564,7.564,0,0,1-1.246.07h-1.764a7.482,7.482,0,0,1-1.232-.07,5.962,5.962,0,0,1,.056.854v2.114a29.971,29.971,0,0,1-.5,6.062A6.113,6.113,0,0,1-59.528.35a3.454,3.454,0,0,1,.728.7,8.313,8.313,0,0,0,1.3-3.6,44.91,44.91,0,0,0,.364-6.174Zm13.678.8a4.029,4.029,0,0,1,1.624.35,3.691,3.691,0,0,1,2.226,3.514A4.226,4.226,0,0,1-42.084-1.5a8.392,8.392,0,0,1-2.338.658,2.225,2.225,0,0,1,.49.938A10.83,10.83,0,0,0-41.8-.546,5.1,5.1,0,0,0-38.6-5.376a4.686,4.686,0,0,0-1.358-3.416,5.42,5.42,0,0,0-3.85-1.386,5.848,5.848,0,0,0-4.522,1.862A5.824,5.824,0,0,0-49.8-4.452c0,1.96.994,3.416,2.324,3.416,1.008,0,1.834-.84,2.646-2.688A20.986,20.986,0,0,0-43.456-9.282Zm-1.008.014a19.229,19.229,0,0,1-1.274,5.18c-.6,1.372-1.162,2.03-1.75,2.03-.756,0-1.344-1.036-1.344-2.38A4.841,4.841,0,0,1-46.55-8.61,4.421,4.421,0,0,1-44.464-9.268Zm19,7.014a9.739,9.739,0,0,1,1.4.084v-.938a9.342,9.342,0,0,1-1.4.084h-4.522a6.025,6.025,0,0,0,.168-.714,1.42,1.42,0,0,0,.056-.252l-.98-.042v.112a2.929,2.929,0,0,1-.154.9h-4.088a9.472,9.472,0,0,1-1.4-.084v.938a10.3,10.3,0,0,1,1.4-.084h3.738C-32.158-.8-33.88.014-36.442.182a2.382,2.382,0,0,1,.476.868C-33.04.6-31.234-.434-30.324-2.184a5.111,5.111,0,0,0,1.75,1.792A10.443,10.443,0,0,0-24.3,1.05a3.566,3.566,0,0,1,.462-.924A9.777,9.777,0,0,1-27.594-.8,4.781,4.781,0,0,1-29.4-2.254Zm-5.852-4.3a7.263,7.263,0,0,1-2.618,1.834,2.021,2.021,0,0,1,.49.672A7.622,7.622,0,0,0-30.618-6.4c-.028.2-.056.616-.056.77v.5a2.119,2.119,0,0,1-.07.7h.9a2.4,2.4,0,0,1-.07-.686v-.56c0-.182-.014-.294-.056-.728A7.673,7.673,0,0,0-26.95-4.074a3.151,3.151,0,0,1,.49-.728,6.7,6.7,0,0,1-2.828-1.75h1.554a6.149,6.149,0,0,1,1.134.07v-.826a5.877,5.877,0,0,1-1.134.07H-29.9V-8.414a5.537,5.537,0,0,1,.056-.868h-.9a6.079,6.079,0,0,1,.07.882v1.162H-32.62a6.118,6.118,0,0,1-1.162-.07v.826a6.585,6.585,0,0,1,1.162-.07Zm-2.436-3.822a13.06,13.06,0,0,1-1.386-.056,6.53,6.53,0,0,1,.056.966V-4.62a6.691,6.691,0,0,1-.056.994h.924V-9.632h8.078v6.006h.924a6.373,6.373,0,0,1-.056-.98V-9.478a6.213,6.213,0,0,1,.056-.952,12.834,12.834,0,0,1-1.358.056H-30.7c.21-.322.6-1.008.77-1.344l-.938-.21a6.138,6.138,0,0,1-.756,1.554Zm.462,1.442a5.077,5.077,0,0,1,1.064,1.456l.658-.35a6.257,6.257,0,0,0-1.078-1.442Zm5.418-.378a5.882,5.882,0,0,1-1.148,1.666l.63.28a9.61,9.61,0,0,0,1.2-1.61Zm6.566-1.414.322,1.848-1.442-1.19-.546.812,1.792.7-1.75.658.5.84,1.456-1.2-.336,1.876h1.036l-.336-1.876,1.442,1.2.5-.84L-20.4-8.554l1.792-.7-.546-.812-1.442,1.19.322-1.848Zm15.19,9.6a4.786,4.786,0,0,1-.476-.322A12.254,12.254,0,0,0-10.5-3.486c-.056-1.358-.056-1.358-.084-2.142,1.036-.07,2.142-.182,3.108-.336.49-.07.63-.084.812-.1l-.056-.966a16.9,16.9,0,0,1-3.878.574c-.014-.742-.014-.742-.028-1.89A29.084,29.084,0,0,0-7.378-8.68c.728-.1.728-.1.966-.112l-.07-.952a19.735,19.735,0,0,1-4.144.574,15.625,15.625,0,0,1,.1-1.974h-1.078a10.963,10.963,0,0,1,.07,2.016c-.462,0-.938.014-1.218.014a17.392,17.392,0,0,1-3.584-.28l-.014.952a1.144,1.144,0,0,1,.2-.014,1.7,1.7,0,0,1,.252.014c1.26.1,2.394.14,3.416.14.322,0,.546,0,.952-.014l.028,1.918c-.392.014-.882.014-1.246.014a17.182,17.182,0,0,1-3.206-.224l-.014.924h.112c.084,0,.2,0,.35.014.868.07,1.526.1,2.366.1.448,0,1.148-.014,1.652-.028.014.364.014.63.028.812.014.406.014.7.028.826a1.115,1.115,0,0,0,.014.154c0,.126,0,.126.014.168a6.227,6.227,0,0,0-1.26-.112,6.1,6.1,0,0,0-1.456.14c-1.232.28-1.96,1.008-1.96,1.932A1.831,1.831,0,0,0-15.33-.21a3.647,3.647,0,0,0,2.17.56,2.819,2.819,0,0,0,2.366-.882,2.431,2.431,0,0,0,.35-1.526,4.025,4.025,0,0,0-.028-.5c.378.154.7.294.938.42a11.265,11.265,0,0,1,2.856,2ZM-11.4-2.254a1.834,1.834,0,0,1-.28,1.26,2.023,2.023,0,0,1-1.54.462c-1.218,0-1.918-.42-1.918-1.162s.91-1.246,2.3-1.246a5.139,5.139,0,0,1,1.428.154ZM5.474-7.322a8.6,8.6,0,0,1,1.26,1.988L7.448-5.7A9.9,9.9,0,0,0,6.16-7.658ZM6.832-7.98A9.129,9.129,0,0,1,8.106-5.992l.7-.364a9.9,9.9,0,0,0-1.288-1.96Zm-9.87-.182a41.121,41.121,0,0,1,4.83-.462,27.13,27.13,0,0,0,3.08-.308,9.164,9.164,0,0,0-1.33.742,5.327,5.327,0,0,0-2.618,4.3A3.39,3.39,0,0,0,2.478-1.036,7.062,7.062,0,0,0,5.5.042c.224.042.28.056.434.084l.182-1.134h-.14a7.175,7.175,0,0,1-2.1-.448,2.745,2.745,0,0,1-1.96-2.59A4.279,4.279,0,0,1,3.64-7.28a6.886,6.886,0,0,1,2.688-1.4,5.872,5.872,0,0,1,1.568-.2L7.812-9.912a13.377,13.377,0,0,1-1.666.154c-1.806.07-6.286.336-7.952.462-.434.028-.6.042-.8.042-.1,0-.238,0-.5-.014ZM20.776-9.408h-4.62A12.015,12.015,0,0,1,14.8-9.464v.84a10.67,10.67,0,0,1,1.358-.056h4.62v1.036H15.82a9.426,9.426,0,0,1-1.386-.07v.868a9.661,9.661,0,0,1,1.386-.07h4.662c.63,0,.84,0,1.19.028-.028-.308-.042-.574-.042-.994v-2.282c0-.42.014-.7.042-1.036a9.738,9.738,0,0,1-1.218.056H15.946a11.576,11.576,0,0,1-1.47-.084v.91a10.061,10.061,0,0,1,1.428-.07h4.872Zm.056,5.11a9.255,9.255,0,0,1-1.246.056H15.862a8.946,8.946,0,0,1-1.134-.07v.854c.252-.028.434-.042.84-.056a7.05,7.05,0,0,0,1.96,2.254A12.913,12.913,0,0,1,13.216.14a2.661,2.661,0,0,1,.476.826A14.281,14.281,0,0,0,18.228-.756,15.818,15.818,0,0,0,22.456.994,2.9,2.9,0,0,1,22.932.14a15.415,15.415,0,0,1-3.976-1.386A8.864,8.864,0,0,0,20.944-3.22c.21-.294.21-.294.406-.56Zm-.686.784a6.66,6.66,0,0,1-1.89,1.806,5.771,5.771,0,0,1-1.75-1.806ZM11.13-10.822a10.7,10.7,0,0,1,2.2,1.862l.588-.672a13.022,13.022,0,0,0-2.212-1.82ZM10.4-7.42A9.344,9.344,0,0,1,12.74-5.656l.518-.756a13.092,13.092,0,0,0-2.352-1.68Zm2.1,3.444A11.364,11.364,0,0,1,10.318.1l.77.742c.056-.084.056-.084.14-.224a.994.994,0,0,0,.126-.224c.084-.126.084-.126.224-.35a17.825,17.825,0,0,0,1.6-3.416Zm1.12-.658a5.174,5.174,0,0,1-.056.84h.882v-1.47h7.336v1.582h.91a4.821,4.821,0,0,1-.056-.854v-.686a7.041,7.041,0,0,1,.042-.826c-.364.028-.616.042-1.358.042H14.9c-.546,0-.966-.014-1.316-.042a6.405,6.405,0,0,1,.042.826Zm12.81-4.83a7.688,7.688,0,0,1,1.022-.07c1.33-.042,1.54-.056,2.646-.14-.49,1.624-.658,2.156-1.12,3.528a4.575,4.575,0,0,0-2.52.6,3.145,3.145,0,0,0-1.666,2.772,2.068,2.068,0,0,0,1.848,2.3c.672,0,1.19-.42,1.694-1.386a27.165,27.165,0,0,0,1.316-3.374,10.319,10.319,0,0,1,3.864,1.162,5.444,5.444,0,0,1-1.288,2.352A6.16,6.16,0,0,1,29.96-.112,3.605,3.605,0,0,1,30.7.616a7.564,7.564,0,0,0,2.226-1.708A6.609,6.609,0,0,0,34.37-3.626,16.186,16.186,0,0,1,36.554-2.24l.378-1.078a2.621,2.621,0,0,1-.406-.21c-.686-.406-1.162-.658-1.918-1.05a19.132,19.132,0,0,0,.252-3.038,5.316,5.316,0,0,1,.056-.868L33.866-8.5a3.4,3.4,0,0,1,.056.686,15.865,15.865,0,0,1-.168,2.842,10.976,10.976,0,0,0-3.822-1.106c.252-.742.35-1.008.658-1.96a7.389,7.389,0,0,1,.77-2.03l-.742-.588a1.03,1.03,0,0,1-.518.168c-.462.056-1.582.1-2.352.1a6.684,6.684,0,0,1-1.358-.084ZM28.7-5.306c-1.022,2.982-1.5,3.85-2.072,3.85-.5,0-.91-.588-.91-1.33A2.328,2.328,0,0,1,26.39-4.4,3.4,3.4,0,0,1,28.7-5.306ZM39.256-2.114a11.935,11.935,0,0,1,1.26-1.33,3.939,3.939,0,0,0,.728-.77h.028c-.028.336-.028.448-.042,2.156A14.946,14.946,0,0,1,41.16.588h1.106c-.07-.644-.084-1.344-.084-5.558,1.834-1.652,3.094-2.31,4.466-2.31a2.569,2.569,0,0,1,2.674,2.744,3.539,3.539,0,0,1-.392,1.68,3.117,3.117,0,0,1-2.8,1.582,6.131,6.131,0,0,1-2.478-.546,3.441,3.441,0,0,1,.112.812,1.828,1.828,0,0,1-.014.238,7.062,7.062,0,0,0,2.38.42,3.979,3.979,0,0,0,4.228-4.214A3.54,3.54,0,0,0,46.592-8.2,5.451,5.451,0,0,0,43.05-6.818a7.668,7.668,0,0,0-.812.714l-.042.042h-.028c0-.028.028-.5.07-1.414a4.139,4.139,0,0,1,.742-.91l-.364-.462a.818.818,0,0,1-.322.084c.014-.322.014-.322.028-.8a8.776,8.776,0,0,1,.14-1.624H41.356a2.519,2.519,0,0,1,.042.546c0,.546-.014,1.078-.056,1.946-1.148.084-1.736.112-1.946.112-.112,0-.2,0-.392-.014l.07.966a12.228,12.228,0,0,1,1.54-.168c.518-.028.518-.028.714-.042-.042,1.19-.042,1.316-.07,2.478-.182.154-.182.154-.406.364-.476.434-.476.434-.952.882A10.36,10.36,0,0,1,38.7-3.08Zm13.93-5.7a2.085,2.085,0,0,1,.238-.014h.056c.546.028.672.028,1.162.028.518,0,.686,0,.966-.014A28.157,28.157,0,0,1,52.976-.07L54,.364a36.891,36.891,0,0,0,1.61-4.27c.378-1.274.77-2.856.98-3.962A20.463,20.463,0,0,0,58.954-8.2c.28-.056.28-.056.392-.07l-.07-.966a11.544,11.544,0,0,1-2.52.476c.07-.42.112-.616.182-1.064a13.237,13.237,0,0,1,.252-1.33l-1.106-.112a13.69,13.69,0,0,1-.308,2.576c-.406.028-.56.028-.84.028a9.655,9.655,0,0,1-1.75-.126Zm10.57.686c-1.05-.042-1.26-.042-1.526-.042a15.861,15.861,0,0,0-3.71.462l.1.952a12.185,12.185,0,0,1,3.5-.476,14.056,14.056,0,0,1,1.652.1ZM58.66-4.1c-.742.952-.938,1.386-.938,2.016,0,1.386,1.19,2.1,3.486,2.1A14.029,14.029,0,0,0,63.7-.224c.462-.07.462-.07.616-.1l-.1-1.05A10.4,10.4,0,0,1,61.124-.9c-1.6,0-2.45-.448-2.45-1.288a1.685,1.685,0,0,1,.35-.994,4.692,4.692,0,0,1,.42-.532ZM68.586-9.38a6.9,6.9,0,0,1,.756-.07C71.47-9.52,73.15-9.618,73.6-9.7a.542.542,0,0,1,.126-.014l.028.028-.056.056-.056.056-.2.2c-.966.952-3.178,2.9-4.676,4.088a15.6,15.6,0,0,1-1.96,1.428l.63.9a8.984,8.984,0,0,1,5.894-2.394c1.89,0,3.01.8,3.01,2.142,0,1.19-.77,2.044-2.24,2.45a4.008,4.008,0,0,0-.644-1.344,2.82,2.82,0,0,0-2.31-1.148,1.819,1.819,0,0,0-2.03,1.638c0,1.288,1.134,2.016,3.108,2.016,3.108,0,5.138-1.442,5.138-3.626,0-1.792-1.5-2.94-3.836-2.94a7.094,7.094,0,0,0-3.43.868l-.028-.042a35.924,35.924,0,0,0,4.606-3.976,2.584,2.584,0,0,1,.714-.588l-.588-.77a1.432,1.432,0,0,1-.672.154c-1.26.1-3.122.182-4.284.182a6.465,6.465,0,0,1-1.316-.084ZM73.178-.518a5.041,5.041,0,0,1-1.022.1,3.577,3.577,0,0,1-1.568-.322.955.955,0,0,1-.56-.854c0-.532.434-.868,1.134-.868C72.17-2.464,72.87-1.792,73.178-.518Z" transform="translate(70.736 16.994)" fill="#3c505a"/>
        <g id="Rectangle_150" data-name="Rectangle 150" transform="translate(-13)" fill="none" stroke="#3c505a" stroke-width="1">
          <rect width="197.129" height="23.203" stroke="none"/>
          <rect x="0.5" y="0.5" width="196.129" height="22.203" fill="none"/>
        </g>
      </g>
    </g>
  </g>
</svg>
