<svg xmlns="http://www.w3.org/2000/svg" width="1000" height="559.696" viewBox="0 0 1000 559.696">
  <g id="Group_175" data-name="Group 175" transform="translate(-300 -8368.304)">
    <path id="Path_122" data-name="Path 122" d="M300,0H1300V400L300,482.7Z" transform="translate(0 8445.304)" fill="#ffbe00"/>
    <g id="Point" transform="translate(721 8368.304)">
      <g id="Ellipse_10" data-name="Ellipse 10" fill="#ffbe00" stroke="#3c505a" stroke-width="1">
        <circle cx="79.5" cy="79.5" r="79.5" stroke="none"/>
        <circle cx="79.5" cy="79.5" r="79" fill="none"/>
      </g>
      <path id="Path_262" data-name="Path 262" d="M-3,.3A2.364,2.364,0,0,1-4.2-.05,1.063,1.063,0,0,1-4.8-1a.9.9,0,0,1,.55-.8A3.672,3.672,0,0,1-3-2.2q4.4-.6,6.05-1.95A4.691,4.691,0,0,0,4.7-8v-9.3q0-.4-.6-.65a2.64,2.64,0,0,0-.9-.25q-5.6,0-11.3.3-4.4.2-13,.4a.9.9,0,0,1-.7-.35,1.037,1.037,0,0,1-.3-.65.407.407,0,0,1,.1-.3l2.3-2.8a20.763,20.763,0,0,0,1.6-1.9L8.3-61.4q1.9-2.8,3-2.8h2.1q.2,0,.2.3a1.66,1.66,0,0,1-.15.65,1.621,1.621,0,0,1-.25.45L-13.8-24a1.54,1.54,0,0,0-.25.6q-.05.3.25.3H3.5a1.5,1.5,0,0,0,.8-.25q.4-.25.4-.55V-39.4a4.956,4.956,0,0,1,.15-1.5,1.411,1.411,0,0,1,.75-.7,9.939,9.939,0,0,1,2.9-1,15.075,15.075,0,0,1,2.7-.3q1,0,1.25,1.35a33.124,33.124,0,0,1,.25,5.05v12.9q0,.6.5.6,1.5.1,4,.1,1.5,0,5.9-.2a1.266,1.266,0,0,1,.75.25.693.693,0,0,1,.35.55,4.709,4.709,0,0,1-.85,2.45Q22.5-18.5,22.1-18.5l-4.9-.1a25,25,0,0,0-3.1.2,3.908,3.908,0,0,0-.8.3,2.314,2.314,0,0,0-.5.3v9.4q0,2.9,1.25,4T19.5-2.2a3.95,3.95,0,0,1,1.25.6,1.072,1.072,0,0,1,.55.8.971.971,0,0,1-.45.75A1.661,1.661,0,0,1,19.8.3,50.321,50.321,0,0,1,13.6,0q-3-.2-5.1-.2Q6.1-.2,2.9,0A48.722,48.722,0,0,1-3,.3Z" transform="translate(80 121)" fill="#3c505a"/>
      <g id="Layer_2" data-name="Layer 2" transform="translate(24.875 11.01)">
        <g id="Group_292" data-name="Group 292" transform="translate(0.001 -0.01)">
          <path id="Path_153" data-name="Path 153" d="M18.566,29.31c2.941,2.812,3.361,3.1,5.268,1.487l.808-.679c.307-.032.727.469.646.727C23.7,32.4,22.8,33.285,21.733,34.416,20.6,35.6,19.681,36.63,18.55,37.923c-.242.081-.743-.291-.759-.614l.485-.663c1.325-1.842,1.05-2.214-1.907-5.025L6.011,21.748c-2.392-2.278-2.925-2.666-4.266-1.535l-1.083.9a.649.649,0,0,1-.646-.727A59.767,59.767,0,0,1,5.09,14.621c2.214-2.327,4.185-3.781,6.253-4.314a6.7,6.7,0,0,1,6.35,1.761,6.594,6.594,0,0,1,1.794,7.061,13.151,13.151,0,0,1-2.844,4.686c-.275.113-.695-.291-.582-.5,2.327-3.571,1.664-6.3-.792-8.629-2.731-2.6-6.011-2.682-8.807.242-1.422,1.487-1.325,1.616-.436,2.472L18.55,29.326Z" transform="translate(-0.001 6.24)" fill="#3c505a"/>
          <path id="Path_154" data-name="Path 154" d="M34.16,12.432c1.7,4.541-.194,8.984-4.735,10.681a7.659,7.659,0,0,1-10.245-4.686,8.163,8.163,0,0,1,4.8-10.746,7.763,7.763,0,0,1,10.2,4.751ZM23.948,8.926c-2.392.9-3.313,3.846-1.826,7.853,1.244,3.313,4.056,6.3,7.255,5.106s2.925-4.912,1.874-7.708c-1.163-3.086-3.862-6.544-7.32-5.252Z" transform="translate(11.456 4.422)" fill="#3c505a"/>
          <path id="Path_155" data-name="Path 155" d="M35.752,13.046c.032-1.519.032-1.713-1-2.424l-.339-.242c-.145-.162-.145-.582.048-.695a27.718,27.718,0,0,0,4.04-1.81.365.365,0,0,1,.388.242c-.113,1.357-.226,3.216-.259,4.8L38.483,19.9c-.065,2.8,0,3.183,1.406,3.41l.808.129a.674.674,0,0,1-.1.97c-1.163-.1-2.295-.162-3.636-.194-1.39-.032-2.553,0-3.652.032a.673.673,0,0,1-.065-.97l.824-.1c1.438-.162,1.487-.549,1.551-3.345l.145-6.787ZM39.21,2.058a1.9,1.9,0,0,1-2.1,1.971A1.923,1.923,0,0,1,35.17,2.042,2.023,2.023,0,0,1,37.3-.01a1.929,1.929,0,0,1,1.891,2.052Z" transform="translate(20.367 0.01)" fill="#3c505a"/>
          <path id="Path_156" data-name="Path 156" d="M47.4,10.815c.614-1.39.695-1.567,0-2.618l-.226-.355a.538.538,0,0,1,.323-.63,21.432,21.432,0,0,0,4.314-.162.43.43,0,0,1,.275.42c-.436.792-.663,1.309-.808,1.632a.411.411,0,0,0,.21.566,10.776,10.776,0,0,1,5.769.388c2.941,1.309,3.248,3.862,2.2,6.237l-2.7,6.092c-1.131,2.553-1.212,2.941-.016,3.684l.727.452a.668.668,0,0,1-.469.856c-1.034-.549-2.052-1.034-3.28-1.584-1.277-.566-2.359-1-3.345-1.357a.693.693,0,0,1,.323-.921l.727.194c1.406.372,1.584.065,2.715-2.488l2.343-5.284c.889-2.02.63-3.91-1.777-4.977a4.251,4.251,0,0,0-3.571-.1,3.249,3.249,0,0,0-1.47,1.891l-2.392,5.429c-1.131,2.553-1.2,2.909-.016,3.684l.6.388a.68.68,0,0,1-.469.856c-.921-.5-1.939-.986-3.183-1.535-1.277-.566-2.359-1-3.377-1.374a.693.693,0,0,1,.323-.921l.792.226c1.39.4,1.584.065,2.715-2.488L47.4,10.815Z" transform="translate(25.092 4.358)" fill="#3c505a"/>
          <path id="Path_157" data-name="Path 157" d="M65.757,20.33c-.452-.485-.549-.436-1.163.113l-5.349,4.9c-1.664,1.519-2.989,3.1-1.26,4.993a2.921,2.921,0,0,0,.856.646c.323.178.97.259,1.05.356.21.226,0,.63-.226.727a5.33,5.33,0,0,1-4.056-1.81c-2.246-2.456-1.341-4.234.372-5.8l6.561-5.995c.776-.711.808-.792.275-1.357l-.727-.808a.624.624,0,0,1,.517-.63,7.489,7.489,0,0,0,2.569,1.018,9.134,9.134,0,0,0,2.779-.339c.194.1.5.436.4.727l-1.293,1.18c-.517.469-.517.533-.065,1.018l2.909,3.183a1.243,1.243,0,0,1-1.18,1.131l-2.957-3.232Z" transform="translate(33.425 9.661)" fill="#3c505a"/>
        </g>
      </g>
    </g>
    <path id="Path_261" data-name="Path 261" d="M-304.43-37.87v-6.16l.07-5.04a33.768,33.768,0,0,1,.35-5.95h-5.88a33.7,33.7,0,0,1,.35,5.95v5.04c0,2.17,0,3.57-.07,6.16h-19.53a43.153,43.153,0,0,1-8.19-.49v5.46a64.435,64.435,0,0,1,8.12-.35h19.39c-.56,8.33-1.33,11.9-3.57,16.1-3.36,6.3-9.17,11.13-17.36,14.42a15.291,15.291,0,0,1,3.57,4.48c8.26-4.13,13.65-8.68,17.36-14.63,3.36-5.32,4.62-10.57,5.18-20.37h15.82a64.435,64.435,0,0,1,8.12.35v-5.46a42.726,42.726,0,0,1-8.19.49Zm73.57-15.68c-.63,3.99-3.64,11.34-7.35,17.92-8.05,14.21-18.69,23.45-34.51,30.17a16.543,16.543,0,0,1,3.57,4.9c11.69-5.88,19.53-11.55,26.39-19.39,6.37-7.14,11.2-15.54,15.96-27.58a29.079,29.079,0,0,1,1.75-4.06Zm56.84,28.49c9.45-5.25,15.96-9.8,22.05-15.33,3.29-3.01,3.29-3.01,4.27-3.85l-4.06-3.71c-2.38,3.22-5.18,5.95-10.01,9.73a95.09,95.09,0,0,1-12.25,8.05V-49.98a54.619,54.619,0,0,1,.42-7.56h-5.46a66.326,66.326,0,0,1,.42,7.56V-3.57c0,5.46,1.82,6.3,13.51,6.3,10.5,0,13.93-.63,15.68-2.94,1.47-2.03,2.45-6.02,3.29-13.72a15.976,15.976,0,0,1-4.62-2.17c-.56,7.56-1.26,11.27-2.38,12.81-1.05,1.26-3.71,1.68-11.69,1.68-8.12,0-9.17-.35-9.17-2.8ZM-197.61-3.5a83.044,83.044,0,0,1-.49,8.68h5.46c-.28-2.87-.42-5.74-.42-8.47V-39.97c2.59-5.81,4.97-11.41,5.6-13.02,1.19-3.22,1.19-3.22,1.47-3.92l-5.18-1.47a31.146,31.146,0,0,1-2.38,8.4,65.515,65.515,0,0,1-15.82,23.59,25.439,25.439,0,0,1,3.01,4.06,56.358,56.358,0,0,0,8.89-11.76c-.14,3.71-.14,4.62-.14,8.54ZM-126-54.04a41.166,41.166,0,0,1,.28,5.88v18.69a42.438,42.438,0,0,1-.28,5.88h5.81a37.071,37.071,0,0,1-.28-5.81V-48.23a38.243,38.243,0,0,1,.28-5.81Zm30.94,0a38.922,38.922,0,0,1,.28,6.16v7.91c0,10.64-.21,13.86-.98,17.85-1.33,6.51-4.69,10.99-11.2,14.77-3.64,2.17-7,3.36-13.3,4.76a13.386,13.386,0,0,1,2.94,4.83c5.95-1.75,9.31-3.08,12.74-5.04,6.86-3.85,11.27-8.96,13.3-15.54,1.26-4.06,1.75-10.22,1.75-21.35v-8.26a31.245,31.245,0,0,1,.35-6.09Zm54.6,10.43H-57.54a50.433,50.433,0,0,1-8.12-.42v5.32a63.225,63.225,0,0,1,8.05-.35h17.15V-4.13a38.613,38.613,0,0,1-.42,7.35h5.74a47.052,47.052,0,0,1-.35-7.42V-39.06h17.78a63.224,63.224,0,0,1,8.05.35v-5.32a50.88,50.88,0,0,1-8.19.42H-35.49v-4.55a43.411,43.411,0,0,1,.35-7.28h-5.74a36.138,36.138,0,0,1,.42,7.14ZM-55.58-32.62c-.42,4.69-2.8,11.55-6.09,17.71a33.492,33.492,0,0,1-6.65,9.03A15.519,15.519,0,0,1-63.7-2.87,63.124,63.124,0,0,0-51.45-27.02c.91-3.36.91-3.36,1.19-4.13Zm29.89,1.4c.56,1.19.98,2.38,1.75,4.55a114.474,114.474,0,0,0,4.9,12.04A68.108,68.108,0,0,0-11.76-2.59,16.485,16.485,0,0,1-7.35-5.88c-4.69-5.46-7.63-10.57-10.85-18.76a47.24,47.24,0,0,1-2.59-7.91ZM-13.44-60.2a7.2,7.2,0,0,0-7.21,7.21,7.2,7.2,0,0,0,7.21,7.21A7.185,7.185,0,0,0-6.3-52.99,7.185,7.185,0,0,0-13.44-60.2Zm0,2.94a4.228,4.228,0,0,1,4.2,4.27,4.228,4.228,0,0,1-4.2,4.27,4.287,4.287,0,0,1-4.27-4.27A4.242,4.242,0,0,1-13.44-57.26ZM7.91-48.65a78.241,78.241,0,0,1,9.17,21.7l5.18-2.17a84.566,84.566,0,0,0-9.38-21.49Zm42.7-2.31a33.147,33.147,0,0,1-.84,5.81C46.76-31.78,42-21.84,34.72-14.14,29.47-8.54,24.15-4.9,16.31-1.47A11.878,11.878,0,0,1,20.02,2.8,61.269,61.269,0,0,0,38.71-10.78c7.49-8.05,13.02-19.11,15.96-31.99,1.12-4.83,1.12-4.83,1.82-6.65ZM73.64-24.01a76.469,76.469,0,0,1,8.68-.28h40.6a80.077,80.077,0,0,1,8.54.28v-5.67a55.21,55.21,0,0,1-8.47.35H82.32a49.518,49.518,0,0,1-8.68-.42Zm89.81-31.64c-.56,3.99-2.1,9.59-5.53,20.16A266.967,266.967,0,0,1,147.35-7.77c-1.61.14-5.46.35-5.95.35-.35,0-.35,0-1.96-.07l.7,5.81a48.677,48.677,0,0,1,5.95-.77,432.41,432.41,0,0,0,43.05-5.81,95.01,95.01,0,0,1,4.13,9.45l4.9-2.66c-4.83-11.27-11.83-23.94-17.43-31.64l-4.34,2.38A136.17,136.17,0,0,1,187.18-12.6c-8.26,1.61-24.71,3.78-34.02,4.41,4.69-10.71,9.45-24.15,14.56-40.95a27.675,27.675,0,0,1,1.89-5.04Zm60.76,10.64c.28-11.41.28-11.41.63-13.23h-5.32c.42,2.03.49,3.15.49,7.63,0,2.17,0,3.64-.14,5.6h-4.06a41.479,41.479,0,0,1-7.7-.49v5.18a41.713,41.713,0,0,1,7.35-.49h4.2c-.7,12.6-2.59,21.49-6.16,29.12A43.033,43.033,0,0,1,205.66-.07a15.9,15.9,0,0,1,3.57,3.92A53.971,53.971,0,0,0,216.3-6.86a57.771,57.771,0,0,0,5.11-14.07,109.593,109.593,0,0,0,2.66-19.88h10.22c-.07,7.49-.21,11.41-.56,18.06-.42,7.35-1.75,16.52-2.66,18.83-.49,1.19-1.4,1.68-3.29,1.68a42.319,42.319,0,0,1-8.19-1.12,17.6,17.6,0,0,1,.7,4.62,62.679,62.679,0,0,0,8.54.77c4.83,0,6.3-1.61,7.56-8.61A214.491,214.491,0,0,0,238.7-36.4c.07-6.86.07-6.86.35-8.89a68.25,68.25,0,0,1-7.28.28ZM249.48-2.87h14.49V2.17h4.83a50.077,50.077,0,0,1-.42-6.86V-42.35a52.965,52.965,0,0,1,.35-7.35,40.238,40.238,0,0,1-6.09.35H250.88a40.083,40.083,0,0,1-6.16-.35,54.2,54.2,0,0,1,.35,7.35v37.1a64.611,64.611,0,0,1-.42,7.98h4.83Zm0-42.42h14.49V-6.93H249.48Zm56.56-.91V-6.23H286.3a52.64,52.64,0,0,1-8.26-.49v5.46a54.051,54.051,0,0,1,8.19-.49h45.99a52.25,52.25,0,0,1,8.19.49V-6.72a52.25,52.25,0,0,1-8.19.49H311.08V-46.2h16.87a67.468,67.468,0,0,1,8.05.42V-51.1a62.4,62.4,0,0,1-8.12.42H290.64a60.933,60.933,0,0,1-8.12-.42v5.32a66.645,66.645,0,0,1,8.05-.42Z" transform="translate(800 8788.839)" fill="#3c505a"/>
    <path id="Path_260" data-name="Path 260" d="M-181.32-24v7.12h-11.96a27.732,27.732,0,0,1-4.12-.24v2.84a29.665,29.665,0,0,1,4.12-.24h7.32a29.933,29.933,0,0,1-.32,3.8,12.353,12.353,0,0,1-3.4,6.92,19.408,19.408,0,0,1-8.4,4.6,13.841,13.841,0,0,0,.88,1.24,7.631,7.631,0,0,1,.76,1.28,29.784,29.784,0,0,0,4.92-2.4,15.344,15.344,0,0,0,6.6-7c1.12-2.52,1.44-4.12,1.64-8.44h6V-.32c0,2.2,1.2,2.76,6,2.76,5.2,0,6.64-.4,7.56-2.16.6-1.16.92-2.84,1.2-6.32a9.584,9.584,0,0,1-2.6-1.08c0,3.16-.24,5-.76,5.96-.52.92-1.56,1.16-4.96,1.16-3.32,0-3.84-.16-3.84-1.2V-14.52h8.4a29.045,29.045,0,0,1,4.08.24v-2.84a27.136,27.136,0,0,1-4.08.24h-12.44V-24h9.56a25.467,25.467,0,0,1,3.84.24V-26.6a24.387,24.387,0,0,1-3.84.24h-9.56v-3.16a23.18,23.18,0,0,1,.24-3.52h-3.08a23.946,23.946,0,0,1,.24,3.52v3.16h-7.32c.56-1.2.84-1.92,1.4-3.4.28-.76.48-1.28.76-1.92l-2.84-.76a19.887,19.887,0,0,1-1.88,5.64,22.365,22.365,0,0,1-5.16,6.76,7.759,7.759,0,0,1,2.12,1.76A32.333,32.333,0,0,0-189.88-24Zm28.68-2.32h-2.4a14.771,14.771,0,0,1-2.68-.16v2.52a18.884,18.884,0,0,1,2.8-.16h6.72a15.055,15.055,0,0,1,2.68.16v-2.52a14.55,14.55,0,0,1-2.64.16h-2.04V-30a10.93,10.93,0,0,1,.24-2.96h-2.92a13.121,13.121,0,0,1,.24,2.96ZM-157.52-.8q.66-.24,1.44-.48c3-.84,6.96-2.16,10.4-3.48v-2.4c-1.8.68-2.4.92-3.68,1.36,1.12-4.72,1.52-6.84,2.12-10.4.64-4.24.76-4.92.88-5.52l-2.64-.64a32.935,32.935,0,0,1-.28,3.84,106.563,106.563,0,0,1-2.48,13.48,36.311,36.311,0,0,1-6.52,1.52Zm22.32-24.68h-5.76v-3.24a16.56,16.56,0,0,1,.16-2.84h-2.8a22.326,22.326,0,0,1,.2,2.92v3.04c0,.72-.04,1.44-.08,2.28a28.41,28.41,0,0,1,2.92-.08h13.64c.6,0,1.44,0,1.76.04a7.531,7.531,0,0,1,1.24.04,18.736,18.736,0,0,1-.12-2.36v-3.08a12.924,12.924,0,0,1,.2-2.8h-2.8a17.752,17.752,0,0,1,.16,2.72v3.36h-6.28v-4.84a13.869,13.869,0,0,1,.24-2.96h-2.92a14.66,14.66,0,0,1,.24,2.96Zm-.08,7.76a31,31,0,0,1-2.04,4.24h-2.84c-1.4,0-2.52-.04-4.12-.16.08.92.12,2.32.12,3.84v8.44a28.689,28.689,0,0,1-.2,4.36h2.8a26.811,26.811,0,0,1-.2-4.32V-11.4h3.72v9.16a24.238,24.238,0,0,1-.2,3.84h2.72a22.487,22.487,0,0,1-.2-3.8v-9.2h3.76v9.16a24.546,24.546,0,0,1-.2,3.84h2.68a32.792,32.792,0,0,1-.16-3.8v-9.2h4.04V-.48c0,.68-.16.84-.76.84a17.357,17.357,0,0,1-2.6-.24,9.451,9.451,0,0,1,.6,2.44c.84.04,1.72.08,2.2.08,2.24,0,2.96-.64,2.96-2.56v-9.8a32.374,32.374,0,0,1,.16-3.96,29.793,29.793,0,0,1-4.08.2h-7.68c1-1.84,1.32-2.48,2.12-4.24h6.52a35.882,35.882,0,0,1,4.12.16v-2.6a24.6,24.6,0,0,1-4.12.24H-141.4a23.427,23.427,0,0,1-4.04-.2v2.56a33.888,33.888,0,0,1,4.04-.16Zm-21.44-3.84A87.988,87.988,0,0,1-154.88-7.4l2.36-.6a90.248,90.248,0,0,0-1.92-14.04Zm58.88-4.96a11.511,11.511,0,0,1,4.64,1,10.545,10.545,0,0,1,6.36,10.04,12.074,12.074,0,0,1-7.08,11.2A23.977,23.977,0,0,1-100.6-2.4,6.356,6.356,0,0,1-99.2.28a30.944,30.944,0,0,0,6.08-1.84,14.565,14.565,0,0,0,9.16-13.8,13.389,13.389,0,0,0-3.88-9.76c-2.6-2.56-6.52-3.96-11-3.96-5.36,0-9.72,1.8-12.92,5.32a16.64,16.64,0,0,0-4.2,11.04c0,5.6,2.84,9.76,6.64,9.76,2.88,0,5.24-2.4,7.56-7.68A59.961,59.961,0,0,0-97.84-26.52Zm-2.88.04a54.941,54.941,0,0,1-3.64,14.8c-1.72,3.92-3.32,5.8-5,5.8-2.16,0-3.84-2.96-3.84-6.8a13.833,13.833,0,0,1,6.52-11.92A12.633,12.633,0,0,1-100.72-26.48Zm52.56-.4h-13.2a34.327,34.327,0,0,1-3.88-.16v2.4a30.487,30.487,0,0,1,3.88-.16h13.2v2.96H-62.32a26.932,26.932,0,0,1-3.96-.2v2.48a27.6,27.6,0,0,1,3.96-.2H-49c1.8,0,2.4,0,3.4.08-.08-.88-.12-1.64-.12-2.84v-6.52c0-1.2.04-2,.12-2.96a27.824,27.824,0,0,1-3.48.16H-61.96a33.075,33.075,0,0,1-4.2-.24v2.6a28.745,28.745,0,0,1,4.08-.2h13.92Zm.16,14.6a26.443,26.443,0,0,1-3.56.16H-62.2a25.559,25.559,0,0,1-3.24-.2v2.44c.72-.08,1.24-.12,2.4-.16a20.142,20.142,0,0,0,5.6,6.44A36.9,36.9,0,0,1-69.76.4,7.6,7.6,0,0,1-68.4,2.76,40.8,40.8,0,0,0-55.44-2.16a45.194,45.194,0,0,0,12.08,5A8.283,8.283,0,0,1-42,.4,44.042,44.042,0,0,1-53.36-3.56,25.325,25.325,0,0,0-47.68-9.2c.6-.84.6-.84,1.16-1.6Zm-1.96,2.24a19.03,19.03,0,0,1-5.4,5.16,16.488,16.488,0,0,1-5-5.16ZM-75.72-30.92a30.561,30.561,0,0,1,6.28,5.32l1.68-1.92a37.206,37.206,0,0,0-6.32-5.2ZM-77.8-21.2a26.7,26.7,0,0,1,6.68,5.04l1.48-2.16a37.406,37.406,0,0,0-6.72-4.8Zm6,9.84C-73.76-5.88-76.28-1.16-78.04.28l2.2,2.12c.16-.24.16-.24.4-.64a2.841,2.841,0,0,0,.36-.64c.24-.36.24-.36.64-1a50.927,50.927,0,0,0,4.56-9.76Zm3.2-1.88a14.783,14.783,0,0,1-.16,2.4h2.52v-4.2h20.96v4.52h2.6a13.775,13.775,0,0,1-.16-2.44v-1.96a20.118,20.118,0,0,1,.12-2.36c-1.04.08-1.76.12-3.88.12H-64.96c-1.56,0-2.76-.04-3.76-.12a18.3,18.3,0,0,1,.12,2.36Zm56.4-1.52a29.675,29.675,0,0,1-1.76,4.88c1.32-.08,1.84-.08,3.24-.08h3.56a20.056,20.056,0,0,1-.4,3.16c-.28,1.36-.6,1.6-2.36,1.6a31.079,31.079,0,0,1-5.2-.44,11.667,11.667,0,0,1,.56,2.4c1.88.16,3.36.24,4.72.24,2.56,0,3.6-.44,4.16-1.8.4-.92.6-2.12.96-5.32.12-1.12.16-1.4.24-1.92a21.557,21.557,0,0,1-2.84.12h-3.44c.36-1,.64-1.8.92-2.72.48-1.56.48-1.56.68-2.24a23.126,23.126,0,0,1-2.92.12H-22.52a15.864,15.864,0,0,1-2.72-.16v2.32a13.212,13.212,0,0,1,2.44-.16h2.84a12.578,12.578,0,0,1-1.12,3.92c-1.2,2.56-2.68,3.88-6.48,5.88A6.994,6.994,0,0,1-25.8-3C-22-5.28-20.4-6.84-19-9.6a17.635,17.635,0,0,0,1.48-5.16Zm-4.72-14.76v3.2h-7.8a15.92,15.92,0,0,1-2.88-.16v2.36a15.639,15.639,0,0,1,2.68-.16h6.04a23.273,23.273,0,0,1-2.52,2.04,25.276,25.276,0,0,1-7.44,3.6,6.148,6.148,0,0,1,1.32,2.16,28.714,28.714,0,0,0,5.72-3,25.386,25.386,0,0,0,5.04-4.36,20.7,20.7,0,0,0-.16,2.52v1.48a13.9,13.9,0,0,1-.12,1.96h2.56a12.065,12.065,0,0,1-.12-1.96v-1.48c0-.68-.04-1.28-.16-2.56a23.11,23.11,0,0,0,5.84,4.96,28.5,28.5,0,0,0,6.48,2.88A9.374,9.374,0,0,1-1.2-18.36a26.243,26.243,0,0,1-8.16-3.4,20.294,20.294,0,0,1-3.4-2.52h7.24a21.407,21.407,0,0,1,3.12.2v-2.44a20.22,20.22,0,0,1-3.12.2H-14.6v-3.4c3.4-.36,5.72-.68,10.2-1.48l-1.88-2.28a4.484,4.484,0,0,1-1.2.44c-.72.24-4.8.88-6.84,1.12a98.935,98.935,0,0,1-13.04.84,6.286,6.286,0,0,1,.92,2.16c2.92-.08,3.48-.12,6.6-.36Zm-20.44-1.36a38.857,38.857,0,0,1,6.2,7.2l2.04-1.8a49.467,49.467,0,0,0-6.4-7Zm-.32,16a16.126,16.126,0,0,1,2.96-.2h2.64v9.64A27,27,0,0,1-38.56-.6l1.32,2.64c.84-.76.96-.84,1.56-1.32A40.96,40.96,0,0,0-30.96-3.4,9.428,9.428,0,0,0-26.8.36c2.4,1.12,4.56,1.4,11.24,1.4,5,0,9.6-.08,13.68-.28A10.2,10.2,0,0,1-.96-1.44a110.625,110.625,0,0,1-15.52.8c-6.4,0-8.6-.4-10.84-1.92A5.938,5.938,0,0,1-29.6-5.52v-7.92a27.733,27.733,0,0,1,.2-4.08,17.816,17.816,0,0,1-3.08.2h-2.08a16.161,16.161,0,0,1-3.12-.2ZM24-18.28H18.96a22.993,22.993,0,0,1-3.56-.24v2.64c.96-.12,1.44-.16,2.4-.2a19.755,19.755,0,0,0,1.84,4.32,26.069,26.069,0,0,0,4.2,5.84A31.82,31.82,0,0,1,12.04.32a8.142,8.142,0,0,1,1.48,2.4A36.92,36.92,0,0,0,25.56-4.2,37.841,37.841,0,0,0,36.88,2.92,10.72,10.72,0,0,1,38.44.36,30.531,30.531,0,0,1,27.4-5.84a34.956,34.956,0,0,0,6.76-8.84,20.026,20.026,0,0,1,1.24-2.24l-1.36-1.52a15.223,15.223,0,0,1-2.76.16H26.44V-24.8h6.8a29.49,29.49,0,0,1,4.16.24v-2.76a29.887,29.887,0,0,1-4.16.24h-6.8v-2a23.984,23.984,0,0,1,.28-4.04h-3A25.292,25.292,0,0,1,24-29.08v2H19.2a33.19,33.19,0,0,1-4.2-.2v2.68a34.892,34.892,0,0,1,4.24-.2H24Zm8.12,2.2a26.8,26.8,0,0,1-6.48,8.6,21.617,21.617,0,0,1-5.36-8.6Zm-24.2-7v9a24.226,24.226,0,0,1-5.56,1.92l.8,2.72c.6-.32,1-.48,1.6-.76,1.16-.48,2.08-.84,3.16-1.32V-.8C7.92.12,7.6.36,6.36.36A25.93,25.93,0,0,1,2.68.04a7.241,7.241,0,0,1,.6,2.52c1,.08,2.04.12,3,.12,3.32,0,4.16-.56,4.16-2.84V-12.68c1.44-.68,1.44-.68,3.88-1.88l-.04-2.48c-1.8.92-2.44,1.24-3.84,1.88v-7.92h.84a24.493,24.493,0,0,1,3.04.16v-2.6a16.941,16.941,0,0,1-2.96.2h-.92V-29.2a23.8,23.8,0,0,1,.28-4H7.64a25.633,25.633,0,0,1,.28,4.04v3.84H5.76a19.313,19.313,0,0,1-3.28-.24v2.72a21.018,21.018,0,0,1,3.28-.24ZM60.88-25v-4.12a25.438,25.438,0,0,1,.24-3.76H58.24a26.613,26.613,0,0,1,.24,3.76V-25H55.92a19.715,19.715,0,0,1-3.48-.2v2.64a16.934,16.934,0,0,1,3.12-.2h2.92V-1.88a37.381,37.381,0,0,1-.24,4.48h2.88a35.542,35.542,0,0,1-.24-4.48V-22.76h2.6a16.934,16.934,0,0,1,3.12.2V-25.2a19.764,19.764,0,0,1-3.44.2Zm10.84,5V-1.04c0,.72-.28.88-1.32.88A24.641,24.641,0,0,1,65.6-.6,9.653,9.653,0,0,1,66.12,2c.92.08,2.64.16,3.64.16a9.668,9.668,0,0,0,3.36-.44C73.88,1.4,74.24.48,74.24-1V-20h.88a17.834,17.834,0,0,1,3.24.2v-2.68a17.568,17.568,0,0,1-3.24.2H69.68a15.257,15.257,0,0,1-3.04-.2v2.68a15.752,15.752,0,0,1,3.04-.2ZM49.04-33.32c-1.12,2.52-3.92,5.56-7.36,8a5.841,5.841,0,0,1,1.56,1.96,36.325,36.325,0,0,0,6.44-6.44c1.2-1.6,1.2-1.6,1.72-2.2Zm4.28,14C53.16-12.56,52.2-7.64,50.2-3.16a11.4,11.4,0,0,1,2.16,1.28c1.84-4.48,2.8-9.4,3.28-17.2Zm9.56.48a70.265,70.265,0,0,1,3,14.92l2.36-.84A89.235,89.235,0,0,0,65-19.48Zm-1.04-12.4a22.694,22.694,0,0,1,3.32,5.08l1.88-1.24a30.119,30.119,0,0,0-3.36-4.88Zm15.8.6a20.018,20.018,0,0,1-3,.2H70.68a20.018,20.018,0,0,1-3-.2v2.68a21.539,21.539,0,0,1,2.96-.2h4a20.839,20.839,0,0,1,3,.2ZM46-2a28.745,28.745,0,0,1-.24,4.72h2.92a27.912,27.912,0,0,1-.24-4.68V-18.32c.6-.8,1.6-2.28,2.04-3,.44-.8.92-1.52,1.32-2.16l-2.32-1.48a16.3,16.3,0,0,1-1.76,3.56,25.884,25.884,0,0,1-6.44,6.96,8.36,8.36,0,0,1,1.4,2.24,21.024,21.024,0,0,0,3.44-3.64c-.08,1.88-.12,3.08-.12,4.68ZM93.88-26.92a55.969,55.969,0,0,1-8.56-.44l-.04,2.76a7.093,7.093,0,0,1,.88-.04h.64c1.48.04,5.24.12,5.88.12a4.43,4.43,0,0,0,.76-.08l-.36.6c-2.88,5.12-6.2,9.32-8.96,11.44l2.24,2.24a13.236,13.236,0,0,1,3.08-3.32c3.24-2.76,6.4-4.24,8.92-4.24,1.88,0,2.84.96,3.16,3.16a31.051,31.051,0,0,0-5.96,3.2C92.84-9.48,91.48-7.4,91.48-5.2c0,4.12,3.48,6.16,10.64,6.16a62.055,62.055,0,0,0,9.72-.8,15.741,15.741,0,0,1,1.6-.2l-.36-3.08A33.515,33.515,0,0,1,102.4-1.56c-5.64,0-8.12-1.16-8.12-3.8,0-2.4,2.08-4.28,7.52-6.84a10.512,10.512,0,0,1,.04,1.2,57.524,57.524,0,0,1-.24,5.76l2.72-.04a8.7,8.7,0,0,1-.08-1.44c0-.36,0-.92.04-1.8.04-.8.04-1.68.04-2.2,0-1,0-1.4-.08-2.44a66.412,66.412,0,0,1,10.68-3.52l-1.28-2.8a8.8,8.8,0,0,1-2.72,1.16c-1.76.64-4.04,1.48-6.96,2.64a4.855,4.855,0,0,0-5.28-4.44,10.645,10.645,0,0,0-6.04,1.96c-.4.28-.4.28-1.84,1.4a.308.308,0,0,1-.08-.12v-.04a.039.039,0,0,0,.04-.04c.04-.04.24-.2.52-.4.16-.12.96-1.04,1.36-1.52a29.5,29.5,0,0,0,3.6-5.68,129.155,129.155,0,0,0,13.2-1.04,12.469,12.469,0,0,1,1.6-.2l-.24-2.72c-2.2.72-6.2,1.2-12.6,1.52a6.809,6.809,0,0,0-.84.04c.2-.36.72-1.44,1.24-2.72a8.494,8.494,0,0,1,1.04-2.16l-3.2-.56c-.12,1.28-.6,2.68-1.92,5.48Zm42.56-3a25.536,25.536,0,0,1-4.04-.2v2.32a38.656,38.656,0,0,1,4.12-.16h6.52a17.484,17.484,0,0,1-1.2,2.28H139.2a34.325,34.325,0,0,1-4.24-.16,24.534,24.534,0,0,1,.16,3.4v6.4a29.746,29.746,0,0,1-.12,3.28c1.24-.08,2.44-.12,3.96-.12H151c1.4,0,2.32.04,3.2.12a26.444,26.444,0,0,1-.16-3.56v-6.04a27.419,27.419,0,0,1,.16-3.48,28.905,28.905,0,0,1-3.88.16H144.4c.36-.68.72-1.36,1.16-2.28h7.68a34.534,34.534,0,0,1,3.96.16v-2.32a23.8,23.8,0,0,1-3.96.2h-3.96a37.975,37.975,0,0,0,2.48-3.04l-2.4-.76a25.816,25.816,0,0,1-2.76,3.8h-4.8a22.936,22.936,0,0,0-2.44-3.88l-2.36.6a18.652,18.652,0,0,1,2.36,3.28Zm.96,6.04h14.32v1.92H137.4Zm0,3.6h14.32v1.92H137.4Zm0,3.6h14.32v2H137.4ZM147.88-6.6H126.92a27.962,27.962,0,0,1-4.16-.24v2.6a29.49,29.49,0,0,1,4.16-.24h20.96V-.4c0,.84-.32,1-1.76,1a42.988,42.988,0,0,1-4.6-.28,6.275,6.275,0,0,1,.8,2.44c1.24.04,2.28.08,3.48.08,3.88,0,4.52-.4,4.52-2.8V-4.48h2.92a29.329,29.329,0,0,1,4.2.24v-2.6a27.962,27.962,0,0,1-4.16.24h-2.96V-8.92c2.72-.04,5.96-.08,7.4-.16a6.322,6.322,0,0,1,.92-2.36,146.22,146.22,0,0,1-16.28.56c-4.68,0-6.72-.16-8.08-.64a5.582,5.582,0,0,1-3.32-2.84v-4.52a24.539,24.539,0,0,1,.16-3.6,20.684,20.684,0,0,1-3.04.16h-2.24a16.161,16.161,0,0,1-3.12-.2v2.36a17.89,17.89,0,0,1,2.96-.16h2.88v6.2a33.4,33.4,0,0,1-5.04,3c-.24.12-.4.16-.44.2a2.556,2.556,0,0,1-.76.32l1.24,2.28c.64-.4.76-.48,1-.6a40.122,40.122,0,0,0,5.32-3.56c2.28,3.08,4.4,3.6,14.56,3.6h3.44ZM123.56-31.4a29.2,29.2,0,0,1,5.68,5.64l1.76-1.8a34.576,34.576,0,0,0-5.76-5.32ZM138.32.4a31.338,31.338,0,0,0-5.6-4.68l-1.76,1.44a22.435,22.435,0,0,1,5.48,5ZM178.8-28.32a34.777,34.777,0,0,1-1.28,8.72,32.366,32.366,0,0,1-6.16,11.64,33.552,33.552,0,0,1-9.28,7.88,7.174,7.174,0,0,1,2.16,2.36,37.846,37.846,0,0,0,5.04-3.92,38,38,0,0,0,5.4-6.08,34.457,34.457,0,0,0,5.6-12.96,31.518,31.518,0,0,0,2.52,7.4,36.8,36.8,0,0,0,5.72,8.64,37.489,37.489,0,0,0,7.76,6.84,8.827,8.827,0,0,1,2.24-2.56,32.558,32.558,0,0,1-7.48-5.8,35.75,35.75,0,0,1-6-8.28,29.168,29.168,0,0,1-3.4-13.96,20.718,20.718,0,0,1,.16-2.64,19.041,19.041,0,0,1-3.72.24H172.8a15.014,15.014,0,0,1-3.04-.2v2.88c1.32-.12,2.28-.2,3.04-.2Z" transform="translate(800 8680.304)" fill="#3c505a"/>
    <g id="Group_216" data-name="Group 216" transform="translate(5 10.464)">
      <g id="Group_217" data-name="Group 217" transform="translate(3 -3)">
        <g id="Group_174" data-name="Group 174" transform="translate(-44 -1183.695)">
          <g id="Union_2" data-name="Union 2" transform="translate(2395.999 -7818.562)" fill="#3c505a">
            <path d="M -1209.499755859375 17604 L -1440.501098632812 17604 L -1440.501098632812 17578.998046875 L -1440.501098632812 17578.77734375 L -1440.663208007812 17578.62890625 L -1446.260864257812 17573.498046875 L -1440.663330078125 17568.37109375 L -1440.501098632812 17568.22265625 L -1440.501098632812 17568.001953125 L -1440.501098632812 17543 L -1209.499755859375 17543 L -1209.499755859375 17604 Z" stroke="none"/>
            <path d="M -1209.999755859375 17603.5 L -1209.999755859375 17543.5 L -1440.001098632812 17543.5 L -1440.001098632812 17568.44140625 L -1440.325561523438 17568.740234375 L -1445.520751953125 17573.498046875 L -1440.001098632812 17578.55859375 L -1440.001098632812 17603.5 L -1209.999755859375 17603.5 M -1208.999755859375 17604.5 L -1441.001098632812 17604.5 L -1441.001098632812 17578.998046875 L -1447.0009765625 17573.498046875 L -1441.001098632812 17568.001953125 L -1441.001098632812 17542.5 L -1208.999755859375 17542.5 L -1208.999755859375 17604.5 Z" stroke="none" fill="#3c505a"/>
          </g>
          <path id="Path_259" data-name="Path 259" d="M-98.6-3.42a13.759,13.759,0,0,1-3.24-4.248c.216-1.8.288-2.556.4-4.572a9.149,9.149,0,0,1,.072-1.116l-2.34-.216a10.6,10.6,0,0,1,.108,1.584,28.827,28.827,0,0,1-.9,7.308,18.294,18.294,0,0,1-2.376,5.868,6.638,6.638,0,0,1,1.908,1.3,27.889,27.889,0,0,0,2.736-7.632A12.651,12.651,0,0,0-97.308-.072c2.808,1.548,5.94,1.98,14.688,1.98,3.132,0,4.968-.036,8.676-.18a6.664,6.664,0,0,1,.792-2.484,93.37,93.37,0,0,1-11.088.5c-7.308,0-9.828-.324-12.24-1.656V-8.964h2.3a16.518,16.518,0,0,1,2.952.216v-2.3a17.3,17.3,0,0,1-2.916.18h-2.34V-16.02h2.124a16.837,16.837,0,0,1,3.384.216v-2.412A18.722,18.722,0,0,1-94.32-18h-2.3v-4.824h1.944a20.264,20.264,0,0,1,3.2.18v-2.3a16.71,16.71,0,0,1-3.2.18h-1.944v-1.476a17.01,17.01,0,0,1,.252-3.528H-99a17.376,17.376,0,0,1,.216,3.528v1.476h-2.88a16.5,16.5,0,0,1-3.168-.18v2.3a20.331,20.331,0,0,1,3.168-.18h2.88V-18h-3.348a20.534,20.534,0,0,1-3.528-.216V-15.8a20.626,20.626,0,0,1,3.492-.216H-98.6Zm13.32-22.5c-.324,5.04-1.512,6.984-5.688,9.216A5.363,5.363,0,0,1-89.5-14.9c3.06-1.908,4.464-3.42,5.436-5.9a16.762,16.762,0,0,0,.972-5.112h5.616c-.072,3.564-.36,6.552-.684,7.128-.288.432-.684.576-1.836.576a24.323,24.323,0,0,1-3.024-.252,5.964,5.964,0,0,1,.5,2.268c1.008.036,1.476.072,2.088.072,2.3,0,3.132-.216,3.816-1.044.792-.9,1.008-2.2,1.26-7.2.18-3.1.18-3.1.252-3.708a24.641,24.641,0,0,1-3.42.18H-86.76a22.116,22.116,0,0,1-3.6-.216V-25.7a15.261,15.261,0,0,1,3.276-.216ZM-89.46-6.444A25.167,25.167,0,0,1-89.6-3.06a27.177,27.177,0,0,1,3.816-.18H-79.2a29.039,29.039,0,0,1,3.852.18,25.559,25.559,0,0,1-.144-3.564v-3.924a24.988,24.988,0,0,1,.144-3.492,27.688,27.688,0,0,1-3.888.18H-86a23.6,23.6,0,0,1-3.6-.18,21.5,21.5,0,0,1,.144,3.2Zm2.16-5.472h9.612v6.732H-87.3ZM-54-16.632a2.965,2.965,0,0,0-2.952,2.952A2.965,2.965,0,0,0-54-10.728a2.965,2.965,0,0,0,2.952-2.952A2.965,2.965,0,0,0-54-16.632Zm46.656-7.56h-11.88a30.894,30.894,0,0,1-3.492-.144v2.16a27.438,27.438,0,0,1,3.492-.144h11.88v2.664H-20.088a24.239,24.239,0,0,1-3.564-.18V-17.6a24.842,24.842,0,0,1,3.564-.18H-8.1c1.62,0,2.16,0,3.06.072-.072-.792-.108-1.476-.108-2.556v-5.868c0-1.08.036-1.8.108-2.664a25.041,25.041,0,0,1-3.132.144H-19.764a29.767,29.767,0,0,1-3.78-.216v2.34a25.87,25.87,0,0,1,3.672-.18H-7.344Zm.144,13.14a23.8,23.8,0,0,1-3.2.144H-19.98a23,23,0,0,1-2.916-.18v2.2c.648-.072,1.116-.108,2.16-.144a18.128,18.128,0,0,0,5.04,5.8A33.205,33.205,0,0,1-26.784.36,6.842,6.842,0,0,1-25.56,2.484,36.722,36.722,0,0,0-13.9-1.944a40.674,40.674,0,0,0,10.872,4.5A7.455,7.455,0,0,1-1.8.36,39.637,39.637,0,0,1-12.024-3.2,22.792,22.792,0,0,0-6.912-8.28c.54-.756.54-.756,1.044-1.44ZM-8.964-9.036a17.127,17.127,0,0,1-4.86,4.644,14.839,14.839,0,0,1-4.5-4.644ZM-32.148-27.828A27.505,27.505,0,0,1-26.5-23.04l1.512-1.728a33.485,33.485,0,0,0-5.688-4.68ZM-34.02-19.08a24.028,24.028,0,0,1,6.012,4.536l1.332-1.944a33.665,33.665,0,0,0-6.048-4.32Zm5.4,8.856c-1.764,4.932-4.032,9.18-5.616,10.476l1.98,1.908c.144-.216.144-.216.36-.576a2.557,2.557,0,0,0,.324-.576c.216-.324.216-.324.576-.9a45.835,45.835,0,0,0,4.1-8.784Zm2.88-1.692a13.305,13.305,0,0,1-.144,2.16h2.268v-3.78H-4.752v4.068h2.34a12.4,12.4,0,0,1-.144-2.2v-1.764a18.106,18.106,0,0,1,.108-2.124c-.936.072-1.584.108-3.492.108H-22.464c-1.4,0-2.484-.036-3.384-.108a16.471,16.471,0,0,1,.108,2.124Zm50.76-1.368a26.707,26.707,0,0,1-1.584,4.392c1.188-.072,1.656-.072,2.916-.072h3.2A18.05,18.05,0,0,1,29.2-6.12c-.252,1.224-.54,1.44-2.124,1.44a27.972,27.972,0,0,1-4.68-.4,10.5,10.5,0,0,1,.5,2.16c1.692.144,3.024.216,4.248.216,2.3,0,3.24-.4,3.744-1.62a17.925,17.925,0,0,0,.864-4.788c.108-1.008.144-1.26.216-1.728a19.4,19.4,0,0,1-2.556.108h-3.1c.324-.9.576-1.62.828-2.448.432-1.4.432-1.4.612-2.016a20.813,20.813,0,0,1-2.628.108h-9.4a14.278,14.278,0,0,1-2.448-.144v2.088a11.891,11.891,0,0,1,2.2-.144h2.556a11.32,11.32,0,0,1-1.008,3.528c-1.08,2.3-2.412,3.492-5.832,5.292A6.3,6.3,0,0,1,12.78-2.7c3.42-2.052,4.86-3.456,6.12-5.94a15.872,15.872,0,0,0,1.332-4.644ZM20.772-26.568v2.88h-7.02a14.328,14.328,0,0,1-2.592-.144v2.124a14.075,14.075,0,0,1,2.412-.144h5.436a20.946,20.946,0,0,1-2.268,1.836,22.748,22.748,0,0,1-6.7,3.24,5.533,5.533,0,0,1,1.188,1.944,25.843,25.843,0,0,0,5.148-2.7,22.847,22.847,0,0,0,4.536-3.924,18.631,18.631,0,0,0-.144,2.268v1.332a12.51,12.51,0,0,1-.108,1.764h2.3a10.859,10.859,0,0,1-.108-1.764v-1.332c0-.612-.036-1.152-.144-2.3a20.8,20.8,0,0,0,5.256,4.464A25.65,25.65,0,0,0,33.8-14.436a8.437,8.437,0,0,1,1.116-2.088,23.619,23.619,0,0,1-7.344-3.06,18.265,18.265,0,0,1-3.06-2.268h6.516a19.266,19.266,0,0,1,2.808.18v-2.2a18.2,18.2,0,0,1-2.808.18H22.86v-3.06c3.06-.324,5.148-.612,9.18-1.332l-1.692-2.052a4.036,4.036,0,0,1-1.08.4c-.648.216-4.32.792-6.156,1.008a89.041,89.041,0,0,1-11.736.756,5.658,5.658,0,0,1,.828,1.944c2.628-.072,3.132-.108,5.94-.324Zm-18.4-1.224a34.971,34.971,0,0,1,5.58,6.48l1.836-1.62a44.52,44.52,0,0,0-5.76-6.3Zm-.288,14.4a14.514,14.514,0,0,1,2.664-.18H7.128V-4.9A24.3,24.3,0,0,1,1.3-.54L2.484,1.836c.756-.684.864-.756,1.4-1.188A36.864,36.864,0,0,0,8.136-3.06,8.485,8.485,0,0,0,11.88.324c2.16,1.008,4.1,1.26,10.116,1.26,4.5,0,8.64-.072,12.312-.252A9.175,9.175,0,0,1,35.136-1.3a99.563,99.563,0,0,1-13.968.72c-5.76,0-7.74-.36-9.756-1.728A5.344,5.344,0,0,1,9.36-4.968V-12.1a24.959,24.959,0,0,1,.18-3.672,16.035,16.035,0,0,1-2.772.18H4.9a14.545,14.545,0,0,1-2.808-.18ZM57.6-16.452H53.064a20.694,20.694,0,0,1-3.2-.216v2.376c.864-.108,1.3-.144,2.16-.18a17.779,17.779,0,0,0,1.656,3.888,23.462,23.462,0,0,0,3.78,5.256A28.638,28.638,0,0,1,46.836.288a7.328,7.328,0,0,1,1.332,2.16A33.228,33.228,0,0,0,59-3.78,34.057,34.057,0,0,0,69.192,2.628a9.648,9.648,0,0,1,1.4-2.3,27.478,27.478,0,0,1-9.936-5.58,31.461,31.461,0,0,0,6.084-7.956,18.023,18.023,0,0,1,1.116-2.016L66.636-16.6a13.7,13.7,0,0,1-2.484.144H59.8V-22.32h6.12a26.541,26.541,0,0,1,3.744.216v-2.484a26.9,26.9,0,0,1-3.744.216H59.8v-1.8a21.586,21.586,0,0,1,.252-3.636h-2.7a22.762,22.762,0,0,1,.252,3.636v1.8H53.28a29.871,29.871,0,0,1-3.78-.18v2.412a31.4,31.4,0,0,1,3.816-.18H57.6Zm7.308,1.98a24.118,24.118,0,0,1-5.832,7.74,19.456,19.456,0,0,1-4.824-7.74Zm-21.78-6.3v8.1a21.8,21.8,0,0,1-5,1.728l.72,2.448c.54-.288.9-.432,1.44-.684,1.044-.432,1.872-.756,2.844-1.188V-.72c0,.828-.288,1.044-1.4,1.044A23.337,23.337,0,0,1,38.412.036a6.516,6.516,0,0,1,.54,2.268c.9.072,1.836.108,2.7.108,2.988,0,3.744-.5,3.744-2.556V-11.412c1.3-.612,1.3-.612,3.492-1.692l-.036-2.232c-1.62.828-2.2,1.116-3.456,1.692v-7.128h.756a22.044,22.044,0,0,1,2.736.144v-2.34a15.247,15.247,0,0,1-2.664.18H45.4V-26.28a21.42,21.42,0,0,1,.252-3.6H42.876a23.07,23.07,0,0,1,.252,3.636v3.456H41.184A17.382,17.382,0,0,1,38.232-23v2.448a18.916,18.916,0,0,1,2.952-.216ZM90.792-22.5v-3.708a22.894,22.894,0,0,1,.216-3.384H88.416a23.952,23.952,0,0,1,.216,3.384V-22.5h-2.3a17.743,17.743,0,0,1-3.132-.18V-20.3A15.241,15.241,0,0,1,86-20.484h2.628V-1.692a33.643,33.643,0,0,1-.216,4.032h2.592a31.988,31.988,0,0,1-.216-4.032V-20.484h2.34a15.241,15.241,0,0,1,2.808.18V-22.68a17.788,17.788,0,0,1-3.1.18Zm9.756,4.5V-.936c0,.648-.252.792-1.188.792a22.177,22.177,0,0,1-4.32-.4,8.688,8.688,0,0,1,.468,2.34c.828.072,2.376.144,3.276.144a8.7,8.7,0,0,0,3.024-.4c.684-.288,1.008-1.116,1.008-2.448V-18h.792a16.051,16.051,0,0,1,2.916.18v-2.412a15.811,15.811,0,0,1-2.916.18h-4.9a13.731,13.731,0,0,1-2.736-.18v2.412A14.177,14.177,0,0,1,98.712-18ZM80.136-29.988c-1.008,2.268-3.528,5-6.624,7.2a5.257,5.257,0,0,1,1.4,1.764,32.692,32.692,0,0,0,5.8-5.8c1.08-1.44,1.08-1.44,1.548-1.98Zm3.852,12.6C83.844-11.3,82.98-6.876,81.18-2.844a10.26,10.26,0,0,1,1.944,1.152c1.656-4.032,2.52-8.46,2.952-15.48Zm8.6.432a63.238,63.238,0,0,1,2.7,13.428l2.124-.756A80.311,80.311,0,0,0,94.5-17.532Zm-.936-11.16a20.424,20.424,0,0,1,2.988,4.572l1.692-1.116a27.107,27.107,0,0,0-3.024-4.392Zm14.22.54a18.017,18.017,0,0,1-2.7.18H99.612a18.016,18.016,0,0,1-2.7-.18v2.412a19.385,19.385,0,0,1,2.664-.18h3.6a18.755,18.755,0,0,1,2.7.18ZM77.4-1.8a25.87,25.87,0,0,1-.216,4.248h2.628A25.122,25.122,0,0,1,79.6-1.764V-16.488c.54-.72,1.44-2.052,1.836-2.7.4-.72.828-1.368,1.188-1.944l-2.088-1.332a14.665,14.665,0,0,1-1.584,3.2A23.3,23.3,0,0,1,73.152-13a7.524,7.524,0,0,1,1.26,2.016,18.922,18.922,0,0,0,3.1-3.276c-.072,1.692-.108,2.772-.108,4.212Z" transform="translate(1072 9768.071)" fill="#fff"/>
        </g>
        <g id="Group_173" data-name="Group 173" transform="translate(-34 -1183.758)">
          <path id="Path_258" data-name="Path 258" d="M-192.7-25.042a38.4,38.4,0,0,1-7.752,1.634v-3.648a21.732,21.732,0,0,1,.19-3.534h-2.812a25.244,25.244,0,0,1,.19,3.61v3.762c-1.14.076-2.622.114-3.648.114a21.522,21.522,0,0,1-3.876-.266v2.508h1.558c.418.038,1.444.038,2.014.038,1.1,0,1.748,0,2.432-.038,1.178-.076,1.178-.076,1.52-.114v7.182a20.328,20.328,0,0,0-5.358,3.116c-2.052,1.748-3,3.382-3,5.054a4.583,4.583,0,0,0,1.748,3.572A10.036,10.036,0,0,0-203.224.38c1.862,0,2.774-.988,2.774-3.04v-9.5a25.64,25.64,0,0,1,8.056-1.482c4.978,0,8.132,2.318,8.132,6.042a5.044,5.044,0,0,1-5.092,5.358c-2.774,0-3.914-1.634-3.914-5.586a11.285,11.285,0,0,1,.076-1.482,8.236,8.236,0,0,1-2.508.988,13.866,13.866,0,0,0,.456,4.294A5.6,5.6,0,0,0-189.392.266,7.691,7.691,0,0,0-181.64-7.6a7.647,7.647,0,0,0-3.914-6.726,12.865,12.865,0,0,0-6.726-1.6,26.921,26.921,0,0,0-8.17,1.368v-6.574a66.695,66.695,0,0,0,6.726-1.14c.532-.114.684-.152,1.14-.228ZM-202.882-4.066c0,1.634-.114,1.862-.874,1.862a7.1,7.1,0,0,1-3.382-1.1c-1.1-.722-1.634-1.482-1.634-2.28,0-1.824,2.128-3.876,5.89-5.7Zm22.838-16.074a31.932,31.932,0,0,0-7.676-7.22l-1.976,1.482a31.123,31.123,0,0,1,7.676,7.448Zm15.808,10.412v8.664c0,.95-.19,1.14-1.178,1.14A16.917,16.917,0,0,1-168.72-.3a6.777,6.777,0,0,1,.494,2.432c1.254.114,2.2.152,3.04.152,2.546,0,3.268-.684,3.268-3.078V-25.764a38.277,38.277,0,0,1,.152-4.332,19.935,19.935,0,0,1-3.23.19h-3.762a21.166,21.166,0,0,1-3.344-.19c.114,1.292.152,2.66.152,5.89,0,10.45-.114,14.136-.57,17.48A16.277,16.277,0,0,1-175.1.8a6.969,6.969,0,0,1,1.938,1.862c2.014-3.382,2.774-6.346,3.23-12.388Zm0-11.248h-5.358V-27.74h5.358Zm0,2.166v6.916h-5.586c.152-3.116.19-3.762.19-6.916Zm9.158-8.55h6.346V-.418c0,1.672.95,2.318,3.534,2.318,2.394,0,3.42-.3,4.028-1.14.646-.874.95-3.268,1.14-8.284a9,9,0,0,1-2.318-1.026,36.464,36.464,0,0,1-.532,7.372c-.228.646-.76.912-1.9.912-1.216,0-1.52-.19-1.52-.836V-26.03a36.222,36.222,0,0,1,.152-3.8,20.531,20.531,0,0,1-3.382.19h-4.788a20.308,20.308,0,0,1-3.344-.19,16.183,16.183,0,0,1,.152,2.318v5.738A81.349,81.349,0,0,1-158.878-5.32a16.592,16.592,0,0,1-2.7,6.27,9.374,9.374,0,0,1,1.976,1.9,22.563,22.563,0,0,0,3.534-9.766,121.9,121.9,0,0,0,.988-16.758Zm37.126,2.166a10.936,10.936,0,0,1,4.408.95,10.018,10.018,0,0,1,6.042,9.538,11.471,11.471,0,0,1-6.726,10.64,22.778,22.778,0,0,1-6.346,1.786,6.038,6.038,0,0,1,1.33,2.546,29.4,29.4,0,0,0,5.776-1.748,13.837,13.837,0,0,0,8.7-13.11,12.72,12.72,0,0,0-3.686-9.272c-2.47-2.432-6.194-3.762-10.45-3.762-5.092,0-9.234,1.71-12.274,5.054a15.808,15.808,0,0,0-3.99,10.488c0,5.32,2.7,9.272,6.308,9.272,2.736,0,4.978-2.28,7.182-7.3A56.963,56.963,0,0,0-117.952-25.194Zm-2.736.038a52.194,52.194,0,0,1-3.458,14.06c-1.634,3.724-3.154,5.51-4.75,5.51-2.052,0-3.648-2.812-3.648-6.46A13.141,13.141,0,0,1-126.35-23.37,12,12,0,0,1-120.688-25.156ZM-69.122-6.118a26.435,26.435,0,0,1,3.8.228V-8.436a25.356,25.356,0,0,1-3.8.228H-81.4a16.354,16.354,0,0,0,.456-1.938,3.855,3.855,0,0,0,.152-.684l-2.66-.114v.3a7.95,7.95,0,0,1-.418,2.432h-11.1a25.71,25.71,0,0,1-3.8-.228V-5.89a27.963,27.963,0,0,1,3.8-.228h10.146C-87.286-2.166-91.96.038-98.914.494A6.467,6.467,0,0,1-97.622,2.85c7.942-1.216,12.844-4.028,15.314-8.778a13.872,13.872,0,0,0,4.75,4.864A28.345,28.345,0,0,0-65.968,2.85,9.68,9.68,0,0,1-64.714.342,26.537,26.537,0,0,1-74.9-2.166a12.977,12.977,0,0,1-4.9-3.952ZM-85.006-17.784a19.715,19.715,0,0,1-7.106,4.978,5.485,5.485,0,0,1,1.33,1.824,20.689,20.689,0,0,0,7.676-6.384c-.076.532-.152,1.672-.152,2.09v1.368a5.751,5.751,0,0,1-.19,1.9h2.432a6.521,6.521,0,0,1-.19-1.862v-1.52c0-.494-.038-.8-.152-1.976a20.827,20.827,0,0,0,8.208,6.308,8.552,8.552,0,0,1,1.33-1.976,18.2,18.2,0,0,1-7.676-4.75h4.218a16.69,16.69,0,0,1,3.078.19v-2.242a15.953,15.953,0,0,1-3.078.19h-5.89v-3.192a15.03,15.03,0,0,1,.152-2.356h-2.432a16.5,16.5,0,0,1,.19,2.394v3.154H-88.54a16.606,16.606,0,0,1-3.154-.19v2.242a17.872,17.872,0,0,1,3.154-.19Zm-6.612-10.374a35.448,35.448,0,0,1-3.762-.152,17.724,17.724,0,0,1,.152,2.622V-12.54a18.161,18.161,0,0,1-.152,2.7h2.508v-16.3h21.926v16.3h2.508a17.3,17.3,0,0,1-.152-2.66V-25.726a16.863,16.863,0,0,1,.152-2.584,34.836,34.836,0,0,1-3.686.152h-11.21c.57-.874,1.634-2.736,2.09-3.648l-2.546-.57a16.661,16.661,0,0,1-2.052,4.218Zm1.254,3.914a13.779,13.779,0,0,1,2.888,3.952l1.786-.95a16.983,16.983,0,0,0-2.926-3.914Zm14.706-1.026a15.965,15.965,0,0,1-3.116,4.522l1.71.76a26.085,26.085,0,0,0,3.268-4.37Zm17.822-3.838.874,5.016-3.914-3.23-1.482,2.2,4.864,1.9-4.75,1.786,1.368,2.28,3.952-3.268-.912,5.092h2.812l-.912-5.092,3.914,3.268,1.368-2.28-4.712-1.786,4.864-1.9-1.482-2.2-3.914,3.23.874-5.016ZM-16.606-3.04A12.991,12.991,0,0,1-17.9-3.914,33.262,33.262,0,0,0-28.5-9.462c-.152-3.686-.152-3.686-.228-5.814,2.812-.19,5.814-.494,8.436-.912,1.33-.19,1.71-.228,2.2-.266l-.152-2.622c-2.09.722-5.358,1.178-10.526,1.558-.038-2.014-.038-2.014-.076-5.13a78.941,78.941,0,0,0,8.816-.912c1.976-.266,1.976-.266,2.622-.3l-.19-2.584c-2.09.684-6,1.216-11.248,1.558a42.41,42.41,0,0,1,.266-5.358H-31.5c.152.836.152.836.19,5.472-1.254,0-2.546.038-3.306.038a47.208,47.208,0,0,1-9.728-.76l-.038,2.584a3.1,3.1,0,0,1,.532-.038,4.611,4.611,0,0,1,.684.038c3.42.266,6.5.38,9.272.38.874,0,1.482,0,2.584-.038l.076,5.206c-1.064.038-2.394.038-3.382.038a46.638,46.638,0,0,1-8.7-.608l-.038,2.508h.3c.228,0,.532,0,.95.038,2.356.19,4.142.266,6.422.266,1.216,0,3.116-.038,4.484-.076.038.988.038,1.71.076,2.2.038,1.1.038,1.9.076,2.242a3.028,3.028,0,0,0,.038.418c0,.342,0,.342.038.456a16.9,16.9,0,0,0-3.42-.3,16.553,16.553,0,0,0-3.952.38c-3.344.76-5.32,2.736-5.32,5.244A4.97,4.97,0,0,0-41.61-.57,9.9,9.9,0,0,0-35.72.95c3,0,5.32-.836,6.422-2.394.684-.912.95-2.128.95-4.142a10.925,10.925,0,0,0-.076-1.368c1.026.418,1.9.8,2.546,1.14A30.578,30.578,0,0,1-18.126-.38ZM-30.932-6.118c0,1.824-.228,2.888-.76,3.42-.722.836-2.166,1.254-4.18,1.254-3.306,0-5.206-1.14-5.206-3.154s2.47-3.382,6.232-3.382a13.949,13.949,0,0,1,3.876.418Zm45.79-13.756a23.334,23.334,0,0,1,3.42,5.4l1.938-.988a26.879,26.879,0,0,0-3.5-5.32Zm3.686-1.786A24.778,24.778,0,0,1,22-16.264l1.9-.988a26.879,26.879,0,0,0-3.5-5.32Zm-26.79-.494c1.862-.418,5.244-.722,13.11-1.254a73.639,73.639,0,0,0,8.36-.836,24.875,24.875,0,0,0-3.61,2.014c-4.522,3.078-7.106,7.258-7.106,11.666A9.2,9.2,0,0,0,6.726-2.812C8.892-1.33,11.172-.532,14.934.114c.608.114.76.152,1.178.228l.494-3.078h-.38a19.476,19.476,0,0,1-5.7-1.216c-3.382-1.292-5.32-3.838-5.32-7.03,0-3.154,1.634-6.232,4.674-8.778a18.69,18.69,0,0,1,7.3-3.8,15.938,15.938,0,0,1,4.256-.532L21.2-26.9a36.309,36.309,0,0,1-4.522.418c-4.9.19-17.062.912-21.584,1.254-1.178.076-1.634.114-2.166.114-.266,0-.646,0-1.368-.038Zm64.638-3.382H43.852a32.611,32.611,0,0,1-3.686-.152v2.28a28.962,28.962,0,0,1,3.686-.152h12.54v2.812H42.94a25.585,25.585,0,0,1-3.762-.19v2.356a26.222,26.222,0,0,1,3.762-.19H55.594c1.71,0,2.28,0,3.23.076-.076-.836-.114-1.558-.114-2.7v-6.194c0-1.14.038-1.9.114-2.812a26.433,26.433,0,0,1-3.306.152H43.282a31.421,31.421,0,0,1-3.99-.228v2.47a27.308,27.308,0,0,1,3.876-.19H56.392Zm.152,13.87a25.121,25.121,0,0,1-3.382.152H43.054a24.281,24.281,0,0,1-3.078-.19v2.318c.684-.076,1.178-.114,2.28-.152a19.135,19.135,0,0,0,5.32,6.118,35.05,35.05,0,0,1-11.7,3.8,7.222,7.222,0,0,1,1.292,2.242A38.762,38.762,0,0,0,49.476-2.052,42.934,42.934,0,0,0,60.952,2.7,7.869,7.869,0,0,1,62.244.38,41.84,41.84,0,0,1,51.452-3.382a24.059,24.059,0,0,0,5.4-5.358c.57-.8.57-.8,1.1-1.52ZM54.682-9.538a18.079,18.079,0,0,1-5.13,4.9,15.663,15.663,0,0,1-4.75-4.9ZM30.21-29.374a29.033,29.033,0,0,1,5.966,5.054l1.6-1.824a35.346,35.346,0,0,0-6-4.94ZM28.234-20.14a25.363,25.363,0,0,1,6.346,4.788L35.986-17.4a35.536,35.536,0,0,0-6.384-4.56Zm5.7,9.348C32.072-5.586,29.678-1.1,28.006.266L30.1,2.28c.152-.228.152-.228.38-.608a2.7,2.7,0,0,0,.342-.608c.228-.342.228-.342.608-.95a48.381,48.381,0,0,0,4.332-9.272Zm3.04-1.786a14.044,14.044,0,0,1-.152,2.28h2.394v-3.99H59.128v4.294H61.6a13.086,13.086,0,0,1-.152-2.318v-1.862a19.113,19.113,0,0,1,.114-2.242c-.988.076-1.672.114-3.686.114H40.432c-1.482,0-2.622-.038-3.572-.114a17.386,17.386,0,0,1,.114,2.242Zm34.77-13.11a20.867,20.867,0,0,1,2.774-.19c3.61-.114,4.18-.152,7.182-.38-1.33,4.408-1.786,5.852-3.04,9.576a12.418,12.418,0,0,0-6.84,1.634A8.536,8.536,0,0,0,67.3-7.524c0,3.534,2.166,6.232,5.016,6.232,1.824,0,3.23-1.14,4.6-3.762a73.732,73.732,0,0,0,3.572-9.158,28.009,28.009,0,0,1,10.488,3.154,14.776,14.776,0,0,1-3.5,6.384A16.719,16.719,0,0,1,81.32-.3a9.785,9.785,0,0,1,2.014,1.976,20.53,20.53,0,0,0,6.042-4.636A17.938,17.938,0,0,0,93.29-9.842,43.935,43.935,0,0,1,99.218-6.08l1.026-2.926a7.113,7.113,0,0,1-1.1-.57c-1.862-1.1-3.154-1.786-5.206-2.85a51.928,51.928,0,0,0,.684-8.246,14.428,14.428,0,0,1,.152-2.356l-2.85-.038a9.228,9.228,0,0,1,.152,1.862,43.062,43.062,0,0,1-.456,7.714,29.792,29.792,0,0,0-10.374-3c.684-2.014.95-2.736,1.786-5.32,1.52-4.6,1.6-4.826,2.09-5.51l-2.014-1.6a2.794,2.794,0,0,1-1.406.456c-1.254.152-4.294.266-6.384.266a18.141,18.141,0,0,1-3.686-.228ZM77.9-14.4c-2.774,8.094-4.066,10.45-5.624,10.45-1.368,0-2.47-1.6-2.47-3.61a6.319,6.319,0,0,1,1.824-4.37C73.15-13.452,75.05-14.174,77.9-14.4Zm28.652,8.664a32.4,32.4,0,0,1,3.42-3.61,10.692,10.692,0,0,0,1.976-2.09h.076c-.076.912-.076,1.216-.114,5.852,0,6,0,6-.19,7.182h3c-.19-1.748-.228-3.648-.228-15.086,4.978-4.484,8.4-6.27,12.122-6.27,4.332,0,7.258,3,7.258,7.448a9.605,9.605,0,0,1-1.064,4.56,8.46,8.46,0,0,1-7.6,4.294,16.642,16.642,0,0,1-6.726-1.482,9.341,9.341,0,0,1,.3,2.2,4.961,4.961,0,0,1-.038.646,19.168,19.168,0,0,0,6.46,1.14c6.916,0,11.476-4.56,11.476-11.438,0-5.814-4.18-9.88-10.222-9.88-3.382,0-6.308,1.14-9.614,3.762a20.813,20.813,0,0,0-2.2,1.938l-.114.114h-.076c0-.076.076-1.368.19-3.838a11.235,11.235,0,0,1,2.014-2.47l-.988-1.254a2.22,2.22,0,0,1-.874.228c.038-.874.038-.874.076-2.166a23.819,23.819,0,0,1,.38-4.408h-3a6.837,6.837,0,0,1,.114,1.482c0,1.482-.038,2.926-.152,5.282-3.116.228-4.712.3-5.282.3-.3,0-.532,0-1.064-.038l.19,2.622a33.191,33.191,0,0,1,4.18-.456c1.406-.076,1.406-.076,1.938-.114-.114,3.23-.114,3.572-.19,6.726-.494.418-.494.418-1.1.988-1.292,1.178-1.292,1.178-2.584,2.394a28.12,28.12,0,0,1-3.268,2.812ZM144.362-21.2a5.658,5.658,0,0,1,.646-.038h.152c1.482.076,1.824.076,3.154.076,1.406,0,1.862,0,2.622-.038C149.53-13.756,146.6-5.092,143.792-.19L146.566.988a100.133,100.133,0,0,0,4.37-11.59c1.026-3.458,2.09-7.752,2.66-10.754a55.543,55.543,0,0,0,6.422-.912c.76-.152.76-.152,1.064-.19l-.19-2.622a31.333,31.333,0,0,1-6.84,1.292c.19-1.14.3-1.672.494-2.888a35.93,35.93,0,0,1,.684-3.61l-3-.3c0,1.672-.076,2.318-.836,6.992-1.1.076-1.52.076-2.28.076a26.207,26.207,0,0,1-4.75-.342Zm28.69,1.862c-2.85-.114-3.42-.114-4.142-.114A43.053,43.053,0,0,0,158.84-18.2l.266,2.584a33.074,33.074,0,0,1,9.5-1.292,38.15,38.15,0,0,1,4.484.266ZM159.22-11.134c-2.014,2.584-2.546,3.762-2.546,5.472,0,3.762,3.23,5.7,9.462,5.7A38.078,38.078,0,0,0,172.9-.608c1.254-.19,1.254-.19,1.672-.266l-.266-2.85a28.233,28.233,0,0,1-8.4,1.292c-4.332,0-6.65-1.216-6.65-3.5a4.573,4.573,0,0,1,.95-2.7,12.735,12.735,0,0,1,1.14-1.444ZM186.162-25.46a18.719,18.719,0,0,1,2.052-.19c5.776-.19,10.336-.456,11.552-.684a1.47,1.47,0,0,1,.342-.038l.076.076-.152.152-.152.152-.532.532c-2.622,2.584-8.626,7.866-12.692,11.1a42.336,42.336,0,0,1-5.32,3.876l1.71,2.432a24.386,24.386,0,0,1,16-6.5c5.13,0,8.17,2.166,8.17,5.814,0,3.23-2.09,5.548-6.08,6.65a10.878,10.878,0,0,0-1.748-3.648,7.654,7.654,0,0,0-6.27-3.116c-3.154,0-5.51,1.9-5.51,4.446,0,3.5,3.078,5.472,8.436,5.472,8.436,0,13.946-3.914,13.946-9.842,0-4.864-4.066-7.98-10.412-7.98a19.254,19.254,0,0,0-9.31,2.356l-.076-.114c2.66-1.71,7.258-5.662,12.5-10.792a7.013,7.013,0,0,1,1.938-1.6l-1.6-2.09a3.886,3.886,0,0,1-1.824.418c-3.42.266-8.474.494-11.628.494a17.549,17.549,0,0,1-3.572-.228ZM198.626-1.406a13.682,13.682,0,0,1-2.774.266,9.709,9.709,0,0,1-4.256-.874,2.593,2.593,0,0,1-1.52-2.318c0-1.444,1.178-2.356,3.078-2.356C195.89-6.688,197.79-4.864,198.626-1.406Z" transform="translate(711 9770)" fill="#3c505a"/>
          <g id="Rectangle_150" data-name="Rectangle 150" transform="translate(476 9724)" fill="none" stroke="#3c505a" stroke-width="1">
            <rect width="470" height="62" stroke="none"/>
            <rect x="0.5" y="0.5" width="469" height="61" fill="none"/>
          </g>
        </g>
      </g>
    </g>
  </g>
</svg>
