<svg xmlns="http://www.w3.org/2000/svg" width="328" height="327" viewBox="0 0 328 327">
  <g id="Group_111" data-name="Group 111" transform="translate(-0.045 -0.464)">
    <circle id="Ellipse_84" data-name="Ellipse 84" cx="116.5" cy="116.5" r="116.5" transform="translate(0.045 94.464)" fill="#fffa96" opacity="0.7"/>
    <ellipse id="Ellipse_85" data-name="Ellipse 85" cx="116.5" cy="116" rx="116.5" ry="116" transform="translate(95.045 0.464)" fill="ivory" opacity="0.7"/>
    <path id="Intersection_1" data-name="Intersection 1" d="M0,21.606A117.382,117.382,0,0,1,1.713,1.575,116.71,116.71,0,0,1,20.863,0C85,0,137,52.111,137,116.394a117.374,117.374,0,0,1-1.713,20.031A116.705,116.705,0,0,1,116.137,138C52,138,0,85.889,0,21.606Z" transform="translate(95.045 94.464)" fill="#feffda"/>
    <path id="Path_188" data-name="Path 188" d="M-94.059,0h6.454V-1.106h-2.842c-.518,0-1.148.056-1.68.1,2.408-2.282,4.018-4.368,4.018-6.412a2.815,2.815,0,0,0-2.982-3.038,3.925,3.925,0,0,0-3.024,1.512l.742.728a2.874,2.874,0,0,1,2.128-1.19,1.8,1.8,0,0,1,1.89,2.03c0,1.764-1.484,3.808-4.7,6.622Zm8.176-7.308.518,1.232c1.106-.448,4.676-1.974,6.972-1.974,1.89,0,2.982,1.148,2.982,2.618,0,2.87-3.276,3.976-6.944,4.074l.5,1.162c4.312-.238,7.658-1.862,7.658-5.208,0-2.352-1.848-3.7-4.172-3.7a22.291,22.291,0,0,0-5.978,1.386A13.969,13.969,0,0,1-85.883-7.308ZM-60.193-4.9a5.073,5.073,0,0,0-5.362-5.152,5.967,5.967,0,0,0-6.118,5.7c0,2.31,1.246,3.738,2.492,3.738,1.3,0,2.408-1.47,3.262-4.354A27.541,27.541,0,0,0-65.079-9a3.9,3.9,0,0,1,3.738,4.06A4.228,4.228,0,0,1-64.9-.784,10.576,10.576,0,0,1-66.1-.6l.658,1.036C-62.125,0-60.193-1.96-60.193-4.9Zm-10.388.448a4.883,4.883,0,0,1,4.34-4.536,22.874,22.874,0,0,1-.784,3.78c-.714,2.366-1.456,3.3-2.114,3.3C-69.769-1.9-70.581-2.688-70.581-4.452ZM-51.359-.406V-3.85h4.4v-.994h-4.4V-7.91h4.97V-8.932h-4.522l.658-.476a16.055,16.055,0,0,0-2.562-2.254l-.84.588a15.72,15.72,0,0,1,2.38,2.142h-6.146V-7.91h4.956v3.066h-4.312v.994h4.312V-.406h-5.6V.616h12.376V-.406Zm15.834-10.612a14.332,14.332,0,0,1,2.478,1.68l.644-.714a13.354,13.354,0,0,0-2.506-1.6Zm1.988,3.78a13.864,13.864,0,0,1-1.792,3.78,25.252,25.252,0,0,1-.77-4.858h4.452V-9.338h-4.522c-.042-.756-.056-1.54-.056-2.352H-37.3c.014.8.028,1.582.084,2.352h-5.838v3.906c0,1.806-.126,4.2-1.274,5.908a4.141,4.141,0,0,1,.868.7c1.26-1.82,1.47-4.634,1.47-6.594V-5.53h2.548c-.056,2.408-.126,3.29-.322,3.5-.084.126-.224.154-.42.154-.238,0-.84-.014-1.484-.07a2.164,2.164,0,0,1,.294.98,16.154,16.154,0,0,0,1.666,0,1.083,1.083,0,0,0,.84-.406c.294-.364.378-1.54.448-4.676V-6.5h-3.57v-1.82h4.83a27.528,27.528,0,0,0,1.022,5.894,11.172,11.172,0,0,1-3.22,2.59,5.86,5.86,0,0,1,.756.826A12.517,12.517,0,0,0-35.721-1.33c.644,1.442,1.484,2.3,2.562,2.3S-31.717.28-31.521-2.1a2.461,2.461,0,0,1-.9-.56c-.1,1.862-.266,2.59-.658,2.59-.714,0-1.358-.8-1.876-2.17a15.786,15.786,0,0,0,2.464-4.732Zm7.2-4.186A11.891,11.891,0,0,1-30.527-6.16a6.051,6.051,0,0,1,.882.8,14.424,14.424,0,0,0,4.4-5.754Zm-1.918,4.97v1.008H-25.4C-25.725-3.08-26.5-.868-29.785.224a4.128,4.128,0,0,1,.672.91c3.556-1.288,4.452-3.822,4.816-6.58h3.612c-.168,3.528-.364,4.928-.728,5.278-.126.154-.294.182-.588.182-.322,0-1.19-.014-2.1-.1a2.531,2.531,0,0,1,.35,1.036,20.056,20.056,0,0,0,2.2.028A1.4,1.4,0,0,0-20.475.49c.476-.532.686-2.142.882-6.44.014-.14.028-.5.028-.5Zm5.768-4.606a18.515,18.515,0,0,0,4.34,5.572,5.353,5.353,0,0,1,.854-.924,14.814,14.814,0,0,1-4.214-5.04Zm9.9.168-1.106.462a46.92,46.92,0,0,0,2.03,4.312c-1.5,1.05-2.422,2.184-2.422,3.626,0,2.1,1.9,2.884,4.536,2.884A27.56,27.56,0,0,0-5.131.042V-1.2a20.831,20.831,0,0,1-4.48.476c-2.212,0-3.318-.728-3.318-1.89,0-1.064.784-1.988,2.086-2.828A46.509,46.509,0,0,1-6.587-7.77c.406-.21.756-.392,1.078-.588l-.616-.994a7.647,7.647,0,0,1-.994.658c-.77.42-2.282,1.162-3.6,1.96A30.148,30.148,0,0,1-12.593-10.892ZM-.875-9.366v1.232C-.525-8.176.035-8.19.3-8.19h3.15v6.44H-.5a9.591,9.591,0,0,1-1.232-.084V-.56C-1.295-.6-.875-.616-.5-.616H8.757A8.781,8.781,0,0,1,9.919-.56V-1.834a9.848,9.848,0,0,1-1.162.084H4.641V-8.19H8a10.771,10.771,0,0,1,1.19.056V-9.366A9.906,9.906,0,0,1,8-9.282H.3A9.271,9.271,0,0,1-.875-9.366Zm19.488-1.512-1.3-.42a4.794,4.794,0,0,1-.434,1.106,11.541,11.541,0,0,1-4.4,4.732l.966.728A14.193,14.193,0,0,0,17-8.176h4.732A11.51,11.51,0,0,1,19.5-3.808,11.326,11.326,0,0,1,13.909-.294l1.008.91a12.275,12.275,0,0,0,5.572-3.808,13.579,13.579,0,0,0,2.492-4.816A4.4,4.4,0,0,1,23.3-8.75l-.938-.574a2.343,2.343,0,0,1-.91.14H17.661A6.291,6.291,0,0,0,18-9.772,10.586,10.586,0,0,1,18.613-10.878ZM28.791-.5l1.05.882A11.652,11.652,0,0,0,34.8-3.934a14.364,14.364,0,0,0,1.918-5c.056-.252.168-.742.28-1.106l-1.4-.2a6.075,6.075,0,0,1-.112,1.148,11.547,11.547,0,0,1-1.75,4.564A10.754,10.754,0,0,1,28.791-.5Zm-.854-9.562-1.106.56A37.623,37.623,0,0,1,29.169-5.46l1.12-.63C29.785-7,28.553-9.156,27.937-10.066ZM42.791-.5l1.05.882A11.652,11.652,0,0,0,48.8-3.934a14.364,14.364,0,0,0,1.918-5c.056-.252.168-.742.28-1.106l-1.4-.2a6.075,6.075,0,0,1-.112,1.148,11.547,11.547,0,0,1-1.75,4.564A10.754,10.754,0,0,1,42.791-.5Zm-.854-9.562-1.106.56A37.622,37.622,0,0,1,43.169-5.46l1.12-.63C43.785-7,42.553-9.156,41.937-10.066Zm12.586,4V-4.69c.434-.042,1.176-.07,1.946-.07h7.686c.63,0,1.218.056,1.5.07V-6.062c-.308.028-.812.07-1.512.07H56.469C55.685-5.992,54.943-6.034,54.523-6.062Zm19.46-4.382-1.4-.28a8.808,8.808,0,0,1-.266,1.344c-.392,1.372-1.82,5.852-2.6,7.784-.252.014-.49.028-.7.042-.406.014-.882.028-1.3.014l.21,1.3c.406-.056.812-.126,1.162-.154,1.876-.168,6.566-.686,8.722-.966.322.686.588,1.33.77,1.834l1.176-.532a39.445,39.445,0,0,0-3.108-5.7l-1.05.476A19.882,19.882,0,0,1,77.3-2.408c-1.54.21-4.228.5-6.286.7.7-1.82,2.086-6.118,2.492-7.434C73.689-9.73,73.843-10.094,73.983-10.444Zm12.628-.434L85.323-11a15.629,15.629,0,0,1-.364,3.052c-.854.07-1.666.14-2.128.154s-.812.014-1.26,0l.126,1.2c.35-.056.938-.126,1.26-.168.364-.042,1.036-.112,1.778-.182A22.207,22.207,0,0,1,81.781.028L82.915.49a28.573,28.573,0,0,0,2.954-7.546c.6-.056,1.162-.1,1.5-.1.9,0,1.484.238,1.484,1.512a11.828,11.828,0,0,1-.658,4.284,1.167,1.167,0,0,1-1.232.728,6.816,6.816,0,0,1-1.708-.294L85.435.252a8.482,8.482,0,0,0,1.652.2A1.971,1.971,0,0,0,89.131-.714a13.58,13.58,0,0,0,.812-5.054c0-1.9-1.022-2.38-2.282-2.38-.336,0-.91.042-1.568.1.154-.756.28-1.582.364-1.988C86.5-10.318,86.555-10.612,86.611-10.878Zm4.816,1.624-1.022.462a16.424,16.424,0,0,1,2.506,5.026l1.078-.518A23.883,23.883,0,0,0,91.427-9.254Zm.168-2.03-.756.308A17.139,17.139,0,0,1,91.973-9.03l.77-.336A19.84,19.84,0,0,0,91.6-11.284Zm1.54-.574-.742.322A15.7,15.7,0,0,1,93.555-9.6l.756-.336A20.2,20.2,0,0,0,93.135-11.858ZM-75.656,16.22a10.829,10.829,0,0,1-.868,3.318,3.637,3.637,0,0,1,.812.392,12.836,12.836,0,0,0,.952-3.556Zm3.024.21a13.749,13.749,0,0,1,.91,2.716l.84-.28a13.969,13.969,0,0,0-.952-2.7Zm-.252-3.374a11.717,11.717,0,0,1,.63,1.092l-2.17.14A37.3,37.3,0,0,0-71.61,10.3l-.868-.42a29.869,29.869,0,0,1-1.568,2.6,9.883,9.883,0,0,0-.854-.98,30.1,30.1,0,0,0,1.638-2.856l-.938-.364a17.665,17.665,0,0,1-1.288,2.646c-.14-.126-.266-.252-.406-.364l-.532.686a11.027,11.027,0,0,1,1.834,2.016c-.28.392-.56.77-.84,1.092-.392.028-.756.056-1.092.07l.154.952,2.31-.21v5.88h.938V15.086l1.26-.126A9.265,9.265,0,0,1-71.47,16l.84-.406a12.15,12.15,0,0,0-1.47-2.87Zm5.964,6.118v-4H-65v4Zm-2.744-4h1.82v4h-1.82Zm1.82-4.8v3.85h-1.82v-3.85ZM-65,14.218H-66.92v-3.85H-65ZM-70.6,9.4V20.9h.938V20.14H-65v.644h.966V9.4Zm9.982,6.006c.028-.574.028-1.12.028-1.61v-.784H-58.8v2.394Zm1.82-5.656v2.31h-1.792V9.752Zm4.242,10.276c-.9,0-1.078-.1-1.078-.588V16.262H-52.6V12.37h-3.71a11.982,11.982,0,0,0,.742-1.4h4.522c-.1,3.906-.2,5.292-.448,5.628a.417.417,0,0,1-.42.2c-.238,0-.784-.014-1.372-.056a2.6,2.6,0,0,1,.294.952,10.387,10.387,0,0,0,1.512-.014,1.049,1.049,0,0,0,.868-.462c.364-.476.448-2.044.546-6.692.014-.154.014-.5.014-.5h-5.11a14.482,14.482,0,0,0,.5-1.5l-1.05-.238a11.33,11.33,0,0,1-2.142,4.354V8.8h-3.668v5.012c0,2.044-.07,4.844-.994,6.8a2.832,2.832,0,0,1,.826.476,14.023,14.023,0,0,0,1.008-4.732H-58.8v3.472c0,.182-.07.238-.252.252-.154.014-.714.014-1.33,0a3.641,3.641,0,0,1,.294.966,4.8,4.8,0,0,0,1.778-.182c.35-.182.462-.49.462-1.036V12.79c.252.182.616.476.784.63a9.4,9.4,0,0,0,.6-.812v.658h2.9v2.1H-56.63v4.088c0,1.2.462,1.484,2.016,1.484h3.192c1.4,0,1.722-.5,1.862-2.506a3.17,3.17,0,0,1-.924-.392c-.084,1.708-.21,1.988-1.008,1.988Zm8.666-.476.812.7A2.163,2.163,0,0,1-44.492,20a16.194,16.194,0,0,0,8.19-5l-.63-.98A15.108,15.108,0,0,1-44.59,18.8V10.858a9.054,9.054,0,0,1,.1-1.274h-1.386a8.531,8.531,0,0,1,.126,1.274v8.008A1.542,1.542,0,0,1-45.892,19.552Zm20.566-9.044-.8.336a15.5,15.5,0,0,1,1.3,2.254L-24,12.72A24.293,24.293,0,0,0-25.326,10.508Zm1.792-.714-.784.364a14.539,14.539,0,0,1,1.344,2.212l.812-.392A17.751,17.751,0,0,0-23.534,9.794Zm-10.724,6.524,1.05,1.064c.21-.294.518-.728.8-1.078.644-.784,1.806-2.31,2.478-3.136.476-.574.742-.63,1.288-.1.588.574,1.89,1.96,2.7,2.884.9,1.022,2.128,2.45,3.122,3.654l.966-1.022c-1.078-1.148-2.478-2.674-3.416-3.668-.826-.882-2.016-2.128-2.87-2.94-.952-.9-1.61-.742-2.366.14-.882,1.036-2.1,2.59-2.758,3.262C-33.642,15.758-33.894,16.01-34.258,16.318Zm20.594,3.388.742.616A3,3,0,0,1-12.446,20a13.918,13.918,0,0,0,4.774-3.878l-.658-.952a10.757,10.757,0,0,1-4.088,3.444V10.536A8.663,8.663,0,0,1-12.362,9.5H-13.65a6.644,6.644,0,0,1,.084,1.036v8.386A3.333,3.333,0,0,1-13.664,19.706Zm-6.412-.07,1.05.714a7.824,7.824,0,0,0,2.492-3.85,30.626,30.626,0,0,0,.434-5.95c0-.42.056-.84.07-1.008h-1.288a5.157,5.157,0,0,1,.1,1.022,24.992,24.992,0,0,1-.42,5.628A6.645,6.645,0,0,1-20.076,19.636Zm14.182-8.848.126,1.218c1.512-.322,5.082-.658,6.58-.826a5.687,5.687,0,0,0-2.618,4.732c0,3.122,2.954,4.508,5.544,4.606l.406-1.162c-2.282-.084-4.83-.952-4.83-3.682A4.927,4.927,0,0,1,2.52,11.236a11.726,11.726,0,0,1,2.744-.224V9.892c-.938.042-2.254.126-3.78.252-2.576.21-5.222.476-6.132.574C-4.914,10.746-5.362,10.774-5.894,10.788Zm9.142,1.946-.714.308a13,13,0,0,1,1.148,1.974L4.4,14.68A16.617,16.617,0,0,0,3.248,12.734Zm1.526-.588-.686.322a12.976,12.976,0,0,1,1.176,1.96l.728-.35A18.49,18.49,0,0,0,4.774,12.146Zm15.26-1.61-.686-.658a6.914,6.914,0,0,1-.98.084H10.332a11.88,11.88,0,0,1-1.6-.126V11.11a15.643,15.643,0,0,1,1.6-.084h7.98a9.51,9.51,0,0,1-3.066,3.136l.924.742a13.5,13.5,0,0,0,3.486-3.864C19.754,10.886,19.936,10.676,20.034,10.536Zm-5.586,1.848h-1.26a8.416,8.416,0,0,1,.056,1.008c0,2.338-.308,4.326-2.478,5.656a4.822,4.822,0,0,1-1.26.63l1.036.84C14.112,18.74,14.448,16.178,14.448,12.384ZM32.27,9.948a.931.931,0,1,1,.924.924A.935.935,0,0,1,32.27,9.948Zm-.644,0a1.578,1.578,0,0,0,.07.448c-.168.014-.322.014-.448.014H24.22a10.8,10.8,0,0,1-1.4-.1v1.246c.364-.014.84-.042,1.4-.042h7.154A10.478,10.478,0,0,1,29.54,16.08a9.218,9.218,0,0,1-5.46,3.36l.952,1.05a10.6,10.6,0,0,0,5.516-3.738,13.677,13.677,0,0,0,2.086-5.166.722.722,0,0,0,.028-.154,1.692,1.692,0,0,0,.532.084,1.575,1.575,0,1,0-1.568-1.568Zm5.418.462c.028.336.028.77.028,1.092V18.39c0,.49-.028,1.526-.042,1.708h1.2c-.014-.112-.014-.448-.028-.812H45.85c0,.378-.014.714-.014.812h1.2c-.014-.154-.028-1.246-.028-1.694V11.5c0-.35,0-.742.028-1.092-.42.028-.924.028-1.232.028H38.29C37.968,10.438,37.59,10.424,37.044,10.41Zm1.162,1.134h7.658v6.65H38.206Zm12.222,2.394V15.31c.434-.042,1.176-.07,1.946-.07H60.06c.63,0,1.218.056,1.5.07V13.938c-.308.028-.812.07-1.512.07H52.374C51.59,14.008,50.848,13.966,50.428,13.938Zm14.9-3.668.28,1.036c1.078-.014,2.66-.056,4.074-.2v2.548H65.464c-.42,0-.91-.028-1.232-.056v1.162c.336-.028.812-.056,1.26-.056H69.65a5.557,5.557,0,0,1-3.542,5.1l1.106.77A6.635,6.635,0,0,0,70.8,14.708H74.7c.35,0,.77.028,1.078.056V13.6c-.294.028-.8.056-1.106.056H70.812V10.97c1.008-.154,2.086-.364,2.786-.546.2-.056.476-.126.784-.21l-.742-.966a18.985,18.985,0,0,1-3.612.812A33.8,33.8,0,0,1,65.324,10.27Z" transform="translate(117.045 253.465)" fill="#3c505a"/>
    <path id="Path_187" data-name="Path 187" d="M-38.92-6.426v-.5h1.54c.616,0,1.134.028,1.288.042V-8.064a10.294,10.294,0,0,1-1.288.07h-1.54v-1.75a10.614,10.614,0,0,1,.07-1.148h-1.26a7.805,7.805,0,0,1,.07,1.148v1.75h-3.99V-9.786a8.641,8.641,0,0,1,.07-1.022h-1.246a8.646,8.646,0,0,1,.056,1.022v1.792h-1.512a10.264,10.264,0,0,1-1.4-.1v1.218c.168-.014.8-.056,1.4-.056h1.512v2.268c0,.532-.042,1.134-.056,1.274h1.232c-.014-.14-.056-.756-.056-1.274V-6.93h3.99v.588c0,3.92-1.274,5.124-3.822,6.1l.938.882C-39.718-.784-38.92-2.7-38.92-6.426Zm14.49-3.92a.89.89,0,0,1,.882-.9.905.905,0,0,1,.91.9.9.9,0,0,1-.91.9A.881.881,0,0,1-24.43-10.346Zm-.644,0A1.521,1.521,0,0,0-23.548-8.82a1.524,1.524,0,0,0,1.54-1.526,1.545,1.545,0,0,0-1.54-1.54A1.542,1.542,0,0,0-25.074-10.346Zm-2.338-.448h-1.316a5.077,5.077,0,0,1,.1.994v1.442h-3.892a10.472,10.472,0,0,1-1.19-.07v1.176c.378-.028.77-.042,1.19-.042h3.892V-.98c0,.364-.168.532-.546.532a9.958,9.958,0,0,1-1.61-.168l.1,1.12c.56.056,1.4.1,1.988.1.84,0,1.2-.378,1.2-1.12V-7.294h3.71c.336,0,.756,0,1.134.028V-8.428a10.743,10.743,0,0,1-1.148.07h-3.7V-9.786A6.634,6.634,0,0,1-27.412-10.794ZM-24.64-5.6l-.952.5a23.26,23.26,0,0,1,2.338,3.724l1.036-.574A30.033,30.033,0,0,0-24.64-5.6Zm-5.852.462-.98-.476a14.948,14.948,0,0,1-2.674,3.668l.966.644A20.29,20.29,0,0,0-30.492-5.138Zm10.92-.924V-4.69c.434-.042,1.176-.07,1.946-.07H-9.94c.63,0,1.218.056,1.5.07V-6.062c-.308.028-.812.07-1.512.07h-7.672C-18.41-5.992-19.152-6.034-19.572-6.062Zm17.29,4.83A12.336,12.336,0,0,1-2.38.42h1.358C-1.078-.042-1.106-.8-1.106-1.232c0-.406,0-2.52-.014-4.62A36.7,36.7,0,0,1,4.382-3.6l.476-1.19A44.746,44.746,0,0,0-1.12-7.1V-9.38c0-.42.056-1.022.1-1.456H-2.394A8.836,8.836,0,0,1-2.282-9.38ZM16.38-11.018a14.332,14.332,0,0,1,2.478,1.68l.644-.714A13.354,13.354,0,0,0,17-11.648Zm1.988,3.78a13.864,13.864,0,0,1-1.792,3.78,25.252,25.252,0,0,1-.77-4.858h4.452V-9.338H15.736c-.042-.756-.056-1.54-.056-2.352H14.6c.014.8.028,1.582.084,2.352H8.848v3.906c0,1.806-.126,4.2-1.274,5.908a4.141,4.141,0,0,1,.868.7c1.26-1.82,1.47-4.634,1.47-6.594V-5.53H12.46c-.056,2.408-.126,3.29-.322,3.5-.084.126-.224.154-.42.154-.238,0-.84-.014-1.484-.07a2.164,2.164,0,0,1,.294.98,16.154,16.154,0,0,0,1.666,0,1.083,1.083,0,0,0,.84-.406c.294-.364.378-1.54.448-4.676V-6.5H9.912v-1.82h4.83a27.528,27.528,0,0,0,1.022,5.894,11.172,11.172,0,0,1-3.22,2.59A5.86,5.86,0,0,1,13.3.994,12.517,12.517,0,0,0,16.184-1.33c.644,1.442,1.484,2.3,2.562,2.3S20.188.28,20.384-2.1a2.461,2.461,0,0,1-.9-.56C19.39-.8,19.222-.07,18.83-.07c-.714,0-1.358-.8-1.876-2.17a15.786,15.786,0,0,0,2.464-4.732Zm7.2-4.186A11.891,11.891,0,0,1,21.378-6.16a6.051,6.051,0,0,1,.882.8,14.424,14.424,0,0,0,4.4-5.754Zm-1.918,4.97v1.008H26.5C26.18-3.08,25.41-.868,22.12.224a4.128,4.128,0,0,1,.672.91c3.556-1.288,4.452-3.822,4.816-6.58H31.22c-.168,3.528-.364,4.928-.728,5.278-.126.154-.294.182-.588.182-.322,0-1.19-.014-2.1-.1a2.531,2.531,0,0,1,.35,1.036,20.056,20.056,0,0,0,2.2.028A1.4,1.4,0,0,0,31.43.49c.476-.532.686-2.142.882-6.44.014-.14.028-.5.028-.5Zm5.768-4.606a18.515,18.515,0,0,0,4.34,5.572,5.353,5.353,0,0,1,.854-.924,14.814,14.814,0,0,1-4.214-5.04Zm11.522.182L39.648-11a15.63,15.63,0,0,1-.364,3.052c-.854.07-1.666.14-2.128.154s-.812.014-1.26,0l.126,1.2c.35-.056.938-.126,1.26-.168.364-.042,1.036-.112,1.778-.182A22.207,22.207,0,0,1,36.106.028L37.24.49a28.573,28.573,0,0,0,2.954-7.546c.6-.056,1.162-.1,1.5-.1.9,0,1.484.238,1.484,1.512a11.829,11.829,0,0,1-.658,4.284,1.167,1.167,0,0,1-1.232.728,6.816,6.816,0,0,1-1.708-.294L39.76.252a8.482,8.482,0,0,0,1.652.2A1.971,1.971,0,0,0,43.456-.714a13.58,13.58,0,0,0,.812-5.054c0-1.9-1.022-2.38-2.282-2.38-.336,0-.91.042-1.568.1.154-.756.28-1.582.364-1.988C40.824-10.318,40.88-10.612,40.936-10.878Zm4.816,1.624-1.022.462a16.424,16.424,0,0,1,2.506,5.026l1.078-.518A23.883,23.883,0,0,0,45.752-9.254Zm.168-2.03-.756.308A17.138,17.138,0,0,1,46.3-9.03l.77-.336A19.841,19.841,0,0,0,45.92-11.284Zm1.54-.574-.742.322A15.7,15.7,0,0,1,47.88-9.6l.756-.336A20.2,20.2,0,0,0,47.46-11.858ZM-64.246,8.814h-1.246a7.382,7.382,0,0,1,.07.994c0,.252-.014.868-.014,1.6-.392.028-.756.042-1.078.042a12.955,12.955,0,0,1-1.792-.112l.028,1.064a15.378,15.378,0,0,0,1.792.07c.294,0,.644-.014,1.036-.042-.014.616-.014,1.274-.014,1.834v.8c-1.61.686-3.066,1.9-3.066,3.066,0,1.246,1.82,2.324,2.912,2.324.756,0,1.232-.42,1.232-1.722,0-.6-.028-1.848-.056-3.038a9.171,9.171,0,0,1,3.052-.546c1.33,0,2.408.644,2.408,1.834,0,1.288-1.12,1.946-2.352,2.184a7.16,7.16,0,0,1-1.638.1l.392,1.134a10.616,10.616,0,0,0,1.736-.2c1.918-.462,2.982-1.54,2.982-3.234s-1.47-2.786-3.514-2.786a10.588,10.588,0,0,0-3.08.518V14.2c0-.56.014-1.232.028-1.89a25.7,25.7,0,0,0,2.94-.49l-.028-1.092a18.828,18.828,0,0,1-2.884.56c.014-.63.042-1.176.056-1.512A8.981,8.981,0,0,1-64.246,8.814Zm4.34,1.554-.5.84a17.759,17.759,0,0,1,3.136,2.1l.574-.9A25.448,25.448,0,0,0-59.906,10.368Zm-7.532,7.7c0-.63.854-1.442,2-1.974.014,1.022.042,1.974.042,2.478,0,.462-.2.686-.518.686C-66.458,19.258-67.438,18.712-67.438,18.068Zm13.93-2.688c.014-.56.028-1.092.028-1.568v-.784h2.072V15.38Zm2.1-5.614v2.3H-53.48v-2.3Zm.98-.966h-4.018v5.012c0,2.058-.07,4.816-1.036,6.776a3.319,3.319,0,0,1,.868.518,14.109,14.109,0,0,0,1.05-4.732h2.156v3.332c0,.2-.07.252-.252.266s-.728.014-1.372-.014a3.268,3.268,0,0,1,.308.994,4.359,4.359,0,0,0,1.82-.21c.35-.168.476-.462.476-1.036Zm6.244,11.046a.387.387,0,0,1-.224-.07c-.07-.07-.084-.322-.084-.77V8.8H-48.86v5.88c0,1.9-.112,4.256-1.358,5.838a4.3,4.3,0,0,1,.868.63c1.316-1.708,1.512-4.438,1.512-6.468V9.794h2.324v9.128c0,1.176.07,1.414.28,1.624a1.289,1.289,0,0,0,.8.28h.686a1.394,1.394,0,0,0,.742-.2,1.135,1.135,0,0,0,.364-.756,20.119,20.119,0,0,0,.126-2.03,2.348,2.348,0,0,1-.84-.462c0,.882-.014,1.582-.042,1.876s-.07.434-.14.49a.361.361,0,0,1-.28.1Zm8.624-10.92-1.148-.1a7.172,7.172,0,0,1-.35,1.75c-.308.014-.63.014-.924.014a20.491,20.491,0,0,1-2.366-.154v1.05c.77.056,1.694.084,2.3.084h.616a14.769,14.769,0,0,1-3.234,4.284l.952.7A18.5,18.5,0,0,1-38.444,15.1a3.686,3.686,0,0,1,2.408-1.022,1.168,1.168,0,0,1,1.274.868c-1.638.854-3.3,1.89-3.3,3.542,0,1.708,1.61,2.142,3.612,2.142a32.888,32.888,0,0,0,3.836-.252l.028-1.12a24.93,24.93,0,0,1-3.822.336c-1.442,0-2.534-.168-2.534-1.26,0-.924.91-1.666,2.212-2.352,0,.742-.014,1.652-.042,2.184H-33.7c-.014-.686-.028-1.876-.042-2.688,1.064-.5,2.058-.91,2.842-1.2a12.19,12.19,0,0,1,1.246-.448l-.462-1.05c-.392.21-.728.364-1.148.546-.728.336-1.582.672-2.534,1.134a1.807,1.807,0,0,0-1.876-1.26,4.008,4.008,0,0,0-1.946.518,11.115,11.115,0,0,0,1.26-2.17,40.5,40.5,0,0,0,4.648-.392l.014-1.036a34.431,34.431,0,0,1-4.27.434A14.292,14.292,0,0,0-35.56,8.926Zm14.07,2.464a17.146,17.146,0,0,1-1.148,3.78,17.579,17.579,0,0,0-2.618-1.834A15.883,15.883,0,0,0-24.22,11.39ZM-17.5,8.3h-1.064V13.63a11.989,11.989,0,0,1-1.428-2.044l-.546.21c.07-.378.154-.77.21-1.176L-21,10.368l-.2.056h-2.632c.238-.616.448-1.274.63-1.932l-1.022-.21a13.083,13.083,0,0,1-3.346,6.244,6.037,6.037,0,0,1,.854.672,10.066,10.066,0,0,0,.924-1.078,17.236,17.236,0,0,1,2.674,1.988,10.015,10.015,0,0,1-4.144,4.116,3.914,3.914,0,0,1,.826.77c2.66-1.484,4.76-4.27,5.782-8.68a15.963,15.963,0,0,0,2.086,2.744v5.978H-17.5V16.08a12.726,12.726,0,0,0,2.492,1.736,4.585,4.585,0,0,1,.742-.882A12.211,12.211,0,0,1-17.5,14.722Zm9.632.784-1.3-.14a14.628,14.628,0,0,1-.364,3.052c-.84.07-1.666.14-2.128.154a12.329,12.329,0,0,1-1.246,0l.112,1.218c.364-.056.938-.126,1.26-.168.364-.042,1.036-.126,1.778-.2a22.412,22.412,0,0,1-2.954,6.986l1.148.448a28.8,28.8,0,0,0,2.94-7.546c.616-.056,1.176-.1,1.512-.1.882,0,1.484.238,1.484,1.526A11.858,11.858,0,0,1-6.3,18.6a1.156,1.156,0,0,1-1.218.714,6.812,6.812,0,0,1-1.722-.28l.182,1.162a7.611,7.611,0,0,0,1.652.21A1.971,1.971,0,0,0-5.362,19.23a13.3,13.3,0,0,0,.812-5.054c0-1.89-1.022-2.366-2.268-2.366-.336,0-.924.042-1.582.1.154-.77.28-1.6.364-2C-7.98,9.64-7.924,9.332-7.868,9.08Zm4.816,1.484-1.022.462a16.448,16.448,0,0,1,2.492,5.068l1.092-.518A24.9,24.9,0,0,0-3.052,10.564ZM4.69,9.024l-.28,1.064c1.064.294,4.1.91,5.432,1.092l.266-1.078A38.241,38.241,0,0,1,4.69,9.024Zm-.308,2.548-1.176-.154A49.99,49.99,0,0,1,2.492,17.1l1.036.252a2.211,2.211,0,0,1,.42-.7,5.487,5.487,0,0,1,4.34-1.876c1.428,0,2.464.8,2.464,1.918,0,1.918-2.156,3.192-6.58,2.646l.336,1.148c5.208.434,7.42-1.26,7.42-3.766,0-1.638-1.428-2.926-3.57-2.926a6.72,6.72,0,0,0-4.564,1.708C3.948,14.61,4.186,12.524,4.382,11.572Zm11.858-.728h9.45V12.79h1.092V9.864H21.5V8.282H20.426V9.864H15.19V12.79h1.05Zm.322,5.026a13.408,13.408,0,0,1,2.268,2.968l.868-.6a12.287,12.287,0,0,0-2.324-2.884Zm10.584-2.254H23.562v-2h-1.05v2H14.868v1.022h7.644v5.1c0,.238-.1.322-.378.336s-1.246.014-2.254-.028a4.362,4.362,0,0,1,.364,1.036,10.879,10.879,0,0,0,2.66-.168c.49-.168.658-.49.658-1.176v-5.1h3.584Zm5.6-4.662-1.232-.042c-.028.378-.056.784-.112,1.2a36.995,36.995,0,0,0-.434,4.522,17.049,17.049,0,0,0,.154,2.226L32.2,16.78a6.525,6.525,0,0,1-.028-1.722c.168-1.834,1.792-4.382,3.542-4.382,1.47,0,2.226,1.6,2.226,3.808,0,3.514-2.38,4.76-5.418,5.208L33.18,20.7c3.472-.63,5.908-2.338,5.908-6.23,0-2.94-1.33-4.8-3.192-4.8-1.778,0-3.234,1.75-3.808,3.178A25.992,25.992,0,0,1,32.746,8.954Zm22.358.7a8.171,8.171,0,0,0-2-1.232l-.546.56a9.842,9.842,0,0,1,1.974,1.3ZM47.18,13.462a12.8,12.8,0,0,1-.9,1.456c-.2-.224-.364-.434-.518-.588a15.135,15.135,0,0,0,1.5-3.108l-.56-.35-.182.042h-.98V8.338h-.966v2.576H42.784v.952H46.06a13.125,13.125,0,0,1-3.584,4.844,3.6,3.6,0,0,1,.532.882,13.135,13.135,0,0,0,1.61-1.666v5.152h.966V15.3c.49.658,1.078,1.47,1.344,1.9l.616-.7c-.126-.182-.462-.6-.826-1.05.336-.42.742-.994,1.106-1.512Zm6.888-.014v1.5H52v-1.5ZM52,17.326v-1.54h2.072v1.54Zm-3.024,0v-1.54H51v1.54ZM51,13.448v1.5h-2.03v-1.5Zm4.34-2.2v-.938H52V8.3H51v2.016H47.558v.938H51v1.316h-3v8.5h.966V18.18H51v2.828H52V18.18h2.072v1.792c0,.154-.042.2-.2.2s-.588.014-1.106,0a4.461,4.461,0,0,1,.336.91,3.915,3.915,0,0,0,1.526-.168c.308-.168.406-.448.406-.938V12.566H52V11.25ZM66.08,15.338c0,2.506-2.394,3.85-5.8,4.27l.63,1.064c3.626-.546,6.356-2.254,6.356-5.292,0-2-1.484-3.108-3.472-3.108a18.524,18.524,0,0,0-4.186.672,8.8,8.8,0,0,1-1.288.21l.364,1.3c.336-.14.742-.294,1.176-.434a13.119,13.119,0,0,1,3.822-.7A2.12,2.12,0,0,1,66.08,15.338Zm-5.88-6.3L60.018,10.1c1.582.28,4.41.56,5.964.658l.168-1.078A37.82,37.82,0,0,1,60.2,9.038Z" transform="translate(231.045 74.465)" fill="#3c505a"/>
    <path id="Path_186" data-name="Path 186" d="M-8.835-11.985H-10.17a7.91,7.91,0,0,1,.075,1.065c0,.27-.015.93-.015,1.71-.42.03-.81.045-1.155.045a13.88,13.88,0,0,1-1.92-.12l.03,1.14a16.477,16.477,0,0,0,1.92.075c.315,0,.69-.015,1.11-.045-.015.66-.015,1.365-.015,1.965V-5.3c-1.725.735-3.285,2.04-3.285,3.285,0,1.335,1.95,2.49,3.12,2.49.81,0,1.32-.45,1.32-1.845,0-.645-.03-1.98-.06-3.255A9.826,9.826,0,0,1-5.775-5.2c1.425,0,2.58.69,2.58,1.965,0,1.38-1.2,2.085-2.52,2.34A7.671,7.671,0,0,1-7.47-.8L-7.05.42A11.375,11.375,0,0,0-5.19.21c2.055-.5,3.2-1.65,3.2-3.465S-3.57-6.24-5.76-6.24a11.344,11.344,0,0,0-3.3.555V-6.21c0-.6.015-1.32.03-2.025A27.537,27.537,0,0,0-5.88-8.76l-.03-1.17A20.173,20.173,0,0,1-9-9.33c.015-.675.045-1.26.06-1.62A9.623,9.623,0,0,1-8.835-11.985Zm4.65,1.665-.54.9a19.027,19.027,0,0,1,3.36,2.25l.615-.96A27.265,27.265,0,0,0-4.185-10.32Zm-8.07,8.25c0-.675.915-1.545,2.145-2.115.015,1.1.045,2.115.045,2.655,0,.5-.21.735-.555.735C-11.2-.8-12.255-1.38-12.255-2.07ZM2.67-4.95c.015-.6.03-1.17.03-1.68v-.84H4.92v2.52Zm2.25-6.015v2.46H2.7v-2.46ZM5.97-12H1.665v5.37c0,2.205-.075,5.16-1.11,7.26a3.556,3.556,0,0,1,.93.555A15.116,15.116,0,0,0,2.61-3.885H4.92v3.57c0,.21-.075.27-.27.285-.18,0-.78.015-1.47-.015A3.5,3.5,0,0,1,3.51,1.02,4.67,4.67,0,0,0,5.46.8c.375-.18.51-.5.51-1.11ZM12.66-.165a.415.415,0,0,1-.24-.075c-.075-.075-.09-.345-.09-.825V-12H7.65v6.3C7.65-3.66,7.53-1.14,6.2.555a4.606,4.606,0,0,1,.93.675C8.535-.6,8.745-3.525,8.745-5.7v-5.235h2.49v9.78c0,1.26.075,1.515.3,1.74a1.381,1.381,0,0,0,.855.3h.735a1.494,1.494,0,0,0,.795-.21,1.216,1.216,0,0,0,.39-.81,21.556,21.556,0,0,0,.135-2.175,2.515,2.515,0,0,1-.9-.495c0,.945-.015,1.7-.045,2.01s-.075.465-.15.525a.387.387,0,0,1-.3.105Z" transform="translate(164.045 170.465)" fill="#3c505a"/>
  </g>
</svg>
