<svg xmlns="http://www.w3.org/2000/svg" xmlns:xlink="http://www.w3.org/1999/xlink" width="247.684" height="591.769" viewBox="0 0 247.684 591.769">
  <defs>
    <clipPath id="clip-path">
      <rect id="Rectangle_63" data-name="Rectangle 63" width="209.451" height="345" fill="none"/>
    </clipPath>
    <filter id="Union_1" x="91.385" y="307.598" width="67.175" height="269.014" filterUnits="userSpaceOnUse">
      <feOffset dy="3" input="SourceAlpha"/>
      <feGaussianBlur stdDeviation="3" result="blur"/>
      <feFlood flood-opacity="0.161"/>
      <feComposite operator="in" in2="blur"/>
      <feComposite in="SourceGraphic"/>
    </filter>
  </defs>
  <g id="Group_77" data-name="Group 77" transform="translate(-755 -10124.644)">
    <g id="Group_76" data-name="Group 76" transform="translate(755 10124.644)">
      <g id="Group_60" data-name="Group 60" transform="translate(85.77 0)">
        <circle id="Ellipse_76" data-name="Ellipse 76" cx="73.955" cy="73.955" r="73.955" transform="translate(0 0)" fill="#ffbe00" opacity="0.2"/>
        <g id="Group_53" data-name="Group 53" transform="translate(21.88 39.385)">
          <path id="Path_218" data-name="Path 218" d="M-21.177,0H-9.893V-2.054h-8.866V-9h7.228V-11.05h-7.228v-5.98h8.58v-2.054h-11ZM1.6.338a8.184,8.184,0,0,0,5.9-2.21V-9.88H1.261v2h4.03v4.992A5.227,5.227,0,0,1,1.859-1.768c-4.108,0-6.37-3.016-6.37-7.826,0-4.758,2.5-7.722,6.318-7.722A5.345,5.345,0,0,1,5.941-15.5l1.3-1.56a7.254,7.254,0,0,0-5.486-2.366c-5.044,0-8.736,3.744-8.736,9.906C-6.981-3.328-3.393.338,1.6.338ZM12.025,0h2.418V-8.554h7.28v-2.028h-7.28V-17.03h8.58v-2.054h-11Z" transform="translate(51.131 28)" fill="#3c505a"/>
          <path id="Path_217" data-name="Path 217" d="M-41.928-.54V-5.292h4.464V-6.18h-4.464V-9.852h-.936V-.54H-47.34V.348h10.692V-.54Zm14.976-3.984a6.673,6.673,0,0,1-2.232,2.736A7.587,7.587,0,0,1-31.4-4.524Zm-6.36-.936V-7.548h3.18v2.184h-3.18Zm6.984.06-.168.036H-29.22V-7.548h3.06a16.353,16.353,0,0,1-.684,1.536l.816.252a18.738,18.738,0,0,0,1.1-2.508l-.672-.18-.168.036H-29.22v-1.644h-.912v1.644h-4.056v2.94c0,1.74-.144,4.092-1.416,5.76A3.03,3.03,0,0,1-34.9.876a9.687,9.687,0,0,0,1.572-5.4h1a8.819,8.819,0,0,0,2.376,3.24A12.489,12.489,0,0,1-33.756.1a3.608,3.608,0,0,1,.516.816,12.982,12.982,0,0,0,4.032-1.62A11.187,11.187,0,0,0-25.092.948,3.883,3.883,0,0,1-24.528.12a10.665,10.665,0,0,1-3.888-1.392A8.126,8.126,0,0,0-25.74-5.064Zm3.48,2.16A9.282,9.282,0,0,1-23.592-.4a3.117,3.117,0,0,1,.7.336,11,11,0,0,0,.816-3.048Zm2.592.18a11.785,11.785,0,0,1,.78,2.328l.72-.24a11.973,11.973,0,0,0-.816-2.316Zm-.216-2.892a10.043,10.043,0,0,1,.54.936l-1.86.12a31.969,31.969,0,0,0,2.412-3.42l-.744-.36a25.6,25.6,0,0,1-1.344,2.232,8.471,8.471,0,0,0-.732-.84,25.8,25.8,0,0,0,1.4-2.448l-.8-.312a15.14,15.14,0,0,1-1.1,2.268c-.12-.108-.228-.216-.348-.312l-.456.588a9.452,9.452,0,0,1,1.572,1.728c-.24.336-.48.66-.72.936-.336.024-.648.048-.936.06l.132.816,1.98-.18V.9h.8V-4.212l1.08-.108a7.942,7.942,0,0,1,.336.888l.72-.348A10.415,10.415,0,0,0-19.8-6.24ZM-15.36-.708V-4.14h1.644V-.708ZM-17.712-4.14h1.56V-.708h-1.56Zm1.56-4.116v3.3h-1.56v-3.3Zm2.436,3.3H-15.36v-3.3h1.644Zm-4.8-4.128V.768h.8V.12h4V.672h.828V-9.084ZM-9.96-3.936c.024-.492.024-.96.024-1.38v-.672H-8.4v2.052ZM-8.4-8.784V-6.8H-9.936v-1.98ZM-4.764.024c-.768,0-.924-.084-.924-.5V-3.2h2.6V-6.54h-3.18a10.27,10.27,0,0,0,.636-1.2h3.876C-1.836-4.392-1.92-3.2-2.136-2.916a.357.357,0,0,1-.36.168c-.2,0-.672-.012-1.176-.048a2.225,2.225,0,0,1,.252.816,8.9,8.9,0,0,0,1.3-.012.9.9,0,0,0,.744-.4C-1.068-2.8-1-4.14-.912-8.124-.9-8.256-.9-8.556-.9-8.556H-5.28A12.413,12.413,0,0,0-4.848-9.84l-.9-.2A9.712,9.712,0,0,1-7.584-6.312V-9.6h-3.144v4.3A14.73,14.73,0,0,1-11.58.528a2.427,2.427,0,0,1,.708.408,12.02,12.02,0,0,0,.864-4.056H-8.4V-.144c0,.156-.06.2-.216.216-.132.012-.612.012-1.14,0A3.121,3.121,0,0,1-9.5.9,4.116,4.116,0,0,0-7.98.744c.3-.156.4-.42.4-.888V-6.18c.216.156.528.408.672.54a8.054,8.054,0,0,0,.516-.7v.564h2.484v1.8H-6.54v3.5C-6.54.564-6.144.8-4.812.8h2.736C-.876.8-.6.372-.48-1.344a2.717,2.717,0,0,1-.792-.336c-.072,1.464-.18,1.7-.864,1.7ZM2.892-6.288H4.176v-.84H2.892V-9.9H2.064v2.772H.672v.84H2.064V-2.5c-.612.228-1.176.42-1.62.564l.324.9C1.812-1.44,3.18-1.98,4.452-2.5l-.168-.828c-.468.18-.936.36-1.392.528ZM9.816-2.856v.924h-3.9v-.924ZM5.916-.264v-.984h3.9v.984ZM5.088.912h.828V.468h3.9V.876h.864V-3.588H5.088ZM10.26-6.672H8.184v-1H10.26ZM10.26-5H8.184V-6.012H10.26ZM5.376-6.012H7.368V-5H5.376Zm0-1.656H7.368v1H5.376Zm4.14-.7a13.018,13.018,0,0,0,.912-1.44l-.9-.264A9.713,9.713,0,0,1,8.7-8.46l.288.1H6.48l.348-.144a6.848,6.848,0,0,0-.9-1.512l-.756.264a7.777,7.777,0,0,1,.78,1.392H4.56v4.056h6.528V-8.364ZM21.948-5.352H19.44v-.972h2.508Zm0,1.632H19.44V-4.7h2.508Zm0,1.656H19.44v-1h2.508Zm-3.3-4.944V-1.38h4.128V-7.008H20.544c.048-.3.108-.648.156-1.008h2.64v-.768H20.8c.06-.408.108-.828.144-1.2l-.9-.048c-.024.384-.06.816-.108,1.248H17.184v.768h2.664c-.036.36-.084.708-.132,1.008Zm-2.712.864a15.859,15.859,0,0,1-.516,2.4A10.082,10.082,0,0,0,13.9-4.824a12.106,12.106,0,0,0,.48-1.32ZM12.72-8.712h1.392a11.44,11.44,0,0,1-1.68,4.764,3.911,3.911,0,0,1,.66.588,7.982,7.982,0,0,0,.468-.756A8.962,8.962,0,0,1,15.12-2.88a7.121,7.121,0,0,1-2.3,3.228,3.128,3.128,0,0,1,.636.624C15.168-.372,16.4-2.952,16.836-6.816L16.32-6.96l-.144.024H14.6c.144-.564.264-1.164.372-1.776H16.9V-9.54H12.72ZM23.5-.5H17.772V-6.168h-.8V.912h.8V.276H23.5Zm9.936-4.932v-.8H30.288c.06-.588.084-1.212.108-1.884h-.828c-.024.672-.048,1.308-.108,1.884H26.568v.8h2.784a4.26,4.26,0,0,1-2.928,3.684,2.23,2.23,0,0,1,.528.684,4.711,4.711,0,0,0,3.06-3.492A5.014,5.014,0,0,0,33-1.116a2.947,2.947,0,0,1,.552-.72,4.588,4.588,0,0,1-3-3.6ZM25.908-.48V-8.628h8.184V-.48Zm-.888-9V.912h.888V.372h8.184v.54H35V-9.48Zm22.4,4.764H42.48V-5.892A18.14,18.14,0,0,0,46.4-8.76l-.648-.492L45.54-9.2H37.848v.864H44.6a15.27,15.27,0,0,1-2.472,1.7h-.564v1.92H36.612v.888h4.956V-.24c0,.216-.072.276-.336.288s-1.14.012-2.1-.024a4.228,4.228,0,0,1,.384.912A8.891,8.891,0,0,0,41.88.78c.444-.144.6-.42.6-1.02V-3.828h4.944Z" transform="translate(48 53.762)" fill="#3c505a"/>
        </g>
      </g>
      <g id="Group_59" data-name="Group 59" transform="translate(11.378 98.898)">
        <circle id="Ellipse_80" data-name="Ellipse 80" cx="73.955" cy="73.955" r="73.955" transform="translate(0 -0.04)" fill="#ffbe00" opacity="0.2"/>
        <g id="Group_54" data-name="Group 54" transform="translate(16.629 44.96)">
          <path id="Path_216" data-name="Path 216" d="M-21.357,0h2.511V-8.883h7.56v-2.106h-7.56v-6.7h8.91v-2.133H-21.357ZM1.026.351a8.5,8.5,0,0,0,6.129-2.3V-10.26H.675v2.079H4.86V-3A5.429,5.429,0,0,1,1.3-1.836c-4.266,0-6.615-3.132-6.615-8.127,0-4.941,2.592-8.019,6.561-8.019a5.551,5.551,0,0,1,4.293,1.89l1.35-1.62a7.533,7.533,0,0,0-5.7-2.457c-5.238,0-9.072,3.888-9.072,10.287C-7.884-3.456-4.158.351,1.026.351ZM11.853,0h2.511V-8.883h7.56v-2.106h-7.56v-6.7h8.91v-2.133H11.853Z" transform="translate(56.383 31)" fill="#3c505a"/>
          <path id="Path_215" data-name="Path 215" d="M-52.9-3.24a9.371,9.371,0,0,1-.732,2.856,3.067,3.067,0,0,1,.66.324,10.986,10.986,0,0,0,.828-3.048Zm3-.96a4.069,4.069,0,0,1,.252.768l.708-.324A10.013,10.013,0,0,0-50.1-6.216l-.648.264a11.429,11.429,0,0,1,.54,1.008l-1.728.084a39.683,39.683,0,0,0,2.4-3.468l-.744-.348A24.8,24.8,0,0,1-51.564-6.5a8.5,8.5,0,0,0-.648-.768,22.653,22.653,0,0,0,1.38-2.472l-.78-.288A17.334,17.334,0,0,1-52.68-7.776c-.12-.12-.24-.228-.36-.336l-.48.564a10.835,10.835,0,0,1,1.488,1.74c-.252.36-.5.7-.744,1l-.828.036.084.8,1.884-.12v5h.792V-4.14Zm-.54,1.128a8.216,8.216,0,0,1,.6,2.148l.7-.216a9.144,9.144,0,0,0-.636-2.124Zm3.36-.516-.132.012h-1.956v.768h1.62A4.506,4.506,0,0,1-49.692-.18a2.76,2.76,0,0,1,.564.612A5.613,5.613,0,0,0-46.584-3.4ZM-47.9-6.372h4.032v1.044H-47.9Zm0-1.716h4.032v1.032H-47.9ZM-43.32-4.08a14.261,14.261,0,0,1-1.488,1.428,7.606,7.606,0,0,1-.684-1.788V-4.6h2.472V-8.808h-2.82c.18-.324.384-.7.552-1.056l-.984-.192a9.737,9.737,0,0,1-.48,1.248H-48.72V-4.6h2.412v4.56c0,.132-.036.168-.192.168-.132.012-.624.012-1.152,0a2.705,2.705,0,0,1,.24.768A4.709,4.709,0,0,0-45.888.768c.312-.132.4-.36.4-.8V-2.484A5.865,5.865,0,0,0-42.876.42a4.177,4.177,0,0,1,.54-.72,4.942,4.942,0,0,1-2.112-1.752,19.093,19.093,0,0,0,1.848-1.5Zm2.424.84a9.371,9.371,0,0,1-.732,2.856,3.067,3.067,0,0,1,.66.324,10.986,10.986,0,0,0,.828-3.048Zm2.508.168a9.35,9.35,0,0,1,.636,2.316l.708-.216a9.431,9.431,0,0,0-.684-2.292Zm-.36-2.88a11.429,11.429,0,0,1,.54,1.008l-1.728.084a39.683,39.683,0,0,0,2.4-3.468l-.744-.348A24.8,24.8,0,0,1-39.564-6.5a8.5,8.5,0,0,0-.648-.768,22.653,22.653,0,0,0,1.38-2.472l-.78-.288A17.334,17.334,0,0,1-40.68-7.776c-.12-.12-.24-.228-.36-.336l-.48.564a10.835,10.835,0,0,1,1.488,1.74c-.252.36-.5.7-.744,1l-.828.036.084.8,1.884-.12v5h.792V-4.14l.948-.06a4.069,4.069,0,0,1,.252.768l.708-.324A10.013,10.013,0,0,0-38.1-6.216ZM-35.5-2.136h1.776V-.48H-35.5ZM-33.72-5.28H-35.5V-6.84h1.776Zm0,2.364H-35.5V-4.5h1.776ZM-30.48-.48h-2.436V-2.136h1.908v-.78h-1.908V-4.5h1.848v-.78h-1.848V-6.84h2.208v-.792h-2.124c.324-.6.672-1.332.972-1.992l-.924-.228a16.352,16.352,0,0,1-.912,2.22h-1.788a18.807,18.807,0,0,0,.948-2.184l-.852-.24a11.972,11.972,0,0,1-2.3,4.26,6.945,6.945,0,0,1,.576.612,10.158,10.158,0,0,0,.792-1.032V.924h.828V.312h5.016ZM-26.532-7.1h.876V-8.256h3.264V-7.1h.876V-8.256h2.772v-.816h-2.772v-.96h-.876v.96h-3.264v-.96h-.876v.96H-29.22v.816h2.688Zm.672,1.212h3.5v2h-3.5Zm7.14,2h-2.748v-2h2.16v-.816h-9.18v.816h1.764v2h-2.52v.828h5.58A15.274,15.274,0,0,1-29.4-.3a3.915,3.915,0,0,1,.552.792,16.7,16.7,0,0,0,6.42-3.552h.072V-.2c0,.216-.072.276-.3.288C-22.92.1-23.772.1-24.7.06a3.724,3.724,0,0,1,.348.864,9.27,9.27,0,0,0,2.3-.144c.432-.132.576-.4.576-.972V-3.06h2.748Zm1.872.648A9.282,9.282,0,0,1-17.592-.4a3.117,3.117,0,0,1,.7.336,11,11,0,0,0,.816-3.048Zm2.592.18a11.785,11.785,0,0,1,.78,2.328l.72-.24a11.973,11.973,0,0,0-.816-2.316Zm-.216-2.892a10.043,10.043,0,0,1,.54.936l-1.86.12a31.969,31.969,0,0,0,2.412-3.42l-.744-.36a25.6,25.6,0,0,1-1.344,2.232,8.471,8.471,0,0,0-.732-.84,25.8,25.8,0,0,0,1.4-2.448l-.8-.312a15.141,15.141,0,0,1-1.1,2.268c-.12-.108-.228-.216-.348-.312l-.456.588a9.452,9.452,0,0,1,1.572,1.728c-.24.336-.48.66-.72.936-.336.024-.648.048-.936.06l.132.816,1.98-.18V.9h.8V-4.212l1.08-.108a7.942,7.942,0,0,1,.336.888l.72-.348A10.415,10.415,0,0,0-13.8-6.24ZM-9.36-.708V-4.14h1.644V-.708ZM-11.712-4.14h1.56V-.708h-1.56Zm1.56-4.116v3.3h-1.56v-3.3Zm2.436,3.3H-9.36v-3.3h1.644Zm-4.8-4.128V.768h.8V.12h4V.672h.828V-9.084ZM-3.96-3.936c.024-.492.024-.96.024-1.38v-.672H-2.4v2.052ZM-2.4-8.784V-6.8H-3.936v-1.98ZM1.236.024C.468.024.312-.06.312-.48V-3.2h2.6V-6.54H-.264a10.27,10.27,0,0,0,.636-1.2H4.248C4.164-4.392,4.08-3.2,3.864-2.916a.357.357,0,0,1-.36.168c-.2,0-.672-.012-1.176-.048a2.225,2.225,0,0,1,.252.816,8.9,8.9,0,0,0,1.3-.012.9.9,0,0,0,.744-.4C4.932-2.8,5-4.14,5.088-8.124c.012-.132.012-.432.012-.432H.72A12.413,12.413,0,0,0,1.152-9.84l-.9-.2A9.712,9.712,0,0,1-1.584-6.312V-9.6H-4.728v4.3A14.73,14.73,0,0,1-5.58.528a2.427,2.427,0,0,1,.708.408A12.02,12.02,0,0,0-4.008-3.12H-2.4V-.144c0,.156-.06.2-.216.216-.132.012-.612.012-1.14,0A3.121,3.121,0,0,1-3.5.9,4.116,4.116,0,0,0-1.98.744c.3-.156.4-.42.4-.888V-6.18c.216.156.528.408.672.54a8.054,8.054,0,0,0,.516-.7v.564H2.088v1.8H-.54v3.5C-.54.564-.144.8,1.188.8H3.924C5.124.8,5.4.372,5.52-1.344a2.717,2.717,0,0,1-.792-.336c-.072,1.464-.18,1.7-.864,1.7Zm14.172-2.76v.924H11.856v-.924ZM11.856-.228v-.948h3.552v.948Zm-.84,1.14h.84V.468h3.552V.876H16.3v-4.3h-5.28Zm.6-7.284a7.241,7.241,0,0,1,.5,1.38l.576-.18a6.972,6.972,0,0,0-.528-1.356Zm3.252,1.38c.216-.348.456-.864.684-1.344l-.624-.2a11.532,11.532,0,0,1-.54,1.368Zm1.224.2h-2.16V-6.8h2.16ZM11.16-6.8h2.1v2.016h-2.1ZM12.636-9.72v.768H14.76a9.318,9.318,0,0,0,1.212,1.476h-4.7A8.783,8.783,0,0,0,12.42-9.168L11.64-9.4A7.725,7.725,0,0,1,9.732-7.128H8.7V-9.852H7.836v2.724H6.564v.852H7.836v3.84c-.54.216-1.044.42-1.44.564l.3.888,3.516-1.548L10-3.336c-.432.18-.876.372-1.3.54v-3.48H9.756v-.492a4.7,4.7,0,0,1,.372.42c.108-.084.216-.18.324-.276V-4.1h6.4v-2.58c.084.072.18.144.264.2a4.625,4.625,0,0,1,.588-.672A7.8,7.8,0,0,1,15.228-9.72ZM27.948-5.352H25.44v-.972h2.508Zm0,1.632H25.44V-4.7h2.508Zm0,1.656H25.44v-1h2.508Zm-3.3-4.944V-1.38h4.128V-7.008H26.544c.048-.3.108-.648.156-1.008h2.64v-.768H26.8c.06-.408.108-.828.144-1.2l-.9-.048c-.024.384-.06.816-.108,1.248H23.184v.768h2.664c-.036.36-.084.708-.132,1.008Zm-2.712.864a15.859,15.859,0,0,1-.516,2.4A10.082,10.082,0,0,0,19.9-4.824a12.105,12.105,0,0,0,.48-1.32ZM18.72-8.712h1.392a11.44,11.44,0,0,1-1.68,4.764,3.911,3.911,0,0,1,.66.588,7.981,7.981,0,0,0,.468-.756A8.962,8.962,0,0,1,21.12-2.88a7.121,7.121,0,0,1-2.3,3.228,3.128,3.128,0,0,1,.636.624C21.168-.372,22.4-2.952,22.836-6.816L22.32-6.96l-.144.024H20.6c.144-.564.264-1.164.372-1.776H22.9V-9.54H18.72ZM29.5-.5H23.772V-6.168h-.8V.912h.8V.276H29.5Zm9.936-4.932v-.8H36.288c.06-.588.084-1.212.108-1.884h-.828c-.024.672-.048,1.308-.108,1.884H32.568v.8h2.784a4.26,4.26,0,0,1-2.928,3.684,2.23,2.23,0,0,1,.528.684,4.711,4.711,0,0,0,3.06-3.492A5.014,5.014,0,0,0,39-1.116a2.947,2.947,0,0,1,.552-.72,4.588,4.588,0,0,1-3-3.6ZM31.908-.48V-8.628h8.184V-.48Zm-.888-9V.912h.888V.372h8.184v.54H41V-9.48Zm22.4,4.764H48.48V-5.892A18.14,18.14,0,0,0,52.4-8.76l-.648-.492L51.54-9.2H43.848v.864H50.6a15.27,15.27,0,0,1-2.472,1.7h-.564v1.92H42.612v.888h4.956V-.24c0,.216-.072.276-.336.288s-1.14.012-2.1-.024a4.228,4.228,0,0,1,.384.912A8.891,8.891,0,0,0,47.88.78c.444-.144.6-.42.6-1.02V-3.828h4.944Z" transform="translate(54 55.762)" fill="#3c505a"/>
        </g>
      </g>
      <g id="Group_58" data-name="Group 58" transform="translate(0 23.63)">
        <circle id="Ellipse_78" data-name="Ellipse 78" cx="35.883" cy="35.883" r="35.883" transform="translate(0 0)" fill="#ffbe00"/>
        <path id="Path_214" data-name="Path 214" d="M-19.054-9.772v1.918c.35-.028.952-.056,1.33-.056h2.7V-2.2h-3.556A9.067,9.067,0,0,1-19.95-2.31V-.28a11.7,11.7,0,0,1,1.372-.07h9.226a11.232,11.232,0,0,1,1.316.07V-2.31A8.555,8.555,0,0,1-9.352-2.2h-3.71V-7.91h2.954c.406,0,.9.028,1.316.056V-9.772c-.406.042-.9.084-1.316.084h-7.616C-18.116-9.688-18.69-9.73-19.054-9.772ZM1.022-10.92l-2.044-.672a6.735,6.735,0,0,1-.63,1.47A12.327,12.327,0,0,1-6.02-5.614l1.568,1.162A15.958,15.958,0,0,0-.924-7.84H3.01A9.952,9.952,0,0,1,1.022-4.018,11.157,11.157,0,0,1-4.62-.56L-2.968.924A13.072,13.072,0,0,0,2.688-3.024,14.607,14.607,0,0,0,5.124-7.7a5.605,5.605,0,0,1,.462-1.008L4.158-9.59a4.489,4.489,0,0,1-1.218.168H.126c.014-.028.028-.042.042-.07C.336-9.8.7-10.43,1.022-10.92ZM10.416-.812,12.082.616a11.851,11.851,0,0,0,4.858-4.3A14.716,14.716,0,0,0,18.886-8.6c.1-.406.252-1.092.42-1.638l-2.268-.308a7.826,7.826,0,0,1-.182,1.694A10.926,10.926,0,0,1,15.2-4.62,10.643,10.643,0,0,1,10.416-.812Zm-.294-9.66L8.33-9.548A31.736,31.736,0,0,1,10.7-5.32l1.848-1.05C12.026-7.35,10.822-9.492,10.122-10.472Zm-27.5,29.66,1.666,1.428a11.851,11.851,0,0,0,4.858-4.3A14.716,14.716,0,0,0-8.9,11.4c.1-.406.252-1.092.42-1.638l-2.268-.308a7.827,7.827,0,0,1-.182,1.694,10.926,10.926,0,0,1-1.652,4.228A10.643,10.643,0,0,1-17.374,19.188Zm-.294-9.66-1.792.924a31.736,31.736,0,0,1,2.366,4.228l1.848-1.05C-15.764,12.65-16.968,10.508-17.668,9.528ZM-5.5,13.518v2.2c.518-.042,1.456-.07,2.254-.07H4.27c.588,0,1.3.056,1.638.07v-2.2c-.364.028-.98.084-1.638.084H-3.248C-3.976,13.6-5,13.56-5.5,13.518ZM14.56,9.444l-2.226-.462A10.188,10.188,0,0,1,12,10.606c-.406,1.456-1.61,5.292-2.422,7.364-.126,0-.266.014-.378.014C8.736,18,8.134,18,7.658,18l.322,2.044c.448-.056.966-.126,1.316-.168,1.764-.182,6.006-.63,8.274-.9.266.6.49,1.176.672,1.652l1.89-.84a43.058,43.058,0,0,0-3.066-5.824l-1.75.714a16.922,16.922,0,0,1,1.47,2.562c-1.414.168-3.4.392-5.11.56.7-1.876,1.834-5.432,2.282-6.8C14.168,10.382,14.378,9.864,14.56,9.444Z" transform="translate(35.003 30.004)" fill="#fff"/>
      </g>
      <g id="Group_57" data-name="Group 57" transform="translate(175.917 158.412)">
        <circle id="Ellipse_79" data-name="Ellipse 79" cx="35.883" cy="35.883" r="35.883" transform="translate(0 0)" fill="#ffbe00"/>
        <path id="Path_213" data-name="Path 213" d="M-19.054-9.772v1.918c.35-.028.952-.056,1.33-.056h2.7V-2.2h-3.556A9.067,9.067,0,0,1-19.95-2.31V-.28a11.7,11.7,0,0,1,1.372-.07h9.226a11.232,11.232,0,0,1,1.316.07V-2.31A8.555,8.555,0,0,1-9.352-2.2h-3.71V-7.91h2.954c.406,0,.9.028,1.316.056V-9.772c-.406.042-.9.084-1.316.084h-7.616C-18.116-9.688-18.69-9.73-19.054-9.772ZM1.022-10.92l-2.044-.672a6.735,6.735,0,0,1-.63,1.47A12.327,12.327,0,0,1-6.02-5.614l1.568,1.162A15.958,15.958,0,0,0-.924-7.84H3.01A9.952,9.952,0,0,1,1.022-4.018,11.157,11.157,0,0,1-4.62-.56L-2.968.924A13.072,13.072,0,0,0,2.688-3.024,14.607,14.607,0,0,0,5.124-7.7a5.605,5.605,0,0,1,.462-1.008L4.158-9.59a4.489,4.489,0,0,1-1.218.168H.126c.014-.028.028-.042.042-.07C.336-9.8.7-10.43,1.022-10.92ZM10.416-.812,12.082.616a11.851,11.851,0,0,0,4.858-4.3A14.716,14.716,0,0,0,18.886-8.6c.1-.406.252-1.092.42-1.638l-2.268-.308a7.826,7.826,0,0,1-.182,1.694A10.926,10.926,0,0,1,15.2-4.62,10.643,10.643,0,0,1,10.416-.812Zm-.294-9.66L8.33-9.548A31.736,31.736,0,0,1,10.7-5.32l1.848-1.05C12.026-7.35,10.822-9.492,10.122-10.472Zm-27.5,29.66,1.666,1.428a11.851,11.851,0,0,0,4.858-4.3A14.716,14.716,0,0,0-8.9,11.4c.1-.406.252-1.092.42-1.638l-2.268-.308a7.827,7.827,0,0,1-.182,1.694,10.926,10.926,0,0,1-1.652,4.228A10.643,10.643,0,0,1-17.374,19.188Zm-.294-9.66-1.792.924a31.736,31.736,0,0,1,2.366,4.228l1.848-1.05C-15.764,12.65-16.968,10.508-17.668,9.528ZM-5.5,13.518v2.2c.518-.042,1.456-.07,2.254-.07H4.27c.588,0,1.3.056,1.638.07v-2.2c-.364.028-.98.084-1.638.084H-3.248C-3.976,13.6-5,13.56-5.5,13.518ZM14.56,9.444l-2.226-.462A10.188,10.188,0,0,1,12,10.606c-.406,1.456-1.61,5.292-2.422,7.364-.126,0-.266.014-.378.014C8.736,18,8.134,18,7.658,18l.322,2.044c.448-.056.966-.126,1.316-.168,1.764-.182,6.006-.63,8.274-.9.266.6.49,1.176.672,1.652l1.89-.84a43.058,43.058,0,0,0-3.066-5.824l-1.75.714a16.922,16.922,0,0,1,1.47,2.562c-1.414.168-3.4.392-5.11.56.7-1.876,1.834-5.432,2.282-6.8C14.168,10.382,14.378,9.864,14.56,9.444Z" transform="translate(35.003 30.004)" fill="#fff"/>
      </g>
    </g>
    <g id="Group_176" data-name="Group 176" transform="translate(774.117 10371.412)">
      <g id="Layer_2" data-name="Layer 2" transform="translate(0 0)">
        <g id="Group_34" data-name="Group 34" clip-path="url(#clip-path)">
          <rect id="Rectangle_26" data-name="Rectangle 26" width="208.623" height="163.906" transform="translate(0.723 94.657)" fill="#ecd5b8"/>
          <rect id="Rectangle_27" data-name="Rectangle 27" width="208.623" height="40.976" transform="translate(0.723 53.68)" fill="#ffe1e4"/>
          <g id="Group_29" data-name="Group 29" transform="translate(-14.197 33.719)">
            <ellipse id="Ellipse_17" data-name="Ellipse 17" cx="14.197" cy="3.044" rx="14.197" ry="3.044" transform="translate(0 25.379)" fill="#d9a56a"/>
            <path id="Path_4" data-name="Path 4" d="M29.8,85.574c-.206,1.424-6.985,3.9-14.746,2.78S1.489,82.936,1.7,81.517s6.341.564,14.1,1.688,14.207.95,14,2.374Z" transform="translate(13.399 -71.996)" fill="#d9a56a"/>
            <path id="Path_5" data-name="Path 5" d="M163.579,100.249c-.364,1.388-7.386,3.081-14.967,1.087s-12.862-6.922-12.5-8.309,6.236,1.282,13.817,3.276,14.007,2.553,13.643,3.946Z" transform="translate(-50.099 -77.486)" fill="#d9a56a"/>
            <path id="Path_6" data-name="Path 6" d="M353.645,94.86c-.491,1.351-8.257,2.184-16.4-.76s-13.585-8.547-13.1-9.9,6.721,2.063,14.867,5.007,15.12,4.3,14.63,5.656Z" transform="translate(-138.924 -73.353)" fill="#d9a56a"/>
            <ellipse id="Ellipse_18" data-name="Ellipse 18" cx="14.197" cy="3.044" rx="14.197" ry="3.044" transform="translate(35.3 25.379)" fill="#d9a56a"/>
            <ellipse id="Ellipse_19" data-name="Ellipse 19" cx="14.197" cy="3.044" rx="14.197" ry="3.044" transform="translate(70.6 25.379)" fill="#d9a56a"/>
            <ellipse id="Ellipse_20" data-name="Ellipse 20" cx="14.197" cy="3.044" rx="14.197" ry="3.044" transform="translate(105.905 25.379)" fill="#d9a56a"/>
            <ellipse id="Ellipse_21" data-name="Ellipse 21" cx="14.197" cy="3.044" rx="14.197" ry="3.044" transform="translate(141.204 25.379)" fill="#d9a56a"/>
            <ellipse id="Ellipse_22" data-name="Ellipse 22" cx="14.197" cy="3.044" rx="14.197" ry="3.044" transform="translate(176.504 25.379)" fill="#d9a56a"/>
            <ellipse id="Ellipse_23" data-name="Ellipse 23" cx="14.197" cy="3.044" rx="14.197" ry="3.044" transform="translate(211.804 25.379)" fill="#d9a56a"/>
            <ellipse id="Ellipse_24" data-name="Ellipse 24" cx="14.197" cy="3.044" rx="14.197" ry="3.044" transform="translate(0 49.6)" fill="#d9a56a"/>
            <ellipse id="Ellipse_25" data-name="Ellipse 25" cx="14.197" cy="3.044" rx="14.197" ry="3.044" transform="translate(35.3 49.6)" fill="#d9a56a"/>
            <ellipse id="Ellipse_26" data-name="Ellipse 26" cx="14.197" cy="3.044" rx="14.197" ry="3.044" transform="translate(70.6 49.6)" fill="#d9a56a"/>
            <ellipse id="Ellipse_27" data-name="Ellipse 27" cx="14.197" cy="3.044" rx="14.197" ry="3.044" transform="translate(105.905 49.6)" fill="#d9a56a"/>
            <ellipse id="Ellipse_28" data-name="Ellipse 28" cx="14.197" cy="3.044" rx="14.197" ry="3.044" transform="translate(141.204 49.6)" fill="#d9a56a"/>
            <ellipse id="Ellipse_29" data-name="Ellipse 29" cx="14.197" cy="3.044" rx="14.197" ry="3.044" transform="translate(176.504 49.6)" fill="#d9a56a"/>
            <ellipse id="Ellipse_30" data-name="Ellipse 30" cx="14.197" cy="3.044" rx="14.197" ry="3.044" transform="translate(211.804 49.6)" fill="#d9a56a"/>
            <ellipse id="Ellipse_31" data-name="Ellipse 31" cx="14.197" cy="3.044" rx="14.197" ry="3.044" transform="translate(18.75 37.487)" fill="#d9a56a"/>
            <ellipse id="Ellipse_32" data-name="Ellipse 32" cx="14.197" cy="3.044" rx="14.197" ry="3.044" transform="translate(54.05 37.487)" fill="#d9a56a"/>
            <ellipse id="Ellipse_33" data-name="Ellipse 33" cx="14.197" cy="3.044" rx="14.197" ry="3.044" transform="translate(89.349 37.487)" fill="#d9a56a"/>
            <ellipse id="Ellipse_34" data-name="Ellipse 34" cx="14.197" cy="3.044" rx="14.197" ry="3.044" transform="translate(124.649 37.487)" fill="#d9a56a"/>
            <ellipse id="Ellipse_35" data-name="Ellipse 35" cx="14.197" cy="3.044" rx="14.197" ry="3.044" transform="translate(159.954 37.487)" fill="#d9a56a"/>
            <ellipse id="Ellipse_36" data-name="Ellipse 36" cx="14.197" cy="3.044" rx="14.197" ry="3.044" transform="translate(195.254 37.487)" fill="#d9a56a"/>
            <path id="Path_7" data-name="Path 7" d="M102.689,88.939c.369,1.736-5.239,7.259-13.247,8.963s-15.384-1.045-15.753-2.78,7.159-.907,15.168-2.611,13.464-5.307,13.833-3.566Z" transform="translate(-20.609 -75.52)" fill="#d9a56a"/>
            <path id="Path_8" data-name="Path 8" d="M73.123,68.75c-.232,1.155-5.9,2.9-12.213,1.646S50.02,65.373,50.252,64.213s5.117,1.329,11.432,2.58S73.349,67.589,73.123,68.75Z" transform="translate(-9.54 -63.914)" fill="#d9a56a"/>
            <path id="Path_9" data-name="Path 9" d="M374.508,68.433c.158,1.235-5.038,4.9-11.907,5.777s-12.825-1.345-12.984-2.58,5.677-.4,12.551-1.287,12.182-3.15,12.34-1.915Z" transform="translate(-150.971 -65.877)" fill="#d9a56a"/>
            <path id="Path_10" data-name="Path 10" d="M374.508,68.433c.158,1.235-5.038,4.9-11.907,5.777s-12.825-1.345-12.984-2.58,5.677-.4,12.551-1.287,12.182-3.15,12.34-1.915Z" transform="translate(-150.971 -65.877)" fill="#d9a56a"/>
            <path id="Path_11" data-name="Path 11" d="M252.925,78.706c.733,1.646-3.187,8.088-10.172,11.19s-14.392,1.693-15.12.047S234.017,87.78,241,84.678s11.2-7.618,11.928-5.972Z" transform="translate(-93.319 -70.737)" fill="#d9a56a"/>
          </g>
          <g id="Group_30" data-name="Group 30" transform="translate(-20.406 97.247)">
            <rect id="Rectangle_28" data-name="Rectangle 28" width="42.886" height="18.439" rx="6.03" transform="translate(26.194)" fill="#e4b4a8"/>
            <circle id="Ellipse_37" data-name="Ellipse 37" cx="4.748" cy="4.748" r="4.748" transform="translate(42.886 4.469)" fill="#d28f7a"/>
            <rect id="Rectangle_29" data-name="Rectangle 29" width="42.886" height="18.439" rx="6.03" transform="translate(78.207)" fill="#e4b4a8"/>
            <circle id="Ellipse_38" data-name="Ellipse 38" cx="4.748" cy="4.748" r="4.748" transform="translate(94.899 4.469)" fill="#d28f7a"/>
            <rect id="Rectangle_30" data-name="Rectangle 30" width="42.886" height="18.439" rx="6.03" transform="translate(130.226)" fill="#e4b4a8"/>
            <circle id="Ellipse_39" data-name="Ellipse 39" cx="4.748" cy="4.748" r="4.748" transform="translate(146.918 4.469)" fill="#d28f7a"/>
            <rect id="Rectangle_31" data-name="Rectangle 31" width="42.886" height="18.439" rx="6.03" transform="translate(182.239)" fill="#e4b4a8"/>
            <circle id="Ellipse_40" data-name="Ellipse 40" cx="4.748" cy="4.748" r="4.748" transform="translate(198.931 4.469)" fill="#d28f7a"/>
            <rect id="Rectangle_32" data-name="Rectangle 32" width="42.886" height="18.439" rx="6.03" transform="translate(26.194 44.701)" fill="#e4b4a8"/>
            <circle id="Ellipse_41" data-name="Ellipse 41" cx="4.748" cy="4.748" r="4.748" transform="translate(42.886 49.17)" fill="#d28f7a"/>
            <rect id="Rectangle_33" data-name="Rectangle 33" width="42.886" height="18.439" rx="6.03" transform="translate(78.207 44.701)" fill="#e4b4a8"/>
            <circle id="Ellipse_42" data-name="Ellipse 42" cx="4.748" cy="4.748" r="4.748" transform="translate(94.899 49.17)" fill="#d28f7a"/>
            <rect id="Rectangle_34" data-name="Rectangle 34" width="42.886" height="18.439" rx="6.03" transform="translate(130.226 44.701)" fill="#e4b4a8"/>
            <circle id="Ellipse_43" data-name="Ellipse 43" cx="4.748" cy="4.748" r="4.748" transform="translate(146.918 49.17)" fill="#d28f7a"/>
            <rect id="Rectangle_35" data-name="Rectangle 35" width="42.886" height="18.439" rx="6.03" transform="translate(182.239 44.701)" fill="#e4b4a8"/>
            <circle id="Ellipse_44" data-name="Ellipse 44" cx="4.748" cy="4.748" r="4.748" transform="translate(198.931 49.17)" fill="#d28f7a"/>
            <rect id="Rectangle_36" data-name="Rectangle 36" width="42.886" height="18.439" rx="6.03" transform="translate(0 22.348)" fill="#e4b4a8"/>
            <circle id="Ellipse_45" data-name="Ellipse 45" cx="4.748" cy="4.748" r="4.748" transform="translate(16.698 26.822)" fill="#d28f7a"/>
            <rect id="Rectangle_37" data-name="Rectangle 37" width="42.886" height="18.439" rx="6.03" transform="translate(52.018 22.348)" fill="#e4b4a8"/>
            <circle id="Ellipse_46" data-name="Ellipse 46" cx="4.748" cy="4.748" r="4.748" transform="translate(68.711 26.822)" fill="#d28f7a"/>
            <rect id="Rectangle_38" data-name="Rectangle 38" width="42.886" height="18.439" rx="6.03" transform="translate(104.032 22.348)" fill="#e4b4a8"/>
            <circle id="Ellipse_47" data-name="Ellipse 47" cx="4.748" cy="4.748" r="4.748" transform="translate(120.729 26.822)" fill="#d28f7a"/>
            <rect id="Rectangle_39" data-name="Rectangle 39" width="42.886" height="18.439" rx="6.03" transform="translate(156.05 22.348)" fill="#e4b4a8"/>
            <circle id="Ellipse_48" data-name="Ellipse 48" cx="4.748" cy="4.748" r="4.748" transform="translate(172.743 26.822)" fill="#d28f7a"/>
            <rect id="Rectangle_40" data-name="Rectangle 40" width="42.886" height="18.439" rx="6.03" transform="translate(209.356 22.348)" fill="#e4b4a8"/>
            <circle id="Ellipse_49" data-name="Ellipse 49" cx="4.748" cy="4.748" r="4.748" transform="translate(226.048 26.822)" fill="#d28f7a"/>
          </g>
          <g id="Group_31" data-name="Group 31" transform="translate(-20.85 164.776)">
            <rect id="Rectangle_41" data-name="Rectangle 41" width="43.145" height="24.986" rx="9.52" fill="#dda46c"/>
            <circle id="Ellipse_50" data-name="Ellipse 50" cx="4.975" cy="4.975" r="4.975" transform="translate(16.597 7.518)" fill="#cf907f"/>
            <rect id="Rectangle_42" data-name="Rectangle 42" width="43.145" height="24.986" rx="9.52" transform="translate(52.214)" fill="#dda46c"/>
            <circle id="Ellipse_51" data-name="Ellipse 51" cx="4.975" cy="4.975" r="4.975" transform="translate(68.811 7.518)" fill="#cf907f"/>
            <rect id="Rectangle_43" data-name="Rectangle 43" width="43.145" height="24.986" rx="9.52" transform="translate(104.422)" fill="#dda46c"/>
            <circle id="Ellipse_52" data-name="Ellipse 52" cx="4.975" cy="4.975" r="4.975" transform="translate(121.019 7.518)" fill="#cf907f"/>
            <rect id="Rectangle_44" data-name="Rectangle 44" width="43.145" height="24.986" rx="9.52" transform="translate(156.636)" fill="#dda46c"/>
            <circle id="Ellipse_53" data-name="Ellipse 53" cx="4.975" cy="4.975" r="4.975" transform="translate(173.233 7.518)" fill="#cf907f"/>
            <rect id="Rectangle_45" data-name="Rectangle 45" width="43.145" height="24.986" rx="9.52" transform="translate(208.849)" fill="#dda46c"/>
            <circle id="Ellipse_54" data-name="Ellipse 54" cx="4.975" cy="4.975" r="4.975" transform="translate(225.447 7.518)" fill="#cf907f"/>
            <rect id="Rectangle_46" data-name="Rectangle 46" width="43.145" height="24.986" rx="9.52" transform="translate(0 60.264)" fill="#dda46c"/>
            <circle id="Ellipse_55" data-name="Ellipse 55" cx="4.975" cy="4.975" r="4.975" transform="translate(16.597 67.782)" fill="#cf907f"/>
            <rect id="Rectangle_47" data-name="Rectangle 47" width="43.145" height="24.986" rx="9.52" transform="translate(52.214 60.264)" fill="#dda46c"/>
            <circle id="Ellipse_56" data-name="Ellipse 56" cx="4.975" cy="4.975" r="4.975" transform="translate(68.811 67.782)" fill="#cf907f"/>
            <rect id="Rectangle_48" data-name="Rectangle 48" width="43.145" height="24.986" rx="9.52" transform="translate(104.422 60.264)" fill="#dda46c"/>
            <circle id="Ellipse_57" data-name="Ellipse 57" cx="4.975" cy="4.975" r="4.975" transform="translate(121.019 67.782)" fill="#cf907f"/>
            <rect id="Rectangle_49" data-name="Rectangle 49" width="43.145" height="24.986" rx="9.52" transform="translate(156.636 60.264)" fill="#dda46c"/>
            <circle id="Ellipse_58" data-name="Ellipse 58" cx="4.975" cy="4.975" r="4.975" transform="translate(173.233 67.782)" fill="#cf907f"/>
            <rect id="Rectangle_50" data-name="Rectangle 50" width="43.145" height="24.986" rx="9.52" transform="translate(208.849 60.264)" fill="#dda46c"/>
            <circle id="Ellipse_59" data-name="Ellipse 59" cx="4.975" cy="4.975" r="4.975" transform="translate(225.447 67.782)" fill="#cf907f"/>
            <rect id="Rectangle_51" data-name="Rectangle 51" width="43.145" height="24.986" rx="9.52" transform="translate(27.133 30.256)" fill="#dda46c"/>
            <circle id="Ellipse_60" data-name="Ellipse 60" cx="4.975" cy="4.975" r="4.975" transform="translate(43.73 37.774)" fill="#cf907f"/>
            <rect id="Rectangle_52" data-name="Rectangle 52" width="43.145" height="24.986" rx="9.52" transform="translate(79.347 30.256)" fill="#dda46c"/>
            <circle id="Ellipse_61" data-name="Ellipse 61" cx="4.975" cy="4.975" r="4.975" transform="translate(95.944 37.774)" fill="#cf907f"/>
            <rect id="Rectangle_53" data-name="Rectangle 53" width="43.145" height="24.986" rx="9.52" transform="translate(131.555 30.256)" fill="#dda46c"/>
            <circle id="Ellipse_62" data-name="Ellipse 62" cx="4.975" cy="4.975" r="4.975" transform="translate(148.158 37.774)" fill="#cf907f"/>
            <rect id="Rectangle_54" data-name="Rectangle 54" width="43.145" height="24.986" rx="9.52" transform="translate(183.769 30.256)" fill="#dda46c"/>
            <circle id="Ellipse_63" data-name="Ellipse 63" cx="4.975" cy="4.975" r="4.975" transform="translate(200.366 37.774)" fill="#cf907f"/>
          </g>
          <g id="Group_33" data-name="Group 33" transform="translate(0.723 245.283)">
            <rect id="Rectangle_55" data-name="Rectangle 55" width="208.623" height="84.902" transform="translate(0 13.279)" fill="#ebd4b9"/>
            <path id="Path_12" data-name="Path 12" d="M210.1,604.9H1.37V551.422s9.6,4.057,29.132,4.057,35.384-5.35,53.105-5.35,31.691,5.35,53.042,5.35,30.852-5.35,44.316-5.35,29.127,3.688,29.127,3.688V604.9Z" transform="translate(-1.37 -505.181)" fill="#ebd4b9"/>
            <g id="Group_32" data-name="Group 32" transform="translate(0.005)">
              <path id="Path_13" data-name="Path 13" d="M180.976,464.93c-13.458,0-22.965,5.35-44.316,5.35s-35.321-5.35-53.042-5.35-33.575,5.35-53.105,5.35S1.38,466.223,1.38,466.223v40.211s9.6,4.057,29.132,4.057,35.384-5.35,53.105-5.35,31.691,5.35,53.042,5.35,30.852-5.35,44.316-5.35,29.127,3.688,29.127,3.688V468.618s-15.669-3.688-29.127-3.688Z" transform="translate(-1.38 -464.93)" fill="#ebd4b6"/>
              <path id="Path_14" data-name="Path 14" d="M180.976,473.92c-13.458,0-22.965,5.35-44.316,5.35s-35.321-5.35-53.042-5.35-33.575,5.35-53.105,5.35S1.38,475.213,1.38,475.213v40.211s9.6,4.057,29.132,4.057,35.384-5.35,53.105-5.35,31.691,5.35,53.042,5.35,30.852-5.35,44.316-5.35,29.127,3.688,29.127,3.688V477.608S194.434,473.92,180.976,473.92Z" transform="translate(-1.38 -469.177)" fill="#fee1e2"/>
              <rect id="Rectangle_56" data-name="Rectangle 56" width="20.945" height="24.342" rx="7.93" transform="translate(5.292 14.978)" fill="#e4b4a7"/>
              <circle id="Ellipse_64" data-name="Ellipse 64" cx="4.368" cy="4.368" r="4.368" transform="translate(11.396 22.781)" fill="#d18d7c"/>
              <rect id="Rectangle_57" data-name="Rectangle 57" width="20.945" height="24.342" rx="7.93" transform="translate(35.036 18.122)" fill="#e4b4a7"/>
              <circle id="Ellipse_65" data-name="Ellipse 65" cx="4.368" cy="4.368" r="4.368" transform="translate(41.14 25.925)" fill="#d18d7c"/>
              <rect id="Rectangle_58" data-name="Rectangle 58" width="20.945" height="24.342" rx="7.93" transform="translate(63.952 11.659)" fill="#e4b4a7"/>
              <circle id="Ellipse_66" data-name="Ellipse 66" cx="4.368" cy="4.368" r="4.368" transform="translate(70.056 19.462)" fill="#d18d7c"/>
              <rect id="Rectangle_59" data-name="Rectangle 59" width="20.945" height="24.342" rx="7.93" transform="translate(94.704 19.346)" fill="#e4b4a7"/>
              <circle id="Ellipse_67" data-name="Ellipse 67" cx="4.368" cy="4.368" r="4.368" transform="translate(100.808 27.149)" fill="#d18d7c"/>
              <rect id="Rectangle_60" data-name="Rectangle 60" width="20.945" height="24.342" rx="7.93" transform="translate(122.66 18.687)" fill="#e4b4a7"/>
              <circle id="Ellipse_68" data-name="Ellipse 68" cx="4.368" cy="4.368" r="4.368" transform="translate(128.764 26.489)" fill="#d18d7c"/>
              <rect id="Rectangle_61" data-name="Rectangle 61" width="20.945" height="24.342" rx="7.93" transform="translate(153.127 14.978)" fill="#e4b4a7"/>
              <circle id="Ellipse_69" data-name="Ellipse 69" cx="4.368" cy="4.368" r="4.368" transform="translate(159.231 22.781)" fill="#d18d7c"/>
              <rect id="Rectangle_62" data-name="Rectangle 62" width="20.945" height="24.342" rx="7.93" transform="translate(181.447 11.659)" fill="#e4b4a7"/>
              <circle id="Ellipse_70" data-name="Ellipse 70" cx="4.368" cy="4.368" r="4.368" transform="translate(187.551 19.462)" fill="#d18d7c"/>
            </g>
          </g>
        </g>
      </g>
      <path id="Path_212" data-name="Path 212" d="M-2.432-5.728A23.283,23.283,0,0,1-5.456-3.456,10.791,10.791,0,0,1-6.8-6.256h5.728V-7.3H-7.44v-1.44h5.216v-.976H-7.44v-1.312h5.824v-1.04H-7.44v-1.328H-8.624v1.328h-5.728v1.04h5.728v1.312h-5.008v.976h5.008V-7.3h-6.32v1.04h5.536a17.575,17.575,0,0,1-6.064,3.1,7.64,7.64,0,0,1,.768.976,20.5,20.5,0,0,0,3.216-1.408V-.4c-.832.208-1.6.384-2.24.528l.384,1.088C-11.44.736-8.72.064-6.208-.608l-.128-1.056c-1.328.336-2.688.672-3.952.976V-4.3A14.377,14.377,0,0,0-7.92-6.176C-6.8-2.56-4.752.016-1.344,1.168A3.814,3.814,0,0,1-.576.128a8.693,8.693,0,0,1-4.3-2.816,28.807,28.807,0,0,0,3.392-2.3Zm14.5-.3A8.9,8.9,0,0,1,9.088-2.384a10.116,10.116,0,0,1-2.96-3.648ZM3.584-7.28v-2.784h4.24v2.912H3.584ZM12.9-7.2l-.224.048H9.04v-2.912h4.08a21.8,21.8,0,0,1-.912,2.048L13.3-7.68a24.984,24.984,0,0,0,1.472-3.344l-.9-.24-.224.048H9.04v-2.192H7.824v2.192H2.416V-7.3c0,2.32-.192,5.456-1.888,7.68a4.04,4.04,0,0,1,.944.784c1.552-2.016,2-4.88,2.1-7.2H4.9a11.758,11.758,0,0,0,3.168,4.32A16.652,16.652,0,0,1,2.992.128,4.81,4.81,0,0,1,3.68,1.216,17.309,17.309,0,0,0,9.056-.944a14.916,14.916,0,0,0,5.488,2.208A5.177,5.177,0,0,1,15.3.16,14.22,14.22,0,0,1,10.112-1.7,10.834,10.834,0,0,0,13.68-6.752ZM-21.52,17.776h3.536v1.248H-21.52Zm0-2.128h3.536v1.216H-21.52Zm2.32,4.32h2.3V14.7h-2.3V13.36h2.784V12.3H-19.2v-1.7h-1.152v1.7H-23.1V13.36h2.752V14.7h-2.24v5.264h2.24v1.344H-23.28V22.4h2.928v2.816H-19.2V22.4h2.928V21.312H-19.2Zm7.12-3.008h2.32v-1.1h-5.68a14.852,14.852,0,0,0,2.784-4A17.023,17.023,0,0,0-9.12,16.368a8.519,8.519,0,0,1,.672-1.056,15.115,15.115,0,0,1-3.7-4.624h-1.12A13.257,13.257,0,0,1-16.848,15.6a3.9,3.9,0,0,1,.624.976,8.353,8.353,0,0,0,.688-.624V16.96h2.272V19.2H-16.3v1.1h3.04v4.88h1.184V20.3h3.2V19.2h-3.2Zm5.616,2.72a12.376,12.376,0,0,1-.992,3.792,4.156,4.156,0,0,1,.928.448A14.67,14.67,0,0,0-5.44,19.856Zm3.456.24a15.713,15.713,0,0,1,1.04,3.1l.96-.32A15.964,15.964,0,0,0-2.1,19.616ZM-3.3,16.064a13.39,13.39,0,0,1,.72,1.248l-2.48.16a42.625,42.625,0,0,0,3.216-4.56l-.992-.48a34.133,34.133,0,0,1-1.792,2.976,11.294,11.294,0,0,0-.976-1.12,34.406,34.406,0,0,0,1.872-3.264L-4.8,10.608a20.187,20.187,0,0,1-1.472,3.024c-.16-.144-.3-.288-.464-.416L-7.344,14a12.6,12.6,0,0,1,2.1,2.3c-.32.448-.64.88-.96,1.248-.448.032-.864.064-1.248.08l.176,1.088,2.64-.24V25.2h1.072V18.384l1.44-.144a10.589,10.589,0,0,1,.448,1.184l.96-.464A13.886,13.886,0,0,0-2.4,15.68ZM3.52,23.056V18.48H5.712v4.576ZM.384,18.48h2.08v4.576H.384Zm2.08-5.488v4.4H.384v-4.4Zm3.248,4.4H3.52v-4.4H5.712Zm-6.4-5.5V25.024H.384V24.16H5.712V24.9h1.1V11.888ZM10.72,18.752c.032-.656.032-1.28.032-1.84v-.9H12.8v2.736Zm2.08-6.464v2.64H10.752v-2.64Zm4.848,11.744c-1.024,0-1.232-.112-1.232-.672V19.728h3.472V15.28h-4.24a13.694,13.694,0,0,0,.848-1.6h5.168c-.112,4.464-.224,6.048-.512,6.432a.477.477,0,0,1-.48.224c-.272,0-.9-.016-1.568-.064a2.967,2.967,0,0,1,.336,1.088,11.871,11.871,0,0,0,1.728-.016,1.2,1.2,0,0,0,.992-.528c.416-.544.512-2.336.624-7.648.016-.176.016-.576.016-.576H16.96a16.55,16.55,0,0,0,.576-1.712l-1.2-.272a12.949,12.949,0,0,1-2.448,4.976V11.2H9.7v5.728c0,2.336-.08,5.536-1.136,7.776a3.236,3.236,0,0,1,.944.544,16.026,16.026,0,0,0,1.152-5.408H12.8v3.968c0,.208-.08.272-.288.288-.176.016-.816.016-1.52,0a4.161,4.161,0,0,1,.336,1.1,5.488,5.488,0,0,0,2.032-.208c.4-.208.528-.56.528-1.184V15.76c.288.208.7.544.9.72a10.739,10.739,0,0,0,.688-.928V16.3h3.312v2.4h-3.5v4.672c0,1.376.528,1.7,2.3,1.7h3.648c1.6,0,1.968-.576,2.128-2.864A3.622,3.622,0,0,1,22.3,21.76c-.1,1.952-.24,2.272-1.152,2.272Z" transform="translate(30.112 183.318)" fill="#fff"/>
      <path id="Path_211" data-name="Path 211" d="M-4.24-8.144H-11.5v-1.04H-4.24Zm0,1.824H-11.5V-7.392H-4.24Zm0,1.84H-11.5V-5.552H-4.24Zm-4.4-5.488h-4V-3.68h9.6V-9.968H-7.424V-11.04h6.08v-1.024h-6.08v-1.328H-8.64v1.328h-5.936v1.024H-8.64Zm7.7,7.2h-14.1V-1.76h14.1Zm-9.5,1.328A18.4,18.4,0,0,1-15.04.416a9.908,9.908,0,0,1,.816.832A20.751,20.751,0,0,0-9.392-.768Zm3.92.736A40.274,40.274,0,0,1-1.84,1.248l.992-.8a51.59,51.59,0,0,0-4.912-1.9ZM12.064-6.032A8.9,8.9,0,0,1,9.088-2.384a10.116,10.116,0,0,1-2.96-3.648ZM3.584-7.28v-2.784h4.24v2.912H3.584ZM12.9-7.2l-.224.048H9.04v-2.912h4.08a21.8,21.8,0,0,1-.912,2.048L13.3-7.68a24.984,24.984,0,0,0,1.472-3.344l-.9-.24-.224.048H9.04v-2.192H7.824v2.192H2.416V-7.3c0,2.32-.192,5.456-1.888,7.68a4.04,4.04,0,0,1,.944.784c1.552-2.016,2-4.88,2.1-7.2H4.9a11.758,11.758,0,0,0,3.168,4.32A16.652,16.652,0,0,1,2.992.128,4.81,4.81,0,0,1,3.68,1.216,17.309,17.309,0,0,0,9.056-.944a14.916,14.916,0,0,0,5.488,2.208A5.177,5.177,0,0,1,15.3.16,14.22,14.22,0,0,1,10.112-1.7,10.834,10.834,0,0,0,13.68-6.752ZM-21.52,17.776h3.536v1.248H-21.52Zm0-2.128h3.536v1.216H-21.52Zm2.32,4.32h2.3V14.7h-2.3V13.36h2.784V12.3H-19.2v-1.7h-1.152v1.7H-23.1V13.36h2.752V14.7h-2.24v5.264h2.24v1.344H-23.28V22.4h2.928v2.816H-19.2V22.4h2.928V21.312H-19.2Zm7.12-3.008h2.32v-1.1h-5.68a14.852,14.852,0,0,0,2.784-4A17.023,17.023,0,0,0-9.12,16.368a8.519,8.519,0,0,1,.672-1.056,15.115,15.115,0,0,1-3.7-4.624h-1.12A13.257,13.257,0,0,1-16.848,15.6a3.9,3.9,0,0,1,.624.976,8.353,8.353,0,0,0,.688-.624V16.96h2.272V19.2H-16.3v1.1h3.04v4.88h1.184V20.3h3.2V19.2h-3.2Zm5.616,2.72a12.376,12.376,0,0,1-.992,3.792,4.156,4.156,0,0,1,.928.448A14.67,14.67,0,0,0-5.44,19.856Zm3.456.24a15.713,15.713,0,0,1,1.04,3.1l.96-.32A15.964,15.964,0,0,0-2.1,19.616ZM-3.3,16.064a13.39,13.39,0,0,1,.72,1.248l-2.48.16a42.625,42.625,0,0,0,3.216-4.56l-.992-.48a34.133,34.133,0,0,1-1.792,2.976,11.294,11.294,0,0,0-.976-1.12,34.406,34.406,0,0,0,1.872-3.264L-4.8,10.608a20.187,20.187,0,0,1-1.472,3.024c-.16-.144-.3-.288-.464-.416L-7.344,14a12.6,12.6,0,0,1,2.1,2.3c-.32.448-.64.88-.96,1.248-.448.032-.864.064-1.248.08l.176,1.088,2.64-.24V25.2h1.072V18.384l1.44-.144a10.589,10.589,0,0,1,.448,1.184l.96-.464A13.886,13.886,0,0,0-2.4,15.68ZM3.52,23.056V18.48H5.712v4.576ZM.384,18.48h2.08v4.576H.384Zm2.08-5.488v4.4H.384v-4.4Zm3.248,4.4H3.52v-4.4H5.712Zm-6.4-5.5V25.024H.384V24.16H5.712V24.9h1.1V11.888ZM10.72,18.752c.032-.656.032-1.28.032-1.84v-.9H12.8v2.736Zm2.08-6.464v2.64H10.752v-2.64Zm4.848,11.744c-1.024,0-1.232-.112-1.232-.672V19.728h3.472V15.28h-4.24a13.694,13.694,0,0,0,.848-1.6h5.168c-.112,4.464-.224,6.048-.512,6.432a.477.477,0,0,1-.48.224c-.272,0-.9-.016-1.568-.064a2.967,2.967,0,0,1,.336,1.088,11.871,11.871,0,0,0,1.728-.016,1.2,1.2,0,0,0,.992-.528c.416-.544.512-2.336.624-7.648.016-.176.016-.576.016-.576H16.96a16.55,16.55,0,0,0,.576-1.712l-1.2-.272a12.949,12.949,0,0,1-2.448,4.976V11.2H9.7v5.728c0,2.336-.08,5.536-1.136,7.776a3.236,3.236,0,0,1,.944.544,16.026,16.026,0,0,0,1.152-5.408H12.8v3.968c0,.208-.08.272-.288.288-.176.016-.816.016-1.52,0a4.161,4.161,0,0,1,.336,1.1,5.488,5.488,0,0,0,2.032-.208c.4-.208.528-.56.528-1.184V15.76c.288.208.7.544.9.72a10.739,10.739,0,0,0,.688-.928V16.3h3.312v2.4h-3.5v4.672c0,1.376.528,1.7,2.3,1.7h3.648c1.6,0,1.968-.576,2.128-2.864A3.622,3.622,0,0,1,22.3,21.76c-.1,1.952-.24,2.272-1.152,2.272Z" transform="translate(30.112 313.228)" fill="#fff"/>
      <g id="Group_36" data-name="Group 36" transform="translate(81.269 66.829)">
        <g transform="matrix(1, 0, 0, 1, -100.39, -313.6)" filter="url(#Union_1)">
          <path id="Union_1-2" data-name="Union 1" d="M11.01,251.014V31.387H0L24.587,0,49.175,31.387H38.9V251.014Z" transform="translate(100.39 313.6)" fill="#999ea2"/>
        </g>
        <g id="Layer_2-2" data-name="Layer 2" transform="translate(16.881 88.075)">
          <g id="Group_36-2" data-name="Group 36" transform="translate(0 0)">
            <path id="Path_17" data-name="Path 17" d="M12.987,2.978a.262.262,0,0,1-.2.183,21.857,21.857,0,0,1-2.476,5.584,25.267,25.267,0,0,1,2.18,1.407l-.7,1.111A23.518,23.518,0,0,0,9.611,9.8a15.877,15.877,0,0,1-6.09,5.134,3.442,3.442,0,0,0-.928-.872A16.273,16.273,0,0,0,8.571,9.209,29.7,29.7,0,0,0,4.843,7.451l.647-.942a27.768,27.768,0,0,1,3.8,1.7,17.214,17.214,0,0,0,2.04-4.473H5.6a18.341,18.341,0,0,1-3.9,4.642A10.813,10.813,0,0,0,.75,7.62,17.556,17.556,0,0,0,6.067.01l1.6.366A.4.4,0,0,1,7.22.6c-.239.563-.619,1.378-.942,2.011h5.6l.239-.07.914.45Z" transform="translate(0.305 -0.01)" fill="#fff"/>
            <path id="Path_18" data-name="Path 18" d="M4.99,11.76l1.744.141c-.014.183-.169.309-.45.352v13.8H5V11.76Z" transform="translate(2.029 4.767)" fill="#fff"/>
            <path id="Path_19" data-name="Path 19" d="M1.5,24.23A20.993,20.993,0,0,1,6.52,26.523l-.647,1.069A21.634,21.634,0,0,0,.95,25.243l.534-1.013Zm-.07,11.689c5.992-1.857,9.973-5.218,12-9.888a6.721,6.721,0,0,0,1.1.689c-2.11,4.628-6.231,8.214-11.942,10.127a.532.532,0,0,1-.239.394l-.914-1.322Z" transform="translate(0.386 9.837)" fill="#fff"/>
            <path id="Path_20" data-name="Path 20" d="M14.493,39.446H9.443l.07,8.2c.028,1.7-1.111,1.758-4.22,1.716a5.607,5.607,0,0,0-.309-1.1c1.111.014,2.447.014,2.757-.014a.6.6,0,0,0,.591-.619l-.07-7.286A24.158,24.158,0,0,1,.99,47.126a4.216,4.216,0,0,0-.83-.914,22.5,22.5,0,0,0,7.37-6.766H.835V38.293h7.4L8.206,34.65l1.618.07c-.014.183-.183.281-.422.324l.028,3.249h5.064Z" transform="translate(0.065 14.074)" fill="#fff"/>
            <path id="Path_21" data-name="Path 21" d="M4.99,46.56l1.744.141c-.014.183-.169.309-.45.352v13.8H5V46.56Z" transform="translate(2.029 18.916)" fill="#fff"/>
            <path id="Path_22" data-name="Path 22" d="M5.612,60.934a.437.437,0,0,1-.436.253C4.5,65.238,3.109,69.5,1.125,72A5.407,5.407,0,0,0,0,71.4c1.885-2.293,3.376-6.583,3.91-10.817l1.7.352Zm8.5,10.957A57.144,57.144,0,0,0,9.621,61.033l1.1-.52a54.876,54.876,0,0,1,4.628,10.9l-1.238.492ZM11.66,58.332a12.2,12.2,0,0,1,2.054,2.49l-.647.478a13.706,13.706,0,0,0-2.054-2.49Zm2.222-.872a13.231,13.231,0,0,1,2.068,2.476l-.661.492a13.621,13.621,0,0,0-2.054-2.476Z" transform="translate(0 23.347)" fill="#fff"/>
            <path id="Path_23" data-name="Path 23" d="M4.99,69.48l1.744.141c-.014.183-.169.309-.45.352v13.8H5V69.48Z" transform="translate(2.029 28.234)" fill="#fff"/>
          </g>
        </g>
      </g>
    </g>
  </g>
</svg>
