<svg xmlns="http://www.w3.org/2000/svg" width="175.999" height="58.002" viewBox="0 0 175.999 58.002">
  <g id="Group_168" data-name="Group 168" transform="translate(-713 -4781)">
    <g id="Union_5" data-name="Union 5" transform="translate(-5958 -14329)" fill="none">
      <path d="M6753.345,19159H6695.5a24.5,24.5,0,0,1,0-49h127a24.5,24.5,0,0,1,0,49h-57.841l-5.658,9Z" stroke="none"/>
      <path d="M 6759 19166.123046875 L 6764.10498046875 19158 L 6822.49853515625 19158 C 6825.671875 19158 6828.74951171875 19157.37890625 6831.64599609375 19156.154296875 C 6834.4443359375 19154.970703125 6836.95751953125 19153.275390625 6839.11572265625 19151.1171875 C 6841.2744140625 19148.958984375 6842.96875 19146.4453125 6844.15234375 19143.6484375 C 6845.37744140625 19140.751953125 6845.99853515625 19137.673828125 6845.99853515625 19134.5 C 6845.99853515625 19131.326171875 6845.37744140625 19128.25 6844.15234375 19125.353515625 C 6842.96875 19122.5546875 6841.2744140625 19120.041015625 6839.11572265625 19117.8828125 C 6836.95751953125 19115.724609375 6834.44384765625 19114.029296875 6831.64599609375 19112.845703125 C 6828.7490234375 19111.62109375 6825.671875 19111 6822.49853515625 19111 L 6695.5 19111 C 6692.32666015625 19111 6689.24951171875 19111.62109375 6686.3525390625 19112.845703125 C 6683.5546875 19114.029296875 6681.041015625 19115.724609375 6678.8828125 19117.8828125 C 6676.72412109375 19120.041015625 6675.02978515625 19122.5546875 6673.84619140625 19125.353515625 C 6672.62109375 19128.25 6672 19131.326171875 6672 19134.5 C 6672 19137.673828125 6672.62109375 19140.751953125 6673.84619140625 19143.6484375 C 6675.02978515625 19146.4453125 6676.72412109375 19148.958984375 6678.8828125 19151.1171875 C 6681.041015625 19153.275390625 6683.55419921875 19154.970703125 6686.3525390625 19156.154296875 C 6689.2490234375 19157.37890625 6692.32666015625 19158 6695.5 19158 L 6753.89794921875 19158 L 6754.19189453125 19158.46875 L 6759 19166.123046875 M 6758.99951171875 19168.001953125 L 6753.34521484375 19159 L 6695.5 19159 C 6681.96826171875 19159 6671 19148.033203125 6671 19134.5 C 6671 19120.96875 6681.96826171875 19110 6695.5 19110 L 6822.49853515625 19110 C 6836.0302734375 19110 6846.99853515625 19120.96875 6846.99853515625 19134.5 C 6846.99853515625 19148.033203125 6836.0302734375 19159 6822.49853515625 19159 L 6764.65771484375 19159 L 6758.99951171875 19168.001953125 Z" stroke="none" fill="#3c505a"/>
    </g>
    <path id="Path_180" data-name="Path 180" d="M-69.378-23.157l.124,2.542c.651-.062,1.581-.155,2.356-.217,1.333-.093,6.789-.341,8.153-.434-1.953,1.736-6.882,6.045-10.23,8.37-1.581.186-3.689.434-5.363.62l.217,2.325c3.72-.62,7.843-1.085,11.16-1.364a7.425,7.425,0,0,0-3.6,5.859c0,4.743,4.123,7.13,11.687,6.789l.527-2.511a20.145,20.145,0,0,1-4.464-.093c-2.821-.372-5.332-1.426-5.332-4.557,0-2.914,2.945-5.487,5.952-5.921a48.514,48.514,0,0,1,7.874-.124v-2.294c-4.464,0-10.044.4-14.756.9,2.48-1.953,6.975-5.7,9.269-7.626a17.9,17.9,0,0,1,1.674-1.147l-1.581-1.767a10.861,10.861,0,0,1-1.674.279c-1.8.217-8.184.5-9.548.5A19.554,19.554,0,0,1-69.378-23.157Zm31.961.837c0,.341-.062,1.488-.155,2.945-1.612.279-3.441.465-4.464.527-.744.031-1.333.062-2.015.031l.248,2.542c1.953-.279,4.681-.651,6.076-.837-.062.992-.155,2.046-.217,3.069-1.55,2.418-5.146,7.254-6.882,9.424l1.581,2.139c1.488-2.108,3.534-5.053,5.053-7.347,0,.5-.031.93-.031,1.24-.062,3.379-.062,4.96-.093,7.936,0,.5-.031,1.271-.093,1.829h2.7c-.062-.558-.124-1.333-.155-1.891-.155-2.759-.124-4.65-.124-7.471,0-1.116.031-2.356.093-3.658,2.852-3.038,6.6-5.952,9.114-5.952a2.228,2.228,0,0,1,2.511,2.542c0,3.038-1.178,8.122-1.178,11.563,0,2.573,1.4,3.906,3.441,3.906a8.038,8.038,0,0,0,5.7-2.573l-.4-2.666C-18.29-3.348-19.9-2.449-21.39-2.449-22.506-2.449-23-3.317-23-4.34c0-3.162,1.147-8.494,1.147-11.594,0-2.511-1.426-4.154-4.309-4.154-3.131,0-7.13,3.007-9.548,5.239.062-.62.093-1.209.155-1.8.465-.775.992-1.612,1.4-2.17l-.9-1.085c-.062.031-.124.031-.186.062.217-2.17.465-3.906.62-4.681l-2.914-.093A14.815,14.815,0,0,1-37.417-22.32ZM-1.674-3.72c0-1.519,1.643-2.511,3.968-2.511a10.55,10.55,0,0,1,3.162.5c.031.4.031.775.031,1.085,0,2.046-.775,3.379-3.379,3.379C-.124-1.271-1.674-2.139-1.674-3.72ZM7.719-23.87H4.929c.062.527.124,1.364.124,1.891v3.844c-.961.031-1.953.062-2.914.062-1.86,0-3.5-.093-5.27-.248V-16c1.829.124,3.441.217,5.208.217.992,0,1.984-.031,2.976-.062.031,2.542.217,5.58.31,7.967A14.216,14.216,0,0,0,2.48-8.153c-4.061,0-6.386,2.077-6.386,4.681,0,2.79,2.294,4.433,6.448,4.433,4.185,0,5.363-2.449,5.363-4.991v-.651a25.219,25.219,0,0,1,4.681,3.6L13.95-3.162a20.433,20.433,0,0,0-6.138-4c-.124-2.6-.341-5.7-.372-8.835,1.86-.124,3.658-.31,5.363-.589v-2.387a52.346,52.346,0,0,1-5.363.713c.031-1.457.062-2.914.093-3.751Q7.58-22.94,7.719-23.87Zm-15.314.186-2.728-.217a18.6,18.6,0,0,1-.186,2.2A92.239,92.239,0,0,0-11.935-8.649a37.443,37.443,0,0,0,1.178,9.8l2.17-.155C-8.618.651-8.649.217-8.649-.093a5.553,5.553,0,0,1,.124-1.4c.31-1.519,1.457-4.681,2.2-6.851l-1.271-.992C-8.122-8.06-8.866-6.169-9.362-4.774a29.08,29.08,0,0,1-.31-4.309,76.863,76.863,0,0,1,1.55-12.493A16.12,16.12,0,0,1-7.595-23.684ZM32.209-.9V-8.525h9.734v-2.2H32.209v-6.789H43.214v-2.263H33.2l1.457-1.054a35.55,35.55,0,0,0-5.673-4.991l-1.86,1.3a34.809,34.809,0,0,1,5.27,4.743H18.786v2.263H29.76v6.789H20.212v2.2H29.76V-.9H17.36V1.364h27.4V-.9ZM60.636-20.925v2.48a72.867,72.867,0,0,0,12.741,0v-2.511A53.038,53.038,0,0,1,60.636-20.925ZM61.845-8.308l-2.232-.217a16.661,16.661,0,0,0-.527,3.658c0,2.914,2.325,4.65,7.533,4.65a42.01,42.01,0,0,0,7.75-.651l-.062-2.6a34.2,34.2,0,0,1-7.688.806c-4.216,0-5.239-1.364-5.239-2.79A10.825,10.825,0,0,1,61.845-8.308Zm-7.13-15-2.759-.248a13.566,13.566,0,0,1-.217,2.2A87.2,87.2,0,0,0,50.344-8.928a39.032,39.032,0,0,0,1.147,9.951L53.723.868c-.031-.31-.062-.744-.093-1.085a5.983,5.983,0,0,1,.155-1.395,63.267,63.267,0,0,1,2.2-6.944l-1.3-.992c-.527,1.271-1.271,3.131-1.8,4.526a34,34,0,0,1-.279-4.34,71.983,71.983,0,0,1,1.55-11.873C54.281-21.793,54.56-22.785,54.715-23.312Z" transform="translate(800 4819)" fill="#3c505a"/>
  </g>
</svg>
