<svg xmlns="http://www.w3.org/2000/svg" width="375" height="218" viewBox="0 0 375 218">
  <g id="Group_86" data-name="Group 86" transform="translate(29 26)">
    <rect id="Rectangle_187" data-name="Rectangle 187" width="375" height="218" transform="translate(-29 -26)" fill="none"/>
    <path id="Path_168" data-name="Path 168" d="M5.152-.816c-.016-.96-.032-1.9-.032-2.848V-9.152l.064-2.5-.24-.176-3.456.9v.576l2.4-.272v6.96c0,.944-.016,1.888-.032,2.848l-2.528.3V0h6.32V-.512ZM14.72-4.224v-4h3.648v4Zm4.048-5.088-.56.64H14.8l-1.056-.5v6.416h.16c.416,0,.816-.224.816-.32V-3.76h3.648v.928h.16c.32,0,.816-.24.832-.352V-8.032a1.135,1.135,0,0,0,.656-.32ZM11.392-.56V-11.52H21.776V-.56ZM22.208-12.672,21.616-12H11.5l-1.136-.544V1.248h.192c.464,0,.832-.272.832-.416V-.08H21.776v1.2h.144a1.3,1.3,0,0,0,.9-.4V-11.312a1.2,1.2,0,0,0,.688-.336Zm13.648,1.536A7.1,7.1,0,0,1,37.3-9.728c.32.4.48.752.736.752a.386.386,0,0,0,.416-.416,1.285,1.285,0,0,0-.56-.944,5.879,5.879,0,0,0-1.824-1.088Zm-3.04,4.512A9.811,9.811,0,0,1,34.96-6.88a4.347,4.347,0,0,1,1.408.192c.144.048.192.128.064.224A18.657,18.657,0,0,1,34.752-5.3l.208.288a19.455,19.455,0,0,1,1.792-.832A3,3,0,0,1,37.7-6.1c.384-.032.656-.112.656-.4,0-.272-.208-.512-.576-.7a5.318,5.318,0,0,0-2.16-.384,8.168,8.168,0,0,0-2.9.576ZM28.96-11.84a7.2,7.2,0,0,1,1.008.272.529.529,0,0,1,.336.64,15.724,15.724,0,0,1-.4,2.08,9.133,9.133,0,0,1-2.08.256A2.719,2.719,0,0,1,25.872-9.5L25.6-9.3a2.229,2.229,0,0,0,2.224,1.568,10.112,10.112,0,0,0,1.84-.192c-.192.672-.4,1.344-.608,1.936a21.763,21.763,0,0,1-2.5,5.056c-.24.432-.384.576-.384.928,0,.368.192.656.464.656.32,0,.48-.144.7-.512a38.612,38.612,0,0,0,2.464-5.856c.288-.768.56-1.632.784-2.416a22.636,22.636,0,0,0,2.768-.9c.592-.256.768-.416.768-.72,0-.288-.416-.448-.688-.448a1.482,1.482,0,0,0-.544.224,14.725,14.725,0,0,1-2.016.848c.128-.448.224-.848.3-1.136a7.342,7.342,0,0,0,.416-1.28c-.016-.368-1.024-.752-1.6-.784a3.421,3.421,0,0,0-1.008.112Zm2.464,8.624a4.558,4.558,0,0,0,.352,1.776C32.272-.032,33.744.528,35.6.528A9.911,9.911,0,0,0,37.744.32c.464-.1.88-.272.88-.592,0-.368-.416-.544-.784-.544a15.084,15.084,0,0,1-2.576.3,3.176,3.176,0,0,1-2.912-1.232,4.591,4.591,0,0,1-.544-1.52Zm5.84-8.912a7.072,7.072,0,0,1,1.44,1.28c.352.4.512.768.768.768a.358.358,0,0,0,.384-.4,1.289,1.289,0,0,0-.576-.992,6.429,6.429,0,0,0-1.84-.944Zm8.592,6c-.448,1.1-1.184,2.9-1.456,3.36-.128.256-.256.24-.384,0a4.269,4.269,0,0,1-.336-1.856,10.432,10.432,0,0,1,1.056-3.968,4.022,4.022,0,0,0,.48-1.312,2.815,2.815,0,0,0-1.1-1.76,3.73,3.73,0,0,0-.848-.464l-.224.24A2.62,2.62,0,0,1,44-10.16c0,1.1-1.056,3.6-1.056,5.632A7.186,7.186,0,0,0,43.92-.512a.982.982,0,0,0,.768.576.42.42,0,0,0,.464-.432c0-.544-.24-.736-.24-1.216a4.406,4.406,0,0,1,.176-1.088c.16-.544.736-2.192,1.12-3.28Zm4.256-5.5a4.893,4.893,0,0,1,1.056.16c.24.064.336.16.368.512.048.448.112,1.616.16,2.576A9.142,9.142,0,0,1,49.9-8.16a4.193,4.193,0,0,1-2.48-.88l-.208.288A3.135,3.135,0,0,0,49.872-7.3a11.978,11.978,0,0,0,1.872-.16c.064,1.584.16,3.744-.416,5.056A5.743,5.743,0,0,1,48.272.672l.192.336A5.774,5.774,0,0,0,52.24-1.936c.72-1.472.56-4.016.464-5.7a12.124,12.124,0,0,0,2.144-.688c.32-.144.448-.288.448-.544,0-.32-.48-.48-.816-.48-.128,0-.288.16-.912.416a8.644,8.644,0,0,1-.912.3c-.032-.656-.048-1.3-.032-1.664a6.262,6.262,0,0,1,.24-1.12c0-.416-.992-.832-1.6-.832a3.914,3.914,0,0,0-1.184.272ZM57.52-9.824a3.925,3.925,0,0,0,.064.736A1.985,1.985,0,0,0,59.12-7.84a2.686,2.686,0,0,0,.976-.4A33.79,33.79,0,0,1,65.12-9.872c.176-.048.192.048.08.144A6.706,6.706,0,0,0,62.8-4.3,3.818,3.818,0,0,0,64.336-.8a6.082,6.082,0,0,0,3.6.9c.72,0,1.152-.144,1.152-.528,0-.4-.528-.672-.912-.672a6.026,6.026,0,0,1-3.1-.528A3,3,0,0,1,63.712-4.5c0-3.2,1.6-4.688,2.32-5.12a5.371,5.371,0,0,1,2.688-.592c.592,0,1.072.048,1.376.048.352,0,.544-.192.544-.416s-.128-.4-.48-.56a3.257,3.257,0,0,0-1.136-.176,21.6,21.6,0,0,0-3.632.656c-2.64.608-5.728,1.536-6.56,1.536a1.427,1.427,0,0,1-1.008-.8ZM68.848-8.768a8.092,8.092,0,0,1,1.488,1.28c.336.4.5.768.752.768.24,0,.368-.144.368-.416a1.269,1.269,0,0,0-.592-.992,6.424,6.424,0,0,0-1.808-.928ZM67.424-7.712A9.052,9.052,0,0,1,68.9-6.32c.32.416.5.784.736.784a.371.371,0,0,0,.384-.416,1.336,1.336,0,0,0-.544-.96,6.082,6.082,0,0,0-1.824-1.072Zm9.088,1.648c0-.768,1.424-1.7,2.5-1.776-.192.8-.448,1.9-.624,2.96C76.88-5.088,76.512-5.584,76.512-6.064Zm5.408-.688c1.488,1.1,2.56,2.112,2.56,3.872A2.8,2.8,0,0,1,81.36-.16c-1.5,0-2.544-.736-2.544-2.336a8.583,8.583,0,0,1,.128-1.3,9.346,9.346,0,0,0,1.84.048c.592-.048.784-.224.784-.5,0-.32-.256-.5-.64-.528-.336-.032-.992.016-1.792-.032.224-1.072.528-2.208.768-3.008a8.105,8.105,0,0,0,1.024.032c.4-.016.608-.16.608-.416,0-.272-.208-.544-.72-.592-.192-.016-.384-.032-.592-.032a14.125,14.125,0,0,1,.64-1.7c.192-.4.416-.5.416-.8,0-.432-.96-1.216-1.712-1.216a7.327,7.327,0,0,0-.88.064l-.016.368a3.377,3.377,0,0,1,.848.24c.288.128.4.224.368.624A21.508,21.508,0,0,1,79.28-8.88a5.671,5.671,0,0,1-1.776-.4,3.477,3.477,0,0,1-1.456-1.312l-.272.16a2.547,2.547,0,0,0,1.1,1.616,4.131,4.131,0,0,0,1.168.512c-1.216.608-2.176,1.536-2.176,2.416,0,.928.864,1.664,2.368,1.984A12.074,12.074,0,0,0,78.128-2.5,3.028,3.028,0,0,0,81.456.768c2.784,0,4.1-1.808,4.1-3.344,0-1.744-.928-3.216-3.408-4.448ZM98.8-11.744a5.37,5.37,0,0,1-2.72,4.208l.112.224a5.664,5.664,0,0,0,3.792-4.432h2.4c-.1,1.712-.224,2.624-.464,2.848a.652.652,0,0,1-.464.112c-.24,0-1.072-.064-1.536-.112v.272a2.816,2.816,0,0,1,1.072.336.831.831,0,0,1,.24.688A2.178,2.178,0,0,0,102.56-8c.5-.416.7-1.488.784-3.648.32-.032.5-.1.592-.224l-1.152-.928-.544.576H96.272l.144.48Zm-5.232,7.92v-2.3h1.376v2.3Zm-2.16-2.3h1.3v2.3H91.328a21.727,21.727,0,0,0,.08-2.224Zm2.368-5.184a14.606,14.606,0,0,1-.9,2.128H91.6l-.656-.3a12.066,12.066,0,0,0,1.12-1.824ZM91.408-8.72h1.3v2.128h-1.3Zm3.536,0v2.128H93.568V-8.72Zm.336-1.12-.5.656H93.3a16.459,16.459,0,0,0,1.552-2.048,1.133,1.133,0,0,0,.624-.128l-1.1-1.056-.608.624H92.3c.128-.288.24-.576.352-.864.352.016.544-.128.608-.32l-1.5-.464a14.843,14.843,0,0,1-2.48,5.376l.208.16A9.672,9.672,0,0,0,90.48-8.9v2.864c0,2.352-.064,4.944-1.184,7.072l.224.176A8.392,8.392,0,0,0,91.3-3.376h3.648V-.288c0,.24-.08.336-.352.336-.32,0-1.808-.112-1.808-.112V.192A2.819,2.819,0,0,1,94.048.56a.848.848,0,0,1,.32.624C95.728,1.056,95.9.576,95.9-.176V-8.528a1.53,1.53,0,0,0,.688-.32Zm7.088,7.28h-1.712V-4.848h2.784c.224,0,.368-.08.416-.256-.48-.448-1.216-1.008-1.216-1.008l-.64.8h-1.344V-6.944c.352-.048.5-.208.528-.384L99.648-7.5v2.192H97.84a11.072,11.072,0,0,0,.576-1.328.523.523,0,0,0,.576-.32l-1.408-.416a11.184,11.184,0,0,1-1.52,3.9l.224.16a6.114,6.114,0,0,0,1.28-1.536h2.08V-2.56H96.16l.128.464h3.36V1.216h.192c.368,0,.816-.24.816-.368V-2.1h3.232c.224,0,.384-.08.432-.256-.48-.464-1.28-1.072-1.28-1.072Zm5.68-10.864a23.905,23.905,0,0,1-1.184,3.056,5.01,5.01,0,0,0-1.232-.512l-.16.144a5.315,5.315,0,0,1,1.68,2.176c.768.512,1.344-.624.064-1.584a18.042,18.042,0,0,0,1.792-2.432.54.54,0,0,0,.576-.272Zm-2.624,13.3a11.7,11.7,0,0,0,1.824-3.808c.352-.016.512-.16.576-.352l-1.44-.384a18.035,18.035,0,0,1-1.2,4.4Zm4.288-4.512A8.824,8.824,0,0,1,110.8-1.568c.96.88,1.936-1.232-.864-3.136Zm-.224-3.472a11.777,11.777,0,0,1,.8,1.232c-.992.08-1.936.16-2.752.224a29.67,29.67,0,0,0,3.12-4.048.583.583,0,0,0,.624-.272l-1.5-.592a36.39,36.39,0,0,1-2.752,4.944c-.736.048-1.328.08-1.712.08l.336,1.2a.521.521,0,0,0,.416-.32c.736-.128,1.424-.256,2.048-.384v7.28h.16c.5,0,.848-.256.848-.352V-6.256q.72-.144,1.344-.288a5.484,5.484,0,0,1,.416,1.216c.992.784,1.872-1.3-1.2-2.9ZM118.64-10.7l-.624.7h-4.464a24.006,24.006,0,0,0,.992-2.544.555.555,0,0,0,.576-.32l-1.632-.48a21.575,21.575,0,0,1-2.112,6.192l.24.16a12.086,12.086,0,0,0,1.712-2.56h4.864c-.144,4.688-.448,8.544-1.072,9.136a.823.823,0,0,1-.688.24c-.4,0-1.824-.144-2.672-.24l-.016.288a6.859,6.859,0,0,1,1.9.528.887.887,0,0,1,.32.8,2.489,2.489,0,0,0,1.968-.768c.8-.944,1.152-4.8,1.28-9.84a.981.981,0,0,0,.672-.256ZM113.28-7.28a7.051,7.051,0,0,1,1.664,3.392c1.1.944,2.128-1.664-1.488-3.488Zm10.9,3.056v-4.24h3.92v4.24Zm4.336-5.344-.56.64h-3.7l-1.088-.5V-1.9h.176c.432,0,.832-.24.832-.336v-1.5h3.92v1.232h.144a1.431,1.431,0,0,0,.9-.352V-8.272a1.315,1.315,0,0,0,.672-.32Zm5.12-2.608H121.3l.128.48H132.4V-.48c0,.288-.112.416-.464.416-.432,0-2.656-.16-2.656-.16v.24a4.734,4.734,0,0,1,1.792.448.923.923,0,0,1,.448.768c1.712-.16,1.92-.8,1.92-1.648V-11.7h2.112c.224,0,.368-.08.4-.256-.56-.544-1.488-1.248-1.488-1.248ZM10.512,16.28A8.937,8.937,0,0,1,8.64,20.424a33.238,33.238,0,0,0-3.68-.768C5.472,18.6,6.032,17.4,6.528,16.28Zm2.528-.48h-6.3c.384-.9.72-1.712.928-2.272.416,0,.576-.144.64-.352l-1.552-.3c-.224.72-.64,1.776-1.12,2.928H.752l.144.48H5.424A46.452,46.452,0,0,1,3.1,21.048a1.4,1.4,0,0,0,1.12.08c.176-.352.384-.752.592-1.184a31.874,31.874,0,0,1,3.232,1.072C6.464,22.472,4.1,23.352.624,23.912l.064.3c4.048-.4,6.64-1.264,8.352-2.784a16.057,16.057,0,0,1,4.352,2.72c1.264.528,1.664-1.68-3.664-3.408a10.191,10.191,0,0,0,2.016-4.464h3.1c.224,0,.4-.08.416-.256-.544-.5-1.424-1.2-1.424-1.2Zm1.04-4.576-.672.672H8.528V10.168c.384-.064.544-.224.576-.448L7.456,9.544V11.9H2.976a7.845,7.845,0,0,0-.208-.9l-.288.016a2.582,2.582,0,0,1-1.12,2.416.748.748,0,0,0-.4.9c.208.368.784.336,1.184.048a2.345,2.345,0,0,0,.864-2H13.44a18.916,18.916,0,0,1-.768,1.872l.192.112a10.975,10.975,0,0,0,1.856-1.792c.3-.016.5-.048.592-.16Zm4.56,3.648a6.33,6.33,0,0,1-1.808,4.784c-.288.3-.432.7-.208.992.272.32.912.112,1.376-.384.7-.752,1.584-2.576.928-5.392ZM21.248,9.96l-.1.256a9.367,9.367,0,0,1,4.016,3.056C26.432,13.944,27.12,11.08,21.248,9.96ZM28.1,14.68l-.16.176a7.536,7.536,0,0,1,2.368,5.3C31.472,21.512,32.848,17.288,28.1,14.68ZM20.96,13.224v9.2c0,1.024.416,1.3,1.9,1.3h2.208c3.12,0,3.728-.176,3.728-.736,0-.224-.112-.352-.5-.48l-.032-2.912h-.208a21.432,21.432,0,0,1-.608,2.784.418.418,0,0,1-.384.288c-.3.032-1.024.032-1.984.032h-2.1c-.848,0-.976-.128-.976-.5V13.832c.352-.064.512-.224.544-.432Zm18.768.8a7.531,7.531,0,0,1-.576,2.464c-.656,1.52-2.128,4.048-3.184,4.048-.656,0-1.36-1.168-1.36-2.7a5.149,5.149,0,0,1,1.648-3.7,6.086,6.086,0,0,1,3.024-1.584A2.792,2.792,0,0,1,39.728,14.024Zm-.272,9.04c5.232-.336,6.9-3.056,6.9-5.712,0-3.312-2.544-5.472-5.84-5.472a6.918,6.918,0,0,0-4.672,1.712,6.146,6.146,0,0,0-2.128,4.5c0,1.968,1.12,3.664,2.192,3.664,1.632,0,3.488-3.1,4.16-5.024a8.02,8.02,0,0,0,.5-2.576,2.986,2.986,0,0,0-.688-1.7c.192-.016.384-.032.576-.032A4.541,4.541,0,0,1,45.2,17.1c0,2.9-1.888,4.912-5.808,5.6ZM53.6,21.736c0,.3-.112.432-.448.288-.5-.224-1.216-.592-1.808-.9a19.184,19.184,0,0,1,2.256-1.84Zm.72-4.336c0-.736.016-1.5.064-2.224a17.528,17.528,0,0,0,2.368-.88c.336-.16.512-.352.512-.624-.016-.352-.432-.416-.72-.416-.336.016-.864.544-2.112,1.008a11.191,11.191,0,0,1,.192-1.568c.112-.512.352-.752.352-1.136s-1.024-.9-1.632-.9a2.44,2.44,0,0,0-1.12.3l.048.3a3.072,3.072,0,0,1,1.008.112c.256.08.32.144.32.5.016.384,0,1.456,0,2.64a7.808,7.808,0,0,1-1.7.288c-.848.032-1.088-.128-1.9-.928l-.272.208c.656,1.456,1.328,1.6,2.112,1.6A8.545,8.545,0,0,0,53.6,15.4v3.088c-1.072.608-2.32,1.584-2.912,1.936a1.187,1.187,0,0,1-.912.176c-.352-.032-.448.1-.448.464a.877.877,0,0,0,.288.656.777.777,0,0,0,.512.272c.224,0,.432-.128.912-.576a19.181,19.181,0,0,1,1.712,1.264c.512.464.544.96.912.96.48,0,.912-.736.912-1.456,0-.576-.176-1.168-.24-3.344a8.947,8.947,0,0,1,4.08-1.392c1.712,0,2.48.928,2.48,2.128a2.239,2.239,0,0,1-2.464,2.272,3.926,3.926,0,0,1-2.528-.96l-.256.256a3.663,3.663,0,0,0,3.008,1.6,2.984,2.984,0,0,0,3.248-2.96,2.894,2.894,0,0,0-3.152-2.928,9.724,9.724,0,0,0-4.432,1.232Zm4.128-4.32a3.242,3.242,0,0,1,2.992.928c.176.256.16.384-.016.576a11.9,11.9,0,0,1-1.28.88l.176.288a6.064,6.064,0,0,1,1.232-.48c.512-.1.656.32,1.024.24.3-.032.416-.3.4-.624a2.972,2.972,0,0,0-2.432-2.3,5.365,5.365,0,0,0-2.128.08Zm18.176-2.208v1.616H71.68V10.872ZM71.68,14.616V12.968h4.944v1.648Zm0,.48h4.944v.576h.16a1.089,1.089,0,0,0,.864-.32v-4.4a1.07,1.07,0,0,0,.592-.272L77.088,9.8l-.5.608H71.856l-1.184-.5v5.9h.16c.512,0,.848-.208.848-.288Zm5.632,1.472H69.344l.128.464H78.96c.224,0,.352-.064.4-.24-.512-.5-1.344-1.136-1.344-1.136ZM67.936,9.592a19.709,19.709,0,0,1-3.376,4.336l.192.192a18.56,18.56,0,0,0,4.048-3.6c.384.08.528.016.624-.144Zm.3,3.184a22.273,22.273,0,0,1-3.7,5.632l.192.176a15.752,15.752,0,0,0,2.032-1.84v7.488h.208a1.167,1.167,0,0,0,.816-.352V16.024c.272-.048.416-.144.48-.288l-.464-.176A20.24,20.24,0,0,0,69.152,13.7c.384.064.528-.016.624-.176Zm2.672,6.912A5.9,5.9,0,0,1,72.4,21.976c1.056.7,1.856-1.408-1.312-2.384Zm6.56-1.008h-.784v-.912c.368-.048.528-.176.56-.4l-1.6-.176V18.68H69.072l.128.48h6.448v3.52c0,.224-.08.32-.352.32-.336,0-2-.128-2-.128v.256a3.12,3.12,0,0,1,1.376.4.923.923,0,0,1,.336.736c1.52-.144,1.68-.672,1.68-1.52V19.16h2.368a.364.364,0,0,0,.4-.256,16.275,16.275,0,0,0-1.3-1.1ZM84.5,11.016V13.4H82.432V11.016ZM82.432,16.3V13.864H84.5V16.3Zm0,2.976V16.76H84.5v2.512Zm0,.464H84.5V20.5h.144a1.144,1.144,0,0,0,.832-.336V11.112a.922.922,0,0,0,.64-.288l-1.184-.912-.512.624H82.624l-1.136-.464V20.68h.144c.5,0,.8-.24.8-.32Zm-1.68,4.48a8.361,8.361,0,0,0,2.5-2.992c.368.048.48-.032.576-.208L82.4,20.424a9.731,9.731,0,0,1-1.808,3.584Zm2.96-3.648A6.042,6.042,0,0,1,84.88,23.3c.96.832,1.9-1.248-.96-2.832Zm7.136.176v-1.7h2.016v1.7Zm-2.96-1.7h2v1.7h-2Zm2-2.08v1.6h-2v-1.6Zm2.976,0v1.6H90.848v-1.6Zm-3.648-3.456H91.44v1.376H89.216Zm0-1.76H91.44v1.28H89.216Zm4.656,8.992h-.016v-3.6a1.092,1.092,0,0,0,.656-.3l-1.3-.976-.512.64H90.848V15.352h4.144c.224,0,.368-.08.4-.256a15.554,15.554,0,0,0-1.264-1.072l-.672.864h-1.04V13.512h1.936c.224,0,.368-.08.416-.256-.432-.4-1.1-.976-1.1-.976l-.592.752h-.656v-1.28H94.64c.208,0,.368-.064.416-.24-.5-.464-1.28-1.1-1.28-1.1l-.7.88h-.656V10.232c.336-.048.464-.192.5-.4l-1.472-.16v1.616H89.216V10.232c.336-.048.48-.192.512-.4l-1.472-.16v1.616h-2.24l.112.464h2.128v1.28H86.272l.128.48h1.856v1.376h-2.5l.128.464h4V16.5h-1.92l-1.024-.5v4.736H85.68l.128.464h1.136v3.04h.176c.384,0,.768-.24.768-.336v-2.7h4.976v1.456c0,.24-.08.336-.352.336-.32,0-1.824-.128-1.824-.128v.272a2.832,2.832,0,0,1,1.28.368.975.975,0,0,1,.32.7c1.408-.144,1.568-.64,1.568-1.408v-1.6h1.312c.208,0,.352-.08.384-.256a13.279,13.279,0,0,0-1.088-1.024Zm9.232-9.792h-3.44l.128.464h3.648v1.2c-.528,5.616-3.216,9.5-6.768,11.392l.16.24a12.6,12.6,0,0,0,7.184-8.672,12.741,12.741,0,0,0,6.224,8.688,1.2,1.2,0,0,1,1.12-.912l.064-.192c-4.5-1.84-6.944-5.584-7.488-10.592l-.016-.784a2.458,2.458,0,0,0,1.632-.544L103.76,9.928Z" transform="translate(-9 130)" fill="#3c505a"/>
    <path id="Path_167" data-name="Path 167" d="M13.11-5.07c0-2.85-1.86-4.59-3.75-5.76l-2.4-1.5c-1.11-.69-2.55-1.95-2.55-3.69,0-1.38.63-3.33,3.57-3.33,2.88,0,3.69,1.95,4.08,3.39.15.18.63.09.75-.09a13.122,13.122,0,0,0-.54-3.66,4.032,4.032,0,0,1-1.05-.18,11.6,11.6,0,0,0-2.79-.39c-3.9,0-6.12,2.31-6.12,5.16A6.4,6.4,0,0,0,5.55-9.96L8.4-8.1a4.507,4.507,0,0,1,2.46,4.2A3.407,3.407,0,0,1,7.11-.45C3.63-.45,2.4-3.39,1.95-4.92c-.12-.18-.57-.12-.72.09a13.855,13.855,0,0,0,.81,4.2A9.364,9.364,0,0,0,6.72.48C10.62.48,13.11-1.77,13.11-5.07Zm5.61-4.35a22.606,22.606,0,0,1,.09-2.61c-.03-.12-.12-.18-.3-.21a10.619,10.619,0,0,1-3.21.54.445.445,0,0,0-.06.66l.36.15c.9.39.9.66.9,2.55v5.01c0,2.43.99,3.75,3.63,3.75a7.843,7.843,0,0,0,4.14-1.56c.18,0,.27.15.27.42V.51a.416.416,0,0,0,.36.21A15.578,15.578,0,0,1,28.83-.39c.24-.12.21-.72.03-.87a5.685,5.685,0,0,1-1.17.15c-.84,0-.93-.9-.93-3.27V-9.42c0-1.11.03-2.04.09-2.61-.03-.12-.12-.18-.27-.21a11.983,11.983,0,0,1-3.51.54.408.408,0,0,0-.03.66l.39.15c.9.36,1.11.42,1.11,2.37V-3.6a2.089,2.089,0,0,1-.6,1.74,3.925,3.925,0,0,1-2.43.9c-2.28,0-2.79-1.38-2.79-3.45ZM31.56-2.61c0,1.56-.03,2.13-.06,2.55a.33.33,0,0,0,.3.18c.06,0,.09,0,.12-.03.15-.21.39-.45.63-.45a6.4,6.4,0,0,1,1.26.39,8.58,8.58,0,0,0,2.55.39,6.569,6.569,0,0,0,6.9-6.78,5.619,5.619,0,0,0-5.73-5.88,6.927,6.927,0,0,0-3.45.99c-.18,0-.3-.12-.3-.63v-5.67c0-1.32.06-2.67.12-3.72a.33.33,0,0,0-.3-.18,27.669,27.669,0,0,1-3.27,1.26.456.456,0,0,0,0,.6l.3.18c.9.54.93.72.93,2.49Zm2.22-6.15c0-1.17.06-1.5.36-1.71a3.918,3.918,0,0,1,2.04-.48c2.97,0,4.56,2.4,4.56,5.49,0,2.58-1.11,4.98-3.93,4.98a2.856,2.856,0,0,1-2.28-.99,4.149,4.149,0,0,1-.75-2.61Zm16.11-3.48c-2.28,0-4.08,1.23-4.08,3.42,0,1.65,1.23,2.7,2.97,3.69,1.11.63,2.31,1.38,2.31,2.76A1.848,1.848,0,0,1,49.08-.45c-1.71,0-2.67-1.44-3.18-3.09a.509.509,0,0,0-.69.03,8.92,8.92,0,0,0,.36,3.03,4.99,4.99,0,0,0,3.21.9C51,.42,53.1-.72,53.1-3c0-2.13-1.47-3.15-3.06-4.05-1.05-.6-2.31-1.26-2.31-2.49a1.773,1.773,0,0,1,1.92-1.83,2.926,2.926,0,0,1,2.64,2.19.522.522,0,0,0,.72-.09,7.007,7.007,0,0,0-.48-2.43A5.308,5.308,0,0,0,49.89-12.24Zm12.45,0c-4.98,0-7.26,3.45-7.26,6.69a5.973,5.973,0,0,0,1.74,4.44A5.814,5.814,0,0,0,60.93.42a5.466,5.466,0,0,0,5.01-3.06.473.473,0,0,0-.54-.42,3.66,3.66,0,0,1-3.33,1.8,4.93,4.93,0,0,1-4.83-5.13c0-3.18,2.04-4.83,4.14-4.83a4.092,4.092,0,0,1,3,1.59.524.524,0,0,0,.42.21c.36,0,.66-.57.66-1.11a1.7,1.7,0,0,0-.45-1.2A7.482,7.482,0,0,0,62.34-12.24Zm6.6,8.88c0,2.16-.03,2.43-1.14,2.61l-.57.09a.525.525,0,0,0,.06.75C68.07.03,68.97,0,70.05,0c1.05,0,1.92.03,3.33.09a.525.525,0,0,0,.06-.75L72.36-.75c-1.14-.09-1.2-.45-1.2-2.61V-7.44a4.563,4.563,0,0,1,.39-2.31,1.331,1.331,0,0,1,1.08-.6,2.46,2.46,0,0,1,1.32.48,1.152,1.152,0,0,0,.66.21,1.331,1.331,0,0,0,1.29-1.38,1.243,1.243,0,0,0-1.35-1.2c-1.11,0-2.25.93-3.3,1.8q-.09-.045-.09-.27v-1.74c0-.12-.09-.18-.24-.21a23.235,23.235,0,0,1-3.03,1.47.41.41,0,0,0-.03.54l.27.18c.81.54.81.69.81,1.86Zm9.96,0c0,2.16-.03,2.46-1.14,2.61l-.63.09a.525.525,0,0,0,.06.75C78.03.03,78.93,0,80.01,0c1.05,0,1.92.03,2.82.09a.525.525,0,0,0,.06-.75l-.63-.09c-1.08-.15-1.14-.45-1.14-2.61v-5.4c0-1.23.06-2.67.12-3.72a.277.277,0,0,0-.3-.18,20.609,20.609,0,0,1-3.09,1.47.41.41,0,0,0-.03.54l.27.18c.81.54.81.69.81,1.86Zm.99-15.36a1.559,1.559,0,0,0-1.62,1.62,1.474,1.474,0,0,0,1.53,1.5,1.469,1.469,0,0,0,1.59-1.56A1.5,1.5,0,0,0,79.89-18.72ZM86.22,4.29c0,2.16-.03,2.46-1.14,2.61l-.63.09a.525.525,0,0,0,.06.75c.84-.06,1.74-.09,2.82-.09,1.05,0,1.92.03,3.36.09a.525.525,0,0,0,.06-.75l-1.17-.15c-1.08-.15-1.14-.42-1.14-2.55V1.14c0-.63.15-.78.42-.84a11.336,11.336,0,0,0,1.65.12,6.989,6.989,0,0,0,7.32-7.17c0-3.03-1.95-5.49-4.98-5.49a9.534,9.534,0,0,0-4.2,1.41c-.21,0-.27-.18-.27-.39a13.586,13.586,0,0,1,.12-1.38.34.34,0,0,0-.36-.21,18.135,18.135,0,0,1-2.97,1.62.41.41,0,0,0-.03.54l.27.18c.81.54.81.69.81,1.86ZM88.44-8.19c0-.99.09-1.44.36-1.77a3.687,3.687,0,0,1,2.55-.84c2.7,0,4.05,2.43,4.05,4.83,0,3.12-1.44,5.4-3.9,5.4a3.95,3.95,0,0,1-2.16-.66,1.932,1.932,0,0,1-.9-1.8Zm19.23-2.37a.959.959,0,0,0-.03-1.26h-3.33c-.51,0-.54-.03-.54-.57v-1.35c-.12-.21-.48-.21-.63-.15a7.427,7.427,0,0,1-1.26,1.77,5.957,5.957,0,0,1-1.92.93.5.5,0,0,0,.09.63h.84c.6,0,.63.06.63.87v6.87c0,1.8.54,3.24,3.12,3.24a4.154,4.154,0,0,0,3.15-1.38c.06-.18-.06-.51-.3-.51-.09,0-.48.33-.75.42a2.29,2.29,0,0,1-.81.15c-1.98,0-2.19-1.59-2.19-3.33V-9.84c0-.63.03-.72.54-.72Zm3.36,7.2c0,2.16-.03,2.46-1.14,2.61l-.63.09a.525.525,0,0,0,.06.75c.84-.06,1.74-.09,2.82-.09,1.05,0,1.92.03,2.82.09a.525.525,0,0,0,.06-.75l-.63-.09c-1.08-.15-1.14-.45-1.14-2.61v-5.4c0-1.23.06-2.67.12-3.72a.277.277,0,0,0-.3-.18,20.609,20.609,0,0,1-3.09,1.47.41.41,0,0,0-.03.54l.27.18c.81.54.81.69.81,1.86Zm.99-15.36a1.559,1.559,0,0,0-1.62,1.62,1.474,1.474,0,0,0,1.53,1.5,1.469,1.469,0,0,0,1.59-1.56A1.5,1.5,0,0,0,112.02-18.72Zm11.22,6.48a6.3,6.3,0,0,0-6.39,6.48A5.931,5.931,0,0,0,123,.42a6.128,6.128,0,0,0,6.33-6.45A5.993,5.993,0,0,0,123.24-12.24Zm3.51,6.69c0,2.31-.81,5.07-3.45,5.07s-3.87-2.94-3.87-5.67c0-3.3,1.47-5.19,3.45-5.19C125.73-11.34,126.75-8.1,126.75-5.55Zm6.57,2.19c0,2.16-.03,2.46-1.14,2.61l-.63.09a.525.525,0,0,0,.06.75c.84-.06,1.74-.09,2.82-.09,1.05,0,1.92.03,2.73.09a.525.525,0,0,0,.06-.75l-.54-.09c-1.08-.18-1.14-.45-1.14-2.61V-7.95a2.527,2.527,0,0,1,.45-1.8,3.271,3.271,0,0,1,2.55-1.05c2.04,0,2.82,1.26,2.82,2.97v4.47c0,2.16-.03,2.43-1.14,2.61l-.57.09a.525.525,0,0,0,.06.75c.81-.06,1.71-.09,2.79-.09,1.05,0,1.92.03,2.82.09a.525.525,0,0,0,.06-.75l-.66-.09c-1.08-.15-1.14-.45-1.14-2.61V-8.52c0-2.01-1.02-3.72-3.51-3.72a8.225,8.225,0,0,0-4.2,1.53.315.315,0,0,1-.33-.33c0-.27,0-.72.06-1.41a.35.35,0,0,0-.33-.21,16.347,16.347,0,0,1-3,1.47.41.41,0,0,0-.03.54l.27.18c.81.54.81.69.81,1.86Z" transform="translate(-9 22)" fill="#3c505a"/>
    <path id="Path_166" data-name="Path 166" d="M21.814-17.342a22.967,22.967,0,0,1-1.274,2.99l.338.208A21.345,21.345,0,0,0,23.92-17a1.647,1.647,0,0,0,.988-.286L22.88-19.214,21.788-18.1h-7.93V-20.9c.624-.1.884-.364.936-.728l-2.678-.26v3.8H4.81a8.174,8.174,0,0,0-.286-1.43l-.468.026a4.466,4.466,0,0,1-2.028,4.212,1.217,1.217,0,0,0-.65,1.4c.312.624,1.274.572,1.95.078a4.076,4.076,0,0,0,1.534-3.536ZM13.832-6.916h7.462c.364,0,.65-.13.728-.416-.91-.806-2.288-1.872-2.288-1.872L18.512-7.67h-4.68v-5.044H21.32c.364,0,.624-.13.7-.416-.91-.754-2.288-1.768-2.288-1.768l-1.248,1.43H3.978l.208.754h7.93V-.884A7.628,7.628,0,0,1,7.2-5.434a23.89,23.89,0,0,0,.962-3.328c.572-.026.884-.234.962-.6L6.448-9.906C5.928-5.8,4.394-1.118.884,1.716l.26.312A14.086,14.086,0,0,0,6.916-4.784C9.022.364,12.324,1.482,18.356,1.482H24.05A1.361,1.361,0,0,1,25.09.1V-.26c-1.664.052-5.07.052-6.63.052a30.412,30.412,0,0,1-4.628-.286Zm17.654-2.47h4.706v3.328H31.486Zm4.706-7.566v2.912H31.486v-2.912ZM31.486-13.26h4.706v3.12H31.486Zm-4.6,7.2.208.754H40.534c.364,0,.624-.13.676-.39-.728-.754-1.9-1.794-1.9-1.794l-1.066,1.43H37.83V-16.952H40.3c.338,0,.6-.13.65-.416-.676-.728-1.768-1.664-1.768-1.664l-.962,1.3h-.39v-2.756c.624-.078.858-.338.91-.7l-2.548-.286v3.744H31.486v-2.756c.546-.1.78-.338.858-.676l-2.5-.286v3.718h-2.5l.208.78h2.288V-6.058Zm.364,8.086a13.506,13.506,0,0,0,5.2-5.148.923.923,0,0,0,1.014-.364l-2.47-1.092A15.722,15.722,0,0,1,26.91,1.69Zm7.566-6.24a8.984,8.984,0,0,1,2.6,3.9C39.1.91,40.4-2.652,35.126-4.42ZM43.29-8.528q.078-1.326.078-2.652v-2.548h4.914v5.2ZM48.282-19.4v4.94H43.368V-19.4Zm.572-1.846-.832,1.066H43.68l-1.924-.832v9.854c0,4.914-.442,9.412-3.744,12.818l.39.286c3.432-2.522,4.524-6.058,4.836-9.7h5.044v7.02c0,.416-.156.572-.624.572-.546,0-3.12-.208-3.12-.208V.078A4.355,4.355,0,0,1,46.7.728a1.757,1.757,0,0,1,.572,1.222C49.634,1.69,49.92.858,49.92-.52V-19.084a1.952,1.952,0,0,0,1.118-.52Zm10.452,1.768V-15.6H55.952v-3.874Zm-3.354,8.58v-3.952h3.354v3.952Zm0,4.836V-10.14h3.354v4.082Zm0,.754h3.354v1.248h.234A1.858,1.858,0,0,0,60.892-4.6V-19.318a1.5,1.5,0,0,0,1.04-.468l-1.924-1.482-.832,1.014H56.264l-1.846-.754V-3.77h.234c.806,0,1.3-.39,1.3-.52Zm-2.73,7.28a13.587,13.587,0,0,0,4.056-4.862c.6.078.78-.052.936-.338L55.9-4.186a15.812,15.812,0,0,1-2.938,5.824Zm4.81-5.928A9.819,9.819,0,0,1,59.93.494c1.56,1.352,3.094-2.028-1.56-4.6Zm11.6.286V-6.422H72.9v2.756Zm-4.81-2.756h3.25v2.756h-3.25Zm3.25-3.38v2.6h-3.25V-9.8Zm4.836,0v2.6H69.628V-9.8Zm-5.928-5.616H70.59v2.236H66.976Zm0-2.86H70.59v2.08H66.976ZM74.542-3.666h-.026v-5.85a1.775,1.775,0,0,0,1.066-.494L73.476-11.6l-.832,1.04H69.628v-1.872h6.734c.364,0,.6-.13.65-.416a25.275,25.275,0,0,0-2.054-1.742l-1.092,1.4h-1.69v-2.236h3.146c.364,0,.6-.13.676-.416-.7-.65-1.794-1.586-1.794-1.586L73.242-16.2H72.176v-2.08H75.79c.338,0,.6-.1.676-.39-.806-.754-2.08-1.794-2.08-1.794l-1.144,1.43H72.176v-1.716c.546-.078.754-.312.806-.65l-2.392-.26v2.626H66.976v-1.716c.546-.078.78-.312.832-.65l-2.392-.26v2.626h-3.64l.182.754h3.458v2.08H62.192l.208.78h3.016v2.236H61.36l.208.754h6.5v1.872h-3.12l-1.664-.806v7.7H61.23l.208.754h1.846v4.94h.286c.624,0,1.248-.39,1.248-.546V-2.912H72.9V-.546c0,.39-.13.546-.572.546-.52,0-2.964-.208-2.964-.208V.234a4.6,4.6,0,0,1,2.08.6,1.585,1.585,0,0,1,.52,1.144c2.288-.234,2.548-1.04,2.548-2.288v-2.6h2.132c.338,0,.572-.13.624-.416A21.577,21.577,0,0,0,75.5-4.992Zm15-15.912h-5.59l.208.754H90.09v1.95c-.858,9.126-5.226,15.444-11,18.512l.26.39A20.483,20.483,0,0,0,91.026-12.064,20.7,20.7,0,0,0,101.14,2.054,1.958,1.958,0,0,1,102.96.572l.1-.312C95.758-2.73,91.78-8.814,90.9-16.952l-.026-1.274a3.993,3.993,0,0,0,2.652-.884L90.61-21.242Z" transform="translate(-9 86)" fill="#3c505a"/>
  </g>
</svg>
