<svg xmlns="http://www.w3.org/2000/svg" width="1000" height="455" viewBox="0 0 1000 455">
  <g id="Group_86" data-name="Group 86" transform="translate(-160 -24670)">
    <rect id="Rectangle_186" data-name="Rectangle 186" width="1000" height="455" transform="translate(160 24670)" fill="none"/>
    <path id="Path_165" data-name="Path 165" d="M12.88-2.04c-.04-2.4-.08-4.76-.08-7.12V-22.88l.16-6.24-.6-.44L3.72-27.32v1.44l6-.68v17.4c0,2.36-.04,4.72-.08,7.12l-6.32.76V0h15.8V-1.28ZM36.8-10.56v-10h9.12v10ZM46.92-23.28l-1.4,1.6H37l-2.64-1.24V-6.88h.4c1.04,0,2.04-.56,2.04-.8V-9.4h9.12v2.32h.4c.8,0,2.04-.6,2.08-.88V-20.08a2.838,2.838,0,0,0,1.64-.8ZM28.48-1.4V-28.8H54.44V-1.4ZM55.52-31.68,54.04-30H28.76l-2.84-1.36V3.12h.48c1.16,0,2.08-.68,2.08-1.04V-.2H54.44v3h.36a3.245,3.245,0,0,0,2.24-1V-28.28a3.008,3.008,0,0,0,1.72-.84Zm34.12,3.84a17.76,17.76,0,0,1,3.6,3.52c.8,1,1.2,1.88,1.84,1.88a.966.966,0,0,0,1.04-1.04,3.212,3.212,0,0,0-1.4-2.36,14.7,14.7,0,0,0-4.56-2.72Zm-7.6,11.28a24.529,24.529,0,0,1,5.36-.64,10.867,10.867,0,0,1,3.52.48c.36.12.48.32.16.56a46.644,46.644,0,0,1-4.2,2.92l.52.72a48.635,48.635,0,0,1,4.48-2.08,7.494,7.494,0,0,1,2.36-.64c.96-.08,1.64-.28,1.64-1,0-.68-.52-1.28-1.44-1.76a13.3,13.3,0,0,0-5.4-.96,20.419,20.419,0,0,0-7.24,1.44ZM72.4-29.6a18.007,18.007,0,0,1,2.52.68,1.323,1.323,0,0,1,.84,1.6,39.309,39.309,0,0,1-1,5.2,22.831,22.831,0,0,1-5.2.64c-1.96,0-3.16-.76-4.88-2.28l-.68.52c1.32,3.04,3.24,3.92,5.56,3.92a25.28,25.28,0,0,0,4.6-.48c-.48,1.68-1,3.36-1.52,4.84A54.407,54.407,0,0,1,66.4-2.32c-.6,1.08-.96,1.44-.96,2.32,0,.92.48,1.64,1.16,1.64.8,0,1.2-.36,1.76-1.28,1.72-2.8,4.28-9.24,6.16-14.64.72-1.92,1.4-4.08,1.96-6.04a56.59,56.59,0,0,0,6.92-2.24c1.48-.64,1.92-1.04,1.92-1.8,0-.72-1.04-1.12-1.72-1.12a3.7,3.7,0,0,0-1.36.56A36.813,36.813,0,0,1,77.2-22.8c.32-1.12.56-2.12.76-2.84A18.355,18.355,0,0,0,79-28.84c-.04-.92-2.56-1.88-4-1.96a8.552,8.552,0,0,0-2.52.28ZM78.56-8.04a11.394,11.394,0,0,0,.88,4.44C80.68-.08,84.36,1.32,89,1.32A24.778,24.778,0,0,0,94.36.8c1.16-.24,2.2-.68,2.2-1.48,0-.92-1.04-1.36-1.96-1.36-1.16,0-2.44.76-6.44.76-3.44,0-5.88-.92-7.28-3.08a11.476,11.476,0,0,1-1.36-3.8Zm14.6-22.28a17.68,17.68,0,0,1,3.6,3.2c.88,1,1.28,1.92,1.92,1.92a.9.9,0,0,0,.96-1,3.223,3.223,0,0,0-1.44-2.48,16.072,16.072,0,0,0-4.6-2.36Zm21.48,15c-1.12,2.76-2.96,7.24-3.64,8.4-.32.64-.64.6-.96,0a10.673,10.673,0,0,1-.84-4.64c0-3.48,1.48-7.36,2.64-9.92a10.055,10.055,0,0,0,1.2-3.28c0-1.76-1.88-3.72-2.76-4.4a9.324,9.324,0,0,0-2.12-1.16l-.56.6c1.52,1.6,2.4,2.84,2.4,4.32,0,2.76-2.64,9-2.64,14.08,0,5.28,1.32,8.28,2.44,10.04A2.454,2.454,0,0,0,111.72.16a1.05,1.05,0,0,0,1.16-1.08c0-1.36-.6-1.84-.6-3.04a11.016,11.016,0,0,1,.44-2.72c.4-1.36,1.84-5.48,2.8-8.2Zm10.64-13.76a12.234,12.234,0,0,1,2.64.4c.6.16.84.4.92,1.28.12,1.12.28,4.04.4,6.44a22.856,22.856,0,0,1-4.48.56,10.483,10.483,0,0,1-6.2-2.2l-.52.72c2.04,2.76,4.28,3.64,6.64,3.64a29.945,29.945,0,0,0,4.68-.4c.16,3.96.4,9.36-1.04,12.64-1.52,3.84-4.04,5.76-7.64,7.68l.48.84c4.24-1.48,7.6-3.36,9.44-7.36,1.8-3.68,1.4-10.04,1.16-14.24a30.309,30.309,0,0,0,5.36-1.72c.8-.36,1.12-.72,1.12-1.36,0-.8-1.2-1.2-2.04-1.2-.32,0-.72.4-2.28,1.04a21.611,21.611,0,0,1-2.28.76c-.08-1.64-.12-3.24-.08-4.16,0-1.44.6-2.16.6-2.8,0-1.04-2.48-2.08-4-2.08a9.786,9.786,0,0,0-2.96.68Zm18.52,4.52a9.813,9.813,0,0,0,.16,1.84,4.962,4.962,0,0,0,3.84,3.12,6.715,6.715,0,0,0,2.44-1,84.475,84.475,0,0,1,12.56-4.08c.44-.12.48.12.2.36-4.52,3.56-6,8.84-6,13.56,0,4.52,1.32,6.92,3.84,8.76,2.72,2.08,6.68,2.24,9,2.24,1.8,0,2.88-.36,2.88-1.32,0-1-1.32-1.68-2.28-1.68-1.64,0-5.16.24-7.76-1.32-1.6-1-3.4-2.8-3.4-7.16,0-8,4-11.72,5.8-12.8a13.427,13.427,0,0,1,6.72-1.48c1.48,0,2.68.12,3.44.12.88,0,1.36-.48,1.36-1.04s-.32-1-1.2-1.4a8.142,8.142,0,0,0-2.84-.44,53.988,53.988,0,0,0-9.08,1.64c-6.6,1.52-14.32,3.84-16.4,3.84a3.568,3.568,0,0,1-2.52-2Zm28.32,2.64a20.23,20.23,0,0,1,3.72,3.2c.84,1,1.24,1.92,1.88,1.92.6,0,.92-.36.92-1.04a3.172,3.172,0,0,0-1.48-2.48,16.061,16.061,0,0,0-4.52-2.32Zm-3.56,2.64a22.629,22.629,0,0,1,3.68,3.48c.8,1.04,1.24,1.96,1.84,1.96a.927.927,0,0,0,.96-1.04,3.34,3.34,0,0,0-1.36-2.4,15.2,15.2,0,0,0-4.56-2.68Zm22.72,4.12c0-1.92,3.56-4.24,6.24-4.44-.48,2-1.12,4.76-1.56,7.4C192.2-12.72,191.28-13.96,191.28-15.16Zm13.52-1.72c3.72,2.76,6.4,5.28,6.4,9.68,0,3.36-2.52,6.8-7.8,6.8-3.76,0-6.36-1.84-6.36-5.84a21.459,21.459,0,0,1,.32-3.24,23.365,23.365,0,0,0,4.6.12c1.48-.12,1.96-.56,1.96-1.24,0-.8-.64-1.24-1.6-1.32-.84-.08-2.48.04-4.48-.08.56-2.68,1.32-5.52,1.92-7.52a20.264,20.264,0,0,0,2.56.08c1-.04,1.52-.4,1.52-1.04,0-.68-.52-1.36-1.8-1.48-.48-.04-.96-.08-1.48-.08a35.308,35.308,0,0,1,1.6-4.24c.48-1,1.04-1.24,1.04-2,0-1.08-2.4-3.04-4.28-3.04a18.316,18.316,0,0,0-2.2.16l-.04.92a8.442,8.442,0,0,1,2.12.6c.72.32,1,.56.92,1.56a53.773,53.773,0,0,1-1.52,5.88,14.177,14.177,0,0,1-4.44-1,8.693,8.693,0,0,1-3.64-3.28l-.68.4a6.367,6.367,0,0,0,2.76,4.04,10.327,10.327,0,0,0,2.92,1.28c-3.04,1.52-5.44,3.84-5.44,6.04,0,2.32,2.16,4.16,5.92,4.96a30.182,30.182,0,0,0-.28,3.52c0,4.88,2.88,8.16,8.32,8.16,6.96,0,10.24-4.52,10.24-8.36,0-4.36-2.32-8.04-8.52-11.12ZM247-29.36a13.425,13.425,0,0,1-6.8,10.52l.28.56c5.44-2.2,8.36-5.64,9.48-11.08h6c-.24,4.28-.56,6.56-1.16,7.12a1.63,1.63,0,0,1-1.16.28c-.6,0-2.68-.16-3.84-.28v.68a7.04,7.04,0,0,1,2.68.84,2.079,2.079,0,0,1,.6,1.72,5.445,5.445,0,0,0,3.32-1c1.24-1.04,1.76-3.72,1.96-9.12.8-.08,1.24-.24,1.48-.56L256.96-32l-1.36,1.44H240.68l.36,1.2ZM233.92-9.56v-5.76h3.44v5.76Zm-5.4-5.76h3.24v5.76h-3.44a54.311,54.311,0,0,0,.2-5.56Zm5.92-12.96a36.518,36.518,0,0,1-2.24,5.32H229l-1.64-.76a30.164,30.164,0,0,0,2.8-4.56Zm-5.92,6.48h3.24v5.32h-3.24Zm8.84,0v5.32h-3.44V-21.8Zm.84-2.8-1.24,1.64h-3.72a41.15,41.15,0,0,0,3.88-5.12,2.832,2.832,0,0,0,1.56-.32l-2.76-2.64-1.52,1.56h-3.64c.32-.72.6-1.44.88-2.16.88.04,1.36-.32,1.52-.8L229.4-33.6a37.107,37.107,0,0,1-6.2,13.44l.52.4a24.18,24.18,0,0,0,2.48-2.48v7.16c0,5.88-.16,12.36-2.96,17.68l.56.44c2.84-3.28,3.96-7.48,4.44-11.48h9.12V-.72c0,.6-.2.84-.88.84-.8,0-4.52-.28-4.52-.28V.48a7.047,7.047,0,0,1,3.16.92,2.119,2.119,0,0,1,.8,1.56c3.4-.32,3.84-1.52,3.84-3.4V-21.32a3.826,3.826,0,0,0,1.72-.8ZM255.92-6.4h-4.28v-5.72h6.96c.56,0,.92-.2,1.04-.64-1.2-1.12-3.04-2.52-3.04-2.52l-1.6,2h-3.36v-4.08c.88-.12,1.24-.52,1.32-.96l-3.84-.44v5.48H244.6a27.682,27.682,0,0,0,1.44-3.32,1.307,1.307,0,0,0,1.44-.8l-3.52-1.04a27.959,27.959,0,0,1-3.8,9.76l.56.4a15.285,15.285,0,0,0,3.2-3.84h5.2V-6.4H240.4l.32,1.16h8.4V3.04h.48c.92,0,2.04-.6,2.04-.92V-5.24h8.08c.56,0,.96-.2,1.08-.64-1.2-1.16-3.2-2.68-3.2-2.68Zm14.2-27.16a59.759,59.759,0,0,1-2.96,7.64,12.526,12.526,0,0,0-3.08-1.28l-.4.36a13.288,13.288,0,0,1,4.2,5.44c1.92,1.28,3.36-1.56.16-3.96a45.1,45.1,0,0,0,4.48-6.08,1.351,1.351,0,0,0,1.44-.68ZM263.56-.32a29.256,29.256,0,0,0,4.56-9.52c.88-.04,1.28-.4,1.44-.88l-3.6-.96a45.088,45.088,0,0,1-3,11ZM274.28-11.6A22.06,22.06,0,0,1,277-3.92c2.4,2.2,4.84-3.08-2.16-7.84Zm-.56-8.68a29.446,29.446,0,0,1,2,3.08c-2.48.2-4.84.4-6.88.56a74.174,74.174,0,0,0,7.8-10.12,1.457,1.457,0,0,0,1.56-.68l-3.76-1.48a90.975,90.975,0,0,1-6.88,12.36c-1.84.12-3.32.2-4.28.2l.84,3a1.3,1.3,0,0,0,1.04-.8c1.84-.32,3.56-.64,5.12-.96V3.08h.4c1.24,0,2.12-.64,2.12-.88V-15.64q1.8-.36,3.36-.72a13.71,13.71,0,0,1,1.04,3.04c2.48,1.96,4.68-3.24-3-7.24Zm22.88-6.48L295.04-25H283.88a60.012,60.012,0,0,0,2.48-6.36,1.387,1.387,0,0,0,1.44-.8l-4.08-1.2a53.938,53.938,0,0,1-5.28,15.48l.6.4a30.215,30.215,0,0,0,4.28-6.4h12.16c-.36,11.72-1.12,21.36-2.68,22.84a2.057,2.057,0,0,1-1.72.6c-1,0-4.56-.36-6.68-.6l-.04.72c1.88.36,4.04.8,4.76,1.32a2.218,2.218,0,0,1,.8,2,6.222,6.222,0,0,0,4.92-1.92c2-2.36,2.88-12,3.2-24.6a2.452,2.452,0,0,0,1.68-.64ZM283.2-18.2c1.84,2.16,3.92,5.68,4.16,8.48,2.76,2.36,5.32-4.16-3.72-8.72Zm27.24,7.64v-10.6h9.8v10.6Zm10.84-13.36-1.4,1.6h-9.24l-2.72-1.24v18.8h.44c1.08,0,2.08-.6,2.08-.84V-9.36h9.8v3.08h.36a3.578,3.578,0,0,0,2.24-.88V-20.68a3.287,3.287,0,0,0,1.68-.8Zm12.8-6.52H303.24l.32,1.2H331V-1.2c0,.72-.28,1.04-1.16,1.04-1.08,0-6.64-.4-6.64-.4v.6a11.836,11.836,0,0,1,4.48,1.12,2.306,2.306,0,0,1,1.12,1.92c4.28-.4,4.8-2,4.8-4.12v-28.2h5.28c.56,0,.92-.2,1-.64-1.4-1.36-3.72-3.12-3.72-3.12ZM26.28,40.2A22.342,22.342,0,0,1,21.6,50.56a83.1,83.1,0,0,0-9.2-1.92C13.68,46,15.08,43,16.32,40.2ZM32.6,39H16.84c.96-2.24,1.8-4.28,2.32-5.68,1.04,0,1.44-.36,1.6-.88l-3.88-.76c-.56,1.8-1.6,4.44-2.8,7.32H1.88l.36,1.2H13.56a116.13,116.13,0,0,1-5.8,11.92,3.511,3.511,0,0,0,2.8.2c.44-.88.96-1.88,1.48-2.96a79.685,79.685,0,0,1,8.08,2.68c-3.96,3.64-9.88,5.84-18.56,7.24l.16.76c10.12-1,16.6-3.16,20.88-6.96a40.143,40.143,0,0,1,10.88,6.8c3.16,1.32,4.16-4.2-9.16-8.52,2.44-2.88,4-6.56,5.04-11.16h7.76c.56,0,1-.2,1.04-.64-1.36-1.24-3.56-3-3.56-3Zm2.6-11.44-1.68,1.68H21.32V24.92c.96-.16,1.36-.56,1.44-1.12l-4.12-.44v5.88H7.44A19.612,19.612,0,0,0,6.92,27l-.72.04a6.456,6.456,0,0,1-2.8,6.04,1.869,1.869,0,0,0-1,2.24c.52.92,1.96.84,2.96.12a5.864,5.864,0,0,0,2.16-5H33.6a47.29,47.29,0,0,1-1.92,4.68l.48.28a27.437,27.437,0,0,0,4.64-4.48c.76-.04,1.24-.12,1.48-.4Zm11.4,9.12c.08,5.36-2.16,10.12-4.52,11.96-.72.76-1.08,1.76-.52,2.48.68.8,2.28.28,3.44-.96,1.76-1.88,3.96-6.44,2.32-13.48ZM53.12,24.4l-.24.64c5.16,2.24,8.72,5.52,10.04,7.64C66.08,34.36,67.8,27.2,53.12,24.4ZM70.24,36.2l-.4.44c4.36,3.72,5.8,9.6,5.92,13.24C78.68,53.28,82.12,42.72,70.24,36.2ZM52.4,32.56v23c0,2.56,1.04,3.24,4.76,3.24h5.52c7.8,0,9.32-.44,9.32-1.84,0-.56-.28-.88-1.24-1.2l-.08-7.28h-.52a53.581,53.581,0,0,1-1.52,6.96,1.045,1.045,0,0,1-.96.72c-.76.08-2.56.08-4.96.08H57.48c-2.12,0-2.44-.32-2.44-1.24V34.08c.88-.16,1.28-.56,1.36-1.08Zm46.92,2a18.828,18.828,0,0,1-1.44,6.16c-1.64,3.8-5.32,10.12-7.96,10.12-1.64,0-3.4-2.92-3.4-6.76a12.871,12.871,0,0,1,4.12-9.24,15.216,15.216,0,0,1,7.56-3.96A6.981,6.981,0,0,1,99.32,34.56Zm-.68,22.6c13.08-.84,17.24-7.64,17.24-14.28,0-8.28-6.36-13.68-14.6-13.68A17.294,17.294,0,0,0,89.6,33.48a15.365,15.365,0,0,0-5.32,11.24c0,4.92,2.8,9.16,5.48,9.16,4.08,0,8.72-7.76,10.4-12.56a20.051,20.051,0,0,0,1.24-6.44,7.464,7.464,0,0,0-1.72-4.24c.48-.04.96-.08,1.44-.08,6.6,0,11.88,4.56,11.88,11.68,0,7.24-4.72,12.28-14.52,14ZM134,53.84c0,.76-.28,1.08-1.12.72-1.24-.56-3.04-1.48-4.52-2.24a47.962,47.962,0,0,1,5.64-4.6ZM135.8,43c0-1.84.04-3.76.16-5.56a43.822,43.822,0,0,0,5.92-2.2c.84-.4,1.28-.88,1.28-1.56-.04-.88-1.08-1.04-1.8-1.04-.84.04-2.16,1.36-5.28,2.52a27.978,27.978,0,0,1,.48-3.92c.28-1.28.88-1.88.88-2.84s-2.56-2.24-4.08-2.24a6.1,6.1,0,0,0-2.8.76l.12.76a7.68,7.68,0,0,1,2.52.28c.64.2.8.36.8,1.24.04.96,0,3.64,0,6.6a19.521,19.521,0,0,1-4.24.72c-2.12.08-2.72-.32-4.76-2.32l-.68.52c1.64,3.64,3.32,4,5.28,4A21.362,21.362,0,0,0,134,38v7.72c-2.68,1.52-5.8,3.96-7.28,4.84a2.967,2.967,0,0,1-2.28.44c-.88-.08-1.12.24-1.12,1.16a2.193,2.193,0,0,0,.72,1.64,1.941,1.941,0,0,0,1.28.68c.56,0,1.08-.32,2.28-1.44a47.953,47.953,0,0,1,4.28,3.16c1.28,1.16,1.36,2.4,2.28,2.4,1.2,0,2.28-1.84,2.28-3.64,0-1.44-.44-2.92-.6-8.36,3.16-1.8,6.88-3.48,10.2-3.48,4.28,0,6.2,2.32,6.2,5.32,0,3.16-2.2,5.68-6.16,5.68a9.816,9.816,0,0,1-6.32-2.4l-.64.64a9.157,9.157,0,0,0,7.52,4c5.04,0,8.12-3.32,8.12-7.4,0-4.44-3.28-7.32-7.88-7.32a24.309,24.309,0,0,0-11.08,3.08Zm10.32-10.8c2.8-.2,5.88.08,7.48,2.32.44.64.4.96-.04,1.44a29.754,29.754,0,0,1-3.2,2.2l.44.72a15.16,15.16,0,0,1,3.08-1.2c1.28-.24,1.64.8,2.56.6.76-.08,1.04-.76,1-1.56-.12-2.52-3-5.16-6.08-5.76a13.412,13.412,0,0,0-5.32.2Zm45.44-5.52v4.04H179.2V26.68ZM179.2,36.04V31.92h12.36v4.12Zm0,1.2h12.36v1.44h.4a2.723,2.723,0,0,0,2.16-.8v-11a2.675,2.675,0,0,0,1.48-.68L192.72,24l-1.24,1.52H179.64l-2.96-1.24V39.04h.4c1.28,0,2.12-.52,2.12-.72Zm14.08,3.68H173.36l.32,1.16H197.4c.56,0,.88-.16,1-.6-1.28-1.24-3.36-2.84-3.36-2.84ZM169.84,23.48a49.272,49.272,0,0,1-8.44,10.84l.48.48a46.4,46.4,0,0,0,10.12-9c.96.2,1.32.04,1.56-.36Zm.76,7.96a55.682,55.682,0,0,1-9.24,14.08l.48.44a39.38,39.38,0,0,0,5.08-4.6V60.08h.52a2.919,2.919,0,0,0,2.04-.88V39.56c.68-.12,1.04-.36,1.2-.72l-1.16-.44a50.6,50.6,0,0,0,3.36-4.64c.96.16,1.32-.04,1.56-.44Zm6.68,17.28A14.749,14.749,0,0,1,181,54.44c2.64,1.76,4.64-3.52-3.28-5.96Zm16.4-2.52h-1.96V43.92c.92-.12,1.32-.44,1.4-1l-4-.44V46.2H172.68l.32,1.2h16.12v8.8c0,.56-.2.8-.88.8-.84,0-5-.32-5-.32v.64a7.8,7.8,0,0,1,3.44,1,2.307,2.307,0,0,1,.84,1.84c3.8-.36,4.2-1.68,4.2-3.8V47.4h5.92a.909.909,0,0,0,1-.64A40.683,40.683,0,0,0,195.4,44Zm17.56-19.16V33h-5.16V27.04Zm-5.16,13.2V34.16h5.16v6.08Zm0,7.44V41.4h5.16v6.28Zm0,1.16h5.16v1.92h.36a2.859,2.859,0,0,0,2.08-.84V27.28a2.305,2.305,0,0,0,1.6-.72l-2.96-2.28-1.28,1.56h-4.48l-2.84-1.16V51.2h.36c1.24,0,2-.6,2-.8Zm-4.2,11.2a20.9,20.9,0,0,0,6.24-7.48c.92.12,1.2-.08,1.44-.52L206,50.56a24.326,24.326,0,0,1-4.52,8.96Zm7.4-9.12a15.105,15.105,0,0,1,2.92,6.84c2.4,2.08,4.76-3.12-2.4-7.08Zm17.84.44V47.12h5.04v4.24Zm-7.4-4.24h5v4.24h-5Zm5-5.2v4h-5v-4Zm7.44,0v4h-5.04v-4Zm-9.12-8.64h5.56v3.44h-5.56Zm0-4.4h5.56v3.2h-5.56Zm11.64,22.48h-.04v-9a2.73,2.73,0,0,0,1.64-.76l-3.24-2.44-1.28,1.6h-4.64V37.88h10.36c.56,0,.92-.2,1-.64a38.887,38.887,0,0,0-3.16-2.68l-1.68,2.16h-2.6V33.28h4.84c.56,0,.92-.2,1.04-.64-1.08-1-2.76-2.44-2.76-2.44l-1.48,1.88h-1.64v-3.2h5.56c.52,0,.92-.16,1.04-.6-1.24-1.16-3.2-2.76-3.2-2.76l-1.76,2.2h-1.64V25.08c.84-.12,1.16-.48,1.24-1l-3.68-.4v4.04h-5.56V25.08c.84-.12,1.2-.48,1.28-1l-3.68-.4v4.04h-5.6l.28,1.16h5.32v3.2h-4.96l.32,1.2h4.64v3.44H214.4l.32,1.16h10v2.88h-4.8l-2.56-1.24V51.36H214.2l.32,1.16h2.84v7.6h.44c.96,0,1.92-.6,1.92-.84V52.52h12.44v3.64c0,.6-.2.84-.88.84-.8,0-4.56-.32-4.56-.32v.68a7.081,7.081,0,0,1,3.2.92,2.439,2.439,0,0,1,.8,1.76c3.52-.36,3.92-1.6,3.92-3.52v-4h3.28c.52,0,.88-.2.96-.64a33.2,33.2,0,0,0-2.72-2.56Zm23.08-24.48h-8.6l.32,1.16h9.12v3c-1.32,14.04-8.04,23.76-16.92,28.48l.4.6a31.512,31.512,0,0,0,17.96-21.68A31.853,31.853,0,0,0,275.6,60.16c.6-1.48,1.44-2.24,2.8-2.28l.16-.48c-11.24-4.6-17.36-13.96-18.72-26.48l-.04-1.96c2-.16,3.44-.6,4.08-1.36l-4.48-3.28Z" transform="translate(200 24990)" fill="#3c505a"/>
    <path id="Path_164" data-name="Path 164" d="M21.85-8.45c0-4.75-3.1-7.65-6.25-9.6l-4-2.5C9.75-21.7,7.35-23.8,7.35-26.7c0-2.3,1.05-5.55,5.95-5.55,4.8,0,6.15,3.25,6.8,5.65.25.3,1.05.15,1.25-.15a21.871,21.871,0,0,0-.9-6.1,6.719,6.719,0,0,1-1.75-.3,19.327,19.327,0,0,0-4.65-.65c-6.5,0-10.2,3.85-10.2,8.6,0,4.1,2.9,6.95,5.4,8.6L14-13.5c3.65,2.35,4.1,4.8,4.1,7,0,3-2.05,5.75-6.25,5.75C6.05-.75,4-5.65,3.25-8.2c-.2-.3-.95-.2-1.2.15a23.091,23.091,0,0,0,1.35,7A15.606,15.606,0,0,0,11.2.8C17.7.8,21.85-2.95,21.85-8.45ZM31.2-15.7a37.676,37.676,0,0,1,.15-4.35c-.05-.2-.2-.3-.5-.35a17.7,17.7,0,0,1-5.35.9.742.742,0,0,0-.1,1.1l.6.25c1.5.65,1.5,1.1,1.5,4.25v8.35C27.5-1.5,29.15.7,33.55.7c2.95,0,5.4-1.65,6.9-2.6.3,0,.45.25.45.7V.85a.694.694,0,0,0,.6.35C43.2.25,46.1-.25,48.05-.65c.4-.2.35-1.2.05-1.45a9.475,9.475,0,0,1-1.95.25c-1.4,0-1.55-1.5-1.55-5.45v-8.4c0-1.85.05-3.4.15-4.35-.05-.2-.2-.3-.45-.35a19.972,19.972,0,0,1-5.85.9.68.68,0,0,0-.05,1.1l.65.25c1.5.6,1.85.7,1.85,3.95V-6a3.481,3.481,0,0,1-1,2.9,6.541,6.541,0,0,1-4.05,1.5c-3.8,0-4.65-2.3-4.65-5.75ZM52.6-4.35c0,2.6-.05,3.55-.1,4.25a.55.55,0,0,0,.5.3c.1,0,.15,0,.2-.05.25-.35.65-.75,1.05-.75a10.669,10.669,0,0,1,2.1.65A14.3,14.3,0,0,0,60.6.7c6.7,0,11.5-4.65,11.5-11.3,0-5.5-3.85-9.8-9.55-9.8a11.544,11.544,0,0,0-5.75,1.65c-.3,0-.5-.2-.5-1.05v-9.45c0-2.2.1-4.45.2-6.2a.55.55,0,0,0-.5-.3,46.115,46.115,0,0,1-5.45,2.1.76.76,0,0,0,0,1l.5.3c1.5.9,1.55,1.2,1.55,4.15ZM56.3-14.6c0-1.95.1-2.5.6-2.85a6.529,6.529,0,0,1,3.4-.8c4.95,0,7.6,4,7.6,9.15,0,4.3-1.85,8.3-6.55,8.3a4.761,4.761,0,0,1-3.8-1.65A6.915,6.915,0,0,1,56.3-6.8Zm26.85-5.8c-3.8,0-6.8,2.05-6.8,5.7,0,2.75,2.05,4.5,4.95,6.15,1.85,1.05,3.85,2.3,3.85,4.6A3.08,3.08,0,0,1,81.8-.75c-2.85,0-4.45-2.4-5.3-5.15a.849.849,0,0,0-1.15.05,14.866,14.866,0,0,0,.6,5.05A8.317,8.317,0,0,0,81.3.7C85,.7,88.5-1.2,88.5-5c0-3.55-2.45-5.25-5.1-6.75-1.75-1-3.85-2.1-3.85-4.15a2.955,2.955,0,0,1,3.2-3.05c2.05,0,3.55,1.45,4.4,3.65a.871.871,0,0,0,1.2-.15,11.678,11.678,0,0,0-.8-4.05A8.847,8.847,0,0,0,83.15-20.4Zm20.75,0c-8.3,0-12.1,5.75-12.1,11.15a9.954,9.954,0,0,0,2.9,7.4A9.689,9.689,0,0,0,101.55.7a9.11,9.11,0,0,0,8.35-5.1.789.789,0,0,0-.9-.7,6.1,6.1,0,0,1-5.55,3c-5.35,0-8.05-4.65-8.05-8.55,0-5.3,3.4-8.05,6.9-8.05a6.82,6.82,0,0,1,5,2.65.873.873,0,0,0,.7.35c.6,0,1.1-.95,1.1-1.85a2.834,2.834,0,0,0-.75-2A12.47,12.47,0,0,0,103.9-20.4Zm11,14.8c0,3.6-.05,4.05-1.9,4.35l-.95.15a.875.875,0,0,0,.1,1.25c1.3-.1,2.8-.15,4.6-.15,1.75,0,3.2.05,5.55.15a.875.875,0,0,0,.1-1.25l-1.8-.15c-1.9-.15-2-.75-2-4.35v-6.8a7.6,7.6,0,0,1,.65-3.85,2.219,2.219,0,0,1,1.8-1,4.1,4.1,0,0,1,2.2.8,1.921,1.921,0,0,0,1.1.35,2.218,2.218,0,0,0,2.15-2.3,2.071,2.071,0,0,0-2.25-2c-1.85,0-3.75,1.55-5.5,3q-.15-.075-.15-.45v-2.9c0-.2-.15-.3-.4-.35a38.726,38.726,0,0,1-5.05,2.45.684.684,0,0,0-.05.9l.45.3c1.35.9,1.35,1.15,1.35,3.1Zm16.6,0c0,3.6-.05,4.1-1.9,4.35l-1.05.15a.875.875,0,0,0,.1,1.25c1.4-.1,2.9-.15,4.7-.15,1.75,0,3.2.05,4.7.15a.875.875,0,0,0,.1-1.25l-1.05-.15c-1.8-.25-1.9-.75-1.9-4.35v-9c0-2.05.1-4.45.2-6.2a.462.462,0,0,0-.5-.3,34.349,34.349,0,0,1-5.15,2.45.684.684,0,0,0-.05.9l.45.3c1.35.9,1.35,1.15,1.35,3.1Zm1.65-25.6a2.6,2.6,0,0,0-2.7,2.7A2.457,2.457,0,0,0,133-26a2.449,2.449,0,0,0,2.65-2.6A2.5,2.5,0,0,0,133.15-31.2ZM143.7,7.15c0,3.6-.05,4.1-1.9,4.35l-1.05.15a.875.875,0,0,0,.1,1.25c1.4-.1,2.9-.15,4.7-.15,1.75,0,3.2.05,5.6.15a.875.875,0,0,0,.1-1.25l-1.95-.25c-1.8-.25-1.9-.7-1.9-4.25V1.9c0-1.05.25-1.3.7-1.4a18.893,18.893,0,0,0,2.75.2c7.1,0,12.2-5,12.2-11.95,0-5.05-3.25-9.15-8.3-9.15-3.2,0-6.35,2.05-7,2.35-.35,0-.45-.3-.45-.65a22.641,22.641,0,0,1,.2-2.3.566.566,0,0,0-.6-.35,30.225,30.225,0,0,1-4.95,2.7.684.684,0,0,0-.05.9l.45.3c1.35.9,1.35,1.15,1.35,3.1Zm3.7-20.8c0-1.65.15-2.4.6-2.95a6.145,6.145,0,0,1,4.25-1.4c4.5,0,6.75,4.05,6.75,8.05,0,5.2-2.4,9-6.5,9a6.584,6.584,0,0,1-3.6-1.1,3.22,3.22,0,0,1-1.5-3Zm32.05-3.95a1.6,1.6,0,0,0-.05-2.1h-5.55c-.85,0-.9-.05-.9-.95V-22.9c-.2-.35-.8-.35-1.05-.25a12.378,12.378,0,0,1-2.1,2.95,9.928,9.928,0,0,1-3.2,1.55.832.832,0,0,0,.15,1.05h1.4c1,0,1.05.1,1.05,1.45V-4.7c0,3,.9,5.4,5.2,5.4a6.923,6.923,0,0,0,5.25-2.3c.1-.3-.1-.85-.5-.85-.15,0-.8.55-1.25.7a3.817,3.817,0,0,1-1.35.25c-3.3,0-3.65-2.65-3.65-5.55V-16.4c0-1.05.05-1.2.9-1.2Zm5.6,12c0,3.6-.05,4.1-1.9,4.35l-1.05.15a.875.875,0,0,0,.1,1.25c1.4-.1,2.9-.15,4.7-.15,1.75,0,3.2.05,4.7.15a.875.875,0,0,0,.1-1.25l-1.05-.15c-1.8-.25-1.9-.75-1.9-4.35v-9c0-2.05.1-4.45.2-6.2a.462.462,0,0,0-.5-.3,34.349,34.349,0,0,1-5.15,2.45.684.684,0,0,0-.05.9l.45.3c1.35.9,1.35,1.15,1.35,3.1Zm1.65-25.6a2.6,2.6,0,0,0-2.7,2.7,2.457,2.457,0,0,0,2.55,2.5,2.449,2.449,0,0,0,2.65-2.6A2.5,2.5,0,0,0,186.7-31.2Zm18.7,10.8A10.507,10.507,0,0,0,194.75-9.6,9.884,9.884,0,0,0,205,.7c6.25,0,10.55-4.5,10.55-10.75A9.989,9.989,0,0,0,205.4-20.4Zm5.85,11.15c0,3.85-1.35,8.45-5.75,8.45s-6.45-4.9-6.45-9.45c0-5.5,2.45-8.65,5.75-8.65C209.55-18.9,211.25-13.5,211.25-9.25ZM222.2-5.6c0,3.6-.05,4.1-1.9,4.35l-1.05.15a.875.875,0,0,0,.1,1.25c1.4-.1,2.9-.15,4.7-.15,1.75,0,3.2.05,4.55.15a.875.875,0,0,0,.1-1.25l-.9-.15c-1.8-.3-1.9-.75-1.9-4.35v-7.65a4.212,4.212,0,0,1,.75-3A5.452,5.452,0,0,1,230.9-18c3.4,0,4.7,2.1,4.7,4.95V-5.6c0,3.6-.05,4.05-1.9,4.35l-.95.15a.875.875,0,0,0,.1,1.25C234.2.05,235.7,0,237.5,0c1.75,0,3.2.05,4.7.15a.875.875,0,0,0,.1-1.25l-1.1-.15c-1.8-.25-1.9-.75-1.9-4.35v-8.6c0-3.35-1.7-6.2-5.85-6.2-2.55,0-4.9,1.25-7,2.55a.525.525,0,0,1-.55-.55c0-.45,0-1.2.1-2.35a.584.584,0,0,0-.55-.35,27.245,27.245,0,0,1-5,2.45.684.684,0,0,0-.05.9l.45.3c1.35.9,1.35,1.15,1.35,3.1Z" transform="translate(200 24782)" fill="#3c505a"/>
    <path id="Path_163" data-name="Path 163" d="M33.56-26.68a35.333,35.333,0,0,1-1.96,4.6l.52.32a32.839,32.839,0,0,0,4.68-4.4,2.535,2.535,0,0,0,1.52-.44L35.2-29.56l-1.68,1.72H21.32v-4.32c.96-.16,1.36-.56,1.44-1.12l-4.12-.4v5.84H7.4a12.575,12.575,0,0,0-.44-2.2L6.24-30a6.871,6.871,0,0,1-3.12,6.48,1.872,1.872,0,0,0-1,2.16c.48.96,1.96.88,3,.12a6.27,6.27,0,0,0,2.36-5.44ZM21.28-10.64H32.76c.56,0,1-.2,1.12-.64-1.4-1.24-3.52-2.88-3.52-2.88L28.48-11.8h-7.2v-7.76H32.8c.56,0,.96-.2,1.08-.64-1.4-1.16-3.52-2.72-3.52-2.72l-1.92,2.2H6.12l.32,1.16h12.2v18.2c-3.4-1.08-5.8-3.12-7.56-7a36.754,36.754,0,0,0,1.48-5.12c.88-.04,1.36-.36,1.48-.92l-4.12-.84C9.12-8.92,6.76-1.72,1.36,2.64l.4.48A21.671,21.671,0,0,0,10.64-7.36c3.24,7.92,8.32,9.64,17.6,9.64H37A2.094,2.094,0,0,1,38.6.16V-.4c-2.56.08-7.8.08-10.2.08a46.788,46.788,0,0,1-7.12-.44Zm27.16-3.8h7.24v5.12H48.44Zm7.24-11.64v4.48H48.44v-4.48ZM48.44-20.4h7.24v4.8H48.44ZM41.36-9.32l.32,1.16H62.36c.56,0,.96-.2,1.04-.6-1.12-1.16-2.92-2.76-2.92-2.76l-1.64,2.2H58.2V-26.08H62c.52,0,.92-.2,1-.64-1.04-1.12-2.72-2.56-2.72-2.56l-1.48,2h-.6v-4.24c.96-.12,1.32-.52,1.4-1.08l-3.92-.44v5.76H48.44v-4.24c.84-.16,1.2-.52,1.32-1.04L45.92-33v5.72H42.08l.32,1.2h3.52V-9.32Zm.56,12.44a20.779,20.779,0,0,0,8-7.92,1.419,1.419,0,0,0,1.56-.56l-3.8-1.68A24.187,24.187,0,0,1,41.4,2.6Zm11.64-9.6c1.6,1.44,3.56,4,4,6,2.6,1.88,4.6-3.6-3.52-6.32ZM66.6-13.12q.12-2.04.12-4.08v-3.92h7.56v8Zm7.68-16.72v7.6H66.72v-7.6Zm.88-2.84-1.28,1.64H67.2l-2.96-1.28v15.16c0,7.56-.68,14.48-5.76,19.72l.6.44c5.28-3.88,6.96-9.32,7.44-14.92h7.76v10.8c0,.64-.24.88-.96.88-.84,0-4.8-.32-4.8-.32V.12a6.7,6.7,0,0,1,3.32,1A2.7,2.7,0,0,1,72.72,3c3.64-.4,4.08-1.68,4.08-3.8V-29.36a3,3,0,0,0,1.72-.8Zm16.08,2.72V-24H86.08v-5.96Zm-5.16,13.2v-6.08h5.16v6.08Zm0,7.44V-15.6h5.16v6.28Zm0,1.16h5.16v1.92h.36a2.859,2.859,0,0,0,2.08-.84V-29.72a2.305,2.305,0,0,0,1.6-.72l-2.96-2.28-1.28,1.56H86.56l-2.84-1.16V-5.8h.36c1.24,0,2-.6,2-.8Zm-4.2,11.2a20.9,20.9,0,0,0,6.24-7.48c.92.12,1.2-.08,1.44-.52L86-6.44a24.327,24.327,0,0,1-4.52,8.96Zm7.4-9.12A15.106,15.106,0,0,1,92.2.76c2.4,2.08,4.76-3.12-2.4-7.08Zm17.84.44V-9.88h5.04v4.24Zm-7.4-4.24h5v4.24h-5Zm5-5.2v4h-5v-4Zm7.44,0v4h-5.04v-4Zm-9.12-8.64h5.56v3.44h-5.56Zm0-4.4h5.56v3.2h-5.56ZM114.68-5.64h-.04v-9a2.73,2.73,0,0,0,1.64-.76l-3.24-2.44-1.28,1.6h-4.64v-2.88h10.36c.56,0,.92-.2,1-.64a38.886,38.886,0,0,0-3.16-2.68l-1.68,2.16h-2.6v-3.44h4.84c.56,0,.92-.2,1.04-.64-1.08-1-2.76-2.44-2.76-2.44l-1.48,1.88h-1.64v-3.2h5.56c.52,0,.92-.16,1.04-.6-1.24-1.16-3.2-2.76-3.2-2.76l-1.76,2.2h-1.64v-2.64c.84-.12,1.16-.48,1.24-1l-3.68-.4v4.04h-5.56v-2.64c.84-.12,1.2-.48,1.28-1l-3.68-.4v4.04h-5.6l.28,1.16h5.32v3.2H95.68l.32,1.2h4.64v3.44H94.4l.32,1.16h10v2.88h-4.8l-2.56-1.24V-5.64H94.2l.32,1.16h2.84v7.6h.44c.96,0,1.92-.6,1.92-.84V-4.48h12.44V-.84c0,.6-.2.84-.88.84-.8,0-4.56-.32-4.56-.32V.36a7.081,7.081,0,0,1,3.2.92,2.439,2.439,0,0,1,.8,1.76c3.52-.36,3.92-1.6,3.92-3.52v-4h3.28c.52,0,.88-.2.96-.64a33.2,33.2,0,0,0-2.72-2.56Zm23.08-24.48h-8.6l.32,1.16h9.12v3c-1.32,14.04-8.04,23.76-16.92,28.48l.4.6a31.512,31.512,0,0,0,17.96-21.68A31.853,31.853,0,0,0,155.6,3.16c.6-1.48,1.44-2.24,2.8-2.28l.16-.48c-11.24-4.6-17.36-13.96-18.72-26.48l-.04-1.96c2-.16,3.44-.6,4.08-1.36l-4.48-3.28Z" transform="translate(200 24881)" fill="#3c505a"/>
  </g>
</svg>
