<svg xmlns="http://www.w3.org/2000/svg" width="102.908" height="89.121" viewBox="0 0 102.908 89.121">
  <g id="Group_346" data-name="Group 346" transform="translate(0 0)">
    <path id="Path_85" data-name="Path 85" d="M25.727,0,0,44.561,25.727,89.122H77.181l25.727-44.561L77.181,0Z" transform="translate(0 0)" fill="#f2f099"/>
    <path id="Path_200" data-name="Path 200" d="M3.852-11.106c0-1.962.864-2.97,2.214-2.97,1.206,0,2.106.846,2.106,2.556S7.146-8.8,5.166-8.352l.2,1.26C7.884-7.146,8.91-5.85,8.91-4.1A2.511,2.511,0,0,1,6.246-1.35,3.78,3.78,0,0,1,3.8-2.3ZM1.62-.63,1.476,3.744l.144.108,2.52-.468L3.69-1.782A3.713,3.713,0,0,0,7.146.288,3.723,3.723,0,0,0,11-3.6C11-5.922,9.5-7.272,6.642-7.506c2.5-.648,3.528-2.376,3.528-3.978,0-2.052-1.6-3.258-3.888-3.258-2.826,0-4.662,1.872-4.662,5.472ZM12.546-4.464h4.986V-5.688H12.546Zm19.8-8.892h-4.86v.648l2.322.252.054,8.892-7.056-9.792h-3.8v.648l1.368.162.288.378L20.574-.846,18.9-.63V0h4.86V-.63l-2.3-.234L21.4-11.124,29.358.072H30.6l.09-12.546,1.656-.234Zm17.874.648v-.648H45.9L42.012-3.2l-4-10.152H33.624v.648l1.89.234L35.442-.846,33.534-.63V0h4.68V-.63l-1.89-.216V-6.588c0-.756-.036-3.15-.09-4.95L40.752,0h.882l4.392-11.61L45.99-5.94c-.036,1.566,0,3.366-.054,5.148L44.28-.63V0h5.94V-.63L48.492-.792c-.018-1.8-.018-3.618-.018-5.436V-7.11c0-1.8,0-3.618.018-5.436Zm14.832-.648h-4.86v.648l2.322.252.054,8.892-7.056-9.792h-3.8v.648l1.368.162.288.378L53.28-.846,51.606-.63V0h4.86V-.63l-2.3-.234-.054-10.26L62.064.072h1.242l.09-12.546,1.656-.234Z" transform="translate(17.945 39.009)" fill="#3c505a"/>
    <g id="Group_2" data-name="Group 2" transform="translate(20.875 49.695)">
      <path id="Path_194" data-name="Path 194" d="M6.17-1.679V-3.642H9.5v1.963Zm4.711-1.775a1.178,1.178,0,0,0,.581-.267L10.034-4.8,9.358-4.1H6.233L4.8-4.678v4.46h.188c.565,0,1.178-.314,1.178-.44v-.581H9.5v.77h.236a1.945,1.945,0,0,0,1.146-.424Zm1.68-2.387H3.155L1.538-6.484V1.07h.22c.628,0,1.256-.33,1.256-.487V-5.385h9.705v4.57c0,.2-.063.3-.33.3-.345,0-1.775-.094-1.775-.094v.22a2.163,2.163,0,0,1,1.272.5,1.531,1.531,0,0,1,.33.974c1.775-.157,2.01-.754,2.01-1.759V-5.118a1.028,1.028,0,0,0,.644-.314l-1.6-1.194ZM5.385-7.662v-1.9H10.3v1.9Zm5.167,1.178a2.348,2.348,0,0,0,1.256-.377V-9.3a1.171,1.171,0,0,0,.644-.33l-1.57-1.162-.738.77H5.464L3.909-10.63v4.287h.2a1.769,1.769,0,0,0,1.272-.471v-.393H10.3v.722Zm1.727-5.2H8.557v-1.194c.408-.047.534-.2.565-.424l-2.057-.188v1.806H.768l.141.455H14.588c.22,0,.393-.079.44-.251-.675-.581-1.775-1.382-1.775-1.382Zm4.837-1.539a5.575,5.575,0,0,1,1.461,2.2c1.366.9,2.481-1.743-1.319-2.324Zm-.942,3.5A4.087,4.087,0,0,1,17.43-7.662c1.335.927,2.466-1.68-1.115-2.167Zm4.115-.911C17.76-4.38,17.76-4.38,17.477-3.814c-.157.314-.22.314-.424.314h-.675v.314a1.358,1.358,0,0,1,.77.251c.361.236.44,1.6.173,3.235.079.534.345.785.675.785A1.1,1.1,0,0,0,19.079-.108c.031-1.335-.5-1.994-.518-2.78a6.489,6.489,0,0,1,.22-1.413c.188-.8,1.225-4.35,1.79-6.25Zm4.24,7.161h1.288a8.037,8.037,0,0,0,1.052,2.214c-.8.11-1.6.22-2.34.314ZM22.377-7.976h6.2v.424h.22a.435.435,0,0,0,.141-.016l-.581.691H22.283l-.942-.361c.518-.031,1.036-.3,1.036-.408Zm1.209-3.518v1.272H22.377v-1.272Zm2.45,0v1.272H24.811v-1.272Zm2.544,0v1.272H27.261v-1.272ZM27.261-9.766H28.58v1.351H27.261Zm-2.45,0h1.225v1.351H24.811ZM22.377-8.416V-9.766h1.209v1.351ZM29.1-3.422A15.307,15.307,0,0,1,27.544-1.8a5.841,5.841,0,0,1-1.382-1.665H30.5c.22,0,.361-.079.408-.236-.55-.487-1.429-1.115-1.429-1.115l-.77.911h-6.69c.031-.377.031-.722.031-1.052V-6.421h8.229c.22,0,.377-.079.408-.251-.377-.345-.927-.754-1.241-.989.251-.094.455-.188.471-.251v-3.345a1.115,1.115,0,0,0,.644-.33L29.1-12.672l-.675.722H27.261v-.989c.314-.047.455-.173.471-.377l-1.7-.173v1.539H24.811v-.989c.314-.047.455-.188.471-.377l-1.7-.173v1.539H22.471l-1.413-.581v5.182l-.345-.141v2.544A8.964,8.964,0,0,1,19.142.881l.173.188a6.018,6.018,0,0,0,2.654-4.539h1.256v2.7c-.675.079-1.225.141-1.6.173l.832,1.68A.567.567,0,0,0,22.848.74c1.9-.77,3.235-1.366,4.177-1.79a6.415,6.415,0,0,0,3,2.136A1.341,1.341,0,0,1,31-.077l.016-.173a7.775,7.775,0,0,1-3.094-1.272,13.388,13.388,0,0,0,1.916-.691c.314.11.471.079.6-.063ZM22.22-5.432l.126.455h7.1c.22,0,.377-.079.424-.251-.55-.471-1.4-1.084-1.4-1.084l-.754.879ZM41.411-8.369v1.932H38.835V-8.369Zm-6.5,0h2.513v3.3h.236c.534,0,1.178-.3,1.178-.424v-.487h2.576v.8h.236c.565,0,1.225-.3,1.225-.424V-8.369h3.188c.22,0,.377-.079.424-.251-.55-.534-1.461-1.288-1.461-1.288l-.817,1.084H42.871V-9.955c.377-.047.487-.188.518-.377l-1.979-.188v1.7H38.835V-9.939c.377-.063.487-.2.518-.393l-1.932-.188v1.7H34.909v-2.183h11.15c.22,0,.393-.079.424-.251-.581-.565-1.586-1.351-1.586-1.351L44-11.447h-3.6v-1.445c.408-.047.55-.2.581-.424L38.961-13.5v2.057h-3.8l-1.7-.738v4.727c0,2.827-.11,5.921-1.508,8.355l.2.141c2.623-2.356,2.748-5.842,2.748-8.5ZM42.2-4.019a8.322,8.322,0,0,1-2.01,2.136,6.492,6.492,0,0,1-2.528-2.136ZM43.2-5.2l-.942.722h-6.91l.141.455h1.79A7.664,7.664,0,0,0,39.306-1.3,17.911,17.911,0,0,1,33.7.834l.094.236A19.184,19.184,0,0,0,40.186-.658,13.9,13.9,0,0,0,45.51,1.085,1.605,1.605,0,0,1,46.688-.3V-.485a20.44,20.44,0,0,1-5.277-.9,9.463,9.463,0,0,0,2.481-2.387c.408-.016.565-.063.691-.2Z" transform="translate(0 18.259)" fill="#3c505a"/>
      <path id="Path_193" data-name="Path 193" d="M3.723,7.229H3.133V5.461h.589Zm1.424.356V9.856A.735.735,0,0,1,5,9.88H4.533c-.086,0-.1-.037-.1-.16V7.585ZM1.807,14.079V12.385H5.147v1.694Zm.651-6.495v.491a4.987,4.987,0,0,1-.651,2.861V7.585Zm2.185,3.032c.209,0,.368-.012.5-.025v1.436H1.807v-.97l.11.123A3.749,3.749,0,0,0,3.133,8.088v-.5h.589V9.991c0,.442.086.626.6.626ZM4.95,5.1H.481l.1.356H2.3V7.229h-.43L.825,6.75v8.8H.972c.442,0,.835-.233.835-.356v-.761H5.147v.921h.16a1.352,1.352,0,0,0,.859-.331V7.744a.87.87,0,0,0,.479-.233L5.552,6.651l-.528.577H4.57V5.461H6.436c.184,0,.295-.061.331-.2C6.325,4.859,5.6,4.282,5.6,4.282Zm6.63,7.059h-.147a13.314,13.314,0,0,1-.454,1.78.271.271,0,0,1-.27.172c-.16.012-.54.025-1.007.025H8.633c-.43,0-.5-.074-.5-.295V8.788h1.952V9.917h.172a1.568,1.568,0,0,0,.909-.295V5.694a1.094,1.094,0,0,0,.577-.282l-1.228-.945-.577.626H6.964l.11.356h3.008v3H8.29l-1.228-.5v6.188c0,.835.258,1.068,1.326,1.068H9.64c1.891,0,2.394-.233,2.394-.712,0-.209-.086-.344-.417-.467Zm-7.8,16.13V25.409H8.633v2.885Zm4.727-3.241H3.858l-1.289-.54V29.62H2.74c.5,0,1.044-.27,1.044-.381V28.65H8.633v.859h.209A1.893,1.893,0,0,0,9.861,29.2V25.63a1.046,1.046,0,0,0,.528-.27l-1.277-.982ZM7.148,22.831H3.317l.1.356h5.4c.172,0,.295-.061.331-.2-.491-.454-1.289-1.068-1.289-1.068ZM5.454,18.166c-.577,1.768-2.922,4.26-5.034,5.488l.086.172a14.144,14.144,0,0,0,6.028-4.8,9.2,9.2,0,0,0,4.481,4.322,1.376,1.376,0,0,1,.958-1.031l.012-.184c-2.013-.675-4.137-1.731-5.242-3.253.356-.025.516-.1.565-.246Z" transform="translate(48.905 -4.742)" fill="#3c505a"/>
    </g>
    <path id="Path_199" data-name="Path 199" d="M-2.22-4.72a.6.6,0,0,0,.6-.6.6.6,0,0,0-.6-.6.6.6,0,0,0-.6.6A.6.6,0,0,0-2.22-4.72Zm0,1.448-2.64-2.64-.232.232,2.64,2.64L-5.1-.392l.232.232L-2.22-2.808.42-.168.652-.4l-2.64-2.64L.652-5.68.42-5.912ZM-3.9-3.04a.6.6,0,0,0-.6-.6.6.6,0,0,0-.6.6.6.6,0,0,0,.6.6A.6.6,0,0,0-3.9-3.04Zm3.36,0a.6.6,0,0,0,.6.6.6.6,0,0,0,.6-.6.6.6,0,0,0-.6-.6A.6.6,0,0,0-.54-3.04ZM-2.22-1.36a.6.6,0,0,0-.6.6.6.6,0,0,0,.6.6.6.6,0,0,0,.6-.6A.6.6,0,0,0-2.22-1.36ZM2.132,0H5.82V-.632H4.2c-.3,0-.656.032-.96.056,1.376-1.3,2.3-2.5,2.3-3.664a1.609,1.609,0,0,0-1.7-1.736A2.243,2.243,0,0,0,2.1-5.112l.424.416a1.642,1.642,0,0,1,1.216-.68,1.031,1.031,0,0,1,1.08,1.16c0,1.008-.848,2.176-2.688,3.784Z" transform="translate(77.251 22.579)" fill="#3c505a" stroke="rgba(0,0,0,0)" stroke-width="1"/>
  </g>
</svg>
