<svg id="Group_106" data-name="Group 106" xmlns="http://www.w3.org/2000/svg" width="245.875" height="212.934" viewBox="0 0 245.875 212.934">
  <path id="Path_84" data-name="Path 84" d="M61.469,0,0,106.467,61.469,212.934H184.406l61.469-106.467L184.406,0Z" transform="translate(0 0)" fill="#f2f099"/>
  <path id="Path_166" data-name="Path 166" d="M-49.287-12.873a2.7,2.7,0,0,1,.441.819.667.667,0,0,1-.294.861,25.819,25.819,0,0,1-6.531,3.549c.084-1.911.21-3.948.336-4.893.1-.651.546-.8.546-1.281,0-.63-1.407-1.659-2.478-1.7a5.259,5.259,0,0,0-1.764.483v.315c1.008.21,1.533.4,1.659.924.168.8-.084,7.392-.042,9.933.042,3.087.588,3.822,4.809,3.822a24.169,24.169,0,0,0,6.258-.567c.525-.168.9-.42.9-1.029,0-.672-.777-.987-2.079-.987a25.35,25.35,0,0,1-5.46.735c-2.394,0-2.751-.21-2.772-2.079,0-.567.021-1.575.063-2.73a57.652,57.652,0,0,0,8.043-2.982c.8-.4,1.386-.5,1.386-.987a2.963,2.963,0,0,0-1.323-1.869,3.555,3.555,0,0,0-1.449-.567Zm13.692-2.6c.966.147,1.533.336,1.638,1.029a51.168,51.168,0,0,1,.189,5.187c0,1.407-.021,4.494-.189,6.048-.084.882-.273,1.323-.273,1.827,0,1.2.5,2.352,1.407,2.352.672,0,.9-.357.9-1.218,0-.315-.042-.987-.063-2.016-.042-1.995-.063-5.04-.021-6.888a13.28,13.28,0,0,1,2.94,1.68c1.47,1.26,1.638,2.226,2.688,2.226a.976.976,0,0,0,.987-1.05,2.3,2.3,0,0,0-1.386-1.974A15.167,15.167,0,0,0-32-9.933c.042-1.218.084-2.52.189-3.4.1-.735.525-.9.525-1.428,0-.609-1.68-1.533-2.667-1.533a5.281,5.281,0,0,0-1.659.441Zm21.567.21c1.218.042,1.911.126,2.268.672.378.567.84,1.47,1.3,2.31a15.517,15.517,0,0,1-3.717.672,4.85,4.85,0,0,1-3.612-1.428l-.336.273c1.029,1.932,1.764,2.772,4.158,2.73a16.927,16.927,0,0,0,4.389-.777A37.768,37.768,0,0,0-6.594-6.867c.189.189.126.231-.1.189a16.676,16.676,0,0,0-4.326-.609c-3.318,0-5.8,1.785-5.8,4.116,0,2.751,3,4.074,6.783,4.074C-7.14.9-6.09.42-6.09-.294S-6.762-1.3-7.56-1.3c-.777,0-1.6.231-3.108.231-3.087,0-4.7-1.029-4.7-2.478,0-1.638,1.617-2.877,3.885-2.877A9.573,9.573,0,0,1-6.426-4.914c.651.4,1.008.777,1.575.777.63,0,.987-1.029.966-1.7,0-.42-.189-.672-.672-1.155A21.906,21.906,0,0,1-8.19-11.277a13.778,13.778,0,0,0,3.78-1.995.838.838,0,0,0,.168-1.113,1.62,1.62,0,0,0-1.428-.294,18.628,18.628,0,0,1-3.339,1.89A18.884,18.884,0,0,1-10-15.582c-.126-.441-1.008-.777-2.016-.777a4.091,4.091,0,0,0-2.079.735ZM3.087-6.846c.168,3.654,2.205,5.5,3.885,6.216C8.106-.168,8.9-.588,8.9-1.386c0-.567-.336-.588-.231-1.7A30.381,30.381,0,0,1,9.765-7.1l-.483-.21a32.455,32.455,0,0,1-2.1,3.78.55.55,0,0,1-.777.168c-.777-.357-1.848-1.575-1.848-3.759,0-2.436.945-3.675.945-4.662,0-.924-1.2-1.995-2.121-2.415a5.268,5.268,0,0,0-1.7-.294l-.147.273a3.173,3.173,0,0,1,1.638,2.856C3.171-10.122,3-8.442,3.087-6.846ZM16.275-8.925a16.552,16.552,0,0,1,.966,3.99.925.925,0,0,0,.9.777c.819,0,1.2-.567,1.2-1.68a6.8,6.8,0,0,0-1.848-4.641,6.649,6.649,0,0,0-4.368-2.037l-.147.42A6.034,6.034,0,0,1,16.275-8.925Zm14.217-5.439V-12.1H27.657v-2.268Zm4.851,0V-12.1H32.466v-2.268Zm-13.272,0h3.654v4.032h.336c.756,0,1.6-.294,1.6-.462v-.693h7.686v1.008H35.7c.756,0,1.617-.336,1.617-.5v-3.381H40.74c.294,0,.5-.1.567-.336-.735-.714-1.932-1.722-1.932-1.722L38.3-14.973h-.987v-1.68c.525-.084.714-.294.756-.567l-2.73-.273v2.52H32.466v-1.932c.546-.063.735-.273.777-.567l-2.751-.252v2.751H27.657v-1.68c.546-.084.735-.294.777-.588l-2.709-.252v2.52H21.882ZM35.658-6.426H32.382V-7.938c.5-.084.651-.273.693-.546l-2.646-.252v2.31H27.405l-2.1-.882V.735h.273c.8,0,1.659-.441,1.659-.63V-5.817h3.192V1.764h.378c.714,0,1.575-.378,1.575-.567V-5.817h3.507v4.179c0,.231-.084.378-.4.378-.42,0-2.079-.126-2.079-.126v.294A2.514,2.514,0,0,1,34.923-.5,1.954,1.954,0,0,1,35.3.714c2.289-.189,2.583-.9,2.583-2.163V-5.4a1.661,1.661,0,0,0,.987-.483L36.645-7.56ZM39.5-10.9,38.346-9.786H24.612a8.366,8.366,0,0,0-.4-1.449H23.94a3.272,3.272,0,0,1-1.3,2.9c-1.6.9-.546,2.667.882,1.932A2.562,2.562,0,0,0,24.7-9.177H38.43c-.21.714-.483,1.6-.672,2.142l.21.147a19.646,19.646,0,0,0,2.688-1.869,1.159,1.159,0,0,0,.8-.231ZM47-12.432h2.247V0H47Zm6.342,0V0H51.072V-12.432Zm4.074,0V0H55.209V-12.432ZM59.556,0h-.147V-12.18a1.43,1.43,0,0,0,.966-.42l-2.247-1.617L57.2-13.041H50.463a33.064,33.064,0,0,0,2.814-3.213c.483,0,.714-.168.819-.4l-3.129-.819c-.294,1.26-.819,3.108-1.281,4.431H47.229l-2.142-.84V0H42.693l.168.609H61.95c.294,0,.5-.105.567-.336-.672-.8-1.869-2-1.869-2ZM-59.535,21.348h4.116v2.247h-4.116Zm4.116-2.835v2.226h-4.116V18.513Zm.063,8.169h-1.2V24.2h1.134v.5h.294a2.682,2.682,0,0,0,1.554-.5v-5.4a1.734,1.734,0,0,0,.84-.4l-1.974-1.491-.9.987h-.924V15.762h3.612c.315,0,.5-.1.567-.336-.735-.735-2.016-1.743-2.016-1.743l-1.113,1.47h-1.05V13.095c.525-.084.693-.273.714-.567l-2.667-.231v2.856h-3.759l.168.609h3.591V17.9h-.945l-1.953-.819v7.98h.273c.777,0,1.575-.42,1.575-.588V24.2h1.05v2.478h-3.822l.168.609h3.654v4.515h.315a2.308,2.308,0,0,0,1.617-.441V27.291h3.7c.294,0,.483-.1.546-.336-.735-.714-1.974-1.7-1.974-1.7Zm9.471-2.646h-1.344v-3.57h2.373c.294,0,.5-.1.567-.336-.714-.672-1.869-1.638-1.869-1.638l-1.008,1.365h-4.788l.168.609h2.6v3.57h-3.654l.168.609h3.486v7.119h.336c1.008,0,1.617-.378,1.617-.483V24.645h3.885c.315,0,.525-.105.567-.336-.735-.756-1.995-1.827-1.995-1.827Zm-3.339-11.7a17.471,17.471,0,0,1-4.263,7.707l.168.252a14.868,14.868,0,0,0,5.8-6.783A12.449,12.449,0,0,0-43.7,20a1.931,1.931,0,0,1,1.3-1.6l.021-.252a11.146,11.146,0,0,1-4.872-4.872c.483-.042.693-.147.714-.378Zm11.214-.084a31.137,31.137,0,0,1-1.176,3.78,7.094,7.094,0,0,0-1.575-.588l-.21.147a7.241,7.241,0,0,1,1.848,3.171c1.323.945,2.5-1.05.378-2.457a16.542,16.542,0,0,0,2.52-2.73c.462,0,.714-.147.8-.4Zm2.31,11.592A10.221,10.221,0,0,1-34.755,28c1.407,1.428,3.15-1.7-.672-4.263Zm-.147-4.557a10.108,10.108,0,0,1,.861,1.722c-1.092.063-2.142.147-3.066.21A29,29,0,0,0-34,16.035c.462.042.735-.105.84-.336l-2.5-.966a36.23,36.23,0,0,1-3.234,6.531c-.987.063-1.785.1-2.31.1l.609,1.974a.8.8,0,0,0,.546-.441c.777-.189,1.491-.378,2.142-.546V24.5l-2.079-.483a22.311,22.311,0,0,1-1.344,6.069l.336.189a13.556,13.556,0,0,0,2.625-5.25,1,1,0,0,0,.462-.1v6.867h.315c.924,0,1.512-.4,1.512-.525V21.852l1.26-.378a6.08,6.08,0,0,1,.315,1.512c1.491,1.386,3.129-1.743-1.113-3.822ZM-26.8,29.5V22.251h2.31V29.5Zm-3.99-7.245h2.205V29.5h-2.205Zm2.205-7.371v6.762h-2.205V14.88Zm4.095,0v6.762H-26.8V14.88Zm.882-1.764-1.008,1.155h-5.922l-2.1-.819V31.638h.315c.924,0,1.533-.4,1.533-.546V30.1h6.3v1.344h.294a2.006,2.006,0,0,0,1.617-.588V15.09a1.408,1.408,0,0,0,.924-.42Zm6.3,10.248c.1-1.386.1-2.709.1-3.906V19h2.058v4.368Zm2.163-9.2v4.221H-17.2V14.166Zm.693-1.617-.882,1.029h-1.554l-2.142-.84v6.741c0,3.99-.021,8.526-1.407,12.159l.315.168a14.315,14.315,0,0,0,2.751-7.833h2.226V29.16c0,.294-.084.42-.42.42-.357,0-1.974-.126-1.974-.126v.315a2.216,2.216,0,0,1,1.449.651,2.628,2.628,0,0,1,.378,1.344c2.163-.21,2.415-1.008,2.415-2.394V14.439a1.414,1.414,0,0,0,.8-.4ZM-1.491,26.577h-.231a13.564,13.564,0,0,1-.819,2.478c-.147.21-.273.273-.63.294-.378.042-1.344.042-2.541.042H-8.589c-.987,0-1.134-.105-1.134-.483v-5.88H-7.1v1.113H-6.8a2.241,2.241,0,0,0,1.449-.567V19.185a1.1,1.1,0,0,0,.609-.315l-1.7-1.281-.8.84h-3.948a15.016,15.016,0,0,0,1.659-2.436h6.279c-.1,5.8-.294,8.211-.8,8.736a.659.659,0,0,1-.588.21c-.357,0-1.134-.042-1.659-.084v.315a2.272,2.272,0,0,1,1.218.567,2.042,2.042,0,0,1,.273,1.3,2.864,2.864,0,0,0,2.121-.819c.882-.861,1.134-3.171,1.218-9.954a1.308,1.308,0,0,0,.84-.357l-1.848-1.575-1.008,1.05H-9.219a19.12,19.12,0,0,0,.84-1.89.736.736,0,0,0,.8-.42l-2.646-.8a22.233,22.233,0,0,1-2.94,7.623l.294.189a10.254,10.254,0,0,0,1.6-1.575l.168.525H-7.1v3.4H-9.45l-2.1-.84v7.749c0,1.491.525,1.827,2.73,1.827h2.982c4.3,0,5.208-.378,5.208-1.239,0-.378-.168-.588-.8-.8ZM7.287,15.762h12.39c.294,0,.525-.1.567-.336-.819-.777-2.184-1.848-2.184-1.848l-1.218,1.575H14.427V13.221c.546-.063.735-.273.777-.567L12.453,12.4v2.751H7.119Zm2.037.462a8.98,8.98,0,0,1,1.155,3.99c1.617,1.6,3.549-1.932-.9-4.1ZM5.1,18.744h2.6c.294,0,.5-.1.546-.336-.609-.735-1.722-1.827-1.722-1.827l-.987,1.554H5.1V13.578c.567-.084.735-.294.777-.588l-2.709-.273v5.418H.735l.168.609H3.171v6.93c-1.2.273-2.163.483-2.751.588l1.05,2.457a.788.788,0,0,0,.5-.525c2.835-1.491,4.893-2.688,6.258-3.507l-.084-.252c-1.029.273-2.079.525-3.045.777Zm5.481,10.563v-4.83h6.027v4.83Zm5.838-5.439H10.71l-2.058-.861v8.778h.294c.819,0,1.638-.441,1.638-.63V29.916h6.027v1.659h.336a2.768,2.768,0,0,0,1.68-.567V24.834a1.422,1.422,0,0,0,.861-.441l-2.079-1.617Zm.735-2.919H14.826a22.778,22.778,0,0,0,2.772-3.8c.462,0,.693-.168.777-.42l-2.814-.819a30.96,30.96,0,0,1-1.239,5.04H6.552l.168.609H19.971c.294,0,.5-.1.567-.336-.8-.777-2.163-1.89-2.163-1.89Zm10.962,5.313V24.834h6.762v1.428Zm0,.609h3.045a8.275,8.275,0,0,0,1.47,1.89c-1.575.168-3.129.315-4.515.441Zm6.531-6.8a8.84,8.84,0,0,0,.819,1.344l-.756.777H32.4v-.966c.42-.084.567-.252.588-.483l-2.436-.231v1.68H28.392l-.63-.252a10.965,10.965,0,0,0,1.554-1.869Zm-6.531,2.709h6.762v1.449H28.119ZM35.2,27.5a3.186,3.186,0,0,0,1.638-.483V22.965h.042a13.772,13.772,0,0,0,3.192,2.1A2.067,2.067,0,0,1,41.5,23.343l.042-.231a13.523,13.523,0,0,1-6.3-3.045h5.271c.294,0,.525-.1.567-.336-.8-.672-2.1-1.638-2.1-1.638l-1.155,1.386H32.4V17.841H39.06c.273,0,.5-.1.546-.336-.756-.651-2-1.512-2-1.512l-1.05,1.239H32.4V15.7h7.686c.315,0,.5-.1.546-.336-.777-.693-2.058-1.638-2.058-1.638L37.443,15.09H33.474a16.624,16.624,0,0,0,2.289-1.7c.462.042.714-.105.819-.357l-2.688-.819A28.619,28.619,0,0,1,32.8,15.09H29.484c.819-.609.588-2.5-2.856-2.793l-.189.147a6.793,6.793,0,0,1,1.785,2.646H22.575l.189.609h7.707v1.533H23.583l.168.609h6.72v1.638H22.05l.168.588H26.88A15.608,15.608,0,0,1,21.5,25.275l.189.294a19.266,19.266,0,0,0,4.494-2.31V29.37c-1.2.1-2.184.168-2.835.21l1.113,2.247a.8.8,0,0,0,.546-.441c3.507-.987,5.964-1.722,7.686-2.31l-.021-.273c1.7,1.575,4.074,2.415,7.077,2.919a2.062,2.062,0,0,1,1.344-1.7V29.79a23.991,23.991,0,0,1-5.313-.756c1.113-.441,2.268-.966,3.066-1.365.462.126.63.042.8-.147l-1.953-1.365a23.768,23.768,0,0,1-2.73,2.625,7.847,7.847,0,0,1-3.234-1.911h3.15v.63ZM48.048,15.657H61.74c.294,0,.5-.105.567-.336-.8-.777-2.142-1.806-2.142-1.806l-1.2,1.533H55.524v-1.89c.5-.084.651-.273.693-.546l-2.6-.231v2.667H47.88ZM43.89,12.885a7.111,7.111,0,0,1,2.016,2.772c1.869,1.134,3.234-2.436-1.848-2.94ZM42.609,17.61a5.533,5.533,0,0,1,1.7,2.709c1.806,1.239,3.318-2.289-1.512-2.877Zm5.544-.819c-3.3,7.77-3.3,7.77-3.7,8.5-.231.4-.315.4-.588.4h-.9v.441a1.926,1.926,0,0,1,1.029.315c.462.315.567,2.142.231,4.305.1.714.483,1.071.9,1.071a1.47,1.47,0,0,0,1.47-1.6c.063-1.785-.651-2.667-.672-3.7a9.151,9.151,0,0,1,.273-1.848c.252-.987,1.575-5.418,2.31-7.812Zm2.856,3.4A21.257,21.257,0,0,0,52.668,17c.546.021.735-.1.819-.336l-2.583-.9a24.789,24.789,0,0,1-4.431,9.156l.21.252a17.174,17.174,0,0,0,2.772-2.751v9.366h.315a2.169,2.169,0,0,0,1.428-.5V20.907a.855.855,0,0,0,.672-.378Zm4.389.294c.189-.315.357-.63.525-.945h3.339a18.82,18.82,0,0,1-2.415,6.783,11.536,11.536,0,0,1-2.2-4.62c.252-.378.483-.756.693-1.113A5.587,5.587,0,0,1,56.6,23.28c1.428,1.176,2.961-1.659-1.071-2.877Zm4.83-2.646-1.092,1.092h-2.9c.336-.693.651-1.365.882-1.995.546,0,.714-.126.8-.378l-2.6-.8A26.345,26.345,0,0,1,51.7,24.624l.252.231a16.646,16.646,0,0,0,2.394-2.73,18.232,18.232,0,0,0,1.68,5.355,14.116,14.116,0,0,1-4.788,3.99l.189.294a15.632,15.632,0,0,0,5.313-3.15,9.109,9.109,0,0,0,4.284,3.171,2.171,2.171,0,0,1,1.554-1.911l.042-.21A11.16,11.16,0,0,1,57.9,27.4a17.6,17.6,0,0,0,3.4-7.56c.462-.042.651-.1.819-.294Z" transform="translate(122.375 59.424)" fill="#3c505a"/>
  <g id="Group_1" data-name="Group 1" transform="translate(45.5 98)">
    <path id="Path_164" data-name="Path 164" d="M9.864-46.756l-1.048,13.3q-.036.578-.217,1.879-.145,1.229-.217,1.987,4.047-4.589,11.671-4.589,7.335,0,11.418,4.986A16.967,16.967,0,0,1,35.013-18.1q0,8.347-4.914,13.261Q25.582-.289,18.066-.289A21.011,21.011,0,0,1,7.624-2.818Q2.6-5.709,2.6-9.105a2.535,2.535,0,0,1,1.554-2.2,7.486,7.486,0,0,1,3.758-.831,3.874,3.874,0,0,1,3.324,2.2,26.118,26.118,0,0,1,1.481,3.288q1.7,4.083,5.348,4.083,4.372,0,6.468-4.986A27.571,27.571,0,0,0,26.2-18.03q0-6.5-2.963-10.262a7.147,7.147,0,0,0-5.745-3.071,10.25,10.25,0,0,0-9.322,5.384q-.4.687-.9.687a3.585,3.585,0,0,1-1.12-.289Q5.2-26.016,5.2-26.594a3.045,3.045,0,0,1,.072-.506q.361-1.481.434-2.06L7.479-52.754a1.637,1.637,0,0,1,.434-.976,1.509,1.509,0,0,1,1.048-.434q2.963.072,11.6.072,6.034,0,12.574-.289.687,0,.687.47,0,.072,0,.108L31.4-47.117a.767.767,0,0,1-.759.506q-5.926-.145-7.479-.145Zm48.129-8.816q8.2,0,12.646,8.419,3.794,7.263,3.794,19.114,0,13.73-4.95,21.174Q65.147-.289,57.993-.289q-8.455,0-12.791-8.2-3.758-7.082-3.758-19.114,0-13.947,4.914-21.427Q50.694-55.572,57.993-55.572Zm0,2.276q-4.733,0-6.54,7.841Q50.116-39.6,50.116-27.822q0,13.441,1.807,19.259,1.879,6,6.07,6,4.625,0,6.432-7.769,1.337-5.854,1.337-17.488,0-13.55-1.771-19.4Q62.148-53.3,57.993-53.3Zm30.564,15a8.54,8.54,0,0,1,6.923,3.287,11.562,11.562,0,0,1,2.465,7.57q0,5.454-3.088,8.591a8.523,8.523,0,0,1-6.3,2.59A8.261,8.261,0,0,1,81.784-19.5a11.611,11.611,0,0,1-2.391-7.57,11.921,11.921,0,0,1,3.038-8.542A8.123,8.123,0,0,1,88.558-38.3Zm.025,1.419q-2.167,0-3.262,2.839a19.189,19.189,0,0,0-.971,6.823,16.993,16.993,0,0,0,1.27,7.421,3.312,3.312,0,0,0,2.963,2.167q2.191,0,3.337-2.814a18.281,18.281,0,0,0,1.021-6.773q0-4.956-1.32-7.5A3.388,3.388,0,0,0,88.583-36.88Zm.7,38.673L87.611.772l25.027-40.815,1.693,1.021Zm23.782-24.031a8.351,8.351,0,0,1,6.8,3.262,11.617,11.617,0,0,1,2.416,7.545q0,5.5-3.013,8.641a8.3,8.3,0,0,1-6.2,2.59,8.495,8.495,0,0,1-6.9-3.262,11.554,11.554,0,0,1-2.44-7.6,11.754,11.754,0,0,1,3.088-8.542A8.437,8.437,0,0,1,113.062-22.238Zm0,1.37q-2.216,0-3.337,2.839a18.871,18.871,0,0,0-1,6.823,16.7,16.7,0,0,0,1.295,7.421,3.388,3.388,0,0,0,3.038,2.167q2.167,0,3.287-2.814a19.136,19.136,0,0,0,.971-6.773,17.14,17.14,0,0,0-1.27-7.471A3.362,3.362,0,0,0,113.062-20.868Z" transform="translate(0 72.424)" fill="#3c505a"/>
    <path id="Path_163" data-name="Path 163" d="M8.372,15.284H7.028V11.252H8.372Zm3.248.812v5.18a1.676,1.676,0,0,1-.336.056H10.22c-.2,0-.224-.084-.224-.364V16.1ZM4,30.908V27.044H11.62v3.864ZM5.488,16.1v1.12c0,1.876-.056,4.4-1.484,6.524V16.1Zm4.984,6.916c.476,0,.84-.028,1.148-.056v3.276H4V24.02l.252.28c2.548-2.044,2.772-5.1,2.772-7.056V16.1H8.372v5.488c0,1.008.2,1.428,1.372,1.428Zm.7-12.572H.98l.224.812h3.92v4.032h-.98l-2.38-1.092V34.268H2.1c1.008,0,1.9-.532,1.9-.812V31.72H11.62v2.1h.364a3.085,3.085,0,0,0,1.96-.756V16.46a1.985,1.985,0,0,0,1.092-.532l-2.492-1.96-1.2,1.316H10.3V11.252H14.56c.42,0,.672-.14.756-.448-1.008-.924-2.66-2.24-2.66-2.24Zm15.12,16.1h-.336A30.365,30.365,0,0,1,24.92,30.6a.618.618,0,0,1-.616.392c-.364.028-1.232.056-2.3.056H19.572c-.98,0-1.148-.168-1.148-.672V18.84h4.452v2.576h.392a3.577,3.577,0,0,0,2.072-.672v-8.96a2.5,2.5,0,0,0,1.316-.644l-2.8-2.156L22.54,10.412H15.764l.252.812h6.86v6.832H18.788l-2.8-1.148V31.02c0,1.9.588,2.436,3.024,2.436h2.856c4.312,0,5.46-.532,5.46-1.624,0-.476-.2-.784-.952-1.064ZM8.512,61.328v-6.58h11.06v6.58Zm10.78-7.392H8.68L5.74,52.7V64.352h.392c1.148,0,2.38-.616,2.38-.868V62.14h11.06V64.1h.476a4.318,4.318,0,0,0,2.324-.7V55.252a2.386,2.386,0,0,0,1.2-.616L20.664,52.4Zm-3.108-5.068H7.448l.224.812h12.32c.392,0,.672-.14.756-.448-1.12-1.036-2.94-2.436-2.94-2.436ZM12.32,38.228C11,42.26,5.656,47.944.84,50.744l.2.392c5.488-2.3,11.116-6.776,13.748-10.948,1.848,4.256,5.8,7.7,10.22,9.856a3.138,3.138,0,0,1,2.184-2.352l.028-.42c-4.592-1.54-9.436-3.948-11.956-7.42.812-.056,1.176-.224,1.288-.56Z" transform="translate(127.75 12.424)" fill="#3c505a"/>
  </g>
  <path id="Path_165" data-name="Path 165" d="M-2.5-5.31a.68.68,0,0,0,.675-.675A.68.68,0,0,0-2.5-6.66a.68.68,0,0,0-.675.675A.68.68,0,0,0-2.5-5.31Zm0,1.629-2.97-2.97-.261.261,2.97,2.97L-5.738-.441l.261.261L-2.5-3.159.473-.189.734-.45l-2.97-2.97L.734-6.39.473-6.651Zm-1.89.261A.68.68,0,0,0-5.062-4.1a.68.68,0,0,0-.675.675.68.68,0,0,0,.675.675A.68.68,0,0,0-4.387-3.42Zm3.78,0a.68.68,0,0,0,.675.675A.68.68,0,0,0,.743-3.42.68.68,0,0,0,.068-4.1.68.68,0,0,0-.607-3.42ZM-2.5-1.53a.68.68,0,0,0-.675.675A.68.68,0,0,0-2.5-.18a.68.68,0,0,0,.675-.675A.68.68,0,0,0-2.5-1.53ZM2.795,0H6.412V-.684H5.09V-6.606H4.46a3.974,3.974,0,0,1-1.368.477v.522h1.17V-.684H2.795Z" transform="translate(174.625 36.625)" fill="#615243" stroke="rgba(0,0,0,0)" stroke-width="1"/>
</svg>
