<svg xmlns="http://www.w3.org/2000/svg" width="102.908" height="89.121" viewBox="0 0 102.908 89.121">
  <g id="Group_394" data-name="Group 394" transform="translate(0 0)">
    <path id="Path_84" data-name="Path 84" d="M25.727,0,0,44.561,25.727,89.122H77.181l25.727-44.561L77.181,0Z" transform="translate(0 0)" fill="#f2f099"/>
    <path id="Path_198" data-name="Path 198" d="M-18.776-4.9a1.03,1.03,0,0,1,.168.312.254.254,0,0,1-.112.328,9.836,9.836,0,0,1-2.488,1.352c.032-.728.08-1.5.128-1.864.04-.248.208-.3.208-.488,0-.24-.536-.632-.944-.648a2,2,0,0,0-.672.184v.12c.384.08.584.152.632.352.064.3-.032,2.816-.016,3.784.016,1.176.224,1.456,1.832,1.456a9.207,9.207,0,0,0,2.384-.216c.2-.064.344-.16.344-.392,0-.256-.3-.376-.792-.376a9.657,9.657,0,0,1-2.08.28c-.912,0-1.048-.08-1.056-.792,0-.216.008-.6.024-1.04a21.963,21.963,0,0,0,3.064-1.136c.3-.152.528-.192.528-.376a1.129,1.129,0,0,0-.5-.712,1.354,1.354,0,0,0-.552-.216ZM-13.56-5.9c.368.056.584.128.624.392a19.493,19.493,0,0,1,.072,1.976c0,.536-.008,1.712-.072,2.3-.032.336-.1.5-.1.7,0,.456.192.9.536.9.256,0,.344-.136.344-.464,0-.12-.016-.376-.024-.768-.016-.76-.024-1.92-.008-2.624a5.059,5.059,0,0,1,1.12.64c.56.48.624.848,1.024.848a.372.372,0,0,0,.376-.4.874.874,0,0,0-.528-.752,5.778,5.778,0,0,0-1.992-.632c.016-.464.032-.96.072-1.3.04-.28.2-.344.2-.544,0-.232-.64-.584-1.016-.584a2.012,2.012,0,0,0-.632.168Zm8.216.08c.464.016.728.048.864.256s.32.56.5.88A5.911,5.911,0,0,1-5.4-4.424a1.848,1.848,0,0,1-1.376-.544l-.128.1c.392.736.672,1.056,1.584,1.04a6.448,6.448,0,0,0,1.672-.3,14.388,14.388,0,0,0,1.136,1.5c.072.072.048.088-.04.072A6.353,6.353,0,0,0-4.2-2.776c-1.264,0-2.208.68-2.208,1.568C-6.408-.16-5.264.344-3.824.344c1.1,0,1.5-.184,1.5-.456S-2.576-.5-2.88-.5s-.608.088-1.184.088c-1.176,0-1.792-.392-1.792-.944,0-.624.616-1.1,1.48-1.1a3.647,3.647,0,0,1,1.928.576c.248.152.384.3.6.3.24,0,.376-.392.368-.648,0-.16-.072-.256-.256-.44A8.345,8.345,0,0,1-3.12-4.3a5.249,5.249,0,0,0,1.44-.76.319.319,0,0,0,.064-.424.617.617,0,0,0-.544-.112,7.1,7.1,0,0,1-1.272.72,7.194,7.194,0,0,1-.376-1.064c-.048-.168-.384-.3-.768-.3a1.559,1.559,0,0,0-.792.28Zm6.52,3.208A2.545,2.545,0,0,0,2.656-.24c.432.176.736.016.736-.288,0-.216-.128-.224-.088-.648A11.574,11.574,0,0,1,3.72-2.7l-.184-.08a12.364,12.364,0,0,1-.8,1.44.209.209,0,0,1-.3.064,1.521,1.521,0,0,1-.7-1.432A9.5,9.5,0,0,1,2.1-4.488c0-.352-.456-.76-.808-.92A2.007,2.007,0,0,0,.64-5.52l-.056.1a1.209,1.209,0,0,1,.624,1.088C1.208-3.856,1.144-3.216,1.176-2.608ZM6.2-3.4a6.306,6.306,0,0,1,.368,1.52.352.352,0,0,0,.344.3c.312,0,.456-.216.456-.64a2.589,2.589,0,0,0-.7-1.768A2.533,2.533,0,0,0,5-4.768l-.056.16A2.3,2.3,0,0,1,6.2-3.4Zm5.416-2.072v.864h-1.08v-.864Zm1.848,0v.864h-1.1v-.864Zm-5.056,0H9.8v1.536h.128c.288,0,.608-.112.608-.176v-.264h2.928v.384H13.6c.288,0,.616-.128.616-.192V-5.472h1.3c.112,0,.192-.04.216-.128-.28-.272-.736-.656-.736-.656l-.408.552h-.376v-.64c.2-.032.272-.112.288-.216l-1.04-.1v.96h-1.1V-6.44c.208-.024.28-.1.3-.216l-1.048-.1V-5.7h-1.08v-.64c.208-.032.28-.112.3-.224L9.8-6.664v.96H8.336Zm5.176,3.024H12.336v-.576c.192-.032.248-.1.264-.208l-1.008-.1v.88H10.44l-.8-.336V.28h.1c.3,0,.632-.168.632-.24V-2.216h1.216V.672h.144c.272,0,.6-.144.6-.216V-2.216h1.336V-.624c0,.088-.032.144-.152.144-.16,0-.792-.048-.792-.048v.112a.958.958,0,0,1,.576.224.744.744,0,0,1,.144.464c.872-.072.984-.344.984-.824v-1.5a.633.633,0,0,0,.376-.184l-.848-.64Zm1.464-1.7-.44.424H9.376a3.187,3.187,0,0,0-.152-.552h-.1a1.246,1.246,0,0,1-.5,1.1c-.608.344-.208,1.016.336.736A.976.976,0,0,0,9.408-3.5H14.64c-.08.272-.184.608-.256.816l.08.056a7.484,7.484,0,0,0,1.024-.712.442.442,0,0,0,.3-.088ZM17.9-4.736h.856V0H17.9Zm2.416,0V0h-.864V-4.736Zm1.552,0V0h-.84V-4.736ZM22.688,0h-.056V-4.64A.545.545,0,0,0,23-4.8l-.856-.616-.352.448H19.224A12.6,12.6,0,0,0,20.3-6.192c.184,0,.272-.064.312-.152l-1.192-.312c-.112.48-.312,1.184-.488,1.688h-.936l-.816-.32V0h-.912l.064.232H23.6c.112,0,.192-.04.216-.128-.256-.3-.712-.76-.712-.76ZM-22.68,7.7h1.568V8.56H-22.68Zm1.568-1.08v.848H-22.68V6.624Zm.024,3.112h-.456V8.792h.432v.192H-21a1.022,1.022,0,0,0,.592-.192V6.736a.66.66,0,0,0,.32-.152l-.752-.568-.344.376h-.352V5.576h1.376c.12,0,.192-.04.216-.128-.28-.28-.768-.664-.768-.664l-.424.56h-.4V4.56c.2-.032.264-.1.272-.216l-1.016-.088V5.344h-1.432l.064.232h1.368v.816h-.36l-.744-.312V9.12h.1c.3,0,.6-.16.6-.224v-.1h.4v.944h-1.456l.064.232h1.392v1.72h.12a.879.879,0,0,0,.616-.168V9.968h1.408c.112,0,.184-.04.208-.128-.28-.272-.752-.648-.752-.648Zm3.608-1.008h-.512V7.368h.9c.112,0,.192-.04.216-.128-.272-.256-.712-.624-.712-.624l-.384.52h-1.824l.064.232h.992v1.36h-1.392l.064.232h1.328v2.712h.128c.384,0,.616-.144.616-.184V8.96h1.48c.12,0,.2-.04.216-.128-.28-.288-.76-.7-.76-.7Zm-1.272-4.456a6.656,6.656,0,0,1-1.624,2.936l.064.1A5.664,5.664,0,0,0-18.1,4.72a4.742,4.742,0,0,0,1.456,2.472.736.736,0,0,1,.5-.608l.008-.1A4.246,4.246,0,0,1-18,4.632c.184-.016.264-.056.272-.144Zm4.272-.032a11.862,11.862,0,0,1-.448,1.44,2.7,2.7,0,0,0-.6-.224l-.08.056a2.759,2.759,0,0,1,.7,1.208c.5.36.952-.4.144-.936a6.3,6.3,0,0,0,.96-1.04c.176,0,.272-.056.3-.152Zm.88,4.416a3.894,3.894,0,0,1,.36,1.584c.536.544,1.2-.648-.256-1.624Zm-.056-1.736a3.851,3.851,0,0,1,.328.656c-.416.024-.816.056-1.168.08A11.047,11.047,0,0,0-12.952,5.68c.176.016.28-.04.32-.128l-.952-.368a13.8,13.8,0,0,1-1.232,2.488c-.376.024-.68.04-.88.04l.232.752a.3.3,0,0,0,.208-.168c.3-.072.568-.144.816-.208V8.9l-.792-.184a8.5,8.5,0,0,1-.512,2.312l.128.072a5.164,5.164,0,0,0,1-2,.381.381,0,0,0,.176-.04V11.68h.12c.352,0,.576-.152.576-.2V7.9l.48-.144a2.316,2.316,0,0,1,.12.576c.568.528,1.192-.664-.424-1.456Zm3.448,3.888V8.048h.88v2.76Zm-1.52-2.76h.84v2.76h-.84Zm.84-2.808V7.816h-.84V5.24Zm1.56,0V7.816h-.88V5.24Zm.336-.672-.384.44h-2.256l-.8-.312v6.928h.12c.352,0,.584-.152.584-.208V11.04h2.4v.512h.112a.764.764,0,0,0,.616-.224V5.32a.536.536,0,0,0,.352-.16Zm2.4,3.9c.04-.528.04-1.032.04-1.488V6.808h.784V8.472Zm.824-3.5V6.576h-.784V4.968Zm.264-.616-.336.392h-.592l-.816-.32V6.992a13.518,13.518,0,0,1-.536,4.632l.12.064A5.453,5.453,0,0,0-6.616,8.7h.848V10.68c0,.112-.032.16-.16.16s-.752-.048-.752-.048v.12a.844.844,0,0,1,.552.248,1,1,0,0,1,.144.512c.824-.08.92-.384.92-.912V5.072a.539.539,0,0,0,.3-.152ZM-.568,9.7H-.656a5.167,5.167,0,0,1-.312.944c-.056.08-.1.1-.24.112s-.512.016-.968.016h-1.1c-.376,0-.432-.04-.432-.184V8.344h1v.424h.112a.854.854,0,0,0,.552-.216V6.88a.419.419,0,0,0,.232-.12l-.648-.488-.3.32h-1.5a5.72,5.72,0,0,0,.632-.928H-1.24c-.04,2.208-.112,3.128-.3,3.328a.251.251,0,0,1-.224.08c-.136,0-.432-.016-.632-.032v.12a.865.865,0,0,1,.464.216.778.778,0,0,1,.1.5,1.091,1.091,0,0,0,.808-.312c.336-.328.432-1.208.464-3.792a.5.5,0,0,0,.32-.136l-.7-.6-.384.4H-3.512a7.284,7.284,0,0,0,.32-.72.281.281,0,0,0,.3-.16l-1.008-.3a8.47,8.47,0,0,1-1.12,2.9l.112.072a3.906,3.906,0,0,0,.608-.6l.064.2H-2.7v1.3h-.9l-.8-.32v2.952c0,.568.2.7,1.04.7h1.136c1.64,0,1.984-.144,1.984-.472,0-.144-.064-.224-.3-.3Zm3.344-4.12H7.5c.112,0,.2-.04.216-.128-.312-.3-.832-.7-.832-.7l-.464.6H5.5V4.608c.208-.024.28-.1.3-.216L4.744,4.3V5.344H2.712Zm.776.176a3.421,3.421,0,0,1,.44,1.52c.616.608,1.352-.736-.344-1.56Zm-1.608.96h.992c.112,0,.192-.04.208-.128-.232-.28-.656-.7-.656-.7l-.376.592H1.944V4.744c.216-.032.28-.112.3-.224l-1.032-.1V6.48H.28l.064.232h.864v2.64c-.456.1-.824.184-1.048.224l.4.936a.3.3,0,0,0,.192-.2c1.08-.568,1.864-1.024,2.384-1.336L3.1,8.88c-.392.1-.792.2-1.16.3Zm2.088,4.024V8.9h2.3v1.84ZM6.256,8.664H4.08L3.3,8.336V11.68h.112c.312,0,.624-.168.624-.24v-.472h2.3V11.6h.128a1.054,1.054,0,0,0,.64-.216V9.032a.542.542,0,0,0,.328-.168l-.792-.616Zm.28-1.112H5.648A8.677,8.677,0,0,0,6.7,6.1c.176,0,.264-.064.3-.16L5.928,5.632a11.794,11.794,0,0,1-.472,1.92H2.5l.064.232H7.608c.112,0,.192-.04.216-.128-.3-.3-.824-.72-.824-.72Zm4.176,2.024V9.032h2.576v.544Zm0,.232h1.16a3.152,3.152,0,0,0,.56.72c-.6.064-1.192.12-1.72.168ZM13.2,7.216a3.368,3.368,0,0,0,.312.512l-.288.3h-.88V7.656c.16-.032.216-.1.224-.184l-.928-.088v.64h-.824l-.24-.1a4.177,4.177,0,0,0,.592-.712ZM10.712,8.248h2.576V8.8H10.712Zm2.7,1.8a1.214,1.214,0,0,0,.624-.184V8.32h.016a5.247,5.247,0,0,0,1.216.8.787.787,0,0,1,.544-.656l.016-.088a5.152,5.152,0,0,1-2.4-1.16h2.008c.112,0,.2-.04.216-.128-.3-.256-.8-.624-.8-.624l-.44.528H12.344V6.368H14.88c.1,0,.192-.04.208-.128-.288-.248-.76-.576-.76-.576l-.4.472H12.344V5.552h2.928c.12,0,.192-.04.208-.128-.3-.264-.784-.624-.784-.624l-.432.52H12.752a6.333,6.333,0,0,0,.872-.648c.176.016.272-.04.312-.136l-1.024-.312a10.9,10.9,0,0,1-.416,1.1H11.232c.312-.232.224-.952-1.088-1.064l-.072.056a2.588,2.588,0,0,1,.68,1.008H8.6l.072.232h2.936v.584H8.984l.064.232h2.56v.624H8.4l.064.224H10.24A5.946,5.946,0,0,1,8.192,9.2l.072.112a7.34,7.34,0,0,0,1.712-.88V10.76c-.456.04-.832.064-1.08.08l.424.856a.3.3,0,0,0,.208-.168c1.336-.376,2.272-.656,2.928-.88l-.008-.1a5.083,5.083,0,0,0,2.7,1.112.785.785,0,0,1,.512-.648V10.92a9.14,9.14,0,0,1-2.024-.288c.424-.168.864-.368,1.168-.52.176.048.24.016.3-.056l-.744-.52a9.055,9.055,0,0,1-1.04,1,2.989,2.989,0,0,1-1.232-.728h1.2v.24Zm4.9-4.512H23.52c.112,0,.192-.04.216-.128-.3-.3-.816-.688-.816-.688l-.456.584H21.152v-.72c.192-.032.248-.1.264-.208l-.992-.088V5.3H18.24ZM16.72,4.48a2.709,2.709,0,0,1,.768,1.056c.712.432,1.232-.928-.7-1.12Zm-.488,1.8a2.108,2.108,0,0,1,.648,1.032c.688.472,1.264-.872-.576-1.1Zm2.112-.312c-1.256,2.96-1.256,2.96-1.408,3.24-.088.152-.12.152-.224.152h-.344v.168a.734.734,0,0,1,.392.12c.176.12.216.816.088,1.64.04.272.184.408.344.408a.56.56,0,0,0,.56-.608A8.067,8.067,0,0,0,17.5,9.68a3.486,3.486,0,0,1,.1-.7c.1-.376.6-2.064.88-2.976Zm1.088,1.3a8.1,8.1,0,0,0,.632-1.216c.208.008.28-.04.312-.128l-.984-.344A9.443,9.443,0,0,1,17.7,9.064l.08.1A6.543,6.543,0,0,0,18.84,8.112V11.68h.12a.826.826,0,0,0,.544-.192V7.536a.326.326,0,0,0,.256-.144Zm1.672.112c.072-.12.136-.24.2-.36h1.272a7.169,7.169,0,0,1-.92,2.584,4.395,4.395,0,0,1-.84-1.76c.1-.144.184-.288.264-.424a2.129,2.129,0,0,1,.48,1.024c.544.448,1.128-.632-.408-1.1Zm1.84-1.008-.416.416h-1.1c.128-.264.248-.52.336-.76.208,0,.272-.048.3-.144l-.992-.3A10.036,10.036,0,0,1,19.7,8.952l.1.088A6.341,6.341,0,0,0,20.7,8a6.946,6.946,0,0,0,.64,2.04,5.377,5.377,0,0,1-1.824,1.52l.072.112a5.955,5.955,0,0,0,2.024-1.2,3.47,3.47,0,0,0,1.632,1.208.827.827,0,0,1,.592-.728l.016-.08a4.252,4.252,0,0,1-1.8-.864,6.7,6.7,0,0,0,1.3-2.88c.176-.016.248-.04.312-.112Z" transform="translate(48.851 23.826)" fill="#3c505a"/>
    <g id="Group_1" data-name="Group 1" transform="translate(19.044 41.194)">
      <path id="Path_196" data-name="Path 196" d="M3.8-19.2l-.4,5.019q-.014.218-.082.709-.055.464-.082.75a5.562,5.562,0,0,1,4.4-1.732,5.26,5.26,0,0,1,4.31,1.882,6.4,6.4,0,0,1,1.336,4.187,6.763,6.763,0,0,1-1.855,5.005A6.111,6.111,0,0,1,6.892-1.664,7.93,7.93,0,0,1,2.95-2.618q-1.9-1.091-1.9-2.373a.957.957,0,0,1,.586-.832,2.826,2.826,0,0,1,1.418-.314A1.462,1.462,0,0,1,4.314-5.3a9.858,9.858,0,0,1,.559,1.241A2.13,2.13,0,0,0,6.892-2.523,2.6,2.6,0,0,0,9.333-4.4,10.406,10.406,0,0,0,9.96-8.36a6.1,6.1,0,0,0-1.118-3.873,2.7,2.7,0,0,0-2.168-1.159A3.869,3.869,0,0,0,3.155-11.36Q3-11.1,2.814-11.1a1.353,1.353,0,0,1-.423-.109q-.355-.164-.355-.382a1.149,1.149,0,0,1,.027-.191q.136-.559.164-.777L2.9-21.466a.618.618,0,0,1,.164-.368.569.569,0,0,1,.4-.164q1.118.027,4.378.027,2.277,0,4.746-.109.259,0,.259.177,0,.027,0,.041l-.914,2.523a.289.289,0,0,1-.286.191Q9.4-19.2,8.815-19.2Zm18.165-3.328a5.21,5.21,0,0,1,4.773,3.178,15.607,15.607,0,0,1,1.432,7.214q0,5.182-1.868,7.992a4.985,4.985,0,0,1-4.337,2.482,5.2,5.2,0,0,1-4.828-3.1,15.477,15.477,0,0,1-1.418-7.214q0-5.264,1.855-8.087A5.035,5.035,0,0,1,21.961-22.529Zm0,.859q-1.787,0-2.468,2.959a32.328,32.328,0,0,0-.5,6.655,27.215,27.215,0,0,0,.682,7.269q.709,2.264,2.291,2.264,1.746,0,2.428-2.932a31.966,31.966,0,0,0,.5-6.6,28.139,28.139,0,0,0-.668-7.323Q23.53-21.67,21.961-21.67Zm11.6,5.433a3.274,3.274,0,0,1,2.654,1.26,4.432,4.432,0,0,1,.945,2.9,4.492,4.492,0,0,1-1.184,3.294,3.267,3.267,0,0,1-2.415.993,3.167,3.167,0,0,1-2.6-1.241,4.451,4.451,0,0,1-.916-2.9,4.57,4.57,0,0,1,1.165-3.274A3.114,3.114,0,0,1,33.564-16.237Zm.01.544q-.831,0-1.251,1.088a7.356,7.356,0,0,0-.372,2.616,6.514,6.514,0,0,0,.487,2.845,1.269,1.269,0,0,0,1.136.831q.84,0,1.279-1.079a7.008,7.008,0,0,0,.391-2.6,6.417,6.417,0,0,0-.506-2.873A1.3,1.3,0,0,0,33.574-15.693ZM33.841-.867l-.64-.391L42.8-16.905l.649.391Zm9.117-9.212a3.2,3.2,0,0,1,2.606,1.251,4.453,4.453,0,0,1,.926,2.893,4.584,4.584,0,0,1-1.155,3.313,3.183,3.183,0,0,1-2.377.993,3.257,3.257,0,0,1-2.644-1.251,4.429,4.429,0,0,1-.936-2.912,4.506,4.506,0,0,1,1.184-3.274A3.235,3.235,0,0,1,42.958-10.079Zm0,.525q-.85,0-1.279,1.088A7.234,7.234,0,0,0,41.3-5.85a6.4,6.4,0,0,0,.5,2.845,1.3,1.3,0,0,0,1.165.831q.831,0,1.26-1.079a7.336,7.336,0,0,0,.372-2.6A6.571,6.571,0,0,0,44.1-8.714,1.289,1.289,0,0,0,42.958-9.554Z" transform="translate(1 29)" fill="#3c505a"/>
      <path id="Path_195" data-name="Path 195" d="M3.738,7.242H3.146V5.466h.592ZM5.169,7.6V9.882a.738.738,0,0,1-.148.025H4.552c-.086,0-.1-.037-.1-.16V7.6ZM1.814,14.125v-1.7H5.169v1.7ZM2.467,7.6v.493a5.01,5.01,0,0,1-.654,2.874V7.6Zm2.2,3.047c.21,0,.37-.012.506-.025v1.443H1.814v-.974l.111.123A3.766,3.766,0,0,0,3.146,8.106V7.6h.592v2.418c0,.444.086.629.6.629Zm.308-5.538H.482l.1.358H2.307V7.242H1.875L.827,6.761V15.6H.975c.444,0,.839-.234.839-.358v-.765H5.169v.925h.16a1.359,1.359,0,0,0,.863-.333V7.76a.874.874,0,0,0,.481-.234l-1.1-.863-.53.58H4.589V5.466H6.464c.185,0,.3-.062.333-.2-.444-.407-1.172-.987-1.172-.987ZM11.632,12.2h-.148a13.376,13.376,0,0,1-.456,1.788.272.272,0,0,1-.271.173c-.16.012-.543.025-1.011.025H8.672c-.432,0-.506-.074-.506-.3V8.809h1.961V9.943H10.3a1.576,1.576,0,0,0,.913-.3V5.7a1.1,1.1,0,0,0,.58-.284l-1.233-.95-.58.629H6.994l.111.358h3.022v3.01h-1.8L7.093,7.958v6.216c0,.839.259,1.073,1.332,1.073H9.683c1.9,0,2.405-.234,2.405-.715,0-.21-.086-.345-.419-.469ZM3.8,28.406v-2.9H8.672v2.9ZM8.548,25.15H3.874l-1.3-.543v5.131h.173c.506,0,1.048-.271,1.048-.382v-.592H8.672v.863h.21a1.9,1.9,0,0,0,1.024-.308V25.73a1.051,1.051,0,0,0,.53-.271l-1.283-.987ZM7.179,22.917H3.331l.1.358H8.857c.173,0,.3-.062.333-.2C8.7,22.621,7.895,22,7.895,22Zm-1.7-4.687C4.9,20.006,2.542,22.51.42,23.744l.086.173a14.21,14.21,0,0,0,6.056-4.823,9.239,9.239,0,0,0,4.5,4.342,1.382,1.382,0,0,1,.962-1.036l.012-.185c-2.023-.678-4.157-1.739-5.267-3.269.358-.025.518-.1.567-.247Z" transform="translate(50.001 -0.001)" fill="#3c505a"/>
    </g>
    <path id="Path_197" data-name="Path 197" d="M-2.22-4.72a.6.6,0,0,0,.6-.6.6.6,0,0,0-.6-.6.6.6,0,0,0-.6.6A.6.6,0,0,0-2.22-4.72Zm0,1.448-2.64-2.64-.232.232,2.64,2.64L-5.1-.392l.232.232L-2.22-2.808.42-.168.652-.4l-2.64-2.64L.652-5.68.42-5.912ZM-3.9-3.04a.6.6,0,0,0-.6-.6.6.6,0,0,0-.6.6.6.6,0,0,0,.6.6A.6.6,0,0,0-3.9-3.04Zm3.36,0a.6.6,0,0,0,.6.6.6.6,0,0,0,.6-.6.6.6,0,0,0-.6-.6A.6.6,0,0,0-.54-3.04ZM-2.22-1.36a.6.6,0,0,0-.6.6.6.6,0,0,0,.6.6.6.6,0,0,0,.6-.6A.6.6,0,0,0-2.22-1.36ZM2.484,0H5.7V-.608H4.524V-5.872h-.56a3.533,3.533,0,0,1-1.216.424v.464h1.04V-.608h-1.3Z" transform="translate(67.413 14.632)" fill="#3c505a" stroke="rgba(0,0,0,0)" stroke-width="1"/>
  </g>
</svg>
