<svg xmlns="http://www.w3.org/2000/svg" width="300" height="538" viewBox="0 0 300 538">
  <g id="Group_205" data-name="Group 205" transform="translate(-353 -13847.84)">
    <g id="Group_197" data-name="Group 197" transform="translate(807.5 19364.68)">
      <circle id="Ellipse_89" data-name="Ellipse 89" cx="60" cy="60" r="60" transform="translate(-364.5 -5516.84)" fill="#fff"/>
      <path id="Path_247" data-name="Path 247" d="M-16.832,0h1.76V-5.552c0-1.28-.144-2.64-.24-3.856h.08L-14-6.944-10.1,0h1.9V-11.792h-1.76v5.5c0,1.28.144,2.7.24,3.92h-.08l-1.232-2.5-3.9-6.928h-1.9ZM-5.088,0h1.664V-5.824c0-1.056-.144-2.576-.224-3.648h.064l.928,2.72L-.592-1.136H.56L2.608-6.752l.944-2.72h.064c-.1,1.072-.24,2.592-.24,3.648V0H5.1V-11.792H2.96L.832-5.824C.56-5.04.336-4.24.064-3.456h-.08C-.288-4.24-.528-5.04-.8-5.824l-2.16-5.968H-5.088ZM8.192,0h1.76V-5.552c0-1.28-.144-2.64-.24-3.856h.08l1.232,2.464L14.928,0h1.9V-11.792h-1.76v5.5c0,1.28.144,2.7.24,3.92h-.08L14-4.864l-3.9-6.928h-1.9Z" transform="translate(-304.5 -5449.84)" fill="#3c505a"/>
    </g>
    <g id="Group_198" data-name="Group 198" transform="translate(609 19452.84)">
      <circle id="Ellipse_90" data-name="Ellipse 90" cx="60" cy="60" r="60" transform="translate(-166 -5455)" fill="#fff"/>
      <path id="Path_246" data-name="Path 246" d="M-14.888,0h1.76V-5.552c0-1.28-.144-2.64-.24-3.856h.08l1.232,2.464L-8.152,0h1.9V-11.792h-1.76v5.5c0,1.28.144,2.7.24,3.92h-.08l-1.232-2.5-3.9-6.928h-1.9Zm14-6.4C-.5-7.68-.136-8.976.2-10.32H.28c.352,1.328.7,2.64,1.1,3.92l.464,1.584H-1.368ZM-4.7,0h1.888L-1.8-3.36H2.3L3.288,0H5.256l-3.9-11.792H-.792Zm11.5,0H9.96c3.52,0,5.584-2.112,5.584-5.936,0-3.84-2.064-5.856-5.68-5.856H6.808ZM8.664-1.52v-8.752H9.736c2.528,0,3.888,1.392,3.888,4.336,0,2.928-1.36,4.416-3.888,4.416Z" transform="translate(-106 -5388)" fill="#3c505a"/>
      <path id="Path_245" data-name="Path 245" d="M-.365-1.16h.73V-3.35H2.4v-.68H.365V-6.22h-.73v2.19h-2.03v.68h2.03Z" transform="translate(-87 -5398)" fill="#3c505a"/>
    </g>
    <g id="Group_199" data-name="Group 199" transform="translate(418.5 19624.68)">
      <circle id="Ellipse_91" data-name="Ellipse 91" cx="60" cy="60" r="60" transform="translate(24.5 -5476.84)" fill="#fff"/>
      <path id="Path_244" data-name="Path 244" d="M-36.288-7.232v-.544h1.52c.768,0,1.328.016,1.584.048v-1.7a10.632,10.632,0,0,1-1.6.1h-1.5v-1.856a10.433,10.433,0,0,1,.1-1.392H-38a11.047,11.047,0,0,1,.08,1.392v1.856h-4.224v-1.84a8.623,8.623,0,0,1,.1-1.28h-1.808a8.78,8.78,0,0,1,.1,1.28v1.84h-1.568a9.947,9.947,0,0,1-1.664-.128v1.744c.256-.032.912-.064,1.664-.064h1.568v2.4c0,.672-.064,1.328-.08,1.552h1.776a14.226,14.226,0,0,1-.08-1.552v-2.4h4.224v.64c0,4.24-1.408,5.616-4.4,6.72l1.36,1.28C-37.216-.816-36.288-3.1-36.288-7.232Zm5.84.1v1.984c.544-.048,1.5-.08,2.384-.08h8.7c.7,0,1.44.064,1.792.08V-7.136c-.4.032-1.024.1-1.792.1h-8.7C-28.928-7.04-29.92-7.1-30.448-7.136ZM-13.44-11.28l.4,1.472c1.168-.016,2.912-.064,4.5-.208v2.624h-4.672a12.776,12.776,0,0,1-1.44-.08v1.648c.4-.032.96-.048,1.456-.048h4.608A6.363,6.363,0,0,1-12.624-.32L-11.04.768a7.787,7.787,0,0,0,4.112-6.64h4.32c.416,0,.928.016,1.312.048V-7.456c-.352.032-1.008.064-1.344.064H-6.9v-2.832a29.217,29.217,0,0,0,2.96-.592c.256-.064.608-.144,1.04-.256l-1.04-1.408a18.173,18.173,0,0,1-4.08.944A35.2,35.2,0,0,1-13.44-11.28ZM11.936-7.616,10.72-8.208a3.242,3.242,0,0,1-.96.128H5.216a13.843,13.843,0,0,1-1.408-.08V-6.5c.432-.016.944-.048,1.424-.048H9.984c-.048.9-.464,3.648-.688,5.008H3.76a13,13,0,0,1-1.44-.08V.032C2.864.016,3.232,0,3.76,0h8.624c.384,0,1.056.016,1.36.032V-1.6c-.368.032-1.024.064-1.392.064H11.008c.224-1.488.672-4.48.8-5.5C11.84-7.2,11.888-7.44,11.936-7.616Zm5.28,1.648L18-4.384a32.735,32.735,0,0,0,5.9-2.48V-1.3a18.541,18.541,0,0,1-.1,1.888h1.984A12.032,12.032,0,0,1,25.68-1.3v-6.64a26.991,26.991,0,0,0,4.3-3.5L28.64-12.72a19.75,19.75,0,0,1-4.448,3.808A26.421,26.421,0,0,1,17.216-5.968ZM35.728-11.92,34.56-10.672a34.7,34.7,0,0,1,4,3.392l1.264-1.3A33.575,33.575,0,0,0,35.728-11.92ZM34.08-1.216,35.152.432A17.641,17.641,0,0,0,41.28-1.952,16.359,16.359,0,0,0,46.9-7.744L45.92-9.488a15.234,15.234,0,0,1-5.552,6.032A16.625,16.625,0,0,1,34.08-1.216Zm-51.04,14.3v-.832h1.968v.832Zm5.408-.832v.832h-2.016v-.832Zm-3.44,2.3H-19.5v.976H-8.848V14.56h-4.72v-.64h3.456V11.408h-3.456v-.816h-1.424v.816H-18.32V13.92h3.328Zm-4.464-1.024a11.894,11.894,0,0,0-2.528-2.56l-1.136.832a11.424,11.424,0,0,1,2.464,2.672Zm2.7,6.256h5.072v.7h-5.072Zm0-1.44h5.072v.688h-5.072Zm0-1.408h5.072V17.6h-5.072Zm.928,4.32h2.96l-.736.48a23.1,23.1,0,0,1,3.072,1.616l1.344-.64a29.371,29.371,0,0,0-3.056-1.456h2.016v-5.1h-7.9v5.1h1.984A10.1,10.1,0,0,1-18.9,22.672a7.247,7.247,0,0,1,.9.672,3.307,3.307,0,0,1-1.888-1.424V16.784h-3.344V18.16h1.92v3.92a21.835,21.835,0,0,1-2.064,1.632l.736,1.408c.784-.688,1.488-1.344,2.16-2,.944,1.232,2.32,1.776,4.32,1.856,1.84.064,5.248.032,7.088-.048a7.266,7.266,0,0,1,.464-1.408c-2.032.144-5.744.192-7.552.112a7.144,7.144,0,0,1-1.5-.192,11.708,11.708,0,0,0,2.88-1.808ZM6.56,11.728h-8.3v1.456h8.3Zm-10.24-1.12a17.215,17.215,0,0,1-3.968,6.128,14.118,14.118,0,0,1,.816,1.5,18.716,18.716,0,0,0,1.568-1.856v8.832h1.408V14.24a25.517,25.517,0,0,0,1.568-3.184ZM7.568,24.624a19.633,19.633,0,0,0-2.752-5.056l-1.312.56c.512.752,1.04,1.616,1.5,2.448-1.664.128-3.36.256-4.864.368.608-1.472,1.28-3.376,1.792-5.04H7.408v-1.44H-2.912V17.9H.24a41.376,41.376,0,0,1-1.632,5.152c-.608.032-1.168.064-1.664.1l.272,1.5c2.24-.176,5.408-.448,8.432-.736a8.825,8.825,0,0,1,.5,1.344Zm15.68-7.04H16.8V16.256a24,24,0,0,0,5.152-3.872l-1.12-.848-.336.1H10.432v1.456h8.5a18.717,18.717,0,0,1-2.816,1.952h-.864v2.544H8.784v1.488h6.464v4.352c0,.272-.1.352-.432.368-.368,0-1.568.016-2.768-.032a6.272,6.272,0,0,1,.64,1.536A11.023,11.023,0,0,0,15.9,25.04c.672-.256.9-.688.9-1.6V19.072h6.448Z" transform="translate(84.5 -5421.84)" fill="#3c505a"/>
    </g>
    <path id="Path_243" data-name="Path 243" d="M-14.44-16.68A22.457,22.457,0,0,1-19.48-8.8a12.145,12.145,0,0,1,.84,1.44A21.612,21.612,0,0,0-16.5-9.92V1.48h1.42V-12.1a29.71,29.71,0,0,0,2.04-4.16Zm3.46,2.22h7.42v3.66h-7.42Zm10,8.82V-7h-5.6V-9.48h4.5V-15.8h-10.3v6.32h4.32V-7h-5.8v1.36h4.94A14.814,14.814,0,0,1-14.44-.52,7.325,7.325,0,0,1-13.4.66,16.715,16.715,0,0,0-8.06-4.66v6.2h1.48V-4.72A18.42,18.42,0,0,0-1.52.7,6.739,6.739,0,0,1-.46-.48,15.583,15.583,0,0,1-5.72-5.64ZM6.7-16.04H1.78v1.2H6.7Zm.56,2.62H.84v1.22H7.26ZM5.5-4.18V-.84H2.84V-4.18ZM6.74-5.4H1.64V1.3h1.2V.36h3.9ZM1.66-6.88H6.74v-1.2H1.66Zm0-2.66H6.74v-1.18H1.66Zm13.1-4.82v1.08l-1.22-.28A12.35,12.35,0,0,1,12.86-12H10.22q.36-.63.66-1.26h.88v-1.1Zm-1.8,4.34h-2.7v-.94h2.7Zm0,1.84h-2.7v-.96h2.7Zm0,1.88h-2.7v-1h2.7ZM8.92-5.28h9.96V-6.3h-4.6v-1h3.66v-.88H14.28v-.96h3.66v-.88H14.28v-.94h4.14V-12h-4.2c.22-.38.44-.82.66-1.26h1.24v-1.1h2.8v-1.12h-2.8v-1.26H14.76v1.26h-3v-1.26H10.44v1.26H7.54v1.12h2.9v.92l-.76-.18A10.934,10.934,0,0,1,6.8-9.68a8.257,8.257,0,0,1,1,.78,10.847,10.847,0,0,0,1.12-1.2Zm7.16,2a8.4,8.4,0,0,1-2.66,1.94,8.017,8.017,0,0,1-2.64-1.94Zm1.2-1.2-.26.06H7.86v1.14h2.4l-.8.34A9.434,9.434,0,0,0,11.98-.72,22.926,22.926,0,0,1,6.9.4a4.726,4.726,0,0,1,.64,1.16A22.961,22.961,0,0,0,13.34,0,18.9,18.9,0,0,0,18.4,1.52,5.916,5.916,0,0,1,19.26.34,19.578,19.578,0,0,1,14.78-.74a8.689,8.689,0,0,0,3.36-3.28Z" transform="translate(610 14303.009)" fill="#3c505a"/>
    <path id="Path_242" data-name="Path 242" d="M-14.44-16.68A22.457,22.457,0,0,1-19.48-8.8a12.145,12.145,0,0,1,.84,1.44A21.612,21.612,0,0,0-16.5-9.92V1.48h1.42V-12.1a29.71,29.71,0,0,0,2.04-4.16Zm3.46,2.22h7.42v3.66h-7.42Zm10,8.82V-7h-5.6V-9.48h4.5V-15.8h-10.3v6.32h4.32V-7h-5.8v1.36h4.94A14.814,14.814,0,0,1-14.44-.52,7.325,7.325,0,0,1-13.4.66,16.715,16.715,0,0,0-8.06-4.66v6.2h1.48V-4.72A18.42,18.42,0,0,0-1.52.7,6.739,6.739,0,0,1-.46-.48,15.583,15.583,0,0,1-5.72-5.64ZM6.7-16.04H1.78v1.2H6.7Zm.56,2.62H.84v1.22H7.26ZM5.5-4.18V-.84H2.84V-4.18ZM6.74-5.4H1.64V1.3h1.2V.36h3.9ZM1.66-6.88H6.74v-1.2H1.66Zm0-2.66H6.74v-1.18H1.66Zm13.1-4.82v1.08l-1.22-.28A12.35,12.35,0,0,1,12.86-12H10.22q.36-.63.66-1.26h.88v-1.1Zm-1.8,4.34h-2.7v-.94h2.7Zm0,1.84h-2.7v-.96h2.7Zm0,1.88h-2.7v-1h2.7ZM8.92-5.28h9.96V-6.3h-4.6v-1h3.66v-.88H14.28v-.96h3.66v-.88H14.28v-.94h4.14V-12h-4.2c.22-.38.44-.82.66-1.26h1.24v-1.1h2.8v-1.12h-2.8v-1.26H14.76v1.26h-3v-1.26H10.44v1.26H7.54v1.12h2.9v.92l-.76-.18A10.934,10.934,0,0,1,6.8-9.68a8.257,8.257,0,0,1,1,.78,10.847,10.847,0,0,0,1.12-1.2Zm7.16,2a8.4,8.4,0,0,1-2.66,1.94,8.017,8.017,0,0,1-2.64-1.94Zm1.2-1.2-.26.06H7.86v1.14h2.4l-.8.34A9.434,9.434,0,0,0,11.98-.72,22.926,22.926,0,0,1,6.9.4a4.726,4.726,0,0,1,.64,1.16A22.961,22.961,0,0,0,13.34,0,18.9,18.9,0,0,0,18.4,1.52,5.916,5.916,0,0,1,19.26.34,19.578,19.578,0,0,1,14.78-.74a8.689,8.689,0,0,0,3.36-3.28Z" transform="translate(390 14303.009)" fill="#3c505a"/>
    <g id="Group_139" data-name="Group 139" transform="translate(108 19835.15)">
      <rect id="Rectangle_124" data-name="Rectangle 124" width="140" height="70" transform="translate(245 -5519.311)" fill="#fff"/>
      <path id="Path_241" data-name="Path 241" d="M-43.813,0h1.176V-5.684c0-.882-.1-2.128-.154-3.024h.056l.812,2.338,1.946,5.334h.868l1.946-5.334.812-2.338h.056c-.07.9-.168,2.142-.168,3.024V0h1.218V-10.276h-1.568l-1.96,5.5c-.238.714-.462,1.428-.7,2.142h-.07c-.252-.714-.49-1.428-.728-2.142l-1.974-5.5h-1.568Zm11.256,0h1.274V-7.6h-1.274Zm.644-9.17a.808.808,0,0,0,.854-.854.8.8,0,0,0-.854-.826.8.8,0,0,0-.854.826A.808.808,0,0,0-31.913-9.17Zm5.6,9.352a4.786,4.786,0,0,0,1.4-.28l-.252-.952a2.693,2.693,0,0,1-.868.2c-.882,0-1.176-.532-1.176-1.47V-6.566h2.058V-7.6h-2.058V-9.744h-1.064L-28.427-7.6l-1.19.07v.966h1.134v4.214C-28.483-.84-27.937.182-26.313.182Zm5.628,0c1.862,0,3.528-1.456,3.528-3.976s-1.666-4-3.528-4-3.528,1.47-3.528,4S-22.547.182-20.685.182Zm0-1.064c-1.316,0-2.2-1.162-2.2-2.912s.882-2.94,2.2-2.94,2.212,1.19,2.212,2.94S-19.369-.882-20.685-.882ZM-12.159.182A3.686,3.686,0,0,0-9.7-.784l-.56-.854a2.68,2.68,0,0,1-1.792.756c-1.4,0-2.352-1.162-2.352-2.912s1.008-2.94,2.394-2.94a2.248,2.248,0,0,1,1.512.672l.658-.84a3.25,3.25,0,0,0-2.226-.9,3.7,3.7,0,0,0-3.668,4C-15.729-1.274-14.175.182-12.159.182ZM-8.029,0h1.274V-5.516A2.891,2.891,0,0,1-4.669-6.678c1.008,0,1.442.6,1.442,2.03V0h1.274V-4.816c0-1.946-.728-2.982-2.324-2.982A3.569,3.569,0,0,0-6.8-6.524l.042-1.568v-3.052H-8.029ZM3.423.182c1.862,0,3.528-1.456,3.528-3.976s-1.666-4-3.528-4-3.528,1.47-3.528,4S1.561.182,3.423.182Zm0-1.064c-1.316,0-2.2-1.162-2.2-2.912s.882-2.94,2.2-2.94,2.212,1.19,2.212,2.94S4.739-.882,3.423-.882ZM8.953,0h1.274V-5.516a2.891,2.891,0,0,1,2.086-1.162c1.008,0,1.442.6,1.442,2.03V0h1.274V-4.816c0-1.946-.728-2.982-2.324-2.982A3.646,3.646,0,0,0,10.157-6.51h-.042L10-7.6H8.953ZM20.1.182A3.391,3.391,0,0,0,22.407-.9h.042l.112.9H23.6V-11.144h-1.26v2.926L22.393-6.9a3.093,3.093,0,0,0-2.142-.9c-1.736,0-3.29,1.54-3.29,4C16.961-1.26,18.193.182,20.1.182Zm.28-1.064c-1.344,0-2.1-1.092-2.1-2.926,0-1.736.966-2.912,2.2-2.912a2.724,2.724,0,0,1,1.862.8v3.99A2.661,2.661,0,0,1,20.377-.882ZM26.187,0h1.274V-4.886c.5-1.3,1.288-1.75,1.918-1.75a1.8,1.8,0,0,1,.742.126l.238-1.12a1.621,1.621,0,0,0-.812-.168,2.625,2.625,0,0,0-2.156,1.582h-.042L27.237-7.6h-1.05Zm5.432,0h1.274V-7.6H31.619Zm.644-9.17a.808.808,0,0,0,.854-.854.8.8,0,0,0-.854-.826.8.8,0,0,0-.854.826A.808.808,0,0,0,32.263-9.17ZM37.219.182A4.073,4.073,0,0,0,39.739-.91h.042l.112.91h1.05V-4.676c0-1.876-.784-3.122-2.632-3.122a5.718,5.718,0,0,0-3,.994l.5.882A4.188,4.188,0,0,1,38.1-6.734c1.246,0,1.568.938,1.568,1.918-3.234.364-4.676,1.19-4.676,2.842A2.061,2.061,0,0,0,37.219.182ZM37.583-.84c-.756,0-1.344-.35-1.344-1.218,0-.98.868-1.61,3.43-1.918v2.128A3.107,3.107,0,0,1,37.583-.84ZM-44.982,7.4l-.406,1.036A46.344,46.344,0,0,1-38.08,10.1l.448-1.078A47.906,47.906,0,0,0-44.982,7.4Zm-.63,3.7-.42,1.05A40.973,40.973,0,0,1-39,13.856l.448-1.078A49.86,49.86,0,0,0-45.612,11.1Zm-.77,4.074-.434,1.064a45.7,45.7,0,0,1,8.288,2.114l.476-1.078A49.276,49.276,0,0,0-46.382,15.172Zm16.1,1.6a12.336,12.336,0,0,1-.1,1.652h1.358c-.056-.462-.084-1.218-.084-1.652,0-.406,0-2.52-.014-4.62a36.7,36.7,0,0,1,5.5,2.254l.476-1.19A44.747,44.747,0,0,0-29.12,10.9V8.62c0-.42.056-1.022.1-1.456h-1.372a8.836,8.836,0,0,1,.112,1.456ZM-18.592,8.4V9.642c.322-.014,1.022-.042,1.54-.042h6.706v6.608H-17.22a14.783,14.783,0,0,1-1.554-.084V17.4c.378-.028,1.008-.056,1.582-.056h6.846c-.014.336-.014.63-.028.784h1.26c-.014-.224-.056-.854-.056-1.358V9.544c0-.336.028-.77.042-1.092-.28.014-.7.028-1.036.028h-6.9A14.128,14.128,0,0,1-18.592,8.4Zm14.77-.658-.8.854a29.076,29.076,0,0,1,3.486,2.926l.882-.882A30.656,30.656,0,0,0-3.822,7.738Zm-1.2,9.38.742,1.148a15.346,15.346,0,0,0,5.5-2.17,13.988,13.988,0,0,0,4.7-4.984L5.25,9.922A13.188,13.188,0,0,1,.574,15.074,14.456,14.456,0,0,1-5.026,17.118Zm21.21-9.2-.77.35A13.894,13.894,0,0,1,16.66,10.4l.8-.364A21.1,21.1,0,0,0,16.184,7.92Zm1.694-.7-.77.364a13.62,13.62,0,0,1,1.3,2.1l.784-.392A18.907,18.907,0,0,0,17.878,7.22ZM11.27,16.95a15.33,15.33,0,0,1-.084,1.652H12.53c-.042-.448-.084-1.2-.084-1.652V12.344a35.878,35.878,0,0,1,5.488,2.24l.49-1.19a47.556,47.556,0,0,0-5.978-2.31V8.8a12.931,12.931,0,0,1,.1-1.456H11.158A8.836,8.836,0,0,1,11.27,8.8ZM31.864,7.374H30.548a10.044,10.044,0,0,1,.07,1.218V10.8c0,2.646-.168,3.78-1.162,4.942a6.418,6.418,0,0,1-3.346,1.862l.91.966a7.478,7.478,0,0,0,3.332-2.044c1.008-1.2,1.47-2.31,1.47-5.67V8.592C31.822,8.116,31.836,7.724,31.864,7.374Zm-6.5.112H24.094c.028.266.056.756.056,1.008v4.662a9.176,9.176,0,0,1-.07,1.078h1.288c-.028-.252-.056-.714-.056-1.064V8.494C25.312,8.158,25.34,7.752,25.368,7.486Zm22.666,1.05-.686-.658a6.914,6.914,0,0,1-.98.084H38.332a11.88,11.88,0,0,1-1.6-.126V9.11a15.643,15.643,0,0,1,1.6-.084h7.98a9.51,9.51,0,0,1-3.066,3.136l.924.742A13.5,13.5,0,0,0,47.656,9.04C47.754,8.886,47.936,8.676,48.034,8.536Zm-5.586,1.848h-1.26a8.416,8.416,0,0,1,.056,1.008c0,2.338-.308,4.326-2.478,5.656a4.822,4.822,0,0,1-1.26.63l1.036.84C42.112,16.74,42.448,14.178,42.448,10.384Z" transform="translate(332.807 -5488.311)" fill="#3c505a"/>
      <g id="Layer_2" data-name="Layer 2" transform="translate(281 -5478.31)">
        <g id="Group_136" data-name="Group 136" transform="translate(-33 -31)">
          <rect id="Rectangle_123" data-name="Rectangle 123" width="23.269" height="45.687" rx="11.635" transform="matrix(0.926, -0.378, 0.378, 0.926, 0, 8.792)" fill="#ffbe00"/>
          <path id="Path_104" data-name="Path 104" d="M15.958,35.644a2.035,2.035,0,0,1-2.453-3.02l4.2-6.263-6.2.2A2.1,2.1,0,0,1,9.654,25.53a2.023,2.023,0,0,1,.081-2.108l4.2-6.263-6.2.2a2.1,2.1,0,0,1-1.845-1.034,2.068,2.068,0,0,1,.081-2.108l4.2-6.263-6.2.2A2.028,2.028,0,0,1,3.837,4.1L13.992,3.78a2.1,2.1,0,0,1,1.845,1.034,2.068,2.068,0,0,1-.081,2.108l-4.2,6.263,6.2-.2a2.1,2.1,0,0,1,1.845,1.034,2.023,2.023,0,0,1-.081,2.108l-4.2,6.263,6.2-.2a2.1,2.1,0,0,1,1.845,1.034,2.068,2.068,0,0,1-.081,2.108L16.89,34.874a1.93,1.93,0,0,1-.912.75Z" transform="translate(5.446 7.422)" fill="#fff"/>
        </g>
      </g>
    </g>
    <g id="Group_138" data-name="Group 138" transform="translate(268 19713.338)">
      <rect id="Rectangle_125" data-name="Rectangle 125" width="140" height="70" transform="translate(245 -5397.498)" fill="#fff"/>
      <g id="Layer_2-2" data-name="Layer 2" transform="translate(257 -5388.498)">
        <path id="Path_105" data-name="Path 105" d="M25.632,22.052c5.659-5.19,5.268-13.744,4.277-17C28.918,1.763,26.649-.715,23.833.2c-2.895.913-4.329,3.781-2.5,8.058,1.8,4.251,1.486,10.119-1.747,13.3-4.512-.287-8.632-4.486-10.04-8.867C8.081,8.282,5.108,7.083,2.318,8.308-.421,9.43-.5,12.82.883,15.923c1.434,3.1,6.78,9.806,14.422,9.988C9.88,31.649,10.819,41.69,12.045,45.6c1.252,3.912,3.729,6.963,6.546,6.076,2.921-.913,4.2-4.147,2.086-9.284-2.138-5.138-2.191-11.97.887-15.491,4.668.626,9.128,5.79,10.9,11.058s4.9,6.859,7.667,5.607c2.712-1.226,2.582-5.138.913-8.893C39.4,30.919,33.482,22.756,25.606,22ZM24.119,2.336c3.077-1.147,3.938,3.025,3.938,3.025L22.92,7.291s-1.9-3.808,1.2-4.955ZM7.638,13.029l-5.111,1.93s-2.138-3.7.965-4.877S7.638,13.029,7.638,13.029ZM18.173,49.122c-3.1,1.174-4.225-3.781-4.225-3.781l5.111-1.93S21.277,47.949,18.173,49.122ZM38.8,41.377c-3.1,1.174-4.459-3.7-4.459-3.7l5.138-1.93S41.879,40.2,38.8,41.377Z" transform="translate(-0.002 -0.007)" fill="#ffbe00"/>
      </g>
      <path id="Path_240" data-name="Path 240" d="M-24.594,0h1.116V-7.86h2.664v-.948h-6.444v.948h2.664Zm7,.156a3.878,3.878,0,0,0,2.16-.672l-.4-.72a2.809,2.809,0,0,1-1.632.516A2.159,2.159,0,0,1-19.626-3h4.392a4.263,4.263,0,0,0,.048-.624c0-1.86-.936-3.06-2.592-3.06a3.152,3.152,0,0,0-2.94,3.432A3.114,3.114,0,0,0-17.6.156Zm-2.04-3.948a2,2,0,0,1,1.872-2.016c1.02,0,1.62.708,1.62,2.016ZM-12.426.156a1.681,1.681,0,0,0,.636-.1l-.156-.84a.959.959,0,0,1-.228.024c-.168,0-.312-.132-.312-.468V-9.552h-1.092V-1.3C-13.578-.372-13.242.156-12.426.156Zm4.8,0A3.111,3.111,0,0,0-4.6-3.252,3.126,3.126,0,0,0-7.626-6.684,3.126,3.126,0,0,0-10.65-3.252,3.111,3.111,0,0,0-7.626.156Zm0-.912c-1.128,0-1.884-1-1.884-2.5s.756-2.52,1.884-2.52,1.9,1.02,1.9,2.52S-6.5-.756-7.626-.756ZM-2.886,0h1.092V-4.728a2.407,2.407,0,0,1,1.644-1c.828,0,1.212.516,1.212,1.74V0H2.154V-4.728a2.407,2.407,0,0,1,1.644-1c.828,0,1.212.516,1.212,1.74V0H6.1V-4.128c0-1.668-.636-2.556-1.98-2.556A3.08,3.08,0,0,0,1.974-5.436a1.718,1.718,0,0,0-1.8-1.248A2.863,2.863,0,0,0-1.854-5.568H-1.89l-.1-.948h-.9Zm13.74.156a3.878,3.878,0,0,0,2.16-.672l-.4-.72a2.809,2.809,0,0,1-1.632.516A2.159,2.159,0,0,1,8.826-3h4.392a4.263,4.263,0,0,0,.048-.624c0-1.86-.936-3.06-2.592-3.06a3.152,3.152,0,0,0-2.94,3.432A3.114,3.114,0,0,0,10.854.156ZM8.814-3.792a2,2,0,0,1,1.872-2.016c1.02,0,1.62.708,1.62,2.016ZM14.874,0h1.092V-4.188c.432-1.116,1.1-1.5,1.644-1.5a1.542,1.542,0,0,1,.636.108l.2-.96a1.389,1.389,0,0,0-.7-.144,2.25,2.25,0,0,0-1.848,1.356H15.87l-.1-1.188h-.9Zm7.152.156a3.878,3.878,0,0,0,2.16-.672l-.4-.72a2.809,2.809,0,0,1-1.632.516A2.159,2.159,0,0,1,20-3H24.39a4.263,4.263,0,0,0,.048-.624c0-1.86-.936-3.06-2.592-3.06a3.152,3.152,0,0,0-2.94,3.432A3.114,3.114,0,0,0,22.026.156Zm-2.04-3.948a2,2,0,0,1,1.872-2.016c1.02,0,1.62.708,1.62,2.016ZM-21.42,9.12v1c.3-.024.7-.036,1.092-.036h4.848c.348,0,.768.012,1.116.036v-1a8.854,8.854,0,0,1-1.116.072h-4.86A9.982,9.982,0,0,1-21.42,9.12Zm-1.44,3.012v1c.336-.024.684-.024,1.044-.024h3.6a5.809,5.809,0,0,1-.7,2.976,4.968,4.968,0,0,1-2.268,1.836l.888.66a5.856,5.856,0,0,0,2.364-2.2A7.264,7.264,0,0,0-17.22,13.1h3.264c.288,0,.672.012.936.024v-1a6.433,6.433,0,0,1-.936.06h-7.86A9.593,9.593,0,0,1-22.86,12.132ZM-10.248,9.78c.024.288.024.66.024.936v5.9c0,.42-.024,1.308-.036,1.464h1.032c-.012-.1-.012-.384-.024-.7H-2.7c0,.324-.012.612-.012.7H-1.68c-.012-.132-.024-1.068-.024-1.452V10.716c0-.3,0-.636.024-.936-.36.024-.792.024-1.056.024H-9.18C-9.456,9.8-9.78,9.792-10.248,9.78Zm1,.972h6.564v5.7H-9.252ZM9.72,9.264l-1.1-.384a6.884,6.884,0,0,1-.24.888,13.425,13.425,0,0,1-1.632,3.276c-.948-.732-2.34-1.716-3.372-2.376l-.624.756a37.542,37.542,0,0,1,3.384,2.424,13.323,13.323,0,0,1-4.764,3.768l.828.756A15.288,15.288,0,0,0,6.9,14.5a26.763,26.763,0,0,1,2.832,2.76l.756-.828A30.031,30.031,0,0,0,7.524,13.68a16.716,16.716,0,0,0,1.8-3.54A6.475,6.475,0,0,1,9.72,9.264Zm13.452.624-.588-.564a5.926,5.926,0,0,1-.84.072H14.856a10.183,10.183,0,0,1-1.368-.108V10.38a13.409,13.409,0,0,1,1.368-.072H21.7A8.152,8.152,0,0,1,19.068,13l.792.636a11.57,11.57,0,0,0,2.988-3.312C22.932,10.188,23.088,10.008,23.172,9.888Zm-4.788,1.584H17.3a7.214,7.214,0,0,1,.048.864c0,2-.264,3.708-2.124,4.848a4.133,4.133,0,0,1-1.08.54l.888.72C18.1,16.92,18.384,14.724,18.384,11.472Z" transform="translate(339.242 -5365.498)" fill="#3c505a"/>
    </g>
    <g id="Group_200" data-name="Group 200" transform="translate(-4887.401 14184.84) rotate(90)">
      <line id="Line_33" data-name="Line 33" x2="14" transform="translate(-209 -5390.34)" fill="none" stroke="#a9a9a9" stroke-width="1"/>
      <path id="Path_124" data-name="Path 124" d="M-205.059-5405.947l5.97,5.969-5.97,5.969" transform="translate(4.711 9.607)" fill="none" stroke="#a9a9a9" stroke-width="1"/>
    </g>
    <g id="Group_201" data-name="Group 201" transform="translate(-4887.402 14334.84) rotate(90)">
      <line id="Line_33-2" data-name="Line 33" x2="14" transform="translate(-209 -5390.34)" fill="none" stroke="#a9a9a9" stroke-width="1"/>
      <path id="Path_124-2" data-name="Path 124" d="M-205.059-5405.947l5.97,5.969-5.97,5.969" transform="translate(4.711 9.607)" fill="none" stroke="#a9a9a9" stroke-width="1"/>
    </g>
    <g id="Group_370" data-name="Group 370" transform="translate(10.609 -205)">
      <g id="Group_202" data-name="Group 202" transform="translate(-3999.752 17370.193) rotate(60)">
        <line id="Line_33-3" data-name="Line 33" x2="40.772" transform="translate(-235.772 -5390.34)" fill="none" stroke="#a9a9a9" stroke-width="1"/>
        <path id="Path_124-3" data-name="Path 124" d="M-205.059-5405.947l5.97,5.969-5.97,5.969" transform="translate(4.711 9.607)" fill="none" stroke="#a9a9a9" stroke-width="1"/>
      </g>
      <g id="Group_203" data-name="Group 203" transform="translate(438.427 14473.809) rotate(120)">
        <line id="Line_33-4" data-name="Line 33" x2="40.772" transform="translate(0 5.939)" fill="none" stroke="#a9a9a9" stroke-width="1"/>
        <path id="Path_124-4" data-name="Path 124" d="M0,11.938,5.97,5.97,0,0" transform="translate(35.424)" fill="none" stroke="#a9a9a9" stroke-width="1"/>
      </g>
    </g>
    <path id="Path_239" data-name="Path 239" d="M7.56-.378V-3.934h4.494V-4.942H7.56V-7.994h5.012V-9.016H7.56V-11.7H6.5v2.688H3.654a19.217,19.217,0,0,0,.784-2.24l-1.05-.224A12.763,12.763,0,0,1,.8-6.328a6.971,6.971,0,0,1,.952.616A12.561,12.561,0,0,0,3.206-7.994H6.5v3.052H2.338v1.008H6.5V-.378H.826V.63h12.4V-.378Zm15.82-10.64a14.332,14.332,0,0,1,2.478,1.68l.644-.714A13.354,13.354,0,0,0,24-11.648Zm1.988,3.78a13.864,13.864,0,0,1-1.792,3.78,25.252,25.252,0,0,1-.77-4.858h4.452V-9.338H22.736c-.042-.756-.056-1.54-.056-2.352H21.6c.014.8.028,1.582.084,2.352H15.848v3.906c0,1.806-.126,4.2-1.274,5.908a4.141,4.141,0,0,1,.868.7c1.26-1.82,1.47-4.634,1.47-6.594V-5.53H19.46c-.056,2.408-.126,3.29-.322,3.5-.084.126-.224.154-.42.154-.238,0-.84-.014-1.484-.07a2.164,2.164,0,0,1,.294.98,16.154,16.154,0,0,0,1.666,0,1.083,1.083,0,0,0,.84-.406c.294-.364.378-1.54.448-4.676V-6.5h-3.57v-1.82h4.83a27.528,27.528,0,0,0,1.022,5.894,11.172,11.172,0,0,1-3.22,2.59A5.86,5.86,0,0,1,20.3.994,12.517,12.517,0,0,0,23.184-1.33c.644,1.442,1.484,2.3,2.562,2.3S27.188.28,27.384-2.1a2.461,2.461,0,0,1-.9-.56C26.39-.8,26.222-.07,25.83-.07c-.714,0-1.358-.8-1.876-2.17a15.786,15.786,0,0,0,2.464-4.732Z" transform="translate(523 13988.84)" fill="#3c505a" stroke="rgba(0,0,0,0)" stroke-width="1"/>
    <path id="Path_238" data-name="Path 238" d="M4.508-10.094A25.584,25.584,0,0,0,1.89-11.536l-.574.742c.854.462,2.016,1.134,2.59,1.54Zm-.714,3.78C3.178-6.706,2.016-7.322,1.2-7.728L.63-6.972c.854.448,2,1.12,2.576,1.512ZM1.834.882A50.79,50.79,0,0,0,4.368-3.612L3.612-4.3A40.43,40.43,0,0,1,.966.182Zm9.6-1.372H6.468V-3.374h4.97Zm1.9-6.146V-7.644H9.506v-2.422a22.39,22.39,0,0,0,3.234-.784l-.812-.812a34.429,34.429,0,0,1-6.776,1.246,6.516,6.516,0,0,1,.294.882c.994-.1,2.044-.224,3.066-.378v2.268H4.48v1.008H8.512v2.3H5.5v5.4h.966V.476h4.97V.994h.994V-4.34H9.506v-2.3Zm1.9,1.428a15.613,15.613,0,0,0,.7-3.752l-.784-.112a14.146,14.146,0,0,1-.728,3.584Zm1.2,6.272h1.036V-11.718H16.45ZM17.584-9.142a13.935,13.935,0,0,1,.966,2.38l.784-.378a13.221,13.221,0,0,0-1.022-2.338ZM23.73-.406v-3.5h2.856v-.966H23.73v-2.9h3.164v-.994H23.73v-2.9H22.694v2.9h-1.75c.2-.686.364-1.414.5-2.142l-1.008-.168a13.63,13.63,0,0,1-1.694,5,8.167,8.167,0,0,1,.924.476,10.1,10.1,0,0,0,.98-2.17h2.044v2.9H19.726v.966h2.968v3.5h-4V.588h8.54V-.406Zm8.68-11.088a15.483,15.483,0,0,1-4.06,5.642,6.948,6.948,0,0,1,.63,1.05A16.7,16.7,0,0,0,30.8-6.776V1.036h1.05V-8.246A18.8,18.8,0,0,0,33.4-11.158ZM36.778-.112c-.77,0-.924-.168-.924-.952v-4.06a32.945,32.945,0,0,0,4.928-3.052l-.742-.9a24.506,24.506,0,0,1-4.186,2.9v-5.208H34.8v10.3c0,1.526.448,1.946,1.9,1.946h2.87c1.442,0,1.75-.8,1.918-3.066a3.342,3.342,0,0,1-.994-.448c-.1,2.03-.224,2.534-.994,2.534Z" transform="translate(523 14138.84)" fill="#3c505a" stroke="rgba(0,0,0,0)" stroke-width="1"/>
  </g>
</svg>
