<svg xmlns="http://www.w3.org/2000/svg" width="861" height="269.186" viewBox="0 0 861 269.186">
  <g id="Group_329" data-name="Group 329" transform="translate(-329.499 -13937.84)">
    <g id="Group_205" data-name="Group 205" transform="translate(-23.501 85)">
      <g id="Group_197" data-name="Group 197" transform="translate(739.5 19383.84)">
        <circle id="Ellipse_89" data-name="Ellipse 89" cx="82" cy="82" r="82" transform="translate(-386.5 -5476.84)" fill="#fff"/>
        <path id="Path_228" data-name="Path 228" d="M-33.664,0h3.52V-11.1c0-2.56-.288-5.28-.48-7.712h.16L-28-13.888-20.192,0h3.808V-23.584H-19.9v11.008c0,2.56.288,5.408.48,7.84h-.16l-2.464-4.992-7.808-13.856h-3.808Zm23.488,0h3.328V-11.648c0-2.112-.288-5.152-.448-7.3h.128l1.856,5.44L-1.184-2.272h2.3L5.216-13.5,7.1-18.944h.128c-.192,2.144-.48,5.184-.48,7.3V0h3.456V-23.584H5.92L1.664-11.648C1.12-10.08.672-8.48.128-6.912h-.16C-.576-8.48-1.056-10.08-1.6-11.648L-5.92-23.584h-4.256Zm26.56,0H19.9V-11.1c0-2.56-.288-5.28-.48-7.712h.16l2.464,4.928L29.856,0h3.808V-23.584h-3.52v11.008c0,2.56.288,5.408.48,7.84h-.16L28-9.728,20.192-23.584H16.384Z" transform="translate(-304.5 -5380.84)" fill="#3c505a"/>
      </g>
      <g id="Group_198" data-name="Group 198" transform="translate(736 19384)">
        <circle id="Ellipse_90" data-name="Ellipse 90" cx="82" cy="82" r="82" transform="translate(-188 -5477)" fill="#fff"/>
        <path id="Path_227" data-name="Path 227" d="M-29.776,0h3.52V-11.1c0-2.56-.288-5.28-.48-7.712h.16l2.464,4.928L-16.3,0H-12.5V-23.584h-3.52v11.008c0,2.56.288,5.408.48,7.84h-.16L-18.16-9.728l-7.808-13.856h-3.808Zm28-12.8c.768-2.56,1.5-5.152,2.176-7.84H.56c.7,2.656,1.408,5.28,2.208,7.84L3.7-9.632H-2.736ZM-9.392,0h3.776L-3.6-6.72H4.592L6.576,0h3.936L2.7-23.584H-1.584ZM13.616,0h6.3c7.04,0,11.168-4.224,11.168-11.872,0-7.68-4.128-11.712-11.36-11.712H13.616Zm3.712-3.04v-17.5h2.144c5.056,0,7.776,2.784,7.776,8.672,0,5.856-2.72,8.832-7.776,8.832Z" transform="translate(-106 -5381)" fill="#3c505a"/>
        <path id="Path_226" data-name="Path 226" d="M-.985-3.132H.986V-9.045H6.467v-1.836H.986v-5.913H-.985v5.913H-6.467v1.836H-.985Z" transform="translate(-64 -5395)" fill="#3c505a"/>
      </g>
      <g id="Group_199" data-name="Group 199" transform="translate(739.5 19383.84)">
        <circle id="Ellipse_91" data-name="Ellipse 91" cx="82" cy="82" r="82" transform="translate(2.5 -5476.84)" fill="#fff"/>
        <path id="Path_225" data-name="Path 225" d="M-45.36-9.04v-.68h1.9c.96,0,1.66.02,1.98.06v-2.12a13.29,13.29,0,0,1-2,.12h-1.88v-2.32a13.04,13.04,0,0,1,.12-1.74H-47.5a13.809,13.809,0,0,1,.1,1.74v2.32h-5.28v-2.3a10.779,10.779,0,0,1,.12-1.6h-2.26a10.975,10.975,0,0,1,.12,1.6v2.3h-1.96a12.433,12.433,0,0,1-2.08-.16v2.18c.32-.04,1.14-.08,2.08-.08h1.96v3c0,.84-.08,1.66-.1,1.94h2.22a17.782,17.782,0,0,1-.1-1.94v-3h5.28v.8c0,5.3-1.76,7.02-5.5,8.4l1.7,1.6C-46.52-1.02-45.36-3.88-45.36-9.04Zm7.3.12v2.48c.68-.06,1.88-.1,2.98-.1H-24.2c.88,0,1.8.08,2.24.1V-8.92c-.5.04-1.28.12-2.24.12H-35.08C-36.16-8.8-37.4-8.88-38.06-8.92ZM-16.8-14.1l.5,1.84c1.46-.02,3.64-.08,5.62-.26v3.28h-5.84a15.97,15.97,0,0,1-1.8-.1v2.06c.5-.04,1.2-.06,1.82-.06h5.76A7.953,7.953,0,0,1-15.78-.4L-13.8.96a9.734,9.734,0,0,0,5.14-8.3h5.4c.52,0,1.16.02,1.64.06V-9.32c-.44.04-1.26.08-1.68.08H-8.62v-3.54a36.521,36.521,0,0,0,3.7-.74c.32-.08.76-.18,1.3-.32l-1.3-1.76a22.716,22.716,0,0,1-5.1,1.18A43.994,43.994,0,0,1-16.8-14.1ZM14.92-9.52l-1.52-.74a4.052,4.052,0,0,1-1.2.16H6.52a17.3,17.3,0,0,1-1.76-.1v2.08c.54-.02,1.18-.06,1.78-.06h5.94c-.06,1.12-.58,4.56-.86,6.26H4.7a16.249,16.249,0,0,1-1.8-.1V.04C3.58.02,4.04,0,4.7,0H15.48c.48,0,1.32.02,1.7.04V-2c-.46.04-1.28.08-1.74.08H13.76c.28-1.86.84-5.6,1-6.88C14.8-9,14.86-9.3,14.92-9.52Zm6.6,2.06.98,1.98a40.919,40.919,0,0,0,7.38-3.1v6.96A23.176,23.176,0,0,1,29.76.74h2.48a15.04,15.04,0,0,1-.14-2.36v-8.3a33.738,33.738,0,0,0,5.38-4.38L35.8-15.9a24.688,24.688,0,0,1-5.56,4.76A33.026,33.026,0,0,1,21.52-7.46ZM44.66-14.9,43.2-13.34a43.38,43.38,0,0,1,5,4.24l1.58-1.62A41.968,41.968,0,0,0,44.66-14.9ZM42.6-1.52,43.94.54A22.051,22.051,0,0,0,51.6-2.44a20.449,20.449,0,0,0,7.02-7.24L57.4-11.86a19.042,19.042,0,0,1-6.94,7.54A20.781,20.781,0,0,1,42.6-1.52Zm-76.52,15.7V12.512h3.936v1.664ZM-23.1,12.512v1.664h-4.032V12.512Zm-6.88,4.608h-9.024v1.952H-17.7V17.12h-9.44V15.84h6.912V10.816h-6.912V9.184h-2.848v1.632H-36.64V15.84h6.656Zm-8.928-2.048a23.787,23.787,0,0,0-5.056-5.12l-2.272,1.664a22.849,22.849,0,0,1,4.928,5.344ZM-33.5,27.584H-23.36v1.408H-33.5Zm0-2.88H-23.36V26.08H-33.5Zm0-2.816H-23.36V23.2H-33.5Zm1.856,8.64h5.92l-1.472.96a46.207,46.207,0,0,1,6.144,3.232l2.688-1.28a58.742,58.742,0,0,0-6.112-2.912h4.032V20.32H-36.256V30.528h3.968a20.19,20.19,0,0,1-5.5,2.816A14.5,14.5,0,0,1-36,34.688a6.613,6.613,0,0,1-3.776-2.848V21.568h-6.688V24.32h3.84v7.84a43.669,43.669,0,0,1-4.128,3.264l1.472,2.816c1.568-1.376,2.976-2.688,4.32-4,1.888,2.464,4.64,3.552,8.64,3.712,3.68.128,10.5.064,14.176-.1a14.532,14.532,0,0,1,.928-2.816c-4.064.288-11.488.384-15.1.224a14.289,14.289,0,0,1-3.008-.384,23.416,23.416,0,0,0,5.76-3.616ZM13.12,11.456H-3.488v2.912H13.12ZM-7.36,9.216A34.429,34.429,0,0,1-15.3,21.472a28.236,28.236,0,0,1,1.632,3.008,37.432,37.432,0,0,0,3.136-3.712V38.432h2.816V16.48a51.034,51.034,0,0,0,3.136-6.368Zm22.5,28.032C14.3,34.4,11.9,30.272,9.632,27.136l-2.624,1.12c1.024,1.5,2.08,3.232,3.008,4.9-3.328.256-6.72.512-9.728.736,1.216-2.944,2.56-6.752,3.584-10.08H14.816v-2.88H-5.824v2.88H.48a82.753,82.753,0,0,1-3.264,10.3c-1.216.064-2.336.128-3.328.192l.544,3.008c4.48-.352,10.816-.9,16.864-1.472a17.65,17.65,0,0,1,.992,2.688ZM46.5,23.168H33.6V20.512a48.009,48.009,0,0,0,10.3-7.744l-2.24-1.7-.672.192H20.864v2.912H37.856a37.434,37.434,0,0,1-5.632,3.9H30.5v5.088H17.568v2.976H30.5v8.7c0,.544-.192.7-.864.736-.736,0-3.136.032-5.536-.064a12.544,12.544,0,0,1,1.28,3.072,22.047,22.047,0,0,0,6.432-.512c1.344-.512,1.792-1.376,1.792-3.2V26.144H46.5Z" transform="translate(84.5 -5405.84)" fill="#3c505a"/>
      </g>
      <path id="Path_224" data-name="Path 224" d="M-14.44-16.68A22.457,22.457,0,0,1-19.48-8.8a12.145,12.145,0,0,1,.84,1.44A21.612,21.612,0,0,0-16.5-9.92V1.48h1.42V-12.1a29.71,29.71,0,0,0,2.04-4.16Zm3.46,2.22h7.42v3.66h-7.42Zm10,8.82V-7h-5.6V-9.48h4.5V-15.8h-10.3v6.32h4.32V-7h-5.8v1.36h4.94A14.814,14.814,0,0,1-14.44-.52,7.325,7.325,0,0,1-13.4.66,16.715,16.715,0,0,0-8.06-4.66v6.2h1.48V-4.72A18.42,18.42,0,0,0-1.52.7,6.739,6.739,0,0,1-.46-.48,15.583,15.583,0,0,1-5.72-5.64ZM6.7-16.04H1.78v1.2H6.7Zm.56,2.62H.84v1.22H7.26ZM5.5-4.18V-.84H2.84V-4.18ZM6.74-5.4H1.64V1.3h1.2V.36h3.9ZM1.66-6.88H6.74v-1.2H1.66Zm0-2.66H6.74v-1.18H1.66Zm13.1-4.82v1.08l-1.22-.28A12.35,12.35,0,0,1,12.86-12H10.22q.36-.63.66-1.26h.88v-1.1Zm-1.8,4.34h-2.7v-.94h2.7Zm0,1.84h-2.7v-.96h2.7Zm0,1.88h-2.7v-1h2.7ZM8.92-5.28h9.96V-6.3h-4.6v-1h3.66v-.88H14.28v-.96h3.66v-.88H14.28v-.94h4.14V-12h-4.2c.22-.38.44-.82.66-1.26h1.24v-1.1h2.8v-1.12h-2.8v-1.26H14.76v1.26h-3v-1.26H10.44v1.26H7.54v1.12h2.9v.92l-.76-.18A10.934,10.934,0,0,1,6.8-9.68a8.257,8.257,0,0,1,1,.78,10.847,10.847,0,0,0,1.12-1.2Zm7.16,2a8.4,8.4,0,0,1-2.66,1.94,8.017,8.017,0,0,1-2.64-1.94Zm1.2-1.2-.26.06H7.86v1.14h2.4l-.8.34A9.434,9.434,0,0,0,11.98-.72,22.926,22.926,0,0,1,6.9.4a4.726,4.726,0,0,1,.64,1.16A22.961,22.961,0,0,0,13.34,0,18.9,18.9,0,0,0,18.4,1.52,5.916,5.916,0,0,1,19.26.34,19.578,19.578,0,0,1,14.78-.74a8.689,8.689,0,0,0,3.36-3.28Z" transform="translate(929.5 14029.525)" fill="#3c505a"/>
      <path id="Path_223" data-name="Path 223" d="M-14.44-16.68A22.457,22.457,0,0,1-19.48-8.8a12.145,12.145,0,0,1,.84,1.44A21.612,21.612,0,0,0-16.5-9.92V1.48h1.42V-12.1a29.71,29.71,0,0,0,2.04-4.16Zm3.46,2.22h7.42v3.66h-7.42Zm10,8.82V-7h-5.6V-9.48h4.5V-15.8h-10.3v6.32h4.32V-7h-5.8v1.36h4.94A14.814,14.814,0,0,1-14.44-.52,7.325,7.325,0,0,1-13.4.66,16.715,16.715,0,0,0-8.06-4.66v6.2h1.48V-4.72A18.42,18.42,0,0,0-1.52.7,6.739,6.739,0,0,1-.46-.48,15.583,15.583,0,0,1-5.72-5.64ZM6.7-16.04H1.78v1.2H6.7Zm.56,2.62H.84v1.22H7.26ZM5.5-4.18V-.84H2.84V-4.18ZM6.74-5.4H1.64V1.3h1.2V.36h3.9ZM1.66-6.88H6.74v-1.2H1.66Zm0-2.66H6.74v-1.18H1.66Zm13.1-4.82v1.08l-1.22-.28A12.35,12.35,0,0,1,12.86-12H10.22q.36-.63.66-1.26h.88v-1.1Zm-1.8,4.34h-2.7v-.94h2.7Zm0,1.84h-2.7v-.96h2.7Zm0,1.88h-2.7v-1h2.7ZM8.92-5.28h9.96V-6.3h-4.6v-1h3.66v-.88H14.28v-.96h3.66v-.88H14.28v-.94h4.14V-12h-4.2c.22-.38.44-.82.66-1.26h1.24v-1.1h2.8v-1.12h-2.8v-1.26H14.76v1.26h-3v-1.26H10.44v1.26H7.54v1.12h2.9v.92l-.76-.18A10.934,10.934,0,0,1,6.8-9.68a8.257,8.257,0,0,1,1,.78,10.847,10.847,0,0,0,1.12-1.2Zm7.16,2a8.4,8.4,0,0,1-2.66,1.94,8.017,8.017,0,0,1-2.64-1.94Zm1.2-1.2-.26.06H7.86v1.14h2.4l-.8.34A9.434,9.434,0,0,0,11.98-.72,22.926,22.926,0,0,1,6.9.4a4.726,4.726,0,0,1,.64,1.16A22.961,22.961,0,0,0,13.34,0,18.9,18.9,0,0,0,18.4,1.52,5.916,5.916,0,0,1,19.26.34,19.578,19.578,0,0,1,14.78-.74a8.689,8.689,0,0,0,3.36-3.28Z" transform="translate(929.5 13946.875)" fill="#3c505a"/>
      <g id="Group_139" data-name="Group 139" transform="translate(723 19371.84)">
        <rect id="Rectangle_124" data-name="Rectangle 124" width="246" height="92" transform="translate(245 -5519)" fill="#fff"/>
        <path id="Path_222" data-name="Path 222" d="M-62.59,0h1.68V-8.12c0-1.26-.14-3.04-.22-4.32h.08l1.16,3.34,2.78,7.62h1.24l2.78-7.62,1.16-3.34h.08c-.1,1.28-.24,3.06-.24,4.32V0h1.74V-14.68h-2.24l-2.8,7.86c-.34,1.02-.66,2.04-1,3.06h-.1c-.36-1.02-.7-2.04-1.04-3.06l-2.82-7.86h-2.24Zm16.08,0h1.82V-10.86h-1.82Zm.92-13.1a1.155,1.155,0,0,0,1.22-1.22,1.145,1.145,0,0,0-1.22-1.18,1.145,1.145,0,0,0-1.22,1.18A1.155,1.155,0,0,0-45.59-13.1Zm8,13.36a6.837,6.837,0,0,0,2-.4l-.36-1.36a3.847,3.847,0,0,1-1.24.28c-1.26,0-1.68-.76-1.68-2.1V-9.38h2.94v-1.48h-2.94v-3.06h-1.52l-.22,3.06-1.7.1v1.38h1.62v6.02C-40.69-1.2-39.91.26-37.59.26Zm8.04,0c2.66,0,5.04-2.08,5.04-5.68,0-3.62-2.38-5.72-5.04-5.72s-5.04,2.1-5.04,5.72C-34.59-1.82-32.21.26-29.55.26Zm0-1.52c-1.88,0-3.14-1.66-3.14-4.16s1.26-4.2,3.14-4.2,3.16,1.7,3.16,4.2S-27.67-1.26-29.55-1.26ZM-17.37.26a5.266,5.266,0,0,0,3.52-1.38l-.8-1.22a3.829,3.829,0,0,1-2.56,1.08c-2,0-3.36-1.66-3.36-4.16s1.44-4.2,3.42-4.2a3.211,3.211,0,0,1,2.16.96l.94-1.2a4.643,4.643,0,0,0-3.18-1.28c-2.78,0-5.24,2.1-5.24,5.72C-22.47-1.82-20.25.26-17.37.26Zm5.9-.26h1.82V-7.88c1.1-1.1,1.86-1.66,2.98-1.66,1.44,0,2.06.86,2.06,2.9V0h1.82V-6.88c0-2.78-1.04-4.26-3.32-4.26a5.1,5.1,0,0,0-3.6,1.82l.06-2.24v-4.36h-1.82ZM4.89.26c2.66,0,5.04-2.08,5.04-5.68,0-3.62-2.38-5.72-5.04-5.72S-.15-9.04-.15-5.42C-.15-1.82,2.23.26,4.89.26Zm0-1.52c-1.88,0-3.14-1.66-3.14-4.16s1.26-4.2,3.14-4.2,3.16,1.7,3.16,4.2S6.77-1.26,4.89-1.26ZM12.79,0h1.82V-7.88c1.1-1.1,1.86-1.66,2.98-1.66,1.44,0,2.06.86,2.06,2.9V0h1.82V-6.88c0-2.78-1.04-4.26-3.32-4.26A5.208,5.208,0,0,0,14.51-9.3h-.06l-.16-1.56h-1.5ZM28.71.26a4.844,4.844,0,0,0,3.3-1.54h.06L32.23,0h1.48V-15.92h-1.8v4.18l.08,1.88a4.418,4.418,0,0,0-3.06-1.28c-2.48,0-4.7,2.2-4.7,5.72C24.23-1.8,25.99.26,28.71.26Zm.4-1.52c-1.92,0-3-1.56-3-4.18,0-2.48,1.38-4.16,3.14-4.16a3.891,3.891,0,0,1,2.66,1.14v5.7A3.8,3.8,0,0,1,29.11-1.26ZM37.41,0h1.82V-6.98c.72-1.86,1.84-2.5,2.74-2.5a2.57,2.57,0,0,1,1.06.18l.34-1.6a2.315,2.315,0,0,0-1.16-.24,3.75,3.75,0,0,0-3.08,2.26h-.06l-.16-1.98h-1.5Zm7.76,0h1.82V-10.86H45.17Zm.92-13.1a1.155,1.155,0,0,0,1.22-1.22,1.145,1.145,0,0,0-1.22-1.18,1.145,1.145,0,0,0-1.22,1.18A1.155,1.155,0,0,0,46.09-13.1ZM53.17.26a5.818,5.818,0,0,0,3.6-1.56h.06L56.99,0h1.5V-6.68c0-2.68-1.12-4.46-3.76-4.46a8.169,8.169,0,0,0-4.28,1.42l.72,1.26a5.983,5.983,0,0,1,3.26-1.16c1.78,0,2.24,1.34,2.24,2.74-4.62.52-6.68,1.7-6.68,4.06A2.944,2.944,0,0,0,53.17.26Zm.52-1.46c-1.08,0-1.92-.5-1.92-1.74,0-1.4,1.24-2.3,4.9-2.74v3.04A4.438,4.438,0,0,1,53.69-1.2ZM-64.26,14.86l-.58,1.48A66.206,66.206,0,0,1-54.4,18.72l.64-1.54A68.437,68.437,0,0,0-64.26,14.86Zm-.9,5.28-.6,1.5a58.533,58.533,0,0,1,10.04,2.44l.64-1.54A71.228,71.228,0,0,0-65.16,20.14Zm-1.1,5.82-.62,1.52A65.289,65.289,0,0,1-55.04,30.5l.68-1.54A70.4,70.4,0,0,0-66.26,25.96Zm23,2.28a17.622,17.622,0,0,1-.14,2.36h1.94c-.08-.66-.12-1.74-.12-2.36,0-.58,0-3.6-.02-6.6a52.434,52.434,0,0,1,7.86,3.22l.68-1.7a63.924,63.924,0,0,0-8.54-3.3V16.6c0-.6.08-1.46.14-2.08h-1.96a12.624,12.624,0,0,1,.16,2.08Zm16.7-11.96v1.78c.46-.02,1.46-.06,2.2-.06h9.58v9.44H-24.6a21.118,21.118,0,0,1-2.22-.12v1.82c.54-.04,1.44-.08,2.26-.08h9.78c-.02.48-.02.9-.04,1.12h1.8c-.02-.32-.08-1.22-.08-1.94V17.92c0-.48.04-1.1.06-1.56-.4.02-1,.04-1.48.04h-9.86A20.183,20.183,0,0,1-26.56,16.28Zm21.1-.94L-6.6,16.56a41.537,41.537,0,0,1,4.98,4.18l1.26-1.26A43.8,43.8,0,0,0-5.46,15.34Zm-1.72,13.4,1.06,1.64a21.922,21.922,0,0,0,7.86-3.1,19.982,19.982,0,0,0,6.72-7.12l-.96-1.7A18.841,18.841,0,0,1,.82,25.82,20.651,20.651,0,0,1-7.18,28.74ZM23.12,15.6l-1.1.5a19.848,19.848,0,0,1,1.78,3.04l1.14-.52A30.137,30.137,0,0,0,23.12,15.6Zm2.42-1-1.1.52a19.457,19.457,0,0,1,1.86,3l1.12-.56A27.011,27.011,0,0,0,25.54,14.6ZM16.1,28.5a21.9,21.9,0,0,1-.12,2.36H17.9c-.06-.64-.12-1.72-.12-2.36V21.92a51.254,51.254,0,0,1,7.84,3.2l.7-1.7a67.938,67.938,0,0,0-8.54-3.3V16.86a18.473,18.473,0,0,1,.14-2.08H15.94a12.624,12.624,0,0,1,.16,2.08ZM45.52,14.82H43.64a14.348,14.348,0,0,1,.1,1.74v3.16c0,3.78-.24,5.4-1.66,7.06a9.169,9.169,0,0,1-4.78,2.66l1.3,1.38a10.682,10.682,0,0,0,4.76-2.92c1.44-1.72,2.1-3.3,2.1-8.1V16.56C45.46,15.88,45.48,15.32,45.52,14.82Zm-9.28.16H34.42c.04.38.08,1.08.08,1.44v6.66a13.108,13.108,0,0,1-.1,1.54h1.84c-.04-.36-.08-1.02-.08-1.52V16.42C36.16,15.94,36.2,15.36,36.24,14.98Zm32.38,1.5-.98-.94a9.877,9.877,0,0,1-1.4.12H54.76a16.972,16.972,0,0,1-2.28-.18V17.3a22.348,22.348,0,0,1,2.28-.12h11.4a13.586,13.586,0,0,1-4.38,4.48l1.32,1.06a19.283,19.283,0,0,0,4.98-5.52C68.22,16.98,68.48,16.68,68.62,16.48Zm-7.98,2.64h-1.8a12.023,12.023,0,0,1,.08,1.44c0,3.34-.44,6.18-3.54,8.08a6.888,6.888,0,0,1-1.8.9l1.48,1.2C60.16,28.2,60.64,24.54,60.64,19.12Z" transform="translate(399 -5479)" fill="#3c505a"/>
        <g id="Layer_2" data-name="Layer 2" transform="translate(295 -5479)">
          <g id="Group_136" data-name="Group 136" transform="translate(-33 -31)">
            <rect id="Rectangle_123" data-name="Rectangle 123" width="33.463" height="65.702" rx="16.731" transform="matrix(0.926, -0.378, 0.378, 0.926, 0, 12.644)" fill="#ffbe00"/>
            <path id="Path_104" data-name="Path 104" d="M22.13,49.6A2.926,2.926,0,0,1,18.6,45.26l6.034-9.007-8.92.291a3.018,3.018,0,0,1-2.653-1.487,2.909,2.909,0,0,1,.117-3.031l6.034-9.007-8.92.291a3.018,3.018,0,0,1-2.653-1.487,2.974,2.974,0,0,1,.117-3.031l6.034-9.007-8.92.291A2.916,2.916,0,0,1,4.7,4.247l14.6-.466a3.018,3.018,0,0,1,2.653,1.487A2.974,2.974,0,0,1,21.838,8.3L15.8,17.306l8.92-.291A3.018,3.018,0,0,1,27.376,18.5a2.909,2.909,0,0,1-.117,3.031l-6.034,9.007,8.92-.291A3.018,3.018,0,0,1,32.8,31.735a2.974,2.974,0,0,1-.117,3.031L23.47,48.5a2.776,2.776,0,0,1-1.312,1.079Z" transform="translate(8.651 12.33)" fill="#fff"/>
          </g>
        </g>
      </g>
      <g id="Group_138" data-name="Group 138" transform="translate(723 19427.025)">
        <rect id="Rectangle_125" data-name="Rectangle 125" width="246" height="92" transform="translate(245 -5397)" fill="#fff"/>
        <g id="Layer_2-2" data-name="Layer 2" transform="translate(265 -5382)">
          <path id="Path_105" data-name="Path 105" d="M30.471,26.214C37.2,20.045,36.733,9.876,35.555,6,34.377,2.094,31.68-.851,28.332.234c-3.441,1.085-5.146,4.5-2.976,9.58,2.139,5.053,1.767,12.029-2.077,15.811-5.363-.341-10.262-5.332-11.936-10.541C9.606,9.845,6.072,8.419,2.755,9.876-.5,11.209-.594,15.239,1.05,18.929,2.755,22.618,9.11,30.586,18.194,30.8c-6.449,6.821-5.332,18.757-3.875,23.407,1.488,4.65,4.433,8.278,7.782,7.224,3.472-1.085,4.991-4.929,2.48-11.037-2.542-6.108-2.6-14.23,1.054-18.416,5.549.744,10.851,6.883,12.959,13.145s5.828,8.154,9.115,6.666c3.224-1.457,3.069-6.108,1.085-10.572C46.84,36.755,39.8,27.051,30.44,26.152Zm-1.8-23.438c3.658-1.364,4.681,3.6,4.681,3.6L27.247,8.667S24.983,4.14,28.673,2.776ZM9.079,15.487,3,17.782s-2.542-4.4,1.147-5.8S9.079,15.487,9.079,15.487ZM21.6,58.4c-3.689,1.4-5.022-4.5-5.022-4.5l6.076-2.294S25.294,57,21.6,58.4Zm24.523-9.208c-3.689,1.4-5.3-4.4-5.3-4.4l6.107-2.294S49.786,47.792,46.127,49.187Z" transform="translate(-0.002 -0.007)" fill="#ffbe00"/>
        </g>
        <path id="Path_221" data-name="Path 221" d="M-40.99,0h1.86V-13.1h4.44v-1.58H-45.43v1.58h4.44Zm11.66.26a6.464,6.464,0,0,0,3.6-1.12l-.66-1.2a4.682,4.682,0,0,1-2.72.86c-2.06,0-3.48-1.48-3.6-3.8h7.32a7.105,7.105,0,0,0,.08-1.04c0-3.1-1.56-5.1-4.32-5.1-2.52,0-4.9,2.2-4.9,5.72C-34.53-1.84-32.21.26-29.33.26Zm-3.4-6.58c.22-2.12,1.58-3.36,3.12-3.36,1.7,0,2.7,1.18,2.7,3.36ZM-20.71.26A2.8,2.8,0,0,0-19.65.1l-.26-1.4a1.6,1.6,0,0,1-.38.04c-.28,0-.52-.22-.52-.78V-15.92h-1.82V-2.16C-22.63-.62-22.07.26-20.71.26Zm8,0c2.66,0,5.04-2.08,5.04-5.68,0-3.62-2.38-5.72-5.04-5.72s-5.04,2.1-5.04,5.72C-17.75-1.82-15.37.26-12.71.26Zm0-1.52c-1.88,0-3.14-1.66-3.14-4.16s1.26-4.2,3.14-4.2,3.16,1.7,3.16,4.2S-10.83-1.26-12.71-1.26ZM-4.81,0h1.82V-7.88A4.011,4.011,0,0,1-.25-9.54c1.38,0,2.02.86,2.02,2.9V0H3.59V-7.88A4.011,4.011,0,0,1,6.33-9.54c1.38,0,2.02.86,2.02,2.9V0h1.82V-6.88c0-2.78-1.06-4.26-3.3-4.26-1.32,0-2.46.86-3.58,2.08a2.864,2.864,0,0,0-3-2.08A4.772,4.772,0,0,0-3.09-9.28h-.06l-.16-1.58h-1.5Zm22.9.26a6.464,6.464,0,0,0,3.6-1.12l-.66-1.2a4.682,4.682,0,0,1-2.72.86c-2.06,0-3.48-1.48-3.6-3.8h7.32a7.105,7.105,0,0,0,.08-1.04c0-3.1-1.56-5.1-4.32-5.1-2.52,0-4.9,2.2-4.9,5.72C12.89-1.84,15.21.26,18.09.26Zm-3.4-6.58c.22-2.12,1.58-3.36,3.12-3.36,1.7,0,2.7,1.18,2.7,3.36ZM24.79,0h1.82V-6.98c.72-1.86,1.84-2.5,2.74-2.5a2.57,2.57,0,0,1,1.06.18l.34-1.6a2.315,2.315,0,0,0-1.16-.24,3.75,3.75,0,0,0-3.08,2.26h-.06l-.16-1.98h-1.5ZM36.71.26a6.464,6.464,0,0,0,3.6-1.12l-.66-1.2a4.682,4.682,0,0,1-2.72.86c-2.06,0-3.48-1.48-3.6-3.8h7.32a7.105,7.105,0,0,0,.08-1.04c0-3.1-1.56-5.1-4.32-5.1-2.52,0-4.9,2.2-4.9,5.72C31.51-1.84,33.83.26,36.71.26Zm-3.4-6.58c.22-2.12,1.58-3.36,3.12-3.36,1.7,0,2.7,1.18,2.7,3.36ZM-35.7,15.2v1.66c.5-.04,1.16-.06,1.82-.06h8.08c.58,0,1.28.02,1.86.06V15.2a14.756,14.756,0,0,1-1.86.12h-8.1A16.637,16.637,0,0,1-35.7,15.2Zm-2.4,5.02v1.66c.56-.04,1.14-.04,1.74-.04h6a9.682,9.682,0,0,1-1.16,4.96,8.279,8.279,0,0,1-3.78,3.06l1.48,1.1a9.76,9.76,0,0,0,3.94-3.66,12.106,12.106,0,0,0,1.18-5.46h5.44c.48,0,1.12.02,1.56.04V20.22a10.722,10.722,0,0,1-1.56.1h-13.1A15.987,15.987,0,0,1-38.1,20.22Zm21.02-3.92c.04.48.04,1.1.04,1.56V27.7c0,.7-.04,2.18-.06,2.44h1.72c-.02-.16-.02-.64-.04-1.16H-4.5c0,.54-.02,1.02-.02,1.16H-2.8c-.02-.22-.04-1.78-.04-2.42V17.86c0-.5,0-1.06.04-1.56-.6.04-1.32.04-1.76.04H-15.3C-15.76,16.34-16.3,16.32-17.08,16.3Zm1.66,1.62H-4.48v9.5H-15.42ZM16.2,15.44l-1.84-.64a11.472,11.472,0,0,1-.4,1.48,22.374,22.374,0,0,1-2.72,5.46c-1.58-1.22-3.9-2.86-5.62-3.96L4.58,19.04a62.571,62.571,0,0,1,5.64,4.04,22.205,22.205,0,0,1-7.94,6.28l1.38,1.26a25.48,25.48,0,0,0,7.84-6.46,44.6,44.6,0,0,1,4.72,4.6l1.26-1.38a50.051,50.051,0,0,0-4.94-4.58,27.86,27.86,0,0,0,3-5.9A10.792,10.792,0,0,1,16.2,15.44Zm22.42,1.04-.98-.94a9.877,9.877,0,0,1-1.4.12H24.76a16.972,16.972,0,0,1-2.28-.18V17.3a22.348,22.348,0,0,1,2.28-.12h11.4a13.586,13.586,0,0,1-4.38,4.48l1.32,1.06a19.283,19.283,0,0,0,4.98-5.52C38.22,16.98,38.48,16.68,38.62,16.48Zm-7.98,2.64h-1.8a12.023,12.023,0,0,1,.08,1.44c0,3.34-.44,6.18-3.54,8.08a6.888,6.888,0,0,1-1.8.9l1.48,1.2C30.16,28.2,30.64,24.54,30.64,19.12Z" transform="translate(391 -5357)" fill="#3c505a"/>
      </g>
      <g id="Group_200" data-name="Group 200" transform="translate(734 19379.34)">
        <line id="Line_33" data-name="Line 33" x2="14" transform="translate(-209 -5390.34)" fill="none" stroke="#a9a9a9" stroke-width="1"/>
        <path id="Path_124" data-name="Path 124" d="M-205.059-5405.947l5.97,5.969-5.97,5.969" transform="translate(4.711 9.607)" fill="none" stroke="#a9a9a9" stroke-width="1"/>
      </g>
      <g id="Group_201" data-name="Group 201" transform="translate(928 19379.34)">
        <line id="Line_33-2" data-name="Line 33" x2="14" transform="translate(-209 -5390.34)" fill="none" stroke="#a9a9a9" stroke-width="1"/>
        <path id="Path_124-2" data-name="Path 124" d="M-205.059-5405.947l5.97,5.969-5.97,5.969" transform="translate(4.711 9.607)" fill="none" stroke="#a9a9a9" stroke-width="1"/>
      </g>
      <g id="Group_202" data-name="Group 202" transform="translate(3808.354 18467.018) rotate(-30)">
        <line id="Line_33-3" data-name="Line 33" x2="40.772" transform="translate(-235.772 -5390.34)" fill="none" stroke="#a9a9a9" stroke-width="1"/>
        <path id="Path_124-3" data-name="Path 124" d="M-205.059-5405.947l5.97,5.969-5.97,5.969" transform="translate(4.711 9.607)" fill="none" stroke="#a9a9a9" stroke-width="1"/>
      </g>
      <g id="Group_203" data-name="Group 203" transform="translate(911.969 14036.99) rotate(30)">
        <line id="Line_33-4" data-name="Line 33" x2="40.772" transform="translate(0 5.939)" fill="none" stroke="#a9a9a9" stroke-width="1"/>
        <path id="Path_124-4" data-name="Path 124" d="M0,11.938,5.97,5.97,0,0" transform="translate(35.424)" fill="none" stroke="#a9a9a9" stroke-width="1"/>
      </g>
      <path id="Path_220" data-name="Path 220" d="M10.06,15.622V12.066h4.494V11.058H10.06V8.006h5.012V6.984H10.06V4.3H9V6.984H6.154a19.217,19.217,0,0,0,.784-2.24L5.888,4.52A12.763,12.763,0,0,1,3.3,9.672a6.971,6.971,0,0,1,.952.616A12.561,12.561,0,0,0,5.706,8.006H9v3.052H4.838v1.008H9v3.556H3.326V16.63h12.4V15.622Zm1.82,9.36a14.332,14.332,0,0,1,2.478,1.68L15,25.948a13.354,13.354,0,0,0-2.506-1.6Zm1.988,3.78a13.864,13.864,0,0,1-1.792,3.78,25.252,25.252,0,0,1-.77-4.858h4.452V26.662H11.236c-.042-.756-.056-1.54-.056-2.352H10.1c.014.8.028,1.582.084,2.352H4.348v3.906c0,1.806-.126,4.2-1.274,5.908a4.141,4.141,0,0,1,.868.7c1.26-1.82,1.47-4.634,1.47-6.594V30.47H7.96c-.056,2.408-.126,3.29-.322,3.5-.084.126-.224.154-.42.154-.238,0-.84-.014-1.484-.07a2.164,2.164,0,0,1,.294.98,16.154,16.154,0,0,0,1.666,0,1.083,1.083,0,0,0,.84-.406c.294-.364.378-1.54.448-4.676V29.5H5.412v-1.82h4.83a27.528,27.528,0,0,0,1.022,5.894,11.172,11.172,0,0,1-3.22,2.59,5.86,5.86,0,0,1,.756.826,12.517,12.517,0,0,0,2.884-2.324c.644,1.442,1.484,2.3,2.562,2.3s1.442-.686,1.638-3.066a2.461,2.461,0,0,1-.9-.56c-.1,1.862-.266,2.59-.658,2.59-.714,0-1.358-.8-1.876-2.17a15.786,15.786,0,0,0,2.464-4.732Z" transform="translate(521 14009)" fill="#3c505a" stroke="rgba(0,0,0,0)" stroke-width="1"/>
      <path id="Path_219" data-name="Path 219" d="M7.008,5.906A25.584,25.584,0,0,0,4.39,4.464l-.574.742c.854.462,2.016,1.134,2.59,1.54Zm-.714,3.78C5.678,9.294,4.516,8.678,3.7,8.272l-.574.756c.854.448,2,1.12,2.576,1.512Zm-1.96,7.2a50.79,50.79,0,0,0,2.534-4.494L6.112,11.7a40.43,40.43,0,0,1-2.646,4.48Zm9.6-1.372H8.968V12.626h4.97Zm1.9-6.146V8.356H12.006V5.934A22.39,22.39,0,0,0,15.24,5.15l-.812-.812A34.429,34.429,0,0,1,7.652,5.584a6.516,6.516,0,0,1,.294.882c.994-.1,2.044-.224,3.066-.378V8.356H6.98V9.364h4.032v2.3H8v5.4h.966v-.588h4.97v.518h.994V11.66H12.006v-2.3ZM3.746,30.792a15.613,15.613,0,0,0,.7-3.752l-.784-.112a14.146,14.146,0,0,1-.728,3.584Zm1.2,6.272H5.986V24.282H4.95ZM6.084,26.858a13.935,13.935,0,0,1,.966,2.38l.784-.378a13.221,13.221,0,0,0-1.022-2.338Zm6.146,8.736v-3.5h2.856v-.966H12.23v-2.9h3.164v-.994H12.23v-2.9H11.194v2.9H9.444c.2-.686.364-1.414.5-2.142L8.94,24.926a13.63,13.63,0,0,1-1.694,5,8.167,8.167,0,0,1,.924.476,10.1,10.1,0,0,0,.98-2.17h2.044v2.9H8.226v.966h2.968v3.5h-4v.994h8.54v-.994ZM6.91,44.506a15.483,15.483,0,0,1-4.06,5.642,6.948,6.948,0,0,1,.63,1.05A16.7,16.7,0,0,0,5.3,49.224v7.812H6.35V47.754A18.8,18.8,0,0,0,7.9,44.842Zm4.368,11.382c-.77,0-.924-.168-.924-.952v-4.06a32.945,32.945,0,0,0,4.928-3.052l-.742-.9a24.506,24.506,0,0,1-4.186,2.9V44.618H9.3v10.3c0,1.526.448,1.946,1.9,1.946h2.87c1.442,0,1.75-.8,1.918-3.066A3.342,3.342,0,0,1,15,53.354c-.1,2.03-.224,2.534-.994,2.534Z" transform="translate(719 14009)" fill="#3c505a" stroke="rgba(0,0,0,0)" stroke-width="1"/>
    </g>
  </g>
</svg>
