<svg xmlns="http://www.w3.org/2000/svg" width="190" height="58.961" viewBox="0 0 190 58.961">
  <path id="Path_283" data-name="Path 283" d="M3.6-58.56h6.48L27.2-9.44,45.12-58.56H51.6L30.08,0H24.16Zm54,37.92q0-12.88,4.08-17.56t14.64-4.68q10.72,0,14.72,4.76t4,17.48q0,11.92-4,16.48T76.32.4Q65.76.4,61.68-4.32T57.6-20.64Zm5.92,0a36.482,36.482,0,0,0,.76,8.32,7.84,7.84,0,0,0,2.64,4.56,9.426,9.426,0,0,0,3.84,1.84,29.515,29.515,0,0,0,5.56.4,31.456,31.456,0,0,0,5.72-.4A8.625,8.625,0,0,0,85.88-7.8a8.056,8.056,0,0,0,2.52-4.56,37.87,37.87,0,0,0,.72-8.28,52.309,52.309,0,0,0-.6-8.96,8.637,8.637,0,0,0-2.36-4.92,7.735,7.735,0,0,0-3.8-2.04,33.846,33.846,0,0,0-6.04-.4,37.416,37.416,0,0,0-4.8.24A11.255,11.255,0,0,0,68-35.6a5.552,5.552,0,0,0-2.6,2.64,18.748,18.748,0,0,0-1.36,4.76A45.5,45.5,0,0,0,63.52-20.64Zm39.52-28.72v-4.32q0-2,1.92-2h4q1.84,0,1.84,2v4.32a1.626,1.626,0,0,1-1.84,1.84h-4Q103.04-47.52,103.04-49.36ZM103.84,0V-42.48h5.92V0ZM118.8-21.28a51.99,51.99,0,0,1,1-11.16,14.531,14.531,0,0,1,3-6.64,10.521,10.521,0,0,1,4.32-3,17.559,17.559,0,0,1,5.68-.8,104.341,104.341,0,0,1,18.24,2.08v4.32q-11.12-.48-18.24-.48a11.075,11.075,0,0,0-3.36.4A5.743,5.743,0,0,0,127-34.68a10.006,10.006,0,0,0-1.76,4.84,60.508,60.508,0,0,0-.52,8.88q0,8.96,1.8,12.2t6.28,3.24q3.28,0,7.96-.2t7.8-.44l3.04-.24v4.48A74.343,74.343,0,0,1,132.8.4a16.9,16.9,0,0,1-5.56-.8,10.875,10.875,0,0,1-4.32-3,14.579,14.579,0,0,1-3.08-6.68A50.608,50.608,0,0,1,118.8-21.28Zm40-.16a53.643,53.643,0,0,1,.96-11.32,11.7,11.7,0,0,1,3.48-6.48,12.53,12.53,0,0,1,5.6-2.88,41.547,41.547,0,0,1,8.52-.68,45.683,45.683,0,0,1,6.88.4,13.7,13.7,0,0,1,4.88,1.84A8.025,8.025,0,0,1,192.56-36a26.727,26.727,0,0,1,1.04,8.24q0,9.76-10.96,9.76H164.72q0,7.44,1.68,9.96t6.4,2.52h3.36a125.349,125.349,0,0,0,16.64-.8v4.48Q184.88.4,172.8.4q-8.08,0-11.04-4.64T158.8-21.44Zm5.92-2.4h17.92q5.04,0,5.04-3.92,0-6.16-1.8-7.64t-8.44-1.48q-2.8,0-4.12.08a23.481,23.481,0,0,0-3.12.44,4.778,4.778,0,0,0-2.56,1.16,12.254,12.254,0,0,0-1.6,2.24,9.227,9.227,0,0,0-1.08,3.68A52.194,52.194,0,0,0,164.72-23.84Z" transform="translate(-3.6 58.561)" fill="#3c505a"/>
</svg>
