<svg xmlns="http://www.w3.org/2000/svg" width="12.625" height="12" viewBox="0 0 12.625 12">
  <path id="Icon_ionic-md-star-outline" data-name="Icon ionic-md-star-outline" d="M14.313,6.575l-4.54-.39L8,2,6.227,6.185l-4.539.39L5.131,9.56,4.1,14,8,11.646,11.9,14,10.869,9.56Zm-5.8,4.215L8,10.479l-.517.312L5.609,11.921l.5-2.134L6.242,9.2,5.786,8.8,4.13,7.369l2.182-.187.6-.052.235-.555L8,4.564l.852,2.012.235.555.6.052,2.183.187L10.214,8.8,9.759,9.2l.136.587.5,2.134Z" transform="translate(-1.688 -2)" fill="#ffbe00"/>
</svg>
