<svg xmlns="http://www.w3.org/2000/svg" width="296.94" height="99.34" viewBox="0 0 296.94 99.34">
  <g id="Group_408" data-name="Group 408" transform="translate(-652.3 -5707.299)">
    <g id="Group_47" data-name="Group 47" transform="translate(86.342 -434.66)">
      <line id="Line_18" data-name="Line 18" x2="32" y2="32" transform="translate(697.658 6174.658)" fill="none" stroke="#a9a9a9" stroke-width="2"/>
      <line id="Line_19" data-name="Line 19" x1="32" y2="32" transform="translate(697.658 6174.658)" fill="none" stroke="#a9a9a9" stroke-width="2"/>
    </g>
    <path id="Path_170" data-name="Path 170" d="M-141.58-15.98h-1.78a10.547,10.547,0,0,1,.1,1.42c0,.36-.02,1.24-.02,2.28-.56.04-1.08.06-1.54.06a18.507,18.507,0,0,1-2.56-.16l.04,1.52a21.969,21.969,0,0,0,2.56.1c.42,0,.92-.02,1.48-.06-.02.88-.02,1.82-.02,2.62v1.14c-2.3.98-4.38,2.72-4.38,4.38,0,1.78,2.6,3.32,4.16,3.32,1.08,0,1.76-.6,1.76-2.46,0-.86-.04-2.64-.08-4.34a13.1,13.1,0,0,1,4.36-.78c1.9,0,3.44.92,3.44,2.62,0,1.84-1.6,2.78-3.36,3.12a10.228,10.228,0,0,1-2.34.14l.56,1.62a15.166,15.166,0,0,0,2.48-.28c2.74-.66,4.26-2.2,4.26-4.62,0-2.4-2.1-3.98-5.02-3.98a15.126,15.126,0,0,0-4.4.74v-.7c0-.8.02-1.76.04-2.7a36.717,36.717,0,0,0,4.2-.7l-.04-1.56a26.9,26.9,0,0,1-4.12.8c.02-.9.06-1.68.08-2.16A12.832,12.832,0,0,1-141.58-15.98Zm6.2,2.22-.72,1.2a25.37,25.37,0,0,1,4.48,3l.82-1.28A36.353,36.353,0,0,0-135.38-13.76Zm-10.76,11c0-.9,1.22-2.06,2.86-2.82.02,1.46.06,2.82.06,3.54,0,.66-.28.98-.74.98C-144.74-1.06-146.14-1.84-146.14-2.76Zm19.9-3.84c.02-.8.04-1.56.04-2.24V-9.96h2.96V-6.6Zm3-8.02v3.28h-2.96v-3.28Zm1.4-1.38h-5.74v7.16c0,2.94-.1,6.88-1.48,9.68a4.741,4.741,0,0,1,1.24.74,20.155,20.155,0,0,0,1.5-6.76h3.08V-.42c0,.28-.1.36-.36.38-.24,0-1.04.02-1.96-.02a4.669,4.669,0,0,1,.44,1.42,6.227,6.227,0,0,0,2.6-.3c.5-.24.68-.66.68-1.48Zm8.92,15.78a.553.553,0,0,1-.32-.1c-.1-.1-.12-.46-.12-1.1V-16h-6.24v8.4c0,2.72-.16,6.08-1.94,8.34a6.141,6.141,0,0,1,1.24.9c1.88-2.44,2.16-6.34,2.16-9.24v-6.98h3.32V-1.54c0,1.68.1,2.02.4,2.32a1.841,1.841,0,0,0,1.14.4h.98A1.992,1.992,0,0,0-111.24.9a1.622,1.622,0,0,0,.52-1.08,28.74,28.74,0,0,0,.18-2.9,3.354,3.354,0,0,1-1.2-.66c0,1.26-.02,2.26-.06,2.68s-.1.62-.2.7a.516.516,0,0,1-.4.14ZM-91.64-7a7.247,7.247,0,0,0-7.66-7.36c-4.88,0-8.74,3.8-8.74,8.14,0,3.3,1.78,5.34,3.56,5.34,1.86,0,3.44-2.1,4.66-6.22a39.343,39.343,0,0,0,1.2-5.76,5.569,5.569,0,0,1,5.34,5.8c0,3.46-2.52,5.36-5.08,5.94a15.108,15.108,0,0,1-1.72.26l.94,1.48C-94.4,0-91.64-2.8-91.64-7Zm-14.84.64a6.976,6.976,0,0,1,6.2-6.48,32.678,32.678,0,0,1-1.12,5.4c-1.02,3.38-2.08,4.72-3.02,4.72C-105.32-2.72-106.48-3.84-106.48-6.36Zm26.44-6.02V-16.7h-1.54v4.32h-6.48v1.48h6.4a13.476,13.476,0,0,1-7,11.34,5.32,5.32,0,0,1,1.14,1.18c5.8-3.54,7.12-8.38,7.4-12.52h6.82c-.38,7.04-.82,9.86-1.54,10.54a1.147,1.147,0,0,1-.92.3c-.5,0-1.78-.02-3.14-.14a3.254,3.254,0,0,1,.5,1.52,25.852,25.852,0,0,0,3.2.06,2.2,2.2,0,0,0,1.7-.8c.88-1,1.3-3.98,1.74-12.18.02-.22.04-.78.04-.78Zm19.44-3.44-1.64-.14a10.245,10.245,0,0,1-.5,2.5c-.44.02-.9.02-1.32.02a29.273,29.273,0,0,1-3.38-.22v1.5c1.1.08,2.42.12,3.28.12h.88A21.1,21.1,0,0,1-67.9-5.92l1.36,1A26.421,26.421,0,0,1-64.72-7a5.265,5.265,0,0,1,3.44-1.46,1.669,1.669,0,0,1,1.82,1.24C-61.8-6-64.18-4.52-64.18-2.16-64.18.28-61.88.9-59.02.9A46.983,46.983,0,0,0-53.54.54l.04-1.6a35.614,35.614,0,0,1-5.46.48c-2.06,0-3.62-.24-3.62-1.8,0-1.32,1.3-2.38,3.16-3.36,0,1.06-.02,2.36-.06,3.12h1.54c-.02-.98-.04-2.68-.06-3.84,1.52-.72,2.94-1.3,4.06-1.72a17.415,17.415,0,0,1,1.78-.64l-.66-1.5c-.56.3-1.04.52-1.64.78-1.04.48-2.26.96-3.62,1.62a2.582,2.582,0,0,0-2.68-1.8,5.726,5.726,0,0,0-2.78.74,15.88,15.88,0,0,0,1.8-3.1,57.851,57.851,0,0,0,6.64-.56l.02-1.48a49.187,49.187,0,0,1-6.1.62A20.418,20.418,0,0,0-60.6-15.82Zm15.82,2.54v7.92h-2.14v-7.92Zm1.34-1.38h-4.8V-2.12h1.32V-3.98h3.48Zm12.74,7.6h-5.32v-7.2a35.709,35.709,0,0,0,4.54-.9l-1.02-1.18a59.144,59.144,0,0,1-9.94,1.48,4.838,4.838,0,0,1,.4,1.22c1.46-.1,3.04-.24,4.56-.44v7.02h-5.1v1.42h5.1V-.4c0,.34-.14.46-.5.46-.3,0-1.46.02-2.72-.02a5.242,5.242,0,0,1,.56,1.42,10.075,10.075,0,0,0,3.28-.26c.6-.26.84-.66.84-1.6V-5.64h5.32Zm-11.1-5.38a17.783,17.783,0,0,1,1.52,4.7l1.32-.44a17.561,17.561,0,0,0-1.6-4.68Zm8.14,4.76a51.656,51.656,0,0,0,2.14-5.04l-1.44-.44A33.554,33.554,0,0,1-34.84-8.1Zm18.16-6.8-1.58.46c.14.5.3,1,.46,1.46,1.3,7.44-.38,12.24-5,12.24-2.04,0-3.9-.94-3.9-3.78,0-4.1,3.06-7.6,4.32-8.54A8.3,8.3,0,0,1-20.14-13l-.48-1.4a30.132,30.132,0,0,1-6.3,1,9.7,9.7,0,0,1-1.08,0l.12,1.68c.4-.08.74-.12,1.12-.18.72-.08,2.38-.28,3.38-.44a13,13,0,0,0-3.7,8.58c0,3.32,2.28,5.08,5.42,5.08,5.54,0,7.06-4.82,6.64-9.88a16.034,16.034,0,0,0,2.7,3.98L-11.26-6A14.049,14.049,0,0,1-15.5-14.48Zm1.74-1.12-1,.34a25.233,25.233,0,0,1,1.34,2.86l1.04-.4C-12.72-13.62-13.36-14.86-13.76-15.6Zm2.04-.78-.98.38a20.223,20.223,0,0,1,1.36,2.8l1.04-.38C-10.68-14.42-11.28-15.64-11.72-16.38ZM6.8-10.3H1.16v6.5c0,1.68.54,2.12,2.4,2.12h3.5c1.7,0,2.12-.74,2.32-3.56a4.768,4.768,0,0,1-1.34-.58C7.96-3.44,7.8-3.04,6.96-3.04H3.7c-.96,0-1.1-.1-1.1-.76V-8.98H6.8v.5H8.24v-7.3H.96v1.32H6.8ZM-3.22-5.04H.02V-6.36H-3.22V-9.32H.22v-1.32H-3.52v-2.54H-.3v-1.3H-3.52V-16.7H-4.94v2.22h-3.3v1.3h3.3v2.54H-8.76v1.32h4.18v7.58a6.107,6.107,0,0,1-1.9-3.14q.09-1.32.12-2.76l-1.4-.1C-7.82-4.2-8.04-1.02-9.18.98a8.914,8.914,0,0,1,1.22.72,13.259,13.259,0,0,0,1.2-4.08C-5.3.36-2.94,1.02,1.3,1.02H8.92a6.043,6.043,0,0,1,.6-1.48c-1.2.06-7.28.06-8.24.04A13,13,0,0,1-3.22-1Zm18.12-9v1.64c1.58.12,3.28.22,5.28.22,1.86,0,4.04-.14,5.4-.24v-1.64c-1.44.14-3.48.28-5.4.28A44.7,44.7,0,0,1,14.9-14.04Zm.8,8.06-1.62-.16a12.689,12.689,0,0,0-.42,2.78C13.66-.84,16.02.5,20.08.5A28.44,28.44,0,0,0,26.9-.2l-.02-1.72a24.3,24.3,0,0,1-6.84.8c-3.2,0-4.76-1.06-4.76-2.58A7.355,7.355,0,0,1,15.7-5.98Zm26.64-9.86H40.52c.02.16.1.74.12,1.26.02.28.04.76.04,1.32-2.98.04-6.74.16-8.96.2l.04,1.54c2.5-.18,5.9-.32,8.94-.34.02.7.02,1.42.02,2.02a4,4,0,0,0-1.34-.22,3.491,3.491,0,0,0-3.52,3.48,3.184,3.184,0,0,0,3.28,3.34,2.817,2.817,0,0,0,1.74-.54c-.8,1.82-2.64,2.94-5.3,3.54l1.34,1.32c4.66-1.4,5.98-4.4,5.98-7.1a4.86,4.86,0,0,0-.64-2.56c-.02-.92-.04-2.16-.04-3.3h.28c2.92,0,4.74.04,5.86.1l.02-1.48c-.96,0-3.42-.02-5.86-.02h-.3c0-.54.02-1,.02-1.3C42.26-14.84,42.3-15.62,42.34-15.84ZM37.36-6.6a2.038,2.038,0,0,1,2.02-2.12,1.793,1.793,0,0,1,1.78,1.26c.18,1.9-.58,2.84-1.76,2.84A1.926,1.926,0,0,1,37.36-6.6Zm18.62-5.86a22.136,22.136,0,0,0-3.66-2.94l-1.06,1.06a23.256,23.256,0,0,1,3.6,3.06Zm-.7,5.22c-1.7,1.76-3.5,3.6-4.66,4.68l.96,1.22c1.36-1.28,3.02-3.02,4.5-4.62Zm7.48-4.44h4.12a21.982,21.982,0,0,1-1.54,3.72c.36.14.92.46,1.24.6a26.231,26.231,0,0,0,2.2-5.28l-1.08-.6-.3.08H59.34c.36-1.04.66-2.12.94-3.24l-1.56-.28a19.281,19.281,0,0,1-3.58,8.22,8.861,8.861,0,0,1,1.42.84,18.872,18.872,0,0,0,2.22-4.06h2.44v2.52A10.6,10.6,0,0,1,54.12.32a6.6,6.6,0,0,1,.92,1.2,11.5,11.5,0,0,0,6.94-7.9,11.3,11.3,0,0,0,6.16,7.9c.24-.36.7-.98.96-1.32a10.56,10.56,0,0,1-6.34-9.36ZM80.5-6.16v-4.18h3.76v4.18Zm5.24,2.28v-6.46h3.1v-1.42h-3.1v-4.62H84.26v4.62H80.5v-4.86H79.04v4.86H75.32V-16.2H73.8v4.44H70.82v1.42H73.8V1.52h1.52V.06H88.16V-1.38H75.32v-8.96h3.72v6.56H80.5v-.98h3.76v.88Zm22.68-9.22a21.106,21.106,0,0,0-3.3-3.2l-1.08.72a21.34,21.34,0,0,1,3.22,3.28ZM96.08-16.5A22.42,22.42,0,0,1,90.3-8.38a9.773,9.773,0,0,1,.86,1.44,22.665,22.665,0,0,0,2.68-2.94V1.5h1.5V-12.02a26.959,26.959,0,0,0,2.14-4.04Zm12.72,6.44-.2-1.4-5.98.76c-.2-1.76-.32-3.7-.38-5.72h-1.48c.08,2.08.22,4.06.38,5.92l-4.84.6.2,1.4,4.8-.6c.76,6.24,2.36,10.38,5.64,10.62,1.04.06,1.84-.98,2.28-4.4a6.05,6.05,0,0,1-1.24-.78c-.2,2.3-.52,3.48-1.1,3.44-2.14-.2-3.44-3.78-4.12-9.08Zm14.4-5.68a20.474,20.474,0,0,1,3.54,2.4l.92-1.02a19.077,19.077,0,0,0-3.58-2.28Zm2.84,5.4a19.806,19.806,0,0,1-2.56,5.4,36.074,36.074,0,0,1-1.1-6.94h6.36v-1.46h-6.46c-.06-1.08-.08-2.2-.08-3.36h-1.54c.02,1.14.04,2.26.12,3.36h-8.34v5.58c0,2.58-.18,6-1.82,8.44a5.916,5.916,0,0,1,1.24,1c1.8-2.6,2.1-6.62,2.1-9.42V-7.9h3.64c-.08,3.44-.18,4.7-.46,5-.12.18-.32.22-.6.22-.34,0-1.2-.02-2.12-.1a3.091,3.091,0,0,1,.42,1.4,23.077,23.077,0,0,0,2.38,0,1.547,1.547,0,0,0,1.2-.58c.42-.52.54-2.2.64-6.68v-.64h-5.1v-2.6h6.9a39.326,39.326,0,0,0,1.46,8.42,15.96,15.96,0,0,1-4.6,3.7,8.371,8.371,0,0,1,1.08,1.18,17.881,17.881,0,0,0,4.12-3.32c.92,2.06,2.12,3.28,3.66,3.28,1.52,0,2.06-.98,2.34-4.38a3.515,3.515,0,0,1-1.28-.8c-.14,2.66-.38,3.7-.94,3.7-1.02,0-1.94-1.14-2.68-3.1a22.552,22.552,0,0,0,3.52-6.76Zm10.28-5.98a16.987,16.987,0,0,1-5.98,7.52,8.644,8.644,0,0,1,1.26,1.14,20.606,20.606,0,0,0,6.28-8.22Zm-2.74,7.1v1.44h4.08c-.46,3.38-1.56,6.54-6.26,8.1a5.9,5.9,0,0,1,.96,1.3c5.08-1.84,6.36-5.46,6.88-9.4h5.16c-.24,5.04-.52,7.04-1.04,7.54-.18.22-.42.26-.84.26-.46,0-1.7-.02-3-.14a3.615,3.615,0,0,1,.5,1.48,28.651,28.651,0,0,0,3.14.04A2.006,2.006,0,0,0,144.7.7c.68-.76.98-3.06,1.26-9.2.02-.2.04-.72.04-.72Zm8.24-6.58a26.45,26.45,0,0,0,6.2,7.96,7.647,7.647,0,0,1,1.22-1.32,21.162,21.162,0,0,1-6.02-7.2Z" transform="translate(800 5723.999)" fill="#3c505a"/>
    <path id="Path_169" data-name="Path 169" d="M-73.7-5.06h3.1V-6.38h-3.1V-9.22h3.14a6.026,6.026,0,0,1,.8.7,7.624,7.624,0,0,0,3.78-6.1h3.06c-.14,2.6-.32,3.62-.58,3.92a.632.632,0,0,1-.6.18c-.3,0-1.08,0-1.9-.08a3.638,3.638,0,0,1,.38,1.28,15.53,15.53,0,0,0,2.18,0,1.564,1.564,0,0,0,1.16-.5c.44-.5.62-1.9.8-5.46.02-.2.02-.62.02-.62H-70.2v1.28h2.78a5.99,5.99,0,0,1-3,4.94v-.86h-3.52V-13h3.12v-1.32h-3.12v-2.4h-1.38v2.4H-78.5V-13h3.18v2.46h-3.56v1.32h3.84v7.34a6.6,6.6,0,0,1-1.72-2.98c.06-.9.1-1.86.12-2.84L-78-7.78c-.04,3.5-.24,6.62-1.38,8.62a9.208,9.208,0,0,1,1.18.72,11.9,11.9,0,0,0,1.18-3.92c1.46,2.72,3.82,3.38,8.08,3.38h7.64a4.842,4.842,0,0,1,.62-1.48c-1.24.06-7.32.06-8.3.04a12.978,12.978,0,0,1-4.72-.64Zm5.56-1.92h4.76V-3.3h-4.76Zm-1.4,4.92h7.62V-8.22h-7.62ZM-50-9.72A2.108,2.108,0,0,0-52.12-7.6,2.108,2.108,0,0,0-50-5.48,2.108,2.108,0,0,0-47.88-7.6,2.108,2.108,0,0,0-50-9.72Zm27.4-6.3h-9.72v1.16H-24v1.38h-7.86v1.08H-24V-11h-8.46v1.16h9.86Zm-9.74,8.6h9.66v2.06h1.42V-8.62H-33.7v3.34h1.36Zm-1.58-7a12.881,12.881,0,0,0-3.4-2.14l-.84,1.08a14.159,14.159,0,0,1,3.38,2.24Zm-.98,5.16a14.978,14.978,0,0,0-3.44-1.98l-.84,1.1a14.583,14.583,0,0,1,3.42,2.1Zm-.5,3.22A56.774,56.774,0,0,1-38.64.34l1.3.92c1.02-1.86,2.2-4.32,3.1-6.42Zm10.42,1.32a8.8,8.8,0,0,1-2.56,2.6,7.678,7.678,0,0,1-2.36-2.6Zm1.04-1.24-.28.06h-7.94v1.18h1.88l-.98.3A9.8,9.8,0,0,0-28.78-1.4,18.182,18.182,0,0,1-34.28.28a4.857,4.857,0,0,1,.74,1.22A19.454,19.454,0,0,0-27.58-.54a16.1,16.1,0,0,0,5.9,2.08,5.458,5.458,0,0,1,.92-1.3,17.353,17.353,0,0,1-5.54-1.6A9.767,9.767,0,0,0-23-5.54Zm15.8-2.56h1.42v-2.74A14.371,14.371,0,0,0-1.6-7.6,4.418,4.418,0,0,1-.7-8.7a12.985,12.985,0,0,1-5.18-3.18h4.84v-1.18H-6.72V-14.7a42.315,42.315,0,0,0,4.82-.68l-.96-1a73.859,73.859,0,0,1-10.26,1,4.214,4.214,0,0,1,.34,1.04c1.46-.04,3.06-.12,4.64-.24v1.52h-5.58v1.18h4.66a13.963,13.963,0,0,1-5.3,3.4,5.048,5.048,0,0,1,.92,1.04,15.087,15.087,0,0,0,5.3-3.8Zm3.3,2.26c.12-.6.22-1.22.32-1.8h-7.62v1.18h2.38a5.159,5.159,0,0,1-3.96,4.54,4.306,4.306,0,0,1,.8,1.1C-9.84-2.3-8.8-4.22-8.38-6.88h2.36c-.16.8-.34,1.62-.52,2.24l1.28.16a5.325,5.325,0,0,0,.16-.66h1.96c-.18,1.5-.36,2.16-.6,2.4-.16.14-.34.14-.68.14-.3,0-1.24,0-2.2-.08a3.3,3.3,0,0,1,.36,1.14,19.9,19.9,0,0,0,2.42.02,1.575,1.575,0,0,0,1.2-.42c.46-.42.7-1.42.92-3.74a4.021,4.021,0,0,0,.04-.58Zm-9.62-6.72a14.953,14.953,0,0,0-3.22-3.26l-1.14.84a14.775,14.775,0,0,1,3.16,3.34Zm-.6,4.08H-19v1.4h2.54v5.12a32.92,32.92,0,0,1-2.76,2.3l.78,1.42c.98-.86,1.9-1.7,2.78-2.56C-14.42.34-12.62,1.04-10,1.14c2.24.1,6.46.06,8.7-.04A5.444,5.444,0,0,1-.82-.36c-2.4.16-7,.22-9.2.12-2.34-.08-4.1-.76-5.04-2.24ZM9.76-12.38V-16.7H8.22v4.32H1.74v1.48h6.4A13.476,13.476,0,0,1,1.14.44,5.32,5.32,0,0,1,2.28,1.62C8.08-1.92,9.4-6.76,9.68-10.9H16.5c-.38,7.04-.82,9.86-1.54,10.54a1.147,1.147,0,0,1-.92.3c-.5,0-1.78-.02-3.14-.14a3.253,3.253,0,0,1,.5,1.52,25.852,25.852,0,0,0,3.2.06,2.2,2.2,0,0,0,1.7-.8c.88-1,1.3-3.98,1.74-12.18.02-.22.04-.78.04-.78ZM38.16-7a7.247,7.247,0,0,0-7.66-7.36c-4.88,0-8.74,3.8-8.74,8.14,0,3.3,1.78,5.34,3.56,5.34,1.86,0,3.44-2.1,4.66-6.22a39.342,39.342,0,0,0,1.2-5.76,5.569,5.569,0,0,1,5.34,5.8c0,3.46-2.52,5.36-5.08,5.94a15.108,15.108,0,0,1-1.72.26L30.66.62C35.4,0,38.16-2.8,38.16-7Zm-14.84.64a6.976,6.976,0,0,1,6.2-6.48,32.677,32.677,0,0,1-1.12,5.4c-1.02,3.38-2.08,4.72-3.02,4.72C24.48-2.72,23.32-3.84,23.32-6.36ZM58.8-3.66V-4.98H50.32a8.809,8.809,0,0,0,.32-1.88h5.94V-8.1h-5.9V-9.88h6.18v-1.06h1.5v-3.84H50.72v-1.94H49.24v1.94H41.62v3.84h1.44v-2.5h13.8v2.3H50.68V-12.8H49.2v1.66H43.3v1.26h5.9V-8.1H43.62v1.24h5.54a6.29,6.29,0,0,1-.38,1.88H41.32v1.32H48.1c-1.04,1.5-3.08,2.9-6.98,3.98a5.87,5.87,0,0,1,.9,1.2c4.56-1.36,6.74-3.2,7.78-5.18h.18C51.5-.8,54.22.88,58.12,1.56a5.688,5.688,0,0,1,.9-1.28c-3.48-.5-6.04-1.8-7.46-3.94ZM68-5.02l-2.76.78V-8.7H67.7v-1.38H65.24v-4.26h2.64V-15.7H61.06v1.36h2.76v4.26H61.3V-8.7h2.52v4.84c-1.18.34-2.26.62-3.14.84l.4,1.42c1.94-.58,4.6-1.36,7.1-2.1Zm2.2-3.2h6.48v2.04H70.2Zm0-3.2h6.48v2H70.2Zm0-3.18h6.48v2H70.2ZM76,.1c-.5,0-.58-.08-.58-.58V-4.92h2.72V-15.86H68.8V-4.92h1.78C70.26-2.34,69.36-.54,65.84.42a4.44,4.44,0,0,1,.84,1.22c3.88-1.2,4.96-3.38,5.36-6.56H74V-.48c0,1.44.36,1.86,1.78,1.86h1.94c1.2,0,1.58-.62,1.68-3.06a3.527,3.527,0,0,1-1.24-.58C78.1-.2,78.02.1,77.56.1Z" transform="translate(800 5804.999)" fill="#3c505a"/>
    <path id="Path_168" data-name="Path 168" d="M-3.33-7.08a.907.907,0,0,0,.9-.9.907.907,0,0,0-.9-.9.907.907,0,0,0-.9.9A.907.907,0,0,0-3.33-7.08Zm0,2.172-3.96-3.96-.348.348,3.96,3.96L-7.65-.588-7.3-.24-3.33-4.212.63-.252.978-.6l-3.96-3.96L.978-8.52.63-8.868Zm-2.52.348a.907.907,0,0,0-.9-.9.907.907,0,0,0-.9.9.907.907,0,0,0,.9.9A.907.907,0,0,0-5.85-4.56Zm5.04,0a.907.907,0,0,0,.9.9.907.907,0,0,0,.9-.9.907.907,0,0,0-.9-.9A.907.907,0,0,0-.81-4.56ZM-3.33-2.04a.907.907,0,0,0-.9.9.907.907,0,0,0,.9.9.907.907,0,0,0,.9-.9A.907.907,0,0,0-3.33-2.04ZM5.838.156a2.561,2.561,0,0,0,2.82-2.508A2.263,2.263,0,0,0,6.8-4.584v-.048a2.2,2.2,0,0,0,1.56-2.124A2.26,2.26,0,0,0,5.8-8.964a3.522,3.522,0,0,0-2.46,1.056l.588.7a2.568,2.568,0,0,1,1.824-.852A1.35,1.35,0,0,1,7.242-6.672c0,.948-.624,1.68-2.436,1.68v.84c2.028,0,2.736.708,2.736,1.752A1.622,1.622,0,0,1,5.754-.756,2.908,2.908,0,0,1,3.57-1.764l-.552.72A3.641,3.641,0,0,0,5.838.156Z" transform="translate(822.746 5785.999)" fill="#3c505a" stroke="rgba(0,0,0,0)" stroke-width="1"/>
  </g>
</svg>
