<svg xmlns="http://www.w3.org/2000/svg" width="593.88" height="161.68" viewBox="0 0 593.88 161.68">
  <g id="Group_409" data-name="Group 409" transform="translate(-510.6 -5495.6)">
    <g id="Group_75" data-name="Group 75" transform="translate(6 -178)">
      <g id="Group_47" data-name="Group 47" transform="translate(86.342 -434.658)">
        <line id="Line_18" data-name="Line 18" x2="32" y2="32" transform="translate(697.658 6174.658)" fill="none" stroke="#a9a9a9" stroke-width="2"/>
        <line id="Line_19" data-name="Line 19" x1="32" y2="32" transform="translate(697.658 6174.658)" fill="none" stroke="#a9a9a9" stroke-width="2"/>
      </g>
      <path id="Path_182" data-name="Path 182" d="M-283.16-31.96h-3.56a21.093,21.093,0,0,1,.2,2.84c0,.72-.04,2.48-.04,4.56-1.12.08-2.16.12-3.08.12a37.014,37.014,0,0,1-5.12-.32l.08,3.04a43.938,43.938,0,0,0,5.12.2c.84,0,1.84-.04,2.96-.12-.04,1.76-.04,3.64-.04,5.24v2.28c-4.6,1.96-8.76,5.44-8.76,8.76,0,3.56,5.2,6.64,8.32,6.64,2.16,0,3.52-1.2,3.52-4.92,0-1.72-.08-5.28-.16-8.68A26.2,26.2,0,0,1-275-13.88c3.8,0,6.88,1.84,6.88,5.24,0,3.68-3.2,5.56-6.72,6.24a20.456,20.456,0,0,1-4.68.28l1.12,3.24a30.332,30.332,0,0,0,4.96-.56c5.48-1.32,8.52-4.4,8.52-9.24,0-4.8-4.2-7.96-10.04-7.96a30.251,30.251,0,0,0-8.8,1.48v-1.4c0-1.6.04-3.52.08-5.4a73.434,73.434,0,0,0,8.4-1.4l-.08-3.12a53.794,53.794,0,0,1-8.24,1.6c.04-1.8.12-3.36.16-4.32A25.664,25.664,0,0,1-283.16-31.96Zm12.4,4.44-1.44,2.4a50.741,50.741,0,0,1,8.96,6l1.64-2.56A72.706,72.706,0,0,0-270.76-27.52Zm-21.52,22c0-1.8,2.44-4.12,5.72-5.64.04,2.92.12,5.64.12,7.08,0,1.32-.56,1.96-1.48,1.96C-289.48-2.12-292.28-3.68-292.28-5.52Zm39.8-7.68c.04-1.6.08-3.12.08-4.48v-2.24h5.92v6.72Zm6-16.04v6.56h-5.92v-6.56Zm2.8-2.76h-11.48v14.32c0,5.88-.2,13.76-2.96,19.36a9.482,9.482,0,0,1,2.48,1.48c1.8-3.84,2.64-8.8,3-13.52h6.16V-.84c0,.56-.2.72-.72.76-.48,0-2.08.04-3.92-.04a9.338,9.338,0,0,1,.88,2.84c2.64,0,4.2-.08,5.2-.6,1-.48,1.36-1.32,1.36-2.96ZM-225.84-.44a1.107,1.107,0,0,1-.64-.2c-.2-.2-.24-.92-.24-2.2V-32H-239.2v16.8c0,5.44-.32,12.16-3.88,16.68a12.283,12.283,0,0,1,2.48,1.8c3.76-4.88,4.32-12.68,4.32-18.48V-29.16h6.64V-3.08c0,3.36.2,4.04.8,4.64a3.682,3.682,0,0,0,2.28.8h1.96a3.983,3.983,0,0,0,2.12-.56,3.244,3.244,0,0,0,1.04-2.16,57.48,57.48,0,0,0,.36-5.8,6.708,6.708,0,0,1-2.4-1.32c0,2.52-.04,4.52-.12,5.36s-.2,1.24-.4,1.4a1.031,1.031,0,0,1-.8.28ZM-183.28-14c0-8.12-5.96-14.72-15.32-14.72-9.76,0-17.48,7.6-17.48,16.28,0,6.6,3.56,10.68,7.12,10.68,3.72,0,6.88-4.2,9.32-12.44a78.686,78.686,0,0,0,2.4-11.52c6.8.56,10.68,5.56,10.68,11.6,0,6.92-5.04,10.72-10.16,11.88a30.215,30.215,0,0,1-3.44.52l1.88,2.96C-188.8,0-183.28-5.6-183.28-14Zm-29.68,1.28c0-5.44,4.72-12,12.4-12.96a65.355,65.355,0,0,1-2.24,10.8c-2.04,6.76-4.16,9.44-6.04,9.44C-210.64-5.44-212.96-7.68-212.96-12.72Zm52.88-12.04V-33.4h-3.08v8.64h-12.96v2.96h12.8c-.6,7.48-3.16,16.24-14,22.68a10.64,10.64,0,0,1,2.28,2.36c11.6-7.08,14.24-16.76,14.8-25.04h13.64c-.76,14.08-1.64,19.72-3.08,21.08a2.294,2.294,0,0,1-1.84.6c-1,0-3.56-.04-6.28-.28a6.507,6.507,0,0,1,1,3.04,51.7,51.7,0,0,0,6.4.12,4.4,4.4,0,0,0,3.4-1.6c1.76-2,2.6-7.96,3.48-24.36.04-.44.08-1.56.08-1.56Zm38.88-6.88-3.28-.28a20.491,20.491,0,0,1-1,5c-.88.04-1.8.04-2.64.04a58.545,58.545,0,0,1-6.76-.44v3c2.2.16,4.84.24,6.56.24h1.76a42.2,42.2,0,0,1-9.24,12.24l2.72,2A52.841,52.841,0,0,1-129.44-14a10.53,10.53,0,0,1,6.88-2.92c1.8,0,3.24.76,3.64,2.48-4.68,2.44-9.44,5.4-9.44,10.12,0,4.88,4.6,6.12,10.32,6.12a93.966,93.966,0,0,0,10.96-.72l.08-3.2a71.228,71.228,0,0,1-10.92.96c-4.12,0-7.24-.48-7.24-3.6,0-2.64,2.6-4.76,6.32-6.72,0,2.12-.04,4.72-.12,6.24h3.08c-.04-1.96-.08-5.36-.12-7.68,3.04-1.44,5.88-2.6,8.12-3.44a34.83,34.83,0,0,1,3.56-1.28l-1.32-3c-1.12.6-2.08,1.04-3.28,1.56-2.08.96-4.52,1.92-7.24,3.24-.64-2.32-2.76-3.6-5.36-3.6a11.453,11.453,0,0,0-5.56,1.48,31.76,31.76,0,0,0,3.6-6.2,115.7,115.7,0,0,0,13.28-1.12l.04-2.96A98.375,98.375,0,0,1-122.36-27,40.837,40.837,0,0,0-121.2-31.64Zm31.64,5.08v15.84h-4.28V-26.56Zm2.68-2.76h-9.6V-4.24h2.64V-7.96h6.96Zm25.48,15.2H-72.04v-14.4a71.418,71.418,0,0,0,9.08-1.8L-65-32.68c-4.64,1.36-12.92,2.4-19.88,2.96a9.676,9.676,0,0,1,.8,2.44c2.92-.2,6.08-.48,9.12-.88v14.04h-10.2v2.84h10.2V-.8c0,.68-.28.92-1,.92-.6,0-2.92.04-5.44-.04a10.483,10.483,0,0,1,1.12,2.84c3.32.04,5.32-.04,6.56-.52,1.2-.52,1.68-1.32,1.68-3.2V-11.28H-61.4ZM-83.6-24.88a35.565,35.565,0,0,1,3.04,9.4l2.64-.88a35.122,35.122,0,0,0-3.2-9.36Zm16.28,9.52a103.313,103.313,0,0,0,4.28-10.08l-2.88-.88A67.109,67.109,0,0,1-69.68-16.2ZM-31-28.96l-3.16.92c.28,1,.6,2,.92,2.92,2.6,14.88-.76,24.48-10,24.48-4.08,0-7.8-1.88-7.8-7.56,0-8.2,6.12-15.2,8.64-17.08A16.591,16.591,0,0,1-40.28-26l-.96-2.8c-2.32.88-9.08,1.84-12.6,2a19.4,19.4,0,0,1-2.16,0l.24,3.36c.8-.16,1.48-.24,2.24-.36,1.44-.16,4.76-.56,6.76-.88-3.52,3.96-7.4,9.72-7.4,17.16,0,6.64,4.56,10.16,10.84,10.16C-32.24,2.64-29.2-7-30.04-17.12a32.068,32.068,0,0,0,5.4,7.96L-22.52-12C-28.44-17.28-30.16-24.12-31-28.96Zm3.48-2.24-2,.68a50.466,50.466,0,0,1,2.68,5.72l2.08-.8C-25.44-27.24-26.72-29.72-27.52-31.2Zm4.08-1.56L-25.4-32a40.446,40.446,0,0,1,2.72,5.6l2.08-.76C-21.36-28.84-22.56-31.28-23.44-32.76ZM13.6-20.6H2.32v13c0,3.36,1.08,4.24,4.8,4.24h7c3.4,0,4.24-1.48,4.64-7.12a9.537,9.537,0,0,1-2.68-1.16c-.16,4.76-.48,5.56-2.16,5.56H7.4c-1.92,0-2.2-.2-2.2-1.52V-17.96h8.4v1h2.88v-14.6H1.92v2.64H13.6ZM-6.44-10.08H.04v-2.64H-6.44v-5.92H.44v-2.64H-7.04v-5.08H-.6v-2.6H-7.04V-33.4H-9.88v4.44h-6.6v2.6h6.6v5.08h-7.64v2.64h8.36V-3.48a12.215,12.215,0,0,1-3.8-6.28q.18-2.64.24-5.52l-2.8-.2c-.12,7.08-.56,13.44-2.84,17.44A17.829,17.829,0,0,1-15.92,3.4a26.517,26.517,0,0,0,2.4-8.16C-10.6.72-5.88,2.04,2.6,2.04H17.84a12.087,12.087,0,0,1,1.2-2.96C16.64-.8,4.48-.8,2.56-.84A26.009,26.009,0,0,1-6.44-2Zm36.24-18v3.28c3.16.24,6.56.44,10.56.44,3.72,0,8.08-.28,10.8-.48v-3.28c-2.88.28-6.96.56-10.8.56A89.393,89.393,0,0,1,29.8-28.08Zm1.6,16.12-3.24-.32a25.379,25.379,0,0,0-.84,5.56C27.32-1.68,32.04,1,40.16,1A56.881,56.881,0,0,0,53.8-.4l-.04-3.44c-3,1-8.16,1.6-13.68,1.6-6.4,0-9.52-2.12-9.52-5.16A14.71,14.71,0,0,1,31.4-11.96ZM84.68-31.68H81.04c.04.32.2,1.48.24,2.52.04.56.08,1.52.08,2.64-5.96.08-13.48.32-17.92.4l.08,3.08c5-.36,11.8-.64,17.88-.68.04,1.4.04,2.84.04,4.04a8.008,8.008,0,0,0-2.68-.44,6.982,6.982,0,0,0-7.04,6.96,6.368,6.368,0,0,0,6.56,6.68,5.634,5.634,0,0,0,3.48-1.08c-1.6,3.64-5.28,5.88-10.6,7.08l2.68,2.64c9.32-2.8,11.96-8.8,11.96-14.2a9.719,9.719,0,0,0-1.28-5.12c-.04-1.84-.08-4.32-.08-6.6H85c5.84,0,9.48.08,11.72.2l.04-2.96c-1.92,0-6.84-.04-11.72-.04h-.6c0-1.08.04-2,.04-2.6C84.52-29.68,84.6-31.24,84.68-31.68ZM74.72-13.2a4.076,4.076,0,0,1,4.04-4.24,3.586,3.586,0,0,1,3.56,2.52c.36,3.8-1.16,5.68-3.52,5.68A3.852,3.852,0,0,1,74.72-13.2Zm37.24-11.72a44.271,44.271,0,0,0-7.32-5.88l-2.12,2.12a46.512,46.512,0,0,1,7.2,6.12Zm-1.4,10.44c-3.4,3.52-7,7.2-9.32,9.36l1.92,2.44c2.72-2.56,6.04-6.04,9-9.24Zm14.96-8.88h8.24a43.963,43.963,0,0,1-3.08,7.44c.72.28,1.84.92,2.48,1.2a52.462,52.462,0,0,0,4.4-10.56l-2.16-1.2-.6.16H118.68c.72-2.08,1.32-4.24,1.88-6.48l-3.12-.56c-1.36,6.36-3.8,12.52-7.16,16.44a17.722,17.722,0,0,1,2.84,1.68,37.745,37.745,0,0,0,4.44-8.12h4.88v5.04c0,3.72-2.08,14.16-14.2,18.96a13.2,13.2,0,0,1,1.84,2.4C119.64-1,123.28-9,123.96-12.76a22.605,22.605,0,0,0,12.32,15.8c.48-.72,1.4-1.96,1.92-2.64a21.12,21.12,0,0,1-12.68-18.72ZM161-12.32v-8.36h7.52v8.36Zm10.48,4.56V-20.68h6.2v-2.84h-6.2v-9.24h-2.96v9.24H161v-9.72h-2.92v9.72h-7.44V-32.4H147.6v8.88h-5.96v2.84h5.96V3.04h3.04V.12h25.68V-2.76H150.64V-20.68h7.44V-7.56H161V-9.52h7.52v1.76ZM216.84-26.2a42.211,42.211,0,0,0-6.6-6.4l-2.16,1.44a42.68,42.68,0,0,1,6.44,6.56ZM192.16-33A44.841,44.841,0,0,1,180.6-16.76a19.546,19.546,0,0,1,1.72,2.88,45.331,45.331,0,0,0,5.36-5.88V3h3V-24.04a53.919,53.919,0,0,0,4.28-8.08ZM217.6-20.12l-.4-2.8L205.24-21.4c-.4-3.52-.64-7.4-.76-11.44h-2.96c.16,4.16.44,8.12.76,11.84l-9.68,1.2L193-17l9.6-1.2c1.52,12.48,4.72,20.76,11.28,21.24,2.08.12,3.68-1.96,4.56-8.8a12.1,12.1,0,0,1-2.48-1.56c-.4,4.6-1.04,6.96-2.2,6.88-4.28-.4-6.88-7.56-8.24-18.16Zm28.8-11.36a40.948,40.948,0,0,1,7.08,4.8l1.84-2.04a38.154,38.154,0,0,0-7.16-4.56Zm5.68,10.8a39.612,39.612,0,0,1-5.12,10.8,72.147,72.147,0,0,1-2.2-13.88h12.72v-2.92H244.56c-.12-2.16-.16-4.4-.16-6.72h-3.08c.04,2.28.08,4.52.24,6.72H224.88v11.16c0,5.16-.36,12-3.64,16.88a11.831,11.831,0,0,1,2.48,2c3.6-5.2,4.2-13.24,4.2-18.84v-.32h7.28c-.16,6.88-.36,9.4-.92,10-.24.36-.64.44-1.2.44-.68,0-2.4-.04-4.24-.2a6.182,6.182,0,0,1,.84,2.8,46.155,46.155,0,0,0,4.76,0,3.094,3.094,0,0,0,2.4-1.16c.84-1.04,1.08-4.4,1.28-13.36v-1.28h-10.2v-5.2h13.8a78.652,78.652,0,0,0,2.92,16.84,31.921,31.921,0,0,1-9.2,7.4,16.742,16.742,0,0,1,2.16,2.36,35.762,35.762,0,0,0,8.24-6.64c1.84,4.12,4.24,6.56,7.32,6.56,3.04,0,4.12-1.96,4.68-8.76a7.031,7.031,0,0,1-2.56-1.6c-.28,5.32-.76,7.4-1.88,7.4-2.04,0-3.88-2.28-5.36-6.2a45.1,45.1,0,0,0,7.04-13.52Zm20.56-11.96A33.975,33.975,0,0,1,260.68-17.6a17.289,17.289,0,0,1,2.52,2.28,41.212,41.212,0,0,0,12.56-16.44Zm-5.48,14.2v2.88h8.16C274.4-8.8,272.2-2.48,262.8.64a11.8,11.8,0,0,1,1.92,2.6c10.16-3.68,12.72-10.92,13.76-18.8H288.8c-.48,10.08-1.04,14.08-2.08,15.08-.36.44-.84.52-1.68.52-.92,0-3.4-.04-6-.28a7.231,7.231,0,0,1,1,2.96,57.3,57.3,0,0,0,6.28.08,4.012,4.012,0,0,0,3.08-1.4c1.36-1.52,1.96-6.12,2.52-18.4.04-.4.08-1.44.08-1.44ZM283.64-31.6a52.9,52.9,0,0,0,12.4,15.92,15.294,15.294,0,0,1,2.44-2.64,42.325,42.325,0,0,1-12.04-14.4Z" transform="translate(800 5707)" fill="#3c505a"/>
      <path id="Path_181" data-name="Path 181" d="M-147.4-10.12h6.2v-2.64h-6.2v-5.68h6.28a12.052,12.052,0,0,1,1.6,1.4c4.28-2.52,6.76-6.24,7.56-12.2h6.12c-.28,5.2-.64,7.24-1.16,7.84a1.264,1.264,0,0,1-1.2.36c-.6,0-2.16,0-3.8-.16a7.276,7.276,0,0,1,.76,2.56,31.06,31.06,0,0,0,4.36,0,3.128,3.128,0,0,0,2.32-1c.88-1,1.24-3.8,1.6-10.92.04-.4.04-1.24.04-1.24H-140.4v2.56h5.56c-.56,4.72-2.44,7.84-6,9.88v-1.72h-7.04V-26h6.24v-2.64h-6.24v-4.8h-2.76v4.8H-157V-26h6.36v4.92h-7.12v2.64h7.68V-3.76a13.2,13.2,0,0,1-3.44-5.96c.12-1.8.2-3.72.24-5.68l-2.72-.16c-.08,7-.48,13.24-2.76,17.24a18.416,18.416,0,0,1,2.36,1.44,23.791,23.791,0,0,0,2.36-7.84c2.92,5.44,7.64,6.76,16.16,6.76h15.28a9.684,9.684,0,0,1,1.24-2.96c-2.48.12-14.64.12-16.6.08-3.96,0-7.04-.32-9.44-1.28Zm11.12-3.84h9.52V-6.6h-9.52Zm-2.8,9.84h15.24V-16.44h-15.24ZM-100-19.44a4.217,4.217,0,0,0-4.24,4.24A4.217,4.217,0,0,0-100-10.96a4.217,4.217,0,0,0,4.24-4.24A4.217,4.217,0,0,0-100-19.44Zm54.8-12.6H-64.64v2.32H-48v2.76H-63.72v2.16H-48V-22H-64.92v2.32H-45.2Zm-19.48,17.2h19.32v4.12h2.84v-6.52H-67.4v6.68h2.72Zm-3.16-14a25.762,25.762,0,0,0-6.8-4.28l-1.68,2.16a28.319,28.319,0,0,1,6.76,4.48ZM-69.8-18.52a29.955,29.955,0,0,0-6.88-3.96l-1.68,2.2a29.166,29.166,0,0,1,6.84,4.2Zm-1,6.44A113.547,113.547,0,0,1-77.28.68l2.6,1.84c2.04-3.72,4.4-8.64,6.2-12.84Zm20.84,2.64a17.608,17.608,0,0,1-5.12,5.2,15.357,15.357,0,0,1-4.72-5.2Zm2.08-2.48-.56.12H-64.32v2.36h3.76l-1.96.6A19.592,19.592,0,0,0-57.56-2.8a36.364,36.364,0,0,1-11,3.36A9.713,9.713,0,0,1-67.08,3,38.909,38.909,0,0,0-55.16-1.08a32.2,32.2,0,0,0,11.8,4.16A10.917,10.917,0,0,1-41.52.48,34.706,34.706,0,0,1-52.6-2.72,19.535,19.535,0,0,0-46-11.08Zm31.6-5.12h2.84v-5.48A28.742,28.742,0,0,0-3.2-15.2a8.835,8.835,0,0,1,1.8-2.2,25.969,25.969,0,0,1-10.36-6.36h9.68v-2.36H-13.44V-29.4A84.63,84.63,0,0,0-3.8-30.76l-1.92-2c-4.72,1-13.36,1.72-20.52,2a8.429,8.429,0,0,1,.68,2.08c2.92-.08,6.12-.24,9.28-.48v3.04H-27.44v2.36h9.32a27.925,27.925,0,0,1-10.6,6.8,10.1,10.1,0,0,1,1.84,2.08,30.175,30.175,0,0,0,10.6-7.6Zm6.6,4.52c.24-1.2.44-2.44.64-3.6H-24.28v2.36h4.76c-.76,4.24-2.52,7.36-7.92,9.08a8.613,8.613,0,0,1,1.6,2.2c6.16-2.12,8.24-5.96,9.08-11.28h4.72c-.32,1.6-.68,3.24-1.04,4.48l2.56.32a10.65,10.65,0,0,0,.32-1.32h3.92c-.36,3-.72,4.32-1.2,4.8-.32.28-.68.28-1.36.28-.6,0-2.48,0-4.4-.16a6.6,6.6,0,0,1,.72,2.28,39.794,39.794,0,0,0,4.84.04,3.15,3.15,0,0,0,2.4-.84c.92-.84,1.4-2.84,1.84-7.48a8.043,8.043,0,0,0,.08-1.16ZM-28.92-25.96a29.905,29.905,0,0,0-6.44-6.52l-2.28,1.68a29.551,29.551,0,0,1,6.32,6.68Zm-1.2,8.16H-38V-15h5.08V-4.76a65.839,65.839,0,0,1-5.52,4.6l1.56,2.84c1.96-1.72,3.8-3.4,5.56-5.12C-28.84.68-25.24,2.08-20,2.28c4.48.2,12.92.12,17.4-.08A10.889,10.889,0,0,1-1.64-.72c-4.8.32-14,.44-18.4.24C-24.72-.64-28.24-2-30.12-4.96Zm49.64-6.96V-33.4H16.44v8.64H3.48v2.96h12.8c-.6,7.48-3.16,16.24-14,22.68A10.64,10.64,0,0,1,4.56,3.24C16.16-3.84,18.8-13.52,19.36-21.8H33C32.24-7.72,31.36-2.08,29.92-.72a2.294,2.294,0,0,1-1.84.6c-1,0-3.56-.04-6.28-.28a6.507,6.507,0,0,1,1,3.04,51.7,51.7,0,0,0,6.4.12,4.4,4.4,0,0,0,3.4-1.6c1.76-2,2.6-7.96,3.48-24.36.04-.44.08-1.56.08-1.56ZM76.32-14c0-8.12-5.96-14.72-15.32-14.72-9.76,0-17.48,7.6-17.48,16.28,0,6.6,3.56,10.68,7.12,10.68,3.72,0,6.88-4.2,9.32-12.44a78.685,78.685,0,0,0,2.4-11.52c6.8.56,10.68,5.56,10.68,11.6C73.04-7.2,68-3.4,62.88-2.24a30.215,30.215,0,0,1-3.44.52l1.88,2.96C70.8,0,76.32-5.6,76.32-14ZM46.64-12.72c0-5.44,4.72-12,12.4-12.96a65.355,65.355,0,0,1-2.24,10.8c-2.04,6.76-4.16,9.44-6.04,9.44C48.96-5.44,46.64-7.68,46.64-12.72Zm70.96,5.4V-9.96H100.64a17.617,17.617,0,0,0,.64-3.76h11.88V-16.2h-11.8v-3.56h12.36v-2.12h3v-7.68H101.44v-3.88H98.48v3.88H83.24v7.68h2.88v-5h27.6v4.6H101.36V-25.6H98.4v3.32H86.6v2.52H98.4v3.56H87.24v2.48H98.32a12.581,12.581,0,0,1-.76,3.76H82.64v2.64H96.2c-2.08,3-6.16,5.8-13.96,7.96a11.74,11.74,0,0,1,1.8,2.4C93.16.32,97.52-3.36,99.6-7.32h.36C103-1.6,108.44,1.76,116.24,3.12a11.375,11.375,0,0,1,1.8-2.56c-6.96-1-12.08-3.6-14.92-7.88ZM136-10.04l-5.52,1.56V-17.4h4.92v-2.76h-4.92v-8.52h5.28V-31.4H122.12v2.72h5.52v8.52H122.6v2.76h5.04v9.68c-2.36.68-4.52,1.24-6.28,1.68l.8,2.84c3.88-1.16,9.2-2.72,14.2-4.2Zm4.4-6.4h12.96v4.08H140.4Zm0-6.4h12.96v4H140.4Zm0-6.36h12.96v4H140.4ZM152,.2c-1,0-1.16-.16-1.16-1.16V-9.84h5.44V-31.72H137.6V-9.84h3.56c-.64,5.16-2.44,8.76-9.48,10.68a8.88,8.88,0,0,1,1.68,2.44c7.76-2.4,9.92-6.76,10.72-13.12H148V-.96c0,2.88.72,3.72,3.56,3.72h3.88c2.4,0,3.16-1.24,3.36-6.12a7.053,7.053,0,0,1-2.48-1.16C156.2-.4,156.04.2,155.12.2Z" transform="translate(800 5832)" fill="#3c505a"/>
    </g>
    <path id="Path_183" data-name="Path 183" d="M-3.33-7.08a.907.907,0,0,0,.9-.9.907.907,0,0,0-.9-.9.907.907,0,0,0-.9.9A.907.907,0,0,0-3.33-7.08Zm0,2.172-3.96-3.96-.348.348,3.96,3.96L-7.65-.588-7.3-.24-3.33-4.212.63-.252.978-.6l-3.96-3.96L.978-8.52.63-8.868Zm-2.52.348a.907.907,0,0,0-.9-.9.907.907,0,0,0-.9.9.907.907,0,0,0,.9.9A.907.907,0,0,0-5.85-4.56Zm5.04,0a.907.907,0,0,0,.9.9.907.907,0,0,0,.9-.9.907.907,0,0,0-.9-.9A.907.907,0,0,0-.81-4.56ZM-3.33-2.04a.907.907,0,0,0-.9.9.907.907,0,0,0,.9.9.907.907,0,0,0,.9-.9A.907.907,0,0,0-3.33-2.04ZM5.838.156a2.561,2.561,0,0,0,2.82-2.508A2.263,2.263,0,0,0,6.8-4.584v-.048a2.2,2.2,0,0,0,1.56-2.124A2.26,2.26,0,0,0,5.8-8.964a3.522,3.522,0,0,0-2.46,1.056l.588.7a2.568,2.568,0,0,1,1.824-.852A1.35,1.35,0,0,1,7.242-6.672c0,.948-.624,1.68-2.436,1.68v.84c2.028,0,2.736.708,2.736,1.752A1.622,1.622,0,0,1,5.754-.756,2.908,2.908,0,0,1,3.57-1.764l-.552.72A3.641,3.641,0,0,0,5.838.156Z" transform="translate(846 5621)" fill="#3c505a" stroke="rgba(0,0,0,0)" stroke-width="1"/>
  </g>
</svg>
