<svg xmlns="http://www.w3.org/2000/svg" xmlns:xlink="http://www.w3.org/1999/xlink" width="360.864" height="354.415" viewBox="0 0 360.864 354.415">
  <defs>
    <linearGradient id="linear-gradient" y1="0.5" x2="1" y2="0.5" gradientUnits="objectBoundingBox">
      <stop offset="0" stop-color="#dff4e3"/>
      <stop offset="0.485" stop-color="#c2ead5"/>
      <stop offset="1" stop-color="#6fb377"/>
    </linearGradient>
    <linearGradient id="linear-gradient-2" y1="0.5" x2="1" y2="0.5" gradientUnits="objectBoundingBox">
      <stop offset="0" stop-color="#fb8d80"/>
      <stop offset="0.23" stop-color="#dfcfc0"/>
      <stop offset="1" stop-color="#ffdbd0"/>
    </linearGradient>
    <linearGradient id="linear-gradient-3" y1="0.5" x2="1" y2="0.5" gradientUnits="objectBoundingBox">
      <stop offset="0" stop-color="#ade0c8"/>
      <stop offset="0.262" stop-color="#c1e5ca"/>
      <stop offset="0.51" stop-color="#dff4e3"/>
      <stop offset="0.714" stop-color="#ffdbd1"/>
      <stop offset="1" stop-color="#f98478"/>
    </linearGradient>
    <linearGradient id="linear-gradient-4" x1="0.208" y1="0.787" x2="0.599" y2="0.279" gradientUnits="objectBoundingBox">
      <stop offset="0" stop-color="#a0e7e5" stop-opacity="0.588"/>
      <stop offset="1" stop-color="#a0e7e5"/>
    </linearGradient>
    <linearGradient id="linear-gradient-5" x1="0" y1="0.5" x2="1" y2="0.5" xlink:href="#linear-gradient-4"/>
    <linearGradient id="linear-gradient-6" x1="0.793" y1="0.237" x2="0.309" y2="0.794" xlink:href="#linear-gradient-4"/>
    <linearGradient id="linear-gradient-7" x1="0.803" y1="0.757" x2="0.112" y2="0.347" xlink:href="#linear-gradient-4"/>
  </defs>
  <g id="Group_356" data-name="Group 356" transform="translate(98.905 13773)">
    <g id="Layer_2" data-name="Layer 2" transform="translate(-98.905 -13773)">
      <path id="Path_95" data-name="Path 95" d="M297.193,287.405V0H179.18V287.405H153.5l84.686,67.009,84.687-67.009Z" transform="translate(-57.754)" fill="#fdebb0"/>
      <g id="Group_128" data-name="Group 128" transform="translate(0 82.266)">
        <path id="Path_96" data-name="Path 96" d="M178.885,236.716a.3.3,0,0,0-.062.05c-8.4,5.951-11.29,10-20.072,17.284-.175.143-.356.287-.53.43-8.851-6.032-50.555-33.72-70.739-34.138h-.05c-20.49-2.033-74.507,3.35-78.967,41.174-1.653,14.047,4.266,25.3,12.862,34.057C8.708,285.905,0,272.725,0,256.146c0-39.215,48.727-59.356,82.909-59.356,30.963,0,58.826,13.61,95.976,39.926Z" transform="translate(0 -196.784)" fill="url(#linear-gradient)"/>
        <path id="Path_97" data-name="Path 97" d="M471.448,268.483c0,39.234-48.727,59.356-82.909,59.356s-69.136-21.388-94.629-41.8c9.219-7.373,16.866-13.723,21.856-18.12,24.644,17.64,45.808,37.325,76.478,36.938a53.371,53.371,0,0,0,13.068-1.622c23.746-2.339,51.534-12.151,57.3-38.735,3.144-14.427-3.063-25.923-11.833-34.924,12.263,9.637,20.665,22.623,20.665,38.9Z" transform="translate(-110.584 -209.121)" fill="url(#linear-gradient-2)"/>
        <path id="Path_98" data-name="Path 98" d="M356.971,252.169c-5.77,26.584-33.558,36.4-57.3,38.735,19.542-4.89,33.383-20.185,33.383-34.762,0-16.4-14.8-27.1-31.331-32.229a78.706,78.706,0,0,0-22.929-3.593c-31.792,0-62.961,30.189-67.933,34.6-.243.206-.48.43-.736.655-4.984,4.391-12.637,10.741-21.856,18.12-.019.019-.05.031-.062.05C178.485,281.5,145.664,315.5,87.848,315.5a98.272,98.272,0,0,1-14.958-1.185c-16.193-2.42-33.5-8.708-46.594-18.725l-.031-.019c-8.6-8.751-14.508-20.01-12.862-34.057,4.46-37.824,58.477-43.213,78.967-41.174a3.219,3.219,0,0,0-.418-.019c-22.449,0-54.26,11.77-54.26,35.816,0,20.122,19.692,31.649,41.448,34.874a88.226,88.226,0,0,0,12.812.948c32.61,0,50.567-20.266,71.207-37.487.175-.143.356-.287.53-.43,8.789-7.279,11.67-11.334,20.072-17.284.019-.019.05-.031.062-.05,38.161-27,58.888-39.926,99.07-39.926a107.1,107.1,0,0,1,26.6,3.562c12.812,3.318,25.543,8.963,35.641,16.9,8.77,8.994,14.976,20.49,11.832,34.924Z" transform="translate(-4.939 -196.78)" fill="url(#linear-gradient-3)"/>
      </g>
      <g id="Group_129" data-name="Group 129" transform="translate(79.365 11.134)">
        <path id="Path_99" data-name="Path 99" d="M239.5,111.151a239.688,239.688,0,0,0-30.21-10.091l1.331,7.078a160.73,160.73,0,0,0-20.488,5.17,88.743,88.743,0,0,0-10.188,4.072c-.89.425-1.6.769-2.629,1.347a33.26,33.26,0,0,0-3.214,1.956,31.817,31.817,0,0,0-5.635,4.649,21.111,21.111,0,0,0-3.839,5.851l-.569,1.643-.337,1.715c-.08.577-.112,1.162-.176,1.739a14.192,14.192,0,0,0,.1,1.747,14.856,14.856,0,0,0,2.333,6.509,22.743,22.743,0,0,0,4.689,5.346,39.256,39.256,0,0,0,6.076,4.224c1.186.641,1.908,1.042,2.781,1.459.85.393,1.691.834,2.541,1.186,3.391,1.5,15.43,5.314,18.836,6.38a84.745,84.745,0,0,1-10.468-11.278,78.842,78.842,0,0,0,14.436-1.443c-3.03-.954-14.636-4.625-17.418-5.851-.713-.289-1.363-.641-2.044-.954-.657-.3-1.4-.737-1.707-.882a18.158,18.158,0,0,1-2.2-1.427,6.894,6.894,0,0,1-2.958-4.176c-.289-1.8.85-3.431,2.116-4.577a15.426,15.426,0,0,1,2.108-1.563,12.541,12.541,0,0,1,1.106-.641c.441-.257,1.242-.657,1.876-.954a75.557,75.557,0,0,1,8.593-3.431,147.626,147.626,0,0,1,18.74-4.713l1.331,7.078a224.674,224.674,0,0,1,25.08-17.169Z" transform="translate(-163.536 -100.082)" fill="url(#linear-gradient-4)"/>
        <path id="Path_100" data-name="Path 100" d="M355.033,120.135c-7.246-7.486-15.863-14.139-24.824-20.3l-1.154,7.11a297.7,297.7,0,0,0-41.231-3.559,327.338,327.338,0,0,0-41.264,1.691c4.785,1.739,9.466,3.551,14.059,5.515-4.32,2.477-8.544,5.082-12.648,7.743a316.363,316.363,0,0,1,39.58-1.619,283.615,283.615,0,0,1,39.364,3.391l-1.154,7.11a149.376,149.376,0,0,1,29.28-7.086Z" transform="translate(-180.012 -99.84)" fill="url(#linear-gradient-5)"/>
        <path id="Path_101" data-name="Path 101" d="M325.71,164.175a221.642,221.642,0,0,0,30.451,9.53l-1.491-7.046a136.477,136.477,0,0,0,20.455-5.859q2.549-.974,5.09-2.156c.85-.417,1.691-.8,2.541-1.258l1.555-.85c.553-.3,1.074-.633,1.6-.978,4.184-2.653,7.935-5.98,9.923-10.2a14.985,14.985,0,0,0,1.451-6.757,14.656,14.656,0,0,0-1.916-6.645c-2.276-4.064-6.1-7.334-10.38-9.867-.521-.321-1.106-.625-1.667-.938-.489-.257-.866-.489-1.3-.689-.85-.409-1.691-.842-2.541-1.218-1.691-.769-3.391-1.451-5.09-2.108-3.4-1.266-6.805-2.324-10.212-3.27a103.139,103.139,0,0,1,10.917,10.725,96.163,96.163,0,0,0-14.444,2.124c3.094.858,6.132,1.8,9.058,2.894,1.451.561,2.878,1.138,4.264,1.763.689.3,1.347.649,2.02.97.329.144.673.361.93.5l.545.3a12.491,12.491,0,0,1,3.992,3.35,4.538,4.538,0,0,1,.89,2.437,4.417,4.417,0,0,1-.681,2.493,11.217,11.217,0,0,1-3.871,3.479c-.184.12-.377.232-.561.329l-.665.361c-.633.345-1.331.657-2,.986-1.371.633-2.773,1.234-4.224,1.787a124.02,124.02,0,0,1-18.42,5.258l-1.491-7.046a207.742,207.742,0,0,1-24.7,17.6Z" transform="translate(-195.72 -102.624)" fill="url(#linear-gradient-6)"/>
        <path id="Path_102" data-name="Path 102" d="M201.86,165.377a182.36,182.36,0,0,0,25.265,19.6l1.026-7.126a309.916,309.916,0,0,0,41.248,2.934,318.93,318.93,0,0,0,41.256-2.26c-4.817-1.659-9.53-3.407-14.147-5.3,4.288-2.541,8.472-5.2,12.52-7.935a307.913,307.913,0,0,1-39.524,2.164,298.151,298.151,0,0,1-39.452-2.8l1.026-7.126a170.154,170.154,0,0,1-29.2,7.855Z" transform="translate(-171.142 -111.289)" fill="url(#linear-gradient-7)"/>
      </g>
      <ellipse id="Ellipse_88" data-name="Ellipse 88" cx="69.978" cy="22.237" rx="69.978" ry="22.237" transform="translate(110.454 196.026)" fill="#ffd899"/>
    </g>
    <path id="Path_191" data-name="Path 191" d="M-36.828-5.412h3.19V-7.194h-3.19V-9.988H-33.4v-.352a12.076,12.076,0,0,1,1.012.836,8.288,8.288,0,0,0,3.916-6.336h2.882c-.132,2.464-.286,3.432-.55,3.74a.782.782,0,0,1-.66.22,18.767,18.767,0,0,1-1.936-.088A4.546,4.546,0,0,1-28.2-10.23a19.981,19.981,0,0,0,2.376-.022,1.911,1.911,0,0,0,1.364-.638c.484-.572.7-2.112.88-5.94.022-.242.022-.748.022-.748h-9.57v1.738H-30.4a6.291,6.291,0,0,1-2.992,4.8v-.77h-3.7v-2.4h3.278v-1.782h-3.278v-2.464h-1.892v2.464h-3.388v1.782h3.388v2.4h-3.828v1.826h4.158v7.414a6.472,6.472,0,0,1-1.606-2.86c.044-.99.088-2,.11-3.058l-1.826-.132c-.044,3.806-.22,7.26-1.43,9.438a11.59,11.59,0,0,1,1.65.924A12.607,12.607,0,0,0-40.612-2.2c1.65,2.75,4.29,3.388,8.69,3.388H-23.5A6.891,6.891,0,0,1-22.66-.836c-1.628.066-7.964.066-9.284.044a14.112,14.112,0,0,1-4.884-.616ZM-30.6-7.5h4.51v3.454H-30.6Zm-1.892,5.1h8.448V-9.174h-8.448ZM-11-10.912A2.554,2.554,0,0,0-13.552-8.36,2.554,2.554,0,0,0-11-5.808,2.554,2.554,0,0,0-8.448-8.36,2.554,2.554,0,0,0-11-10.912Zm30.25-6.82H8.492v1.562h8.8v1.254H9.042v1.43h8.25v1.254H8.316v1.584H19.25ZM6.886-16.082a14.313,14.313,0,0,0-3.762-2.244L1.98-16.808a15.786,15.786,0,0,1,3.7,2.4Zm-1.122,5.7a15.32,15.32,0,0,0-3.784-2.09L.836-10.934a14.9,14.9,0,0,1,3.74,2.266ZM4.972-6.776A66.625,66.625,0,0,1,1.43.242l1.8,1.21c1.122-2.068,2.354-4.686,3.322-7Zm11.176,1.8a8.968,8.968,0,0,1-2.42,2.4,8.073,8.073,0,0,1-2.266-2.4Zm2.64-2.948v1.826l-1.21-.528-.374.088H8.844V-7.92Zm0,2.156h1.958V-9.548H6.974V-5.7H8.712v.726h2.31l-1.386.418a11.114,11.114,0,0,0,2.376,2.948A20.078,20.078,0,0,1,6.4.022,5.711,5.711,0,0,1,7.37,1.716,21.139,21.139,0,0,0,13.684-.4,18.073,18.073,0,0,0,20.02,1.738,6.544,6.544,0,0,1,21.23-.044a19.356,19.356,0,0,1-5.764-1.518A10.7,10.7,0,0,0,18.788-5.83Zm9.46-8.624a16.354,16.354,0,0,0-3.476-3.52L23.21-16.764A15.708,15.708,0,0,1,26.6-13.09Zm-.594,4.466h-4.6V-8.03H25.7v5.3A30.335,30.335,0,0,1,22.814-.484L23.826,1.54C24.9.594,25.872-.286,26.8-1.188c1.342,1.694,3.234,2.42,5.962,2.53,2.552.088,7.216.044,9.746-.066a8.909,8.909,0,0,1,.66-2c-2.794.2-7.9.264-10.384.154-2.442-.11-4.18-.792-5.126-2.31Zm15.224-2.992v-1.562H36.85v-1.562a51.8,51.8,0,0,0,5.17-.748l-1.3-1.342a75.919,75.919,0,0,1-11.066,1.056,6.213,6.213,0,0,1,.462,1.408c1.518-.044,3.146-.11,4.774-.22v1.408h-5.94v1.562h4.84A15.263,15.263,0,0,1,28.226-9.68a6.964,6.964,0,0,1,1.232,1.452c.374-.154.77-.33,1.166-.528v1.364h2.4c-.352,2.112-1.254,3.608-4.136,4.466a5.511,5.511,0,0,1,1.078,1.5c3.41-1.122,4.532-3.124,4.95-5.962H37.07c-.176.836-.352,1.65-.528,2.288l1.716.242c.066-.242.132-.484.2-.77H40.3c-.154,1.386-.352,2.024-.594,2.244-.154.154-.352.176-.726.176-.352,0-1.3-.022-2.288-.11a4.479,4.479,0,0,1,.484,1.54,21.529,21.529,0,0,0,2.64.022,1.829,1.829,0,0,0,1.43-.528c.506-.484.792-1.628.99-4.114l.066-.726h-3.52c.132-.616.242-1.232.352-1.826H31a15.587,15.587,0,0,0,3.894-2.926v2.486H36.85v-2.574a14.672,14.672,0,0,0,5.236,3.52A7.976,7.976,0,0,1,43.3-9.966a13.273,13.273,0,0,1-5.39-2.948Z" transform="translate(81.429 -13458.309)" fill="#3c505a"/>
    <path id="Path_190" data-name="Path 190" d="M-27.36-5.508V-5.94h1.32c.528,0,.972.024,1.1.036V-6.912a8.823,8.823,0,0,1-1.1.06h-1.32v-1.5a9.1,9.1,0,0,1,.06-.984h-1.08a6.69,6.69,0,0,1,.06.984v1.5h-3.42V-8.388a7.407,7.407,0,0,1,.06-.876h-1.068a7.41,7.41,0,0,1,.048.876v1.536H-34a8.8,8.8,0,0,1-1.2-.084v1.044c.144-.012.684-.048,1.2-.048h1.3V-4c0,.456-.036.972-.048,1.092h1.056c-.012-.12-.048-.648-.048-1.092V-5.94h3.42v.5c0,3.36-1.092,4.392-3.276,5.232l.8.756C-28.044-.672-27.36-2.316-27.36-5.508Zm12.42-3.36a.763.763,0,0,1,.756-.768.776.776,0,0,1,.78.768.768.768,0,0,1-.78.768A.756.756,0,0,1-14.94-8.868Zm-.552,0A1.3,1.3,0,0,0-14.184-7.56a1.306,1.306,0,0,0,1.32-1.308,1.324,1.324,0,0,0-1.32-1.32A1.321,1.321,0,0,0-15.492-8.868Zm-2-.384h-1.128a4.352,4.352,0,0,1,.084.852v1.236h-3.336a8.976,8.976,0,0,1-1.02-.06v1.008c.324-.024.66-.036,1.02-.036h3.336V-.84c0,.312-.144.456-.468.456a8.536,8.536,0,0,1-1.38-.144l.084.96c.48.048,1.2.084,1.7.084.72,0,1.032-.324,1.032-.96V-6.252h3.18c.288,0,.648,0,.972.024v-1a9.208,9.208,0,0,1-.984.06h-3.168V-8.388A5.686,5.686,0,0,1-17.5-9.252ZM-15.12-4.8l-.816.432a19.937,19.937,0,0,1,2,3.192l.888-.492A25.743,25.743,0,0,0-15.12-4.8Zm-5.016.4-.84-.408a12.813,12.813,0,0,1-2.292,3.144l.828.552A17.392,17.392,0,0,0-20.136-4.4Zm9.36-.792V-4.02c.372-.036,1.008-.06,1.668-.06H-2.52c.54,0,1.044.048,1.284.06V-5.2c-.264.024-.7.06-1.3.06H-9.108C-9.78-5.136-10.416-5.172-10.776-5.2Zm14.82,4.14A10.574,10.574,0,0,1,3.96.36H5.124c-.048-.4-.072-1.044-.072-1.416,0-.348,0-2.16-.012-3.96A31.461,31.461,0,0,1,9.756-3.084l.408-1.02A38.354,38.354,0,0,0,5.04-6.084V-8.04c0-.36.048-.876.084-1.248H3.948a7.574,7.574,0,0,1,.1,1.248Zm16-8.388A12.285,12.285,0,0,1,22.164-8l.552-.612a11.446,11.446,0,0,0-2.148-1.368Zm1.7,3.24a11.883,11.883,0,0,1-1.536,3.24,21.644,21.644,0,0,1-.66-4.164h3.816V-8H19.488c-.036-.648-.048-1.32-.048-2.016h-.924c.012.684.024,1.356.072,2.016h-5v3.348A9.313,9.313,0,0,1,12.492.408a3.55,3.55,0,0,1,.744.6c1.08-1.56,1.26-3.972,1.26-5.652v-.1H16.68c-.048,2.064-.108,2.82-.276,3-.072.108-.192.132-.36.132-.2,0-.72-.012-1.272-.06a1.854,1.854,0,0,1,.252.84,13.846,13.846,0,0,0,1.428,0,.928.928,0,0,0,.72-.348c.252-.312.324-1.32.384-4.008v-.384H14.5v-1.56h4.14a23.6,23.6,0,0,0,.876,5.052,9.576,9.576,0,0,1-2.76,2.22A5.023,5.023,0,0,1,17.4.852,10.729,10.729,0,0,0,19.872-1.14C20.424.1,21.144.828,22.068.828S23.3.24,23.472-1.8a2.109,2.109,0,0,1-.768-.48c-.084,1.6-.228,2.22-.564,2.22-.612,0-1.164-.684-1.608-1.86a13.531,13.531,0,0,0,2.112-4.056Zm6.168-3.588A10.192,10.192,0,0,1,24.324-5.28a5.186,5.186,0,0,1,.756.684,12.364,12.364,0,0,0,3.768-4.932Zm-1.644,4.26v.864h2.448C28.44-2.64,27.78-.744,24.96.192a3.539,3.539,0,0,1,.576.78c3.048-1.1,3.816-3.276,4.128-5.64h3.1c-.144,3.024-.312,4.224-.624,4.524-.108.132-.252.156-.5.156-.276,0-1.02-.012-1.8-.084a2.169,2.169,0,0,1,.3.888A17.19,17.19,0,0,0,32.016.84,1.2,1.2,0,0,0,32.94.42c.408-.456.588-1.836.756-5.52.012-.12.024-.432.024-.432ZM31.212-9.48A15.87,15.87,0,0,0,34.932-4.7a4.588,4.588,0,0,1,.732-.792,12.7,12.7,0,0,1-3.612-4.32Z" transform="translate(80.245 -13548.69)" fill="#3c505a"/>
    <path id="Path_189" data-name="Path 189" d="M-27.36-5.508V-5.94h1.32c.528,0,.972.024,1.1.036V-6.912a8.823,8.823,0,0,1-1.1.06h-1.32v-1.5a9.1,9.1,0,0,1,.06-.984h-1.08a6.69,6.69,0,0,1,.06.984v1.5h-3.42V-8.388a7.407,7.407,0,0,1,.06-.876h-1.068a7.41,7.41,0,0,1,.048.876v1.536H-34a8.8,8.8,0,0,1-1.2-.084v1.044c.144-.012.684-.048,1.2-.048h1.3V-4c0,.456-.036.972-.048,1.092h1.056c-.012-.12-.048-.648-.048-1.092V-5.94h3.42v.5c0,3.36-1.092,4.392-3.276,5.232l.8.756C-28.044-.672-27.36-2.316-27.36-5.508Zm4.584.312V-4.02c.372-.036,1.008-.06,1.668-.06h6.588c.54,0,1.044.048,1.284.06V-5.2c-.264.024-.7.06-1.3.06h-6.576C-21.78-5.136-22.416-5.172-22.776-5.2ZM-10.008-8.34l.24.888c.924-.012,2.28-.048,3.492-.168v2.184H-9.888c-.36,0-.78-.024-1.056-.048v1c.288-.024.7-.048,1.08-.048H-6.3A4.763,4.763,0,0,1-9.336-.168l.948.66A5.687,5.687,0,0,0-5.316-4.536h3.348c.3,0,.66.024.924.048v-1c-.252.024-.684.048-.948.048H-5.3v-2.3c.864-.132,1.788-.312,2.388-.468.168-.048.408-.108.672-.18l-.636-.828a16.273,16.273,0,0,1-3.1.7A28.968,28.968,0,0,1-10.008-8.34ZM8.844-5.712,8.112-6.06a2.06,2.06,0,0,1-.6.084H3.864a8.193,8.193,0,0,1-.948-.072V-5.04c.3-.012.612-.036.96-.036H7.692c-.036.684-.384,3.024-.564,4.032H2.784c-.36,0-.708-.024-1-.048v1c.348-.024.624-.036,1-.036H9.36c.252,0,.7.012.912.024V-1.08c-.252.024-.684.036-.948.036H8.148c.168-1.1.516-3.48.612-4.3A2.67,2.67,0,0,1,8.844-5.712Zm4.188,1.38.48.936a23.7,23.7,0,0,0,4.572-1.956v4.44A11.132,11.132,0,0,1,18.012.372h1.176a9.055,9.055,0,0,1-.072-1.284V-5.976a19.632,19.632,0,0,0,3.24-2.676l-.8-.744a14.3,14.3,0,0,1-3.276,2.82A19.837,19.837,0,0,1,13.032-4.332ZM26.724-8.8l-.684.732a24.922,24.922,0,0,1,2.988,2.508l.756-.756A26.277,26.277,0,0,0,26.724-8.8ZM25.692-.756l.636.984a13.153,13.153,0,0,0,4.716-1.86A11.989,11.989,0,0,0,35.076-5.9L34.5-6.924a11.3,11.3,0,0,1-4.008,4.416A12.391,12.391,0,0,1,25.692-.756Zm-38.58,6.68V5.18h1.74v.744Zm4.38-.744v.744h-1.8V5.18ZM-6.66,7.028h-3.648V6.464h2.664V4.64h-2.664V3.968h-.84V4.64h-2.568V6.464h2.568v.564h-3.48V7.64H-6.66Zm-8.016-.816a8.972,8.972,0,0,0-1.932-1.956l-.684.5a8.865,8.865,0,0,1,1.9,2Zm1.9,4.656h4.2v.612h-4.2Zm0-1.092h4.2v.6h-4.2Zm0-1.08h4.2v.588h-4.2Zm.852,3.3h2.28l-.492.348A16.163,16.163,0,0,1-7.7,13.6l.768-.42A20.315,20.315,0,0,0-9.42,12h1.7v-3.8h-5.892V12h1.632a7.671,7.671,0,0,1-2.184,1.152c.156.108.432.336.6.48a2.673,2.673,0,0,1-1.476-1.1V8.66H-17.4V9.5h1.524v3.108a19.618,19.618,0,0,1-1.632,1.38l.468.828c.588-.528,1.128-1.044,1.656-1.548A4.2,4.2,0,0,0-12,14.684c1.344.06,3.888.036,5.22-.024a3.745,3.745,0,0,1,.288-.852c-1.44.108-4.2.144-5.52.084a5.944,5.944,0,0,1-1.464-.228,9.568,9.568,0,0,0,2.292-1.416Zm16.812-7.1h-6.24v.852h6.24Zm-7.536-.9A13.4,13.4,0,0,1-5.724,8.72a5.37,5.37,0,0,1,.5.864A12.863,12.863,0,0,0-3.888,8v6.876h.84V6.716A17.529,17.529,0,0,0-1.824,4.244ZM5.64,14.528A14.5,14.5,0,0,0,3.48,10.76l-.768.348a18.319,18.319,0,0,1,1.26,1.968c-1.416.12-2.856.228-4.116.312C.348,12.224.876,10.64,1.284,9.32H5.532V8.456H-2.256V9.32H.252a28.207,28.207,0,0,1-1.32,4.128c-.48.036-.924.06-1.32.084l.168.9C-.492,14.3,2,14.1,4.38,13.88a8.242,8.242,0,0,1,.42,1.044ZM17.424,9.284H12.48V8.108A18.14,18.14,0,0,0,16.4,5.24l-.648-.492L15.54,4.8H7.848V5.66H14.6a15.27,15.27,0,0,1-2.472,1.7h-.564v1.92H6.612v.888h4.956V13.76c0,.216-.072.276-.336.288s-1.14.012-2.1-.024a4.228,4.228,0,0,1,.384.912,8.891,8.891,0,0,0,2.364-.156c.444-.144.6-.42.6-1.02V10.172h4.944Z" transform="translate(181.254 -13622.793)" fill="#3c505a"/>
    <path id="Path_188" data-name="Path 188" d="M-22.616,0h1.936V-8.47c0-1.694-.154-3.41-.242-5.038h.088l1.738,3.322L-13.222,0h2.09V-16.148h-1.936v8.4c0,1.672.154,3.476.264,5.1h-.11L-14.63-5.962-20.5-16.148h-2.112ZM-6.732,0h1.848V-8.932c0-1.386-.154-3.344-.242-4.752h.088l1.276,3.674L-.7-1.628H.66L3.718-10.01l1.276-3.674h.088c-.11,1.408-.264,3.366-.264,4.752V0H6.732V-16.148H4.268L1.188-7.5C.814-6.38.462-5.258.088-4.136h-.11C-.418-5.258-.792-6.38-1.166-7.5l-3.1-8.646H-6.732ZM11.132,0h1.936V-8.47c0-1.694-.154-3.41-.242-5.038h.088l1.738,3.322L20.526,0h2.09V-16.148H20.68v8.4c0,1.672.154,3.476.264,5.1h-.11L19.118-5.962,13.244-16.148H11.132Z" transform="translate(181.41 -13639)" fill="#3c505a"/>
    <path id="Path_187" data-name="Path 187" d="M-26.172-9.228h-1.116a5.844,5.844,0,0,1,.072.972v6.6c0,.972.516,1.392,1.428,1.56a12.779,12.779,0,0,0,1.932.12A33.551,33.551,0,0,0-19.7-.228V-1.32a19.72,19.72,0,0,1-4.1.384,11.594,11.594,0,0,1-1.6-.1c-.576-.12-.84-.276-.84-.888V-4.56A48.519,48.519,0,0,0-21.2-6.168c.36-.132.792-.324,1.14-.468l-.42-.972a8.068,8.068,0,0,1-1.056.552,33.725,33.725,0,0,1-4.7,1.512V-8.256A7.843,7.843,0,0,1-26.172-9.228Zm12.216,8.172A10.573,10.573,0,0,1-14.04.36h1.164c-.048-.4-.072-1.044-.072-1.416,0-.348,0-2.16-.012-3.96A31.461,31.461,0,0,1-8.244-3.084l.408-1.02a38.354,38.354,0,0,0-5.124-1.98V-8.04c0-.36.048-.876.084-1.248h-1.176a7.574,7.574,0,0,1,.1,1.248ZM-4.14-4.668h2.652v.936H-4.14Zm0-1.6h2.652v.912H-4.14Zm1.74,3.24H-.672V-6.972H-2.4V-7.98H-.312v-.792H-2.4v-1.272h-.864v1.272H-5.328v.792h2.064v1.008h-1.68v3.948h1.68v1.008h-2.2V-1.2h2.2V.912H-2.4V-1.2H-.2v-.816H-2.4ZM2.94-5.28H4.68v-.828H.42a11.139,11.139,0,0,0,2.088-3A12.767,12.767,0,0,0,5.16-5.724a6.389,6.389,0,0,1,.5-.792A11.336,11.336,0,0,1,2.892-9.984h-.84A9.942,9.942,0,0,1-.636-6.3a2.924,2.924,0,0,1,.468.732,6.265,6.265,0,0,0,.516-.468v.756h1.7V-3.6H-.228v.828h2.28V.888H2.94v-3.66h2.4V-3.6H2.94ZM7.152-3.24A9.282,9.282,0,0,1,6.408-.4a3.117,3.117,0,0,1,.7.336A11,11,0,0,0,7.92-3.108Zm2.592.18a11.785,11.785,0,0,1,.78,2.328l.72-.24a11.973,11.973,0,0,0-.816-2.316ZM9.528-5.952a10.043,10.043,0,0,1,.54.936l-1.86.12a31.969,31.969,0,0,0,2.412-3.42l-.744-.36A25.6,25.6,0,0,1,8.532-6.444a8.471,8.471,0,0,0-.732-.84A25.8,25.8,0,0,0,9.2-9.732l-.8-.312A15.141,15.141,0,0,1,7.3-7.776c-.12-.108-.228-.216-.348-.312L6.492-7.5A9.452,9.452,0,0,1,8.064-5.772c-.24.336-.48.66-.72.936-.336.024-.648.048-.936.06l.132.816,1.98-.18V.9h.8V-4.212L10.4-4.32a7.942,7.942,0,0,1,.336.888l.72-.348A10.415,10.415,0,0,0,10.2-6.24ZM14.64-.708V-4.14h1.644V-.708ZM12.288-4.14h1.56V-.708h-1.56Zm1.56-4.116v3.3h-1.56v-3.3Zm2.436,3.3H14.64v-3.3h1.644Zm-4.8-4.128V.768h.8V.12h4V.672h.828V-9.084ZM20.04-3.936c.024-.492.024-.96.024-1.38v-.672H21.6v2.052ZM21.6-8.784V-6.8H20.064v-1.98ZM25.236.024c-.768,0-.924-.084-.924-.5V-3.2h2.6V-6.54h-3.18a10.27,10.27,0,0,0,.636-1.2h3.876c-.084,3.348-.168,4.536-.384,4.824a.357.357,0,0,1-.36.168c-.2,0-.672-.012-1.176-.048a2.225,2.225,0,0,1,.252.816,8.9,8.9,0,0,0,1.3-.012.9.9,0,0,0,.744-.4c.312-.408.384-1.752.468-5.736.012-.132.012-.432.012-.432H24.72a12.413,12.413,0,0,0,.432-1.284l-.9-.2a9.712,9.712,0,0,1-1.836,3.732V-9.6H19.272v4.3A14.73,14.73,0,0,1,18.42.528a2.427,2.427,0,0,1,.708.408,12.02,12.02,0,0,0,.864-4.056H21.6V-.144c0,.156-.06.2-.216.216-.132.012-.612.012-1.14,0A3.121,3.121,0,0,1,20.5.9,4.116,4.116,0,0,0,22.02.744c.3-.156.4-.42.4-.888V-6.18c.216.156.528.408.672.54a8.054,8.054,0,0,0,.516-.7v.564h2.484v1.8H23.46v3.5C23.46.564,23.856.8,25.188.8h2.736c1.2,0,1.476-.432,1.6-2.148a2.717,2.717,0,0,1-.792-.336c-.072,1.464-.18,1.7-.864,1.7ZM-28.2,3.848v7.764h.888V4.676h2.9V3.848Zm12.24.708A12.284,12.284,0,0,1-13.836,6l.552-.612a11.446,11.446,0,0,0-2.148-1.368Zm1.7,3.24a11.883,11.883,0,0,1-1.536,3.24,21.644,21.644,0,0,1-.66-4.164h3.816V6h-3.876c-.036-.648-.048-1.32-.048-2.016h-.924c.012.684.024,1.356.072,2.016h-5V9.344a9.313,9.313,0,0,1-1.092,5.064,3.55,3.55,0,0,1,.744.6c1.08-1.56,1.26-3.972,1.26-5.652v-.1h2.184c-.048,2.064-.108,2.82-.276,3-.072.108-.192.132-.36.132-.2,0-.72-.012-1.272-.06a1.854,1.854,0,0,1,.252.84,13.846,13.846,0,0,0,1.428,0,.928.928,0,0,0,.72-.348c.252-.312.324-1.32.384-4.008V8.432H-21.5V6.872h4.14a23.6,23.6,0,0,0,.876,5.052,9.576,9.576,0,0,1-2.76,2.22,5.023,5.023,0,0,1,.648.708,10.729,10.729,0,0,0,2.472-1.992c.552,1.236,1.272,1.968,2.2,1.968s1.236-.588,1.4-2.628a2.109,2.109,0,0,1-.768-.48c-.084,1.6-.228,2.22-.564,2.22-.612,0-1.164-.684-1.608-1.86a13.531,13.531,0,0,0,2.112-4.056ZM-1.932,10.58A18.441,18.441,0,0,1-4.464,12.2,6.072,6.072,0,0,1-5.7,10.472H-.672v-.8H-8.316V8.648H-2.2V7.916h-6.12v-1H-2.2V6.188h-6.12v-1h6.48V4.436H-9.228V9.668h-2.1v.8h2.1v3.312c-.564.084-1.092.168-1.524.228l.228.816c1.428-.24,3.48-.588,5.388-.924l-.036-.792c-1.056.18-2.148.36-3.144.528V10.472h1.7a7.5,7.5,0,0,0,5.58,4.476,2.783,2.783,0,0,1,.552-.78A8.1,8.1,0,0,1-3.9,12.692,19.462,19.462,0,0,0-1.2,11.06ZM9.432,8.564v-.8H6.288c.06-.588.084-1.212.108-1.884H5.568c-.024.672-.048,1.308-.108,1.884H2.568v.8H5.352a4.26,4.26,0,0,1-2.928,3.684,2.23,2.23,0,0,1,.528.684A4.711,4.711,0,0,0,6.012,9.44,5.014,5.014,0,0,0,9,12.884a2.947,2.947,0,0,1,.552-.72,4.588,4.588,0,0,1-3-3.6ZM1.908,13.52V5.372h8.184V13.52Zm-.888-9V14.912h.888v-.54h8.184v.54H11V4.52Zm22.4,4.764H18.48V8.108A18.14,18.14,0,0,0,22.4,5.24l-.648-.492L21.54,4.8H13.848V5.66H20.6a15.27,15.27,0,0,1-2.472,1.7h-.564v1.92H12.612v.888h4.956V13.76c0,.216-.072.276-.336.288s-1.14.012-2.1-.024a4.228,4.228,0,0,1,.384.912,8.891,8.891,0,0,0,2.364-.156c.444-.144.6-.42.6-1.02V10.172h4.944ZM28.2,15.032V7.268h-.888V14.2h-2.9v.828Z" transform="translate(-23.455 -13646.633)" fill="#3c505a"/>
    <path id="Path_186" data-name="Path 186" d="M-5.115.286A6.925,6.925,0,0,0-.121-1.584V-8.36H-5.4v1.694h3.41v4.224a4.423,4.423,0,0,1-2.9.946c-3.476,0-5.39-2.552-5.39-6.622,0-4.026,2.112-6.534,5.346-6.534a4.523,4.523,0,0,1,3.5,1.54l1.1-1.32a6.138,6.138,0,0,0-4.642-2c-4.268,0-7.392,3.168-7.392,8.382C-12.375-2.816-9.339.286-5.115.286ZM3.707,0H5.753V-7.238h6.16V-8.954H5.753V-14.41h7.26v-1.738H3.707Z" transform="translate(-17.905 -13604)" fill="#3c505a"/>
    <path id="Path_185" data-name="Path 185" d="M-62.546-15v2.42c.572-.066,1.474-.088,1.958-.088h4.642v9.614h-5.918a13.007,13.007,0,0,1-2.046-.154v2.53a16.6,16.6,0,0,1,2.046-.11h14.52a15.232,15.232,0,0,1,1.914.11v-2.53a16.068,16.068,0,0,1-1.914.154h-6.2v-9.614h4.994a19.58,19.58,0,0,1,1.98.088V-15a14.019,14.019,0,0,1-1.98.132H-60.588A15.4,15.4,0,0,1-62.546-15ZM-31.5-17.116l-2.552-.836a9.753,9.753,0,0,1-.814,1.98A18.67,18.67,0,0,1-41.778-8.69l1.936,1.452a22.975,22.975,0,0,0,5.588-5.39h6.864a16.52,16.52,0,0,1-3.344,6.49,17.627,17.627,0,0,1-8.822,5.5l2.046,1.826a19.825,19.825,0,0,0,8.8-6.094,21.774,21.774,0,0,0,3.872-7.48,7.529,7.529,0,0,1,.616-1.342l-1.8-1.1a5.167,5.167,0,0,1-1.65.22h-5.28c.11-.176.22-.374.308-.55C-32.406-15.6-31.944-16.456-31.5-17.116Zm15.444,16.1L-13.992.77A18.882,18.882,0,0,0-6.248-6.006a22.529,22.529,0,0,0,3.014-7.81c.11-.484.33-1.386.528-2.09l-2.772-.374a12.5,12.5,0,0,1-.22,2.156A18.26,18.26,0,0,1-8.382-7.172,16.785,16.785,0,0,1-16.06-1.012ZM-17.006-16.1l-2.222,1.144a50.387,50.387,0,0,1,3.7,6.468l2.266-1.276C-14.058-11.242-15.994-14.608-17.006-16.1ZM5.94-1.012,8.008.77a18.882,18.882,0,0,0,7.744-6.776,22.529,22.529,0,0,0,3.014-7.81c.11-.484.33-1.386.528-2.09l-2.772-.374a12.5,12.5,0,0,1-.22,2.156,18.26,18.26,0,0,1-2.684,6.952A16.785,16.785,0,0,1,5.94-1.012ZM4.994-16.1,2.772-14.96a50.387,50.387,0,0,1,3.7,6.468L8.734-9.768C7.942-11.242,6.006-14.608,4.994-16.1Zm19.47,6.292v2.728c.748-.066,2.068-.11,3.278-.11H39.71c.968,0,1.98.088,2.464.11V-9.812c-.55.044-1.408.132-2.464.132H27.742C26.554-9.68,25.19-9.768,24.464-9.812Zm31-6.666-2.75-.572a13.886,13.886,0,0,1-.484,2.288c-.616,2.222-2.706,8.8-3.938,11.946-.33.022-.638.022-.9.044-.66.044-1.518.044-2.2.044l.4,2.552c.66-.088,1.386-.2,1.936-.264,2.86-.264,9.9-1.034,13.4-1.452.462,1.012.858,1.98,1.144,2.75L64.394-.2a64.478,64.478,0,0,0-4.84-9.042l-2.134.924a29.616,29.616,0,0,1,2.508,4.29c-2.354.308-6.072.726-9.064.99,1.1-2.9,3.1-9.13,3.762-11.22C54.956-15.224,55.22-15.884,55.462-16.478Z" transform="translate(81.119 -13718.458)" fill="#3c505a"/>
    <path id="Path_184" data-name="Path 184" d="M-13.224-8.1v1.62h-3.54c-.42,0-.864-.036-1.116-.06v1.032c.252-.024.7-.036,1.14-.036h3.516a5.348,5.348,0,0,1-3.252,5.3l.936.7a6.308,6.308,0,0,0,3.324-6h3.18c.372,0,.864.012,1.056.036v-1.02c-.192.024-.648.048-1.044.048h-3.192V-8.088a11.119,11.119,0,0,1,.072-1.2h-1.188A6.7,6.7,0,0,1-13.224-8.1Zm15.2-.528L.84-8.94A12.5,12.5,0,0,1-1.428-3.852,10.424,10.424,0,0,1-5.964-.672l.84.876A11.92,11.92,0,0,0-.6-3.216,16.4,16.4,0,0,0,1.6-7.584,10.087,10.087,0,0,1,1.98-8.628ZM8.136-9.852a13.271,13.271,0,0,1-3.48,4.836,5.955,5.955,0,0,1,.54.9,14.317,14.317,0,0,0,1.56-1.692v6.7h.9V-7.068a16.115,16.115,0,0,0,1.332-2.5ZM11.88-.1c-.66,0-.792-.144-.792-.816v-3.48a28.239,28.239,0,0,0,4.224-2.616l-.636-.768a21,21,0,0,1-3.588,2.484V-9.756h-.9V-.924c0,1.308.384,1.668,1.632,1.668h2.46c1.236,0,1.5-.684,1.644-2.628a2.864,2.864,0,0,1-.852-.384C14.988-.528,14.88-.1,14.22-.1ZM-32.508,4.892h-1.128a8.608,8.608,0,0,1,.06,1.044v1.9c0,2.268-.144,3.24-1,4.236a5.5,5.5,0,0,1-2.868,1.6l.78.828A6.409,6.409,0,0,0-33.8,12.74c.864-1.032,1.26-1.98,1.26-4.86V5.936C-32.544,5.528-32.532,5.192-32.508,4.892Zm-5.568.1h-1.092c.024.228.048.648.048.864v4a7.864,7.864,0,0,1-.06.924h1.1c-.024-.216-.048-.612-.048-.912V5.852C-38.124,5.564-38.1,5.216-38.076,4.988Zm17.316.144A.763.763,0,0,1-20,4.364a.776.776,0,0,1,.78.768A.768.768,0,0,1-20,5.9.756.756,0,0,1-20.76,5.132Zm-.552,0A1.3,1.3,0,0,0-20,6.44a1.306,1.306,0,0,0,1.32-1.308A1.324,1.324,0,0,0-20,3.812,1.321,1.321,0,0,0-21.312,5.132Zm-2-.384h-1.128a4.352,4.352,0,0,1,.084.852V6.836H-27.7a8.976,8.976,0,0,1-1.02-.06V7.784c.324-.024.66-.036,1.02-.036h3.336V13.16c0,.312-.144.456-.468.456a8.536,8.536,0,0,1-1.38-.144l.084.96c.48.048,1.2.084,1.7.084.72,0,1.032-.324,1.032-.96V7.748h3.18c.288,0,.648,0,.972.024v-1a9.208,9.208,0,0,1-.984.06h-3.168V5.612A5.686,5.686,0,0,1-23.316,4.748ZM-20.94,9.2l-.816.432a19.937,19.937,0,0,1,2,3.192l.888-.492A25.743,25.743,0,0,0-20.94,9.2Zm-5.016.4-.84-.408a12.813,12.813,0,0,1-2.292,3.144l.828.552A17.392,17.392,0,0,0-25.956,9.6Zm11.3,3.972.9.756a9.987,9.987,0,0,0,4.248-3.7A12.312,12.312,0,0,0-7.86,6.344c.048-.216.144-.636.24-.948l-1.2-.168a5.207,5.207,0,0,1-.1.984,9.9,9.9,0,0,1-1.5,3.912A9.218,9.218,0,0,1-14.652,13.568Zm-.732-8.2-.948.48a32.248,32.248,0,0,1,2,3.468l.96-.54C-13.8,8-14.856,6.152-15.384,5.372ZM-4.6,8.8V9.98c.372-.036,1.008-.06,1.668-.06H3.66c.54,0,1.044.048,1.284.06V8.8c-.264.024-.7.06-1.3.06H-2.928C-3.6,8.864-4.236,8.828-4.6,8.8Zm16.68-3.756-1.2-.24a7.55,7.55,0,0,1-.228,1.152c-.336,1.176-1.56,5.016-2.232,6.672-.216.012-.42.024-.6.036-.348.012-.756.024-1.116.012l.18,1.116c.348-.048.7-.108,1-.132,1.608-.144,5.628-.588,7.476-.828.276.588.5,1.14.66,1.572l1.008-.456a33.81,33.81,0,0,0-2.664-4.884l-.9.408a17.043,17.043,0,0,1,1.464,2.46c-1.32.18-3.624.432-5.388.6.6-1.56,1.788-5.244,2.136-6.372C11.832,5.66,11.964,5.348,12.084,5.048ZM23.7,6.212H21.048c.012-.684.024-1.38.024-2.088H20.2c0,.708,0,1.4-.012,2.088H18.5v.876H20.16c-.1,3-.456,5.652-1.944,7.224a2.747,2.747,0,0,1,.672.612c1.62-1.752,2.028-4.62,2.136-7.836h1.812c-.084,4.6-.192,6.228-.468,6.564a.348.348,0,0,1-.4.192c-.216,0-.732,0-1.284-.048a2.278,2.278,0,0,1,.264.9,7.59,7.59,0,0,0,1.4-.012.953.953,0,0,0,.792-.456c.372-.516.456-2.256.552-7.56ZM25.524,13v-6.7h2.328V13Zm-.84-7.56v9.288h.84v-.876h2.328v.792h.888v-9.2Zm11.592,7.668V6.224h4.308V5.312H31.1v.912h4.2v6.888H30.48V14h10.7v-.888Z" transform="translate(80.047 -13513.374)" fill="#3c505a"/>
  </g>
</svg>
