<svg id="Q" xmlns="http://www.w3.org/2000/svg" width="30" height="30" viewBox="0 0 30 30">
  <circle id="Ellipse_4" data-name="Ellipse 4" cx="15" cy="15" r="15" fill="#1976d2"/>
  <path id="Path_368" data-name="Path 368" d="M6.87-.039,5.894,1.143,3.677-.547a8.26,8.26,0,0,1-1.733.7A7.464,7.464,0,0,1-.093.42,6.559,6.559,0,0,1-5.327-1.768,8.375,8.375,0,0,1-7-7.1a8.481,8.481,0,0,1,1.445-4.98A6.262,6.262,0,0,1-.063-14.736a6.568,6.568,0,0,1,5.625,2.441A7.912,7.912,0,0,1,6.987-7.422a10.285,10.285,0,0,1-.342,2.666A6.892,6.892,0,0,1,4.9-1.572ZM.142-1.318A7.293,7.293,0,0,0,1.274-1.4a2.423,2.423,0,0,0,.918-.327L.62-2.959,1.6-4.16,3.472-2.705A5.433,5.433,0,0,0,4.678-4.98,9.872,9.872,0,0,0,5-7.393a6.039,6.039,0,0,0-1.323-4.072A4.516,4.516,0,0,0,.054-13.008a4.75,4.75,0,0,0-3.682,1.479A6.564,6.564,0,0,0-4.985-6.973a6.151,6.151,0,0,0,1.3,4.121A4.739,4.739,0,0,0,.142-1.318Z" transform="translate(15 22)" fill="#fff"/>
</svg>
