<svg id="Layer_1" data-name="Layer 1" xmlns="http://www.w3.org/2000/svg" width="226.09" height="77.69" viewBox="0 0 226.09 77.69">
  <g id="Group_295" data-name="Group 295">
    <g id="Group_293" data-name="Group 293">
      <path id="Path_332" data-name="Path 332" d="M81.25,45.8a11.423,11.423,0,0,0-3.34-8.17,10.255,10.255,0,0,0-7.28-2.95,11.342,11.342,0,0,0-8.4,3.73,12.689,12.689,0,0,0-3.62,9.19,12.853,12.853,0,0,0,3.69,9.33,11.876,11.876,0,0,0,8.69,3.71,10.192,10.192,0,0,0,6.37-2.21,11.369,11.369,0,0,0,3.88-6.83H79.91Q77.585,59.235,71,59.24q-3.195,0-4.44-2.13T65.54,45.79H81.25ZM65.54,40.52a4.241,4.241,0,0,1,1.27-3.25,4.917,4.917,0,0,1,3.51-1.2q4.5,0,4.5,4.97a31.249,31.249,0,0,1-.25,3.35H65.53V40.51Z" fill="#303f9f"/>
      <path id="Path_333" data-name="Path 333" d="M103.97,34.69a7.9,7.9,0,0,0-7.64,4.91h-.12V17.77a30.255,30.255,0,0,1-6.02.47H81.84v1.58h8.35V58.29H85.84v1.58h4.53a35.729,35.729,0,0,1,5.84.37V54.96h.12q2.67,5.685,7.95,5.68,4.38,0,7.7-4.04a13.918,13.918,0,0,0,3.32-9.07,13.362,13.362,0,0,0-3.38-8.99,10.265,10.265,0,0,0-7.95-3.87Zm3.71,21.89c-.45,1.64-1.7,2.45-3.77,2.45a6.841,6.841,0,0,1-5.39-2.87,12,12,0,0,1-2.38-7.87,24.266,24.266,0,0,1,.73-7.16,7.99,7.99,0,0,1,2.59-3.54,6.689,6.689,0,0,1,4.32-1.51q3.165,0,3.87,2.19t.7,9.08c0,4.59-.22,7.59-.67,9.22Z" fill="#303f9f"/>
      <path id="Path_334" data-name="Path 334" d="M130.49,43.72q-4.215-.555-5.36-1.35A2.491,2.491,0,0,1,124,40.21a3.6,3.6,0,0,1,1.6-2.87,6.224,6.224,0,0,1,3.99-1.26c3.69,0,6,2.02,6.96,6.05h1.27V35.17h-.96a8.487,8.487,0,0,1-1.27,1.86,8.268,8.268,0,0,0-5.99-2.36,8.136,8.136,0,0,0-5.73,2.16,6.989,6.989,0,0,0-2.34,5.36q0,6.495,8.72,7.76c3.42.5,5.51,1.04,6.29,1.62a3.011,3.011,0,0,1,1.17,2.58,4.419,4.419,0,0,1-1.96,3.57,6.922,6.922,0,0,1-4.35,1.52q-6.3,0-8.97-8.79h-1.09v9.16h1.09l2.17-1.86a10.274,10.274,0,0,0,6.8,2.89,8.252,8.252,0,0,0,8.39-8.47q0-7.29-9.29-8.45Z" fill="#303f9f"/>
      <path id="Path_335" data-name="Path 335" d="M188.27,17.77a45.544,45.544,0,0,1-6.37.47h-9.13v1.58h2.94v7.95a1.29,1.29,0,0,0-.94,1.24,1.317,1.317,0,0,0,.77,1.19l-1.15,3.14h3.38l-1.15-3.14a1.317,1.317,0,0,0,.77-1.19,1.3,1.3,0,0,0-.94-1.24V19.82h5.79V58.29h-4.47v1.58h14.5V58.29h-4.01V17.77Z" fill="#303f9f"/>
      <path id="Path_336" data-name="Path 336" d="M193.98,43.41l6.89-6.36h5.9V35.46h-13.1v1.59h5.22l-9.91,9.22L199.2,58.29h-4.44v1.58h14.75V58.29h-2.74Z" fill="#303f9f"/>
      <path id="Path_337" data-name="Path 337" d="M219.16,26.43a3.314,3.314,0,0,0,2.39-.96,3.234,3.234,0,0,0,.99-2.42,3.158,3.158,0,0,0-1.01-2.38,3.368,3.368,0,0,0-4.76.01,3.209,3.209,0,0,0-1.01,2.36,3.339,3.339,0,0,0,.99,2.41,3.292,3.292,0,0,0,2.39.98Z" fill="#303f9f"/>
      <path id="Path_338" data-name="Path 338" d="M222.02,58.29V35a36.28,36.28,0,0,1-5.96.47h-4.41v1.58H216V58.29h-4.35v1.58h14.44V58.29h-4.07Z" fill="#303f9f"/>
      <rect id="Rectangle_166" data-name="Rectangle 166" width="3.96" height="1.12" transform="translate(83.86 22.01)" fill="#303f9f"/>
      <rect id="Rectangle_167" data-name="Rectangle 167" width="3.96" height="1.12" transform="translate(83.86 24.58)" fill="#303f9f"/>
      <rect id="Rectangle_168" data-name="Rectangle 168" width="3.96" height="1.12" transform="translate(83.86 27.15)" fill="#303f9f"/>
      <rect id="Rectangle_169" data-name="Rectangle 169" width="3.96" height="1.12" transform="translate(83.86 29.72)" fill="#303f9f"/>
      <path id="Path_339" data-name="Path 339" d="M5.65,25.39a1.494,1.494,0,0,0-1.06-1.42V14.38L34.23,25.37,68.45,12.69,34.22,0,0,12.68l3.75,1.39v9.9a1.482,1.482,0,0,0-.19,2.77l-1.3,3.55H6.08l-1.3-3.55a1.484,1.484,0,0,0,.87-1.35Z" fill="#303f9f"/>
      <path id="Path_340" data-name="Path 340" d="M34.22,28.57l-12.9-4.78,5.27,9.54,7.64,2.62,7.63-2.62,5.28-9.54L34.23,28.57h-.01Z" fill="#303f9f"/>
      <path id="Path_341" data-name="Path 341" d="M43.02,51.18,38.7,40.67H32.71L28.44,51.5,16.84,22.98H9.39v1.38h1.45L25.42,60.19h1.01l6.76-16.82,6.96,16.82h.95L54.52,24.36h2V22.98H53.47Z" fill="#303f9f"/>
      <path id="Path_342" data-name="Path 342" d="M170.58,35.41V58.23h4.19v1.58h-4.19a29.3,29.3,0,0,0-6.12.37V54.4h-.12q-2.79,5.775-8.79,5.78a8.146,8.146,0,0,1-5.54-1.82c-1.39-1.21-2.1-3.76-2.1-7.65V36.99h-4.5V35.41h10.56V51.8a20.269,20.269,0,0,0,.47,5.32,2.2,2.2,0,0,0,2.39,1.48q2.85,0,5.28-3.06c1.62-2.04,2.42-5.11,2.42-9.21V36.98h-4.97V35.4h11.02Z" fill="#303f9f"/>
    </g>
    <g id="Group_294" data-name="Group 294">
      <path id="Path_343" data-name="Path 343" d="M45,72.88V66.63h3.18v.74H45.82v5.5H45Z" fill="#303f9f"/>
      <path id="Path_344" data-name="Path 344" d="M69.5,69.07A2.788,2.788,0,0,0,70.51,69l.49.47a5.062,5.062,0,0,0-.26,1.21,7.5,7.5,0,0,1-2.17,4.38,9.389,9.389,0,0,1-3.51,1.99,2.569,2.569,0,0,0-.55-.82,7.874,7.874,0,0,0,2.65-1.16,6.586,6.586,0,0,0,2.78-5.24H63.39v1.8a7.1,7.1,0,0,0,.04.89h-.98c.02-.2.05-.59.05-.9V70a7.119,7.119,0,0,0-.05-.97,9.253,9.253,0,0,0,1.1.05h2.54V67.87a3.647,3.647,0,0,0-.06-.77h1.01a4.339,4.339,0,0,0-.06.76v1.22h2.53Z" fill="#303f9f"/>
      <path id="Path_345" data-name="Path 345" d="M89.78,75.99h2.57a5.882,5.882,0,0,0,1.08-.06v.84a7.939,7.939,0,0,0-1.09-.05h-5.8a7.676,7.676,0,0,0-1.09.05v-.85a4.893,4.893,0,0,0,1.08.07h2.43V71.84H87.24a7.2,7.2,0,0,0-1.07.05v-.84a6.134,6.134,0,0,0,1.07.07h4.38a5.986,5.986,0,0,0,1.07-.07v.84a5.5,5.5,0,0,0-1.06-.05H89.78v4.15Z" fill="#303f9f"/>
      <path id="Path_346" data-name="Path 346" d="M116.44,69.23a3.669,3.669,0,0,0-.25.74,12.174,12.174,0,0,1-1.56,3.47,10.272,10.272,0,0,1-2.95,2.75,10.6,10.6,0,0,1-2.21,1.07,2.386,2.386,0,0,0-.59-.83,9.1,9.1,0,0,0,2.71-1.27,8.844,8.844,0,0,0,3.78-5.72h-6.1a8.3,8.3,0,0,0-1.34.07v-.96a8.716,8.716,0,0,0,1.36.07h5.67a1.618,1.618,0,0,0,.78-.1l.71.71Zm-.5-2.53a8.856,8.856,0,0,1,1.08,1.63l-.61.28a8.105,8.105,0,0,0-1.07-1.66l.6-.25Zm1.14-.47a9.458,9.458,0,0,1,1.09,1.63l-.61.28a8.6,8.6,0,0,0-1.08-1.66l.6-.25Z" fill="#303f9f"/>
      <path id="Path_347" data-name="Path 347" d="M140.34,76.83a22.4,22.4,0,0,0-3.84-3.71,13.331,13.331,0,0,1-2.29,2.15,15.123,15.123,0,0,1-2.35,1.44,2.635,2.635,0,0,0-.59-.79,9.691,9.691,0,0,0,2.43-1.38,12.968,12.968,0,0,0,4.28-5.41c.02-.07.04-.08.06-.14a.6.6,0,0,1,.04-.08,2.444,2.444,0,0,1-.29.01l-4.01.06a7.837,7.837,0,0,0-1.24.1l-.02-.97a5.42,5.42,0,0,0,.95.06h.31l4.28-.05a2.026,2.026,0,0,0,.77-.1l.5.52a2.417,2.417,0,0,0-.34.59,14.454,14.454,0,0,1-1.98,3.36,29.564,29.564,0,0,1,3.99,3.6l-.68.76Z" fill="#303f9f"/>
      <path id="Path_348" data-name="Path 348" d="M158.19,68.23a4.015,4.015,0,0,0-.26-1.02l.95-.16a6.513,6.513,0,0,0,.13,1.02l.24,1.32,2.71-.42a5.141,5.141,0,0,0,1.06-.24l.17.86q-.32.04-1.07.16l-2.72.42.46,2.42,2.97-.48a7.557,7.557,0,0,0,1.19-.28l.17.89a2.963,2.963,0,0,0-.53.06,2.741,2.741,0,0,0-.37.06c-.13.02-.19.04-.28.05l-3.01.48.49,2.65a6.821,6.821,0,0,0,.26,1.14l-.96.18a9.949,9.949,0,0,0-.14-1.15l-.49-2.69-3.21.52a6.462,6.462,0,0,0-1.15.24l-.16-.91a5.846,5.846,0,0,0,1.19-.11l3.19-.52-.43-2.42-2.47.38a10.384,10.384,0,0,0-1.2.26l-.17-.91a9.276,9.276,0,0,0,1.25-.12l2.45-.38-.24-1.31Z" fill="#303f9f"/>
      <path id="Path_349" data-name="Path 349" d="M181.09,71.44v6.25h-3.18v-.74h2.36v-5.5h.82Z" fill="#303f9f"/>
    </g>
  </g>
</svg>
