<svg id="Icon_ionic-ios-chatbubbles" data-name="Icon ionic-ios-chatbubbles" xmlns="http://www.w3.org/2000/svg" width="71.603" height="71.603" viewBox="0 0 71.603 71.603">
  <path id="Path_113" data-name="Path 113" d="M62.344,50.3a4.17,4.17,0,0,1,.568-2.1,5.8,5.8,0,0,1,.361-.534,27.889,27.889,0,0,0,4.751-15.543c.052-15.87-13.339-28.744-29.9-28.744C23.685,3.375,11.637,13.2,8.814,26.25a27.66,27.66,0,0,0-.637,5.887A29.2,29.2,0,0,0,37.61,61.242a35.447,35.447,0,0,0,8.124-1.325c1.945-.534,3.873-1.239,4.372-1.429a4.55,4.55,0,0,1,1.6-.293,4.475,4.475,0,0,1,1.738.344L63.2,62a2.327,2.327,0,0,0,.671.172,1.37,1.37,0,0,0,1.377-1.377,2.211,2.211,0,0,0-.086-.465Z" transform="translate(3.579 -3.375)" fill="#1976d2"/>
  <path id="Path_114" data-name="Path 114" d="M49.934,48.876c-.62.172-1.411.361-2.272.551a31.768,31.768,0,0,1-5.852.775A29.2,29.2,0,0,1,12.377,21.1a32.541,32.541,0,0,1,.258-3.683c.1-.74.224-1.48.4-2.2.172-.775.379-1.549.6-2.306l-1.377,1.222a25.615,25.615,0,0,0-8.881,19.26A25.329,25.329,0,0,0,7.644,47.5c.4.6.62,1.067.551,1.377S6.146,59.547,6.146,59.547a1.381,1.381,0,0,0,.465,1.325,1.4,1.4,0,0,0,.878.31,1.235,1.235,0,0,0,.5-.1l9.656-3.8a2.69,2.69,0,0,1,2.065.034,28.969,28.969,0,0,0,10.448,2.065,27.033,27.033,0,0,0,20.672-9.484s.551-.757,1.188-1.652C51.38,48.463,50.657,48.686,49.934,48.876Z" transform="translate(-3.375 10.42)" fill="#1976d2"/>
</svg>
