<svg xmlns="http://www.w3.org/2000/svg" width="70.355" height="67.002" viewBox="0 0 70.355 67.002">
  <path id="Icon_simple-line" data-name="Icon simple-line" d="M56.768,28.094a1.848,1.848,0,0,1,0,3.7H51.623v3.3h5.145a1.845,1.845,0,1,1,0,3.691H49.773a1.85,1.85,0,0,1-1.838-1.844V22.949A1.852,1.852,0,0,1,49.782,21.1h6.994a1.847,1.847,0,0,1-.009,3.694H51.623v3.3Zm-11.3,8.841A1.845,1.845,0,0,1,44.2,38.682a1.894,1.894,0,0,1-.583.091,1.813,1.813,0,0,1-1.5-.733L34.96,28.317v8.618a1.842,1.842,0,1,1-3.685,0V22.949a1.837,1.837,0,0,1,1.261-1.744,1.705,1.705,0,0,1,.569-.1,1.9,1.9,0,0,1,1.451.745l7.217,9.762V22.949a1.847,1.847,0,0,1,3.694,0V36.935Zm-16.829,0a1.844,1.844,0,1,1-3.688,0V22.949a1.844,1.844,0,1,1,3.688,0Zm-7.229,1.844H14.414a1.857,1.857,0,0,1-1.847-1.844V22.949a1.847,1.847,0,0,1,3.694,0V35.089h5.148a1.845,1.845,0,0,1,0,3.691m48.946-9.363C70.355,13.671,54.569.858,35.177.858S0,13.671,0,29.416c0,14.1,12.517,25.92,29.417,28.165,1.146.24,2.706.756,3.1,1.73a7.161,7.161,0,0,1,.111,3.166l-.481,2.99c-.132.882-.7,3.477,3.075,1.891S55.5,55.4,62.885,46.911c5.054-5.538,7.469-11.21,7.469-17.495" transform="translate(0 -0.858)" fill="#1976d2"/>
</svg>
