<svg xmlns="http://www.w3.org/2000/svg" width="409.353" height="40.673" viewBox="0 0 409.353 40.673">
  <g id="Group_467" data-name="Group 467" transform="translate(-43.516 -29.034)">
    <path id="Path_237" data-name="Path 237" d="M5.518-33.813a1.962,1.962,0,0,1-1.4-.574,1.956,1.956,0,0,1-.6-1.477,1.8,1.8,0,0,1,.61-1.4,2.022,2.022,0,0,1,1.392-.549,2.152,2.152,0,0,1,1.428.525,1.77,1.77,0,0,1,.623,1.428,1.958,1.958,0,0,1-.61,1.453A1.99,1.99,0,0,1,5.518-33.813ZM4.321,0V-27H6.738V0ZM48.706,0V-26.831q0-.977.293-5.566h-.1q-.83,2.124-1.367,3.3L34.082,0h-.854l-13.5-28.955a21.659,21.659,0,0,1-1.245-3.564h-.122q.2,2.539.2,5.054V0H15.942V-37.817h2.417L32.471-7.349a7.4,7.4,0,0,1,.293.708q.146.439.342.9.269.684.537,1.514h.171l.293-.83q.024-.122.9-2.515L48.9-37.817h2.319V0ZM60.962-13.4q0,5.566,2.563,8.7a8.616,8.616,0,0,0,7.056,3.137,14.356,14.356,0,0,0,8.862-3.345v2.588A15.79,15.79,0,0,1,70.093.659a10.6,10.6,0,0,1-8.447-3.748q-3.223-3.748-3.223-10.559a15.062,15.062,0,0,1,3.369-9.961,10.834,10.834,0,0,1,8.74-4.053,9.134,9.134,0,0,1,7.727,3.54q2.7,3.54,2.7,9.644V-13.4Zm17.456-2.2a12.031,12.031,0,0,0-2.246-7.263,6.962,6.962,0,0,0-5.737-2.576,8.451,8.451,0,0,0-6.3,2.539,12.236,12.236,0,0,0-3.076,7.3ZM106.812,0V-4.907h-.1a9.829,9.829,0,0,1-3.906,4.065,11.412,11.412,0,0,1-5.835,1.5,10.257,10.257,0,0,1-8.13-3.638q-3.149-3.638-3.149-10.059,0-6.519,3.442-10.571a11.173,11.173,0,0,1,8.936-4.053q6.055,0,8.643,4.98h.1V-39.966h2.441V0Zm0-16.431a9.162,9.162,0,0,0-2.38-6.384,8.225,8.225,0,0,0-6.409-2.625A8.816,8.816,0,0,0,91-22.18q-2.771,3.259-2.771,8.948,0,5.591,2.49,8.63a7.922,7.922,0,0,0,6.421,3.04,9.033,9.033,0,0,0,7.141-2.856,10.164,10.164,0,0,0,2.527-6.982ZM138.916,0,130.2-14.429a25.916,25.916,0,0,1-1.392-2.637h-.122a20.052,20.052,0,0,1-1.514,2.637L118.311,0h-3.125l11.938-19.067-11.23-18.75h3.149l8.447,14.209q.659,1.123,1.367,2.539h.122l1.392-2.539,8.4-14.209h3.052l-11.353,18.7L142.065,0Z" transform="translate(40 69)" fill="#333"/>
    <path id="Path_236" data-name="Path 236" d="M4.858,0V-37.817h9.448q9.424,0,14.331,4.7t4.907,13.684q0,8.643-5.261,14.038T13.77,0ZM7.471-35.4V-2.368H13.4q8.4,0,12.915-4.37t4.517-12.6q0-16.064-16.919-16.064ZM61.719,0,53-14.429a25.916,25.916,0,0,1-1.392-2.637h-.122a20.052,20.052,0,0,1-1.514,2.637L41.113,0H37.988L49.927-19.067,38.7-37.817h3.149l8.447,14.209q.659,1.123,1.367,2.539h.122l1.392-2.539,8.4-14.209h3.052l-11.353,18.7L64.868,0Z" transform="translate(388 69)" fill="#333"/>
    <path id="Path_235" data-name="Path 235" d="M33.539.141a.249.249,0,0,1-.281.281L28.512.352H7.523L2.76.422A.249.249,0,0,1,2.479.141v-1.67a.249.249,0,0,1,.281-.281l4.764.07H16.84V-9.826H12.41l-5.045.07a.249.249,0,0,1-.281-.281v-1.635a.249.249,0,0,1,.281-.281l5.045.07h4.43v-7.436H8.35a27.931,27.931,0,0,1-3.709,5.783q-.281.316-.4.316a1.414,1.414,0,0,1-.545-.352,4,4,0,0,0-1.283-.756A30.1,30.1,0,0,0,8.42-25.295a6.492,6.492,0,0,0,.387-2.057,13.7,13.7,0,0,1,2.2.615q.439.141.439.387a.778.778,0,0,1-.281.51,2.871,2.871,0,0,0-.58,1.143q-1.283,3.3-1.3,3.357H16.84v-2.988a31.51,31.51,0,0,0-.281-4.939q1.248.053,2.514.193.439.053.439.316a.955.955,0,0,1-.07.3,2.393,2.393,0,0,0-.105.352,17.742,17.742,0,0,0-.229,3.709v3.059H25.77l5.045-.07a.249.249,0,0,1,.281.281v1.6a.249.249,0,0,1-.281.281l-5.045-.07H19.107v7.436h5.01l5.027-.07q.3,0,.3.281v1.635q0,.281-.3.281l-5.027-.07h-5.01V-1.74h9.4l4.746-.07a.249.249,0,0,1,.281.281Zm36.58-16.8q0,.281-.264.281l-5.062-.07H59.432v5.906H62.49l4.641-.088a.249.249,0,0,1,.281.281l-.07,3.393v3.076l.07,6.012q0,.246-.281.246h-1.67q-.281,0-.281-.246V.545H51.908V2.3q0,.3-.281.3H50.045q-.334,0-.334-.3l.07-6.082V-6.521l-.07-3.832q0-.281.316-.281l4.693.088h2.514v-5.906H52.383l-5.08.07q-.3,0-.3-.281v-1.564q0-.281.3-.281l5.08.07h4.852v-5.818q-2.988.633-7.312,1.248a3.55,3.55,0,0,1-.457.053q-.334,0-.545-.615a3.649,3.649,0,0,0-.721-1.3,86.9,86.9,0,0,0,9.51-1.564,46.181,46.181,0,0,0,6.4-1.811,8.986,8.986,0,0,0,1.863-.949,16.352,16.352,0,0,1,1.564,1.336.831.831,0,0,1,.281.51q0,.3-.439.352a7.334,7.334,0,0,0-1.354.334,64.9,64.9,0,0,1-6.592,1.9v6.328h5.361l5.063-.07q.264,0,.264.281ZM65.18-1.371V-8.684H51.908v7.313ZM45.9-7.893Q44.139-3.779,41.959.3A9.207,9.207,0,0,0,41.2,1.811q-.088.352-.387.352a.8.8,0,0,1-.475-.211Q39.5,1.336,38.725.65a17.443,17.443,0,0,0,2.057-2.812q1.969-3.709,3.779-7.945a8.914,8.914,0,0,0,1,1.072q.51.4.51.58A2.9,2.9,0,0,1,45.9-7.893Zm-1.055-8.35a.293.293,0,0,1,.105.193,1.265,1.265,0,0,1-.211.387l-.721,1q-.229.334-.352.334-.07,0-.229-.141a28.075,28.075,0,0,0-4.957-4.043q-.176-.088-.176-.176a.85.85,0,0,1,.211-.352l.686-.914q.193-.264.316-.264a.569.569,0,0,1,.229.088A25.348,25.348,0,0,1,44.842-16.242Zm1.705-8.842a.4.4,0,0,1,.123.229.712.712,0,0,1-.211.369L45.7-23.5q-.246.3-.369.3-.088,0-.193-.141a27.651,27.651,0,0,0-4.816-4.131q-.176-.123-.176-.193T40.377-28l.791-.914q.211-.229.334-.229a.468.468,0,0,1,.211.088A28.206,28.206,0,0,1,46.547-25.084Zm54.3,27.316a.249.249,0,0,1-.281.281h-1.67a.249.249,0,0,1-.281-.281v-1.2H81.773V2.373a.249.249,0,0,1-.281.281h-1.67a.249.249,0,0,1-.281-.281l.07-6.574V-7.4l-.07-4.377a.249.249,0,0,1,.281-.281l5.045.07H87.75l.492-1.16a9.563,9.563,0,0,0,.58-2.074,12.643,12.643,0,0,1,2.232.492q.369.158.369.369a.691.691,0,0,1-.281.51,1.529,1.529,0,0,0-.545.668l-.615,1.2h5.5l5.08-.07a.249.249,0,0,1,.281.281l-.07,3.9v3.6ZM98.613-.756V-4.816H81.773V-.756Zm0-5.783V-10.2H81.773v3.656Zm-9.9-10.969a2.593,2.593,0,0,1-.791,2.232q-.809.65-3.955.65a1.052,1.052,0,0,1-.615-.105,2.156,2.156,0,0,1-.229-.615,4.037,4.037,0,0,0-.633-1.371q1.037.105,2.443.105a1.961,1.961,0,0,0,1.371-.334,1.4,1.4,0,0,0,.246-.949v-8.789H79.066l-4.061.07q-.3,0-.3-.316v-1.406q0-.281.3-.281l4.061.07h5.256l4.113-.07a.249.249,0,0,1,.281.281l-.07,2.584v4.395Zm15.627,0a2.746,2.746,0,0,1-.791,2.232q-.809.6-4.008.65a1.006,1.006,0,0,1-.6-.105,1.7,1.7,0,0,1-.229-.545,5.865,5.865,0,0,0-.633-1.441q1.389.105,2.408.105a2.108,2.108,0,0,0,1.424-.334,1.332,1.332,0,0,0,.264-.949v-8.789H94.764l-4.061.07q-.3,0-.3-.316v-1.406q0-.281.3-.281l4.061.07h5.15l4.148-.07a.249.249,0,0,1,.281.281l-.07,2.584v4.395ZM84.6-20.021a4.193,4.193,0,0,1,.035.422q0,.3-.65.633Q80.912-17.4,77.52-15.873a3.864,3.864,0,0,0-1.2.791.608.608,0,0,1-.422.211.439.439,0,0,1-.4-.281,17.381,17.381,0,0,1-.861-2.021,14.331,14.331,0,0,0,2.514-.721,60.909,60.909,0,0,0,7.453-3.5q-.018.281-.018.633Q84.586-20.391,84.6-20.021Zm15.662-.316q.018.281.018.352a.543.543,0,0,1-.088.369,2.826,2.826,0,0,1-.545.316q-2.426,1.2-5.854,2.742a6.36,6.36,0,0,0-1.336.721.831.831,0,0,1-.51.281q-.158,0-.387-.4a12.109,12.109,0,0,1-.791-1.863A12.263,12.263,0,0,0,93.5-18.58a59.093,59.093,0,0,0,6.768-3.129q-.018.246-.018.633T100.266-20.338ZM97.242-22.9q.158.141.158.211a.781.781,0,0,1-.193.334l-.65.826q-.246.334-.387.334a.4.4,0,0,1-.229-.123,17.109,17.109,0,0,0-3.99-2.725q-.176-.07-.176-.158a1.213,1.213,0,0,1,.246-.387l.615-.686a.535.535,0,0,1,.352-.193.836.836,0,0,1,.229.053A20.271,20.271,0,0,1,97.242-22.9ZM81.984-23.01q.176.141.176.229a.85.85,0,0,1-.211.352l-.615.756q-.281.352-.4.352a.47.47,0,0,1-.246-.123,16.819,16.819,0,0,0-4.061-2.6q-.141-.07-.141-.141,0-.088.246-.369l.615-.756a.4.4,0,0,1,.316-.176.47.47,0,0,1,.176.035A19.1,19.1,0,0,1,81.984-23.01ZM138.621-3.375a.249.249,0,0,1-.281.281l-4.57-.07h-7.277l-4.605.07a.249.249,0,0,1-.281-.281l.07-3.551V-12.3l-.07-3.533a.249.249,0,0,1,.281-.281l4.605.07h7.277l4.57-.07a.249.249,0,0,1,.281.281l-.07,3.533v5.379ZM136.6-4.816v-2.32H123.627v2.32Zm0-3.832v-2.18H123.627v2.18Zm0-3.691V-14.4H123.627v2.057Zm5.344-10.512q0,.246-.3.246l-3.129-.07q-.105.879-.334,2.3-.246,1.617-.316,2.057a.317.317,0,0,1-.352.316l-2.812-.07H124.4l-2.76.07q-.334,0-.334-.316a40.862,40.862,0,0,0,1.125-4.359q-1.02.018-1.986.053l-.686.018q-.281,0-.281-.246v-1.16a.249.249,0,0,1,.281-.281l2.988.07a40.235,40.235,0,0,0,.58-4.113.28.28,0,0,1,.316-.316l3.533.07h7.383l4.43-.07q.334,0,.334.246v.07q-.105.633-.316,2.215-.158,1.178-.264,1.9l2.9-.07q.3,0,.3.281Zm-5.4.176h-5.256q-.246,1.371-.65,3.129h5.326Zm-7.172,0h-5.01l-.721,3.129h5.045Q129.2-21.621,129.375-22.676Zm7.77-4.395h-5.133q-.281,1.793-.475,2.848h5.256Q136.881-24.873,137.145-27.07Zm-7.014,0h-4.922l-.51,2.848h4.957Q129.867-25.277,130.131-27.07Zm-13.447-2.2a5.146,5.146,0,0,1-.141.65,15.159,15.159,0,0,0-.264,3.709V-3.99l.07,6.363q0,.3-.246.3h-1.74q-.281,0-.281-.3l.07-6.328V-24.8a36.543,36.543,0,0,0-.246-4.975,19.046,19.046,0,0,1,2.338.229Q116.684-29.5,116.684-29.268Zm10.9,27.932q0,.264-.369.369a3.077,3.077,0,0,0-1.072.51A21.629,21.629,0,0,1,119.689,2.6a2.047,2.047,0,0,1-.492.105q-.246,0-.58-.615A3.2,3.2,0,0,0,117.6.967a20,20,0,0,0,6.8-2.584,4.611,4.611,0,0,0,1.266-1.09,13.432,13.432,0,0,1,1.6.984Q127.582-1.512,127.582-1.336ZM142.189.932a4.021,4.021,0,0,0-1,1.125q-.352.563-.6.563a2.578,2.578,0,0,1-.562-.123,22.618,22.618,0,0,1-7.154-3.832q-.123-.088-.123-.141,0-.088.334-.352l.756-.58a.955.955,0,0,1,.422-.211.447.447,0,0,1,.264.141,16.974,16.974,0,0,0,3.656,2.127A32.126,32.126,0,0,0,142.189.932ZM112.992-21.3a29.138,29.138,0,0,1-1.547,7.33q-.088.211-.211.211a1.253,1.253,0,0,1-.334-.088l-.967-.369q-.422-.176-.422-.352a.558.558,0,0,1,.035-.158,25.476,25.476,0,0,0,1.512-6.979q.018-.229.176-.229a2.752,2.752,0,0,1,.352.053l1.02.176q.4.07.4.264A1.079,1.079,0,0,1,112.992-21.3Zm7.207,4.957a.962.962,0,0,1,.035.211q0,.193-.439.3l-.932.211a1.218,1.218,0,0,1-.246.035q-.176,0-.229-.281a34.481,34.481,0,0,0-1.318-5.7.684.684,0,0,1-.053-.193q0-.158.4-.264l.791-.193a1.2,1.2,0,0,1,.229-.035q.176,0,.246.229A36.963,36.963,0,0,1,120.2-16.348Zm46.723,3.568a15.31,15.31,0,0,1-.457,2.2,40.829,40.829,0,0,1,6.592,5.432q.176.176.176.264,0,.105-.264.387l-.686.756q-.3.369-.422.369-.07,0-.246-.176A36.17,36.17,0,0,0,165.885-9a14.3,14.3,0,0,1-4.57,5.449,1.485,1.485,0,0,1-.51.281q-.158,0-.51-.4a3.2,3.2,0,0,0-1.178-.826,13.577,13.577,0,0,0,4.271-3.85,10.4,10.4,0,0,0,1.6-4.43h-6.451V-1.951l.07,4.043q0,.281-.246.281h-1.635a.249.249,0,0,1-.281-.281l.07-3.955V-10.3l-.07-4.061a.249.249,0,0,1,.281-.281l4.9.07h3.533q.105-2.232.105-4.307H160.7l-5.01.07q-.246,0-.246-.264v-1.459q0-.281.246-.281l5.01.07h11.2l5.01-.07a.249.249,0,0,1,.281.281v1.459q0,.264-.281.264l-5.01-.07h-4.641q-.123,3.814-.158,4.307h4.078l4.869-.07a.249.249,0,0,1,.281.281l-.07,4.289V-5.5l.07,4.605a3.067,3.067,0,0,1-.686,2.232q-.721.721-4.008.721H171a1.146,1.146,0,0,1-.65-.105,1.978,1.978,0,0,1-.211-.615A3.542,3.542,0,0,0,169.488,0q1.336.123,2.549.123.352,0,.721-.018A1.567,1.567,0,0,0,173.9-.211a1.815,1.815,0,0,0,.3-1.2V-12.779ZM177.979-24.5q0,.281-.3.281l-5.045-.07H153.563v4.676a61.9,61.9,0,0,1-.9,12.463,24.218,24.218,0,0,1-4.078,9.018q-.281.4-.422.4-.176,0-.51-.387a3.836,3.836,0,0,0-1.266-1,18.622,18.622,0,0,0,4.289-8.895,32.9,32.9,0,0,0,.51-3.533q-1.459.844-3.287,1.723a3.866,3.866,0,0,0-1.213.914.555.555,0,0,1-.439.246q-.176,0-.352-.281A16.877,16.877,0,0,1,145.037-11a21.23,21.23,0,0,0,2.689-.9q2.057-.932,3.6-1.705.105-2.514.105-5.643l-.07-6.785a.249.249,0,0,1,.281-.281l5.115.07h6.451v-1A15.5,15.5,0,0,0,163-30.164q.686.018,2.25.176.475.053.475.281a3.621,3.621,0,0,1-.211.686,5.35,5.35,0,0,0-.176,1.74v1.037h7.295l5.045-.07q.3,0,.3.281Zm-27.9,6.645a.754.754,0,0,1,.035.193q0,.158-.4.352l-.826.475a1.372,1.372,0,0,1-.457.193q-.105,0-.193-.229a25.228,25.228,0,0,0-2.408-5.836.532.532,0,0,1-.053-.176q0-.105.369-.3l.844-.352a1.15,1.15,0,0,1,.369-.141q.088,0,.193.176A28.256,28.256,0,0,1,150.082-17.859Z" transform="translate(203 67)" fill="#333"/>
  </g>
</svg>
