<svg xmlns="http://www.w3.org/2000/svg" width="73.267" height="70" viewBox="0 0 73.267 70">
  <g id="Component_14_1" data-name="Component 14 – 1" transform="translate(2.837)">
    <path id="Path_63" data-name="Path 63" d="M89.16,61.5l9.42-2.02-2.47,10.2a19.088,19.088,0,0,1,1.68,6.95H86.24c-.9-2.8-4.6-5.94-8.97-5.94a9.229,9.229,0,0,0-9.19,9.19v2.47a9.229,9.229,0,0,0,9.19,9.19c4.37,0,8.07-3.14,8.97-5.94H97.79a16.25,16.25,0,0,1-1.68,6.95l2.47,10.2-9.42-2.02-6.84,11.44-5.05-7.74-13.79,7.74.78-12.33-14.58.34,7.51-11.66-15.02-7.4,14.91-7.29-7.4-11.77,14.58.22-.78-12.33L77.27,57.8l5.16-7.74L89.16,61.5Z" transform="translate(-42.17 -45.626)" fill="red" stroke="#000" stroke-miterlimit="10" stroke-width="2.5"/>
    <rect id="Rectangle_59" data-name="Rectangle 59" width="70" height="70" transform="translate(0.43)" fill="none"/>
  </g>
</svg>
