<svg id="Component_14_1" data-name="Component 14 – 1" xmlns="http://www.w3.org/2000/svg" width="70" height="70" viewBox="0 0 70 70">
  <path id="Path_39" data-name="Path 39" d="M85.61,85.52H97.65c-1.87,11.08-10.62,19.45-21.12,19.45-11.87,0-21.5-10.7-21.5-23.9s9.63-23.9,21.5-23.9c10.51,0,19.26,8.39,21.13,19.46H85.61v-.04c-.9-2.8-4.6-5.94-8.97-5.94a9.229,9.229,0,0,0-9.19,9.19v2.47a9.229,9.229,0,0,0,9.19,9.19c4.37,0,8.07-3.14,8.97-5.94v-.03Z" transform="translate(-41.68 -45.63)" fill="red" stroke="#000" stroke-miterlimit="10" stroke-width="2.5"/>
  <rect id="Rectangle_59" data-name="Rectangle 59" width="70" height="70" fill="none"/>
</svg>
