<svg id="logo" xmlns="http://www.w3.org/2000/svg" width="257.043" height="56.133" viewBox="0 0 257.043 56.133">
  <path id="Path_1" data-name="Path 1" d="M51.987,3.89,29.478,56.133H4.468V45.3H22.253L35.313,14.728H21.7L13.916,33.346H2.245l7.5-18.618H.3L4.746,3.89h9.448L15.862,0H27.533L25.865,3.89Z" transform="translate(-0.3)"/>
  <path id="Path_2" data-name="Path 2" d="M114.921,1.4,92.413,53.642H62.679V42.8H85.465l5-11.949h-12.5V20.018H95.191l3.335-7.781H77.407L71.571,25.576,59.9,25.3,70.182,1.4h44.739Z" transform="translate(105.719 2.49)"/>
  <path id="Path_3" data-name="Path 3" d="M71.8,53.642H40.4V42.8H64.576L82.361,1.4H94.032L71.8,53.642Z" transform="translate(71.032 2.49)"/>
  <path id="Path_4" data-name="Path 4" d="M45.846,1.4,41.4,12.238H64.742L69.466,1.4H45.846Z" transform="translate(72.811 2.49)"/>
  <path id="Path_5" data-name="Path 5" d="M83.124,10.1,78.4,20.938h40.015V10.1Z" transform="translate(138.628 17.966)"/>
  <path id="Path_6" data-name="Path 6" d="M75.411,3.89,52.9,56.133H22.89V45.3H45.677L58.738,14.728H36.507L30.949,28.066,19,27.788,29.282,4.446V3.89H41.231L42.62,0H54.569L52.9,3.89H75.411Z" transform="translate(32.964 0)"/>
</svg>
