<svg xmlns="http://www.w3.org/2000/svg" width="72.4" height="29.32" viewBox="0 0 72.4 29.32">
  <path id="Path_22" data-name="Path 22" d="M-27.6-7.2c-.16-4.44-.52-11.72-.64-14.16a4.127,4.127,0,0,0,1.6.52c.72,0,1.84-.4,3.16-.52,2.2-.24,8.92-.76,11.48-.76.36,0,.48.12.48.44A130.492,130.492,0,0,1-13.2-8.12C-16.92-7.96-23.32-7.48-27.6-7.2Zm-1.04-15.68a9.671,9.671,0,0,0-4.32-2.08l-.56.68a6.227,6.227,0,0,1,2.16,3.36A66.529,66.529,0,0,1-30.24-9.84c0,1.72-.12,4.2-.12,5,0,1.64.88,2.72,1.64,2.72.84,0,1.2-.48,1.2-1.48,0-.6,0-1.08-.04-1.6,4.8-.28,10.2-.56,13.32-.56,1.84,0,3.96.24,4.84.24A1.035,1.035,0,0,0-8.24-6.68c0-.76-1-1.32-2.44-1.44.8-4.36,1.68-9.76,2.04-11.52.24-1.08,1.48-1.36,1.48-2.28,0-.96-2.76-3.2-3.76-3.2-.76,0-.92.88-2.32,1C-14.8-23.92-24.68-23.04-28.64-22.88Zm35.04-.2a7.129,7.129,0,0,0,.36,2.12c.32,1,2.16,2.92,3.24,2.92.72,0,1.64-.68,2.56-.88,2.84-.56,13.24-1.76,14.96-1.76.32,0,.44.12.4.44-.16,2.28-1,8.44-1.68,13.24-4.4.32-15,1.44-16.56,1.44S7.12-6.88,6.24-7.92l-.76.44A7.238,7.238,0,0,0,6.16-5.2c.52,1.04,2.28,2.64,3.4,2.64.88,0,1.4-.56,3.52-.96A63.665,63.665,0,0,1,23.6-4.6c3,0,4.72.36,5.92.36,1.12,0,1.56-.24,1.56-.88,0-.84-1.08-1.68-2.4-1.88.84-4.64,1.68-9.6,2.08-11.36C31-19.44,32-19.8,32-20.64c0-1-2.68-2.88-3.72-2.88-.76,0-1.04.8-2.44.96-2.48.32-13.76,1.44-15.8,1.44-1.4,0-2.04-1.28-2.84-2.24Zm22.32-4.76a18.5,18.5,0,0,1,3.68,3.52c.76,1,1.28,1.88,1.84,1.88a.908.908,0,0,0,.96-1.04,3.273,3.273,0,0,0-1.36-2.36,14.213,14.213,0,0,0-4.6-2.68Zm3.6-2.88a16.828,16.828,0,0,1,3.72,3.2c.88.96,1.24,1.92,1.92,1.92.6,0,.92-.36.92-1a3.172,3.172,0,0,0-1.48-2.48,15.315,15.315,0,0,0-4.56-2.36Z" transform="translate(33.52 31.44)" fill="#fff"/>
</svg>
