<svg xmlns="http://www.w3.org/2000/svg" width="38.515" height="36.68" viewBox="0 0 38.515 36.68">
  <path id="Icon_simple-line" data-name="Icon simple-line" d="M31.077,15.482a1.012,1.012,0,0,1,0,2.024H28.261v1.805h2.816a1.01,1.01,0,1,1,0,2.02H27.248a1.013,1.013,0,0,1-1.006-1.009V12.666a1.014,1.014,0,0,1,1.011-1.011h3.829a1.011,1.011,0,0,1,0,2.022H28.261v1.805Zm-6.187,4.84a1.01,1.01,0,0,1-.693.956,1.037,1.037,0,0,1-.319.05.992.992,0,0,1-.818-.4L19.139,15.6v4.718a1.009,1.009,0,1,1-2.017,0V12.666a1.006,1.006,0,0,1,.69-.955.934.934,0,0,1,.311-.053,1.038,1.038,0,0,1,.794.408l3.951,5.344V12.666a1.011,1.011,0,0,1,2.022,0Zm-9.213,0a1.009,1.009,0,1,1-2.019,0V12.666a1.009,1.009,0,1,1,2.019,0v7.657ZM11.72,21.332H7.891A1.017,1.017,0,0,1,6.88,20.322V12.666a1.011,1.011,0,0,1,2.022,0v6.645H11.72a1.01,1.01,0,0,1,0,2.02m26.8-5.126C38.515,7.587,29.873.572,19.258.572S0,7.587,0,16.206C0,23.927,6.853,30.4,16.1,31.625c.627.132,1.481.414,1.7.947a3.92,3.92,0,0,1,.061,1.733L17.6,35.942c-.072.483-.385,1.9,1.683,1.035s11.1-6.544,15.143-11.193c2.767-3.031,4.089-6.137,4.089-9.577" transform="translate(0 -0.572)" fill="#0f3b5e"/>
</svg>
