<svg xmlns="http://www.w3.org/2000/svg" width="19.162" height="19.195" viewBox="0 0 19.162 19.195">
  <path id="Icon_feather-phone-call" data-name="Icon feather-phone-call" d="M12.542,4.167a4.167,4.167,0,0,1,3.292,3.292M12.542.833A7.5,7.5,0,0,1,19.167,7.45m-.833,6.65v2.5a1.667,1.667,0,0,1-1.817,1.667,16.492,16.492,0,0,1-7.192-2.558,16.25,16.25,0,0,1-5-5A16.492,16.492,0,0,1,1.767,3.483,1.667,1.667,0,0,1,3.425,1.667h2.5A1.667,1.667,0,0,1,7.592,3.1a10.7,10.7,0,0,0,.583,2.342A1.667,1.667,0,0,1,7.8,7.2L6.742,8.258a13.333,13.333,0,0,0,5,5L12.8,12.2a1.667,1.667,0,0,1,1.758-.375,10.7,10.7,0,0,0,2.342.583A1.667,1.667,0,0,1,18.333,14.1Z" transform="translate(-0.926 0.087)" fill="none" stroke="#fff" stroke-linecap="round" stroke-linejoin="round" stroke-width="1.667"/>
</svg>
