<svg xmlns="http://www.w3.org/2000/svg" width="30.807" height="30.553" viewBox="0 0 30.807 30.553">
  <g id="Layer_2" data-name="Layer 2" transform="translate(0.5 0.5)">
    <g id="Group_172" data-name="Group 172" transform="translate(0 0)">
      <path id="Path_98" data-name="Path 98" d="M48.73,28.19h4.287v4.287" transform="translate(-25.019 -14.683)" fill="none" stroke="#004eb1" stroke-linecap="round" stroke-linejoin="round" stroke-width="1"/>
      <path id="Path_99" data-name="Path 99" d="M4.48,27.93,17.729,41.184,30.645,28.263" transform="translate(-2.751 -14.552)" fill="none" stroke="#004eb1" stroke-linecap="round" stroke-linejoin="round" stroke-width="1"/>
      <path id="Path_100" data-name="Path 100" d="M27.9,26.217A3.567,3.567,0,0,1,24.33,22.65" transform="translate(-12.74 -11.895)" fill="none" stroke="#004eb1" stroke-linecap="round" stroke-linejoin="round" stroke-width="1"/>
      <line id="Line_68" data-name="Line 68" x2="29.807" transform="translate(0 26.885)" fill="none" stroke="#004eb1" stroke-linecap="round" stroke-linejoin="round" stroke-width="1"/>
      <line id="Line_69" data-name="Line 69" x2="29.807" transform="translate(0 29.553)" fill="none" stroke="#004eb1" stroke-linecap="round" stroke-linejoin="round" stroke-width="1"/>
      <path id="Path_101" data-name="Path 101" d="M30.87,11.984a5.385,5.385,0,0,1-10.77,0C20.1,9.008,22.827,2.664,25.485,1,28.128,2.788,30.87,9.008,30.87,11.984Z" transform="translate(-10.612 -1)" fill="none" stroke="#004eb1" stroke-linecap="round" stroke-linejoin="round" stroke-width="1"/>
    </g>
  </g>
</svg>
