<svg xmlns="http://www.w3.org/2000/svg" width="31.457" height="24.816" viewBox="0 0 31.457 24.816">
  <g id="Layer_2" data-name="Layer 2" transform="translate(0.681 0.5)">
    <g id="Group_168" data-name="Group 168" transform="translate(0 0)">
      <rect id="Rectangle_94" data-name="Rectangle 94" width="3.746" height="10.984" rx="1.873" transform="translate(0 14.072) rotate(-29.47)" fill="none" stroke="#004eb1" stroke-linecap="round" stroke-linejoin="round" stroke-width="1"/>
      <ellipse id="Ellipse_20" data-name="Ellipse 20" cx="0.224" cy="0.224" rx="0.224" ry="0.224" transform="translate(2.259 14.377)" fill="none" stroke="#004eb1" stroke-linecap="round" stroke-linejoin="round" stroke-width="1"/>
      <path id="Path_78" data-name="Path 78" d="M8.94,25.494l5.286-2.832a2.886,2.886,0,0,1,2.186-.224l6.1,1.793A1.536,1.536,0,0,1,23.56,26.09h0A1.537,1.537,0,0,1,21.707,27.2l-3.557-.874" transform="translate(-4.609 -11.728)" fill="none" stroke="#004eb1" stroke-linecap="round" stroke-linejoin="round" stroke-width="1"/>
      <path id="Path_79" data-name="Path 79" d="M15.23,31.67l1.436-.8,7.581,1.952a3.478,3.478,0,0,0,2.7-.4l10.164-6.19a1.8,1.8,0,0,0,.681-2.32h0a1.8,1.8,0,0,0-2.474-.795l-8.028,4.357a2.181,2.181,0,0,1-1.033.055" transform="translate(-7.774 -12.018)" fill="none" stroke="#004eb1" stroke-linecap="round" stroke-linejoin="round" stroke-width="1"/>
      <ellipse id="Ellipse_21" data-name="Ellipse 21" cx="2.509" cy="2.509" rx="2.509" ry="2.509" transform="translate(15.21 0.343)" fill="none" stroke="#004eb1" stroke-linecap="round" stroke-linejoin="round" stroke-width="1"/>
      <path id="Path_80" data-name="Path 80" d="M31.4,11.22a4.429,4.429,0,0,0-4.431,4.431h8.862A4.429,4.429,0,0,0,31.4,11.22Z" transform="translate(-13.682 -6.143)" fill="none" stroke="#004eb1" stroke-linecap="round" stroke-linejoin="round" stroke-width="1"/>
      <ellipse id="Ellipse_22" data-name="Ellipse 22" cx="2.509" cy="2.509" rx="2.509" ry="2.509" transform="translate(22.741)" fill="none" stroke="#004eb1" stroke-linecap="round" stroke-linejoin="round" stroke-width="1"/>
      <path id="Path_81" data-name="Path 81" d="M44.63,14.961h7.2a4.431,4.431,0,0,0-8.038-2.573" transform="translate(-22.146 -5.796)" fill="none" stroke="#004eb1" stroke-linecap="round" stroke-linejoin="round" stroke-width="1"/>
      <ellipse id="Ellipse_23" data-name="Ellipse 23" cx="2.509" cy="2.509" rx="2.509" ry="2.509" transform="translate(7.679)" fill="none" stroke="#004eb1" stroke-linecap="round" stroke-linejoin="round" stroke-width="1"/>
      <path id="Path_82" data-name="Path 82" d="M19.008,14.961h-7.2a4.431,4.431,0,0,1,8.038-2.573" transform="translate(-6.053 -5.796)" fill="none" stroke="#004eb1" stroke-linecap="round" stroke-linejoin="round" stroke-width="1"/>
    </g>
  </g>
</svg>
