<svg xmlns="http://www.w3.org/2000/svg" width="30.807" height="31.343" viewBox="0 0 30.807 31.343">
  <g id="Layer_2" data-name="Layer 2" transform="translate(0.5 0.52)">
    <g id="Group_167" data-name="Group 167" transform="translate(0 0)">
      <path id="Path_70" data-name="Path 70" d="M7.91,39.133v-1.4L1.6,31.254A2.126,2.126,0,0,1,1,29.749l.154-11.654a1.586,1.586,0,0,1,1.59-1.565h0a1.589,1.589,0,0,1,1.585,1.5l.427,7.109" transform="translate(-1 -8.815)" fill="none" stroke="#004eb1" stroke-linecap="round" stroke-linejoin="round" stroke-width="1"/>
      <path id="Path_71" data-name="Path 71" d="M11.692,40.776,7.544,36.608a1.583,1.583,0,0,1,.045-2.275h0a1.588,1.588,0,0,1,2.166.01l2.131,2.027a2.028,2.028,0,0,0,1.2.551l1.008.1a1.612,1.612,0,0,1,.964.447l3.587,3.467a1.025,1.025,0,0,1,.318.745v6.2" transform="translate(-4.061 -17.562)" fill="none" stroke="#004eb1" stroke-linecap="round" stroke-linejoin="round" stroke-width="1"/>
      <path id="Path_72" data-name="Path 72" d="M47.09,39.133v-1.4L53.4,31.254a2.126,2.126,0,0,0,.6-1.505l-.154-11.654a1.586,1.586,0,0,0-1.59-1.565h0a1.589,1.589,0,0,0-1.585,1.5l-.427,7.109" transform="translate(-24.193 -8.815)" fill="none" stroke="#004eb1" stroke-linecap="round" stroke-linejoin="round" stroke-width="1"/>
      <path id="Path_73" data-name="Path 73" d="M38.273,40.776l4.148-4.168a1.583,1.583,0,0,0-.045-2.275h0a1.588,1.588,0,0,0-2.166.01L38.079,36.37a2.028,2.028,0,0,1-1.2.551l-1.008.1a1.612,1.612,0,0,0-.964.447L31.318,40.94a1.025,1.025,0,0,0-.318.745v6.2" transform="translate(-16.097 -17.562)" fill="none" stroke="#004eb1" stroke-linecap="round" stroke-linejoin="round" stroke-width="1"/>
      <path id="Path_74" data-name="Path 74" d="M15.631,15.585a8.789,8.789,0,1,1,13.115.109" transform="translate(-7.265 -1)" fill="none" stroke="#004eb1" stroke-linecap="round" stroke-linejoin="round" stroke-width="1"/>
      <line id="Line_66" data-name="Line 66" x2="17.581" transform="translate(6.185 8.788)" fill="none" stroke="#004eb1" stroke-linecap="round" stroke-linejoin="round" stroke-width="1"/>
      <line id="Line_67" data-name="Line 67" y2="11.009" transform="translate(14.973)" fill="none" stroke="#004eb1" stroke-linecap="round" stroke-linejoin="round" stroke-width="1"/>
      <path id="Path_75" data-name="Path 75" d="M26.139,1s-5.753.233-4.839,10.845" transform="translate(-11.166 -1)" fill="none" stroke="#004eb1" stroke-linecap="round" stroke-linejoin="round" stroke-width="1"/>
      <path id="Path_76" data-name="Path 76" d="M31.14,1s5.753.233,4.839,10.845" transform="translate(-16.167 -1)" fill="none" stroke="#004eb1" stroke-linecap="round" stroke-linejoin="round" stroke-width="1"/>
      <path id="Path_77" data-name="Path 77" d="M26.33,26.407a2.449,2.449,0,0,0-2.106-1.167,2.588,2.588,0,0,0-2.5,2.921c0,2.221,4.605,5.166,4.605,5.166s4.605-2.946,4.605-5.166a2.585,2.585,0,0,0-2.5-2.921,2.458,2.458,0,0,0-2.106,1.167Z" transform="translate(-11.427 -13.198)" fill="none" stroke="#004eb1" stroke-linecap="round" stroke-linejoin="round" stroke-width="1"/>
    </g>
  </g>
</svg>
