<svg xmlns="http://www.w3.org/2000/svg" width="42.326" height="42.319" viewBox="0 0 42.326 42.319">
  <g id="Layer_2" data-name="Layer 2" transform="translate(1 1)">
    <g id="Group_31" data-name="Group 31" transform="translate(0 0)">
      <path id="Path_14" data-name="Path 14" d="M19.275,33.083l4.932,4.932L13.583,48.639a3.5,3.5,0,0,1-4.959,0L2.018,42.033a3.5,3.5,0,0,1,0-4.959L12.642,26.45l4.932,4.932" transform="translate(-0.99 -9.348)" fill="none" stroke="#004eb1" stroke-linecap="round" stroke-linejoin="round" stroke-width="2"/>
      <path id="Path_15" data-name="Path 15" d="M30.141,28.29l-9.025,9.032L19.47,35.675,28.5,26.65" transform="translate(-7.052 -9.414)" fill="none" stroke="#004eb1" stroke-linecap="round" stroke-linejoin="round" stroke-width="2"/>
      <rect id="Rectangle_30" data-name="Rectangle 30" width="15.509" height="4.536" transform="translate(20.657 16.455) rotate(-45)" fill="none" stroke="#004eb1" stroke-linecap="round" stroke-linejoin="round" stroke-width="2"/>
      <path id="Path_16" data-name="Path 16" d="M48.138,6.625l-.228-3.83L49.7,1l7,7L54.912,9.8l-3.535.067" transform="translate(-16.38 -1)" fill="none" stroke="#004eb1" stroke-linecap="round" stroke-linejoin="round" stroke-width="2"/>
    </g>
  </g>
</svg>
