<svg xmlns="http://www.w3.org/2000/svg" width="26.523" height="26.57" viewBox="0 0 26.523 26.57">
  <path id="Icon_feather-phone-call" data-name="Icon feather-phone-call" d="M18.292,6.176a5.845,5.845,0,0,1,4.617,4.617M18.292,1.5a10.521,10.521,0,0,1,9.293,9.281M26.416,20.11v3.507a2.338,2.338,0,0,1-2.548,2.338A23.134,23.134,0,0,1,13.78,22.366a22.8,22.8,0,0,1-7.014-7.014A23.134,23.134,0,0,1,3.177,5.217,2.338,2.338,0,0,1,5.5,2.669H9.01A2.338,2.338,0,0,1,11.348,4.68a15.009,15.009,0,0,0,.818,3.285,2.338,2.338,0,0,1-.526,2.466l-1.485,1.485a18.7,18.7,0,0,0,7.014,7.014l1.485-1.485a2.338,2.338,0,0,1,2.466-.526,15.009,15.009,0,0,0,3.285.818A2.338,2.338,0,0,1,26.416,20.11Z" transform="translate(-2.167 -0.396)" fill="none" stroke="#fff" stroke-linecap="round" stroke-linejoin="round" stroke-width="2"/>
</svg>
