<svg id="Layer_2" data-name="Layer 2" xmlns="http://www.w3.org/2000/svg" width="64.57" height="64.87" viewBox="0 0 64.57 64.87">
  <g id="Group_190" data-name="Group 190">
    <circle id="Ellipse_26" data-name="Ellipse 26" cx="6.4" cy="6.4" r="6.4" transform="translate(46.18 3.4)" fill="none" stroke="#ebbd67" stroke-linecap="round" stroke-linejoin="round" stroke-width="2"/>
    <circle id="Ellipse_27" data-name="Ellipse 27" cx="6.4" cy="6.4" r="6.4" transform="translate(25.88 1)" fill="none" stroke="#ebbd67" stroke-linecap="round" stroke-linejoin="round" stroke-width="2"/>
    <path id="Path_726" data-name="Path 726" d="M52.62,15.46a4.131,4.131,0,0,0-4.13,4.13V30.14H39.1v6.29" fill="none" stroke="#ebbd67" stroke-linecap="round" stroke-linejoin="round" stroke-width="2"/>
    <path id="Path_727" data-name="Path 727" d="M54.83,22.02V36.61H47.18a5.023,5.023,0,0,0-5.02,5.02V63.17h6.38V44.82h9.13a5.9,5.9,0,0,0,5.9-5.9V22.27a6.822,6.822,0,0,0-6.82-6.82h-.7" fill="none" stroke="#ebbd67" stroke-linecap="round" stroke-linejoin="round" stroke-width="2"/>
    <line id="Line_94" data-name="Line 94" y1="19.05" transform="translate(58.98 44.82)" fill="none" stroke="#ebbd67" stroke-linecap="round" stroke-linejoin="round" stroke-width="2"/>
    <circle id="Ellipse_28" data-name="Ellipse 28" cx="6.4" cy="6.4" r="6.4" transform="translate(5.59 3.4)" fill="none" stroke="#ebbd67" stroke-linecap="round" stroke-linejoin="round" stroke-width="2"/>
    <path id="Path_728" data-name="Path 728" d="M11.94,15.46a4.131,4.131,0,0,1,4.13,4.13V30.14h9.39v6.29" fill="none" stroke="#ebbd67" stroke-linecap="round" stroke-linejoin="round" stroke-width="2"/>
    <path id="Path_729" data-name="Path 729" d="M9.74,22.02V36.61h7.65a5.023,5.023,0,0,1,5.02,5.02V63.17H16.03V44.82H6.9A5.9,5.9,0,0,1,1,38.92V22.27a6.822,6.822,0,0,1,6.82-6.82h.7" fill="none" stroke="#ebbd67" stroke-linecap="round" stroke-linejoin="round" stroke-width="2"/>
    <line id="Line_95" data-name="Line 95" y1="19.05" transform="translate(5.59 44.82)" fill="none" stroke="#ebbd67" stroke-linecap="round" stroke-linejoin="round" stroke-width="2"/>
    <path id="Path_730" data-name="Path 730" d="M42.85,29.59V20.68a7.345,7.345,0,0,0-7.34-7.34H28.87a7.345,7.345,0,0,0-7.34,7.34v9.47" fill="none" stroke="#ebbd67" stroke-linecap="round" stroke-linejoin="round" stroke-width="2"/>
    <path id="Path_731" data-name="Path 731" d="M36.04,14.09l-3.67,6.35L28.7,14.09" fill="none" stroke="#ebbd67" stroke-linecap="round" stroke-linejoin="round" stroke-width="2"/>
    <line id="Line_96" data-name="Line 96" x2="27.47" transform="translate(18.39 36.71)" fill="none" stroke="#ebbd67" stroke-linecap="round" stroke-linejoin="round" stroke-width="2"/>
    <line id="Line_97" data-name="Line 97" x2="19.75" transform="translate(22.41 42.46)" fill="none" stroke="#ebbd67" stroke-linecap="round" stroke-linejoin="round" stroke-width="2"/>
    <line id="Line_98" data-name="Line 98" x2="9.96" transform="translate(27.24 63.17)" fill="none" stroke="#ebbd67" stroke-linecap="round" stroke-linejoin="round" stroke-width="2"/>
    <line id="Line_99" data-name="Line 99" y2="20.94" transform="translate(32.28 42.23)" fill="none" stroke="#ebbd67" stroke-linecap="round" stroke-linejoin="round" stroke-width="2"/>
  </g>
</svg>
