<svg id="Layer_2" data-name="Layer 2" xmlns="http://www.w3.org/2000/svg" width="51.89" height="52" viewBox="0 0 51.89 52">
  <g id="Group_186" data-name="Group 186">
    <rect id="Rectangle_79" data-name="Rectangle 79" width="8.52" height="10.34" rx="4.26" transform="translate(37.58 30.92)" fill="none" stroke="#ebbd67" stroke-linecap="round" stroke-linejoin="round" stroke-width="2"/>
    <path id="Path_718" data-name="Path 718" d="M44.7,41.42a7.368,7.368,0,0,1,6.19,7.27v2.3" fill="none" stroke="#ebbd67" stroke-linecap="round" stroke-linejoin="round" stroke-width="2"/>
    <path id="Path_719" data-name="Path 719" d="M32.99,51V48.7a7.36,7.36,0,0,1,6.19-7.27" fill="none" stroke="#ebbd67" stroke-linecap="round" stroke-linejoin="round" stroke-width="2"/>
    <rect id="Rectangle_80" data-name="Rectangle 80" width="8.52" height="10.34" rx="4.26" transform="translate(13.73 24.85)" fill="none" stroke="#ebbd67" stroke-linecap="round" stroke-linejoin="round" stroke-width="2"/>
    <path id="Path_720" data-name="Path 720" d="M20.85,35.01a7.368,7.368,0,0,1,6.19,7.27v2.3" fill="none" stroke="#ebbd67" stroke-linecap="round" stroke-linejoin="round" stroke-width="2"/>
    <path id="Path_721" data-name="Path 721" d="M8.93,44.59v-2.3a7.36,7.36,0,0,1,6.19-7.27" fill="none" stroke="#ebbd67" stroke-linecap="round" stroke-linejoin="round" stroke-width="2"/>
    <path id="Path_722" data-name="Path 722" d="M33.4,44.74H1V51H50.74" fill="none" stroke="#ebbd67" stroke-linecap="round" stroke-linejoin="round" stroke-width="2"/>
    <path id="Path_723" data-name="Path 723" d="M21.4,35.75l-3.41,5.51-3.41-5.51" fill="none" stroke="#ebbd67" stroke-linecap="round" stroke-linejoin="round" stroke-width="2"/>
    <path id="Path_724" data-name="Path 724" d="M46.99,6.61h-22a3.9,3.9,0,0,0-3.9,3.9V21.44a3.9,3.9,0,0,0,3.9,3.9h6.47l4.91,4.91V25.34H46.99a3.9,3.9,0,0,0,3.9-3.9V10.51A3.9,3.9,0,0,0,46.99,6.61Z" fill="none" stroke="#ebbd67" stroke-linecap="round" stroke-linejoin="round" stroke-width="2"/>
    <path id="Path_725" data-name="Path 725" d="M30.81,6.25V4.9A3.9,3.9,0,0,0,26.91,1H4.9A3.9,3.9,0,0,0,1,4.9V15.83a3.9,3.9,0,0,0,3.9,3.9H7.31l4.91,4.91V19.73h8.34" fill="none" stroke="#ebbd67" stroke-linecap="round" stroke-linejoin="round" stroke-width="2"/>
  </g>
</svg>
