<svg xmlns="http://www.w3.org/2000/svg" width="125" height="73.134" viewBox="0 0 125 73.134">
  <g id="Union_1" data-name="Union 1" transform="translate(-11582.001 -5948.001)" fill="rgba(255,255,255,0)">
    <path d="M 11685.0087890625 6019.76513671875 L 11656.6416015625 5999.59130859375 L 11656.5107421875 5999.49853515625 L 11656.3515625 5999.49853515625 L 11591.9990234375 5999.49853515625 C 11586.76171875 5999.49853515625 11582.5009765625 5995.23779296875 11582.5009765625 5990.00048828125 L 11582.5009765625 5957.9990234375 C 11582.5009765625 5952.76171875 11586.76171875 5948.5009765625 11591.9990234375 5948.5009765625 L 11697 5948.5009765625 C 11702.2392578125 5948.5009765625 11706.5009765625 5952.76171875 11706.5009765625 5957.9990234375 L 11706.5009765625 5990.00048828125 C 11706.5009765625 5995.23779296875 11702.2392578125 5999.49853515625 11697 5999.49853515625 L 11677.92578125 5999.49853515625 L 11677.197265625 5999.49853515625 L 11677.458984375 6000.17822265625 L 11685.0087890625 6019.76513671875 Z" stroke="none"/>
    <path d="M 11683.9453125 6018.39501953125 L 11676.46875 5998.99853515625 L 11697 5998.99853515625 C 11701.962890625 5998.99853515625 11706.0009765625 5994.9619140625 11706.0009765625 5990.00048828125 L 11706.0009765625 5957.9990234375 C 11706.0009765625 5953.03759765625 11701.962890625 5949.0009765625 11697 5949.0009765625 L 11591.9990234375 5949.0009765625 C 11587.037109375 5949.0009765625 11583.0009765625 5953.03759765625 11583.0009765625 5957.9990234375 L 11583.0009765625 5990.00048828125 C 11583.0009765625 5994.9619140625 11587.037109375 5998.99853515625 11591.9990234375 5998.99853515625 L 11656.6708984375 5998.99853515625 L 11656.9306640625 5999.18359375 L 11683.9453125 6018.39501953125 M 11686.0732421875 6021.13525390625 L 11656.3515625 5999.99853515625 L 11591.9990234375 5999.99853515625 C 11586.478515625 5999.99853515625 11582.0009765625 5995.52392578125 11582.0009765625 5990.00048828125 L 11582.0009765625 5957.9990234375 C 11582.0009765625 5952.478515625 11586.478515625 5948.0009765625 11591.9990234375 5948.0009765625 L 11697 5948.0009765625 C 11702.5234375 5948.0009765625 11707.0009765625 5952.478515625 11707.0009765625 5957.9990234375 L 11707.0009765625 5990.00048828125 C 11707.0009765625 5995.52392578125 11702.5234375 5999.99853515625 11697 5999.99853515625 L 11677.92578125 5999.99853515625 L 11686.0732421875 6021.13525390625 Z" stroke="none" fill="#fff"/>
  </g>
</svg>
