<svg xmlns="http://www.w3.org/2000/svg" width="246" height="74.312" viewBox="0 0 246 74.312">
  <g id="Group_1110" data-name="Group 1110" transform="translate(-40 -15)">
    <g id="Group_830" data-name="Group 830" transform="translate(12842 4179)">
      <g id="レイヤー_1" data-name="レイヤー 1" transform="translate(-12746.809 -4156)">
        <g id="Group_832" data-name="Group 832">
          <g id="Group_830-2" data-name="Group 830" transform="translate(11.537)">
            <path id="Path_995" data-name="Path 995" d="M52.72,35.625V23.272L47.387,14.4V35.622H42.72V2.47h4.667v4L52.72,15.4V2.47h4.667V35.625Z" transform="translate(-42.72 -1.803)" fill="#a21f2d"/>
            <path id="Path_996" data-name="Path 996" d="M114.32,35.625V2.47h4.667V35.625Z" transform="translate(-94.984 -1.803)" fill="#a21f2d"/>
            <path id="Path_997" data-name="Path 997" d="M152.969,34.357A7.458,7.458,0,0,1,147.033,27V22.021H151.7v5.042a2.735,2.735,0,0,0,2.476,2.76,2.673,2.673,0,0,0,2.857-2.66V22.329a.8.8,0,0,0-.2-.532L147.837,11.64a3.212,3.212,0,0,1-.807-2.128V7.505A7.453,7.453,0,0,1,152.966.144a7.379,7.379,0,0,1,8.734,7.2V9.415h-4.667V7.424a2.72,2.72,0,0,0-2.244-2.714A2.674,2.674,0,0,0,151.7,7.343v1.75a.8.8,0,0,0,.2.532l8.993,10.157a3.212,3.212,0,0,1,.807,2.128v5.255a7.38,7.38,0,0,1-8.734,7.2Z" transform="translate(-118.86 -0.006)" fill="#a21f2d"/>
            <path id="Path_998" data-name="Path 998" d="M226.81,35.625V18.587h-5.334V35.625H216.81V2.47h4.667V13.92h5.334V2.47h4.667V35.625Z" transform="translate(-169.796 -1.803)" fill="#a21f2d"/>
            <path id="Path_999" data-name="Path 999" d="M288.4,35.625V2.47h4.667V35.625Z" transform="translate(-222.052 -1.803)" fill="#a21f2d"/>
            <path id="Path_1000" data-name="Path 1000" d="M332.97,35.625V23.272L327.637,14.4V35.622H322.97V2.47h4.667v4L332.97,15.4V2.47h4.667V35.625Z" transform="translate(-247.287 -1.803)" fill="#a21f2d"/>
            <path id="Path_1001" data-name="Path 1001" d="M401.895,34.489a7.4,7.4,0,0,1-7.335-7.335V7.335a7.335,7.335,0,1,1,14.669,0V27.154A7.4,7.4,0,0,1,401.895,34.489Zm2.668-27.154a2.668,2.668,0,1,0-5.336,0V27.154a2.668,2.668,0,1,0,5.336,0V7.335Z" transform="translate(-299.543)" fill="#a21f2d"/>
            <path id="Path_1002" data-name="Path 1002" d="M479.5,35.625V17l-4.334,10.8L470.827,17V35.625H466.16V2.47h4.667v4L475.161,17.4,479.5,6.47v-4h4.667V35.625Z" transform="translate(-351.807 -1.803)" fill="#a21f2d"/>
            <path id="Path_1003" data-name="Path 1003" d="M550.1,35.625V2.47h4.667V35.625Z" transform="translate(-413.078 -1.803)" fill="#a21f2d"/>
            <path id="Path_1004" data-name="Path 1004" d="M592.5,22.454V35.625h-4.667V22.454l-5-8.334V2.47H587.5V12.786l2.665,4.467,2.668-4.467V2.47H597.5V14.12l-5,8.334Z" transform="translate(-436.969 -1.803)" fill="#a21f2d"/>
            <path id="Path_1005" data-name="Path 1005" d="M662.23,33.822V21.453H656.9V33.822H652.23V7.335a7.335,7.335,0,0,1,14.67,0V33.822h-4.667Zm0-26.487a2.667,2.667,0,1,0-5.334,0v9.449h5.334V7.335Z" transform="translate(-487.628)" fill="#a21f2d"/>
          </g>
          <g id="Group_831" data-name="Group 831" transform="translate(0 0.667)">
            <path id="Path_1006" data-name="Path 1006" d="M6.87,69.965V66.67H3.435A3.467,3.467,0,0,0,0,70.105v9.282a3.467,3.467,0,0,0,3.435,3.435A3.467,3.467,0,0,0,6.87,79.387v-.578H4.685v.578a1.25,1.25,0,0,1-2.5,0V70.105a1.255,1.255,0,0,1,1.25-1.25h1.25v1.11H6.87Z" transform="translate(0 -49.332)" fill="#a21f2d"/>
            <path id="Path_1007" data-name="Path 1007" d="M4.162,10H7.7V7.817H4.162V4.649H8.318V2.47H1.98V17.958H4.162Z" transform="translate(-1.445 -2.47)" fill="#a21f2d"/>
          </g>
        </g>
      </g>
      <g id="レイヤー_1-2" data-name="レイヤー 1" transform="translate(-12802 -4164)">
        <g id="Group_833" data-name="Group 833" transform="translate(0 0)">
          <path id="Path_1008" data-name="Path 1008" d="M5.571,9.207a.44.44,0,0,0-.688.363V29.287a17.128,17.128,0,0,0,9.4,15.265.658.658,0,0,1,.362.588v4.237a.439.439,0,0,1-.6.411A21.9,21.9,0,0,1,6.511,44.9,22.18,22.18,0,0,1,0,29.122V.439A.441.441,0,0,1,.689.075L28.594,19.145a.44.44,0,0,0,.688-.363V10.314a.55.55,0,0,1,.55-.55h3.783a.55.55,0,0,1,.55.55v17.6a.44.44,0,0,1-.688.363Z" transform="translate(0 0.002)" fill="#a21f2d"/>
          <path id="Path_1009" data-name="Path 1009" d="M99.822,38.42a.328.328,0,0,1-.538.253,12.18,12.18,0,0,1-4.345-9.329V19.06a.441.441,0,0,1,.69-.363l26.256,17.942a.551.551,0,0,0,.811-.227,17.06,17.06,0,0,0,1.527-7.068V5.493a.55.55,0,0,0-.55-.55h-8.659a.55.55,0,0,1-.55-.55V.61a.55.55,0,0,1,.55-.55h13.543a.55.55,0,0,1,.55.55V29.342a21.915,21.915,0,0,1-2.632,10.432q-.318.589-.673,1.161a21.931,21.931,0,0,1-1.658,2.316.659.659,0,0,1-.881.124l-3.573-2.443L100.51,27.827a.439.439,0,0,0-.688.363Z" transform="translate(-85.18 -0.054)" fill="#cc3522"/>
        </g>
      </g>
    </g>
    <path id="Path_2363" data-name="Path 2363" d="M-121.624,0h1.488V-5.264h4.48V-6.512h-4.48V-10.48h5.28v-1.264h-6.768Zm13.088.208a4.534,4.534,0,0,0,3.6-1.68l-.816-.928a3.565,3.565,0,0,1-2.72,1.312c-2.24,0-3.648-1.856-3.648-4.816,0-2.928,1.472-4.752,3.7-4.752a3.2,3.2,0,0,1,2.4,1.12l.8-.96a4.337,4.337,0,0,0-3.216-1.456c-2.976,0-5.2,2.3-5.2,6.1C-113.64-2.048-111.448.208-108.536.208Zm13.184-9.1H-97.7v-2.3h2.352Zm4.176,3.44a3.215,3.215,0,0,1-.848-.384c-.032,1.072-.1,1.216-.448,1.216h-1.28c-.416,0-.48-.048-.48-.4V-7.792h3.056ZM-101.512-.928V-7.792h2.688v.736c0,1.2-.384,2.608-2.56,3.648a3.534,3.534,0,0,1,.832.784A4.634,4.634,0,0,0-97.7-7.04v-.752h2.352v2.768c0,1.152.256,1.456,1.44,1.456h1.584a1.006,1.006,0,0,0,1.152-.8v3.44ZM-89.4-11.2v-1.136h-13.952V-11.2h4.48v2.3h-3.792V1.152h1.152V.176h10.336v.912h1.2V-8.9h-4.192v-2.3ZM-76.168-.512H-84.36V-2.88h8.192Zm-7.168-7.9h5.9v2.08h-5.9Zm7.088,3.072V-9.408h-8.208v4.064h3.424c-.048.464-.112.96-.176,1.408h-4.3v5.1h1.152V.528h8.192V1.1h1.2v-5.04h-5.088c.1-.432.208-.928.32-1.408Zm-3.568-6.512v-1.536h-1.216v1.536H-87v3.584h1.152v-2.5h10.992v2.5h1.184v-3.584Zm24.448.96H-58.44v1.664c0,.96.336,1.2,1.52,1.2h2.144c.848,0,1.152-.288,1.264-1.36a2.879,2.879,0,0,1-.88-.336c-.048.752-.128.848-.512.848h-1.9c-.528,0-.624-.064-.624-.368v-.816h3.12v-2.7h-4.432v.832h3.376Zm-5.152,0h-3.136v1.664c0,.96.3,1.2,1.488,1.2h1.984c.816,0,1.12-.272,1.232-1.312a2.244,2.244,0,0,1-.88-.336c-.048.7-.128.8-.512.8h-1.728c-.512,0-.592-.064-.592-.352v-.832h3.152v-2.7h-4.432v.832h3.424Zm.256,5.136h2.624v1.52h-2.624Zm6.656,1.52h-2.9V-5.76h2.4v-.912h-2.4V-7.824H-57.64v1.152h-2.624V-7.824h-1.1v1.152h-2.368v.912h2.368v1.52h-2.88v.928h10.64Zm-.24,3.056A19.584,19.584,0,0,0-57.08-3.1l-.848.528A15.465,15.465,0,0,1-55-.672ZM-60.84-3.136a10.567,10.567,0,0,1-2.976,1.68,5.735,5.735,0,0,1,.88.752,13.752,13.752,0,0,0,3.152-2.064Zm-3.712-7.216A10.98,10.98,0,0,0-67-13.008l-.912.608a10.955,10.955,0,0,1,2.368,2.72ZM-64.92-7.12h-3.072V-6h1.968v4.128a23.692,23.692,0,0,1-2.16,1.84l.624,1.1c.768-.7,1.488-1.376,2.16-2.08.992,1.264,2.448,1.84,4.56,1.92,1.808.064,5.264.032,7.072-.048a4.021,4.021,0,0,1,.384-1.12c-1.952.128-5.68.176-7.488.1-1.872-.08-3.3-.624-4.048-1.824Zm27.328,1.968h-6.56V-7.744h5.664V-8.88h-5.664v-2.592a29.9,29.9,0,0,0,4.992-.944l-.9-.944c-2.4.752-7.04,1.168-10.816,1.344a5.4,5.4,0,0,1,.3,1.056c1.648-.08,3.456-.192,5.216-.384V-8.88h-5.5v1.136h5.5v2.592h-6.576v1.168h6.576V-.448c0,.336-.144.448-.5.448-.368.016-1.616.032-2.96-.016A5.888,5.888,0,0,1-48.3,1.168,12.444,12.444,0,0,0-45,.96c.592-.192.848-.544.848-1.392V-3.984h6.56Zm8.816-2.624a1.687,1.687,0,0,0-1.7,1.7,1.687,1.687,0,0,0,1.7,1.7,1.687,1.687,0,0,0,1.7-1.7A1.687,1.687,0,0,0-28.776-7.776Zm20.8-2.928-.816-.624a4.381,4.381,0,0,1-1.2.128h-6.176c-.48,0-1.392-.064-1.616-.1V-9.84c.176-.016,1.056-.08,1.616-.08h6.24a14.079,14.079,0,0,1-2.656,4.448A18.3,18.3,0,0,1-19.176-.72L-18.152.352a20.284,20.284,0,0,0,6.24-4.672A36.942,36.942,0,0,1-7.512.432l1.12-.96a44.383,44.383,0,0,0-4.672-4.784A20.25,20.25,0,0,0-8.376-10,4.59,4.59,0,0,1-7.976-10.7ZM3.8-12.56l-1.456-.464a5.778,5.778,0,0,1-.512,1.264A14.662,14.662,0,0,1-3.3-6.192l1.072.832A17.454,17.454,0,0,0,2.008-9.6H7.416A13.367,13.367,0,0,1,5.24-5.168C4.12-5.952,2.92-6.72,1.864-7.328L1-6.448c1.024.64,2.24,1.472,3.392,2.3A14.036,14.036,0,0,1-1.8-.288L-.648.7a15.183,15.183,0,0,0,6.1-4.064C6.1-2.832,6.712-2.336,7.192-1.9l.944-1.1c-.512-.416-1.152-.912-1.824-1.408a16.105,16.105,0,0,0,2.5-4.976,5.251,5.251,0,0,1,.384-.864L8.136-10.9a3.189,3.189,0,0,1-1.056.16H2.744a5.366,5.366,0,0,0,.336-.576C3.24-11.6,3.528-12.144,3.8-12.56ZM18.952-9.216l-1.168.4a30.16,30.16,0,0,1,1.248,3.472l1.184-.416C20.008-6.464,19.224-8.576,18.952-9.216Zm5.792.9-1.376-.432A10.972,10.972,0,0,1,21.16-3.28,10.774,10.774,0,0,1,15.96.128L17.016,1.2a12.192,12.192,0,0,0,5.216-3.808A12.54,12.54,0,0,0,24.5-7.52C24.568-7.728,24.632-7.984,24.744-8.32Zm-9.5-.1-1.184.464a28.619,28.619,0,0,1,1.424,3.6L16.7-4.8C16.392-5.632,15.56-7.728,15.24-8.416ZM41-10.64l-.976-.624a3.285,3.285,0,0,1-.848.08H31.144c-.528,0-1.152-.048-1.6-.1v1.408c.416-.016.96-.048,1.6-.048H39.32a12.173,12.173,0,0,1-2.1,5.216,10.677,10.677,0,0,1-6.24,3.856l1.088,1.2a12.229,12.229,0,0,0,6.3-4.288,15.631,15.631,0,0,0,2.384-5.9A3.374,3.374,0,0,1,41-10.64Zm6.96.112h1.152v-.8h4.16v.8H54.44v-.8h3.632V-12.3H54.44v-1.072H53.272V-12.3h-4.16v-1.072H47.96V-12.3H44.376v.976H47.96Zm3.232,7.92c.1-.368.176-.736.24-1.136H50.28a6.206,6.206,0,0,1-.272,1.136H47.064a9.365,9.365,0,0,0,1.872-1.456H53.48a8.874,8.874,0,0,0,1.68,1.456ZM47.176-7.744H55.32V-6.72H47.176Zm0-1.776H55.32V-8.5H47.176ZM58.3-4.064v-.96H49.752c.208-.3.384-.592.56-.912h6.176V-10.3H46.04v4.368h2.992a5.552,5.552,0,0,1-.64.912H44.168v.96h3.216A11.431,11.431,0,0,1,43.816-2.24a2.919,2.919,0,0,1,.688.848,17.309,17.309,0,0,0,1.968-.864v.544h3.136c-.64.992-1.84,1.68-4.144,2.1a2.964,2.964,0,0,1,.592.928c2.784-.576,4.112-1.536,4.8-3.024h3.6C54.344-.576,54.2-.08,54.024.1A.722.722,0,0,1,53.5.224a16.375,16.375,0,0,1-1.728-.08,2.619,2.619,0,0,1,.272.976c.8.032,1.536.048,1.92.016a1.268,1.268,0,0,0,.96-.352c.352-.32.528-1.12.7-2.928l.016-.144a11.23,11.23,0,0,0,2.288,1.04,4.236,4.236,0,0,1,.768-.928,10.667,10.667,0,0,1-3.872-1.888Zm4.88-2.656H66.9v1.1H63.176ZM66.9-9.472H63.176v-1.072H66.9Zm0,1.9H63.176V-8.624H66.9Zm7.424,4.88v-.976h-6.56v-.992H73.88v-.96H68.04v-1.1h4.64v-.848H68.04V-8.624h4.592v-.848H68.04v-1.072h5.216v-.944H68.008c.3-.512.64-1.12.96-1.712l-1.328-.192a13.532,13.532,0,0,1-.832,1.9H63.72a19.426,19.426,0,0,0,1.008-1.68l-1.232-.24A14.082,14.082,0,0,1,59.72-8.7a3.56,3.56,0,0,1,.848.784,16.074,16.074,0,0,0,1.5-1.44v4.7H66.6v.992H60.136v.976h5.472A17.184,17.184,0,0,1,59.752.064a4.666,4.666,0,0,1,.784.976A18.72,18.72,0,0,0,66.6-2.224V1.2h1.168V-2.256A18.141,18.141,0,0,0,73.88.928a5.038,5.038,0,0,1,.768-.976,17.074,17.074,0,0,1-5.84-2.64ZM86.744-7.344V-7.92H88.5c.7,0,1.3.032,1.472.048V-9.216a11.764,11.764,0,0,1-1.472.08h-1.76v-2a12.131,12.131,0,0,1,.08-1.312h-1.44a8.921,8.921,0,0,1,.08,1.312v2H80.9v-2.048a9.876,9.876,0,0,1,.08-1.168H79.56a9.88,9.88,0,0,1,.064,1.168v2.048H77.9a11.73,11.73,0,0,1-1.6-.112v1.392c.192-.016.912-.064,1.6-.064h1.728v2.592c0,.608-.048,1.3-.064,1.456h1.408c-.016-.16-.064-.864-.064-1.456V-7.92h4.56v.672c0,4.48-1.456,5.856-4.368,6.976L82.168.736C85.832-.9,86.744-3.088,86.744-7.344ZM92.6-5.776l.64,1.248a31.6,31.6,0,0,0,6.1-2.608v5.92A14.841,14.841,0,0,1,99.24.5h1.568a12.074,12.074,0,0,1-.1-1.712V-7.968a26.175,26.175,0,0,0,4.32-3.568l-1.072-.992a19.064,19.064,0,0,1-4.368,3.76A26.449,26.449,0,0,1,92.6-5.776Zm20.016,4.368A14.1,14.1,0,0,1,112.5.48h1.552c-.064-.528-.1-1.392-.1-1.888,0-.464,0-2.88-.016-5.28a41.948,41.948,0,0,1,6.288,2.576l.544-1.36a51.139,51.139,0,0,0-6.832-2.64V-10.72c0-.48.064-1.168.112-1.664h-1.568a10.1,10.1,0,0,1,.128,1.664Z" transform="translate(163 88)" fill="#1a1a1a"/>
  </g>
</svg>
