<svg xmlns="http://www.w3.org/2000/svg" width="1148.4" height="188.12" viewBox="0 0 1148.4 188.12">
  <path id="Path_2363" data-name="Path 2363" d="M21.52-23.2H36.56a104.708,104.708,0,0,1,12.8.56v-14.8a103,103,0,0,1-12.8.56H21.52V-50h18.4a108.235,108.235,0,0,1,13.36.56v-15.2a94.79,94.79,0,0,1-13.44.56H16.72c-6.16,0-8.4-.08-11.68-.24a80.459,80.459,0,0,1,.64,11.68V-11.2c0,6.96-.16,10.16-.72,13.68h17.2c-.56-3.52-.64-6.4-.64-13.92ZM119.2-44.08a24.71,24.71,0,0,0-4.96-10.96c-5.2-6.96-13.28-10.48-23.6-10.48-9.36,0-17.44,2.96-22.96,8.32C61.36-50.96,58-41.76,58-30.88,58-20.16,61.36-10.8,67.28-4.8,72.96.96,81.2,4,90.96,4c9.68,0,17.44-3.04,22.4-8.72,3.36-3.92,5.12-7.84,6.64-14.64l-16.64-2.48c-.48,3.36-1.04,4.96-2.4,6.88A12.608,12.608,0,0,1,90.48-9.92c-9.92,0-15.84-7.92-15.84-20.96,0-13.2,5.68-20.88,15.44-20.88,6.88,0,11.12,3.6,12.64,10.88ZM148.56-54v6.48h-10.4a94.318,94.318,0,0,1-9.44-.32c.32,3.36.48,6.16.48,9.36V-4.4a83.365,83.365,0,0,1-.56,10.96h12.48V2.96h43.04v3.6h12.4a96.179,96.179,0,0,1-.48-10.88V-38.48a85.657,85.657,0,0,1,.4-9.44,79.879,79.879,0,0,1-9.36.4H175.84V-54H189.2c3.6,0,7.12.16,10.32.4V-65.52a95.822,95.822,0,0,1-10.56.48H136.32a97.873,97.873,0,0,1-10.56-.48V-53.6c2.96-.24,6.88-.4,10.4-.4ZM160-54h4.8v6.48H160V-54ZM148.16-36.48c-.64,8.48-2.4,12.8-7.04,17.28V-36.48Zm16.64,0v13.6c0,5.84,2.64,7.68,11.2,7.68,2.08,0,2.96-.08,8.16-.4v7.44H141.12V-18.4A41.633,41.633,0,0,1,150-10.56a29.287,29.287,0,0,0,6.88-11.04,56.3,56.3,0,0,0,2.72-14.88Zm11.04,0h8.32v9.92c-2.56.16-3.44.16-4.56.16-3.2,0-3.76-.24-3.76-1.52ZM235.76-62.4H216.32c-4.32,0-6.88-.08-9.6-.32a46.527,46.527,0,0,1,.32,6.32v9.2a40.336,40.336,0,0,1-.4,6.72h11.6v7.68c0,4.8-.08,5.92-.24,7.92,2.48-.16,4.48-.24,8.24-.24h9.36a29.173,29.173,0,0,1-1.84,3.44H218.72a63.423,63.423,0,0,1-7.2-.32,65.787,65.787,0,0,1,.32,7.84V-.96c0,2.48-.16,4.8-.4,8.16h12.24V4.32h38.08V7.2H274a65.047,65.047,0,0,1-.4-8.08V-14.16a74.959,74.959,0,0,1,.32-7.84,55.923,55.923,0,0,1-7.52.32H247.12c.56-1.12.72-1.44,1.6-3.44H259.2c3.76,0,6.16.08,8.32.24a55.849,55.849,0,0,1-.24-7.92v-7.68H278.8a43.368,43.368,0,0,1-.4-6.72v-9.2a43.62,43.62,0,0,1,.32-6.32c-2.72.24-5.36.32-9.6.32H248.48v-.48a28.831,28.831,0,0,1,.4-5.12H235.36a26.07,26.07,0,0,1,.4,5.12Zm30.88,14.16c-1.04.08-2,.08-3.12.08h-41.2a23.664,23.664,0,0,1-3.52-.16v-3.12h47.84Zm-36.56,9.6h25.36v3.92H230.08Zm-6.4,27.52h38.08V-6.4H223.68ZM311.2-38.4h.96c.24,0,.88,0,1.84.08,6.72.24,11.36.4,13.76.4,1.6,0,2.72,0,4.56-.08.08,2.8.08,3.92.16,6.64.16,3.76.16,4.16.24,6.4a23.443,23.443,0,0,0-4.64-.48c-5.04,0-9.28,1.12-12.32,3.28a14.1,14.1,0,0,0-6.08,11.76c0,9.28,6.96,14.88,18.72,14.88,10.24,0,17.2-4.56,17.2-11.36v-.64c4.56,2.88,7.68,5.36,9.52,7.6l5.04-13.6a10.275,10.275,0,0,1-1.52-.96,64.248,64.248,0,0,0-12.88-7.28c-.56-9.2-.64-10.8-.72-17.04,4-.48,7.6-.96,10.08-1.52a21.693,21.693,0,0,1,2.96-.48l-.48-12.72a74.563,74.563,0,0,1-12.72,2.48c0-7.92.24-11.44.64-14l-13.84.08a22.009,22.009,0,0,1,.4,4.48v10.4c-2.72.08-4.08.08-5.76.08a71.411,71.411,0,0,1-14.96-1.28Zm21.84,26.72c0,3.2-1.76,4.64-5.6,4.64-3.2,0-5.28-1.36-5.28-3.44,0-2.24,2.24-3.68,5.92-3.68a12.852,12.852,0,0,1,4.88.96ZM293.6-65.36v.4a50.1,50.1,0,0,1-.96,6.96c-2.48,14-3.2,21.04-3.2,32.32,0,8.64.32,13.04,1.76,24.24.56,4.88.56,4.88.64,6.32l13.52-.56c-.16-1.76-.24-2.8-.24-3.2,0-10.16.88-16.64,3.36-24.4l-6.16-2.08a145.816,145.816,0,0,1,3.84-31.04,45.408,45.408,0,0,1,2.32-7.92ZM439.12-38.88a103.8,103.8,0,0,1-13.76.64H380a114.886,114.886,0,0,1-13.84-.64v13.92A132.513,132.513,0,0,1,380-25.6h45.36a128.987,128.987,0,0,1,13.76.64Zm34.56,14.8c.64.96.8,1.28,1.36,2.16l-6.16.88A144.313,144.313,0,0,1,470-3.2V-.88l7.28-1.52c-.32-6.96-1.04-15.28-1.52-18.08.88,1.76,1.28,2.56,2.4,5.04l2.08-1.36V-2.08a69.254,69.254,0,0,1-.4,9.2h11.84V3.92h13.76V7.2h12a72.592,72.592,0,0,1-.4-9.44v-20a67.38,67.38,0,0,1,.4-9.52c-2,.16-4.4.24-8.56.24h-9.44c1.52-1.52,2.16-2.16,3.84-3.92h9.44a57.177,57.177,0,0,1,7.68.32v-11.2a59.492,59.492,0,0,1-6.56.24h-1.6a109.935,109.935,0,0,0,6.8-10.32,43.449,43.449,0,0,1,2.64-3.84l-10.88-5.6c-.8,2.4-1.76,4.32-4.4,8.8V-61.6a26.836,26.836,0,0,1-4.96.32h-2.56v-1.28a26.769,26.769,0,0,1,.48-5.68H486.72a28.187,28.187,0,0,1,.4,5.6v1.36h-1.84a48.711,48.711,0,0,1-7.52-.4v11.2a61.327,61.327,0,0,1,7.6-.32h1.76v4.72h-4a54.249,54.249,0,0,1-7.2-.32v8.64c-.56-1.68-.88-2.64-1.92-5.44l-6.08,1.76c3.92-5.6,4.32-6.24,9.6-14.4l-9.2-4.88a96.75,96.75,0,0,1-7.12,12.8c-.64-.8-.64-.8-2-2.48a123.274,123.274,0,0,0,6.96-12.32,27.967,27.967,0,0,1,1.52-2.72l-10.56-3.6a47.912,47.912,0,0,1-4.56,10.64l-1.76-2-5.68,10a95.29,95.29,0,0,1,9.84,11.84c-1.6,2.24-1.6,2.24-2.56,3.52h-2.8a22.669,22.669,0,0,1-4.32-.32l.88,11.28c1.44-.32,1.44-.32,10.88-.72V-1.52a50.682,50.682,0,0,1-.48,8.8h11.52a49.593,49.593,0,0,1-.48-8.8V-25.44l3.36-.32c.24,1.2.24,1.2.4,2.4Zm14.88-11.36a84.186,84.186,0,0,1-10,6.88c-.72-2.88-1.04-4-1.84-6.72,1.52-.08,3.36-.16,5.28-.16Zm9.28-10.64V-50.8h5.44c-1.28,1.76-2.24,3.12-3.6,4.72Zm-30.48,5.44c.8,2.56,1.04,3.44,1.52,5.04-3.12.24-3.12.24-5.44.32C464.72-36.96,465.04-37.44,467.36-40.64ZM491.68-22h13.84v3.44H491.68Zm0,12.4h13.84v3.68H491.68ZM447.36-22.24c-.24,10.96-.88,16-2.48,21.92L452.72,4c1.6-7.52,2.32-14.08,2.64-25.2ZM534.4-64.72a65.848,65.848,0,0,1-1.2,8.56,173.038,173.038,0,0,0-3.04,30.8A169.031,169.031,0,0,0,532.24-.08a32.144,32.144,0,0,1,.4,4.24l13.76-.64a22.4,22.4,0,0,1-.24-3.92,78.938,78.938,0,0,1,3.12-22.4l-6.16-2.08c.56-14.56,2.96-29.52,6.08-38.64Zm20.96,20.8c1.12.08,1.68.08,2.32.16a132,132,0,0,0,13.76.64c5.52,0,11.36-.32,16.88-.88,4.4-.48,5.2-.56,5.92-.56l-.56-13.68c-5.36,1.36-13.2,2-23.84,2a66.821,66.821,0,0,1-14.24-1.2Zm4.72,10.64c-2.16,3.12-2.64,3.92-3.76,5.76a25.071,25.071,0,0,0-3.84,12.48,14.819,14.819,0,0,0,7.36,12.72C564,0,568.96,1.04,576.4,1.04A97.964,97.964,0,0,0,590.24,0c4.72-.72,4.72-.72,6.8-.96l-.8-14.16a59.455,59.455,0,0,1-19.92,3.28c-6.8,0-10.4-2-10.4-5.68,0-2.88,1.68-6.32,5.36-11.04ZM621.76-18.4v3.6h-7.2c-3.68,0-6.48-.16-9.12-.4V-3.6a69.963,69.963,0,0,1,9.2-.48h7.12v2.4a60.78,60.78,0,0,1-.48,8.88h12.24a49,49,0,0,1-.48-8.88v-2.4h7.44c1.92,0,3.28,0,5.2.16a24.908,24.908,0,0,1-3.76,2.16,43.637,43.637,0,0,1,7.92,8.96,84.77,84.77,0,0,0,10.72-8.96c3.68,6,7.2,8.96,10.64,8.96,3.04,0,5.52-2.16,7.28-6.24C679.76-2,680.4-4.72,681.2-10a38.259,38.259,0,0,1-8.08-6.24c-.64,5.52-1.44,9.2-2.08,9.2-.24,0-1.44-1.92-2.32-3.84a90.4,90.4,0,0,0,9.12-15.44l.64-1.28c.72-1.44.72-1.44,1.04-2L669.2-34.96a37.033,37.033,0,0,1-4.16,10.64c-.48-3.04-.64-5.2-1.12-11.2l8-.64c4.08-.32,5.2-.4,7.52-.4L678.96-48a45.978,45.978,0,0,1-7.52.96l-8,.64c0-2.08,0-2.08-.08-14a72.6,72.6,0,0,1,6.72,12.48l9.28-4.72a80.318,80.318,0,0,0-8.24-13.52l-7.76,3.76a20.046,20.046,0,0,1,.4-5.04H651.2a54.223,54.223,0,0,1,.4,6.56c.24,10.96.24,10.96.4,15.44l-4.8.4a42.256,42.256,0,0,1,.32-6.72,29.888,29.888,0,0,1-4.16.24,104.93,104.93,0,0,0,6.24-12.4l-11.28-4a77.8,77.8,0,0,1-4.16,11.2,77.164,77.164,0,0,0-3.6-11.36l-10.8,2.48a72.973,72.973,0,0,1,4.16,13.44l8.96-2.08a31.035,31.035,0,0,1-1.52,2.72h-18.8l8.4-2.64a83.9,83.9,0,0,0-5.84-12.8l-10.16,3.28a68.153,68.153,0,0,1,5.28,12.08c-.96,0-1.6-.08-2.56-.16A45.933,45.933,0,0,1,608-45.2v20.56a45.389,45.389,0,0,1-.32,6.48c1.84-.16,4-.24,7.36-.24Zm11.28,0h6.8c3.04,0,5.52.08,7.68.24a48.181,48.181,0,0,1-.32-6.88v-9.12l5.52-.4a124.689,124.689,0,0,0,3.36,21.92c-2,2-4.64,4.32-7.28,6.48v-8.96a78.7,78.7,0,0,1-8.4.32h-7.36Zm-10.4-23.84v3.44h-4.4v-3.44Zm9.84,0h4.48v3.44h-4.48Zm-9.84,11.36v3.52h-4.4v-3.52Zm9.84,0h4.48v3.52h-4.48Zm62.32,4.16a59.035,59.035,0,0,1,10-2.8c8.96-2,15.6-2.96,20.96-2.96,7.28,0,11.52,2.96,11.52,8a11.313,11.313,0,0,1-.96,4.72c-1.6,3.68-6,6.96-11.44,8.64a63.5,63.5,0,0,1-19.44,2.64,35.32,35.32,0,0,1,4.88,12.8c11.2-1.28,12.64-1.52,18.16-3.2,14.24-4.32,22.16-13.44,22.16-25.68,0-6.4-2.32-11.68-6.64-15.12s-9.68-4.96-17.52-4.96c-6.48,0-14.08.96-25.12,3.2-6.4,1.2-6.4,1.2-9.2,1.52Zm69.52-16.96a47.48,47.48,0,0,1,6.88-1.04l27.68-2.48c-3.84,2.64-5.76,4.24-7.84,6.8a27.387,27.387,0,0,0-6.8,18.08c0,10.16,4.88,17.52,14.32,21.92,5.12,2.32,11.12,3.6,20.24,4.48a24.229,24.229,0,0,1,2.96.4L823.6-10.8a13.818,13.818,0,0,1-2.4.16c-5.2,0-12-1.28-15.28-2.88-4.56-2.16-6.72-5.28-6.72-9.84,0-6.56,4.72-13.36,12.72-18.24a37.5,37.5,0,0,1,18.32-5.6,12.166,12.166,0,0,1,2.24.16l-.72-14.48c-1.44.32-2.16.4-8.8.64-24.4.88-30.24,1.2-42.72,2-8.72.56-11.6.72-13.68.72-.64,0-1.68,0-3.04-.08ZM887.68-68.16a28.9,28.9,0,0,1-4,4.64c-5.52,5.52-10.4,9.68-21.04,17.68-4.96,3.76-6.16,4.8-7.28,6a11.7,11.7,0,0,0-2.96,7.68,13.079,13.079,0,0,0,1.2,5.28c1.04,2,2.48,3.44,6.48,6.56C874-9.52,876.8-7.2,883.68-.72A60.162,60.162,0,0,1,891.6,8L903.04-3.68c-1.28-1.12-2-1.68-2.48-2.08-8.88-7.76-15.68-13.28-24.4-19.6-7.52-5.52-7.52-5.52-7.52-6.48,0-.72.48-1.2,2.64-2.8,8.48-6.24,14.96-11.44,19.6-15.52,7.44-6.64,8.24-7.36,10.16-8.56ZM926.4-5.04c.96-1.6,2.24-3.2,7.92-10v8.4A81.411,81.411,0,0,1,933.6,5.6l14.48-.08c-.4-3.12-.64-11.28-.64-22.64,0-2.32,0-4.64.08-8.4a75.61,75.61,0,0,1,13.84-12.32c2.88-2.08,5.68-3.28,7.6-3.28a2.084,2.084,0,0,1,2.32,2.24,49.5,49.5,0,0,1-1.44,8.24c-2.72,12-3.52,16.8-3.52,21.28,0,7.84,4.88,12.88,12.56,12.88S991.76-.32,997.92-10.4a49.857,49.857,0,0,1-6.72-12.88,47.639,47.639,0,0,1-4.8,8.56c-1.52,2.24-3.2,3.6-4.4,3.6s-1.92-.88-1.92-2.32c0-2,.96-7.04,3.44-17.12,1.6-6.72,2.08-9.36,2.08-12.08,0-7.52-5.12-12.48-12.88-12.48-7.04,0-15.28,4.48-25.28,13.76a11.829,11.829,0,0,0,.08-1.76l.08-1.12a28.909,28.909,0,0,1,5.04-5.44l-4.4-4.16a114,114,0,0,1,.96-11.84L935.04-66a34.626,34.626,0,0,1,.32,5.28c0,1.84-.08,3.84-.16,5.52a21.131,21.131,0,0,1-.08,2.56c-3.36.24-6.72.4-8.72.4-1.36,0-2.32-.08-4.16-.24l.64,12.64c2.96-.48,2.96-.48,11.92-1.04-.08,5.2-.16,7.52-.24,8.8-.4.48-3.36,3.36-8.72,8.8a61,61,0,0,1-5.6,4.88Zm87.2-45.36c1.6-.16,3.12-.32,5.28-.4,11.28-.56,14.48-.72,18.72-1.2-9.92,9.84-26.8,22.96-34.16,26.4l7.44,12.16a59.49,59.49,0,0,1,7.68-6,46,46,0,0,1,24.64-7.36c8.88,0,14.32,3.44,14.32,9.04,0,4.08-2,6.8-6.32,8.72a18.821,18.821,0,0,0-3.68-6.32,18.764,18.764,0,0,0-14.32-6.16c-9.28,0-15.92,5.36-15.92,12.8,0,8.88,8.24,14.24,21.76,14.24,8,0,15.68-1.84,21.2-5.04,7.28-4.32,11.04-10.72,11.04-18.8,0-5.76-2-10.4-5.84-13.84-4.24-3.68-9.6-5.44-17.12-5.44a38.274,38.274,0,0,0-10.96,1.44c5.36-3.92,6.8-5.12,11.04-8.72,10.8-9.28,10.8-9.28,12.88-10.48l-6.56-9.68c-1.52.64-2.56.88-6.08,1.12-8.08.64-16.96.96-24.08.96a89.527,89.527,0,0,1-11.52-.56Zm25.68,44.96a12.142,12.142,0,0,1-2.64.24c-4.32,0-6.88-1.36-6.88-3.52,0-1.6,1.28-2.64,3.12-2.64C1036-11.36,1038.24-9.28,1039.28-5.44ZM22.64,81.48c0-5.84,0-6.64.16-8.96a40.327,40.327,0,0,1-6,.24H9.12a38.876,38.876,0,0,1-6.56-.4V84.44a28.126,28.126,0,0,1,4.96-.4H10.8V99.16c-4.16,3.28-7.36,5.28-9.68,6.08l5.2,12.88a96.882,96.882,0,0,0,10.64-8.4,18.735,18.735,0,0,0,8.32,5.84c3.84,1.36,8.48,1.76,20.24,1.76,12.08,0,23.44-.16,30.48-.4a51.511,51.511,0,0,1,2.96-12.56c-3.6.48-4.8.64-6.72.8A29.381,29.381,0,0,1,76.96,99a59.317,59.317,0,0,1-13.04-2.8h5.52a60.507,60.507,0,0,1,7.6.24V87.32a57.73,57.73,0,0,1-7.6.24H65.36V84.04h2.56a53.79,53.79,0,0,1,7.44.32V75.32a54.908,54.908,0,0,1-7.44.24H65.28V72.6c5.84-.16,7.68-.4,9.12-1.28,1.76-1.04,2.48-2.72,2.88-6.88a45.438,45.438,0,0,1-10-2.16v.96c-.24,1.36-.24,1.36-.48,1.6a5.578,5.578,0,0,1-2.88.48c-2.16,0-2.72-.32-2.72-1.36V62.12h8.48c1.84,0,3.44.08,5.36.16a33.13,33.13,0,0,1-.16-4.64V47.4a14.213,14.213,0,0,1,.16-2.72c-1.76.16-2.96.16-7.12.16H56.96c-2.56,0-4.8-.08-6.88-.24v8.96a49.218,49.218,0,0,1,6.72-.24h6.8v2.32H56.32a60.418,60.418,0,0,1-6.08-.16,39.49,39.49,0,0,1,.24,5.2v6.48c0,2.56,1.04,4.16,3.44,4.96v3.44H45.44V71.72c2.48-1.2,3.04-2.32,3.6-7.12a38.443,38.443,0,0,1-9.28-2.32v.48a3.521,3.521,0,0,1-.48,2.08,6.532,6.532,0,0,1-2.8.4c-2.24,0-2.48-.16-2.48-1.36V62.12h8.64c1.84,0,3.44.08,5.36.16a33.769,33.769,0,0,1-.16-4.64V49.08l-.08-1.6a9.042,9.042,0,0,1,.24-2.8c-1.76.16-2.96.16-7.12.16H29.6c-2.56,0-4.8-.08-6.88-.24v8.96a49.218,49.218,0,0,1,6.72-.24h7.6v2.32H29.68a55.99,55.99,0,0,1-5.84-.16A99.144,99.144,0,0,0,11.12,43.24L2.16,51.96A76.1,76.1,0,0,1,16,66.6l7.84-7.84v8.48c0,2.56.8,4,2.72,4.8,1.2.48,2.88.64,7.44.64v2.88h-.72a55.633,55.633,0,0,1-7.52-.24v9.04a53.659,53.659,0,0,1,7.52-.32H34v3.52H29.92a32.186,32.186,0,0,1-5.52-.32v9.28a33.72,33.72,0,0,1,5.68-.32h6.16a64,64,0,0,1-11.28,2.96,45.168,45.168,0,0,1,6.24,6.48c-4-.56-6.08-1.84-8.56-5.44ZM43.52,96.2H56.24l-5.12,3.6a47.676,47.676,0,0,0,12,6c-4.32.24-13.28.48-17.6.48-3.6,0-7.2-.08-9.76-.16A59.444,59.444,0,0,0,49.04,99.8Zm1.92-12.16h8.48v3.52H45.44Zm69.2-19.44H99.04a100.54,100.54,0,0,1-11.44-.48V76.28c3.36-.24,7.12-.4,11.44-.4h15.6v6.88H94.56a97.048,97.048,0,0,1-11.12-.48V94.6a99.984,99.984,0,0,1,11.12-.48h20.08v8.96c0,2-.72,2.56-2.96,2.56a125.437,125.437,0,0,1-12.8-.88,31.989,31.989,0,0,1,3.36,11.84c6.4.4,6.8.4,8.88.4.96,0,1.84.08,1.92.08h1.2c3.52,0,7.68-.8,9.68-1.84,2.32-1.36,3.44-3.92,3.44-8.32V94.12h18.08a99.617,99.617,0,0,1,11.2.48V82.28a97.673,97.673,0,0,1-11.2.48H127.36V75.88h14.08c4.8,0,8.16.16,11.28.4V64.12a101.514,101.514,0,0,1-11.44.48H127.36V57.24a226.221,226.221,0,0,0,24.08-3.44l-8.56-11.36a53.035,53.035,0,0,1-11.04,2.72c-10.24,1.76-24.8,2.8-39.44,2.8H87.04a45.892,45.892,0,0,1,3.84,11.12c10.4-.16,16.8-.4,23.76-.88ZM180.08,69a11.8,11.8,0,1,0,11.76,11.76A11.678,11.678,0,0,0,180.08,69Zm96.4,35.2C264,92.28,260.72,89.48,251.04,82.52c4.48-6,7.52-11.6,11.76-21.6,1.2-2.72,1.68-3.52,2.88-4.72L258.64,49c-2.16.8-2.64.8-6.4.88l-27.36.4c-2.32.08-3.84.08-4.48.08a59.267,59.267,0,0,1-8.4-.56l.4,14.24a95.011,95.011,0,0,1,12.72-.8l20.8-.32a64.358,64.358,0,0,1-16.08,23.52,75.443,75.443,0,0,1-25.92,16.16,41.909,41.909,0,0,1,8.96,12.64c12.4-6,21.92-13.04,29.44-21.92a128.622,128.622,0,0,1,22.96,22.72ZM305.84,43a51.314,51.314,0,0,1-4.64,11.2c-4.72,8.88-10.48,15.52-19.92,22.96A39.047,39.047,0,0,1,292.8,86.2c8.08-7.12,13.6-13.68,18.24-21.68l22.16-.16A56.531,56.531,0,0,1,326.32,79a103.685,103.685,0,0,0-14.72-9.12l-8.4,10.08a86,86,0,0,1,14.88,9.92c-7.2,7.36-14.96,12.08-27.12,16.4a44.7,44.7,0,0,1,9.36,12,93.126,93.126,0,0,0,13.76-7.36,76.658,76.658,0,0,0,19.44-18.08c5.92-8,10.16-16.64,14.88-30.88a7.305,7.305,0,0,1,1.84-3.44l-7.12-7.04a8.849,8.849,0,0,1-4.88,1.04l-21.52.24c2.24-4.56,3.36-6.8,3.44-6.96Zm61.6,23.28A102.049,102.049,0,0,1,374.56,87l12.48-3.76A100.784,100.784,0,0,0,379.28,63Zm17.76-3.44a94.128,94.128,0,0,1,7.2,20.08l12.24-3.76c-2.08-7.68-3.52-11.28-7.76-19.52Zm27.44-1.6a55.9,55.9,0,0,1-3.52,16.88c-4.96,13.28-13.68,21.28-29.76,27.52,4.48,4.4,6.08,6.4,8.8,11.28a108.31,108.31,0,0,0,9.68-5.36,58.147,58.147,0,0,0,16.8-16.24c4.48-6.64,7.6-14.8,10-26.08a32.171,32.171,0,0,1,1.2-4.88Zm90.72-11.68a12.527,12.527,0,0,1-5.84,1.04h-38c-7.84,0-10.24-.08-13.68-.64V64.44a110.477,110.477,0,0,1,13.44-.48h33.2A49.429,49.429,0,0,1,479.2,87.64c-7.04,7.04-15.44,11.92-26.96,15.68,5.28,5.2,6.96,7.36,10.08,13.44,14.08-6.48,23.04-12.88,30.48-21.76,7.68-9.12,12.48-19.12,16.08-34,.64-2.72.8-3.12,1.68-4.48Zm21.52,14.4h1.2c1.12,0,1.68,0,2.8.08,3.44.08,3.44.08,6.88.08h2.56c-.32.56-.32.56-1.52,2.56-1.2,1.92-4.4,6.56-6.16,8.72a54.928,54.928,0,0,1-8.48,8.32L532.32,93.8A50.82,50.82,0,0,1,540,85.72c5.6-4.88,11.12-7.68,15.2-7.68a3.3,3.3,0,0,1,3.2,2c-3.2,1.44-4,1.76-5.92,2.72a35.239,35.239,0,0,0-11.52,8.56,14.882,14.882,0,0,0-3.92,10.08,12.862,12.862,0,0,0,6.32,11.36c4.32,2.56,10,3.68,19.04,3.68a157.885,157.885,0,0,0,19.28-1.2,51.674,51.674,0,0,1,7.12-.72l-.88-14.4c-6.8,2.56-16,4-25.6,4-7.76,0-10.72-1.2-10.72-4.24a5.52,5.52,0,0,1,2.08-4.08c1.44-1.28,1.92-1.6,5.6-3.36l.72-.32a65.671,65.671,0,0,1-.4,8.48l13.04-.4a49.638,49.638,0,0,1-.32-6.88c0-3.52,0-3.6-.08-5.76,7.68-2.64,16.24-4.88,20.4-5.44l-4.88-12.64c-1.28.72-1.84.88-6.4,2.4-2.56.8-4.72,1.52-4.96,1.6-4.24,1.44-4.24,1.44-5.6,1.92-1.6-5.2-5.6-7.76-12.24-7.76a23.607,23.607,0,0,0-10.16,2.4,43.342,43.342,0,0,0,3.84-5.92c8.16-.24,18.16-.8,23.84-1.36q3.48-.36,7.2-.72l-.48-12.72c-4.24,1.12-12.4,2.16-20.24,2.56-4.08.24-4.08.24-4.88.32.08-.16.56-1.44,1.6-3.76a23.253,23.253,0,0,1,1.68-3.76l-14.64-1.12a28.948,28.948,0,0,1-2.48,8.88H541.6c-8.32,0-13.12-.32-16.56-1.12Zm90.88,41.12a42.577,42.577,0,0,1,6.16-.32h2.8c-4.16,2.88-9.84,4.24-19.44,4.72a28.707,28.707,0,0,1,5.84,9.6c14.08-1.76,22.24-6,27.76-14.32h11.2a8.686,8.686,0,0,1-1.04,3.28c-.48.48-1.92.72-4.8.72-1.52,0-4.64-.16-6.96-.4a25.472,25.472,0,0,1,3.12,9.6c2.32.08,4.08.08,5.28.08,9.12,0,12.56-1.2,14.24-4.96a32.1,32.1,0,0,0,1.92-9.76,62.255,62.255,0,0,0,9.28,4.08,40.142,40.142,0,0,1,5.2-10.88c-7.44-1.12-12.48-2.88-16.64-5.68h5.44a77.081,77.081,0,0,1,9.52.4V81.56a85.86,85.86,0,0,1-10,.4h-27.2c.48-.88.64-1.12,1.2-2h21.12c2.56,0,4.72.08,6.32.16a51.313,51.313,0,0,1-.24-5.6V63.8a52.961,52.961,0,0,1,.24-5.68c-1.44.08-3.12.16-6.32.16h-3.44V55.96h8.64a79.675,79.675,0,0,1,9.44.4V46.44a91.512,91.512,0,0,1-9.92.48h-8.16a19.08,19.08,0,0,1,.24-4.08H644.24a19.105,19.105,0,0,1,.32,4.08H629.92a18.694,18.694,0,0,1,.24-4.08H617.84a19.105,19.105,0,0,1,.32,4.08h-7.68a88.931,88.931,0,0,1-9.84-.48v9.92a79.675,79.675,0,0,1,9.44-.4h8.08v2.32h-2.88c-3.28,0-4.96-.08-6.4-.16a52.168,52.168,0,0,1,.32,5.68V74.52a51.8,51.8,0,0,1-.32,5.6c1.6-.08,3.84-.16,6.4-.16h10.96a19.2,19.2,0,0,1-1.44,2H610.32a82.227,82.227,0,0,1-9.76-.4v9.68a77.243,77.243,0,0,1,9.44-.4h4.88a54,54,0,0,1-15.52,6.32,28.739,28.739,0,0,1,6,9.68,67.029,67.029,0,0,0,10.4-4.88Zm8.96-9.12a55.082,55.082,0,0,0,5.52-5.12h14.48a48.46,48.46,0,0,0,5.44,5.12h-7.52a5.707,5.707,0,0,0,.32-1.28,20.35,20.35,0,0,0,.64-2l-12.32-.24a13.837,13.837,0,0,1-.48,3.52Zm19.84-37.68H629.92V55.96h14.64ZM620.8,64.52h33.36v2H620.8Zm0,7.28h33.36v2H620.8Zm106,5.04h13.76a63.7,63.7,0,0,1,8.08.24V69.72a51.742,51.742,0,0,1-8.08.32H726.8V67.56h13.76a65.883,65.883,0,0,1,8.08.24V60.44a50.07,50.07,0,0,1-8.08.32H726.8V58.28h18c2.72,0,4.56.08,6.24.24V49a60.13,60.13,0,0,1-8.24.4H728.4c1.28-2.08,2.32-3.84,3.6-6.24l-12.88-1.12a36.907,36.907,0,0,1-3.52,7.36H704.16a60.878,60.878,0,0,0,3.44-5.76l-12.88-1.68a22.69,22.69,0,0,1-2.48,5.12,46.152,46.152,0,0,1-13.52,14.56,37.624,37.624,0,0,1,5.2,11.6,48.737,48.737,0,0,0,5.92-5.44,53.6,53.6,0,0,0-.24,6v6.56a61.981,61.981,0,0,1-.32,7.36c2.4-.16,4.64-.24,7.92-.24h14.16v2.8H690.24a76.843,76.843,0,0,1-9.2-.32v10.32a69.991,69.991,0,0,1,9.2-.4h11.28c-5.52,3.68-12.64,6.08-22.24,7.44a42.368,42.368,0,0,1,5.76,10.72,92.816,92.816,0,0,0,13.28-4.24,43.342,43.342,0,0,0,13.28-8.4,28.048,28.048,0,0,0-.24,4.56V113a25.865,25.865,0,0,1-.48,5.44H724a20.705,20.705,0,0,1-.48-5.44v-3.04c0-1.2-.08-2.48-.24-4.56a43.823,43.823,0,0,0,12.24,7.68,68.992,68.992,0,0,0,14.56,4.8c2.56-6,3.04-6.96,5.84-11.12-8.88-1.04-17.76-3.68-22.96-6.88H744.8a73.49,73.49,0,0,1,9.36.4V89.96a81.027,81.027,0,0,1-9.36.32H723.52v-2.8h20.24a70.4,70.4,0,0,1,8.08.32V79.16a70,70,0,0,1-8.24.32H726.8Zm-11.76,0v2.64H701.36V76.84Zm0-6.8H701.36V67.56h13.68Zm0-9.28H701.36V58.28h13.68Zm56.8-14.64a37.573,37.573,0,0,1,.4,6.08c0,3.12-.16,10.72-.32,18.8-.4,16.08-.4,16.08-.4,18.16,0,11.2,1.52,16.32,6.08,20.72,4.32,4.08,10.4,6.08,18.56,6.08,10.48,0,18.8-3.44,25.12-10.32,4.4-4.88,7.04-10.72,10.08-22.72-5.12-2.08-7.76-3.76-13.68-8.4A60.794,60.794,0,0,1,814.48,89c-3.12,8.64-9.52,13.52-17.76,13.52-4.4,0-7.84-1.44-9.36-3.84-1.36-2.16-1.68-4.56-1.68-12.56,0-13.36.96-34.72,1.84-39.76Zm67.44,21.2a47.48,47.48,0,0,1,6.88-1.04l27.68-2.48c-3.84,2.64-5.76,4.24-7.84,6.8a27.387,27.387,0,0,0-6.8,18.08c0,10.16,4.88,17.52,14.32,21.92,5.12,2.32,11.12,3.6,20.24,4.48a24.227,24.227,0,0,1,2.96.4l1.84-15.28a13.818,13.818,0,0,1-2.4.16c-5.2,0-12-1.28-15.28-2.88-4.56-2.16-6.72-5.28-6.72-9.84,0-6.56,4.72-13.36,12.72-18.24a37.5,37.5,0,0,1,18.32-5.6,12.166,12.166,0,0,1,2.24.16l-.72-14.48c-1.44.32-2.16.4-8.8.64-24.4.88-30.24,1.2-42.72,2-8.72.56-11.6.72-13.68.72-.64,0-1.68,0-3.04-.08Zm80.64-16.96a56.158,56.158,0,0,1,.32,5.68c.16,11.12.48,17.84.88,23.44,1.04,12.72,3.2,20.72,7.36,26.64,3.12,4.56,6.96,6.88,11.44,6.88,4.88,0,9.2-2.88,12.16-8.16a67.526,67.526,0,0,0,6.08-15.44c-5.28-3.84-7.44-5.68-11.12-10.08a81.281,81.281,0,0,1-4.16,13.84c-.8,2.08-1.68,3.12-2.56,3.12-3.36,0-5.92-13.52-5.92-31.44a99.78,99.78,0,0,1,.88-14.48ZM960,58.84c9.92,12.56,15.44,28.32,16.32,46.24l14.32-5.28c-2.24-19.36-8.08-34-18.48-46.56Zm41.68,5.52h1.36c.24,0,1.04,0,2.16.08,2.96.16,2.96.16,6,.24,9.2.4,10.56.48,14.88.48.72,0,1.52,0,3.36-.08V67c.08,1.92.08,1.92.08,2.08v1.2c-2.48.08-3.68.08-5.36.08-8.16,0-16.16-.56-19.68-1.28L1004.32,81c2.4,0,2.8.08,6.32.24,4.56.24,8.24.32,12.88.32,1.2,0,4.48-.08,6.16-.08,0,.4.08,2,.16,4.72h-2.48a40.414,40.414,0,0,0-14.24,2.16c-6.4,2.4-10.08,7.2-10.08,13.04,0,9.28,7.44,14.64,20.56,14.64,8.72,0,14.8-2.24,17.44-6.32,1.36-2.08,1.92-4.48,1.92-8.08a41.5,41.5,0,0,1,11.36,7.12,42.4,42.4,0,0,1,5.44,5.12l7.6-12.88c-1.28-.8-1.84-1.12-3.04-1.92a79.7,79.7,0,0,0-10.72-6.64,45.831,45.831,0,0,0-10.96-4.32c-.16-3.36-.16-3.36-.24-7.04,4.4-.16,12.08-.72,15.68-1.12,3.44-.32,3.44-.32,5.12-.4l-.32-12.24a126.573,126.573,0,0,1-20.64,2.4V64.68a156.989,156.989,0,0,0,16.08-1.36c4.24-.56,4.72-.56,7.04-.72l-.4-12.24c-4.64,1.28-12.08,2.16-22.72,2.8.24-5.6.24-6.16.64-8.32H1028.8a55.881,55.881,0,0,1,.48,8.72c-2.4.08-3.44.08-4.4.08-10.08,0-18.32-.56-23.04-1.68Zm28.16,33.76s.08.88.08,1.36c0,3.6-1.92,5.12-6.4,5.12-4,0-6.24-1.2-6.24-3.2,0-2.48,2.8-3.84,7.68-3.84A17.275,17.275,0,0,1,1029.84,98.12Zm48.4-31.28c6.16-.88,19.2-1.6,35.76-2.08a13.024,13.024,0,0,1,.08,1.92v2.48a18.067,18.067,0,0,0-6.24-.88c-11.04,0-18.56,6.24-18.56,15.36,0,8.56,6.56,14.64,15.84,14.64,4.64,0,7.36-.96,10.72-3.76a13.253,13.253,0,0,1-5.92,6.32c-3.84,2.4-8.4,3.68-16.48,4.88,3.6,4,5.36,6.96,7.6,12.64,7.6-2.24,12.16-4.08,16.08-6.48,8.56-5.36,13.2-13.2,13.2-22.16a25.444,25.444,0,0,0-3.2-13.36V64.52c3.2-.08,3.76-.08,8-.08,9.2,0,10.8.08,14.4.4l-.08-13.12c-3.2.32-9.12.48-22.4.56a54.162,54.162,0,0,1,.4-8.16h-14.16a45.037,45.037,0,0,1,.56,8.48c-7.44.24-28.96.8-31.12.8-2,0-2.88-.08-4.88-.24Zm30.56,11.52c3.2,0,5.28,1.68,5.28,4.16,0,2.72-2.64,4.8-6.08,4.8-3.04,0-5.28-1.84-5.28-4.32C1102.72,80.28,1105.28,78.36,1108.8,78.36Z" transform="translate(-1.12 69.04)" fill="#1a1a1a"/>
</svg>
