<svg id="レイヤー_1" data-name="レイヤー 1" xmlns="http://www.w3.org/2000/svg" width="307.844" height="97.15" viewBox="0 0 307.844 97.15">
  <path id="Path_261" data-name="Path 261" d="M296.836,271.109H285.912v-2.7h1.418c1.515,0,1.515-.707,1.515-1.084a1.957,1.957,0,0,0-.058-.457c-.05-.193-.113-.409-.2-.655l-1.269-3.544H278.89l-1.2,3.312a4.9,4.9,0,0,0-.218.739,2.692,2.692,0,0,0-.071.572.893.893,0,0,0,.326.822,2.475,2.475,0,0,0,1.414.3h1.418v2.7H270.72v-2.7H272a2.475,2.475,0,0,0,.7-.083.955.955,0,0,0,.4-.262,3,3,0,0,0,.455-.7c.173-.345.365-.79.574-1.328L282.1,244.68h3.607l8.132,22.254a5.043,5.043,0,0,0,.373.814,1.36,1.36,0,0,0,.345.4,1.135,1.135,0,0,0,.447.2,3.515,3.515,0,0,0,.762.069h1.072v2.7Zm-16.83-11.424h6.244l-1.906-5.366q-.554-1.575-1.013-2.95c-.054-.161-.1-.318-.155-.475-.026.087-.054.175-.079.262-.131.421-.274.864-.441,1.328s-.345.965-.554,1.519l-2.1,5.684Z" transform="translate(-216.972 -196.102)" fill="#1a1a1a"/>
  <path id="Path_262" data-name="Path 262" d="M403.376,271.109h-12.2v-2.7h1.416a7.315,7.315,0,0,0,1.026-.069,1.82,1.82,0,0,0,.693-.238,1.074,1.074,0,0,0,.4-.465,2.28,2.28,0,0,0,.171-.983V247.652h-2.776a2.661,2.661,0,0,0-1.056.179,1.717,1.717,0,0,0-.639.469,1.974,1.974,0,0,0-.389.715,5.763,5.763,0,0,0-.208,1l-.256,2.053H386.57l.208-7.39h21.067l.206,7.39h-2.994l-.234-2.057a4.845,4.845,0,0,0-.214-.993,2.2,2.2,0,0,0-.389-.723,1.617,1.617,0,0,0-.637-.463,2.773,2.773,0,0,0-1.086-.181h-2.829v18.831a2.628,2.628,0,0,0,.177,1.074,1.238,1.238,0,0,0,.411.52,1.68,1.68,0,0,0,.677.258,6.809,6.809,0,0,0,1.024.077h1.418v2.7Z" transform="translate(-309.821 -196.102)" fill="#1a1a1a"/>
  <path id="Path_263" data-name="Path 263" d="M527.976,271.093h-11.5v-2.7h1.074a6.479,6.479,0,0,0,1.032-.077,1.644,1.644,0,0,0,.669-.258,1.233,1.233,0,0,0,.413-.52,2.6,2.6,0,0,0,.177-1.074v-7.673H509.572v7.673a2.643,2.643,0,0,0,.175,1.072,1.227,1.227,0,0,0,.411.524,1.621,1.621,0,0,0,.679.256,6.293,6.293,0,0,0,1.024.077h1.072v2.7H501.44v-2.7H502.5a6.515,6.515,0,0,0,1.032-.077,1.735,1.735,0,0,0,.685-.26,1.17,1.17,0,0,0,.4-.51,2.74,2.74,0,0,0,.171-1.082V249.151a2.308,2.308,0,0,0-.169-.983,1.179,1.179,0,0,0-.417-.494,1.688,1.688,0,0,0-.679-.244,6.841,6.841,0,0,0-1.024-.071h-1.056v-2.7h11.493v2.7h-1.072a6.292,6.292,0,0,0-1.024.077,1.63,1.63,0,0,0-.677.256,1.248,1.248,0,0,0-.415.522,2.632,2.632,0,0,0-.175,1.074v6.536h10.274v-6.536a2.625,2.625,0,0,0-.177-1.072,1.28,1.28,0,0,0-.419-.528,1.651,1.651,0,0,0-.671-.252,6.34,6.34,0,0,0-1.026-.075h-1.074v-2.7h11.5v2.7H526.92a6.264,6.264,0,0,0-1.034.077,1.757,1.757,0,0,0-.683.258,1.162,1.162,0,0,0-.4.51,2.7,2.7,0,0,0-.173,1.084v17.352a2.314,2.314,0,0,0,.171.985,1.063,1.063,0,0,0,.4.463,1.828,1.828,0,0,0,.7.24,7.22,7.22,0,0,0,1.022.07h1.054v2.7Z" transform="translate(-401.885 -196.086)" fill="#1a1a1a"/>
  <path id="Path_264" data-name="Path 264" d="M662.686,271.1H642.55v-2.7h1.056a6.479,6.479,0,0,0,1.032-.077,1.7,1.7,0,0,0,.681-.258,1.169,1.169,0,0,0,.409-.512,2.806,2.806,0,0,0,.171-1.082V249.3a2.667,2.667,0,0,0-.173-1.08,1.162,1.162,0,0,0-.409-.514,1.726,1.726,0,0,0-.685-.258,6.36,6.36,0,0,0-1.026-.075H642.55v-2.7h11.5v2.7h-1.074a6.7,6.7,0,0,0-1.021.071,1.628,1.628,0,0,0-.683.244,1.185,1.185,0,0,0-.417.492,2.311,2.311,0,0,0-.169.985v18.97h6.359a2.4,2.4,0,0,0,1.082-.218,2.132,2.132,0,0,0,.721-.576,2.9,2.9,0,0,0,.465-.852,4.815,4.815,0,0,0,.236-1.013l.415-3.169h3l-.278,8.8Z" transform="translate(-514.98 -196.094)" fill="#1a1a1a"/>
  <path id="Path_265" data-name="Path 265" d="M771.49,271.093H751.36v-2.7h1.056a7.306,7.306,0,0,0,1.024-.07,1.808,1.808,0,0,0,.691-.236,1.074,1.074,0,0,0,.407-.467,2.319,2.319,0,0,0,.169-.985V249.288a2.7,2.7,0,0,0-.173-1.08,1.163,1.163,0,0,0-.409-.516,1.746,1.746,0,0,0-.683-.258,6.393,6.393,0,0,0-1.026-.075H751.36v-2.7h19l.2,7.39h-2.99l-.232-2.059a4.107,4.107,0,0,0-.232-.965,2.167,2.167,0,0,0-.443-.723,2.027,2.027,0,0,0-.725-.488,2.933,2.933,0,0,0-1.12-.185H759.49v8.188h8.521v2.938H759.49v9.359h6.2a3.445,3.445,0,0,0,1.223-.191,2.186,2.186,0,0,0,.782-.49,2.245,2.245,0,0,0,.492-.735,3.864,3.864,0,0,0,.268-.965l.322-2.033h2.994l-.288,7.388Z" transform="translate(-602.187 -196.086)" fill="#1a1a1a"/>
  <path id="Path_266" data-name="Path 266" d="M870.436,271.1h-12.2v-2.7h1.418a7.4,7.4,0,0,0,1.026-.069,1.845,1.845,0,0,0,.693-.238,1.085,1.085,0,0,0,.4-.463,2.3,2.3,0,0,0,.173-.985V247.644h-2.774a2.671,2.671,0,0,0-1.058.179,1.751,1.751,0,0,0-.645.469,2.008,2.008,0,0,0-.383.711,5.638,5.638,0,0,0-.21,1l-.256,2.053H853.63l.206-7.39h21.071l.2,7.39h-2.994l-.23-2.059a5.16,5.16,0,0,0-.216-.989,2.147,2.147,0,0,0-.389-.725,1.633,1.633,0,0,0-.639-.463,2.722,2.722,0,0,0-1.086-.183H866.73v18.831a2.605,2.605,0,0,0,.177,1.072,1.225,1.225,0,0,0,.413.524,1.629,1.629,0,0,0,.677.256,6.586,6.586,0,0,0,1.026.077h1.418v2.7Z" transform="translate(-684.152 -196.094)" fill="#1a1a1a"/>
  <path id="Path_267" data-name="Path 267" d="M988.32,271.109H968.19v-2.7h1.052a7.338,7.338,0,0,0,1.026-.069,1.832,1.832,0,0,0,.693-.238,1.093,1.093,0,0,0,.4-.463,2.311,2.311,0,0,0,.173-.985V249.306a2.7,2.7,0,0,0-.173-1.08,1.165,1.165,0,0,0-.411-.514,1.709,1.709,0,0,0-.683-.258,6.385,6.385,0,0,0-1.028-.075H968.19v-2.7h18.994l.206,7.39H984.4l-.238-2.057a4.1,4.1,0,0,0-.23-.969,2.13,2.13,0,0,0-.443-.717,2,2,0,0,0-.723-.488,2.927,2.927,0,0,0-1.124-.187h-5.327v8.188h8.519v2.938h-8.519v9.359h6.208a3.4,3.4,0,0,0,1.217-.191,2.2,2.2,0,0,0,.782-.49,2.243,2.243,0,0,0,.492-.735,3.748,3.748,0,0,0,.27-.961l.326-2.037H988.6l-.288,7.388Z" transform="translate(-775.968 -196.102)" fill="#1a1a1a"/>
  <path id="Path_268" data-name="Path 268" d="M1145.128,271.085h-3.455l-12.311-18.915v14.289a2.663,2.663,0,0,0,.177,1.074,1.221,1.221,0,0,0,.413.522,1.657,1.657,0,0,0,.677.258,6.788,6.788,0,0,0,1.025.077h1.074v2.7H1122.65v-2.7h1.052a6.476,6.476,0,0,0,1.032-.077,1.691,1.691,0,0,0,.683-.26,1.122,1.122,0,0,0,.4-.508,2.716,2.716,0,0,0,.173-1.084v-17.32a2.3,2.3,0,0,0-.169-.979,1.2,1.2,0,0,0-.417-.494,1.622,1.622,0,0,0-.679-.244,6.811,6.811,0,0,0-1.027-.071h-1.052v-2.7h7.4l11.708,18.083v-13.6a2.307,2.307,0,0,0-.171-.983,1.224,1.224,0,0,0-.417-.492,1.679,1.679,0,0,0-.679-.244,6.8,6.8,0,0,0-1.025-.071H1138.4v-2.7h10.078v2.7h-1.054a6.345,6.345,0,0,0-1.035.077,1.734,1.734,0,0,0-.681.258,1.17,1.17,0,0,0-.407.516,2.74,2.74,0,0,0-.167,1.078v21.805Z" transform="translate(-899.762 -196.078)" fill="#1a1a1a"/>
  <path id="Path_269" data-name="Path 269" d="M1269.511,271.1h-10.926v-2.7h1.42c1.515,0,1.515-.707,1.515-1.084a1.75,1.75,0,0,0-.06-.449,6.767,6.767,0,0,0-.2-.663l-1.269-3.544h-8.428l-1.2,3.312a5.269,5.269,0,0,0-.218.735,2.939,2.939,0,0,0-.071.574.886.886,0,0,0,.325.82,2.428,2.428,0,0,0,1.412.3h1.417v2.7h-9.838v-2.7h1.278a2.456,2.456,0,0,0,.7-.083.955.955,0,0,0,.4-.262,3.076,3.076,0,0,0,.457-.7c.175-.343.361-.786.572-1.324l7.977-21.365h3.605l8.132,22.254a5.451,5.451,0,0,0,.377.818,1.3,1.3,0,0,0,.341.391,1.184,1.184,0,0,0,.449.2,3.535,3.535,0,0,0,.765.07h1.072v2.7Zm-16.832-11.424h6.242l-1.9-5.366q-.554-1.578-1.012-2.952c-.054-.159-.107-.318-.153-.477-.028.085-.055.173-.081.262-.127.421-.274.864-.437,1.326s-.351.969-.556,1.521l-2.1,5.684Z" transform="translate(-996.53 -196.094)" fill="#1a1a1a"/>
  <path id="Path_270" data-name="Path 270" d="M1393.9,271.093h-11.5v-2.7h1.056a6.492,6.492,0,0,0,1.032-.077,1.735,1.735,0,0,0,.685-.26,1.188,1.188,0,0,0,.405-.51,2.785,2.785,0,0,0,.169-1.082V249.288a2.739,2.739,0,0,0-.171-1.08,1.19,1.19,0,0,0-.407-.516,1.723,1.723,0,0,0-.683-.256,6.435,6.435,0,0,0-1.03-.077H1382.4v-2.7h11.5v2.7h-1.074a6.277,6.277,0,0,0-1.021.077,1.662,1.662,0,0,0-.679.256,1.214,1.214,0,0,0-.411.522,2.578,2.578,0,0,0-.177,1.074v17.179a2.581,2.581,0,0,0,.175,1.07,1.206,1.206,0,0,0,.415.524,1.646,1.646,0,0,0,.677.258,6.548,6.548,0,0,0,1.022.077h1.074v2.7Z" transform="translate(-1107.942 -196.086)" fill="#1a1a1a"/>
  <path id="Path_271" data-name="Path 271" d="M1467.866,271.093h-20.134v-2.7h1.054a6.552,6.552,0,0,0,1.037-.077,1.705,1.705,0,0,0,.679-.26,1.155,1.155,0,0,0,.407-.514,2.713,2.713,0,0,0,.169-1.078V249.288a2.739,2.739,0,0,0-.171-1.08,1.148,1.148,0,0,0-.409-.514,1.715,1.715,0,0,0-.681-.258,6.441,6.441,0,0,0-1.032-.077h-1.054v-2.7h11.493v2.7h-1.072a6.686,6.686,0,0,0-1.019.071,1.656,1.656,0,0,0-.685.244,1.176,1.176,0,0,0-.415.492,2.305,2.305,0,0,0-.173.983v18.974h6.363a2.4,2.4,0,0,0,1.082-.218,2.135,2.135,0,0,0,.721-.578,2.957,2.957,0,0,0,.463-.85,4.916,4.916,0,0,0,.236-1.011l.415-3.173h3.006l-.282,8.8Z" transform="translate(-1160.301 -196.086)" fill="#1a1a1a"/>
  <path id="Path_272" data-name="Path 272" d="M25.664,48.576H1.53L50.1,0Z" transform="translate(-1.226)" fill="#1a1a1a"/>
  <path id="Path_273" data-name="Path 273" d="M24.438,244.67H48.576L0,293.244Z" transform="translate(0 -196.094)" fill="#1a1a1a"/>
</svg>
