<svg xmlns="http://www.w3.org/2000/svg" width="262" height="110.913" viewBox="0 0 262 110.913">
  <g id="Asset_1" data-name="Asset 1" transform="translate(0 0.001)">
    <path id="Path_342" data-name="Path 342" d="M42.663,39.5H75.636V82.034H58.652l-.023-4.784c-3.965,2.488-7.929,5.84-20.252,5.84C19.364,83.09,0,69.459,0,41.767,0,19.793,12.843-.115,40.688,0,64.867,0,74.426,15.713,75.307,26.6H58.82c0-3.077-6.544-12.69-18.193-12.69S15.446,21.622,15.446,41.844c0,21.538,13.976,26.789,25.189,26.789,10.157,0,19.548-6.468,19.632-14.879L42.678,53.73V39.5Z" transform="translate(0 0)" fill="#1a1a1a"/>
    <path id="Path_343" data-name="Path 343" d="M232.448,4.46V83.127H214.01V4.46Z" transform="translate(-50.209 -1.047)" fill="#1a1a1a"/>
    <path id="Path_344" data-name="Path 344" d="M295.969,4.64a32.691,32.691,0,0,1,12.537,2.143,23.467,23.467,0,0,1,8.412,5.664,21.909,21.909,0,0,1,4.73,8.029,29.983,29.983,0,0,1,0,18.637,21.609,21.609,0,0,1-4.73,8.083,23.565,23.565,0,0,1-8.412,5.664A32.664,32.664,0,0,1,295.969,55h-18.14V83.146H260.57V4.64Zm-4.73,36.938a36.451,36.451,0,0,0,5.717-.436,13.163,13.163,0,0,0,4.837-1.707,9.274,9.274,0,0,0,3.352-3.574,12.559,12.559,0,0,0,1.263-6.047,12.559,12.559,0,0,0-1.263-6.047,9.274,9.274,0,0,0-3.352-3.574,13.445,13.445,0,0,0-4.837-1.707,36.511,36.511,0,0,0-5.717-.444H277.83V41.57h13.41Z" transform="translate(-61.133 -1.089)" fill="#1a1a1a"/>
    <path id="Path_345" data-name="Path 345" d="M180.963,83.151,165.832,51.923a22.187,22.187,0,0,0,6.406-4.738,21.815,21.815,0,0,0,4.73-8.083,29.983,29.983,0,0,0,0-18.637,21.761,21.761,0,0,0-4.73-8.029,23.566,23.566,0,0,0-8.412-5.664A32.664,32.664,0,0,0,151.289,4.63h-35.4v78.5h17.259V54.985h8.4c3.62.207,7.608,1.133,10.149,5.825l10.823,22.334h18.438Zm-47.8-65.1h13.41a35.61,35.61,0,0,1,5.717.444,13.3,13.3,0,0,1,4.837,1.707,9.274,9.274,0,0,1,3.352,3.574,12.58,12.58,0,0,1,1.263,6.047,12.58,12.58,0,0,1-1.263,6.047,9.274,9.274,0,0,1-3.352,3.574,13.3,13.3,0,0,1-4.837,1.707,36.45,36.45,0,0,1-5.717.436h-13.41V18.063Z" transform="translate(-27.189 -1.086)" fill="#1a1a1a"/>
    <g id="Group_474" data-name="Group 474" transform="translate(57.971 93.354)">
      <path id="Path_346" data-name="Path 346" d="M81.664,134.326a5.466,5.466,0,0,0,3.016-.865,1.562,1.562,0,0,1,.5,1.079c0,.352-.406.635-1.217.842a11.567,11.567,0,0,1-2.916.314,5.508,5.508,0,0,1-4.011-1.278c-.857-.857-1.294-2.4-1.294-4.654q0-3.754,1.515-5.526a5.55,5.55,0,0,1,4.462-1.768,9.1,9.1,0,0,1,2.48.26c.559.176.842.475.842.9a1.465,1.465,0,0,1-.52,1.026,7.5,7.5,0,0,0-3.253-.811A2.781,2.781,0,0,0,78.855,125a7.028,7.028,0,0,0-.811,3.9,7.664,7.664,0,0,0,.85,4.233,3.162,3.162,0,0,0,2.763,1.194Z" transform="translate(-75.74 -122.087)" fill="#1a1a1a"/>
      <path id="Path_347" data-name="Path 347" d="M94.295,136.792a3.837,3.837,0,0,1-3.008-1.079,4.79,4.79,0,0,1-.957-3.268,5.96,5.96,0,0,1,1.163-3.911,4.138,4.138,0,0,1,3.36-1.393,3.837,3.837,0,0,1,3.008,1.079,4.8,4.8,0,0,1,.957,3.276,5.915,5.915,0,0,1-1.163,3.9,4.138,4.138,0,0,1-3.36,1.393Zm.36-1.263a1.668,1.668,0,0,0,1.554-.811,5.023,5.023,0,0,0,.482-2.5,6.464,6.464,0,0,0-.5-2.886,1.758,1.758,0,0,0-1.7-.941,1.66,1.66,0,0,0-1.554.811,5.056,5.056,0,0,0-.482,2.5,6.412,6.412,0,0,0,.5,2.87,1.758,1.758,0,0,0,1.7.941Z" transform="translate(-79.163 -123.183)" fill="#1a1a1a"/>
      <path id="Path_348" data-name="Path 348" d="M112.116,130.591q0,3.949.069,5.059h1a1.118,1.118,0,0,1,.122.528.483.483,0,0,1-.107.352.643.643,0,0,1-.406.092h-3.322a1.59,1.59,0,0,1-.115-.566.41.41,0,0,1,.1-.306.476.476,0,0,1,.344-.1h.321c.046-.926.069-2.212.069-3.873a5.347,5.347,0,0,0-.413-2.579,1.452,1.452,0,0,0-1.324-.643,1.866,1.866,0,0,0-1.163.444,1.906,1.906,0,0,0-.566,1.592v1.99c0,1.11.023,2.135.069,3.069h.765a1.213,1.213,0,0,1,.115.528.483.483,0,0,1-.107.352.617.617,0,0,1-.4.092h-3.421a1.456,1.456,0,0,1-.122-.566.384.384,0,0,1,.107-.306.467.467,0,0,1,.337-.1h.651c.054-.995.077-2.22.077-3.674a12.273,12.273,0,0,0-.214-3.222.829.829,0,0,0-.827-.444,1.25,1.25,0,0,1-.122-.543.3.3,0,0,1,.2-.321,23.247,23.247,0,0,1,2.5-.145,5.316,5.316,0,0,1,0,1.11,7.614,7.614,0,0,1,1.791-.911,5.105,5.105,0,0,1,1.6-.291,2.643,2.643,0,0,1,1.431.321,1.655,1.655,0,0,1,.681.827,7.13,7.13,0,0,1,1.7-.865,4.93,4.93,0,0,1,1.569-.291,2.536,2.536,0,0,1,1.791.582,2.948,2.948,0,0,1,.635,2.2,41.639,41.639,0,0,0,.145,5.365c.1.2.321.3.674.291a1.558,1.558,0,0,1,.107.543.341.341,0,0,1-.161.337,1.465,1.465,0,0,1-.589.084c-.873,0-1.408-.008-1.6-.031a.525.525,0,0,1-.4-.2,1.068,1.068,0,0,1-.107-.551v-4.057a5.347,5.347,0,0,0-.413-2.579,1.452,1.452,0,0,0-1.324-.643,1.866,1.866,0,0,0-1.163.444,1.906,1.906,0,0,0-.566,1.592Z" transform="translate(-82.281 -123.197)" fill="#1a1a1a"/>
      <path id="Path_349" data-name="Path 349" d="M128.032,127.275a2.99,2.99,0,0,1,0,.827,7.271,7.271,0,0,1,1.5-.7,5.729,5.729,0,0,1,1.8-.268,3.239,3.239,0,0,1,2.549.941,4.7,4.7,0,0,1,.842,3.138,6.493,6.493,0,0,1-1.133,4.21,4.115,4.115,0,0,1-3.36,1.362,6.378,6.378,0,0,1-1.018-.069,4.729,4.729,0,0,1-.689-.153c0,1.2.031,2.266.077,3.2h1.232a1.212,1.212,0,0,1,.115.528.452.452,0,0,1-.107.352.617.617,0,0,1-.4.092h-3.888a1.456,1.456,0,0,1-.122-.566.384.384,0,0,1,.107-.306.467.467,0,0,1,.337-.1h.651c.054-.934.077-2.2.077-3.8v-4.011a12.273,12.273,0,0,0-.214-3.222.829.829,0,0,0-.827-.444,1.249,1.249,0,0,1-.122-.543.3.3,0,0,1,.2-.321,21.817,21.817,0,0,1,2.4-.145Zm.49,7.715a3,3,0,0,0,.819.383,3.468,3.468,0,0,0,1.049.153,1.865,1.865,0,0,0,1.73-.765,5.244,5.244,0,0,0,.482-2.641,5.962,5.962,0,0,0-.505-2.886,1.757,1.757,0,0,0-1.623-.842,2.3,2.3,0,0,0-1.01.214,1.467,1.467,0,0,0-.7.727,3.469,3.469,0,0,0-.237,1.439v4.21Z" transform="translate(-87.398 -123.181)" fill="#1a1a1a"/>
      <path id="Path_350" data-name="Path 350" d="M146.453,135.881a7.342,7.342,0,0,1-1.623.7,5.876,5.876,0,0,1-1.63.237,2.63,2.63,0,0,1-1.891-.6,2.352,2.352,0,0,1-.62-1.776,2.587,2.587,0,0,1,1.026-2.2,5.361,5.361,0,0,1,3.176-.765h1.385a4.892,4.892,0,0,0-.475-2.3,1.626,1.626,0,0,0-1.485-.651,4.962,4.962,0,0,0-1.079.115,3.715,3.715,0,0,1-.321.582,3.045,3.045,0,0,1-.543.168c-.329.084-.551.069-.681-.046a2.559,2.559,0,0,1-.6-1.378.34.34,0,0,1,.153-.291,5.185,5.185,0,0,1,1.263-.253,17.8,17.8,0,0,1,2.365-.153,4.259,4.259,0,0,1,2.465.574,2.431,2.431,0,0,1,.8,2.112v2.9a9.653,9.653,0,0,0,.176,2.457.477.477,0,0,0,.582.36.839.839,0,0,1,.115.406c0,.214-.13.375-.4.49a2.8,2.8,0,0,1-1.079.168,1.4,1.4,0,0,1-.505-.077,2.146,2.146,0,0,1-.551-.765Zm-.191-3.184a10.04,10.04,0,0,0-1.676-.145,2.376,2.376,0,0,0-1.5.36,1.4,1.4,0,0,0-.429,1.133,1.511,1.511,0,0,0,.383,1.133,1.617,1.617,0,0,0,1.179.383,2.769,2.769,0,0,0,1.156-.245,1.273,1.273,0,0,0,.712-.681,4.016,4.016,0,0,0,.176-1.378V132.7Z" transform="translate(-90.978 -123.213)" fill="#1a1a1a"/>
      <path id="Path_351" data-name="Path 351" d="M157.362,128.412a7.238,7.238,0,0,1,1.845-.911,5.479,5.479,0,0,1,1.623-.291,2.715,2.715,0,0,1,1.891.582,2.948,2.948,0,0,1,.635,2.2,41.635,41.635,0,0,0,.145,5.365c.1.2.321.3.674.291a1.558,1.558,0,0,1,.107.543.341.341,0,0,1-.161.337,1.483,1.483,0,0,1-.6.084c-.873,0-1.408-.008-1.6-.031a.525.525,0,0,1-.4-.2,1.068,1.068,0,0,1-.107-.551v-4.057a5.347,5.347,0,0,0-.413-2.579,1.452,1.452,0,0,0-1.324-.643,2.135,2.135,0,0,0-1.355.444,1.906,1.906,0,0,0-.566,1.592v1.99c0,1.11.023,2.135.069,3.069h1.049a1.213,1.213,0,0,1,.115.528.483.483,0,0,1-.107.352.617.617,0,0,1-.4.092h-3.7a1.456,1.456,0,0,1-.122-.566.384.384,0,0,1,.107-.306.467.467,0,0,1,.337-.1h.651c.054-.995.077-2.22.077-3.674a12.272,12.272,0,0,0-.214-3.222.829.829,0,0,0-.827-.444,1.25,1.25,0,0,1-.122-.543.3.3,0,0,1,.2-.321,23.248,23.248,0,0,1,2.5-.145,5.316,5.316,0,0,1,0,1.11Z" transform="translate(-94.256 -123.199)" fill="#1a1a1a"/>
      <path id="Path_352" data-name="Path 352" d="M178.587,128.479q-.448,1.389-1.814,5.817a22.167,22.167,0,0,1-2.013,5.235,2.9,2.9,0,0,1-1.477,1.026,7.042,7.042,0,0,1-1.875.222,3.6,3.6,0,0,1-1.332-.153.557.557,0,0,1-.306-.559,1.4,1.4,0,0,1,.321-.9,9.531,9.531,0,0,0,2.61.268c.559-.061,1.117-.957,1.669-2.687a4.012,4.012,0,0,1-.85-.077c-.046-.031-.375-1.087-.987-3.176s-1-3.36-1.156-3.819a8.337,8.337,0,0,0-.367-.964.6.6,0,0,0-.344-.329,2.022,2.022,0,0,0-.536-.061,1.521,1.521,0,0,1-.122-.574.357.357,0,0,1,.321-.383,8.965,8.965,0,0,1,1.3-.061,3.649,3.649,0,0,1,1.018.092.584.584,0,0,1,.367.329,8.984,8.984,0,0,1,.314,1.332c.138.727.436,1.944.9,3.643a16.7,16.7,0,0,0,.765,2.549,22.06,22.06,0,0,0,.857-2.931,39.491,39.491,0,0,0,.888-3.85h-.505a1.432,1.432,0,0,1-.115-.559.59.59,0,0,1,.107-.4.464.464,0,0,1,.352-.115h2.656a1.3,1.3,0,0,1,.122.566.5.5,0,0,1-.122.4.668.668,0,0,1-.421.1H178.6Z" transform="translate(-97.801 -123.22)" fill="#1a1a1a"/>
      <path id="Path_353" data-name="Path 353" d="M198.725,134.345h.8a13.116,13.116,0,0,0,4.577-.658,2.121,2.121,0,0,1,.3,1.072.687.687,0,0,1-.276.6,2.125,2.125,0,0,1-1.11.191H195.5a1.572,1.572,0,0,1-.122-.6.348.348,0,0,1,.1-.276.483.483,0,0,1,.329-.092h.7q.069-1.32.069-6.728c0-1.929-.023-3.329-.077-4.2h-.987a1.631,1.631,0,0,1-.122-.6.373.373,0,0,1,.1-.291.483.483,0,0,1,.329-.092h4.08a1.326,1.326,0,0,1,.122.543.47.47,0,0,1-.092.329.479.479,0,0,1-.337.092h-.85c-.046.873-.069,2.311-.069,4.309q0,5.293.069,6.36Z" transform="translate(-103.809 -122.137)" fill="#1a1a1a"/>
      <path id="Path_354" data-name="Path 354" d="M213.095,134.533h1a1.118,1.118,0,0,1,.122.528.483.483,0,0,1-.107.352.643.643,0,0,1-.406.092h-3.7a1.589,1.589,0,0,1-.115-.566.41.41,0,0,1,.1-.306.476.476,0,0,1,.344-.1h.7c.046-.873.069-1.9.069-3.069,0-1.431-.008-2.388-.031-2.87a3.3,3.3,0,0,0-.153-1,.55.55,0,0,0-.344-.337,1.861,1.861,0,0,0-.551-.069.824.824,0,0,1-.122-.459.44.44,0,0,1,.367-.475,7.947,7.947,0,0,1,1.424-.084,4.786,4.786,0,0,1,1.01.069.356.356,0,0,1,.3.26,4.254,4.254,0,0,1,.038.666v4.286c0,1.171.023,2.2.069,3.069Zm-1.339-9.965a1.354,1.354,0,0,1-.9-.253.929.929,0,0,1-.291-.735,1.033,1.033,0,0,1,.375-.827,1.557,1.557,0,0,1,1.033-.314,1.356,1.356,0,0,1,.941.268.934.934,0,0,1,.283.719,1.06,1.06,0,0,1-.352.827,1.572,1.572,0,0,1-1.095.314Z" transform="translate(-107.211 -122.08)" fill="#1a1a1a"/>
      <path id="Path_355" data-name="Path 355" d="M227.016,130.591q0,3.949.069,5.059h.995a1.118,1.118,0,0,1,.122.528.452.452,0,0,1-.107.352.643.643,0,0,1-.406.092h-3.322a1.589,1.589,0,0,1-.115-.566.41.41,0,0,1,.1-.306.476.476,0,0,1,.344-.1h.321c.046-.926.069-2.212.069-3.873a5.469,5.469,0,0,0-.406-2.579,1.452,1.452,0,0,0-1.324-.643,1.866,1.866,0,0,0-1.163.444,1.908,1.908,0,0,0-.574,1.592v1.99c0,1.11.023,2.135.069,3.069h.765a1.213,1.213,0,0,1,.115.528.452.452,0,0,1-.107.352.617.617,0,0,1-.4.092h-3.421a1.456,1.456,0,0,1-.122-.566.413.413,0,0,1,.107-.306.467.467,0,0,1,.337-.1h.651c.054-.995.077-2.22.077-3.674a12.273,12.273,0,0,0-.214-3.222.829.829,0,0,0-.827-.444,1.249,1.249,0,0,1-.122-.543.3.3,0,0,1,.2-.321,23.247,23.247,0,0,1,2.5-.145,5.316,5.316,0,0,1,0,1.11,7.614,7.614,0,0,1,1.791-.911,5.061,5.061,0,0,1,1.592-.291,2.643,2.643,0,0,1,1.431.321,1.616,1.616,0,0,1,.681.827,7.13,7.13,0,0,1,1.7-.865,4.93,4.93,0,0,1,1.569-.291,2.569,2.569,0,0,1,1.8.582,2.948,2.948,0,0,1,.635,2.2,41.633,41.633,0,0,0,.145,5.365c.1.2.321.3.674.291a1.544,1.544,0,0,1,.1.543.341.341,0,0,1-.161.337,1.483,1.483,0,0,1-.6.084c-.873,0-1.408-.008-1.6-.031a.525.525,0,0,1-.4-.2,1.068,1.068,0,0,1-.107-.551v-4.057a5.468,5.468,0,0,0-.406-2.579,1.452,1.452,0,0,0-1.324-.643,1.866,1.866,0,0,0-1.163.444,1.906,1.906,0,0,0-.566,1.592Z" transform="translate(-109.238 -123.197)" fill="#1a1a1a"/>
      <path id="Path_356" data-name="Path 356" d="M243.677,134.533h1a1.118,1.118,0,0,1,.122.528.484.484,0,0,1-.1.352.643.643,0,0,1-.406.092h-3.7a1.59,1.59,0,0,1-.115-.566.41.41,0,0,1,.1-.306.476.476,0,0,1,.344-.1h.7c.046-.873.069-1.9.069-3.069,0-1.431-.008-2.388-.031-2.87a3.3,3.3,0,0,0-.153-1,.551.551,0,0,0-.344-.337,1.861,1.861,0,0,0-.551-.069.824.824,0,0,1-.122-.459.44.44,0,0,1,.367-.475,7.262,7.262,0,0,1,1.424-.084,4.786,4.786,0,0,1,1.01.069.356.356,0,0,1,.3.26,4.252,4.252,0,0,1,.038.666v4.286c0,1.171.023,2.2.069,3.069Zm-1.339-9.965a1.354,1.354,0,0,1-.9-.253.929.929,0,0,1-.291-.735,1.033,1.033,0,0,1,.375-.827,1.557,1.557,0,0,1,1.033-.314,1.356,1.356,0,0,1,.941.268.934.934,0,0,1,.283.719,1.06,1.06,0,0,1-.352.827,1.572,1.572,0,0,1-1.094.314Z" transform="translate(-114.388 -122.08)" fill="#1a1a1a"/>
      <path id="Path_357" data-name="Path 357" d="M249.459,126.631h.643l.765-2.671a3.07,3.07,0,0,1,.674.291,1.124,1.124,0,0,1,.406.4,4.964,4.964,0,0,1,.13,1.6v.383h3.1a1.89,1.89,0,0,1,.115.658c0,.184-.031.306-.107.36a.654.654,0,0,1-.413.092h-2.694V132.2a4.912,4.912,0,0,0,.291,2.1,1.022,1.022,0,0,0,.88.536,3.086,3.086,0,0,0,1.447-.383,1.208,1.208,0,0,1,.207.681.665.665,0,0,1-.551.666,6.387,6.387,0,0,1-1.737.168,2.758,2.758,0,0,1-1.875-.528,2.6,2.6,0,0,1-.589-1.967v-2.212c0-1.2-.031-2.373-.107-3.505h-.926a2.057,2.057,0,0,1-.115-.658.388.388,0,0,1,.452-.452Z" transform="translate(-116.389 -122.437)" fill="#1a1a1a"/>
      <path id="Path_358" data-name="Path 358" d="M263.942,127.14a3.6,3.6,0,0,1,2.6.827,3.7,3.7,0,0,1,.85,2.732,1.766,1.766,0,0,1-.3,1.171,1.832,1.832,0,0,1-1.316.329h-4.164a4.279,4.279,0,0,0,.62,2.411,2.377,2.377,0,0,0,2.112.873,4.983,4.983,0,0,0,2.625-.735,1.217,1.217,0,0,1,.406.857c0,.421-.344.712-1.041.888a10.008,10.008,0,0,1-2.35.253,4.842,4.842,0,0,1-3.46-1.026,4.66,4.66,0,0,1-1.049-3.444,5.493,5.493,0,0,1,1.186-3.758,4.1,4.1,0,0,1,3.291-1.378Zm-.36,1.263a1.655,1.655,0,0,0-1.431.674,3.8,3.8,0,0,0-.536,2.1h.972c1.033,0,1.73-.023,2.1-.061s.589-.107.651-.2a1.042,1.042,0,0,0,.092-.528,2.089,2.089,0,0,0-.475-1.462A1.749,1.749,0,0,0,263.582,128.4Z" transform="translate(-118.848 -123.183)" fill="#1a1a1a"/>
      <path id="Path_359" data-name="Path 359" d="M279.07,134.637a7.378,7.378,0,0,1-1.6.727,5.452,5.452,0,0,1-1.538.214,3.15,3.15,0,0,1-2.465-.957,5.024,5.024,0,0,1-.857-3.337,6.058,6.058,0,0,1,1.148-3.988,4.241,4.241,0,0,1,3.437-1.37,6.129,6.129,0,0,1,.911.054c.245.038.475.084.7.138,0-.467-.008-.964-.031-1.493a5.627,5.627,0,0,0-.13-1.125.6.6,0,0,0-.329-.421,1.614,1.614,0,0,0-.589-.092,1.409,1.409,0,0,1-.122-.574.343.343,0,0,1,.237-.367,7.957,7.957,0,0,1,1.554-.077,4.785,4.785,0,0,1,1.01.069.356.356,0,0,1,.3.26,4.25,4.25,0,0,1,.038.666v6.743a27.983,27.983,0,0,0,.161,4.194c.107.4.283.566.513.52a.84.84,0,0,1,.13.421c0,.176-.207.344-.628.5a3.152,3.152,0,0,1-1.018.237.549.549,0,0,1-.4-.161,3.037,3.037,0,0,1-.436-.781Zm-2.2-7.447a1.8,1.8,0,0,0-1.638.788,5.31,5.31,0,0,0-.505,2.717,6.045,6.045,0,0,0,.482,2.664,1.669,1.669,0,0,0,1.623.964,2.523,2.523,0,0,0,1.1-.237,1.355,1.355,0,0,0,.681-.635,5.934,5.934,0,0,0,.184-1.929V127.68a4.505,4.505,0,0,0-.827-.337,3.739,3.739,0,0,0-1.11-.153Z" transform="translate(-121.928 -121.97)" fill="#1a1a1a"/>
    </g>
  </g>
</svg>
