<svg xmlns="http://www.w3.org/2000/svg" width="210" height="50" viewBox="0 0 210 50">
  <g id="Group_541" data-name="Group 541" transform="translate(12383 17152)">
    <path id="Intersection_1" data-name="Intersection 1" d="M40,54.984H200a25,25,0,0,1,0,50H40a25,25,0,0,1,0-50Z" transform="translate(-12398 -17206.984)" fill="#bf9d5a"/>
    <g id="Group_540" data-name="Group 540" transform="translate(-1.372 -5)">
      <path id="Path_2364" data-name="Path 2364" d="M-57.484-9.8h-2.45v1.358c0,1.12.322,1.442,1.582,1.442h1.5c.882,0,1.246-.266,1.386-1.232a3.57,3.57,0,0,1-1.162-.42c-.056.476-.112.56-.392.56h-1.134c-.35,0-.42-.056-.42-.364v-.28h2.506v-2.7H-60.2v1.05h2.716Zm-4.592,0h-2.45v1.358c0,1.12.35,1.442,1.582,1.442h1.47c.84,0,1.218-.266,1.358-1.218a3.268,3.268,0,0,1-1.148-.42c-.056.462-.112.546-.392.546h-1.078c-.364,0-.42-.056-.42-.35v-.294h2.478v-2.7h-4.046v1.05h2.646Zm-3.08.574a10.014,10.014,0,0,0-1.96-2.31l-1.316.84A9.849,9.849,0,0,1-66.57-8.3Zm4.074,4.284h1.624v.924h-1.624Zm-.8,2.156h3.262l-1.064.6A13.962,13.962,0,0,1-57.246-.658l1.694-.616a20.961,20.961,0,0,0-2.7-1.512h2.73V-4.018h-2.352v-.924h1.918V-6.16h-1.918V-6.9h-1.582v.742h-1.624V-6.9h-1.54v.742H-64.5v1.218h1.876v.924H-64.9v1.232h2.66a8.649,8.649,0,0,1-2.478,1.12,9.918,9.918,0,0,1,1.176.98,2.692,2.692,0,0,1-1.806-1.26v-4.48h-2.982V-4.9h1.442v3.094A20.869,20.869,0,0,1-68.544-.5l.784,1.582c.672-.6,1.218-1.148,1.75-1.708A4.4,4.4,0,0,0-62.342.938c1.75.084,4.844.056,6.622-.042a6.944,6.944,0,0,1,.49-1.554,68.078,68.078,0,0,1-7.112.126,5.725,5.725,0,0,1-1.148-.14,10.191,10.191,0,0,0,2.828-1.694Zm20.4-1.9h-5.53V-6.328h4.7v-1.6h-4.7V-9.758a32.985,32.985,0,0,0,4.256-.742l-1.2-1.386a51.987,51.987,0,0,1-9.506,1.12,5.575,5.575,0,0,1,.42,1.47c1.372-.056,2.842-.14,4.3-.266v1.638h-4.578v1.6h4.578V-4.69h-5.53v1.624h5.53V-.812c0,.28-.126.378-.448.392s-1.484,0-2.52-.042A6.459,6.459,0,0,1-51.03,1.19,9.522,9.522,0,0,0-47.922.91c.658-.266.91-.7.91-1.694V-3.066h5.53Zm4.452-4.62h1.624V-9.8h3v.49h1.638V-9.8h2.954v-1.316h-2.954v-.728H-32.41v.728h-3v-.728H-37.03v.728h-2.94V-9.8h2.94ZM-35-3.15c-.042.266-.084.5-.14.728h-1.722A7.231,7.231,0,0,0-35.77-3.36h3.752a7.8,7.8,0,0,0,.98.938H-33.53A6.074,6.074,0,0,0-33.4-3.15Zm-2.044-3.528h6.3v.56h-6.3Zm0-1.456h6.3v.546h-6.3Zm9.422,4.774V-4.648H-34.79c.1-.168.182-.336.266-.5h5.46V-9.1H-38.64v3.948h2.394a5.252,5.252,0,0,1-.336.5h-3.57V-3.36h2.184a9.519,9.519,0,0,1-2.618,1.176,3.711,3.711,0,0,1,.952,1.176,14.271,14.271,0,0,0,1.61-.7v.476h2.24A5.526,5.526,0,0,1-39.018.014a4.645,4.645,0,0,1,.8,1.274c2.534-.5,3.71-1.3,4.3-2.52h2.394a1.861,1.861,0,0,1-.294,1.008A.613.613,0,0,1-32.27-.1c-.238,0-.784-.014-1.344-.07a3.081,3.081,0,0,1,.406,1.3,15.774,15.774,0,0,0,1.68-.014A1.662,1.662,0,0,0-30.506.714a4.234,4.234,0,0,0,.6-2.352,8.824,8.824,0,0,0,1.694.784,6.532,6.532,0,0,1,1.064-1.33A9.418,9.418,0,0,1-29.988-3.36Zm4.606-2.352h2.646v.6h-2.646Zm2.646-2.772h-2.646v-.574h2.646Zm0,1.68h-2.646v-.588h2.646Zm6.762,4.83V-3.3h-5.5V-3.85h5.138V-5.11h-4.8v-.6h3.724V-6.8h-3.724v-.588h3.71V-8.484h-3.71v-.574h4.4v-1.288h-4.186c.252-.392.518-.84.756-1.288l-1.876-.224a12.753,12.753,0,0,1-.616,1.512h-1.988a14.211,14.211,0,0,0,.756-1.2l-1.722-.322a11.248,11.248,0,0,1-3.318,3.808A5.234,5.234,0,0,1-25.4-6.944c.28-.224.546-.448.8-.686v3.78h3.85V-3.3H-26.18v1.33h4.172A16.951,16.951,0,0,1-26.642-.252,9.012,9.012,0,0,1-25.578,1.12a15.679,15.679,0,0,0,4.83-2.31V1.2h1.638v-2.45a15.5,15.5,0,0,0,4.8,2.3A6.678,6.678,0,0,1-13.272-.28a16.5,16.5,0,0,1-4.48-1.694ZM-9.52,2.548h1.372l3.472-13.832H-6.034Zm13.356-12.6V-9.3H1.694v-.756ZM1.694-7.378v-.8H3.836v.8Zm3.7,1.26v-5.208H.042V1.218H1.694V-6.118ZM7-3.78v1.652H4.69V-3.78ZM8.554-.756v-4.4H3.136V.028H4.69V-.756ZM7.938-7.364v-.812H10.15v.812Zm2.212-2.7v.77H7.938v-.77Zm1.68-1.26H6.356V-6.1H10.15V-.8c0,.252-.1.336-.364.336S8.568-.434,7.756-.49a5.961,5.961,0,0,1,.56,1.708A6.877,6.877,0,0,0,11.06.9c.588-.266.77-.742.77-1.666Zm4.7,1.316-2.156-.028A8.51,8.51,0,0,1,14.49-8.61c0,.854.014,2.492.154,3.78C15.036-1.078,16.366.308,17.906.308c1.12,0,2-.854,2.926-3.29l-1.4-1.708c-.266,1.12-.826,2.758-1.484,2.758-.882,0-1.3-1.386-1.5-3.4-.084-1.008-.1-2.058-.084-2.968A11.327,11.327,0,0,1,16.534-10.01Zm7,.322-1.778.574c1.526,1.736,2.268,5.138,2.492,7.392l1.834-.714A15.556,15.556,0,0,0,23.534-9.688ZM36.68-3.038V-.756H31.15V-3.038Zm-7.168,4.27H31.15V.714h5.53v.518h1.708v-5.74H29.512Zm1.554-8.6a14.3,14.3,0,0,0,2.786-2.842,15.337,15.337,0,0,0,2.87,2.842Zm1.848-4.48a14.821,14.821,0,0,1-5.7,4.984A6.8,6.8,0,0,1,28.266-5.5a19.506,19.506,0,0,0,2.17-1.372v.98h6.972V-6.86A16.793,16.793,0,0,0,39.55-5.53a8.138,8.138,0,0,1,1.078-1.5,14.064,14.064,0,0,1-5.992-4.816ZM44.7-10.094c0,.154-.028.546-.056,1.078-.6.084-1.218.154-1.624.182A12.028,12.028,0,0,1,41.8-8.82l.182,1.792c.784-.112,1.862-.252,2.548-.336-.014.336-.042.672-.07.994-.8,1.176-2.2,3.024-3,4L42.574-.84c.49-.658,1.176-1.68,1.764-2.562-.014,1.176-.028,1.988-.056,3.08,0,.224-.014.728-.042,1.036h1.932c-.042-.322-.084-.826-.1-1.078C45.99-1.68,45.99-2.856,45.99-4c0-.364.014-.77.028-1.176A5.886,5.886,0,0,1,49.98-6.972a2.152,2.152,0,0,1,2.282,2.1c.014,2.184-1.75,3.192-4.214,3.556l.84,1.694C52.36-.308,54.138-2,54.138-4.83a3.715,3.715,0,0,0-3.864-3.78,6.875,6.875,0,0,0-4.116,1.442c.014-.126.014-.266.028-.392.238-.364.518-.826.714-1.078L46.382-9.3c.112-.882.224-1.6.308-1.988l-2.044-.07A7.73,7.73,0,0,1,44.7-10.094Zm20.9-.9H63.728a11.777,11.777,0,0,1,.1,1.288V-8.12c-1.274.112-2.632.238-3.822.35,0-.546.014-1.022.014-1.344A9.274,9.274,0,0,1,60.1-10.57H58.128a10.814,10.814,0,0,1,.112,1.554V-7.6c-.448.042-.812.07-1.064.1-.714.07-1.358.1-1.764.1l.2,1.792c.364-.056,1.232-.2,1.68-.252.238-.028.56-.056.938-.1,0,1.3,0,2.66.014,3.262.07,2.422.5,3.178,4.13,3.178A39.6,39.6,0,0,0,66.36.252l.07-1.9a28.206,28.206,0,0,1-4.186.35c-2.1,0-2.226-.308-2.254-1.68-.028-.6-.014-1.89,0-3.178,1.19-.126,2.562-.252,3.808-.35a15.425,15.425,0,0,1-.112,1.694c-.028.266-.154.322-.434.322a7.417,7.417,0,0,1-1.288-.182l-.042,1.554a21.189,21.189,0,0,0,2.114.21c.714,0,1.064-.182,1.218-.924a24.561,24.561,0,0,0,.21-2.8c.406-.028.77-.042,1.078-.056.364-.014,1.106-.028,1.344-.014V-8.428c-.406.042-.952.07-1.344.1-.322.014-.672.042-1.05.07.014-.462.014-.966.028-1.512C65.534-10.15,65.576-10.766,65.6-10.99Z" transform="translate(-12262.962 -17116)" fill="#fff"/>
      <g id="Icon_feather-mail" data-name="Icon feather-mail" transform="translate(-12360.295 -17132.334)">
        <path id="Path_232" data-name="Path 232" d="M3.333,3.333H16.667A1.672,1.672,0,0,1,18.333,5V15a1.672,1.672,0,0,1-1.667,1.667H3.333A1.672,1.672,0,0,1,1.667,15V5A1.672,1.672,0,0,1,3.333,3.333Z" fill="none" stroke="#fff" stroke-linecap="round" stroke-linejoin="round" stroke-width="2"/>
        <path id="Path_233" data-name="Path 233" d="M18.333,5,10,10.833,1.667,5" fill="none" stroke="#fff" stroke-linecap="round" stroke-linejoin="round" stroke-width="2"/>
      </g>
    </g>
  </g>
</svg>
