<svg xmlns="http://www.w3.org/2000/svg" width="70" height="48" viewBox="0 0 70 48">
  <g id="Group_580" data-name="Group 580" transform="translate(6524 16839)">
    <rect id="Rectangle_170" data-name="Rectangle 170" width="70" height="48" transform="translate(-6524 -16839)" fill="rgba(255,255,255,0)"/>
    <circle id="Ellipse_17" data-name="Ellipse 17" cx="13" cy="13" r="13" transform="translate(-6502 -16835)" fill="#fff"/>
    <path id="Path_2365" data-name="Path 2365" d="M-28.68,0h.97l1.06-1.98c.19-.37.38-.74.59-1.18h.04c.24.44.44.81.63,1.18L-24.31,0h1.02l-2.14-3.74,2-3.6h-.97l-.98,1.88c-.18.34-.32.65-.52,1.07h-.04c-.24-.42-.39-.73-.58-1.07l-1-1.88h-1.02l2,3.55Zm10.19,1.97.57-.27A9.218,9.218,0,0,1-19.2-3.11a9.244,9.244,0,0,1,1.28-4.81l-.57-.26a9.339,9.339,0,0,0-1.47,5.07A9.374,9.374,0,0,0-18.49,1.97ZM-16.32.76h.77V-7.96h-.77Zm3.09-1.45V-3.58h3.8V-.69Zm3.8-6.28v2.69h-3.8V-6.97Zm-4.55-.7V.75h.75V.01h3.8V.67h.77V-7.67ZM-4.97,0h.93V-6.55h2.22v-.79H-7.19v.79h2.22ZM-.11,0H.96l.76-2.91c.14-.52.25-1.03.37-1.58h.05c.13.55.23,1.05.37,1.56L3.3,0H4.4L5.86-5.43H5L4.2-2.29c-.12.52-.22,1.01-.34,1.52H3.82c-.13-.51-.25-1-.38-1.52L2.59-5.43H1.7L.86-2.29C.72-1.78.61-1.28.49-.77H.44c-.1-.51-.21-1-.32-1.52L-.69-5.43h-.93ZM7.05,0h.91V-5.43H7.05Zm.46-6.55a.577.577,0,0,0,.61-.61.572.572,0,0,0-.61-.59.572.572,0,0,0-.61.59A.577.577,0,0,0,7.51-6.55Zm4,6.68a3.418,3.418,0,0,0,1-.2l-.18-.68a1.924,1.924,0,0,1-.62.14c-.63,0-.84-.38-.84-1.05V-4.69h1.47v-.74H10.87V-6.96h-.76L10-5.43l-.85.05v.69h.81v3.01C9.96-.6,10.35.13,11.51.13Zm3.55,0a3.418,3.418,0,0,0,1-.2l-.18-.68a1.924,1.924,0,0,1-.62.14c-.63,0-.84-.38-.84-1.05V-4.69h1.47v-.74H14.42V-6.96h-.76l-.11,1.53-.85.05v.69h.81v3.01C13.51-.6,13.9.13,15.06.13Zm4.1,0a3.232,3.232,0,0,0,1.8-.56l-.33-.6a2.341,2.341,0,0,1-1.36.43,1.8,1.8,0,0,1-1.8-1.9h3.66a3.553,3.553,0,0,0,.04-.52c0-1.55-.78-2.55-2.16-2.55a2.627,2.627,0,0,0-2.45,2.86A2.6,2.6,0,0,0,19.16.13Zm-1.7-3.29a1.668,1.668,0,0,1,1.56-1.68c.85,0,1.35.59,1.35,1.68ZM22.51,0h.91V-3.49c.36-.93.92-1.25,1.37-1.25a1.285,1.285,0,0,1,.53.09l.17-.8a1.158,1.158,0,0,0-.58-.12,1.875,1.875,0,0,0-1.54,1.13h-.03l-.08-.99h-.75Zm3.95,1.97a9.3,9.3,0,0,0,1.48-5.08,9.262,9.262,0,0,0-1.48-5.07l-.56.26a9.339,9.339,0,0,1,1.28,4.81A9.313,9.313,0,0,1,25.9,1.7Z" transform="translate(-6489 -16797)" fill="#fff"/>
    <g id="layer1" transform="translate(-6778.5 -16996.348)">
      <path id="path1009" d="M281.538,167.31l6.029,8.062-6.067,6.554h1.366l5.312-5.738,4.292,5.738h4.647l-6.368-8.515,5.647-6.1H295.03l-4.892,5.285-3.953-5.285Zm2.008,1.006h2.135l9.427,12.6h-2.135Z" transform="translate(0 0)" fill="#a21f2d"/>
    </g>
  </g>
</svg>
