<svg xmlns="http://www.w3.org/2000/svg" width="308.352" height="52.842" viewBox="0 0 308.352 52.842">
  <g id="Asset_1" data-name="Asset 1" transform="translate(0.003 0.003)">
    <g id="Group_499" data-name="Group 499" transform="translate(67.128 7.814)">
      <path id="Path_491" data-name="Path 491" d="M174.041,47.058a70.5,70.5,0,0,0-12.631-8.041V56.2h-6.26V22.74h6.26v9.6a90.077,90.077,0,0,1,16.125,9.407l-3.49,5.313Z" transform="translate(-155.15 -20.312)" fill="#231916"/>
      <path id="Path_492" data-name="Path 492" d="M225.594,23.5l5.918-1.214,1.176,6.336,10.393-1.595,1.062,5.727-10.355,1.595.609,3.414,12.14-1.9,1.138,5.765-12.178,1.9,2.123,11.379-5.994,1.138-2.161-11.607-13.883,2.2-1.062-5.727,13.887-2.2-.643-3.414-10.7,1.633-.909-5.765L226.7,29.574l-1.1-6.07Z" transform="translate(-189.407 -20.052)" fill="#231916"/>
      <path id="Path_493" data-name="Path 493" d="M331.694,28.66c-.114,10.774-.909,23.785-16.463,30.917l-4.285-4.932c11.307-4.628,14-12.745,14.263-20.067H308.366v9.293H302.22V28.66Z" transform="translate(-240.01 -23.728)" fill="#231916"/>
      <path id="Path_494" data-name="Path 494" d="M398.662,44.263v-21.2h14.606v21.2H409.8v5.778c0,.461.072.6.744.6.283,0,.389-.14.461-.711.072-.816.106-2.162.14-3.156l3.405.922c-.25,7.2-1.417,7.868-3.405,7.868h-3.227c-1.7,0-2.483-.816-2.483-2.661v-8.65h-1.349c-.355,6.345-2.128,8.967-5.423,11.484l-1.633-2.872v2.339H382.241V42.871c-.427.317-.567.427-1.1.778L379.97,38.26a17.469,17.469,0,0,0,4.289-4.006H380.5V30.1h2.906l-3.189-2.766a14.992,14.992,0,0,0,4.217-5.639l4.784.567c-.389.956-.533,1.349-.888,2.056h8.9V28.4H392.2c-.212.778-.283.956-.533,1.7H397.8v4.15h-1.878a11.8,11.8,0,0,1-1.134,2.305h2.377v3.689h-3.333V41.7h2.834v3.367h-2.834v1.455h2.834v3.333h-2.834v1.489h2.445c2.411-1.489,3.583-3.972,3.722-7.089h-1.345ZM386.856,30.118a9.812,9.812,0,0,0,.673-1.7h-1.844a15.651,15.651,0,0,1-1.561,1.7h2.728Zm2.766,10.139h-2.728v1.455h2.728Zm0,4.822h-2.728v1.455h2.728Zm0,4.784h-2.728v1.489h2.728Zm.106-15.6a26.931,26.931,0,0,1-1.489,2.305h2.022a10.178,10.178,0,0,0,.956-2.305h-1.489Zm18.612-6.806h-5v1.878h5Zm0,5.177h-5v1.878h5Zm0,5.245h-5v1.95h5Z" transform="translate(-284.872 -19.712)" fill="#231916"/>
      <path id="Path_495" data-name="Path 495" d="M473.585,34.11a43.7,43.7,0,0,0-5.245-7.339l4.678-2.872a38.29,38.29,0,0,1,5.529,7.445L473.94,34.11h6.417V22.66h5.672V34.11h6.028l-3.862-2.694a35.047,35.047,0,0,0,5.034-7.622l5.423,2.445a42.164,42.164,0,0,1-5.744,7.868h7.056v5.177h-9.923V49.6c0,.888.673.922.778.922h2.551A1.079,1.079,0,0,0,494.5,49.6a32.765,32.765,0,0,0,.427-5l5.351,1.311c-.495,7.584-.956,9.962-4.928,9.962h-7.3c-.888,0-3.405,0-3.405-3.084V39.284H481c-.389,8.045-2.661,13.823-12.089,17.195l-2.766-5.211c6.912-2.128,9.429-5.389,9.539-11.983h-9.251V34.106h7.161Z" transform="translate(-334.593 -20.266)" fill="#231916"/>
      <path id="Path_496" data-name="Path 496" d="M569.154,23.793c-.833,6.565-3.033,17.715-9.826,27.617l-5.918-3.261c6.26-9.183,8.308-17.715,9.369-25.418l6.37,1.062Zm12.483,26.365a78.518,78.518,0,0,0-8.688-25.189l5.313-2.885a74.872,74.872,0,0,1,9.864,26.137l-6.484,1.933Zm.643-31.373a32.467,32.467,0,0,1,3.6,7.284L583,27.588a31.383,31.383,0,0,0-3.375-7.436l2.656-1.366ZM587.173,17a35.2,35.2,0,0,1,3.566,7.284l-2.847,1.557a32.909,32.909,0,0,0-3.414-7.436Z" transform="translate(-384.948 -17)" fill="#231916"/>
      <path id="Path_497" data-name="Path 497" d="M674.871,58.74A69.4,69.4,0,0,0,665.2,48.118,42.456,42.456,0,0,1,649.986,59.2l-3.756-5.161c5.956-2.542,15.744-7.851,20.562-19.728H649.077V28.39H675.4A45.966,45.966,0,0,1,668.915,43.3a69.164,69.164,0,0,1,10.812,11.154l-4.856,4.285Z" transform="translate(-438.506 -23.572)" fill="#231916"/>
    </g>
    <g id="Group_500" data-name="Group 500" transform="translate(2.6 1.08)">
      <path id="Path_498" data-name="Path 498" d="M60.581,64.138l-10.761,8.6V39.249l10.761-.089Z" transform="translate(-29.846 -23.052)" fill="#e60013" stroke="#fff" stroke-miterlimit="10" stroke-width="2" fill-rule="evenodd"/>
      <path id="Path_499" data-name="Path 499" d="M15.582,33.957,2.6,28.936,36.11,14l12.977,5.017Z" transform="translate(-2.6 -8.535)" fill="#e60013" stroke="#fff" stroke-miterlimit="10" stroke-width="2" fill-rule="evenodd"/>
      <path id="Path_500" data-name="Path 500" d="M100.682,10.454,87.7,5.433,97.467,1.08,110.449,6.1Z" transform="translate(-51.703 -1.08)" fill="#e60013" stroke="#fff" stroke-miterlimit="10" stroke-width="2" fill-rule="evenodd"/>
    </g>
  </g>
</svg>
