<svg id="レイヤー_1" data-name="レイヤー 1" xmlns="http://www.w3.org/2000/svg" width="433.855" height="51.483" viewBox="0 0 433.855 51.483">
  <path id="Path_369" data-name="Path 369" d="M102.266,78.8a19.464,19.464,0,0,0,.7,3.144c.323.7.223,1.853-.713,1.813s-1.415-.8-1.016-2.14c.41-1.355.562-1.466.546-2.072a5.363,5.363,0,0,0-.016-.729c-.068-.295.43-.4.494-.016" transform="translate(-60.811 -47.25)" fill="#1a1a1a"/>
  <path id="Path_370" data-name="Path 370" d="M103.071,65.589a6.266,6.266,0,0,0,.653,2.391c.295.387.5,2.008-.673,2.064-.6.016-1.454-.434-.761-2.267a2.591,2.591,0,0,0,.151-.49,7.408,7.408,0,0,0,.131-.865c-.02-.339.044-.653,0-.817,0,0-.076-.287.255-.295.267-.008.247.279.247.279" transform="translate(-61.376 -39.286)" fill="#1a1a1a"/>
  <path id="Path_371" data-name="Path 371" d="M54.626,40.806a3.233,3.233,0,0,0-.928-2.315c-2.188-1.626-4.941,1.4-7.9.634a2.939,2.939,0,0,1-1.869-2.08s.546-.813.371-1.379c-.108-.713-.893-1.108-1.474-1.534a.8.8,0,0,1-.036-.12.2.2,0,0,0-.39.084s.012.044.032.143A3.267,3.267,0,0,0,42,36.646a1.115,1.115,0,0,0,1.056.582,7.754,7.754,0,0,0,1.7,2.482c1.8,1.215,4.164.267,6.009-.2.4-.048,1.016-.207,1.311.2a.558.558,0,0,1-.267.59,13.193,13.193,0,0,1-4.829.721C43.4,41.037,41.1,38,37.891,37.1c-2.363-.446-4.969-1.092-7.451-.454-.438.08-.857.367-1.3.259.8-2.5-2.853-2.682-2.877-4.829-.116.044-.219.056-.251.187-.359,1.171.458,2.092,1.3,2.813.016.418.187,1.092-.335,1.371a1.477,1.477,0,0,1-.789-.191,7.627,7.627,0,0,0-3.853.191c-.518-.295-.359-.956-.387-1.371.7-.769,1.522-1.49,1.367-2.618-.08-.143-.064-.446-.323-.379.036,1.518-1.713,1.933-2.55,3-.829,1.271-.171,2.909.458,4.048.159.857-.068,1.861.458,2.558,1.518.777.51,2.458,1.179,3.65.474.765,1.395.526,2.148.4a2.082,2.082,0,0,0,1.323.124c1.343-.542.618-2.255,1.1-3.339.211-.422.466-.339.928-1.12a3.073,3.073,0,0,0,.251-1.036.183.183,0,0,1,.231-.143c.215.052.163.211.163.211-.159.61-.187,1.307-.721,1.7-1.415,1.1.124,3.251-1.7,4.112a10.59,10.59,0,0,0,1.434,3.853c.323.757,1.179,1.207,1.7,1.769a18.448,18.448,0,0,0,.379,3.2A14.037,14.037,0,0,0,28.678,58.4c-.159.331-.518.653-.458.984h1.311c.207-.016.466-.526.653-.064H32.2l.135-.128c-.016-.267-.279-.578,0-.793.279-1.02-.235-2.184-.056-3.391a8.424,8.424,0,0,0,.713-1.7c.128-.247.263-.6.59-.661,3.514.578,7.583.534,10.523-1.235.948-.223,2.271-1.032,3.068-.072A24.188,24.188,0,0,0,48.8,55.919a8.606,8.606,0,0,0-.713,1.96,1.519,1.519,0,0,0-.458,1.566h1.375c.207-.223.51-.311.646,0l2.032-.064c.163-.442-.426-.793.2-1.048.044-1.311-1-2.817.131-3.917a.951.951,0,0,0-.131-1.108,24.647,24.647,0,0,1,.131-4.148,8.949,8.949,0,0,1,.566-1.873,8.188,8.188,0,0,0,.247-1.534c.116-.638,1.861-1.853,1.8-4.953" transform="translate(-12.062 -19.289)" fill="#1a1a1a"/>
  <path id="Path_372" data-name="Path 372" d="M25.39,0a25.39,25.39,0,1,0,25.4,25.39A25.386,25.386,0,0,0,25.39,0M3.419,25.39A22,22,0,0,1,17.927,4.706L29.538,46.958a21.194,21.194,0,0,1-4.148.4A21.973,21.973,0,0,1,3.419,25.386M32.853,46.058,21.246,3.8a22.548,22.548,0,0,1,4.144-.387,21.976,21.976,0,0,1,7.463,42.647" fill="#1a1a1a"/>
  <rect id="Rectangle_138" data-name="Rectangle 138" width="10.615" height="35.296" transform="translate(244.574 7.734)" fill="#1a1a1a"/>
  <path id="Path_373" data-name="Path 373" d="M547.927,45.214V19.41H537.3V54.7h26.087V45.214Z" transform="translate(-323.208 -11.676)" fill="#1a1a1a"/>
  <path id="Path_374" data-name="Path 374" d="M675.129,19.41v8.929h-9.977V54.706H654.8l-.012-26.366H644.79V19.41Z" transform="translate(-387.867 -11.676)" fill="#1a1a1a"/>
  <path id="Path_375" data-name="Path 375" d="M750.467,19.41v11.9h-10.91V19.41H728.93v35.3h10.627V40.8h10.91V54.706H761.09V19.41Z" transform="translate(-438.481 -11.676)" fill="#1a1a1a"/>
  <path id="Path_376" data-name="Path 376" d="M252.78,35.788a18.29,18.29,0,1,1,18.289,18.493A18.4,18.4,0,0,1,252.78,35.788m18.289,9.83c4.144,0,7.5-4.4,7.5-9.83s-3.355-9.83-7.5-9.83-7.507,4.391-7.507,9.83,3.347,9.83,7.507,9.83" transform="translate(-152.057 -10.395)" fill="#1a1a1a"/>
  <path id="Path_377" data-name="Path 377" d="M437.79,35.788a18.29,18.29,0,1,1,18.289,18.493A18.4,18.4,0,0,1,437.79,35.788m18.289,9.83c4.136,0,7.5-4.4,7.5-9.83s-3.363-9.83-7.5-9.83-7.507,4.391-7.507,9.83,3.347,9.83,7.507,9.83" transform="translate(-263.348 -10.395)" fill="#1a1a1a"/>
  <path id="Path_378" data-name="Path 378" d="M371.507,19.41V37.341L360.354,19.41H349.52v35.3h10.619V37.2l11.009,17.508h10.97V19.41Z" transform="translate(-210.25 -11.676)" fill="#1a1a1a"/>
  <rect id="Rectangle_139" data-name="Rectangle 139" width="7.18" height="35.296" transform="translate(344.998 7.734)" fill="#1a1a1a"/>
  <path id="Path_379" data-name="Path 379" d="M916.443,19.41V42.433L901.7,19.41h-7.87v35.3h7.184V30.093L915.9,54.706h7.722V19.41Z" transform="translate(-537.675 -11.676)" fill="#1a1a1a"/>
  <path id="Path_380" data-name="Path 380" d="M1009.214,40.923c-1.889,8.67-8.834,12.743-16.309,12.743-9.611,0-17.425-8.81-17.425-19.688S983.294,14.27,992.9,14.27c7.451,0,14.624,4.726,16.309,12.7l-7.674-.048c-1.777-3.833-4.965-6.22-8.635-6.22-5.566,0-10.089,5.658-10.089,13.273s4.523,13.691,10.089,13.691c3.714,0,6.957-2.654,8.714-6.71Z" transform="translate(-586.791 -8.584)" fill="#1a1a1a"/>
  <rect id="Rectangle_140" data-name="Rectangle 140" width="7.483" height="6.945" transform="translate(426.372 36.073)" fill="#1a1a1a"/>
  <path id="Path_381" data-name="Path 381" d="M838.168,89.67H831v7.3h3.63c.562,5.1-3.574,6.108-3.574,6.108v2.343c6.045.12,6.929-6.184,7.057-8.451h.056v-7.3Z" transform="translate(-499.88 -53.94)" fill="#1a1a1a"/>
  <path id="Path_382" data-name="Path 382" d="M176.409,19.41l-4.933,17.871L166.551,19.41H152.92v35.3h9.571V35.886l4.953,18.819h8.073l4.945-18.819V54.706h9.579V19.41Z" transform="translate(-91.988 -11.676)" fill="#1a1a1a"/>
  <path id="Path_383" data-name="Path 383" d="M22.616,12.766,33.8,53.5a22.178,22.178,0,0,1-3.239.239A21.258,21.258,0,0,1,22.62,12.77m.482-.956a21.979,21.979,0,0,0,7.459,42.651,21.534,21.534,0,0,0,4.148-.4L23.1,11.81Z" transform="translate(-5.167 -7.104)" fill="#1a1a1a"/>
  <path id="Path_384" data-name="Path 384" d="M57.456,9.281A21.256,21.256,0,0,1,65.4,50.251L54.2,9.524a21.861,21.861,0,0,1,3.251-.243m0-.721a22.4,22.4,0,0,0-4.156.39L64.919,51.211A21.98,21.98,0,0,0,57.456,8.56" transform="translate(-32.062 -5.149)" fill="#1a1a1a"/>
</svg>
