<svg xmlns="http://www.w3.org/2000/svg" width="320.022" height="64.234" viewBox="0 0 320.022 64.234">
  <g id="レイヤー_2" data-name="レイヤー 2" transform="translate(0 0.01)">
    <g id="Group_546" data-name="Group 546" transform="translate(150.299 -0.01)">
      <path id="Path_550" data-name="Path 550" d="M275.731,34.511a6.451,6.451,0,1,1-6.451-6.451A6.453,6.453,0,0,1,275.731,34.511Z" transform="translate(-242.046 -9.788)" fill="#00387f"/>
      <path id="Path_551" data-name="Path 551" d="M283.228,53.613a27.269,27.269,0,0,0-8.26-10.812c.215-.2.43-.41.644-.618a24.717,24.717,0,1,0-42.187-17.477h12.439a12.27,12.27,0,1,1,12.27,12.27A27.213,27.213,0,0,0,230.9,64.211h12.439a14.8,14.8,0,0,1,29.591,0H285.37a27.1,27.1,0,0,0-2.142-10.6Z" transform="translate(-230.9 0.01)" fill="#008ed3"/>
    </g>
    <g id="Group_547" data-name="Group 547" transform="translate(207.958 28.585)">
      <path id="Path_552" data-name="Path 552" d="M320.254,68.832h15.857a.845.845,0,0,0,.618-.208.74.74,0,0,0,.208-.488.7.7,0,0,0-.208-.514.845.845,0,0,0-.618-.208h-2.63q-8.446,0-11.945-5.175a10.391,10.391,0,0,1-2.057-6.49,9.656,9.656,0,0,1,1.777-5.585q3.759-5.536,12.823-5.533h16.371l2.369,10.376H337.139a.845.845,0,0,0-.618.208.67.67,0,0,0-.208.488.7.7,0,0,0,.208.514.845.845,0,0,0,.618.208h2.623q8.446,0,11.945,4.661a11.3,11.3,0,0,1,2.057,7.076,9.656,9.656,0,0,1-1.777,5.585q-3.759,5.536-12.823,5.533H322.637l-2.4-10.454Z" transform="translate(-319.479 -44.168)" fill="#00387f"/>
      <path id="Path_553" data-name="Path 553" d="M397,44.72a14.163,14.163,0,0,1,9.992,3.86,12.717,12.717,0,0,1,.052,18.695,13.971,13.971,0,0,1-9.992,3.886h-6.874v8.163H375.4V44.72H397ZM392.747,60.4a4.17,4.17,0,0,0,2.6-.8,2.279,2.279,0,0,0,1.081-1.907,2.237,2.237,0,0,0-1.081-1.881,4.287,4.287,0,0,0-2.623-.8h-2.545v5.383h2.578Z" transform="translate(-339 -44.199)" fill="#00387f"/>
      <path id="Path_554" data-name="Path 554" d="M456.065,79.552H447.9c-4.251,0-7.766-2.024-10.584-5.2a18.257,18.257,0,0,1-4.478-12.589,18.441,18.441,0,0,1,4.426-12.615c2.779-3.157,6.321-5.227,10.63-5.227h8.163c4.322,0,7.85,2.07,10.63,5.227a18.352,18.352,0,0,1,4.426,12.615,18.2,18.2,0,0,1-4.478,12.589c-2.812,3.177-6.347,5.2-10.584,5.2Zm.078-19.951a3.853,3.853,0,0,0-1.211-2.779,4.3,4.3,0,0,0-5.871,0,3.823,3.823,0,0,0-1.237,2.779v4.27a3.81,3.81,0,0,0,1.237,2.779,4.3,4.3,0,0,0,5.871,0,3.867,3.867,0,0,0,1.211-2.779Z" transform="translate(-359.05 -43.92)" fill="#00387f"/>
    </g>
    <g id="Group_552" data-name="Group 552" transform="translate(0 9.91)">
      <g id="Group_548" data-name="Group 548" transform="translate(0 19.652)">
        <path id="Path_555" data-name="Path 555" d="M34.5,45.51v34.6H20.986L13.494,67.856V80.113H0V45.51H13.351l7.629,12.511V45.51H34.493Z" transform="translate(0 -45.451)" fill="#00387f"/>
        <path id="Path_556" data-name="Path 556" d="M56.97,45.51H71.746v34.6H56.97V45.51Z" transform="translate(-19.887 -45.451)" fill="#00387f"/>
        <path id="Path_557" data-name="Path 557" d="M83.418,69.622H99.274a.845.845,0,0,0,.618-.208.74.74,0,0,0,.208-.488.7.7,0,0,0-.208-.514.845.845,0,0,0-.618-.208H96.651q-8.446,0-11.945-5.175a10.391,10.391,0,0,1-2.057-6.49,9.656,9.656,0,0,1,1.777-5.585q3.759-5.536,12.823-5.533h16.371L115.99,55.8H100.309a.845.845,0,0,0-.618.208.67.67,0,0,0-.208.488.7.7,0,0,0,.208.514.845.845,0,0,0,.618.208h2.623q8.446,0,11.945,4.661a11.3,11.3,0,0,1,2.057,7.076,9.656,9.656,0,0,1-1.777,5.585q-3.759,5.536-12.823,5.533H85.807l-2.4-10.454Z" transform="translate(-28.851 -45.42)" fill="#00387f"/>
        <path id="Path_558" data-name="Path 558" d="M160.314,57.35V45.51H175.09v34.6H160.314V68.273h-6.848v11.84H138.69V45.51h14.776V57.35h6.848Z" transform="translate(-48.413 -45.451)" fill="#00387f"/>
        <path id="Path_559" data-name="Path 559" d="M198.59,45.51h14.776v34.6H198.59Z" transform="translate(-69.322 -45.451)" fill="#00387f"/>
      </g>
      <g id="Group_551" data-name="Group 551" transform="translate(13.487)">
        <g id="Group_549" data-name="Group 549" transform="translate(0 1.627)">
          <path id="Path_560" data-name="Path 560" d="M22.17,17.73V21.5H43.162V17.73Z" transform="translate(-21.226 -17.73)" fill="#00387f"/>
          <path id="Path_561" data-name="Path 561" d="M20.72,32.88v3.678H43.594V32.88Z" transform="translate(-20.72 -23.018)" fill="#00387f"/>
        </g>
        <g id="Group_550" data-name="Group 550" transform="translate(28.322 1.627)">
          <path id="Path_562" data-name="Path 562" d="M64.23,24.79v3.769H75.309V24.79H64.23Z" transform="translate(-64.23 -20.194)" fill="#00387f"/>
          <path id="Path_563" data-name="Path 563" d="M64.27,17.73V21.5H75.3V17.73Z" transform="translate(-64.244 -17.73)" fill="#00387f"/>
          <path id="Path_564" data-name="Path 564" d="M85.786,23.1,76.1,33.144H86.235L96.409,23.1H85.786Z" transform="translate(-68.373 -19.605)" fill="#00387f"/>
        </g>
        <path id="Path_565" data-name="Path 565" d="M113.846,17.727v3.749h11.215c-1.875,1.413-13.032,9.809-13.032,9.809h9.718s3.411-2.428,3.964-2.819c.495.43,3.242,2.8,3.242,2.8H139.33s-7.3-6-8.124-6.679l4.993-3.535.013-.013a2.51,2.51,0,0,0,1.152-1.764,1.226,1.226,0,0,0-.072-.4c-.267-.71-1.23-1.139-2.584-1.152H113.853Z" transform="translate(-52.594 -16.099)" fill="#00387f"/>
        <path id="Path_566" data-name="Path 566" d="M177.46,22.208l.553,8.182h7.271l-.612-8.182ZM160.5,30.39h7.271l.553-8.182h-7.212l-.618,8.182Zm24.891-15.16a3.416,3.416,0,0,0-3.4,2.779h-5.409V16.493h-7.551v1.517h-8.488v3.509h8.488V30.39h7.6V21.518h7.238a3.505,3.505,0,0,0,1.523.338,3.316,3.316,0,1,0,0-6.626Zm0,4.146a.834.834,0,1,1,.866-.833A.851.851,0,0,1,185.388,19.376Z" transform="translate(-69.51 -15.23)" fill="#00387f"/>
      </g>
    </g>
  </g>
</svg>
