<svg id="ƒŒƒCƒ_1" data-name="ƒŒƒCƒ„[ 1" xmlns="http://www.w3.org/2000/svg" width="319.601" height="103.633" viewBox="0 0 319.601 103.633">
  <g id="Group_554" data-name="Group 554">
    <rect id="Rectangle_164" data-name="Rectangle 164" width="319.435" height="103.633" transform="translate(0.08)" fill="#df4728"/>
    <g id="Group_553" data-name="Group 553" transform="translate(22.521 23.814)">
      <path id="Path_567" data-name="Path 567" d="M85.975,66.853q0,11.552-6.775,18.464-6.428,6.634-16.53,6.643-10.823,0-17.331-7.639A24.972,24.972,0,0,1,39.36,67.385q0-12.35,6.975-19.391,6.308-6.377,16.341-6.374c6.689,0,12.308,2.254,16.6,6.775q6.7,6.969,6.706,18.464m-6.706,0q0-9.767-5.184-15.077a15.04,15.04,0,0,0-11.352-4.646q-8.711,0-13.223,6.511Q46.012,58.625,46,67.528q0,8.437,4.646,13.681a15.107,15.107,0,0,0,11.959,5.247A15.139,15.139,0,0,0,74.3,81.672q4.978-5.313,4.978-14.808" transform="translate(-39.36 -41.62)" fill="#fff"/>
      <path id="Path_568" data-name="Path 568" d="M158.189,101.234H152.21V79.778a14.289,14.289,0,0,0-.927-5.842q-1.656-3.579-6.443-3.582a10.622,10.622,0,0,0-4.915,1.2,7.8,7.8,0,0,0-3.256,3.181,17.715,17.715,0,0,0-1.19,7.238v19.265H129.5V65.965h5.378v4.984h.132a12.378,12.378,0,0,1,11.026-5.779,15.592,15.592,0,0,1,5.974,1.133,8.988,8.988,0,0,1,4.589,4.051q1.588,2.927,1.585,9.166v21.714Z" transform="translate(-77.924 -51.695)" fill="#fff"/>
      <path id="Path_569" data-name="Path 569" d="M220.337,85.1H193.971q.326,5.982,3.519,9.166a9.96,9.96,0,0,0,7.238,2.855q6.643,0,9.3-7.238l6.111.727q-3.055,11.424-15.409,11.426-8.1,0-12.554-5.047-4.317-4.841-4.314-13.08c0-5.487,1.4-10.013,4.188-13.418q4.523-5.3,12.348-5.31a15.82,15.82,0,0,1,9.3,2.792q7.038,4.987,6.643,17.137m-6.111-4.915a31.087,31.087,0,0,0-.933-4.452,8.721,8.721,0,0,0-3.387-4.051A9.888,9.888,0,0,0,204.4,70.1a9.214,9.214,0,0,0-7.433,3.319,11.263,11.263,0,0,0-2.655,6.775Z" transform="translate(-102.892 -51.699)" fill="#fff"/>
      <path id="Path_570" data-name="Path 570" d="M263.36,42.28h25.7c9.561,0,18.315,5.5,18.315,16.5,0,8.691-6.065,16.067-18.315,16.067H274.615V92.775H263.36Zm11.255,23.631h13.194c4.183,0,8-2.249,8-7.375,0-4.572-3.313-7.318-8-7.318H274.615Z" transform="translate(-135.192 -41.902)" fill="#fff"/>
      <rect id="Rectangle_165" data-name="Rectangle 165" width="10.259" height="50.5" transform="translate(179.544 0.372)" fill="#fff"/>
      <path id="Path_571" data-name="Path 571" d="M411.526,102.73l-.189-5.3c-1.568,1.751-4.755,5.436-12.124,5.436-6.82,0-14.253-4.629-14.253-14.625V65.55h10.065V86.743c0,1.253.5,7.942,8.257,7.942,5.127,0,8.062-3.507,8.062-7.942V65.55h10.065v37.18h-9.87Z" transform="translate(-187.215 -51.858)" fill="#fff"/>
      <path id="Path_572" data-name="Path 572" d="M481.683,74.443c-.126-3.25-2.935-4.377-6.38-4.377-1.688,0-5.75.309-5.75,3.376,0,2.689,3.061,3.439,3.811,3.622,13.881,3.439,19.631,4.881,19.631,12.754,0,7.255-6.5,12.067-17.314,12.067-3.879,0-8.565-.755-11.627-2.626-4.944-2.941-5.567-6.065-6.134-9.882h10.505c.441,4.881,3.816,5.625,7.816,5.625,5.258,0,6.254-2.563,6.254-3.937,0-2.815-2.809-3.439-5.253-4.062-12.508-3.061-18.069-4.377-18.069-12.382,0-11.381,14.064-11.381,16.319-11.381,1.877,0,8.817.063,13.377,4.125,2.186,1.877,2.746,3.753,3.187,7.066H481.677Z" transform="translate(-218.429 -50.87)" fill="#fff"/>
    </g>
    <rect id="Rectangle_166" data-name="Rectangle 166" width="319.601" height="5.058" transform="translate(0 81.118)" fill="#fff"/>
    <rect id="Rectangle_167" data-name="Rectangle 167" width="319.601" height="5.79" transform="translate(0 77.856)" fill="#23449c"/>
  </g>
</svg>
