<svg xmlns="http://www.w3.org/2000/svg" width="365.749" height="320" viewBox="0 0 365.749 320">
  <path id="Path_2365" data-name="Path 2365" d="M0,329.922V12.849A3,3,0,0,1,3,9.926H47.3v0H65.987L254.595,138.807a3.186,3.186,0,0,0,4.986-2.631V74.785a3.987,3.987,0,0,1,3.987-3.987H291a3.987,3.987,0,0,1,3.988,3.987V202.367A3.187,3.187,0,0,1,290,205L87.683,66.758A3.187,3.187,0,0,0,82.7,69.389V212.332a124.166,124.166,0,0,0,68.128,110.663,4.773,4.773,0,0,1,2.623,4.263v2.664Zm323.378-15.855-25.9-17.709L158.435,201.346a3.185,3.185,0,0,0-4.986,2.631v74.165a2.379,2.379,0,0,1-3.9,1.833,88.3,88.3,0,0,1-31.5-67.629V137.786a3.2,3.2,0,0,1,5-2.631L313.4,265.226a4,4,0,0,0,5.88-1.647,123.679,123.679,0,0,0,11.068-51.24V39.435a3.987,3.987,0,0,0-3.988-3.987H263.583A3.987,3.987,0,0,1,259.6,31.46V9.922H365.75v202.41a158.88,158.88,0,0,1-19.08,75.626q-2.3,4.271-4.883,8.415a158.827,158.827,0,0,1-12.021,16.791,4.74,4.74,0,0,1-3.681,1.739A4.793,4.793,0,0,1,323.379,314.067Z" transform="translate(-0.001 -9.922)" fill="#fff"/>
</svg>
