<svg xmlns="http://www.w3.org/2000/svg" width="1600" height="937.016" viewBox="0 0 1600 937.016">
  <path id="Union_1" data-name="Union 1" d="M10501.012,17576.457a412.238,412.238,0,0,1-232.8-228.457H9471a8,8,0,0,1-8-8v-692a8,8,0,0,1,8-8h771a8.031,8.031,0,0,1,1.558.152,8.169,8.169,0,0,1,6.2,1.3l524.859,358.666a8.268,8.268,0,0,0,12.938-6.824v-159.271a10.342,10.342,0,0,1,10.344-10.346h71.158a10.345,10.345,0,0,1,10.345,10.346v331a8.268,8.268,0,0,1-12.938,6.824l-524.882-358.648a8.267,8.267,0,0,0-12.934,6.828v370.85a322.126,322.126,0,0,0,176.75,287.1,12.379,12.379,0,0,1,6.807,11.059v79.686a8.291,8.291,0,0,1-8.24,8.293A8.155,8.155,0,0,1,10501.012,17576.457Zm452.064-121.645-67.2-45.941-360.734-246.5a8.268,8.268,0,0,0-12.938,6.828v192.416a6.171,6.171,0,0,1-10.11,4.754,229.085,229.085,0,0,1-81.714-175.457v-193.437a8.3,8.3,0,0,1,12.974-6.824l493.826,337.451a10.363,10.363,0,0,0,15.254-4.27,320.844,320.844,0,0,0,28.717-132.937v-448.58a10.345,10.345,0,0,0-10.344-10.344h-162.868a10.347,10.347,0,0,1-10.349-10.35v-71.152a10.347,10.347,0,0,1,10.349-10.35h254.715a10.346,10.346,0,0,1,10.344,10.35v540.408a412.24,412.24,0,0,1-49.5,196.2q-5.975,11.077-12.669,21.832a412.385,412.385,0,0,1-31.188,43.561,12.386,12.386,0,0,1-16.568,2.342Z" transform="translate(-9463 -16639.998)" fill="#fff"/>
</svg>
