<svg xmlns="http://www.w3.org/2000/svg" width="365.75" height="361.51" viewBox="0 0 365.75 361.51">
  <path id="Path_2366" data-name="Path 2366" d="M47.675,361.51H3a3,3,0,0,1-3-3V3A3,3,0,0,1,3,0H48.757a3,3,0,0,1,.986.166,3.147,3.147,0,0,1,2.545.469L254.595,138.882a3.186,3.186,0,0,0,4.986-2.631V74.86a3.987,3.987,0,0,1,3.987-3.987H291a3.987,3.987,0,0,1,3.988,3.987V202.441A3.187,3.187,0,0,1,290,205.073L87.683,66.833A3.187,3.187,0,0,0,82.7,69.464V212.406a124.166,124.166,0,0,0,68.128,110.663,4.773,4.773,0,0,1,2.623,4.263v30.714a3.193,3.193,0,0,1-2,2.966l.307.5Zm275.7-47.369-25.9-17.709L158.435,201.421a3.185,3.185,0,0,0-4.986,2.631v74.165a2.379,2.379,0,0,1-3.9,1.833,88.3,88.3,0,0,1-31.5-67.629V137.861a3.2,3.2,0,0,1,5-2.631L313.4,265.3a4,4,0,0,0,5.88-1.647,123.679,123.679,0,0,0,11.068-51.24V39.51a3.987,3.987,0,0,0-3.988-3.987H263.583a3.987,3.987,0,0,1-3.987-3.988V4.109A3.987,3.987,0,0,1,263.583.121h98.179a3.988,3.988,0,0,1,3.988,3.988v208.3a158.88,158.88,0,0,1-19.08,75.626q-2.3,4.271-4.883,8.415a158.827,158.827,0,0,1-12.021,16.791,4.74,4.74,0,0,1-3.681,1.739A4.793,4.793,0,0,1,323.379,314.141Z" fill="#fff"/>
</svg>
