<svg xmlns="http://www.w3.org/2000/svg" width="461.18" height="55.888" viewBox="0 0 461.18 55.888">
  <g id="レイヤー_1" data-name="レイヤー 1" transform="translate(0 -0.002)">
    <path id="Path_2361" data-name="Path 2361" d="M76.82.43A81.114,81.114,0,0,0,65.15.03h-2.9Q59.1.03,59.1,3.01a10.632,10.632,0,0,0,.29,3.44c.41,1.09,1.37,1.64,2.88,1.64h7.91V8.06c4.9,0,7.77.49,7.79,4.85H58.11Q57.93.325,35.88.32H21.15C14.71.32,10.1.97,7.29,2.27Q0,5.33,0,13.27V52.35q0,3.54,3.43,3.54a12.737,12.737,0,0,0,3.96-.32c1.26-.46,1.89-1.53,1.89-3.23V43.47H29.07q.465,12.12,22.22,12.12H66.02c6.44,0,11.05-.65,13.86-1.93q7.275-3,7.28-10.86V15.55c0-7.82-3.52-14.38-10.34-15.12ZM29.06,26.24v9.25H9.28V13.52q0-5.115,12.27-5.12H35.96a47.194,47.194,0,0,1,7.67.41q4.845.99,5.11,4.11-19.665.1-19.66,13.32Zm9.36-.14c0-3.47,3.45-5.23,10.32-5.28v9.33c0,3.5-3.45,5.28-10.32,5.34V26.11ZM77.88,42.55q0,5.07-12.26,5.06H51.21a47.551,47.551,0,0,1-7.67-.4q-4.575-.915-5.06-3.74Q58.1,43.35,58.1,30V20.82H77.88V42.55ZM124.6,4.81H99.73V50.68h11.84V34.33h12.58c17.26,0,17.46-14.13,17.46-14.73,0-9.12-6.52-14.79-17.01-14.79Zm-2.92,21.15H111.57V13.18h8.61c6.81,0,9.58,1.73,9.58,5.98,0,2.03,0,6.8-8.08,6.8Zm27.49,24.72h11.09V16.55H149.17Zm0-37.56h11.09V4.36H149.17v8.75Zm56.63,3.43H192.67s-5.95,8.83-6.42,9.54c-.48-.7-6.57-9.54-6.57-9.54H166.19s13,16.44,13.25,16.75c-.25.31-13.78,17.38-13.78,17.38h13.41s6.25-9.15,6.73-9.85c.48.7,6.72,9.85,6.72,9.85h13.72S192.71,33.61,192.46,33.3c.24-.31,13.33-16.75,13.33-16.75Zm23.91-.88c-9.54,0-20.68,4.7-20.68,17.95s11.14,17.95,20.68,17.95,20.68-4.7,20.68-17.95-11.14-17.95-20.68-17.95Zm0,27.91c-7.67,0-9.28-5.42-9.28-9.96s1.61-9.95,9.28-9.95,9.28,5.42,9.28,9.95S237.38,43.58,229.71,43.58ZM273.02,4.82,253.61,50.69H266.1s3.61-9,3.75-9.34h19.42c.13.36,3.45,9.34,3.45,9.34h12.87L286.41,4.82H273.03Zm.03,28.15c.26-.67,6.14-15.97,6.54-17.01.39,1.04,6.08,16.34,6.33,17.01ZM311.5,50.69h11.1V4.81H311.5V50.68Zm36.79-35.01c-18.47,0-19.41,14.37-19.41,17.25,0,12.37,6.78,18.64,20.16,18.64,3.3,0,14.34-.79,17.82-10.93l.12-.35H355.56l-.07.19c-.82,2.4-3.83,3.47-6.45,3.47-7.89,0-8.71-5.02-9.03-7.66h27.31V34.44c0-16.94-13.31-18.77-19.03-18.77Zm-7.95,14.33c.69-4.26,3.37-6.53,7.8-6.53,1.62,0,6.9.49,7.74,6.53H340.34Zm33.64,20.68h11.09V16.55H373.98V50.68Zm0-37.56h11.09V4.36H373.98v8.75Zm31.09,8.75V16.57H394.42V50.7h11.1V32.94c0-5.21,3.06-7.75,9.36-7.75a23.369,23.369,0,0,1,2.95.12l.35.05V15.82l-2.33-.14c-5.96,0-8.51,2.75-10.78,6.2Zm35.43-6.2c-9.54,0-20.68,4.7-20.68,17.95s11.14,17.95,20.68,17.95,20.68-4.7,20.68-17.95S450.04,15.68,440.5,15.68Zm0,27.91c-7.67,0-9.28-5.42-9.28-9.96s1.61-9.95,9.28-9.95,9.28,5.42,9.28,9.95S448.17,43.59,440.5,43.59Z" fill="#231916"/>
  </g>
</svg>
