<svg xmlns="http://www.w3.org/2000/svg" width="149.223" height="150.513" viewBox="0 0 149.223 150.513">
  <g id="Asset_1" data-name="Asset 1" transform="translate(-0.014 -0.002)">
    <path id="Path_408" data-name="Path 408" d="M126.2,101.734c-.99-3.838-3.92-5.568-7.2-6.824,1.837-2.975,3.231-6.1,1.791-9.712a15.661,15.661,0,0,0-7.66-7.8,32.488,32.488,0,0,0-14.719-3.511l11.1-15.673c.122.005.245.02.367.02a6.915,6.915,0,1,0-6.915-6.915,6.839,6.839,0,0,0,.663,2.94l-12.2,17.22A32.771,32.771,0,0,0,81.389,54.133a14.75,14.75,0,0,0-10.335-4.1c-3.3.133-5.578,2.281-7.523,4.741C61.337,52.188,58.912,50,55.09,50.055c-3.874.056-7.334,2.343-10.029,4.93a32.961,32.961,0,0,0-9.3,19.215,33.819,33.819,0,0,0-21.7,3.236A15.8,15.8,0,0,0,6.493,85.3c-1.536,3.669-.143,6.813,1.776,9.763C5.3,96.248,2.507,97.8,1.405,100.958c-1.347,3.869-.47,7.7,1.128,11.335,2.889,6.563,9.013,12.157,15.688,15.27a33.689,33.689,0,0,0-3.649,21.818,14.9,14.9,0,0,0,5.267,9.539c3.134,2.383,6.38,2.087,9.707,1.2.265,3.353.97,6.466,4.006,8.768,3.1,2.353,7.431,2.475,11.111,1.934a33,33,0,0,0,18.791-10.1,33.734,33.734,0,0,0,20.139,10.248A15.226,15.226,0,0,0,93.969,168.8c3.159-2.011,3.848-5.338,4.017-8.758,3.205.791,6.461,1.153,9.314-.975a14.983,14.983,0,0,0,5.415-9.528,33.167,33.167,0,0,0-3.675-21.6,34.14,34.14,0,0,0,12.514-10.284c3.307-4.343,6.313-10.36,4.639-15.939" transform="translate(0 -21.368)" fill="#f06ca8" stroke="#fff" stroke-miterlimit="10" stroke-width="1.5"/>
    <path id="Path_409" data-name="Path 409" d="M125.667,120.239a19.8,19.8,0,0,1-3.312,5.742,26.05,26.05,0,0,1-12.882,9c-1.939.572-3.5,3.271-2.082,5.114a27.377,27.377,0,0,1,5.4,18c-.107,2.322-.73,5.1-2.2,6.772-1.9,2.164-5.915.026-8.467-.6a3.523,3.523,0,0,0-4.4,3.353c-.061,2.419.755,6.262-1.352,7.727a4.984,4.984,0,0,1-2.133.811,14.408,14.408,0,0,1-4.057-.071,26,26,0,0,1-17.1-10.529,3.533,3.533,0,0,0-6.012,0c-3.552,5.211-9.564,8.814-15.622,10.274-2.246.541-4.966.658-6.757-.23-2.5-1.24-1.664-5.67-1.832-7.987a3.523,3.523,0,0,0-4.4-3.353c-1.893.567-3.756,1.24-5.685,1.684A2.566,2.566,0,0,1,30.4,165.3c-1.587-1.352-2.2-3.884-2.588-6.191a25.541,25.541,0,0,1,4.7-18.735c1.572-2.021,1.2-5.012-1.536-5.818a26.646,26.646,0,0,1-14.806-11.774c-1.159-1.929-2.215-4.547-1.827-6.6.485-2.567,4.823-3.18,6.859-4.011,1.919-.781,3.486-3.077,2.082-5.114-1.113-1.613-2.312-3.159-3.328-4.833a2.8,2.8,0,0,1-.168-2.858c.975-2.006,3.3-3.317,5.364-4.328a25.863,25.863,0,0,1,19.562-.914,3.5,3.5,0,0,0,4.4-3.358A26.671,26.671,0,0,1,55.451,73.2a11.518,11.518,0,0,1,5.884-4.073c2.552-.618,5.017,4.062,6.492,5.813,1.592,1.893,4.221.924,5.466-.7,1.021-1.332,1.965-2.73,3.067-4a2.777,2.777,0,0,1,2.766-1.148,8.921,8.921,0,0,1,2.24.847,14.73,14.73,0,0,1,3.292,2.685,25.8,25.8,0,0,1,7.15,18.393,3.5,3.5,0,0,0,4.4,3.353,27.524,27.524,0,0,1,18.47.408,12.113,12.113,0,0,1,5.8,4.1,2.369,2.369,0,0,1,.286,2.649,57.78,57.78,0,0,1-3.481,5.532,3.527,3.527,0,0,0,2.082,5.114c1.975.7,6.135,1.2,6.727,3.486a7.688,7.688,0,0,1-.434,4.573" transform="translate(-6.618 -33.448)" fill="#fff"/>
    <path id="Path_410" data-name="Path 410" d="M181.127,24.6c.25.99-.082,1.164-.74.383l-6.349-7.538a3.166,3.166,0,0,0-3-.924l-3.634,1.011a1.725,1.725,0,0,1-2.174-1.322L162.187,1.679c-.209-1,.2-1.22.908-.48l5.522,5.731a4.593,4.593,0,0,0,3.149,1.23l3.241-.194a2.356,2.356,0,0,1,2.317,1.694l3.8,14.948Z" transform="translate(-79.023 0)" fill="#f06ca8" stroke="#fff" stroke-miterlimit="10" stroke-width="1.5"/>
    <path id="Path_411" data-name="Path 411" d="M230.1,64.373c-.944.388-.883.76.138.822l9.84.592a3.174,3.174,0,0,1,2.531,1.848l1.358,3.516a1.732,1.732,0,0,0,2.363.954l13.479-6.237c.929-.429.857-.888-.158-1.016l-7.9-1.005a4.6,4.6,0,0,1-2.868-1.791L247.1,59.341a2.35,2.35,0,0,0-2.741-.847L230.1,64.373Z" transform="translate(-111.973 -28.194)" fill="#f06ca8" stroke="#fff" stroke-miterlimit="10" stroke-width="1.5"/>
    <path id="Path_412" data-name="Path 412" d="M62.491,128.333a.984.984,0,0,1-.857,1.087q-.857.145-2.73.413.5.773,1.368,2.138c.316.373.633.755.939,1.153a2.4,2.4,0,0,1,.607,1.25.978.978,0,0,1-.3.689,1.266,1.266,0,0,1-.888.311,2.588,2.588,0,0,1-1.036-.362,8.275,8.275,0,0,0-3.935-.954,3.119,3.119,0,0,0-1.909.5,1.286,1.286,0,0,0-.592,1.1q0,1.615,4.083,1.613c.163,0,.536-.026,1.118-.082.572-.031.97-.051,1.2-.051.908,0,1.368.393,1.368,1.184,0,.5-.362.827-1.087,1.005a11.253,11.253,0,0,1-2.026.1,14.759,14.759,0,0,1-4.639-.51,3.234,3.234,0,0,1-2.388-3.322,2.819,2.819,0,0,1,1.347-2.434,5.873,5.873,0,0,1,3.44-.939q-.2,0,2.434.23c-.47-.689-.939-1.424-1.4-2.2a41.365,41.365,0,0,1-4.9.3c-.908,0-1.363-.383-1.363-1.153a.877.877,0,0,1,.327-.694,1.6,1.6,0,0,1,1.087-.342,36.261,36.261,0,0,0,3.818-.179c-.107-.209-.276-.515-.5-.924a2.376,2.376,0,0,1-.23-.822.8.8,0,0,1,.362-.658,1.444,1.444,0,0,1,.888-.265,1.128,1.128,0,0,1,1.036.592,4.341,4.341,0,0,1,.444.857c.219.526.347.832.378.908a20.137,20.137,0,0,1,3.425-.612,1.021,1.021,0,0,1,.791.332,1.066,1.066,0,0,1,.311.755" transform="translate(-24.289 -61.078)" fill="#f06ca8"/>
    <path id="Path_413" data-name="Path 413" d="M52.975,138.918a3.4,3.4,0,0,1-2.5-3.476h0a3,3,0,0,1,1.419-2.567h0a6.054,6.054,0,0,1,3.532-.965h0v.122l.01-.036.015-.082h.02s.061.01.112.015h0l.459.046h0c.347.036.847.077,1.5.133h0c-.393-.582-.776-1.194-1.159-1.837h0a42.028,42.028,0,0,1-4.818.286h0a1.7,1.7,0,0,1-1.128-.327h0a1.228,1.228,0,0,1-.4-.985h0a1.046,1.046,0,0,1,.383-.811h0a1.77,1.77,0,0,1,1.194-.388h0q2.006,0,3.562-.153h0c-.1-.189-.23-.429-.388-.725h0a2.52,2.52,0,0,1-.245-.888h0a.945.945,0,0,1,.429-.786h0a1.632,1.632,0,0,1,.985-.3h0a1.285,1.285,0,0,1,1.169.658h0a4.661,4.661,0,0,1,.464.888h0c.153.373.265.633.327.781h0a19.592,19.592,0,0,1,3.328-.582h0a1.189,1.189,0,0,1,.908.378h0a1.229,1.229,0,0,1,.357.868h0a1.145,1.145,0,0,1-.99,1.245h0c-.536.092-1.363.219-2.485.378h0c.316.5.725,1.133,1.215,1.909h0c.322.373.633.76.944,1.159h0a2.55,2.55,0,0,1,.643,1.347h0a1.162,1.162,0,0,1-.352.811h0a1.4,1.4,0,0,1-1,.352h0a2.671,2.671,0,0,1-1.113-.383h0a8.149,8.149,0,0,0-3.858-.934h0a3,3,0,0,0-1.817.464h0a1.109,1.109,0,0,0-.521.97h0c0,.459.27.8.919,1.056h0a8.711,8.711,0,0,0,3,.393h0c.148,0,.526-.026,1.107-.082h0c.572-.031.975-.051,1.21-.051h0a1.673,1.673,0,0,1,1.128.337h0a1.282,1.282,0,0,1,.4,1.011h0c0,.592-.459.99-1.2,1.159h0a10.975,10.975,0,0,1-2.067.1h0a15.112,15.112,0,0,1-4.7-.515h0Zm-.893-5.777a2.665,2.665,0,0,0-1.281,2.3h0a3.07,3.07,0,0,0,2.281,3.169h0a14.776,14.776,0,0,0,4.583.5h0a11.748,11.748,0,0,0,1.985-.092h0c.7-.179.959-.449.965-.847h0c-.02-.714-.337-1-1.2-1.021h0c-.225,0-.623.015-1.189.046h0c-.582.056-.954.082-1.133.082h0a8.918,8.918,0,0,1-3.118-.413h0a1.488,1.488,0,0,1-1.123-1.358h0a1.453,1.453,0,0,1,.658-1.235h0a3.31,3.31,0,0,1,2.006-.526h0a8.47,8.47,0,0,1,4.006.975h0a2.363,2.363,0,0,0,.965.342h0a1.107,1.107,0,0,0,.771-.26h0a.845.845,0,0,0,.255-.577h0a2.382,2.382,0,0,0-.577-1.153h0c-.306-.393-.618-.776-.949-1.164h0c-.582-.914-1.036-1.623-1.363-2.138h0l-.138-.214.25-.036q1.876-.26,2.725-.408h0c.51-.112.709-.362.725-.929h0a.912.912,0,0,0-.27-.648h0a.844.844,0,0,0-.669-.276h0a20.482,20.482,0,0,0-3.384.6h0l-.133.031-.056-.122c-.036-.082-.158-.383-.378-.908h0a4.411,4.411,0,0,0-.434-.837h0a.959.959,0,0,0-.9-.51h0a1.321,1.321,0,0,0-.791.23h0a.633.633,0,0,0-.3.526h0a2.251,2.251,0,0,0,.209.745h0c.219.4.383.715.5.924h0l.112.209-.235.026a35.186,35.186,0,0,1-3.833.184h0a1.435,1.435,0,0,0-.98.306h0a.7.7,0,0,0-.27.567h0c.02.689.332.965,1.2.99h0a41.027,41.027,0,0,0,4.884-.3h0l.107-.015.056.092c.459.776.924,1.511,1.393,2.195h0l.194.281-.342-.031c-1.2-.107-1.965-.174-2.286-.209h0c-.1-.015-.117-.01-.168-.02h0a5.7,5.7,0,0,0-3.317.908h0Zm3.5-1.072h0Zm-.148-.031.056-.117-.056.117Z" transform="translate(-24.138 -60.931)" fill="#f06ca8"/>
    <path id="Path_414" data-name="Path 414" d="M94.4,138.056a1.1,1.1,0,0,1-.378.806,1.359,1.359,0,0,1-.97.362,2.321,2.321,0,0,1-1.383-.674q-.674-.574-2.8-2.092c-1.659-1.215-2.822-2.082-3.506-2.6a1.73,1.73,0,0,1-.806-1.317q0-.743,1.546-1.858,1.807-1.3,5.395-3.9a3.858,3.858,0,0,1,1.613-.857,1.1,1.1,0,0,1,.888.413,1.445,1.445,0,0,1,.332.924.738.738,0,0,1-.332.623q-2.235,1.646-5.675,3.965c-.5.342-.74.566-.74.674,0,.122.255.357.771.709q1.944,1.332,5.614,3.884a1.062,1.062,0,0,1,.429.939" transform="translate(-41.04 -61.288)" fill="#f06ca8"/>
    <path id="Path_415" data-name="Path 415" d="M92.9,139.222a2.478,2.478,0,0,1-1.485-.715h0c-.439-.378-1.373-1.072-2.787-2.082h0q-2.488-1.822-3.506-2.6h0a1.86,1.86,0,0,1-.868-1.444h0c.015-.612.577-1.23,1.613-1.99h0q1.807-1.3,5.395-3.9h0a3.958,3.958,0,0,1,1.71-.888h0a1.282,1.282,0,0,1,1.016.47h0a1.583,1.583,0,0,1,.362,1.021h0a.919.919,0,0,1-.4.755h0q-2.243,1.646-5.68,3.971h0a3.1,3.1,0,0,0-.663.541h0a.073.073,0,0,0,.01.015h0a.827.827,0,0,0,.122.133h0a5.25,5.25,0,0,0,.561.429h0q1.944,1.332,5.614,3.884h0a1.223,1.223,0,0,1,.5,1.072h0a1.268,1.268,0,0,1-.429.924h0a1.512,1.512,0,0,1-1.077.408h0Zm-1.455-12.473q-3.59,2.6-5.4,3.9h0c-1.026.73-1.5,1.352-1.48,1.73h0a1.563,1.563,0,0,0,.74,1.189h0c.679.515,1.848,1.378,3.5,2.6h0c1.419,1.01,2.348,1.71,2.807,2.1h0a2.223,2.223,0,0,0,1.276.638h0a1.176,1.176,0,0,0,.857-.316h0a.924.924,0,0,0,.327-.689h0a.9.9,0,0,0-.357-.806h0q-3.667-2.549-5.609-3.884h0c-.521-.378-.8-.541-.842-.842h0c.051-.3.311-.439.811-.806h0q3.437-2.32,5.67-3.96h0a.586.586,0,0,0,.265-.5h0a1.271,1.271,0,0,0-.291-.817h0a.937.937,0,0,0-.766-.352h-.01a4.077,4.077,0,0,0-1.506.827h0Z" transform="translate(-40.888 -61.127)" fill="#f06ca8"/>
    <path id="Path_416" data-name="Path 416" d="M127.386,134.57a3.9,3.9,0,0,1-1.975,3.44,7.917,7.917,0,0,1-4.425,1.169,10.237,10.237,0,0,1-2.235-.179,1.027,1.027,0,0,1-1.036-1.169,1.242,1.242,0,0,1,.362-.888,1.218,1.218,0,0,1,.99-.311,8.786,8.786,0,0,0,1.924.148,5.425,5.425,0,0,0,3.077-.755,1.732,1.732,0,0,0,.939-1.449,1.689,1.689,0,0,0-.5-1.235,1.931,1.931,0,0,0-1.516-.592,8.1,8.1,0,0,0-3.195.643,14.294,14.294,0,0,0-2.154,1.169,3.312,3.312,0,0,1-1.429.607c-.811,0-1.22-.521-1.22-1.562a12.869,12.869,0,0,1,.245-1.878q.214-1.1.413-2.189a1.057,1.057,0,0,1,1.133-1.005,1.32,1.32,0,0,1,.873.3,1.041,1.041,0,0,1,.378.837,5.54,5.54,0,0,1-.214,1.3c-.087.439-.179.878-.281,1.317a10.181,10.181,0,0,1,5.446-1.48,4.522,4.522,0,0,1,3.277,1.22,3.442,3.442,0,0,1,1.118,2.552m-3.67-7.405a1.215,1.215,0,0,1-.311.822,1.06,1.06,0,0,1-.837.362,12.087,12.087,0,0,1-2.092-.327c-.745-.174-1.485-.347-2.22-.51a1.1,1.1,0,0,1-.97-1.22,1.05,1.05,0,0,1,.327-.771,1.065,1.065,0,0,1,.806-.327,1.082,1.082,0,0,1,.265.031q1.3.3,4.017.791a1.055,1.055,0,0,1,1.021,1.153" transform="translate(-55.945 -60.931)" fill="#f06ca8"/>
    <path id="Path_417" data-name="Path 417" d="M118.564,139a1.189,1.189,0,0,1-1.174-1.332h0a1.413,1.413,0,0,1,.413-1.005h0a1.3,1.3,0,0,1,.954-.362h0a1.309,1.309,0,0,1,.184.01h0a8.63,8.63,0,0,0,1.883.143h0a5.306,5.306,0,0,0,2.991-.73h0a1.567,1.567,0,0,0,.863-1.312h0a1.516,1.516,0,0,0-.454-1.128h0a1.742,1.742,0,0,0-1.393-.536h0a7.991,7.991,0,0,0-3.134.628h0a14.313,14.313,0,0,0-2.133,1.159h0a3.427,3.427,0,0,1-1.516.633h0a1.253,1.253,0,0,1-1.041-.454h0a2.043,2.043,0,0,1-.337-1.271h0a13.108,13.108,0,0,1,.25-1.909h0c.143-.735.281-1.465.413-2.184h0a1.216,1.216,0,0,1,1.3-1.138h0a1.513,1.513,0,0,1,.975.332h0a1.2,1.2,0,0,1,.439.965h0a5.786,5.786,0,0,1-.214,1.332h0c-.061.316-.133.638-.2.954h0a10.321,10.321,0,0,1,5.211-1.312h0a4.714,4.714,0,0,1,3.389,1.261h0a3.627,3.627,0,0,1,1.169,2.669h0a4.063,4.063,0,0,1-2.047,3.573h0a8.086,8.086,0,0,1-4.517,1.194h0a10.306,10.306,0,0,1-2.261-.184h0Zm-.536-2.1a1.071,1.071,0,0,0-.316.776h0c.02.674.26.939.888,1.01h.026a9.511,9.511,0,0,0,2.2.174h0a7.765,7.765,0,0,0,4.338-1.143h0a3.725,3.725,0,0,0,1.9-3.3h0a3.293,3.293,0,0,0-1.067-2.434h0a4.378,4.378,0,0,0-3.159-1.174h0a9.974,9.974,0,0,0-5.364,1.46h0l-.327.2.082-.373c.1-.439.194-.873.281-1.322h0a5.286,5.286,0,0,0,.209-1.261h0a.857.857,0,0,0-.322-.714h0a1.164,1.164,0,0,0-.771-.26h0c-.587.015-.857.25-.975.873h0q-.2,1.087-.413,2.189h0a12.964,12.964,0,0,0-.245,1.848h0c.026,1.01.332,1.383,1.056,1.4h0a3.314,3.314,0,0,0,1.342-.587h0a15.142,15.142,0,0,1,2.179-1.184h0a8.318,8.318,0,0,1,3.256-.653h0a2.064,2.064,0,0,1,1.628.643h0a1.827,1.827,0,0,1,.541,1.347h0a1.906,1.906,0,0,1-1.011,1.582h0a5.584,5.584,0,0,1-3.169.786h0a8.919,8.919,0,0,1-1.939-.148h-.128a1,1,0,0,0-.73.27h0Zm4.374-8.543a12.228,12.228,0,0,1-2.128-.332h0c-.745-.174-1.485-.347-2.215-.505h0a1.266,1.266,0,0,1-1.1-1.378h0a1.231,1.231,0,0,1,.373-.888h0a1.228,1.228,0,0,1,.924-.378h0a1.108,1.108,0,0,1,.3.036h0c.863.194,2.2.459,4,.786h0A1.218,1.218,0,0,1,123.714,127h0a1.4,1.4,0,0,1-.352.929h0a1.219,1.219,0,0,1-.954.418H122.4Zm-4.838-2.878a.881.881,0,0,0-.281.658h0a.937.937,0,0,0,.842,1.062h0c.735.163,1.475.332,2.22.51h0a12.136,12.136,0,0,0,2.057.327h0a.883.883,0,0,0,.714-.306h0a1.06,1.06,0,0,0,.27-.715h0c-.015-.612-.255-.883-.888-1h0c-1.812-.327-3.149-.592-4.032-.791h0a.7.7,0,0,0-.219-.026h0a.9.9,0,0,0-.694.281h0Z" transform="translate(-55.783 -60.769)" fill="#f06ca8"/>
    <path id="Path_418" data-name="Path 418" d="M158.02,129.108a.925.925,0,0,1-.347.725,1.109,1.109,0,0,1-.776.3h-6.155c-.766,0-1.153.332-1.153.99v2.4h6.42a1.022,1.022,0,0,1,.771.311,1.039,1.039,0,0,1,.3.771c0,.725-.378,1.087-1.138,1.087h-6.354v3.292c0,.857-.393,1.281-1.184,1.281s-1.2-.429-1.2-1.281v-9.447q0-1.577,1.776-1.577h7.9a1.084,1.084,0,0,1,.822.327,1.112,1.112,0,0,1,.311.822" transform="translate(-71.711 -62.282)" fill="#f06ca8"/>
    <path id="Path_419" data-name="Path 419" d="M148.263,140.271a1.345,1.345,0,0,1-1.021-.373h0a1.514,1.514,0,0,1-.342-1.072h0V129.38a1.667,1.667,0,0,1,.5-1.307h0a2.1,2.1,0,0,1,1.439-.434h7.9a1.246,1.246,0,0,1,.934.378h0a1.294,1.294,0,0,1,.362.939h0a1.1,1.1,0,0,1-.4.847h0a1.273,1.273,0,0,1-.883.337H150.6c-.725.026-.97.245-.99.827h0v2.24h6.257a1.185,1.185,0,0,1,.888.362h0a1.2,1.2,0,0,1,.342.888h0a1.238,1.238,0,0,1-.337.934h0a1.351,1.351,0,0,1-.965.316H149.6v3.128a1.536,1.536,0,0,1-.337,1.072h0a1.305,1.305,0,0,1-1,.373h0Zm-1.041-10.891v9.447c.026.806.3,1.1,1.041,1.118h0c.72-.02,1-.316,1.021-1.118h0v-3.455H155.8c.7-.026.949-.265.975-.924h0a.885.885,0,0,0-.25-.663h0a.85.85,0,0,0-.653-.26h-6.584v-2.567a1.087,1.087,0,0,1,.342-.863h0a1.465,1.465,0,0,1,.97-.286h6.155a.962.962,0,0,0,.669-.255h0a.77.77,0,0,0,.291-.6h0a.959.959,0,0,0-.265-.709h0a.915.915,0,0,0-.7-.276h-7.9c-1.138.026-1.592.439-1.613,1.419h0Z" transform="translate(-71.564 -62.125)" fill="#f06ca8"/>
    <path id="Path_420" data-name="Path 420" d="M185.254,138.766a1.093,1.093,0,0,1-1.25,1.22c-.745,0-1.118-.413-1.118-1.235v-5.859l-2.633,5.231a1.269,1.269,0,0,1-1.215.76,1.3,1.3,0,0,1-1.235-.76l-2.684-5.313v5.956a1.093,1.093,0,0,1-1.25,1.22c-.745,0-1.118-.413-1.118-1.235V128.6c0-.811.373-1.22,1.118-1.22a1.347,1.347,0,0,1,1.317.74l3.838,7.569,3.848-7.569a1.21,1.21,0,0,1,1.133-.74,1.091,1.091,0,0,1,1.25,1.22v10.171Z" transform="translate(-84.221 -61.998)" fill="#f06ca8"/>
    <path id="Path_421" data-name="Path 421" d="M182.887,139.625a1.5,1.5,0,0,1-.322-1.036h0v-5.175l-2.327,4.624a1.432,1.432,0,0,1-1.363.847h0a1.453,1.453,0,0,1-1.378-.847h0l-2.373-4.711V138.6a1.392,1.392,0,0,1-.362,1.031h0a1.451,1.451,0,0,1-1.051.352h0a1.233,1.233,0,0,1-.96-.362h0a1.5,1.5,0,0,1-.322-1.036h0V128.438a1.46,1.46,0,0,1,.322-1.021h0a1.248,1.248,0,0,1,.96-.357h0a1.509,1.509,0,0,1,1.46.832h0l3.69,7.283,3.705-7.283a1.367,1.367,0,0,1,1.281-.827h0a1.451,1.451,0,0,1,1.051.352h0a1.372,1.372,0,0,1,.362,1.026h0v10.171a1.392,1.392,0,0,1-.362,1.031h0a1.451,1.451,0,0,1-1.051.352h0a1.246,1.246,0,0,1-.954-.362h0Zm0-1.036c.026.776.281,1.051.954,1.072h0c.776-.026,1.067-.306,1.087-1.056h0V128.433c-.026-.75-.311-1.031-1.087-1.056h0a1.04,1.04,0,0,0-.99.653h0l-4,7.854-3.981-7.854a1.189,1.189,0,0,0-1.174-.653h0c-.679.02-.934.291-.954,1.056h0v10.151c.026.776.281,1.051.954,1.072h0c.781-.026,1.067-.306,1.087-1.056h0v-6.64l2.991,5.925a1.12,1.12,0,0,0,1.087.669h0a1.1,1.1,0,0,0,1.072-.669h0l2.94-5.844v6.543h0Z" transform="translate(-84.065 -61.841)" fill="#f06ca8"/>
    <path id="Path_422" data-name="Path 422" d="M119.859,181.327q0,4.785-3.715,6.905-3.139,1.784-9.268,1.791-12.838,0-12.836-8.441,0-3.544,4.057-6.538-3.024-2.3-3.026-5.19a6.571,6.571,0,0,1,3.715-6.1,16.776,16.776,0,0,1,8.084-1.715q12,0,11.988,7.742a4.989,4.989,0,0,1-1.113,3.067,7.433,7.433,0,0,1-2.373,2.118c2.986,1.756,4.481,3.869,4.481,6.359m-5.517-.184c0-1.092-.806-2.011-2.414-2.741a12.311,12.311,0,0,0-5.053-.985,11.9,11.9,0,0,0-4.634.914q-2.61,1.133-2.608,2.919,0,1.608,2.337,2.741a10.772,10.772,0,0,0,4.711,1.021,13.1,13.1,0,0,0,5.134-.914c1.684-.7,2.531-1.689,2.531-2.96m-1.036-11.253q0-2.848-6.436-2.848c-4.292,0-6.206.939-6.206,2.812q0,1.386,1.914,2.23a11.062,11.062,0,0,0,4.292.73,12.127,12.127,0,0,0,4.481-.694c1.3-.515,1.955-1.255,1.955-2.23" transform="translate(-45.682 -78.969)" fill="#f06ca8"/>
    <path id="Path_423" data-name="Path 423" d="M96.738,187.878a7.4,7.4,0,0,1-3.358-6.609h0c0-2.394,1.322-4.583,3.848-6.543h0a6.684,6.684,0,0,1-2.812-5.18h0a6.918,6.918,0,0,1,3.894-6.395h0a17.159,17.159,0,0,1,8.247-1.761h0c4.032,0,7.089.643,9.176,1.99h0a6.79,6.79,0,0,1,3.149,6.089h0a5.318,5.318,0,0,1-1.179,3.266h0a7.772,7.772,0,0,1-2,1.919h0c2.736,1.73,4.175,3.863,4.175,6.359h0a7.666,7.666,0,0,1-3.889,7.2h0c-2.179,1.235-5.323,1.832-9.437,1.832h0c-4.313,0-7.584-.7-9.814-2.164h0Zm9.814-25.819a16.424,16.424,0,0,0-7.921,1.674h0a6.23,6.23,0,0,0-3.542,5.808h0c0,1.8.929,3.419,2.894,4.92h0l.357.271-.362.265c-2.659,1.965-3.925,4.047-3.925,6.267h0a6.727,6.727,0,0,0,3.057,6.048h0c2.052,1.352,5.2,2.057,9.442,2.052h0c4.052,0,7.094-.6,9.1-1.745h0c2.373-1.363,3.537-3.506,3.547-6.609h0c0-2.337-1.383-4.338-4.318-6.063h0l-.5-.3.505-.286a7.1,7.1,0,0,0,2.271-2.031h0a4.65,4.65,0,0,0,1.041-2.863h0a6.122,6.122,0,0,0-2.843-5.527h0c-1.909-1.235-4.838-1.883-8.794-1.883h-.015Zm-5.053,21.92c-1.6-.766-2.526-1.781-2.526-3.042h0c0-1.383,1.026-2.465,2.812-3.231h0a12.222,12.222,0,0,1,4.767-.944h0a12.7,12.7,0,0,1,5.2,1.016h0c1.654.745,2.608,1.761,2.613,3.047h0c0,1.439-1,2.552-2.736,3.266h0a13.36,13.36,0,0,1-5.267.939h0a11.1,11.1,0,0,1-4.859-1.056h0Zm.551-5.655c-1.689.745-2.4,1.613-2.4,2.613h0c0,.888.633,1.7,2.149,2.434h0a10.4,10.4,0,0,0,4.568.99h0a12.724,12.724,0,0,0,5-.888h0c1.628-.694,2.317-1.557,2.322-2.649h0c0-.9-.648-1.715-2.215-2.434h0a11.969,11.969,0,0,0-4.92-.959h0a11.5,11.5,0,0,0-4.5.888h0Zm.077-6.247c-1.327-.572-2.118-1.434-2.118-2.536h0a2.607,2.607,0,0,1,1.751-2.419h0a12.184,12.184,0,0,1,4.8-.735h0a12.769,12.769,0,0,1,4.961.74h0a2.635,2.635,0,0,1,1.807,2.445h0c.005,1.148-.806,2.021-2.164,2.542h0a12.5,12.5,0,0,1-4.609.72h0a11.318,11.318,0,0,1-4.43-.76h0Zm-.087-4.338a1.912,1.912,0,0,0-1.352,1.8h0c0,.745.49,1.373,1.71,1.919h0a10.693,10.693,0,0,0,4.159.7h0a11.916,11.916,0,0,0,4.358-.669h0c1.245-.505,1.735-1.113,1.74-1.914h0c-.01-.806-.408-1.373-1.409-1.827h0a12.23,12.23,0,0,0-4.69-.684h-.02a11.5,11.5,0,0,0-4.5.674h0Z" transform="translate(-45.359 -78.651)" fill="#f06ca8"/>
    <path id="Path_424" data-name="Path 424" d="M178.755,167.382a13.023,13.023,0,0,1-1.3,4.568l-7.319,17.026a2.7,2.7,0,0,1-2.72,1.679A3.076,3.076,0,0,1,165.46,190a2.15,2.15,0,0,1-.847-1.791,3.318,3.318,0,0,1,.27-1.388l7.048-16.255a3.748,3.748,0,0,0,.388-1.46c0-.536-.5-.806-1.5-.806h-11.7s-2.542,0-2.542-2.3a2.476,2.476,0,0,1,2.542-2.664h14.841q4.792,0,4.792,4.052" transform="translate(-76.304 -79.601)" fill="#f06ca8"/>
    <path id="Path_425" data-name="Path 425" d="M167.107,190.663a3.417,3.417,0,0,1-2.159-.73h0a2.5,2.5,0,0,1-.975-2.057h0a3.66,3.66,0,0,1,.3-1.521h0l7.048-16.26a3.368,3.368,0,0,0,.357-1.322h0c-.01-.158-.036-.2-.2-.306h0a2.106,2.106,0,0,0-.96-.158H158.67a3.986,3.986,0,0,1-1.266-.322h0a2.406,2.406,0,0,1-1.465-2.322h0a2.753,2.753,0,0,1,1.352-2.6h0a3.186,3.186,0,0,1,1.506-.4h14.857a5.765,5.765,0,0,1,3.812,1.092h0a4.111,4.111,0,0,1,1.317,3.3h0a13.243,13.243,0,0,1-1.327,4.7h0l-7.319,17.026a3.031,3.031,0,0,1-2.975,1.883h-.051Zm3.409-23.027a2.748,2.748,0,0,1,1.281.24h0a.99.99,0,0,1,.551.9h0a4,4,0,0,1-.419,1.592h0l-7.048,16.265a2.992,2.992,0,0,0-.24,1.245h0a1.793,1.793,0,0,0,.715,1.526h0a2.761,2.761,0,0,0,1.745.587h0a2.358,2.358,0,0,0,2.409-1.475h0l7.319-17.026a12.688,12.688,0,0,0,1.271-4.435h0a3.4,3.4,0,0,0-1.077-2.781h0a5.131,5.131,0,0,0-3.373-.934H158.793a2.6,2.6,0,0,0-1.174.311h0a2.077,2.077,0,0,0-1.011,2.016h0a1.718,1.718,0,0,0,1.067,1.71h0a3.117,3.117,0,0,0,1.133.26h11.7Z" transform="translate(-75.99 -79.278)" fill="#f06ca8"/>
    <path id="Path_426" data-name="Path 426" d="M67.12,167.382a13.023,13.023,0,0,1-1.3,4.568L58.5,188.975a2.7,2.7,0,0,1-2.72,1.679A3.087,3.087,0,0,1,53.825,190a2.156,2.156,0,0,1-.847-1.791,3.318,3.318,0,0,1,.27-1.388L60.3,170.562a3.818,3.818,0,0,0,.383-1.46c0-.536-.5-.8-1.5-.8h-11.7s-2.547,0-2.547-2.307a2.479,2.479,0,0,1,2.547-2.664H62.328q4.792,0,4.787,4.052" transform="translate(-21.64 -79.601)" fill="#f06ca8"/>
    <path id="Path_427" data-name="Path 427" d="M55.476,190.658a3.442,3.442,0,0,1-2.164-.73h0a2.5,2.5,0,0,1-.975-2.057h0a3.581,3.581,0,0,1,.3-1.521h0l7.048-16.26a3.554,3.554,0,0,0,.357-1.327h0c-.01-.158-.036-.2-.2-.306h0a2.106,2.106,0,0,0-.959-.158H47.04a3.944,3.944,0,0,1-1.266-.316h0a2.4,2.4,0,0,1-1.465-2.322h0a2.762,2.762,0,0,1,1.358-2.6h0a3.269,3.269,0,0,1,1.511-.4H62.035a5.759,5.759,0,0,1,3.807,1.092h0a4.111,4.111,0,0,1,1.317,3.3h0a13.215,13.215,0,0,1-1.327,4.7h0l-7.319,17.026a3.031,3.031,0,0,1-2.975,1.883h-.051Zm3.409-23.027a2.775,2.775,0,0,1,1.281.24h0a.984.984,0,0,1,.551.9h0a4.089,4.089,0,0,1-.413,1.592h0l-7.053,16.265a2.991,2.991,0,0,0-.24,1.245h0a1.81,1.81,0,0,0,.72,1.526h0a2.722,2.722,0,0,0,1.745.587h0a2.358,2.358,0,0,0,2.409-1.475h0L65.2,171.484a12.727,12.727,0,0,0,1.276-4.435h0a3.416,3.416,0,0,0-1.077-2.781h0a5.131,5.131,0,0,0-3.373-.934H47.173a2.63,2.63,0,0,0-1.179.311h0a2.088,2.088,0,0,0-1.016,2.016h0a1.721,1.721,0,0,0,1.072,1.71h0a2.936,2.936,0,0,0,1.138.255h11.7Z" transform="translate(-21.332 -79.273)" fill="#f06ca8"/>
    <path id="Path_428" data-name="Path 428" d="M157.122,205.956a3.491,3.491,0,1,1-3.491-3.486,3.489,3.489,0,0,1,3.491,3.486" transform="translate(-73.151 -98.765)" fill="#f06ca8"/>
    <g id="Group_488" data-name="Group 488" transform="translate(33.874 114.249)">
      <path id="Path_429" data-name="Path 429" d="M66.548,225.69a.77.77,0,0,1-.888-.8c0-.6.25-.9.888-.9h9.666c.418,0,.873.122.873.791,0,.587-.168.914-.873.914H73.183v1.092h1.832c1.041,0,1.592.373,1.592,1.592v4.7c0,1.271-.6,1.592-1.592,1.592H67.737c-.985,0-1.608-.311-1.608-1.592v-4.7c0-1.21.551-1.592,1.608-1.592h1.307v-1.092h-2.5Zm4.027,2.72a6.671,6.671,0,0,1-.408,2.5c-.179.434-.709,1.358-1.3,1.358a.97.97,0,0,1-.914-.914c0-.23.01-.24.408-.72a3.014,3.014,0,0,0,.684-2.22h-.873a.291.291,0,0,0-.322.322v3.96a.3.3,0,0,0,.322.337h6.369a.3.3,0,0,0,.322-.337v-1.164c-.265.47-.587.47-1.893.47s-1.368-.434-1.368-1.5V228.41Zm1.031-2.72h-1v1.092h1Zm1.572,4.435c0,.311,0,.383.383.383.322,0,.357-.168.393-.49.036-.337.071-.577.577-.577a.642.642,0,0,1,.337.071v-.781a.288.288,0,0,0-.322-.322H73.178v1.715Z" transform="translate(-65.66 -223.551)" fill="#f06ca8"/>
      <path id="Path_430" data-name="Path 430" d="M102.563,228.325c0,1.281-.24,1.521-1.521,1.521H99.485a6.763,6.763,0,0,1-.24.638h2.792c.914,0,1.449.311,1.449,1.465v1.021c0,1.138-.541,1.449-1.449,1.449H95.152c-.949,0-1.449-.337-1.449-1.449v-1.021c0-1.118.49-1.465,1.449-1.465h2.184a4.045,4.045,0,0,0,.23-.638H96.117c-1.245,0-1.521-.214-1.521-1.521V227.7a3.4,3.4,0,0,1,.026-.551,1.046,1.046,0,0,1-.638.189c-.515,0-.914-.168-.914-.852v-.97c0-1.143.541-1.449,1.449-1.449h3.118v-.23c0-.541.373-.709.842-.709.541,0,1,.1,1,.709v.23h3.154c.863,0,1.465.265,1.465,1.449v1a.748.748,0,0,1-.842.827,1.254,1.254,0,0,1-.694-.179c.01.122.01.2.01.541v.623Zm-1.521-2.133c.623,0,1,.026,1.261.311v-.6a.288.288,0,0,0-.322-.322h-6.8a.288.288,0,0,0-.322.322v.6c.24-.255.505-.311,1.261-.311h4.93Zm.674,5.961a.223.223,0,0,0-.24-.25H95.734a.219.219,0,0,0-.24.25v.551c0,.168.071.25.24.25h5.742a.223.223,0,0,0,.24-.25Zm-.842-4.318a.22.22,0,0,0-.25-.25H96.535c-.168,0-.25.082-.25.24v.434a.226.226,0,0,0,.25.25h4.088a.226.226,0,0,0,.25-.25v-.419Z" transform="translate(-79.081 -223.13)" fill="#f06ca8"/>
      <path id="Path_431" data-name="Path 431" d="M124.593,232.706a1.786,1.786,0,1,1-1.786-1.786A1.791,1.791,0,0,1,124.593,232.706Z" transform="translate(-92.766 -226.944)" fill="#f06ca8"/>
      <path id="Path_432" data-name="Path 432" d="M136.67,223.763c0-.551.551-.623.827-.623.434,0,.934.087.934.623v.194h2.521v-.194c0-.541.541-.623.827-.623.444,0,.934.087.934.623v.194h1.822a.743.743,0,0,1,.863.791c0,.658-.408.8-.863.8h-1.822c0,.25,0,.6-.347.73h2.072a.725.725,0,1,1,0,1.449h-9.5a.648.648,0,0,1-.745-.72.657.657,0,0,1,.745-.735h2.072c-.347-.133-.347-.49-.347-.73h-1.812c-.276,0-.873-.026-.873-.791,0-.638.393-.806.873-.806h1.812v-.194Zm-1.8,5.935c0-1.148.526-1.465,1.449-1.465H143.1c.914,0,1.449.311,1.449,1.465v.863c0,1.128-.505,1.465-1.449,1.465h-6.5a4.226,4.226,0,0,1-.505,1.832c-.3.551-.577.73-.985.73a.969.969,0,0,1-1.056-.852c0-.214.061-.337.357-.924a4.178,4.178,0,0,0,.454-2.184v-.934Zm1.832.9h5.65a.3.3,0,0,0,.337-.337v-.3a.3.3,0,0,0-.337-.337h-5.313a.3.3,0,0,0-.337.337v.638Zm4.6-4.318c-.357-.133-.357-.48-.357-.73H138.43c0,.24,0,.6-.357.73Z" transform="translate(-99.112 -223.135)" fill="#f06ca8"/>
      <path id="Path_433" data-name="Path 433" d="M170.885,228.8c1.041,1.317,1.041,1.429,1.041,1.7a.886.886,0,0,1-.924.817c-.311,0-.6-.158-.924-.638-.454.061-1.056.1-1.536.117v.623h2.674c.373,0,.72.092.72.674,0,.633-.47.658-.72.658h-2.674v.566h3.083c.286,0,.745.046.745.72a.66.66,0,0,1-.745.709h-7.758a.642.642,0,0,1-.745-.72.658.658,0,0,1,.745-.709h2.9v-.566h-2.4c-.362,0-.72-.082-.72-.674,0-.648.454-.658.72-.658h2.4v-.541c-.357.01-1.919.071-2.22.071-.419,0-.949,0-.949-.72,0-.669.551-.694,1.031-.72a4.338,4.338,0,0,0,.383-.72H163.49v.265a19.943,19.943,0,0,1-.408,4.328c-.23,1.138-.505,1.475-1.031,1.475-.082,0-1.021-.026-1.021-.9,0-.286.373-1.608.434-1.9a16.781,16.781,0,0,0,.265-2.986v-3.669c0-1.245.23-1.485,1.475-1.485h7.339c1.164,0,1.352.23,1.352,1.368v.429c0,1.164-.214,1.368-1.352,1.368H163.5v.408h8.14c.23,0,.73.026.73.658a.631.631,0,0,1-.73.648h-.755Zm-7.385-2.94h6.461c.1,0,.189-.036.189-.2,0-.23,0-.337-.189-.337H163.7a.183.183,0,0,0-.2.2v.337Zm3.465,2.94a3.166,3.166,0,0,1-.373.72c.863-.015,1.725-.036,2.588-.071a1.841,1.841,0,0,1-.408-.648H166.96Z" transform="translate(-112.357 -223.517)" fill="#f06ca8"/>
    </g>
  </g>
</svg>
