<svg xmlns="http://www.w3.org/2000/svg" width="266.749" height="126.818" viewBox="0 0 266.749 126.818">
  <g id="Asset_1" data-name="Asset 1" transform="translate(0.003 0.01)">
    <g id="Group_491" data-name="Group 491" transform="translate(28.146 102.864)">
      <g id="Group_489" data-name="Group 489" transform="translate(0 3.866)">
        <path id="Path_434" data-name="Path 434" d="M75.534,237.91v2.543H68.31a.445.445,0,0,0-.2.045.763.763,0,0,0-.185.108.617.617,0,0,0-.14.149.358.358,0,0,0-.054.194v1.143a.386.386,0,0,0,.032.162.825.825,0,0,0,.1.162.9.9,0,0,0,.216.194.451.451,0,0,0,.261.086h4.744a4.712,4.712,0,0,1,.594.04,3.419,3.419,0,0,1,.59.131,2.555,2.555,0,0,1,.572.239,2.2,2.2,0,0,1,.833.716,2.282,2.282,0,0,1,.257.432,2.318,2.318,0,0,1,.162.518,3.34,3.34,0,0,1,.054.626v4.721c0,.158-.009.315-.023.477a3.375,3.375,0,0,1-.068.45,2.773,2.773,0,0,1-.185.6,3.724,3.724,0,0,1-.27.518,2.419,2.419,0,0,1-.842.8,2.688,2.688,0,0,1-.711.293,3.463,3.463,0,0,1-.819.094H62.986v-2.565h7.2a.777.777,0,0,0,.261-.045,1.044,1.044,0,0,0,.239-.108.631.631,0,0,0,.185-.162.358.358,0,0,0,.077-.225v-1.359a.441.441,0,0,0-.063-.216.479.479,0,0,0-.171-.171.65.65,0,0,0-.207-.131.7.7,0,0,0-.225-.04H65.065a2.9,2.9,0,0,1-.572-.054c-.18-.036-.342-.077-.486-.117a2.39,2.39,0,0,1-.432-.2,2.094,2.094,0,0,1-.347-.27,2.1,2.1,0,0,1-.518-.842,3.14,3.14,0,0,1-.171-1.058v-4.829a3.276,3.276,0,0,1,.045-.54,3.751,3.751,0,0,1,.131-.563,3.336,3.336,0,0,1,.225-.54,5.073,5.073,0,0,1,.311-.5,2.4,2.4,0,0,1,.347-.365,2.47,2.47,0,0,1,.432-.3,2.941,2.941,0,0,1,.509-.176,2.343,2.343,0,0,1,.572-.063H75.547Z" transform="translate(-62.54 -237.568)" fill="#231916"/>
        <path id="Path_435" data-name="Path 435" d="M101.65,246.915v8.538a.488.488,0,0,0,.063.225.917.917,0,0,0,.153.207.928.928,0,0,0,.225.139.547.547,0,0,0,.225.054h2.349a.59.59,0,0,0,.225-.045.524.524,0,0,0,.207-.13.836.836,0,0,0,.149-.185.37.37,0,0,0,.063-.2v-8.578h5.239V258.3H99.531a3.03,3.03,0,0,1-1.292-.284,2.575,2.575,0,0,1-.518-.356,3.634,3.634,0,0,1-.432-.441,3.305,3.305,0,0,1-.356-.531,3.894,3.894,0,0,1-.27-.594,5.732,5.732,0,0,1-.14-.612,3.6,3.6,0,0,1-.054-.612V246.91h5.176Z" transform="translate(-81.199 -242.517)" fill="#231916"/>
        <path id="Path_436" data-name="Path 436" d="M142.491,246.97a2.927,2.927,0,0,1,.617.063,2.96,2.96,0,0,1,.594.194,2.338,2.338,0,0,1,.8.563,2.776,2.776,0,0,1,.455.612,3.255,3.255,0,0,1,.3.81,4.1,4.1,0,0,1,.095.594,6.124,6.124,0,0,1,.032.657v4.42a6.124,6.124,0,0,1-.032.657,4.823,4.823,0,0,1-.095.594,5.236,5.236,0,0,1-.248.648,3.1,3.1,0,0,1-.315.54,2.1,2.1,0,0,1-.387.41,2.749,2.749,0,0,1-.455.3,3.223,3.223,0,0,1-.666.225,3.26,3.26,0,0,1-.689.077h-5.887v4.294h-5.2V246.975h11.081Zm-2.934,2.241h-2.435a.347.347,0,0,0-.207.077,1.1,1.1,0,0,0-.162.162.884.884,0,0,0-.131.225.7.7,0,0,0-.041.225v5.608a.436.436,0,0,0,.054.194.664.664,0,0,0,.14.193.731.731,0,0,0,.194.14.48.48,0,0,0,.216.054h2.394a.4.4,0,0,0,.2-.054c.063-.036.126-.077.185-.117a1.089,1.089,0,0,0,.14-.225.551.551,0,0,0,.054-.23v-5.648a.479.479,0,0,0-.054-.216.847.847,0,0,0-.14-.194.73.73,0,0,0-.194-.139A.479.479,0,0,0,139.556,249.211Z" transform="translate(-100.413 -242.55)" fill="#231916"/>
        <path id="Path_437" data-name="Path 437" d="M177.181,246.97a2.927,2.927,0,0,1,.617.063,2.961,2.961,0,0,1,.594.194,2.338,2.338,0,0,1,.8.563,2.775,2.775,0,0,1,.455.612,3.254,3.254,0,0,1,.3.81,4.809,4.809,0,0,1,.1.594,6.12,6.12,0,0,1,.032.657v4.42a6.12,6.12,0,0,1-.032.657,4.808,4.808,0,0,1-.1.594,5.236,5.236,0,0,1-.248.648,3.4,3.4,0,0,1-.311.54,2.124,2.124,0,0,1-.392.41,2.747,2.747,0,0,1-.455.3,3.224,3.224,0,0,1-.666.225,3.26,3.26,0,0,1-.689.077H171.3v4.294h-5.2V246.975h11.081Zm-2.934,2.241h-2.435a.325.325,0,0,0-.2.077.921.921,0,0,0-.162.162.885.885,0,0,0-.131.225.714.714,0,0,0-.045.225v5.608a.437.437,0,0,0,.054.194.665.665,0,0,0,.14.193.731.731,0,0,0,.194.14.48.48,0,0,0,.216.054h2.394a.4.4,0,0,0,.2-.054c.063-.036.126-.077.185-.117a1.089,1.089,0,0,0,.14-.225.551.551,0,0,0,.054-.23v-5.648a.479.479,0,0,0-.054-.216.73.73,0,0,0-.14-.194.664.664,0,0,0-.194-.139A.479.479,0,0,0,174.246,249.211Z" transform="translate(-119.49 -242.55)" fill="#231916"/>
        <path id="Path_438" data-name="Path 438" d="M211.813,247.02a4.3,4.3,0,0,1,.594.04,2.968,2.968,0,0,1,.549.131,1.848,1.848,0,0,1,.464.225,2.207,2.207,0,0,1,.4.356,2.606,2.606,0,0,1,.315.5,3.084,3.084,0,0,1,.225.68c.027.158.049.329.063.5s.023.378.023.594v5.369a5.54,5.54,0,0,1-.032.635,4.8,4.8,0,0,1-.095.549,3.479,3.479,0,0,1-.216.563,1.752,1.752,0,0,1-.3.432,1.392,1.392,0,0,1-.356.333,2.1,2.1,0,0,1-.419.225,2.738,2.738,0,0,1-.594.153,4.764,4.764,0,0,1-.612.041h-8.862a3.408,3.408,0,0,1-.68-.063,2.3,2.3,0,0,1-.635-.216,2.948,2.948,0,0,1-.455-.3,2.423,2.423,0,0,1-.387-.387,2.689,2.689,0,0,1-.27-.473,2.588,2.588,0,0,1-.185-.581,2.758,2.758,0,0,1-.063-.378c-.013-.135-.022-.284-.022-.441v-5.477c0-.2.009-.387.022-.563s.036-.338.063-.5a4.136,4.136,0,0,1,.216-.666,1.685,1.685,0,0,1,.3-.5,1.972,1.972,0,0,1,.419-.387,2.041,2.041,0,0,1,.464-.234,3.465,3.465,0,0,1,.527-.131,3.548,3.548,0,0,1,.527-.04h9.015Zm-3.151,2.241h-2.844a.227.227,0,0,0-.14.063.462.462,0,0,0-.117.149.813.813,0,0,0-.063.185.9.9,0,0,0-.022.185v5.585a.532.532,0,0,0,.063.248,1.215,1.215,0,0,0,.149.207.629.629,0,0,0,.207.171.45.45,0,0,0,.225.063h2.48a.439.439,0,0,0,.225-.063,1.025,1.025,0,0,0,.2-.149.553.553,0,0,0,.162-.207.531.531,0,0,0,.054-.225v-5.608a.479.479,0,0,0-.054-.216.745.745,0,0,0-.333-.333A.452.452,0,0,0,208.663,249.261Z" transform="translate(-138.275 -242.578)" fill="#231916"/>
        <path id="Path_439" data-name="Path 439" d="M241.291,258.33H236.03V246.97h5.261v1.013a1.55,1.55,0,0,1,.279-.324.921.921,0,0,1,.162-.162,1.121,1.121,0,0,1,.185-.117q.128-.088.257-.162a1.3,1.3,0,0,1,.257-.117c.1-.027.2-.054.293-.077a1.15,1.15,0,0,1,.266-.031h3.128v3.151h-2.759a3.085,3.085,0,0,0-.756.086,2.418,2.418,0,0,0-.626.239,1.07,1.07,0,0,0-.261.162,1.342,1.342,0,0,0-.194.225.75.75,0,0,0-.185.293,1.112,1.112,0,0,0-.054.356v6.832Z" transform="translate(-157.946 -242.55)" fill="#231916"/>
        <path id="Path_440" data-name="Path 440" d="M266.89,241.51v2.457h4.163v2.2H266.89V252.5a.717.717,0,0,0,.032.216.562.562,0,0,0,.1.194.4.4,0,0,0,.194.139.84.84,0,0,0,.324.054h3.794v2.2h-6.9a3.166,3.166,0,0,1-.828-.1,2.615,2.615,0,0,1-.68-.27,3.5,3.5,0,0,1-.4-.324,3.17,3.17,0,0,1-.333-.365,4.774,4.774,0,0,1-.27-.5,2.731,2.731,0,0,1-.184-.54c-.027-.144-.05-.284-.063-.419a4.189,4.189,0,0,1-.023-.419v-6.211H259.41v-2.2h2.2V241.51h5.284Z" transform="translate(-170.803 -239.548)" fill="#231916"/>
        <path id="Path_441" data-name="Path 441" d="M300.082,246.92a4.49,4.49,0,0,1,.734.063,2.455,2.455,0,0,1,.711.239,1.823,1.823,0,0,1,.473.347,2.857,2.857,0,0,1,.387.5c.072.144.135.3.194.45a2.805,2.805,0,0,1,.131.518,7.034,7.034,0,0,1,.045.774v4.033h-8.777v1.229a.875.875,0,0,0,.086.356.954.954,0,0,0,.239.311,1.332,1.332,0,0,0,.324.239.758.758,0,0,0,.347.085h7.264v2.223H291.4a4.239,4.239,0,0,1-.68-.054,1.823,1.823,0,0,1-.612-.207,1.594,1.594,0,0,1-.473-.3,2.135,2.135,0,0,1-.387-.473,1.925,1.925,0,0,1-.216-.464,5.684,5.684,0,0,1-.153-.594,4.467,4.467,0,0,1-.063-.464c-.013-.162-.022-.342-.022-.527v-5.108c0-.171.009-.338.022-.5s.027-.306.045-.45a4.687,4.687,0,0,1,.171-.68,2.7,2.7,0,0,1,.257-.549,1.97,1.97,0,0,1,.4-.473,1.746,1.746,0,0,1,.5-.3,2.72,2.72,0,0,1,.563-.162,3.454,3.454,0,0,1,.6-.054h8.732Zm-2.394,4.721v-1.787a.532.532,0,0,0-.054-.225,1.091,1.091,0,0,0-.14-.225.688.688,0,0,0-.194-.171.4.4,0,0,0-.216-.063h-2.5a.4.4,0,0,0-.207.063,1.124,1.124,0,0,0-.18.148,1.091,1.091,0,0,0-.14.225.531.531,0,0,0-.054.225v1.809Z" transform="translate(-186.96 -242.523)" fill="#231916"/>
        <path id="Path_442" data-name="Path 442" d="M329.341,258.33H324.08V246.97h5.261v1.013a1.551,1.551,0,0,1,.279-.324.791.791,0,0,1,.162-.162,1.1,1.1,0,0,1,.18-.117c.086-.059.171-.112.261-.162a1.222,1.222,0,0,1,.261-.117c.1-.027.2-.054.288-.077a1.16,1.16,0,0,1,.27-.031h3.128v3.151h-2.759a3.11,3.11,0,0,0-.756.086,2.357,2.357,0,0,0-.626.239,1.163,1.163,0,0,0-.261.162,1.34,1.34,0,0,0-.193.225.749.749,0,0,0-.185.293,1.111,1.111,0,0,0-.054.356v6.832Z" transform="translate(-206.367 -242.55)" fill="#231916"/>
        <path id="Path_443" data-name="Path 443" d="M350.53,237.15h5.239v4.033l-2.628,3.344h-2.223l1.53-3.344H350.53Z" transform="translate(-220.912 -237.15)" fill="#231916"/>
        <path id="Path_444" data-name="Path 444" d="M374.832,247.02v2.093h-6.945a.507.507,0,0,0-.162.032,1.333,1.333,0,0,0-.185.077.375.375,0,0,0-.139.108.224.224,0,0,0-.054.148v.626a.178.178,0,0,0,.063.139.7.7,0,0,0,.148.095,1.115,1.115,0,0,0,.185.068.9.9,0,0,0,.185.022h5.108a3.038,3.038,0,0,1,.486.04,3.335,3.335,0,0,1,.464.108,2.358,2.358,0,0,1,.441.216,2.181,2.181,0,0,1,.378.3,1.743,1.743,0,0,1,.27.347,2.017,2.017,0,0,1,.2.432,2.147,2.147,0,0,1,.13.5,4.214,4.214,0,0,1,.045.6v2.651a3.029,3.029,0,0,1-.054.581,2.774,2.774,0,0,1-.162.54,1.818,1.818,0,0,1-.239.441,4.442,4.442,0,0,1-.3.378,3.386,3.386,0,0,1-.41.311,4.238,4.238,0,0,1-.432.248,2.773,2.773,0,0,1-.617.184,3.608,3.608,0,0,1-.617.054H362.617V256.31h7.417a.426.426,0,0,0,.184-.045.512.512,0,0,0,.162-.108.263.263,0,0,0,.13-.131.412.412,0,0,0,.04-.171v-.626a.333.333,0,0,0-.04-.162.278.278,0,0,0-.13-.117.542.542,0,0,0-.171-.094.46.46,0,0,0-.171-.031H364.93a3.609,3.609,0,0,1-.617-.054,2.807,2.807,0,0,1-.612-.185,2.267,2.267,0,0,1-.378-.216,1.317,1.317,0,0,1-.311-.3,1.729,1.729,0,0,1-.225-.333,2.806,2.806,0,0,1-.162-.378,3,3,0,0,1-.063-.369,3.947,3.947,0,0,1-.023-.41v-3.02a2.3,2.3,0,0,1,.063-.549,2.711,2.711,0,0,1,.171-.486,4.36,4.36,0,0,1,.279-.41,1.782,1.782,0,0,1,.347-.342,2.465,2.465,0,0,1,.419-.3,3.086,3.086,0,0,1,.464-.216,4.134,4.134,0,0,1,.626-.171,3.388,3.388,0,0,1,.626-.063h9.294Z" transform="translate(-227.517 -242.578)" fill="#231916"/>
        <path id="Path_445" data-name="Path 445" d="M416.987,237.86v2.5h-6.513v3.668h6.337v2.588h-6.382v6.706H405.06v-15.46h11.923Z" transform="translate(-250.9 -237.54)" fill="#231916"/>
        <path id="Path_446" data-name="Path 446" d="M441.024,241.915v11.4H435.83v-11.4Zm-5.153-4.055h5.108v2.952H435.87Z" transform="translate(-267.821 -237.54)" fill="#231916"/>
        <path id="Path_447" data-name="Path 447" d="M460.961,246.92a4.49,4.49,0,0,1,.734.063,2.455,2.455,0,0,1,.711.239,1.824,1.824,0,0,1,.473.347,2.857,2.857,0,0,1,.387.5c.072.144.135.3.194.45a3.216,3.216,0,0,1,.131.518,7.034,7.034,0,0,1,.045.774v4.033h-8.776v1.229a.808.808,0,0,0,.086.356.846.846,0,0,0,.239.311,1.254,1.254,0,0,0,.324.239.745.745,0,0,0,.347.085h7.264v2.223H452.27a4.239,4.239,0,0,1-.68-.054,1.883,1.883,0,0,1-.617-.207,1.653,1.653,0,0,1-.473-.3,2.135,2.135,0,0,1-.387-.473,1.922,1.922,0,0,1-.216-.464,5.669,5.669,0,0,1-.153-.594,4.451,4.451,0,0,1-.063-.464c-.013-.162-.023-.342-.023-.527v-5.108a4.4,4.4,0,0,1,.023-.5c.013-.158.027-.306.045-.45a4.68,4.68,0,0,1,.171-.68,2.694,2.694,0,0,1,.257-.549,1.968,1.968,0,0,1,.4-.473,1.686,1.686,0,0,1,.5-.3,2.719,2.719,0,0,1,.563-.162,3.415,3.415,0,0,1,.6-.054h8.732Zm-2.394,4.721v-1.787a.531.531,0,0,0-.054-.225,1.089,1.089,0,0,0-.14-.225.688.688,0,0,0-.194-.171.4.4,0,0,0-.216-.063h-2.5a.4.4,0,0,0-.207.063,1.4,1.4,0,0,0-.185.148,1.09,1.09,0,0,0-.14.225.548.548,0,0,0-.054.225v1.809h3.686Z" transform="translate(-275.426 -242.523)" fill="#231916"/>
        <path id="Path_448" data-name="Path 448" d="M490.281,237.86v15.46H485.02V237.86Z" transform="translate(-294.871 -237.54)" fill="#231916"/>
        <path id="Path_449" data-name="Path 449" d="M513.053,237.86v15.46h-11.04a5.526,5.526,0,0,1-.7-.032,1.584,1.584,0,0,1-.378-.085.5.5,0,0,1-.171-.1.46.46,0,0,0-.086-.063,2.273,2.273,0,0,1-.518-.324,2.706,2.706,0,0,1-.41-.41,2.559,2.559,0,0,1-.3-.473,3.478,3.478,0,0,1-.347-1.067,3.053,3.053,0,0,1-.045-.527V245.2a4.729,4.729,0,0,1,.054-.734,3.6,3.6,0,0,1,.162-.648,2.614,2.614,0,0,1,.261-.54,4.092,4.092,0,0,1,.324-.45,2.843,2.843,0,0,1,.464-.378,2.8,2.8,0,0,1,.531-.27,4.42,4.42,0,0,1,.59-.2,1.634,1.634,0,0,1,.347-.054.35.35,0,0,1,.162.023.177.177,0,0,0,.063.022H507.8v-4.1h5.261Zm-5.842,6.319h-2.327a.387.387,0,0,0-.225.077.9.9,0,0,0-.207.185.976.976,0,0,0-.14.239.657.657,0,0,0-.054.257v5.477a.642.642,0,0,0,.054.239.549.549,0,0,0,.162.216.664.664,0,0,0,.2.171.553.553,0,0,0,.248.067h2.286a.383.383,0,0,0,.216-.077,1.371,1.371,0,0,0,.194-.162.976.976,0,0,0,.139-.239.623.623,0,0,0,.054-.239v-5.5a.641.641,0,0,0-.054-.239,1.141,1.141,0,0,0-.139-.239.69.69,0,0,0-.194-.171.4.4,0,0,0-.216-.063Z" transform="translate(-302.592 -237.54)" fill="#231916"/>
      </g>
      <g id="Group_490" data-name="Group 490" transform="translate(217.045)">
        <path id="Path_450" data-name="Path 450" d="M570.71,258.52v10.37l8.984-5.185Z" transform="translate(-559.04 -245.036)" fill="#231916"/>
        <path id="Path_451" data-name="Path 451" d="M555.759,268.89V258.52L546.78,263.7Z" transform="translate(-545.88 -245.036)" fill="#231916"/>
        <path id="Path_452" data-name="Path 452" d="M572.71,248.725l8.984,5.185V243.54Z" transform="translate(-560.139 -236.798)" fill="#231916"/>
        <path id="Path_453" data-name="Path 453" d="M570.71,238.93l8.984-5.185-8.984-5.185Z" transform="translate(-559.04 -228.56)" fill="#231916"/>
        <path id="Path_454" data-name="Path 454" d="M553.764,248.725l-8.984-5.185v10.37Z" transform="translate(-544.78 -236.798)" fill="#231916"/>
        <path id="Path_455" data-name="Path 455" d="M555.759,238.93V228.56l-8.979,5.185Z" transform="translate(-545.88 -228.56)" fill="#231916"/>
      </g>
    </g>
    <g id="Group_493" data-name="Group 493" transform="translate(-0.003 -0.01)">
      <path id="Path_456" data-name="Path 456" d="M263.483,68.474a10.394,10.394,0,0,0-2.718-2.93l4.145-53.924a10.4,10.4,0,0,0-9-11.1,60.8,60.8,0,0,0-7.93-.527h0c-6.873,0-12.562,1.089-16.9,3.236-5.342,2.642-8.543,6.922-9.011,12.049V15.3l-.437,5.054c-10.464.932-18.908,4.712-25.173,11.252-.158-.2-.32-.392-.486-.585C189.913,23.93,179.6,20.18,166.149,20.18c-12.526,0-22.958,3.8-30.268,10.878a.2.2,0,0,0-.027-.032c-6.054-7.093-16.365-10.842-29.822-10.842-9.681,0-18.242,2.309-25.02,6.711A23.083,23.083,0,0,0,77.5,14.69C74,9.059,67.942,5.071,59.49,2.843A66.4,66.4,0,0,0,43,.863C22.7.859,13.015,9.113,8.46,16.031A30.425,30.425,0,0,0,6.255,44.512a36.4,36.4,0,0,0,4.987,8.164,20.83,20.83,0,0,0-4.685,3.209A19.91,19.91,0,0,0,.894,64.819a23.2,23.2,0,0,0,.887,15.249A26.507,26.507,0,0,0,11.525,92.2c6.162,4.1,15.186,6.184,26.834,6.184,9.015,0,16.846-1.445,23.278-4.294A33.308,33.308,0,0,0,72.9,86.193l.171.2c6.369,7.287,15.856,11.463,27.441,12.08.914.05,1.845.077,2.754.077,12.238,0,23-4.564,29.593-12.539.108.131.221.257.329.383,6.369,7.287,15.856,11.463,27.441,12.08.914.05,1.845.077,2.754.077,11.427,0,21.572-3.983,28.229-11,.077.1.149.2.225.3A27.294,27.294,0,0,0,210.81,98.413a44.4,44.4,0,0,0,5.275.347c6.13,0,11.225-1.8,15.186-5.378A24.323,24.323,0,0,0,245.52,97.94c8.218,0,15.514-3.938,19.038-10.275,1.539-2.772,4.519-10.19-1.085-19.209ZM23.731,60.381h0Zm34.2-21.068c-.221,0-.45-.014-.675-.023.23.009.464.023.684.023Zm45.341,48.851c.176,0,.347,0,.522-.009-.23,0-.459.009-.689.009h-.216c.306,0,.608,0,.909,0h.05c-.189,0-.378.009-.572.009Zm6.778-24.943h-.117c.383,0,.77,0,1.152-.014C110.74,63.217,110.393,63.221,110.047,63.221Zm53.879,24.93c-.234,0-.468.009-.707.009H163c.32,0,.639,0,.954,0h-.032Zm6.238-24.93h-.117c.387,0,.77,0,1.152-.014C170.857,63.217,170.51,63.221,170.164,63.221Zm54.959-32.635h0ZM245.48,87.562h-.027c.126,0,.248,0,.369,0C245.709,87.557,245.6,87.562,245.48,87.562Zm2.309-77.17h0Z" transform="translate(0.003 0.01)" fill="#00479d"/>
      <path id="Path_457" data-name="Path 457" d="M265.7,78.87a4.45,4.45,0,0,0-3.785-2.1h-.153l4.487-58.348a4.456,4.456,0,0,0-3.857-4.757,54.307,54.307,0,0,0-7.147-.473h0c-11.959,0-19.434,3.7-20,9.884l-.9,10.356c-.594-.031-1.188-.05-1.787-.05-.932,0-1.859.041-2.754.117-10.644.864-18.813,5.041-24.277,12.418a31.916,31.916,0,0,0-2.835,4.6,17.987,17.987,0,0,0-3.983-8.38c-4.892-5.729-13.642-8.759-25.3-8.759-14.574,0-25.456,5.675-31.168,15.717a17.806,17.806,0,0,0-3.646-6.954c-4.892-5.734-13.642-8.763-25.3-8.763C92.886,33.376,79.7,44.5,77.858,63.185c-2.5-3.916-6.5-8.151-10.824-12.242A16.243,16.243,0,0,0,80.248,42.6a17.425,17.425,0,0,0-.518-17.5C73.56,15.13,57.074,14.054,50.269,14.054c-17.652,0-25.825,6.8-29.575,12.494a24.426,24.426,0,0,0-1.715,22.864c2.214,5.113,6.342,9.708,10.829,13.79-11.616.5-15.024,7.516-15.964,10.6C11.656,80.994,15.2,89.9,22.1,94.519c6.423,4.28,16.338,5.18,23.526,5.18,8.182,0,15.2-1.274,20.875-3.785a25.571,25.571,0,0,0,11.959-10.05A21.115,21.115,0,0,0,80.2,82.218a27.079,27.079,0,0,0,4.613,7.521C90.1,95.793,98.152,99.267,108.1,99.8c.81.045,1.634.068,2.439.068,10.563,0,19.74-3.862,25.182-10.586a22.805,22.805,0,0,0,4.2-8.083,27.406,27.406,0,0,0,5.014,8.547c5.288,6.054,13.34,9.528,23.287,10.059.81.045,1.634.068,2.439.068,10.563,0,19.745-3.862,25.182-10.586a22.926,22.926,0,0,0,3.7-6.558,26.117,26.117,0,0,0,4.289,8.763,21.5,21.5,0,0,0,14.952,8.29,38.649,38.649,0,0,0,4.591.306c5.657,0,9.906-1.881,12.985-5.747a19.027,19.027,0,0,0,1.683-2.52,16.468,16.468,0,0,0,1.116,1.4,18.131,18.131,0,0,0,13.655,6.049c6.063,0,11.369-2.768,13.844-7.224,1.278-2.3,2.858-7.075-.936-13.187ZM31,67.64h0Zm17.72,17.652A1.5,1.5,0,0,1,48,85.4c-2.754,0-4.8-4.424-5.639-11.86a36.716,36.716,0,0,1,4.06,3.745,12.056,12.056,0,0,1,2.5,5.5A3.738,3.738,0,0,1,48.716,85.292Zm.918-50.251c-.032-.041-.063-.077-.095-.113-1.989-2.313-2.354-5.707-1.908-6.5a2.083,2.083,0,0,1,.581-.063c3.142,0,5.522,4.375,6.513,11.549A55.318,55.318,0,0,1,49.634,35.041ZM65.157,46.572c-.207,0-.428-.014-.639-.023.23.009.459.023.684.023Zm45.372,48.851c-.126,0-.257,0-.383,0,.32,0,.639,0,.954,0-.189,0-.378.009-.572.009ZM117.3,70.485h-.108c.387,0,.77,0,1.152-.014-.347.009-.693.014-1.044.014Zm53.352,24.939c-.126,0-.257,0-.387,0,.32,0,.639,0,.954,0-.189,0-.378.009-.572.009Zm6.769-24.939h-.108c.383,0,.77,0,1.152-.014C178.117,70.48,177.771,70.485,177.42,70.485Zm15.258,2.966a16.216,16.216,0,0,0,1.472-1.4A16.216,16.216,0,0,1,192.677,73.451Zm30.682,22.193h0Zm7.989-26.856c.09-1.647.252-3.587.513-5.878Zm1.035-30.934h.18c.063,0,.131,0,.2,0h-.378Zm20.411,56.98h-.081c.122,0,.248,0,.369,0-.095,0-.189.009-.288.009Zm2.25-77.175h0Z" transform="translate(-7.258 -7.249)" fill="#fff"/>
      <g id="Group_492" data-name="Group 492" transform="translate(10.391 10.403)">
        <path id="Path_458" data-name="Path 458" d="M81.389,33.982c5.18,8.1,0,22.558-16.3,18.35-.432-15.433-5.4-21.91-11.441-21.91-7.125,0-6.045,9.281-2.052,13.925C55.591,49.312,75.237,63.773,80.417,73.6c5.828,11.009-.108,28.17-29.359,28.17-6.153,0-15.541-.756-21.046-4.424C19.544,90.327,18.788,70.362,42.966,74.786c.432,13.385,3.668,21.586,10.469,21.586,7.233,0,6.693-9.5,1.836-15.433-5.4-6.261-21.91-15.541-26.766-26.766C23.757,43.164,27.857,25.03,55.7,25.03c9.065,0,21.37,1.944,25.69,8.957Z" transform="translate(-23.084 -24.163)" fill="#231916"/>
        <path id="Path_459" data-name="Path 459" d="M222.369,88.239c-2.052,11.549-19.43,15-33.243,10.361,1.08,5.18,4.748,8.529,11.333,9.5,8.524,1.512,16.837-3.457,19.538-8.421,3.452,16.081-9.929,26.766-27.522,25.794-18.242-.972-27.63-12.413-26.118-30.974,1.3-16.3,12.089-26.55,31.087-26.55,15.973,0,27.2,6.045,24.934,20.289ZM200.783,74.1c.108-2.052-1.08-2.264-2.052-2.16-5.937.432-6.693,6.585-7.66,20.614a16.93,16.93,0,0,0,0,3.344c6.045.432,8.2-2.156,8.741-8.957l.972-12.845Z" transform="translate(-101.786 -47.766)" fill="#231916"/>
        <path id="Path_460" data-name="Path 460" d="M355.939,88.239c-2.052,11.549-19.425,15-33.243,10.361,1.08,5.18,4.748,8.529,11.333,9.5,8.529,1.512,16.837-3.457,19.538-8.421,3.452,16.081-9.929,26.766-27.522,25.794-18.242-.972-27.63-12.413-26.118-30.974,1.292-16.3,12.089-26.55,31.082-26.55,15.973,0,27.2,6.045,24.934,20.289ZM334.353,74.1c.108-2.052-1.08-2.264-2.052-2.16-5.936.432-6.693,6.585-7.665,20.614a16.93,16.93,0,0,0,0,3.344c6.044.432,8.2-2.156,8.741-8.957l.972-12.845Z" transform="translate(-175.239 -47.766)" fill="#231916"/>
        <path id="Path_461" data-name="Path 461" d="M488.287,86.676a7.808,7.808,0,0,0,4.964,0c9.929,15.973-26.982,22.774-23.1-7.449h-1.08c-1.4,21.586-9.281,22.666-18.458,21.586-12.953-1.512-18.674-14.029-16.189-30.974,1.3-8.632,5.721-24.718,27.09-26.442a26.68,26.68,0,0,1,8.2.54l1.3-15c.432-4.748,11.549-6.8,22.126-5.4l-4.856,63.141ZM469.4,48.469c-6.044.324-9.065,6.153-10.469,18.026-1.944,15.757,0,19.965,2.592,20.289,1.94.216,4.532-.756,5.18-7.341l2.7-30.974Z" transform="translate(-248.978 -23.105)" fill="#231916"/>
      </g>
    </g>
  </g>
</svg>
