<svg xmlns="http://www.w3.org/2000/svg" xmlns:xlink="http://www.w3.org/1999/xlink" width="319.352" height="81.988" viewBox="0 0 319.352 81.988">
  <defs>
    <linearGradient id="linear-gradient" x1="-0.381" y1="2.624" x2="-0.381" y2="1.641" gradientUnits="objectBoundingBox">
      <stop offset="0.59" stop-color="#fff" stop-opacity="0"/>
      <stop offset="0.63" stop-color="#fff" stop-opacity="0.031"/>
      <stop offset="0.68" stop-color="#fff" stop-opacity="0.102"/>
      <stop offset="0.74" stop-color="#fff" stop-opacity="0.22"/>
      <stop offset="0.81" stop-color="#fff" stop-opacity="0.388"/>
      <stop offset="0.88" stop-color="#fff" stop-opacity="0.6"/>
      <stop offset="0.96" stop-color="#fff" stop-opacity="0.859"/>
      <stop offset="1" stop-color="#fff"/>
    </linearGradient>
    <linearGradient id="linear-gradient-2" x1="-1.749" y1="2.599" x2="-1.749" y2="1.578" xlink:href="#linear-gradient"/>
  </defs>
  <g id="レイヤー_1" data-name="レイヤー 1" transform="translate(8.803 8.866)">
    <circle id="Ellipse_18" data-name="Ellipse 18" cx="37.416" cy="37.416" r="37.416" transform="matrix(0.101, -0.995, 0.995, 0.101, -8.803, 65.585)" fill="#fff"/>
    <g id="Group_496" data-name="Group 496" transform="translate(87.833 9.268)">
      <g id="Group_494" data-name="Group 494">
        <path id="Path_462" data-name="Path 462" d="M246.383,36.86h6.045c6.138,0,12.723,3.559,12.723,8.774a2.466,2.466,0,0,1-2.438,2.632h-2.829a3.393,3.393,0,0,1-3.216-2.241c-.778-1.656-2.628-2.438-5.066-2.438h-7.166c-2.926,0-4.191,1.024-4.191,2.728,0,5.654,25.781,2.386,25.781,15.113,0,5.848-3.409,9.942-15.109,9.942H243.7c-6.146,0-12.723-3.559-12.723-8.77a2.463,2.463,0,0,1,2.434-2.632h2.825a3.394,3.394,0,0,1,3.22,2.241c.782,1.66,2.632,2.438,5.07,2.438h8.334c2.926,0,4.191-1.024,4.191-2.728,0-5.654-25.785-2.487-25.785-15.109,0-5.848,3.409-9.942,15.109-9.942Z" transform="translate(-230.98 -36.566)" fill="#3f3b3a"/>
        <path id="Path_463" data-name="Path 463" d="M356.69,69.585c0,8.967-5.167,13.549-12.767,13.549a20.707,20.707,0,0,1-6.875-1.217v7.311a1.435,1.435,0,0,1-1.463,1.463h-5.312a1.438,1.438,0,0,1-1.463-1.463v-31.2a1.435,1.435,0,0,1,1.463-1.463h4.582a1.438,1.438,0,0,1,1.463,1.463v.729a13.938,13.938,0,0,1,8.334-2.68C351.572,56.08,356.69,60.662,356.69,69.585Zm-19.643-5.606V76.408a19.114,19.114,0,0,0,5.167.975c4.385,0,6-2.39,6-7.8s-1.608-7.75-5.509-7.75C340.949,61.835,338.752,62.907,337.048,63.979Z" transform="translate(-289.383 -48.04)" fill="#3f3b3a"/>
        <path id="Path_464" data-name="Path 464" d="M433.989,69.585c0,8.967-5.167,13.549-14.379,13.549S405.23,78.552,405.23,69.585s5.167-13.5,14.379-13.5S433.989,60.614,433.989,69.585Zm-8.238,0c0-5.751-1.995-8.092-6.142-8.092s-6.138,2.341-6.138,8.092,2,8.141,6.138,8.141S425.751,75.336,425.751,69.585Z" transform="translate(-335.005 -48.04)" fill="#3f3b3a"/>
        <path id="Path_465" data-name="Path 465" d="M492.325,69.639c0,5.36,1.608,7.75,6.484,7.75,2.483,0,4.288-.927,5.118-2.241a3.168,3.168,0,0,1,2.732-1.757h3.559a1.438,1.438,0,0,1,1.463,1.463c0,5.558-5.07,8.286-13.453,8.286-9.261,0-14.379-4.582-14.379-13.5s5.167-13.549,14.134-13.549c8.387,0,13.457,2.732,13.457,8.286a1.438,1.438,0,0,1-1.463,1.463h-3.559a3.163,3.163,0,0,1-2.728-1.753c-.83-1.318-2.636-2.245-5.122-2.245-4.631,0-6.239,2.386-6.239,7.8Z" transform="translate(-381.94 -48.046)" fill="#3f3b3a"/>
        <path id="Path_466" data-name="Path 466" d="M587.685,69.585c0,8.967-5.167,13.549-14.379,13.549S558.93,78.552,558.93,69.585s5.167-13.5,14.375-13.5S587.685,60.614,587.685,69.585Zm-8.238,0c0-5.751-2-8.092-6.142-8.092s-6.142,2.341-6.142,8.092,2,8.141,6.142,8.141S579.447,75.336,579.447,69.585Z" transform="translate(-426.762 -48.04)" fill="#3f3b3a"/>
        <path id="Path_467" data-name="Path 467" d="M658.61,67.544c0-4.046-1.511-5.7-4.143-5.7-2.047,0-3.559,1.318-5.07,3.409V81.19a1.435,1.435,0,0,1-1.463,1.463h-5.312a1.438,1.438,0,0,1-1.463-1.463V58.037a1.438,1.438,0,0,1,1.463-1.463h5.312a1.435,1.435,0,0,1,1.463,1.463v1.511c1.9-1.85,3.95-3.458,7.359-3.458a9.047,9.047,0,0,1,8.383,4.582c2.732-2.829,5.707-4.582,9.068-4.582,5.948,0,10.091,3.361,10.091,11.454V81.19a1.438,1.438,0,0,1-1.463,1.463H677.52a1.438,1.438,0,0,1-1.463-1.463V67.544c0-4.046-1.511-5.7-4.139-5.7-1.608,0-3.51,1.318-5.219,3.655a14.575,14.575,0,0,1,.149,2.047V81.19a1.438,1.438,0,0,1-1.463,1.463h-5.312a1.435,1.435,0,0,1-1.463-1.463V67.544Z" transform="translate(-475.853 -48.046)" fill="#3f3b3a"/>
        <path id="Path_468" data-name="Path 468" d="M765.418,36.13h2.974a2.728,2.728,0,0,1,2.728,2.728v.83a2.728,2.728,0,0,1-2.728,2.728h-2.974a2.73,2.73,0,0,1-2.728-2.728v-.83A2.728,2.728,0,0,1,765.418,36.13Z" transform="translate(-548.405 -36.13)" fill="#00a1e9"/>
        <path id="Path_469" data-name="Path 469" d="M764.389,84.235a1.434,1.434,0,0,1-1.459-1.463V60.2a1.437,1.437,0,0,1,1.459-1.463H769.7a1.435,1.435,0,0,1,1.463,1.463V82.772a1.438,1.438,0,0,1-1.463,1.463Z" transform="translate(-548.548 -49.628)" fill="#3f3b3a"/>
      </g>
      <g id="Group_495" data-name="Group 495" transform="translate(160.375 40.676)">
        <path id="Path_470" data-name="Path 470" d="M641.224,153.157a11.293,11.293,0,0,1-5.106-4.832,14.423,14.423,0,0,1-7.2,4.679v-1.536a13,13,0,0,0,8.423-8.717h-7.73V141.28h9.664a14.669,14.669,0,0,1-2.116,5.63,10.993,10.993,0,0,0,4.062,4.542Z" transform="translate(-628.92 -139.579)" fill="#231916"/>
        <path id="Path_471" data-name="Path 471" d="M673.113,142.722q-.46,5.459-3.623,7.379v-1.717a5.98,5.98,0,0,0,1.459-2.362,12.036,12.036,0,0,0,.689-3.3h1.471Zm9.08-1.274H676.7v9.386h-1.519v-9.386h-5.433v-1.4h5.433v-2.039H676.7v2.039h3.663a1.563,1.563,0,0,1-.725-.568,1.524,1.524,0,0,1,1.245-2.422,1.555,1.555,0,0,1,1.552,1.535,1.457,1.457,0,0,1-.286.887,1.538,1.538,0,0,1-.746.568h.782v1.4Zm.278,8.649q-3.222-1.928-3.667-7.379h1.5a12.033,12.033,0,0,0,.689,3.3,6.09,6.09,0,0,0,1.475,2.362Zm-.766-11.5a.764.764,0,0,0-.238-.568.8.8,0,0,0-.576-.23.785.785,0,0,0-.8.8.8.8,0,0,0,.23.572.749.749,0,0,0,.568.238.812.812,0,0,0,.814-.81Z" transform="translate(-653.14 -137.06)" fill="#231916"/>
        <path id="Path_472" data-name="Path 472" d="M724.863,152.963H713.99V151.5h9.249v-7.855h-9.221V142.19h10.845v10.768Z" transform="translate(-679.706 -140.123)" fill="#231916"/>
        <path id="Path_473" data-name="Path 473" d="M766.518,152.664a85.037,85.037,0,0,0-11.538-.967V150.15a91.5,91.5,0,0,1,11.538.919v1.6Zm-.645-9.8q-5.12-.49-10.245-.492V140.84q6.275.06,10.245.443Zm-.625,4.542a85.406,85.406,0,0,0-9.249-.613v-1.475q5.549.109,9.249.536Z" transform="translate(-704.176 -139.317)" fill="#231916"/>
      </g>
    </g>
    <g id="Group_498" data-name="Group 498" transform="translate(-5.254 -3.995)">
      <path id="Path_474" data-name="Path 474" d="M84.384,5.513A36.726,36.726,0,0,0,78.27,3.22,62.143,62.143,0,0,0,63.222,15.258c-6.617,7.6-12.058,18.027-11.55,28.449a25.177,25.177,0,0,0,1.419,7.012A63.044,63.044,0,0,1,59.1,46.366c14.936-9.463,31.346-9.749,32.5,5.973.451,6.126-1.193,12.731-4.284,19.131a37.422,37.422,0,0,0,9.136-56.76C81.877,17.281,67.332,23.963,57.672,37.1,62.065,24.233,72.217,13.259,84.38,5.521Zm-2.567,18.6A5.964,5.964,0,1,1,77,31.036a5.966,5.966,0,0,1,4.812-6.924Z" transform="translate(-30.828 -3.22)" fill="#8fc31f"/>
      <path id="Path_475" data-name="Path 475" d="M24.065,53.488c-.512.3-1.012.629-1.515.959a16.418,16.418,0,0,0,4.312,6.384,17.142,17.142,0,0,0,15.786,3.752A18.943,18.943,0,0,1,24.8,63.741a21.131,21.131,0,0,1-6.521-6.13c-.056-.077-.109-.153-.161-.234a32.825,32.825,0,0,1-4.292-9.483,42.7,42.7,0,0,1-.093-19.623,63.569,63.569,0,0,1,7.125-18.4c.322-.552.661-1.092,1-1.64a37.42,37.42,0,0,0,18.3,71.349c4.4-6.319,7.27-13.287,7.4-19.643.258-12.59-11.534-13.654-23.492-6.452Z" transform="translate(-0.002 -6.211)" fill="#00a1e9"/>
      <g id="Group_497" data-name="Group 497" transform="translate(4.294 1.995)">
        <path id="Path_476" data-name="Path 476" d="M93.4,21.538a20.2,20.2,0,0,0-1.576-2.91c-12.977,3.1-25.515,9.676-34.147,21.416C61.755,28.111,70.786,17.806,81.784,10.2a28.385,28.385,0,0,0-6.71-2.031A61.487,61.487,0,0,0,63.222,18.213c-6.617,7.6-12.058,18.027-11.55,28.449a25.177,25.177,0,0,0,1.419,7.012A63.042,63.042,0,0,1,59.1,49.322c11.413-7.23,23.677-9.1,29.351-2.559,6.243-7.5,8.479-16.991,4.941-25.216ZM83.92,38.8a5.961,5.961,0,1,1,4.82-6.916A5.962,5.962,0,0,1,83.92,38.8Z" transform="translate(-35.122 -8.17)" opacity="0.8" fill="url(#linear-gradient)"/>
        <path id="Path_477" data-name="Path 477" d="M12.343,54.051A22.2,22.2,0,0,0,24.586,65.67c-.036-.056-.077-.109-.113-.165a32.825,32.825,0,0,1-4.292-9.483A42.7,42.7,0,0,1,20.089,36.4,63.137,63.137,0,0,1,25.171,21.85C13.254,29.552,7.575,42.96,12.343,54.051Z" transform="translate(-10.657 -16.337)" opacity="0.8" fill="url(#linear-gradient-2)"/>
      </g>
    </g>
  </g>
</svg>
