<svg id="レイヤー_1" data-name="レイヤー 1" xmlns="http://www.w3.org/2000/svg" width="135.174" height="189" viewBox="0 0 135.174 189">
  <g id="Group_462" data-name="Group 462">
    <g id="Group_458" data-name="Group 458" transform="translate(0 35.704)">
      <path id="Path_235" data-name="Path 235" d="M17.145,117.9a1.353,1.353,0,0,0-2.117,1.116v60.675a52.7,52.7,0,0,0,28.92,46.97,2.026,2.026,0,0,1,1.112,1.81v13.035a1.351,1.351,0,0,1-1.834,1.264A67.4,67.4,0,0,1,20.035,227.72,68.231,68.231,0,0,1,0,179.187V90.924a1.352,1.352,0,0,1,2.117-1.116l85.872,58.682a1.353,1.353,0,0,0,2.117-1.116V121.315a1.7,1.7,0,0,1,1.694-1.694h11.644a1.7,1.7,0,0,1,1.694,1.694v54.153a1.353,1.353,0,0,1-2.117,1.116Z" transform="translate(0 -89.567)" fill="#bf9d5a"/>
      <path id="Path_236" data-name="Path 236" d="M90.374,207.639a1.008,1.008,0,0,1-1.654.777,37.479,37.479,0,0,1-13.37-28.7V148.06a1.356,1.356,0,0,1,2.121-1.116l80.793,55.21a1.69,1.69,0,0,0,2.5-.7,52.472,52.472,0,0,0,4.7-21.749V106.316a1.7,1.7,0,0,0-1.694-1.694H137.117a1.7,1.7,0,0,1-1.694-1.694V91.284a1.7,1.7,0,0,1,1.694-1.694h41.676a1.7,1.7,0,0,1,1.694,1.694V179.7a67.437,67.437,0,0,1-8.1,32.1q-.975,1.812-2.073,3.572a68.056,68.056,0,0,1-5.1,7.127,2.028,2.028,0,0,1-2.711.383l-10.994-7.514-59.02-40.329a1.353,1.353,0,0,0-2.117,1.116v31.479Z" transform="translate(-45.314 -89.581)" fill="#bf9d5a"/>
    </g>
    <g id="Group_461" data-name="Group 461" transform="translate(0.004)">
      <g id="Group_459" data-name="Group 459" transform="translate(8.168)">
        <path id="Path_237" data-name="Path 237" d="M27.584,24.667v-8.75L23.8,9.635V24.663H20.5V1.18h3.3V4.014l3.779,6.33V1.18h3.3V24.663h-3.3Z" transform="translate(-20.5 -0.71)" fill="#bf9d5a"/>
        <path id="Path_238" data-name="Path 238" d="M54.86,24.667V1.18h3.3V24.663h-3.3Z" transform="translate(-41.163 -0.71)" fill="#bf9d5a"/>
        <path id="Path_239" data-name="Path 239" d="M74.765,24.338a5.282,5.282,0,0,1-4.205-5.214V15.6h3.3v3.572a1.933,1.933,0,0,0,1.754,1.953,1.9,1.9,0,0,0,2.025-1.885V15.816a.564.564,0,0,0-.144-.375l-6.37-7.2a2.278,2.278,0,0,1-.57-1.507V5.32A5.2,5.2,0,1,1,80.952,5.2V6.671h-3.3V5.26a1.924,1.924,0,0,0-1.591-1.921A1.9,1.9,0,0,0,73.869,5.2v1.24a.564.564,0,0,0,.144.375l6.37,7.2a2.278,2.278,0,0,1,.57,1.507v3.723a5.226,5.226,0,0,1-6.187,5.1Z" transform="translate(-50.605 -0.006)" fill="#bf9d5a"/>
        <path id="Path_240" data-name="Path 240" d="M111.124,24.667V12.6h-3.779V24.667h-3.3V1.18h3.3V9.292h3.779V1.18h3.3V24.663h-3.3Z" transform="translate(-70.739 -0.71)" fill="#bf9d5a"/>
        <path id="Path_241" data-name="Path 241" d="M138.39,24.667V1.18h3.3V24.663h-3.3Z" transform="translate(-91.396 -0.71)" fill="#bf9d5a"/>
        <path id="Path_242" data-name="Path 242" d="M162.064,24.667v-8.75l-3.779-6.282V24.663h-3.3V1.18h3.3V4.014l3.779,6.33V1.18h3.3V24.663h-3.3Z" transform="translate(-101.373 -0.71)" fill="#bf9d5a"/>
        <path id="Path_243" data-name="Path 243" d="M194.534,24.428a5.239,5.239,0,0,1-5.194-5.194V5.194a5.194,5.194,0,1,1,10.388,0v14.04A5.239,5.239,0,0,1,194.534,24.428Zm1.889-19.234a1.889,1.889,0,1,0-3.779,0v14.04a1.889,1.889,0,1,0,3.779,0Z" transform="translate(-122.036)" fill="#bf9d5a"/>
        <path id="Path_244" data-name="Path 244" d="M233.143,24.667V11.476l-3.069,7.65L227,11.476v13.19h-3.3V1.18H227V4.014l3.069,7.745,3.069-7.745V1.18h3.3V24.663h-3.3Z" transform="translate(-142.699 -0.71)" fill="#bf9d5a"/>
        <path id="Path_245" data-name="Path 245" d="M263.97,24.667V1.18h3.3V24.663h-3.3Z" transform="translate(-166.917 -0.71)" fill="#bf9d5a"/>
        <path id="Path_246" data-name="Path 246" d="M286.528,15.335v9.328h-3.3V15.335l-3.544-5.9V1.18h3.3V8.487l1.889,3.165,1.89-3.165V1.18h3.3V9.432l-3.544,5.9Z" transform="translate(-176.364 -0.71)" fill="#bf9d5a"/>
        <path id="Path_247" data-name="Path 247" d="M320.064,23.957V15.2h-3.779v8.762h-3.3V5.194a5.194,5.194,0,0,1,10.388,0V23.953h-3.3Zm0-18.759a1.889,1.889,0,1,0-3.779,0v6.693h3.779v-6.7Z" transform="translate(-196.39)" fill="#bf9d5a"/>
      </g>
      <g id="Group_460" data-name="Group 460" transform="translate(0 0.47)">
        <path id="Path_248" data-name="Path 248" d="M4.873,34.326V31.99H2.442A2.454,2.454,0,0,0,.01,34.422v6.573a2.452,2.452,0,0,0,2.432,2.432,2.454,2.454,0,0,0,2.432-2.432v-.411H3.327v.411a.885.885,0,1,1-1.77,0V34.422a.888.888,0,0,1,.885-.885h.885v.785H4.873Z" transform="translate(-0.01 -19.708)" fill="#bf9d5a"/>
        <path id="Path_249" data-name="Path 249" d="M2.5,6.514H5V4.971H2.5V2.727H5.439V1.18H.95V12.154H2.5Z" transform="translate(-0.575 -1.18)" fill="#bf9d5a"/>
      </g>
    </g>
  </g>
</svg>
