<svg xmlns="http://www.w3.org/2000/svg" xmlns:xlink="http://www.w3.org/1999/xlink" width="523.709" height="394.112" viewBox="0 0 523.709 394.112">
  <defs>
    <clipPath id="clip-path">
      <path id="Path_1556" data-name="Path 1556" d="M53.827,168.16l-2.207,10.4s52.726,26.939,120.2.791L168.98,168.8s-63.246,20.943-115.139-.625Z" transform="translate(-51.62 -168.16)" fill="none" stroke="#8f939f" stroke-width="0.5"/>
    </clipPath>
    <clipPath id="clip-path-2">
      <path id="Path_1672" data-name="Path 1672" d="M261.873,167.9H336.93a46.565,46.565,0,0,1,.056,10.923H261.831a34.617,34.617,0,0,1,.056-10.923Z" transform="translate(-261.434 -167.9)" fill="none" stroke="#8f939f" stroke-width="0.68"/>
    </clipPath>
    <linearGradient id="linear-gradient" x1="-50.823" y1="-32.616" x2="-50.823" y2="-30.057" gradientUnits="objectBoundingBox">
      <stop offset="0" stop-color="#fff"/>
      <stop offset="1"/>
    </linearGradient>
  </defs>
  <g id="レイヤー_1" data-name="レイヤー 1" transform="translate(0.265 0.284)">
    <g id="Group_971" data-name="Group 971" transform="translate(0 0)">
      <g id="Group_968" data-name="Group 968">
        <path id="Path_1494" data-name="Path 1494" d="M132.314,38c-14.129.056-25.218-35-30.506-36.557L.27,37.983,16.009,89.862,62.7,86.823V217.617s72.281,31.755,138.164.6V85.171l43.913,4.677,17.973-52.407L161,1.718S149.315,37.941,132.314,38Z" transform="translate(-0.27 0.17)" fill="#fff"/>
        <path id="Path_1495" data-name="Path 1495" d="M132.314,38c-9.3.028-17.265-15.1-23.136-25.926-3.067-5.635-5.552-10.09-7.37-10.631L.27,37.983,16.009,89.862,62.7,86.823V217.617s72.281,31.755,138.164.6V85.171l43.913,4.677,17.973-52.407L161,1.718S149.315,37.941,132.314,38Z" transform="translate(-0.27 0.17)" fill="none" stroke="#8f939f" stroke-width="0.43"/>
        <g id="Group_936" data-name="Group 936" transform="translate(41.678 233.623)">
          <path id="Path_1496" data-name="Path 1496" d="M62.194,168.61s53.323,20.416,115.042,0l31.921,135.6-6.731,5.829s-14.684,27.688-68.007,15.072l-14.7-50.061-13.213,48.146c-.611.25-53.628,12.338-69.075-14.129L30.3,302.749,62.194,168.61Z" transform="translate(-30.3 -168.61)" fill="#fff"/>
          <g id="Group_935" data-name="Group 935">
            <line id="Line_157" data-name="Line 157" y2="86.41" transform="translate(89.352 21.124)" fill="none" stroke="#8f939f" stroke-width="0.46"/>
            <path id="Path_1497" data-name="Path 1497" d="M62.194,168.61s53.323,20.416,115.042,0l31.921,135.6-6.731,5.829s-14.684,27.688-68.007,15.072l-14.7-50.061-13.213,48.146c-.611.25-53.628,12.338-69.075-14.129L30.3,302.749,62.194,168.61Z" transform="translate(-30.3 -168.61)" fill="#fff" stroke="#898989" stroke-width="0.72"/>
          </g>
        </g>
        <g id="Group_939" data-name="Group 939" transform="translate(71.268 232.998)">
          <g id="Group_938" data-name="Group 938" clip-path="url(#clip-path)">
            <g id="Group_937" data-name="Group 937" transform="translate(-3.026 -0.791)">
              <path id="Path_1498" data-name="Path 1498" d="M139.947,191.934,137.49,167.59" transform="translate(-15.286 -167.59)" fill="none" stroke="#8f939f" stroke-linecap="round" stroke-linejoin="round" stroke-width="0.22"/>
              <path id="Path_1499" data-name="Path 1499" d="M138.353,191.934,135.98,167.59" transform="translate(-15.872 -167.59)" fill="none" stroke="#8f939f" stroke-linecap="round" stroke-linejoin="round" stroke-width="0.22"/>
              <path id="Path_1500" data-name="Path 1500" d="M136.758,191.934,134.44,167.59" transform="translate(-16.469 -167.59)" fill="none" stroke="#8f939f" stroke-linecap="round" stroke-linejoin="round" stroke-width="0.22"/>
              <path id="Path_1501" data-name="Path 1501" d="M135.164,191.934,132.93,167.59" transform="translate(-17.055 -167.59)" fill="none" stroke="#8f939f" stroke-linecap="round" stroke-linejoin="round" stroke-width="0.22"/>
              <path id="Path_1502" data-name="Path 1502" d="M133.565,191.934,131.4,167.59" transform="translate(-17.649 -167.59)" fill="none" stroke="#8f939f" stroke-linecap="round" stroke-linejoin="round" stroke-width="0.22"/>
              <path id="Path_1503" data-name="Path 1503" d="M131.972,191.934,129.89,167.59" transform="translate(-18.234 -167.59)" fill="none" stroke="#8f939f" stroke-linecap="round" stroke-linejoin="round" stroke-width="0.22"/>
              <path id="Path_1504" data-name="Path 1504" d="M130.369,191.934l-2-24.344" transform="translate(-18.824 -167.59)" fill="none" stroke="#8f939f" stroke-linecap="round" stroke-linejoin="round" stroke-width="0.22"/>
              <path id="Path_1505" data-name="Path 1505" d="M128.769,191.934,126.84,167.59" transform="translate(-19.417 -167.59)" fill="none" stroke="#8f939f" stroke-linecap="round" stroke-linejoin="round" stroke-width="0.22"/>
              <path id="Path_1506" data-name="Path 1506" d="M127.184,191.934,125.31,167.59" transform="translate(-20.011 -167.59)" fill="none" stroke="#8f939f" stroke-linecap="round" stroke-linejoin="round" stroke-width="0.22"/>
              <path id="Path_1507" data-name="Path 1507" d="M125.576,191.934,123.8,167.59" transform="translate(-20.597 -167.59)" fill="none" stroke="#8f939f" stroke-linecap="round" stroke-linejoin="round" stroke-width="0.22"/>
              <path id="Path_1508" data-name="Path 1508" d="M123.987,191.934,122.28,167.59" transform="translate(-21.186 -167.59)" fill="none" stroke="#8f939f" stroke-linecap="round" stroke-linejoin="round" stroke-width="0.22"/>
              <path id="Path_1509" data-name="Path 1509" d="M122.388,191.934,120.75,167.59" transform="translate(-21.78 -167.59)" fill="none" stroke="#8f939f" stroke-linecap="round" stroke-linejoin="round" stroke-width="0.22"/>
              <path id="Path_1510" data-name="Path 1510" d="M120.784,191.934,119.23,167.59" transform="translate(-22.369 -167.59)" fill="none" stroke="#8f939f" stroke-linecap="round" stroke-linejoin="round" stroke-width="0.22"/>
              <path id="Path_1511" data-name="Path 1511" d="M119.2,191.934,117.71,167.59" transform="translate(-22.959 -167.59)" fill="none" stroke="#8f939f" stroke-linecap="round" stroke-linejoin="round" stroke-width="0.22"/>
              <path id="Path_1512" data-name="Path 1512" d="M117.592,191.934l-1.4-24.344" transform="translate(-23.548 -167.59)" fill="none" stroke="#8f939f" stroke-linecap="round" stroke-linejoin="round" stroke-width="0.22"/>
              <path id="Path_1513" data-name="Path 1513" d="M116,191.934,114.67,167.59" transform="translate(-24.138 -167.59)" fill="none" stroke="#8f939f" stroke-linecap="round" stroke-linejoin="round" stroke-width="0.22"/>
              <path id="Path_1514" data-name="Path 1514" d="M114.4,191.934,113.15,167.59" transform="translate(-24.728 -167.59)" fill="none" stroke="#8f939f" stroke-linecap="round" stroke-linejoin="round" stroke-width="0.22"/>
              <path id="Path_1515" data-name="Path 1515" d="M112.8,191.934l-1.18-24.344" transform="translate(-25.321 -167.59)" fill="none" stroke="#8f939f" stroke-linecap="round" stroke-linejoin="round" stroke-width="0.22"/>
              <path id="Path_1516" data-name="Path 1516" d="M111.206,191.934l-1.1-24.344" transform="translate(-25.907 -167.59)" fill="none" stroke="#8f939f" stroke-linecap="round" stroke-linejoin="round" stroke-width="0.22"/>
              <path id="Path_1517" data-name="Path 1517" d="M109.6,191.934,108.59,167.59" transform="translate(-26.496 -167.59)" fill="none" stroke="#8f939f" stroke-linecap="round" stroke-linejoin="round" stroke-width="0.22"/>
              <path id="Path_1518" data-name="Path 1518" d="M108.014,191.934l-.944-24.344" transform="translate(-27.086 -167.59)" fill="none" stroke="#8f939f" stroke-linecap="round" stroke-linejoin="round" stroke-width="0.22"/>
              <path id="Path_1519" data-name="Path 1519" d="M106.414,191.934l-.874-24.344" transform="translate(-27.679 -167.59)" fill="none" stroke="#8f939f" stroke-linecap="round" stroke-linejoin="round" stroke-width="0.22"/>
              <path id="Path_1520" data-name="Path 1520" d="M104.807,191.934l-.777-24.344" transform="translate(-28.265 -167.59)" fill="none" stroke="#8f939f" stroke-linecap="round" stroke-linejoin="round" stroke-width="0.22"/>
              <path id="Path_1521" data-name="Path 1521" d="M103.222,191.934,102.5,167.59" transform="translate(-28.859 -167.59)" fill="none" stroke="#8f939f" stroke-linecap="round" stroke-linejoin="round" stroke-width="0.22"/>
              <path id="Path_1522" data-name="Path 1522" d="M101.618,191.934l-.638-24.344" transform="translate(-29.448 -167.59)" fill="none" stroke="#8f939f" stroke-linecap="round" stroke-linejoin="round" stroke-width="0.22"/>
              <path id="Path_1523" data-name="Path 1523" d="M100.029,191.934,99.46,167.59" transform="translate(-30.038 -167.59)" fill="none" stroke="#8f939f" stroke-linecap="round" stroke-linejoin="round" stroke-width="0.22"/>
              <path id="Path_1524" data-name="Path 1524" d="M98.44,191.934l-.5-24.344" transform="translate(-30.627 -167.59)" fill="none" stroke="#8f939f" stroke-linecap="round" stroke-linejoin="round" stroke-width="0.22"/>
              <path id="Path_1525" data-name="Path 1525" d="M96.84,191.934l-.43-24.344" transform="translate(-31.221 -167.59)" fill="none" stroke="#8f939f" stroke-linecap="round" stroke-linejoin="round" stroke-width="0.22"/>
              <path id="Path_1526" data-name="Path 1526" d="M95.251,191.934,94.89,167.59" transform="translate(-31.81 -167.59)" fill="none" stroke="#8f939f" stroke-linecap="round" stroke-linejoin="round" stroke-width="0.22"/>
              <path id="Path_1527" data-name="Path 1527" d="M93.648,191.934,93.37,167.59" transform="translate(-32.4 -167.59)" fill="none" stroke="#8f939f" stroke-linecap="round" stroke-linejoin="round" stroke-width="0.22"/>
              <path id="Path_1528" data-name="Path 1528" d="M92.044,191.934,91.85,167.59" transform="translate(-32.99 -167.59)" fill="none" stroke="#8f939f" stroke-linecap="round" stroke-linejoin="round" stroke-width="0.22"/>
              <path id="Path_1529" data-name="Path 1529" d="M90.441,191.934,90.33,167.59" transform="translate(-33.579 -167.59)" fill="none" stroke="#8f939f" stroke-linecap="round" stroke-linejoin="round" stroke-width="0.22"/>
              <path id="Path_1530" data-name="Path 1530" d="M88.842,191.934,88.8,167.59" transform="translate(-34.173 -167.59)" fill="none" stroke="#8f939f" stroke-linecap="round" stroke-linejoin="round" stroke-width="0.22"/>
              <path id="Path_1531" data-name="Path 1531" d="M87.26,191.934l.028-24.344" transform="translate(-34.77 -167.59)" fill="none" stroke="#8f939f" stroke-linecap="round" stroke-linejoin="round" stroke-width="0.22"/>
              <path id="Path_1532" data-name="Path 1532" d="M85.69,191.934l.1-24.344" transform="translate(-35.379 -167.59)" fill="none" stroke="#8f939f" stroke-linecap="round" stroke-linejoin="round" stroke-width="0.22"/>
              <path id="Path_1533" data-name="Path 1533" d="M84.11,191.934,84.3,167.59" transform="translate(-35.992 -167.59)" fill="none" stroke="#8f939f" stroke-linecap="round" stroke-linejoin="round" stroke-width="0.22"/>
              <path id="Path_1534" data-name="Path 1534" d="M82.54,191.934l.25-24.344" transform="translate(-36.601 -167.59)" fill="none" stroke="#8f939f" stroke-linecap="round" stroke-linejoin="round" stroke-width="0.22"/>
              <path id="Path_1535" data-name="Path 1535" d="M80.95,191.934,81.3,167.59" transform="translate(-37.218 -167.59)" fill="none" stroke="#8f939f" stroke-linecap="round" stroke-linejoin="round" stroke-width="0.22"/>
              <path id="Path_1536" data-name="Path 1536" d="M79.38,191.934l.4-24.344" transform="translate(-37.827 -167.59)" fill="none" stroke="#8f939f" stroke-linecap="round" stroke-linejoin="round" stroke-width="0.22"/>
              <path id="Path_1537" data-name="Path 1537" d="M77.8,191.934l.486-24.344" transform="translate(-38.439 -167.59)" fill="none" stroke="#8f939f" stroke-linecap="round" stroke-linejoin="round" stroke-width="0.22"/>
              <path id="Path_1538" data-name="Path 1538" d="M76.23,191.934,76.8,167.59" transform="translate(-39.048 -167.59)" fill="none" stroke="#8f939f" stroke-linecap="round" stroke-linejoin="round" stroke-width="0.22"/>
              <path id="Path_1539" data-name="Path 1539" d="M74.65,191.934l.638-24.344" transform="translate(-39.661 -167.59)" fill="none" stroke="#8f939f" stroke-linecap="round" stroke-linejoin="round" stroke-width="0.22"/>
              <path id="Path_1540" data-name="Path 1540" d="M73.07,191.934l.722-24.344" transform="translate(-40.274 -167.59)" fill="none" stroke="#8f939f" stroke-linecap="round" stroke-linejoin="round" stroke-width="0.22"/>
              <path id="Path_1541" data-name="Path 1541" d="M71.5,191.934l.791-24.344" transform="translate(-40.883 -167.59)" fill="none" stroke="#8f939f" stroke-linecap="round" stroke-linejoin="round" stroke-width="0.22"/>
              <path id="Path_1542" data-name="Path 1542" d="M69.92,191.934l.86-24.344" transform="translate(-41.496 -167.59)" fill="none" stroke="#8f939f" stroke-linecap="round" stroke-linejoin="round" stroke-width="0.22"/>
              <path id="Path_1543" data-name="Path 1543" d="M68.35,191.934l.944-24.344" transform="translate(-42.105 -167.59)" fill="none" stroke="#8f939f" stroke-linecap="round" stroke-linejoin="round" stroke-width="0.22"/>
              <path id="Path_1544" data-name="Path 1544" d="M66.77,191.934l1.013-24.344" transform="translate(-42.718 -167.59)" fill="none" stroke="#8f939f" stroke-linecap="round" stroke-linejoin="round" stroke-width="0.22"/>
              <path id="Path_1545" data-name="Path 1545" d="M65.19,191.934l1.1-24.344" transform="translate(-43.331 -167.59)" fill="none" stroke="#8f939f" stroke-linecap="round" stroke-linejoin="round" stroke-width="0.22"/>
              <path id="Path_1546" data-name="Path 1546" d="M63.62,191.934l1.166-24.344" transform="translate(-43.94 -167.59)" fill="none" stroke="#8f939f" stroke-linecap="round" stroke-linejoin="round" stroke-width="0.22"/>
              <path id="Path_1547" data-name="Path 1547" d="M62.04,191.934l1.249-24.344" transform="translate(-44.553 -167.59)" fill="none" stroke="#8f939f" stroke-linecap="round" stroke-linejoin="round" stroke-width="0.22"/>
              <path id="Path_1548" data-name="Path 1548" d="M60.48,191.934l1.3-24.344" transform="translate(-45.158 -167.59)" fill="none" stroke="#8f939f" stroke-linecap="round" stroke-linejoin="round" stroke-width="0.22"/>
              <path id="Path_1549" data-name="Path 1549" d="M58.9,191.934l1.388-24.344" transform="translate(-45.771 -167.59)" fill="none" stroke="#8f939f" stroke-linecap="round" stroke-linejoin="round" stroke-width="0.22"/>
              <path id="Path_1550" data-name="Path 1550" d="M57.32,191.934l1.471-24.344" transform="translate(-46.383 -167.59)" fill="none" stroke="#8f939f" stroke-linecap="round" stroke-linejoin="round" stroke-width="0.22"/>
              <path id="Path_1551" data-name="Path 1551" d="M55.74,191.934l1.554-24.344" transform="translate(-46.996 -167.59)" fill="none" stroke="#8f939f" stroke-linecap="round" stroke-linejoin="round" stroke-width="0.22"/>
              <path id="Path_1552" data-name="Path 1552" d="M54.16,191.934l1.624-24.344" transform="translate(-47.609 -167.59)" fill="none" stroke="#8f939f" stroke-linecap="round" stroke-linejoin="round" stroke-width="0.22"/>
              <path id="Path_1553" data-name="Path 1553" d="M52.59,191.934l1.693-24.344" transform="translate(-48.218 -167.59)" fill="none" stroke="#8f939f" stroke-linecap="round" stroke-linejoin="round" stroke-width="0.22"/>
              <path id="Path_1554" data-name="Path 1554" d="M51.01,191.934l1.776-24.344" transform="translate(-48.831 -167.59)" fill="none" stroke="#8f939f" stroke-linecap="round" stroke-linejoin="round" stroke-width="0.22"/>
              <path id="Path_1555" data-name="Path 1555" d="M49.44,191.934l1.846-24.344" transform="translate(-49.44 -167.59)" fill="none" stroke="#8f939f" stroke-linecap="round" stroke-linejoin="round" stroke-width="0.22"/>
            </g>
          </g>
          <path id="Path_1557" data-name="Path 1557" d="M53.827,168.16l-2.207,10.4s52.726,26.939,120.2.791L168.98,168.8s-63.246,20.943-115.139-.625Z" transform="translate(-51.62 -168.16)" fill="none" stroke="#8f939f" stroke-width="0.5"/>
        </g>
        <path id="Path_1558" data-name="Path 1558" d="M183.44,73.86H45.234L45.22,84.713H183.44Z" transform="translate(17.166 28.261)" fill="none"/>
        <g id="Group_941" data-name="Group 941" transform="translate(89.352 42.74)">
          <path id="Path_1559" data-name="Path 1559" d="M77.656,33.233c0-1.083-.486-2-1.443-2.1a10.53,10.53,0,0,0-1.624-.056h-.4c-.291,0-.444.139-.444.416a1.518,1.518,0,0,0,.042.486c.056.153.194.222.4.222h1.1c.68,0,1.083.069,1.1.68H73.618c0-1.166-1.055-1.763-3.095-1.763H68.468a4.955,4.955,0,0,0-1.929.278,1.525,1.525,0,0,0-1,1.527v5.427c0,.333.153.486.472.486a1.5,1.5,0,0,0,.555-.042c.18-.056.264-.208.264-.444V37.119h2.748c.042,1.124,1.069,1.679,3.081,1.679H74.7a4.66,4.66,0,0,0,1.929-.278,1.5,1.5,0,0,0,1.013-1.513V33.219Zm-10.826-.278q0-.708,1.707-.708h2a6.254,6.254,0,0,1,1.069.056c.444.083.68.278.708.569-1.818,0-2.734.625-2.734,1.846v1.291H66.831V32.956Zm5.482,1.013v1.3c0,.486-.486.736-1.443.749v-1.3c0-.486.486-.736,1.443-.736Zm4.053,3.026c0,.472-.555.694-1.707.694h-2a6.149,6.149,0,0,1-1.069-.056c-.416-.083-.652-.264-.694-.514,1.818,0,2.734-.638,2.734-1.874V33.969h2.748v3.026Z" transform="translate(-64.305 -31.075)" fill="#231916"/>
          <g id="Group_940" data-name="Group 940" transform="translate(0 8.39)">
            <path id="Path_1560" data-name="Path 1560" d="M65.649,37.13h-1v1.86h.472v-.666h.514a.623.623,0,0,0,.708-.6c0-.375-.264-.6-.68-.6Zm-.527.333h.347c.278,0,.389.069.389.25,0,.083,0,.264-.333.264h-.416v-.514Z" transform="translate(-64.65 -37.116)" fill="#231916"/>
            <path id="Path_1561" data-name="Path 1561" d="M66.08,37.47v1.388h.458V37.47H66.08Z" transform="translate(-64.095 -36.984)" fill="#231916"/>
            <path id="Path_1562" data-name="Path 1562" d="M66.08,37.12v.347h.458V37.12H66.08Z" transform="translate(-64.095 -37.12)" fill="#231916"/>
            <path id="Path_1563" data-name="Path 1563" d="M68.18,37.47h-.527s-.236.361-.264.389c-.014-.028-.264-.389-.264-.389H66.57s.527.666.541.68l-.541.708H67.1s.25-.375.278-.389c.014.028.278.389.278.389h.541s-.541-.694-.541-.708.527-.68.527-.68Z" transform="translate(-63.905 -36.984)" fill="#231916"/>
            <path id="Path_1564" data-name="Path 1564" d="M68.663,37.45a.742.742,0,0,0-.833.722.752.752,0,0,0,.833.736.744.744,0,0,0,.833-.736A.734.734,0,0,0,68.663,37.45Zm0,1.124c-.319,0-.375-.208-.375-.4s.056-.4.375-.4.375.222.375.4A.354.354,0,0,1,68.663,38.574Z" transform="translate(-63.417 -36.992)" fill="#231916"/>
            <path id="Path_1565" data-name="Path 1565" d="M70.438,37.13h-.527l-.791,1.86h.5s.153-.361.153-.375h.791l.139.375h.527l-.777-1.86h0Zm-.014,1.138h-.514s.25-.638.264-.68C70.175,37.63,70.425,38.254,70.425,38.268Z" transform="translate(-62.916 -37.116)" fill="#231916"/>
            <path id="Path_1566" data-name="Path 1566" d="M70.81,37.13v1.86h.444V37.13H70.81Z" transform="translate(-62.261 -37.116)" fill="#231916"/>
            <path id="Path_1567" data-name="Path 1567" d="M72.1,37.45a.7.7,0,0,0-.791.708c0,.5.278.763.819.763a.741.741,0,0,0,.722-.444h-.458a.262.262,0,0,1-.25.153.326.326,0,0,1-.375-.305h1.11v-.069a.7.7,0,0,0-.763-.763Zm-.319.583a.309.309,0,0,1,.611,0h-.625Z" transform="translate(-62.067 -36.992)" fill="#231916"/>
            <path id="Path_1568" data-name="Path 1568" d="M72.63,37.47v1.388h.444V37.47H72.63Z" transform="translate(-61.555 -36.984)" fill="#231916"/>
            <path id="Path_1569" data-name="Path 1569" d="M72.63,37.12v.347h.444V37.12H72.63Z" transform="translate(-61.555 -37.12)" fill="#231916"/>
            <path id="Path_1570" data-name="Path 1570" d="M73.65,37.7v-.208h-.43V38.88h.444v-.722c0-.208.125-.319.375-.319h.111V37.45h-.083a.492.492,0,0,0-.444.236Z" transform="translate(-61.326 -36.992)" fill="#231916"/>
            <path id="Path_1571" data-name="Path 1571" d="M74.807,37.45a.737.737,0,1,0,0,1.457.735.735,0,1,0,0-1.457Zm0,1.124c-.305,0-.375-.208-.375-.4s.069-.4.375-.4a.4.4,0,0,1,0,.8Z" transform="translate(-61.039 -36.992)" fill="#231916"/>
          </g>
        </g>
        <g id="Group_942" data-name="Group 942" transform="translate(41.664 233.609)">
          <path id="Path_1572" data-name="Path 1572" d="M191.715,312.093c5.663-5.732,9.34-10.714,15.322-14.781L176.739,168.6c-61.719,20.416-115.042,0-115.042,0L31.58,295.245c5.815,4.719,11.325,12.56,17.932,16.044,5.26,2.776,24.316,14.267,58.652,4.108l11.075-40.36L131.98,318.45c34.614,10.354,54.5-1.055,59.749-6.37Z" transform="translate(-29.79 -168.6)" fill="none"/>
          <path id="Path_1573" data-name="Path 1573" d="M50,275.9c-6.606-3.47-12.1-11.325-17.932-16.044l-1.776,7.495,7.134,6.315c15.447,26.467,68.465,14.378,69.075,14.129l2.137-7.786c-34.322,10.159-53.392-1.332-58.652-4.108Z" transform="translate(-30.29 -133.202)" fill="#870020"/>
          <path id="Path_1574" data-name="Path 1574" d="M163.659,276.121c-5.26,5.316-25.135,16.724-59.749,6.37l1.957,6.648c53.337,12.63,68.007-15.072,68.007-15.072l6.731-5.829-1.624-6.9c-5.968,4.066-9.66,9.035-15.322,14.781Z" transform="translate(-1.734 -132.628)" fill="#870020"/>
        </g>
        <g id="Group_943" data-name="Group 943" transform="translate(43.122 243.782)">
          <path id="Path_1575" data-name="Path 1575" d="M51.33,175.93s54.891,25.384,120.4.6" transform="translate(-23.586 -175.93)" fill="none" stroke="#8f939f" stroke-width="0.46"/>
          <path id="Path_1576" data-name="Path 1576" d="M179.6,262.53l-5.593,4s-21.165,33.545-69.88,16.766" transform="translate(-3.106 -142.339)" fill="none" stroke="#8f939f" stroke-width="0.33" stroke-dasharray="0 1.05"/>
          <path id="Path_1577" data-name="Path 1577" d="M31.34,261.09l7.189,6.8s19.958,27.952,69.478,12.769" transform="translate(-31.34 -142.898)" fill="none" stroke="#8f939f" stroke-width="0.33" stroke-dasharray="0 1.05"/>
        </g>
        <g id="Group_949" data-name="Group 949" transform="translate(158.025 34.433)">
          <path id="Path_1578" data-name="Path 1578" d="M123.665,25.16a15.6,15.6,0,0,0-8.008,2.373.944.944,0,0,0-.375.541,26.252,26.252,0,0,0-1.083,7.217,18.983,18.983,0,0,0,2.568,9.729,19.69,19.69,0,0,0,6.509,6.7.756.756,0,0,0,.833,0,19.96,19.96,0,0,0,6.509-6.7,19.12,19.12,0,0,0,2.568-9.729,26.252,26.252,0,0,0-1.083-7.217.966.966,0,0,0-.389-.541,15.551,15.551,0,0,0-8.008-2.373h-.056Z" transform="translate(-114.103 -25.063)" fill="#9e0029"/>
          <g id="Group_944" data-name="Group 944">
            <path id="Path_1579" data-name="Path 1579" d="M123.665,25.16a15.6,15.6,0,0,0-8.008,2.373.944.944,0,0,0-.375.541,26.252,26.252,0,0,0-1.083,7.217,18.983,18.983,0,0,0,2.568,9.729,19.69,19.69,0,0,0,6.509,6.7.756.756,0,0,0,.833,0,19.96,19.96,0,0,0,6.509-6.7,19.12,19.12,0,0,0,2.568-9.729,26.252,26.252,0,0,0-1.083-7.217.966.966,0,0,0-.389-.541,15.551,15.551,0,0,0-8.008-2.373h-.056Z" transform="translate(-114.103 -25.063)" fill="#9e0029"/>
            <path id="Path_1580" data-name="Path 1580" d="M123.679,25.09a15.774,15.774,0,0,0-8.05,2.387,1.094,1.094,0,0,0-.416.6,26.441,26.441,0,0,0-1.083,7.245,19.009,19.009,0,0,0,2.581,9.771,20.06,20.06,0,0,0,6.537,6.745.866.866,0,0,0,.93,0,20.06,20.06,0,0,0,6.537-6.745,19.145,19.145,0,0,0,2.581-9.771,26.441,26.441,0,0,0-1.083-7.245,1.094,1.094,0,0,0-.416-.6,15.666,15.666,0,0,0-8.05-2.387h-.056Zm-.333,26.578a19.92,19.92,0,0,1-6.481-6.676,18.946,18.946,0,0,1-2.54-9.687,26.731,26.731,0,0,1,1.069-7.2.836.836,0,0,1,.347-.486,15.655,15.655,0,0,1,7.953-2.346h.042a15.529,15.529,0,0,1,7.966,2.346.882.882,0,0,1,.347.486,26.692,26.692,0,0,1,1.083,7.2,18.957,18.957,0,0,1-2.554,9.687,19.792,19.792,0,0,1-6.481,6.676A.727.727,0,0,1,123.346,51.668Z" transform="translate(-114.13 -25.09)" fill="#d0a642"/>
          </g>
          <path id="Path_1581" data-name="Path 1581" d="M115.861,28.091a25.121,25.121,0,0,0-1.041,6.926,17.922,17.922,0,0,0,2.415,9.188,19.134,19.134,0,0,0,6.2,6.4,19.134,19.134,0,0,0,6.2-6.4,17.958,17.958,0,0,0,2.415-9.188,25.2,25.2,0,0,0-1.041-6.926,14.064,14.064,0,0,0-15.17,0Z" transform="translate(-113.862 -24.787)" fill="#e01d15"/>
          <path id="Path_1582" data-name="Path 1582" d="M128.526,27.7a14.306,14.306,0,0,0-7.481-2.193c-.028,0-.028.486-.056.486,0,0,.028,24.718.069,24.732a19.134,19.134,0,0,0,6.2-6.4,17.958,17.958,0,0,0,2.415-9.188A29.072,29.072,0,0,0,128.526,27.7Z" transform="translate(-111.469 -24.927)" fill="#9e0029"/>
          <path id="Path_1583" data-name="Path 1583" d="M131.027,27.664a12.675,12.675,0,0,0-1.235-.694c.847,2.554,3.622,13.351-6.343,23.205-9.965-9.854-7.2-20.666-6.343-23.205a9.93,9.93,0,0,0-1.235.694,25.12,25.12,0,0,0-1.041,6.926,17.922,17.922,0,0,0,2.415,9.188,19.134,19.134,0,0,0,6.2,6.4,19.134,19.134,0,0,0,6.2-6.4,17.958,17.958,0,0,0,2.415-9.188A25.2,25.2,0,0,0,131.027,27.664Z" transform="translate(-113.858 -24.361)" fill="#fff"/>
          <path id="Path_1584" data-name="Path 1584" d="M127.737,41.294c-.028-.18-.194-.389-.208-.5a5.879,5.879,0,0,1,.083-.583c0-.167-.069-.347-.069-.541.014-.278.111-.416,0-.694-.083-.194-.305-.305-.361-.458a4.374,4.374,0,0,1,0-1.277,3.484,3.484,0,0,1,.028-.763c-.18-.083-.236-.25-.555-.375-.375-.153-.625.111-.985.125-.486.028-.444-.291-.888-.555-.291-.167-.68-.056-.985-.222-.25-.153-.264-.389-.5-.555-.305-.222-.4-.028-.736-.042a.84.84,0,0,1-.833-1.027c.056-.486.167-.18.416-.416.167-.167.18-.43.4-.555.347-.208.666.069,1-.014.444-.111.319-.25.4-.68a3.747,3.747,0,0,0-.125-1.79c-.083-.264-.111-.652-.208-.9a1.275,1.275,0,0,0-.68-.611c-.125-.042-1.374-.4-1.693-.569-.056-.028-.083-.056-.069-.069-.125.153-.291.194-.416.305s-.18.333-.375.416c-.375.18-.874-.194-1.235,0-.18.1-.208.305-.4.375a1.368,1.368,0,0,1-.777-.139c-.333-.111-.93-.4-1.221-.139-.25.222.083.86.014,1.18-.083.389-.4.749-.347,1.221a3.812,3.812,0,0,0,.638,1.221c.389.5.6.125,1.041.139.486.014.43.43.541.763a4.131,4.131,0,0,0,.666,1.11,3.36,3.36,0,0,0,.9.791c.569.305.763.222,1.083.8a9.357,9.357,0,0,1,.916,1.443c.291.777.625,1.554.888,2.346.069.208.139.416.194.625v-.056l.319.083.042.139h.347l.167-.236.083.18.069.25.5.042v.236l.153.361h.319l.25.444v.264l.763.68-.111.056-.264-.1-.25.042-.222.222.527.833.347-.167-.125-.347.236-.167.25.153.222-.486.125.125a1.031,1.031,0,0,0,.18-.291c.153-.333.291-.763.416-1.1.069-.222.153-.305.125-.541Z" transform="translate(-113.247 -23.876)" fill="#d0a642"/>
          <path id="Path_1585" data-name="Path 1585" d="M123.463,50.148l-.014.028c-9.965-9.854-7.2-20.666-6.343-23.205a9.93,9.93,0,0,0-1.235.694,25.12,25.12,0,0,0-1.041,6.926,17.922,17.922,0,0,0,2.415,9.188,19.134,19.134,0,0,0,6.2,6.4h.014Z" transform="translate(-113.858 -24.361)" fill="#fff"/>
          <g id="Group_946" data-name="Group 946" transform="translate(7.536 1.832)">
            <g id="Group_945" data-name="Group 945">
              <path id="Path_1586" data-name="Path 1586" d="M123.579,28.435a1.985,1.985,0,1,1-1.985-1.985A1.984,1.984,0,0,1,123.579,28.435Z" transform="translate(-119.541 -26.394)" fill="#e01d15"/>
              <path id="Path_1587" data-name="Path 1587" d="M119.56,28.45a2.04,2.04,0,1,0,2.04-2.04A2.044,2.044,0,0,0,119.56,28.45Zm.111,0a1.929,1.929,0,1,1,1.929,1.929A1.925,1.925,0,0,1,119.671,28.45Z" transform="translate(-119.56 -26.41)" fill="#fff"/>
            </g>
            <path id="Path_1588" data-name="Path 1588" d="M120.99,27.933a1.943,1.943,0,0,1,.625,1.416,1.756,1.756,0,0,1-.042.389l.111.028a2.118,2.118,0,0,0,.042-.416,2.048,2.048,0,0,0-.652-1.5l-.083.083Z" transform="translate(-119.005 -25.851)" fill="#fff"/>
            <path id="Path_1589" data-name="Path 1589" d="M121.952,26.977a2,2,0,0,0-.972,1.318l.111.028a1.936,1.936,0,0,1,.916-1.235,2.564,2.564,0,0,1,.4-.18l-.1-.1a1.814,1.814,0,0,0-.375.167Z" transform="translate(-119.009 -26.255)" fill="#fff"/>
            <path id="Path_1590" data-name="Path 1590" d="M119.62,27.633a1.9,1.9,0,0,0,.333.25,2.079,2.079,0,0,0,1.624.18l-.028-.111a1.951,1.951,0,0,1-1.527-.167,1.723,1.723,0,0,1-.319-.236l-.083.083Z" transform="translate(-119.537 -25.968)" fill="#fff"/>
            <path id="Path_1591" data-name="Path 1591" d="M121.32,27.307a1.951,1.951,0,0,1,.86,1.6,1.99,1.99,0,0,1-.194.847l.1.056a2.046,2.046,0,0,0,.208-.9,2.021,2.021,0,0,0-.9-1.693l-.056.1Z" transform="translate(-118.877 -26.1)" fill="#fff"/>
            <path id="Path_1592" data-name="Path 1592" d="M121.293,26.828a1.988,1.988,0,0,0-1.013,1.624h.125a1.9,1.9,0,0,1,.958-1.527,1.924,1.924,0,0,1,.86-.25V26.55a1.96,1.96,0,0,0-.916.278Z" transform="translate(-119.281 -26.356)" fill="#fff"/>
            <path id="Path_1593" data-name="Path 1593" d="M119.574,28.053a1.912,1.912,0,0,0,.652.6,2.036,2.036,0,0,0,1.915.069l-.056-.1a1.931,1.931,0,0,1-1.8-.069,2.321,2.321,0,0,1-.638-.583l-.083.083Z" transform="translate(-119.56 -25.805)" fill="#fff"/>
          </g>
          <g id="Group_947" data-name="Group 947" transform="translate(4.719 11.589)">
            <path id="Path_1594" data-name="Path 1594" d="M125.51,42.1h.736l-1.832-1.027a.783.783,0,0,0,.25-.472c0-.139-.167-.18-.375-.18a1.594,1.594,0,0,0-.278,0,7.459,7.459,0,0,1-1.277.125,2.965,2.965,0,0,0,1.277-1.221,4.827,4.827,0,0,0,.458-1.874,1.61,1.61,0,0,1-1.11,1.388c1.8-.958.694-5.4.694-5.4a3.731,3.731,0,0,1-1.416,2.915c-1.6,1.013-3.15,2.817-1.846,3.858a4.829,4.829,0,0,1-3.262-2.54s.541,4.455,4.164,4.455a3.175,3.175,0,0,0,.694-.056,4.668,4.668,0,0,0,.666-.194l.278.222h.736l-.638-.361c.111-.056.222-.111.319-.167l.638.514h.736l-1.152-.638a2.217,2.217,0,0,0,.375-.305l1.18.958Z" transform="translate(-117.53 -33.44)" fill="none" stroke="#fff" stroke-linecap="round" stroke-linejoin="round" stroke-width="0.13"/>
            <path id="Path_1595" data-name="Path 1595" d="M125.51,42.1h.736l-1.832-1.027a.783.783,0,0,0,.25-.472c0-.139-.167-.18-.375-.18a1.594,1.594,0,0,0-.278,0,7.459,7.459,0,0,1-1.277.125,2.965,2.965,0,0,0,1.277-1.221,4.827,4.827,0,0,0,.458-1.874,1.61,1.61,0,0,1-1.11,1.388c1.8-.958.694-5.4.694-5.4a3.731,3.731,0,0,1-1.416,2.915c-1.6,1.013-3.15,2.817-1.846,3.858a4.829,4.829,0,0,1-3.262-2.54s.541,4.455,4.164,4.455a3.175,3.175,0,0,0,.694-.056,4.668,4.668,0,0,0,.666-.194l.278.222h.736l-.638-.361c.111-.056.222-.111.319-.167l.638.514h.736l-1.152-.638a2.217,2.217,0,0,0,.375-.305l1.18.958Z" transform="translate(-117.53 -33.44)" fill="#e01d15"/>
          </g>
          <g id="Group_948" data-name="Group 948" transform="translate(2.734 7.314)">
            <path id="Path_1596" data-name="Path 1596" d="M116.1,31.66h.68l.222.847h0V31.66h.389v1.194h-.666l-.236-.86h0v.86H116.1Z" transform="translate(-116.1 -29.856)" fill="#231916"/>
            <path id="Path_1597" data-name="Path 1597" d="M117.668,31.66v1.194h-.458V31.66Z" transform="translate(-115.669 -29.856)" fill="#231916"/>
            <path id="Path_1598" data-name="Path 1598" d="M118.7,31.983a.911.911,0,0,0-.347-.056c-.069,0-.194,0-.194.083,0,.153.625,0,.625.458,0,.319-.305.4-.569.4a2.043,2.043,0,0,1-.5-.056V32.51a1.046,1.046,0,0,0,.4.083c.111,0,.208-.014.208-.083,0-.153-.625-.014-.625-.472,0-.333.333-.389.611-.389a1.325,1.325,0,0,1,.4.042V32Z" transform="translate(-115.479 -29.86)" fill="#231916"/>
            <path id="Path_1599" data-name="Path 1599" d="M119.393,31.66h.458v1.194h-.458v-.43h-.305v.43h-.458V31.66h.458v.416h.305Z" transform="translate(-115.119 -29.856)" fill="#231916"/>
            <path id="Path_1600" data-name="Path 1600" d="M120.148,31.66v1.194h-.458V31.66Z" transform="translate(-114.707 -29.856)" fill="#231916"/>
            <path id="Path_1601" data-name="Path 1601" d="M120.2,31.66h.68l.222.847h0V31.66h.389v1.194h-.666l-.236-.86h0v.86H120.2Z" transform="translate(-114.51 -29.856)" fill="#231916"/>
            <path id="Path_1602" data-name="Path 1602" d="M121.752,32.261c0-.111,0-.319.18-.319s.18.208.18.319,0,.333-.18.333S121.752,32.4,121.752,32.261Zm.847,0c0-.4-.25-.611-.666-.611a.612.612,0,1,0,0,1.221C122.349,32.871,122.6,32.663,122.6,32.261Z" transform="translate(-114.091 -29.86)" fill="#231916"/>
            <path id="Path_1603" data-name="Path 1603" d="M122.37,31.66h.68l.153.652h0l.153-.652h.666v1.194h-.416v-.93h0l-.236.93h-.375l-.222-.93h0v.93h-.389V31.66Z" transform="translate(-113.668 -29.856)" fill="#231916"/>
            <path id="Path_1604" data-name="Path 1604" d="M124.208,31.66v1.194h-.458V31.66Z" transform="translate(-113.133 -29.856)" fill="#231916"/>
            <path id="Path_1605" data-name="Path 1605" d="M125.082,32.483v.361h-.458v-.361l-.444-.833h.5l.194.5h0l.194-.5h.472l-.444.833Z" transform="translate(-112.966 -29.86)" fill="#231916"/>
            <path id="Path_1606" data-name="Path 1606" d="M125.8,31.914h0l.139.389h-.264l.125-.389Zm-.722.93h.458l.069-.25H126l.083.25h.472l-.416-1.194h-.625l-.416,1.194Z" transform="translate(-112.617 -29.86)" fill="#231916"/>
            <path id="Path_1607" data-name="Path 1607" d="M120.214,30.37h1.013v.291h-.569v.194h.541v.291h-.541v.416H120.2V30.37Z" transform="translate(-114.51 -30.356)" fill="#231916"/>
            <path id="Path_1608" data-name="Path 1608" d="M122.161,31.54a1.113,1.113,0,0,1-.319.042c-.4,0-.722-.208-.722-.625s.333-.6.722-.6a1.26,1.26,0,0,1,.319.042v.305a.629.629,0,0,0-.222-.042c-.194,0-.347.1-.347.291a.288.288,0,0,0,.319.305.786.786,0,0,0,.25-.042v.319Z" transform="translate(-114.153 -30.36)" fill="#231916"/>
          </g>
        </g>
        <g id="Group_953" data-name="Group 953" transform="translate(267.557 1.86)">
          <g id="Group_950" data-name="Group 950" transform="translate(86.618 230.764)">
            <path id="Path_1609" data-name="Path 1609" d="M264.19,167.9h75.057v10.3s22.5,32.574,5,85.216v55.9s-55.64,14.642-88.783,1.069V221.074s1.235-32.019,8.73-42.331V167.89Z" transform="translate(-255.46 -167.89)" fill="#fff"/>
            <line id="Line_158" data-name="Line 158" x2="75.057" transform="translate(8.73 10.867)" fill="none" stroke="#8f939f" stroke-width="0.46"/>
            <path id="Path_1610" data-name="Path 1610" d="M264.19,167.9h75.057v10.3s22.5,32.574,5,85.216v55.9s-55.64,14.642-88.783,1.069V221.074s1.235-32.019,8.73-42.331V167.89Z" transform="translate(-255.46 -167.89)" fill="none" stroke="#8f939f" stroke-width="0.46"/>
          </g>
          <g id="Group_952" data-name="Group 952">
            <path id="Path_1611" data-name="Path 1611" d="M321.069,13.535c-13.768.056-23.941-8.869-29.1-10.4l-98.915,35.6,15.267,50.547,45.537-2.956V213.765s70.408,30.936,134.611.569V84.734L431.239,89.3l17.432-51.074L349.645,3.418S337.654,13.466,321.069,13.535Z" transform="translate(-193.05 -1.03)" fill="#fff"/>
            <g id="Group_951" data-name="Group 951">
              <path id="Path_1612" data-name="Path 1612" d="M321.069,13.605c-13.768.056-23.941-8.869-29.1-10.4L193.05,38.823l15.267,50.533L253.853,86.4v127.45s70.408,30.936,134.611.569V84.79l42.775,4.566,17.432-51.074L349.645,3.474s-11.991,10.062-28.577,10.118Z" transform="translate(-193.05 -1.003)" fill="none" stroke="#8f939f" stroke-width="0.42"/>
              <path id="Path_1613" data-name="Path 1613" d="M330.211,5.659,322.8,1.62c-29.618,11.284-56.32,1.235-56.32,1.235C261.858,5.4,257,7.463,257,7.463s41.151,17.779,73.2-1.8Z" transform="translate(-168.245 -1.62)" fill="#fff" stroke="#666565" stroke-width="0.36"/>
            </g>
          </g>
        </g>
        <g id="Group_956" data-name="Group 956" transform="translate(362.466 232.637)">
          <g id="Group_955" data-name="Group 955" clip-path="url(#clip-path-2)">
            <g id="Group_954" data-name="Group 954" transform="translate(-28.554 -7.536)">
              <path id="Path_1614" data-name="Path 1614" d="M333.482,187.383,330.97,162.47" transform="translate(-205.907 -162.47)" fill="none" stroke="#8f939f" stroke-linecap="round" stroke-linejoin="round" stroke-width="0.23"/>
              <path id="Path_1615" data-name="Path 1615" d="M331.843,187.383,329.4,162.47" transform="translate(-206.516 -162.47)" fill="none" stroke="#8f939f" stroke-linecap="round" stroke-linejoin="round" stroke-width="0.23"/>
              <path id="Path_1616" data-name="Path 1616" d="M330.213,187.383,327.84,162.47" transform="translate(-207.121 -162.47)" fill="none" stroke="#8f939f" stroke-linecap="round" stroke-linejoin="round" stroke-width="0.23"/>
              <path id="Path_1617" data-name="Path 1617" d="M328.58,187.383l-2.29-24.913" transform="translate(-207.723 -162.47)" fill="none" stroke="#8f939f" stroke-linecap="round" stroke-linejoin="round" stroke-width="0.23"/>
              <path id="Path_1618" data-name="Path 1618" d="M326.951,187.383,324.73,162.47" transform="translate(-208.328 -162.47)" fill="none" stroke="#8f939f" stroke-linecap="round" stroke-linejoin="round" stroke-width="0.23"/>
              <path id="Path_1619" data-name="Path 1619" d="M325.313,187.383,323.19,162.47" transform="translate(-208.925 -162.47)" fill="none" stroke="#8f939f" stroke-linecap="round" stroke-linejoin="round" stroke-width="0.23"/>
              <path id="Path_1620" data-name="Path 1620" d="M323.674,187.383,321.62,162.47" transform="translate(-209.534 -162.47)" fill="none" stroke="#8f939f" stroke-linecap="round" stroke-linejoin="round" stroke-width="0.23"/>
              <path id="Path_1621" data-name="Path 1621" d="M322.041,187.383,320.07,162.47" transform="translate(-210.135 -162.47)" fill="none" stroke="#8f939f" stroke-linecap="round" stroke-linejoin="round" stroke-width="0.23"/>
              <path id="Path_1622" data-name="Path 1622" d="M320.415,187.383,318.5,162.47" transform="translate(-210.744 -162.47)" fill="none" stroke="#8f939f" stroke-linecap="round" stroke-linejoin="round" stroke-width="0.23"/>
              <path id="Path_1623" data-name="Path 1623" d="M318.778,187.383,316.96,162.47" transform="translate(-211.342 -162.47)" fill="none" stroke="#8f939f" stroke-linecap="round" stroke-linejoin="round" stroke-width="0.23"/>
              <path id="Path_1624" data-name="Path 1624" d="M317.139,187.383,315.39,162.47" transform="translate(-211.951 -162.47)" fill="none" stroke="#8f939f" stroke-linecap="round" stroke-linejoin="round" stroke-width="0.23"/>
              <path id="Path_1625" data-name="Path 1625" d="M315.505,187.383,313.84,162.47" transform="translate(-212.552 -162.47)" fill="none" stroke="#8f939f" stroke-linecap="round" stroke-linejoin="round" stroke-width="0.23"/>
              <path id="Path_1626" data-name="Path 1626" d="M313.862,187.383,312.28,162.47" transform="translate(-213.157 -162.47)" fill="none" stroke="#8f939f" stroke-linecap="round" stroke-linejoin="round" stroke-width="0.23"/>
              <path id="Path_1627" data-name="Path 1627" d="M312.247,187.383,310.72,162.47" transform="translate(-213.762 -162.47)" fill="none" stroke="#8f939f" stroke-linecap="round" stroke-linejoin="round" stroke-width="0.23"/>
              <path id="Path_1628" data-name="Path 1628" d="M310.6,187.383,309.16,162.47" transform="translate(-214.367 -162.47)" fill="none" stroke="#8f939f" stroke-linecap="round" stroke-linejoin="round" stroke-width="0.23"/>
              <path id="Path_1629" data-name="Path 1629" d="M308.974,187.383,307.6,162.47" transform="translate(-214.972 -162.47)" fill="none" stroke="#8f939f" stroke-linecap="round" stroke-linejoin="round" stroke-width="0.23"/>
              <path id="Path_1630" data-name="Path 1630" d="M307.337,187.383,306.06,162.47" transform="translate(-215.57 -162.47)" fill="none" stroke="#8f939f" stroke-linecap="round" stroke-linejoin="round" stroke-width="0.23"/>
              <path id="Path_1631" data-name="Path 1631" d="M305.7,187.383,304.49,162.47" transform="translate(-216.179 -162.47)" fill="none" stroke="#8f939f" stroke-linecap="round" stroke-linejoin="round" stroke-width="0.23"/>
              <path id="Path_1632" data-name="Path 1632" d="M304.064,187.383,302.94,162.47" transform="translate(-216.78 -162.47)" fill="none" stroke="#8f939f" stroke-linecap="round" stroke-linejoin="round" stroke-width="0.23"/>
              <path id="Path_1633" data-name="Path 1633" d="M302.421,187.383,301.38,162.47" transform="translate(-217.385 -162.47)" fill="none" stroke="#8f939f" stroke-linecap="round" stroke-linejoin="round" stroke-width="0.23"/>
              <path id="Path_1634" data-name="Path 1634" d="M300.792,187.383l-.972-24.913" transform="translate(-217.99 -162.47)" fill="none" stroke="#8f939f" stroke-linecap="round" stroke-linejoin="round" stroke-width="0.23"/>
              <path id="Path_1635" data-name="Path 1635" d="M299.172,187.383l-.9-24.913" transform="translate(-218.591 -162.47)" fill="none" stroke="#8f939f" stroke-linecap="round" stroke-linejoin="round" stroke-width="0.23"/>
              <path id="Path_1636" data-name="Path 1636" d="M297.515,187.383l-.8-24.913" transform="translate(-219.196 -162.47)" fill="none" stroke="#8f939f" stroke-linecap="round" stroke-linejoin="round" stroke-width="0.23"/>
              <path id="Path_1637" data-name="Path 1637" d="M295.909,187.383l-.749-24.913" transform="translate(-219.798 -162.47)" fill="none" stroke="#8f939f" stroke-linecap="round" stroke-linejoin="round" stroke-width="0.23"/>
              <path id="Path_1638" data-name="Path 1638" d="M294.256,187.383l-.666-24.913" transform="translate(-220.407 -162.47)" fill="none" stroke="#8f939f" stroke-linecap="round" stroke-linejoin="round" stroke-width="0.23"/>
              <path id="Path_1639" data-name="Path 1639" d="M292.623,187.383l-.583-24.913" transform="translate(-221.008 -162.47)" fill="none" stroke="#8f939f" stroke-linecap="round" stroke-linejoin="round" stroke-width="0.23"/>
              <path id="Path_1640" data-name="Path 1640" d="M290.994,187.383l-.514-24.913" transform="translate(-221.613 -162.47)" fill="none" stroke="#8f939f" stroke-linecap="round" stroke-linejoin="round" stroke-width="0.23"/>
              <path id="Path_1641" data-name="Path 1641" d="M289.36,187.383l-.43-24.913" transform="translate(-222.214 -162.47)" fill="none" stroke="#8f939f" stroke-linecap="round" stroke-linejoin="round" stroke-width="0.23"/>
              <path id="Path_1642" data-name="Path 1642" d="M287.735,187.383l-.375-24.913" transform="translate(-222.823 -162.47)" fill="none" stroke="#8f939f" stroke-linecap="round" stroke-linejoin="round" stroke-width="0.23"/>
              <path id="Path_1643" data-name="Path 1643" d="M286.1,187.383l-.278-24.913" transform="translate(-223.421 -162.47)" fill="none" stroke="#8f939f" stroke-linecap="round" stroke-linejoin="round" stroke-width="0.23"/>
              <path id="Path_1644" data-name="Path 1644" d="M284.458,187.383l-.208-24.913" transform="translate(-224.03 -162.47)" fill="none" stroke="#8f939f" stroke-linecap="round" stroke-linejoin="round" stroke-width="0.23"/>
              <path id="Path_1645" data-name="Path 1645" d="M282.825,187.383,282.7,162.47" transform="translate(-224.631 -162.47)" fill="none" stroke="#8f939f" stroke-linecap="round" stroke-linejoin="round" stroke-width="0.23"/>
              <path id="Path_1646" data-name="Path 1646" d="M281.182,187.383l-.042-24.913" transform="translate(-225.236 -162.47)" fill="none" stroke="#8f939f" stroke-linecap="round" stroke-linejoin="round" stroke-width="0.23"/>
              <path id="Path_1647" data-name="Path 1647" d="M279.57,187.383l.028-24.913" transform="translate(-225.845 -162.47)" fill="none" stroke="#8f939f" stroke-linecap="round" stroke-linejoin="round" stroke-width="0.23"/>
              <path id="Path_1648" data-name="Path 1648" d="M277.94,187.383l.111-24.913" transform="translate(-226.477 -162.47)" fill="none" stroke="#8f939f" stroke-linecap="round" stroke-linejoin="round" stroke-width="0.23"/>
              <path id="Path_1649" data-name="Path 1649" d="M276.33,187.383l.194-24.913" transform="translate(-227.102 -162.47)" fill="none" stroke="#8f939f" stroke-linecap="round" stroke-linejoin="round" stroke-width="0.23"/>
              <path id="Path_1650" data-name="Path 1650" d="M274.73,187.383l.264-24.913" transform="translate(-227.722 -162.47)" fill="none" stroke="#8f939f" stroke-linecap="round" stroke-linejoin="round" stroke-width="0.23"/>
              <path id="Path_1651" data-name="Path 1651" d="M273.11,187.383l.347-24.913" transform="translate(-228.351 -162.47)" fill="none" stroke="#8f939f" stroke-linecap="round" stroke-linejoin="round" stroke-width="0.23"/>
              <path id="Path_1652" data-name="Path 1652" d="M271.5,187.383l.416-24.913" transform="translate(-228.975 -162.47)" fill="none" stroke="#8f939f" stroke-linecap="round" stroke-linejoin="round" stroke-width="0.23"/>
              <path id="Path_1653" data-name="Path 1653" d="M269.89,187.383l.5-24.913" transform="translate(-229.6 -162.47)" fill="none" stroke="#8f939f" stroke-linecap="round" stroke-linejoin="round" stroke-width="0.23"/>
              <path id="Path_1654" data-name="Path 1654" d="M268.27,187.383l.583-24.913" transform="translate(-230.228 -162.47)" fill="none" stroke="#8f939f" stroke-linecap="round" stroke-linejoin="round" stroke-width="0.23"/>
              <path id="Path_1655" data-name="Path 1655" d="M266.66,187.383l.652-24.913" transform="translate(-230.852 -162.47)" fill="none" stroke="#8f939f" stroke-linecap="round" stroke-linejoin="round" stroke-width="0.23"/>
              <path id="Path_1656" data-name="Path 1656" d="M265.05,187.383l.722-24.913" transform="translate(-231.477 -162.47)" fill="none" stroke="#8f939f" stroke-linecap="round" stroke-linejoin="round" stroke-width="0.23"/>
              <path id="Path_1657" data-name="Path 1657" d="M263.44,187.383l.8-24.913" transform="translate(-232.101 -162.47)" fill="none" stroke="#8f939f" stroke-linecap="round" stroke-linejoin="round" stroke-width="0.23"/>
              <path id="Path_1658" data-name="Path 1658" d="M261.82,187.383l.888-24.913" transform="translate(-232.73 -162.47)" fill="none" stroke="#8f939f" stroke-linecap="round" stroke-linejoin="round" stroke-width="0.23"/>
              <path id="Path_1659" data-name="Path 1659" d="M260.22,187.383l.958-24.913" transform="translate(-233.35 -162.47)" fill="none" stroke="#8f939f" stroke-linecap="round" stroke-linejoin="round" stroke-width="0.23"/>
              <path id="Path_1660" data-name="Path 1660" d="M258.6,187.383l1.041-24.913" transform="translate(-233.979 -162.47)" fill="none" stroke="#8f939f" stroke-linecap="round" stroke-linejoin="round" stroke-width="0.23"/>
              <path id="Path_1661" data-name="Path 1661" d="M256.98,187.383,258.1,162.47" transform="translate(-234.607 -162.47)" fill="none" stroke="#8f939f" stroke-linecap="round" stroke-linejoin="round" stroke-width="0.23"/>
              <path id="Path_1662" data-name="Path 1662" d="M255.37,187.383l1.194-24.913" transform="translate(-235.232 -162.47)" fill="none" stroke="#8f939f" stroke-linecap="round" stroke-linejoin="round" stroke-width="0.23"/>
              <path id="Path_1663" data-name="Path 1663" d="M253.76,187.383l1.263-24.913" transform="translate(-235.856 -162.47)" fill="none" stroke="#8f939f" stroke-linecap="round" stroke-linejoin="round" stroke-width="0.23"/>
              <path id="Path_1664" data-name="Path 1664" d="M252.15,187.383l1.332-24.913" transform="translate(-236.481 -162.47)" fill="none" stroke="#8f939f" stroke-linecap="round" stroke-linejoin="round" stroke-width="0.23"/>
              <path id="Path_1665" data-name="Path 1665" d="M250.54,187.383l1.416-24.913" transform="translate(-237.105 -162.47)" fill="none" stroke="#8f939f" stroke-linecap="round" stroke-linejoin="round" stroke-width="0.23"/>
              <path id="Path_1666" data-name="Path 1666" d="M248.93,187.383l1.5-24.913" transform="translate(-237.73 -162.47)" fill="none" stroke="#8f939f" stroke-linecap="round" stroke-linejoin="round" stroke-width="0.23"/>
              <path id="Path_1667" data-name="Path 1667" d="M247.31,187.383l1.582-24.913" transform="translate(-238.358 -162.47)" fill="none" stroke="#8f939f" stroke-linecap="round" stroke-linejoin="round" stroke-width="0.23"/>
              <path id="Path_1668" data-name="Path 1668" d="M245.7,187.383l1.652-24.913" transform="translate(-238.983 -162.47)" fill="none" stroke="#8f939f" stroke-linecap="round" stroke-linejoin="round" stroke-width="0.23"/>
              <path id="Path_1669" data-name="Path 1669" d="M244.08,187.383l1.735-24.913" transform="translate(-239.611 -162.47)" fill="none" stroke="#8f939f" stroke-linecap="round" stroke-linejoin="round" stroke-width="0.23"/>
              <path id="Path_1670" data-name="Path 1670" d="M242.48,187.383,244.3,162.47" transform="translate(-240.232 -162.47)" fill="none" stroke="#8f939f" stroke-linecap="round" stroke-linejoin="round" stroke-width="0.23"/>
              <path id="Path_1671" data-name="Path 1671" d="M240.86,187.383l1.888-24.913" transform="translate(-240.86 -162.47)" fill="none" stroke="#8f939f" stroke-linecap="round" stroke-linejoin="round" stroke-width="0.23"/>
            </g>
          </g>
          <path id="Path_1673" data-name="Path 1673" d="M261.873,167.9H336.93a46.565,46.565,0,0,1,.056,10.923H261.831a34.617,34.617,0,0,1,.056-10.923Z" transform="translate(-261.434 -167.9)" fill="none" stroke="#8f939f" stroke-width="0.68"/>
        </g>
        <g id="Group_957" data-name="Group 957" transform="translate(354.175 232.637)">
          <path id="Path_1674" data-name="Path 1674" d="M344.243,311.574v-48.16c17.5-52.643-5-85.216-5-85.216V167.9H264.19v10.853c-7.495,10.326-8.73,42.331-8.73,42.331v91.934C267.521,317.514,296.347,324.148,344.243,311.574Z" transform="translate(-255.46 -167.9)" fill="none"/>
          <path id="Path_1675" data-name="Path 1675" d="M255.46,272.863v7.384c33.143,13.574,88.783-1.069,88.783-1.069V271.42c-47.91,12.574-76.736,5.94-88.783,1.443Z" transform="translate(-255.46 -127.746)" fill="#870020"/>
        </g>
        <path id="Path_1676" data-name="Path 1676" d="M255.07,275.371s38.625,15.5,89.963-1.471" transform="translate(98.564 105.853)" fill="none" stroke="#8f939f" stroke-width="0.33" stroke-dasharray="0 1.03"/>
        <g id="Group_958" data-name="Group 958" transform="translate(62.358 69.575)">
          <rect id="Rectangle_269" data-name="Rectangle 269" width="137.831" height="14.559" transform="translate(0 28.382)" fill="#231916"/>
          <path id="Path_1677" data-name="Path 1677" d="M183.031,75.189H45.2v-11.8l1.652-2.762h136.18Z" transform="translate(-45.2 -46.446)" fill="#870020"/>
          <path id="Path_1678" data-name="Path 1678" d="M182.1,64.955H46.31L49.9,50.41H178.257Z" transform="translate(-44.769 -50.41)" fill="#b0002e"/>
        </g>
        <path id="Path_1679" data-name="Path 1679" d="M7.876,25.6,24.294,80.075l-8.3.416L.27,28.612Z" transform="translate(-0.27 9.541)" fill="#870020"/>
        <path id="Path_1680" data-name="Path 1680" d="M188.853,25.51,169.77,79.485l9.313.666L196.9,28.022Z" transform="translate(65.477 9.506)" fill="#870020"/>
        <path id="Path_1681" data-name="Path 1681" d="M201.019,26.67l15.919,52.989-8.3.416L192.9,28.932Z" transform="translate(74.449 9.956)" fill="#870020"/>
        <path id="Path_1682" data-name="Path 1682" d="M376.231,26.23,358.66,79.455l8.3.666,17.321-51.38Z" transform="translate(138.745 9.786)" fill="#870020"/>
        <g id="Group_959" data-name="Group 959" transform="translate(6.329 35.002)">
          <line id="Line_159" data-name="Line 159" x1="19.25" y2="54.086" transform="translate(229.404)" fill="none" stroke="#8f939f" stroke-width="0.33" stroke-dasharray="0 0.95"/>
          <path id="Path_1683" data-name="Path 1683" d="M183.4,154.4c-15.017,4.122-59.8,23.788-138.164-.444" transform="translate(10.845 24.328)" fill="none" stroke="#8f939f" stroke-width="0.33" stroke-dasharray="0 0.95"/>
          <line id="Line_160" data-name="Line 160" x2="15.988" y2="53.295" transform="translate(0 1.305)" fill="none" stroke="#8f939f" stroke-width="0.33" stroke-dasharray="0 0.95"/>
        </g>
        <g id="Group_960" data-name="Group 960" transform="translate(273.317 36.612)">
          <line id="Line_161" data-name="Line 161" x1="18.792" y2="52.698" transform="translate(223.894)" fill="none" stroke="#8f939f" stroke-width="0.32" stroke-dasharray="0 0.92"/>
          <line id="Line_162" data-name="Line 162" x2="16.224" y2="52.087" transform="translate(0 1.013)" fill="none" stroke="#8f939f" stroke-width="0.32" stroke-dasharray="0 0.92"/>
          <path id="Path_1684" data-name="Path 1684" d="M371.448,151.81c-14.628,4.025-66.383,26.939-134.528,0" transform="translate(-181.793 21.884)" fill="none" stroke="#8f939f" stroke-width="0.32" stroke-dasharray="0 0.92"/>
        </g>
        <g id="Group_962" data-name="Group 962" transform="translate(95.112)">
          <path id="Path_1685" data-name="Path 1685" d="M76.49,3.4s24.2,11.728,49.631.1c0,0-3.539,27.619-24.593,33.726,0,0-22.373-8.855-25.038-33.809Z" transform="translate(-65.817 0.93)" stroke="#8f939f" stroke-width="0.71" fill="url(#linear-gradient)"/>
          <g id="Group_961" data-name="Group 961">
            <path id="Path_1686" data-name="Path 1686" d="M126.6,8.233,128.378.28S100.953,10.467,75.61.294l1.624,7.758S97.788,18.5,126.6,8.233Z" transform="translate(-66.158 -0.28)" fill="#fff" stroke="#666565" stroke-width="0.36"/>
            <path id="Path_1687" data-name="Path 1687" d="M104.052,33.329S83.373,34.856,77.96.45L68.8,2.407s7.411,39.111,35.752,39.111c0,0,27.272,1.388,35.835-39.111L130.658.63s-5.316,32.7-26.62,32.7Z" transform="translate(-68.8 -0.214)" fill="#fff" stroke="#666565" stroke-width="0.36"/>
          </g>
        </g>
        <path id="Path_1688" data-name="Path 1688" d="M44.08,11.78s16.113,35.544,1.457,71.476" transform="translate(16.723 4.181)" fill="none" stroke="#8f939f" stroke-width="0.43"/>
        <path id="Path_1689" data-name="Path 1689" d="M147.695,11.54s-14.725,35.211-1.332,70.81" transform="translate(54.215 4.088)" fill="none" stroke="#8f939f" stroke-width="0.41"/>
        <path id="Path_1690" data-name="Path 1690" d="M236.2,13.66s15.517,34.239,1.4,68.853" transform="translate(91.244 4.91)" fill="none" stroke="#8f939f" stroke-width="0.42"/>
        <path id="Path_1691" data-name="Path 1691" d="M336.5,13.43s-14.184,33.934-1.291,68.228" transform="translate(127.551 4.821)" fill="none" stroke="#8f939f" stroke-width="0.4"/>
        <g id="Group_963" data-name="Group 963" transform="translate(83.69 80.067)">
          <path id="Path_1692" data-name="Path 1692" d="M67.019,62.846a2.812,2.812,0,0,0,.153.666c.069.153.042.4-.153.389s-.291-.167-.222-.458.125-.319.111-.444v-.153c-.014-.069.083-.083.1,0" transform="translate(-58.164 -56.101)" fill="#fff"/>
          <path id="Path_1693" data-name="Path 1693" d="M67.054,62.039a1.394,1.394,0,0,0,.139.514c.056.083.1.43-.153.444-.125,0-.305-.1-.167-.486A.454.454,0,0,0,66.9,62.4c.014-.069.028-.167.028-.18v-.18a.073.073,0,0,1,.056-.069.054.054,0,0,1,.056.056" transform="translate(-58.144 -56.418)" fill="#fff"/>
          <path id="Path_1694" data-name="Path 1694" d="M69.184,61.8a.677.677,0,0,0-.194-.5c-.472-.347-1.055.305-1.693.139a.621.621,0,0,1-.4-.444.515.515,0,0,0,.083-.291c-.028-.153-.194-.236-.319-.333v-.028c-.014-.056-.1-.028-.083.014v.028a.736.736,0,0,0-.1.514.25.25,0,0,0,.222.125,1.627,1.627,0,0,0,.361.527c.389.264.888.056,1.291-.042.083,0,.222-.042.278.042a.112.112,0,0,1-.056.125,2.751,2.751,0,0,1-1.027.153c-.763,0-1.249-.652-1.943-.833a3.625,3.625,0,0,0-1.6-.1c-.1.014-.18.083-.278.056.167-.541-.611-.569-.611-1.027-.028,0-.042,0-.056.042a.59.59,0,0,0,.278.6c0,.083.042.236-.069.291a.586.586,0,0,1-.167-.042,1.617,1.617,0,0,0-.819.042c-.111-.069-.069-.208-.083-.291.153-.167.333-.319.291-.555-.014-.028,0-.1-.069-.083,0,.319-.361.416-.541.638a.837.837,0,0,0,.1.86c.028.18,0,.4.1.541.319.167.111.527.25.777.1.167.291.111.458.083a.468.468,0,0,0,.278.028c.291-.111.139-.486.236-.708.042-.083.1-.069.194-.236a1.25,1.25,0,0,0,.056-.222.038.038,0,0,1,.056-.028c.042,0,.028.042.028.042a.538.538,0,0,1-.153.361c-.305.236.028.694-.361.874a2.085,2.085,0,0,0,.305.819c.069.167.25.264.361.375a3.507,3.507,0,0,0,.083.68,3.263,3.263,0,0,0-.236.708c-.028.069-.111.139-.1.208h.291s.1-.111.139-.014h.43l.028-.028s-.056-.125,0-.167c.056-.222-.056-.472,0-.722a1.658,1.658,0,0,0,.153-.361c.028-.056.056-.125.125-.139a3.439,3.439,0,0,0,2.248-.264c.208-.042.486-.222.652-.014a4.764,4.764,0,0,0,.347.972,2.131,2.131,0,0,0-.153.416.3.3,0,0,0-.1.333h.291s.111-.069.139,0h.43c.042-.111-.083-.18.042-.236,0-.278-.208-.611.028-.847a.21.21,0,0,0-.028-.236,5.355,5.355,0,0,1,.028-.888,3.107,3.107,0,0,1,.111-.4A3.33,3.33,0,0,0,68.8,62.8a1.758,1.758,0,0,0,.389-1.055" transform="translate(-60.094 -57.21)" fill="#fff"/>
          <path id="Path_1695" data-name="Path 1695" d="M66,57.97A5.427,5.427,0,1,0,71.423,63.4,5.426,5.426,0,0,0,66,57.97m-4.7,5.427A4.7,4.7,0,0,1,64.4,58.969L66.885,68A4.711,4.711,0,0,1,61.292,63.4m6.3,4.413-2.484-9.035a4.7,4.7,0,0,1,2.484,9.035" transform="translate(-60.57 -57.97)" fill="#fff"/>
          <rect id="Rectangle_270" data-name="Rectangle 270" width="2.276" height="7.55" transform="translate(52.296 1.652)" fill="#fff"/>
          <path id="Path_1696" data-name="Path 1696" d="M95.822,64.684V59.16H93.56v7.55h5.565V64.684Z" transform="translate(-47.774 -57.508)" fill="#fff"/>
          <path id="Path_1697" data-name="Path 1697" d="M106.645,59.16v1.915h-2.137V66.71h-2.221V61.075H100.15V59.16Z" transform="translate(-45.217 -57.508)" fill="#fff"/>
          <path id="Path_1698" data-name="Path 1698" d="M109.928,59.16V61.7H107.6V59.16H105.32v7.55H107.6V63.726h2.332V66.71H112.2V59.16Z" transform="translate(-43.212 -57.508)" fill="#fff"/>
          <path id="Path_1699" data-name="Path 1699" d="M76.08,62.985a3.914,3.914,0,1,1,3.914,3.955,3.936,3.936,0,0,1-3.914-3.955m3.914,2.11c.888,0,1.6-.944,1.6-2.11a1.664,1.664,0,1,0-1.6,2.11" transform="translate(-54.554 -57.559)" fill="#fff"/>
          <path id="Path_1700" data-name="Path 1700" d="M87.44,62.985a3.914,3.914,0,1,1,3.914,3.955,3.936,3.936,0,0,1-3.914-3.955m3.914,2.11c.888,0,1.6-.944,1.6-2.11a1.661,1.661,0,1,0-3.206,0,1.92,1.92,0,0,0,1.61,2.11" transform="translate(-50.147 -57.559)" fill="#fff"/>
          <path id="Path_1701" data-name="Path 1701" d="M86.725,59.16v3.831L84.338,59.16H82.02v7.55H84.3V62.963l2.359,3.747H89V59.16Z" transform="translate(-52.25 -57.508)" fill="#fff"/>
          <rect id="Rectangle_271" data-name="Rectangle 271" width="1.541" height="7.55" transform="translate(73.78 1.652)" fill="#fff"/>
          <path id="Path_1702" data-name="Path 1702" d="M120.28,59.16v4.927l-3.15-4.927H115.45v7.55h1.527V61.45l3.192,5.26h1.652V59.16Z" transform="translate(-39.283 -57.508)" fill="#fff"/>
          <path id="Path_1703" data-name="Path 1703" d="M127.677,64.544a3.374,3.374,0,0,1-3.5,2.72,4.245,4.245,0,0,1,0-8.424,3.5,3.5,0,0,1,3.5,2.72h-1.652a2.063,2.063,0,0,0-1.846-1.346c-1.194,0-2.151,1.207-2.151,2.831s.972,2.928,2.151,2.928a2.129,2.129,0,0,0,1.86-1.43h1.624Z" transform="translate(-37.339 -57.633)" fill="#fff"/>
          <rect id="Rectangle_272" data-name="Rectangle 272" width="1.596" height="1.485" transform="translate(91.17 7.717)" fill="#fff"/>
          <path id="Path_1704" data-name="Path 1704" d="M113.121,63.47H111.58v1.568h.777a1.118,1.118,0,0,1-.763,1.3v.5c1.291.028,1.485-1.318,1.513-1.8h0V63.47Z" transform="translate(-40.784 -55.837)" fill="#fff"/>
          <path id="Path_1705" data-name="Path 1705" d="M74.974,59.16l-1.055,3.817L72.865,59.16H69.95v7.55H72V62.685l1.055,4.025H74.78l1.069-4.025V66.71h2.04V59.16Z" transform="translate(-56.932 -57.508)" fill="#fff"/>
          <path id="Path_1706" data-name="Path 1706" d="M64.092,58.9l2.387,8.716a5.619,5.619,0,0,1-.694.056A4.552,4.552,0,0,1,64.078,58.9m.1-.208a4.707,4.707,0,0,0,2.484,9.049L64.175,58.7Z" transform="translate(-60.372 -57.691)" fill="#231916"/>
          <path id="Path_1707" data-name="Path 1707" d="M64.728,58.653a4.543,4.543,0,0,1,1.693,8.758l-2.387-8.7a3.9,3.9,0,0,1,.694-.056m0-.153a4.7,4.7,0,0,0-.888.083l2.484,9.035a4.7,4.7,0,0,0-1.6-9.118" transform="translate(-59.302 -57.764)" fill="#231916"/>
        </g>
        <g id="Group_965" data-name="Group 965" transform="translate(52.684 350.784)">
          <g id="Group_964" data-name="Group 964" transform="translate(0 6.554)">
            <path id="Path_1708" data-name="Path 1708" d="M40.006,258.208l-.93-.458h0l-.847,1.735.444.222s.291-.611.291-.625c.028,0,.472.236.472.236a.642.642,0,0,0,.93-.236.625.625,0,0,0-.375-.874Zm-.652.083.319.167c.264.125.347.236.264.4-.042.069-.125.25-.43.1,0,0-.361-.167-.389-.18a5.248,5.248,0,0,1,.236-.486Z" transform="translate(-38.23 -257.75)" fill="#231916"/>
            <path id="Path_1709" data-name="Path 1709" d="M40.208,258.73l-.638,1.291.416.194.638-1.291h-.014Z" transform="translate(-37.71 -257.37)" fill="#231916"/>
            <path id="Path_1710" data-name="Path 1710" d="M40.223,258.39l-.153.347.43.194.153-.319-.014-.014Z" transform="translate(-37.516 -257.502)" fill="#231916"/>
            <path id="Path_1711" data-name="Path 1711" d="M42.171,259.682h-.028l-.472-.25s-.389.222-.416.25c0-.042-.069-.486-.069-.486l-.514-.236s.194.86.194.874l-.847.4.514.236s.4-.236.444-.25c0,.042.069.5.069.5l.514.25s-.208-.888-.208-.916c.014,0,.819-.375.819-.375Z" transform="translate(-37.536 -257.281)" fill="#231916"/>
            <path id="Path_1712" data-name="Path 1712" d="M42.564,259.8a.762.762,0,1,0-.652,1.36.787.787,0,0,0,1.11-.291.775.775,0,0,0-.458-1.055Zm-.514,1.055a.358.358,0,0,1-.167-.541.369.369,0,0,1,.541-.208.423.423,0,0,1-.361.763Z" transform="translate(-37.012 -257)" fill="#231916"/>
            <path id="Path_1713" data-name="Path 1713" d="M44.488,260.286,44,260.05l-1.582,1.388.472.222s.305-.278.319-.291.722.347.736.361-.042.416-.042.416l.486.236L44.5,260.3h0Zm-.527,1.055-.486-.236c.014-.014.527-.486.555-.514,0,.042-.069.722-.069.763Z" transform="translate(-36.605 -256.858)" fill="#231916"/>
            <path id="Path_1714" data-name="Path 1714" d="M44.847,260.56,44,262.295l.416.208.847-1.749h-.014Z" transform="translate(-35.992 -256.66)" fill="#231916"/>
            <path id="Path_1715" data-name="Path 1715" d="M45.783,261.372a.726.726,0,0,0-1.055.291.736.736,0,0,0,.416,1.083.769.769,0,0,0,.874-.083h0l-.43-.222h0a.25.25,0,0,1-.305.014.332.332,0,0,1-.208-.458l1.041.514.028-.069a.723.723,0,0,0-.375-1.055Zm-.555.4a.294.294,0,0,1,.416-.1.311.311,0,0,1,.167.389A4.57,4.57,0,0,1,45.228,261.775Z" transform="translate(-35.749 -256.39)" fill="#231916"/>
            <path id="Path_1716" data-name="Path 1716" d="M46.338,261.71,45.7,263l.416.208.638-1.3h-.014Z" transform="translate(-35.332 -256.214)" fill="#231916"/>
            <path id="Path_1717" data-name="Path 1717" d="M46.363,261.37l-.153.333.4.208.167-.333h-.014Z" transform="translate(-35.135 -256.346)" fill="#231916"/>
            <path id="Path_1718" data-name="Path 1718" d="M47.194,262.372l.1-.208-.4-.194-.638,1.291.416.208.333-.68c.1-.194.25-.236.486-.125a.3.3,0,0,1,.111.069h0l.167-.347-.083-.042a.5.5,0,0,0-.527.028Z" transform="translate(-35.119 -256.113)" fill="#231916"/>
            <path id="Path_1719" data-name="Path 1719" d="M48.314,262.593a.768.768,0,0,0-1.11.291.788.788,0,0,0,.444,1.069.77.77,0,0,0,1.11-.305.784.784,0,0,0-.458-1.069Zm-.514,1.055a.417.417,0,1,1,.527-.208A.363.363,0,0,1,47.8,263.648Z" transform="translate(-34.782 -255.918)" fill="#231916"/>
          </g>
          <path id="Path_1720" data-name="Path 1720" d="M53.742,259.818a1.957,1.957,0,0,0-.389-2.637,11.865,11.865,0,0,0-1.5-.791l-.375-.18a.393.393,0,0,0-.6.194,1.351,1.351,0,0,0-.18.472c-.014.167.069.291.278.4l1.041.5h0c.638.305.985.555.708,1.124l-2.6-1.263c.514-1.1-.18-2.11-2.1-3.053l-1.915-.93a5.434,5.434,0,0,0-1.929-.625,1.607,1.607,0,0,0-1.652.972l-2.47,5.094a.451.451,0,0,0,.222.68,1.6,1.6,0,0,0,.541.208.441.441,0,0,0,.444-.291l.555-1.152,2.581,1.249c-.472,1.069.236,2.068,2.123,2.984l1.915.944a5.352,5.352,0,0,0,1.929.625,1.578,1.578,0,0,0,1.638-.958l1.721-3.539Zm-10.021-5.2c.208-.444.86-.4,1.915.111l1.874.9a6.721,6.721,0,0,1,.972.541c.389.278.514.569.4.86-1.707-.819-2.845-.652-3.4.486l-.583,1.207-2.581-1.249,1.4-2.873Zm4.677,3.456-.583,1.207c-.222.458-.791.486-1.693.042l.6-1.221c.222-.458.777-.458,1.679-.042Zm2.429,4.677c-.222.444-.86.4-1.915-.111l-1.874-.916a6,6,0,0,1-.972-.541c-.347-.278-.5-.541-.416-.8,1.707.819,2.845.652,3.414-.514l.583-1.207,2.581,1.249-1.374,2.831Z" transform="translate(-37.545 -253.027)" fill="#231916"/>
        </g>
        <g id="Group_967" data-name="Group 967" transform="translate(160.926 364.278)">
          <rect id="Rectangle_273" data-name="Rectangle 273" width="1.499" height="3.955" transform="translate(4.767 9.781) rotate(-16.38)" fill="#231916"/>
          <g id="Group_966" data-name="Group 966">
            <path id="Path_1721" data-name="Path 1721" d="M124.228,269.788a3.557,3.557,0,0,0-1.166.139c-.222.069-.611.194-.541.43.153.5,1.971-.555,2.4.916.291,1.013-.611,1.554-1.443,1.8a7,7,0,0,1-1.6.278l-.291-.985a3.493,3.493,0,0,0,1.36-.125c.333-.1.625-.264.569-.444-.153-.514-1.971.527-2.415-.944-.305-1.041.708-1.541,1.554-1.79a7.956,7.956,0,0,1,1.277-.236l.291.971Z" transform="translate(-114.347 -260.392)" fill="#231916"/>
            <path id="Path_1722" data-name="Path 1722" d="M125.821,268.3l1.43-.416,1.11,3.789-1.43.416-.4-1.36-.958.278.4,1.36-1.43.43L123.42,269l1.443-.43.389,1.318.944-.291Z" transform="translate(-113.427 -260.76)" fill="#231916"/>
            <rect id="Rectangle_274" data-name="Rectangle 274" width="1.499" height="3.955" transform="matrix(0.959, -0.283, 0.283, 0.959, 14.121, 7.025)" fill="#231916"/>
            <path id="Path_1723" data-name="Path 1723" d="M127.63,267.784l2.137-.625,1.471,2.457h.014l-.791-2.665,1.235-.361,1.11,3.789-2.1.611-1.541-2.526h-.014l.819,2.748-1.235.361Z" transform="translate(-111.794 -261.26)" fill="#231916"/>
            <path id="Path_1724" data-name="Path 1724" d="M132.631,268.221c-.111-.347-.264-1.055.264-1.221s.791.527.888.874c.111.4.291,1.055-.278,1.221-.514.153-.763-.472-.874-.874m2.651-.777a2.166,2.166,0,0,0-4.15,1.221,1.886,1.886,0,0,0,2.637,1.346,1.911,1.911,0,0,0,1.513-2.568" transform="translate(-110.48 -261.504)" fill="#231916"/>
            <path id="Path_1725" data-name="Path 1725" d="M133.83,266.047l2.123-.611,1.1,1.929.014-.014-.125-2.207,2.1-.625,1.124,3.789-1.291.375-.888-2.97h-.014l.139,3.192-1.18.361-1.6-2.776-.014.014.861,2.97-1.221.361Z" transform="translate(-109.389 -262.063)" fill="#231916"/>
            <rect id="Rectangle_275" data-name="Rectangle 275" width="1.499" height="3.955" transform="translate(29.904 2.379) rotate(-16.38)" fill="#231916"/>
            <path id="Path_1726" data-name="Path 1726" d="M142.5,266.27l.347,1.166-1.43.416-.347-1.152-2.165-2.221,1.568-.458,1.041,1.416.014-.014.125-1.749,1.471-.444Z" transform="translate(-107.419 -262.564)" fill="#231916"/>
            <path id="Path_1727" data-name="Path 1727" d="M143.378,263.874h0l.777,1.124-.833.25.042-1.36Zm-1.388,3.636,1.43-.416v-.888l1.194-.361.486.749,1.5-.444-2.443-3.4-1.971.583-.194,4.178Z" transform="translate(-106.224 -262.75)" fill="#231916"/>
            <path id="Path_1728" data-name="Path 1728" d="M119.365,270.221l.791,2.665h-.014l-1.471-2.47-2.151.638,1.11,3.789,1.235-.361-.8-2.748h.014l1.527,2.526,2.11-.611-1.11-3.789Z" transform="translate(-116.104 -259.992)" fill="#231916"/>
            <path id="Path_1729" data-name="Path 1729" d="M116.595,269.881l.056.194.319-.1.083.264-.333.1.139.458-.305.083-.333-1.166.652-.194.069.25Z" transform="translate(-116.22 -260.124)" fill="#231916"/>
            <path id="Path_1730" data-name="Path 1730" d="M118.159,269.754a.651.651,0,0,1-.444.833.635.635,0,0,1-.819-.458.666.666,0,0,1,1.277-.375m-.958.291a.341.341,0,1,0,.652-.194.326.326,0,0,0-.416-.208.339.339,0,0,0-.236.4" transform="translate(-115.967 -260.206)" fill="#231916"/>
            <path id="Path_1731" data-name="Path 1731" d="M119.139,269.464a.651.651,0,0,1-.444.833.64.64,0,0,1-.819-.458.666.666,0,0,1,1.277-.375m-.958.291a.348.348,0,0,0,.43.25.352.352,0,0,0,.222-.444.326.326,0,0,0-.416-.208.339.339,0,0,0-.236.4" transform="translate(-115.586 -260.318)" fill="#231916"/>
            <path id="Path_1732" data-name="Path 1732" d="M119.558,270.005l-.291.083-.278-.9-.236.069-.083-.25.791-.236.083.25-.25.083Z" transform="translate(-115.27 -260.415)" fill="#231916"/>
            <path id="Path_1733" data-name="Path 1733" d="M119.687,269.948l-.347-1.166.43-.125c.208-.056.361-.028.43.208a.26.26,0,0,1-.056.278h0a.271.271,0,0,1,.319.236c.069.25-.111.389-.319.444l-.458.139Zm.1-.791h.028c.083-.028.167-.069.125-.167s-.125-.083-.208-.056h-.014l.069.236Zm.139.472h.042c.083-.042.236-.069.194-.208s-.18-.083-.278-.056h-.028Z" transform="translate(-115.01 -260.468)" fill="#231916"/>
            <path id="Path_1734" data-name="Path 1734" d="M120.593,269.449v.222l-.333.1.1-1.291.319-.1.777,1.041-.319.1-.139-.18-.416.125Zm.028-.666h0v.4l.236-.069-.236-.333Z" transform="translate(-114.653 -260.566)" fill="#231916"/>
            <path id="Path_1735" data-name="Path 1735" d="M121.529,269.1l.361-.1.069.25-.652.194-.347-1.166.305-.083Z" transform="translate(-114.381 -260.636)" fill="#231916"/>
            <path id="Path_1736" data-name="Path 1736" d="M122.119,268.936l.361-.111.069.264-.652.194-.347-1.166.291-.1Z" transform="translate(-114.153 -260.706)" fill="#231916"/>
            <path id="Path_1737" data-name="Path 1737" d="M123.339,268.04a.338.338,0,0,0-.305-.056.321.321,0,0,0-.208.416.314.314,0,0,0,.4.222.385.385,0,0,0,.222-.194l.111.361a.884.884,0,0,1-.25.139.729.729,0,0,1-.486-.042.6.6,0,0,1-.319-.389.631.631,0,0,1,.43-.791.69.69,0,0,1,.291-.014l.111.361Z" transform="translate(-113.791 -260.836)" fill="#231916"/>
            <path id="Path_1738" data-name="Path 1738" d="M123.739,268.452l.361-.1.069.25-.652.194-.347-1.166.305-.083Z" transform="translate(-113.524 -260.888)" fill="#231916"/>
            <path id="Path_1739" data-name="Path 1739" d="M124.669,267.25l.194.652a.549.549,0,0,1,0,.444.514.514,0,0,1-.347.236.54.54,0,0,1-.416-.014.524.524,0,0,1-.236-.375l-.194-.652.305-.083.18.611c.042.153.111.319.291.264s.153-.222.111-.375l-.18-.611.305-.083Z" transform="translate(-113.33 -261.004)" fill="#231916"/>
            <path id="Path_1740" data-name="Path 1740" d="M124.847,268.428l-.347-1.166.43-.125c.208-.056.361-.028.43.208a.255.255,0,0,1-.056.278h0a.271.271,0,0,1,.319.236c.069.25-.111.389-.319.444l-.458.139Zm.083-.791h.042c.083-.028.153-.069.125-.167s-.125-.083-.208-.056h-.028l.069.236Zm.139.472h.042c.083-.042.236-.069.194-.208s-.18-.083-.278-.056H125Z" transform="translate(-113.008 -261.058)" fill="#231916"/>
          </g>
        </g>
      </g>
      <g id="Group_969" data-name="Group 969" transform="translate(118.165 119.441)">
        <path id="Path_1741" data-name="Path 1741" d="M90.962,119.275H85.41V86.34h5.552v32.935Z" transform="translate(-85.41 -86.34)" fill="#231916"/>
        <path id="Path_1742" data-name="Path 1742" d="M100.935,113.667a2.227,2.227,0,0,1-1.777.749,2.189,2.189,0,0,1-1.749-.749,5.212,5.212,0,0,1-.541-2.97V94.917a5.1,5.1,0,0,1,.6-3.026,2.083,2.083,0,0,1,1.693-.694,2.247,2.247,0,0,1,1.777.749,5.244,5.244,0,0,1,.541,2.97V110.7A5.212,5.212,0,0,1,100.935,113.667Zm5.746-17.21c0-3.844-.625-6.454-1.888-7.855a7.151,7.151,0,0,0-5.649-2.262A7.061,7.061,0,0,0,93.538,88.6c-1.249,1.4-1.888,4.011-1.888,7.855v12.7q0,5.767,1.888,7.855a7.1,7.1,0,0,0,5.607,2.262,7.19,7.19,0,0,0,5.649-2.262c1.249-1.388,1.888-4.011,1.888-7.855Z" transform="translate(-82.99 -86.34)" fill="#231916"/>
      </g>
      <g id="Group_970" data-name="Group 970" transform="translate(369.317 50.491)">
        <path id="Path_1743" data-name="Path 1743" d="M278.375,107.813H266.37V36.67h12.005Z" transform="translate(-266.37 -36.656)" fill="#231916"/>
        <path id="Path_1744" data-name="Path 1744" d="M299.9,95.7a4.784,4.784,0,0,1-3.831,1.624,4.641,4.641,0,0,1-3.761-1.624c-.791-.93-1.18-3.067-1.18-6.412V55.216c0-3.345.43-5.524,1.291-6.523a4.571,4.571,0,0,1,3.65-1.513A4.861,4.861,0,0,1,299.9,48.8c.791.93,1.18,3.081,1.18,6.412V89.289c0,3.345-.4,5.482-1.18,6.412Zm12.422-37.168q0-12.449-4.066-16.974-4.351-4.892-12.186-4.9c-5.218,0-9.2,1.638-12.116,4.9q-4.06,4.518-4.066,16.974V85.958q0,12.449,4.066,16.974,4.351,4.892,12.116,4.885c5.177,0,9.285-1.638,12.186-4.885q4.06-4.518,4.066-16.974V58.533Z" transform="translate(-261.126 -36.66)" fill="#231916"/>
      </g>
    </g>
  </g>
</svg>
