<svg xmlns="http://www.w3.org/2000/svg" xmlns:xlink="http://www.w3.org/1999/xlink" width="521.888" height="394.034" viewBox="0 0 521.888 394.034">
  <defs>
    <clipPath id="clip-path">
      <path id="Path_2073" data-name="Path 2073" d="M55.379,167.76,53.2,178.016s52.046,26.606,118.664.777l-2.8-10.409s-62.441,20.679-113.682-.625Z" transform="translate(-53.2 -167.76)" fill="none" stroke="#8f939f" stroke-width="0.5"/>
    </clipPath>
    <clipPath id="clip-path-2">
      <path id="Path_2141" data-name="Path 2141" d="M257.145,171.24h74.1a45.414,45.414,0,0,1,.056,10.784h-74.21A34.223,34.223,0,0,1,257.145,171.24Z" transform="translate(-256.698 -171.24)" fill="none" stroke="#8f939f" stroke-width="0.67"/>
    </clipPath>
    <linearGradient id="linear-gradient" x1="-88.535" y1="-32.84" x2="-88.535" y2="-30.263" gradientUnits="objectBoundingBox">
      <stop offset="0" stop-color="#fff"/>
      <stop offset="1"/>
    </linearGradient>
  </defs>
  <g id="レイヤー_1" data-name="レイヤー 1" transform="translate(0 0.351)">
    <g id="Group_1036" data-name="Group 1036" transform="translate(0 0)">
      <g id="Group_1007" data-name="Group 1007" transform="translate(264.282 2.068)">
        <path id="Path_1991" data-name="Path 1991" d="M319.119,12.023c-13.851.056-29.826-6.939-35-8.466l-93.7,33.809,16.655,54.919,44.482-7.092V213.28s70.768,31.089,135.305.583V83.583l42.386,6.523,18.209-53.253-99.623-35s-12.061,10.1-28.729,10.173Z" transform="translate(-190.42 -1.85)" fill="#870020"/>
      </g>
      <path id="Path_1992" data-name="Path 1992" d="M319.119,12.023c-13.851.056-28.7-7.495-33.892-9.021L190.42,37.366l16.655,54.919,44.482-7.092V213.28s70.768,31.089,135.305.583V83.583l42.386,6.523,18.209-53.253-99.623-35s-12.061,10.1-28.729,10.173Z" transform="translate(73.862 0.218)" fill="none" stroke="#b6b5b6" stroke-width="0.69"/>
      <path id="Path_1993" data-name="Path 1993" d="M130.08,37.137C116.2,37.193,100.31,4.522,95.106,2.981L.41,37.123,15.871,88.072l45.842-2.984V213.537s58.694,24.4,118.248,5.607c3.858-1.221,7.855-2.581,11.853-3.72a35.779,35.779,0,0,0,5.51-2.068l.069-129.878,43.122,4.608,17.654-50.824L158.268,1.51S146.791,37.068,130.08,37.137Z" transform="translate(0.159 0.086)" fill="#870020"/>
      <path id="Path_1994" data-name="Path 1994" d="M60.518,11.75.7,33.318,15.939,83.989l45.19-2.956c6.842-8.855,6.676-26.4,6.676-26.4.514-27.383-4.622-35.349-7.273-42.886Z" transform="translate(0.272 4.058)" fill="#a12a2d"/>
      <path id="Path_1995" data-name="Path 1995" d="M130.08,37.137c-9.132.042-16.946-14.823-22.72-25.454a21.731,21.731,0,0,0-10.6-9.243L.41,37.123,15.871,88.072l45.842-2.984V213.537s58.624,24.51,118.123,5.746c3.775-1.194,7.384-2.29,11.284-3.581a57.058,57.058,0,0,0,6.343-2.193l-.069-130.031,43.122,4.608,17.848-51.06L158.268,1.51S146.791,37.068,130.08,37.137Z" transform="translate(0.159 0.086)" fill="none" stroke="#8e919e" stroke-width="0.63"/>
      <path id="Path_1996" data-name="Path 1996" d="M144.789,12.03l59.443,21.193-17.46,50.464-43.3-4.955c-5.357-9.549-5.621-25.981-5.621-25.981.111-26.925,4.15-33.351,6.939-40.707Z" transform="translate(53.47 4.167)" fill="#a12a2d"/>
      <path id="Path_1997" data-name="Path 1997" d="M44.3,15.345,78.835,2.84s6.454,30.478,31.88,32.782S144.371,3.007,144.371,3.007l36.7,12.574-3.747,10.895-129.5.083c-1.554-6.606,0-2.054-3.525-11.214Z" transform="translate(17.18 0.602)" fill="#a12a2d"/>
      <path id="Path_1998" data-name="Path 1998" d="M250.322,12.3,190.49,33.868,207.256,88.19l43.663-7.384c6.842-8.855,6.676-26.4,6.676-26.4.514-27.383-4.622-34.572-7.273-42.108Z" transform="translate(73.889 4.271)" fill="#a12a2d"/>
      <path id="Path_1999" data-name="Path 1999" d="M334.637,12.4l58.68,20.666-17.585,52.5-42.275-6.759c-5.357-9.549-5.607-25.981-5.607-25.981.111-26.925,4.025-33.1,6.8-40.443Z" transform="translate(127.169 4.306)" fill="#a12a2d"/>
      <g id="Group_1010" data-name="Group 1010" transform="translate(44.593 232.929)">
        <path id="Path_2000" data-name="Path 2000" d="M63.649,168.2s52.643,20.152,113.585,0l31.505,133.875-6.648,5.746S187.6,335.167,134.945,322.7l-14.517-49.423-13.046,47.535c-.6.25-52.948,12.186-68.2-13.948l-7.05-6.232L63.621,168.19Z" transform="translate(-32.13 -168.19)" fill="#fff"/>
        <g id="Group_1009" data-name="Group 1009">
          <line id="Line_169" data-name="Line 169" y2="85.327" transform="translate(88.256 20.86)" fill="none" stroke="#8f939f" stroke-width="0.45"/>
          <g id="Group_1008" data-name="Group 1008">
            <path id="Path_2001" data-name="Path 2001" d="M63.649,168.2s52.643,20.152,113.585,0l31.505,133.875-6.648,5.746S187.6,335.167,134.945,322.7l-14.517-49.423-13.046,47.535c-.6.25-52.948,12.186-68.2-13.948l-7.05-6.232L63.621,168.19Z" transform="translate(-32.13 -168.19)" fill="#870020" stroke="#898989" stroke-width="0.5"/>
          </g>
        </g>
      </g>
      <g id="Group_1012" data-name="Group 1012" transform="translate(54.114 350.951)">
        <g id="Group_1011" data-name="Group 1011" transform="translate(0 6.568)">
          <path id="Path_2002" data-name="Path 2002" d="M40.766,258.418l-.93-.458h0l-.847,1.735.444.222s.291-.611.291-.625c.028,0,.472.236.472.236a.642.642,0,0,0,.93-.236.625.625,0,0,0-.375-.874Zm-.652.083.319.167c.264.125.347.236.25.4-.042.069-.125.25-.43.111l-.389-.18a5.248,5.248,0,0,1,.236-.486Z" transform="translate(-38.99 -257.96)" fill="#fff"/>
          <path id="Path_2003" data-name="Path 2003" d="M40.968,258.93l-.638,1.291.416.208.638-1.291h-.014Z" transform="translate(-38.47 -257.584)" fill="#fff"/>
          <path id="Path_2004" data-name="Path 2004" d="M41,258.6l-.167.333.43.194.153-.319-.014-.014Z" transform="translate(-38.276 -257.712)" fill="#fff"/>
          <path id="Path_2005" data-name="Path 2005" d="M42.931,259.882H42.9l-.472-.25s-.389.222-.416.25c0-.042-.069-.486-.069-.486l-.514-.236s.194.86.194.874l-.847.4.514.25s.4-.222.43-.25c0,.042.083.5.083.5l.514.25s-.208-.9-.208-.916.819-.389.819-.389Z" transform="translate(-38.296 -257.495)" fill="#fff"/>
          <path id="Path_2006" data-name="Path 2006" d="M43.324,260.012a.762.762,0,1,0-.652,1.36.763.763,0,1,0,.652-1.36Zm-.514,1.055a.358.358,0,0,1-.167-.541.369.369,0,0,1,.541-.208.375.375,0,0,1,.18.555.381.381,0,0,1-.541.208Z" transform="translate(-37.772 -257.208)" fill="#fff"/>
          <path id="Path_2007" data-name="Path 2007" d="M45.248,260.5l-.486-.25-1.582,1.388.472.222s.305-.278.319-.291.722.361.736.361c0,.028-.042.416-.042.416l.486.236.111-2.082h-.014Zm-.527,1.069s-.458-.222-.486-.25c.014-.014.527-.486.555-.514,0,.042-.069.722-.069.763Z" transform="translate(-37.365 -257.072)" fill="#fff"/>
          <path id="Path_2008" data-name="Path 2008" d="M45.607,260.76l-.847,1.749.43.194.833-1.735h-.014Z" transform="translate(-36.752 -256.874)" fill="#fff"/>
          <path id="Path_2009" data-name="Path 2009" d="M46.553,261.58a.761.761,0,1,0-.638,1.374.791.791,0,0,0,.888-.083h0l-.43-.222h0a.273.273,0,0,1-.305.028.332.332,0,0,1-.208-.458c.028,0,1.041.514,1.041.514l.028-.069a.723.723,0,0,0-.375-1.055Zm-.555.4a.294.294,0,0,1,.416-.1.311.311,0,0,1,.167.389A4.569,4.569,0,0,1,46,261.983Z" transform="translate(-36.505 -256.598)" fill="#fff"/>
          <path id="Path_2010" data-name="Path 2010" d="M47.095,261.91,46.47,263.2l.416.208.625-1.291L47.5,262.1Z" transform="translate(-36.089 -256.428)" fill="#fff"/>
          <path id="Path_2011" data-name="Path 2011" d="M47.123,261.58l-.153.333.4.208.167-.333v-.014Z" transform="translate(-35.895 -256.556)" fill="#fff"/>
          <path id="Path_2012" data-name="Path 2012" d="M47.96,262.582l.1-.208-.4-.194-.625,1.291.416.208.333-.666c.1-.194.25-.236.486-.125a.3.3,0,0,1,.111.069h0l.167-.347-.083-.056a.476.476,0,0,0-.527.042Z" transform="translate(-35.871 -256.323)" fill="#fff"/>
          <path id="Path_2013" data-name="Path 2013" d="M49.074,262.8a.779.779,0,0,0-1.11.291.788.788,0,0,0,.444,1.069.762.762,0,1,0,.652-1.36Zm-.514,1.055a.417.417,0,1,1,.527-.208A.363.363,0,0,1,48.561,263.856Z" transform="translate(-35.542 -256.126)" fill="#fff"/>
        </g>
        <path id="Path_2014" data-name="Path 2014" d="M54.512,260.018a1.954,1.954,0,0,0-.389-2.637,11.868,11.868,0,0,0-1.5-.791l-.375-.18a.393.393,0,0,0-.6.194,1.767,1.767,0,0,0-.18.472c-.028.167.069.291.264.4l1.041.5h0c.638.305.985.555.708,1.124l-2.6-1.263c.514-1.1-.18-2.11-2.1-3.053l-1.915-.93a5.433,5.433,0,0,0-1.929-.625,1.578,1.578,0,0,0-1.638.971l-2.47,5.094a.451.451,0,0,0,.222.68,1.594,1.594,0,0,0,.541.208.43.43,0,0,0,.444-.291l.555-1.152,2.581,1.249c-.472,1.069.236,2.068,2.123,2.984l1.915.944a5.353,5.353,0,0,0,1.929.625,1.578,1.578,0,0,0,1.638-.958l1.721-3.539Zm-10.021-5.2c.208-.444.86-.4,1.915.111l1.874.9a6.718,6.718,0,0,1,.972.541c.389.278.527.569.4.86-1.707-.819-2.845-.652-3.4.486l-.583,1.207-2.581-1.249,1.4-2.873Zm4.677,3.456-.583,1.207c-.222.458-.791.486-1.693.042l.6-1.221c.222-.444.777-.458,1.679-.042Zm2.429,4.677c-.222.444-.86.4-1.915-.111l-1.874-.916a7.826,7.826,0,0,1-.972-.527c-.347-.278-.5-.541-.416-.8,1.707.819,2.845.652,3.414-.514l.583-1.207L53,260.115l-1.374,2.831Z" transform="translate(-38.301 -253.227)" fill="#fff"/>
      </g>
      <g id="Group_1015" data-name="Group 1015" transform="translate(73.836 232.332)">
        <g id="Group_1014" data-name="Group 1014" clip-path="url(#clip-path)">
          <g id="Group_1013" data-name="Group 1013" transform="translate(-2.984 -0.791)">
            <path id="Path_2015" data-name="Path 2015" d="M140.409,191.228,137.98,167.19" transform="translate(-17.331 -167.19)" fill="none" stroke="#8f939f" stroke-linecap="round" stroke-linejoin="round" stroke-width="0.22"/>
            <path id="Path_2016" data-name="Path 2016" d="M138.836,191.228,136.49,167.19" transform="translate(-17.909 -167.19)" fill="none" stroke="#8f939f" stroke-linecap="round" stroke-linejoin="round" stroke-width="0.22"/>
            <path id="Path_2017" data-name="Path 2017" d="M137.256,191.228,134.98,167.19" transform="translate(-18.495 -167.19)" fill="none" stroke="#8f939f" stroke-linecap="round" stroke-linejoin="round" stroke-width="0.22"/>
            <path id="Path_2018" data-name="Path 2018" d="M135.687,191.228,133.48,167.19" transform="translate(-19.076 -167.19)" fill="none" stroke="#8f939f" stroke-linecap="round" stroke-linejoin="round" stroke-width="0.22"/>
            <path id="Path_2019" data-name="Path 2019" d="M134.107,191.228,131.97,167.19" transform="translate(-19.662 -167.19)" fill="none" stroke="#8f939f" stroke-linecap="round" stroke-linejoin="round" stroke-width="0.22"/>
            <path id="Path_2020" data-name="Path 2020" d="M132.534,191.228,130.48,167.19" transform="translate(-20.24 -167.19)" fill="none" stroke="#8f939f" stroke-linecap="round" stroke-linejoin="round" stroke-width="0.22"/>
            <path id="Path_2021" data-name="Path 2021" d="M130.951,191.228,128.98,167.19" transform="translate(-20.822 -167.19)" fill="none" stroke="#8f939f" stroke-linecap="round" stroke-linejoin="round" stroke-width="0.22"/>
            <path id="Path_2022" data-name="Path 2022" d="M129.371,191.228l-1.9-24.038" transform="translate(-21.408 -167.19)" fill="none" stroke="#8f939f" stroke-linecap="round" stroke-linejoin="round" stroke-width="0.22"/>
            <path id="Path_2023" data-name="Path 2023" d="M127.806,191.228,125.96,167.19" transform="translate(-21.993 -167.19)" fill="none" stroke="#8f939f" stroke-linecap="round" stroke-linejoin="round" stroke-width="0.22"/>
            <path id="Path_2024" data-name="Path 2024" d="M126.219,191.228,124.47,167.19" transform="translate(-22.571 -167.19)" fill="none" stroke="#8f939f" stroke-linecap="round" stroke-linejoin="round" stroke-width="0.22"/>
            <path id="Path_2025" data-name="Path 2025" d="M124.653,191.228,122.96,167.19" transform="translate(-23.157 -167.19)" fill="none" stroke="#8f939f" stroke-linecap="round" stroke-linejoin="round" stroke-width="0.22"/>
            <path id="Path_2026" data-name="Path 2026" d="M123.07,191.228l-1.61-24.038" transform="translate(-23.739 -167.19)" fill="none" stroke="#8f939f" stroke-linecap="round" stroke-linejoin="round" stroke-width="0.22"/>
            <path id="Path_2027" data-name="Path 2027" d="M121.491,191.228,119.95,167.19" transform="translate(-24.324 -167.19)" fill="none" stroke="#8f939f" stroke-linecap="round" stroke-linejoin="round" stroke-width="0.22"/>
            <path id="Path_2028" data-name="Path 2028" d="M119.917,191.228,118.46,167.19" transform="translate(-24.902 -167.19)" fill="none" stroke="#8f939f" stroke-linecap="round" stroke-linejoin="round" stroke-width="0.22"/>
            <path id="Path_2029" data-name="Path 2029" d="M118.338,191.228,116.95,167.19" transform="translate(-25.488 -167.19)" fill="none" stroke="#8f939f" stroke-linecap="round" stroke-linejoin="round" stroke-width="0.22"/>
            <path id="Path_2030" data-name="Path 2030" d="M116.768,191.228,115.45,167.19" transform="translate(-26.07 -167.19)" fill="none" stroke="#8f939f" stroke-linecap="round" stroke-linejoin="round" stroke-width="0.22"/>
            <path id="Path_2031" data-name="Path 2031" d="M115.185,191.228,113.95,167.19" transform="translate(-26.652 -167.19)" fill="none" stroke="#8f939f" stroke-linecap="round" stroke-linejoin="round" stroke-width="0.22"/>
            <path id="Path_2032" data-name="Path 2032" d="M113.6,191.228,112.45,167.19" transform="translate(-27.234 -167.19)" fill="none" stroke="#8f939f" stroke-linecap="round" stroke-linejoin="round" stroke-width="0.22"/>
            <path id="Path_2033" data-name="Path 2033" d="M112.033,191.228,110.95,167.19" transform="translate(-27.815 -167.19)" fill="none" stroke="#8f939f" stroke-linecap="round" stroke-linejoin="round" stroke-width="0.22"/>
            <path id="Path_2034" data-name="Path 2034" d="M110.449,191.228l-1-24.038" transform="translate(-28.397 -167.19)" fill="none" stroke="#8f939f" stroke-linecap="round" stroke-linejoin="round" stroke-width="0.22"/>
            <path id="Path_2035" data-name="Path 2035" d="M108.87,191.228l-.93-24.038" transform="translate(-28.983 -167.19)" fill="none" stroke="#8f939f" stroke-linecap="round" stroke-linejoin="round" stroke-width="0.22"/>
            <path id="Path_2036" data-name="Path 2036" d="M107.3,191.228l-.861-24.038" transform="translate(-29.565 -167.19)" fill="none" stroke="#8f939f" stroke-linecap="round" stroke-linejoin="round" stroke-width="0.22"/>
            <path id="Path_2037" data-name="Path 2037" d="M105.717,191.228l-.777-24.038" transform="translate(-30.147 -167.19)" fill="none" stroke="#8f939f" stroke-linecap="round" stroke-linejoin="round" stroke-width="0.22"/>
            <path id="Path_2038" data-name="Path 2038" d="M104.152,191.228l-.722-24.038" transform="translate(-30.732 -167.19)" fill="none" stroke="#8f939f" stroke-linecap="round" stroke-linejoin="round" stroke-width="0.22"/>
            <path id="Path_2039" data-name="Path 2039" d="M102.568,191.228l-.638-24.038" transform="translate(-31.314 -167.19)" fill="none" stroke="#8f939f" stroke-linecap="round" stroke-linejoin="round" stroke-width="0.22"/>
            <path id="Path_2040" data-name="Path 2040" d="M100.985,191.228l-.555-24.038" transform="translate(-31.896 -167.19)" fill="none" stroke="#8f939f" stroke-linecap="round" stroke-linejoin="round" stroke-width="0.22"/>
            <path id="Path_2041" data-name="Path 2041" d="M99.416,191.228,98.93,167.19" transform="translate(-32.478 -167.19)" fill="none" stroke="#8f939f" stroke-linecap="round" stroke-linejoin="round" stroke-width="0.22"/>
            <path id="Path_2042" data-name="Path 2042" d="M97.846,191.228,97.43,167.19" transform="translate(-33.06 -167.19)" fill="none" stroke="#8f939f" stroke-linecap="round" stroke-linejoin="round" stroke-width="0.22"/>
            <path id="Path_2043" data-name="Path 2043" d="M96.281,191.228,95.92,167.19" transform="translate(-33.645 -167.19)" fill="none" stroke="#8f939f" stroke-linecap="round" stroke-linejoin="round" stroke-width="0.22"/>
            <path id="Path_2044" data-name="Path 2044" d="M94.694,191.228,94.43,167.19" transform="translate(-34.223 -167.19)" fill="none" stroke="#8f939f" stroke-linecap="round" stroke-linejoin="round" stroke-width="0.22"/>
            <path id="Path_2045" data-name="Path 2045" d="M93.114,191.228,92.92,167.19" transform="translate(-34.809 -167.19)" fill="none" stroke="#8f939f" stroke-linecap="round" stroke-linejoin="round" stroke-width="0.22"/>
            <path id="Path_2046" data-name="Path 2046" d="M91.531,191.228,91.42,167.19" transform="translate(-35.391 -167.19)" fill="none" stroke="#8f939f" stroke-linecap="round" stroke-linejoin="round" stroke-width="0.22"/>
            <path id="Path_2047" data-name="Path 2047" d="M89.948,191.228,89.92,167.19" transform="translate(-35.973 -167.19)" fill="none" stroke="#8f939f" stroke-linecap="round" stroke-linejoin="round" stroke-width="0.22"/>
            <path id="Path_2048" data-name="Path 2048" d="M88.39,191.228l.028-24.038" transform="translate(-36.566 -167.19)" fill="none" stroke="#8f939f" stroke-linecap="round" stroke-linejoin="round" stroke-width="0.22"/>
            <path id="Path_2049" data-name="Path 2049" d="M86.84,191.228l.1-24.038" transform="translate(-37.167 -167.19)" fill="none" stroke="#8f939f" stroke-linecap="round" stroke-linejoin="round" stroke-width="0.22"/>
            <path id="Path_2050" data-name="Path 2050" d="M85.28,191.228l.194-24.038" transform="translate(-37.773 -167.19)" fill="none" stroke="#8f939f" stroke-linecap="round" stroke-linejoin="round" stroke-width="0.22"/>
            <path id="Path_2051" data-name="Path 2051" d="M83.73,191.228l.25-24.038" transform="translate(-38.374 -167.19)" fill="none" stroke="#8f939f" stroke-linecap="round" stroke-linejoin="round" stroke-width="0.22"/>
            <path id="Path_2052" data-name="Path 2052" d="M82.16,191.228l.333-24.038" transform="translate(-38.983 -167.19)" fill="none" stroke="#8f939f" stroke-linecap="round" stroke-linejoin="round" stroke-width="0.22"/>
            <path id="Path_2053" data-name="Path 2053" d="M80.61,191.228l.416-24.038" transform="translate(-39.584 -167.19)" fill="none" stroke="#8f939f" stroke-linecap="round" stroke-linejoin="round" stroke-width="0.22"/>
            <path id="Path_2054" data-name="Path 2054" d="M79.05,191.228l.472-24.038" transform="translate(-40.189 -167.19)" fill="none" stroke="#8f939f" stroke-linecap="round" stroke-linejoin="round" stroke-width="0.22"/>
            <path id="Path_2055" data-name="Path 2055" d="M77.49,191.228l.569-24.038" transform="translate(-40.794 -167.19)" fill="none" stroke="#8f939f" stroke-linecap="round" stroke-linejoin="round" stroke-width="0.22"/>
            <path id="Path_2056" data-name="Path 2056" d="M75.94,191.228l.638-24.038" transform="translate(-41.395 -167.19)" fill="none" stroke="#8f939f" stroke-linecap="round" stroke-linejoin="round" stroke-width="0.22"/>
            <path id="Path_2057" data-name="Path 2057" d="M74.38,191.228l.708-24.038" transform="translate(-42.001 -167.19)" fill="none" stroke="#8f939f" stroke-linecap="round" stroke-linejoin="round" stroke-width="0.22"/>
            <path id="Path_2058" data-name="Path 2058" d="M72.83,191.228l.777-24.038" transform="translate(-42.602 -167.19)" fill="none" stroke="#8f939f" stroke-linecap="round" stroke-linejoin="round" stroke-width="0.22"/>
            <path id="Path_2059" data-name="Path 2059" d="M71.27,191.228l.861-24.038" transform="translate(-43.207 -167.19)" fill="none" stroke="#8f939f" stroke-linecap="round" stroke-linejoin="round" stroke-width="0.22"/>
            <path id="Path_2060" data-name="Path 2060" d="M69.72,191.228l.93-24.038" transform="translate(-43.808 -167.19)" fill="none" stroke="#8f939f" stroke-linecap="round" stroke-linejoin="round" stroke-width="0.22"/>
            <path id="Path_2061" data-name="Path 2061" d="M68.16,191.228l1-24.038" transform="translate(-44.413 -167.19)" fill="none" stroke="#8f939f" stroke-linecap="round" stroke-linejoin="round" stroke-width="0.22"/>
            <path id="Path_2062" data-name="Path 2062" d="M66.6,191.228l1.083-24.038" transform="translate(-45.018 -167.19)" fill="none" stroke="#8f939f" stroke-linecap="round" stroke-linejoin="round" stroke-width="0.22"/>
            <path id="Path_2063" data-name="Path 2063" d="M65.05,191.228,66.2,167.19" transform="translate(-45.62 -167.19)" fill="none" stroke="#8f939f" stroke-linecap="round" stroke-linejoin="round" stroke-width="0.22"/>
            <path id="Path_2064" data-name="Path 2064" d="M63.49,191.228l1.235-24.038" transform="translate(-46.225 -167.19)" fill="none" stroke="#8f939f" stroke-linecap="round" stroke-linejoin="round" stroke-width="0.22"/>
            <path id="Path_2065" data-name="Path 2065" d="M61.94,191.228l1.291-24.038" transform="translate(-46.826 -167.19)" fill="none" stroke="#8f939f" stroke-linecap="round" stroke-linejoin="round" stroke-width="0.22"/>
            <path id="Path_2066" data-name="Path 2066" d="M60.39,191.228l1.36-24.038" transform="translate(-47.427 -167.19)" fill="none" stroke="#8f939f" stroke-linecap="round" stroke-linejoin="round" stroke-width="0.22"/>
            <path id="Path_2067" data-name="Path 2067" d="M58.83,191.228l1.457-24.038" transform="translate(-48.032 -167.19)" fill="none" stroke="#8f939f" stroke-linecap="round" stroke-linejoin="round" stroke-width="0.22"/>
            <path id="Path_2068" data-name="Path 2068" d="M57.27,191.228,58.8,167.19" transform="translate(-48.637 -167.19)" fill="none" stroke="#8f939f" stroke-linecap="round" stroke-linejoin="round" stroke-width="0.22"/>
            <path id="Path_2069" data-name="Path 2069" d="M55.71,191.228l1.6-24.038" transform="translate(-49.242 -167.19)" fill="none" stroke="#8f939f" stroke-linecap="round" stroke-linejoin="round" stroke-width="0.22"/>
            <path id="Path_2070" data-name="Path 2070" d="M54.16,191.228l1.679-24.038" transform="translate(-49.844 -167.19)" fill="none" stroke="#8f939f" stroke-linecap="round" stroke-linejoin="round" stroke-width="0.22"/>
            <path id="Path_2071" data-name="Path 2071" d="M52.61,191.228l1.749-24.038" transform="translate(-50.445 -167.19)" fill="none" stroke="#8f939f" stroke-linecap="round" stroke-linejoin="round" stroke-width="0.22"/>
            <path id="Path_2072" data-name="Path 2072" d="M51.05,191.228l1.832-24.038" transform="translate(-51.05 -167.19)" fill="none" stroke="#8f939f" stroke-linecap="round" stroke-linejoin="round" stroke-width="0.22"/>
          </g>
        </g>
        <path id="Path_2074" data-name="Path 2074" d="M55.379,167.76,53.2,178.016s52.046,26.606,118.664.777l-2.8-10.409s-62.441,20.679-113.682-.625Z" transform="translate(-53.2 -167.76)" fill="none" stroke="#8f939f" stroke-width="0.5"/>
      </g>
      <path id="Path_2075" data-name="Path 2075" d="M191.518,309.861c5.593-5.663,9.229-10.576,15.128-14.587L176.737,168.2c-60.942,20.152-113.585,0-113.585,0L33.41,293.235c5.746,4.663,11.186,12.408,17.7,15.836,5.191,2.734,24.01,14.087,57.9,4.053l10.923-39.846,12.588,42.872c34.17,10.215,53.808-1.041,59-6.3Z" transform="translate(12.959 64.743)" fill="none"/>
      <g id="Group_1016" data-name="Group 1016" transform="translate(46.05 242.963)">
        <path id="Path_2076" data-name="Path 2076" d="M52.92,175.42s54.2,25.065,118.873.6" transform="translate(-25.523 -175.42)" fill="none" stroke="#8f939f" stroke-width="0.45"/>
        <path id="Path_2077" data-name="Path 2077" d="M179.566,260.93l-5.524,3.942s-20.888,33.115-68.992,16.557" transform="translate(-5.302 -142.252)" fill="none" stroke="#8f939f" stroke-width="0.32" stroke-dasharray="0 1.03"/>
        <path id="Path_2078" data-name="Path 2078" d="M33.18,259.51l7.092,6.7s19.708,27.591,68.6,12.616" transform="translate(-33.18 -142.803)" fill="none" stroke="#8f939f" stroke-width="0.32" stroke-dasharray="0 1.03"/>
      </g>
      <g id="Group_1017" data-name="Group 1017" transform="translate(348.096 237.148)">
        <path id="Path_2079" data-name="Path 2079" d="M259.429,171.23h74.1V181.4s22.206,32.157,4.941,84.134v55.2s-54.933,14.462-87.659,1.055V223.734s1.221-31.6,8.633-41.789V171.23Z" transform="translate(-250.81 -171.23)" fill="#fff"/>
        <line id="Line_170" data-name="Line 170" x2="74.099" transform="translate(8.619 10.714)" fill="none" stroke="#8f939f" stroke-width="0.45"/>
        <path id="Path_2080" data-name="Path 2080" d="M259.429,171.23h74.1V181.4s22.206,32.157,4.941,84.134v55.2s-54.933,14.462-87.659,1.055V223.734s1.221-31.6,8.633-41.789V171.23Z" transform="translate(-250.81 -171.23)" fill="none" stroke="#8f939f" stroke-width="0.45"/>
      </g>
      <path id="Path_2081" data-name="Path 2081" d="M333.532,181.4V171.23h-74.1v10.714c-7.4,10.187-8.633,41.789-8.633,41.789v98.054c32.726,13.407,87.659-1.055,87.659-1.055v-55.2c17.279-51.976-4.941-84.134-4.941-84.134Z" transform="translate(97.282 65.918)" fill="#870020" stroke="#898989" stroke-width="0.5"/>
      <path id="Path_2082" data-name="Path 2082" d="M250.43,277.347s38.125,15.308,88.811-1.457" transform="translate(97.139 106.514)" fill="none" stroke="#8f939f" stroke-width="0.33" stroke-dasharray="0 1.01"/>
      <g id="Group_1020" data-name="Group 1020" transform="translate(356.268 237.162)">
        <g id="Group_1019" data-name="Group 1019" clip-path="url(#clip-path-2)">
          <g id="Group_1018" data-name="Group 1018" transform="translate(-28.185 -7.453)">
            <path id="Path_2083" data-name="Path 2083" d="M327.834,190.463,325.35,165.87" transform="translate(-201.883 -165.87)" fill="none" stroke="#8f939f" stroke-linecap="round" stroke-linejoin="round" stroke-width="0.22"/>
            <path id="Path_2084" data-name="Path 2084" d="M326.221,190.463l-2.4-24.593" transform="translate(-202.477 -165.87)" fill="none" stroke="#8f939f" stroke-linecap="round" stroke-linejoin="round" stroke-width="0.22"/>
            <path id="Path_2085" data-name="Path 2085" d="M324.612,190.463,322.28,165.87" transform="translate(-203.074 -165.87)" fill="none" stroke="#8f939f" stroke-linecap="round" stroke-linejoin="round" stroke-width="0.22"/>
            <path id="Path_2086" data-name="Path 2086" d="M323,190.463,320.75,165.87" transform="translate(-203.668 -165.87)" fill="none" stroke="#8f939f" stroke-linecap="round" stroke-linejoin="round" stroke-width="0.22"/>
            <path id="Path_2087" data-name="Path 2087" d="M321.393,190.463,319.2,165.87" transform="translate(-204.269 -165.87)" fill="none" stroke="#8f939f" stroke-linecap="round" stroke-linejoin="round" stroke-width="0.22"/>
            <path id="Path_2088" data-name="Path 2088" d="M319.776,190.463l-2.1-24.593" transform="translate(-204.859 -165.87)" fill="none" stroke="#8f939f" stroke-linecap="round" stroke-linejoin="round" stroke-width="0.22"/>
            <path id="Path_2089" data-name="Path 2089" d="M318.156,190.463,316.13,165.87" transform="translate(-205.46 -165.87)" fill="none" stroke="#8f939f" stroke-linecap="round" stroke-linejoin="round" stroke-width="0.22"/>
            <path id="Path_2090" data-name="Path 2090" d="M316.533,190.463,314.59,165.87" transform="translate(-206.057 -165.87)" fill="none" stroke="#8f939f" stroke-linecap="round" stroke-linejoin="round" stroke-width="0.22"/>
            <path id="Path_2091" data-name="Path 2091" d="M314.938,190.463,313.05,165.87" transform="translate(-206.654 -165.87)" fill="none" stroke="#8f939f" stroke-linecap="round" stroke-linejoin="round" stroke-width="0.22"/>
            <path id="Path_2092" data-name="Path 2092" d="M313.324,190.463l-1.8-24.593" transform="translate(-207.248 -165.87)" fill="none" stroke="#8f939f" stroke-linecap="round" stroke-linejoin="round" stroke-width="0.22"/>
            <path id="Path_2093" data-name="Path 2093" d="M311.7,190.463,309.98,165.87" transform="translate(-207.845 -165.87)" fill="none" stroke="#8f939f" stroke-linecap="round" stroke-linejoin="round" stroke-width="0.22"/>
            <path id="Path_2094" data-name="Path 2094" d="M310.088,190.463,308.45,165.87" transform="translate(-208.439 -165.87)" fill="none" stroke="#8f939f" stroke-linecap="round" stroke-linejoin="round" stroke-width="0.22"/>
            <path id="Path_2095" data-name="Path 2095" d="M308.468,190.463,306.9,165.87" transform="translate(-209.04 -165.87)" fill="none" stroke="#8f939f" stroke-linecap="round" stroke-linejoin="round" stroke-width="0.22"/>
            <path id="Path_2096" data-name="Path 2096" d="M306.869,190.463l-1.5-24.593" transform="translate(-209.633 -165.87)" fill="none" stroke="#8f939f" stroke-linecap="round" stroke-linejoin="round" stroke-width="0.22"/>
            <path id="Path_2097" data-name="Path 2097" d="M305.246,190.463,303.83,165.87" transform="translate(-210.231 -165.87)" fill="none" stroke="#8f939f" stroke-linecap="round" stroke-linejoin="round" stroke-width="0.22"/>
            <path id="Path_2098" data-name="Path 2098" d="M303.646,190.463,302.3,165.87" transform="translate(-210.824 -165.87)" fill="none" stroke="#8f939f" stroke-linecap="round" stroke-linejoin="round" stroke-width="0.22"/>
            <path id="Path_2099" data-name="Path 2099" d="M302.019,190.463,300.77,165.87" transform="translate(-211.418 -165.87)" fill="none" stroke="#8f939f" stroke-linecap="round" stroke-linejoin="round" stroke-width="0.22"/>
            <path id="Path_2100" data-name="Path 2100" d="M300.41,190.463l-1.18-24.593" transform="translate(-212.015 -165.87)" fill="none" stroke="#8f939f" stroke-linecap="round" stroke-linejoin="round" stroke-width="0.22"/>
            <path id="Path_2101" data-name="Path 2101" d="M298.79,190.463l-1.11-24.593" transform="translate(-212.616 -165.87)" fill="none" stroke="#8f939f" stroke-linecap="round" stroke-linejoin="round" stroke-width="0.22"/>
            <path id="Path_2102" data-name="Path 2102" d="M297.177,190.463,296.15,165.87" transform="translate(-213.21 -165.87)" fill="none" stroke="#8f939f" stroke-linecap="round" stroke-linejoin="round" stroke-width="0.22"/>
            <path id="Path_2103" data-name="Path 2103" d="M295.568,190.463l-.958-24.593" transform="translate(-213.807 -165.87)" fill="none" stroke="#8f939f" stroke-linecap="round" stroke-linejoin="round" stroke-width="0.22"/>
            <path id="Path_2104" data-name="Path 2104" d="M293.972,190.463l-.9-24.593" transform="translate(-214.404 -165.87)" fill="none" stroke="#8f939f" stroke-linecap="round" stroke-linejoin="round" stroke-width="0.22"/>
            <path id="Path_2105" data-name="Path 2105" d="M292.331,190.463l-.791-24.593" transform="translate(-214.998 -165.87)" fill="none" stroke="#8f939f" stroke-linecap="round" stroke-linejoin="round" stroke-width="0.22"/>
            <path id="Path_2106" data-name="Path 2106" d="M290.736,190.463,290,165.87" transform="translate(-215.595 -165.87)" fill="none" stroke="#8f939f" stroke-linecap="round" stroke-linejoin="round" stroke-width="0.22"/>
            <path id="Path_2107" data-name="Path 2107" d="M289.112,190.463l-.652-24.593" transform="translate(-216.193 -165.87)" fill="none" stroke="#8f939f" stroke-linecap="round" stroke-linejoin="round" stroke-width="0.22"/>
            <path id="Path_2108" data-name="Path 2108" d="M287.5,190.463l-.569-24.593" transform="translate(-216.786 -165.87)" fill="none" stroke="#8f939f" stroke-linecap="round" stroke-linejoin="round" stroke-width="0.22"/>
            <path id="Path_2109" data-name="Path 2109" d="M285.89,190.463l-.5-24.593" transform="translate(-217.383 -165.87)" fill="none" stroke="#8f939f" stroke-linecap="round" stroke-linejoin="round" stroke-width="0.22"/>
            <path id="Path_2110" data-name="Path 2110" d="M284.276,190.463l-.416-24.593" transform="translate(-217.977 -165.87)" fill="none" stroke="#8f939f" stroke-linecap="round" stroke-linejoin="round" stroke-width="0.22"/>
            <path id="Path_2111" data-name="Path 2111" d="M282.671,190.463l-.361-24.593" transform="translate(-218.578 -165.87)" fill="none" stroke="#8f939f" stroke-linecap="round" stroke-linejoin="round" stroke-width="0.22"/>
            <path id="Path_2112" data-name="Path 2112" d="M281.058,190.463l-.278-24.593" transform="translate(-219.172 -165.87)" fill="none" stroke="#8f939f" stroke-linecap="round" stroke-linejoin="round" stroke-width="0.22"/>
            <path id="Path_2113" data-name="Path 2113" d="M279.448,190.463l-.208-24.593" transform="translate(-219.769 -165.87)" fill="none" stroke="#8f939f" stroke-linecap="round" stroke-linejoin="round" stroke-width="0.22"/>
            <path id="Path_2114" data-name="Path 2114" d="M277.821,190.463l-.111-24.593" transform="translate(-220.362 -165.87)" fill="none" stroke="#8f939f" stroke-linecap="round" stroke-linejoin="round" stroke-width="0.22"/>
            <path id="Path_2115" data-name="Path 2115" d="M276.212,190.463l-.042-24.593" transform="translate(-220.96 -165.87)" fill="none" stroke="#8f939f" stroke-linecap="round" stroke-linejoin="round" stroke-width="0.22"/>
            <path id="Path_2116" data-name="Path 2116" d="M274.61,190.463l.028-24.593" transform="translate(-221.565 -165.87)" fill="none" stroke="#8f939f" stroke-linecap="round" stroke-linejoin="round" stroke-width="0.22"/>
            <path id="Path_2117" data-name="Path 2117" d="M273.01,190.463l.111-24.593" transform="translate(-222.186 -165.87)" fill="none" stroke="#8f939f" stroke-linecap="round" stroke-linejoin="round" stroke-width="0.22"/>
            <path id="Path_2118" data-name="Path 2118" d="M271.42,190.463l.194-24.593" transform="translate(-222.802 -165.87)" fill="none" stroke="#8f939f" stroke-linecap="round" stroke-linejoin="round" stroke-width="0.22"/>
            <path id="Path_2119" data-name="Path 2119" d="M269.83,190.463l.25-24.593" transform="translate(-223.419 -165.87)" fill="none" stroke="#8f939f" stroke-linecap="round" stroke-linejoin="round" stroke-width="0.22"/>
            <path id="Path_2120" data-name="Path 2120" d="M268.23,190.463l.333-24.593" transform="translate(-224.04 -165.87)" fill="none" stroke="#8f939f" stroke-linecap="round" stroke-linejoin="round" stroke-width="0.22"/>
            <path id="Path_2121" data-name="Path 2121" d="M266.64,190.463l.416-24.593" transform="translate(-224.656 -165.87)" fill="none" stroke="#8f939f" stroke-linecap="round" stroke-linejoin="round" stroke-width="0.22"/>
            <path id="Path_2122" data-name="Path 2122" d="M265.05,190.463l.486-24.593" transform="translate(-225.273 -165.87)" fill="none" stroke="#8f939f" stroke-linecap="round" stroke-linejoin="round" stroke-width="0.22"/>
            <path id="Path_2123" data-name="Path 2123" d="M263.46,190.463l.583-24.593" transform="translate(-225.89 -165.87)" fill="none" stroke="#8f939f" stroke-linecap="round" stroke-linejoin="round" stroke-width="0.22"/>
            <path id="Path_2124" data-name="Path 2124" d="M261.87,190.463l.638-24.593" transform="translate(-226.507 -165.87)" fill="none" stroke="#8f939f" stroke-linecap="round" stroke-linejoin="round" stroke-width="0.22"/>
            <path id="Path_2125" data-name="Path 2125" d="M260.27,190.463l.722-24.593" transform="translate(-227.127 -165.87)" fill="none" stroke="#8f939f" stroke-linecap="round" stroke-linejoin="round" stroke-width="0.22"/>
            <path id="Path_2126" data-name="Path 2126" d="M258.68,190.463l.791-24.593" transform="translate(-227.744 -165.87)" fill="none" stroke="#8f939f" stroke-linecap="round" stroke-linejoin="round" stroke-width="0.22"/>
            <path id="Path_2127" data-name="Path 2127" d="M257.09,190.463l.874-24.593" transform="translate(-228.361 -165.87)" fill="none" stroke="#8f939f" stroke-linecap="round" stroke-linejoin="round" stroke-width="0.22"/>
            <path id="Path_2128" data-name="Path 2128" d="M255.5,190.463l.944-24.593" transform="translate(-228.977 -165.87)" fill="none" stroke="#8f939f" stroke-linecap="round" stroke-linejoin="round" stroke-width="0.22"/>
            <path id="Path_2129" data-name="Path 2129" d="M253.91,190.463l1.027-24.593" transform="translate(-229.594 -165.87)" fill="none" stroke="#8f939f" stroke-linecap="round" stroke-linejoin="round" stroke-width="0.22"/>
            <path id="Path_2130" data-name="Path 2130" d="M252.31,190.463l1.11-24.593" transform="translate(-230.215 -165.87)" fill="none" stroke="#8f939f" stroke-linecap="round" stroke-linejoin="round" stroke-width="0.22"/>
            <path id="Path_2131" data-name="Path 2131" d="M250.72,190.463l1.18-24.593" transform="translate(-230.832 -165.87)" fill="none" stroke="#8f939f" stroke-linecap="round" stroke-linejoin="round" stroke-width="0.22"/>
            <path id="Path_2132" data-name="Path 2132" d="M249.13,190.463l1.249-24.593" transform="translate(-231.448 -165.87)" fill="none" stroke="#8f939f" stroke-linecap="round" stroke-linejoin="round" stroke-width="0.22"/>
            <path id="Path_2133" data-name="Path 2133" d="M247.54,190.463l1.318-24.593" transform="translate(-232.065 -165.87)" fill="none" stroke="#8f939f" stroke-linecap="round" stroke-linejoin="round" stroke-width="0.22"/>
            <path id="Path_2134" data-name="Path 2134" d="M245.95,190.463l1.4-24.593" transform="translate(-232.682 -165.87)" fill="none" stroke="#8f939f" stroke-linecap="round" stroke-linejoin="round" stroke-width="0.22"/>
            <path id="Path_2135" data-name="Path 2135" d="M244.35,190.463l1.485-24.593" transform="translate(-233.302 -165.87)" fill="none" stroke="#8f939f" stroke-linecap="round" stroke-linejoin="round" stroke-width="0.22"/>
            <path id="Path_2136" data-name="Path 2136" d="M242.76,190.463l1.568-24.593" transform="translate(-233.919 -165.87)" fill="none" stroke="#8f939f" stroke-linecap="round" stroke-linejoin="round" stroke-width="0.22"/>
            <path id="Path_2137" data-name="Path 2137" d="M241.17,190.463l1.624-24.593" transform="translate(-234.536 -165.87)" fill="none" stroke="#8f939f" stroke-linecap="round" stroke-linejoin="round" stroke-width="0.22"/>
            <path id="Path_2138" data-name="Path 2138" d="M239.57,190.463l1.721-24.593" transform="translate(-235.157 -165.87)" fill="none" stroke="#8f939f" stroke-linecap="round" stroke-linejoin="round" stroke-width="0.22"/>
            <path id="Path_2139" data-name="Path 2139" d="M237.99,190.463l1.79-24.593" transform="translate(-235.769 -165.87)" fill="none" stroke="#8f939f" stroke-linecap="round" stroke-linejoin="round" stroke-width="0.22"/>
            <path id="Path_2140" data-name="Path 2140" d="M236.39,190.463l1.86-24.593" transform="translate(-236.39 -165.87)" fill="none" stroke="#8f939f" stroke-linecap="round" stroke-linejoin="round" stroke-width="0.22"/>
          </g>
        </g>
        <path id="Path_2142" data-name="Path 2142" d="M257.145,171.24h74.1a45.414,45.414,0,0,1,.056,10.784h-74.21A34.223,34.223,0,0,1,257.145,171.24Z" transform="translate(-256.698 -171.24)" fill="none" stroke="#8f939f" stroke-width="0.67"/>
      </g>
      <path id="Path_2143" data-name="Path 2143" d="M50.972,38.79,47.183,60.358,45.67,63.841H178.241l-1.388-4.788L172.939,38.79Z" transform="translate(17.715 14.546)" fill="#a12a2d"/>
      <path id="Path_2144" data-name="Path 2144" d="M43.87,11.38S59.623,46.133,45.3,81.26" transform="translate(17.017 3.914)" fill="none" stroke="#8e919e" stroke-width="0.63"/>
      <path id="Path_2145" data-name="Path 2145" d="M145.051,11.38s-15.753,34.114-1.43,68.589" transform="translate(53.376 3.914)" fill="none" stroke="#8e919e" stroke-width="0.62"/>
      <g id="Group_1022" data-name="Group 1022" transform="translate(90.032 48.825)">
        <path id="Path_2146" data-name="Path 2146" d="M77.724,37.678c0-1.069-.486-1.971-1.416-2.082a12.357,12.357,0,0,0-1.6-.056h-.4c-.291,0-.43.139-.43.416s0,.43.042.472c.056.153.18.222.4.222h1.083c.68,0,1.069.069,1.069.666H73.74c-.014-1.152-1.041-1.735-3.053-1.735H68.661a4.843,4.843,0,0,0-1.9.278,1.507,1.507,0,0,0-1,1.513V42.73c0,.333.153.486.472.486a1.4,1.4,0,0,0,.541-.042c.18-.056.264-.208.264-.444V41.522h2.72q.062,1.665,3.039,1.665h2.026a4.511,4.511,0,0,0,1.9-.278,1.484,1.484,0,0,0,1-1.485V37.692ZM67.037,37.4c0-.472.555-.708,1.679-.708h1.971a6.062,6.062,0,0,1,1.055.056c.444.083.666.278.694.569-1.8,0-2.706.625-2.706,1.818v1.277H67.023V37.4Zm5.413,1v1.277c0,.486-.472.722-1.416.736V39.121c0-.472.472-.722,1.416-.736Zm4,3c0,.458-.555.694-1.679.694H72.8a8.2,8.2,0,0,1-1.069-.056c-.416-.083-.638-.25-.694-.514,1.79,0,2.693-.625,2.693-1.846V38.413h2.72v3Z" transform="translate(-64.525 -35.539)" fill="#fff"/>
        <g id="Group_1021" data-name="Group 1021" transform="translate(0 8.301)">
          <path id="Path_2147" data-name="Path 2147" d="M65.869,41.53h-1v1.832h.472V42.71h.514a.609.609,0,0,0,.694-.583A.6.6,0,0,0,65.869,41.53Zm-.527.333h.347c.264,0,.389.069.389.236,0,.083,0,.264-.319.264h-.4v-.514Z" transform="translate(-64.87 -41.516)" fill="#fff"/>
          <path id="Path_2148" data-name="Path 2148" d="M66.29,41.87v1.36h.458V41.87H66.29Z" transform="translate(-64.319 -41.384)" fill="#fff"/>
          <path id="Path_2149" data-name="Path 2149" d="M66.29,41.52v.347h.458V41.52H66.29Z" transform="translate(-64.319 -41.52)" fill="#fff"/>
          <path id="Path_2150" data-name="Path 2150" d="M68.366,41.87h-.527s-.236.347-.25.375c-.014-.028-.264-.375-.264-.375h-.541s.527.652.527.666l-.541.694H67.3s.25-.361.264-.389c.014.028.264.389.264.389h.541s-.541-.68-.541-.694.527-.666.527-.666Z" transform="translate(-64.133 -41.384)" fill="#fff"/>
          <path id="Path_2151" data-name="Path 2151" d="M68.839,41.84a.727.727,0,1,0,.819.722A.737.737,0,0,0,68.839,41.84Zm0,1.124a.354.354,0,0,1-.375-.4.375.375,0,1,1,.749,0A.354.354,0,0,1,68.839,42.964Z" transform="translate(-63.648 -41.396)" fill="#fff"/>
          <path id="Path_2152" data-name="Path 2152" d="M70.595,41.53h-.527l-.777,1.832h.5s.153-.361.153-.375h.777l.139.375h.514l-.763-1.832h0Zm0,1.124h-.514s.25-.638.264-.68C70.359,42.016,70.595,42.626,70.595,42.654Z" transform="translate(-63.156 -41.516)" fill="#fff"/>
          <path id="Path_2153" data-name="Path 2153" d="M70.96,41.53v1.832H71.4V41.53H70.96Z" transform="translate(-62.508 -41.516)" fill="#fff"/>
          <path id="Path_2154" data-name="Path 2154" d="M72.237,41.84a.683.683,0,0,0-.777.694c0,.5.278.749.8.749a.7.7,0,0,0,.708-.444h-.458a.262.262,0,0,1-.25.153c-.319,0-.347-.208-.361-.305H73v-.069a.7.7,0,0,0-.763-.763Zm-.319.569a.309.309,0,0,1,.611,0Z" transform="translate(-62.314 -41.396)" fill="#fff"/>
          <path id="Path_2155" data-name="Path 2155" d="M72.75,41.87v1.36h.458V41.87H72.75Z" transform="translate(-61.813 -41.384)" fill="#fff"/>
          <path id="Path_2156" data-name="Path 2156" d="M72.75,41.52v.347h.458V41.52H72.75Z" transform="translate(-61.813 -41.52)" fill="#fff"/>
          <path id="Path_2157" data-name="Path 2157" d="M73.77,42.086v-.208h-.43v1.36h.444V42.53c0-.208.125-.305.375-.305h.125V41.85H74.2a.444.444,0,0,0-.43.236Z" transform="translate(-61.585 -41.392)" fill="#fff"/>
          <path id="Path_2158" data-name="Path 2158" d="M74.9,41.84a.727.727,0,1,0,.819.722A.737.737,0,0,0,74.9,41.84Zm0,1.124a.354.354,0,0,1-.375-.4.375.375,0,1,1,.749,0A.354.354,0,0,1,74.9,42.964Z" transform="translate(-61.298 -41.396)" fill="#fff"/>
        </g>
      </g>
      <g id="Group_1028" data-name="Group 1028" transform="translate(158.386 41.859)">
        <path id="Path_2159" data-name="Path 2159" d="M123.53,30.58a15.415,15.415,0,0,0-7.9,2.332.944.944,0,0,0-.375.541,26.172,26.172,0,0,0-1.069,7.134,18.769,18.769,0,0,0,2.526,9.6,19.456,19.456,0,0,0,6.426,6.62.756.756,0,0,0,.833,0,19.727,19.727,0,0,0,6.426-6.62,18.769,18.769,0,0,0,2.526-9.6,26.173,26.173,0,0,0-1.069-7.134,1.013,1.013,0,0,0-.375-.541,15.344,15.344,0,0,0-7.911-2.332h-.042Z" transform="translate(-114.093 -30.497)" fill="#9e0029"/>
        <g id="Group_1023" data-name="Group 1023">
          <path id="Path_2160" data-name="Path 2160" d="M123.53,30.58a15.415,15.415,0,0,0-7.9,2.332.944.944,0,0,0-.375.541,26.172,26.172,0,0,0-1.069,7.134,18.769,18.769,0,0,0,2.526,9.6,19.456,19.456,0,0,0,6.426,6.62.756.756,0,0,0,.833,0,19.727,19.727,0,0,0,6.426-6.62,18.769,18.769,0,0,0,2.526-9.6,26.173,26.173,0,0,0-1.069-7.134,1.013,1.013,0,0,0-.375-.541,15.344,15.344,0,0,0-7.911-2.332h-.042Z" transform="translate(-114.093 -30.497)" fill="#9e0029"/>
          <path id="Path_2161" data-name="Path 2161" d="M123.558,30.52a15.655,15.655,0,0,0-7.953,2.346,1.06,1.06,0,0,0-.416.583A26.267,26.267,0,0,0,114.12,40.6a18.931,18.931,0,0,0,2.54,9.646,19.623,19.623,0,0,0,6.454,6.648.843.843,0,0,0,.916,0,19.759,19.759,0,0,0,6.454-6.648,18.8,18.8,0,0,0,2.54-9.646,26.19,26.19,0,0,0-1.069-7.148,1.013,1.013,0,0,0-.416-.583,15.513,15.513,0,0,0-7.953-2.346h-.056Zm-.333,26.245a19.7,19.7,0,0,1-6.4-6.592,18.78,18.78,0,0,1-2.512-9.563,25.982,25.982,0,0,1,1.069-7.106.836.836,0,0,1,.347-.486,15.408,15.408,0,0,1,7.855-2.318h.042a15.213,15.213,0,0,1,7.855,2.318.836.836,0,0,1,.347.486A25.981,25.981,0,0,1,132.9,40.61a18.654,18.654,0,0,1-2.526,9.563,19.558,19.558,0,0,1-6.4,6.592.7.7,0,0,1-.736,0Z" transform="translate(-114.12 -30.52)" fill="#d0a642"/>
        </g>
        <path id="Path_2162" data-name="Path 2162" d="M115.827,33.473a25.04,25.04,0,0,0-1.027,6.842,17.67,17.67,0,0,0,2.387,9.077,18.649,18.649,0,0,0,6.134,6.315,18.908,18.908,0,0,0,6.134-6.315,17.67,17.67,0,0,0,2.387-9.077,25.117,25.117,0,0,0-1.027-6.842,13.9,13.9,0,0,0-14.989,0Z" transform="translate(-113.856 -30.225)" fill="#e01d15"/>
        <path id="Path_2163" data-name="Path 2163" d="M128.343,33.1a14.252,14.252,0,0,0-7.384-2.165c-.028,0-.028.486-.069.486,0,0,.042,24.4.069,24.413a18.908,18.908,0,0,0,6.134-6.315,17.67,17.67,0,0,0,2.387-9.077A28.928,28.928,0,0,0,128.343,33.1Z" transform="translate(-111.494 -30.361)" fill="#9e0029"/>
        <path id="Path_2164" data-name="Path 2164" d="M130.816,33.054a10.576,10.576,0,0,0-1.221-.694c.833,2.512,3.581,13.185-6.273,22.914-9.84-9.729-7.106-20.4-6.273-22.914a10.574,10.574,0,0,0-1.221.694A25.04,25.04,0,0,0,114.8,39.9a17.67,17.67,0,0,0,2.387,9.077,18.649,18.649,0,0,0,6.134,6.315,18.908,18.908,0,0,0,6.134-6.315,17.67,17.67,0,0,0,2.387-9.077,25.117,25.117,0,0,0-1.027-6.842Z" transform="translate(-113.856 -29.806)" fill="#fff"/>
        <path id="Path_2165" data-name="Path 2165" d="M127.562,46.507c-.028-.18-.194-.389-.208-.5a3.683,3.683,0,0,1,.083-.583c0-.167-.069-.333-.069-.527.014-.264.111-.416,0-.68-.083-.194-.305-.291-.361-.458a4.8,4.8,0,0,1-.014-1.263,3.328,3.328,0,0,1,.028-.749c-.18-.083-.236-.25-.541-.375-.361-.153-.625.111-.972.111-.486.028-.444-.291-.874-.541-.291-.167-.666-.042-.972-.222-.25-.139-.264-.389-.486-.541-.305-.222-.4-.014-.722-.028a.832.832,0,0,1-.819-1.013c.056-.472.153-.167.416-.416.167-.167.18-.416.389-.541.333-.208.652.069.985-.014.444-.111.319-.236.389-.666a3.634,3.634,0,0,0-.125-1.763c-.083-.264-.1-.638-.194-.888a1.326,1.326,0,0,0-.68-.611,16.054,16.054,0,0,1-1.679-.569c-.056-.028-.083-.056-.069-.069-.125.153-.305.194-.416.305s-.18.333-.361.416c-.361.18-.86-.18-1.221,0-.18.1-.208.305-.4.375s-.583-.069-.763-.125c-.319-.111-.916-.4-1.207-.139-.236.222.083.847.014,1.166-.083.389-.4.749-.347,1.207a4,4,0,0,0,.625,1.207c.375.486.583.125,1.027.139.472,0,.416.416.541.749a3.75,3.75,0,0,0,.652,1.083,3.25,3.25,0,0,0,.888.777c.555.305.763.222,1.069.791a11.166,11.166,0,0,1,.916,1.416c.278.777.625,1.541.874,2.318.069.194.125.4.18.625v-.056l.319.1.042.139h.347l.167-.222.083.18.069.25.486.042v.236l.153.347h.319l.25.43v.264l.749.68-.111.056-.25-.1-.25.028-.222.222.527.819.347-.167-.111-.347.236-.167.25.153.222-.472.125.111a1.906,1.906,0,0,0,.18-.278c.139-.319.278-.749.4-1.083a1.007,1.007,0,0,0,.125-.541Z" transform="translate(-113.253 -29.325)" fill="#d0a642"/>
        <path id="Path_2166" data-name="Path 2166" d="M123.339,55.246l-.028.028c-9.84-9.729-7.106-20.4-6.273-22.914a10.574,10.574,0,0,0-1.221.694A25.04,25.04,0,0,0,114.79,39.9a17.67,17.67,0,0,0,2.387,9.077,18.649,18.649,0,0,0,6.134,6.315h.028Z" transform="translate(-113.86 -29.806)" fill="#fff"/>
        <g id="Group_1025" data-name="Group 1025" transform="translate(7.439 1.79)">
          <g id="Group_1024" data-name="Group 1024" transform="translate(0.014)">
            <path id="Path_2167" data-name="Path 2167" d="M123.444,33.807a1.957,1.957,0,1,1-1.957-1.957A1.964,1.964,0,0,1,123.444,33.807Z" transform="translate(-119.474 -31.794)" fill="#e01d15"/>
            <path id="Path_2168" data-name="Path 2168" d="M119.49,33.822A2.012,2.012,0,1,0,121.5,31.81,2.014,2.014,0,0,0,119.49,33.822Zm.111,0a1.9,1.9,0,1,1,1.9,1.9A1.9,1.9,0,0,1,119.6,33.822Z" transform="translate(-119.49 -31.81)" fill="#fff"/>
          </g>
          <path id="Path_2169" data-name="Path 2169" d="M120.9,33.319a1.9,1.9,0,0,1,.611,1.4,1.757,1.757,0,0,1-.042.389l.111.028a1.982,1.982,0,0,0,.042-.4,2.041,2.041,0,0,0-.652-1.485l-.083.083Z" transform="translate(-118.933 -31.251)" fill="#fff"/>
          <path id="Path_2170" data-name="Path 2170" d="M121.848,32.367a2,2,0,0,0-.958,1.3L121,33.7a1.878,1.878,0,0,1,.9-1.221c.111-.056.291-.139.4-.18l-.1-.1a2.214,2.214,0,0,0-.375.167Z" transform="translate(-118.933 -31.659)" fill="#fff"/>
          <path id="Path_2171" data-name="Path 2171" d="M119.54,33.023a2.033,2.033,0,0,0,.333.236,2.012,2.012,0,0,0,1.6.18l-.028-.111a1.924,1.924,0,0,1-1.513-.167,1.728,1.728,0,0,1-.305-.222l-.083.083Z" transform="translate(-119.457 -31.372)" fill="#fff"/>
          <path id="Path_2172" data-name="Path 2172" d="M121.224,32.707a1.894,1.894,0,0,1,.847,1.582,1.929,1.929,0,0,1-.194.833l.1.056a2.01,2.01,0,0,0-.694-2.568l-.069.1Z" transform="translate(-118.809 -31.5)" fill="#fff"/>
          <path id="Path_2173" data-name="Path 2173" d="M121.189,32.214a2,2,0,0,0-1,1.61h.125a1.92,1.92,0,0,1,.944-1.513,1.869,1.869,0,0,1,.847-.25V31.95a1.891,1.891,0,0,0-.9.264Z" transform="translate(-119.205 -31.756)" fill="#fff"/>
          <path id="Path_2174" data-name="Path 2174" d="M119.508,33.443a1.992,1.992,0,0,0,2.526.666L121.978,34a1.944,1.944,0,0,1-1.79-.056,1.789,1.789,0,0,1-.625-.583l-.083.083Z" transform="translate(-119.48 -31.209)" fill="#fff"/>
        </g>
        <g id="Group_1026" data-name="Group 1026" transform="translate(4.663 11.422)">
          <path id="Path_2175" data-name="Path 2175" d="M125.363,47.313h.722l-1.8-1.013a.683.683,0,0,0,.236-.472c0-.139-.167-.18-.361-.18-.139,0-.278.014-.278.014a9,9,0,0,1-1.263.125,2.819,2.819,0,0,0,1.263-1.207,4.738,4.738,0,0,0,.458-1.86,1.59,1.59,0,0,1-1.1,1.36c1.79-.944.68-5.329.68-5.329a3.669,3.669,0,0,1-1.4,2.873c-1.582,1-3.1,2.776-1.818,3.8a4.719,4.719,0,0,1-3.22-2.512s.527,4.4,4.108,4.4a3.038,3.038,0,0,0,.68-.056,4.015,4.015,0,0,0,.652-.194l.278.222h.722l-.625-.347a1.4,1.4,0,0,0,.319-.167l.625.514h.722l-1.138-.638a2.96,2.96,0,0,0,.375-.305l1.152.944Z" transform="translate(-117.48 -38.75)" fill="none" stroke="#fff" stroke-linecap="round" stroke-linejoin="round" stroke-width="0.13"/>
          <path id="Path_2176" data-name="Path 2176" d="M125.363,47.313h.722l-1.8-1.013a.683.683,0,0,0,.236-.472c0-.139-.167-.18-.361-.18-.139,0-.278.014-.278.014a9,9,0,0,1-1.263.125,2.819,2.819,0,0,0,1.263-1.207,4.738,4.738,0,0,0,.458-1.86,1.59,1.59,0,0,1-1.1,1.36c1.79-.944.68-5.329.68-5.329a3.669,3.669,0,0,1-1.4,2.873c-1.582,1-3.1,2.776-1.818,3.8a4.719,4.719,0,0,1-3.22-2.512s.527,4.4,4.108,4.4a3.038,3.038,0,0,0,.68-.056,4.015,4.015,0,0,0,.652-.194l.278.222h.722l-.625-.347a1.4,1.4,0,0,0,.319-.167l.625.514h.722l-1.138-.638a2.96,2.96,0,0,0,.375-.305l1.152.944Z" transform="translate(-117.48 -38.75)" fill="#e01d15"/>
        </g>
        <g id="Group_1027" data-name="Group 1027" transform="translate(2.706 7.189)">
          <path id="Path_2177" data-name="Path 2177" d="M116.07,36.99h.68l.222.833h0V36.99h.389v1.18h-.666l-.236-.847h0v.847h-.389Z" transform="translate(-116.07 -35.2)" fill="#231916"/>
          <path id="Path_2178" data-name="Path 2178" d="M117.614,36.99v1.18h-.444V36.99Z" transform="translate(-115.643 -35.2)" fill="#231916"/>
          <path id="Path_2179" data-name="Path 2179" d="M118.639,37.331a.911.911,0,0,0-.347-.056c-.069,0-.194,0-.194.069,0,.153.611,0,.611.458,0,.319-.305.4-.569.4a1.934,1.934,0,0,1-.486-.056v-.305a.985.985,0,0,0,.4.069c.111,0,.194-.014.194-.083,0-.153-.611-.014-.611-.472,0-.319.333-.389.6-.389a1.85,1.85,0,0,1,.389.042v.305Z" transform="translate(-115.461 -35.207)" fill="#231916"/>
          <path id="Path_2180" data-name="Path 2180" d="M119.309,36.99h.458v1.18h-.458v-.43h-.291v.43h-.458V36.99h.458v.4h.291Z" transform="translate(-115.104 -35.2)" fill="#231916"/>
          <path id="Path_2181" data-name="Path 2181" d="M120.064,36.99v1.18h-.444V36.99Z" transform="translate(-114.693 -35.2)" fill="#231916"/>
          <path id="Path_2182" data-name="Path 2182" d="M120.11,36.99h.68l.222.833h0V36.99h.389v1.18h-.666l-.222-.847h0v.847h-.389V36.99Z" transform="translate(-114.503 -35.2)" fill="#231916"/>
          <path id="Path_2183" data-name="Path 2183" d="M121.642,37.591c0-.111,0-.319.18-.319s.18.208.18.319,0,.319-.18.319S121.642,37.716,121.642,37.591Zm.833,0a.581.581,0,0,0-.652-.611.574.574,0,0,0-.652.611.654.654,0,0,0,1.3,0Z" transform="translate(-114.092 -35.204)" fill="#231916"/>
          <path id="Path_2184" data-name="Path 2184" d="M122.26,36.99h.666l.153.638h0l.153-.638h.666v1.18h-.4v-.916h0l-.236.916h-.375l-.222-.916h0v.916h-.389V36.99Z" transform="translate(-113.669 -35.2)" fill="#231916"/>
          <path id="Path_2185" data-name="Path 2185" d="M124.064,36.99v1.18h-.444V36.99Z" transform="translate(-113.141 -35.2)" fill="#231916"/>
          <path id="Path_2186" data-name="Path 2186" d="M124.942,37.809v.361h-.458v-.361l-.444-.819h.486l.18.486h0l.18-.486h.472l-.444.819Z" transform="translate(-112.979 -35.2)" fill="#231916"/>
          <path id="Path_2187" data-name="Path 2187" d="M125.648,37.254h0l.125.389h-.264l.125-.389Zm-.708.916h.444l.069-.25h.375l.083.25h.472l-.416-1.18h-.611l-.416,1.18Z" transform="translate(-112.629 -35.2)" fill="#231916"/>
          <path id="Path_2188" data-name="Path 2188" d="M120.12,35.724h1V36h-.555V36.2h.541v.278h-.541v.416h-.444V35.71Z" transform="translate(-114.499 -35.696)" fill="#231916"/>
          <path id="Path_2189" data-name="Path 2189" d="M122.047,36.88a1.113,1.113,0,0,1-.319.042.628.628,0,0,1-.708-.625c0-.416.319-.6.708-.6a1.26,1.26,0,0,1,.319.042v.305a.629.629,0,0,0-.222-.042.3.3,0,1,0-.014.6.854.854,0,0,0,.25-.042v.319Z" transform="translate(-114.15 -35.7)" fill="#231916"/>
        </g>
      </g>
      <path id="Path_2190" data-name="Path 2190" d="M44.9,110.99l.305,25.051H179.761l.458-25.051Z" transform="translate(17.416 42.552)" fill="#a12a2d"/>
      <path id="Path_2191" data-name="Path 2191" d="M45.053,147.09,44.9,157.43l19.639,6,13.809,3.164,17.793,2.651,17.807.708,20.1-.708,17.64-3.525,28.216-8.452-.083-10.173Z" transform="translate(17.416 56.554)" fill="#a12a2d"/>
      <path id="Path_2192" data-name="Path 2192" d="M44.943,74.89,44.79,99.941H179.651L179.5,74.89Z" transform="translate(17.374 28.549)" fill="#a12a2d"/>
      <path id="Path_2193" data-name="Path 2193" d="M233.75,15.96,268.156,4.427l31.366,8.688L331.11,2.22,371,16.085l-3.47,10.631-129.67.083s-.944-2.637-4.108-10.839Z" transform="translate(90.669 0.361)" fill="#a12a2d"/>
      <path id="Path_2194" data-name="Path 2194" d="M240.668,38.79l-3.789,21.568-1.5,3.484H367.937l-1.388-4.788-3.9-20.263Z" transform="translate(91.301 14.546)" fill="#a12a2d"/>
      <path id="Path_2195" data-name="Path 2195" d="M234.6,110.99l.305,25.051H369l.458-25.051Z" transform="translate(90.999 42.552)" fill="#a12a2d"/>
      <path id="Path_2196" data-name="Path 2196" d="M234.753,147.09l-.153,10.145,19.639,6.662,13.81,3.053,16.807,2.581,18.792,1.874,20.1-.93,17.64-3.289,18.695-5.565,9.521-3.678-.083-10.853Z" transform="translate(90.999 56.554)" fill="#a12a2d"/>
      <path id="Path_2197" data-name="Path 2197" d="M234.973,74.89l-.153,25.051h134.4L369.07,74.89Z" transform="translate(91.084 28.549)" fill="#a12a2d"/>
      <path id="Path_2198" data-name="Path 2198" d="M180.25,151.52c-14.739,4.053-58.708,23.358-135.68-.43" transform="translate(17.288 58.106)" fill="none" stroke="#8e919e" stroke-width="0.63" stroke-dasharray="0 0.8"/>
      <path id="Path_2199" data-name="Path 2199" d="M233.75,12.12s15.628,33.726,1.3,68.853" transform="translate(90.669 4.202)" fill="none" stroke="#8e919e" stroke-width="0.63"/>
      <path id="Path_2200" data-name="Path 2200" d="M334.695,12.21s-15.586,32.962-1.263,67.437" transform="translate(126.986 4.236)" fill="none" stroke="#8e919e" stroke-width="0.62"/>
      <g id="Group_1029" data-name="Group 1029" transform="translate(324.891 207.572)">
        <path id="Path_2201" data-name="Path 2201" d="M370.363,152.12c-14.712,4.039-62.663,22.22-135.833,0" transform="translate(-233.919 -149.067)" fill="none" stroke="#8e919e" stroke-width="0.64" stroke-dasharray="0 1.01"/>
        <path id="Path_2202" data-name="Path 2202" d="M369.909,149.92c-14.7,4.039-62.663,22.234-135.819,0" transform="translate(-234.09 -149.92)" fill="none" stroke="#8e919e" stroke-width="0.64" stroke-dasharray="0 1.01"/>
      </g>
      <path id="Path_2203" data-name="Path 2203" d="M347.7,1.647c-.125.1-12.144,10.007-28.438,10.062h0c-10.95.042-23.164-4.33-30.45-6.939L284.248,3.2l-.125.056L190.01,37.2,206.9,92.928l44.343-7.064V213.715l.278.125c.708.305,71.7,30.825,135.68.583l.264-.125V84.267c1.027.153,42.233,6.5,42.233,6.5l18.487-54.044L347.9,1.48l-.194.167ZM319.278,12.639h0c15.905-.056,27.688-9.216,28.813-10.118.472.167,98.082,34.461,98.943,34.767-.291.847-17.7,51.74-17.932,52.462-.75-.111-42.539-6.551-42.539-6.551V213.715c-61.9,29.09-130.267,1.152-134.375-.583V84.795s-43.843,6.981-44.621,7.106c-.222-.749-16.169-53.295-16.4-54.114C191.981,37.5,284,4.3,284.289,4.186c.25.083,4.233,1.443,4.233,1.443,7.356,2.623,19.666,7.037,30.769,6.995Z" transform="translate(73.703 0.074)" fill="#a2a2a3"/>
      <path id="Path_2204" data-name="Path 2204" d="M331.739,4.7,323.745.36c-31.935,12.158-60.72,1.318-60.72,1.318A32.157,32.157,0,0,1,252.81,6.633S297.181,25.814,331.725,4.7Z" transform="translate(98.062 -0.36)" fill="#a12a2d" stroke="#777d80" stroke-width="0.64"/>
      <path id="Path_2205" data-name="Path 2205" d="M157.983,1.534c-.111.347-11.561,35.238-27.758,35.308h0c-8.758.042-18.542-13.6-25.69-23.552-4.164-5.8-7.175-9.993-9.16-10.576l-.153-.042L0,37.008,15.683,88.721S60.443,85.807,61.4,85.737V214.005l.278.125c.583.25,59.54,24.246,118.567,5.621l3.609-1.166,8.23-2.554a36.683,36.683,0,0,0,5.579-2.1l.264-.125S198,85.168,198,84.155c.985.111,42.969,4.58,42.969,4.58l17.932-51.6L158.136,1.09l-.153.444ZM130.239,37.758h0c16.113-.069,27.133-31.463,28.479-35.488.874.319,98.179,35.113,99.026,35.419-.291.847-17.154,49.381-17.39,50.047-.722-.069-43.26-4.622-43.26-4.622s-.069,129.448-.069,130.073a34.905,34.905,0,0,1-5.177,1.943L183.59,217.7l-3.609,1.152c-56.945,17.973-113.765-3.928-117.651-5.468V84.752s-45.259,2.942-45.967,3C16.155,87.069,1.388,38.4,1.138,37.578c.819-.291,93.7-33.781,94.085-33.92,1.707.6,4.885,5.024,8.577,10.173,7.259,10.118,17.21,23.983,26.439,23.941Z" transform="translate(0 -0.077)" fill="#9d9e9e"/>
      <g id="Group_1030" data-name="Group 1030" transform="translate(94.043 1.096)">
        <path id="Path_2206" data-name="Path 2206" d="M75.41,4.264S99.5,15.922,124.8,4.347c0,0-3.525,27.48-24.468,33.559,0,0-22.276-8.813-24.913-33.656Z" transform="translate(-64.793 0.052)" stroke="#9fa8b8" stroke-width="0.71" fill="url(#linear-gradient)"/>
        <path id="Path_2207" data-name="Path 2207" d="M124.378,8.839,126.1,1.15S99.59,11,75.08,1.164l1.568,7.495s19.875,10.1,47.716.18Z" transform="translate(-64.921 -1.15)" fill="#a12a2d" stroke="#777d80" stroke-width="0.64"/>
        <path id="Path_2208" data-name="Path 2208" d="M103.554,33.317S83.3,35.427,77.919,1.174L67.76,3.339s7.384,38.93,35.585,38.93c0,0,27.133,1.388,35.669-38.93L128.924,1.16s-4.178,32.157-25.384,32.157Z" transform="translate(-67.76 -1.146)" fill="#a12a2d" stroke="#777d80" stroke-width="0.64"/>
      </g>
      <g id="Group_1031" data-name="Group 1031" transform="translate(82.038 82.427)">
        <path id="Path_2209" data-name="Path 2209" d="M65.57,64.625a2.813,2.813,0,0,0,.153.666c.069.153.042.4-.153.389s-.305-.167-.222-.458.125-.319.111-.444v-.153c-.014-.056.1-.083.111,0" transform="translate(-56.702 -57.88)" fill="#fff"/>
        <path id="Path_2210" data-name="Path 2210" d="M65.6,63.829a1.394,1.394,0,0,0,.139.514c.056.083.1.43-.139.444-.125,0-.305-.1-.167-.486a.453.453,0,0,0,.028-.111c.014-.069.028-.167.028-.18v-.18s-.014-.056.056-.069a.054.054,0,0,1,.056.056" transform="translate(-56.676 -58.195)" fill="#fff"/>
        <path id="Path_2211" data-name="Path 2211" d="M67.734,63.594a.715.715,0,0,0-.194-.5c-.472-.347-1.055.305-1.693.139a.621.621,0,0,1-.4-.444.515.515,0,0,0,.083-.291c-.028-.153-.194-.236-.319-.333v-.028c-.014-.056-.1-.028-.083.014v.028a.722.722,0,0,0-.1.514.25.25,0,0,0,.222.125,1.627,1.627,0,0,0,.361.527c.389.264.888.056,1.291-.042.083,0,.222-.042.278.042a.112.112,0,0,1-.056.125,2.751,2.751,0,0,1-1.027.153c-.763,0-1.263-.638-1.943-.833a3.638,3.638,0,0,0-1.6-.1c-.1.014-.18.083-.278.056.167-.527-.611-.569-.611-1.027-.028,0-.042,0-.056.042a.59.59,0,0,0,.278.6c0,.083.042.236-.069.291a.33.33,0,0,1-.167-.042,1.617,1.617,0,0,0-.819.042c-.111-.069-.069-.208-.083-.291.153-.167.319-.319.291-.555-.014-.028,0-.1-.069-.083,0,.319-.361.416-.541.638a.837.837,0,0,0,.1.86,1.461,1.461,0,0,0,.1.555c.319.167.111.527.25.777.1.167.305.111.458.083a.469.469,0,0,0,.278.028c.291-.111.125-.486.236-.708.042-.1.1-.069.194-.236A1.249,1.249,0,0,0,62.1,63.5c0-.028.028-.042.056-.028a.041.041,0,0,1,.042.042c-.042.139-.042.278-.153.361-.305.236.028.694-.361.874a2.085,2.085,0,0,0,.305.819c.069.167.25.264.361.375a3.506,3.506,0,0,0,.083.68,3.263,3.263,0,0,0-.236.708c-.042.069-.111.139-.1.208h.278s.1-.111.139,0h.43l.028-.028s-.056-.125,0-.167c.056-.222-.056-.472,0-.722a1.658,1.658,0,0,0,.153-.361c.028-.056.056-.125.125-.139a3.439,3.439,0,0,0,2.248-.264c.208-.056.486-.222.652-.014a5.205,5.205,0,0,0,.347.985,2.131,2.131,0,0,0-.153.416.311.311,0,0,0-.1.333h.291s.111-.069.139,0h.43c.042-.111-.1-.18.042-.236,0-.278-.208-.611.028-.833a.21.21,0,0,0-.028-.236,5.356,5.356,0,0,1,.028-.888,1.736,1.736,0,0,1,.125-.4,2.778,2.778,0,0,0,.056-.333,1.8,1.8,0,0,0,.389-1.055" transform="translate(-58.63 -58.986)" fill="#fff"/>
        <path id="Path_2212" data-name="Path 2212" d="M64.537,59.75a5.427,5.427,0,1,0,5.427,5.427,5.426,5.426,0,0,0-5.427-5.427m-4.7,5.427a4.7,4.7,0,0,1,3.109-4.427l2.484,9.035a4.711,4.711,0,0,1-5.593-4.608m6.3,4.427-2.484-9.035a4.706,4.706,0,0,1,2.484,9.049" transform="translate(-59.11 -59.75)" fill="#fff"/>
        <rect id="Rectangle_286" data-name="Rectangle 286" width="2.276" height="7.55" transform="translate(52.31 1.652)" fill="#fff"/>
        <path id="Path_2213" data-name="Path 2213" d="M94.376,66.464V60.94H92.1v7.55h5.579V66.464Z" transform="translate(-46.314 -59.288)" fill="#fff"/>
        <path id="Path_2214" data-name="Path 2214" d="M105.2,60.94v1.915h-2.137V68.49h-2.221V62.855H98.7V60.94Z" transform="translate(-43.753 -59.288)" fill="#fff"/>
        <path id="Path_2215" data-name="Path 2215" d="M108.478,60.94v2.554h-2.346V60.94H103.87v7.55h2.262V65.52h2.346v2.97h2.262V60.94Z" transform="translate(-41.748 -59.288)" fill="#fff"/>
        <path id="Path_2216" data-name="Path 2216" d="M74.63,64.775a3.914,3.914,0,1,1,3.914,3.955,3.936,3.936,0,0,1-3.914-3.955m3.914,2.11c.888,0,1.6-.944,1.6-2.11a1.664,1.664,0,1,0-1.6,2.11" transform="translate(-53.09 -59.335)" fill="#fff"/>
        <path id="Path_2217" data-name="Path 2217" d="M85.99,64.775A3.914,3.914,0,1,1,89.9,68.731a3.936,3.936,0,0,1-3.914-3.955m3.914,2.11a2.178,2.178,0,1,0-1.61-2.11,1.911,1.911,0,0,0,1.61,2.11" transform="translate(-48.684 -59.335)" fill="#fff"/>
        <path id="Path_2218" data-name="Path 2218" d="M85.275,60.94v3.844L82.888,60.94H80.57v7.55h2.276V64.757l2.346,3.733h2.346V60.94Z" transform="translate(-50.786 -59.288)" fill="#fff"/>
        <rect id="Rectangle_287" data-name="Rectangle 287" width="1.541" height="7.55" transform="translate(73.78 1.652)" fill="#fff"/>
        <path id="Path_2219" data-name="Path 2219" d="M118.834,60.94v4.927l-3.151-4.927H113.99v7.55h1.541V63.23l3.178,5.26h1.652V60.94Z" transform="translate(-37.823 -59.288)" fill="#fff"/>
        <path id="Path_2220" data-name="Path 2220" d="M126.213,66.334a3.369,3.369,0,0,1-3.484,2.72,4.245,4.245,0,0,1,0-8.424,3.476,3.476,0,0,1,3.484,2.72h-1.638A2.063,2.063,0,0,0,122.73,62c-1.194,0-2.151,1.207-2.151,2.845s.972,2.928,2.151,2.928a2.123,2.123,0,0,0,1.86-1.443h1.624Z" transform="translate(-35.875 -59.409)" fill="#fff"/>
        <rect id="Rectangle_288" data-name="Rectangle 288" width="1.596" height="1.485" transform="translate(91.184 7.717)" fill="#fff"/>
        <path id="Path_2221" data-name="Path 2221" d="M111.671,65.26H110.13v1.568h.777a1.118,1.118,0,0,1-.763,1.3v.5c1.291.028,1.485-1.318,1.513-1.8h0V65.26Z" transform="translate(-39.32 -57.613)" fill="#fff"/>
        <path id="Path_2222" data-name="Path 2222" d="M73.524,60.94l-1.055,3.831L71.415,60.94H68.5v7.55h2.054V64.465l1.055,4.025H73.33l1.055-4.025V68.49h2.054V60.94Z" transform="translate(-55.468 -59.288)" fill="#fff"/>
        <path id="Path_2223" data-name="Path 2223" d="M62.638,60.688,65.025,69.4a5.619,5.619,0,0,1-.694.056,4.552,4.552,0,0,1-1.693-8.771m.1-.208a4.7,4.7,0,0,0,2.484,9.035Z" transform="translate(-58.904 -59.467)" fill="#231916"/>
        <path id="Path_2224" data-name="Path 2224" d="M63.268,60.44A4.543,4.543,0,0,1,64.961,69.2l-2.387-8.716a5.844,5.844,0,0,1,.694-.056m0-.153a4.7,4.7,0,0,0-.888.083l2.484,9.035a4.709,4.709,0,0,0-1.61-9.132" transform="translate(-57.842 -59.552)" fill="#231916"/>
      </g>
      <g id="Group_1033" data-name="Group 1033" transform="translate(162.355 364.459)">
        <rect id="Rectangle_289" data-name="Rectangle 289" width="1.499" height="3.955" transform="translate(4.768 9.766) rotate(-16.44)" fill="#fff"/>
        <g id="Group_1032" data-name="Group 1032">
          <path id="Path_2225" data-name="Path 2225" d="M125,270a3.558,3.558,0,0,0-1.166.139c-.222.069-.611.18-.541.43.139.5,1.971-.555,2.4.916.305,1.013-.611,1.554-1.443,1.8a6.212,6.212,0,0,1-1.6.278l-.291-.985a3.5,3.5,0,0,0,1.36-.125c.333-.1.625-.264.569-.444-.153-.514-1.971.527-2.415-.944-.305-1.041.708-1.541,1.554-1.79a6.676,6.676,0,0,1,1.277-.236l.291.972Z" transform="translate(-115.103 -260.602)" fill="#fff"/>
          <path id="Path_2226" data-name="Path 2226" d="M126.577,268.51l1.43-.43,1.11,3.789-1.43.43-.4-1.374-.958.291.4,1.36-1.43.416-1.11-3.789,1.43-.416.389,1.3.958-.278Z" transform="translate(-114.183 -260.974)" fill="#fff"/>
          <rect id="Rectangle_290" data-name="Rectangle 290" width="1.499" height="3.955" transform="translate(14.115 7.025) rotate(-16.43)" fill="#fff"/>
          <path id="Path_2227" data-name="Path 2227" d="M128.39,268l2.137-.638,1.485,2.47h0l-.777-2.679,1.221-.361,1.124,3.789-2.11.625-1.541-2.54v.014l.8,2.748-1.235.347Z" transform="translate(-112.554 -261.474)" fill="#fff"/>
          <path id="Path_2228" data-name="Path 2228" d="M133.4,268.427c-.1-.347-.264-1.055.264-1.207s.791.527.9.874c.111.4.291,1.055-.278,1.221-.514.153-.763-.472-.874-.874m2.651-.777a2.166,2.166,0,0,0-4.15,1.221,2.174,2.174,0,0,0,4.164-1.221" transform="translate(-111.233 -261.709)" fill="#fff"/>
          <path id="Path_2229" data-name="Path 2229" d="M134.6,266.261l2.11-.625,1.1,1.929h.014l-.125-2.221,2.11-.625,1.11,3.789-1.277.375-.9-2.956h-.014l.153,3.192-1.194.347-1.6-2.762h-.014l.86,2.984-1.221.361Z" transform="translate(-110.145 -262.277)" fill="#fff"/>
          <rect id="Rectangle_291" data-name="Rectangle 291" width="1.499" height="3.955" transform="translate(29.887 2.4) rotate(-16.45)" fill="#fff"/>
          <path id="Path_2230" data-name="Path 2230" d="M143.261,266.479l.347,1.166-1.43.416-.347-1.166-2.151-2.221,1.554-.458,1.055,1.416h0l.125-1.763,1.485-.43Z" transform="translate(-108.175 -262.774)" fill="#fff"/>
          <path id="Path_2231" data-name="Path 2231" d="M144.148,264.084h0l.777,1.11-.833.25.042-1.36Zm-1.388,3.636,1.43-.416v-.888l1.194-.361.486.749,1.5-.444-2.443-3.4-1.971.583-.194,4.178Z" transform="translate(-106.98 -262.96)" fill="#fff"/>
          <path id="Path_2232" data-name="Path 2232" d="M120.125,270.421l.791,2.679H120.9l-1.471-2.47-2.151.625,1.124,3.8,1.221-.375-.8-2.734.014-.014,1.527,2.54,2.11-.625-1.11-3.789Z" transform="translate(-116.864 -260.206)" fill="#fff"/>
          <path id="Path_2233" data-name="Path 2233" d="M117.355,270.081l.056.208.319-.1.083.25-.333.1.139.458-.291.083-.347-1.166.652-.194.083.264Z" transform="translate(-116.98 -260.338)" fill="#fff"/>
          <path id="Path_2234" data-name="Path 2234" d="M118.929,269.964a.651.651,0,0,1-.444.833.635.635,0,0,1-.819-.458.653.653,0,0,1,.458-.791.628.628,0,0,1,.8.416m-.958.278a.341.341,0,1,0,.652-.194.326.326,0,0,0-.416-.208.346.346,0,0,0-.236.4" transform="translate(-116.723 -260.416)" fill="#fff"/>
          <path id="Path_2235" data-name="Path 2235" d="M119.9,269.674a.651.651,0,0,1-.444.833.63.63,0,0,1-.819-.458.666.666,0,0,1,1.277-.375m-.958.291a.348.348,0,0,0,.43.25.352.352,0,0,0,.222-.444.326.326,0,0,0-.416-.208.346.346,0,0,0-.236.4" transform="translate(-116.348 -260.528)" fill="#fff"/>
          <path id="Path_2236" data-name="Path 2236" d="M120.318,270.205l-.291.1-.264-.916-.25.083-.083-.264.791-.236.083.264-.25.069Z" transform="translate(-116.03 -260.629)" fill="#fff"/>
          <path id="Path_2237" data-name="Path 2237" d="M120.447,270.148l-.347-1.166.43-.125c.208-.056.361-.028.43.194a.25.25,0,0,1-.056.278h0a.271.271,0,0,1,.319.236c.069.25-.111.389-.319.444l-.458.139Zm.083-.8h.028c.083-.028.153-.069.125-.167s-.125-.083-.208-.056h-.028l.069.236Zm.139.486h.042c.083-.042.236-.083.194-.208s-.18-.083-.278-.056H120.6l.069.264Z" transform="translate(-115.77 -260.682)" fill="#fff"/>
          <path id="Path_2238" data-name="Path 2238" d="M121.353,269.659v.222l-.333.1.1-1.291.319-.1.777,1.041-.319.1-.139-.18-.416.125Zm.028-.666h0v.4l.236-.069-.236-.333Z" transform="translate(-115.413 -260.776)" fill="#fff"/>
          <path id="Path_2239" data-name="Path 2239" d="M122.289,269.316l.361-.111.069.264-.652.194-.347-1.166.305-.1Z" transform="translate(-115.141 -260.85)" fill="#fff"/>
          <path id="Path_2240" data-name="Path 2240" d="M122.879,269.146l.361-.111.069.25-.652.194-.347-1.166.305-.083Z" transform="translate(-114.913 -260.916)" fill="#fff"/>
          <path id="Path_2241" data-name="Path 2241" d="M124.1,268.246a.338.338,0,0,0-.305-.056.321.321,0,0,0-.208.416.314.314,0,0,0,.4.222.343.343,0,0,0,.222-.194l.111.361a1.447,1.447,0,0,1-.25.139.73.73,0,0,1-.486-.042.6.6,0,0,1-.319-.389.73.73,0,0,1,.042-.486.683.683,0,0,1,.389-.319.7.7,0,0,1,.291-.028l.111.361Z" transform="translate(-114.551 -261.057)" fill="#fff"/>
          <path id="Path_2242" data-name="Path 2242" d="M124.5,268.666l.361-.111.069.264-.652.194-.347-1.166.305-.1Z" transform="translate(-114.284 -261.102)" fill="#fff"/>
          <path id="Path_2243" data-name="Path 2243" d="M125.429,267.46l.194.652a.55.55,0,0,1,0,.444.584.584,0,0,1-.347.25.486.486,0,0,1-.416-.028c-.153-.069-.194-.222-.236-.375l-.194-.652.305-.083.18.611c.042.153.111.305.291.25s.153-.222.111-.375l-.18-.611.305-.083Z" transform="translate(-114.09 -261.214)" fill="#fff"/>
          <path id="Path_2244" data-name="Path 2244" d="M125.607,268.628l-.347-1.166.43-.125c.208-.056.361-.028.43.208a.26.26,0,0,1-.056.278h0a.271.271,0,0,1,.319.236c.069.25-.111.389-.319.444l-.458.139Zm.083-.8h.028c.083-.028.153-.069.125-.167s-.125-.083-.208-.056h-.028l.069.236Zm.139.472h.042c.083-.042.236-.069.194-.208s-.18-.083-.278-.056h-.028l.069.264Z" transform="translate(-113.768 -261.272)" fill="#fff"/>
        </g>
      </g>
      <g id="Group_1034" data-name="Group 1034" transform="translate(116.583 104.813)">
        <path id="Path_2245" data-name="Path 2245" d="M89.552,108.815H84V75.88h5.552Z" transform="translate(-84 -75.88)" fill="#fff"/>
        <path id="Path_2246" data-name="Path 2246" d="M99.521,103.207a2.227,2.227,0,0,1-1.776.749,2.141,2.141,0,0,1-1.735-.749,5.212,5.212,0,0,1-.541-2.97V84.457a5.1,5.1,0,0,1,.6-3.026,2.083,2.083,0,0,1,1.693-.694,2.246,2.246,0,0,1,1.776.749,5.244,5.244,0,0,1,.541,2.97v15.78a5.212,5.212,0,0,1-.541,2.97ZM105.267,86c0-3.844-.625-6.454-1.888-7.855a8.114,8.114,0,0,0-11.242,0c-1.249,1.4-1.888,4.011-1.888,7.855V98.7q0,5.767,1.888,7.855a8.114,8.114,0,0,0,11.242,0c1.249-1.388,1.888-4.011,1.888-7.855V86Z" transform="translate(-81.576 -75.88)" fill="#fff"/>
      </g>
      <g id="Group_1035" data-name="Group 1035" transform="translate(366.93 48.16)">
        <path id="Path_2247" data-name="Path 2247" d="M276.385,106.213H264.38V35.07h12.005Z" transform="translate(-264.38 -35.056)" fill="#fff"/>
        <path id="Path_2248" data-name="Path 2248" d="M297.913,94.1a4.784,4.784,0,0,1-3.831,1.624,4.641,4.641,0,0,1-3.761-1.624c-.791-.93-1.18-3.067-1.18-6.412V53.616c0-3.345.43-5.524,1.291-6.523a4.571,4.571,0,0,1,3.65-1.513,4.861,4.861,0,0,1,3.831,1.624c.777.93,1.18,3.081,1.18,6.412V87.689C299.093,91.033,298.691,93.171,297.913,94.1Zm12.422-37.168q0-12.449-4.066-16.974-4.351-4.892-12.186-4.9c-5.218,0-9.2,1.638-12.116,4.9q-4.06,4.518-4.066,16.974V84.358q0,12.449,4.066,16.974,4.351,4.892,12.116,4.885c5.177,0,9.285-1.638,12.186-4.885q4.06-4.518,4.066-16.974Z" transform="translate(-259.136 -35.06)" fill="#fff"/>
      </g>
    </g>
  </g>
</svg>
