<svg xmlns="http://www.w3.org/2000/svg" xmlns:xlink="http://www.w3.org/1999/xlink" width="523.737" height="393.934" viewBox="0 0 523.737 393.934">
  <defs>
    <clipPath id="clip-path">
      <path id="Path_1807" data-name="Path 1807" d="M53.827,168.07l-2.207,10.4s52.726,26.939,120.2.791l-2.845-10.548s-63.246,20.943-115.153-.638Z" transform="translate(-51.62 -168.07)" fill="none" stroke="#8f939f" stroke-width="0.5"/>
    </clipPath>
    <linearGradient id="linear-gradient" x1="-50.798" y1="-32.616" x2="-50.798" y2="-30.056" gradientUnits="objectBoundingBox">
      <stop offset="0" stop-color="#fff"/>
      <stop offset="1"/>
    </linearGradient>
    <clipPath id="clip-path-2">
      <path id="Path_1989" data-name="Path 1989" d="M261.877,167.82h75.057a46.564,46.564,0,0,1,.056,10.923H261.821a34.617,34.617,0,0,1,.056-10.923Z" transform="translate(-261.424 -167.82)" fill="none" stroke="#8f939f" stroke-width="0.68"/>
    </clipPath>
  </defs>
  <g id="レイヤー_1" data-name="レイヤー 1" transform="translate(0.265 0.197)">
    <g id="Group_1000" data-name="Group 1000" transform="translate(0 0.194)">
      <g id="Group_999" data-name="Group 999">
        <path id="Path_1745" data-name="Path 1745" d="M132.314,37.921c-14.129.042-25.2-35-30.506-36.571L.27,37.893,16.009,89.772,62.7,86.733V217.527s72.267,31.741,138.164.583V85.1l43.913,4.677,17.973-52.407L161.015,1.628s-11.686,36.224-28.7,36.279Z" transform="translate(-0.27 0.066)" fill="#f4ec2f"/>
        <g id="Group_973" data-name="Group 973" transform="translate(41.692 233.442)">
          <path id="Path_1746" data-name="Path 1746" d="M62.19,168.53s53.323,20.416,115.056,0l31.921,135.6-6.731,5.829s-14.684,27.7-68.007,15.072l-14.7-50.061-13.213,48.146c-.611.25-53.628,12.338-69.075-14.129l-7.134-6.3L62.2,168.544Z" transform="translate(-30.31 -168.53)" fill="#fff"/>
          <g id="Group_972" data-name="Group 972">
            <line id="Line_163" data-name="Line 163" y2="86.424" transform="translate(89.352 21.11)" fill="none" stroke="#8f939f" stroke-width="0.25"/>
            <path id="Path_1747" data-name="Path 1747" d="M62.19,168.53s53.323,20.416,115.056,0l31.921,135.6-6.731,5.829s-14.684,27.7-68.007,15.072l-14.7-50.061-13.213,48.146c-.611.25-53.628,12.338-69.075-14.129l-7.134-6.3L62.2,168.544Z" transform="translate(-30.31 -168.53)" fill="#f4ec2f" stroke="#898989" stroke-width="0.5"/>
          </g>
        </g>
        <path id="Path_1748" data-name="Path 1748" d="M72.74,1.163,77.265.33c1.291,10.354,7.661,32.324,25.759,32.324S127.811,9.032,128.8.441c1.818.389,4.483,1.083,4.483,1.083-3.831,14.684-10.839,34.808-30.534,34.808S77.112,16.915,72.74,1.163Z" transform="translate(27.84 -0.33)" fill="#000039"/>
        <g id="Group_976" data-name="Group 976" transform="translate(71.268 232.804)">
          <g id="Group_975" data-name="Group 975" clip-path="url(#clip-path)">
            <g id="Group_974" data-name="Group 974" transform="translate(-3.026 -0.791)">
              <path id="Path_1749" data-name="Path 1749" d="M139.957,191.844,137.5,167.5" transform="translate(-15.283 -167.5)" fill="none" stroke="#8f939f" stroke-linecap="round" stroke-linejoin="round" stroke-width="0.22"/>
              <path id="Path_1750" data-name="Path 1750" d="M138.353,191.844,135.98,167.5" transform="translate(-15.872 -167.5)" fill="none" stroke="#8f939f" stroke-linecap="round" stroke-linejoin="round" stroke-width="0.22"/>
              <path id="Path_1751" data-name="Path 1751" d="M136.758,191.844,134.44,167.5" transform="translate(-16.469 -167.5)" fill="none" stroke="#8f939f" stroke-linecap="round" stroke-linejoin="round" stroke-width="0.22"/>
              <path id="Path_1752" data-name="Path 1752" d="M135.164,191.844,132.93,167.5" transform="translate(-17.055 -167.5)" fill="none" stroke="#8f939f" stroke-linecap="round" stroke-linejoin="round" stroke-width="0.22"/>
              <path id="Path_1753" data-name="Path 1753" d="M133.565,191.844,131.4,167.5" transform="translate(-17.649 -167.5)" fill="none" stroke="#8f939f" stroke-linecap="round" stroke-linejoin="round" stroke-width="0.22"/>
              <path id="Path_1754" data-name="Path 1754" d="M131.972,191.844,129.89,167.5" transform="translate(-18.234 -167.5)" fill="none" stroke="#8f939f" stroke-linecap="round" stroke-linejoin="round" stroke-width="0.22"/>
              <path id="Path_1755" data-name="Path 1755" d="M130.369,191.844l-2-24.344" transform="translate(-18.824 -167.5)" fill="none" stroke="#8f939f" stroke-linecap="round" stroke-linejoin="round" stroke-width="0.22"/>
              <path id="Path_1756" data-name="Path 1756" d="M128.769,191.844,126.84,167.5" transform="translate(-19.417 -167.5)" fill="none" stroke="#8f939f" stroke-linecap="round" stroke-linejoin="round" stroke-width="0.22"/>
              <path id="Path_1757" data-name="Path 1757" d="M127.184,191.844,125.31,167.5" transform="translate(-20.011 -167.5)" fill="none" stroke="#8f939f" stroke-linecap="round" stroke-linejoin="round" stroke-width="0.22"/>
              <path id="Path_1758" data-name="Path 1758" d="M125.576,191.844,123.8,167.5" transform="translate(-20.597 -167.5)" fill="none" stroke="#8f939f" stroke-linecap="round" stroke-linejoin="round" stroke-width="0.22"/>
              <path id="Path_1759" data-name="Path 1759" d="M123.991,191.844,122.27,167.5" transform="translate(-21.19 -167.5)" fill="none" stroke="#8f939f" stroke-linecap="round" stroke-linejoin="round" stroke-width="0.22"/>
              <path id="Path_1760" data-name="Path 1760" d="M122.388,191.844,120.75,167.5" transform="translate(-21.78 -167.5)" fill="none" stroke="#8f939f" stroke-linecap="round" stroke-linejoin="round" stroke-width="0.22"/>
              <path id="Path_1761" data-name="Path 1761" d="M120.784,191.844,119.23,167.5" transform="translate(-22.369 -167.5)" fill="none" stroke="#8f939f" stroke-linecap="round" stroke-linejoin="round" stroke-width="0.22"/>
              <path id="Path_1762" data-name="Path 1762" d="M119.2,191.844,117.71,167.5" transform="translate(-22.959 -167.5)" fill="none" stroke="#8f939f" stroke-linecap="round" stroke-linejoin="round" stroke-width="0.22"/>
              <path id="Path_1763" data-name="Path 1763" d="M117.588,191.844,116.2,167.5" transform="translate(-23.545 -167.5)" fill="none" stroke="#8f939f" stroke-linecap="round" stroke-linejoin="round" stroke-width="0.22"/>
              <path id="Path_1764" data-name="Path 1764" d="M116,191.844,114.67,167.5" transform="translate(-24.138 -167.5)" fill="none" stroke="#8f939f" stroke-linecap="round" stroke-linejoin="round" stroke-width="0.22"/>
              <path id="Path_1765" data-name="Path 1765" d="M114.409,191.844,113.16,167.5" transform="translate(-24.724 -167.5)" fill="none" stroke="#8f939f" stroke-linecap="round" stroke-linejoin="round" stroke-width="0.22"/>
              <path id="Path_1766" data-name="Path 1766" d="M112.8,191.844,111.63,167.5" transform="translate(-25.317 -167.5)" fill="none" stroke="#8f939f" stroke-linecap="round" stroke-linejoin="round" stroke-width="0.22"/>
              <path id="Path_1767" data-name="Path 1767" d="M111.206,191.844l-1.1-24.344" transform="translate(-25.907 -167.5)" fill="none" stroke="#8f939f" stroke-linecap="round" stroke-linejoin="round" stroke-width="0.22"/>
              <path id="Path_1768" data-name="Path 1768" d="M109.6,191.844,108.59,167.5" transform="translate(-26.496 -167.5)" fill="none" stroke="#8f939f" stroke-linecap="round" stroke-linejoin="round" stroke-width="0.22"/>
              <path id="Path_1769" data-name="Path 1769" d="M108.014,191.844,107.07,167.5" transform="translate(-27.086 -167.5)" fill="none" stroke="#8f939f" stroke-linecap="round" stroke-linejoin="round" stroke-width="0.22"/>
              <path id="Path_1770" data-name="Path 1770" d="M106.424,191.844,105.55,167.5" transform="translate(-27.676 -167.5)" fill="none" stroke="#8f939f" stroke-linecap="round" stroke-linejoin="round" stroke-width="0.22"/>
              <path id="Path_1771" data-name="Path 1771" d="M104.811,191.844,104.02,167.5" transform="translate(-28.269 -167.5)" fill="none" stroke="#8f939f" stroke-linecap="round" stroke-linejoin="round" stroke-width="0.22"/>
              <path id="Path_1772" data-name="Path 1772" d="M103.222,191.844,102.5,167.5" transform="translate(-28.859 -167.5)" fill="none" stroke="#8f939f" stroke-linecap="round" stroke-linejoin="round" stroke-width="0.22"/>
              <path id="Path_1773" data-name="Path 1773" d="M101.628,191.844,100.99,167.5" transform="translate(-29.444 -167.5)" fill="none" stroke="#8f939f" stroke-linecap="round" stroke-linejoin="round" stroke-width="0.22"/>
              <path id="Path_1774" data-name="Path 1774" d="M100.029,191.844,99.46,167.5" transform="translate(-30.038 -167.5)" fill="none" stroke="#8f939f" stroke-linecap="round" stroke-linejoin="round" stroke-width="0.22"/>
              <path id="Path_1775" data-name="Path 1775" d="M98.43,191.844l-.5-24.344" transform="translate(-30.631 -167.5)" fill="none" stroke="#8f939f" stroke-linecap="round" stroke-linejoin="round" stroke-width="0.22"/>
              <path id="Path_1776" data-name="Path 1776" d="M96.84,191.844,96.41,167.5" transform="translate(-31.221 -167.5)" fill="none" stroke="#8f939f" stroke-linecap="round" stroke-linejoin="round" stroke-width="0.22"/>
              <path id="Path_1777" data-name="Path 1777" d="M95.251,191.844,94.89,167.5" transform="translate(-31.81 -167.5)" fill="none" stroke="#8f939f" stroke-linecap="round" stroke-linejoin="round" stroke-width="0.22"/>
              <path id="Path_1778" data-name="Path 1778" d="M93.648,191.844,93.37,167.5" transform="translate(-32.4 -167.5)" fill="none" stroke="#8f939f" stroke-linecap="round" stroke-linejoin="round" stroke-width="0.22"/>
              <path id="Path_1779" data-name="Path 1779" d="M92.044,191.844,91.85,167.5" transform="translate(-32.99 -167.5)" fill="none" stroke="#8f939f" stroke-linecap="round" stroke-linejoin="round" stroke-width="0.22"/>
              <path id="Path_1780" data-name="Path 1780" d="M90.441,191.844,90.33,167.5" transform="translate(-33.579 -167.5)" fill="none" stroke="#8f939f" stroke-linecap="round" stroke-linejoin="round" stroke-width="0.22"/>
              <path id="Path_1781" data-name="Path 1781" d="M88.838,191.844,88.81,167.5" transform="translate(-34.169 -167.5)" fill="none" stroke="#8f939f" stroke-linecap="round" stroke-linejoin="round" stroke-width="0.22"/>
              <path id="Path_1782" data-name="Path 1782" d="M87.26,191.844l.028-24.344" transform="translate(-34.77 -167.5)" fill="none" stroke="#8f939f" stroke-linecap="round" stroke-linejoin="round" stroke-width="0.22"/>
              <path id="Path_1783" data-name="Path 1783" d="M85.69,191.844l.1-24.344" transform="translate(-35.379 -167.5)" fill="none" stroke="#8f939f" stroke-linecap="round" stroke-linejoin="round" stroke-width="0.22"/>
              <path id="Path_1784" data-name="Path 1784" d="M84.11,191.844,84.3,167.5" transform="translate(-35.992 -167.5)" fill="none" stroke="#8f939f" stroke-linecap="round" stroke-linejoin="round" stroke-width="0.22"/>
              <path id="Path_1785" data-name="Path 1785" d="M82.54,191.844l.25-24.344" transform="translate(-36.601 -167.5)" fill="none" stroke="#8f939f" stroke-linecap="round" stroke-linejoin="round" stroke-width="0.22"/>
              <path id="Path_1786" data-name="Path 1786" d="M80.95,191.844l.333-24.344" transform="translate(-37.218 -167.5)" fill="none" stroke="#8f939f" stroke-linecap="round" stroke-linejoin="round" stroke-width="0.22"/>
              <path id="Path_1787" data-name="Path 1787" d="M79.38,191.844,79.8,167.5" transform="translate(-37.827 -167.5)" fill="none" stroke="#8f939f" stroke-linecap="round" stroke-linejoin="round" stroke-width="0.22"/>
              <path id="Path_1788" data-name="Path 1788" d="M77.81,191.844,78.3,167.5" transform="translate(-38.436 -167.5)" fill="none" stroke="#8f939f" stroke-linecap="round" stroke-linejoin="round" stroke-width="0.22"/>
              <path id="Path_1789" data-name="Path 1789" d="M76.22,191.844l.569-24.344" transform="translate(-39.052 -167.5)" fill="none" stroke="#8f939f" stroke-linecap="round" stroke-linejoin="round" stroke-width="0.22"/>
              <path id="Path_1790" data-name="Path 1790" d="M74.65,191.844l.638-24.344" transform="translate(-39.661 -167.5)" fill="none" stroke="#8f939f" stroke-linecap="round" stroke-linejoin="round" stroke-width="0.22"/>
              <path id="Path_1791" data-name="Path 1791" d="M73.07,191.844l.722-24.344" transform="translate(-40.274 -167.5)" fill="none" stroke="#8f939f" stroke-linecap="round" stroke-linejoin="round" stroke-width="0.22"/>
              <path id="Path_1792" data-name="Path 1792" d="M71.5,191.844l.791-24.344" transform="translate(-40.883 -167.5)" fill="none" stroke="#8f939f" stroke-linecap="round" stroke-linejoin="round" stroke-width="0.22"/>
              <path id="Path_1793" data-name="Path 1793" d="M69.93,191.844l.86-24.344" transform="translate(-41.492 -167.5)" fill="none" stroke="#8f939f" stroke-linecap="round" stroke-linejoin="round" stroke-width="0.22"/>
              <path id="Path_1794" data-name="Path 1794" d="M68.35,191.844l.944-24.344" transform="translate(-42.105 -167.5)" fill="none" stroke="#8f939f" stroke-linecap="round" stroke-linejoin="round" stroke-width="0.22"/>
              <path id="Path_1795" data-name="Path 1795" d="M66.77,191.844,67.783,167.5" transform="translate(-42.718 -167.5)" fill="none" stroke="#8f939f" stroke-linecap="round" stroke-linejoin="round" stroke-width="0.22"/>
              <path id="Path_1796" data-name="Path 1796" d="M65.19,191.844l1.1-24.344" transform="translate(-43.331 -167.5)" fill="none" stroke="#8f939f" stroke-linecap="round" stroke-linejoin="round" stroke-width="0.22"/>
              <path id="Path_1797" data-name="Path 1797" d="M63.62,191.844,64.786,167.5" transform="translate(-43.94 -167.5)" fill="none" stroke="#8f939f" stroke-linecap="round" stroke-linejoin="round" stroke-width="0.22"/>
              <path id="Path_1798" data-name="Path 1798" d="M62.04,191.844,63.289,167.5" transform="translate(-44.553 -167.5)" fill="none" stroke="#8f939f" stroke-linecap="round" stroke-linejoin="round" stroke-width="0.22"/>
              <path id="Path_1799" data-name="Path 1799" d="M60.48,191.844l1.3-24.344" transform="translate(-45.158 -167.5)" fill="none" stroke="#8f939f" stroke-linecap="round" stroke-linejoin="round" stroke-width="0.22"/>
              <path id="Path_1800" data-name="Path 1800" d="M58.9,191.844,60.288,167.5" transform="translate(-45.771 -167.5)" fill="none" stroke="#8f939f" stroke-linecap="round" stroke-linejoin="round" stroke-width="0.22"/>
              <path id="Path_1801" data-name="Path 1801" d="M57.32,191.844,58.791,167.5" transform="translate(-46.383 -167.5)" fill="none" stroke="#8f939f" stroke-linecap="round" stroke-linejoin="round" stroke-width="0.22"/>
              <path id="Path_1802" data-name="Path 1802" d="M55.74,191.844,57.294,167.5" transform="translate(-46.996 -167.5)" fill="none" stroke="#8f939f" stroke-linecap="round" stroke-linejoin="round" stroke-width="0.22"/>
              <path id="Path_1803" data-name="Path 1803" d="M54.16,191.844,55.784,167.5" transform="translate(-47.609 -167.5)" fill="none" stroke="#8f939f" stroke-linecap="round" stroke-linejoin="round" stroke-width="0.22"/>
              <path id="Path_1804" data-name="Path 1804" d="M52.59,191.844,54.283,167.5" transform="translate(-48.218 -167.5)" fill="none" stroke="#8f939f" stroke-linecap="round" stroke-linejoin="round" stroke-width="0.22"/>
              <path id="Path_1805" data-name="Path 1805" d="M51.02,191.844,52.8,167.5" transform="translate(-48.827 -167.5)" fill="none" stroke="#8f939f" stroke-linecap="round" stroke-linejoin="round" stroke-width="0.22"/>
              <path id="Path_1806" data-name="Path 1806" d="M49.44,191.844,51.286,167.5" transform="translate(-49.44 -167.5)" fill="none" stroke="#8f939f" stroke-linecap="round" stroke-linejoin="round" stroke-width="0.22"/>
            </g>
          </g>
          <path id="Path_1808" data-name="Path 1808" d="M53.827,168.07l-2.207,10.4s52.726,26.939,120.2.791l-2.845-10.548s-63.246,20.943-115.153-.638Z" transform="translate(-51.62 -168.07)" fill="none" stroke="#8f939f" stroke-width="0.5"/>
        </g>
        <g id="Group_977" data-name="Group 977" transform="translate(6.343 34.808)">
          <line id="Line_164" data-name="Line 164" x1="19.25" y2="54.1" transform="translate(229.39)" fill="none" stroke="#8f939f" stroke-width="0.33" stroke-dasharray="0 0.95"/>
          <path id="Path_1809" data-name="Path 1809" d="M183.414,154.318c-15.017,4.122-59.8,23.788-138.164-.458" transform="translate(10.835 24.414)" fill="none" stroke="#8f939f" stroke-width="0.33" stroke-dasharray="0 0.95"/>
          <line id="Line_165" data-name="Line 165" x2="15.988" y2="53.295" transform="translate(0 1.305)" fill="none" stroke="#8f939f" stroke-width="0.33" stroke-dasharray="0 0.95"/>
        </g>
        <path id="Path_1810" data-name="Path 1810" d="M183.428,69.1c-2.443-7.578-3.359-12.616-5.163-22.4H51.093c-1.4,7.37-1.166,9.785-5.843,24.579V86.421H183.442V69.1Z" transform="translate(17.177 17.656)" fill="#000039"/>
        <g id="Group_979" data-name="Group 979" transform="translate(89.338 42.531)">
          <path id="Path_1811" data-name="Path 1811" d="M77.656,33.147c0-1.083-.486-2-1.443-2.11a10.529,10.529,0,0,0-1.624-.056h-.4c-.291,0-.444.139-.444.416a1.348,1.348,0,0,0,.042.472c.056.153.194.222.4.222h1.1c.68,0,1.083.056,1.1.666H73.618C73.6,31.593,72.577,31,70.523,31h-2.04a5.246,5.246,0,0,0-1.929.264,1.53,1.53,0,0,0-1.013,1.527v5.427c0,.333.153.5.472.5a1.5,1.5,0,0,0,.555-.042.414.414,0,0,0,.264-.444V36.992h2.762c.042,1.124,1.069,1.679,3.081,1.679h2.04a4.962,4.962,0,0,0,1.929-.264,1.5,1.5,0,0,0,1.013-1.513V33.119ZM66.831,32.87c0-.486.569-.708,1.707-.708h2a5.056,5.056,0,0,1,1.069.056c.444.1.68.278.708.583-1.832,0-2.734.625-2.734,1.846v1.291H66.831V32.883Zm5.482,1.013v1.3c0,.486-.472.736-1.43.749v-1.3c0-.486.486-.736,1.43-.736Zm4.053,3.026q0,.708-1.707.708h-2a8.034,8.034,0,0,1-1.069-.056c-.416-.1-.652-.264-.694-.527,1.818,0,2.734-.638,2.734-1.874V33.883h2.748v3.026Z" transform="translate(-64.291 -30.975)" fill="#231916"/>
          <g id="Group_978" data-name="Group 978" transform="translate(0 8.404)">
            <path id="Path_1812" data-name="Path 1812" d="M65.653,37.05H64.64v1.86h.486v-.666h.5a.623.623,0,0,0,.708-.6C66.333,37.272,66.07,37.05,65.653,37.05Zm-.527.333h.347c.278,0,.389.069.389.236,0,.083,0,.278-.333.278h-.4Z" transform="translate(-64.64 -37.022)" fill="#231916"/>
            <path id="Path_1813" data-name="Path 1813" d="M66.08,37.39v1.374h.458V37.39H66.08Z" transform="translate(-64.081 -36.89)" fill="#231916"/>
            <path id="Path_1814" data-name="Path 1814" d="M66.08,37.03v.361h.458V37.03H66.08Z" transform="translate(-64.081 -37.03)" fill="#231916"/>
            <path id="Path_1815" data-name="Path 1815" d="M68.184,37.39h-.527s-.236.361-.264.389c-.014-.028-.264-.389-.264-.389h-.555s.527.666.527.68l-.541.694H67.1s.25-.361.278-.389c.014.028.264.389.264.389H68.2s-.541-.694-.555-.694.527-.68.527-.68Z" transform="translate(-63.895 -36.89)" fill="#231916"/>
            <path id="Path_1816" data-name="Path 1816" d="M68.663,37.36a.742.742,0,0,0-.833.722.752.752,0,0,0,.833.736.744.744,0,0,0,.833-.736A.734.734,0,0,0,68.663,37.36Zm0,1.138a.354.354,0,0,1-.375-.4c0-.18.056-.4.375-.4s.375.222.375.4S68.968,38.5,68.663,38.5Z" transform="translate(-63.403 -36.902)" fill="#231916"/>
            <path id="Path_1817" data-name="Path 1817" d="M70.448,37.05h-.541l-.777,1.86h.5s.153-.361.153-.375h.791l.139.375h.527l-.777-1.86h0Zm-.014,1.138h-.527s.25-.638.264-.694c.014.042.25.666.25.694Z" transform="translate(-62.898 -37.022)" fill="#231916"/>
            <path id="Path_1818" data-name="Path 1818" d="M70.81,37.05V38.9h.444V37.05H70.81Z" transform="translate(-62.247 -37.022)" fill="#231916"/>
            <path id="Path_1819" data-name="Path 1819" d="M72.1,37.36a.683.683,0,0,0-.777.708c0,.5.278.749.819.749a.731.731,0,0,0,.722-.444H72.4a.243.243,0,0,1-.25.153.326.326,0,0,1-.375-.305h1.1v-.069a.7.7,0,0,0-.763-.763Zm-.319.583a.291.291,0,0,1,.305-.264.3.3,0,0,1,.319.264h-.625Z" transform="translate(-62.049 -36.902)" fill="#231916"/>
            <path id="Path_1820" data-name="Path 1820" d="M72.63,37.39v1.374h.444V37.39H72.63Z" transform="translate(-61.541 -36.89)" fill="#231916"/>
            <path id="Path_1821" data-name="Path 1821" d="M72.63,37.03v.361h.444V37.03H72.63Z" transform="translate(-61.541 -37.03)" fill="#231916"/>
            <path id="Path_1822" data-name="Path 1822" d="M73.65,37.606V37.4h-.43v1.374h.444v-.708c0-.208.125-.319.375-.319h.125V37.37h-.1a.51.51,0,0,0-.444.236Z" transform="translate(-61.312 -36.898)" fill="#231916"/>
            <path id="Path_1823" data-name="Path 1823" d="M74.8,37.36a.742.742,0,0,0-.833.722.752.752,0,0,0,.833.736.735.735,0,1,0,0-1.457Zm0,1.138a.4.4,0,1,1,.375-.4C75.177,38.29,75.108,38.5,74.8,38.5Z" transform="translate(-61.021 -36.902)" fill="#231916"/>
          </g>
        </g>
        <g id="Group_980" data-name="Group 980" transform="translate(41.678 233.428)">
          <path id="Path_1824" data-name="Path 1824" d="M191.718,312.013c5.663-5.732,9.354-10.714,15.322-14.781l-30.3-128.712c-61.733,20.416-115.056,0-115.056,0L31.57,295.178c5.815,4.7,11.325,12.56,17.932,16.03,5.26,2.762,24.316,14.267,58.638,4.108l11.075-40.36,12.741,43.413c34.614,10.354,54.5-1.055,59.749-6.37Z" transform="translate(-29.807 -168.52)" fill="none"/>
          <path id="Path_1825" data-name="Path 1825" d="M50.008,275.82c-6.606-3.47-12.116-11.325-17.932-16.03L30.3,267.271l7.134,6.3C52.881,300.039,105.9,287.95,106.509,287.7l2.137-7.786c-34.336,10.159-53.392-1.332-58.638-4.108Z" transform="translate(-30.3 -133.118)" fill="#000039"/>
          <path id="Path_1826" data-name="Path 1826" d="M163.659,276.037c-5.246,5.316-25.135,16.724-59.749,6.37l1.957,6.648c53.337,12.63,68.007-15.072,68.007-15.072l6.731-5.829-1.624-6.884c-5.968,4.066-9.66,9.035-15.322,14.781Z" transform="translate(-1.748 -132.544)" fill="#000039"/>
        </g>
        <g id="Group_981" data-name="Group 981" transform="translate(43.122 243.588)">
          <path id="Path_1827" data-name="Path 1827" d="M51.34,175.84s54.891,25.384,120.4.6" transform="translate(-23.582 -175.84)" fill="none" stroke="#8f939f" stroke-width="0.25"/>
          <path id="Path_1828" data-name="Path 1828" d="M179.613,262.44l-5.593,4s-21.165,33.545-69.88,16.78" transform="translate(-3.102 -142.249)" fill="none" stroke="#8f939f" stroke-width="0.33" stroke-dasharray="0 1.05"/>
          <path id="Path_1829" data-name="Path 1829" d="M31.34,261.01l7.189,6.787s19.972,27.952,69.478,12.782" transform="translate(-31.34 -142.804)" fill="none" stroke="#8f939f" stroke-width="0.33" stroke-dasharray="0 1.05"/>
        </g>
        <rect id="Rectangle_276" data-name="Rectangle 276" width="138.331" height="12.158" transform="translate(62.275 200.577)" fill="#dfd800"/>
        <rect id="Rectangle_277" data-name="Rectangle 277" width="138.289" height="12.158" transform="translate(62.316 173.416)" fill="#dfd800"/>
        <rect id="Rectangle_278" data-name="Rectangle 278" width="138.248" height="12.158" transform="translate(62.358 146.255)" fill="#dfd800"/>
        <rect id="Rectangle_279" data-name="Rectangle 279" width="138.22" height="12.158" transform="translate(62.386 119.081)" fill="#dfd800"/>
        <g id="Group_987" data-name="Group 987" transform="translate(158.039 34.253)">
          <path id="Path_1830" data-name="Path 1830" d="M123.669,25.08a15.644,15.644,0,0,0-8.008,2.359,1.035,1.035,0,0,0-.389.541,26.805,26.805,0,0,0-1.083,7.231,19.109,19.109,0,0,0,2.554,9.729,19.69,19.69,0,0,0,6.509,6.7.756.756,0,0,0,.833,0,19.824,19.824,0,0,0,6.509-6.7,18.983,18.983,0,0,0,2.568-9.729,26.422,26.422,0,0,0-1.083-7.231,1.013,1.013,0,0,0-.375-.541A15.59,15.59,0,0,0,123.7,25.08h-.056Z" transform="translate(-114.121 -24.983)" fill="#9e0029"/>
          <g id="Group_982" data-name="Group 982">
            <path id="Path_1831" data-name="Path 1831" d="M123.669,25.08a15.644,15.644,0,0,0-8.008,2.359,1.035,1.035,0,0,0-.389.541,26.805,26.805,0,0,0-1.083,7.231,19.109,19.109,0,0,0,2.554,9.729,19.69,19.69,0,0,0,6.509,6.7.756.756,0,0,0,.833,0,19.824,19.824,0,0,0,6.509-6.7,18.983,18.983,0,0,0,2.568-9.729,26.422,26.422,0,0,0-1.083-7.231,1.013,1.013,0,0,0-.375-.541A15.59,15.59,0,0,0,123.7,25.08h-.056Z" transform="translate(-114.121 -24.983)" fill="#9e0029"/>
            <path id="Path_1832" data-name="Path 1832" d="M123.689,25.01a15.391,15.391,0,0,0-8.05,2.387,1.111,1.111,0,0,0-.416.583,26.518,26.518,0,0,0-1.083,7.245A19.134,19.134,0,0,0,116.708,45a20.06,20.06,0,0,0,6.537,6.745.866.866,0,0,0,.93,0A19.931,19.931,0,0,0,130.711,45a19.145,19.145,0,0,0,2.581-9.771,26.364,26.364,0,0,0-1.083-7.245,1.013,1.013,0,0,0-.416-.583,15.666,15.666,0,0,0-8.05-2.387h-.056Zm-.347,26.578a19.784,19.784,0,0,1-6.481-6.676,18.946,18.946,0,0,1-2.54-9.687,26.652,26.652,0,0,1,1.069-7.2.836.836,0,0,1,.347-.486,15.513,15.513,0,0,1,7.953-2.346h.042a15.529,15.529,0,0,1,7.966,2.346.836.836,0,0,1,.347.486,26.043,26.043,0,0,1,1.069,7.2,18.957,18.957,0,0,1-2.554,9.687,19.531,19.531,0,0,1-6.481,6.676.67.67,0,0,1-.749,0Zm.347-26.578Z" transform="translate(-114.14 -25.01)" fill="#d0a642"/>
          </g>
          <path id="Path_1833" data-name="Path 1833" d="M115.861,28a25.2,25.2,0,0,0-1.041,6.926,17.922,17.922,0,0,0,2.415,9.188,19.134,19.134,0,0,0,6.2,6.4,19.134,19.134,0,0,0,6.2-6.4,17.958,17.958,0,0,0,2.415-9.188A25.2,25.2,0,0,0,131.017,28a14.087,14.087,0,0,0-15.184,0Z" transform="translate(-113.876 -24.711)" fill="#e01d15"/>
          <path id="Path_1834" data-name="Path 1834" d="M128.53,27.623a14.306,14.306,0,0,0-7.481-2.193c-.028,0-.028.486-.069.486,0,0,.042,24.7.069,24.732a19.134,19.134,0,0,0,6.2-6.4,17.958,17.958,0,0,0,2.415-9.188,29.072,29.072,0,0,0-1.152-7.439Z" transform="translate(-111.487 -24.847)" fill="#9e0029"/>
          <path id="Path_1835" data-name="Path 1835" d="M131.044,27.578a14.02,14.02,0,0,0-1.249-.708c.847,2.54,3.622,13.351-6.343,23.205-9.965-9.854-7.189-20.666-6.357-23.205a8.083,8.083,0,0,0-1.235.708A25.2,25.2,0,0,0,114.82,34.5a17.922,17.922,0,0,0,2.415,9.188,19.134,19.134,0,0,0,6.2,6.4,19.134,19.134,0,0,0,6.2-6.4,17.958,17.958,0,0,0,2.415-9.188,25.2,25.2,0,0,0-1.041-6.926Z" transform="translate(-113.876 -24.289)" fill="#fff"/>
          <path id="Path_1836" data-name="Path 1836" d="M127.749,41.214c-.014-.18-.194-.389-.208-.5-.014-.208.069-.416.069-.583s-.069-.347-.069-.541c.014-.278.111-.416,0-.694-.083-.194-.305-.305-.375-.458a4.374,4.374,0,0,1,0-1.277,3.484,3.484,0,0,1,.028-.763c-.18-.083-.236-.25-.555-.389-.375-.153-.625.1-.985.125-.486.028-.444-.291-.888-.555-.291-.167-.68-.042-.985-.222-.25-.153-.264-.389-.5-.555-.319-.222-.4-.028-.736-.028a.84.84,0,0,1-.833-1.027c.056-.486.167-.167.416-.416.167-.153.18-.416.4-.555.347-.208.666.069,1-.014.444-.111.319-.236.4-.68a3.77,3.77,0,0,0-.125-1.79c-.083-.264-.111-.652-.194-.9a1.355,1.355,0,0,0-.694-.611c-.111-.042-1.374-.4-1.693-.569-.056-.028-.083-.056-.069-.069-.125.153-.305.194-.43.305s-.18.333-.361.416c-.375.194-.874-.194-1.249,0-.18.1-.208.305-.4.389a1.368,1.368,0,0,1-.777-.139c-.319-.125-.93-.4-1.221-.139-.236.222.083.86.014,1.18-.083.389-.4.749-.347,1.207a3.812,3.812,0,0,0,.638,1.221c.389.5.6.111,1.041.139.472,0,.416.43.541.763a4.131,4.131,0,0,0,.666,1.11,3.36,3.36,0,0,0,.9.791c.569.305.763.222,1.083.8a10.636,10.636,0,0,1,.93,1.443c.291.777.625,1.554.888,2.346a5.288,5.288,0,0,1,.18.625v-.056l.319.083.042.139h.347l.167-.222.083.18.069.25.5.042v.236l.153.347h.319l.25.444v.264l.749.694-.111.056-.25-.111-.25.042-.222.222.527.819.347-.18-.125-.347.236-.167.25.153.222-.486.139.125a1.032,1.032,0,0,0,.18-.291c.153-.333.291-.763.416-1.1.069-.222.153-.291.125-.541Z" transform="translate(-113.273 -23.796)" fill="#d0a642"/>
          <path id="Path_1837" data-name="Path 1837" d="M123.467,50.058a.043.043,0,0,1-.014.028c-9.965-9.854-7.189-20.666-6.357-23.205a8.082,8.082,0,0,0-1.235.708,25.2,25.2,0,0,0-1.041,6.926,17.922,17.922,0,0,0,2.415,9.188,19.134,19.134,0,0,0,6.2,6.4h.014Z" transform="translate(-113.876 -24.285)" fill="#fff"/>
          <g id="Group_984" data-name="Group 984" transform="translate(7.522 1.818)">
            <g id="Group_983" data-name="Group 983">
              <path id="Path_1838" data-name="Path 1838" d="M123.579,28.345a1.985,1.985,0,1,1-1.985-1.985A1.984,1.984,0,0,1,123.579,28.345Z" transform="translate(-119.541 -26.304)" fill="#e01d15"/>
              <path id="Path_1839" data-name="Path 1839" d="M119.56,28.36a2.04,2.04,0,1,0,2.04-2.04A2.043,2.043,0,0,0,119.56,28.36Zm.111,0a1.929,1.929,0,1,1,1.929,1.929A1.934,1.934,0,0,1,119.671,28.36Z" transform="translate(-119.56 -26.32)" fill="#fff"/>
            </g>
            <path id="Path_1840" data-name="Path 1840" d="M120.99,27.857a1.936,1.936,0,0,1,.625,1.4,1.2,1.2,0,0,1-.042.389l.111.028a2.017,2.017,0,0,0,.042-.416,2.048,2.048,0,0,0-.652-1.5l-.083.083Z" transform="translate(-119.005 -25.761)" fill="#fff"/>
            <path id="Path_1841" data-name="Path 1841" d="M121.952,26.89a2.05,2.05,0,0,0-.972,1.318l.111.028a2.036,2.036,0,0,1,.916-1.249,2.221,2.221,0,0,1,.416-.18l-.1-.1a1.814,1.814,0,0,0-.375.167Z" transform="translate(-119.009 -26.169)" fill="#fff"/>
            <path id="Path_1842" data-name="Path 1842" d="M119.62,27.557l.333.25a2.072,2.072,0,0,0,1.624.18l-.028-.111a1.954,1.954,0,0,1-1.527-.18,1.723,1.723,0,0,1-.319-.236Z" transform="translate(-119.537 -25.878)" fill="#fff"/>
            <path id="Path_1843" data-name="Path 1843" d="M121.324,27.227a1.937,1.937,0,0,1,.847,1.6,1.99,1.99,0,0,1-.194.847l.1.056a2.046,2.046,0,0,0,.208-.9,1.983,1.983,0,0,0-.916-1.693l-.056.1Z" transform="translate(-118.881 -26.006)" fill="#fff"/>
            <path id="Path_1844" data-name="Path 1844" d="M121.293,26.73a2.064,2.064,0,0,0-1.013,1.638h.125a1.9,1.9,0,0,1,.958-1.527,1.874,1.874,0,0,1,.86-.25V26.48a1.99,1.99,0,0,0-.916.264Z" transform="translate(-119.281 -26.258)" fill="#fff"/>
            <path id="Path_1845" data-name="Path 1845" d="M119.584,27.973a2.061,2.061,0,0,0,.652.6,2.036,2.036,0,0,0,1.915.069l-.056-.1a1.931,1.931,0,0,1-1.8-.069,1.841,1.841,0,0,1-.638-.583l-.083.1Z" transform="translate(-119.556 -25.711)" fill="#fff"/>
          </g>
          <g id="Group_985" data-name="Group 985" transform="translate(4.705 11.589)">
            <path id="Path_1846" data-name="Path 1846" d="M125.524,42.007h.722l-1.832-1.027a.783.783,0,0,0,.25-.472c0-.139-.167-.18-.375-.18a1.594,1.594,0,0,0-.278,0,7.459,7.459,0,0,1-1.277.125,2.8,2.8,0,0,0,1.277-1.221,4.827,4.827,0,0,0,.458-1.874,1.63,1.63,0,0,1-1.11,1.388c1.8-.958.694-5.385.694-5.385a3.7,3.7,0,0,1-1.416,2.9c-1.6,1.013-3.15,2.817-1.846,3.858a4.774,4.774,0,0,1-3.262-2.554s.541,4.455,4.164,4.455a3.174,3.174,0,0,0,.694-.056,4.667,4.667,0,0,0,.666-.194l.278.222h.722l-.638-.347c.111-.056.222-.1.319-.153l.638.514h.722l-1.152-.638a2.274,2.274,0,0,0,.389-.319l1.166.958Z" transform="translate(-117.53 -33.36)" fill="none" stroke="#fff" stroke-linecap="round" stroke-linejoin="round" stroke-width="0.13"/>
            <path id="Path_1847" data-name="Path 1847" d="M125.524,42.007h.722l-1.832-1.027a.783.783,0,0,0,.25-.472c0-.139-.167-.18-.375-.18a1.594,1.594,0,0,0-.278,0,7.459,7.459,0,0,1-1.277.125,2.8,2.8,0,0,0,1.277-1.221,4.827,4.827,0,0,0,.458-1.874,1.63,1.63,0,0,1-1.11,1.388c1.8-.958.694-5.385.694-5.385a3.7,3.7,0,0,1-1.416,2.9c-1.6,1.013-3.15,2.817-1.846,3.858a4.774,4.774,0,0,1-3.262-2.554s.541,4.455,4.164,4.455a3.174,3.174,0,0,0,.694-.056,4.667,4.667,0,0,0,.666-.194l.278.222h.722l-.638-.347c.111-.056.222-.1.319-.153l.638.514h.722l-1.152-.638a2.274,2.274,0,0,0,.389-.319l1.166.958Z" transform="translate(-117.53 -33.36)" fill="#e01d15"/>
          </g>
          <g id="Group_986" data-name="Group 986" transform="translate(2.72 7.314)">
            <path id="Path_1848" data-name="Path 1848" d="M116.1,31.57h.68L117,32.4h0V31.57h.389v1.194h-.666l-.236-.86h0v.86H116.1V31.57Z" transform="translate(-116.1 -29.78)" fill="#231916"/>
            <path id="Path_1849" data-name="Path 1849" d="M117.678,31.57v1.194h-.458V31.57Z" transform="translate(-115.666 -29.78)" fill="#231916"/>
            <path id="Path_1850" data-name="Path 1850" d="M118.7,31.9a.911.911,0,0,0-.347-.056c-.069,0-.194,0-.194.083,0,.153.625,0,.625.458,0,.319-.319.4-.583.4a1.863,1.863,0,0,1-.486-.056V32.43a1.045,1.045,0,0,0,.4.083c.111,0,.208-.014.208-.083,0-.153-.625,0-.625-.472,0-.333.347-.389.611-.389a1.371,1.371,0,0,1,.4.042v.305Z" transform="translate(-115.479 -29.78)" fill="#231916"/>
            <path id="Path_1851" data-name="Path 1851" d="M119.393,31.57h.458v1.194h-.458v-.43h-.305v.43h-.458V31.57h.458v.416h.305Z" transform="translate(-115.119 -29.78)" fill="#231916"/>
            <path id="Path_1852" data-name="Path 1852" d="M120.148,31.57v1.194h-.458V31.57Z" transform="translate(-114.707 -29.78)" fill="#231916"/>
            <path id="Path_1853" data-name="Path 1853" d="M120.2,31.57h.68l.222.833h0V31.57h.389v1.194h-.666l-.236-.86h0v.86H120.2V31.57Z" transform="translate(-114.51 -29.78)" fill="#231916"/>
            <path id="Path_1854" data-name="Path 1854" d="M121.752,32.171c0-.111,0-.333.18-.333s.18.222.18.333,0,.333-.18.333S121.752,32.3,121.752,32.171Zm.847,0c0-.4-.25-.611-.666-.611a.612.612,0,1,0,0,1.221C122.349,32.781,122.6,32.573,122.6,32.171Z" transform="translate(-114.091 -29.784)" fill="#231916"/>
            <path id="Path_1855" data-name="Path 1855" d="M122.37,31.57h.68l.153.652h0l.153-.652h.666v1.194h-.4v-.93h0l-.236.93h-.375l-.222-.93h0v.93H122.4V31.57Z" transform="translate(-113.668 -29.78)" fill="#231916"/>
            <path id="Path_1856" data-name="Path 1856" d="M124.208,31.57v1.194h-.458V31.57Z" transform="translate(-113.133 -29.78)" fill="#231916"/>
            <path id="Path_1857" data-name="Path 1857" d="M125.082,32.389v.361h-.458v-.361l-.444-.819h.5l.194.5h0l.18-.5h.472l-.444.819Z" transform="translate(-112.966 -29.78)" fill="#231916"/>
            <path id="Path_1858" data-name="Path 1858" d="M125.812,31.834h0l.139.389h-.264l.139-.389Zm-.722.93h.458l.069-.25h.389l.083.25h.486l-.43-1.194h-.625l-.416,1.194Z" transform="translate(-112.613 -29.78)" fill="#231916"/>
            <path id="Path_1859" data-name="Path 1859" d="M120.214,30.29h1.013v.278h-.569v.194h.541v.278h-.541v.43H120.2V30.29Z" transform="translate(-114.51 -30.276)" fill="#231916"/>
            <path id="Path_1860" data-name="Path 1860" d="M122.161,31.446a1.11,1.11,0,0,1-.333.056.628.628,0,0,1-.708-.625c0-.4.333-.6.708-.6a2.278,2.278,0,0,1,.319.028v.319a.648.648,0,0,0-.236-.042c-.194,0-.333.1-.333.291a.3.3,0,0,0,.319.305.786.786,0,0,0,.25-.042v.305Z" transform="translate(-114.153 -30.28)" fill="#231916"/>
          </g>
        </g>
        <g id="Group_991" data-name="Group 991" transform="translate(267.557 1.665)">
          <g id="Group_988" data-name="Group 988" transform="translate(86.604 230.791)">
            <path id="Path_1861" data-name="Path 1861" d="M264.194,167.82h75.057v10.3s22.5,32.574,5,85.216v55.918s-55.654,14.642-88.8,1.069V221s1.249-32.019,8.744-42.33V167.834Z" transform="translate(-255.45 -167.82)" fill="#e6e6e6"/>
            <line id="Line_166" data-name="Line 166" x2="75.057" transform="translate(8.744 10.839)" fill="none" stroke="#8f939f" stroke-width="0.46"/>
            <path id="Path_1862" data-name="Path 1862" d="M264.194,167.82h75.057v10.3s22.5,32.574,5,85.216v55.918s-55.654,14.642-88.8,1.069V221s1.249-32.019,8.744-42.33V167.834Z" transform="translate(-255.45 -167.82)" fill="none" stroke="#8f939f" stroke-width="0.46"/>
          </g>
          <g id="Group_990" data-name="Group 990">
            <path id="Path_1863" data-name="Path 1863" d="M321.083,13.445c-13.768.056-23.941-8.869-29.1-10.4l-98.929,35.6L208.331,89.2l45.55-2.97V213.662s70.408,30.922,134.611.569V84.644l42.775,4.566L448.7,38.136,349.645,3.341s-11.991,10.048-28.577,10.1Z" transform="translate(-193.05 -0.94)" fill="#f4ec2f"/>
            <g id="Group_989" data-name="Group 989">
              <path id="Path_1864" data-name="Path 1864" d="M321.083,13.525c-13.768.056-23.941-8.869-29.1-10.4L193.05,38.743l15.281,50.533,45.55-2.956v127.45s70.408,30.936,134.611.569V84.71l42.775,4.566L448.7,38.216,349.645,3.394s-11.991,10.062-28.577,10.132Z" transform="translate(-193.05 -0.909)" fill="none" stroke="#8f939f" stroke-width="0.42"/>
              <path id="Path_1865" data-name="Path 1865" d="M330.211,5.583,322.8,1.53c-29.631,11.284-56.32,1.235-56.32,1.235C261.858,5.305,257,7.373,257,7.373s41.137,17.779,73.2-1.79Z" transform="translate(-168.245 -1.53)" fill="#000039"/>
            </g>
          </g>
        </g>
        <g id="Group_992" data-name="Group 992" transform="translate(328.458 36.418)">
          <line id="Line_167" data-name="Line 167" x1="18.792" y2="52.698" transform="translate(168.767)" fill="none" stroke="#8f939f" stroke-width="0.32" stroke-dasharray="0 0.92"/>
          <path id="Path_1866" data-name="Path 1866" d="M371.444,151.72c-14.628,4.025-66.383,26.939-134.514,0" transform="translate(-236.93 21.974)" fill="none" stroke="#8f939f" stroke-width="0.32" stroke-dasharray="0 0.92"/>
        </g>
        <path id="Path_1867" data-name="Path 1867" d="M319.49,7.31c-5.177,2.623-16.446,5.288-26.481,5.288-15.586,0-20.929-2.082-28.549-3.858" transform="translate(102.206 2.377)" fill="none"/>
        <g id="Group_993" data-name="Group 993" transform="translate(354.161 232.457)">
          <path id="Path_1868" data-name="Path 1868" d="M344.247,311.494v-48.16c17.487-52.643-5-85.216-5-85.216v-10.3H264.194v10.839c-7.495,10.326-8.744,42.33-8.744,42.33v91.934c12.061,4.5,40.887,11.131,88.8-1.443Z" transform="translate(-255.45 -167.82)" fill="#f4ec2f" stroke="#898989" stroke-width="0.5"/>
          <path id="Path_1869" data-name="Path 1869" d="M255.45,272.773v7.384c33.143,13.573,88.8-1.069,88.8-1.069V271.33c-47.91,12.574-76.736,5.94-88.8,1.443Z" transform="translate(-255.45 -127.67)" fill="#000039"/>
        </g>
        <path id="Path_1870" data-name="Path 1870" d="M255.07,275.3s38.625,15.5,89.963-1.485" transform="translate(98.564 105.749)" fill="none" stroke="#8f939f" stroke-width="0.33" stroke-dasharray="0 1.03"/>
        <path id="Path_1871" data-name="Path 1871" d="M44.34,11.73S60.315,47,45.783,82.637" transform="translate(16.824 4.092)" fill="none" stroke="#8f939f" stroke-width="0.43"/>
        <path id="Path_1872" data-name="Path 1872" d="M147.48,11.68S133.7,46.488,146.231,81.671" transform="translate(54.305 4.072)" fill="none" stroke="#8f939f" stroke-width="0.4"/>
        <path id="Path_1873" data-name="Path 1873" d="M235.68,13.35s15.392,33.975,1.4,68.312" transform="translate(91.043 4.72)" fill="none" stroke="#8f939f" stroke-width="0.41"/>
        <path id="Path_1874" data-name="Path 1874" d="M336.419,13.62s-14.073,33.67-1.277,67.687" transform="translate(127.538 4.825)" fill="none" stroke="#8f939f" stroke-width="0.39"/>
        <g id="Group_994" data-name="Group 994" transform="translate(83.537 78.776)">
          <path id="Path_1875" data-name="Path 1875" d="M66.92,61.962a3.069,3.069,0,0,0,.153.68c.069.153.042.4-.153.389s-.305-.167-.222-.458a1.585,1.585,0,0,0,.111-.444v-.153c-.014-.069.1-.083.111,0" transform="translate(-58.052 -55.217)" fill="#fff"/>
          <path id="Path_1876" data-name="Path 1876" d="M66.942,61.156a1.394,1.394,0,0,0,.139.514c.056.083.1.43-.139.444-.125,0-.319-.1-.167-.486a1.017,1.017,0,0,0,.028-.111c.014-.069.028-.18.028-.18v-.167s-.014-.056.056-.069a.054.054,0,0,1,.056.056" transform="translate(-58.032 -55.535)" fill="#fff"/>
          <path id="Path_1877" data-name="Path 1877" d="M69.084,60.924a.677.677,0,0,0-.194-.5c-.472-.347-1.055.305-1.693.139a.621.621,0,0,1-.4-.444.515.515,0,0,0,.083-.291c-.028-.153-.194-.236-.319-.333v-.028c-.014-.056-.1-.028-.083.014v.028a.736.736,0,0,0-.1.514.25.25,0,0,0,.222.125,1.879,1.879,0,0,0,.361.527c.389.264.888.056,1.291-.042.083,0,.222-.042.278.042a.135.135,0,0,1-.056.125,2.751,2.751,0,0,1-1.027.153c-.763,0-1.263-.652-1.943-.833a3.638,3.638,0,0,0-1.6-.1c-.1.014-.18.083-.278.056.167-.527-.611-.569-.611-1.027-.028,0-.042,0-.056.042a.59.59,0,0,0,.278.6c0,.1.042.236-.069.291a.586.586,0,0,1-.167-.042,1.617,1.617,0,0,0-.819.042c-.111-.069-.069-.208-.083-.291.153-.167.333-.319.291-.555-.014-.028,0-.1-.069-.083,0,.319-.361.416-.541.638a.837.837,0,0,0,.1.86c.028.18,0,.4.1.541.319.167.111.527.25.777.1.167.291.111.458.083a.469.469,0,0,0,.278.028c.291-.111.125-.486.236-.722.042-.1.1-.069.194-.236a1.249,1.249,0,0,0,.056-.222.038.038,0,0,1,.056-.028c.042.014.042.042.042.042-.042.125-.042.278-.153.361-.305.236.028.694-.361.874a2.086,2.086,0,0,0,.305.819c.069.167.25.264.361.375a3.506,3.506,0,0,0,.083.68,3.263,3.263,0,0,0-.236.708c-.042.069-.111.139-.1.208h.278s.1-.111.139,0h.43l.028-.028s-.056-.125,0-.167c.056-.222-.056-.472,0-.722a1.658,1.658,0,0,0,.153-.361c.028-.056.056-.125.125-.139a3.439,3.439,0,0,0,2.248-.264c.208-.056.486-.222.652-.014a5.2,5.2,0,0,0,.347.985,2.131,2.131,0,0,0-.153.416.3.3,0,0,0-.1.333h.291s.111-.069.139,0h.43c.042-.111-.1-.18.042-.236,0-.278-.208-.6.028-.833a.189.189,0,0,0-.028-.236,5.356,5.356,0,0,1,.028-.888,1.736,1.736,0,0,1,.125-.4,2.778,2.778,0,0,0,.056-.333A1.758,1.758,0,0,0,69.1,60.9" transform="translate(-59.98 -56.33)" fill="#fff"/>
          <path id="Path_1878" data-name="Path 1878" d="M65.887,57.09a5.427,5.427,0,1,0,5.427,5.427,5.426,5.426,0,0,0-5.427-5.427m-4.7,5.427a4.7,4.7,0,0,1,3.109-4.427l2.484,9.035a4.711,4.711,0,0,1-5.593-4.608m6.3,4.427L65,57.909a4.706,4.706,0,0,1,2.484,9.049" transform="translate(-60.46 -57.09)" fill="#fff"/>
          <rect id="Rectangle_280" data-name="Rectangle 280" width="2.276" height="7.55" transform="translate(52.296 1.652)" fill="#fff"/>
          <path id="Path_1879" data-name="Path 1879" d="M95.712,63.79V58.28H93.45v7.55h5.579V63.79Z" transform="translate(-47.664 -56.628)" fill="#fff"/>
          <path id="Path_1880" data-name="Path 1880" d="M106.531,58.28v1.9h-2.137V65.83h-2.207V60.181H100.05v-1.9Z" transform="translate(-45.104 -56.628)" fill="#fff"/>
          <path id="Path_1881" data-name="Path 1881" d="M109.818,58.28v2.54h-2.332V58.28H105.21v7.55h2.276V62.846h2.332V65.83h2.276V58.28Z" transform="translate(-43.102 -56.628)" fill="#fff"/>
          <path id="Path_1882" data-name="Path 1882" d="M75.98,62.105a3.914,3.914,0,1,1,3.914,3.955,3.936,3.936,0,0,1-3.914-3.955m3.914,2.1a2.174,2.174,0,0,0,0-4.191,1.916,1.916,0,0,0-1.61,2.1,1.9,1.9,0,0,0,1.61,2.1" transform="translate(-54.44 -56.679)" fill="#fff"/>
          <path id="Path_1883" data-name="Path 1883" d="M87.34,62.105a3.914,3.914,0,1,1,3.914,3.955,3.936,3.936,0,0,1-3.914-3.955m3.914,2.1a2.169,2.169,0,1,0-1.61-2.1,1.906,1.906,0,0,0,1.61,2.1" transform="translate(-50.034 -56.679)" fill="#fff"/>
          <path id="Path_1884" data-name="Path 1884" d="M86.625,58.28v3.831L84.238,58.28H81.92v7.55h2.262V62.083l2.359,3.747h2.346V58.28Z" transform="translate(-52.136 -56.628)" fill="#fff"/>
          <rect id="Rectangle_281" data-name="Rectangle 281" width="1.541" height="7.55" transform="translate(73.78 1.652)" fill="#fff"/>
          <path id="Path_1885" data-name="Path 1885" d="M120.17,58.28v4.913l-3.15-4.913H115.34v7.55h1.527V60.556l3.192,5.274h1.652V58.28Z" transform="translate(-39.173 -56.628)" fill="#fff"/>
          <path id="Path_1886" data-name="Path 1886" d="M127.563,63.664a3.369,3.369,0,0,1-3.484,2.72,4.245,4.245,0,0,1,0-8.424,3.487,3.487,0,0,1,3.484,2.72h-1.638a2.063,2.063,0,0,0-1.846-1.346c-1.194,0-2.151,1.207-2.151,2.831s.972,2.928,2.151,2.928a2.129,2.129,0,0,0,1.86-1.43h1.624Z" transform="translate(-37.225 -56.753)" fill="#fff"/>
          <rect id="Rectangle_282" data-name="Rectangle 282" width="1.596" height="1.485" transform="translate(91.184 7.703)" fill="#fff"/>
          <path id="Path_1887" data-name="Path 1887" d="M113.011,62.59H111.47v1.554h.777a1.1,1.1,0,0,1-.763,1.3v.5c1.291.028,1.485-1.332,1.513-1.8h0V62.59Z" transform="translate(-40.674 -54.957)" fill="#fff"/>
          <path id="Path_1888" data-name="Path 1888" d="M74.874,58.28,73.819,62.1,72.765,58.28H69.85v7.55h2.04V61.791l1.055,4.039H74.68l1.055-4.039V65.83h2.054V58.28Z" transform="translate(-56.818 -56.628)" fill="#fff"/>
          <path id="Path_1889" data-name="Path 1889" d="M63.988,58.018l2.387,8.716a5.62,5.62,0,0,1-.694.056,4.552,4.552,0,0,1-1.693-8.771m.1-.208a4.7,4.7,0,0,0,2.484,9.035Z" transform="translate(-60.254 -56.811)" fill="#231916"/>
          <path id="Path_1890" data-name="Path 1890" d="M64.618,57.77a4.543,4.543,0,0,1,1.693,8.758l-2.387-8.716a5.844,5.844,0,0,1,.694-.056m0-.153a4.7,4.7,0,0,0-.888.083l2.484,9.035a4.709,4.709,0,0,0-1.6-9.132" transform="translate(-59.192 -56.896)" fill="#231916"/>
        </g>
        <g id="Group_996" data-name="Group 996" transform="translate(51.852 350.743)">
          <g id="Group_995" data-name="Group 995" transform="translate(0 6.554)">
            <path id="Path_1891" data-name="Path 1891" d="M39.406,258.228l-.93-.458h0L37.63,259.5l.444.222s.291-.611.291-.625c.028,0,.472.236.472.236a.642.642,0,0,0,.93-.236.625.625,0,0,0-.375-.874Zm-.652.083.319.167c.264.125.347.236.25.4-.042.069-.111.25-.43.111l-.389-.18a5.248,5.248,0,0,1,.236-.486Z" transform="translate(-37.63 -257.77)" fill="#231916"/>
            <path id="Path_1892" data-name="Path 1892" d="M39.6,258.75l-.625,1.291.416.194.625-1.291h-.014Z" transform="translate(-37.106 -257.39)" fill="#231916"/>
            <path id="Path_1893" data-name="Path 1893" d="M39.637,258.41l-.167.333.43.208.153-.319-.014-.014Z" transform="translate(-36.916 -257.522)" fill="#231916"/>
            <path id="Path_1894" data-name="Path 1894" d="M41.571,259.706h-.028l-.472-.25s-.389.222-.416.25c0-.042-.069-.486-.069-.486l-.514-.25s.194.861.194.874l-.847.4.514.236s.4-.236.444-.25c0,.042.083.5.083.5l.514.25s-.208-.888-.208-.916c.014,0,.819-.389.819-.389Z" transform="translate(-36.936 -257.305)" fill="#231916"/>
            <path id="Path_1895" data-name="Path 1895" d="M41.972,259.823a.76.76,0,0,0-1.11.305.775.775,0,0,0,.458,1.055.787.787,0,0,0,1.11-.291.775.775,0,0,0-.458-1.055Zm-.514,1.055a.36.36,0,0,1-.167-.541.4.4,0,1,1,.722.333.381.381,0,0,1-.541.208Z" transform="translate(-36.407 -257.02)" fill="#231916"/>
            <path id="Path_1896" data-name="Path 1896" d="M43.9,260.306l-.486-.236-1.582,1.374.472.222s.305-.278.319-.291.722.347.736.361-.042.416-.042.416l.486.236.111-2.082h0Zm-.514,1.069-.486-.236c.014-.014.527-.486.555-.514,0,.042-.069.722-.069.763Z" transform="translate(-36.001 -256.878)" fill="#231916"/>
            <path id="Path_1897" data-name="Path 1897" d="M44.247,260.58l-.847,1.735.43.194.833-1.735h-.014Z" transform="translate(-35.392 -256.68)" fill="#231916"/>
            <path id="Path_1898" data-name="Path 1898" d="M45.19,261.393a.7.7,0,0,0-1.041.291.736.736,0,0,0,.416,1.083.791.791,0,0,0,.888-.083h0l-.43-.222h0a.273.273,0,0,1-.305.028.332.332,0,0,1-.208-.458l1.041.514.028-.069a.723.723,0,0,0-.375-1.055Zm-.555.4a.291.291,0,0,1,.416-.1.311.311,0,0,1,.167.389A4.57,4.57,0,0,1,44.634,261.8Z" transform="translate(-35.141 -256.41)" fill="#231916"/>
            <path id="Path_1899" data-name="Path 1899" d="M45.735,261.73l-.625,1.291.416.194.625-1.291h-.014Z" transform="translate(-34.729 -256.234)" fill="#231916"/>
            <path id="Path_1900" data-name="Path 1900" d="M45.763,261.39l-.153.333.416.208.167-.333h-.014Z" transform="translate(-34.535 -256.366)" fill="#231916"/>
            <path id="Path_1901" data-name="Path 1901" d="M46.6,262.392l.1-.208-.4-.194-.638,1.291.416.194.319-.666q.146-.291.5-.125a.3.3,0,0,1,.111.069h0l.167-.347-.083-.056a.476.476,0,0,0-.527.042Z" transform="translate(-34.515 -256.133)" fill="#231916"/>
            <path id="Path_1902" data-name="Path 1902" d="M47.724,262.613a.768.768,0,0,0-1.11.291.784.784,0,0,0,.444,1.069.762.762,0,1,0,.652-1.36Zm-.514,1.055a.417.417,0,1,1,.527-.208A.363.363,0,0,1,47.211,263.668Z" transform="translate(-34.178 -255.938)" fill="#231916"/>
          </g>
          <path id="Path_1903" data-name="Path 1903" d="M53.152,259.838c.5-1.027.458-2.1-.389-2.637a11.86,11.86,0,0,0-1.5-.791l-.375-.18a.393.393,0,0,0-.6.194,1.26,1.26,0,0,0-.18.472c-.014.167.069.291.264.4l1.041.5h0c.638.305.985.555.708,1.124l-2.6-1.263c.514-1.1-.18-2.11-2.1-3.053l-1.915-.93a5.434,5.434,0,0,0-1.929-.625,1.578,1.578,0,0,0-1.638.972l-2.47,5.094a.451.451,0,0,0,.222.68,1.322,1.322,0,0,0,.541.208.431.431,0,0,0,.444-.291l.555-1.152,2.581,1.249c-.472,1.069.236,2.068,2.123,2.984l1.915.944a5.086,5.086,0,0,0,1.929.625,1.578,1.578,0,0,0,1.638-.958l1.721-3.539Zm-10.021-5.2c.208-.444.86-.4,1.915.111l1.874.916a6.719,6.719,0,0,1,.972.541c.389.278.527.569.4.86-1.707-.819-2.845-.652-3.414.486l-.583,1.207-2.581-1.249,1.4-2.859Zm4.677,3.456-.583,1.207c-.222.472-.791.486-1.693.042l.6-1.221c.222-.444.777-.458,1.679-.042Zm2.429,4.677c-.222.444-.86.4-1.915-.111l-1.874-.916a7.116,7.116,0,0,1-.985-.541c-.347-.278-.5-.541-.416-.8,1.707.819,2.845.652,3.414-.514l.583-1.207,2.581,1.249-1.374,2.831Z" transform="translate(-36.941 -253.047)" fill="#231916"/>
        </g>
        <g id="Group_998" data-name="Group 998" transform="translate(161.661 362.682)">
          <rect id="Rectangle_283" data-name="Rectangle 283" width="1.499" height="3.955" transform="translate(4.779 9.758) rotate(-16.45)" fill="#231916"/>
          <g id="Group_997" data-name="Group 997">
            <path id="Path_1904" data-name="Path 1904" d="M124.768,268.678a3.516,3.516,0,0,0-1.166.139c-.222.069-.611.18-.541.43.139.5,1.971-.541,2.4.916.291,1.013-.611,1.554-1.443,1.8a6.867,6.867,0,0,1-1.6.278l-.291-.985a3.494,3.494,0,0,0,1.36-.125c.333-.1.625-.264.569-.444-.153-.514-1.971.527-2.415-.944-.305-1.041.708-1.541,1.554-1.79a7.956,7.956,0,0,1,1.277-.236l.291.971Z" transform="translate(-114.873 -259.296)" fill="#231916"/>
            <path id="Path_1905" data-name="Path 1905" d="M126.347,267.186l1.43-.416,1.11,3.789-1.43.416-.4-1.36-.958.278.4,1.374-1.43.416-1.11-3.789,1.43-.416.389,1.3.958-.278Z" transform="translate(-113.953 -259.664)" fill="#231916"/>
            <rect id="Rectangle_284" data-name="Rectangle 284" width="1.499" height="3.955" transform="translate(14.133 7.001) rotate(-16.33)" fill="#231916"/>
            <path id="Path_1906" data-name="Path 1906" d="M128.16,266.674l2.137-.625,1.471,2.47.014-.014-.777-2.665,1.221-.361,1.124,3.789-2.11.625-1.541-2.54h-.014l.819,2.748-1.235.361Z" transform="translate(-112.324 -260.164)" fill="#231916"/>
            <path id="Path_1907" data-name="Path 1907" d="M133.169,267.111c-.1-.361-.264-1.055.264-1.221s.791.527.9.874c.111.4.291,1.055-.278,1.221-.514.153-.763-.472-.874-.874m2.651-.777a2.174,2.174,0,0,0-4.164,1.221,1.9,1.9,0,0,0,2.651,1.346,1.919,1.919,0,0,0,1.513-2.581" transform="translate(-111.004 -260.407)" fill="#231916"/>
            <path id="Path_1908" data-name="Path 1908" d="M134.37,264.937l2.11-.611,1.1,1.929.014-.014-.125-2.207,2.11-.625,1.11,3.789-1.277.375-.9-2.97-.014.014.153,3.178-1.194.361-1.6-2.776-.014.014.861,2.97-1.221.361Z" transform="translate(-109.915 -260.967)" fill="#231916"/>
            <rect id="Rectangle_285" data-name="Rectangle 285" width="1.499" height="3.955" transform="translate(29.918 2.364) rotate(-16.36)" fill="#231916"/>
            <path id="Path_1909" data-name="Path 1909" d="M143.031,265.159l.347,1.166-1.43.43-.347-1.166-2.151-2.221,1.554-.458,1.055,1.416h0l.125-1.763,1.485-.444Z" transform="translate(-107.945 -261.468)" fill="#231916"/>
            <path id="Path_1910" data-name="Path 1910" d="M143.918,262.774h0l.777,1.124-.833.25.042-1.36Zm-1.388,3.636,1.43-.416v-.888l1.194-.361.486.749,1.5-.444-2.443-3.4-1.971.583Z" transform="translate(-106.75 -261.65)" fill="#231916"/>
            <path id="Path_1911" data-name="Path 1911" d="M119.9,269.111l.791,2.665h-.014l-1.471-2.457-2.151.625,1.124,3.789,1.221-.361-.8-2.748h.014l1.527,2.526,2.11-.611-1.11-3.789Z" transform="translate(-116.634 -258.896)" fill="#231916"/>
            <path id="Path_1912" data-name="Path 1912" d="M117.125,268.771l.056.194.319-.1.083.264-.333.1.139.458-.305.083-.333-1.166.652-.194.083.264Z" transform="translate(-116.75 -259.028)" fill="#231916"/>
            <path id="Path_1913" data-name="Path 1913" d="M118.693,268.644a.666.666,0,1,1-.819-.416.628.628,0,0,1,.8.416m-.958.291a.341.341,0,1,0,.652-.194.326.326,0,0,0-.416-.208.346.346,0,0,0-.236.4" transform="translate(-116.5 -259.11)" fill="#231916"/>
            <path id="Path_1914" data-name="Path 1914" d="M119.671,268.354a.651.651,0,0,1-.444.833.65.65,0,1,1-.361-1.249.628.628,0,0,1,.8.416m-.958.291a.338.338,0,0,0,.43.25.352.352,0,0,0,.222-.444.326.326,0,0,0-.416-.208.346.346,0,0,0-.236.4" transform="translate(-116.118 -259.222)" fill="#231916"/>
            <path id="Path_1915" data-name="Path 1915" d="M120.088,268.9l-.291.1-.278-.916-.236.069-.083-.25.791-.236.083.25-.25.083Z" transform="translate(-115.8 -259.319)" fill="#231916"/>
            <path id="Path_1916" data-name="Path 1916" d="M120.217,268.838l-.347-1.166.43-.125c.208-.056.361-.028.43.208a.255.255,0,0,1-.056.278h0a.271.271,0,0,1,.319.236c.069.25-.111.389-.319.444l-.458.139Zm.083-.791h.042c.083-.042.153-.069.125-.167s-.125-.083-.208-.056h-.014l.069.236Zm.139.472h.042c.083-.042.236-.069.194-.208s-.18-.083-.278-.056h-.028Z" transform="translate(-115.54 -259.372)" fill="#231916"/>
            <path id="Path_1917" data-name="Path 1917" d="M121.123,268.343v.222l-.333.083.1-1.291.319-.1.777,1.041-.319.1-.139-.18-.416.125Zm.028-.666h0v.4l.236-.069-.236-.333Z" transform="translate(-115.183 -259.474)" fill="#231916"/>
            <path id="Path_1918" data-name="Path 1918" d="M122.059,267.992l.361-.1.069.25-.652.194-.347-1.166.305-.083Z" transform="translate(-114.911 -259.54)" fill="#231916"/>
            <path id="Path_1919" data-name="Path 1919" d="M122.649,267.822l.361-.111.069.264-.652.194L122.08,267l.305-.083Z" transform="translate(-114.683 -259.606)" fill="#231916"/>
            <path id="Path_1920" data-name="Path 1920" d="M123.865,266.932a.32.32,0,0,0-.5.361.314.314,0,0,0,.4.222.385.385,0,0,0,.222-.194l.111.361a1.127,1.127,0,0,1-.25.139.73.73,0,0,1-.486-.042.6.6,0,0,1-.319-.389.631.631,0,0,1,.43-.791.7.7,0,0,1,.291-.028l.111.361Z" transform="translate(-114.317 -259.743)" fill="#231916"/>
            <path id="Path_1921" data-name="Path 1921" d="M124.269,267.342l.361-.1.069.25-.652.194-.347-1.166.305-.083Z" transform="translate(-114.054 -259.792)" fill="#231916"/>
            <path id="Path_1922" data-name="Path 1922" d="M125.2,266.14l.194.652a.55.55,0,0,1,0,.444.584.584,0,0,1-.347.25.54.54,0,0,1-.416-.014.524.524,0,0,1-.236-.375l-.194-.652.291-.083.18.611c.042.153.1.305.291.25s.153-.222.111-.375l-.18-.611.305-.083Z" transform="translate(-113.86 -259.908)" fill="#231916"/>
            <path id="Path_1923" data-name="Path 1923" d="M125.377,267.318l-.347-1.166.43-.125c.208-.056.361-.028.43.208a.255.255,0,0,1-.056.278h0a.271.271,0,0,1,.319.222c.069.25-.111.389-.319.444l-.458.139Zm.083-.8h.028c.083-.028.153-.069.125-.167s-.125-.083-.208-.056h-.028l.069.222Zm.139.486h.042c.083-.042.236-.083.194-.208s-.18-.083-.278-.056h-.028Z" transform="translate(-113.538 -259.962)" fill="#231916"/>
          </g>
        </g>
        <line id="Line_168" data-name="Line 168" x2="15.975" y2="53.295" transform="translate(275.357 36.113)" fill="none" stroke="#8f939f" stroke-width="0.33" stroke-dasharray="0 0.95"/>
      </g>
      <path id="Path_1924" data-name="Path 1924" d="M97.842,112.785H92.29V79.85h5.552Z" transform="translate(35.423 30.515)" fill="#000039"/>
      <path id="Path_1925" data-name="Path 1925" d="M292.068,108.819H279.91V36.76h12.158Z" transform="translate(108.199 13.801)" fill="#000039"/>
    </g>
    <path id="Path_1926" data-name="Path 1926" d="M132.314,37.917c-9.285.028-17.265-15.114-23.136-25.926-3.067-5.635-5.552-10.09-7.37-10.631L.27,37.889,16.009,89.768,62.7,86.729V217.523s72.267,31.741,138.164.583V85.091l43.913,4.677,17.973-52.407L161.015,1.624s-11.686,36.224-28.7,36.279Z" transform="translate(-0.27 0.264)" fill="none" stroke="#8f939f" stroke-width="0.43"/>
    <g id="Group_1003" data-name="Group 1003" transform="translate(95.112 0)">
      <g id="Group_1002" data-name="Group 1002">
        <path id="Path_1927" data-name="Path 1927" d="M76.494,3.31s24.2,11.714,49.617.1c0,0-3.539,27.619-24.593,33.726,0,0-22.387-8.855-25.037-33.809Z" transform="translate(-65.821 1.02)" stroke="#8f939f" stroke-width="0.71" fill="url(#linear-gradient)"/>
        <g id="Group_1001" data-name="Group 1001">
          <path id="Path_1928" data-name="Path 1928" d="M126.6,8.143,128.378.19S100.967,10.377,75.61.2l1.624,7.758s20.555,10.451,49.367.18Z" transform="translate(-66.158 -0.19)" fill="#000039" stroke="#898989" stroke-width="0.25"/>
          <path id="Path_1929" data-name="Path 1929" d="M104.052,33.249S83.373,34.776,77.96.37L68.8,2.327s7.425,39.111,35.766,39.111c0,0,27.272,1.4,35.835-39.111L130.672.55s-5.316,32.7-26.62,32.7Z" transform="translate(-68.8 -0.12)" fill="#000039" stroke="#898989" stroke-width="0.25"/>
        </g>
      </g>
      <path id="Path_1930" data-name="Path 1930" d="M120.3,15.31l8.7,4.733s-24.635,36.321-53.739,0l7.966-4.983s19.4,26.869,37.07.25Z" transform="translate(-66.294 5.578)" fill="#f4ec2f" stroke="#898989" stroke-width="0.25"/>
    </g>
    <g id="Group_1006" data-name="Group 1006" transform="translate(362.452 232.651)">
      <g id="Group_1005" data-name="Group 1005" clip-path="url(#clip-path-2)">
        <g id="Group_1004" data-name="Group 1004" transform="translate(-28.54 -7.55)">
          <path id="Path_1931" data-name="Path 1931" d="M333.486,187.293,330.96,162.38" transform="translate(-205.911 -162.38)" fill="none" stroke="#8f939f" stroke-linecap="round" stroke-linejoin="round" stroke-width="0.23"/>
          <path id="Path_1932" data-name="Path 1932" d="M331.839,187.293,329.41,162.38" transform="translate(-206.512 -162.38)" fill="none" stroke="#8f939f" stroke-linecap="round" stroke-linejoin="round" stroke-width="0.23"/>
          <path id="Path_1933" data-name="Path 1933" d="M330.209,187.293,327.85,162.38" transform="translate(-207.118 -162.38)" fill="none" stroke="#8f939f" stroke-linecap="round" stroke-linejoin="round" stroke-width="0.23"/>
          <path id="Path_1934" data-name="Path 1934" d="M328.58,187.293l-2.29-24.913" transform="translate(-207.723 -162.38)" fill="none" stroke="#8f939f" stroke-linecap="round" stroke-linejoin="round" stroke-width="0.23"/>
          <path id="Path_1935" data-name="Path 1935" d="M326.951,187.293,324.73,162.38" transform="translate(-208.328 -162.38)" fill="none" stroke="#8f939f" stroke-linecap="round" stroke-linejoin="round" stroke-width="0.23"/>
          <path id="Path_1936" data-name="Path 1936" d="M325.313,187.293,323.19,162.38" transform="translate(-208.925 -162.38)" fill="none" stroke="#8f939f" stroke-linecap="round" stroke-linejoin="round" stroke-width="0.23"/>
          <path id="Path_1937" data-name="Path 1937" d="M323.674,187.293,321.62,162.38" transform="translate(-209.534 -162.38)" fill="none" stroke="#8f939f" stroke-linecap="round" stroke-linejoin="round" stroke-width="0.23"/>
          <path id="Path_1938" data-name="Path 1938" d="M322.041,187.293,320.07,162.38" transform="translate(-210.135 -162.38)" fill="none" stroke="#8f939f" stroke-linecap="round" stroke-linejoin="round" stroke-width="0.23"/>
          <path id="Path_1939" data-name="Path 1939" d="M320.425,187.293,318.51,162.38" transform="translate(-210.74 -162.38)" fill="none" stroke="#8f939f" stroke-linecap="round" stroke-linejoin="round" stroke-width="0.23"/>
          <path id="Path_1940" data-name="Path 1940" d="M318.778,187.293,316.96,162.38" transform="translate(-211.342 -162.38)" fill="none" stroke="#8f939f" stroke-linecap="round" stroke-linejoin="round" stroke-width="0.23"/>
          <path id="Path_1941" data-name="Path 1941" d="M317.139,187.293,315.39,162.38" transform="translate(-211.951 -162.38)" fill="none" stroke="#8f939f" stroke-linecap="round" stroke-linejoin="round" stroke-width="0.23"/>
          <path id="Path_1942" data-name="Path 1942" d="M315.505,187.293,313.84,162.38" transform="translate(-212.552 -162.38)" fill="none" stroke="#8f939f" stroke-linecap="round" stroke-linejoin="round" stroke-width="0.23"/>
          <path id="Path_1943" data-name="Path 1943" d="M313.862,187.293,312.28,162.38" transform="translate(-213.157 -162.38)" fill="none" stroke="#8f939f" stroke-linecap="round" stroke-linejoin="round" stroke-width="0.23"/>
          <path id="Path_1944" data-name="Path 1944" d="M312.243,187.293,310.73,162.38" transform="translate(-213.758 -162.38)" fill="none" stroke="#8f939f" stroke-linecap="round" stroke-linejoin="round" stroke-width="0.23"/>
          <path id="Path_1945" data-name="Path 1945" d="M310.6,187.293,309.16,162.38" transform="translate(-214.367 -162.38)" fill="none" stroke="#8f939f" stroke-linecap="round" stroke-linejoin="round" stroke-width="0.23"/>
          <path id="Path_1946" data-name="Path 1946" d="M308.97,187.293l-1.36-24.913" transform="translate(-214.968 -162.38)" fill="none" stroke="#8f939f" stroke-linecap="round" stroke-linejoin="round" stroke-width="0.23"/>
          <path id="Path_1947" data-name="Path 1947" d="M307.337,187.293,306.06,162.38" transform="translate(-215.57 -162.38)" fill="none" stroke="#8f939f" stroke-linecap="round" stroke-linejoin="round" stroke-width="0.23"/>
          <path id="Path_1948" data-name="Path 1948" d="M305.707,187.293,304.5,162.38" transform="translate(-216.175 -162.38)" fill="none" stroke="#8f939f" stroke-linecap="round" stroke-linejoin="round" stroke-width="0.23"/>
          <path id="Path_1949" data-name="Path 1949" d="M304.064,187.293,302.94,162.38" transform="translate(-216.78 -162.38)" fill="none" stroke="#8f939f" stroke-linecap="round" stroke-linejoin="round" stroke-width="0.23"/>
          <path id="Path_1950" data-name="Path 1950" d="M302.421,187.293,301.38,162.38" transform="translate(-217.385 -162.38)" fill="none" stroke="#8f939f" stroke-linecap="round" stroke-linejoin="round" stroke-width="0.23"/>
          <path id="Path_1951" data-name="Path 1951" d="M300.8,187.293l-.972-24.913" transform="translate(-217.986 -162.38)" fill="none" stroke="#8f939f" stroke-linecap="round" stroke-linejoin="round" stroke-width="0.23"/>
          <path id="Path_1952" data-name="Path 1952" d="M299.172,187.293l-.9-24.913" transform="translate(-218.591 -162.38)" fill="none" stroke="#8f939f" stroke-linecap="round" stroke-linejoin="round" stroke-width="0.23"/>
          <path id="Path_1953" data-name="Path 1953" d="M297.525,187.293l-.8-24.913" transform="translate(-219.193 -162.38)" fill="none" stroke="#8f939f" stroke-linecap="round" stroke-linejoin="round" stroke-width="0.23"/>
          <path id="Path_1954" data-name="Path 1954" d="M295.909,187.293l-.749-24.913" transform="translate(-219.798 -162.38)" fill="none" stroke="#8f939f" stroke-linecap="round" stroke-linejoin="round" stroke-width="0.23"/>
          <path id="Path_1955" data-name="Path 1955" d="M294.252,187.293,293.6,162.38" transform="translate(-220.403 -162.38)" fill="none" stroke="#8f939f" stroke-linecap="round" stroke-linejoin="round" stroke-width="0.23"/>
          <path id="Path_1956" data-name="Path 1956" d="M292.633,187.293l-.583-24.913" transform="translate(-221.004 -162.38)" fill="none" stroke="#8f939f" stroke-linecap="round" stroke-linejoin="round" stroke-width="0.23"/>
          <path id="Path_1957" data-name="Path 1957" d="M290.994,187.293l-.514-24.913" transform="translate(-221.613 -162.38)" fill="none" stroke="#8f939f" stroke-linecap="round" stroke-linejoin="round" stroke-width="0.23"/>
          <path id="Path_1958" data-name="Path 1958" d="M289.36,187.293l-.43-24.913" transform="translate(-222.214 -162.38)" fill="none" stroke="#8f939f" stroke-linecap="round" stroke-linejoin="round" stroke-width="0.23"/>
          <path id="Path_1959" data-name="Path 1959" d="M287.731,187.293l-.361-24.913" transform="translate(-222.819 -162.38)" fill="none" stroke="#8f939f" stroke-linecap="round" stroke-linejoin="round" stroke-width="0.23"/>
          <path id="Path_1960" data-name="Path 1960" d="M286.1,187.293l-.278-24.913" transform="translate(-223.421 -162.38)" fill="none" stroke="#8f939f" stroke-linecap="round" stroke-linejoin="round" stroke-width="0.23"/>
          <path id="Path_1961" data-name="Path 1961" d="M284.468,187.293l-.208-24.913" transform="translate(-224.026 -162.38)" fill="none" stroke="#8f939f" stroke-linecap="round" stroke-linejoin="round" stroke-width="0.23"/>
          <path id="Path_1962" data-name="Path 1962" d="M282.821,187.293l-.111-24.913" transform="translate(-224.627 -162.38)" fill="none" stroke="#8f939f" stroke-linecap="round" stroke-linejoin="round" stroke-width="0.23"/>
          <path id="Path_1963" data-name="Path 1963" d="M281.192,187.293l-.042-24.913" transform="translate(-225.232 -162.38)" fill="none" stroke="#8f939f" stroke-linecap="round" stroke-linejoin="round" stroke-width="0.23"/>
          <path id="Path_1964" data-name="Path 1964" d="M279.57,187.293l.028-24.913" transform="translate(-225.845 -162.38)" fill="none" stroke="#8f939f" stroke-linecap="round" stroke-linejoin="round" stroke-width="0.23"/>
          <path id="Path_1965" data-name="Path 1965" d="M277.95,187.293l.111-24.913" transform="translate(-226.473 -162.38)" fill="none" stroke="#8f939f" stroke-linecap="round" stroke-linejoin="round" stroke-width="0.23"/>
          <path id="Path_1966" data-name="Path 1966" d="M276.34,187.293l.194-24.913" transform="translate(-227.098 -162.38)" fill="none" stroke="#8f939f" stroke-linecap="round" stroke-linejoin="round" stroke-width="0.23"/>
          <path id="Path_1967" data-name="Path 1967" d="M274.73,187.293l.25-24.913" transform="translate(-227.722 -162.38)" fill="none" stroke="#8f939f" stroke-linecap="round" stroke-linejoin="round" stroke-width="0.23"/>
          <path id="Path_1968" data-name="Path 1968" d="M273.11,187.293l.347-24.913" transform="translate(-228.351 -162.38)" fill="none" stroke="#8f939f" stroke-linecap="round" stroke-linejoin="round" stroke-width="0.23"/>
          <path id="Path_1969" data-name="Path 1969" d="M271.5,187.293l.43-24.913" transform="translate(-228.975 -162.38)" fill="none" stroke="#8f939f" stroke-linecap="round" stroke-linejoin="round" stroke-width="0.23"/>
          <path id="Path_1970" data-name="Path 1970" d="M269.89,187.293l.486-24.913" transform="translate(-229.6 -162.38)" fill="none" stroke="#8f939f" stroke-linecap="round" stroke-linejoin="round" stroke-width="0.23"/>
          <path id="Path_1971" data-name="Path 1971" d="M268.27,187.293l.583-24.913" transform="translate(-230.228 -162.38)" fill="none" stroke="#8f939f" stroke-linecap="round" stroke-linejoin="round" stroke-width="0.23"/>
          <path id="Path_1972" data-name="Path 1972" d="M266.66,187.293l.652-24.913" transform="translate(-230.852 -162.38)" fill="none" stroke="#8f939f" stroke-linecap="round" stroke-linejoin="round" stroke-width="0.23"/>
          <path id="Path_1973" data-name="Path 1973" d="M265.05,187.293l.736-24.913" transform="translate(-231.477 -162.38)" fill="none" stroke="#8f939f" stroke-linecap="round" stroke-linejoin="round" stroke-width="0.23"/>
          <path id="Path_1974" data-name="Path 1974" d="M263.44,187.293l.8-24.913" transform="translate(-232.101 -162.38)" fill="none" stroke="#8f939f" stroke-linecap="round" stroke-linejoin="round" stroke-width="0.23"/>
          <path id="Path_1975" data-name="Path 1975" d="M261.83,187.293l.888-24.913" transform="translate(-232.726 -162.38)" fill="none" stroke="#8f939f" stroke-linecap="round" stroke-linejoin="round" stroke-width="0.23"/>
          <path id="Path_1976" data-name="Path 1976" d="M260.22,187.293l.958-24.913" transform="translate(-233.35 -162.38)" fill="none" stroke="#8f939f" stroke-linecap="round" stroke-linejoin="round" stroke-width="0.23"/>
          <path id="Path_1977" data-name="Path 1977" d="M258.6,187.293l1.041-24.913" transform="translate(-233.979 -162.38)" fill="none" stroke="#8f939f" stroke-linecap="round" stroke-linejoin="round" stroke-width="0.23"/>
          <path id="Path_1978" data-name="Path 1978" d="M256.98,187.293l1.11-24.913" transform="translate(-234.607 -162.38)" fill="none" stroke="#8f939f" stroke-linecap="round" stroke-linejoin="round" stroke-width="0.23"/>
          <path id="Path_1979" data-name="Path 1979" d="M255.38,187.293l1.194-24.913" transform="translate(-235.228 -162.38)" fill="none" stroke="#8f939f" stroke-linecap="round" stroke-linejoin="round" stroke-width="0.23"/>
          <path id="Path_1980" data-name="Path 1980" d="M253.76,187.293l1.277-24.913" transform="translate(-235.856 -162.38)" fill="none" stroke="#8f939f" stroke-linecap="round" stroke-linejoin="round" stroke-width="0.23"/>
          <path id="Path_1981" data-name="Path 1981" d="M252.15,187.293l1.332-24.913" transform="translate(-236.481 -162.38)" fill="none" stroke="#8f939f" stroke-linecap="round" stroke-linejoin="round" stroke-width="0.23"/>
          <path id="Path_1982" data-name="Path 1982" d="M250.55,187.293l1.416-24.913" transform="translate(-237.101 -162.38)" fill="none" stroke="#8f939f" stroke-linecap="round" stroke-linejoin="round" stroke-width="0.23"/>
          <path id="Path_1983" data-name="Path 1983" d="M248.93,187.293l1.5-24.913" transform="translate(-237.73 -162.38)" fill="none" stroke="#8f939f" stroke-linecap="round" stroke-linejoin="round" stroke-width="0.23"/>
          <path id="Path_1984" data-name="Path 1984" d="M247.31,187.293l1.582-24.913" transform="translate(-238.358 -162.38)" fill="none" stroke="#8f939f" stroke-linecap="round" stroke-linejoin="round" stroke-width="0.23"/>
          <path id="Path_1985" data-name="Path 1985" d="M245.7,187.293l1.652-24.913" transform="translate(-238.983 -162.38)" fill="none" stroke="#8f939f" stroke-linecap="round" stroke-linejoin="round" stroke-width="0.23"/>
          <path id="Path_1986" data-name="Path 1986" d="M244.08,187.293l1.749-24.913" transform="translate(-239.611 -162.38)" fill="none" stroke="#8f939f" stroke-linecap="round" stroke-linejoin="round" stroke-width="0.23"/>
          <path id="Path_1987" data-name="Path 1987" d="M242.48,187.293,244.3,162.38" transform="translate(-240.232 -162.38)" fill="none" stroke="#8f939f" stroke-linecap="round" stroke-linejoin="round" stroke-width="0.23"/>
          <path id="Path_1988" data-name="Path 1988" d="M240.86,187.293l1.888-24.913" transform="translate(-240.86 -162.38)" fill="none" stroke="#8f939f" stroke-linecap="round" stroke-linejoin="round" stroke-width="0.23"/>
        </g>
      </g>
      <path id="Path_1990" data-name="Path 1990" d="M261.877,167.82h75.057a46.564,46.564,0,0,1,.056,10.923H261.821a34.617,34.617,0,0,1,.056-10.923Z" transform="translate(-261.424 -167.82)" fill="none" stroke="#8f939f" stroke-width="0.68"/>
    </g>
  </g>
</svg>
