<svg xmlns="http://www.w3.org/2000/svg" width="1400" height="152.664" viewBox="0 0 1400 152.664">
  <path id="Path_957" data-name="Path 957" d="M56.4-36.166c34.088,0,43.985-17.044,43.985-48.2V-186.814H67.768v107.4c0,9.347-.916,19.61-11.363,19.61S44.859-70.071,44.859-79.418v-107.4H12.42V-84.366C12.42-53.21,22.133-36.166,56.4-36.166Zm64.878-2.2h32.805V-101.41h13.2c24.008,0,42.885-8.064,42.885-42.335,0-27.49-12.462-43.068-39.037-43.068H121.282Zm32.805-85.954v-39.4H164.9c13.2,0,14.478,8.247,14.478,19.427,0,13.562-2.2,19.976-14.3,19.976ZM272.847-38.365h37.937c38.3,0,49.483-14.3,49.483-47.65V-139.9c0-32.989-11.179-46.917-49.849-46.917h-37.57Zm32.805-22.725V-163.905H310.6c14.478,0,15.944,5.315,15.944,18.327v64.694c0,13.379-.916,19.793-15.761,19.793ZM370.9-38.365h30.973L407-69.7H428.81l4.948,31.339H464L436.324-186.814H398.937Zm39.037-50.949,7.881-57.913,7.881,57.913Zm74.591,50.949h32.989V-162.439h22.176v-24.375H462.165v24.375h22.359Zm68.176,0h67.077V-60.541H585.505v-44.351h25.841v-22.725H585.505v-36.837h33.9v-22.359H552.7Zm128.839,0h32.805v-65.977h27.307v-22.909H714.344v-37.387h31.339v-22.176H681.539Zm122.058,2.2c33.538,0,44.9-18.327,44.9-48.933v-55.164c0-30.606-11.363-48.567-44.9-48.567-33.355,0-44.535,17.96-44.535,48.567V-85.1C759.062-54.493,770.242-36.166,803.6-36.166Zm0-23.275c-10.263,0-11-8.98-11-17.411v-71.475c0-8.8,1.283-17.411,11-17.411,10.263,0,11.363,8.614,11.363,17.411v71.475C814.96-68.422,813.86-59.441,803.6-59.441Zm107.4,23.275c33.538,0,44.9-18.327,44.9-48.933v-55.164c0-30.606-11.363-48.567-44.9-48.567-33.355,0-44.535,17.96-44.535,48.567V-85.1C866.459-54.493,877.638-36.166,910.993-36.166Zm0-23.275c-10.263,0-11-8.98-11-17.411v-71.475c0-8.8,1.283-17.411,11-17.411,10.263,0,11.363,8.614,11.363,17.411v71.475C922.356-68.422,921.256-59.441,910.993-59.441Zm76.79,21.076h32.989V-162.439h22.176v-24.375H965.424v24.375h22.359Zm68.177,0h45.634c28.59,0,44.9-13.2,44.9-43.985,0-21.076-9.163-33.538-26.391-35.738,13.562-2.566,21.809-11.913,21.809-29.873,0-32.989-21.809-38.853-47.284-38.853h-38.67Zm32.805-89.069v-37.387h5.681c12.279,0,18.694,6.048,18.694,17.777,0,12.462-3.116,19.61-17.96,19.61Zm0,66.16v-44.535h6.781c14.3,0,19.243,6.231,19.243,22.909,0,14.3-4.582,21.626-19.06,21.626Zm67.443,22.909h30.973l5.132-31.339h21.809l4.948,31.339h30.24l-27.674-148.449h-37.387Zm39.036-50.949,7.881-57.913,7.881,57.913Zm69.093,50.949h66.894V-60.541h-34.088V-186.814h-32.805Zm81.189,0h66.893V-60.541h-34.088V-186.814h-32.805Z" transform="translate(-12.42 188.83)" fill="#a21f2d"/>
</svg>
