<svg width="163" height="22" viewBox="0 0 163 22" fill="none" xmlns="http://www.w3.org/2000/svg">
<path fill-rule="evenodd" clip-rule="evenodd" d="M74.39 16.0262C77.78 16.0262 80.53 14.1732 80.53 11.9038V0.577148H88.53V11.9038C88.53 17.1408 82.19 21.3975 74.39 21.3975C66.59 21.3975 60.25 17.1341 60.25 11.9038V0.577148H68.25V11.9038C68.25 14.1799 71 16.0262 74.39 16.0262ZM0 0.750977H23.96V5.56497H0V0.750977ZM0 13.2334V9.99721H7.17H23.96V13.2334H7.17V21.2903H0V13.2334ZM37.6387 0.751953H30.4688V18.0474V21.2903H37.6387H54.4388V18.0474H37.6387V0.751953ZM147.04 7.26278L153.44 0.756836H162.3L151.47 11.7612L150.62 12.6206V21.2885H143.45V12.6206L142.61 11.7612L131.77 0.756836H140.63L147.04 7.26278ZM112.32 17.4707L116.28 21.291H125.44L116.9 13.0596L112.32 17.4707ZM104.121 0.756836L108.081 4.57043L103.501 8.98158L94.9609 0.756836H104.121ZM110.201 6.61151L105.621 11.0227L94.9609 21.2885H104.121L110.201 15.4338L114.781 11.0227L125.441 0.756836H116.281L110.201 6.61151Z" fill="white"/>
</svg>
