<svg width="339" height="380" viewBox="0 0 339 380" fill="none" xmlns="http://www.w3.org/2000/svg">
<g clip-path="url(#clip0_442_2167)">
<path d="M96.9396 85.7706L104.72 87.3006C104.72 87.3006 101.69 82.2706 104.72 77.8606C107.75 73.4506 109.73 71.4706 110.08 67.8706C110.43 64.2706 110.08 59.0306 110.08 59.0306C110.08 59.0306 112.72 61.9206 121.31 61.2906C129.9 60.6606 134.77 60.3106 140.25 57.1006C145.73 53.8906 147.27 51.1006 152.44 51.4106C157.61 51.7206 163.76 55.6406 164.01 56.4606C164.26 57.2806 164.01 62.1106 164.01 64.2706C164.01 66.4306 164.64 65.8206 166.11 69.5206C167.58 73.2206 168.1 87.3006 168.1 87.3006C168.1 87.3006 172.52 91.1106 173.82 89.3406C176.84 85.2406 175.01 76.5506 176.02 66.4306C177.03 56.3106 171.22 48.4206 170.01 47.0806C168.8 45.7406 166.1 41.7906 166.1 41.7906C166.1 41.7906 160.05 29.8006 148.87 29.2106C137.69 28.6206 121.98 33.7706 116.07 37.0406C110.16 40.3106 103.38 41.2006 103.38 41.2006V49.2506C103.38 49.2506 94.3396 48.4106 94.6896 59.4906C95.0396 70.5706 96.9296 85.7806 96.9296 85.7806L96.9396 85.7706Z" fill="#B297E3"/>
<path opacity="0.3" d="M103.921 149.25C103.291 148.35 94.6906 163.18 94.6906 163.18C94.6906 163.18 62.6806 176.82 52.4706 180.68C42.2606 184.54 29.3706 194.3 26.2006 208.37C23.0306 222.44 4.48063 310.23 3.21063 316.03C1.94063 321.83 -3.20937 332.48 3.23063 340.5C9.67063 348.52 8.62063 354.68 22.9306 352.42C37.2406 350.16 64.5206 346.79 63.7106 347.26C62.9006 347.73 68.9506 375.45 68.9506 375.45L218.191 378.71C218.191 378.71 218.311 357.93 218.191 358.24C218.071 358.55 209.591 354.14 207.941 355.09C206.291 356.04 202.921 358.98 198.921 358.67C194.921 358.36 189.111 353.15 188.621 352.42C188.131 351.69 183.421 341.24 183.161 340.5C182.901 339.76 175.531 341.52 171.281 339.91C167.031 338.3 154.651 337.89 154.651 337.89L147.501 340.81L131.201 333.21L117.761 324.49C117.761 324.49 111.851 330.02 107.291 331.71C102.731 333.4 95.7506 335.38 95.7506 335.38C95.7506 335.38 89.8006 323.38 89.4506 317.21C89.1006 311.04 92.4106 301.71 92.4106 301.71C92.4106 301.71 94.1706 306.04 106.441 300.78C118.711 295.52 121.361 294.04 126.581 289.48C131.801 284.92 130.371 282.66 135.001 283.89C139.631 285.12 140.241 283.89 140.241 283.89L153.331 278.76L162.791 286.45C162.791 286.45 175.681 240.58 176.001 235.89C176.321 231.2 176.121 228.86 184.511 228.56C192.901 228.26 245.211 226.67 245.211 226.67C245.211 226.67 240.221 213.41 238.051 202.11C235.881 190.81 230.071 185 218.881 180.69C207.691 176.38 188.881 173.05 184.491 169.98C180.101 166.91 176.001 159.22 176.001 159.22C176.001 159.22 169.811 150.26 169.991 150.78C170.171 151.3 153.321 164.91 153.321 164.91L143.291 197.91L134.981 172.05C134.981 172.05 112.761 161.91 103.891 149.27L103.921 149.25Z" fill="#B297E3"/>
<path d="M147.522 214.06C147.522 214.06 146.672 261.24 147.522 260.39" stroke="#303030" stroke-width="2" stroke-linecap="round" stroke-linejoin="round"/>
<path d="M106.449 89.3301H112.559C112.559 89.3301 113.579 100.53 123.419 100.53C133.259 100.53 133.259 90.6901 133.259 90.6901L142.759 90.1801C142.759 90.1801 145.139 100.53 153.959 100.53C162.779 100.53 163.289 89.3301 163.289 89.3301H169.909" stroke="#303030" stroke-width="2" stroke-linecap="round" stroke-linejoin="round"/>
<path d="M152.44 93.2301C153.661 93.2301 154.65 92.357 154.65 91.2801C154.65 90.2031 153.661 89.3301 152.44 89.3301C151.22 89.3301 150.23 90.2031 150.23 91.2801C150.23 92.357 151.22 93.2301 152.44 93.2301Z" stroke="#303030" stroke-width="2" stroke-linecap="round" stroke-linejoin="round"/>
<path d="M123.519 93.2301C124.739 93.2301 125.729 92.357 125.729 91.2801C125.729 90.2031 124.739 89.3301 123.519 89.3301C122.298 89.3301 121.309 90.2031 121.309 91.2801C121.309 92.357 122.298 93.2301 123.519 93.2301Z" stroke="#303030" stroke-width="2" stroke-linecap="round" stroke-linejoin="round"/>
<path d="M138.859 97.6494L139.539 110.199" stroke="#303030" stroke-width="2" stroke-linecap="round" stroke-linejoin="round"/>
<path d="M127.828 126.33C127.828 126.33 132.408 128.37 139.198 128.37C145.988 128.37 148.868 126.33 148.868 126.33" stroke="#303030" stroke-width="2" stroke-linecap="round" stroke-linejoin="round"/>
<path d="M179.25 91.28C179.25 91.28 183.49 91.03 181.97 99.85C180.45 108.67 173.82 110.71 173.82 110.71" stroke="#303030" stroke-width="2" stroke-linecap="round" stroke-linejoin="round"/>
<path d="M99.6606 87.29C99.6606 87.29 91.3405 88.99 92.5305 100.53C93.7205 112.07 104.071 113.09 104.071 113.09C106.621 137.36 121.741 154.31 141.071 153.48C160.401 152.65 171.111 133.29 169.921 113.09" stroke="#303030" stroke-width="2" stroke-linecap="round" stroke-linejoin="round"/>
<path d="M96.94 85.7701C96.94 85.7701 95.75 67.1001 95.75 61.5001C95.75 55.9001 98.8 48.4301 103.39 47.0801" stroke="#303030" stroke-width="2" stroke-linecap="round" stroke-linejoin="round"/>
<path d="M98.4688 35.8699C98.4688 35.8699 104.579 43.6799 113.569 39.0899C122.559 34.4999 130.029 28.5699 145.809 29.2499C161.589 29.9299 165.839 39.4299 167.019 44.8599" stroke="#303030" stroke-width="2" stroke-linecap="round" stroke-linejoin="round"/>
<path d="M170.012 48.4297C175.012 51.4797 180.102 58.9497 179.422 67.6097C178.742 76.2697 177.212 87.2997 177.212 87.2997" stroke="#303030" stroke-width="2" stroke-linecap="round" stroke-linejoin="round"/>
<path d="M107.641 135.149V146.009" stroke="#303030" stroke-width="2" stroke-linecap="round" stroke-linejoin="round"/>
<path d="M167.031 146.689V154.839" stroke="#303030" stroke-width="2" stroke-linecap="round" stroke-linejoin="round"/>
<path d="M89.4805 164.89C88.5505 164.89 56.9605 178.78 49.2705 182.04C41.5805 185.3 32.4905 185.1 28.0705 200.93C23.6505 216.76 6.24046 303.4 3.83046 313.47C1.23046 324.3 -1.52954 335.37 5.24046 343.47C14.4505 354.49 14.0805 353.05 31.3305 350.99C48.5805 348.93 92.4205 339.81 92.4205 339.81" stroke="#303030" stroke-width="2" stroke-linecap="round" stroke-linejoin="round"/>
<path d="M42.7422 304.839L91.2122 301.109C91.2122 301.109 78.2522 317.889 92.4222 335.359" stroke="#303030" stroke-width="2" stroke-linecap="round" stroke-linejoin="round"/>
<path d="M22.9297 305.54C22.9297 305.54 30.1497 298.08 42.7397 297.85" stroke="#303030" stroke-width="2" stroke-linecap="round" stroke-linejoin="round"/>
<path d="M38.0781 202.09C38.0781 202.09 63.0581 232.61 67.5781 240.77" stroke="#303030" stroke-width="2" stroke-linecap="round" stroke-linejoin="round"/>
<path d="M72.3303 251.02L65.5703 294.13" stroke="#303030" stroke-width="2" stroke-linecap="round" stroke-linejoin="round"/>
<path d="M97.1523 166.059L104.962 146.689C104.962 146.689 107.762 163.169 135.022 174.359L121.322 193.229C121.322 193.229 104.962 179.249 101.002 172.259" stroke="#303030" stroke-width="2" stroke-linecap="round" stroke-linejoin="round"/>
<path d="M136.411 178.09C136.181 178.79 144.101 199.99 144.101 199.99" stroke="#303030" stroke-width="2" stroke-linecap="round" stroke-linejoin="round"/>
<path d="M152.441 172.03L147.141 191.95" stroke="#303030" stroke-width="2" stroke-linecap="round" stroke-linejoin="round"/>
<path d="M169.922 153.51C168.802 154.2 161.422 160.26 154.652 164.9" stroke="#303030" stroke-width="2" stroke-linecap="round" stroke-linejoin="round"/>
<path d="M153.422 169.96L158.782 191.95C158.782 191.95 172.732 177.37 181.082 169.39" stroke="#303030" stroke-width="2" stroke-linecap="round" stroke-linejoin="round"/>
<path d="M176.02 159.2C178.58 166.67 181.08 169.39 190.23 172.03C204.47 176.13 209.8 175.8 218.89 180.67C227.98 185.54 233.57 187.17 236.37 197.66C239.17 208.15 242.89 223.99 242.89 223.99" stroke="#303030" stroke-width="2" stroke-linecap="round" stroke-linejoin="round"/>
<path d="M101.461 301.7C120.571 296.92 123.681 292.03 127.831 288.3C131.981 284.57 131.801 283.64 138.181 284.8C144.561 285.96 147.281 287.83 150.231 288.06C153.181 288.29 155.051 292.25 155.981 294.12C156.911 295.99 159.011 303.91 159.241 305.54C159.471 307.17 158.771 313 156.211 313.7C153.651 314.4 148.831 312.53 147.511 307.64C146.191 302.75 144.091 299.09 144.091 299.09L136.401 295.76C136.401 295.76 132.281 309.51 125.721 317.2" stroke="#303030" stroke-width="2" stroke-linecap="round" stroke-linejoin="round"/>
<path d="M131.211 317.189L144.101 316.029" stroke="#303030" stroke-width="2" stroke-linecap="round" stroke-linejoin="round"/>
<path d="M147.331 330.71L119.871 318.24" stroke="#303030" stroke-width="2" stroke-linecap="round" stroke-linejoin="round"/>
<path d="M114.039 320.689L115.379 325.819L148.869 341.429L152.439 337.929" stroke="#303030" stroke-width="2" stroke-linecap="round" stroke-linejoin="round"/>
<path d="M176.022 339.56C175.322 339.79 158.542 340.49 157.852 340.49C157.162 340.49 152.722 338.39 153.422 331.05C154.122 323.71 174.752 233.54 174.752 233.54C174.752 233.54 176.232 229.11 182.302 228.65C188.372 228.19 324.682 224.46 330.272 223.99C335.862 223.52 337.962 227.72 336.792 232.15C335.622 236.58 316.982 324.19 316.292 327.22C315.602 330.25 315.592 334.68 308.372 334.44C301.152 334.2 268.762 337.24 268.762 337.24" stroke="#303030" stroke-width="2" stroke-linecap="round" stroke-linejoin="round"/>
<path d="M251.981 295.06C255.068 295.06 257.571 292.557 257.571 289.47C257.571 286.383 255.068 283.88 251.981 283.88C248.893 283.88 246.391 286.383 246.391 289.47C246.391 292.557 248.893 295.06 251.981 295.06Z" stroke="#303030" stroke-width="2" stroke-linecap="round" stroke-linejoin="round"/>
<path d="M231.939 337.929L218.799 307.809C217.659 305.199 214.729 303.869 212.009 304.729C209.019 305.679 207.399 308.919 208.449 311.879L219.249 342.579" stroke="#303030" stroke-width="2" stroke-linecap="round" stroke-linejoin="round"/>
<path d="M207.941 303.21L206.411 300.23C204.951 297.39 201.581 296.14 198.611 297.29C198.591 297.29 198.561 297.31 198.541 297.32C195.831 298.36 194.381 301.31 195.201 304.09L207.941 347.24" stroke="#303030" stroke-width="2" stroke-linecap="round" stroke-linejoin="round"/>
<path d="M196.06 312.53L195.32 310.91C194.41 308.92 192.15 307.93 190.07 308.62C187.8 309.38 186.52 311.76 187.14 314.07L197.22 351.67" stroke="#303030" stroke-width="2" stroke-linecap="round" stroke-linejoin="round"/>
<path d="M189.071 333.74L188.121 332.79C186.901 331.57 185.001 331.34 183.521 332.24C182.061 333.13 181.391 334.89 181.891 336.53C183.101 340.51 185.521 347.76 188.141 351.68C191.871 357.27 192.101 358.2 197.231 358.67C202.361 359.14 203.061 355.41 207.951 356.11C212.841 356.81 216.801 358.99 227.291 358.71C237.781 358.43 248.961 352.38 248.961 352.38" stroke="#303030" stroke-width="2" stroke-linecap="round" stroke-linejoin="round"/>
<path d="M218.199 361.93V378.71" stroke="#303030" stroke-width="2" stroke-linecap="round" stroke-linejoin="round"/>
<path d="M242.89 338.17C242.89 338.17 240.79 337.41 238.7 335.37C237.35 334.06 238 330.24 242.2 330.13C246.4 330.02 248.72 330.25 254.32 330.13C259.92 330.01 262.24 331.03 262.24 334.13C262.24 337.23 261.07 339.1 256.41 340.5C251.75 341.9 251.12 344.06 250.04 344.73" stroke="#303030" stroke-width="2" stroke-linecap="round" stroke-linejoin="round"/>
<path d="M233.809 361.93C233.809 361.93 236.839 364.96 242.899 364.96C248.959 364.96 252.919 359.02 260.139 345.21" stroke="#303030" stroke-width="2" stroke-linecap="round" stroke-linejoin="round"/>
<path d="M144.102 283.87L153.352 278.74C153.352 278.74 157.392 284.1 160.412 286.43" stroke="#303030" stroke-width="2" stroke-linecap="round" stroke-linejoin="round"/>
<path d="M63.7109 351.68L65.5709 375.45" stroke="#303030" stroke-width="2" stroke-linecap="round" stroke-linejoin="round"/>
<path d="M104.721 87.2902C104.721 87.2902 104.951 84.6502 104.721 81.8502C104.491 79.0502 103.981 77.8901 106.451 75.0901C108.921 72.2901 109.851 69.6202 110.081 66.4102" stroke="#303030" stroke-width="2" stroke-linecap="round" stroke-linejoin="round"/>
<path d="M110.078 61.3502C111.938 59.2502 113.338 58.7902 117.538 60.1802C121.738 61.5702 123.228 62.1802 131.218 60.3602C139.208 58.5402 142.238 55.7502 145.738 53.8902C149.238 52.0302 156.078 50.1602 159.298 52.4902C162.518 54.8202 162.288 58.5502 162.288 58.5502" stroke="#303030" stroke-width="2" stroke-linecap="round" stroke-linejoin="round"/>
<path d="M164.012 66.4199C166.242 69.2699 167.872 72.0899 168.102 76.8599C168.332 81.6299 168.102 87.2999 168.102 87.2999" stroke="#303030" stroke-width="2" stroke-linecap="round" stroke-linejoin="round"/>
</g>
<defs>
<clipPath id="clip0_442_2167">
<rect width="338.11" height="379.71" fill="white"/>
</clipPath>
</defs>
</svg>
