<svg width="339" height="380" viewBox="0 0 339 380" fill="none" xmlns="http://www.w3.org/2000/svg">
<g clip-path="url(#clip0_442_2127)">
<path opacity="0.3" d="M101.101 163.359C101.101 163.359 62.6906 176.809 52.4806 180.669C42.2706 184.529 29.3806 194.289 26.2106 208.359C23.0406 222.429 4.48063 310.229 3.21063 316.029C1.94063 321.829 -3.20937 332.479 3.23063 340.499C9.67063 348.519 8.62063 354.679 22.9306 352.419C37.2406 350.159 64.5206 346.789 63.7106 347.259C62.9006 347.729 68.9506 375.449 68.9506 375.449L218.191 378.709C218.191 378.709 218.311 357.929 218.191 358.239C218.071 358.549 209.591 354.139 207.941 355.089C206.291 356.039 202.921 358.979 198.921 358.669C194.921 358.359 189.111 353.149 188.621 352.419C188.131 351.689 183.421 341.239 183.161 340.499C182.901 339.759 175.531 341.519 171.281 339.909C167.031 338.299 154.651 337.889 154.651 337.889L147.501 340.809L131.201 333.209L117.761 324.489C117.761 324.489 111.851 330.019 107.291 331.709C102.731 333.399 95.7506 335.379 95.7506 335.379C95.7506 335.379 89.8006 323.379 89.4506 317.209C89.1006 311.039 92.4106 301.709 92.4106 301.709C92.4106 301.709 94.1706 306.039 106.441 300.779C118.711 295.519 121.361 294.039 126.581 289.479C131.801 284.919 130.371 282.659 135.001 283.889C139.631 285.119 140.241 283.889 140.241 283.889L153.331 278.759L162.791 286.449C162.791 286.449 175.681 240.579 176.001 235.889C176.321 231.199 176.121 228.859 184.511 228.559C192.901 228.259 245.211 226.669 245.211 226.669C245.211 226.669 240.221 213.409 238.051 202.109C235.881 190.809 230.071 184.999 218.881 180.689C207.691 176.379 172.061 164.269 172.061 164.269C172.061 164.269 165.841 175.889 139.001 176.819C112.161 177.749 101.081 163.379 101.081 163.379L101.101 163.359Z" fill="#B297E3"/>
<path d="M171.54 87.5703H176.8C176.8 87.5703 181.04 74.1403 179.51 61.5203C177.98 48.9003 175.3 40.9103 162.18 41.4603C160.94 27.7303 142.74 23.6003 130.24 26.7003C117.74 29.8003 106.2 35.0303 100.96 49.0203C95.7204 63.0103 99.6804 86.3103 99.6804 86.3103C99.6804 86.3103 101.5 89.7903 107.52 86.3103C113.54 82.8303 119.1 79.4903 123.42 75.3803C127.74 71.2703 127.92 72.4703 127.92 72.4703C127.92 72.4703 128.22 75.9603 137.61 72.1303C147 68.3003 157.33 59.1903 157.33 59.1903C157.33 59.1903 162.14 82.2303 171.55 87.5603L171.54 87.5703Z" fill="#B297E3"/>
<path d="M102.95 107.18C102.77 119.97 107.34 134.96 114.47 141.73C121.6 148.5 127.81 151.42 136.77 151.42C145.73 151.42 151.39 148.31 156.88 143.38C162.37 138.45 167.85 133.14 169.31 117.97" stroke="#303030" stroke-width="2" stroke-linecap="round" stroke-linejoin="round"/>
<path d="M173.319 89.0801C173.319 89.0801 184.649 87.8001 180.999 101.87C178.109 112.98 171.859 113.39 171.859 113.39" stroke="#303030" stroke-width="2" stroke-linecap="round" stroke-linejoin="round"/>
<path d="M99.0802 87.5997C99.0802 87.5997 87.7502 86.3197 91.4002 100.39C94.2902 111.5 100.54 111.91 100.54 111.91" stroke="#303030" stroke-width="2" stroke-linecap="round" stroke-linejoin="round"/>
<path d="M122.448 93.2901C122.978 93.2901 123.408 92.8603 123.408 92.3301C123.408 91.7999 122.978 91.3701 122.448 91.3701C121.918 91.3701 121.488 91.7999 121.488 92.3301C121.488 92.8603 121.918 93.2901 122.448 93.2901Z" stroke="#303030" stroke-width="2" stroke-linecap="round" stroke-linejoin="round"/>
<path d="M151.89 93.2901C152.42 93.2901 152.85 92.8603 152.85 92.3301C152.85 91.7999 152.42 91.3701 151.89 91.3701C151.36 91.3701 150.93 91.7999 150.93 92.3301C150.93 92.8603 151.36 93.2901 151.89 93.2901Z" stroke="#303030" stroke-width="2" stroke-linecap="round" stroke-linejoin="round"/>
<path d="M139.02 98.54C138.76 98.54 132.82 110.07 132.82 110.07L138.32 114.98" stroke="#303030" stroke-width="2" stroke-linecap="round" stroke-linejoin="round"/>
<path d="M130.238 125.57C130.238 125.57 132.218 128.93 137.298 128.93C142.378 128.93 144.958 126.09 144.958 126.09" stroke="#303030" stroke-width="2" stroke-linecap="round" stroke-linejoin="round"/>
<path d="M107.508 86.3193C107.508 86.3193 123.838 78.5693 136.118 61.5293" stroke="#303030" stroke-width="2" stroke-linecap="round" stroke-linejoin="round"/>
<path d="M134.539 73.9202C134.539 73.9202 151.669 68.9302 155.799 59.2002" stroke="#303030" stroke-width="2" stroke-linecap="round" stroke-linejoin="round"/>
<path d="M158.82 64.7998C158.82 64.7998 159.08 75.4698 169.67 83.6498" stroke="#303030" stroke-width="2" stroke-linecap="round" stroke-linejoin="round"/>
<path d="M98.9013 82.9599C98.9013 82.9599 95.8013 70.2199 96.7513 61.5299C97.7013 52.8399 104.841 37.8599 120.081 30.3699C135.321 22.8799 154.081 23.6599 159.251 35.4499" stroke="#303030" stroke-width="2" stroke-linecap="round" stroke-linejoin="round"/>
<path d="M163.379 41.4697C169.229 41.7297 177.319 46.7197 179.219 59.1997C181.109 71.6797 176.799 84.4197 176.799 84.4197" stroke="#303030" stroke-width="2" stroke-linecap="round" stroke-linejoin="round"/>
<path d="M92.4205 339.8C92.4205 339.8 48.1105 348.97 31.3305 350.98C14.5505 352.99 14.4505 354.48 5.24046 343.46C-1.52954 335.36 1.23046 324.29 3.83046 313.46C6.25046 303.4 23.6405 216.76 28.0605 200.93C32.4805 185.1 41.5705 185.3 49.2605 182.04C56.9505 178.78 105.93 161.33 106.58 160.66L112.63 141.71" stroke="#303030" stroke-width="2" stroke-linecap="round" stroke-linejoin="round"/>
<path d="M42.7422 304.84L91.2122 301.11C91.2122 301.11 78.2522 317.89 92.4222 335.36" stroke="#303030" stroke-width="2" stroke-linecap="round" stroke-linejoin="round"/>
<path d="M22.9297 305.54C22.9297 305.54 30.1497 298.08 42.7397 297.85" stroke="#303030" stroke-width="2" stroke-linecap="round" stroke-linejoin="round"/>
<path d="M38.0781 202.09C38.0781 202.09 63.0581 232.61 67.5781 240.77" stroke="#303030" stroke-width="2" stroke-linecap="round" stroke-linejoin="round"/>
<path d="M72.3303 251.02L65.5703 294.13" stroke="#303030" stroke-width="2" stroke-linecap="round" stroke-linejoin="round"/>
<path d="M162.172 140.26L169.302 162.47C169.302 162.47 208.762 177.15 218.892 180.67C229.022 184.19 233.572 187.17 236.372 197.66C239.172 208.15 242.892 223.99 242.892 223.99" stroke="#303030" stroke-width="2" stroke-linecap="round" stroke-linejoin="round"/>
<path d="M101.461 301.7C120.571 296.92 123.681 292.03 127.831 288.3C131.981 284.57 131.801 283.64 138.181 284.8C144.561 285.96 147.281 287.83 150.231 288.06C153.181 288.29 155.051 292.25 155.981 294.12C156.911 295.99 159.011 303.91 159.241 305.54C159.471 307.17 158.771 313 156.211 313.7C153.651 314.4 148.831 312.53 147.511 307.64C146.191 302.75 144.091 299.09 144.091 299.09L136.401 295.76C136.401 295.76 132.281 309.51 125.721 317.2" stroke="#303030" stroke-width="2" stroke-linecap="round" stroke-linejoin="round"/>
<path d="M131.211 317.189L144.101 316.029" stroke="#303030" stroke-width="2" stroke-linecap="round" stroke-linejoin="round"/>
<path d="M147.331 330.71L119.871 318.24" stroke="#303030" stroke-width="2" stroke-linecap="round" stroke-linejoin="round"/>
<path d="M114.039 320.689L115.379 325.819L148.869 341.429L152.439 337.929" stroke="#303030" stroke-width="2" stroke-linecap="round" stroke-linejoin="round"/>
<path d="M176.022 339.56C175.322 339.79 158.542 340.49 157.852 340.49C157.162 340.49 152.722 338.39 153.422 331.05C154.122 323.71 174.752 233.54 174.752 233.54C174.752 233.54 176.232 229.11 182.302 228.65C188.372 228.19 324.682 224.46 330.272 223.99C335.862 223.52 337.962 227.72 336.792 232.15C335.622 236.58 316.982 324.19 316.292 327.22C315.602 330.25 315.592 334.68 308.372 334.44C301.152 334.2 268.762 337.24 268.762 337.24" stroke="#303030" stroke-width="2" stroke-linecap="round" stroke-linejoin="round"/>
<path d="M251.981 295.06C255.068 295.06 257.571 292.557 257.571 289.47C257.571 286.383 255.068 283.88 251.981 283.88C248.893 283.88 246.391 286.383 246.391 289.47C246.391 292.557 248.893 295.06 251.981 295.06Z" stroke="#303030" stroke-width="2" stroke-linecap="round" stroke-linejoin="round"/>
<path d="M231.939 337.93L218.799 307.81C217.659 305.2 214.729 303.87 212.009 304.73C209.019 305.68 207.399 308.92 208.449 311.88L219.249 342.58" stroke="#303030" stroke-width="2" stroke-linecap="round" stroke-linejoin="round"/>
<path d="M207.941 303.21L206.411 300.23C204.951 297.39 201.581 296.14 198.611 297.29C198.591 297.29 198.561 297.31 198.541 297.32C195.831 298.36 194.381 301.31 195.201 304.09L207.941 347.24" stroke="#303030" stroke-width="2" stroke-linecap="round" stroke-linejoin="round"/>
<path d="M196.06 312.53L195.32 310.91C194.41 308.92 192.15 307.93 190.07 308.62C187.8 309.38 186.52 311.76 187.14 314.07L197.22 351.67" stroke="#303030" stroke-width="2" stroke-linecap="round" stroke-linejoin="round"/>
<path d="M189.071 333.74L188.121 332.79C186.901 331.57 185.001 331.34 183.521 332.24C182.061 333.13 181.391 334.89 181.891 336.53C183.101 340.51 185.521 347.76 188.141 351.68C191.871 357.27 192.101 358.2 197.231 358.67C202.361 359.14 203.061 355.41 207.951 356.11C212.841 356.81 216.801 358.99 227.291 358.71C237.781 358.43 248.961 352.38 248.961 352.38" stroke="#303030" stroke-width="2" stroke-linecap="round" stroke-linejoin="round"/>
<path d="M218.199 361.93V378.71" stroke="#303030" stroke-width="2" stroke-linecap="round" stroke-linejoin="round"/>
<path d="M242.89 338.17C242.89 338.17 240.79 337.41 238.7 335.37C237.35 334.06 238 330.24 242.2 330.13C246.4 330.02 248.72 330.25 254.32 330.13C259.92 330.01 262.24 331.03 262.24 334.13C262.24 337.23 261.07 339.1 256.41 340.5C251.75 341.9 251.12 344.06 250.04 344.73" stroke="#303030" stroke-width="2" stroke-linecap="round" stroke-linejoin="round"/>
<path d="M233.809 361.93C233.809 361.93 236.839 364.96 242.899 364.96C248.959 364.96 252.919 359.02 260.139 345.21" stroke="#303030" stroke-width="2" stroke-linecap="round" stroke-linejoin="round"/>
<path d="M144.102 283.87L153.352 278.74C153.352 278.74 157.392 284.1 160.412 286.43" stroke="#303030" stroke-width="2" stroke-linecap="round" stroke-linejoin="round"/>
<path d="M63.7109 351.68L65.5709 375.45" stroke="#303030" stroke-width="2" stroke-linecap="round" stroke-linejoin="round"/>
<path d="M103.121 164.25C103.121 164.25 112.891 176.36 137.701 176.36C162.511 176.36 172.081 164.25 172.081 164.25" stroke="#303030" stroke-width="2" stroke-linecap="round" stroke-linejoin="round"/>
</g>
<defs>
<clipPath id="clip0_442_2127">
<rect width="338.11" height="379.71" fill="white"/>
</clipPath>
</defs>
</svg>
