<svg width="358" height="244" viewBox="0 0 358 244" fill="none" xmlns="http://www.w3.org/2000/svg">
<g clip-path="url(#clip0_442_2023)">
<path opacity="0.3" d="M137.008 176.739L150.098 213.019C150.098 213.019 156.208 206.539 158.578 204.919C160.948 203.299 165.308 200.679 167.058 199.809C168.808 198.939 169.678 198.309 169.678 198.309L171.178 191.829C171.178 191.829 183.768 175.119 183.518 175.499C183.268 175.879 188.508 197.569 188.508 197.569C188.508 197.569 192.368 200.439 194.488 200.809C196.608 201.179 202.468 201.309 206.328 201.309C210.188 201.309 218.548 200.809 218.548 200.809C218.548 200.809 221.168 204.549 221.038 210.039C220.908 215.529 217.178 224.749 217.178 224.749L297.468 223.129C297.468 223.129 301.458 203.809 301.088 170.149C300.718 136.489 299.218 124.769 293.978 118.409C288.738 112.049 274.908 102.699 274.408 102.449C273.908 102.199 247.608 88.7393 247.608 88.7393C247.608 88.7393 231.278 112.799 218.188 111.549C205.098 110.299 205.848 103.449 205.848 103.449L206.218 101.209L197.868 98.5893C197.868 98.5893 184.528 103.079 180.788 105.199C177.048 107.319 174.178 109.309 171.438 114.179C168.698 119.049 137.028 176.759 137.028 176.759L137.008 176.739Z" fill="#B499E5"/>
<path d="M224.278 40.2196C223.228 39.6696 217.548 39.7196 212.808 38.9696C208.068 38.2196 210.188 40.3096 203.828 39.6396C197.468 38.9696 190.988 37.2296 186.878 34.6096C182.768 31.9896 181.518 29.3696 183.018 26.3796C184.518 23.3896 185.888 20.8896 190.128 19.7696C196.358 11.6696 198.728 10.4196 204.338 8.54961C209.948 6.67961 219.798 9.41961 219.798 9.41961C219.798 9.41961 232.388 11.4096 235.378 19.8896C238.368 28.3696 241.108 46.9396 241.108 46.9396L234.878 51.7996C234.878 51.7996 229.268 42.8196 224.278 40.2096V40.2196Z" fill="#B499E5"/>
<path d="M38.5688 55.5197C38.5688 55.5197 44.1088 53.1497 46.9288 52.0697C49.7488 50.9897 54.3788 49.8496 54.3788 49.8496C54.3788 49.8496 56.2988 50.6196 60.3188 49.1397C64.3388 47.6597 68.3588 45.0397 68.3588 45.0397C68.3588 45.0397 69.6788 49.3596 71.9288 52.2097C74.1788 55.0597 78.0388 57.2697 78.0388 57.2697C78.0388 57.2697 79.4288 51.6797 78.2188 44.3397C77.0088 36.9997 70.1088 34.3797 70.1088 34.3797C70.1088 34.3797 61.4388 25.9597 52.5788 28.9997C43.7188 32.0397 35.2488 33.6796 38.5688 55.5296V55.5197Z" fill="#B499E5"/>
<path d="M184.23 40.6699C184.49 56.4899 187.03 78.6799 189.65 86.5399C192.27 94.3999 199.09 101.31 207.56 101.22C216.03 101.13 231.68 91.6999 236.83 78.8499" stroke="#303030" stroke-width="2" stroke-linecap="round" stroke-linejoin="round"/>
<path d="M197.691 83.4004H208.091C208.091 83.4004 206.871 89.0804 202.891 88.9904C198.911 88.9004 197.691 83.4004 197.691 83.4004Z" stroke="#303030" stroke-width="2" stroke-linecap="round" stroke-linejoin="round"/>
<path d="M199.261 60.5C199.261 60.5 199.001 65.92 194.801 70.94L199.261 75.44" stroke="#303030" stroke-width="2" stroke-linecap="round" stroke-linejoin="round"/>
<path d="M210.972 59.3695C211.552 59.3695 212.022 58.8994 212.022 58.3195C212.022 57.7396 211.552 57.2695 210.972 57.2695C210.392 57.2695 209.922 57.7396 209.922 58.3195C209.922 58.8994 210.392 59.3695 210.972 59.3695Z" stroke="#303030" stroke-width="2" stroke-linecap="round" stroke-linejoin="round"/>
<path d="M192.121 58.8002C192.712 58.8002 193.191 58.3211 193.191 57.7302C193.191 57.1392 192.712 56.6602 192.121 56.6602C191.53 56.6602 191.051 57.1392 191.051 57.7302C191.051 58.3211 191.53 58.8002 192.121 58.8002Z" stroke="#303030" stroke-width="2" stroke-linecap="round" stroke-linejoin="round"/>
<path d="M181.351 72.9102C177.771 76.4902 174.801 80.7701 175.321 84.8801C175.841 88.9901 181.871 91.6102 181.871 91.6102" stroke="#303030" stroke-width="2" stroke-linecap="round" stroke-linejoin="round"/>
<path d="M185.148 96.5C186.667 96.5 187.898 95.2688 187.898 93.75C187.898 92.2312 186.667 91 185.148 91C183.63 91 182.398 92.2312 182.398 93.75C182.398 95.2688 183.63 96.5 185.148 96.5Z" stroke="#303030" stroke-width="2" stroke-linecap="round" stroke-linejoin="round"/>
<path d="M194.809 31.5C194.899 31.5 208.969 40.5 222.159 38.93" stroke="#303030" stroke-width="2" stroke-linecap="round" stroke-linejoin="round"/>
<path d="M225.039 40.6699C225.299 41.0199 231.689 44.4499 232.989 49.8399" stroke="#303030" stroke-width="2" stroke-linecap="round" stroke-linejoin="round"/>
<path d="M235.789 50.9805C235.789 50.9805 231.329 53.6905 232.209 62.9505C233.089 72.2105 241.119 73.7805 241.119 73.7805" stroke="#303030" stroke-width="2" stroke-linecap="round" stroke-linejoin="round"/>
<path d="M242.078 72.04L242.858 81.39" stroke="#303030" stroke-width="2" stroke-linecap="round" stroke-linejoin="round"/>
<path d="M240.681 51.5005C240.681 51.5005 236.311 53.7705 236.841 61.3705C237.371 68.9705 240.861 73.9505 246.631 74.2105C252.401 74.4705 255.801 66.7005 255.631 59.8805C255.461 53.0605 251.441 49.3105 251.441 49.3105" stroke="#303030" stroke-width="2" stroke-linecap="round" stroke-linejoin="round"/>
<path d="M249.329 46.4399C249.499 37.2699 247.759 8.86988 223.379 10.0899" stroke="#303030" stroke-width="2" stroke-linecap="round" stroke-linejoin="round"/>
<path d="M226.352 13.0605C232.902 13.5805 241.472 25.8205 241.122 46.8805" stroke="#303030" stroke-width="2" stroke-linecap="round" stroke-linejoin="round"/>
<path d="M219.971 10.0496C219.971 10.0496 211.141 5.36959 203.281 8.59959C195.421 11.8296 191.661 18.5596 191.661 18.5596C191.661 18.5596 181.351 20.9196 181.871 27.2096C182.391 33.4996 190.781 40.3196 204.411 40.6696" stroke="#303030" stroke-width="2" stroke-linecap="round" stroke-linejoin="round"/>
<path d="M194.37 100.87C193.93 100.96 184.98 104.02 181.86 105.15C178.74 106.28 172.7 110.13 170.87 114.24C169.04 118.35 141.07 173.57 141.07 173.57" stroke="#303030" stroke-width="2" stroke-linecap="round" stroke-linejoin="round"/>
<path d="M178.572 139.32C178.472 139.41 183.192 167.81 184.242 176.19C185.292 184.57 187.912 194.45 187.912 194.45" stroke="#303030" stroke-width="2" stroke-linecap="round" stroke-linejoin="round"/>
<path d="M169.73 150.85C169.82 151.2 178.12 162.3 178.12 162.3" stroke="#303030" stroke-width="2" stroke-linecap="round" stroke-linejoin="round"/>
<path d="M181 177.94C180.65 178.29 171.91 191.05 171.91 191.05" stroke="#303030" stroke-width="2" stroke-linecap="round" stroke-linejoin="round"/>
<path d="M149.02 196.82C149.02 196.82 153.39 200.75 155.22 203.72" stroke="#303030" stroke-width="2" stroke-linecap="round" stroke-linejoin="round"/>
<path d="M215.43 201.799C208.18 201.969 202.67 201.889 199.26 201.799C195.85 201.709 190.78 200.309 187.46 199.439C184.14 198.569 180.56 197.259 175.93 197.339C171.3 197.419 166.49 199.699 164.05 201.269C161.61 202.839 150.68 213.069 150.68 213.069" stroke="#303030" stroke-width="2" stroke-linecap="round" stroke-linejoin="round"/>
<path d="M176.459 203.11C171.919 204.77 166.409 206.34 162.569 210.36C158.729 214.38 155.749 218.05 154.619 219.45C153.489 220.85 151.389 223.47 153.309 225.22C155.229 226.97 158.899 225.22 158.899 225.22" stroke="#303030" stroke-width="2" stroke-linecap="round" stroke-linejoin="round"/>
<path d="M184.228 208.52C177.938 209.66 174.438 210.69 169.378 214.54C164.318 218.39 162.298 219.87 161.168 221.45C160.038 223.03 159.598 226.08 161.168 226.95C162.738 227.82 165.008 227.04 167.718 225.2C170.428 223.36 176.808 216.81 188.338 214.98" stroke="#303030" stroke-width="2" stroke-linecap="round" stroke-linejoin="round"/>
<path d="M187.902 215.6C187.732 215.69 178.642 221.45 176.022 222.94C173.402 224.43 172.182 226 173.312 228.1C174.442 230.2 176.292 230.11 180.392 228.62C184.492 227.13 196.552 220.49 196.552 220.49" stroke="#303030" stroke-width="2" stroke-linecap="round" stroke-linejoin="round"/>
<path d="M191.221 231.07L158.461 242.6L45.4813 234.91L44.7812 229.71L157.841 237.27L174.241 232.64" stroke="#303030" stroke-width="2" stroke-linecap="round" stroke-linejoin="round"/>
<path d="M157.84 237.27V242.69" stroke="#303030" stroke-width="2" stroke-linecap="round" stroke-linejoin="round"/>
<path d="M157.23 233.6L131.48 160.92C130.93 159.37 129.52 158.29 127.88 158.16L21.9001 149.96C18.8701 149.73 16.6201 152.71 17.6801 155.56L43.8101 225.99" stroke="#303030" stroke-width="2" stroke-linecap="round" stroke-linejoin="round"/>
<path d="M82.8911 192.06C83.8311 192.87 84.4511 194.23 84.4511 195.78C84.4511 198.26 82.8711 200.27 80.9111 200.27C78.9511 200.27 77.3711 198.26 77.3711 195.78C77.3711 194.97 77.5411 194.21 77.8311 193.56" stroke="#303030" stroke-width="2" stroke-linecap="round" stroke-linejoin="round"/>
<path d="M262.609 145.061C262.609 145.061 263.659 151.581 263.429 163.231C263.199 174.881 263.039 189.791 263.039 189.791" stroke="#303030" stroke-width="2" stroke-linecap="round" stroke-linejoin="round"/>
<path d="M268.9 193.76C268.55 193.76 218.57 199.35 218.57 199.35C218.57 199.35 222.07 203.43 221.83 210.07C221.59 216.71 218.57 219.74 218.57 219.74" stroke="#303030" stroke-width="2" stroke-linecap="round" stroke-linejoin="round"/>
<path d="M234.879 203.72C234.879 203.72 238.719 210.54 235.809 219.74" stroke="#303030" stroke-width="2" stroke-linecap="round" stroke-linejoin="round"/>
<path d="M200.398 223.93H356.628" stroke="#303030" stroke-width="2" stroke-linecap="round" stroke-linejoin="round"/>
<path d="M206.219 106.61C206.219 106.61 208.669 113.72 217.169 114.65C225.669 115.58 238.889 106.96 246.199 92.9805" stroke="#303030" stroke-width="2" stroke-linecap="round" stroke-linejoin="round"/>
<path d="M244.898 86.8105C245.128 87.1605 249.788 89.9806 257.128 93.7606C264.468 97.5406 276.468 103.941 283.338 108.601C290.208 113.261 293.358 116.521 296.388 122.351C299.418 128.181 300.928 134.821 301.398 144.491C301.868 154.161 300.818 180.841 301.398 188.301C301.978 195.761 300.348 205.191 299.648 210.321C298.948 215.451 297.438 222.671 297.438 222.671" stroke="#303030" stroke-width="2" stroke-linecap="round" stroke-linejoin="round"/>
<path d="M208.48 105.331V101.221" stroke="#303030" stroke-width="2" stroke-linecap="round" stroke-linejoin="round"/>
<path d="M43.0117 53.9398C43.0117 53.9398 53.3317 49.6098 57.6017 44.3398" stroke="#303030" stroke-width="2" stroke-linecap="round" stroke-linejoin="round"/>
<path d="M57.6016 49.8398C57.6016 49.8398 64.5816 46.8298 67.5716 42.5898" stroke="#303030" stroke-width="2" stroke-linecap="round" stroke-linejoin="round"/>
<path d="M69.6914 46.8701C69.6914 46.8701 70.6214 51.5001 74.1814 55.0601" stroke="#303030" stroke-width="2" stroke-linecap="round" stroke-linejoin="round"/>
<path d="M78.0517 57.2699C78.0517 57.2699 79.6717 49.5699 78.0517 43.5899C76.4317 37.6099 73.5617 34.3599 69.7017 34.3599C67.3317 27.3799 60.2317 27.8799 54.1217 28.7499C48.0117 29.6199 39.1617 32.0099 37.6617 40.6599C36.1617 49.3099 37.6617 57.7199 37.6617 57.7199C37.6617 57.7199 32.8017 58.9099 34.2917 64.3999C35.7817 69.8899 40.6517 69.7599 40.6517 69.7599C40.6517 69.7599 41.1517 72.2599 41.2717 75.4399C41.3917 78.6199 42.8917 90.2099 57.1017 90.2099C71.3117 90.2099 75.1817 76.2999 75.1817 73.8999V70.1299C75.1817 70.1299 82.2917 68.5099 82.0417 63.6499C81.7917 58.7899 78.0517 57.2599 78.0517 57.2599V57.2699Z" stroke="#303030" stroke-width="2" stroke-linecap="round" stroke-linejoin="round"/>
<path d="M50.3092 61.3596C50.7842 61.3596 51.1692 60.9746 51.1692 60.4996C51.1692 60.0247 50.7842 59.6396 50.3092 59.6396C49.8343 59.6396 49.4492 60.0247 49.4492 60.4996C49.4492 60.9746 49.8343 61.3596 50.3092 61.3596Z" stroke="#303030" stroke-width="2" stroke-linecap="round" stroke-linejoin="round"/>
<path d="M65.1295 61.3606C65.6045 61.3606 65.9895 60.9756 65.9895 60.5006C65.9895 60.0257 65.6045 59.6406 65.1295 59.6406C64.6546 59.6406 64.2695 60.0257 64.2695 60.5006C64.2695 60.9756 64.6546 61.3606 65.1295 61.3606Z" stroke="#303030" stroke-width="2" stroke-linecap="round" stroke-linejoin="round"/>
<path d="M58.4113 63.6504C57.6213 66.6204 55.5312 69.5004 55.5312 69.5004L58.4113 70.9404" stroke="#303030" stroke-width="2" stroke-linecap="round" stroke-linejoin="round"/>
<path d="M53.2483 76.0596H62.5783C62.5783 76.0596 60.7483 80.9496 57.9083 80.9496C55.0683 80.9496 53.2383 76.0596 53.2383 76.0596H53.2483Z" stroke="#303030" stroke-width="2" stroke-linecap="round" stroke-linejoin="round"/>
<path d="M103.672 58.7607C103.672 33.4707 83.1716 12.9707 57.8816 12.9707C32.5916 12.9707 12.1016 33.4707 12.1016 58.7607C12.1016 81.0507 28.0316 99.6107 49.1316 103.701L57.6116 124.121L66.4916 103.731C87.6616 99.7007 103.682 81.1107 103.682 58.7607H103.672Z" stroke="#303030" stroke-width="2" stroke-linecap="round" stroke-linejoin="round"/>
<path d="M16.6406 1L19.0906 8.69" stroke="#303030" stroke-width="2" stroke-linecap="round" stroke-linejoin="round"/>
<path d="M7.03125 6.67969L12.5312 12.1797" stroke="#303030" stroke-width="2" stroke-linecap="round" stroke-linejoin="round"/>
<path d="M1 16.8203L9.78 18.8303" stroke="#303030" stroke-width="2" stroke-linecap="round" stroke-linejoin="round"/>
</g>
<defs>
<clipPath id="clip0_442_2023">
<rect width="357.63" height="243.69" fill="white"/>
</clipPath>
</defs>
</svg>
