<svg width="324" height="240" viewBox="0 0 324 240" fill="none" xmlns="http://www.w3.org/2000/svg">
<g clip-path="url(#clip0_123_512)">
<path d="M146.084 70.2045C146.084 70.2045 153.982 62.4744 158.96 55.7655C158.96 55.7655 163.593 57.3116 167.888 53.1888C172.183 49.066 175.094 44.0813 175.094 44.0813C175.094 44.0813 174.064 49.066 178.865 54.7348C183.666 60.4036 190.188 61.6123 190.188 61.6123C190.188 61.6123 188.13 50.6121 185.725 44.0813C183.32 37.5504 175.431 36.8664 175.431 36.8664C175.431 36.8664 172.857 32.397 169.254 31.713C165.651 31.029 155.18 29.3049 147.459 37.7285C139.739 46.152 138.195 58.867 146.084 70.2045Z" fill="#B499E5"/>
<path opacity="0.3" d="M159.296 111.451C159.296 111.451 150.714 105.951 150.199 105.951C149.685 105.951 130.463 114.196 125.831 116.773C121.199 119.35 116.903 123.819 114.508 130.519C112.112 137.218 98.0281 178.465 97.345 182.765C96.6619 187.066 94.0884 192.388 100.433 197.542C106.778 202.695 106.956 202.873 111.934 202.18C116.913 201.486 121.545 200.287 121.545 200.287L119.318 158.357C119.318 158.357 117.427 154.346 125.672 154.206C133.916 154.065 217.494 153.316 222.126 154.206C226.758 155.096 228.134 153.887 226.59 160.418C225.046 166.949 223.848 206.302 223.848 206.302C223.848 206.302 230.024 205.103 236.724 201.318C243.425 197.532 244.108 197.195 246.681 191.179C249.255 185.164 248.394 181.388 246.681 175.888C244.969 170.388 232.953 131.69 230.033 126.808C227.114 121.927 220.423 116.604 216.305 114.88C212.188 113.156 194.679 104.742 194.679 104.742C194.679 104.742 189.868 109.558 184.899 111.62C184.899 111.62 185.582 113.681 185.414 114.365C185.246 115.049 187.641 116.773 186.79 120.212C185.938 123.651 185.077 125.712 183.533 126.059C181.989 126.405 177.179 125.89 177.179 125.89C177.179 125.89 176.318 129.151 176.318 132.768C176.318 136.384 175.635 139.645 173.576 141.528C171.517 143.412 166.539 148.406 166.539 148.406L150.059 147.891C150.059 147.891 156.928 137.237 158.126 130.706C159.324 124.175 159.324 111.46 159.324 111.46L159.296 111.451Z" fill="#B499E5"/>
<path d="M122.086 217.545L118.081 159.274C117.903 156.688 119.943 154.495 122.536 154.495H222.648C225.222 154.495 227.271 156.678 227.103 159.255L223.322 217.948" stroke="#303030" stroke-width="2" stroke-linecap="round" stroke-linejoin="round"/>
<path d="M173.004 192.06C174.611 192.06 175.914 190.755 175.914 189.145C175.914 187.536 174.611 186.231 173.004 186.231C171.397 186.231 170.094 187.536 170.094 189.145C170.094 190.755 171.397 192.06 173.004 192.06Z" stroke="#303030" stroke-width="2" stroke-linecap="round" stroke-linejoin="round"/>
<path d="M219.729 219.186H125.446C123.549 219.186 122.012 220.725 122.012 222.624C122.012 224.523 123.549 226.063 125.446 226.063H219.729C221.626 226.063 223.163 224.523 223.163 222.624C223.163 220.725 221.626 219.186 219.729 219.186Z" stroke="#303030" stroke-width="2" stroke-linecap="round" stroke-linejoin="round"/>
<path d="M149.262 66.5405C149.262 66.5405 158.704 58.6229 163.318 48.3066" stroke="#303030" stroke-width="2" stroke-linecap="round" stroke-linejoin="round"/>
<path d="M163.32 55.8307C163.32 55.8307 170.395 52.9354 172.435 44.4463" stroke="#303030" stroke-width="2" stroke-linecap="round" stroke-linejoin="round"/>
<path d="M175.324 49.168C175.324 49.168 176.503 55.5957 184.224 57.6384" stroke="#303030" stroke-width="2" stroke-linecap="round" stroke-linejoin="round"/>
<path d="M188.203 59.2694C188.203 59.2694 189.598 37.7936 175.336 37.5781" stroke="#303030" stroke-width="2" stroke-linecap="round" stroke-linejoin="round"/>
<path d="M172.435 34.561C170.395 31.9843 161.926 25.7533 148.834 37.5687C135.742 49.3842 141.647 63.2329 144.969 67.7492" stroke="#303030" stroke-width="2" stroke-linecap="round" stroke-linejoin="round"/>
<path d="M145.295 71.2441C141.645 73.1181 140.681 76.6693 143.039 81.2324C145.398 85.7956 150.76 84.5025 150.76 84.5025C150.76 84.5025 154.194 95.6715 159.556 98.4637" stroke="#303030" stroke-width="2" stroke-linecap="round" stroke-linejoin="round"/>
<path d="M180.48 99.5404C180.48 99.5404 192.066 95.0804 189.165 74.4385" stroke="#303030" stroke-width="2" stroke-linecap="round" stroke-linejoin="round"/>
<path d="M188.238 61.3027C192.384 61.3027 194.527 62.3803 194.424 68.8174C194.321 75.2545 189.633 76.229 189.633 76.229" stroke="#303030" stroke-width="2" stroke-linecap="round" stroke-linejoin="round"/>
<path d="M158.593 72.2272C159.125 72.2272 159.557 71.6818 159.557 71.0091C159.557 70.3364 159.125 69.791 158.593 69.791C158.06 69.791 157.629 70.3364 157.629 71.0091C157.629 71.6818 158.06 72.2272 158.593 72.2272Z" stroke="#303030" stroke-width="2" stroke-linecap="round" stroke-linejoin="round"/>
<path d="M174.687 68.3954C175.338 68.3954 175.866 67.8668 175.866 67.2148C175.866 66.5628 175.338 66.0342 174.687 66.0342C174.036 66.0342 173.508 66.5628 173.508 67.2148C173.508 67.8668 174.036 68.3954 174.687 68.3954Z" stroke="#303030" stroke-width="2" stroke-linecap="round" stroke-linejoin="round"/>
<path d="M168.467 69.791C168.57 74.8414 165.781 78.7018 165.781 78.7018L170.067 80.1635" stroke="#303030" stroke-width="2" stroke-linecap="round" stroke-linejoin="round"/>
<path d="M168.352 90.3959C168.352 90.3959 168.997 87.6411 171.571 86.9852C174.144 86.3293 175.857 88.6905 175.857 88.6905" stroke="#303030" stroke-width="2" stroke-linecap="round" stroke-linejoin="round"/>
<path d="M149.797 147.655C153.877 141.106 155.955 139.26 157.115 131.38C158.275 123.5 158.706 113.071 159.557 111.356C160.409 109.642 159.773 109.098 162.028 107.271C164.283 105.444 172.004 99.8594 173.501 98.4633C174.998 97.0672 177.937 95.8491 179.78 97.3858C181.624 98.9225 180.482 104.263 180.482 104.263" stroke="#303030" stroke-width="2" stroke-linecap="round" stroke-linejoin="round"/>
<path d="M176.506 105.96V102.877C176.506 102.877 173.399 105.988 171.359 107.599C169.319 109.211 165.781 110.289 165.781 110.289" stroke="#303030" stroke-width="2" stroke-linecap="round" stroke-linejoin="round"/>
<path d="M166.641 110.279C166.641 110.279 171.142 108.883 174.689 107.056C178.235 105.229 182.194 104.479 183.167 106.569C184.14 108.658 182.634 110.27 182.634 110.27" stroke="#303030" stroke-width="2" stroke-linecap="round" stroke-linejoin="round"/>
<path d="M168.785 114.795C168.785 114.795 175.326 113.155 178.227 111.927C181.128 110.7 184.984 110.278 185.733 112.527C186.481 114.776 185.05 116.715 185.05 116.715" stroke="#303030" stroke-width="2" stroke-linecap="round" stroke-linejoin="round"/>
<path d="M172.117 119.836C172.117 119.836 176.618 117.259 180.483 116.725C184.348 116.191 185.846 116.079 186.491 118.281C187.137 120.482 187.39 120.586 185.059 123.378C182.729 126.17 180.699 127.032 177.376 125.851" stroke="#303030" stroke-width="2" stroke-linecap="round" stroke-linejoin="round"/>
<path d="M182.624 121.382C182.624 121.382 179.836 122.628 178.656 123.921C177.477 125.214 176.616 126.498 176.513 129.937C176.41 133.375 178.235 135.737 175.063 139.606C171.891 143.476 166.641 148.517 166.641 148.517" stroke="#303030" stroke-width="2" stroke-linecap="round" stroke-linejoin="round"/>
<path d="M190.776 108.349C190.776 108.349 188.718 110.944 185.957 111.937" stroke="#303030" stroke-width="2" stroke-linecap="round" stroke-linejoin="round"/>
<path d="M152.914 108.349C152.914 108.349 155.272 111.225 159.025 112.471" stroke="#303030" stroke-width="2" stroke-linecap="round" stroke-linejoin="round"/>
<path d="M159.024 110.41C159.024 110.41 158.706 102.979 159.024 101.686C159.342 100.393 159.558 98.4629 161.495 98.4629C163.432 98.4629 164.714 99.3249 164.817 101.04C164.92 102.754 164.817 104.432 164.817 104.432" stroke="#303030" stroke-width="2" stroke-linecap="round" stroke-linejoin="round"/>
<path d="M154.84 98.4629V105.05" stroke="#303030" stroke-width="2" stroke-linecap="round" stroke-linejoin="round"/>
<path d="M185.957 97.8262V105.313" stroke="#303030" stroke-width="2" stroke-linecap="round" stroke-linejoin="round"/>
<path d="M193.781 105.959C193.781 105.959 214.163 113.933 217.916 115.76C221.668 117.587 226.928 120.81 228.64 125.748C230.353 130.686 244.942 172.064 246.552 178.332C248.161 184.601 248.479 193.408 242.368 197.597C236.258 201.785 225.421 206.404 225.421 206.404" stroke="#303030" stroke-width="2" stroke-linecap="round" stroke-linejoin="round"/>
<path d="M229.816 178.332C229.816 178.332 236.358 182.024 238.183 188.573" stroke="#303030" stroke-width="2" stroke-linecap="round" stroke-linejoin="round"/>
<path d="M218.231 129.937L215.555 150.653" stroke="#303030" stroke-width="2" stroke-linecap="round" stroke-linejoin="round"/>
<path d="M124.699 130.518L127.488 150.653" stroke="#303030" stroke-width="2" stroke-linecap="round" stroke-linejoin="round"/>
<path d="M109.688 178.904L115.686 174.931" stroke="#303030" stroke-width="2" stroke-linecap="round" stroke-linejoin="round"/>
<path d="M150.986 105.959C150.986 105.959 132.644 113.502 128.245 115.441C123.847 117.381 118.588 121.457 115.696 127.688C112.805 133.919 100.358 174.94 98.3183 181.068C96.2782 187.196 97.1392 194.167 99.4974 196.21C101.856 198.252 103.362 199.752 105.29 201.579C107.218 203.406 110.119 204.052 113.769 203.406C117.418 202.759 121.058 201.691 121.058 201.691" stroke="#303030" stroke-width="2" stroke-linecap="round" stroke-linejoin="round"/>
<path d="M245.902 200.389H260.061" stroke="#303030" stroke-width="2" stroke-linecap="round" stroke-linejoin="round"/>
<path d="M93.5899 200.389H79.3281" stroke="#303030" stroke-width="2" stroke-linecap="round" stroke-linejoin="round"/>
<path d="M214.375 58.3512C214.375 58.3512 221.562 59.8035 224.566 56.8989C227.57 53.9942 226.821 50.0214 225.315 48.3067C223.808 46.592 221.057 46.9105 220.664 48.3067C220.271 49.7028 220.598 51.4268 222.629 52.8698C224.66 54.3128 230.134 53.8162 232.502 51.1645C234.869 48.5128 234.645 41.6915 232.502 40.108C230.359 38.5245 227.458 37.0253 225.633 38.4214C223.808 39.8175 226.063 42.7128 228.524 44.4369C230.986 46.161 235.599 48.5222 239.146 45.2989C242.693 42.0757 241.401 37.3533 239.146 34.7765C236.891 32.1998 232.82 28.9766 232.82 28.9766" stroke="#303030" stroke-width="2" stroke-linecap="round" stroke-linejoin="round"/>
<path d="M104.26 57.0765C103.755 58.9692 101.686 60.0936 99.7305 60.1592C97.7747 60.2248 95.8937 59.4658 94.0689 58.7444C92.2441 58.0229 90.335 57.3295 88.3792 57.5169C85.9367 57.7511 83.7469 59.3534 81.2951 59.3721C79.4796 59.3815 77.6922 58.4539 76.6535 56.9641C75.6147 55.4743 75.3808 53.4691 76.0265 51.7732C76.6441 50.1615 77.9823 48.8779 78.4034 47.2006C78.9275 45.1393 77.9168 42.9654 76.5412 41.3445C75.1655 39.7235 73.4062 38.4585 72.0119 36.8469C70.6175 35.2353 69.5694 33.0989 70.0467 31.0188C70.5988 28.5639 73.0693 27.0179 75.4837 26.287C77.8981 25.5562 80.4903 25.3594 82.7362 24.2257C85.3471 22.9045 87.2 20.4871 88.8751 18.0884C90.5502 15.6897 92.2066 13.1786 94.6117 11.5201C97.0167 9.86161 100.432 9.26194 102.837 10.9298C105.027 12.4477 105.776 15.2868 106.393 17.8822C107.011 20.4777 107.844 23.3168 110.109 24.7223C111.559 25.6218 113.347 25.753 115.059 25.7436C116.772 25.7342 118.512 25.603 120.15 26.0622C121.788 26.5213 123.36 27.7394 123.65 29.4259C124.071 31.8809 121.788 33.886 119.701 35.254C117.614 36.622 115.228 38.3836 115.33 40.876C115.359 41.6443 115.63 42.3751 115.817 43.1154C116.435 45.6359 115.929 48.4 114.46 50.5363C112.991 52.6727 110.605 54.1437 108.031 54.4811" stroke="#303030" stroke-width="2" stroke-linecap="round" stroke-linejoin="round"/>
<path d="M102.951 66.9996C101.959 67.6086 101.884 69.1453 102.558 70.101C103.231 71.0568 104.383 71.544 105.515 71.8345C107.433 72.3311 109.567 72.3779 111.298 71.4222C113.029 70.4665 114.18 68.2927 113.516 66.428C113.057 65.135 111.832 64.2167 110.512 63.8607C109.193 63.5046 107.78 63.6546 106.451 63.9825" stroke="#303030" stroke-width="2" stroke-linecap="round" stroke-linejoin="round"/>
<path d="M116.65 78.4958C116.285 79.0861 115.91 79.6857 115.705 80.351C115.499 81.0163 115.48 81.7658 115.807 82.3843C116.313 83.34 117.548 83.7335 118.615 83.5368C119.682 83.34 120.589 82.656 121.376 81.9158C122.134 81.2037 122.873 80.2104 122.573 79.2079C122.367 78.5145 121.684 78.0554 120.982 77.8961C120.281 77.7368 119.541 77.8305 118.83 77.9148" stroke="#303030" stroke-width="2" stroke-linecap="round" stroke-linejoin="round"/>
</g>
<defs>
<clipPath id="clip0_123_512">
<rect width="192" height="218" fill="white" transform="translate(69 9)"/>
</clipPath>
</defs>
</svg>
