<svg width="324" height="242" viewBox="0 0 324 242" fill="none" xmlns="http://www.w3.org/2000/svg">
<g clip-path="url(#clip0_123_513)">
<path opacity="0.3" d="M146.797 103.438C146.366 103.547 135.069 107.095 132.163 108.387C129.256 109.679 126.46 111.292 125.277 114.729C123.013 121.299 118.806 127.594 115.508 133.678C113.674 137.069 112.209 140.905 110.196 144.1C106.475 150.004 102.44 155.736 98.5626 161.546C98.022 162.36 97.458 163.221 97.3796 164.192C97.2465 165.868 98.7036 166.056 99.4322 167.136C101.179 169.705 101.72 172.774 102.401 175.734C103.13 178.882 104.493 181.646 105.551 184.676C106.553 187.565 107.595 190.439 108.59 193.328C108.59 193.328 111.497 188.92 114.779 186.657C118.062 184.394 122.684 182.029 122.684 182.029C122.684 182.029 126.554 174.505 128.927 169.767C131.301 165.03 135.813 161.272 135.813 161.272L139.041 181.38C139.041 181.38 141.195 182.993 145.496 183.314C149.797 183.635 159.159 183.423 159.59 183.423C160.021 183.423 162.606 183.533 162.606 183.533C162.606 183.533 164.862 185.577 164.11 190.737C163.358 195.897 161.423 199.663 161.423 199.663L190.472 200.305C190.472 200.305 190.472 198.692 190.902 198.261C191.333 197.831 192.195 195.356 203.171 195.035C214.146 194.714 215.329 197.721 215.329 197.721V200.305H223.853C223.853 200.305 226.085 138.407 222.756 126.427C221.001 120.108 220.069 114.917 213.183 110.939C206.296 106.961 187.346 96.8057 187.346 96.8057C187.346 96.8057 170.048 114.22 157.138 114.87C144.227 115.52 146.797 103.414 146.797 103.414V103.438Z" fill="#B499E5"/>
<path d="M172.728 70.8562L176.387 68.0608C177.57 67.8494 180.476 68.0608 180.476 68.0608C180.476 68.0608 182.521 65.9075 183.062 66.0171C183.602 66.1267 183.923 63.8638 183.923 63.4331C183.923 63.0025 185.427 52.3534 183.923 47.3029C182.419 42.2525 179.403 36.3328 174.883 34.6102C170.363 32.8876 163.798 33.6393 163.798 33.6393C163.798 33.6393 155.298 29.0116 147.769 32.5665C140.241 36.1214 140.672 41.0623 140.672 41.0623C140.672 41.0623 133.785 41.0623 133.574 46.5434C133.362 52.0245 131.639 52.2438 138.627 54.3971C145.615 56.5504 151.537 57.7328 153.261 57.5135C154.984 57.2943 160.359 56.5426 160.359 56.5426H167.456C167.456 56.5426 168.318 57.8345 170.363 59.5572C172.407 61.2798 172.517 62.5718 172.517 62.5718L172.728 70.8562Z" fill="#B499E5"/>
<path d="M141.582 50.6309C141.582 50.6309 151.163 56.6523 162.256 56.6523" stroke="#303030" stroke-width="2" stroke-linecap="round" stroke-linejoin="round"/>
<path d="M165.262 55.9629C165.262 55.9629 168.638 60.2069 170.965 61.6633L171.466 71.0125L174.569 67.8178" stroke="#303030" stroke-width="2" stroke-linecap="round" stroke-linejoin="round"/>
<path d="M177.54 68.7808C177.54 68.7808 178.315 67.4575 180.548 67.1835C182.781 66.9094 185.021 68.5538 184.794 72.6098C184.567 76.6658 180.642 80.8237 177.266 82.053" stroke="#303030" stroke-width="2" stroke-linecap="round" stroke-linejoin="round"/>
<path d="M182.836 65.5471C182.836 63.1275 183.111 52.776 182.836 48.579C182.562 44.3821 178.865 38.0005 174.579 35.5809C170.294 33.1614 164.176 33.9366 164.176 33.9366" stroke="#303030" stroke-width="2" stroke-linecap="round" stroke-linejoin="round"/>
<path d="M161.473 33.3416C161.473 33.3416 157.728 30.601 151.155 32.3863C144.583 34.1716 143.078 36.8103 139.882 41.1404C135.088 39.8641 130.434 46.4806 132.714 49.9886C134.994 53.4965 141.018 56.9653 149.823 57.9284" stroke="#303030" stroke-width="2" stroke-linecap="round" stroke-linejoin="round"/>
<path d="M133.863 57.9287C133.863 64.4982 134.231 82.5625 137.013 89.9933C139.794 97.4242 142.63 104.456 150.338 105.043C158.047 105.63 162.05 102.498 165.623 99.4287C169.195 96.3593 173.425 92.6321 175.07 86.4306" stroke="#303030" stroke-width="2" stroke-linecap="round" stroke-linejoin="round"/>
<path d="M145.78 73.252C145.6 76.9948 142.082 82.0531 142.082 82.0531L145.137 85.2478" stroke="#303030" stroke-width="2" stroke-linecap="round" stroke-linejoin="round"/>
<path d="M144.41 91.5908C144.41 91.5908 145.46 93.4153 148.061 93.5484C150.662 93.6815 153.169 91.5908 153.169 91.5908" stroke="#303030" stroke-width="2" stroke-linecap="round" stroke-linejoin="round"/>
<path d="M154.791 72.2499C155.133 72.2499 155.41 71.9729 155.41 71.6313C155.41 71.2896 155.133 71.0127 154.791 71.0127C154.449 71.0127 154.172 71.2896 154.172 71.6313C154.172 71.9729 154.449 72.2499 154.791 72.2499Z" stroke="#303030" stroke-width="2" stroke-linecap="round" stroke-linejoin="round"/>
<path d="M140.006 71.6621C140.369 71.6621 140.664 71.3746 140.664 71.02C140.664 70.6654 140.369 70.3779 140.006 70.3779C139.642 70.3779 139.348 70.6654 139.348 71.02C139.348 71.3746 139.642 71.6621 140.006 71.6621Z" stroke="#303030" stroke-width="2" stroke-linecap="round" stroke-linejoin="round"/>
<path d="M178.863 83.8779V89.8132" stroke="#303030" stroke-width="2" stroke-linecap="round" stroke-linejoin="round"/>
<path d="M142.539 105.121C142.539 105.121 138.982 105.873 134.234 107.509C129.487 109.146 124.653 112.434 122.554 117.36C120.454 122.285 100.102 161.514 100.102 161.514" stroke="#303030" stroke-width="2" stroke-linecap="round" stroke-linejoin="round"/>
<path d="M129.578 136.152C129.578 136.152 131.952 146.277 132.586 153.849C133.221 161.42 137.334 178.937 137.334 178.937" stroke="#303030" stroke-width="2" stroke-linecap="round" stroke-linejoin="round"/>
<path d="M195.839 139.801C195.745 140.075 195.839 155.399 195.839 162.422C195.839 169.446 196.293 175.561 196.293 175.561" stroke="#303030" stroke-width="2" stroke-linecap="round" stroke-linejoin="round"/>
<path d="M199.945 178.114L161.158 182.491C161.158 182.491 163.438 185.138 163.164 190.517C162.89 195.897 160.422 198.637 160.422 198.637" stroke="#303030" stroke-width="2" stroke-linecap="round" stroke-linejoin="round"/>
<path d="M173.559 184.777C173.559 184.777 176.943 191.347 174.389 198.19" stroke="#303030" stroke-width="2" stroke-linecap="round" stroke-linejoin="round"/>
<path d="M158.237 183.775C158.237 183.775 151.485 184.049 147.191 183.775C142.898 183.501 138.707 182.953 135.049 181.497C131.39 180.04 125.099 180.126 122.091 181.497C119.083 182.867 111.594 187.15 107.395 193.36" stroke="#303030" stroke-width="2" stroke-linecap="round" stroke-linejoin="round"/>
<path d="M127.935 184.777C127.567 185.145 124.284 186.508 122.459 187.518C120.633 188.528 117.891 190.345 116.066 192.083C114.241 193.821 112.235 196.28 110.77 197.65C109.305 199.02 108.577 200.751 109.768 202.301C110.958 203.852 112.415 203.946 114.241 202.755" stroke="#303030" stroke-width="2" stroke-linecap="round" stroke-linejoin="round"/>
<path d="M133.458 189.154C133.458 189.154 129.486 190.157 127.935 190.705C126.384 191.253 124.833 192.349 123.102 193.351C121.37 194.354 117.077 198.002 116.075 198.644C115.072 199.287 114.249 201.017 115.158 202.935C116.067 204.854 118.307 204.486 120.25 202.935C122.193 201.385 123.744 199.655 127.943 197.83C132.142 196.006 132.597 194.823 137.344 194.729C132.691 197.924 127.669 200.571 126.666 201.299C125.663 202.027 124.018 203.217 124.747 204.674C125.475 206.13 127.669 206.224 130.591 205.222C133.513 204.22 143.94 198.652 143.94 198.652" stroke="#303030" stroke-width="2" stroke-linecap="round" stroke-linejoin="round"/>
<path d="M126.201 208.315L113.784 212.324L24.7031 205.88V209.678L113.784 216.341L139.613 206.765" stroke="#303030" stroke-width="2" stroke-linecap="round" stroke-linejoin="round"/>
<path d="M114.153 212.786L113.785 216.341" stroke="#303030" stroke-width="2" stroke-linecap="round" stroke-linejoin="round"/>
<path d="M112.689 209.043L92.4302 152.008C92.0385 150.912 91.0358 150.145 89.8763 150.051L5.96585 143.622C3.81149 143.458 2.21335 145.588 2.97325 147.608L23.8823 203.022" stroke="#303030" stroke-width="2" stroke-linecap="round" stroke-linejoin="round"/>
<path d="M54.5276 177.057C55.358 177.597 55.9143 178.576 55.9143 179.695C55.9143 181.395 54.6295 182.773 53.0392 182.773C51.4488 182.773 50.1641 181.395 50.1641 179.695C50.1641 179.116 50.3129 178.584 50.5714 178.122" stroke="#303030" stroke-width="2" stroke-linecap="round" stroke-linejoin="round"/>
<path d="M152.762 105.865V108.606" stroke="#303030" stroke-width="2" stroke-linecap="round" stroke-linejoin="round"/>
<path d="M145.781 107.235C145.781 107.235 147.105 116.263 158.237 115.535C169.37 114.807 178.59 107.055 184.709 99.5693" stroke="#303030" stroke-width="2" stroke-linecap="round" stroke-linejoin="round"/>
<path d="M190.816 98.8408C190.816 98.8408 207.425 107.963 213.543 112.708C219.661 117.453 224.675 121.736 225.224 134.601C225.772 147.466 226.594 152.752 225.678 168.905C224.761 185.059 223.21 200.649 223.21 200.649" stroke="#303030" stroke-width="2" stroke-linecap="round" stroke-linejoin="round"/>
<path d="M147.012 201.565H187.349" stroke="#303030" stroke-width="2" stroke-linecap="round" stroke-linejoin="round"/>
<path d="M214.82 201.565H268.217" stroke="#303030" stroke-width="2" stroke-linecap="round" stroke-linejoin="round"/>
<path d="M193.373 224.171C192.355 223.6 191.705 222.566 191.611 221.4C191.188 216.185 189.856 199.937 189.55 198.637C189.182 197.087 191.282 194.988 202.97 194.988C214.658 194.988 214.47 196.907 213.742 199.733C213.139 202.067 211.666 216.435 211.164 221.345C211.047 222.48 210.397 223.506 209.394 224.054C207.796 224.923 205.03 226.004 201.137 226.004C197.243 226.004 194.87 225.009 193.373 224.164V224.171Z" stroke="#303030" stroke-width="2" stroke-linecap="round" stroke-linejoin="round"/>
<path d="M193.191 198.645C193.191 198.645 200.493 200.101 209.8 198.645" stroke="#303030" stroke-width="2" stroke-linecap="round" stroke-linejoin="round"/>
<path d="M214.008 205.88C214.008 205.88 217.102 206.311 216.648 210.508C216.194 214.705 212.543 215.159 212.543 215.159" stroke="#303030" stroke-width="2" stroke-linecap="round" stroke-linejoin="round"/>
<path d="M217.194 202.02C217.194 202.02 222.396 204.212 221.213 212.144C220.03 220.076 211.992 219.348 211.992 219.348" stroke="#303030" stroke-width="2" stroke-linecap="round" stroke-linejoin="round"/>
<path d="M189.911 209.044L154.469 207.493L124.379 230.209L170.098 234.218L189.911 216.341" stroke="#303030" stroke-width="2" stroke-linecap="round" stroke-linejoin="round"/>
</g>
<defs>
<clipPath id="clip0_123_513">
<rect width="267" height="204" fill="white" transform="translate(2 31)"/>
</clipPath>
</defs>
</svg>
