<svg width="82" height="82" viewBox="0 0 82 82" fill="none" xmlns="http://www.w3.org/2000/svg">
<circle cx="41" cy="41" r="41" fill="#FFAE63"/>
<g clip-path="url(#clip0_132_509)">
<path d="M64.4797 30.3398H63.1597C62.8297 30.3298 62.5397 30.1198 62.4397 29.8098L61.6797 27.9498C61.5497 27.6698 61.5997 27.3298 61.8097 27.0998L62.7397 26.1698C62.9597 25.9498 62.9597 25.5998 62.7397 25.3798L61.6597 24.2998C61.4397 24.0898 61.0897 24.0898 60.8697 24.2998L59.9297 25.2398C59.6997 25.4498 59.3697 25.4998 59.0797 25.3698L57.2097 24.6098C56.9097 24.4898 56.7097 24.2098 56.6797 23.8898V22.5698C56.6797 22.2598 56.4297 22.0098 56.1197 22.0098H54.5997C54.2997 22.0098 54.0497 22.2498 54.0397 22.5498C54.0397 22.5498 54.0397 22.5598 54.0397 22.5698V23.8898C54.0097 24.2098 53.8097 24.4898 53.5097 24.6098L51.6397 25.3698C51.3597 25.4998 51.0197 25.4498 50.7897 25.2398L49.8497 24.2998C49.6297 24.0898 49.2797 24.0898 49.0597 24.2998L47.9797 25.3798C47.7597 25.5998 47.7597 25.9498 47.9797 26.1698L48.9097 27.0998C49.1197 27.3298 49.1697 27.6698 49.0397 27.9498L48.2797 29.8098C48.1797 30.1198 47.8897 30.3298 47.5697 30.3398H46.2397C45.9297 30.3398 45.6797 30.5898 45.6797 30.8998V32.4298C45.6797 32.7398 45.9297 32.9898 46.2397 32.9898H47.5697C47.8997 32.9998 48.1797 33.2098 48.2797 33.5198L49.0397 35.3798C49.1697 35.6598 49.1197 35.9998 48.9097 36.2298L47.9797 37.1698C47.7597 37.3798 47.7597 37.7298 47.9797 37.9498L49.0597 39.0298C49.2797 39.2398 49.6297 39.2398 49.8497 39.0298L50.7897 38.0898C51.0197 37.8798 51.3497 37.8298 51.6397 37.9598L53.5097 38.7198C53.8097 38.8398 54.0197 39.1198 54.0397 39.4398V40.7598C54.0397 41.0598 54.2797 41.3098 54.5797 41.3198C54.5797 41.3198 54.5897 41.3198 54.5997 41.3198H56.0797C56.3897 41.3198 56.6397 41.0798 56.6497 40.7698V39.4498C56.6697 39.1298 56.8797 38.8498 57.1797 38.7298L59.0497 37.9698C59.3297 37.8398 59.6697 37.8898 59.8997 38.0998L60.8397 39.0398C61.0597 39.2498 61.4097 39.2498 61.6297 39.0398L62.7097 37.9598C62.9297 37.7498 62.9297 37.3998 62.7097 37.1798L61.7697 36.2398C61.5697 36.0098 61.5197 35.6698 61.6497 35.3898L62.4097 33.5298C62.5197 33.2198 62.7997 33.0098 63.1297 32.9998H64.4497C64.7597 32.9998 65.0097 32.7498 65.0097 32.4398V30.9098C65.0097 30.6198 64.7897 30.3698 64.4897 30.3498L64.4797 30.3398Z" stroke="white" stroke-width="2" stroke-linecap="round" stroke-linejoin="round"/>
<path d="M46.57 43.2591H44.48C43.97 43.2391 43.52 42.8991 43.35 42.4091L42.15 39.4891C41.92 39.0291 42 38.4791 42.35 38.1091L43.82 36.6391C44.16 36.3191 44.18 35.7791 43.86 35.4391C43.85 35.4291 43.83 35.4091 43.82 35.3991L42.12 33.6991C41.8 33.3591 41.26 33.3391 40.92 33.6591C40.91 33.6691 40.89 33.6891 40.88 33.6991L39.4 35.1791C39.02 35.5191 38.47 35.5991 38.01 35.3791L35.09 34.1791C34.6 34.0191 34.27 33.5691 34.24 33.0591V30.9691C34.24 30.4991 33.86 30.1191 33.39 30.1191H31C30.53 30.1191 30.15 30.4991 30.15 30.9691V33.0591C30.12 33.5691 29.79 34.0091 29.3 34.1791L26.37 35.3891C25.91 35.6191 25.36 35.5391 24.99 35.1891L23.51 33.7091C23.19 33.3691 22.65 33.3491 22.31 33.6691C22.3 33.6791 22.28 33.6991 22.27 33.7091L20.57 35.4091C20.23 35.7291 20.21 36.2691 20.53 36.6091C20.54 36.6191 20.56 36.6391 20.57 36.6491L22.05 38.1191C22.4 38.4991 22.47 39.0491 22.25 39.4991L21.03 42.4591C20.86 42.9491 20.42 43.2791 19.9 43.3091H17.85C17.38 43.3091 17 43.6891 17 44.1591V46.5491C17 47.0191 17.38 47.3991 17.85 47.3991H19.94C20.46 47.4191 20.91 47.7591 21.07 48.2491L22.27 51.1591C22.5 51.6191 22.42 52.1691 22.07 52.5391L20.59 54.0191C20.25 54.3391 20.23 54.8791 20.55 55.2191C20.56 55.2291 20.58 55.2491 20.59 55.2591L22.29 56.9591C22.61 57.2991 23.15 57.3191 23.49 56.9991C23.5 56.9891 23.52 56.9691 23.53 56.9591L25.01 55.4891C25.39 55.1391 25.94 55.0691 26.39 55.2891L29.31 56.4891C29.8 56.6591 30.13 57.0991 30.16 57.6191V59.6991C30.16 60.1691 30.54 60.5491 31.01 60.5491H33.4C33.87 60.5491 34.25 60.1691 34.25 59.6991V57.6191C34.27 57.0991 34.61 56.6591 35.1 56.4891L38.02 55.2891C38.48 55.0591 39.03 55.1391 39.41 55.4891L40.89 56.9691C41.21 57.3091 41.75 57.3291 42.09 57.0091C42.1 56.9991 42.12 56.9791 42.13 56.9691L43.83 55.2691C44.17 54.9491 44.19 54.4091 43.87 54.0691C43.86 54.0591 43.84 54.0391 43.83 54.0291L42.35 52.5491C42.01 52.1691 41.94 51.6191 42.16 51.1691L43.36 48.2591C43.52 47.7691 43.97 47.4291 44.49 47.4091H46.58C47.05 47.4091 47.43 47.0291 47.43 46.5591V44.1591C47.46 43.6891 47.1 43.2891 46.64 43.2591C46.64 43.2591 46.63 43.2591 46.62 43.2591H46.57Z" stroke="white" stroke-width="2" stroke-linecap="round" stroke-linejoin="round"/>
<path d="M55.3284 34.0905C53.9884 34.0905 52.8984 33.0005 52.8984 31.6605C52.8984 30.3205 53.9884 29.2305 55.3284 29.2305C56.6684 29.2305 57.7584 30.3205 57.7584 31.6605C57.7584 33.0005 56.6684 34.0905 55.3284 34.0905Z" stroke="white" stroke-width="2" stroke-linecap="round" stroke-linejoin="round"/>
<path d="M32.2102 49.1298C30.1102 49.1298 28.4102 47.4198 28.4102 45.3098C28.4102 43.2098 30.1202 41.5098 32.2302 41.5098C34.3302 41.5098 36.0302 43.2198 36.0302 45.3198C36.0302 47.4198 34.3302 49.1298 32.2202 49.1298H32.2102Z" stroke="white" stroke-width="2" stroke-linecap="round" stroke-linejoin="round"/>
</g>
<defs>
<clipPath id="clip0_132_509">
<rect width="50" height="40.53" fill="white" transform="translate(16 21)"/>
</clipPath>
</defs>
</svg>
