<svg width="253" height="293" viewBox="0 0 253 293" fill="none" xmlns="http://www.w3.org/2000/svg">
<g clip-path="url(#clip0_442_613)">
<path opacity="0.3" d="M200.405 267.022C200.405 267.022 204.453 204.316 205.167 199.564C205.88 194.811 205.4 192.195 197.551 192.674C189.703 193.153 65.2654 192.091 62.1648 192.622C59.0643 193.153 55.9767 194.578 55.7432 200.276C55.5097 205.974 59.0772 267.967 59.0772 267.967C59.0772 267.967 47.661 264.639 38.3723 260.598C29.0836 256.558 23.8555 248.011 23.8555 242.313C23.8555 236.614 25.7625 227.109 29.0836 219.274C32.4047 211.439 49.3086 156.336 52.6426 151.35C55.9767 146.364 60.4913 142.557 67.393 138.995C74.2946 135.434 98.3207 125.695 98.3207 125.695C98.3207 125.695 103.795 139.474 127.588 138.762C151.38 138.05 161.37 125.695 161.37 125.695C161.37 125.695 184.682 136.146 190.403 138.762C196.124 141.378 203.96 144.227 206.814 153.254C209.668 162.28 229.893 226.41 232.267 232.82C234.641 239.23 234.408 250.394 227.506 254.913C220.604 259.433 200.379 267.022 200.379 267.022H200.405Z" fill="#B499E5"/>
<path d="M103.327 70.3591C103.327 70.3591 109.749 69.1676 115.703 63.9487C121.658 58.7297 124.979 56.826 124.979 56.826C124.979 56.826 125.692 59.6751 132.828 56.826C139.963 53.977 144.244 50.8818 144.244 50.8818C144.244 50.8818 144.477 54.4432 148.525 60.6205C152.573 66.7977 159.941 68.7014 159.941 68.7014C159.941 68.7014 162.562 59.9082 161.602 50.8818C160.642 41.8555 157.321 34.966 149.226 34.0206C149.226 34.0206 144.944 20.1897 125.913 22.2358C106.882 24.282 97.3594 40.431 97.3594 53.0186C97.3594 65.6063 99.0199 68.6885 99.0199 68.6885L103.301 70.3461L103.327 70.3591Z" fill="#B499E5"/>
<path d="M127.629 58.9363C127.629 58.9363 139.227 58.5737 144.403 48.4336" stroke="#303030" stroke-width="2" stroke-linecap="round" stroke-linejoin="round"/>
<path d="M146.36 52.3457C146.36 52.3457 143.973 62.0973 155.103 67.4846" stroke="#303030" stroke-width="2" stroke-linecap="round" stroke-linejoin="round"/>
<path d="M160.994 67.4844C160.994 67.4844 163.848 52.7082 160.994 43.6171C158.14 34.526 150.629 34.7073 150.629 34.7073" stroke="#303030" stroke-width="2" stroke-linecap="round" stroke-linejoin="round"/>
<path d="M147.075 29.3715C147.075 29.3715 138.512 16.5508 119.429 24.2044C100.346 31.858 93.8592 48.266 99.6322 64.9848" stroke="#303030" stroke-width="2" stroke-linecap="round" stroke-linejoin="round"/>
<path d="M100.035 71.2788C95.0536 70.8255 92.0957 73.5451 92.446 80.1109C92.7962 86.6767 97.7779 90.2898 101.06 91.546" stroke="#303030" stroke-width="2" stroke-linecap="round" stroke-linejoin="round"/>
<path d="M100.035 71.2788C95.0536 70.8255 92.0957 73.5451 92.446 80.1109C92.7962 86.6767 97.7779 90.2898 101.06 91.546" stroke="#303030" stroke-width="2" stroke-linecap="round" stroke-linejoin="round"/>
<path d="M158.958 71.2788C163.94 70.8255 166.898 73.5451 166.548 80.1109C166.197 86.6767 161.216 90.2898 157.934 91.546" stroke="#303030" stroke-width="2" stroke-linecap="round" stroke-linejoin="round"/>
<path d="M157.169 82.1309C156.144 92.5429 153.653 103.861 149.8 110.194C145.947 116.527 138.007 122.186 129.173 122.186C120.338 122.186 114.319 117.653 110.582 113.134C106.846 108.614 103.214 102.955 101.852 85.9771" stroke="#303030" stroke-width="2" stroke-linecap="round" stroke-linejoin="round"/>
<path d="M129.51 83.2695C129.51 83.2695 128.602 88.9288 125.086 92.8916L129.51 96.8544" stroke="#303030" stroke-width="2" stroke-linecap="round" stroke-linejoin="round"/>
<path d="M124.398 104.197C124.398 104.197 126.098 106.127 129.497 106.127C132.896 106.127 134.933 104.197 134.933 104.197" stroke="#303030" stroke-width="2" stroke-linecap="round" stroke-linejoin="round"/>
<path d="M140.729 79.0867C141.482 79.0867 142.092 78.478 142.092 77.727C142.092 76.976 141.482 76.3672 140.729 76.3672C139.977 76.3672 139.367 76.976 139.367 77.727C139.367 78.478 139.977 79.0867 140.729 79.0867Z" stroke="#303030" stroke-width="2" stroke-linecap="round" stroke-linejoin="round"/>
<path d="M117.55 79.0867C118.302 79.0867 118.912 78.478 118.912 77.727C118.912 76.976 118.302 76.3672 117.55 76.3672C116.797 76.3672 116.188 76.976 116.188 77.727C116.188 78.478 116.797 79.0867 117.55 79.0867Z" stroke="#303030" stroke-width="2" stroke-linecap="round" stroke-linejoin="round"/>
<path d="M101.836 130.008C101.836 130.008 111.138 137.933 129.663 137.933C148.189 137.933 157.931 130.008 157.931 130.008" stroke="#303030" stroke-width="2" stroke-linecap="round" stroke-linejoin="round"/>
<path d="M149.902 124.453V112.008" stroke="#303030" stroke-width="2" stroke-linecap="round" stroke-linejoin="round"/>
<path d="M107.855 110.764V125.138" stroke="#303030" stroke-width="2" stroke-linecap="round" stroke-linejoin="round"/>
<path d="M161.242 125.709C161.242 125.709 185.268 134.761 193.091 139.177C200.914 143.593 205.675 148.566 208.503 155.805C211.331 163.045 231.738 226.527 233.1 231.849C234.462 237.172 235.033 249.384 226.185 255.043C217.338 260.703 203.508 267.722 203.508 267.722" stroke="#303030" stroke-width="2" stroke-linecap="round" stroke-linejoin="round"/>
<path d="M207.723 225.736C207.723 225.736 215.429 229.013 220.423 239.205" stroke="#303030" stroke-width="2" stroke-linecap="round" stroke-linejoin="round"/>
<path d="M193.545 159.65L189.809 187.481" stroke="#303030" stroke-width="2" stroke-linecap="round" stroke-linejoin="round"/>
<path d="M62.7383 159.65L67.7199 187.481" stroke="#303030" stroke-width="2" stroke-linecap="round" stroke-linejoin="round"/>
<path d="M51.1773 226.293C51.1773 226.293 41.3178 231.382 37.4648 239.761" stroke="#303030" stroke-width="2" stroke-linecap="round" stroke-linejoin="round"/>
<path d="M59.794 279.933L54.2415 199.396C53.995 195.821 56.8232 192.791 60.4167 192.791H199.202C202.77 192.791 205.611 195.808 205.377 199.37L200.136 280.49" stroke="#303030" stroke-width="2" stroke-linecap="round" stroke-linejoin="round"/>
<path d="M130.367 244.707C132.595 244.707 134.401 242.904 134.401 240.68C134.401 238.456 132.595 236.652 130.367 236.652C128.138 236.652 126.332 238.456 126.332 240.68C126.332 242.904 128.138 244.707 130.367 244.707Z" stroke="#303030" stroke-width="2" stroke-linecap="round" stroke-linejoin="round"/>
<path d="M195.14 282.199H64.4369C61.8074 282.199 59.6758 284.327 59.6758 286.952C59.6758 289.577 61.8074 291.705 64.4369 291.705H195.14C197.77 291.705 199.901 289.577 199.901 286.952C199.901 284.327 197.77 282.199 195.14 282.199Z" stroke="#303030" stroke-width="2" stroke-linecap="round" stroke-linejoin="round"/>
<path d="M234.695 255.613H251.703" stroke="#303030" stroke-width="2" stroke-linecap="round" stroke-linejoin="round"/>
<path d="M21.924 254.926H1.29688" stroke="#303030" stroke-width="2" stroke-linecap="round" stroke-linejoin="round"/>
<path d="M98.516 124.451C98.516 124.451 72.5958 135.045 67.718 137.919C62.8401 140.794 54.9136 143.799 51.1644 152.709C47.4152 161.618 27.1643 223.767 25.6594 230.708C24.1546 237.65 23.0908 249.719 34.4292 256.958C45.7676 264.198 53.4736 267.707 53.4736 267.707" stroke="#303030" stroke-width="2" stroke-linecap="round" stroke-linejoin="round"/>
<path d="M106.48 69.5432C106.48 69.5432 121.815 60.1801 129.663 49.9883" stroke="#303030" stroke-width="2" stroke-linecap="round" stroke-linejoin="round"/>
<path d="M47.6641 20.7715L58.1592 23.1284" stroke="#303030" stroke-width="2" stroke-linecap="round" stroke-linejoin="round"/>
<path d="M54.9805 7.9375L61.8562 15.4616" stroke="#303030" stroke-width="2" stroke-linecap="round" stroke-linejoin="round"/>
<path d="M67.5391 1.29492L69.8353 10.9558" stroke="#303030" stroke-width="2" stroke-linecap="round" stroke-linejoin="round"/>
</g>
<defs>
<clipPath id="clip0_442_613">
<rect width="253" height="293" fill="white"/>
</clipPath>
</defs>
</svg>
