<svg id="_カラーver" xmlns="http://www.w3.org/2000/svg" width="149.293" height="199.475" viewBox="0 0 149.293 199.475">
  <g id="Group_179" data-name="Group 179" transform="translate(0 0)">
    <g id="Group_176" data-name="Group 176" transform="translate(6.878 18.578)">
      <circle id="Ellipse_5" data-name="Ellipse 5" cx="67.627" cy="67.627" r="67.627" fill="#fff742"/>
      <g id="Group_174" data-name="Group 174" transform="translate(49.113 5.779)">
        <path id="Path_52" data-name="Path 52" d="M122.135,59.3c-.064,0-.129.064-.257.064a19.307,19.307,0,0,1-22.95-14.785,20.808,20.808,0,0,1-.386-5.657.966.966,0,0,0-1.929-.129v.386L87.1,48.054l12.021,3.664L96.55,63.739l12.15-3.857,4.757,11.571,7.907-10.093c.321-.064.579-.129.9-.193.129,0,.257-.064.386-.064a.958.958,0,0,0,.707-1.157A1.084,1.084,0,0,0,122.135,59.3ZM96.55,41.818A18.418,18.418,0,0,0,97,45.032,22.447,22.447,0,0,0,98.543,49.6l-7.65-2.379Zm4.243,11.443a20.588,20.588,0,0,0,5.464,5.078l.386.193L99.121,60.91Zm13.178,14.464-2.893-7.071a21.025,21.025,0,0,0,6.621,1.093h.964Z" transform="translate(-87.1 -37.89)" fill="#231916"/>
        <path id="Path_53" data-name="Path 53" d="M188.935,105.474a.9.9,0,0,0-1.286-.45l-.129.064c-.064,0-.064.064-.129.064A19.334,19.334,0,0,1,162.064,95a18.039,18.039,0,0,1-1.414-5.464.973.973,0,0,0-1.929.257c0,.129.064.257.064.386L151.2,100.653,163.671,102l-.257,12.278,11.186-6.043,6.814,10.478,5.914-11.378c.257-.129.579-.193.836-.321.064-.064.193-.064.257-.129l.064-.064A1.158,1.158,0,0,0,188.935,105.474Zm-29.7-12.857a23.864,23.864,0,0,0,1.029,3.021,20.633,20.633,0,0,0,2.379,4.179l-7.971-.9Zm6.3,10.478a20.96,20.96,0,0,0,6.75,4.114l-6.943,3.729Zm15.621,11.7-4.178-6.428a20.218,20.218,0,0,0,2.828.193,21.135,21.135,0,0,0,4.886-.579Z" transform="translate(-109.994 -56.033)" fill="#231916"/>
      </g>
      <g id="Group_175" data-name="Group 175" transform="translate(8.384 25.714)">
        <path id="Path_54" data-name="Path 54" d="M138.37,134.085A54.544,54.544,0,0,1,48.95,71.6c.643-.9,1.35-1.8,1.993-2.7a56.061,56.061,0,0,0-5.207,6.364,55.445,55.445,0,1,0,98.548,47.763A52.493,52.493,0,0,1,138.37,134.085Z" transform="translate(-28.021 -68.9)" fill="#231916"/>
        <path id="Path_55" data-name="Path 55" d="M135.249,141.342a59.279,59.279,0,1,1-97.2-67.885c.707-1.029,1.414-1.993,2.186-2.957a60.268,60.268,0,1,0,93.148,75.984,61.789,61.789,0,0,0,8.293-17.1,61.52,61.52,0,0,1-6.428,11.957Z" transform="translate(-23.742 -69.471)" fill="#231916"/>
        <path id="Path_56" data-name="Path 56" d="M157.993,133.8,153.3,175.135l5.85-3.793Z" transform="translate(-70.014 -92.079)" fill="#231916"/>
        <path id="Path_57" data-name="Path 57" d="M48.6,115.214,83.635,89.5l50.978,34.135L84.085,96.893Z" transform="translate(-32.62 -76.257)" fill="#231916"/>
        <path id="Path_58" data-name="Path 58" d="M109.007,176.871V133.8H83.1v35.678C91.071,173.464,100.071,176.678,109.007,176.871Z" transform="translate(-44.942 -92.079)" fill="#231916"/>
      </g>
    </g>
    <g id="Group_177" data-name="Group 177" transform="translate(0.426 168.337)">
      <path id="Path_59" data-name="Path 59" d="M13.736,268.933c1.864.707,2.507,1.093,2.507,1.35,0,.129-.129.193-.386.257l-.643.193a45.352,45.352,0,0,1-5.4,5.657c1.929,1.35,2.636,2.829,2.636,3.986a1.644,1.644,0,0,1-1.607,1.8,1.607,1.607,0,0,1-.9-.257c-.129,0-.193-.064-.257-.257A24.754,24.754,0,0,0,3.708,274.4c-.193-.129-.193-.257-.064-.321a.354.354,0,0,1,.321-.129,17.337,17.337,0,0,1,4.821,1.736c.964-1.929,2.121-4.436,3.021-6.814H6.344a29.087,29.087,0,0,0-4.757.45c-.193,0-.257,0-.321-.193l-.579-1.157c-.064-.193,0-.321.193-.321,1.35.129,2.7.193,4.05.257H13.8a40.011,40.011,0,0,0-.321-5.657c0-.193.064-.321.257-.257,3.15.771,3.986,1.093,3.986,1.414,0,.064-.064.193-.257.321l-.579.386V267.9H24.6l.9-1.286c.514-.643.9-1.35,1.157-1.35.386,0,3.536,2.571,3.536,3.021,0,.386-.386.514-.836.514l-15.621.129ZM24.343,287.64a35.718,35.718,0,0,0-4.179-5.336c-.129-.129-.129-.257,0-.321a.815.815,0,0,1,.386-.064c6.621,2.636,8.871,6.493,8.871,8.807,0,1.286-.643,2.121-1.607,2.121a2.055,2.055,0,0,1-1.221-.45.344.344,0,0,1-.193-.257,15.568,15.568,0,0,0-1.607-3.729c-4.564.964-10.864,1.929-20.057,3.214a1.666,1.666,0,0,1-.707.643c-.129.064-.257,0-.321-.193l-1.607-3.6c-.064-.193,0-.321.193-.321,1.671,0,4.05,0,6.943-.064a114.121,114.121,0,0,0,7.65-10.736,28.671,28.671,0,0,0,2.7-5.464c.064-.193.193-.257.386-.129,3.214,1.414,4.05,1.929,4.05,2.25,0,.064-.129.193-.321.257l-.643.193A85.421,85.421,0,0,1,10.586,288.09c3.921-.064,8.678-.257,13.757-.45Z" transform="translate(-0.662 -261.902)" fill="#231916"/>
      <path id="Path_60" data-name="Path 60" d="M68,273.871v10.35c.064,3.857.129,5.207.257,7.586a.58.58,0,0,1-.064.321,3.364,3.364,0,0,1-2.7,1.221c-.514,0-.9-.321-.9-.643.193-2.829.321-4.307.386-8.614v-13.95a50.823,50.823,0,0,0-.386-6.429c-.064-.193.064-.257.257-.193l3.214,1.414h5.014l.579-.836c.321-.45.579-.9.836-.9a8.819,8.819,0,0,1,2.764,2.314c.064.064.064.193-.064.321a2.159,2.159,0,0,1-1.093.45v2.7c.064,2.636.129,3.536.193,5.078a1.086,1.086,0,0,1-.129.321,4.157,4.157,0,0,1-2.443.9h-.193c-.193,0-.257-.064-.257-.257v-1.157Zm0-7.971v2.957h5.4V265.9Zm0,3.857v3.15h5.4v-3.15Zm24.235-4.178c.064.064.064.193-.064.321a2.446,2.446,0,0,1-1.157.579v22.95c0,2.25-.386,3.536-3.471,3.857-.193,0-.321-.064-.321-.257a4.1,4.1,0,0,0-.514-1.993,2.676,2.676,0,0,0-1.864-.964.376.376,0,0,1-.257-.064v-.064a1.868,1.868,0,0,0-.9,1.479c-.064.193-.129.257-.321.193A9.969,9.969,0,0,1,78.6,284.8h-.193c-.836,3.021-2.829,5.336-8.421,6.943a.7.7,0,0,1-.386-.064l-.064-.064c-.129-.129-.064-.257.129-.386,4.05-1.736,5.528-3.793,6.107-6.364H73.848a18.286,18.286,0,0,0-3.279.386c-.193,0-.257,0-.321-.129l-.579-1.157c-.129-.193,0-.321.193-.321,1.35.129,2.7.193,3.986.257H75.9c.129-.964.129-1.993.193-3.086H74.233a17.574,17.574,0,0,0-3.214.386c-.193,0-.257,0-.321-.129l-.579-1.157c-.129-.193,0-.321.257-.321.9.064,1.864.193,2.764.193h1.479a1.293,1.293,0,0,1-.514-.257.354.354,0,0,1-.193-.321,7.2,7.2,0,0,0-1.414-3.278c-.129-.193-.129-.257,0-.321a.41.41,0,0,1,.386,0c2.507.707,3.407,1.928,3.407,2.893a1.36,1.36,0,0,1-.9,1.35H78.8a15.386,15.386,0,0,0,1.157-4.564h-.129a.605.605,0,0,1-.643-.643c.129-1.029.129-1.607.193-3.15v-1.929a49.263,49.263,0,0,0-.321-5.528c-.064-.193.064-.321.257-.257l3.021,1.35H87.54l.643-.836c.386-.45.643-.9.9-.9.514-.193,2.764,1.479,3.15,2.186Zm-4.307,8.293H82.269v.386c0,.257-1.029.771-2.057.9,2.443.771,3.15,1.157,3.15,1.414,0,.129-.129.193-.321.257l-.579.193a18.677,18.677,0,0,1-2.764,2.764h2.121l.579-.836c.321-.386.579-.836.836-.836a6.435,6.435,0,0,1,2.379,1.929c.064.129.064.193-.064.321a.777.777,0,0,1-.771.386H78.8c-.064,1.157-.193,2.121-.321,3.086H82.2l.579-.9c.321-.45.579-.9.836-.9a8.032,8.032,0,0,1,2.571,2.057c.064.129.064.193-.064.321a.842.842,0,0,1-.771.386H79.183c.836,1.736,2.7,3.343,6.107,4.307a.235.235,0,0,1,.257.257c-.064.193-.064.193-.129.257H85.29c.707,0,1.671.064,1.929.064.514,0,.579-.193.579-.643l.129-15.171Zm0-5.014V265.9H82.269v2.957Zm0,4.05v-3.15H82.269v3.15Z" transform="translate(-23.489 -262.34)" fill="#231916"/>
      <path id="Path_61" data-name="Path 61" d="M149.322,281.493c.45-.579.836-1.221,1.157-1.221a10.879,10.879,0,0,1,3.214,2.7.58.58,0,0,1,.064.321.884.884,0,0,1-.836.386H140.708c2.507,3.857,7.328,5.336,13.114,5.85.193,0,.257.064.257.193a.235.235,0,0,1-.257.257,3.483,3.483,0,0,0-1.993,2.636c-.064.193-.193.257-.321.193-5.85-1.35-9.578-3.728-11.571-9.064h-.45c-1.093,4.307-4.05,7.328-14.914,9.257a.3.3,0,0,1-.321-.193l-.064-.064c-.064-.193,0-.321.193-.321,7.907-2.314,10.671-5.014,11.764-8.678h-6.107a29.094,29.094,0,0,0-4.757.45c-.193,0-.257,0-.321-.193l-.579-1.157c-.129-.193,0-.321.257-.321,1.35.129,2.636.193,3.986.257h7.714a11.26,11.26,0,0,0,.257-2.571c0-.45-.064-.9-.064-1.35-.064-.193.129-.321.321-.257,3.214.257,4.114.514,4.114.771,0,.064-.129.193-.257.257l-.514.386c-.064.964-.257,1.929-.386,2.764h8.743l.771-1.286Zm-.514-5.464c.45-.579.771-1.221,1.029-1.221a10.714,10.714,0,0,1,3.15,2.7.292.292,0,0,1,0,.321.842.842,0,0,1-.771.386H130.679a29.094,29.094,0,0,0-4.757.45c-.193,0-.257,0-.321-.193l-.579-1.157c-.129-.193-.064-.321.193-.321,1.35.129,2.636.193,3.986.257h7.971v-3.921H133.7a29.088,29.088,0,0,0-4.757.45c-.193,0-.257,0-.321-.193l-.579-1.157c-.064-.193,0-.321.193-.321,1.35.129,2.7.193,4.05.257h4.886v-3.728h-5.207a29.094,29.094,0,0,0-4.757.45c-.193,0-.257,0-.321-.193l-.579-1.157c-.129-.193-.064-.321.193-.321,1.35.129,2.636.193,3.986.257h10.671a21.506,21.506,0,0,0,1.736-5.593c.064-.193.129-.257.321-.193,3.021,1.029,3.857,1.479,3.857,1.736,0,.064-.064.129-.257.193l-.579.193a39.049,39.049,0,0,1-4.05,3.664H147.2l.771-1.157c.45-.579.771-1.221,1.029-1.221a9.693,9.693,0,0,1,3.15,2.636.292.292,0,0,1,0,.321c-.129.257-.386.386-.836.386H140.193v3.729h5.336l.771-1.093c.45-.579.771-1.157,1.029-1.157a9.475,9.475,0,0,1,3.021,2.507.292.292,0,0,1,0,.321.842.842,0,0,1-.771.386h-9.386v3.921h7.714l.9-1.221ZM131.386,262.4a.283.283,0,0,1,.321-.064c3.471.643,4.693,2.25,4.693,3.536a1.664,1.664,0,0,1-1.607,1.736,1.3,1.3,0,0,1-1.029-.386.353.353,0,0,1-.193-.321,10.57,10.57,0,0,0-2.121-4.243.159.159,0,0,1-.064-.257Z" transform="translate(-44.771 -261.863)" fill="#231916"/>
      <path id="Path_62" data-name="Path 62" d="M197.912,263.091l2.314.386c1.479,0,1.929.193,1.929.45a.756.756,0,0,1-.321.386l-.579.386c.707,12.343,3.6,20.443,14.335,25.071.193.064.257.193.193.257-.064.129-.064.193-.257.257a3.61,3.61,0,0,0-2.7,2.7c-.064.193-.193.257-.321.129-8.1-4.629-10.543-12.278-11.443-22.5-.579,8.228-2.829,16.65-14.335,22.628-.193.064-.257.064-.386-.064l-.064-.064a.3.3,0,0,1,.064-.386c9.321-6.75,11.186-14.785,11.571-22.95a11.377,11.377,0,0,0,.064-1.479,27.994,27.994,0,0,0-.321-4.821c-.064-.321.064-.45.257-.386Z" transform="translate(-66.94 -262.296)" fill="#231916"/>
    </g>
    <g id="Group_178" data-name="Group 178" transform="translate(0 0)">
      <path id="Path_63" data-name="Path 63" d="M5.593,59.529l.707.45-.964,1.607.257-.193c.064.064,0,.129-.064.257.193.321.386.707.579,1.093l1.157-1.864.707.45-1.8,2.957c.064.064.064.129,0,.257l.707.45,1.736-2.764.707.45L7.65,65.443,9,66.278l-.643.707-1.35-.836L5.4,68.786l-.707-.45L6.3,65.7l-.836-.514L3.536,68.271l-.707-.45,1.093-1.8a8.711,8.711,0,0,0-1.286-.129l.129-.321-1.093,1.8-.707-.45,2.057-3.279-.836-.514L.707,65.571,0,65.186l1.543-2.443-.836-.514.643-.964c.064.064.064.129,0,.257l.643.386L3.536,59.4l.707.45L2.7,62.357l.836.514,2.057-3.343Zm0,3.921h0c-.193-.321-.514-.771-.771-1.157L3.086,65.121a8.023,8.023,0,0,1,1.35.129l-.064.129L5.593,63.45Z" transform="translate(0 -21.215)" fill="#231916"/>
      <path id="Path_64" data-name="Path 64" d="M17.871,45.971c1.029.9,1.993,1.736,1.157,2.7a2.938,2.938,0,0,1-1.221.836,4.5,4.5,0,0,0-.514-.643,2.831,2.831,0,0,0,1.029-.643.489.489,0,0,0,0-.643,10.194,10.194,0,0,0-1.157-1.093c-.514.836-1.093,1.736-1.479,2.443,2.25,1.929,2.7,2.314,3.729,1.157.129-.129.193-.257.321-.386a15.61,15.61,0,0,0,1.543-2.057l.707.579a20.259,20.259,0,0,1-1.543,1.929c-.964,1.157-1.929,2.186-3.664.964-.386-.321-1.029-.771-1.671-1.35-.321.514-.707,1.221-.9,1.607l-.771-.514c.257-.386.643-1.093,1.029-1.671-.643-.514-1.35-1.157-1.864-1.543l.9-.9a.287.287,0,0,1,0,.321c.386.321.964.836,1.479,1.286l1.479-2.443c-.643-.514-1.35-1.093-1.929-1.543l.836-.9c.064.064.064.129,0,.321.514.386,1.093.836,1.607,1.286.386-.643.771-1.221,1.029-1.671l.771.514c-.386.514-.771,1.157-1.221,1.8l.321.257Z" transform="translate(-4.5 -15.5)" fill="#231916"/>
      <path id="Path_65" data-name="Path 65" d="M33.536,31.536h0c-.064.064-.129.129-.193.129-.386.643-.964,1.543-1.35,2.25l.514.514a6.733,6.733,0,0,1,.514.707l-.707.707c-.257-.321-.579-.771-.771-1.029-.386.9-.579,1.8-.257,2.186s.9.129,1.8-.643a23.048,23.048,0,0,0,1.736-1.607l.579.643c-.386.386-1.029.964-1.8,1.607-1.414,1.221-2.379,1.414-3.086.579-.514-.643-.257-1.929.321-3.407-.321-.321-.643-.386-.9-.193a2.927,2.927,0,0,0-.836,2.379c0,.386-.064.9-.129,1.479l-.964-.064a8.793,8.793,0,0,0,.129-1.8,6.75,6.75,0,0,0-.514-2.25l-.321.321c-.321.257-.836.707-1.221.964l-.579-.643c.45-.321.964-.771,1.286-1.029l.45-.386a8.024,8.024,0,0,0-.707-1.157l1.029-.707c.064.064,0,.193-.064.257a5.878,5.878,0,0,1,.45.9A10.406,10.406,0,0,0,29.936,29.8l.707.579a15.476,15.476,0,0,1-2.379,2.636,6.8,6.8,0,0,1,.45,1.414h0a2.221,2.221,0,0,1,.771-1.35,1.286,1.286,0,0,1,1.671.129c.386-.771.836-1.671,1.221-2.379l1.157.707Z" transform="translate(-9.107 -10.643)" fill="#231916"/>
      <path id="Path_66" data-name="Path 66" d="M43.414,19.85l2.764,4.5-1.607.964.45.771-.707.45L41.1,21.264Zm-.257,1.157-.9.579,1.864,3.086.9-.579Zm7.328-1.093.45.707-2.186,1.35,1.221,2.057c.514.836.193,1.157-1.221,1.993a3.093,3.093,0,0,0-.707-.579c.321-.193.579-.321.771-.45.45-.321.514-.321.386-.514l-1.221-1.993-2.057,1.221L45.471,23l2.057-1.221-1.671-2.764c-.514.45-1.093.9-1.607,1.286a4.159,4.159,0,0,0-.579-.514A29.731,29.731,0,0,0,47.143,16.7l1.029.193c0,.064-.064.064-.129.129a.063.063,0,0,0-.064.064c-.321.386-.771.771-1.221,1.221,0,.064,0,.129-.129.257L48.3,21.328l2.186-1.414Zm-4.307,2.379a7.281,7.281,0,0,0-1.8-1.543l.514-.643a6.148,6.148,0,0,1,1.8,1.543C46.757,21.586,46.178,22.293,46.178,22.293Zm2.893-4.5c0,.064-.064.129-.129.193a15.9,15.9,0,0,1,.321,2.443l-.771.129a17.359,17.359,0,0,0-.514-2.507l1.093-.257Z" transform="translate(-14.679 -5.964)" fill="#231916"/>
      <path id="Path_67" data-name="Path 67" d="M62.229,9.679a9.616,9.616,0,0,0,3.793-.321l.129.9c-.129.064-.257.064-.386.129a2,2,0,0,0-.964,1.157h-.836a3.489,3.489,0,0,1,.579-.964,7.757,7.757,0,0,1-2.443,0l.129-.9Zm.064,7.264a21.319,21.319,0,0,0,1.479-2.571l.707.45c-.386.771-.9,1.8-1.221,2.379a.287.287,0,0,1,0,.321A7.653,7.653,0,0,1,62.293,16.943Zm2.443-4.757a1.277,1.277,0,0,0,.064.707c.129.321.45.514,1.157.643a2.443,2.443,0,0,1,1.8,1.286,1.543,1.543,0,0,1-.9,2.057,3.523,3.523,0,0,1-1.929.129c0-.257-.064-.514-.064-.771a3.438,3.438,0,0,0,1.607-.129.656.656,0,0,0,.45-.964,1.724,1.724,0,0,0-1.414-.9c-.771-.193-1.221-.45-1.414-.964a2.677,2.677,0,0,1-.129-1.093C63.9,12.25,64.8,12.186,64.736,12.186Zm1.157-3.857A7.49,7.49,0,0,1,67.5,9.1l-.321.514a4.159,4.159,0,0,0-1.607-.771l.321-.514ZM66.857,7.3a5.338,5.338,0,0,1,1.607.771l-.321.514a5.338,5.338,0,0,0-1.607-.771l.321-.514Zm.257,4.886a4.306,4.306,0,0,1,3.343,1.543l-.643.771a4.006,4.006,0,0,0-2.957-1.479l.257-.836Z" transform="translate(-22.179 -2.607)" fill="#231916"/>
      <path id="Path_68" data-name="Path 68" d="M83.05,6.707l-.129-.643-3.729.9L79,6.193l2.314-.579-.193-.836-1.607.386-.193-.771,1.607-.386-.193-.771,1.157-.193q0,.1-.193.193l.129.579L83.886,3.3l-.193-.771L84.786,2.4q0,.1-.193.193l.129.579,1.671-.386.193.771-1.671.386.193.771,2.314-.579.193.771-3.857.9.129.643,2.893-.707.771,3.279-6.557,1.543L80.286,7.35l2.764-.643Zm.771,3.921c0,.064-.064.064-.193.129a14.076,14.076,0,0,1-2.507,1.8,8.028,8.028,0,0,0-.771-.514,11.375,11.375,0,0,0,2.507-1.736ZM81.25,7.8l.193.707,1.929-.45-.193-.707Zm.321,1.286.193.707,1.929-.45L83.5,8.636l-1.929.45Zm.386-4.436.193.836,2.057-.514-.193-.836Zm4.114,1.993-2.057.514.193.707L86.2,7.35l-.129-.707Zm.514,1.993-.193-.707L84.4,8.443l.193.707,1.993-.514Zm-.964.964a31.6,31.6,0,0,1,3.214.386l-.643.771a15.939,15.939,0,0,0-3.021-.45Z" transform="translate(-28.215 -0.857)" fill="#231916"/>
      <path id="Path_69" data-name="Path 69" d="M101.007,7.393c.064.579.257.707,1.286.643l3.6-.257c.9-.064,1.029-.321,1.093-1.479a2.384,2.384,0,0,0,.9.257c-.064,1.479-.386,1.929-1.864,2.057l-3.6.257c-1.671.129-2.186-.129-2.314-1.414l-.321-3.986a4.161,4.161,0,0,1-.579.514,2.01,2.01,0,0,0-.707-.579A8.685,8.685,0,0,0,101.071,0l1.157.129c0,.064-.064.129-.257.129l-.129.386,2.25-.193.129-.064.707.386c-.064.064-.129.064-.193.129-.193.386-.45.9-.707,1.35l2.636-.193.257,3.6-.964.064-.064-.386-5.207.386.321,1.671Zm2.057-5.078a8.294,8.294,0,0,0,.579-1.029l-2.25.193a5.365,5.365,0,0,1-.771,1.029Zm-2.379,1.029.129,1.543,2.057-.129-.129-1.543ZM106.021,4.5l-.129-1.543-2.186.193.129,1.543,2.186-.193Z" transform="translate(-35.18 0)" fill="#231916"/>
      <path id="Path_70" data-name="Path 70" d="M121.307,1.386c0,.064-.129.129-.257.129a14.463,14.463,0,0,0-.386,2.571c-.193,2.636.579,3.214,1.093,3.279.386,0,.9-.9,1.221-1.8a3.73,3.73,0,0,0,.771.643c-.707,1.671-1.35,2.25-2.057,2.186-1.35-.129-1.993-1.864-1.993-3.536a8.2,8.2,0,0,1,.064-1.221A18.615,18.615,0,0,1,120.15,1l1.157.386ZM126.836,6.4a4.766,4.766,0,0,0-2.057-3.729l.643-.643a5.3,5.3,0,0,1,2.443,4.114l-1.029.257Z" transform="translate(-42.751 -0.357)" fill="#231916"/>
      <path id="Path_71" data-name="Path 71" d="M144.413,5.564a8.724,8.724,0,0,1-1.8-.064l-.386,1.543a7.2,7.2,0,0,1,2.057.064c1.543.386,2.443,1.479,2.121,2.893a2.164,2.164,0,0,1-2.829,1.736,2.245,2.245,0,0,1-1.607-1.286c.193-.193.45-.386.643-.579A1.8,1.8,0,0,0,143.77,10.9a1.337,1.337,0,0,0,1.671-1.093c.193-.836-.257-1.543-1.35-1.864a6.753,6.753,0,0,0-1.993-.064c-.193.707-.386,1.736-.45,1.993a1.524,1.524,0,0,1-1.993,1.157A1.561,1.561,0,0,1,138.37,9.1c.129-.643.707-1.157,1.607-1.543a4.676,4.676,0,0,1,1.35-.386l.45-1.8c-.643-.129-1.35-.257-2.186-.45l.193-.9a16.573,16.573,0,0,0,2.186.45l.386-1.671,1.221.321c-.064.129-.129.193-.321.129-.129.321-.257.836-.386,1.286a7.261,7.261,0,0,0,1.671,0l-.129,1.029ZM141.07,8.007c-.321.064-1.671.386-1.864,1.221a.722.722,0,0,0,.579.964c.45.129.771-.064.9-.643.064-.257.257-.9.386-1.543Zm5.786-.771a9.532,9.532,0,0,0-1.8-1.8l.643-.643a10.453,10.453,0,0,1,1.929,1.8A8.16,8.16,0,0,0,146.856,7.236Z" transform="translate(-49.4 -1)" fill="#231916"/>
      <path id="Path_72" data-name="Path 72" d="M165.671,13.957l-.707,1.8-.643-.257-.707,1.671c-.321.707-.643.643-1.607.257a2.882,2.882,0,0,0,.064-.771c.771.321.771.321.836.193l.579-1.35-1.029-.45-1.093,2.7-.771-.321,1.093-2.7-.964-.386-.836,2.057-.707-.321.964-2.379-.579-.257.257-.643-.964-.064-1.029,2.443c-.321.707-.643.9-1.929.321a2.064,2.064,0,0,0,.064-.9,4.425,4.425,0,0,1,.514.193c.45.193.45.193.514,0l.9-2.186c-.321,0-.643-.064-.9-.064-.064.064-.129.129-.193.064l.129-1.029c.386.064.771.129,1.286.193l.707-1.8-1.029-.45.321-.771,1.029.45.707-1.8.964.45c-.064.064-.129.064-.257.064l-.643,1.607.964.386-.321.771-.964-.386L159.05,11.9l.9.129-.064.257h0l.257-.643,5.528,2.314Zm-1.35,1.157.321-.771-3.921-1.607-.321.771,1.543.643.257-.643.9.45c-.064.064-.129.064-.257.064l-.193.45,1.671.643Zm2.121-4.628-1.157,2.893-4.371-1.8.257-.643,3.6,1.479.193-.514-3.343-1.35.257-.579,3.343,1.35.193-.514-3.471-1.414.257-.643,4.243,1.736Z" transform="translate(-55.68 -2.643)" fill="#231916"/>
      <path id="Path_73" data-name="Path 73" d="M179.657,17.457l.321.579c-.064.064-.064.064-.129.064-.579.514-1.414,1.221-2.057,1.736a2.873,2.873,0,0,1-.257,2.186c-.771,1.286-1.543.707-2.121.386a1.527,1.527,0,0,0,.193-.771,1.612,1.612,0,0,0,.45.257c.257.129.514.129.771-.386a2.649,2.649,0,0,0,.193-1.993c.579-.45,1.221-1.093,1.736-1.543l-.9-.579-4.05,6.686-.707-.386,4.436-7.393,1.929,1.157ZM178.5,23.564a.486.486,0,0,1-.257-.064,7.8,7.8,0,0,1-2.314,1.157,3.623,3.623,0,0,0-.257-.771,5.583,5.583,0,0,0,2.121-1.093l.707.771Zm3.536,1.286-1.864-1.157-1.35,2.25c-.45.707-.771.643-1.929,0a2.054,2.054,0,0,0,.193-.9,2.255,2.255,0,0,0,.514.321l.321.193c.064.064.129.064.193-.064l1.35-2.186-1.736-1.029.386-.643,1.736,1.029.579-.9-1.157-.707.386-.579a6.237,6.237,0,0,1-1.093.064v-.836a7.663,7.663,0,0,0,3.729-1.029l.9.579a.236.236,0,0,1-.193.064,8.917,8.917,0,0,0,1.029,3.6,4.847,4.847,0,0,0-.836.386c-.129-.321-.257-.579-.386-.964l-.386.579-1.221-.707-.579.9,1.864,1.157-.45.579Zm.579-2.7a10.572,10.572,0,0,1-.514-2.636,10.393,10.393,0,0,1-2.507.836Zm-2.507,4.95a10.5,10.5,0,0,0,.064-2.507l.771.064a10.836,10.836,0,0,1,0,2.507Z" transform="translate(-61.823 -5.822)" fill="#231916"/>
      <path id="Path_74" data-name="Path 74" d="M193.693,37.043l2.443,2.057-.45.579-5.464-4.628.45-.579,2.379,1.993.514-.643-1.8-1.479.45-.579,1.8,1.479.45-.514c-.707-.514-1.286-1.029-1.8-1.414a.121.121,0,0,1-.193,0l.321-.836.836.707a4.482,4.482,0,0,0,1.093-.386l-1.35-1.157a10.5,10.5,0,0,1-4.05,3.021,5.04,5.04,0,0,0-.321-.9,11.061,11.061,0,0,0,4.243-3.343l1.8-2.121,5.464,4.628-1.543,1.8-4.757-4.05-.386.45,5.078,4.307-.45.579-1.479-1.286a8.558,8.558,0,0,1,.45,2.379l-.9-.129a2.413,2.413,0,0,0-.064-.643c-.386-.321-.836-.643-1.221-.964-.064,0-.064,0-.129-.064l-.386.514,1.8,1.543-.45.579-1.8-1.543-.579.643Zm3.021-2.443-1.286-1.093a4.986,4.986,0,0,1-1.157.321c.643.514,1.286,1.093,1.993,1.607l-.193-.964.643.129Zm2.571-1.671-4.114-3.471-.579.643,4.114,3.471Z" transform="translate(-67.502 -10.107)" fill="#231916"/>
      <path id="Path_75" data-name="Path 75" d="M208.537,52.407c-.321-.321-.643-.771-1.157-1.35-1.414-1.671-1.671-3.15-.771-3.921a2.313,2.313,0,0,1,1.8-.45l.064.9a1.579,1.579,0,0,0-1.157.193c-.643.514-.129,1.543.836,2.636.514.579.9,1.029,1.221,1.35l-.836.643Zm5.85-2.7a15.4,15.4,0,0,1-2.314-1.993,3.353,3.353,0,0,0-.643,2.829H210.4a2.907,2.907,0,0,0-.9-2.057l.45-.643c.257.321.45.643.579.836a4.463,4.463,0,0,1,.836-1.671c-.257-.321-.643-.643-.964-1.029-.386-.45-1.093-1.286-1.479-1.8l.707-.579c.321.45.836,1.029,1.479,1.8a11.5,11.5,0,0,0,.836.9c.321-.45.771-.964,1.221-1.479L214,45.85c-.064.064-.193.064-.321-.064-.386.386-.707.771-1.029,1.157a16.64,16.64,0,0,0,2.443,1.993l-.707.771Z" transform="translate(-73.603 -15.572)" fill="#231916"/>
      <path id="Path_76" data-name="Path 76" d="M215.8,62.964c1.929-.45,5.528-1.286,6.493-1.479.579-.129,1.414-.321,1.671-.386l.45,1.35a.556.556,0,0,1-.386-.193c-1.157.193-3.407.643-4.371.836h0a2.7,2.7,0,0,1,1.864,1.157c.45.707.193,1.35-.579,1.8a9.675,9.675,0,0,0-1.093.643c-.514.321-.643.771-.386,1.157.45.707,1.543.771,3.15.257v1.029c-1.864.514-3.343.321-4.05-.836a1.619,1.619,0,0,1,.45-2.379l.964-.579.129-.064c.45-.257.579-.579.386-.9-.514-.836-2.314-.964-3.086-.771-.386.064-.964.193-1.479.321l-.129-.964Z" transform="translate(-77.074 -21.822)" fill="#231916"/>
    </g>
  </g>
</svg>
