<svg xmlns="http://www.w3.org/2000/svg" width="472.735" height="484.216" viewBox="0 0 472.735 484.216">
  <g id="Group_197" data-name="Group 197" transform="translate(-853.751 -8987.064)" opacity="0.2">
    <g id="Group_174" data-name="Group 174" transform="translate(1014.547 8987.064)">
      <path id="Path_52" data-name="Path 52" d="M225.412,122.424c-.254,0-.508.254-1.015.254a76.221,76.221,0,0,1-90.6-58.37,82.14,82.14,0,0,1-1.523-22.333,3.815,3.815,0,0,0-7.613-.508V42.99L87.1,78.012l47.457,14.465-10.151,47.457,47.965-15.227,18.78,45.68,31.215-39.844c1.269-.254,2.284-.508,3.553-.761.508,0,1.015-.254,1.523-.254a3.783,3.783,0,0,0,2.792-4.568A4.278,4.278,0,0,0,225.412,122.424ZM124.406,53.4a72.716,72.716,0,0,0,1.776,12.689A88.622,88.622,0,0,0,132.273,84.1l-30.2-9.39Zm16.75,45.173a81.276,81.276,0,0,0,21.572,20.049l1.523.761-29.692,9.39Zm52.025,57.1-11.42-27.916a83,83,0,0,0,26.14,4.314h3.807Z" transform="translate(-87.1 -37.89)" fill="#fff742"/>
      <path id="Path_53" data-name="Path 53" d="M300.17,154.953a3.543,3.543,0,0,0-5.076-1.776l-.508.254c-.254,0-.254.254-.508.254a76.328,76.328,0,0,1-99.99-40.1,71.208,71.208,0,0,1-5.583-21.571,3.84,3.84,0,0,0-7.613,1.015c0,.508.254,1.015.254,1.523L151.2,135.92l49.234,5.329-1.015,48.472,44.158-23.855,26.9,41.366,23.348-44.919c1.015-.508,2.284-.761,3.3-1.269.254-.254.761-.254,1.015-.508l.254-.254A4.572,4.572,0,0,0,300.17,154.953ZM182.923,104.2a94.212,94.212,0,0,0,4.06,11.928,81.448,81.448,0,0,0,9.39,16.5L164.9,129.068Zm24.871,41.366a82.747,82.747,0,0,0,26.647,16.242l-27.409,14.719Zm61.669,46.188-16.5-25.378a79.821,79.821,0,0,0,11.166.761,83.435,83.435,0,0,0,19.288-2.284Z" transform="translate(11.475 40.228)" fill="#fff742"/>
    </g>
    <g id="Group_175" data-name="Group 175" transform="translate(853.751 9065.763)">
      <path id="Path_54" data-name="Path 54" d="M440.957,326.233c-68.014,97.452-202.265,121.307-299.717,53.04C43.788,311.26,19.932,177.01,87.946,79.559c2.538-3.553,5.329-7.106,7.867-10.659A221.319,221.319,0,0,0,75.257,94.024C5.974,193,30.083,329.532,129.312,398.814c98.975,69.282,235.51,45.173,304.793-54.055a220.129,220.129,0,0,0,30.2-62.176A207.232,207.232,0,0,1,440.957,326.233Z" transform="translate(-5.321 -68.9)" fill="#fff742"/>
      <path id="Path_55" data-name="Path 55" d="M463.947,350.166c-74.1,105.826-219.776,131.712-325.857,57.862S6.377,188,80.228,82.174c2.792-4.061,5.583-7.867,8.629-11.674A238.551,238.551,0,0,0,66.524,97.908C-8.6,205.511,17.8,353.973,125.4,429.092s255.813,48.98,331.186-58.623a243.925,243.925,0,0,0,32.738-67.506,242.868,242.868,0,0,1-25.378,47.2Z" transform="translate(-23.742 -66.44)" fill="#fff742"/>
      <path id="Path_56" data-name="Path 56" d="M171.826,133.8,153.3,296.981l23.094-14.973Z" transform="translate(175.494 30.903)" fill="#fff742"/>
      <path id="Path_57" data-name="Path 57" d="M48.6,191.012,186.911,89.5l201.25,134.757L188.688,118.685Z" transform="translate(14.484 -37.221)" fill="#fff742"/>
      <path id="Path_58" data-name="Path 58" d="M185.374,303.833V133.8H83.1V274.648C114.569,290.383,150.1,303.071,185.374,303.833Z" transform="translate(67.539 30.903)" fill="#fff742"/>
    </g>
  </g>
</svg>
