<svg xmlns="http://www.w3.org/2000/svg" width="145" height="145" viewBox="0 0 145 145">
  <g id="Group_145" data-name="Group 145" transform="translate(5753 11987.865)">
    <rect id="Rectangle_64" data-name="Rectangle 64" width="145" height="145" transform="translate(-5753 -11987.865)" fill="#fff"/>
    <path id="Icon_metro-qrcode" data-name="Icon metro-qrcode" d="M44.035,10.221H10.864V43.392H44.035Zm8.293-8.293V51.685H2.571V1.928ZM19.156,18.514H35.742V35.1H19.156Zm107.807-8.293H93.792V43.392h33.171V10.221Zm8.293-8.293V51.685H85.5V1.928h49.757ZM102.084,18.514H118.67V35.1H102.084ZM44.035,93.149H10.864V126.32H44.035Zm8.293-8.293v49.757H2.571V84.856ZM19.156,101.442H35.742v16.586H19.156ZM60.62,1.928h8.293v8.293H60.62Zm8.293,8.293h8.293v8.293H68.913ZM60.62,18.514h8.293v8.293H60.62Zm8.293,8.293h8.293V35.1H68.913ZM60.62,35.1h8.293v8.293H60.62Zm8.293,8.293h8.293v8.293H68.913ZM60.62,51.685h8.293v8.293H60.62Zm0,16.586h8.293v8.293H60.62Zm8.293,8.293h8.293v8.293H68.913ZM60.62,84.856h8.293v8.293H60.62Zm8.293,8.293h8.293v8.293H68.913Zm-8.293,8.293h8.293v8.293H60.62Zm8.293,8.293h8.293v8.293H68.913Zm-8.293,8.293h8.293v8.293H60.62Zm8.293,8.293h8.293v8.293H68.913Zm58.05-58.05h8.293v8.293h-8.293Zm-116.1,0h8.293v8.293H10.864Zm8.293-8.293h8.293v8.293H19.156Zm-16.586,0h8.293v8.293H2.571Zm33.171,0h8.293v8.293H35.742Zm8.293,8.293h8.293v8.293H44.035Zm8.293-8.293H60.62v8.293H52.328Zm24.878,8.293H85.5v8.293H77.206ZM85.5,59.978h8.293v8.293H85.5Zm8.293,8.293h8.293v8.293H93.792Zm8.293-8.293h8.293v8.293h-8.293Zm8.293,8.293h8.293v8.293h-8.293Zm8.293-8.293h8.293v8.293H118.67Zm8.293,24.878h8.293v8.293h-8.293Zm-49.757,0H85.5v8.293H77.206ZM85.5,76.563h8.293v8.293H85.5Zm8.293,8.293h8.293v8.293H93.792Zm16.586,0h8.293v8.293h-8.293Zm8.293-8.293h8.293v8.293H118.67Zm8.293,24.878h8.293v8.293h-8.293Zm-49.757,0H85.5v8.293H77.206ZM85.5,93.149h8.293v8.293H85.5Zm16.586,0h8.293v8.293h-8.293Zm8.293,8.293h8.293v8.293h-8.293Zm8.293-8.293h8.293v8.293H118.67Zm8.293,24.878h8.293v8.293h-8.293ZM85.5,109.735h8.293v8.293H85.5Zm8.293,8.293h8.293v8.293H93.792Zm8.293-8.293h8.293v8.293h-8.293Zm8.293,8.293h8.293v8.293h-8.293ZM85.5,126.32h8.293v8.293H85.5Zm16.586,0h8.293v8.293h-8.293Zm16.586,0h8.293v8.293H118.67Z" transform="translate(-5749.879 -11984.244)"/>
  </g>
</svg>
