<svg xmlns="http://www.w3.org/2000/svg" width="391.372" height="225.007" viewBox="0 0 391.372 225.007">
  <g id="logo-white" transform="translate(0.5 0.507)">
    <path id="Path_103" data-name="Path 103" d="M45.973,40.5c-1.955.391-3.518.782-5.473,1.173A15.346,15.346,0,0,0,45.973,40.5Z" transform="translate(117.825 117.825)" fill="#fff" stroke="#f5881f" stroke-width="1"/>
    <path id="Path_104" data-name="Path 104" d="M46.9,38.2Z" transform="translate(136.444 111.133)" fill="#fff" stroke="#f5881f" stroke-width="1"/>
    <path id="Path_105" data-name="Path 105" d="M46.9,38.2Z" transform="translate(136.444 111.133)" fill="#fff" stroke="#f5881f" stroke-width="1"/>
    <path id="Path_106" data-name="Path 106" d="M61.446,38.3A59.361,59.361,0,0,1,41.9,47.291,63.946,63.946,0,0,0,61.446,38.3Z" transform="translate(121.898 111.424)" fill="#fff" stroke="#f5881f" stroke-width="1"/>
    <path id="Path_107" data-name="Path 107" d="M39.4,41.291c1.564,0,2.736-.391,4.3-.391a14.658,14.658,0,0,0-4.3.391Z" transform="translate(114.624 118.988)" fill="#fff" stroke="#f5881f" stroke-width="1"/>
    <g id="Group_38" data-name="Group 38" transform="translate(47.302 173.571)">
      <path id="Path_108" data-name="Path 108" d="M36.337,75.774V67.565h21.11V87.111a21.764,21.764,0,0,1-8.991,5.082,31.372,31.372,0,0,1-11.728,2.346,28.989,28.989,0,0,1-13.291-3.127,19.191,19.191,0,0,1-8.6-8.991,28.325,28.325,0,0,1-2.736-12.9,31.954,31.954,0,0,1,3.127-13.682,19.114,19.114,0,0,1,9.382-8.991A26.109,26.109,0,0,1,36.337,44.5c5.864,0,10.555,1.173,14.073,3.909,3.518,2.346,5.473,5.864,6.646,10.555l-9.773,1.955a9.516,9.516,0,0,0-3.909-5.473c-1.955-1.564-4.3-1.955-7.037-1.955-4.3,0-7.818,1.173-10.164,3.909s-3.909,6.646-3.909,12.119c0,5.864,1.173,10.164,3.909,12.9a13.553,13.553,0,0,0,10.164,4.3,17.706,17.706,0,0,0,6.255-1.173,24.925,24.925,0,0,0,5.473-3.127V76.165H36.337S36.337,75.774,36.337,75.774Z" transform="translate(-12.1 -44.109)" fill="#fff" stroke="#f5881f" stroke-width="1"/>
      <path id="Path_109" data-name="Path 109" d="M30.9,93.075V44.6H51.619c5.082,0,8.991.391,11.337,1.173a9.244,9.244,0,0,1,5.473,4.691,16.528,16.528,0,0,1,1.955,7.818,13.939,13.939,0,0,1-3.127,8.991c-1.955,2.346-5.473,3.909-9.773,4.3a28.685,28.685,0,0,1,5.082,3.909c1.564,1.564,3.127,4.3,5.473,7.819l6.255,9.773H62.565L55.528,82.52a40.74,40.74,0,0,0-5.082-7.037,5.372,5.372,0,0,0-3.127-1.955,17.641,17.641,0,0,0-5.082-.391H40.282V93.075Zm9.773-27.756H48.1c4.691,0,7.818-.391,8.991-.782a7.012,7.012,0,0,0,2.736-1.955A5.457,5.457,0,0,0,61,59.064a5.836,5.836,0,0,0-1.173-3.909c-.782-1.173-1.955-1.564-3.518-1.955H41.455V65.319Z" transform="translate(42.594 -43.818)" fill="#fff" stroke="#f5881f" stroke-width="1"/>
      <path id="Path_110" data-name="Path 110" d="M47.7,69.81A29.772,29.772,0,0,1,50.046,57.3a25.683,25.683,0,0,1,4.691-6.646,16.372,16.372,0,0,1,6.255-4.3A29.846,29.846,0,0,1,71.546,44.4c7.037,0,12.9,2.346,17.2,6.646S95,61.6,95,69.419s-1.955,14.073-6.255,18.373-9.773,6.646-17.2,6.646c-7.037,0-12.9-2.346-17.2-6.646S47.7,77.629,47.7,69.81Zm10.164-.391c0,5.473,1.173,9.773,3.909,12.51a12.706,12.706,0,0,0,9.773,4.3,13.323,13.323,0,0,0,9.773-4.3c2.346-2.736,3.909-7.037,3.909-12.51s-1.173-9.773-3.518-12.51a13.256,13.256,0,0,0-19.546,0C59.037,59.646,57.864,63.946,57.864,69.419Z" transform="translate(91.469 -44.4)" fill="#fff" stroke="#f5881f" stroke-width="1"/>
      <path id="Path_111" data-name="Path 111" d="M66.5,44.6h9.773V70.792c0,4.3,0,7.037.391,8.209a7.782,7.782,0,0,0,3.127,4.691,11.181,11.181,0,0,0,6.646,1.955c2.736,0,4.691-.391,6.255-1.564a6.409,6.409,0,0,0,2.736-4.3c.391-1.564.391-4.3.391-8.209V44.6h9.773V70.01a86.529,86.529,0,0,1-.782,12.51,13.545,13.545,0,0,1-3.127,6.255,15.465,15.465,0,0,1-5.864,3.909c-2.346,1.173-5.473,1.564-9.382,1.564-4.691,0-8.209-.391-10.555-1.564a16.328,16.328,0,0,1-5.864-4.3,10.423,10.423,0,0,1-2.736-5.473C66.5,80.174,66.5,75.874,66.5,70.4Z" transform="translate(146.163 -43.818)" fill="#fff" stroke="#f5881f" stroke-width="1"/>
      <path id="Path_112" data-name="Path 112" d="M83.9,93.075V44.6H99.537a66.644,66.644,0,0,1,11.728.782,14.063,14.063,0,0,1,7.037,4.691c1.955,2.346,2.736,5.473,2.736,9.382,0,3.127-.391,5.473-1.564,7.428a12.427,12.427,0,0,1-4.3,4.691,14.816,14.816,0,0,1-5.082,2.346,63.011,63.011,0,0,1-10.164.782H93.673V93.075Zm9.773-40.265V66.492h5.473a29.22,29.22,0,0,0,7.818-.782,6.079,6.079,0,0,0,3.127-2.346,6.6,6.6,0,0,0,1.173-3.909,5.339,5.339,0,0,0-1.564-4.3,8.111,8.111,0,0,0-3.909-2.346c-1.173-.391-3.518-.391-7.037-.391l-5.082.391Z" transform="translate(196.784 -43.818)" fill="#fff" stroke="#f5881f" stroke-width="1"/>
    </g>
    <path id="Path_113" data-name="Path 113" d="M148.942,10.7c-17.592,0-32.056,7.428-43,19.155C92.258,45.1,91.867,59.175,91.476,69.339c0,1.564-.391,2.736-.391,4.3h0c-3.518,22.283-22.674,28.538-32.056,28.538C40.656,102.176,25.8,87.712,25.8,69.73c0-22.674,19.155-32.838,31.274-32.838,7.428,0,13.682,1.173,21.11,6.646l12.51-23.065C85.613,17.346,75.449,10.7,57.857,10.7,24.628,10.7,0,39.238,0,70.121c0,31.274,24.628,59.03,58.639,59.03,11.337,0,32.447-4.691,45.738-22.283C110.241,99.049,114.932,88.1,116.1,74.03c.391-2.736.782-5.082,1.173-7.428,2.346-12.119,6.255-15.637,7.819-17.983,1.173-1.564,10.555-11.728,23.846-11.728,14.855,0,22.283,7.428,25.8,11.728l12.9-23.846C175.525,15,163.407,10.7,148.942,10.7Z" transform="translate(0 31.129)" fill="#fff" stroke="#f5881f" stroke-width="1"/>
    <path id="Path_114" data-name="Path 114" d="M296.193,67.239C285.247,51.993,268.437,42.22,246.936,42.22c-19.546,0-36.356,11.337-44.565,22.283s-12.119,21.11-12.51,37.138c0,3.909-.391,12.119-8.209,21.11-9.773,11.337-21.5,11.337-23.846,11.337-11.728,0-32.838-5.473-32.838-32.838a32.685,32.685,0,0,1,32.447-32.838c4.3,0,15.246,1.173,24.628,11.728,0,0,9.773-17.983,12.119-22.283s1.955-4.691,1.955-12.51V0L169.533.391v43a59.525,59.525,0,0,0-49.647,12.119,106.146,106.146,0,0,0-9.382,9.382h0a57.8,57.8,0,0,0-12.119,35.965c0,16.81-9.382,25.41-18.373,29.71A33.607,33.607,0,0,1,66.72,133.7,31.882,31.882,0,0,1,41.7,121.969s-11.728,21.5-12.9,23.846c8.209,6.646,21.11,14.073,38.311,14.073H71.02c1.564,0,2.736-.391,4.3-.391,1.955-.391,3.909-.782,5.473-1.173a52.4,52.4,0,0,0,19.546-8.991,63.793,63.793,0,0,0,7.818-6.646,28.519,28.519,0,0,0,3.518-3.909c10.946,12.9,26.583,21.11,44.956,21.11A58.032,58.032,0,0,0,202.371,138l2.346,2.346c0,.391.391.391.391.782l1.564,1.564.782.782,2.346,2.346a49.222,49.222,0,0,0,10.946,7.428c.391.391,1.173.391,1.564.782a57.487,57.487,0,0,0,24.628,5.473,55.057,55.057,0,0,0,7.819-.391h.782c.782,0,1.173-.391,1.955-.391h.782a58.322,58.322,0,0,0,37.92-25.41,67.942,67.942,0,0,0,3.909-7.428H267.655c-1.173,1.173-12.9,9.382-25.8,6.646-10.946-2.346-16.81-7.428-20.328-12.119a33.762,33.762,0,0,1-3.909-6.255H304.4C307.92,104.377,308.311,84.831,296.193,67.239Zm-78.185,21.5A32.639,32.639,0,0,1,247.718,68.8a33.21,33.21,0,0,1,30.1,19.937Z" transform="translate(83.786)" fill="#fff" stroke="#f5881f" stroke-width="1"/>
  </g>
</svg>
