<svg xmlns="http://www.w3.org/2000/svg" width="199.961" height="199.886" viewBox="0 0 199.961 199.886">
  <g id="Group_20" data-name="Group 20" transform="translate(0.002 -0.014)">
    <path id="Path_31" data-name="Path 31" d="M16.92,132.98a7.516,7.516,0,0,1,.44,1.57,4.651,4.651,0,0,1,0,1.49,2.866,2.866,0,0,1-.56,1.24,2.729,2.729,0,0,1-1.19.84c-.06.02-.11.04-.16.06a.893.893,0,0,0-.13.05l-.62-1.56s.07-.02.13-.04a1.086,1.086,0,0,0,.14-.05,1.417,1.417,0,0,0,.76-.66,1.96,1.96,0,0,0,.2-1.07,4.081,4.081,0,0,0-.32-1.33,5.465,5.465,0,0,0-.35-.73,3.525,3.525,0,0,0-.42-.6,2.582,2.582,0,0,0-.47-.42,1.279,1.279,0,0,0-.52-.2,1.263,1.263,0,0,0-1.21.63,2.049,2.049,0,0,0-.21.89,8.962,8.962,0,0,0,.04,1.13c.04.41.09.83.14,1.26s.08.86.09,1.28a5.057,5.057,0,0,1-.12,1.19,2.286,2.286,0,0,1-1.49,1.7,2.414,2.414,0,0,1-1.22.18,2.51,2.51,0,0,1-1.12-.44,4.214,4.214,0,0,1-.97-1,6.882,6.882,0,0,1-.79-1.51,6.472,6.472,0,0,1-.4-1.49,3.908,3.908,0,0,1,.03-1.37,2.545,2.545,0,0,1,.54-1.12,2.693,2.693,0,0,1,1.11-.77l.17-.07.61,1.55-.18.07a1.246,1.246,0,0,0-.65.56,1.935,1.935,0,0,0-.18.93,3.39,3.39,0,0,0,.27,1.17,4.592,4.592,0,0,0,.64,1.18,1.913,1.913,0,0,0,.71.6.9.9,0,0,0,.72.01.947.947,0,0,0,.56-.53,2.343,2.343,0,0,0,.16-.88c0-.34-.02-.71-.06-1.12s-.1-.82-.14-1.25-.07-.85-.08-1.28a5.648,5.648,0,0,1,.12-1.19,2.693,2.693,0,0,1,.48-1.01,2.28,2.28,0,0,1,1-.7,2.837,2.837,0,0,1,1.88-.15,3.134,3.134,0,0,1,1.5,1.04A7.316,7.316,0,0,1,16.91,133Z" fill="#fff"/>
    <path id="Path_32" data-name="Path 32" d="M13.59,122.84a5.743,5.743,0,0,1,.14,2.73,3.745,3.745,0,0,1-1.25,2.08,6.717,6.717,0,0,1-2.76,1.34,5.461,5.461,0,0,1-4.21-.24,4.925,4.925,0,0,1-2.21-3.19,5.982,5.982,0,0,1-.18-2.35,3.55,3.55,0,0,1,.84-1.9,3.825,3.825,0,0,1,1.97-1.14l.44,1.65a2.57,2.57,0,0,0-1.25.69,2.214,2.214,0,0,0-.56,1.17,3.719,3.719,0,0,0,.1,1.5,3.549,3.549,0,0,0,.86,1.61,2.586,2.586,0,0,0,1.48.74,5.08,5.08,0,0,0,2.12-.19l.32-.08a5.1,5.1,0,0,0,1.93-.9,2.476,2.476,0,0,0,.9-1.37,3.618,3.618,0,0,0-.08-1.83,3.823,3.823,0,0,0-.66-1.39,2.124,2.124,0,0,0-1.06-.75,2.573,2.573,0,0,0-1.43.01l-.42-1.6a3.838,3.838,0,0,1,2.28,0,3.464,3.464,0,0,1,1.66,1.23,6.2,6.2,0,0,1,1.01,2.15Z" fill="#fff"/>
    <path id="Path_33" data-name="Path 33" d="M11.92,116.67,1.73,118.1l-.75-5.36a3.807,3.807,0,0,1,.13-1.85,2.525,2.525,0,0,1,.93-1.22,3.478,3.478,0,0,1,1.56-.58,3.34,3.34,0,0,1,1.85.21,2.786,2.786,0,0,1,1.3,1.15l3.92-2.72.25,1.81-3.67,2.48.5,3.53,3.94-.55.23,1.66Zm-5.57-.92-.5-3.56a1.6,1.6,0,0,0-.65-1.17,1.878,1.878,0,0,0-1.38-.25,1.842,1.842,0,0,0-.86.32,1.4,1.4,0,0,0-.48.64,1.956,1.956,0,0,0-.06.95l.5,3.56,3.43-.48Z" fill="#fff"/>
    <path id="Path_34" data-name="Path 34" d="M10.65,101.43a5.975,5.975,0,0,1-.54,2.76A4.007,4.007,0,0,1,8.37,106a6.317,6.317,0,0,1-2.96.67,6.364,6.364,0,0,1-2.99-.57,4.01,4.01,0,0,1-1.79-1.76A6.118,6.118,0,0,1,0,101.6a5.981,5.981,0,0,1,.54-2.78,4.088,4.088,0,0,1,1.73-1.81,6.33,6.33,0,0,1,2.97-.67,6.247,6.247,0,0,1,2.98.58,4.013,4.013,0,0,1,1.8,1.75,6.154,6.154,0,0,1,.63,2.77Zm-1.42.02a4.094,4.094,0,0,0-.25-1.46,2.717,2.717,0,0,0-.71-1.07,3.151,3.151,0,0,0-1.18-.66,5.142,5.142,0,0,0-1.64-.21H5.12a5.388,5.388,0,0,0-1.66.27,3.038,3.038,0,0,0-1.16.69,2.708,2.708,0,0,0-.67,1.09,4.471,4.471,0,0,0-.2,1.47,4.021,4.021,0,0,0,.25,1.44,2.717,2.717,0,0,0,.71,1.07,2.935,2.935,0,0,0,1.18.65,5.581,5.581,0,0,0,1.67.2h.33a5.3,5.3,0,0,0,1.63-.26,2.964,2.964,0,0,0,1.16-.69,2.708,2.708,0,0,0,.67-1.09,4.387,4.387,0,0,0,.2-1.45Z" fill="#fff"/>
    <path id="Path_35" data-name="Path 35" d="M10.59,94.31.35,93.33l.16-1.67,8.79.84.49-5.11,1.45.14-.65,6.78Z" fill="#fff"/>
    <path id="Path_36" data-name="Path 36" d="M11.5,86.01,1.39,84.08l.31-1.65,8.68,1.65.96-5.04,1.43.27L11.49,86Z" fill="#fff"/>
    <path id="Path_37" data-name="Path 37" d="M13.98,74.7,4.25,71.34l1.3-3.76a6.226,6.226,0,0,1,1.4-2.39A3.862,3.862,0,0,1,9.1,64.1a6.119,6.119,0,0,1,2.96.38A6.2,6.2,0,0,1,14.61,66a3.793,3.793,0,0,1,1.03,2.19,6.136,6.136,0,0,1-.37,2.75l-1.3,3.76Zm-.81-2.06.74-2.15a4.4,4.4,0,0,0,.26-1.41,2.645,2.645,0,0,0-.27-1.2,2.8,2.8,0,0,0-.83-.97,5.156,5.156,0,0,0-1.43-.72l-.3-.1a5.337,5.337,0,0,0-1.58-.32,2.938,2.938,0,0,0-1.25.25,2.62,2.62,0,0,0-.95.78,4.222,4.222,0,0,0-.66,1.27l-.74,2.16,7,2.42Z" fill="#fff"/>
    <path id="Path_38" data-name="Path 38" d="M19.9,60.3a5.991,5.991,0,0,1-1.75,2.21,4.041,4.041,0,0,1-2.38.81,6.361,6.361,0,0,1-2.94-.76,6.274,6.274,0,0,1-2.39-1.88,4.045,4.045,0,0,1-.79-2.38,6.833,6.833,0,0,1,2.46-4.96,3.989,3.989,0,0,1,2.37-.81,6.428,6.428,0,0,1,2.95.76,6.218,6.218,0,0,1,2.38,1.88,4.1,4.1,0,0,1,.8,2.38,6.21,6.21,0,0,1-.71,2.75Zm-1.28-.63a4.6,4.6,0,0,0,.45-1.41,2.836,2.836,0,0,0-.14-1.27,3.069,3.069,0,0,0-.75-1.12,5.316,5.316,0,0,0-1.36-.93l-.29-.15a5.448,5.448,0,0,0-1.6-.53,3.013,3.013,0,0,0-1.35.09,2.771,2.771,0,0,0-1.1.66,4.335,4.335,0,0,0-.85,1.21,4.192,4.192,0,0,0-.44,1.4,2.836,2.836,0,0,0,.14,1.27,3.154,3.154,0,0,0,.75,1.12,5.192,5.192,0,0,0,1.39.94l.29.15a5.156,5.156,0,0,0,1.57.52,2.963,2.963,0,0,0,1.34-.08,2.842,2.842,0,0,0,1.1-.66,4.065,4.065,0,0,0,.84-1.2Z" fill="#fff"/>
    <path id="Path_39" data-name="Path 39" d="M23.85,52.65,13.76,49.16l1.01-1.47,6.58,2.39c.11.04.25.09.43.17s.36.16.55.24.36.17.52.24l.05-.07q-.135-.15-.3-.3c-.11-.1-.22-.21-.33-.32s-.21-.21-.3-.31-.17-.17-.23-.22l-4.67-5.17,1.22-1.78,6.51,2.49c.11.04.25.09.43.17s.36.16.55.24.36.17.52.24l.05-.07c-.09-.08-.18-.18-.29-.29s-.21-.22-.31-.33-.2-.21-.29-.31-.17-.19-.24-.26l-4.59-5.29.9-1.31L28.41,46,27.3,47.62l-6.64-2.47c-.14-.06-.3-.13-.49-.21s-.37-.16-.56-.25-.35-.16-.49-.23l-.04.06c.12.11.26.23.41.38s.3.29.44.43.25.26.34.36l4.7,5.29-1.15,1.67Z" fill="#fff"/>
    <path id="Path_40" data-name="Path 40" d="M31.01,42.71l-7.59-6.95,1.09-1.19,7.93.89a2.009,2.009,0,0,1,.32.02l.39.06a2.276,2.276,0,0,1,.3.07l.05-.06-.32-.29-.31-.28-4.76-4.35,1.09-1.19,7.59,6.95-1.05,1.15-8.02-.9q-.21-.03-.54-.09c-.22-.04-.38-.07-.5-.09l-.05.06c.1.1.21.19.31.29l.34.31,4.81,4.4L31,42.72Z" fill="#fff"/>
    <path id="Path_41" data-name="Path 41" d="M39.45,25.13,49.67,17.9l.62.87-9.76,6.91a.726.726,0,0,1-.23.51l-.85-1.05Z" fill="#fff"/>
    <path id="Path_42" data-name="Path 42" d="M64.9,17.74a7.762,7.762,0,0,1-1.56.48,4.168,4.168,0,0,1-1.49.03,2.719,2.719,0,0,1-2.13-1.7c-.02-.06-.04-.11-.06-.16a.893.893,0,0,0-.05-.13l1.54-.66s.03.07.05.13.04.1.05.14a1.412,1.412,0,0,0,.68.74,2.074,2.074,0,0,0,1.08.18,4.4,4.4,0,0,0,1.32-.35,4.864,4.864,0,0,0,.72-.37,3.9,3.9,0,0,0,.59-.43,2.276,2.276,0,0,0,.41-.48,1.286,1.286,0,0,0,.18-.53,1.121,1.121,0,0,0-.09-.56,1.2,1.2,0,0,0-.57-.62,2.215,2.215,0,0,0-.9-.19,9.362,9.362,0,0,0-1.13.07c-.41.05-.82.11-1.25.18a11.287,11.287,0,0,1-1.28.12,4.6,4.6,0,0,1-1.19-.09,2.314,2.314,0,0,1-1.01-.45,2.36,2.36,0,0,1-.72-.99,2.394,2.394,0,0,1-.21-1.21,2.541,2.541,0,0,1,.41-1.13,4.017,4.017,0,0,1,.98-1,7.181,7.181,0,0,1,1.49-.83,6.623,6.623,0,0,1,1.47-.44,3.936,3.936,0,0,1,1.37,0,2.544,2.544,0,0,1,1.94,1.6l.07.17-1.53.65L64,9.73a1.2,1.2,0,0,0-.58-.63,1.826,1.826,0,0,0-.93-.16,3.377,3.377,0,0,0-1.16.3,4.817,4.817,0,0,0-1.17.67,1.936,1.936,0,0,0-.58.72.945.945,0,0,0,0,.72.9.9,0,0,0,.54.54,2.357,2.357,0,0,0,.88.14,9.5,9.5,0,0,0,1.12-.09c.41-.06.82-.12,1.25-.17s.85-.09,1.27-.11a4.717,4.717,0,0,1,1.2.09,2.613,2.613,0,0,1,1.02.45,2.279,2.279,0,0,1,.73.98,2.805,2.805,0,0,1,.2,1.88,3.168,3.168,0,0,1-1,1.53,7.19,7.19,0,0,1-1.91,1.16Z" fill="#fff"/>
    <path id="Path_43" data-name="Path 43" d="M74.93,14.15a5.839,5.839,0,0,1-2.73.22,3.747,3.747,0,0,1-2.11-1.2,6.743,6.743,0,0,1-1.41-2.73,5.418,5.418,0,0,1,.13-4.22,4.927,4.927,0,0,1,3.13-2.29,6.047,6.047,0,0,1,2.35-.24,3.589,3.589,0,0,1,1.92.79A3.812,3.812,0,0,1,77.4,6.42l-1.64.48a2.649,2.649,0,0,0-.72-1.23,2.169,2.169,0,0,0-1.18-.53,3.98,3.98,0,0,0-3.09,1.04,2.566,2.566,0,0,0-.7,1.5,5.189,5.189,0,0,0,.24,2.12l.09.32a5.016,5.016,0,0,0,.95,1.91,2.5,2.5,0,0,0,1.39.87,3.663,3.663,0,0,0,1.83-.12,3.832,3.832,0,0,0,1.37-.69,2.158,2.158,0,0,0,.72-1.08,2.569,2.569,0,0,0-.05-1.42l1.58-.47a3.794,3.794,0,0,1,.05,2.28,3.58,3.58,0,0,1-1.19,1.7,6.03,6.03,0,0,1-2.12,1.06Z" fill="#fff"/>
    <path id="Path_44" data-name="Path 44" d="M81.08,12.31,79.39,2.16l5.34-.89a3.726,3.726,0,0,1,1.85.09,2.568,2.568,0,0,1,1.24.89,3.493,3.493,0,0,1,.62,1.55,3.439,3.439,0,0,1-.16,1.85,2.731,2.731,0,0,1-1.12,1.33l2.82,3.85-1.8.3L85.6,7.53l-3.52.59.65,3.92-1.66.28Zm.77-5.59,3.55-.59a1.653,1.653,0,0,0,1.16-.68,1.9,1.9,0,0,0,.22-1.39,1.878,1.878,0,0,0-.34-.85,1.347,1.347,0,0,0-.66-.46,1.975,1.975,0,0,0-.95-.04l-3.55.59.57,3.42Z" fill="#fff"/>
    <path id="Path_45" data-name="Path 45" d="M96.29,10.65a6.052,6.052,0,0,1-2.77-.47,4.056,4.056,0,0,1-1.86-1.69,6.3,6.3,0,0,1-.75-2.94,6.347,6.347,0,0,1,.5-3A3.994,3.994,0,0,1,93.12.72a6.049,6.049,0,0,1,2.73-.7,6.135,6.135,0,0,1,2.8.47,4.082,4.082,0,0,1,1.85,1.69,6.312,6.312,0,0,1,.75,2.95,6.327,6.327,0,0,1-.5,2.99,4.049,4.049,0,0,1-1.7,1.84,6.162,6.162,0,0,1-2.75.7Zm-.06-1.42a4.245,4.245,0,0,0,1.45-.29,2.722,2.722,0,0,0,1.05-.73,3.119,3.119,0,0,0,.63-1.2,5.253,5.253,0,0,0,.16-1.64V5.04a5.492,5.492,0,0,0-.32-1.65,3.008,3.008,0,0,0-.72-1.14,2.679,2.679,0,0,0-1.11-.64,4.817,4.817,0,0,0-2.91.13,2.722,2.722,0,0,0-1.05.73,2.976,2.976,0,0,0-.62,1.2,5.708,5.708,0,0,0-.16,1.67v.33a5.757,5.757,0,0,0,.31,1.62,3.008,3.008,0,0,0,.72,1.14,2.679,2.679,0,0,0,1.11.64,4.227,4.227,0,0,0,1.46.16Z" fill="#fff"/>
    <path id="Path_46" data-name="Path 46" d="M103.37,10.4,104.08.13l1.68.12-.61,8.81,5.12.36-.1,1.45-6.79-.47Z" fill="#fff"/>
    <path id="Path_47" data-name="Path 47" d="M111.69,11.1,113.35.94l1.66.27-1.42,8.72,5.06.83-.23,1.44-6.72-1.1Z" fill="#fff"/>
    <path id="Path_48" data-name="Path 48" d="M123.08,13.28l3.1-9.81,3.79,1.2a6.166,6.166,0,0,1,2.42,1.34,3.8,3.8,0,0,1,1.15,2.12,6.142,6.142,0,0,1-.3,2.97,6.165,6.165,0,0,1-1.46,2.59,3.923,3.923,0,0,1-2.16,1.09,6.174,6.174,0,0,1-2.75-.3l-3.79-1.2Zm2.04-.87,2.17.69a4.422,4.422,0,0,0,1.42.23,2.541,2.541,0,0,0,1.2-.3,2.846,2.846,0,0,0,.95-.86,5.365,5.365,0,0,0,.69-1.44l.09-.3a5.23,5.23,0,0,0,.28-1.59,2.8,2.8,0,0,0-.28-1.25,2.553,2.553,0,0,0-.81-.93,4.31,4.31,0,0,0-1.29-.63l-2.17-.69-2.24,7.06Z" fill="#fff"/>
    <path id="Path_49" data-name="Path 49" d="M137.63,18.82a6.117,6.117,0,0,1-2.25-1.69,4.046,4.046,0,0,1-.88-2.36,6.411,6.411,0,0,1,.68-2.96A6.269,6.269,0,0,1,137,9.37a4.027,4.027,0,0,1,2.36-.85,5.955,5.955,0,0,1,2.74.63,5.973,5.973,0,0,1,2.27,1.7,4.031,4.031,0,0,1,.87,2.35,6.335,6.335,0,0,1-.69,2.96,6.29,6.29,0,0,1-1.81,2.43,4.039,4.039,0,0,1-2.36.86,6.006,6.006,0,0,1-2.76-.64Zm.6-1.29a4.338,4.338,0,0,0,1.42.41,2.843,2.843,0,0,0,1.27-.17,3.012,3.012,0,0,0,1.1-.78,5.058,5.058,0,0,0,.9-1.39l.14-.3a5.414,5.414,0,0,0,.49-1.61,3,3,0,0,0-.12-1.35,2.773,2.773,0,0,0-.69-1.08,4.4,4.4,0,0,0-1.23-.82,4.19,4.19,0,0,0-1.41-.4,2.843,2.843,0,0,0-1.27.17,3.1,3.1,0,0,0-1.1.78,5.6,5.6,0,0,0-.9,1.42l-.14.3a5.33,5.33,0,0,0-.48,1.58,3.1,3.1,0,0,0,.11,1.34,2.7,2.7,0,0,0,.69,1.08,4.252,4.252,0,0,0,1.22.81Z" fill="#fff"/>
    <path id="Path_50" data-name="Path 50" d="M145.38,22.57,148.6,12.4l1.5.97-2.22,6.64c-.03.11-.09.25-.16.43s-.15.37-.23.56-.16.37-.22.52l.08.05c.1-.09.19-.2.29-.31s.2-.23.31-.34.21-.21.3-.31.16-.17.21-.23l5.05-4.81,1.81,1.18L153,23.33c-.03.11-.09.25-.16.43s-.15.37-.23.56-.16.37-.22.53l.08.05c.08-.09.18-.19.28-.3s.21-.22.32-.32a4.116,4.116,0,0,1,.31-.29c.1-.09.19-.17.26-.24l5.16-4.73,1.33.87-7.98,7.09-1.65-1.07,2.29-6.7c.06-.14.12-.31.19-.49s.15-.37.23-.56.15-.35.22-.49l-.06-.04q-.15.18-.36.42t-.42.45l-.35.35-5.16,4.84-1.7-1.1Z" fill="#fff"/>
    <path id="Path_51" data-name="Path 51" d="M155.48,29.46l6.75-7.77,1.22,1.06-.68,7.95c0,.08,0,.19-.01.33s-.03.26-.05.39a2.6,2.6,0,0,1-.06.3l.06.05c.1-.11.19-.22.29-.33s.18-.21.28-.32l4.23-4.87,1.22,1.06-6.75,7.77-1.18-1.02.69-8.04c.02-.14.04-.32.07-.54s.06-.39.08-.5l-.06-.05c-.09.11-.18.21-.28.32s-.2.22-.3.35l-4.28,4.93-1.22-1.06Z" fill="#fff"/>
    <path id="Path_52" data-name="Path 52" d="M173.28,37.44l7.5,10.03-.85.64-7.16-9.57a.725.725,0,0,1-.52-.21l1.03-.88Z" fill="#fff"/>
    <path id="Path_53" data-name="Path 53" d="M181.33,62.67a7.555,7.555,0,0,1-.52-1.54,4.209,4.209,0,0,1-.07-1.49,2.985,2.985,0,0,1,.49-1.27,2.641,2.641,0,0,1,1.15-.9c.05-.02.11-.05.16-.07a.893.893,0,0,0,.13-.05l.7,1.53-.12.05a.975.975,0,0,0-.14.06,1.389,1.389,0,0,0-.72.69,2,2,0,0,0-.15,1.08,4.492,4.492,0,0,0,.39,1.31,5.376,5.376,0,0,0,.39.71,3.422,3.422,0,0,0,.45.58,2.466,2.466,0,0,0,.49.39,1.318,1.318,0,0,0,.53.17,1.042,1.042,0,0,0,.56-.11,1.194,1.194,0,0,0,.61-.58,2.128,2.128,0,0,0,.16-.9,7.738,7.738,0,0,0-.1-1.12c-.06-.41-.13-.82-.21-1.25s-.12-.85-.16-1.27a5.9,5.9,0,0,1,.05-1.2,2.456,2.456,0,0,1,3.74-1.63,4.29,4.29,0,0,1,1.02.95,6.793,6.793,0,0,1,.87,1.47,7.118,7.118,0,0,1,.48,1.46,3.745,3.745,0,0,1,.04,1.37,2.616,2.616,0,0,1-.48,1.15,2.679,2.679,0,0,1-1.07.83l-.16.08-.7-1.51.18-.08a1.174,1.174,0,0,0,.62-.6,1.769,1.769,0,0,0,.13-.94,3.423,3.423,0,0,0-.33-1.15,5.2,5.2,0,0,0-.7-1.15,1.907,1.907,0,0,0-.74-.56.9.9,0,0,0-.72.03.971.971,0,0,0-.53.56,2.244,2.244,0,0,0-.11.89,9.6,9.6,0,0,0,.12,1.11c.07.4.14.82.21,1.24s.12.85.15,1.27a5.252,5.252,0,0,1-.06,1.2,2.542,2.542,0,0,1-.43,1.03,2.375,2.375,0,0,1-.97.76,2.806,2.806,0,0,1-1.87.25,3.066,3.066,0,0,1-1.55-.96,7.338,7.338,0,0,1-1.21-1.88Z" fill="#fff"/>
    <path id="Path_54" data-name="Path 54" d="M185.19,72.61a5.893,5.893,0,0,1-.29-2.72,3.76,3.76,0,0,1,1.14-2.14,6.786,6.786,0,0,1,2.69-1.48,5.492,5.492,0,0,1,4.22.01,4.939,4.939,0,0,1,2.37,3.07,5.725,5.725,0,0,1,.3,2.34,3.631,3.631,0,0,1-.74,1.94,3.8,3.8,0,0,1-1.91,1.24l-.53-1.63a2.613,2.613,0,0,0,1.21-.75,2.165,2.165,0,0,0,.5-1.19,3.606,3.606,0,0,0-.18-1.49,3.527,3.527,0,0,0-.94-1.56,2.546,2.546,0,0,0-1.51-.66,5.111,5.111,0,0,0-2.11.3l-.31.1a4.955,4.955,0,0,0-1.88,1,2.518,2.518,0,0,0-.83,1.41,3.676,3.676,0,0,0,.17,1.82,3.913,3.913,0,0,0,.73,1.36,2.154,2.154,0,0,0,1.1.69,2.513,2.513,0,0,0,1.42-.09l.51,1.57a3.84,3.84,0,0,1-2.28.11,3.557,3.557,0,0,1-1.73-1.15,6.134,6.134,0,0,1-1.12-2.09Z" fill="#fff"/>
    <path id="Path_55" data-name="Path 55" d="M187.19,78.71l10.1-1.96,1.03,5.31a3.709,3.709,0,0,1-.04,1.86,2.626,2.626,0,0,1-.86,1.27,3.563,3.563,0,0,1-1.53.66,3.5,3.5,0,0,1-1.86-.11,2.819,2.819,0,0,1-1.36-1.08l-3.77,2.92-.35-1.8,3.53-2.67-.68-3.5-3.9.76-.32-1.65Zm5.61.62.69,3.53A1.618,1.618,0,0,0,194.2,84a1.869,1.869,0,0,0,1.39.18,2.02,2.02,0,0,0,.84-.36,1.34,1.34,0,0,0,.44-.67,2.012,2.012,0,0,0,.01-.95l-.69-3.53-3.4.66Z" fill="#fff"/>
    <path id="Path_56" data-name="Path 56" d="M189.25,93.88a6.048,6.048,0,0,1,.4-2.79,3.982,3.982,0,0,1,1.64-1.9,7.414,7.414,0,0,1,5.93-.4,4,4,0,0,1,1.88,1.66,6.811,6.811,0,0,1,.37,5.52,4.012,4.012,0,0,1-1.64,1.89,7.421,7.421,0,0,1-5.93.4,4.061,4.061,0,0,1-1.89-1.65,6.044,6.044,0,0,1-.77-2.73Zm1.42-.1a4.361,4.361,0,0,0,.32,1.44,2.717,2.717,0,0,0,.76,1.03,3.045,3.045,0,0,0,1.21.59,5.389,5.389,0,0,0,1.65.12l.33-.02a5.464,5.464,0,0,0,1.65-.34,3.148,3.148,0,0,0,1.12-.75,2.862,2.862,0,0,0,.62-1.12,4.918,4.918,0,0,0-.2-2.91,2.717,2.717,0,0,0-.76-1.03,3.045,3.045,0,0,0-1.21-.59,5.562,5.562,0,0,0-1.68-.11l-.33.02a5.1,5.1,0,0,0-1.62.34,2.907,2.907,0,0,0-1.12.75,2.742,2.742,0,0,0-.62,1.12A4.267,4.267,0,0,0,190.67,93.78Z" fill="#fff"/>
    <path id="Path_57" data-name="Path 57" d="M189.68,100.99l10.28.45-.07,1.68-8.83-.39-.22,5.12-1.45-.06.3-6.8Z" fill="#fff"/>
    <path id="Path_58" data-name="Path 58" d="M189.2,109.31l10.19,1.4-.23,1.67-8.75-1.2-.7,5.08-1.44-.2.93-6.75Z" fill="#fff"/>
    <path id="Path_59" data-name="Path 59" d="M187.32,120.74l9.89,2.85-1.1,3.82a6.1,6.1,0,0,1-1.28,2.46,3.849,3.849,0,0,1-2.09,1.2,6.126,6.126,0,0,1-2.97-.22,6.233,6.233,0,0,1-2.63-1.39,3.79,3.79,0,0,1-1.14-2.13,6.244,6.244,0,0,1,.22-2.76l1.1-3.82Zm.92,2.01-.63,2.19a4.6,4.6,0,0,0-.19,1.42,2.645,2.645,0,0,0,.33,1.19,2.741,2.741,0,0,0,.88.92,5.346,5.346,0,0,0,1.46.65l.3.09a5.142,5.142,0,0,0,1.6.23,2.874,2.874,0,0,0,1.24-.31,2.568,2.568,0,0,0,.91-.83,4.21,4.21,0,0,0,.59-1.3l.63-2.19-7.12-2.05Z" fill="#fff"/>
    <path id="Path_60" data-name="Path 60" d="M182.16,135.43a6.074,6.074,0,0,1,1.63-2.3,4.021,4.021,0,0,1,2.33-.94,6.206,6.206,0,0,1,2.97.61,6.453,6.453,0,0,1,2.49,1.75,3.988,3.988,0,0,1,.91,2.34,6.8,6.8,0,0,1-2.19,5.08,4.047,4.047,0,0,1-2.32.93,7.417,7.417,0,0,1-5.46-2.36,4,4,0,0,1-.92-2.33,6.089,6.089,0,0,1,.56-2.78Zm1.31.56a4.265,4.265,0,0,0-.37,1.43,2.726,2.726,0,0,0,.21,1.27,3.042,3.042,0,0,0,.81,1.08,5.042,5.042,0,0,0,1.41.86l.3.13a5.685,5.685,0,0,0,1.62.45,2.937,2.937,0,0,0,1.34-.16,2.781,2.781,0,0,0,1.06-.72,4.388,4.388,0,0,0,.79-1.25,4.462,4.462,0,0,0,.37-1.42,2.726,2.726,0,0,0-.21-1.27,3.131,3.131,0,0,0-.81-1.08,5.717,5.717,0,0,0-1.44-.87l-.3-.13a5.306,5.306,0,0,0-1.59-.44,2.938,2.938,0,0,0-1.34.15,2.781,2.781,0,0,0-1.06.72,4.108,4.108,0,0,0-.78,1.24Z" fill="#fff"/>
    <path id="Path_61" data-name="Path 61" d="M178.61,143.28l10.26,2.96-.93,1.52-6.7-2.04c-.11-.03-.25-.08-.44-.15s-.37-.14-.56-.21-.37-.15-.53-.21l-.05.08a3.048,3.048,0,0,0,.32.28c.12.09.23.2.34.3l.32.29q.15.135.24.21l4.94,4.92-1.13,1.84-6.64-2.15a4.645,4.645,0,0,1-.44-.15c-.18-.06-.37-.14-.56-.21s-.37-.15-.53-.21l-.05.08c.09.08.19.17.31.27s.22.21.33.31a4.242,4.242,0,0,1,.3.3c.09.1.18.18.25.25l4.86,5.04-.83,1.36-7.29-7.79,1.03-1.68,6.76,2.12c.14.05.31.11.5.18s.38.14.57.22.36.15.5.21l.04-.06c-.13-.1-.27-.22-.43-.35s-.32-.27-.46-.41-.27-.25-.36-.34l-4.97-5.03,1.06-1.73Z" fill="#fff"/>
    <path id="Path_62" data-name="Path 62" d="M172,153.56l7.94,6.54-1.03,1.25-7.96-.48h-.32c-.13-.01-.26-.03-.39-.04a1.423,1.423,0,0,1-.3-.06l-.05.06c.12.1.23.19.34.28l.33.27,4.98,4.1-1.03,1.25-7.94-6.54.99-1.2,8.06.48q.21.015.54.06c.22.03.39.05.5.06l.05-.06-.33-.27c-.11-.09-.23-.19-.35-.29l-5.04-4.15,1.03-1.25Z" fill="#fff"/>
    <path id="Path_63" data-name="Path 63" d="M164.47,171.56l-9.83,7.76-.66-.84,9.38-7.4a.714.714,0,0,1,.2-.52Z" fill="#fff"/>
    <path id="Path_64" data-name="Path 64" d="M139.46,180.27a7.422,7.422,0,0,1,1.53-.56,4.2,4.2,0,0,1,1.48-.11,2.746,2.746,0,0,1,1.28.46,2.817,2.817,0,0,1,.93,1.12,1.112,1.112,0,0,1,.07.16c.02.05.04.09.06.13l-1.51.74s-.03-.07-.05-.12a.975.975,0,0,0-.06-.14,1.383,1.383,0,0,0-.71-.7,1.934,1.934,0,0,0-1.09-.12,4.461,4.461,0,0,0-1.3.42,4.764,4.764,0,0,0-.7.41,3.935,3.935,0,0,0-.57.46,2.136,2.136,0,0,0-.38.5,1.187,1.187,0,0,0-.03,1.1,1.149,1.149,0,0,0,.6.59,2.132,2.132,0,0,0,.9.14,7.868,7.868,0,0,0,1.12-.13c.4-.08.82-.16,1.24-.24s.85-.15,1.27-.19a5.31,5.31,0,0,1,1.2.02,2.365,2.365,0,0,1,1.03.4,2.323,2.323,0,0,1,.77.95,2.388,2.388,0,0,1,.27,1.2,2.459,2.459,0,0,1-.36,1.15,4.233,4.233,0,0,1-.92,1.05,7.274,7.274,0,0,1-1.44.91,6.484,6.484,0,0,1-1.45.52,4.028,4.028,0,0,1-1.37.08,2.613,2.613,0,0,1-1.16-.45,2.681,2.681,0,0,1-.86-1.05l-.08-.16,1.49-.73.09.17a1.152,1.152,0,0,0,.61.6,1.9,1.9,0,0,0,.94.11,3.407,3.407,0,0,0,1.14-.36,4.8,4.8,0,0,0,1.13-.73,1.769,1.769,0,0,0,.54-.75.971.971,0,0,0-.61-1.23,2.467,2.467,0,0,0-.89-.09,8.128,8.128,0,0,0-1.11.15c-.4.08-.81.16-1.24.24s-.84.14-1.27.18a4.76,4.76,0,0,1-1.2-.03,2.537,2.537,0,0,1-1.04-.4,2.308,2.308,0,0,1-.78-.94,2.79,2.79,0,0,1-.3-1.87,3.106,3.106,0,0,1,.92-1.58,7.315,7.315,0,0,1,1.85-1.26Z" fill="#fff"/>
    <path id="Path_65" data-name="Path 65" d="M129.63,184.38a5.8,5.8,0,0,1,2.71-.36,3.734,3.734,0,0,1,2.17,1.09,6.782,6.782,0,0,1,1.55,2.65,5.475,5.475,0,0,1,.1,4.22,4.921,4.921,0,0,1-3.01,2.45,5.748,5.748,0,0,1-2.33.36,3.668,3.668,0,0,1-1.96-.68,3.855,3.855,0,0,1-1.29-1.88l1.61-.57a2.6,2.6,0,0,0,.79,1.19,2.115,2.115,0,0,0,1.21.46,3.675,3.675,0,0,0,1.49-.22,3.562,3.562,0,0,0,1.54-.98,2.562,2.562,0,0,0,.62-1.53,5.178,5.178,0,0,0-.35-2.1l-.11-.31a5.249,5.249,0,0,0-1.04-1.86,2.477,2.477,0,0,0-1.43-.79,3.632,3.632,0,0,0-1.82.22,3.779,3.779,0,0,0-1.34.77,2.194,2.194,0,0,0-.66,1.12,2.46,2.46,0,0,0,.13,1.42l-1.56.55a3.806,3.806,0,0,1-.17-2.28,3.515,3.515,0,0,1,1.1-1.76,6.135,6.135,0,0,1,2.06-1.17Z" fill="#fff"/>
    <path id="Path_66" data-name="Path 66" d="M123.57,186.55l2.22,10.05-5.29,1.17a3.77,3.77,0,0,1-1.86.01,2.564,2.564,0,0,1-1.29-.83,3.52,3.52,0,0,1-.7-1.51,3.329,3.329,0,0,1,.07-1.86,2.657,2.657,0,0,1,1.05-1.38l-3.01-3.7,1.79-.4,2.76,3.46,3.49-.77-.86-3.88,1.64-.36Zm-.48,5.62-3.51.78a1.616,1.616,0,0,0-1.12.74,1.861,1.861,0,0,0-.14,1.4,1.935,1.935,0,0,0,.38.83,1.4,1.4,0,0,0,.68.43,2.036,2.036,0,0,0,.95-.01l3.51-.78-.75-3.38Z" fill="#fff"/>
    <path id="Path_67" data-name="Path 67" d="M108.49,188.99a5.964,5.964,0,0,1,2.79.32,4.073,4.073,0,0,1,1.94,1.59,6.287,6.287,0,0,1,.9,2.9,6.356,6.356,0,0,1-.34,3.02,4.047,4.047,0,0,1-1.61,1.92,6.853,6.853,0,0,1-5.51.52,4,4,0,0,1-1.93-1.59,7.418,7.418,0,0,1-.56-5.92,4.006,4.006,0,0,1,1.6-1.93,6.059,6.059,0,0,1,2.71-.84Zm.13,1.42a4.224,4.224,0,0,0-1.43.36,2.642,2.642,0,0,0-1.01.79,3.162,3.162,0,0,0-.56,1.23,5.166,5.166,0,0,0-.08,1.65l.03.33a5.2,5.2,0,0,0,.39,1.63,3.121,3.121,0,0,0,.78,1.1,2.7,2.7,0,0,0,1.14.59,4.425,4.425,0,0,0,1.48.09,4.289,4.289,0,0,0,1.42-.36,2.642,2.642,0,0,0,1.01-.79,2.887,2.887,0,0,0,.55-1.23,5.348,5.348,0,0,0,.07-1.68l-.03-.33a5.289,5.289,0,0,0-.38-1.61,2.9,2.9,0,0,0-.77-1.1,2.7,2.7,0,0,0-1.14-.59,4.34,4.34,0,0,0-1.46-.09Z" fill="#fff"/>
    <path id="Path_68" data-name="Path 68" d="M101.39,189.61l-.18,10.29-1.68-.03.15-8.83-5.13-.09.03-1.45,6.81.12Z" fill="#fff"/>
    <path id="Path_69" data-name="Path 69" d="M93.06,189.35l-1.13,10.23-1.67-.18.97-8.78-5.1-.56.16-1.45,6.77.75Z" fill="#fff"/>
    <path id="Path_70" data-name="Path 70" d="M81.57,187.76l-2.59,9.96-3.85-1a6.169,6.169,0,0,1-2.49-1.21,3.833,3.833,0,0,1-1.25-2.06,6.3,6.3,0,0,1,.14-2.98,6.2,6.2,0,0,1,1.32-2.66,3.858,3.858,0,0,1,2.1-1.2,6.191,6.191,0,0,1,2.77.15Zm-1.99.97-2.21-.57a4.526,4.526,0,0,0-1.42-.15,2.631,2.631,0,0,0-1.18.36,2.7,2.7,0,0,0-.9.91,5.362,5.362,0,0,0-.61,1.48l-.08.3a5,5,0,0,0-.19,1.6,2.681,2.681,0,0,0,.35,1.23,2.771,2.771,0,0,0,.85.89,4.415,4.415,0,0,0,1.32.56l2.21.57,1.86-7.17Z" fill="#fff"/>
    <path id="Path_71" data-name="Path 71" d="M66.76,182.99a6.1,6.1,0,0,1,2.34,1.57,4.042,4.042,0,0,1,1,2.31,6.288,6.288,0,0,1-.53,2.99,6.428,6.428,0,0,1-1.68,2.53,4.014,4.014,0,0,1-2.31.97,6.152,6.152,0,0,1-2.77-.48,6.08,6.08,0,0,1-2.36-1.58,4,4,0,0,1-.99-2.3,6.365,6.365,0,0,1,.53-3,6.251,6.251,0,0,1,1.68-2.52,3.989,3.989,0,0,1,2.31-.98,6.027,6.027,0,0,1,2.79.49Zm-.53,1.32a4.03,4.03,0,0,0-1.44-.33,2.679,2.679,0,0,0-1.26.24,3.078,3.078,0,0,0-1.06.84,5.265,5.265,0,0,0-.82,1.43l-.12.31a5.225,5.225,0,0,0-.4,1.63,3.075,3.075,0,0,0,.19,1.34,2.645,2.645,0,0,0,.75,1.04,4.225,4.225,0,0,0,1.27.75,4.4,4.4,0,0,0,1.43.33,2.679,2.679,0,0,0,1.26-.24,2.959,2.959,0,0,0,1.05-.84,5.717,5.717,0,0,0,.83-1.46l.12-.31a5.59,5.59,0,0,0,.4-1.6,2.872,2.872,0,0,0-.19-1.33,2.645,2.645,0,0,0-.75-1.04,4.523,4.523,0,0,0-1.26-.75Z" fill="#fff"/>
    <path id="Path_72" data-name="Path 72" d="M58.83,179.66l-2.69,10.33-1.54-.89,1.87-6.75c.03-.11.07-.26.13-.44s.13-.38.2-.57.14-.37.2-.54l-.08-.04q-.135.15-.27.33c-.09.12-.19.24-.29.35s-.19.22-.28.32a2.7,2.7,0,0,0-.2.25l-4.79,5.06-1.87-1.08,1.97-6.69c.03-.11.07-.26.13-.44s.13-.38.2-.57.14-.38.2-.54l-.08-.05c-.08.09-.17.2-.27.31s-.2.23-.3.34-.2.21-.29.31a2.62,2.62,0,0,0-.24.26l-4.91,5-1.38-.79,7.6-7.5,1.7.98-1.94,6.81c-.05.14-.1.31-.17.5s-.13.38-.2.58-.14.36-.2.5l.06.04c.1-.13.21-.28.34-.44s.26-.33.39-.47.24-.27.34-.37l4.9-5.11,1.75,1.01Z" fill="#fff"/>
    <path id="Path_73" data-name="Path 73" d="M48.38,173.31l-6.33,8.11-1.28-1,.27-7.97a1.785,1.785,0,0,1,0-.33c0-.13.02-.26.03-.39a1.535,1.535,0,0,1,.05-.3l-.06-.05c-.09.12-.18.23-.27.34s-.17.22-.26.33l-3.97,5.08-1.28-1,6.33-8.11,1.23.96-.27,8.07c-.01.14-.03.32-.04.54s-.04.39-.05.5l.06.05c.09-.11.17-.22.26-.34s.18-.23.28-.36l4.02-5.14,1.28,1Z" fill="#fff"/>
    <path id="Path_74" data-name="Path 74" d="M30.18,166.24l-8.01-9.63.82-.68,7.64,9.19a.7.7,0,0,1,.53.19Z" fill="#fff"/>
  </g>
</svg>
