<svg xmlns="http://www.w3.org/2000/svg" width="30.849" height="30.849" viewBox="0 0 30.849 30.849">
  <path id="Icon_metro-earth2" data-name="Icon metro-earth2" d="M17.995,32.777A15.424,15.424,0,1,1,33.419,17.352,15.425,15.425,0,0,1,17.995,32.777ZM30.5,16.06a.1.1,0,0,0,.048-.067.47.47,0,0,0,.148.271c0,.01,0,.008,0,.021s.013-.006.02-.006a.466.466,0,0,0,.294.11.475.475,0,0,0,.4-.232.232.232,0,0,1,.02.023c0-.015,0-.031,0-.046a.468.468,0,0,0,.064-.227.483.483,0,0,0-.482-.482.476.476,0,0,0-.4.224s0-.014-.011-.011a.436.436,0,0,0-.074-.23v.5A.5.5,0,0,1,30.5,16.06ZM8.347,15.915c0-.146-.332-.393-.417-.393,0-.026-.135-.323-.186-.323,0-.1-.352-.55-.408-.354-.037.127.269.3.269.446.057,0,.3.453.343.532.522.883-.39.28-.39-.094a1.229,1.229,0,0,1-.3-.624A1.993,1.993,0,0,1,7,14.621c0-.281-.155-.416-.464-.416-.014-.028-.274-.392-.279-.392a1.021,1.021,0,0,0-.324-.531,3.737,3.737,0,0,1-.068-.785,2.659,2.659,0,0,0-.1-.825,13.453,13.453,0,0,0,7.6,18.345c.006-.478.041-1.051.15-1.051,0-.071.061-.37.116-.37a5.841,5.841,0,0,0,0-.624c-.068-.138.091-.314.139-.531.267-.134.078-1.478.28-1.478a9.157,9.157,0,0,0,.045-1.686c.051,0-.3-.377-.3-.37-.34,0-.578-.546-.578-.785a1.455,1.455,0,0,1-.117-.392c.078,0-.487-.825-.487-.809-.3-.166.016-.4.046-.669-.259-.086,0-.786.116-.786a.217.217,0,0,1,.14-.184c.058.23.327-.115.116-.115,0-.152-.017-.478,0-.554,0-.235-.208-.7-.37-.208-.174-.086-.611-.07-.649-.346.027-.136-.25-.414-.347-.462.091-.237-.469-.554-.672-.554,0-.051-.107-.028-.139-.093-.206,0-.254-.278-.487-.278-.269,0-.54-.184-.788-.184-.083-.165-.468-.1-.556-.278-.2,0-.281-.382-.286-.522-.009-.174-.147-.773-.388-.773ZM27.874,8.179a.049.049,0,0,1-.008.021c.014,0,.032.016.048.023C27.9,8.209,27.888,8.194,27.874,8.179Zm.29.319a.311.311,0,0,1,.051.164c.034,0,.05-.017.077-.024C28.251,8.59,28.206,8.546,28.164,8.5ZM29,12.89c.015-.416-.347-.347-.462-.578-.12,0-.163-.093-.325-.093a.2.2,0,0,0-.249.075c-.248.094-.1-.121-.284-.121.009-.238-.086-.3-.348-.278-.15.339-.382.543-.347.924.111.025.092.05.069.161.147.008,1.042-.046,1.042-.139.031,0,.186.319.186.046.124,0,.19.292.487.207,0,.06.5-.206.23-.206Zm.047,4.919c.017-.085-.042-.122-.093-.208.132,0-.417-1.019-.417-1.178-.084-.041-.191-.333-.21-.439a1.107,1.107,0,0,1-.278-.462,1.675,1.675,0,0,1-.44-.577c.166.018.416.052.416-.162-.112,0-.128-.138-.022-.138-.035-.142.075-.244.1-.355a2.614,2.614,0,0,0,.086-.5.764.764,0,0,0-.324.069c0,.094-.282-.023-.324-.023-.061-.121-.5.158-.625-.093-.2-.18-.146-.319-.21-.574-.033-.129-.209-.137-.316-.158-.3-.059-.084.36-.1.455.185,0-.117.229-.117.346-.312-.067-.208-.415-.392-.508-.055-.093-.012-.162-.14-.162,0-.123.066-.347-.069-.392,0-.06-.262-.084-.3-.162-.166,0-.551-.627-.67-.415-.074.135.063.168.091.278.24-.047.217.4.51.346a.8.8,0,0,0,.022.185c.217-.051.192.161.3.161-.079.105-.33-.168-.261.062.04.133.017.247-.155.377,0-.144-.012-.531-.162-.531-.1-.2-.406-.155-.534-.346-.1,0-.145-.324-.324-.346a.362.362,0,0,1-.209.093c-.1.2-.648.02-.648.046-.009,0-.308.735-.326.831-.034.207-.2.211-.251.408-.025.1-.63.052-.63.124a.616.616,0,0,1-.487-.554,4.349,4.349,0,0,1,.094-.832c.053.014.064.033.094.093.16-.06.533.04.533-.139q.233.006.139.185c.145.027.394.064.394-.139-.085,0-.094-.008-.094-.093.278-.288-.208-.549-.208-.692-.1-.033-.3-.246-.156-.166.121.067.561.2.388-.089a.032.032,0,0,0,.022-.022c.049.035.256.248.256.046.057,0,.277-.139.093-.139.017-.1.013-.191.022-.255.294.158.13-.108.279-.207,0,.192.158-.093.255-.093.115-.171.377-.039.441-.231-.142-.046-.116-.4-.116-.53.171.028.361-.23.387-.053.01.068.018.257.053.283.254.133.186-.076.186-.207-.085,0-.2-.3-.209-.44-.069.01-.181.039-.209.092-.253,0-.424-.092-.625-.092a3.582,3.582,0,0,1-.231-.3c-.141-.242.141-.172.185-.183,0-.229.955-.189,1-.555-.314,0,.324-.532.324-.53.213-.182.326-.339.591-.36.112-.008,1.355-.351,1.355-.2.05,0,.216,0,.388.01A13.437,13.437,0,0,0,9.052,7.264a.341.341,0,0,1,.037.127c.126-.009.308-.09.348.07a.792.792,0,0,1-.185-.024c.044.358-.156.139-.324.139a.466.466,0,0,0-.153-.06c-.051.048-.105.094-.156.142.006.015,0,.016.007.034.054,0,.026.084.18.135a3.436,3.436,0,0,0,.562.124,1.789,1.789,0,0,0,.37-.028c0-.019.318-.161.094-.161C9.862,7.635,9.8,7.6,9.668,7.6c.012-.135.333-.046.464-.046.1-.169,0-.148.092-.3.106-.188.232-.025.3-.205a.323.323,0,0,1,.232.228c.084.069.51.7.51.254.152.051.228.336.231.486.277-.04.3-.248.3-.463.064,0-.023-.1-.023-.139.1-.038.232.1.232-.045.044,0,.046.044.046.093.144.028.236-.016.324.014.061.021.03.336,0,.447-.035.141-.3.143-.3.208-.3.228.36.346.464.485a1.281,1.281,0,0,1-.3-.045c-.15,0-.515.159-.649.045.187,0,.25-.225.279-.439a.331.331,0,0,0-.424.213c-.081.283-.269-.012-.363.179-.037.012-.371.167-.371.115-.376.053-.278.372-.278.716.149.09.453.345.44.485.337.06.461.1.764.139a.368.368,0,0,0,.186.115c0,.2.18.163.347.163,0-.254.295.211.324.3-.04,0,.069.259.093.347-.046-.016-.061,0-.046.046.147.054.379.039.417-.116-.141,0-.094-.161-.094-.255a.174.174,0,0,1,.023-.323c0,.131.477-.082.208-.184a.52.52,0,0,0,0-.5c-.068-.081-.154,0-.188-.121.182-.045.048-.392.046-.554.058-.022.208.037.208,0,.178,0,.475.226.579-.047.3.136.061.265.371.162a1.338,1.338,0,0,0,.394.415c0,.016-.009.116.068.116,0,.074-.046-.042-.046.092.043,0,.279.047.279-.045.149,0,.255-.183.255-.323.094-.061.257.508.37.508.083.129.348.317.348.439.056.057.115.041.115.208.07,0,.209-.277.209-.023a.438.438,0,0,1,.279.254c-.167,0-.009.162-.094.162,0,.16-.358.033-.439.023-.111.5-.78.14-1.185.268a1.38,1.38,0,0,0-.647.771c.258,0,.372-.224.6-.3.188,0,.225-.114.394-.161,0,.047.046.022.046.069-.33,0-.129.213-.033.368a.4.4,0,0,0,.2.173.917.917,0,0,0-.078.174h0c-.063.021-.185.067-.209.116-.373.041-.189.016-.164-.073.013.032.147,0,.142,0-.022-.112-.056-.1-.023-.161-.2,0-.3.093-.464.093-.027.055-.169.185-.231.185a1.1,1.1,0,0,1-.279.485c0-.038-.33.207-.3.207-.073.119-.153.115-.186.3a1.555,1.555,0,0,0-.116.369c-.144.1-.2.485-.441.485-.149.3-.417.257-.417.647a2.035,2.035,0,0,1,.153.633c.035.163.089.333-.129.336-.015-.024-.168-.255-.14-.255a1.47,1.47,0,0,0-.185-.5c-.092-.128-.261.02-.394-.036-.057-.114-.442-.139-.578-.139.022.086.085.113.093.208a.526.526,0,0,1-.3.082c-.2-.028-.177-.185-.4-.163a.67.67,0,0,0-.6.682,2.041,2.041,0,0,0,0,.693c0,.2.162.337.162.485.157,0,.334.346.487.346.017.122-.077.142.185.14,0-.013.143-.09.162-.185-.181-.044,0-.278.116-.323,0,.165.231-.055.231-.069.026-.011.255-.093.255-.093,0-.187.174.018.046.093-.125,0-.116.208-.185.208-.03.148-.089.278-.123.422-.044.178.1.2.054.363a2.9,2.9,0,0,0,.556,0,.164.164,0,0,0-.023-.093c.269,0,.023.508.186.508,0,.192.093.341.093.462a.307.307,0,0,1,.162.346c.154.02.486.06.486-.139.234,0,.251.159.233.323.467,0,.174-.462.369-.462.018-.076.05-.09.1-.04.1.051.168-.1.244-.142a.628.628,0,0,1,.124-.066c.066.04.071.028.1.072a.7.7,0,0,0,.364-.147c.167.02.113.379.425.4a1.109,1.109,0,0,0,.523-.031c.027-.018.126.063.137.1.1,0,.1.091.141.089a.038.038,0,0,0,.047.022c.013.04.1.051.14.161,0,.1.208.118.208.184.149.075-.051.1.178.165a1.665,1.665,0,0,0,.379.113c.043-.165.184.022.255.022.037.075.056.018.092.093.215.179.073.11.162.3.1.067.136.3.164.439-.083,0-.024.317-.024.347-.1,0,.256.19.256-.047.147.024.243.184.347.184-.061.14.162.245.162.024.22.022.161.35.14.462.163,0,.21-.091.349-.108a.943.943,0,0,1,.508-.165.963.963,0,0,1,.964.964.952.952,0,0,1-.817.934,1.687,1.687,0,0,1-.121.131c0,.046-.011.507-.024.507,0,.093-.07.6-.139.6,0,.261-.171.308-.231.554-.141.1-.522.278-.58.392-.109,0-.19.093-.3.093-.015.032-.252.255-.209.255-.017.164.013.549-.076.657-.06.071-.146.064-.108.175-.13,0,.008.093-.2.093a.458.458,0,0,0-.366.34.514.514,0,0,1-.224.445c0,.066-.3.085-.3.255.028,0,0,.314,0,.346a.548.548,0,0,0-.347.161c-.3,0-.266.031-.463.162,0,.04-.028.184-.069.184,0,.234-.167.021-.3.14.053,0,.121.23.093.23,0,.2-.126.221-.255.37-.061.04-.119.208-.162.208,0,.137-.068.261-.068.392.029,0,0,.059.022.114.065-.018.067-.092.093-.092,0-.116.184.068.069.068-.1.145-.2.147-.255.347-.058,0-.108.056-.15.121a13.417,13.417,0,0,0,14.882-5.672,3.7,3.7,0,0,1,.105-.78c.094.069.165.2.231,0-.167-.033-.126-.091-.069-.23a.585.585,0,0,0,.3.079c.032-.06.057-.123.089-.183-.094-.073.036-.263.081-.171.024-.046.045-.094.067-.141-.011,0-.008,0-.023,0,0-.084.015-.073.07-.116a.085.085,0,0,0,0,.016,13.425,13.425,0,0,0,1.327-5.807c0-.068-.01-.134-.011-.2-.025.094-.072.2-.139.22,0,.061-.689.361-.648.485-.121,0-.548.121-.626.277a1.075,1.075,0,0,0-.464.185c-.43,0-.348-.507-.555-.507Zm1.96-5.277H30.5s-.008-.006-.012-.013c-.026,0-.135-.245-.093-.3a.685.685,0,0,1,.083.006c-.043-.106-.091-.21-.138-.315A.666.666,0,0,1,30,12.08c0,.04-.205.439,0,.439a.07.07,0,0,0,.006.02.479.479,0,0,0,.04.957h.19c.012.088.059.164.228.2.053.223.45.3.51.068-.168,0-.113-.161-.1-.27h.135a.482.482,0,0,0,0-.964ZM29.6,18.8c.034,0,.256,0,.256-.043a2.356,2.356,0,0,0,.672-.094c0,.3-.252.466-.209.763-.167,0-.094.172-.094.23-.108.067-.124.188-.255.255,0,.134-.3.356-.389.47s-.4.351-.442.514c.011-.039-.551.585-.42.585,0,.117-.158,1.039.046,1.039,0,.081.174.855.068.855,0,.249-.162.4-.162.6-.079.054-.192.084-.231.163-.142,0-.21.3-.278.3,0,.321-.094.559-.094.924.026,0-.185.52-.185.553-.171.115-.6.526-.6.74,0,0-.3.422-.347.485a2.984,2.984,0,0,0-.789.185c-.148,0-.532.117-.625-.023,0-.147-.08-.333-.093-.532-.071,0-.083-.3-.162-.3a7.965,7.965,0,0,1-.371-.948,1.552,1.552,0,0,0-.093-.392c0-.318-.232-.583-.232-.877-.068,0-.21-.646-.139-.646a7.243,7.243,0,0,1,.168-.938,2.232,2.232,0,0,0-.1-.957c-.04,0-.173-.221-.186-.277a.7.7,0,0,1-.255-.6,1.563,1.563,0,0,0,.14-.832,1.035,1.035,0,0,0-.58-.069c-.149-.3-1.153-.115-1.437-.115,0,.164-.7-.032-.764-.162-.171,0-.509-.362-.509-.531a1.9,1.9,0,0,1-.486-.947c-.162-.081-.113-.393-.024-.393a1.647,1.647,0,0,0-.094-.491c-.028-.1.094-.2.094-.318a1.393,1.393,0,0,1,.188-.815,3.149,3.149,0,0,0,.182-.344c.1-.242.125-.012.255-.228.124-.062.2-.268.325-.369.056-.074.058-.105,0-.162a1.391,1.391,0,0,0,.162-.438c.181-.252.053-.137.231-.116.066-.071.174-.255.278-.255a.292.292,0,0,1,.255-.139c0,.139.378-.045.417-.045a1.067,1.067,0,0,1,.579-.278c0-.158.821.044.951.023v-.069c.175.041.5.745.463.9a1.806,1.806,0,0,1,.348,0c0,.149.281.186.41.193.178.009.7-.018.7-.262a.216.216,0,0,1,.233.254c.156.017,1.085.036,1.019.23.136,0,.171.232.3.232-.026.16.162.577.3.577a.727.727,0,0,0,.209.484,1.691,1.691,0,0,0,.486.739c-.087.164.132.3.186.462-.013,0,.047.242.115.278,0,.164.345.832.534.832.013.081-.177.118.069.136Zm-5-5.172c.036-.138.117-.031.192-.006.178.058.117,0,.249-.063C25.041,13.936,24.825,13.65,24.6,13.628Zm-.488-.693c.094,0,.121.424-.139.346,0-.105-.067-.3.07-.3.04.164.068.1.068-.046ZM24,12.659c.107.046.154.031.139-.046.141.046-.018.147-.046.255C24.018,12.8,24.04,12.77,24,12.659ZM21.518,10.6c-.228-.059.234-.126.255-.184a.108.108,0,0,1-.1-.147c.035-.08.092.1.171.056.094-.01.278-.149.183.121s-.184.474-.531.479c-.124-.125,0-.191.023-.324Zm.858-.947c.187,0,.023.139-.018.139.032.013-.006.124-.006.161.174,0,.176-.108.3-.139-.026.155-.2.185-.03.318.09.07.181.153.146.26.221,0,.254.212.208.462.122,0,.117.006.117-.117.119.033.11.14,0,.14-.11.217-.4.207-.6.207,0-.168-.034-.178-.189-.131-.212.065-.046-.169-.042-.284.023,0,.481.021.208-.069-.014-.249-.07-.323-.3-.323,0-.17-.06-.157-.088-.343-.04-.275.215.019.3-.281Zm-.07,1.5c0,.057-.116.1-.139.022.022.008.031,0,.022-.022Zm-1.9-2.48h-.964a.482.482,0,0,1,0-.964h.964a.482.482,0,0,1,0,.964Zm-5.616,8.532c.054,0,.117.021.117.069C14.835,17.277,14.744,17.344,14.789,17.208Zm-.879.047c-.039.073-.351.061-.394-.024.116,0,.205.047.324,0,0-.064-.053-.115-.093-.184.126,0,.268.1.441.093,0-.107-.047.023,0-.116a.541.541,0,0,1,.255.254,3.439,3.439,0,0,0-.532-.022ZM12.89,16.7a.649.649,0,0,1-.417-.208c.115,0,.228.052.3-.069.294.03.32.232.556.232.044.078.3.257.053.281a.536.536,0,0,1-.493-.235Zm.185.647c-.086,0-.228.038-.162-.14C13.026,17.223,13.08,17.27,13.075,17.347Zm.162-.023-.139.023C13.111,17.24,13.212,17.121,13.237,17.324Zm.857,1.015c-.018.065-.015.068-.092.068.008-.03.014-.06.022-.092Zm-2.085-1.916.069.023c.03.115.093.058.162.023C12.24,16.6,11.929,16.642,12.008,16.423Z" transform="translate(-2.571 -1.928)" fill="#ebbd67"/>
</svg>
