<svg id="Layer_2" data-name="Layer 2" xmlns="http://www.w3.org/2000/svg" width="63.25" height="62.99" viewBox="0 0 63.25 62.99">
  <g id="Group_196" data-name="Group 196">
    <path id="Path_738" data-name="Path 738" d="M27.21,45.56H1V1H45.56V27.56" fill="none" stroke="#ebbd67" stroke-linecap="round" stroke-linejoin="round" stroke-width="2"/>
    <rect id="Rectangle_87" data-name="Rectangle 87" width="15.12" height="17.74" transform="translate(15.77 1)" fill="none" stroke="#ebbd67" stroke-linecap="round" stroke-linejoin="round" stroke-width="2"/>
    <circle id="Ellipse_30" data-name="Ellipse 30" cx="16.69" cy="16.69" r="16.69" transform="translate(28.87 28.61)" fill="none" stroke="#ebbd67" stroke-linecap="round" stroke-linejoin="round" stroke-width="2"/>
    <path id="Path_739" data-name="Path 739" d="M48.01,49.73a2.293,2.293,0,0,0-.64-1.67,5.714,5.714,0,0,0-2.14-1.19,16.135,16.135,0,0,1-2.32-.98,4.729,4.729,0,0,1-2.76-4.39,4.539,4.539,0,0,1,1.2-3.24,5.1,5.1,0,0,1,3.25-1.51V34.16h1.9v2.61a4.689,4.689,0,0,1,3.19,1.75,6.007,6.007,0,0,1,1.13,3.78H47.95a3.691,3.691,0,0,0-.67-2.35,2.193,2.193,0,0,0-1.82-.86,2.455,2.455,0,0,0-1.78.62,2.328,2.328,0,0,0-.64,1.77,2.2,2.2,0,0,0,.63,1.65,6.043,6.043,0,0,0,2.15,1.18,18.466,18.466,0,0,1,2.38,1.03,6.18,6.18,0,0,1,1.46,1.09,4.22,4.22,0,0,1,.91,1.41,5.029,5.029,0,0,1,.32,1.86,4.42,4.42,0,0,1-1.23,3.25,5.408,5.408,0,0,1-3.42,1.47v2.31H44.35v-2.3a5.422,5.422,0,0,1-3.61-1.68,5.488,5.488,0,0,1-1.26-3.77h2.88a3.277,3.277,0,0,0,.75,2.31,2.729,2.729,0,0,0,2.13.82,2.925,2.925,0,0,0,2.06-.65,2.254,2.254,0,0,0,.71-1.73Z" fill="#ebbd67"/>
  </g>
</svg>
