<svg id="Layer_2" data-name="Layer 2" xmlns="http://www.w3.org/2000/svg" width="48.75" height="52.01" viewBox="0 0 48.75 52.01">
  <g id="Group_185" data-name="Group 185">
    <circle id="Ellipse_25" data-name="Ellipse 25" cx="4.02" cy="4.02" r="4.02" transform="translate(16.6 27.3)" fill="none" stroke="#ebbd67" stroke-linecap="round" stroke-linejoin="round" stroke-width="2"/>
    <rect id="Rectangle_74" data-name="Rectangle 74" width="4.72" height="4.72" transform="translate(26.84 23.64)" fill="none" stroke="#ebbd67" stroke-linecap="round" stroke-linejoin="round" stroke-width="2"/>
    <rect id="Rectangle_75" data-name="Rectangle 75" width="8.44" height="8.44" transform="translate(28.7 11.54)" fill="none" stroke="#ebbd67" stroke-linecap="round" stroke-linejoin="round" stroke-width="2"/>
    <rect id="Rectangle_76" data-name="Rectangle 76" width="7.6" height="7.6" transform="translate(40.15 7.19)" fill="none" stroke="#ebbd67" stroke-linecap="round" stroke-linejoin="round" stroke-width="2"/>
    <rect id="Rectangle_77" data-name="Rectangle 77" width="4.63" height="4.63" transform="translate(40.91 19.25)" fill="none" stroke="#ebbd67" stroke-linecap="round" stroke-linejoin="round" stroke-width="2"/>
    <rect id="Rectangle_78" data-name="Rectangle 78" width="4.84" height="4.84" transform="translate(32.78 1)" fill="none" stroke="#ebbd67" stroke-linecap="round" stroke-linejoin="round" stroke-width="2"/>
    <path id="Path_717" data-name="Path 717" d="M23.95,12.08H16.96v4.24a15.286,15.286,0,0,0-4.76,2.03L9.17,15.32,4.23,20.26l3.08,3.08A15.509,15.509,0,0,0,5.4,28.06H1v6.99H5.43a15.333,15.333,0,0,0,1.94,4.66L4.24,42.84l4.94,4.94,3.12-3.12a15.3,15.3,0,0,0,4.68,1.97v4.38h6.99V46.69a15.538,15.538,0,0,0,4.78-1.93l3.02,3.02,4.94-4.94-2.97-2.97a15.742,15.742,0,0,0,2.04-4.82h4.16V28.06H34.5v3.42H30.82A10.21,10.21,0,1,1,20.61,21.27a10.086,10.086,0,0,1,3.36.57V12.09Z" fill="none" stroke="#ebbd67" stroke-linecap="round" stroke-linejoin="round" stroke-width="2"/>
  </g>
</svg>
