<svg xmlns="http://www.w3.org/2000/svg" width="13.714" height="16" viewBox="0 0 13.714 16">
  <path id="Icon_metro-file-pdf" data-name="Icon metro-file-pdf" d="M14.25,4.372a2.078,2.078,0,0,1,.429.679,2.061,2.061,0,0,1,.179.786V16.122a.854.854,0,0,1-.857.857H2a.854.854,0,0,1-.857-.857V1.836A.854.854,0,0,1,2,.979h8a2.061,2.061,0,0,1,.786.179,2.078,2.078,0,0,1,.679.429ZM10.285,2.194V5.551h3.357a.976.976,0,0,0-.2-.366L10.651,2.39a.975.975,0,0,0-.366-.2Zm3.429,13.643V6.694H10a.854.854,0,0,1-.857-.857V2.122H2.285V15.836H13.714ZM9.125,10.542a6.793,6.793,0,0,0,.75.5,8.86,8.86,0,0,1,1.045-.062q1.313,0,1.58.437a.432.432,0,0,1,.018.464.026.026,0,0,1-.009.018l-.018.018v.009q-.054.339-.634.339a3.683,3.683,0,0,1-1.027-.179,6.51,6.51,0,0,1-1.161-.473,16.077,16.077,0,0,0-3.5.741Q4.8,14.694,4.009,14.694a.519.519,0,0,1-.25-.062l-.214-.107q-.009-.009-.054-.045a.369.369,0,0,1-.054-.321,1.939,1.939,0,0,1,.5-.817,4.315,4.315,0,0,1,1.179-.862.13.13,0,0,1,.205.054.051.051,0,0,1,.018.036q.464-.759.955-1.759A13.627,13.627,0,0,0,7.223,8.47a7.217,7.217,0,0,1-.272-1.424,3.472,3.472,0,0,1,.058-1.138q.1-.357.375-.357h.2a.376.376,0,0,1,.313.134.713.713,0,0,1,.08.607.194.194,0,0,1-.036.071.232.232,0,0,1,.009.071V6.7a11.692,11.692,0,0,1-.125,1.714,4.517,4.517,0,0,0,1.3,2.125Zm-5.143,3.67A3.942,3.942,0,0,0,5.205,12.8a5.09,5.09,0,0,0-.781.75A2.968,2.968,0,0,0,3.982,14.211ZM7.535,6a2.655,2.655,0,0,0-.018,1.179q.009-.062.062-.393,0-.027.063-.384a.2.2,0,0,1,.036-.071.026.026,0,0,1-.009-.018.018.018,0,0,0,0-.013.018.018,0,0,1,0-.013.514.514,0,0,0-.116-.321.026.026,0,0,1-.009.018V6ZM6.428,11.9a13.1,13.1,0,0,1,2.536-.723,1.347,1.347,0,0,1-.116-.085,1.6,1.6,0,0,1-.143-.121A4.729,4.729,0,0,1,7.571,9.4a11.931,11.931,0,0,1-.741,1.759q-.268.5-.4.741Zm5.768-.143a2.137,2.137,0,0,0-1.25-.214,3.377,3.377,0,0,0,1.107.25.866.866,0,0,0,.161-.009q0-.009-.018-.027Z" transform="translate(-1.143 -0.979)" fill="#ebbd67"/>
</svg>
