<svg xmlns="http://www.w3.org/2000/svg" width="21.413" height="24.982" viewBox="0 0 21.413 24.982">
  <path id="Icon_metro-file-pdf" data-name="Icon metro-file-pdf" d="M23.036,7.5a3.244,3.244,0,0,1,.669,1.06,3.217,3.217,0,0,1,.279,1.227v16.06a1.333,1.333,0,0,1-1.338,1.338H3.909a1.333,1.333,0,0,1-1.338-1.338V3.542A1.333,1.333,0,0,1,3.909,2.2H16.4a3.218,3.218,0,0,1,1.227.279,3.244,3.244,0,0,1,1.06.669Zm-6.19-3.4V9.341h5.242a1.523,1.523,0,0,0-.307-.572L17.418,4.406a1.523,1.523,0,0,0-.572-.307ZM22.2,25.4V11.126H16.4a1.333,1.333,0,0,1-1.338-1.338v-5.8H4.355V25.4H22.2Zm-7.166-8.267a10.607,10.607,0,0,0,1.171.781,13.834,13.834,0,0,1,1.631-.1q2.049,0,2.468.683a.674.674,0,0,1,.028.725.04.04,0,0,1-.014.028l-.028.028V19.3q-.084.53-.99.53a5.751,5.751,0,0,1-1.6-.279,10.165,10.165,0,0,1-1.812-.739,25.1,25.1,0,0,0-5.465,1.157q-2.133,3.653-3.374,3.653a.811.811,0,0,1-.39-.1l-.335-.167q-.014-.014-.084-.07a.576.576,0,0,1-.084-.5A3.028,3.028,0,0,1,6.934,21.5a6.737,6.737,0,0,1,1.84-1.345.2.2,0,0,1,.321.084.08.08,0,0,1,.028.056q.725-1.185,1.492-2.746a21.278,21.278,0,0,0,1.45-3.653,11.269,11.269,0,0,1-.425-2.224A5.421,5.421,0,0,1,11.73,9.9q.153-.558.586-.558h.307a.588.588,0,0,1,.488.209,1.113,1.113,0,0,1,.125.948.3.3,0,0,1-.056.112.363.363,0,0,1,.014.112v.418a18.256,18.256,0,0,1-.2,2.677,7.053,7.053,0,0,0,2.035,3.318ZM7,22.864a6.156,6.156,0,0,0,1.91-2.2,7.947,7.947,0,0,0-1.22,1.171A4.634,4.634,0,0,0,7,22.864Zm5.549-12.826a4.145,4.145,0,0,0-.028,1.84q.014-.1.1-.613,0-.042.1-.6a.314.314,0,0,1,.056-.112.04.04,0,0,1-.014-.028.028.028,0,0,0-.007-.021.028.028,0,0,1-.007-.021.8.8,0,0,0-.181-.5.04.04,0,0,1-.014.028v.028Zm-1.729,9.215a20.448,20.448,0,0,1,3.959-1.129,2.1,2.1,0,0,1-.181-.132,2.5,2.5,0,0,1-.223-.188,7.385,7.385,0,0,1-1.77-2.454A18.63,18.63,0,0,1,11.451,18.1q-.418.781-.627,1.157Zm9.006-.223a3.336,3.336,0,0,0-1.952-.335,5.273,5.273,0,0,0,1.729.39,1.352,1.352,0,0,0,.251-.014q0-.014-.028-.042Z" transform="translate(-2.571 -2.203)" fill="#ebbd67"/>
</svg>
