<svg xmlns="http://www.w3.org/2000/svg" width="28.403" height="28.454" viewBox="0 0 28.403 28.454">
  <path id="Icon_feather-phone-call" data-name="Icon feather-phone-call" d="M19.456,6.536a6.3,6.3,0,0,1,4.973,4.973M19.456,1.5a11.331,11.331,0,0,1,10.009,10M28.206,21.542v3.777a2.518,2.518,0,0,1-2.745,2.518A24.915,24.915,0,0,1,14.6,23.972a24.549,24.549,0,0,1-7.554-7.554A24.915,24.915,0,0,1,3.178,5.5,2.518,2.518,0,0,1,5.683,2.759H9.46a2.518,2.518,0,0,1,2.518,2.165,16.165,16.165,0,0,0,.881,3.538,2.518,2.518,0,0,1-.567,2.656l-1.6,1.6a20.143,20.143,0,0,0,7.554,7.554l1.6-1.6a2.518,2.518,0,0,1,2.656-.567,16.165,16.165,0,0,0,3.538.881A2.518,2.518,0,0,1,28.206,21.542Z" transform="translate(-2.167 -0.396)" fill="none" stroke="#ebbd67" stroke-linecap="round" stroke-linejoin="round" stroke-width="2"/>
</svg>
