<svg id="Layer_2" data-name="Layer 2" xmlns="http://www.w3.org/2000/svg" width="229.076" height="254.137" viewBox="0 0 229.076 254.137">
  <g id="Group_494" data-name="Group 494" transform="translate(1 1)">
    <path id="Path_1777" data-name="Path 1777" d="M146.673,81.608l4.034,15.9,5.509-15.9S146.255,78.645,146.673,81.608Z" transform="translate(43.508 23.228)" fill="#f6ed30"/>
    <path id="Path_1778" data-name="Path 1778" d="M169.794,84.39l-9.974,15.9,17.821-7.22Z" transform="translate(47.529 24.481)" fill="#f6ed30"/>
    <path id="Path_1779" data-name="Path 1779" d="M177.638,106.96c-.418.209-17.808,0-17.808,0l16.32,9.753Z" transform="translate(47.532 31.377)" fill="#f6ed30"/>
    <path id="Path_1780" data-name="Path 1780" d="M27.565,98.739l3.394-17.6-11.45.64Z" transform="translate(4.656 23.488)" fill="#f6ed30"/>
    <path id="Path_1781" data-name="Path 1781" d="M19.239,101.852,7.149,86.89,1,98.457Z" transform="translate(-1 25.245)" fill="#f6ed30"/>
    <path id="Path_1782" data-name="Path 1782" d="M18.493,108.91H3.44l2.115,10.17Z" transform="translate(-0.254 31.973)" fill="#f6ed30"/>
    <path id="Path_1783" data-name="Path 1783" d="M150.333,97.707l6.789-14.622L147.16,80.33Z" transform="translate(43.661 23.24)" fill="none" stroke="#375565" stroke-linecap="round" stroke-linejoin="round" stroke-width="2"/>
    <path id="Path_1784" data-name="Path 1784" d="M159.99,100.148l17.377-7.585L169.1,84.22Z" transform="translate(47.581 24.429)" fill="none" stroke="#375565" stroke-linecap="round" stroke-linejoin="round" stroke-width="2"/>
    <path id="Path_1785" data-name="Path 1785" d="M159.99,107.048l16.111,9.961L179.5,105.99Z" transform="translate(47.581 31.081)" fill="none" stroke="#375565" stroke-linecap="round" stroke-linejoin="round" stroke-width="2"/>
    <path id="Path_1786" data-name="Path 1786" d="M26.863,97.707,30.689,80.33,19.03,81.6Z" transform="translate(4.509 23.24)" fill="none" stroke="#375565" stroke-linecap="round" stroke-linejoin="round" stroke-width="2"/>
    <path id="Path_1787" data-name="Path 1787" d="M19.656,102.043,6.718,86.99,1,97.578Z" transform="translate(-1 25.275)" fill="none" stroke="#375565" stroke-linecap="round" stroke-linejoin="round" stroke-width="2"/>
    <path id="Path_1788" data-name="Path 1788" d="M2.95,108.75l2.755,10.6s15.693-10.6,14.844-10.6Z" transform="translate(-0.404 31.924)" fill="none" stroke="#375565" stroke-linecap="round" stroke-linejoin="round" stroke-width="2"/>
    <g id="Group_493" data-name="Group 493" transform="translate(33.877)">
      <path id="Path_1789" data-name="Path 1789" d="M65.582,216.026c-.209,1.018.3-25.354,0-33.174s-2.807-15.928-2.951-23.448,3.081-28.161,3.081-28.161L73.1,124.31l-.731,22.116a70.994,70.994,0,0,0,21.189,2.65c12.716-.157,20.824-2.807,20.824-2.807l-.3-20.341,7.82,4.126s1.175,9.726,2.65,16.215,2.363,11.5,2.363,11.5-1.031,10.758-2.363,17.69-.731,39.506-.731,39.506-58.084.3-58.241,1.031Z" transform="translate(-16.047 36.679)" fill="rgba(0,133,215,0.2)"/>
      <path id="Path_1790" data-name="Path 1790" d="M54.593,87.56S52.087,79.6,60.782,76.645s25.955-.731,38.188-9.139a93.038,93.038,0,0,0,20.053-19.022s19.91,15.327,19.91,42.17l2.951-1.175a87.167,87.167,0,0,0,.731-26.829C140.7,48.053,124.78,24.318,94.7,27.269s-40.394,23-42.9,37.744.588,25.654.588,25.654l2.206-3.094Z" transform="translate(-19.655 6.95)" fill="rgba(0,133,215,0.5)"/>
      <path id="Path_1791" data-name="Path 1791" d="M75.05,26.186s8.7-3.094,15.915-2.65,14.152,1.175,14.152,1.175-7.651-7.376-15.471-7.22S77.1,19.123,75.05,26.186Z" transform="translate(-12.251 4.038)" fill="#fff"/>
      <path id="Path_1792" data-name="Path 1792" d="M102.478,24.581c.587-.144,3.982-2.206,4.126-8.108S103.065,3.94,90.532,3.94s-17.834,7.52-16.8,14.3,3.838,7.742,3.838,7.742A18.279,18.279,0,0,1,90.1,21.63C98.065,21.774,102.478,24.581,102.478,24.581Z" transform="translate(-12.692 -0.102)" fill="rgba(0,133,215,0.5)"/>
      <g id="Group_492" data-name="Group 492">
        <path id="Path_1793" data-name="Path 1793" d="M54.248,71.92C52.186,85.041,50.854,118.5,88.6,123.229v10.027" transform="translate(-18.866 20.67)" fill="none" stroke="#375565" stroke-linecap="round" stroke-linejoin="round" stroke-width="2"/>
        <path id="Path_1794" data-name="Path 1794" d="M93.46,133.976V123.219s15.184-1.619,22.7-9.726,10.471-22.7,8.108-43.932" transform="translate(-6.625 19.949)" fill="none" stroke="#375565" stroke-linecap="round" stroke-linejoin="round" stroke-width="2"/>
        <path id="Path_1795" data-name="Path 1795" d="M119.561,77.9s1.776-2.063,3.538-1.919,4.569,2.507,3.682,8.852-4.269,7.964-8.251,5.9" transform="translate(1.035 21.909)" fill="none" stroke="#375565" stroke-linecap="round" stroke-linejoin="round" stroke-width="2"/>
        <path id="Path_1796" data-name="Path 1796" d="M54.417,77.382c-3.538-3.094-9.583-2.363-7.376,7.22s7.207,7.455,9.061,5.418" transform="translate(-20.954 21.841)" fill="none" stroke="#375565" stroke-linecap="round" stroke-linejoin="round" stroke-width="2"/>
        <path id="Path_1797" data-name="Path 1797" d="M52.81,80.248c6.489-6.933,12.821-9,30.367-10.471s34.558-16.215,38.514-35.237" transform="translate(-19.046 9.249)" fill="none" stroke="#375565" stroke-linecap="round" stroke-linejoin="round" stroke-width="2"/>
        <path id="Path_1798" data-name="Path 1798" d="M105.57,45.38c-.17.731,14.714,13.852,13.682,30.89" transform="translate(-2.925 12.561)" fill="none" stroke="#375565" stroke-linecap="round" stroke-linejoin="round" stroke-width="2"/>
        <path id="Path_1799" data-name="Path 1799" d="M110.17,38.49c3.982,7.52,14.766,20.641,15.118,38.632" transform="translate(-1.519 10.456)" fill="none" stroke="#375565" stroke-linecap="round" stroke-linejoin="round" stroke-width="2"/>
        <path id="Path_1800" data-name="Path 1800" d="M103.386,26.86C98.229,47.645,87.314,59.147,72.575,63.272S51.79,78.456,51.79,78.456" transform="translate(-19.358 6.902)" fill="none" stroke="#375565" stroke-linecap="round" stroke-linejoin="round" stroke-width="2"/>
        <path id="Path_1801" data-name="Path 1801" d="M81.4,29.8C75.948,47.2,65.333,56.786,52.8,60.468" transform="translate(-19.049 7.8)" fill="none" stroke="#375565" stroke-linecap="round" stroke-linejoin="round" stroke-width="2"/>
        <path id="Path_1802" data-name="Path 1802" d="M144.715,92.284a55.059,55.059,0,0,0-2.65-47.47C132.038,26.392,113.617,21.966,95.182,22.7S58.326,34.787,53.012,51s-6.632,19.91-3.682,38.919" transform="translate(-20.58 5.607)" fill="none" stroke="#375565" stroke-linecap="round" stroke-linejoin="round" stroke-width="2"/>
        <path id="Path_1803" data-name="Path 1803" d="M74.71,25.775a15.719,15.719,0,0,1,15.145-8.852c11.241.431,14.1,8.6,14.1,8.6" transform="translate(-12.354 3.861)" fill="none" stroke="#375565" stroke-linecap="round" stroke-linejoin="round" stroke-width="2"/>
        <path id="Path_1804" data-name="Path 1804" d="M74.681,26.955C70.842,24.448,63.975,1,90.778,1s23.409,23.879,15.014,28.226" transform="translate(-13.5 -1)" fill="none" stroke="#375565" stroke-linecap="round" stroke-linejoin="round" stroke-width="2"/>
        <path id="Path_1805" data-name="Path 1805" d="M79.147,24.4c-2.872-4.426-9.766-8.852,1.5-20.8" transform="translate(-12.444 -0.206)" fill="none" stroke="#375565" stroke-linecap="round" stroke-linejoin="round" stroke-width="2"/>
        <path id="Path_1806" data-name="Path 1806" d="M85.711,2.47c-4.569,6.489-5.157,11.5-2.206,17.69" transform="translate(-10.222 -0.551)" fill="none" stroke="#375565" stroke-linecap="round" stroke-linejoin="round" stroke-width="2"/>
        <path id="Path_1807" data-name="Path 1807" d="M93.766,4.5c6.489,10.614,2.7,14.9-1.306,18.278" transform="translate(-6.931 0.069)" fill="none" stroke="#375565" stroke-linecap="round" stroke-linejoin="round" stroke-width="2"/>
        <path id="Path_1808" data-name="Path 1808" d="M97.12,66.617c6.136-10.471,13.656-10.471,13.513.731" transform="translate(-5.507 16.678)" fill="none" stroke="#375565" stroke-linecap="round" stroke-linejoin="round" stroke-width="2"/>
        <ellipse id="Ellipse_113" data-name="Ellipse 113" cx="1.697" cy="3.029" rx="1.697" ry="3.029" transform="translate(94.355 94.797)" fill="none" stroke="#375565" stroke-linecap="round" stroke-linejoin="round" stroke-width="2"/>
        <ellipse id="Ellipse_114" data-name="Ellipse 114" cx="1.697" cy="3.029" rx="1.697" ry="3.029" transform="translate(55.762 94.797)" fill="none" stroke="#375565" stroke-linecap="round" stroke-linejoin="round" stroke-width="2"/>
        <path id="Path_1809" data-name="Path 1809" d="M85.517,78.24,80.36,84.872l5.758,3.838" transform="translate(-10.628 22.602)" fill="none" stroke="#375565" stroke-linecap="round" stroke-linejoin="round" stroke-width="2"/>
        <path id="Path_1810" data-name="Path 1810" d="M99.354,90.78s-3.46,10.314-12.455,10.027S77.76,90.78,77.76,90.78" transform="translate(-11.423 26.433)" fill="none" stroke="#375565" stroke-linecap="round" stroke-linejoin="round" stroke-width="2"/>
        <path id="Path_1811" data-name="Path 1811" d="M85.484,120.36c-10.915,2.363-16.959,7.82-23.448,16.8S44.79,163.548,44.79,163.548" transform="translate(-21.497 35.472)" fill="none" stroke="#375565" stroke-linecap="round" stroke-linejoin="round" stroke-width="2"/>
        <path id="Path_1812" data-name="Path 1812" d="M43.753,104.031c.888-1.175-.587-5.013-4.269-2.951a35.345,35.345,0,0,0-10.314,8.108c-3.094,3.682-2.363,6.776-1.332,9.583s6.632,14.9,6.632,14.9-.3,12.677.3,26.986,2.206,27.717,5.744,34.937,6.345,4.126,10.758,0,13.265-14.453,19.309-20.641" transform="translate(-26.949 29.398)" fill="none" stroke="#375565" stroke-linecap="round" stroke-linejoin="round" stroke-width="2"/>
        <path id="Path_1813" data-name="Path 1813" d="M34.85,108.167c2.363-2.206,3.238-3.238,7.076-4.87s6.776,1.919,4.413,4.269" transform="translate(-24.534 30.131)" fill="none" stroke="#375565" stroke-linecap="round" stroke-linejoin="round" stroke-width="2"/>
        <path id="Path_1814" data-name="Path 1814" d="M37.45,110.76c11.646-7.964,14.087-4.569,11.907,0" transform="translate(-23.74 31.077)" fill="none" stroke="#375565" stroke-linecap="round" stroke-linejoin="round" stroke-width="2"/>
        <path id="Path_1815" data-name="Path 1815" d="M40.5,113.622c7.82-6.489,11.371-4.569,9.518,1.776s-3.773,5.314-5.392,5.013" transform="translate(-22.808 32.184)" fill="none" stroke="#375565" stroke-linecap="round" stroke-linejoin="round" stroke-width="2"/>
        <path id="Path_1816" data-name="Path 1816" d="M45.461,115.51c.2,10.17-4.961,12.677-4.961,12.677s.588,24.179,6.188,43.044" transform="translate(-22.808 33.99)" fill="none" stroke="#375565" stroke-linecap="round" stroke-linejoin="round" stroke-width="2"/>
        <path id="Path_1817" data-name="Path 1817" d="M97.12,119.35c15.275,3.8,16.228,10.17,27.952,21.973,9.687,9.74,14.6,23.448,14.6,23.448" transform="translate(-5.507 35.163)" fill="none" stroke="#375565" stroke-linecap="round" stroke-linejoin="round" stroke-width="2"/>
        <path id="Path_1818" data-name="Path 1818" d="M115.97,175.059c8.212,11.058,14.4,16.215,17.938,21.228s7.964,5.013,11.358-2.951,3.982-18.134,4.126-35.968,0-23,0-23,3.538-11.946,5.457-15.327,2.206-7.964-.588-10.314a69.555,69.555,0,0,0-10.027-6.933c-2.363-1.188-5.314-1.123-4.569,1.658" transform="translate(0.253 29.575)" fill="none" stroke="#375565" stroke-linecap="round" stroke-linejoin="round" stroke-width="2"/>
        <path id="Path_1819" data-name="Path 1819" d="M141.892,109.019c-8.108-6.893-11.5-6.136-11.5-2.389" transform="translate(4.659 30.415)" fill="none" stroke="#375565" stroke-linecap="round" stroke-linejoin="round" stroke-width="2"/>
        <path id="Path_1820" data-name="Path 1820" d="M138.992,110.546c-6.188-4.426-12.821-5.836-11.5-.039" transform="translate(3.721 31.29)" fill="none" stroke="#375565" stroke-linecap="round" stroke-linejoin="round" stroke-width="2"/>
        <path id="Path_1821" data-name="Path 1821" d="M135.246,113.855c-5.314-4.426-8.852-5.9-8.7-.888s1.919,7.716,4.126,7.611" transform="translate(3.485 32.25)" fill="none" stroke="#375565" stroke-linecap="round" stroke-linejoin="round" stroke-width="2"/>
        <path id="Path_1822" data-name="Path 1822" d="M130.069,116.19c-.065,5.013-1.4,9.139,4.348,12.233,0,0,1.919,24.623-5.157,42.614" transform="translate(4.314 34.198)" fill="none" stroke="#375565" stroke-linecap="round" stroke-linejoin="round" stroke-width="2"/>
        <path id="Path_1823" data-name="Path 1823" d="M133.39,144.98a35.735,35.735,0,0,0,10.653,1.619" transform="translate(5.576 42.995)" fill="none" stroke="#375565" stroke-linecap="round" stroke-linejoin="round" stroke-width="2"/>
        <path id="Path_1824" data-name="Path 1824" d="M132.19,153.45c3.094,2.063,8.76,1.776,11.972.888" transform="translate(5.209 45.583)" fill="none" stroke="#375565" stroke-linecap="round" stroke-linejoin="round" stroke-width="2"/>
        <path id="Path_1825" data-name="Path 1825" d="M129.71,160.68a16.615,16.615,0,0,0,14.087,4.387" transform="translate(4.451 47.792)" fill="none" stroke="#375565" stroke-linecap="round" stroke-linejoin="round" stroke-width="2"/>
        <path id="Path_1826" data-name="Path 1826" d="M128.814,159.44s-3.355,5.509-6.384,8.134" transform="translate(2.227 47.413)" fill="none" stroke="#375565" stroke-linecap="round" stroke-linejoin="round" stroke-width="2"/>
        <path id="Path_1827" data-name="Path 1827" d="M127.327,147.01c-3.277,6.489-5.039,9-10.5,14.009" transform="translate(0.516 43.615)" fill="none" stroke="#375565" stroke-linecap="round" stroke-linejoin="round" stroke-width="2"/>
        <path id="Path_1828" data-name="Path 1828" d="M123.4,140.58c-2.885,1.919-6.854,6.058-10.849,8.408" transform="translate(-0.792 41.65)" fill="none" stroke="#375565" stroke-linecap="round" stroke-linejoin="round" stroke-width="2"/>
        <path id="Path_1829" data-name="Path 1829" d="M116.346,132c-2.951,2.951-2.507,3.238-7.076,3.838" transform="translate(-1.794 39.029)" fill="none" stroke="#375565" stroke-linecap="round" stroke-linejoin="round" stroke-width="2"/>
        <path id="Path_1830" data-name="Path 1830" d="M60.37,132a8.5,8.5,0,0,0,4.426,3.838" transform="translate(-16.736 39.029)" fill="none" stroke="#375565" stroke-linecap="round" stroke-linejoin="round" stroke-width="2"/>
        <path id="Path_1831" data-name="Path 1831" d="M54.61,139.79c3.238,5.744,10.314,8.408,10.314,8.408" transform="translate(-18.496 41.409)" fill="none" stroke="#375565" stroke-linecap="round" stroke-linejoin="round" stroke-width="2"/>
        <path id="Path_1832" data-name="Path 1832" d="M49.53,147.92c2.807,8.7,11.058,15.04,11.058,15.04" transform="translate(-20.049 43.893)" fill="none" stroke="#375565" stroke-linecap="round" stroke-linejoin="round" stroke-width="2"/>
        <path id="Path_1833" data-name="Path 1833" d="M46.57,160.68a22,22,0,0,0,6.815,7.376" transform="translate(-20.953 47.792)" fill="none" stroke="#375565" stroke-linecap="round" stroke-linejoin="round" stroke-width="2"/>
        <path id="Path_1834" data-name="Path 1834" d="M35.64,164.738a33.416,33.416,0,0,0,11.306-2.3" transform="translate(-24.293 48.33)" fill="none" stroke="#375565" stroke-linecap="round" stroke-linejoin="round" stroke-width="2"/>
        <path id="Path_1835" data-name="Path 1835" d="M34.4,155.344c4.269,1.384,12.09-2.964,12.09-2.964" transform="translate(-24.672 45.256)" fill="none" stroke="#375565" stroke-linecap="round" stroke-linejoin="round" stroke-width="2"/>
        <path id="Path_1836" data-name="Path 1836" d="M33.72,146.777c3.394.875,11.176-2.337,11.176-2.337" transform="translate(-24.879 42.83)" fill="none" stroke="#375565" stroke-linecap="round" stroke-linejoin="round" stroke-width="2"/>
        <path id="Path_1837" data-name="Path 1837" d="M71.55,128.588c11.946,5.9,31.02,6.489,40.133-.888" transform="translate(-13.32 37.715)" fill="none" stroke="#375565" stroke-linecap="round" stroke-linejoin="round" stroke-width="2"/>
        <path id="Path_1838" data-name="Path 1838" d="M71.55,135.61c13.121,5.457,29.4,3.682,40.133.444" transform="translate(-13.32 40.132)" fill="none" stroke="#375565" stroke-linecap="round" stroke-linejoin="round" stroke-width="2"/>
        <path id="Path_1839" data-name="Path 1839" d="M71.192,125.56,70.2,145.9s6.841,1.919,20.667,1.776S112.8,145.17,112.8,145.17l-.705-19.61" transform="translate(-13.733 37.061)" fill="none" stroke="#375565" stroke-linecap="round" stroke-linejoin="round" stroke-width="2"/>
        <path id="Path_1840" data-name="Path 1840" d="M108.71,128.83a185.46,185.46,0,0,0,5.013,24.91l-3.094,24.623-1.175,35.681" transform="translate(-1.965 38.06)" fill="none" stroke="#375565" stroke-linecap="round" stroke-linejoin="round" stroke-width="2"/>
        <path id="Path_1841" data-name="Path 1841" d="M65.471,213.779V181.492s-2.951-19.61-2.951-26.686,3.094-25.067,3.094-25.067" transform="translate(-16.079 38.338)" fill="none" stroke="#375565" stroke-linecap="round" stroke-linejoin="round" stroke-width="2"/>
      </g>
    </g>
  </g>
</svg>
