<svg xmlns="http://www.w3.org/2000/svg" width="362.588" height="298.974" viewBox="0 0 362.588 298.974">
  <g id="Layer_2" data-name="Layer 2" transform="translate(0 0.014)">
    <g id="Group_487" data-name="Group 487">
      <path id="Path_1665" data-name="Path 1665" d="M208.04,298.96h-72.7s.7-51.96,0-55.46-1.63-6.52,1.86-11.18,12.58-16.31,17.01-20.04a54.08,54.08,0,0,1,10.49-6.52s-12.58,14.45-13.75,15.61-1.63,3.03,3.03,3.5,31.22-.47,31.22-.47,1.63-.7,4.66-3.96,13.05-18.41,13.05-18.41h6.99s-7.22,31.92-10.02,41.94-1.63,20.97,10.02,26.56l-1.86,28.43Z" fill="rgba(0,133,215,0.2)"/>
      <path id="Path_1666" data-name="Path 1666" d="M143.73,123.74a80.63,80.63,0,0,1,8.16-22.83c6.06-10.71,39.15-29.59,67.34-8.85s17.01,48.7,17.01,48.7-1.63-2.33-4.43,1.17-5.83,6.99-5.83,6.99-1.4-.47-1.63-4.66a16.646,16.646,0,0,1,.7-6.52s-2.56-8.62-4.89-15.84-.47-16.08-.47-16.08a85.8,85.8,0,0,0-36.35-3.03c-19.57,2.8-30.99,9.09-30.99,9.09l-8.62,11.88Z" fill="rgba(0,133,215,0.5)"/>
      <path id="Path_1667" data-name="Path 1667" d="M345.52,191.78s-1.17,13.51-5.36,19.11-12.35,8.85-12.35,8.85a17.446,17.446,0,0,1,11.88,4.89c5.12,5.12,5.83,19.57,5.83,19.57s.47-13.51,4.43-18.64,11.65-7.57,11.65-7.57-7.46-1.28-11.42-5.94-4.66-20.27-4.66-20.27Z" fill="rgba(0,133,215,0.2)"/>
      <path id="Path_1668" data-name="Path 1668" d="M308.73,224.28s-.79,9.16-3.63,12.95-8.37,6-8.37,6a11.787,11.787,0,0,1,8.05,3.32c3.47,3.48,3.95,13.27,3.95,13.27s.32-9.16,3-12.63,7.9-5.13,7.9-5.13-5.05-.87-7.74-4.03-3.16-13.74-3.16-13.74Z" fill="#91c2e0"/>
      <path id="Path_1669" data-name="Path 1669" d="M328.19,11.98s-1.17,13.51-5.36,19.11-12.35,8.85-12.35,8.85a17.446,17.446,0,0,1,11.88,4.89c5.12,5.12,5.83,19.57,5.83,19.57s.47-13.51,4.43-18.64,11.65-7.57,11.65-7.57-7.46-1.28-11.42-5.94-4.66-20.27-4.66-20.27Z" fill="rgba(0,133,215,0.2)"/>
      <path id="Path_1670" data-name="Path 1670" d="M287.75,40.51s-.79,9.16-3.63,12.95-8.37,6-8.37,6a11.787,11.787,0,0,1,8.05,3.32c3.47,3.48,3.95,13.27,3.95,13.27s.32-9.16,3-12.63,7.9-5.13,7.9-5.13-5.05-.87-7.74-4.03-3.16-13.74-3.16-13.74Z" fill="rgba(0,133,215,0.2)"/>
      <path id="Path_1671" data-name="Path 1671" d="M91.35.34s-1.17,13.51-5.36,19.11S73.64,28.3,73.64,28.3a17.446,17.446,0,0,1,11.88,4.89c5.12,5.12,5.83,19.57,5.83,19.57s.47-13.51,4.43-18.64,11.65-7.57,11.65-7.57-7.46-1.28-11.42-5.94S91.35.34,91.35.34Z" fill="rgba(0,133,215,0.2)"/>
      <path id="Path_1672" data-name="Path 1672" d="M16.71,48.64s-1.1,12.75-5.06,18.03S0,75.03,0,75.03a16.464,16.464,0,0,1,11.22,4.62c4.84,4.84,5.5,18.47,5.5,18.47s.44-12.75,4.18-17.59,11-7.15,11-7.15-7.04-1.21-10.78-5.61-4.4-19.13-4.4-19.13Z" fill="rgba(0,133,215,0.2)"/>
      <path id="Path_1673" data-name="Path 1673" d="M18.06,190.01s-1,11.62-4.61,16.43-10.62,7.61-10.62,7.61a15,15,0,0,1,10.22,4.21c4.41,4.41,5.01,16.83,5.01,16.83s.4-11.62,3.81-16.03,10.02-6.51,10.02-6.51-6.41-1.1-9.82-5.11-4.01-17.43-4.01-17.43Z" fill="#91c2e0"/>
      <path id="Path_1674" data-name="Path 1674" d="M56.76,177.63s-.82,9.53-3.78,13.48-8.71,6.25-8.71,6.25a12.315,12.315,0,0,1,8.38,3.45c3.61,3.61,4.11,13.81,4.11,13.81s.33-9.53,3.12-13.15,8.22-5.34,8.22-5.34-5.26-.9-8.05-4.19-3.29-14.3-3.29-14.3Z" fill="rgba(0,133,215,0.2)"/>
      <path id="Path_1675" data-name="Path 1675" d="M131.68,40.51s-.79,9.16-3.63,12.95-8.37,6-8.37,6a11.787,11.787,0,0,1,8.05,3.32c3.47,3.48,3.95,13.27,3.95,13.27s.32-9.16,3-12.63,7.9-5.13,7.9-5.13-5.05-.87-7.74-4.03-3.16-13.74-3.16-13.74Z" fill="#91c2e0"/>
      <path id="Path_1676" data-name="Path 1676" d="M232.54,97.53s8.48.87,12.84-3.58,5.24-14.59-3.76-21.5-18.35-8.13-21.84-1.22-2.36,11.52-2.36,11.52S230.09,94.39,232.54,97.53Z" fill="rgba(0,133,215,0.5)"/>
      <path id="Path_1677" data-name="Path 1677" d="M150.26,113.49c-7.92,15.15-13.05,22.14-10.72,43.11s20.74,30.29,41.71,30.29a66.969,66.969,0,0,1-4.66,13.98" fill="none" stroke="#375565" stroke-linecap="round" stroke-linejoin="round" stroke-width="2"/>
      <path id="Path_1678" data-name="Path 1678" d="M202.22,198.77l-2.56-3.03,1.28-10.95s18.99-3.73,22.49-23.77c0,0,13.28,3.03,15.38-8.39s-5.59-18.64-13.75-3.5c0,0-2.1-6.06,0-11.88,0,0-8.97-16.78-5.65-30.76" fill="none" stroke="#375565" stroke-linecap="round" stroke-linejoin="round" stroke-width="2"/>
      <path id="Path_1679" data-name="Path 1679" d="M227.15,102.77c.93,13.75,5.36,23.07,12,24.47" fill="none" stroke="#375565" stroke-linecap="round" stroke-linejoin="round" stroke-width="2"/>
      <path id="Path_1680" data-name="Path 1680" d="M239.15,141.91c3.15-4.19,3.84-20.74,0-32.39a40.154,40.154,0,0,0-12-17.94" fill="none" stroke="#375565" stroke-linecap="round" stroke-linejoin="round" stroke-width="2"/>
      <path id="Path_1681" data-name="Path 1681" d="M220.62,85.99c-8.39-6.52-20.97-11.88-42.41-6.76s-36.58,20.04-38.45,48" fill="none" stroke="#375565" stroke-linecap="round" stroke-linejoin="round" stroke-width="2"/>
      <path id="Path_1682" data-name="Path 1682" d="M212.47,77.19c.23-7.97,3.26-12.17,10.02-14.27s20.5-1.63,26.8,9.55,4.19,21.67-1.17,25.4a28.71,28.71,0,0,1-12.24,4.34" fill="none" stroke="#375565" stroke-linecap="round" stroke-linejoin="round" stroke-width="2"/>
      <path id="Path_1683" data-name="Path 1683" d="M233.15,96.94c-.17.84,11.48-.47,12.87-11.42" fill="none" stroke="#375565" stroke-linecap="round" stroke-linejoin="round" stroke-width="2"/>
      <path id="Path_1684" data-name="Path 1684" d="M228.31,91.34s12.25-3.95,13.46-16.53" fill="none" stroke="#375565" stroke-linecap="round" stroke-linejoin="round" stroke-width="2"/>
      <path id="Path_1685" data-name="Path 1685" d="M219.4,82.08c-1.11-5.87,8.36-12.4,13.41-13.1" fill="none" stroke="#375565" stroke-linecap="round" stroke-linejoin="round" stroke-width="2"/>
      <path id="Path_1686" data-name="Path 1686" d="M153.52,111.86s28.43-16.78,60.12-7.92" fill="none" stroke="#375565" stroke-linecap="round" stroke-linejoin="round" stroke-width="2"/>
      <path id="Path_1687" data-name="Path 1687" d="M151.19,106.6c12.35-11.53,38.91-22.48,60.35-16.88" fill="none" stroke="#375565" stroke-linecap="round" stroke-linejoin="round" stroke-width="2"/>
      <path id="Path_1688" data-name="Path 1688" d="M199.65,113.49c6.06-7.22,13.51-9.09,12.82,5.36" fill="none" stroke="#375565" stroke-linecap="round" stroke-linejoin="round" stroke-width="2"/>
      <path id="Path_1689" data-name="Path 1689" d="M201.52,118.85s-10.49,2.8-16.54,8.39c0,0,10.02,1.4,15.61,5.36" fill="none" stroke="#375565" stroke-linecap="round" stroke-linejoin="round" stroke-width="2"/>
      <path id="Path_1690" data-name="Path 1690" d="M171.46,127.23a29.448,29.448,0,0,0-6.52,3.26,23.752,23.752,0,0,1,5.36,6.29" fill="none" stroke="#375565" stroke-linecap="round" stroke-linejoin="round" stroke-width="2"/>
      <path id="Path_1691" data-name="Path 1691" d="M151.19,130.96l10.72-3.73-9.56-5.35" fill="none" stroke="#375565" stroke-linecap="round" stroke-linejoin="round" stroke-width="2"/>
      <path id="Path_1692" data-name="Path 1692" d="M156.55,144.94l43.11-1.4s-4.08,30.52-21.55,30.99-19.69-25.4-19.69-25.4" fill="none" stroke="#375565" stroke-linecap="round" stroke-linejoin="round" stroke-width="2"/>
      <path id="Path_1693" data-name="Path 1693" d="M169.6,203.66c-3.96,3.5-17.24,14.68-18.41,17.01s-2.8,5.83,5.36,5.36,30.29-1.63,30.29-1.63l16.08-20.74" fill="none" stroke="#375565" stroke-linecap="round" stroke-linejoin="round" stroke-width="2"/>
      <path id="Path_1694" data-name="Path 1694" d="M167.03,208.79c3.5,5.36,24.47.47,30.99-1.4" fill="none" stroke="#375565" stroke-linecap="round" stroke-linejoin="round" stroke-width="2"/>
      <path id="Path_1695" data-name="Path 1695" d="M156.55,219.04s34.9-.59,35.16-.92" fill="none" stroke="#375565" stroke-linecap="round" stroke-linejoin="round" stroke-width="2"/>
      <path id="Path_1696" data-name="Path 1696" d="M206.08,267.04c-5.03-5.59-7.83-10.72-6.43-21.67s9.32-42.87,9.32-42.87" fill="none" stroke="#375565" stroke-linecap="round" stroke-linejoin="round" stroke-width="2"/>
      <path id="Path_1697" data-name="Path 1697" d="M210.61,195.74s25.86-17.94,50.56-32.85,48.23-26.1,48.23-26.1,4.19-18.41,6.06-24.93,4.43-4.89,4.66,0-.7,12.35,5.83,6.99,10.49-10.95,15.15-14.45,7.69-.98,4.19,3.59-8.85,10.86-8.85,10.86a127.912,127.912,0,0,0,15.38-6.99c7.69-4.19,8.39-1.17,2.8,3.15s-14.21,10.72-14.21,10.72,7.46-1.75,14.91-3.84,7.46,3.03.7,5.36-13.28,4.78-13.28,4.78a50.313,50.313,0,0,0,10.25,2.21c6.06.7,4.89,3.96,0,4.19s-11.88.47-11.88.47-12.35,7.46-23.53,5.83" fill="none" stroke="#375565" stroke-linecap="round" stroke-linejoin="round" stroke-width="2"/>
      <path id="Path_1698" data-name="Path 1698" d="M312.43,146.34c-.7,0-46.6,30.38-90.17,79.73" fill="none" stroke="#375565" stroke-linecap="round" stroke-linejoin="round" stroke-width="2"/>
      <path id="Path_1699" data-name="Path 1699" d="M219.31,233.25s-11.97,24-10.34,64.54" fill="none" stroke="#375565" stroke-linecap="round" stroke-linejoin="round" stroke-width="2"/>
      <line id="Line_156" data-name="Line 156" x2="11.89" y2="1.17" transform="translate(199.65 253.29)" fill="none" stroke="#375565" stroke-linecap="round" stroke-linejoin="round" stroke-width="2"/>
      <path id="Path_1700" data-name="Path 1700" d="M201.52,236.98c.7-.23,8.83,1.77,14.2,5.66" fill="none" stroke="#375565" stroke-linecap="round" stroke-linejoin="round" stroke-width="2"/>
      <path id="Path_1701" data-name="Path 1701" d="M205.6,221.37s9.2,1.48,12.47,4.7" fill="none" stroke="#375565" stroke-linecap="round" stroke-linejoin="round" stroke-width="2"/>
      <path id="Path_1702" data-name="Path 1702" d="M215.72,192.23s8.09,16.55,10.34,29.14" fill="none" stroke="#375565" stroke-linecap="round" stroke-linejoin="round" stroke-width="2"/>
      <path id="Path_1703" data-name="Path 1703" d="M233.15,180.6s7.68,16.69,8.41,24.89" fill="none" stroke="#375565" stroke-linecap="round" stroke-linejoin="round" stroke-width="2"/>
      <path id="Path_1704" data-name="Path 1704" d="M248.35,172.44c.7,0,5.82,10.93,6.87,19.8" fill="none" stroke="#375565" stroke-linecap="round" stroke-linejoin="round" stroke-width="2"/>
      <path id="Path_1705" data-name="Path 1705" d="M258.7,164.38s5.61,9.45,7.41,17.96" fill="none" stroke="#375565" stroke-linecap="round" stroke-linejoin="round" stroke-width="2"/>
      <path id="Path_1706" data-name="Path 1706" d="M273.75,157.18c.7-.58,4.26,3.79,6.32,13.25" fill="none" stroke="#375565" stroke-linecap="round" stroke-linejoin="round" stroke-width="2"/>
      <path id="Path_1707" data-name="Path 1707" d="M169.36,200.87c-3.73-1.63-6.76-.47-10.49,2.8s-23.53,23.53-27.03,27.03-4.43,6.06-4.89,15.84,2.1,51.26,2.1,51.26" fill="none" stroke="#375565" stroke-linecap="round" stroke-linejoin="round" stroke-width="2"/>
      <path id="Path_1708" data-name="Path 1708" d="M141.4,213.21c-10.02-15.38-42.41-57.79-55.46-69.67a27.072,27.072,0,0,1-10.49-2.8c-4.66-2.57-8.62-5.35-8.62-5.35s-7.46-2.81-10.72-2.81-5.13-3.26,0-3.5,6.76,0,8.39,0,2.33-.93-.23-2.68-9.16-6.87-11.34-7.57-.78-2.56,2.95-2.1,6.99,2.56,9.79,3.96,6.29,1.17,1.86-2.8-6.52-7.74-8.39-9.93,0-6.38,3.73-2.66,6.52,4.43,9.09,8.16,4.19,4.05,2.8-.07-3.26-8.08-4.19-10.65,2.1-5.61,4.89,0,3.26,5.83,6.52,10.73a33.574,33.574,0,0,0,5.83,6.99s1.4-6.06,2.8-8.62,3.5-6.76,3.5,1.63,1.84,17.24,1.85,24.7" fill="none" stroke="#375565" stroke-linecap="round" stroke-linejoin="round" stroke-width="2"/>
      <path id="Path_1709" data-name="Path 1709" d="M98.76,140.52c6.06,7.22,29.13,26.33,41.01,37.75s22.14,21.87,22.14,21.87" fill="none" stroke="#375565" stroke-linecap="round" stroke-linejoin="round" stroke-width="2"/>
      <path id="Path_1710" data-name="Path 1710" d="M108.08,165.45s2.93-6.16,8.22-8.32" fill="none" stroke="#375565" stroke-linecap="round" stroke-linejoin="round" stroke-width="2"/>
      <path id="Path_1711" data-name="Path 1711" d="M116.3,176.17c.63-.47,3.95-8.85,9.4-10.72" fill="none" stroke="#375565" stroke-linecap="round" stroke-linejoin="round" stroke-width="2"/>
      <path id="Path_1712" data-name="Path 1712" d="M126.9,189.68s5.01-11.26,9.99-14.14" fill="none" stroke="#375565" stroke-linecap="round" stroke-linejoin="round" stroke-width="2"/>
      <path id="Path_1713" data-name="Path 1713" d="M134.81,203.66s8.63-13.11,13.32-17.27" fill="none" stroke="#375565" stroke-linecap="round" stroke-linejoin="round" stroke-width="2"/>
      <path id="Path_1714" data-name="Path 1714" d="M345.05,193.04c-1.15,5.55-2.33,16.91-7.69,20.17s-8.16,3.96-8.16,3.96-1.86-.23,3.03,1.86,10.02,4.66,10.72,11.65,3.26,17.3,4.43,8.18,2.1-16.34,7.69-17.5,9.79-2.56,3.03-4.89-11.42-11.18-11.42-17.71-.51-11.14-1.63-5.73Z" fill="none" stroke="#375565" stroke-linecap="round" stroke-linejoin="round" stroke-width="2"/>
      <path id="Path_1715" data-name="Path 1715" d="M308.16,225.45c-.84,4.06-1.7,12.37-5.62,14.75a25.4,25.4,0,0,1-5.96,2.9s-1.36-.17,2.22,1.36,7.33,3.41,7.84,8.52,2.39,12.65,3.24,5.98,1.53-11.95,5.62-12.8,7.16-1.87,2.22-3.58-8.35-8.18-8.35-12.95-.38-8.15-1.19-4.19Z" fill="none" stroke="#375565" stroke-linecap="round" stroke-linejoin="round" stroke-width="2"/>
      <path id="Path_1716" data-name="Path 1716" d="M328.53,14.52c-1.15,5.55-2.33,16.91-7.69,20.17s-8.16,3.96-8.16,3.96-1.86-.23,3.03,1.86,10.02,4.66,10.72,11.65,3.26,17.3,4.43,8.18,2.1-16.34,7.69-17.5,9.79-2.56,3.03-4.89-11.42-11.18-11.42-17.71-.51-11.14-1.63-5.73Z" fill="none" stroke="#375565" stroke-linecap="round" stroke-linejoin="round" stroke-width="2"/>
      <path id="Path_1717" data-name="Path 1717" d="M89.36,3.38c-1.15,5.55-2.33,16.91-7.69,20.17s-8.16,3.96-8.16,3.96-1.86-.23,3.03,1.86,10.02,4.66,10.72,11.65,3.26,17.3,4.43,8.18,2.1-16.34,7.69-17.5,9.79-2.56,3.03-4.89S90.99,15.63,90.99,9.1s-.51-11.14-1.63-5.73Z" fill="none" stroke="#375565" stroke-linecap="round" stroke-linejoin="round" stroke-width="2"/>
      <path id="Path_1718" data-name="Path 1718" d="M16.55,51.1c-1.06,5.13-2.15,15.61-7.1,18.62a31.7,31.7,0,0,1-7.53,3.66S.2,73.16,4.72,75.1s9.25,4.3,9.9,10.76,3.01,15.97,4.09,7.55,1.94-15.08,7.1-16.16,9.03-2.37,2.8-4.52S18.07,62.4,18.07,56.38s-.47-10.28-1.51-5.29Z" fill="none" stroke="#375565" stroke-linecap="round" stroke-linejoin="round" stroke-width="2"/>
      <path id="Path_1719" data-name="Path 1719" d="M286.61,38.65c-.84,4.06-1.7,12.37-5.62,14.75a25.4,25.4,0,0,1-5.96,2.9s-1.36-.17,2.22,1.36,7.33,3.41,7.84,8.52,2.39,12.65,3.24,5.98,1.53-11.95,5.62-12.8,7.16-1.87,2.22-3.58-8.35-8.18-8.35-12.95-.38-8.15-1.19-4.19Z" fill="none" stroke="#375565" stroke-linecap="round" stroke-linejoin="round" stroke-width="2"/>
      <path id="Path_1720" data-name="Path 1720" d="M131.77,42.38c-.84,4.06-1.7,12.37-5.62,14.75a25.4,25.4,0,0,1-5.96,2.9s-1.36-.17,2.22,1.36,7.33,3.41,7.84,8.52,2.39,12.65,3.24,5.98,1.53-11.95,5.62-12.8,7.16-1.87,2.22-3.58-8.35-8.18-8.35-12.95-.38-8.15-1.19-4.19Z" fill="none" stroke="#375565" stroke-linecap="round" stroke-linejoin="round" stroke-width="2"/>
      <path id="Path_1721" data-name="Path 1721" d="M55.61,178.54c-.84,4.06-1.7,12.37-5.62,14.75a24.859,24.859,0,0,1-5.96,2.9s-1.36-.17,2.22,1.36,7.33,3.41,7.84,8.52,2.39,12.65,3.24,5.98,1.53-11.95,5.62-12.8,7.16-1.87,2.22-3.58-8.35-8.18-8.35-12.95-.38-8.15-1.19-4.19Z" fill="none" stroke="#375565" stroke-linecap="round" stroke-linejoin="round" stroke-width="2"/>
      <path id="Path_1722" data-name="Path 1722" d="M16.8,190.81c-1.02,4.96-2.08,15.12-6.87,18.03a30.2,30.2,0,0,1-7.29,3.54s-1.67-.21,2.71,1.67,8.96,4.17,9.58,10.41,2.92,15.46,3.96,7.31,1.87-14.6,6.87-15.64,8.75-2.29,2.71-4.37-10.2-10-10.2-15.83-.46-9.96-1.46-5.12Z" fill="none" stroke="#375565" stroke-linecap="round" stroke-linejoin="round" stroke-width="2"/>
    </g>
  </g>
</svg>
