<svg xmlns="http://www.w3.org/2000/svg" width="27.908" height="27.822" viewBox="0 0 27.908 27.822">
  <path id="Path_2014" data-name="Path 2014" d="M15.318-18.133V-29.348a1.293,1.293,0,0,1,.15-.623,1.332,1.332,0,0,1,1.246-.666A1.431,1.431,0,0,1,17.9-30.1a1.18,1.18,0,0,1,.236.752v11.215H29.391a1.24,1.24,0,0,1,.623.172,1.284,1.284,0,0,1,.666,1.225,1.43,1.43,0,0,1-.537,1.182,1.18,1.18,0,0,1-.752.236H18.133V-4.1a1.2,1.2,0,0,1-.4.924,1.449,1.449,0,0,1-1.021.365,1.408,1.408,0,0,1-1.16-.537,1.18,1.18,0,0,1-.236-.752V-15.318H4.061a1.293,1.293,0,0,1-.623-.15,1.351,1.351,0,0,1-.666-1.268,1.408,1.408,0,0,1,.537-1.16,1.18,1.18,0,0,1,.752-.236Z" transform="translate(-2.771 30.637)" fill="#0085d7"/>
</svg>
