<svg id="Number" xmlns="http://www.w3.org/2000/svg" width="33" height="33" viewBox="0 0 33 33">
  <circle id="Ellipse_118" data-name="Ellipse 118" cx="16.5" cy="16.5" r="16.5" fill="#0085d7"/>
  <path id="Path_2013" data-name="Path 2013" d="M-3.481-2.437H5.166q.921,0,.921.876t-.921.876H-4.3q-1.336,0-1.336-1.213a2.243,2.243,0,0,1,.674-1.471q1.437-1.595,4.986-4.8,1.853-1.685,2.437-2.358A3.552,3.552,0,0,0,3.47-12.747a2.417,2.417,0,0,0-.91-2.01,3.69,3.69,0,0,0-2.392-.719,3.68,3.68,0,0,0-3.493,2.156,1.03,1.03,0,0,1-.932.663,1.2,1.2,0,0,1-.539-.135.785.785,0,0,1-.438-.775,2.226,2.226,0,0,1,.46-1.168A5.094,5.094,0,0,1-2.83-16.441,6.36,6.36,0,0,1,.191-17.16a6.319,6.319,0,0,1,3.481.921,3.909,3.909,0,0,1,1.909,3.526A4.422,4.422,0,0,1,4.425-9.849,32.253,32.253,0,0,1,1.662-7.277,61.455,61.455,0,0,0-3.481-2.437Z" transform="translate(17 26)" fill="#fff"/>
</svg>
