<svg id="Number" xmlns="http://www.w3.org/2000/svg" width="33" height="33" viewBox="0 0 33 33">
  <circle id="Ellipse_118" data-name="Ellipse 118" cx="16.5" cy="16.5" r="16.5" fill="#0085d7"/>
  <path id="Path_2012" data-name="Path 2012" d="M.988-16.026V-1.449A.883.883,0,0,1,.73-.8,1.01,1.01,0,0,1,0-.528a.913.913,0,0,1-.91-.528.921.921,0,0,1-.079-.393V-16.026a.844.844,0,0,1,.348-.719,1.037,1.037,0,0,1,.64-.2.956.956,0,0,1,.831.393A.865.865,0,0,1,.988-16.026Z" transform="translate(17 26)" fill="#fff"/>
</svg>
