<svg xmlns="http://www.w3.org/2000/svg" xmlns:xlink="http://www.w3.org/1999/xlink" width="370" height="305.732" viewBox="0 0 370 305.732">
  <defs>
    <clipPath id="clip-path">
      <rect id="Rectangle_85" data-name="Rectangle 85" width="197" height="181.31" fill="#fff"/>
    </clipPath>
    <clipPath id="clip-path-2">
      <rect id="Rectangle_86" data-name="Rectangle 86" width="197" height="181.31" fill="#0085d7"/>
    </clipPath>
  </defs>
  <g id="Group_550" data-name="Group 550" transform="translate(-360 -4219.268)">
    <rect id="施術風景3" width="370" height="280" rx="20" transform="translate(360 4245)" fill="#fff" opacity="0.8"/>
    <path id="Path_2008" data-name="Path 2008" d="M-21.182-45.732A15.018,15.018,0,0,1-7.91-38.408Q-3.955-32.373-3.955-23q0,8.408-2.959,14.121A17.23,17.23,0,0,1-11.865-2.9,15.248,15.248,0,0,1-21.24.117,15.063,15.063,0,0,1-34.6-7.178q-3.926-6.035-3.926-15.791,0-10.049,4.453-16.2A15.128,15.128,0,0,1-21.182-45.732Zm-.117,6.768q-3.9,0-6.357,4.043-2.637,4.395-2.637,12.1a26.77,26.77,0,0,0,1.611,9.932q2.461,6.035,7.5,6.035a7.108,7.108,0,0,0,5.947-3.369q3.047-4.277,3.047-12.627,0-7.822-2.725-12.217Q-17.314-38.965-21.3-38.965Zm46.553-2.988V-3.662a3.057,3.057,0,0,1-.82,2.168,4.186,4.186,0,0,1-3.223,1.26,3.865,3.865,0,0,1-3.457-1.611,3.2,3.2,0,0,1-.527-1.816V-41.953a2.973,2.973,0,0,1,1.582-2.754,4.714,4.714,0,0,1,2.4-.645,4.7,4.7,0,0,1,2.7.791A3,3,0,0,1,25.254-41.953Z" transform="translate(409 4265)" fill="#fff"/>
    <g id="Group_436" data-name="Group 436" transform="translate(17308 20176.381)">
      <path id="Path_792" data-name="Path 792" d="M87.1,189.766l-4.806.7,3.477,3.39-.821,4.786,4.3-2.26,4.3,2.26-.821-4.786,3.477-3.39-4.806-.7-2.149-4.349Z" transform="translate(-16877.691 -15893.329)" fill="#fff"/>
      <path id="Path_793" data-name="Path 793" d="M105.791,189.766l-4.806.7,3.477,3.39-.821,4.786,4.3-2.26,4.3,2.26-.821-4.786,3.477-3.39-4.8-.7-2.149-4.349Z" transform="translate(-16879.439 -15893.329)" fill="#fff"/>
      <path id="Path_794" data-name="Path 794" d="M124.478,189.766l-4.8.7,3.477,3.39-.821,4.786,4.3-2.26,4.3,2.26-.821-4.786,3.477-3.39-4.806-.7-2.149-4.349Z" transform="translate(-16881.186 -15893.329)" fill="#fff"/>
      <g id="Group_433" data-name="Group 433" transform="translate(-16870 -15876)" clip-path="url(#clip-path)">
        <path id="Path_795" data-name="Path 795" d="M86.969,6.795c-3.481.312-6.028,3.875-6.028,3.875s3.1,3.056,6.579,2.744,6.025-3.875,6.025-3.875-3.1-3.056-6.576-2.744" transform="translate(-7.566 -0.633)" fill="#fff"/>
        <path id="Path_796" data-name="Path 796" d="M77.977,7.307c-1.231,3.391-5.222,4.974-5.222,4.974s-2-3.917-.768-7.307S77.2,0,77.2,0s2,3.917.768,7.307" transform="translate(-6.69 0)" fill="#fff"/>
        <path id="Path_797" data-name="Path 797" d="M76.09,17.283c-2.886-2.047-7.036-.95-7.036-.95s.535,4.4,3.421,6.44,7.036.95,7.036.95-.535-4.4-3.421-6.44" transform="translate(-6.455 -1.5)" fill="#fff"/>
        <path id="Path_798" data-name="Path 798" d="M63.657,12.367c-.728,3.542-4.452,5.722-4.452,5.722s-2.544-3.568-1.815-7.106,4.452-5.722,4.452-5.722,2.543,3.564,1.815,7.106" transform="translate(-5.352 -0.492)" fill="#fff"/>
        <path id="Path_799" data-name="Path 799" d="M63.125,22.559c-3.148-1.572-7.089.147-7.089.147s1.162,4.266,4.31,5.838,7.089-.147,7.089-.147-1.162-4.266-4.31-5.838" transform="translate(-5.238 -2.046)" fill="#fff"/>
        <path id="Path_800" data-name="Path 800" d="M50.442,19.215c-.219,3.615-3.593,6.337-3.593,6.337s-3.02-3.138-2.8-6.753,3.595-6.337,3.595-6.337,3.02,3.138,2.8,6.753" transform="translate(-4.117 -1.165)" fill="#fff"/>
        <path id="Path_801" data-name="Path 801" d="M51.277,29.376C47.941,28.3,44.285,30.6,44.285,30.6s1.753,4.044,5.089,5.117,6.992-1.224,6.992-1.224-1.754-4.044-5.089-5.117" transform="translate(-4.139 -2.719)" fill="#fff"/>
        <path id="Path_802" data-name="Path 802" d="M39.076,27.709c.29,3.61-2.668,6.812-2.668,6.812s-3.427-2.651-3.717-6.261,2.667-6.811,2.667-6.811,3.428,2.649,3.719,6.259" transform="translate(-3.053 -2.005)" fill="#fff"/>
        <path id="Path_803" data-name="Path 803" d="M41.258,37.605c-3.454-.562-6.748,2.264-6.748,2.264s2.3,3.737,5.756,4.3S47.014,41.9,47.014,41.9s-2.3-3.737-5.756-4.3" transform="translate(-3.225 -3.509)" fill="#fff"/>
        <path id="Path_804" data-name="Path 804" d="M29.122,37.695c.792,3.528-1.689,7.141-1.689,7.141s-3.762-2.108-4.554-5.636,1.689-7.139,1.689-7.139,3.762,2.107,4.554,5.629" transform="translate(-2.125 -2.997)" fill="#fff"/>
        <path id="Path_805" data-name="Path 805" d="M32.611,47.1c-3.494-.037-6.359,3.253-6.359,3.253s2.8,3.352,6.292,3.389S38.9,50.489,38.9,50.489s-2.8-3.353-6.292-3.39" transform="translate(-2.453 -4.404)" fill="#fff"/>
        <path id="Path_806" data-name="Path 806" d="M20.758,49.015c1.279,3.371-.664,7.32-.664,7.32s-4.019-1.517-5.3-4.887.664-7.32.664-7.32,4.019,1.516,5.3,4.887" transform="translate(-1.342 -4.124)" fill="#fff"/>
        <path id="Path_807" data-name="Path 807" d="M25.508,57.712c-3.462.491-5.833,4.18-5.833,4.18s3.24,2.892,6.7,2.4,5.833-4.18,5.833-4.18-3.24-2.892-6.7-2.4" transform="translate(-1.839 -5.391)" fill="#fff"/>
        <path id="Path_808" data-name="Path 808" d="M14.178,61.495c1.746,3.138.384,7.34.384,7.34s-4.191-.883-5.937-4.019-.384-7.341-.384-7.341,4.191.883,5.937,4.021" transform="translate(-0.723 -5.373)" fill="#fff"/>
        <path id="Path_809" data-name="Path 809" d="M20.12,69.278c-3.353,1.016-5.173,5.029-5.173,5.029s3.618,2.361,6.976,1.347S27.1,70.625,27.1,70.625s-3.618-2.364-6.972-1.347" transform="translate(-1.397 -6.452)" fill="#fff"/>
        <path id="Path_810" data-name="Path 810" d="M9.583,74.958c2.182,2.823,1.448,7.2,1.448,7.2s-4.271-.219-6.452-3.048-1.453-7.2-1.453-7.2,4.27.219,6.452,3.048" transform="translate(-0.282 -6.722)" fill="#fff"/>
        <path id="Path_811" data-name="Path 811" d="M16.625,81.612c-3.167,1.529-4.384,5.785-4.384,5.785s3.921,1.773,7.087.244,4.385-5.778,4.385-5.778-3.92-1.773-7.088-.244" transform="translate(-1.144 -7.57)" fill="#fff"/>
        <path id="Path_812" data-name="Path 812" d="M7.17,89.231c2.573,2.445,2.491,6.883,2.491,6.883s-4.253.459-6.827-1.992S.344,87.239.344,87.239,4.6,86.78,7.17,89.231" transform="translate(-0.032 -8.152)" fill="#fff"/>
        <path id="Path_813" data-name="Path 813" d="M15.2,94.567c-2.905,2.012-3.482,6.405-3.482,6.405s4.136,1.131,7.036-.88,3.481-6.405,3.481-6.405-4.134-1.131-7.036.88" transform="translate(-1.095 -8.728)" fill="#fff"/>
        <path id="Path_814" data-name="Path 814" d="M7.036,104.076c2.905,2.012,3.482,6.405,3.482,6.405s-4.136,1.131-7.036-.88S0,103.2,0,103.2s4.134-1.131,7.036.88" transform="translate(0 -9.616)" fill="#fff"/>
        <path id="Path_815" data-name="Path 815" d="M15.878,107.957c-2.573,2.451-2.491,6.883-2.491,6.883s4.253.459,6.827-1.992,2.491-6.883,2.491-6.883-4.253-.459-6.826,1.992" transform="translate(-1.251 -9.902)" fill="#fff"/>
        <path id="Path_816" data-name="Path 816" d="M9.08,118.589c3.169,1.529,4.383,5.778,4.383,5.778s-3.92,1.772-7.087.244-4.383-5.778-4.383-5.778,3.92-1.773,7.087-.244" transform="translate(-0.187 -11.027)" fill="#fff"/>
        <path id="Path_817" data-name="Path 817" d="M18.5,120.932c-2.182,2.83-1.448,7.2-1.448,7.2s4.271-.22,6.452-3.048,1.448-7.2,1.448-7.2-4.27.219-6.452,3.048" transform="translate(-1.582 -11.019)" fill="#fff"/>
        <path id="Path_818" data-name="Path 818" d="M13.049,133.906c3.353,1.023,5.173,5.029,5.173,5.029S14.6,141.3,11.25,140.282s-5.173-5.032-5.173-5.032,3.618-2.363,6.972-1.347" transform="translate(-0.569 -12.494)" fill="#fff"/>
        <path id="Path_819" data-name="Path 819" d="M22.805,134.7c-1.746,3.138-.384,7.34-.384,7.34s4.191-.883,5.937-4.019.384-7.341.384-7.341-4.191.883-5.937,4.021" transform="translate(-2.049 -12.215)" fill="#fff"/>
        <path id="Path_820" data-name="Path 820" d="M18.809,148.289c3.462.491,5.832,4.18,5.832,4.18s-3.24,2.892-6.7,2.4-5.833-4.181-5.833-4.181,3.24-2.892,6.7-2.4" transform="translate(-1.132 -13.856)" fill="#fff"/>
        <path id="Path_821" data-name="Path 821" d="M28.653,147.567c-1.279,3.371.664,7.32.664,7.32s4.018-1.516,5.3-4.887-.664-7.32-.664-7.32-4.019,1.516-5.3,4.887" transform="translate(-2.638 -13.335)" fill="#fff"/>
        <path id="Path_822" data-name="Path 822" d="M26.225,161c3.494-.037,6.359,3.253,6.359,3.253s-2.8,3.352-6.292,3.39-6.359-3.253-6.359-3.253,2.8-3.353,6.292-3.39" transform="translate(-1.863 -15.05)" fill="#fff"/>
        <path id="Path_823" data-name="Path 823" d="M35.927,158.8c-.792,3.528,1.687,7.141,1.687,7.141s3.763-2.108,4.554-5.636-1.689-7.139-1.689-7.139-3.762,2.107-4.554,5.629" transform="translate(-3.344 -14.317)" fill="#fff"/>
        <path id="Path_824" data-name="Path 824" d="M35.156,172.068c3.454-.562,6.748,2.264,6.748,2.264s-2.3,3.737-5.756,4.3-6.748-2.264-6.748-2.264,2.3-3.737,5.756-4.3" transform="translate(-2.75 -16.077)" fill="#fff"/>
        <path id="Path_825" data-name="Path 825" d="M44.5,168.467c-.29,3.61,2.668,6.812,2.668,6.812s3.427-2.651,3.717-6.261-2.667-6.812-2.667-6.812-3.428,2.651-3.719,6.261" transform="translate(-4.158 -15.162)" fill="#fff"/>
        <path id="Path_826" data-name="Path 826" d="M45.453,181.563c3.336-1.076,6.993,1.224,6.993,1.224s-1.754,4.044-5.09,5.117-6.992-1.224-6.992-1.224,1.754-4.044,5.089-5.117" transform="translate(-3.773 -16.946)" fill="#fff"/>
        <path id="Path_827" data-name="Path 827" d="M54.215,176.649c.219,3.615,3.593,6.337,3.593,6.337s3.02-3.138,2.8-6.753-3.6-6.333-3.6-6.333-3.02,3.138-2.8,6.753" transform="translate(-5.067 -15.881)" fill="#fff"/>
        <path id="Path_828" data-name="Path 828" d="M62.212,174.3C30.485,160.973,9.984,129.438,9.984,93.966c0-43.211,31.3-78.855,72.561-84.6l.116.837C42.443,15.8,12.115,51.808,12.115,93.966c0,34.616,19.988,65.378,50.922,78.371Z" transform="translate(-0.934 -0.875)" fill="#fff"/>
        <path id="Path_829" data-name="Path 829" d="M129.046,6.795c3.481.312,6.026,3.875,6.026,3.875s-3.1,3.056-6.579,2.744-6.026-3.875-6.026-3.875,3.1-3.056,6.579-2.744" transform="translate(-11.447 -0.633)" fill="#fff"/>
        <path id="Path_830" data-name="Path 830" d="M138.634,7.307c1.231,3.39,5.226,4.97,5.226,4.97s2-3.917.768-7.307S139.405,0,139.405,0s-2,3.917-.768,7.307" transform="translate(-12.921)" fill="#fff"/>
        <path id="Path_831" data-name="Path 831" d="M140.147,17.283c2.886-2.047,7.036-.95,7.036-.95s-.535,4.4-3.421,6.44-7.036.95-7.036.95.535-4.4,3.421-6.44" transform="translate(-12.78 -1.5)" fill="#fff"/>
        <path id="Path_832" data-name="Path 832" d="M152.984,12.367c.728,3.542,4.452,5.722,4.452,5.722s2.543-3.564,1.815-7.106S154.8,5.261,154.8,5.261s-2.542,3.564-1.815,7.106" transform="translate(-14.288 -0.492)" fill="#fff"/>
        <path id="Path_833" data-name="Path 833" d="M153.012,22.559c3.147-1.572,7.089.147,7.089.147s-1.162,4.266-4.31,5.838S148.7,28.4,148.7,28.4s1.162-4.266,4.31-5.838" transform="translate(-13.9 -2.046)" fill="#fff"/>
        <path id="Path_834" data-name="Path 834" d="M166.21,19.215c.219,3.615,3.593,6.337,3.593,6.337s3.02-3.138,2.8-6.753-3.595-6.337-3.595-6.337-3.02,3.138-2.8,6.753" transform="translate(-15.535 -1.165)" fill="#fff"/>
        <path id="Path_835" data-name="Path 835" d="M164.791,29.376c3.335-1.076,6.993,1.224,6.993,1.224s-1.754,4.044-5.09,5.117-6.992-1.224-6.992-1.224,1.754-4.044,5.089-5.117" transform="translate(-14.927 -2.719)" fill="#fff"/>
        <path id="Path_836" data-name="Path 836" d="M177.575,27.709c-.29,3.61,2.668,6.812,2.668,6.812s3.427-2.651,3.717-6.261-2.667-6.811-2.667-6.811-3.428,2.649-3.719,6.259" transform="translate(-16.597 -2.005)" fill="#fff"/>
        <path id="Path_837" data-name="Path 837" d="M174.768,37.605c3.454-.562,6.748,2.264,6.748,2.264s-2.3,3.737-5.757,4.3-6.748-2.264-6.748-2.264,2.3-3.737,5.757-4.3" transform="translate(-15.8 -3.509)" fill="#fff"/>
        <path id="Path_838" data-name="Path 838" d="M187.517,37.695c-.792,3.528,1.686,7.141,1.686,7.141s3.763-2.108,4.554-5.636-1.689-7.139-1.689-7.139-3.761,2.107-4.553,5.629" transform="translate(-17.514 -2.997)" fill="#fff"/>
        <path id="Path_839" data-name="Path 839" d="M183.4,47.1c3.494-.037,6.359,3.253,6.359,3.253s-2.8,3.352-6.292,3.389-6.359-3.253-6.359-3.253,2.8-3.353,6.292-3.39" transform="translate(-16.554 -4.404)" fill="#fff"/>
        <path id="Path_840" data-name="Path 840" d="M195.85,49.015c-1.279,3.371.664,7.32.664,7.32s4.018-1.516,5.3-4.887-.664-7.32-.664-7.32-4.019,1.516-5.3,4.887" transform="translate(-18.266 -4.124)" fill="#fff"/>
        <path id="Path_841" data-name="Path 841" d="M190.513,57.712c3.462.491,5.833,4.18,5.833,4.18s-3.24,2.892-6.7,2.4-5.833-4.18-5.833-4.18,3.24-2.892,6.7-2.4" transform="translate(-17.181 -5.391)" fill="#fff"/>
        <path id="Path_842" data-name="Path 842" d="M202.379,61.495c-1.746,3.138-.384,7.34-.384,7.34s4.191-.883,5.937-4.019.384-7.341.384-7.341-4.191.883-5.937,4.021" transform="translate(-18.834 -5.373)" fill="#fff"/>
        <path id="Path_843" data-name="Path 843" d="M195.943,69.278c3.353,1.016,5.173,5.029,5.173,5.029s-3.618,2.364-6.972,1.347-5.173-5.029-5.173-5.029,3.618-2.364,6.972-1.347" transform="translate(-17.664 -6.452)" fill="#fff"/>
        <path id="Path_844" data-name="Path 844" d="M206.893,74.958c-2.182,2.83-1.448,7.2-1.448,7.2s4.271-.219,6.452-3.048,1.448-7.2,1.448-7.2-4.27.219-6.452,3.048" transform="translate(-19.193 -6.722)" fill="#fff"/>
        <path id="Path_845" data-name="Path 845" d="M199.5,81.614c3.167,1.529,4.384,5.778,4.384,5.778s-3.92,1.773-7.087.244-4.384-5.778-4.384-5.778,3.92-1.773,7.087-.244" transform="translate(-17.986 -7.571)" fill="#fff"/>
        <path id="Path_846" data-name="Path 846" d="M209.182,89.231c-2.573,2.45-2.491,6.883-2.491,6.883s4.253.459,6.827-1.992,2.491-6.883,2.491-6.883-4.253-.459-6.826,1.992" transform="translate(-19.32 -8.152)" fill="#fff"/>
        <path id="Path_847" data-name="Path 847" d="M201.035,94.567c2.905,2.012,3.482,6.405,3.482,6.405s-4.136,1.131-7.036-.88S194,93.687,194,93.687s4.134-1.131,7.036.88" transform="translate(-18.131 -8.728)" fill="#fff"/>
        <path id="Path_848" data-name="Path 848" d="M209.188,104.076c-2.905,2.012-3.482,6.405-3.482,6.405s4.134,1.131,7.036-.88,3.481-6.405,3.481-6.405-4.134-1.131-7.036.88" transform="translate(-19.228 -9.616)" fill="#fff"/>
        <path id="Path_849" data-name="Path 849" d="M200.475,107.957c2.572,2.451,2.491,6.883,2.491,6.883s-4.253.459-6.827-1.992-2.491-6.883-2.491-6.883,4.253-.459,6.826,1.992" transform="translate(-18.102 -9.902)" fill="#fff"/>
        <path id="Path_850" data-name="Path 850" d="M207.051,118.589c-3.167,1.529-4.384,5.778-4.384,5.778s3.92,1.772,7.087.244,4.384-5.778,4.384-5.778-3.92-1.773-7.087-.244" transform="translate(-18.944 -11.027)" fill="#fff"/>
        <path id="Path_851" data-name="Path 851" d="M197.971,120.932c2.182,2.83,1.448,7.2,1.448,7.2s-4.271-.22-6.452-3.048-1.448-7.2-1.448-7.2,4.271.219,6.452,3.048" transform="translate(-17.89 -11.019)" fill="#fff"/>
        <path id="Path_852" data-name="Path 852" d="M203.013,133.905c-3.353,1.023-5.173,5.029-5.173,5.029s3.618,2.364,6.972,1.347,5.173-5.029,5.173-5.029-3.618-2.363-6.972-1.347" transform="translate(-18.493 -12.493)" fill="#fff"/>
        <path id="Path_853" data-name="Path 853" d="M193.752,134.7c1.746,3.138.384,7.34.384,7.34s-4.191-.883-5.937-4.019-.384-7.341-.384-7.341,4.191.883,5.937,4.021" transform="translate(-17.509 -12.215)" fill="#fff"/>
        <path id="Path_854" data-name="Path 854" d="M197.212,148.289c-3.462.491-5.833,4.18-5.833,4.18s3.24,2.892,6.7,2.4,5.833-4.181,5.833-4.181-3.24-2.892-6.7-2.4" transform="translate(-17.889 -13.856)" fill="#fff"/>
        <path id="Path_855" data-name="Path 855" d="M187.955,147.567c1.279,3.371-.664,7.32-.664,7.32s-4.018-1.516-5.3-4.887.664-7.32.664-7.32,4.019,1.516,5.3,4.887" transform="translate(-16.97 -13.335)" fill="#fff"/>
        <path id="Path_856" data-name="Path 856" d="M189.782,161c-3.494-.037-6.359,3.253-6.359,3.253s2.8,3.352,6.292,3.39,6.359-3.253,6.359-3.253-2.8-3.353-6.292-3.39" transform="translate(-17.145 -15.05)" fill="#fff"/>
        <path id="Path_857" data-name="Path 857" d="M180.712,158.8c.792,3.528-1.689,7.141-1.689,7.141s-3.762-2.108-4.554-5.636,1.687-7.139,1.687-7.139,3.763,2.107,4.554,5.629" transform="translate(-16.293 -14.317)" fill="#fff"/>
        <path id="Path_858" data-name="Path 858" d="M180.867,172.068c-3.454-.562-6.748,2.264-6.748,2.264s2.3,3.737,5.757,4.3,6.748-2.264,6.748-2.264-2.3-3.737-5.756-4.3" transform="translate(-16.276 -16.077)" fill="#fff"/>
        <path id="Path_859" data-name="Path 859" d="M172.155,168.467c.29,3.61-2.668,6.812-2.668,6.812s-3.427-2.651-3.717-6.261,2.667-6.812,2.667-6.812,3.428,2.651,3.719,6.261" transform="translate(-15.493 -15.162)" fill="#fff"/>
        <path id="Path_860" data-name="Path 860" d="M170.615,181.563c-3.336-1.076-6.993,1.224-6.993,1.224s1.754,4.044,5.09,5.117,6.992-1.224,6.992-1.224-1.754-4.044-5.089-5.117" transform="translate(-15.294 -16.946)" fill="#fff"/>
        <path id="Path_861" data-name="Path 861" d="M162.437,176.65c-.219,3.615-3.595,6.337-3.595,6.337s-3.02-3.138-2.8-6.753,3.593-6.337,3.593-6.337,3.02,3.138,2.8,6.753" transform="translate(-14.584 -15.881)" fill="#fff"/>
        <path id="Path_862" data-name="Path 862" d="M147.608,174.3l-.826-1.965c30.934-12.992,50.922-43.749,50.922-78.371,0-42.153-30.328-78.16-70.546-83.763l.114-.819c41.265,5.745,72.564,41.37,72.564,84.582,0,35.477-20.5,67.011-52.228,80.335" transform="translate(-11.886 -0.879)" fill="#fff"/>
      </g>
      <path id="Path_863" data-name="Path 863" d="M87.1,189.766l-4.806.7,3.477,3.39-.821,4.786,4.3-2.26,4.3,2.26-.821-4.786,3.477-3.39-4.806-.7-2.149-4.349Z" transform="translate(-16877.691 -15893.329)" fill="#0085d7"/>
      <path id="Path_864" data-name="Path 864" d="M105.791,189.766l-4.806.7,3.477,3.39-.821,4.786,4.3-2.26,4.3,2.26-.821-4.786,3.477-3.39-4.8-.7-2.149-4.349Z" transform="translate(-16879.439 -15893.329)" fill="#0085d7"/>
      <path id="Path_865" data-name="Path 865" d="M124.478,189.766l-4.8.7,3.477,3.39-.821,4.786,4.3-2.26,4.3,2.26-.821-4.786,3.477-3.39-4.806-.7-2.149-4.349Z" transform="translate(-16881.186 -15893.329)" fill="#0085d7"/>
      <g id="Group_435" data-name="Group 435" transform="translate(-16870 -15876)" clip-path="url(#clip-path-2)">
        <path id="Path_866" data-name="Path 866" d="M86.969,6.795c-3.481.312-6.028,3.875-6.028,3.875s3.1,3.056,6.579,2.744,6.025-3.875,6.025-3.875-3.1-3.056-6.576-2.744" transform="translate(-7.566 -0.633)" fill="#0085d7"/>
        <path id="Path_867" data-name="Path 867" d="M77.977,7.307c-1.231,3.391-5.222,4.974-5.222,4.974s-2-3.917-.768-7.307S77.2,0,77.2,0s2,3.917.768,7.307" transform="translate(-6.69 0)" fill="#0085d7"/>
        <path id="Path_868" data-name="Path 868" d="M76.09,17.283c-2.886-2.047-7.036-.95-7.036-.95s.535,4.4,3.421,6.44,7.036.95,7.036.95-.535-4.4-3.421-6.44" transform="translate(-6.455 -1.5)" fill="#0085d7"/>
        <path id="Path_869" data-name="Path 869" d="M63.657,12.367c-.728,3.542-4.452,5.722-4.452,5.722s-2.544-3.568-1.815-7.106,4.452-5.722,4.452-5.722,2.543,3.564,1.815,7.106" transform="translate(-5.352 -0.492)" fill="#0085d7"/>
        <path id="Path_870" data-name="Path 870" d="M63.125,22.559c-3.148-1.572-7.089.147-7.089.147s1.162,4.266,4.31,5.838,7.089-.147,7.089-.147-1.162-4.266-4.31-5.838" transform="translate(-5.238 -2.046)" fill="#0085d7"/>
        <path id="Path_871" data-name="Path 871" d="M50.442,19.215c-.219,3.615-3.593,6.337-3.593,6.337s-3.02-3.138-2.8-6.753,3.595-6.337,3.595-6.337,3.02,3.138,2.8,6.753" transform="translate(-4.117 -1.165)" fill="#0085d7"/>
        <path id="Path_872" data-name="Path 872" d="M51.277,29.376C47.941,28.3,44.285,30.6,44.285,30.6s1.753,4.044,5.089,5.117,6.992-1.224,6.992-1.224-1.754-4.044-5.089-5.117" transform="translate(-4.139 -2.719)" fill="#0085d7"/>
        <path id="Path_873" data-name="Path 873" d="M39.076,27.709c.29,3.61-2.668,6.812-2.668,6.812s-3.427-2.651-3.717-6.261,2.667-6.811,2.667-6.811,3.428,2.649,3.719,6.259" transform="translate(-3.053 -2.005)" fill="#0085d7"/>
        <path id="Path_874" data-name="Path 874" d="M41.258,37.605c-3.454-.562-6.748,2.264-6.748,2.264s2.3,3.737,5.756,4.3S47.014,41.9,47.014,41.9s-2.3-3.737-5.756-4.3" transform="translate(-3.225 -3.509)" fill="#0085d7"/>
        <path id="Path_875" data-name="Path 875" d="M29.122,37.695c.792,3.528-1.689,7.141-1.689,7.141s-3.762-2.108-4.554-5.636,1.689-7.139,1.689-7.139,3.762,2.107,4.554,5.629" transform="translate(-2.125 -2.997)" fill="#0085d7"/>
        <path id="Path_876" data-name="Path 876" d="M32.611,47.1c-3.494-.037-6.359,3.253-6.359,3.253s2.8,3.352,6.292,3.389S38.9,50.489,38.9,50.489s-2.8-3.353-6.292-3.39" transform="translate(-2.453 -4.404)" fill="#0085d7"/>
        <path id="Path_877" data-name="Path 877" d="M20.758,49.015c1.279,3.371-.664,7.32-.664,7.32s-4.019-1.517-5.3-4.887.664-7.32.664-7.32,4.019,1.516,5.3,4.887" transform="translate(-1.342 -4.124)" fill="#0085d7"/>
        <path id="Path_878" data-name="Path 878" d="M25.508,57.712c-3.462.491-5.833,4.18-5.833,4.18s3.24,2.892,6.7,2.4,5.833-4.18,5.833-4.18-3.24-2.892-6.7-2.4" transform="translate(-1.839 -5.391)" fill="#0085d7"/>
        <path id="Path_879" data-name="Path 879" d="M14.178,61.495c1.746,3.138.384,7.34.384,7.34s-4.191-.883-5.937-4.019-.384-7.341-.384-7.341,4.191.883,5.937,4.021" transform="translate(-0.723 -5.373)" fill="#0085d7"/>
        <path id="Path_880" data-name="Path 880" d="M20.12,69.278c-3.353,1.016-5.173,5.029-5.173,5.029s3.618,2.361,6.976,1.347S27.1,70.625,27.1,70.625s-3.618-2.364-6.972-1.347" transform="translate(-1.397 -6.452)" fill="#0085d7"/>
        <path id="Path_881" data-name="Path 881" d="M9.583,74.958c2.182,2.823,1.448,7.2,1.448,7.2s-4.271-.219-6.452-3.048-1.453-7.2-1.453-7.2,4.27.219,6.452,3.048" transform="translate(-0.282 -6.722)" fill="#0085d7"/>
        <path id="Path_882" data-name="Path 882" d="M16.625,81.612c-3.167,1.529-4.384,5.785-4.384,5.785s3.921,1.773,7.087.244,4.385-5.778,4.385-5.778-3.92-1.773-7.088-.244" transform="translate(-1.144 -7.57)" fill="#0085d7"/>
        <path id="Path_883" data-name="Path 883" d="M7.17,89.231c2.573,2.445,2.491,6.883,2.491,6.883s-4.253.459-6.827-1.992S.344,87.239.344,87.239,4.6,86.78,7.17,89.231" transform="translate(-0.032 -8.152)" fill="#0085d7"/>
        <path id="Path_884" data-name="Path 884" d="M15.2,94.567c-2.905,2.012-3.482,6.405-3.482,6.405s4.136,1.131,7.036-.88,3.481-6.405,3.481-6.405-4.134-1.131-7.036.88" transform="translate(-1.095 -8.728)" fill="#0085d7"/>
        <path id="Path_885" data-name="Path 885" d="M7.036,104.076c2.905,2.012,3.482,6.405,3.482,6.405s-4.136,1.131-7.036-.88S0,103.2,0,103.2s4.134-1.131,7.036.88" transform="translate(0 -9.616)" fill="#0085d7"/>
        <path id="Path_886" data-name="Path 886" d="M15.878,107.957c-2.573,2.451-2.491,6.883-2.491,6.883s4.253.459,6.827-1.992,2.491-6.883,2.491-6.883-4.253-.459-6.826,1.992" transform="translate(-1.251 -9.902)" fill="#0085d7"/>
        <path id="Path_887" data-name="Path 887" d="M9.08,118.589c3.169,1.529,4.383,5.778,4.383,5.778s-3.92,1.772-7.087.244-4.383-5.778-4.383-5.778,3.92-1.773,7.087-.244" transform="translate(-0.187 -11.027)" fill="#0085d7"/>
        <path id="Path_888" data-name="Path 888" d="M18.5,120.932c-2.182,2.83-1.448,7.2-1.448,7.2s4.271-.22,6.452-3.048,1.448-7.2,1.448-7.2-4.27.219-6.452,3.048" transform="translate(-1.582 -11.019)" fill="#0085d7"/>
        <path id="Path_889" data-name="Path 889" d="M13.049,133.906c3.353,1.023,5.173,5.029,5.173,5.029S14.6,141.3,11.25,140.282s-5.173-5.032-5.173-5.032,3.618-2.363,6.972-1.347" transform="translate(-0.569 -12.494)" fill="#0085d7"/>
        <path id="Path_890" data-name="Path 890" d="M22.805,134.7c-1.746,3.138-.384,7.34-.384,7.34s4.191-.883,5.937-4.019.384-7.341.384-7.341-4.191.883-5.937,4.021" transform="translate(-2.049 -12.215)" fill="#0085d7"/>
        <path id="Path_891" data-name="Path 891" d="M18.809,148.289c3.462.491,5.832,4.18,5.832,4.18s-3.24,2.892-6.7,2.4-5.833-4.181-5.833-4.181,3.24-2.892,6.7-2.4" transform="translate(-1.132 -13.856)" fill="#0085d7"/>
        <path id="Path_892" data-name="Path 892" d="M28.653,147.567c-1.279,3.371.664,7.32.664,7.32s4.018-1.516,5.3-4.887-.664-7.32-.664-7.32-4.019,1.516-5.3,4.887" transform="translate(-2.638 -13.335)" fill="#0085d7"/>
        <path id="Path_893" data-name="Path 893" d="M26.225,161c3.494-.037,6.359,3.253,6.359,3.253s-2.8,3.352-6.292,3.39-6.359-3.253-6.359-3.253,2.8-3.353,6.292-3.39" transform="translate(-1.863 -15.05)" fill="#0085d7"/>
        <path id="Path_894" data-name="Path 894" d="M35.927,158.8c-.792,3.528,1.687,7.141,1.687,7.141s3.763-2.108,4.554-5.636-1.689-7.139-1.689-7.139-3.762,2.107-4.554,5.629" transform="translate(-3.344 -14.317)" fill="#0085d7"/>
        <path id="Path_895" data-name="Path 895" d="M35.156,172.068c3.454-.562,6.748,2.264,6.748,2.264s-2.3,3.737-5.756,4.3-6.748-2.264-6.748-2.264,2.3-3.737,5.756-4.3" transform="translate(-2.75 -16.077)" fill="#0085d7"/>
        <path id="Path_896" data-name="Path 896" d="M44.5,168.467c-.29,3.61,2.668,6.812,2.668,6.812s3.427-2.651,3.717-6.261-2.667-6.812-2.667-6.812-3.428,2.651-3.719,6.261" transform="translate(-4.158 -15.162)" fill="#0085d7"/>
        <path id="Path_897" data-name="Path 897" d="M45.453,181.563c3.336-1.076,6.993,1.224,6.993,1.224s-1.754,4.044-5.09,5.117-6.992-1.224-6.992-1.224,1.754-4.044,5.089-5.117" transform="translate(-3.773 -16.946)" fill="#0085d7"/>
        <path id="Path_898" data-name="Path 898" d="M54.215,176.649c.219,3.615,3.593,6.337,3.593,6.337s3.02-3.138,2.8-6.753-3.6-6.333-3.6-6.333-3.02,3.138-2.8,6.753" transform="translate(-5.067 -15.881)" fill="#0085d7"/>
        <path id="Path_899" data-name="Path 899" d="M62.212,174.3C30.485,160.973,9.984,129.438,9.984,93.966c0-43.211,31.3-78.855,72.561-84.6l.116.837C42.443,15.8,12.115,51.808,12.115,93.966c0,34.616,19.988,65.378,50.922,78.371Z" transform="translate(-0.934 -0.875)" fill="#0085d7"/>
        <path id="Path_900" data-name="Path 900" d="M129.046,6.795c3.481.312,6.026,3.875,6.026,3.875s-3.1,3.056-6.579,2.744-6.026-3.875-6.026-3.875,3.1-3.056,6.579-2.744" transform="translate(-11.447 -0.633)" fill="#0085d7"/>
        <path id="Path_901" data-name="Path 901" d="M138.634,7.307c1.231,3.39,5.226,4.97,5.226,4.97s2-3.917.768-7.307S139.405,0,139.405,0s-2,3.917-.768,7.307" transform="translate(-12.921)" fill="#0085d7"/>
        <path id="Path_902" data-name="Path 902" d="M140.147,17.283c2.886-2.047,7.036-.95,7.036-.95s-.535,4.4-3.421,6.44-7.036.95-7.036.95.535-4.4,3.421-6.44" transform="translate(-12.78 -1.5)" fill="#0085d7"/>
        <path id="Path_903" data-name="Path 903" d="M152.984,12.367c.728,3.542,4.452,5.722,4.452,5.722s2.543-3.564,1.815-7.106S154.8,5.261,154.8,5.261s-2.542,3.564-1.815,7.106" transform="translate(-14.288 -0.492)" fill="#0085d7"/>
        <path id="Path_904" data-name="Path 904" d="M153.012,22.559c3.147-1.572,7.089.147,7.089.147s-1.162,4.266-4.31,5.838S148.7,28.4,148.7,28.4s1.162-4.266,4.31-5.838" transform="translate(-13.9 -2.046)" fill="#0085d7"/>
        <path id="Path_905" data-name="Path 905" d="M166.21,19.215c.219,3.615,3.593,6.337,3.593,6.337s3.02-3.138,2.8-6.753-3.595-6.337-3.595-6.337-3.02,3.138-2.8,6.753" transform="translate(-15.535 -1.165)" fill="#0085d7"/>
        <path id="Path_906" data-name="Path 906" d="M164.791,29.376c3.335-1.076,6.993,1.224,6.993,1.224s-1.754,4.044-5.09,5.117-6.992-1.224-6.992-1.224,1.754-4.044,5.089-5.117" transform="translate(-14.927 -2.719)" fill="#0085d7"/>
        <path id="Path_907" data-name="Path 907" d="M177.575,27.709c-.29,3.61,2.668,6.812,2.668,6.812s3.427-2.651,3.717-6.261-2.667-6.811-2.667-6.811-3.428,2.649-3.719,6.259" transform="translate(-16.597 -2.005)" fill="#0085d7"/>
        <path id="Path_908" data-name="Path 908" d="M174.768,37.605c3.454-.562,6.748,2.264,6.748,2.264s-2.3,3.737-5.757,4.3-6.748-2.264-6.748-2.264,2.3-3.737,5.757-4.3" transform="translate(-15.8 -3.509)" fill="#0085d7"/>
        <path id="Path_909" data-name="Path 909" d="M187.517,37.695c-.792,3.528,1.686,7.141,1.686,7.141s3.763-2.108,4.554-5.636-1.689-7.139-1.689-7.139-3.761,2.107-4.553,5.629" transform="translate(-17.514 -2.997)" fill="#0085d7"/>
        <path id="Path_910" data-name="Path 910" d="M183.4,47.1c3.494-.037,6.359,3.253,6.359,3.253s-2.8,3.352-6.292,3.389-6.359-3.253-6.359-3.253,2.8-3.353,6.292-3.39" transform="translate(-16.554 -4.404)" fill="#0085d7"/>
        <path id="Path_911" data-name="Path 911" d="M195.85,49.015c-1.279,3.371.664,7.32.664,7.32s4.018-1.516,5.3-4.887-.664-7.32-.664-7.32-4.019,1.516-5.3,4.887" transform="translate(-18.266 -4.124)" fill="#0085d7"/>
        <path id="Path_912" data-name="Path 912" d="M190.513,57.712c3.462.491,5.833,4.18,5.833,4.18s-3.24,2.892-6.7,2.4-5.833-4.18-5.833-4.18,3.24-2.892,6.7-2.4" transform="translate(-17.181 -5.391)" fill="#0085d7"/>
        <path id="Path_913" data-name="Path 913" d="M202.379,61.495c-1.746,3.138-.384,7.34-.384,7.34s4.191-.883,5.937-4.019.384-7.341.384-7.341-4.191.883-5.937,4.021" transform="translate(-18.834 -5.373)" fill="#0085d7"/>
        <path id="Path_914" data-name="Path 914" d="M195.943,69.278c3.353,1.016,5.173,5.029,5.173,5.029s-3.618,2.364-6.972,1.347-5.173-5.029-5.173-5.029,3.618-2.364,6.972-1.347" transform="translate(-17.664 -6.452)" fill="#0085d7"/>
        <path id="Path_915" data-name="Path 915" d="M206.893,74.958c-2.182,2.83-1.448,7.2-1.448,7.2s4.271-.219,6.452-3.048,1.448-7.2,1.448-7.2-4.27.219-6.452,3.048" transform="translate(-19.193 -6.722)" fill="#0085d7"/>
        <path id="Path_916" data-name="Path 916" d="M199.5,81.614c3.167,1.529,4.384,5.778,4.384,5.778s-3.92,1.773-7.087.244-4.384-5.778-4.384-5.778,3.92-1.773,7.087-.244" transform="translate(-17.986 -7.571)" fill="#0085d7"/>
        <path id="Path_917" data-name="Path 917" d="M209.182,89.231c-2.573,2.45-2.491,6.883-2.491,6.883s4.253.459,6.827-1.992,2.491-6.883,2.491-6.883-4.253-.459-6.826,1.992" transform="translate(-19.32 -8.152)" fill="#0085d7"/>
        <path id="Path_918" data-name="Path 918" d="M201.035,94.567c2.905,2.012,3.482,6.405,3.482,6.405s-4.136,1.131-7.036-.88S194,93.687,194,93.687s4.134-1.131,7.036.88" transform="translate(-18.131 -8.728)" fill="#0085d7"/>
        <path id="Path_919" data-name="Path 919" d="M209.188,104.076c-2.905,2.012-3.482,6.405-3.482,6.405s4.134,1.131,7.036-.88,3.481-6.405,3.481-6.405-4.134-1.131-7.036.88" transform="translate(-19.228 -9.616)" fill="#0085d7"/>
        <path id="Path_920" data-name="Path 920" d="M200.475,107.957c2.572,2.451,2.491,6.883,2.491,6.883s-4.253.459-6.827-1.992-2.491-6.883-2.491-6.883,4.253-.459,6.826,1.992" transform="translate(-18.102 -9.902)" fill="#0085d7"/>
        <path id="Path_921" data-name="Path 921" d="M207.051,118.589c-3.167,1.529-4.384,5.778-4.384,5.778s3.92,1.772,7.087.244,4.384-5.778,4.384-5.778-3.92-1.773-7.087-.244" transform="translate(-18.944 -11.027)" fill="#0085d7"/>
        <path id="Path_922" data-name="Path 922" d="M197.971,120.932c2.182,2.83,1.448,7.2,1.448,7.2s-4.271-.22-6.452-3.048-1.448-7.2-1.448-7.2,4.271.219,6.452,3.048" transform="translate(-17.89 -11.019)" fill="#0085d7"/>
        <path id="Path_923" data-name="Path 923" d="M203.013,133.905c-3.353,1.023-5.173,5.029-5.173,5.029s3.618,2.364,6.972,1.347,5.173-5.029,5.173-5.029-3.618-2.363-6.972-1.347" transform="translate(-18.493 -12.493)" fill="#0085d7"/>
        <path id="Path_924" data-name="Path 924" d="M193.752,134.7c1.746,3.138.384,7.34.384,7.34s-4.191-.883-5.937-4.019-.384-7.341-.384-7.341,4.191.883,5.937,4.021" transform="translate(-17.509 -12.215)" fill="#0085d7"/>
        <path id="Path_925" data-name="Path 925" d="M197.212,148.289c-3.462.491-5.833,4.18-5.833,4.18s3.24,2.892,6.7,2.4,5.833-4.181,5.833-4.181-3.24-2.892-6.7-2.4" transform="translate(-17.889 -13.856)" fill="#0085d7"/>
        <path id="Path_926" data-name="Path 926" d="M187.955,147.567c1.279,3.371-.664,7.32-.664,7.32s-4.018-1.516-5.3-4.887.664-7.32.664-7.32,4.019,1.516,5.3,4.887" transform="translate(-16.97 -13.335)" fill="#0085d7"/>
        <path id="Path_927" data-name="Path 927" d="M189.782,161c-3.494-.037-6.359,3.253-6.359,3.253s2.8,3.352,6.292,3.39,6.359-3.253,6.359-3.253-2.8-3.353-6.292-3.39" transform="translate(-17.145 -15.05)" fill="#0085d7"/>
        <path id="Path_928" data-name="Path 928" d="M180.712,158.8c.792,3.528-1.689,7.141-1.689,7.141s-3.762-2.108-4.554-5.636,1.687-7.139,1.687-7.139,3.763,2.107,4.554,5.629" transform="translate(-16.293 -14.317)" fill="#0085d7"/>
        <path id="Path_929" data-name="Path 929" d="M180.867,172.068c-3.454-.562-6.748,2.264-6.748,2.264s2.3,3.737,5.757,4.3,6.748-2.264,6.748-2.264-2.3-3.737-5.756-4.3" transform="translate(-16.276 -16.077)" fill="#0085d7"/>
        <path id="Path_930" data-name="Path 930" d="M172.155,168.467c.29,3.61-2.668,6.812-2.668,6.812s-3.427-2.651-3.717-6.261,2.667-6.812,2.667-6.812,3.428,2.651,3.719,6.261" transform="translate(-15.493 -15.162)" fill="#0085d7"/>
        <path id="Path_931" data-name="Path 931" d="M170.615,181.563c-3.336-1.076-6.993,1.224-6.993,1.224s1.754,4.044,5.09,5.117,6.992-1.224,6.992-1.224-1.754-4.044-5.089-5.117" transform="translate(-15.294 -16.946)" fill="#0085d7"/>
        <path id="Path_932" data-name="Path 932" d="M162.437,176.65c-.219,3.615-3.595,6.337-3.595,6.337s-3.02-3.138-2.8-6.753,3.593-6.337,3.593-6.337,3.02,3.138,2.8,6.753" transform="translate(-14.584 -15.881)" fill="#0085d7"/>
        <path id="Path_933" data-name="Path 933" d="M147.608,174.3l-.826-1.965c30.934-12.992,50.922-43.749,50.922-78.371,0-42.153-30.328-78.16-70.546-83.763l.114-.819c41.265,5.745,72.564,41.37,72.564,84.582,0,35.477-20.5,67.011-52.228,80.335" transform="translate(-11.886 -0.879)" fill="#0085d7"/>
      </g>
      <path id="Path_2010" data-name="Path 2010" d="M11.88-13.2c0,.729,0,.729-.027,1.485H7.1a17.047,17.047,0,0,1-2.43-.108v2.565A17.8,17.8,0,0,1,7.1-9.369h4.563c-.081.648-.135.945-.243,1.458H4.347A17.448,17.448,0,0,1,1.62-8.046v2.835a24.849,24.849,0,0,1,2.889-.162h5.967A7.966,7.966,0,0,1,7.047-2.214,16.445,16.445,0,0,1,1.188-.567,8.9,8.9,0,0,1,2.619,2.241,17.518,17.518,0,0,0,9.207-.189a10.614,10.614,0,0,0,3.942-4.239A14.283,14.283,0,0,0,19.548.7,26.443,26.443,0,0,0,24.6,2.268,10.794,10.794,0,0,1,26-.648c-1.485-.27-2.322-.432-3-.621a17.116,17.116,0,0,1-4.752-1.836,9.192,9.192,0,0,1-2.511-2.268h6.885a23.683,23.683,0,0,1,2.916.162V-8.046a18.459,18.459,0,0,1-2.781.135H14.337c.108-.567.135-.783.216-1.458h5.211a17.594,17.594,0,0,1,2.4.108v-2.565a16.605,16.605,0,0,1-2.4.108H14.715c.027-.621.027-.621.054-1.485H20.2a15.376,15.376,0,0,1,2.565.135V-14.5h2.484a14.856,14.856,0,0,1-.108-2v-2.052a15.5,15.5,0,0,1,.108-1.971c-.918.081-1.62.108-3,.108h-7.4v-.621a8.2,8.2,0,0,1,.135-1.7H11.664a8.462,8.462,0,0,1,.162,1.7v.621H4.806a29.434,29.434,0,0,1-2.97-.108A16.665,16.665,0,0,1,1.944-18.5v2a10.535,10.535,0,0,1-.135,2H4.293v1.431A14.815,14.815,0,0,1,6.831-13.2ZM6.831-15.579a18.871,18.871,0,0,1-2.079-.081v-2.214H22.329v2.214c-.675.054-1.107.081-2.133.081H14.823a8.865,8.865,0,0,1,.108-1.728H11.8a12.9,12.9,0,0,1,.108,1.728ZM28.3-8.532A13.712,13.712,0,0,1,30.1-8.721c.189,0,.189,0,1.917-.135V-.81a22.88,22.88,0,0,1-.162,3.078h2.916A22.88,22.88,0,0,1,34.614-.81V-9.072c.621-.081.837-.108,1.431-.189.108.432.162.7.3,1.35l2.025-.756a28.757,28.757,0,0,0-2.025-5.427l-1.782.729a14.75,14.75,0,0,1,.756,1.728c-1.08.135-1.377.162-2.43.216.972-1.269,2.808-4.023,3.672-5.508a17.028,17.028,0,0,1,1.107-1.755l-2.457-1.242a26.9,26.9,0,0,1-2.376,4.482,15.2,15.2,0,0,0-.972-1.242A28.839,28.839,0,0,0,34.182-20.9c.27-.513.351-.675.54-1l-2.511-1.08a17.458,17.458,0,0,1-1.944,4.455q-.486-.526-.891-.972l-1.35,2.3a27.25,27.25,0,0,1,3.348,4.05c-.594.891-.594.891-1.3,1.836-.594.027-.621.027-.81.027A7.536,7.536,0,0,1,28-11.394ZM43.6-18.9v.918H40.878a17.585,17.585,0,0,1-2.295-.108V-15.9c.7-.054,1.188-.081,2.322-.081h2.7v1H39.879a16.36,16.36,0,0,1-2.592-.135v2.457a20.852,20.852,0,0,1,2.619-.108H50.517a17.371,17.371,0,0,1,2.511.135V-15.12a16.486,16.486,0,0,1-2.511.135H46.359v-1h3.024c1.107,0,1.566.027,2.241.081V-18.09a17.133,17.133,0,0,1-2.268.108h-3V-18.9h3.618a17.5,17.5,0,0,1,2.457.108v-2.4a17.26,17.26,0,0,1-2.565.135h-3.51a6.841,6.841,0,0,1,.162-1.674H43.47A9.291,9.291,0,0,1,43.6-21.06H40.473a16.87,16.87,0,0,1-2.538-.135v2.4a16.848,16.848,0,0,1,2.4-.108ZM42.066-1.944a13.944,13.944,0,0,1-6.1,2.268,6.882,6.882,0,0,1,1.4,2.16,14.633,14.633,0,0,0,6.7-3.078l-1.728-1.35H47.3L45.765-.513a17.407,17.407,0,0,0,6.291,3A11.425,11.425,0,0,1,53.514.135a12.819,12.819,0,0,1-5.7-2.079h1.539c.837,0,1.323.027,2.241.081a25.187,25.187,0,0,1-.108-2.673V-9.342A22.529,22.529,0,0,1,51.6-11.88a17.294,17.294,0,0,1-2.322.081H40.932c-1.134,0-1.566,0-2.241-.054.054.648.081,1.161.081,2.268V-4.4c0,.972-.027,1.89-.081,2.538a22.773,22.773,0,0,1,2.295-.081Zm-.648-7.992h7.4v.891h-7.4Zm0,2.565h7.4v.891h-7.4Zm0,2.538h7.4v.972h-7.4ZM29-7.614A25.719,25.719,0,0,1,27.891-.243L30.24,1a40.72,40.72,0,0,0,1.053-8.1Zm6.156.513a34.987,34.987,0,0,1,.756,5.967l2.106-.405a41.833,41.833,0,0,0-.891-5.967Z" transform="translate(-16800 -15801)" fill="#375565"/>
      <path id="Path_2009" data-name="Path 2009" d="M19.152.456c2.432,0,3.952.076,5.738.228V-4.332a39.926,39.926,0,0,1-5.548.3H8.7a9.16,9.16,0,0,1,2.166-3.42,33.244,33.244,0,0,1,4.522-3.8c4.94-3.382,5.32-3.686,6.384-4.674a7.713,7.713,0,0,0,2.7-6.08c0-5.206-4.1-8.4-10.754-8.4-3.8,0-6.8,1.178-8.7,3.382a11.4,11.4,0,0,0-2.622,6.08l5.434.646a7.222,7.222,0,0,1,1.178-3.5,5.369,5.369,0,0,1,4.826-2.242c3.23,0,5.244,1.6,5.244,4.18,0,1.938-1.064,3.192-4.56,5.586a52.33,52.33,0,0,0-6.27,4.6A18.754,18.754,0,0,0,3.04-4.218,19.416,19.416,0,0,0,2.052.646a35.021,35.021,0,0,1,4.9-.19Zm9.462-7.182A10.036,10.036,0,0,0,30.742-2.47C32.908,0,35.948,1.14,40.394,1.14c4.066,0,7.258-1.064,9.348-3.078a8.047,8.047,0,0,0,2.28-5.548A7.3,7.3,0,0,0,50.2-12.73c-1.33-1.482-2.736-2.128-5.434-2.546a9.38,9.38,0,0,0,3.686-1.482,6.928,6.928,0,0,0,2.622-5.586c0-4.94-4.1-8.132-10.45-8.132a12.338,12.338,0,0,0-7.448,2.09c-1.786,1.292-2.66,2.622-3.61,5.434L35-22.04a5.582,5.582,0,0,1,1.6-2.926,6.335,6.335,0,0,1,4.142-1.178c3.23,0,5.016,1.482,5.016,4.1,0,2.926-2.242,4.674-6.042,4.674a26.052,26.052,0,0,1-3.686-.19v4.712a32.448,32.448,0,0,1,4.066-.19,9.844,9.844,0,0,1,4.37.912,4.427,4.427,0,0,1,2.128,3.99c0,3-2.394,4.94-6.156,4.94a7.176,7.176,0,0,1-4.6-1.482c-.95-.76-1.292-1.368-1.786-3.116ZM59.387-6.2H58.112a20.952,20.952,0,0,1-2.725-.15V-3.5a21.5,21.5,0,0,1,2.725-.15h8.4V-.575a18.22,18.22,0,0,1-.15,2.725h3.05a15.054,15.054,0,0,1-.15-2.675V-3.65h5.8a21.223,21.223,0,0,1,2.725.15V-6.35a20.421,20.421,0,0,1-2.725.15h-5.8v-4.05h4.1a23.527,23.527,0,0,1,2.5.1V-12.8a18.352,18.352,0,0,1-2.575.125H69.262v-3.25h5.1a18.4,18.4,0,0,1,2.55.125v-2.725a17.752,17.752,0,0,1-2.55.125h-11.7c.45-.975.7-1.5.725-1.575.175-.375.225-.45.375-.75l-2.975-.6a7.221,7.221,0,0,1-.6,1.825,15.519,15.519,0,0,1-4.875,6.275A10.944,10.944,0,0,1,57.162-11a23.053,23.053,0,0,0,4.125-4.925h5.225v3.25h-5.45c-.675,0-1.225-.025-1.75-.075a13.726,13.726,0,0,1,.075,1.45Zm2.625,0v-4.05h4.5V-6.2ZM96.587-8.15c0-.975.025-1.6.075-2.25a20.106,20.106,0,0,1-2.325.1H88.762a20.385,20.385,0,0,1-2.325-.1c.05.675.075,1.375.075,2.25v6.1a17.235,17.235,0,0,1-.175,2.5h2.65V-.95h5.3c.2,0,.675,0,1.4.025a9.495,9.495,0,0,1,.65,2.575c1.275.075,1.375.075,1.725.075a7.615,7.615,0,0,0,2.825-.3c.9-.375,1.2-1.025,1.2-2.525V-17.475c0-1.25.025-1.875.1-2.775a22.426,22.426,0,0,1-2.575.1h-4.8a21.391,21.391,0,0,1-2.55-.1c.05.775.075,1.475.075,2.325V-14.1c0,1.075-.025,1.55-.075,2.275.625-.05,1.425-.075,2.3-.075h4.925V-1.45c0,.5-.225.675-.925.675-.45,0-1.35-.075-1.9-.125-.05-.65-.075-1.225-.075-2.175Zm-1.775-9.975h4.675v1.25H94.812Zm0,3.025h4.675v1.275H94.812ZM88.987-8.2h5.1v1.5h-5.1Zm0,3.525h5.1V-3.05h-5.1ZM83.762-11.9h4.525c.875,0,1.65.025,2.3.075-.05-.55-.075-1.125-.075-2.275v-3.825c0-.975.025-1.525.075-2.325a21.123,21.123,0,0,1-2.55.1H83.612a22.706,22.706,0,0,1-2.575-.1,27.717,27.717,0,0,1,.1,2.8V-1.125a22.349,22.349,0,0,1-.15,3.1h2.925a21.684,21.684,0,0,1-.15-3.075Zm0-6.225h4.3v1.25h-4.3Zm0,3.025h4.3v1.275h-4.3Z" transform="translate(-16824 -15749)" fill="#375565"/>
    </g>
  </g>
</svg>
