<svg xmlns="http://www.w3.org/2000/svg" width="370" height="336" viewBox="0 0 370 336">
  <g id="Group_542" data-name="Group 542" transform="translate(1980 -2527)">
    <g id="施術風景3" transform="translate(-1980 2527)" fill="#fff" stroke="#0085d7" stroke-width="1">
      <rect width="370" height="336" rx="20" stroke="none"/>
      <rect x="0.5" y="0.5" width="369" height="335" rx="19.5" fill="none"/>
    </g>
    <g id="Layer_2" data-name="Layer 2" transform="translate(-1849.084 2545.992)">
      <g id="Group_484" data-name="Group 484" transform="translate(1.016 1.01)">
        <path id="Path_1508" data-name="Path 1508" d="M45.57,144.828s6.971-37.243,25.511-71.31,38.2-47.7,64.339-62.6" transform="translate(-15.268 -4.18)" fill="none"/>
        <path id="Path_1509" data-name="Path 1509" d="M105.22,104.142l1.9-15.371-.952-5.387s-1.109-7.291,10.773-27.735S147.374,23,159.1,19.515c0,0-5.706-1.741-3.8-6.5" transform="translate(-34.349 -4.852)" fill="none"/>
        <path id="Path_1510" data-name="Path 1510" d="M87.226,311.2l4.278-.952s-6.5-42.154-8.4-55.151-3.013-30.585-3.013-30.585L77.4,221.975s-15.214.476-21.4-1.265-12.521-5.55-13-5.55-8.4,36.924-10.3,54.987-2.061,41.045-2.061,41.045l9.032-1.109S43,279.975,45.378,269.2s8.4-34.706,8.4-34.706,10.773.952,10.46,1.428,18.384,75.275,18.384,75.275a7.72,7.72,0,0,0,4.6,0Z" transform="translate(-10.492 -69.513)" fill="rgba(0,133,215,0.5)"/>
        <path id="Path_1511" data-name="Path 1511" d="M47.9,149.673s8.753-26.117,15.69-48.968S80.5,60.456,98.929,42.385A124.2,124.2,0,0,1,136.649,16.86l4.115,3.883s-18.7,6.427-26.939,17.363S94.012,64.754,91.244,71.4a51.381,51.381,0,0,0-3.435,12.514l-.129,4.278s1.428-3.013,2.537-.476a17.313,17.313,0,0,0,2.693,4.278l-1.666,9.664L87.68,112.75s5.23-3.013,8.4-4.754a14.963,14.963,0,0,0,4.91-4.434l.633-3.965s3.326-1.265,4.122,1.428.476,7.767.476,7.767a152.774,152.774,0,0,1,7.6,13.786c2.856,6.182,9.515,27.259,10.3,29.157s-.156,3.169-3.326,4.278-25.355,4.122-25.355,4.122l-.156-5.23,18.54-3.169s3.809-2.72,1.9-5.006-13.153-20.193-13.153-20.193,1.109,2.85-3.169,7.447-11.888,13.786-11.888,13.786L84.2,146.728l-4.91-1.333s-5.074.32-2.85,2.061a15,15,0,0,0,5.55,2.38l-4.91,1.109-1.109,3.645,2.693,2.061.476,1.265s-23.294,4.278-31.217-8.243Z" transform="translate(-16.013 -6.08)" fill="rgba(0,133,215,0.2)" opacity="0.5"/>
        <path id="Path_1512" data-name="Path 1512" d="M126.654,78.219c4.278-3.013,4.754-2.19,10.773,1.122s11.093,5.693,15.527,6.169a11.568,11.568,0,0,0,7.6-1.9s.156.952-1.428,9.032-5.23,9.828-5.23,9.828,8.719-2.85,9.664-9.032.8-13.942-5.074-19.016-16.479-8.4-21.709-5.23-10.141,9.032-10.141,9.032Z" transform="translate(-41.201 -22.422)" fill="rgba(0,133,215,0.5)"/>
        <path id="Path_1513" data-name="Path 1513" d="M168.125,63.513s5.23,2.061,7.923,6.339a7.378,7.378,0,0,0,4.278-2.217c2.061-2.061,3.319-7.134-1.115-9.664s-8.08-2.537-9.664.633-1.428,4.91-1.428,4.91Z" transform="translate(-54.468 -18.646)" fill="rgba(0,133,215,0.5)"/>
        <path id="Path_1514" data-name="Path 1514" d="M117.094,413.739a37.876,37.876,0,0,0,8.876,1.578,18.294,18.294,0,0,0,6.808-.789l2.217-1.9a13.03,13.03,0,0,1-4.278-2.217,36.5,36.5,0,0,0-3.965-2.537h-3.965l-4.91,3.013-.8,2.857Z" transform="translate(-38.143 -131.157)" fill="#91c2e0"/>
        <path id="Path_1515" data-name="Path 1515" d="M9.217,413.739a20.526,20.526,0,0,0,2.217,1.6s8.556.333,11.412,0a8.45,8.45,0,0,0,4.434-1.761V411.6l-3.489-1.517-2.85-2.217a27.412,27.412,0,0,1-6.658,3.013,21.294,21.294,0,0,0-5.074,1.9v.959Z" transform="translate(-3.637 -131.157)" fill="#91c2e0"/>
        <path id="Path_1516" data-name="Path 1516" d="M92.67,62.418s25.409-38.971,57.817-51.5" transform="translate(-30.335 -4.18)" fill="none" stroke="#375565" stroke-linecap="round" stroke-linejoin="round" stroke-width="1"/>
        <path id="Path_1517" data-name="Path 1517" d="M102.89,102.341c3.027-11.222,3.394-16.466,2.53-24.042,0,0,1.666-9.25,9.583-24.4s27.776-32.054,43.351-38.223c0,0-4.815-2.068-3.8-6.5a26.336,26.336,0,0,1,9.175-6.475c6.121-2.72,14.963-1.36,17-1.36s2.04,1.36,2.04,1.36" transform="translate(-33.604 -1.01)" fill="none" stroke="#375565" stroke-linecap="round" stroke-linejoin="round" stroke-width="1"/>
        <path id="Path_1518" data-name="Path 1518" d="M205.34,5.18s8.842-.68,11.562-.68,1.36,2.04,0,2.04" transform="translate(-66.376 -2.126)" fill="none" stroke="#375565" stroke-linecap="round" stroke-linejoin="round" stroke-width="1"/>
        <path id="Path_1519" data-name="Path 1519" d="M207.34,8.18s10.882-.68,12.242-.68,2.72,1.932,0,2.326-12.242.646-12.242.646" transform="translate(-67.016 -3.086)" fill="none" stroke="#375565" stroke-linecap="round" stroke-linejoin="round" stroke-width="1"/>
        <path id="Path_1520" data-name="Path 1520" d="M183.54,19.2a4.389,4.389,0,0,1,2.2-1.306c1.721-.592,5.169-.258,10.283,0,8.263.415,7.59-2.85,4-2.8" transform="translate(-59.402 -5.517)" fill="none" stroke="#375565" stroke-linecap="round" stroke-linejoin="round" stroke-width="1"/>
        <path id="Path_1521" data-name="Path 1521" d="M202.42,13.338c.354,0,9.862-.116,13.133-.238s2.074-1.966,0-1.843" transform="translate(-65.442 -4.286)" fill="none" stroke="#375565" stroke-linecap="round" stroke-linejoin="round" stroke-width="1"/>
        <path id="Path_1522" data-name="Path 1522" d="M122.03,79.122c2.258-5.468,5.053-9.685,12.9-12.541s18.88-3.632,26.389,7.311c7.951,11.589,4.876,27.8-8.2,31.319" transform="translate(-39.726 -21.4)" fill="none" stroke="#375565" stroke-linecap="round" stroke-linejoin="round" stroke-width="1"/>
        <path id="Path_1523" data-name="Path 1523" d="M165.719,116.2a7.629,7.629,0,0,1-1.19,0l-.3-1.483s6.774-7.427,7.726-16.52" transform="translate(-53.225 -32.099)" fill="none" stroke="#375565" stroke-linecap="round" stroke-linejoin="round" stroke-width="1"/>
        <path id="Path_1524" data-name="Path 1524" d="M172.62,110.437c.238-.177,5.822-8.141,5.883-15.037" transform="translate(-55.909 -31.204)" fill="none" stroke="#375565" stroke-linecap="round" stroke-linejoin="round" stroke-width="1"/>
        <path id="Path_1525" data-name="Path 1525" d="M163.184,86.658c-4.516,2.734-15.33,3.979-21.158.476s-12.065-7.9-15.806-2.85" transform="translate(-41.067 -26.917)" fill="none" stroke="#375565" stroke-linecap="round" stroke-linejoin="round" stroke-width="1"/>
        <path id="Path_1526" data-name="Path 1526" d="M159.176,79.168c-4.577,4.278-12.419,5.291-18.717,2.2s-9.018-3.319-11.909.449" transform="translate(-41.812 -25.963)" fill="none" stroke="#375565" stroke-linecap="round" stroke-linejoin="round" stroke-width="1"/>
        <path id="Path_1527" data-name="Path 1527" d="M137.23,72.946c6.42,2.612,13.786,2.435,18.363-1.306" transform="translate(-44.589 -23.603)" fill="none" stroke="#375565" stroke-linecap="round" stroke-linejoin="round" stroke-width="1"/>
        <path id="Path_1528" data-name="Path 1528" d="M165.39,62.53c-.02-2.625.279-4.706,2.476-6.9s8.855-2.38,12.956,1.721,3.326,9.984,1.483,12.126-6.339,2.244-6.339,2.244" transform="translate(-53.596 -17.989)" fill="none" stroke="#375565" stroke-linecap="round" stroke-linejoin="round" stroke-width="1"/>
        <path id="Path_1529" data-name="Path 1529" d="M180.05,72.75c.3.082,5.468-2.952,5.883-7.23" transform="translate(-58.286 -21.646)" fill="none" stroke="#375565" stroke-linecap="round" stroke-linejoin="round" stroke-width="1"/>
        <path id="Path_1530" data-name="Path 1530" d="M173.58,66.762s3.033-6.42,7.338-7.012" transform="translate(-56.216 -19.8)" fill="none" stroke="#375565" stroke-linecap="round" stroke-linejoin="round" stroke-width="1"/>
        <path id="Path_1531" data-name="Path 1531" d="M172.472,57.74a9.367,9.367,0,0,0-3.652,7" transform="translate(-54.694 -19.157)" fill="none" stroke="#375565" stroke-linecap="round" stroke-linejoin="round" stroke-width="1"/>
        <path id="Path_1532" data-name="Path 1532" d="M121.164,87.6a5.255,5.255,0,0,0-1.306-1.9c-.714-.476-2.612-.238-3.741,2.258s-.177,4.162,1.367,4.278" transform="translate(-37.677 -28.036)" fill="none" stroke="#375565" stroke-linecap="round" stroke-linejoin="round" stroke-width="1"/>
        <path id="Path_1533" data-name="Path 1533" d="M117.857,94.5a32.569,32.569,0,0,0-2.34,6.318c-.755,3.2.32,10.338,5.128,13.487a19.845,19.845,0,0,1-2.673,3.088,3.622,3.622,0,0,1-2.673.476" transform="translate(-37.573 -30.916)" fill="none" stroke="#375565" stroke-linecap="round" stroke-linejoin="round" stroke-width="1"/>
        <path id="Path_1534" data-name="Path 1534" d="M126.334,137.309c-.537-.952-1.483-2.911-.354-4.815s2.68-4.04,2.68-4.04,5.407,3.326,9.624,3.326,9.447-4.319,9.447-4.319,2.38,3.788,5.529,1.646,1.428-4.876,1.428-4.876" transform="translate(-40.821 -40.426)" fill="none" stroke="#375565" stroke-linecap="round" stroke-linejoin="round" stroke-width="1"/>
        <path id="Path_1535" data-name="Path 1535" d="M163.27,101.3s2.435-2.02,3.775-.83-1.279,5.346-1.279,5.346" transform="translate(-52.918 -32.707)" fill="none" stroke="#375565" stroke-linecap="round" stroke-linejoin="round" stroke-width="1"/>
        <ellipse id="Ellipse_105" data-name="Ellipse 105" cx="1.489" cy="0.986" rx="1.489" ry="0.986" transform="translate(104.003 75.368) rotate(-43.62)" fill="none" stroke="#375565" stroke-linecap="round" stroke-linejoin="round" stroke-width="1"/>
        <ellipse id="Ellipse_106" data-name="Ellipse 106" cx="1.489" cy="0.986" rx="1.489" ry="0.986" transform="translate(90.88 63.567) rotate(-43.62)" fill="none" stroke="#375565" stroke-linecap="round" stroke-linejoin="round" stroke-width="1"/>
        <path id="Path_1536" data-name="Path 1536" d="M143.936,103.31H140.1l.68,2.578" transform="translate(-45.507 -33.734)" fill="none" stroke="#375565" stroke-linecap="round" stroke-linejoin="round" stroke-width="1"/>
        <path id="Path_1537" data-name="Path 1537" d="M140.8,112.889a5.545,5.545,0,0,1-7.774.32c-2.972-2.51-1.075-6.128,0-7.168" transform="translate(-42.735 -34.607)" fill="none" stroke="#375565" stroke-linecap="round" stroke-linejoin="round" stroke-width="1"/>
        <path id="Path_1538" data-name="Path 1538" d="M119.393,138.21A23.3,23.3,0,0,1,105.6,145.3c2.938-7.454,3.836-9.46,5.3-14.616s2.006-10.249-2.292-12.358" transform="translate(-34.471 -38.539)" fill="none" stroke="#375565" stroke-linecap="round" stroke-linejoin="round" stroke-width="1"/>
        <path id="Path_1539" data-name="Path 1539" d="M112.07,141.92a9.921,9.921,0,0,0,6.7,5.407" transform="translate(-36.54 -46.085)" fill="none" stroke="#375565" stroke-linecap="round" stroke-linejoin="round" stroke-width="1"/>
        <path id="Path_1540" data-name="Path 1540" d="M125.57,134.97c5.625,2.51,6.2,3.367,5.91,7.094s-9.1,9.426-17.2,9.923" transform="translate(-37.247 -43.861)" fill="none" stroke="#375565" stroke-linecap="round" stroke-linejoin="round" stroke-width="1"/>
        <path id="Path_1541" data-name="Path 1541" d="M129.818,150c1.9,1.381,2.3,2.013,4.434,6.373s15.445,33.6,15.888,37.318.8,5.468-2.074,6.339-21.73,4.672-26.089,4.836-6.237-.871-6.237-.871" transform="translate(-37.714 -48.669)" fill="none" stroke="#375565" stroke-linecap="round" stroke-linejoin="round" stroke-width="1"/>
        <path id="Path_1542" data-name="Path 1542" d="M126.824,180.45s9.746,17.669,10.78,19.73,1.34,3.564-1.666,3.965-18.928,2.537-18.928,2.537" transform="translate(-38.121 -58.41)" fill="none" stroke="#375565" stroke-linecap="round" stroke-linejoin="round" stroke-width="1"/>
        <path id="Path_1543" data-name="Path 1543" d="M116.846,225.349a14.374,14.374,0,0,0-.326-6.339" transform="translate(-37.964 -70.744)" fill="none" stroke="#375565" stroke-linecap="round" stroke-linejoin="round" stroke-width="1"/>
        <path id="Path_1544" data-name="Path 1544" d="M106.515,215.092h-1.836s-3.156-4.836-3.788-5.944-1.19-1.211-2.85-1.673a38.712,38.712,0,0,0-7.685-.7c-1.347.082-1.979,1.585.476,2.061a56.524,56.524,0,0,1,5.944,1.666s.32.871-1.5.952-4.04.476-5.23.476-1.5,1.585-.394,1.741" transform="translate(-29.149 -66.826)" fill="none" stroke="#375565" stroke-linecap="round" stroke-linejoin="round" stroke-width="1"/>
        <path id="Path_1545" data-name="Path 1545" d="M95.54,216.679s-5.8.082-6.822,0-2.129,1.741.483,1.9l6.339.394" transform="translate(-28.709 -69.998)" fill="none" stroke="#375565" stroke-linecap="round" stroke-linejoin="round" stroke-width="1"/>
        <path id="Path_1546" data-name="Path 1546" d="M107.2,225.2a15.864,15.864,0,0,1-5.8,0,12.786,12.786,0,0,1-5.312-2.38c-1.034-.877-2.8-1.19-4.455-1.585s-3.611-1.85-1.251-1.707" transform="translate(-29.252 -70.906)" fill="none" stroke="#375565" stroke-linecap="round" stroke-linejoin="round" stroke-width="1"/>
        <path id="Path_1547" data-name="Path 1547" d="M93.586,162.39c-1.9,8.957-8.719,16.071-11.65,20.676s-5.23,7.508-4.122,9.5,2.36,4.278-.286,4.169-3.917-.428-5.659-.51-2.38.952.156,2.142,3.326,1.4,3.013,2.884" transform="translate(-23.191 -52.633)" fill="none" stroke="#375565" stroke-linecap="round" stroke-linejoin="round" stroke-width="1"/>
        <path id="Path_1548" data-name="Path 1548" d="M76.17,181.765s-24.4,4.815-33.04-10.943c0,0,8.182-40.773,31.367-78.642" transform="translate(-14.488 -30.174)" fill="none" stroke="#375565" stroke-linecap="round" stroke-linejoin="round" stroke-width="1"/>
        <path id="Path_1549" data-name="Path 1549" d="M36.988,216.68c-4.434,16.724-9.352,63.469-9.828,95.645H39.674s2.061-45.8,12.521-76.384l6.5-.476" transform="translate(-9.379 -69.999)" fill="none" stroke="#375565" stroke-linecap="round" stroke-linejoin="round" stroke-width="1"/>
        <path id="Path_1550" data-name="Path 1550" d="M77.03,249.19c0,.633,16.894,73.534,16.894,73.534l13.643-1.109" transform="translate(-25.332 -80.398)" fill="none" stroke="#375565" stroke-linecap="round" stroke-linejoin="round" stroke-width="1"/>
        <path id="Path_1551" data-name="Path 1551" d="M102.456,230.69c-.177.381,2.353,24.226,4.89,39.719s6.835,41.956,6.835,41.956" transform="translate(-33.462 -74.481)" fill="none" stroke="#375565" stroke-linecap="round" stroke-linejoin="round" stroke-width="1"/>
        <path id="Path_1552" data-name="Path 1552" d="M104.52,358.94s5.55,20.288,6.971,24.879a50.139,50.139,0,0,1,1.728,10.3s-1.367,3.013-1.068,4.754-1.088,2.217,2.693,2.537,16.3,1.109,18.758.633,3.747-2.68.721-3.958-11.072-3.176-13.466-6.5c0,0-.082-1.109-2.108-9.032s-4.876-23.614-4.876-23.614" transform="translate(-34.125 -115.506)" fill="none" stroke="#375565" stroke-linecap="round" stroke-linejoin="round" stroke-width="1"/>
        <path id="Path_1553" data-name="Path 1553" d="M119.23,410.109a1.859,1.859,0,0,0,1.836-.952c.53-1.109-.707-2.38,1.258-2.061a6.892,6.892,0,0,0,3.244-.156" transform="translate(-38.831 -130.86)" fill="none" stroke="#375565" stroke-linecap="round" stroke-linejoin="round" stroke-width="1"/>
        <path id="Path_1554" data-name="Path 1554" d="M20.069,358.94c-.156,1.428-1.741,28.211-2.061,30.428s.633-.8-1.741,2.217-5.074,3.8-7.6,4.6-4.278,1.918-6.019,1.911-3.326,4.094,2.217,4.1,15.058.462,17.588,0,3.489-1.1,3.013-3.319-1.428-1.258-1.109-5.7,4.122-34.237,4.122-34.237" transform="translate(-1.016 -115.506)" fill="none" stroke="#375565" stroke-linecap="round" stroke-linejoin="round" stroke-width="1"/>
        <path id="Path_1555" data-name="Path 1555" d="M23.43,406.94c1.741,1.109,2.85,1.428,4.6,2.38a6.628,6.628,0,0,0,3.421.8" transform="translate(-8.186 -130.86)" fill="none" stroke="#375565" stroke-linecap="round" stroke-linejoin="round" stroke-width="1"/>
      </g>
    </g>
    <path id="Path_2006" data-name="Path 2006" d="M-21.182-45.732A15.018,15.018,0,0,1-7.91-38.408Q-3.955-32.373-3.955-23q0,8.408-2.959,14.121A17.23,17.23,0,0,1-11.865-2.9,15.248,15.248,0,0,1-21.24.117,15.063,15.063,0,0,1-34.6-7.178q-3.926-6.035-3.926-15.791,0-10.049,4.453-16.2A15.128,15.128,0,0,1-21.182-45.732Zm-.117,6.768q-3.9,0-6.357,4.043-2.637,4.395-2.637,12.1a26.77,26.77,0,0,0,1.611,9.932q2.461,6.035,7.5,6.035a7.108,7.108,0,0,0,5.947-3.369q3.047-4.277,3.047-12.627,0-7.822-2.725-12.217Q-17.314-38.965-21.3-38.965ZM14.326-8.174H34.541a2.686,2.686,0,0,1,2.021.82,3.863,3.863,0,0,1,1.055,2.813,3.5,3.5,0,0,1-1.553,3.223,2.777,2.777,0,0,1-1.523.41H9.58Q4.834-.908,4.834-5.1a9.17,9.17,0,0,1,2.607-5.83Q10.752-14.854,20.127-22.5a49.463,49.463,0,0,0,6.006-5.566,7.868,7.868,0,0,0,2.109-4.951,5.273,5.273,0,0,0-2.549-4.658,8.188,8.188,0,0,0-4.6-1.289,8.467,8.467,0,0,0-7.852,4.775,3.749,3.749,0,0,1-3.428,2.168,3.994,3.994,0,0,1-2.021-.557,3.189,3.189,0,0,1-1.729-2.93A7.007,7.007,0,0,1,7.705-39.7a13.478,13.478,0,0,1,4.541-3.809,18.321,18.321,0,0,1,8.936-2.227,17.258,17.258,0,0,1,9.4,2.549A11.509,11.509,0,0,1,36.475-32.93a12.177,12.177,0,0,1-3.223,8.262A66.047,66.047,0,0,1,25.4-17.93,92.569,92.569,0,0,0,14.326-8.174Z" transform="translate(-1931 2594)" fill="#0085d7"/>
  </g>
</svg>
