<svg xmlns="http://www.w3.org/2000/svg" width="280" height="321" viewBox="0 0 280 321">
  <g id="Group_559" data-name="Group 559" transform="translate(-360 -4057)">
    <g id="IMG20230814163249_2" data-name="IMG20230814163249~2" transform="translate(360 4098)" fill="#fff" stroke="#0085d7" stroke-width="1">
      <rect width="280" height="280" rx="20" stroke="none"/>
      <rect x="0.5" y="0.5" width="279" height="279" rx="19.5" fill="none"/>
    </g>
    <g id="Ellipse_121" data-name="Ellipse 121" transform="translate(467 4057)" fill="#fff" stroke="#0085d7" stroke-width="1">
      <circle cx="33" cy="33" r="33" stroke="none"/>
      <circle cx="33" cy="33" r="32.5" fill="none"/>
    </g>
    <path id="Path_2025" data-name="Path 2025" d="M-10.591-22.866A7.509,7.509,0,0,1-3.955-19.2,13.8,13.8,0,0,1-1.978-11.5,15.232,15.232,0,0,1-3.457-4.438,8.615,8.615,0,0,1-5.933-1.45,7.624,7.624,0,0,1-10.62.059,7.532,7.532,0,0,1-17.3-3.589a14.265,14.265,0,0,1-1.963-7.9,13.509,13.509,0,0,1,2.227-8.1A7.564,7.564,0,0,1-10.591-22.866Zm-.059,3.384a3.643,3.643,0,0,0-3.179,2.021,11.758,11.758,0,0,0-1.318,6.05,13.385,13.385,0,0,0,.806,4.966q1.23,3.018,3.75,3.018A3.554,3.554,0,0,0-7.617-5.112q1.523-2.139,1.523-6.313a11.581,11.581,0,0,0-1.362-6.108A3.625,3.625,0,0,0-10.649-19.482ZM11.66-4.98H3.223A2.09,2.09,0,0,1,1.611-5.6a2.01,2.01,0,0,1-.5-1.392,4.341,4.341,0,0,1,.557-1.89L8.394-22.1a1.566,1.566,0,0,1,1.494-.923,2.168,2.168,0,0,1,1.216.366A1.565,1.565,0,0,1,11.88-21.3a2.252,2.252,0,0,1-.278,1.025L5.42-8.394h6.24v-8.335a1.378,1.378,0,0,1,.439-1.055,1.958,1.958,0,0,1,1.377-.483,1.651,1.651,0,0,1,1.641.864,1.487,1.487,0,0,1,.146.674v8.335h2.944q1.436,0,1.436,1.7a1.562,1.562,0,0,1-.791,1.567,1.364,1.364,0,0,1-.645.146H15.264v3.267a1.444,1.444,0,0,1-.352,1,1.785,1.785,0,0,1-1.436.6,1.721,1.721,0,0,1-1.611-.82,1.463,1.463,0,0,1-.205-.776Z" transform="translate(500 4095)" fill="#0085d7"/>
    <path id="Path_2024" data-name="Path 2024" d="M-18.41-3.516V-.7a.584.584,0,0,1-.164.422.8.8,0,0,1-.6.229.728.728,0,0,1-.65-.3.6.6,0,0,1-.1-.346V-5.906a.577.577,0,0,1,.146-.4.746.746,0,0,1,.568-.223.656.656,0,0,1,.633.34.557.557,0,0,1,.07.281v.615a3.514,3.514,0,0,1,.6-.8,1.886,1.886,0,0,1,1.318-.5,1.519,1.519,0,0,1,1.037.381.822.822,0,0,1,.311.627.745.745,0,0,1-.17.469.733.733,0,0,1-.6.3.634.634,0,0,1-.4-.129.793.793,0,0,0-.5-.17Q-17.795-5.115-18.41-3.516Zm5.209.6a1.618,1.618,0,0,0,.5,1.148,1.8,1.8,0,0,0,1.289.48A2.032,2.032,0,0,0-9.9-1.928a.529.529,0,0,1,.4-.182.661.661,0,0,1,.475.217.674.674,0,0,1,.2.486.873.873,0,0,1-.322.627,3.216,3.216,0,0,1-2.32.8,3.269,3.269,0,0,1-2.15-.715A3.15,3.15,0,0,1-14.76-3.275a3.433,3.433,0,0,1,.645-2.1,2.924,2.924,0,0,1,2.5-1.213,2.791,2.791,0,0,1,2.191.979A2.728,2.728,0,0,1-8.689-3.75a.934.934,0,0,1-.17.639.805.805,0,0,1-.609.2Zm.023-1.178h2.76q.182,0,.182-.146a1.013,1.013,0,0,0-.264-.639,1.375,1.375,0,0,0-1.131-.5,1.587,1.587,0,0,0-.814.223A1.446,1.446,0,0,0-13.178-4.09Zm10.395-1.6.035-.381q.041-.48.627-.48a.653.653,0,0,1,.645.357.633.633,0,0,1,.059.275V-.686a.691.691,0,0,1-.088.352.633.633,0,0,1-.586.287.608.608,0,0,1-.656-.592l-.064-.4A2.083,2.083,0,0,1-4.8,0,2.615,2.615,0,0,1-7.107-1.207a3.636,3.636,0,0,1-.574-2.074A3.469,3.469,0,0,1-7.1-5.291,2.79,2.79,0,0,1-5.854-6.322a2.756,2.756,0,0,1,1.107-.229A2.322,2.322,0,0,1-2.783-5.689Zm-.123,2.508V-3.65a1.567,1.567,0,0,0-.48-1.137,1.536,1.536,0,0,0-1.125-.492A1.406,1.406,0,0,0-5.7-4.664a2.272,2.272,0,0,0-.4,1.377,2.5,2.5,0,0,0,.281,1.225,1.4,1.4,0,0,0,1.295.779,1.405,1.405,0,0,0,.973-.4A1.941,1.941,0,0,0-2.906-3.182Zm5.725-3.4a3.51,3.51,0,0,1,2.039.533.822.822,0,0,1,.416.68.728.728,0,0,1-.141.428.619.619,0,0,1-.527.264.812.812,0,0,1-.48-.205,2.12,2.12,0,0,0-1.33-.463q-.949,0-.949.539a.541.541,0,0,0,.34.492,3.633,3.633,0,0,0,.381.141A17.647,17.647,0,0,1,4.529-3.5a1.623,1.623,0,0,1,.979,1.553A1.717,1.717,0,0,1,4.723-.434,3.309,3.309,0,0,1,2.865.023,3.754,3.754,0,0,1,.656-.586a1.08,1.08,0,0,1-.562-.832.689.689,0,0,1,.135-.4.583.583,0,0,1,.5-.264.666.666,0,0,1,.463.205,2.312,2.312,0,0,0,1.664.627q1.049,0,1.049-.562,0-.381-.527-.639A17.053,17.053,0,0,0,1.74-3.006,1.709,1.709,0,0,1,.334-4.723,1.653,1.653,0,0,1,1.3-6.252,3.147,3.147,0,0,1,2.818-6.586Zm6.814,0a2.911,2.911,0,0,1,2.18.879,3.312,3.312,0,0,1,.9,2.414,3.616,3.616,0,0,1-.551,2.021A2.834,2.834,0,0,1,9.621.023,2.869,2.869,0,0,1,7.289-1.008,3.449,3.449,0,0,1,6.539-3.3,3.283,3.283,0,0,1,7.43-5.7,2.942,2.942,0,0,1,9.633-6.586ZM9.615-5.314a1.336,1.336,0,0,0-1.172.645A2.422,2.422,0,0,0,8.086-3.3a2.785,2.785,0,0,0,.2,1.1,1.377,1.377,0,0,0,1.348.926A1.324,1.324,0,0,0,10.8-1.916,2.485,2.485,0,0,0,11.162-3.3,2.363,2.363,0,0,0,10.781-4.7,1.347,1.347,0,0,0,9.615-5.314Zm5.912-.146a2.592,2.592,0,0,1,.791-.715,2.621,2.621,0,0,1,1.348-.375,2.149,2.149,0,0,1,1.693.715,2.73,2.73,0,0,1,.563,1.875V-.7a.591.591,0,0,1-.141.4.793.793,0,0,1-.627.252.73.73,0,0,1-.662-.316A.606.606,0,0,1,18.4-.7V-3.791a2.045,2.045,0,0,0-.164-.867.891.891,0,0,0-.861-.562,1.624,1.624,0,0,0-1.207.656A1.594,1.594,0,0,0,15.709-3.5V-.7a.584.584,0,0,1-.164.422.8.8,0,0,1-.6.229.736.736,0,0,1-.668-.316A.588.588,0,0,1,14.186-.7V-5.883a.665.665,0,0,1,.111-.393.568.568,0,0,1,.5-.24.613.613,0,0,1,.645.586Z" transform="translate(500 4111)" fill="#0085d7"/>
    <g id="Asset_21" data-name="Asset 21" transform="translate(433.961 4171)">
      <g id="Layer_3" data-name="Layer 3" transform="translate(17.857 109.918)">
        <path id="Path_1445" data-name="Path 1445" d="M113.364,103.758H12.81V89.785c0-6.894,6.123-12.475,13-12.475H85.246c.343,14.673,13.388,26.448,28.118,26.448Z" transform="translate(-12.81 -77.31)" fill="rgba(0,133,215,0.2)"/>
      </g>
      <g id="Layer_2" data-name="Layer 2" transform="translate(1 1)">
        <g id="Group_474" data-name="Group 474">
          <path id="Path_1446" data-name="Path 1446" d="M80.455,100.577H22.52V59.87A37.012,37.012,0,0,1,59.53,22.86h0a37.012,37.012,0,0,1,37.01,37.01v15.1" transform="translate(8.196 8.341)" fill="none" stroke="#0085d7" stroke-linecap="round" stroke-linejoin="round" stroke-width="2"/>
          <path id="Path_1447" data-name="Path 1447" d="M105.828,103.758H12.81V89.785A12.469,12.469,0,0,1,25.285,77.31H25.5" transform="translate(4.047 31.608)" fill="none" stroke="#0085d7" stroke-linecap="round" stroke-linejoin="round" stroke-width="2"/>
          <line id="Line_125" data-name="Line 125" x2="23.18" transform="translate(56.55 70.509)" fill="none" stroke="#0085d7" stroke-linecap="round" stroke-linejoin="round" stroke-width="2"/>
          <line id="Line_126" data-name="Line 126" y1="37.695" transform="translate(68.14 70.509)" fill="none" stroke="#0085d7" stroke-linecap="round" stroke-linejoin="round" stroke-width="2"/>
          <line id="Line_127" data-name="Line 127" x1="23.337" transform="translate(104.537 108.305)" fill="none" stroke="#0085d7" stroke-linecap="round" stroke-linejoin="round" stroke-width="2"/>
          <line id="Line_128" data-name="Line 128" y2="23.322" transform="translate(116.212 96.643)" fill="none" stroke="#0085d7" stroke-linecap="round" stroke-linejoin="round" stroke-width="2"/>
          <circle id="Ellipse_101" data-name="Ellipse 101" cx="26.405" cy="26.405" r="26.405" transform="translate(89.921 81.928)" fill="none" stroke="#0085d7" stroke-linecap="round" stroke-linejoin="round" stroke-width="2"/>
          <g id="Group_473" data-name="Group 473" transform="translate(0 68.169)">
            <line id="Line_129" data-name="Line 129" x2="12.489" transform="translate(123.848)" fill="none" stroke="#0085d7" stroke-linecap="round" stroke-linejoin="round" stroke-width="2"/>
            <line id="Line_130" data-name="Line 130" x2="12.475" fill="none" stroke="#0085d7" stroke-linecap="round" stroke-linejoin="round" stroke-width="2"/>
          </g>
          <line id="Line_131" data-name="Line 131" y1="10.805" x2="6.252" transform="translate(96.001 9.135)" fill="none" stroke="#0085d7" stroke-linecap="round" stroke-linejoin="round" stroke-width="2"/>
          <line id="Line_132" data-name="Line 132" y1="12.475" transform="translate(68.169)" fill="none" stroke="#0085d7" stroke-linecap="round" stroke-linejoin="round" stroke-width="2"/>
          <line id="Line_133" data-name="Line 133" y1="6.237" x2="10.819" transform="translate(116.383 34.084)" fill="none" stroke="#0085d7" stroke-linecap="round" stroke-linejoin="round" stroke-width="2"/>
          <line id="Line_134" data-name="Line 134" x1="6.237" y1="10.805" transform="translate(34.084 9.135)" fill="none" stroke="#0085d7" stroke-linecap="round" stroke-linejoin="round" stroke-width="2"/>
          <line id="Line_135" data-name="Line 135" x1="10.805" y1="6.237" transform="translate(9.135 34.084)" fill="none" stroke="#0085d7" stroke-linecap="round" stroke-linejoin="round" stroke-width="2"/>
        </g>
      </g>
    </g>
  </g>
</svg>
