<svg xmlns="http://www.w3.org/2000/svg" width="280" height="321" viewBox="0 0 280 321">
  <g id="Group_558" data-name="Group 558" transform="translate(-360 -4057)">
    <g id="IMG20230814163249_2" data-name="IMG20230814163249~2" transform="translate(360 4098)" fill="#fff" stroke="#0085d7" stroke-width="1">
      <rect width="280" height="280" rx="20" stroke="none"/>
      <rect x="0.5" y="0.5" width="279" height="279" rx="19.5" fill="none"/>
    </g>
    <g id="Ellipse_121" data-name="Ellipse 121" transform="translate(467 4057)" fill="#fff" stroke="#0085d7" stroke-width="1">
      <circle cx="33" cy="33" r="33" stroke="none"/>
      <circle cx="33" cy="33" r="32.5" fill="none"/>
    </g>
    <path id="Path_2023" data-name="Path 2023" d="M-10.591-22.866A7.509,7.509,0,0,1-3.955-19.2,13.8,13.8,0,0,1-1.978-11.5,15.232,15.232,0,0,1-3.457-4.438,8.615,8.615,0,0,1-5.933-1.45,7.624,7.624,0,0,1-10.62.059,7.532,7.532,0,0,1-17.3-3.589a14.265,14.265,0,0,1-1.963-7.9,13.509,13.509,0,0,1,2.227-8.1A7.564,7.564,0,0,1-10.591-22.866Zm-.059,3.384a3.643,3.643,0,0,0-3.179,2.021,11.758,11.758,0,0,0-1.318,6.05,13.385,13.385,0,0,0,.806,4.966q1.23,3.018,3.75,3.018A3.554,3.554,0,0,0-7.617-5.112q1.523-2.139,1.523-6.313a11.581,11.581,0,0,0-1.362-6.108A3.625,3.625,0,0,0-10.649-19.482ZM13.2-12.056a7.331,7.331,0,0,1,2.915.864,5.243,5.243,0,0,1,2.271,2.578A5.121,5.121,0,0,1,18.75-6.68,5.938,5.938,0,0,1,15.967-1.45a9.846,9.846,0,0,1-5.6,1.509,9.1,9.1,0,0,1-6.8-2.446,3.094,3.094,0,0,1-1.1-2.095A1.518,1.518,0,0,1,2.959-5.64a1.835,1.835,0,0,1,1.3-.527,1.569,1.569,0,0,1,1.113.425,5.021,5.021,0,0,1,.439.513A5.557,5.557,0,0,0,10.356-3.3a5.149,5.149,0,0,0,2.8-.7,3.017,3.017,0,0,0,1.509-2.725A3.439,3.439,0,0,0,13.755-9.2a3.6,3.6,0,0,0-1.992-1.011,18.372,18.372,0,0,0-2.842-.176q-1.934,0-1.934-1.641,0-1.567,2.007-1.567a7.514,7.514,0,0,0,3.047-.557,2.7,2.7,0,0,0,1.816-2.622,2.427,2.427,0,0,0-1.04-2.065,4.244,4.244,0,0,0-2.578-.732,4.528,4.528,0,0,0-3.911,1.89,1.583,1.583,0,0,1-1.348.718A1.769,1.769,0,0,1,3.794-17.4a1.456,1.456,0,0,1-.557-1.157,2.579,2.579,0,0,1,.732-1.611,7.182,7.182,0,0,1,2.109-1.641,9.042,9.042,0,0,1,4.277-1.025,8.911,8.911,0,0,1,4.57,1.128,5.438,5.438,0,0,1,2.886,5,4.22,4.22,0,0,1-1.67,3.457A5.8,5.8,0,0,1,13.462-12.1Z" transform="translate(500 4095)" fill="#0085d7"/>
    <path id="Path_2022" data-name="Path 2022" d="M-18.41-3.516V-.7a.584.584,0,0,1-.164.422.8.8,0,0,1-.6.229.728.728,0,0,1-.65-.3.6.6,0,0,1-.1-.346V-5.906a.577.577,0,0,1,.146-.4.746.746,0,0,1,.568-.223.656.656,0,0,1,.633.34.557.557,0,0,1,.07.281v.615a3.514,3.514,0,0,1,.6-.8,1.886,1.886,0,0,1,1.318-.5,1.519,1.519,0,0,1,1.037.381.822.822,0,0,1,.311.627.745.745,0,0,1-.17.469.733.733,0,0,1-.6.3.634.634,0,0,1-.4-.129.793.793,0,0,0-.5-.17Q-17.795-5.115-18.41-3.516Zm5.209.6a1.618,1.618,0,0,0,.5,1.148,1.8,1.8,0,0,0,1.289.48A2.032,2.032,0,0,0-9.9-1.928a.529.529,0,0,1,.4-.182.661.661,0,0,1,.475.217.674.674,0,0,1,.2.486.873.873,0,0,1-.322.627,3.216,3.216,0,0,1-2.32.8,3.269,3.269,0,0,1-2.15-.715A3.15,3.15,0,0,1-14.76-3.275a3.433,3.433,0,0,1,.645-2.1,2.924,2.924,0,0,1,2.5-1.213,2.791,2.791,0,0,1,2.191.979A2.728,2.728,0,0,1-8.689-3.75a.934.934,0,0,1-.17.639.805.805,0,0,1-.609.2Zm.023-1.178h2.76q.182,0,.182-.146a1.013,1.013,0,0,0-.264-.639,1.375,1.375,0,0,0-1.131-.5,1.587,1.587,0,0,0-.814.223A1.446,1.446,0,0,0-13.178-4.09Zm10.395-1.6.035-.381q.041-.48.627-.48a.653.653,0,0,1,.645.357.633.633,0,0,1,.059.275V-.686a.691.691,0,0,1-.088.352.633.633,0,0,1-.586.287.608.608,0,0,1-.656-.592l-.064-.4A2.083,2.083,0,0,1-4.8,0,2.615,2.615,0,0,1-7.107-1.207a3.636,3.636,0,0,1-.574-2.074A3.469,3.469,0,0,1-7.1-5.291,2.79,2.79,0,0,1-5.854-6.322a2.756,2.756,0,0,1,1.107-.229A2.322,2.322,0,0,1-2.783-5.689Zm-.123,2.508V-3.65a1.567,1.567,0,0,0-.48-1.137,1.536,1.536,0,0,0-1.125-.492A1.406,1.406,0,0,0-5.7-4.664a2.272,2.272,0,0,0-.4,1.377,2.5,2.5,0,0,0,.281,1.225,1.4,1.4,0,0,0,1.295.779,1.405,1.405,0,0,0,.973-.4A1.941,1.941,0,0,0-2.906-3.182Zm5.725-3.4a3.51,3.51,0,0,1,2.039.533.822.822,0,0,1,.416.68.728.728,0,0,1-.141.428.619.619,0,0,1-.527.264.812.812,0,0,1-.48-.205,2.12,2.12,0,0,0-1.33-.463q-.949,0-.949.539a.541.541,0,0,0,.34.492,3.633,3.633,0,0,0,.381.141A17.647,17.647,0,0,1,4.529-3.5a1.623,1.623,0,0,1,.979,1.553A1.717,1.717,0,0,1,4.723-.434,3.309,3.309,0,0,1,2.865.023,3.754,3.754,0,0,1,.656-.586a1.08,1.08,0,0,1-.562-.832.689.689,0,0,1,.135-.4.583.583,0,0,1,.5-.264.666.666,0,0,1,.463.205,2.312,2.312,0,0,0,1.664.627q1.049,0,1.049-.562,0-.381-.527-.639A17.053,17.053,0,0,0,1.74-3.006,1.709,1.709,0,0,1,.334-4.723,1.653,1.653,0,0,1,1.3-6.252,3.147,3.147,0,0,1,2.818-6.586Zm6.814,0a2.911,2.911,0,0,1,2.18.879,3.312,3.312,0,0,1,.9,2.414,3.616,3.616,0,0,1-.551,2.021A2.834,2.834,0,0,1,9.621.023,2.869,2.869,0,0,1,7.289-1.008,3.449,3.449,0,0,1,6.539-3.3,3.283,3.283,0,0,1,7.43-5.7,2.942,2.942,0,0,1,9.633-6.586ZM9.615-5.314a1.336,1.336,0,0,0-1.172.645A2.422,2.422,0,0,0,8.086-3.3a2.785,2.785,0,0,0,.2,1.1,1.377,1.377,0,0,0,1.348.926A1.324,1.324,0,0,0,10.8-1.916,2.485,2.485,0,0,0,11.162-3.3,2.363,2.363,0,0,0,10.781-4.7,1.347,1.347,0,0,0,9.615-5.314Zm5.912-.146a2.592,2.592,0,0,1,.791-.715,2.621,2.621,0,0,1,1.348-.375,2.149,2.149,0,0,1,1.693.715,2.73,2.73,0,0,1,.563,1.875V-.7a.591.591,0,0,1-.141.4.793.793,0,0,1-.627.252.73.73,0,0,1-.662-.316A.606.606,0,0,1,18.4-.7V-3.791a2.045,2.045,0,0,0-.164-.867.891.891,0,0,0-.861-.562,1.624,1.624,0,0,0-1.207.656A1.594,1.594,0,0,0,15.709-3.5V-.7a.584.584,0,0,1-.164.422.8.8,0,0,1-.6.229.736.736,0,0,1-.668-.316A.588.588,0,0,1,14.186-.7V-5.883a.665.665,0,0,1,.111-.393.568.568,0,0,1,.5-.24.613.613,0,0,1,.645.586Z" transform="translate(500 4111)" fill="#0085d7"/>
    <g id="Asset_23" data-name="Asset 23" transform="translate(420.389 4164)">
      <g id="Layer_3" data-name="Layer 3" transform="translate(39.392 8.528)">
        <path id="Path_1448" data-name="Path 1448" d="M127.37,102.641a.215.215,0,0,1-.03.06c-1.629,3-8.584,21.919-13.049,34.259-21.512,2.2-45.527-5.295-55.182-8.749-.181-7.467.377-16.156,2.836-24C67.784,85.55,87.2,73.481,87.2,73.481L26.45,53.509c7.241-27.531,33.037-41.937,45.8-47.519,13.426,8.991,34.772,23.427,40.579,28.1a110.58,110.58,0,0,1,15.357,15.085c-5.129,4.631-15.643,16.021-15.357,29.205.272,12.219,9.353,20.5,14.542,24.257Z" transform="translate(-26.45 -5.99)" fill="rgba(0,133,215,0.2)"/>
      </g>
      <g id="Layer_2" data-name="Layer 2" transform="translate(1 1)">
        <g id="Group_475" data-name="Group 475">
          <path id="Path_1449" data-name="Path 1449" d="M1,29.11l99.14,32.614S80.726,73.793,74.888,92.438c-5.838,18.66-.935,42.224-.935,42.224" transform="translate(-1 13.295)" fill="none" stroke="#0085d7" stroke-linecap="round" stroke-linejoin="round" stroke-width="2"/>
          <path id="Path_1450" data-name="Path 1450" d="M49.35,1s43.159,28.647,51.833,35.616S128.517,61.311,127.19,76s-9.051,24.695-11.495,29.22-16.971,45.045-16.971,45.045" transform="translate(23.587 -1)" fill="none" stroke="#0085d7" stroke-linecap="round" stroke-linejoin="round" stroke-width="2"/>
          <path id="Path_1451" data-name="Path 1451" d="M96.535,36.98c-.558.181-13.2,8.478-12.822,25.63S98.225,86.927,98.225,86.927" transform="translate(41.057 17.297)" fill="none" stroke="#0085d7" stroke-linecap="round" stroke-linejoin="round" stroke-width="2"/>
          <path id="Path_1452" data-name="Path 1452" d="M78.716,12.12S40.083,20.975,34.23,54.344" transform="translate(15.898 4.655)" fill="none" stroke="#0085d7" stroke-linecap="round" stroke-linejoin="round" stroke-width="2"/>
          <path id="Path_1453" data-name="Path 1453" d="M71.478,7.37S35.107,18.307,25.86,52.037" transform="translate(11.642 2.239)" fill="none" stroke="#0085d7" stroke-linecap="round" stroke-linejoin="round" stroke-width="2"/>
          <path id="Path_1454" data-name="Path 1454" d="M49.35,79.97S63.862,92.6,106.644,84.677" transform="translate(23.587 39.158)" fill="none" stroke="#0085d7" stroke-linecap="round" stroke-linejoin="round" stroke-width="2"/>
          <path id="Path_1455" data-name="Path 1455" d="M49.98,87.96s22.236,12.822,51.637,4.329" transform="translate(23.908 43.221)" fill="none" stroke="#0085d7" stroke-linecap="round" stroke-linejoin="round" stroke-width="2"/>
        </g>
      </g>
    </g>
  </g>
</svg>
