<svg id="レイヤー_2" data-name="レイヤー 2" xmlns="http://www.w3.org/2000/svg" width="159.23" height="35" viewBox="0 0 159.23 35">
  <g id="Group_93" data-name="Group 93">
    <g id="Group_90" data-name="Group 90">
      <path id="Path_532" data-name="Path 532" d="M541.141,0h-6.178l-11.07,14.067V0H518.5V29.06h5.393V15.666l11.575,13.34.049.054h6.934l-12.79-14.405Z" transform="translate(-449.699)" fill="#fff"/>
      <rect id="Rectangle_54" data-name="Rectangle 54" width="5.507" height="29.06" transform="translate(97.462)" fill="#fff"/>
      <rect id="Rectangle_55" data-name="Rectangle 55" width="5.507" height="29.06" transform="translate(153.724)" fill="#fff"/>
      <path id="Path_533" data-name="Path 533" d="M285.346,17.105a9.045,9.045,0,0,1-.75,4.058,5.341,5.341,0,0,1-2.361,2.284,8.555,8.555,0,0,1-3.969.845,7.551,7.551,0,0,1-3.723-.89,5.476,5.476,0,0,1-2.288-2.249,8.235,8.235,0,0,1-.7-3.706V0H266V17.96a11.6,11.6,0,0,0,1.465,5.91,9.6,9.6,0,0,0,4.255,3.86,15.077,15.077,0,0,0,6.546,1.328c3.986,0,7.118-.983,9.306-2.923s3.307-4.76,3.307-8.368V0h-5.533V17.105Z" transform="translate(-230.704)" fill="#fff"/>
      <path id="Path_534" data-name="Path 534" d="M7.106,0l7.456,12.273L22.044.073,22.1,0H29.06L17.479,17.448V29.06H11.642V17.408L0,0Z" fill="#fff"/>
    </g>
    <g id="Group_92" data-name="Group 92" transform="translate(111.531)">
      <path id="Path_535" data-name="Path 535" d="M851.415,0l5.957,14.808L863.326,0h10.84V29.06a24.688,24.688,0,0,0-4.924-3.352V4.857h-2.534l-7.9,18.179c-.484-.029-.971-.048-1.462-.048s-.978.019-1.462.048l-7.9-18.179h-2.534V25.708a24.652,24.652,0,0,0-4.924,3.352V0Z" transform="translate(-840.53)" fill="#fff"/>
      <g id="Group_91" data-name="Group 91" transform="translate(8.82 30.254)">
        <circle id="Ellipse_35" data-name="Ellipse 35" cx="2.5" cy="2.5" r="2.5" transform="translate(-0.352 -0.254)" fill="#fff"/>
        <ellipse id="Ellipse_36" data-name="Ellipse 36" cx="2" cy="2.5" rx="2" ry="2.5" transform="translate(11.649 -0.254)" fill="#fff"/>
      </g>
    </g>
  </g>
</svg>
