<svg xmlns="http://www.w3.org/2000/svg" width="565.44" height="85.44" viewBox="0 0 565.44 85.44">
  <path id="Path_537" data-name="Path 537" d="M-262.5-46.2h40.32v15.6H-262.5ZM-261.06,0H-280.5V-84h63.48v15.6h-44.04Zm75.12-50.16h40.44v15.12h-40.44Zm1.44,34.56h45.72V0h-65.04V-84h63.48v15.6H-184.5ZM-134.34,0-96.9-84h19.2L-40.14,0h-20.4L-91.26-74.16h7.68L-114.42,0Zm18.72-18,5.16-14.76h43.2L-61.98-18ZM-18.18,0V-68.16H-45.06V-84h73.2v15.84H1.26V0ZM74.46,1.44q-17.88,0-27.96-9.96T36.42-36.96V-84H55.86v46.32q0,12,4.92,17.28t13.8,5.28q8.88,0,13.8-5.28T93.3-37.68V-84h19.2v47.04q0,18.48-10.08,28.44T74.46,1.44ZM131.7,0V-84h36.36q11.28,0,19.44,3.66a28.466,28.466,0,0,1,12.6,10.5,29.312,29.312,0,0,1,4.44,16.32,28.8,28.8,0,0,1-4.44,16.14A28.232,28.232,0,0,1,187.5-27q-8.16,3.6-19.44,3.6H142.5l8.64-8.52V0Zm53.4,0-21-30.48h20.76L206.1,0ZM151.14-29.76l-8.64-9.12h24.48q9,0,13.44-3.9t4.44-10.74q0-6.96-4.44-10.8t-13.44-3.84H142.5l8.64-9.24Zm86.64-20.4h40.44v15.12H237.78Zm1.44,34.56h45.72V0H219.9V-84h63.48v15.6H239.22Z" transform="translate(280.5 84)" fill="#739ed1" opacity="0.09"/>
</svg>
