<svg xmlns="http://www.w3.org/2000/svg" width="601.2" height="86.88" viewBox="0 0 601.2 86.88">
  <path id="Path_540" data-name="Path 540" d="M-253.02,1.44a50.273,50.273,0,0,1-18.06-3.18,42.423,42.423,0,0,1-14.46-9.06,42.044,42.044,0,0,1-9.54-13.8A43.43,43.43,0,0,1-298.5-42a43.43,43.43,0,0,1,3.42-17.4,41.615,41.615,0,0,1,9.6-13.8,43.2,43.2,0,0,1,14.46-9.06,50.135,50.135,0,0,1,18.12-3.18,49.632,49.632,0,0,1,19.74,3.78,38.457,38.457,0,0,1,14.82,11.1l-12.48,11.52a29.206,29.206,0,0,0-9.6-7.38,26.938,26.938,0,0,0-11.52-2.46,29.464,29.464,0,0,0-10.8,1.92,24.483,24.483,0,0,0-8.52,5.52,25.211,25.211,0,0,0-5.58,8.52A29,29,0,0,0-278.82-42a29,29,0,0,0,1.98,10.92,25.21,25.21,0,0,0,5.58,8.52,24.483,24.483,0,0,0,8.52,5.52,29.463,29.463,0,0,0,10.8,1.92,26.938,26.938,0,0,0,11.52-2.46,28.574,28.574,0,0,0,9.6-7.5l12.48,11.52A39,39,0,0,1-233.16-2.4,49.27,49.27,0,0,1-253.02,1.44Zm86.76,0A51.084,51.084,0,0,1-184.68-1.8a43.583,43.583,0,0,1-14.64-9.12,41.616,41.616,0,0,1-9.6-13.8A43.123,43.123,0,0,1-212.34-42a43.123,43.123,0,0,1,3.42-17.28,41.2,41.2,0,0,1,9.66-13.8,44.388,44.388,0,0,1,14.64-9.12,50.26,50.26,0,0,1,18.24-3.24,50.124,50.124,0,0,1,18.3,3.24,43.851,43.851,0,0,1,14.52,9.12,42.554,42.554,0,0,1,9.66,13.74A42.36,42.36,0,0,1-120.42-42a42.9,42.9,0,0,1-3.48,17.34,41.546,41.546,0,0,1-9.66,13.8A44.359,44.359,0,0,1-148.08-1.8,49.782,49.782,0,0,1-166.26,1.44Zm-.12-16.56A27.4,27.4,0,0,0-156-17.04a24.889,24.889,0,0,0,8.34-5.52,25.21,25.21,0,0,0,5.58-8.52A29,29,0,0,0-140.1-42a29,29,0,0,0-1.98-10.92,25.672,25.672,0,0,0-5.52-8.52,24.118,24.118,0,0,0-8.34-5.52,27.855,27.855,0,0,0-10.44-1.92,27.4,27.4,0,0,0-10.38,1.92,24.889,24.889,0,0,0-8.34,5.52,25.21,25.21,0,0,0-5.58,8.52A29,29,0,0,0-192.66-42a29.134,29.134,0,0,0,1.98,10.86,25.532,25.532,0,0,0,5.52,8.58,24.118,24.118,0,0,0,8.34,5.52A27.855,27.855,0,0,0-166.38-15.12ZM-105.78,0V-84H-89.7l49.56,60.48h-7.8V-84h19.2V0H-44.7L-94.38-60.48h7.8V0ZM8.58,0V-68.16H-18.3V-84H54.9v15.84H28.02V0ZM50.1,0,87.54-84h19.2L144.3,0H123.9L93.18-74.16h7.68L70.02,0ZM68.82-18l5.16-14.76h43.2L122.46-18ZM192.06,1.44A50.273,50.273,0,0,1,174-1.74a42.422,42.422,0,0,1-14.46-9.06A42.044,42.044,0,0,1,150-24.6,43.429,43.429,0,0,1,146.58-42,43.429,43.429,0,0,1,150-59.4a41.616,41.616,0,0,1,9.6-13.8,43.2,43.2,0,0,1,14.46-9.06,50.135,50.135,0,0,1,18.12-3.18,49.632,49.632,0,0,1,19.74,3.78,38.457,38.457,0,0,1,14.82,11.1L214.26-59.04a29.206,29.206,0,0,0-9.6-7.38,26.938,26.938,0,0,0-11.52-2.46,29.464,29.464,0,0,0-10.8,1.92,24.483,24.483,0,0,0-8.52,5.52,25.21,25.21,0,0,0-5.58,8.52A29,29,0,0,0,166.26-42a29,29,0,0,0,1.98,10.92,25.21,25.21,0,0,0,5.58,8.52,24.483,24.483,0,0,0,8.52,5.52,29.463,29.463,0,0,0,10.8,1.92,26.938,26.938,0,0,0,11.52-2.46,28.574,28.574,0,0,0,9.6-7.5l12.48,11.52A39,39,0,0,1,211.92-2.4,49.27,49.27,0,0,1,192.06,1.44ZM256.38,0V-68.16H229.5V-84h73.2v15.84H275.82V0Z" transform="translate(298.5 85.44)" fill="#fff" opacity="0.09"/>
</svg>
