<svg id="Component_11_1" data-name="Component 11 – 1" xmlns="http://www.w3.org/2000/svg" width="1400" height="749" viewBox="0 0 1400 749">
  <g id="Group_130" data-name="Group 130" transform="translate(-256 1091)">
    <g id="Rectangle_74" data-name="Rectangle 74" transform="translate(481 -403)" fill="rgba(255,255,255,0)" stroke="#ccc" stroke-width="1">
      <rect width="229" height="61" rx="2" stroke="none"/>
      <rect x="0.5" y="0.5" width="228" height="60" rx="1.5" fill="none"/>
    </g>
    <g id="Group_129" data-name="Group 129" transform="translate(-3)">
      <text id="N_E_X_T" data-name="N E X T" transform="translate(552 -367)" fill="#fff" font-size="14" font-family="SegoeUI, Segoe UI"><tspan x="-44.652" y="0">N E X T</tspan></text>
      <text id="_06.清算見積" data-name="06.清算見積" transform="translate(694 -367)" fill="#fff" font-size="14" font-family="SegoeUI, Segoe UI"><tspan x="-74.129" y="0">06.</tspan><tspan y="0" font-family="YuGothicUI-Regular, Yu Gothic UI">清算見積</tspan></text>
      <text id="_" data-name="&gt;&gt;&gt;" transform="translate(598 -367)" fill="#fff" font-size="14" font-family="SegoeUI, Segoe UI"><tspan x="-28.731" y="0">&gt;&gt;&gt;</tspan></text>
    </g>
  </g>
  <line id="Line_68" data-name="Line 68" y2="50" transform="translate(339.5 79.5)" fill="none" stroke="#fff" stroke-width="1"/>
  <line id="Line_77" data-name="Line 77" y2="50" transform="translate(1060.5 79.5)" fill="none" stroke="#fff" stroke-width="1"/>
  <line id="Line_78" data-name="Line 78" y2="50" transform="translate(1060.5 208)" fill="none" stroke="#fff" stroke-width="1"/>
  <line id="Line_79" data-name="Line 79" y2="50" transform="translate(1060.5 336.671)" fill="none" stroke="#fff" stroke-width="1"/>
  <line id="Line_73" data-name="Line 73" y2="50" transform="translate(339.5 207.671)" fill="none" stroke="#fff" stroke-width="1"/>
  <line id="Line_74" data-name="Line 74" y2="50" transform="translate(339.5 338.671)" fill="none" stroke="#fff" stroke-width="1"/>
  <line id="Line_75" data-name="Line 75" y2="50" transform="translate(339.5 468.671)" fill="none" stroke="#fff" stroke-width="1"/>
  <line id="Line_76" data-name="Line 76" y2="89.5" transform="translate(339.5 599)" fill="none" stroke="#fff" stroke-width="1"/>
  <g id="Group_137" data-name="Group 137" transform="translate(-260 -134)">
    <g id="Group_121" data-name="Group 121" transform="translate(0 -7)">
      <text id="_01.設計相談" data-name="01.設計相談" transform="translate(520 189)" fill="#fff" font-size="18" font-family="NotoSerifJP-Regular, Noto Serif JP"><tspan x="-97.272" y="0">01.設計相談</tspan></text>
      <text id="相談は無料で行っていますのでコンタクトフォームでお気軽にお申し込みください_ご要望や情報などを元にヒアリングを行います_" data-name="相談は無料で行っていますのでコンタクトフォームでお気軽にお申し込みください。ご要望や情報などを元にヒアリングを行います。" transform="translate(260 214)" fill="#fff" font-size="14" font-family="NotoSerifJP-Regular, Noto Serif JP"><tspan x="-251.44" y="16">相談は無料で行っていますのでコンタク</tspan><tspan x="-250.88" y="46">トフォームでお気軽にお申し込みくださ</tspan><tspan x="-251.16" y="76">い。ご要望や情報などを元にヒアリング</tspan><tspan x="-82.88" y="106">を行います。</tspan></text>
      <circle id="Ellipse_1" data-name="Ellipse 1" cx="40" cy="40" r="40" transform="translate(560 141)" fill="rgba(239,239,239,0.3)"/>
    </g>
    <g id="Layer_2" data-name="Layer 2" transform="translate(571.983 157.27)">
      <g id="Group_97" data-name="Group 97" transform="translate(1.01 1)">
        <g id="Group_95" data-name="Group 95" transform="translate(26.921)">
          <circle id="Ellipse_9" data-name="Ellipse 9" cx="3.593" cy="3.593" r="3.593" transform="translate(14.665)" fill="none" stroke="#fff" stroke-linecap="round" stroke-linejoin="round" stroke-width="1.3"/>
          <path id="Path_50" data-name="Path 50" d="M49.387,21.84v.017H49.37Z" transform="translate(-35.972 -4.465)" fill="none" stroke="#fff" stroke-linecap="round" stroke-linejoin="round" stroke-width="1.3"/>
          <path id="Path_51" data-name="Path 51" d="M53.593,12.347H53.56l.017-.017Z" transform="translate(-36.669 -2.884)" fill="none" stroke="#fff" stroke-linecap="round" stroke-linejoin="round" stroke-width="1.3"/>
          <path id="Path_52" data-name="Path 52" d="M55.669,15.318V27.424a1.526,1.526,0,0,1-1.526,1.526H47.615l-.934,6.211A1.856,1.856,0,0,1,44.555,36.7h0a1.856,1.856,0,0,1-1.534-2.126L44.3,26.207a1.272,1.272,0,0,1,1.259-1.067h4.861v-7.3L47.99,20.271H42.7a1.637,1.637,0,0,1-1.634-1.634h0A1.637,1.637,0,0,1,42.7,17h4.119l3.593-3.593.192-.192A2.953,2.953,0,0,1,52.7,12.35h0a2.96,2.96,0,0,1,2.96,2.96Z" transform="translate(-34.592 -2.887)" fill="none" stroke="#fff" stroke-linecap="round" stroke-linejoin="round" stroke-width="1.3"/>
          <path id="Path_53" data-name="Path 53" d="M51.13,33.545H56.2a3.881,3.881,0,0,0,3.835-3.277l.725-4.619" transform="translate(-36.264 -5.098)" fill="none" stroke="#fff" stroke-linecap="round" stroke-linejoin="round" stroke-width="1.3"/>
          <line id="Line_38" data-name="Line 38" y2="5.953" transform="translate(18.909 28.422)" fill="none" stroke="#fff" stroke-linecap="round" stroke-linejoin="round" stroke-width="1.3"/>
          <path id="Path_54" data-name="Path 54" d="M33.3,14.03l2.243,8.429h5.444" transform="translate(-33.3 -3.166)" fill="none" stroke="#fff" stroke-linecap="round" stroke-linejoin="round" stroke-width="1.3"/>
        </g>
        <g id="Group_96" data-name="Group 96">
          <circle id="Ellipse_10" data-name="Ellipse 10" cx="3.593" cy="3.593" r="3.593" transform="translate(2.635)" fill="none" stroke="#fff" stroke-linecap="round" stroke-linejoin="round" stroke-width="1.3"/>
          <path id="Path_55" data-name="Path 55" d="M14.29,21.84v.017h.017Z" transform="translate(-3.218 -4.465)" fill="none" stroke="#fff" stroke-linecap="round" stroke-linejoin="round" stroke-width="1.3"/>
          <path id="Path_56" data-name="Path 56" d="M10.09,12.347h.033l-.017-.017Z" transform="translate(-2.52 -2.884)" fill="none" stroke="#fff" stroke-linecap="round" stroke-linejoin="round" stroke-width="1.3"/>
          <path id="Path_57" data-name="Path 57" d="M5.1,15.318V27.424A1.526,1.526,0,0,0,6.626,28.95h6.528l.934,6.211A1.856,1.856,0,0,0,16.214,36.7h0a1.856,1.856,0,0,0,1.534-2.126l-1.276-8.362a1.272,1.272,0,0,0-1.259-1.067H10.353v-7.3l2.426,2.426h5.286A1.637,1.637,0,0,0,19.7,18.636h0A1.637,1.637,0,0,0,18.065,17H13.946l-3.593-3.593-.192-.192a2.953,2.953,0,0,0-2.093-.867h0a2.96,2.96,0,0,0-2.96,2.96Z" transform="translate(-1.69 -2.887)" fill="none" stroke="#fff" stroke-linecap="round" stroke-linejoin="round" stroke-width="1.3"/>
          <path id="Path_58" data-name="Path 58" d="M10.64,33.545H5.571a3.881,3.881,0,0,1-3.835-3.277L1.01,25.65" transform="translate(-1.01 -5.098)" fill="none" stroke="#fff" stroke-linecap="round" stroke-linejoin="round" stroke-width="1.3"/>
          <line id="Line_39" data-name="Line 39" y2="5.953" transform="translate(5.578 28.422)" fill="none" stroke="#fff" stroke-linecap="round" stroke-linejoin="round" stroke-width="1.3"/>
          <path id="Path_59" data-name="Path 59" d="M28.849,14.03l-2.234,8.429H21.17" transform="translate(-4.362 -3.166)" fill="none" stroke="#fff" stroke-linecap="round" stroke-linejoin="round" stroke-width="1.3"/>
        </g>
        <line id="Line_40" data-name="Line 40" x2="18.717" transform="translate(16.608 21.327)" fill="none" stroke="#fff" stroke-linecap="round" stroke-linejoin="round" stroke-width="1.3"/>
        <line id="Line_41" data-name="Line 41" y1="12.664" transform="translate(25.971 21.327)" fill="none" stroke="#fff" stroke-linecap="round" stroke-linejoin="round" stroke-width="1.3"/>
      </g>
    </g>
  </g>
  <g id="Group_136" data-name="Group 136" transform="translate(-260 -134)">
    <g id="Group_122" data-name="Group 122" transform="translate(0 -70)">
      <text id="_02.スタディ" data-name="02.スタディ" transform="translate(680 381)" fill="#fff" font-size="18" font-family="NotoSerifJP-Regular, Noto Serif JP"><tspan x="0" y="0">02.スタディ</tspan></text>
      <text id="ご要望をもとに_スケッチやCGで検討します_" data-name="ご要望をもとに、スケッチやCGで検討します。" transform="translate(680 406)" fill="#fff" font-size="14" font-family="NotoSerifJP-Regular, Noto Serif JP"><tspan x="0" y="16">ご要望をもとに、スケッチやCGで検討し</tspan><tspan x="0" y="46">ます。</tspan></text>
      <circle id="Ellipse_2" data-name="Ellipse 2" cx="40" cy="40" r="40" transform="translate(560 333)" fill="rgba(239,239,239,0.3)"/>
    </g>
    <g id="Layer_2-2" data-name="Layer 2" transform="translate(578.26 282.826)">
      <g id="Group_98" data-name="Group 98" transform="translate(1 1)">
        <path id="Path_60" data-name="Path 60" d="M9.158,4.45H38.039V34.59H3.5A2.5,2.5,0,0,1,1,32.09H1a2.5,2.5,0,0,1,2.5-2.5H9.108V1H3.5A2.5,2.5,0,0,0,1,3.5V31.8" transform="translate(-1 -1)" fill="none" stroke="#fff" stroke-linecap="round" stroke-linejoin="round" stroke-width="1.3"/>
        <path id="Path_61" data-name="Path 61" d="M8.11,39.241H42.666V8.51" transform="translate(-2.185 -2.252)" fill="none" stroke="#fff" stroke-linecap="round" stroke-linejoin="round" stroke-width="1.3"/>
        <path id="Path_62" data-name="Path 62" d="M29.574,16.065V11.89H15.45V29.564H34.424v-13.5Z" transform="translate(-3.409 -2.816)" fill="none" stroke="#fff" stroke-linecap="round" stroke-linejoin="round" stroke-width="1.3"/>
        <line id="Line_42" data-name="Line 42" x2="6.366" transform="translate(24.857 19.515)" fill="none" stroke="#fff" stroke-linecap="round" stroke-linejoin="round" stroke-width="1.3"/>
        <line id="Line_43" data-name="Line 43" y2="17.249" transform="translate(19.249 9.499)" fill="none" stroke="#fff" stroke-linecap="round" stroke-linejoin="round" stroke-width="1.3"/>
      </g>
    </g>
  </g>
  <g id="Group_135" data-name="Group 135" transform="translate(-260 -134)">
    <g id="Group_121-2" data-name="Group 121" transform="translate(0 251)">
      <text id="_03.プレゼンテーション" data-name="03.プレゼンテーション" transform="translate(520 189)" fill="#fff" font-size="18" font-family="NotoSerifJP-Regular, Noto Serif JP"><tspan x="-185.832" y="0">03.プレゼンテーション</tspan></text>
      <text id="CGで渾身のプレゼンを行います_愛着を持って頂くためにご要望からどのようにデザインイメージが生まれたのかご説明をします_" data-name="CGで渾身のプレゼンを行います。愛着を持って頂くためにご要望からどのようにデザインイメージが生まれたのかご説明をします。" transform="translate(260 214)" fill="#fff" font-size="14" font-family="NotoSerifJP-Regular, Noto Serif JP"><tspan x="-256.368" y="16">CGで渾身のプレゼンを行います。愛着を</tspan><tspan x="-252" y="46">持って頂くためにご要望からどのように</tspan><tspan x="-249.9" y="76">デザインイメージが生まれたのかご説明</tspan><tspan x="-68.88" y="106">をします。</tspan></text>
      <circle id="Ellipse_1-2" data-name="Ellipse 1" cx="40" cy="40" r="40" transform="translate(560 141)" fill="rgba(239,239,239,0.3)"/>
    </g>
    <g id="b" transform="translate(579.7 409.666)">
      <g id="c" transform="translate(0 1)">
        <rect id="Rectangle_42" data-name="Rectangle 42" width="29.206" height="40.444" transform="translate(4.395)" fill="none" stroke="#fff" stroke-miterlimit="10" stroke-width="1.3"/>
        <line id="Line_29" data-name="Line 29" x2="38.003" transform="translate(0 40.444)" fill="none" stroke="#fff" stroke-miterlimit="10" stroke-width="1.3"/>
        <rect id="Rectangle_43" data-name="Rectangle 43" width="11.126" height="11.067" transform="translate(13.435 29.377)" fill="none" stroke="#fff" stroke-miterlimit="10" stroke-width="1.3"/>
        <g id="Group_93" data-name="Group 93" transform="translate(10.06 6.033)">
          <rect id="Rectangle_44" data-name="Rectangle 44" width="6.672" height="6.408" fill="none" stroke="#fff" stroke-miterlimit="10" stroke-width="1.3"/>
          <rect id="Rectangle_45" data-name="Rectangle 45" width="6.672" height="6.408" transform="translate(11.211)" fill="none" stroke="#fff" stroke-miterlimit="10" stroke-width="1.3"/>
          <rect id="Rectangle_46" data-name="Rectangle 46" width="6.672" height="6.408" transform="translate(0 11.363)" fill="none" stroke="#fff" stroke-miterlimit="10" stroke-width="1.3"/>
          <rect id="Rectangle_47" data-name="Rectangle 47" width="6.672" height="6.408" transform="translate(11.211 11.363)" fill="none" stroke="#fff" stroke-miterlimit="10" stroke-width="1.3"/>
        </g>
      </g>
    </g>
  </g>
  <g id="Group_139" data-name="Group 139" transform="translate(-260 -217)">
    <g id="Group_121-3" data-name="Group 121" transform="translate(0 595)">
      <text id="_05._実施図面" data-name="05. 実施図面" transform="translate(520 189)" fill="#fff" font-size="18" font-family="NotoSerifJP-Regular, Noto Serif JP"><tspan x="-101.916" y="0">05. 実施図面</tspan></text>
      <text id="設備機器_スイッチや照明など細かい部分を図面にしていきます_各素材についてもサンプルでご確認いただきます_" data-name="設備機器、スイッチや照明など細かい部分を図面にしていきます。各素材についてもサンプルでご確認いただきます。" transform="translate(260 214)" fill="#fff" font-size="14" font-family="NotoSerifJP-Regular, Noto Serif JP"><tspan x="-251.44" y="16">設備機器、スイッチや照明など細かい部</tspan><tspan x="-250.6" y="46">分を図面にしていきます。各素材につい</tspan><tspan x="-235.62" y="76">てもサンプルでご確認いただきます。</tspan></text>
      <circle id="Ellipse_1-3" data-name="Ellipse 1" cx="40" cy="40" r="40" transform="translate(560 141)" fill="rgba(239,239,239,0.3)"/>
    </g>
    <g id="Layer_1" data-name="Layer 1" transform="translate(577.495 761.683)">
      <g id="Group_62" data-name="Group 62" transform="translate(1 1)">
        <path id="Path_4" data-name="Path 4" d="M11.607,5.815H41.413v23.5H5.644C2.948,29.317,1,27.31,1,25.48V4.555C1,3.525,2.089,1,6.215,1a4.175,4.175,0,0,1,4.474,4.474V24.161c0,1.66-.459,3.391-1.968,3.391a3.192,3.192,0,0,1-2.676-2.814V21.131" transform="translate(-1 -1)" fill="none" stroke="#fff" stroke-linecap="round" stroke-linejoin="round" stroke-width="1.3"/>
        <path id="Path_5" data-name="Path 5" d="M1.44,35.7C1.5,33.986,2.3,31.06,5.684,31.06S10.84,33.389,10.84,34.5" transform="translate(-1.151 -11.342)" fill="none" stroke="#fff" stroke-linecap="round" stroke-linejoin="round" stroke-width="1.3"/>
        <path id="Path_6" data-name="Path 6" d="M16.47,12.45H43.462V29.642H35.269" transform="translate(-6.322 -4.939)" fill="none" stroke="#fff" stroke-linecap="round" stroke-linejoin="round" stroke-width="1.3"/>
        <line id="Line_17" data-name="Line 17" x1="14.096" transform="translate(10.148 24.703)" fill="none" stroke="#fff" stroke-linecap="round" stroke-linejoin="round" stroke-width="1.3"/>
        <line id="Line_18" data-name="Line 18" x2="12.548" transform="translate(24.591 14.155)" fill="none" stroke="#fff" stroke-linecap="round" stroke-linejoin="round" stroke-width="1.3"/>
        <line id="Line_19" data-name="Line 19" x2="10.056" transform="translate(10.148 17.77)" fill="none" stroke="#fff" stroke-linecap="round" stroke-linejoin="round" stroke-width="1.3"/>
        <line id="Line_20" data-name="Line 20" y2="17.192" transform="translate(22.984 7.511)" fill="none" stroke="#fff" stroke-linecap="round" stroke-linejoin="round" stroke-width="1.3"/>
        <line id="Line_21" data-name="Line 21" y1="8.311" transform="translate(30.206 16.392)" fill="none" stroke="#fff" stroke-linecap="round" stroke-linejoin="round" stroke-width="1.3"/>
        <path id="Path_7" data-name="Path 7" d="M22.06,13.15v6.186h4.874V13.491" transform="translate(-8.246 -5.18)" fill="none" stroke="#fff" stroke-linecap="round" stroke-linejoin="round" stroke-width="1.3"/>
      </g>
    </g>
  </g>
  <g id="Group_138" data-name="Group 138" transform="translate(-260 -181)">
    <g id="Group_122-2" data-name="Group 122" transform="translate(0 237)">
      <text id="_04.概算見積" data-name="04.概算見積" transform="translate(680 381)" fill="#fff" font-size="18" font-family="NotoSerifJP-Regular, Noto Serif JP"><tspan x="0" y="0">04.概算見積</tspan></text>
      <text id="夢をカタチにした図面で_概算の見積もりを行います_この段階でおおかたの予算取りをします_" data-name="夢をカタチにした図面で、概算の見積もりを行います。この段階でおおかたの予算取りをします。" transform="translate(680 406)" fill="#fff" font-size="14" font-family="NotoSerifJP-Regular, Noto Serif JP"><tspan x="0" y="16">夢をカタチにした図面で、概算の見積も</tspan><tspan x="0" y="46">りを行います。この段階でおおかたの予</tspan><tspan x="0" y="76">算取りをします。</tspan></text>
      <circle id="Ellipse_2-2" data-name="Ellipse 2" cx="40" cy="40" r="40" transform="translate(560 333)" fill="rgba(239,239,239,0.3)"/>
    </g>
    <g id="b-2" data-name="b" transform="translate(580.292 588.323)">
      <g id="c-2" data-name="c" transform="translate(1 1)">
        <g id="Group_92" data-name="Group 92">
          <path id="Path_39" data-name="Path 39" d="M4.877,1H31.942A3.84,3.84,0,0,1,35.82,4.877V37.138a3.84,3.84,0,0,1-3.877,3.877H4.877A3.84,3.84,0,0,1,1,37.138V4.877A3.84,3.84,0,0,1,4.877,1Z" transform="translate(-1 -1)" fill="none" stroke="#fff" stroke-miterlimit="10" stroke-width="1.3"/>
          <path id="Path_40" data-name="Path 40" d="M9.559,7.2H29.877a2.582,2.582,0,0,1,2.559,2.559v4.886A2.582,2.582,0,0,1,29.877,17.2H9.559A2.582,2.582,0,0,1,7,14.645V9.759A2.582,2.582,0,0,1,9.559,7.2Z" transform="translate(-2.347 -2.392)" fill="none" stroke="#fff" stroke-miterlimit="10" stroke-width="1.3"/>
          <rect id="Rectangle_37" data-name="Rectangle 37" width="5.118" height="5.118" transform="translate(4.808 19.775)" fill="none" stroke="#fff" stroke-miterlimit="10" stroke-width="1.3"/>
          <rect id="Rectangle_38" data-name="Rectangle 38" width="5.118" height="5.118" transform="translate(14.812 19.775)" fill="none" stroke="#fff" stroke-miterlimit="10" stroke-width="1.3"/>
          <rect id="Rectangle_39" data-name="Rectangle 39" width="5.118" height="5.118" transform="translate(4.808 29.857)" fill="none" stroke="#fff" stroke-miterlimit="10" stroke-width="1.3"/>
          <rect id="Rectangle_40" data-name="Rectangle 40" width="5.118" height="5.118" transform="translate(14.812 29.857)" fill="none" stroke="#fff" stroke-miterlimit="10" stroke-width="1.3"/>
          <rect id="Rectangle_41" data-name="Rectangle 41" width="5.041" height="15.122" transform="translate(24.816 19.853)" fill="none" stroke="#fff" stroke-miterlimit="10" stroke-width="1.3"/>
        </g>
      </g>
    </g>
  </g>
  <g id="Group_140" data-name="Group 140" transform="translate(-260 -134)">
    <g id="Group_121-4" data-name="Group 121" transform="translate(720 -6)">
      <text id="_06.清算見積-2" data-name="06.清算見積" transform="translate(520 189)" fill="#fff" font-size="18" font-family="NotoSerifJP-Regular, Noto Serif JP"><tspan x="-97.272" y="0">06.清算見積</tspan></text>
      <text id="完全自社施工なのでお客様にあった金額をご予算調整します_" data-name="完全自社施工なのでお客様にあった金額をご予算調整します。" transform="translate(260 214)" fill="#fff" font-size="14" font-family="NotoSerifJP-Regular, Noto Serif JP"><tspan x="-251.86" y="16">完全自社施工なのでお客様にあった金額</tspan><tspan x="-138.88" y="46">をご予算調整します。</tspan></text>
      <circle id="Ellipse_1-4" data-name="Ellipse 1" cx="40" cy="40" r="40" transform="translate(560 141)" fill="rgba(239,239,239,0.3)"/>
    </g>
    <g id="b-3" data-name="b" transform="translate(1298.292 155.158)">
      <g id="c-3" data-name="c" transform="translate(1 1)">
        <g id="Group_104" data-name="Group 104">
          <path id="Path_77" data-name="Path 77" d="M14.695,43.7H2.473A1.477,1.477,0,0,1,1,42.227V30.373A1.477,1.477,0,0,1,2.473,28.9H22.72a1.477,1.477,0,0,1,1.473,1.473V42.227A1.477,1.477,0,0,1,22.72,43.7H19.186" transform="translate(-1 -8.358)" fill="none" stroke="#fff" stroke-miterlimit="10" stroke-width="1.3"/>
          <line id="Line_59" data-name="Line 59" x2="23.267" transform="translate(0 25.107)" fill="none" stroke="#fff" stroke-miterlimit="10" stroke-width="1.3"/>
          <rect id="Rectangle_61" data-name="Rectangle 61" width="1.767" height="1.104" transform="translate(12.811 27.39)" fill="none" stroke="#fff" stroke-miterlimit="10" stroke-width="1.3"/>
          <rect id="Rectangle_62" data-name="Rectangle 62" width="1.767" height="1.104" transform="translate(15.756 27.39)" fill="none" stroke="#fff" stroke-miterlimit="10" stroke-width="1.3"/>
          <rect id="Rectangle_63" data-name="Rectangle 63" width="1.767" height="1.104" transform="translate(18.628 27.39)" fill="none" stroke="#fff" stroke-miterlimit="10" stroke-width="1.3"/>
          <path id="Path_78" data-name="Path 78" d="M37.7,33.045c16.051-.663,13.4-8.394,12-11.633A29.735,29.735,0,0,0,47.345,16.7" transform="translate(-10.678 -5.14)" fill="none" stroke="#fff" stroke-miterlimit="10" stroke-width="1.3"/>
          <path id="Path_79" data-name="Path 79" d="M17.3,19.6s-.221.442-1.4,4.123" transform="translate(-4.929 -5.905)" fill="none" stroke="#fff" stroke-miterlimit="10" stroke-width="1.3"/>
          <path id="Path_80" data-name="Path 80" d="M23.721,6.267a9.136,9.136,0,0,0-5.743,3.387,3.956,3.956,0,0,0-.736,1.178,6.283,6.283,0,0,0-.442,2.282,1.707,1.707,0,0,0,.589,1.473,1.235,1.235,0,0,0,1.4-.147,4.492,4.492,0,0,0,.957-1.1c1.031-1.546,2.209-3.24,3.9-3.976a6.112,6.112,0,0,1,1.546-.442,27.185,27.185,0,0,1,8.1-.589,7.265,7.265,0,0,1,4.565,1.693,4.461,4.461,0,0,1,.81,1.546,9.868,9.868,0,0,0,1.841,2.724,1.122,1.122,0,0,0,.736.442.977.977,0,0,0,.81-.589,3.3,3.3,0,0,0,.295-1.473,13.257,13.257,0,0,0-.295-3.829,5.423,5.423,0,0,0-3.24-3.24,17.5,17.5,0,0,0-3.829-1.1" transform="translate(-5.167 -1.923)" fill="none" stroke="#fff" stroke-miterlimit="10" stroke-width="1.3"/>
          <path id="Path_81" data-name="Path 81" d="M27.4,4.179a1.755,1.755,0,0,0,.442.81,1.98,1.98,0,0,0,1.914.442A1.743,1.743,0,0,0,31.076,4.1a1.544,1.544,0,0,0-.663-1.62,1.991,1.991,0,0,0-2.356.147A1.619,1.619,0,0,0,27.4,4.179Z" transform="translate(-7.957 -1.307)" fill="none" stroke="#fff" stroke-miterlimit="10" stroke-width="1.3"/>
          <line id="Line_60" data-name="Line 60" x2="2.503" y2="1.988" transform="translate(17.082 12.811)" fill="none" stroke="#fff" stroke-miterlimit="10" stroke-width="1.3"/>
          <line id="Line_61" data-name="Line 61" x2="4.344" y2="2.209" transform="translate(29.672 20.469)" fill="none" stroke="#fff" stroke-miterlimit="10" stroke-width="1.3"/>
          <line id="Line_62" data-name="Line 62" x1="2.282" y2="3.166" transform="translate(27.022 10.602)" fill="none" stroke="#fff" stroke-miterlimit="10" stroke-width="1.3"/>
          <ellipse id="Ellipse_11" data-name="Ellipse 11" cx="2.135" cy="1.767" rx="2.135" ry="1.767" transform="translate(23.34)" fill="none" stroke="#fff" stroke-miterlimit="10" stroke-width="1.3"/>
        </g>
      </g>
    </g>
  </g>
  <g id="Group_141" data-name="Group 141" transform="translate(-260 -176)">
    <g id="Group_122-3" data-name="Group 122" transform="translate(720 -28)">
      <text id="_07.確認申請" data-name="07.確認申請" transform="translate(680 381)" fill="#fff" font-size="18" font-family="NotoSerifJP-Regular, Noto Serif JP"><tspan x="0" y="0">07.確認申請</tspan></text>
      <text id="確認申請を申請期間や役所に対して行います_" data-name="確認申請を申請期間や役所に対して行います。" transform="translate(680 406)" fill="#fff" font-size="14" font-family="NotoSerifJP-Regular, Noto Serif JP"><tspan x="0" y="16">確認申請を申請期間や役所に対して行い</tspan><tspan x="0" y="46">ます。</tspan></text>
      <circle id="Ellipse_2-3" data-name="Ellipse 2" cx="40" cy="40" r="40" transform="translate(560 333)" fill="rgba(239,239,239,0.3)"/>
    </g>
    <g id="b-4" data-name="b" transform="translate(1303.016 323.321)">
      <g id="c-4" data-name="c" transform="translate(1 1)">
        <path id="Path_41" data-name="Path 41" d="M24.535,9.9H28.7a3.247,3.247,0,0,1,3.251,3.186V41.042A3.26,3.26,0,0,1,28.7,44.293H4.186A3.205,3.205,0,0,1,1,41.042V13.086A3.191,3.191,0,0,1,4.186,9.9H8.607" transform="translate(-1 -4.114)" fill="none" stroke="#fff" stroke-linecap="round" stroke-linejoin="round" stroke-width="1.3"/>
        <path id="Path_42" data-name="Path 42" d="M8.3,24.5l2.341,2.341L14.541,23" transform="translate(-3.554 -8.697)" fill="none" stroke="#fff" stroke-linecap="round" stroke-linejoin="round" stroke-width="1.3"/>
        <path id="Path_43" data-name="Path 43" d="M8.3,36.9,10.641,39.3l3.9-3.9" transform="translate(-3.554 -13.035)" fill="none" stroke="#fff" stroke-linecap="round" stroke-linejoin="round" stroke-width="1.3"/>
        <path id="Path_44" data-name="Path 44" d="M8.3,49.36,10.641,51.7l3.9-3.9" transform="translate(-3.554 -17.373)" fill="none" stroke="#fff" stroke-linecap="round" stroke-linejoin="round" stroke-width="1.3"/>
        <line id="Line_30" data-name="Line 30" x2="11.053" transform="translate(14.173 17.294)" fill="none" stroke="#fff" stroke-linecap="round" stroke-linejoin="round" stroke-width="1.3"/>
        <line id="Line_31" data-name="Line 31" x2="11.053" transform="translate(14.173 24.966)" fill="none" stroke="#fff" stroke-linecap="round" stroke-linejoin="round" stroke-width="1.3"/>
        <line id="Line_32" data-name="Line 32" x2="11.053" transform="translate(14.173 32.637)" fill="none" stroke="#fff" stroke-linecap="round" stroke-linejoin="round" stroke-width="1.3"/>
        <path id="Path_45" data-name="Path 45" d="M24.683,4.836A3.843,3.843,0,0,0,20.847,1a3.886,3.886,0,0,0-3.836,3.836H13.5v5.981H28.258V4.836Z" transform="translate(-5.373 -1)" fill="none" stroke="#fff" stroke-linecap="round" stroke-linejoin="round" stroke-width="1.3"/>
      </g>
    </g>
  </g>
  <g id="Group_142" data-name="Group 142" transform="translate(-260 -209)">
    <g id="Group_121-5" data-name="Group 121" transform="translate(720 325)">
      <text id="_08.着工" data-name="08.着工" transform="translate(520 189)" fill="#fff" font-size="18" font-family="NotoSerifJP-Regular, Noto Serif JP"><tspan x="-61.272" y="0">08.着工</tspan></text>
      <text id="下請けなしの自社施工なので安さ_早さ_丁寧さを兼ね備えておりクライアントの方々にも時々現場に来て頂き_確認を行います_" data-name="下請けなしの自社施工なので安さ、早さ、丁寧さを兼ね備えておりクライアントの方々にも時々現場に来て頂き、確認を行います。" transform="translate(260 214)" fill="#fff" font-size="14" font-family="NotoSerifJP-Regular, Noto Serif JP"><tspan x="-237.44" y="16">下請けなしの自社施工なので安さ、早</tspan><tspan x="-250.04" y="46">さ、丁寧さを兼ね備えておりクライアン</tspan><tspan x="-251.44" y="76">トの方々にも時々現場に来て頂き、確認</tspan><tspan x="-82.88" y="106">を行います。</tspan></text>
      <circle id="Ellipse_1-5" data-name="Ellipse 1" cx="40" cy="40" r="40" transform="translate(560 141)" fill="rgba(239,239,239,0.3)"/>
    </g>
    <g id="Layer_2-3" data-name="Layer 2" transform="translate(1296.292 482.666)">
      <g id="Group_103" data-name="Group 103" transform="translate(1 1)">
        <path id="Path_75" data-name="Path 75" d="M18.932,31.563,24.177,36.8,14.151,46.827,2.885,44.935,1,33.677,11.027,23.65l5.26,5.268" transform="translate(-1 -6.432)" fill="none" stroke="#fff" stroke-linecap="round" stroke-linejoin="round" stroke-width="1.3"/>
        <line id="Line_56" data-name="Line 56" x1="3.793" y1="3.786" transform="translate(7.936 19.453)" fill="none" stroke="#fff" stroke-linecap="round" stroke-linejoin="round" stroke-width="1.3"/>
        <line id="Line_57" data-name="Line 57" x1="3.786" y1="3.786" transform="translate(17.301 28.818)" fill="none" stroke="#fff" stroke-linecap="round" stroke-linejoin="round" stroke-width="1.3"/>
        <path id="Path_76" data-name="Path 76" d="M29.413,5.8l2.425,5.678L15.22,28.107l-.41,2.782,2.79-.4L34.217,13.862,39.9,16.294l4.8-5.344L34.757,1Z" transform="translate(-4.312 -1)" fill="none" stroke="#fff" stroke-linecap="round" stroke-linejoin="round" stroke-width="1.3"/>
        <line id="Line_58" data-name="Line 58" x2="5.009" y2="5.009" transform="translate(30.657 4.721)" fill="none" stroke="#fff" stroke-linecap="round" stroke-linejoin="round" stroke-width="1.3"/>
      </g>
    </g>
  </g>
  <g id="Group_143" data-name="Group 143" transform="translate(-260 -262)">
    <g id="Group_122-4" data-name="Group 122" transform="translate(720 316)">
      <text id="_09.施工_引き渡し" data-name="09.施工 / 引き渡し" transform="translate(680 381)" fill="#fff" font-size="18" font-family="NotoSerifJP-Regular, Noto Serif JP"><tspan x="0" y="0">09.施工 / 引き渡し</tspan></text>
      <text id="クライアントと私たちによる建物検査を行います_不具合がある箇所や気になる箇所は補修を行った後_お引き渡しとなります_また_引き渡し後はアフターフォローも行います_" data-name="クライアントと私たちによる建物検査を行います。不具合がある箇所や気になる箇所は補修を行った後、お引き渡しとなります。また、引き渡し後はアフターフォローも行います。" transform="translate(680 406)" fill="#fff" font-size="14" font-family="NotoSerifJP-Regular, Noto Serif JP"><tspan x="0" y="16">クライアントと私たちによる建物検査を</tspan><tspan x="0" y="46">行います。不具合がある箇所や気になる</tspan><tspan x="0" y="76">箇所は補修を行った後、お引き渡しとな</tspan><tspan x="0" y="106">ります。また、引き渡し後はアフター</tspan><tspan x="0" y="136">フォローも行います。</tspan></text>
      <circle id="Ellipse_2-4" data-name="Ellipse 2" cx="40" cy="40" r="40" transform="translate(560 333)" fill="rgba(239,239,239,0.3)"/>
    </g>
    <g id="Layer_2-4" data-name="Layer 2" transform="translate(1299.458 669.278)">
      <g id="Group_101" data-name="Group 101" transform="translate(1 1)">
        <path id="Path_67" data-name="Path 67" d="M9.869,17.849H1L3.126,7.93H14.991" transform="translate(-1 -2.286)" fill="none" stroke="#fff" stroke-linecap="round" stroke-linejoin="round" stroke-width="1.3"/>
        <path id="Path_68" data-name="Path 68" d="M37.36,7.93h8.347l2.126,9.919H38.964" transform="translate(-7.749 -2.286)" fill="none" stroke="#fff" stroke-linecap="round" stroke-linejoin="round" stroke-width="1.3"/>
        <path id="Path_69" data-name="Path 69" d="M39.33,38.849h8.16V20.11" transform="translate(-8.115 -4.547)" fill="none" stroke="#fff" stroke-linecap="round" stroke-linejoin="round" stroke-width="1.3"/>
        <path id="Path_70" data-name="Path 70" d="M2.34,20.11V38.849h7.777" transform="translate(-1.249 -4.547)" fill="none" stroke="#fff" stroke-linecap="round" stroke-linejoin="round" stroke-width="1.3"/>
        <rect id="Rectangle_48" data-name="Rectangle 48" width="2.891" height="2.891" transform="translate(33.845 17.835)" fill="none" stroke="#fff" stroke-linecap="round" stroke-linejoin="round" stroke-width="1.3"/>
        <rect id="Rectangle_49" data-name="Rectangle 49" width="2.891" height="2.891" transform="translate(33.845 24.097)" fill="none" stroke="#fff" stroke-linecap="round" stroke-linejoin="round" stroke-width="1.3"/>
        <rect id="Rectangle_50" data-name="Rectangle 50" width="2.891" height="2.891" transform="translate(3.225 17.835)" fill="none" stroke="#fff" stroke-linecap="round" stroke-linejoin="round" stroke-width="1.3"/>
        <rect id="Rectangle_51" data-name="Rectangle 51" width="2.891" height="2.891" transform="translate(12.077 15.31)" fill="none" stroke="#fff" stroke-linecap="round" stroke-linejoin="round" stroke-width="1.3"/>
        <rect id="Rectangle_52" data-name="Rectangle 52" width="2.891" height="2.891" transform="translate(18.462 15.31)" fill="none" stroke="#fff" stroke-linecap="round" stroke-linejoin="round" stroke-width="1.3"/>
        <rect id="Rectangle_53" data-name="Rectangle 53" width="2.891" height="2.891" transform="translate(24.366 15.31)" fill="none" stroke="#fff" stroke-linecap="round" stroke-linejoin="round" stroke-width="1.3"/>
        <rect id="Rectangle_54" data-name="Rectangle 54" width="2.891" height="2.891" transform="translate(12.077 21.467)" fill="none" stroke="#fff" stroke-linecap="round" stroke-linejoin="round" stroke-width="1.3"/>
        <rect id="Rectangle_55" data-name="Rectangle 55" width="2.891" height="2.891" transform="translate(18.462 21.467)" fill="none" stroke="#fff" stroke-linecap="round" stroke-linejoin="round" stroke-width="1.3"/>
        <rect id="Rectangle_56" data-name="Rectangle 56" width="2.891" height="2.891" transform="translate(24.366 21.467)" fill="none" stroke="#fff" stroke-linecap="round" stroke-linejoin="round" stroke-width="1.3"/>
        <rect id="Rectangle_57" data-name="Rectangle 57" width="2.891" height="2.891" transform="translate(11.507 29.122)" fill="none" stroke="#fff" stroke-linecap="round" stroke-linejoin="round" stroke-width="1.3"/>
        <rect id="Rectangle_58" data-name="Rectangle 58" width="2.891" height="2.891" transform="translate(25.189 29.122)" fill="none" stroke="#fff" stroke-linecap="round" stroke-linejoin="round" stroke-width="1.3"/>
        <rect id="Rectangle_59" data-name="Rectangle 59" width="2.891" height="2.891" transform="translate(3.225 24.097)" fill="none" stroke="#fff" stroke-linecap="round" stroke-linejoin="round" stroke-width="1.3"/>
        <path id="Path_71" data-name="Path 71" d="M33.13,7.047V5.19h3.445v5.269" transform="translate(-6.964 -1.778)" fill="none" stroke="#fff" stroke-linecap="round" stroke-linejoin="round" stroke-width="1.3"/>
        <rect id="Rectangle_60" data-name="Rectangle 60" width="22.395" height="22.884" transform="translate(8.714 12.338)" fill="none" stroke="#fff" stroke-linecap="round" stroke-linejoin="round" stroke-width="1.3"/>
        <path id="Path_72" data-name="Path 72" d="M22.587,1l-13,12.338H35.585Z" transform="translate(-2.595 -1)" fill="none" stroke="#fff" stroke-linecap="round" stroke-linejoin="round" stroke-width="1.3"/>
        <line id="Line_50" data-name="Line 50" x2="7.134" transform="translate(1.279 31.638)" fill="none" stroke="#fff" stroke-linecap="round" stroke-linejoin="round" stroke-width="1.3"/>
        <line id="Line_51" data-name="Line 51" x2="7.329" transform="translate(31.858 31.638)" fill="none" stroke="#fff" stroke-linecap="round" stroke-linejoin="round" stroke-width="1.3"/>
        <path id="Path_73" data-name="Path 73" d="M21.86,42.54V35.08H27.7v7.46" transform="translate(-4.872 -7.326)" fill="none" stroke="#fff" stroke-linecap="round" stroke-linejoin="round" stroke-width="1.3"/>
      </g>
    </g>
  </g>
</svg>
