<svg xmlns="http://www.w3.org/2000/svg" width="55.693" height="53.039" viewBox="0 0 55.693 53.039">
  <path id="Icon_simple-line" data-name="Icon simple-line" d="M44.937,22.418a1.463,1.463,0,0,1,0,2.926H40.865v2.611h4.073a1.461,1.461,0,1,1,0,2.922H39.4a1.464,1.464,0,0,1-1.455-1.46V18.346a1.466,1.466,0,0,1,1.462-1.462h5.537a1.462,1.462,0,0,1-.007,2.924H40.865v2.611Zm-8.946,7a1.461,1.461,0,0,1-1,1.383,1.5,1.5,0,0,1-.462.072,1.435,1.435,0,0,1-1.183-.58l-5.669-7.7v6.822a1.458,1.458,0,1,1-2.917,0V18.346a1.454,1.454,0,0,1,1-1.381,1.35,1.35,0,0,1,.45-.077,1.5,1.5,0,0,1,1.149.589l5.713,7.727v-6.86a1.462,1.462,0,0,1,2.924,0V29.417Zm-13.322,0a1.46,1.46,0,1,1-2.919,0V18.346a1.46,1.46,0,1,1,2.919,0Zm-5.722,1.46H11.41a1.47,1.47,0,0,1-1.462-1.46V18.346a1.462,1.462,0,0,1,2.924,0v9.609h4.075a1.461,1.461,0,0,1,0,2.922m38.746-7.412C55.693,11,43.2.858,27.847.858S0,11,0,23.465c0,11.164,9.909,20.518,23.287,22.3.907.19,2.142.6,2.455,1.369a5.668,5.668,0,0,1,.088,2.506L25.449,52c-.1.7-.557,2.752,2.434,1.5s16.049-9.463,21.9-16.186c4-4.383,5.913-8.874,5.913-13.849" transform="translate(0 -0.858)" fill="#fff"/>
</svg>
