<svg xmlns="http://www.w3.org/2000/svg" width="1974.822" height="453.483" viewBox="0 0 1974.822 453.483">
  <path id="Path_264" data-name="Path 264" d="M1974.822,123.1a704.532,704.532,0,0,1-79.346,26.563,8.273,8.273,0,0,1-5.5-.049c-12.053-4.213-24.334-8.166-36.176-12.574-24.513-9.142-48.6-18.706-73.214-27.7a360.2,360.2,0,0,0-72.4-18.706c-33.476-4.864-65.374-2.944-95.32,8.068-8.361,3.074-16.429,6.441-24.9,9.4-13.664,4.8-27.343,9.581-41.332,13.973-14.7,4.6-29.588,9.109-44.846,12.964-14.493,3.66-29.572,6.441-44.439,9.564a535.628,535.628,0,0,1-56.72,8.3q-27.693,2.733-55.89,3.383-32.085.708-63.861-1.318a657.571,657.571,0,0,1-75.784-9.028c-2.993-.537-4.327-1.383-5.01-3.253-7.629-20.788-17.177-41.2-30.3-60.949-13.468-20.268-29.93-39.462-54.264-55.663A148.161,148.161,0,0,0,1060.893,3.4c-8.524-1.675-17.568-2.294-26.368-3.4h-11.972c-5.628.5-11.354.813-16.9,1.545a194.263,194.263,0,0,0-63.47,19.763c-14.265,7.3-27.766,15.176-41.544,22.821-10.671,5.9-21.227,11.858-31.817,17.8-4.538,2.538-9.125,5.026-13.6,7.58-6.393,3.611-12.688,7.3-19.08,10.915-8.393,4.75-16.884,9.418-25.278,14.184-2.31,1.318-4.278,2.9-6.6,4.2-9.776,5.433-19.682,10.768-29.409,16.234-3.481,1.952-6.441,4.229-9.906,6.214q-17.372,9.979-34.988,19.828c-10.931,6.149-21.862,12.3-33.037,18.283-12.216,6.572-24.692,12.948-37.07,19.405-14.347,7.482-28.726,14.932-42.959,22.48-6.946,3.676-13.062,8.052-20.5,11.272-26.237,11.354-52.556,22.675-79.46,33.411Q428.125,281.4,338.58,316.214c-62.543,24.2-125.591,47.888-188.476,71.717a11.108,11.108,0,0,1-5.14.407Q76.036,375.8,8.833,359.969c-1.854-.423-3.725-.862-5.579-1.3-1.041-.244-2.147-.423-3.253-.634q4.392,1.1,8.833,2.18c44.8,11.012,90.358,20.577,137.091,29.36-4.766,1.838-8.865,3.27-12.655,4.945a10.1,10.1,0,0,1-6.246.521c-6.425-1.122-12.866-2.147-19.324-3.253-33.232-5.661-66.236-11.777-98.882-18.56v1.74q58.387,12,118.271,21.894c-4.2,1.659-7.792,2.993-11.224,4.473a12.829,12.829,0,0,1-7.5.813c-26.237-4.1-52.6-7.889-78.744-12.2Q19.2,388.24,8.8,386.434v1.415c27.782,4.652,55.679,9.077,83.494,13.647,5.27.878,10.589,1.594,16.64,2.489-4.636,1.838-8.491,3.465-12.525,4.9a11.639,11.639,0,0,1-4.847.634C63.991,405.938,36.355,402.473,8.8,398.78v2.066q34.647,4.855,69.619,8.9c3.806.455,7.6.927,12.216,1.48-4.278,1.74-7.889,3.058-11.24,4.62a13.957,13.957,0,0,1-7.531,1.09c-21-2.05-42.081-3.855-63.064-5.953v1.789q13.2,1.366,26.449,2.586c11.972,1.106,24.009,2.163,36.94,3.318-5.319,2.163-9.939,4.083-14.623,5.921a7.169,7.169,0,0,1-2.05,0c-11.777-.569-23.57-1.041-35.33-1.773-3.806-.228-7.6-.472-11.37-.7v1.919q21.813,1.342,43.691,2.44a95.1,95.1,0,0,1-10.85,4.717,20.207,20.207,0,0,1-6.441,1.22c-8.8-.033-17.584-.081-26.4-.146v1.708c7.32.065,14.607.114,21.911.179.895,0,1.757.065,3.562.13-5.27,2.228-9.76,4.148-14.281,6.051a5.861,5.861,0,0,1-1.676.244c-3.172.146-6.344.277-9.515.423v1.659c1.675-.081,3.351-.146,5.026-.211-1.659.976-3.334,1.854-5.026,2.651v.862a45.848,45.848,0,0,1,21.6-4.424c3.481.081,6.995-.26,11.24-.455-10.069,4.587-21.39,5.368-32.841,6.588v1.675c2.407-.244,4.88-.439,7.32-.667a6.923,6.923,0,0,1,.341.7q-3.806.878-7.661,1.757v2.342C32.613,448.8,56.1,443.35,80.924,440.8c11.435-1.171,22.594-3.432,34.045-4.327,26.01-2.033,51.824-5.01,78.061-5.921,24.871-.862,49.709-2.456,74.6-3.123,22.594-.6,45.252-.407,67.862-.521,9.646-.049,19.259-.163,28.889.033,20.5.407,40.974.992,61.437,1.513,12.525.325,25.066.569,37.559.96,18.25.569,36.469,1.529,54.735,1.789,34,.455,67.944-.309,101.631-3.595,31.9-3.091,62.836-8.068,91.643-17.4,17.1-5.53,32.5-12.476,45.317-21.422,24.529-17.079,35.184-37.493,35.493-60.038.163-11.045-1.724-22.089-1.838-33.134-.13-13.956-.293-27.961,1.253-41.869a411.547,411.547,0,0,1,8.361-47.4c5.01-21.618,13.68-42.764,24.464-63.552.6-1.187,1.627-1.773,3.562-2q9.979-1.171,19.975-2.489c11.874-1.562,23.57-2.049,35.1,1.171,2.277.634,5.3.374,7.97.374,11.923.049,23.781-.618,35.672,1.643,15.518,2.96,31.54,4.945,47.334,7.369a17.945,17.945,0,0,1,4.164,1.041,267.56,267.56,0,0,0,52.214,15.827c5.872,1.2,12.265,1.806,17.584,3.627a304.814,304.814,0,0,0,42.861,11.419,39.935,39.935,0,0,1,4.376,1.318c10.15,3.156,20.235,6.36,30.434,9.418,3.953,1.2,8.67,1.61,12.249,3.139a185.037,185.037,0,0,0,37.282,11.516,18.031,18.031,0,0,1,4.554,1.48,136.644,136.644,0,0,0,33.948,11.207,28.463,28.463,0,0,1,7.19,2.521,110.744,110.744,0,0,0,32.4,10.589,16.239,16.239,0,0,1,5.319,1.887c13.371,7.71,28.938,11.972,47.4,11.565,15.306-.325,29.393-3.465,42.813-7.759a317.844,317.844,0,0,0,44.634-18.527c24.123-11.972,46.326-25.229,68.415-38.583a7.282,7.282,0,0,1,4.88-1.139c9.857.781,19.715,1.692,29.653,2.131,31.036,1.366,62.1,2.96,93.221,3.692,21.292.488,42.682-.049,63.991-.634,18.251-.5,36.436-1.545,54.605-2.716,39.266-2.554,77.638-7.791,115.555-14.591,24.334-4.376,48.945-8.019,74.629-7.108,13.192.455,26.188,1.708,38.355,4.912,12.785,3.383,25.408,7.011,38.03,10.638v-.878a.165.165,0,0,0-.049-.016h.049v-2.407c-.895-.211-1.757-.407-2.651-.618a3.329,3.329,0,0,1,1.806-.1c.293.049.553.1.846.13v-1.822c-4.067-.716-8.133-1.464-12.183-2.2,4.164.065,8.182.488,12.183.927v-1.806c-1.285-.114-2.57-.244-3.855-.358-6.9-.634-13.712-1.643-20.544-2.472a27.865,27.865,0,0,1,4.8-.033q9.784.415,19.6.862v-1.5c-12.183-.634-23.911-1.4-33.134-1.952,10.362-.244,21.52-.455,33.134-.716v-1.383c-15.811.228-31.589.049-47.4.049a67.69,67.69,0,0,1,10.361-.992c12.395-.5,24.741-1.171,37.038-2.1v-1.822c-11.712.83-23.488,1.5-35.233,2.228-6.116.39-12.265.472-19.194.716a8.749,8.749,0,0,1,1.334-.472c17.828-1.545,35.542-3.448,53.076-5.9v-1.724c-13.842,1.936-27.831,3.53-41.918,4.912-6.523.651-13.062,1.187-19.6,1.789a8.148,8.148,0,0,1,2.912-.878c12.167-1.887,24.4-3.611,36.469-5.709,7.45-1.3,14.835-2.668,22.155-4.164v-1.806c-19.129,3.92-38.665,7.125-58.379,9.939-2.928.423-5.921.732-8.881,1.09a4.6,4.6,0,0,1,2.391-1.008c22.122-4.083,43.772-8.849,64.886-14.542v-1.871c-21.048,5.693-42.747,10.492-64.934,14.64-2.619.488-5.3.911-7.97,1.366-.081-.2-.163-.374-.228-.569,3.009-.716,6.035-1.448,9.044-2.18,22.024-5.27,43.431-11.3,64.089-18.251v-2a774,774,0,0,1-75.947,21.162,22.771,22.771,0,0,1-3.383.211c-.081-.2-.163-.39-.26-.586a731.719,731.719,0,0,0,79.59-26.872V123.1Zm-419.373,0c-2.749,2.749-6.6,4.115-11.533,4.132a6.244,6.244,0,0,1-.423-.553C1547.478,125.493,1551.463,124.289,1555.449,123.1Zm-10.557,6.084c-3.936,3.611-9.483,4.782-16.168,4.717C1533.131,130.926,1538.581,129.592,1544.892,129.186Zm-778.529,19.1c-7.027,2.115-13.729,4.62-20.609,6.962-.179-.1-.39-.211-.6-.309,2.44-2.716,4.8-5.449,7.385-8.117a6.973,6.973,0,0,1,3.009-1.334c5.872-1.431,11.777-2.8,18.007-4.018-1.789,2.538-2.359,5.335-7.206,6.816Zm.992,2.228c-2.456,2.131-6.978,2.18-10.248,3.481-.179-.146-.374-.277-.553-.423,3.432-1.187,6.9-2.359,10.329-3.546.163.163.309.325.472.488Zm22.2-28.173c-.976,2.391-14.884,8.458-22.415,9.922C770.949,125.7,781.555,125.314,789.558,122.338Zm-14.005,2.05c7.531-7.369,14.949-14.086,28.856-16.543-3.806,3.855-7.661,7.743-11.5,11.647a1.713,1.713,0,0,1-.765.423C786.842,121.362,781.523,122.777,775.553,124.387Zm7.255,6.279c-2.1,2.554-4.067,5.108-6.246,7.564a5.99,5.99,0,0,1-2.668,1.236c-5.791,1.3-11.646,2.537-17.437,3.806,1.285-3.985,17.567-11.842,26.351-12.606Zm-24.464,4.424c-4.245,1.171-8.328,2.57-12.509,3.855,4.327-4.636,12.248-6.214,19-8.832a10.121,10.121,0,0,1-6.507,4.977Zm-.911,2.115c.26.211.553.423.813.634-8.279,4.083-16.575,8.166-25.635,12.623C737.23,142.589,748,140.409,757.432,137.2Zm-9.077,10.362c-2.993,3.448-5.53,6.376-8.1,9.288a2.873,2.873,0,0,1-1.2.748c-7.45,2.684-14.884,5.335-22.756,8.149,6.311-9.011,16.673-14.835,32.061-18.186Zm25.326.244c7.759-2.635,15.615-5.173,23.96-7.905-1.334,2.977-2.277,5.368-7.726,6.214-6.376.992-12.444,2.7-18.69,4.1-.179-.179-.391-.358-.569-.537a14,14,0,0,1,3.042-1.871Zm1.366-2.554c.6-3.172,2.749-4.9,7.108-5.628,5.563-.927,11.175-1.773,16.77-2.651a5.839,5.839,0,0,0,.293.521C791.2,140.068,783.2,142.638,775.049,145.256Zm4.831-7.092c2.44-2.928,4.636-5.579,6.913-8.2a3.018,3.018,0,0,1,1.513-.813c6.214-1.2,12.444-2.359,19.6-3.692-2.326,3.351-4.148,6.018-6.1,8.637a4.258,4.258,0,0,1-2.277,1.057c-6.311,1.008-12.655,1.936-19.666,3.009Zm24.009-13.582c-4.636.407-9.141,1.464-13.729,2.245-.162-.244-.342-.488-.5-.732,7.336-2.261,14.7-4.538,22.545-6.962-1.041,3.351-3.3,5.026-8.312,5.449Zm-10.508-2.814c3.221-.846,6.474-1.692,9.695-2.537.1.146.212.276.309.423-3.091.96-6.165,1.936-9.255,2.9-.26-.26-.5-.521-.765-.781Zm3.888-3.156c.976-1.041,1.545-1.757,2.228-2.44,2.993-2.944,5.953-5.9,9-8.816a7.22,7.22,0,0,1,2.8-1.887c5.14-1.48,10.41-2.8,16.543-4.424-4.148,4.945-7.792,9.288-11.451,13.615a2.964,2.964,0,0,1-1.545.781C809.273,116.482,803.693,117.458,797.268,118.613Zm692.693,31.3c-6.572,4.6-10.931,5.482-21.894,4.538C1472.605,150.966,1480.706,149.242,1489.961,149.909Zm-7.027-1.789c5.482-3.465,12.135-4.62,19.666-4.571C1497.623,147.892,1490.645,148.445,1482.934,148.119Zm-6.181,8.345c-5.84,5.791-14.623,5.3-23.488,4.262C1459.43,156.057,1467.807,155.618,1476.753,156.464Zm-27.1-2.115c5.953-3.3,13.159-3.855,21.13-3.757C1462.65,154.691,1458.226,155.455,1449.654,154.349Zm6.783,2.131c-6.181,4.929-14.493,4.441-23.114,3.644C1440.057,156.22,1447.946,155.651,1456.437,156.48Zm-13.794,5.888c-5.53,4.376-14.493,5.6-25.326,3.448C1424.555,161.035,1433.648,161.718,1442.643,162.368Zm-46.261,2.017c5.823-2.912,13.159-3.709,24.692-2.684C1413.868,166.451,1405.215,165.654,1396.382,164.385Zm9.272,2.7c-8.052,5.368-17.584,3.839-27.164,2.163C1386.9,165,1396.285,165.882,1405.654,167.086Zm-30.011-4.229c7.6-2.765,15.6-2.7,23.586-1.838C1392.2,164.678,1384.134,164.076,1375.643,162.856Zm7.531,2.554c-8.182,4.294-17.226,2.928-26.611,1.35C1364.11,164.141,1369.95,163.865,1383.174,165.41Zm-15.859,4.538c-46.8,11.874-93.5,21.7-143.288,25.522-1.936-3.351-3.806-6.6-5.742-9.987,39.9-2.782,78.533-8.182,116.726-14.981a41.305,41.305,0,0,0,4.359-.83C1348.413,166.939,1357.344,168.354,1367.315,169.948Zm-32.191-5.742c8.442-2.424,16.884-1.545,25.944-.5A77.586,77.586,0,0,1,1335.124,164.207Zm7.385,2.342c0,.277-.032.553-.032.846-9.337,1.61-18.608,3.3-27.945,4.847-28.075,4.6-56.46,8.328-85.267,10.736-1.041.1-2.1.2-3.139.26q-8.751.569-11.354-4.668c-.521-1.025-.992-2.05-1.594-3.383,6.425-.407,12.558-.683,18.641-1.187q33.891-2.855,67.732-5.872c8.2-.748,16.282-2.294,24.513-2.684,6.083-.293,12.3.7,18.462,1.106Zm-127.852,17.584c-10.459.472-20.349.911-30.727,1.366-1.968-2.879-3.953-5.774-6.165-9.028,4.929-.2,9.3-.358,13.68-.537,5.238-.2,10.492-.342,15.729-.618,2.2-.114,3.481.2,4.067,1.659.911,2.31,2.147,4.571,3.4,7.157ZM1289.6,167.46c-24.806,2.082-49.628,3.985-74.45,5.872-1.041.081-2.928-.439-3.221-.927-1.415-2.586-2.407-5.254-3.676-8.1,1.448-.065,2.456-.163,3.465-.163,12.086-.081,24.171.065,36.225-.244,17.779-.455,35.493-1.431,53.272-1.789,5.579-.13,11.272.96,16.9,1.5,0,.244.032.488.032.732-9.516,1.057-18.983,2.31-28.547,3.123Zm-80.078,6.181c-8.133.309-15.908.586-23.7.862-1.041.033-2.131-.016-3.172,0-6,.179-6.035.179-8.068-3.416-1.415-2.44-2.733-4.9-3.888-6.962,10.8,0,21.52,0,32.272.049.911,0,2.456.423,2.668.862C1207.044,167.785,1208.167,170.583,1209.517,173.641Zm-35.8,1.3c-6.994,0-13.468-.39-19.763.1-8.865.667-14.477-.976-16.8-6.555-.846-1.984-2.668-3.806-4.327-6.1,5.482.163,10.329.277,15.144.455,5.839.2,11.663.423,17.519.7a3.864,3.864,0,0,1,2.2.651c1.984,3.383,3.855,6.8,6.035,10.752Zm-22.9-13.582c-5.01-.114-10.036-.439-15.046-.569-2.83-.081-4.8-.537-5.612-2.472a48.5,48.5,0,0,0-3.481-5.84c6.083.342,11.712.651,17.356.992,5.579.325,11.191.651,16.754,1.074a4.454,4.454,0,0,1,2.651.992,64.372,64.372,0,0,1,2.879,5.84c-5.3,0-10.378.081-15.485-.016Zm-28.807-9.19a3.108,3.108,0,0,1,1.984.895c1.5,2.277,2.781,4.587,4.424,7.352-7.466-.374-14.2-.7-20.951-1.057-3.009-.163-6.035-.553-9.077-.553-3.351.016-5.433-.716-6.653-2.716-1.253-2.066-2.993-4.034-4.766-6.376,12.118.83,23.57,1.61,35.021,2.456Zm-38.014-6.653a21.806,21.806,0,0,0-1.383-2.391c12.248.943,23.8,1.806,35.363,2.7,4.327.342,2.733,2.96,5.27,4.652-8.735-.569-16.429-1.09-24.172-1.594-3.009-.2-6.035-.569-9.044-.586C1086.756,148.3,1084.8,147.469,1083.991,145.517Zm54.492,5.97c-2.537-.146-5.091-.374-7.661-.553-5.84-.407-6.214-.618-6.995-4.6,6.9.521,13.712,1.025,20.544,1.545,4.034.309,8.1.618,12.167.943,4.717.39,4.9.537,5.238,4.05-7.808-.455-15.551-.911-23.309-1.383Zm21.26-4.115c-6.685-.5-13.241-.992-19.763-1.48-4.88-.374-9.727-.83-14.607-1.106-2.326-.13-3.546-.716-4.083-2.115-.6-1.448-1.513-2.863-2.489-4.685,5.953.732,11.4,1.383,16.852,2.082,5.953.765,11.842,1.773,17.844,2.261,3.774.309,5.3,1.4,5.742,3.513a11.619,11.619,0,0,0,.5,1.529Zm-.26-6.637c.179-.26.374-.5.553-.748q12.663,2.22,25.294,4.424a2.468,2.468,0,0,1-.293.293c-7.531-.976-15.079-1.952-22.578-2.977a16.147,16.147,0,0,1-2.993-.992Zm-3.139.26q-13.371-1.708-26.741-3.4a76.917,76.917,0,0,0-7.889-1.008c-4.555-.1-5.27-2-6.1-4.457,5.774,1.008,11.094,1.952,16.429,2.912,7.385,1.3,14.818,2.586,22.171,3.953a13.825,13.825,0,0,1,2.879,1.269c-.26.244-.521.488-.764.732Zm-40.08-1.919a33.009,33.009,0,0,1,2.879,4.929c-1.187,0-2.049.065-2.879,0-10.427-.781-20.869-1.643-31.328-2.31-2.83-.179-4.359-.911-5.319-2.5-1.285-2.082-2.863-4.1-4.555-6.555,4.88.569,9.207,1.057,13.533,1.578,8.133.992,16.3,1.968,24.4,3.107a5.709,5.709,0,0,1,3.269,1.757ZM854.021,97.629c.5-.618,2.83-.813,4.375-.911a206.354,206.354,0,0,1,47.757,1.871,166.594,166.594,0,0,1,33.232,8.767c-31.9-1.171-63.568-.781-95.791,3.79,3.676-4.847,6.848-9.239,10.41-13.517ZM840.552,110.9a2.95,2.95,0,0,1-1.708.976c-6.165,1.025-12.379,1.968-18.56,2.928l-.634-.488c4.018-4.522,8-9.044,12.086-13.55a4.129,4.129,0,0,1,2.017-.748c5.27-.895,10.557-1.741,16.673-2.733-3.546,4.912-6.653,9.272-9.89,13.615Zm42.617-1.562c8.052-.472,16.152-.781,24.22-.667,12.639.163,25.245.748,37.884,1.187a7.358,7.358,0,0,1,2.619.5c7.6,3.465,15.144,6.994,22.724,10.492-.179.244-.342.488-.5.732-4.359-.146-8.7-.342-13.062-.423-12.769-.228-25.554-.39-38.323-.651a26.55,26.55,0,0,1-5.742-.748,223.391,223.391,0,0,0-58.119-7.352c-1.155.016-2.326,0-3.481,0-.049-.228-.1-.455-.163-.683,10.638-.813,21.26-1.773,31.93-2.391Zm71.1,1.09c4.766.358,9.434.6,14.054,1.074q20.5,2.05,40.893,4.311a9.025,9.025,0,0,1,4.213,1.578c3.172,2.407,6.051,4.977,9.564,7.938-10.41-.781-19.893-1.513-29.393-2.2-5.352-.407-10.7-.716-16.038-1.122a7.3,7.3,0,0,1-2.8-.651c-6.767-3.546-13.468-7.157-20.5-10.931Zm51.3,15.241c5.791.439,11.582.976,17.356,1.562a6.386,6.386,0,0,1,3.091,1.074c3.22,3.009,6.262,6.116,9.646,9.451-2.359,0-4.245.1-6.1,0q-15.176-.83-30.336-1.789a9.332,9.332,0,0,1-3.985-1.041c-5.108-3.465-10.036-7.043-15.811-11.11,9.337.651,17.746,1.22,26.14,1.871Zm23.521,2.066c6.246.618,11.826,1.122,17.4,1.708,7.157.748,14.265,1.61,21.439,2.31,2.538.244,4.148.813,5.091,2.424,1.318,2.212,3.123,4.327,4.978,6.864-12.85-.895-24.773-1.708-36.7-2.586a4.98,4.98,0,0,1-2.6-.846c-3.172-3.107-6.165-6.295-9.613-9.874Zm37.559,14.2c2.2.163,4.408.358,6.6.521,6.815.553,7.027.667,8.67,5.189-6-.407-11.874-.8-17.779-1.2-4.766-.325-9.516-.748-14.282-.96-3.172-.146-5.579-.651-6.555-2.733a18.832,18.832,0,0,0-2.147-2.586c9,.634,17.226,1.187,25.473,1.773Zm31.719-8.247c-6.653-.813-13.241-1.789-19.942-2.375-3.644-.325-5.97-1.139-7.157-3.335a37.95,37.95,0,0,0-2.879-3.758c4.961.8,9.223,1.448,13.452,2.163,8.231,1.383,16.38,2.977,24.692,4.1,4.554.634,6.994,1.968,7.369,5.075-5.156-.634-10.361-1.236-15.518-1.871Zm-28.5-3.448c-8.735-.943-16.982-1.822-25.277-2.684-5.189-.553-10.378-1.025-15.567-1.61a6.626,6.626,0,0,1-2.96-.878c-3.139-2.6-6.084-5.3-9.093-7.97.1-.163.211-.325.309-.488q22.837,3.367,45.691,6.767a3.992,3.992,0,0,1,2.131.96c1.627,1.838,3.074,3.741,4.766,5.9Zm-36.143-13.208c-5.823-.846-11.7-1.529-17.453-2.472a12,12,0,0,1-4.831-1.757,190.669,190.669,0,0,0-46.765-25.831,178.8,178.8,0,0,0-67.895-11.224c-8.491.228-16.933,1.2-25.944,1.871,4.424-4.327,8.751-8.589,13.192-12.8a5.869,5.869,0,0,1,2.359-.862,180.425,180.425,0,0,1,44.829-5.547c27.164.114,50.962,6.149,72.108,16.494,22.041,10.784,38.616,24.415,52.8,39.266,2.066,2.18,4.018,4.408,6.441,7.06-10.166-1.48-19.5-2.863-28.84-4.2ZM879.12,78.6c41.153-4.489,76.077,3.546,106.592,20.268,7.108,3.888,13.4,8.328,20.024,12.541a30.581,30.581,0,0,1,2.44,1.887c-17.063-1.562-34.045-3.286-51.124-4.571a68.1,68.1,0,0,1-17.958-3.709c-22.154-7.775-46.082-11.256-71.538-10.508-1.854.049-3.741.2-5.612.309-1.806.1-3.644.2-6.246.342,3.074-3.611,6.311-6.75,8.442-10.15,2.749-4.457,8.068-5.661,14.965-6.409Zm-21.764,10.54c-2.96,4.994-8.068,7.824-16.835,8a58.923,58.923,0,0,0-6.588.943c4.685-4.6,8.881-8.767,13.208-12.9a5.716,5.716,0,0,1,2.31-.911,129.261,129.261,0,0,1,14.314-2.9c-2.18,2.57-4.831,5.059-6.425,7.759ZM834.55,94.327c-2.651,3.481-6.588,5.612-12.606,6.441-2.44.342-4.685,1.09-7.922,1.871,7.336-7.206,14.282-13.729,27.994-15.973C839.446,89.236,836.567,91.66,834.55,94.327Zm-11.37,22.382c4.847-.651,9.565-1.61,15.095-2.554-1.659,2.635-2.781,4.685-4.213,6.653a4.218,4.218,0,0,1-2.456.911c-6,.488-12.037.878-18.3,1.318,1.318-3.448,4.327-5.579,9.89-6.328Zm12.086,7.531a4.3,4.3,0,0,1,2.651-.911c7.287-.081,14.607-.049,21.894-.049a7.725,7.725,0,0,0-.1.862c-8.865,1.431-17.714,2.863-27.034,4.359a34.617,34.617,0,0,1,2.6-4.262Zm1.806-3.025a67.037,67.037,0,0,1,4.327-6.2c.439-.537,2.31-.846,3.546-.862,13.6-.26,27.181-.13,40.47,1.968,7.531,1.187,14.965,2.619,22.464,3.953a5.83,5.83,0,0,0-.179.667c-4.75.228-9.483.407-14.233.683-4.538.244-9.093.423-13.582.911a97.868,97.868,0,0,1-19.763-.114C852.654,121.524,845.026,121.54,837.072,121.215Zm56.378,1.838c4.9-.277,9.808-.407,14.7-.651a33.5,33.5,0,0,1,13.794,1.871c7.808,2.993,15.762,5.872,23.618,8.816-.179.1-.374.211-.553.309-8.784,0-17.568-.13-26.319.065a39.289,39.289,0,0,1-13.533-2.017c-8.442-2.765-17.372-4.945-26.221-7.4,4.685-.325,9.6-.716,14.493-.992Zm28.726-1.09c11.793.277,22.756.521,33.736.83,5.482.163,10.963.423,16.429.7a7.4,7.4,0,0,1,3.139.683c5.563,3.595,11.012,7.255,17.226,11.37-8.019-.325-14.916-.618-21.829-.878-5.01-.211-10.036-.521-15.046-.521a18.049,18.049,0,0,1-7.677-1.659c-8.28-3.481-16.754-6.8-25.977-10.524ZM989.7,137.01c5.9.081,7.678,2.6,10.98,5.091-9.418-.537-18.088-1.041-26.741-1.545-1.854-.114-3.725-.211-5.579-.309-5.823-.309-8.149-1.139-12.395-4.506C967.444,136.2,978.554,136.879,989.7,137.01Zm9.613.651c3.936.211,7.6.358,11.24.569,6.978.407,13.973,1.106,20.967,1.171,5.97.081,8.263,2.2,10.036,5.417-8.312-.537-16.3-1.074-24.269-1.594-2.229-.146-4.424-.439-6.637-.39-5.791.163-8.832-1.968-11.354-5.173Zm38.583,8.556c4.408.2,6.978,1.269,8.751,3.692a64.506,64.506,0,0,0,5.5,5.547c-6.376-.553-12.118-1.041-17.828-1.562-3.465-.309-6.9-.846-10.378-.96a16.351,16.351,0,0,1-10.719-3.888c-1.838-1.545-3.985-2.944-6.6-4.864C1017.755,144.931,1027.792,145.777,1037.893,146.216Zm13.582,5.319a50.339,50.339,0,0,0-4.49-4.571c7.84.521,15,.992,22.122,1.48,3.823.26,7.629.618,11.484.781,2.261.1,3.595.651,4.49,1.936,1.578,2.326,3.335,4.6,5.221,7.173-9.141-.651-17.909-1.513-26.693-1.838C1057.7,156.285,1053.915,154.788,1051.475,151.535Zm7.922,6.295c4.359.293,8.7.586,13.062.895,5.9.423,11.826.846,17.714,1.3a4.548,4.548,0,0,1,2.277.683c4.083,4.115,8.068,8.263,12.443,12.818-9.141-.781-17.828-1.366-26.351-2.359-2.066-.244-3.936-1.724-5.563-2.83-4.831-3.269-9.516-6.637-14.265-9.971.244-.179.439-.358.651-.537Zm35.623,2.538c5.449.277,9.808.488,14.135.716,5.823.293,11.614.6,17.437.862,2.017.081,3.351.455,4.213,1.773,2.359,3.595,5.059,7.108,8,11.207-10.069-.455-19.373-.846-28.645-1.318a3.556,3.556,0,0,1-1.936-.716c-4.245-3.969-8.409-7.97-13.192-12.525Zm24.269,15.42c6.083.163,12.167.439,18.25.553,1.936.049,3.172.293,4.115,1.5,1.838,2.326,4.034,4.555,6.653,7.434-8.963-.651-17.1-1.236-25.213-1.838a4.148,4.148,0,0,1-1.838-.553c-3.221-2.261-6.392-4.555-9.939-7.108C1114.523,175.772,1116.9,175.723,1119.289,175.788Zm24.334.83c5.156,0,9.678.016,14.184,0,3.269,0,6.571.081,9.857,0,7.027-.2,7.027-.228,9.76,3.92,1.025,1.529,2.05,3.058,3.172,4.75-9.125,0-17.665.081-26.188-.065a7.282,7.282,0,0,1-3.985-1.562c-2.359-2.131-4.327-4.441-6.783-7.027Zm36.4,10.524a4.355,4.355,0,0,1,2.359.6c2.407,2.8,4.62,5.644,7.287,9-6.555-.244-12.313-.634-18.12-.6-5.921.049-9.857-1.529-12.72-4.6-1.366-1.464-3.123-2.8-4.929-4.408,9.076,0,17.584-.016,26.107.016Zm5.059.065c1.285-.146,2.05-.293,2.83-.325,8.052-.358,16.1-.634,24.123-1.074,2.668-.146,3.985.244,4.766,1.936,1.188,2.554,2.8,5.043,4.424,7.84-2.57.163-4.929.39-7.32.472-6.181.211-12.379.423-18.56.521a5.294,5.294,0,0,1-3.139-.927C1189.721,192.949,1187.541,190.167,1185.085,187.207Zm37.25,10.183c2.359,3.318,4.766,6.75,7.6,10.752-6.181,0-11.907-.244-17.535.065-6.506.358-10.166-1.594-12.9-4.88-1.334-1.594-3.009-3.091-4.8-4.88C1204.263,198.089,1213.128,197.747,1222.334,197.389Zm2.8-.179c8.523-.878,16.559-1.594,24.594-2.538,36.94-4.327,72.433-11.647,107.259-20.284a46.786,46.786,0,0,0,6.165-1.562c8.914-3.579,17.909-1.5,27.766-.342-4.847,1.627-9,3.074-13.208,4.408-28.157,8.946-56.785,17.226-87.007,23.228a444.779,444.779,0,0,1-54.394,7.45c-2.521.179-4.083-.065-5.091-1.692C1229.41,202.985,1227.23,200.187,1225.132,197.21Zm25.879,10.752c24.383-2.521,47.708-7.255,70.563-12.964,24.724-6.181,48.489-13.533,71.961-21.325a12.231,12.231,0,0,1,4.587-.488c5.156.439,10.28,1.057,16.412,1.708-7.678,3.107-14.363,6.051-21.39,8.6-19.422,7.043-38.7,14.282-58.591,20.756a320.045,320.045,0,0,1-68.5,14.542c-6.572.634-13.257.862-19.926,1.122a5.768,5.768,0,0,1-3.383-1.041c-3.009-2.993-5.791-6.1-8.865-9.4,6.083-.537,11.647-.943,17.112-1.513ZM1400.4,171.738c7.97-5.173,17.714-4.506,27.9-2.993-.163.244-.179.342-.26.374Q1416.715,174.129,1400.4,171.738Zm50.441-1.464c-3.334,1.724-6.393,3.367-9.564,4.929a4.747,4.747,0,0,1-2.229.407c-5.531-.472-11.028-1.025-16.494-1.545C1430.232,167.948,1440.2,168.712,1450.841,170.274Zm-12.948-2.8c7.059-5.53,16.234-5.482,26.416-4.18-3.3,1.724-6.3,3.335-9.353,4.864a4.336,4.336,0,0,1-1.936.211C1447.962,168.094,1442.9,167.785,1437.893,167.476Zm30.125-3.757a4.272,4.272,0,0,1,1.919-.423c5.189.114,10.378.293,15.827.455-3.091,2-5.791,3.774-8.572,5.514a3.754,3.754,0,0,1-1.806.5c-5.433-.277-10.833-.618-17.063-.976C1462,166.858,1464.976,165.264,1468.018,163.719Zm5.221-2.1c4.9-4.668,11.956-6.132,25-5.108-3.123,1.9-5.709,3.579-8.491,5.091a7.308,7.308,0,0,1-3.139.455C1482.2,161.978,1477.827,161.783,1473.24,161.62ZM1487,154.382c5.563-5.01,13.761-5.726,22.626-5.14C1505.121,154.056,1497.85,155.7,1487,154.382Zm13.794-6.913c5.27-4.392,12.509-5.465,20.707-5.205C1516.833,147.42,1509.334,148.038,1500.794,147.469Zm13.582-6.7c5.026-3.725,11.321-5.156,19.064-5.205C1527.65,139.986,1525.974,140.442,1514.377,140.767Zm11.581-8.833c.211.293.439.6.651.911-3.774,1.09-7.58,2.18-11.37,3.286-.26-.342-.5-.7-.765-1.041C1518.3,134.033,1522.135,132.992,1525.958,131.935Zm-11.094,5.742c-5.774,3.578-8.019,4.148-16.64,4.213C1502.941,139.222,1508.244,137.888,1514.865,137.676Zm-20.154,2.342c-2.8,2.847-7.239,3.058-11.647,3.318a4.029,4.029,0,0,1-.211-.569q5.9-1.366,11.842-2.749Zm-11.484,5.221c-4.75,3.237-10.557,3.9-17.4,3.595A39.92,39.92,0,0,1,1483.227,145.24Zm-20.609,1.724c.163.325.309.651.472.96q-6.1,1.147-12.183,2.261c-.179-.358-.39-.716-.569-1.074,4.083-.716,8.2-1.431,12.3-2.147Zm-12.59,4.733c-5.482,2.993-11.777,3.579-18.9,2.96C1437,152.283,1443.212,151.568,1450.028,151.7Zm-14.672,4.977c-5.091,3.025-8.523,3.481-21.764,2.847C1420.326,156.48,1427.662,156.041,1435.356,156.675Zm-7.287-4.018c.13.358.228.7.374,1.041-4.538.569-9.044,1.122-13.582,1.692-.1-.342-.211-.667-.309-1.009q6.759-.854,13.533-1.724Zm-13.761,4.229c-6.051,2.83-12.476,2.651-19.552,1.968A47.978,47.978,0,0,1,1414.307,156.887Zm-22.431-.065c-4.408,2.05-9.223,2.05-14.152,1.594-.032-.2-.081-.407-.1-.6,4.75-.325,9.483-.667,14.265-.992Zm-15.681,2.9c.032.211.049.423.081.618-6.3,2.635-13.078,1.936-19.894,1.106-.032-.293-.049-.586-.081-.878Q1366.257,160.148,1376.2,159.717Zm-23.456-.2c-4.9,1.643-9.988.976-15.095,0Zm-16.9,1.675c-6.994,2.8-13.94,1.529-20.869,0Zm-24.854-1.887c-4.831,1.155-7.466,1.074-15.648-.781C1300.3,158.774,1305.243,159.018,1310.985,159.31Zm-21.553.716a5.315,5.315,0,0,1,2.18.765c-4.018.2-8.019.472-12.037.569q-20.373.512-40.73.895c-9.011.146-18.055.065-27.083.309-3.432.1-4.977-.6-5.319-2.635a23.67,23.67,0,0,0-.976-3.042c5.709.2,11.061.374,16.413.537,12.167.342,24.35.521,36.485,1.074,10.362.472,20.918-.634,31.068,1.529Zm-25.2-3.66c-9.337,0-18.641.146-27.945-.049-9.337-.179-18.641-.748-27.978-1.025-2.993-.081-4.75-.6-4.2-2.9,20.235,1.3,40.21,2.586,60.217,3.871C1264.3,156.3,1264.252,156.334,1264.236,156.366Zm-61.307-7.726q15.323,1.806,30.678,3.611c-.033.13-.049.26-.081.374-9.678-.634-19.373-1.236-29.019-1.984-.846-.065-1.513-.976-2.261-1.48.211-.179.439-.342.683-.521Zm.423,10.231a20.653,20.653,0,0,0,1.155,3.318c-7.547,0-14.737.049-21.943-.016-3.725-.016-7.466-.146-11.175-.39a3.384,3.384,0,0,1-2.326-1.139c-1.122-1.806-1.936-3.692-2.993-5.791,7.287.374,14.233.732,21.162,1.09,3.823.2,7.677.521,11.5.521C1201.644,156.464,1203.059,157.049,1203.352,158.871Zm-1.968-3.969c-5.482-.244-10.931-.455-16.38-.716-5.01-.244-9.988-.748-15-.781-4.2,0-5.97-1.09-5.872-3.953,6.913.5,13.729,1.009,20.544,1.5l12.9.927c3.546.26,3.546.277,3.806,3.026Zm-.976-5.384a6.579,6.579,0,0,1-.423.586,17.526,17.526,0,0,1-2.44.13c-10.8-.781-21.634-1.562-32.4-2.456a5.007,5.007,0,0,1-2.781-1.5c-.683-.716-.781-1.659-1.285-2.863,12.444,1.529,24.35,2.977,36.257,4.522C1198.488,148.1,1199.383,148.981,1200.408,149.518ZM941,24.464c17.828-9.109,37.2-16.413,59.713-20.154,32.63-5.433,62.413-1.415,89.675,10.589,20.951,9.207,36.648,21.357,50.035,34.744,18.348,18.348,31.475,38.144,41.706,58.688,5.774,11.582,10.361,23.391,15.437,35.1a7.9,7.9,0,0,1,.342,1.285c-10.118-1.789-19.536-3.92-29.247-5.026-8.312-.927-11.321-3.676-13.582-8.41a226.038,226.038,0,0,0-44.439-63.633,169.547,169.547,0,0,0-31.507-25.082,153.943,153.943,0,0,0-57.728-21.5c-25.766-4.067-50.653-1.936-74.743,4.652-5.449,1.48-10.7,3.221-16.429,4.587,3.595-1.952,7.076-3.969,10.752-5.839Zm-6.978,7.043a197.041,197.041,0,0,1,46.114-10.134,156.053,156.053,0,0,1,69.147,8.865,158.913,158.913,0,0,1,52.556,32.272c18.055,16.38,31.215,34.273,41.934,52.881,4.034,7.027,7.677,14.152,11.825,21.829-5.84-1.025-10.8-1.871-15.778-2.733-7.629-1.366-15.225-2.8-22.9-4.067-2.18-.358-3.334-.976-4.148-2.261a225.188,225.188,0,0,0-33.1-41.576,174.542,174.542,0,0,0-32.24-25.245,158.137,158.137,0,0,0-58.639-21.471c-24.9-3.871-49.075-1.968-72.612,4-3.123.8-6.181,1.643-9.89,2.635,7.239-6.864,16.9-11.3,27.734-15ZM900.639,50.767c3.139-1.968,7.97-2.96,12.216-4.164a178.328,178.328,0,0,1,54.491-7.027,156.448,156.448,0,0,1,60.185,13.647,168.512,168.512,0,0,1,48.229,32.841,215.626,215.626,0,0,1,33.785,41.82,6.747,6.747,0,0,1,.521,1.041,20.814,20.814,0,0,1-2.44-.13c-13-2.163-26.026-4.31-38.974-6.588a6.941,6.941,0,0,1-3.693-1.936c-12.785-14.477-27.474-28.092-46.733-39.624a164.223,164.223,0,0,0-66.106-22.61,186.173,186.173,0,0,0-58.558,2.521c-1.578.309-3.123.651-4.685.96a14.051,14.051,0,0,1-1.627,0c4.636-3.823,8.442-7.661,13.387-10.768Zm-8.052,2.814c-3.725,3.318-6.848,6.214-10.248,8.979-.976.781-2.8,1.2-4.359,1.675q-3.855,1.2-7.938,2.131C876.175,61.421,882.421,56.59,892.587,53.581ZM878.355,66.268c-3.953,4.067-7.6,7.84-11.3,11.6a3.915,3.915,0,0,1-1.708,1.025c-4.587.992-9.207,1.9-14.021,2.9C857.827,73.653,866.415,68.692,878.355,66.268Zm-13.11-.2c.26.179.553.358.813.537-2.277,1.35-4.554,2.716-6.848,4.067-.309-.2-.635-.407-.911-.6C860.608,68.741,862.934,67.407,865.244,66.073Zm-8.914,7.743c-6.262,5.661-11.094,11.63-22.886,12.785C839.69,81.672,846.18,76.825,856.33,73.816ZM828.906,86.324c.244.179.472.342.716.5-2.326,1.464-4.685,2.944-7.027,4.408-.342-.2-.651-.39-.976-.586C824.058,89.2,826.5,87.772,828.906,86.324Zm-9.695,8.214c-6.132,5.97-11.744,11.907-23.667,13.5A69.379,69.379,0,0,1,819.211,94.539Zm-29.116,13.842c.244.179.5.342.764.521-2.6,1.529-5.189,3.058-7.792,4.587-.309-.2-.651-.374-.976-.569,2.668-1.513,5.319-3.026,8-4.538Zm-9.939,8.279c-5.84,6.311-12.183,11.842-24.253,14.021A75.178,75.178,0,0,1,780.156,116.661Zm-29.962,14.168c.342.2.651.407.992.6-2.733,1.757-5.482,3.514-8.2,5.27-.26-.146-.521-.309-.813-.455C744.842,134.439,747.526,132.634,750.194,130.828Zm-11.4,9.451c.228.211.5.423.732.651-2.7,1.155-5.4,2.326-8.133,3.481-.179-.146-.39-.293-.6-.439C733.456,142.751,736.107,141.515,738.791,140.279Zm-6.523,5.97c-3.465,6.23-12.736,7.905-21.1,10.915C716.149,152.544,723.046,149.03,732.269,146.249Zm-13.192,10.7c-6,2.83-11.972,5.677-18.608,8.816C704.535,160.514,712.294,159.148,719.077,156.952Zm-13.5.439c.26.2.553.374.846.569-2.407,1.35-4.831,2.716-7.239,4.067-.293-.2-.569-.39-.846-.569C700.745,160.091,703.168,158.741,705.576,157.391Zm11.744,2.456c-3.693,9.174-16.982,11.045-27.636,14.884C696.76,168.322,708.211,165.085,717.32,159.847ZM381.978,417.08c33.443-4.75,65.927-11.24,96.6-20.9,24.725-7.808,47.318-17.486,66.366-30.076,22.3-14.737,37.022-32.012,44.829-51.612q17.055-42.869,47.188-82.892A375.711,375.711,0,0,1,681,182.49a20.386,20.386,0,0,1,6.165-3.709c6.214-2.554,12.688-4.864,18.527-7.076-10.2,13.306-21,26.53-30.564,40.1a291.414,291.414,0,0,0-34.256,63.357c-5.579,14.477-10.02,29.116-14.753,43.723-6.181,19.113-19.454,35.932-40.8,50.344-19.682,13.289-43.463,22.935-69.6,30.466-38.925,11.191-80.241,17.112-122.451,21.032-10.622.992-20.918,1.2-31.686-.83,7.076-.976,13.729-1.854,20.4-2.814Zm-27.36,1.708c-4.164.455-8.751-.423-13.11-.8a59.877,59.877,0,0,1-9.207-1.464c6.9-1.22,13.81-2.407,20.707-3.66a621.715,621.715,0,0,0,74.873-18.023c27.23-8.556,52.328-19.015,73.8-32.63,20.788-13.192,36.55-28.352,46.456-45.757a420.874,420.874,0,0,1,42.552-61.681A430.86,430.86,0,0,1,654.7,192.022a15.975,15.975,0,0,1,3.855-2.18c5.791-2.342,11.647-4.587,17.486-6.881l.472.244c-5.368,5.53-10.882,11-16.071,16.575a388.542,388.542,0,0,0-51.531,69.652c-9.678,16.624-17.014,33.671-24.611,50.685-7.759,17.34-22.285,32.4-42.357,45.382-27.864,18.039-62.071,29.783-99.272,38.567a724.314,724.314,0,0,1-88.032,14.721ZM696.678,165.069c-5.026,6.165-14.282,8.719-21.943,12.362C680.7,172.649,686.821,167.948,696.678,165.069Zm-12.85,10.622c.309.26.634.521.976.8-3.416,1.4-6.815,2.814-10.215,4.213-.179-.146-.374-.309-.553-.455,3.269-1.513,6.523-3.042,9.808-4.555ZM672.3,174.7c.26.179.521.342.764.5-6.767,5.547-14.151,10.7-24.253,14.086-.244-.13-.439-.26-.683-.39Q660.226,181.8,672.3,174.7Zm-35.623,29.425a438.836,438.836,0,0,0-47.611,48.863c-17.616,21.065-32.028,42.959-45.057,65.26-9.337,15.99-24.269,29.9-43.382,42.113-23.83,15.241-51.986,26.514-82.729,35.525-29.149,8.54-59.583,14.737-90.8,19.519a25.725,25.725,0,0,1-6.523.081c-6.523-.7-13-1.578-19.5-2.391-.049-.146-.081-.309-.13-.455,1.936-.407,3.855-.813,5.791-1.22,35.753-7.434,70.172-16.705,102.151-29.247,22.2-8.7,42.552-18.82,60.3-30.873a178.25,178.25,0,0,0,42.178-39.933c13.534-17.779,29.36-34.777,46.5-51.3a634.664,634.664,0,0,1,63.91-53.32c7.287-5.384,16.624-8.735,26.058-12.265-3.725,3.2-7.466,6.409-11.142,9.646ZM99.825,426.042c4.717-1.464,9.077-2.814,13.42-4.132a5.34,5.34,0,0,1,1.708-.114c9.011.553,18.039,1.122,27.18,1.692C135.107,426.97,117.019,428.076,99.825,426.042Zm19.243,2.765c-6.165,1.529-11.972,3.513-19.031,3.27-6.637-.228-13.29-.049-20.138-.049,4.424-1.334,8.833-2.814,13.42-3.985,1.578-.39,3.676-.065,5.5,0,6.734.163,13.452.358,20.235.781Zm-.341-8.475c5.01-1.61,9.207-3.009,13.468-4.294a9.09,9.09,0,0,1,3.074-.2c9.467.862,18.934,1.757,28.45,2.814-6.311,1.366-11.923,3.969-19.292,3.335-8.182-.7-16.461-1.074-25.684-1.659Zm118.954-9.288c-7.108-.878-14.2-1.789-21.292-2.684-.683-.1-1.285-.293-2.521-.569,4.831-1.366,9.125-2.6,13.452-3.79a5.393,5.393,0,0,1,2.05-.033c9.271,1.4,18.56,2.83,28.026,4.278a41.931,41.931,0,0,1-19.715,2.8Zm33-1.025c5.872,1.318,12.216,1.822,18.641,2.716-9.6,3.139-24.936,2.96-39.266-.488C257.054,410.834,262.958,408.28,270.685,410.02ZM238.461,412.9c-7.726,1.74-14.282,3.627-22.106,2.359-6.507-1.074-13.29-1.48-20.105-2.521,5.433-.976,9.516-4.115,16.087-3.188,8.361,1.171,16.8,2.163,26.107,3.351Zm-29.572-5.742a4.788,4.788,0,0,1-1.708-.081c-10.557-1.464-21.13-2.96-32.614-4.571,5.449-1.822,10.117-3.416,14.835-4.945a5.842,5.842,0,0,1,1.985.179q15.42,2.562,30.824,5.108a4.9,4.9,0,0,0,.293.586c-4.538,1.253-9.076,2.5-13.631,3.725Zm-4.668,1.334c-5.156,1.35-9.483,2.521-13.875,3.627a6.6,6.6,0,0,1-2.05.049q-14.981-1.732-29.962-3.513a6.891,6.891,0,0,1-1.236-.455c4.457-1.464,8.621-2.863,12.818-4.213a4.914,4.914,0,0,1,2.017-.114c10.459,1.48,20.918,2.977,32.272,4.62Zm-21.78,4.717a7.927,7.927,0,0,1,1.334.472c-7.5,2.359-14.623,4.229-23.228,2.9-7.19-1.106-14.656-1.448-22.854-2.2,5.189-1.692,9.6-3.139,14.054-4.538a6.182,6.182,0,0,1,2.05,0q14.322,1.659,28.645,3.351Zm-5.628,6.246c6.311.911,12.866,1.122,19.584,1.659-12.72,4.213-25.684,1.822-38.567,1.253,6.181-1.334,11.581-3.985,18.983-2.912Zm.553-1.806c5.628-1.253,10.329-4.034,17.112-3.123,6.734.895,13.6,1.464,20.4,2.18.765.081,1.5.244,3.074.5-7.418,1.48-13.712,3.221-21.1,2.228-6.344-.846-12.915-1.025-19.47-1.789Zm51.791.439c5.921.765,11.972,1.155,18.3,1.757-11.565,3.448-23.049,1.122-34.468.521C218.259,419.276,223.057,417.291,229.157,418.088Zm2.066-1.659c6.685-1.334,12.3-3.546,19.471-2.1,5.5,1.106,11.435,1.4,17.307,2.05-5.693,2.635-19.113,2.668-36.778.049Zm65.357,2.993c-10.882,2.928-21.162.667-31.817.179C275.467,415.7,285.714,418.706,296.58,419.422ZM283.5,416.4c11.777-4.75,22.854-1.057,34.679,0C306.259,420.024,295.133,417.259,283.5,416.4Zm357.188-225.9a48.4,48.4,0,0,1-19.845,10.719Q630.751,195.844,640.69,190.493Zm-23.358,15.648c.26.2.521.374.781.569-3.953,2.993-7.97,5.953-11.923,8.963q-47.7,36.4-83.2,77.833c-8.523,9.939-16.2,20.17-24.9,30.06-12.167,13.842-28.3,25.8-46.977,36.469-33.866,19.34-73.523,32.695-115.994,43.073-12.72,3.123-25.766,5.726-38.7,8.556a9.874,9.874,0,0,1-3.042.374c-8.54-1.106-17.063-2.277-25.668-3.9,6.035-1.578,12.118-3.123,18.137-4.733,40.454-10.768,78.712-23.83,113.115-41.007,27.7-13.826,51.271-29.93,70.3-48.6a623.562,623.562,0,0,1,73.328-61.714c16.38-11.76,33.443-23.2,50.88-34.354,6.978-4.457,15.827-7.759,23.862-11.581Zm-43.854,20.918c.13.065.26.146.423.211-7.466,5.173-15.014,10.313-22.382,15.55a728.638,728.638,0,0,0-67.586,54.069c-11.451,10.378-22.236,21.048-34.322,31.133-20.1,16.77-45.106,30.466-72.612,42.455-31.215,13.615-64.934,24.334-100.085,33.394a48.6,48.6,0,0,0-4.88,1.252c-7.043,2.619-14.265,2.489-21.894.943-6.051-1.22-12.395-1.952-19.259-3.026,9.353-2.9,18.088-5.53,26.709-8.263,41.283-13.029,80.339-28.173,115.978-46.619,21.943-11.354,41.267-24.253,60.185-37.493,19.259-13.5,39.218-26.644,59.681-39.429,24.773-15.485,51.255-29.848,78.647-43.512.439-.228.911-.439,1.383-.667ZM539.531,240.1c5.319-2.407,10.671-4.75,15.99-7.125.732-.309,1.5-.569,2.261-.862.1.1.179.2.293.293-9.516,5.156-19.08,10.28-28.515,15.485-7.629,4.2-15.258,8.393-22.577,12.785-12.557,7.531-25.277,15.014-37.217,22.9-17.1,11.289-33.687,22.87-50.2,34.468-24.513,17.193-52.328,32.077-82.5,45.285-29.458,12.9-60.705,23.911-93.026,33.768-5.27,1.61-10.541,3.172-15.86,4.7a7.641,7.641,0,0,1-3.009.342c-10.752-1.692-21.471-3.448-33.264-5.368,5.01-1.757,9.125-3.2,13.257-4.62,55.386-19.1,108.82-40.08,158.123-64.869,20.284-10.2,39.9-20.886,59.973-31.247,37.689-19.487,76.646-38,116.286-55.939Zm-29.783,10.687.553.488c-2.456,1.171-4.88,2.359-7.369,3.513q-61.974,28.84-120.5,60.364a1006.4,1006.4,0,0,1-118.125,53.32c-24.269,9.207-49.156,17.828-73.816,26.628a12.587,12.587,0,0,1-5.531.39c-11.435-1.887-22.773-3.936-35.151-6.1C270.424,343.118,392,298.874,509.748,250.791ZM147.533,390.306a3.5,3.5,0,0,1,1.594-.13c11.907,2.131,23.8,4.294,36.6,6.62-5.352,1.757-9.857,3.27-14.444,4.7a5.479,5.479,0,0,1-2.31.114c-11.842-1.806-23.651-3.644-36.257-5.6,5.352-2.066,10.069-3.9,14.818-5.709Zm-18.511,7.173a5.1,5.1,0,0,1,2.05,0c11.451,1.789,22.886,3.595,35.493,5.6-3.985,1.285-7.287,2.115-10.117,3.335-3.383,1.448-6.637,1.236-10.329.716-10.117-1.415-20.316-2.668-31.41-4.115,5.238-2.05,9.743-3.823,14.314-5.547Zm-19.031,7.4a7.028,7.028,0,0,1,2.961-.39c11.191,1.464,22.382,2.993,33.687,4.782-6.311,1.464-10.9,5.319-19.08,4.164-8.865-1.269-17.958-1.936-26.953-2.863-1.025-.114-2.017-.277-3.855-.537C101.679,408.1,105.795,406.442,109.991,404.88Zm-17.112,6.767a4.258,4.258,0,0,1,1.708-.033q16.347,1.732,32.711,3.5c.049.146.1.309.163.455-4.457,1.4-8.751,3.123-13.452,4.05-2.879.553-6.393-.081-9.613-.293-8.312-.569-16.624-1.2-25.2-2.277C83.754,415.242,88.292,413.42,92.879,411.647ZM74.368,419a5.67,5.67,0,0,1,2.05-.049q14.786,1.1,29.588,2.212c.423.033.846.13,2.147.309-5.433,1.659-9.955,3.27-14.819,4.424-1.984.488-4.587.065-6.913,0-8.361-.293-16.754-.618-25.131-.927a4.066,4.066,0,0,0-.342-.569c4.49-1.806,8.914-3.627,13.42-5.384Zm-19.113,7.759A10.763,10.763,0,0,1,59,426.482c9.207.358,18.4.781,27.6,1.171a3.182,3.182,0,0,1,.049.39c-4.62,1.383-9.223,2.765-13.843,4.148a5.328,5.328,0,0,1-1.334.228c-9.678,0-19.34,0-29.279-.39,4.327-1.773,8.621-3.595,13.062-5.27ZM23.309,439.9c4.408-1.822,8.8-3.66,13.241-5.482a4.677,4.677,0,0,1,1.627-.26H64.918c-12.509,6.181-27.262,5.173-41.609,5.758ZM42,444.065c7.287-4.164,16.364-3.953,25.164-4.408.032.228.081.455.13.683Q54.678,442.195,42,444.065Zm18.039-5.726c10.54-5.319,22.643-4.359,35.265-4.441C83.868,437.8,71.977,437.461,60.038,438.34Zm37.819-2.228c7.125-2.749,14.965-2.765,22.968-2.245ZM117.23,431.7c10.069-3.953,20.837-2.668,31.638-2.554C143.093,431.02,128.99,432.158,117.23,431.7Zm37.981-.976c-.033-.26-.049-.537-.1-.8,5.368-.26,10.752-.537,16.12-.813a5.584,5.584,0,0,1,.1.7C165.963,430.125,160.579,430.418,155.211,430.727ZM137.969,427.1c11.191-4.912,23.44-2.2,35.525-2.082C168.061,427.279,155.374,427.994,137.969,427.1Zm61.811-.114q-12.81.464-25.684.911c8.231-3.27,17.047-1.984,25.684-1.806Zm10.557.5c.032-.2.032-.407.049-.6h11.37a.885.885,0,0,1,.032.179C217.966,427.214,214.127,427.344,210.337,427.49Zm-17.193-3.335c10.541-3.823,21.162-1.545,32.565-1.139C214.436,425.7,203.945,424.481,193.144,424.156Zm34.208.911c7.027-2.163,14.4-.976,21.683-.7.033.244.033.472.049.7Zm18.592-2.5c9.744-3.139,18.657-1.057,28.579-.537C264.7,424.172,255.736,422.887,245.944,422.561Zm50.669,1.545H279.159c.033-.26.033-.521.049-.781h17.4Zm-.1-1.822c8.149-2.9,16.169-1.2,24.188,0Zm46.212,1.936c-5.156-.13-10.329-.277-15.485-.423.033-.277.033-.569.049-.846,5.156.146,10.329.309,15.486.472C342.776,423.684,342.744,423.96,342.727,424.221Zm-27.685-4.75c6.523-2.326,17.063-2.212,29.49.26C334.513,422.09,324.932,420.317,315.042,419.471Zm30.336,2.359c7.922-2.115,15.648-.423,23.586.325C364.54,423.5,352.08,423.31,345.379,421.829Zm45.74,2.6H375.341c0-.293.032-.6.032-.895,5.27.146,10.541.293,15.778.423A2.221,2.221,0,0,1,391.119,424.432Zm.293-1.3a2.54,2.54,0,0,1,.033-.5c6.734-.683,13.468-1.318,20.219-2.033,39.982-4.327,78.858-10.849,115.213-22.333,20.268-6.393,38.925-14.265,55.077-24.253,26.4-16.347,42.1-36.111,48.05-58.932a318.586,318.586,0,0,1,22.854-60.429,348.387,348.387,0,0,1,43.252-66.854c4.8-5.823,10.02-11.516,15.1-17.242a6.353,6.353,0,0,1,2.537-1.741c7.125-2.326,14.347-4.571,22.252-7.076a18.194,18.194,0,0,1-1.074,1.838,324.87,324.87,0,0,0-48.131,82.144,298.517,298.517,0,0,0-18.869,68.448,77.149,77.149,0,0,1-16.2,37.689c-13.924,17.519-35.151,30.873-61.583,41.2-30.336,11.842-63.747,18.82-98.459,23.635-28.287,3.92-56.964,6.149-85.82,7.369-4.75.211-9.613-.586-14.444-.927Zm29.019,2.277c35.33-2.359,70.074-5.807,103.908-12.265,29.653-5.661,57.663-13.387,82.437-25.2,34.679-16.559,55.711-38.177,62.055-65.1,2.879-12.281,4.8-24.659,7.678-36.94,4.506-19.308,11.646-38.274,20.479-57a336.572,336.572,0,0,1,41.544-66.122,9.958,9.958,0,0,1,5.84-3.465c6.685-1.675,13.208-3.611,20.414-5.612-3.465,5.3-6.718,10.166-9.808,15.062a310.91,310.91,0,0,0-45.187,127.478c-1.122,9.272-1.187,18.608-2.538,27.864-2.993,20.007-14.363,37.949-35.867,53.207-14.4,10.2-31.719,18.055-50.962,24.334-29.93,9.792-62.055,15.681-95.32,18.885-22.626,2.163-45.513,3.448-68.318,4.831-9.776.586-19.682.407-29.523.5-2.277,0-4.587-.309-6.864-.472Zm35.2,1.806c25.749-1.09,53.678-2.668,81.266-6.181,28.124-3.562,55.419-8.621,81.152-16.624,17.828-5.563,34.208-12.427,48.343-21.178,21.731-13.5,35.265-29.734,41.153-48.457,2.863-9.028,2.8-18.2,3.953-27.311,1.854-15.128,4.034-30.255,7.255-45.3,5.742-26.709,16.022-52.832,30.352-78.273,5.612-9.939,12.216-19.65,18.43-29.458a3.428,3.428,0,0,1,1.887-1.741c7.661-1.919,15.388-3.709,22.935-5.5-6.816,14.005-13.973,27.685-20.137,41.527a247.438,247.438,0,0,0-16.705,53.011c-2.2,11.386-3.936,22.805-5.563,34.24a133.747,133.747,0,0,0-1.041,15.908c-.163,9.825.228,19.649-.1,29.458-.569,16.445-5.97,32.158-19.162,46.635-12.98,14.217-31.459,25.017-53.76,33.443-27.181,10.264-56.964,16.136-87.9,20.04a738.13,738.13,0,0,1-81.558,5.709c-17.7.244-35.4.049-50.832.049ZM815.958,153.943c-10.036,21.244-17.535,42.845-21.65,64.821a403.467,403.467,0,0,0-5.775,42.08c-1.025,13.078-.764,26.2-.5,39.3.179,9.077,1.984,18.153,1.854,27.213-.212,17.909-6.637,34.858-22.463,50.148-12.118,11.663-28.238,20.691-47.2,27.848-26.4,9.939-55.37,15.583-85.462,19.227-21.764,2.635-43.723,4.311-65.878,4.8q-22.838.512-45.692.667c-7.84.065-15.7-.244-23.537-.423-1.252-.033-2.489-.293-3.953-.472,24.22-.358,48.148-1.5,71.9-3.741,34.11-3.237,67.244-8.475,98.068-18.413,30.531-9.841,55.207-23.439,70.465-42.943,8.491-10.849,13.322-22.366,14.542-34.37.716-7.173.5-14.4.5-21.585a300.748,300.748,0,0,1,44.716-160.01,6.351,6.351,0,0,1,3.644-2.228c6.783-1.4,13.68-2.554,20.528-3.79a13.729,13.729,0,0,1,1.659-.081c-1.968,4.083-3.9,8.019-5.774,11.956Zm.846-13.029c-6.035.683-11.842,2.033-17.876,3.123,1.2-4.685,5.742-7.629,13.371-8.458,4.2-.455,8.491-.553,13-.83C824.774,138.506,822.3,140.3,816.8,140.913Zm6.506-10.2c-5.563,1.253-11.142,2.472-16.722,3.709a15.241,15.241,0,0,1-1.854,0c2.147-3.042,4.083-5.807,6.132-8.556a3.228,3.228,0,0,1,1.838-.83c6.311-.634,12.655-1.22,19.08-1.838-.5,4.376-2.619,6.2-8.475,7.515Zm3.562,8.361c-.049-.179-.13-.244-.1-.309,1.724-4.132,1.724-4.2,8.491-4.115,5.612.065,11.224.26,16.835.455,1.366.049,2.668.309,4.49.521-10.28,1.187-20.007,2.326-29.7,3.448ZM857,133.838c-8.751-.439-17.519-.813-27.343-1.253,1.5-.878,2.538-1.984,3.937-2.212,11.3-1.854,22.626-3.66,34.045-5.205,2.537-.342,5.531.277,8.231.683a172.005,172.005,0,0,1,29.621,7.531c-11.793.472-22.512,1.041-33.232,1.253C867.164,134.732,862.089,134.082,857,133.838Zm36.274,4.245a50.789,50.789,0,0,1-14.737-1.269c-.39-.1-.732-.26-1.887-.667,5.189-.244,9.548-.488,13.924-.618,5.026-.146,10.085-.033,15.095-.325,4.408-.244,7.58.96,11.012,2.814-8.182,0-15.811-.211-23.407.065Zm30.727.244c-2.7-.163-5.189-1.724-7.531-3.074,2.489,0,4.961-.033,7.45,0,6.555.081,13.159.521,19.666.146,6.132-.342,9.906,1.529,14.184,4.2C946.071,139.189,935.01,138.978,924,138.327Zm45.61,8.279q-18.885-2.855-37.754-5.742c.033-.179.049-.342.081-.521,4.636.146,9.272.293,13.891.472,3.042.1,6.116.5,9.093.342,6.978-.407,10.638,2.635,15.079,4.961Zm-2.326-4.245c.13-.163.244-.342.374-.5,11.321.651,22.675,1.318,34,2a3.22,3.22,0,0,1,1.545.407c3.139,2.326,6.214,4.668,9.89,7.466-6.132-.683-11.451-1.236-16.722-1.838-4.717-.537-9.418-1.2-14.135-1.675-6.474-.634-10.118-3.758-14.949-5.856Zm18.641,8.035c5.531.634,11.028,1.545,16.64,1.838,9.646.488,17.519,2.765,24.009,7.287,3.074,2.131,7.157,3.676,10.8,5.5C1019.024,161.75,1001.636,157.245,985.923,150.4Zm36,4.05c9.142.83,17.372,1.773,25.684,2.228,5.189.26,8.361,1.675,11.3,4.2,3.888,3.335,8.475,6.328,12.444,9.239C1051.345,169.948,1036.169,163.377,1021.92,154.447Zm36.859,16.738c.13-.179.26-.358.374-.521,8.865,1.448,19.08.862,25.326,7.238-9.077-2.375-17.372-4.538-25.684-6.718Zm23.7,2.31c7.938.537,15.762,1.074,23.586,1.643a4.018,4.018,0,0,1,1.838.553c2.928,2.245,5.791,4.522,9.011,7.059-12.98-1.5-25.684-2.342-34.452-9.255Zm21.1,9.971c.13-.179.26-.374.39-.553,8.963,1.253,18.983,1.057,24.806,7.808C1119.939,188.183,1111.757,185.824,1103.576,183.466Zm22.5,2.049c7.466.423,15,.813,22.5,1.269a4.471,4.471,0,0,1,2.147.6c2.879,2.44,5.661,4.912,8.735,7.613-13.127-.96-25.424-2.277-33.378-9.483Zm44.488,18.12q-12.395-3.757-24.806-7.531c.163-.244.309-.472.472-.716,5.238.586,10.508,1.09,15.681,1.822,1.285.179,2.326,1.122,3.351,1.789,1.984,1.3,3.9,2.668,5.84,4-.179.211-.374.423-.553.634Zm-2.229-5.4c6.978,0,14.282-.016,21.6.033a3.32,3.32,0,0,1,1.936.716c2.83,2.7,5.563,5.449,8.491,8.345-13.208-.374-25.131-1.838-32.028-9.093Zm17.909,9.76q8.052.708,16.071,1.431a2.842,2.842,0,0,1,1.2.39c2.863,2.131,5.709,4.278,9.207,6.913a102.866,102.866,0,0,1-26.481-8.735Zm33.638,9.792c-5.01-1.431-8.491-4.912-12.655-7.5.26-.244.521-.488.764-.748q11,0,21.992.033a2.985,2.985,0,0,1,1.838.683c2.749,3.009,5.4,6.067,8.7,9.874-7.5-.764-14.737-.667-20.625-2.342Zm4.8,2.879c5.238.244,10.361.472,15.469.748a5.4,5.4,0,0,1,2.456.521c3.221,2.538,6.295,5.14,9.548,7.857-8.914-1.253-22.2-5.693-27.473-9.125Zm30.222,8.361c-2.781-2.391-5.953-4.62-9.516-7.336,5.3-.244,9.678-.358,14.021-.651,23.8-1.578,46.033-6.441,67.635-12.557,25.408-7.206,49.335-16.055,72.71-25.489,5.579-2.261,11.094-4.62,16.754-6.8a12.222,12.222,0,0,1,4.831-.667c5.189.358,10.329.943,16.38,1.513-4.668,2.375-8.67,4.457-12.736,6.474-24.253,12.037-48.961,23.683-76,33.264-17.454,6.181-35.59,11.338-55.468,13.842a151.675,151.675,0,0,1-32.158.618c-2.619-.228-4.75-.748-6.441-2.212Zm204.172-48.75c-27.132,16.347-54.361,32.646-85.462,46.2-16.722,7.3-34.322,13.664-54.654,16.413-20.154,2.716-38.291.179-54.264-8.019-.976-.488-1.854-1.025-3.123-1.74,8.263,0,15.99.374,23.586-.081,16.624-.992,32.109-4.506,47.139-8.914,27.782-8.182,52.686-19.161,76.939-30.743,10.02-4.782,19.8-9.743,29.62-14.688a10.569,10.569,0,0,1,6.393-1.074c4.928.537,9.938.895,15.29,1.366A13.537,13.537,0,0,1,1459.072,180.277Zm4.831-3.074a6.756,6.756,0,0,1-2.944.293c-5.319-.407-10.589-.895-16.8-1.431,4.018-2.05,7.466-3.823,10.963-5.563a2.861,2.861,0,0,1,1.318-.163c5.531.342,11.061.7,17.437,1.106-3.692,2.163-6.734,4.018-9.955,5.758Zm2.2.732c3.823-2.245,7.059-4.18,10.41-6.035a5.377,5.377,0,0,1,2.277-.114c22.756,1.155,45.448,2.424,68.2,3.465q22.228,1.025,44.537,1.513c24.594.5,49.205,1.155,73.8,1.074,40.08-.146,80.029-1.74,119.621-5.921.553-.049,1.122-.049,1.708-.081-105.844,15.762-212.533,14.542-320.54,6.1Zm287.065-5.026c-21.65,1.285-43.414,2.082-65.146,2.847-11.923.423-23.927.6-35.883.423-26.449-.407-52.946-.846-79.379-1.757-26.758-.911-53.483-2.375-80.192-3.627-4.164-.179-8.312-.488-12.444-.732-.179-.179-.374-.358-.569-.521,2.993-1.724,5.84-3.513,9-5.108a9.338,9.338,0,0,1,3.936-.472c24.66.976,49.3,2.033,73.946,3.009,20.918.83,41.837,1.562,62.755,2.407,34.045,1.383,68.155,2.2,102.265,1.643,21.732-.358,43.431-1.643,65.146-2.5a5.544,5.544,0,0,1,2.456.358c-15.29,1.383-30.515,3.123-45.87,4.034Zm58.948-7.206c-10.085.683-20.154,1.562-30.271,2.033q-21.349,1-42.747,1.464c-14.412.277-28.856.439-43.284.244-19.666-.293-39.315-.911-58.948-1.529-17.307-.537-34.582-1.236-51.873-1.919-19.129-.781-38.274-1.643-57.4-2.407-10.41-.423-20.821-.732-31.2-1.106-1.2-.033-2.407-.2-3.725-.309a3.521,3.521,0,0,1,.439-.553c6.181-6.36,16.25-5.286,25.766-5.091,13.208.277,26.449.586,39.657,1.041q21.715.756,43.414,1.806c16.331.765,32.63,1.724,48.945,2.554,19.243.976,38.453,2,57.7,2.814,12.85.553,25.717.846,38.583,1.09,10.427.211,20.886.325,31.328.244,11.224-.081,22.431-.423,33.687-.651a1.635,1.635,0,0,0-.049.277Zm-17.958-1.513c-16.038.2-32.142.309-48.18-.016-17.909-.358-35.753-1.155-53.63-1.919-16.234-.683-32.418-1.562-48.619-2.375-21.569-1.09-43.154-2.261-64.723-3.253-11.321-.521-22.675-.83-34.029-1.106-12.98-.309-25.977-.488-38.974-.732-.309,0-.6-.114-.342-.065a78.959,78.959,0,0,1,7.629-5.156c1.2-.651,3.481-.716,5.3-.732,15.128-.049,30.271-.439,45.35.065,25,.846,49.986,1.984,74.889,3.562,33.167,2.1,66.219,4.945,99.37,7.108,19.763,1.285,39.641,2.017,59.485,2.733,9.548.342,19.129.065,28.677.065a4.7,4.7,0,0,1,.032.667c-10.719.407-21.471,1.025-32.223,1.155Zm-34.386-4.994c-43.5-2.993-86.959-6.23-130.471-9.125-17.226-1.139-34.517-1.822-51.824-2.391-14.493-.488-29.051-.537-43.561-.716-4.083-.049-8.2.163-12.3.228-1.122,0-2.261-.081-3.514-.114,4.49-4.652,11.175-5.872,19.08-5.921,13.468-.081,26.953-.6,40.421-.618,24.269-.016,48.441,1.318,72.4,3.579,40.633,3.855,81.1,8.3,121.736,12.069,19.536,1.822,39.3,2.7,58.948,4,2.781.179,5.579.342,9.141.569-27.262.488-53.711.244-80.078-1.562Zm89.578.293c-19.161-1.057-38.453-1.578-57.468-3.286-38.014-3.416-75.833-7.531-113.765-11.289-26.367-2.6-52.8-4.945-79.509-5.547-16.51-.358-33.085-.293-49.6-.26-6.165.016-12.313.488-18.609.569,4.067-2.115,6.9-4.9,13.159-5.384,21.683-1.675,43.365-2.749,65.195-2.066,36.127,1.122,71.571,5.189,106.787,10.02,32.37,4.441,64.723,8.881,97.174,13.094,10.508,1.366,21.292,1.984,31.947,2.96,1.594.146,3.172.39,4.766.586a3.872,3.872,0,0,0-.1.6Zm12.346-1.773c-9.044-.618-18.185-.895-27.1-1.9q-37.819-4.319-75.475-9.125c-32.695-4.132-65.195-8.881-98.02-12.525-18.592-2.066-37.64-2.635-56.541-3.53-19.454-.927-38.827.293-58.119,1.838-.992.081-2.05.016-3.253.016,4.034-2.993,8.751-4.7,15.046-5.384,15.827-1.74,31.638-3.188,47.757-3.432,24.09-.358,47.871,1.431,71.457,4.245,28.075,3.351,55.5,8.312,82.892,13.371,30.3,5.612,60.559,11.321,91.692,14.965,3.221.374,6.425.732,9.646,1.09v.374Zm-9.353-3.172c-29.865-3.481-58.9-8.914-87.967-14.282-31.426-5.807-62.852-11.549-95.254-15-17.193-1.838-34.5-3.025-51.987-3.269a419.723,419.723,0,0,0-58.217,3.383c-.813.1-1.627.114-2.863.2,3.9-2.847,8.6-4.132,13.891-5.075a329.348,329.348,0,0,1,67.651-5.319,450.6,450.6,0,0,1,74.808,8.279c28.287,5.644,56.281,11.858,84.275,18.023,23.488,5.189,46.944,10.41,71.229,14.07a1.754,1.754,0,0,1,1.415.748C1863.659,155.716,1857.966,155.211,1852.338,154.544Zm18.43-.325c-31.068-4.555-60.835-11.549-90.667-18.4-27-6.2-54.052-12.3-82.03-16.608-25.814-3.969-51.954-6.279-78.614-5.661a323.26,323.26,0,0,0-45.318,4.489c-1.236.2-2.472.374-3.692.553-.163-.309-.342-.634-.5-.96,4.636-1.269,9.174-2.684,13.891-3.758a267.484,267.484,0,0,1,48.424-7.027,326.9,326.9,0,0,1,58.981,3.058c31.036,4.245,60.217,11.728,89.122,19.682,31.247,8.572,62.055,17.8,94.653,24.334a1.108,1.108,0,0,1,.911.878C1874.2,154.609,1872.459,154.463,1870.768,154.219Zm11.923-1.025a27.281,27.281,0,0,1-3.741-.358c-16.12-3.725-32.4-7.206-48.229-11.321-26.416-6.881-52.458-14.379-78.874-21.276-28.157-7.352-57.224-12.818-87.788-14.786a273.959,273.959,0,0,0-76.809,5.791c-.846.179-1.676.374-2.538.569-.13-.244-.26-.488-.39-.748,7.97-2.212,15.859-4.571,23.927-6.637a196.558,196.558,0,0,1,49.856-6.474,310.671,310.671,0,0,1,57.729,5.758c24.611,4.7,47.757,11.5,70.562,18.82,29.93,9.613,59.111,20.17,90.228,28.384,2.1.553,4.2,1.122,6.3,1.692a4.237,4.237,0,0,1-.212.586Zm7.515-1.919c-1.659,0-3.562.342-4.929-.049-17.8-5.156-35.753-10.166-53.239-15.713-31.068-9.841-61.209-20.821-93.791-28.759A356.506,356.506,0,0,0,1668.5,96.491a216.2,216.2,0,0,0-61.47,6.295c-.5.13-.992.228-1.5.358l-.472-.634c8.881-2.684,17.665-5.53,26.709-8.019,25.164-6.913,51.059-6.344,77.167-2.554,26.839,3.888,51.433,11.191,74.971,19.812,25.635,9.386,50.8,19.227,76.3,28.726,8.735,3.253,17.844,6.067,26.823,9.093,1.074.358,2.18.732,3.27,1.106A3.872,3.872,0,0,0,1890.206,151.275Z" transform="translate(0)" fill="#fff" opacity="0.3"/>
</svg>
