<svg xmlns="http://www.w3.org/2000/svg" width="21.146" height="29.652" viewBox="0 0 21.146 29.652">
  <path id="Icon_metro-steps" data-name="Icon metro-steps" d="M11.463,3.213c-2.486,0-4.5,3.319-4.5,7.413,0,2.278.563,4.694,1.125,8.424.44,2.922,1.511,5.343,3.376,5.343s3.113-1.615,3.113-4.566c0-1.005-.826-2.606-.863-3.972-.067-2.464,1.652-3.447,1.652-5.725,0-4.094-1.417-6.917-3.9-6.917Zm12.144,8.472c-2.485,0-3.9,2.823-3.9,6.917,0,2.278,1.719,3.261,1.652,5.725-.037,1.366-.863,2.967-.863,3.972,0,2.951,1.249,4.566,3.113,4.566s2.935-2.421,3.376-5.343c.562-3.73,1.125-6.146,1.125-8.424,0-4.094-2.015-7.413-4.5-7.413Z" transform="translate(-6.962 -3.213)" fill="#fff"/>
</svg>
