<svg xmlns="http://www.w3.org/2000/svg" width="30" height="28.571" viewBox="0 0 30 28.571">
  <path id="Icon_simple-line" data-name="Icon simple-line" d="M24.206,12.329a.788.788,0,0,1,0,1.576H22.013v1.406h2.194a.787.787,0,1,1,0,1.574H21.224a.789.789,0,0,1-.784-.786V10.135a.79.79,0,0,1,.788-.788H24.21a.788.788,0,0,1,0,1.575H22.013v1.406h2.194ZM19.387,16.1a.787.787,0,0,1-.54.745.807.807,0,0,1-.249.039.773.773,0,0,1-.638-.312l-3.054-4.146V16.1a.786.786,0,1,1-1.571,0V10.135a.783.783,0,0,1,.538-.744.727.727,0,0,1,.243-.041.808.808,0,0,1,.619.318l3.077,4.162V10.135a.788.788,0,1,1,1.575,0V16.1Zm-7.176,0a.786.786,0,1,1-1.572,0V10.135a.786.786,0,1,1,1.573,0V16.1Zm-3.083.786H6.146a.792.792,0,0,1-.787-.786V10.135a.787.787,0,1,1,1.575,0v5.176h2.2a.787.787,0,0,1,0,1.574M30,12.892C30,6.179,23.269.715,15,.715S0,6.179,0,12.892C0,18.906,5.338,23.945,12.544,24.9c.489.1,1.154.323,1.323.737a3.053,3.053,0,0,1,.047,1.35l-.2,1.275c-.056.376-.3,1.483,1.311.806s8.645-5.1,11.795-8.719A10.779,10.779,0,0,0,30,12.892" transform="translate(0 -0.715)" fill="#fff"/>
</svg>
