<svg xmlns="http://www.w3.org/2000/svg" width="32" height="22.5" viewBox="0 0 32 22.5">
  <path id="Icon_awesome-youtube" data-name="Icon awesome-youtube" d="M32.206,7.27a4.021,4.021,0,0,0-2.829-2.847c-2.5-.673-12.5-.673-12.5-.673s-10.007,0-12.5.673A4.021,4.021,0,0,0,1.544,7.27a42.18,42.18,0,0,0-.669,7.752,42.18,42.18,0,0,0,.669,7.752,3.961,3.961,0,0,0,2.829,2.8c2.5.673,12.5.673,12.5.673s10.007,0,12.5-.673a3.961,3.961,0,0,0,2.829-2.8,42.18,42.18,0,0,0,.669-7.752,42.18,42.18,0,0,0-.669-7.752ZM13.6,19.781V10.265l8.364,4.758L13.6,19.781Z" transform="translate(-0.875 -3.75)" fill="#fff"/>
</svg>
