<svg id="icon_sns_insta" xmlns="http://www.w3.org/2000/svg" viewBox="0 0 24 24">
  <g>
    <path d="M12,2.16c3.21,0,3.59,0,4.85.07a6.74,6.74,0,0,1,2.23.41,3.72,3.72,0,0,1,1.37.9,3.63,3.63,0,0,1,.9,1.38,6.37,6.37,0,0,1,.42,2.23c.05,1.26.07,1.64.07,4.84s0,3.59-.07,4.85a6.37,6.37,0,0,1-.42,2.23,3.61,3.61,0,0,1-.89,1.38,3.75,3.75,0,0,1-1.38.9,6.68,6.68,0,0,1-2.23.41c-1.26.06-1.64.07-4.84.07s-3.59,0-4.85-.07a6.68,6.68,0,0,1-2.23-.41,3.75,3.75,0,0,1-1.38-.9,3.75,3.75,0,0,1-.9-1.38,6.67,6.67,0,0,1-.41-2.22c-.06-1.27-.07-1.65-.07-4.85s0-3.59.07-4.85a6.74,6.74,0,0,1,.41-2.23,3.72,3.72,0,0,1,.9-1.37,3.78,3.78,0,0,1,1.38-.91,6.67,6.67,0,0,1,2.22-.41c1.26,0,1.64-.07,4.85-.07ZM12,0C8.74,0,8.34,0,7.06.07A8.77,8.77,0,0,0,4.14.63,5.82,5.82,0,0,0,2,2,5.82,5.82,0,0,0,.63,4.14,8.82,8.82,0,0,0,.07,7.05C0,8.34,0,8.74,0,12S0,15.67.07,17a8.76,8.76,0,0,0,.56,2.91A5.94,5.94,0,0,0,2,22a5.79,5.79,0,0,0,2.12,1.38,8.76,8.76,0,0,0,2.91.56C8.33,24,8.74,24,12,24s3.66,0,4.94-.07a8.66,8.66,0,0,0,2.91-.56,6.07,6.07,0,0,0,3.51-3.51A8.71,8.71,0,0,0,23.92,17C24,15.67,24,15.27,24,12s0-3.67-.07-4.95a8.76,8.76,0,0,0-.56-2.91A5.48,5.48,0,0,0,22,2,5.94,5.94,0,0,0,19.86.63,8.74,8.74,0,0,0,17,.08C15.67,0,15.26,0,12,0Z"/>
    <path d="M12,5.84A6.17,6.17,0,1,0,18.17,12,6.16,6.16,0,0,0,12,5.84ZM12,16a4,4,0,1,1,4-4A4,4,0,0,1,12,16Z"/>
    <path d="M19.85,5.59a1.44,1.44,0,1,1-1.44-1.44A1.43,1.43,0,0,1,19.85,5.59Z"/>
  </g>
</svg>
