<svg id="icon_sns_tw" xmlns="http://www.w3.org/2000/svg" viewBox="0 0 24 24">
  <path d="M23.77,4.7A9.64,9.64,0,0,1,21,5.46a4.9,4.9,0,0,0,2.12-2.67A9.58,9.58,0,0,1,20.05,4,4.83,4.83,0,0,0,11.7,7.27a4.4,4.4,0,0,0,.13,1.09,13.68,13.68,0,0,1-9.95-5A4.81,4.81,0,0,0,3.37,9.76a4.81,4.81,0,0,1-2.19-.6v.06A4.83,4.83,0,0,0,5.06,14a4.88,4.88,0,0,1-1.28.17A5.5,5.5,0,0,1,2.87,14a4.85,4.85,0,0,0,4.51,3.35,9.64,9.64,0,0,1-6,2.07,8.92,8.92,0,0,1-1.16-.07,13.61,13.61,0,0,0,7.41,2.17A13.64,13.64,0,0,0,21.37,7.82c0-.21,0-.42,0-.62a9.88,9.88,0,0,0,2.41-2.5Z"/>
</svg>
