<svg xmlns="http://www.w3.org/2000/svg" width="60" height="349.646" viewBox="0 0 60 349.646">
  <g id="Group_142" data-name="Group 142" transform="translate(-245 -1930)">
    <path id="Path_45" data-name="Path 45" d="M0,0H60V349.646H0Z" transform="translate(245 1930)" fill="#e31d1d"/>
    <g id="Layer_1" data-name="Layer 1" transform="translate(260 1946)">
      <g id="Group_141" data-name="Group 141">
        <path id="Path_200" data-name="Path 200" d="M27.45,8.49V1.29H12.57V0H28.74V8.49Z" transform="translate(0)" fill="#fff"/>
        <path id="Path_201" data-name="Path 201" d="M8.34,24.45c.66-.9.87-1.2,1.5-2.07A21.921,21.921,0,0,1,12,24.66a.591.591,0,0,1,.12.24c0,.12-.12.18-.3.18H7.77v1.59a8.664,8.664,0,0,1,1.65.72,2.372,2.372,0,0,1,1.47,1.83c0,.93-.87,2.13-1.56,2.13-.3,0-.48-.3-.6-1.05a6.387,6.387,0,0,0-.99-3.06v4.38c0,2.34,0,2.73.06,7.95,0,1.23.03,2.91.03,5.01-.03.72-.3.81-2.1.81-1.05,0-1.2-.09-1.2-.72q.06-2.04.24-9.42l.03-3.33A16.994,16.994,0,0,1,.24,38.49L0,38.28A33.15,33.15,0,0,0,3.15,30.6a42.8,42.8,0,0,0,1.26-5.52H2.34a7.669,7.669,0,0,0-1.71.18L.48,24.18a5.373,5.373,0,0,0,1.86.27H4.65V21.51a31.7,31.7,0,0,0-.18-3.84c.96.09,1.68.18,2.13.24,1.89.18,2.34.3,2.34.63,0,.27-.27.42-1.14.75l-.03,5.16h.57Zm1.11,8.97a33.262,33.262,0,0,0,3.36-8.07,29.4,29.4,0,0,0,1.35-7.11c1.02.33,1.8.6,2.31.75,1.95.63,2.22.75,2.22,1.05s-.27.42-1.41.63a25.9,25.9,0,0,1-3.51,8.13,22.21,22.21,0,0,1-4.08,4.86l-.24-.24Zm11.25.03c4.41,3.3,6.51,5.73,6.51,7.56,0,1.62-1.23,3.39-2.34,3.39-.39,0-.57-.18-.72-.69,0-.06-.18-.81-.51-2.22-.12-.42-.15-.6-.27-.96-3.3,1.05-6.87,1.95-11.46,2.94-.18.99-.42,1.44-.75,1.44q-.39,0-1.44-4.83c1.17.06,1.59.06,2.34.06h.9c.72-1.86,1.14-3.12,1.83-5.46a49.945,49.945,0,0,0,1.74-7.71c3.99.9,4.71,1.14,4.71,1.53,0,.33-.3.48-1.32.66a53.658,53.658,0,0,1-5.67,10.95c4.2-.24,5.61-.33,8.79-.66a29.442,29.442,0,0,0-2.58-5.76Zm.39-15.42a1.338,1.338,0,0,0-.09.54,11.006,11.006,0,0,0,1.8,4.47,13.376,13.376,0,0,0,6.36,5.61v.3a4.4,4.4,0,0,0-1.98,3.24c-.06.33-.18.48-.36.48-.36,0-1.29-.99-2.25-2.43a25.743,25.743,0,0,1-3.09-6.66q-.36-1.08-1.02-4.05a3.07,3.07,0,0,0-.54-1.26l1.17-.24Z" transform="translate(0)" fill="#fff"/>
        <path id="Path_202" data-name="Path 202" d="M23.76,70.89c0,.36,0,1.23.03,2.52.03,1.2.03,1.23.06,3.84v.27a2.537,2.537,0,0,1-1.47,2.61,8.1,8.1,0,0,1-2.85.69c-.36,0-.42-.09-.48-.63a2.29,2.29,0,0,0-1.32-1.8,12.825,12.825,0,0,0-3.18-1.05l.03-.33c2.52.18,3.27.21,5.34.27.45,0,.54-.09.54-.54V61.11H17.43a24.837,24.837,0,0,1-5.46,6.3l-.24-.21a41.819,41.819,0,0,0,2.91-6.09H9.81v9.63q0,.27.09,9.45c0,.72-.36.87-2.16.87-1.11,0-1.35-.12-1.35-.6v-.09c.12-3,.18-5.4.18-9.33V61.17A26.783,26.783,0,0,1,.69,68.04l-.27-.27a38.037,38.037,0,0,0,4.05-8.31,28.515,28.515,0,0,0,1.5-5.79c4.38.96,4.92,1.14,4.92,1.53,0,.33-.39.51-1.44.66-1.05,2.16-1.5,3-2.43,4.62h3.36a26.781,26.781,0,0,1,1.89-2.19,34.347,34.347,0,0,1,2.58,2.28,28.32,28.32,0,0,0,1.74-6.69c4.95.96,4.98.99,4.98,1.35,0,.3-.39.48-1.47.69a37.744,37.744,0,0,1-2.28,4.56H23.4c.96-1.11,1.26-1.44,2.25-2.52,1.35,1.14,1.77,1.5,3.09,2.67.12.15.18.24.18.3,0,.12-.12.18-.39.18H23.76v9.78Z" transform="translate(0)" fill="#fff"/>
        <path id="Path_203" data-name="Path 203" d="M23.55,92.16c.93-1.05,1.2-1.38,2.1-2.4,1.47,1.05,1.89,1.38,3.24,2.49.15.15.21.24.21.33,0,.12-.15.21-.36.21h-2.4v12.15c0,3.3,0,4.29.06,9a2.394,2.394,0,0,1-.99,2.25,8.5,8.5,0,0,1-3.63.93c-.39,0-.45-.09-.48-.6a2.373,2.373,0,0,0-.9-1.74c-.57-.42-1.17-.6-3.81-1.23l.03-.39c3.75.21,3.81.21,5.88.27h.09c.39,0,.48-.12.48-.57V92.79H12.24a4.1,4.1,0,0,1-.87.21,60.409,60.409,0,0,1-4.56,6.99,12.182,12.182,0,0,1,2.67,2.85,8.093,8.093,0,0,1,1.17,4.17c0,2.79-1.41,4.71-3.48,4.71-.33,0-.42-.12-.45-.51-.03-1.56-.36-2.16-1.41-2.73v1.95q0,1.68.06,4.14v1.8a.582.582,0,0,1-.27.51,4.56,4.56,0,0,1-1.86.3c-.96,0-1.2-.15-1.2-.75v-.03c.15-4.41.21-9.81.21-17.73,0-4.89-.03-7.17-.18-8.97a25.6,25.6,0,0,1,3.51,1.77H7.95c.66-.72.87-.93,1.5-1.59A18.816,18.816,0,0,1,12,91.89l.3.27H23.55ZM5.31,108.03a11.165,11.165,0,0,0,1.77.24c.66,0,.99-.9.99-2.67,0-2.07-.36-3.15-1.86-5.52A73,73,0,0,0,8.1,92.1H5.31Zm9.48,1.35c0,.33-.06.48-.18.57a3.862,3.862,0,0,1-1.8.3c-.81,0-.99-.09-1.02-.63.06-2.49.09-5.19.09-7.98s-.03-4.38-.15-6.06A28.362,28.362,0,0,1,15,97.35h2.46c.63-.72.84-.96,1.5-1.65.99.72,1.29.93,2.19,1.68.24.18.33.33.33.48,0,.27-.21.42-.9.81v3.03c0,3.09,0,3.93.06,6.66,0,.42-.09.6-.39.72a5.888,5.888,0,0,1-1.68.21c-.78,0-.93-.09-.96-.57V107.1H14.79v2.28Zm0-2.91h2.82V97.98H14.79Z" transform="translate(0)" fill="#fff"/>
        <path id="Path_204" data-name="Path 204" d="M5.31,152.25c-.03.36-.12.54-.42.66a8.722,8.722,0,0,1-1.92.18c-.99,0-1.2-.15-1.2-.81.24-6.03.27-9.33.27-20.07,0-2.7-.03-4.26-.18-6.6a36.164,36.164,0,0,1,3.9,1.92H23.43c.72-.81.96-1.05,1.74-1.83,1.14.75,1.47,1.02,2.58,1.83.27.21.39.36.39.57,0,.3-.24.54-1.14,1.05v8.58c0,6.15.09,11.52.24,14.31,0,.42-.09.63-.42.78a7.215,7.215,0,0,1-2.01.24c-.81,0-1.02-.12-1.08-.63v-1.32H5.31v1.14Zm0-1.77H23.73V128.16H5.31v22.32Zm10.44-12.15h1.83c.75-.93.99-1.23,1.8-2.13a26.125,26.125,0,0,1,2.55,2.28c.15.12.18.21.18.27,0,.15-.12.21-.36.21h-6v7.41H18.3a16.949,16.949,0,0,1,1.53-1.83c-.15,0-.27.03-.36.03-.33,0-.45-.18-.78-1.08a9.13,9.13,0,0,0-1.95-3.54l.18-.18c3.27.96,4.44,1.71,4.44,2.76a2.063,2.063,0,0,1-1.02,1.74,29.217,29.217,0,0,1,2.49,2.22.521.521,0,0,1,.18.33c0,.12-.15.18-.33.18H8.19a8.521,8.521,0,0,0-1.83.15l-.18-.99a9.543,9.543,0,0,0,2.01.21h4.29v-7.41H9.21a9.6,9.6,0,0,0-1.77.15l-.15-.99a7.591,7.591,0,0,0,1.95.21h3.24v-5.85H8.7a14.108,14.108,0,0,0-1.89.15l-.18-1.02a9.023,9.023,0,0,0,2.1.24h8.91c.81-.99,1.08-1.29,1.95-2.25,1.32,1.02,1.71,1.32,2.91,2.4q.18.18.18.27c0,.12-.15.21-.33.21h-6.6v5.85Z" transform="translate(0)" fill="#fff"/>
        <path id="Path_205" data-name="Path 205" d="M8.46,187.62a33.019,33.019,0,0,0,7.11-7.23,32.11,32.11,0,0,0,4.77-9.09,52.257,52.257,0,0,0-7.98,1.5,14.472,14.472,0,0,0-3.48,1.17,2.489,2.489,0,0,1-1.14.3c-1.26,0-3.39-2.61-3.39-4.23a1.46,1.46,0,0,1,.18-.69,3.366,3.366,0,0,0,3.15,1.95c1.14,0,6.45-.75,10.38-1.44,1.8-.3,1.86-.33,2.55-.81a1.378,1.378,0,0,1,.84-.24,4,4,0,0,1,1.95,1.14c.93.81,1.38,1.44,1.38,1.92,0,.39-.12.57-.57.93a5.424,5.424,0,0,0-1.38,1.95c-3.51,6.63-7.98,10.77-14.19,13.17l-.18-.3Zm-.81-24.27a4.248,4.248,0,0,0,3.3,1.53,16.136,16.136,0,0,0,6.9-1.74,1.206,1.206,0,0,1,.78-.24,5.017,5.017,0,0,1,2.37.96c.54.39.75.72.75,1.14,0,.69-.48.93-2.31,1.23a65.462,65.462,0,0,1-7.11.78c-2.34,0-3.57-.87-5.01-3.45l.33-.21Z" transform="translate(0)" fill="#fff"/>
        <path id="Path_206" data-name="Path 206" d="M7.74,209.34a17.208,17.208,0,0,1-1.26,6.72c-.75,1.77-1.71,2.73-2.7,2.73-.84,0-1.44-.96-1.44-2.34a2.555,2.555,0,0,1,.27-1.14c.18-.24.27-.3.9-.66a7.994,7.994,0,0,0,2.43-2.22,7.456,7.456,0,0,0,1.38-3.15ZM3.9,203.52c1.11,1.35,2.01,1.74,4.11,1.74a37.257,37.257,0,0,0,4.92-.45c0-3.03-.06-4.02-.27-4.68a3.045,3.045,0,0,0-2.43-1.74,1.6,1.6,0,0,1,1.29-.45,11.219,11.219,0,0,1,3.99.9c.9.42,1.29.87,1.29,1.41,0,.39-.06.51-.42,1.14a6.78,6.78,0,0,0-.72,2.91c2.46-.39,4.14-.9,4.95-1.56a1.219,1.219,0,0,1,.9-.3,5.453,5.453,0,0,1,2.1.72c.63.36.93.78.93,1.23,0,.72-.45.93-2.4,1.23q-.405.045-1.89.27c-1.83.3-3.96.6-4.71.69-.03,1.44-.03,1.62-.03,2.13a81.68,81.68,0,0,0,.42,8.34c.03.51.06.81.06,1.17,0,2.34-1.11,4.2-2.52,4.2-.72,0-1.05-.3-1.26-1.2a3.786,3.786,0,0,0-1.5-2.07,27.553,27.553,0,0,0-2.97-2.13l.12-.24a25.9,25.9,0,0,0,4.89,1.08c.15-3.36.21-6.72.21-10.98-1.89.18-3,.27-3.93.27-2.85,0-4.32-.93-5.43-3.45l.3-.18Zm15.39,5.37a16.971,16.971,0,0,1,5.1,3.3,4.129,4.129,0,0,1,1.5,3c0,1.68-.84,3.09-1.86,3.09a.8.8,0,0,1-.75-.48,5.5,5.5,0,0,1-.36-1.17,18.994,18.994,0,0,0-3.87-7.5l.24-.24Zm.33-11.94c3.84,1.14,5.19,2.07,5.19,3.6,0,.78-.42,1.35-.99,1.35-.3,0-.54-.21-.84-.72a12.2,12.2,0,0,0-3.54-3.96l.18-.27Zm2.97-1.62a12.94,12.94,0,0,1,3.63,1.14c1.08.51,1.59,1.17,1.59,2.04,0,.75-.42,1.35-.93,1.35-.24,0-.42-.15-.66-.57a11.213,11.213,0,0,0-3.78-3.72l.15-.24Z" transform="translate(0)" fill="#fff"/>
        <path id="Path_207" data-name="Path 207" d="M1.68,231.75v7.2H16.56v1.29H.39v-8.49H1.68Z" transform="translate(0)" fill="#fff"/>
        <path id="Path_208" data-name="Path 208" d="M9.81,252.33a8.793,8.793,0,0,1,3.06.6c1.17.42,1.71.96,1.71,1.65a2.735,2.735,0,0,1-.33,1.02,17.421,17.421,0,0,0-.9,6.27c0,.96.33,1.41.99,1.41a7.823,7.823,0,0,0,2.73-.99,6.185,6.185,0,0,1,2.61-.84,1.961,1.961,0,0,1,1.98,1.89,1.26,1.26,0,0,1-.81,1.26,23.519,23.519,0,0,1-3,.81,21.031,21.031,0,0,0-7.56,3.18c-1.47,1.08-2.13,2.16-2.13,3.42,0,1.86,1.56,2.88,4.41,2.88a27.009,27.009,0,0,0,7.11-1.05,2.917,2.917,0,0,1,1.02-.18,2.789,2.789,0,0,1,2.1.99,1.773,1.773,0,0,1,.57,1.35c0,.69-.51,1.11-1.59,1.38a35.533,35.533,0,0,1-5.97.45,15.814,15.814,0,0,1-6.03-.87,5.126,5.126,0,0,1-3.33-4.8c0-2.88,2.4-5.58,7.05-8.01a.586.586,0,0,1-.21.03,2.522,2.522,0,0,1-1.62-.63c-.72-.69-.87-1.56-.99-5.37-.12-2.88-.18-3.48-.39-3.99-.27-.69-.93-1.05-2.31-1.29a2.19,2.19,0,0,1,1.83-.57Z" transform="translate(0)" fill="#fff"/>
        <path id="Path_209" data-name="Path 209" d="M9.63,300.24l-.99,3.81a25.741,25.741,0,0,0-.96,5.22c0,.24.03.51.06.99.03.3.06.6.06.81a1.453,1.453,0,0,1-1.44,1.56c-.72,0-1.32-.51-1.8-1.56a17.3,17.3,0,0,1-1.05-6.36c0-2.94.3-5.1,1.38-10.14a13.964,13.964,0,0,0,.51-3.15,5.089,5.089,0,0,0-.93-2.94,4.7,4.7,0,0,1,2.67,1.74,5.453,5.453,0,0,1,1.62,3.15,2.673,2.673,0,0,1-.54,1.56,20.971,20.971,0,0,0-1.17,2.31,18.992,18.992,0,0,0-1.29,6.6,10.559,10.559,0,0,0,.33,2.88c.51-.96.72-1.38,1.44-2.94.72-1.53.96-2.01,1.77-3.63l.33.09Zm2.1-5.28a5.319,5.319,0,0,0,3.84,1.44,15.127,15.127,0,0,0,3.48-.42c-.03-3.75-.09-4.62-.33-5.19-.3-.78-1.11-1.2-2.4-1.32a2.593,2.593,0,0,1,1.98-.63,7.455,7.455,0,0,1,3.18.66c.78.33,1.17.78,1.17,1.32a2.249,2.249,0,0,1-.3,1.02,8.211,8.211,0,0,0-.72,3.42,6.748,6.748,0,0,0,2.67-1.32.993.993,0,0,1,.72-.3,3,3,0,0,1,1.89.72,1.122,1.122,0,0,1,.3.75c0,.9-1.86,1.71-5.73,2.55v1.14a49.386,49.386,0,0,0,.42,6.57,11.182,11.182,0,0,1,3.93,1.8,2.881,2.881,0,0,1,1.29,2.46c0,1.08-.42,1.8-1.05,1.8-.36,0-.45-.09-1.71-1.35a9.6,9.6,0,0,0-2.4-1.83,2.152,2.152,0,0,1,.03.39c0,2.31-1.98,3.72-5.31,3.72-2.97,0-4.95-1.41-4.95-3.54,0-2.37,2.46-3.99,6.09-3.99.42,0,.78.03,1.38.06,0-.36-.06-5.16-.12-6.87a14.849,14.849,0,0,1-2.1.18,5.763,5.763,0,0,1-3.6-1.02,7.543,7.543,0,0,1-1.89-2.01l.24-.21Zm4.62,11.88c-2.25,0-3.66.75-3.66,1.95,0,.96,1.14,1.62,2.88,1.62a4,4,0,0,0,2.85-.9,2.168,2.168,0,0,0,.6-1.29c.03-.21.06-.72.06-.93,0-.03,0-.06-.03-.06a7.9,7.9,0,0,0-2.7-.39Z" transform="translate(0)" fill="#fff"/>
      </g>
    </g>
  </g>
</svg>
