<svg xmlns="http://www.w3.org/2000/svg" width="60" height="287.777" viewBox="0 0 60 287.777">
  <g id="Group_108" data-name="Group 108" transform="translate(-123 -4254)">
    <path id="Path_45" data-name="Path 45" d="M0,0H60V287.777H0Z" transform="translate(123 4254)" fill="#e31d1d"/>
    <g id="Layer_1" data-name="Layer 1" transform="translate(138 4276)">
      <g id="Group_107" data-name="Group 107">
        <path id="Path_156" data-name="Path 156" d="M27.48,8.49V1.29H12.6V0H28.77V8.49Z" fill="#fff"/>
        <path id="Path_157" data-name="Path 157" d="M8.64,43.56c-.03.69-.42.81-2.49.81-1.08,0-1.23-.09-1.23-.72.18-5.34.21-8.58.21-15.42,0-6.15-.03-7.62-.18-10.17a31.407,31.407,0,0,1,4.02,2.01H20.4c.81-.87,1.08-1.14,1.89-2.01,1.2.87,1.56,1.14,2.64,2.01.3.24.42.39.42.57,0,.27-.24.48-1.14.96l-.03,4.8c0,8.97.03,10.92.21,16.83,0,.36-.06.51-.21.63a5.026,5.026,0,0,1-2.25.33c-1.02,0-1.26-.09-1.26-.57V41.73H8.64v1.83ZM20.67,20.7H8.64v9.42H20.67ZM8.64,30.75V41.1H20.67V30.75H8.64Z" fill="#fff"/>
        <path id="Path_158" data-name="Path 158" d="M16.38,60.54a16.43,16.43,0,0,0,1.53,3.03,21.645,21.645,0,0,0,7.29,6.75,21.162,21.162,0,0,0,3.96,1.86v.33a3.057,3.057,0,0,0-1.8,1.44,10.822,10.822,0,0,0-.66,1.32c-.12.3-.24.42-.36.42-.15,0-.45-.18-1.2-.72a21.34,21.34,0,0,1-6.33-7.2,28.1,28.1,0,0,1-2.76-6.57l.06,12.45h1.47c.66-.84,1.29-1.65,1.89-2.4a37.477,37.477,0,0,1,3.06,2.58q.18.18.18.27c0,.09-.15.18-.3.18h-6.3q.09,4.56.15,6.15c0,.66-.27.75-2.31.75-1.11,0-1.26-.09-1.29-.63.09-2.22.12-2.73.15-6.27H8.91a8.475,8.475,0,0,0-1.86.15l-.15-.99a9.543,9.543,0,0,0,2.01.21h3.93l.06-8.91a24.9,24.9,0,0,1-6.03,7.08A32.232,32.232,0,0,1,.21,76.14L0,75.84a39,39,0,0,0,7.92-8.73,39.688,39.688,0,0,0,3.57-6.57H3.51a9.408,9.408,0,0,0-2.1.21l-.18-1.11a10.467,10.467,0,0,0,2.28.27h9.3v-3.3a19.209,19.209,0,0,0-.18-3.12c.96.12,1.74.18,2.22.24,2.04.21,2.43.33,2.43.69,0,.3-.3.48-1.23.78v4.71h6.42c.99-1.2,1.29-1.56,2.28-2.67,1.53,1.2,2.01,1.59,3.48,2.88.09.12.15.18.15.24,0,.12-.15.18-.3.18H16.38Z" fill="#fff"/>
        <path id="Path_159" data-name="Path 159" d="M10.47,105.6c.6-.6.78-.78,1.41-1.38.87.66.9.69,2.01,1.59h6.27a20.978,20.978,0,0,0-.12-2.49c.75.06,1.32.12,1.71.15,1.83.12,2.25.21,2.25.51,0,.24-.21.39-.87.66v1.17H24c.75-.81.96-1.05,1.71-1.8,1.05.84,1.38,1.08,2.46,1.98a.359.359,0,0,1,.12.24.242.242,0,0,1-.27.21H23.13c0,2.64,0,2.88.03,5.4h.93c.84-.93,1.08-1.2,1.89-2.13,1.17.99,1.53,1.29,2.7,2.31a.378.378,0,0,1,.12.21c0,.15-.15.24-.33.24H23.16q.03,2.52.09,4.08c0,.36-.06.48-.3.6a8.258,8.258,0,0,1-1.98.21c-.72,0-.96-.18-.96-.63v-.12q.09-1.68.12-4.14H13.56a13.692,13.692,0,0,0-1.53.12l-.24-.96a11.425,11.425,0,0,0,1.89.21h1.14v-5.37h-.9a.953.953,0,0,1-.45.27,16.05,16.05,0,0,1-5.82,7.44,23.208,23.208,0,0,1-7.2,3.27l-.18-.36a23.591,23.591,0,0,0,7.53-5.88,17.716,17.716,0,0,0,2.67-4.98H7.32A16.007,16.007,0,0,1,5.79,108c1.53.54,2.07,1.05,2.07,1.95a1.816,1.816,0,0,1-1.74,1.89.689.689,0,0,1-.78-.75,6.168,6.168,0,0,1,.12-.78,7.628,7.628,0,0,0,.15-1.02v-.39a1.01,1.01,0,0,0-.18-.54,17.614,17.614,0,0,1-5.01,3.63l-.18-.24a21.543,21.543,0,0,0,4.41-6,10.508,10.508,0,0,0,1.14-2.79H3.45a18.632,18.632,0,0,0-1.98.15l-.18-.99a18.474,18.474,0,0,0,2.16.21H5.4V98.07H2.88c-.57,0-1.29.06-1.98.12l-.21-.96a14.156,14.156,0,0,0,2.22.21H5.4V94.59a21.2,21.2,0,0,1-3.69,2.1l-.21-.27a18.193,18.193,0,0,0,5.19-7.14c.81.21,1.41.36,1.83.48,2.31.57,2.4.6,2.4.9s-.3.39-1.47.54a15.3,15.3,0,0,1-1.5,1.47H21.96c.96-.99,1.23-1.29,2.16-2.22,1.29.99,1.71,1.32,3,2.34.12.15.18.24.18.33,0,.12-.12.18-.27.18H23.19v4.14h1.17c.72-.93.96-1.2,1.74-2.07,1.17.9,1.53,1.2,2.67,2.16.15.15.21.24.21.33,0,.15-.12.21-.33.21H23.19v4.26h.66c.75-.9.99-1.17,1.8-2.04,1.11.93,1.47,1.23,2.58,2.22.12.12.15.18.15.27a.2.2,0,0,1-.21.18H6q3.63.75,3.63,1.05c0,.3-.3.42-1.05.54-.36.48-.48.63-.78,1.05h2.67Zm-.03-8.16V93.3H8.31v4.14Zm0,4.89V98.07H8.31v4.26Zm4.89-4.89V93.3H13.26v4.14Zm0,4.89V98.07H13.26v4.26Zm4.83,9.51v-5.4H17.7v5.4Zm-1.95-14.4h1.95V93.3H18.21Zm0,4.89h1.95V98.07H18.21Z" fill="#fff"/>
        <path id="Path_160" data-name="Path 160" d="M12.51,140.88q0-6.84-.09-8.88a36.284,36.284,0,0,1,3.39,1.74h3.48a6.442,6.442,0,0,1-.42-.69,13.227,13.227,0,0,0-3.3-3.96l.15-.27a17.375,17.375,0,0,1,4.89,1.83,22.2,22.2,0,0,0,2.37-2.97H14.43a6.526,6.526,0,0,0-1.5.15l-.21-.99a6.673,6.673,0,0,0,1.71.21h8.58c.81-.72,1.05-.93,1.8-1.62,1.32.96,1.71,1.26,2.97,2.28.3.27.39.39.39.54,0,.27-.33.39-1.08.39h-.54a43.735,43.735,0,0,1-5.25,2.52,1.307,1.307,0,0,1,.51,1.05,2,2,0,0,1-.72,1.53h3.12L25.74,132c1.05.78,1.35,1.02,2.31,1.83.24.21.33.33.33.48,0,.24-.18.39-.93.84v8.67q0,2.04.03,5.7c0,1.68-.18,2.25-.9,2.73a5.554,5.554,0,0,1-2.46.66c-.3,0-.42-.09-.45-.45-.12-1.68-.39-1.98-2.34-2.64v1.8c0,.63-.39.78-1.98.78-.9,0-1.05-.06-1.05-.54q.03-3.78.03-7.08v-.42H15.57v7.77c0,.66-.39.81-2.07.81-.9,0-1.08-.09-1.08-.6.09-4.68.09-4.92.09-11.43-.09.12-.12.15-.27.15H8.82V147c1.17-.3,1.86-.45,3.54-.9l.12.3a82.633,82.633,0,0,1-9.93,4.92c-.09,1.05-.21,1.38-.54,1.38-.3,0-.45-.33-1.62-4.26.66-.06.84-.09,1.38-.15v-7.41a19.92,19.92,0,0,0-.15-3.09c.78.09,1.35.15,1.74.18,1.77.21,2.13.3,2.13.6,0,.21-.24.36-.9.6v8.67q.81-.15,1.44-.27V134.91H4.74v.75c0,.6-.36.72-2.01.72-.87,0-1.02-.09-1.05-.54.12-3.66.12-4.11.12-5.82,0-2.1-.03-3-.15-4.56,1.47.66,1.92.87,3.36,1.62H8.07c.69-.72.9-.96,1.59-1.65.99.69,1.26.9,2.16,1.62.24.21.33.33.33.45,0,.21-.18.36-.93.84v2.34c0,.99,0,1.41.03,4.65a.491.491,0,0,1-.18.45,3.518,3.518,0,0,1-1.71.27H8.82v4.35H9.3q.75-1.14,1.32-2.01c.78.99,1.02,1.29,1.77,2.25l.12.24Zm-7.77-6.6H8.31v-6.57H4.74v6.57Zm10.83.09v4.23h2.76v-4.23Zm2.76,9.36v-4.5H15.57v4.5Zm3-5.13h3.03v-4.23H21.33Zm0,.63v4.5h3.03v-4.5Zm0,5.13v5.13c1.14.09,1.53.12,2.55.15.39,0,.48-.09.48-.45v-4.83H21.33Z" fill="#fff"/>
        <path id="Path_161" data-name="Path 161" d="M1.71,162.27v7.2H16.59v1.29H.42v-8.49H1.71Z" fill="#fff"/>
        <path id="Path_162" data-name="Path 162" d="M9.84,182.85a8.793,8.793,0,0,1,3.06.6c1.17.42,1.71.96,1.71,1.65a2.735,2.735,0,0,1-.33,1.02,17.421,17.421,0,0,0-.9,6.27c0,.96.33,1.41.99,1.41a7.823,7.823,0,0,0,2.73-.99,6.185,6.185,0,0,1,2.61-.84,1.961,1.961,0,0,1,1.98,1.89,1.26,1.26,0,0,1-.81,1.26,23.516,23.516,0,0,1-3,.81,21.032,21.032,0,0,0-7.56,3.18c-1.47,1.08-2.13,2.16-2.13,3.42,0,1.86,1.56,2.88,4.41,2.88a27.009,27.009,0,0,0,7.11-1.05,2.917,2.917,0,0,1,1.02-.18,2.79,2.79,0,0,1,2.1.99,1.773,1.773,0,0,1,.57,1.35c0,.69-.51,1.11-1.59,1.38a35.532,35.532,0,0,1-5.97.45,15.814,15.814,0,0,1-6.03-.87,5.126,5.126,0,0,1-3.33-4.8c0-2.88,2.4-5.58,7.05-8.01a.586.586,0,0,1-.21.03,2.522,2.522,0,0,1-1.62-.63c-.72-.69-.87-1.56-.99-5.37-.12-2.88-.18-3.48-.39-3.99-.27-.69-.93-1.05-2.31-1.29a2.19,2.19,0,0,1,1.83-.57Z" fill="#fff"/>
        <path id="Path_163" data-name="Path 163" d="M9.66,230.76l-.99,3.81a25.741,25.741,0,0,0-.96,5.22c0,.24.03.51.06.99.03.3.06.6.06.81a1.453,1.453,0,0,1-1.44,1.56c-.72,0-1.32-.51-1.8-1.56a17.3,17.3,0,0,1-1.05-6.36c0-2.94.3-5.1,1.38-10.14a13.965,13.965,0,0,0,.51-3.15A5.089,5.089,0,0,0,4.5,219a4.7,4.7,0,0,1,2.67,1.74,5.453,5.453,0,0,1,1.62,3.15,2.674,2.674,0,0,1-.54,1.56,20.971,20.971,0,0,0-1.17,2.31,18.992,18.992,0,0,0-1.29,6.6,10.559,10.559,0,0,0,.33,2.88c.51-.96.72-1.38,1.44-2.94.72-1.53.96-2.01,1.77-3.63l.33.09Zm2.1-5.28a5.319,5.319,0,0,0,3.84,1.44,15.127,15.127,0,0,0,3.48-.42c-.03-3.75-.09-4.62-.33-5.19-.3-.78-1.11-1.2-2.4-1.32a2.593,2.593,0,0,1,1.98-.63,7.455,7.455,0,0,1,3.18.66c.78.33,1.17.78,1.17,1.32a2.249,2.249,0,0,1-.3,1.02,8.211,8.211,0,0,0-.72,3.42,6.748,6.748,0,0,0,2.67-1.32.993.993,0,0,1,.72-.3,3,3,0,0,1,1.89.72,1.122,1.122,0,0,1,.3.75c0,.9-1.86,1.71-5.73,2.55v1.14a49.386,49.386,0,0,0,.42,6.57,11.182,11.182,0,0,1,3.93,1.8,2.881,2.881,0,0,1,1.29,2.46c0,1.08-.42,1.8-1.05,1.8-.36,0-.45-.09-1.71-1.35a9.6,9.6,0,0,0-2.4-1.83,2.152,2.152,0,0,1,.03.39c0,2.31-1.98,3.72-5.31,3.72-2.97,0-4.95-1.41-4.95-3.54,0-2.37,2.46-3.99,6.09-3.99.42,0,.78.03,1.38.06,0-.36-.06-5.16-.12-6.87a14.849,14.849,0,0,1-2.1.18,5.763,5.763,0,0,1-3.6-1.02,7.543,7.543,0,0,1-1.89-2.01l.24-.21Zm4.62,11.88c-2.25,0-3.66.75-3.66,1.95,0,.96,1.14,1.62,2.88,1.62a4,4,0,0,0,2.85-.9,2.168,2.168,0,0,0,.6-1.29c.03-.21.06-.72.06-.93,0-.03,0-.06-.03-.06a7.9,7.9,0,0,0-2.7-.39Z" fill="#fff"/>
      </g>
    </g>
  </g>
</svg>
