<svg xmlns="http://www.w3.org/2000/svg" width="60" height="252" viewBox="0 0 60 252">
  <g id="Group_47" data-name="Group 47" transform="translate(-1617 -2949)">
    <rect id="Rectangle_18" data-name="Rectangle 18" width="60" height="252" transform="translate(1617 2949)" fill="#e31d1d"/>
    <g id="Layer_1" data-name="Layer 1" transform="translate(1632 2971)">
      <g id="Group_43" data-name="Group 43">
        <path id="Path_38" data-name="Path 38" d="M27.45,8.49V1.29H12.57V0H28.74V8.49Z" fill="#fff"/>
        <path id="Path_39" data-name="Path 39" d="M24.9,32.34a16.707,16.707,0,0,1-2.79,6.24c4.05,1.59,4.95,2.31,4.95,3.9,0,1.29-.6,2.46-1.26,2.46-.39,0-.66-.21-1.11-.81a17.55,17.55,0,0,0-4.2-3.75,14.141,14.141,0,0,1-5.16,3.21,24.036,24.036,0,0,1-6.6,1.35l-.09-.36a21.317,21.317,0,0,0,6.06-2.61,15.29,15.29,0,0,0,3.57-3.06,28.609,28.609,0,0,0-3.51-1.92c-.27.54-.54.99-1.02,1.92-.21.3-.39.39-.9.39-1.44,0-2.46-.24-2.46-.57a.894.894,0,0,1,.15-.42,43.612,43.612,0,0,0,3.06-5.97H11.25a2.082,2.082,0,0,1-1.68,1.29c-.39,0-.54-.27-.66-1.29a9.429,9.429,0,0,0-1.38-4.41V44.46c0,.72-.21.81-1.95.81-1.14,0-1.23-.06-1.23-.69q.03-1.59.12-4.47c0-.96.06-2.46.12-4.5l.06-3.66A19.506,19.506,0,0,1,.27,38.4L0,38.16a44.092,44.092,0,0,0,3.12-7.98,40.4,40.4,0,0,0,1.17-5.04H2.49a8.214,8.214,0,0,0-1.68.18L.63,24.27a7.038,7.038,0,0,0,1.86.24H4.5V21.18c0-1.26-.03-1.98-.15-3.51.9.09,1.62.15,2.07.18,1.89.15,2.34.27,2.34.63,0,.3-.33.51-1.23.75v5.28h.45L9.51,22.5c1.05.93,1.35,1.23,2.34,2.25.09.12.12.18.12.24,0,.09-.12.15-.3.15H7.53v2.19a12.4,12.4,0,0,1,2.16,1.35c1.32.99,1.86,1.71,1.86,2.46,0,.06-.03.33-.06.57h2.37a25.362,25.362,0,0,0,1.56-4.74c.93.21,1.62.36,2.1.45,1.65.33,2.22.54,2.22.84,0,.33-.42.51-1.38.57-.63,1.62-.81,2.04-1.17,2.88h6.33c.96-1.14,1.26-1.47,2.19-2.55,1.44,1.2,1.86,1.56,3.15,2.76a.617.617,0,0,1,.15.27c0,.09-.12.15-.33.15H24.9ZM10.62,19.11a16.884,16.884,0,0,1,3.75,2.97,3.172,3.172,0,0,1,1.17,2.31c0,1.32-1.11,2.79-2.1,2.79-.42,0-.6-.3-.78-1.26a17.157,17.157,0,0,0-2.31-6.6l.27-.21Zm6.3,13.23c-.72,1.65-1.29,2.94-1.92,4.17a41.17,41.17,0,0,1,4.23,1.08,16.871,16.871,0,0,0,2.19-5.25h-4.5ZM15.78,18.12a15.371,15.371,0,0,1,3.72,2.85c.93.96,1.26,1.56,1.26,2.31,0,1.32-1.17,2.91-2.16,2.91-.51,0-.66-.3-.87-1.56a15.932,15.932,0,0,0-2.22-6.3Zm4.83,10.47a38.8,38.8,0,0,0,3.63-10.08c3.99,1.59,4.59,1.89,4.59,2.28,0,.3-.36.42-1.41.42a30.019,30.019,0,0,1-6.51,7.62l-.3-.24Z" fill="#fff"/>
        <path id="Path_40" data-name="Path 40" d="M.42,66.06a9.381,9.381,0,0,0,1.56.21H3.93c.57-.63,1.11-1.26,1.68-1.92,1.08.81,1.41,1.08,2.46,1.89.21.21.3.36.3.45,0,.21-.18.36-.96.84v7.14a3.716,3.716,0,0,0,1.77,2.01c1.32.66,2.94.9,6.06.9,4.2,0,8.67-.21,13.65-.69v.3a3.231,3.231,0,0,0-1.98,3c-.03.3-.15.36-.6.39h-.42l-2.82.03c-2.85.06-3,.06-3.87.06-3.99,0-6.66-.27-8.13-.87a7.029,7.029,0,0,1-3.36-2.85,8.3,8.3,0,0,1-.9-2.19,35.885,35.885,0,0,1-3.93,5.1,5.79,5.79,0,0,1,.03.69c0,.39-.18.72-.39.72-.18,0-.33-.15-.54-.48C1.59,80.1.72,78.27.15,76.92a13.766,13.766,0,0,0,4.02-1.95V66.9H2.01a7.976,7.976,0,0,0-1.35.15l-.24-.99ZM1.47,54.3c4.2,1.62,6.3,3.15,6.3,4.65,0,1.38-1.11,2.88-2.13,2.88-.54,0-.69-.18-1.08-1.26-1.14-3.15-1.62-4.08-3.33-6.06l.24-.21ZM19.62,66h3.21c.72-.78,1.35-1.47,1.95-2.13,1.35.99,1.77,1.32,3.21,2.43a.274.274,0,0,1,.09.15c0,.09-.12.18-.24.18H19.62v2.61c0,.45,0,1.26.03,2.28.03,1.2.03,1.44.03,2.43a2.477,2.477,0,0,1-.45,1.56,3.891,3.891,0,0,1-3.06,1.2q-.42.03-.48.03c-.27,0-.33-.06-.36-.36a2.551,2.551,0,0,0-.3-1.14c-.33-.69-1.23-1.14-2.73-1.38l.06-.33c.36.03.66.03.84.06q1.86.09,2.94.09c.36-.06.45-.15.45-.48V66.63H11.43a9.892,9.892,0,0,0-2.04.18l-.24-1.02a12.875,12.875,0,0,0,2.28.21h5.16V62.37H14.55a8.806,8.806,0,0,0-1.68.12l-.18-.81a25.363,25.363,0,0,1-5.04,2.67l-.21-.3a29.891,29.891,0,0,0,5.76-5.79,18.379,18.379,0,0,0,2.79-4.95c.66.15,1.14.24,1.47.33.9.24,1.5.39,1.56.39,1.05.18,1.56.45,1.56.78,0,.3-.09.33-1.32.51A10.217,10.217,0,0,0,24,58.95a18.386,18.386,0,0,0,5.28,1.29v.36a2.956,2.956,0,0,0-1.5,1.62,6.941,6.941,0,0,0-.42,1.14c-.09.24-.15.33-.33.33a10.586,10.586,0,0,1-3.66-2.13,17.374,17.374,0,0,1-4.5-5.73,24.159,24.159,0,0,1-6.03,5.76,11.254,11.254,0,0,0,1.68.15h5.16L21.06,60c1.05.87,1.35,1.14,2.37,2.04a.456.456,0,0,1,.12.18c0,.12-.09.15-.27.15H19.62V66ZM8.25,75.03a21.588,21.588,0,0,0,3.51-7.29c.72.18,1.26.3,1.62.39,1.77.42,2.34.66,2.34.96,0,.27-.24.36-1.23.51a20.266,20.266,0,0,1-6.06,5.64l-.18-.21Zm12.57-6.96c4.41,1.71,6.24,2.97,6.24,4.32s-.99,2.97-1.86,2.97c-.39,0-.69-.36-.99-1.2a16.633,16.633,0,0,0-3.57-5.88l.18-.21Z" fill="#fff"/>
        <path id="Path_41" data-name="Path 41" d="M15.96,108.9h5.13c1.02-1.14,1.35-1.47,2.34-2.52,1.5,1.17,1.95,1.53,3.39,2.73a.415.415,0,0,1,.15.27c0,.09-.12.15-.3.15H15.96v5.61h6.87c1.08-1.23,1.41-1.62,2.52-2.82,1.5,1.26,1.95,1.62,3.36,2.91a.464.464,0,0,1,.21.36c0,.12-.15.18-.39.18H3.06a7.908,7.908,0,0,0-2.1.24l-.24-1.14a11.049,11.049,0,0,0,2.37.27h9.54v-5.61H5.58a10.075,10.075,0,0,0-2.31.24l-.21-1.17a10.873,10.873,0,0,0,2.52.3h7.05v-5.04H7.35v1.32c0,.66-.3.75-2.16.75-1.08,0-1.29-.09-1.29-.66.12-2.94.12-3.99.12-8.25s-.03-5.13-.18-7.41A29.617,29.617,0,0,1,7.62,91.5H21.3c.78-.81,1.02-1.05,1.83-1.8,1.14.81,1.47,1.05,2.52,1.86.24.24.33.36.33.51,0,.21-.27.45-1.08.87v4.02c0,2.7,0,3.39.12,7.68,0,.72-.45.9-2.28.9-1.08,0-1.26-.09-1.26-.63v-1.05H15.96v5.04ZM12.63,92.13H7.35v5.16h5.28Zm0,5.79H7.35v5.31h5.28Zm8.85-.63V92.13H15.96v5.16Zm-5.52,5.94h5.52V97.92H15.96Z" fill="#fff"/>
        <path id="Path_42" data-name="Path 42" d="M1.68,126.51v7.2H16.56V135H.39v-8.49Z" fill="#fff"/>
        <path id="Path_43" data-name="Path 43" d="M9.81,147.09a8.793,8.793,0,0,1,3.06.6c1.17.42,1.71.96,1.71,1.65a2.735,2.735,0,0,1-.33,1.02,17.421,17.421,0,0,0-.9,6.27c0,.96.33,1.41.99,1.41a7.823,7.823,0,0,0,2.73-.99,6.185,6.185,0,0,1,2.61-.84,1.961,1.961,0,0,1,1.98,1.89,1.26,1.26,0,0,1-.81,1.26,23.516,23.516,0,0,1-3,.81,21.032,21.032,0,0,0-7.56,3.18c-1.47,1.08-2.13,2.16-2.13,3.42,0,1.86,1.56,2.88,4.41,2.88a27.009,27.009,0,0,0,7.11-1.05,2.917,2.917,0,0,1,1.02-.18,2.79,2.79,0,0,1,2.1.99,1.773,1.773,0,0,1,.57,1.35c0,.69-.51,1.11-1.59,1.38a35.532,35.532,0,0,1-5.97.45,15.814,15.814,0,0,1-6.03-.87,5.126,5.126,0,0,1-3.33-4.8c0-2.88,2.4-5.58,7.05-8.01a.586.586,0,0,1-.21.03,2.522,2.522,0,0,1-1.62-.63c-.72-.69-.87-1.56-.99-5.37-.12-2.88-.18-3.48-.39-3.99-.27-.69-.93-1.05-2.31-1.29a2.19,2.19,0,0,1,1.83-.57Z" fill="#fff"/>
        <path id="Path_44" data-name="Path 44" d="M9.63,195l-.99,3.81a25.741,25.741,0,0,0-.96,5.22c0,.24.03.51.06.99.03.3.06.6.06.81a1.453,1.453,0,0,1-1.44,1.56c-.72,0-1.32-.51-1.8-1.56a17.3,17.3,0,0,1-1.05-6.36c0-2.94.3-5.1,1.38-10.14a13.965,13.965,0,0,0,.51-3.15,5.089,5.089,0,0,0-.93-2.94,4.7,4.7,0,0,1,2.67,1.74,5.453,5.453,0,0,1,1.62,3.15,2.674,2.674,0,0,1-.54,1.56A20.971,20.971,0,0,0,7.05,192a18.992,18.992,0,0,0-1.29,6.6,10.559,10.559,0,0,0,.33,2.88c.51-.96.72-1.38,1.44-2.94.72-1.53.96-2.01,1.77-3.63l.33.09Zm2.1-5.28a5.319,5.319,0,0,0,3.84,1.44,15.127,15.127,0,0,0,3.48-.42c-.03-3.75-.09-4.62-.33-5.19-.3-.78-1.11-1.2-2.4-1.32a2.593,2.593,0,0,1,1.98-.63,7.455,7.455,0,0,1,3.18.66c.78.33,1.17.78,1.17,1.32a2.249,2.249,0,0,1-.3,1.02,8.211,8.211,0,0,0-.72,3.42,6.748,6.748,0,0,0,2.67-1.32.993.993,0,0,1,.72-.3,3,3,0,0,1,1.89.72,1.122,1.122,0,0,1,.3.75c0,.9-1.86,1.71-5.73,2.55v1.14a49.386,49.386,0,0,0,.42,6.57,11.182,11.182,0,0,1,3.93,1.8,2.881,2.881,0,0,1,1.29,2.46c0,1.08-.42,1.8-1.05,1.8-.36,0-.45-.09-1.71-1.35a9.6,9.6,0,0,0-2.4-1.83,2.152,2.152,0,0,1,.03.39c0,2.31-1.98,3.72-5.31,3.72-2.97,0-4.95-1.41-4.95-3.54,0-2.37,2.46-3.99,6.09-3.99.42,0,.78.03,1.38.06,0-.36-.06-5.16-.12-6.87a14.849,14.849,0,0,1-2.1.18,5.763,5.763,0,0,1-3.6-1.02,7.543,7.543,0,0,1-1.89-2.01l.24-.21Zm4.62,11.88c-2.25,0-3.66.75-3.66,1.95,0,.96,1.14,1.62,2.88,1.62a4,4,0,0,0,2.85-.9,2.168,2.168,0,0,0,.6-1.29c.03-.21.06-.72.06-.93,0-.03,0-.06-.03-.06a7.9,7.9,0,0,0-2.7-.39Z" fill="#fff"/>
      </g>
    </g>
  </g>
</svg>
