<?xml version="1.0" encoding="UTF-8"?>
<svg id="Layer_2" data-name="Layer 2" xmlns="http://www.w3.org/2000/svg" viewBox="0 0 599.81 599.81">
  <defs>
    <style>
      .cls-1 {
        fill: #c1c1c1;
      }

      .cls-1, .cls-2 {
        stroke-width: 0px;
      }
    </style>
  </defs>
  <g id="Layer_2-2" data-name="Layer 2">
    <rect class="cls-1" x="87.84" y="87.84" width="424.13" height="424.13" transform="translate(-124.22 299.91) rotate(-45)"/>
    <g>
      <polygon class="cls-2" points="152.05 94.51 100.29 94.51 98.02 94.51 98.02 96.78 98.02 148.54 100.29 148.54 100.29 96.78 152.05 96.78 152.05 94.51"/>
      <polygon class="cls-2" points="448.44 94.51 500.2 94.51 502.47 94.51 502.47 96.78 502.47 148.54 500.2 148.54 500.2 96.78 448.44 96.78 448.44 94.51"/>
      <polygon class="cls-2" points="152.05 499.3 100.29 499.3 98.02 499.3 98.02 497.03 98.02 445.27 100.29 445.27 100.29 497.03 152.05 497.03 152.05 499.3"/>
      <polygon class="cls-2" points="448.44 499.3 500.2 499.3 502.47 499.3 502.47 497.03 502.47 445.27 500.2 445.27 500.2 497.03 448.44 497.03 448.44 499.3"/>
    </g>
    <g>
      <path class="cls-2" d="m282.97,172.76c0,1.3-2.59,1.3-3.19,3.09-2.19,6.88-6.48,15.95-11.76,23.92,8.37,7.17,13.55,17.14,13.65,24.02.2,11.16-4.88,15.65-11.66,16.24-3.99.3-1.89-3.19-8.17-5.38-.9-.3-.7-1.89.5-1.69.8.2,4.68.8,7.18.8,4.58.1,6.98-2.99,6.58-10.07-.3-6.58-1.89-12.96-9.77-23.22-.2-.3-.2-.7,0-1,3.29-8.87,6.18-17.44,8.07-25.81-4.29,0-9.07.1-12.56.2-1.1.3-1.79,1.4-1.79,2.69-.1,5.38.3,71.85.3,75.04.1,4.78-1.79,4.88-3.69,4.88-1.3,0-1.79-.6-1.79-2.59,0-3.89.2-74.64-.1-83.51,0-1.2.8-1.69,1.89-1.59,1.5.1,2.99.9,4.19,1.79,5.38.6,9.67.4,12.06.2,1.79-.1,2.59-2.19,4.58-2.19,2.29,0,5.48,2.49,5.48,4.19Zm61.19,1.4c0,.9-.6,1.29-2.29,1.29h-5.88c-1.4.1-1.99,1.3-1.99,2.69-.2,6.68.1,57.6.1,67.07,0,5.58-2.79,8.87-8.17,9.77-2.79.5-2.09-3.59-10.16-5.38-.9-.2-.9-1.99.3-1.89,1.99.2,7.27.4,8.37.4,2.49,0,3.99-.9,3.99-3.39.1-12.56.2-57.5-.1-69.26-15.25.1-33.09.3-38.17.3-2.09,0-3.79.1-4.68-2.39-.4-1.2,0-1.79,1.4-1.59,10.66,1.2,40.06.7,46.24.7,1.89,0,2.89-2.59,4.98-2.59,2.39,0,6.08,2.49,6.08,4.29Zm-31.59,56.4c-1.3,0-1.79-.6-1.79-2.39,0-1,.1-2.39.1-3.99-3.79,0-10.26.1-12.36.1-.8,0-1.79-.4-2.59-.9,0,3.19.1,5.78.1,6.88.2,4.98-1.79,5.08-3.59,5.08-1.4,0-1.89-.6-1.89-2.49.2-6.28.2-35.18-.1-41.85,0-1.2.7-1.59,1.69-1.5,1.69.1,3.49,1.1,4.78,2.19,3.89.3,9.47.2,11.36,0,1.79-.1,2.39-2.29,4.29-2.29,2.19,0,5.68,2.19,5.68,3.99,0,1.29-2.29,1.49-2.29,3.09,0,4.88.1,23.92.3,29.3.1,4.88-1.89,4.78-3.69,4.78Zm-1.69-9.27c0-8.57,0-21.43-.1-26.81-4.98,0-10.56,0-13.05.1-1,.3-1.79,1.4-1.79,2.69-.1,3.39-.1,15.35,0,24.02,4.09.2,11.46.1,14.95,0Z"/>
      <path class="cls-2" d="m337.48,345.96c0,1.5-2.29,1.5-2.29,3.09-.2,8.87.2,69.26.4,76.44.1,5.18-2.19,5.08-3.99,5.08-1.5,0-1.99-.6-1.99-2.59v-3.59c-12.06,0-58,.1-65.77.1-.8,0-1.79-.5-2.49-1.1v2.09c.1,5.18-2.09,5.28-3.99,5.28-1.4,0-1.89-.6-1.89-2.59.2-11.36.2-74.14-.1-84.71,0-1.2.7-1.69,1.79-1.59,2.19.1,4.09,1,5.38,1.99,12.26.5,59.99.4,64.28.4,1.89,0,2.69-2.59,4.68-2.59,2.29,0,5.98,2.49,5.98,4.29Zm-7.77,74.94c.1-18.64.1-60.29-.1-73.45l-66.57.1c-1,.3-1.89,1.1-1.89,2.49,0,6.18.1,54.11.2,70.56,11.76.5,56.4.3,68.36.3Zm-5.58-12.76c0,.8-.6,1.39-2.09,1.39-8.27,0-45.14.2-50.43.2-1.99,0-3.59,0-4.38-2.29-.4-1.1,0-1.99,1.3-1.79,4.38.7,14.45.9,24.02,1-.1-.3-.1-.6-.1-.9.1-3.99.2-12.86.2-21.72h-17.74c-1.79,0-3.39.1-4.19-2.09-.4-1.1,0-1.89,1.3-1.79,5.68.5,13.55.7,20.63.8-.1-7.47-.1-14.65-.1-18.64-8.57.1-16.54.1-20.33.1-1.99,0-3.59.2-4.38-2.09-.4-1.1,0-1.99,1.3-1.89,12.76,1,38.77.8,42.95.8,1.79,0,2.69-2.59,4.68-2.59,2.19,0,5.68,2.59,5.68,4.29,0,.8-.5,1.3-2.09,1.3-4.29,0-12.26,0-20.73.1-.8.2-1.69.8-1.69,1.89v16.74c5.88.1,10.46,0,11.76,0,1.69,0,2.69-2.49,4.48-2.49,2.19,0,5.58,2.49,5.58,4.09,0,.8-.5,1.39-2.09,1.39h-19.73c0,8.07.1,16.14.1,19.43,0,1.4-.3,2.49-.9,3.29,8.27,0,15.25-.1,16.64-.1,1.79,0,2.69-2.69,4.68-2.69,2.19,0,5.68,2.59,5.68,4.29Zm-8.67-13.95c2.29,3.89.1,7.17-1.2,7.27-3.79.2.3-4.08-9.27-12.06-.8-.7-.4-1.99,1-1.5,3.49,1.2,7.77,3.29,9.47,6.28Z"/>
    </g>
    <g>
      <path class="cls-2" d="m380.29,200.06c-2.16.58-.7-3.91-6.18-8.4,0,11.67,0,24.86.06,26.9.06,2.86-.88,3.27-2.04,3.27-.82,0-1.17-.41-1.11-1.58.06-1.11.17-15.11.12-28.18-2.22,6.59-5.95,13.83-10.56,18.44-.47.47-1.05.06-.64-.64,4.49-7.76,8.11-16.98,10.15-26.08-3.44.06-6.42.06-7.29.12-1.05.06-1.98-.06-2.39-1.34-.18-.58,0-1.11.7-.99,2.63.47,6.59.58,9.98.64,0-5.95-.12-10.74-.23-12.54-.06-.76.29-.99.93-.99,1.17,0,3.91,1.05,3.91,2.16,0,1.05-1.63.99-1.63,1.98v9.39c1.87,0,3.27-.06,3.73-.06.99-.06,1.46-1.28,2.51-1.28,1.17,0,2.92,1.34,2.92,2.22,0,.41-.35.7-1.17.7h-7.99v6.77c2.22.88,4.73,2.22,6.01,4.03,1.75,2.45,1.34,5.19.23,5.49Zm31.63,11.32c2.51,4.14,1.87,8.34.58,8.69-2.28.58-1.34-2.1-4.14-7.7-7.18,2.28-16.05,4.43-23.75,5.43-.53.06-.41,1.17-1.28,1.4-.93.23-2.22-2.45-2.45-3.68-.06-.53.23-.76.76-.76,1.81-.17,3.79-.35,5.89-.64,2.98-6.3,6.3-15.46,8.05-23.69.06-.35.35-.58.93-.53,2.04.23,4.26,1.81,3.91,2.68-.35.93-1.75.7-1.98,1.58-1.34,4.96-4.96,13.71-9.22,19.78,6.07-.76,12.78-1.75,18.56-2.8-1.34-2.39-3.38-5.31-6.48-8.58-.35-.41-.12-1.23.7-.7,4.2,2.68,7.82,6.13,9.92,9.51Zm-30.28-16.63c3.85-6.01,6.83-11.9,8.99-18.44.23-.7.7-.82,1.23-.7,1.46.35,3.27,1.52,3.09,2.33-.18.76-1.52.35-1.81,1.17-2.04,5.78-5.19,10.97-10.79,16.16-.47.41-1.05-.06-.7-.53Zm35.24-1.46c-2.92-.23-2.16,2.33-3.5,1.52-7.18-4.32-9.86-13.89-10.62-21.71-2.68.06-6.77.12-8.23.17-1.05.06-1.98,0-2.33-1.22-.17-.58,0-.93.7-.82,1.81.29,7.24.29,7.94.23.93-.06,1.34-1.22,2.39-1.22,1.17,0,2.74,1.34,2.74,2.22,0,.99-1.58.29-1.4,2.16.64,5.95,4.9,13.71,12.66,17.74.47.23.29.99-.35.93Z"/>
      <path class="cls-2" d="m379.01,251.17l.12,33.14c0,3.09-1.17,3.15-2.28,3.15-.88,0-1.17-.35-1.17-1.58,0-3.21.12-32.27,0-36.41h-4.61c-.35,0-.64-.12-.93-.23-2.28,4.55-5.02,9.04-8.4,13.48-.53.7-1.34.12-.99-.52,6.42-11.38,10.79-25.56,11.14-27.37.12-.58.53-.82.99-.82,1.4.06,4.49,1.46,4.14,2.45-.41,1.11-1.81.53-2.1,1.34-1.17,3.33-2.51,6.59-4.03,9.8,3.62.17,11.44.12,13.3.12.99,0,1.46-1.4,2.63-1.4s3.09,1.46,3.09,2.39c0,.41-.29.7-1.11.7h-8.46c-.76.18-1.34.93-1.34,1.75Zm38.16-2.1c0,.47-.29.76-1.17.76h-8.64c-.82.29-1.11,1.11-1.11,1.87l.06,28.88c0,3.85-2.39,6.18-5.72,6.18-2.22,0-.99-2.1-5.54-3.38-.7-.23-.58-1.23.23-1.11.76.12,4.08.47,4.73.47,1.98,0,2.86-.58,2.86-2.39.06-7.41.06-23.81-.06-30.46h-6.71c-.52,0-1.05-.12-1.4-.29-2.33,4.73-5.25,9.34-9.28,13.95-.47.58-1.23.06-.88-.53,7.99-14.06,11.26-26.08,11.61-28.01.12-.64.47-1.05.99-.99,1.69.18,4.38,1.63,4.08,2.63-.41,1.17-1.87.53-2.1,1.34-.99,3.33-2.22,6.65-3.68,9.98,4.14.23,14,.12,15.81.12.99,0,1.46-1.46,2.68-1.46s3.21,1.52,3.21,2.45Z"/>
    </g>
    <g>
      <path class="cls-2" d="m192.03,365.94c17.15-9.74,28.36-27.95,26.61-28.88-2.04-1.05-4.79-.29-9.34.35-3.73.52-19.43,5.08-23.92-.12-.17-.17-.17-1.05.53-.99,9.57.82,21.53-1.28,26.84-2.33,4.43-.88,7.53-.82,10.09.64,2.1,1.23.93,3.44-.99,6.36-4.73,7.06-11.61,19.25-29.35,25.96-.82.29-1.05-.64-.47-.99Zm-1.58-42.77c-.35-.23-.41-.88.29-.82,4.2.41,11.67-.99,22.29-2.28,3.33-.41,6.18,2.68,2.04,3.03-9.69.64-19.02,4.26-24.62.06Z"/>
      <path class="cls-2" d="m206.67,399.57c-.12,9.28.47,18.26.64,25.44.18,3.5-.64,5.54-2.98,5.78-1.58.17-1.28-1.81-2.39-3.33-.47-.64-2.8-1.98-4.49-2.68-.52-.23-.23-1.05.35-.88,1.23.35,4.03.93,4.96,1.11,1.23.23,1.34-.12,1.28-1.46-.23-8.87-.12-18.79-.12-23.51-7.24,1.28-17.8,3.21-21.53.23-.29-.29-.12-.99.35-.99,5.25-.12,14.47-.99,21.18-1.87.06-5.6.58-8.58-2.68-10.62-.64-.35-.41-1.05.18-1.11,3.33-.29,5.72,1.11,5.95,3.44.35,1.93-.29,4.55-.58,7.82l1.23-.17c6.65-1.05,11.67-1.63,13.71-1.46,4.26.41,5.6,4.38,1.4,3.56-3.44-.52-9.04-.41-15,.47-.47.06-.93.12-1.46.23Zm-12.72,8.75c-.23,5.13-2.1,9.1-5.13,12.14-1.81,1.69-4.67,3.79-5.89,2.63-1.17-1.28.93-3.09,2.16-4.2,2.86-2.57,6.48-6.54,7.7-10.79.23-.64,1.23-.41,1.17.23Zm19.72-23.63c2.16.17,4.96,1.34,6.24,2.57,1.69,1.69,1.52,3.73.41,4.08-1.75.52-.47-2.92-7.06-5.89-.47-.23-.35-.82.41-.76Zm12.02,32.21c.76,1.81,1.28,5.89-.18,6.54-1.17.53-1.98-1.63-2.68-3.62-1.34-3.97-4.55-7.82-9.39-12.08-.53-.47,0-1.05.53-.88,6.59,2.68,10.33,6.77,11.73,10.04Zm1.46-27.42c-1.87.52-.52-3.09-7.47-6.19-.47-.23-.29-.88.41-.82,2.33.23,5.31,1.34,6.71,2.74,1.75,1.63,1.52,3.91.35,4.26Z"/>
    </g>
  </g>
</svg>