<svg xmlns="http://www.w3.org/2000/svg" width="194.741" height="60.746" viewBox="0 0 194.741 60.746">
  <g id="レイヤー_1" data-name="レイヤー 1" transform="translate(-0.007 -0.01)">
    <g id="Group_138" data-name="Group 138" transform="translate(0.007 0.01)">
      <g id="Group_136" data-name="Group 136">
        <g id="Group_122" data-name="Group 122" transform="translate(0 1.422)">
          <path id="Path_164" data-name="Path 164" d="M72.626,18.929l-.383-.82h0l-2.9-1.476a7,7,0,0,1-3.253-3.39L65,10.837h0l-.82-.383c-3.417-1.668-10.088-2.625-12.822.137,0-3.964-3.964-8.311-8.092-9.76l-.847-.3v0l-2.679.984a6.936,6.936,0,0,1-4.812,0L32.165.53h0L31.318.8c-4.128,1.449-8.12,4.319-8.12,9.76-3.035-3.035-9.4-1.777-12.849-.137l-.82.383h0l-.765,2.078a7.045,7.045,0,0,1-3.909,4.1l-2.6,1.094h0l-.383.82A18.18,18.18,0,0,0,18.222,45.119h.765a2.255,2.255,0,0,0,2-1.34,17.782,17.782,0,0,1,32.369,0,2.3,2.3,0,0,0,2,1.34,18.246,18.246,0,0,0,17.2-26.163Z" transform="translate(-0.007 -0.53)" fill="#fff"/>
          <path id="Path_165" data-name="Path 165" d="M23.465,27.768a14.994,14.994,0,0,1-6.507-1.476l-.383-.191a.574.574,0,0,1-.328-.547.606.606,0,0,1,.355-.519l5.249-2.05L8.292,17.707a.571.571,0,0,1,.41-1.066l14.736,5.714L38.2,16.614a.571.571,0,1,1,.41,1.066L25.023,22.956l5.249,2.05a.525.525,0,0,1,.355.492.63.63,0,0,1-.3.547,15.006,15.006,0,0,1-6.889,1.695Zm-5.14-2.16a13.719,13.719,0,0,0,10.307,0l-5.167-2-5.167,2Z" transform="translate(13.724 27.292)" fill="#fff"/>
        </g>
        <g id="Group_135" data-name="Group 135" transform="translate(86.48)">
          <g id="Group_133" data-name="Group 133">
            <g id="Group_128" data-name="Group 128" transform="translate(38.137)">
              <g id="Group_126" data-name="Group 126">
                <g id="Group_123" data-name="Group 123" transform="translate(11.127 12.138)">
                  <path id="Path_166" data-name="Path 166" d="M53.132,11.339a13.78,13.78,0,0,1-3.472-.3,3.161,3.161,0,0,0,1.914,2.105,4.266,4.266,0,0,1,2.488-.656H57.78v8.557c0,1.5-.465,1.777-1.312,1.777a5.561,5.561,0,0,1-2.378-.547l-.219.355A4.226,4.226,0,0,0,56.03,24.6a3.9,3.9,0,0,1,1.5,1.176A3.442,3.442,0,0,0,59.5,22.329c0-.6,0-1.476-.027-2.488-.027-1.285-.082-3.007-.082-4.484V12.515h0V11.367h0V6.8h5.5s.246-.082.246-.219a.467.467,0,0,0-.137-.3c-.519-.6-1.176-1.258-1.531-1.586-.191-.164-.3-.246-.41-.246s-.219.137-.328.246l-.847.957H55.839a13.78,13.78,0,0,1-3.472-.3A3.161,3.161,0,0,0,54.28,7.457,4.266,4.266,0,0,1,56.768,6.8H57.78v4.566H53.132Z" transform="translate(-49.66 -4.45)" fill="#fff"/>
                  <path id="Path_167" data-name="Path 167" d="M61.624,8.687a1.947,1.947,0,0,0-.191-.3,17.652,17.652,0,0,0-1.586-1.64.8.8,0,0,0-.437-.246c-.109,0-.246.137-.328.219l-.957,1.066H53.75V8.933H61.3a.276.276,0,0,0,.3-.246Z" transform="translate(-42.569 -0.896)" fill="#fff"/>
                </g>
                <g id="Group_125" data-name="Group 125">
                  <path id="Path_168" data-name="Path 168" d="M55.186,21.814h-.027a4.719,4.719,0,0,1-1.5-3.445V9.649c.6-.547,1.2-1.121,1.2-1.422,0-.137-.109-.246-.246-.383A18.669,18.669,0,0,0,53.135,6.7a.9.9,0,0,0-.492-.246c-.109,0-.164.082-.273.219l-.765.9h-2.57a12.74,12.74,0,0,1-3.335-.3A2.985,2.985,0,0,0,46.41,8.5a1.655,1.655,0,0,0,1.777.437,5.468,5.468,0,0,1,1.75-.246,1.96,1.96,0,0,1,1.968,1.968v8.284a2.011,2.011,0,0,1-1.094,1.8,9.472,9.472,0,0,0-1.695,1.2,10.3,10.3,0,0,1-2.652,1.695,2.139,2.139,0,0,1-.875.164,13.56,13.56,0,0,0,1.832,2.625.821.821,0,0,0,.492.3c.246,0,.465-.519.547-1.121a.813.813,0,0,1,.137-.41c.847-1.367,2.9-3.663,4.019-3.663a3.722,3.722,0,0,1,2.324,1.285c3.855,3.472,9.951,4.155,14.845,4.155a40.661,40.661,0,0,0,7-1.367,1.192,1.192,0,0,0,.765-.738,1.758,1.758,0,0,1,.847-.82,3.157,3.157,0,0,0,1.722-2.187,44.031,44.031,0,0,1-12.412,2.816c-4.511,0-10.115-.711-12.466-2.871Z" transform="translate(-45.59 11.156)" fill="#fff"/>
                  <g id="Group_124" data-name="Group 124" transform="translate(8.83)">
                    <path id="Path_169" data-name="Path 169" d="M61.068,3.181c.492-.082,1.066-.273,1.066-.656a.591.591,0,0,0-.3-.383A35.254,35.254,0,0,0,58.689.01,7.1,7.1,0,0,1,58.306,2.5,30.136,30.136,0,0,1,48.82,15.511l.191.383A27.862,27.862,0,0,0,60.439,3.537h0l.137-.328h.492V3.181Z" transform="translate(-48.82 -0.01)" fill="#fff"/>
                    <path id="Path_170" data-name="Path 170" d="M53.835,1.56,53.48,2.3h0a31.047,31.047,0,0,0,5.741,7.026c1.886,1.695,2.98,2.406,3.5,2.406.191,0,.41-.219.629-.437a1.117,1.117,0,0,1,.711-.437,2.165,2.165,0,0,0,2.078-1.039,20.932,20.932,0,0,1-12.3-8.256Z" transform="translate(-40.74 2.677)" fill="#fff"/>
                  </g>
                </g>
                <path id="Path_171" data-name="Path 171" d="M50.839,8.861c.519,0,1.23-.793,1.23-1.777,0-2.761-2.3-4.894-5-6.124L46.93,1.4a13.239,13.239,0,0,1,2.707,5.686c.219,1.039.629,1.777,1.23,1.777Z" transform="translate(-43.267 1.637)" fill="#fff"/>
                <path id="Path_172" data-name="Path 172" d="M54.03,8.86a14.812,14.812,0,0,1,3.827,5.714c.437,1.148.82,1.695,1.422,1.695a1.353,1.353,0,0,0,1.039-1.449c0-2.406-2.925-4.976-6.1-6.37l-.191.383Z" transform="translate(-30.956 14.624)" fill="#fff"/>
                <path id="Path_173" data-name="Path 173" d="M49.449,17.062A15.792,15.792,0,0,0,54.67,11.54a.705.705,0,0,1,.6-.383c.547-.027,1.176-.191,1.176-.6a.5.5,0,0,0-.273-.437c-.847-.711-1.586-1.258-2.57-1.968-.137,2.652-1.886,6.014-4.374,8.557l.219.355Z" transform="translate(-39.279 14.104)" fill="#fff"/>
              </g>
              <g id="Group_127" data-name="Group 127" transform="translate(37.755 2.515)">
                <path id="Path_174" data-name="Path 174" d="M74.013,9.43c-.137,0-.219.082-.355.246l-1.066,1.34H66.03v1.176h10.5a.31.31,0,0,0,.328-.3.4.4,0,0,0-.191-.355c-.765-.683-1.5-1.285-2.187-1.859C74.232,9.457,74.122,9.43,74.013,9.43Z" transform="translate(-47.904 13.808)" fill="#fff"/>
                <path id="Path_175" data-name="Path 175" d="M91.578,34.638c-.875-.765-1.914-1.586-2.679-2.16-.3-.219-.41-.3-.547-.3-.109,0-.191.055-.355.246l-1.312,1.668H76.979a1.319,1.319,0,0,1-.82-1.2V26.956h0V25.781h0V18.755h7.436v-.109c0,.355.191.984.738.984A1.588,1.588,0,0,0,85.7,18.071c0-.984-.027-2.789-.082-5.44-.027-2.05-.109-6.1-.109-8.01V4.129c.383-.437.738-.847.738-1.094a.555.555,0,0,0-.3-.465c-.465-.437-.793-.683-1.34-1.121a.994.994,0,0,0-.519-.246c-.109,0-.246.137-.437.355L82.8,2.625H67.492a3.921,3.921,0,0,0-.355-.355C66.481,1.832,65.907,1.5,64.9.93c.137,1.094.219,2.351.246,3.609v2.98c0,1.777,0,3.909-.027,5.768C65.086,14.709,65,18.126,65,18.618c0,.6.219.957.738.957.465,0,1.394-.355,1.394-.82h7.135v7H66.289a13.78,13.78,0,0,1-3.472-.3,3.306,3.306,0,0,0,1.914,2.078,4.2,4.2,0,0,1,2.488-.6h7.053v5.987a1.257,1.257,0,0,1-.793,1.176H62.872a13.78,13.78,0,0,1-3.472-.3A3.293,3.293,0,0,0,61.314,35.9,4.266,4.266,0,0,1,63.8,35.24H91.441a.329.329,0,0,0,.328-.3.4.4,0,0,0-.191-.355ZM82.31,10.17V9.842H76.924a.793.793,0,0,1-.793-.793V3.691h6.151a1.283,1.283,0,0,1,1.285,1.285V9.842h0v1.176h0v5.3a1.283,1.283,0,0,1-1.285,1.285h-6.1l-.027-5.8a.793.793,0,0,1,.793-.793H82.31v-.164h0V10.17h0ZM74.272,3.691V9.05a.793.793,0,0,1-.793.793H67.11V4.976a1.283,1.283,0,0,1,1.285-1.285h5.85Zm-7.135,7.327h6.37a.793.793,0,0,1,.793.793v5.8h-5.85a1.283,1.283,0,0,1-1.285-1.285v-5.3Z" transform="translate(-59.4 -0.93)" fill="#fff"/>
              </g>
            </g>
            <g id="Group_132" data-name="Group 132" transform="translate(0 1.285)">
              <path id="Path_176" data-name="Path 176" d="M46.673,2.642l-.383.328c-.164.137-.328.027-.3-.164l.055-.519c.082-.711-.465-1.094-1.066-.711A8.594,8.594,0,0,0,42.3,4.693a7.947,7.947,0,0,0-.41,5.44.36.36,0,0,0,.519.273,8.037,8.037,0,0,0,4.32-3.335,8.765,8.765,0,0,0,1.148-3.964c0-.683-.629-.93-1.176-.492Z" transform="translate(-14.386 1.158)" fill="#fff"/>
              <g id="Group_129" data-name="Group 129" transform="translate(14.243 0.875)">
                <path id="Path_177" data-name="Path 177" d="M42.325,9.357c.629,0,1.176-1.066,1.176-2.105C43.5,5.147,41.232,2.3,39.291.8l-.3.3a21.9,21.9,0,0,1,2.187,5.987c.3,1.722.574,2.269,1.121,2.269Z" transform="translate(-33.14 -0.8)" fill="#fff"/>
                <path id="Path_178" data-name="Path 178" d="M40.131,9.639c.765,0,1.121-1.066,1.121-2.324,0-1.941-1.859-4.183-4.1-5.905l-.3.246a14.627,14.627,0,0,1,2.132,6.069c.082.547.355,1.886,1.121,1.886Z" transform="translate(-36.85 0.258)" fill="#fff"/>
              </g>
              <g id="Group_130" data-name="Group 130" transform="translate(10.853 12.794)">
                <path id="Path_179" data-name="Path 179" d="M41.876,11.517,40.7,13.048a39.884,39.884,0,0,1,4.484,4.1c.765.847,1.312,1.5,1.914,1.5.519,0,.847-.6.847-1.176,0-1.914-2.57-4.073-6.042-5.987Z" transform="translate(-26.785 5.815)" fill="#fff"/>
                <path id="Path_180" data-name="Path 180" d="M48.3,23.094c-3.007,3.663-7.053,5.686-12.33,6.151l-.082-.519a17.629,17.629,0,0,0,10.8-6.753,43.58,43.58,0,0,0-4.429-2.46,9.032,9.032,0,0,1-.41.957,2.239,2.239,0,0,1-1.75,1.121c-.437,0-.683-.355-.683-.82a1.348,1.348,0,0,1,.137-.6c.738-1.422,1.8-3.472,2.625-5.468.246-.547.574-1.367.875-2.242H40.012a4.2,4.2,0,0,0-2.488.6,3.234,3.234,0,0,1-1.914-2.078,13.78,13.78,0,0,0,3.472.3h4.374A36.15,36.15,0,0,0,44.632,7.7a8.092,8.092,0,0,0,.191-1.586c0-.355,0-.6-.027-.957,1.066.519,1.722.847,2.625,1.367.3.164.41.3.41.519,0,.355-.629.738-1.094.847-.328.957-.765,2.105-1.23,3.363h0l-.574,1.394c-.9,2.269-1.886,4.538-2.57,6.288,1.64.547,3.335,1.258,4.948,1.968a20.7,20.7,0,0,0,2.515-5.194,15.836,15.836,0,0,0,.683-3.226H46.682l.465-1.23h7.791L56,9.917c.137-.164.219-.246.355-.246.109,0,.219.055.465.246.683.547,1.422,1.148,2.187,1.859.137.137.191.219.191.355a.31.31,0,0,1-.328.3H51.166c.738.519,1.586,1.121,2.078,1.558.246.219.41.355.41.519,0,.355-.656.6-1.2.738a30.492,30.492,0,0,1-1.2,3.035A25.325,25.325,0,0,1,48.3,23.067h0Z" transform="translate(-35.61 -5.16)" fill="#fff"/>
              </g>
              <g id="Group_131" data-name="Group 131">
                <path id="Path_181" data-name="Path 181" d="M34.86,5.32V6.6A6.882,6.882,0,0,1,35.981,8.71c.246.765.547,1.394,1.121,1.394.355,0,.793-.437.793-1.312,0-1.34-1.449-2.57-3.035-3.472Z" transform="translate(-26.057 7.912)" fill="#fff"/>
                <path id="Path_182" data-name="Path 182" d="M39.678,14.122V20c0,1.914.027,8.065.082,9.268.027,1.176.109,5.276.109,5.96,0,.82-.6,2.078-1.285,2.078-.519,0-.82-.656-.82-1.394,0-.492.082-4.812.164-6.534.109-1.968.164-6.78.164-9.268V15.981a32.189,32.189,0,0,1-6.179,12.6l-.273-.246A53.346,53.346,0,0,0,37.572,10.6H36.561a3.941,3.941,0,0,0-2.351.6,3.157,3.157,0,0,1-1.8-2,13.752,13.752,0,0,0,3.308.273h2.406c-.027-2.078-.082-3.937-.137-5.44A14.121,14.121,0,0,0,37.49.48c1.394.437,1.832.6,2.871,1.012.3.109.465.273.465.492,0,.41-.355.656-.984,1.012-.082,1.886-.109,4.183-.137,6.452h1.558l.793-.9s.219-.246.3-.246a.707.707,0,0,1,.383.246,13.686,13.686,0,0,1,1.2,1.312c.164.191.246.273.246.437a.3.3,0,0,1-.3.246h-4.21v3.527Z" transform="translate(-31.64 -0.48)" fill="#fff"/>
              </g>
            </g>
          </g>
          <g id="Group_134" data-name="Group 134" transform="translate(2.716 45.05)">
            <path id="Path_183" data-name="Path 183" d="M34.084,18.88l-.574,1.367s.109-.3.328-.82A4.405,4.405,0,0,1,34.084,18.88Z" transform="translate(-31.114 -12.342)" fill="#fff"/>
            <path id="Path_184" data-name="Path 184" d="M34.291,25.846c-.191.547-.383,1.039-.492,1.449a.45.45,0,0,1-.492.328h-.519a.149.149,0,0,1-.137-.219c.793-1.722,1.586-3.445,2.351-5.167.765-1.75,1.558-3.527,2.351-5.331a.206.206,0,0,1,.191-.137h0a.518.518,0,0,1,.219.137q.369.861.738,1.8c.3.711.574,1.394.875,2.132l.9,2.132c.3.711.574,1.367.847,1.968s.492,1.148.711,1.613.383.847.519,1.094c-.137,0-.273-.027-.41-.027h-.82a.6.6,0,0,1-.547-.383c-.055-.137-.109-.273-.164-.437q-.205-.492-.41-1.066c-.137-.355-.3-.738-.465-1.121a10.183,10.183,0,0,1-.41-1.039h0c-.137-.41-.383-1.039-.547-1.449-.41-.957-.82-1.914-1.258-2.871a.182.182,0,0,0-.328,0l-1.531,3.554h0l-.3.711-.9,2.3Z" transform="translate(-32.634 -16)" fill="#fff"/>
            <path id="Path_185" data-name="Path 185" d="M36.752,19.4a.591.591,0,0,0-.574-.41H34.455a.684.684,0,0,0-.656.437l-.109.273h3.144l-.082-.273Z" transform="translate(-30.802 -12.151)" fill="#fff"/>
            <path id="Path_186" data-name="Path 186" d="M39.717,23.574v1.285c.219,0,.41-.027.6-.027a4.429,4.429,0,0,1,.6.027c0-.41-.027-.847-.055-1.285V19.829a10.106,10.106,0,0,1,.055-1.258c0-.109-.027-.191-.137-.191h-.875a.211.211,0,0,0-.219.191V21.5c0,.683,0,1.367.027,2.05Z" transform="translate(-20.399 -13.209)" fill="#fff"/>
            <path id="Path_187" data-name="Path 187" d="M44.149,26.663c0,.437,0,.847-.027,1.285a.187.187,0,0,0,.191.191h.793a.187.187,0,0,0,.191-.191c0-.519,0-1.039-.027-1.558v-4.1c0-.793,0-1.586.027-2.324,0-.765.027-1.449.055-2.078,0-.492.027-.9.055-1.2a.182.182,0,0,0-.219-.191h-.93a.211.211,0,0,0-.219.191v3.964h0c0,.383,0,.793.027,1.176V26.69Z" transform="translate(-12.857 -16.488)" fill="#fff"/>
            <path id="Path_188" data-name="Path 188" d="M47.643,19.869V19.24a5.308,5.308,0,0,1,.055-.656c0-.109-.082-.219-.191-.191h-.848a.211.211,0,0,0-.219.191c0,.6.055,1.121.055,1.586v3.2c0,.492,0,.9-.027,1.23a.187.187,0,0,0,.191.191h.848A.187.187,0,0,0,47.7,24.6c0-.219-.027-.465-.027-.683V19.842Z" transform="translate(-8.695 -13.194)" fill="#fff"/>
            <path id="Path_189" data-name="Path 189" d="M42.535,23.614s-.137-.137-.191-.055a3.2,3.2,0,0,1-.437.41,1.978,1.978,0,0,1-1.094.3,1.785,1.785,0,0,1-.793-.164,1.69,1.69,0,0,1-.547-.41,1.468,1.468,0,0,1-.328-.656,4.478,4.478,0,0,1-.137-1.23c0-.765,0-1.5.027-2.242a5.15,5.15,0,0,1,.109-.984.182.182,0,0,0-.219-.191c-.164,0-.3.027-.41.027a2.5,2.5,0,0,1-.437-.027.211.211,0,0,0-.219.191v3.909a2.4,2.4,0,0,0,.683,1.859,2.666,2.666,0,0,0,1.914.656,2.786,2.786,0,0,0,1.394-.355,2.28,2.28,0,0,0,.328-.219,1.025,1.025,0,0,0,.383-.82h0Z" transform="translate(-23.572 -13.194)" fill="#fff"/>
            <path id="Path_190" data-name="Path 190" d="M50.684,20.758a3.005,3.005,0,0,1,.383-.875,1.531,1.531,0,0,1,.246-.328,1.33,1.33,0,0,1,.383-.3,1.878,1.878,0,0,1,.984-.246,1.554,1.554,0,0,1,.984.246,1.884,1.884,0,0,1,.574.656,2.342,2.342,0,0,1,.273.875,4.079,4.079,0,0,1,.055.574.281.281,0,0,1-.273.3H51.477a.572.572,0,0,0-.574.547H55.55a.349.349,0,0,0,.328-.3v-.3a3.627,3.627,0,0,0-.191-1.23,2.926,2.926,0,0,0-.6-1.012,2.652,2.652,0,0,0-1.012-.683,3.592,3.592,0,0,0-1.422-.3,3.277,3.277,0,0,0-2.6,1.121,3.665,3.665,0,0,0-.656,3.062,4.111,4.111,0,0,0,.41,1.012,2.751,2.751,0,0,0,.328.383,3.181,3.181,0,0,0,1.2.738,4.5,4.5,0,0,0,1.531.246,3.789,3.789,0,0,0,1.449-.273c.109-.055.219-.082.328-.137a1.652,1.652,0,0,0,.93-1.258l-.082-.055a3.521,3.521,0,0,1-.465.437,6.542,6.542,0,0,1-.574.355,5.974,5.974,0,0,1-.629.246,2.65,2.65,0,0,1-.629.082,2.964,2.964,0,0,1-1.148-.219,2.914,2.914,0,0,1-.848-.6,2.7,2.7,0,0,1-.519-.9,3.066,3.066,0,0,1,.027-1.914Z" transform="translate(-3.726 -13.209)" fill="#fff"/>
            <path id="Path_191" data-name="Path 191" d="M42.051,20.9a3.939,3.939,0,0,0,.137,2.023A2.924,2.924,0,0,0,42.9,24.1a2.693,2.693,0,0,0,1.012.656,3.375,3.375,0,0,0,1.148.191,2.873,2.873,0,0,0,1.777-.574h0a1.339,1.339,0,0,0,.492-1.012V23.03a2.4,2.4,0,0,1-.137.273,2.507,2.507,0,0,1-.711.793,1.794,1.794,0,0,1-1.039.3,2.664,2.664,0,0,1-.765-.137,1.68,1.68,0,0,1-.683-.492,3.477,3.477,0,0,1-.492-.957,3.269,3.269,0,0,1-.191-1.531,2.671,2.671,0,0,1,.465-1.258,2.209,2.209,0,0,1,.765-.738,1.731,1.731,0,0,1,.957-.246,2.225,2.225,0,0,1,1.258.355,1.865,1.865,0,0,1,.437.437,1.516,1.516,0,0,0,.164.219h0a1.752,1.752,0,0,0-.273-.875,1.421,1.421,0,0,0-.6-.519,2.414,2.414,0,0,0-1.2-.246,3.031,3.031,0,0,0-1.2.246,3.094,3.094,0,0,0-1.066.683,3.541,3.541,0,0,0-.93,1.64Z" transform="translate(-16.445 -13.157)" fill="#fff"/>
            <path id="Path_192" data-name="Path 192" d="M56.116,23.455l-.629,1.422h0A29.734,29.734,0,0,1,53.6,28.595a.173.173,0,0,0,.164.273h.164a1,1,0,0,1,.383.055.183.183,0,0,0,.191-.109q.123-.369.328-.9c.164-.437.383-.93.6-1.476s.465-1.121.738-1.722.547-1.2.82-1.832.547-1.2.82-1.8c.273-.574.519-1.121.738-1.586a3.851,3.851,0,0,0,.191-.41c.082-.164.137-.3.191-.41a.176.176,0,0,0-.191-.246h-.164a.869.869,0,0,1-.355-.055c-.082,0-.191.027-.191.109a12.692,12.692,0,0,1-.656,2.05l-1.258,2.925Z" transform="translate(3.664 -13.226)" fill="#fff"/>
            <path id="Path_193" data-name="Path 193" d="M53.337,18.656s0-.273.137-.273h.793a.478.478,0,0,1,.492.3,18.145,18.145,0,0,0,.656,1.75c.273.656.547,1.34.82,2.023a.98.98,0,0,1,0,.683l-.492,1.094s-.109-.273-.164-.437Q55.292,23.139,55,22.4c-.219-.492-.41-.984-.629-1.5a6.256,6.256,0,0,0-.273-.629,17.622,17.622,0,0,0-.793-1.613h0Z" transform="translate(3.216 -13.211)" fill="#fff"/>
            <path id="Path_194" data-name="Path 194" d="M49.5,18.954h-.164a.056.056,0,0,1-.055-.082l.082-.137a.208.208,0,0,0-.164-.355,2.461,2.461,0,0,0-1.176.383,2.309,2.309,0,0,0-.93,1.367c0,.082,0,.137.082.164a2.589,2.589,0,0,0,1.64-.164,2.721,2.721,0,0,0,.9-.847c.109-.191,0-.355-.246-.328Z" transform="translate(-7.568 -13.209)" fill="#fff"/>
          </g>
        </g>
      </g>
      <g id="Group_137" data-name="Group 137" transform="translate(22.535 24.659)">
        <path id="Path_195" data-name="Path 195" d="M12.272,11.39a1.025,1.025,0,0,0-.711-1.75,1.012,1.012,0,1,0,0,2.023h0l2.324,5.577a.389.389,0,0,0,.355.246.2.2,0,0,0,.137-.027.384.384,0,0,0,.219-.492L12.272,11.39Z" transform="translate(-4.262 -7.972)" fill="#070604"/>
        <path id="Path_196" data-name="Path 196" d="M14.262,9.03a1.009,1.009,0,0,0-1.012,1.012,1.061,1.061,0,0,0,.629.957v6.233a.383.383,0,0,0,.765,0V11a1.024,1.024,0,0,0-.383-1.968Z" transform="translate(0.419 -9.03)" fill="#070604"/>
        <path id="Path_197" data-name="Path 197" d="M9.262,13.16a.922.922,0,0,0,.465-.137l4.292,3.554a.826.826,0,0,0,.246.082.439.439,0,0,0,.3-.137.39.39,0,0,0-.055-.547l-4.292-3.554a1.485,1.485,0,0,0,.055-.3A1.009,1.009,0,0,0,9.262,11.11a1.012,1.012,0,0,0,0,2.023Z" transform="translate(-8.25 -5.424)" fill="#070604"/>
        <path id="Path_198" data-name="Path 198" d="M22.029,11.11a1.009,1.009,0,0,0-1.012,1.012,1.163,1.163,0,0,0,.055.3L16.78,15.976a.39.39,0,0,0-.055.547.4.4,0,0,0,.547.055l4.292-3.554a.922.922,0,0,0,.465.137,1.009,1.009,0,0,0,1.012-1.012,1.027,1.027,0,0,0-1.012-1.012Z" transform="translate(6.294 -5.424)" fill="#070604"/>
        <path id="Path_199" data-name="Path 199" d="M18.03,9.625a1.009,1.009,0,0,0-.656,1.777l-2.214,5.6a.362.362,0,0,0,.219.492h.137a.353.353,0,0,0,.355-.246l2.242-5.659a1.012,1.012,0,0,0-.055-2.023Z" transform="translate(3.677 -8.094)" fill="#070604"/>
      </g>
    </g>
  </g>
</svg>
