<?xml version="1.0" encoding="UTF-8"?>
<svg id="Layer_2" data-name="Layer 2" xmlns="http://www.w3.org/2000/svg" viewBox="0 0 750.6 114.21">
  <defs>
    <style>
      .cls-1 {
        fill: #c1c1c1;
      }

      .cls-1, .cls-2, .cls-3 {
        stroke-width: 0px;
      }

      .cls-3 {
        fill: #090304;
      }
    </style>
  </defs>
  <g id="Layer_2-2" data-name="Layer 2">
    <g>
      <g>
        <polygon class="cls-3" points="34.1 96.91 17.3 96.91 17.3 80.1 19.3 80.1 19.3 94.91 34.1 94.91 34.1 96.91"/>
        <polygon class="cls-3" points="96.91 96.91 80.11 96.91 80.11 94.91 94.91 94.91 94.91 80.1 96.91 80.1 96.91 96.91"/>
        <polygon class="cls-3" points="19.3 34.1 17.3 34.1 17.3 17.3 34.1 17.3 34.1 19.3 19.3 19.3 19.3 34.1"/>
        <polygon class="cls-3" points="96.91 34.1 94.91 34.1 94.91 19.3 80.11 19.3 80.11 17.3 96.91 17.3 96.91 34.1"/>
      </g>
      <path class="cls-1" d="m114.21,57.1l-57.1,57.1L0,57.1,57.1,0l57.1,57.1Z"/>
      <g>
        <path class="cls-2" d="m167.26,65.96c-4.03,1.09-1.31-7.3-11.55-15.7,0,21.8,0,46.43.11,50.25.11,5.34-1.64,6.1-3.81,6.1-1.53,0-2.18-.76-2.07-2.94.11-2.07.33-28.23.22-52.64-4.14,12.32-11.12,25.83-19.73,34.44-.87.87-1.96.11-1.2-1.2,8.39-14.5,15.15-31.72,18.96-48.72-6.43.11-11.99.11-13.62.22-1.96.11-3.71-.11-4.47-2.51-.33-1.09,0-2.07,1.31-1.85,4.9.87,12.32,1.09,18.64,1.2,0-11.12-.22-20.05-.44-23.43-.11-1.42.54-1.85,1.74-1.85,2.18,0,7.3,1.96,7.3,4.03,0,1.96-3.05,1.85-3.05,3.71v17.55c3.49,0,6.1-.11,6.98-.11,1.85-.11,2.73-2.4,4.69-2.4,2.18,0,5.45,2.51,5.45,4.14,0,.76-.65,1.31-2.18,1.31h-14.93v12.64c4.14,1.63,8.83,4.14,11.23,7.52,3.27,4.58,2.51,9.7.44,10.25Zm59.07,21.14c4.69,7.74,3.49,15.59,1.09,16.24-4.25,1.09-2.51-3.92-7.74-14.39-13.41,4.25-29.97,8.28-44.36,10.14-.98.11-.76,2.18-2.4,2.62-1.74.44-4.14-4.58-4.58-6.87-.11-.98.44-1.42,1.42-1.42,3.38-.33,7.08-.65,11.01-1.2,5.56-11.77,11.77-28.88,15.04-44.25.11-.65.65-1.09,1.74-.98,3.81.44,7.96,3.38,7.3,5.01-.65,1.74-3.27,1.31-3.71,2.94-2.51,9.26-9.26,25.61-17.22,36.95,11.34-1.42,23.87-3.27,34.66-5.23-2.51-4.47-6.32-9.92-12.1-16.02-.65-.76-.22-2.29,1.31-1.31,7.85,5.01,14.6,11.44,18.53,17.77Zm-56.57-31.06c7.19-11.23,12.75-22.24,16.78-34.44.44-1.31,1.31-1.53,2.29-1.31,2.72.65,6.1,2.83,5.78,4.36-.33,1.42-2.83.65-3.38,2.18-3.81,10.79-9.7,20.49-20.16,30.19-.87.76-1.96-.11-1.31-.98Zm65.83-2.73c-5.45-.44-4.03,4.36-6.54,2.83-13.41-8.07-18.42-25.94-19.84-40.54-5.01.11-12.64.22-15.37.33-1.96.11-3.71,0-4.36-2.29-.33-1.09,0-1.74,1.31-1.53,3.38.54,13.52.54,14.82.44,1.74-.11,2.51-2.29,4.47-2.29,2.18,0,5.12,2.51,5.12,4.14,0,1.85-2.94.54-2.62,4.03,1.2,11.12,9.16,25.61,23.65,33.13.87.44.54,1.85-.65,1.74Z"/>
        <path class="cls-2" d="m273.87,39.37l.22,61.91c0,5.78-2.18,5.88-4.25,5.88-1.64,0-2.18-.65-2.18-2.94,0-6,.22-60.27,0-68.01h-8.61c-.65,0-1.2-.22-1.74-.44-4.25,8.5-9.37,16.89-15.69,25.18-.98,1.31-2.51.22-1.85-.98,11.99-21.25,20.16-47.74,20.82-51.12.22-1.09.98-1.53,1.85-1.53,2.62.11,8.39,2.73,7.74,4.58-.76,2.07-3.38.98-3.92,2.51-2.18,6.21-4.69,12.32-7.52,18.31,6.76.33,21.36.22,24.85.22,1.85,0,2.73-2.62,4.9-2.62s5.78,2.72,5.78,4.47c0,.76-.54,1.31-2.07,1.31h-15.8c-1.42.33-2.51,1.74-2.51,3.27Zm71.28-3.92c0,.87-.54,1.42-2.18,1.42h-16.13c-1.53.54-2.07,2.07-2.07,3.49l.11,53.95c0,7.19-4.47,11.55-10.68,11.55-4.14,0-1.85-3.92-10.35-6.32-1.31-.44-1.09-2.29.44-2.07,1.42.22,7.63.87,8.83.87,3.71,0,5.34-1.09,5.34-4.47.11-13.84.11-44.47-.11-56.89h-12.53c-.98,0-1.96-.22-2.62-.54-4.36,8.83-9.81,17.44-17.33,26.05-.87,1.09-2.29.11-1.64-.98,14.93-26.27,21.04-48.72,21.69-52.32.22-1.2.87-1.96,1.85-1.85,3.16.33,8.17,3.05,7.63,4.91-.76,2.18-3.49.98-3.92,2.51-1.85,6.21-4.14,12.42-6.87,18.64,7.74.44,26.16.22,29.54.22,1.85,0,2.72-2.72,5.01-2.72s5.99,2.83,5.99,4.58Z"/>
        <path class="cls-2" d="m386.68,15.71c0,1.42-2.83,1.42-3.49,3.38-2.4,7.52-7.08,17.44-12.86,26.16,9.16,7.85,14.82,18.75,14.93,26.27.22,12.21-5.34,17.11-12.75,17.77-4.36.33-2.07-3.49-8.94-5.89-.98-.33-.76-2.07.54-1.85.87.22,5.12.87,7.85.87,5.01.11,7.63-3.27,7.19-11.01-.33-7.19-2.07-14.17-10.68-25.4-.22-.33-.22-.76,0-1.09,3.6-9.7,6.76-19.07,8.83-28.23-4.69,0-9.92.11-13.73.22-1.2.33-1.96,1.53-1.96,2.94-.11,5.89.33,78.58.33,82.07.11,5.23-1.96,5.34-4.03,5.34-1.42,0-1.96-.65-1.96-2.83,0-4.25.22-81.64-.11-91.34,0-1.31.87-1.85,2.07-1.74,1.63.11,3.27.98,4.58,1.96,5.89.65,10.57.44,13.19.22,1.96-.11,2.83-2.4,5.01-2.4,2.51,0,5.99,2.72,5.99,4.58Zm66.92,1.53c0,.98-.65,1.42-2.51,1.42h-6.43c-1.53.11-2.18,1.42-2.18,2.94-.22,7.3.11,63,.11,73.35,0,6.1-3.05,9.7-8.94,10.68-3.05.54-2.29-3.92-11.12-5.89-.98-.22-.98-2.18.33-2.07,2.18.22,7.96.44,9.16.44,2.73,0,4.36-.98,4.36-3.71.11-13.73.22-62.89-.11-75.75-16.68.11-36.19.33-41.74.33-2.29,0-4.14.11-5.12-2.62-.44-1.31,0-1.96,1.53-1.74,11.66,1.31,43.82.76,50.57.76,2.07,0,3.16-2.83,5.45-2.83,2.62,0,6.65,2.72,6.65,4.69Zm-34.55,61.69c-1.42,0-1.96-.65-1.96-2.62,0-1.09.11-2.62.11-4.36-4.14,0-11.23.11-13.52.11-.87,0-1.96-.44-2.83-.98,0,3.49.11,6.32.11,7.52.22,5.45-1.96,5.56-3.92,5.56-1.53,0-2.07-.65-2.07-2.72.22-6.87.22-38.47-.11-45.78,0-1.31.76-1.74,1.85-1.63,1.85.11,3.81,1.2,5.23,2.4,4.25.33,10.35.22,12.43,0,1.96-.11,2.62-2.51,4.69-2.51,2.4,0,6.21,2.4,6.21,4.36,0,1.42-2.51,1.63-2.51,3.38,0,5.34.11,26.16.33,32.04.11,5.34-2.07,5.23-4.03,5.23Zm-1.85-10.14c0-9.37,0-23.43-.11-29.32-5.45,0-11.55,0-14.28.11-1.09.33-1.96,1.53-1.96,2.94-.11,3.71-.11,16.79,0,26.27,4.47.22,12.53.11,16.35,0Z"/>
        <path class="cls-2" d="m555.3,14.41c0,1.63-2.51,1.63-2.51,3.38-.22,9.7.22,75.75.44,83.6.11,5.67-2.4,5.56-4.36,5.56-1.63,0-2.18-.65-2.18-2.83v-3.92c-13.19,0-63.43.11-71.94.11-.87,0-1.96-.54-2.72-1.2v2.29c.11,5.67-2.29,5.78-4.36,5.78-1.53,0-2.07-.65-2.07-2.83.22-12.43.22-81.09-.11-92.64,0-1.31.76-1.85,1.96-1.74,2.4.11,4.47,1.09,5.89,2.18,13.41.54,65.61.44,70.3.44,2.07,0,2.94-2.83,5.12-2.83,2.51,0,6.54,2.72,6.54,4.69Zm-8.5,81.96c.11-20.38.11-65.94-.11-80.33l-72.81.11c-1.09.33-2.07,1.2-2.07,2.72,0,6.76.11,59.18.22,77.17,12.86.54,61.69.33,74.77.33Zm-6.1-13.95c0,.87-.65,1.53-2.29,1.53-9.05,0-49.37.22-55.15.22-2.18,0-3.92,0-4.8-2.51-.44-1.2,0-2.18,1.42-1.96,4.8.76,15.8.98,26.27,1.09-.11-.33-.11-.65-.11-.98.11-4.36.22-14.06.22-23.76h-19.4c-1.96,0-3.71.11-4.58-2.29-.44-1.2,0-2.07,1.42-1.96,6.21.54,14.82.76,22.56.87-.11-8.17-.11-16.02-.11-20.38-9.37.11-18.09.11-22.23.11-2.18,0-3.92.22-4.8-2.29-.44-1.2,0-2.18,1.42-2.07,13.95,1.09,42.4.87,46.98.87,1.96,0,2.94-2.83,5.12-2.83,2.4,0,6.21,2.83,6.21,4.69,0,.87-.54,1.42-2.29,1.42-4.69,0-13.41,0-22.67.11-.87.22-1.85.87-1.85,2.07v18.31c6.43.11,11.44,0,12.86,0,1.85,0,2.94-2.72,4.9-2.72,2.4,0,6.1,2.72,6.1,4.47,0,.87-.54,1.53-2.29,1.53h-21.58c0,8.83.11,17.66.11,21.25,0,1.53-.33,2.72-.98,3.6,9.05,0,16.68-.11,18.2-.11,1.96,0,2.94-2.94,5.12-2.94,2.4,0,6.21,2.83,6.21,4.69Zm-9.48-15.26c2.51,4.25.11,7.85-1.31,7.96-4.14.22.33-4.47-10.14-13.19-.87-.76-.44-2.18,1.09-1.64,3.81,1.31,8.5,3.6,10.35,6.87Z"/>
      </g>
      <g>
        <path class="cls-2" d="m582.14,100.69c33.52-19.04,55.4-54.61,51.98-56.43-3.99-2.05-9.35-.57-18.24.68-7.3,1.03-37.96,9.92-46.74-.23-.34-.34-.34-2.05,1.03-1.94,18.7,1.6,42.07-2.51,52.44-4.56,8.66-1.71,14.71-1.6,19.72,1.25,4.1,2.39,1.82,6.73-1.94,12.43-9.23,13.79-22.69,37.62-57.34,50.73-1.6.57-2.05-1.25-.91-1.94Zm-3.08-83.56c-.68-.46-.8-1.71.57-1.6,8.21.8,22.8-1.94,43.55-4.45,6.5-.8,12.08,5.24,3.99,5.93-18.92,1.25-37.16,8.32-48.11.12Z"/>
        <path class="cls-2" d="m708.79,38.68c-.23,18.12.91,35.68,1.25,49.7.34,6.84-1.25,10.83-5.81,11.29-3.08.34-2.51-3.53-4.67-6.5-.91-1.25-5.47-3.88-8.78-5.24-1.03-.46-.46-2.05.68-1.71,2.39.68,7.87,1.82,9.69,2.17,2.39.46,2.62-.23,2.51-2.85-.46-17.33-.23-36.71-.23-45.94-14.14,2.51-34.77,6.27-42.07.46-.57-.57-.23-1.94.68-1.94,10.26-.23,28.27-1.94,41.38-3.65.11-10.94,1.14-16.76-5.24-20.75-1.25-.69-.8-2.05.34-2.17,6.5-.57,11.17,2.17,11.63,6.72.68,3.76-.57,8.89-1.14,15.28l2.39-.34c13-2.05,22.8-3.19,26.79-2.85,8.32.8,10.94,8.55,2.74,6.96-6.73-1.03-17.67-.8-29.3.91-.91.12-1.82.23-2.85.46Zm-24.85,17.1c-.46,10.03-4.1,17.78-10.03,23.71-3.53,3.31-9.12,7.41-11.51,5.13-2.28-2.51,1.82-6.04,4.22-8.21,5.59-5.02,12.65-12.77,15.05-21.09.46-1.26,2.39-.8,2.28.46Zm38.53-46.17c4.22.34,9.69,2.62,12.2,5.02,3.31,3.31,2.96,7.3.8,7.98-3.42,1.03-.91-5.7-13.79-11.51-.91-.46-.68-1.6.8-1.48Zm23.48,62.93c1.48,3.53,2.51,11.51-.34,12.77-2.28,1.03-3.88-3.19-5.24-7.07-2.62-7.75-8.89-15.28-18.35-23.6-1.03-.91,0-2.05,1.03-1.71,12.88,5.24,20.18,13.22,22.91,19.61Zm2.85-53.58c-3.65,1.03-1.03-6.04-14.59-12.08-.91-.46-.57-1.71.8-1.6,4.56.46,10.37,2.62,13.11,5.36,3.42,3.19,2.96,7.64.68,8.32Z"/>
      </g>
    </g>
  </g>
</svg>