<svg xmlns="http://www.w3.org/2000/svg" width="60.351" height="82.341" viewBox="0 0 60.351 82.341">
  <g id="Group_14" data-name="Group 14" transform="translate(-1247.851 -7839.571)">
    <path id="Path_2" data-name="Path 2" d="M1284.576,7874.263l-5.3-5.3v30.906h-28.99v-59.8h59.351v59.8h-20.888" transform="translate(-1.932)" fill="none" stroke="#000" stroke-width="1"/>
    <path id="Path_200" data-name="Path 200" d="M1.1,2.768V-8.416h1.12l.144,1.2H2.48a2.769,2.769,0,0,1,1.1-1.048A3.288,3.288,0,0,1,5.1-8.608,3.294,3.294,0,0,1,6.9-8.144,2.958,2.958,0,0,1,8.032-6.7a6.864,6.864,0,0,1,.4,2.552A6.316,6.316,0,0,1,8.024-1.7,3.006,3.006,0,0,1,6.88-.272,3.142,3.142,0,0,1,5.168.192,3.961,3.961,0,0,1,4.144.064,2.58,2.58,0,0,1,3.28-.344a2.772,2.772,0,0,1-.672-.712h-.1V2.768ZM4.72-1.04A2.37,2.37,0,0,0,6-1.352a1.842,1.842,0,0,0,.736-.976,5.091,5.091,0,0,0,.24-1.7v-.336A5.021,5.021,0,0,0,6.72-6.136a1.807,1.807,0,0,0-.744-.952,2.342,2.342,0,0,0-1.208-.288,2.237,2.237,0,0,0-1.288.344A1.956,1.956,0,0,0,2.744-6a5.3,5.3,0,0,0-.232,1.68v.24A5.39,5.39,0,0,0,2.68-2.616a2.383,2.383,0,0,0,.48.936,1.73,1.73,0,0,0,.712.5A2.484,2.484,0,0,0,4.72-1.04ZM12.288.192A3.943,3.943,0,0,1,11.36.08,2.818,2.818,0,0,1,10.5-.288,1.844,1.844,0,0,1,9.856-1a2.44,2.44,0,0,1-.24-1.144,2.324,2.324,0,0,1,.416-1.424,2.709,2.709,0,0,1,1.16-.872,6.554,6.554,0,0,1,1.768-.432,19.17,19.17,0,0,1,2.224-.12v-.96a1.845,1.845,0,0,0-.16-.8,1.093,1.093,0,0,0-.568-.52,2.907,2.907,0,0,0-1.16-.184,2.927,2.927,0,0,0-1.144.184,1.211,1.211,0,0,0-.592.472,1.247,1.247,0,0,0-.168.64v.24h-1.36a.814.814,0,0,1-.016-.16v-.192A1.972,1.972,0,0,1,10.44-7.56a2.57,2.57,0,0,1,1.192-.784,5.4,5.4,0,0,1,1.76-.264,4.512,4.512,0,0,1,1.768.3,2.3,2.3,0,0,1,1.072.864,2.432,2.432,0,0,1,.36,1.344v4.56a.528.528,0,0,0,.144.424.532.532,0,0,0,.352.12h.624v.928a3.6,3.6,0,0,1-.5.168,2.447,2.447,0,0,1-.624.072A1.289,1.289,0,0,1,15.9.008a1.1,1.1,0,0,1-.416-.464A2.141,2.141,0,0,1,15.3-1.12h-.112a2.836,2.836,0,0,1-.728.7,3.539,3.539,0,0,1-.984.456A4.181,4.181,0,0,1,12.288.192ZM12.64-.992a2.9,2.9,0,0,0,.968-.16,2.559,2.559,0,0,0,.808-.456,2.213,2.213,0,0,0,.56-.712,2.01,2.01,0,0,0,.208-.912v-.7a14.43,14.43,0,0,0-2.208.144,3.13,3.13,0,0,0-1.4.512,1.226,1.226,0,0,0-.488,1.04,1.194,1.194,0,0,0,.192.7,1.153,1.153,0,0,0,.544.408A2.256,2.256,0,0,0,12.64-.992Zm7.68,3.9a2.535,2.535,0,0,1-1.12-.248,2,2,0,0,1-.816-.712,1.969,1.969,0,0,1-.3-1.1A1.747,1.747,0,0,1,18.472-.32a2.416,2.416,0,0,1,.936-.688,1.5,1.5,0,0,1-.624-.536,1.364,1.364,0,0,1-.224-.76,1.246,1.246,0,0,1,.408-.944,2.063,2.063,0,0,1,1-.512,2.571,2.571,0,0,1-.856-.9A2.444,2.444,0,0,1,18.8-5.888,2.622,2.622,0,0,1,19.176-7.3a2.535,2.535,0,0,1,1.152-.96,4.576,4.576,0,0,1,1.9-.352,6.055,6.055,0,0,1,.96.072,3.127,3.127,0,0,1,.8.232,2.015,2.015,0,0,0,.84-.656,1.933,1.933,0,0,0,.344-.816H26.56a1.964,1.964,0,0,1-.216.9,2.028,2.028,0,0,1-.584.7,2.064,2.064,0,0,1-.9.376,2.553,2.553,0,0,1,.6.864,2.677,2.677,0,0,1,.2,1.04,2.663,2.663,0,0,1-.376,1.416A2.534,2.534,0,0,1,24.16-3.5a4.452,4.452,0,0,1-1.888.352H20.96a1.323,1.323,0,0,0-.7.168.583.583,0,0,0-.272.536.617.617,0,0,0,.272.52,1.159,1.159,0,0,0,.7.2h3.424a2.015,2.015,0,0,1,1.52.616A2.181,2.181,0,0,1,26.5.464a2.3,2.3,0,0,1-.344,1.24,2.473,2.473,0,0,1-.96.88,3,3,0,0,1-1.432.328Zm.4-1.072h3.024a1.481,1.481,0,0,0,.672-.152,1.2,1.2,0,0,0,.48-.424,1.069,1.069,0,0,0,.176-.592,1.168,1.168,0,0,0-.32-.864,1.085,1.085,0,0,0-.8-.32H20.72a1.189,1.189,0,0,0-.864.344,1.13,1.13,0,0,0-.352.84,1.091,1.091,0,0,0,.352.848A1.237,1.237,0,0,0,20.72,1.84Zm1.52-6.048a2.212,2.212,0,0,0,1.52-.448,1.576,1.576,0,0,0,.5-1.232,1.557,1.557,0,0,0-.5-1.216,2.212,2.212,0,0,0-1.52-.448,2.244,2.244,0,0,0-1.528.448,1.545,1.545,0,0,0-.5,1.216,1.714,1.714,0,0,0,.224.88,1.465,1.465,0,0,0,.672.592A2.7,2.7,0,0,0,22.24-4.208Zm8.912,4.4a4.306,4.306,0,0,1-2.1-.472,3,3,0,0,1-1.3-1.448,6.057,6.057,0,0,1-.44-2.48,6.045,6.045,0,0,1,.44-2.488,3,3,0,0,1,1.3-1.44,4.464,4.464,0,0,1,2.16-.472,3.956,3.956,0,0,1,1.984.456,2.874,2.874,0,0,1,1.208,1.36,5.51,5.51,0,0,1,.408,2.264v.672H28.768a4.845,4.845,0,0,0,.3,1.656,1.823,1.823,0,0,0,.792.944,2.689,2.689,0,0,0,1.328.3,3.014,3.014,0,0,0,.952-.136,1.889,1.889,0,0,0,.688-.392,1.671,1.671,0,0,0,.424-.608,2.24,2.24,0,0,0,.16-.768h1.376a3.363,3.363,0,0,1-.256,1.24,2.594,2.594,0,0,1-.7.968,3.329,3.329,0,0,1-1.136.624A4.85,4.85,0,0,1,31.152.192ZM28.8-4.912h4.56A3.782,3.782,0,0,0,33.2-6.1a2.018,2.018,0,0,0-.456-.784,1.75,1.75,0,0,0-.688-.44,2.7,2.7,0,0,0-.888-.136,2.632,2.632,0,0,0-1.248.272,1.8,1.8,0,0,0-.784.832A3.975,3.975,0,0,0,28.8-4.912Zm9.728,5.1A1.817,1.817,0,0,1,37.5-.056a1.384,1.384,0,0,1-.528-.656,2.367,2.367,0,0,1-.16-.872V-7.232H35.728V-8.416h1.12l.256-2.352h1.12v2.352h1.584v1.184H38.224v5.44a1.026,1.026,0,0,0,.144.6.631.631,0,0,0,.544.2h.9v.928a1.619,1.619,0,0,1-.384.128q-.224.048-.456.088A2.594,2.594,0,0,1,38.528.192Zm6.24,0A4.474,4.474,0,0,1,42.616-.28a3.061,3.061,0,0,1-1.328-1.448,5.87,5.87,0,0,1-.456-2.48A5.858,5.858,0,0,1,41.288-6.7a3.067,3.067,0,0,1,1.328-1.44,4.474,4.474,0,0,1,2.152-.472,4.474,4.474,0,0,1,2.152.472A3.026,3.026,0,0,1,48.24-6.7a5.95,5.95,0,0,1,.448,2.488,5.961,5.961,0,0,1-.448,2.48A3.02,3.02,0,0,1,46.92-.28,4.474,4.474,0,0,1,44.768.192Zm0-1.184a2.646,2.646,0,0,0,1.36-.32,1.991,1.991,0,0,0,.824-1,4.55,4.55,0,0,0,.28-1.72v-.352a4.537,4.537,0,0,0-.28-1.728,1.993,1.993,0,0,0-.824-.992,2.646,2.646,0,0,0-1.36-.32A2.69,2.69,0,0,0,43.4-7.1a1.941,1.941,0,0,0-.824.992A4.658,4.658,0,0,0,42.3-4.384v.352a4.67,4.67,0,0,0,.272,1.72,1.939,1.939,0,0,0,.824,1A2.69,2.69,0,0,0,44.768-.992Zm5.664,3.76V-8.416h1.12l.144,1.2h.112a2.769,2.769,0,0,1,1.1-1.048,3.288,3.288,0,0,1,1.52-.344,3.294,3.294,0,0,1,1.792.464A2.958,2.958,0,0,1,57.36-6.7a6.864,6.864,0,0,1,.4,2.552,6.316,6.316,0,0,1-.408,2.44A3.006,3.006,0,0,1,56.208-.272,3.142,3.142,0,0,1,54.5.192,3.961,3.961,0,0,1,53.472.064a2.58,2.58,0,0,1-.864-.408,2.772,2.772,0,0,1-.672-.712h-.1V2.768ZM54.048-1.04a2.37,2.37,0,0,0,1.28-.312,1.842,1.842,0,0,0,.736-.976,5.091,5.091,0,0,0,.24-1.7v-.336a5.021,5.021,0,0,0-.256-1.768,1.807,1.807,0,0,0-.744-.952A2.342,2.342,0,0,0,54.1-7.376a2.237,2.237,0,0,0-1.288.344A1.956,1.956,0,0,0,52.072-6a5.3,5.3,0,0,0-.232,1.68v.24a5.39,5.39,0,0,0,.168,1.464,2.383,2.383,0,0,0,.48.936,1.73,1.73,0,0,0,.712.5A2.484,2.484,0,0,0,54.048-1.04Z" transform="translate(1248.851 7919)"/>
  </g>
</svg>
