<svg xmlns="http://www.w3.org/2000/svg" width="34.025" height="39.165" viewBox="0 0 34.025 39.165">
  <path id="Icon_simple-tiktok" data-name="Icon simple-tiktok" d="M19.186.033C21.324,0,23.445.016,25.567,0a10.164,10.164,0,0,0,2.856,6.8,11.508,11.508,0,0,0,6.919,2.921V16.3a17.467,17.467,0,0,1-6.854-1.583A20.162,20.162,0,0,1,25.844,13.2c-.016,4.765.016,9.53-.033,14.279a12.464,12.464,0,0,1-2.2,6.429,12.158,12.158,0,0,1-9.644,5.238,11.9,11.9,0,0,1-6.658-1.681A12.306,12.306,0,0,1,1.35,28.149c-.033-.816-.049-1.632-.016-2.431a12.285,12.285,0,0,1,14.246-10.9c.033,2.415-.065,4.83-.065,7.245a5.6,5.6,0,0,0-7.147,3.46,6.474,6.474,0,0,0-.228,2.627,5.554,5.554,0,0,0,5.711,4.683,5.482,5.482,0,0,0,4.52-2.627,3.765,3.765,0,0,0,.669-1.73c.163-2.921.1-5.826.114-8.747.016-6.576-.016-13.136.033-19.7Z" transform="translate(-1.316)"/>
</svg>
