<svg xmlns="http://www.w3.org/2000/svg" width="41.775" height="29.373" viewBox="0 0 41.775 29.373">
  <path id="Icon_awesome-youtube" data-name="Icon awesome-youtube" d="M41.486,7.1a5.249,5.249,0,0,0-3.693-3.717C34.534,2.5,21.471,2.5,21.471,2.5S8.408,2.5,5.15,3.379A5.249,5.249,0,0,0,1.456,7.1C.583,10.375.583,17.216.583,17.216s0,6.841.873,10.12A5.171,5.171,0,0,0,5.15,30.995c3.258.879,16.321.879,16.321.879s13.063,0,16.321-.879a5.171,5.171,0,0,0,3.693-3.658c.873-3.279.873-10.12.873-10.12s0-6.841-.873-10.12ZM17.2,23.428V11l10.918,6.212L17.2,23.428Z" transform="translate(-0.583 -2.5)" fill="#ffffff"/>
</svg>
