<svg xmlns="http://www.w3.org/2000/svg" width="39.733" height="39.724" viewBox="0 0 39.733 39.724">
  <path id="Icon_awesome-instagram" data-name="Icon awesome-instagram" d="M19.868,10.921A10.185,10.185,0,1,0,30.053,21.105,10.169,10.169,0,0,0,19.868,10.921Zm0,16.806a6.621,6.621,0,1,1,6.621-6.621A6.634,6.634,0,0,1,19.868,27.727ZM32.845,10.5A2.376,2.376,0,1,1,30.47,8.128,2.37,2.37,0,0,1,32.845,10.5Zm6.746,2.411c-.151-3.182-.878-6-3.209-8.323s-5.141-3.049-8.323-3.209c-3.28-.186-13.11-.186-16.39,0-3.173.151-5.992.878-8.323,3.2S.3,9.724.137,12.906c-.186,3.28-.186,13.11,0,16.39.151,3.182.878,6,3.209,8.323s5.141,3.049,8.323,3.209c3.28.186,13.11.186,16.39,0,3.182-.151,6-.878,8.323-3.209s3.049-5.141,3.209-8.323C39.777,26.016,39.777,16.195,39.591,12.915Zm-4.237,19.9a6.7,6.7,0,0,1-3.776,3.776c-2.615,1.037-8.82.8-11.709.8s-9.1.23-11.709-.8a6.7,6.7,0,0,1-3.776-3.776c-1.037-2.615-.8-8.82-.8-11.709s-.23-9.1.8-11.709A6.7,6.7,0,0,1,8.159,5.62c2.615-1.037,8.82-.8,11.709-.8s9.1-.23,11.709.8A6.7,6.7,0,0,1,35.354,9.4c1.037,2.615.8,8.82.8,11.709S36.391,30.209,35.354,32.815Z" transform="translate(0.003 -1.243)"/>
</svg>
