<svg xmlns="http://www.w3.org/2000/svg" width="30" height="30" viewBox="0 0 30 30">
  <path id="Subtraction_2" data-name="Subtraction 2" d="M-2484,1647a14.906,14.906,0,0,1-5.839-1.179,14.951,14.951,0,0,1-4.768-3.214,14.951,14.951,0,0,1-3.215-4.768A14.9,14.9,0,0,1-2499,1632a14.9,14.9,0,0,1,1.179-5.839,14.953,14.953,0,0,1,3.215-4.768,14.951,14.951,0,0,1,4.768-3.215A14.906,14.906,0,0,1-2484,1617a14.908,14.908,0,0,1,5.839,1.179,14.958,14.958,0,0,1,4.768,3.215,14.949,14.949,0,0,1,3.214,4.768A14.9,14.9,0,0,1-2469,1632a14.9,14.9,0,0,1-1.179,5.839,14.949,14.949,0,0,1-3.214,4.768,14.952,14.952,0,0,1-4.768,3.214A14.906,14.906,0,0,1-2484,1647Zm-1.928-17.143v4.714l4.286-2.357-4.286-2.357Z" transform="translate(2499 -1617)"/>
</svg>
