<svg xmlns="http://www.w3.org/2000/svg" width="1200" height="8006.496" viewBox="0 0 1200 8006.496">
  <g id="Group_506" data-name="Group 506" transform="translate(-360 -4994.002)">
    <path id="Union_1" data-name="Union 1" d="M4433.147,16690H4153v-50h580v50H4453.853l-10.353,9Z" transform="translate(-3793 -11646)" fill="#ccc"/>
    <path id="Union_2" data-name="Union 2" d="M4433.147,16690H4153v-50h580v50H4453.853l-10.353,9Z" transform="translate(-3173 -11646)" fill="#4597a0"/>
    <path id="Path_202" data-name="Path 202" d="M-48.477-16.777a16.029,16.029,0,0,1,1.9.4q.4.088.4.273a.514.514,0,0,1-.137.322,2.72,2.72,0,0,0-.381,1.016q-.459,1.543-.488,1.6H-43.8l2.666-.039q.156,0,.186.039a.336.336,0,0,1,.029.176v1.445q0,.156-.039.186a.336.336,0,0,1-.176.029l-.479-.01q-.479-.02-1.045-.029a15.709,15.709,0,0,1-2.217,7.578A14.925,14.925,0,0,0-40.479-.527,5.412,5.412,0,0,0-41.4.869q-.225.459-.4.459a1.038,1.038,0,0,1-.479-.2,16.822,16.822,0,0,1-3.8-3.35,14.475,14.475,0,0,1-4.844,3.506,1.794,1.794,0,0,1-.5.156q-.137,0-.342-.342A5.465,5.465,0,0,0-52.793-.215a12.709,12.709,0,0,0,5.5-3.613,15,15,0,0,1-1.9-4.687,15.233,15.233,0,0,1-.84,1.279q-.254.342-.371.342t-.381-.381a6.476,6.476,0,0,0-.684-.752l.02.537q0,.156-.049.186a.394.394,0,0,1-.2.029h-1.562q-.156,0-.186-.039a.336.336,0,0,1-.029-.176v-.781h-2.9V-3.75q0,.742.176.869a2.442,2.442,0,0,0,1.348.244q1.553,0,1.953-.459a1.673,1.673,0,0,0,.332-.83q.068-.469.117-1.562a4.326,4.326,0,0,0,1.318.557,1.738,1.738,0,0,1,.5.186.316.316,0,0,1,.107.273q0,.1-.02.322a3.9,3.9,0,0,1-.986,2.7,3.005,3.005,0,0,1-1.533.635,13.553,13.553,0,0,1-2.109.127,4.49,4.49,0,0,1-2.686-.5,2.075,2.075,0,0,1-.5-1.6V-7.832L-58.4-9.951q0-.176.049-.215a.394.394,0,0,1,.2-.029l1.8.039h2.881V-13.4h-3l-2.061.039q-.166,0-.2-.049a.394.394,0,0,1-.029-.2v-1.523q0-.156.039-.186a.365.365,0,0,1,.186-.029l2.061.039h2.656l2.119-.039a.356.356,0,0,1,.215.039.336.336,0,0,1,.029.176l-.039,2v4.473a15.076,15.076,0,0,0,2.783-6.387Q-48.486-16.455-48.477-16.777Zm3.8,5.41h-3.135a1.437,1.437,0,0,0-.059.156.6.6,0,0,1-.039.127,15.66,15.66,0,0,0,1.777,5.576A14.532,14.532,0,0,0-44.678-11.367Zm11.924,2.373-2.7.039a.356.356,0,0,1-.215-.039.365.365,0,0,1-.029-.186v-1.465q0-.156.049-.186a.394.394,0,0,1,.2-.029l2.7.039h5.645l2.7-.039a.309.309,0,0,1,.2.039.336.336,0,0,1,.029.176V-9.18a.309.309,0,0,1-.039.2.365.365,0,0,1-.186.029l-2.7-.039h-1.7v2.656h2.441l2.295-.039q.176,0,.205.039a.266.266,0,0,1,.039.176V-4.7q0,.137-.039.166a.425.425,0,0,1-.205.029l-2.295-.039h-2.441v3.418a34.9,34.9,0,0,0,3.857.176q1.514,0,3.877-.176A5.627,5.627,0,0,0-21.455.313q-.059.479-.176.566A1.429,1.429,0,0,1-22.168,1q-1.143.059-2.363.059-5.312-.02-7.441-.977a6.545,6.545,0,0,1-2.7-2.5A11.622,11.622,0,0,1-37.109,1q-.312.342-.439.342-.107,0-.4-.381A4.326,4.326,0,0,0-39.111-.078a9.358,9.358,0,0,0,3.6-6.318,12.208,12.208,0,0,0,.117-1.279q.869.127,1.9.381.381.078.381.273a.655.655,0,0,1-.186.381,1.817,1.817,0,0,0-.264.625,14.122,14.122,0,0,1-.361,1.572A6.992,6.992,0,0,0-32.637-2.6a4.767,4.767,0,0,0,1.729,1.016V-8.994Zm8.359-5.684,2.637-.039q.225,0,.225.2l-.039,1.045v.859l.039,2.2q0,.156-.049.186a.305.305,0,0,1-.176.029H-23.4q-.156,0-.186-.039a.336.336,0,0,1-.029-.176v-2.422H-36.27v2.422q0,.156-.049.186a.394.394,0,0,1-.2.029h-1.621q-.156,0-.186-.039a.336.336,0,0,1-.029-.176l.039-2.2V-13.3l-.039-1.221q0-.2.215-.2l2.666.039h4.277v-.176a8.727,8.727,0,0,0-.146-1.9q1.006,0,2.139.1.3.039.3.205a1.293,1.293,0,0,1-.117.381,4.8,4.8,0,0,0-.078,1.2v.2Zm20.674,2.959A18.378,18.378,0,0,1-1.1-7.881a.394.394,0,0,1,.059.176q0,.088-.2.205l-1.2.664a.6.6,0,0,1-.225.1q-.078,0-.156-.176-.4-.84-.625-1.26-2.314.273-6.26.6.43.088,1.1.244.342.088.342.273t-.244.3a1.216,1.216,0,0,0-.322.322h3.486a1.176,1.176,0,0,0,.42-.059.629.629,0,0,1,.273-.078q.205,0,.811.576.518.547.518.8a.41.41,0,0,1-.225.361,2.319,2.319,0,0,0-.6.664A13.921,13.921,0,0,1-6.064-1.992,19.917,19.917,0,0,0-.664-.557,4.079,4.079,0,0,0-1.348.781a2.377,2.377,0,0,1-.176.449.271.271,0,0,1-.225.1,3.088,3.088,0,0,1-.42-.059A19.184,19.184,0,0,1-7.646-.771a16.375,16.375,0,0,1-5.479,2.158,2.844,2.844,0,0,1-.42.059q-.225,0-.439-.518a4.17,4.17,0,0,0-.7-1.162,16.951,16.951,0,0,0,5.4-1.7,12.129,12.129,0,0,1-1.758-1.8,13.5,13.5,0,0,1-2.1,1.533,1.662,1.662,0,0,1-.459.225q-.146,0-.4-.459a4.468,4.468,0,0,0-.8-.957,11.163,11.163,0,0,0,3.8-3.008,4.017,4.017,0,0,0,.645-1.143q-.869.088-1.6.127a3.876,3.876,0,0,0-1.084.176,1.8,1.8,0,0,1-.381.137q-.225,0-.293-.361-.146-.84-.244-1.816.625.049,1.172.049.215,0,.41-.01.537,0,1.7-.039l.762-.781a33.742,33.742,0,0,0-3.184-2.7.241.241,0,0,1-.117-.186.5.5,0,0,1,.137-.234l.8-.937q.127-.156.186-.156a.356.356,0,0,1,.176.088,8.848,8.848,0,0,0,.762.566q.85-1.123,1.514-2.158a6.238,6.238,0,0,0,.527-1.084,11.222,11.222,0,0,1,1.738.742q.264.146.264.342,0,.176-.244.313a1.942,1.942,0,0,0-.576.586Q-9.209-13.2-9.8-12.5q.732.6,1.182,1.045,1.27-1.455,2.236-2.744A4.362,4.362,0,0,0-5.7-15.312q.986.381,1.719.732.3.166.3.342a.339.339,0,0,1-.264.322,2.9,2.9,0,0,0-.693.7A46.437,46.437,0,0,1-8.145-9.395q2.5-.156,3.779-.283Q-4.6-10-5.244-10.82a.252.252,0,0,1-.078-.156q0-.088.2-.2l1.025-.566a.473.473,0,0,1,.215-.1Q-3.828-11.836-3.721-11.719ZM-5.947-4.834H-9.727a9.212,9.212,0,0,0,1.982,1.9A10.084,10.084,0,0,0-5.947-4.834Zm-8.994-7.529a11.4,11.4,0,0,1,1.484.928q.264.2.264.352a.258.258,0,0,1-.146.225,1.793,1.793,0,0,0-.439.479,22.356,22.356,0,0,1-1.3,1.885v7.373l.039,2.461a.309.309,0,0,1-.039.2.365.365,0,0,1-.186.029H-16.9q-.2,0-.2-.225l.039-2.461V-4.062q0-.742.039-2.217-.6.6-1.084,1a1.188,1.188,0,0,1-.459.264q-.146,0-.254-.4A4.041,4.041,0,0,0-19.5-6.855,18.267,18.267,0,0,0-15.459-11.3,4.111,4.111,0,0,0-14.941-12.363Zm-.205-4.395a8.377,8.377,0,0,1,1.563.938q.283.186.283.361,0,.146-.322.342a1.879,1.879,0,0,0-.537.537,18.2,18.2,0,0,1-3.447,3.32,1.059,1.059,0,0,1-.459.244q-.176,0-.381-.479a3.445,3.445,0,0,0-.859-1.182,13.391,13.391,0,0,0,3.584-3.164A4.9,4.9,0,0,0-15.146-16.758Zm26.426,4.5a24.2,24.2,0,0,1-2.5,8.613,3.888,3.888,0,0,1-3.408,2.3A3.046,3.046,0,0,1,2.813-2.861a6.313,6.313,0,0,1-.977-3.613A7.171,7.171,0,0,1,4.092-11.68a8.811,8.811,0,0,1,6.5-2.559,7.664,7.664,0,0,1,5.859,2.227A6.613,6.613,0,0,1,18.213-7.3q0,5.43-6.162,7.285a1.136,1.136,0,0,1-.293.049q-.293,0-.566-.41a4.181,4.181,0,0,0-1.4-1.26A9.831,9.831,0,0,0,14.287-3.7,5.126,5.126,0,0,0,15.83-7.617,4.561,4.561,0,0,0,14.434-11a4.206,4.206,0,0,0-3.076-1.26Zm-2.324.117a6.147,6.147,0,0,0-3.418,1.816,5.513,5.513,0,0,0-1.562,3.7,4.317,4.317,0,0,0,.5,2.217q.391.645.859.645.82,0,1.5-1.221A17.152,17.152,0,0,0,8.174-8.418,25.14,25.14,0,0,0,8.955-12.139ZM33.066-1.074Q34.258-1,34.922-1a2.345,2.345,0,0,0,.244-.01.971.971,0,0,0,.654-.176.69.69,0,0,0,.146-.5v-3.4a5.666,5.666,0,0,0-1,1.26q-.273.42-.4.42a1.08,1.08,0,0,1-.449-.244,12.434,12.434,0,0,1-4.053-4.932L30-8.418a11.636,11.636,0,0,1-1.65,2.832A11.832,11.832,0,0,1,25.9-3.379a.941.941,0,0,1-.439.264q-.117,0-.381-.4a5.335,5.335,0,0,0-.957-1.162v2.783l.039,2.9q0,.137-.049.166a.365.365,0,0,1-.186.029H22.178q-.215,0-.215-.2L22-2.139V-9.883l-.039-3.154q0-.166.039-.2a.365.365,0,0,1,.186-.029l2.7.039H28.8q.049-.918.049-1.436a15.623,15.623,0,0,0-.127-2.148q.791.029,2.2.146.3.029.3.234a1.54,1.54,0,0,1-.117.42,9.09,9.09,0,0,0-.1,1.465q0,.439-.039,1.318h4.258l2.686-.039q.156,0,.186.039a.365.365,0,0,1,.029.186l-.039,3.281v5.215l.049,3.164v.322A1.971,1.971,0,0,1,37.49.605a5.888,5.888,0,0,1-3.105.518.919.919,0,0,1-.566-.107,1.136,1.136,0,0,1-.2-.537A4.733,4.733,0,0,0,33.066-1.074Zm2.9-4.121v-6.1H30.84a10.982,10.982,0,0,0,2.2,3.857A12.52,12.52,0,0,0,35.967-5.2ZM28.027-9.023a10.267,10.267,0,0,0,.615-2.275H24.121v6.416A8.663,8.663,0,0,0,28.027-9.023Zm12.8,4.365a17.474,17.474,0,0,0,7.178-4.5,6.078,6.078,0,0,0,1.123-1.553,14.715,14.715,0,0,1,1.914.371q.264.068.264.264,0,.107-.205.244l-.039.039a17.206,17.206,0,0,0,8.184,4.854,4.051,4.051,0,0,0-.723,1.484q-.166.518-.322.518a1.324,1.324,0,0,1-.459-.137q-1.416-.605-2.256-1.064v2.324l.039,3.164a.332.332,0,0,1-.039.205.365.365,0,0,1-.186.029h-1.66q-.176,0-.205-.039a.394.394,0,0,1-.029-.2V.664H46.533v.742q0,.156-.049.186a.305.305,0,0,1-.176.029h-1.68q-.156,0-.186-.039a.336.336,0,0,1-.029-.176l.039-3.184v-2.3q-1.055.557-2.021,1.006a1.891,1.891,0,0,1-.479.156q-.186,0-.381-.5A3.328,3.328,0,0,0,40.83-4.658Zm5.7.957v2.666h6.875V-3.7Zm.02-1.7h6.8a16.141,16.141,0,0,1-3.4-3.057A18.289,18.289,0,0,1,46.553-5.4Zm8.916-9.463,2.656-.039a.309.309,0,0,1,.2.039.336.336,0,0,1,.029.176l-.039.938v.781l.039,2.09q0,.156-.049.2a.305.305,0,0,1-.176.029h-1.68q-.156,0-.186-.049a.305.305,0,0,1-.029-.176v-2.207H43.77v2.207q0,.156-.049.2a.305.305,0,0,1-.176.029h-1.68q-.156,0-.186-.049a.305.305,0,0,1-.029-.176l.039-2.09V-13.6l-.039-1.084q0-.156.039-.186a.336.336,0,0,1,.176-.029l2.656.039h4.268a8.27,8.27,0,0,0-.166-1.895q1.162.029,2.168.117.322.029.322.176a.472.472,0,0,1-.059.205q-.049.137-.068.2a4.327,4.327,0,0,0-.1,1.182v.02ZM46.523-12.48a16.021,16.021,0,0,1,1.719.84.345.345,0,0,1,.205.3q0,.176-.283.264a2.323,2.323,0,0,0-.645.518,14.788,14.788,0,0,1-3.5,2.676,1.923,1.923,0,0,1-.479.205q-.156,0-.439-.479a3.525,3.525,0,0,0-.977-1.1,11.024,11.024,0,0,0,3.555-2.178A5.053,5.053,0,0,0,46.523-12.48ZM57.822-9.5a7.452,7.452,0,0,0-.762,1.26q-.215.5-.342.5a1.254,1.254,0,0,1-.459-.176,15.335,15.335,0,0,1-4.541-3.359.319.319,0,0,1-.088-.156q0-.078.2-.205l1.055-.684a.4.4,0,0,1,.2-.088.294.294,0,0,1,.186.107A11.131,11.131,0,0,0,57.822-9.5Z" transform="translate(650 5024.998)" fill="#333"/>
    <path id="Path_201" data-name="Path 201" d="M-48.477-16.777a16.029,16.029,0,0,1,1.9.4q.4.088.4.273a.514.514,0,0,1-.137.322,2.72,2.72,0,0,0-.381,1.016q-.459,1.543-.488,1.6H-43.8l2.666-.039q.156,0,.186.039a.336.336,0,0,1,.029.176v1.445q0,.156-.039.186a.336.336,0,0,1-.176.029l-.479-.01q-.479-.02-1.045-.029a15.709,15.709,0,0,1-2.217,7.578A14.925,14.925,0,0,0-40.479-.527,5.412,5.412,0,0,0-41.4.869q-.225.459-.4.459a1.038,1.038,0,0,1-.479-.2,16.822,16.822,0,0,1-3.8-3.35,14.475,14.475,0,0,1-4.844,3.506,1.794,1.794,0,0,1-.5.156q-.137,0-.342-.342A5.465,5.465,0,0,0-52.793-.215a12.709,12.709,0,0,0,5.5-3.613,15,15,0,0,1-1.9-4.687,15.233,15.233,0,0,1-.84,1.279q-.254.342-.371.342t-.381-.381a6.476,6.476,0,0,0-.684-.752l.02.537q0,.156-.049.186a.394.394,0,0,1-.2.029h-1.562q-.156,0-.186-.039a.336.336,0,0,1-.029-.176v-.781h-2.9V-3.75q0,.742.176.869a2.442,2.442,0,0,0,1.348.244q1.553,0,1.953-.459a1.673,1.673,0,0,0,.332-.83q.068-.469.117-1.562a4.326,4.326,0,0,0,1.318.557,1.738,1.738,0,0,1,.5.186.316.316,0,0,1,.107.273q0,.1-.02.322a3.9,3.9,0,0,1-.986,2.7,3.005,3.005,0,0,1-1.533.635,13.553,13.553,0,0,1-2.109.127,4.49,4.49,0,0,1-2.686-.5,2.075,2.075,0,0,1-.5-1.6V-7.832L-58.4-9.951q0-.176.049-.215a.394.394,0,0,1,.2-.029l1.8.039h2.881V-13.4h-3l-2.061.039q-.166,0-.2-.049a.394.394,0,0,1-.029-.2v-1.523q0-.156.039-.186a.365.365,0,0,1,.186-.029l2.061.039h2.656l2.119-.039a.356.356,0,0,1,.215.039.336.336,0,0,1,.029.176l-.039,2v4.473a15.076,15.076,0,0,0,2.783-6.387Q-48.486-16.455-48.477-16.777Zm3.8,5.41h-3.135a1.437,1.437,0,0,0-.059.156.6.6,0,0,1-.039.127,15.66,15.66,0,0,0,1.777,5.576A14.532,14.532,0,0,0-44.678-11.367Zm11.924,2.373-2.7.039a.356.356,0,0,1-.215-.039.365.365,0,0,1-.029-.186v-1.465q0-.156.049-.186a.394.394,0,0,1,.2-.029l2.7.039h5.645l2.7-.039a.309.309,0,0,1,.2.039.336.336,0,0,1,.029.176V-9.18a.309.309,0,0,1-.039.2.365.365,0,0,1-.186.029l-2.7-.039h-1.7v2.656h2.441l2.295-.039q.176,0,.205.039a.266.266,0,0,1,.039.176V-4.7q0,.137-.039.166a.425.425,0,0,1-.205.029l-2.295-.039h-2.441v3.418a34.9,34.9,0,0,0,3.857.176q1.514,0,3.877-.176A5.627,5.627,0,0,0-21.455.313q-.059.479-.176.566A1.429,1.429,0,0,1-22.168,1q-1.143.059-2.363.059-5.312-.02-7.441-.977a6.545,6.545,0,0,1-2.7-2.5A11.622,11.622,0,0,1-37.109,1q-.312.342-.439.342-.107,0-.4-.381A4.326,4.326,0,0,0-39.111-.078a9.358,9.358,0,0,0,3.6-6.318,12.208,12.208,0,0,0,.117-1.279q.869.127,1.9.381.381.078.381.273a.655.655,0,0,1-.186.381,1.817,1.817,0,0,0-.264.625,14.122,14.122,0,0,1-.361,1.572A6.992,6.992,0,0,0-32.637-2.6a4.767,4.767,0,0,0,1.729,1.016V-8.994Zm8.359-5.684,2.637-.039q.225,0,.225.2l-.039,1.045v.859l.039,2.2q0,.156-.049.186a.305.305,0,0,1-.176.029H-23.4q-.156,0-.186-.039a.336.336,0,0,1-.029-.176v-2.422H-36.27v2.422q0,.156-.049.186a.394.394,0,0,1-.2.029h-1.621q-.156,0-.186-.039a.336.336,0,0,1-.029-.176l.039-2.2V-13.3l-.039-1.221q0-.2.215-.2l2.666.039h4.277v-.176a8.727,8.727,0,0,0-.146-1.9q1.006,0,2.139.1.3.039.3.205a1.293,1.293,0,0,1-.117.381,4.8,4.8,0,0,0-.078,1.2v.2ZM-14.258-.439q.791.059,1.338.059a.813.813,0,0,0,.547-.127A.55.55,0,0,0-12.266-.9v-1.66h-3.193v1.4l.039,2.539a.309.309,0,0,1-.039.2.365.365,0,0,1-.186.029h-1.6q-.156,0-.186-.039a.365.365,0,0,1-.029-.186l.039-2.6v-6.6l-.039-2.666q0-.2.215-.2l2.109.039h2.52l2.07-.039q.225,0,.225.2l-.039,2.822V-3.32l.039,2.676a2.167,2.167,0,0,1-.479,1.66,4.027,4.027,0,0,1-2.256.42,1.231,1.231,0,0,1-.6-.078A1.221,1.221,0,0,1-13.8.84,3.809,3.809,0,0,0-14.258-.439Zm-1.2-3.721h3.193V-5.7h-3.193Zm3.193-4.707h-3.193v1.543h3.193Zm-3.867-3.145-2.5.039q-.166,0-.2-.039a.462.462,0,0,1-.029-.205V-13.74q0-.156.039-.186a.365.365,0,0,1,.186-.029l2.5.039h2.354A14.881,14.881,0,0,0-14.893-15.9a.306.306,0,0,1-.068-.146q0-.078.205-.176l1.357-.518a.943.943,0,0,1,.244-.068q.078,0,.176.146a10.808,10.808,0,0,1,1.162,1.924.38.38,0,0,1,.049.137q0,.078-.273.186l-1.26.5h4.5a21.064,21.064,0,0,0,1.221-1.943,4.723,4.723,0,0,0,.381-1,20,20,0,0,1,1.992.537q.283.127.283.283,0,.117-.176.264a2.734,2.734,0,0,0-.547.693q-.342.547-.811,1.162h2.637l2.52-.039a.309.309,0,0,1,.2.039.336.336,0,0,1,.029.176v1.523q0,.176-.049.215a.305.305,0,0,1-.176.029l-2.52-.039ZM-7.4-.635a18.511,18.511,0,0,0,2.021.1A.981.981,0,0,0-4.7-.713a.82.82,0,0,0,.176-.605V-8.213a17.622,17.622,0,0,0-.156-2.705q1.133.029,2.061.137.322.039.322.225a1.415,1.415,0,0,1-.146.42,8.2,8.2,0,0,0-.117,1.924v3.857L-2.52-.879a2.032,2.032,0,0,1-.7,1.826,2.624,2.624,0,0,1-1.055.361A15.123,15.123,0,0,1-6.1,1.387,1.052,1.052,0,0,1-6.68,1.3,1.509,1.509,0,0,1-6.865.762,3.986,3.986,0,0,0-7.4-.635Zm-1.191-9.521q.83.02,1.992.156.283.029.283.225a3.9,3.9,0,0,1-.117.459,12.634,12.634,0,0,0-.078,1.973V-4.98l.039,2.1a.305.305,0,0,1-.029.176.332.332,0,0,1-.186.029H-8.271q-.166,0-.2-.039A.279.279,0,0,1-8.5-2.881l.039-2.1V-7.324A23.7,23.7,0,0,0-8.594-10.156Zm19.873-2.1a24.2,24.2,0,0,1-2.5,8.613,3.888,3.888,0,0,1-3.408,2.3A3.046,3.046,0,0,1,2.813-2.861a6.313,6.313,0,0,1-.977-3.613A7.171,7.171,0,0,1,4.092-11.68a8.811,8.811,0,0,1,6.5-2.559,7.664,7.664,0,0,1,5.859,2.227A6.613,6.613,0,0,1,18.213-7.3q0,5.43-6.162,7.285a1.136,1.136,0,0,1-.293.049q-.293,0-.566-.41a4.181,4.181,0,0,0-1.4-1.26A9.831,9.831,0,0,0,14.287-3.7,5.126,5.126,0,0,0,15.83-7.617,4.561,4.561,0,0,0,14.434-11a4.206,4.206,0,0,0-3.076-1.26Zm-2.324.117a6.147,6.147,0,0,0-3.418,1.816,5.513,5.513,0,0,0-1.562,3.7,4.317,4.317,0,0,0,.5,2.217q.391.645.859.645.82,0,1.5-1.221A17.152,17.152,0,0,0,8.174-8.418,25.14,25.14,0,0,0,8.955-12.139ZM33.066-1.074Q34.258-1,34.922-1a2.345,2.345,0,0,0,.244-.01.971.971,0,0,0,.654-.176.69.69,0,0,0,.146-.5v-3.4a5.666,5.666,0,0,0-1,1.26q-.273.42-.4.42a1.08,1.08,0,0,1-.449-.244,12.434,12.434,0,0,1-4.053-4.932L30-8.418a11.636,11.636,0,0,1-1.65,2.832A11.832,11.832,0,0,1,25.9-3.379a.941.941,0,0,1-.439.264q-.117,0-.381-.4a5.335,5.335,0,0,0-.957-1.162v2.783l.039,2.9q0,.137-.049.166a.365.365,0,0,1-.186.029H22.178q-.215,0-.215-.2L22-2.139V-9.883l-.039-3.154q0-.166.039-.2a.365.365,0,0,1,.186-.029l2.7.039H28.8q.049-.918.049-1.436a15.623,15.623,0,0,0-.127-2.148q.791.029,2.2.146.3.029.3.234a1.54,1.54,0,0,1-.117.42,9.09,9.09,0,0,0-.1,1.465q0,.439-.039,1.318h4.258l2.686-.039q.156,0,.186.039a.365.365,0,0,1,.029.186l-.039,3.281v5.215l.049,3.164v.322A1.971,1.971,0,0,1,37.49.605a5.888,5.888,0,0,1-3.105.518.919.919,0,0,1-.566-.107,1.136,1.136,0,0,1-.2-.537A4.733,4.733,0,0,0,33.066-1.074Zm2.9-4.121v-6.1H30.84a10.982,10.982,0,0,0,2.2,3.857A12.52,12.52,0,0,0,35.967-5.2ZM28.027-9.023a10.267,10.267,0,0,0,.615-2.275H24.121v6.416A8.663,8.663,0,0,0,28.027-9.023Zm12.8,4.365a17.474,17.474,0,0,0,7.178-4.5,6.078,6.078,0,0,0,1.123-1.553,14.715,14.715,0,0,1,1.914.371q.264.068.264.264,0,.107-.205.244l-.039.039a17.206,17.206,0,0,0,8.184,4.854,4.051,4.051,0,0,0-.723,1.484q-.166.518-.322.518a1.324,1.324,0,0,1-.459-.137q-1.416-.605-2.256-1.064v2.324l.039,3.164a.332.332,0,0,1-.039.205.365.365,0,0,1-.186.029h-1.66q-.176,0-.205-.039a.394.394,0,0,1-.029-.2V.664H46.533v.742q0,.156-.049.186a.305.305,0,0,1-.176.029h-1.68q-.156,0-.186-.039a.336.336,0,0,1-.029-.176l.039-3.184v-2.3q-1.055.557-2.021,1.006a1.891,1.891,0,0,1-.479.156q-.186,0-.381-.5A3.328,3.328,0,0,0,40.83-4.658Zm5.7.957v2.666h6.875V-3.7Zm.02-1.7h6.8a16.141,16.141,0,0,1-3.4-3.057A18.289,18.289,0,0,1,46.553-5.4Zm8.916-9.463,2.656-.039a.309.309,0,0,1,.2.039.336.336,0,0,1,.029.176l-.039.938v.781l.039,2.09q0,.156-.049.2a.305.305,0,0,1-.176.029h-1.68q-.156,0-.186-.049a.305.305,0,0,1-.029-.176v-2.207H43.77v2.207q0,.156-.049.2a.305.305,0,0,1-.176.029h-1.68q-.156,0-.186-.049a.305.305,0,0,1-.029-.176l.039-2.09V-13.6l-.039-1.084q0-.156.039-.186a.336.336,0,0,1,.176-.029l2.656.039h4.268a8.27,8.27,0,0,0-.166-1.895q1.162.029,2.168.117.322.029.322.176a.472.472,0,0,1-.059.205q-.049.137-.068.2a4.327,4.327,0,0,0-.1,1.182v.02ZM46.523-12.48a16.021,16.021,0,0,1,1.719.84.345.345,0,0,1,.205.3q0,.176-.283.264a2.323,2.323,0,0,0-.645.518,14.788,14.788,0,0,1-3.5,2.676,1.923,1.923,0,0,1-.479.205q-.156,0-.439-.479a3.525,3.525,0,0,0-.977-1.1,11.024,11.024,0,0,0,3.555-2.178A5.053,5.053,0,0,0,46.523-12.48ZM57.822-9.5a7.452,7.452,0,0,0-.762,1.26q-.215.5-.342.5a1.254,1.254,0,0,1-.459-.176,15.335,15.335,0,0,1-4.541-3.359.319.319,0,0,1-.088-.156q0-.078.2-.205l1.055-.684a.4.4,0,0,1,.2-.088.294.294,0,0,1,.186.107A11.131,11.131,0,0,0,57.822-9.5Z" transform="translate(1270 5024.998)" fill="#fff"/>
    <text id="_生活習慣病管理料_算定要件_生活習慣病管理料_脂質異常症を主病とする場合_点_高血圧症を主病とする場合_点_糖尿病を主病とする場合_点_注_別に厚生労働大臣が定める施設基準を満たす保険医療機関_許可病床数が200床未満の病院又は診療所に限る_において_脂質異常症_高血圧症又は糖尿病を主病とする患者_入院中の患者を除く_に対して_当該患者の同意を得て治療計画を策定し_当該治療計画に基づき_生_活習慣に関する総合的な治療管理を行った場合" data-name="【生活習慣病管理料(Ⅰ)】
［算定要件］
Ｂ００１―３ 生活習慣病管理料(Ⅰ)
１ 脂質異常症を主病とする場合　●●点
２ 高血圧症を主病とする場合　 ●●点
３ 糖尿病を主病とする場合　 ●●点

注
１ 別に厚生労働大臣が定める施設基準を満たす保険医療機関（許可病床数が200床未満の病院又は診療所に限る。）において 、脂質異常症、高血圧症又は糖尿病を主病とする患者（入院中の患者を除く。） に対して、当該患者の同意を得て治療計画を策定し、当該治療計画に基づき、生 活習慣に関する総合的な治療管理を行った場合" transform="translate(360 5073.498)" fill="#333" font-size="20" font-family="NotoSansJP-Regular, Noto Sans JP"><tspan x="0" y="23">【生活習慣病管理料(Ⅰ)】</tspan><tspan x="0" y="59">［算定要件］</tspan><tspan x="0" y="95">Ｂ００１―３ </tspan><tspan y="95" text-decoration="underline">生活習慣病管理料(Ⅰ)</tspan><tspan x="0" y="131">１ 脂質異常症を主病とする場合　●●点</tspan><tspan x="0" y="167">２ 高血圧症を主病とする場合　 ●●点</tspan><tspan x="0" y="203">３ 糖尿病を主病とする場合　 ●●点</tspan><tspan x="0" y="239"></tspan><tspan x="0" y="275">注</tspan><tspan x="0" y="311">１ </tspan><tspan y="311" text-decoration="underline">別に厚生労働大臣が定める施設基準を満たす</tspan><tspan y="311">保険医療機関</tspan><tspan x="0" y="347">（許可病床数が200床未満の病院又は診療所に限る。）におい</tspan><tspan x="0" y="383">て 、脂質異常症、高血圧症又は糖尿病を主病とする患者（入院</tspan><tspan x="0" y="419">中の患者を除く。） に対して、当該患者の同意を得て治療計画</tspan><tspan x="0" y="455">を策定し、当該治療計画に基づき、生 活習慣に関する総合的な</tspan><tspan x="0" y="491">治療管理を行った場合に、月１回に限り算定する。ただ し、糖</tspan><tspan x="0" y="527">尿病を主病とする場合にあっては、区分番号Ｃ１０１に掲げる在</tspan><tspan x="0" y="563">宅自己注射指導管理料を算定しているときは、算定できない。</tspan><tspan x="0" y="599"></tspan><tspan x="0" y="635">２ 生活習慣病管理を受けている患者に対して行った</tspan><tspan y="635" text-decoration="underline">区分番号Ａ</tspan><tspan x="0" y="671" text-decoration="underline">００１の注８に掲げる医学管理、</tspan><tspan y="671">第２章第１部医学管理等（区 </tspan><tspan x="0" y="707">分番号Ｂ００１の20に掲げる糖尿病合併症管理料、区分番号Ｂ</tspan><tspan x="0" y="743">００１の22に掲げ るがん性疼痛緩和指導管理料、区分番号Ｂ０</tspan><tspan x="0" y="779">０１の24に掲げる外来緩和ケア管理 料及び区分番号Ｂ００１の</tspan><tspan x="0" y="815">27に掲げる糖尿病透析予防指導管理料</tspan><tspan y="815" text-decoration="underline">及び区分番号Ｂ●●に掲</tspan><tspan x="0" y="851" text-decoration="underline">げる慢性腎臓病透析予防指導管理料</tspan><tspan y="851">を除く。）、第３部検査、第</tspan><tspan x="0" y="887">６部注射及び第13部病理診断の費用は、</tspan><tspan y="887" text-decoration="underline">生活習慣病管理料(Ⅰ)</tspan><tspan y="887">に</tspan><tspan x="0" y="923">含まれ るものとする。</tspan><tspan x="0" y="959"></tspan><tspan x="0" y="995">３ 糖尿病を主病とする患者（２型糖尿病の患者であってインス</tspan><tspan x="0" y="1031">リン製剤を使用していないものに限る。）に対して、血糖自己測</tspan><tspan x="0" y="1067">定値に基づく指導を行った場合は 、血糖自己測定指導加算とし</tspan><tspan x="0" y="1103">て、年１回に限り所定点数に500点を加算する。</tspan><tspan x="0" y="1139"></tspan><tspan x="0" y="1175">４ 別に厚生労働大臣が定める施設基準に適合しているものとし</tspan><tspan x="0" y="1211">て地方厚生局長等に届け出た保険医療機関において、当該保険医</tspan><tspan x="0" y="1247">療機関における診療報酬の請求状況、生活習慣病の治療管理の状</tspan><tspan x="0" y="1283">況等の診療の内容に関するデータを継続して厚生労働省に提出し</tspan><tspan x="0" y="1319">ている場合は、外来データ提出加算として、50点を所定点数に</tspan><tspan x="0" y="1355">加算する。</tspan><tspan x="0" y="1391"></tspan><tspan x="0" y="1427">５ </tspan><tspan y="1427" text-decoration="underline">生活習慣病管理料(Ⅱ)を算定した日の属する月から起算して６</tspan><tspan x="0" y="1463" text-decoration="underline">月以内の期間においては、生活習慣病管理料(Ⅰ)は、算定できな</tspan><tspan x="0" y="1499" text-decoration="underline">い。</tspan><tspan x="0" y="1535"></tspan><tspan x="0" y="1571">通知</tspan><tspan x="0" y="1607">（１）</tspan><tspan y="1607" text-decoration="underline">生活習慣病管理料(Ⅰ)</tspan><tspan y="1607">は、脂質異常症、高血圧症又は糖尿</tspan><tspan x="0" y="1643">病を主病とする患者の治療においては生活習慣に関する総合的な</tspan><tspan x="0" y="1679">治療管理が重要であることから設定されたものであり、治療計画</tspan><tspan x="0" y="1715">を策定し、当該治療計画に基づき、服薬、運動、休養、栄養、喫</tspan><tspan x="0" y="1751">煙、家庭での体重や血圧の測定、飲酒及びその他療養を行うに当</tspan><tspan x="0" y="1787">たっての問題点等の生活習慣に関する総合 的な治療管理を行っ</tspan><tspan x="0" y="1823">た場合に、許可病床数が 200 床未満の病院及び診療所である保</tspan><tspan x="0" y="1859">険医療機関において算定する。この場合において、当該治療計画</tspan><tspan x="0" y="1895">に基づく総合的な治療管理は、</tspan><tspan y="1895" text-decoration="underline">歯科医師、薬剤師</tspan><tspan y="1895">、看護師、薬剤</tspan><tspan x="0" y="1931">師、管理栄養士等の多職種と連携して</tspan><tspan y="1931" text-decoration="underline">実施することが望ましい</tspan><tspan y="1931">。</tspan><tspan x="0" y="1967">なお、区分番号「Ａ０００」初診料を算定した日の属する月にお</tspan><tspan x="0" y="2003">いては、本管理料は算定しない。</tspan><tspan x="0" y="2039"></tspan><tspan x="0" y="2075">（２）</tspan><tspan y="2075" text-decoration="underline">生活習慣病管理料(Ⅰ)</tspan><tspan y="2075">は、服薬、運動、休養、栄養、喫煙</tspan><tspan x="0" y="2111">及び飲酒等の生活習慣に関する総合的な治療管理を行う旨、患者</tspan><tspan x="0" y="2147">に対して療養計画書（療養計画書の様式は、別紙様式９又 はこ</tspan><tspan x="0" y="2183">れに準じた様式とする。）により丁寧に説明を行い、患者の同意</tspan><tspan x="0" y="2219">を得るとともに、当該計画書に患者の署名を受けた場合に算定で</tspan><tspan x="0" y="2255">きるものである。また、交付した療養計画書 の写しは診療録に</tspan><tspan x="0" y="2291">添付しておくものとする。なお、療養計画書は、当該患者の治療</tspan><tspan x="0" y="2327">管理において必要な項目のみを記載することで差し支えないが、</tspan><tspan x="0" y="2363">糖尿病の患者については血糖値 及びＨｂＡ１ｃの値を、高血圧</tspan><tspan x="0" y="2399">症の患者については血圧の値を必ず記載すること。</tspan><tspan y="2399" text-decoration="underline">なお、血液検</tspan><tspan x="0" y="2435" text-decoration="underline">査結果を療養計画書とは別に手交している場合又は患者の求めに</tspan><tspan x="0" y="2471" text-decoration="underline">応じて、電子カルテ情報共有サービスを活用して共有している場</tspan><tspan x="0" y="2507" text-decoration="underline">合であって、その旨を診療録に記載している場合は、療養計画書</tspan><tspan x="0" y="2543" text-decoration="underline">の血液検査項目についての記載を不要とする。</tspan><tspan x="0" y="2579"></tspan><tspan x="0" y="2615">（３）</tspan><tspan y="2615" text-decoration="underline">生活習慣病管理料(Ⅰ)</tspan><tspan y="2615">については、当該患者の診療に際し</tspan><tspan x="0" y="2651">て行った</tspan><tspan y="2651" text-decoration="underline">「Ａ００１」の注８に掲げる医学管理、第２章</tspan><tspan y="2651">第１部医</tspan><tspan x="0" y="2687">学管理等（「Ｂ００１」の「20」糖尿病合併症管理料、同</tspan><tspan x="0" y="2723">「22」がん性疼痛緩和指導管理料、同「24」外来緩和ケア管理</tspan><tspan x="0" y="2759">料及び同「27」 糖尿病透析予防指導管理料</tspan><tspan y="2759" text-decoration="underline">及び同｢●●｣腎臓病</tspan><tspan x="0" y="2795" text-decoration="underline">透析予防指導管理料</tspan><tspan y="2795">を除く。）、第３部検査、第６部注射及び第 </tspan><tspan x="0" y="2831">13 部病理診断の費用は全て所定点数に含まれる。</tspan><tspan x="0" y="2867"></tspan><tspan x="0" y="2903">（４） </tspan><tspan y="2903" text-decoration="line-through">生活習慣病管理料を算定している患者に対しては、少な</tspan><tspan x="0" y="2939" text-decoration="line-through">くとも１月に１回以上の総合的な治療管理が行われなければなら</tspan><tspan x="0" y="2975" text-decoration="line-through">ない。</tspan><tspan x="0" y="3011"></tspan><tspan x="0" y="3047" text-decoration="underline">（４）</tspan><tspan y="3047" xml:space="preserve"> 生活習慣病管理料を算定する月においては、服薬、運</tspan><tspan x="0" y="3083">動、休養、栄養、喫煙、家庭での体重や血圧の測定、飲酒、特定</tspan><tspan x="0" y="3119">健診・特定保健指導に係る情報提供及びその他療養を行う に当</tspan><tspan x="0" y="3155">たっての問題点等の生活習慣に関する総合的な治療管理に係る療</tspan><tspan x="0" y="3191">養計画書（療養計画 書の様式は、別紙様式９の２又はこれに準</tspan><tspan x="0" y="3227">じた様式とする。）を交付するものとするが、 当該療養計画書</tspan><tspan x="0" y="3263">の内容に変更がない場合はこの限りでない。ただし、その場合に</tspan><tspan x="0" y="3299">おいても 、</tspan><tspan y="3299" text-decoration="underline">患者又はその家族等から求めがあった場合にも交付</tspan><tspan x="0" y="3335" text-decoration="underline">するものとするとともに、概ね</tspan><tspan y="3335">４月に１回以上は交付するものと</tspan><tspan x="0" y="3371">する。なお、交付した当該療養計画書の写しは診療録に 添付し</tspan><tspan x="0" y="3407">ておくものとする。</tspan><tspan x="0" y="3443"></tspan><tspan text-decoration="underline"><tspan x="0" y="3479">（５）(2)及び(4)について、患者の求めに応じて、電子カルテ情</tspan><tspan x="0" y="3515">報共有</tspan><tspan x="0" y="3551">サービスにおける患者サマリーに、療養計画書での記載事項を入</tspan><tspan x="0" y="3587">力し、診療録にその記録及び患者の同意を得た旨を残している場</tspan><tspan x="0" y="3623">合は、療養計画書の作成及び交付をしているものとみなすものと</tspan><tspan x="0" y="3659">する。ただし、この場合においても、(2)のとおり、生活習慣病</tspan><tspan x="0" y="3695">管理料(Ⅰ)を算定するにあたっては、服薬、運動、休養、栄養、</tspan><tspan x="0" y="3731">喫煙及び飲酒等の生活習慣に関する総合的な治療管理を行う旨、</tspan><tspan x="0" y="3767">丁寧に説明を行い、患者の同意を得ることとする。</tspan></tspan><tspan x="0" y="3803"></tspan><tspan text-decoration="line-through"><tspan x="0" y="3839">（６） 当該月に生活習慣病管理料を算定した患者の病状の悪化</tspan><tspan x="0" y="3875">等の場合には、翌月に生活習慣病管理料を算定しないことができ</tspan><tspan x="0" y="3911">る。</tspan></tspan><tspan x="0" y="3947"></tspan><tspan x="0" y="3983" text-decoration="underline">（６）</tspan><tspan y="3983" xml:space="preserve"> 同一保険医療機関において、脂質異常症、高血圧症又は</tspan><tspan x="0" y="4019">糖尿病を主病とする患者について、生活習慣病管理料を算定する</tspan><tspan x="0" y="4055">ものと算定しないものが混在するような算定を行うことができる</tspan><tspan x="0" y="4091">ものとする。</tspan><tspan x="0" y="4127"></tspan><tspan x="0" y="4163" text-decoration="underline">（７）</tspan><tspan y="4163" xml:space="preserve"> 糖尿病又は高血圧症の患者については、治療効果が十分</tspan><tspan x="0" y="4199">でない等のため生活習慣に関する管理方針の変更、薬物療法の導</tspan><tspan x="0" y="4235">入、投薬内容の変更等、管理方針を変更した場合に、その理由及</tspan><tspan x="0" y="4271">び内容等を診療録に記載していること。</tspan><tspan x="0" y="4307"></tspan><tspan x="0" y="4343" text-decoration="underline">（８）</tspan><tspan y="4343" xml:space="preserve"> 学会等の診療ガイドライン等や診療データベース等の診</tspan><tspan x="0" y="4379">療支援情報を参考にする。</tspan><tspan x="0" y="4415"></tspan><tspan text-decoration="underline"><tspan x="0" y="4451">（９）患者の状態に応じ、28 日以上の長期の投薬を行うこと又</tspan><tspan x="0" y="4487">はリフィル処方箋を交付することについて、当該対応が可能であ</tspan><tspan x="0" y="4523">ることを当該保険医療機関の見やすい場所に掲示するとともに、</tspan><tspan x="0" y="4559">患者から求められた場合に適切に対応すること。</tspan></tspan><tspan x="0" y="4595"></tspan><tspan x="0" y="4631">（10） 本管理料を算定する患者について、保険者から特定保健</tspan><tspan x="0" y="4667">指導を行う目的で情報提供の求 めがある場合には、患者の同意</tspan><tspan x="0" y="4703">の有無を確認し療養計画書に記載するとともに、患者の同 意が</tspan><tspan x="0" y="4739">得られている場合は必要な協力を行うこと。</tspan><tspan x="0" y="4775"></tspan><tspan x="0" y="4811">（11） 糖尿病の患者については、患者の状態に応じて、年１回</tspan><tspan x="0" y="4847">程度眼科の医師の診察を受けるよう指導を行うこと。</tspan><tspan y="4847" text-decoration="underline">また、糖尿</tspan><tspan x="0" y="4883" text-decoration="underline">病の患者について、歯周病の診断と治療のため、歯科受診の推奨</tspan><tspan x="0" y="4919" text-decoration="underline">を行うこと。</tspan><tspan x="0" y="4955"></tspan><tspan x="0" y="4991">（12） 「注３」に規定する加算については、中等度以上の糖尿</tspan><tspan x="0" y="5027">病（２型糖尿病の患者であってインスリン製剤を使用していない</tspan><tspan x="0" y="5063">ものに限る。）の患者を対象とし、必要な指導を行った場合に１</tspan><tspan x="0" y="5099">年に１回に限り算定する。なお、中等度以上の糖尿病の患者と</tspan><tspan x="0" y="5135">は、当該加算を算定する当月若しくは前月においてヘモグロビン</tspan><tspan x="0" y="5171">Ａ１ｃ（ＨｂＡ１ｃ）が JDS 値で 8.0％以上（NGSP 値で 8.4％</tspan><tspan x="0" y="5207">以上）の者をいう。</tspan><tspan x="0" y="5243"></tspan><tspan x="0" y="5279">（13） 「注３」の加算を算定する患者に対しては、患者教育の</tspan><tspan x="0" y="5315">観点から血糖自己測定器を用いて月 20 回以上血糖を自己測定さ</tspan><tspan x="0" y="5351">せ、その検査値や生活状況等を報告させるとともに、その報告に</tspan><tspan x="0" y="5387">基づき、必要な指導を行い療養計画に反映させること。</tspan><tspan x="0" y="5423"></tspan><tspan x="0" y="5459">当該加算は、血糖試験紙（テスト・テープ）又は固定化酵素電極</tspan><tspan x="0" y="5495">（バイオセンサー）を給付し、在宅で血糖の自己測定をさせ、そ</tspan><tspan x="0" y="5531">の記録に基づき指導を行った場合に算定するものであり、血糖試</tspan><tspan x="0" y="5567">験紙、固定化酵素電極、穿刺器、穿刺針及び測定機器を患者に給</tspan><tspan x="0" y="5603">付又は 貸与した場合における費用その他血糖自己測定に係る全</tspan><tspan x="0" y="5639">ての費用は当該加算点数に含まれ、 別に算定できない。</tspan><tspan x="0" y="5675"></tspan><tspan x="0" y="5711">（14） 「注４」に規定する外来データ提出加算を算定する場合</tspan><tspan x="0" y="5747">には、以下の要件を満たすこと。</tspan><tspan x="0" y="5783"></tspan><tspan x="0" y="5819">ア 厚生労働省が毎年実施する「外来医療、在宅医療、リハビリ</tspan><tspan x="0" y="5855">テーション医療の影響評価に係る調査」（以下「外来医療等調</tspan><tspan x="0" y="5891">査」という。）に準拠したデータを正確に作成し、 継続して提</tspan><tspan x="0" y="5927">出されることを評価したものである。</tspan><tspan x="0" y="5963"></tspan><tspan x="0" y="5999">提出されたデータについては、特定の患者個人を特定できないよ</tspan><tspan x="0" y="6035">うに集計し、厚生労 働省保険局において外来医療等に係る実態</tspan><tspan x="0" y="6071">の把握・分析等のために適宜活用されるもの である。</tspan><tspan x="0" y="6107"></tspan><tspan x="0" y="6143">イ 当該加算は、データ提出の実績が認められた保険医療機関に</tspan><tspan x="0" y="6179">おいて、生活習慣病管理料を現に算定している患者について、</tspan><tspan x="0" y="6215">データを提出する外来診療に限り算定する。</tspan><tspan x="0" y="6251"></tspan><tspan x="0" y="6287">ウ データの提出を行っていない場合又はデータの提出（データ</tspan><tspan x="0" y="6323">の再照会に係る提出も含む。）に遅延等が認められた場合、当該</tspan><tspan x="0" y="6359">月の翌々月以降について、算定できない。なお、 遅延等とは、</tspan><tspan x="0" y="6395">厚生労働省が調査の一部事務を委託する調査事務局宛てに、外来</tspan><tspan x="0" y="6431">医療等調 査の調査実施説明資料（以下「調査実施説明資料」と</tspan><tspan x="0" y="6467">いう。）に定められた期限までに、 当該医療機関のデータが提</tspan><tspan x="0" y="6503">出されていない場合（提出時刻が確認できない手段等、調査実施</tspan><tspan x="0" y="6539">説明資料にて定められた提出方法以外の方法で提出された場合を</tspan><tspan x="0" y="6575">含む。）、提出されたデータが調査実施説明資料に定められた</tspan><tspan x="0" y="6611">データと異なる内容であった場合（データ が格納されていない</tspan><tspan x="0" y="6647">空の媒体が提出された場合を含む。）をいう。</tspan><tspan x="0" y="6683"></tspan><tspan x="0" y="6719">また、算定ができなくなった月以降、再度、データ提出の実績が</tspan><tspan x="0" y="6755">認められた場合は、翌々月以降について、算定ができる。</tspan><tspan x="0" y="6791"></tspan><tspan x="0" y="6827">エ データの作成は３月単位で行うものとし、作成されたデータ</tspan><tspan x="0" y="6863">には第１月の初日から第３月の末日までにおいて対象となる診療</tspan><tspan x="0" y="6899">に係るデータが全て含まれていなければならな い。</tspan><tspan x="0" y="6935"></tspan><tspan x="0" y="6971">オ イの「データ提出の実績が認められた保険医療機関」とは、</tspan><tspan x="0" y="7007">データの提出が厚生労働省保険局医療課において確認され、その</tspan><tspan x="0" y="7043">旨を通知された保険医療機関をいう。</tspan><tspan x="0" y="7079"></tspan><tspan x="0" y="7115"></tspan><tspan text-decoration="underline"><tspan x="0" y="7151">生活習慣病管理料(Ⅱ) 　 ●●点</tspan><tspan x="0" y="7187">［算定要件］</tspan></tspan><tspan x="0" y="7223"></tspan><tspan text-decoration="underline"><tspan x="0" y="7259">（１）別に厚生労働大臣が定める施設基準を満たす保険医療機関</tspan><tspan x="0" y="7295">（許可病床数が●●床未満の病院又は診療所に限る。）におい</tspan><tspan x="0" y="7331">て、脂質異常症、高血圧症又は糖尿病を主病とする患者（入院中</tspan><tspan x="0" y="7367">の患者をく。）に対して、当該患者の同意を得て治療計画を策定</tspan><tspan x="0" y="7403">し、当該治療計画に基づき、生活習慣に関する総合的な治療管理</tspan><tspan x="0" y="7439">を行った場合に、月●回に限り算定する。</tspan></tspan><tspan x="0" y="7475"></tspan><tspan text-decoration="underline"><tspan x="0" y="7511">（１）生活習慣病管理を受けている患者に対して行った区分番号</tspan><tspan x="0" y="7547">Ａ００１の注８に掲げる医学管理及び第２章第１部医学管理等</tspan><tspan x="0" y="7583">（区分番号Ｂ００１の 20 に掲げる糖尿病合併症管理料、区分番</tspan><tspan x="0" y="7619">号Ｂ００１の22 に掲げるがん性疼痛緩和指導管理料、区分番号</tspan><tspan x="0" y="7655">Ｂ００１の 24 に掲げる外来緩和ケア管理料、区分番号Ｂ００１</tspan><tspan x="0" y="7691">の 27 に掲げる糖尿病透析予防指導管理料及び区分番号Ｂ●●に</tspan><tspan x="0" y="7727">掲げる慢性腎臓病透析予防指導管理料を除く。）の費用は、生活</tspan><tspan x="0" y="7763">習慣病管理料(Ⅱ)に含まれるものとする。</tspan></tspan><tspan x="0" y="7799"></tspan><tspan text-decoration="underline"><tspan x="0" y="7835">（３）生活習慣病管理料(Ⅰ)を算定した日の属する月から起算し</tspan><tspan x="0" y="7871">て●月以内の期間においては、生活習慣病管理料(Ⅱ)は算定でき</tspan><tspan x="0" y="7907">ない。</tspan></tspan></text>
    <text id="_生活習慣病管理料_算定要件_生活習慣病管理料_脂質異常症を主病とする場合_570点_高血圧症を主病とする場合_620点_糖尿病を主病とする場合_720点_注_保険医療機関_許可病床数が200床未満の病院又は診療所に限る_において_脂質異常症_高血圧症又は糖尿病を主病とする患者_入院中の患者を除く_に対して_当該患者の同意を得て治療計画を策定し_当該治療計画に基づき_生_活習慣に関する総合的な治療管理を行った場合に_月_回に限り算定する_ただ_し_糖尿病を主病と" data-name="【生活習慣病管理料】
［算定要件］
Ｂ００１―３ 生活習慣病管理料
１ 脂質異常症を主病とする場合　570点
２ 高血圧症を主病とする場合　620点
３ 糖尿病を主病とする場合　720点

注
１ 保険医療機関（許可病床数が200床未満の病院又は診療所に限る。）において 、脂質異常症、高血圧症又は糖尿病を主病とする患者（入院中の患者を除く。） に対して、当該患者の同意を得て治療計画を策定し、当該治療計画に基づき、生 活習慣に関する総合的な治療管理を行った場合に、月１回に限り算定する。ただ し、糖尿病を主病と" transform="translate(980 5073.498)" fill="#333" font-size="20" font-family="NotoSansJP-Regular, Noto Sans JP"><tspan x="0" y="23">【生活習慣病管理料】</tspan><tspan x="0" y="59">［算定要件］</tspan><tspan x="0" y="95">Ｂ００１―３ </tspan><tspan y="95" text-decoration="underline">生活習慣病管理料</tspan><tspan x="0" y="131">１ 脂質異常症を主病とする場合　570点</tspan><tspan x="0" y="167">２ 高血圧症を主病とする場合　620点</tspan><tspan x="0" y="203">３ 糖尿病を主病とする場合　720点</tspan><tspan x="0" y="239"></tspan><tspan x="0" y="275">注</tspan><tspan x="0" y="311">１ 保険医療機関（許可病床数が200床未満の病院又は診療所に限</tspan><tspan x="0" y="347">る。）において 、脂質異常症、高血圧症又は糖尿病を主病とす</tspan><tspan x="0" y="383">る患者（入院中の患者を除く。） に対して、当該患者の同意を</tspan><tspan x="0" y="419">得て治療計画を策定し、当該治療計画に基づき、生 活習慣に関</tspan><tspan x="0" y="455">する総合的な治療管理を行った場合に、月１回に限り算定する。</tspan><tspan x="0" y="491">ただ し、糖尿病を主病とする場合にあっては、区分番号Ｃ１０</tspan><tspan x="0" y="527">１に掲げる在宅自己注射指導管理料を算定しているときは、算定</tspan><tspan x="0" y="563">できない。</tspan><tspan x="0" y="599"></tspan><tspan x="0" y="635">２ 生活習慣病管理を受けている患者に対して行った第２章第１</tspan><tspan x="0" y="671">部医学管理等（区 分番号Ｂ００１の20に掲げる糖尿病合併症管</tspan><tspan x="0" y="707">理料、区分番号Ｂ００１の22に掲げ るがん性疼痛緩和指導管理</tspan><tspan x="0" y="743">料、区分番号Ｂ００１の24に掲げる外来緩和ケア管理 料及び区</tspan><tspan x="0" y="779">分番号Ｂ００１の27に掲げる糖尿病透析予防指導管理料を除</tspan><tspan x="0" y="815">く。）、第３部検査、第６部注射及び第13部病理診断の費用</tspan><tspan x="0" y="851">は、</tspan><tspan y="851" text-decoration="underline">生活習慣病管理料</tspan><tspan y="851">に含まれ るものとする。</tspan><tspan x="0" y="887"></tspan><tspan x="0" y="923"></tspan><tspan x="0" y="959"></tspan><tspan x="0" y="995">３ 糖尿病を主病とする患者（２型糖尿病の患者であってインス</tspan><tspan x="0" y="1031">リン製剤を使用していないものに限る。）に対して、血糖自己測</tspan><tspan x="0" y="1067">定値に基づく指導を行った場合は 、血糖自己測定指導加算とし</tspan><tspan x="0" y="1103">て、年１回に限り所定点数に500点を加算する。</tspan><tspan x="0" y="1139"></tspan><tspan x="0" y="1175">４ 別に厚生労働大臣が定める施設基準に適合しているものとし</tspan><tspan x="0" y="1211">て地方厚生局長等に届け出た保険医療機関において、当該保険医</tspan><tspan x="0" y="1247">療機関における診療報酬の請求状況、生活習慣病の治療管理の状</tspan><tspan x="0" y="1283">況等の診療の内容に関するデータを継続して厚生労働省に提出し</tspan><tspan x="0" y="1319">ている場合は、外来データ提出加算として、50点を所定点数に</tspan><tspan x="0" y="1355">加算する。</tspan><tspan x="0" y="1391"></tspan><tspan x="0" y="1427"></tspan><tspan x="0" y="1463"></tspan><tspan x="0" y="1499"></tspan><tspan x="0" y="1535"></tspan><tspan x="0" y="1571">通知</tspan><tspan x="0" y="1607">（１） </tspan><tspan y="1607" text-decoration="underline">生活習慣病管理料</tspan><tspan y="1607">は、脂質異常症、高血圧症又は糖尿病</tspan><tspan x="0" y="1643">を主病とする患者の治療においては生活習慣に関する総合的な治</tspan><tspan x="0" y="1679">療管理が重要であることから設定されたものであり、治療計画を</tspan><tspan x="0" y="1715">策定し、当該治療計画に基づき、服薬、運動、休養、栄養、喫</tspan><tspan x="0" y="1751">煙、家庭での体重や血圧の測定、飲酒及びその他療養を行うに当</tspan><tspan x="0" y="1787">たっての問題点等の生活習慣に関する総合 的な治療管理を行っ</tspan><tspan x="0" y="1823">た場合に、許可病床数が 200 床未満の病院及び診療所である保</tspan><tspan x="0" y="1859">険医療機関において算定する。この場合において、当該治療計画</tspan><tspan x="0" y="1895">に基づく総合的な治療管理は、看護師、薬剤師、管理栄養士等の</tspan><tspan x="0" y="1931">多職種と連携して</tspan><tspan y="1931" text-decoration="underline">実施しても差し支えない</tspan><tspan y="1931">。なお、区分番号「Ａ</tspan><tspan x="0" y="1967">０００」初診料を算定した日の属する月においては、本管理料は</tspan><tspan x="0" y="2003">算定しない。</tspan><tspan x="0" y="2039"></tspan><tspan x="0" y="2075">（２） </tspan><tspan y="2075" text-decoration="underline">生活習慣病管理料</tspan><tspan y="2075">は、服薬、運動、休養、栄養、喫煙及</tspan><tspan x="0" y="2111">び飲酒等の生活習慣に関する総合的な治療管理を行う旨、患者に</tspan><tspan x="0" y="2147">対して療養計画書（療養計画書の様式は、別紙様式９又 はこれ</tspan><tspan x="0" y="2183">に準じた様式とする。）により丁寧に説明を行い、患者の同意を</tspan><tspan x="0" y="2219">得るとともに、当該計画書に患者の署名を受けた場合に算定でき</tspan><tspan x="0" y="2255">るものである。また、交付した療養計画書 の写しは診療録に添</tspan><tspan x="0" y="2291">付しておくものとする。なお、療養計画書は、当該患者の治療管</tspan><tspan x="0" y="2327">理において必要な項目のみを記載することで差し支えないが、糖</tspan><tspan x="0" y="2363">尿病の患者については血糖値 及びＨｂＡ１ｃの値を、高血圧症</tspan><tspan x="0" y="2399">の患者については血圧の値を必ず記載すること。</tspan><tspan x="0" y="2435"></tspan><tspan x="0" y="2471"></tspan><tspan x="0" y="2507"></tspan><tspan x="0" y="2543"></tspan><tspan x="0" y="2579"></tspan><tspan x="0" y="2615">（３） 当該患者の診療に際して行った第１部医学管理等（「Ｂ</tspan><tspan x="0" y="2651">００１」の「20」糖尿病合併症管理料、同「22」がん性疼痛緩</tspan><tspan x="0" y="2687">和指導管理料、同「24」外来緩和ケア管理料及び同「27」 糖尿</tspan><tspan x="0" y="2723">病透析予防指導管理料を除く。）、第３部検査、第６部注射及び</tspan><tspan x="0" y="2759">第 13 部病理診断の費用は全て所定点数に含まれる。</tspan><tspan x="0" y="2795"></tspan><tspan x="0" y="2831"></tspan><tspan x="0" y="2867"></tspan><tspan x="0" y="2903">（４）</tspan><tspan y="2903" xml:space="preserve" text-decoration="underline"> 生活習慣病管理料を算定している患者に対しては、少な</tspan><tspan x="0" y="2939" text-decoration="underline">くとも１月に１回以上の総合的な治療管理が行われなければなら</tspan><tspan x="0" y="2975" text-decoration="underline">ない。</tspan><tspan x="0" y="3011"></tspan><tspan x="0" y="3047" text-decoration="underline">（５）</tspan><tspan y="3047" xml:space="preserve"> 生活習慣病管理料を算定する月においては、服薬、運</tspan><tspan x="0" y="3083">動、休養、栄養、喫煙、家庭での体重や血圧の測定、飲酒、特定</tspan><tspan x="0" y="3119">健診・特定保健指導に係る情報提供及びその他療養を行う に当</tspan><tspan x="0" y="3155">たっての問題点等の生活習慣に関する総合的な治療管理に係る療</tspan><tspan x="0" y="3191">養計画書（療養計画 書の様式は、別紙様式９の２又はこれに準</tspan><tspan x="0" y="3227">じた様式とする。）を交付するものとするが、 当該療養計画書</tspan><tspan x="0" y="3263">の内容に変更がない場合はこの限りでない。ただし、その場合に</tspan><tspan x="0" y="3299">おいても ４月に１回以上は交付するものとする。なお、交付し</tspan><tspan x="0" y="3335">た当該療養計画書の写しは診療録に 添付しておくものとする。</tspan><tspan x="0" y="3371"></tspan><tspan x="0" y="3407"></tspan><tspan x="0" y="3443"></tspan><tspan x="0" y="3479"></tspan><tspan x="0" y="3515"></tspan><tspan x="0" y="3551"></tspan><tspan x="0" y="3587"></tspan><tspan x="0" y="3623"></tspan><tspan x="0" y="3659"></tspan><tspan x="0" y="3695"></tspan><tspan x="0" y="3731"></tspan><tspan x="0" y="3767"></tspan><tspan x="0" y="3803"></tspan><tspan text-decoration="underline"><tspan x="0" y="3839"></tspan><tspan x="0" y="3875"></tspan><tspan x="0" y="3911"></tspan><tspan x="0" y="3947">（６） 当該月に生活習慣病管理料を算定した患者の病状の悪化</tspan><tspan x="0" y="3983">等の場合には、翌月に生活習慣病管理料を算定しないことができ</tspan><tspan x="0" y="4019">る。</tspan></tspan><tspan x="0" y="4055"></tspan><tspan x="0" y="4091" text-decoration="underline">（７）</tspan><tspan y="4091" xml:space="preserve"> 同一保険医療機関において、脂質異常症、高血圧症又は</tspan><tspan x="0" y="4127">糖尿病を主病とする患者について、生活習慣病管理料を算定する</tspan><tspan x="0" y="4163">ものと算定しないものが混在するような算定を行うことができる</tspan><tspan x="0" y="4199">ものとする。</tspan><tspan x="0" y="4235"></tspan><tspan x="0" y="4271" text-decoration="underline">（８）</tspan><tspan y="4271" xml:space="preserve"> 糖尿病又は高血圧症の患者については、治療効果が十分</tspan><tspan x="0" y="4307">でない等のため生活習慣に関する管理方針の変更、薬物療法の導</tspan><tspan x="0" y="4343">入、投薬内容の変更等、管理方針を変更した場合に、その理由及</tspan><tspan x="0" y="4379">び内容等を診療録に記載していること。</tspan><tspan x="0" y="4415"></tspan><tspan x="0" y="4451" text-decoration="underline">（９）</tspan><tspan y="4451" xml:space="preserve"> 学会等の診療ガイドライン等や診療データベース等の診</tspan><tspan x="0" y="4487">療支援情報を、</tspan><tspan y="4487" text-decoration="underline">必要に応じて</tspan><tspan y="4487">、参考にする。</tspan><tspan x="0" y="4523"></tspan><tspan x="0" y="4559"></tspan><tspan x="0" y="4595"></tspan><tspan x="0" y="4631">（10） 本管理料を算定する患者について、保険者から特定保健</tspan><tspan x="0" y="4667">指導を行う目的で情報提供の求 めがある場合には、患者の同意</tspan><tspan x="0" y="4703">の有無を確認し療養計画書に記載するとともに、患者の同 意が</tspan><tspan x="0" y="4739">得られている場合は必要な協力を行うこと。</tspan><tspan x="0" y="4775"></tspan><tspan x="0" y="4811">（11） 糖尿病の患者については、患者の状態に応じて、年１回</tspan><tspan x="0" y="4847">程度眼科の医師の診察を受けるよう指導を行うこと。</tspan><tspan x="0" y="4883"></tspan><tspan x="0" y="4919"></tspan><tspan x="0" y="4955"></tspan><tspan x="0" y="4991">（12） 「注３」に規定する加算については、中等度以上の糖尿</tspan><tspan x="0" y="5027">病（２型糖尿病の患者であってインスリン製剤を使用していない</tspan><tspan x="0" y="5063">ものに限る。）の患者を対象とし、必要な指導を行った場合に１</tspan><tspan x="0" y="5099">年に１回に限り算定する。なお、中等度以上の糖尿病の患者と</tspan><tspan x="0" y="5135">は、当該加算を算定する当月若しくは前月においてヘモグロビン</tspan><tspan x="0" y="5171">Ａ１ｃ（ＨｂＡ１ｃ）が JDS 値で 8.0％以上（NGSP 値で 8.4％</tspan><tspan x="0" y="5207">以上）の者をいう。</tspan><tspan x="0" y="5243"></tspan><tspan x="0" y="5279">（13） 「注３」の加算を算定する患者に対しては、患者教育の</tspan><tspan x="0" y="5315">観点から血糖自己測定器を用いて月 20 回以上血糖を自己測定さ</tspan><tspan x="0" y="5351">せ、その検査値や生活状況等を報告させるとともに、その報告に</tspan><tspan x="0" y="5387">基づき、必要な指導を行い療養計画に反映させること。</tspan><tspan x="0" y="5423"></tspan><tspan x="0" y="5459">当該加算は、血糖試験紙（テスト・テープ）又は固定化酵素電極</tspan><tspan x="0" y="5495">（バイオセンサー）を給付し、在宅で血糖の自己測定をさせ、そ</tspan><tspan x="0" y="5531">の記録に基づき指導を行った場合に算定するものであり、血糖試</tspan><tspan x="0" y="5567">験紙、固定化酵素電極、穿刺器、穿刺針及び測定機器を患者に給</tspan><tspan x="0" y="5603">付又は 貸与した場合における費用その他血糖自己測定に係る全</tspan><tspan x="0" y="5639">ての費用は当該加算点数に含まれ、 別に算定できない。</tspan><tspan x="0" y="5675"></tspan><tspan x="0" y="5711">（14） 「注４」に規定する外来データ提出加算を算定する場合</tspan><tspan x="0" y="5747">には、以下の要件を満たすこと。</tspan><tspan x="0" y="5783"></tspan><tspan x="0" y="5819">ア 厚生労働省が毎年実施する「外来医療、在宅医療、リハビリ</tspan><tspan x="0" y="5855">テーション医療の影響評価に係る調査」（以下「外来医療等調</tspan><tspan x="0" y="5891">査」という。）に準拠したデータを正確に作成し、 継続して提</tspan><tspan x="0" y="5927">出されることを評価したものである。</tspan><tspan x="0" y="5963"></tspan><tspan x="0" y="5999">提出されたデータについては、特定の患者個人を特定できないよ</tspan><tspan x="0" y="6035">うに集計し、厚生労 働省保険局において外来医療等に係る実態</tspan><tspan x="0" y="6071">の把握・分析等のために適宜活用されるもの である。</tspan><tspan x="0" y="6107"></tspan><tspan x="0" y="6143">イ 当該加算は、データ提出の実績が認められた保険医療機関に</tspan><tspan x="0" y="6179">おいて、生活習慣病管理料を現に算定している患者について、</tspan><tspan x="0" y="6215">データを提出する外来診療に限り算定する。</tspan><tspan x="0" y="6251"></tspan><tspan x="0" y="6287">ウ データの提出を行っていない場合又はデータの提出（データ</tspan><tspan x="0" y="6323">の再照会に係る提出も含む。）に遅延等が認められた場合、当該</tspan><tspan x="0" y="6359">月の翌々月以降について、算定できない。なお、 遅延等とは、</tspan><tspan x="0" y="6395">厚生労働省が調査の一部事務を委託する調査事務局宛てに、外来</tspan><tspan x="0" y="6431">医療等調 査の調査実施説明資料（以下「調査実施説明資料」と</tspan><tspan x="0" y="6467">いう。）に定められた期限までに、 当該医療機関のデータが提</tspan><tspan x="0" y="6503">出されていない場合（提出時刻が確認できない手段等、調査実施</tspan><tspan x="0" y="6539">説明資料にて定められた提出方法以外の方法で提出された場合を</tspan><tspan x="0" y="6575">含む。）、提出されたデータが調査実施説明資料に定められた</tspan><tspan x="0" y="6611">データと異なる内容であった場合（データ が格納されていない</tspan><tspan x="0" y="6647">空の媒体が提出された場合を含む。）をいう。</tspan><tspan x="0" y="6683"></tspan><tspan x="0" y="6719">また、算定ができなくなった月以降、再度、データ提出の実績が</tspan><tspan x="0" y="6755">認められた場合は、翌々月以降について、算定ができる。</tspan><tspan x="0" y="6791"></tspan><tspan x="0" y="6827">エ データの作成は３月単位で行うものとし、作成されたデータ</tspan><tspan x="0" y="6863">には第１月の初日から第３月の末日までにおいて対象となる診療</tspan><tspan x="0" y="6899">に係るデータが全て含まれていなければならな い。</tspan><tspan x="0" y="6935"></tspan><tspan x="0" y="6971">オ イの「データ提出の実績が認められた保険医療機関」とは、</tspan><tspan x="0" y="7007">データの提出が厚生労働省保険局医療課において確認され、その</tspan><tspan x="0" y="7043">旨を通知された保険医療機関をいう。</tspan></text>
  </g>
</svg>
