<svg xmlns="http://www.w3.org/2000/svg" width="177.344" height="52" viewBox="0 0 177.344 52">
  <g id="Group_475" data-name="Group 475" transform="translate(-44.953 -32.167)">
    <path id="Path_202" data-name="Path 202" d="M7.063-43.281a2.512,2.512,0,0,1-1.8-.734A2.5,2.5,0,0,1,4.5-45.906a2.31,2.31,0,0,1,.781-1.8,2.588,2.588,0,0,1,1.781-.7,2.755,2.755,0,0,1,1.828.672,2.266,2.266,0,0,1,.8,1.828,2.506,2.506,0,0,1-.781,1.859A2.547,2.547,0,0,1,7.063-43.281ZM5.531,0V-34.562H8.625V0ZM62.344,0V-34.344q0-1.25.375-7.125h-.125q-1.063,2.719-1.75,4.219L43.625,0H42.531L25.25-37.062a27.724,27.724,0,0,1-1.594-4.562H23.5q.25,3.25.25,6.469V0H20.406V-48.406H23.5l18.063,39a9.464,9.464,0,0,1,.375.906q.187.563.438,1.156.344.875.688,1.938h.219l.375-1.062q.031-.156,1.156-3.219L62.594-48.406h2.969V0ZM78.031-17.156q0,7.125,3.281,11.141A11.029,11.029,0,0,0,90.344-2a18.375,18.375,0,0,0,11.344-4.281v3.313A20.211,20.211,0,0,1,89.719.844a13.573,13.573,0,0,1-10.812-4.8q-4.125-4.8-4.125-13.516a19.279,19.279,0,0,1,4.313-12.75,13.868,13.868,0,0,1,11.188-5.187q6.437,0,9.891,4.531t3.453,12.344v1.375Zm22.344-2.812q-.219-6-2.875-9.3a8.911,8.911,0,0,0-7.344-3.3,10.817,10.817,0,0,0-8.062,3.25q-3.187,3.25-3.937,9.344ZM136.719,0V-6.281h-.125a12.582,12.582,0,0,1-5,5.2A14.608,14.608,0,0,1,124.125.844a13.129,13.129,0,0,1-10.406-4.656q-4.031-4.656-4.031-12.875,0-8.344,4.406-13.531a14.3,14.3,0,0,1,11.438-5.187q7.75,0,11.063,6.375h.125V-51.156h3.125V0Zm0-21.031a11.728,11.728,0,0,0-3.047-8.172,10.528,10.528,0,0,0-8.2-3.359,11.284,11.284,0,0,0-8.984,4.172q-3.547,4.172-3.547,11.453,0,7.156,3.188,11.047A10.141,10.141,0,0,0,124.344-2q5.906,0,9.141-3.656a13.01,13.01,0,0,0,3.234-8.937ZM177.813,0,166.656-18.469a33.172,33.172,0,0,1-1.781-3.375h-.156a25.668,25.668,0,0,1-1.937,3.375L151.438,0h-4l15.281-24.406-14.375-24h4.031l10.813,18.188q.844,1.438,1.75,3.25h.156l1.781-3.25,10.75-18.187h3.906L167-24.469,181.844,0Z" transform="translate(40.453 83.323)" fill="#333"/>
  </g>
</svg>
