<svg xmlns="http://www.w3.org/2000/svg" width="1743.144" height="50.544" viewBox="0 0 1743.144 50.544">
  <path id="Path_2367" data-name="Path 2367" d="M22.256-15.548a31.779,31.779,0,0,1,4.264-.208h2.34L23.192-12.9c3.952,5.1,4.16,5.356,5.72,6.968a32.519,32.519,0,0,1-7.9,3.12V-9.36a28.976,28.976,0,0,1,.1-3.432,15.615,15.615,0,0,1-3.172.156H6.916c-1.716,0-2.6-.052-3.848-.156a30.992,30.992,0,0,1,.208,3.9v8.32c0,1.664-.1,3.38-.26,5.148h7.436V2.444H14.04v1.4h7.124a23.615,23.615,0,0,1-.156-3.8V-.936A29.334,29.334,0,0,1,24.232,4.68,41.876,41.876,0,0,0,35.152-.676,45.382,45.382,0,0,0,47.84,4.68a44.067,44.067,0,0,1,3.432-7.8A35.029,35.029,0,0,1,41.236-6.292a41.4,41.4,0,0,0,6.188-10.764,21.594,21.594,0,0,1,1.04-2.444l-3.64-3.536a23.225,23.225,0,0,1-3.432.156H27.352c3.224-3.432,4.576-6.916,4.784-12.844h3.536v7.332c0,1.872.312,2.652,1.3,3.12,1.092.572,2.548.728,6.968.728,5.876,0,6.76-1.248,7.228-10.244a27.624,27.624,0,0,1-5.928-2.34c-.1,5.668-.156,5.772-1.508,5.772-.832,0-1.04-.1-1.04-.624v-7.28a38.451,38.451,0,0,1,.156-3.848,36.933,36.933,0,0,1-4.316.208H28.86a33.343,33.343,0,0,1-4.108-.208,19.4,19.4,0,0,1,.208,3.068c0,4.212-.468,7.124-1.4,9.1a8.8,8.8,0,0,1-2.808,3.38,19.813,19.813,0,0,1-2.86.1H6.6a25.489,25.489,0,0,1-3.12-.1v5.876a24.6,24.6,0,0,1,3.12-.1H17.888a23.219,23.219,0,0,1,3.016.1V-26.52a43.06,43.06,0,0,1,4.628,3.64,19.6,19.6,0,0,1-3.276-.208Zm16.276-.208A21.819,21.819,0,0,1,34.84-10.5a29.03,29.03,0,0,1-4.472-5.252ZM10.3-7.02H14.04v3.38H10.3ZM3.38-37.388c1.4-.1,2.652-.156,4.732-.156h8.06c2.236,0,3.172.052,4.732.156v-6.084a37.714,37.714,0,0,1-4.732.208H8.112a37.714,37.714,0,0,1-4.732-.208ZM1.82-29.016a30.935,30.935,0,0,1,4.212-.208h11.7a24.861,24.861,0,0,1,4.108.156v-6.916a40.887,40.887,0,0,1-4.212.156H6.032a23.535,23.535,0,0,1-4.212-.26ZM3.484-14.3A23.219,23.219,0,0,1,6.5-14.4H17.784a24.6,24.6,0,0,1,3.12.1v-5.876a21.534,21.534,0,0,1-3.016.1H6.6a24.158,24.158,0,0,1-3.12-.1ZM73.528-37.492H62.972a65.614,65.614,0,0,1-7.332-.364v8.268a57.141,57.141,0,0,1,7.332-.364H93.028a57.488,57.488,0,0,1,7.384.364v-8.268a66.666,66.666,0,0,1-7.384.364H81.848V-40.3a19.57,19.57,0,0,1,.312-3.692H73.216a20.371,20.371,0,0,1,.312,3.692ZM61.516-4.68a61.083,61.083,0,0,1-7.592-.364V3.224a62.2,62.2,0,0,1,7.592-.364H94.64a60.931,60.931,0,0,1,7.488.364V-5.044a60.372,60.372,0,0,1-7.488.364H87.672a149.929,149.929,0,0,0,5.616-15.444c1.456-4.784,1.456-4.784,1.976-6.344l-9.1-2.444a42.693,42.693,0,0,1-1.56,7.644A124.112,124.112,0,0,1,79.144-4.68ZM60.84-25.948A111.069,111.069,0,0,1,66.664-5.876l8.268-2.86a167.365,167.365,0,0,0-6.188-20.072Zm64.376-17.42a38.726,38.726,0,0,1,.26,4.888c.1,7.072.416,17.732.624,21.892a22.616,22.616,0,0,0-3.64-.26c-4.316,0-7.488.884-10.14,2.756a9.413,9.413,0,0,0-4.056,7.8,9.614,9.614,0,0,0,3.588,7.748c2.34,1.716,6.032,2.7,10.244,2.7,4.732,0,8.684-1.248,10.868-3.432a7.968,7.968,0,0,0,2.184-5.876,6.012,6.012,0,0,0-.052-.884,34.914,34.914,0,0,1,10.712,8.164l5.616-8.164c-.572-.364-.728-.468-1.664-1.092-5.928-4.212-9.464-6.084-14.768-7.9-.416-7.072-.416-7.072-.52-9.516,4.68-.1,6.708-.208,11.96-.728,2.132-.208,2.6-.26,3.64-.312l-.572-8.632c-3.328.936-9.1,1.508-15.184,1.508v-.728c0-3.8.156-7.592.364-9.88Zm1.092,34.84v.676a5.247,5.247,0,0,1-.26,2.236c-.52,1.2-2.184,1.976-4.316,1.976-2.6,0-4.212-1.04-4.212-2.756,0-1.612,1.976-2.652,5.1-2.652A11.722,11.722,0,0,1,126.308-8.528ZM166.244-43v.416a25.7,25.7,0,0,1-.208,2.86,150.011,150.011,0,0,0-1.2,18.98c0,1.456.052,4.576.156,6.6v1.04a6.012,6.012,0,0,1-.052.884l8.736-.1a26.759,26.759,0,0,1,.208-4.264,22.059,22.059,0,0,1,5.772-12.064c1.924-2.08,3.692-3.016,5.616-3.016,3.692,0,5.772,3.588,5.772,10.088,0,11.232-6.032,16.12-20.956,17a30.815,30.815,0,0,1,4.16,8.892,53.429,53.429,0,0,0,6.136-1.2,31.286,31.286,0,0,0,11.856-5.408Q200.2-8.528,200.2-21.32c0-6.084-1.4-10.816-4.316-14.456a12.287,12.287,0,0,0-9.412-4.732c-5.564,0-9.776,2.912-13.156,9a69.728,69.728,0,0,1,2.132-11.128ZM209.82-9.672a19.327,19.327,0,0,0,.884,2.756A14.078,14.078,0,0,0,216.06-.208C218.816,1.612,223.5,2.7,228.176,2.7A28.054,28.054,0,0,0,238.992.676a13.027,13.027,0,0,0,4.888-3.9,11.6,11.6,0,0,0,2.08-6.916,10.241,10.241,0,0,0-3.432-7.7c-1.82-1.56-3.536-2.288-6.708-2.756,5.98-1.4,8.944-4.836,8.944-10.348a10.073,10.073,0,0,0-2.912-7.384c-2.964-2.86-7.644-4.42-13.312-4.42-6.344,0-11.128,1.768-14.3,5.2a14.942,14.942,0,0,0-3.484,6.6l11.232,1.612c.78-3.328,2.652-4.784,6.344-4.784,3.432,0,5.408,1.612,5.408,4.42,0,3.328-2.444,4.992-7.384,4.992a45.681,45.681,0,0,1-5.512-.312v8.944c2.028-.208,4.368-.312,6.4-.312a14.969,14.969,0,0,1,4.836.676,4.512,4.512,0,0,1,2.808,4.472c0,3.172-2.548,5.2-6.6,5.2a8.082,8.082,0,0,1-5.98-2.236,5.516,5.516,0,0,1-1.456-3.328Zm58.448,12.22c6.6,0,12.064-2.912,15.184-8.112,1.976-3.276,3.276-9,3.276-14.456A34.589,34.589,0,0,0,284.7-31.98a16.375,16.375,0,0,0-3.8-5.772,17.682,17.682,0,0,0-12.636-4.836c-6.552,0-11.96,2.912-15.132,8.216-1.976,3.276-3.276,8.944-3.276,14.4A34.5,34.5,0,0,0,251.888-8.06a16.375,16.375,0,0,0,3.8,5.772A17.257,17.257,0,0,0,268.268,2.548Zm0-36.348c5.044,0,7.748,4.68,7.748,13.572,0,9.256-2.6,13.936-7.7,13.936-5.148,0-7.8-4.784-7.8-14.092C260.52-28.86,263.38-33.8,268.268-33.8Zm29.848,20.592h-1.2a51.4,51.4,0,0,1-6.188-.312v8.06a52.011,52.011,0,0,1,6.188-.312h16.172V-1.56a48.593,48.593,0,0,1-.312,6.448h8.684a40.725,40.725,0,0,1-.312-6.292V-5.772h10.92a52.306,52.306,0,0,1,6.136.312v-8.06a48.714,48.714,0,0,1-6.136.312h-10.92v-6.76h7.54c2.548,0,4.056.052,5.772.208V-27.3c-1.716.156-3.276.208-6.032.208h-7.28v-4.992h9.36a48.313,48.313,0,0,1,5.98.312v-7.9a46.027,46.027,0,0,1-5.98.312H307.684c.364-.728.52-1.092.78-1.664.572-1.352.624-1.456,1.092-2.392l-8.632-1.456a15.361,15.361,0,0,1-1.3,3.744c-2.132,4.628-5.044,8.216-9.88,12.064a23.567,23.567,0,0,1,5.2,6.864c1.456-1.352,1.924-1.82,3.172-3.12v12.116Zm7.748,0v-6.76h7.228v6.76Zm7.228-18.876v4.992H301.6c-.832,0-1.144,0-1.924-.052a47.769,47.769,0,0,0,3.848-4.94Zm32.032,1.508h.78c.728,0,1.092,0,1.82.052,2.236.052,2.236.052,4.472.052h1.664c-.208.364-.208.364-.988,1.664-.78,1.248-2.86,4.264-4,5.668a35.7,35.7,0,0,1-5.512,5.408l6.6,6.552a33.034,33.034,0,0,1,4.992-5.252c3.64-3.172,7.228-4.992,9.88-4.992a2.148,2.148,0,0,1,2.08,1.3c-2.08.936-2.6,1.144-3.848,1.768a22.905,22.905,0,0,0-7.488,5.564,9.673,9.673,0,0,0-2.548,6.552,8.36,8.36,0,0,0,4.108,7.384c2.808,1.664,6.5,2.392,12.376,2.392a102.625,102.625,0,0,0,12.532-.78,33.588,33.588,0,0,1,4.628-.468l-.572-9.36a49.249,49.249,0,0,1-16.64,2.6c-5.044,0-6.968-.78-6.968-2.756a3.588,3.588,0,0,1,1.352-2.652,11.8,11.8,0,0,1,3.64-2.184l.468-.208a42.682,42.682,0,0,1-.26,5.512l8.476-.26a32.263,32.263,0,0,1-.208-4.472c0-2.288,0-2.34-.052-3.744a86,86,0,0,1,13.26-3.536L386-26.988a21.805,21.805,0,0,1-4.16,1.56c-1.664.52-3.068.988-3.224,1.04-2.756.936-2.756.936-3.64,1.248-1.04-3.38-3.64-5.044-7.956-5.044a15.344,15.344,0,0,0-6.6,1.56,28.171,28.171,0,0,0,2.5-3.848c5.3-.156,11.8-.52,15.5-.884q2.262-.234,4.68-.468l-.312-8.268a76.218,76.218,0,0,1-13.156,1.664c-2.652.156-2.652.156-3.172.208.052-.1.364-.936,1.04-2.444a15.115,15.115,0,0,1,1.092-2.444l-9.516-.728a18.818,18.818,0,0,1-1.612,5.772h-1.456c-5.408,0-8.528-.208-10.764-.728Zm72.228-4.056a51.566,51.566,0,0,0,5.044-1.56V-10.4a31.924,31.924,0,0,1-.312,5.668h8.164a38.221,38.221,0,0,1-.26-5.616V-34.216h3.692V-16.8c0,1.04-.156,1.2-1.2,1.2a10.33,10.33,0,0,1-2.34-.26A20.807,20.807,0,0,1,431.6-8.632c.884.052,1.56.052,1.976.052,3.068,0,5.1-.468,6.24-1.456s1.56-2.288,1.56-4.836V-36.66a37.993,37.993,0,0,1,.208-4.836,32.738,32.738,0,0,1-4.888.156H424.788l-2.6-3.38c-2.236,1.508-8.736,3.484-12.584,3.9a35.721,35.721,0,0,1,.156,4.888v20.384a21.85,21.85,0,0,1-2.444.416l2.028,8.112c.676-.26,1.144-.468,1.872-.728,5.408-1.872,8.008-2.86,10.036-3.692l-.052-7.54c-1.768.676-2.132.832-3.848,1.352ZM393.9-38.48a57.9,57.9,0,0,1,9.256,9.62L409.344-35a61.814,61.814,0,0,0-9.568-9.152Zm.156,21.06a18.845,18.845,0,0,1,3.276-.26h2.184v9.828a26.722,26.722,0,0,1-6.4,3.952l3.38,8.424a70.631,70.631,0,0,0,7.02-5.408C406.952,2.912,410.956,4,421.46,4c6.4,0,16.172-.1,20.436-.26a38.37,38.37,0,0,1,1.924-8.372,209.375,209.375,0,0,1-23.556.988c-5.408,0-8.58-.468-10.66-1.508a6.029,6.029,0,0,1-2.392-2.236v-11.96a49.174,49.174,0,0,1,.156-5.824,36.554,36.554,0,0,1-3.952.156h-5.044a25.93,25.93,0,0,1-4.316-.26Zm62.3-18.252c7.176,1.664,12.116,2.184,23.816,2.652l1.3-8.112c-9.256,0-16.952-.832-22.672-2.5ZM452.5-21.008c1.456-.208,2.5-.364,4.368-.52,6.968-.624,9.776-.936,12.636-1.4-1.768,1.56-2.444,2.184-4.784,4.368C455.884-10.4,450.112-5.512,446.836-3.38l6.708,7.7a93.683,93.683,0,0,1,6.812-7.436c4.108-4.108,6.344-5.616,8.476-5.616a2.306,2.306,0,0,1,1.768.676c.416.52.572,1.3.676,3.328.156,3.016.364,4.056,1.2,5.356,1.508,2.34,4.108,3.328,8.736,3.328a46.251,46.251,0,0,0,7.9-.676A43.519,43.519,0,0,1,494,2.756l-.884-9.048A28.962,28.962,0,0,1,482.352-4.16c-2.028,0-2.7-.78-2.912-3.38-.26-3.744-.416-4.316-1.3-5.616a5.068,5.068,0,0,0-4.368-2.028,5.481,5.481,0,0,0-2.08.364c1.144-.884,6.136-5.2,8.216-7.072a28.588,28.588,0,0,1,4.316-3.536l-4.68-6.032a20.2,20.2,0,0,1-4.836.832,183.043,183.043,0,0,1-19.552,1.2c-1.092,0-1.664-.052-3.12-.156Zm74.464-15.756a58.75,58.75,0,0,1-8.528,1.352c.468-2.652.78-4.16.832-4.472a16.438,16.438,0,0,1,.676-3.016l-9.724-.728v.78a50.153,50.153,0,0,1-.884,7.8h-.988a54.119,54.119,0,0,1-7.9-.52l-.156,8.476a10.48,10.48,0,0,1,1.2-.052h.52c2.236.1,3.328.156,4.992.156h.832c-1.924,9.62-5.3,19.968-8.736,26.624l9.568,3.484c.364-1.248.364-1.248,1.2-3.744,2.236-6.708,2.548-7.852,3.848-12.428,1.456-5.408,2.392-9.256,3.276-14.144,1.612-.1,2.236-.156,4.732-.416l.52,7.384a69.79,69.79,0,0,1,14.612-1.3,46.86,46.86,0,0,1,6.812.364l-.156-8.788C542.412-30,541.32-30,540.956-30a88.407,88.407,0,0,0-13.78.78ZM521.456-17.42c-2.86,4.16-4.056,7.072-4.056,10.088q0,9.828,15.288,9.828a63.694,63.694,0,0,0,10.14-.832c1.248-.156,1.716-.208,2.756-.312l-.624-9.1A39.132,39.132,0,0,1,532.688-5.72c-4.368,0-6.5-1.144-6.5-3.536,0-1.612.832-3.328,2.808-5.668ZM576.888,1.612c3.692,0,5.876.1,8.892.364V-7.852a65.853,65.853,0,0,1-8.32.364H565.344c1.2-2.288,3.12-4.108,7.644-7.228,5.3-3.692,5.824-4.056,7.54-5.564a12.054,12.054,0,0,0,4.784-9.672,11.2,11.2,0,0,0-1.716-6.084c-2.6-4.212-7.956-6.552-14.976-6.552-6.084,0-10.816,1.872-13.78,5.356-2.08,2.444-3.016,4.732-3.8,9.256l10.92,1.144a9.247,9.247,0,0,1,1.3-4.368c1.144-1.768,2.912-2.6,5.408-2.6,3.328,0,5.564,1.664,5.564,4.16,0,2.392-1.092,3.744-5.564,6.76a72.906,72.906,0,0,0-9.256,6.916,26.735,26.735,0,0,0-7.488,11.648,25.882,25.882,0,0,0-1.092,6.136c1.924-.156,3.12-.208,7.8-.208Zm31.772.936c6.6,0,12.064-2.912,15.184-8.112,1.976-3.276,3.276-9,3.276-14.456a34.589,34.589,0,0,0-2.028-11.96,16.376,16.376,0,0,0-3.8-5.772,17.682,17.682,0,0,0-12.636-4.836c-6.552,0-11.96,2.912-15.132,8.216-1.976,3.276-3.276,8.944-3.276,14.4A34.505,34.505,0,0,0,592.28-8.06a16.375,16.375,0,0,0,3.8,5.772A17.257,17.257,0,0,0,608.66,2.548Zm0-36.348c5.044,0,7.748,4.68,7.748,13.572,0,9.256-2.6,13.936-7.7,13.936-5.148,0-7.8-4.784-7.8-14.092C600.912-28.86,603.772-33.8,608.66-33.8ZM657.28,1.612c3.692,0,5.876.1,8.892.364V-7.852a65.853,65.853,0,0,1-8.32.364H645.736c1.2-2.288,3.12-4.108,7.644-7.228,5.3-3.692,5.824-4.056,7.54-5.564a12.054,12.054,0,0,0,4.784-9.672,11.2,11.2,0,0,0-1.716-6.084c-2.6-4.212-7.956-6.552-14.976-6.552-6.084,0-10.816,1.872-13.78,5.356-2.08,2.444-3.016,4.732-3.8,9.256l10.92,1.144a9.247,9.247,0,0,1,1.3-4.368c1.144-1.768,2.912-2.6,5.408-2.6,3.328,0,5.564,1.664,5.564,4.16,0,2.392-1.092,3.744-5.564,6.76a72.906,72.906,0,0,0-9.256,6.916A26.735,26.735,0,0,0,632.32-4.316a25.882,25.882,0,0,0-1.092,6.136c1.924-.156,3.12-.208,7.8-.208ZM670.8-9.672a19.336,19.336,0,0,0,.884,2.756A14.079,14.079,0,0,0,677.04-.208C679.8,1.612,684.476,2.7,689.156,2.7A28.054,28.054,0,0,0,699.972.676a13.027,13.027,0,0,0,4.888-3.9,11.6,11.6,0,0,0,2.08-6.916,10.241,10.241,0,0,0-3.432-7.7c-1.82-1.56-3.536-2.288-6.708-2.756,5.98-1.4,8.944-4.836,8.944-10.348a10.073,10.073,0,0,0-2.912-7.384c-2.964-2.86-7.644-4.42-13.312-4.42-6.344,0-11.128,1.768-14.3,5.2a14.942,14.942,0,0,0-3.484,6.6l11.232,1.612c.78-3.328,2.652-4.784,6.344-4.784,3.432,0,5.408,1.612,5.408,4.42,0,3.328-2.444,4.992-7.384,4.992a45.681,45.681,0,0,1-5.512-.312v8.944c2.028-.208,4.368-.312,6.4-.312a14.969,14.969,0,0,1,4.836.676,4.512,4.512,0,0,1,2.808,4.472c0,3.172-2.548,5.2-6.6,5.2a8.082,8.082,0,0,1-5.98-2.236,5.516,5.516,0,0,1-1.456-3.328Zm48.1-3.536h-1.2a51.4,51.4,0,0,1-6.188-.312v8.06a52.01,52.01,0,0,1,6.188-.312h16.172V-1.56a48.593,48.593,0,0,1-.312,6.448h8.684a40.721,40.721,0,0,1-.312-6.292V-5.772h10.92a52.3,52.3,0,0,1,6.136.312v-8.06a48.713,48.713,0,0,1-6.136.312h-10.92v-6.76h7.54c2.548,0,4.056.052,5.772.208V-27.3c-1.716.156-3.276.208-6.032.208h-7.28v-4.992h9.36a48.311,48.311,0,0,1,5.98.312v-7.9a46.026,46.026,0,0,1-5.98.312H728.468c.364-.728.52-1.092.78-1.664.572-1.352.624-1.456,1.092-2.392l-8.632-1.456a15.359,15.359,0,0,1-1.3,3.744c-2.132,4.628-5.044,8.216-9.88,12.064a23.567,23.567,0,0,1,5.2,6.864c1.456-1.352,1.924-1.82,3.172-3.12v12.116Zm7.748,0v-6.76h7.228v6.76Zm7.228-18.876v4.992H722.384c-.832,0-1.144,0-1.924-.052a47.769,47.769,0,0,0,3.848-4.94Zm48.516-11.284a38.726,38.726,0,0,1,.26,4.888c.1,7.072.416,17.732.624,21.892a22.616,22.616,0,0,0-3.64-.26c-4.316,0-7.488.884-10.14,2.756a9.413,9.413,0,0,0-4.056,7.8,9.615,9.615,0,0,0,3.588,7.748c2.34,1.716,6.032,2.7,10.244,2.7,4.732,0,8.684-1.248,10.868-3.432a7.968,7.968,0,0,0,2.184-5.876,6.012,6.012,0,0,0-.052-.884,34.913,34.913,0,0,1,10.712,8.164L808.6-6.032c-.572-.364-.728-.468-1.664-1.092-5.928-4.212-9.464-6.084-14.768-7.9-.416-7.072-.416-7.072-.52-9.516,4.68-.1,6.708-.208,11.96-.728,2.132-.208,2.6-.26,3.64-.312l-.572-8.632c-3.328.936-9.1,1.508-15.184,1.508v-.728c0-3.8.156-7.592.364-9.88Zm1.092,34.84v.676a5.246,5.246,0,0,1-.26,2.236c-.52,1.2-2.184,1.976-4.316,1.976-2.6,0-4.212-1.04-4.212-2.756,0-1.612,1.976-2.652,5.1-2.652A11.721,11.721,0,0,1,783.484-8.528ZM823.42-43v.416a25.7,25.7,0,0,1-.208,2.86,150,150,0,0,0-1.2,18.98c0,1.456.052,4.576.156,6.6v1.04a6.019,6.019,0,0,1-.052.884l8.736-.1a26.759,26.759,0,0,1,.208-4.264,22.06,22.06,0,0,1,5.772-12.064c1.924-2.08,3.692-3.016,5.616-3.016,3.692,0,5.772,3.588,5.772,10.088,0,11.232-6.032,16.12-20.956,17a30.814,30.814,0,0,1,4.16,8.892,53.429,53.429,0,0,0,6.136-1.2A31.286,31.286,0,0,0,849.42-2.288q7.956-6.24,7.956-19.032c0-6.084-1.4-10.816-4.316-14.456a12.287,12.287,0,0,0-9.412-4.732c-5.564,0-9.776,2.912-13.156,9a69.733,69.733,0,0,1,2.132-11.128ZM901.056-28.86v-5.1a80.407,80.407,0,0,0,13.26-2.808c.988-.312.988-.312,1.924-.572l-5.928-7.228a14.8,14.8,0,0,1-4.056,1.768A55.029,55.029,0,0,1,893-40.248a39.587,39.587,0,0,1,.364,5.98c0,14.56-.416,22-1.352,25.532A25.645,25.645,0,0,1,887.38.572,32.7,32.7,0,0,1,894.764,5.2a33.115,33.115,0,0,0,4.784-11.7c.936-4.472,1.248-7.748,1.456-14.872h2.86V-2.184a47.443,47.443,0,0,1-.312,7.02h8.424a47.02,47.02,0,0,1-.312-7.02V-21.372h.624a24.174,24.174,0,0,1,3.8.208v-8.008a26.506,26.506,0,0,1-4.732.312Zm-16.8,7.072h2.6a49.188,49.188,0,0,1,5.3.208v-7.7a30.005,30.005,0,0,1-3.484.26c.26-.78.936-3.328,1.2-4.316.832.052,1.144.052,2.08.156v-7.592a33.544,33.544,0,0,1-5.3.26H884.52a17.584,17.584,0,0,1,.26-3.744h-8.736a23.782,23.782,0,0,1,.26,3.744h-2.912a35.131,35.131,0,0,1-5.356-.26v7.592c1.04-.1,1.456-.1,2.652-.156a22.868,22.868,0,0,1,1.144,4.316,27.16,27.16,0,0,1-4.784-.26v7.7a46.5,46.5,0,0,1,5.2-.208h4.368V-19.5H872.4a34.3,34.3,0,0,1-5.356-.26v7.54a45.907,45.907,0,0,1,5.2-.208h2.236a21.649,21.649,0,0,1-3.016,3.536,26.464,26.464,0,0,1-5.3,4,28.3,28.3,0,0,1,3.172,7.852,24.687,24.687,0,0,0,7.384-7.488c-.052,1.3-.1,2.08-.1,2.86v2.6a26.238,26.238,0,0,1-.208,3.848h8.112a23.183,23.183,0,0,1-.26-4.212V-2.444c0-.676-.052-1.508-.1-3.432a16.092,16.092,0,0,0,3.484,3.9,44.75,44.75,0,0,1,3.172-7.072,20.353,20.353,0,0,1-4.108-3.38,46.067,46.067,0,0,1,5.148.208v-7.54a33.544,33.544,0,0,1-5.3.26H884.26Zm-5.044-7.228a19.036,19.036,0,0,0-1.092-4.368h4.368a22.369,22.369,0,0,1-1.092,4.368Zm47.216-13.156a24.422,24.422,0,0,1,.26,3.952c0,2.028-.1,6.968-.208,12.22-.26,10.452-.26,10.452-.26,11.8,0,7.28.988,10.608,3.952,13.468,2.808,2.652,6.76,3.952,12.064,3.952,6.812,0,12.22-2.236,16.328-6.708,2.86-3.172,4.576-6.968,6.552-14.768-3.328-1.352-5.044-2.444-8.892-5.46a39.513,39.513,0,0,1-2.08,9.412C952.12-8.684,947.96-5.512,942.6-5.512c-2.86,0-5.1-.936-6.084-2.5-.884-1.4-1.092-2.964-1.092-8.164,0-8.684.624-22.568,1.2-25.844Zm46.852,2.756a36.5,36.5,0,0,1,.208,3.692c.1,7.228.312,11.6.572,15.236.676,8.268,2.08,13.468,4.784,17.316,2.028,2.964,4.524,4.472,7.436,4.472,3.172,0,5.98-1.872,7.9-5.3A43.893,43.893,0,0,0,998.14-14.04a32.9,32.9,0,0,1-7.228-6.552,52.827,52.827,0,0,1-2.7,9c-.52,1.352-1.092,2.028-1.664,2.028-2.184,0-3.848-8.788-3.848-20.436a64.864,64.864,0,0,1,.572-9.412ZM999.336-33.9c6.448,8.164,10.036,18.408,10.608,30.056l9.308-3.432c-1.456-12.584-5.252-22.1-12.012-30.264Zm59.072,32.292V1.872h9.412a70.082,70.082,0,0,1-.364-8.58V-33.072c0-2.444.052-4.316.156-6.136a59.1,59.1,0,0,1-6.448.208h-28.028a60.887,60.887,0,0,1-6.292-.208c.156,2.132.208,3.744.208,5.98V-6.5a66.245,66.245,0,0,1-.416,8.476h9.464V-1.612Zm0-8.32H1036.1V-30.68h22.308Zm60.216-26.26a30.829,30.829,0,0,0-3.64-7.176L1110.1-41.86c.936,1.612,1.3,2.236,1.924,3.484h-24.284a54.444,54.444,0,0,1-9.1-.468v9.464c2.184-.208,4.16-.26,8.944-.26h20.176V-9.308h-20.8a53.758,53.758,0,0,1-9.048-.416V-.26a73.224,73.224,0,0,1,8.892-.312h20.956V2.5h9.776a78.493,78.493,0,0,1-.312-8.58V-35.672Zm-1.976-7.488a33.6,33.6,0,0,1,3.536,7.28l4.94-1.872a33.781,33.781,0,0,0-3.692-7.02Zm23.088,1.612a26.1,26.1,0,0,1,.832,3.432c1.56,7.9,1.82,9.152,3.068,13.676a33.5,33.5,0,0,0-6.5,3.952A13.934,13.934,0,0,0,1131.78-10.3c0,4.108,1.82,7.852,4.784,9.776,3.432,2.184,8.684,3.276,16.172,3.276a115.988,115.988,0,0,0,13.1-.884c2.652-.312,3.224-.364,4.524-.416l-.676-9.88a22.7,22.7,0,0,1-2.756.78A75.929,75.929,0,0,1,1151.7-5.98c-7.228,0-10.348-1.4-10.348-4.576,0-3.068,3.432-5.824,10.088-8.164a117.643,117.643,0,0,1,18.616-4.836l-2.964-9.256a10.492,10.492,0,0,1-2.132.78c-1.872.572-1.872.572-6.812,2.028-2.132.572-3.64,1.092-5.98,1.924a90.367,90.367,0,0,1-2.964-15.392Zm67.808,12.48h6.292a79.089,79.089,0,0,1,8.424.26v-9a58.7,58.7,0,0,1-8.58.416h-21.164a55.855,55.855,0,0,1-8.58-.416v9a77.867,77.867,0,0,1,8.424-.26h5.72V-9.88h-9.464a60.66,60.66,0,0,1-8.528-.416v9.1a79.165,79.165,0,0,1,8.372-.26h29.328a81.772,81.772,0,0,1,8.424.312V-10.3a49.914,49.914,0,0,1-8.58.416h-10.088Zm26.364-3.328a55.535,55.535,0,0,1,14.144,10.972l6.136-8.112a75.855,75.855,0,0,0-14.3-10.192Zm3.224,34.944c1.4-.416,1.716-.468,3.744-.936,9.672-2.236,14.612-4.16,20.228-7.8,7.28-4.68,12.22-10.816,16.952-21.06a33.573,33.573,0,0,1-7.644-6.968,47.873,47.873,0,0,1-5.1,10.192A31.269,31.269,0,0,1,1250.08-11.7a52.179,52.179,0,0,1-15.652,3.744Zm88.036-37.8,1.768-.624a31.494,31.494,0,0,0-3.848-6.916l-4.732,1.508a28.045,28.045,0,0,1,1.768,2.964,4.2,4.2,0,0,0-.78.052c-1.092.052-1.664.052-3.068.052h-22.36a43.526,43.526,0,0,1-8.06-.416v9.308a55.967,55.967,0,0,1,7.9-.312h22.36a32.857,32.857,0,0,1-15.132,20.54,42.77,42.77,0,0,1-11.024,5.1c3.64,3.64,4.524,4.836,6.6,8.736C1305.72,0,1311.544-4.16,1316.38-9.932a49.379,49.379,0,0,0,10.088-20.748,20.66,20.66,0,0,1,.728-2.444Zm-.468-7.9a36.39,36.39,0,0,1,3.64,7.02l4.68-1.82a25.7,25.7,0,0,0-3.692-6.864Zm17.368,2.028a41.406,41.406,0,0,1,.312,5.668v.832l-.208,28.912c-.052,2.6-.1,3.172-.624,4.264l4.628,5.408a7.6,7.6,0,0,1,3.12-.936c15.34-2.652,24.96-8.684,32.5-20.332a28.581,28.581,0,0,1-7.02-7.488c-4.732,9.412-12.532,15.34-23.036,17.68l.312-27.56a49.965,49.965,0,0,1,.364-6.4Zm60.372-1.2a46.19,46.19,0,0,1-2.028,9.308A238.908,238.908,0,0,1,1391.78-7.7a9.629,9.629,0,0,1-1.3.052l-1.612.052c-.572.052-.988.052-1.3.052-.26,0-.676,0-1.664-.052l1.352,9.724a27.29,27.29,0,0,1,2.86-.468L1402.024.52c8.06-.832,13.364-1.56,20.8-2.86a39.64,39.64,0,0,1,1.924,5.824l8.892-4.524A112.076,112.076,0,0,0,1421.264-25.9l-8.164,3.12a85.737,85.737,0,0,1,6.552,12.376,159.437,159.437,0,0,1-17.836,2.028c3.38-8.632,5.616-15.236,9.672-28.7a20.718,20.718,0,0,1,1.352-3.848Zm37.908,12.272h.78c.728,0,1.092,0,1.82.052,2.236.052,2.236.052,4.472.052h1.664c-.208.364-.208.364-.988,1.664-.78,1.248-2.86,4.264-4,5.668a35.7,35.7,0,0,1-5.512,5.408l6.6,6.552a33.032,33.032,0,0,1,4.992-5.252c3.64-3.172,7.228-4.992,9.88-4.992a2.148,2.148,0,0,1,2.08,1.3c-2.08.936-2.6,1.144-3.848,1.768a22.906,22.906,0,0,0-7.488,5.564,9.674,9.674,0,0,0-2.548,6.552,8.36,8.36,0,0,0,4.108,7.384c2.808,1.664,6.5,2.392,12.376,2.392a102.625,102.625,0,0,0,12.532-.78,33.587,33.587,0,0,1,4.628-.468l-.572-9.36a49.25,49.25,0,0,1-16.64,2.6c-5.044,0-6.968-.78-6.968-2.756a3.588,3.588,0,0,1,1.352-2.652,11.8,11.8,0,0,1,3.64-2.184l.468-.208a42.682,42.682,0,0,1-.26,5.512l8.476-.26a32.263,32.263,0,0,1-.208-4.472c0-2.288,0-2.34-.052-3.744a86.007,86.007,0,0,1,13.26-3.536l-3.172-8.216a21.807,21.807,0,0,1-4.16,1.56c-1.664.52-3.068.988-3.224,1.04-2.756.936-2.756.936-3.64,1.248-1.04-3.38-3.64-5.044-7.956-5.044a15.344,15.344,0,0,0-6.6,1.56,28.182,28.182,0,0,0,2.5-3.848c5.3-.156,11.8-.52,15.5-.884q2.262-.234,4.68-.468L1478-40.092a76.218,76.218,0,0,1-13.156,1.664c-2.652.156-2.652.156-3.172.208.052-.1.364-.936,1.04-2.444a15.117,15.117,0,0,1,1.092-2.444l-9.516-.728a18.82,18.82,0,0,1-1.612,5.772h-1.456c-5.408,0-8.528-.208-10.764-.728ZM1531.192-13.1a43.465,43.465,0,0,1,5.044.208,44.052,44.052,0,0,1-.208-5.252v-7.28a45.905,45.905,0,0,1,.208-5.2,43.046,43.046,0,0,1-4.992.208h-7.176v-2.288h8.424c2.132,0,3.64.052,5.512.208v-7.7a62.55,62.55,0,0,1-6.6.312h-7.332c.052-1.976.1-3.12.26-4.472h-8.164a25.692,25.692,0,0,1,.26,4.472h-6.708c-1.768,0-3.588-.052-5.252-.208l.884-2.86-8.32-1.82a30.383,30.383,0,0,1-1.768,6.864A32.875,32.875,0,0,1,1488.344-26a48.039,48.039,0,0,1,2.6,9.568,25.593,25.593,0,0,0,2.652-3.484c-.052,3.276-.1,5.044-.1,5.356V-1.092a44.815,44.815,0,0,1-.312,5.928h8.268a46.081,46.081,0,0,1-.312-5.98v-.572a25,25,0,0,1,3.536,6.448A28.3,28.3,0,0,0,1515.384-.52c6.032,3.172,11.336,4.524,20.592,5.2a28.713,28.713,0,0,1,2.86-8.164c-8.684,0-13.624-.728-18.616-2.7a23.674,23.674,0,0,0,2.7-6.916Zm-20.592,0-6.032,2.86c.26.312.624.728.884,1.04a46.021,46.021,0,0,0,3.484,3.9,24.072,24.072,0,0,1-7.8,2.86V-31.616a59.4,59.4,0,0,0,2.34-5.46V-32.5c1.872-.156,3.12-.208,5.2-.208h7.748v2.288h-7.488a42.063,42.063,0,0,1-4.94-.208,43.747,43.747,0,0,1,.208,5.148v7.436A46.662,46.662,0,0,1,1504-12.9a29.426,29.426,0,0,1,3.9-.208Zm4.628,0a12.317,12.317,0,0,1-1.3,3.172,11.163,11.163,0,0,1-2.86-3.172Zm1.04-10.348c-.052,1.872-.052,2.132-.156,3.432h-4.264v-3.432Zm12.064,0v3.432h-4.576c.1-1.872.1-1.976.156-3.432Zm41.912,12.74h9.672v6.4c0,.936-.416,1.144-2.288,1.144-1.456,0-3.484-.1-5.772-.312A25.824,25.824,0,0,1,1573.936,4c2.028.1,3.9.156,5.668.156,6.292,0,8.268-1.508,8.268-6.344v-33.9a53.41,53.41,0,0,1,.26-6.656c-1.716.156-3.276.208-6.5.208h-30.316c-2.964,0-4.264-.052-6.188-.208.156,1.976.26,4.056.26,7.124,0,22.2-.832,28.132-4.784,34.736a27.266,27.266,0,0,1,7.072,5.928c2.808-4.784,4.16-9.2,4.888-15.756h9.932V-3.38a48.63,48.63,0,0,1-.312,6.6h8.32a52.388,52.388,0,0,1-.26-6.656Zm0-19.5V-35.1h9.672v4.888Zm-7.748,0h-9.152V-35.1h9.152Zm7.748,7.228h9.672v4.992h-9.672Zm-7.748,0v4.992h-9.412c.1-2.288.1-2.86.156-4.992Zm38.376-19.188a24.422,24.422,0,0,1,.26,3.952c0,2.028-.1,6.968-.208,12.22-.26,10.452-.26,10.452-.26,11.8,0,7.28.988,10.608,3.952,13.468,2.808,2.652,6.76,3.952,12.064,3.952,6.812,0,12.22-2.236,16.328-6.708,2.86-3.172,4.576-6.968,6.552-14.768-3.328-1.352-5.044-2.444-8.892-5.46a39.519,39.519,0,0,1-2.08,9.412c-2.028,5.616-6.188,8.788-11.544,8.788-2.86,0-5.1-.936-6.084-2.5-.884-1.4-1.092-2.964-1.092-8.164,0-8.684.624-22.568,1.2-25.844Zm48,11.856h.884c.156,0,.676,0,1.4.052,1.924.1,1.924.1,3.9.156,5.98.26,6.864.312,9.672.312.468,0,.988,0,2.184-.052V-28.6c.052,1.248.052,1.248.052,1.352v.78c-1.612.052-2.392.052-3.484.052a80.269,80.269,0,0,1-12.792-.832l-.1,7.748c1.56,0,1.82.052,4.108.156,2.964.156,5.356.208,8.372.208.78,0,2.912-.052,4-.052,0,.26.052,1.3.1,3.068h-1.612a26.269,26.269,0,0,0-9.256,1.4c-4.16,1.56-6.552,4.68-6.552,8.476,0,6.032,4.836,9.516,13.364,9.516,5.668,0,9.62-1.456,11.336-4.108a9.035,9.035,0,0,0,1.248-5.252,26.974,26.974,0,0,1,7.384,4.628,27.567,27.567,0,0,1,3.536,3.328l4.94-8.372c-.832-.52-1.2-.728-1.976-1.248a51.812,51.812,0,0,0-6.968-4.316,29.79,29.79,0,0,0-7.124-2.808c-.1-2.184-.1-2.184-.156-4.576,2.86-.1,7.852-.468,10.192-.728,2.236-.208,2.236-.208,3.328-.26l-.208-7.956a82.273,82.273,0,0,1-13.416,1.56v-3.276a102.044,102.044,0,0,0,10.452-.884c2.756-.364,3.068-.364,4.576-.468l-.26-7.956c-3.016.832-7.852,1.4-14.768,1.82a32.335,32.335,0,0,1,.416-5.408H1666.5a36.323,36.323,0,0,1,.312,5.668c-1.56.052-2.236.052-2.86.052-6.552,0-11.908-.364-14.976-1.092Zm18.3,21.944s.052.572.052.884c0,2.34-1.248,3.328-4.16,3.328-2.6,0-4.056-.78-4.056-2.08,0-1.612,1.82-2.5,4.992-2.5A11.229,11.229,0,0,1,1667.172-8.372Zm31.46-20.332c4-.572,12.48-1.04,23.244-1.352a8.461,8.461,0,0,1,.052,1.248V-27.2a11.744,11.744,0,0,0-4.056-.572c-7.176,0-12.064,4.056-12.064,9.984,0,5.564,4.264,9.516,10.3,9.516a9.491,9.491,0,0,0,6.968-2.444,8.615,8.615,0,0,1-3.848,4.108c-2.5,1.56-5.46,2.392-10.712,3.172a23.42,23.42,0,0,1,4.94,8.216A42.027,42.027,0,0,0,1723.9.572c5.564-3.484,8.58-8.58,8.58-14.4a16.538,16.538,0,0,0-2.08-8.684v-7.7c2.08-.052,2.444-.052,5.2-.052a86.644,86.644,0,0,1,9.36.26l-.052-8.528c-2.08.208-5.928.312-14.56.364a35.2,35.2,0,0,1,.26-5.3h-9.2a29.269,29.269,0,0,1,.364,5.512c-4.836.156-18.824.52-20.228.52-1.3,0-1.872-.052-3.172-.156Zm19.864,7.488c2.08,0,3.432,1.092,3.432,2.7,0,1.768-1.716,3.12-3.952,3.12-1.976,0-3.432-1.2-3.432-2.808C1714.544-19.968,1716.208-21.216,1718.5-21.216Z" transform="translate(-1.82 45.344)" fill="#1a1a1a"/>
</svg>
