<svg xmlns="http://www.w3.org/2000/svg" width="715.227" height="136.34" viewBox="0 0 715.227 136.34">
  <g id="レイヤー_1" data-name="レイヤー 1" transform="translate(0)">
    <rect id="Rectangle_198" data-name="Rectangle 198" width="10.5" height="19" transform="translate(151.49 71.59)" fill="#fff"/>
    <rect id="Rectangle_199" data-name="Rectangle 199" width="6.07" height="4.37" transform="translate(243.92 66.75)" fill="#fff"/>
    <rect id="Rectangle_200" data-name="Rectangle 200" width="13.35" height="6.07" transform="translate(256.53 58.5)" fill="#fff"/>
    <g id="Group_689" data-name="Group 689">
      <path id="Path_626" data-name="Path 626" d="M206.02,74.79v57.07H184.1V74.79Z" fill="#fff33b" stroke="#fff" stroke-linejoin="bevel" stroke-width="7"/>
      <path id="Path_627" data-name="Path 627" d="M257.8,90.41a51.583,51.583,0,0,0-16.92-2.86c-3.44,0-9.4.08-9.4,3.76,0,7.44,30,.41,30,22.4,0,15.29-15.12,19.13-27.8,19.13a99.188,99.188,0,0,1-23.55-2.7V115.35a53.082,53.082,0,0,0,19.62,3.76c5.15,0,9.81-1.06,9.81-3.93,0-7.69-30-.73-30-22.89,0-15.7,16.35-18.48,29.35-18.48a97.974,97.974,0,0,1,18.89,1.96V90.41Z" fill="#fff33b" stroke="#fff" stroke-linejoin="bevel" stroke-width="7"/>
      <path id="Path_628" data-name="Path 628" d="M300.76,74.79h21.91v57.07H300.76V111.33H286.12v20.53H264.21V74.79h21.91V94.5h14.64Z" fill="#fff33b" stroke="#fff" stroke-linejoin="bevel" stroke-width="7"/>
      <path id="Path_629" data-name="Path 629" d="M349.19,74.79v57.07H327.28V74.79Z" fill="#fff33b" stroke="#fff" stroke-linejoin="bevel" stroke-width="7"/>
      <path id="Path_630" data-name="Path 630" d="M353.4,74.79h32.79l10.55,40.23h.17V74.79h18.8v57.07H383.5L372.38,90.49h-.16v41.37H353.41V74.79Z" fill="#fff33b" stroke="#fff" stroke-linejoin="bevel" stroke-width="7"/>
      <path id="Path_631" data-name="Path 631" d="M441.64,103.33c0-5.32.66-15.78,8.76-15.78s8.91,10.46,8.99,15.78c-.09,6.13-.33,15.78-8.99,15.78C442.55,119.11,441.64,109.46,441.64,103.33Zm40.64,0c0-19.13-11.94-29.52-31.88-29.52s-31.64,10.38-31.64,29.52,11.69,29.51,31.64,29.51,31.88-10.06,31.88-29.51Z" fill="#fff33b" stroke="#fff" stroke-linejoin="bevel" stroke-width="7"/>
      <path id="Path_632" data-name="Path 632" d="M485.25,74.79h32.37l7.44,31.23h.16l7.36-31.23h32.29v57.07H545.24l-.32-44.8h-.16l-11.2,44.8H515.33l-10.87-44.8h-.33l-.24,44.8H485.25V74.79Z" fill="#fff33b" stroke="#fff" stroke-linejoin="bevel" stroke-width="7"/>
      <path id="Path_633" data-name="Path 633" d="M590.68,74.79v57.07H568.76V74.79Z" fill="#fff33b" stroke="#fff" stroke-linejoin="bevel" stroke-width="7"/>
      <path id="Path_634" data-name="Path 634" d="M636.22,114.37v17.5h-21.9v-17.5L593.14,74.8h23.79l8.92,23.88h.16L635,74.8h22.65l-21.43,39.57Z" fill="#fff33b" stroke="#fff" stroke-linejoin="bevel" stroke-width="7"/>
      <path id="Path_635" data-name="Path 635" d="M676.04,87.06h.16l6.22,18.72H669.75l6.29-18.72Zm-34.67,44.8H663.2l3.52-12.34H685.2l3.76,12.34h22.97L691.58,74.79H661.41l-20.03,57.07Z" fill="#fff33b" stroke="#fff" stroke-linejoin="bevel" stroke-width="7"/>
      <path id="Path_636" data-name="Path 636" d="M161.1,74.79v40.23h-.17L150.38,74.79H117.6v57.07h18.8V90.5h.17l11.12,41.36H179.9V74.79Z" fill="#fff33b" stroke="#fff" stroke-linejoin="bevel" stroke-width="7"/>
      <path id="Path_637" data-name="Path 637" d="M105.48,116.51c2.37-2.63,3.66-5.13,3.57-7-.1-2-2.37-2.67-5.43-2.65a15.967,15.967,0,0,0-4.07.14,131.938,131.938,0,0,1-19.02,1.88c12.21-5.07,19.02-18.16,19.02-18.16a71.548,71.548,0,0,0,6.81-27.85c-.97,15.76-16.54,20.49-16.54,20.49C116.58,69.17,100.03,3.5,100.03,3.5s-.18,29.98-20.92,43.08C55.39,61.57,32.55,88.22,51.74,103.73,40.53,100.71,13.52,91.02,3.5,66.01c0,0,7.98,66.02,61.73,66.02a54.143,54.143,0,0,0,10.28-.83,84.149,84.149,0,0,0,9.87-2.82l4.09,3.32h10.79l-9.41-5.26a49.871,49.871,0,0,0,4.8-2.37l9.4,7.63h10.8L98.8,122.17a37.607,37.607,0,0,0,5.65-4.57l1.03-1.08Z" fill="#fff33b" stroke="#fff" stroke-linejoin="round" stroke-width="7"/>
      <g id="Group_688" data-name="Group 688">
        <path id="Path_638" data-name="Path 638" d="M122.3,56.5v2.94h5.01v3.87H122.3v6.9h-4.57V52.64h10.09v3.87H122.3Z" fill="#fff33b" stroke="#fff" stroke-linejoin="bevel" stroke-width="7"/>
        <path id="Path_639" data-name="Path 639" d="M148.91,61.09a9.715,9.715,0,0,1-19.43,0c0-5.31,4.66-9.04,9.71-9.04S148.91,55.78,148.91,61.09Zm-14.68.02a4.967,4.967,0,1,0,9.92,0,4.972,4.972,0,0,0-9.92,0Z" fill="#fff33b" stroke="#fff" stroke-linejoin="bevel" stroke-width="7"/>
        <path id="Path_640" data-name="Path 640" d="M169.57,61.09a9.71,9.71,0,0,1-19.42,0c0-5.31,4.66-9.04,9.71-9.04S169.57,55.78,169.57,61.09Zm-14.68.02a4.967,4.967,0,1,0,9.92,0,4.972,4.972,0,0,0-9.92,0Z" fill="#fff33b" stroke="#fff" stroke-linejoin="bevel" stroke-width="7"/>
        <path id="Path_641" data-name="Path 641" d="M178.21,70.2h-4.56V56.5h-3.78V52.63h12.12V56.5h-3.77V70.2Z" fill="#fff33b" stroke="#fff" stroke-linejoin="bevel" stroke-width="7"/>
        <path id="Path_642" data-name="Path 642" d="M184.1,70.2V52.63h6.52c3.12,0,5.22,1.21,5.22,4.57a3.659,3.659,0,0,1-1.93,3.59v.05c2.52.32,3.59,2.02,3.59,4.47,0,3.68-3.14,4.89-6.36,4.89H184.1Zm4.57-10.67h.51c1.21,0,2.47-.21,2.47-1.7,0-1.61-1.42-1.7-2.65-1.7h-.33Zm0,7.18h.58c1.35,0,3.63.07,3.63-1.86,0-2.12-2.26-1.91-3.75-1.91h-.47v3.77Z" fill="#fff33b" stroke="#fff" stroke-linejoin="bevel" stroke-width="7"/>
        <path id="Path_643" data-name="Path 643" d="M204.35,67.15l-1.21,3.05H198.3l6.76-17.57h4.99l6.62,17.57H211.8l-1.14-3.05h-6.29Zm3.19-9.09h-.04l-1.89,5.59h3.8l-1.87-5.59Z" fill="#fff33b" stroke="#fff" stroke-linejoin="bevel" stroke-width="7"/>
        <path id="Path_644" data-name="Path 644" d="M223.11,66.33h5.47V70.2H218.54V52.63h4.57v13.7Z" fill="#fff33b" stroke="#fff" stroke-linejoin="bevel" stroke-width="7"/>
        <path id="Path_645" data-name="Path 645" d="M235.57,66.33h5.48V70.2H231.01V52.63h4.56Z" fill="#fff33b" stroke="#fff" stroke-linejoin="bevel" stroke-width="7"/>
        <path id="Path_646" data-name="Path 646" d="M262.15,58.53a4.951,4.951,0,0,0-4.01-1.93,4.628,4.628,0,0,0-4.68,4.87,4.581,4.581,0,0,0,4.75,4.78,5.269,5.269,0,0,0,3.94-1.86v5.48a12.806,12.806,0,0,1-4.03.82,9.727,9.727,0,0,1-6.59-2.59,8.573,8.573,0,0,1-2.82-6.64,9.178,9.178,0,0,1,2.59-6.43,9.52,9.52,0,0,1,6.69-2.84,10.861,10.861,0,0,1,4.17.88v5.48Z" fill="#fff33b" stroke="#fff" stroke-linejoin="bevel" stroke-width="7"/>
        <path id="Path_647" data-name="Path 647" d="M270,66.33h5.48V70.2H265.44V52.63H270Z" fill="#fff33b" stroke="#fff" stroke-linejoin="bevel" stroke-width="7"/>
        <path id="Path_648" data-name="Path 648" d="M291.27,52.63v9.88c0,2.26-.09,4.5-1.84,6.2a9.621,9.621,0,0,1-11.64,0c-1.75-1.7-1.84-3.94-1.84-6.2V52.63h4.57v9.25c0,2.28.16,4.78,3.1,4.78s3.1-2.49,3.1-4.78V52.63h4.57Z" fill="#fff33b" stroke="#fff" stroke-linejoin="bevel" stroke-width="7"/>
        <path id="Path_649" data-name="Path 649" d="M293.69,70.2V52.63h6.52c3.12,0,5.22,1.21,5.22,4.57a3.659,3.659,0,0,1-1.93,3.59v.05c2.52.32,3.59,2.02,3.59,4.47,0,3.68-3.14,4.89-6.36,4.89Zm4.56-10.67h.51c1.21,0,2.47-.21,2.47-1.7,0-1.61-1.42-1.7-2.66-1.7h-.33v3.4Zm0,7.18h.58c1.35,0,3.63.07,3.63-1.86,0-2.12-2.26-1.91-3.75-1.91h-.47v3.77Z" fill="#fff33b" stroke="#fff" stroke-linejoin="bevel" stroke-width="7"/>
      </g>
    </g>
    <g id="Group_691" data-name="Group 691">
      <path id="Path_650" data-name="Path 650" d="M206.02,74.79v57.07H184.1V74.79Z" fill="#d3392a"/>
      <path id="Path_651" data-name="Path 651" d="M257.8,90.41a51.583,51.583,0,0,0-16.92-2.86c-3.44,0-9.4.08-9.4,3.76,0,7.44,30,.41,30,22.4,0,15.29-15.12,19.13-27.8,19.13a99.188,99.188,0,0,1-23.55-2.7V115.35a53.082,53.082,0,0,0,19.62,3.76c5.15,0,9.81-1.06,9.81-3.93,0-7.69-30-.73-30-22.89,0-15.7,16.35-18.48,29.35-18.48a97.974,97.974,0,0,1,18.89,1.96V90.41Z" fill="#d3392a"/>
      <path id="Path_652" data-name="Path 652" d="M300.76,74.79h21.91v57.07H300.76V111.33H286.12v20.53H264.21V74.79h21.91V94.5h14.64Z" fill="#d3392a"/>
      <path id="Path_653" data-name="Path 653" d="M349.19,74.79v57.07H327.28V74.79Z" fill="#d3392a"/>
      <path id="Path_654" data-name="Path 654" d="M353.4,74.79h32.79l10.55,40.23h.17V74.79h18.8v57.07H383.5L372.38,90.49h-.16v41.37H353.41V74.79Z" fill="#d3392a"/>
      <path id="Path_655" data-name="Path 655" d="M441.64,103.33c0-5.32.66-15.78,8.76-15.78s8.91,10.46,8.99,15.78c-.09,6.13-.33,15.78-8.99,15.78C442.55,119.11,441.64,109.46,441.64,103.33Zm40.64,0c0-19.13-11.94-29.52-31.88-29.52s-31.64,10.38-31.64,29.52,11.69,29.51,31.64,29.51,31.88-10.06,31.88-29.51Z" fill="#d3392a"/>
      <path id="Path_656" data-name="Path 656" d="M485.25,74.79h32.37l7.44,31.23h.16l7.36-31.23h32.29v57.07H545.24l-.32-44.8h-.16l-11.2,44.8H515.33l-10.87-44.8h-.33l-.24,44.8H485.25V74.79Z" fill="#d3392a"/>
      <path id="Path_657" data-name="Path 657" d="M590.68,74.79v57.07H568.76V74.79Z" fill="#d3392a"/>
      <path id="Path_658" data-name="Path 658" d="M636.22,114.37v17.5h-21.9v-17.5L593.14,74.8h23.79l8.92,23.88h.16L635,74.8h22.65l-21.43,39.57Z" fill="#d3392a"/>
      <path id="Path_659" data-name="Path 659" d="M676.04,87.06h.16l6.22,18.72H669.75l6.29-18.72Zm-34.67,44.8H663.2l3.52-12.34H685.2l3.76,12.34h22.97L691.58,74.79H661.41l-20.03,57.07Z" fill="#d3392a"/>
      <path id="Path_660" data-name="Path 660" d="M161.1,74.79v40.23h-.17L150.38,74.79H117.6v57.07h18.8V90.5h.17l11.12,41.36H179.9V74.79Z" fill="#d3392a"/>
      <path id="Path_661" data-name="Path 661" d="M105.48,116.51c2.37-2.63,3.66-5.13,3.57-7-.1-2-2.37-2.67-5.43-2.65a15.967,15.967,0,0,0-4.07.14,131.938,131.938,0,0,1-19.02,1.88c12.21-5.07,19.02-18.16,19.02-18.16a71.548,71.548,0,0,0,6.81-27.85c-.97,15.76-16.54,20.49-16.54,20.49C116.58,69.17,100.03,3.5,100.03,3.5s-.18,29.98-20.92,43.08C55.39,61.57,32.55,88.22,51.74,103.73,40.53,100.71,13.52,91.02,3.5,66.01c0,0,7.98,66.02,61.73,66.02a54.143,54.143,0,0,0,10.28-.83,84.149,84.149,0,0,0,9.87-2.82l4.09,3.32h10.79l-9.41-5.26a49.871,49.871,0,0,0,4.8-2.37l9.4,7.63h10.8L98.8,122.17a37.607,37.607,0,0,0,5.65-4.57l1.03-1.08Z" fill="#d3392a"/>
      <g id="Group_690" data-name="Group 690">
        <path id="Path_662" data-name="Path 662" d="M122.3,56.5v2.94h5.01v3.87H122.3v6.9h-4.57V52.64h10.09v3.87H122.3Z" fill="#231f20"/>
        <path id="Path_663" data-name="Path 663" d="M148.91,61.09a9.715,9.715,0,0,1-19.43,0c0-5.31,4.66-9.04,9.71-9.04S148.91,55.78,148.91,61.09Zm-14.68.02a4.967,4.967,0,1,0,9.92,0,4.972,4.972,0,0,0-9.92,0Z" fill="#231f20"/>
        <path id="Path_664" data-name="Path 664" d="M169.57,61.09a9.71,9.71,0,0,1-19.42,0c0-5.31,4.66-9.04,9.71-9.04S169.57,55.78,169.57,61.09Zm-14.68.02a4.967,4.967,0,1,0,9.92,0,4.972,4.972,0,0,0-9.92,0Z" fill="#231f20"/>
        <path id="Path_665" data-name="Path 665" d="M178.21,70.2h-4.56V56.5h-3.78V52.63h12.12V56.5h-3.77V70.2Z" fill="#231f20"/>
        <path id="Path_666" data-name="Path 666" d="M184.1,70.2V52.63h6.52c3.12,0,5.22,1.21,5.22,4.57a3.659,3.659,0,0,1-1.93,3.59v.05c2.52.32,3.59,2.02,3.59,4.47,0,3.68-3.14,4.89-6.36,4.89H184.1Zm4.57-10.67h.51c1.21,0,2.47-.21,2.47-1.7,0-1.61-1.42-1.7-2.65-1.7h-.33Zm0,7.18h.58c1.35,0,3.63.07,3.63-1.86,0-2.12-2.26-1.91-3.75-1.91h-.47v3.77Z" fill="#231f20"/>
        <path id="Path_667" data-name="Path 667" d="M204.35,67.15l-1.21,3.05H198.3l6.76-17.57h4.99l6.62,17.57H211.8l-1.14-3.05h-6.29Zm3.19-9.09h-.04l-1.89,5.59h3.8l-1.87-5.59Z" fill="#231f20"/>
        <path id="Path_668" data-name="Path 668" d="M223.11,66.33h5.47V70.2H218.54V52.63h4.57v13.7Z" fill="#231f20"/>
        <path id="Path_669" data-name="Path 669" d="M235.57,66.33h5.48V70.2H231.01V52.63h4.56Z" fill="#231f20"/>
        <path id="Path_670" data-name="Path 670" d="M262.15,58.53a4.951,4.951,0,0,0-4.01-1.93,4.628,4.628,0,0,0-4.68,4.87,4.581,4.581,0,0,0,4.75,4.78,5.269,5.269,0,0,0,3.94-1.86v5.48a12.806,12.806,0,0,1-4.03.82,9.727,9.727,0,0,1-6.59-2.59,8.573,8.573,0,0,1-2.82-6.64,9.178,9.178,0,0,1,2.59-6.43,9.52,9.52,0,0,1,6.69-2.84,10.861,10.861,0,0,1,4.17.88v5.48Z" fill="#231f20"/>
        <path id="Path_671" data-name="Path 671" d="M270,66.33h5.48V70.2H265.44V52.63H270Z" fill="#231f20"/>
        <path id="Path_672" data-name="Path 672" d="M291.27,52.63v9.88c0,2.26-.09,4.5-1.84,6.2a9.621,9.621,0,0,1-11.64,0c-1.75-1.7-1.84-3.94-1.84-6.2V52.63h4.57v9.25c0,2.28.16,4.78,3.1,4.78s3.1-2.49,3.1-4.78V52.63h4.57Z" fill="#231f20"/>
        <path id="Path_673" data-name="Path 673" d="M293.69,70.2V52.63h6.52c3.12,0,5.22,1.21,5.22,4.57a3.659,3.659,0,0,1-1.93,3.59v.05c2.52.32,3.59,2.02,3.59,4.47,0,3.68-3.14,4.89-6.36,4.89Zm4.56-10.67h.51c1.21,0,2.47-.21,2.47-1.7,0-1.61-1.42-1.7-2.66-1.7h-.33v3.4Zm0,7.18h.58c1.35,0,3.63.07,3.63-1.86,0-2.12-2.26-1.91-3.75-1.91h-.47v3.77Z" fill="#231f20"/>
      </g>
    </g>
  </g>
</svg>
