<svg id="レイヤー_1" data-name="レイヤー 1" xmlns="http://www.w3.org/2000/svg" width="322.098" height="58.229" viewBox="0 0 322.098 58.229">
  <g id="Group_643" data-name="Group 643">
    <g id="Group_641" data-name="Group 641" transform="translate(19.475)">
      <path id="Path_611" data-name="Path 611" d="M59.6,58.438V37.586l-9-14.971V58.433H42.72V2.47H50.6V9.221l9,15.08V2.47h7.878V58.438Z" transform="translate(-42.72 -1.344)" fill="#a21f2d"/>
      <path id="Path_612" data-name="Path 612" d="M114.32,58.438V2.47H122.2V58.438Z" transform="translate(-81.679 -1.344)" fill="#a21f2d"/>
      <path id="Path_613" data-name="Path 613" d="M157.055,57.992a12.589,12.589,0,0,1-10.02-12.427v-8.4h7.878v8.511a4.617,4.617,0,0,0,4.18,4.659,4.512,4.512,0,0,0,4.823-4.49v-8.16a1.352,1.352,0,0,0-.342-.9L148.393,19.643a5.422,5.422,0,0,1-1.363-3.592V12.664A12.581,12.581,0,0,1,157.05.237a12.456,12.456,0,0,1,14.743,12.154v3.5h-7.878v-3.36a4.591,4.591,0,0,0-3.788-4.582,4.514,4.514,0,0,0-5.215,4.445v2.954a1.352,1.352,0,0,0,.342.9l15.181,17.145A5.422,5.422,0,0,1,171.8,36.98v8.871a12.458,12.458,0,0,1-14.743,12.154Z" transform="translate(-99.478 -0.004)" fill="#a21f2d"/>
      <path id="Path_614" data-name="Path 614" d="M233.691,58.438V29.677h-9V58.438H216.81V2.47h7.878V21.8h9V2.47h7.878V58.438Z" transform="translate(-137.447 -1.344)" fill="#a21f2d"/>
      <path id="Path_615" data-name="Path 615" d="M288.4,58.438V2.47h7.878V58.438Z" transform="translate(-176.401 -1.344)" fill="#a21f2d"/>
      <path id="Path_616" data-name="Path 616" d="M339.851,58.438V37.586l-9-14.971V58.433H322.97V2.47h7.878V9.221l9,15.08V2.47h7.878V58.438Z" transform="translate(-195.211 -1.344)" fill="#a21f2d"/>
      <path id="Path_617" data-name="Path 617" d="M406.942,58.22A12.491,12.491,0,0,1,394.56,45.838V12.382a12.382,12.382,0,1,1,24.763,0V45.838A12.491,12.491,0,0,1,406.942,58.22Zm4.5-45.838a4.5,4.5,0,1,0-9.008,0V45.838a4.5,4.5,0,1,0,9.008,0V12.382Z" transform="translate(-234.165)" fill="#a21f2d"/>
      <path id="Path_618" data-name="Path 618" d="M488.671,58.438V27l-7.317,18.235L474.038,27V58.438H466.16V2.47h7.878V9.221l7.317,18.458,7.317-18.458V2.47h7.878V58.438Z" transform="translate(-273.125 -1.344)" fill="#a21f2d"/>
      <path id="Path_619" data-name="Path 619" d="M550.1,58.438V2.47h7.878V58.438Z" transform="translate(-318.799 -1.344)" fill="#a21f2d"/>
      <path id="Path_620" data-name="Path 620" d="M599.15,36.2V58.438h-7.878V36.2L582.83,22.136V2.47h7.878V19.884l4.5,7.54,4.5-7.54V2.47h7.878V22.136L599.146,36.2Z" transform="translate(-336.608 -1.344)" fill="#a21f2d"/>
      <path id="Path_621" data-name="Path 621" d="M669.111,57.094V36.215h-9V57.094H652.23V12.382a12.382,12.382,0,1,1,24.763,0V57.094h-7.878Zm0-44.712a4.5,4.5,0,1,0-9,0V28.333h9V12.382Z" transform="translate(-374.37)" fill="#a21f2d"/>
    </g>
    <g id="Group_642" data-name="Group 642" transform="translate(0 1.126)">
      <path id="Path_622" data-name="Path 622" d="M11.6,72.232V66.67H5.8a5.852,5.852,0,0,0-5.8,5.8V88.137a5.852,5.852,0,0,0,5.8,5.8,5.852,5.852,0,0,0,5.8-5.8v-.976H7.909v.976a2.111,2.111,0,0,1-4.221,0V72.469A2.118,2.118,0,0,1,5.8,70.358H7.909v1.874Z" transform="translate(0 -37.403)" fill="#a21f2d"/>
      <path id="Path_623" data-name="Path 623" d="M5.663,15.18h5.967V11.5H5.663V6.149h7.016V2.47H1.98V28.614H5.663Z" transform="translate(-1.077 -2.47)" fill="#a21f2d"/>
    </g>
  </g>
</svg>
