<svg xmlns="http://www.w3.org/2000/svg" width="150" height="170.119" viewBox="0 0 150 170.119">
  <g id="レイヤー_1" data-name="レイヤー 1" transform="translate(0 0.002)">
    <g id="Group_644" data-name="Group 644" transform="translate(0 -0.002)">
      <path id="Path_624" data-name="Path 624" d="M19.024,31.443a1.5,1.5,0,0,0-2.349,1.239v67.329a58.487,58.487,0,0,0,32.09,52.125A2.248,2.248,0,0,1,50,154.145v14.467a1.5,1.5,0,0,1-2.033,1.4,74.772,74.772,0,0,1-25.736-16.7A75.74,75.74,0,0,1,0,99.45V1.5A1.5,1.5,0,0,1,2.352.262L97.643,65.38a1.5,1.5,0,0,0,2.349-1.239V35.224a1.878,1.878,0,0,1,1.878-1.878h12.919a1.878,1.878,0,0,1,1.878,1.878V95.318a1.5,1.5,0,0,1-2.349,1.239Z" transform="translate(0 0.002)" fill="#a21f2d"/>
      <path id="Path_625" data-name="Path 625" d="M111.612,131.05a1.121,1.121,0,0,1-1.836.864A41.592,41.592,0,0,1,94.94,100.059V64.939A1.507,1.507,0,0,1,97.3,63.7l89.657,61.267a1.882,1.882,0,0,0,2.77-.776,58.258,58.258,0,0,0,5.213-24.135V18.613a1.878,1.878,0,0,0-1.878-1.878h-29.57a1.878,1.878,0,0,1-1.878-1.878V1.938A1.878,1.878,0,0,1,163.488.06h46.245a1.878,1.878,0,0,1,1.878,1.878v98.114a74.836,74.836,0,0,1-8.987,35.622q-1.085,2.012-2.3,3.963a74.891,74.891,0,0,1-5.663,7.909,2.249,2.249,0,0,1-3.009.425l-12.2-8.341L113.96,94.877a1.5,1.5,0,0,0-2.349,1.239Z" transform="translate(-61.611 -0.038)" fill="#cc3522"/>
    </g>
  </g>
</svg>
