<svg xmlns="http://www.w3.org/2000/svg" width="198.507" height="276.807" viewBox="0 0 198.507 276.807">
  <g id="レイヤー_1" data-name="レイヤー 1" transform="translate(0 -0.005)">
    <g id="Group_695" data-name="Group 695" transform="translate(3 3.005)">
      <path id="Path_674" data-name="Path 674" d="M99,3.011c-44.14,1.35-73.3,18.676-81.186,23.954a9.759,9.759,0,0,0-3.876,5.49C6.677,57.946,3,82.592,3,105.707c0,35.933,8.739,69.133,25.979,98.668A201.68,201.68,0,0,0,95.01,272.439a7.868,7.868,0,0,0,8.488,0,201.677,201.677,0,0,0,66.026-68.064c17.24-29.539,25.983-62.739,25.983-98.668,0-23.115-3.677-47.761-10.932-73.247a9.773,9.773,0,0,0-3.876-5.49c-7.887-5.278-37.054-22.613-81.216-23.959a4.365,4.365,0,0,0-.476,0Z" transform="translate(-3 -3.005)" fill="#aa3528" stroke="#dab841" stroke-width="6"/>
      <path id="Path_675" data-name="Path 675" d="M99,3.011c-44.14,1.35-73.3,18.676-81.186,23.954a9.759,9.759,0,0,0-3.876,5.49C6.677,57.946,3,82.592,3,105.707c0,35.933,8.739,69.133,25.979,98.668A201.68,201.68,0,0,0,95.01,272.439a7.868,7.868,0,0,0,8.488,0,201.677,201.677,0,0,0,66.026-68.064c17.24-29.539,25.983-62.739,25.983-98.668,0-23.115-3.677-47.761-10.932-73.247a9.773,9.773,0,0,0-3.876-5.49c-7.887-5.278-37.054-22.613-81.216-23.959a4.365,4.365,0,0,0-.476,0Z" transform="translate(-3 -3.005)" fill="#aa3528" stroke="#dab841" stroke-width="3.6"/>
      <path id="Path_676" data-name="Path 676" d="M33.783,48.488Q23.3,85.315,23.27,118.7c0,34.026,8.185,65.2,24.53,93.217,20.688,35.445,49.228,56.271,62.951,64.854,13.723-8.583,42.263-29.405,62.951-64.854,16.344-28.012,24.53-59.191,24.53-93.217q0-33.329-10.513-70.214c-6.879-4.6-34.614-21.285-76.976-22.578-42.349,1.3-70.08,17.975-76.959,22.578Z" transform="translate(-14.501 -16.001)" fill="#d5311c"/>
      <path id="Path_677" data-name="Path 677" d="M301.171,48.488c-6.879-4.6-34.614-21.289-76.976-22.578-.324.009-.64.026-.965.039v250.2c.329.212.658.424.973.623,13.723-8.583,42.263-29.405,62.951-64.854,16.344-28.012,24.53-59.2,24.53-93.217q0-33.336-10.513-70.214Z" transform="translate(-127.954 -16.001)" fill="#aa3528"/>
      <path id="Path_678" data-name="Path 678" d="M187.712,68.767a108.615,108.615,0,0,0-12.568-7.117c8.6,25.845,36.691,135.505-64.4,235.367-101.09-99.862-73-209.522-64.4-235.367a108.566,108.566,0,0,0-12.576,7.117q-10.48,36.827-10.513,70.214c0,34.026,8.185,65.2,24.53,93.217,20.688,35.445,49.228,56.271,62.951,64.854,13.723-8.583,42.263-29.405,62.951-64.854,16.344-28.012,24.53-59.191,24.53-93.217q0-33.329-10.513-70.214Z" transform="translate(-14.495 -36.279)" fill="#fff"/>
      <path id="Path_679" data-name="Path 679" d="M189.192,235.018c-.2-1.856-2.007-3.954-2.094-5.053-.177-2.124.727-4.188.753-5.97s-.722-3.517-.636-5.5c.143-2.76,1.159-4.244-.087-6.978-.844-1.921-3.089-3.085-3.725-4.7-1.393-3.621.173-9.068-.173-12.94a32.857,32.857,0,0,1,.32-7.757c-1.86-.857-2.44-2.544-5.581-3.876-3.755-1.614-6.372,1.047-10.011,1.216-4.971.26-4.534-3.024-9.016-5.624-3-1.748-6.892-.528-10.011-2.289-2.609-1.484-2.73-3.963-5.057-5.568-3.171-2.211-4.1-.216-7.445-.35-6.052-.247-9.107-4.655-8.406-10.443.549-4.884,1.627-1.756,4.244-4.2,1.774-1.648,1.865-4.3,4.045-5.628,3.461-2.116,6.749.636,10.18-.177,4.538-1.077,3.288-2.475,4.041-6.879,1.168-6.589.584-11.473-1.367-18.131-.779-2.721-1.043-6.636-2-9.137-1.047-2.648-4.417-5.23-6.978-6.238-1.194-.45-14-4.023-17.192-5.814-.58-.32-.848-.575-.7-.753-1.25,1.6-3.059,1.947-4.3,3.124-1.341,1.281-1.921,3.392-3.721,4.274-3.755,1.878-8.843-1.9-12.6.1-1.86.986-2.094,3.089-4.071,3.859-2.124.831-5.992-.688-7.852-1.354-3.288-1.19-9.4-4.132-12.395-1.384-2.44,2.224.9,8.657.173,11.953-.87,3.971-4.127,7.649-3.517,12.338.437,3.21,4.508,9.816,6.463,12.347,3.9,5.031,6.044,1.207,10.5,1.367,4.858.16,4.279,4.3,5.529,7.7a40.747,40.747,0,0,0,6.714,11.222,33.18,33.18,0,0,0,9.1,7.982c5.732,3.089,7.766,2.271,10.941,8.094,2.938,5.364,7.3,8.9,9.366,14.6,2.912,7.947,6.342,15.808,8.99,23.747.671,2.064,1.341,4.222,1.891,6.372l.117-.554,3.141.9.467,1.458,3.578-.112,1.748-2.215.783,1.808.727,2.557,4.979.472.229,2.353,1.367,3.638,3.227.056,2.591,4.421.03,2.678,7.623,6.926-1.1.636-2.617-1.043-2.531.35-2.3,2.211,5.408,8.38,3.5-1.748-1.224-3.5,2.444-1.627,2.557,1.566,2.271-4.854,1.341,1.22a14.616,14.616,0,0,0,1.865-2.937c1.51-3.318,2.907-7.679,4.157-11.084.787-2.206,1.6-2.994,1.337-5.5Z" transform="translate(-43.247 -59.303)" fill="#d8ab40"/>
      <path id="Path_680" data-name="Path 680" d="M110.952,296.814c-.069.065-.134.138-.2.208-101.09-99.866-73-209.527-64.4-235.371a108.566,108.566,0,0,0-12.576,7.117q-10.48,36.827-10.513,70.214c0,34.026,8.185,65.2,24.53,93.217,20.688,35.445,49.228,56.271,62.951,64.854.061-.043.138-.1.2-.134v-.1Z" transform="translate(-14.495 -36.279)" fill="#fff"/>
      <g id="Group_692" data-name="Group 692" transform="translate(76.024 18.081)">
        <path id="Path_681" data-name="Path 681" d="M219.206,64.943A20.143,20.143,0,1,1,199.063,44.8,20.142,20.142,0,0,1,219.206,64.943Z" transform="translate(-178.838 -44.8)" fill="#d5311c" stroke="#fff" stroke-width="1.24"/>
        <path id="Path_682" data-name="Path 682" d="M225.07,91.61a20.085,20.085,0,0,1,6.437,14.752,20.6,20.6,0,0,1-.407,4.062" transform="translate(-205.022 -71.359)" fill="#d5311c" stroke="#fff" stroke-width="1.24"/>
        <path id="Path_683" data-name="Path 683" d="M225.07,72.433a20.072,20.072,0,0,1,9.565-12.948,19.8,19.8,0,0,1,3.721-1.674" transform="translate(-205.022 -52.182)" fill="#d5311c" stroke="#fff" stroke-width="1.24"/>
        <path id="Path_684" data-name="Path 684" d="M199.748,86.106A20.075,20.075,0,0,1,183.754,84.3a20.327,20.327,0,0,1-3.314-2.388" transform="translate(-179.7 -65.855)" fill="#d5311c" stroke="#fff" stroke-width="1.24"/>
        <path id="Path_685" data-name="Path 685" d="M235.33,70.98a20.144,20.144,0,0,1,6.892,25.585" transform="translate(-210.844 -59.654)" fill="#d5311c" stroke="#fff" stroke-width="1.24"/>
        <path id="Path_686" data-name="Path 686" d="M202.08,68.365A20.16,20.16,0,0,1,221.05,49.62" transform="translate(-191.978 -47.535)" fill="#d5311c" stroke="#fff" stroke-width="1.24"/>
        <path id="Path_687" data-name="Path 687" d="M204.233,101.978a20.157,20.157,0,0,1-25.5-6.788" transform="translate(-178.73 -73.39)" fill="#d5311c" stroke="#fff" stroke-width="1.24"/>
      </g>
      <g id="Group_693" data-name="Group 693" transform="translate(46.874 116.576)">
        <path id="Path_688" data-name="Path 688" d="M192.388,360.262h7.393l-18.6-10.4c1.622-1.8,2.509-3.522,2.444-4.8-.069-1.371-1.627-1.826-3.716-1.817a10.993,10.993,0,0,0-2.79.1,90.817,90.817,0,0,1-13.018,1.285c8.363-3.474,13.018-12.442,13.018-12.442a48.944,48.944,0,0,0,4.668-19.066c-.666,10.794-11.33,14.034-11.33,14.034,18.326-9.717,7-54.688,7-54.688s-.121,20.528-14.328,29.5c-16.245,10.262-31.884,28.51-18.745,39.135-7.675-2.068-26.178-8.7-33.031-25.827,0,0,5.468,45.209,42.276,45.209a36.815,36.815,0,0,0,7.039-.571,56.881,56.881,0,0,0,6.762-1.929l2.795,2.271h7.393l-6.446-3.6a35.772,35.772,0,0,0,3.288-1.622l6.437,5.222h7.393l-11.672-6.528a25.4,25.4,0,0,0,3.868-3.132l11.906,9.66Z" transform="translate(-111.35 -272.47)" fill="#d5311c" stroke="#fff" stroke-linecap="round" stroke-linejoin="round" stroke-width="2.52"/>
        <path id="Path_689" data-name="Path 689" d="M192.388,360.262h7.393l-18.6-10.4c1.622-1.8,2.509-3.522,2.444-4.8-.069-1.371-1.627-1.826-3.716-1.817a10.993,10.993,0,0,0-2.79.1,90.817,90.817,0,0,1-13.018,1.285c8.363-3.474,13.018-12.442,13.018-12.442a48.944,48.944,0,0,0,4.668-19.066c-.666,10.794-11.33,14.034-11.33,14.034,18.326-9.717,7-54.688,7-54.688s-.121,20.528-14.328,29.5c-16.245,10.262-31.884,28.51-18.745,39.135-7.675-2.068-26.178-8.7-33.031-25.827,0,0,5.468,45.209,42.276,45.209a36.815,36.815,0,0,0,7.039-.571,56.881,56.881,0,0,0,6.762-1.929l2.795,2.271h7.393l-6.446-3.6a35.772,35.772,0,0,0,3.288-1.622l6.437,5.222h7.393l-11.672-6.528a25.4,25.4,0,0,0,3.868-3.132l11.906,9.66Z" transform="translate(-111.35 -272.47)" fill="#d5311c"/>
      </g>
      <g id="Group_694" data-name="Group 694" transform="translate(26.775 73.119)">
        <path id="Path_690" data-name="Path 690" d="M64.89,214.42h6.922l2.228,8.492h.035V214.42h3.971v12.053h-6.8L68.9,217.738h-.035v8.735H64.89Z" transform="translate(-64.89 -196.077)" fill="#231916"/>
        <path id="Path_691" data-name="Path 691" d="M105.749,214.42v12.053H101.12V214.42Z" transform="translate(-85.446 -196.077)" fill="#231916"/>
        <path id="Path_692" data-name="Path 692" d="M127.028,217.444a10.879,10.879,0,0,0-3.573-.606c-.727,0-1.986.017-1.986.8,0,1.57,6.334.087,6.334,4.733,0,3.227-3.193,4.041-5.871,4.041a20.868,20.868,0,0,1-4.971-.571v-3.128a11.161,11.161,0,0,0,4.145.8c1.086,0,2.072-.225,2.072-.831,0-1.622-6.338-.156-6.338-4.832,0-3.314,3.452-3.9,6.2-3.9a20.528,20.528,0,0,1,3.989.415v3.089Z" transform="translate(-94.365 -195.805)" fill="#231916"/>
        <path id="Path_693" data-name="Path 693" d="M154.894,214.42h4.625v12.053h-4.625v-4.335H151.8v4.335H147.18V214.42H151.8v4.162h3.089Z" transform="translate(-111.58 -196.077)" fill="#231916"/>
        <path id="Path_694" data-name="Path 694" d="M186.359,214.42v12.053H181.73V214.42Z" transform="translate(-131.183 -196.077)" fill="#231916"/>
        <path id="Path_695" data-name="Path 695" d="M198.25,214.42h6.922l2.228,8.492h.035V214.42h3.971v12.053h-6.8l-2.349-8.735h-.035v8.735H198.25Z" transform="translate(-140.556 -196.077)" fill="#231916"/>
        <path id="Path_696" data-name="Path 696" d="M238.047,220.18c0-1.12.138-3.331,1.847-3.331s1.882,2.211,1.895,3.331c-.017,1.294-.069,3.331-1.895,3.331C238.237,223.511,238.047,221.473,238.047,220.18Zm8.579,0c0-4.041-2.518-6.23-6.732-6.23s-6.684,2.193-6.684,6.23,2.47,6.234,6.684,6.234S246.626,224.29,246.626,220.18Z" transform="translate(-160.391 -195.81)" fill="#231916"/>
        <path id="Path_697" data-name="Path 697" d="M268.964,214.42H275.8l1.57,6.6h.035l1.553-6.6h6.818v12.053h-4.145l-.069-9.461h-.035l-2.362,9.461h-3.85l-2.3-9.461h-.069l-.052,9.461H268.96V214.42Z" transform="translate(-180.675 -196.077)" fill="#231916"/>
        <path id="Path_698" data-name="Path 698" d="M318.485,214.42v12.053H313.86V214.42Z" transform="translate(-206.151 -196.077)" fill="#231916"/>
        <path id="Path_699" data-name="Path 699" d="M337.088,222.774v3.695h-4.625v-3.695l-4.473-8.354h5.023l1.886,5.04h.035l1.895-5.04h4.785l-4.525,8.354Z" transform="translate(-214.168 -196.077)" fill="#231916"/>
        <path id="Path_700" data-name="Path 700" d="M364.64,217.011h.035l1.311,3.954h-2.678l1.328-3.954Zm-7.32,9.461h4.612l.744-2.609h3.9l.8,2.609h4.85l-4.3-12.053h-6.372l-4.231,12.053Z" transform="translate(-230.809 -196.077)" fill="#231916"/>
        <path id="Path_701" data-name="Path 701" d="M198.54,172.5h10.327v2.9h-5.7v1.951h5.525v2.9h-5.525v4.3H198.54V172.5Z" transform="translate(-140.72 -172.292)" fill="#231916"/>
        <path id="Path_702" data-name="Path 702" d="M238.8,184a13.133,13.133,0,0,1-3.314.485c-4,0-7.216-2.107-7.216-6.407,0-4.041,3.348-6.061,7.216-6.061a15.98,15.98,0,0,1,3.279.381v3.175a7.73,7.73,0,0,0-2.315-.45c-1.968,0-3.452,1.056-3.452,3.02a2.968,2.968,0,0,0,3.3,3.128,7.536,7.536,0,0,0,2.5-.467V184Z" transform="translate(-157.589 -172.02)" fill="#231916"/>
      </g>
    </g>
  </g>
</svg>
