<svg xmlns="http://www.w3.org/2000/svg" width="33" height="33" viewBox="0 0 33 33">
  <g id="Group_1144" data-name="Group 1144" transform="translate(-409.5 -4272.5)">
    <circle id="Ellipse_19" data-name="Ellipse 19" cx="16.5" cy="16.5" r="16.5" transform="translate(409.5 4272.5)" fill="#fff"/>
    <path id="Icon_simple-line" data-name="Icon simple-line" d="M14.182,7.281a.462.462,0,0,1,0,.923H12.9v.824h1.285a.461.461,0,1,1,0,.922H12.435a.462.462,0,0,1-.459-.461V6a.463.463,0,0,1,.461-.461h1.747a.461.461,0,0,1,0,.923H12.9v.824ZM11.359,9.49a.461.461,0,0,1-.316.436.473.473,0,0,1-.146.023.453.453,0,0,1-.373-.183L8.734,7.337V9.49a.46.46,0,1,1-.921,0V6a.459.459,0,0,1,.315-.436.426.426,0,0,1,.142-.024.474.474,0,0,1,.363.186l1.8,2.439V6a.461.461,0,1,1,.923,0Zm-4.2,0a.461.461,0,1,1-.921,0V6a.461.461,0,1,1,.921,0ZM5.348,9.95H3.6A.464.464,0,0,1,3.14,9.49V6a.461.461,0,1,1,.923,0V9.028H5.348a.461.461,0,0,1,0,.922M17.576,7.611c0-3.933-3.944-7.135-8.788-7.135S0,3.678,0,7.611c0,3.523,3.127,6.475,7.349,7.036.286.06.676.189.775.432a1.789,1.789,0,0,1,.028.791l-.12.747c-.033.22-.176.869.768.472a28.33,28.33,0,0,0,6.91-5.108,6.315,6.315,0,0,0,1.866-4.371" transform="translate(417.081 4281.523)" fill="#a21f2d"/>
  </g>
</svg>
