<svg xmlns="http://www.w3.org/2000/svg" width="33" height="33" viewBox="0 0 33 33">
  <g id="Group_1145" data-name="Group 1145" transform="translate(-409.5 -4272.5)">
    <circle id="Ellipse_19" data-name="Ellipse 19" cx="16.5" cy="16.5" r="16.5" transform="translate(409.5 4272.5)" fill="#fff"/>
    <path id="Icon_awesome-instagram" data-name="Icon awesome-instagram" d="M8.423,5.347a4.319,4.319,0,1,0,4.319,4.319A4.312,4.312,0,0,0,8.423,5.347Zm0,7.127a2.808,2.808,0,1,1,2.808-2.808A2.813,2.813,0,0,1,8.423,12.473Zm5.5-7.3a1.007,1.007,0,1,1-1.007-1.007A1.005,1.005,0,0,1,13.926,5.17Zm2.86,1.022a4.985,4.985,0,0,0-1.361-3.529A5.018,5.018,0,0,0,11.9,1.3c-1.391-.079-5.559-.079-6.95,0A5.011,5.011,0,0,0,1.417,2.659,5,5,0,0,0,.056,6.189c-.079,1.391-.079,5.559,0,6.95a4.985,4.985,0,0,0,1.361,3.529,5.024,5.024,0,0,0,3.529,1.361c1.391.079,5.559.079,6.95,0a4.985,4.985,0,0,0,3.529-1.361,5.018,5.018,0,0,0,1.361-3.529C16.865,11.748,16.865,7.583,16.787,6.193Zm-1.8,8.438a2.843,2.843,0,0,1-1.6,1.6c-1.109.44-3.74.338-4.965.338s-3.86.1-4.965-.338a2.843,2.843,0,0,1-1.6-1.6c-.44-1.109-.338-3.74-.338-4.965s-.1-3.86.338-4.965a2.843,2.843,0,0,1,1.6-1.6c1.109-.44,3.74-.338,4.965-.338s3.86-.1,4.965.338a2.843,2.843,0,0,1,1.6,1.6c.44,1.109.338,3.74.338,4.965S15.43,13.526,14.99,14.631Z" transform="translate(417.728 4279.99)" fill="#a21f2d"/>
  </g>
</svg>
