<svg id="Group_568" data-name="Group 568" xmlns="http://www.w3.org/2000/svg" width="244.494" height="49.504" viewBox="0 0 244.494 49.504">
  <g id="Group_564" data-name="Group 564">
    <path id="Path_588" data-name="Path 588" d="M5.538,9.15a.438.438,0,0,0-.684.361V29.1A17.024,17.024,0,0,0,14.195,44.27a.655.655,0,0,1,.361.585v4.211a.436.436,0,0,1-.592.408,21.731,21.731,0,0,1-7.49-4.861A22.03,22.03,0,0,1,0,28.94V.438A.436.436,0,0,1,.684.078l27.733,18.95a.438.438,0,0,0,.684-.361V10.252a.547.547,0,0,1,.548-.548h3.759a.547.547,0,0,1,.548.548V27.739a.438.438,0,0,1-.684.361Z" transform="translate(0 0.001)" fill="#fff"/>
    <path id="Path_589" data-name="Path 589" d="M33.371,38.131a.326.326,0,0,1-.534.252,12.1,12.1,0,0,1-4.317-9.269V18.892a.438.438,0,0,1,.684-.361l26.09,17.831a.55.55,0,0,0,.806-.225,16.971,16.971,0,0,0,1.517-7.024V5.412a.547.547,0,0,0-.548-.548H48.463a.547.547,0,0,1-.548-.548V.558A.547.547,0,0,1,48.463.01h13.46a.547.547,0,0,1,.548.548V29.11a21.775,21.775,0,0,1-2.616,10.364c-.211.391-.432.776-.67,1.153a21.634,21.634,0,0,1-1.65,2.3.654.654,0,0,1-.874.122L53.11,40.627,34.051,27.6a.438.438,0,0,0-.684.361V38.131Z" transform="translate(-18.819 -0.006)" fill="#fff"/>
  </g>
  <g id="Group_567" data-name="Group 567" transform="translate(54.645 7.695)">
    <g id="Group_565" data-name="Group 565" transform="translate(11.48)">
      <path id="Path_590" data-name="Path 590" d="M204.349,57.568V45.278l-5.306-8.824V57.568H194.4V24.58h4.643v3.98l5.306,8.888V24.58h4.643V57.568Z" transform="translate(-194.4 -23.914)" fill="#fff"/>
      <path id="Path_591" data-name="Path 591" d="M250.96,57.568V24.58H255.6V57.568Z" transform="translate(-231.721 -23.914)" fill="#fff"/>
      <path id="Path_592" data-name="Path 592" d="M282.708,56.8a7.42,7.42,0,0,1-5.905-7.327V44.528h4.643v5.014a2.721,2.721,0,0,0,2.463,2.745,2.662,2.662,0,0,0,2.844-2.646V44.83a.789.789,0,0,0-.2-.527L277.6,34.2a3.2,3.2,0,0,1-.8-2.116v-2a7.42,7.42,0,0,1,5.905-7.327,7.342,7.342,0,0,1,8.691,7.164v2.061h-4.643V30a2.707,2.707,0,0,0-2.235-2.7,2.662,2.662,0,0,0-3.075,2.619v1.742a.789.789,0,0,0,.2.527L290.593,42.3a3.2,3.2,0,0,1,.8,2.116V49.64a7.345,7.345,0,0,1-8.691,7.164Z" transform="translate(-248.772 -22.623)" fill="#fff"/>
      <path id="Path_593" data-name="Path 593" d="M341.869,57.568V40.615h-5.306V57.568H331.92V24.58h4.643V35.972h5.306V24.58h4.643V57.568Z" transform="translate(-285.142 -23.914)" fill="#fff"/>
      <path id="Path_594" data-name="Path 594" d="M388.48,57.568V24.58h4.643V57.568Z" transform="translate(-322.463 -23.914)" fill="#fff"/>
      <path id="Path_595" data-name="Path 595" d="M425.729,57.568V45.278l-5.306-8.824V57.568H415.78V24.58h4.643v3.98l5.306,8.888V24.58h4.643V57.568Z" transform="translate(-340.477 -23.914)" fill="#fff"/>
      <path id="Path_596" data-name="Path 596" d="M479.636,56.951a7.361,7.361,0,0,1-7.3-7.3V29.936a7.3,7.3,0,1,1,14.592,0V49.655a7.361,7.361,0,0,1-7.3,7.3Zm2.653-27.018a2.653,2.653,0,1,0-5.306,0V49.651a2.653,2.653,0,1,0,5.306,0Z" transform="translate(-377.798 -22.634)" fill="#fff"/>
      <path id="Path_597" data-name="Path 597" d="M542.159,57.568V39.04l-4.313,10.749L533.533,39.04V57.568H528.89V24.58h4.643v3.98l4.313,10.878,4.313-10.878V24.58H546.8V57.568Z" transform="translate(-415.113 -23.914)" fill="#fff"/>
      <path id="Path_598" data-name="Path 598" d="M595.21,57.568V24.58h4.643V57.568Z" transform="translate(-458.874 -23.914)" fill="#fff"/>
      <path id="Path_599" data-name="Path 599" d="M630.68,44.465v13.1h-4.643v-13.1l-4.976-8.293V24.58H625.7V34.846l2.653,4.446,2.653-4.446V24.58h4.643V36.172l-4.976,8.293Z" transform="translate(-475.931 -23.914)" fill="#fff"/>
      <path id="Path_600" data-name="Path 600" d="M685.829,56.281V43.975h-5.306V56.281H675.88V29.926a7.3,7.3,0,0,1,14.593,0V56.281Zm0-26.355a2.653,2.653,0,0,0-5.306,0v9.4h5.306Z" transform="translate(-512.104 -22.628)" fill="#fff"/>
    </g>
    <g id="Group_566" data-name="Group 566" transform="translate(0 0.666)">
      <path id="Path_601" data-name="Path 601" d="M167.487,78.579V75.3h-3.419a3.45,3.45,0,0,0-3.419,3.419v9.235a3.419,3.419,0,1,0,6.837,0v-.575h-2.174v.575a1.242,1.242,0,1,1-2.483,0V78.719a1.246,1.246,0,0,1,1.242-1.242h1.242v1.105h2.174Z" transform="translate(-160.65 -58.048)" fill="#fff"/>
      <path id="Path_602" data-name="Path 602" d="M164.39,32.07h3.517V29.9H164.39V26.75h4.136V24.58H162.22V39.992h2.17Z" transform="translate(-161.686 -24.58)" fill="#fff"/>
    </g>
  </g>
</svg>
