<svg xmlns="http://www.w3.org/2000/svg" width="140" height="50" viewBox="0 0 140 50">
  <g id="Group_559" data-name="Group 559" transform="translate(10338 16884)">
    <rect id="Rectangle_161" data-name="Rectangle 161" width="140" height="50" rx="25" transform="translate(-10338 -16884)" fill="#fff"/>
    <g id="Group_542" data-name="Group 542" transform="translate(-11724.5 -16957)">
      <path id="Path_2363" data-name="Path 2363" d="M-10.094-11.466l-1.106.448a16.235,16.235,0,0,1,1.022,1.806l-.1-.056a4.41,4.41,0,0,1-1.218.168h-2.8c.014-.028.028-.042.042-.07A14.524,14.524,0,0,1-13.4-10.6l-2.058-.672a6.335,6.335,0,0,1-.63,1.456,12.107,12.107,0,0,1-4.368,4.508l1.568,1.176a15.73,15.73,0,0,0,3.542-3.388h3.934A9.9,9.9,0,0,1-13.4-3.71,11.2,11.2,0,0,1-19.04-.238l1.652,1.484a13.039,13.039,0,0,0,5.642-3.962A14.214,14.214,0,0,0-9.3-7.378a5.605,5.605,0,0,1,.462-1.008l-1.19-.728,1.036-.434A17.8,17.8,0,0,0-10.094-11.466Zm1.652-.63-1.106.448A14.843,14.843,0,0,1-8.414-9.716l1.106-.476A19.989,19.989,0,0,0-8.442-12.1ZM.07-8.316-1.6-7.77A23.319,23.319,0,0,1-.462-4.662l1.68-.588C1.022-5.894.336-7.714.07-8.316ZM5.236-7.294l-1.96-.63a9.575,9.575,0,0,1-1.792,4.8A9.42,9.42,0,0,1-3.164-.2l1.47,1.5A10.933,10.933,0,0,0,3-2.17a11.289,11.289,0,0,0,1.9-4.1C4.984-6.552,5.068-6.846,5.236-7.294Zm-8.414-.28-1.68.6A28.278,28.278,0,0,1-3.584-3.738l1.708-.644C-2.156-5.166-2.828-6.86-3.178-7.574Zm20.93-4.074-1.106.462c.252.378.532.868.77,1.316L17.248-10a5.113,5.113,0,0,1-1.442.168H10.864a15.641,15.641,0,0,1-1.652-.1v1.988c.294-.014,1.064-.1,1.652-.1H15.61a10.847,10.847,0,0,1-2.086,3.43A15.694,15.694,0,0,1,7.784-.588L9.226.924A18.393,18.393,0,0,0,14.49-3,30.952,30.952,0,0,1,18.018.966l1.6-1.4a39.357,39.357,0,0,0-3.906-4,20.508,20.508,0,0,0,2.2-3.836,6.889,6.889,0,0,1,.49-.882l-.322-.238.8-.336A18.76,18.76,0,0,0,17.752-11.648Zm1.764-.49-1.106.462a16.435,16.435,0,0,1,1.134,1.918l1.106-.476A18.863,18.863,0,0,0,19.516-12.138Z" transform="translate(1470.5 104)" fill="#a21f2d"/>
      <g id="Icon_feather-shopping-cart" data-name="Icon feather-shopping-cart" transform="translate(1421.25 87.749)">
        <path id="Path_214" data-name="Path 214" d="M11.549,25.775A.775.775,0,1,1,10.775,25,.775.775,0,0,1,11.549,25.775Z" transform="translate(-3.328 -9.032)" fill="none" stroke="#a21f2d" stroke-linecap="round" stroke-linejoin="round" stroke-width="2"/>
        <path id="Path_215" data-name="Path 215" d="M25.3,25.775A.775.775,0,1,1,24.525,25,.775.775,0,0,1,25.3,25.775Z" transform="translate(-8.557 -9.032)" fill="none" stroke="#a21f2d" stroke-linecap="round" stroke-linejoin="round" stroke-width="2"/>
        <path id="Path_216" data-name="Path 216" d="M1.25,1.25h3.1L6.425,11.622A1.549,1.549,0,0,0,7.974,12.87H15.5a1.549,1.549,0,0,0,1.549-1.247l1.239-6.5H5.123" fill="none" stroke="#a21f2d" stroke-linecap="round" stroke-linejoin="round" stroke-width="2"/>
      </g>
    </g>
  </g>
</svg>
