<svg xmlns="http://www.w3.org/2000/svg" width="716" height="625" viewBox="0 0 716 625">
  <g id="Group_811" data-name="Group 811" transform="translate(-603 -1389)">
    <g id="Group_713" data-name="Group 713" transform="translate(-22 4)">
      <circle id="Ellipse_27" data-name="Ellipse 27" cx="83.5" cy="83.5" r="83.5" transform="translate(1174 1606)" fill="#fff"/>
      <path id="Path_2365" data-name="Path 2365" d="M-32.672-9.68v-1.856h-6.352v-2.08h-2.032v2.08h-6.208V-9.68h6.224V-8h-4.72V-.528h1.92V-6.144h2.8V1.408h1.984V-6.144H-36v3.52c0,.176-.08.256-.336.256s-1.2,0-2-.032A6.829,6.829,0,0,1-37.7-.528a7.63,7.63,0,0,0,2.832-.32c.656-.288.848-.832.848-1.744V-8h-5.04V-9.68Zm13.376.64v5.776a41.765,41.765,0,0,0-3.952-3.968,12.126,12.126,0,0,0,.224-1.808Zm-9.344,0h3.648a6.339,6.339,0,0,1-3.648,5.9ZM-17.408-10.9h-5.6v-2.656h-1.968V-10.9h-5.568V1.424h1.9V-3.088A7.742,7.742,0,0,1-27.312-1.68a8.3,8.3,0,0,0,3.44-3.68,33.463,33.463,0,0,1,3.008,3.344L-19.3-3.232v2.4c0,.288-.1.368-.4.384-.3,0-1.376.016-2.32-.032a6.24,6.24,0,0,1,.624,1.888,8.259,8.259,0,0,0,3.1-.336c.672-.3.88-.832.88-1.856ZM-4.72-4.416h3.168v-1.76H-4.72V-8.832H-6.64v2.656H-9.888v1.76H-6.64V-.768h-3.872V.992H-.928V-.768H-4.72Zm-3.952-6.928c.224-.576.432-1.152.608-1.744l-2-.48c-.192.736-.432,1.472-.7,2.224h-4.32V-9.52h3.472A12.126,12.126,0,0,1-15.6-4.912a13.3,13.3,0,0,1,.944,1.84,12.015,12.015,0,0,0,1.408-1.12V1.376h1.936V-6.368A18.391,18.391,0,0,0-9.44-9.52H-.88v-1.824ZM4.1-13.52A17.023,17.023,0,0,1,.24-7.536,12.326,12.326,0,0,1,1.232-5.6,15.585,15.585,0,0,0,2.56-7.1V1.344H4.368v-11.2a25.948,25.948,0,0,0,1.488-3.088Zm7.3,12.608V-4.1h3.456V-5.888H11.392V-8.672H15.28v-1.792H11.616l.7-.8A22.4,22.4,0,0,0,8.7-13.584L7.44-12.224a24.041,24.041,0,0,1,2.672,1.76H5.568v1.792H9.456v2.784H6.08V-4.1H9.456V-.912H5.2V.88H15.52V-.912Zm19.44-4.72a6.093,6.093,0,0,0-6.464-6.24,7.109,7.109,0,0,0-7.344,6.848c0,2.7,1.472,4.656,3.248,4.656,1.744,0,3.12-1.984,4.08-5.216a32.358,32.358,0,0,0,.96-4.336A3.955,3.955,0,0,1,28.672-5.7a4.342,4.342,0,0,1-3.648,4.288,12.306,12.306,0,0,1-1.488.256l1.2,1.9C28.768.128,30.832-2.256,30.832-5.632Zm-11.76.4a5.036,5.036,0,0,1,4.064-4.64A24.016,24.016,0,0,1,22.288-6c-.656,2.16-1.28,3.168-1.952,3.168C19.712-2.832,19.072-3.616,19.072-5.232ZM47.216-9.184v-1.824H40.9v-2.608H38.928v2.608H32.8v1.824h4.576C37.2-5.76,36.832-2.112,32.512-.112A6.083,6.083,0,0,1,33.856,1.5a9.392,9.392,0,0,0,5.136-6.816h4.4c-.224,2.912-.512,4.3-.928,4.656a1.027,1.027,0,0,1-.768.208c-.464,0-1.584,0-2.688-.112a4.428,4.428,0,0,1,.672,1.872,21.915,21.915,0,0,0,2.736,0A2.362,2.362,0,0,0,44.144.576c.64-.7.976-2.5,1.264-6.848a7.784,7.784,0,0,0,.064-.832H39.3c.08-.688.128-1.392.176-2.08Z" transform="translate(1258 1733)" fill="#a21f2d"/>
      <g id="Layer_2" data-name="Layer 2" transform="translate(1236.012 1653.236)">
        <g id="Group_700" data-name="Group 700" transform="translate(0.988 1)">
          <path id="Path_703" data-name="Path 703" d="M38.609,24.461H20.187a6.186,6.186,0,0,1-4.872-2.383l-4.707-6.051L5.229,22.933a1.98,1.98,0,0,1-2.778.342l-.7-.546A1.989,1.989,0,0,1,1.4,19.944L7.527,12.07l3.055-3.937.026-.026h0L33.579,8.1l7.729,11.212A3.285,3.285,0,0,1,38.6,24.461Z" transform="translate(-0.988 -3.426)" fill="none" stroke="#a21f2d" stroke-linecap="round" stroke-linejoin="round" stroke-width="2"/>
          <path id="Path_704" data-name="Path 704" d="M15.59,8.1v.007l-.026.026L15.55,8.1Z" transform="translate(-5.962 -3.426)" fill="none" stroke="#a21f2d" stroke-linecap="round" stroke-linejoin="round" stroke-width="2"/>
          <path id="Path_705" data-name="Path 705" d="M8.45,30.21V46.933H39.973V32.014" transform="translate(-3.537 -10.979)" fill="none" stroke="#a21f2d" stroke-linecap="round" stroke-linejoin="round" stroke-width="2"/>
          <path id="Path_706" data-name="Path 706" d="M16.37,49.828V39.07h4.5V49.96" transform="translate(-6.242 -14.005)" fill="none" stroke="#a21f2d" stroke-linecap="round" stroke-linejoin="round" stroke-width="2"/>
          <path id="Path_707" data-name="Path 707" d="M33.12,5.5V1h5.827V5.5" transform="translate(-11.965 -1)" fill="none" stroke="#a21f2d" stroke-linecap="round" stroke-linejoin="round" stroke-width="2"/>
        </g>
      </g>
    </g>
    <g id="Group_715" data-name="Group 715" transform="translate(0 -9)">
      <circle id="Ellipse_25" data-name="Ellipse 25" cx="83.5" cy="83.5" r="83.5" transform="translate(877 1398)" fill="#fff"/>
      <path id="Path_2366" data-name="Path 2366" d="M-34.488-9.68v-1.856H-40.84v-2.08h-2.032v2.08H-49.08V-9.68h6.224V-8h-4.72V-.528h1.92V-6.144h2.8V1.408h1.984V-6.144h3.056v3.52c0,.176-.08.256-.336.256s-1.2,0-2-.032a6.829,6.829,0,0,1,.64,1.872,7.63,7.63,0,0,0,2.832-.32c.656-.288.848-.832.848-1.744V-8h-5.04V-9.68Zm13.376.64v5.776a41.765,41.765,0,0,0-3.952-3.968A12.126,12.126,0,0,0-24.84-9.04Zm-9.344,0h3.648a6.339,6.339,0,0,1-3.648,5.9ZM-19.224-10.9h-5.6v-2.656h-1.968V-10.9H-32.36V1.424h1.9V-3.088A7.742,7.742,0,0,1-29.128-1.68a8.3,8.3,0,0,0,3.44-3.68A33.463,33.463,0,0,1-22.68-2.016l1.568-1.216v2.4c0,.288-.1.368-.4.384-.3,0-1.376.016-2.32-.032a6.24,6.24,0,0,1,.624,1.888,8.259,8.259,0,0,0,3.1-.336c.672-.3.88-.832.88-1.856Zm12.688,6.48h3.168v-1.76H-6.536V-8.832h-1.92v2.656H-11.7v1.76h3.248V-.768h-3.872V.992h9.584V-.768H-6.536Zm-3.952-6.928c.224-.576.432-1.152.608-1.744l-2-.48c-.192.736-.432,1.472-.7,2.224H-16.9V-9.52h3.472a12.126,12.126,0,0,1-3.984,4.608,13.3,13.3,0,0,1,.944,1.84,12.015,12.015,0,0,0,1.408-1.12V1.376h1.936V-6.368A18.391,18.391,0,0,0-11.256-9.52H-2.7v-1.824ZM.344-9.984H2.072v-1.024H3.624v1.024H5.368v-1.024H6.952V-12.4H5.368v-1.136H3.624V-12.4H2.072v-1.136H.344V-12.4H-1.08v1.392H.344ZM.936-7.248V-8.432H2.008v1.184Zm3.888,0H3.752V-8.432H4.824ZM10.136-9.92c.016-1.1.016-2.256.016-3.488H8.408c0,1.248,0,2.4-.016,3.488H6.936v1.76H8.36C8.248-5.2,7.9-2.88,6.744-1.168v-.16c-.992.1-2,.192-2.992.272V-1.84H6.536V-3.168H3.752v-.768h2.96V-5.312H3.752v-.672h2.8V-9.7H-.68v3.712H2.008v.672h-2.9v1.376h2.9v.768H-.648V-1.84H2.008v.928C.792-.8-.328-.72-1.224-.656L-1.032.928C.824.752,3.4.512,5.928.24a5.417,5.417,0,0,1,1.04,1.184c2.32-2.08,2.944-5.28,3.12-9.584h1.5c-.1,5.184-.24,7.088-.544,7.5a.542.542,0,0,1-.528.288A10.768,10.768,0,0,1,9.1-.448a4.592,4.592,0,0,1,.512,1.776,10.879,10.879,0,0,0,1.856-.064A1.734,1.734,0,0,0,12.632.5c.5-.7.624-3.04.736-9.6,0-.208.016-.816.016-.816Zm18.88,4.288a6.093,6.093,0,0,0-6.464-6.24,7.109,7.109,0,0,0-7.344,6.848c0,2.7,1.472,4.656,3.248,4.656,1.744,0,3.12-1.984,4.08-5.216A32.358,32.358,0,0,0,23.5-9.92,3.955,3.955,0,0,1,26.856-5.7a4.342,4.342,0,0,1-3.648,4.288,12.306,12.306,0,0,1-1.488.256l1.2,1.9C26.952.128,29.016-2.256,29.016-5.632Zm-11.76.4a5.036,5.036,0,0,1,4.064-4.64A24.016,24.016,0,0,1,20.472-6c-.656,2.16-1.28,3.168-1.952,3.168C17.9-2.832,17.256-3.616,17.256-5.232ZM45.4-9.184v-1.824H39.08v-2.608H37.112v2.608H30.984v1.824H35.56C35.384-5.76,35.016-2.112,30.7-.112A6.082,6.082,0,0,1,32.04,1.5a9.392,9.392,0,0,0,5.136-6.816h4.4c-.224,2.912-.512,4.3-.928,4.656a1.027,1.027,0,0,1-.768.208c-.464,0-1.584,0-2.688-.112a4.428,4.428,0,0,1,.672,1.872,21.915,21.915,0,0,0,2.736,0A2.362,2.362,0,0,0,42.328.576c.64-.7.976-2.5,1.264-6.848a7.784,7.784,0,0,0,.064-.832H37.48c.08-.688.128-1.392.176-2.08Z" transform="translate(961 1521)" fill="#a21f2d"/>
      <g id="factory-1067" transform="translate(940 1435.519)">
        <path id="Path_719" data-name="Path 719" d="M112.884,165.922h-6.747v-6.747h6.747v6.747Zm-5.347-1.4h3.947v-3.947h-3.947Z" transform="translate(-88.51 -128.806)" fill="#a21f2d" stroke="#a21f2d" stroke-width="0.5"/>
        <path id="Path_720" data-name="Path 720" d="M171.7,165.922h-6.746v-6.747H171.7Zm-5.346-1.4H170.3v-3.947h-3.946Z" transform="translate(-137.558 -128.806)" fill="#a21f2d" stroke="#a21f2d" stroke-width="0.5"/>
        <path id="Path_721" data-name="Path 721" d="M54.07,165.922H47.323v-6.747H54.07Zm-5.347-1.4H52.67v-3.947H48.723Z" transform="translate(-39.464 -128.806)" fill="#a21f2d" stroke="#a21f2d" stroke-width="0.5"/>
        <path id="Path_722" data-name="Path 722" d="M39.037,43.751v-24.9l-2.019,1.092L36,4.718h-5.88L28.816,24.374l-1.337.723V18.846L15.921,25.1V18.846L2.963,25.854v17.9H0v1.4H42v-1.4H39.037ZM34.695,6.118l.148,2.22H31.287l.147-2.22Zm-3.5,3.62h3.742l.728,10.933-5.391,2.915ZM4.363,26.689,14.521,21.2v6.251L26.08,21.2v6.251L37.638,21.2V43.751H4.363Z" transform="translate(0 0)" fill="#a21f2d" stroke="#a21f2d" stroke-width="0.5"/>
      </g>
    </g>
    <g id="Group_716" data-name="Group 716" transform="translate(0 13)">
      <circle id="Ellipse_26" data-name="Ellipse 26" cx="83.5" cy="83.5" r="83.5" transform="translate(877 1834)" fill="#fff"/>
      <path id="Path_2364" data-name="Path 2364" d="M-53.408-9.68v-1.856H-59.76v-2.08h-2.032v2.08H-68V-9.68h6.224V-8H-66.5V-.528h1.92V-6.144h2.8V1.408h1.984V-6.144h3.056v3.52c0,.176-.08.256-.336.256s-1.2,0-2-.032a6.829,6.829,0,0,1,.64,1.872A7.63,7.63,0,0,0-55.6-.848c.656-.288.848-.832.848-1.744V-8h-5.04V-9.68Zm13.376.64v5.776a41.765,41.765,0,0,0-3.952-3.968A12.126,12.126,0,0,0-43.76-9.04Zm-9.344,0h3.648a6.339,6.339,0,0,1-3.648,5.9ZM-38.144-10.9h-5.6v-2.656h-1.968V-10.9H-51.28V1.424h1.9V-3.088A7.742,7.742,0,0,1-48.048-1.68a8.3,8.3,0,0,0,3.44-3.68A33.462,33.462,0,0,1-41.6-2.016l1.568-1.216v2.4c0,.288-.1.368-.4.384-.3,0-1.376.016-2.32-.032a6.24,6.24,0,0,1,.624,1.888,8.259,8.259,0,0,0,3.1-.336c.672-.3.88-.832.88-1.856ZM-21.9-5.632a6.093,6.093,0,0,0-6.464-6.24,7.109,7.109,0,0,0-7.344,6.848c0,2.7,1.472,4.656,3.248,4.656,1.744,0,3.12-1.984,4.08-5.216a32.358,32.358,0,0,0,.96-4.336A3.955,3.955,0,0,1-24.064-5.7a4.342,4.342,0,0,1-3.648,4.288,12.306,12.306,0,0,1-1.488.256l1.2,1.9C-23.968.128-21.9-2.256-21.9-5.632Zm-11.76.4A5.036,5.036,0,0,1-29.6-9.872,24.016,24.016,0,0,1-30.448-6c-.656,2.16-1.28,3.168-1.952,3.168C-33.024-2.832-33.664-3.616-33.664-5.232Zm16.464.656A23.74,23.74,0,0,0-12.624-6.4,20.487,20.487,0,0,0-8.208-4.576Zm1.584,3.728v-2h5.792v2Zm5.44-9.536A11.948,11.948,0,0,1-12.624-8.5a13.034,13.034,0,0,1-2.448-1.888ZM-8.4-12.112l-.32.1h-5.072c.256-.352.48-.72.7-1.072l-1.808-.624A12.9,12.9,0,0,1-19.984-8.96a11.822,11.822,0,0,1,1.408,1.424,16.506,16.506,0,0,0,2.24-1.7,16.041,16.041,0,0,0,1.92,1.68A26.16,26.16,0,0,1-20.3-5.728a7.7,7.7,0,0,1,.928,1.712c.608-.128,1.216-.288,1.824-.464v5.9h1.936V.832h5.792V1.36h2.048V-4.464c.5.128.976.256,1.488.352A9.032,9.032,0,0,1-5.056-5.888,22.872,22.872,0,0,1-10.72-7.52a12.76,12.76,0,0,0,3.7-3.712ZM10.368-7.3V-9.264H4.08c.16-1.488.176-2.96.192-4.272H2.192c-.016,1.312,0,2.768-.16,4.272H-3.792V-7.3h5.5A9.592,9.592,0,0,1-4.1-.256,5.637,5.637,0,0,1-2.672,1.36a11.013,11.013,0,0,0,5.984-6.8,11.934,11.934,0,0,0,6,6.784A7.657,7.657,0,0,1,10.72-.448,10.677,10.677,0,0,1,4.736-7.3ZM14.16-9.344H24.368v2.208H26.24v-3.888H24.112c.432-.56.912-1.2,1.344-1.808l-2.064-.624a13.375,13.375,0,0,1-1.376,2.432H19.6l.768-.3a9.382,9.382,0,0,0-1.248-2.3l-1.68.608a11.165,11.165,0,0,1,1.008,2H15.936l.576-.272a8.72,8.72,0,0,0-1.456-2.1l-1.616.72a13.46,13.46,0,0,1,1.1,1.648H12.368v3.888H14.16ZM26.4-4.528H20.352A15.5,15.5,0,0,0,23.824-7.28l-1.2-.928-.416.1H15.024v1.648h5.424a10.824,10.824,0,0,1-1.232.88H18.3v1.056H12.16v1.744H18.3V-.7c0,.224-.08.288-.416.288-.32.016-1.5.016-2.528-.032a8.494,8.494,0,0,1,.784,1.856,9.7,9.7,0,0,0,3.1-.3c.784-.272.992-.768.992-1.76V-2.784H26.4Zm5.568.112A1.483,1.483,0,0,0,33.44-5.952a1.483,1.483,0,0,0-1.472-1.536,1.47,1.47,0,0,0-1.456,1.536A1.47,1.47,0,0,0,31.968-4.416ZM46.1-1.2H43.328V-2.24H46.1Zm5.12-4.608H38.384v7.2H40.24V-4.224H49.3V-.656c0,.192-.064.24-.3.256-.176.016-.672.016-1.216,0V-3.5H41.664V.8h1.664V.08h4.128a5.4,5.4,0,0,1,.368,1.28,6.386,6.386,0,0,0,2.592-.3c.624-.288.8-.8.8-1.68ZM47.168-7.76H42.176v-.976h4.992ZM40.368-10v3.52H49.1V-10ZM45.6-12.224v-1.344H43.664v1.344h-5.92v1.616H51.728v-1.616Zm22.432.9h-3.5v-2.224H62.656v2.224H59.2v1.744h8.832ZM59.28-4.752c-.288-.448-1.552-2.352-2-2.944v-.816h1.744v-1.76H57.28v-3.28H55.52v3.28H53.5v1.76h1.872A15.975,15.975,0,0,1,53.12-3.136a8.721,8.721,0,0,1,.864,1.728,12.969,12.969,0,0,0,1.536-3.2V1.376h1.76v-6.7c.368.72.752,1.488.96,2ZM68.32-6.16A14.753,14.753,0,0,0,65.84-9.5l-1.472.832a19.058,19.058,0,0,1,1.824,2.448L64.544-6.56A9.458,9.458,0,0,1,63.5-4a10.6,10.6,0,0,1-1.28-2.464l-1.216.336a12.232,12.232,0,0,0,1.76-2.608l-1.712-.7a9.084,9.084,0,0,1-2.368,3.12,7.833,7.833,0,0,1,1.3,1.2c.224-.192.464-.4.688-.624a15.026,15.026,0,0,0,1.664,3.28A9.177,9.177,0,0,1,58.448-.08a7.67,7.67,0,0,1,.976,1.52,10.927,10.927,0,0,0,4.048-2.5,10.227,10.227,0,0,0,3.568,2.48,8.079,8.079,0,0,1,1.328-1.7A9.527,9.527,0,0,1,64.72-2.544,12.732,12.732,0,0,0,66.368-5.92a7.06,7.06,0,0,1,.352.688ZM-32.552,24.224c3.136,0,5.3-2.352,5.3-6.192s-2.16-6.1-5.3-6.1-5.3,2.24-5.3,6.1C-37.848,21.872-35.688,24.224-32.552,24.224Zm0-2.048c-1.76,0-2.88-1.616-2.88-4.144,0-2.544,1.12-4.064,2.88-4.064s2.88,1.52,2.88,4.064C-29.672,20.56-30.792,22.176-32.552,22.176ZM-24.936,24h4.224c2.608,0,4.592-1.1,4.592-3.488a2.692,2.692,0,0,0-2.224-2.8v-.08a2.686,2.686,0,0,0,1.616-2.56c0-2.208-1.856-2.928-4.288-2.928h-3.92Zm2.368-7.024V13.968h1.408c1.424,0,2.128.416,2.128,1.456,0,.944-.656,1.552-2.16,1.552Zm0,5.2V18.72h1.648c1.632,0,2.5.5,2.5,1.648,0,1.232-.88,1.808-2.5,1.808Zm7.3,4.736H-13.7L-9.736,11.1h-1.552ZM1.992,19.584H5.16v-1.76H1.992V15.168H.072v2.656H-3.176v1.76H.072v3.648H-3.8v1.76H5.784v-1.76H1.992ZM-1.96,12.656c.224-.576.432-1.152.608-1.744l-2-.48c-.192.736-.432,1.472-.7,2.224h-4.32V14.48H-4.9a12.126,12.126,0,0,1-3.984,4.608,13.3,13.3,0,0,1,.944,1.84,12.015,12.015,0,0,0,1.408-1.12v5.568H-4.6V17.632A18.391,18.391,0,0,0-2.728,14.48h8.56V12.656Zm11.568,2H19.816v2.208h1.872V12.976H19.56c.432-.56.912-1.2,1.344-1.808l-2.064-.624a13.375,13.375,0,0,1-1.376,2.432H15.048l.768-.3a9.382,9.382,0,0,0-1.248-2.3l-1.68.608a11.165,11.165,0,0,1,1.008,2H11.384l.576-.272a8.72,8.72,0,0,0-1.456-2.1l-1.616.72a13.46,13.46,0,0,1,1.1,1.648H7.816v3.888H9.608Zm12.24,4.816H15.8a15.5,15.5,0,0,0,3.472-2.752l-1.2-.928-.416.1H10.472v1.648H15.9a10.824,10.824,0,0,1-1.232.88h-.912v1.056H7.608v1.744h6.144V23.3c0,.224-.08.288-.416.288-.32.016-1.5.016-2.528-.032a8.494,8.494,0,0,1,.784,1.856,9.7,9.7,0,0,0,3.1-.3c.784-.272.992-.768.992-1.76V21.216h6.16Zm9.888,3.6V19.856H36.52v-1.84H31.736V15.2h5.392V13.344H31.736v-2.88h-2v2.88H27.272c.272-.736.528-1.488.752-2.256l-1.968-.432a13.766,13.766,0,0,1-2.832,5.728,15.13,15.13,0,0,1,1.712,1.136,13.187,13.187,0,0,0,1.488-2.32h3.312v2.816H25.4v1.84h4.336v3.216H23.56v1.872H37.944V23.072Z" transform="translate(961 1946.246)" fill="#a21f2d"/>
      <g id="school-1072" transform="translate(940 1867.579)">
        <path id="Path_723" data-name="Path 723" d="M113.665,82.444h-6.048V76.4h6.048v6.048Zm-4.679-1.369H112.3V77.764h-3.311Z" transform="translate(-90.337 -64.796)" fill="#a21f2d" stroke="#a21f2d" stroke-width="0.5"/>
        <path id="Path_724" data-name="Path 724" d="M113.665,130.363h-6.048v-6.048h6.048v6.048Zm-4.679-1.369H112.3v-3.311h-3.311Z" transform="translate(-90.337 -105.021)" fill="#a21f2d" stroke="#a21f2d" stroke-width="0.5"/>
        <path id="Path_725" data-name="Path 725" d="M184.127,119.122h-6.049v-6.048h6.049Zm-4.68-1.369h3.311v-3.311h-3.311Z" transform="translate(-149.484 -95.585)" fill="#a21f2d" stroke="#a21f2d" stroke-width="0.5"/>
        <path id="Path_726" data-name="Path 726" d="M184.127,167.039h-6.049v-6.048h6.049Zm-4.68-1.369h3.311v-3.311h-3.311Z" transform="translate(-149.484 -135.807)" fill="#a21f2d" stroke="#a21f2d" stroke-width="0.5"/>
        <path id="Path_727" data-name="Path 727" d="M43.2,119.122H37.154v-6.048H43.2v6.048Zm-4.679-1.369h3.311v-3.311H38.522Z" transform="translate(-31.188 -95.585)" fill="#a21f2d" stroke="#a21f2d" stroke-width="0.5"/>
        <path id="Path_728" data-name="Path 728" d="M43.2,167.039H37.154v-6.048H43.2v6.048Zm-4.679-1.369h3.311v-3.311H38.522Z" transform="translate(-31.188 -135.807)" fill="#a21f2d" stroke="#a21f2d" stroke-width="0.5"/>
        <path id="Path_729" data-name="Path 729" d="M37.961,38.7V13.939H26.646V8.472L20.989,5.779V4.8L26.2,2.223,19.62-.8V5.779L13.963,8.472v5.468H2.648V38.7H0v1.369H40.609V38.7H37.961ZM20.989,1.339l2.026.93-2.026,1ZM20.3,6.97l4.973,2.367V33.448H23.329v-6.46H17.28v6.459H15.332V9.336ZM21.96,33.447H18.649V28.357H21.96ZM4.017,15.308h9.946V33.447H11.33v1.369H29.279V33.447H26.646V15.308h9.946V38.7H4.017Z" transform="translate(0 0)" fill="#a21f2d" stroke="#a21f2d" stroke-width="0.5"/>
        <rect id="Rectangle_207" data-name="Rectangle 207" width="21.78" height="1.367" transform="translate(9.412 36.155)" fill="#a21f2d" stroke="#a21f2d" stroke-width="0.5"/>
      </g>
    </g>
    <g id="Group_714" data-name="Group 714" transform="translate(183 4)">
      <circle id="Ellipse_24" data-name="Ellipse 24" cx="83.5" cy="83.5" r="83.5" transform="translate(420 1606)" fill="#fff"/>
      <path id="Path_2363" data-name="Path 2363" d="M-37.28-7.328V-1.36h1.888V-7.328h2.672v-1.76H-39.7v-1.6A33.666,33.666,0,0,0-33.28-12.08l-1.568-1.456A27.31,27.31,0,0,1-39.9-12.272l-1.632-.3v3.648c0,1.856-.192,4.256-1.824,6a4.685,4.685,0,0,1,1.376,1.312A9.249,9.249,0,0,0-39.76-7.328Zm-5.872-3.44a12.812,12.812,0,0,0-2.672-2.416l-1.408,1.152A12.108,12.108,0,0,1-44.656-9.5Zm-.4,3.424h-3.7V-5.6h1.84v3.376A21.012,21.012,0,0,1-47.6-.752l.928,1.984c.88-.672,1.584-1.3,2.288-1.92,1.04,1.248,2.352,1.7,4.32,1.776,1.9.08,5.12.048,7.04-.048a9.965,9.965,0,0,1,.592-1.92c-2.128.16-5.728.208-7.6.128-1.664-.064-2.864-.5-3.52-1.568ZM-20.064-2.1V-3.968h.816V-2.1ZM-22.528-5.52l-.272.048h-.912a8.082,8.082,0,0,0,.288-.88l-1.408-.288a10.115,10.115,0,0,0,2.368-1.728v2.1h1.76V-8.48A9.685,9.685,0,0,0-18-6.56h-1.248v1.168h-2.544v.144Zm-.848,1.44a8.079,8.079,0,0,1-.592,1.472c-.256-.224-.56-.464-.848-.688.16-.256.32-.512.48-.784Zm5.776.112h.9V-5.392h-.9v-.992l.048.016a6.764,6.764,0,0,1,1.1-1.344,8.637,8.637,0,0,1-3.2-1.68h2.864v-1.584h-1.728c.384-.48.832-1.088,1.3-1.712l-1.648-.608A13.546,13.546,0,0,1-20-11.248l.656.272H-20.7v-2.576h-1.76v2.576h-1.328l.64-.3a6.509,6.509,0,0,0-1.184-1.984l-1.376.624a9.289,9.289,0,0,1,.96,1.664h-1.44v1.584h2.672a8.894,8.894,0,0,1-3.2,1.808,7.773,7.773,0,0,1,1.088,1.312,7.5,7.5,0,0,0,.736-.336,7.9,7.9,0,0,1-1.568,3.024,4.9,4.9,0,0,0,.1-1.04,5.486,5.486,0,0,0-.992-3.232c.384-1.28.864-3.056,1.2-4.432l-1.184-.64-.24.064h-3.264V1.392h1.616v-12.56H-28.1c-.192,1.088-.48,2.48-.752,3.488a4.682,4.682,0,0,1,.9,2.816,1.429,1.429,0,0,1-.208.944.724.724,0,0,1-.416.144,4.315,4.315,0,0,1-.592-.032,3.857,3.857,0,0,1,.4,1.568,5.454,5.454,0,0,0,.912-.032,2.154,2.154,0,0,0,.832-.32l.08-.064a7.816,7.816,0,0,1,.9.784c.16-.144.3-.288.464-.448a8.824,8.824,0,0,1,.88.816A6.578,6.578,0,0,1-27.28.384,5.622,5.622,0,0,1-26.128,1.44c2.048-.96,3.584-2.768,4.336-5.808v.4h.384V-2.1h-1.008V-.672h3.168V1.392H-17.6V-.672h1.072V-2.1H-17.6Zm5.824-4.1h1.616V-9.872h-1.616v-3.472h-1.776v3.472h-1.872v1.808h1.872v4.512c-.8.3-1.5.576-2.08.784l.768,1.92c1.472-.672,3.3-1.536,4.992-2.384l-.432-1.68c-.48.208-.976.416-1.472.624ZM-6.32-.608c-.976,0-1.12-.144-1.12-1.072V-6.624L-6.112-7.2v4.88h1.776V-7.968l1.376-.608c0,2.272-.016,3.44-.048,3.7-.064.288-.16.352-.352.352a7.28,7.28,0,0,1-.768-.032,5.11,5.11,0,0,1,.4,1.6,4.461,4.461,0,0,0,1.664-.224,1.365,1.365,0,0,0,.816-1.328c.08-.656.112-2.576.112-5.616l.064-.32L-2.4-10.912l-.336.224-.336.224-1.264.544v-3.648H-6.112v4.416l-1.328.56v-3.424H-9.264v4.208l-1.568.656.7,1.7.864-.368v4.112c0,2.208.624,2.8,2.784,2.8h3.408C-1.2,1.088-.64.32-.384-1.92a4.816,4.816,0,0,1-1.664-.688c-.144,1.632-.3,2-1.184,2ZM4.912-4.624,3.824-4.08V-7.936h1.2V-9.76h-1.2v-3.584H2.048V-9.76H.608v1.824h1.44v4.768C1.456-2.9.912-2.64.464-2.448l.72,1.92c1.312-.7,2.864-1.584,4.272-2.416Zm8.464-3.952A19.644,19.644,0,0,1,12.5-5.6c-.144-1.216-.24-2.576-.3-4.032h3.1V-11.36h-.7L15.28-12a10.123,10.123,0,0,0-1.76-1.552l-1.072.928A15.015,15.015,0,0,1,13.84-11.36h-1.7c-.016-.736-.016-1.456,0-2.192H10.336c0,.736.016,1.456.032,2.192h-5.1v1.728h5.168a46.248,46.248,0,0,0,.672,6.72c-.208.3-.432.592-.672.88L10.288-3.3c-2.016.448-4.112.928-5.5,1.184L5.232-.336C6.608-.688,8.4-1.168,10.1-1.616A10.5,10.5,0,0,1,8.048.08a8.37,8.37,0,0,1,1.36,1.2,11.188,11.188,0,0,0,2.24-2.112c.5,1.36,1.168,2.208,2.064,2.208,1.2,0,1.664-.608,1.936-2.736a4.285,4.285,0,0,1-1.28-1.056C14.32-.992,14.192-.4,13.968-.4c-.384,0-.752-.864-1.024-2.288a20.477,20.477,0,0,0,2.128-5.568ZM8.352-5.152H7.12V-7.1H8.352ZM5.728-8.56V-3.7H9.84V-8.56Zm25.1,2.928a6.093,6.093,0,0,0-6.464-6.24,7.109,7.109,0,0,0-7.344,6.848c0,2.7,1.472,4.656,3.248,4.656,1.744,0,3.12-1.984,4.08-5.216a32.358,32.358,0,0,0,.96-4.336A3.955,3.955,0,0,1,28.672-5.7a4.342,4.342,0,0,1-3.648,4.288,12.306,12.306,0,0,1-1.488.256l1.2,1.9C28.768.128,30.832-2.256,30.832-5.632Zm-11.76.4a5.036,5.036,0,0,1,4.064-4.64A24.016,24.016,0,0,1,22.288-6c-.656,2.16-1.28,3.168-1.952,3.168C19.712-2.832,19.072-3.616,19.072-5.232ZM47.216-9.184v-1.824H40.9v-2.608H38.928v2.608H32.8v1.824h4.576C37.2-5.76,36.832-2.112,32.512-.112A6.083,6.083,0,0,1,33.856,1.5a9.392,9.392,0,0,0,5.136-6.816h4.4c-.224,2.912-.512,4.3-.928,4.656a1.027,1.027,0,0,1-.768.208c-.464,0-1.584,0-2.688-.112a4.428,4.428,0,0,1,.672,1.872,21.915,21.915,0,0,0,2.736,0A2.362,2.362,0,0,0,44.144.576c.64-.7.976-2.5,1.264-6.848a7.784,7.784,0,0,0,.064-.832H39.3c.08-.688.128-1.392.176-2.08Z" transform="translate(503 1726)" fill="#a21f2d"/>
      <g id="_446075" data-name="446075" transform="translate(417.427 1646.598)">
        <g id="Group_702" data-name="Group 702" transform="translate(70.573)">
          <g id="Group_701" data-name="Group 701" transform="translate(0)">
            <path id="Path_730" data-name="Path 730" d="M85.351,0A14.8,14.8,0,0,0,70.573,14.778c0,10.113,13.225,24.958,13.788,25.585a1.331,1.331,0,0,0,1.98,0c.563-.627,13.788-15.473,13.788-25.585A14.8,14.8,0,0,0,85.351,0Zm0,37.436C80.9,32.149,73.234,21.718,73.234,14.778a12.117,12.117,0,1,1,24.233,0C97.468,21.719,89.8,32.147,85.351,37.436Z" transform="translate(-70.573)" fill="#a21f2d"/>
          </g>
        </g>
        <g id="Group_704" data-name="Group 704" transform="translate(77.916 7.343)">
          <g id="Group_703" data-name="Group 703" transform="translate(0)">
            <path id="Path_731" data-name="Path 731" d="M170.143,92.134a7.435,7.435,0,1,0,7.435,7.435A7.444,7.444,0,0,0,170.143,92.134Zm0,12.209a4.774,4.774,0,1,1,4.774-4.774A4.779,4.779,0,0,1,170.143,104.343Z" transform="translate(-162.708 -92.134)" fill="#a21f2d"/>
          </g>
        </g>
      </g>
    </g>
    <g id="レイヤー_1" data-name="レイヤー 1" transform="translate(833.403 1658.682)">
      <rect id="Rectangle_208" data-name="Rectangle 208" width="3.651" height="6.607" transform="translate(54.962 27.178)" fill="#fff"/>
      <rect id="Rectangle_209" data-name="Rectangle 209" width="2.111" height="1.52" transform="translate(87.104 25.495)" fill="#fff"/>
      <rect id="Rectangle_210" data-name="Rectangle 210" width="4.642" height="2.111" transform="translate(91.489 22.626)" fill="#fff"/>
      <g id="Group_706" data-name="Group 706" transform="translate(3.5 3.5)">
        <path id="Path_732" data-name="Path 732" d="M191.723,74.79V94.636H184.1V74.79Z" transform="translate(-121.298 -49.999)" fill="#fff33b" stroke="#fff" stroke-linejoin="bevel" stroke-width="7"/>
        <path id="Path_733" data-name="Path 733" d="M226.335,79.583a17.938,17.938,0,0,0-5.884-.995c-1.2,0-3.269.028-3.269,1.308,0,2.587,10.432.143,10.432,7.789,0,5.317-5.258,6.652-9.667,6.652a34.492,34.492,0,0,1-8.189-.939V88.255a18.459,18.459,0,0,0,6.823,1.308c1.791,0,3.411-.369,3.411-1.367,0-2.674-10.432-.254-10.432-7.96,0-5.46,5.686-6.426,10.206-6.426a34.07,34.07,0,0,1,6.569.682v5.091Z" transform="translate(-137.904 -49.36)" fill="#fff33b" stroke="#fff" stroke-linejoin="bevel" stroke-width="7"/>
        <path id="Path_734" data-name="Path 734" d="M276.92,74.79h7.619V94.636H276.92V87.5h-5.091v7.139H264.21V74.79h7.619v6.854h5.091Z" transform="translate(-173.55 -49.999)" fill="#fff33b" stroke="#fff" stroke-linejoin="bevel" stroke-width="7"/>
        <path id="Path_735" data-name="Path 735" d="M334.9,74.79V94.636H327.28V74.79Z" transform="translate(-214.688 -49.999)" fill="#fff33b" stroke="#fff" stroke-linejoin="bevel" stroke-width="7"/>
        <path id="Path_736" data-name="Path 736" d="M353.4,74.79h11.4l3.669,13.99h.059V74.79h6.538V94.636h-11.2L360,80.25h-.056V94.636H353.4V74.79Z" transform="translate(-231.725 -49.999)" fill="#fff33b" stroke="#fff" stroke-linejoin="bevel" stroke-width="7"/>
        <path id="Path_737" data-name="Path 737" d="M426.716,84.075c0-1.85.23-5.487,3.046-5.487s3.1,3.637,3.126,5.487c-.031,2.132-.115,5.487-3.126,5.487C427.033,89.563,426.716,86.207,426.716,84.075Zm14.132,0c0-6.652-4.152-10.265-11.086-10.265s-11,3.61-11,10.265,4.065,10.262,11,10.262,11.086-3.5,11.086-10.262Z" transform="translate(-274.357 -49.36)" fill="#fff33b" stroke="#fff" stroke-linejoin="bevel" stroke-width="7"/>
        <path id="Path_738" data-name="Path 738" d="M485.25,74.79h11.256l2.587,10.86h.056l2.559-10.86h11.229V94.636h-6.826L506,79.057h-.056l-3.895,15.579H495.71l-3.78-15.579h-.115l-.083,15.579H485.25V74.79Z" transform="translate(-317.725 -49.999)" fill="#fff33b" stroke="#fff" stroke-linejoin="bevel" stroke-width="7"/>
        <path id="Path_739" data-name="Path 739" d="M576.383,74.79V94.636H568.76V74.79Z" transform="translate(-372.195 -49.999)" fill="#fff33b" stroke="#fff" stroke-linejoin="bevel" stroke-width="7"/>
        <path id="Path_740" data-name="Path 740" d="M608.121,88.56v6.085h-7.616V88.56L593.14,74.8h8.273l3.1,8.3h.056l3.126-8.3h7.876l-7.452,13.76Z" transform="translate(-388.098 -50.006)" fill="#fff33b" stroke="#fff" stroke-linejoin="bevel" stroke-width="7"/>
        <path id="Path_741" data-name="Path 741" d="M653.426,79.057h.056l2.163,6.51h-4.406ZM641.37,94.636h7.591l1.224-4.291h6.426l1.308,4.291h7.988L658.83,74.79H648.339l-6.965,19.846Z" transform="translate(-419.556 -49.999)" fill="#fff33b" stroke="#fff" stroke-linejoin="bevel" stroke-width="7"/>
        <path id="Path_742" data-name="Path 742" d="M132.727,74.79V88.78h-.059L129,74.79H117.6V94.636h6.538V80.253h.059l3.867,14.383h11.2V74.79Z" transform="translate(-77.923 -49.999)" fill="#fff33b" stroke="#fff" stroke-linejoin="bevel" stroke-width="7"/>
        <path id="Path_743" data-name="Path 743" d="M38.963,42.8A3.89,3.89,0,0,0,40.2,40.364c-.035-.7-.824-.928-1.888-.922a5.553,5.553,0,0,0-1.415.049,45.881,45.881,0,0,1-6.614.654C34.532,38.382,36.9,33.83,36.9,33.83a24.88,24.88,0,0,0,2.368-9.685c-.337,5.48-5.752,7.125-5.752,7.125C42.823,26.336,37.068,3.5,37.068,3.5S37,13.925,29.793,18.481c-8.248,5.213-16.191,14.48-9.518,19.873C16.377,37.3,6.984,33.934,3.5,25.237c0,0,2.775,22.958,21.466,22.958a18.828,18.828,0,0,0,3.575-.289,29.262,29.262,0,0,0,3.432-.981L33.4,48.08h3.752l-3.272-1.829a17.344,17.344,0,0,0,1.669-.824l3.269,2.653h3.756L36.64,44.767A13.078,13.078,0,0,0,38.6,43.177l.358-.376Z" transform="translate(-3.5 -3.5)" fill="#fff33b" stroke="#fff" stroke-linejoin="round" stroke-width="7"/>
        <g id="Group_705" data-name="Group 705" transform="translate(39.723 16.883)">
          <path id="Path_744" data-name="Path 744" d="M119.319,53.982V55h1.742V56.35h-1.742v2.4H117.73V52.64h3.509v1.346h-1.92Z" transform="translate(-117.73 -52.435)" fill="#fff33b" stroke="#fff" stroke-linejoin="bevel" stroke-width="7"/>
          <path id="Path_745" data-name="Path 745" d="M136.237,55.194a3.387,3.387,0,1,1-3.38-3.144A3.25,3.25,0,0,1,136.237,55.194Zm-5.1.007a1.727,1.727,0,1,0,3.45,0,1.729,1.729,0,0,0-3.45,0Z" transform="translate(-125.394 -52.05)" fill="#fff33b" stroke="#fff" stroke-linejoin="bevel" stroke-width="7"/>
          <path id="Path_746" data-name="Path 746" d="M156.9,55.194a3.385,3.385,0,1,1-3.377-3.144A3.249,3.249,0,0,1,156.9,55.194Zm-5.1.007a1.727,1.727,0,1,0,3.45,0,1.729,1.729,0,0,0-3.45,0Z" transform="translate(-138.876 -52.05)" fill="#fff33b" stroke="#fff" stroke-linejoin="bevel" stroke-width="7"/>
          <path id="Path_747" data-name="Path 747" d="M172.77,58.74h-1.586V53.976H169.87V52.63h4.215v1.346h-1.311V58.74Z" transform="translate(-151.739 -52.428)" fill="#fff33b" stroke="#fff" stroke-linejoin="bevel" stroke-width="7"/>
          <path id="Path_748" data-name="Path 748" d="M184.1,58.74V52.63h2.267c1.085,0,1.815.421,1.815,1.589a1.272,1.272,0,0,1-.671,1.248v.017a1.37,1.37,0,0,1,1.248,1.554c0,1.28-1.092,1.7-2.212,1.7Zm1.589-3.71h.177c.421,0,.859-.073.859-.591,0-.56-.494-.591-.922-.591h-.115Zm0,2.5h.2c.469,0,1.262.024,1.262-.647,0-.737-.786-.664-1.3-.664h-.163v1.311Z" transform="translate(-161.02 -52.428)" fill="#fff33b" stroke="#fff" stroke-linejoin="bevel" stroke-width="7"/>
          <path id="Path_749" data-name="Path 749" d="M200.4,57.679l-.421,1.061H198.3l2.351-6.11h1.735l2.3,6.11h-1.694l-.4-1.061h-2.187Zm1.109-3.161H201.5l-.657,1.944h1.321Z" transform="translate(-170.282 -52.428)" fill="#fff33b" stroke="#fff" stroke-linejoin="bevel" stroke-width="7"/>
          <path id="Path_750" data-name="Path 750" d="M220.129,57.394h1.9V58.74H218.54V52.63h1.589Z" transform="translate(-183.484 -52.428)" fill="#fff33b" stroke="#fff" stroke-linejoin="bevel" stroke-width="7"/>
          <path id="Path_751" data-name="Path 751" d="M232.6,57.394H234.5V58.74H231.01V52.63H232.6Z" transform="translate(-191.618 -52.428)" fill="#fff33b" stroke="#fff" stroke-linejoin="bevel" stroke-width="7"/>
          <path id="Path_752" data-name="Path 752" d="M253.384,54.395a1.722,1.722,0,0,0-1.394-.671,1.609,1.609,0,0,0-1.627,1.693,1.593,1.593,0,0,0,1.652,1.662,1.832,1.832,0,0,0,1.37-.647v1.906a4.453,4.453,0,0,1-1.4.285,3.383,3.383,0,0,1-2.292-.9,2.981,2.981,0,0,1-.981-2.309,3.191,3.191,0,0,1,.9-2.236,3.31,3.31,0,0,1,2.326-.988,3.777,3.777,0,0,1,1.45.306V54.4Z" transform="translate(-203.163 -52.141)" fill="#fff33b" stroke="#fff" stroke-linejoin="bevel" stroke-width="7"/>
          <path id="Path_753" data-name="Path 753" d="M267.026,57.394h1.906V58.74H265.44V52.63h1.586Z" transform="translate(-214.075 -52.428)" fill="#fff33b" stroke="#fff" stroke-linejoin="bevel" stroke-width="7"/>
          <path id="Path_754" data-name="Path 754" d="M281.277,52.63v3.436a2.759,2.759,0,0,1-.64,2.156,3.346,3.346,0,0,1-4.048,0,2.759,2.759,0,0,1-.64-2.156V52.63h1.589v3.217c0,.793.056,1.662,1.078,1.662s1.078-.866,1.078-1.662V52.63h1.589Z" transform="translate(-220.93 -52.428)" fill="#fff33b" stroke="#fff" stroke-linejoin="bevel" stroke-width="7"/>
          <path id="Path_755" data-name="Path 755" d="M293.69,58.74V52.63h2.267c1.085,0,1.815.421,1.815,1.589a1.272,1.272,0,0,1-.671,1.248v.017a1.37,1.37,0,0,1,1.248,1.554c0,1.28-1.092,1.7-2.212,1.7Zm1.586-3.71h.177c.421,0,.859-.073.859-.591,0-.56-.494-.591-.925-.591h-.115v1.182Zm0,2.5h.2c.469,0,1.262.024,1.262-.647,0-.737-.786-.664-1.3-.664h-.163v1.311Z" transform="translate(-232.501 -52.428)" fill="#fff33b" stroke="#fff" stroke-linejoin="bevel" stroke-width="7"/>
        </g>
      </g>
      <g id="Group_708" data-name="Group 708" transform="translate(3.5 3.5)">
        <path id="Path_756" data-name="Path 756" d="M191.723,74.79V94.636H184.1V74.79Z" transform="translate(-121.298 -49.999)" fill="#d3392a"/>
        <path id="Path_757" data-name="Path 757" d="M226.335,79.583a17.938,17.938,0,0,0-5.884-.995c-1.2,0-3.269.028-3.269,1.308,0,2.587,10.432.143,10.432,7.789,0,5.317-5.258,6.652-9.667,6.652a34.492,34.492,0,0,1-8.189-.939V88.255a18.459,18.459,0,0,0,6.823,1.308c1.791,0,3.411-.369,3.411-1.367,0-2.674-10.432-.254-10.432-7.96,0-5.46,5.686-6.426,10.206-6.426a34.07,34.07,0,0,1,6.569.682v5.091Z" transform="translate(-137.904 -49.36)" fill="#d3392a"/>
        <path id="Path_758" data-name="Path 758" d="M276.92,74.79h7.619V94.636H276.92V87.5h-5.091v7.139H264.21V74.79h7.619v6.854h5.091Z" transform="translate(-173.55 -49.999)" fill="#d3392a"/>
        <path id="Path_759" data-name="Path 759" d="M334.9,74.79V94.636H327.28V74.79Z" transform="translate(-214.688 -49.999)" fill="#d3392a"/>
        <path id="Path_760" data-name="Path 760" d="M353.4,74.79h11.4l3.669,13.99h.059V74.79h6.538V94.636h-11.2L360,80.25h-.056V94.636H353.4V74.79Z" transform="translate(-231.725 -49.999)" fill="#d3392a"/>
        <path id="Path_761" data-name="Path 761" d="M426.716,84.075c0-1.85.23-5.487,3.046-5.487s3.1,3.637,3.126,5.487c-.031,2.132-.115,5.487-3.126,5.487C427.033,89.563,426.716,86.207,426.716,84.075Zm14.132,0c0-6.652-4.152-10.265-11.086-10.265s-11,3.61-11,10.265,4.065,10.262,11,10.262,11.086-3.5,11.086-10.262Z" transform="translate(-274.357 -49.36)" fill="#d3392a"/>
        <path id="Path_762" data-name="Path 762" d="M485.25,74.79h11.256l2.587,10.86h.056l2.559-10.86h11.229V94.636h-6.826L506,79.057h-.056l-3.895,15.579H495.71l-3.78-15.579h-.115l-.083,15.579H485.25V74.79Z" transform="translate(-317.725 -49.999)" fill="#d3392a"/>
        <path id="Path_763" data-name="Path 763" d="M576.383,74.79V94.636H568.76V74.79Z" transform="translate(-372.195 -49.999)" fill="#d3392a"/>
        <path id="Path_764" data-name="Path 764" d="M608.121,88.56v6.085h-7.616V88.56L593.14,74.8h8.273l3.1,8.3h.056l3.126-8.3h7.876l-7.452,13.76Z" transform="translate(-388.098 -50.006)" fill="#d3392a"/>
        <path id="Path_765" data-name="Path 765" d="M653.426,79.057h.056l2.163,6.51h-4.406ZM641.37,94.636h7.591l1.224-4.291h6.426l1.308,4.291h7.988L658.83,74.79H648.339l-6.965,19.846Z" transform="translate(-419.556 -49.999)" fill="#d3392a"/>
        <path id="Path_766" data-name="Path 766" d="M132.727,74.79V88.78h-.059L129,74.79H117.6V94.636h6.538V80.253h.059l3.867,14.383h11.2V74.79Z" transform="translate(-77.923 -49.999)" fill="#d3392a"/>
        <path id="Path_767" data-name="Path 767" d="M38.963,42.8A3.89,3.89,0,0,0,40.2,40.364c-.035-.7-.824-.928-1.888-.922a5.553,5.553,0,0,0-1.415.049,45.881,45.881,0,0,1-6.614.654C34.532,38.382,36.9,33.83,36.9,33.83a24.88,24.88,0,0,0,2.368-9.685c-.337,5.48-5.752,7.125-5.752,7.125C42.823,26.336,37.068,3.5,37.068,3.5S37,13.925,29.793,18.481c-8.248,5.213-16.191,14.48-9.518,19.873C16.377,37.3,6.984,33.934,3.5,25.237c0,0,2.775,22.958,21.466,22.958a18.828,18.828,0,0,0,3.575-.289,29.262,29.262,0,0,0,3.432-.981L33.4,48.08h3.752l-3.272-1.829a17.344,17.344,0,0,0,1.669-.824l3.269,2.653h3.756L36.64,44.767A13.078,13.078,0,0,0,38.6,43.177l.358-.376Z" transform="translate(-3.5 -3.5)" fill="#d3392a"/>
        <g id="Group_707" data-name="Group 707" transform="translate(39.723 16.883)">
          <path id="Path_768" data-name="Path 768" d="M119.319,53.982V55h1.742V56.35h-1.742v2.4H117.73V52.64h3.509v1.346h-1.92Z" transform="translate(-117.73 -52.435)" fill="#231f20"/>
          <path id="Path_769" data-name="Path 769" d="M136.237,55.194a3.387,3.387,0,1,1-3.38-3.144A3.25,3.25,0,0,1,136.237,55.194Zm-5.1.007a1.727,1.727,0,1,0,3.45,0,1.729,1.729,0,0,0-3.45,0Z" transform="translate(-125.394 -52.05)" fill="#231f20"/>
          <path id="Path_770" data-name="Path 770" d="M156.9,55.194a3.385,3.385,0,1,1-3.377-3.144A3.249,3.249,0,0,1,156.9,55.194Zm-5.1.007a1.727,1.727,0,1,0,3.45,0,1.729,1.729,0,0,0-3.45,0Z" transform="translate(-138.876 -52.05)" fill="#231f20"/>
          <path id="Path_771" data-name="Path 771" d="M172.77,58.74h-1.586V53.976H169.87V52.63h4.215v1.346h-1.311V58.74Z" transform="translate(-151.739 -52.428)" fill="#231f20"/>
          <path id="Path_772" data-name="Path 772" d="M184.1,58.74V52.63h2.267c1.085,0,1.815.421,1.815,1.589a1.272,1.272,0,0,1-.671,1.248v.017a1.37,1.37,0,0,1,1.248,1.554c0,1.28-1.092,1.7-2.212,1.7Zm1.589-3.71h.177c.421,0,.859-.073.859-.591,0-.56-.494-.591-.922-.591h-.115Zm0,2.5h.2c.469,0,1.262.024,1.262-.647,0-.737-.786-.664-1.3-.664h-.163v1.311Z" transform="translate(-161.02 -52.428)" fill="#231f20"/>
          <path id="Path_773" data-name="Path 773" d="M200.4,57.679l-.421,1.061H198.3l2.351-6.11h1.735l2.3,6.11h-1.694l-.4-1.061h-2.187Zm1.109-3.161H201.5l-.657,1.944h1.321Z" transform="translate(-170.282 -52.428)" fill="#231f20"/>
          <path id="Path_774" data-name="Path 774" d="M220.129,57.394h1.9V58.74H218.54V52.63h1.589Z" transform="translate(-183.484 -52.428)" fill="#231f20"/>
          <path id="Path_775" data-name="Path 775" d="M232.6,57.394H234.5V58.74H231.01V52.63H232.6Z" transform="translate(-191.618 -52.428)" fill="#231f20"/>
          <path id="Path_776" data-name="Path 776" d="M253.384,54.395a1.722,1.722,0,0,0-1.394-.671,1.609,1.609,0,0,0-1.627,1.693,1.593,1.593,0,0,0,1.652,1.662,1.832,1.832,0,0,0,1.37-.647v1.906a4.453,4.453,0,0,1-1.4.285,3.383,3.383,0,0,1-2.292-.9,2.981,2.981,0,0,1-.981-2.309,3.191,3.191,0,0,1,.9-2.236,3.31,3.31,0,0,1,2.326-.988,3.777,3.777,0,0,1,1.45.306V54.4Z" transform="translate(-203.163 -52.141)" fill="#231f20"/>
          <path id="Path_777" data-name="Path 777" d="M267.026,57.394h1.906V58.74H265.44V52.63h1.586Z" transform="translate(-214.075 -52.428)" fill="#231f20"/>
          <path id="Path_778" data-name="Path 778" d="M281.277,52.63v3.436a2.759,2.759,0,0,1-.64,2.156,3.346,3.346,0,0,1-4.048,0,2.759,2.759,0,0,1-.64-2.156V52.63h1.589v3.217c0,.793.056,1.662,1.078,1.662s1.078-.866,1.078-1.662V52.63h1.589Z" transform="translate(-220.93 -52.428)" fill="#231f20"/>
          <path id="Path_779" data-name="Path 779" d="M293.69,58.74V52.63h2.267c1.085,0,1.815.421,1.815,1.589a1.272,1.272,0,0,1-.671,1.248v.017a1.37,1.37,0,0,1,1.248,1.554c0,1.28-1.092,1.7-2.212,1.7Zm1.586-3.71h.177c.421,0,.859-.073.859-.591,0-.56-.494-.591-.925-.591h-.115v1.182Zm0,2.5h.2c.469,0,1.262.024,1.262-.647,0-.737-.786-.664-1.3-.664h-.163v1.311Z" transform="translate(-232.501 -52.428)" fill="#231f20"/>
        </g>
      </g>
    </g>
    <g id="Group_712" data-name="Group 712" transform="translate(1117.75 1687)">
      <line id="Line_122" data-name="Line 122" x1="24" transform="translate(0.223 5.938)" fill="none" stroke="#fff" stroke-width="2"/>
      <path id="Path_780" data-name="Path 780" d="M5.938,11.877,0,5.938,5.938,0" fill="none" stroke="#fff" stroke-width="2"/>
    </g>
    <g id="Group_810" data-name="Group 810" transform="translate(778.185 1687)">
      <line id="Line_122-2" data-name="Line 122" x2="24" transform="translate(0 5.938)" fill="none" stroke="#fff" stroke-width="2"/>
      <path id="Path_780-2" data-name="Path 780" d="M0,11.877,5.938,5.938,0,0" transform="translate(18.284)" fill="none" stroke="#fff" stroke-width="2"/>
    </g>
    <g id="Group_808" data-name="Group 808" transform="translate(954 1591.111) rotate(-90)">
      <line id="Line_122-3" data-name="Line 122" x1="24" transform="translate(0.223 5.938)" fill="none" stroke="#fff" stroke-width="2"/>
      <path id="Path_780-3" data-name="Path 780" d="M5.938,11.877,0,5.938,5.938,0" fill="none" stroke="#fff" stroke-width="2"/>
    </g>
    <g id="Group_809" data-name="Group 809" transform="translate(965.877 1812.889) rotate(90)">
      <line id="Line_122-4" data-name="Line 122" x1="24" transform="translate(0.223 5.938)" fill="none" stroke="#fff" stroke-width="2"/>
      <path id="Path_780-4" data-name="Path 780" d="M5.938,0,0,5.938l5.938,5.938" fill="none" stroke="#fff" stroke-width="2"/>
    </g>
  </g>
</svg>
