<svg xmlns="http://www.w3.org/2000/svg" width="70" height="48" viewBox="0 0 70 48">
  <g id="Group_579" data-name="Group 579" transform="translate(6431 16839)">
    <rect id="Rectangle_169" data-name="Rectangle 169" width="70" height="48" transform="translate(-6431 -16839)" fill="rgba(255,255,255,0)"/>
    <circle id="Ellipse_17" data-name="Ellipse 17" cx="13" cy="13" r="13" transform="translate(-6409 -16835)" fill="#fff"/>
    <path id="Icon_awesome-instagram" data-name="Icon awesome-instagram" d="M8.272,5.273a4.241,4.241,0,1,0,4.241,4.241A4.234,4.234,0,0,0,8.272,5.273Zm0,7a2.757,2.757,0,1,1,2.757-2.757A2.762,2.762,0,0,1,8.272,12.272Zm5.4-7.172a.989.989,0,1,1-.989-.989A.987.987,0,0,1,13.676,5.1Zm2.809,1a4.9,4.9,0,0,0-1.336-3.466A4.928,4.928,0,0,0,11.683,1.3c-1.366-.078-5.459-.078-6.825,0A4.921,4.921,0,0,0,1.391,2.634,4.912,4.912,0,0,0,.055,6.1c-.078,1.366-.078,5.459,0,6.825a4.9,4.9,0,0,0,1.336,3.466,4.934,4.934,0,0,0,3.466,1.336c1.366.078,5.459.078,6.825,0a4.9,4.9,0,0,0,3.466-1.336,4.928,4.928,0,0,0,1.336-3.466C16.562,11.559,16.562,7.469,16.485,6.1ZM14.72,14.39a2.792,2.792,0,0,1-1.572,1.572c-1.089.432-3.673.332-4.876.332s-3.791.1-4.876-.332A2.792,2.792,0,0,1,1.823,14.39c-.432-1.089-.332-3.673-.332-4.876s-.1-3.791.332-4.876A2.792,2.792,0,0,1,3.4,3.066c1.089-.432,3.673-.332,4.876-.332s3.791-.1,4.876.332A2.792,2.792,0,0,1,14.72,4.638c.432,1.089.332,3.673.332,4.876S15.152,13.305,14.72,14.39Z" transform="translate(-6403.997 -16831.244)" fill="#a21f2d"/>
    <g id="Group_614" data-name="Group 614" transform="translate(-7)">
      <path id="Path_2366" data-name="Path 2366" d="M-22.4,0h.93V-7.34h-.93Zm2.85,0h.91V-3.94a2.065,2.065,0,0,1,1.49-.83c.72,0,1.03.43,1.03,1.45V0h.91V-3.44c0-1.39-.52-2.13-1.66-2.13a2.6,2.6,0,0,0-1.82.92h-.03l-.08-.78h-.75Zm7.53.13c1.28,0,1.98-.73,1.98-1.61,0-1.03-.87-1.35-1.66-1.65-.61-.23-1.17-.42-1.17-.94,0-.42.32-.78,1.01-.78a1.988,1.988,0,0,1,1.23.48l.44-.59a2.76,2.76,0,0,0-1.68-.61c-1.18,0-1.88.68-1.88,1.54,0,.92.83,1.29,1.59,1.57.6.23,1.24.47,1.24,1.03,0,.47-.35.85-1.07.85a2.463,2.463,0,0,1-1.61-.64l-.45.6A3.275,3.275,0,0,0-12.025.13Zm4.75,0a3.418,3.418,0,0,0,1-.2l-.18-.68a1.924,1.924,0,0,1-.62.14c-.63,0-.84-.38-.84-1.05V-4.69h1.47v-.74h-1.47V-6.96h-.76l-.11,1.53-.85.05v.69h.81v3.01C-8.825-.6-8.435.13-7.275.13Zm3.07,0A2.909,2.909,0,0,0-2.4-.65h.03l.08.65h.75V-3.34c0-1.34-.56-2.23-1.88-2.23a4.084,4.084,0,0,0-2.14.71l.36.63a2.992,2.992,0,0,1,1.63-.58c.89,0,1.12.67,1.12,1.37-2.31.26-3.34.85-3.34,2.03A1.472,1.472,0,0,0-4.2.13Zm.26-.73c-.54,0-.96-.25-.96-.87,0-.7.62-1.15,2.45-1.37v1.52A2.219,2.219,0,0,1-3.945-.6Zm5.96,3.1c1.68,0,2.75-.87,2.75-1.88,0-.89-.64-1.29-1.9-1.29H1.8c-.73,0-.95-.24-.95-.59a.808.808,0,0,1,.35-.65,1.889,1.889,0,0,0,.81.19,1.862,1.862,0,0,0,1.98-1.89,1.551,1.551,0,0,0-.44-1.12h1.11v-.7H2.775a2.24,2.24,0,0,0-.76-.14A1.934,1.934,0,0,0-.025-3.63a1.906,1.906,0,0,0,.71,1.46v.04a1.325,1.325,0,0,0-.61,1.01.982.982,0,0,0,.5.89v.04a1.524,1.524,0,0,0-.8,1.23C-.225,1.98.685,2.5,2.015,2.5Zm0-4.84A1.19,1.19,0,0,1,.855-3.63,1.161,1.161,0,0,1,2.015-4.9a1.167,1.167,0,0,1,1.16,1.27A1.2,1.2,0,0,1,2.015-2.34Zm.13,4.22c-.98,0-1.57-.38-1.57-.96A1.132,1.132,0,0,1,1.125,0a3.054,3.054,0,0,0,.7.09h.94c.72,0,1.11.17,1.11.67C3.875,1.33,3.185,1.88,2.145,1.88ZM5.815,0h.91V-3.49c.36-.93.92-1.25,1.37-1.25a1.285,1.285,0,0,1,.53.09l.17-.8a1.158,1.158,0,0,0-.58-.12,1.875,1.875,0,0,0-1.54,1.13h-.03l-.08-.99h-.75Zm4.86.13a2.909,2.909,0,0,0,1.8-.78h.03l.08.65h.75V-3.34c0-1.34-.56-2.23-1.88-2.23a4.084,4.084,0,0,0-2.14.71l.36.63a2.992,2.992,0,0,1,1.63-.58c.89,0,1.12.67,1.12,1.37-2.31.26-3.34.85-3.34,2.03A1.472,1.472,0,0,0,10.675.13Zm.26-.73c-.54,0-.96-.25-.96-.87,0-.7.62-1.15,2.45-1.37v1.52A2.219,2.219,0,0,1,10.935-.6Zm4.13.6h.91V-3.94a2.006,2.006,0,0,1,1.37-.83c.69,0,1.01.43,1.01,1.45V0h.91V-3.94a2.006,2.006,0,0,1,1.37-.83c.69,0,1.01.43,1.01,1.45V0h.91V-3.44c0-1.39-.53-2.13-1.65-2.13a2.567,2.567,0,0,0-1.79,1.04,1.432,1.432,0,0,0-1.5-1.04,2.386,2.386,0,0,0-1.69.93H15.9l-.08-.79h-.75Z" transform="translate(-6396 -16797)" fill="#fff"/>
      <path id="Path_608" data-name="Path 608" d="M-6257.64-12326.02l4.358,4.357,4.358-4.357" transform="translate(-109.637 -4476.47)" fill="none" stroke="#fff" stroke-width="2"/>
    </g>
  </g>
</svg>
