<svg xmlns="http://www.w3.org/2000/svg" width="70" height="48" viewBox="0 0 70 48">
  <g id="Group_581" data-name="Group 581" transform="translate(6598 16839)">
    <rect id="Rectangle_171" data-name="Rectangle 171" width="70" height="48" transform="translate(-6598 -16839)" fill="rgba(255,255,255,0)"/>
    <g id="Group_572" data-name="Group 572" transform="translate(6013 96)">
      <circle id="Ellipse_17" data-name="Ellipse 17" cx="13" cy="13" r="13" transform="translate(-12589 -16931)" fill="#fff"/>
      <path id="Path_2364" data-name="Path 2364" d="M-9.73,0H-5.6V-.79H-8.8V-7.34h-.93ZM-4.3,0h.93V-7.34H-4.3Zm2.93,0h.88V-3.85c0-.77-.07-1.55-.11-2.29h.04L.23-4.63,2.9,0h.95V-7.34H2.97v3.82c0,.76.07,1.58.12,2.32H3.04L2.26-2.71-.41-7.34h-.96ZM5.85,0h4.34V-.79H6.78V-3.46H9.56v-.79H6.78v-2.3h3.3v-.79H5.85Z" transform="translate(-12576 -16893)" fill="#fff"/>
      <path id="Icon_simple-line" data-name="Icon simple-line" d="M13.69,7.045a.446.446,0,0,1,0,.891H12.449v.8H13.69a.445.445,0,1,1,0,.89H12a.446.446,0,0,1-.443-.445V5.8a.447.447,0,0,1,.445-.445h1.687a.445.445,0,0,1,0,.891H12.449v.8ZM10.965,9.177a.445.445,0,0,1-.305.421.457.457,0,0,1-.141.022.437.437,0,0,1-.361-.177L8.431,7.1V9.177a.444.444,0,1,1-.889,0V5.8a.443.443,0,0,1,.3-.421.411.411,0,0,1,.137-.023.457.457,0,0,1,.35.18l1.74,2.354V5.8a.445.445,0,1,1,.891,0Zm-4.059,0a.445.445,0,1,1-.889,0V5.8a.445.445,0,1,1,.889,0Zm-1.743.445H3.476a.448.448,0,0,1-.445-.445V5.8a.445.445,0,1,1,.891,0V8.732H5.163a.445.445,0,0,1,0,.89m11.8-2.258c0-3.8-3.807-6.887-8.483-6.887S0,3.567,0,7.364c0,3.4,3.019,6.251,7.094,6.792.276.058.653.182.748.417a1.727,1.727,0,0,1,.027.763l-.116.721c-.032.213-.17.838.742.456a27.347,27.347,0,0,0,6.671-4.931,6.1,6.1,0,0,0,1.8-4.219" transform="translate(-12584 -16926.092)" fill="#a21f2d"/>
    </g>
  </g>
</svg>
