<svg xmlns="http://www.w3.org/2000/svg" width="70" height="48" viewBox="0 0 70 48">
  <g id="Group_582" data-name="Group 582" transform="translate(6677 16839)">
    <rect id="Rectangle_172" data-name="Rectangle 172" width="70" height="48" transform="translate(-6677 -16839)" fill="rgba(255,255,255,0)"/>
    <circle id="Ellipse_17" data-name="Ellipse 17" cx="13" cy="13" r="13" transform="translate(-6655 -16835)" fill="#fff"/>
    <path id="Path_2363" data-name="Path 2363" d="M-21.5,0h.93V-3.29h2.8v-.78h-2.8V-6.55h3.3v-.79H-21.5Zm6.31.13a2.909,2.909,0,0,0,1.8-.78h.03l.08.65h.75V-3.34c0-1.34-.56-2.23-1.88-2.23a4.084,4.084,0,0,0-2.14.71l.36.63a2.992,2.992,0,0,1,1.63-.58c.89,0,1.12.67,1.12,1.37-2.31.26-3.34.85-3.34,2.03A1.472,1.472,0,0,0-15.185.13Zm.26-.73c-.54,0-.96-.25-.96-.87,0-.7.62-1.15,2.45-1.37v1.52A2.219,2.219,0,0,1-14.925-.6Zm6.27.73A2.633,2.633,0,0,0-6.9-.56l-.4-.61a1.914,1.914,0,0,1-1.28.54c-1,0-1.68-.83-1.68-2.08s.72-2.1,1.71-2.1a1.605,1.605,0,0,1,1.08.48l.47-.6a2.322,2.322,0,0,0-1.59-.64,2.644,2.644,0,0,0-2.62,2.86A2.554,2.554,0,0,0-8.655.13Zm4.9,0a3.232,3.232,0,0,0,1.8-.56l-.33-.6a2.341,2.341,0,0,1-1.36.43,1.8,1.8,0,0,1-1.8-1.9h3.66a3.553,3.553,0,0,0,.04-.52c0-1.55-.78-2.55-2.16-2.55a2.627,2.627,0,0,0-2.45,2.86A2.6,2.6,0,0,0-3.755.13Zm-1.7-3.29A1.668,1.668,0,0,1-3.9-4.84c.85,0,1.35.59,1.35,1.68ZM1.985.13c1.25,0,2.36-1.07,2.36-2.94,0-1.66-.76-2.76-2.17-2.76a2.736,2.736,0,0,0-1.7.77L.5-5.78V-7.96h-.91V0h.73L.4-.56h.04A2.412,2.412,0,0,0,1.985.13Zm-.15-.76A2.084,2.084,0,0,1,.5-1.2V-4.05a2.242,2.242,0,0,1,1.46-.75c1.03,0,1.43.81,1.43,2.01C3.395-1.44,2.735-.63,1.835-.63Zm6.05.76A2.593,2.593,0,0,0,10.4-2.71a2.605,2.605,0,0,0-2.52-2.86,2.605,2.605,0,0,0-2.52,2.86A2.593,2.593,0,0,0,7.885.13Zm0-.76c-.94,0-1.57-.83-1.57-2.08s.63-2.1,1.57-2.1,1.58.85,1.58,2.1S8.825-.63,7.885-.63Zm6.06.76a2.593,2.593,0,0,0,2.52-2.84,2.605,2.605,0,0,0-2.52-2.86,2.605,2.605,0,0,0-2.52,2.86A2.593,2.593,0,0,0,13.945.13Zm0-.76c-.94,0-1.57-.83-1.57-2.08s.63-2.1,1.57-2.1,1.58.85,1.58,2.1S14.885-.63,13.945-.63ZM17.9,0h.9V-1.43l1.02-1.19L21.405,0h.99l-2.05-3.24,1.81-2.19h-1.02l-2.31,2.87H18.8v-5.4h-.9Z" transform="translate(-6642 -16797)" fill="#fff"/>
    <path id="Icon_awesome-facebook-f" data-name="Icon awesome-facebook-f" d="M9.174,9.305l.459-2.994H6.76V4.369A1.5,1.5,0,0,1,8.448,2.751H9.754V.2A15.926,15.926,0,0,0,7.436,0,3.655,3.655,0,0,0,3.524,4.03V6.312H.894V9.305h2.63v7.238H6.76V9.305Z" transform="translate(-6646.894 -16830)" fill="#a21f2d"/>
  </g>
</svg>
