<svg id="レイヤー_1" data-name="レイヤー 1" xmlns="http://www.w3.org/2000/svg" width="298.688" height="46.717" viewBox="0 0 298.688 46.717">
  <g id="Group_477" data-name="Group 477">
    <path id="Path_360" data-name="Path 360" d="M0,0H11.156V13.642L22.841,0H37.677L24.5,13.626,38.268,36.1H24.53L16.918,21.252l-5.764,6.037V36.1H0Z" fill="#231916"/>
    <path id="Path_361" data-name="Path 361" d="M177.172,40.641h9.383v4.285A10.211,10.211,0,0,1,189.35,41.1a5.888,5.888,0,0,1,3.558-1.047,10.815,10.815,0,0,1,4.85,1.378l-3.1,7.142a7.862,7.862,0,0,0-2.808-.738,3.463,3.463,0,0,0-3.054,1.626q-1.553,2.289-1.551,8.57V66.8H177.17V40.641Z" transform="translate(-135.776 -30.693)" fill="#231916"/>
    <g id="Group_475" data-name="Group 475" transform="translate(64.053)">
      <rect id="Rectangle_135" data-name="Rectangle 135" width="10.023" height="6.822" fill="#ea5515"/>
      <rect id="Rectangle_136" data-name="Rectangle 136" width="10.023" height="26.154" transform="translate(0 9.948)" fill="#231916"/>
    </g>
    <path id="Path_362" data-name="Path 362" d="M369.367,56.212h-20.1a6.481,6.481,0,0,0,1.306,3.6,4.749,4.749,0,0,0,3.792,1.7,5.7,5.7,0,0,0,2.808-.738,6.587,6.587,0,0,0,1.748-1.65l9.876.911a14.156,14.156,0,0,1-5.467,5.652q-3.2,1.71-9.184,1.713a18.8,18.8,0,0,1-8.175-1.465,12,12,0,0,1-4.937-4.654,14.038,14.038,0,0,1-1.958-7.5,13.17,13.17,0,0,1,3.928-9.925q3.929-3.792,10.848-3.792a19.3,19.3,0,0,1,8.864,1.7,11.492,11.492,0,0,1,4.951,4.925,18,18,0,0,1,1.7,8.4v1.133Zm-10.2-4.8a6.691,6.691,0,0,0-1.563-4.161,4.905,4.905,0,0,0-7.154.64A6.94,6.94,0,0,0,349.3,51.41h9.876Z" transform="translate(-259.857 -30.7)" fill="#231916"/>
    <path id="Path_363" data-name="Path 363" d="M502.572,40.641h9.383v24.7l.026,1.157a10.892,10.892,0,0,1-1.047,4.692,9.9,9.9,0,0,1-2.783,3.607,10.912,10.912,0,0,1-4.409,2,27.481,27.481,0,0,1-6.119.614q-7.882,0-10.822-2.364a7.7,7.7,0,0,1-2.944-6.329c0-.329.016-.771.049-1.329l9.727,1.107a3.155,3.155,0,0,0,1.133,1.871,4.789,4.789,0,0,0,2.783.764,4.208,4.208,0,0,0,3.238-1.157q1.072-1.157,1.07-4.04V61.966a9.758,9.758,0,0,1-7.956,3.769,9.914,9.914,0,0,1-8.472-4.579,14.625,14.625,0,0,1-2.29-8.6q0-6.109,2.956-9.308a10.034,10.034,0,0,1,7.734-3.2,10.836,10.836,0,0,1,5.035,1.035,10.968,10.968,0,0,1,3.706,3.423V40.641ZM493.14,53.323a6.2,6.2,0,0,0,1.208,4.2,4.03,4.03,0,0,0,3.177,1.367,3.952,3.952,0,0,0,3.14-1.416,6.234,6.234,0,0,0,1.269-4.273,6.43,6.43,0,0,0-1.329-4.371,4.163,4.163,0,0,0-3.25-1.514,3.768,3.768,0,0,0-3.065,1.393q-1.146,1.391-1.145,4.617Z" transform="translate(-370.258 -30.693)" fill="#231916"/>
    <path id="Path_364" data-name="Path 364" d="M657.327,56.212h-20.1a6.463,6.463,0,0,0,1.306,3.6,4.749,4.749,0,0,0,3.792,1.7,5.7,5.7,0,0,0,2.808-.738,6.587,6.587,0,0,0,1.748-1.65l9.876.911a14.142,14.142,0,0,1-5.467,5.652q-3.2,1.71-9.185,1.713a18.8,18.8,0,0,1-8.175-1.465A12,12,0,0,1,629,61.275a14.038,14.038,0,0,1-1.958-7.5,13.169,13.169,0,0,1,3.928-9.925q3.929-3.792,10.848-3.792a19.3,19.3,0,0,1,8.864,1.7,11.479,11.479,0,0,1,4.951,4.925,18,18,0,0,1,1.7,8.4v1.133Zm-10.194-4.8a6.692,6.692,0,0,0-1.563-4.161,4.905,4.905,0,0,0-7.154.64,6.94,6.94,0,0,0-1.157,3.521h9.876Z" transform="translate(-480.537 -30.7)" fill="#231916"/>
    <path id="Path_365" data-name="Path 365" d="M776.792,40.641h9.383v4.285A10.211,10.211,0,0,1,788.97,41.1a5.888,5.888,0,0,1,3.558-1.047,10.815,10.815,0,0,1,4.85,1.378l-3.1,7.142a7.862,7.862,0,0,0-2.808-.738,3.463,3.463,0,0,0-3.054,1.626q-1.552,2.289-1.551,8.57V66.8H776.79V40.641Z" transform="translate(-595.299 -30.693)" fill="#231916"/>
    <g id="Group_476" data-name="Group 476" transform="translate(215.108)">
      <path id="Path_366" data-name="Path 366" d="M926.555,42.58H936.6V67.944a23.412,23.412,0,0,1-.7,6.871,6.378,6.378,0,0,1-2.6,3.276,9.8,9.8,0,0,1-5.418,1.257,37.96,37.96,0,0,1-7.215-.862l1.5-7.29a9.965,9.965,0,0,0,1.773.245,2.3,2.3,0,0,0,1.946-.874,6.236,6.236,0,0,0,.666-3.484V42.58Z" transform="translate(-920.67 -32.632)" fill="#231916"/>
      <rect id="Rectangle_137" data-name="Rectangle 137" width="10.047" height="6.895" transform="translate(5.885)" fill="#ea5515"/>
    </g>
    <path id="Path_367" data-name="Path 367" d="M1016.263,76.751v-36.1h9.383v3.867a12.471,12.471,0,0,1,3.57-3.3,10.233,10.233,0,0,1,4.85-1.157,9.39,9.39,0,0,1,8.114,4.014A16.64,16.64,0,0,1,1045.05,54q0,6.526-3.129,9.96a10.228,10.228,0,0,1-7.9,3.435,10.962,10.962,0,0,1-4.224-.787,10.084,10.084,0,0,1-3.411-2.339V76.754H1016.26ZM1026.309,53.8a6.875,6.875,0,0,0,1.306,4.605,4.179,4.179,0,0,0,3.3,1.5,3.647,3.647,0,0,0,2.93-1.442q1.181-1.44,1.182-4.888a7.265,7.265,0,0,0-1.231-4.666,3.768,3.768,0,0,0-3-1.491,4.031,4.031,0,0,0-3.2,1.5q-1.279,1.5-1.28,4.876Z" transform="translate(-778.819 -30.7)" fill="#231916"/>
    <path id="Path_368" data-name="Path 368" d="M1160.03,40.633h9.334v4.259a13.9,13.9,0,0,1,4.236-3.731,11.143,11.143,0,0,1,5.222-1.121,8.559,8.559,0,0,1,6.514,2.474q2.352,2.474,2.35,7.647V66.785h-10.072V52.4a5.227,5.227,0,0,0-.911-3.484,3.255,3.255,0,0,0-2.561-1.021,3.645,3.645,0,0,0-2.956,1.378q-1.132,1.381-1.133,4.951V66.787H1160.03Z" transform="translate(-888.998 -30.685)" fill="#231916"/>
  </g>
</svg>
