<svg xmlns="http://www.w3.org/2000/svg" xmlns:xlink="http://www.w3.org/1999/xlink" width="523.766" height="393.935" viewBox="0 0 523.766 393.935">
  <defs>
    <clipPath id="clip-path">
      <path id="Path_1310" data-name="Path 1310" d="M53.863,168.07l-2.193,10.4s52.712,26.939,120.191.791l-2.845-10.548s-63.246,20.943-115.153-.638Z" transform="translate(-51.67 -168.07)" fill="none" stroke="#8f939f" stroke-width="0.5"/>
    </clipPath>
    <clipPath id="clip-path-2">
      <path id="Path_1487" data-name="Path 1487" d="M261.917,167.82h75.057a46.564,46.564,0,0,1,.056,10.923H261.861A34.617,34.617,0,0,1,261.917,167.82Z" transform="translate(-261.464 -167.82)" fill="none" stroke="#8f939f" stroke-width="0.68"/>
    </clipPath>
    <linearGradient id="linear-gradient" x1="-63.118" y1="-32.616" x2="-63.118" y2="-30.056" gradientUnits="objectBoundingBox">
      <stop offset="0" stop-color="#fff"/>
      <stop offset="1"/>
    </linearGradient>
  </defs>
  <g id="レイヤー_1" data-name="レイヤー 1" transform="translate(0.308 0.197)">
    <g id="Group_930" data-name="Group 930" transform="translate(0 1.624)">
      <g id="Group_922" data-name="Group 922">
        <path id="Path_1249" data-name="Path 1249" d="M132.354,37.917c-14.143.042-25.218-35-30.52-36.557L.31,37.889,16.049,89.768l46.689-3.039V217.537S135,249.278,200.9,218.12V85.091l43.913,4.677,17.973-52.393L161.055,1.624S149.369,37.848,132.368,37.9Z" transform="translate(-0.31 -1.36)" fill="#82cef4"/>
        <g id="Group_902" data-name="Group 902" transform="translate(41.692 232.013)">
          <path id="Path_1250" data-name="Path 1250" d="M62.23,168.53s53.323,20.416,115.056,0l31.921,135.6-6.731,5.829s-14.684,27.7-68.007,15.072l-14.7-50.061-13.2,48.146c-.611.25-53.628,12.338-69.089-14.129l-7.134-6.315L62.244,168.53Z" transform="translate(-30.35 -168.53)" fill="#fff"/>
          <g id="Group_901" data-name="Group 901">
            <line id="Line_151" data-name="Line 151" y2="86.424" transform="translate(89.352 21.11)" fill="none" stroke="#8f939f" stroke-width="0.25"/>
            <path id="Path_1251" data-name="Path 1251" d="M62.23,168.53s53.323,20.416,115.056,0l31.921,135.6-6.731,5.829s-14.684,27.7-68.007,15.072l-14.7-50.061-13.2,48.146c-.611.25-53.628,12.338-69.089-14.129l-7.134-6.315L62.244,168.53Z" transform="translate(-30.35 -168.53)" fill="#82cef4" stroke="#898989" stroke-width="0.5"/>
          </g>
        </g>
        <g id="Group_905" data-name="Group 905" transform="translate(71.282 231.374)">
          <g id="Group_904" data-name="Group 904" clip-path="url(#clip-path)">
            <g id="Group_903" data-name="Group 903" transform="translate(-3.039 -0.791)">
              <path id="Path_1252" data-name="Path 1252" d="M140,191.844,137.54,167.5" transform="translate(-15.323 -167.5)" fill="none" stroke="#8f939f" stroke-linecap="round" stroke-linejoin="round" stroke-width="0.22"/>
              <path id="Path_1253" data-name="Path 1253" d="M138.393,191.844,136.02,167.5" transform="translate(-15.912 -167.5)" fill="none" stroke="#8f939f" stroke-linecap="round" stroke-linejoin="round" stroke-width="0.22"/>
              <path id="Path_1254" data-name="Path 1254" d="M136.794,191.844l-2.3-24.344" transform="translate(-16.506 -167.5)" fill="none" stroke="#8f939f" stroke-linecap="round" stroke-linejoin="round" stroke-width="0.22"/>
              <path id="Path_1255" data-name="Path 1255" d="M135.2,191.844,132.97,167.5" transform="translate(-17.095 -167.5)" fill="none" stroke="#8f939f" stroke-linecap="round" stroke-linejoin="round" stroke-width="0.22"/>
              <path id="Path_1256" data-name="Path 1256" d="M133.6,191.844,131.45,167.5" transform="translate(-17.685 -167.5)" fill="none" stroke="#8f939f" stroke-linecap="round" stroke-linejoin="round" stroke-width="0.22"/>
              <path id="Path_1257" data-name="Path 1257" d="M132.012,191.844,129.93,167.5" transform="translate(-18.274 -167.5)" fill="none" stroke="#8f939f" stroke-linecap="round" stroke-linejoin="round" stroke-width="0.22"/>
              <path id="Path_1258" data-name="Path 1258" d="M130.422,191.844,128.41,167.5" transform="translate(-18.864 -167.5)" fill="none" stroke="#8f939f" stroke-linecap="round" stroke-linejoin="round" stroke-width="0.22"/>
              <path id="Path_1259" data-name="Path 1259" d="M128.809,191.844,126.88,167.5" transform="translate(-19.457 -167.5)" fill="none" stroke="#8f939f" stroke-linecap="round" stroke-linejoin="round" stroke-width="0.22"/>
              <path id="Path_1260" data-name="Path 1260" d="M127.22,191.844,125.36,167.5" transform="translate(-20.047 -167.5)" fill="none" stroke="#8f939f" stroke-linecap="round" stroke-linejoin="round" stroke-width="0.22"/>
              <path id="Path_1261" data-name="Path 1261" d="M125.626,191.844,123.85,167.5" transform="translate(-20.633 -167.5)" fill="none" stroke="#8f939f" stroke-linecap="round" stroke-linejoin="round" stroke-width="0.22"/>
              <path id="Path_1262" data-name="Path 1262" d="M124.027,191.844,122.32,167.5" transform="translate(-21.226 -167.5)" fill="none" stroke="#8f939f" stroke-linecap="round" stroke-linejoin="round" stroke-width="0.22"/>
              <path id="Path_1263" data-name="Path 1263" d="M122.434,191.844,120.81,167.5" transform="translate(-21.812 -167.5)" fill="none" stroke="#8f939f" stroke-linecap="round" stroke-linejoin="round" stroke-width="0.22"/>
              <path id="Path_1264" data-name="Path 1264" d="M120.834,191.844,119.28,167.5" transform="translate(-22.405 -167.5)" fill="none" stroke="#8f939f" stroke-linecap="round" stroke-linejoin="round" stroke-width="0.22"/>
              <path id="Path_1265" data-name="Path 1265" d="M119.235,191.844,117.75,167.5" transform="translate(-22.999 -167.5)" fill="none" stroke="#8f939f" stroke-linecap="round" stroke-linejoin="round" stroke-width="0.22"/>
              <path id="Path_1266" data-name="Path 1266" d="M117.632,191.844l-1.4-24.344" transform="translate(-23.588 -167.5)" fill="none" stroke="#8f939f" stroke-linecap="round" stroke-linejoin="round" stroke-width="0.22"/>
              <path id="Path_1267" data-name="Path 1267" d="M116.042,191.844,114.71,167.5" transform="translate(-24.178 -167.5)" fill="none" stroke="#8f939f" stroke-linecap="round" stroke-linejoin="round" stroke-width="0.22"/>
              <path id="Path_1268" data-name="Path 1268" d="M114.449,191.844,113.2,167.5" transform="translate(-24.764 -167.5)" fill="none" stroke="#8f939f" stroke-linecap="round" stroke-linejoin="round" stroke-width="0.22"/>
              <path id="Path_1269" data-name="Path 1269" d="M112.846,191.844,111.68,167.5" transform="translate(-25.353 -167.5)" fill="none" stroke="#8f939f" stroke-linecap="round" stroke-linejoin="round" stroke-width="0.22"/>
              <path id="Path_1270" data-name="Path 1270" d="M111.246,191.844l-1.1-24.344" transform="translate(-25.947 -167.5)" fill="none" stroke="#8f939f" stroke-linecap="round" stroke-linejoin="round" stroke-width="0.22"/>
              <path id="Path_1271" data-name="Path 1271" d="M109.643,191.844,108.63,167.5" transform="translate(-26.536 -167.5)" fill="none" stroke="#8f939f" stroke-linecap="round" stroke-linejoin="round" stroke-width="0.22"/>
              <path id="Path_1272" data-name="Path 1272" d="M108.054,191.844,107.11,167.5" transform="translate(-27.126 -167.5)" fill="none" stroke="#8f939f" stroke-linecap="round" stroke-linejoin="round" stroke-width="0.22"/>
              <path id="Path_1273" data-name="Path 1273" d="M106.464,191.844,105.59,167.5" transform="translate(-27.716 -167.5)" fill="none" stroke="#8f939f" stroke-linecap="round" stroke-linejoin="round" stroke-width="0.22"/>
              <path id="Path_1274" data-name="Path 1274" d="M104.851,191.844,104.06,167.5" transform="translate(-28.309 -167.5)" fill="none" stroke="#8f939f" stroke-linecap="round" stroke-linejoin="round" stroke-width="0.22"/>
              <path id="Path_1275" data-name="Path 1275" d="M103.262,191.844,102.54,167.5" transform="translate(-28.899 -167.5)" fill="none" stroke="#8f939f" stroke-linecap="round" stroke-linejoin="round" stroke-width="0.22"/>
              <path id="Path_1276" data-name="Path 1276" d="M101.668,191.844,101.03,167.5" transform="translate(-29.484 -167.5)" fill="none" stroke="#8f939f" stroke-linecap="round" stroke-linejoin="round" stroke-width="0.22"/>
              <path id="Path_1277" data-name="Path 1277" d="M100.069,191.844,99.5,167.5" transform="translate(-30.078 -167.5)" fill="none" stroke="#8f939f" stroke-linecap="round" stroke-linejoin="round" stroke-width="0.22"/>
              <path id="Path_1278" data-name="Path 1278" d="M98.48,191.844l-.5-24.344" transform="translate(-30.667 -167.5)" fill="none" stroke="#8f939f" stroke-linecap="round" stroke-linejoin="round" stroke-width="0.22"/>
              <path id="Path_1279" data-name="Path 1279" d="M96.88,191.844,96.45,167.5" transform="translate(-31.261 -167.5)" fill="none" stroke="#8f939f" stroke-linecap="round" stroke-linejoin="round" stroke-width="0.22"/>
              <path id="Path_1280" data-name="Path 1280" d="M95.291,191.844,94.93,167.5" transform="translate(-31.85 -167.5)" fill="none" stroke="#8f939f" stroke-linecap="round" stroke-linejoin="round" stroke-width="0.22"/>
              <path id="Path_1281" data-name="Path 1281" d="M93.688,191.844,93.41,167.5" transform="translate(-32.44 -167.5)" fill="none" stroke="#8f939f" stroke-linecap="round" stroke-linejoin="round" stroke-width="0.22"/>
              <path id="Path_1282" data-name="Path 1282" d="M92.094,191.844,91.9,167.5" transform="translate(-33.026 -167.5)" fill="none" stroke="#8f939f" stroke-linecap="round" stroke-linejoin="round" stroke-width="0.22"/>
              <path id="Path_1283" data-name="Path 1283" d="M90.481,191.844,90.37,167.5" transform="translate(-33.619 -167.5)" fill="none" stroke="#8f939f" stroke-linecap="round" stroke-linejoin="round" stroke-width="0.22"/>
              <path id="Path_1284" data-name="Path 1284" d="M88.878,191.844,88.85,167.5" transform="translate(-34.209 -167.5)" fill="none" stroke="#8f939f" stroke-linecap="round" stroke-linejoin="round" stroke-width="0.22"/>
              <path id="Path_1285" data-name="Path 1285" d="M87.3,191.844l.028-24.344" transform="translate(-34.81 -167.5)" fill="none" stroke="#8f939f" stroke-linecap="round" stroke-linejoin="round" stroke-width="0.22"/>
              <path id="Path_1286" data-name="Path 1286" d="M85.73,191.844l.1-24.344" transform="translate(-35.419 -167.5)" fill="none" stroke="#8f939f" stroke-linecap="round" stroke-linejoin="round" stroke-width="0.22"/>
              <path id="Path_1287" data-name="Path 1287" d="M84.15,191.844l.194-24.344" transform="translate(-36.032 -167.5)" fill="none" stroke="#8f939f" stroke-linecap="round" stroke-linejoin="round" stroke-width="0.22"/>
              <path id="Path_1288" data-name="Path 1288" d="M82.58,191.844l.25-24.344" transform="translate(-36.641 -167.5)" fill="none" stroke="#8f939f" stroke-linecap="round" stroke-linejoin="round" stroke-width="0.22"/>
              <path id="Path_1289" data-name="Path 1289" d="M80.99,191.844l.347-24.344" transform="translate(-37.258 -167.5)" fill="none" stroke="#8f939f" stroke-linecap="round" stroke-linejoin="round" stroke-width="0.22"/>
              <path id="Path_1290" data-name="Path 1290" d="M79.42,191.844l.416-24.344" transform="translate(-37.867 -167.5)" fill="none" stroke="#8f939f" stroke-linecap="round" stroke-linejoin="round" stroke-width="0.22"/>
              <path id="Path_1291" data-name="Path 1291" d="M77.85,191.844l.486-24.344" transform="translate(-38.476 -167.5)" fill="none" stroke="#8f939f" stroke-linecap="round" stroke-linejoin="round" stroke-width="0.22"/>
              <path id="Path_1292" data-name="Path 1292" d="M76.27,191.844l.569-24.344" transform="translate(-39.088 -167.5)" fill="none" stroke="#8f939f" stroke-linecap="round" stroke-linejoin="round" stroke-width="0.22"/>
              <path id="Path_1293" data-name="Path 1293" d="M74.69,191.844l.638-24.344" transform="translate(-39.701 -167.5)" fill="none" stroke="#8f939f" stroke-linecap="round" stroke-linejoin="round" stroke-width="0.22"/>
              <path id="Path_1294" data-name="Path 1294" d="M73.12,191.844l.708-24.344" transform="translate(-40.31 -167.5)" fill="none" stroke="#8f939f" stroke-linecap="round" stroke-linejoin="round" stroke-width="0.22"/>
              <path id="Path_1295" data-name="Path 1295" d="M71.54,191.844l.791-24.344" transform="translate(-40.923 -167.5)" fill="none" stroke="#8f939f" stroke-linecap="round" stroke-linejoin="round" stroke-width="0.22"/>
              <path id="Path_1296" data-name="Path 1296" d="M69.97,191.844l.86-24.344" transform="translate(-41.532 -167.5)" fill="none" stroke="#8f939f" stroke-linecap="round" stroke-linejoin="round" stroke-width="0.22"/>
              <path id="Path_1297" data-name="Path 1297" d="M68.39,191.844l.93-24.344" transform="translate(-42.145 -167.5)" fill="none" stroke="#8f939f" stroke-linecap="round" stroke-linejoin="round" stroke-width="0.22"/>
              <path id="Path_1298" data-name="Path 1298" d="M66.81,191.844,67.823,167.5" transform="translate(-42.758 -167.5)" fill="none" stroke="#8f939f" stroke-linecap="round" stroke-linejoin="round" stroke-width="0.22"/>
              <path id="Path_1299" data-name="Path 1299" d="M65.24,191.844l1.1-24.344" transform="translate(-43.367 -167.5)" fill="none" stroke="#8f939f" stroke-linecap="round" stroke-linejoin="round" stroke-width="0.22"/>
              <path id="Path_1300" data-name="Path 1300" d="M63.67,191.844,64.836,167.5" transform="translate(-43.976 -167.5)" fill="none" stroke="#8f939f" stroke-linecap="round" stroke-linejoin="round" stroke-width="0.22"/>
              <path id="Path_1301" data-name="Path 1301" d="M62.08,191.844,63.329,167.5" transform="translate(-44.593 -167.5)" fill="none" stroke="#8f939f" stroke-linecap="round" stroke-linejoin="round" stroke-width="0.22"/>
              <path id="Path_1302" data-name="Path 1302" d="M60.52,191.844l1.3-24.344" transform="translate(-45.198 -167.5)" fill="none" stroke="#8f939f" stroke-linecap="round" stroke-linejoin="round" stroke-width="0.22"/>
              <path id="Path_1303" data-name="Path 1303" d="M58.94,191.844,60.328,167.5" transform="translate(-45.811 -167.5)" fill="none" stroke="#8f939f" stroke-linecap="round" stroke-linejoin="round" stroke-width="0.22"/>
              <path id="Path_1304" data-name="Path 1304" d="M57.36,191.844,58.831,167.5" transform="translate(-46.423 -167.5)" fill="none" stroke="#8f939f" stroke-linecap="round" stroke-linejoin="round" stroke-width="0.22"/>
              <path id="Path_1305" data-name="Path 1305" d="M55.78,191.844,57.334,167.5" transform="translate(-47.036 -167.5)" fill="none" stroke="#8f939f" stroke-linecap="round" stroke-linejoin="round" stroke-width="0.22"/>
              <path id="Path_1306" data-name="Path 1306" d="M54.2,191.844,55.824,167.5" transform="translate(-47.649 -167.5)" fill="none" stroke="#8f939f" stroke-linecap="round" stroke-linejoin="round" stroke-width="0.22"/>
              <path id="Path_1307" data-name="Path 1307" d="M52.63,191.844,54.323,167.5" transform="translate(-48.258 -167.5)" fill="none" stroke="#8f939f" stroke-linecap="round" stroke-linejoin="round" stroke-width="0.22"/>
              <path id="Path_1308" data-name="Path 1308" d="M51.06,191.844,52.836,167.5" transform="translate(-48.867 -167.5)" fill="none" stroke="#8f939f" stroke-linecap="round" stroke-linejoin="round" stroke-width="0.22"/>
              <path id="Path_1309" data-name="Path 1309" d="M49.48,191.844,51.326,167.5" transform="translate(-49.48 -167.5)" fill="none" stroke="#8f939f" stroke-linecap="round" stroke-linejoin="round" stroke-width="0.22"/>
            </g>
          </g>
          <path id="Path_1311" data-name="Path 1311" d="M53.863,168.07l-2.193,10.4s52.712,26.939,120.191.791l-2.845-10.548s-63.246,20.943-115.153-.638Z" transform="translate(-51.67 -168.07)" fill="none" stroke="#8f939f" stroke-width="0.5"/>
        </g>
        <g id="Group_906" data-name="Group 906" transform="translate(6.343 33.379)">
          <line id="Line_152" data-name="Line 152" x1="19.25" y2="54.1" transform="translate(229.39)" fill="none" stroke="#8f939f" stroke-width="0.33" stroke-dasharray="0 0.95"/>
          <path id="Path_1312" data-name="Path 1312" d="M183.454,154.318c-15.017,4.122-59.79,23.788-138.164-.458" transform="translate(10.795 24.414)" fill="none" stroke="#8f939f" stroke-width="0.33" stroke-dasharray="0 0.95"/>
          <line id="Line_153" data-name="Line 153" x2="15.975" y2="53.295" transform="translate(0 1.305)" fill="none" stroke="#8f939f" stroke-width="0.33" stroke-dasharray="0 0.95"/>
        </g>
        <path id="Path_1313" data-name="Path 1313" d="M183.468,69.1c-2.457-7.578-3.359-12.616-5.163-22.4H51.133c-1.4,7.37-1.166,9.785-5.843,24.579V86.421H183.482V69.1Z" transform="translate(17.137 16.227)" fill="#00397b"/>
        <g id="Group_908" data-name="Group 908" transform="translate(89.352 41.102)">
          <path id="Path_1314" data-name="Path 1314" d="M77.718,33.147c0-1.083-.486-2-1.443-2.11a10.529,10.529,0,0,0-1.624-.056h-.416c-.291,0-.444.139-.444.416a1.518,1.518,0,0,0,.042.486c.056.153.194.222.4.222h1.1c.694,0,1.083.056,1.083.666H73.651c0-1.166-1.055-1.749-3.095-1.749H68.5a5.3,5.3,0,0,0-1.929.264,1.53,1.53,0,0,0-1.013,1.527v5.427a.437.437,0,0,0,.486.5,1.8,1.8,0,0,0,.541-.042.421.421,0,0,0,.264-.458V37.005H69.6c.042,1.124,1.069,1.679,3.095,1.679h2.04a4.962,4.962,0,0,0,1.929-.264,1.5,1.5,0,0,0,1.013-1.513V33.133Zm-10.826-.291c0-.486.569-.708,1.707-.708h2a5.056,5.056,0,0,1,1.069.056c.444.1.68.278.708.569-1.818,0-2.734.625-2.734,1.846v1.291H66.892V32.856Zm5.482,1.013v1.3c0,.486-.472.736-1.43.749v-1.3c0-.486.486-.736,1.43-.736Zm4.053,3.026q0,.708-1.707.708h-2a8.034,8.034,0,0,1-1.069-.056c-.43-.083-.652-.264-.694-.527,1.818,0,2.734-.638,2.734-1.874V33.869h2.748v3.026Z" transform="translate(-64.353 -30.975)" fill="#fff"/>
          <g id="Group_907" data-name="Group 907" transform="translate(0 8.404)">
            <path id="Path_1315" data-name="Path 1315" d="M65.7,37.05H64.69v1.86h.472v-.666h.514a.623.623,0,0,0,.708-.6C66.383,37.272,66.12,37.05,65.7,37.05Zm-.527.333h.347c.278,0,.389.069.389.25,0,.083,0,.264-.333.264h-.416v-.514Z" transform="translate(-64.69 -37.022)" fill="#fff"/>
            <path id="Path_1316" data-name="Path 1316" d="M66.12,37.39v1.374h.458V37.39H66.12Z" transform="translate(-64.135 -36.89)" fill="#fff"/>
            <path id="Path_1317" data-name="Path 1317" d="M66.12,37.03v.361h.458V37.03H66.12Z" transform="translate(-64.135 -37.03)" fill="#fff"/>
            <path id="Path_1318" data-name="Path 1318" d="M68.224,37.39H67.7s-.236.361-.264.389c-.014-.028-.264-.389-.264-.389h-.555s.527.666.527.68l-.541.694h.541s.25-.361.264-.4c.014.028.264.4.264.4h.555l-.555-.694c0-.014.541-.68.541-.68Z" transform="translate(-63.949 -36.89)" fill="#fff"/>
            <path id="Path_1319" data-name="Path 1319" d="M68.7,37.36a.742.742,0,0,0-.833.722.759.759,0,0,0,.833.736.751.751,0,0,0,.833-.736A.734.734,0,0,0,68.7,37.36Zm0,1.138c-.319,0-.375-.222-.375-.4s.056-.4.375-.4.375.222.375.4S69.022,38.5,68.7,38.5Z" transform="translate(-63.457 -36.902)" fill="#fff"/>
            <path id="Path_1320" data-name="Path 1320" d="M70.488,37.05h-.527l-.791,1.86h.5s.153-.361.153-.375h.791l.139.375h.527l-.763-1.86h0Zm0,1.138h-.514s.25-.638.264-.694C70.253,37.536,70.488,38.16,70.488,38.188Z" transform="translate(-62.952 -37.022)" fill="#fff"/>
            <path id="Path_1321" data-name="Path 1321" d="M70.85,37.05V38.9h.458V37.05H70.85Z" transform="translate(-62.301 -37.022)" fill="#fff"/>
            <path id="Path_1322" data-name="Path 1322" d="M72.137,37.36a.683.683,0,0,0-.777.708c0,.5.278.749.819.749a.731.731,0,0,0,.722-.444h-.458a.243.243,0,0,1-.25.153.326.326,0,0,1-.375-.305h1.11v-.069a.7.7,0,0,0-.763-.763Zm-.319.583a.309.309,0,0,1,.611,0H71.8Z" transform="translate(-62.103 -36.902)" fill="#fff"/>
            <path id="Path_1323" data-name="Path 1323" d="M72.67,37.39v1.374h.458V37.39H72.67Z" transform="translate(-61.595 -36.89)" fill="#fff"/>
            <path id="Path_1324" data-name="Path 1324" d="M72.67,37.03v.361h.458V37.03H72.67Z" transform="translate(-61.595 -37.03)" fill="#fff"/>
            <path id="Path_1325" data-name="Path 1325" d="M73.7,37.614v-.208h-.43V38.78h.444v-.722c0-.208.125-.319.375-.319h.125V37.35H74.13a.492.492,0,0,0-.444.236Z" transform="translate(-61.362 -36.906)" fill="#fff"/>
            <path id="Path_1326" data-name="Path 1326" d="M74.843,37.36a.749.749,0,0,0-.833.722.759.759,0,0,0,.833.736.751.751,0,0,0,.833-.736A.734.734,0,0,0,74.843,37.36Zm0,1.138a.4.4,0,1,1,.375-.4C75.217,38.29,75.148,38.5,74.843,38.5Z" transform="translate(-61.075 -36.902)" fill="#fff"/>
          </g>
        </g>
        <g id="Group_909" data-name="Group 909" transform="translate(41.678 232.013)">
          <path id="Path_1327" data-name="Path 1327" d="M191.772,312.01c5.649-5.732,9.34-10.714,15.308-14.781l-30.3-128.7c-61.733,20.416-115.056,0-115.056,0L31.61,295.175c5.815,4.7,11.325,12.56,17.932,16.03,5.26,2.776,24.316,14.267,58.638,4.108l11.075-40.36L132,318.366c34.614,10.354,54.5-1.055,59.762-6.37Z" transform="translate(-29.847 -168.53)" fill="none"/>
          <path id="Path_1328" data-name="Path 1328" d="M50.048,275.81c-6.606-3.47-12.116-11.325-17.932-16.03l-1.776,7.495,7.134,6.315c15.447,26.467,68.478,14.378,69.089,14.129l2.137-7.786c-34.322,10.159-53.392-1.332-58.638-4.108Z" transform="translate(-30.34 -133.135)" fill="#00397b"/>
          <path id="Path_1329" data-name="Path 1329" d="M163.712,276.041c-5.26,5.316-25.135,16.724-59.762,6.37l1.957,6.648c53.337,12.63,68.007-15.072,68.007-15.072l6.731-5.829-1.624-6.9c-5.968,4.067-9.66,9.035-15.308,14.781Z" transform="translate(-1.788 -132.561)" fill="#00397b"/>
        </g>
        <g id="Group_910" data-name="Group 910" transform="translate(43.122 242.158)">
          <path id="Path_1330" data-name="Path 1330" d="M51.38,175.84s54.891,25.384,120.4.6" transform="translate(-23.622 -175.84)" fill="none" stroke="#8f939f" stroke-width="0.25"/>
          <path id="Path_1331" data-name="Path 1331" d="M179.653,262.44l-5.593,4s-21.165,33.545-69.88,16.78" transform="translate(-3.142 -142.249)" fill="none" stroke="#8f939f" stroke-width="0.33" stroke-dasharray="0 1.05"/>
          <path id="Path_1332" data-name="Path 1332" d="M31.38,261l7.189,6.787s19.972,27.952,69.478,12.782" transform="translate(-31.38 -142.808)" fill="none" stroke="#8f939f" stroke-width="0.33" stroke-dasharray="0 1.05"/>
        </g>
        <rect id="Rectangle_259" data-name="Rectangle 259" width="138.331" height="12.158" transform="translate(62.275 199.148)" fill="#23b2e9"/>
        <rect id="Rectangle_260" data-name="Rectangle 260" width="138.289" height="12.158" transform="translate(62.316 171.987)" fill="#23b2e9"/>
        <rect id="Rectangle_261" data-name="Rectangle 261" width="138.261" height="12.158" transform="translate(62.358 144.826)" fill="#23b2e9"/>
        <rect id="Rectangle_262" data-name="Rectangle 262" width="138.22" height="12.158" transform="translate(62.386 117.651)" fill="#23b2e9"/>
        <g id="Group_916" data-name="Group 916" transform="translate(158.039 32.823)">
          <path id="Path_1333" data-name="Path 1333" d="M123.709,25.08a15.59,15.59,0,0,0-8.008,2.359,1.035,1.035,0,0,0-.389.541,26.805,26.805,0,0,0-1.083,7.231,18.983,18.983,0,0,0,2.568,9.729,19.69,19.69,0,0,0,6.509,6.7.78.78,0,0,0,.847,0,19.824,19.824,0,0,0,6.509-6.7,18.983,18.983,0,0,0,2.568-9.729,26.346,26.346,0,0,0-1.083-7.231.966.966,0,0,0-.389-.541,15.59,15.59,0,0,0-8.008-2.359h-.042Z" transform="translate(-114.161 -24.983)" fill="#9e0029"/>
          <g id="Group_911" data-name="Group 911">
            <path id="Path_1334" data-name="Path 1334" d="M123.709,25.08a15.59,15.59,0,0,0-8.008,2.359,1.035,1.035,0,0,0-.389.541,26.805,26.805,0,0,0-1.083,7.231,18.983,18.983,0,0,0,2.568,9.729,19.69,19.69,0,0,0,6.509,6.7.78.78,0,0,0,.847,0,19.824,19.824,0,0,0,6.509-6.7,18.983,18.983,0,0,0,2.568-9.729,26.346,26.346,0,0,0-1.083-7.231.966.966,0,0,0-.389-.541,15.59,15.59,0,0,0-8.008-2.359h-.042Z" transform="translate(-114.161 -24.983)" fill="#9e0029"/>
            <path id="Path_1335" data-name="Path 1335" d="M123.729,25.01a15.391,15.391,0,0,0-8.05,2.387,1.111,1.111,0,0,0-.416.583,26.518,26.518,0,0,0-1.083,7.245A19.134,19.134,0,0,0,116.748,45a20.06,20.06,0,0,0,6.537,6.745.866.866,0,0,0,.93,0A19.931,19.931,0,0,0,130.751,45a19.134,19.134,0,0,0,2.568-9.771,26.365,26.365,0,0,0-1.083-7.245,1.013,1.013,0,0,0-.416-.583,15.666,15.666,0,0,0-8.05-2.387h-.056Zm-.347,26.578a19.664,19.664,0,0,1-6.481-6.676,18.946,18.946,0,0,1-2.54-9.687,26.652,26.652,0,0,1,1.069-7.2.836.836,0,0,1,.347-.486,15.513,15.513,0,0,1,7.953-2.346h.042a15.528,15.528,0,0,1,7.966,2.346.836.836,0,0,1,.347.486,26.612,26.612,0,0,1,1.083,7.2,18.957,18.957,0,0,1-2.554,9.687,19.531,19.531,0,0,1-6.481,6.676.648.648,0,0,1-.736,0Z" transform="translate(-114.18 -25.01)" fill="#d0a642"/>
          </g>
          <path id="Path_1336" data-name="Path 1336" d="M115.9,28a25.2,25.2,0,0,0-1.041,6.926,17.922,17.922,0,0,0,2.415,9.188,19.134,19.134,0,0,0,6.2,6.4,19,19,0,0,0,6.2-6.4A17.958,17.958,0,0,0,132.1,34.93,25.2,25.2,0,0,0,131.057,28a14.884,14.884,0,0,0-7.592-2.234A14.617,14.617,0,0,0,115.887,28Z" transform="translate(-113.916 -24.715)" fill="#e01d15"/>
          <path id="Path_1337" data-name="Path 1337" d="M128.58,27.623A14.306,14.306,0,0,0,121.1,25.43c-.028,0-.028.486-.069.486,0,0,.042,24.718.069,24.732a19,19,0,0,0,6.2-6.4,17.958,17.958,0,0,0,2.415-9.188,29.691,29.691,0,0,0-1.152-7.439Z" transform="translate(-111.523 -24.847)" fill="#9e0029"/>
          <path id="Path_1338" data-name="Path 1338" d="M131.081,27.578a13.2,13.2,0,0,0-1.235-.708c.847,2.554,3.609,13.351-6.357,23.205-9.965-9.854-7.189-20.666-6.343-23.205a8.083,8.083,0,0,0-1.235.708A25.2,25.2,0,0,0,114.87,34.5a17.922,17.922,0,0,0,2.415,9.188,19.134,19.134,0,0,0,6.2,6.4,19,19,0,0,0,6.2-6.4,17.958,17.958,0,0,0,2.415-9.188,25.2,25.2,0,0,0-1.041-6.926Z" transform="translate(-113.912 -24.289)" fill="#fff"/>
          <path id="Path_1339" data-name="Path 1339" d="M127.782,41.214c-.014-.18-.194-.389-.208-.5-.014-.208.069-.416.069-.583s-.069-.347-.056-.541c0-.278.111-.416,0-.694-.083-.194-.305-.305-.361-.458a4.9,4.9,0,0,1-.014-1.277,3.485,3.485,0,0,1,.028-.763c-.18-.083-.236-.25-.541-.389-.375-.153-.625.1-.985.125-.486.028-.444-.291-.888-.555-.291-.167-.68-.042-.985-.222-.264-.153-.278-.389-.5-.555-.305-.222-.4-.014-.736-.028a.84.84,0,0,1-.833-1.027c.056-.486.153-.167.416-.416.18-.167.18-.416.4-.555.347-.208.666.069,1-.014.444-.111.319-.236.4-.68a3.759,3.759,0,0,0-.125-1.79c-.083-.264-.111-.652-.194-.9a1.3,1.3,0,0,0-.694-.611c-.125-.042-1.374-.4-1.693-.569-.056-.028-.083-.056-.069-.069-.125.153-.305.194-.43.305s-.18.333-.361.416c-.375.194-.874-.194-1.249,0-.18.1-.208.305-.4.389a1.368,1.368,0,0,1-.777-.139c-.319-.125-.93-.4-1.221-.139-.25.222.083.86.014,1.18-.083.389-.416.749-.347,1.207a3.812,3.812,0,0,0,.638,1.221c.389.5.6.111,1.041.139.472,0,.416.43.541.763a4.131,4.131,0,0,0,.666,1.11,3.36,3.36,0,0,0,.9.791c.569.305.763.222,1.069.791a10.634,10.634,0,0,1,.93,1.443c.291.777.625,1.554.888,2.346.069.208.139.416.194.625v-.056l.319.083.042.139h.361l.167-.222.083.18.069.25.486.042.028.236.139.361h.319l.264.444v.264l.749.68-.111.056-.264-.111-.25.042-.222.222.527.819.347-.18-.125-.347.236-.167.25.153.222-.486.125.125a1.522,1.522,0,0,0,.194-.291c.153-.333.278-.763.4-1.1a.92.92,0,0,0,.125-.541Z" transform="translate(-113.306 -23.796)" fill="#d0a642"/>
          <path id="Path_1340" data-name="Path 1340" d="M123.507,50.058s0,.014-.028.028c-9.965-9.854-7.189-20.666-6.343-23.205a8.082,8.082,0,0,0-1.235.708,25.2,25.2,0,0,0-1.041,6.926,17.922,17.922,0,0,0,2.415,9.188,19.134,19.134,0,0,0,6.2,6.4h.028Z" transform="translate(-113.916 -24.285)" fill="#fff"/>
          <g id="Group_913" data-name="Group 913" transform="translate(7.536 1.818)">
            <g id="Group_912" data-name="Group 912">
              <path id="Path_1341" data-name="Path 1341" d="M123.619,28.345a1.985,1.985,0,1,1-1.985-1.985A1.984,1.984,0,0,1,123.619,28.345Z" transform="translate(-119.594 -26.304)" fill="#e01d15"/>
              <path id="Path_1342" data-name="Path 1342" d="M119.61,28.36a2.04,2.04,0,1,0,2.04-2.04A2.044,2.044,0,0,0,119.61,28.36Zm.125,0a1.929,1.929,0,1,1,1.929,1.929A1.934,1.934,0,0,1,119.735,28.36Z" transform="translate(-119.61 -26.32)" fill="#fff"/>
            </g>
            <path id="Path_1343" data-name="Path 1343" d="M121.03,27.857a1.922,1.922,0,0,1,.611,1.4,1.2,1.2,0,0,1-.042.389l.125.028a2.118,2.118,0,0,0,.042-.416,2.048,2.048,0,0,0-.652-1.5l-.083.1Z" transform="translate(-119.059 -25.761)" fill="#fff"/>
            <path id="Path_1344" data-name="Path 1344" d="M121.992,26.887a2.05,2.05,0,0,0-.972,1.318l.111.028a2.036,2.036,0,0,1,.916-1.249,1.538,1.538,0,0,1,.416-.167l-.1-.1a2.213,2.213,0,0,0-.375.167Z" transform="translate(-119.063 -26.165)" fill="#fff"/>
            <path id="Path_1345" data-name="Path 1345" d="M119.67,27.557a3.47,3.47,0,0,0,.333.25,2.079,2.079,0,0,0,1.624.18l-.028-.111a1.954,1.954,0,0,1-1.527-.18,1.06,1.06,0,0,1-.319-.236Z" transform="translate(-119.587 -25.878)" fill="#fff"/>
            <path id="Path_1346" data-name="Path 1346" d="M121.36,27.227a1.916,1.916,0,0,1,.86,1.6,1.99,1.99,0,0,1-.194.847l.111.056a2.034,2.034,0,0,0-.708-2.6l-.069.1Z" transform="translate(-118.931 -26.006)" fill="#fff"/>
            <path id="Path_1347" data-name="Path 1347" d="M121.337,26.734a2.114,2.114,0,0,0-1.027,1.638h.125a1.9,1.9,0,0,1,.958-1.527,2.076,2.076,0,0,1,.86-.264V26.47A2.064,2.064,0,0,0,121.337,26.734Z" transform="translate(-119.338 -26.262)" fill="#fff"/>
            <path id="Path_1348" data-name="Path 1348" d="M119.624,27.973a2.047,2.047,0,0,0,2.568.666l-.056-.1a1.929,1.929,0,0,1-1.8-.069,1.841,1.841,0,0,1-.638-.583l-.083.1Z" transform="translate(-119.61 -25.711)" fill="#fff"/>
          </g>
          <g id="Group_914" data-name="Group 914" transform="translate(4.733 11.575)">
            <path id="Path_1349" data-name="Path 1349" d="M125.556,42.01h.722l-1.832-1.027a.783.783,0,0,0,.25-.472c0-.139-.167-.18-.361-.18a1.594,1.594,0,0,0-.278,0,7.459,7.459,0,0,1-1.277.125,2.965,2.965,0,0,0,1.277-1.221,4.827,4.827,0,0,0,.458-1.874,1.625,1.625,0,0,1-1.11,1.374c1.8-.958.694-5.385.694-5.385a3.694,3.694,0,0,1-1.416,2.9c-1.61,1.013-3.15,2.817-1.846,3.858a4.755,4.755,0,0,1-3.248-2.554s.541,4.455,4.164,4.455a3.174,3.174,0,0,0,.694-.056,4.668,4.668,0,0,0,.666-.194l.278.222h.722l-.625-.347c.111-.056.222-.111.319-.167l.638.514h.736l-1.152-.638a2.24,2.24,0,0,0,.375-.319l1.18.958Z" transform="translate(-117.59 -33.35)" fill="none" stroke="#fff" stroke-linecap="round" stroke-linejoin="round" stroke-width="0.13"/>
            <path id="Path_1350" data-name="Path 1350" d="M125.556,42.01h.722l-1.832-1.027a.783.783,0,0,0,.25-.472c0-.139-.167-.18-.361-.18a1.594,1.594,0,0,0-.278,0,7.459,7.459,0,0,1-1.277.125,2.965,2.965,0,0,0,1.277-1.221,4.827,4.827,0,0,0,.458-1.874,1.625,1.625,0,0,1-1.11,1.374c1.8-.958.694-5.385.694-5.385a3.694,3.694,0,0,1-1.416,2.9c-1.61,1.013-3.15,2.817-1.846,3.858a4.755,4.755,0,0,1-3.248-2.554s.541,4.455,4.164,4.455a3.174,3.174,0,0,0,.694-.056,4.668,4.668,0,0,0,.666-.194l.278.222h.722l-.625-.347c.111-.056.222-.111.319-.167l.638.514h.736l-1.152-.638a2.24,2.24,0,0,0,.375-.319l1.18.958Z" transform="translate(-117.59 -33.35)" fill="#e01d15"/>
          </g>
          <g id="Group_915" data-name="Group 915" transform="translate(2.72 7.3)">
            <path id="Path_1351" data-name="Path 1351" d="M116.14,31.57h.68l.222.833h0V31.57h.389v1.194h-.666l-.236-.86h0v.86h-.389V31.57Z" transform="translate(-116.14 -29.766)" fill="#231916"/>
            <path id="Path_1352" data-name="Path 1352" d="M117.718,31.57v1.194h-.458V31.57Z" transform="translate(-115.706 -29.766)" fill="#231916"/>
            <path id="Path_1353" data-name="Path 1353" d="M118.739,31.9a.94.94,0,0,0-.361-.056c-.069,0-.194,0-.194.083,0,.153.625,0,.625.458,0,.319-.305.4-.569.4a1.863,1.863,0,0,1-.486-.056V32.43a1,1,0,0,0,.4.083c.111,0,.208-.014.208-.083,0-.153-.625,0-.625-.472,0-.333.333-.389.611-.389a1.238,1.238,0,0,1,.389.042v.305Z" transform="translate(-115.519 -29.766)" fill="#231916"/>
            <path id="Path_1354" data-name="Path 1354" d="M119.433,31.57h.458v1.194h-.458v-.43h-.305v.43h-.458V31.57h.458v.416h.305Z" transform="translate(-115.159 -29.766)" fill="#231916"/>
            <path id="Path_1355" data-name="Path 1355" d="M120.188,31.57v1.194h-.458V31.57Z" transform="translate(-114.747 -29.766)" fill="#231916"/>
            <path id="Path_1356" data-name="Path 1356" d="M120.24,31.57h.68l.208.833h0V31.57h.389v1.194h-.666l-.222-.86h0v.86h-.389V31.57Z" transform="translate(-114.55 -29.766)" fill="#231916"/>
            <path id="Path_1357" data-name="Path 1357" d="M121.792,32.171c0-.111,0-.333.18-.333s.18.222.18.333,0,.333-.18.333S121.792,32.3,121.792,32.171Zm.847,0c0-.4-.25-.611-.666-.611a.612.612,0,1,0,0,1.221C122.389,32.781,122.638,32.573,122.638,32.171Z" transform="translate(-114.131 -29.77)" fill="#231916"/>
            <path id="Path_1358" data-name="Path 1358" d="M122.41,31.57h.68l.153.652h0l.153-.652h.666v1.194h-.4v-.93h0l-.236.93h-.375l-.222-.93h0v.93h-.389V31.57Z" transform="translate(-113.708 -29.766)" fill="#231916"/>
            <path id="Path_1359" data-name="Path 1359" d="M124.248,31.57v1.194h-.458V31.57Z" transform="translate(-113.173 -29.766)" fill="#231916"/>
            <path id="Path_1360" data-name="Path 1360" d="M125.132,32.4v.361h-.458V32.4l-.444-.819h.486l.194.5h0l.18-.5h.472l-.444.819Z" transform="translate(-113.002 -29.762)" fill="#231916"/>
            <path id="Path_1361" data-name="Path 1361" d="M125.852,31.834h0l.125.389h-.264l.139-.389Zm-.722.93h.458l.069-.25h.389l.083.25h.472l-.43-1.194h-.625Z" transform="translate(-112.653 -29.766)" fill="#231916"/>
            <path id="Path_1362" data-name="Path 1362" d="M120.25,30.29h1.013v.291h-.555v.194h.541v.291h-.541v.416h-.458V30.3Z" transform="translate(-114.546 -30.262)" fill="#231916"/>
            <path id="Path_1363" data-name="Path 1363" d="M122.2,31.45a1.11,1.11,0,0,1-.333.056.631.631,0,0,1-.708-.638c0-.4.333-.6.708-.6a1.183,1.183,0,0,1,.319.042v.319a.69.69,0,0,0-.222-.042.309.309,0,0,0-.347.291.288.288,0,0,0,.319.305.528.528,0,0,0,.25-.042v.305Z" transform="translate(-114.193 -30.27)" fill="#231916"/>
          </g>
        </g>
        <path id="Path_1364" data-name="Path 1364" d="M44.38,11.73S60.368,47,45.823,82.637" transform="translate(16.784 2.662)" fill="none" stroke="#8f939f" stroke-width="0.43"/>
        <path id="Path_1365" data-name="Path 1365" d="M147.52,11.68s-13.782,34.808-1.249,69.991" transform="translate(54.265 2.643)" fill="none" stroke="#8f939f" stroke-width="0.4"/>
        <g id="Group_917" data-name="Group 917" transform="translate(86.049 77.569)">
          <path id="Path_1366" data-name="Path 1366" d="M68.77,62.125a2.812,2.812,0,0,0,.153.666c.069.153.042.4-.153.389s-.305-.167-.222-.458a1.585,1.585,0,0,0,.111-.444v-.153c-.014-.056.1-.083.111,0" transform="translate(-59.901 -55.38)" fill="#fff"/>
          <path id="Path_1367" data-name="Path 1367" d="M68.792,61.316a1.394,1.394,0,0,0,.139.514c.056.083.1.43-.139.444-.125,0-.319-.1-.167-.486a.453.453,0,0,0,.028-.111c.014-.069.028-.167.028-.18v-.167s-.014-.069.056-.069a.054.054,0,0,1,.056.056" transform="translate(-59.882 -55.695)" fill="#fff"/>
          <path id="Path_1368" data-name="Path 1368" d="M70.924,61.084a.677.677,0,0,0-.194-.5c-.472-.347-1.055.305-1.693.139a.621.621,0,0,1-.4-.444.515.515,0,0,0,.083-.291c-.028-.153-.194-.236-.319-.333v-.028c-.014-.056-.1-.028-.083.014v.028a.736.736,0,0,0-.1.514.25.25,0,0,0,.222.125,1.879,1.879,0,0,0,.361.527c.389.264.888.056,1.291-.042.083,0,.222-.042.278.042a.135.135,0,0,1-.056.125,2.751,2.751,0,0,1-1.027.153c-.763,0-1.263-.638-1.943-.833a3.638,3.638,0,0,0-1.6-.1c-.1.014-.18.083-.278.056.167-.527-.611-.569-.611-1.027-.028,0-.042,0-.056.042a.59.59,0,0,0,.278.6c0,.083.042.236-.069.291a.33.33,0,0,1-.167-.042,1.617,1.617,0,0,0-.819.042c-.111-.069-.069-.208-.083-.291.153-.167.333-.319.291-.555-.014-.028-.014-.1-.069-.083,0,.319-.361.416-.541.638a.837.837,0,0,0,.1.86c.028.18-.014.4.1.555.319.167.111.527.25.777.1.167.291.111.458.083a.468.468,0,0,0,.278.028c.291-.111.125-.486.236-.708.042-.1.1-.069.194-.236a1.25,1.25,0,0,0,.056-.222c0-.028.028-.042.056-.028a.041.041,0,0,1,.042.042c-.042.125-.042.278-.153.361-.305.236.028.694-.361.874a2.086,2.086,0,0,0,.305.819c.069.167.25.25.361.375a3.8,3.8,0,0,0,.083.694,3.263,3.263,0,0,0-.236.708c-.042.069-.111.139-.1.208h.278s.1-.111.139,0h.43l.028-.028s-.056-.125,0-.167c.056-.222-.056-.458,0-.722a1.657,1.657,0,0,0,.153-.361c.028-.056.056-.125.125-.139a3.439,3.439,0,0,0,2.248-.264c.208-.056.486-.222.652-.014a5.205,5.205,0,0,0,.347.985,2.131,2.131,0,0,0-.153.416.311.311,0,0,0-.1.333h.291s.111-.069.139,0h.43c.042-.111-.1-.18.042-.236,0-.278-.208-.611.028-.833a.239.239,0,0,0-.028-.236,5.356,5.356,0,0,1,.028-.888,3.107,3.107,0,0,1,.111-.4,2.779,2.779,0,0,0,.056-.333,1.8,1.8,0,0,0,.389-1.055" transform="translate(-61.834 -56.49)" fill="#fff"/>
          <path id="Path_1369" data-name="Path 1369" d="M67.737,57.25a5.427,5.427,0,1,0,5.427,5.427,5.426,5.426,0,0,0-5.427-5.427m-4.7,5.427a4.7,4.7,0,0,1,3.109-4.427l2.484,9.035a4.711,4.711,0,0,1-5.593-4.608m6.3,4.413-2.484-9.035a4.7,4.7,0,0,1,2.484,9.035" transform="translate(-62.31 -57.25)" fill="#fff"/>
          <rect id="Rectangle_263" data-name="Rectangle 263" width="2.276" height="7.55" transform="translate(52.296 1.652)" fill="#fff"/>
          <path id="Path_1370" data-name="Path 1370" d="M97.562,63.95V58.44H95.3v7.55h5.579V63.95Z" transform="translate(-49.514 -56.788)" fill="#fff"/>
          <path id="Path_1371" data-name="Path 1371" d="M108.381,58.44v1.9h-2.137V65.99h-2.207V60.341H101.9v-1.9Z" transform="translate(-46.953 -56.788)" fill="#fff"/>
          <path id="Path_1372" data-name="Path 1372" d="M111.668,58.44v2.54h-2.332V58.44H107.06v7.55h2.276V63.006h2.332V65.99h2.276V58.44Z" transform="translate(-44.952 -56.788)" fill="#fff"/>
          <path id="Path_1373" data-name="Path 1373" d="M77.83,62.265a3.914,3.914,0,1,1,3.914,3.955,3.936,3.936,0,0,1-3.914-3.955m3.914,2.1a2.174,2.174,0,0,0,0-4.191,2.169,2.169,0,0,0,0,4.191" transform="translate(-56.29 -56.839)" fill="#fff"/>
          <path id="Path_1374" data-name="Path 1374" d="M89.19,62.265A3.914,3.914,0,1,1,93.1,66.221a3.936,3.936,0,0,1-3.914-3.955m3.914,2.1a2.169,2.169,0,1,0-1.61-2.1,1.906,1.906,0,0,0,1.61,2.1" transform="translate(-51.884 -56.839)" fill="#fff"/>
          <path id="Path_1375" data-name="Path 1375" d="M88.475,58.44v3.831L86.088,58.44H83.77v7.55h2.262V62.243l2.359,3.747h2.346V58.44Z" transform="translate(-53.986 -56.788)" fill="#fff"/>
          <rect id="Rectangle_264" data-name="Rectangle 264" width="1.541" height="7.55" transform="translate(73.78 1.652)" fill="#fff"/>
          <path id="Path_1376" data-name="Path 1376" d="M122.02,58.44v4.927l-3.151-4.927H117.19v7.55h1.527V60.716l3.192,5.274h1.652V58.44Z" transform="translate(-41.023 -56.788)" fill="#fff"/>
          <path id="Path_1377" data-name="Path 1377" d="M129.413,63.824a3.369,3.369,0,0,1-3.484,2.72,4.245,4.245,0,0,1,0-8.424,3.487,3.487,0,0,1,3.484,2.72h-1.638a2.063,2.063,0,0,0-1.846-1.346c-1.194,0-2.151,1.207-2.151,2.845s.972,2.928,2.151,2.928a2.123,2.123,0,0,0,1.86-1.443h1.624Z" transform="translate(-39.075 -56.913)" fill="#fff"/>
          <rect id="Rectangle_265" data-name="Rectangle 265" width="1.596" height="1.485" transform="translate(91.184 7.703)" fill="#fff"/>
          <path id="Path_1378" data-name="Path 1378" d="M114.861,62.75H113.32V64.3h.777a1.1,1.1,0,0,1-.763,1.3v.5c1.291.028,1.485-1.332,1.513-1.8h0V62.75Z" transform="translate(-42.524 -55.117)" fill="#fff"/>
          <path id="Path_1379" data-name="Path 1379" d="M76.724,58.44l-1.055,3.817L74.6,58.44H71.7v7.55h2.04V61.965l1.055,4.025H76.53l1.055-4.025V65.99h2.04V58.44Z" transform="translate(-58.668 -56.788)" fill="#fff"/>
          <path id="Path_1380" data-name="Path 1380" d="M65.828,58.182,68.215,66.9a5.619,5.619,0,0,1-.694.056,4.552,4.552,0,0,1-1.693-8.771m.1-.208A4.7,4.7,0,0,0,68.423,67L65.939,57.96Z" transform="translate(-62.108 -56.975)" fill="#231916"/>
          <path id="Path_1381" data-name="Path 1381" d="M66.468,57.927a4.543,4.543,0,0,1,1.693,8.758l-2.387-8.716a5.844,5.844,0,0,1,.694-.056m0-.153a4.7,4.7,0,0,0-.888.083l2.484,9.035a4.7,4.7,0,0,0-1.6-9.118" transform="translate(-61.042 -57.052)" fill="#231916"/>
        </g>
        <g id="Group_919" data-name="Group 919" transform="translate(50.991 349.313)">
          <g id="Group_918" data-name="Group 918" transform="translate(0 6.554)">
            <path id="Path_1382" data-name="Path 1382" d="M38.826,258.228l-.93-.458h0L37.05,259.5l.444.222s.291-.611.291-.625c.028,0,.472.236.472.236a.642.642,0,0,0,.93-.236.625.625,0,0,0-.375-.874Zm-.652.083.319.167c.264.125.347.236.25.4-.042.069-.111.25-.43.111,0,0-.361-.18-.389-.18a5.248,5.248,0,0,1,.236-.486Z" transform="translate(-37.05 -257.77)" fill="#fff"/>
            <path id="Path_1383" data-name="Path 1383" d="M39.015,258.75l-.625,1.291.416.194.638-1.291h-.014Z" transform="translate(-36.53 -257.39)" fill="#fff"/>
            <path id="Path_1384" data-name="Path 1384" d="M39.047,258.41l-.167.347.43.194.153-.319v-.014Z" transform="translate(-36.34 -257.522)" fill="#fff"/>
            <path id="Path_1385" data-name="Path 1385" d="M40.981,259.7h-.028l-.472-.25s-.389.222-.416.25c0-.042-.069-.486-.069-.486l-.514-.236s.194.861.194.874l-.847.4.514.236s.4-.222.444-.25c0,.042.083.5.083.5l.514.25s-.208-.888-.208-.916c.014,0,.819-.389.819-.389Z" transform="translate(-36.36 -257.301)" fill="#fff"/>
            <path id="Path_1386" data-name="Path 1386" d="M41.384,259.823a.762.762,0,1,0-.652,1.36.776.776,0,0,0,1.11-.291.789.789,0,0,0-.458-1.069Zm-.514,1.055a.358.358,0,0,1-.167-.541.4.4,0,1,1,.722.333.381.381,0,0,1-.541.208Z" transform="translate(-35.832 -257.02)" fill="#fff"/>
            <path id="Path_1387" data-name="Path 1387" d="M43.308,260.31l-.486-.25-1.582,1.388.472.222s.305-.278.319-.291.722.347.736.361-.042.416-.042.416l.486.236.111-2.082h-.014Zm-.527,1.055-.486-.236c.014-.014.527-.486.555-.513,0,.042-.069.722-.069.749Z" transform="translate(-35.425 -256.882)" fill="#fff"/>
            <path id="Path_1388" data-name="Path 1388" d="M43.657,260.58l-.847,1.735.43.194.833-1.735h0Z" transform="translate(-34.816 -256.68)" fill="#fff"/>
            <path id="Path_1389" data-name="Path 1389" d="M44.6,261.393a.717.717,0,0,0-1.055.291.736.736,0,0,0,.416,1.083.791.791,0,0,0,.888-.083h0l-.43-.222h0a.25.25,0,0,1-.305.014.332.332,0,0,1-.208-.458l1.041.514.028-.069a.723.723,0,0,0-.375-1.055Zm-.555.4a.294.294,0,0,1,.416-.1.311.311,0,0,1,.167.389A4.57,4.57,0,0,1,44.048,261.8Z" transform="translate(-34.569 -256.41)" fill="#fff"/>
            <path id="Path_1390" data-name="Path 1390" d="M45.145,261.73l-.625,1.291.416.194.625-1.291h-.014Z" transform="translate(-34.152 -256.234)" fill="#fff"/>
            <path id="Path_1391" data-name="Path 1391" d="M45.173,261.39l-.153.333.416.208.167-.333-.014-.014Z" transform="translate(-33.959 -256.366)" fill="#fff"/>
            <path id="Path_1392" data-name="Path 1392" d="M46.014,262.392l.1-.208-.4-.194-.638,1.291.43.208.333-.666c.1-.194.25-.236.486-.125a.3.3,0,0,1,.111.069h0l.167-.347-.083-.056a.476.476,0,0,0-.527.042Z" transform="translate(-33.939 -256.133)" fill="#fff"/>
            <path id="Path_1393" data-name="Path 1393" d="M47.134,262.612a.764.764,0,1,0-.666,1.36.762.762,0,1,0,.652-1.36Zm-.514,1.055a.417.417,0,1,1,.527-.208A.363.363,0,0,1,46.621,263.666Z" transform="translate(-33.602 -255.936)" fill="#fff"/>
          </g>
          <path id="Path_1394" data-name="Path 1394" d="M52.562,259.838a1.954,1.954,0,0,0-.389-2.637,11.86,11.86,0,0,0-1.5-.791l-.375-.18a.393.393,0,0,0-.6.194,1.767,1.767,0,0,0-.18.472c-.028.167.069.291.264.4l1.041.5h0c.638.305.985.555.708,1.124l-2.6-1.263c.514-1.1-.18-2.11-2.1-3.053l-1.915-.93A5.434,5.434,0,0,0,43,253.051a1.578,1.578,0,0,0-1.638.972l-2.47,5.094a.451.451,0,0,0,.222.68,2.013,2.013,0,0,0,.541.208.431.431,0,0,0,.444-.291l.555-1.152,2.581,1.249c-.472,1.069.236,2.068,2.123,2.984l1.915.944a5.086,5.086,0,0,0,1.929.625,1.578,1.578,0,0,0,1.638-.958l1.721-3.539Zm-10.021-5.2c.208-.444.86-.4,1.915.111l1.874.9a6.722,6.722,0,0,1,.972.541c.389.278.527.569.4.86-1.707-.819-2.845-.652-3.4.486l-.583,1.207-2.581-1.249Zm4.677,3.456-.583,1.207c-.222.472-.791.486-1.693.056l.6-1.221C45.761,257.687,46.316,257.673,47.218,258.089Zm2.429,4.677c-.222.444-.86.4-1.915-.111l-1.874-.916a9.752,9.752,0,0,1-.985-.527c-.347-.278-.5-.541-.416-.819q2.561,1.228,3.414-.5l.583-1.207,2.581,1.249-1.374,2.831Z" transform="translate(-36.365 -253.047)" fill="#fff"/>
        </g>
        <g id="Group_921" data-name="Group 921" transform="translate(160.787 361.253)">
          <rect id="Rectangle_266" data-name="Rectangle 266" width="1.499" height="3.955" transform="translate(4.772 9.775) rotate(-16.43)" fill="#fff"/>
          <g id="Group_920" data-name="Group 920">
            <path id="Path_1395" data-name="Path 1395" d="M124.178,268.678a3.476,3.476,0,0,0-1.166.139c-.222.069-.611.18-.541.43.139.5,1.971-.555,2.4.916.291,1.013-.611,1.554-1.443,1.8a7,7,0,0,1-1.6.278l-.291-.985a3.494,3.494,0,0,0,1.36-.125c.333-.1.625-.264.569-.444-.153-.514-1.971.527-2.415-.944-.305-1.041.708-1.541,1.554-1.79a7.955,7.955,0,0,1,1.277-.236l.291.971Z" transform="translate(-114.283 -259.296)" fill="#fff"/>
            <path id="Path_1396" data-name="Path 1396" d="M125.757,267.186l1.43-.416,1.124,3.789-1.443.416-.4-1.36-.944.278.389,1.36-1.43.43-1.11-3.789,1.43-.43.389,1.319.958-.291Z" transform="translate(-113.363 -259.664)" fill="#fff"/>
            <rect id="Rectangle_267" data-name="Rectangle 267" width="1.499" height="3.955" transform="translate(14.139 7.009) rotate(-16.33)" fill="#fff"/>
            <path id="Path_1397" data-name="Path 1397" d="M127.57,266.674l2.137-.625,1.485,2.47.014-.014-.791-2.665,1.221-.361,1.124,3.789-2.11.625-1.541-2.54h0l.8,2.748-1.235.361Z" transform="translate(-111.734 -260.164)" fill="#fff"/>
            <path id="Path_1398" data-name="Path 1398" d="M132.577,267.111c-.1-.347-.264-1.055.264-1.221s.791.527.9.874c.111.4.291,1.055-.278,1.221-.514.153-.763-.472-.874-.874m2.651-.777a2.166,2.166,0,0,0-4.15,1.221,1.9,1.9,0,0,0,2.651,1.346,1.919,1.919,0,0,0,1.513-2.581" transform="translate(-110.413 -260.407)" fill="#fff"/>
            <path id="Path_1399" data-name="Path 1399" d="M133.78,264.937l2.11-.611,1.1,1.929.014-.014-.125-2.207,2.11-.625,1.11,3.789-1.277.375-.9-2.97H137.9l.153,3.192-1.194.361-1.582-2.776-.028.014.861,2.984-1.221.347Z" transform="translate(-109.325 -260.967)" fill="#fff"/>
            <rect id="Rectangle_268" data-name="Rectangle 268" width="1.485" height="3.955" transform="matrix(0.959, -0.282, 0.282, 0.959, 29.934, 2.349)" fill="#fff"/>
            <path id="Path_1400" data-name="Path 1400" d="M142.455,265.159l.333,1.166-1.43.416-.347-1.152-2.151-2.221,1.554-.458,1.055,1.416v-.014l.125-1.749,1.485-.444Z" transform="translate(-107.355 -261.468)" fill="#fff"/>
            <path id="Path_1401" data-name="Path 1401" d="M143.328,262.774h0l.777,1.11-.819.25.042-1.36Zm-1.388,3.636,1.43-.416v-.888l1.194-.361.486.749,1.5-.444-2.443-3.4-1.971.583-.194,4.178Z" transform="translate(-106.16 -261.65)" fill="#fff"/>
            <path id="Path_1402" data-name="Path 1402" d="M119.3,269.111l.791,2.665h-.014l-1.471-2.457-2.137.625,1.11,3.789,1.221-.361-.8-2.748h.014l1.541,2.526,2.1-.611-1.11-3.789Z" transform="translate(-116.04 -258.896)" fill="#fff"/>
            <path id="Path_1403" data-name="Path 1403" d="M116.535,268.771l.056.194.333-.1.069.264-.333.1.139.458-.291.083-.347-1.166.652-.194.083.25Z" transform="translate(-116.16 -259.028)" fill="#fff"/>
            <path id="Path_1404" data-name="Path 1404" d="M118.109,268.644a.651.651,0,0,1-.444.833.635.635,0,0,1-.819-.458.666.666,0,0,1,1.277-.375m-.958.278a.348.348,0,0,0,.43.25.352.352,0,0,0,.222-.444.326.326,0,0,0-.416-.208.339.339,0,0,0-.236.4" transform="translate(-115.903 -259.11)" fill="#fff"/>
            <path id="Path_1405" data-name="Path 1405" d="M119.079,268.354a.651.651,0,0,1-.444.833.629.629,0,0,1-.819-.458.666.666,0,0,1,1.277-.375m-.958.291a.338.338,0,0,0,.43.25.352.352,0,0,0,.222-.444.326.326,0,0,0-.416-.208.339.339,0,0,0-.236.4" transform="translate(-115.526 -259.222)" fill="#fff"/>
            <path id="Path_1406" data-name="Path 1406" d="M119.512,268.9l-.305.083-.264-.9-.25.069-.083-.25.8-.236.069.25-.25.083Z" transform="translate(-115.21 -259.319)" fill="#fff"/>
            <path id="Path_1407" data-name="Path 1407" d="M119.627,268.838l-.347-1.166.43-.125c.208-.056.361-.028.43.208a.255.255,0,0,1-.056.278h0a.271.271,0,0,1,.319.236c.069.25-.111.389-.319.444l-.458.139Zm.083-.791h.028c.083-.042.153-.069.125-.167s-.125-.083-.208-.056h-.014l.069.236Zm.139.472h.042c.083-.042.236-.069.194-.208s-.18-.083-.278-.056h-.028l.069.264Z" transform="translate(-114.95 -259.372)" fill="#fff"/>
            <path id="Path_1408" data-name="Path 1408" d="M120.533,268.339v.222l-.333.1.1-1.291.333-.1.777,1.041-.319.1-.139-.18-.416.125Zm.028-.666h0v.4l.236-.069-.236-.333Z" transform="translate(-114.593 -259.47)" fill="#fff"/>
            <path id="Path_1409" data-name="Path 1409" d="M121.465,267.992l.361-.1.083.25-.666.194-.333-1.166.291-.083Z" transform="translate(-114.318 -259.54)" fill="#fff"/>
            <path id="Path_1410" data-name="Path 1410" d="M122.059,267.822l.361-.1.069.25-.652.194L121.49,267l.305-.083Z" transform="translate(-114.093 -259.606)" fill="#fff"/>
            <path id="Path_1411" data-name="Path 1411" d="M123.279,266.932a.338.338,0,0,0-.305-.056.321.321,0,0,0-.208.416.314.314,0,0,0,.4.222.385.385,0,0,0,.222-.194l.111.361a1.127,1.127,0,0,1-.25.139.737.737,0,0,1-.486-.042.6.6,0,0,1-.319-.389.683.683,0,0,1,.042-.472.647.647,0,0,1,.375-.319.7.7,0,0,1,.291-.028l.111.361Z" transform="translate(-113.731 -259.743)" fill="#fff"/>
            <path id="Path_1412" data-name="Path 1412" d="M123.679,267.342l.361-.1.083.25-.666.194-.347-1.166.305-.083Z" transform="translate(-113.464 -259.792)" fill="#fff"/>
            <path id="Path_1413" data-name="Path 1413" d="M124.609,266.14l.194.652a.55.55,0,0,1,0,.444.584.584,0,0,1-.347.25.54.54,0,0,1-.416-.014.524.524,0,0,1-.236-.375l-.194-.652.305-.083.18.611c.042.153.1.319.291.25s.153-.222.111-.375l-.18-.611.305-.083Z" transform="translate(-113.27 -259.908)" fill="#fff"/>
            <path id="Path_1414" data-name="Path 1414" d="M124.787,267.318l-.347-1.166.43-.125c.208-.056.361-.028.43.208a.255.255,0,0,1-.056.278h0a.271.271,0,0,1,.319.236c.069.25-.111.389-.319.444l-.458.139Zm.083-.791h.028c.083-.042.153-.069.125-.167s-.125-.083-.208-.056h-.028l.069.236Zm.139.472h.042c.083-.042.236-.069.194-.208s-.18-.083-.278-.056h-.028l.069.264Z" transform="translate(-112.948 -259.962)" fill="#fff"/>
          </g>
        </g>
        <path id="Path_1415" data-name="Path 1415" d="M97.552,112.785H92V79.85h5.552Z" transform="translate(35.255 29.085)" fill="#00397b"/>
      </g>
      <g id="Group_929" data-name="Group 929" transform="translate(267.557 0.25)">
        <g id="Group_926" data-name="Group 926">
          <g id="Group_923" data-name="Group 923" transform="translate(86.618 230.778)">
            <path id="Path_1416" data-name="Path 1416" d="M264.23,167.82h75.057v10.3s22.5,32.574,5,85.216v55.918s-55.654,14.642-88.783,1.069V221s1.235-32.019,8.73-42.33Z" transform="translate(-255.5 -167.82)" fill="#e6e6e6"/>
            <line id="Line_154" data-name="Line 154" x2="75.057" transform="translate(8.73 10.839)" fill="none" stroke="#8f939f" stroke-width="0.46"/>
            <path id="Path_1417" data-name="Path 1417" d="M264.23,167.82h75.057v10.3s22.5,32.574,5,85.216v55.918s-55.654,14.642-88.783,1.069V221s1.235-32.019,8.73-42.33Z" transform="translate(-255.5 -167.82)" fill="none" stroke="#8f939f" stroke-width="0.46"/>
          </g>
          <g id="Group_925" data-name="Group 925">
            <path id="Path_1418" data-name="Path 1418" d="M321.123,13.445c-13.768.056-23.941-8.869-29.1-10.4l-98.929,35.6L208.357,89.2l45.551-2.97V213.662s70.408,30.922,134.611.569V84.644l42.775,4.566,17.432-51.074L349.7,3.341S337.708,13.39,321.123,13.445Z" transform="translate(-193.09 -0.954)" fill="#82cef4"/>
            <g id="Group_924" data-name="Group 924">
              <path id="Path_1419" data-name="Path 1419" d="M321.123,13.525c-13.768.056-23.941-8.869-29.1-10.4L193.09,38.743l15.267,50.533,45.551-2.97v127.45s70.408,30.936,134.611.569V84.71l42.775,4.566L448.725,38.2,349.7,3.394S337.708,13.456,321.123,13.525Z" transform="translate(-193.09 -0.923)" fill="none" stroke="#8f939f" stroke-width="0.42"/>
              <path id="Path_1420" data-name="Path 1420" d="M330.251,5.579,322.84,1.54c-29.631,11.284-56.321,1.235-56.321,1.235-4.636,2.54-9.479,4.608-9.479,4.608s41.151,17.779,73.2-1.79Z" transform="translate(-168.285 -1.54)" fill="#00397b" stroke="#898989" stroke-width="0.25"/>
            </g>
          </g>
        </g>
        <g id="Group_927" data-name="Group 927" transform="translate(60.901 34.739)">
          <line id="Line_155" data-name="Line 155" x1="18.792" y2="52.698" transform="translate(168.767 0)" fill="none" stroke="#8f939f" stroke-width="0.32" stroke-dasharray="0 0.92"/>
          <path id="Path_1421" data-name="Path 1421" d="M371.5,151.72c-14.628,4.025-66.383,26.939-134.528,0" transform="translate(-236.97 21.974)" fill="none" stroke="#8f939f" stroke-width="0.32" stroke-dasharray="0 0.92"/>
        </g>
        <path id="Path_1422" data-name="Path 1422" d="M319.516,7.31c-5.163,2.623-16.433,5.288-26.467,5.288-15.586,0-20.929-2.082-28.549-3.858" transform="translate(-165.391 0.698)" fill="none"/>
        <g id="Group_928" data-name="Group 928" transform="translate(86.618 230.764)">
          <path id="Path_1423" data-name="Path 1423" d="M344.283,311.484v-48.16c17.5-52.656-5-85.216-5-85.216v-10.3H264.23v10.853c-7.495,10.312-8.73,42.33-8.73,42.33v91.934c12.047,4.5,40.887,11.131,88.783-1.443Z" transform="translate(-255.5 -167.81)" fill="#82cef4" stroke="#898989" stroke-width="0.5"/>
          <path id="Path_1424" data-name="Path 1424" d="M255.5,272.773v7.384c33.143,13.573,88.783-1.069,88.783-1.069V271.33c-47.91,12.574-76.736,5.94-88.783,1.443Z" transform="translate(-255.5 -127.656)" fill="#00397b"/>
        </g>
        <path id="Path_1425" data-name="Path 1425" d="M255.12,275.3s38.625,15.5,89.963-1.485" transform="translate(-169.029 104.07)" fill="none" stroke="#8f939f" stroke-width="0.33" stroke-dasharray="0 1.03"/>
        <path id="Path_1426" data-name="Path 1426" d="M235.72,13.35s15.406,33.962,1.4,68.312" transform="translate(-176.554 3.041)" fill="none" stroke="#8f939f" stroke-width="0.41"/>
        <path id="Path_1427" data-name="Path 1427" d="M336.469,13.62S322.4,47.276,335.192,81.307" transform="translate(-140.055 3.146)" fill="none" stroke="#8f939f" stroke-width="0.39"/>
        <path id="Path_1428" data-name="Path 1428" d="M292.108,108.809H279.95V36.75h12.158Z" transform="translate(-159.398 12.117)" fill="#00397b"/>
        <line id="Line_156" data-name="Line 156" x2="15.975" y2="53.295" transform="translate(8.036 34.433)" fill="none" stroke="#8f939f" stroke-width="0.33" stroke-dasharray="0 0.95"/>
      </g>
    </g>
    <g id="Group_933" data-name="Group 933" transform="translate(362.452 232.651)">
      <g id="Group_932" data-name="Group 932" clip-path="url(#clip-path-2)">
        <g id="Group_931" data-name="Group 931" transform="translate(-28.526 -7.55)">
          <path id="Path_1429" data-name="Path 1429" d="M333.522,187.293,331.01,162.38" transform="translate(-205.961 -162.38)" fill="none" stroke="#8f939f" stroke-linecap="round" stroke-linejoin="round" stroke-width="0.23"/>
          <path id="Path_1430" data-name="Path 1430" d="M331.889,187.293,329.46,162.38" transform="translate(-206.562 -162.38)" fill="none" stroke="#8f939f" stroke-linecap="round" stroke-linejoin="round" stroke-width="0.23"/>
          <path id="Path_1431" data-name="Path 1431" d="M330.263,187.293,327.89,162.38" transform="translate(-207.171 -162.38)" fill="none" stroke="#8f939f" stroke-linecap="round" stroke-linejoin="round" stroke-width="0.23"/>
          <path id="Path_1432" data-name="Path 1432" d="M328.62,187.293l-2.29-24.913" transform="translate(-207.777 -162.38)" fill="none" stroke="#8f939f" stroke-linecap="round" stroke-linejoin="round" stroke-width="0.23"/>
          <path id="Path_1433" data-name="Path 1433" d="M326.991,187.293,324.77,162.38" transform="translate(-208.382 -162.38)" fill="none" stroke="#8f939f" stroke-linecap="round" stroke-linejoin="round" stroke-width="0.23"/>
          <path id="Path_1434" data-name="Path 1434" d="M325.353,187.293,323.23,162.38" transform="translate(-208.979 -162.38)" fill="none" stroke="#8f939f" stroke-linecap="round" stroke-linejoin="round" stroke-width="0.23"/>
          <path id="Path_1435" data-name="Path 1435" d="M323.714,187.293,321.66,162.38" transform="translate(-209.588 -162.38)" fill="none" stroke="#8f939f" stroke-linecap="round" stroke-linejoin="round" stroke-width="0.23"/>
          <path id="Path_1436" data-name="Path 1436" d="M322.081,187.293,320.11,162.38" transform="translate(-210.189 -162.38)" fill="none" stroke="#8f939f" stroke-linecap="round" stroke-linejoin="round" stroke-width="0.23"/>
          <path id="Path_1437" data-name="Path 1437" d="M320.465,187.293,318.55,162.38" transform="translate(-210.794 -162.38)" fill="none" stroke="#8f939f" stroke-linecap="round" stroke-linejoin="round" stroke-width="0.23"/>
          <path id="Path_1438" data-name="Path 1438" d="M318.818,187.293,317,162.38" transform="translate(-211.396 -162.38)" fill="none" stroke="#8f939f" stroke-linecap="round" stroke-linejoin="round" stroke-width="0.23"/>
          <path id="Path_1439" data-name="Path 1439" d="M317.185,187.293,315.45,162.38" transform="translate(-211.997 -162.38)" fill="none" stroke="#8f939f" stroke-linecap="round" stroke-linejoin="round" stroke-width="0.23"/>
          <path id="Path_1440" data-name="Path 1440" d="M315.542,187.293,313.89,162.38" transform="translate(-212.602 -162.38)" fill="none" stroke="#8f939f" stroke-linecap="round" stroke-linejoin="round" stroke-width="0.23"/>
          <path id="Path_1441" data-name="Path 1441" d="M313.9,187.293,312.32,162.38" transform="translate(-213.211 -162.38)" fill="none" stroke="#8f939f" stroke-linecap="round" stroke-linejoin="round" stroke-width="0.23"/>
          <path id="Path_1442" data-name="Path 1442" d="M312.3,187.293,310.77,162.38" transform="translate(-213.812 -162.38)" fill="none" stroke="#8f939f" stroke-linecap="round" stroke-linejoin="round" stroke-width="0.23"/>
          <path id="Path_1443" data-name="Path 1443" d="M310.65,187.293l-1.43-24.913" transform="translate(-214.413 -162.38)" fill="none" stroke="#8f939f" stroke-linecap="round" stroke-linejoin="round" stroke-width="0.23"/>
          <path id="Path_1444" data-name="Path 1444" d="M309.02,187.293l-1.36-24.913" transform="translate(-215.018 -162.38)" fill="none" stroke="#8f939f" stroke-linecap="round" stroke-linejoin="round" stroke-width="0.23"/>
          <path id="Path_1445" data-name="Path 1445" d="M307.377,187.293,306.1,162.38" transform="translate(-215.624 -162.38)" fill="none" stroke="#8f939f" stroke-linecap="round" stroke-linejoin="round" stroke-width="0.23"/>
          <path id="Path_1446" data-name="Path 1446" d="M305.747,187.293,304.54,162.38" transform="translate(-216.229 -162.38)" fill="none" stroke="#8f939f" stroke-linecap="round" stroke-linejoin="round" stroke-width="0.23"/>
          <path id="Path_1447" data-name="Path 1447" d="M304.1,187.293,302.98,162.38" transform="translate(-216.834 -162.38)" fill="none" stroke="#8f939f" stroke-linecap="round" stroke-linejoin="round" stroke-width="0.23"/>
          <path id="Path_1448" data-name="Path 1448" d="M302.471,187.293,301.43,162.38" transform="translate(-217.435 -162.38)" fill="none" stroke="#8f939f" stroke-linecap="round" stroke-linejoin="round" stroke-width="0.23"/>
          <path id="Path_1449" data-name="Path 1449" d="M300.842,187.293l-.972-24.913" transform="translate(-218.04 -162.38)" fill="none" stroke="#8f939f" stroke-linecap="round" stroke-linejoin="round" stroke-width="0.23"/>
          <path id="Path_1450" data-name="Path 1450" d="M299.212,187.293l-.9-24.913" transform="translate(-218.645 -162.38)" fill="none" stroke="#8f939f" stroke-linecap="round" stroke-linejoin="round" stroke-width="0.23"/>
          <path id="Path_1451" data-name="Path 1451" d="M297.565,187.293l-.8-24.913" transform="translate(-219.246 -162.38)" fill="none" stroke="#8f939f" stroke-linecap="round" stroke-linejoin="round" stroke-width="0.23"/>
          <path id="Path_1452" data-name="Path 1452" d="M295.949,187.293,295.2,162.38" transform="translate(-219.852 -162.38)" fill="none" stroke="#8f939f" stroke-linecap="round" stroke-linejoin="round" stroke-width="0.23"/>
          <path id="Path_1453" data-name="Path 1453" d="M294.306,187.293l-.666-24.913" transform="translate(-220.457 -162.38)" fill="none" stroke="#8f939f" stroke-linecap="round" stroke-linejoin="round" stroke-width="0.23"/>
          <path id="Path_1454" data-name="Path 1454" d="M292.673,187.293l-.583-24.913" transform="translate(-221.058 -162.38)" fill="none" stroke="#8f939f" stroke-linecap="round" stroke-linejoin="round" stroke-width="0.23"/>
          <path id="Path_1455" data-name="Path 1455" d="M291.04,187.293l-.5-24.913" transform="translate(-221.659 -162.38)" fill="none" stroke="#8f939f" stroke-linecap="round" stroke-linejoin="round" stroke-width="0.23"/>
          <path id="Path_1456" data-name="Path 1456" d="M289.4,187.293l-.43-24.913" transform="translate(-222.268 -162.38)" fill="none" stroke="#8f939f" stroke-linecap="round" stroke-linejoin="round" stroke-width="0.23"/>
          <path id="Path_1457" data-name="Path 1457" d="M287.785,187.293l-.375-24.913" transform="translate(-222.873 -162.38)" fill="none" stroke="#8f939f" stroke-linecap="round" stroke-linejoin="round" stroke-width="0.23"/>
          <path id="Path_1458" data-name="Path 1458" d="M286.138,187.293l-.278-24.913" transform="translate(-223.474 -162.38)" fill="none" stroke="#8f939f" stroke-linecap="round" stroke-linejoin="round" stroke-width="0.23"/>
          <path id="Path_1459" data-name="Path 1459" d="M284.508,187.293,284.3,162.38" transform="translate(-224.079 -162.38)" fill="none" stroke="#8f939f" stroke-linecap="round" stroke-linejoin="round" stroke-width="0.23"/>
          <path id="Path_1460" data-name="Path 1460" d="M282.861,187.293l-.111-24.913" transform="translate(-224.681 -162.38)" fill="none" stroke="#8f939f" stroke-linecap="round" stroke-linejoin="round" stroke-width="0.23"/>
          <path id="Path_1461" data-name="Path 1461" d="M281.232,187.293l-.042-24.913" transform="translate(-225.286 -162.38)" fill="none" stroke="#8f939f" stroke-linecap="round" stroke-linejoin="round" stroke-width="0.23"/>
          <path id="Path_1462" data-name="Path 1462" d="M279.61,187.293l.028-24.913" transform="translate(-225.899 -162.38)" fill="none" stroke="#8f939f" stroke-linecap="round" stroke-linejoin="round" stroke-width="0.23"/>
          <path id="Path_1463" data-name="Path 1463" d="M277.99,187.293l.111-24.913" transform="translate(-226.527 -162.38)" fill="none" stroke="#8f939f" stroke-linecap="round" stroke-linejoin="round" stroke-width="0.23"/>
          <path id="Path_1464" data-name="Path 1464" d="M276.38,187.293l.194-24.913" transform="translate(-227.152 -162.38)" fill="none" stroke="#8f939f" stroke-linecap="round" stroke-linejoin="round" stroke-width="0.23"/>
          <path id="Path_1465" data-name="Path 1465" d="M274.77,187.293l.264-24.913" transform="translate(-227.776 -162.38)" fill="none" stroke="#8f939f" stroke-linecap="round" stroke-linejoin="round" stroke-width="0.23"/>
          <path id="Path_1466" data-name="Path 1466" d="M273.15,187.293l.347-24.913" transform="translate(-228.404 -162.38)" fill="none" stroke="#8f939f" stroke-linecap="round" stroke-linejoin="round" stroke-width="0.23"/>
          <path id="Path_1467" data-name="Path 1467" d="M271.55,187.293l.416-24.913" transform="translate(-229.025 -162.38)" fill="none" stroke="#8f939f" stroke-linecap="round" stroke-linejoin="round" stroke-width="0.23"/>
          <path id="Path_1468" data-name="Path 1468" d="M269.93,187.293l.5-24.913" transform="translate(-229.653 -162.38)" fill="none" stroke="#8f939f" stroke-linecap="round" stroke-linejoin="round" stroke-width="0.23"/>
          <path id="Path_1469" data-name="Path 1469" d="M268.32,187.293l.583-24.913" transform="translate(-230.278 -162.38)" fill="none" stroke="#8f939f" stroke-linecap="round" stroke-linejoin="round" stroke-width="0.23"/>
          <path id="Path_1470" data-name="Path 1470" d="M266.7,187.293l.652-24.913" transform="translate(-230.906 -162.38)" fill="none" stroke="#8f939f" stroke-linecap="round" stroke-linejoin="round" stroke-width="0.23"/>
          <path id="Path_1471" data-name="Path 1471" d="M265.09,187.293l.736-24.913" transform="translate(-231.531 -162.38)" fill="none" stroke="#8f939f" stroke-linecap="round" stroke-linejoin="round" stroke-width="0.23"/>
          <path id="Path_1472" data-name="Path 1472" d="M263.48,187.293l.8-24.913" transform="translate(-232.155 -162.38)" fill="none" stroke="#8f939f" stroke-linecap="round" stroke-linejoin="round" stroke-width="0.23"/>
          <path id="Path_1473" data-name="Path 1473" d="M261.87,187.293l.888-24.913" transform="translate(-232.78 -162.38)" fill="none" stroke="#8f939f" stroke-linecap="round" stroke-linejoin="round" stroke-width="0.23"/>
          <path id="Path_1474" data-name="Path 1474" d="M260.26,187.293l.958-24.913" transform="translate(-233.404 -162.38)" fill="none" stroke="#8f939f" stroke-linecap="round" stroke-linejoin="round" stroke-width="0.23"/>
          <path id="Path_1475" data-name="Path 1475" d="M258.64,187.293l1.027-24.913" transform="translate(-234.033 -162.38)" fill="none" stroke="#8f939f" stroke-linecap="round" stroke-linejoin="round" stroke-width="0.23"/>
          <path id="Path_1476" data-name="Path 1476" d="M257.02,187.293l1.124-24.913" transform="translate(-234.661 -162.38)" fill="none" stroke="#8f939f" stroke-linecap="round" stroke-linejoin="round" stroke-width="0.23"/>
          <path id="Path_1477" data-name="Path 1477" d="M255.42,187.293l1.194-24.913" transform="translate(-235.282 -162.38)" fill="none" stroke="#8f939f" stroke-linecap="round" stroke-linejoin="round" stroke-width="0.23"/>
          <path id="Path_1478" data-name="Path 1478" d="M253.8,187.293l1.263-24.913" transform="translate(-235.91 -162.38)" fill="none" stroke="#8f939f" stroke-linecap="round" stroke-linejoin="round" stroke-width="0.23"/>
          <path id="Path_1479" data-name="Path 1479" d="M252.2,187.293l1.332-24.913" transform="translate(-236.531 -162.38)" fill="none" stroke="#8f939f" stroke-linecap="round" stroke-linejoin="round" stroke-width="0.23"/>
          <path id="Path_1480" data-name="Path 1480" d="M250.59,187.293l1.416-24.913" transform="translate(-237.155 -162.38)" fill="none" stroke="#8f939f" stroke-linecap="round" stroke-linejoin="round" stroke-width="0.23"/>
          <path id="Path_1481" data-name="Path 1481" d="M248.97,187.293l1.5-24.913" transform="translate(-237.784 -162.38)" fill="none" stroke="#8f939f" stroke-linecap="round" stroke-linejoin="round" stroke-width="0.23"/>
          <path id="Path_1482" data-name="Path 1482" d="M247.35,187.293l1.582-24.913" transform="translate(-238.412 -162.38)" fill="none" stroke="#8f939f" stroke-linecap="round" stroke-linejoin="round" stroke-width="0.23"/>
          <path id="Path_1483" data-name="Path 1483" d="M245.75,187.293l1.638-24.913" transform="translate(-239.033 -162.38)" fill="none" stroke="#8f939f" stroke-linecap="round" stroke-linejoin="round" stroke-width="0.23"/>
          <path id="Path_1484" data-name="Path 1484" d="M244.13,187.293l1.735-24.913" transform="translate(-239.661 -162.38)" fill="none" stroke="#8f939f" stroke-linecap="round" stroke-linejoin="round" stroke-width="0.23"/>
          <path id="Path_1485" data-name="Path 1485" d="M242.52,187.293l1.818-24.913" transform="translate(-240.285 -162.38)" fill="none" stroke="#8f939f" stroke-linecap="round" stroke-linejoin="round" stroke-width="0.23"/>
          <path id="Path_1486" data-name="Path 1486" d="M240.91,187.293,242.8,162.38" transform="translate(-240.91 -162.38)" fill="none" stroke="#8f939f" stroke-linecap="round" stroke-linejoin="round" stroke-width="0.23"/>
        </g>
      </g>
      <path id="Path_1488" data-name="Path 1488" d="M261.917,167.82h75.057a46.564,46.564,0,0,1,.056,10.923H261.861A34.617,34.617,0,0,1,261.917,167.82Z" transform="translate(-261.464 -167.82)" fill="none" stroke="#8f939f" stroke-width="0.68"/>
    </g>
    <path id="Path_1489" data-name="Path 1489" d="M132.354,37.917c-9.3.028-17.265-15.114-23.15-25.926-3.053-5.635-5.552-10.09-7.37-10.631L.31,37.889,16.049,89.768l46.689-3.039V217.537S135,249.278,200.9,218.12V85.091l43.913,4.677,17.973-52.393L161.055,1.624S149.369,37.848,132.368,37.9Z" transform="translate(-0.31 0.264)" fill="none" stroke="#898989" stroke-width="0.5"/>
    <g id="Group_934" data-name="Group 934" transform="translate(104.577 0)">
      <path id="Path_1490" data-name="Path 1490" d="M76.534,3.31s24.2,11.714,49.617.1c0,0-3.539,27.619-24.593,33.726,0,0-22.373-8.855-25.038-33.809Z" transform="translate(-75.326 1.02)" stroke="#8f939f" stroke-width="0.71" fill="url(#linear-gradient)"/>
      <path id="Path_1491" data-name="Path 1491" d="M126.651,8.143,128.428.19S101,10.377,75.66.2l1.624,7.758s20.555,10.451,49.367.18Z" transform="translate(-75.66 -0.19)" fill="#00397b" stroke="#898989" stroke-width="0.25"/>
    </g>
    <path id="Path_1492" data-name="Path 1492" d="M131.624.732c-.444-.1-.874-.208-1.263-.291a52.966,52.966,0,0,1-2.47,10.534,47.244,47.244,0,0,1-7.814,14.281c-3.817,4.33-8.869,7.4-15.475,7.4-18.1,0-24.468-21.97-25.759-32.324l-.819.153a.313.313,0,0,0-.014-.1l-3.442.736-.25.042h0L68.85,2.329s7.411,39.111,35.766,39.111c0,0,27.272,1.4,35.835-39.111L131.638.719Z" transform="translate(26.276 -0.136)" fill="#00397b" stroke="#898989" stroke-width="0.25"/>
    <path id="Path_1493" data-name="Path 1493" d="M120.337,15.31l8.7,4.733s-24.621,36.321-53.739,0l7.966-4.983s19.4,26.869,37.07.25Z" transform="translate(28.778 5.578)" fill="#82cef4" stroke="#898989" stroke-width="0.25"/>
  </g>
</svg>
