<svg id="レイヤー_1" data-name="レイヤー 1" xmlns="http://www.w3.org/2000/svg" width="155.087" height="216.843" viewBox="0 0 155.087 216.843">
  <g id="Group_508" data-name="Group 508">
    <g id="Group_504" data-name="Group 504" transform="translate(0 40.963)">
      <path id="Path_507" data-name="Path 507" d="M19.671,122.077a1.552,1.552,0,0,0-2.429,1.281V192.97A60.464,60.464,0,0,0,50.423,246.86a2.324,2.324,0,0,1,1.276,2.076v14.955a1.55,1.55,0,0,1-2.1,1.45,77.325,77.325,0,0,1-26.609-17.269A78.282,78.282,0,0,1,0,192.39V91.123a1.551,1.551,0,0,1,2.429-1.281l98.522,67.326a1.552,1.552,0,0,0,2.429-1.281v-29.9a1.945,1.945,0,0,1,1.944-1.944h13.359a1.945,1.945,0,0,1,1.944,1.944v62.131A1.552,1.552,0,0,1,118.2,189.4Z" transform="translate(0 -89.567)" fill="#fff"/>
      <path id="Path_508" data-name="Path 508" d="M92.587,225.029a1.156,1.156,0,0,1-1.9.892A43,43,0,0,1,75.35,192.987V156.674a1.556,1.556,0,0,1,2.433-1.281l92.7,63.343a1.939,1.939,0,0,0,2.863-.8,60.2,60.2,0,0,0,5.392-24.953v-84.2a1.945,1.945,0,0,0-1.944-1.944H146.216a1.945,1.945,0,0,1-1.944-1.944V91.534a1.945,1.945,0,0,1,1.944-1.944h47.816a1.945,1.945,0,0,1,1.944,1.944v101.44a77.372,77.372,0,0,1-9.289,36.826q-1.118,2.079-2.378,4.1a78.074,78.074,0,0,1-5.854,8.177,2.327,2.327,0,0,1-3.11.439l-12.614-8.621-67.715-46.27a1.552,1.552,0,0,0-2.429,1.281V225.02Z" transform="translate(-40.889 -89.58)" fill="#fff"/>
    </g>
    <g id="Group_507" data-name="Group 507" transform="translate(0.005)">
      <g id="Group_505" data-name="Group 505" transform="translate(9.371)">
        <path id="Path_509" data-name="Path 509" d="M28.627,28.127V18.088L24.291,10.88V28.122H20.5V1.18h3.791V4.432l4.336,7.263V1.18h3.791V28.122H28.627Z" transform="translate(-20.5 -0.64)" fill="#fff"/>
        <path id="Path_510" data-name="Path 510" d="M54.86,28.127V1.18h3.791V28.122H54.86Z" transform="translate(-39.146 -0.64)" fill="#fff"/>
        <path id="Path_511" data-name="Path 511" d="M75.385,27.922A6.06,6.06,0,0,1,70.56,21.94V17.9h3.791v4.1a2.218,2.218,0,0,0,2.012,2.241,2.175,2.175,0,0,0,2.323-2.163V18.144a.647.647,0,0,0-.165-.43L71.214,9.459A2.614,2.614,0,0,1,70.56,7.73V6.1a5.962,5.962,0,1,1,11.923-.133V7.652H78.692V6.033a2.207,2.207,0,0,0-1.825-2.2,2.174,2.174,0,0,0-2.511,2.14V7.392a.647.647,0,0,0,.165.43l7.308,8.255a2.614,2.614,0,0,1,.654,1.729v4.272a6,6,0,0,1-7.1,5.849Z" transform="translate(-47.665 -0.006)" fill="#fff"/>
        <path id="Path_512" data-name="Path 512" d="M112.167,28.127V14.283h-4.336V28.127H104.04V1.18h3.791v9.307h4.336V1.18h3.791V28.122h-3.791Z" transform="translate(-65.833 -0.64)" fill="#fff"/>
        <path id="Path_513" data-name="Path 513" d="M138.39,28.127V1.18h3.791V28.122H138.39Z" transform="translate(-84.473 -0.64)" fill="#fff"/>
        <path id="Path_514" data-name="Path 514" d="M163.107,28.127V18.088l-4.336-7.208V28.122H154.98V1.18h3.791V4.432l4.336,7.263V1.18H166.9V28.122h-3.791Z" transform="translate(-93.476 -0.64)" fill="#fff"/>
        <path id="Path_515" data-name="Path 515" d="M195.3,28.026a6.01,6.01,0,0,1-5.959-5.959V5.959a5.959,5.959,0,0,1,11.919,0V22.067A6.01,6.01,0,0,1,195.3,28.026Zm2.168-22.067a2.168,2.168,0,0,0-4.336,0V22.067a2.168,2.168,0,0,0,4.336,0Z" transform="translate(-112.121)" fill="#fff"/>
        <path id="Path_516" data-name="Path 516" d="M234.535,28.127V12.993l-3.522,8.777-3.522-8.777V28.127H223.7V1.18h3.791V4.432l3.522,8.886,3.522-8.886V1.18h3.791V28.122h-3.791Z" transform="translate(-130.767 -0.64)" fill="#fff"/>
        <path id="Path_517" data-name="Path 517" d="M263.97,28.127V1.18h3.791V28.122H263.97Z" transform="translate(-152.619 -0.64)" fill="#fff"/>
        <path id="Path_518" data-name="Path 518" d="M287.537,17.42v10.7h-3.791V17.42l-4.066-6.773V1.18h3.791V9.563l2.168,3.631,2.168-3.631V1.18H291.6v9.467l-4.066,6.773Z" transform="translate(-161.144 -0.64)" fill="#fff"/>
        <path id="Path_519" data-name="Path 519" d="M321.107,27.487V17.434h-4.336V27.487H312.98V5.959a5.959,5.959,0,1,1,11.918,0V27.482h-3.791Zm0-21.523a2.168,2.168,0,0,0-4.336,0v7.679h4.336V5.959Z" transform="translate(-179.215)" fill="#fff"/>
      </g>
      <g id="Group_506" data-name="Group 506" transform="translate(0 0.54)">
        <path id="Path_520" data-name="Path 520" d="M5.59,34.67V31.99H2.8A2.816,2.816,0,0,0,.01,34.78v7.542a2.813,2.813,0,0,0,2.79,2.79,2.816,2.816,0,0,0,2.79-2.79V41.85H3.815v.471a1.015,1.015,0,0,1-2.031,0V34.78A1.019,1.019,0,0,1,2.8,33.765H3.815v.9H5.59Z" transform="translate(-0.01 -17.899)" fill="#fff"/>
        <path id="Path_521" data-name="Path 521" d="M2.725,7.3H5.6V5.529H2.725V2.955H6.1V1.18H.95V13.771H2.725Z" transform="translate(-0.52 -1.18)" fill="#fff"/>
      </g>
    </g>
  </g>
</svg>
