<svg xmlns="http://www.w3.org/2000/svg" width="708.56" height="250.56" viewBox="0 0 708.56 250.56">
  <path id="Path_2364" data-name="Path 2364" d="M62.24-24.48A86.154,86.154,0,0,0,56-32.08a98.842,98.842,0,0,0,2-14.8h2.72c.08,13.84.96,21.36,3.2,26.96,1.92,4.88,4.32,7.28,7.36,7.28,2.4,0,4.48-1.84,5.6-4.88,1.28-3.68,1.84-7.36,2.32-15.68a19.407,19.407,0,0,1-5.68-3.76c-.08,7.2-.32,9.68-.96,11.76-1.12-3.92-1.84-11.68-1.84-20.4v-7.44a32.982,32.982,0,0,1,.32-4.8,64.926,64.926,0,0,1-7.28.32h-4.4c.16-7.84.16-8.48.48-10.4H47.76a46.436,46.436,0,0,1,.48,8.8,14.523,14.523,0,0,1-.08,1.6H47.2a41.976,41.976,0,0,1-5.12-.24v11.2a29.129,29.129,0,0,1,4.96-.32H48a58.111,58.111,0,0,1-.56,6.24l-3.2-2.96-.96,2a19.284,19.284,0,0,1-6.16-1.76c-.08,2.32-.24,2.64-1.52,2.64-.8,0-.96-.16-.96-.88v-2.08a39.88,39.88,0,0,1,5.84.32v-9.52a41.709,41.709,0,0,1-6.24.32H28.16v-2.56H33.6c2.56,0,3.92.08,5.52.16v-9.2a38.972,38.972,0,0,1-6.88.4H28.16v-.8A15.248,15.248,0,0,1,28.48-68H17.12a12.636,12.636,0,0,1,.4,3.44v.8H12.48a41.078,41.078,0,0,1-6.64-.4v9.2a57.657,57.657,0,0,1,5.84-.16h5.84v2.56h-8a43.1,43.1,0,0,1-6.24-.32v9.52a43.258,43.258,0,0,1,5.92-.32h.96c-1.52,2.96-3.6,4.32-8.88,6a30.545,30.545,0,0,1,4.4,8.48c1.44-.64,1.92-.88,2.88-1.28v5.28a46.624,46.624,0,0,1,4.72-.24h4.16v3.2c-5.36.32-8.64.4-12.4.4a7.605,7.605,0,0,1-1.12-.08h-.8l1.84,11.2c1.52-.32,3.36-.56,7.2-.96C9.6-6.72,7.44-4.16,2.16.08l10,7.68c4.8-4.88,7.12-8.32,10.4-15.28l-8.72-4.4c10.4-1.12,11.2-1.2,24.08-2.96v-2.96a57.259,57.259,0,0,1,6.4,8A39.32,39.32,0,0,0,52-20.48c1.44,2,2.32,3.2,4.48,6.24Zm-24.32.64c-1.76.16-5.36.48-10.64.96v-2.56h4.96a43.66,43.66,0,0,1,5.04.16v-8.64c-1.2.08-2.24.16-4.88.16h-6V-35.6a29.141,29.141,0,0,1,.24-4.64H18.08a28.625,28.625,0,0,1,.24,4.56v1.92H13.2a18.506,18.506,0,0,0,6-9.92h8v4c0,3.76,1.28,4.64,6.72,4.64,3.68,0,5.68-.24,6.72-.8l-.96,2.16c2.32,2.08,3.28,3.04,4.72,4.4a26.638,26.638,0,0,1-6.48,8.96Zm-.4,30.16A98.736,98.736,0,0,0,36.16-9.6L25.2-8.64c.4,5.04.56,7.92.56,12.88,0,.64,0,1.6-.08,2.88Zm18.96-1.6A88.827,88.827,0,0,0,51.92-10.4L40.96-8.24A72.711,72.711,0,0,1,44.72,7.2Zm21.28-3.6a99.623,99.623,0,0,0-11.2-14.16L56.64-8.32A72.019,72.019,0,0,1,66.56,7.2Zm51.28-69.28a28.907,28.907,0,0,1-4,4.64C119.52-58,114.64-53.84,104-45.84c-4.96,3.76-6.16,4.8-7.28,6a11.7,11.7,0,0,0-2.96,7.68,13.079,13.079,0,0,0,1.2,5.28c1.04,2,2.48,3.44,6.48,6.56,13.92,10.8,16.72,13.12,23.6,19.6A60.161,60.161,0,0,1,132.96,8L144.4-3.68c-1.28-1.12-2-1.68-2.48-2.08-8.88-7.76-15.68-13.28-24.4-19.6C110-30.88,110-30.88,110-31.84c0-.72.48-1.2,2.64-2.8,8.48-6.24,14.96-11.44,19.6-15.52,7.44-6.64,8.24-7.36,10.16-8.56Zm53.12.8a53.423,53.423,0,0,1-1.2,9.52,27.491,27.491,0,0,0-.72,3.36c-1.6.08-2,.08-2.88.08a65.4,65.4,0,0,1-11.68-.8v12.8h3.12c1.84.08,1.84.08,3.68.08h4.48c-3.6,11.28-9.12,22.64-14.8,30.24L175.2-4.96a32.334,32.334,0,0,1,1.52-3.12c3.12-6.24,3.84-7.68,5.52-11.36a164.478,164.478,0,0,0,8.72-23.2c2-.16,6.4-.56,8.56-.8,4-.48,4-.48,5.92-.64l-.24-12.96a61.573,61.573,0,0,1-11.12,1.92c.4-1.84.56-2.56.96-4.48.96-4.96,1.04-4.96,1.52-6.4ZM237.6-47.84c-7.44-4.32-14-7.2-24.08-10.8L206.88-47.6a113.19,113.19,0,0,1,24.88,11.52Zm-.72,36.64c-2.4-1.92-3.68-2.96-3.92-3.12a58.59,58.59,0,0,0-12.32-7.12,71.243,71.243,0,0,1-.64-9.28,37.173,37.173,0,0,1,.88-9.04l-13.2-.56c-.32,3.6-.48,6.16-.48,9.44,0,1.84.08,3.36.32,6.4a32.745,32.745,0,0,0-5.6-.48c-11.12,0-18.88,6.48-18.88,15.76a13.972,13.972,0,0,0,4,9.92C190.32,4.08,195.76,6,202.16,6s12-1.84,15.12-4.96c2.16-2.24,3.12-4.56,3.36-8.32a42.843,42.843,0,0,1,10.32,8.72Zm-29.12-1.36a8.144,8.144,0,0,1,.16,1.76c0,3.36-2.08,5.12-6.08,5.12-3.44,0-5.68-1.52-5.68-3.84,0-2.48,2.4-4.08,6.16-4.08A13.906,13.906,0,0,1,207.76-12.56Zm40,7.52c.96-1.6,2.24-3.2,7.92-10v8.4a81.409,81.409,0,0,1-.72,12.24l14.48-.08c-.4-3.12-.64-11.28-.64-22.64,0-2.32,0-4.64.08-8.4a75.609,75.609,0,0,1,13.84-12.32c2.88-2.08,5.68-3.28,7.6-3.28a2.084,2.084,0,0,1,2.32,2.24,49.5,49.5,0,0,1-1.44,8.24c-2.72,12-3.52,16.8-3.52,21.28,0,7.84,4.88,12.88,12.56,12.88S313.12-.32,319.28-10.4a49.858,49.858,0,0,1-6.72-12.88,47.637,47.637,0,0,1-4.8,8.56c-1.52,2.24-3.2,3.6-4.4,3.6s-1.92-.88-1.92-2.32c0-2,.96-7.04,3.44-17.12,1.6-6.72,2.08-9.36,2.08-12.08,0-7.52-5.12-12.48-12.88-12.48-7.04,0-15.28,4.48-25.28,13.76a11.829,11.829,0,0,0,.08-1.76l.08-1.12A28.909,28.909,0,0,1,274-49.68l-4.4-4.16a114,114,0,0,1,.96-11.84L256.4-66a34.622,34.622,0,0,1,.32,5.28c0,1.84-.08,3.84-.16,5.52a21.139,21.139,0,0,1-.08,2.56c-3.36.24-6.72.4-8.72.4-1.36,0-2.32-.08-4.16-.24l.64,12.64c2.96-.48,2.96-.48,11.92-1.04-.08,5.2-.16,7.52-.24,8.8-.4.48-3.36,3.36-8.72,8.8a61,61,0,0,1-5.6,4.88Zm87.2-45.36c1.6-.16,3.12-.32,5.28-.4,11.28-.56,14.48-.72,18.72-1.2-9.92,9.84-26.8,22.96-34.16,26.4l7.44,12.16a59.488,59.488,0,0,1,7.68-6,46,46,0,0,1,24.64-7.36c8.88,0,14.32,3.44,14.32,9.04,0,4.08-2,6.8-6.32,8.72a18.819,18.819,0,0,0-3.68-6.32,18.764,18.764,0,0,0-14.32-6.16c-9.28,0-15.92,5.36-15.92,12.8,0,8.88,8.24,14.24,21.76,14.24,8,0,15.68-1.84,21.2-5.04,7.28-4.32,11.04-10.72,11.04-18.8,0-5.76-2-10.4-5.84-13.84-4.24-3.68-9.6-5.44-17.12-5.44a38.274,38.274,0,0,0-10.96,1.44c5.36-3.92,6.8-5.12,11.04-8.72,10.8-9.28,10.8-9.28,12.88-10.48l-6.56-9.68c-1.52.64-2.56.88-6.08,1.12-8.08.64-16.96.96-24.08.96a89.528,89.528,0,0,1-11.52-.56ZM360.64-5.44A12.142,12.142,0,0,1,358-5.2c-4.32,0-6.88-1.36-6.88-3.52,0-1.6,1.28-2.64,3.12-2.64C357.36-11.36,359.6-9.28,360.64-5.44Zm83.52-49.04H432.32a59.7,59.7,0,0,1-7.6-.32,56.821,56.821,0,0,1,.32,7.12v25.44a86.532,86.532,0,0,1-.4,10.08h12v-3.76h7.52v12.8a70.11,70.11,0,0,1-.48,10.4h12.88a70.762,70.762,0,0,1-.48-10.4v-12.8h7.36v3.6h12.64a61.286,61.286,0,0,1-.48-9.84V-47.12a54.161,54.161,0,0,1,.4-7.76,52.643,52.643,0,0,1-7.52.4h-12.4v-2.88a68.348,68.348,0,0,1,.48-10.24H443.68a67.077,67.077,0,0,1,.48,10.24Zm0,11.12v16.4h-7.28v-16.4Zm11.92,16.4v-16.4h7.36v16.4ZM409.68-1.92a69.442,69.442,0,0,1-.48,9.2H422a84.147,84.147,0,0,1-.48-9.2V-47.76a128.756,128.756,0,0,0,5.52-13.2c.96-2.8.96-2.88,1.52-4.48l-12.8-3.6a51.2,51.2,0,0,1-2.8,10.4A54.465,54.465,0,0,1,401.12-39.2a88.764,88.764,0,0,1,4.08,14.72,45.005,45.005,0,0,0,4.64-5.84c-.16,5.12-.16,6.48-.16,8ZM537.2-26.96c0-3.04.08-4.96.24-6.8-2.16.16-3.92.24-6.96.24H509.52c-2.88,0-4.8-.08-6.96-.24.16,1.92.24,4,.24,6.8V-5.6c0,3.12-.08,6-.32,8.48h11.36V-.48h19.28a62.438,62.438,0,0,1,1.2,6.88c4.72.16,4.96.16,6,.16,12.16,0,14.56-1.84,14.56-11.36V-56.88c0-4.24.08-6.32.32-9.04a70.4,70.4,0,0,1-8.08.32H529.68a69.316,69.316,0,0,1-8.16-.32c.16,2.4.24,4.4.24,7.36V-44c0,4.16,0,4.88-.16,7.04,1.68-.08,4.4-.16,6.56-.16h14.88v30.4c0,1.76-.16,1.84-4.48,1.84a11.911,11.911,0,0,1-1.36-.08v-22ZM532.96-57.2h10.08v2.8H532.96Zm0,9.36h10.08v2.88H532.96ZM513.84-24.32h12.32v3.2H513.84Zm0,11.2h12.32v3.28H513.84ZM497.2-37.2h14.16c2.4,0,4.8.08,6.56.16a69.228,69.228,0,0,1-.16-6.96V-58.56c0-3.12.08-4.96.24-7.36a65.08,65.08,0,0,1-8.16.32h-16.8a71.3,71.3,0,0,1-8.08-.32,89.954,89.954,0,0,1,.32,9.2V-3.84a82.848,82.848,0,0,1-.48,10.8h12.88a83.094,83.094,0,0,1-.48-10.72Zm0-20h9.52v2.8H497.2Zm0,9.36h9.52v2.88H497.2Zm74.96,21.12a59.035,59.035,0,0,1,10-2.8c8.96-2,15.6-2.96,20.96-2.96,7.28,0,11.52,2.96,11.52,8a11.313,11.313,0,0,1-.96,4.72c-1.6,3.68-6,6.96-11.44,8.64A63.5,63.5,0,0,1,582.8-8.48a35.32,35.32,0,0,1,4.88,12.8c11.2-1.28,12.64-1.52,18.16-3.2C620.08-3.2,628-12.32,628-24.56c0-6.4-2.32-11.68-6.64-15.12s-9.68-4.96-17.52-4.96c-6.48,0-14.08.96-25.12,3.2-6.4,1.2-6.4,1.2-9.2,1.52Zm69.52-16.96a47.48,47.48,0,0,1,6.88-1.04l27.68-2.48c-3.84,2.64-5.76,4.24-7.84,6.8a27.387,27.387,0,0,0-6.8,18.08c0,10.16,4.88,17.52,14.32,21.92,5.12,2.32,11.12,3.6,20.24,4.48a24.229,24.229,0,0,1,2.96.4l1.84-15.28a13.818,13.818,0,0,1-2.4.16c-5.2,0-12-1.28-15.28-2.88-4.56-2.16-6.72-5.28-6.72-9.84,0-6.56,4.72-13.36,12.72-18.24a37.5,37.5,0,0,1,18.32-5.6,12.166,12.166,0,0,1,2.24.16l-.72-14.48c-1.44.32-2.16.4-8.8.64-24.4.88-30.24,1.2-42.72,2-8.72.56-11.6.72-13.68.72-.64,0-1.68,0-3.04-.08ZM15.24,158c-5.52.36-7.56.48-8.88.48a18.669,18.669,0,0,1-2.4-.12l3.6,17.52a36.3,36.3,0,0,1,5.16-1.08c18.6-2.64,21.72-3.12,31.68-5.04a96.044,96.044,0,0,1-.6,11.16H62.16a92.335,92.335,0,0,1-.6-11.04,51.091,51.091,0,0,1,5.28,10.56C75,176.6,79.2,174.2,84.96,170c6.6,4.32,12.96,7.2,24.48,11.04a67.192,67.192,0,0,1,7.8-17.04c-9-1.56-13.56-2.88-19.56-5.4a87.609,87.609,0,0,0,11.88-16.92c2.16-4.32,2.16-4.32,2.88-5.4l-8.52-9.24a56.522,56.522,0,0,1-8.88.48H74.28a72.753,72.753,0,0,1-10.08-.48V142.4a68.37,68.37,0,0,1,9.6-.48h2.16L63.6,146.96c3.6,5.88,5.16,8.16,8.4,11.76a64.965,64.965,0,0,1-10.44,4.92V123.92h40.2a105.714,105.714,0,0,1,14.04.6V109.76a96.516,96.516,0,0,1-13.68.6H18.6a99.375,99.375,0,0,1-13.92-.6v14.76c3.36-.36,5.88-.48,10.56-.6Zm16.92-34.08H44.4v3.84H32.16Zm0,13.56H44.4v4.2H32.16Zm0,13.92H44.4v3.72q-8.82,1.08-12.24,1.44Zm58.68-9.48a38.6,38.6,0,0,1-6.6,7.92,36.994,36.994,0,0,1-6.12-7.92Zm13.44-60a88.6,88.6,0,0,1,.48-11.28,122.436,122.436,0,0,1-12.6.48H28.8a122.436,122.436,0,0,1-12.6-.48,93.55,93.55,0,0,1,.48,11.28V96.2a91.351,91.351,0,0,1-.48,11.16c3.48-.24,6.36-.36,11.88-.36H94.92c5.4.12,8.64.24,9.84.24a85.541,85.541,0,0,1-.48-11.04ZM34.2,81.68H86.52v3.6H34.2Zm0,12.12H86.52v3.48H34.2ZM138.84,75.32a110.89,110.89,0,0,1-13.92-.72V91.16a91.438,91.438,0,0,1,12.84-.6h84.72a94.207,94.207,0,0,1,13.08.6V74.6a84.649,84.649,0,0,1-13.2.72H188.88v-.6a43.886,43.886,0,0,1,.6-6.84H169.32a34.567,34.567,0,0,1,.6,7.44Zm68.76,87.6V148.64a58.325,58.325,0,0,1,.36-7.2,76.023,76.023,0,0,1-9,.36H161.88c-4.32,0-6.84-.12-9.72-.36a55.447,55.447,0,0,1,.36,6.96v16.68a65.179,65.179,0,0,1-.48,9.6h17.52v-4.56h31.68a41.45,41.45,0,0,1,1.2,9.72c3.24.12,7.08.24,9.36.24,8.28,0,13.56-.84,16.44-2.76,3.48-2.28,4.32-4.92,4.32-14.4V134.96a97.389,97.389,0,0,1,.48-10.92,104.273,104.273,0,0,1-12.12.48h-80.4c-5.4,0-9-.12-13.2-.48a109.2,109.2,0,0,1,.48,10.92v31.68a110.6,110.6,0,0,1-.72,14.28h19.2a108.7,108.7,0,0,1-.6-14.28V138.56h69v23.16c0,1.8-.6,2.28-2.76,2.28-.84,0-1.8,0-4.32-.12Zm-38.04-9.48h21.96v4.32H169.56ZM141.6,113.36a57.02,57.02,0,0,1-.48,8.28c3.84-.24,6.84-.36,11.88-.36h54.84c5.28,0,8.04.12,11.76.36a51.976,51.976,0,0,1-.48-8.28V101.72a53.932,53.932,0,0,1,.48-8.28c-3.48.24-6.24.36-11.4.36H153.24c-5.76,0-8.52-.12-12.12-.36a55.3,55.3,0,0,1,.48,8.16Zm17.64-8.16h42V110h-42ZM308,138.4a45.337,45.337,0,0,0-6.16-10.8l-7.6,3.12a53.6,53.6,0,0,1,6,11.2Zm9.84-4.24a48.943,48.943,0,0,0-6.16-10.32l-7.52,3.04a52.4,52.4,0,0,1,6,10.72Zm-72.4-8a61.82,61.82,0,0,1,6.88-1.04L280,122.64c-3.84,2.64-5.76,4.24-7.84,6.8a27.387,27.387,0,0,0-6.8,18.08c0,10.16,4.88,17.52,14.32,21.92,5.12,2.32,11.12,3.68,20.24,4.48,1.44.16,1.84.24,2.96.4l1.84-15.2c-1.12.08-1.6.08-2.4.08-5.2,0-12-1.28-15.28-2.88-4.56-2.16-6.72-5.28-6.72-9.84,0-6.56,4.72-13.36,12.72-18.24a37.5,37.5,0,0,1,18.32-5.6,12.166,12.166,0,0,1,2.24.16l-.72-14.48c-1.44.32-2.16.4-8.8.64-24.4.88-30.24,1.2-42.72,2-8.72.56-11.6.72-13.68.72-.64,0-1.68,0-3.04-.08ZM335.24,158c-5.52.36-7.56.48-8.88.48a18.669,18.669,0,0,1-2.4-.12l3.6,17.52a36.3,36.3,0,0,1,5.16-1.08c18.6-2.64,21.72-3.12,31.68-5.04a96.039,96.039,0,0,1-.6,11.16h18.36a92.337,92.337,0,0,1-.6-11.04,51.09,51.09,0,0,1,5.28,10.56C395,176.6,399.2,174.2,404.96,170c6.6,4.32,12.96,7.2,24.48,11.04a67.193,67.193,0,0,1,7.8-17.04c-9-1.56-13.56-2.88-19.56-5.4a87.607,87.607,0,0,0,11.88-16.92c2.16-4.32,2.16-4.32,2.88-5.4l-8.52-9.24a56.522,56.522,0,0,1-8.88.48H394.28a72.753,72.753,0,0,1-10.08-.48V142.4a68.369,68.369,0,0,1,9.6-.48h2.16l-12.36,5.04c3.6,5.88,5.16,8.16,8.4,11.76a64.965,64.965,0,0,1-10.44,4.92V123.92h40.2a105.714,105.714,0,0,1,14.04.6V109.76a96.515,96.515,0,0,1-13.68.6H338.6a99.375,99.375,0,0,1-13.92-.6v14.76c3.36-.36,5.88-.48,10.56-.6Zm16.92-34.08H364.4v3.84H352.16Zm0,13.56H364.4v4.2H352.16Zm0,13.92H364.4v3.72q-8.82,1.08-12.24,1.44Zm58.68-9.48a38.6,38.6,0,0,1-6.6,7.92,36.995,36.995,0,0,1-6.12-7.92Zm13.44-60a88.6,88.6,0,0,1,.48-11.28,122.436,122.436,0,0,1-12.6.48H348.8a122.435,122.435,0,0,1-12.6-.48,93.554,93.554,0,0,1,.48,11.28V96.2a91.355,91.355,0,0,1-.48,11.16c3.48-.24,6.36-.36,11.88-.36h66.84c5.4.12,8.64.24,9.84.24a85.542,85.542,0,0,1-.48-11.04Zm-70.08-.24h52.32v3.6H354.2Zm0,12.12h52.32v3.48H354.2Zm156.84,15.84H497.36c-4.56,0-6.96-.12-9.72-.36.24,3.24.36,6.12.36,9.12v20.52c0,3.48-.12,6.12-.36,9.36a85.229,85.229,0,0,1,9.96-.48h13.44v11.64c-5.76.36-19.44.96-22.56.96-1.44,0-2.64,0-5.76-.24l2.64,18.96c2.28-.36,2.88-.48,6.12-.84,25.32-2.88,36.84-4.32,48.84-6.12,1.08,3.72,1.32,4.8,2.52,9.36l16.2-5.88c-4.68-12.84-6.6-17.28-12-27.72,2.52.12,3,.12,5.04.24a69.391,69.391,0,0,1-.48-9.24V118.04a66.026,66.026,0,0,1,.48-8.88,79.284,79.284,0,0,1-9.84.48H527.72v-6.96c4.44-.36,5.16-.36,11.88-1.08,1.08,1.8,1.8,3.12,3.84,7.2l14.76-9.72a159.691,159.691,0,0,0-20.76-27.6l-14.16,7.08c3.48,4.32,4.44,5.52,6.72,8.52-4.56.36-8.28.6-10.92.6-1.32.12-3.48.24-6.12.36,1.8-2.76,4.8-7.92,6.12-10.44,2.64-5.16,2.64-5.16,3.72-7.2l-19.32-2.88a105.475,105.475,0,0,1-9.24,20.76,79,79,0,0,1-8.64-.24l1.56,17.16c3-.24,4.92-.36,7.92-.6,8.4-.36,8.4-.36,15.96-.84Zm16.68,38.16h17.4L532.76,152c1.2,2.76,1.44,3.24,2.28,5.52-3.48.36-6,.6-7.32.72Zm-16.68-23.28v8.28h-7.08v-8.28Zm16.68,0h7.44v8.28h-7.44Zm-62.76-.72c.48-4.56.84-7.32.84-8.04a15.053,15.053,0,0,1,.24-1.8h9.36a74.928,74.928,0,0,1,8.52.36c-.24-5.28-.36-8.16-.36-12.84V81.2c0-4.32.12-6.72.36-10.08a75.32,75.32,0,0,1-10.44.48h-15.6A65.843,65.843,0,0,1,446.6,71V88.64a73.029,73.029,0,0,1,9.96-.48h9.48V98h-8.88c-5.28,0-5.88,0-8.52-.36a310.3,310.3,0,0,1-3.24,42.48c3.72-.24,5.64-.36,8.52-.36h11.52c-.48,11.88-1.2,16.92-2.76,19.92-.84,1.68-2.64,2.28-6.84,2.28-2.28,0-6.48-.36-10.56-.84a84.88,84.88,0,0,1,3.6,18.6c3.36.12,5.28.12,6.48.12,9.84,0,14.4-.96,18.12-3.72,6.84-5.28,8.52-13.44,9.84-46.8a54.853,54.853,0,0,1,.36-5.88,62.066,62.066,0,0,1-7.92.36Zm141.6-9.96a81.139,81.139,0,0,1-13.12,2c.72-4,1.2-6.32,1.28-6.8a25.293,25.293,0,0,1,1.04-4.64l-14.96-1.2v1.28a77.159,77.159,0,0,1-1.36,12h-1.52a72.277,72.277,0,0,1-12.16-.88l-.24,13.04h1.76c.64,0,.96,0,3.04.08,1.52.08,3.68.16,5.52.16a8.289,8.289,0,0,0,1.28-.08c-2.96,14.88-8.16,30.72-13.44,41.04l14.72,5.28c.56-1.84.56-1.84,1.84-5.76,3.44-10.32,3.92-12.08,5.92-19.04,2.24-8.32,3.68-14.32,5.04-21.84,2.48-.08,3.44-.16,7.28-.56l.8,11.36a107.37,107.37,0,0,1,22.48-2,72.094,72.094,0,0,1,10.48.56l-.24-13.6h-3.92a136.01,136.01,0,0,0-21.2,1.2Zm4.48-5.92a49.917,49.917,0,0,1,5.44,11.52l8.16-2.72a47.061,47.061,0,0,0-5.68-11.36Zm10.4-3.28a58.367,58.367,0,0,1,5.6,11.2l7.92-2.88a47.107,47.107,0,0,0-5.84-10.88ZM598.08,143.6c-4.4,6.4-6.24,10.88-6.24,15.52q0,15.12,23.52,15.12a97.992,97.992,0,0,0,15.6-1.28c1.92-.24,2.64-.32,4.24-.48l-.96-14.08c-4.88,1.92-12.64,3.2-18.88,3.2-6.72,0-10-1.76-10-5.44,0-2.48,1.28-5.12,4.32-8.8Zm88.48,8.72c-.08-2-.08-2.88-.08-3.68,0-1.2.08-2.8.24-6.16l1.6-25.36c.24-3.36.72-8.96.96-10.8H670.64c.4,3.92.8,7.52.96,10.8l1.6,25.36c.32,4.72.32,4.72.32,6.24a29.606,29.606,0,0,1-.16,3.6ZM688,172.88V157.76H671.92v15.12Z" transform="translate(-1.28 69.04)" fill="#fff"/>
</svg>
