<svg xmlns="http://www.w3.org/2000/svg" width="1768.337" height="405.397" viewBox="0 0 1768.337 405.397">
  <path id="Path_957" data-name="Path 957" d="M67.62,2.76c42.78,0,55.2-21.39,55.2-60.49V-186.3H81.88V-51.52c0,11.73-1.15,24.61-14.26,24.61S53.13-39.79,53.13-51.52V-186.3H12.42V-57.73C12.42-18.63,24.61,2.76,67.62,2.76ZM149.04,0h41.17V-79.12h16.56c30.13,0,53.82-10.12,53.82-53.13,0-34.5-15.64-54.05-48.99-54.05H149.04Zm41.17-107.87v-49.45h13.57c16.56,0,18.17,10.35,18.17,24.38,0,17.02-2.76,25.07-17.94,25.07ZM339.25,0h47.61c48.07,0,62.1-17.94,62.1-59.8v-67.62c0-41.4-14.03-58.88-62.56-58.88H339.25Zm41.17-28.52V-157.55h6.21c18.17,0,20.01,6.67,20.01,23v81.19c0,16.79-1.15,24.84-19.78,24.84ZM462.3,0h38.87l6.44-39.33h27.37L541.19,0h37.95L544.41-186.3H497.49Zm48.99-63.94,9.89-72.68,9.89,72.68ZM604.9,0h41.4V-155.71h27.83V-186.3H576.84v30.59H604.9Zm85.56,0h84.18V-27.83H731.63V-83.49h32.43v-28.52H731.63v-46.23h42.55V-186.3H690.46ZM852.15,0h41.17V-82.8h34.27v-28.75H893.32v-46.92h39.33V-186.3h-80.5Zm153.18,2.76c42.09,0,56.35-23,56.35-61.41v-69.23c0-38.41-14.26-60.95-56.35-60.95-41.86,0-55.89,22.54-55.89,60.95v69.23C949.44-20.24,963.47,2.76,1005.33,2.76Zm0-29.21c-12.88,0-13.8-11.27-13.8-21.85V-138c0-11.04,1.61-21.85,13.8-21.85,12.88,0,14.26,10.81,14.26,21.85v89.7C1019.59-37.72,1018.21-26.45,1005.33-26.45ZM1140.11,2.76c42.09,0,56.35-23,56.35-61.41v-69.23c0-38.41-14.26-60.95-56.35-60.95-41.86,0-55.89,22.54-55.89,60.95v69.23C1084.22-20.24,1098.25,2.76,1140.11,2.76Zm0-29.21c-12.88,0-13.8-11.27-13.8-21.85V-138c0-11.04,1.61-21.85,13.8-21.85,12.88,0,14.26,10.81,14.26,21.85v89.7C1154.37-37.72,1152.99-26.45,1140.11-26.45ZM1236.48,0h41.4V-155.71h27.83V-186.3h-97.29v30.59h28.06Zm85.56,0h57.27c35.88,0,56.35-16.56,56.35-55.2,0-26.45-11.5-42.09-33.12-44.85,17.02-3.22,27.37-14.95,27.37-37.49,0-41.4-27.37-48.76-59.34-48.76h-48.53Zm41.17-111.78V-158.7h7.13c15.41,0,23.46,7.59,23.46,22.31,0,15.64-3.91,24.61-22.54,24.61Zm0,83.03V-84.64h8.51c17.94,0,24.15,7.82,24.15,28.75,0,17.94-5.75,27.14-23.92,27.14ZM1447.85,0h38.87l6.44-39.33h27.37L1526.74,0h37.95l-34.73-186.3h-46.92Zm48.99-63.94,9.89-72.68,9.89,72.68ZM1583.55,0h83.95V-27.83h-42.78V-186.3h-41.17Zm101.89,0h83.95V-27.83h-42.78V-186.3h-41.17Z" transform="translate(-11.434 186.466) rotate(7)" fill="#fff" stroke="#a21f2d" stroke-width="1"/>
</svg>
