<svg id="レイヤー_1" data-name="レイヤー 1" xmlns="http://www.w3.org/2000/svg" width="235" height="328.583" viewBox="0 0 235 328.583">
  <g id="Group_852" data-name="Group 852">
    <g id="Group_848" data-name="Group 848" transform="translate(0 62.075)">
      <path id="Path_1027" data-name="Path 1027" d="M29.8,135.63a2.351,2.351,0,0,0-3.68,1.94V243.054A91.614,91.614,0,0,0,76.4,324.712a3.524,3.524,0,0,1,1.933,3.148v22.661a2.347,2.347,0,0,1-3.184,2.2,117.119,117.119,0,0,1-40.319-26.168A118.612,118.612,0,0,1,0,242.177V88.728a2.351,2.351,0,0,1,3.68-1.94l149.3,102.019a2.353,2.353,0,0,0,3.68-1.94v-45.3a2.938,2.938,0,0,1,2.939-2.939h20.239a2.938,2.938,0,0,1,2.939,2.939v94.149a2.351,2.351,0,0,1-3.68,1.94Z" transform="translate(0 -86.371)" fill="#a21f2d"/>
      <path id="Path_1028" data-name="Path 1028" d="M98.778,291.64a1.752,1.752,0,0,1-2.875,1.351A65.153,65.153,0,0,1,72.66,243.085V188.061a2.358,2.358,0,0,1,3.687-1.94L216.809,282.11a2.942,2.942,0,0,0,4.334-1.215,91.263,91.263,0,0,0,8.172-37.811v-127.6a2.938,2.938,0,0,0-2.939-2.939H180.048a2.938,2.938,0,0,1-2.939-2.939V89.369a2.938,2.938,0,0,1,2.939-2.939H252.5a2.938,2.938,0,0,1,2.939,2.939V243.085a117.239,117.239,0,0,1-14.079,55.807c-1.128,2.1-2.336,4.176-3.6,6.21a117.583,117.583,0,0,1-8.876,12.39,3.515,3.515,0,0,1-4.707.661l-19.117-13.066L102.45,234.971a2.351,2.351,0,0,0-3.68,1.94V291.64Z" transform="translate(-20.439 -86.388)" fill="#cc3522"/>
    </g>
    <g id="Group_851" data-name="Group 851" transform="translate(0.007)">
      <g id="Group_849" data-name="Group 849" transform="translate(14.194)">
        <path id="Path_1029" data-name="Path 1029" d="M32.078,41.969V26.762L25.51,15.845V41.976H19.76V1.14h5.75V6.063l6.569,11V1.14h5.75V41.969Z" transform="translate(-19.76 -0.321)" fill="#a21f2d"/>
        <path id="Path_1030" data-name="Path 1030" d="M52.9,41.969V1.14h5.75V41.969Z" transform="translate(-29.082 -0.321)" fill="#a21f2d"/>
        <path id="Path_1031" data-name="Path 1031" d="M75.349,42.3a9.185,9.185,0,0,1-7.309-9.07V27.111h5.75v6.21a3.366,3.366,0,0,0,3.047,3.4,3.3,3.3,0,0,0,3.522-3.277V27.492a.955.955,0,0,0-.252-.654L69.032,14.333a3.953,3.953,0,0,1-.992-2.616V9.244A9.191,9.191,0,0,1,75.349.174,9.08,9.08,0,0,1,86.1,9.036v2.551h-5.75V9.137a3.351,3.351,0,0,0-2.767-3.342,3.29,3.29,0,0,0-3.8,3.241v2.156a.955.955,0,0,0,.252.654L85.109,24.351a3.953,3.953,0,0,1,.992,2.616v6.468A9.083,9.083,0,0,1,75.349,42.3Z" transform="translate(-33.341 -0.002)" fill="#a21f2d"/>
        <path id="Path_1032" data-name="Path 1032" d="M112.638,41.969V20.99H106.07V41.969h-5.75V1.14h5.75v14.1h6.569V1.14h5.75V41.969Z" transform="translate(-42.422 -0.321)" fill="#a21f2d"/>
        <path id="Path_1033" data-name="Path 1033" d="M133.45,41.969V1.14h5.75V41.969Z" transform="translate(-51.741 -0.321)" fill="#a21f2d"/>
        <path id="Path_1034" data-name="Path 1034" d="M161.758,41.969V26.762L155.19,15.845V41.976h-5.75V1.14h5.75V6.063l6.569,11V1.14h5.75V41.969Z" transform="translate(-56.239 -0.321)" fill="#a21f2d"/>
        <path id="Path_1035" data-name="Path 1035" d="M191.6,42.468a9.116,9.116,0,0,1-9.034-9.034V9.034a9.034,9.034,0,0,1,18.068,0V33.441a9.116,9.116,0,0,1-9.034,9.034Zm3.284-33.441a3.284,3.284,0,0,0-6.569,0V33.434a3.284,3.284,0,0,0,6.569,0V9.034Z" transform="translate(-65.559)" fill="#a21f2d"/>
        <path id="Path_1036" data-name="Path 1036" d="M232.119,41.969V19.036l-5.34,13.3-5.34-13.3V41.969h-5.75V1.14h5.75V6.063l5.34,13.468,5.34-13.468V1.14h5.75V41.969Z" transform="translate(-74.875 -0.321)" fill="#a21f2d"/>
        <path id="Path_1037" data-name="Path 1037" d="M254.55,41.969V1.14h5.75V41.969Z" transform="translate(-85.807 -0.321)" fill="#a21f2d"/>
        <path id="Path_1038" data-name="Path 1038" d="M281.6,25.748V41.969h-5.75V25.748L269.69,15.485V1.14h5.75V13.847l3.284,5.5,3.284-5.5V1.14h5.75V15.485L281.6,25.748Z" transform="translate(-90.066 -0.321)" fill="#a21f2d"/>
        <path id="Path_1039" data-name="Path 1039" d="M314.118,41.649V26.419H307.55V41.649H301.8V9.034a9.034,9.034,0,0,1,18.068,0V41.649Zm0-32.615a3.284,3.284,0,0,0-6.569,0V20.67h6.569Z" transform="translate(-99.098)" fill="#a21f2d"/>
      </g>
      <g id="Group_850" data-name="Group 850" transform="translate(0 0.819)">
        <path id="Path_1040" data-name="Path 1040" d="M8.462,34.911V30.85H4.236A4.266,4.266,0,0,0,.01,35.076V46.5a4.261,4.261,0,0,0,4.226,4.226A4.266,4.266,0,0,0,8.462,46.5v-.712H5.774V46.5a1.538,1.538,0,0,1-3.076,0V35.076a1.544,1.544,0,0,1,1.538-1.538H5.774V34.9H8.462Z" transform="translate(-0.01 -9.497)" fill="#a21f2d"/>
        <path id="Path_1041" data-name="Path 1041" d="M3.6,10.411H7.956V7.73H3.6v-3.9H8.718V1.14H.92V20.214H3.6Z" transform="translate(-0.266 -1.14)" fill="#a21f2d"/>
      </g>
    </g>
  </g>
</svg>
