<svg xmlns="http://www.w3.org/2000/svg" width="157" height="70" viewBox="0 0 157 70">
  <g id="Group_527" data-name="Group 527" transform="translate(-857 -1225)">
    <g id="Rectangle_151" data-name="Rectangle 151" transform="translate(857 1225)" fill="#fff" stroke="#707070" stroke-width="1">
      <rect width="157" height="70" stroke="none"/>
      <rect x="0.5" y="0.5" width="156" height="69" fill="none"/>
    </g>
    <g id="Group_408" data-name="Group 408" transform="translate(278 -7017)">
      <path id="Path_2027" data-name="Path 2027" d="M2.5-1.483H7.766q.561,0,.561.533t-.561.533H2q-.813,0-.813-.738a1.365,1.365,0,0,1,.41-.9q.875-.971,3.035-2.919Q5.763-6,6.118-6.405a2.162,2.162,0,0,0,.615-1.354A1.471,1.471,0,0,0,6.18-8.982,2.246,2.246,0,0,0,4.724-9.42,2.24,2.24,0,0,0,2.6-8.107a.627.627,0,0,1-.567.4A.728.728,0,0,1,1.7-7.786a.478.478,0,0,1-.267-.472,1.355,1.355,0,0,1,.28-.711A3.1,3.1,0,0,1,2.9-10.008a3.871,3.871,0,0,1,1.839-.437,3.847,3.847,0,0,1,2.119.561A2.379,2.379,0,0,1,8.019-7.738,2.692,2.692,0,0,1,7.314-6,19.632,19.632,0,0,1,5.633-4.43,37.408,37.408,0,0,0,2.5-1.483ZM14.827-2.5H10.753a.853.853,0,0,1-.738-.328.6.6,0,0,1-.109-.362,1.3,1.3,0,0,1,.191-.629l3.473-6.316a.429.429,0,0,1,.4-.239.671.671,0,0,1,.41.144.462.462,0,0,1,.2.369.851.851,0,0,1-.116.39L11.184-3.534h3.644v-4.2a.507.507,0,0,1,.062-.253.557.557,0,0,1,.513-.253.58.58,0,0,1,.485.219.459.459,0,0,1,.089.287v4.2H17.4q.547,0,.547.52T17.4-2.5H15.976V-.841a.472.472,0,0,1-.15.355.587.587,0,0,1-.424.157.569.569,0,0,1-.5-.246.459.459,0,0,1-.075-.267Zm11.915.923-1.894.137v.075q0,.451-.492.451a.459.459,0,0,1-.424-.212.456.456,0,0,1-.062-.239V-9.509a.4.4,0,0,1,.157-.335.519.519,0,0,1,.335-.109.429.429,0,0,1,.472.349l1.907-.267a1.762,1.762,0,0,1,.219-.014q.759,0,.759.964V-1.3q0,.444-.492.444a.459.459,0,0,1-.424-.212.443.443,0,0,1-.062-.232Zm0-4.628V-8.7q0-.273-.226-.28h-.055l-1.613.212V-6.05Zm0,.813-1.894.15V-2.3l1.894-.13ZM32.17-8.709v1.524l3.35-.308h.055A.384.384,0,0,1,36-7.055a.383.383,0,0,1-.39.431l-7.068.649h-.055a.448.448,0,0,1-.328-.137.435.435,0,0,1-.123-.321q0-.376.41-.41L31.165-7.1V-8.62l-1.989.178a.548.548,0,0,1-.417-.13.408.408,0,0,1-.157-.314.389.389,0,0,1,.41-.424L31.165-9.5v-1.483a.422.422,0,0,1,.157-.342.509.509,0,0,1,.342-.116.509.509,0,0,1,.41.178.427.427,0,0,1,.1.28v1.395L34.3-9.775h.048a.371.371,0,0,1,.4.232.467.467,0,0,1,.048.212.38.38,0,0,1-.39.424ZM33.77-3.9V-.2q0,.984-.827.984a3.163,3.163,0,0,1-1.066-.26Q30.755.089,30.755-.239a.3.3,0,0,1,.335-.342,1.37,1.37,0,0,1,.335.068,3.507,3.507,0,0,0,1.012.2q.294,0,.294-.369V-3.821l-3.937.335q-.5-.014-.5-.444a.386.386,0,0,1,.4-.424L32.73-4.7V-5.838a.431.431,0,0,1,.205-.39.586.586,0,0,1,.314-.089.523.523,0,0,1,.376.144.431.431,0,0,1,.144.335v1.053L35.157-4.9h.062a.392.392,0,0,1,.424.438.383.383,0,0,1-.39.431Zm-4.218.615a.768.768,0,0,1,.39.15q1.442.889,1.442,1.449a.49.49,0,0,1-.144.349.532.532,0,0,1-.39.164.753.753,0,0,1-.561-.376A10.486,10.486,0,0,0,29.4-2.563a.561.561,0,0,1-.2-.383.328.328,0,0,1,.1-.239A.336.336,0,0,1,29.552-3.288ZM44.926-1.039l-2.789.178v.116q0,.424-.458.424t-.465-.424V-5.2q0-.417.458-.417a.434.434,0,0,1,.431.239l2.837-.294a1.4,1.4,0,0,1,.2-.014q.711,0,.711.82V-.745q0,.424-.465.424t-.458-.424Zm0-2.728v-.759q0-.308-.294-.308h-.1l-2.393.226v1.066Zm0,.759-2.789.226V-1.62l2.789-.191ZM41.8-6.679l-2.563.26V.267q0,.444-.492.444t-.5-.444V-10.418a.434.434,0,0,1,.157-.342.544.544,0,0,1,.342-.116.473.473,0,0,1,.458.273l2.68-.273a1.529,1.529,0,0,1,.185-.014q.813,0,.772.841l-.007.1-.109,3.261a.422.422,0,0,1-.479.417Q41.8-6.275,41.8-6.679Zm.068-2.488.014-.622a.255.255,0,0,0-.246-.28l-2.4.232v.923Zm-.021.772-2.611.253v.937l2.584-.26Zm6.269,1.559-2.98.164a.414.414,0,0,1-.458.342.515.515,0,0,1-.431-.191.359.359,0,0,1-.068-.226v-3.937a.367.367,0,0,1,.185-.328.586.586,0,0,1,.314-.089.443.443,0,0,1,.431.239l2.98-.253q.075-.007.212-.007a.68.68,0,0,1,.731.438,1.769,1.769,0,0,1,.075.574V-.027a1.027,1.027,0,0,1-.171.622.691.691,0,0,1-.588.273A4.714,4.714,0,0,1,47.038.547a4.927,4.927,0,0,1-.67-.273.347.347,0,0,1-.219-.308.3.3,0,0,1,.342-.335,1.352,1.352,0,0,1,.26.034,6,6,0,0,0,1.025.178q.342,0,.342-.376Zm0-2.543v-.643q0-.308-.308-.28l-2.666.219v.916Zm0,.766-2.974.219v.943l2.974-.185ZM57.34-9.769v7.937a.284.284,0,0,0,.321.321h5.127A.462.462,0,0,1,63.1-1.4a.554.554,0,0,1,.178.438.523.523,0,0,1-.239.479.433.433,0,0,1-.246.068H57.313a1.039,1.039,0,0,1-1.176-1.176V-9.769a.483.483,0,0,1,.226-.437.662.662,0,0,1,.376-.109.644.644,0,0,1,.431.157A.482.482,0,0,1,57.34-9.769Zm8.36.547H64.606q-.444,0-.444-.506t.444-.492H68q.444,0,.444.492a.506.506,0,0,1-.171.41.4.4,0,0,1-.273.1H66.9v7.813H68q.444,0,.444.492a.486.486,0,0,1-.171.4.4.4,0,0,1-.273.1H64.606q-.444,0-.444-.5t.444-.492H65.7Zm11.437,6.8V-9.8a.458.458,0,0,1,.15-.355.637.637,0,0,1,.438-.157.576.576,0,0,1,.506.246.451.451,0,0,1,.082.267v8.456q0,1-.711,1a.962.962,0,0,1-.813-.526l-5.25-8.176V-.854a.485.485,0,0,1-.157.376.662.662,0,0,1-.444.157.567.567,0,0,1-.485-.232.5.5,0,0,1-.089-.3V-9.242a.984.984,0,0,1,.595-1,1.284,1.284,0,0,1,.5-.089,1,1,0,0,1,.882.492Zm4.915-2.591v3.247a.236.236,0,0,0,.267.267h5.4a.472.472,0,0,1,.314.109.554.554,0,0,1,.178.438.534.534,0,0,1-.2.444.47.47,0,0,1-.294.089H82.011a1.033,1.033,0,0,1-1.176-1.162V-9.058a1.033,1.033,0,0,1,1.176-1.162h5.5a.437.437,0,0,1,.3.109A.524.524,0,0,1,88-9.68a.554.554,0,0,1-.2.451.459.459,0,0,1-.287.089h-5.2a.236.236,0,0,0-.267.267V-6.05h4.942a.443.443,0,0,1,.232.062.479.479,0,0,1,.232.458q0,.52-.465.52Zm18.8-3.432q-2.666.547-5.366.937-1.025.15-1.148.15a.5.5,0,0,1-.561-.567.441.441,0,0,1,.314-.437,3.927,3.927,0,0,1,.738-.109q1.265-.123,3.521-.479,2.153-.342,3.814-.684a1.875,1.875,0,0,1,.376-.048.57.57,0,0,1,.547.287.743.743,0,0,1,.1.362q0,.28-.492.485a5.7,5.7,0,0,0-2.249,1.736A4.57,4.57,0,0,0,99.3-3.91a2.681,2.681,0,0,0,.8,1.948,3.658,3.658,0,0,0,1.641.95.569.569,0,0,1,.492.567q0,.506-.554.506a2.957,2.957,0,0,1-1.436-.54,3.758,3.758,0,0,1-2.01-3.336A4.97,4.97,0,0,1,98.766-6,6.943,6.943,0,0,1,100.851-8.442Zm2.652-2.386a.709.709,0,0,1,.383.15,4.414,4.414,0,0,1,1.285,1.285.653.653,0,0,1,.123.342.4.4,0,0,1-.144.314.444.444,0,0,1-.294.1q-.191,0-.383-.294a7.6,7.6,0,0,0-1.032-1.292.565.565,0,0,1-.2-.349A.23.23,0,0,1,103.5-10.828Zm1.2-.848q.342,0,1.114.69.649.581.649.937a.4.4,0,0,1-.15.335.445.445,0,0,1-.267.1q-.191,0-.376-.267a8.168,8.168,0,0,0-1.032-1.217.519.519,0,0,1-.2-.321A.227.227,0,0,1,104.706-11.676Zm4.416,5.359a11.59,11.59,0,0,1-.212,1.538q-.116.506-.54.506a.664.664,0,0,1-.431-.144.383.383,0,0,1-.144-.314,1.692,1.692,0,0,1,.123-.506,11.462,11.462,0,0,0,.472-1.921q.062-.362.383-.362a.351.351,0,0,1,.383.376l6.289-.417a17.219,17.219,0,0,0,1.176-2.406.566.566,0,0,1,.547-.417.62.62,0,0,1,.28.068.407.407,0,0,1,.26.376,1.273,1.273,0,0,1-.171.526A12.278,12.278,0,0,1,116.4-7.622l2.167-.15h.089q.643,0,.643.472a3.92,3.92,0,0,1-.827,1.579q-.314.451-.417.567a.357.357,0,0,1-.267.137.384.384,0,0,1-.219-.075.23.23,0,0,1-.109-.2.787.787,0,0,1,.1-.308,9.37,9.37,0,0,0,.376-.93A.729.729,0,0,0,118-6.768q0-.144-.191-.137h-.027ZM113.3-2.194a8.866,8.866,0,0,0,1.593-1.75.987.987,0,0,0,.191-.383q0-.1-.15-.1a.748.748,0,0,0-.089.007l-4.156.417L110.633-4a.4.4,0,0,1-.355-.185.462.462,0,0,1-.082-.273.419.419,0,0,1,.417-.472l4.929-.444a1.827,1.827,0,0,1,.212-.014q.766,0,.766.54a1.563,1.563,0,0,1-.267.731,9.946,9.946,0,0,1-2.119,2.447A18.333,18.333,0,0,0,118.474.239q.588.171.588.355,0,.116-.294.191a6.709,6.709,0,0,1-1.367.232q-.882,0-3.992-2.112A11.287,11.287,0,0,1,111.1.171a11.61,11.61,0,0,1-2.105.656,1.33,1.33,0,0,1-.246.034.345.345,0,0,1-.4-.383.3.3,0,0,1,.178-.253,3.338,3.338,0,0,1,.5-.171,12.376,12.376,0,0,0,3.6-1.709Q111.6-2.42,111-2.953a.606.606,0,0,1-.26-.417.351.351,0,0,1,.1-.246.321.321,0,0,1,.232-.1,1.116,1.116,0,0,1,.588.314Q112.417-2.789,113.3-2.194Zm2.516-9.427a.457.457,0,0,1,.451.3.621.621,0,0,1,.055.239q0,.267-.342.417a16.5,16.5,0,0,1-2.618.595q-1.436.26-3.158.485-.123.014-.178.014a.341.341,0,0,1-.383-.39.331.331,0,0,1,.26-.328,5,5,0,0,1,.52-.082,33.614,33.614,0,0,0,5.065-1.189A1.1,1.1,0,0,1,115.814-11.621Zm-5.927,2.29a1.358,1.358,0,0,1,.677.4q.745.663.745,1.066,0,.513-.567.513-.287,0-.465-.424a3.9,3.9,0,0,0-.615-.978.424.424,0,0,1-.109-.26.344.344,0,0,1,.157-.267A.276.276,0,0,1,109.888-9.331Zm2.974-.383q.219,0,.656.485a2.033,2.033,0,0,1,.656,1.162.426.426,0,0,1-.253.4.587.587,0,0,1-.287.075q-.314,0-.472-.4a6.515,6.515,0,0,0-.588-1.128.465.465,0,0,1-.089-.246.321.321,0,0,1,.164-.273A.375.375,0,0,1,112.861-9.714Zm11.683,1.682v8.1a.422.422,0,0,1-.13.321.517.517,0,0,1-.383.144q-.513,0-.513-.465V-6.5a19.267,19.267,0,0,1-1.442,1.784.679.679,0,0,1-.465.26.35.35,0,0,1-.267-.13.408.408,0,0,1-.1-.267.512.512,0,0,1,.116-.3q.021-.027.314-.369a20.347,20.347,0,0,0,2.386-3.719q.4-.779.711-1.5.2-.472.54-.472a.7.7,0,0,1,.314.082.422.422,0,0,1,.246.383A9.419,9.419,0,0,1,124.544-8.032Zm6.74-.123,1.846-.164h.048a.426.426,0,0,1,.417.2.494.494,0,0,1,.082.28.463.463,0,0,1-.472.52l-1.921.157V-.417a1.385,1.385,0,0,1-.226.909.892.892,0,0,1-.7.232,4.839,4.839,0,0,1-1.524-.355q-1.107-.41-1.107-.731a.335.335,0,0,1,.376-.383,1.388,1.388,0,0,1,.41.1A4.061,4.061,0,0,0,129.8-.4q.444,0,.444-.465V-7.082l-4.539.376a.563.563,0,0,1-.328-.075.4.4,0,0,1-.212-.39.453.453,0,0,1,.472-.5l4.607-.4v-2.741a.458.458,0,0,1,.226-.41.55.55,0,0,1,.287-.082.554.554,0,0,1,.349.116.448.448,0,0,1,.178.376Zm-4.423,2.242q.362,0,1.456,1.265a2.223,2.223,0,0,1,.656,1.1.537.537,0,0,1-.246.465.576.576,0,0,1-.335.109q-.314,0-.561-.472a11.074,11.074,0,0,0-1.2-1.8.476.476,0,0,1-.123-.3.357.357,0,0,1,.123-.267A.332.332,0,0,1,126.861-5.913ZM7.595,11.7l2.29-.157q.1-.007.144-.007.943,0,.943.9a2.04,2.04,0,0,1-.021.273l-.376,2.646a.368.368,0,0,1,.26.4q0,.4-.472.417l-7.157.308H3.138a.363.363,0,0,1-.417-.4q0-.417.444-.437l6.426-.273.123-1.073-6.07.342H3.575q-.424,0-.424-.4t.451-.437l6.207-.335.075-.636a.555.555,0,0,0,.007-.068.275.275,0,0,0-.314-.308H9.522l-6.187.4-.075.007a.366.366,0,0,1-.417-.41q0-.4.451-.431L6.316,11.8a9.392,9.392,0,0,0,1.709-1.572q.178-.205.178-.267T8.073,9.9q-.027,0-.116.007l-2.782.28a16.337,16.337,0,0,1-2.687,2,1.382,1.382,0,0,1-.547.226.339.339,0,0,1-.287-.15.363.363,0,0,1-.075-.219.377.377,0,0,1,.13-.28q.048-.041.369-.239A12.522,12.522,0,0,0,4.02,10.013,11.6,11.6,0,0,0,5.175,8.789a.671.671,0,0,1,.52-.3q.485,0,.485.4a.627.627,0,0,1-.15.39l2.762-.26q.1-.007.157-.007.711,0,.711.506Q9.659,10.149,7.595,11.7ZM2.714,17.45q.369,0,.369.465a5.206,5.206,0,0,1-.362,1.757,3.48,3.48,0,0,1-.3.677.522.522,0,0,1-.437.253.579.579,0,0,1-.273-.068.456.456,0,0,1-.253-.431,1.049,1.049,0,0,1,.185-.485,7.762,7.762,0,0,0,.7-1.8Q2.44,17.45,2.714,17.45Zm1.572-.4q.219,0,.465.39a4.847,4.847,0,0,0,1.962,1.873,6.023,6.023,0,0,0,2.728.561q.574,0,.574-.253a2.773,2.773,0,0,0-.437-.923.555.555,0,0,1-.1-.28.26.26,0,0,1,.089-.2.3.3,0,0,1,.2-.075q.212,0,.7.574a2.606,2.606,0,0,1,.772,1.36q0,.752-1.668.752a6.238,6.238,0,0,1-4.225-1.381,5.263,5.263,0,0,1-1.36-1.771A.7.7,0,0,1,3.91,17.4a.317.317,0,0,1,.178-.287A.371.371,0,0,1,4.286,17.054Zm2.242-.314q.15,0,.362.239.574.67.848.67.13,0,.273-.2a.373.373,0,0,1,.287-.185.205.205,0,0,1,.232.232,1.358,1.358,0,0,1-.212.629q-.273.472-.629.472a1,1,0,0,1-.656-.314,3.91,3.91,0,0,1-.725-.943.666.666,0,0,1-.1-.3.272.272,0,0,1,.109-.219A.31.31,0,0,1,6.528,16.739Zm4.061-.13a3.6,3.6,0,0,1,1.593.964,6.222,6.222,0,0,1,.54.492.7.7,0,0,1,.219.465.521.521,0,0,1-.157.369.515.515,0,0,1-.383.171.77.77,0,0,1-.54-.342,15.5,15.5,0,0,0-1.415-1.47.464.464,0,0,1-.185-.342.281.281,0,0,1,.062-.171A.307.307,0,0,1,10.589,16.609Zm9.81-4.163-2.509.185a.306.306,0,0,1,.014.082q0,.383-.451.383-.383,0-.472-.458l-.4-2.256a.7.7,0,0,1-.014-.116q0-.4.485-.4a.433.433,0,0,1,.451.342l2.9-.239V8.83a.41.41,0,0,1,.157-.342.519.519,0,0,1,.335-.109.49.49,0,0,1,.4.171.427.427,0,0,1,.1.28V9.883l2.7-.226a.943.943,0,0,1,.137-.007q.875,0,.875.677a.788.788,0,0,1-.021.178l-.191.9a.338.338,0,0,1,.232.355q0,.342-.431.376l-3.3.246v.943l3.233-.239h.13q.854.068.868.759l-.021.2-.205.889a.375.375,0,0,1,.232.376q0,.369-.465.4l-3.773.219V16.6q0,.52-.492.52T20.4,16.6V15.98l-2.475.144a.728.728,0,0,1,.007.075q0,.369-.472.369-.383,0-.465-.458l-.39-2.242a1,1,0,0,1-.014-.116q0-.362.485-.362a.439.439,0,0,1,.41.226L20.4,13.4Zm0-.759v-.937l-2.762.239.137.9Zm-2.6,3.657,2.6-.164v-.991l-2.755.2Zm3.589-.219,3.083-.191.116-.827.007-.027a.179.179,0,0,0-.164-.171H24.4l-3.021.212Zm0-3.507,2.584-.191.116-.684a.726.726,0,0,0,.007-.1.169.169,0,0,0-.191-.191h-.041l-2.475.219Zm-4.56,6.132q.383,0,.383.451a4.484,4.484,0,0,1-.226,1.258,3.9,3.9,0,0,1-.335.834.576.576,0,0,1-.513.335.529.529,0,0,1-.294-.089.458.458,0,0,1-.226-.41.721.721,0,0,1,.123-.355,7.283,7.283,0,0,0,.745-1.661Q16.584,17.751,16.823,17.751Zm1.586-.26q.185,0,.444.321a5.378,5.378,0,0,0,1.989,1.606,6.483,6.483,0,0,0,2.646.472q.547,0,.547-.253a.551.551,0,0,0-.082-.246l-.308-.554a.521.521,0,0,1-.1-.273.246.246,0,0,1,.089-.185.293.293,0,0,1,.205-.082q.239,0,.93.82a1.907,1.907,0,0,1,.554.984q0,.711-1.757.711a6.322,6.322,0,0,1-4.614-1.675,5.071,5.071,0,0,1-.827-1.039.57.57,0,0,1-.089-.267.32.32,0,0,1,.144-.26A.393.393,0,0,1,18.409,17.491Zm2.311-.232a.482.482,0,0,1,.321.191,3.7,3.7,0,0,0,.567.485.338.338,0,0,0,.191.082q.109,0,.253-.178a.373.373,0,0,1,.273-.164.209.209,0,0,1,.232.239,1.067,1.067,0,0,1-.178.52q-.287.485-.636.485-.472,0-1.053-.834a1.36,1.36,0,0,1-.28-.52.329.329,0,0,1,.308-.308Zm4.095-.39a.943.943,0,0,1,.4.15q1.853,1.025,1.853,1.62a.518.518,0,0,1-.123.321.476.476,0,0,1-.4.212.735.735,0,0,1-.506-.314,12.759,12.759,0,0,0-1.36-1.36.451.451,0,0,1-.185-.321A.275.275,0,0,1,24.814,16.869Zm5.975.916q.444-1.025.656-1.422.116-.226.28-.226a.3.3,0,0,1,.157.041.286.286,0,0,1,.164.253.892.892,0,0,1-.075.267,10.955,10.955,0,0,0-.656,2.215.971.971,0,0,1-.2.5.455.455,0,0,1-.349.185q-.39,0-.643-.561a7.744,7.744,0,0,1-.444-2.994,50.76,50.76,0,0,1,.376-5.086,4.066,4.066,0,0,1,.1-.656.479.479,0,0,1,.492-.342.494.494,0,0,1,.41.191.541.541,0,0,1,.109.349,3.87,3.87,0,0,1-.055.451q-.212,1.319-.39,3.548-.068.916-.068,1.511A15.587,15.587,0,0,0,30.789,17.785Zm7.4-5.77a12.186,12.186,0,0,0-3.329.622,1.118,1.118,0,0,1-.3.062.416.416,0,0,1-.424-.267.5.5,0,0,1-.041-.185q0-.239.41-.41a12,12,0,0,1,2.406-.711,6.9,6.9,0,0,1,1.2-.123q1.019,0,1.019.547,0,.472-.6.472Zm-3.821,4.566a.462.462,0,0,1,.362.212q.779,1,3.548,1,.287,0,.506-.021.109-.007.157-.007a.569.569,0,0,1,.472.205.5.5,0,0,1,.109.321.559.559,0,0,1-.239.472,1.156,1.156,0,0,1-.629.116,10.671,10.671,0,0,1-2.646-.308,3.172,3.172,0,0,1-1.743-1,1.036,1.036,0,0,1-.294-.6.385.385,0,0,1,.4-.4Zm10.309-5.25q.171-.868.451-2a.489.489,0,0,1,.492-.437q.567,0,.567.451a1.493,1.493,0,0,1-.055.314q-.157.595-.376,1.661l.1.007.786.014q.451.007.492.014a.46.46,0,0,1,.431.506q0,.485-.526.485-.055,0-.137-.007-.431-.014-1.354-.021-.191.827-.479,2.659,1.094-.041,1.921-.13a1.306,1.306,0,0,1,.164-.014.44.44,0,0,1,.314.116.48.48,0,0,1,.15.362q0,.451-.547.52-.677.075-2.14.123a10.993,10.993,0,0,0-.082,1.217,2.137,2.137,0,0,0,.554,1.538,2,2,0,0,0,1.538.608,2.717,2.717,0,0,0,2.119-.82,2.862,2.862,0,0,0,.663-1.976,5.591,5.591,0,0,0-.157-1.292.848.848,0,0,1-.027-.205q0-.438.41-.437a.445.445,0,0,1,.4.308,4.1,4.1,0,0,1,.26.882,4.855,4.855,0,0,1,.1.93A3.49,3.49,0,0,1,49.7,19.357a3.785,3.785,0,0,1-2.734.964,3,3,0,0,1-2.55-1.107,3.308,3.308,0,0,1-.6-2.044,10.289,10.289,0,0,1,.082-1.189q-1.155,0-1.613-.048t-.472-.465q0-.479.451-.479.055,0,.164.007.328.027.909.027.431,0,.69-.007.123-.9.458-2.687-1.408.034-1.948.075-.1.007-.15.007a.537.537,0,0,1-.417-.164.431.431,0,0,1-.116-.308.453.453,0,0,1,.479-.492Q43.135,11.366,44.68,11.332Zm12-.267,1.935-.178.062-.007q.513,0,.513.479a.441.441,0,0,1-.465.479l-5.1.465h-.082q-.513,0-.513-.485a.423.423,0,0,1,.444-.458l2.167-.2V9.035a.443.443,0,0,1,.226-.4.574.574,0,0,1,.287-.082.554.554,0,0,1,.349.116.441.441,0,0,1,.178.369Zm.3,5.011q.608.581,1.572,1.613a.7.7,0,0,1,.226.472.525.525,0,0,1-.2.4.6.6,0,0,1-.4.164.491.491,0,0,1-.369-.157l-.3-.369q-.349-.437-1.053-1.2a9.8,9.8,0,0,1-2.413,2.536,1.507,1.507,0,0,1-.649.349.33.33,0,0,1-.267-.137.3.3,0,0,1-.075-.2.4.4,0,0,1,.137-.3q.034-.034.287-.226a8.434,8.434,0,0,0,2.317-2.721q-.513-.526-1.3-1.3-.417-.41-.485-.485a.414.414,0,0,1-.13-.287.425.425,0,0,1,.144-.3.314.314,0,0,1,.226-.1.962.962,0,0,1,.5.267q.684.554,1.5,1.3a12.87,12.87,0,0,0,.813-2.693q.1-.54.5-.54.547,0,.547.485A7.257,7.257,0,0,1,57.791,14,11.857,11.857,0,0,1,56.978,16.076Zm6.672-3.514v7.075q0,1.107-.861,1.107a5.6,5.6,0,0,1-2.105-.6q-.335-.15-.335-.383a.326.326,0,0,1,.369-.369,1.487,1.487,0,0,1,.39.075,4.159,4.159,0,0,0,1.128.185q.28,0,.342-.15a.626.626,0,0,0,.048-.273V12.658l-3.261.314H59.3q-.485-.021-.485-.458a.459.459,0,0,1,.479-.506l3.329-.328V9.021a.425.425,0,0,1,.205-.383.586.586,0,0,1,.314-.089.489.489,0,0,1,.41.185.437.437,0,0,1,.1.287v2.557l1.388-.13a.555.555,0,0,1,.068-.007.42.42,0,0,1,.479.472.473.473,0,0,1-.492.513ZM59.883,14.2q.294,0,1.08.909a2.627,2.627,0,0,1,.786,1.319.5.5,0,0,1-.226.424.517.517,0,0,1-.321.109q-.3,0-.533-.458a11.375,11.375,0,0,0-1.039-1.723.382.382,0,0,1-.089-.232.34.34,0,0,1,.109-.246A.321.321,0,0,1,59.883,14.2Zm14.041-3.4,4.115-.321h.048a.425.425,0,0,1,.4.232.454.454,0,0,1,.062.226.467.467,0,0,1-.185.39.478.478,0,0,1-.267.109l-8.244.6a15.927,15.927,0,0,1-1.244,7.055q-.595,1.169-.93,1.169a.422.422,0,0,1-.205-.062.369.369,0,0,1-.185-.342,1.246,1.246,0,0,1,.171-.458,11.947,11.947,0,0,0,1.1-3.828,28.309,28.309,0,0,0,.212-3.479.428.428,0,0,1-.321-.458q0-.41.52-.451l3.89-.3V9.069a.422.422,0,0,1,.2-.376.6.6,0,0,1,.349-.1.523.523,0,0,1,.376.137.426.426,0,0,1,.144.342Zm-2.857,4.874a.343.343,0,0,1,.362.232,2.561,2.561,0,0,1,.055.69,8.792,8.792,0,0,1-.321,2.646q-.191.6-.595.6a.782.782,0,0,1-.232-.041.482.482,0,0,1-.355-.506,1.649,1.649,0,0,1,.116-.472,11.064,11.064,0,0,0,.581-2.687Q70.718,15.673,71.066,15.673Zm1.408-1.066a.324.324,0,0,1,.3.205q.027.062.116.355a5.335,5.335,0,0,0,2.085,3.227,6.3,6.3,0,0,0,2.051.793,2.88,2.88,0,0,0,.492.082q.2,0,.2-.171a3.929,3.929,0,0,0-.451-1.251.733.733,0,0,1-.082-.287.294.294,0,0,1,.109-.212.317.317,0,0,1,.219-.1.464.464,0,0,1,.355.232,10.257,10.257,0,0,1,.854,1.381,1.79,1.79,0,0,1,.232.8q0,.752-1.025.752a6.394,6.394,0,0,1-1.654-.294,5.593,5.593,0,0,1-2.563-1.442,6.477,6.477,0,0,1-1.477-2.83,4.659,4.659,0,0,1-.178-.875Q72.058,14.606,72.475,14.606Zm4.5-1.477q.308,0,1.237.8,1.224,1.046,1.224,1.511a.58.58,0,0,1-.561.561q-.287,0-.581-.41a14.342,14.342,0,0,0-1.442-1.75.56.56,0,0,1-.191-.369.344.344,0,0,1,.082-.219A.274.274,0,0,1,76.973,13.13Zm-3.22-.1q.205,0,.39.3a2.6,2.6,0,0,0,.807.882.587.587,0,0,0,.246.1q.1,0,.28-.191a.294.294,0,0,1,.212-.109q.253,0,.253.342a2.053,2.053,0,0,1-.171.807q-.191.458-.485.458a1.493,1.493,0,0,1-1.012-.663,3.894,3.894,0,0,1-.793-1.367,1.058,1.058,0,0,1-.048-.239A.284.284,0,0,1,73.753,13.027ZM7.52,34.169v4.443l4.983-.239h.027a.557.557,0,0,1,.342.1.5.5,0,0,1-.273.882l-10.944.52H1.62a.533.533,0,0,1-.239-.048.437.437,0,0,1-.287-.444.432.432,0,0,1,.458-.492L6.4,38.667V34.244l-3.391.212a.589.589,0,0,1-.355-.082.421.421,0,0,1-.205-.39.432.432,0,0,1,.465-.479L6.4,33.28V29.623a.507.507,0,0,1,.157-.383.626.626,0,0,1,.868.068.535.535,0,0,1,.1.314v3.589L10.869,33a.621.621,0,0,1,.287.055.425.425,0,0,1,.253.424.421.421,0,0,1-.444.472Zm13.638.629,1.661-.137a1.58,1.58,0,0,1,.068-.171,6.088,6.088,0,0,0,.369-1,.339.339,0,0,1,.369-.273.394.394,0,0,1,.2.055q.314.164.314.4a2.43,2.43,0,0,1-.4.854l-.027.055,2.563-.226a.345.345,0,0,1,.4.383.339.339,0,0,1-.355.376l-2.563.2v.793l2.181-.178h.055q.3.007.3.383a.311.311,0,0,1-.335.342l-2.2.15v.861l2.181-.157h.041q.314,0,.314.362a.321.321,0,0,1-.335.355l-2.2.144v.991l2.926-.157q.4-.007.4.4a.337.337,0,0,1-.369.376l-5.77.267-.014.444q-.021.4-.479.4-.437,0-.458-.4l.15-4.8q-1,.943-1.381.943a.237.237,0,0,1-.164-.062.375.375,0,0,1-.144-.294q0-.157.342-.417a7.993,7.993,0,0,0,1.49-1.559,6.675,6.675,0,0,0,.622-.916.43.43,0,0,1,.41-.26.407.407,0,0,1,.171.041.443.443,0,0,1,.3.417.688.688,0,0,1-.034.178A5.128,5.128,0,0,1,21.157,34.8Zm-.123.731-.021.807,1.832-.15v-.8ZM21,37l-.014.868,1.859-.137v-.861Zm-.027,1.559-.021.95,1.894-.1v-.984Zm-3.514-1.025-1.627.185V37.8a.414.414,0,0,1-.431.424.429.429,0,0,1-.362-.171.416.416,0,0,1-.075-.253V30.525a.364.364,0,0,1,.144-.308.453.453,0,0,1,.287-.1.412.412,0,0,1,.4.239l1.606-.239a1.678,1.678,0,0,1,.219-.021q.69,0,.69.889V37.8a.443.443,0,0,1-.062.232.394.394,0,0,1-.362.191.429.429,0,0,1-.362-.171.446.446,0,0,1-.068-.253Zm0-4.17V31.25q0-.314-.273-.3l-.048.007-1.306.191v2.4Zm0,.8-1.627.2V36.89l1.627-.178Zm4.088-1.142-2.14.321q-.41,0-.41-.376a.368.368,0,0,1,.355-.4l2.208-.328.021-.868-2.017.3q-.376-.021-.376-.362a.321.321,0,0,1,.3-.362l2.112-.308.014-.608q0-.185-.144-.185h-.027l-2,.273a.334.334,0,0,1-.362-.376.35.35,0,0,1,.328-.39l2.222-.335a.959.959,0,0,1,.1-.007.739.739,0,0,1,.725.513.784.784,0,0,1,.055.294L22.442,33.1a.337.337,0,0,1-.116.232.5.5,0,0,1-.342.15.418.418,0,0,1-.417-.273.188.188,0,0,1-.021-.109Zm3.842-.191-2.16.232a.334.334,0,0,1-.369-.369.347.347,0,0,1,.335-.39l2.215-.246.027-.827-1.962.267a.323.323,0,0,1-.362-.369.319.319,0,0,1,.294-.362l2.051-.267.021-.69-.007-.048a.188.188,0,0,0-.13-.137h-.048l-2.017.314a.351.351,0,0,1-.4-.39.372.372,0,0,1,.349-.41l2.27-.335.089-.007a.744.744,0,0,1,.779.663l.014.137-.082,3.589a.37.37,0,0,1-.2.294.464.464,0,0,1-.246.082.439.439,0,0,1-.444-.267.188.188,0,0,1-.021-.109Zm7.506-1.846,5.633-.52H38.6a.456.456,0,0,1,.52.513q0,.458-.492.5l-3.069.246v3.035l5.011-.3q.574-.034.574.479a.472.472,0,0,1-.506.526l-5.079.3v4.73a.421.421,0,0,1-.068.239.5.5,0,0,1-.465.232.511.511,0,0,1-.472-.232.48.48,0,0,1-.062-.239V35.823l-4.929.287H29.49q-.5,0-.5-.472a.476.476,0,0,1,.506-.526l5-.294V31.8l-2.14.171a13.082,13.082,0,0,1-1.62,2.2.5.5,0,0,1-.349.205.381.381,0,0,1-.246-.1.333.333,0,0,1-.15-.28,1.4,1.4,0,0,1,.3-.533A12.611,12.611,0,0,0,31.4,31.585a15.607,15.607,0,0,0,.984-2.529q.157-.52.588-.52a.88.88,0,0,1,.267.041.477.477,0,0,1,.362.485,2.219,2.219,0,0,1-.137.554A12.419,12.419,0,0,1,32.895,30.983Zm17.131,7.485a15.859,15.859,0,0,1-1.244-1.183,10.4,10.4,0,0,1-1.654,1.244,1,1,0,0,1-.41.157.294.294,0,0,1-.26-.15.35.35,0,0,1-.068-.191.319.319,0,0,1,.137-.253q.048-.034.294-.185a8.61,8.61,0,0,0,2.406-2.358.477.477,0,0,1,.848.109l2.105-.212q.1-.007.13-.007.663,0,.663.567a1.426,1.426,0,0,1-.232.7,8.677,8.677,0,0,1-1.388,1.764,12.235,12.235,0,0,0,3.3,1.6q.383.109.383.253,0,.116-.239.2a3.924,3.924,0,0,1-1.217.273.822.822,0,0,1-.4-.089,18.288,18.288,0,0,1-2.468-1.668A10.149,10.149,0,0,1,48.733,40.3a4.1,4.1,0,0,1-1.292.492q-.342,0-.342-.355,0-.219.451-.4A9.237,9.237,0,0,0,49.7,38.742Q49.9,38.578,50.025,38.469Zm.581-.554a7.447,7.447,0,0,0,1.019-1.251.558.558,0,0,0,.1-.212q0-.082-.144-.068l-.055.007-1.969.171q-.109.116-.2.2A15.53,15.53,0,0,0,50.606,37.915Zm-5.947-2.892a13.936,13.936,0,0,1-1.169,1.128.725.725,0,0,1-.437.205.33.33,0,0,1-.253-.123.347.347,0,0,1-.109-.253.431.431,0,0,1,.116-.28q.027-.034.28-.273a15.15,15.15,0,0,0,2.557-3.356q.232-.4.533-.4a.468.468,0,0,1,.26.075.442.442,0,0,1,.212.383,4.412,4.412,0,0,1-1.025,1.757v6.371q0,.444-.479.444a.423.423,0,0,1-.485-.472Zm5.578-3.158q.267-.226.93-.8.376-.321.8-.738a.823.823,0,0,1,.54-.287.452.452,0,0,1,.328.144A.533.533,0,0,1,53,30.56a.45.45,0,0,1-.1.291,4.53,4.53,0,0,1-.492.455,41.1,41.1,0,0,1-3.548,2.659q1.354-.13,3.657-.526a6.679,6.679,0,0,0-.424-.54.436.436,0,0,1-.144-.294.341.341,0,0,1,.1-.226.336.336,0,0,1,.246-.1.68.68,0,0,1,.417.2,9.567,9.567,0,0,1,1.319,1.388.867.867,0,0,1,.226.506.436.436,0,0,1-.185.369.6.6,0,0,1-.369.137.551.551,0,0,1-.444-.294l-.157-.246q-.1-.164-.144-.232-.93.212-2.276.444-2.584.438-2.9.438a.384.384,0,0,1-.349-.212.766.766,0,0,1-.137-.4.314.314,0,0,1,.089-.232q.048-.048.4-.3.643-.458,1.757-1.381-.5-.2-1.456-.472-.52-.15-.52-.5t.561-.766a20.249,20.249,0,0,0,1.675-1.442q.267-.253.4-.4a.724.724,0,0,1,.52-.287.49.49,0,0,1,.349.144.51.51,0,0,1,.171.362.719.719,0,0,1-.3.492A26.731,26.731,0,0,1,48.733,31.3Q49.827,31.674,50.237,31.865Zm-4.225-2.734a.443.443,0,0,1,.314.13.423.423,0,0,1,.144.314q0,.451-1.285,1.436a6.27,6.27,0,0,1-1.887,1.2.314.314,0,0,1-.273-.137.393.393,0,0,1-.075-.226q0-.212.41-.492a11.439,11.439,0,0,0,2.105-1.9A.8.8,0,0,1,46.013,29.131Zm13.569,5.312a19.855,19.855,0,0,1-1.053-3.021,4.364,4.364,0,0,0-.424-1.053.683.683,0,0,1-.1-.335.459.459,0,0,1,.178-.362.465.465,0,0,1,.321-.123.773.773,0,0,1,.684.492,6.46,6.46,0,0,1,.4,1.292,11.6,11.6,0,0,0,.848,2.44q1.217-.827,3.876-2.44a.765.765,0,0,1,.369-.13.507.507,0,0,1,.472.287.575.575,0,0,1,.075.28.479.479,0,0,1-.2.39,3.562,3.562,0,0,1-.355.191,25.848,25.848,0,0,0-3.821,2.324q-1.928,1.422-1.928,2.673,0,1.395,2.461,1.395a25.971,25.971,0,0,0,2.933-.171,1.668,1.668,0,0,1,.185-.014.494.494,0,0,1,.4.178.483.483,0,0,1,.123.335.489.489,0,0,1-.485.533,28.178,28.178,0,0,1-3.062.116,5.38,5.38,0,0,1-2.379-.437,1.982,1.982,0,0,1-1.21-1.873A4.034,4.034,0,0,1,59.582,34.442ZM76.61,39.262l-5.653.417V39.8a.5.5,0,0,1-.13.355.545.545,0,0,1-.4.15q-.533,0-.533-.506V30.4a.474.474,0,0,1,.185-.4.558.558,0,0,1,.349-.109.47.47,0,0,1,.526.41l5.476-.588a2.693,2.693,0,0,1,.3-.021.838.838,0,0,1,.8.362,1.593,1.593,0,0,1,.15.779v9a.5.5,0,0,1-.13.355.545.545,0,0,1-.4.15q-.533,0-.533-.506Zm0-5.284V31.065a.536.536,0,0,0-.062-.267.335.335,0,0,0-.355-.171l-.062.007-5.175.533v3.281Zm0,.9-5.653.472v3.4l5.653-.41ZM87.938,34.8l1.661-.137a1.58,1.58,0,0,1,.068-.171,6.087,6.087,0,0,0,.369-1,.339.339,0,0,1,.369-.273.394.394,0,0,1,.2.055q.314.164.314.4a2.43,2.43,0,0,1-.4.854l-.027.055,2.563-.226a.345.345,0,0,1,.4.383.339.339,0,0,1-.355.376l-2.563.2v.793l2.181-.178h.055q.3.007.3.383a.311.311,0,0,1-.335.342l-2.2.15v.861l2.181-.157h.041q.314,0,.314.362a.321.321,0,0,1-.335.355l-2.2.144v.991l2.926-.157q.4-.007.4.4a.337.337,0,0,1-.369.376l-5.77.267-.014.444q-.021.4-.479.4-.437,0-.458-.4l.15-4.8q-1,.943-1.381.943a.237.237,0,0,1-.164-.062.375.375,0,0,1-.144-.294q0-.157.342-.417a7.993,7.993,0,0,0,1.49-1.559,6.674,6.674,0,0,0,.622-.916.43.43,0,0,1,.41-.26.407.407,0,0,1,.171.041.443.443,0,0,1,.3.417.688.688,0,0,1-.034.178A5.128,5.128,0,0,1,87.938,34.8Zm-.123.731-.021.807,1.832-.15v-.8ZM87.78,37l-.014.868,1.859-.137v-.861Zm-.027,1.559-.021.95,1.894-.1v-.984Zm-3.514-1.025-1.627.185V37.8a.414.414,0,0,1-.431.424.429.429,0,0,1-.362-.171.416.416,0,0,1-.075-.253V30.525a.364.364,0,0,1,.144-.308.453.453,0,0,1,.287-.1.412.412,0,0,1,.4.239l1.606-.239a1.678,1.678,0,0,1,.219-.021q.69,0,.69.889V37.8a.443.443,0,0,1-.062.232.394.394,0,0,1-.362.191.429.429,0,0,1-.362-.171.446.446,0,0,1-.068-.253Zm0-4.17V31.25q0-.314-.273-.3l-.048.007-1.306.191v2.4Zm0,.8-1.627.2V36.89l1.627-.178Zm4.088-1.142-2.14.321q-.41,0-.41-.376a.368.368,0,0,1,.355-.4l2.208-.328.021-.868-2.017.3q-.376-.021-.376-.362a.321.321,0,0,1,.3-.362l2.112-.308.014-.608q0-.185-.144-.185h-.027l-2,.273a.334.334,0,0,1-.362-.376.35.35,0,0,1,.328-.39l2.222-.335a.959.959,0,0,1,.1-.007.739.739,0,0,1,.725.513.784.784,0,0,1,.055.294L89.223,33.1a.337.337,0,0,1-.116.232.5.5,0,0,1-.342.15.418.418,0,0,1-.417-.273.188.188,0,0,1-.021-.109Zm3.842-.191-2.16.232a.334.334,0,0,1-.369-.369.347.347,0,0,1,.335-.39l2.215-.246.027-.827-1.962.267a.323.323,0,0,1-.362-.369.319.319,0,0,1,.294-.362l2.051-.267.021-.69-.007-.048a.188.188,0,0,0-.13-.137h-.048l-2.017.314a.351.351,0,0,1-.4-.39.372.372,0,0,1,.349-.41l2.27-.335.089-.007a.744.744,0,0,1,.779.663l.014.137-.082,3.589a.37.37,0,0,1-.2.294.464.464,0,0,1-.246.082.439.439,0,0,1-.444-.267.188.188,0,0,1-.021-.109Zm10.158,6.1a11.22,11.22,0,0,0,1.114.287,29.684,29.684,0,0,0,4.231.622q.5.027.5.15,0,.068-.144.2a2.307,2.307,0,0,1-1.4.677,10.087,10.087,0,0,1-1.88-.321,24.98,24.98,0,0,1-3.124-.93q-1.36-.526-3.049-1.347a10.2,10.2,0,0,1-1.586,2.03.639.639,0,0,1-.41.232.378.378,0,0,1-.212-.082.319.319,0,0,1-.157-.28q0-.144.342-.54a9.911,9.911,0,0,0,2.064-4.067q.116-.438.451-.437a.648.648,0,0,1,.294.068.417.417,0,0,1,.253.39,1.984,1.984,0,0,1-.1.485,11.5,11.5,0,0,1-.595,1.545q.793.376,2.058.854l.314.116V34.025l-2.926.205-.075.007q-.444.021-.444-.458,0-.383.438-.417l6.453-.485.055-.007q.465,0,.465.431a.434.434,0,0,1-.465.472l-2.461.178V35.9l2.871-.212h.027a.33.33,0,0,1,.253.1.5.5,0,0,1,.137.362.4.4,0,0,1-.417.458l-2.871.171Zm-.1-8.319,4.313-.28.089-.007q.69,0,.69.492a1.4,1.4,0,0,1-.226.636,5.6,5.6,0,0,1-.909,1.23.548.548,0,0,1-.342.191.349.349,0,0,1-.205-.082.257.257,0,0,1-.123-.226.9.9,0,0,1,.123-.376,2.517,2.517,0,0,0,.335-.813q0-.15-.246-.137l-8.148.54v.178q0,1.716-.7,1.716a.606.606,0,0,1-.232-.048.463.463,0,0,1-.287-.458,1.539,1.539,0,0,1,.109-.451,5.335,5.335,0,0,0,.335-1.757q0-.465.349-.465.328,0,.369.417l3.664-.239V29.021q0-.458.52-.458a.517.517,0,0,1,.417.178.409.409,0,0,1,.1.28Zm15.593,3.322v6.576a.46.46,0,0,1-.13.328.541.541,0,0,1-.39.144.508.508,0,0,1-.431-.2.42.42,0,0,1-.089-.273V34.251a16.411,16.411,0,0,1-1.976,3.069q-1.148,1.442-1.5,1.442a.36.36,0,0,1-.26-.116.382.382,0,0,1-.123-.26.476.476,0,0,1,.1-.273q.041-.048.4-.451a16.431,16.431,0,0,0,2.146-3.11q.479-.875.8-1.586l-2.659.219h-.062a.47.47,0,0,1-.362-.157.46.46,0,0,1,.321-.772L116.785,32V28.98a.428.428,0,0,1,.1-.294.525.525,0,0,1,.424-.178.5.5,0,0,1,.451.232.456.456,0,0,1,.062.239V31.92l3.151-.253h.048q.5,0,.5.458a.432.432,0,0,1-.451.472l-3.015.239a14.6,14.6,0,0,0,1.354,2.078,15.035,15.035,0,0,0,2.659,2.762q.376.294.376.438,0,.116-.359.229a2.415,2.415,0,0,1-.728.113.647.647,0,0,1-.479-.185,16.519,16.519,0,0,1-1.914-2.447A19.713,19.713,0,0,1,117.824,33.93Zm-5.38-2.092v8.285a.443.443,0,0,1-.062.232.467.467,0,0,1-.444.232q-.5,0-.5-.465V33.479q-1.265,1.859-1.736,1.859a.344.344,0,0,1-.253-.123.367.367,0,0,1-.1-.246,1.522,1.522,0,0,1,.376-.629,17.137,17.137,0,0,0,1.729-2.728,15.573,15.573,0,0,0,.984-2.174q.178-.506.54-.506a.546.546,0,0,1,.246.062.461.461,0,0,1,.273.431,1.816,1.816,0,0,1-.164.574Q112.943,30.922,112.444,31.838Z" transform="translate(593 8263)" fill="#375565"/>
    </g>
  </g>
</svg>
