<svg xmlns="http://www.w3.org/2000/svg" width="258" height="70" viewBox="0 0 258 70">
  <g id="Group_528" data-name="Group 528" transform="translate(-1080 -1225)">
    <rect id="Rectangle_108" data-name="Rectangle 108" width="258" height="70" transform="translate(1080 1225)" fill="#0085d7" opacity="0.8"/>
    <g id="Group_405" data-name="Group 405" transform="translate(609.901 -7021)">
      <path id="Path_2028" data-name="Path 2028" d="M13.266-16.617l7.828-.422a1.984,1.984,0,0,1,.762.094.959.959,0,0,1,.727,1A4.344,4.344,0,0,1,21.6-13.84q-1.043,1.465-1.676,1.465a.817.817,0,0,1-.469-.152.674.674,0,0,1-.3-.586,1.381,1.381,0,0,1,.164-.574,3.459,3.459,0,0,0,.41-1.125q0-.258-.387-.234l-6.07.328v3.82a.961.961,0,0,1-.27.691,1.434,1.434,0,0,1-1.078.41,1.315,1.315,0,0,1-1.2-.562,1.027,1.027,0,0,1-.141-.539v-3.668l-6.164.328A7.864,7.864,0,0,1,4.1-12.457a1.345,1.345,0,0,1-1.312,1.125,1.494,1.494,0,0,1-.633-.141,1.1,1.1,0,0,1-.68-1.09,2.76,2.76,0,0,1,.281-1.02,13.759,13.759,0,0,0,.668-2.262.951.951,0,0,1,1.02-.82.878.878,0,0,1,.9.539l6.234-.34v-1.066l-4.465.27q-.105.012-.141.012a.9.9,0,0,1-.738-.352.92.92,0,0,1-.2-.6.863.863,0,0,1,.891-1l11.895-.7h.082a1.055,1.055,0,0,1,.609.176.9.9,0,0,1,.387.785.9.9,0,0,1-.48.855,1.027,1.027,0,0,1-.41.105l-4.746.293ZM10.688-1.852l-2.836.129v.07q.082,1.1-1.395,1.1-1.289,0-1.395-1.1l-.6-6.5q-.012-.141-.012-.176A.944.944,0,0,1,5.016-9.3a1.987,1.987,0,0,1,.891-.176,1.338,1.338,0,0,1,1.219.527L17.719-9.6l.152-.012a1.782,1.782,0,0,1,1.3.434A1.5,1.5,0,0,1,19.652-8q0,.2-.012.328l-.656,4.77Q18.832-1.77,17.473-1.77a1.375,1.375,0,0,1-1.066-.363L13.3-1.98v.762a.549.549,0,0,0,.422.609A9.7,9.7,0,0,0,15.586-.5a29.3,29.3,0,0,0,3.891-.152,1.012,1.012,0,0,0,.9-.82,14.243,14.243,0,0,0,.152-1.477q.047-.844.809-.844.633,0,.938.785a6.069,6.069,0,0,1,.258,1A10.066,10.066,0,0,1,22.711-.3a1.74,1.74,0,0,1-1.488,1.84,28.685,28.685,0,0,1-5.355.3,14.767,14.767,0,0,1-3.984-.316,1.756,1.756,0,0,1-1.2-1.816Zm0-4.5v-1.1l-3.293.211.082,1.066Zm0,1.547-3.082.176L7.7-3.516l2.988-.141ZM13.3-3.785l3.035-.141.117-1.207L13.3-4.957Zm0-2.719,3.3-.176.082-.809q.012-.363-.34-.34l-3.047.2ZM6.023-13.9a14.47,14.47,0,0,1,2.766.387q.844.176.844.785a.73.73,0,0,1-.832.82,1.9,1.9,0,0,1-.633-.152q-.879-.316-2.262-.7-.5-.141-.5-.551Q5.4-13.9,6.023-13.9Zm-.164,2.109a15.414,15.414,0,0,1,2.754.4q.832.176.832.762a.874.874,0,0,1-.059.316.8.8,0,0,1-.809.539,1.878,1.878,0,0,1-.6-.152q-1.148-.434-2.262-.75-.5-.152-.5-.574Q5.215-11.789,5.859-11.789Zm9-2.52a15.667,15.667,0,0,1,2.73.387q.855.164.855.785a.884.884,0,0,1-.059.293.759.759,0,0,1-.809.539,2.075,2.075,0,0,1-.609-.164,15.827,15.827,0,0,0-2.273-.7.561.561,0,0,1-.492-.586Q14.2-14.309,14.859-14.309ZM14.719-12.2a11.7,11.7,0,0,1,2.707.4q.832.2.832.785a.913.913,0,0,1-.07.34.742.742,0,0,1-.75.48,2.064,2.064,0,0,1-.656-.164,20.6,20.6,0,0,0-2.262-.7q-.5-.129-.5-.562Q14.016-12.2,14.719-12.2ZM33.727-1.57a1.051,1.051,0,0,1,.469.949A.952.952,0,0,1,33.234.457L28.992.82q-.176.785-1.242.785A1.079,1.079,0,0,1,26.52.551l-.5-5.133Q26-4.687,26-4.723a1.015,1.015,0,0,1,.492-.926,1.444,1.444,0,0,1,.75-.187,1.493,1.493,0,0,1,1,.316l3.82-.387q.246-.023.422-.023,1.734,0,1.734,1.57a3.151,3.151,0,0,1-.07.539Zm-2.3.035.176-1.629.035-.234v-.059q0-.316-.328-.316-.094,0-.328.023l-2.3.234.188,2.2ZM41.977-12.973l4.008-.352h.129q1.1,0,1.1,1.219t-1.066,1.3l-4.172.363v3.328L43.7-7.242a3.761,3.761,0,0,1,.387-.023q1.84,0,1.84,1.688a4.321,4.321,0,0,1-.059.656L45.34-1.758A1.093,1.093,0,0,1,45.914-.7Q45.914.445,44.93.5L38.707.879q-.223.785-1.348.785a1.047,1.047,0,0,1-1.207-1l-.7-6.621q-.012-.152-.012-.176a.958.958,0,0,1,.492-.879,1.7,1.7,0,0,1,.867-.2,1.306,1.306,0,0,1,1.078.434l1.418-.117v-3.316l-4.031.34a1.422,1.422,0,0,1-.176.012.946.946,0,0,1-.832-.434,1.531,1.531,0,0,1-.223-.855q0-1.125,1.008-1.219l4.254-.375v-2.836l-.527.117a18.216,18.216,0,0,1-2.508.48q-.984,0-.984-1.066a.882.882,0,0,1,.516-.832,4.719,4.719,0,0,1,.855-.258,40.529,40.529,0,0,0,6.246-2.262,2.047,2.047,0,0,1,.832-.2,1.23,1.23,0,0,1,1.055.539,1.447,1.447,0,0,1,.27.867,1.2,1.2,0,0,1-.832,1.125,18.49,18.49,0,0,1-2.238.773Zm.809,11.25.328-2.426q.047-.316.047-.387,0-.293-.328-.293L42.5-4.8l-4.254.34.3,2.988ZM28.395-19.852a10.473,10.473,0,0,1,3.316,1.066q1.066.457,1.066,1.3a1.343,1.343,0,0,1-.164.621,1.2,1.2,0,0,1-1.148.691,1.817,1.817,0,0,1-1.055-.445,19.479,19.479,0,0,0-2.285-1.453q-.691-.387-.691-.9Q27.434-19.852,28.395-19.852Zm5.2,6.34-7.559.645q-.094.012-.117.012-1.09,0-1.09-1.172a.97.97,0,0,1,.961-1.113l7.535-.656h.141a.987.987,0,0,1,1.008.7,1.436,1.436,0,0,1,.094.516A.951.951,0,0,1,33.6-13.512ZM32.59-10.219l-5.039.445a.737.737,0,0,1-.117.012.9.9,0,0,1-.914-.621,1.379,1.379,0,0,1-.082-.48.9.9,0,0,1,.891-1.02l5.039-.457h.141a.9.9,0,0,1,.832.445,1.171,1.171,0,0,1,.164.621A.931.931,0,0,1,32.59-10.219ZM32.613-7.1l-5.039.457H27.48a.989.989,0,0,1-.6-.187,1.054,1.054,0,0,1-.422-.914.9.9,0,0,1,.891-1.02l5.1-.422a1.248,1.248,0,0,1,.129-.012.885.885,0,0,1,.8.422,1.091,1.091,0,0,1,.176.609A.938.938,0,0,1,32.613-7.1Zm28.324-6.6q-2.578.609-6.152,1.172-3.105.48-3.551.48-1.441,0-1.441-1.559a1.217,1.217,0,0,1,.891-1.277,9.444,9.444,0,0,1,1.324-.176q1.969-.187,5.32-.691,4.09-.609,6.773-1.172a3.593,3.593,0,0,1,.68-.082,1.351,1.351,0,0,1,1.277.785,2.07,2.07,0,0,1,.246.949,1.249,1.249,0,0,1-.973,1.23,8.785,8.785,0,0,0-3.516,2.4,6.9,6.9,0,0,0-1.934,4.863A4.2,4.2,0,0,0,61.008-3.8,5.5,5.5,0,0,0,63.645-2.32,1.419,1.419,0,0,1,64.852-.867,1.717,1.717,0,0,1,64.5.211,1.274,1.274,0,0,1,63.422.7,5.64,5.64,0,0,1,60.645-.328a7.02,7.02,0,0,1-3.6-6.281,8.266,8.266,0,0,1,2.836-6.234,9.4,9.4,0,0,1,.914-.75ZM66.68-18.82q.656,0,2.109,1.313,1.23,1.113,1.23,1.758a.988.988,0,0,1-.4.785,1.1,1.1,0,0,1-.715.258,1.076,1.076,0,0,1-.914-.609,12.39,12.39,0,0,0-1.664-2.133,1.042,1.042,0,0,1-.328-.7A.6.6,0,0,1,66.68-18.82Zm1.969-1.793A3.836,3.836,0,0,1,70.664-19.5q1.23,1.031,1.23,1.758a.946.946,0,0,1-.387.8,1.028,1.028,0,0,1-.633.211,1.106,1.106,0,0,1-.891-.586,11.264,11.264,0,0,0-1.664-1.957,1.019,1.019,0,0,1-.375-.7.622.622,0,0,1,.188-.434A.674.674,0,0,1,68.648-20.613Zm17.027,8.5,6.7-.6a1.5,1.5,0,0,1,.223-.012,1.806,1.806,0,0,1,1.031.27,1.053,1.053,0,0,1,.469.914,2.774,2.774,0,0,1-.727,1.652A19.711,19.711,0,0,1,89.66-6.258a1.941,1.941,0,0,1-1.066.469.926.926,0,0,1-.68-.316.9.9,0,0,1-.293-.645,1.471,1.471,0,0,1,.492-.9,8.014,8.014,0,0,0,1.664-2.109q0-.129-.246-.129h-.152L74.953-8.5q-.117.012-.152.012a1.186,1.186,0,0,1-.82-.293,1.216,1.216,0,0,1-.4-1q0-1.266,1.078-1.359l8.133-.727a18.616,18.616,0,0,0-2.66-2.18.932.932,0,0,1-.48-.8,1.014,1.014,0,0,1,.211-.6.736.736,0,0,1,.621-.316A8.533,8.533,0,0,1,83.777-14.3q2.063-1.687,2.063-2.039,0-.141-.258-.141-.023,0-.141.012l-7.395.727q-.176.012-.223.012-1.137,0-1.137-1.359a1.01,1.01,0,0,1,1.02-1.148L88.289-19.1q.117-.012.234-.012a1.841,1.841,0,0,1,1.031.27,1.12,1.12,0,0,1,.539.973,2.357,2.357,0,0,1-.809,1.57A27.273,27.273,0,0,1,85.453-13a1.239,1.239,0,0,1,.234.715A1.587,1.587,0,0,1,85.676-12.117Zm-.164,4.148V-.621q0,2.52-2.238,2.52a8.7,8.7,0,0,1-2.824-.7A9.816,9.816,0,0,1,78.691.352a1.026,1.026,0,0,1-.539-.844q0-.809.867-.809a3.088,3.088,0,0,1,.586.082,11.581,11.581,0,0,0,2.2.328q.516,0,.633-.328a1.927,1.927,0,0,0,.07-.586V-7.969A1.1,1.1,0,0,1,83.156-9a1.825,1.825,0,0,1,.867-.211,1.571,1.571,0,0,1,1.2.469A1.071,1.071,0,0,1,85.512-7.969Zm15.645-4.98a34.182,34.182,0,0,0,2.426-3.059,1.465,1.465,0,0,1,1.172-.75,1.234,1.234,0,0,1,.832.328,1.087,1.087,0,0,1,.41.855,2.471,2.471,0,0,1-.6,1.336,28.32,28.32,0,0,1-5.074,5.1q1.8-.352,3.738-.9l-.129-.258-.105-.211a1.869,1.869,0,0,1-.211-.715.725.725,0,0,1,.375-.645.845.845,0,0,1,.492-.164,1.347,1.347,0,0,1,.973.645q1.746,2.2,1.746,3.141a.971.971,0,0,1-.574.9,1.236,1.236,0,0,1-.6.152,1.082,1.082,0,0,1-1.008-.656q-.023-.047-.187-.457-.422.164-1.371.434V.773a.894.894,0,0,1-.246.621,1.342,1.342,0,0,1-1.043.41,1.215,1.215,0,0,1-1.137-.574.884.884,0,0,1-.117-.457V-7.242a20.061,20.061,0,0,1-2.871.539.889.889,0,0,1-.8-.516,1.734,1.734,0,0,1-.258-.8.979.979,0,0,1,.234-.621q.07-.094.551-.6.316-.328,1.945-2.086-.527-.3-1.406-.738-1.172-.574-1.172-1.277a2.736,2.736,0,0,1,.8-1.488,43.382,43.382,0,0,0,2.93-4.066,1.508,1.508,0,0,1,1.23-.809,1.375,1.375,0,0,1,.715.211,1.07,1.07,0,0,1,.551.961,2.181,2.181,0,0,1-.48,1.207,28.69,28.69,0,0,1-3.07,3.563q.727.41,1.207.715Zm8.684.3a19.635,19.635,0,0,1-1.453,1.957,1.381,1.381,0,0,1-1.031.574,1.04,1.04,0,0,1-.645-.234.937.937,0,0,1-.363-.785,3.032,3.032,0,0,1,.539-1.3,21.707,21.707,0,0,0,1.547-3.234,22.466,22.466,0,0,0,.855-2.625q.328-1.324,1.395-1.324a1.7,1.7,0,0,1,.949.293,1.205,1.205,0,0,1,.586,1.078,9.509,9.509,0,0,1-.926,2.93l4.219-.4a5.322,5.322,0,0,1,.551-.035,2.107,2.107,0,0,1,1.863.762,3.644,3.644,0,0,1,.422,2.027A62.139,62.139,0,0,1,117.5-2.637,11.075,11.075,0,0,1,116.7.434a2,2,0,0,1-1.863,1.1A8.567,8.567,0,0,1,111,.2q-.914-.5-.914-1.09a.922.922,0,0,1,.129-.469.7.7,0,0,1,.68-.387,2.84,2.84,0,0,1,.773.164,6.236,6.236,0,0,0,1.84.328,1.007,1.007,0,0,0,1.031-.914q.316-1.348.621-3.773a51.772,51.772,0,0,0,.41-6.211q0-.738-.3-.891a.877.877,0,0,0-.387-.07,1.248,1.248,0,0,0-.129.012ZM99.164-6.211a1.454,1.454,0,0,1,.586.117,1.159,1.159,0,0,1,.715,1.16q0,1.3-1.77,4.336-.445.762-.984.762a.928.928,0,0,1-.434-.117.91.91,0,0,1-.551-.855,2.611,2.611,0,0,1,.2-.8,24.925,24.925,0,0,0,1.043-3.551A1.157,1.157,0,0,1,99.164-6.211Zm5.648-.527a1.091,1.091,0,0,1,.844.539A12.416,12.416,0,0,1,107.1-3.48a2.944,2.944,0,0,1,.27,1.031,1.051,1.051,0,0,1-.621,1.02,1.521,1.521,0,0,1-.668.152,1.118,1.118,0,0,1-1.125-.984q-.422-1.617-.891-3.164a1.791,1.791,0,0,1-.082-.492.759.759,0,0,1,.387-.691A.841.841,0,0,1,104.813-6.738Zm4.664-3.5A3.9,3.9,0,0,1,111.6-8.977q1.781,1.629,1.781,2.625a1.256,1.256,0,0,1-.445.973,1.537,1.537,0,0,1-1.078.422,1.421,1.421,0,0,1-1.3-.949,14.75,14.75,0,0,0-1.664-2.613,1.357,1.357,0,0,1-.34-.82.867.867,0,0,1,.363-.715A.9.9,0,0,1,109.477-10.242Z" transform="translate(561.305 8291)" fill="#fff"/>
      <path id="Icon_awesome-phone-alt" data-name="Icon awesome-phone-alt" d="M24.535,17.847,19.01,15.479a1.184,1.184,0,0,0-1.381.34l-2.447,2.989a18.284,18.284,0,0,1-8.74-8.74L9.431,7.622a1.181,1.181,0,0,0,.34-1.381L7.4.716A1.192,1.192,0,0,0,6.048.03L.917,1.214A1.184,1.184,0,0,0,0,2.368,22.886,22.886,0,0,0,22.888,25.256a1.184,1.184,0,0,0,1.154-.917l1.184-5.13a1.2,1.2,0,0,0-.691-1.361Z" transform="translate(516.1 8269)" fill="#fff"/>
    </g>
  </g>
</svg>
