<svg xmlns="http://www.w3.org/2000/svg" width="222" height="70" viewBox="0 0 222 70">
  <g id="Group_404" data-name="Group 404" transform="translate(-1313.1 -8225)">
    <g id="Group_458" data-name="Group 458" transform="translate(167)">
      <rect id="Rectangle_112" data-name="Rectangle 112" width="222" height="70" transform="translate(1146.1 8225)" fill="#06c152"/>
      <g id="Group_403" data-name="Group 403" transform="translate(144.199 -17)">
        <path id="Path_2029" data-name="Path 2029" d="M5.52-16.781V-3.773a.445.445,0,0,0,.5.5H13.7a1.153,1.153,0,0,1,.6.152,1.38,1.38,0,0,1,.609,1.277,1.523,1.523,0,0,1-.457,1.2,1.065,1.065,0,0,1-.75.281H4.676a2.217,2.217,0,0,1-2.5-2.52v-13.9a1.212,1.212,0,0,1,.738-1.16,2.015,2.015,0,0,1,.914-.211,1.957,1.957,0,0,1,1.16.34A1.2,1.2,0,0,1,5.52-16.781Zm13.8,1.324H17.566a.914.914,0,0,1-.656-.258,1.253,1.253,0,0,1-.375-.961,1.165,1.165,0,0,1,.5-1.055.911.911,0,0,1,.527-.152h6.762a.97.97,0,0,1,.68.258,1.251,1.251,0,0,1,.363.961,1.183,1.183,0,0,1-.5,1.055.932.932,0,0,1-.539.152H22.582V-2.789h1.746a.97.97,0,0,1,.68.258,1.251,1.251,0,0,1,.363.961,1.183,1.183,0,0,1-.5,1.055.932.932,0,0,1-.539.152H17.566a.914.914,0,0,1-.656-.258,1.231,1.231,0,0,1-.375-.961,1.165,1.165,0,0,1,.5-1.055.911.911,0,0,1,.527-.152h1.758Zm21.141,10.3-.187-11.719a1.066,1.066,0,0,1,.352-.832,1.74,1.74,0,0,1,1.23-.434,1.643,1.643,0,0,1,1.313.527,1.1,1.1,0,0,1,.27.738v14.59a2.383,2.383,0,0,1-.492,1.547,1.788,1.788,0,0,1-1.465.645A2.544,2.544,0,0,1,39.2-1.535l-7.418-12.8.188,12.961a1.107,1.107,0,0,1-.387.891,1.766,1.766,0,0,1-1.207.41A1.557,1.557,0,0,1,28.992-.7a1.176,1.176,0,0,1-.187-.668V-15.8a2.172,2.172,0,0,1,1.23-2.051,2.682,2.682,0,0,1,1.277-.3,2.87,2.87,0,0,1,2.6,1.617ZM51.105-7.992v4.359a.383.383,0,0,0,.434.434h8.379a1.042,1.042,0,0,1,.8.34,1.535,1.535,0,0,1,.375,1.078A1.355,1.355,0,0,1,60.469-.5a1.09,1.09,0,0,1-.551.141H50.145A2.061,2.061,0,0,1,47.813-2.7V-15.551a2.061,2.061,0,0,1,2.332-2.332h9.41a1.077,1.077,0,0,1,.738.281,1.459,1.459,0,0,1,.434,1.113,1.309,1.309,0,0,1-.621,1.23,1.05,1.05,0,0,1-.551.141H51.539q-.434,0-.434.457v3.938h7.418a.97.97,0,0,1,.68.258,1.45,1.45,0,0,1,.422,1.125,1.315,1.315,0,0,1-.562,1.2.932.932,0,0,1-.539.152ZM74.391-13.7q-2.578.609-6.152,1.172-3.105.48-3.551.48-1.441,0-1.441-1.559a1.217,1.217,0,0,1,.891-1.277,9.444,9.444,0,0,1,1.324-.176q2.3-.223,6.363-.844,3.117-.48,5.379-.937A7.151,7.151,0,0,1,78.234-17a1.314,1.314,0,0,1,1.219.691,2.031,2.031,0,0,1,.3,1.043,1.249,1.249,0,0,1-.973,1.23,8.785,8.785,0,0,0-3.516,2.4,6.9,6.9,0,0,0-1.934,4.863A4.2,4.2,0,0,0,74.461-3.8,5.5,5.5,0,0,0,77.1-2.32,1.419,1.419,0,0,1,78.3-.867,1.717,1.717,0,0,1,77.953.211,1.274,1.274,0,0,1,76.875.7,5.64,5.64,0,0,1,74.1-.328a7.02,7.02,0,0,1-3.6-6.281,8.266,8.266,0,0,1,2.836-6.234,9.4,9.4,0,0,1,.914-.75Zm5.742-5.121q.656,0,2.109,1.313,1.23,1.113,1.23,1.758a.988.988,0,0,1-.4.785,1.1,1.1,0,0,1-.715.258,1.076,1.076,0,0,1-.914-.609,12.39,12.39,0,0,0-1.664-2.133,1.042,1.042,0,0,1-.328-.7A.6.6,0,0,1,80.133-18.82ZM82.1-20.613A3.836,3.836,0,0,1,84.117-19.5q1.23,1.031,1.23,1.758a.946.946,0,0,1-.387.8,1.028,1.028,0,0,1-.633.211,1.106,1.106,0,0,1-.891-.586,11.264,11.264,0,0,0-1.664-1.957,1.019,1.019,0,0,1-.375-.7.622.622,0,0,1,.188-.434A.674.674,0,0,1,82.1-20.613Zm17.027,8.5,6.7-.6a1.5,1.5,0,0,1,.223-.012,1.806,1.806,0,0,1,1.031.27,1.053,1.053,0,0,1,.469.914,2.774,2.774,0,0,1-.727,1.652,19.711,19.711,0,0,1-3.715,3.633,1.941,1.941,0,0,1-1.066.469.926.926,0,0,1-.68-.316.9.9,0,0,1-.293-.645,1.471,1.471,0,0,1,.492-.9,8.014,8.014,0,0,0,1.664-2.109q0-.129-.246-.129h-.152L88.406-8.5q-.117.012-.152.012a1.186,1.186,0,0,1-.82-.293,1.216,1.216,0,0,1-.4-1q0-1.266,1.078-1.359l8.133-.727a18.616,18.616,0,0,0-2.66-2.18.932.932,0,0,1-.48-.8,1.014,1.014,0,0,1,.211-.6.736.736,0,0,1,.621-.316A8.533,8.533,0,0,1,97.23-14.3q2.063-1.687,2.063-2.039,0-.141-.258-.141-.023,0-.141.012l-7.395.727q-.176.012-.223.012-1.137,0-1.137-1.359a1.01,1.01,0,0,1,1.02-1.148l10.582-.867q.117-.012.234-.012a1.841,1.841,0,0,1,1.031.27,1.12,1.12,0,0,1,.539.973,2.357,2.357,0,0,1-.809,1.57A27.273,27.273,0,0,1,98.906-13a1.239,1.239,0,0,1,.234.715A1.587,1.587,0,0,1,99.129-12.117Zm-.164,4.148V-.621q0,2.52-2.238,2.52A8.7,8.7,0,0,1,93.9,1.2,9.816,9.816,0,0,1,92.145.352a1.026,1.026,0,0,1-.539-.844q0-.809.867-.809a3.088,3.088,0,0,1,.586.082,11.581,11.581,0,0,0,2.2.328q.516,0,.633-.328a1.927,1.927,0,0,0,.07-.586V-7.969A1.1,1.1,0,0,1,96.609-9a1.825,1.825,0,0,1,.867-.211,1.571,1.571,0,0,1,1.2.469A1.071,1.071,0,0,1,98.965-7.969Zm15.645-4.98a34.182,34.182,0,0,0,2.426-3.059,1.465,1.465,0,0,1,1.172-.75,1.234,1.234,0,0,1,.832.328,1.087,1.087,0,0,1,.41.855,2.471,2.471,0,0,1-.6,1.336,28.32,28.32,0,0,1-5.074,5.1q1.8-.352,3.738-.9l-.129-.258-.105-.211a1.869,1.869,0,0,1-.211-.715.725.725,0,0,1,.375-.645.845.845,0,0,1,.492-.164,1.347,1.347,0,0,1,.973.645q1.746,2.2,1.746,3.141a.971.971,0,0,1-.574.9,1.236,1.236,0,0,1-.6.152,1.082,1.082,0,0,1-1.008-.656q-.023-.047-.187-.457-.422.164-1.371.434V.773a.894.894,0,0,1-.246.621,1.342,1.342,0,0,1-1.043.41,1.215,1.215,0,0,1-1.137-.574.884.884,0,0,1-.117-.457V-7.242A20.061,20.061,0,0,1,111.5-6.7a.889.889,0,0,1-.8-.516,1.734,1.734,0,0,1-.258-.8.979.979,0,0,1,.234-.621q.07-.094.551-.6.316-.328,1.945-2.086-.527-.3-1.406-.738-1.172-.574-1.172-1.277a2.736,2.736,0,0,1,.8-1.488,43.382,43.382,0,0,0,2.93-4.066,1.508,1.508,0,0,1,1.23-.809,1.375,1.375,0,0,1,.715.211,1.07,1.07,0,0,1,.551.961,2.181,2.181,0,0,1-.48,1.207,28.69,28.69,0,0,1-3.07,3.563q.727.41,1.207.715Zm8.684.3a19.635,19.635,0,0,1-1.453,1.957,1.381,1.381,0,0,1-1.031.574,1.04,1.04,0,0,1-.645-.234.937.937,0,0,1-.363-.785,3.032,3.032,0,0,1,.539-1.3,21.707,21.707,0,0,0,1.547-3.234,22.466,22.466,0,0,0,.855-2.625q.328-1.324,1.395-1.324a1.7,1.7,0,0,1,.949.293,1.205,1.205,0,0,1,.586,1.078,9.509,9.509,0,0,1-.926,2.93l4.219-.4a5.322,5.322,0,0,1,.551-.035,2.107,2.107,0,0,1,1.863.762,3.644,3.644,0,0,1,.422,2.027,62.139,62.139,0,0,1-.844,10.324,11.075,11.075,0,0,1-.809,3.07,2,2,0,0,1-1.863,1.1A8.567,8.567,0,0,1,124.453.2q-.914-.5-.914-1.09a.922.922,0,0,1,.129-.469.7.7,0,0,1,.68-.387,2.84,2.84,0,0,1,.773.164,6.236,6.236,0,0,0,1.84.328,1.007,1.007,0,0,0,1.031-.914q.316-1.348.621-3.773a51.772,51.772,0,0,0,.41-6.211q0-.738-.3-.891a.877.877,0,0,0-.387-.07,1.248,1.248,0,0,0-.129.012ZM112.617-6.211a1.454,1.454,0,0,1,.586.117,1.159,1.159,0,0,1,.715,1.16q0,1.3-1.77,4.336-.445.762-.984.762a.928.928,0,0,1-.434-.117.91.91,0,0,1-.551-.855,2.611,2.611,0,0,1,.2-.8,24.925,24.925,0,0,0,1.043-3.551A1.157,1.157,0,0,1,112.617-6.211Zm5.648-.527a1.091,1.091,0,0,1,.844.539,12.416,12.416,0,0,1,1.441,2.719,2.944,2.944,0,0,1,.27,1.031,1.051,1.051,0,0,1-.621,1.02,1.521,1.521,0,0,1-.668.152,1.118,1.118,0,0,1-1.125-.984q-.422-1.617-.891-3.164a1.791,1.791,0,0,1-.082-.492.759.759,0,0,1,.387-.691A.841.841,0,0,1,118.266-6.738Zm4.664-3.5a3.9,3.9,0,0,1,2.121,1.266q1.781,1.629,1.781,2.625a1.256,1.256,0,0,1-.445.973,1.537,1.537,0,0,1-1.078.422,1.421,1.421,0,0,1-1.3-.949,14.75,14.75,0,0,0-1.664-2.613,1.357,1.357,0,0,1-.34-.82.867.867,0,0,1,.363-.715A.9.9,0,0,1,122.93-10.242Z" transform="translate(1079.9 8286)" fill="#fff"/>
        <path id="Icon_simple-line" data-name="Icon simple-line" d="M23.131,11.956a.753.753,0,0,1,0,1.506h-2.1v1.344h2.1a.752.752,0,1,1,0,1.5h-2.85a.754.754,0,0,1-.749-.751V9.86a.755.755,0,0,1,.753-.753h2.85a.753.753,0,0,1,0,1.505h-2.1v1.344h2.1Zm-4.6,3.6a.752.752,0,0,1-.516.712.772.772,0,0,1-.238.037.739.739,0,0,1-.609-.3l-2.918-3.962v3.512a.751.751,0,1,1-1.5,0V9.86a.749.749,0,0,1,.514-.711.7.7,0,0,1,.232-.039.773.773,0,0,1,.591.3l2.941,3.978V9.86a.753.753,0,1,1,1.505,0v5.7Zm-6.858,0a.751.751,0,1,1-1.5,0V9.86a.751.751,0,1,1,1.5,0Zm-2.946.751H5.873a.757.757,0,0,1-.753-.751V9.86a.753.753,0,0,1,1.505,0v4.946h2.1a.752.752,0,0,1,0,1.5m19.945-3.815C28.668,6.079,22.236.858,14.334.858S0,6.079,0,12.495c0,5.747,5.1,10.562,11.987,11.477.467.1,1.1.308,1.264.7a2.918,2.918,0,0,1,.045,1.29l-.2,1.218c-.054.36-.287,1.417,1.253.77s8.261-4.871,11.271-8.332a10.3,10.3,0,0,0,3.044-7.129" transform="translate(1037.9 8266.142)" fill="#fff"/>
      </g>
    </g>
  </g>
</svg>
