<svg xmlns="http://www.w3.org/2000/svg" xmlns:xlink="http://www.w3.org/1999/xlink" width="3082" height="62" viewBox="0 0 3082 62">
  <defs>
    <clipPath id="clip-path">
      <rect width="3082" height="62" fill="none"/>
    </clipPath>
  </defs>
  <g id="Repeat_Grid_10" data-name="Repeat Grid 10" clip-path="url(#clip-path)">
    <g transform="translate(2249 -6493)">
      <circle id="Ellipse_45" data-name="Ellipse 45" cx="31" cy="31" r="31" transform="translate(-2249 6493)" fill="#f2f9fd"/>
    </g>
    <g transform="translate(2303 -6493)">
      <circle id="Ellipse_45-2" data-name="Ellipse 45" cx="31" cy="31" r="31" transform="translate(-2249 6493)" fill="#f2f9fd"/>
    </g>
    <g transform="translate(2357 -6493)">
      <circle id="Ellipse_45-3" data-name="Ellipse 45" cx="31" cy="31" r="31" transform="translate(-2249 6493)" fill="#f2f9fd"/>
    </g>
    <g transform="translate(2411 -6493)">
      <circle id="Ellipse_45-4" data-name="Ellipse 45" cx="31" cy="31" r="31" transform="translate(-2249 6493)" fill="#f2f9fd"/>
    </g>
    <g transform="translate(2465 -6493)">
      <circle id="Ellipse_45-5" data-name="Ellipse 45" cx="31" cy="31" r="31" transform="translate(-2249 6493)" fill="#f2f9fd"/>
    </g>
    <g transform="translate(2519 -6493)">
      <circle id="Ellipse_45-6" data-name="Ellipse 45" cx="31" cy="31" r="31" transform="translate(-2249 6493)" fill="#f2f9fd"/>
    </g>
    <g transform="translate(2573 -6493)">
      <circle id="Ellipse_45-7" data-name="Ellipse 45" cx="31" cy="31" r="31" transform="translate(-2249 6493)" fill="#f2f9fd"/>
    </g>
    <g transform="translate(2627 -6493)">
      <circle id="Ellipse_45-8" data-name="Ellipse 45" cx="31" cy="31" r="31" transform="translate(-2249 6493)" fill="#f2f9fd"/>
    </g>
    <g transform="translate(2681 -6493)">
      <circle id="Ellipse_45-9" data-name="Ellipse 45" cx="31" cy="31" r="31" transform="translate(-2249 6493)" fill="#f2f9fd"/>
    </g>
    <g transform="translate(2735 -6493)">
      <circle id="Ellipse_45-10" data-name="Ellipse 45" cx="31" cy="31" r="31" transform="translate(-2249 6493)" fill="#f2f9fd"/>
    </g>
    <g transform="translate(2789 -6493)">
      <circle id="Ellipse_45-11" data-name="Ellipse 45" cx="31" cy="31" r="31" transform="translate(-2249 6493)" fill="#f2f9fd"/>
    </g>
    <g transform="translate(2843 -6493)">
      <circle id="Ellipse_45-12" data-name="Ellipse 45" cx="31" cy="31" r="31" transform="translate(-2249 6493)" fill="#f2f9fd"/>
    </g>
    <g transform="translate(2897 -6493)">
      <circle id="Ellipse_45-13" data-name="Ellipse 45" cx="31" cy="31" r="31" transform="translate(-2249 6493)" fill="#f2f9fd"/>
    </g>
    <g transform="translate(2951 -6493)">
      <circle id="Ellipse_45-14" data-name="Ellipse 45" cx="31" cy="31" r="31" transform="translate(-2249 6493)" fill="#f2f9fd"/>
    </g>
    <g transform="translate(3005 -6493)">
      <circle id="Ellipse_45-15" data-name="Ellipse 45" cx="31" cy="31" r="31" transform="translate(-2249 6493)" fill="#f2f9fd"/>
    </g>
    <g transform="translate(3059 -6493)">
      <circle id="Ellipse_45-16" data-name="Ellipse 45" cx="31" cy="31" r="31" transform="translate(-2249 6493)" fill="#f2f9fd"/>
    </g>
    <g transform="translate(3113 -6493)">
      <circle id="Ellipse_45-17" data-name="Ellipse 45" cx="31" cy="31" r="31" transform="translate(-2249 6493)" fill="#f2f9fd"/>
    </g>
    <g transform="translate(3167 -6493)">
      <circle id="Ellipse_45-18" data-name="Ellipse 45" cx="31" cy="31" r="31" transform="translate(-2249 6493)" fill="#f2f9fd"/>
    </g>
    <g transform="translate(3221 -6493)">
      <circle id="Ellipse_45-19" data-name="Ellipse 45" cx="31" cy="31" r="31" transform="translate(-2249 6493)" fill="#f2f9fd"/>
    </g>
    <g transform="translate(3275 -6493)">
      <circle id="Ellipse_45-20" data-name="Ellipse 45" cx="31" cy="31" r="31" transform="translate(-2249 6493)" fill="#f2f9fd"/>
    </g>
    <g transform="translate(3329 -6493)">
      <circle id="Ellipse_45-21" data-name="Ellipse 45" cx="31" cy="31" r="31" transform="translate(-2249 6493)" fill="#f2f9fd"/>
    </g>
    <g transform="translate(3383 -6493)">
      <circle id="Ellipse_45-22" data-name="Ellipse 45" cx="31" cy="31" r="31" transform="translate(-2249 6493)" fill="#f2f9fd"/>
    </g>
    <g transform="translate(3437 -6493)">
      <circle id="Ellipse_45-23" data-name="Ellipse 45" cx="31" cy="31" r="31" transform="translate(-2249 6493)" fill="#f2f9fd"/>
    </g>
    <g transform="translate(3491 -6493)">
      <circle id="Ellipse_45-24" data-name="Ellipse 45" cx="31" cy="31" r="31" transform="translate(-2249 6493)" fill="#f2f9fd"/>
    </g>
    <g transform="translate(3545 -6493)">
      <circle id="Ellipse_45-25" data-name="Ellipse 45" cx="31" cy="31" r="31" transform="translate(-2249 6493)" fill="#f2f9fd"/>
    </g>
    <g transform="translate(3599 -6493)">
      <circle id="Ellipse_45-26" data-name="Ellipse 45" cx="31" cy="31" r="31" transform="translate(-2249 6493)" fill="#f2f9fd"/>
    </g>
    <g transform="translate(3653 -6493)">
      <circle id="Ellipse_45-27" data-name="Ellipse 45" cx="31" cy="31" r="31" transform="translate(-2249 6493)" fill="#f2f9fd"/>
    </g>
    <g transform="translate(3707 -6493)">
      <circle id="Ellipse_45-28" data-name="Ellipse 45" cx="31" cy="31" r="31" transform="translate(-2249 6493)" fill="#f2f9fd"/>
    </g>
    <g transform="translate(3761 -6493)">
      <circle id="Ellipse_45-29" data-name="Ellipse 45" cx="31" cy="31" r="31" transform="translate(-2249 6493)" fill="#f2f9fd"/>
    </g>
    <g transform="translate(3815 -6493)">
      <circle id="Ellipse_45-30" data-name="Ellipse 45" cx="31" cy="31" r="31" transform="translate(-2249 6493)" fill="#f2f9fd"/>
    </g>
    <g transform="translate(3869 -6493)">
      <circle id="Ellipse_45-31" data-name="Ellipse 45" cx="31" cy="31" r="31" transform="translate(-2249 6493)" fill="#f2f9fd"/>
    </g>
    <g transform="translate(3923 -6493)">
      <circle id="Ellipse_45-32" data-name="Ellipse 45" cx="31" cy="31" r="31" transform="translate(-2249 6493)" fill="#f2f9fd"/>
    </g>
    <g transform="translate(3977 -6493)">
      <circle id="Ellipse_45-33" data-name="Ellipse 45" cx="31" cy="31" r="31" transform="translate(-2249 6493)" fill="#f2f9fd"/>
    </g>
    <g transform="translate(4031 -6493)">
      <circle id="Ellipse_45-34" data-name="Ellipse 45" cx="31" cy="31" r="31" transform="translate(-2249 6493)" fill="#f2f9fd"/>
    </g>
    <g transform="translate(4085 -6493)">
      <circle id="Ellipse_45-35" data-name="Ellipse 45" cx="31" cy="31" r="31" transform="translate(-2249 6493)" fill="#f2f9fd"/>
    </g>
    <g transform="translate(4139 -6493)">
      <circle id="Ellipse_45-36" data-name="Ellipse 45" cx="31" cy="31" r="31" transform="translate(-2249 6493)" fill="#f2f9fd"/>
    </g>
    <g transform="translate(4193 -6493)">
      <circle id="Ellipse_45-37" data-name="Ellipse 45" cx="31" cy="31" r="31" transform="translate(-2249 6493)" fill="#f2f9fd"/>
    </g>
    <g transform="translate(4247 -6493)">
      <circle id="Ellipse_45-38" data-name="Ellipse 45" cx="31" cy="31" r="31" transform="translate(-2249 6493)" fill="#f2f9fd"/>
    </g>
    <g transform="translate(4301 -6493)">
      <circle id="Ellipse_45-39" data-name="Ellipse 45" cx="31" cy="31" r="31" transform="translate(-2249 6493)" fill="#f2f9fd"/>
    </g>
    <g transform="translate(4355 -6493)">
      <circle id="Ellipse_45-40" data-name="Ellipse 45" cx="31" cy="31" r="31" transform="translate(-2249 6493)" fill="#f2f9fd"/>
    </g>
    <g transform="translate(4409 -6493)">
      <circle id="Ellipse_45-41" data-name="Ellipse 45" cx="31" cy="31" r="31" transform="translate(-2249 6493)" fill="#f2f9fd"/>
    </g>
    <g transform="translate(4463 -6493)">
      <circle id="Ellipse_45-42" data-name="Ellipse 45" cx="31" cy="31" r="31" transform="translate(-2249 6493)" fill="#f2f9fd"/>
    </g>
    <g transform="translate(4517 -6493)">
      <circle id="Ellipse_45-43" data-name="Ellipse 45" cx="31" cy="31" r="31" transform="translate(-2249 6493)" fill="#f2f9fd"/>
    </g>
    <g transform="translate(4571 -6493)">
      <circle id="Ellipse_45-44" data-name="Ellipse 45" cx="31" cy="31" r="31" transform="translate(-2249 6493)" fill="#f2f9fd"/>
    </g>
    <g transform="translate(4625 -6493)">
      <circle id="Ellipse_45-45" data-name="Ellipse 45" cx="31" cy="31" r="31" transform="translate(-2249 6493)" fill="#f2f9fd"/>
    </g>
    <g transform="translate(4679 -6493)">
      <circle id="Ellipse_45-46" data-name="Ellipse 45" cx="31" cy="31" r="31" transform="translate(-2249 6493)" fill="#f2f9fd"/>
    </g>
    <g transform="translate(4733 -6493)">
      <circle id="Ellipse_45-47" data-name="Ellipse 45" cx="31" cy="31" r="31" transform="translate(-2249 6493)" fill="#f2f9fd"/>
    </g>
    <g transform="translate(4787 -6493)">
      <circle id="Ellipse_45-48" data-name="Ellipse 45" cx="31" cy="31" r="31" transform="translate(-2249 6493)" fill="#f2f9fd"/>
    </g>
    <g transform="translate(4841 -6493)">
      <circle id="Ellipse_45-49" data-name="Ellipse 45" cx="31" cy="31" r="31" transform="translate(-2249 6493)" fill="#f2f9fd"/>
    </g>
    <g transform="translate(4895 -6493)">
      <circle id="Ellipse_45-50" data-name="Ellipse 45" cx="31" cy="31" r="31" transform="translate(-2249 6493)" fill="#f2f9fd"/>
    </g>
    <g transform="translate(4949 -6493)">
      <circle id="Ellipse_45-51" data-name="Ellipse 45" cx="31" cy="31" r="31" transform="translate(-2249 6493)" fill="#f2f9fd"/>
    </g>
    <g transform="translate(5003 -6493)">
      <circle id="Ellipse_45-52" data-name="Ellipse 45" cx="31" cy="31" r="31" transform="translate(-2249 6493)" fill="#f2f9fd"/>
    </g>
    <g transform="translate(5057 -6493)">
      <circle id="Ellipse_45-53" data-name="Ellipse 45" cx="31" cy="31" r="31" transform="translate(-2249 6493)" fill="#f2f9fd"/>
    </g>
    <g transform="translate(5111 -6493)">
      <circle id="Ellipse_45-54" data-name="Ellipse 45" cx="31" cy="31" r="31" transform="translate(-2249 6493)" fill="#f2f9fd"/>
    </g>
    <g transform="translate(5165 -6493)">
      <circle id="Ellipse_45-55" data-name="Ellipse 45" cx="31" cy="31" r="31" transform="translate(-2249 6493)" fill="#f2f9fd"/>
    </g>
    <g transform="translate(5219 -6493)">
      <circle id="Ellipse_45-56" data-name="Ellipse 45" cx="31" cy="31" r="31" transform="translate(-2249 6493)" fill="#f2f9fd"/>
    </g>
    <g transform="translate(5273 -6493)">
      <circle id="Ellipse_45-57" data-name="Ellipse 45" cx="31" cy="31" r="31" transform="translate(-2249 6493)" fill="#f2f9fd"/>
    </g>
    <g transform="translate(5327 -6493)">
      <circle id="Ellipse_45-58" data-name="Ellipse 45" cx="31" cy="31" r="31" transform="translate(-2249 6493)" fill="#f2f9fd"/>
    </g>
  </g>
</svg>
