<svg id="Number" xmlns="http://www.w3.org/2000/svg" width="33" height="33" viewBox="0 0 33 33">
  <circle id="Ellipse_118" data-name="Ellipse 118" cx="16.5" cy="16.5" r="16.5" fill="#0085d7"/>
  <path id="Path_2015" data-name="Path 2015" d="M1.864-9.31a5.208,5.208,0,0,1,2.179.786A3.852,3.852,0,0,1,5.772-5.155,4.32,4.32,0,0,1,3.9-1.426,6.764,6.764,0,0,1-.112-.3a6.878,6.878,0,0,1-5.02-1.842,1.807,1.807,0,0,1-.685-1.179.768.768,0,0,1,.326-.618.956.956,0,0,1,.629-.247,1.256,1.256,0,0,1,.854.562A4.337,4.337,0,0,0-2.179-2.37,5.727,5.727,0,0,0-.124-2.01a4.723,4.723,0,0,0,2.4-.584A2.791,2.791,0,0,0,3.773-5.144,3.075,3.075,0,0,0,2.9-7.435a3.018,3.018,0,0,0-1.606-.809A12.692,12.692,0,0,0-.82-8.378l-.416.011q-1.022,0-1.022-.831a.674.674,0,0,1,.517-.741,2.73,2.73,0,0,1,.606-.045q4.245,0,4.245-2.931a2.316,2.316,0,0,0-.921-1.943,3.821,3.821,0,0,0-2.37-.674,3.756,3.756,0,0,0-3.38,1.617.844.844,0,0,1-.719.4,1,1,0,0,1-.6-.2.775.775,0,0,1-.359-.651,1.548,1.548,0,0,1,.505-.955,5.611,5.611,0,0,1,1.7-1.213A6.79,6.79,0,0,1-.146-17.16a6.23,6.23,0,0,1,3.021.7,3.834,3.834,0,0,1,2.167,3.583A3.345,3.345,0,0,1,2.7-9.557,7.545,7.545,0,0,1,1.864-9.31Z" transform="translate(17 26)" fill="#fff"/>
</svg>
