<svg xmlns="http://www.w3.org/2000/svg" width="120.001" height="46.941" viewBox="0 0 120.001 46.941">
  <g id="Group_510" data-name="Group 510" transform="translate(-892.5 -4069)">
    <path id="Union_8" data-name="Union 8" d="M52.29,37.248H18.5a18,18,0,0,1-18-18V18.5a18,18,0,0,1,18-18h83a18,18,0,0,1,18,18v.749a18,18,0,0,1-18,18H60.823l-8.533,8.49Z" transform="translate(892.5 4069)" fill="#fff" stroke="#0085d7" stroke-width="1"/>
    <path id="Path_2011" data-name="Path 2011" d="M11.045-9.229l3.76-.234q.2-.01.244-.01a2.3,2.3,0,0,1,1.172.273A1.613,1.613,0,0,1,17-7.705a2.6,2.6,0,0,1-.02.322l-.625,5.83a.937.937,0,0,1,.547.986Q16.9.469,15.986.5L3.682.938H3.633q-.889-.029-.889-1,0-1.045.859-1.084l10.381-.381.156-2.08-9.854.527H4.2q-.879,0-.879-.967t.869-1.016L14.3-5.576,14.4-7.061q.01-.361-.3-.361h-.039L3.408-6.758H3.32q-.859,0-.859-.967T3.32-8.74l5.225-.332v-6.406a.978.978,0,0,1,.723-1,1.488,1.488,0,0,1,.508-.088,1.359,1.359,0,0,1,1.006.371,1,1,0,0,1,.264.713ZM3.906-14.609a1.328,1.328,0,0,1,.879.41A11.846,11.846,0,0,1,6.67-11.982a1.654,1.654,0,0,1,.313.918,1.211,1.211,0,0,1-.674,1.191A1.62,1.62,0,0,1,5.6-9.7a1.326,1.326,0,0,1-1.27-1.064,18.092,18.092,0,0,0-1.094-2.3,1.608,1.608,0,0,1-.215-.684.808.808,0,0,1,.342-.684A.886.886,0,0,1,3.906-14.609Zm11.543-.957a1.688,1.688,0,0,1,.908.283,1.187,1.187,0,0,1,.586,1.064,1.829,1.829,0,0,1-.352.977,15.314,15.314,0,0,1-2.285,2.725,1.448,1.448,0,0,1-.947.479.978.978,0,0,1-.654-.264.823.823,0,0,1-.312-.654,1.746,1.746,0,0,1,.352-.869,18.078,18.078,0,0,0,1.5-2.754Q14.678-15.566,15.449-15.566ZM23.594-5.3V.42A.821.821,0,0,1,23.379,1a1.04,1.04,0,0,1-.811.322A1,1,0,0,1,21.65.869.856.856,0,0,1,21.533.42V-13.418a.93.93,0,0,1-.586-.986.816.816,0,0,1,.8-.918l3.926-.42q.107-.01.244-.01,1.3,0,1.3,1.152a6.283,6.283,0,0,1-.4,1.636q-.4,1.187-.986,2.5A6.631,6.631,0,0,1,27.158-6.5a2.042,2.042,0,0,1-.4,1.348,1.317,1.317,0,0,1-1.084.5A3.838,3.838,0,0,1,23.594-5.3Zm0-1.484q.107-.01.137-.01a1.032,1.032,0,0,1,.283.059,2.192,2.192,0,0,0,.674.117q.469,0,.469-.654a5.926,5.926,0,0,0-1.035-2.783.789.789,0,0,1-.127-.42.787.787,0,0,1,.283-.605,13.944,13.944,0,0,0,.645-2.373q0-.225-.283-.244h-.088l-.957.117Zm10.3-7.031,3.32-.342q.2-.02.3-.02a1.791,1.791,0,0,1,.879.2.859.859,0,0,1,.449.791,4.308,4.308,0,0,1-1.289,2.344q-.527.615-.9.615a.586.586,0,0,1-.342-.117.537.537,0,0,1-.254-.479.77.77,0,0,1,.078-.3,2.988,2.988,0,0,0,.264-.859q0-.254-.293-.254a.793.793,0,0,0-.1.01l-6.5.684v.166q-.1,2.168-1.221,2.168a1.292,1.292,0,0,1-.586-.137.879.879,0,0,1-.527-.84,1.546,1.546,0,0,1,.127-.547,7,7,0,0,0,.5-2.393.734.734,0,0,1,.811-.8.725.725,0,0,1,.8.586l2.207-.234V-15.8a.838.838,0,0,1,.479-.791,1.358,1.358,0,0,1,.664-.166,1.168,1.168,0,0,1,.879.332.829.829,0,0,1,.254.625Zm1.348,8.1L35.137-1.26a.4.4,0,0,0,.322.449,3.48,3.48,0,0,0,.654.039,2.8,2.8,0,0,0,1.006-.117.6.6,0,0,0,.3-.479,14.578,14.578,0,0,0,.137-1.475q.02-.635.625-.635.508,0,.713.8A9.335,9.335,0,0,1,39.2-.42a1.348,1.348,0,0,1-.918,1.436,9.161,9.161,0,0,1-2.539.234A4.23,4.23,0,0,1,33.555.869,1.622,1.622,0,0,1,33.018-.5V-.576l.107-4.98-1.582.127a.84.84,0,0,1,.557.82,4.454,4.454,0,0,1-.391,1.5A7.412,7.412,0,0,1,28.389.674a2.971,2.971,0,0,1-1.406.488.67.67,0,0,1-.576-.283A.833.833,0,0,1,26.24.391q0-.439.586-.8A6.733,6.733,0,0,0,28.9-2.393,7.414,7.414,0,0,0,30-4.8a1.116,1.116,0,0,1,.264-.518l-1.807.146h-.146a.773.773,0,0,1-.605-.264.968.968,0,0,1-.234-.684.879.879,0,0,1,.869-1.016l9.219-.723h.068q.889,0,.889.928,0,.947-.84,1.016Zm.01-3.213-4.961.459h-.127q-.811,0-.811-.85a.83.83,0,0,1,.8-.957l4.941-.479h.117q.9,0,.9.83A.877.877,0,0,1,35.254-8.936Zm15.127-2.48q-2.148.508-5.127.977-2.588.4-2.959.4-1.2,0-1.2-1.3a1.014,1.014,0,0,1,.742-1.064,7.87,7.87,0,0,1,1.1-.146q1.914-.186,5.3-.7,2.6-.4,4.482-.781a5.959,5.959,0,0,1,.859-.137,1.1,1.1,0,0,1,1.016.576,1.692,1.692,0,0,1,.254.869,1.041,1.041,0,0,1-.811,1.025,7.321,7.321,0,0,0-2.93,2A5.752,5.752,0,0,0,49.5-5.645a3.5,3.5,0,0,0,.938,2.48,4.585,4.585,0,0,0,2.2,1.23A1.183,1.183,0,0,1,53.643-.723a1.431,1.431,0,0,1-.293.9,1.062,1.062,0,0,1-.9.41,4.7,4.7,0,0,1-2.314-.859,5.85,5.85,0,0,1-3-5.234A6.888,6.888,0,0,1,49.5-10.7a7.833,7.833,0,0,1,.762-.625Zm4.785-4.268q.547,0,1.758,1.094,1.025.928,1.025,1.465a.823.823,0,0,1-.332.654.918.918,0,0,1-.6.215.9.9,0,0,1-.762-.508,10.325,10.325,0,0,0-1.387-1.777.868.868,0,0,1-.273-.586A.5.5,0,0,1,55.166-15.684Zm1.641-1.494a3.2,3.2,0,0,1,1.68.928q1.025.859,1.025,1.465a.789.789,0,0,1-.322.664.857.857,0,0,1-.527.176.922.922,0,0,1-.742-.488,9.387,9.387,0,0,0-1.387-1.631.849.849,0,0,1-.312-.586.518.518,0,0,1,.156-.361A.562.562,0,0,1,56.807-17.178Zm14.766,5.254V-14.5a.886.886,0,0,1,.3-.7,1.265,1.265,0,0,1,.869-.293,1.087,1.087,0,0,1,1.064.547.917.917,0,0,1,.107.449v2.363l.156-.01q1.807-.176,1.943-.176a.912.912,0,0,1,.908.6,1.427,1.427,0,0,1,.117.586q0,.947-1.1,1.035-.322.02-1.27.117-.293.029-.752.068,0,3.555.078,5.625a16.894,16.894,0,0,1,2.871,1.582,1.286,1.286,0,0,1,.605,1.084,1.128,1.128,0,0,1-.234.693,1.028,1.028,0,0,1-.85.43A1.475,1.475,0,0,1,75.5-.859q-.947-.723-1.562-1.123-.615,2-3.164,2a4.4,4.4,0,0,1-2.812-.908,2.611,2.611,0,0,1-1.123-2.09,2.008,2.008,0,0,1,1.006-1.777,3.868,3.868,0,0,1,2.109-.527,8.466,8.466,0,0,1,1.68.205l-.01-.469L71.6-6.875q-.029-2.051-.029-2.822-.928.078-3.086.313-.186.02-.293.02-1.025,0-1.025-1.113A.957.957,0,0,1,68-11.533Q68.291-11.6,71.572-11.924Zm.117,8.809A5.081,5.081,0,0,0,69.9-3.506q-1.025,0-1.025.605a.852.852,0,0,0,.361.645,2.048,2.048,0,0,0,1.348.42q1.1,0,1.1-1.045Zm-7.568-.146q.449-.986.693-1.426a.6.6,0,0,1,.547-.342.654.654,0,0,1,.313.078.606.606,0,0,1,.332.547,1.926,1.926,0,0,1-.2.635,25.955,25.955,0,0,0-1,2.813Q64.424.322,63.594.322q-1.836,0-1.836-6.045a64.029,64.029,0,0,1,.459-6.865,11.235,11.235,0,0,1,.234-1.543,1.069,1.069,0,0,1,1.123-.8,1.41,1.41,0,0,1,.762.2.984.984,0,0,1,.449.9,6.059,6.059,0,0,1-.1.732q-.332,2.041-.586,5.068-.088,1.113-.088,2.119Q64.014-4.316,64.121-3.262ZM80.8-4.277q.732,0,2.383,1.621Q84.971-.908,84.971-.02a1.359,1.359,0,0,1-.518,1.055,1.35,1.35,0,0,1-.918.342A1.381,1.381,0,0,1,82.383.6a28.14,28.14,0,0,0-2.246-3.037,1.267,1.267,0,0,1-.332-.811,1,1,0,0,1,.293-.7A.938.938,0,0,1,80.8-4.277Z" transform="translate(910 4096)" fill="#375565"/>
  </g>
</svg>
