<svg id="Layer_2" data-name="Layer 2" xmlns="http://www.w3.org/2000/svg" width="78" height="93.373" viewBox="0 0 78 93.373">
  <g id="Group_536" data-name="Group 536">
    <path id="Path_1997" data-name="Path 1997" d="M56.034,36.634H45.328L46.614,28.4a1.688,1.688,0,0,0-1.669-1.948H40.625a1.686,1.686,0,0,0-1.669,1.431l-1.365,8.757H32.367a1.727,1.727,0,0,0-.009,3.454l4.69.026L31.4,76.336a1.688,1.688,0,0,0,1.669,1.948h4.319a1.686,1.686,0,0,0,1.669-1.431l5.719-36.7,5,.026L46.918,72.286l-2.831-.349a1.791,1.791,0,0,0-.442,3.555l9.371,1.184a1.365,1.365,0,0,0,1.532-1.245l2.932-37.242a1.446,1.446,0,0,0-1.444-1.559Z" transform="translate(-17.109 -14.769)" fill="#0085d7"/>
    <path id="Path_1998" data-name="Path 1998" d="M113.453,41.448H100.787A1.613,1.613,0,0,0,99.37,40.6H95.2a1.619,1.619,0,0,0-1.621,1.621V83.937A1.619,1.619,0,0,0,95.2,85.558H99.37a1.619,1.619,0,0,0,1.621-1.621v-.384h6.368v.194a1.815,1.815,0,0,0,1.815,1.815h4.089a1.815,1.815,0,0,0,1.815-1.815V43.069a1.619,1.619,0,0,0-1.621-1.621Zm-6.1,38.51h-6.368V45.038h6.368V79.962Z" transform="translate(-52.253 -22.67)" fill="#0085d7"/>
    <path id="Path_1999" data-name="Path 1999" d="M58.646,185.74H57.083L54,196.759h1.563l.83-2.972h2.981l.83,2.972h1.563L58.686,185.74h-.044Zm-2.067,7.388,1.307-4.677,1.307,4.677Z" transform="translate(-30.152 -103.712)" fill="#0085d7"/>
    <path id="Path_2000" data-name="Path 2000" d="M78.25,186.394h2.7v10.268h1.546V186.394h2.681v-.654H78.25Z" transform="translate(-43.693 -103.712)" fill="#0085d7"/>
    <path id="Path_2001" data-name="Path 2001" d="M105.1,185.13c-2.367,0-4.284,2.6-4.284,5.807s1.917,5.807,4.284,5.807,4.284-2.6,4.284-5.807S107.471,185.13,105.1,185.13Zm0,10.334c-1.453,0-2.632-2.027-2.632-4.527s1.179-4.527,2.632-4.527,2.632,2.027,2.632,4.527S106.557,195.464,105.1,195.464Z" transform="translate(-56.295 -103.372)" fill="#0085d7"/>
    <path id="Path_2002" data-name="Path 2002" d="M36.252,185.74l-3.674,4.681h-.212V185.74h-1.7v10.921h1.7V192.1h.517l3.268,4.655h1.563L33.682,191l4.134-5.264Z" transform="translate(-17.125 -103.712)" fill="#0085d7"/>
    <path id="Path_2003" data-name="Path 2003" d="M39,0A39,39,0,1,0,78,39,39,39,0,0,0,39,0Zm0,74.913A35.913,35.913,0,1,1,74.913,39,35.914,35.914,0,0,1,39,74.913Z" fill="#0085d7"/>
    <path id="Path_2004" data-name="Path 2004" d="M135.639,186.01h-.592a.5.5,0,0,0-.5.5v5.105h-4.655v-5.105a.5.5,0,0,0-.5-.5h-.592a.5.5,0,0,0-.5.5v9.892a.5.5,0,0,0,.5.5h.592a.5.5,0,0,0,.5-.5v-4.067h4.655v4.067a.5.5,0,0,0,.5.5h.592a.5.5,0,0,0,.5-.5v-9.892A.5.5,0,0,0,135.639,186.01Z" transform="translate(-71.634 -103.863)" fill="#0085d7"/>
  </g>
</svg>
