<svg xmlns="http://www.w3.org/2000/svg" width="100" height="100" viewBox="0 0 100 100">
  <g id="Group_544" data-name="Group 544" transform="translate(-910 -1081.242)">
    <circle id="Ellipse_124" data-name="Ellipse 124" cx="50" cy="50" r="50" transform="translate(910 1081.242)" fill="#f2f9fd"/>
    <g id="Layer_2" data-name="Layer 2" transform="translate(940 1109.025)">
      <g id="Group_446" data-name="Group 446" transform="translate(0 0)">
        <path id="Path_1119" data-name="Path 1119" d="M18.793,43.445H2.986A1.983,1.983,0,0,1,1,41.459V10.906A1.983,1.983,0,0,1,2.986,8.92H6.862" transform="translate(-1 -3.829)" fill="none" stroke="#375565" stroke-linecap="round" stroke-linejoin="round" stroke-width="2"/>
        <path id="Path_1120" data-name="Path 1120" d="M34.1,8.92h4.448a1.983,1.983,0,0,1,1.986,1.986v6.563" transform="translate(-12.823 -3.829)" fill="none" stroke="#375565" stroke-linecap="round" stroke-linejoin="round" stroke-width="2"/>
        <path id="Path_1121" data-name="Path 1121" d="M7.64,23.042,9.8,25.2l3.985-3.992" transform="translate(-3.372 -8.219)" fill="none" stroke="#375565" stroke-linecap="round" stroke-linejoin="round" stroke-width="2"/>
        <path id="Path_1122" data-name="Path 1122" d="M7.64,36.172,9.8,38.325l3.985-3.985" transform="translate(-3.372 -12.909)" fill="none" stroke="#375565" stroke-linecap="round" stroke-linejoin="round" stroke-width="2"/>
        <path id="Path_1123" data-name="Path 1123" d="M7.64,49.292l2.16,2.16,3.985-3.992" transform="translate(-3.372 -17.595)" fill="none" stroke="#375565" stroke-linecap="round" stroke-linejoin="round" stroke-width="2"/>
        <line id="Line_87" data-name="Line 87" x2="9.391" transform="translate(13.853 13.133)" fill="none" stroke="#375565" stroke-linecap="round" stroke-linejoin="round" stroke-width="2"/>
        <line id="Line_88" data-name="Line 88" x2="4.056" transform="translate(13.853 17.652)" fill="none" stroke="#375565" stroke-linecap="round" stroke-linejoin="round" stroke-width="2"/>
        <ellipse id="Ellipse_66" data-name="Ellipse 66" cx="11.333" cy="11.333" rx="11.333" ry="11.333" transform="translate(17.459 17.176)" fill="none" stroke="#375565" stroke-linecap="round" stroke-linejoin="round" stroke-width="2"/>
        <path id="Path_1124" data-name="Path 1124" d="M47.9,40H44.277V36.37H39.559V40H35.94v4.718h3.619v3.619h4.718V44.714H47.9Z" transform="translate(-13.48 -13.634)" fill="none" stroke="#375565" stroke-linecap="round" stroke-linejoin="round" stroke-width="2"/>
        <path id="Path_1125" data-name="Path 1125" d="M20.754,3.88V3.867a2.867,2.867,0,1,0-5.734,0V3.88H9.91V9.414H25.864V3.88h-5.11Z" transform="translate(-4.183 -1)" fill="none" stroke="#375565" stroke-linecap="round" stroke-linejoin="round" stroke-width="2"/>
      </g>
    </g>
  </g>
</svg>
