<svg xmlns="http://www.w3.org/2000/svg" width="370" height="305.732" viewBox="0 0 370 305.732">
  <g id="Group_552" data-name="Group 552" transform="translate(-360 -4219.268)">
    <rect id="施術風景3" width="370" height="280" rx="20" transform="translate(360 4245)" fill="#fff" opacity="0.8"/>
    <path id="Path_2012" data-name="Path 2012" d="M-21.182-45.732A15.018,15.018,0,0,1-7.91-38.408Q-3.955-32.373-3.955-23q0,8.408-2.959,14.121A17.23,17.23,0,0,1-11.865-2.9,15.248,15.248,0,0,1-21.24.117,15.063,15.063,0,0,1-34.6-7.178q-3.926-6.035-3.926-15.791,0-10.049,4.453-16.2A15.128,15.128,0,0,1-21.182-45.732Zm-.117,6.768q-3.9,0-6.357,4.043-2.637,4.395-2.637,12.1a26.77,26.77,0,0,0,1.611,9.932q2.461,6.035,7.5,6.035a7.108,7.108,0,0,0,5.947-3.369q3.047-4.277,3.047-12.627,0-7.822-2.725-12.217Q-17.314-38.965-21.3-38.965ZM26.4-24.111a14.661,14.661,0,0,1,5.83,1.729,10.486,10.486,0,0,1,4.541,5.156,10.243,10.243,0,0,1,.732,3.867A11.877,11.877,0,0,1,31.934-2.9,19.691,19.691,0,0,1,20.742.117q-8.789,0-13.594-4.893a6.187,6.187,0,0,1-2.2-4.189,3.036,3.036,0,0,1,.967-2.314,3.67,3.67,0,0,1,2.607-1.055,3.138,3.138,0,0,1,2.227.85,10.041,10.041,0,0,1,.879,1.025q3.193,3.867,9.082,3.867A10.3,10.3,0,0,0,26.309-8a6.035,6.035,0,0,0,3.018-5.449A6.877,6.877,0,0,0,27.51-18.4a7.206,7.206,0,0,0-3.984-2.021,36.744,36.744,0,0,0-5.684-.352q-3.867,0-3.867-3.281,0-3.135,4.014-3.135A15.028,15.028,0,0,0,24.082-28.3a5.4,5.4,0,0,0,3.633-5.244,4.853,4.853,0,0,0-2.08-4.131,8.487,8.487,0,0,0-5.156-1.465,9.056,9.056,0,0,0-7.822,3.779,3.165,3.165,0,0,1-2.7,1.436A3.537,3.537,0,0,1,7.588-34.8a2.911,2.911,0,0,1-1.113-2.314,5.158,5.158,0,0,1,1.465-3.223,14.364,14.364,0,0,1,4.219-3.281,18.084,18.084,0,0,1,8.555-2.051,17.821,17.821,0,0,1,9.141,2.256,10.876,10.876,0,0,1,5.771,9.99,8.439,8.439,0,0,1-3.34,6.914A11.6,11.6,0,0,1,26.924-24.2Z" transform="translate(409 4265)" fill="#fff"/>
    <g id="Layer_2" data-name="Layer 2" transform="translate(455 4295.09)">
      <g id="Group_438" data-name="Group 438" transform="translate(0 0)">
        <path id="Path_946" data-name="Path 946" d="M54.864,43.243l3.39-.28s1.664-16.281,14.384-21.63C88.173,25.764,98.747,42.9,98.747,42.9l3.281.342A36.969,36.969,0,0,0,98.3,22.53c-5.349-10.077-8.288-10.061-8.459-10.061S89.495.557,77.521,1.086s-10.527,10.932-10.636,11.1-14.384,6.9-12.02,31.054Z" transform="translate(28.762 -0.962)" fill="#0085d7"/>
        <path id="Path_947" data-name="Path 947" d="M57.243,99.342s7.589-1.664,9.89,0,7.309,4.883,11.787,5.645S98.653,106.6,98.653,106.6l3.452-28.286a2.264,2.264,0,0,0-2.037-2.535c-7.588-.7-31.614-2.83-38.316-3.421a1.8,1.8,0,0,0-1.959,1.586L56.73,98.72" transform="translate(29.945 38.603)" fill="#0085d7"/>
        <path id="Path_948" data-name="Path 948" d="M55.711,105.963l-1.089,14.71a3.292,3.292,0,0,0,2.923,3.514l36.5,3.965a3.305,3.305,0,0,0,3.639-2.955l1.633-16.592s-14.042-6.671-19.329-7.309S66.752,106.414,63.3,106.3s-7.588-.342-7.588-.342Z" transform="translate(28.771 54.64)" fill="#0085d7"/>
        <path id="Path_949" data-name="Path 949" d="M67.681,53.35c-9.144.809-28.068,8.024-33.371,43.463" transform="translate(17.501 28.055)" fill="none" stroke="#375565" stroke-linecap="round" stroke-linejoin="round" stroke-width="2"/>
        <path id="Path_950" data-name="Path 950" d="M67.158,47.47S54.811,49.88,56.895,62.554s9.47,8.661,9.47,8.661l6.9-4.805S64.607,61.916,64.125,54.7" transform="translate(29.904 24.792)" fill="none" stroke="#375565" stroke-linecap="round" stroke-linejoin="round" stroke-width="2"/>
        <path id="Path_951" data-name="Path 951" d="M64.863,46.23s-.622,8.179-3.2,11.072" transform="translate(32.681 24.104)" fill="none" stroke="#375565" stroke-linecap="round" stroke-linejoin="round" stroke-width="2"/>
        <path id="Path_952" data-name="Path 952" d="M78.561,47.47s12.347,2.41,10.263,15.084-9.47,8.661-9.47,8.661l-6.9-4.805s8.661-4.494,9.144-11.709" transform="translate(38.669 24.792)" fill="none" stroke="#375565" stroke-linecap="round" stroke-linejoin="round" stroke-width="2"/>
        <path id="Path_953" data-name="Path 953" d="M76.07,46.23s.622,8.179,3.2,11.072" transform="translate(40.679 24.104)" fill="none" stroke="#375565" stroke-linecap="round" stroke-linejoin="round" stroke-width="2"/>
        <line id="Line_61" data-name="Line 61" x2="7.542" transform="translate(103.158 91.186)" fill="none" stroke="#375565" stroke-linecap="round" stroke-linejoin="round" stroke-width="2"/>
        <ellipse id="Ellipse_49" data-name="Ellipse 49" cx="2.815" cy="2.815" rx="2.815" ry="2.815" transform="translate(108.274 99.366)" fill="none" stroke="#375565" stroke-linecap="round" stroke-linejoin="round" stroke-width="2"/>
        <line id="Line_62" data-name="Line 62" y2="10.03" transform="translate(119.843 103.144)" fill="none" stroke="#375565" stroke-linecap="round" stroke-linejoin="round" stroke-width="2"/>
        <path id="Path_954" data-name="Path 954" d="M56.33,100.221,58.367,76.8a5.125,5.125,0,0,1,5.551-4.665l33.728,2.939a5.125,5.125,0,0,1,4.665,5.551l-2.146,24.538" transform="translate(29.723 38.471)" fill="none" stroke="#375565" stroke-linecap="round" stroke-linejoin="round" stroke-width="2"/>
        <path id="Path_955" data-name="Path 955" d="M99.489,107.713l-1.2,13.653a5.125,5.125,0,0,1-5.551,4.665l-33.728-2.939a5.125,5.125,0,0,1-4.665-5.551l1.135-13.031" transform="translate(28.611 56.45)" fill="none" stroke="#375565" stroke-linecap="round" stroke-linejoin="round" stroke-width="2"/>
        <path id="Path_956" data-name="Path 956" d="M59.008,34.4s2.41-16.048,13-20.044C86.128,16.117,95.1,29.273,98.475,36.021c0,0,5.163-1.928,5.318,4.65S98.475,47.4,98.475,47.4s-4,19.733-19.718,19.733S59.039,47.4,59.039,47.4s-5.474-.156-5.318-6.733,5.318-4.65,5.318-4.65" transform="translate(28.273 6.415)" fill="none" stroke="#375565" stroke-linecap="round" stroke-linejoin="round" stroke-width="2"/>
        <path id="Path_957" data-name="Path 957" d="M68.85,10.64S81.4,15.134,84.758,20.421" transform="translate(36.671 4.35)" fill="none" stroke="#375565" stroke-linecap="round" stroke-linejoin="round" stroke-width="2"/>
        <path id="Path_958" data-name="Path 958" d="M103.1,39.182c.964-12.518-2.644-32.562-24.3-32.562S53.526,26.664,54.49,39.182" transform="translate(28.624 2.119)" fill="none" stroke="#375565" stroke-linecap="round" stroke-linejoin="round" stroke-width="2"/>
        <path id="Path_959" data-name="Path 959" d="M85.476,12.227C85.709,7.5,82.413,1,74,1S62.291,7.5,62.524,12.227" transform="translate(33.154 -1)" fill="none" stroke="#375565" stroke-linecap="round" stroke-linejoin="round" stroke-width="2"/>
        <path id="Path_960" data-name="Path 960" d="M62.27,25.888a5.037,5.037,0,0,1,5.054-.482" transform="translate(33.019 12.288)" fill="none" stroke="#375565" stroke-linecap="round" stroke-linejoin="round" stroke-width="2"/>
        <ellipse id="Ellipse_50" data-name="Ellipse 50" cx="0.949" cy="0.949" rx="0.949" ry="0.949" transform="translate(97.42 43.665)" fill="none" stroke="#375565" stroke-linecap="round" stroke-linejoin="round" stroke-width="2"/>
        <path id="Path_961" data-name="Path 961" d="M78.824,25.888a5.037,5.037,0,0,0-5.054-.482" transform="translate(39.402 12.288)" fill="none" stroke="#375565" stroke-linecap="round" stroke-linejoin="round" stroke-width="2"/>
        <ellipse id="Ellipse_51" data-name="Ellipse 51" cx="0.949" cy="0.949" rx="0.949" ry="0.949" transform="translate(114.214 43.665)" fill="none" stroke="#375565" stroke-linecap="round" stroke-linejoin="round" stroke-width="2"/>
        <path id="Path_962" data-name="Path 962" d="M68.85,35.35a5.346,5.346,0,0,0,2.768,0" transform="translate(36.671 18.065)" fill="none" stroke="#375565" stroke-linecap="round" stroke-linejoin="round" stroke-width="2"/>
        <path id="Path_963" data-name="Path 963" d="M67.33,40.3s1.12,1.2,4.012,1.2a6.639,6.639,0,0,0,4.245-1.2" transform="translate(35.828 20.812)" fill="none" stroke="#375565" stroke-linecap="round" stroke-linejoin="round" stroke-width="2"/>
        <path id="Path_964" data-name="Path 964" d="M83.52,53.66c7.215.156,32.718,6.578,36.092,56.618l-24.538,2.239" transform="translate(44.814 28.227)" fill="none" stroke="#375565" stroke-linecap="round" stroke-linejoin="round" stroke-width="2"/>
        <path id="Path_965" data-name="Path 965" d="M92.142,77.59c-1.446,5.132-1.6,26.14-1.6,26.14" transform="translate(48.71 41.509)" fill="none" stroke="#375565" stroke-linecap="round" stroke-linejoin="round" stroke-width="2"/>
        <path id="Path_966" data-name="Path 966" d="M129.792,90.49c.591,10.745.762,15.861-1.975,21.8s-14.12,6.593-25.658,3.219-18.256-7.542-22.765-7.853-8.988.809-11.072,2.892-3.577,1.757-7.7,1.757a16.392,16.392,0,0,1-6.329-.949c-1.6-.4-1.928-2.41-1.679-3.2a2.556,2.556,0,0,1,2.737-1.757" transform="translate(27.62 48.669)" fill="none" stroke="#375565" stroke-linecap="round" stroke-linejoin="round" stroke-width="2"/>
        <path id="Path_967" data-name="Path 967" d="M60.176,103.416s-5.458-.809-7.464-1.368-2.706-4.727.653-4.339" transform="translate(26.779 52.661)" fill="none" stroke="#375565" stroke-linecap="round" stroke-linejoin="round" stroke-width="2"/>
        <path id="Path_968" data-name="Path 968" d="M59.79,100.428s-5.054-.809-7.309-1.2-2.161-5.054,1.757-4.494" transform="translate(26.76 51)" fill="none" stroke="#375565" stroke-linecap="round" stroke-linejoin="round" stroke-width="2"/>
        <path id="Path_969" data-name="Path 969" d="M60.716,97.4s-5.94-.809-7.853-1.042-3.608-4.976,2.161-4.416,11.787,1.2,11.787,1.2" transform="translate(26.798 49.451)" fill="none" stroke="#375565" stroke-linecap="round" stroke-linejoin="round" stroke-width="2"/>
        <path id="Path_970" data-name="Path 970" d="M56.645,93.824c-2.239-.218-4.012-3.3-.327-4.183A20.794,20.794,0,0,1,68.51,90.6c4.09,1.6,4.261,4,11.989,5.132s15.441.4,22.408,1.213a111.073,111.073,0,0,1,16.281,3.7" transform="translate(28.537 47.916)" fill="none" stroke="#375565" stroke-linecap="round" stroke-linejoin="round" stroke-width="2"/>
        <path id="Path_971" data-name="Path 971" d="M47.63,77.18c.964,3.2,1.757,6.329,1.757,14.431v52.855" transform="translate(24.894 41.281)" fill="none" stroke="#375565" stroke-linecap="round" stroke-linejoin="round" stroke-width="2"/>
        <path id="Path_972" data-name="Path 972" d="M38.81,90.49s13.389,1.928,13.715,1.6" transform="translate(19.999 48.669)" fill="none" stroke="#375565" stroke-linecap="round" stroke-linejoin="round" stroke-width="2"/>
        <path id="Path_973" data-name="Path 973" d="M71.882,106.9c-.327.4-3.685,10.263-7.417,15.954s-5.411,7.76-10.87,7.884-9.3-4.836-11.554-11.181-10.434-39.14-11.072-41.3-.964-4.572-5.054-5.054S10.195,71.194,8.033,70.79s-4.805-2.97-1.6-4.09" transform="translate(1.202 35.465)" fill="none" stroke="#375565" stroke-linecap="round" stroke-linejoin="round" stroke-width="2"/>
        <path id="Path_974" data-name="Path 974" d="M4.406,63.51c-4.9.155-2.084,4.572-.638,4.976s16.359.482,16.359.482" transform="translate(-0.63 33.694)" fill="none" stroke="#375565" stroke-linecap="round" stroke-linejoin="round" stroke-width="2"/>
        <path id="Path_975" data-name="Path 975" d="M20.489,62.049S6.541,61.24,3.322,61.24s-3.452,4.494,1.524,4.65,14.12.482,14.12.482" transform="translate(-0.991 32.434)" fill="none" stroke="#375565" stroke-linecap="round" stroke-linejoin="round" stroke-width="2"/>
        <path id="Path_976" data-name="Path 976" d="M26.523,60.041S7.6,59.077,4.955,58.922s-4.012,3.452-.078,3.856" transform="translate(-0.199 31.145)" fill="none" stroke="#375565" stroke-linecap="round" stroke-linejoin="round" stroke-width="2"/>
        <path id="Path_977" data-name="Path 977" d="M16.695,61.566a25.555,25.555,0,0,1-4.245-4.09c-.793-1.042-1.2-4.416,2.006-2.97s5.536,3.374,10.108,4.416,8.335,3.048,9.47,5.458A69.792,69.792,0,0,1,37.8,75.048c1.524,5.287,18.132,43.307,18.132,43.307" transform="translate(5.058 28.5)" fill="none" stroke="#375565" stroke-linecap="round" stroke-linejoin="round" stroke-width="2"/>
        <line id="Line_63" data-name="Line 63" y1="20.386" transform="translate(140.043 166.216)" fill="none" stroke="#375565" stroke-linecap="round" stroke-linejoin="round" stroke-width="2"/>
        <path id="Path_978" data-name="Path 978" d="M16.16,68.109s4.012-4.245,12.673-2.721" transform="translate(7.427 34.553)" fill="none" stroke="#375565" stroke-linecap="round" stroke-linejoin="round" stroke-width="2"/>
      </g>
    </g>
  </g>
</svg>
