<svg xmlns="http://www.w3.org/2000/svg" width="370" height="336" viewBox="0 0 370 336">
  <g id="Group_543" data-name="Group 543" transform="translate(1980 -2527)">
    <g id="施術風景3" transform="translate(-1980 2527)" fill="#fff" stroke="#0085d7" stroke-width="1">
      <rect width="370" height="336" rx="20" stroke="none"/>
      <rect x="0.5" y="0.5" width="369" height="335" rx="19.5" fill="none"/>
    </g>
    <g id="Layer_2" data-name="Layer 2" transform="translate(-1879.001 2553.211)">
      <g id="Group_485" data-name="Group 485" transform="translate(1.001 1.003)">
        <path id="Path_1556" data-name="Path 1556" d="M108.738,57.6A8.786,8.786,0,0,1,105,62.945a41.915,41.915,0,0,1-6.418,3.473s.13,3.879,0,6.151,2.142,4.812,2.142,4.812,6.549,4.146,9.762,5.347,6.418,3.205,7.62,4.812a22.4,22.4,0,0,1,2.142,3.741s2,.268,4.009-2.808a16.446,16.446,0,0,0,2.142-7.352s-6.686,4.812-12.3-1.071-3.611-8.423-2.678-13.235-1.071-7.222-2.678-9.226Z" transform="translate(-23.929 -14.3)" fill="rgba(0,133,215,0.5)"/>
        <path id="Path_1557" data-name="Path 1557" d="M85.684,26.129C83.412,28.807,79,30.406,73.253,30.941a8.476,8.476,0,0,1-4.146,2.938,8.833,8.833,0,0,1-5.485-.13s-2.808-.4,4.276-4.414,17.779-3.205,17.779-3.205Z" transform="translate(-15.587 -6.892)" fill="#91c2e0"/>
        <path id="Path_1558" data-name="Path 1558" d="M107.15,273.142a7.913,7.913,0,0,1-1.469,2.678,22.822,22.822,0,0,1-2.808,3.205,61.23,61.23,0,0,1-9.892-6.549c-4.009-3.473-8.293-10.695-8.293-10.695L71.325,298.87l-1.071-.054a14.69,14.69,0,0,1-2.678,0,3.315,3.315,0,0,1-2.4-1.744L74.53,243.33l-3.205-7.084s-3.611-13.77-4.95-22.859-2.134-29.683-1.737-29.338,4.544-1.951,4.544-1.951l-.268,9.632s0,4.276.405,5.08a12.659,12.659,0,0,0,2.67,2.4l3.611-1.2L76.534,194l-.8-9.953,3.075,5.806,5.883,8.821a11,11,0,0,0,3.481-2.808c1.331-1.331,3.863-1.6,2.395-3.473s-5.875-8.346-5.875-8.346l-.933-4.085a33.044,33.044,0,0,1,11.093,0c5.615,1.071,8.553,2.272,9.624,7.887s.4,10.289,0,14.038-9.02,28.4-9.15,28.673v.015l-4.758,15.7s3.618,10.289,6.3,14.971,10.289,11.9,10.289,11.9Z" transform="translate(-15.931 -42.945)" fill="rgba(0,133,215,0.5)"/>
        <path id="Path_1559" data-name="Path 1559" d="M124.49,226.834l-3.075,2.938a65.1,65.1,0,0,1-10.3,2.41c-4.544.535-2.41-.4-3.075-2.142s-3.473-6.143-3.473-6.549-2.808,1.339-5.485,1.737c-2.624.4-6.747,1.76-6.747,1.553v-.015c.13-.268,8.752-24.932,9.15-28.673s1.079-8.423,0-14.038-4.009-6.816-9.624-7.887a33.044,33.044,0,0,0-11.093,0l.933,4.085s4.414,6.472,5.875,8.346-1.063,2.142-2.394,3.473a11,11,0,0,1-3.481,2.808l-5.883-8.821-3.075-5.806.8,9.953-.933,4.009L69,195.415a12.659,12.659,0,0,1-2.67-2.4c-.405-.8-.405-5.08-.405-5.08L66.2,178.3s-4.146,2.3-4.544,1.951.4,20.242,1.737,29.338,4.95,22.859,4.95,22.859a9.622,9.622,0,0,1-6.021-.115c-2.808-1.186-3.871-2.3-3.611-5.5s2.41-9.892,2.41-9.892-2,.268-6.013-2.272-3.213-6.151-3.213-6.151l5.08-29.147a8.164,8.164,0,0,1-1.331-4.276,15.822,15.822,0,0,1,1.331-5.347l.405-4.146,2.67-2.272,5.347,3.075,3.879.933,3.741.268,4.016-.268.536,1.737,7.352-.4,13.365-3.741,4.284.13,1.331,4.276,1.071,3.343,17.917,33.829-.8,3.871-3.741,4.95,5.478,7.757.673,3.741Z" transform="translate(-12.944 -39.148)" fill="rgba(0,133,215,0.2)" opacity="0.5"/>
        <path id="Path_1560" data-name="Path 1560" d="M253.214,296.416c-1.2-4.009-21.122-43.72-24.2-47.324s-10.833-7.084-14.038-7.757-16.578-2-19.385-2c-.811,0-1.821-.061-2.915-.061l9.6,20.25,2.41,5.485-2.142,1.2-13.984-26.454a7.442,7.442,0,0,0-3.932,2.525c-.5.627-1.293,1.675-2.111,2.769l8.53,17.419-3.343.8-7.543-15.048c-.451.6-.742,1.01-.742,1.01s-2.678,3.343-.536,9.088,19.515,43.315,20.992,46.528,3.611,4.414,8.821,5.745,8.691,2.272,16.042,4.276a44.261,44.261,0,0,0,13.77,1.469,16.527,16.527,0,0,0,6.549-4.146c2.4-2.808,4.95-5.883,6.816-8.285S254.415,300.433,253.214,296.416Z" transform="translate(-42.606 -56.993)" fill="rgba(0,133,215,0.2)"/>
        <path id="Path_1561" data-name="Path 1561" d="M59.087,39.632c-7.6-3.764-10.075-11.429-7.069-19.1S62.7,4.962,87.293,11.579s27.977,22.262,25.268,29.484-8.576,6.77-8.576,6.77" transform="translate(-12.697 -2.906)" fill="none" stroke="#375565" stroke-linecap="round" stroke-linejoin="round" stroke-width="1"/>
        <path id="Path_1562" data-name="Path 1562" d="M98.41,61.8s9.93-3.534,10.381-11.207c0,0,4.284,1.431,5.493-3.909s-3.16-6.916-5.416-1.652c0,0-2.1-3.381.528-6.243" transform="translate(-23.891 -9.882)" fill="none" stroke="#375565" stroke-linecap="round" stroke-linejoin="round" stroke-width="1"/>
        <path id="Path_1563" data-name="Path 1563" d="M65.48,31.789s3.458-7.145,17.978-6.4,19.63,11.353,19.63,11.353" transform="translate(-16.153 -6.721)" fill="none" stroke="#375565" stroke-linecap="round" stroke-linejoin="round" stroke-width="1"/>
        <path id="Path_1564" data-name="Path 1564" d="M79.578,62.329c-8.874.076-18.949-8.874-14.964-23.539" transform="translate(-15.739 -9.882)" fill="none" stroke="#375565" stroke-linecap="round" stroke-linejoin="round" stroke-width="1"/>
        <path id="Path_1565" data-name="Path 1565" d="M60.86,33.664c3.083,2.861,9.7.75,13.61-4.514" transform="translate(-15.067 -7.617)" fill="none" stroke="#375565" stroke-linecap="round" stroke-linejoin="round" stroke-width="1"/>
        <path id="Path_1566" data-name="Path 1566" d="M79.83,31.427S86,31.235,89.683,26.5" transform="translate(-19.525 -6.994)" fill="none" stroke="#375565" stroke-linecap="round" stroke-linejoin="round" stroke-width="1"/>
        <path id="Path_1567" data-name="Path 1567" d="M96.438,33.453s-.222-3.427,2.257-3.129,2.708,4.888,2.708,4.888" transform="translate(-23.426 -7.889)" fill="none" stroke="#375565" stroke-linecap="round" stroke-linejoin="round" stroke-width="1"/>
        <ellipse id="Ellipse_107" data-name="Ellipse 107" cx="0.75" cy="1.576" rx="0.75" ry="1.576" transform="translate(55.157 30.56)" fill="none" stroke="#375565" stroke-linecap="round" stroke-linejoin="round" stroke-width="1"/>
        <ellipse id="Ellipse_108" data-name="Ellipse 108" cx="0.75" cy="1.576" rx="0.75" ry="1.576" transform="translate(71.505 30.835)" fill="none" stroke="#375565" stroke-linecap="round" stroke-linejoin="round" stroke-width="1"/>
        <path id="Path_1568" data-name="Path 1568" d="M80.532,45.96a13.879,13.879,0,0,1-1.882,2.18l1.882,2.479" transform="translate(-19.248 -11.567)" fill="none" stroke="#375565" stroke-linecap="round" stroke-linejoin="round" stroke-width="1"/>
        <path id="Path_1569" data-name="Path 1569" d="M81.11,56.19h8.874S89,62.134,85.547,62.356s-4.437-3.833-4.437-3.833" transform="translate(-19.826 -13.971)" fill="none" stroke="#375565" stroke-linecap="round" stroke-linejoin="round" stroke-width="1"/>
        <path id="Path_1570" data-name="Path 1570" d="M84.63,72.11s-.75,5.791-2.93,9.173" transform="translate(-19.964 -17.712)" fill="none" stroke="#375565" stroke-linecap="round" stroke-linejoin="round" stroke-width="1"/>
        <path id="Path_1571" data-name="Path 1571" d="M68.46,84.11c-4.284.528-11.429,2.41-14.061,7.818s-3.313,11.506-5.455,16.172S44.852,116,42.97,116.822" transform="translate(-10.863 -20.532)" fill="none" stroke="#375565" stroke-linecap="round" stroke-linejoin="round" stroke-width="1"/>
        <path id="Path_1572" data-name="Path 1572" d="M40.613,131.1c-.375.451-3.909,3.534-7.673,3.313" transform="translate(-8.506 -31.574)" fill="none" stroke="#375565" stroke-linecap="round" stroke-linejoin="round" stroke-width="1"/>
        <path id="Path_1573" data-name="Path 1573" d="M32.931,134.086c-.375.375,2.861,10.45,2.861,10.45,1.354,2.632,4.514,3.833,7.75.375s8.951-11.651,8.951-11.651" transform="translate(-8.497 -32.082)" fill="none" stroke="#375565" stroke-linecap="round" stroke-linejoin="round" stroke-width="1"/>
        <path id="Path_1574" data-name="Path 1574" d="M62.463,101.6c-1.737,3.458-3.993,8.124-3.993,8.124a57.336,57.336,0,0,0,0,7.069c.222,4.59,2.257,18.253,2.257,22.813s.222,8.247.222,8.247" transform="translate(-14.482 -24.642)" fill="none" stroke="#375565" stroke-linecap="round" stroke-linejoin="round" stroke-width="1"/>
        <path id="Path_1575" data-name="Path 1575" d="M112.216,153.514c-.222-3.687-.826-7.444-.826-7.444l5.715-20.38" transform="translate(-26.941 -30.303)" fill="none" stroke="#375565" stroke-linecap="round" stroke-linejoin="round" stroke-width="1"/>
        <path id="Path_1576" data-name="Path 1576" d="M119.418,125.1c-.428.451,24.083,42.565,24.083,42.565" transform="translate(-28.826 -30.164)" fill="none" stroke="#375565" stroke-linecap="round" stroke-linejoin="round" stroke-width="1"/>
        <path id="Path_1577" data-name="Path 1577" d="M153.17,184.97l.979,2.18a11.5,11.5,0,0,0-.153,4.062c.3,2.41.077,2.93,1.056,4.215a23.148,23.148,0,0,0,1.882,2.18" transform="translate(-36.759 -44.233)" fill="none" stroke="#375565" stroke-linecap="round" stroke-linejoin="round" stroke-width="1"/>
        <path id="Path_1578" data-name="Path 1578" d="M157.492,207.244c-.3-.077-2.18.153-1.882-2.18s.9-3.381,2.257-3.007" transform="translate(-37.325 -48.231)" fill="none" stroke="#375565" stroke-linecap="round" stroke-linejoin="round" stroke-width="1"/>
        <path id="Path_1579" data-name="Path 1579" d="M160.634,208.106c-1.431-.3-2.632-.528-2.555-2.1a13.512,13.512,0,0,1,.375-3.236c.375-1.882,2.257-1.431,2.18,0" transform="translate(-37.911 -48.122)" fill="none" stroke="#375565" stroke-linecap="round" stroke-linejoin="round" stroke-width="1"/>
        <path id="Path_1580" data-name="Path 1580" d="M163.579,203.877c-.077-1.652-2.027-2.257-2.18,0a24.08,24.08,0,0,0,0,3.458c0,.979.6,2.257,2.18,1.507" transform="translate(-38.677 -48.329)" fill="none" stroke="#375565" stroke-linecap="round" stroke-linejoin="round" stroke-width="1"/>
        <path id="Path_1581" data-name="Path 1581" d="M158.08,194.271a11.193,11.193,0,0,0,5.791,6.12s-.3,3.205-.375,5.462,1.652,5.715,2.785,2.785a41.2,41.2,0,0,0,1.729-5.623c.528-1.9,1.056-3.1,0-5.057a19.488,19.488,0,0,1-1.576-4.139" transform="translate(-37.913 -46.313)" fill="none" stroke="#375565" stroke-linecap="round" stroke-linejoin="round" stroke-width="1"/>
        <path id="Path_1582" data-name="Path 1582" d="M159.75,181.23a37.692,37.692,0,0,0,5.041,4.735,32.172,32.172,0,0,0,6.541,4.062c2.18,1.132,2.632,2.1,2.555,4.215a21.7,21.7,0,0,1-.3,3.19" transform="translate(-38.305 -43.354)" fill="none" stroke="#375565" stroke-linecap="round" stroke-linejoin="round" stroke-width="1"/>
        <path id="Path_1583" data-name="Path 1583" d="M174.709,210.13c-.3,1.125-.528,1.958-2.027,1.805s-3.381-.482-3.381-.482" transform="translate(-40.549 -50.145)" fill="none" stroke="#375565" stroke-linecap="round" stroke-linejoin="round" stroke-width="1"/>
        <path id="Path_1584" data-name="Path 1584" d="M98.4,70.24c-.076,1.958.153,3.764,0,5.638a3.087,3.087,0,0,0,1.507,3.236,13.145,13.145,0,0,0,2.333,1.354" transform="translate(-23.884 -17.273)" fill="none" stroke="#375565" stroke-linecap="round" stroke-linejoin="round" stroke-width="1"/>
        <path id="Path_1585" data-name="Path 1585" d="M108.34,86.17a70.134,70.134,0,0,0,7.444,4.812,18.514,18.514,0,0,1,7.895,9.173c1.652,4.659,23.088,56.328,23.088,56.328" transform="translate(-26.224 -21.016)" fill="none" stroke="#375565" stroke-linecap="round" stroke-linejoin="round" stroke-width="1"/>
        <path id="Path_1586" data-name="Path 1586" d="M142.37,164.721s4.5-1.821,6.082-4.231" transform="translate(-34.221 -38.48)" fill="none" stroke="#375565" stroke-linecap="round" stroke-linejoin="round" stroke-width="1"/>
        <path id="Path_1587" data-name="Path 1587" d="M74.08,88.43c3.5,4.215,14.023,7.6,25.681.673" transform="translate(-18.174 -21.547)" fill="none" stroke="#375565" stroke-linecap="round" stroke-linejoin="round" stroke-width="1"/>
        <path id="Path_1588" data-name="Path 1588" d="M171.85,205.83h2.632l25.72,51.049" transform="translate(-41.148 -49.135)" fill="none" stroke="#375565" stroke-linecap="round" stroke-linejoin="round" stroke-width="1"/>
        <path id="Path_1589" data-name="Path 1589" d="M202.835,255.963s-25.934-52.419-26.087-52.87-1.063-1.354-1.737-1.125a14.1,14.1,0,0,1-3.152,0" transform="translate(-41.151 -48.219)" fill="none" stroke="#375565" stroke-linecap="round" stroke-linejoin="round" stroke-width="1"/>
        <path id="Path_1590" data-name="Path 1590" d="M167.32,215.44c0,.222,21.13,42.412,21.13,42.412" transform="translate(-40.084 -51.393)" fill="none" stroke="#375565" stroke-linecap="round" stroke-linejoin="round" stroke-width="1"/>
        <path id="Path_1591" data-name="Path 1591" d="M160.83,210.72l23.241,46.031,16.172,1.874" transform="translate(-38.559 -50.284)" fill="none" stroke="#375565" stroke-linecap="round" stroke-linejoin="round" stroke-width="1"/>
        <path id="Path_1592" data-name="Path 1592" d="M183.84,245.3a30.955,30.955,0,0,1,6.09-4.888" transform="translate(-43.966 -57.261)" fill="none" stroke="#375565" stroke-linecap="round" stroke-linejoin="round" stroke-width="1"/>
        <path id="Path_1593" data-name="Path 1593" d="M192.7,238.74s3.833,0,13.464.826,18.2,2.027,24.442,12.11,8.8,12.408,13.235,22.109,8.8,20.609,9.547,23.012,1.354,5.263-.451,7.444a123.337,123.337,0,0,1-9.249,9.4c-1.576,1.278-1.576,2.18-5.34,2.257a86.253,86.253,0,0,1-16.769-1.125c-6.77-1.2-11.429-3.16-13.61-3.534s-3.986-1.507-6.694-5.791a265.579,265.579,0,0,1-14.367-28.114,166.279,166.279,0,0,1-7.6-21.068c-.9-2.854-1.117-5.608,1.094-8.484" transform="translate(-42.75 -56.868)" fill="none" stroke="#375565" stroke-linecap="round" stroke-linejoin="round" stroke-width="1"/>
        <path id="Path_1594" data-name="Path 1594" d="M189.34,257.37l1.431-2.41,6.617.826" transform="translate(-45.258 -60.68)" fill="none" stroke="#375565" stroke-linecap="round" stroke-linejoin="round" stroke-width="1"/>
        <line id="Line_149" data-name="Line 149" x2="3.16" y2="0.451" transform="translate(157.171 195.864)" fill="none" stroke="#375565" stroke-linecap="round" stroke-linejoin="round" stroke-width="1"/>
        <path id="Path_1595" data-name="Path 1595" d="M213.288,259.29c-.3.375-2.708,3.909-2.708,3.909" transform="translate(-50.249 -61.697)" fill="none" stroke="#375565" stroke-linecap="round" stroke-linejoin="round" stroke-width="1"/>
        <line id="Line_150" data-name="Line 150" x2="7.39" y2="0.765" transform="translate(148.106 199.919)" fill="none" stroke="#375565" stroke-linecap="round" stroke-linejoin="round" stroke-width="1"/>
        <path id="Path_1596" data-name="Path 1596" d="M216.08,265.78c2.18.375,5.638.979,7.75,4.361S235.94,290.819,240,299.624s8.5,19.477,8.5,19.477" transform="translate(-51.542 -63.222)" fill="none" stroke="#375565" stroke-linecap="round" stroke-linejoin="round" stroke-width="1"/>
        <path id="Path_1597" data-name="Path 1597" d="M253.762,305.234a136.935,136.935,0,0,0-12.187-28.65c-8.277-14.359-11.131-18.047-12.561-19.929s-4.888-4.215-8.27-5.493-16.494-3.083-16.494-3.083" transform="translate(-48.762 -59.063)" fill="none" stroke="#375565" stroke-linecap="round" stroke-linejoin="round" stroke-width="1"/>
        <path id="Path_1598" data-name="Path 1598" d="M213.618,332.33a4.5,4.5,0,0,0-.436,3.458c.528,2.027,1.2,3.313,2.555,3.687s3.687.6,4.812-.826a12.913,12.913,0,0,0,1.782-3.6" transform="translate(-50.824 -78.861)" fill="none" stroke="#375565" stroke-linecap="round" stroke-linejoin="round" stroke-width="1"/>
        <path id="Path_1599" data-name="Path 1599" d="M218.409,333.88s-1.584,4.414,1.125,6.243" transform="translate(-51.981 -79.225)" fill="none" stroke="#375565" stroke-linecap="round" stroke-linejoin="round" stroke-width="1"/>
        <path id="Path_1600" data-name="Path 1600" d="M247.93,340.586c-.077,4.514,2.632,6.242,5.868,6.464s4.881-3.175,3.313-7.421" transform="translate(-59.026 -80.576)" fill="none" stroke="#375565" stroke-linecap="round" stroke-linejoin="round" stroke-width="1"/>
        <path id="Path_1601" data-name="Path 1601" d="M253.329,340.68s-1.652,4.812,2.1,6.694" transform="translate(-60.21 -80.823)" fill="none" stroke="#375565" stroke-linecap="round" stroke-linejoin="round" stroke-width="1"/>
        <path id="Path_1602" data-name="Path 1602" d="M68.645,168.236S62.4,164.778,61.8,164.4s-.849-1.2-1.668-.3-2.02,1.507-2.394,2.333.9.528.979,2.93-.076,3.381-.979,4.514-.574,1.958.352,3.236a10.727,10.727,0,0,0,2.043,2.1l6.25-.077" transform="translate(-14.208 -39.234)" fill="none" stroke="#375565" stroke-linecap="round" stroke-linejoin="round" stroke-width="1"/>
        <path id="Path_1603" data-name="Path 1603" d="M62.53,171.89c.076.3,3.083,3.313,5.416,3.909" transform="translate(-15.46 -41.159)" fill="none" stroke="#375565" stroke-linecap="round" stroke-linejoin="round" stroke-width="1"/>
        <path id="Path_1604" data-name="Path 1604" d="M64.3,177.836c.222.3,2.555-.826,2.555-.826" transform="translate(-15.875 -42.362)" fill="none" stroke="#375565" stroke-linecap="round" stroke-linejoin="round" stroke-width="1"/>
        <path id="Path_1605" data-name="Path 1605" d="M82.125,170.149c-.451-.528-1.729-1.729-1.729-1.729l-2.93.222-.673.9s.076-.9-1.056-1.125a8.2,8.2,0,0,0-2.479,0,5.721,5.721,0,0,0-2.333,4.123,57.33,57.33,0,0,0-.528,7.765c-.077,2.708-.375,7.52-.375,7.52l-.9,5.11,1.805,2.479a5.285,5.285,0,0,0,3.16.75c2.035-.077,2.479-1.675,3.083-1.775s.076-2.134,0-4.315-1.056-5.562-.673-9.027a34.182,34.182,0,0,0,.222-5.653L77.841,173" transform="translate(-17.008 -40.321)" fill="none" stroke="#375565" stroke-linecap="round" stroke-linejoin="round" stroke-width="1"/>
        <path id="Path_1606" data-name="Path 1606" d="M79.73,183.929c.076-.077,3.687,9.173,5.562,11.957s3.833,4.873,6.694,1.981,2.479-4.391.673-6.724a85.4,85.4,0,0,1-5.416-7.971,2.879,2.879,0,0,1,.451-2.632" transform="translate(-19.501 -43.192)" fill="none" stroke="#375565" stroke-linecap="round" stroke-linejoin="round" stroke-width="1"/>
        <path id="Path_1607" data-name="Path 1607" d="M82.907,170.71c-1.354.153-3.007.3-3.381,3.236s-1.607,3.794,1.354,4.437,4.812-1.278,11.353-.6,8.346.956,10.756,5.026a21.982,21.982,0,0,1,2.555,13.021c-.375,4.062-3.833,16.769-5.416,20.227S82.984,263.8,82.081,266.513s-10.45,30.233-10.45,30.233L65.09,316.3" transform="translate(-16.061 -40.882)" fill="none" stroke="#375565" stroke-linecap="round" stroke-linejoin="round" stroke-width="1"/>
        <path id="Path_1608" data-name="Path 1608" d="M57,328.595c-.451.528-.979,7.3-.979,7.3a23.92,23.92,0,0,0-4.59,3.313c-2.632,2.333-7.444,6.166-7.444,6.166s-5.944,1.507-8.124.673-7.673-3.007-3.833-5.493,13.61-7.895,13.61-7.895l5.791-6.319S63.092,276.551,65.2,264.066s6.916-56.106,6.916-56.106" transform="translate(-7.981 -49.635)" fill="none" stroke="#375565" stroke-linecap="round" stroke-linejoin="round" stroke-width="1"/>
        <path id="Path_1609" data-name="Path 1609" d="M64.3,183.98c.6,25.115,4.781,48.846,10.19,60.7" transform="translate(-15.875 -44)" fill="none" stroke="#375565" stroke-linecap="round" stroke-linejoin="round" stroke-width="1"/>
        <path id="Path_1610" data-name="Path 1610" d="M91.6,282.264s4.98,8.5,11.077,13.464,14.589,7.818,16.547,9.4,2.555,1.805,2.93,5.34.6,11.835.6,11.835l-1.729,3.718-3.083,2.272s-4.062,2.555-.153,3.381,6.243-.222,8.874,0,5.187-1.354,4.361-6.243-.734-7.971.161-10.68,1.951-8.5,1.951-8.5-.528-4.139-2.93-4.284-4.361-.077-4.361-.077a43.342,43.342,0,0,1-16.624-12.783c-7.451-9.326-12.347-23.241-12.347-23.241" transform="translate(-22.291 -63.243)" fill="none" stroke="#375565" stroke-linecap="round" stroke-linejoin="round" stroke-width="1"/>
        <path id="Path_1611" data-name="Path 1611" d="M114.34,307.727a5.56,5.56,0,0,0,4.185-5.837" transform="translate(-27.634 -71.708)" fill="none" stroke="#375565" stroke-linecap="round" stroke-linejoin="round" stroke-width="1"/>
        <path id="Path_1612" data-name="Path 1612" d="M131.83,337.076c1.2.168,2.785-.581,3.534-.734s1.278-1.148,1.278-1.148.077-3.97.528-7.8,1.2-7.3,1.2-7.3a8.542,8.542,0,0,0-.75-7.153" transform="translate(-31.744 -74.304)" fill="none" stroke="#375565" stroke-linecap="round" stroke-linejoin="round" stroke-width="1"/>
        <path id="Path_1613" data-name="Path 1613" d="M40.248,374.954c-.122.849-.428,2.05-.428,2.05l4.437.979a10.067,10.067,0,0,0,6.4-2.479,61.536,61.536,0,0,1,7.367-5.715" transform="translate(-10.123 -87.663)" fill="none" stroke="#375565" stroke-linecap="round" stroke-linejoin="round" stroke-width="1"/>
        <path id="Path_1614" data-name="Path 1614" d="M65.076,334.29s-.3.673,1.958.9a26.5,26.5,0,0,0,4.59,0" transform="translate(-16.055 -79.321)" fill="none" stroke="#375565" stroke-linecap="round" stroke-linejoin="round" stroke-width="1"/>
        <path id="Path_1615" data-name="Path 1615" d="M106.18,244.95a20.8,20.8,0,0,0,11.735-2.18" transform="translate(-25.717 -57.815)" fill="none" stroke="#375565" stroke-linecap="round" stroke-linejoin="round" stroke-width="1"/>
        <path id="Path_1616" data-name="Path 1616" d="M120.129,222.42c-.153.375-.329,12.034-.329,12.034a80.81,80.81,0,0,0,3.037,7.6c1.125,2.1.979,5.868,5.791,4.437s7.222-1.805,9.479-3.236,4.361-2.18,2.555-4.628-6.4-9.065-6.4-9.065" transform="translate(-28.917 -53.033)" fill="none" stroke="#375565" stroke-linecap="round" stroke-linejoin="round" stroke-width="1"/>
        <path id="Path_1617" data-name="Path 1617" d="M116.968,224.826s11.735-11.468,13.013-13.349,1.958-2.1.75-4.514-16.172-32.192-17.144-33.921-1.859-2.257-1.607-3.611.321-3.236-.995-4.514-1.767-1.729-4.024-.6-6.992,3.611-10.381,3.909-8.821.88-8.821.88" transform="translate(-21.388 -39.228)" fill="none" stroke="#375565" stroke-linecap="round" stroke-linejoin="round" stroke-width="1"/>
        <path id="Path_1618" data-name="Path 1618" d="M95.36,175.126c.222,0,8.423-1.576,11.582-3.236" transform="translate(-23.174 -41.159)" fill="none" stroke="#375565" stroke-linecap="round" stroke-linejoin="round" stroke-width="1"/>
        <path id="Path_1619" data-name="Path 1619" d="M119.3,213.77c.023,1.507-1.553,3.006,1.607,4.284s11.4,3.274,11.4,3.274" transform="translate(-28.711 -51.001)" fill="none" stroke="#375565" stroke-linecap="round" stroke-linejoin="round" stroke-width="1"/>
        <path id="Path_1620" data-name="Path 1620" d="M55.65,220.965s6.319-3.534,7.971-4.735" transform="translate(-13.843 -51.579)" fill="none" stroke="#375565" stroke-linecap="round" stroke-linejoin="round" stroke-width="1"/>
        <path id="Path_1621" data-name="Path 1621" d="M58.184,184.97c-.153.222-5.868,23.386-6.013,26.286s-.528,5,1.507,6.732,9.479,5.493,9.479,5.493" transform="translate(-12.996 -44.233)" fill="none" stroke="#375565" stroke-linecap="round" stroke-linejoin="round" stroke-width="1"/>
        <path id="Path_1622" data-name="Path 1622" d="M63.045,234.81c-.153.6-2.188,9.547-2.188,9.547a3.642,3.642,0,0,0,2.188,3.611c2.479,1.132,7.291,1.354,7.291,1.354" transform="translate(-15.064 -55.945)" fill="none" stroke="#375565" stroke-linecap="round" stroke-linejoin="round" stroke-width="1"/>
        <path id="Path_1623" data-name="Path 1623" d="M27.429,125.322s-5.638-17.9-5.868-20.3-.153-4.812-1.576-5.34a28.957,28.957,0,0,0-5.263-.979,5.481,5.481,0,0,1-3.313-2.41" transform="translate(-3.447 -23.394)" fill="none" stroke="#375565" stroke-linecap="round" stroke-linejoin="round" stroke-width="1"/>
        <path id="Path_1624" data-name="Path 1624" d="M35.681,113.01,27.258,94.359s1.056-8.951,1.729-11.506.451-3.458-.528-6.013-2.632-4.888-3.313-6.617a4.372,4.372,0,0,0-2.41-2.333s-1.729,1.278-.222,4.735S25.6,78.042,25.827,80.3s.673,3.381-.9,3.687-11.054,2.93-11.054,2.93" transform="translate(-4.025 -16.721)" fill="none" stroke="#375565" stroke-linecap="round" stroke-linejoin="round" stroke-width="1"/>
        <path id="Path_1625" data-name="Path 1625" d="M10.985,90.98c1.071.444,1.117,2.984-.222,3.121a15.506,15.506,0,0,1-2.853.314c-1.293-.046-2.226-2.639-1.071-3.06" transform="translate(-2.25 -22.146)" fill="none" stroke="#375565" stroke-linecap="round" stroke-linejoin="round" stroke-width="1"/>
        <path id="Path_1626" data-name="Path 1626" d="M4.35,87.08c-1.071.757-.222,2.854.979,2.984a33.623,33.623,0,0,0,4.307,0c1.216-.046,1.232-2.54,0-2.984" transform="translate(-1.673 -21.23)" fill="none" stroke="#375565" stroke-linecap="round" stroke-linejoin="round" stroke-width="1"/>
        <path id="Path_1627" data-name="Path 1627" d="M8.963,82.36c1.385.4,1.293,3.741-.826,3.611a14.059,14.059,0,0,0-3.588,0c-1.339.168-3.343-2.945-1.025-3.611" transform="translate(-1.344 -20.121)" fill="none" stroke="#375565" stroke-linecap="round" stroke-linejoin="round" stroke-width="1"/>
        <path id="Path_1628" data-name="Path 1628" d="M4.824,80.623H7.41c1.561,0,2.853-2.762.9-3.519A19.252,19.252,0,0,0,5.1,76.125L4.518,74.97s-2.257,1.737-2.043,3.343.031,2.318,2.356,2.318Z" transform="translate(-1.344 -18.384)" fill="none" stroke="#375565" stroke-linecap="round" stroke-linejoin="round" stroke-width="1"/>
        <path id="Path_1629" data-name="Path 1629" d="M4.167,69.487c-.046.092-2.494-9.134-2.586-9.578s-1.691-1.247.849-2.318,10.3-3.152,11.544-3.511,2.3-.9,3,1.377,2.479,9.111,2.479,9.111" transform="translate(-1.001 -13.399)" fill="none" stroke="#375565" stroke-linecap="round" stroke-linejoin="round" stroke-width="1"/>
        <path id="Path_1630" data-name="Path 1630" d="M11.6,81.819l9.593-2.647S15.533,58,15.357,58.18s-9.807,2.9-9.807,2.9L8.534,72.524" transform="translate(-2.07 -14.439)" fill="none" stroke="#375565" stroke-linecap="round" stroke-linejoin="round" stroke-width="1"/>
        <path id="Path_1631" data-name="Path 1631" d="M114.63,55.42c2.762,2.678,3.772,4.009,3.664,7.887s-1.507,7.084-.7,12.034,9.892,6.281,13.235,2.808" transform="translate(-27.702 -13.79)" fill="none" stroke="#375565" stroke-linecap="round" stroke-linejoin="round" stroke-width="1"/>
        <path id="Path_1632" data-name="Path 1632" d="M134.685,88.43a13.561,13.561,0,0,1-6.755,10.075" transform="translate(-30.828 -21.547)" fill="none" stroke="#375565" stroke-linecap="round" stroke-linejoin="round" stroke-width="1"/>
        <path id="Path_1633" data-name="Path 1633" d="M80.4,4.665c5.149-5.08,17.978-4.682,23.2,0s5.761,7.566,6.135,11.934" transform="translate(-19.659 -1.003)" fill="none" stroke="#375565" stroke-linecap="round" stroke-linejoin="round" stroke-width="1"/>
        <path id="Path_1634" data-name="Path 1634" d="M56.2,25.117a11.894,11.894,0,0,1,6.617-7.887" transform="translate(-13.972 -4.816)" fill="none" stroke="#375565" stroke-linecap="round" stroke-linejoin="round" stroke-width="1"/>
        <path id="Path_1635" data-name="Path 1635" d="M60.52,27.854a8.242,8.242,0,0,1,6.12-6.074" transform="translate(-14.987 -5.885)" fill="none" stroke="#375565" stroke-linecap="round" stroke-linejoin="round" stroke-width="1"/>
        <path id="Path_1636" data-name="Path 1636" d="M123.83,40.94a8.059,8.059,0,0,1,0,7.665" transform="translate(-29.864 -10.388)" fill="none" stroke="#375565" stroke-linecap="round" stroke-linejoin="round" stroke-width="1"/>
        <path id="Path_1637" data-name="Path 1637" d="M127.662,39.69s3.167,5.646-.872,10.091" transform="translate(-30.56 -10.094)" fill="none" stroke="#375565" stroke-linecap="round" stroke-linejoin="round" stroke-width="1"/>
      </g>
    </g>
    <path id="Path_2007" data-name="Path 2007" d="M-21.182-45.732A15.018,15.018,0,0,1-7.91-38.408Q-3.955-32.373-3.955-23q0,8.408-2.959,14.121A17.23,17.23,0,0,1-11.865-2.9,15.248,15.248,0,0,1-21.24.117,15.063,15.063,0,0,1-34.6-7.178q-3.926-6.035-3.926-15.791,0-10.049,4.453-16.2A15.128,15.128,0,0,1-21.182-45.732Zm-.117,6.768q-3.9,0-6.357,4.043-2.637,4.395-2.637,12.1a26.77,26.77,0,0,0,1.611,9.932q2.461,6.035,7.5,6.035a7.108,7.108,0,0,0,5.947-3.369q3.047-4.277,3.047-12.627,0-7.822-2.725-12.217Q-17.314-38.965-21.3-38.965ZM26.4-24.111a14.661,14.661,0,0,1,5.83,1.729,10.486,10.486,0,0,1,4.541,5.156,10.243,10.243,0,0,1,.732,3.867A11.877,11.877,0,0,1,31.934-2.9,19.691,19.691,0,0,1,20.742.117q-8.789,0-13.594-4.893a6.187,6.187,0,0,1-2.2-4.189,3.036,3.036,0,0,1,.967-2.314,3.67,3.67,0,0,1,2.607-1.055,3.138,3.138,0,0,1,2.227.85,10.041,10.041,0,0,1,.879,1.025q3.193,3.867,9.082,3.867A10.3,10.3,0,0,0,26.309-8a6.035,6.035,0,0,0,3.018-5.449A6.877,6.877,0,0,0,27.51-18.4a7.206,7.206,0,0,0-3.984-2.021,36.744,36.744,0,0,0-5.684-.352q-3.867,0-3.867-3.281,0-3.135,4.014-3.135A15.028,15.028,0,0,0,24.082-28.3a5.4,5.4,0,0,0,3.633-5.244,4.853,4.853,0,0,0-2.08-4.131,8.487,8.487,0,0,0-5.156-1.465,9.056,9.056,0,0,0-7.822,3.779,3.165,3.165,0,0,1-2.7,1.436A3.537,3.537,0,0,1,7.588-34.8a2.911,2.911,0,0,1-1.113-2.314,5.158,5.158,0,0,1,1.465-3.223,14.364,14.364,0,0,1,4.219-3.281,18.084,18.084,0,0,1,8.555-2.051,17.821,17.821,0,0,1,9.141,2.256,10.876,10.876,0,0,1,5.771,9.99,8.439,8.439,0,0,1-3.34,6.914A11.6,11.6,0,0,1,26.924-24.2Z" transform="translate(-1931 2594)" fill="#0085d7"/>
  </g>
</svg>
