<svg xmlns="http://www.w3.org/2000/svg" width="370" height="336" viewBox="0 0 370 336">
  <g id="Group_541" data-name="Group 541" transform="translate(1980 -2527)">
    <g id="施術風景3" transform="translate(-1980 2527)" fill="#fff" stroke="#0085d7" stroke-width="1">
      <rect width="370" height="336" rx="20" stroke="none"/>
      <rect x="0.5" y="0.5" width="369" height="335" rx="19.5" fill="none"/>
    </g>
    <path id="Path_2005" data-name="Path 2005" d="M-21.182-45.732A15.018,15.018,0,0,1-7.91-38.408Q-3.955-32.373-3.955-23q0,8.408-2.959,14.121A17.23,17.23,0,0,1-11.865-2.9,15.248,15.248,0,0,1-21.24.117,15.063,15.063,0,0,1-34.6-7.178q-3.926-6.035-3.926-15.791,0-10.049,4.453-16.2A15.128,15.128,0,0,1-21.182-45.732Zm-.117,6.768q-3.9,0-6.357,4.043-2.637,4.395-2.637,12.1a26.77,26.77,0,0,0,1.611,9.932q2.461,6.035,7.5,6.035a7.108,7.108,0,0,0,5.947-3.369q3.047-4.277,3.047-12.627,0-7.822-2.725-12.217Q-17.314-38.965-21.3-38.965Zm46.553-2.988V-3.662a3.057,3.057,0,0,1-.82,2.168,4.186,4.186,0,0,1-3.223,1.26,3.865,3.865,0,0,1-3.457-1.611,3.2,3.2,0,0,1-.527-1.816V-41.953a2.973,2.973,0,0,1,1.582-2.754,4.714,4.714,0,0,1,2.4-.645,4.7,4.7,0,0,1,2.7.791A3,3,0,0,1,25.254-41.953Z" transform="translate(-1931 2594)" fill="#0085d7"/>
    <g id="Layer_2" data-name="Layer 2" transform="translate(-1947.072 2568.004)">
      <g id="Group_483" data-name="Group 483" transform="translate(1 0.995)">
        <path id="Path_1474" data-name="Path 1474" d="M123.858,255.289s-14.01,44.454-15.282,49.893-4.286,14.354,1.967,17.594,11.579.7,14.467-5.326,23.039-41.1,23.039-41.1l17.825,31.372,9.837,1.159s3.127,13.891,6.717,22.224,8.684,12.155,8.684,12.155,10.188-2.544,18.176-16.322,33.915-70.5,36.7-79.992,2.775-17.825-4.862-23.5-10.3-4.862-15.858-9.029a42.588,42.588,0,0,1-8.333-7.989s3.471,3.007-.7,8.333-12.731,10.3-12.731,10.3l-14.818,7.174,3.822,37.737s1.04,11.115-3.59,12.851-12.268-8.916-12.268-8.916l-2.318-33.683s-4.286,3.127-8.8.808a16.174,16.174,0,0,1-8.916-13.083c-.7-6.485-1.5-13.659-1.5-13.659l-4.4-1.391s3.7,1.855-.113,7.638a89.643,89.643,0,0,1-5.207,7.406l-7.869,34.266s-4.518,6.829-7.293,5.9-6.366-12.851-6.366-12.851Z" transform="translate(-36.692 -70.348)" fill="rgba(0,133,215,0.2)"/>
        <path id="Path_1475" data-name="Path 1475" d="M322.108,357.041s-1.623-6.134-4.286-13.083-5.438-13.314-5.438-13.314l-5.942-35.075-25.662,52.9,41.328,8.565Z" transform="translate(-95.451 -100.441)" fill="rgba(0,133,215,0.2)"/>
        <path id="Path_1476" data-name="Path 1476" d="M230.087,116.483c1.736.7.7,1.04,2.663-1.623a25.686,25.686,0,0,1,5.789-5.094s3.007-14.818-.7-25.582-16.9-29.749-42.719-30.676-41.44,13.083-44.567,30.444-1.159,27.9-1.159,27.9-1.391-6.253,14.123-7.174,26.854.232,35.075-6.253,14.818-11.579,14.818-11.579,7.406,6.134,10.42,14.7,3.935,14.01,6.253,14.931Z" transform="translate(-50.892 -18.708)" fill="rgba(0,133,215,0.5)"/>
        <path id="Path_1477" data-name="Path 1477" d="M250.351,36.65c-.311.152,13.891,10.188,13.891,10.188S273.5,44.2,276.9,39.115s5.319-16.666-3.127-23.145-23.111-7.717-27.742,2.471,4.319,18.216,4.319,18.216Z" transform="translate(-83.272 -4.355)" fill="rgba(0,133,215,0.5)"/>
        <path id="Path_1478" data-name="Path 1478" d="M138.158,107.95s-6.717-12.731,6.021-37.506,39.592-38.2,67.837-23.383" transform="translate(-46.706 -14.461)" fill="none" stroke="#375565" stroke-linecap="round" stroke-linejoin="round" stroke-width="1"/>
        <path id="Path_1479" data-name="Path 1479" d="M235.421,24.1c0-.7-3.007-10.42,2.087-15.745S256.492-3.91,270.151,6.039,284.969,26.183,281.5,33.357,266.912,44.24,266.912,44.24" transform="translate(-79.841 -0.995)" fill="none" stroke="#375565" stroke-linecap="round" stroke-linejoin="round" stroke-width="1"/>
        <path id="Path_1480" data-name="Path 1480" d="M268.38,48.319c.464.7,17.13,3.286,17.13-14.679" transform="translate(-91.265 -12.016)" fill="none" stroke="#375565" stroke-linecap="round" stroke-linejoin="round" stroke-width="1"/>
        <path id="Path_1481" data-name="Path 1481" d="M267.123,19.45s4.63,7.79,0,14.2S253,38.9,253,38.9" transform="translate(-86.073 -7.226)" fill="none" stroke="#375565" stroke-linecap="round" stroke-linejoin="round" stroke-width="1"/>
        <path id="Path_1482" data-name="Path 1482" d="M262.79,56.61c.464,1.55,27.55,15.9,19.448,52.483" transform="translate(-89.378 -19.77)" fill="none" stroke="#375565" stroke-linecap="round" stroke-linejoin="round" stroke-width="1"/>
        <path id="Path_1483" data-name="Path 1483" d="M250.55,111.38c9.492,10.42,10.883,12.963,11.579,19.216s2.544,7.406,5.094,4.4,6.253-6.485,9.724-5.326,5.326,5.789,2.544,11.811-7.459,9.029-11.142,9.26" transform="translate(-85.246 -38.26)" fill="none" stroke="#375565" stroke-linecap="round" stroke-linejoin="round" stroke-width="1"/>
        <path id="Path_1484" data-name="Path 1484" d="M217.7,272.883c1.159,1.623,2.776,4.167,6.485,2.544s6.717-7.174,6.717-7.174l-4.4-42.136s10.42-3.239,15.977-7.869,9.81-5.326,10.691-10.42a79.568,79.568,0,0,0,1.444-14.586c-.093-4.4-.934-6.021-1.444-6.021" transform="translate(-74.156 -63.863)" fill="none" stroke="#375565" stroke-linecap="round" stroke-linejoin="round" stroke-width="1"/>
        <path id="Path_1485" data-name="Path 1485" d="M262.79,195.776s3.789-20.608,5.6-25.006,1.345-8.8-1.894-4.4-3.7,7.618-3.7,7.618" transform="translate(-89.378 -56.21)" fill="none" stroke="#375565" stroke-linecap="round" stroke-linejoin="round" stroke-width="1"/>
        <path id="Path_1486" data-name="Path 1486" d="M237.279,197.341c.464-1.159,6.485-17.362,6.485-17.362l-1.391-3.239s-4.63,1.186-6.717,7.538S230.33,198.5,230.33,198.5a17.709,17.709,0,0,1-10.188,6.253c-6.717,1.391-8.333.7-10.652,5.094s-3.935,6.253-2.544,11.115,4.167,41.44,4.167,41.44" transform="translate(-70.352 -60.325)" fill="none" stroke="#375565" stroke-linecap="round" stroke-linejoin="round" stroke-width="1"/>
        <path id="Path_1487" data-name="Path 1487" d="M209.66,275.02c.464,23.847,3.471,43.063,9.492,55.1s13.659,17.825,25.7,1.623,37.737-73.395,41.9-86.59,5.789-23.847-3.935-32.412-25.7-17.13-25.7-17.13" transform="translate(-71.442 -66.696)" fill="none" stroke="#375565" stroke-linecap="round" stroke-linejoin="round" stroke-width="1"/>
        <path id="Path_1488" data-name="Path 1488" d="M329.19,281.59c.927,13.891,4.862,32.875,6.021,39.36s6.054,20,9.029,32.412" transform="translate(-111.794 -95.722)" fill="none" stroke="#375565" stroke-linecap="round" stroke-linejoin="round" stroke-width="1"/>
        <path id="Path_1489" data-name="Path 1489" d="M169.12,286.49l1.153,17.594,16.9,29.63" transform="translate(-57.756 -97.376)" fill="none" stroke="#375565" stroke-linecap="round" stroke-linejoin="round" stroke-width="1"/>
        <path id="Path_1490" data-name="Path 1490" d="M245.56,301.86S249.1,329.178,253.5,344" transform="translate(-83.561 -102.565)" fill="none" stroke="#375565" stroke-linecap="round" stroke-linejoin="round" stroke-width="1"/>
        <path id="Path_1491" data-name="Path 1491" d="M269.183,280.19S257.167,312.833,253,323.021" transform="translate(-86.073 -95.249)" fill="none" stroke="#375565" stroke-linecap="round" stroke-linejoin="round" stroke-width="1"/>
        <path id="Path_1492" data-name="Path 1492" d="M144.963,302.977c-1.623,3.7-13.957,27.318-19.826,37.274s-13.745,10.883-17.448,8.333-6.021-10.652-3.7-21.071,8.8-42.368,10.883-46.766,5.789-6.379,7.406-7.816" transform="translate(-35.454 -92.798)" fill="none" stroke="#375565" stroke-linecap="round" stroke-linejoin="round" stroke-width="1"/>
        <path id="Path_1493" data-name="Path 1493" d="M144.18,153.762c-2.332,0-3.895-6.485-6.253,1.159l-1.537,12.268" transform="translate(-46.707 -51.701)" fill="none" stroke="#375565" stroke-linecap="round" stroke-linejoin="round" stroke-width="1"/>
        <path id="Path_1494" data-name="Path 1494" d="M141.88,193.063c-2.087-3.007-3.16-10.652-2.968-13.891s-6.293-7.406-6.525,0,0,15.05,3.7,20.144,10.188,6.021,9.492,11.115c-.126.947-10.565,25.7-10.565,25.7a76.019,76.019,0,0,0,0,12.738c.609,6.472,5.008,10.877,7.558,6.015s6.253-15.745,8.333-22.687,3.935-15.05,3.935-15.05.927-2.087,3.007-6.717,1.855-7.638-1.159-11.115" transform="translate(-45.334 -59.751)" fill="none" stroke="#375565" stroke-linecap="round" stroke-linejoin="round" stroke-width="1"/>
        <line id="Line_146" data-name="Line 146" x1="6.591" y2="21.065" transform="translate(86.987 150.217)" fill="none" stroke="#375565" stroke-linecap="round" stroke-linejoin="round" stroke-width="1"/>
        <path id="Path_1495" data-name="Path 1495" d="M100.678,215.53s-10.883,14.6-25.238,14.129" transform="translate(-26.13 -73.42)" fill="none" stroke="#375565" stroke-linecap="round" stroke-linejoin="round" stroke-width="1"/>
        <path id="Path_1496" data-name="Path 1496" d="M67.937,216.546s-6.485-9.221-11.811-3.915a11.78,11.78,0,0,0-2.775,12.016s-8.8,5.379-4.4,14.964S61.916,244.1,61.916,244.1s7.406,9.26,14.586,2.544-.232-16.673-7.638-14.01" transform="translate(-16.773 -71.886)" fill="none" stroke="#375565" stroke-linecap="round" stroke-linejoin="round" stroke-width="1"/>
        <line id="Line_147" data-name="Line 147" x2="67.605" y2="14.123" transform="translate(0 209.483)" fill="none" stroke="#375565" stroke-linecap="round" stroke-linejoin="round" stroke-width="1"/>
        <path id="Path_1497" data-name="Path 1497" d="M154.09,348.7s36.81,7.638,36.81,8.333" transform="translate(-52.682 -118.378)" fill="none" stroke="#375565" stroke-linecap="round" stroke-linejoin="round" stroke-width="1"/>
        <line id="Line_148" data-name="Line 148" x2="129.189" y2="28.477" transform="translate(185.68 248.38)" fill="none" stroke="#375565" stroke-linecap="round" stroke-linejoin="round" stroke-width="1"/>
        <path id="Path_1498" data-name="Path 1498" d="M149.54,121.128c3.239-7.174,3.557-6.485,29.1-8.8s39.2-14.586,42.209-32.412" transform="translate(-51.146 -27.64)" fill="none" stroke="#375565" stroke-linecap="round" stroke-linejoin="round" stroke-width="1"/>
        <path id="Path_1499" data-name="Path 1499" d="M206.884,64.19c-10.228,17.13-26.9,29.172-30.371,28.477s3.166-14.222,3.166-14.222-17.607,12.606-27.059,17" transform="translate(-52.186 -22.329)" fill="none" stroke="#375565" stroke-linecap="round" stroke-linejoin="round" stroke-width="1"/>
        <path id="Path_1500" data-name="Path 1500" d="M265.21,83.77s12.963,12.738,13.672,35.426" transform="translate(-90.195 -28.939)" fill="none" stroke="#375565" stroke-linecap="round" stroke-linejoin="round" stroke-width="1"/>
        <path id="Path_1501" data-name="Path 1501" d="M147.849,149.82s-1.159,5.558-.232,19.912,17.594,29.636,41.9,31.021" transform="translate(-50.375 -51.237)" fill="none" stroke="#375565" stroke-linecap="round" stroke-linejoin="round" stroke-width="1"/>
        <path id="Path_1502" data-name="Path 1502" d="M188.757,207.691s-1.623-2.08-1.159-4.167,1.822-2.636,3.935-2.087c3.829,1,5,4.054,1.855,6.717" transform="translate(-63.966 -68.596)" fill="none" stroke="#375565" stroke-linecap="round" stroke-linejoin="round" stroke-width="1"/>
        <path id="Path_1503" data-name="Path 1503" d="M207.91,158.21c.232,10.188-1.159,14.123,4.63,14.818s9.433-5.551,9.578-13.659" transform="translate(-70.851 -54.07)" fill="none" stroke="#375565" stroke-linecap="round" stroke-linejoin="round" stroke-width="1"/>
        <path id="Path_1504" data-name="Path 1504" d="M170.2,156.11c-.232,5.789-.7,13.03-6.021,12.533s-4.167-8.83-3.935-12.533" transform="translate(-54.669 -53.361)" fill="none" stroke="#375565" stroke-linecap="round" stroke-linejoin="round" stroke-width="1"/>
        <path id="Path_1505" data-name="Path 1505" d="M232.353,128.85c-.464,8.565,2.087,15.282,10.42,10.42" transform="translate(-79.085 -44.158)" fill="none" stroke="#375565" stroke-linecap="round" stroke-linejoin="round" stroke-width="1"/>
        <path id="Path_1506" data-name="Path 1506" d="M180.272,176.74l-4.862,6.942,8.022,3.239" transform="translate(-59.879 -60.325)" fill="none" stroke="#375565" stroke-linecap="round" stroke-linejoin="round" stroke-width="1"/>
        <path id="Path_1507" data-name="Path 1507" d="M181.87,234.41c1.5,12.731,7.293,18.753,17.249,16.673" transform="translate(-62.06 -79.794)" fill="none" stroke="#375565" stroke-linecap="round" stroke-linejoin="round" stroke-width="1"/>
      </g>
    </g>
  </g>
</svg>
