<svg xmlns="http://www.w3.org/2000/svg" width="260.345" height="287.776" viewBox="0 0 260.345 287.776">
  <g id="Layer_2" data-name="Layer 2" transform="translate(0.5 0.5)">
    <g id="Group_461" data-name="Group 461" transform="translate(0 0)">
      <path id="Path_1284" data-name="Path 1284" d="M64.612,80.014S74.8,70.964,75.957,58.662,73.265,30.374,56.917,22.3,22.668,22.5,15.93,34.42c0,0-.2,6.341,7.7,9.809s11.163,5.317,11.163,5.317l4.227,12.005s1.932-2.312,4.046-4.426,3.468-1.932,6.341-.38,2.692,3.848,1.156,6.737a15.768,15.768,0,0,1-3.072,4.227s5.2,12.9,17.125,12.319Z" transform="translate(9.55 11.603)" fill="rgba(0,133,215,0.2)"/>
      <path id="Path_1285" data-name="Path 1285" d="M43.78,26.053s7.315,3.6,8.653,8.224c0,0,7.117.578,12.319-2.89s8.471-8.851-.38-18.082-15.589-3.27-17.884,0S43.8,26.053,43.8,26.053Z" transform="translate(27.69 4.629)" fill="rgba(0,133,215,0.2)"/>
      <path id="Path_1286" data-name="Path 1286" d="M145.365,156.469c-4.029,12.9-18.082,34.249-18.082,34.249l-74.063-.974,15.969-42.506s1.156,3.451,27.115,4.029c20.328.446,40.062-13.805,47.691-20.047C145.2,134.44,148.784,145.587,145.365,156.469Z" transform="translate(33.839 84.644)" fill="rgba(0,133,215,0.2)"/>
      <path id="Path_1287" data-name="Path 1287" d="M136.9,104.832l4.227-20.014-25,11.741,16.547,34.431a42.15,42.15,0,0,0-3.088,6.688c-1.536,4.194-1.156,7.167.4,11.114,1.536,3.947,2.873,9.528,5.383,13.376,2.494,3.848,3.072,6.539,5,6.341,1.916-.182,1.536-1.338,1.156-4.805-.4-3.468-2.114-6.919-1.156-8.471.958-1.536,4.426,4.624,9.231,8.851,4.805,4.244,10.767,16.926,10.767,16.926s.149.33.363.925c-7.629,6.242-27.363,20.493-47.691,20.047-25.959-.578-27.115-4.029-27.115-4.029l-7.117-4.046s-.776-10.007-.776-15.192-1.156-5.78-3.848-9.627S58.414,151.2,58.414,151.2s-7.7,4.426-15.391,5.383a53.729,53.729,0,0,1-13.673,0,59.777,59.777,0,0,0,.2-9.165c-.2-6.473-1.338-13.343-1.916-24.7-.578-11.345,1.338-24.622,1.338-33.275S33.4,75.207,37.244,73.473l5.78,4.805S38.4,95.023,57.258,90.019c18.842-5,22.706-15.969,25.976-18.858s-4.624-4.046-4.624-4.046c10.965-5.383,18.082-1.536,18.858-1.717.76-.2,45.214-11.163,58.095-11.939,12.9-.76,15.391,2.89,13.475,12.5-1.932,9.627-9.627,35.6-9.627,35.6s-2.692,2.692-12.881,3.848c-10.205,1.156-9.627-.578-9.627-.578Z" transform="translate(17.102 33.931)" fill="#e5f3fb"/>
      <path id="Path_1288" data-name="Path 1288" d="M113.577,134.574c-.776.2,22.508-24.044,22.508-24.044L151.1,125.921l25.4-55.6L149.94,109.506l-13.277-16.1-23.086,41.168Z" transform="translate(73.141 44.977)" fill="rgba(0,133,215,0.5)"/>
      <path id="Path_1289" data-name="Path 1289" d="M118.81,142.17l25.4-17.306,8.273,17.306,30.005-37.75-28.849,23.135-6.16-16.348Z" transform="translate(76.561 67.188)" fill="rgba(0,133,215,0.5)"/>
      <path id="Path_1290" data-name="Path 1290" d="M96.364,36.872h0a2.906,2.906,0,0,1-2.89-2.791l-.743-21.963A3.628,3.628,0,0,1,96.364,8.37h0A3.638,3.638,0,0,1,100,12.119l-.743,21.963A2.884,2.884,0,0,1,96.364,36.872Z" transform="translate(59.573 4.626)" fill="rgba(0,133,215,0.5)"/>
      <ellipse id="Ellipse_84" data-name="Ellipse 84" cx="3.782" cy="3.782" rx="3.782" ry="3.782" transform="translate(152.651 43.711)" fill="rgba(0,133,215,0.5)"/>
      <path id="Path_1291" data-name="Path 1291" d="M11.8,42.127S14.69,22.641,35.612,17.6,67.8,24.97,67.8,24.97" transform="translate(6.86 9.857)" fill="none" stroke="#375565" stroke-linecap="round" stroke-linejoin="round" stroke-width="1"/>
      <path id="Path_1292" data-name="Path 1292" d="M50.6,24.19s12.55,13.31,9.528,32.779S45.7,79.328,45.7,79.328,50.027,89.567,68.208,87.4" transform="translate(28.941 14.93)" fill="none" stroke="#375565" stroke-linecap="round" stroke-linejoin="round" stroke-width="1"/>
      <path id="Path_1293" data-name="Path 1293" d="M42.41,24.4c-.578-6.424.066-11.031,4.756-15.506S62.028,4.57,68.518,12.859s5.2,18.247,0,22.079-14.433,2.609-14.433,2.609" transform="translate(26.682 3.06)" fill="none" stroke="#375565" stroke-linecap="round" stroke-linejoin="round" stroke-width="1"/>
      <path id="Path_1294" data-name="Path 1294" d="M46.84,24.846c7.58,1.007,14.581-5.78,9.809-13.706" transform="translate(29.684 6.43)" fill="none" stroke="#375565" stroke-linecap="round" stroke-linejoin="round" stroke-width="1"/>
      <path id="Path_1295" data-name="Path 1295" d="M48.89,26.934c10.321,1.949,14.581-4.69,13.921-11.114" transform="translate(31.019 9.479)" fill="none" stroke="#375565" stroke-linecap="round" stroke-linejoin="round" stroke-width="1"/>
      <path id="Path_1296" data-name="Path 1296" d="M51.355,59.174c-5.912.066-11.031-2.015-15.225-8.224" transform="translate(22.708 32.36)" fill="none" stroke="#375565" stroke-linecap="round" stroke-linejoin="round" stroke-width="1"/>
      <path id="Path_1297" data-name="Path 1297" d="M43.135,63.311c4.971,0,8.29-3.9,7.86-9.38s-2.229-5.482-5.631-4.475-5.994,6.06-5.994,6.06-.941-3.831-2.1-7.5S35.324,43.4,28.62,40.589,17.506,33.8,15.64,28.98" transform="translate(9.361 18.05)" fill="none" stroke="#375565" stroke-linecap="round" stroke-linejoin="round" stroke-width="1"/>
      <path id="Path_1298" data-name="Path 1298" d="M23.16,23.29c6.341,14,18.4,17.24,18.4,17.24s1.371-2.89-1.734-9.231c0,0,12.848,10.6,21.286,12.914" transform="translate(14.26 14.344)" fill="none" stroke="#375565" stroke-linecap="round" stroke-linejoin="round" stroke-width="1"/>
      <path id="Path_1299" data-name="Path 1299" d="M19.972,31.28C10.889,40.23,11.1,57.834,11.1,57.834A24.062,24.062,0,0,0,4.68,63.316c3.749,4.475,6.424,3.468,6.424,3.468S20.12,94.411,51.644,84.321l8.868,11.031" transform="translate(2.223 19.548)" fill="none" stroke="#375565" stroke-linecap="round" stroke-linejoin="round" stroke-width="1"/>
      <path id="Path_1300" data-name="Path 1300" d="M16.61,35.39c.281,7.943,1.949,10.106,7.646,4.178" transform="translate(9.993 22.225)" fill="none" stroke="#375565" stroke-linecap="round" stroke-linejoin="round" stroke-width="1"/>
      <path id="Path_1301" data-name="Path 1301" d="M18.4,42.86c-.215.066-5.549,3.963-5.549,3.963l6.209,1.585" transform="translate(7.544 27.091)" fill="none" stroke="#375565" stroke-linecap="round" stroke-linejoin="round" stroke-width="1"/>
      <path id="Path_1302" data-name="Path 1302" d="M20.376,58.434c-5.268-3.683-6.49-1.883-6.341,0" transform="translate(8.308 35.842)" fill="none" stroke="#375565" stroke-linecap="round" stroke-linejoin="round" stroke-width="1"/>
      <path id="Path_1303" data-name="Path 1303" d="M35.349,66.45c-5.631,5.631-7.15,9.38-7.282,22.079s.578,59.96.578,59.96,15.11,2.461,27.1-4.409" transform="translate(17.445 42.456)" fill="none" stroke="#375565" stroke-linecap="round" stroke-linejoin="round" stroke-width="1"/>
      <path id="Path_1304" data-name="Path 1304" d="M33.73,85.9c.512,7.943,1.8,14.069,2.378,19.123s.281,8.158,6.787,14.136,22.508,25.183,26.124,28.42,5.119,5.912,5.549,11.18a74.164,74.164,0,0,1,0,10.536" transform="translate(21.144 55.125)" fill="none" stroke="#375565" stroke-linecap="round" stroke-linejoin="round" stroke-width="1"/>
      <path id="Path_1305" data-name="Path 1305" d="M60.69,144.352c24.523,10.024,49.854,10.965,75.681-11.972" transform="translate(38.705 85.4)" fill="none" stroke="#375565" stroke-linecap="round" stroke-linejoin="round" stroke-width="1"/>
      <path id="Path_1306" data-name="Path 1306" d="M67.2,140.55c-.149,5.053-2.378,11.84-6.127,22.656S53.36,183.7,53.36,183.7" transform="translate(33.93 90.721)" fill="none" stroke="#375565" stroke-linecap="round" stroke-linejoin="round" stroke-width="1"/>
      <path id="Path_1307" data-name="Path 1307" d="M74.54,147.45c0,.429,2.229,3.468,2.807,5.994" transform="translate(47.726 95.215)" fill="none" stroke="#375565" stroke-linecap="round" stroke-linejoin="round" stroke-width="1"/>
      <path id="Path_1308" data-name="Path 1308" d="M77.735,154.53c-.4.215-5.945,20.857-5.945,20.857" transform="translate(45.935 99.827)" fill="none" stroke="#375565" stroke-linecap="round" stroke-linejoin="round" stroke-width="1"/>
      <path id="Path_1309" data-name="Path 1309" d="M115.635,131.94c6.127,13.491,1.007,24.754-4.475,35.058s-13.64,22.293-13.64,22.293" transform="translate(62.694 85.113)" fill="none" stroke="#375565" stroke-linecap="round" stroke-linejoin="round" stroke-width="1"/>
      <path id="Path_1310" data-name="Path 1310" d="M88.264,98.74c-2.229,12.98-9.743,25.249-12.55,28.634s-3.253,5.631,2.741,3.963,10.387-6.919,10.387-6.919" transform="translate(47.196 63.488)" fill="none" stroke="#375565" stroke-linecap="round" stroke-linejoin="round" stroke-width="1"/>
      <path id="Path_1311" data-name="Path 1311" d="M81.18,80.13c0,.215,11.543,27.495,15.292,32.532" transform="translate(52.051 51.367)" fill="none" stroke="#375565" stroke-linecap="round" stroke-linejoin="round" stroke-width="1"/>
      <path id="Path_1312" data-name="Path 1312" d="M75.85,88.655S104.2,73.578,114.227,71.91" transform="translate(48.579 46.013)" fill="none" stroke="#375565" stroke-linecap="round" stroke-linejoin="round" stroke-width="1"/>
      <path id="Path_1313" data-name="Path 1313" d="M98.131,73.31c-.281.149-4.475,19.04-4.541,19.271s11.692,1.734,22.145-3.171" transform="translate(60.134 46.925)" fill="none" stroke="#375565" stroke-linecap="round" stroke-linejoin="round" stroke-width="1"/>
      <path id="Path_1314" data-name="Path 1314" d="M60.43,64.506A78.452,78.452,0,0,0,86.191,63.35c12.336-2.378,25.976-6.275,38.955-8.521s18.33-1.734,20.923,2.015,2.378,4.789.644,11.774-7.365,31.524-7.365,31.524" transform="translate(38.535 34.014)" fill="none" stroke="#375565" stroke-linecap="round" stroke-linejoin="round" stroke-width="1"/>
      <path id="Path_1315" data-name="Path 1315" d="M99.678,85.42c-.066.363-7.431,20.774-9.082,28.073s-1.883,9.892.578,18.33,4.69,10.783,6.127,13.723,5.053,4.393,3.831-.809-3.468-9.314-1.437-10.106,1.8-.727,5.268,3.749,11.609,17.174,12.765,18.974,2.89,2.163,2.807,0-2.89-11.262-11.328-22.723" transform="translate(57.366 54.812)" fill="none" stroke="#375565" stroke-linecap="round" stroke-linejoin="round" stroke-width="1"/>
      <path id="Path_1316" data-name="Path 1316" d="M104.29,114.95s7.266,9.33,5.466,19.057" transform="translate(67.104 74.047)" fill="none" stroke="#375565" stroke-linecap="round" stroke-linejoin="round" stroke-width="1"/>
      <path id="Path_1317" data-name="Path 1317" d="M108.355,84.59s-9.314,15.589-10.965,23.383-2.1,10.9,1.734,14.218,6.919,4.624,10.816,8.736,5.648,7.051,4.673,14.268" transform="translate(61.816 54.272)" fill="none" stroke="#375565" stroke-linecap="round" stroke-linejoin="round" stroke-width="1"/>
      <path id="Path_1318" data-name="Path 1318" d="M48.371,116.83l.578,41.416s-12.7-.149-17.025,0-3.749-.281-9.33,1.833A106.011,106.011,0,0,0,9.317,166.42c-2.015,1.139-.38,2.593,1.354,2.411" transform="translate(4.637 75.271)" fill="none" stroke="#375565" stroke-linecap="round" stroke-linejoin="round" stroke-width="1"/>
      <path id="Path_1319" data-name="Path 1319" d="M26.657,144.29c-5.383.578-13.475,4.178-15.192,5.218s-1.156,3.055,3.27,2.279" transform="translate(6.056 93.157)" fill="none" stroke="#375565" stroke-linecap="round" stroke-linejoin="round" stroke-width="1"/>
      <path id="Path_1320" data-name="Path 1320" d="M29.571,145.981c-7.018-.1-12.5,3.022-14.334,3.864s-5.2,3.154.578,2.972,10.684-2.444,15.391-1.949" transform="translate(7.37 94.257)" fill="none" stroke="#375565" stroke-linecap="round" stroke-linejoin="round" stroke-width="1"/>
      <path id="Path_1321" data-name="Path 1321" d="M31.95,166.888c-4.706.2-7.7,2.791-8.372,4.624s.677,2.791,3.749,1.635,3.749-2.378,8.95-2.394,13.079.512,13.376-3.071a8.962,8.962,0,0,0-2.015-6.176L51.2,116.39" transform="translate(14.42 74.985)" fill="none" stroke="#375565" stroke-linecap="round" stroke-linejoin="round" stroke-width="1"/>
      <path id="Path_1322" data-name="Path 1322" d="M.5,145.119V117.327a28.692,28.692,0,0,1,16.6-3.947c9.941.578,10.816,4.128,10.816,4.128v6.837s.479-1.536,4.426-1.057,6.49,1.833,5.994,8.174-2.048,9.528-10.6,9.759V145.1a23.019,23.019,0,0,1-14.2,4.822A20.263,20.263,0,0,1,.517,145.1Z" transform="translate(-0.5 72.991)" fill="none" stroke="#375565" stroke-linecap="round" stroke-linejoin="round" stroke-width="1"/>
      <path id="Path_1323" data-name="Path 1323" d="M17.04,122.174a5.186,5.186,0,0,1,3.468-.892c2.312.1,3.749,1.123,3.369,5.185s-1.057,5.6-6.837,5.6V124.85" transform="translate(10.273 78.167)" fill="none" stroke="#375565" stroke-linecap="round" stroke-linejoin="round" stroke-width="1"/>
      <ellipse id="Ellipse_85" data-name="Ellipse 85" cx="10.337" cy="2.147" rx="10.337" ry="2.147" transform="translate(3.567 189.674)" fill="none" stroke="#375565" stroke-linecap="round" stroke-linejoin="round" stroke-width="1"/>
      <line id="Line_105" data-name="Line 105" y1="42.043" x2="93.615" transform="translate(0.578 236.968)" fill="none" stroke="#375565" stroke-linecap="round" stroke-linejoin="round" stroke-width="1"/>
      <line id="Line_106" data-name="Line 106" x1="90.626" y2="43.942" transform="translate(3.567 242.665)" fill="none" stroke="#375565" stroke-linecap="round" stroke-linejoin="round" stroke-width="1"/>
      <path id="Path_1324" data-name="Path 1324" d="M113.47,136.745l24.011-42.7L149.6,109.646,176.453,70.08l-25.4,54.247-14.433-14.68-14.433,17.57" transform="translate(73.083 44.821)" fill="none" stroke="#375565" stroke-linecap="round" stroke-linejoin="round" stroke-width="1"/>
      <path id="Path_1325" data-name="Path 1325" d="M152.053,121.867l-4.9-12.055L118.58,140.924l24.82-15.556,8.653,17.735,30.88-38.774L156.1,126.838" transform="translate(76.412 67.129)" fill="none" stroke="#375565" stroke-linecap="round" stroke-linejoin="round" stroke-width="1"/>
      <path id="Path_1326" data-name="Path 1326" d="M108.542.5A33.486,33.486,0,0,0,81.229,53.409L75.763,63.747,86.15,58.925A33.509,33.509,0,1,0,108.542.5Z" transform="translate(48.039 -0.5)" fill="none" stroke="#375565" stroke-linecap="round" stroke-linejoin="round" stroke-width="1"/>
      <path id="Path_1327" data-name="Path 1327" d="M96.364,36.872h0a2.906,2.906,0,0,1-2.89-2.791l-.743-21.963A3.628,3.628,0,0,1,96.364,8.37h0A3.638,3.638,0,0,1,100,12.119l-.743,21.963A2.884,2.884,0,0,1,96.364,36.872Z" transform="translate(59.573 4.626)" fill="none" stroke="#375565" stroke-linecap="round" stroke-linejoin="round" stroke-width="1"/>
      <ellipse id="Ellipse_86" data-name="Ellipse 86" cx="3.782" cy="3.782" rx="3.782" ry="3.782" transform="translate(152.651 43.711)" fill="none" stroke="#375565" stroke-linecap="round" stroke-linejoin="round" stroke-width="1"/>
      <path id="Path_1328" data-name="Path 1328" d="M36.14,76.859c3.6,11.543,17.174,13.277,42.7-12.7" transform="translate(22.714 40.965)" fill="none" stroke="#375565" stroke-linecap="round" stroke-linejoin="round" stroke-width="1"/>
    </g>
  </g>
</svg>
