<svg xmlns="http://www.w3.org/2000/svg" width="216.345" height="239.15" viewBox="0 0 216.345 239.15">
  <g id="Layer_2" data-name="Layer 2" transform="translate(0.5 0.5)">
    <g id="Group_461" data-name="Group 461" transform="translate(0 0)">
      <path id="Path_1284" data-name="Path 1284" d="M56.353,69.676s8.46-7.514,9.42-17.729-2.235-23.488-15.81-30.193-28.438.165-34.033,10.064c0,0-.165,5.265,6.39,8.145s9.269,4.415,9.269,4.415l3.51,9.968s1.6-1.92,3.359-3.675,2.879-1.6,5.265-.315,2.235,3.195.96,5.594a13.092,13.092,0,0,1-2.55,3.51S46.453,70.17,56.353,69.69Z" transform="translate(5.227 6.397)" fill="rgba(0,133,215,0.5)"/>
      <path id="Path_1285" data-name="Path 1285" d="M43.78,23.054s6.074,2.989,7.185,6.828c0,0,5.91.48,10.229-2.4s7.034-7.35-.315-15.014-12.944-2.715-14.85,0-2.235,10.586-2.235,10.586Z" transform="translate(15.565 2.423)" fill="rgba(0,133,215,0.5)"/>
      <path id="Path_1286" data-name="Path 1286" d="M129.732,152.185c-3.346,10.709-15.014,28.438-15.014,28.438l-61.5-.809L66.479,144.52s.96,2.866,22.515,3.346c16.879.37,33.265-11.463,39.6-16.646C129.6,133.894,132.571,143.149,129.732,152.185Z" transform="translate(19.069 48.021)" fill="rgba(0,133,215,0.5)"/>
      <path id="Path_1287" data-name="Path 1287" d="M118.346,96.1l3.51-16.619L101.1,89.23l13.739,28.589a35,35,0,0,0-2.564,5.553c-1.275,3.483-.96,5.951.329,9.228s2.386,7.912,4.47,11.107,2.55,5.43,4.155,5.265,1.275-1.111.96-3.99-1.755-5.745-.96-7.034,3.675,3.839,7.665,7.35,8.94,14.055,8.94,14.055.123.274.3.768c-6.335,5.183-22.721,17.016-39.6,16.646-21.555-.48-22.515-3.346-22.515-3.346l-5.91-3.359s-.644-8.309-.644-12.615-.96-4.8-3.195-7.994S53.173,134.6,53.173,134.6s-6.39,3.675-12.779,4.47a44.614,44.614,0,0,1-11.353,0,49.635,49.635,0,0,0,.165-7.61c-.165-5.375-1.111-11.079-1.591-20.513S28.725,90.5,28.725,83.32,32.4,71.5,35.595,70.061l4.8,3.99s-3.839,13.9,11.82,9.749S71.067,70.54,73.782,68.141s-3.839-3.359-3.839-3.359c9.1-4.47,15.014-1.275,15.659-1.426s37.543-9.269,48.238-9.914,12.779,2.4,11.189,10.38-7.994,29.563-7.994,29.563-2.235,2.235-10.7,3.195-7.994-.48-7.994-.48Z" transform="translate(9.531 19.121)" fill="rgba(0,133,215,0.2)"/>
      <path id="Path_1288" data-name="Path 1288" d="M113.574,123.673c-.644.165,18.689-19.964,18.689-19.964l12.464,12.779L165.816,70.32l-22.049,32.538L132.743,89.489l-19.169,34.184Z" transform="translate(41.466 25.416)" fill="rgba(0,133,215,0.5)"/>
      <path id="Path_1289" data-name="Path 1289" d="M118.81,135.765,139.9,121.4l6.87,14.37,24.914-31.345-23.955,19.21-5.115-13.575Z" transform="translate(43.415 38.073)" fill="rgba(0,133,215,0.5)"/>
      <path id="Path_1290" data-name="Path 1290" d="M95.747,32.037h0a2.413,2.413,0,0,1-2.4-2.317L92.73,11.483A3.013,3.013,0,0,1,95.747,8.37h0a3.021,3.021,0,0,1,3.017,3.113l-.617,18.237A2.4,2.4,0,0,1,95.747,32.037Z" transform="translate(33.734 2.421)" fill="rgba(0,133,215,0.5)"/>
      <ellipse id="Ellipse_84" data-name="Ellipse 84" cx="3.14" cy="3.14" rx="3.14" ry="3.14" transform="translate(126.752 36.295)" fill="rgba(0,133,215,0.5)"/>
      <path id="Path_1291" data-name="Path 1291" d="M11.8,37.763A26.052,26.052,0,0,1,31.573,17.4C48.945,13.218,58.3,23.516,58.3,23.516" transform="translate(3.694 5.402)" fill="none" stroke="#000" stroke-linecap="round" stroke-linejoin="round" stroke-width="1"/>
      <path id="Path_1292" data-name="Path 1292" d="M49.772,24.19s10.421,11.052,7.912,27.218S45.7,69.974,45.7,69.974s3.593,8.5,18.689,6.705" transform="translate(16.278 8.293)" fill="none" stroke="#000" stroke-linecap="round" stroke-linejoin="round" stroke-width="1"/>
      <path id="Path_1293" data-name="Path 1293" d="M42.38,21.274c-.48-5.334.055-9.159,3.949-12.875S58.67,4.806,64.058,11.69s4.319,15.152,0,18.333-11.984,2.166-11.984,2.166" transform="translate(14.99 1.528)" fill="none" stroke="#000" stroke-linecap="round" stroke-linejoin="round" stroke-width="1"/>
      <path id="Path_1294" data-name="Path 1294" d="M46.84,22.521c6.294.836,12.108-4.8,8.145-11.381" transform="translate(16.701 3.449)" fill="none" stroke="#000" stroke-linecap="round" stroke-linejoin="round" stroke-width="1"/>
      <path id="Path_1295" data-name="Path 1295" d="M48.89,25.048C57.46,26.666,61,21.154,60.449,15.82" transform="translate(17.462 5.187)" fill="none" stroke="#000" stroke-linecap="round" stroke-linejoin="round" stroke-width="1"/>
      <path id="Path_1296" data-name="Path 1296" d="M48.772,57.778c-4.909.055-9.16-1.673-12.642-6.828" transform="translate(12.725 18.226)" fill="none" stroke="#000" stroke-linecap="round" stroke-linejoin="round" stroke-width="1"/>
      <path id="Path_1297" data-name="Path 1297" d="M38.47,57.487c4.127,0,6.883-3.236,6.527-7.788s-1.851-4.552-4.676-3.716-4.977,5.032-4.977,5.032-.782-3.181-1.741-6.225-1.618-3.839-7.185-6.17S17.189,32.984,15.64,28.98" transform="translate(5.12 10.071)" fill="none" stroke="#000" stroke-linecap="round" stroke-linejoin="round" stroke-width="1"/>
      <path id="Path_1298" data-name="Path 1298" d="M23.16,23.29c5.265,11.628,15.275,14.315,15.275,14.315s1.138-2.4-1.44-7.665c0,0,10.668,8.8,17.675,10.723" transform="translate(7.911 7.959)" fill="none" stroke="#000" stroke-linecap="round" stroke-linejoin="round" stroke-width="1"/>
      <path id="Path_1299" data-name="Path 1299" d="M17.377,31.28c-7.542,7.432-7.363,22.049-7.363,22.049A19.98,19.98,0,0,0,4.68,57.881c3.113,3.716,5.334,2.879,5.334,2.879S17.5,83.7,43.677,75.322l7.363,9.159" transform="translate(1.052 10.925)" fill="none" stroke="#000" stroke-linecap="round" stroke-linejoin="round" stroke-width="1"/>
      <path id="Path_1300" data-name="Path 1300" d="M16.61,35.39c.233,6.6,1.618,8.392,6.349,3.469" transform="translate(5.48 12.451)" fill="none" stroke="#000" stroke-linecap="round" stroke-linejoin="round" stroke-width="1"/>
      <path id="Path_1301" data-name="Path 1301" d="M17.457,42.86c-.178.055-4.607,3.291-4.607,3.291l5.156,1.316" transform="translate(4.084 15.223)" fill="none" stroke="#000" stroke-linecap="round" stroke-linejoin="round" stroke-width="1"/>
      <path id="Path_1302" data-name="Path 1302" d="M19.3,58.071c-4.374-3.058-5.389-1.563-5.265,0" transform="translate(4.52 20.21)" fill="none" stroke="#000" stroke-linecap="round" stroke-linejoin="round" stroke-width="1"/>
      <path id="Path_1303" data-name="Path 1303" d="M34.111,66.45c-4.676,4.676-5.937,7.788-6.047,18.333s.48,49.788.48,49.788,12.546,2.043,22.5-3.661" transform="translate(9.726 23.979)" fill="none" stroke="#000" stroke-linecap="round" stroke-linejoin="round" stroke-width="1"/>
      <path id="Path_1304" data-name="Path 1304" d="M33.73,85.9c.425,6.6,1.495,11.682,1.975,15.878s.233,6.774,5.636,11.737,18.689,20.911,21.692,23.6a12.052,12.052,0,0,1,4.607,9.283,61.582,61.582,0,0,1,0,8.748" transform="translate(11.835 31.199)" fill="none" stroke="#000" stroke-linecap="round" stroke-linejoin="round" stroke-width="1"/>
      <path id="Path_1305" data-name="Path 1305" d="M60.69,142.321c20.362,8.323,41.4,9.1,62.841-9.941" transform="translate(21.842 48.451)" fill="none" stroke="#000" stroke-linecap="round" stroke-linejoin="round" stroke-width="1"/>
      <path id="Path_1306" data-name="Path 1306" d="M64.851,140.55c-.123,4.2-1.975,9.831-5.087,18.813s-6.4,17.016-6.4,17.016" transform="translate(19.121 51.484)" fill="none" stroke="#000" stroke-linecap="round" stroke-linejoin="round" stroke-width="1"/>
      <path id="Path_1307" data-name="Path 1307" d="M74.54,147.45c0,.356,1.851,2.879,2.331,4.977" transform="translate(26.983 54.045)" fill="none" stroke="#000" stroke-linecap="round" stroke-linejoin="round" stroke-width="1"/>
      <path id="Path_1308" data-name="Path 1308" d="M76.726,154.53c-.329.178-4.936,17.318-4.936,17.318" transform="translate(25.962 56.673)" fill="none" stroke="#000" stroke-linecap="round" stroke-linejoin="round" stroke-width="1"/>
      <path id="Path_1309" data-name="Path 1309" d="M112.562,131.94c5.087,11.2.836,20.554-3.716,29.11S97.52,179.561,97.52,179.561" transform="translate(35.512 48.288)" fill="none" stroke="#000" stroke-linecap="round" stroke-linejoin="round" stroke-width="1"/>
      <path id="Path_1310" data-name="Path 1310" d="M85.8,98.74a59.9,59.9,0,0,1-10.421,23.776c-2.331,2.811-2.7,4.676,2.276,3.291s8.625-5.745,8.625-5.745" transform="translate(26.681 35.965)" fill="none" stroke="#000" stroke-linecap="round" stroke-linejoin="round" stroke-width="1"/>
      <path id="Path_1311" data-name="Path 1311" d="M81.18,80.13c0,.178,9.585,22.83,12.7,27.012" transform="translate(29.447 29.057)" fill="none" stroke="#000" stroke-linecap="round" stroke-linejoin="round" stroke-width="1"/>
      <path id="Path_1312" data-name="Path 1312" d="M75.85,85.814s23.543-12.519,31.866-13.9" transform="translate(27.469 26.006)" fill="none" stroke="#000" stroke-linecap="round" stroke-linejoin="round" stroke-width="1"/>
      <path id="Path_1313" data-name="Path 1313" d="M97.361,73.31c-.233.123-3.716,15.81-3.771,16s9.708,1.44,18.388-2.633" transform="translate(34.054 26.526)" fill="none" stroke="#000" stroke-linecap="round" stroke-linejoin="round" stroke-width="1"/>
      <path id="Path_1314" data-name="Path 1314" d="M60.43,62.637a65.142,65.142,0,0,0,21.391-.96c10.243-1.975,21.569-5.21,32.346-7.075s15.22-1.44,17.373,1.673,1.975,3.976.535,9.777-6.116,26.176-6.116,26.176" transform="translate(21.745 19.168)" fill="none" stroke="#000" stroke-linecap="round" stroke-linejoin="round" stroke-width="1"/>
      <path id="Path_1315" data-name="Path 1315" d="M97.924,85.42c-.055.3-6.17,17.249-7.542,23.31s-1.563,8.213.48,15.22,3.894,8.954,5.087,11.395,4.2,3.647,3.181-.672-2.88-7.733-1.193-8.392,1.495-.6,4.374,3.113,9.639,14.26,10.6,15.755,2.4,1.8,2.331,0-2.4-9.351-9.406-18.867" transform="translate(32.476 31.021)" fill="none" stroke="#000" stroke-linecap="round" stroke-linejoin="round" stroke-width="1"/>
      <path id="Path_1316" data-name="Path 1316" d="M104.29,114.95s6.033,7.747,4.539,15.823" transform="translate(38.025 41.982)" fill="none" stroke="#000" stroke-linecap="round" stroke-linejoin="round" stroke-width="1"/>
      <path id="Path_1317" data-name="Path 1317" d="M106.288,84.59s-7.733,12.944-9.1,19.416-1.741,9.05,1.44,11.806,5.745,3.839,8.981,7.254,4.689,5.855,3.88,11.847" transform="translate(35.012 30.713)" fill="none" stroke="#000" stroke-linecap="round" stroke-linejoin="round" stroke-width="1"/>
      <path id="Path_1318" data-name="Path 1318" d="M41.588,116.83l.48,34.389s-10.544-.123-14.137,0-3.113-.233-7.747,1.522a88.026,88.026,0,0,0-11.024,5.265c-1.673.946-.315,2.153,1.124,2" transform="translate(2.428 42.68)" fill="none" stroke="#000" stroke-linecap="round" stroke-linejoin="round" stroke-width="1"/>
      <path id="Path_1319" data-name="Path 1319" d="M23.927,144.29c-4.47.48-11.189,3.469-12.615,4.333s-.96,2.537,2.715,1.892" transform="translate(3.236 52.872)" fill="none" stroke="#000" stroke-linecap="round" stroke-linejoin="round" stroke-width="1"/>
      <path id="Path_1320" data-name="Path 1320" d="M26.689,145.981c-5.828-.082-10.38,2.509-11.9,3.209s-4.319,2.619.48,2.468,8.872-2.029,12.779-1.618" transform="translate(3.985 53.499)" fill="none" stroke="#000" stroke-linecap="round" stroke-linejoin="round" stroke-width="1"/>
      <path id="Path_1321" data-name="Path 1321" d="M30.5,158.321c-3.908.165-6.39,2.317-6.952,3.839s.562,2.317,3.113,1.357,3.113-1.975,7.432-1.988,10.86.425,11.107-2.55a7.442,7.442,0,0,0-1.673-5.128l2.962-37.461" transform="translate(8.003 42.516)" fill="none" stroke="#000" stroke-linecap="round" stroke-linejoin="round" stroke-width="1"/>
      <path id="Path_1322" data-name="Path 1322" d="M.5,139.726V116.649a23.824,23.824,0,0,1,13.78-3.277c8.255.48,8.981,3.428,8.981,3.428v5.677s.4-1.275,3.675-.878,5.389,1.522,4.977,6.787-1.7,7.912-8.8,8.1v3.222a19.113,19.113,0,0,1-11.792,4,16.825,16.825,0,0,1-10.8-4Z" transform="translate(-0.5 41.38)" fill="none" stroke="#000" stroke-linecap="round" stroke-linejoin="round" stroke-width="1"/>
      <path id="Path_1323" data-name="Path 1323" d="M17.04,122.022a4.307,4.307,0,0,1,2.879-.74c1.92.082,3.113.932,2.8,4.306s-.878,4.648-5.677,4.648v-5.992" transform="translate(5.639 44.33)" fill="none" stroke="#000" stroke-linecap="round" stroke-linejoin="round" stroke-width="1"/>
      <ellipse id="Ellipse_85" data-name="Ellipse 85" cx="8.584" cy="1.783" rx="8.584" ry="1.783" transform="translate(2.962 157.494)" fill="none" stroke="#000" stroke-linecap="round" stroke-linejoin="round" stroke-width="1"/>
      <line id="Line_105" data-name="Line 105" y1="34.91" x2="77.733" transform="translate(0.48 196.765)" fill="none" stroke="#000" stroke-linecap="round" stroke-linejoin="round" stroke-width="1"/>
      <line id="Line_106" data-name="Line 106" x1="75.251" y2="36.487" transform="translate(2.962 201.495)" fill="none" stroke="#000" stroke-linecap="round" stroke-linejoin="round" stroke-width="1"/>
      <path id="Path_1324" data-name="Path 1324" d="M113.47,125.435l19.937-35.459,10.065,12.958,22.3-32.854-21.089,45.043-11.984-12.19L120.71,117.523" transform="translate(41.433 25.327)" fill="none" stroke="#000" stroke-linecap="round" stroke-linejoin="round" stroke-width="1"/>
      <path id="Path_1325" data-name="Path 1325" d="M146.374,118.892l-4.072-10.01L118.58,134.715,139.189,121.8l7.185,14.726,25.641-32.2-22.282,18.689" transform="translate(43.33 38.04)" fill="none" stroke="#000" stroke-linecap="round" stroke-linejoin="round" stroke-width="1"/>
      <path id="Path_1326" data-name="Path 1326" d="M102.855.5A27.8,27.8,0,0,0,80.176,44.433l-4.539,8.584,8.625-4A27.824,27.824,0,1,0,102.855.5Z" transform="translate(27.161 -0.5)" fill="none" stroke="#000" stroke-linecap="round" stroke-linejoin="round" stroke-width="1"/>
      <path id="Path_1327" data-name="Path 1327" d="M95.747,32.037h0a2.413,2.413,0,0,1-2.4-2.317L92.73,11.483A3.013,3.013,0,0,1,95.747,8.37h0a3.021,3.021,0,0,1,3.017,3.113l-.617,18.237A2.4,2.4,0,0,1,95.747,32.037Z" transform="translate(33.734 2.421)" fill="none" stroke="#000" stroke-linecap="round" stroke-linejoin="round" stroke-width="1"/>
      <ellipse id="Ellipse_86" data-name="Ellipse 86" cx="3.14" cy="3.14" rx="3.14" ry="3.14" transform="translate(126.752 36.295)" fill="none" stroke="#000" stroke-linecap="round" stroke-linejoin="round" stroke-width="1"/>
      <path id="Path_1328" data-name="Path 1328" d="M36.14,74.7C39.129,84.289,50.4,85.729,71.6,64.16" transform="translate(12.729 23.129)" fill="none" stroke="#000" stroke-linecap="round" stroke-linejoin="round" stroke-width="1"/>
    </g>
  </g>
</svg>
