<svg xmlns="http://www.w3.org/2000/svg" width="228.884" height="245.657" viewBox="0 0 228.884 245.657">
  <g id="Layer_2" data-name="Layer 2" transform="translate(0.5 0.548)">
    <g id="Group_462" data-name="Group 462" transform="translate(0 0)">
      <path id="Path_1329" data-name="Path 1329" d="M104.224,37.926c.315.178-.027-.37,0,0,.48,5.745.452,11.011-3.867,13.163s-12.944,5.992-12.944,5.992l-3.236,9.831-4.2-8.268s-5.636-4.676-5.992-8.392a20.553,20.553,0,0,1-5.869-1.44A16.164,16.164,0,0,0,64.4,47.5s-2.4.48-3.359,4.2a30.8,30.8,0,0,0,1.193,17.016,170.46,170.46,0,0,1,6.349,22.049,77.626,77.626,0,0,1,1.083,7.788l-2.989,4.909s2.509-1.083,4.909,2.633,4.2,6.225,4.2,6.225l6.952-8.872,4.072,7.432,13.534,2.276,3.716-.836s1.193.123,2.509,4.2a22.123,22.123,0,0,0,2.756,5.992l15.933-6.6s7.308-.288,11.381,5.306a59.141,59.141,0,0,1,5.512,8.707,20.59,20.59,0,0,0,4.552-12.944c-.247-7.432-3.236-11.5-6.349-17.249s-5.265-20.362-9.708-34.979-9.1-22.885-15.1-24.914A36.788,36.788,0,0,0,104.2,37.926Z" transform="translate(21.719 13.346)" fill="rgba(0,133,215,0.2)"/>
      <path id="Path_1330" data-name="Path 1330" d="M63.442,56.888c-3.469-.96-9.351-2.838-9.461-14.864S57.7,9.143,73.506,4.467s26.6,5.5,30.8,15.206,4.072,16.07,2.043,19.539c0,0,1.563-5.156-.6-6.828s-4.319.96-4.319.96l-3.113.96s.233-5.91-2.989-9.722a16.069,16.069,0,0,0-7.185-4.909S81.062,34.661,68.968,31.9c0,0-1.8,3.592-5.032,4.909S59.863,39.8,59.863,39.8,58.3,49.086,63.456,56.874Z" transform="translate(19.35 0.54)" fill="rgba(0,133,215,0.5)"/>
      <path id="Path_1331" data-name="Path 1331" d="M69.645,95.039c0-.384-.233-1.44-3.113-1.316S58.621,96,55.864,97.672s-3.839,6.952-4.552,10.668-5.992,54.271-5.992,54.271.836,1.44,6.6,2.509,8.392-.233,8.392-.233,6.705-37.5,7.542-40.135.96-4.552,6.115-5.265,10.9-1.193,10.9-1.193l.96-5.745a28.419,28.419,0,0,1-7.912,3.236c-4.552,1.083-5.992-1.193-5.992-1.193l-4.8,1.083s-2.276-.206-2.276-.96a9.088,9.088,0,0,1-2.043-2.756,3.674,3.674,0,0,1-.233-2.139,4.366,4.366,0,0,0-.233-2.646c-.59-1.316-.123-2.509,1.92-3.359s8.872-3.318,8.872-3.318L79.6,96.739s-6.705.6-8.268.48a1.885,1.885,0,0,1-1.673-2.153Z" transform="translate(16.137 34.102)" fill="rgba(0,133,215,0.5)"/>
      <path id="Path_1332" data-name="Path 1332" d="M71.374,93.609c-3.387,1.248,6.829,1.563,9.708,3.359s4.072,2.509,8.625,1.316,10.819-4.676,10.023-4.676S83,91.1,83,91.1,74.61,92.416,71.374,93.609Z" transform="translate(25.555 33.132)" fill="rgba(0,133,215,0.5)"/>
      <path id="Path_1333" data-name="Path 1333" d="M102.344,100.076s-20.006,7.651-22.282,9.324-8.625,5.019-5.389,14.96,20.732,42.287,20.732,42.287,3.236,2.043,8.268-.233a14.6,14.6,0,0,0,6.829-5.745s-7.075-16.18-9.1-21.692a106.272,106.272,0,0,1-3.593-14.013s12.944-1.44,24.078-5.992,15.33-10.188,15.33-10.188-4.2-13.424-16.893-14.013l-15.933,6.6-2.043-1.275Z" transform="translate(26.698 34.494)" fill="rgba(0,133,215,0.5)"/>
      <path id="Path_1334" data-name="Path 1334" d="M57.521,104.74,36.446,91.687l-5.279,16.29L2.77,76.59,27.095,93.716l6.829-11.257Z" transform="translate(0.343 27.746)" fill="rgba(0,133,215,0.5)"/>
      <path id="Path_1335" data-name="Path 1335" d="M59.324,96.391,35.726,59.6,26.265,74.219.5,40.68,24.948,89.316l11.737-15.81Z" transform="translate(-0.5 14.417)" fill="rgba(0,133,215,0.5)"/>
      <path id="Path_1336" data-name="Path 1336" d="M59.214,95.963,36.932,61.094,25.675,72.351S.5,39.8.5,40.553,25.181,87.832,25.181,87.832L36.206,74.559l14.85,13.273" transform="translate(-0.5 14.365)" fill="none" stroke="#000" stroke-linecap="round" stroke-linejoin="round" stroke-width="1"/>
      <path id="Path_1337" data-name="Path 1337" d="M28.948,90.117l5.622-9.338,23.735,23.6-22.3-12.341-5.745,15.11L2.95,76.94l24.2,16.77" transform="translate(0.409 27.876)" fill="none" stroke="#000" stroke-linecap="round" stroke-linejoin="round" stroke-width="1"/>
      <path id="Path_1338" data-name="Path 1338" d="M36.085,64.8s-4.552-21.089,17.5-23.6" transform="translate(12.564 14.61)" fill="none" stroke="#000" stroke-linecap="round" stroke-linejoin="round" stroke-width="1"/>
      <line id="Line_107" data-name="Line 107" y1="1.207" x2="90.087" transform="translate(137.79 51.614)" fill="none" stroke="#000" stroke-linecap="round" stroke-linejoin="round" stroke-width="1"/>
      <line id="Line_108" data-name="Line 108" x2="55.355" y2="1.453" transform="translate(167.257 139.781)" fill="none" stroke="#000" stroke-linecap="round" stroke-linejoin="round" stroke-width="1"/>
      <line id="Line_109" data-name="Line 109" x2="35.226" y2="0.96" transform="translate(148.088 156.811)" fill="none" stroke="#000" stroke-linecap="round" stroke-linejoin="round" stroke-width="1"/>
      <line id="Line_110" data-name="Line 110" x2="81.229" y2="3.592" transform="translate(136.351 199.949)" fill="none" stroke="#000" stroke-linecap="round" stroke-linejoin="round" stroke-width="1"/>
      <line id="Line_111" data-name="Line 111" x2="72.604" y2="4.552" transform="translate(142.823 215.525)" fill="none" stroke="#000" stroke-linecap="round" stroke-linejoin="round" stroke-width="1"/>
      <line id="Line_112" data-name="Line 112" x2="54.875" y2="3.592" transform="translate(74.757 210.726)" fill="none" stroke="#000" stroke-linecap="round" stroke-linejoin="round" stroke-width="1"/>
      <line id="Line_113" data-name="Line 113" x2="39.298" y2="2.633" transform="translate(76.677 195.149)" fill="none" stroke="#000" stroke-linecap="round" stroke-linejoin="round" stroke-width="1"/>
      <line id="Line_114" data-name="Line 114" x2="51.762" y2="2.674" transform="translate(9.105 191.763)" fill="none" stroke="#000" stroke-linecap="round" stroke-linejoin="round" stroke-width="1"/>
      <line id="Line_115" data-name="Line 115" y1="0.274" x2="42.658" transform="translate(16.77 154.658)" fill="none" stroke="#000" stroke-linecap="round" stroke-linejoin="round" stroke-width="1"/>
      <path id="Path_1339" data-name="Path 1339" d="M32.926,104.33s-20.362,5.293-23.488,6.033-7.432,4.429-7.185,11.806.233,35.664.96,39.737,0,5.636,7.185,5.457,51.515,2.7,51.515,2.7" transform="translate(0.147 38.043)" fill="none" stroke="#000" stroke-linecap="round" stroke-linejoin="round" stroke-width="1"/>
      <path id="Path_1340" data-name="Path 1340" d="M8.54,152.26s.713,3.359,1.193,7.432.96,4.319,5.265,4.8,5.992-2.633,6.952-4.8,0-7.432,0-7.432" transform="translate(2.484 55.833)" fill="none" stroke="#000" stroke-linecap="round" stroke-linejoin="round" stroke-width="1"/>
      <path id="Path_1341" data-name="Path 1341" d="M61.124,60.5c-5.636-.836-8.872-6.115-8.981-16.66S52.376,7.905,75.384,1.433s35.939,22.405,36.419,32.7-1.92,12.944-8.145,13.78" transform="translate(18.665 -0.498)" fill="none" stroke="#000" stroke-linecap="round" stroke-linejoin="round" stroke-width="1"/>
      <line id="Line_116" data-name="Line 116" x2="5.156" y2="4.909" transform="translate(119.088 46.952)" fill="none" stroke="#000" stroke-linecap="round" stroke-linejoin="round" stroke-width="1"/>
      <line id="Line_117" data-name="Line 117" x2="2.852" y2="3.894" transform="translate(100.672 63.722)" fill="none" stroke="#000" stroke-linecap="round" stroke-linejoin="round" stroke-width="1"/>
      <path id="Path_1342" data-name="Path 1342" d="M58,34.937S68.421,27.025,69.984,19.36" transform="translate(20.843 6.503)" fill="none" stroke="#000" stroke-linecap="round" stroke-linejoin="round" stroke-width="1"/>
      <path id="Path_1343" data-name="Path 1343" d="M66.73,29.653S78.714,31.326,85.063,11.32" transform="translate(24.084 3.519)" fill="none" stroke="#000" stroke-linecap="round" stroke-linejoin="round" stroke-width="1"/>
      <path id="Path_1344" data-name="Path 1344" d="M88.04,15.51c5.156,4.429,5.992,10.38,6.952,12.615s3.593,1.879,4.072.439,5.745-4.072,6.115,2.153-7.185,8.145-7.185,8.145l-.836,4.909c.123,5.869-10.188,14.384-20.842,14.85S58.587,52.148,58.71,41.014" transform="translate(21.106 5.074)" fill="none" stroke="#000" stroke-linecap="round" stroke-linejoin="round" stroke-width="1"/>
      <path id="Path_1345" data-name="Path 1345" d="M74.96,25.04c.343,2.879.59,4.429,2.989,4.676S82.022,26,82.022,26" transform="translate(27.139 8.612)" fill="none" stroke="#000" stroke-linecap="round" stroke-linejoin="round" stroke-width="1"/>
      <ellipse id="Ellipse_87" data-name="Ellipse 87" cx="0.713" cy="1.796" rx="0.713" ry="1.796" transform="translate(84.109 44.073)" fill="none" stroke="#000" stroke-linecap="round" stroke-linejoin="round" stroke-width="1"/>
      <ellipse id="Ellipse_88" data-name="Ellipse 88" cx="1.193" cy="1.673" rx="1.193" ry="1.673" transform="translate(100.659 43.593)" fill="none" stroke="#000" stroke-linecap="round" stroke-linejoin="round" stroke-width="1"/>
      <path id="Path_1346" data-name="Path 1346" d="M68.243,35.7c-.836,1.563-2.043,3.592-2.043,3.592l2.633.48" transform="translate(23.887 12.568)" fill="none" stroke="#000" stroke-linecap="round" stroke-linejoin="round" stroke-width="1"/>
      <path id="Path_1347" data-name="Path 1347" d="M68.13,43.529s.123-1.673,2.4-1.8a6.848,6.848,0,0,1,3.839.9" transform="translate(24.603 14.804)" fill="none" stroke="#000" stroke-linecap="round" stroke-linejoin="round" stroke-width="1"/>
      <path id="Path_1348" data-name="Path 1348" d="M70.4,50.521s1.124,5.869,4.813,6.6c0,0,.713,5.869,4.95,8.748,0,0,2.934-5.745,3.524-9.585,0,0,14.644-1.673,17.14-16.29" transform="translate(25.446 14.161)" fill="none" stroke="#000" stroke-linecap="round" stroke-linejoin="round" stroke-width="1"/>
      <path id="Path_1349" data-name="Path 1349" d="M93.12,37.18c12.821,1.673,15.577,5.073,20.252,13.438s6.115,22.858,6.705,33.882,1.083,19.882.96,22.282,0,3.716-2.756,5.636a89.766,89.766,0,0,1-20.842,11.148" transform="translate(33.879 13.118)" fill="none" stroke="#000" stroke-linecap="round" stroke-linejoin="round" stroke-width="1"/>
      <path id="Path_1350" data-name="Path 1350" d="M114.784,63.13s3.839,20.129,4.552,24.448,1.083,5.636-1.44,6.952-15.453,8.625-15.453,8.625c3.716,2.509,5.032,7.541,5.032,7.541s-10.3,3.949-14.384,5.869-7.788,3.839-11.5,5.745a51.651,51.651,0,0,1-10.188,4c-4.2,1.261-10.668,3.14-8.392-.548" transform="translate(22.527 22.75)" fill="none" stroke="#000" stroke-linecap="round" stroke-linejoin="round" stroke-width="1"/>
      <path id="Path_1351" data-name="Path 1351" d="M70.75,71.55c2.276.48-1.44,2.4,12.217,2.043s15.577-.6,18.456-1.316a44.687,44.687,0,0,0,5.512-1.8" transform="translate(25.576 25.478)" fill="none" stroke="#000" stroke-linecap="round" stroke-linejoin="round" stroke-width="1"/>
      <path id="Path_1352" data-name="Path 1352" d="M67.228,60.75s-.48,7.583,0,10.092,0,3.236,2.633,7.912,15.1,23.118,15.1,23.118" transform="translate(24.189 21.866)" fill="none" stroke="#000" stroke-linecap="round" stroke-linejoin="round" stroke-width="1"/>
      <path id="Path_1353" data-name="Path 1353" d="M103.568,92.771c-.123.357-7.185,2.989-9.831,4.909s-4.909.6-7.308-.836-6.6-3.716-10.778-4.072a31.049,31.049,0,0,0-8.872.836c-1.687.233-2.989,1.673,0,2.633s8.392.233,8.392.233-5.992,3.4-8.981,4.813-5.512,2.262-7.075,3.332-2.879,4.8.836,4.018" transform="translate(20.676 33.723)" fill="none" stroke="#000" stroke-linecap="round" stroke-linejoin="round" stroke-width="1"/>
      <path id="Path_1354" data-name="Path 1354" d="M72.989,100.18c-.357.48-11.628,5.156-13.78,6.225s-3.236,4.429.836,3.469,15.22-5.882,15.22-5.882" transform="translate(20.58 36.502)" fill="none" stroke="#000" stroke-linecap="round" stroke-linejoin="round" stroke-width="1"/>
      <path id="Path_1355" data-name="Path 1355" d="M59.949,107.944c-.96,1.385-.48,3.071,2.756,2.345s13.177-4.429,13.177-4.429" transform="translate(21.403 38.61)" fill="none" stroke="#000" stroke-linecap="round" stroke-linejoin="round" stroke-width="1"/>
      <path id="Path_1356" data-name="Path 1356" d="M63.2,45.48c-2.509,3.236-5.156,10.188-1.8,19.649s7.788,19.7,8.5,24.476.713,6.2-.6,8.117a34.262,34.262,0,0,1-3.949,4.374s7.432-1.851,10.421,6.417" transform="translate(21.516 16.198)" fill="none" stroke="#000" stroke-linecap="round" stroke-linejoin="round" stroke-width="1"/>
      <path id="Path_1357" data-name="Path 1357" d="M77.232,86.2c.123.357-4.552,7.665-4.552,7.665" transform="translate(26.292 31.313)" fill="none" stroke="#000" stroke-linecap="round" stroke-linejoin="round" stroke-width="1"/>
      <path id="Path_1358" data-name="Path 1358" d="M65.782,86.77c-.48.658-5.512,4.374-5.512,4.374" transform="translate(21.686 31.525)" fill="none" stroke="#000" stroke-linecap="round" stroke-linejoin="round" stroke-width="1"/>
      <path id="Path_1359" data-name="Path 1359" d="M71.614,92.265s-1.193-.357-3.949-1.44-8.021.96-8.021.96-8.021,5.636-9.228,7.075a7.775,7.775,0,0,0-1.8,4.909c-.233,2.276-2.043,5.992.48,7.788" transform="translate(17.047 32.912)" fill="none" stroke="#000" stroke-linecap="round" stroke-linejoin="round" stroke-width="1"/>
      <path id="Path_1360" data-name="Path 1360" d="M66.362,94.07c-4.072.123-6.225.48-8.872,2.509a12.969,12.969,0,0,0-5.032,7.308c-1.193,3.592-7.308,58.344-7.308,58.344a22.037,22.037,0,0,0,7.308,2.043,25.3,25.3,0,0,0,8.2-.836s5.69-35.1,6.9-38.462,2.756-4.909,7.185-5.992" transform="translate(16.073 34.234)" fill="none" stroke="#000" stroke-linecap="round" stroke-linejoin="round" stroke-width="1"/>
      <path id="Path_1361" data-name="Path 1361" d="M82.594,104.41c-4.072,3.071-8.748,7.5-9.16,11.573s1.618,5.265,3.538,10.777,19.046,36.9,19.046,36.9a15.206,15.206,0,0,0,9.351-1.563c4.923-2.523,5.512-5.869,5.512-5.869L95.908,119.205" transform="translate(26.552 38.072)" fill="none" stroke="#000" stroke-linecap="round" stroke-linejoin="round" stroke-width="1"/>
      <path id="Path_1362" data-name="Path 1362" d="M91.72,121.288c.357-.123,27.917-2.153,39.422-16.948" transform="translate(33.36 38.046)" fill="none" stroke="#000" stroke-linecap="round" stroke-linejoin="round" stroke-width="1"/>
      <path id="Path_1363" data-name="Path 1363" d="M109.55,95.29a21.983,21.983,0,0,1,14.26,11.641" transform="translate(39.978 34.687)" fill="none" stroke="#000" stroke-linecap="round" stroke-linejoin="round" stroke-width="1"/>
      <path id="Path_1364" data-name="Path 1364" d="M125.381,120.038s2.756-3.14,1.92-10.092-2.509-12.7-5.512-16.66S112.08,59.98,112.08,59.98" transform="translate(40.917 21.581)" fill="none" stroke="#000" stroke-linecap="round" stroke-linejoin="round" stroke-width="1"/>
      <path id="Path_1365" data-name="Path 1365" d="M54.3,145.79c-.357.48-2.866,13.054-3.593,16.29s-1.8,4.319-4.552,6.349-14.137,10.777-15.33,11.737-.6,3.113.96,2.4" transform="translate(10.52 53.432)" fill="none" stroke="#000" stroke-linecap="round" stroke-linejoin="round" stroke-width="1"/>
      <path id="Path_1366" data-name="Path 1366" d="M34.931,170.52a9.9,9.9,0,0,0-2.509,3.017c-.466,1.289,1.193,1.659,2.509,1.179" transform="translate(11.319 62.611)" fill="none" stroke="#000" stroke-linecap="round" stroke-linejoin="round" stroke-width="1"/>
      <path id="Path_1367" data-name="Path 1367" d="M37.516,171.22a12.048,12.048,0,0,1-1.7,2.057c-1.166,1.166.274,3.332,1.7,2.249" transform="translate(12.45 62.871)" fill="none" stroke="#000" stroke-linecap="round" stroke-linejoin="round" stroke-width="1"/>
      <path id="Path_1368" data-name="Path 1368" d="M40.466,181.9a24.5,24.5,0,0,1-2.509,2.194c-1.193.864-.233,4.347,2.509,1.947a143.868,143.868,0,0,1,12.464-9.351c2.4-1.44,3.839-2.989,4.072-5.636s-.96-3.949-.96-6.705,4.2-18.566,4.2-18.566" transform="translate(13.216 53.428)" fill="none" stroke="#000" stroke-linecap="round" stroke-linejoin="round" stroke-width="1"/>
      <path id="Path_1369" data-name="Path 1369" d="M95.642,148.59s5.375,9.585,7.542,14.74,1.563,7.542-1.316,9.831-13.78,9.338-15.7,11.079-2.043,3.3-1.316,4.374,2.633,0,2.633,0" transform="translate(30.658 54.471)" fill="none" stroke="#000" stroke-linecap="round" stroke-linejoin="round" stroke-width="1"/>
      <path id="Path_1370" data-name="Path 1370" d="M90.055,174.98c-1.851,1.563-5.087,3.592-1.261,4.319" transform="translate(31.611 64.267)" fill="none" stroke="#000" stroke-linecap="round" stroke-linejoin="round" stroke-width="1"/>
      <path id="Path_1371" data-name="Path 1371" d="M91.617,174.98s-7.432,5.869.48,4.319" transform="translate(32.146 64.267)" fill="none" stroke="#000" stroke-linecap="round" stroke-linejoin="round" stroke-width="1"/>
      <path id="Path_1372" data-name="Path 1372" d="M94.173,174.98s-8.748,7.788,0,3.839" transform="translate(32.827 64.267)" fill="none" stroke="#000" stroke-linecap="round" stroke-linejoin="round" stroke-width="1"/>
      <path id="Path_1373" data-name="Path 1373" d="M95.852,185.989s-7.308,9.1.891,3.592,11.916-6.705,14.672-8.748,5.512-5.512,2.633-9.585-5.512-9.228-8.5-14.85a49.534,49.534,0,0,1-4.21-11.079" transform="translate(33.78 53.257)" fill="none" stroke="#000" stroke-linecap="round" stroke-linejoin="round" stroke-width="1"/>
    </g>
  </g>
</svg>
