<svg xmlns="http://www.w3.org/2000/svg" width="170.834" height="329.481" viewBox="0 0 170.834 329.481">
  <g id="Layer_2" data-name="Layer 2" transform="translate(0.062 0.06)">
    <g id="Group_495" data-name="Group 495" transform="translate(2.005 1.005)">
      <path id="Path_1842" data-name="Path 1842" d="M53.45,316.195V290.711s2.235-16.372,3.726-28.837,1.863-17.862,2.981-25.3S62.2,224.3,62.2,224.3s4.46,2.416,23.248,2.981,31.807-2.981,31.807-2.981L116.7,198.25,127.5,204.2a82.811,82.811,0,0,0,2.789,16.372c2.235,7.26,3.534,19.533,3.534,19.533s-2.235,15.435-3.162,26.974-2.235,49.115-2.235,49.115Z" transform="translate(1.313 11.714)" fill="rgba(0,133,215,0.2)"/>
      <path id="Path_1843" data-name="Path 1843" d="M151.725,135.771c-.5,22.131,13.21-35.341,7.068-54.321S130.7,39.6,98.149,42.384,45.872,66,41.412,87.4s-3.162,30.136-3.162,30.136l2.789,1.671s2.044-7.632,4.46-14.881,3.534-5.77,30.327-8.739,39.067-5.77,56.929-25.856c0,0,19.714,33.3,18.98,66.041Z" transform="translate(0.321 1.648)" fill="rgba(0,133,215,0.5)"/>
      <path id="Path_1844" data-name="Path 1844" d="M91.19,34.458S111.1,31.669,125.6,40.781l3.162-3.364s-8.558-9.282-17.3-10.592S92.861,29.433,91.19,34.458Z" transform="translate(3.746 0.644)" fill="#fff"/>
      <path id="Path_1845" data-name="Path 1845" d="M93.866,30.04s-3.726-.926-3.726-8.186S98.879,2.321,116.369,6.42s19.533,17.3,16,23.621-7.568,4.992-7.568,4.992-4.332-6.845-14.754-7.962-16.18,2.981-16.18,2.981Z" transform="translate(3.679 -0.709)" fill="rgba(0,133,215,0.5)"/>
      <path id="Path_1846" data-name="Path 1846" d="M159.058,133.844c14.637-30.263,10.911-64.486-15.871-84.328S80.542,31.792,59.848,50.761c-19.225,17.607-24.707,33.808-23.813,63.5" transform="translate(0.184 1.223)" fill="none" stroke="#375565" stroke-linecap="round" stroke-linejoin="round" stroke-width="2"/>
      <path id="Path_1847" data-name="Path 1847" d="M144.422,131.285s2.608-2.981,6.227-2.044,6.142,5.493,3.438,12.838-9.3,6.887-11.347,5.12" transform="translate(7.07 7.252)" fill="none" stroke="#375565" stroke-linecap="round" stroke-linejoin="round" stroke-width="2"/>
      <path id="Path_1848" data-name="Path 1848" d="M132.992,73.91c8.09,17.67,21.577,38.875,11.816,72.736s-35.618,36-47.018,35.341V195.57" transform="translate(4.172 3.696)" fill="none" stroke="#375565" stroke-linecap="round" stroke-linejoin="round" stroke-width="2"/>
      <path id="Path_1849" data-name="Path 1849" d="M78.146,188.237l.277-15.073s-9.676-2.235-15.722-5.674" transform="translate(1.909 9.731)" fill="none" stroke="#375565" stroke-linecap="round" stroke-linejoin="round" stroke-width="2"/>
      <path id="Path_1850" data-name="Path 1850" d="M52.209,163.378C43.1,154.915,33.516,136.031,44.3,105.8" transform="translate(0.414 5.753)" fill="none" stroke="#375565" stroke-linecap="round" stroke-linejoin="round" stroke-width="2"/>
      <path id="Path_1851" data-name="Path 1851" d="M40.116,115.723c-1.724-2.416-10.187-5.493-10.006,6.972s7.813,11.443,9.208,9.485" transform="translate(-0.193 6.251)" fill="none" stroke="#375565" stroke-linecap="round" stroke-linejoin="round" stroke-width="2"/>
      <path id="Path_1852" data-name="Path 1852" d="M42.87,103.591c10.049-7.537,23.813-6.972,53.107-11.816s42.7-33.765,42.7-33.765" transform="translate(0.63 2.671)" fill="none" stroke="#375565" stroke-linecap="round" stroke-linejoin="round" stroke-width="2"/>
      <path id="Path_1853" data-name="Path 1853" d="M138.9,64.74c9.112,14.136,14.881,32.094,13.955,50.51" transform="translate(6.823 3.105)" fill="none" stroke="#375565" stroke-linecap="round" stroke-linejoin="round" stroke-width="2"/>
      <path id="Path_1854" data-name="Path 1854" d="M45.48,77.3C68.292,75.717,84.664,53.491,87.91,41.59" transform="translate(0.799 1.612)" fill="none" stroke="#375565" stroke-linecap="round" stroke-linejoin="round" stroke-width="2"/>
      <path id="Path_1855" data-name="Path 1855" d="M40.08,100.259C55.43,84.632,60.635,85.473,77.007,82.4s34.138-20.183,38.971-39.067" transform="translate(0.451 1.724)" fill="none" stroke="#375565" stroke-linecap="round" stroke-linejoin="round" stroke-width="2"/>
      <path id="Path_1856" data-name="Path 1856" d="M89.45,35.884s1.671-11.9,21.481-9.485,17.862,11.816,17.862,11.816" transform="translate(3.634 0.612)" fill="none" stroke="#375565" stroke-linecap="round" stroke-linejoin="round" stroke-width="2"/>
      <path id="Path_1857" data-name="Path 1857" d="M126.359,42.248s6.142-2.14,10.7-9.857,2.044-25.3-15.9-30.04-33.116,3.63-35.437,16.18,5.195,15.925,5.195,15.925" transform="translate(3.365 -1.005)" fill="none" stroke="#375565" stroke-linecap="round" stroke-linejoin="round" stroke-width="2"/>
      <path id="Path_1858" data-name="Path 1858" d="M119.07,96.619c6.046-9.208,13.955-11.72,13.955,8.282" transform="translate(5.544 4.714)" fill="none" stroke="#375565" stroke-linecap="round" stroke-linejoin="round" stroke-width="2"/>
      <ellipse id="Ellipse_115" data-name="Ellipse 115" cx="4.513" cy="2.746" rx="4.513" ry="2.746" transform="matrix(0.147, -0.989, 0.989, 0.147, 117.843, 128.269)" fill="none" stroke="#375565" stroke-linecap="round" stroke-linejoin="round" stroke-width="2"/>
      <ellipse id="Ellipse_116" data-name="Ellipse 116" cx="4.513" cy="2.746" rx="4.513" ry="2.746" transform="matrix(0.147, -0.989, 0.989, 0.147, 66.91, 121.772)" fill="none" stroke="#375565" stroke-linecap="round" stroke-linejoin="round" stroke-width="2"/>
      <path id="Path_1859" data-name="Path 1859" d="M91.521,117.69c-4.556,2.64-9.761,5.493-9.761,5.493l6.515,7.015" transform="translate(3.138 6.519)" fill="none" stroke="#375565" stroke-linecap="round" stroke-linejoin="round" stroke-width="2"/>
      <path id="Path_1860" data-name="Path 1860" d="M95.317,149.4c-.745-3.257-2.693-5.12-5.493-4.929s-6.6,1.586-6.323,5.578,2.14,4.492,5.12,5.333,6.7-3.1,6.7-3.1" transform="translate(3.25 8.245)" fill="none" stroke="#375565" stroke-linecap="round" stroke-linejoin="round" stroke-width="2"/>
      <path id="Path_1861" data-name="Path 1861" d="M96.206,27.45c-4.46-8.1-5.95-11.071,4.556-22.61" transform="translate(3.851 -0.758)" fill="none" stroke="#375565" stroke-linecap="round" stroke-linejoin="round" stroke-width="2"/>
      <path id="Path_1862" data-name="Path 1862" d="M105.209,25.463c-.1-6.419-3.534-13.955,6.6-21.673" transform="translate(4.609 -0.825)" fill="none" stroke="#375565" stroke-linecap="round" stroke-linejoin="round" stroke-width="2"/>
      <path id="Path_1863" data-name="Path 1863" d="M125.213,9.56c3.257,11.816,5.3,14.7-3.353,20.832" transform="translate(5.724 -0.453)" fill="none" stroke="#375565" stroke-linecap="round" stroke-linejoin="round" stroke-width="2"/>
      <path id="Path_1864" data-name="Path 1864" d="M16.679,35.1a13.807,13.807,0,0,1-13.114-6.7c-3.534-5.4-1.118-13.764,7.813-17.862s21.2-5.855,24.462,3.066S31.092,31.8,29.793,33.356s-1.3,1-.468,3.736a20.635,20.635,0,0,0,3.257,5.716" transform="translate(-2.005 -0.607)" fill="none" stroke="#375565" stroke-linecap="round" stroke-linejoin="round" stroke-width="4"/>
      <circle id="Ellipse_117" data-name="Ellipse 117" cx="1.81" cy="1.81" r="1.81" transform="translate(34.112 52.357)" fill="none" stroke="#375565" stroke-linecap="round" stroke-linejoin="round" stroke-width="2"/>
      <path id="Path_1865" data-name="Path 1865" d="M61.64,187.781c2.416-1.214,6.323-3.353,8.367-2.14s2.608,2.608,2.746,4.833,1.629,2.789,3.2,2.608,2.235-.468,3.811,1.118,3.726,3.438,2.14,7.909-3.726,9.4-5.77,12.093-4.929,2.416-6.887,2.885-2.885.649-3.811,2.693-6.6,38.226-8.558,52.085-4.183,23.908-7.26,27.9-.926,6.142-9.485,4.556-9.761-7.632-11.347-16.553" transform="translate(-0.278 10.878)" fill="none" stroke="#375565" stroke-linecap="round" stroke-linejoin="round" stroke-width="2"/>
      <path id="Path_1866" data-name="Path 1866" d="M29.24,279.4c1.948-20.183,4.652-38.321,6.972-55.343S45.7,199.046,52.861,195.32" transform="translate(-0.248 11.525)" fill="none" stroke="#375565" stroke-linecap="round" stroke-linejoin="round" stroke-width="2"/>
      <path id="Path_1867" data-name="Path 1867" d="M35.88,267.149c6.27-14.4,12.093-39.248,13.668-47.061s.841-10.326,1.863-16.649,2.512-12.369,3.768-21.109S53.848,170.462,53,163.819c-.373-2.885,4-13.476,8.282-3.672s2.789,27.027,2.789,27.027" transform="translate(0.18 8.994)" fill="none" stroke="#375565" stroke-linecap="round" stroke-linejoin="round" stroke-width="2"/>
      <path id="Path_1868" data-name="Path 1868" d="M43.22,247.4c3.811,3.726,14.041,4.556,14.041,4.556" transform="translate(0.653 14.884)" fill="none" stroke="#375565" stroke-linecap="round" stroke-linejoin="round" stroke-width="2"/>
      <path id="Path_1869" data-name="Path 1869" d="M37.19,264.61c4.929,3.907,17.9,2.885,17.9,2.885" transform="translate(0.264 15.993)" fill="none" stroke="#375565" stroke-linecap="round" stroke-linejoin="round" stroke-width="2"/>
      <path id="Path_1870" data-name="Path 1870" d="M34.14,278.59c6.142,4.929,19.065,3.257,19.065,3.257" transform="translate(0.067 16.895)" fill="none" stroke="#375565" stroke-linecap="round" stroke-linejoin="round" stroke-width="2"/>
      <path id="Path_1871" data-name="Path 1871" d="M34.75,239.19a20.106,20.106,0,0,0,7.718,1.49" transform="translate(0.107 14.354)" fill="none" stroke="#375565" stroke-linecap="round" stroke-linejoin="round" stroke-width="2"/>
      <path id="Path_1872" data-name="Path 1872" d="M37.19,224.77c2.789,1.394,8.952,1.948,8.952,1.948" transform="translate(0.264 13.424)" fill="none" stroke="#375565" stroke-linecap="round" stroke-linejoin="round" stroke-width="2"/>
      <path id="Path_1873" data-name="Path 1873" d="M40.34,209.13c4.088,1.118,8.558,2.885,8.558,2.885" transform="translate(0.467 12.416)" fill="none" stroke="#375565" stroke-linecap="round" stroke-linejoin="round" stroke-width="2"/>
      <path id="Path_1874" data-name="Path 1874" d="M67.69,216.7c23.717,2.416,48.274-2.235,48.274-2.235" transform="translate(2.231 12.759)" fill="none" stroke="#375565" stroke-linecap="round" stroke-linejoin="round" stroke-width="2"/>
      <path id="Path_1875" data-name="Path 1875" d="M76.43,208.757s23.344,4.46,37.108-5.4" transform="translate(2.795 12.044)" fill="none" stroke="#375565" stroke-linecap="round" stroke-linejoin="round" stroke-width="2"/>
      <path id="Path_1876" data-name="Path 1876" d="M63.14,225.609c20.747,2.693,53.107-1.586,53.107-1.586l-.468-26.793" transform="translate(1.938 11.648)" fill="none" stroke="#375565" stroke-linecap="round" stroke-linejoin="round" stroke-width="2"/>
      <path id="Path_1877" data-name="Path 1877" d="M122.82,203.36c.1,14.041,6.227,34.6,6.227,34.6l-3.63,29.209-1.394,48.179" transform="translate(5.786 12.044)" fill="none" stroke="#375565" stroke-linecap="round" stroke-linejoin="round" stroke-width="2"/>
      <line id="Line_157" data-name="Line 157" x1="0.277" y2="26.325" transform="translate(54.294 300.413)" fill="none" stroke="#375565" stroke-linecap="round" stroke-linejoin="round" stroke-width="2"/>
      <path id="Path_1878" data-name="Path 1878" d="M139.426,315.647s3.811-31.53,3.353-53.395,2.693-33.116-2.235-45.666-13.668-21.673-37.2-28" transform="translate(4.53 11.091)" fill="none" stroke="#375565" stroke-linecap="round" stroke-linejoin="round" stroke-width="2"/>
      <path id="Path_1879" data-name="Path 1879" d="M124.31,213.662c5.578.841,12.646-2.672,12.646-2.672" transform="translate(5.882 12.536)" fill="none" stroke="#375565" stroke-linecap="round" stroke-linejoin="round" stroke-width="2"/>
      <path id="Path_1880" data-name="Path 1880" d="M126.84,227.319c5.674,1.586,14.136-1.629,14.136-1.629" transform="translate(6.045 13.484)" fill="none" stroke="#375565" stroke-linecap="round" stroke-linejoin="round" stroke-width="2"/>
      <path id="Path_1881" data-name="Path 1881" d="M128.33,244.825c4.929,2.044,12.987-.745,12.987-.745" transform="translate(6.141 14.67)" fill="none" stroke="#375565" stroke-linecap="round" stroke-linejoin="round" stroke-width="2"/>
      <path id="Path_1882" data-name="Path 1882" d="M127.28,259.849c5.493.841,13.668-.649,13.668-.649" transform="translate(6.074 15.645)" fill="none" stroke="#375565" stroke-linecap="round" stroke-linejoin="round" stroke-width="2"/>
      <path id="Path_1883" data-name="Path 1883" d="M125.75,274.31c6.376,1.022,14.839,0,14.839,0" transform="translate(5.975 16.619)" fill="none" stroke="#375565" stroke-linecap="round" stroke-linejoin="round" stroke-width="2"/>
      <path id="Path_1884" data-name="Path 1884" d="M125.36,288.9c5.855,1.586,14.041,0,14.041,0" transform="translate(5.95 17.56)" fill="none" stroke="#375565" stroke-linecap="round" stroke-linejoin="round" stroke-width="2"/>
      <path id="Path_1885" data-name="Path 1885" d="M124.31,302.27a31.343,31.343,0,0,0,14.434,0" transform="translate(5.882 18.422)" fill="none" stroke="#375565" stroke-linecap="round" stroke-linejoin="round" stroke-width="2"/>
    </g>
  </g>
</svg>
