<svg xmlns="http://www.w3.org/2000/svg" width="146" height="146" viewBox="0 0 146 146">
  <g id="Group_537" data-name="Group 537" transform="translate(-74)">
    <circle id="Ellipse_52" data-name="Ellipse 52" cx="73" cy="73" r="73" transform="translate(74)" fill="#fff"/>
    <g id="Layer_2" data-name="Layer 2" transform="translate(121 42.313)">
      <g id="Group_536" data-name="Group 536">
        <path id="Path_1997" data-name="Path 1997" d="M47.557,33.235H40.425l.856-5.487a1.124,1.124,0,0,0-1.112-1.3H37.292a1.123,1.123,0,0,0-1.112.953l-.909,5.834H31.79a1.15,1.15,0,0,0-.006,2.3l3.125.018-3.76,24.128a1.124,1.124,0,0,0,1.112,1.3h2.877a1.123,1.123,0,0,0,1.112-.953l3.81-24.449,3.33.018L41.485,56.986,39.6,56.754a1.193,1.193,0,0,0-.294,2.368l6.243.788a.909.909,0,0,0,1.021-.83L48.522,34.27a.963.963,0,0,0-.962-1.039Z" transform="translate(-21.625 -18.668)" fill="#0085d7"/>
        <path id="Path_1998" data-name="Path 1998" d="M106.82,41.165H98.382a1.074,1.074,0,0,0-.944-.565H94.66a1.079,1.079,0,0,0-1.08,1.08V69.471a1.079,1.079,0,0,0,1.08,1.08h2.777a1.079,1.079,0,0,0,1.08-1.08v-.256h4.243v.129a1.209,1.209,0,0,0,1.209,1.209h2.724a1.209,1.209,0,0,0,1.209-1.209v-27.1a1.079,1.079,0,0,0-1.08-1.08ZM102.756,66.82H98.514V43.557h4.243V66.823Z" transform="translate(-66.048 -28.655)" fill="#0085d7"/>
        <path id="Path_1999" data-name="Path 1999" d="M57.1,185.74H56.054L54,193.081h1.042l.553-1.98h1.986l.553,1.98h1.042l-2.054-7.341h-.029Zm-1.377,4.922.871-3.116.871,3.116Z" transform="translate(-38.113 -131.093)" fill="#0085d7"/>
        <path id="Path_2000" data-name="Path 2000" d="M78.25,186.175h1.8v6.84h1.03v-6.84h1.786v-.435H78.25Z" transform="translate(-55.228 -131.093)" fill="#0085d7"/>
        <path id="Path_2001" data-name="Path 2001" d="M103.674,185.13c-1.577,0-2.854,1.733-2.854,3.869s1.277,3.869,2.854,3.869,2.854-1.733,2.854-3.869S105.251,185.13,103.674,185.13Zm0,6.885c-.968,0-1.753-1.35-1.753-3.016s.786-3.016,1.753-3.016,1.753,1.35,1.753,3.016S104.642,192.015,103.674,192.015Z" transform="translate(-71.158 -130.663)" fill="#0085d7"/>
        <path id="Path_2002" data-name="Path 2002" d="M34.389,185.74l-2.448,3.119H31.8V185.74H30.67v7.276H31.8v-3.039h.344l2.177,3.1h1.042l-2.686-3.831,2.754-3.507Z" transform="translate(-21.647 -131.093)" fill="#0085d7"/>
        <path id="Path_2003" data-name="Path 2003" d="M25.982,0A25.982,25.982,0,1,0,51.964,25.982,25.983,25.983,0,0,0,25.982,0Zm0,49.907A23.925,23.925,0,1,1,49.907,25.982,23.926,23.926,0,0,1,25.982,49.907Z" fill="#0085d7"/>
        <path id="Path_2004" data-name="Path 2004" d="M133.186,186.01h-.394a.335.335,0,0,0-.335.335v3.4h-3.1v-3.4a.335.335,0,0,0-.335-.335h-.394a.335.335,0,0,0-.335.335v6.59a.335.335,0,0,0,.335.335h.394a.335.335,0,0,0,.335-.335v-2.71h3.1v2.71a.335.335,0,0,0,.335.335h.394a.335.335,0,0,0,.335-.335v-6.59A.335.335,0,0,0,133.186,186.01Z" transform="translate(-90.546 -131.284)" fill="#0085d7"/>
      </g>
    </g>
  </g>
</svg>
