<svg xmlns="http://www.w3.org/2000/svg" xmlns:xlink="http://www.w3.org/1999/xlink" width="196" height="196" viewBox="0 0 196 196">
  <defs>
    <clipPath id="clip-path">
      <circle id="replicate-prediction-tpckb7rcizlr4djlnysxsbmxw4" cx="94" cy="94" r="94" transform="translate(-13923 -10818)" fill="#fff0ef" stroke="#375565" stroke-width="4"/>
    </clipPath>
  </defs>
  <g id="Group_505" data-name="Group 505" transform="translate(13433 10822)">
    <g id="replicate-prediction-tpckb7rcizlr4djlnysxsbmxw4-2" data-name="replicate-prediction-tpckb7rcizlr4djlnysxsbmxw4" transform="translate(-13429 -10818)" fill="#fff" stroke="#f2f9fd" stroke-width="4">
      <circle cx="94" cy="94" r="94" stroke="none"/>
      <circle cx="94" cy="94" r="96" fill="none"/>
    </g>
    <g id="Mask_Group_2" data-name="Mask Group 2" transform="translate(494)" clip-path="url(#clip-path)">
      <g id="Layer_2" data-name="Layer 2" transform="translate(-13911.883 -10807.078)">
        <g id="Group_503" data-name="Group 503" transform="translate(-4 0.998)">
          <path id="Path_1888" data-name="Path 1888" d="M78.323,62.757l-1.306-.979a46.557,46.557,0,0,1,0-8.961,62.565,62.565,0,0,1,1.306-7.988s-5.376-6.516,0-16.622S95.758,18.1,95.758,18.1s7.169-11.079,19.88-9.287,18.908,12.712,18.908,12.712,11.246.813,14.83,11.9,3.911,22,2.6,24.771a20.852,20.852,0,0,1-1.959,3.584l-2.931.979s-3.424-23.145-15.483-34.224c0,0-10.267,27.709-25.59,15.97,0,0-12.225,9.94-19.394,4.077,0,0-2.6,2.279-5.543,1.792,0,0-3.258,9.614-2.772,12.385Z" transform="translate(-26.01 -3.54)" fill="rgba(0,133,215,0.5)"/>
          <path id="Path_1889" data-name="Path 1889" d="M170.844,126.979c-2.572-1.632.16,6.029-3.258,10.107s-6.356,11.246-6.356,11.246a40.925,40.925,0,0,1,6.356,5.217,85.2,85.2,0,0,1,8.148,9.614s2.772,1.306,7.335-3.1,4.237-7.335,4.237-7.335-9.287,4.077-11.572-3.584,3.358-8.961,5.43-17.116-2.005-11.079-2.005-11.079S175.734,130.077,170.844,126.979Z" transform="translate(-54.48 -41.034)" fill="rgba(0,133,215,0.5)"/>
          <path id="Path_1890" data-name="Path 1890" d="M82.034,175.74c-1.959,2.119-9.454,15.483-13.365,20.86s-6.356,7.009-6.356,7.009l-3.1-12.552-7.335,1.959s3.1,19.234,3.911,22.492.326,6.842,4.4,3.424,1.632,1.959,5.376-2.445,14.5-16.789,14.5-16.789a31.836,31.836,0,0,1,0-10.267c.979-4.724,1.959-13.691,1.959-13.691Z" transform="translate(-17.982 -59.321)" fill="rgba(0,133,215,0.2)"/>
          <path id="Path_1891" data-name="Path 1891" d="M165.867,173.29a67.271,67.271,0,0,0,1.306,9.127c.979,4.237,3.1,10.92,3.1,10.92l.326,7.335s13.525,16.143,16.949,18.828,5.543,3.824,6.842-.74,4.4-26.889,4.4-26.889-2.931.653-4.564-.16a10.211,10.211,0,0,0-2.931-.979l-4.564,12.059s-8.794-12.225-10.92-16.949-9.947-12.552-9.947-12.552Z" transform="translate(-56.025 -58.503)" fill="rgba(0,133,215,0.2)"/>
          <path id="Path_1892" data-name="Path 1892" d="M139.592,170.846l.653,14.5a121.956,121.956,0,0,1-17.6,1.306c-9.614,0-15.483-2.119-15.483-2.119l.326-14.177s6.029,3.751,16.216,4.89,15.89-4.4,15.89-4.4Z" transform="translate(-36.433 -57.525)" fill="rgba(0,133,215,0.2)"/>
          <path id="Path_1893" data-name="Path 1893" d="M135.765,165.71c.326.486.813,18.088.813,18.088a60.207,60.207,0,0,1-16.329,1.306,123.768,123.768,0,0,1-17.569-2.119v-16.3L97.3,170.767s-3.038,12.325-3.478,16.589.866,7.362,1.359,13.4.16,9.614.813,14.018.813,24.118.813,24.118l44.977,1.139s.326-23.958,1.792-29.987a96.756,96.756,0,0,0,1.959-14.018,26.486,26.486,0,0,0,.04-7.182c-.533-3.731-3.791-18.894-3.791-18.894l-6.029-4.237Z" transform="translate(-31.952 -55.973)" fill="rgba(0,133,215,0.5)"/>
          <path id="Path_1897" data-name="Path 1897" d="M175.9,121.225s5.7,3.131,7.009-1.859-1.792-10.287-1.792-10.287-3.1,11-5.217,12.139Z" transform="translate(-59.376 -37.072)" fill="#f2f9fd"/>
          <path id="Path_1901" data-name="Path 1901" d="M73.15,64.245s-3.911-9.614-.979-16.949c0,0-10.753-27.709,17.928-32.266" transform="translate(-24.095 -5.681)" fill="none" stroke="#5c5c5c" stroke-linecap="round" stroke-linejoin="round" stroke-width="1"/>
          <path id="Path_1902" data-name="Path 1902" d="M105.45,8.714S111.972.24,125.663,1.052a25.8,25.8,0,0,1,19.88,10.92" transform="translate(-35.862 -0.998)" fill="none" stroke="#5c5c5c" stroke-linecap="round" stroke-linejoin="round" stroke-width="1"/>
          <path id="Path_1903" data-name="Path 1903" d="M168.52,20.9a24.538,24.538,0,0,1,15.33,19.72c2.139,15.317,0,23.631,0,23.631" transform="translate(-56.913 -7.64)" fill="none" stroke="#5c5c5c" stroke-linecap="round" stroke-linejoin="round" stroke-width="1"/>
          <path id="Path_1904" data-name="Path 1904" d="M182.949,91.987s-.466-3.424,2.958-3.1,4.47,3.1,3.7,8.148-5.543,6.842-6.662,4.237" transform="translate(-61.722 -30.326)" fill="none" stroke="#5c5c5c" stroke-linecap="round" stroke-linejoin="round" stroke-width="1"/>
          <path id="Path_1905" data-name="Path 1905" d="M156.075,41.2c11.246,14.018,14.59,33.571,12.345,46.45s-14.957,21.186-24.571,22.166V119.1" transform="translate(-48.679 -14.416)" fill="none" stroke="#5c5c5c" stroke-linecap="round" stroke-linejoin="round" stroke-width="1"/>
          <path id="Path_1906" data-name="Path 1906" d="M108.647,129.555v-7.5s-6.516.813-14.99-5.217S77.034,99.408,82.737,75.45" transform="translate(-27.647 -25.847)" fill="none" stroke="#5c5c5c" stroke-linecap="round" stroke-linejoin="round" stroke-width="1"/>
          <ellipse id="Ellipse_119" data-name="Ellipse 119" cx="1.632" cy="2.525" rx="1.632" ry="2.525" transform="translate(69.261 56.771)" fill="#5d5d5d" stroke="#5c5c5c" stroke-linecap="round" stroke-linejoin="round" stroke-width="1"/>
          <path id="Path_1907" data-name="Path 1907" d="M156.1,84.74l-9.634,4.4,8.241,2.6" transform="translate(-49.553 -28.948)" fill="none" stroke="#5c5c5c" stroke-linecap="round" stroke-linejoin="round" stroke-width="1"/>
          <path id="Path_1908" data-name="Path 1908" d="M153.7,63.279s1.359-6.2,4.817-5.7,4.271,8.961,4.271,8.961" transform="translate(-51.966 -19.872)" fill="none" stroke="#5c5c5c" stroke-linecap="round" stroke-linejoin="round" stroke-width="1"/>
          <path id="Path_1909" data-name="Path 1909" d="M170.03,35.82c8.474,9.454,13.951,18.508,12.872,33.571" transform="translate(-57.417 -12.62)" fill="none" stroke="#5c5c5c" stroke-linecap="round" stroke-linejoin="round" stroke-width="1"/>
          <path id="Path_1910" data-name="Path 1910" d="M122.58,51.048c10.267,6.029,19.98-2.6,25.55-22.818" transform="translate(-41.579 -10.087)" fill="none" stroke="#5c5c5c" stroke-linecap="round" stroke-linejoin="round" stroke-width="1"/>
          <path id="Path_1911" data-name="Path 1911" d="M92.98,52.917c12.872,3.424,22.818-3.424,26.076-29.827" transform="translate(-31.7 -8.371)" fill="none" stroke="#5c5c5c" stroke-linecap="round" stroke-linejoin="round" stroke-width="1"/>
          <path id="Path_1912" data-name="Path 1912" d="M77.81,59.608c7.5,2.119,13.418-8.148,15.916-22.818" transform="translate(-26.637 -12.944)" fill="none" stroke="#5c5c5c" stroke-linecap="round" stroke-linejoin="round" stroke-width="1"/>
          <path id="Path_1913" data-name="Path 1913" d="M126.863,94.61l-4.883,4.51,4.883,3.584" transform="translate(-41.379 -32.242)" fill="none" stroke="#5c5c5c" stroke-linecap="round" stroke-linejoin="round" stroke-width="1"/>
          <path id="Path_1914" data-name="Path 1914" d="M135.613,111.65c-1.139,5.543-5.05,8.8-10.107,8.474s-6.029-4.89-6.356-8.474" transform="translate(-40.435 -37.93)" fill="none" stroke="#5c5c5c" stroke-linecap="round" stroke-linejoin="round" stroke-width="1"/>
          <path id="Path_1915" data-name="Path 1915" d="M75.748,90.73c-1.792-1.466-7.535-1.306-5.723,5.7s7.082,4.724,7.082,4.724" transform="translate(-23.922 -30.7)" fill="none" stroke="#5c5c5c" stroke-linecap="round" stroke-linejoin="round" stroke-width="1"/>
          <path id="Path_1916" data-name="Path 1916" d="M170.744,130c.486,4.724-2.445,7.822-5.543,11.9a19.21,19.21,0,0,0-4.271,10.433" transform="translate(-54.379 -44.054)" fill="none" stroke="#5c5c5c" stroke-linecap="round" stroke-linejoin="round" stroke-width="1"/>
          <path id="Path_1917" data-name="Path 1917" d="M187.8,113.85c6.689,4.724,9.787,10.753,2.452,21.919s-.16,15.89,6.356,12.465" transform="translate(-63.133 -38.664)" fill="none" stroke="#5c5c5c" stroke-linecap="round" stroke-linejoin="round" stroke-width="1"/>
          <path id="Path_1924" data-name="Path 1924" d="M98.912,158.13c-12.552,4.077-14.83,6.842-32.592,34.877" transform="translate(-22.802 -53.443)" fill="none" stroke="#5c5c5c" stroke-linecap="round" stroke-linejoin="round" stroke-width="1"/>
          <path id="Path_1925" data-name="Path 1925" d="M151.93,160.57c13.2,5.05,19.068,11.246,31.293,34.064" transform="translate(-51.376 -54.258)" fill="none" stroke="#5c5c5c" stroke-linecap="round" stroke-linejoin="round" stroke-width="1"/>
          <path id="Path_1926" data-name="Path 1926" d="M197.92,196.5c4.077-12.872,5.543-27.475,5.217-34.6,0,0-6.842-4.357-2.931-10.387" transform="translate(-66.726 -51.237)" fill="none" stroke="#5c5c5c" stroke-linecap="round" stroke-linejoin="round" stroke-width="1"/>
          <path id="Path_1927" data-name="Path 1927" d="M197.028,150.63c-3.751-6.356-1.379-10.593,5.257-5.137" transform="translate(-65.833 -48.388)" fill="none" stroke="#5c5c5c" stroke-linecap="round" stroke-linejoin="round" stroke-width="1"/>
          <path id="Path_1928" data-name="Path 1928" d="M206.64,141.2c-9.354-5.7-9.78-3.584-9.94-.333" transform="translate(-66.318 -46.606)" fill="none" stroke="#5c5c5c" stroke-linecap="round" stroke-linejoin="round" stroke-width="1"/>
          <path id="Path_1929" data-name="Path 1929" d="M210.492,136.825c-9.287-6.842-10.373-3.218-9.993-.713" transform="translate(-67.565 -45.017)" fill="none" stroke="#5c5c5c" stroke-linecap="round" stroke-linejoin="round" stroke-width="1"/>
          <path id="Path_1930" data-name="Path 1930" d="M195.667,131.752c-1.512-2.085,1.746-3.391,5.337-.946a27.066,27.066,0,0,1,6.516,5.9c1.792,2.085,2.931,2.412.979,6.489s-4.4,13.525-4.4,13.525a205.929,205.929,0,0,1-.486,27.542c-1.3,13.851-.979,16.349-3.424,20.886s-5.376,4.051-10.593-1.006-14.177-16.3-14.177-16.3" transform="translate(-59.216 -43.881)" fill="none" stroke="#5c5c5c" stroke-linecap="round" stroke-linejoin="round" stroke-width="1"/>
          <path id="Path_1931" data-name="Path 1931" d="M204.16,197.76s4.484,3.424,8.881,1.632" transform="translate(-68.808 -66.67)" fill="none" stroke="#5c5c5c" stroke-linecap="round" stroke-linejoin="round" stroke-width="1"/>
          <path id="Path_1932" data-name="Path 1932" d="M64.024,196.5c-2.931-8.8-4.564-28.681-4.564-31.293a9.921,9.921,0,0,1,1.139-4.564c1.306-1.632,4.077-4.564,2.445-9.127" transform="translate(-20.512 -51.237)" fill="none" stroke="#5c5c5c" stroke-linecap="round" stroke-linejoin="round" stroke-width="1"/>
          <path id="Path_1933" data-name="Path 1933" d="M59.46,145.385c7.988-6.929,10.753,1.059,6.029,5.137" transform="translate(-20.512 -48.28)" fill="none" stroke="#5c5c5c" stroke-linecap="round" stroke-linejoin="round" stroke-width="1"/>
          <path id="Path_1934" data-name="Path 1934" d="M54.82,140.81c12.552-7.5,9.9,0,9.9,0" transform="translate(-18.963 -46.549)" fill="none" stroke="#5c5c5c" stroke-linecap="round" stroke-linejoin="round" stroke-width="1"/>
          <path id="Path_1935" data-name="Path 1935" d="M50.66,136.961c7.822-6.516,9.973-2.745,10.04-.886" transform="translate(-17.575 -45.153)" fill="none" stroke="#5c5c5c" stroke-linecap="round" stroke-linejoin="round" stroke-width="1"/>
          <path id="Path_1936" data-name="Path 1936" d="M52.676,131.636s-1.792-5.616-5.87-2.2-4.237,4.664-6.029,6.649-2.279,3.778-.653,7.688A63.073,63.073,0,0,1,43.875,156c.819,4.237.326,12.006.979,24.5s2.119,21.186,3.911,24.251,4.237,4.75,9.127,0,15.643-16,15.643-16" transform="translate(-13.728 -43.498)" fill="none" stroke="#5c5c5c" stroke-linecap="round" stroke-linejoin="round" stroke-width="1"/>
          <path id="Path_1937" data-name="Path 1937" d="M98.1,174.27c-1.306,6.356-3.751,15.157-3.911,18.741s.813,10.267,1.959,17.6,0,32.432,0,32.432" transform="translate(-32.098 -58.83)" fill="none" stroke="#5c5c5c" stroke-linecap="round" stroke-linejoin="round" stroke-width="1"/>
          <path id="Path_1938" data-name="Path 1938" d="M166.769,240.848c.486-6.682,1.959-39.114,2.772-42.539s-.16-6.516-.979-10.267-2.931-16.463-2.931-16.463" transform="translate(-55.948 -57.932)" fill="none" stroke="#5c5c5c" stroke-linecap="round" stroke-linejoin="round" stroke-width="1"/>
          <path id="Path_1939" data-name="Path 1939" d="M140.329,167.11c-.16.859,0,16.836,0,16.836s-9.78,2.445-18.741,1.792a111.426,111.426,0,0,1-14.177-1.792V167.11" transform="translate(-36.516 -56.441)" fill="none" stroke="#5c5c5c" stroke-linecap="round" stroke-linejoin="round" stroke-width="1"/>
          <path id="Path_1940" data-name="Path 1940" d="M109.86,171.336s2.6,4.237,13.365,3.911,15.843-4.4,15.843-4.4" transform="translate(-37.334 -57.689)" fill="none" stroke="#5c5c5c" stroke-linecap="round" stroke-linejoin="round" stroke-width="1"/>
          <path id="Path_1941" data-name="Path 1941" d="M184.827,125.59c1.472,3.258,1.312,5.23-1.785,11.253s-6.549,9.68-3.764,16.409" transform="translate(-60.162 -42.582)" fill="none" stroke="#5c5c5c" stroke-linecap="round" stroke-linejoin="round" stroke-width="1"/>
          <path id="Path_1942" data-name="Path 1942" d="M170.78,151.52c-4.384,8.8-1.9,11.419,1.4,15.083s12.592,1.053,12.592,1.053" transform="translate(-56.881 -51.237)" fill="none" stroke="#5c5c5c" stroke-linecap="round" stroke-linejoin="round" stroke-width="1"/>
          <path id="Path_1943" data-name="Path 1943" d="M175.41,121.978s4.724,2.452,6.842-2.618-1.839-10.08-1.839-10.08" transform="translate(-59.212 -37.139)" fill="none" stroke="#5c5c5c" stroke-linecap="round" stroke-linejoin="round" stroke-width="1"/>
        </g>
      </g>
    </g>
  </g>
</svg>
