<svg xmlns="http://www.w3.org/2000/svg" width="280" height="321" viewBox="0 0 280 321">
  <g id="Group_556" data-name="Group 556" transform="translate(-360 -4057)">
    <g id="replicate-prediction-uehbw5rcwptibhghhooly4g6ry" transform="translate(360 4098)" fill="#fff" stroke="#0085d7" stroke-width="1">
      <rect width="280" height="280" rx="20" stroke="none"/>
      <rect x="0.5" y="0.5" width="279" height="279" rx="19.5" fill="none"/>
    </g>
    <g id="Ellipse_121" data-name="Ellipse 121" transform="translate(467 4057)" fill="#fff" stroke="#0085d7" stroke-width="1">
      <circle cx="33" cy="33" r="33" stroke="none"/>
      <circle cx="33" cy="33" r="32.5" fill="none"/>
    </g>
    <path id="Path_2017" data-name="Path 2017" d="M-10.591-22.866A7.509,7.509,0,0,1-3.955-19.2,13.8,13.8,0,0,1-1.978-11.5,15.232,15.232,0,0,1-3.457-4.438,8.615,8.615,0,0,1-5.933-1.45,7.624,7.624,0,0,1-10.62.059,7.532,7.532,0,0,1-17.3-3.589a14.265,14.265,0,0,1-1.963-7.9,13.509,13.509,0,0,1,2.227-8.1A7.564,7.564,0,0,1-10.591-22.866Zm-.059,3.384a3.643,3.643,0,0,0-3.179,2.021,11.758,11.758,0,0,0-1.318,6.05,13.385,13.385,0,0,0,.806,4.966q1.23,3.018,3.75,3.018A3.554,3.554,0,0,0-7.617-5.112q1.523-2.139,1.523-6.313a11.581,11.581,0,0,0-1.362-6.108A3.625,3.625,0,0,0-10.649-19.482Zm23.276-1.494V-1.831a1.529,1.529,0,0,1-.41,1.084,2.093,2.093,0,0,1-1.611.63A1.933,1.933,0,0,1,8.877-.923a1.6,1.6,0,0,1-.264-.908V-20.977A1.486,1.486,0,0,1,9.4-22.354a2.357,2.357,0,0,1,1.2-.322,2.352,2.352,0,0,1,1.348.4A1.5,1.5,0,0,1,12.627-20.977Z" transform="translate(500 4095)" fill="#0085d7"/>
    <path id="Path_2016" data-name="Path 2016" d="M-18.41-3.516V-.7a.584.584,0,0,1-.164.422.8.8,0,0,1-.6.229.728.728,0,0,1-.65-.3.6.6,0,0,1-.1-.346V-5.906a.577.577,0,0,1,.146-.4.746.746,0,0,1,.568-.223.656.656,0,0,1,.633.34.557.557,0,0,1,.07.281v.615a3.514,3.514,0,0,1,.6-.8,1.886,1.886,0,0,1,1.318-.5,1.519,1.519,0,0,1,1.037.381.822.822,0,0,1,.311.627.745.745,0,0,1-.17.469.733.733,0,0,1-.6.3.634.634,0,0,1-.4-.129.793.793,0,0,0-.5-.17Q-17.795-5.115-18.41-3.516Zm5.209.6a1.618,1.618,0,0,0,.5,1.148,1.8,1.8,0,0,0,1.289.48A2.032,2.032,0,0,0-9.9-1.928a.529.529,0,0,1,.4-.182.661.661,0,0,1,.475.217.674.674,0,0,1,.2.486.873.873,0,0,1-.322.627,3.216,3.216,0,0,1-2.32.8,3.269,3.269,0,0,1-2.15-.715A3.15,3.15,0,0,1-14.76-3.275a3.433,3.433,0,0,1,.645-2.1,2.924,2.924,0,0,1,2.5-1.213,2.791,2.791,0,0,1,2.191.979A2.728,2.728,0,0,1-8.689-3.75a.934.934,0,0,1-.17.639.805.805,0,0,1-.609.2Zm.023-1.178h2.76q.182,0,.182-.146a1.013,1.013,0,0,0-.264-.639,1.375,1.375,0,0,0-1.131-.5,1.587,1.587,0,0,0-.814.223A1.446,1.446,0,0,0-13.178-4.09Zm10.395-1.6.035-.381q.041-.48.627-.48a.653.653,0,0,1,.645.357.633.633,0,0,1,.059.275V-.686a.691.691,0,0,1-.088.352.633.633,0,0,1-.586.287.608.608,0,0,1-.656-.592l-.064-.4A2.083,2.083,0,0,1-4.8,0,2.615,2.615,0,0,1-7.107-1.207a3.636,3.636,0,0,1-.574-2.074A3.469,3.469,0,0,1-7.1-5.291,2.79,2.79,0,0,1-5.854-6.322a2.756,2.756,0,0,1,1.107-.229A2.322,2.322,0,0,1-2.783-5.689Zm-.123,2.508V-3.65a1.567,1.567,0,0,0-.48-1.137,1.536,1.536,0,0,0-1.125-.492A1.406,1.406,0,0,0-5.7-4.664a2.272,2.272,0,0,0-.4,1.377,2.5,2.5,0,0,0,.281,1.225,1.4,1.4,0,0,0,1.295.779,1.405,1.405,0,0,0,.973-.4A1.941,1.941,0,0,0-2.906-3.182Zm5.725-3.4a3.51,3.51,0,0,1,2.039.533.822.822,0,0,1,.416.68.728.728,0,0,1-.141.428.619.619,0,0,1-.527.264.812.812,0,0,1-.48-.205,2.12,2.12,0,0,0-1.33-.463q-.949,0-.949.539a.541.541,0,0,0,.34.492,3.633,3.633,0,0,0,.381.141A17.647,17.647,0,0,1,4.529-3.5a1.623,1.623,0,0,1,.979,1.553A1.717,1.717,0,0,1,4.723-.434,3.309,3.309,0,0,1,2.865.023,3.754,3.754,0,0,1,.656-.586a1.08,1.08,0,0,1-.562-.832.689.689,0,0,1,.135-.4.583.583,0,0,1,.5-.264.666.666,0,0,1,.463.205,2.312,2.312,0,0,0,1.664.627q1.049,0,1.049-.562,0-.381-.527-.639A17.053,17.053,0,0,0,1.74-3.006,1.709,1.709,0,0,1,.334-4.723,1.653,1.653,0,0,1,1.3-6.252,3.147,3.147,0,0,1,2.818-6.586Zm6.814,0a2.911,2.911,0,0,1,2.18.879,3.312,3.312,0,0,1,.9,2.414,3.616,3.616,0,0,1-.551,2.021A2.834,2.834,0,0,1,9.621.023,2.869,2.869,0,0,1,7.289-1.008,3.449,3.449,0,0,1,6.539-3.3,3.283,3.283,0,0,1,7.43-5.7,2.942,2.942,0,0,1,9.633-6.586ZM9.615-5.314a1.336,1.336,0,0,0-1.172.645A2.422,2.422,0,0,0,8.086-3.3a2.785,2.785,0,0,0,.2,1.1,1.377,1.377,0,0,0,1.348.926A1.324,1.324,0,0,0,10.8-1.916,2.485,2.485,0,0,0,11.162-3.3,2.363,2.363,0,0,0,10.781-4.7,1.347,1.347,0,0,0,9.615-5.314Zm5.912-.146a2.592,2.592,0,0,1,.791-.715,2.621,2.621,0,0,1,1.348-.375,2.149,2.149,0,0,1,1.693.715,2.73,2.73,0,0,1,.563,1.875V-.7a.591.591,0,0,1-.141.4.793.793,0,0,1-.627.252.73.73,0,0,1-.662-.316A.606.606,0,0,1,18.4-.7V-3.791a2.045,2.045,0,0,0-.164-.867.891.891,0,0,0-.861-.562,1.624,1.624,0,0,0-1.207.656A1.594,1.594,0,0,0,15.709-3.5V-.7a.584.584,0,0,1-.164.422.8.8,0,0,1-.6.229.736.736,0,0,1-.668-.316A.588.588,0,0,1,14.186-.7V-5.883a.665.665,0,0,1,.111-.393.568.568,0,0,1,.5-.24.613.613,0,0,1,.645.586Z" transform="translate(500 4111)" fill="#0085d7"/>
    <g id="Group_508" data-name="Group 508" transform="translate(-4.728 -1691.098)">
      <path id="Path_2018" data-name="Path 2018" d="M9.551-5.449H23.027a1.791,1.791,0,0,1,1.348.547,2.575,2.575,0,0,1,.7,1.875A2.333,2.333,0,0,1,24.043-.879a1.851,1.851,0,0,1-1.016.273H6.387Q3.223-.605,3.223-3.4A6.114,6.114,0,0,1,4.961-7.285,70.516,70.516,0,0,1,13.418-15a32.975,32.975,0,0,0,4-3.711,5.245,5.245,0,0,0,1.406-3.3,3.515,3.515,0,0,0-1.7-3.105,5.458,5.458,0,0,0-3.066-.859,5.645,5.645,0,0,0-5.234,3.184,2.5,2.5,0,0,1-2.285,1.445A2.663,2.663,0,0,1,5.2-21.719a2.126,2.126,0,0,1-1.152-1.953,4.671,4.671,0,0,1,1.094-2.793A8.985,8.985,0,0,1,8.164-29a12.214,12.214,0,0,1,5.957-1.484,11.505,11.505,0,0,1,6.27,1.7,7.673,7.673,0,0,1,3.926,6.836,8.118,8.118,0,0,1-2.148,5.508,44.031,44.031,0,0,1-5.234,4.492A61.713,61.713,0,0,0,9.551-5.449ZM45.918-16.074A9.774,9.774,0,0,1,49.8-14.922a6.991,6.991,0,0,1,3.027,3.438,6.828,6.828,0,0,1,.488,2.578,7.918,7.918,0,0,1-3.711,6.973A13.127,13.127,0,0,1,42.148.078q-5.859,0-9.062-3.262a4.125,4.125,0,0,1-1.465-2.793,2.024,2.024,0,0,1,.645-1.543A2.447,2.447,0,0,1,34-8.223a2.092,2.092,0,0,1,1.484.566,6.7,6.7,0,0,1,.586.684,7.409,7.409,0,0,0,6.055,2.578,6.865,6.865,0,0,0,3.73-.937,4.023,4.023,0,0,0,2.012-3.633,4.585,4.585,0,0,0-1.211-3.3A4.8,4.8,0,0,0,44-13.613a24.5,24.5,0,0,0-3.789-.234q-2.578,0-2.578-2.187,0-2.09,2.676-2.09a10.019,10.019,0,0,0,4.063-.742,3.6,3.6,0,0,0,2.422-3.5,3.236,3.236,0,0,0-1.387-2.754,5.658,5.658,0,0,0-3.437-.977,6.038,6.038,0,0,0-5.215,2.52,2.11,2.11,0,0,1-1.8.957,2.358,2.358,0,0,1-1.582-.586,1.941,1.941,0,0,1-.742-1.543,3.438,3.438,0,0,1,.977-2.148,9.576,9.576,0,0,1,2.813-2.187,12.056,12.056,0,0,1,5.7-1.367,11.881,11.881,0,0,1,6.094,1.5,7.25,7.25,0,0,1,3.848,6.66,5.626,5.626,0,0,1-2.227,4.609,7.732,7.732,0,0,1-3.574,1.543Zm18,1.729,8.809-.635a.925.925,0,0,1,.723.225,1.135,1.135,0,0,1,.322.869q0,.986-.889,1.045l-4.18.293v2.295l3.8-.225a.929.929,0,0,1,.693.2,1.019,1.019,0,0,1,.332.82q0,1.055-.908,1.1L68.7-8.135v2.627l6.016-.312a.956.956,0,0,1,.605.146,1.057,1.057,0,0,1,.4.928q0,1.123-.918,1.162l-6.1.3V.762q0,.938-1.24.938Q66.24,1.7,66.24.762V-3.154l-7.617.371-.088.01a.827.827,0,0,1-.7-.3,1.158,1.158,0,0,1-.234-.762q0-1.094.9-1.143l2.4-.127L61-7.7h-.117a.745.745,0,0,1-.771-.566,1.661,1.661,0,0,1-.088-.547.866.866,0,0,1,.879-1l5.342-.312v-2.266l-3.711.264a9.425,9.425,0,0,1-1.611,1.758,1.593,1.593,0,0,1-.947.459,1.027,1.027,0,0,1-.645-.273.9.9,0,0,1-.371-.713,1.892,1.892,0,0,1,.518-1,16.619,16.619,0,0,0,2.412-4.023,1.165,1.165,0,0,1,1.123-.84,1.531,1.531,0,0,1,.723.186,1.013,1.013,0,0,1,.645.938A3.757,3.757,0,0,1,63.916-14.346ZM66.24-8l-2.852.166-.107,2.607,2.959-.156ZM89.922-4.375A20.939,20.939,0,0,1,85.586-.156q-.5.371-.732.518a1.248,1.248,0,0,1-.664.215.88.88,0,0,1-.674-.312.933.933,0,0,1-.283-.645,1.158,1.158,0,0,1,.557-.859,18.255,18.255,0,0,0,4.922-5.645,26.873,26.873,0,0,0,2.5-7.178,1.105,1.105,0,0,1,1.152-1.016,1.869,1.869,0,0,1,.811.176,1.029,1.029,0,0,1,.605,1.006,15.92,15.92,0,0,1-.977,3.73A24.264,24.264,0,0,1,91-6.035a23.808,23.808,0,0,1,4.121,3.652,2.013,2.013,0,0,1,.6,1.338,1.232,1.232,0,0,1-.439.957,1.37,1.37,0,0,1-.928.371,1.1,1.1,0,0,1-.811-.332,3.9,3.9,0,0,1-.42-.557A30.094,30.094,0,0,0,89.922-4.375Zm-7.949-1Q83.447-6.23,84.5-6.982a1.518,1.518,0,0,1,.85-.332.768.768,0,0,1,.605.283.9.9,0,0,1,.234.6,1.48,1.48,0,0,1-.527.938,19.973,19.973,0,0,1-2.051,1.67,27.941,27.941,0,0,1-4.248,2.666,1.552,1.552,0,0,1-.645.176A1.071,1.071,0,0,1,77.705-1.6a1.579,1.579,0,0,1-.2-.762,1,1,0,0,1,.381-.84,4.633,4.633,0,0,1,.664-.352q.439-.215,1.133-.566l-.879-9.1a.885.885,0,0,1-.01-.156q0-1.006,1.357-1.006a.965.965,0,0,1,1.1.967Zm2.539-8.848q.781,0,2.266,2.119a4.2,4.2,0,0,1,.938,1.982,1.075,1.075,0,0,1-.41.879,1.449,1.449,0,0,1-.937.332,1.042,1.042,0,0,1-.967-.537A4.469,4.469,0,0,1,85.2-9.9a25.645,25.645,0,0,0-1.387-3,1.082,1.082,0,0,1-.166-.547.691.691,0,0,1,.313-.586A.923.923,0,0,1,84.512-14.219Zm22.93,3.672,4.541-.293a1.044,1.044,0,0,1,.488.078,1.054,1.054,0,0,1,.654,1.1,1.169,1.169,0,0,1-.449,1.006.966.966,0,0,1-.518.176l-4.717.3v5.645l6.8-.332h.078a1,1,0,0,1,.693.244,1.15,1.15,0,0,1,.371.918,1.148,1.148,0,0,1-.566,1.113,1,1,0,0,1-.469.127L98.984.283h-.1a.975.975,0,0,1-.674-.244,1.138,1.138,0,0,1-.371-.908,1.172,1.172,0,0,1,.547-1.113,1,1,0,0,1,.479-.137L104.8-2.4V-14.9a.97.97,0,0,1,.518-.889,1.648,1.648,0,0,1,.811-.205,1.479,1.479,0,0,1,.908.283.949.949,0,0,1,.4.811Z" transform="translate(450 6004)" fill="#0085d7"/>
      <g id="Asset_20" data-name="Asset 20" transform="translate(457 5844.099)">
        <g id="Layer_3" data-name="Layer 3">
          <path id="Path_1440" data-name="Path 1440" d="M91.16,74.97V94.09A6.912,6.912,0,0,1,84.25,101H7.91A6.905,6.905,0,0,1,1,94.09V87.6a6.905,6.905,0,0,0,6.91,6.91H71.76L85.5,80.47l5.66-5.5Z" fill="rgba(0,133,215,0.2)"/>
          <path id="Path_1441" data-name="Path 1441" d="M91.16,14.01v15.2H1V14.01A6.912,6.912,0,0,1,7.91,7.1H84.25a6.918,6.918,0,0,1,6.91,6.91Z" fill="rgba(0,133,215,0.2)"/>
          <rect id="Rectangle_113" data-name="Rectangle 113" width="10.18" height="10.18" transform="translate(10.4 38.2)" fill="#91c2e0"/>
          <rect id="Rectangle_114" data-name="Rectangle 114" width="10.18" height="10.18" transform="translate(30.86 38.2)" fill="#91c2e0"/>
          <rect id="Rectangle_115" data-name="Rectangle 115" width="10.18" height="10.18" transform="translate(51.31 38.2)" fill="#91c2e0"/>
          <rect id="Rectangle_116" data-name="Rectangle 116" width="10.18" height="10.18" transform="translate(71.77 38.2)" fill="#91c2e0"/>
          <rect id="Rectangle_117" data-name="Rectangle 117" width="10.18" height="10.18" transform="translate(10.4 56.97)" fill="#91c2e0"/>
          <rect id="Rectangle_118" data-name="Rectangle 118" width="10.18" height="10.18" transform="translate(30.86 56.97)" fill="#91c2e0"/>
          <rect id="Rectangle_119" data-name="Rectangle 119" width="10.18" height="10.18" transform="translate(51.31 56.97)" fill="#91c2e0"/>
          <rect id="Rectangle_120" data-name="Rectangle 120" width="10.18" height="10.18" transform="translate(71.77 56.97)" fill="#91c2e0"/>
          <rect id="Rectangle_121" data-name="Rectangle 121" width="10.18" height="10.18" transform="translate(10.4 75.75)" fill="#91c2e0"/>
          <rect id="Rectangle_122" data-name="Rectangle 122" width="10.18" height="10.18" transform="translate(30.86 75.75)" fill="#91c2e0"/>
          <rect id="Rectangle_123" data-name="Rectangle 123" width="10.18" height="10.18" transform="translate(51.31 75.75)" fill="#91c2e0"/>
        </g>
        <g id="Layer_2" data-name="Layer 2">
          <g id="Group_472" data-name="Group 472">
            <rect id="Rectangle_124" data-name="Rectangle 124" width="90.16" height="93.9" rx="6.91" transform="translate(1 7.1)" fill="none" stroke="#0085d7" stroke-linecap="round" stroke-linejoin="round" stroke-width="2"/>
            <path id="Path_1442" data-name="Path 1442" d="M1,87.6a6.905,6.905,0,0,0,6.91,6.91H67.97a3.086,3.086,0,0,0,3.09-3.09V79.08a4.11,4.11,0,0,1,4.11-4.11H87.55a3.6,3.6,0,0,0,3.6-3.6V68.56" fill="none" stroke="#0085d7" stroke-linecap="round" stroke-linejoin="round" stroke-width="2"/>
            <line id="Line_122" data-name="Line 122" y1="19.54" x2="20.09" transform="translate(71.07 74.97)" fill="none" stroke="#0085d7" stroke-linecap="round" stroke-linejoin="round" stroke-width="2"/>
            <path id="Path_1443" data-name="Path 1443" d="M19.09,16.78a3.461,3.461,0,0,1-3.46-3.46V4.46A3.461,3.461,0,0,1,19.09,1h0a3.461,3.461,0,0,1,3.46,3.46V7.82" fill="none" stroke="#0085d7" stroke-linecap="round" stroke-linejoin="round" stroke-width="2"/>
            <path id="Path_1444" data-name="Path 1444" d="M73.85,16.78a3.461,3.461,0,0,1-3.46-3.46V4.46A3.461,3.461,0,0,1,73.85,1h0a3.461,3.461,0,0,1,3.46,3.46V7.82" fill="none" stroke="#0085d7" stroke-linecap="round" stroke-linejoin="round" stroke-width="2"/>
            <line id="Line_123" data-name="Line 123" x2="17.09" transform="translate(2 29.21)" fill="none" stroke="#0085d7" stroke-linecap="round" stroke-linejoin="round" stroke-width="2"/>
            <line id="Line_124" data-name="Line 124" x2="64.54" transform="translate(25.25 29.21)" fill="none" stroke="#0085d7" stroke-linecap="round" stroke-linejoin="round" stroke-width="2"/>
            <rect id="Rectangle_125" data-name="Rectangle 125" width="10.18" height="10.18" transform="translate(10.4 38.2)" fill="none" stroke="#0085d7" stroke-linecap="round" stroke-linejoin="round" stroke-width="2"/>
            <rect id="Rectangle_126" data-name="Rectangle 126" width="10.18" height="10.18" transform="translate(30.86 38.2)" fill="none" stroke="#0085d7" stroke-linecap="round" stroke-linejoin="round" stroke-width="2"/>
            <rect id="Rectangle_127" data-name="Rectangle 127" width="10.18" height="10.18" transform="translate(51.31 38.2)" fill="none" stroke="#0085d7" stroke-linecap="round" stroke-linejoin="round" stroke-width="2"/>
            <rect id="Rectangle_128" data-name="Rectangle 128" width="10.18" height="10.18" transform="translate(71.77 38.2)" fill="none" stroke="#0085d7" stroke-linecap="round" stroke-linejoin="round" stroke-width="2"/>
            <rect id="Rectangle_129" data-name="Rectangle 129" width="10.18" height="10.18" transform="translate(10.4 56.97)" fill="none" stroke="#0085d7" stroke-linecap="round" stroke-linejoin="round" stroke-width="2"/>
            <rect id="Rectangle_130" data-name="Rectangle 130" width="10.18" height="10.18" transform="translate(30.86 56.97)" fill="none" stroke="#0085d7" stroke-linecap="round" stroke-linejoin="round" stroke-width="2"/>
            <rect id="Rectangle_131" data-name="Rectangle 131" width="10.18" height="10.18" transform="translate(51.31 56.97)" fill="none" stroke="#0085d7" stroke-linecap="round" stroke-linejoin="round" stroke-width="2"/>
            <rect id="Rectangle_132" data-name="Rectangle 132" width="10.18" height="10.18" transform="translate(71.77 56.97)" fill="none" stroke="#0085d7" stroke-linecap="round" stroke-linejoin="round" stroke-width="2"/>
            <rect id="Rectangle_133" data-name="Rectangle 133" width="10.18" height="10.18" transform="translate(10.4 75.75)" fill="none" stroke="#0085d7" stroke-linecap="round" stroke-linejoin="round" stroke-width="2"/>
            <rect id="Rectangle_134" data-name="Rectangle 134" width="10.18" height="10.18" transform="translate(30.86 75.75)" fill="none" stroke="#0085d7" stroke-linecap="round" stroke-linejoin="round" stroke-width="2"/>
            <rect id="Rectangle_135" data-name="Rectangle 135" width="10.18" height="10.18" transform="translate(51.31 75.75)" fill="none" stroke="#0085d7" stroke-linecap="round" stroke-linejoin="round" stroke-width="2"/>
          </g>
        </g>
      </g>
    </g>
  </g>
</svg>
