<svg width="40" height="40" viewBox="0 0 40 40" fill="none" xmlns="http://www.w3.org/2000/svg">
<path d="M23.7578 15.9531V21.5078C23.7578 21.6485 23.6485 21.7578 23.5078 21.7578H22.6172C22.5313 21.7578 22.4531 21.711 22.4141 21.6563L19.8672 18.2188V21.5156C19.8672 21.6563 19.7578 21.7656 19.6172 21.7656H18.7266C18.586 21.7656 18.4766 21.6563 18.4766 21.5156V15.961C18.4766 15.8203 18.586 15.711 18.7266 15.711H19.6094C19.6875 15.711 19.7735 15.75 19.8125 15.8203L22.3594 19.2578V15.961C22.3594 15.8203 22.4688 15.711 22.6094 15.711H23.5C23.6406 15.7031 23.7578 15.8203 23.7578 15.9531ZM17.3516 15.7031H16.461C16.3203 15.7031 16.211 15.8125 16.211 15.9531V21.5078C16.211 21.6485 16.3203 21.7578 16.461 21.7578H17.3516C17.4922 21.7578 17.6016 21.6485 17.6016 21.5078V15.9531C17.6016 15.8203 17.4922 15.7031 17.3516 15.7031ZM15.2031 20.3594H12.7735V15.9531C12.7735 15.8125 12.6641 15.7031 12.5235 15.7031H11.6328C11.4922 15.7031 11.3828 15.8125 11.3828 15.9531V21.5078C11.3828 21.5781 11.4063 21.6328 11.4531 21.6797C11.5 21.7188 11.5547 21.75 11.625 21.75H15.1953C15.336 21.75 15.4453 21.6406 15.4453 21.5V20.6094C15.4453 20.4766 15.336 20.3594 15.2031 20.3594ZM28.4453 15.7031H24.875C24.7422 15.7031 24.625 15.8125 24.625 15.9531V21.5078C24.625 21.6406 24.7344 21.7578 24.875 21.7578H28.4453C28.586 21.7578 28.6953 21.6485 28.6953 21.5078V20.6172C28.6953 20.4766 28.586 20.3672 28.4453 20.3672H26.0156V19.4297H28.4453C28.586 19.4297 28.6953 19.3203 28.6953 19.1797V18.2813C28.6953 18.1406 28.586 18.0313 28.4453 18.0313H26.0156V17.0938H28.4453C28.586 17.0938 28.6953 16.9844 28.6953 16.8438V15.9531C28.6875 15.8203 28.5781 15.7031 28.4453 15.7031ZM37.5 8.88283V31.1719C37.4922 34.6719 34.625 37.5078 31.1172 37.5H8.82814C5.32814 37.4922 2.4922 34.6172 2.50002 31.1172V8.82814C2.50783 5.32814 5.38283 2.4922 8.88283 2.50002H31.1719C34.6719 2.50783 37.5078 5.37502 37.5 8.88283ZM32.6875 18.461C32.6875 12.7578 26.9688 8.1172 19.9453 8.1172C12.9219 8.1172 7.20314 12.7578 7.20314 18.461C7.20314 23.5703 11.7344 27.8516 17.8594 28.6641C19.3516 28.9844 19.1797 29.5313 18.8438 31.5391C18.7891 31.8594 18.586 32.7969 19.9453 32.2266C21.3047 31.6563 27.2813 27.9063 29.961 24.8281C31.8047 22.7969 32.6875 20.7422 32.6875 18.461Z" fill="white"/>
</svg>
