<svg width="163" height="31" viewBox="0 0 163 31" fill="none" xmlns="http://www.w3.org/2000/svg">
<path fill-rule="evenodd" clip-rule="evenodd" d="M74.39 23.01C77.78 23.01 80.53 20.25 80.53 16.87V0H88.53V16.87C88.53 24.67 82.19 31.01 74.39 31.01C66.59 31.01 60.25 24.66 60.25 16.87V0H68.25V16.87C68.25 20.26 71 23.01 74.39 23.01ZM37.6387 0.259766H30.4688V26.0198V30.8498H37.6387H54.4388V26.0198H37.6387V0.259766ZM0 0.26H23.96V7.43H0V0.26ZM0 18.8493V14.0293H7.17H23.96V18.8493H7.17V30.8493H0V18.8493ZM147.04 9.95953L153.44 0.269531H162.3L151.47 16.6595L150.62 17.9395V30.8495H143.45V17.9395L142.61 16.6595L131.77 0.269531H140.63L147.04 9.95953ZM112.32 25.1598L116.28 30.8498H125.44L116.9 18.5898L112.32 25.1598ZM104.121 0.269531L108.081 5.94953L103.501 12.5195L94.9609 0.269531H104.121ZM110.201 8.98953L105.621 15.5595L94.9609 30.8495H104.121L110.201 22.1295L114.781 15.5595L125.441 0.269531H116.281L110.201 8.98953Z" fill="url(#paint0_linear_1_504)"/>
<defs>
<linearGradient id="paint0_linear_1_504" x1="-1.46474e-08" y1="20.5" x2="162" y2="21.5" gradientUnits="userSpaceOnUse">
<stop stop-color="#6531C0"/>
<stop offset="1" stop-color="#719DEB"/>
</linearGradient>
</defs>
</svg>
