<svg width="344" height="239" viewBox="0 0 344 239" fill="none" xmlns="http://www.w3.org/2000/svg">
<g clip-path="url(#clip0_442_1977)">
<path opacity="0.3" d="M146.7 116.95C146.7 116.95 147.02 120.15 144.72 126.29C142.42 132.43 137.26 137 137.26 137L119.61 130.94L107.5 153.31L114.01 154.59C114.01 154.59 115.09 155.19 116.36 158.73C117.63 162.27 137.99 219.02 137.99 219.02L143.65 219.47C143.65 219.47 146.14 214.62 149.48 205.98C152.82 197.34 154.26 189.67 156.47 186.76C158.68 183.85 163.24 179.71 162.82 180.64C162.4 181.57 177.74 218.31 177.74 218.31L212.93 219.03C212.93 219.03 215.7 222.76 223.35 222.41C231 222.06 236.82 218.48 236.82 218.48L283.46 219.03C283.46 219.03 270.74 161.94 266.89 147.26C263.04 132.58 261.25 127.32 250.32 115.59C239.39 103.86 228.14 100.7 220.71 98.68C213.28 96.66 205.46 93.99 204.13 91.75C204.13 91.75 201.55 94.57 200.17 97.98C198.79 101.39 197.5 102.61 198.42 108.24C199.34 113.87 204.14 126.76 204.14 126.76L186.76 133.28L181.88 123.9C181.88 123.9 179.17 130.03 171.28 129.62C163.39 129.21 161 129.39 158.11 122.33C158.11 122.33 151.26 122.89 146.69 116.97L146.7 116.95Z" fill="#B499E5"/>
<path d="M175.622 62.0998C175.232 63.1898 169.862 60.9498 165.512 60.1998C161.162 59.4498 162.712 62.2998 155.802 62.0998C148.892 61.8998 141.662 59.8998 138.412 57.0198C135.162 54.1398 130.812 51.1298 133.122 47.6098C135.432 44.0898 144.712 41.0698 144.712 41.0698C144.712 41.0698 143.772 34.7598 152.662 31.7198C161.552 28.6798 171.972 32.4798 171.972 32.4798C171.972 32.4798 181.672 29.0098 189.422 36.3098C197.172 43.6098 196.562 45.7698 196.562 45.7698C196.562 45.7698 194.822 43.2998 192.832 45.0698C190.842 46.8398 191.302 52.1898 191.302 52.1898C191.302 52.1898 187.412 46.2498 185.742 45.5598C184.072 44.8698 183.062 43.2898 181.872 45.7198C180.682 48.1498 181.992 50.8998 181.992 50.8998C181.992 50.8998 176.792 47.3798 176.212 49.6398C175.632 51.8998 175.882 53.3198 176.962 55.3898C178.042 57.4598 178.732 60.5798 178.732 60.5798C178.732 60.5798 176.462 59.7398 175.622 62.0898V62.0998Z" fill="#B499E5"/>
<path d="M135.98 61.4004C136.12 71.5304 136.12 83.1004 137.28 94.2404C138.44 105.38 144.95 122.02 158.11 122.31C171.27 122.6 175.62 114.35 175.62 114.35" stroke="#303030" stroke-width="2" stroke-linecap="round" stroke-linejoin="round"/>
<path d="M147.859 107.52C147.859 107.52 156.129 107.05 159.739 108.22" stroke="#303030" stroke-width="2" stroke-linecap="round" stroke-linejoin="round"/>
<path d="M151.172 84.7998C151.172 84.7998 148.672 90.7398 145.652 94.5898L149.732 98.6698" stroke="#303030" stroke-width="2" stroke-linecap="round" stroke-linejoin="round"/>
<path d="M156.48 69.6602L164.64 72.8002" stroke="#303030" stroke-width="2" stroke-linecap="round" stroke-linejoin="round"/>
<path d="M162.479 82.3503C162.96 82.3503 163.349 81.9608 163.349 81.4804C163.349 80.9999 162.96 80.6104 162.479 80.6104C161.999 80.6104 161.609 80.9999 161.609 81.4804C161.609 81.9608 161.999 82.3503 162.479 82.3503Z" stroke="#303030" stroke-width="2" stroke-linecap="round" stroke-linejoin="round"/>
<path d="M142.97 81.31C143.356 81.31 143.67 80.8399 143.67 80.26C143.67 79.6801 143.356 79.21 142.97 79.21C142.583 79.21 142.27 79.6801 142.27 80.26C142.27 80.8399 142.583 81.31 142.97 81.31Z" stroke="#303030" stroke-width="2" stroke-linecap="round" stroke-linejoin="round"/>
<path d="M155.09 63.0104C155.09 63.0104 145.07 61.8404 140.06 58.2304C135.05 54.6204 130.86 50.8904 133.89 46.0004C136.92 41.1104 142.98 40.8704 142.98 40.8704C142.98 40.8704 149.97 25.8404 169.43 30.7304" stroke="#303030" stroke-width="2" stroke-linecap="round" stroke-linejoin="round"/>
<path d="M172.789 31.7904C172.789 31.7904 186.419 27.6004 195.739 44.3704" stroke="#303030" stroke-width="2" stroke-linecap="round" stroke-linejoin="round"/>
<path d="M202.622 123.25C202.622 123.25 199.242 115.09 198.782 111.13C198.322 107.17 197.502 103.44 199.832 98.66C202.162 93.88 204.492 90.5 204.722 82.35C204.952 74.2 203.152 62.19 201.492 56.14C199.832 50.09 197.382 47.17 196.572 45.77C195.762 44.37 194.122 43.79 192.842 45.07C191.562 46.35 190.742 47.87 191.792 50.55" stroke="#303030" stroke-width="2" stroke-linecap="round" stroke-linejoin="round"/>
<path d="M199.01 69.1907C196.91 59.5207 188.06 48.1707 186.66 46.3907C185.26 44.6107 182.35 44.3707 181.18 45.6607C180.01 46.9507 181.18 50.4407 181.18 50.4407" stroke="#303030" stroke-width="2" stroke-linecap="round" stroke-linejoin="round"/>
<path d="M195.281 72.8004C189.111 59.4004 182.981 51.9304 182.001 50.9004C181.021 49.8704 178.741 48.6904 176.991 50.9004C175.241 53.1104 176.761 54.8604 178.621 58.5904C180.481 62.3204 189.841 75.8304 189.841 75.8304" stroke="#303030" stroke-width="2" stroke-linecap="round" stroke-linejoin="round"/>
<path d="M178.851 61.3998C178.851 61.3998 178.011 59.5598 176.211 61.3998C174.411 63.2398 174.161 65.1098 176.211 67.6698C178.261 70.2298 179.201 72.4498 181.531 77.1098C183.861 81.7698 184.561 83.5198 183.161 88.6398C181.761 93.7598 179.081 94.4698 177.451 98.6598C175.821 102.85 175.241 107.98 177.101 113.57C178.961 119.16 185.741 130.93 185.741 130.93" stroke="#303030" stroke-width="2" stroke-linecap="round" stroke-linejoin="round"/>
<path d="M146.699 52.8809C146.699 52.8809 155.149 60.6209 171.979 60.5909" stroke="#303030" stroke-width="2" stroke-linecap="round" stroke-linejoin="round"/>
<path d="M134.58 62.7402C134.58 62.7402 127.82 68.4902 125.38 71.2302C122.94 73.9702 121.07 77.0002 123.05 82.3602C125.03 87.7202 129.92 95.5302 129.69 105.08C129.46 114.63 125.5 125.7 125.5 125.7" stroke="#303030" stroke-width="2" stroke-linecap="round" stroke-linejoin="round"/>
<path d="M135.982 89.1098C135.982 89.1098 131.442 83.6298 130.622 82.3498C129.802 81.0698 128.872 79.8998 130.622 77.4598C132.372 75.0198 135.982 72.7998 135.982 72.7998" stroke="#303030" stroke-width="2" stroke-linecap="round" stroke-linejoin="round"/>
<path d="M131.899 57.7705C127.939 60.9205 125.839 62.5505 124.679 63.8305C123.519 65.1105 123.049 66.2805 123.279 67.7905C123.509 69.3005 124.639 72.0905 124.639 72.0905" stroke="#303030" stroke-width="2" stroke-linecap="round" stroke-linejoin="round"/>
<path d="M145.65 120.221C145.42 120.691 145.73 125.281 140.41 133.271" stroke="#303030" stroke-width="2" stroke-linecap="round" stroke-linejoin="round"/>
<path d="M117.342 133.271L108.602 152.611" stroke="#303030" stroke-width="2" stroke-linecap="round" stroke-linejoin="round"/>
<path d="M122.211 132.45L141.111 139.67" stroke="#303030" stroke-width="2" stroke-linecap="round" stroke-linejoin="round"/>
<path d="M130.852 175.091L143.672 142.351" stroke="#303030" stroke-width="2" stroke-linecap="round" stroke-linejoin="round"/>
<path d="M151.141 151.09C151.141 151.09 175.911 213.77 176.221 214.12" stroke="#303030" stroke-width="2" stroke-linecap="round" stroke-linejoin="round"/>
<path d="M158.699 183.83C156.019 187.79 151.359 201.77 149.499 205.97C147.639 210.17 144.719 215.99 144.719 215.99" stroke="#303030" stroke-width="2" stroke-linecap="round" stroke-linejoin="round"/>
<path d="M158.93 122.95C158.93 122.95 160.82 129.51 170.14 129.63C179.46 129.75 181.88 123.89 181.88 123.89" stroke="#303030" stroke-width="2" stroke-linecap="round" stroke-linejoin="round"/>
<path d="M206.352 93.1904C206.352 93.1904 207.632 95.2904 216.722 97.6204C225.812 99.9504 240.252 103.68 249.342 114.4C258.432 125.12 264.372 134.67 267.632 150.52C270.892 166.37 281.612 216 281.612 216" stroke="#303030" stroke-width="2" stroke-linecap="round" stroke-linejoin="round"/>
<path d="M250.849 140.84L242.699 186.74" stroke="#303030" stroke-width="2" stroke-linecap="round" stroke-linejoin="round"/>
<path d="M243.982 194.201C243.402 201.771 241.422 209.811 239.092 214.121C236.762 218.431 236.532 221.811 228.262 222.391C219.992 222.971 216.382 220.761 213.462 218.781C210.542 216.801 207.872 212.951 206.352 209.111C204.832 205.271 185.262 153.301 185.262 153.301" stroke="#303030" stroke-width="2" stroke-linecap="round" stroke-linejoin="round"/>
<path d="M190.621 150.51C190.621 150.51 201.921 146.08 211.821 142.94" stroke="#303030" stroke-width="2" stroke-linecap="round" stroke-linejoin="round"/>
<path d="M212.291 139.67L207.281 128.96" stroke="#303030" stroke-width="2" stroke-linecap="round" stroke-linejoin="round"/>
<path d="M204.13 126.74L182.93 135.36L187.82 147.25" stroke="#303030" stroke-width="2" stroke-linecap="round" stroke-linejoin="round"/>
<path d="M214.621 134.32C214.621 134.32 216.131 112.53 232.101 109.15" stroke="#303030" stroke-width="2" stroke-linecap="round" stroke-linejoin="round"/>
<path d="M175.621 219.48H206.351" stroke="#303030" stroke-width="2" stroke-linecap="round" stroke-linejoin="round"/>
<path d="M238.852 219.48H342.312" stroke="#303030" stroke-width="2" stroke-linecap="round" stroke-linejoin="round"/>
<path d="M176.222 226.35L143.672 237.77L29.2617 230.08V224.96L143.032 232.65V236.96" stroke="#303030" stroke-width="2" stroke-linecap="round" stroke-linejoin="round"/>
<path d="M150.078 230.901L163.678 225.891" stroke="#303030" stroke-width="2" stroke-linecap="round" stroke-linejoin="round"/>
<path d="M139.359 219.01L172.909 222.49" stroke="#303030" stroke-width="2" stroke-linecap="round" stroke-linejoin="round"/>
<path d="M141.691 229.27L115.381 155.93C115.091 155.11 114.341 154.54 113.481 154.47L3.42051 144.87C1.79051 144.73 0.570507 146.34 1.15051 147.87L28.5705 220.75" stroke="#303030" stroke-width="2" stroke-linecap="round" stroke-linejoin="round"/>
<path d="M66.9691 187.6C68.1091 188.34 68.8791 189.79 68.8791 191.44C68.8791 193.86 67.2391 195.82 65.2091 195.82C63.1791 195.82 61.5391 193.86 61.5391 191.44C61.5391 190.68 61.6991 189.97 61.9891 189.35" stroke="#303030" stroke-width="2" stroke-linecap="round" stroke-linejoin="round"/>
<path d="M224.641 52.8798C224.641 52.8798 231.751 53.8098 234.891 51.2498C238.031 48.6898 237.571 42.8598 235.941 40.8798C234.311 38.8998 231.161 37.4998 229.651 39.1298C228.141 40.7598 228.711 43.9398 230.931 45.7298C233.151 47.5198 239.211 50.1098 243.981 45.7298C248.751 41.3498 247.131 33.3098 245.491 30.8598C243.851 28.4098 240.131 26.8998 238.501 28.6498C236.871 30.3998 238.621 33.4298 241.651 36.2198C244.681 39.0098 249.811 40.2998 254.701 35.3998C259.591 30.4998 255.521 25.2598 253.071 22.4698C250.621 19.6798 246.781 16.7598 246.781 16.7598" stroke="#303030" stroke-width="2" stroke-linecap="round" stroke-linejoin="round"/>
<path d="M95.2102 81.2402C94.0802 81.4302 93.2701 82.6102 93.3401 83.7602C93.4101 84.9102 94.2502 85.9102 95.3102 86.3602C96.3702 86.8102 97.5902 86.7202 98.6602 86.3102C99.7302 85.9002 100.66 85.1902 101.47 84.3902C102.31 83.5702 103.11 82.4102 102.74 81.2902C102.47 80.4602 101.61 79.9302 100.74 79.7902C99.8702 79.6502 98.9902 79.8502 98.1402 80.0302" stroke="#303030" stroke-width="2" stroke-linecap="round" stroke-linejoin="round"/>
<path d="M79.0716 67.0402C77.7816 68.5002 78.3016 70.9602 79.7516 72.2602C81.2016 73.5602 83.2916 73.9002 85.2316 73.8402C87.2216 73.7802 89.3016 73.3202 90.7816 71.9902C92.2616 70.6602 92.9316 68.2902 91.8816 66.6002C91.1716 65.4702 89.8416 64.8302 88.5216 64.6502C87.2016 64.4702 85.8516 64.6802 84.5316 64.8902" stroke="#303030" stroke-width="2" stroke-linecap="round" stroke-linejoin="round"/>
<path d="M86.611 51.3902C89.191 51.4602 91.771 50.2102 93.301 48.1402C94.831 46.0702 95.291 43.2402 94.471 40.7902C93.891 39.0502 92.691 37.4102 92.831 35.5802C92.951 33.9502 94.131 32.5802 95.431 31.5802C96.731 30.5802 98.201 29.7902 99.341 28.6202C101.521 26.3802 102.171 22.7802 100.901 19.9302C99.631 17.0802 96.531 15.1402 93.401 15.2602C90.421 15.3802 87.081 17.0802 84.691 15.2902C82.701 13.8002 82.801 10.8702 82.171 8.47023C81.311 5.20023 78.691 2.45023 75.471 1.44023C72.251 0.430233 68.521 1.19023 65.961 3.39023C61.581 7.13023 60.741 14.2902 55.651 16.9802C51.871 18.9802 47.031 17.7302 43.201 19.6002C40.931 20.7102 39.221 22.9202 38.721 25.4002C38.221 27.8802 38.921 30.5802 40.581 32.4902C41.961 34.0802 43.891 35.0902 45.761 36.0502C47.631 37.0102 49.561 38.0302 50.931 39.6302C52.301 41.2302 53.001 43.5902 52.091 45.5002C51.431 46.8902 50.041 47.8102 49.331 49.1702C48.051 51.6102 49.441 54.8102 51.771 56.2702C54.101 57.7302 57.061 57.7802 59.781 57.3202C61.961 56.9502 64.221 56.2802 66.321 56.9802C68.011 57.5402 69.311 58.9202 70.971 59.5702C73.071 60.4002 75.511 59.9402 77.501 58.8802C79.491 57.8202 81.141 56.2202 82.751 54.6302" stroke="#303030" stroke-width="2" stroke-linecap="round" stroke-linejoin="round"/>
</g>
<defs>
<clipPath id="clip0_442_1977">
<rect width="343.31" height="238.77" fill="white"/>
</clipPath>
</defs>
</svg>
