<svg width="345" height="260" viewBox="0 0 345 260" fill="none" xmlns="http://www.w3.org/2000/svg">
<g clip-path="url(#clip0_442_2076)">
<path opacity="0.3" d="M183.81 92.8998C183.26 93.0398 168.84 97.5698 165.13 99.2198C161.42 100.87 157.85 102.93 156.34 107.32C154.83 111.71 137.52 143.17 137.52 143.17L134.91 132.59C134.91 132.59 125.98 136.85 118.02 137.26C110.06 137.67 102.09 136.57 102.09 136.57L103.88 149.89C103.88 149.89 108.96 151.68 111.85 152.09C114.74 152.5 115.7 153.88 117.62 158.41C119.54 162.94 135.06 207.72 135.06 207.72C135.06 207.72 138.77 202.09 142.96 199.2C147.15 196.31 153.05 193.29 153.05 193.29C153.05 193.29 157.99 183.68 161.02 177.63C164.05 171.58 169.81 166.78 169.81 166.78L173.93 192.46C173.93 192.46 176.68 194.52 182.17 194.93C187.66 195.34 199.61 195.07 200.16 195.07C200.71 195.07 204.01 195.21 204.01 195.21C204.01 195.21 206.89 197.82 205.93 204.41C204.97 211 202.5 215.81 202.5 215.81L239.58 216.63C239.58 216.63 239.58 214.57 240.13 214.02C240.68 213.47 241.78 210.31 255.79 209.9C269.8 209.49 271.31 213.33 271.31 213.33V216.63H288.48C288.48 216.63 282.3 130.52 280.79 122.28C279.28 114.04 277.36 107.58 268.57 102.5C259.78 97.4198 239.45 86.8398 239.45 86.8398C239.45 86.8398 221.6 102.63 205.12 103.46C188.64 104.29 183.83 92.8798 183.83 92.8798L183.81 92.8998Z" fill="#B499E5"/>
<path d="M216.902 51.2898L221.572 47.7198C223.082 47.4498 226.792 47.7198 226.792 47.7198C226.792 47.7198 229.402 44.9698 230.092 45.1098C230.782 45.2498 231.192 42.3598 231.192 41.8098C231.192 41.2598 233.112 27.6598 231.192 21.2098C229.272 14.7598 225.422 7.19981 219.652 4.99981C213.882 2.79981 205.502 3.75981 205.502 3.75981C205.502 3.75981 194.652 -2.15019 185.042 2.38981C175.432 6.92981 175.982 13.2398 175.982 13.2398C175.982 13.2398 167.192 13.2398 166.922 20.2398C166.652 27.2398 164.452 27.5198 173.372 30.2698C182.292 33.0198 189.852 34.5298 192.052 34.2498C194.252 33.9698 201.112 33.0098 201.112 33.0098H210.172C210.172 33.0098 211.272 34.6598 213.882 36.8598C216.492 39.0598 216.632 40.7098 216.632 40.7098L216.902 51.2898Z" fill="#B499E5"/>
<path d="M158.54 225.76L142.69 230.89L28.9805 222.65V227.51L142.69 236.01L175.66 223.78" stroke="#303030" stroke-width="2" stroke-linecap="round" stroke-linejoin="round"/>
<path d="M143.161 231.471L142.691 236.011" stroke="#303030" stroke-width="2" stroke-linecap="round" stroke-linejoin="round"/>
<path d="M141.291 226.69L115.431 153.85C114.931 152.45 113.651 151.47 112.171 151.35L5.06118 143.14C2.31118 142.93 0.271176 145.65 1.24118 148.23L27.9312 219" stroke="#303030" stroke-width="2" stroke-linecap="round" stroke-linejoin="round"/>
<path d="M67.0505 185.84C68.1105 186.53 68.8205 187.78 68.8205 189.21C68.8205 191.38 67.1805 193.14 65.1505 193.14C63.1205 193.14 61.4805 191.38 61.4805 189.21C61.4805 188.47 61.6705 187.79 62.0005 187.2" stroke="#303030" stroke-width="2" stroke-linecap="round" stroke-linejoin="round"/>
<path d="M185.102 217.141H236.592" stroke="#303030" stroke-width="2" stroke-linecap="round" stroke-linejoin="round"/>
<path d="M271.66 217.141H339.82" stroke="#303030" stroke-width="2" stroke-linecap="round" stroke-linejoin="round"/>
<path d="M244.281 246.02C242.981 245.29 242.151 243.97 242.031 242.48C241.491 235.82 239.791 215.07 239.401 213.41C238.931 211.43 241.611 208.75 256.531 208.75C271.451 208.75 271.211 211.2 270.281 214.81C269.511 217.79 267.631 236.14 266.991 242.41C266.841 243.86 266.011 245.17 264.731 245.87C262.691 246.98 259.161 248.36 254.191 248.36C249.221 248.36 246.191 247.09 244.281 246.01V246.02Z" stroke="#303030" stroke-width="2" stroke-linecap="round" stroke-linejoin="round"/>
<path d="M244.051 213.41C244.051 213.41 253.371 215.27 265.251 213.41" stroke="#303030" stroke-width="2" stroke-linecap="round" stroke-linejoin="round"/>
<path d="M270.62 222.65C270.62 222.65 274.57 223.2 273.99 228.56C273.41 233.92 268.75 234.5 268.75 234.5" stroke="#303030" stroke-width="2" stroke-linecap="round" stroke-linejoin="round"/>
<path d="M274.691 217.721C274.691 217.721 281.331 220.521 279.821 230.651C278.311 240.781 268.051 239.851 268.051 239.851" stroke="#303030" stroke-width="2" stroke-linecap="round" stroke-linejoin="round"/>
<path d="M239.861 226.691L194.621 224.711L156.211 253.721L214.571 258.851L239.861 236.011" stroke="#303030" stroke-width="2" stroke-linecap="round" stroke-linejoin="round"/>
<path d="M204.663 3.52026C204.663 3.52026 198.633 -1.28974 189.023 2.38026C179.413 6.05026 176.093 12.2503 176.093 12.2503C176.093 12.2503 167.613 13.9103 167.183 19.9403C166.753 25.9703 173.473 33.0503 188.943 34.6203" stroke="#303030" stroke-width="2" stroke-linecap="round" stroke-linejoin="round"/>
<path d="M179.5 24.75C179.5 24.75 190.25 33.4 206.06 32.88" stroke="#303030" stroke-width="2" stroke-linecap="round" stroke-linejoin="round"/>
<path d="M209.293 32.2607C209.293 32.2607 211.213 34.8807 213.403 36.6307C215.593 38.3807 216.553 39.0807 216.633 39.4307C216.713 39.7807 216.633 51.8407 216.633 51.8407L220.913 47.1207" stroke="#303030" stroke-width="2" stroke-linecap="round" stroke-linejoin="round"/>
<path d="M224.32 48.0799L227.82 45.7199C230.88 45.4599 234.64 45.2799 234.29 51.8399C233.94 58.3999 230.1 63.5499 224.33 65.1199" stroke="#303030" stroke-width="2" stroke-linecap="round" stroke-linejoin="round"/>
<path d="M231.05 44.0602C230.96 35.2302 230.44 16.4502 226.59 10.8602C222.74 5.27022 215.58 1.86022 208.5 4.13022" stroke="#303030" stroke-width="2" stroke-linecap="round" stroke-linejoin="round"/>
<path d="M170.41 32.9004C170.5 42.0504 171.2 56.2904 171.55 64.3304C171.9 72.3704 177.75 93.6904 192.78 93.6004C207.81 93.5104 216.98 80.7604 221.88 71.5804" stroke="#303030" stroke-width="2" stroke-linecap="round" stroke-linejoin="round"/>
<path d="M185.91 95.6103C185.91 95.6103 186.84 103.12 198.98 103.56C211.12 104 219.95 99.1003 228.08 85.8203" stroke="#303030" stroke-width="2" stroke-linecap="round" stroke-linejoin="round"/>
<path d="M226.332 68.3506V75.2506" stroke="#303030" stroke-width="2" stroke-linecap="round" stroke-linejoin="round"/>
<path d="M229.312 79.3604C229.312 79.3604 230.523 83.3803 236.553 86.3503C242.583 89.3203 259.623 97.7104 265.383 101.12C271.143 104.53 275.173 107.94 277.883 112.39C280.593 116.84 281.643 124.27 282.073 133.54C282.503 142.81 288.272 216.64 288.272 216.64" stroke="#303030" stroke-width="2" stroke-linecap="round" stroke-linejoin="round"/>
<path d="M247.832 138.52C247.832 138.52 248.482 179.42 248.882 185.27" stroke="#303030" stroke-width="2" stroke-linecap="round" stroke-linejoin="round"/>
<path d="M258.802 188.15C258.582 188.24 234.282 190.16 222.582 191.21C210.882 192.26 203.012 192.87 203.012 192.87C203.012 192.87 206.162 196.8 206.332 203.27C206.502 209.74 203.452 213.84 203.452 213.84" stroke="#303030" stroke-width="2" stroke-linecap="round" stroke-linejoin="round"/>
<path d="M219.172 196.891C219.172 196.891 222.052 199.861 221.882 206.241C221.712 212.621 219.172 214.631 219.172 214.631" stroke="#303030" stroke-width="2" stroke-linecap="round" stroke-linejoin="round"/>
<path d="M199.941 195.14C199.681 195.23 193.561 195.84 187.361 195.75C181.161 195.66 177.221 194.79 172.331 192.95C167.441 191.11 164.291 189.19 158.871 190.5C153.451 191.81 148.561 195.22 144.451 198.54C140.341 201.86 135.191 207.71 135.191 207.71" stroke="#303030" stroke-width="2" stroke-linecap="round" stroke-linejoin="round"/>
<path d="M160.619 196.891C153.799 200.041 150.749 200.651 146.639 204.841C142.529 209.031 140.169 212.011 139.209 213.051C138.249 214.091 137.109 216.981 138.419 218.901C139.729 220.821 142.439 220.121 144.099 219.421" stroke="#303030" stroke-width="2" stroke-linecap="round" stroke-linejoin="round"/>
<path d="M168.31 202.391C161.14 203.881 157.74 204.951 152.93 208.521C148.12 212.091 145.85 214.891 144.98 215.671C144.11 216.451 143.15 217.591 144.98 219.691C146.81 221.791 148.37 221.441 151.44 219.691C154.51 217.941 155.21 217.071 157.83 215.321C160.45 213.571 166.13 210.541 173.82 208.951" stroke="#303030" stroke-width="2" stroke-linecap="round" stroke-linejoin="round"/>
<path d="M173.819 209.471C173.209 209.561 169.359 213.231 166.309 214.631C163.259 216.031 160.719 217.081 159.489 217.861C158.259 218.641 156.959 219.691 157.919 221.621C158.879 223.551 160.719 223.111 164.909 222.141C169.099 221.171 181.769 214.631 181.769 214.631" stroke="#303030" stroke-width="2" stroke-linecap="round" stroke-linejoin="round"/>
<path d="M185.352 217.94H239.532" stroke="#303030" stroke-width="2" stroke-linecap="round" stroke-linejoin="round"/>
<path d="M270.633 217.42H343.163" stroke="#303030" stroke-width="2" stroke-linecap="round" stroke-linejoin="round"/>
<path d="M185.91 75.8701C185.91 75.8701 187.45 78.3201 191.47 78.3201C195.49 78.3201 198.46 75.8701 198.46 75.8701" stroke="#303030" stroke-width="2" stroke-linecap="round" stroke-linejoin="round"/>
<path d="M190.51 53.2402C190.07 60.1402 185.91 63.9002 185.91 63.9002L189.72 68.3602" stroke="#303030" stroke-width="2" stroke-linecap="round" stroke-linejoin="round"/>
<path d="M202.591 50.6604C203.088 50.6604 203.491 50.2574 203.491 49.7603C203.491 49.2633 203.088 48.8604 202.591 48.8604C202.094 48.8604 201.691 49.2633 201.691 49.7603C201.691 50.2574 202.094 50.6604 202.591 50.6604Z" stroke="#303030" stroke-width="2" stroke-linecap="round" stroke-linejoin="round"/>
<path d="M182.532 50.6607C183.195 50.6607 183.732 50.1235 183.732 49.4607C183.732 48.798 183.195 48.2607 182.532 48.2607C181.869 48.2607 181.332 48.798 181.332 49.4607C181.332 50.1235 181.869 50.6607 182.532 50.6607Z" stroke="#303030" stroke-width="2" stroke-linecap="round" stroke-linejoin="round"/>
<path d="M163.16 132.92C164.3 141.05 166.83 152.23 168.49 163.85C170.15 175.47 173.03 188.67 173.03 188.67" stroke="#303030" stroke-width="2" stroke-linecap="round" stroke-linejoin="round"/>
<path d="M165.431 171.2C165.171 171.37 151.891 189.49 151.891 189.49" stroke="#303030" stroke-width="2" stroke-linecap="round" stroke-linejoin="round"/>
<path d="M154.512 144.461L163.162 156.431" stroke="#303030" stroke-width="2" stroke-linecap="round" stroke-linejoin="round"/>
<path d="M179.85 94.04C174.87 95.61 170.06 97.1 166.48 98.5C162.9 99.9 158.77 102.64 156.08 107.5C153.23 112.65 139.21 141.53 139.48 141.23" stroke="#303030" stroke-width="2" stroke-linecap="round" stroke-linejoin="round"/>
<path d="M141.84 174.52L134.32 132.92" stroke="#303030" stroke-width="2" stroke-linecap="round" stroke-linejoin="round"/>
<path d="M106.621 136.42C106.621 136.42 108.111 138.6 117.371 137.73C126.631 136.86 130.561 134.5 130.561 134.5" stroke="#303030" stroke-width="2" stroke-linecap="round" stroke-linejoin="round"/>
<path d="M102.523 135.631L103.213 148.001" stroke="#303030" stroke-width="2" stroke-linecap="round" stroke-linejoin="round"/>
<path d="M106.623 133.711C106.623 133.711 97.3626 81.4608 96.6626 78.3108C95.9626 75.1608 94.5626 70.9708 97.3626 70.1008C100.163 69.2308 101.993 70.4508 103.213 73.8608C104.433 77.2708 107.143 90.7208 107.143 90.7208" stroke="#303030" stroke-width="2" stroke-linecap="round" stroke-linejoin="round"/>
<path d="M114.841 86.3502C114.841 86.3502 109.951 66.8602 109.511 64.0702C109.071 61.2802 105.051 59.6102 103.741 60.3602C102.431 61.1102 101.021 63.0302 101.421 65.1202C101.821 67.2102 102.521 70.8902 102.521 70.8902" stroke="#303030" stroke-width="2" stroke-linecap="round" stroke-linejoin="round"/>
<path d="M108.89 61.19C108.18 57.75 108.72 56.21 110.81 55.38C112.9 54.55 115.44 56.65 116.05 58.49C116.66 60.33 122.87 83.04 122.87 83.04C122.87 83.04 127.76 79.98 129.07 79.37C130.38 78.76 133.7 77.97 135.71 80.16C137.72 82.35 140.78 88.64 141.83 89.86C142.88 91.08 142 94.49 140.69 95.19C139.38 95.89 137.28 96.15 135.88 94.05C134.48 91.95 131.86 87.93 131.86 88.2C131.86 88.47 127.14 91.52 126.01 93.09C124.88 94.66 123.04 98.25 124.52 100.6C126 102.95 127.75 105.06 129.06 105.93C130.37 106.8 131.16 106.1 132.82 104.79C134.48 103.48 135.53 101.21 137.45 99.29C139.37 97.37 141.56 95.71 143.92 97.02C146.28 98.33 146.89 99.28 145.49 101.78C144.09 104.28 141.99 107.33 140.51 109.34C139.03 111.35 138.5 116.16 135.18 119.48C131.86 122.8 129.15 124.98 119.1 124.02" stroke="#303030" stroke-width="2" stroke-linecap="round" stroke-linejoin="round"/>
<path d="M74.3828 53.2402L79.6228 55.3702" stroke="#303030" stroke-width="2" stroke-linecap="round" stroke-linejoin="round"/>
<path d="M78.9219 44.0605L84.8619 49.7605" stroke="#303030" stroke-width="2" stroke-linecap="round" stroke-linejoin="round"/>
<path d="M87.3125 38.2109L89.4125 45.6309" stroke="#303030" stroke-width="2" stroke-linecap="round" stroke-linejoin="round"/>
</g>
<defs>
<clipPath id="clip0_442_2076">
<rect width="344.16" height="259.85" fill="white"/>
</clipPath>
</defs>
</svg>
