<svg width="134" height="265" viewBox="0 0 134 265" fill="none" xmlns="http://www.w3.org/2000/svg">
<path d="M133.815 107.554C133.815 144.284 67.3331 264.482 67.3331 264.482C67.3331 264.482 0.851562 144.284 0.851562 107.554C0.851562 70.824 30.6184 41.0449 67.3331 41.0449C104.048 41.0449 133.815 70.824 133.815 107.554Z" fill="#96A6E9"/>
<path d="M67.3333 160.705C97.6557 160.705 122.237 136.114 122.237 105.779C122.237 75.4438 97.6557 50.8525 67.3333 50.8525C37.0109 50.8525 12.4297 75.4438 12.4297 105.779C12.4297 136.114 37.0109 160.705 67.3333 160.705Z" fill="#F0EBFA"/>
<path d="M67.3318 157.315C95.7829 157.315 118.847 134.242 118.847 105.779C118.847 77.3159 95.7829 54.2422 67.3318 54.2422C38.8806 54.2422 15.8164 77.3159 15.8164 105.779C15.8164 134.242 38.8806 157.315 67.3318 157.315Z" fill="white"/>
<g clip-path="url(#clip0_442_901)">
<path d="M51.9531 101.589V77.8604H79.5247L92.7791 91.0242V132.321H51.9531V127.112" stroke="#B499E5" stroke-width="2" stroke-linecap="round" stroke-linejoin="round"/>
<path d="M57.918 84.4111H78.8562" stroke="#B499E5" stroke-width="2" stroke-linecap="round" stroke-linejoin="round"/>
<path d="M57.918 92.8291H87.1631" stroke="#B499E5" stroke-width="2" stroke-linecap="round" stroke-linejoin="round"/>
<path d="M74.1133 100.845H87.4288" stroke="#B499E5" stroke-width="2" stroke-linecap="round" stroke-linejoin="round"/>
<path d="M78.2539 109.201H87.6236" stroke="#B499E5" stroke-width="2" stroke-linecap="round" stroke-linejoin="round"/>
<path d="M78.6602 117.558H87.358" stroke="#B499E5" stroke-width="2" stroke-linecap="round" stroke-linejoin="round"/>
<path d="M75.8477 126.051H87.4285" stroke="#B499E5" stroke-width="2" stroke-linecap="round" stroke-linejoin="round"/>
<path d="M60.7227 129.783C69.1493 129.783 75.9805 122.961 75.9805 114.545C75.9805 106.13 69.1493 99.3076 60.7227 99.3076C52.296 99.3076 45.4648 106.13 45.4648 114.545C45.4648 122.961 52.296 129.783 60.7227 129.783Z" stroke="#B499E5" stroke-width="2" stroke-linecap="round" stroke-linejoin="round"/>
<path d="M53.9688 112.412L58.3787 119.293L68.4814 107.605" stroke="#B499E5" stroke-width="2" stroke-linecap="round" stroke-linejoin="round"/>
<path d="M47.7389 126.916C48.4719 127.648 48.4719 128.783 47.7389 129.527L41.3866 135.871C40.6536 136.603 39.5176 136.603 38.7724 135.871C38.0394 135.139 38.0394 134.004 38.7724 133.26L45.1247 126.916C45.8577 126.184 46.9938 126.184 47.7389 126.916Z" stroke="#B499E5" stroke-width="2" stroke-linecap="round" stroke-linejoin="round"/>
<path d="M49.5463 125.111L47.7383 126.917" stroke="#B499E5" stroke-width="2" stroke-linecap="round" stroke-linejoin="round"/>
</g>
<path d="M19.744 12.8646H32.704V14.4966H19.744V12.8646ZM27.64 13.8006C28.888 16.1286 31.24 18.6966 33.304 19.9446C32.896 20.2806 32.32 20.8806 32.032 21.3366C29.992 19.8006 27.64 16.9206 26.32 14.3046L27.64 13.8006ZM22.264 6.88862V9.38462H30.28V6.88862H22.264ZM22.264 2.97662V5.42462H30.28V2.97662H22.264ZM20.632 1.48862H31.984V10.8726H20.632V1.48862ZM24.904 13.6806L26.272 14.1846C24.952 17.1126 22.528 20.0166 20.152 21.4806C19.888 21.0726 19.336 20.4486 18.952 20.1126C21.28 18.8646 23.68 16.2486 24.904 13.6806ZM25.432 2.25662H27.016V10.1526H27.112V22.5606H25.36V10.1526H25.432V2.25662ZM11.992 7.75262H18.808V9.19262H11.992V7.75262ZM12.088 1.34462H18.712V2.78462H12.088V1.34462ZM11.992 10.9686H18.808V12.4086H11.992V10.9686ZM10.912 4.48862H19.432V5.97662H10.912V4.48862ZM12.784 14.2086H18.808V21.2166H12.784V19.7046H17.248V15.6966H12.784V14.2086ZM11.968 14.2086H13.504V22.3206H11.968V14.2086ZM38.128 5.88062V7.70462H42.808V5.88062H38.128ZM38.128 2.80862V4.60862H42.808V2.80862H38.128ZM36.52 1.51262H44.488V9.04862H36.52V1.51262ZM35.08 10.8246H45.904V12.2166H35.08V10.8246ZM45.76 1.68062H56.704V3.02462H45.76V1.68062ZM39.88 11.2566H41.416V20.4006L39.88 19.4406V11.2566ZM40.696 14.8086H45.496V16.1766H40.696V14.8086ZM50.512 2.01662L52.216 2.35262C51.76 3.57662 51.28 4.94462 50.848 5.83262L49.504 5.52062C49.888 4.53662 50.296 3.04862 50.512 2.01662ZM48.328 9.28862V11.0886H54.064V9.28862H48.328ZM48.328 12.3366V14.1846H54.064V12.3366H48.328ZM48.328 6.21662V7.99262H54.064V6.21662H48.328ZM46.696 4.89662H55.744V15.5046H46.696V4.89662ZM48.688 15.9366L50.224 16.3926C49.168 17.7366 47.416 19.1046 45.928 19.9206C45.664 19.6566 45.064 19.0806 44.728 18.8166C46.216 18.1206 47.776 17.0406 48.688 15.9366ZM36.76 13.5366H38.272C38.128 16.9926 37.648 20.5926 35.944 22.6326C35.704 22.2726 35.176 21.7446 34.792 21.4806C36.256 19.7286 36.64 16.4886 36.76 13.5366ZM37.888 15.8886C39.592 20.0166 43.336 20.5446 48.736 20.5446C49.816 20.5446 55.768 20.5446 57.184 20.4966C56.92 20.8806 56.632 21.5766 56.536 22.0566H48.736C42.616 22.0566 38.752 21.2646 36.76 16.2966L37.888 15.8886ZM52.048 16.5846L53.272 15.8886C54.664 16.7286 56.248 18.0726 57.04 18.9846L55.72 19.8246C54.952 18.8646 53.344 17.4726 52.048 16.5846ZM63.4 9.02462H76.6V10.7286H63.4V9.02462ZM61 1.51262H68.152V3.12062H61V1.51262ZM60.376 14.3286H79.528V15.9846H60.376V14.3286ZM67.528 1.51262H67.864L68.2 1.44062L69.4 2.01662C67.648 6.76862 63.712 10.1766 59.8 11.9286C59.56 11.5206 59.032 10.8966 58.672 10.5606C62.272 9.09662 66.064 5.78462 67.528 1.87262V1.51262ZM65.968 9.84062H67.744V13.9446C67.744 17.2806 66.976 20.6166 61.048 22.6806C60.808 22.2726 60.256 21.6006 59.872 21.2646C65.32 19.4406 65.968 16.6326 65.968 13.9206V9.84062ZM71.896 0.576624C73.576 4.92062 77.032 8.71262 81.304 10.3686C80.896 10.7526 80.344 11.4486 80.056 11.9046C75.688 9.96062 72.208 5.90462 70.312 1.03262L71.896 0.576624ZM60.664 4.92062L61.816 3.93662C62.944 4.72862 64.36 5.88062 65.056 6.62462L63.856 7.70462C63.184 6.96062 61.792 5.76062 60.664 4.92062ZM76.36 0.744624L77.752 1.70462C76.528 2.92862 74.92 4.27262 73.696 5.11262L72.592 4.24862C73.792 3.36062 75.448 1.84862 76.36 0.744624ZM79.216 3.50462L80.56 4.46462C79.24 5.71262 77.512 7.08063 76.168 7.99262L75.064 7.12862C76.384 6.21662 78.184 4.63262 79.216 3.50462ZM71.944 9.88862H73.792V19.8486C73.792 20.6166 73.936 20.7606 74.776 20.7606C75.136 20.7606 77.032 20.7606 77.512 20.7606C78.28 20.7606 78.4 20.2806 78.496 17.7126C78.904 18.0246 79.624 18.3366 80.128 18.4326C79.96 21.5286 79.456 22.3926 77.68 22.3926C77.224 22.3926 74.944 22.3926 74.512 22.3926C72.472 22.3926 71.944 21.8406 71.944 19.8486V9.88862ZM88.168 6.93662V9.40862H99.808V6.93662H88.168ZM88.168 10.9206V13.4166H99.808V10.9206H88.168ZM88.168 2.95262V5.40062H99.808V2.95262H88.168ZM86.416 1.34462H101.632V15.0486H86.416V1.34462ZM95.536 13.8726H97.36V19.8486C97.36 20.5446 97.552 20.6646 98.584 20.6646C99.088 20.6646 101.512 20.6646 102.16 20.6646C103.144 20.6646 103.312 20.2566 103.408 17.2566C103.792 17.5926 104.584 17.8806 105.088 18.0006C104.872 21.5046 104.344 22.3926 102.304 22.3926C101.8 22.3926 98.896 22.3926 98.416 22.3926C96.136 22.3926 95.536 21.8406 95.536 19.8486V13.8726ZM89.752 14.3766H91.696C91.192 18.6486 89.752 21.2646 83.968 22.5846C83.8 22.1286 83.296 21.3846 82.936 21.0006C88.216 19.9446 89.344 17.8806 89.752 14.3766Z" fill="#303030"/>
<defs>
<clipPath id="clip0_442_901">
<rect width="57" height="61" fill="white" transform="translate(37 76.6406)"/>
</clipPath>
</defs>
</svg>
