<svg width="107" height="216" viewBox="0 0 107 216" fill="none" xmlns="http://www.w3.org/2000/svg">
<path d="M106.015 90.6268C106.015 119.791 53.2281 215.227 53.2281 215.227C53.2281 215.227 0.441406 119.791 0.441406 90.6268C0.441406 61.463 24.0763 37.8184 53.2281 37.8184C82.38 37.8184 106.015 61.463 106.015 90.6268Z" fill="#B699E5"/>
<path d="M53.2324 132.829C77.3074 132.829 96.8241 113.304 96.8241 89.2191C96.8241 65.1341 77.3074 45.6094 53.2324 45.6094C29.1573 45.6094 9.64062 65.1341 9.64062 89.2191C9.64062 113.304 29.1573 132.829 53.2324 132.829Z" fill="#F0EBFA"/>
<path d="M53.2333 130.137C75.8224 130.137 94.1345 111.817 94.1345 89.2189C94.1345 66.6204 75.8224 48.3008 53.2333 48.3008C30.6441 48.3008 12.332 66.6204 12.332 89.2189C12.332 111.817 30.6441 130.137 53.2333 130.137Z" fill="white"/>
<g clip-path="url(#clip0_442_909)">
<path d="M83.1128 76.9321H81.476C81.0668 76.9201 80.7072 76.6662 80.5832 76.2914L79.6408 74.0427C79.4796 73.7042 79.5416 73.2931 79.802 73.015L80.9552 71.8907C81.228 71.6247 81.228 71.2016 80.9552 70.9356L79.616 69.6299C79.3432 69.376 78.9092 69.376 78.6364 69.6299L77.4708 70.7663C77.1856 71.0202 76.7764 71.0807 76.4168 70.9235L74.098 70.0047C73.726 69.8596 73.478 69.5211 73.4408 69.1342V67.5384C73.4408 67.1636 73.1308 66.8613 72.7464 66.8613H70.8616C70.4896 66.8613 70.1796 67.1515 70.1672 67.5142C70.1672 67.5142 70.1672 67.5263 70.1672 67.5384V69.1342C70.13 69.5211 69.882 69.8596 69.51 70.0047L67.1912 70.9235C66.844 71.0807 66.4224 71.0202 66.1372 70.7663L64.9716 69.6299C64.6988 69.376 64.2648 69.376 63.992 69.6299L62.6528 70.9356C62.38 71.2016 62.38 71.6247 62.6528 71.8907L63.806 73.015C64.0664 73.2931 64.1284 73.7042 63.9672 74.0427L63.0248 76.2914C62.9008 76.6662 62.5412 76.9201 62.1444 76.9321H60.4952C60.1108 76.9321 59.8008 77.2344 59.8008 77.6092V79.4589C59.8008 79.8337 60.1108 80.1359 60.4952 80.1359H62.1444C62.5536 80.148 62.9008 80.4019 63.0248 80.7767L63.9672 83.0254C64.1284 83.3639 64.0664 83.775 63.806 84.053L62.6528 85.1895C62.38 85.4434 62.38 85.8665 62.6528 86.1325L63.992 87.4382C64.2648 87.6921 64.6988 87.6921 64.9716 87.4382L66.1372 86.3017C66.4224 86.0479 66.8316 85.9874 67.1912 86.1446L69.51 87.0634C69.882 87.2085 70.1424 87.547 70.1672 87.9339V89.5297C70.1672 89.8924 70.4648 90.1947 70.8368 90.2068C70.8368 90.2068 70.8492 90.2068 70.8616 90.2068H72.6968C73.0812 90.2068 73.3912 89.9166 73.4036 89.5418V87.946C73.4284 87.5591 73.6888 87.2206 74.0608 87.0755L76.3796 86.1567C76.7268 85.9995 77.1484 86.0599 77.4336 86.3138L78.5992 87.4503C78.872 87.7042 79.306 87.7042 79.5788 87.4503L80.918 86.1446C81.1908 85.8907 81.1908 85.4675 80.918 85.2016L79.7524 84.0651C79.5044 83.7871 79.4424 83.376 79.6036 83.0375L80.546 80.7888C80.6824 80.414 81.0296 80.1601 81.4388 80.148H83.0756C83.46 80.148 83.77 79.8458 83.77 79.471V77.6213C83.77 77.2707 83.4972 76.9684 83.1252 76.9442L83.1128 76.9321Z" stroke="#B499E5" stroke-width="2" stroke-linecap="round" stroke-linejoin="round"/>
<path d="M60.9051 92.5511H58.3135C57.6811 92.5269 57.1231 92.1158 56.9123 91.5234L55.4243 87.9932C55.1391 87.4371 55.2383 86.7721 55.6723 86.3248L57.4951 84.5476C57.9167 84.1607 57.9415 83.5079 57.5447 83.0968C57.5323 83.0847 57.5075 83.0605 57.4951 83.0485L55.3871 80.9932C54.9903 80.5821 54.3207 80.558 53.8991 80.9448C53.8867 80.9569 53.8619 80.9811 53.8495 80.9932L52.0143 82.7825C51.5431 83.1935 50.8611 83.2903 50.2907 83.0243L46.6699 81.5735C46.0623 81.3801 45.6531 80.836 45.6159 80.2194V77.6927C45.6159 77.1245 45.1447 76.665 44.5619 76.665H41.5983C41.0155 76.665 40.5443 77.1245 40.5443 77.6927V80.2194C40.5071 80.836 40.0979 81.368 39.4903 81.5735L35.8571 83.0364C35.2867 83.3144 34.6047 83.2177 34.1459 82.7946L32.3107 81.0053C31.9139 80.5942 31.2443 80.57 30.8227 80.9569C30.8103 80.969 30.7855 80.9932 30.7731 81.0053L28.6651 83.0605C28.2435 83.4474 28.2187 84.1003 28.6155 84.5113C28.6279 84.5234 28.6527 84.5476 28.6651 84.5597L30.5003 86.3369C30.9343 86.7963 31.0211 87.4612 30.7483 88.0053L29.2355 91.5839C29.0247 92.1763 28.4791 92.5752 27.8343 92.6115H25.2923C24.7095 92.6115 24.2383 93.0709 24.2383 93.6391V96.5286C24.2383 97.0968 24.7095 97.5562 25.2923 97.5562H27.8839C28.5287 97.5804 29.0867 97.9915 29.2851 98.5839L30.7731 102.102C31.0583 102.658 30.9591 103.323 30.5251 103.77L28.6899 105.56C28.2683 105.947 28.2435 106.599 28.6403 107.01C28.6527 107.023 28.6775 107.047 28.6899 107.059L30.7979 109.114C31.1947 109.525 31.8643 109.549 32.2859 109.162C32.2983 109.15 32.3231 109.126 32.3355 109.114L34.1707 107.337C34.6419 106.914 35.3239 106.829 35.8819 107.095L39.5027 108.546C40.1103 108.751 40.5195 109.283 40.5567 109.912V112.427C40.5567 112.995 41.0279 113.454 41.6107 113.454H44.5743C45.1571 113.454 45.6283 112.995 45.6283 112.427V109.912C45.6531 109.283 46.0747 108.751 46.6823 108.546L50.3031 107.095C50.8735 106.817 51.5555 106.914 52.0267 107.337L53.8619 109.126C54.2587 109.537 54.9283 109.561 55.3499 109.175C55.3623 109.162 55.3871 109.138 55.3995 109.126L57.5075 107.071C57.9291 106.684 57.9539 106.031 57.5571 105.62C57.5447 105.608 57.5199 105.584 57.5075 105.572L55.6723 103.782C55.2507 103.323 55.1639 102.658 55.4367 102.114L56.9247 98.596C57.1231 98.0036 57.6811 97.5925 58.3259 97.5683H60.9175C61.5003 97.5683 61.9715 97.1089 61.9715 96.5407V93.6391C62.0087 93.0709 61.5623 92.5873 60.9919 92.5511C60.9919 92.5511 60.9795 92.5511 60.9671 92.5511H60.9051Z" stroke="#B499E5" stroke-width="2" stroke-linecap="round" stroke-linejoin="round"/>
<path d="M71.7671 81.4665C70.1055 81.4665 68.7539 80.1487 68.7539 78.5286C68.7539 76.9086 70.1055 75.5908 71.7671 75.5908C73.4287 75.5908 74.7803 76.9086 74.7803 78.5286C74.7803 80.1487 73.4287 81.4665 71.7671 81.4665Z" stroke="#B499E5" stroke-width="2" stroke-linecap="round" stroke-linejoin="round"/>
<path d="M43.0987 99.649C40.4947 99.649 38.3867 97.5816 38.3867 95.0307C38.3867 92.4918 40.5071 90.4365 43.1235 90.4365C45.7275 90.4365 47.8355 92.5039 47.8355 95.0427C47.8355 97.5816 45.7275 99.649 43.1111 99.649H43.0987Z" stroke="#B499E5" stroke-width="2" stroke-linecap="round" stroke-linejoin="round"/>
</g>
<path d="M4.272 20.6406L0.624 7.60862H2.856L4.824 15.1686C5.088 16.4166 5.328 17.5686 5.568 18.7926H5.688C5.976 17.5686 6.24 16.3926 6.576 15.1686L8.592 7.60862H10.728L12.792 15.1686C13.104 16.4166 13.392 17.5686 13.704 18.7926H13.8C14.064 17.5686 14.304 16.4166 14.616 15.1686L16.512 7.60862H18.6L15.096 20.6406H12.432L10.536 13.6326C10.2 12.3846 9.96 11.2086 9.648 9.86462H9.528C9.264 11.2086 9 12.4086 8.64 13.6566L6.816 20.6406H4.272ZM26.5421 20.9766C23.0621 20.9766 20.3021 18.4326 20.3021 14.1606C20.3021 9.91262 23.1581 7.29662 26.1581 7.29662C29.4701 7.29662 31.3421 9.67262 31.3421 13.4166C31.3421 13.8726 31.3181 14.3286 31.2461 14.6646H22.4621C22.6301 17.4246 24.3101 19.2246 26.8061 19.2246C28.0541 19.2246 29.0861 18.8166 30.0461 18.1686L30.8381 19.6326C29.6861 20.3766 28.3181 20.9766 26.5421 20.9766ZM22.4381 13.0806H29.4221C29.4221 10.4646 28.2461 9.04862 26.1821 9.04862C24.3581 9.04862 22.7261 10.5126 22.4381 13.0806ZM40.2872 20.9766C39.0872 20.9766 37.7192 20.3526 36.5912 19.2966H36.5192L36.3032 20.6406H34.5752V1.56062H36.7592V6.76862L36.6632 9.12062C37.8632 8.08862 39.3032 7.29662 40.7672 7.29662C44.1272 7.29662 45.9512 9.91262 45.9512 13.9206C45.9512 18.3846 43.2872 20.9766 40.2872 20.9766ZM39.9512 19.1286C42.0872 19.1286 43.6952 17.1846 43.6952 13.9686C43.6952 11.0646 42.7112 9.12062 40.2392 9.12062C39.1352 9.12062 37.9832 9.74462 36.7592 10.9206V17.7846C37.8872 18.7686 39.0872 19.1286 39.9512 19.1286ZM63.4271 2.68862H65.1071V15.9846H63.4271V2.68862ZM67.6991 0.744624H69.4511V20.0646C69.4511 21.2646 69.1631 21.7926 68.4191 22.1286C67.6991 22.4406 66.3791 22.4886 64.6031 22.4886C64.5071 21.9606 64.2431 21.1446 64.0031 20.5686C65.4191 20.6166 66.7631 20.6166 67.1951 20.6166C67.5791 20.5926 67.6991 20.4966 67.6991 20.0886V0.744624ZM54.1391 0.576624H55.8431V22.5606H54.1391V0.576624ZM59.1791 12.2166H60.8351V18.8166C60.8351 19.6326 60.7151 20.0886 60.1151 20.3766C59.5391 20.6646 58.6271 20.6886 57.2831 20.6646C57.2351 20.2086 57.0191 19.5606 56.7791 19.1046C57.8111 19.1286 58.5791 19.1286 58.8671 19.1046C59.1071 19.1046 59.1791 19.0326 59.1791 18.7926V12.2166ZM49.3631 12.2166H59.8511V13.8486H50.9951V20.5926H49.3631V12.2166ZM48.2591 8.13662H61.6991V9.79262H48.2591V8.13662ZM50.5871 3.96062H60.7391V5.61662H50.2511L50.5871 3.96062ZM50.6111 1.05662L52.2911 1.39262C51.7151 3.88862 50.7791 6.43262 49.7711 8.06462C49.4111 7.87262 48.6191 7.56062 48.1871 7.41663C49.2671 5.78462 50.1071 3.38462 50.6111 1.05662ZM82.8911 4.51262H94.2671V6.24062H82.0511L82.8911 4.51262ZM85.8911 9.72062H93.7151V11.3766H85.8911V9.72062ZM85.8671 15.0006H94.0511V16.7046H85.8671V15.0006ZM84.9791 5.06462H86.8271V22.5606H84.9791V5.06462ZM83.8031 0.768623L85.5551 1.22462C84.1871 5.04062 82.0991 8.80862 79.8911 11.2806C79.6271 10.9686 78.9071 10.3206 78.4991 10.0326C80.6831 7.80062 82.6271 4.29662 83.8031 0.768623ZM78.0431 0.576624L79.7711 1.12862C78.1871 5.18462 75.7151 9.28862 73.0991 11.9766C72.9311 11.5446 72.3791 10.5846 72.0431 10.1526C74.4431 7.82462 76.6751 4.22462 78.0431 0.576624ZM75.4751 6.76862L77.2511 4.96862L77.2991 4.99262V22.5366H75.4751V6.76862Z" fill="#303030"/>
<defs>
<clipPath id="clip0_442_909">
<rect width="62" height="49" fill="white" transform="translate(23 65.6406)"/>
</clipPath>
</defs>
</svg>
