<svg width="96" height="187" viewBox="0 0 96 187" fill="none" xmlns="http://www.w3.org/2000/svg">
<path d="M89.965 82.9595C89.965 107.166 46.1485 186.388 46.1485 186.388C46.1485 186.388 2.33203 107.166 2.33203 82.9595C2.33203 58.7529 21.946 39.125 46.1485 39.125C70.351 39.125 89.965 58.747 89.965 82.9595Z" fill="#C499E5"/>
<path d="M46.1533 117.992C66.1397 117.992 82.3418 101.783 82.3418 81.7883C82.3418 61.7938 66.1397 45.585 46.1533 45.585C26.167 45.585 9.96484 61.7938 9.96484 81.7883C9.96484 101.783 26.167 117.992 46.1533 117.992Z" fill="#F0EBFA"/>
<path d="M46.1526 115.756C64.9045 115.756 80.1059 100.548 80.1059 81.7886C80.1059 63.029 64.9045 47.8213 46.1526 47.8213C27.4007 47.8213 12.1992 63.029 12.1992 81.7886C12.1992 100.548 27.4007 115.756 46.1526 115.756Z" fill="white"/>
<g clip-path="url(#clip0_442_913)">
<path d="M54.6598 67.2852H58.8684C60.6467 67.2852 62.154 68.7216 62.154 70.4856V98.5416C62.154 100.306 60.706 101.801 58.8684 101.801H34.074C32.2957 101.801 30.8477 100.364 30.8477 98.5416V70.4856C30.8477 68.7216 32.2957 67.2852 34.074 67.2852H38.5451" stroke="#B499E5" stroke-width="2" stroke-linecap="round" stroke-linejoin="round"/>
<path d="M35.6523 77.3311L38.0234 79.6831L41.9695 75.8359" stroke="#B499E5" stroke-width="2" stroke-linecap="round" stroke-linejoin="round"/>
<path d="M35.6523 85.421L38.0234 87.8402L41.9695 83.9258" stroke="#B499E5" stroke-width="2" stroke-linecap="round" stroke-linejoin="round"/>
<path d="M35.6523 93.5761L38.0234 95.9281L41.9695 92.0137" stroke="#B499E5" stroke-width="2" stroke-linecap="round" stroke-linejoin="round"/>
<path d="M45.1836 78.835H56.3699" stroke="#B499E5" stroke-width="2" stroke-linecap="round" stroke-linejoin="round"/>
<path d="M45.1836 86.5381H56.3699" stroke="#B499E5" stroke-width="2" stroke-linecap="round" stroke-linejoin="round"/>
<path d="M45.1836 94.2324H56.3699" stroke="#B499E5" stroke-width="2" stroke-linecap="round" stroke-linejoin="round"/>
<path d="M50.383 65.3277C50.383 63.1773 48.6047 61.4805 46.5046 61.4805C44.4045 61.4805 42.6262 63.2445 42.6262 65.3277H39.0781V71.3337H54.0073V65.3277H50.3914H50.383Z" stroke="#B499E5" stroke-width="2" stroke-linecap="round" stroke-linejoin="round"/>
</g>
<path d="M9.744 12.8646H22.704V14.4966H9.744V12.8646ZM17.64 13.8006C18.888 16.1286 21.24 18.6966 23.304 19.9446C22.896 20.2806 22.32 20.8806 22.032 21.3366C19.992 19.8006 17.64 16.9206 16.32 14.3046L17.64 13.8006ZM12.264 6.88862V9.38462H20.28V6.88862H12.264ZM12.264 2.97662V5.42462H20.28V2.97662H12.264ZM10.632 1.48862H21.984V10.8726H10.632V1.48862ZM14.904 13.6806L16.272 14.1846C14.952 17.1126 12.528 20.0166 10.152 21.4806C9.888 21.0726 9.336 20.4486 8.952 20.1126C11.28 18.8646 13.68 16.2486 14.904 13.6806ZM15.432 2.25662H17.016V10.1526H17.112V22.5606H15.36V10.1526H15.432V2.25662ZM1.992 7.75262H8.808V9.19262H1.992V7.75262ZM2.088 1.34462H8.712V2.78462H2.088V1.34462ZM1.992 10.9686H8.808V12.4086H1.992V10.9686ZM0.912 4.48862H9.432V5.97662H0.912V4.48862ZM2.784 14.2086H8.808V21.2166H2.784V19.7046H7.248V15.6966H2.784V14.2086ZM1.968 14.2086H3.504V22.3206H1.968V14.2086ZM28.128 5.88062V7.70462H32.808V5.88062H28.128ZM28.128 2.80862V4.60862H32.808V2.80862H28.128ZM26.52 1.51262H34.488V9.04862H26.52V1.51262ZM25.08 10.8246H35.904V12.2166H25.08V10.8246ZM35.76 1.68062H46.704V3.02462H35.76V1.68062ZM29.88 11.2566H31.416V20.4006L29.88 19.4406V11.2566ZM30.696 14.8086H35.496V16.1766H30.696V14.8086ZM40.512 2.01662L42.216 2.35262C41.76 3.57662 41.28 4.94462 40.848 5.83262L39.504 5.52062C39.888 4.53662 40.296 3.04862 40.512 2.01662ZM38.328 9.28862V11.0886H44.064V9.28862H38.328ZM38.328 12.3366V14.1846H44.064V12.3366H38.328ZM38.328 6.21662V7.99262H44.064V6.21662H38.328ZM36.696 4.89662H45.744V15.5046H36.696V4.89662ZM38.688 15.9366L40.224 16.3926C39.168 17.7366 37.416 19.1046 35.928 19.9206C35.664 19.6566 35.064 19.0806 34.728 18.8166C36.216 18.1206 37.776 17.0406 38.688 15.9366ZM26.76 13.5366H28.272C28.128 16.9926 27.648 20.5926 25.944 22.6326C25.704 22.2726 25.176 21.7446 24.792 21.4806C26.256 19.7286 26.64 16.4886 26.76 13.5366ZM27.888 15.8886C29.592 20.0166 33.336 20.5446 38.736 20.5446C39.816 20.5446 45.768 20.5446 47.184 20.4966C46.92 20.8806 46.632 21.5766 46.536 22.0566H38.736C32.616 22.0566 28.752 21.2646 26.76 16.2966L27.888 15.8886ZM42.048 16.5846L43.272 15.8886C44.664 16.7286 46.248 18.0726 47.04 18.9846L45.72 19.8246C44.952 18.8646 43.344 17.4726 42.048 16.5846ZM51.312 6.57662H58.248V7.99262H51.312V6.57662ZM51.312 10.6566H58.248V12.0246H51.312V10.6566ZM51.312 14.8326H58.248V16.2486H51.312V14.8326ZM61.536 11.8566H70.68V13.4166H61.536V11.8566ZM52.56 2.64062H56.544V4.05662H52.56V2.64062ZM60 1.70462H69.384V3.24062H60V1.70462ZM59.712 16.3446H71.088V17.9526H59.712V16.3446ZM64.776 9.38462H66.504V22.4646H64.776V9.38462ZM54.288 7.27262H55.584V15.4326H54.288V7.27262ZM68.808 1.70462H70.44C70.44 1.70462 70.44 2.16062 70.416 2.37662C70.248 6.38462 70.008 7.94462 69.504 8.49662C69.168 8.90462 68.808 9.04862 68.184 9.09662C67.704 9.14462 66.696 9.14462 65.688 9.09662C65.664 8.61662 65.496 7.99262 65.28 7.58462C66.24 7.68062 67.104 7.68062 67.44 7.68062C67.776 7.70462 67.992 7.65662 68.136 7.46462C68.448 7.10462 68.64 5.71262 68.808 1.94462V1.70462ZM61.632 9.60062L63.192 9.91262C62.712 12.1446 61.872 14.3286 60.864 15.7686C60.552 15.5526 59.832 15.1926 59.448 15.0006C60.48 13.6566 61.224 11.6406 61.632 9.60062ZM52.512 0.480624L54.168 0.840624C53.28 4.08062 51.816 7.17662 50.112 9.21662C49.824 8.92862 49.128 8.37662 48.744 8.13662C50.448 6.28862 51.792 3.43262 52.512 0.480624ZM50.616 6.57662H52.104V12.9606C52.104 15.8886 51.816 19.9446 50.112 22.6086C49.848 22.3686 49.176 21.9606 48.816 21.7926C50.448 19.2486 50.616 15.6726 50.616 12.9606V6.57662ZM57.768 6.57662H59.28V20.5926C59.28 21.4806 59.088 21.9846 58.464 22.2486C57.864 22.5126 56.88 22.5366 55.224 22.5366C55.152 22.1286 54.888 21.4326 54.672 21.0006C55.896 21.0486 56.976 21.0486 57.312 21.0246C57.624 21.0006 57.768 20.9046 57.768 20.5926V6.57662ZM63.408 2.20862H65.064C64.656 5.52062 63.624 8.25662 60.264 9.76862C60.048 9.38462 59.616 8.80862 59.256 8.54462C62.208 7.29662 63.072 4.92062 63.408 2.20862ZM56.112 2.64062H56.472L56.712 2.54462L57.768 3.24062C57.264 4.72862 56.352 6.50462 55.632 7.63262C55.344 7.39262 54.816 7.08063 54.48 6.93662C55.08 5.85662 55.752 4.12862 56.112 2.92862V2.64062ZM80.688 4.34462H93.048V12.3126H91.272V6.04862H80.688V4.34462ZM79.344 11.4726H95.04V13.2006H79.344V11.4726ZM85.416 0.528624H87.216V8.73662C87.216 13.9446 86.472 19.1526 79.68 22.6086C79.368 22.2486 78.696 21.6246 78.24 21.3366C84.744 18.1206 85.416 13.4646 85.416 8.71262V0.528624ZM88.08 12.2886C89.16 16.4646 91.512 19.6566 95.232 21.0726C94.824 21.4326 94.248 22.1286 93.984 22.6326C90.072 20.9046 87.672 17.4486 86.424 12.6966L88.08 12.2886ZM74.16 1.99262L75.168 0.696624C76.68 1.34462 78.576 2.42462 79.488 3.26462L78.456 4.72862C77.544 3.86462 75.696 2.71262 74.16 1.99262ZM72.888 8.52063L73.872 7.17662C75.408 7.75262 77.352 8.78462 78.312 9.57662L77.28 11.0646C76.344 10.2486 74.448 9.16862 72.888 8.52063ZM73.56 21.0726C74.76 19.2246 76.44 16.0326 77.688 13.2966L79.08 14.4006C77.928 16.9446 76.416 19.9686 75.12 22.2246L73.56 21.0726Z" fill="#303030"/>
<defs>
<clipPath id="clip0_442_913">
<rect width="33" height="42" fill="white" transform="translate(30 60.6406)"/>
</clipPath>
</defs>
</svg>
