<svg width="358" height="244" viewBox="0 0 358 244" fill="none" xmlns="http://www.w3.org/2000/svg">
<g clip-path="url(#clip0_442_560)">
<path opacity="0.3" d="M137.008 176.74L150.098 213.02C150.098 213.02 156.208 206.54 158.578 204.92C160.948 203.3 165.308 200.68 167.058 199.81C168.808 198.94 169.678 198.31 169.678 198.31L171.178 191.83C171.178 191.83 183.768 175.12 183.518 175.5C183.268 175.88 188.508 197.57 188.508 197.57C188.508 197.57 192.368 200.44 194.488 200.81C196.608 201.18 202.468 201.31 206.328 201.31C210.188 201.31 218.548 200.81 218.548 200.81C218.548 200.81 221.168 204.55 221.038 210.04C220.908 215.53 217.178 224.75 217.178 224.75L297.468 223.13C297.468 223.13 301.458 203.81 301.088 170.15C300.718 136.49 299.218 124.77 293.978 118.41C288.738 112.05 274.908 102.7 274.408 102.45C273.908 102.2 247.608 88.7402 247.608 88.7402C247.608 88.7402 231.278 112.8 218.188 111.55C205.098 110.3 205.848 103.45 205.848 103.45L206.218 101.21L197.868 98.5902C197.868 98.5902 184.528 103.08 180.788 105.2C177.048 107.32 174.178 109.31 171.438 114.18C168.698 119.05 137.028 176.76 137.028 176.76L137.008 176.74Z" fill="#B499E5"/>
<path d="M224.278 40.2196C223.228 39.6696 217.548 39.7196 212.808 38.9696C208.068 38.2196 210.188 40.3096 203.828 39.6396C197.468 38.9696 190.988 37.2296 186.878 34.6096C182.768 31.9896 181.518 29.3696 183.018 26.3796C184.518 23.3896 185.888 20.8896 190.128 19.7696C196.358 11.6696 198.728 10.4196 204.338 8.54961C209.948 6.67961 219.798 9.41961 219.798 9.41961C219.798 9.41961 232.388 11.4096 235.378 19.8896C238.368 28.3696 241.108 46.9396 241.108 46.9396L234.878 51.7996C234.878 51.7996 229.268 42.8196 224.278 40.2096V40.2196Z" fill="#B499E5"/>
<path d="M38.5688 55.5197C38.5688 55.5197 44.1088 53.1497 46.9288 52.0697C49.7488 50.9897 54.3788 49.8496 54.3788 49.8496C54.3788 49.8496 56.2988 50.6196 60.3188 49.1397C64.3388 47.6597 68.3588 45.0397 68.3588 45.0397C68.3588 45.0397 69.6788 49.3596 71.9288 52.2097C74.1788 55.0597 78.0388 57.2697 78.0388 57.2697C78.0388 57.2697 79.4288 51.6797 78.2188 44.3397C77.0088 36.9997 70.1088 34.3797 70.1088 34.3797C70.1088 34.3797 61.4388 25.9597 52.5788 28.9997C43.7188 32.0397 35.2488 33.6796 38.5688 55.5296V55.5197Z" fill="#B499E5"/>
<path d="M184.23 40.6699C184.49 56.4899 187.03 78.6799 189.65 86.5399C192.27 94.3999 199.09 101.31 207.56 101.22C216.03 101.13 231.68 91.6999 236.83 78.8499" stroke="#303030" stroke-width="2" stroke-linecap="round" stroke-linejoin="round"/>
<path d="M197.691 83.4004H208.091C208.091 83.4004 206.871 89.0804 202.891 88.9904C198.911 88.9004 197.691 83.4004 197.691 83.4004Z" stroke="#303030" stroke-width="2" stroke-linecap="round" stroke-linejoin="round"/>
<path d="M199.261 60.5C199.261 60.5 199.001 65.92 194.801 70.94L199.261 75.44" stroke="#303030" stroke-width="2" stroke-linecap="round" stroke-linejoin="round"/>
<path d="M210.972 59.3695C211.552 59.3695 212.022 58.8994 212.022 58.3195C212.022 57.7396 211.552 57.2695 210.972 57.2695C210.392 57.2695 209.922 57.7396 209.922 58.3195C209.922 58.8994 210.392 59.3695 210.972 59.3695Z" stroke="#303030" stroke-width="2" stroke-linecap="round" stroke-linejoin="round"/>
<path d="M192.121 58.8002C192.712 58.8002 193.191 58.3211 193.191 57.7302C193.191 57.1392 192.712 56.6602 192.121 56.6602C191.53 56.6602 191.051 57.1392 191.051 57.7302C191.051 58.3211 191.53 58.8002 192.121 58.8002Z" stroke="#303030" stroke-width="2" stroke-linecap="round" stroke-linejoin="round"/>
<path d="M181.351 72.9102C177.771 76.4902 174.801 80.7701 175.321 84.8801C175.841 88.9901 181.871 91.6102 181.871 91.6102" stroke="#303030" stroke-width="2" stroke-linecap="round" stroke-linejoin="round"/>
<path d="M185.148 96.5C186.667 96.5 187.898 95.2688 187.898 93.75C187.898 92.2312 186.667 91 185.148 91C183.63 91 182.398 92.2312 182.398 93.75C182.398 95.2688 183.63 96.5 185.148 96.5Z" stroke="#303030" stroke-width="2" stroke-linecap="round" stroke-linejoin="round"/>
<path d="M194.809 31.5C194.899 31.5 208.969 40.5 222.159 38.93" stroke="#303030" stroke-width="2" stroke-linecap="round" stroke-linejoin="round"/>
<path d="M225.039 40.6699C225.299 41.0199 231.689 44.4499 232.989 49.8399" stroke="#303030" stroke-width="2" stroke-linecap="round" stroke-linejoin="round"/>
<path d="M235.789 50.9805C235.789 50.9805 231.329 53.6905 232.209 62.9505C233.089 72.2105 241.119 73.7805 241.119 73.7805" stroke="#303030" stroke-width="2" stroke-linecap="round" stroke-linejoin="round"/>
<path d="M242.078 72.0391L242.858 81.3891" stroke="#303030" stroke-width="2" stroke-linecap="round" stroke-linejoin="round"/>
<path d="M240.681 51.5005C240.681 51.5005 236.311 53.7705 236.841 61.3705C237.371 68.9705 240.861 73.9505 246.631 74.2105C252.401 74.4705 255.801 66.7005 255.631 59.8805C255.461 53.0605 251.441 49.3105 251.441 49.3105" stroke="#303030" stroke-width="2" stroke-linecap="round" stroke-linejoin="round"/>
<path d="M249.329 46.4409C249.499 37.2709 247.759 8.87086 223.379 10.0909" stroke="#303030" stroke-width="2" stroke-linecap="round" stroke-linejoin="round"/>
<path d="M226.352 13.0605C232.902 13.5805 241.472 25.8205 241.122 46.8805" stroke="#303030" stroke-width="2" stroke-linecap="round" stroke-linejoin="round"/>
<path d="M219.971 10.0496C219.971 10.0496 211.141 5.36959 203.281 8.59959C195.421 11.8296 191.661 18.5596 191.661 18.5596C191.661 18.5596 181.351 20.9196 181.871 27.2096C182.391 33.4996 190.781 40.3196 204.411 40.6696" stroke="#303030" stroke-width="2" stroke-linecap="round" stroke-linejoin="round"/>
<path d="M194.37 100.869C193.93 100.959 184.98 104.019 181.86 105.149C178.74 106.279 172.7 110.129 170.87 114.239C169.04 118.349 141.07 173.569 141.07 173.569" stroke="#303030" stroke-width="2" stroke-linecap="round" stroke-linejoin="round"/>
<path d="M178.572 139.32C178.472 139.41 183.192 167.81 184.242 176.19C185.292 184.57 187.912 194.45 187.912 194.45" stroke="#303030" stroke-width="2" stroke-linecap="round" stroke-linejoin="round"/>
<path d="M169.73 150.85C169.82 151.2 178.12 162.3 178.12 162.3" stroke="#303030" stroke-width="2" stroke-linecap="round" stroke-linejoin="round"/>
<path d="M181 177.939C180.65 178.289 171.91 191.049 171.91 191.049" stroke="#303030" stroke-width="2" stroke-linecap="round" stroke-linejoin="round"/>
<path d="M149.02 196.82C149.02 196.82 153.39 200.75 155.22 203.72" stroke="#303030" stroke-width="2" stroke-linecap="round" stroke-linejoin="round"/>
<path d="M215.43 201.799C208.18 201.969 202.67 201.889 199.26 201.799C195.85 201.709 190.78 200.309 187.46 199.439C184.14 198.569 180.56 197.259 175.93 197.339C171.3 197.419 166.49 199.699 164.05 201.269C161.61 202.839 150.68 213.069 150.68 213.069" stroke="#303030" stroke-width="2" stroke-linecap="round" stroke-linejoin="round"/>
<path d="M176.459 203.109C171.919 204.769 166.409 206.339 162.569 210.359C158.729 214.379 155.749 218.049 154.619 219.449C153.489 220.849 151.389 223.469 153.309 225.219C155.229 226.969 158.899 225.219 158.899 225.219" stroke="#303030" stroke-width="2" stroke-linecap="round" stroke-linejoin="round"/>
<path d="M184.231 208.52C177.941 209.66 174.441 210.69 169.381 214.54C164.321 218.39 162.301 219.87 161.171 221.45C160.041 223.03 159.601 226.08 161.171 226.95C162.741 227.82 165.011 227.04 167.721 225.2C170.431 223.36 176.811 216.81 188.341 214.98" stroke="#303030" stroke-width="2" stroke-linecap="round" stroke-linejoin="round"/>
<path d="M187.899 215.6C187.729 215.69 178.639 221.45 176.019 222.94C173.399 224.43 172.179 226 173.309 228.1C174.439 230.2 176.289 230.11 180.389 228.62C184.489 227.13 196.549 220.49 196.549 220.49" stroke="#303030" stroke-width="2" stroke-linecap="round" stroke-linejoin="round"/>
<path d="M191.221 231.071L158.461 242.601L45.4813 234.911L44.7812 229.711L157.841 237.271L174.241 232.641" stroke="#303030" stroke-width="2" stroke-linecap="round" stroke-linejoin="round"/>
<path d="M157.84 237.27V242.69" stroke="#303030" stroke-width="2" stroke-linecap="round" stroke-linejoin="round"/>
<path d="M157.23 233.6L131.48 160.92C130.93 159.37 129.52 158.29 127.88 158.16L21.9001 149.96C18.8701 149.73 16.6201 152.71 17.6801 155.56L43.8101 225.99" stroke="#303030" stroke-width="2" stroke-linecap="round" stroke-linejoin="round"/>
<path d="M82.8911 192.061C83.8311 192.871 84.4511 194.231 84.4511 195.781C84.4511 198.261 82.8711 200.271 80.9111 200.271C78.9511 200.271 77.3711 198.261 77.3711 195.781C77.3711 194.971 77.5411 194.211 77.8311 193.561" stroke="#303030" stroke-width="2" stroke-linecap="round" stroke-linejoin="round"/>
<path d="M262.609 145.061C262.609 145.061 263.659 151.581 263.429 163.231C263.199 174.881 263.039 189.791 263.039 189.791" stroke="#303030" stroke-width="2" stroke-linecap="round" stroke-linejoin="round"/>
<path d="M268.9 193.76C268.55 193.76 218.57 199.35 218.57 199.35C218.57 199.35 222.07 203.43 221.83 210.07C221.59 216.71 218.57 219.74 218.57 219.74" stroke="#303030" stroke-width="2" stroke-linecap="round" stroke-linejoin="round"/>
<path d="M234.879 203.721C234.879 203.721 238.719 210.541 235.809 219.741" stroke="#303030" stroke-width="2" stroke-linecap="round" stroke-linejoin="round"/>
<path d="M200.398 223.93H356.628" stroke="#303030" stroke-width="2" stroke-linecap="round" stroke-linejoin="round"/>
<path d="M206.219 106.61C206.219 106.61 208.669 113.72 217.169 114.65C225.669 115.58 238.889 106.96 246.199 92.9805" stroke="#303030" stroke-width="2" stroke-linecap="round" stroke-linejoin="round"/>
<path d="M244.898 86.8105C245.128 87.1605 249.788 89.9806 257.128 93.7606C264.468 97.5406 276.468 103.941 283.338 108.601C290.208 113.261 293.358 116.521 296.388 122.351C299.418 128.181 300.928 134.821 301.398 144.491C301.868 154.161 300.818 180.841 301.398 188.301C301.978 195.761 300.348 205.191 299.648 210.321C298.948 215.451 297.438 222.671 297.438 222.671" stroke="#303030" stroke-width="2" stroke-linecap="round" stroke-linejoin="round"/>
<path d="M208.48 105.331V101.221" stroke="#303030" stroke-width="2" stroke-linecap="round" stroke-linejoin="round"/>
<path d="M43.0117 53.9398C43.0117 53.9398 53.3317 49.6098 57.6017 44.3398" stroke="#303030" stroke-width="2" stroke-linecap="round" stroke-linejoin="round"/>
<path d="M57.6016 49.8398C57.6016 49.8398 64.5816 46.8298 67.5716 42.5898" stroke="#303030" stroke-width="2" stroke-linecap="round" stroke-linejoin="round"/>
<path d="M69.6914 46.8691C69.6914 46.8691 70.6214 51.4991 74.1814 55.0591" stroke="#303030" stroke-width="2" stroke-linecap="round" stroke-linejoin="round"/>
<path d="M78.0517 57.2709C78.0517 57.2709 79.6717 49.5709 78.0517 43.5909C76.4317 37.6109 73.5617 34.3609 69.7017 34.3609C67.3317 27.3809 60.2317 27.8809 54.1217 28.7509C48.0117 29.6209 39.1617 32.0109 37.6617 40.6609C36.1617 49.3109 37.6617 57.7209 37.6617 57.7209C37.6617 57.7209 32.8017 58.9109 34.2917 64.4009C35.7817 69.8909 40.6517 69.7609 40.6517 69.7609C40.6517 69.7609 41.1517 72.2609 41.2717 75.4409C41.3917 78.6209 42.8917 90.2109 57.1017 90.2109C71.3117 90.2109 75.1817 76.3009 75.1817 73.9009V70.1309C75.1817 70.1309 82.2917 68.5109 82.0417 63.6509C81.7917 58.7909 78.0517 57.2609 78.0517 57.2609V57.2709Z" stroke="#303030" stroke-width="2" stroke-linecap="round" stroke-linejoin="round"/>
<path d="M50.3092 61.3606C50.7842 61.3606 51.1692 60.9756 51.1692 60.5006C51.1692 60.0257 50.7842 59.6406 50.3092 59.6406C49.8343 59.6406 49.4492 60.0257 49.4492 60.5006C49.4492 60.9756 49.8343 61.3606 50.3092 61.3606Z" stroke="#303030" stroke-width="2" stroke-linecap="round" stroke-linejoin="round"/>
<path d="M65.1295 61.3606C65.6045 61.3606 65.9895 60.9756 65.9895 60.5006C65.9895 60.0257 65.6045 59.6406 65.1295 59.6406C64.6546 59.6406 64.2695 60.0257 64.2695 60.5006C64.2695 60.9756 64.6546 61.3606 65.1295 61.3606Z" stroke="#303030" stroke-width="2" stroke-linecap="round" stroke-linejoin="round"/>
<path d="M58.4113 63.6504C57.6213 66.6204 55.5312 69.5004 55.5312 69.5004L58.4113 70.9404" stroke="#303030" stroke-width="2" stroke-linecap="round" stroke-linejoin="round"/>
<path d="M53.2483 76.0605H62.5783C62.5783 76.0605 60.7483 80.9505 57.9083 80.9505C55.0683 80.9505 53.2383 76.0605 53.2383 76.0605H53.2483Z" stroke="#303030" stroke-width="2" stroke-linecap="round" stroke-linejoin="round"/>
<path d="M103.672 58.7607C103.672 33.4707 83.1716 12.9707 57.8816 12.9707C32.5916 12.9707 12.1016 33.4707 12.1016 58.7607C12.1016 81.0507 28.0316 99.6107 49.1316 103.701L57.6116 124.121L66.4916 103.731C87.6616 99.7007 103.682 81.1107 103.682 58.7607H103.672Z" stroke="#303030" stroke-width="2" stroke-linecap="round" stroke-linejoin="round"/>
<path d="M16.6406 1L19.0906 8.69" stroke="#303030" stroke-width="2" stroke-linecap="round" stroke-linejoin="round"/>
<path d="M7.03125 6.67969L12.5312 12.1797" stroke="#303030" stroke-width="2" stroke-linecap="round" stroke-linejoin="round"/>
<path d="M1 16.8203L9.78 18.8303" stroke="#303030" stroke-width="2" stroke-linecap="round" stroke-linejoin="round"/>
</g>
<defs>
<clipPath id="clip0_442_560">
<rect width="357.63" height="243.69" fill="white"/>
</clipPath>
</defs>
</svg>
