<svg xmlns="http://www.w3.org/2000/svg" xmlns:xlink="http://www.w3.org/1999/xlink" width="60" height="60" viewBox="0 0 60 60">
  <defs>
    <linearGradient id="linear-gradient" y1="0.006" x2="1" y2="1.008" gradientUnits="objectBoundingBox">
      <stop offset="0" stop-color="#7d81ee"/>
      <stop offset="1" stop-color="#d48fdf"/>
    </linearGradient>
  </defs>
  <g id="Group_44" data-name="Group 44" transform="translate(-1302 -5137)">
    <rect id="Rectangle_29" data-name="Rectangle 29" width="60" height="60" transform="translate(1302 5137)" fill="url(#linear-gradient)"/>
    <path id="Path_39" data-name="Path 39" d="M4801.245,4572.022V4554.77l4.7,8.354" transform="translate(-3467.744 594.978)" fill="none" stroke="#000" stroke-width="1"/>
    <path id="Path_74" data-name="Path 74" d="M-18.32-5.6h-2.424V0h1.3V-1.544h1.128c1.5,0,2.432-.776,2.432-2.024S-16.824-5.6-18.32-5.6Zm-.072,3h-1.056V-4.544h1.056c.792,0,1.192.36,1.192.976S-17.6-2.6-18.392-2.6ZM-11.064,0H-9.7l-2.5-5.6h-1.28l-2.5,5.6h1.328l.5-1.2h2.6Zm-2.68-2.184.888-2.144.888,2.144Zm8.328.936a2.057,2.057,0,0,1-1.008.24A1.728,1.728,0,0,1-8.24-2.8,1.724,1.724,0,0,1-6.408-4.592,1.9,1.9,0,0,1-4.96-3.96l.832-.768A2.985,2.985,0,0,0-6.472-5.7a2.889,2.889,0,0,0-3.08,2.9A2.882,2.882,0,0,0-6.5.1,3.864,3.864,0,0,0-4.232-.616V-2.888H-5.416Zm3.672.208v-1.3h2.6V-3.344h-2.6V-4.56H1.2V-5.6H-3.032V0H1.3V-1.04ZM5.76,0h1.3V-4.544H8.848V-5.6H3.968v1.056H5.76Zm6.416.1A2.9,2.9,0,0,0,15.24-2.8a2.9,2.9,0,0,0-3.064-2.9A2.9,2.9,0,0,0,9.112-2.8,2.9,2.9,0,0,0,12.176.1Zm0-1.1A1.708,1.708,0,0,1,10.424-2.8a1.708,1.708,0,0,1,1.752-1.792A1.708,1.708,0,0,1,13.928-2.8,1.708,1.708,0,0,1,12.176-1.008ZM18.64-5.6H16.216V0h1.3V-1.544H18.64c1.5,0,2.432-.776,2.432-2.024S20.136-5.6,18.64-5.6Zm-.072,3H17.512V-4.544h1.056c.792,0,1.192.36,1.192.976S19.36-2.6,18.568-2.6Z" transform="translate(1332 5184)"/>
  </g>
</svg>
