<svg xmlns="http://www.w3.org/2000/svg" width="597.132" height="272.79" viewBox="0 0 597.132 272.79">
  <g id="Group_85" data-name="Group 85" style="mix-blend-mode: soft-light;isolation: isolate">
    <path id="Path_1" data-name="Path 1" d="M1142.329,168.081a.592.592,0,0,0-.591-.564h-23.133v-8.5H1011.967V137.424l40.11-136.167a.6.6,0,0,0-.092-.521.59.59,0,0,0-.472-.236H994.67a.573.573,0,0,0-.416.175.607.607,0,0,0-.175.416v16.9H972.6V198.135H1079.9l63.838,17.1a.622.622,0,0,0,.154.022.593.593,0,0,0,.371-.131.58.58,0,0,0,.219-.486l-2.143-46.559ZM995.26,1.681h55.465l-38.758,131.565V17.99H995.26Zm89.2,196.453h34.148V168.7h22.569l2.082,45.189-58.8-15.753Z" transform="translate(-547.346 -0.5)" fill="#fff"/>
    <path id="Path_2" data-name="Path 2" d="M175.2,215.309l57.473-106.245v32.048l-38.151,73.646a.579.579,0,0,0,.022.577.589.589,0,0,0,.5.284H244.87a.586.586,0,0,0,.577-.464l3.679-17.026h20.565V122.721h88.38V198.13h21.151l3.679,17.026a.586.586,0,0,0,.577.464H433.3a.593.593,0,0,0,.525-.862l-38.562-74.433V75.8L433.825,1.362A.58.58,0,0,0,433.8.784.589.589,0,0,0,433.3.5H383.478a.594.594,0,0,0-.577.464L379.147,17.99H358.071V83.6h-88.38V17.99H249.2L245.447.964A.59.59,0,0,0,244.87.5H195.048a.593.593,0,0,0-.525.862l38.151,73.646V107.06L175.2.811A.59.59,0,0,0,174.68.5H58.95a.59.59,0,0,0-.521.311L.567,107.778a.579.579,0,0,0,0,.56L58.43,215.3a.59.59,0,0,0,.521.311H174.68a.59.59,0,0,0,.521-.311Zm257.129-.871H383.951l-3.526-16.308h14.834V142.9l37.066,71.546ZM383.951,1.681h48.378L395.263,73.227V17.99H380.355l3.6-16.308ZM244.393,214.439H196.014l36.655-70.759v54.45h15.245l-3.526,16.308ZM196.019,1.681H244.4l3.6,16.308H232.678V72.44ZM59.3,214.439,1.757,108.062,59.3,1.686H174.33l57.543,106.377L174.33,214.439Z" transform="translate(-0.495 -0.5)" fill="#fff"/>
    <path id="Path_3" data-name="Path 3" d="M214.258,66.859a90.076,90.076,0,1,0,26.379,63.694A89.472,89.472,0,0,0,214.258,66.859Zm-83.388-4.081a64.278,64.278,0,0,0-7.209,12.651c-6.1,13.863-9.655,31.9-10.14,51.183H92.163c1.452-29.485,17.183-54.271,38.7-63.834ZM99.8,79.313a90.031,90.031,0,0,0-15.525,47.294H78.554A71.864,71.864,0,0,1,99.8,79.313ZM78.554,134.477h5.674A91.186,91.186,0,0,0,97.413,179.3,71.853,71.853,0,0,1,78.55,134.477Zm13.561,0H113.5c.367,19.725,3.942,38.2,10.162,52.342a64.436,64.436,0,0,0,7.209,12.651c-21.794-9.69-37.652-35-38.759-64.989Zm54.516,68.095c-.2-.018-.4-.022-.608-.039-5.512-2.533-10.845-9.112-15.145-18.885-5.8-13.181-9.134-30.526-9.493-49.17h25.246Zm0-75.96H121.407c.472-18.2,3.788-35.11,9.471-48.02,4.453-10.132,10.022-16.825,15.753-19.143v67.163Zm75.96,0H216.86A90.04,90.04,0,0,0,201.318,79.3a71.892,71.892,0,0,1,21.274,47.311Zm-13.622,0H188.653c-.49-19.283-4.051-37.32-10.153-51.183a65.276,65.276,0,0,0-6.671-11.934C192.542,73.539,207.547,97.835,208.969,126.611ZM154.505,59.076c6.089,1.9,12.061,8.78,16.785,19.515,5.683,12.905,9,29.817,9.48,48.02H154.505Zm1.82,143.368c-.608.053-1.212.092-1.82.122V134.481h26.287c-.359,18.644-3.7,35.99-9.5,49.17-4.261,9.672-9.523,16.212-14.965,18.8Zm15.5-3.692a65.866,65.866,0,0,0,6.671-11.934c6.229-14.143,9.812-32.617,10.171-52.342h20.355C207.954,163.756,192.822,188.568,171.829,198.752Zm31.878-19.427a91.248,91.248,0,0,0,13.2-44.844h5.683a71.783,71.783,0,0,1-18.885,44.844Z" transform="translate(-34.25 -22.99)" fill="#fff"/>
    <path id="Path_4" data-name="Path 4" d="M324.477,567.36a9.372,9.372,0,0,0-6.895,2.8,14.141,14.141,0,0,0-3.675,7.769l-.726,4.13q-.814,4.8,1.041,7.454t5.914,2.664a9.483,9.483,0,0,0,6.851-2.686,13.4,13.4,0,0,0,3.626-7.546l.726-4.13q.84-4.961-1-7.7t-5.866-2.743Zm1.955,10.534-.739,4.2a10.177,10.177,0,0,1-1.75,4.554,3.788,3.788,0,0,1-3.093,1.465,2.67,2.67,0,0,1-2.655-1.5,8.408,8.408,0,0,1-.123-4.668l.757-4.3a10.852,10.852,0,0,1,1.785-4.668,3.8,3.8,0,0,1,3.141-1.536,2.544,2.544,0,0,1,2.607,1.593A9.335,9.335,0,0,1,326.432,577.894Z" transform="translate(-176.255 -319.383)" fill="#fff"/>
    <path id="Path_5" data-name="Path 5" d="M373.642,568.12l-2.8,15.858-4.353-15.858h-4.878l-4.257,24.152h4.873l2.8-15.84,4.34,15.84h4.873L378.5,568.12Z" transform="translate(-201.247 -319.81)" fill="#fff"/>
    <path id="Path_6" data-name="Path 6" d="M404.9,592.272h13.867l.713-4.046h-8.99l1.129-6.4h7.6l.691-3.928h-7.6l1.006-5.709h8.959l.717-4.064H409.161Z" transform="translate(-227.99 -319.81)" fill="#fff"/>
    <path id="Path_7" data-name="Path 7" d="M475.511,577.893h-7.2l1.719-9.773h-4.873L460.9,592.272h4.878l1.82-10.333h7.2l-1.824,10.333h4.86L482.1,568.12h-4.86Z" transform="translate(-259.492 -319.81)" fill="#fff"/>
    <path id="Path_8" data-name="Path 8" d="M524.862,568.114l-2.944,16.7a5.8,5.8,0,0,1-1.168,2.861,3.3,3.3,0,0,1-2.541.871c-1.16,0-1.912-.293-2.249-.879a4.629,4.629,0,0,1-.144-2.935l2.931-16.619h-4.908l-2.926,16.6q-.676,3.832,1.015,5.853t5.573,2.026a9.268,9.268,0,0,0,6.208-2,9.438,9.438,0,0,0,3.088-5.766l2.949-16.72h-4.878Z" transform="translate(-287.517 -319.805)" fill="#fff"/>
    <path id="Path_9" data-name="Path 9" d="M569.2,568.12l-2.8,15.858-4.353-15.858h-4.878l-4.256,24.152H557.8l2.791-15.84,4.34,15.84h4.877l4.257-24.152Z" transform="translate(-311.258 -319.81)" fill="#fff"/>
    <path id="Path_10" data-name="Path 10" d="M611.1,568.12h-6.387l-4.256,24.148h6.252a10.62,10.62,0,0,0,7.4-2.712,12.7,12.7,0,0,0,3.832-7.472l.691-3.915q.774-4.679-1.264-7.362T611.1,568.12Zm2.634,10.184-.74,4.2a8.9,8.9,0,0,1-1.829,4.436,4.819,4.819,0,0,1-3.661,1.286h-1.461l2.831-16.037h1.776c1.5.044,2.5.512,2.971,1.4S614.135,576.047,613.737,578.3Z" transform="translate(-338.001 -319.81)" fill="#fff"/>
    <path id="Path_11" data-name="Path 11" d="M656.4,568.12h-7.778l-4.257,24.148h4.878l1.558-8.824h2.419l2.078,8.824h5.241l.039-.232-2.485-9.886a8.7,8.7,0,0,0,4.685-6.732q.617-3.5-1.045-5.4t-5.328-1.9Zm1.43,7.7a4.971,4.971,0,0,1-1.19,2.594,3.068,3.068,0,0,1-2.362.971h-2.769l1.269-7.2h2.852q2.835,0,2.2,3.631Z" transform="translate(-362.702 -319.81)" fill="#fff"/>
    <path id="Path_12" data-name="Path 12" d="M701.644,581.821l.7-3.928h-7.6l1.006-5.709H704.7l.717-4.064H691.586l-4.257,24.152h13.863l.713-4.046h-8.99l1.133-6.4Z" transform="translate(-386.869 -319.81)" fill="#fff"/>
    <path id="Path_13" data-name="Path 13" d="M736.068,568.12h-6.387l-4.261,24.148h6.251a10.62,10.62,0,0,0,7.4-2.712,12.7,12.7,0,0,0,3.832-7.472l.691-3.915q.775-4.679-1.264-7.362t-6.269-2.686ZM738.7,578.3l-.739,4.2a8.9,8.9,0,0,1-1.829,4.436,4.819,4.819,0,0,1-3.661,1.286h-1.461l2.83-16.037h1.776c1.505.044,2.5.512,2.971,1.4S739.1,576.047,738.7,578.3Z" transform="translate(-408.296 -319.81)" fill="#fff"/>
    <path id="Path_14" data-name="Path 14" d="M796.328,568.12h-4.877l-4.261,24.152h13.434l.717-4.046h-8.561Z" transform="translate(-443.044 -319.81)" fill="#fff"/>
    <path id="Path_15" data-name="Path 15" d="M829.1,568.12l-4.26,24.152h4.877l4.261-24.152Z" transform="translate(-464.224 -319.81)" fill="#fff"/>
    <path id="Path_16" data-name="Path 16" d="M865.089,568.12l-7.621,17.468-1.483-17.468h-6.369l-4.256,24.152h4.873l1.155-6.536,1.326-10.071,1.9,16.606h3.316l7.756-16.606-2.222,10.071-1.155,6.536H867.2l4.257-24.152Z" transform="translate(-475.767 -319.81)" fill="#fff"/>
    <path id="Path_17" data-name="Path 17" d="M908.987,568.12l-4.256,24.152H909.6l4.261-24.152Z" transform="translate(-509.166 -319.81)" fill="#fff"/>
    <path id="Path_18" data-name="Path 18" d="M941.522,568.12l-2.8,15.858-4.353-15.858H929.5l-4.261,24.152h4.878l2.791-15.84,4.339,15.84h4.878l4.257-24.152Z" transform="translate(-520.703 -319.81)" fill="#fff"/>
    <path id="Path_19" data-name="Path 19" d="M980.987,568.12,969.18,592.268h5.157l2.166-4.943h6.649l.424,4.943h5.206l-3.338-24.148h-4.462Zm-2.7,15.145,3.775-8.61.74,8.61h-4.51Z" transform="translate(-545.421 -319.81)" fill="#fff"/>
    <path id="Path_20" data-name="Path 20" d="M1028.289,568.12h-4.878l-4.261,24.152h13.439l.714-4.046h-8.561Z" transform="translate(-573.531 -319.81)" fill="#fff"/>
  </g>
</svg>
