<svg xmlns="http://www.w3.org/2000/svg" width="13.905" height="13.902" viewBox="0 0 13.905 13.902">
  <path id="Icon_awesome-instagram" data-name="Icon awesome-instagram" d="M6.951,4.63a3.564,3.564,0,1,0,3.564,3.564A3.559,3.559,0,0,0,6.951,4.63Zm0,5.882A2.317,2.317,0,1,1,9.269,8.194,2.322,2.322,0,0,1,6.951,10.512Zm4.542-6.027a.831.831,0,1,1-.831-.831A.829.829,0,0,1,11.493,4.484Zm2.361.844a4.114,4.114,0,0,0-1.123-2.913A4.141,4.141,0,0,0,9.818,1.292c-1.148-.065-4.588-.065-5.736,0a4.135,4.135,0,0,0-2.913,1.12A4.128,4.128,0,0,0,.046,5.325c-.065,1.148-.065,4.588,0,5.736a4.114,4.114,0,0,0,1.123,2.913A4.147,4.147,0,0,0,4.082,15.1c1.148.065,4.588.065,5.736,0a4.114,4.114,0,0,0,2.913-1.123,4.141,4.141,0,0,0,1.123-2.913C13.919,9.913,13.919,6.476,13.854,5.328Zm-1.483,6.964a2.346,2.346,0,0,1-1.322,1.322,15.321,15.321,0,0,1-4.1.279,15.441,15.441,0,0,1-4.1-.279,2.346,2.346,0,0,1-1.322-1.322,15.321,15.321,0,0,1-.279-4.1,15.441,15.441,0,0,1,.279-4.1A2.346,2.346,0,0,1,2.853,2.775a15.321,15.321,0,0,1,4.1-.279,15.441,15.441,0,0,1,4.1.279A2.346,2.346,0,0,1,12.371,4.1a15.321,15.321,0,0,1,.279,4.1A15.313,15.313,0,0,1,12.371,12.292Z" transform="translate(0.003 -1.243)" fill="#fff"/>
</svg>
