<svg xmlns="http://www.w3.org/2000/svg" width="15.883" height="12.9" viewBox="0 0 15.883 12.9">
  <path id="Icon_awesome-twitter" data-name="Icon awesome-twitter" d="M14.25,5.093c.01.141.01.282.01.423A9.2,9.2,0,0,1,5,14.778a9.2,9.2,0,0,1-5-1.461,6.734,6.734,0,0,0,.786.04,6.519,6.519,0,0,0,4.041-1.391A3.261,3.261,0,0,1,1.784,9.709a4.105,4.105,0,0,0,.615.05,3.443,3.443,0,0,0,.857-.111A3.256,3.256,0,0,1,.645,6.454v-.04a3.278,3.278,0,0,0,1.471.413A3.26,3.26,0,0,1,1.109,2.473,9.253,9.253,0,0,0,7.82,5.879a3.675,3.675,0,0,1-.081-.746,3.258,3.258,0,0,1,5.634-2.227,6.409,6.409,0,0,0,2.066-.786,3.246,3.246,0,0,1-1.431,1.794,6.526,6.526,0,0,0,1.874-.5A7,7,0,0,1,14.25,5.093Z" transform="translate(0 -1.878)" fill="#fff"/>
</svg>
