<svg xmlns="http://www.w3.org/2000/svg" width="16.942" height="11.912" viewBox="0 0 16.942 11.912">
  <path id="Icon_awesome-youtube" data-name="Icon awesome-youtube" d="M17.171,4.364a2.129,2.129,0,0,0-1.5-1.508A50.307,50.307,0,0,0,9.054,2.5a50.307,50.307,0,0,0-6.619.356,2.129,2.129,0,0,0-1.5,1.508,22.331,22.331,0,0,0-.354,4.1,22.331,22.331,0,0,0,.354,4.1,2.1,2.1,0,0,0,1.5,1.483,50.307,50.307,0,0,0,6.619.356,50.307,50.307,0,0,0,6.619-.356,2.1,2.1,0,0,0,1.5-1.483,22.331,22.331,0,0,0,.354-4.1,22.331,22.331,0,0,0-.354-4.1Zm-9.85,6.623V5.949l4.428,2.519Z" transform="translate(-0.583 -2.5)" fill="#fff"/>
</svg>
