<svg xmlns="http://www.w3.org/2000/svg" xmlns:xlink="http://www.w3.org/1999/xlink" width="449.483" height="218.801" viewBox="0 0 449.483 218.801">
  <defs>
    <linearGradient id="linear-gradient" x1="0.5" x2="0.5" y2="1" gradientUnits="objectBoundingBox">
      <stop offset="0" stop-color="#916328"/>
      <stop offset="1" stop-color="#482e11"/>
    </linearGradient>
    <filter id="Path_216" x="0" y="0" width="449.483" height="218.801" filterUnits="userSpaceOnUse">
      <feOffset input="SourceAlpha"/>
      <feGaussianBlur stdDeviation="3" result="blur"/>
      <feFlood flood-color="#fff"/>
      <feComposite operator="in" in2="blur"/>
      <feComposite in="SourceGraphic"/>
    </filter>
  </defs>
  <g transform="matrix(1, 0, 0, 1, 0, 0)" filter="url(#Path_216)">
    <path id="Path_216-2" data-name="Path 216" d="M3.953.8c-1.005.938-1.407,1.943-.938,2.479.536.536.469.268,1.407.469.67.268,1.273-.469,2.077-.737A8.858,8.858,0,0,0,8.71,1.675,17.006,17.006,0,0,1,10.586.268c.469-.335.871-.67,1.541-1.206.6-.469.871-.871,1.407-1.273.335-.268.67-1.005,1.407-1.206,1.072-.335,1.072-.67,1.34-1.273.268-.536.938-.6,1.273-1.273A7.027,7.027,0,0,1,18.76-7.236c.6-.6.67-1.005,1.206-1.34a3.8,3.8,0,0,0,1.273-1.273,8.5,8.5,0,0,1,1.072-1.34L23.383-12.6A7.976,7.976,0,0,1,24.388-14a8.2,8.2,0,0,0,1-1.541c.335-.469.469-.8.871-1.474a7.009,7.009,0,0,0,.871-1.541,6.018,6.018,0,0,1,.8-1.608,5.2,5.2,0,0,0,.737-1.608,3.78,3.78,0,0,1,.67-1.608c.4-.469.335-1.072.67-1.675a4.922,4.922,0,0,0,.6-1.742,6,6,0,0,1,.6-1.742,4.533,4.533,0,0,1,.469-1.809,2.119,2.119,0,0,0,.536-1.809,3.492,3.492,0,0,1,.469-2.01,10.819,10.819,0,0,0,.4-2.211c0-1.206.134-2.077.737-2.077.737,0,.6.8,1.072,2.278a12.548,12.548,0,0,1,.536,2.278c.067.6.4,1.273.536,2.144a7.424,7.424,0,0,0,.536,1.943c.335.871.335,1.072.6,1.943.268.938.469,1.541.6,1.876a13.167,13.167,0,0,0,.67,1.876c.2.335.536,1.407.8,1.809s.268.938.8,1.809a5.015,5.015,0,0,1,.871,1.809c.2.8.8,1.273.938,1.742a4.4,4.4,0,0,0,1.072,1.742,12.192,12.192,0,0,0,1.072,1.742c.6.8.8,1.742,1.541,2.211a11.286,11.286,0,0,1,1.742,2.211c.6.8,1.139,1.34,1.742,2.077a8.64,8.64,0,0,0,1.809,2.01l1.943,1.876c.536.6,1.474,1.206,2.077,1.876.871.8,1.541,1.273,2.077,1.742.6.6,1.273,2.077,2.278,1.675C59.9,1.943,60.032,1.474,60.3,1s.8-.4,1.407-.938c.67-.536,1.206-.536,1.608-.938s2.412-.335,1.943-.938c-.67-.871-1.474-.871-2.144-1.407s-1.139-.469-2.077-1.273c-.469-.469-1.139-.67-1.809-1.273A18.043,18.043,0,0,1,57.419-7.1c-.6-.6-1.273-.938-1.742-1.407a4.326,4.326,0,0,0-1.742-1.474c-.871-.2-1.206-1.273-1.608-1.608A8.846,8.846,0,0,1,50.786-13.2a20.046,20.046,0,0,1-1.474-1.675,10.7,10.7,0,0,0-1.407-1.742c-.4-.4-.871-1.273-1.407-1.809S45.9-19.7,45.225-20.3c-.4-.335-.67-1.34-1.206-1.943a7.179,7.179,0,0,1-1.139-2.01,5.605,5.605,0,0,0-1.072-2.077c-.469-.6-.4-1.34-1.005-2.211-.335-.6-.737-1.809-1.072-2.613a13.624,13.624,0,0,1-.938-2.68,9.3,9.3,0,0,0-.871-2.747c-.4-1.139-.335-1.943-.737-2.747a19.569,19.569,0,0,1-.6-2.814c-.335-1.139-.4-2.077-.6-2.814-.268-.871-.268-2.077-.469-3.082a4.067,4.067,0,0,1,1.139-2.814c.6-.737,1.34-1.273,1.34-1.608.067-.67-.4-.871-.871-.938-.4-.067-1-.4-1.876-.67-1.407-.335-2.747-.335-3.216-.536-.737-.335-1.876-.737-2.479-.335-.871.6-.2,2.144-.2,2.948,0,1.206-.2,2.211-.134,2.68a16.245,16.245,0,0,1-.134,2.68,6.9,6.9,0,0,1-.268,2.68,6.756,6.756,0,0,0-.268,2.68,14.591,14.591,0,0,1-.335,2.68c-.268.938-.268,1.943-.469,2.546a22.706,22.706,0,0,1-.536,2.613c-.268.737-.335,2.077-.6,2.613a24.949,24.949,0,0,0-.737,2.546,14.766,14.766,0,0,1-.8,2.479c-.469,1.005-.737,2.01-.938,2.479-.469,1.005-.8,1.809-1.072,2.412a13.36,13.36,0,0,1-1.206,2.412c-.469,1.072-1.072,1.541-1.34,2.345A7.468,7.468,0,0,1,18.961-13.8a10.18,10.18,0,0,0-1.675,2.345c-.134.6-.67.871-.871,1.139A8.25,8.25,0,0,1,15.41-9.246c-.469.4-.469.67-.938,1.005a4.761,4.761,0,0,0-1.005,1.005A8.074,8.074,0,0,1,11.39-5.293a6.891,6.891,0,0,0-1.139.938c-.4.67-.67.6-1.072.938A21.32,21.32,0,0,1,6.834-1.675,8,8,0,0,0,5.427-.536Zm87.3-41a25.747,25.747,0,0,1-3.216,0c-1.206,0-2.144-.4-3.149-.469a13.389,13.389,0,0,0-3.216.2A1.66,1.66,0,0,0,80.4-38.793a1.935,1.935,0,0,0,1.273,1.407,8.5,8.5,0,0,0,3.216.268c1,0,2.077-.6,3.149-.469.938.067,1.139,0,2.144,0,.8,0,1.407.335,2.077,0a3.353,3.353,0,0,1,2.144,0,3.869,3.869,0,0,0,2.144,0,11.977,11.977,0,0,1,2.144-.067h2.144c1.005.067,1.34-.067,2.144,0a6.091,6.091,0,0,0,2.211-.067,6.118,6.118,0,0,1,2.211,0c.67,0,1.675-.067,2.211-.067a13.025,13.025,0,0,0,2.211-.067,6.218,6.218,0,0,1,2.211-.067,8.522,8.522,0,0,0,2.479.335,9.51,9.51,0,0,1,2.613.737,3.328,3.328,0,0,0,2.412,0c.67-.134,1-.469,1.742-1.675.335-.737-.067-.871-.268-1.206-.469-.6-.737-.6-1.541-1.072-.335-.2-.938-.737-1.206-.938-.4-.268-.67-.67-1.206-1.005a2.334,2.334,0,0,0-2.144-.67c-.536.134-1.005,1.139-1.541,1.541-.871.737-.871,1.608-1.541,1.675a15.524,15.524,0,0,1-3.082,0c-1.139-.067-1.943.067-3.216,0a17.845,17.845,0,0,0-3.283,0c-1.34.2-2.077-.2-3.216,0-1.34.067-2.412-.067-3.283,0a25.528,25.528,0,0,1-3.216,0Zm18.827,9.179a12.179,12.179,0,0,0-2.211,0,3.52,3.52,0,0,1-2.211,0,5.74,5.74,0,0,0-2.144,0c-.4.067-1.675,0-2.211,0H99.093a11.96,11.96,0,0,1-2.211,0,11.879,11.879,0,0,0-2.211,0,12.179,12.179,0,0,0-2.211,0,4.866,4.866,0,0,1-2.211,0,8.041,8.041,0,0,0-2.211,0,12.179,12.179,0,0,1-2.211,0,11.435,11.435,0,0,0-2.144,0,8.141,8.141,0,0,0-2.211,0,8.107,8.107,0,0,1-2.211,0,22.419,22.419,0,0,0-3.35-.469,14.648,14.648,0,0,0-3.417.2c-1.34.469-1.742,1.206-1.541,1.541.268.4.268,1.072,1.541,1.541a6.907,6.907,0,0,0,3.417.268c1.072,0,2.546-.469,3.35-.469a12.179,12.179,0,0,1,2.211,0c.6.134,1.34-.268,2.211,0a5.2,5.2,0,0,0,2.278,0,11.679,11.679,0,0,1,2.211,0c.469,0,1.809-.067,2.211,0a6.477,6.477,0,0,0,2.278,0,8.107,8.107,0,0,1,2.211,0c.737.2,1.273-.134,2.211,0a4.328,4.328,0,0,0,2.278,0,4.888,4.888,0,0,1,2.211,0,6.393,6.393,0,0,0,2.278,0,8.107,8.107,0,0,1,2.211,0c.6.268,1.608-.268,2.345,0,.6.268,1.809-.134,2.412,0a6.921,6.921,0,0,1,2.613,1.139c.8.871,1.34,1.273,1.474,2.211a13.557,13.557,0,0,1,.134,2.077,18.972,18.972,0,0,0,.134,2.01,12.117,12.117,0,0,1,.268,1.943c-.134.8.134,1,.268,1.943a5.214,5.214,0,0,1,.335,1.876c-.134.469.4,1.005.4,1.876a3.616,3.616,0,0,0,.536,1.809c.469.536.2,1.072.536,1.876a15.626,15.626,0,0,1,.67,1.809c.134.8.67,1.34.737,1.742a5.716,5.716,0,0,0,.871,1.675,15.118,15.118,0,0,1,.938,1.742,4.517,4.517,0,0,0,1.072,1.608c.2.268.4,1.206,1.206,1.608.335.134.8,1.072,1.072,1.273.4.335.871,1.072,1.273,1.273.335.2.8.871,1.541.938a6.141,6.141,0,0,0,1.675.4c.6,0,.8-.469,1.541-.67.469-.134.67-.67.67-1.474A4.243,4.243,0,0,0,130.315.4a16.47,16.47,0,0,1-.4-1.809c-.268-.871,0-1.541.268-2.881.4-1.206.134-1.809.335-3.216a8.981,8.981,0,0,0,0-2.68c-.067-.469-.067-1.407-.871-1.273a1.141,1.141,0,0,0-1.005,1.139,20.629,20.629,0,0,0-.8,2.814,15.77,15.77,0,0,1-.67,2.814,3.187,3.187,0,0,1-.737,1.34c-.335.4-.871-.4-1.139-1.273-.2-.737-.8-1.005-.871-1.474a11.594,11.594,0,0,0-1.34-2.479,7.293,7.293,0,0,1-1.072-2.479,19.244,19.244,0,0,0-.871-2.546,5.842,5.842,0,0,1-.6-2.68c.067-1.139-.6-1.943-.469-2.613a23.428,23.428,0,0,0-.335-2.747c-.134-1.273-.2-2.68-.2-3.618A3.29,3.29,0,0,1,120.4-27.6a10.96,10.96,0,0,0,1.34-1.474c.268-.469-.268-1.072-.6-1.273a9.778,9.778,0,0,1-1.474-1.34,3.6,3.6,0,0,0-1.742-1.139c-.737-.2-1.072-.2-1.407-.469-.2-.2-.871.268-1.206.871a9.871,9.871,0,0,1-.737,1.407c-.4.6-1.675,0-2.211,0Zm-9.715-18.023a7.088,7.088,0,0,0-2.077,0,4.267,4.267,0,0,1-2.077,0c-.737-.2-1.474.2-2.077,0a10.163,10.163,0,0,0-2.479,0,11.46,11.46,0,0,1-3.283-.67c-1.072-.335-1.139-1.206-.8-1.34a6.641,6.641,0,0,1,2.211-.6c.469-.067,1.608-.6,1.273-1.407-.134-.268-.134-1.34-.469-1.474-.469-.2-.469-.469-1.34-.8-1.072-.4-2.278-.469-2.479-.67a2.19,2.19,0,0,0-1.943-.67c-.737.134-.6.938-.8,1.608a3.307,3.307,0,0,1-.8,1.541c-.6.67-.536,1.206-.871,1.541a3.969,3.969,0,0,0-.871,1.541c-.2.4-.134.938-.737,1.474-.335.335-.469,1.005-.938,1.407-.536.469-.536,1.139-1,1.407a2.208,2.208,0,0,0-1.072,1.34c-.335.6-.737.67-1,1.139a2.178,2.178,0,0,1-1.072,1.139c-.6.268-.67,1.139-1.072,1.206-.469.134-.6.8-1.072,1.139-.536.4-.6.8-1.34,1.273a3.607,3.607,0,0,0-1.407,1.675,5.967,5.967,0,0,0-.8,1.608c-.067.871,0,1.005.268,1.407.335.536,1.608,0,2.412-.2.6-.134.871-.8,1.34-1.005.335-.134.6-.6,1-.938.469-.469,1.273-1.34,1.608-1.675a5.229,5.229,0,0,0,1.608-1.608c.268-.335,1.273-.8,1.541-1.675.268-.737,1.139-.8,1.541-1.742a9.165,9.165,0,0,1,1.608-1.675c.6-.536.67-1.474,1.541-1.675a16.093,16.093,0,0,1,2.546,0c.8-.134,1.474.2,2.68,0,.8,0,1.809.067,2.747,0,.6-.067,2.01,0,2.68,0A12.66,12.66,0,0,1,97.82-46.5a5.436,5.436,0,0,0,2.747,0,12.514,12.514,0,0,1,2.747,0,12.153,12.153,0,0,1,2.814-.067c1.072.067,1.675,0,2.747,0a21.364,21.364,0,0,1,2.814-.067A13.675,13.675,0,0,0,114.5-46.7c.67,0,1.675-.067,2.881-.067A13.828,13.828,0,0,0,120.2-46.9a22.689,22.689,0,0,0,2.881-.067c1.206-.2,1.809.6,3.216.67,1.139,0,2.546-.067,2.68-1.072a1.326,1.326,0,0,0-.268-1.206c-.335-.4-.938-.134-1.608-1.139-.335-.536-1-.6-1.273-1.072-.536-.737-1.005-.8-1.273-1.072-.6-.536-.871-1.407-1.809-1.34-.67.067-1.34,1.407-1.943,2.077-.6.737-1.206,1.876-1.876,2.077a3.327,3.327,0,0,1-2.01,0,6.721,6.721,0,0,0-2.01,0,20.671,20.671,0,0,1-2.077,0,5.367,5.367,0,0,1-2.077,0c-.469-.268-1.139.134-2.077,0a4.294,4.294,0,0,0-2.077,0c-.938.268-1.273-.067-2.077,0a10.75,10.75,0,0,1-2.077,0Zm3.685,29.815c.67-.67,1.072-1.943,1.675-2.144a6.916,6.916,0,0,1,1.809-.268c.871,0,1.139-.4,1.206-1.34a1.771,1.771,0,0,0-.469-1.474c-.4-.4-.938-.469-1.273-.8-.6-.67-1.809-.4-2.412-.67-.6-.335-1.206-.938-1.742-.67-.8.4-.737,1-1,1.474-.268.536-.335,1.139-1.072,1.541a2.775,2.775,0,0,0-1.005,1.407,5.689,5.689,0,0,1-1.072,1.407c-.536.6-1.072,1.407-1.34,1.742-.469.67-1,1.273-1.34,1.742a2.575,2.575,0,0,1-1.675,1.005c-.67.067-1.273.4-1.541.2a8.207,8.207,0,0,0-2.747-1.206c-.871-.335-1.139-.469-2.278-.871-.67-.2-1.206-.536-2.278-.871-.737-.2-1.675-.536-2.278-.67a8.079,8.079,0,0,1-2.345-.6l-3.015-.8c-.938-.4-2.01-.134-2.144.268-.2.469.469,1.005,1.34,1.809a3.038,3.038,0,0,0,1.541.8,12.5,12.5,0,0,1,1.474.469c.6.268.871.67,1.742.737a19.82,19.82,0,0,1,2.077.737,20.866,20.866,0,0,1,2.077.938,14.194,14.194,0,0,0,2.077.938c.469.067,1.273.871,1.742.871.6,0,.6,1.072.6,1.474,0,.871,0,1.34-.8,1.742-.6.335-.469.67-1,.938-.67.335-.737.737-1.072.938a3.108,3.108,0,0,0-1.206,1c-.335.536-1.005.737-1.206,1.005-.268.4-.8.469-1.273.938a10.022,10.022,0,0,1-1.273.938c-.469.268-.737.871-1.273.938-.737.067-.737.67-1.273.871a2.807,2.807,0,0,0-1.273.871A2.549,2.549,0,0,1,77.519-1,3.921,3.921,0,0,0,75.911.067a5.678,5.678,0,0,1-1.675,1.34c-.4.2-1.206.4-1.206,1.34,0,.6-.2.871-.067,1.273.134.469.6.536,1.206.536a2.6,2.6,0,0,0,1.876-.536c.67-.469,1.34-.268,2.01-.938A5.5,5.5,0,0,1,79.73,2.01c.67-.335.938-.737,1.407-.871.871-.268.8-.536,1.407-1.005A16.848,16.848,0,0,0,83.951-.8c.4-.4.871-.2,1.407-1A5.841,5.841,0,0,1,86.7-2.881a12.951,12.951,0,0,0,1.273-1.072,13.858,13.858,0,0,1,1.34-1A8.457,8.457,0,0,0,90.584-6.03a4.779,4.779,0,0,1,1.608-1.407c.6-.268,1.005-1.072,1.608-1.474a2.943,2.943,0,0,1,1.809-.469,15.432,15.432,0,0,1,1.876.4A4.141,4.141,0,0,1,99.16-7.7,3.7,3.7,0,0,0,100.9-6.432c.67.134.871.67,1.34,1.005.536.4.469.737,1.273,1.139a2.422,2.422,0,0,1,1.206,1.072c.4.536,1.072.871,1.206,1.206a1.829,1.829,0,0,0,.938,1.072c.469.268.8.938,1.139,1.139,1.005.871,1.809,1.407,2.68,1.273.6-.134,1.34-.067,1.474-.67a5.453,5.453,0,0,0,.469-1.474,5.826,5.826,0,0,0-.469-1.943,6.153,6.153,0,0,0-1.273-1.876A11.132,11.132,0,0,0,109.143-6.3a25.676,25.676,0,0,1-2.211-1.742,5.574,5.574,0,0,0-1.206-.871c-.6-.2-.6-.67-1.139-.737-1.072-.134-1.474-.938-2.345-1.474-.4-.268-1.541-.469-1.876-1.005-.268-.4-.67-.67-.536-1.407.2-.938.268-1.407.8-1.742a6.935,6.935,0,0,0,1.608-1.809Zm43.764-8.536a13.251,13.251,0,0,0-1.485.855,5.025,5.025,0,0,0-1.4.99c-.495.45-1.035.675-1.3,1.125a7.589,7.589,0,0,1-1.125,1.215,9.9,9.9,0,0,0-1.035,1.305l-.9,1.44c-.225.315-.405,1.08-.675,1.53a5.129,5.129,0,0,0-.54,1.665,10.993,10.993,0,0,1-.315,1.755,5.861,5.861,0,0,0-.135,1.8,14.639,14.639,0,0,1,.135,1.98,8.27,8.27,0,0,0,.405,1.935,15.608,15.608,0,0,0,.72,1.845l.45.855a1.463,1.463,0,0,0,.585.81,5.116,5.116,0,0,1,.675.72,4.225,4.225,0,0,0,.81.63,3.1,3.1,0,0,0,1.845.585c.585-.09,1.44,0,1.755-.36a2.837,2.837,0,0,1,.945-.675,1.3,1.3,0,0,0,.765-.675c.135-.36.54-.405.675-.81.09-.315.45-.45.63-.81a8.2,8.2,0,0,1,1.08-1.575,5.2,5.2,0,0,0,.945-1.485,11.35,11.35,0,0,1,.855-1.575c.315-.54.5-.945.855-1.575a17.975,17.975,0,0,0,.81-1.62,14.565,14.565,0,0,0,.81-1.665c.135-.4.675-1.215.81-1.71.18-.495.54-1.17.765-1.755.135-.405.63-1.215.81-1.8a4.741,4.741,0,0,0,.63-1.845,2.476,2.476,0,0,0-.45-1.53,2.409,2.409,0,0,1-.765-1.215.73.73,0,0,1,.54-.72,5.017,5.017,0,0,1,1.62.045,5.618,5.618,0,0,0,1.53.18,6.131,6.131,0,0,1,1.485.27,5.081,5.081,0,0,1,1.395.45l1.35.54a6.79,6.79,0,0,1,1.26.675,12.99,12.99,0,0,0,1.215.855c.4.36.945.765,1.08.945a2.329,2.329,0,0,0,.72.765c.4.225.315.585.585.81.27.315.495.5.54.9a2.422,2.422,0,0,0,.45.9,6.927,6.927,0,0,1,.63,1.935,14.671,14.671,0,0,1,.225,2.025c-.045.4-.045,1.08-.09,1.62-.045.63,0,1.17-.27,1.485-.36.315-.315.9-.45,1.395-.18.585-.54,1.035-.585,1.305-.135.54-.63.72-.72,1.17-.09.54-.675.765-.855,1.08a2.517,2.517,0,0,1-.945.99,6.073,6.073,0,0,0-1.08.81c-.5.315-.585.495-1.125.855-.585.27-.63.585-1.125.765-.72.27-1.08.585-1.44.675-.45.135-.81.405-1.17.5a8.167,8.167,0,0,1-1.35.495,2.527,2.527,0,0,1-1.26.45c-.36-.045-1.035.36-1.44.405a5.616,5.616,0,0,0-1.89.495c-.63.315-.315,1.665.36,1.755a2.764,2.764,0,0,0,1.62.135,4.817,4.817,0,0,1,1.35-.225c.54-.09.9-.225,1.44-.36a5.159,5.159,0,0,1,1.26-.36,6.22,6.22,0,0,0,1.4-.585c.45-.27.72-.18,1.26-.54a2.858,2.858,0,0,1,1.215-.45,4.072,4.072,0,0,0,1.4-.72c.27-.135.495-.45.81-.495a1.861,1.861,0,0,0,.945-.585,2.774,2.774,0,0,1,.81-.585,1.725,1.725,0,0,0,.765-.63c.315-.36.36-.54.675-.675.36-.135.4-.27.63-.675a5.06,5.06,0,0,1,1.125-1.53,5,5,0,0,0,.9-1.665,4.769,4.769,0,0,0,.675-1.755c0-.585.4-1.17.4-1.935,0-.5.09-1.125.135-2.07-.045-.5-.045-1.215-.09-1.62a11.568,11.568,0,0,0-.27-1.575,6.774,6.774,0,0,0-.495-1.44c-.27-.54-.4-1.035-.585-1.35a10.313,10.313,0,0,0-.765-1.26,5.1,5.1,0,0,0-.9-1.17,4.508,4.508,0,0,1-1.035-1.035,6.59,6.59,0,0,0-1.125-.945c-.45-.36-.81-.45-1.215-.81a3.874,3.874,0,0,0-1.305-.72,6.947,6.947,0,0,0-1.4-.63c-.4-.09-.81-.36-1.44-.495a5.2,5.2,0,0,1-1.44-.36,2.765,2.765,0,0,0-1.53-.315,4.72,4.72,0,0,1-1.53-.18,2.554,2.554,0,0,0-1.53-.045,4.392,4.392,0,0,1-1.71.09,11.707,11.707,0,0,0-1.755.225c-.675.045-1.17.36-1.665.315-.63-.045-1.125.405-1.62.5a4.611,4.611,0,0,0-1.665.585Zm4.455,8.775c-.18.63-.675,1.125-.72,1.485-.09.36-.36.54-.5.99a2.193,2.193,0,0,1-.45.99,5.4,5.4,0,0,0-.54.945c-.09.45-.27.54-.495.945a4.513,4.513,0,0,1-.585.945c-.225.225-.315.63-.585.945-.315.45-.495.585-.675.855a5.192,5.192,0,0,1-.675.9,4.517,4.517,0,0,1-1.035,1.035,3.292,3.292,0,0,1-1.4.405c-.675.18-1.035-.135-1.44-.72a7.812,7.812,0,0,1-.9-1.845,18.672,18.672,0,0,1-.495-2.16,4.781,4.781,0,0,1-.135-1.755l.27-2.3a2.819,2.819,0,0,1,.315-1.125,8.739,8.739,0,0,0,.45-1.08c.225-.5.36-.585.54-1.08.225-.585.585-.765.63-.99a3.338,3.338,0,0,1,.72-.9,3.835,3.835,0,0,0,.765-.855c.135-.315.5-.495.9-.855a5.256,5.256,0,0,1,.945-.72,7.735,7.735,0,0,0,.99-.63,2.367,2.367,0,0,1,1.125-.675c.54-.135.585-.36,1.035-.5a4.921,4.921,0,0,1,1.71-.45,2.558,2.558,0,0,1,1.665.18c.81.405.54,2.07.54,2.25,0,.315.135.675-.18,1.035-.36.405-.315,1.17-.54,1.575a6.4,6.4,0,0,0-.585,1.575Zm47.25-47.07c-1.17.09-1.98.45-2.97.54l-2.97.99a7.592,7.592,0,0,0-2.97,1.35,8.99,8.99,0,0,0-2.61,1.8,14.677,14.677,0,0,0-2.07,2.07c-.36,1.26-.9,1.35-1.35,2.52-.54,1.08-.18,2.16-.54,3.06-.45,1.08.72,2.34,1.44,3.51a4.721,4.721,0,0,0,3.33,1.62c1.26,0,1.98-.54,3.24-1.89a6.218,6.218,0,0,0,.99-2.61,8.393,8.393,0,0,0,.27-3.96c-.27-1.08.27-1.35.63-2.34.27-.99,1.08-1.17,1.71-1.62a4.5,4.5,0,0,1,2.43-.9,5.43,5.43,0,0,0,2.52-.27c1.98-.54,2.79.36,4.41.72a8.6,8.6,0,0,1,3.15,2.25,13.934,13.934,0,0,1,1.89,3.42,20.791,20.791,0,0,1,.63,4.5,20.059,20.059,0,0,1-.27,2.88,26.248,26.248,0,0,0-.63,2.61c-.18,1.17-1.08,1.26-1.26,2.25-.18,1.17-1.17,1.17-1.62,1.98-.36.81-1.71,1.26-2.07,1.53a5.067,5.067,0,0,1-2.7,1.08,21.78,21.78,0,0,0-2.97.45,9.83,9.83,0,0,1-3.6-.09,2.174,2.174,0,0,0-2.34,2.34c.09.9,1.53,1.53,2.25,2.07.63.45,1.08-.27,4.95-.18a8.2,8.2,0,0,1,2.88.27l2.43.81a4.6,4.6,0,0,1,2.07,1.35l1.62,1.71c.63.81,1.17,1.17,1.26,2.16,0,.72.72,1.35.81,2.34a6.456,6.456,0,0,0,.54,2.61,7.32,7.32,0,0,1,.18,2.79c0,1.26-.27,1.89-.18,2.79.09,1.17-.36,1.35-.54,2.61a3.729,3.729,0,0,1-.99,2.25c-.54.54-.81,1.44-1.35,2.07-.27.36-.54,1.35-1.71,1.62a3.054,3.054,0,0,0-2.07,1.26c-.36.54-1.35.36-2.52.81a4.781,4.781,0,0,1-2.88.27,8.6,8.6,0,0,0-2.52-.27c-.72-.09-2.07-.18-2.7-1.08-.54-.63-1.53-1.08-1.98-2.43a21.246,21.246,0,0,1-.54-4.5,6.4,6.4,0,0,0-1.44-3.78,6.141,6.141,0,0,0-3.6-1.71c-1.71-.09-2.7.9-3.69,1.71s-1.26,2.79-1.44,3.69a4.9,4.9,0,0,0,.45,3.15,10.359,10.359,0,0,1,1.35,2.61c.18,1.26,1.08,1.44,2.07,2.16a15.534,15.534,0,0,0,2.52,1.71c.9.36,1.89.63,2.97,1.17a10.557,10.557,0,0,0,2.97.9c1.35.27,2.16.45,3.06.54a23.71,23.71,0,0,0,2.79.09c1.44,0,2.16-.27,3.87-.27a12.85,12.85,0,0,0,3.78-.81c1.53-.54,2.43-.81,3.6-1.35a11.633,11.633,0,0,0,3.24-1.98,15.493,15.493,0,0,0,2.7-2.52,9.61,9.61,0,0,0,2.07-2.97,32.438,32.438,0,0,0,1.44-3.51,29.149,29.149,0,0,0,.45-4.14c0-.36-.18-1.71-.18-2.43a9.576,9.576,0,0,0-.63-2.43c-.09-.54-.72-1.44-.99-2.34a12.614,12.614,0,0,0-1.35-2.16,7.878,7.878,0,0,0-1.62-1.89,19.707,19.707,0,0,0-2.07-1.89,11.43,11.43,0,0,0-2.61-1.89c-1.35-.99-3.87-.72-3.42-2.07.27-.81,1.26-1.08,2.34-1.17.54,0,1.17-.27,2.16-1.44.45-.54,1.26-.72,1.71-1.53.36-.72.9-.99,1.53-1.71.72-.9.81-1.35,1.26-1.89a4.436,4.436,0,0,0,.99-2.07,14.922,14.922,0,0,0,.81-4.5,14.49,14.49,0,0,0-.36-3.33,20.515,20.515,0,0,1-1.17-2.88,6.376,6.376,0,0,0-1.62-2.43c-.81-.9-1.17-1.62-2.25-2.16-1.17-.63-1.71-1.35-2.61-1.62-.72-.18-1.62-.81-2.88-1.26-.99-.36-1.98-.36-3.06-.72a7.3,7.3,0,0,0-3.15-.18Zm55.17,6.21a24.662,24.662,0,0,0,2.34,1.8c.72.45.18.81.9,1.71,1.08.99,1.62,1.08,1.8,1.89a2.719,2.719,0,0,0,2.34,1.98,3.333,3.333,0,0,0,1.89-.81,2.834,2.834,0,0,0,1.08-1.71,4.05,4.05,0,0,0-.99-3.15c-.9-1.35-1.17-3.6-.45-4.14.54-.36.72-1.08,1.71-1.98.63-.63.81-1.26,1.62-2.25.72-.99.27-2.34,1.71-2.34.72,0,1.71-.18,2.16-.18.63,0,1.17-.99,1.44-1.89.27-1.08-.72-1.71-2.25-2.34-1.62-.36-2.43-.09-2.79-.45a3.277,3.277,0,0,0-2.52-.63c-1.62.27-.99,2.16-1.17,3.33a15.163,15.163,0,0,1-1.26,3.24,21.487,21.487,0,0,1-1.35,3.33c-.45.81-2.43,2.16-3.78,1.89-1.26-.27-3.33-1.17-4.05.63C252.71-60.93,254.24-60.21,254.69-59.85Zm16.47,12.6c-1.17-1.08-3.24-1.26-3.69-.36-.36.72,1.35,2.07,1.89,2.79.81,1.08-1.44,1.62-3.24,1.62-1.17,0-2.07-.36-1.62-1.35a4.5,4.5,0,0,1,1.62-2.88,7.487,7.487,0,0,0,2.52-2.52c.72-.81.99-1.08,1.98-2.16.45-.63,1.08-.9,1.62-1.8.45-.9,1.08-1.62,1.53-1.71a3.549,3.549,0,0,0,1.8-.45c.72-.45,1.53-1.53.81-2.43a6.172,6.172,0,0,0-2.7-1.89c-1.26-.45-1.89-1.53-2.97-1.53-.72,0-.99,2.07-1.53,2.61-.72.63-.99,1.89-1.53,2.43a7.854,7.854,0,0,0-1.53,2.43,11.017,11.017,0,0,1-1.62,2.34,7.553,7.553,0,0,0-1.71,2.43,10.456,10.456,0,0,1-1.89,2.25c-.9.99-1.26,1.71-1.89,2.34-.36.36-.9,1.98-1.8,2.07a5.434,5.434,0,0,1-2.43.09c-.36-.09-2.25-2.79-3.78.09-.72,1.26.27,2.16.9,3.69.45,1.17.9,3.06,2.07,2.88s1.35-1.08,2.43-1.89c.72-.54,2.79-.54,3.69-.54,1.53-.18,2.25-.45,3.87-.63a12.514,12.514,0,0,1,2.43-.27c.99.18,1.8-.36,2.43-.36a4.206,4.206,0,0,1,2.25.81,2.293,2.293,0,0,1,1.44,1.98c0,1.44.27,1.35.81,2.25a1.722,1.722,0,0,0,1.89.9,2.649,2.649,0,0,0,2.34-1.08,4.913,4.913,0,0,0,.81-2.52c.18-1.26-.63-3.06-.9-3.87a4.1,4.1,0,0,0-2.34-2.97c-.9-.18-1.26-.81-1.8-1.35Zm15.57-15.57c.72.72,1.35,1.08,1.8,1.62a12.694,12.694,0,0,0,1.26,1.62,7.524,7.524,0,0,1,1.44,2.79,3.284,3.284,0,0,0,1.26,2.07,1.662,1.662,0,0,0,1.71.45c1.71-.18,2.61-1.08,2.61-2.34a9.527,9.527,0,0,0-.9-3.06,2.9,2.9,0,0,1-.09-2.79c.63-.81.54-2.34,1.53-3.24.72-.63.81-1.26,1.62-2.07.72-.72.54-1.89,1.53-2.07.72-.09,1.17.63,2.16-.09.54-.45,1.35-.99,1.53-1.71.36-1.71-.72-2.43-2.16-2.61a27.165,27.165,0,0,1-2.79-.63c-.72-.18-1.53-1.44-2.34-.81a5.065,5.065,0,0,0-1.26,3.24c-.18,1.53-.99,1.89-1.35,3.15a8.1,8.1,0,0,1-1.53,3.33c-.54.9-1.98,2.16-2.7,2.16C289.43-63.81,284.57-64.98,286.73-62.82ZM244.88-67.5c0-.81.27-3.33,1.35-3.6a4.7,4.7,0,0,0,1.89-2.07c.27-.63-1.17-1.44-2.79-1.71-1.71-.27-2.88-.36-3.6-.45-1.26-.18-2.25.09-2.61.81-.54,1.08,0,2.07.09,3.24.09,1.26-.27,2.25.09,3.24.36,1.17.09,1.89,0,3.24v3.15a20.536,20.536,0,0,0,0,3.33c.09.99-.36,2.79-1.26,2.7a24.921,24.921,0,0,0-2.7-.27,14.48,14.48,0,0,1-2.25-.27,11.105,11.105,0,0,0-3.87.27c-1.35.36-2.34,1.62-1.98,2.07.63.81.54,1.26,1.98,2.07a4.288,4.288,0,0,0,3.69.36c1.53-.54,3.06-1.17,4.59-.72.63.18.36,2.88.09,4.5a18.417,18.417,0,0,1-.81,4.23,5.035,5.035,0,0,0-.45,2.25,3.428,3.428,0,0,1-.63,2.16,5.616,5.616,0,0,0-.81,2.07,9.141,9.141,0,0,1-.81,2.16,16.063,16.063,0,0,1-.81,2.07,18.85,18.85,0,0,0-.72,2.07,16.546,16.546,0,0,0-1.62,4.05,5.16,5.16,0,0,1-1.26,2.43,14.253,14.253,0,0,0-1.17,2.79,4.609,4.609,0,0,0-.45,2.61c.18.72.36,1.62,1.08,1.89a4.618,4.618,0,0,0,2.7-.9,5.613,5.613,0,0,0,1.98-2.88c.45-1.17,1.08-2.16,1.26-2.88A18.916,18.916,0,0,1,236.6-27c.99-1.62.99-3.06,1.89-3.06.45,0,.81.63.81,2.34,0,1.44-.09,2.43,0,3.06.09,1.17-.09,1.98,0,2.7a31.36,31.36,0,0,1,0,5.04,21.949,21.949,0,0,1-.09,4.86,28.438,28.438,0,0,0-.09,4.86,17.285,17.285,0,0,1-.09,4.86l-.09,4.86a4.892,4.892,0,0,0,.18,2.16c.27.45.18,2.16,1.35,2.97.54.45,1.98.18,2.88-.81.45-.54.81-.54,1.26-1.44a10.787,10.787,0,0,0,.72-2.52,9.347,9.347,0,0,0-.45-4.77,29.908,29.908,0,0,1-.27-4.77l-.09-4.77-.09-4.77a29.868,29.868,0,0,1,.09-4.86,26.946,26.946,0,0,0,.09-4.77c0-1.08.18-1.71.09-3.06-.09-1.08.18-2.25,1.26-2.61a1.669,1.669,0,0,1,1.98.63c.9,1.08,1.08,1.35,1.08,2.25-.09.9.27,1.17.9,1.53,1.17.63,1.17,1.8,1.98,1.08.27-.18,1.53-.18,1.8-.99.27-.72.99-.99.81-2.25a13.025,13.025,0,0,0-.99-3.33c-.54-1.08-1.17-2.16-2.61-2.25-.81,0-1.26-.54-1.8-1.17a2.34,2.34,0,0,0-1.89-1.08c-.63-.09-.9-.63-1.53-1.44a5.135,5.135,0,0,1-.81-2.07,11.345,11.345,0,0,1,0-4.32,8.394,8.394,0,0,0,0-3.96,2.061,2.061,0,0,1,1.62-2.16c.9-.27,2.43-1.17,3.33-1.17.54,0,2.07.18,3.78.36.99.09,2.88,0,3.06-1.53a2.907,2.907,0,0,0-.63-2.25,6.485,6.485,0,0,0-1.8-1.71c-.54-.18-1.62-1.08-2.34-1.26-.9-.09-1.44-1.08-1.89-.63-.72.72-1.35,1.08-1.71,1.8-.54,1.26-.81,1.17-2.07,1.8-1.08.54-1.26-1.17-1.35-2.7-.09-.99.36-1.89,0-3.33a15.26,15.26,0,0,1,0-2.88Zm50.31,15.57c-.36.54-.36.99-.9,1.44a5.1,5.1,0,0,0-.99.9,9.6,9.6,0,0,0-2.07,2.43,14.9,14.9,0,0,1-2.07,2.07c-.36.27-1.26-1.62-2.88.18-.99,1.08-.09,2.07.45,3.69.54,1.53,1.17,3.42,2.16,3.15,1.08-.36,1.8-1.44,2.61-1.89s1.17-.27,1.89-.72c.63-.45,1.44-.18,2.61-.18a4.757,4.757,0,0,0,2.52-.18c.36-.36,1.71-.27,2.79.09.63.18,2.07-.45,3.24-.36,1.26.18,1.62,2.16,2.16,2.7.81.81,1.8.72,2.79.9a1.982,1.982,0,0,0,2.16-.99,4.041,4.041,0,0,0,.72-2.43c.09-1.08-.72-1.98-.99-3.42-.45-1.35-1.53-1.71-2.34-2.34a16.633,16.633,0,0,0-1.71-1.17,6.559,6.559,0,0,0-2.07-1.08c-.99-.27-2.52-2.43-3.51.36-.18.54,1.71,2.16,1.89,3.24.09.9-5.31.72-5.67.54-1.35-.54-1.62-1.17-1.44-2.25.09-.54,1.17-1.35,1.98-2.07.72-.81,1.08-1.53,1.71-1.71.9-.18.99-.72,1.53-1.71a5.9,5.9,0,0,1,1.62-1.71c.72-.63.81-1.08,1.44-1.62.36-.36,1.08-1.44,1.44-1.71.99-.9,3.24.09,3.51-1.44a3.954,3.954,0,0,0-.63-2.43,3.382,3.382,0,0,0-1.98-1.44,20.071,20.071,0,0,0-4.05-1.35c-.63,0-.99,2.07-1.53,2.7a20.91,20.91,0,0,1-1.44,2.52c-.54.45-.72,1.26-1.53,2.43a25.244,25.244,0,0,1-1.71,2.52Zm-5.67,14.94c0,.63,1.17,1.26,2.25,1.8a9.648,9.648,0,0,1,1.71,1.17c.72.54.9.9,1.35,1.26.99.63,2.43,2.34,3.6,2.25,1.71-.18,1.8-1.08,1.98-2.43a2.44,2.44,0,0,0-1.53-2.7,16.235,16.235,0,0,0-3.33-1.53c-1.44-.18-3.78-1.17-4.41-1.26C289.88-38.7,289.52-37.62,289.52-36.99Zm15.3,12.33a16.394,16.394,0,0,0,3.15-.09,2.482,2.482,0,0,0,2.16-2.16,2.964,2.964,0,0,0-1.53-3.33c-1.44-.72-2.25-.81-2.97-1.89a3.236,3.236,0,0,0-2.7-1.08c-1.17.27-1.44,1.53-1.98,1.98-.9.81-.99,1.53-1.98,2.07-.9.45-1.89,0-3.51,0h-3.6a22.04,22.04,0,0,1-3.33-.99c-1.35-.45-1.44-1.26-1.98-1.98a4.663,4.663,0,0,1-.45-2.52c0-.45-.36-1.89-.36-2.43.09-.9-.45-2.52-.54-4.05-.27-1.26,0-2.34-.36-4.14l-.27-4.14a31.182,31.182,0,0,1-.18-4.14,29.885,29.885,0,0,1-.18-4.23,31.64,31.64,0,0,1,0-4.14c0-.9-.09-1.62,0-2.79a15.386,15.386,0,0,0,0-2.88c-.27-.9.63-2.61,1.26-3.42,1.26-1.17,2.34-.45,1.8-2.07a3.5,3.5,0,0,0-1.8-1.98,8.409,8.409,0,0,0-2.7-.54c-1.17.09-1.8-.09-2.61.45-.63.36-1.71-.18-1.89.72a18.387,18.387,0,0,0,.18,5.13,30.162,30.162,0,0,1,0,4.95,8.321,8.321,0,0,0,0,2.61c.72,1.71-.18,2.7,0,4.14a13.02,13.02,0,0,1,.18,4.23c-.36,1.08.09,2.61.18,4.05.09,1.89.27,2.97.27,4.14a36.222,36.222,0,0,0,.45,4.14c.27,1.62.18,2.43.54,4.14a36.609,36.609,0,0,1,.54,3.69,3.617,3.617,0,0,1-1.17,2.7,5.045,5.045,0,0,1-2.97,1.35c-1.44,0-2.7-.09-4.41,0a14.331,14.331,0,0,1-4.86.09,42.583,42.583,0,0,0-4.77-.09l-3.33-.36c-1.17.18-2.25-.27-3.6.45a1.985,1.985,0,0,0-1.26,1.89,1.612,1.612,0,0,0,1.08,1.89,5.38,5.38,0,0,0,2.43.45,2.348,2.348,0,0,1,1.89,1.17,4.045,4.045,0,0,1,.45,2.7,19.658,19.658,0,0,1-.81,3.33c-.45,1.08-.81,2.7-1.17,3.69a13.238,13.238,0,0,1-1.62,3.6c-.45.63-1.35,2.34-1.89,3.15a25.163,25.163,0,0,1-2.25,3.15c-.36.45-1.35.9-1.71,1.8-.54,1.17-1.44,1.53-1.71,2.16-.54,1.08-.99,1.26-1.17,2.16a2.053,2.053,0,0,0,.36,1.71c.9,1.26,2.16.72,3.6-.45.99-.63,1.71-.72,2.07-1.53A3.507,3.507,0,0,1,255.32.27a5.778,5.778,0,0,0,1.98-2.43,22.008,22.008,0,0,0,1.89-2.7c.54-1.17,1.26-1.62,1.71-2.88l1.71-2.97c.18-.54,1.35-2.16,1.35-2.97,0-.72.81-.9,1.71-1.62a1.471,1.471,0,0,1,1.89-.18,21.227,21.227,0,0,1,2.07,1.8,8.231,8.231,0,0,1,1.8,2.07c.36.81,1.26,1.53,1.53,2.43a9.1,9.1,0,0,0,1.35,2.07,1.883,1.883,0,0,0,2.16.99c.45-.09,1.26-.9,1.98-1.26.81-.36.99-1.62.9-2.25a14.347,14.347,0,0,0-1.17-3.15,5.977,5.977,0,0,0-2.43-2.34,4.884,4.884,0,0,0-2.34-1.35c-.45,0-1.44-.81-2.34-1.26a27.585,27.585,0,0,1-3.24-1.8,2.916,2.916,0,0,1-1.26-1.8c0-.63.63-1.44,1.08-2.97.36-1.26,1.71-.9,2.79-.9,1.35,0,2.79-.36,4.05-.45,1.89-.09,3.6-.54,4.95,0a5.8,5.8,0,0,1,2.16.99c.45.45,1.26.72,1.53,1.89.18.81.63,1.44.81,2.43.18,1.17.99,1.35.9,2.43-.09.45.63,1.26.9,2.16a5.085,5.085,0,0,0,.99,2.25c.63,1.08.36,1.44,0,2.61-.45,1.17-.99,2.34-1.44,2.34-.9.09-1.35.81-2.07,1.35a6.485,6.485,0,0,1-2.16,1.35,9.539,9.539,0,0,0-1.89.99,4.628,4.628,0,0,1-1.89.9c-.99.27-1.17.72-1.89.9a14.526,14.526,0,0,1-1.89.81,17.258,17.258,0,0,0-3.96,1.53A12.622,12.622,0,0,1,265.49.63c-.99,0-1.35.45-2.34.72l-2.79.99a19.81,19.81,0,0,0-2.16,1.35,1.331,1.331,0,0,0-.72,1.62,1.365,1.365,0,0,0,1.44,1.17c1.26,0,1.8.09,2.61.09a24.591,24.591,0,0,0,3.06-.54c.72-.09,1.89-.54,2.79-.72a5.79,5.79,0,0,0,2.16-.63,6.612,6.612,0,0,0,1.98-.72c.9-.63,1.35-.45,1.98-.72.54-.27,1.53-.45,1.98-.72a4.5,4.5,0,0,1,1.98-.9c.63,0,1.26-.9,1.98-.9,1.08,0,1.53-.72,1.98-.99.54-.36,1.08-.54,1.98-1.08a18.582,18.582,0,0,0,2.61-1.53c.99-.72,1.89-.81,2.61-1.53.54-.63,3.06-1.17,3.33-.72a12.5,12.5,0,0,0,2.07,2.88c1.08.72.99,1.53,2.16,2.34a18.555,18.555,0,0,1,2.34,2.25,29.257,29.257,0,0,0,2.52,2.07,17.313,17.313,0,0,0,2.34,1.53c.9.36,1.53,1.17,2.61,1.26,1.17.09,1.89.36,2.43.36a3.413,3.413,0,0,0,2.16-.63,3.365,3.365,0,0,0,.9-2.07c.09-.45-.36-.99-.81-2.25s-.99-1.62-.81-2.43c.18-.54-.09-1.26.18-2.7a12,12,0,0,1,.45-3.24c1.35-3.69.36-3.6-.45-3.69-.63-.09-1.26,1.26-1.53,2.43a10.64,10.64,0,0,1-1.35,3.24,3.733,3.733,0,0,1-2.25,2.52c-.81.18-1.26-.27-2.16-1.08a14.83,14.83,0,0,0-2.88-2.52c-.81-.63-.9-1.17-1.35-1.53-.45-.27-.63-.81-1.53-1.53-.99-.9-.36-2.88.45-3.51.63-.63,1.98-1.8,2.52-2.43.36-.45,1.8-1.71,2.34-2.25.27-.27,1.53-1.98,2.43-2.25.81-.27,3.33.63,3.06-1.35-.18-1.08-.09-1.53-.54-2.07-.63-1.08-.99-.9-1.71-1.17a7.486,7.486,0,0,0-2.16-.63,21.937,21.937,0,0,0-2.34-.54c-1.26,0-1.35,1.53-2.16,2.43a13.382,13.382,0,0,0-2.07,2.52c-.45.99-1.26,1.44-1.89,2.25-.36.63-.9.81-2.07.72-.9,0-1.8,0-1.8-1.08a23.937,23.937,0,0,0-.99-2.52,14.361,14.361,0,0,0-.99-2.7c-.18-.54.63-1.8,1.17-2.07a14.407,14.407,0,0,1,3.33-1.08,37.8,37.8,0,0,1,4.77-.09c.9,0,2.25.27,3.15.36Zm68.76-15.12a9.181,9.181,0,0,0,3.6.27c1.17-.27,2.34.18,3.6.18a18.332,18.332,0,0,1,3.06-.09c.9.18,2.16-.09,3.42.09a20.824,20.824,0,0,0,3.42-.09c1.44,0,2.25-.27,3.51-.36a18.565,18.565,0,0,0,3.42-.63c.99-.36,1.62-.36,2.25-1.08.36-.45,1.53-1.08,1.08-2.25-.27-.63-.45-1.35-1.44-1.71a2.73,2.73,0,0,1-1.44-1.71c-.36-1.08-.18-3.06,0-5.04.09-1.53-.72-3.06-1.62-3.06-.54,0-1.53.18-1.53,1.08,0,1.17-.72,1.89-.81,2.79a27.228,27.228,0,0,1-.54,3.15c-.54.9-.72,1.98-1.08,2.25-.45.36-.9.27-1.89.81-1.08.63-1.44.36-2.43.36-2.16-.09-3.96.09-4.77.09-1.08.09-2.34-.27-3.87-.18s-2.88.36-4.32-1.17c-.9-.99-.54-2.34-.63-3.33-.09-.81,0-1.98-.09-2.7-.18-1.17.45-1.53,1.35-2.34a6.586,6.586,0,0,1,2.43-1.8,26.8,26.8,0,0,1,3.33-1.26,8.142,8.142,0,0,0,3.24-1.26,5.9,5.9,0,0,1,2.52-.99,7.316,7.316,0,0,0,2.52-1.17,12.829,12.829,0,0,1,2.52-1.17c.54-.18,1.62-1.26,2.43-1.26.54,0,1.44.63,2.43.18.72-.27,2.52-.27,2.16-1.35-.27-.81-.18-1.08-.9-1.53-.99-.54-1.35-1.71-1.98-1.98a17.546,17.546,0,0,1-2.16-1.8c-.81-.72-1.08-1.17-1.62-1.17-.81,0-1.62,1.26-2.16,1.98-.63.9-1.62,1.26-2.16,1.89a8.413,8.413,0,0,1-2.25,1.8l-2.25,1.62a21,21,0,0,1-2.61,1.71,15.011,15.011,0,0,0-1.71,1.08c-.81.72-1.44.54-2.25,1.35-.45.45-1.26.18-1.89-.54-.72-.9-1.44-1.08-.99-2.61a4.863,4.863,0,0,0,0-2.79c-.27-.9.45-2.43.45-2.97a3.005,3.005,0,0,1,.99-1.89c1.35-1.08,2.16-.36,1.98-2.07a3.485,3.485,0,0,0-1.89-2.43c-1.17-.63-1.89-.36-2.79-.63-2.07-.63-4.5-.27-4.95.36s.09,2.43.09,3.15c0,1.44.36,2.07.09,2.97a15.651,15.651,0,0,0,.09,2.88c0,.99-.09,2.43,0,2.88a11.272,11.272,0,0,1-.09,4.59c-.36,1.44.09,2.88-.09,4.5a19.045,19.045,0,0,0-.18,4.5,25.049,25.049,0,0,1,0,4.5,10.59,10.59,0,0,0,.45,2.79,3.35,3.35,0,0,0,2.07,1.89Zm-22.32,36a2.152,2.152,0,0,1-2.88,2.43,11.692,11.692,0,0,0-4.41-.45c-1.98.27-3.06.9-3.24,2.07-.09.9-.09,1.62.72,1.98a13.394,13.394,0,0,1,2.34.9c.99.63,1.89.54,2.61.99.81.63.72.81,1.44,1.8.45.63,2.34-.09,3.42-.36a14.278,14.278,0,0,0,3.15-1.35,4.338,4.338,0,0,0,2.34-2.52,8.136,8.136,0,0,0,.99-3.87,25.957,25.957,0,0,1-.18-3.78c0-1.35-.36-2.43-.09-3.69a21.355,21.355,0,0,0-.09-4.86,21.49,21.49,0,0,1-.09-4.86c.18-1.26-.27-3.6,0-4.86a21.119,21.119,0,0,0,0-4.77c-.09-.9,0-2.07,0-2.79s.09-1.71,0-2.88c.09-.99-.27-1.62,0-2.79.09-.54-.72-2.43,0-2.88.81-.54,2.61-1.35,2.61-2.61.09-.54,0-.72-.72-1.62a6.733,6.733,0,0,0-1.8-1.8c-1.17-.54-1.17-1.35-2.16-1.44-1.17-.09-1.44-.9-1.71-.54a11.955,11.955,0,0,1-1.98,1.8,5.523,5.523,0,0,1-3.6,1.26c-.9,0-2.43.09-3.15,0a11.053,11.053,0,0,0-3.06,0c-1.8,0-3.51.09-4.68,0-1.89-.09-3.42.36-4.59,0-1.35-.27-2.25-1.26-3.6-1.44-.99-.09-3.24-.36-3.69.27-.81,1.17,0,2.16.09,3.69.09,1.71.45,2.16,0,3.6-.27.99.09,2.79,0,3.69-.09.99.36,2.79.09,3.6a19.137,19.137,0,0,0,0,3.96c0,1.62-.18,2.88-.09,4.05a15.149,15.149,0,0,1,0,4.05c-.18,1.26.27,2.52,0,4.05-.27,1.44.09,2.43,0,4.05a27.709,27.709,0,0,0-.09,3.96,12.125,12.125,0,0,1-.09,4.05c-.54,1.8-.09,2.52-.09,4.05-.09,1.26-.72,1.71.09,2.88.54.81-.09,1.44.54,1.8.36.27.09,1.44,1.08,2.16.9.63,1.71,0,2.97-.63a3.026,3.026,0,0,0,1.62-2.34,20.242,20.242,0,0,0,0-4.68,9.871,9.871,0,0,1,0-4.59c.36-1.62-.63-3.42,0-4.86a12.2,12.2,0,0,1,1.62-2.7c.9-1.17,1.71-1.8,2.97-1.44a9.051,9.051,0,0,0,2.7,0c1.08,0,1.89-.36,2.7,0,.99.45,1.62,0,2.7,0,.9.09,1.53-.09,2.7,0,1.26-.09,1.89.27,2.97,1.62,1.08,1.26,1.53,1.89,1.62,3.15a26.951,26.951,0,0,1,0,2.7Zm0-18.81a5.323,5.323,0,0,1-1.62,3.33c-.9.9-2.07,1.8-2.97,1.8a26.865,26.865,0,0,0-2.7,0c-1.17,0-1.62-.36-2.7,0-1.26.36-1.35-.18-2.7,0-1.26.18-1.8-.27-2.7,0-1.08.45-2.16-.45-2.97-.9-.54-.27-1.53-.81-1.62-1.71a11.589,11.589,0,0,1,0-3.06,7.584,7.584,0,0,1,1.62-3.33,4.861,4.861,0,0,1,2.97-1.71c.99-.09,2.16.09,2.7,0a13.5,13.5,0,0,1,2.7,0,27,27,0,0,0,2.7,0,9.029,9.029,0,0,1,2.7,0,15.087,15.087,0,0,1,2.97.81c1.08.36,1.71.81,1.62,1.71C351.17-24.57,351.26-23.13,351.26-22.59Zm-9.99-9.09c-1.08.09-1.53-.18-2.7,0a4.6,4.6,0,0,1-2.7,0c-.9-.36-2.07-.27-2.97-.9-.81-.54-1.44-.63-1.53-1.71-.09-.72.18-2.16.18-3.15a4.318,4.318,0,0,1,1.62-2.88,5.3,5.3,0,0,1,2.7-1.44,4.776,4.776,0,0,0,2.97,0c.72-.36,1.62-.18,2.88,0a19.364,19.364,0,0,0,5.13,0,3.879,3.879,0,0,1,2.88.72c.9.63,1.44.99,1.53,1.62.18.81-.09,1.89,0,2.97.27,1.08-.9,2.16-1.62,3.06a4.949,4.949,0,0,1-2.97,1.71c-.81.27-1.53-.18-2.7,0Zm16.2-30.6c-.54-.36-1.71-1.17-2.97-1.89a21.832,21.832,0,0,0-3.24-1.8c-1.44-.54-2.52-1.17-2.97-1.08-.9.18-1.17.27-1.71.36-.81.18.09.9,1.62,2.25.99.99,1.35.9,1.98,1.71.54.81,1.71,1.44,2.16,2.16s-.36,1.53-1.26,1.89a35.647,35.647,0,0,1-4.14,1.17c-1.53.09-2.88.63-4.5.27-.81-.09-1.89.09-3.24.09-1.53,0-3.51-.45-4.23-1.17-.9-.9-1.26-1.89-.45-2.61a22.651,22.651,0,0,0,2.07-2.61,14.979,14.979,0,0,0,1.62-2.16c.45-.81.99-1.08,1.44-1.98.27-.45.18-1.08,1.26-1.8.72-.45,3.6,0,3.24-1.71a6.01,6.01,0,0,0-.81-2.07c-.54-.99-1.26-.72-1.8-.99-1.35-.72-2.7-.27-3.33-.72-.9-.72-2.16-1.26-2.7-.9a2.961,2.961,0,0,0-.9,2.61c.09,1.17-.99,1.62-.9,2.52,0,1.08-.72,1.62-.99,2.34-.27.54-.72,1.89-.99,2.34-.45.63-.54,1.71-1.08,2.34-.81.99-.72,1.8-1.08,2.34a18.916,18.916,0,0,1-1.17,2.34c-.36.45-.63,2.25-1.17,2.34a5.583,5.583,0,0,0-2.61-.09c-.81.09-1.35-.09-2.52.09-.9.18-2.79-.45-3.69.09-.36.18.36,1.35.45,1.98a14.809,14.809,0,0,0,.81,2.97,24.754,24.754,0,0,0,1.26,2.7c.54,1.08.63,1.53,1.44,1.26.9-.27,2.34-1.98,2.7-2.16a2.792,2.792,0,0,1,1.98-.81c.72.18,1.89-.36,2.61-.36a16.658,16.658,0,0,0,2.61-.27c1.17.09,2.79-.54,3.87-.54a11.211,11.211,0,0,0,3.96-.54,11.211,11.211,0,0,1,3.96-.54,10.41,10.41,0,0,0,3.96-.63,6.9,6.9,0,0,1,2.43-.36,17.407,17.407,0,0,0,2.43-.36c.72,0,3.06-.54,3.24-.09.54.9.45,1.89.81,2.52a17.355,17.355,0,0,0,1.17,1.89,3.225,3.225,0,0,0,2.16.81c1.35,0,1.89-.27,2.43-1.44a18.363,18.363,0,0,0,.72-2.7,5.231,5.231,0,0,0-.45-2.61,8.731,8.731,0,0,0-1.26-2.34,13.523,13.523,0,0,0-1.89-2.16ZM388.61-1.89a19.807,19.807,0,0,1-5.13.09,32.586,32.586,0,0,0-4.05-.18,4.221,4.221,0,0,1-2.16-.36c-.54-.18-1.98,0-2.34-.81a9.372,9.372,0,0,1-.54-4.32l-.09-3.78a4.632,4.632,0,0,1,1.35-3.15c.99-.81,1.44-2.07,2.52-2.25.72-.18,1.8-1.08,3.24-1.08a7.245,7.245,0,0,0,3.24-1.08c.45-.36,1.53-.27,2.61-.9a15.169,15.169,0,0,1,2.52-1.08,11.076,11.076,0,0,0,2.52-1.08,20.2,20.2,0,0,1,2.43-1.17c1.08-.45,1.8.18,2.52.18.81,0,1.98.18,2.16-1.35a1.617,1.617,0,0,0-.81-1.62,13.017,13.017,0,0,1-1.98-1.89,14.1,14.1,0,0,0-2.25-1.8c-.81-.45-.72-.99-1.53-1.08-1.44-.09-1.62,1.62-2.25,1.89A4.231,4.231,0,0,0,388.34-27c-.63.81-1.44.99-2.25,1.71-.72.81-1.62.9-2.34,1.53-.9.81-1.89.54-2.61,1.53-.36.54-.72.63-1.8.99a7.711,7.711,0,0,0-2.25,1.26,1.178,1.178,0,0,1-1.89-.36c-.54-.81-1.26-1.17-.9-2.16.18-.72-.18-1.62,0-2.52a8.522,8.522,0,0,1,.36-2.52c.54-.99.54-1.44.99-1.62a4.4,4.4,0,0,0,1.98-2.07c.27-.72-.81-.9-1.35-1.17a12.661,12.661,0,0,0-2.88-.81c-1.35-.27-1.89-.63-3.15-.45-.9.18-1.62-.9-2.25-.27-.54.63.09,2.16.09,2.88a12.647,12.647,0,0,0,.09,2.79,13.324,13.324,0,0,0,0,2.7c.18.72,0,2.16.09,2.7a14.375,14.375,0,0,1-.09,3.42,14.493,14.493,0,0,0,0,3.42,14.488,14.488,0,0,1,0,3.42,23.432,23.432,0,0,0-.09,3.51c-.09,1.08-.45,2.25-.18,2.88.36.99,0,1.71,0,4.05a6.976,6.976,0,0,0,.45,2.7,3.466,3.466,0,0,0,2.07,1.98,12.293,12.293,0,0,0,2.79.72c1.53.09,2.34.36,3.6.36,1.08,0,2.16.18,3.6.09,1.26-.27,2.34.27,3.06,0,.99-.45,1.62-.18,3.78,0a23.845,23.845,0,0,1,2.97-.09c1.08-.09,1.8-.09,3.15-.27a19.223,19.223,0,0,0,3.15-.54l2.7-.81c.99-.27.99-.63,1.89-1.17a1.78,1.78,0,0,0,.81-1.71c-.18-1.17-.72-1.26-1.44-1.71-.63-.45-1.35-1.08-1.44-1.71-.18-1.35.27-2.34.27-4.14,0-1.44.81-3.24.45-4.5-.09-.36-.54-1.98-1.89-1.71a2.26,2.26,0,0,0-1.71,2.61,6.891,6.891,0,0,1,0,3.6c-.36,1.35-.99,2.16-1.17,3.06a3.881,3.881,0,0,1-1.53,2.16,4.436,4.436,0,0,1-2.07.99ZM35.711,108.692c-1.005.067-2.01-.067-2.68-.067a19.1,19.1,0,0,0-2.948-.2c-1.34.2-2.144-.4-3.015-.536a16.084,16.084,0,0,1-2.948-.8,12.617,12.617,0,0,1-2.546-1.206,12.511,12.511,0,0,1-2.01-1.742,10.913,10.913,0,0,1-1.407-2.278,11.808,11.808,0,0,1-.469-2.948,14.457,14.457,0,0,1,.4-3.149,10.831,10.831,0,0,1,1.072-2.948,13.338,13.338,0,0,0,.8-1.474A9.2,9.2,0,0,1,20.837,90c.4-.67.8-.8,1.072-1.34.2-.6.8-.536,1.139-1.273.134-.335,1.005-.8,1.206-1.206.268-.536.737-.737,1.273-1.206a5.02,5.02,0,0,1,1.34-1.005,3.684,3.684,0,0,0,1.34-1,4.97,4.97,0,0,1,1.474-.871c.469-.268.6-.6,1.407-.871a16.329,16.329,0,0,1,2.747-1.206,14.208,14.208,0,0,1,2.546-.871,18.005,18.005,0,0,0,2.68-.6c.67-.134,1.474-.134,2.68-.4a9.363,9.363,0,0,1,2.747-.335,5.378,5.378,0,0,0,2.01-.268c.938-.4,2.01-.67,2.077-1.809.067-.737-.6-1.541-1.072-2.345-.469-.871-1.407-.67-2.345-1a2.7,2.7,0,0,0-2.345.4c-.536.268-1.407.2-1.608.4a2.031,2.031,0,0,1-1.608.4c-.8.067-1.943.4-3.216.67a30.355,30.355,0,0,1-3.35.4c-1.139,0-2.01.2-3.283.2a19.17,19.17,0,0,1-3.484-.134,15.019,15.019,0,0,1-3.082-.469,10.567,10.567,0,0,0-1.742-.871c-.938-.268-1.139-.871-1.943-1.273-.469-.268-1.474-.67-1.809-.938-.469-.335-.67-.335-1.139.134a1.073,1.073,0,0,0,.067,1.273c.268.335.737,1.072,1.273,1.742A5.364,5.364,0,0,0,19.7,75.929c.469.2,1.139.871,1.742,1.206a6.536,6.536,0,0,0,1.742.8,2.2,2.2,0,0,1,2.211,1.809c.2.871.335,1.474-.469,2.211-.536.469-1,.737-1.407,1.139a5.734,5.734,0,0,0-1.273,1.139,10.251,10.251,0,0,1-1.206,1.206A6.725,6.725,0,0,0,19.9,86.649c-.268.4-.737.6-1.072,1.273-.268.6-.938.67-1.005,1.273-.134.8-.67.871-.938,1.407a8.739,8.739,0,0,1-.8,1.407c-.469.469-.4.871-.67,1.541a4.039,4.039,0,0,1-.6,1.474c-.6.737-.268,1.273-.4,1.608a10.053,10.053,0,0,0-.335,3.417,6.418,6.418,0,0,0,.2,2.077c.268.871.268,1.139.469,1.943a3.9,3.9,0,0,0,.737,1.675c.335.4.469,1,1.005,1.474.335.268.737.871,1.273,1.273a11.988,11.988,0,0,0,1.407,1.139,14.814,14.814,0,0,1,1.608.938c.469.469,1.407.6,1.742.8.4.2,1.139.335,1.809.6a5.421,5.421,0,0,0,1.876.536l1.943.4c.4.067,1.273.268,1.943.335a17.3,17.3,0,0,1,1.943.2c.268.067,1.34,0,1.876.134,1.139.335,2.613,0,3.551.134a15.333,15.333,0,0,0,3.015-.067,30.522,30.522,0,0,1,3.484-.067,23.384,23.384,0,0,0,3.551-.335c.8-.067,2.144.067,3.015-.6.335-.268,1.206-.6,1.474-.871a2.331,2.331,0,0,0,.6-1.474,4.2,4.2,0,0,0-.469-1.474,6.286,6.286,0,0,0-1.273-1,4.051,4.051,0,0,0-3.082-.6,25.468,25.468,0,0,1-2.68.469,9.335,9.335,0,0,0-2.278.469,11.477,11.477,0,0,1-2.412.268c-.469,0-1.809.2-2.345.2ZM87.569,75.661a19.73,19.73,0,0,0-2.211,1.273,7.482,7.482,0,0,0-2.077,1.474c-.737.67-1.541,1-1.943,1.675a11.3,11.3,0,0,1-1.675,1.809,14.745,14.745,0,0,0-1.541,1.943l-1.34,2.144c-.335.469-.6,1.608-1,2.278a7.636,7.636,0,0,0-.8,2.479,16.369,16.369,0,0,1-.469,2.613,8.727,8.727,0,0,0-.2,2.68,21.794,21.794,0,0,1,.2,2.948,12.313,12.313,0,0,0,.6,2.881,23.238,23.238,0,0,0,1.072,2.747l.67,1.273a2.178,2.178,0,0,0,.871,1.206,7.617,7.617,0,0,1,1,1.072,6.291,6.291,0,0,0,1.206.938,4.614,4.614,0,0,0,2.747.871c.871-.134,2.144,0,2.613-.536a4.225,4.225,0,0,1,1.407-1.005,1.935,1.935,0,0,0,1.139-1c.2-.536.8-.6,1-1.206.134-.469.67-.67.938-1.206a12.215,12.215,0,0,1,1.608-2.345,7.737,7.737,0,0,0,1.407-2.211,16.9,16.9,0,0,1,1.273-2.345c.469-.8.737-1.407,1.273-2.345a26.757,26.757,0,0,0,1.206-2.412,21.686,21.686,0,0,0,1.206-2.479c.2-.6,1-1.809,1.206-2.546.268-.737.8-1.742,1.139-2.613.2-.6.938-1.809,1.206-2.68a7.058,7.058,0,0,0,.938-2.747,3.687,3.687,0,0,0-.67-2.278,3.587,3.587,0,0,1-1.139-1.809,1.086,1.086,0,0,1,.8-1.072,7.469,7.469,0,0,1,2.412.067,8.364,8.364,0,0,0,2.278.268,9.128,9.128,0,0,1,2.211.4,7.566,7.566,0,0,1,2.077.67l2.01.8a10.109,10.109,0,0,1,1.876,1.005,19.344,19.344,0,0,0,1.809,1.273c.6.536,1.407,1.139,1.608,1.407a3.467,3.467,0,0,0,1.072,1.139c.6.335.469.871.871,1.206.4.469.737.737.8,1.34a3.606,3.606,0,0,0,.67,1.34,10.314,10.314,0,0,1,.938,2.881c0,1,.469,1.943.335,3.015-.067.6-.067,1.608-.134,2.412-.067.938,0,1.742-.4,2.211-.536.469-.469,1.34-.67,2.077-.268.871-.8,1.541-.871,1.943-.2.8-.938,1.072-1.072,1.742-.134.8-1.005,1.139-1.273,1.608a3.747,3.747,0,0,1-1.407,1.474,9.044,9.044,0,0,0-1.608,1.206c-.737.469-.871.737-1.675,1.273-.871.4-.938.871-1.675,1.139-1.072.4-1.608.871-2.144,1-.67.2-1.206.6-1.742.737a12.159,12.159,0,0,1-2.01.737,3.762,3.762,0,0,1-1.876.67c-.536-.067-1.541.536-2.144.6a8.361,8.361,0,0,0-2.814.737c-.938.469-.469,2.479.536,2.613a4.115,4.115,0,0,0,2.412.2,7.172,7.172,0,0,1,2.01-.335c.8-.134,1.34-.335,2.144-.536a7.682,7.682,0,0,1,1.876-.536,9.26,9.26,0,0,0,2.077-.871c.67-.4,1.072-.268,1.876-.8a4.255,4.255,0,0,1,1.809-.67,6.063,6.063,0,0,0,2.077-1.072c.4-.2.737-.67,1.206-.737a2.771,2.771,0,0,0,1.407-.871,4.131,4.131,0,0,1,1.206-.871,2.568,2.568,0,0,0,1.139-.938c.469-.536.536-.8,1-1,.536-.2.6-.4.938-1a7.533,7.533,0,0,1,1.675-2.278,7.452,7.452,0,0,0,1.34-2.479,7.1,7.1,0,0,0,1-2.613c0-.871.6-1.742.6-2.881,0-.737.134-1.675.2-3.082-.067-.737-.067-1.809-.134-2.412a17.222,17.222,0,0,0-.4-2.345,10.086,10.086,0,0,0-.737-2.144c-.4-.8-.6-1.541-.871-2.01a15.358,15.358,0,0,0-1.139-1.876,7.6,7.6,0,0,0-1.34-1.742,6.712,6.712,0,0,1-1.541-1.541,9.812,9.812,0,0,0-1.675-1.407c-.67-.536-1.206-.67-1.809-1.206a5.768,5.768,0,0,0-1.943-1.072,10.343,10.343,0,0,0-2.077-.938c-.6-.134-1.206-.536-2.144-.737a7.746,7.746,0,0,1-2.144-.536A4.117,4.117,0,0,0,107,72.311a7.028,7.028,0,0,1-2.278-.268,3.8,3.8,0,0,0-2.278-.067,6.539,6.539,0,0,1-2.546.134,17.429,17.429,0,0,0-2.613.335c-1.005.067-1.742.536-2.479.469-.938-.067-1.675.6-2.412.737a6.865,6.865,0,0,0-2.479.871ZM94.2,88.726c-.268.938-1,1.675-1.072,2.211-.134.536-.536.8-.737,1.474a3.265,3.265,0,0,1-.67,1.474,8.043,8.043,0,0,0-.8,1.407c-.134.67-.4.8-.737,1.407a6.718,6.718,0,0,1-.871,1.407c-.335.335-.469.938-.871,1.407-.469.67-.737.871-1.005,1.273a7.73,7.73,0,0,1-1,1.34,6.726,6.726,0,0,1-1.541,1.541,4.9,4.9,0,0,1-2.077.6c-1.005.268-1.541-.2-2.144-1.072a11.63,11.63,0,0,1-1.34-2.747,27.8,27.8,0,0,1-.737-3.216,7.118,7.118,0,0,1-.2-2.613l.4-3.417a4.2,4.2,0,0,1,.469-1.675,13.015,13.015,0,0,0,.67-1.608c.335-.737.536-.871.8-1.608.335-.871.871-1.139.938-1.474a4.969,4.969,0,0,1,1.072-1.34,5.71,5.71,0,0,0,1.139-1.273c.2-.469.737-.737,1.34-1.273a7.826,7.826,0,0,1,1.407-1.072,11.519,11.519,0,0,0,1.474-.938,3.524,3.524,0,0,1,1.675-1.005c.8-.2.871-.536,1.541-.737a7.328,7.328,0,0,1,2.546-.67,3.809,3.809,0,0,1,2.479.268c1.206.6.8,3.082.8,3.35,0,.469.2,1.005-.268,1.541-.536.6-.469,1.742-.8,2.345a9.533,9.533,0,0,0-.871,2.345Zm77.766-27.838V57.08a22.867,22.867,0,0,0,0-3.92,21.61,21.61,0,0,1,0-3.808c0-1.232.112-2.688,0-3.92-.448-1.792-.112-2.464,0-4.032l-.112-3.92c.112-1.008,1.344-3.36,0-3.92-1.568-.672-3.36,1.344-4.032,1.456a32.053,32.053,0,0,0-3.92,1.344,20.159,20.159,0,0,1-3.92,1.344c-.784.112-2.688.9-3.92,1.232-1.232.448-1.792.112-2.912.672a10.15,10.15,0,0,1-3.024.448c-1.12,0-2.016.784-3.024.672a7.315,7.315,0,0,0-3.136,1.008c-2.016.784-2.464,1.232-2.464,2.016a2.855,2.855,0,0,0,2.576,2.464A9.208,9.208,0,0,0,148,46.1a9.716,9.716,0,0,1,4.032,0,9.081,9.081,0,0,0,3.92.224,6.451,6.451,0,0,1,4.48,1.232,4.33,4.33,0,0,1,1.792,3.7c-.112,1.344.112,3.248,0,4.7-.56,2.24-.112,3.024,0,5.04-.112,1.456,0,3.808,0,5.152v5.04a39.279,39.279,0,0,1,0,5.152V81.5c-.224,1.792.336,3.472,0,5.04-.112,2.128,0,3.36,0,5.152,0,1.9-.336,3.7,0,5.04s-.112,3.248-.112,4.032a7.183,7.183,0,0,1-1.232,3.472,3.264,3.264,0,0,1-2.352,1.456l-3.024.784c-2.016.672-4.368.224-5.936.224a11.058,11.058,0,0,1-2.912-.336c-1.008-.224-1.792.224-3.024.672-1.232.336-2.464,1.456-2.464,2.24,0,.9.9,1.344,2.464,2.24a5.424,5.424,0,0,0,2.912.784h2.912c1.68-.112,3.584-.56,5.6-.56a48.081,48.081,0,0,0,5.712,0h5.712a29.831,29.831,0,0,1,5.488,0,46.667,46.667,0,0,0,5.6,0c1.456.112,3.248,0,5.6,0,1.9,0,5.264,1.12,5.824-.224.672-1.456.448-4.7-2.24-4.7a10.418,10.418,0,0,0-3.248,0c-1.232.224-1.68-.112-3.248-.224a27.965,27.965,0,0,1-3.136-.56,10.456,10.456,0,0,1-2.8-1.12c-1.456-.9-1.792-1.792-2.24-4.032-.224-1.68.224-3.248-.112-5.152a21.579,21.579,0,0,1,0-3.808c0-1.792-.112-2.688,0-3.92-.112-1.68.224-2.8,0-3.808a21.108,21.108,0,0,1,0-3.808c.112-.784-.112-2.352,0-3.92a22.815,22.815,0,0,0,0-3.92,21.453,21.453,0,0,1,0-3.808c.112-.9-.112-2.352,0-3.92Zm92.064,19.376c-1.456.56-2.576,0-3.808,0a48.5,48.5,0,0,1-5.712,0c-1.68-.112-3.808.448-5.824,0-2.352-.336-4.144.56-5.712,0a14.016,14.016,0,0,0-5.712,0c-1.568.448-4.032-.224-5.712,0s-4.032.56-5.712,0c-.56-.112-.784-1.12-2.24-1.232-1.12-.112-1.456-1.008-2.352-1.008-1.008,0-1.232-.672-2.464-.784-1.344-.112-2.24-1.12-2.688-.9-1.344.9.224,4.032.112,5.04-.224,1.792.112,3.584,0,4.592a21.855,21.855,0,0,0,.112,4.7c.112,1.792-.112,3.36,0,4.592.336,1.344-.336,3.136-.112,4.7a33.383,33.383,0,0,1-.112,4.7c0,1.568.336,2.912-.112,4.592-.224,1.792.56,2.912-.112,4.7-.336,1.008,0,1.456,0,2.352,0,.784.112,2.8,0,4.7,0,1.12-.336,2.912,2.24,3.7,1.12.336,2.352-.336,3.808-1.008,1.344-.672,1.9-1.344,2.016-3.7a2.25,2.25,0,0,1,1.9-1.9c1.68-.224,2.8-.784,3.808-.784,2.24-.112,4.816.112,6.272,0a37.366,37.366,0,0,1,6.16,0c1.68.112,4.256.448,6.048,0,1.456-.448,4.144.56,6.048,0,1.9-.224,3.808.224,6.16,0,2.352,0,4.816-.56,6.272,0,.672.224,2.8-.112,3.808.784.784.56,1.232,1.008,2.128,1.568.56.448.336,3.024,1.568,3.92,1.12.9,2.24-.56,3.92-.9a3.247,3.247,0,0,0,2.464-3.7,37.246,37.246,0,0,0-.112-3.808c-.56-1.456.336-2.688-.112-3.472s.224-3.024,0-4.032a38.569,38.569,0,0,1-.112-4.032c-.112-1.568,0-3.136,0-3.92V95.72c0-2.128-.112-3.808,0-6.16a6.162,6.162,0,0,1,1.232-3.36c.784-.9,2.352-1.008,2.352-2.688a1.738,1.738,0,0,0-1.12-1.9c-.9-.56-1.792-2.016-2.352-2.352-1.456-.9-2.352-1.792-2.912-2.016-1.008-.336-1.344-1.12-2.24-.784-.9.224-2.128,1.68-2.8,2.352-.56.784-3.472,1.792-4.368,1.456ZM272.1,94.936c.112,1.9-.112,2.912,0,3.808,0,1.68-.112,2.352,0,3.92.112,1.12,0,2.352,0,3.808a6.521,6.521,0,0,1-1.9,4.256c-.9,1.008-2.352,2.352-3.584,2.24a58.487,58.487,0,0,0-6.272,0c-2.464,0-3.92-.336-6.16,0-2.464.112-4.368-.336-6.048,0-2.576.112-4.256,0-6.048,0-2.464,0-4.592.112-6.16,0a29.348,29.348,0,0,0-6.272,0c-1.68.224-2.464-.784-3.584-2.128a7.173,7.173,0,0,1-1.792-4.144c-.112-.672,0-2.912,0-3.7.112-1.344,0-3.024.112-3.7a13.4,13.4,0,0,1,.224-4.144c.112-.784,0-2.464.224-4.256a6.363,6.363,0,0,1,2.016-4.144,10.4,10.4,0,0,1,3.36-2.128c.56-.336,1.792-.112,3.36,0,1.008.112,2.464-.448,3.36,0,1.456.448,4.144-.224,5.936,0a26.218,26.218,0,0,0,5.936,0c1.568-.112,4.48.112,5.936,0a33.649,33.649,0,0,1,5.824,0c2.352-.112,4.032.448,6.272,0,1.008-.224,2.016.672,3.472,2.24a11.573,11.573,0,0,1,1.792,4.256C272.208,91.8,272.1,93.7,272.1,94.936Zm11.872-44.912a9.651,9.651,0,0,1-2.8-2.128,13.32,13.32,0,0,0-3.024-1.9c-1.568-.672-2.24-1.792-3.7-2.128a30,30,0,0,1-4.256-2.128,11.857,11.857,0,0,0-3.808-1.12c-.9-.112-2.016-.448-2.128.56-.112.9.448,2.016,2.688,3.136.672.448,2.24.9,2.8,1.9a4.306,4.306,0,0,0,2.352,1.792c1.008.448,1.456,2.016,2.352,2.464.672.336,1.12,2.352,1.344,3.136A1.409,1.409,0,0,1,274.56,55.4c-1.568.672-3.248,0-3.808.224a5.277,5.277,0,0,1-3.136.224c-1.568-.672-3.7.336-5.376.448-2.016.112-3.136.224-4.7.224-1.232,0-3.136.672-4.7.336a39.108,39.108,0,0,0-4.592.336c-1.456,0-2.912.224-4.7.224-2.016,0-3.472.224-4.928.224-.784,0-2.24.112-3.136.112a25.781,25.781,0,0,0-3.92.224,2.5,2.5,0,0,1-2.912-1.232,2.058,2.058,0,0,1,.224-2.576,18.762,18.762,0,0,1,2.128-2.688c.672-.672,1.344-1.12,1.568-2.128a7.375,7.375,0,0,1,2.688-3.472,16.618,16.618,0,0,0,2.352-3.36c.672-1.344,1.68-2.24,2.24-3.472a21.815,21.815,0,0,1,2.24-3.36c.784-1.12,1.008-2.464,2.128-3.584.448-.448,1.9-.112,3.136-.224a1.934,1.934,0,0,0,2.24-2.464,7.2,7.2,0,0,0-1.12-2.688,4.318,4.318,0,0,0-2.688-1.344c-1.9-.336-3.7-1.008-4.928-1.008-1.008-.112-2.464-1.344-3.584-1.12-1.9.336-1.232,3.36-1.792,4.7l-1.68,4.592a21.464,21.464,0,0,1-1.9,4.48c-.56,1.232-1.232,2.912-2.016,4.368a37.031,37.031,0,0,0-2.128,4.256,31.3,31.3,0,0,1-2.24,4.368c-.56.784-1.344,2.912-2.352,4.144-1.232,1.568-1.232,3.248-2.352,4.032-1.568,1.12-3.472.112-4.816.112l-4.928.112a35.133,35.133,0,0,1-4.928,0,24.155,24.155,0,0,0-4.928,0c-1.008.112-2.688-.784-3.248,0-.672.9,1.12,3.024,1.12,3.7,0,.784,1.008,2.8,1.568,4.816.336,1.12,1.232,1.456,1.344,2.688a1.5,1.5,0,0,0,1.68,1.232c1.568-.336,2.464-1.9,2.912-2.24.672-.448,2.576-1.9,3.584-1.792.448,0,2.352-.336,3.136-.336a27.461,27.461,0,0,0,3.024-.224c1.456-.336,2.576-.112,4.7-.448,1.344-.224,3.136-.112,4.7-.448,1.008-.224,3.36-.336,4.592-.448,1.9-.224,2.688-.672,4.7-.448a9.7,9.7,0,0,0,4.592-.448c1.9-.672,3.024-.224,4.592-.56a22.212,22.212,0,0,1,4.592-.56c1.9,0,2.688-.448,4.592-.56s3.584-.56,4.7-.56a26.643,26.643,0,0,0,4.592-.56,31.563,31.563,0,0,1,4.592-.672c1.456-.112,3.024.336,4.7-.56.784-.448,1.456.112,3.024-.448a10.41,10.41,0,0,1,3.024-.448c1.12,0,4.256,1.12,4.368,1.9.112.9,1.008,1.792,1.456,2.576L285.2,66.04c.56,1.008,1.232,2.8,2.128,3.472s2.352,1.9,3.36,1.68a6.315,6.315,0,0,0,3.024-1.456,6.591,6.591,0,0,0,1.232-3.248c.112-.672-.448-1.68-.448-3.248s-.9-2.016-1.344-3.024a5.225,5.225,0,0,0-1.9-2.8,16.989,16.989,0,0,1-2.128-2.464,10.937,10.937,0,0,0-2.464-2.576ZM318.04,69.765a1.95,1.95,0,0,0-2.412-.938c-.871.4-.268,1.139.134,2.278a10.744,10.744,0,0,1,1.139,2.814,8.5,8.5,0,0,1-.2,2.345c-.335.67-.2,1.608-.6,2.814a10.8,10.8,0,0,0-.67,2.948c-.134.8-.469,2.211-.6,2.881-.2,1.139-.469,2.01-.536,2.948a9.262,9.262,0,0,1-.536,2.948,2.469,2.469,0,0,0-.268,2.01,8.4,8.4,0,0,1-.268,2.077,18.208,18.208,0,0,1-.2,2.077,4.113,4.113,0,0,0-.067,2.01c.134,1.005-.067,2.077,0,3.216a27.245,27.245,0,0,0,.268,3.149,20.5,20.5,0,0,0,.4,3.015,10.636,10.636,0,0,1,.8,3.015c.134.6.268.67.469,1.34a4.236,4.236,0,0,0,.8,1.608c.335.335.4,1.072,1.072,1.34.335.134.536.6,1.34.6.871,0,1.675-.536,1.809-1.943a3.551,3.551,0,0,0-.134-1.742,12.947,12.947,0,0,1-.335-2.144c0-.67-.2-1.139-.2-1.742a6.978,6.978,0,0,0,.134-2.546,7.576,7.576,0,0,1,.4-1.943,18.486,18.486,0,0,1,.536-1.809c.335-.8.335-1.273.536-1.809a9.046,9.046,0,0,1,.6-1.742,7.017,7.017,0,0,0,.737-1.742,16.681,16.681,0,0,1,.737-1.742,12.657,12.657,0,0,0,.737-1.675c.268-.737.469-.938.737-1.742a7.953,7.953,0,0,1,.67-1.407,2.333,2.333,0,0,0,.67-1.474c0-.6.4-.871.737-1.407a5.551,5.551,0,0,1,.8-1.407c.67-.6.737-.871.8-1.273,0-.67.737-.67.938-1.273a2.556,2.556,0,0,1,1.072-1.206c.536-.4.536-.871,1.072-1s.536-.737,1.206-.938c.469-.134.6-.871,1.407-.8.536.067.871-.6,1.608-.737a20.58,20.58,0,0,0,2.077-.737,2.49,2.49,0,0,1,1.474.536c.268.737-.134.938-.469,1.675-.268,1-.737,1.273-1.541,1.876a5.6,5.6,0,0,0-1.206,1.541c-.469.737-.536,1.206-1.005,1.407-.6.268-.6.8-.871,1.34-.4.737-.871.8-.871,1.34a1.74,1.74,0,0,1-.67,1.34c-.4.4-.268.8-.67,1.407a3.447,3.447,0,0,0-.6,1.474c-.2,1.072-.6,1.809-.737,3.015a22.983,22.983,0,0,1-.268,3.149,10.833,10.833,0,0,0,.134,2.144c.067.871.335,1.139.4,1.943,0,.469.536,1.206.67,1.742.134.8.268,1.273.871,1.541.469.2.737.8,1.072,1.273.4.6.469,1.005,1.273,1.206.6.067.8.67,1.407,1,.67.335.871.871,1.541.8.469,0,.871.335,1.675.737.469.268,1.139.134,1.742.536.469.335,1.005.2,1.809.469.335.134,1.34.2,1.876.335.67.134.938.536,1.876.268.67-.2,1.206.268,1.876.2.938-.067,2.345.2,3.618.067a10.7,10.7,0,0,1,2.077,0,7.976,7.976,0,0,0,2.144-.067,11.8,11.8,0,0,0,2.211-.2,12.548,12.548,0,0,1,2.077-.335,2.572,2.572,0,0,0,1.675-.871,1.876,1.876,0,0,0,.67-1.675,2.367,2.367,0,0,0-1.742-2.01,9.389,9.389,0,0,0-2.747-.67c-.6-.067-1.206.335-2.144.335-.67,0-1.876.4-2.479.469a6.111,6.111,0,0,1-2.479.067,10.325,10.325,0,0,0-2.881,0,13.5,13.5,0,0,1-3.082-.268,11.331,11.331,0,0,1-3.015-.469,12.447,12.447,0,0,1-2.814-.8,20.711,20.711,0,0,1-2.479-1.34A8.222,8.222,0,0,1,334.924,103a6.233,6.233,0,0,1-1.273-2.479,12.156,12.156,0,0,1-.2-5.9,20.615,20.615,0,0,1,.737-2.613c.134-.938.737-1.474,1.139-2.613a7.3,7.3,0,0,1,1.474-2.412,13.583,13.583,0,0,0,.871-1.206c.2-.4.469-.536.938-1.072a14.932,14.932,0,0,1,1.943-2.077,13.185,13.185,0,0,1,2.144-1.876,22.9,22.9,0,0,0,2.278-1.541,4.292,4.292,0,0,1,1.474-.737,3.079,3.079,0,0,1,1.541-.4c.871,0,1.809-.2,3.35-.2a13.314,13.314,0,0,1,2.278.067,5.5,5.5,0,0,0,2.345,0,4.117,4.117,0,0,0,2.01-.335A1.615,1.615,0,0,0,359.044,76a3.34,3.34,0,0,0-.737-1.876,4.763,4.763,0,0,0-1.608-.871,6.774,6.774,0,0,0-3.484-.335c-1.206.134-2.948,0-3.886.067-.871.067-1.407.067-2.01.134a10.746,10.746,0,0,0-1.943.2c-.938.335-1.005,0-1.876.2a5.908,5.908,0,0,1-1.943.4c-.469,0-1.072.268-1.876.4a2.857,2.857,0,0,0-1.876.6c-.737.6-1.541.4-2.479.938A9.887,9.887,0,0,1,333.115,77a8.048,8.048,0,0,0-2.01,1.273c-.8.737-1.407,1.139-1.809,1.474a18.139,18.139,0,0,0-1.608,1.608c-.871.8-.8,1.206-1.474,1.876a4.593,4.593,0,0,0-1.407,2.077,5.775,5.775,0,0,1-1.273,2.278c-.469.268-.4,1.139-.938,1.809a18.58,18.58,0,0,0-1.005,1.943c-.335.6-.871,1.876-1.139,2.278-.469.6-.67,1.608-1.273,2.68-.268.536-.8,1.139-.938,1.541-.2.737-.67.8-1.005.737-.871-.134-.871-1.34-.737-2.144a7.078,7.078,0,0,0,.2-1.943,5.565,5.565,0,0,1,.2-1.809,3.957,3.957,0,0,1,.268-1.742,1.937,1.937,0,0,0,.4-1.675c-.2-.67,0-.938.4-1.742a2.566,2.566,0,0,0,.469-1.675,2.811,2.811,0,0,1,.469-1.608c.4-.536.268-1.273.737-2.345a10.081,10.081,0,0,0,1.206-2.747c.067-.335.8-.8.67-1.809a8.414,8.414,0,0,0-.4-2.546c-.4-.8-.2-1.876-1.072-2.345-.335-.2-.536-.67-.938-1.273ZM419.288,39.16c0,1.232.224,2.912.224,3.584a23.458,23.458,0,0,0,.56,3.584,21,21,0,0,0,.672,3.472c.336,1.12,0,2.688.672,3.472a5.013,5.013,0,0,1,.784,3.36,6.225,6.225,0,0,0,.672,3.472,9.872,9.872,0,0,1,.448,3.472c.224,1.456.672,2.128.448,3.36-.336,1.232.112,2.016.336,3.472a13.331,13.331,0,0,1,.224,3.472,15.38,15.38,0,0,0,.224,3.472,17.1,17.1,0,0,1,.112,3.472,12.015,12.015,0,0,0,0,3.472c0,1.232,0,3.248-.112,4.032-.224,1.792.224,2.688.336,4.144.112,1.344.9,1.456,1.9,1.68s1.456-.112,1.9-1.68c.448-1.12.112-2.128.336-4.144a24.908,24.908,0,0,0-.112-4.032,17.6,17.6,0,0,1,0-3.472c0-1.68.224-2.688.112-3.472a9.3,9.3,0,0,1,.112-3.472,22.662,22.662,0,0,1,.224-3.472c.112-1.344.336-2.464.336-3.472a13.233,13.233,0,0,1,.448-3.36c.112-.56.224-2.128.56-3.472.224-.784.224-2.016.672-3.36.336-1.344.448-2.352.672-3.472.336-.9-.112-1.9.784-3.472a8.725,8.725,0,0,0,.672-3.472c0-1.008.9-2.128.56-3.584-.336-1.12.224-2.128.224-3.584a6.038,6.038,0,0,0-.56-3.248c-.336-.672-.672-2.24-1.456-2.912-.784-.784-1.008-1.792-2.24-2.128-1.008-.224-1.9-1.008-3.248-.784-1.232.224-1.9,0-3.248.784-1.456,1.12-1.68,1.12-2.352,2.128a11.8,11.8,0,0,0-1.456,2.912A11.33,11.33,0,0,0,419.288,39.16Zm14.784,69.888c-.448-1.232-.112-2.128-.672-2.8-.784-1.008-.9-1.792-1.568-2.352a14.115,14.115,0,0,0-2.24-1.68,20.635,20.635,0,0,0-2.8-.56,5.048,5.048,0,0,0-2.8.56,5.542,5.542,0,0,0-2.352,1.68,17.011,17.011,0,0,0-1.568,2.352,4.9,4.9,0,0,0-.56,2.8,11.291,11.291,0,0,0,.56,2.8,6.028,6.028,0,0,0,1.568,2.352,3.209,3.209,0,0,0,2.352,1.68c1.12.112,1.344.784,2.8.672a6.267,6.267,0,0,0,2.8-.672c1.008-.672,1.344-1.008,2.24-1.68,1.12-.784,1.008-1.344,1.568-2.352C433.848,110.952,434.408,110.168,434.072,109.048Z" transform="translate(6.18 84.98)" fill="url(#linear-gradient)"/>
  </g>
</svg>
