<svg xmlns="http://www.w3.org/2000/svg" width="330.634" height="75.41" viewBox="0 0 330.634 75.41">
  <path id="Path_237" data-name="Path 237" d="M14.883,20.375l-1.377-1.318a12.031,12.031,0,0,0-2.549-2.139,5.173,5.173,0,0,0-2.7-.732,4.138,4.138,0,0,0-.557.029l-1.67.615L3.6,19.525H3.223a3.057,3.057,0,0,1-1.289-1.084v-.381a17,17,0,0,0,.879-1.787l.645-.439.146-.322a8.752,8.752,0,0,1,5.654-1.523,24.855,24.855,0,0,1,3.779.908,47.161,47.161,0,0,1,4.248,3.779,4.178,4.178,0,0,0,2.021.615,8.142,8.142,0,0,0,4.8-3.691,1.931,1.931,0,0,0,.5-1.553l.469-.059,1.553.205a1.694,1.694,0,0,1,.7,1.23,6.4,6.4,0,0,1-.923,1.89,17.559,17.559,0,0,1-1.567,1.89l-.645.322-.879.85a8.069,8.069,0,0,1-2.183.908,20.479,20.479,0,0,1-2.8.469A5.666,5.666,0,0,1,14.883,20.375ZM34.014,10.092l-1.67-.381-.732-.879-.088-.7a5.754,5.754,0,0,1,2.783-1.113,7.975,7.975,0,0,0,2.813-.937l.088-.469A23.379,23.379,0,0,0,36.973,2.3l.234-.41,1.2-.322a1.085,1.085,0,0,1,1.055.557l.469.322L40.225,4.5,40.4,5.668l.557.176.645-.176a1.5,1.5,0,0,1,.7-.205,1.6,1.6,0,0,1,.352.059q1.846-.059,3.193-.234a2.386,2.386,0,0,0,1.348.7l.322,1.2-.322.7a51.1,51.1,0,0,1-5.332.381l-.41.234-.322-.146a12.988,12.988,0,0,0-2.93.586q-1.875.586-2.842.85l-.322-.088-.381.234-.322-.088Zm20.625,15L54.4,24.8l-.469-1.055.41-.527a1.452,1.452,0,0,0,.879-.557,13.484,13.484,0,0,0,1.289-3.6q.381-1.875.7-4.922l.088-.791-2.578-.234-.381.234A39.864,39.864,0,0,1,53.042,18a18.294,18.294,0,0,1-1.919,3.867,2.64,2.64,0,0,1-.937.469l-.5.322a6.9,6.9,0,0,1-2.08-.322l-.322-.937.322-.234a12.471,12.471,0,0,0,1.772-3.252,26.862,26.862,0,0,0,1.1-3.955.829.829,0,0,0-.7-.146,4.44,4.44,0,0,1-2.168-.645,1.765,1.765,0,0,1-.469-1.26l.645-.557a31.351,31.351,0,0,0,3.281-.937l.059-.615-.146-.879a15.445,15.445,0,0,1,.879-3.633,11.824,11.824,0,0,1,1.758-.146l.967.7.059.322-.059.293.234.5-.322,2.2a1.573,1.573,0,0,0,.41,1.26,12.075,12.075,0,0,0,2.021.146,12.022,12.022,0,0,0,2.52-.234,4.251,4.251,0,0,1,1.7.557l.322.967a13.208,13.208,0,0,0-.937,4.277,18.388,18.388,0,0,1-.762,4.395,16.549,16.549,0,0,0-.557,1.67,8.389,8.389,0,0,1-1.348,2.432l-.5.469a1.786,1.786,0,0,1-1.172.439,1.562,1.562,0,0,1-.352-.029A2.072,2.072,0,0,1,54.639,25.092Zm-8.232-9.551a7.8,7.8,0,0,1-2.388-.557,13.375,13.375,0,0,1-2.051-1.025q-.894-.557-2.5-1.641l-.5-1.025.557-.557,1.055-.176a11.784,11.784,0,0,1,4.072,1.523l.176.293,1.025.5,1.289.381.059.469.41.645a3.422,3.422,0,0,0-.469.938ZM31.846,17.768a2.4,2.4,0,0,1-1.758-.732l-.234-.937.41-.791A15.943,15.943,0,0,1,32.08,13.49a5.042,5.042,0,0,1,.645-1.025l.967-.85.879-.176,1.055.7.293.732-.293,1.172q-2.051,2.4-3.135,3.545Zm1.2,8.76-.469-.41-.088-.791a16.772,16.772,0,0,1,2.49-2.109l.381-.879q-.908-1.143-1.377-1.86a4.142,4.142,0,0,1-.615-1.626l.41-.527,1.113-.176a4.368,4.368,0,0,1,1.611.7l.791.879q.527-.791,1.523-2.373a2.956,2.956,0,0,1,1.436-.557,4.965,4.965,0,0,1,1.611.791l.146.732A6.175,6.175,0,0,1,40.723,20.9l-.322.264-.469,1.084.322.41q.967.205,2.021.352a10.884,10.884,0,0,1,1.9.439,1.562,1.562,0,0,0-.029.352,2.424,2.424,0,0,0,.176.908L44,24.945l-.234.381-.645.234-.645-.146a3.747,3.747,0,0,1-.967.117,4.058,4.058,0,0,1-1.436-.264,4.847,4.847,0,0,1-1.992-.557l-.469.557a4.64,4.64,0,0,1-3.516,1.26Zm41.807,1.348-.146-.029a4.6,4.6,0,0,1-1.816-.674l-.117-.059-.322-.82L72.568,26l-.205-.439.059-.176a8.819,8.819,0,0,0,.352-2.49q0-.615.059-1.729l-.732.527a3.942,3.942,0,0,1-1.04,1.1q-.659.483-1.86,1.187a16.369,16.369,0,0,1-1.846,1.055l-.234.322-1.553.557a8.436,8.436,0,0,1-1.553-.322l-.5.117-.762-.7-.234-.967.586-.879.146-.029a15.038,15.038,0,0,1,1.611-.41l1.26-.527,1.934-1.318,1.025-.674,1.67-1.729.117-.234q-3.633.234-4.775.352a8.145,8.145,0,0,0-1.553.322l-1.172-.117a2.291,2.291,0,0,0-1.084-.352l-.322-.059-.264-.937.615-1.318,1.611-.264q1.67.029,8.965-.469l-.059-.732a26.964,26.964,0,0,1-3.838.322l-1.758-.322-.674-.7q-.586-.762-.615-4.482-.029-3.486-.234-6.152l-.146-.82,2.021-.5.791.234,1.113-.234,6.533.029q4.482,0,4.922-.088h.117l.645.117.967-.146,1.172.732.088.908v.615l-.234.439-.439,8.965L83,14.018l-1.084.469-2.959.205a6.443,6.443,0,0,0-1.509-.176h-.864a6.017,6.017,0,0,0-.205.908l6.357-.059q.439-.029,1.318-.029a2.821,2.821,0,0,0,1.523-.439l1.816.879.264.088.117,1.611-.937.82-1.436.293a1.993,1.993,0,0,0-.967-.41l-.5.117-4.746.029A21.865,21.865,0,0,0,81.3,20.082q1.2.732,2.842,1.582a10.455,10.455,0,0,0,2.109.557l1.318.059.381.469.557.264.205.908-.264.7-1.26.322-.5.322-.937-.322h-.205l-1.2-.234-.937-.293a9.862,9.862,0,0,1-1.816-.908q-1.143-.674-2.314-1.318a9.824,9.824,0,0,0-2.432-1.67l-.176-.088-.088-.264-.352.146q-.205,1.846-.234,3.369a33.58,33.58,0,0,1-.176,3.4v.205ZM77.227,6.9q.908-.029,2.783-.205l.146-.205q.088-.586.146-1.729l-.293-.146L76.436,4.7A5.871,5.871,0,0,0,76.2,6.752Zm-5.508.176q.732,0,1.084.029l.146-.059a18.424,18.424,0,0,0,.117-2.2q-.205-.059-4.131.176a13.367,13.367,0,0,1,.293,2.2A24.349,24.349,0,0,1,71.719,7.074Zm7.471,4.658h.322a6.236,6.236,0,0,0,.469-1.816l-.234-.264-3.428.264a2.2,2.2,0,0,0-.059.615l.059,1.23Q78.193,11.7,79.189,11.732Zm-9.785.176.41.088,3.076-.088.088-.029a6.584,6.584,0,0,0,.088-1.084q0-.293-.059-1L72.6,9.74l-3.281.146Zm39.258,13.154.176-.85.908-.791a5.663,5.663,0,0,0,1.494-2.607,11.634,11.634,0,0,0,.5-3.34,8.806,8.806,0,0,0-1.26-4.8,6.5,6.5,0,0,0-2.959-2.4l-1.992-.322q-1.025,4.922-1.479,6.8a29.236,29.236,0,0,1-.923,3.149q-.469,1.274-1.641,3.911l-.322.762a1.973,1.973,0,0,1-1.787,1.2,5.972,5.972,0,0,1-2.109-.586,8.935,8.935,0,0,1-2.021-1.406A9.152,9.152,0,0,1,93.6,21.151a14.484,14.484,0,0,1-.85-4.146,15.381,15.381,0,0,1,.762-4.058,8.75,8.75,0,0,1,2.021-2.974A8.194,8.194,0,0,1,98.818,7.88a17.682,17.682,0,0,1,4.248-.864l.176-.469.381-.146a3.484,3.484,0,0,1,2.2.586l.674.322a12.317,12.317,0,0,1,4.175,1.86,7.969,7.969,0,0,1,2.856,3.179,12.661,12.661,0,0,1,1.084,5.215,18.028,18.028,0,0,1-.234,2.783,8.071,8.071,0,0,1-1.729,3.691A5.5,5.5,0,0,1,110.039,26,1.708,1.708,0,0,1,108.662,25.063Zm-5.947-15.41a7.243,7.243,0,0,0-4.658,1.67,7.493,7.493,0,0,0-2.314,4.248,11.1,11.1,0,0,0-.146,1.7,6.726,6.726,0,0,0,.776,3.252,5.186,5.186,0,0,0,2.476,2.227A37.441,37.441,0,0,0,102.715,9.652Zm19.277-3.721-.791-.557A1.766,1.766,0,0,1,121,4.584l.029-.322a6.775,6.775,0,0,1,2.065-.776,22.379,22.379,0,0,1,2.681-.337q4.395-.146,7.441-.557l.088-.469-.322-.879a6.725,6.725,0,0,1,.41-1.67l.7-.234,1.465.732A4.106,4.106,0,0,0,136.2,2.68l1.025.088a13.873,13.873,0,0,1,2.9-.176l.41.176a4.727,4.727,0,0,1,1.67-.176,11.785,11.785,0,0,0,1.992.176,8.678,8.678,0,0,0,2.754-.41l.557.322.791.967-.41.85a8.544,8.544,0,0,1-2.051.469q-.967.088-2.432.088l-.791-.146-.322.088a3.879,3.879,0,0,0-1.289-.205,2.655,2.655,0,0,0-.469.029l-1.289.088q-2.021.117-2.725.146t-2.08.029q-1.875,0-3.779-.088-2.725.293-4.219.381a36.3,36.3,0,0,0-4.219.557Zm6.416,7.061a1.942,1.942,0,0,1-1.289-.469,8.061,8.061,0,0,1-.879-2.607V7.836l.322-.7a13.633,13.633,0,0,1,3.574-.527,32.642,32.642,0,0,0,3.662-.264l6.973.059a3.539,3.539,0,0,1,2.314.791,2.63,2.63,0,0,1,.322,1.289l-.322.234a6.443,6.443,0,0,0-.322,2.051l-.088.645.088.322-.381.7a2.428,2.428,0,0,1-1.465.469l-1.523-.381q-1.406.088-3.838.322-2.139.088-4.336.088l-2.49-.029Zm3.6-2.285,1.465-.088,1.436.088.645-.264.645.088h2.168a2.569,2.569,0,0,0,1.582-.7l.176-.791a3.035,3.035,0,0,0-1.465-.381,4.818,4.818,0,0,0-.557.059l-1.025-.088-.322.088-1.523-.322a16.532,16.532,0,0,1-2.476.4q-1.245.1-3.618.249l-.176.381.234,1.113a6.586,6.586,0,0,0,1.7.234l.791-.059Zm12.6,20.3-1.523-.7a40.388,40.388,0,0,1-3.281-2.7l-.088-.791.234-.322.5-.176a4.255,4.255,0,0,1,2.227.732.753.753,0,0,0,.82.381l.234-1.26-.088-.41a46.563,46.563,0,0,0,.557-5.859l-.059-.322.146-.645-.088-.469.088-.322-.234-1.348q-3.018-.117-6.8-.117t-6.826.117a15.964,15.964,0,0,1-3.633.732l-.469-.088a2.177,2.177,0,0,1-1.113.381,5.945,5.945,0,0,0-.117.967,5.924,5.924,0,0,0,.117.938l-.176,1.2.088.322-.176.381.176.732a1.117,1.117,0,0,0-.176.7,36.118,36.118,0,0,1,.732,6.123l-.41.381q-.322.146-.967.5l-1.025-.41a15.729,15.729,0,0,1-.674-3.691q-.088-1.348-.381-3.838l-.059-.879q.176-1.7.234-2.607-.059-.82-.059-1.23t.059-1.23l.234-.645.732-.234,1.2.234a19.859,19.859,0,0,0,2.227-.469l.645.059a13.169,13.169,0,0,1,3.311-.557l.615.176a41.2,41.2,0,0,0,5.156-.41l.645.176,1.436-.234.322.146a17.563,17.563,0,0,1,2.168-.146q.41,0,1.289.059a1.289,1.289,0,0,0,.791.176q1.582-.264,2.578-.41l1.436.469a2.074,2.074,0,0,1,.234,1.289,2.67,2.67,0,0,0-.469,1.348,7.316,7.316,0,0,0-.088,1.143,8.082,8.082,0,0,0,.146,1.465l-.322,1.26.176.879q-.059.674-.117,2.08A9.377,9.377,0,0,1,146.455,26l.088.322a22,22,0,0,0-.234,3.105l.059.381-.234.557Zm-15.967-3.9a2.565,2.565,0,0,1-.791-1.406l.088-.41.234-1.113a16.013,16.013,0,0,1-.234-2.227l.059-.615-.059-.645a2.08,2.08,0,0,1,.557-1.26,8.49,8.49,0,0,1,3.135-.732q.381.029,1.113.029a15.231,15.231,0,0,0,2.813-.264l.469.176q1.289-.264,1.7-.322l.967.146a2.6,2.6,0,0,1,1.758.557l.234,1.025-.41,1.436.088.41a18.243,18.243,0,0,1-.688,2.871,9.7,9.7,0,0,1-1.157,2.344l-.41.234-.381.41-.82-.322-.469.088-.176-.322-.879-.146-.791.146a5.827,5.827,0,0,1-.674.029,10.951,10.951,0,0,1-1.963-.176,8.588,8.588,0,0,0-1.787.791Zm6.592-2.285a1.066,1.066,0,0,1,.967-.322l.469.234a15.562,15.562,0,0,0,.879-3.9,1.618,1.618,0,0,0-.732-.176,1.028,1.028,0,0,0-.293.029,5.739,5.739,0,0,0-1.934.322q-1.289-.088-2.578-.088l-1.113.322-.146.381a9.03,9.03,0,0,0,.381,3.193l2.9.234Zm20.537.615a15.169,15.169,0,0,1-1.743-2.842,12.946,12.946,0,0,1-1.157-4.16,41.945,41.945,0,0,1-.381-5.215,12.654,12.654,0,0,1,.557-4.16l.527-.41a1.028,1.028,0,0,1,.791-.41,1.722,1.722,0,0,1,.791.293l.176.322a.986.986,0,0,1,.322.85,12.181,12.181,0,0,0-.352,3.369,36.336,36.336,0,0,0,.22,3.926,15.54,15.54,0,0,0,.542,2.988,11.517,11.517,0,0,0,1.289,2.842l2.49-3.428.527-.645a2.971,2.971,0,0,1,1.787-1.26l1.23.82.234.762a32.771,32.771,0,0,0-4.072,6.68q-.527.234-1.582.645A3.862,3.862,0,0,1,155.771,25.443Zm16-2.256-.176-.322-.557-.527q-.176-3.252-.176-6.5V14.516a15.27,15.27,0,0,0-.557-2.7,15.27,15.27,0,0,1-.557-2.7l.234-.352.938-.381,1.055.41.469.527.439,1.494a17.443,17.443,0,0,1,.762,3.765,45.867,45.867,0,0,1,.264,5.083q0,1.23-.029,1.846l.117,1.289a2.016,2.016,0,0,1-1.289.791Zm27.568,3.047q-8.994-7.969-9.844-9.258a2.041,2.041,0,0,1-.264-1.113,4.429,4.429,0,0,1,.029-.586l1.641-.293q1.436,1.26,3.018,2.49a22.456,22.456,0,0,0,6.855-7.5l-14.707.791-1.113.029-.791-.469-.674-.732-.088-1.26,1.377-.264,18.867-1.084,1.348.967.088,1.084-.967,1.23q-4.365,6.533-8.232,9.141l3.691,3.574,1.113.674.469,1.113q-.5,1.729-1.172,1.9Zm23.613-15.762a41.219,41.219,0,0,1-6.914-2.4,4.71,4.71,0,0,1-.645-1.523l.234-.469.557-.322h1.143q5.742,1.582,6.914,2.373l.176,1.7-.322.41Zm-8.818,5.01-1.025-1.26-.088-.674.146-.557a6.536,6.536,0,0,1,1.787-.176l6.328.469a3.3,3.3,0,0,1,1.846.5l.234.381.41.645-.264.7a2.6,2.6,0,0,1-1.9.791ZM222.3,26.7l-.322-.234-.7-.469-.176-.879.322-.557.82-.469.645-.41q1.465-.879,2.373-1.465a25.178,25.178,0,0,0,2.2-1.641,32.985,32.985,0,0,0,5.01-5.127,21.653,21.653,0,0,1,1.758-1.934l1.113-.322.322.234A2.454,2.454,0,0,1,236.1,14.9a2.427,2.427,0,0,1-.029.439A23.236,23.236,0,0,1,234.1,18.5a20.933,20.933,0,0,1-2.622,3.018,28.816,28.816,0,0,1-2.637,2.212,30.5,30.5,0,0,1-2.725,1.772,9.469,9.469,0,0,1-2.666,1.143Zm22.09-17.168a2.427,2.427,0,0,1-.41-1.377,2.685,2.685,0,0,1,.322-1.26l1.436-.234q4.746,1.26,6.035,2.373a4.789,4.789,0,0,1,.352,1.729,3.009,3.009,0,0,1-.088.732,5.446,5.446,0,0,1-1.846.176Q247.295,10.648,244.395,9.535Zm2.373,15.586a1.525,1.525,0,0,1-.41-1.025,1.659,1.659,0,0,1,.088-.527,19.309,19.309,0,0,1,2.871-1.113,19.162,19.162,0,0,0,4.644-2.314,25.029,25.029,0,0,0,4.731-4.072,27.2,27.2,0,0,0,4.014-5.713l.791-.615.322.264a11.725,11.725,0,0,1,.41,1.846q-1.846,5.8-5.361,8.643-1.846,1.494-2.944,2.285a19.444,19.444,0,0,1-2.944,1.67,29.391,29.391,0,0,1-4.512,1.641A4.578,4.578,0,0,1,246.768,25.121ZM294.9,7.279l-2.314-2.051a1.521,1.521,0,0,1-.469-1.113l.469-.557,1.289-.176,1.67.879a7.9,7.9,0,0,1,1.436,2.227,1.82,1.82,0,0,1,.029.352q0,.586-.439.645a.49.49,0,0,1-.469.293,1.6,1.6,0,0,1-.645-.176ZM288.428,8.3l-.645-.791a2.469,2.469,0,0,1-.059-.41,1.971,1.971,0,0,1,.146-.7,1.574,1.574,0,0,1,1.113-.234,7.5,7.5,0,0,1,4.16,3.545l.088.732-.732.322a1.875,1.875,0,0,1-.645.117,1.2,1.2,0,0,1-.7-.205A15.7,15.7,0,0,1,288.428,8.3Zm-9.111,17.344-.439-.762-.264-1.172.205-.732a1.562,1.562,0,0,0,.352.029,1.257,1.257,0,0,0,.879-.293,15.023,15.023,0,0,0,1.7-6.387,7.81,7.81,0,0,0-.029-.791,1.381,1.381,0,0,0-.439-.425,1.118,1.118,0,0,0-.557-.132,1.391,1.391,0,0,0-.322.029l-1.611.088q-1,2.461-1.377,3.721-.732,2.2-1.26,3.662l-.967,1.67a4.072,4.072,0,0,1-1.23.176,3.224,3.224,0,0,1-.5-.029l-.527-.439-.352-1.23a37.041,37.041,0,0,0,1.641-3.516q.586-1.494,1.2-3.574-1.289.117-1.787.117A5,5,0,0,1,271,15.1a3.224,3.224,0,0,1-.029-.5q0-1.377,1.113-1.553l.967-.059q2.813-.117,3.164-.146A21.286,21.286,0,0,1,278,8.334a1.512,1.512,0,0,1,1.084-.557,1.151,1.151,0,0,1,.908.454,1.784,1.784,0,0,1,.381,1.187l-.029.322-.732,2.7q1.26.117,2.432.176a3.239,3.239,0,0,1,2.051.879,8.049,8.049,0,0,1,.615,3.252,11.236,11.236,0,0,1-.557,3.4q-.645,1.9-1.582,4.072l-.439.674a1.656,1.656,0,0,1-.454,1.025,1.691,1.691,0,0,1-1.011.5A2.756,2.756,0,0,1,279.316,25.648Zm16.377-6.035-1.2-.469a8.029,8.029,0,0,1-1.9-1.113l-2.93-2.285a17.662,17.662,0,0,1-2.578-2.227l-.41-.469-.322-.645.5-.791.879-.117q.85-.029,4.043,2.373a31.654,31.654,0,0,0,3.779,2.666l.879.7.146.469.146.5-.381,1.025-.322.146Zm13.535,7.617-.088-.41a9.554,9.554,0,0,0,2.944-2.959,17.585,17.585,0,0,0,1.743-3.779,30.13,30.13,0,0,0,.82-3.223l-.322-.176-3.428.322a4.477,4.477,0,0,1-1.523-.937l-.059-.791a7.934,7.934,0,0,1,2.959-.908,22.434,22.434,0,0,0,3.076-.439,11.322,11.322,0,0,0,.879-3.955l-.557-.176a2.516,2.516,0,0,1-1.025.234l-.41-.059-1.113.146L312.1,9.564l-.41-1.113.234-.322q1.641-.41,4.453-1.025l.41-1.963-.088-.322.088-.322-.088-.937.557-1.025a.9.9,0,0,1,.674-.381.964.964,0,0,1,.293.059l.967.381.381.879-.088.645a9.808,9.808,0,0,0,.41,2.754l1.582.176.41-.176.381.088.557-.234.322.059,1.436.41.645.557.146.469-.293,1.67.059.557a12.943,12.943,0,0,0-.322,2.842,1.388,1.388,0,0,0,.674.176,1.028,1.028,0,0,0,.293-.029,15.731,15.731,0,0,0,2.461-.293l.879.293.234.322.41.234.146.732-.322.7-1.816.557-.469-.146a12.354,12.354,0,0,0-2.168.293l-2.461.322-1.67-.234-1.816.322-.088.322.879.791.146.557.322.146.967,1.582q.879,1.025,1.67,1.816l.615.322.322.469,1.055.645.791.7A5.459,5.459,0,0,0,329,25.15a9.258,9.258,0,0,1,3.311.967,1.688,1.688,0,0,1,.234,1.172,3.413,3.413,0,0,1-1.436.322l-.645-.088a14.281,14.281,0,0,1-3.413-.366,7.593,7.593,0,0,1-2.71-1.274l-1.67-1.113-.146-.322-.82-.41-.146-.381a19.547,19.547,0,0,1-3.428-3.721l-.146-.557h-.41q-.059.264-.322,1.113a9.017,9.017,0,0,0-.937,2.139,12.481,12.481,0,0,1-.791,2.139l-.322.234a3.515,3.515,0,0,1-.732,1.172,4.557,4.557,0,0,0-1.494,1.289,6.83,6.83,0,0,1-2.168.615A5.639,5.639,0,0,1,309.229,27.23ZM304.219,5.7a2.807,2.807,0,0,1-.732-1.582,2.982,2.982,0,0,1,1.436-.381,3.587,3.587,0,0,1,.557.059,7.042,7.042,0,0,1,3.105,2.93l.5.322a1.812,1.812,0,0,1,.234,1.172,2.059,2.059,0,0,1-1.523.557Q305.83,7.191,304.219,5.7Zm16.934,7.822a11.017,11.017,0,0,0,.732-3.545l-.176-.41-1.348-.088-.381.088a8.94,8.94,0,0,0-.718,1.875,12.326,12.326,0,0,0-.337,2.168Zm-15.029,1.348a17.037,17.037,0,0,1-5.1-1.26,1.519,1.519,0,0,0-.879-.791l-.059-.645a2.562,2.562,0,0,1,1.816-.557,19.043,19.043,0,0,0,2.549.791,7.023,7.023,0,0,1,2.4,1.113l-.264,1.113Zm-3.9,14.561-1.2-.7a.946.946,0,0,1-.381-.791l1.26-2.139.322-.234a18.037,18.037,0,0,1,1.025-1.67l.557-.645a14.9,14.9,0,0,1,2.4-2.432l1.67-.234.322,1.172a10.451,10.451,0,0,1-2.08,3.633,14.959,14.959,0,0,0-2.314,3.574,6.054,6.054,0,0,1-1.26.469Zm-285,41.1a4.707,4.707,0,0,1,.938-1.289l1.465-.557,1.582-1.553a7.136,7.136,0,0,0,1.436-3.223,5.746,5.746,0,0,0-.571-2.256,7.56,7.56,0,0,0-1.567-2.08,4.048,4.048,0,0,0-2.549-1.2l-1.2,2.344q-1.641,3.223-1.816,3.545-.674,1.26-1.055,2.051l1.582,2.959.176,1.172-.439.938a1.214,1.214,0,0,1-.732.234,1.4,1.4,0,0,1-.879-.322,9.631,9.631,0,0,1-1.816-2.959,9.79,9.79,0,0,1-2.871,2.93,5.285,5.285,0,0,1-2.52.762A3.011,3.011,0,0,1,4.6,71.439L3.223,70.268a10.149,10.149,0,0,1-.7-3.691l.029-.645a18.3,18.3,0,0,1,.542-2.461,10.682,10.682,0,0,1,1.084-2.285,18.389,18.389,0,0,1,2.271-2.9L4.1,52.748a2.958,2.958,0,0,1,.908-2.109l.732-.264,1.025.557.352.732,1.816,4.775a18.443,18.443,0,0,1,3-1.055,12.1,12.1,0,0,1,2.769-.293l.879.029a16.148,16.148,0,0,0,1.025-2.227,23,23,0,0,1,.879-2.285A4.993,4.993,0,0,1,18.779,48.5a3.859,3.859,0,0,1,.527-.029q.908,0,1.113.352a2.015,2.015,0,0,1,.674,1.787,10.607,10.607,0,0,1-1.025,2.578,22.329,22.329,0,0,0-1.113,2.373,8.366,8.366,0,0,1,3.12,1.406,8.148,8.148,0,0,1,2.4,2.71,7.48,7.48,0,0,1,.923,3.706,7.811,7.811,0,0,1-.029.791,6.7,6.7,0,0,1-1.23,3.984,8.493,8.493,0,0,1-4.951,3.721A1.9,1.9,0,0,1,17.227,70.531ZM14.678,57.758a4.471,4.471,0,0,0-.879-.088,7.912,7.912,0,0,0-3.721,1.143q.5,1.348,1.9,4.746A34.936,34.936,0,0,0,14.678,57.758ZM10.02,66.371a32.072,32.072,0,0,1-2.49-5.361,9.733,9.733,0,0,0-2.314,6.855q.557,1.582,1.523,1.67A15.642,15.642,0,0,0,10.02,66.371Zm32.051,8a5.11,5.11,0,0,0-1.523-1,20.414,20.414,0,0,1-3.838-2.7l-.322-1.084.469-.85a1.267,1.267,0,0,1,.967-.234,13.678,13.678,0,0,1,1.9,1.084l2.461,1.67a17.478,17.478,0,0,0,1.655-3.6,22.589,22.589,0,0,0,.688-4.336l-.791-.029q-.908.029-6.5,1.025a13.534,13.534,0,0,1-1.9.234,2.911,2.911,0,0,1-1.992-1.348v-.5l.469-.615a29.293,29.293,0,0,1,4.292-.923q3-.483,6.606-.894.029-.264.029-.82a14.323,14.323,0,0,0-.234-2.432,14.888,14.888,0,0,0-3.4.278q-2.109.366-4.746.923l-.762.146a3.476,3.476,0,0,1-1.348-.469l-.645-1.23.645-.615a25.384,25.384,0,0,1,3.911-.879q2.534-.41,6.021-.908a6.652,6.652,0,0,0-.527-2.783l-1.377.322q-2.168.527-3.237.82t-2.183.674l-.937-.322a3.352,3.352,0,0,1-.85-1.758l.146-.293q1.816-.469,6.738-1.875,3.75-1.084,7.617-1.846a6.612,6.612,0,0,1,2.314-.381,4.009,4.009,0,0,1,1.113.7l.41,1.055-.234.41a12.506,12.506,0,0,0-2.49.527q-.879.293-3.9.938.293,1.641.41,2.432l.146.938q2.783-.264,7.881-.5l.732.381.791.908v.557l-.7.762q-5.186.234-8.437.645a16.739,16.739,0,0,1,.205,3.428l7.207-.176a7.711,7.711,0,0,1,2.256.439l.469.469.322.146.234,1.084-.557.7-.791.146q-3.164-.117-4.57-.117-2.139,0-4.629.146a22.016,22.016,0,0,1-.117,2.227,21.32,21.32,0,0,1-1.025,4.336A20.143,20.143,0,0,1,44.5,73.9q-.176.645-1.436.85Zm23.2-3.662-.879-2.2q-.645-2.168-.952-3.662a30.937,30.937,0,0,1-.483-3.633A35.877,35.877,0,0,1,63.6,53.51a18.589,18.589,0,0,1,.7-2.4,1.818,1.818,0,0,1,1.348-.352l.586.264a1.822,1.822,0,0,1,.674,1.172q-.205,1.582-.527,3.105a35.892,35.892,0,0,0-.352,5.42l.059.7a27.7,27.7,0,0,0,.542,3.75A7.131,7.131,0,0,0,68,67.924l.5.146a5.075,5.075,0,0,1,.352,1.846,5.992,5.992,0,0,1-.117,1l-.146.41a1.885,1.885,0,0,1-1.377.586A4.806,4.806,0,0,1,65.273,70.707ZM73.711,54.3l-.176-.5.352-.762a25.921,25.921,0,0,1,4.072-1.274,27.96,27.96,0,0,1,4.365-.659.822.822,0,0,0,.645.381.964.964,0,0,0,.293-.059l.586,1.172.117.791a2.3,2.3,0,0,1-1.406.762l-.85-.088a38.926,38.926,0,0,0-6.27,1.377Zm2.842,15.762a5.709,5.709,0,0,1-2.285-2.227A6.2,6.2,0,0,1,73.1,65.287l.322-.176a2.465,2.465,0,0,1,1.113-.527,3.963,3.963,0,0,1,1.582,1.523,24.928,24.928,0,0,0,1.963,1.582,4.3,4.3,0,0,0,1.9.352,6.176,6.176,0,0,0,.7-.029,23.392,23.392,0,0,0,2.49-.85l.439-.176,1.611.586.264.762a2.3,2.3,0,0,1-1.523,1.787,17.508,17.508,0,0,1-2.007.557,11.239,11.239,0,0,1-2.183.176q-.586,0-.937-.029Q78.076,70.59,76.553,70.063Zm19.541-4.307a2.655,2.655,0,0,1-.469.029,1.731,1.731,0,0,1-1.67-.967l-.029-.967q.645-1.582,1.641-3.779a18.32,18.32,0,0,0,1.26-4.336q-1.465.322-3.428.586a2.415,2.415,0,0,1-2.256-1.143l-.117-.381.674-.732.527-.352,3.252-.732q1.113-.205,2.139-.439l.176-1.406a19.28,19.28,0,0,0,.293-2.637,1.667,1.667,0,0,1,1.172-.557,2.812,2.812,0,0,1,1.289.352,2.314,2.314,0,0,1,.586,1.553l-.352,2.139q3.574-.645,4.658-.762l.938.322a1.256,1.256,0,0,1,.645,1.084,1.566,1.566,0,0,1-.806,1.333,3.963,3.963,0,0,1-2.3.4l-3.721.732q-.732,2.637-.967,3.955a13.763,13.763,0,0,1-.732,2.578q-.762,1.9-1.025,2.666l-.82,1Zm20.42-8.145q-1.816-.674-3.135-1.26A19.439,19.439,0,0,1,110.859,55l-.879-1.143.146-.879q1.523-.293,1.729-.322l1.992.908,2.9.967.908.439a2.341,2.341,0,0,1,.615,1.436q0,.762-1,.908ZM101.1,67.074a5.7,5.7,0,0,1,1.23-2.637,7.709,7.709,0,0,1,1.362-.806,3.882,3.882,0,0,1,1.567-.278,6.11,6.11,0,0,1,1.2.117l1.611.41a7.522,7.522,0,0,0,.146-1.582q0-.879-.205-2.871a1.92,1.92,0,0,1,1.436-.879,1.233,1.233,0,0,1,.293.029l.645.293.439.557.234,1.992a3.147,3.147,0,0,1,.029.527,34.743,34.743,0,0,1-.41,4.1,7.3,7.3,0,0,1,2.871,2.783l.557.82a2.03,2.03,0,0,1,.088.586.791.791,0,0,1-.82.85l-1.172-.264q-1.055-.85-2.08-1.553l-.439-.352-.967,1.553A3.087,3.087,0,0,1,105.7,72a5.9,5.9,0,0,1-3.3-1.523A4.234,4.234,0,0,1,101.1,67.074Zm6.387.322a1.221,1.221,0,0,0-.469-.937,2.719,2.719,0,0,0-1.377-.557,1.92,1.92,0,0,0-1.934,1.729q0,1.318,1.7,1.875a1.719,1.719,0,0,0,1.582-1A1.682,1.682,0,0,0,107.49,67.4Zm23.2,4.336-.088-.469.176-.557.322-.059a8.673,8.673,0,0,0,3.369-2.5,12.08,12.08,0,0,0,1.729-3.5,23.091,23.091,0,0,0,1.084-6.943l-.029-.937a21.36,21.36,0,0,0-.352-3.34,13.152,13.152,0,0,0-.791-2.49l.176-.762a2,2,0,0,1,.791-.176,2.669,2.669,0,0,1,1.025.205,4.7,4.7,0,0,1,1.289,1.348,12.192,12.192,0,0,1,1.26,5.42,41.317,41.317,0,0,1-.527,5.742,18.067,18.067,0,0,1-.85,3.369,19.414,19.414,0,0,1-1.611,3.281,7.828,7.828,0,0,1-2.812,2.783,5.357,5.357,0,0,1-.937.425,3.282,3.282,0,0,1-1,.132,9.966,9.966,0,0,1-1.348-.146Zm-5.684-6.768a15.431,15.431,0,0,1-1-3.6,27.566,27.566,0,0,1-.234-3.75,22.6,22.6,0,0,1,.293-3.6,8.922,8.922,0,0,1,.879-2.871,6.077,6.077,0,0,1,1.436-.791l.762.322a3.125,3.125,0,0,1,.5,1.553,1.845,1.845,0,0,1-.088.586q-.41,1.553-.571,2.578a13.964,13.964,0,0,0-.161,2.168A24.816,24.816,0,0,0,127,60.219l2.93-3.076a3.275,3.275,0,0,1,1.289-.322,1.594,1.594,0,0,1,.82.19.967.967,0,0,1,.439.571,4.246,4.246,0,0,1,.088.938,5.491,5.491,0,0,1-.029.645A30.707,30.707,0,0,0,128.95,63q-1.392,1.816-1.509,1.963l-.322.088a.75.75,0,0,1-.762.381ZM159.521,72.9a4.243,4.243,0,0,1-2.681-1.025,4.857,4.857,0,0,1-1.479-2.959,4.734,4.734,0,0,1-.029-.615,3.408,3.408,0,0,1,.527-1.934,3.484,3.484,0,0,1,1.67-1.523,7.936,7.936,0,0,1,3.047-.615,8.7,8.7,0,0,1,2.08.293l.029-3.369-5.625.322-1.084-.234-.5-.5-.352-.879.615-.586a37.085,37.085,0,0,1,6.914-.85V54.916l-6.855.732a6.819,6.819,0,0,1-1.919-.337,1.074,1.074,0,0,1-.63-1.128,3.143,3.143,0,0,1,.088-.7,4.557,4.557,0,0,1,1.641-.5l7.676-.791.029-4.072a.937.937,0,0,1,1.025-.5.594.594,0,0,1,.322-.117,1.312,1.312,0,0,1,.82.439l.527.586.029,3.428,6.064-.527,1.611.674.146.938a4.79,4.79,0,0,0-.674,1.084l-.732.146-.674-.176-5.508.439-.088,3.516,5.391-.381.879.088a3.646,3.646,0,0,1,1.348.674v.879l-.7.732-1.436.439-5.273.059-.146,5.01a19.843,19.843,0,0,0,2.93,1.465,7.075,7.075,0,0,1,1.523,1.318,1.39,1.39,0,0,1,.674,1.23,2.211,2.211,0,0,1-.029.41,1,1,0,0,1-.967.7,1.446,1.446,0,0,1-.439-.088l-1.729-.7-2.4-1.2a11.192,11.192,0,0,1-.5,1.963l-.85,1.23a4.333,4.333,0,0,1-2.373,1Zm2.461-3.164a8.063,8.063,0,0,0,.439-2.285,3.458,3.458,0,0,0-1.23-.674,3.033,3.033,0,0,0-2.607.938,3.651,3.651,0,0,0-.176,1.67l.791.938a3.374,3.374,0,0,0,1.025.205,3.988,3.988,0,0,0,1.113-.205Zm27.686,1.875-.5-.5a2.833,2.833,0,0,1-1.377-1.318q-1.406-1.406-1.406-9.2,0-7.412.059-8.936a7.932,7.932,0,0,1,.381-2.109l.879-.527.967.117a7.048,7.048,0,0,1,1.025,1.23v1.172q-.117,1.172-.176,13.975a6.628,6.628,0,0,0,1.494,3.574,6.625,6.625,0,0,0,1.992.645,7.131,7.131,0,0,0,2.739-.864,18.821,18.821,0,0,0,2.5-1.655l.645-.439a1.517,1.517,0,0,1,1.406-.732,3.525,3.525,0,0,1,.527.059l.439.293.264,1.23a2.223,2.223,0,0,1-1.143,2.051,17.155,17.155,0,0,1-3.267,1.816,13.883,13.883,0,0,1-3.882.938A11.091,11.091,0,0,1,189.668,71.615Zm24.287-.088a3.486,3.486,0,0,1-.527-1.875l.645-2.2q.674-2.139,1.348-4.834.586-2.373,1.758-6.182a18.612,18.612,0,0,1-3.311.557,2.932,2.932,0,0,1-1.641-.5,1.641,1.641,0,0,1-.234-.82,1.577,1.577,0,0,1,.088-.5l.293-.527,1.2-.5L218,53.275a11.349,11.349,0,0,1,.7-3.164,2.177,2.177,0,0,1,1.611-.586,2.113,2.113,0,0,1,1.289,1.26l-.352,1.875,4.219-.762a3.235,3.235,0,0,1,1.465.41,1.151,1.151,0,0,1,.586,1.055,2.41,2.41,0,0,1-.205.908l-.674.527-.732.059-5.6.938q-.5,1.523-.908,3.223l-.908,3.545q-.762,2.871-1.172,4.673a32.937,32.937,0,0,0-.615,3.618l-.615.469a1.335,1.335,0,0,1-1,.469,1.427,1.427,0,0,1-.586-.117Zm10.928-9.58a1.391,1.391,0,0,1-.322.029,1.31,1.31,0,0,1-.967-.381,1.932,1.932,0,0,1-.293-1.025l.586-.645,1.26-.7a13.285,13.285,0,0,1,2.988-.791l1.172-.059,1.289.088.645.381.645.908a2.572,2.572,0,0,1,.059.381.645.645,0,0,1-.469.645,5.026,5.026,0,0,1-1.611.41q-.645-.059-.908-.059a9.072,9.072,0,0,0-3.281.645Zm.439,10.4a9.978,9.978,0,0,1-3.516-1.553,1.437,1.437,0,0,1-.322-1.113l.469-.527a3.926,3.926,0,0,0,1.143-.293,11.011,11.011,0,0,0,4.014.645,14.25,14.25,0,0,0,2.183-.161,7.611,7.611,0,0,0,1.743-.454q.938-.41,2.959-1.172a1.512,1.512,0,0,1,1.26.293l.557.645a2.765,2.765,0,0,1-.352,1.641q-1.553.7-3.662,1.553a35.991,35.991,0,0,1-4.541.615Zm29.561-6.973-1.377-1.318a12.031,12.031,0,0,0-2.549-2.139,5.173,5.173,0,0,0-2.7-.732,4.138,4.138,0,0,0-.557.029l-1.67.615-2.432,2.7h-.381a3.057,3.057,0,0,1-1.289-1.084v-.381a17,17,0,0,0,.879-1.787l.645-.439.146-.322a8.752,8.752,0,0,1,5.654-1.523,24.855,24.855,0,0,1,3.779.908,47.161,47.161,0,0,1,4.248,3.779,4.178,4.178,0,0,0,2.021.615,8.142,8.142,0,0,0,4.8-3.691,1.931,1.931,0,0,0,.5-1.553l.469-.059,1.553.205a1.694,1.694,0,0,1,.7,1.23,6.4,6.4,0,0,1-.923,1.89,17.559,17.559,0,0,1-1.567,1.89l-.645.322-.879.85a8.069,8.069,0,0,1-2.183.908,20.478,20.478,0,0,1-2.8.469A5.666,5.666,0,0,1,254.883,65.375Z" transform="translate(-1.934 0.66)" fill="#0052a5"/>
</svg>
