<svg xmlns="http://www.w3.org/2000/svg" width="580.191" height="105.583" viewBox="0 0 580.191 105.583">
  <g id="Group_552" data-name="Group 552" transform="translate(-1855.001 3159.857)">
    <path id="Path_230" data-name="Path 230" d="M-240.83-46.092c.69,0,1.1-.345,1.1-.828,0-.69-.759-1.656-6.762-6.141-1.725,1.794-3.036,3.312-4.278,4.83h-12.7A48.331,48.331,0,0,0-257.8-53.82c2.277-.276,2.829-.759,2.829-1.518,0-.69-.9-1.311-7.59-3.45a79.2,79.2,0,0,1-3.588,10.557h-11.454a3.383,3.383,0,0,0,1.725-3.243c0-2.346-2-5.658-8.97-7.383l-.69.966a12.815,12.815,0,0,1,3.726,7.659,2.584,2.584,0,0,0,1.38,2h-11.937l-6.9-.345v2.829l6.9-.345h19.044v7.038H-289.82l-6.9-.345v2.829l6.9-.345h16.491v7.452h-21.183l-6.9-.345v2.829l6.9-.345h54.717c.759,0,1.1-.345,1.1-.828,0-.552-.759-1.656-6.969-6.141a59.152,59.152,0,0,0-4,4.83h-18.216v-7.452h22.08c.69,0,1.035-.345,1.035-.828,0-.552-.69-1.656-6.417-5.727-1.656,1.794-2.484,2.9-3.726,4.416h-12.972v-5.313a2.169,2.169,0,0,0,1.173-1.725Zm.966,30.36c.69,0,1.1-.345,1.1-.828,0-.552-.759-1.656-7.245-6.348a38.7,38.7,0,0,0-4.278,5.037h-19.044a32.09,32.09,0,0,0,.69-3.864c2.07-.759,2.553-1.173,2.553-2.07,0-.828-.828-1.311-7.8-2.346a47.837,47.837,0,0,1-1.173,8.28h-19.389l-6.9-.345v2.829l6.9-.345h18.768a23.652,23.652,0,0,1-8.349,12.075C-288.44-.207-295.133,2.415-302.516,4l.345,1.242c7.728-.483,15.249-2.346,20.631-5.658A25.086,25.086,0,0,0-270.155-14.7c4.347,9.936,13.938,16.767,26.772,19.458A6.857,6.857,0,0,1-238.346.138l.207-1.242c-14.49-1.932-25.185-6.762-30.843-14.628ZM-233.654-8a98.978,98.978,0,0,0,14.9-7.935v4.209c0,10.074-.345,14.283-.345,16.077,0,.9.483,1.311,1.518,1.311,2.415,0,4.071-.966,4.071-2.484V1.035h23.943V3.726c0,.9.483,1.311,1.38,1.311,2.208,0,4.209-.759,4.209-2.415s-.276-5.175-.276-13.386v-3.105a5.734,5.734,0,0,0,1.173-.828,61.187,61.187,0,0,0,8.211,4.209,6.963,6.963,0,0,1,5.106-4.278l.207-1.242c-12.42-3.1-22.839-9.246-28.773-16.491,1.518-.345,2-.9,2-1.38,0-.828-.483-1.38-6.555-3.864-7.866,11.385-19.044,21.321-31.464,28.7Zm21.252-9.66a9.65,9.65,0,0,0-2.277-1.035,79.589,79.589,0,0,0,14.7-13.386c.966,1.725,1.932,3.312,3.036,4.9a48.845,48.845,0,0,0,7.8,8.211c-.276.414-.483.9-.759,1.311Zm22.839,2.139V-1.1h-23.943V-14.7l.759-.828Zm-35.466-34.086a17.771,17.771,0,0,0-1.173-3.381l-1.242.138a8.89,8.89,0,0,1-3.519,7.866c-1.518,1.1-2.277,2.139-2.208,3.657a2.629,2.629,0,0,0,2.829,2.622c2.691,0,5.658-2.415,5.658-7.866v-.9H-177.7a42.232,42.232,0,0,1-2.829,6.762l1.035.759a66.674,66.674,0,0,0,6.969-5.313c2.622-.414,3.519-1.1,3.519-1.863s-.276-1.449-2.415-3.243c-2.415-2-3.1-2.277-3.795-2.277-.621,0-1.38.345-2.9,3.036h-20.7V-54.1c2.208-.759,2.691-1.311,2.691-2.07s-1.449-1.38-8.418-2c.138,2.208.276,3.933.276,7.176v1.38Zm27.807,6.141A34.623,34.623,0,0,1-184.8-31.878c1.1,1.932,2.277,2.829,3.588,2.829,1.656,0,2.76-1.38,2.76-3.243,0-2-1.656-4.071-4.071-5.865a38.022,38.022,0,0,0-14.007-6.417Zm-33.81,19.8a63.431,63.431,0,0,0,20.769-15.456c2.139-.069,3.1-.621,3.1-1.449,0-.9-.9-1.518-6.141-4a71.891,71.891,0,0,1-18.423,19.8Zm95.358,27.876a54.423,54.423,0,0,0,15.387-11.04A41.343,41.343,0,0,0-105.176,4,7.455,7.455,0,0,1-100.07-.069l.345-1.173a47.765,47.765,0,0,1-17.6-8.97A68.427,68.427,0,0,0-105.107-32.5c2-.483,2.622-1.1,2.622-1.794,0-.621-.276-1.242-2.208-2.829-2-1.725-2.622-1.932-3.312-1.932-.621,0-1.1.345-2.277,2.691H-120.7c.552-1.242,1.035-2.553,1.518-3.864,2-.414,2.691-1.035,2.691-1.656,0-.759-.69-1.449-7.107-2.967-3.519,12.558-7.866,22.632-13.041,30.36l1.035.759a64.766,64.766,0,0,0,6.555-7.659,45.559,45.559,0,0,0,6.279,11.523A61.491,61.491,0,0,1-136.5,3.243Zm25.323-38.433a79.906,79.906,0,0,1-3.312,8.832,76.968,76.968,0,0,1-6.831,12.351,48.178,48.178,0,0,1-4.83-5.727c-.966-1.311-1.794-2.76-2.691-4.14a58.668,58.668,0,0,0,3.243-5.175,10.868,10.868,0,0,1,4.347,5.865c.414,1.311,1.173,2,2.277,2,1.449,0,2.484-1.242,2.484-3.036,0-2.967-3.312-5.382-8.418-6.072.828-1.587,1.656-3.243,2.484-4.9Zm-40.434,19.113a74.08,74.08,0,0,0,8-9.177v5.658c0,15.87-.276,20.631-.276,22.977,0,.828.414,1.173,1.38,1.173,2.208,0,4.071-.966,4.071-2.07,0-1.656-.276-5.382-.276-21.873v-7.866c1.587-.552,2-1.1,2-1.656,0-.483-.276-1.035-3.243-1.656a82.144,82.144,0,0,0,5.451-10.35c2.208-.414,2.967-.966,2.967-1.794,0-.759-.69-1.38-7.038-3.174-3.726,11.385-8.418,21.321-14.007,29.049ZM-127.946-49.2H-140.78l-6.417-.345v2.829l6.417-.345H-101.1c.69,0,.966-.276.966-.69,0-.621-.414-1.311-6.831-6.348a43.078,43.078,0,0,0-4.554,4.9H-122.84V-53.82c2.208-.69,2.622-1.311,2.622-2,0-.828-.966-1.242-7.935-1.932.138,2.9.207,4.554.207,7.245Zm-36.777,14.973a9.349,9.349,0,0,1,4.209,5.8,2.709,2.709,0,0,0,2.691,2.139,2.906,2.906,0,0,0,2.9-3.174c0-2.829-2.553-5.451-9.246-5.934Zm3.036-19.389a10.131,10.131,0,0,1,5.106,5.313,3.039,3.039,0,0,0,2.9,2.208,2.812,2.812,0,0,0,2.9-3.1c0-3.312-3.795-5.52-10.419-5.658Zm13.662,9.936L-158.72-13.8c-1.311,3.657-2.139,4.278-5.382,4.278l-.069,1.1c3.174.759,3.657,1.932,3.657,4.14s-.621,4.83-.621,6.693a2.924,2.924,0,0,0,3.174,3.243,3.425,3.425,0,0,0,3.519-3.588c0-2.622-1.449-4.485-1.449-7.383,0-1.38.207-3.657,1.587-8.556l7.8-29.394Zm81.461,17.925c6.206,6.09,8.12,10.556,8.12,15.66,0,6.264-3.886,10.208-8.874,10.15C-71.61,0-73.7-2.494-73.7-6.206a48.777,48.777,0,0,1,.406-6.148,30.976,30.976,0,0,0,5.51.522c1.392,0,2.32-.638,2.32-1.972a2.266,2.266,0,0,0-2.494-2.03c-.348,0-.87-.058-1.508-.058a24.683,24.683,0,0,1-3.132-.232c1.044-6.96,2.552-14.79,3.886-21a5.022,5.022,0,0,1,1.16-2.436,2.193,2.193,0,0,0,.7-1.682c0-.928-1.218-2.262-3.19-3.654A8.069,8.069,0,0,0-73.582-46.4a11.39,11.39,0,0,0-2.494.232v.986c2.61.754,3.538,1.8,3.6,3.306A30.492,30.492,0,0,1-72.77-37c-.29,2.32-.638,4.872-1.044,7.6a2.764,2.764,0,0,0-1.392-1.74,11.31,11.31,0,0,0-2.958-1.218c-4.466-1.392-6.728-2.726-7.946-4.988l-.812.58c.986,3.422,2.494,5.336,7.366,7.83-3.306,3.19-4.93,6.09-4.93,8.352,0,2.494,1.392,4.408,3.77,5.858a20.177,20.177,0,0,0,4.292,1.74A57.649,57.649,0,0,0-77-6.612c0,6.322,4.06,9.4,10.788,9.4,7.192,0,12.238-4.756,12.238-12.47,0-5.684-3.19-11.658-11.774-16.994ZM-82.34-21.286c0-1.508.928-3.364,4.524-5.626a4.877,4.877,0,0,1,2.262-.7,1.931,1.931,0,0,0,1.508-.58c-.522,3.654-1.16,7.54-1.74,11.484C-81.122-17.98-82.34-19.314-82.34-21.286ZM11.75-39.123c.069-1.656.069-3.45.069-5.313v-8.832c1.932-.966,2.277-1.38,2.277-2.139,0-.828-.621-1.38-7.935-2.208.207,3.726.207,7.107.207,12.765,0,2.139,0,4.071-.069,5.934l-2.07.069L-1.7-38.985l.138,2.9L4.3-36.639l1.932-.069C5.747-25.806,4.3-19.044,1.469-12.7A41.111,41.111,0,0,1-15.022,5.589l.621,1.1A37,37,0,0,0,6.023-11.178C9.4-17.6,11.2-24.978,11.681-36.915l7.245-.276c0,13.179-.414,22.977-1.311,28.773-.828,5.313-2.967,6.486-6.141,6.486a52.382,52.382,0,0,1-6.348-.414L4.988-1.1C9.2,0,10.853,1.518,11.543,4.554,19.133,4,22.031-.414,22.928-7.452c.828-6.417,1.173-16.974,1.242-28.221,1.794-.828,2.415-1.311,2.415-2.139,0-.621-.345-1.173-2.553-2.9-1.863-1.449-2.346-1.656-3.105-1.656-.69,0-1.242.414-2.484,3.036ZM-28.96-24.771a44.194,44.194,0,0,1,8,6.9A55.867,55.867,0,0,1-37.723,2.139l.759,1.035A49.371,49.371,0,0,0-17.644-13.8a39.412,39.412,0,0,1,4.209,6.9c1.173,2.553,2.277,3.519,3.519,3.519,1.518,0,2.691-1.311,2.691-3.588,0-2.208-1.1-4.209-3.864-7.245a42.769,42.769,0,0,0-4-3.864,55.618,55.618,0,0,0,3.312-7.659c2.553-.345,3.036-.9,3.036-1.656s-.9-1.38-7.245-3.174a78.294,78.294,0,0,1-3.45,9.384,57.487,57.487,0,0,0-8.9-4.692ZM-16.4-46.023v-7.245c2.139-.759,2.622-1.38,2.622-2.07,0-.759-1.38-1.38-8.28-2,.138,2.208.207,3.45.207,7.245v4.071h-8.556l-6.486-.345v2.829l6.486-.345h29.6c.69,0,1.1-.414,1.1-.9,0-.621-.828-1.794-6.555-5.934-1.38,1.449-2.76,3.174-3.933,4.692Zm.483,5.8a24.978,24.978,0,0,1,8.97,10.35c.759,1.794,1.518,2.691,2.967,2.691s2.622-1.242,2.622-3.1c0-1.932-.828-3.588-3.036-5.589a25.93,25.93,0,0,0-10.833-5.451ZM-36.9-21.735a49.294,49.294,0,0,0,13.248-14.9c2-.138,2.829-.483,2.829-1.38s-1.035-1.449-6.969-3.588a59.11,59.11,0,0,1-9.936,19.044Zm75.486-.759-6.969-.345v2.829l6.969-.345H56.738C50.666-11.661,41.006-3.864,31.415,1.173l.621,1.1C43.076-1.38,53.771-8.211,60.74-16.7,60.6-.759,60.464,2.691,60.464,4.416c0,.828.483,1.311,1.587,1.311,2.139,0,4.278-.966,4.278-2.346,0-1.242-.207-4.347-.276-22.218A51.222,51.222,0,0,0,90.41,2.07a7.9,7.9,0,0,1,5.727-4.209l.276-1.242C83.579-6.762,73.85-12.42,67.088-20.355H94.274c.69,0,1.1-.345,1.1-.828,0-.69-.483-1.656-7.383-6.693-1.725,1.794-3.174,3.588-4.623,5.382H66.053c0-2.76-.069-5.52-.069-8.28H79.991V-29.6c0,.9.552,1.311,1.587,1.311,2.139,0,3.933-.828,3.933-2.277,0-2.622-.276-6-.276-16.9V-50.3c1.794-.828,2.415-1.38,2.415-2.07s-.276-1.173-2.415-2.9c-1.932-1.518-2.622-1.725-3.312-1.725s-1.311.345-2.346,2.829H48.665c-.759-.621-2.484-1.38-6.486-2.622.138,2.967.138,5.382.138,8.418,0,14.9-.276,18.147-.276,19.8,0,.9.552,1.311,1.794,1.311,2,0,3.657-1.035,3.657-2.484v-1.035H60.809c0,2.76-.069,5.52-.069,8.28Zm41.4-29.532v8.349H65.984V-50.3a1.869,1.869,0,0,0,1.38-1.725Zm-19.182,0v8.349H47.492v-7.452l.828-.9ZM79.991-41.538v8.625H65.984v-8.625Zm-19.182,0v8.625H47.492v-8.625ZM137.4-30.5a103.145,103.145,0,0,0,2.484-11.109H163.9c.69,0,1.035-.345,1.035-.828,0-.621-.414-1.311-7.038-6.279a58.935,58.935,0,0,0-4.347,4.968H140.228c.483-3.105.9-6.279,1.242-9.66,2.484-.759,2.829-1.38,2.829-2.139,0-.828-.483-1.311-8.349-2.346-.276,5.037-.69,9.729-1.311,14.145h-3.657l-5.382-.345v2.829l5.382-.345h3.381C131.6-22.563,125.945-8.97,116.906.9l.9.9c8.418-6.486,14.559-16.008,18.63-28.98a43.893,43.893,0,0,0,6.072,16.353,57.266,57.266,0,0,1-22.218,15.18l.552,1.1A53.71,53.71,0,0,0,145.058-7.176,44.638,44.638,0,0,0,160.1,4.968a6.921,6.921,0,0,1,5.451-3.657L165.758,0A49.738,49.738,0,0,1,148.3-10.488a53.663,53.663,0,0,0,9.66-15.8c1.932-.621,2.553-1.242,2.553-1.932,0-.621-.276-1.311-2.277-2.9s-2.691-1.932-3.45-1.932c-.69,0-1.173.414-2.346,2.553Zm15.042,2.139a50.953,50.953,0,0,1-2.277,5.658,48.187,48.187,0,0,1-5.175,8.694,37.3,37.3,0,0,1-5.382-9.039,37.018,37.018,0,0,1-1.794-5.313ZM110.282-3.45c0,2-.483,2.553-2.277,2.553a41.018,41.018,0,0,1-6-.414l-.138,1.242c4.071,1.035,5.589,2.277,6.279,5.313,5.313,0,7.59-2.484,7.59-6.072,0-2.208-.207-6-.345-20.355,3.726-2.415,7.383-5.106,11.316-8.211l-.552-1.173c-3.657,1.863-7.176,3.519-10.764,5.106-.069-4.485-.069-8.9-.069-13.386h9.453c.69,0,1.1-.345,1.1-.828,0-.621-.414-1.1-5.658-5.244a42.852,42.852,0,0,0-3.381,3.933h-1.518V-53.337c2.208-.828,2.76-1.449,2.76-2.139,0-.759-.9-1.242-8.073-1.932.207,2.553.276,5.658.276,11.178v5.244h-4.623l-5.244-.345V-38.5l5.244-.345h4.623v15.456c-3.243,1.242-6.555,2.484-10.281,3.657,2.622,5.865,3.174,6.624,4.071,6.624.69,0,1.173-.69,1.518-2.277,1.587-.828,3.174-1.725,4.692-2.622Zm64.653-38.019-5.52-.345v2.829l5.52-.345h4.347c-.207,2.76-.483,5.451-.759,8.211h-1.656l-6.072-.345v2.829l6.072-.345h1.311a57.244,57.244,0,0,1-8.763,23.667l1.1.69a49.707,49.707,0,0,0,7.107-9.66c0,10.143-.276,15.663-.276,17.6,0,.828.483,1.311,1.587,1.311,2.208,0,3.519-1.035,3.519-2.484V-1.725h10.971V.621c0,.966.483,1.38,1.449,1.38,1.863,0,3.657-.828,3.657-2.346,0-2.415-.276-6.279-.276-12.006v-3.243c1.656-.828,2.208-1.311,2.208-2,0-.621-.207-1.173-2.139-2.622C196.6-21.6,196.049-21.8,195.29-21.8c-.69,0-1.242.345-2.208,2.553h-9.66a14.164,14.164,0,0,0-2.967-1.242,62.3,62.3,0,0,0,2.415-8.487H191.7v1.656c0,.9.552,1.311,1.449,1.311,2.07,0,3.864-.828,3.864-2.346,0-1.794-.138-4.9-.207-10.971h6.486c.69,0,1.1-.345,1.1-.828,0-.621-.276-1.173-4.278-5.106a27.867,27.867,0,0,0-2.76,3.795h-.621v-7.383c1.725-.759,2.277-1.311,2.277-2,0-.621-.276-1.242-2.277-2.76-1.863-1.518-2.415-1.656-3.174-1.656s-1.242.345-2.208,2.691H177.488l-6.072-.345v2.829l6.072-.345h2.07c0,2.967-.069,6-.207,8.97Zm9.453,0c.138-2.415.207-4.9.207-7.59a2.142,2.142,0,0,0,1.035-1.38H191.7v8.97ZM191.7-39.33v8.211h-8.418c.414-2.76.828-5.451.966-8.211Zm1.725,35.466H182.456V-16.215l.759-.9h10.212Zm16.146-39.468-5.175-.345v2.829l5.175-.345h4.485v10.35h-4.692l-5.934-.345v2.829l5.934-.345h4.692v5.313c-.069,2.208,0,4.347-.069,6.555h-6.21l-6.072-.345v2.829l6.072-.345h6.21c-.138,12.9-.345,17.319-.345,19.182,0,.828.621,1.38,1.725,1.38,2,0,4.209-1.035,4.209-2.415,0-1.656-.207-5.934-.345-18.147h13.524c.69,0,1.1-.414,1.1-.9,0-.69-.621-1.518-6.417-5.727-1.518,1.587-2.484,2.829-3.864,4.485h-4.347c0-3.933-.069-7.935-.069-11.868h11.73c.69,0,1.1-.345,1.1-.828,0-.621-.552-1.38-5.934-5.451-1.242,1.449-2.346,2.691-3.45,4.14h-3.45v-8.832a1.907,1.907,0,0,0,1.173-1.518H232.9c.69,0,1.1-.345,1.1-.828,0-.69-.483-1.449-5.934-5.52-1.311,1.518-2.415,2.76-3.519,4.209h-4.485a62.232,62.232,0,0,0,7.383-9.867c2.415-.414,2.9-.9,2.9-1.725,0-.759-.9-1.311-7.452-3.312a83.676,83.676,0,0,1-5.244,14.9Zm-5.451-12.834c2.622,2.208,3.933,4.9,4.761,8.694.345,1.725,1.311,2.484,2.691,2.484,1.656,0,2.76-1.1,2.76-3.243,0-3.174-2.829-6.969-9.384-8.9Zm67.62,40.572v-3.657c0-8.211.483-13.179,1.794-19.044,1.035-5.106,1.587-7.935,1.587-9.729,0-3.243-1.932-5.52-4.554-5.52-2.691,0-4.623,2.277-4.623,5.52,0,1.794.552,4.623,1.587,9.729,1.38,6,1.863,10.764,1.863,19.044v3.657Zm-1.1,6.141A4.689,4.689,0,0,0,266.084-4.9a4.641,4.641,0,0,0,4.554,4.554A4.641,4.641,0,0,0,275.192-4.9,4.689,4.689,0,0,0,270.638-9.453Z" transform="translate(2160 -3101)" fill="#0052a5"/>
    <g id="b" transform="translate(1855.051 -3083.465)">
      <g id="c">
        <g id="Group_430" data-name="Group 430">
          <path id="Path_41" data-name="Path 41" d="M568.11,13.9l-.04.33.03-.09c.01-.09.03-.28.01-.24Z" fill="#0052a5"/>
          <path id="Path_42" data-name="Path 42" d="M568.1,13.8c0-.26-.01-.27-.06-.06,0-.07.02-.16.02-.22a6.353,6.353,0,0,0-.1.74c.05-.32.04-.18.09-.56.02-.04.01.11,0,.23.01-.08.01.07.04-.13Z" fill="#0052a5"/>
          <path id="Path_43" data-name="Path 43" d="M565.92,12.24v0Z" fill="#0052a5"/>
          <path id="Path_44" data-name="Path 44" d="M566.8,12.77c-.01.11,0,.08.01.11v-.11Z" fill="#0052a5"/>
          <path id="Path_45" data-name="Path 45" d="M567.8,14.3s.01-.05.02-.09a.1.1,0,0,1-.01.03v.05Z" fill="#0052a5"/>
          <path id="Path_46" data-name="Path 46" d="M567.19,12.65h0s.01-.08.02-.13l-.03.13Z" fill="#0052a5"/>
          <path id="Path_47" data-name="Path 47" d="M558.95,12.47h0a.792.792,0,0,1,.02-.17Z" fill="#0052a5"/>
          <path id="Path_48" data-name="Path 48" d="M563.29,12.42a4.662,4.662,0,0,0,.06-.6A5.289,5.289,0,0,0,563.29,12.42Z" fill="#0052a5"/>
          <path id="Path_49" data-name="Path 49" d="M564.83,12.33s0-.06-.01-.02v.03s.01-.06.01-.01Z" fill="#0052a5"/>
          <path id="Path_50" data-name="Path 50" d="M564.6,12.31v.06h0Z" fill="#0052a5"/>
          <path id="Path_51" data-name="Path 51" d="M559.85,13.83a2.088,2.088,0,0,1,.01-.25C559.84,13.78,559.8,13.85,559.85,13.83Z" fill="#0052a5"/>
          <path id="Path_52" data-name="Path 52" d="M567.8,14.26h0v-.12a.223.223,0,0,1-.02.12Z" fill="#0052a5"/>
          <path id="Path_53" data-name="Path 53" d="M564.45,14.52v-.2a.2.2,0,0,1-.01.07v.12Z" fill="#0052a5"/>
          <path id="Path_54" data-name="Path 54" d="M567.99,13.81v-.1s-.03.23-.04.28c-.04.21-.02-.1-.02-.19l.02-.06c.04-.57-.08.08-.11.05l.06-.41-.07.34a1.5,1.5,0,0,1,.05-.4c0-.21-.04.14-.03-.09v-.07l-.04.12a1.447,1.447,0,0,1,.03-.23c-.02-.24-.1.3-.09-.01v-.03a4.987,4.987,0,0,0-.11.66l.05-.75-.04.3a.586.586,0,0,1,0-.16c-.04.21,0,.13-.04.33,0-.28-.09.12-.05-.36-.03.23.01.18-.04.34.04-.52-.05.09-.05-.16.04-.27.05-.12.04-.37-.06.45-.04-.1-.07-.02a.9.9,0,0,1-.03.19,1.879,1.879,0,0,0,.03-.19,1.907,1.907,0,0,1,.02-.2c0-.01-.04.26-.05.39-.02.07-.05,0-.08.08a1.47,1.47,0,0,0-.07-.34v-.06c-.04.36-.07.29-.1.36a2.919,2.919,0,0,1,.06-.4h-.03a.9.9,0,0,1-.05.22l.03-.27s-.1.31-.12.13a6.717,6.717,0,0,1-.1.88,3.211,3.211,0,0,1,.05-.43c0,.02-.03.11-.03.05l.04-.23c0-.1-.03.19-.04.17.02-.2,0-.14.02-.3,0-.02,0,.08.02,0a1.756,1.756,0,0,1-.02-.31,1.324,1.324,0,0,1-.04.29c-.04.01.01-.24,0-.34-.02.14-.03,0-.06.29v-.22c-.03.13-.08.03-.1.34v.02h0c-.09.3-.1-.17-.17-.05v-.1c-.04.11-.07.06-.12.27,0,0,0-.18.01-.3-.03.07-.05.18-.07.02.04-.17,0-.15.04-.12-.02-.09-.02-.25-.08.02.04-.25,0-.32-.02-.25v.18s-.03.01-.04-.01l.04-.33c-.03-.41-.19.67-.18,0-.04.23.02.17-.02.44a5.152,5.152,0,0,1-.02-.53c-.02-.19-.09.48-.12.35a1.961,1.961,0,0,1-.08.54,2.044,2.044,0,0,1,.04-.59v.07a.683.683,0,0,0,.03-.22l-.02.12c0-.12-.05-.11-.02-.31a.486.486,0,0,0-.02.26c-.02-.18-.06-.01-.09-.13a.874.874,0,0,1-.01.2c-.05-.15-.05.22-.1.27,0-.18.05-.43,0-.28a1.772,1.772,0,0,1,.05-.41c-.06.22-.06-.16-.07-.2l.03-.09c-.02.06-.03.05-.04.05v.24a.211.211,0,0,1-.02-.14c-.03.15-.03.39-.08.6,0-.12-.06.12-.03-.19.04.11.03-.32.07-.36-.01.04-.02.03-.03,0a.172.172,0,0,1,.01-.08c-.02-.28-.06.35-.11.34a.929.929,0,0,0,.01-.3,1.712,1.712,0,0,1-.05.43c-.02-.14-.04.1-.06.08v.07c-.01.18-.03.15-.05.2.01-.14.03-.09.03-.15-.06.31-.02-.33-.08-.12,0-.12.03-.33.03-.41-.06.23-.02-.25-.08-.06a1.134,1.134,0,0,1-.06.41l.08-.16-.08.34s.06-.15.06-.1a1.193,1.193,0,0,0-.04.33c0-.36-.07.2-.08-.04l.06-.59c-.02-.27-.11.29-.16.14v.1c-.02.23-.03.03-.06.12a3.125,3.125,0,0,0,.02-.39c-.01.15-.04-.02-.09.37v-.26c-.04-.11-.11.55-.15.48a4.385,4.385,0,0,1,.08-.5c-.02,0-.03-.04-.04.1,0-.12-.07.26-.07.07a2.248,2.248,0,0,1-.05.27v-.1c0,.1-.04.13-.05.35.01-.62-.14.03-.13-.5a.385.385,0,0,1-.12.13c0-.06.01-.1.01-.08-.02-.19-.08.56-.11.35,0-.32.04-.17.04-.29.06-.65-.07.08-.06-.3v-.04c0-.22-.07.24-.11.19a.513.513,0,0,1,.01-.1,1.334,1.334,0,0,1-.18.52,2.443,2.443,0,0,0,.05-.39c-.02.03-.04.41-.08.48a5.373,5.373,0,0,1,.01-.54h.04c.02-.37-.04,0-.06-.07l.02-.15c-.06.05-.1.44-.15.4v.12c-.08.38,0-.22-.07.06l.03-.39a4.522,4.522,0,0,1-.15.44c.05-.29.11-.43.15-.6-.02,0-.07.02-.1.21.01-.04.03-.13.03-.07-.06.31-.1.45-.14.44.08-.76-.08-.2-.05-.8-.1.27-.13-.13-.21-.1-.03.6-.03.01-.08.62-.02.04-.03.02-.03-.01h0l-.02-.37c0-.18.03-.13.04-.27-.04-.05,0-.26,0-.42-.02.22-.05.31-.06.22v.28c-.09.32,0-.52-.08-.2l.04-.19c-.04.11-.11-.02-.19.47a1.142,1.142,0,0,1,.03-.28c-.06-.08-.21.5-.24.2l.02-.15s-.05.28-.05.13a1.323,1.323,0,0,1,.02-.16c-.01.05-.06.26-.07.17l.03-.17c-.05-.2-.15.4-.22.49a1.7,1.7,0,0,0-.02-.66v-.06c-.07-.06-.17.35-.26.51,0-.48-.14-.22-.19-.49a3.219,3.219,0,0,1-.05.38c0-.09-.08.3-.04-.1h0c.03-.39-.02-.29-.05-.3l-.06.52c0-.77-.22.26-.19-.43-.03.13-.05.13-.08.26l.03-.28c-.04-.08-.06-.11-.13-.05l.03-.2s-.13.81-.16.82l.03-.42c-.06,0-.08-.37-.18,0a.847.847,0,0,1,.03-.2c-.03-.01-.08-.3-.13.28.04-.38-.06-.04-.11.12l.03-.28a1.935,1.935,0,0,1-.12.54.808.808,0,0,1,.01-.16c-.02-.04-.05.25-.07.12l.03-.18a.9.9,0,0,0-.07.28c-.03.11-.05-.08-.03-.33-.02.15-.06.36-.07.28a.535.535,0,0,1,.03-.18c-.03-.19-.11.31-.12.04,0-.09.01-.14.01-.17.04.01.07.03.07.05a6.515,6.515,0,0,1,.06-.65c-.05.19-.13.6-.15.48V11.6l-.02.04c0-.04,0-.07-.02-.08.02-.21-.03-.12-.04-.13-.03.28-.04.23-.05.47,0-.02,0-.03.02-.04a.077.077,0,0,1,.01-.03v.02a.1.1,0,0,1,.04-.01c-.03.14-.05.26-.06.1-.03.18-.05.36-.07.45.02-.39,0-.61.01-.85a1.12,1.12,0,0,0-.22.61c-.02.07,0-.15,0-.24a.68.68,0,0,0,.03-.12c-.04.13-.09.04-.13.41-.02-.17.05-.34,0-.28l.02-.11c-.04-.6-.25.92-.29.16v.13c-.09-.34-.29.29-.36-.25-.02-.11-.05.12-.09.3l.02-.3-.07.34c-.08.25-.01-.75-.13-.27v.2s-.1.11-.07-.12c0,.04-.03.21-.03.1l.02-.16-.08.26c-.03-.12.07-.62,0-.66a2.743,2.743,0,0,0-.12.56.892.892,0,0,1,0,.26l-.03.08a7.58,7.58,0,0,0-.09,1.26l.07-.28v.23h-.04c0,.22.03.04.05-.09a1.992,1.992,0,0,0,0,.25l.08-.44c-.01.18-.05.36-.04.46a5.18,5.18,0,0,1,.07-.54c0,.21-.03.38.01.21a.674.674,0,0,1-.04.25c.03-.14.06-.06.09-.3,0,.26.07-.06.02.38a2.311,2.311,0,0,1,.09-.36c-.09.52.06.04,0,.6.07-.47.11-.2.17-.46,0,.04-.02.11-.02.09a1.8,1.8,0,0,1,.02.28,6.282,6.282,0,0,1,.13-.71,7.086,7.086,0,0,1-.09.82c.03-.32.08-.31.1-.57,0,.23,0,.11-.01.44.05-.49.03-.08.08-.38,0,.24-.04.46.01.31a1.338,1.338,0,0,1-.05.32,3.327,3.327,0,0,0,.08-.57c.05-.1,0,.27-.01.46.04-.09.09-.43.11-.41a.5.5,0,0,1-.02.16c.06-.29.08,0,.15-.37v.09c.01-.18.03-.37.05-.5.02,0,.05-.23.03.01,0,0-.02.09-.03.16l.03-.1c-.02.35-.03.12-.06.37.04-.11.11-.39.13-.29-.03.34-.07.11-.07.41l-.03-.13c-.02.54-.02-.04-.05.53.04.1.07-.17.11-.06.03-.19.02-.28.05-.46.11-.33-.03.86.07.41.04-.22.09-.65.1-.42l-.05.38s.08-.55.11-.28c-.02.15-.05.12-.05.17,0,.31.05-.21.07-.21l-.03.34c.06-.05.14-.29.2-.34-.01.1-.03.21-.03.31.09-.16.15.06.2.27l.06-.29a1.666,1.666,0,0,1-.01.19c.02.11.02-.18.05-.3.02-.02,0,.17-.02.26.07-.24.19-.52.21-.2l-.02.09c.03.12.11-.59.11-.32v.05c.06.14.18-.12.21.33.06-.42.07.2.13-.39a4.474,4.474,0,0,0,.04.6c.02.03.06-.36.09-.42l-.03.31.06-.32-.02.37.03-.08v-.23c.05-.14.06.22.05.38l.11-.25a1.108,1.108,0,0,1-.05.24c.07-.31-.03.32.04.04a1.746,1.746,0,0,1,.03-.24c0,.19.04.19.09.12l-.03.21c.05.06.13-.09.2-.08a2.273,2.273,0,0,1,.05-.5l-.03.33c.03-.2,0-.12.04-.37a1.707,1.707,0,0,1-.05.47l.04-.11c0,.1-.02.15-.03.27.03-.2.02.33.07-.02v.1c.06,0,.1-.1.15-.11a3.213,3.213,0,0,1,.08-.44c.03.09.05.32.1.3.05-.14.03-.24.07-.4-.02.25.03.24-.02.42.06-.04.08-.04.17-.24a1.771,1.771,0,0,1,.01-.24c.02-.04.02.11,0,.23v.03c.11-.37.11.76.22.24v.03l.09-.27a1.549,1.549,0,0,0-.03.35c.12-.42.11.07.2-.2-.03.76.17-.04.18.45v-.18c.05-.17.02.1.03.15a1.717,1.717,0,0,1,.02-.26c.16-.2.26.29.38.46.05.05.12-.91.14-.48l-.05.33c.14-.38.21.04.34-.29a.634.634,0,0,1-.03.17c0,.24.08.02.1-.18.01.02-.01.18-.01.28,0,.14.08-.3.07-.06a.169.169,0,0,1-.02.09c.03-.11.06.04.08-.24.02.14.09-.12.1.05.05-.31.05.15.1-.28-.05.45.03.37.08.16-.02.14,0,.14-.02.33.03,0,.06-.08.08-.32,0,.54.15-.42.1.27a2.687,2.687,0,0,1,.28-.49c-.05.45-.09.04-.13.51.09-.18.17-.56.23-.44a1.474,1.474,0,0,1-.04.27c.09-.18.13.05.22-.18a.422.422,0,0,1-.03.12c.01-.01.02.07.04-.14l-.02.05a6.028,6.028,0,0,1,.13-.77c-.08.58.05.15-.06.89a1.567,1.567,0,0,0,.04-.27,2.064,2.064,0,0,1-.02.28c.05-.11.06-.33.1-.32-.01.1-.02.14-.04.25.04-.19.08-.38.1-.29,0,.06-.01.14-.02.13.06-.02.15-.5.19-.31a3.332,3.332,0,0,0-.03.52l.05-.11v-.18s.09-.26.1-.13l-.04.15.06-.06-.02-.14c.05-.19.04-.47.07-.36-.01.04.03,0,.02.23.03-.12.05-.24.07-.14,0,.12-.05.41-.05.49.05-.31.08-.08.13-.41-.01.08-.03.27-.04.31l.04-.25c0,.08,0,.12-.01.28.04.05.03-.47.06-.26a.217.217,0,0,1-.02.1c.04.11.11-.15.14-.02-.02.38-.05.09-.07.4.07-.06.18-.43.23-.34v-.04c.05-.53.01.27.07.02-.01.04-.04.29-.03.23.03.09.1-.12.18-.28l-.02.14c.01.12.06.08.08.14a1.527,1.527,0,0,0,.05-.31c0,.78.2-.4.21.25l-.03.12.08-.12c.02-.23,0-.14.01-.32.02-.14.05-.24.07-.24a2.2,2.2,0,0,0-.04.5c0-.07.02-.15.02-.22,0,.41.05-.46.07-.18v.12c0-.06.04-.22.06-.18-.02.27-.03.12-.05.34.03-.01.1-.5.1-.23-.02.07-.03.07-.05.15,0,.31,0,.24.02.29h0l.03.14v-.09c.1-.69.08-.12.17-.57a2.987,2.987,0,0,0-.07.55,2.253,2.253,0,0,1,0,.26c.05-.24.02.19.08-.16a.862.862,0,0,1,0,.25,1.849,1.849,0,0,0,.03-.29c.07-.33.06.41.16-.04.07-.18.11-.51.18-.67a1.639,1.639,0,0,1-.05.35c.01.15.03.12.07.01a1.992,1.992,0,0,0-.02.27c.02-.02.05-.35.06-.21-.02.11-.04.28-.06.39a3.594,3.594,0,0,1,.11-.35,2.041,2.041,0,0,1-.06.36,1.034,1.034,0,0,0,.12-.41Zm-7.52-.36h0Zm.04-.01c0-.1.02-.2.03-.19a1.326,1.326,0,0,0,0,.2C560.54,13.44,560.52,13.44,560.51,13.44Zm.09-1.86a.124.124,0,0,0-.02.03v.03a.614.614,0,0,1,.01-.14c.02-.04.01.02,0,.07Z" fill="#0052a5"/>
          <path id="Path_55" data-name="Path 55" d="M565.98,13.68Z" fill="#0052a5"/>
          <path id="Path_56" data-name="Path 56" d="M560.95,11.99v0Z" fill="#0052a5"/>
          <path id="Path_57" data-name="Path 57" d="M560.53,11.87v-.01h0Z" fill="#0052a5"/>
          <path id="Path_58" data-name="Path 58" d="M566.81,12.92v.01h0Z" fill="#0052a5"/>
          <path id="Path_59" data-name="Path 59" d="M561.45,14.09l.01-.07-.02.06Z" fill="#0052a5"/>
          <path id="Path_60" data-name="Path 60" d="M567.38,14.15s.01-.09.01-.12h0v.12Z" fill="#0052a5"/>
          <path id="Path_61" data-name="Path 61" d="M565.31,14.28h0C565.29,14.35,565.31,14.32,565.31,14.28Z" fill="#0052a5"/>
          <path id="Path_62" data-name="Path 62" d="M565.98,13.68a1.3,1.3,0,0,1-.03.13C565.95,13.83,565.97,13.84,565.98,13.68Z" fill="#0052a5"/>
          <path id="Path_63" data-name="Path 63" d="M564.6,14.54Z" fill="#0052a5"/>
          <path id="Path_64" data-name="Path 64" d="M565.92,13.81c0,.06.02.05.03,0C565.95,13.79,565.94,13.76,565.92,13.81Z" fill="#0052a5"/>
          <path id="Path_65" data-name="Path 65" d="M567.92,14.35v-.01h0Z" fill="#0052a5"/>
          <path id="Path_66" data-name="Path 66" d="M567.96,14.2l-.02.07S567.95,14.28,567.96,14.2Z" fill="#0052a5"/>
          <path id="Path_67" data-name="Path 67" d="M567.71,14.21s0,.22.03.16v-.08C567.73,14.44,567.74,14.04,567.71,14.21Z" fill="#0052a5"/>
          <path id="Path_68" data-name="Path 68" d="M567.68,12.74c-.02-.33-.01.24-.07.19l.03.09c0-.11,0-.26.03-.28Z" fill="#0052a5"/>
          <path id="Path_69" data-name="Path 69" d="M567.52,12.55a.55.55,0,0,0-.02.22A.533.533,0,0,0,567.52,12.55Z" fill="#0052a5"/>
          <path id="Path_70" data-name="Path 70" d="M566.54,12.67l.03-.25S566.56,12.52,566.54,12.67Z" fill="#0052a5"/>
          <path id="Path_71" data-name="Path 71" d="M566.22,13.97v.16l.03-.24Z" fill="#0052a5"/>
          <path id="Path_72" data-name="Path 72" d="M566.31,12.11l-.04.09.02-.06Z" fill="#0052a5"/>
          <path id="Path_73" data-name="Path 73" d="M564.67,12.07l-.03.31C564.66,12.32,564.7,11.97,564.67,12.07Z" fill="#0052a5"/>
          <path id="Path_74" data-name="Path 74" d="M563.93,12.32c0-.16,0-.26-.03-.11C563.91,12.23,563.92,12.36,563.93,12.32Z" fill="#0052a5"/>
          <path id="Path_75" data-name="Path 75" d="M561.91,11.49l-.03.08.01.02Z" fill="#0052a5"/>
          <path id="Path_76" data-name="Path 76" d="M555.26,12.87l-.03.33.03-.09C555.27,13.02,555.28,12.83,555.26,12.87Z" fill="#0052a5"/>
          <path id="Path_77" data-name="Path 77" d="M555.16,12.72a1.547,1.547,0,0,1,.01-.22,4.2,4.2,0,0,0-.07.74c.04-.32.04-.18.08-.56.02-.04.03.11.02.23.01-.08.03.07.05-.13-.01-.26-.04-.27-.08-.06Z" fill="#0052a5"/>
          <path id="Path_78" data-name="Path 78" d="M552.08,11.26s0,.02.01.02C552.09,11.25,552.09,11.23,552.08,11.26Z" fill="#0052a5"/>
          <path id="Path_79" data-name="Path 79" d="M553.35,11.77c0,.11.01.08.02.11Z" fill="#0052a5"/>
          <path id="Path_80" data-name="Path 80" d="M554.88,13.28s.01-.05.02-.09c0,.01-.01.03-.02.03v.05Z" fill="#0052a5"/>
          <path id="Path_81" data-name="Path 81" d="M553.89,11.64h0a.434.434,0,0,1,.02-.13Z" fill="#0052a5"/>
          <path id="Path_82" data-name="Path 82" d="M542.43,11.67h0a.861.861,0,0,1,.01-.17l-.02.17Z" fill="#0052a5"/>
          <path id="Path_83" data-name="Path 83" d="M548.49,10.91c.02.25-.08.32-.04.6A3.538,3.538,0,0,0,548.49,10.91Z" fill="#0052a5"/>
          <path id="Path_84" data-name="Path 84" d="M550.59,11.38s0-.06-.02-.02v.03s.01-.06.02-.01Z" fill="#0052a5"/>
          <path id="Path_85" data-name="Path 85" d="M550.26,11.37v.06h.01v-.06Z" fill="#0052a5"/>
          <path id="Path_86" data-name="Path 86" d="M543.8,13v-.25C543.8,12.95,543.74,13.02,543.8,13Z" fill="#0052a5"/>
          <path id="Path_87" data-name="Path 87" d="M554.87,13.24h.01v-.12a.223.223,0,0,1-.02.12Z" fill="#0052a5"/>
          <path id="Path_88" data-name="Path 88" d="M550.24,13.59a.808.808,0,0,0-.02-.2.2.2,0,0,1-.01.07l.03.12Z" fill="#0052a5"/>
          <path id="Path_89" data-name="Path 89" d="M545.17,11.14v0Z" fill="#0052a5"/>
          <path id="Path_90" data-name="Path 90" d="M555.06,12.97c-.04.21-.04-.1-.04-.19l.03-.06c0-.57-.1.09-.15.05l.04-.41-.07.34a1.586,1.586,0,0,1,.03-.4c-.02-.21-.04.15-.06-.08v-.07l-.04.12c.01-.09.01-.29.03-.23-.05-.24-.11.31-.12,0v-.03c-.08.14-.02.3-.1.66v-.75l-.03.3a.344.344,0,0,1-.01-.16c-.04.21,0,.13-.03.33-.03-.28-.12.12-.1-.36-.03.23.03.18-.02.34.02-.52-.06.09-.08-.16.03-.27.05-.12.03-.37-.05.45-.07-.1-.11-.02a.506.506,0,0,1-.03.19.776.776,0,0,1,.03-.19v-.2c0-.01-.03.26-.04.39-.03.07-.07,0-.11.08.01-.12-.09-.2-.13-.34v-.06c-.03.37-.07.29-.11.37a1.972,1.972,0,0,1,.05-.4h-.04a.585.585,0,0,1-.05.22l.02-.27s-.11.32-.16.13a5.615,5.615,0,0,1-.06.88,2.243,2.243,0,0,1,.04-.43c0,.02-.03.11-.03.05l.04-.23c-.02-.1-.03.19-.05.17a2.969,2.969,0,0,0,0-.3c0-.02.01.08.03,0a.834.834,0,0,1-.05-.31.928.928,0,0,1-.03.29c-.05.01,0-.24-.02-.34-.02.14-.04,0-.06.29a1.494,1.494,0,0,1,0-.22c-.03.13-.12.03-.11.35v.02h0c-.1.3-.16-.16-.24-.04v-.1c-.05.11-.1.06-.15.27a1.145,1.145,0,0,1-.01-.3c-.04.07-.05.18-.09.02.05-.17,0-.15.04-.12-.04-.09-.04-.25-.11.02.03-.25-.02-.32-.04-.25l.02.18s-.05.01-.07-.01l.03-.33c-.07-.41-.21.68-.25,0-.04.23.04.17,0,.44a4.094,4.094,0,0,1-.07-.53c-.05-.19-.08.48-.14.35a1.6,1.6,0,0,1-.06.54,1.666,1.666,0,0,1,0-.59c.01,0,.01.03.01.07a.369.369,0,0,0,.03-.22v.12c-.03-.12-.09-.11-.06-.31a.331.331,0,0,0,0,.26c-.05-.17-.09-.01-.14-.13v.2c-.08-.15-.05.22-.11.27-.02-.18.04-.43-.03-.28a.929.929,0,0,1,.03-.41c-.07.23-.09-.16-.12-.2l.03-.09c-.02.06-.03.05-.05.05v.24a.211.211,0,0,1-.02-.14c-.03.15,0,.39-.05.61-.02-.12-.07.13-.06-.19.06.11,0-.32.07-.36-.01.04-.03.03-.04,0s0-.07.01-.08c-.05-.28-.05.35-.12.34.02-.18,0-.34-.01-.3a1.03,1.03,0,0,1-.04.43c-.04-.14-.05.1-.08.08l.02.07c-.02.18-.04.15-.07.21,0-.14.03-.09.03-.15-.05.31-.06-.33-.12-.12-.02-.12.02-.33,0-.42-.07.23-.04-.25-.11-.06a1.4,1.4,0,0,1-.04.41l.1-.16-.08.34s.07-.15.08-.11a.906.906,0,0,0-.03.33c-.02-.36-.09.2-.12-.04l.03-.59c-.05-.27-.13.3-.21.14l.02.1c-.02.23-.05.03-.09.12.01-.2,0-.27,0-.39,0,.15-.06-.02-.09.38l-.02-.26c-.06-.11-.11.56-.17.49a2.464,2.464,0,0,1,.06-.51c-.02,0-.04-.04-.05.1,0-.12-.08.26-.09.07-.01.09-.03.29-.05.27v-.1a1.65,1.65,0,0,0-.04.35c-.03-.62-.19.03-.22-.5a.5.5,0,0,1-.16.14c0-.06,0-.1.01-.08-.05-.19-.07.56-.13.36-.02-.32.05-.17.03-.29.03-.65-.09.08-.11-.3v-.04c0-.22-.09.24-.14.19v-.1a1.111,1.111,0,0,1-.2.52,2.444,2.444,0,0,0,.04-.39c-.03.04-.02.41-.07.48a5.3,5.3,0,0,1-.03-.54h.05c0-.37-.06,0-.08-.07v-.16c-.06.05-.09.44-.16.41v.12c-.06.39-.02-.22-.08.07v-.39a2.182,2.182,0,0,1-.16.45,3.251,3.251,0,0,1,.16-.61c-.03,0-.1.02-.12.22.01-.04.03-.13.04-.07-.05.31-.1.46-.16.45.05-.76-.13-.2-.14-.8-.11.28-.19-.13-.3-.09,0,.6-.03.02-.06.63-.03.04-.04.03-.04,0h0l-.06-.37c0-.18.03-.13.04-.27-.06-.05,0-.26-.04-.42,0,.22-.04.31-.07.23l.03.28c-.1.32-.04-.52-.14-.2l.04-.19c-.05.11-.15-.01-.22.48a1.185,1.185,0,0,1,.02-.28c-.1-.08-.25.51-.31.2l.02-.15s-.05.28-.06.13c0-.06.02-.15,0-.16-.01.05-.06.26-.08.17l.03-.17c-.09-.2-.17.4-.26.5a1.208,1.208,0,0,0-.08-.66v-.06c-.11-.06-.21.35-.32.52-.04-.48-.21-.21-.3-.49a1.561,1.561,0,0,1-.04.39c-.02-.09-.08.3-.06-.1h0c0-.39-.05-.29-.09-.3l-.04.53c-.06-.77-.29.27-.3-.42-.03.13-.06.13-.09.26l.02-.28c-.06-.08-.1-.11-.19-.05l.03-.2a6.619,6.619,0,0,1-.15.83v-.42c-.07,0-.14-.37-.24,0a.525.525,0,0,1,.03-.2c-.04-.01-.14-.29-.15.29.02-.38-.08-.04-.14.12l.02-.28a1.785,1.785,0,0,1-.12.55V11.2c-.03-.04-.04.26-.08.12l.03-.18a1.036,1.036,0,0,0-.08.28c-.03.11-.08-.07-.07-.33-.01.15-.05.36-.07.28a.572.572,0,0,1,.02-.18c-.06-.19-.13.32-.16.04v-.17c.06,0,.1.03.1.05a3.167,3.167,0,0,1,.03-.66c-.05.19-.14.61-.17.48v-.12s-.01,0-.02.04a.219.219,0,0,0-.03-.08c0-.21-.05-.12-.07-.13a4.242,4.242,0,0,0-.03.47c0-.02,0-.03.02-.04a.077.077,0,0,1,.01-.03v.02l.06-.02c-.03.14-.05.26-.07.1-.02.18-.05.36-.06.45-.01-.39-.06-.61-.05-.85a.921.921,0,0,0-.25.62c-.02.07-.01-.15-.02-.24.01-.05.03-.04.04-.12-.05.13-.12.05-.15.41-.04-.17.05-.34-.03-.28l.02-.11c-.1-.6-.28.93-.39.16,0,.05.01.07.01.13-.16-.34-.37.29-.52-.24-.04-.11-.06.13-.1.3v-.3l-.06.35c-.09.25-.08-.75-.2-.27v.2s-.11.11-.09-.12c0,.04-.02.21-.03.1v-.16l-.09.27c-.06-.12.04-.63-.04-.66a1.856,1.856,0,0,0-.11.56.567.567,0,0,1,.02.26l-.04.08a6.093,6.093,0,0,0-.02,1.27l.07-.28v.23h-.04c.01.23.04.04.06-.09v.25l.08-.44a2.463,2.463,0,0,0-.01.46c.04-.2,0-.41.05-.54.01.21,0,.38.04.21a.725.725,0,0,1-.03.25c.03-.14.07-.06.1-.3.01.26.09-.06.07.38a1.546,1.546,0,0,1,.09-.36c-.07.52.09.04.05.6.06-.47.13-.2.2-.46,0,.04-.02.11-.02.09a1.292,1.292,0,0,1,.05.28,5.042,5.042,0,0,1,.12-.72,7.178,7.178,0,0,1-.06.82c.02-.32.09-.31.09-.58a2.628,2.628,0,0,1,.02.44c.03-.49.03-.08.08-.38.03.24-.01.46.04.31a.806.806,0,0,1-.04.32c.05.01.04-.36.07-.57.07-.1.01.27.02.46.04-.1.09-.43.12-.42v.16c.06-.29.12,0,.18-.37v.09c0-.19.01-.37.02-.51.02,0,.05-.23.05.01a.618.618,0,0,0-.03.16l.03-.1c0,.35-.04.12-.05.37.05-.11.12-.39.15-.29-.01.34-.09.11-.06.41l-.05-.13c.01.54-.03-.04-.02.54.07.1.09-.17.15-.07.03-.19.01-.28.04-.47.12-.33.03.86.13.41.03-.22.06-.65.1-.42l-.04.38c.07.04.07-.55.13-.29-.02.15-.06.12-.05.17.03.31.05-.22.08-.21v.34c.06-.05.16-.29.24-.35a1.614,1.614,0,0,0-.02.31c.11-.16.22.05.3.26l.05-.29v.19c.03.11.01-.19.04-.3.02-.02.02.17,0,.26.08-.24.22-.52.28-.21l-.02.09c.05.12.1-.6.13-.32v.05c.1.13.25-.13.32.32.04-.42.11.19.15-.39a2.586,2.586,0,0,0,.11.6c.02.03.06-.37.09-.43l-.02.31.06-.32v.37l.04-.08a1.165,1.165,0,0,1-.01-.23c.05-.14.1.22.1.38l.13-.25a.667.667,0,0,1-.05.24c.08-.31,0,.32.06.04a2.1,2.1,0,0,1,.02-.25c.02.19.08.19.13.12l-.02.21c.08.06.18-.09.27-.08a1.3,1.3,0,0,1,.03-.5v.33c.02-.2-.03-.12.02-.37a1.622,1.622,0,0,1-.02.48l.05-.11c0,.1-.02.15-.03.27.03-.2.05.33.1-.02v.1c.09,0,.14-.1.21-.11a2.178,2.178,0,0,1,.08-.44c.05.09.1.32.17.3a2.4,2.4,0,0,0,.06-.4c-.01.26.06.24.01.42.08-.04.1-.05.22-.25a.959.959,0,0,1,0-.24c.02-.04.04.11.03.23v.03c.13-.38.21.76.33.23v.03l.1-.27a1.054,1.054,0,0,0-.01.35c.12-.42.16.07.26-.21.02.76.23-.04.29.45v-.18c.04-.17.03.1.04.14a1.114,1.114,0,0,1,0-.26c.2-.2.38.28.57.45.07.05.09-.92.16-.49l-.04.33c.17-.39.29.03.45-.3a.634.634,0,0,1-.03.17c.02.24.11.02.12-.18a1.25,1.25,0,0,1,0,.28c.02.14.09-.3.09-.06a.251.251,0,0,1-.02.1c.03-.11.09.03.09-.24.05.13.11-.12.14.05.04-.31.08.15.12-.28-.03.45.07.37.12.16-.02.14.02.14,0,.33.04,0,.08-.09.08-.32.04.54.17-.43.17.27a2.1,2.1,0,0,1,.35-.5c-.03.45-.12.04-.14.51.11-.18.18-.56.27-.45a.682.682,0,0,1-.04.27c.11-.18.18.05.28-.19a.237.237,0,0,1-.03.12c.02-.01.04.07.05-.14l-.02.05a4.826,4.826,0,0,1,.11-.77c-.06.59.08.15,0,.89a1.567,1.567,0,0,0,.04-.27.663.663,0,0,1-.01.28c.07-.11.06-.33.11-.32a2.415,2.415,0,0,1-.03.25c.04-.19.08-.38.12-.3,0,.06,0,.14-.02.14.08-.03.16-.51.24-.32-.05.43.02.14,0,.52l.05-.11v-.18s.08-.26.11-.14l-.04.15.08-.07-.04-.14c.05-.19.02-.47.07-.37-.01.04.04,0,.05.23h0c.03-.12.06-.24.08-.15,0,.12-.03.41-.03.49.04-.31.1-.08.15-.41-.01.08-.02.27-.02.31l.03-.25a.836.836,0,0,1,0,.28c.06.05,0-.47.07-.27a.217.217,0,0,1-.02.1c.06.11.14-.15.2-.03,0,.38-.06.09-.06.41.09-.06.21-.44.3-.35v-.04c.03-.53.04.27.1.02a1.408,1.408,0,0,0-.02.23c.06.09.13-.12.23-.29l-.02.14c.03.12.09.08.12.14a1.166,1.166,0,0,0,.04-.31c.08.78.25-.4.32.25a.267.267,0,0,0-.03.12l.1-.12a2.916,2.916,0,0,0-.01-.32c.02-.14.05-.24.07-.24a1.2,1.2,0,0,0,0,.5c0-.07.01-.15.01-.22.02.41.03-.46.08-.18v.12c.02-.06.05-.22.07-.18,0,.27-.03.12-.05.34.04-.01.1-.5.12-.23-.02.07-.04.07-.06.15.02.32.03.24.05.29h0l.05.14V13.1c.07-.69.09-.12.17-.57a1.952,1.952,0,0,0-.04.55,1.139,1.139,0,0,1,.02.26c.04-.24.04.19.1-.16a.721.721,0,0,1,.01.26c.04-.07,0-.17.01-.29.08-.33.11.41.22-.04.08-.18.11-.51.19-.67a1.312,1.312,0,0,1-.04.35c.03.15.06.12.1.01a2.413,2.413,0,0,0,0,.27c.03-.02.04-.35.07-.21-.01.11-.03.28-.05.39.04-.09.08-.27.12-.35a1.654,1.654,0,0,1-.05.37.76.76,0,0,0,.13-.42l-.02-.1a1.574,1.574,0,0,1-.02.28Zm-10.45-2.21v.03a.614.614,0,0,1,.01-.14c.02-.04.02.02.02.07a.075.075,0,0,0-.03.03Zm.01,1.85h.01Zm.06-.01a.47.47,0,0,1,.02-.19,1.681,1.681,0,0,0,.02.2.06.06,0,0,0-.04-.01Z" fill="#0052a5"/>
          <path id="Path_91" data-name="Path 91" d="M544.57,11.02v-.01h0Z" fill="#0052a5"/>
          <path id="Path_92" data-name="Path 92" d="M553.39,11.92v.01h0Z" fill="#0052a5"/>
          <path id="Path_93" data-name="Path 93" d="M546.04,13.22v-.07l-.01.06Z" fill="#0052a5"/>
          <path id="Path_94" data-name="Path 94" d="M554.27,13.14a.624.624,0,0,1,.01-.12h0v.12Z" fill="#0052a5"/>
          <path id="Path_95" data-name="Path 95" d="M551.42,13.32v.01C551.4,13.38,551.42,13.36,551.42,13.32Z" fill="#0052a5"/>
          <path id="Path_96" data-name="Path 96" d="M552.3,12.71a1.3,1.3,0,0,1-.03.13C552.28,12.86,552.3,12.87,552.3,12.71Z" fill="#0052a5"/>
          <path id="Path_97" data-name="Path 97" d="M550.46,13.6Z" fill="#0052a5"/>
          <path id="Path_98" data-name="Path 98" d="M552.22,12.83c.01.06.03.05.04,0C552.25,12.81,552.24,12.78,552.22,12.83Z" fill="#0052a5"/>
          <path id="Path_99" data-name="Path 99" d="M555.04,13.33v-.02h0Z" fill="#0052a5"/>
          <path id="Path_100" data-name="Path 100" d="M555.08,13.18l-.02.07S555.08,13.26,555.08,13.18Z" fill="#0052a5"/>
          <path id="Path_101" data-name="Path 101" d="M554.73,13.2s.03.22.06.16v-.08C554.78,13.43,554.76,13.03,554.73,13.2Z" fill="#0052a5"/>
          <path id="Path_102" data-name="Path 102" d="M554.58,11.73c-.06-.33,0,.24-.07.2l.06.08c0-.11-.01-.26.02-.28Z" fill="#0052a5"/>
          <path id="Path_103" data-name="Path 103" d="M554.34,11.54a.333.333,0,0,0-.01.22C554.37,11.71,554.33,11.6,554.34,11.54Z" fill="#0052a5"/>
          <path id="Path_104" data-name="Path 104" d="M552.98,11.68l.02-.26A2.321,2.321,0,0,1,552.98,11.68Z" fill="#0052a5"/>
          <path id="Path_105" data-name="Path 105" d="M552.66,13.15l.03-.24-.04.08Z" fill="#0052a5"/>
          <path id="Path_106" data-name="Path 106" d="M552.61,11.12l-.05.09.04-.05Z" fill="#0052a5"/>
          <path id="Path_107" data-name="Path 107" d="M550.33,11.12v.32C550.34,11.38,550.36,11.03,550.33,11.12Z" fill="#0052a5"/>
          <path id="Path_108" data-name="Path 108" d="M549.34,11.39c0-.16-.02-.26-.05-.11C549.31,11.3,549.33,11.43,549.34,11.39Z" fill="#0052a5"/>
          <path id="Path_109" data-name="Path 109" d="M546.46,10.61l-.04.09.02.02Z" fill="#0052a5"/>
          <path id="Path_110" data-name="Path 110" d="M466.22,4.62a.405.405,0,0,0,.1-.13C466.23,4.54,466.2,4.58,466.22,4.62Z" fill="#0052a5"/>
          <path id="Path_111" data-name="Path 111" d="M423.66,2.51l.5-.05A1.227,1.227,0,0,0,423.66,2.51Z" fill="#0052a5"/>
          <path id="Path_112" data-name="Path 112" d="M491.7,6.1l-.06.03c.39.02.93.05,1.79.11l-1.73-.13Z" fill="#0052a5"/>
          <path id="Path_113" data-name="Path 113" d="M332.78.31h.57A5.306,5.306,0,0,0,332.78.31Z" fill="#0052a5"/>
          <path id="Path_114" data-name="Path 114" d="M386.65,1.41a3.42,3.42,0,0,1-.72.08A1.428,1.428,0,0,0,386.65,1.41Z" fill="#0052a5"/>
          <path id="Path_115" data-name="Path 115" d="M505.04,9.54l-.72-.22C504.32,9.4,504.58,9.5,505.04,9.54Z" fill="#0052a5"/>
          <path id="Path_116" data-name="Path 116" d="M530.92,9.96a.157.157,0,0,0-.07-.05C530.81,9.93,530.85,9.94,530.92,9.96Z" fill="#0052a5"/>
          <path id="Path_117" data-name="Path 117" d="M520.86,8.73c-.22,0-.47.03-.73.05C520.44,8.78,520.83,8.81,520.86,8.73Z" fill="#0052a5"/>
          <path id="Path_118" data-name="Path 118" d="M519.78,8.81l.35-.03C519.94,8.78,519.78,8.78,519.78,8.81Z" fill="#0052a5"/>
          <path id="Path_119" data-name="Path 119" d="M3.86,26.68a10.573,10.573,0,0,0-1.96.72Z" fill="#0052a5"/>
          <path id="Path_120" data-name="Path 120" d="M250.46,1.32l.16-.08C250.47,1.27,250.44,1.3,250.46,1.32Z" fill="#0052a5"/>
          <path id="Path_121" data-name="Path 121" d="M491.33,9.42c-.76.15-2.28-.14-2.27.04C489.85,9.46,490.97,9.66,491.33,9.42Z" fill="#0052a5"/>
          <path id="Path_122" data-name="Path 122" d="M233.31,8.93l-.49.03A4.311,4.311,0,0,0,233.31,8.93Z" fill="#0052a5"/>
          <path id="Path_123" data-name="Path 123" d="M3.94,28.41c-.06-.02-.13-.03-.2-.05a2.366,2.366,0,0,1-.4.15l.61-.1Z" fill="#0052a5"/>
          <path id="Path_124" data-name="Path 124" d="M164.78,5.24h.03l.17-.05Z" fill="#0052a5"/>
          <path id="Path_125" data-name="Path 125" d="M160.22,5.21l.96-.12A3.251,3.251,0,0,0,160.22,5.21Z" fill="#0052a5"/>
          <path id="Path_126" data-name="Path 126" d="M1.9,27.4l-1.13.44C1.18,27.71,1.55,27.55,1.9,27.4Z" fill="#0052a5"/>
          <path id="Path_127" data-name="Path 127" d="M111.35,9.6l.45-.07A3.071,3.071,0,0,0,111.35,9.6Z" fill="#0052a5"/>
          <path id="Path_128" data-name="Path 128" d="M390.1,1.56l.4.05S390.52,1.54,390.1,1.56Z" fill="#0052a5"/>
          <path id="Path_129" data-name="Path 129" d="M356.21,6.1h-.01v.01Z" fill="#0052a5"/>
          <path id="Path_130" data-name="Path 130" d="M356.21,6.1a6.691,6.691,0,0,0,1.8-.21A5.672,5.672,0,0,0,356.21,6.1Z" fill="#0052a5"/>
          <path id="Path_131" data-name="Path 131" d="M388.65,6.79V6.77a.021.021,0,0,0-.02.02Z" fill="#0052a5"/>
          <path id="Path_132" data-name="Path 132" d="M380.97,6.64a2.272,2.272,0,0,0,.49.09A2.7,2.7,0,0,0,380.97,6.64Z" fill="#0052a5"/>
          <path id="Path_133" data-name="Path 133" d="M334.43,6.45Z" fill="#0052a5"/>
          <path id="Path_134" data-name="Path 134" d="M104.7,9.99c-.05.04-.07.07-.07.1A.169.169,0,0,0,104.7,9.99Z" fill="#0052a5"/>
          <path id="Path_135" data-name="Path 135" d="M363.9,6.42s-.07.05-.06.08A.182.182,0,0,0,363.9,6.42Z" fill="#0052a5"/>
          <path id="Path_136" data-name="Path 136" d="M534.89,10.72c1.01.49,3.47.2,4.11.05-3.31-.62-2.31-.13-5.42-.78-.44.12-.39.52-2.26.27,1.19-.14-.07-.23-.4-.31.35.25-1.31.03-1.89.1-.51-.21,1.16-.48-.75-.66l-.39.52c-.74-.12.34-.38-1.26-.33.87-.24-.24-.45,1.92-.44-2.54-.58-3.95.07-5.95.17.21-.02.23-.1.43-.12a8.51,8.51,0,0,1-1.8.08c-1.31-.18,1.05-.2.72-.36l-2.13-.08s-.05-.03-.05-.04a2.58,2.58,0,0,1-1.29-.07c.64-.14.9-.31,1.33-.43l-2.26.27c.25-.17-1.83-.39-.23-.45l-3.31-.08-.26-.38c-.8.03-.82.1.12.19-1.13-.14-5.05.41-4.42-.28-2.61.18-3.55.02-6.7.05,2.44-.22-2.76-.55-.18-.59-1.49-.23-1.83.15-3.01.16-1.1-.21-.59-.54.61-.62l-1.42.1.03-.07-1.23.15c-1.29-.25-.26-.38-1.6-.49l-.31.31-.9-.23c.33.16-.46.19-1.44.17l.02-.07h-1.19c1.18-.14-1.08-.11-.53-.32-1.01-.06-1.03-.06-2.86-.09l.31.24c-2.39.08-.08-.33-2.01-.44l.11.26c-2.76-.56-4.72.02-6.76-.35,1.18,0,.89-.31.87-.24-1.77.01-4.65-.19-6.5.03-.65-.4-.81-.52-2.68-.77-1.37-.04-1.57-.02-2.03.18-1.32-.21-3.81-.05-3.87-.33-.32.2-1.19-.08-1.93.08l-.15-.11.1.26c-2.33-.64-3.98.2-6.33-.36l.41-.06-1,.07c-.15-.12.25-.17.31-.32l-4.64-.19.91.22a13.192,13.192,0,0,1-2.75.03c1.87-.32-1.54-.06-1.83-.36l1-.07q-1.36-.02-1.26.24c-1.77.04-1.19-.52-2.83-.3l1.16.05c.34.16-.5.34-1.28.31-.18-.04-.73-.17-.14-.19-1.39.06-3.47-.14-4.09-.05-.75-.1-.5-.27-.09-.33-2.98.13-1.34-.09-4.32.04l.05-.14-1.03.14L435,3.21l.52.2a21.1,21.1,0,0,1-2.73-.04l.46-.2c-2.76.04-3.17-.45-5.8-.23-.18-.04.23-.1.44-.13-2.44.26-1.82-.44-4.27-.1.15-.07-.11-.16-.02-.22l-1.11.11.09-.29-.92.4-.68-.32-.44.13c-1.17-.59-2.86-.22-4.47-.69l.27.37c-4.12.65-9.35-.75-14.31-.46l.09-.29-2.05.31c-1.09-.24.66-.24.32-.39-2.19.13-.92.41-3.46.46-1.3-.21.46-.21,1.07-.3a66.628,66.628,0,0,1-7.58.04c-.04.04-.14.09-.06.11-1.59.11-3.68-.05-5.43-.05.05-.13.48-.15.92-.17a8.606,8.606,0,0,0-2.03,0l.66-.24c-1.34-.07-3.93.13-4.23-.17.16.11.09.33-1.07.3-.63-.45-3.16.14-5.02-.12.22-.1,1.59-.11,1.2-.12a8.777,8.777,0,0,0-2.59.19l.25-.17-4.34.19c-.64-.45-4.09.01-3.79-.31-1.55-.04,1.3.21-.66.24-.52-.19-1.77.07-1.69-.22l.21-.03h-1.37l.87-.27c-1.18.05-2.05.32-2.11.53a21.211,21.211,0,0,1-3.21-.33l.42-.06c-3.14.07-5.19-.85-7.66-.4-.18-.04-.16-.11.22-.11L347.97.32l.46-.21L345.22.4l.04-.14c-2.12-.05-5.43.04-8.16.1l.41-.07c-2.97.24-2.87-.13-5.05.04a.654.654,0,0,1,.23-.06h-1.96l.43-.13c-1.45.32-4.15-.39-3.25-.13a13.876,13.876,0,0,0-2.48.49c-2.14.03-.52-.18-1.85-.3a36.9,36.9,0,0,1-3.91.12l.04-.15c-.98.03-1.59.14-2.95.16l.41-.07c-2.22.31-2.78-.41-4.52.23-.93-.11-2.7-.01-2.62-.3-2.77.2-4.92.3-7.67.43-.45-.47-.59.03-2.26-.23l.13.25c-3.89.07-8.36-.61-12.65-.37l-.12-.25-.85.3c-4.62-.02-10.6.02-14.28.1a29.6,29.6,0,0,1-4.95.46l.2-.04c-3.33.22-6.85.41-10.5.34.22-.11-.14-.18.27-.26a9.856,9.856,0,0,1-2.91.07l.92.17a6.635,6.635,0,0,1-3.05-.11l-1.63.31c-.11-.02-.28-.06-.3-.1l-.29.14-.88-.32a16.787,16.787,0,0,0-3.23.55c-.16-.11-1.69-.16-.51-.25-1.99,0-3.99.02-5.98.08l.94.08c.12.25-1.67.48-2.6.41,1.21-.25.09-.37-.44-.53-.81.17.71.2.29.35a17.647,17.647,0,0,1-3.72.3l.61-.13c-1.38.15-2.04-.27-3.4-.19-1.22.26-2.13.1-1.86.53-1.77.16-.69-.27-1.27-.29a9.8,9.8,0,0,1-3.64,0c-.95.68-4.79-.03-5.13.52l-1.47-.25c-.04.15-.32.48-1.49.59-1.12-.11-.86-.37-1.21-.51l-.72.57c-3.22-.16-6.94-.05-10.73.07-1.9.05-3.81.11-5.7.16-1.88.07-3.73.12-5.49.11-3.13.3-7.06.79-10.72.93l.4-.09-3.64.07,2.66.09c-.79.11-1.4.25-2.17.29a132.659,132.659,0,0,0-14.24.63c-3.14.81-2.15-.42-5.17.21.26-.07.35-.17.58-.24-3.27.41-5.04.7-8.3,1.31.33-.64-2.13.18-1.86-.16l-.26.27c-.74-.09-2.46-.01-2.23-.21l-1.42.42-.14-.24c-1.92.13-6.03.67-7.08.23-2.36.38-5.42.69-8.64.96s-6.59.46-9.57.73a24.236,24.236,0,0,1-3.92.64l-1.48-.16a20.41,20.41,0,0,1-4.11.69c0-.04.05-.07.14-.09a23.827,23.827,0,0,0-4.04.59c-1.36.12-2.7.13-2.68-.1-.47.38-3.2.15-3.2.15s-1.24.11-3.44.3c-1.1.1-2.44.21-4,.35-1.55.17-3.3.36-5.23.57-3.86.44-8.4.95-13.37,1.52-2.48.29-5.07.6-7.73.92-2.65.38-5.38.76-8.14,1.15-11.06,1.51-22.68,3.5-32.68,5.54-10,2.1-18.38,4.27-22.98,6.09-.58.39-2.31.96-1.56,1.09-1.34.42-2.09.17-2.29.48,1.91-.32-.4.77,1.49.61L.3,29.15c-.19.23,1.53-.6,1.32-.22l.21-.54a5.278,5.278,0,0,1,1.86-.1c.84-.38,1.26-1.13,3.43-1.36l-.58.16c1.71-.42,1.12.06,1.49.05l-.38.08,1.5-.08c-1.13.07-2.86.85-1.92.61,2.07-.32-.56,0,.97-.39.95-.22.73.08.72.23l1.71-.38c-.01.22-1.14.23-.39.3l2.11-.68c.51.45,2.3-.75,3.38-.45-1.53.45.18.15-.04.38,1.26-.29,2.53-.52,3.8-.77.38,0-.97.35-.4.22a4.858,4.858,0,0,0,1.54-.42c.36.09,2.85-.54,2.81-.16,2.63-.24,1-.66,3.45-.9.36.16-1.91.41-.79.43l2.49-.55a2.213,2.213,0,0,1-1.37.57,79.572,79.572,0,0,1,8.66-.68,48.943,48.943,0,0,0,8.15-.97c.91.12-.6.28-1.19.55,4.43-1.1,6.4-.44,10.23-1.01l.04-.22c5.44-.07,11.8-1.44,17.89-1.94l-.74-.06a27.378,27.378,0,0,1,3.13-.71c.17.09-.66.55,1.08.25-.37-.03-1.12-.02-.92-.16,2.64-.03,6.69-.42,11.16-.88s9.35-1.08,13.65-1.33c5.78-.66,11.83-1.2,17.85-1.73,3.01-.27,6.01-.53,8.97-.8,2.97-.22,5.89-.45,8.74-.71-1.74.16-1.04-.44.28-.42,3.66.62,6.2-.65,9.91-.32,3.31-.41,6.46-.54,9.55-.71a86.113,86.113,0,0,0,9.19-.91l.14.25a11.4,11.4,0,0,0,2.14-.21l-.02.07c2.3-.04,5.06-.47,6.38-.42l.07-.29c1.36-.11.72.18,2.11-.07l-.03.15,1.61-.37c-.13.51,3.85-.19,4.95-.03,1.76-.2,5.09-.61,7.77-.67.51.23,3.79.03,5.89.04,4.06-.35,9.89-.63,15.08-.76l-.11-.32,1.35-.08c-.02.07.17.1-.04.15,1.07.33,3.12-.24,4.22-.06-.7-.27-.95,0-1.72.02-1.12-.11-.07-.47,1.44-.37l-.03.07,1.02-.21c.13.25,1.06.33,1.19.58,4.46-.24,7.47-.81,12.08-.87-.46.3,3.3-.21,2.4.33,2.76-.3-.47-.38.78-.78.77-.02,1.58-.19,1.72-.02-.36.13.64.28.01.35l1.84-.11c.18.03-.23.12-.43.16,3.75-.42,6.68,0,10.04-.33.25-.18-1.34-.02-1.1-.21,3.39-.44,3.01.25,6.17-.07l-.65.26a8.134,8.134,0,0,1,3.15-.26c.3.29-1.42.27-2.23.43,1.16-.01,4.08-.16,3.18-.4a9.783,9.783,0,0,1,2.64.18c.02-.07-1.3-.17-.49-.32,1.89.12,4.8.05,7.1.02-.02.07.14.18-.05.22,1.84-.42,1.66.23,4.2.09,6.8-.26,15.6-.84,22.34-.88a26.742,26.742,0,0,1,5.75-.55l.23.51,1.79-.17c.73.15-1.38.1-.09.29l.67-.32c.14.18,4.61.1,1.6.48l6.96-.03c1.54,0,.9-.43,2.6-.31.35.15-.61.11-.47.29,5.11.36,5.9-1.02,10.67-.81l-.4.07c.81-.14,2.35-.13,2.37-.2-.61-.51-.85.28-2.31-.01.13-.43,1.81-.24,1.72-.57a13.434,13.434,0,0,0,2.74-.13c1.66.26,4.04.06,5.29.39a14.872,14.872,0,0,1,3.47-.6c1.25.33-.3.33,1.41.44l.27-.25c1.4.03,1.18.1,1.13.22,1.49,0,1.24-.35,3.12-.2l-1.05.25c1.39-.1,1.95-.06,3.88-.05-.04.14-.82.14-1.38.1,1.05.37,1.79-.17,2.36-.13-.16-.11-1.5-.15-.84-.4.96.04,2.04-.35,2.72-.06l-1.05.25a12.245,12.245,0,0,1,3.36-.23c-.12.02-.06.08-.11.13,1.45-.3,3.35.01,5.49.06l-.41.06c.87-.07,1.34-.29,1.81-.27-1.22-.16-.89-.23-1-.47,1.61.44,2.47-.45,5.11-.17-.04.14-.68.31-1.41.15a5.644,5.644,0,0,1-2.63.95c1-.09,2.18-.13,1.93.05l.32-.39c.61,0,1.08.03,1.54.03.26-.25-1.22-.43.18-.57,1.58-.11.84.42,1.09.24,2.18-.13.91-.41,3-.26a3.159,3.159,0,0,1-.8.05c1.5.18,3.69-.02,4.13.46a1.066,1.066,0,0,1-.84.2l.02-.07c-1.53.3.94-.02.91.27a12.856,12.856,0,0,1,2.9-.03l-.3-.3c3.18-.83-.18.58,2.96.5,1.99-.17-.75-.09.47-.28a23.081,23.081,0,0,0,3.81.23c.55.12,1.66.29,1.75.62,1.2-.12,3.63.19,4.31-.12-2.04-.3-2.04.32-4.42-.14l.67-.31c1.65.04,3.77-.1,4.91.04-.23-.07-.33-.15-.18-.22a43.952,43.952,0,0,1,5.33-.27c.3.3-1.04.23-2.02.24a29.2,29.2,0,0,0,3.84.16c.12.26-1.54-.04-1.81.21l2.54-.05v.05c.37-.42,1.93.06,3.49-.05,3.68.05,4.25-.52,6.29-.83.55.12.7.23.47.34-.9-.2-.74-.05-1.06.06,1.24-.03,2.71.45,2.01.62,1.98-.1-.71-.23.5-.35l2.7.06c-.31-.22-1.26-.28.14-.43a31.941,31.941,0,0,1,3.29.07c-.23.1.48.35-.68.3a6.085,6.085,0,0,0,2.36-.05c-1.68-.25,2.77-.11,1.52-.48l1.68.25c-.38-.02-.43.13-1,.07.47.35,1.38-.05,1.97-.07a15.674,15.674,0,0,1,2.26.29,5.227,5.227,0,0,1,2.08.21c.8-.04.07-.21.3-.31l2.69.11c.14.19.35.7-.06.76,1.03-.14.38-.53,1.92-.47-.89.33,2.03.33.74.72a20.544,20.544,0,0,0,4.78.3c.87-.26-1.5-.2-1.4-.49,3.9.01,4.16-.78,7.02-.55l-.74-.1a12.538,12.538,0,0,0,2.64-.29c-.5.34,2,1.02,4.93,1.03.25-.17-1.63-.39-1.14-.66h1.95c.14.04-.08.09-.33.13,1.75-.07,3.23.56,3.75.16l1.76.58-.69-.25a18.7,18.7,0,0,1,2.61-.22,10.119,10.119,0,0,1,3.81.3c-.34-.16-1.2-.52.38-.53-.04.58,3.29.31,3.23.61.64.01,1.76.23,1.84-.01l-.12.36c.17-.5,2.48-.41,4.25-.45-.43.67,1.95,0,2.71.65.35-.46,3.15-.09,3.48-.48,1.37.02,1.21.45,1.55.61l.64-.15c.68.25,3.24.4,4.75.62l1.43-.34.52.21c.23-.09,1.41-.1.69-.29l.76.06c.08-.45,1.08-.07,2.62-.19.35.09.25.19-.08.24.76.04.43.25.84.42-.54-.14,2.79-.68.73-.98-.13-.19,1.07-.27,1.82-.15l.44.42.92-.38a19.194,19.194,0,0,1,2.62.37c-.97-.02-2.2.68.32.78a21.487,21.487,0,0,0-2.67.24c.52.04.78.09-.04.22,1.97-.03.67-.22,2.62-.18-.12.36.42.5,2.11.7l-1.26-.32a.728.728,0,0,1,.25-.09c-.48-.06-.61-.12-.71-.27.38.02,2.28-.34,2.59-.11-1.93-.65,3.44-.28,2.2-.67a3.631,3.631,0,0,1,1.72.13c-1.64.2,1.21.47.93.71.61-.08-1.27-.33-.44-.43a8.9,8.9,0,0,1,2.21.41l-.41.05,1.49.23c.25-.17-1.44-.37-.05-.4.36.09,1.75.06,1.7.2-.67.22-.21.57-1.39.58.98.02,4.09.12,2.85-.27l1.16.07c-.72-.19-2.76-.56-.42-.5l-.02.07,1.64-.2.7.22c-.02-.09.24-.16.85-.13.15.12.72.18.67.33,1.75.06,1.62-.13,1.85-.22.98.02,1.34.11.87.3a44.71,44.71,0,0,1,4.58.4c1.8-.08-.36-.09.69-.29,1.52.7,5.91.52,8.83.57-.74-.57.68-.07,1.29-.46-.06.17,2.62.52.26.55l1.56.02c1.05.35-2.59.11-1,.6,1.75.06,2.93-.49,4.98-.19-.71.36,1.59-.06,1.06.35a7.317,7.317,0,0,1-1.59.06l.36.09c3.83.29,1.13-.41,3.16-.58,2.34.06,1.83.39,1.95.58a9.043,9.043,0,0,0,2.16.01c-1.44.17-2.62-.37-1.95-.58Z" fill="#0052a5"/>
          <path id="Path_137" data-name="Path 137" d="M388.18,6.99l1.41-.15-.93-.06c0,.06-.05.14-.48.2Z" fill="#0052a5"/>
          <path id="Path_138" data-name="Path 138" d="M345.44,6.1a2.661,2.661,0,0,0-.33.08C345.34,6.17,345.41,6.13,345.44,6.1Z" fill="#0052a5"/>
          <path id="Path_139" data-name="Path 139" d="M334.72,6.66c.77-.07.08-.14-.29-.21C334.41,6.51,334.43,6.58,334.72,6.66Z" fill="#0052a5"/>
          <path id="Path_140" data-name="Path 140" d="M414.37,6.68c.22-.05.27-.08.24-.12C414.45,6.58,414.35,6.62,414.37,6.68Z" fill="#0052a5"/>
          <path id="Path_141" data-name="Path 141" d="M483.69,9.06,483.42,9S483.57,9.04,483.69,9.06Z" fill="#0052a5"/>
          <path id="Path_142" data-name="Path 142" d="M479.1,8.43a3.992,3.992,0,0,0,.78,0C479.69,8.42,479.45,8.42,479.1,8.43Z" fill="#0052a5"/>
          <path id="Path_143" data-name="Path 143" d="M397.85,6.29a2.818,2.818,0,0,0-.73.08A2.477,2.477,0,0,0,397.85,6.29Z" fill="#0052a5"/>
          <path id="Path_144" data-name="Path 144" d="M478.3,8.46l-.96-.08a.127.127,0,0,0-.02.06l.98.02Z" fill="#0052a5"/>
          <path id="Path_145" data-name="Path 145" d="M484.9,9.15c-.38-.03-.89-.05-1.21-.09A4.082,4.082,0,0,0,484.9,9.15Z" fill="#0052a5"/>
          <path id="Path_146" data-name="Path 146" d="M439.98,6.94h-.1C439.12,7.05,439.6,7.01,439.98,6.94Z" fill="#0052a5"/>
          <path id="Path_147" data-name="Path 147" d="M474.07,8.76l-.13-.02-.28.07.41-.05Z" fill="#0052a5"/>
          <path id="Path_148" data-name="Path 148" d="M489.06,9.46a2.325,2.325,0,0,0-.48.03l.55.06c-.05-.04-.06-.07-.06-.09Z" fill="#0052a5"/>
          <path id="Path_149" data-name="Path 149" d="M454.43,7.82c.28-.1.38-.17.39-.23C454.5,7.59,454.29,7.63,454.43,7.82Z" fill="#0052a5"/>
        </g>
      </g>
    </g>
  </g>
</svg>
