<svg xmlns="http://www.w3.org/2000/svg" xmlns:xlink="http://www.w3.org/1999/xlink" width="85.348" height="96.359" viewBox="0 0 85.348 96.359">
  <defs>
    <linearGradient id="linear-gradient" x1="0.5" x2="0.5" y2="1" gradientUnits="objectBoundingBox">
      <stop offset="0" stop-color="#270203"/>
      <stop offset="0.474" stop-color="#785013"/>
      <stop offset="1" stop-color="#2b0502"/>
    </linearGradient>
  </defs>
  <g id="Group_567" data-name="Group 567" transform="translate(-68 -17909)">
    <path id="Path_160" data-name="Path 160" d="M0,0H79.469V96.36L39.734,87.585,0,96.36Z" transform="translate(68 17909)" fill="url(#linear-gradient)"/>
    <path id="Path_233" data-name="Path 233" d="M32.637-19.941c0-5.106-5.037-7.314-9.246-8.418,2.829-1.794,8.28-6.348,8.28-10.074,0-5.382-6.21-8.142-10.833-8.142-3.519,0-9.522,1.38-9.522,5.934,0,1.38.69,3.036,2.346,3.036a2.033,2.033,0,0,0,2.07-2.07c0-.414-.207-.759-.207-1.1v-.069c.828-1.173,4-1.587,5.313-1.587,2.208,0,6.693,1.173,6.693,4A4.4,4.4,0,0,1,26.5-36.5a23.479,23.479,0,0,1-12.282,7.728,24.723,24.723,0,0,0-3.1.621A2.054,2.054,0,0,0,9.522-26.22a2.076,2.076,0,0,0,2.07,2.07A18.442,18.442,0,0,0,14.9-24.7a15,15,0,0,1,2.484-.138c2.76,0,11.109,1.035,11.109,4.9,0,2.277-2,4.692-3.588,6.141-3.657,3.45-9.66,6.348-14.766,6.348-1.449,0-2.9-.207-3.174,1.794v.207c-.069,1.863,1.656,2.07,3.105,2.07,6.21,0,13.11-3.174,17.664-7.383C30.291-13.11,32.637-16.353,32.637-19.941Z" transform="translate(88.033 17978.441)" fill="#fff"/>
    <path id="Path_161" data-name="Path 161" d="M0,0V10H5.88Z" transform="translate(147.469 17909)" fill="#23030d"/>
  </g>
</svg>
