<svg xmlns="http://www.w3.org/2000/svg" xmlns:xlink="http://www.w3.org/1999/xlink" width="750" height="180.754" viewBox="0 0 750 180.754">
  <defs>
    <linearGradient id="linear-gradient" x1="-0.011" y1="0.43" x2="1" y2="0.46" gradientUnits="objectBoundingBox">
      <stop offset="0" stop-color="#1c110d"/>
      <stop offset="1" stop-color="#35251f"/>
    </linearGradient>
  </defs>
  <g id="Group_542" data-name="Group 542" transform="translate(-1437 24272)">
    <path id="Path_179" data-name="Path 179" d="M750,0H0V92l750,88.754Z" transform="translate(1437 -24272)" fill="#ecdcbb"/>
    <path id="Path_178" data-name="Path 178" d="M0,0H750V92L0,180.754Z" transform="translate(1437 -24272)" fill="url(#linear-gradient)"/>
    <path id="Path_217" data-name="Path 217" d="M23.534-29.4h.574a4.935,4.935,0,0,1,1.23.287c.533.2.943.656,1.066,1.886.164,1.8.246,3.526.287,5.371-2.419.205-5.084.451-7.667.533a12.162,12.162,0,0,1-1.722-.123c-.451-.041-.7-.082-1.025-.082a3.176,3.176,0,0,0-2.3,1.435c-2.419,3.4-4.346,8.446-5.945,13.694l-.246.041A23.018,23.018,0,0,1,7.5-10.086c0-4.633,1.6-9.512,3.2-13.407a7.465,7.465,0,0,0,.861-2.5,5.62,5.62,0,0,0-.533-2.05,6.254,6.254,0,0,0-1.968-2.583c-.205-.164-.41-.328-.574-.451l-.533.369a5.248,5.248,0,0,1,.9,2.87,18.49,18.49,0,0,1-.82,4.018c-1.64,6.109-2.46,10.291-2.46,13.9C5.576-5.74,6.232-2.091,7.5.246c.492.82.9.984,1.476.984S9.8.779,9.8-.041a7.987,7.987,0,0,0-.123-1.107,9.9,9.9,0,0,1-.164-1.558A14.26,14.26,0,0,1,9.8-5.371,38.085,38.085,0,0,1,14.145-18.04c.656-1.107,1.394-1.968,2.05-1.968a7.223,7.223,0,0,1,1.517.287,8.015,8.015,0,0,0,2.419.328c1.517,0,4.387-.328,6.6-.533.164,4.838.287,9.553.287,12.833a18.54,18.54,0,0,0-4.51-.574c-3.4,0-5.617,1.681-5.617,3.608,0,2.214,1.886,3.854,5,3.854,4.141,0,6.273-1.476,7.093-3.936A19.378,19.378,0,0,1,33.5-1.025a2.35,2.35,0,0,0,1.681.82A1.266,1.266,0,0,0,36.326-1.6a1.588,1.588,0,0,0-.615-1.312,19.222,19.222,0,0,0-6.355-3.567c-.164-3.977-.369-8.569-.492-13.612,2.87-.205,4.92-.328,6.191-.41,1.148-.123,1.558-.656,1.558-1.353,0-.82-1.353-1.353-2.3-1.353a1.932,1.932,0,0,0-1.189.369,2.863,2.863,0,0,1-.82.328c-1.107.2-2.255.328-3.444.451-.041-1.8.041-2.706.082-3.444a2.725,2.725,0,0,1,.492-1.681,1.1,1.1,0,0,0,.369-.82,1.327,1.327,0,0,0-.574-.984,6.545,6.545,0,0,0-3.854-1.64,4.233,4.233,0,0,0-2.009.574Zm3.2,24.272c-.328,1.64-1.64,3.034-4.674,3.034-2.583,0-3.69-.9-3.69-2.173,0-1.189,1.353-1.968,3.526-1.968A12.032,12.032,0,0,1,26.732-5.125ZM58.507-22.96c-6.765,5.043-8.856,8.774-8.856,12.792,0,5.248,4.633,8.241,14.186,8.241a36.845,36.845,0,0,0,7.913-.615c1.025-.328,1.23-.779,1.23-1.353,0-1.025-1.189-1.845-2.829-1.763a4.809,4.809,0,0,0-1.23.205,11.157,11.157,0,0,1-1.353.287,32.23,32.23,0,0,1-4.8.41c-8.159,0-11.152-2.419-11.152-6.109,0-4.592,4.551-9.43,9.963-11.685a29.431,29.431,0,0,1,7.708-1.476c.82-.082,1.23-.41,1.23-1.025a2.084,2.084,0,0,0-2.009-1.927,4.935,4.935,0,0,0-1.353.246,33.856,33.856,0,0,1-8.036,1.271c-4.141,0-5.453-.7-7.175-2.747l-.82.533c1.312,3.157,3.69,4.141,7.38,4.551ZM92.947-4.141c-.779-.574-1.558-1.148-2.3-1.763L90.2-5.33c1.189,1.394,1.722,2.378,2.5,5.453.2.779.451,1.025.984,1.025.41,0,.779-.246,1.23-.861.41-.574.492-1.517.41-3.2-.082-2.091-.164-6.068-.164-9.758a123.521,123.521,0,0,1,9.676-9.717,4.809,4.809,0,0,1,2.747-1.476c.984-.041,1.517.656,1.517,1.722,0,2.624-.369,5.986-.7,9.1-.287,2.87-.492,5.043-.492,7.134A4.162,4.162,0,0,0,112.3-1.476c4.838,0,8.323-4.715,9.922-9.635l-.943-.451c-2.091,4.756-5.412,7.708-8.241,7.708-2.091,0-2.788-1.107-2.788-2.829,0-2.378.615-7.134,1.312-12.751.164-1.189.369-1.927.369-2.542a3.778,3.778,0,0,0-3.936-3.649,5.794,5.794,0,0,0-2.911,1.189,101.229,101.229,0,0,0-9.922,9.389l.041-.615c.656-1.517,1.312-3.075,2.132-4.756a3.314,3.314,0,0,0,.451-1.107,1.319,1.319,0,0,0-.943-1.107,1.723,1.723,0,0,0-1.025.328c.123-1.845.205-2.829.328-3.772a3.038,3.038,0,0,1,.779-2.132c.369-.328.492-.533.492-.861,0-.492-.41-.984-1.107-1.517a6.1,6.1,0,0,0-3.157-1.353,4.759,4.759,0,0,0-2.214.82l.164.656a7.663,7.663,0,0,1,1.968.164c.656.2.9.779.9,1.763-.041,2.05-.164,4.715-.246,7.339a18.617,18.617,0,0,1-5.371,1.968,2.131,2.131,0,0,1-1.8-1.353l-.615.2a3.465,3.465,0,0,0,.861,2.132c1.025.984,1.64,1.353,2.132,1.353a1.877,1.877,0,0,0,.984-.328,33.9,33.9,0,0,1,3.731-1.968c0,.82-.082,2.091-.164,3.526a24.758,24.758,0,0,1-4.592,6.847,40.892,40.892,0,0,1-3.116,3.321c-.615.615-.738.9-.738,1.23a1.142,1.142,0,0,0,1.271,1.025c1.025,0,1.353-.246,2.419-1.681C90.2-6.929,91.676-8.9,93.275-10.906c0,2.542-.082,4.879-.123,6.724Zm33.374-18.737a7.771,7.771,0,0,0-.082,1.271c0,.82.861,1.886,2.173,2.87a3.015,3.015,0,0,0,1.722.7,2.5,2.5,0,0,0,1.025-.328,12.659,12.659,0,0,1,2.542-1.066c2.952-1.148,7.462-2.829,11.89-4.182-4.961,3.854-6.97,7.954-6.97,12.054,0,4.961,2.87,8.159,7.011,9.758a21.744,21.744,0,0,0,8.159,1.148c1.845,0,2.706-.574,2.706-1.476,0-.984-1.476-1.763-2.337-1.763a4.594,4.594,0,0,0-1.435.164,9.275,9.275,0,0,1-2.337.123c-4.141,0-9.635-2.542-9.635-8.446a13.138,13.138,0,0,1,6.97-11.029,20.607,20.607,0,0,1,8.9-2.419c1.64-.082,2.3-.328,2.3-.943a1.766,1.766,0,0,0-1.189-1.64,6.942,6.942,0,0,0-2.706-.451,1.924,1.924,0,0,0-1.107.328,5.71,5.71,0,0,1-1.23.656c-6.314,1.968-13.817,4.182-18.86,5.617a19.278,19.278,0,0,1-3.608.738,3.221,3.221,0,0,1-3.362-1.722Zm25.871,3.895a10.778,10.778,0,0,1,3.649,3.526c.738,1.23,1.025,1.845,1.845,1.845.656,0,1.189-.533,1.189-1.476a3.285,3.285,0,0,0-1.312-2.419,12.21,12.21,0,0,0-5.125-2.173Zm3.731-3.034a10.711,10.711,0,0,1,4.059,3.526c.779,1.23,1.189,1.476,1.64,1.476.615,0,1.148-.574,1.148-1.517a2.724,2.724,0,0,0-1.353-2.214,12.619,12.619,0,0,0-5.289-1.968ZM184.15-10.3v8c0,1.6-.35,2.05-1.9,2.05-1.25,0-2.45,0-4.1-.15l-.1,1c2.55.5,3.6,1.4,3.9,2.95,2.9,0,5.2-1.5,5.2-3.85,0-2.25-.2-5.8-.2-22.5v-4.3c1.1-.55,1.5-.95,1.5-1.35,0-.35-.1-.65-1.35-1.65-1.15-.95-1.6-1.1-2-1.1s-.65.25-1.25,1.6H179a50.352,50.352,0,0,0,4.35-5.6c1.5-.35,1.8-.6,1.8-1.1,0-.4-.15-.7-1.4-1.65-1.4-1.05-1.7-1.2-2.2-1.2-.35,0-.55.1-1.5,1.8H174.4c.35-.7.7-1.35.95-2,1.35-.2,1.95-.65,1.95-1.2,0-.45-.25-.8-4.5-1.85a57.315,57.315,0,0,1-7.55,16.25l.85.5a40.508,40.508,0,0,0,3.1-3.65v8.95c0,13.9-.9,18.3-3.7,23l.85.55c3.1-3.25,4.75-6.7,5.35-13.5Zm0-1.65H179.4V-19.4h4.75Zm0-9.1H179.4V-27.1a1.351,1.351,0,0,0,.8-.85h3.95Zm-4.2-14.65a65.351,65.351,0,0,1-2.55,6.1h-5a12.409,12.409,0,0,0-2.2-1c1.15-1.65,2.3-3.35,3.3-5.1Zm-7.6,7.75h4.35v6.9H172v-6.4ZM172-19.4h4.7v7.45h-4.9c.15-1.9.2-4.05.2-6.5Zm20.7-19.9-4.75-.25v2.15l4.75-.25h2.5a20.945,20.945,0,0,1-7.7,14.3l.7.7c5.9-3.65,9.35-8.4,10.3-14.15a1.134,1.134,0,0,0,.85-.85h7.25a29.315,29.315,0,0,1-1.15,5.9c-.45,1.3-1.1,1.95-3,1.95a31.3,31.3,0,0,1-4-.35l-.2,1c2.75.8,3.2,1.4,3.45,3,3.8-.15,5.8-1.5,6.6-4.15a49.783,49.783,0,0,0,1.4-6.55c1.35-.6,1.5-1.05,1.5-1.45s-.1-.7-1.5-1.75c-1.2-.9-1.45-.95-1.9-.95-.35,0-.7.2-1.45,1.7Zm1.6,20.4a25.451,25.451,0,0,0,1.25-3c1.4-.3,1.75-.6,1.75-1.1,0-.4-.45-.85-4.4-1.8a44.834,44.834,0,0,1-4.7,13.25l.85.55a30.927,30.927,0,0,0,4.4-6.25h5.45c-.05,2.5,0,4.95-.05,7.45H193l-4.5-.25V-7.9l4.5-.25h5.85c-.05,7.75-.15,10.05-.15,11.6,0,.5.3.75.95.75,1.2,0,2.45-.8,2.45-1.5,0-1.05-.1-3.35-.15-10.85H212.1c.5,0,.8-.25.8-.5,0-.45-.1-.9-4.1-3.9-1,.95-1.75,1.8-2.6,2.75h-4.25c-.05-2.5-.05-4.95-.05-7.45h8.8c.5,0,.8-.25.8-.5,0-.45-.25-1.05-3.6-3.75-.95.95-1.6,1.65-2.45,2.6H201.9v-3.55c1.45-.45,1.95-.85,1.95-1.45,0-.55-.8-.9-5.15-1.4.15,1.8.2,3.35.2,5.85v.55ZM262.05.1c-9.5-3.25-15.55-9.15-18.85-17.75h18.6c.5,0,.8-.25.8-.6,0-.45-.3-.95-4-3.8-1,1.05-1.6,1.75-2.45,2.75H255.1v-9.85c1.35-.6,1.65-1,1.65-1.4s-.05-.55-1.45-1.8c-1.25-1.1-1.55-1.25-2.05-1.25-.45,0-.75.2-1.55,1.8h-8.55v-6.8c1.7-.65,1.95-1.1,1.95-1.5,0-.55-.6-.9-5.35-1.35.15,3,.2,4.8.2,9.65h-4.5l-4.1-.25v2.15l4.1-.25h4.5c0,3.6-.05,7.25-.35,10.85h-8.05l-3.8-.25v2.15l3.8-.25h7.85a23.915,23.915,0,0,1-2.1,8,25.593,25.593,0,0,1-12.9,12.2l.55.85c6.4-2,11.5-5.65,14.85-11.7a24.417,24.417,0,0,0,2.5-7.95,29.7,29.7,0,0,0,16.05,19.7,4.492,4.492,0,0,1,3.5-2.35ZM242.7-19.3c.3-3,.45-6.5.45-10.75v-.1h8.75V-19.3ZM219.45-39.4a8.31,8.31,0,0,1,3.35,4.5c.35,1.15.9,1.4,1.75,1.4,1,0,1.75-.75,1.75-2.05,0-1.95-2-4.4-6.45-4.75Zm-3.6,15.6a6.716,6.716,0,0,1,3.7,3.7c.4,1.05.9,1.45,1.75,1.45,1.1,0,1.7-.8,1.7-2.1,0-2-2.15-3.85-6.8-4Zm13.7-11.85L220.7-9.55c-.85,2.5-1.7,3.1-4.05,3.1l-.05.9c2.45.35,2.95,1.1,2.95,2.5,0,2.05-.35,3.7-.35,4.65,0,1.45.75,2.15,2,2.15a2.193,2.193,0,0,0,2.3-2.25c0-1.65-1-3.15-1-5.15A21.764,21.764,0,0,1,223.65-10l7.1-25.3Zm59.5,29A3.2,3.2,0,0,0,285.9-3.5a3.237,3.237,0,0,0,3.15,3.15A3.272,3.272,0,0,0,292.2-3.5,3.237,3.237,0,0,0,289.05-6.65Zm.75-4.4V-14.6a54.4,54.4,0,0,1,1.1-12.3,48.228,48.228,0,0,0,1.3-7.8c0-2.3-1.35-3.95-3.2-3.95s-3.2,1.65-3.2,3.95a48.228,48.228,0,0,0,1.3,7.8,54.4,54.4,0,0,1,1.1,12.3v3.55Zm34.7,0,.15-4.2c.1-2.45.85-3.7,3.7-6.05,4.3-3.55,5.65-5.7,5.65-8.65,0-5.2-4-8.7-10.35-8.7-5.15,0-9.05,3.9-9.05,8.2,0,2.5,1.35,4.3,3.4,4.3a2.759,2.759,0,0,0,2.9-2.8,2.486,2.486,0,0,0-2.45-2.45c-.4,0-.75.3-1.1.3s-.6-.25-.6-.75c0-2.4,2.5-5,6.4-5a5.959,5.959,0,0,1,5.95,6.3c0,2.3-.5,3.6-2.45,6.1-3.05,3.95-3.85,5.35-3.85,7.8l.05,5.6Zm-.65,4.4A3.2,3.2,0,0,0,320.7-3.5a3.237,3.237,0,0,0,3.15,3.15A3.272,3.272,0,0,0,327-3.5,3.237,3.237,0,0,0,323.85-6.65Z" transform="translate(1819 -24207)" fill="#ecdcbb"/>
    <path id="Path_216" data-name="Path 216" d="M-108.71-49.42v-2.52h-23.03v2.52l6.37.63c.14,6.93.14,13.93.14,20.86h-21.42c0-7,0-14,.21-20.86l6.37-.63v-2.52H-163.1v2.52l6.65.7c.07,7,.07,14.07.07,21.07v3.43c0,7.14,0,14.21-.07,21.14l-6.65.63V0h23.03V-2.45l-6.37-.56c-.21-7-.21-14.14-.21-22.19h21.42c0,8.12,0,15.26-.14,22.19l-6.37.56V0h23.03V-2.45l-6.65-.63c-.07-7-.07-14.14-.07-21.14v-3.43c0-7.14,0-14.14.07-21.14Zm29.68,0v-2.52h-23.38v2.52l6.65.63c.14,7.07.14,14.14.14,21.14v3.43c0,7.14,0,14.21-.14,21.14l-6.65.63V0h23.38V-2.45l-6.65-.63c-.21-7-.21-14.14-.21-21.14v-3.43c0-7.14,0-14.14.21-21.14Zm39.34.42,2.66,10.78h3.78l-.07-13.72H-72.8v2.52l6.65.63c.14,7.07.14,14.14.14,21.14v3.43c0,7.14,0,14.21-.14,21.14l-6.65.63V0h24.22V-2.45l-7.49-.7c-.21-7-.21-14.21-.21-21.98h10.71l1.05,7.91h3.29v-18.2h-3.29l-1.05,7.63H-56.28c0-7.35,0-14.35.21-21.21Zm63.7-2.94H5.32v2.52l8.12,1.05.21,26.18C13.72-9.17,9.1-3.99.56-3.99c-8.05,0-12.67-4.62-12.67-17.5V-28c0-6.93,0-13.93.21-20.72l7.14-.7v-2.52H-28.14v2.52l6.16.63c.21,6.93.21,13.93.21,20.79v7.77c0,15.68,7.98,21.56,19.67,21.56,11.76,0,18.69-6.93,18.76-22.75l.28-27.02,7.07-.98Zm27.72-.35v6.72H38.01v-6.72ZM38.01-36.61v-6.93H51.73v6.93Zm13.72,2.03v3.92h.84c1.75,0,4.41-1.12,4.48-1.54V-51.52a5.25,5.25,0,0,0,2.59-1.19l-5.81-4.55L51.1-54.25H38.29l-5.67-2.73V5.6h.98c2.52,0,4.41-1.4,4.41-2.1V-34.58ZM52.92-9.87V-22.82H68.6V-9.87ZM70.7-27.79l-2.73,3.01H53.2l-5.6-2.45V-2.52h.77c2.24,0,4.55-1.26,4.55-1.68V-7.77H68.6v4.13h.91c1.75,0,4.34-1.26,4.41-1.75V-22.05a4.709,4.709,0,0,0,2.66-1.26ZM70-36.61v-6.93H84.28v6.93ZM84.28-52.29v6.72H70v-6.72Zm1.96-5.32-2.66,3.36H70.35l-5.6-2.45v25.55h.7c2.24,0,4.55-1.12,4.55-1.68v-1.75H84.28V-2.31c0,1.12-.35,1.61-1.68,1.61-1.4,0-8.05-.49-8.05-.49V-.14c3.08.42,4.69,1.05,5.67,1.89.98.7,1.33,1.96,1.54,3.5,7.07-.63,7.98-2.94,7.98-7V-51.31a5.226,5.226,0,0,0,2.94-1.33Zm66.85,13.65v7.14H138.81v-7.14ZM138.81-18.27v-7.28h14.28v7.28Zm14.28-9.31H138.81v-7.14h14.28ZM143.08-52.29a60.538,60.538,0,0,1-.98,6.37h-2.94l-5.6-2.52v35.28h.84c2.17,0,4.41-1.26,4.41-1.89v-1.26h14.28v2.24h.84c1.75,0,4.41-1.19,4.48-1.68V-43.4a3.8,3.8,0,0,0,2.38-1.12l-5.6-4.27-2.66,2.87h-7.21a68.174,68.174,0,0,0,3.43-6.37h13.3a1.591,1.591,0,0,0,1.75-1.12c-2.24-2.17-6.02-5.11-6.02-5.11l-3.22,4.13H129.99l.56,2.1Zm4.27,39.27c5.32,2.59,8.47,6.02,9.8,8.96,3.99,4.48,11.62-6.09-9.31-10.08ZM127.82-2.94a38.872,38.872,0,0,0,15.12-7.77c1.82.21,2.87,0,3.22-.77l-7.14-3.22A36.447,36.447,0,0,1,127.26-3.78Zm-5.95-49.77v7.21H108.71v-7.21ZM108.71-36.26v-7.21h13.16v7.21Zm0,2.1h13.16v2.59h.84c1.75,0,4.48-1.05,4.55-1.54V-51.73a5.215,5.215,0,0,0,2.94-1.4l-6.16-4.76-2.87,3.15H109.06l-5.53-2.45v26.32h.77c2.17,0,4.41-1.19,4.41-1.68Zm9.73,19.81h10.99a1.675,1.675,0,0,0,1.82-1.12c-2.03-2.1-5.32-4.9-5.32-4.9l-2.94,3.99h-4.55v-9.24h12.32c.98,0,1.68-.35,1.89-1.12-2.24-2.1-5.88-4.9-5.88-4.9l-3.22,3.99H98.91l.56,2.03h13.72V-6.16a21.7,21.7,0,0,1-5.6-6.16c.42-2.03.7-3.99.91-5.88,1.61-.14,2.38-.84,2.52-1.89l-7.35-.77c-.07,8.61-1.47,19.18-5.32,25.76l.7.84c4.2-4.06,6.65-10.01,8.05-15.89,6.3,11.69,15.68,14.14,32.83,14.14h20.44A4.345,4.345,0,0,1,163.8-.28v-.91c-5.74.14-18.27.14-23.59.14-9.24,0-16.31-.42-21.77-2.45Z" transform="translate(1641.861 -24127.908) rotate(-8)" fill="#ecdcbb"/>
    <g id="レイヤー_1" data-name="レイヤー 1" transform="translate(1476 -24243.566)">
      <g id="Group_371" data-name="Group 371">
        <g id="Group_366" data-name="Group 366">
          <path id="Path_6" data-name="Path 6" d="M0,42.45l.46-.6h2.7l-.46.6Z" fill="#fdf1d7"/>
          <path id="Path_7" data-name="Path 7" d="M23.73,45.05a3.05,3.05,0,0,1-3.3-2.92c0-1.66,1.4-2.81,3.3-2.81h3.62l-.61.79H23.73a2.151,2.151,0,0,0-2.37,2.06c0,1.43,1.26,2.1,2.88,2.1h3.12l-.61.78H23.74Z" fill="#fdf1d7"/>
          <path id="Path_8" data-name="Path 8" d="M36.58,45.05l.57-.78h3.99L38.5,40.3l-3.21,4.75h-1.1l3.72-5.45a.742.742,0,0,1,.61-.35.71.71,0,0,1,.61.35l3.66,5.45H36.58Z" fill="#fdf1d7"/>
          <path id="Path_9" data-name="Path 9" d="M50.23,45.05V39.32h6.08l-.61.79H51.15v1.72h4.89l-.53.69H51.15v1.76h5.2l-.61.78H50.23Z" fill="#fdf1d7"/>
          <path id="Path_10" data-name="Path 10" d="M70.04,45.05l-2.05-1.89H64.7v1.89h-.92V42.41h4.1c1.07,0,2.04-.31,2.04-1.13,0-.91-.85-1.17-2.04-1.17H63.76l.61-.79h3.85c1.34,0,2.65.51,2.65,1.91,0,1.03-.75,1.65-1.92,1.76l2.35,2.06H70.04Z" fill="#fdf1d7"/>
          <path id="Path_11" data-name="Path 11" d="M79.68,43.18v1.87h-.92V42.41h4.09c1.09,0,1.97-.31,1.97-1.14,0-.89-.8-1.16-1.98-1.16h-4.1l.62-.79h3.81c1.58,0,2.58.74,2.58,1.96s-.99,1.9-2.58,1.9H79.69Z" fill="#fdf1d7"/>
          <path id="Path_12" data-name="Path 12" d="M98.77,45.05V42.47h-4.4v2.58h-.92V39.32h.92v2.36h4.4V39.32h.92v5.73h-.92Z" fill="#fdf1d7"/>
          <path id="Path_13" data-name="Path 13" d="M113.57,39.32h.93v3.23c0,1.73-1.11,2.59-3.32,2.59-2.56,0-3.66-.86-3.66-2.59V39.32h.92v3.23c0,1.28.76,1.82,2.74,1.82s2.39-.54,2.39-1.82V39.32Z" fill="#fdf1d7"/>
          <path id="Path_14" data-name="Path 14" d="M131.87,42.45l.46-.6h2.7l-.46.6Z" fill="#fdf1d7"/>
        </g>
        <g id="Group_370" data-name="Group 370">
          <g id="Group_367" data-name="Group 367">
            <path id="Path_15" data-name="Path 15" d="M38.97,12.91s-.08-.04-.08-.09.05-.08.09-.1a5.647,5.647,0,0,0,3.63-5.53c0-3.64-2.4-7.2-10.4-7.2H4.64A4.64,4.64,0,0,0,.79,2.07a.693.693,0,0,0,.59,1.06H31.73c5.28,0,6.84,2,6.84,4.36,0,3.08-2.52,4.04-5.12,4.04H13.58a1.272,1.272,0,0,0-1.27,1.27v.58a1.272,1.272,0,0,0,1.27,1.27H32.93c4.36,0,6.68,1.64,6.68,4.72s-1.88,4.72-7.24,4.72h-31a.693.693,0,0,0-.59,1.06,4.649,4.649,0,0,0,3.86,2.07H32.52c7.84,0,11.16-2.72,11.16-7.92a6.544,6.544,0,0,0-4.72-6.38Z" fill="#fdf1d7"/>
            <path id="Path_16" data-name="Path 16" d="M66.03,23.03a.154.154,0,0,0,.03-.07.091.091,0,0,0-.03-.07L47.01,6.03a.342.342,0,0,1-.12-.27.158.158,0,0,1,.16-.16h2.32a6.6,6.6,0,0,1,4.34,1.64L68.53,20.36a.336.336,0,0,0,.1.04.178.178,0,0,0,.1-.04L82.12,7.25A5.788,5.788,0,0,1,86.17,5.6h2.2a.158.158,0,0,1,.16.16.386.386,0,0,1-.11.27L61.13,32.75a5.788,5.788,0,0,1-4.05,1.65h-2.2a.158.158,0,0,1-.16-.16.386.386,0,0,1,.11-.27L66.01,23.03Z" fill="#fdf1d7"/>
            <path id="Path_17" data-name="Path 17" d="M91.66.77V2.34a.77.77,0,0,0,.77.77h34.96a.776.776,0,0,1,.4,1.44c-1.23.73-2.59,1.56-3.37,2.12L96.82,26.68a.389.389,0,0,0-.16.32.2.2,0,0,0,.2.2h4.87a.738.738,0,0,0,.45-.15L134.71,3.47a.786.786,0,0,0,.32-.63V.77a.77.77,0,0,0-.77-.77H92.44a.77.77,0,0,0-.77.77Z" fill="#fdf1d7"/>
          </g>
          <g id="Group_368" data-name="Group 368">
            <rect id="Rectangle_102" data-name="Rectangle 102" width="3.05" height="3.08" rx="0.93" transform="translate(6.46 18.88)" fill="#fdf1d7"/>
            <rect id="Rectangle_103" data-name="Rectangle 103" width="3.05" height="3.08" rx="0.93" transform="translate(6.46 14.02)" fill="#fdf1d7"/>
            <rect id="Rectangle_104" data-name="Rectangle 104" width="3.05" height="3.08" rx="0.93" transform="translate(6.46 9.16)" fill="#fdf1d7"/>
            <rect id="Rectangle_105" data-name="Rectangle 105" width="3.05" height="3.08" rx="0.93" transform="translate(6.46 4.3)" fill="#fdf1d7"/>
          </g>
          <g id="Group_369" data-name="Group 369">
            <rect id="Rectangle_106" data-name="Rectangle 106" width="3.05" height="3.08" rx="0.93" transform="translate(1.58 16.45)" fill="#fdf1d7"/>
            <rect id="Rectangle_107" data-name="Rectangle 107" width="3.05" height="3.08" rx="0.93" transform="translate(1.58 11.59)" fill="#fdf1d7"/>
            <rect id="Rectangle_108" data-name="Rectangle 108" width="3.05" height="3.08" rx="0.93" transform="translate(1.58 6.73)" fill="#fdf1d7"/>
          </g>
        </g>
      </g>
    </g>
  </g>
</svg>
