<svg xmlns="http://www.w3.org/2000/svg" xmlns:xlink="http://www.w3.org/1999/xlink" width="85.348" height="96.359" viewBox="0 0 85.348 96.359">
  <defs>
    <linearGradient id="linear-gradient" x1="0.5" x2="0.5" y2="1" gradientUnits="objectBoundingBox">
      <stop offset="0" stop-color="#270203"/>
      <stop offset="0.474" stop-color="#785013"/>
      <stop offset="1" stop-color="#2b0502"/>
    </linearGradient>
  </defs>
  <g id="Group_566" data-name="Group 566" transform="translate(-68 -17909)">
    <path id="Path_160" data-name="Path 160" d="M0,0H79.469V96.36L39.734,87.585,0,96.36Z" transform="translate(68 17909)" fill="url(#linear-gradient)"/>
    <path id="Path_232" data-name="Path 232" d="M35.6-37.6c0-5.451-7.176-8-11.661-8a20.208,20.208,0,0,0-5.382.69c-3.174.759-8.211,3.174-8.211,7.038,0,2.829,1.587,4.692,4.071,5.865a1.837,1.837,0,0,0,.828.207,2.137,2.137,0,0,0,2.139-2.07c0-2.415-2.9-1.725-2.9-4,0-.345.552-.9.828-1.1,2.208-1.794,5.865-2.484,8.625-2.484,2.346,0,5.244.759,6.9,2.553a2.332,2.332,0,0,1,.621,1.311c0,1.311-4.209,6.762-4.968,7.659-3.657,4.692-7.659,9.108-11.592,13.593l-5.8,6.624c-.759.966-1.656,1.932-2.415,2.9A2.178,2.178,0,0,0,6.21-5.52,2.033,2.033,0,0,0,8.28-3.45h.345c1.38-.138,2.829-.414,4.209-.552,3.657-.276,7.314-.276,10.971-.345,1.794,0,9.384.069,10.833-1.035A2.051,2.051,0,0,0,35.6-7.107a2.033,2.033,0,0,0-2.07-2.07,2.2,2.2,0,0,0-.966.207c-1.242.414-7.314.483-8.832.483-3.519.069-6.969.069-10.488.345l4.761-5.451,7.245-8.349C27.669-24.84,35.6-33.672,35.6-37.6Z" transform="translate(86.79 17978.441)" fill="#fff"/>
    <path id="Path_161" data-name="Path 161" d="M0,0V10H5.88Z" transform="translate(147.469 17909)" fill="#23030d"/>
  </g>
</svg>
