<svg xmlns="http://www.w3.org/2000/svg" width="144.617" height="451.689" viewBox="0 0 144.617 451.689">
  <g id="Group_572" data-name="Group 572" transform="translate(-3461.732 23622.988)">
    <path id="Union_16" data-name="Union 16" d="M15.8,182.076l0-.01a14.77,14.77,0,0,1-1.66-5.764,23.382,23.382,0,0,0-3.053,2.111,3.03,3.03,0,0,1-1.851,1,1.116,1.116,0,0,1-.419-.079c-.314-.126-1-.553-.614-1.8.085-.3.372-.762,1.786-1.841.957-.729,2.349-1.68,4.139-2.829.27-2.742.47-4.884.594-6.62-2.93,1.649-4.627,2.615-5.538,3.177l-.019.011a4.916,4.916,0,0,1-2.084.791,1.043,1.043,0,0,1-.434-.088,1.226,1.226,0,0,1-.784-1.192c.006-.508.456-1.058,2.691-2.343l1.68-.964q2.059-1.177,5.09-2.927c.519-2.233,1-4.024,1.359-5.062a5.047,5.047,0,0,1,1.234-2.2,1.169,1.169,0,0,1,.795-.452v0c.223,0,.742.1.742,1.074,0,.822-.052,1.462-.082,1.769l-.006.04c-.067.368-.3,1.263-.734,2.822a27.38,27.38,0,0,0,2.663-1.751l.008-.006a3.2,3.2,0,0,1,1.737-.752,1.114,1.114,0,0,1,.631.184c.338.226.833.771.341,1.9l-.013.029-.016.027a3.59,3.59,0,0,1-2.321,1.656,13.71,13.71,0,0,0-3.856,2.427,41.8,41.8,0,0,0-1.016,6.915,36.621,36.621,0,0,1,6.017-3.867l.027-.013a6.837,6.837,0,0,1,2.393-.726.86.86,0,0,1,.929.608c.158.548-.337,1.042-.788,1.412a16.473,16.473,0,0,1-2.282,1.477,48.948,48.948,0,0,0-6.365,4.493c-.163,2.771.2,4.7,1.112,5.891l.014.019a3.614,3.614,0,0,0,3.208,1.515,7.875,7.875,0,0,0,1.108-.085,9.948,9.948,0,0,0,5.9-3.236l.025-.026c2.6-2.546,2.483-3.325,2.473-3.372a11.828,11.828,0,0,0-.572-1.37.907.907,0,0,1-.05-.732,1.486,1.486,0,0,1,.9-.786,1.115,1.115,0,0,1,.471-.1c.677,0,1.3.585,1.861,1.741.7,1.411-.108,3.333-2.48,5.878a14.577,14.577,0,0,1-8.117,4.554,10.588,10.588,0,0,1-1.892.187c-.1.006-.208.009-.311.009A5.188,5.188,0,0,1,15.8,182.076Zm16.777-44.084A32.739,32.739,0,0,1,29,135.373c-1.1-.885-2.173-1.841-3.221-2.782a23.641,23.641,0,0,1-2.414,3.055,23.661,23.661,0,0,1-2.286,2.2l-.025.022-.028.018a1.745,1.745,0,0,1-.916.316.94.94,0,0,1-.724-.323c-.386-.416-.033-1.062.138-1.375a15.993,15.993,0,0,1,1.233-1.814l.005-.007.374-.479c.956-1.22,1.862-2.379,2.8-3.524v0c-.277-.32-.655-.755-1.114-1.272l-.009-.01-.329-.39c-.543-.643-1.159-1.371-1.793-2.172-.338-.389-.661-.794-.966-1.211a1.582,1.582,0,0,1-.277.255l-.042.031-.047.021a1.859,1.859,0,0,1-1.2.109l-.019,0a1.49,1.49,0,0,1-.911-1.248v-.017a24.3,24.3,0,0,0,.184,6.7l.034.219c.388,2.5.643,4.154.747,4.465l.017.052.005.055a.552.552,0,0,0,.189.36.891.891,0,0,1,.32,1.156l-.02.036a2.083,2.083,0,0,1-.961.827,1.383,1.383,0,0,1-1.525-.088l-.021-.015c-.283-.237-.534-.763-1.412-5.738v-.012a34.893,34.893,0,0,1,.365-12.534,45.02,45.02,0,0,0-2.741,6.676,1.075,1.075,0,0,1,.294.889c-.1.671-.871,1.051-1.438,1.278l-.164.066-.169-.052c-.714-.22-1.1-.526-1.183-.94l-.017-.087.013-.086a23.712,23.712,0,0,1,1.22-4.685,27.05,27.05,0,0,1,3.989-8.053c1.707-2.367,2.658-3.727,2.829-3.983a.827.827,0,0,1,.71-.377,1.732,1.732,0,0,1,.943.358l.017.012a1.148,1.148,0,0,1,.49.767,2.056,2.056,0,0,1-.543,1.494l-.01.014c-.639.81-1.356,1.819-2.132,3q-.936,1.478-1.754,3.023a2.174,2.174,0,0,1,.227-.254l.068-.066.087-.036a2.125,2.125,0,0,1,.972-.158.917.917,0,0,1,1,.94c0,.35-.192,1.795-.513,3.87a17.211,17.211,0,0,1,1.818-3.438,29,29,0,0,1,5.525-7.47,17.943,17.943,0,0,1,2.8-2.261l.114-.081h.149a.99.99,0,0,1,.847.636l.014.028a3.085,3.085,0,0,1,.238.986c.055.488-.361,1-1.622,2a16.5,16.5,0,0,0-1.747,1.683,12.09,12.09,0,0,1,4.69-.941,12.327,12.327,0,0,1,2.066.177l.033.005.032.011a2.732,2.732,0,0,1,1.912,2.655c.412,1.554-.837,4.216-3.917,8.341A4.984,4.984,0,0,1,31,127.652l.028.1-.012.1a1.7,1.7,0,0,1-.455.965l-.009.009a.74.74,0,0,1-.528.214,1.966,1.966,0,0,1-1.186-.609c-.466.664-.939,1.345-1.378,2,.432.391.887.847,1.4,1.357a50.7,50.7,0,0,0,4.5,3.393h.005a21,21,0,0,1,2.225,1.7c.63.581.872,1,.809,1.386a.753.753,0,0,1-.577.6l-.035.01-.036.005a4.074,4.074,0,0,1-3.165-.89Zm-10.21-17.637a6.749,6.749,0,0,0-1.531,2.012c.26.46.463.834.6,1.117l.016.032.011.034a2.188,2.188,0,0,0,.456.782l.023.027a22.928,22.928,0,0,0,2,2.231l.016.016c.435.467.819.884,1.127,1.219l.53.574a9.222,9.222,0,0,1,1.313-1.634c-.379-.522-.729-1.008-1.044-1.445-.752-1.043-1.346-1.868-1.834-2.49a8.3,8.3,0,0,1-1.225-1.819l-.02-.046a1.122,1.122,0,0,1,.031-.871Q22.6,120.222,22.371,120.355Zm2.074-1.045a.983.983,0,0,1,.585.468c.107.174.482.664,1.117,1.457l.016.022c.326.456.773,1.039,1.292,1.713q.447.582.974,1.273a31.083,31.083,0,0,1,2.152-3.575h0c.656-1,1.313-2.3.921-3.083A21.243,21.243,0,0,0,24.445,119.31ZM1.17,135.78l0-.013c-.3-.767.269-1.725,1.674-2.85h.005c1.294-1,2.5-2.049,3.407-2.852a13.927,13.927,0,0,1,2.277-1.777l.09-.057.1-.014a.858.858,0,0,1,.135-.014c.31,0,.841.154.92,1.186.054.755-.538,1.711-1.758,2.845l-.006.006-.484.435c-.992.893-1.93,1.737-2.91,2.473-1.343,1.019-2.011,1.426-2.083,1.469a.709.709,0,0,1-.364.1C1.77,136.718,1.435,136.4,1.17,135.78ZM.419,127.84A1.122,1.122,0,0,1,.1,126.5l.022-.047.03-.041a11,11,0,0,1,1.957-2.085c.445-.412.89-.839,1.322-1.252.652-.625,1.328-1.269,2.023-1.895a16.9,16.9,0,0,1,2.134-1.8l.044-.031.049-.021a.766.766,0,0,1,.3-.07h0a.671.671,0,0,1,.492.214,1.547,1.547,0,0,1,.262,1.177c.073.824-.678,1.907-2.29,3.309-1.478,1.317-2.693,2.37-3.613,3.13l-.016.013a3.594,3.594,0,0,1-1.847.951H.955A.77.77,0,0,1,.419,127.84Zm.175-13.555a2.524,2.524,0,0,1-.479-.925l-.07-.254.17-.2a14.426,14.426,0,0,1,2.1-2.021A12.283,12.283,0,0,1,6.092,108.6a7.13,7.13,0,0,1,2.3-.615,1.21,1.21,0,0,1,.548.112c.22.11.885.561.322,1.793A2.385,2.385,0,0,1,8,111.281l-.042.019-.045.011a1.663,1.663,0,0,1-.41.055.831.831,0,0,1-.635-.244,5.508,5.508,0,0,0-1.08.365A7.518,7.518,0,0,0,3.327,113.2c-1.118,1.3-1.464,1.43-1.644,1.47a.976.976,0,0,1-1.09-.387Zm10.034-3.409-.007-.024v-.025a1.163,1.163,0,0,1,.188-.959,1.242,1.242,0,0,1,.952-.421c.283-.02,1.993-.433,10.146-2.933a12.013,12.013,0,0,1-.851-3.224,3.329,3.329,0,0,1,.236-1.782l.018-.042.025-.038a.867.867,0,0,1,.745-.4,1.373,1.373,0,0,1,.752.264l.041.027.034.035a3.112,3.112,0,0,1,.9,1.975,16.588,16.588,0,0,0,.767,2.889,25.9,25.9,0,0,1,5.506-.93H30.1c.184-.005.359-.008.52-.008,1.32,0,1.736.168,1.954.419a.644.644,0,0,1,.157.507,3.712,3.712,0,0,1-.184.825l-.02.059-.034.052a2.388,2.388,0,0,1-.8.755,1.3,1.3,0,0,1-1.316.021,2.472,2.472,0,0,0-1.5-.086l-.042.009a14.6,14.6,0,0,0-3.766,1.153.92.92,0,0,1-.856.649,1.649,1.649,0,0,1-1.155-.694L11.88,111.84h-.035a1.239,1.239,0,0,1-.141.008C11.333,111.848,10.847,111.679,10.627,110.876ZM10.618,89.4a1.174,1.174,0,0,1-.85-.835,1.079,1.079,0,0,1,.484-1.3c-1.417-3.52-2.117-5.944-2.076-7.205q0-.286.012-.572c-.276.468-.616,1.077-.99,1.776C6.5,82.6,5.679,83.248,4.675,83.248c-.22,0-.891,0-1.131-.5s.186-1.039.337-1.224c.474-.636,1.269-1.832,2.374-3.564,1.169-1.836,2.693-4.137,4.409-6.654l.011-.014A38,38,0,0,0,14.383,65.1c.36-.812.943-1.883,1.824-1.883v0a1.3,1.3,0,0,1,.951.468l.014.016c.167.192.32.373.465.542a16.63,16.63,0,0,0,1.217,1.338l.006,0a29.7,29.7,0,0,0,3.186,2.6l.008.005q.869.652,1.548,1.172c.919.7,1.583,1.2,2.022,1.489l.036.026A26.779,26.779,0,0,0,27.9,72.446l.016.01c.238.162.49.336.759.521.738.508,1.575,1.085,2.594,1.754,1.347.9,2.489,1.6,3.393,2.092.879.423,1.287.8,1.364,1.25a.885.885,0,0,1-.277.789,1.175,1.175,0,0,1-.867.323,5.612,5.612,0,0,1-2.266-.747,23.436,23.436,0,0,1-3.541-2.075c-.432-.277-.811-.528-1.116-.73l-.022-.015a17.347,17.347,0,0,1-.695,6.6,1.089,1.089,0,0,1,.482.581.947.947,0,0,1-.153.83l-.026.035a2.415,2.415,0,0,1-1.24.817C25.354,85.548,24.7,86,24.135,86a.95.95,0,0,1-.807-.441c-3.028.977-5.418,1.727-7.183,2.282-1.1.346-1.975.621-2.581.817a12.653,12.653,0,0,1-2.775.743l-.086.013ZM24.479,74.154A15.445,15.445,0,0,0,20.209,75.3a27.043,27.043,0,0,0-8.683,6,16.943,16.943,0,0,0,1.5,4.946c3.333-.9,6.863-1.993,11.057-3.417a14.091,14.091,0,0,0,1.372-6.172l0,0c-.2-2.172-.659-2.442-.749-2.474a.721.721,0,0,0-.186-.025Zm-8.783-6.1c-.343.527-.679,1.121-1.082,1.8L13.9,71.049l-.011.016c-.329.5-.626.97-.913,1.422-.365.576-.708,1.12-1.051,1.624-.468.7-1.023,1.436-1.58,2.16a2.032,2.032,0,0,1,.24.208l.023.024.021.027a1.812,1.812,0,0,1,.332,1.437v.009c-.012.051-.021.1-.029.156A33.708,33.708,0,0,1,22.7,71.806v0c-1.525-1.224-3.112-2.534-4.777-3.91L16.5,66.718C16.3,67.084,16.039,67.53,15.7,68.056ZM7.638,72.436a1.148,1.148,0,0,1-.851-.85l-.01-.042V71.5a3.556,3.556,0,0,1,.233-1.491c.027-.07.054-.14.082-.21a.915.915,0,0,1-.751.371A3.49,3.49,0,0,1,4.4,69.134L4.364,69.1a10.063,10.063,0,0,1-2.731-4.991c-.691-2.421-.859-3.883-.544-4.735v-.008c.354-.911.644-1.34,1-1.483H2.1a2.351,2.351,0,0,1,.836-.157h.23l.144.141a1.4,1.4,0,0,1,.344,1.461,9.107,9.107,0,0,0,.345,3L4,62.357v.026a8.717,8.717,0,0,0,1.972,4.161l.006.007c.977,1.182,1.409,2.088,1.311,2.757a20.811,20.811,0,0,1,1.8-3.341,31.689,31.689,0,0,1,2.349-3.522l.016-.021.018-.019a2.106,2.106,0,0,1,1.21-.631H12.7a1.251,1.251,0,0,1,.13-.007c.555,0,.922.374,1.092,1.112.167.719-.409,1.632-1.861,2.958a25.666,25.666,0,0,0-2.418,4.839,2.723,2.723,0,0,1-.681,1.411l-.022.025-.026.022a1.462,1.462,0,0,1-1.277.3Zm18.143-3.229a13.072,13.072,0,0,0-1.462-1.077l-.01-.005c-.751-.5-1.323-.912-1.737-1.212l-.018-.014-.133-.105c-.426-.34-1.139-.909-2.111-1.737-1.66-1.307-1.573-2.18-1.207-2.681l.014-.022.017-.019a1.1,1.1,0,0,1,.841-.364,3.159,3.159,0,0,1,1.9.962l.007.005a13.012,13.012,0,0,0,1.193.963c.434.316.88.64,1.276.917l.02.015q.5.385,1.049.84a.809.809,0,0,1-.175-.25.744.744,0,0,1-.005-.58l.008-.02a14.035,14.035,0,0,1,1.311-2.3,10.841,10.841,0,0,0,1.359-4.8c-.626-.975-1.864-1.469-3.681-1.469-.283,0-.585.012-.9.036h-.028a17.628,17.628,0,0,0-5.152.884,1.516,1.516,0,0,1-.655,1.188l-.027.017a1.131,1.131,0,0,1-.587.161,2.247,2.247,0,0,1-1.488-.778,21.261,21.261,0,0,0-8.27,3.167l-.025.015a3.624,3.624,0,0,1-1.733.576,1.484,1.484,0,0,1-.693-.16.7.7,0,0,1-.434-.578c-.046-.472.309-1.018,2.214-2.288l.023-.014a25.86,25.86,0,0,1,7.5-2.991,4.727,4.727,0,0,0-.906-.922c-.238-.131-.444-.263-.626-.381-.159-.1-.31-.2-.461-.282a1.243,1.243,0,0,1-.545-1.576,3.873,3.873,0,0,1,.585-1.119.883.883,0,0,1,.733-.411,1.057,1.057,0,0,1,.744.355c.282.282.808.808,1.535,1.616a17.814,17.814,0,0,1,1.769,2.236,37.18,37.18,0,0,1,7.673-1.278c.251-.013.492-.02.725-.02,2.839,0,4.569,1,5.145,2.979l.017.059v.061c.122,3-.278,5.271-1.187,6.752a9.2,9.2,0,0,1-1.814,2.316l-.067.062-.084.033a1.717,1.717,0,0,1-1.292,0,1.6,1.6,0,0,1-.355-.18q.506.42,1.056.889c1,.791,1.416,1.382,1.361,1.913a.849.849,0,0,1-.5.68l-.014.007a2.109,2.109,0,0,1-.88.226h-.015A1.22,1.22,0,0,1,25.781,69.206Zm-18.2-29.8v-.052a2.612,2.612,0,0,1,.389-1.47,32.154,32.154,0,0,1,2.109-3.122l.639-.868c.932-1.269,2.156-2.935,3.692-4.978-1.24.325-2.927.762-4.972,1.273-2.905.756-4.489,1.114-4.833,1.167a1.808,1.808,0,0,1-.9-.051.636.636,0,0,1-.42-.33,1.253,1.253,0,0,1,.134-1.062,1.737,1.737,0,0,1,1.117-1.048l.037-.01c.122-.027,1.262-.284,3.7-.916,2.544-.659,3.831-1.03,4.375-1.193.774-.257,2.043-.585,4.221-1.089a19.691,19.691,0,0,0,1.62-2.562c-1.821.41-4.014.968-6.793,1.731a21.317,21.317,0,0,1-4.518.981,1,1,0,0,1-.731-.229.9.9,0,0,1-.278-.692,1.388,1.388,0,0,1,.6-.968l.064-.052.076-.029c.86-.322,4.043-1.229,6.561-1.933,1.667-.483,3.4-.945,5.233-1.39a1.891,1.891,0,0,1-.644-1.385c-.066-.492-.113-.993-.139-1.494a52.454,52.454,0,0,0-5.062,1.7l-.014,0a12.979,12.979,0,0,1-3.329.975.675.675,0,0,1-.42-.125l-.023-.018-.023-.022a1.425,1.425,0,0,1-.427-.833,1.622,1.622,0,0,1,.006-.726l.053-.218.2-.106a16.1,16.1,0,0,1,3.282-1.316l.658-.241c1.769-.648,3.447-1.262,5.155-1.809V13.044c-2.533.694-4.927,1.369-6.961,1.945a17.08,17.08,0,0,1-3.786.927.594.594,0,0,1-.529-.25,3.026,3.026,0,0,1-.2-.382c-.035-.074-.07-.149-.111-.231-.35-.7.041-1.034.17-1.121a31.654,31.654,0,0,1,3.437-1.168L12,12.111H12q1.246-.392,2.508-.76a1.28,1.28,0,0,1-.141-.056c-.194-.061-.665-.284-1.48-1.6-.365-.562-.633-1.005-.827-1.33-.082-.136-.153-.254-.211-.347a6.024,6.024,0,0,1-.648-1.3c-.2-.517-.4-1.052-.608-1.7l-.008-.031c-.319-1.274.449-1.631.794-1.724h.01a1.117,1.117,0,0,1,.262-.033c.949,0,1.3,1.224,1.446,1.768l.307.532c.5.863,1.066,1.841,1.621,2.854.8,1.375,1.041,2.139.8,2.589,1.618-.455,3.268-.887,4.972-1.3a2.209,2.209,0,0,1-.418-.233l-.007,0c-.743-.54-.847-1.051-.8-1.387a7.37,7.37,0,0,1,.171-.94,30.577,30.577,0,0,1,1.466-3.231l.092-.191c.71-1.419,1.175-2.368,1.424-2.879L22.9.455A.777.777,0,0,1,23.635,0a2.248,2.248,0,0,1,1.1.4h.007a1.179,1.179,0,0,1,.574.849c.085.6-.266,1.321-1.106,2.264A20.991,20.991,0,0,0,22.454,8a2.343,2.343,0,0,1-.409,1.372l.308-.072a48.344,48.344,0,0,1,5.612-1.09l.089-.012.082.015a1.433,1.433,0,0,1,1.03.826,1.357,1.357,0,0,1-.018,1.36l-.013.022c-.258.388-.843.569-2.016.621a46.335,46.335,0,0,0-6.591,1.247l-.049,1.625c.646-.134,1.519-.287,2.642-.465h.005a15.077,15.077,0,0,0,3.114-.8,2.213,2.213,0,0,1,2.344.263,1.212,1.212,0,0,1,.613,1.068,1.208,1.208,0,0,1-.8.928,3.242,3.242,0,0,1-2.165.46,7.92,7.92,0,0,0-2.984.49l-.038.012q-.9.252-1.562.437c-.536.149-.96.266-1.273.357a2.435,2.435,0,0,0,.225,1.5l.016.035a1.772,1.772,0,0,1-.065,1.876q1.989-.456,4.136-.9a53.706,53.706,0,0,1,6.7-1.089h.078a2.053,2.053,0,0,1,1.7.693,1.108,1.108,0,0,1-.218,1.52l-.03.031-.035.024a3.054,3.054,0,0,1-2.177.529,11.23,11.23,0,0,0-1.74.039c-.148.016-.545.1-1.093.2-.642.127-1.519.3-2.664.509-1.9.381-3.289.7-4.1.9a5.011,5.011,0,0,1-.278,1.574l-.015.044-.022.04c-.082.144-.212.353-.375.617.742-.188,1.546-.4,2.487-.669h.015a48.856,48.856,0,0,1,5.96-1.089,20.023,20.023,0,0,1,4.246-.406h.233l.148.18a1.015,1.015,0,0,1,.1,1.147,1.3,1.3,0,0,1-1.078.747c-.371.044-1.636.341-3.011.669-1.775.423-3.111.691-4.2.849H25.3a19.518,19.518,0,0,0-3.276.663q-1.115.317-1.826.525a7.809,7.809,0,0,0,.747.87c.365.317,1.633,1.3,3.4,2.648,2.136,1.623,3.459,2.61,4.332,3.179.94.626,1.911,1.274,2.945,1.95a16.041,16.041,0,0,1,1.929,1.314l.015.012a1.42,1.42,0,0,1,.487,1.058v.009c0,.391-.244.808-.93.808a2.666,2.666,0,0,1-.406-.034l-.036-.006-.035-.011a12,12,0,0,1-2.957-1.373c-1.413-.848-2.615-1.61-3.606-2.244l-.019-.014c-.847-.6-1.79-1.307-3.057-2.292-1.047-.8-2.843-2.376-5.21-4.558-.98,1.41-1.733,2.444-2.291,3.152-.3.382-.6.75-.883,1.1s-.578.717-.877,1.1l-.008.01c-.493.591-.9,1.123-1.259,1.592l-.206.269a17.646,17.646,0,0,0-1.348,2.119,3.862,3.862,0,0,1-1.783,1.9l-.039.021-.042.013a2.027,2.027,0,0,1-.6.1q-.036,0-.071,0A.82.82,0,0,1,7.577,39.41Z" transform="translate(3569.946 -23622.988)" fill="#493213"/>
    <path id="Union_15" data-name="Union 15" d="M39.641,441.383a11.728,11.728,0,0,1-2.672-6.931c-.427-4.009.033-4.862.543-5.166a2.022,2.022,0,0,1,1.056-.292v0a2.036,2.036,0,0,1,1.061.3l.066.04.051.058a16.849,16.849,0,0,1,2.775,4.415c1.285,2.473,1.94,4.354,1.949,5.592a2.58,2.58,0,0,1-1.965,2.7,3.979,3.979,0,0,1-1.226.221q-.059,0-.118,0A1.7,1.7,0,0,1,39.641,441.383Zm2.45-25.97c-.9-.131-1.706-.939-2.471-2.471-.756-1.512-.868-5.535-.351-12.659.517-7.234.9-13.146,1.1-18.482.1-2.7.227-4.831.377-6.319.211-2.1.438-2.633.632-2.875l.017-.021a2.934,2.934,0,0,1,2.19-.983,1.894,1.894,0,0,1,.285.014c.1-.009.19-.013.285-.013a3.167,3.167,0,0,1,2.273.969l.04.041.029.048c.186.31.532.886-.531,10.91-.883,8.2-1.589,17.475-2.1,27.572v.013a15.046,15.046,0,0,1-.448,2.948c-.1.327-.392,1.319-1.187,1.319A.9.9,0,0,1,42.091,415.412Zm-17.681-79.4a2.319,2.319,0,0,1-.33-2l.008-.039.014-.037A31.723,31.723,0,0,1,28.05,326.7a57.82,57.82,0,0,1,5.417-6.457A32.716,32.716,0,0,0,26,322.964c-3.917,1.958-4.972,2.222-5.491,2.222a.8.8,0,0,1-.59-.214c-.162-.162-.592-.592-2.727-8.217-1.563-5.213-2.006-11.7-1.319-19.275a131.1,131.1,0,0,1,2.206-16.661v-.009c.464-2.122,1.31-3.2,2.515-3.2a3.379,3.379,0,0,1,2.1.959,17.043,17.043,0,0,1,.393-1.882c.3-1.246-.561-7.6-1.43-13.64A29.62,29.62,0,0,0,7.99,271.493c-.578,1.319-.289,3.155.816,5.182v.008a5.462,5.462,0,0,1,.789,3.226A2.962,2.962,0,0,1,7.9,282.155a2.892,2.892,0,0,1-1.391.419c-.848,0-1.926-.536-2.246-3.1-.315-2.625-.508-4.7-.6-6.536l-.03-.539c-.089-1.616-.189-3.447-.368-5.237a19.665,19.665,0,0,1,.308-6.052V261.1c.4-1.8.8-3.723,1.2-5.587a13.85,13.85,0,0,1,2.074-5.18l.01-.014a20.663,20.663,0,0,1,3.484-3.791,31.944,31.944,0,0,0,3.151-3.054l.025-.026a23.564,23.564,0,0,1,4.283-3.263,4.162,4.162,0,0,1,2.107-.832,1.268,1.268,0,0,1,.972.409,2.391,2.391,0,0,1,.382,1.9,5.031,5.031,0,0,1-3.331,4.324h-.006a8.139,8.139,0,0,0-3.659,2.536c-.2.273-.4.557-.618.857-.633.883-1.351,1.883-2.174,2.933a18.7,18.7,0,0,0-2.216,4.324l-1.234,8.636a63.172,63.172,0,0,1,29-10.156l.2-.018.157.126c1.325,1.06,1.889,1.954,1.724,2.732-.132.625-.7,1.076-1.7,1.338a13.012,13.012,0,0,1-3.728.545c-.279,0-.562-.009-.841-.027-.155-.01-.311-.015-.467-.015a7.068,7.068,0,0,0-2.8.576l-.023.01-.025.008c-.8.248-1.5.5-2.121.721-.227.082-.446.161-.66.236a75.248,75.248,0,0,1,1.026,9.843,52.726,52.726,0,0,1-.041,6.254,108.8,108.8,0,0,1,11.809-4.013l.112-.031,1.534.292c-.247-1.911-.419-3.674-.512-5.25-.041-.652-.1-1.354-.158-2.1-.089-1.089-.181-2.216-.241-3.4a18.048,18.048,0,0,1,.515-5.855v-.017l.191-.653c.445-1.52.9-3.092,1.52-4.683a13.472,13.472,0,0,1,2.8-4.565l.025-.025a35.394,35.394,0,0,1,3.753-3.043l.023-.014a14.181,14.181,0,0,0,3.091-2.608l.024-.025a10.814,10.814,0,0,1,4.8-2.721,5.888,5.888,0,0,1,1.84-.392h0a1.22,1.22,0,0,1,1.143.531,2.125,2.125,0,0,1-.277,1.962,7.683,7.683,0,0,1-3.947,3.839l-.03.012a9.051,9.051,0,0,0-3.7,2.464l-.018.018c-.908.908-1.832,1.917-2.811,2.983l-.271.3a11.21,11.21,0,0,0-2.187,3.888l-1.408,7.92a79.4,79.4,0,0,1,31.579-9.746l.209-.019.16.136c1.3,1.106,1.836,2.019,1.634,2.793-.163.63-.782,1.058-1.84,1.274a12.481,12.481,0,0,1-4.876.41H72.2a6.211,6.211,0,0,0-3.332.464l-.014,0a16.427,16.427,0,0,1-3.293.949,48.762,48.762,0,0,1,.906,11.2,38.729,38.729,0,0,1-1.11,9.294,9.875,9.875,0,0,1-1.472,3.771l-.028.043-.036.036a2.554,2.554,0,0,1-1.846.748,3.167,3.167,0,0,1-1.638-.356,2.205,2.205,0,0,1-.285-3.254,19.17,19.17,0,0,0,1.214-4.562v-.03c.575-2.874.3-7.954-.822-15.108A32.746,32.746,0,0,0,45.3,267.995a5.27,5.27,0,0,0,.586,4.163l.01.016a6.35,6.35,0,0,1,1.137,3.713,17,17,0,0,1,6.076,6.811l.022.045.013.048a73.115,73.115,0,0,1,2.34,15.28,73.16,73.16,0,0,1-.93,15.43v.029l-.008.028c-1,3.443-1.808,4.785-2.893,4.785a1.522,1.522,0,0,1-1.011-.443,4.78,4.78,0,0,1-1.7-2.717c-.319-.023-.638-.035-.957-.035a13.054,13.054,0,0,0-7.744,2.56,6.775,6.775,0,0,1,.226,1.711,2.958,2.958,0,0,1-1.068,1.839,20.887,20.887,0,0,1-2.931,2.362,22.994,22.994,0,0,0-6.259,7.924,3.27,3.27,0,0,1-.667,3.208,7.3,7.3,0,0,1-2.793,1.933l-.072.029H26.6a2.48,2.48,0,0,1-2.191-.7Zm21.49-31.82c-1.068,0-3.207.707-6.934,2.291A156.509,156.509,0,0,1,22,312.582c.276,3.1.831,5.143,1.69,6.223a93.792,93.792,0,0,1,25.823-8.021h0a91.189,91.189,0,0,0,.016-21.19,37.233,37.233,0,0,0-9.654,2.979l-.018.008a186.557,186.557,0,0,0-17.96,8.672,16.585,16.585,0,0,0-.257,6.766c9.54-4.08,15.378-6.359,18.881-7.374a19.911,19.911,0,0,1,5.454-1.126,2.524,2.524,0,0,1,1.844.549l.007.008a2.918,2.918,0,0,1,.732,2.737,1.556,1.556,0,0,1-1.7,1.468,3.82,3.82,0,0,1-.679-.067,1.56,1.56,0,0,0-.266-.023ZM34.166,278.874l-.016.007A30.823,30.823,0,0,0,27.5,282.5a8.506,8.506,0,0,1-2.6,1.82,17.582,17.582,0,0,0-2.988,11.225,101.477,101.477,0,0,0,17.511-7.956,14.76,14.76,0,0,1,6.988-2.316,6.325,6.325,0,0,1,1.638.2,57.517,57.517,0,0,0-4.585-6.046h0A12.862,12.862,0,0,0,38,278.074h-.019A9.459,9.459,0,0,0,34.166,278.874Zm18.864,53.9c-6.741-1.821-11.355-3.94-13.716-6.3l-.124-.124-.019-.175a3.141,3.141,0,0,1,.538-2.535,2.258,2.258,0,0,1,1.77-.676v0a8.674,8.674,0,0,1,2.967.692A63.109,63.109,0,0,1,55.738,329.4l.071.046.051.066a2.2,2.2,0,0,1-.221,2.945,1.85,1.85,0,0,1-1.278.707,1.8,1.8,0,0,1-.185.009A1.845,1.845,0,0,1,53.03,332.771ZM2.936,209.657c-.645-.328-1.124-1.214-1.552-2.867a47.863,47.863,0,0,1-1.012-6.214A42.5,42.5,0,0,1,1.282,184.6c.539-2.6,1.043-4.656,1.5-6.124.609-1.97,1.011-2.469,1.292-2.667a1.473,1.473,0,0,1,.908-.332,1.713,1.713,0,0,1,1.4.843l.031.042.022.049a9.322,9.322,0,0,1,.761,3.526c6.9-3,11.678-4.8,14.5-5.8a33.213,33.213,0,0,1,7.9-2.122h.039c.07,0,.142-.005.213-.005,1.738,0,3.219,1.3,4.661,4.076v.006c1.349,2.7,1.462,6.346.338,10.845v.017a45.014,45.014,0,0,0-1.681,9.977c0,1.711-.228,3.9-1.3,4.683a1.466,1.466,0,0,1-.938.308,5.3,5.3,0,0,1-3.05-1.515c-1.632.753-2.723,1.184-3.242,1.379-.773.29-3.778,1.895-8.932,4.768l-.05.028-6.017,1.7a14.433,14.433,0,0,1-5.469,1.633l-.1,0A2.573,2.573,0,0,1,2.936,209.657Zm23.47-32.04c-2.6.193-9.231,3.166-19.707,8.836a36.173,36.173,0,0,0-.071,17.039,136.926,136.926,0,0,0,20.635-7.933h0c2.076-6.073,3-10.592,2.805-13.811-.225-3.717-1.966-4.146-3.254-4.146C26.681,177.6,26.545,177.606,26.406,177.617Zm24.233,28.546c-.643-.328-1.152-1.237-1.6-2.86a43.124,43.124,0,0,1-1.065-6.224,44.586,44.586,0,0,1,.91-15.972c1.569-6.928,2.334-8.37,2.865-8.771a1.236,1.236,0,0,1,.857-.348,1.739,1.739,0,0,1,1.362.829,6.805,6.805,0,0,1,.889,3.643c6.7-2.959,11.532-4.785,14.438-5.807a34.509,34.509,0,0,1,7.9-2.127h.04c.074-.006.147-.012.218-.012v0c1.789,0,3.359,1.374,4.666,4.084,1.347,2.7,1.461,6.345.337,10.843v.006a50.131,50.131,0,0,0-1.583,9.986c0,1.719-.229,3.922-1.309,4.693a1.653,1.653,0,0,1-.982.3,4.966,4.966,0,0,1-3.005-1.516l-.726.319c-1.087.479-1.872.824-2.5,1.061-.8.3-4.21,2.126-8.938,4.672l-.046.025-6.114,1.8a14.2,14.2,0,0,1-5.39,1.634l-.1,0A2.527,2.527,0,0,1,50.639,206.163ZM74.4,174c-.13,0-.265.005-.4.015-2.392.184-8.839,3.108-19.706,8.937a36.177,36.177,0,0,0-.071,17.037,142.47,142.47,0,0,0,20.731-7.928h0c2.058-6.416,2.9-10.681,2.711-13.812A5.893,5.893,0,0,0,76.721,175a2.739,2.739,0,0,0-2.121-1.007Q74.5,173.992,74.4,174ZM20.961,163.107a3.585,3.585,0,0,1-.693-2.027,2.116,2.116,0,0,1,.759-2.1,182.744,182.744,0,0,1-1.76-19.945,31.167,31.167,0,0,1,.246-6.331c.3-1.666.859-2.6,1.706-2.864a2.783,2.783,0,0,1,.819-.131c1.447,0,2.3,1.328,2.875,2.487l.059.118-.006.131a18.2,18.2,0,0,0,.147,3.493A39.459,39.459,0,0,1,36.375,128.9a36.085,36.085,0,0,1,13.508-2.561v0a43.218,43.218,0,0,1,6.908.575,2.938,2.938,0,0,1,2.452,1.031c1.135,1.256,1.8,3.618,2.049,7.22a85.837,85.837,0,0,1-.51,13.728,3.344,3.344,0,0,1,.485,1.831,2.254,2.254,0,0,1-1.581,2.1c-1.072,1.418-2.16,2.137-3.235,2.137a2.371,2.371,0,0,1-1.17-.311c-13.237,3.085-21.042,5.314-25.264,6.644h-.01c-5.1,1.483-7.522,2.088-8.37,2.088l-.067,0A.8.8,0,0,1,20.961,163.107Zm4.291-20.475a51.023,51.023,0,0,0,.8,13.765c10.747-2.936,20.068-5.6,29.258-8.361a96.457,96.457,0,0,0,.658-12.2c-.092-2.316-.908-3.866-2.427-4.622l0,0c-.625-.033-1.257-.049-1.882-.049A36.246,36.246,0,0,0,25.252,142.632Zm49.52-48.353-.025-.012-.024-.013a2.531,2.531,0,0,1-1.255-2.1,4.7,4.7,0,0,1,.451-2.66,8.135,8.135,0,0,0,.751-2.435,28.645,28.645,0,0,0,.1-3.132v-.013c0-1.341.318-5.124.8-10.742V73.17a70.156,70.156,0,0,0-.1-14.591c-.271-2.115-.539-4.087-.8-5.993q-.286-2.106-.538-4.01c-.263.035-.546.077-.857.122-.659.1-1.4.206-2.353.317h-.006a17.042,17.042,0,0,0-3.595.778,80.657,80.657,0,0,1-8.85,2.414c-4.667,1.12-8.1,1.882-9.918,2.2-.658.123-1.568.319-2.72.564-1.6.341-3.782.808-6.475,1.335l-1.35.265c-4.135.806-8.408,1.642-12.73,2.632A87.568,87.568,0,0,1,16.4,60.957l-.032.213c-.262,1.776-.514,3.449-.6,4.782v.027a40.836,40.836,0,0,0-.3,5.04c0,2.114.248,5.754.7,10.252a79.4,79.4,0,0,1,.4,9.458v.042a8.191,8.191,0,0,1-.641,2.448l-.038.086-.067.067c-.07.07-.139.144-.2.215a1.971,1.971,0,0,1-.758.593,1.131,1.131,0,0,1-.471.1A1.111,1.111,0,0,1,13.658,94a1.946,1.946,0,0,1-.772-1.258,7.906,7.906,0,0,1-.507-1.946c-.248-1.123-.547-3.107-.8-5.318a74.538,74.538,0,0,1-.8-7.838,81.006,81.006,0,0,1-.1-8.645c.089-2.857.344-6.267.8-10.731.3-3.894,1.1-5.788,2.456-5.788a1.448,1.448,0,0,1,.373.051h.013c.823.247,1.892,1.128,2.452,3.876.923-.212,1.874-.447,2.872-.695.777-.192,1.58-.391,2.413-.589,1.7-.425,3.684-.993,5.981-1.651l1.2-.345h.013c2.7-.7,7.656-1.712,14.735-3.008l1.593-.287c6.547-1.181,12.2-2.2,17.189-3.308,1.319-.293,2.53-.565,3.6-.8,3.326-.747,5.531-1.241,6.617-1.4a15.867,15.867,0,0,1,3.609-.417v0c.2,0,.4,0,.592.011h.02c.852.066,1.524.679,2,1.82a15.109,15.109,0,0,1,.862,4.44c.229,2.9.5,8.345.5,17.836a155.279,155.279,0,0,1-.6,16.748V84.8c-.482,2.99-.791,5.222-.895,6.456a3.754,3.754,0,0,1-1.616,2.877l-.039.024a2.959,2.959,0,0,1-2.647.121ZM28.252,88.59l-.023-.038a4.779,4.779,0,0,1-.555-1.756,1.714,1.714,0,0,1,.646-1.74,139.47,139.47,0,0,1-1.652-16.417v-.021a27.485,27.485,0,0,1,.361-5.277c.3-1.422.826-2.21,1.618-2.408a2.866,2.866,0,0,1,.7-.09c.8,0,1.936.374,2.77,2.164l.054.115-.008.127a12.493,12.493,0,0,0,.135,2.767,37.551,37.551,0,0,1,23.629-8.056h0a47.784,47.784,0,0,1,6.454.454,3.029,3.029,0,0,1,2.58,1.065c1.013,1.146,1.6,3.164,1.787,6.168a63.658,63.658,0,0,1-.563,11.137,2.866,2.866,0,0,1,.48,1.519v.013c0,.77-.531,1.409-1.578,1.9a3.879,3.879,0,0,1-2.973,1.806,2.853,2.853,0,0,1-1.22-.285c-11.16,2.235-19.009,4.019-23.991,5.457H36.9a50.215,50.215,0,0,1-7.861,1.7.9.9,0,0,1-.785-.306Zm4.2-16.926a37.453,37.453,0,0,0,.7,11.254c9.136-2.143,18.6-4.509,27.774-6.8a67.979,67.979,0,0,0,.645-10.184c-.088-1.915-.829-3.169-2.2-3.715-.419-.011-.841-.015-1.254-.015-.264-.006-.529-.008-.792-.008A37.407,37.407,0,0,0,32.448,71.663ZM26.266,50.014a3.188,3.188,0,0,1-.585-1.5,1.659,1.659,0,0,1,.641-1.759,119.507,119.507,0,0,1-1.553-15.52v-.005a22.927,22.927,0,0,1,.31-5.068c.3-1.36.8-2.121,1.557-2.326l.032-.008a2.593,2.593,0,0,1,.514-.052c.776,0,1.9.366,2.826,2.107l.066.125-.006.14a14.461,14.461,0,0,0,.067,2.512,32.714,32.714,0,0,1,21.307-7.6v0a41.828,41.828,0,0,1,6.056.457h.061a3.113,3.113,0,0,1,2.432,1.106c1.878,2.141,2.239,7.452,1.1,16.23a2.492,2.492,0,0,1,.576,1.571c0,.619-.576,1.237-1.587,1.711a3.913,3.913,0,0,1-2.943,1.7,2.952,2.952,0,0,1-1.017-.186C44.4,45.925,37.235,47.795,34,48.707h-.01c-4.15,1.083-6.2,1.593-7.029,1.593q-.036,0-.073,0A.823.823,0,0,1,26.266,50.014Zm3.987-15.869a36.157,36.157,0,0,0,.788,10.474C38.2,42.888,45.5,40.976,53.226,38.955l2.8-.732a58.528,58.528,0,0,0,.644-9.472c-.189-1.914-.893-3.1-2.1-3.532-.544-.021-1.089-.031-1.622-.031C43.9,25.188,36.263,28.2,30.253,34.145ZM4.446,28.025a1.554,1.554,0,0,1-1.475-1.758,3.43,3.43,0,0,1,1.28-2.328c1.088-.918,6.079-2.46,10.08-3.594h.013A258.2,258.2,0,0,1,41.306,15,65.06,65.06,0,0,0,39.39,5.869a27.3,27.3,0,0,1-1.013-3.857l-.009-.047V1.919A2.022,2.022,0,0,1,39.892.151L39.91.144a2.847,2.847,0,0,1,3.133.944c.953.969,1.5,2.58,1.82,5.372a30.467,30.467,0,0,0,1.9,7.372c10.369-2.488,17.567-4.038,21.8-4.9A29.4,29.4,0,0,1,74.1,8.22a4.009,4.009,0,0,1,2.585.618,2.229,2.229,0,0,1,.39,3.072,3.651,3.651,0,0,1-2.539,1.609h-.015l-.224.025c-1.083.121-3.618.4-7.888.776A77.672,77.672,0,0,0,53.4,16.6c-4.2,1.2-11.145,2.674-21.244,4.51A222.875,222.875,0,0,0,4.62,28l-.085.027Z" transform="translate(3461.732 -23613.619)" fill="#493213"/>
  </g>
</svg>
