<svg xmlns="http://www.w3.org/2000/svg" xmlns:xlink="http://www.w3.org/1999/xlink" width="85.348" height="96.359" viewBox="0 0 85.348 96.359">
  <defs>
    <linearGradient id="linear-gradient" x1="0.5" x2="0.5" y2="1" gradientUnits="objectBoundingBox">
      <stop offset="0" stop-color="#270203"/>
      <stop offset="0.474" stop-color="#785013"/>
      <stop offset="1" stop-color="#2b0502"/>
    </linearGradient>
  </defs>
  <g id="Group_568" data-name="Group 568" transform="translate(-68 -17909)">
    <path id="Path_160" data-name="Path 160" d="M0,0H79.469V96.36L39.734,87.585,0,96.36Z" transform="translate(68 17909)" fill="url(#linear-gradient)"/>
    <path id="Path_234" data-name="Path 234" d="M36.639-20.838a2.122,2.122,0,0,0-2.07-2.07c-3.243,0-6.486.069-9.729.138.69-2,6.141-18.009,6.141-19.251a2.125,2.125,0,0,0-2.139-2A2.051,2.051,0,0,0,26.91-42.5c-.69,1.932-1.242,3.933-1.863,5.865-1.518,4.692-3.1,9.384-4.692,14.076a58.575,58.575,0,0,0-9.177,1.173c0-6.279.828-12.558.828-18.837,0-1.725.138-5.037-2.346-5.037a1.977,1.977,0,0,0-2,2.07,2.127,2.127,0,0,0,.069.69,10.1,10.1,0,0,1,.138,2c0,6.279-.828,12.489-.828,18.7,0,1.725-.276,4.9,2.277,4.9a12.826,12.826,0,0,0,2.277-.276,64.45,64.45,0,0,1,7.314-1.1c-1.311,3.726-2.484,7.659-4.14,11.247A2.558,2.558,0,0,0,14.49-6a2.033,2.033,0,0,0,2.07,2.07,1.928,1.928,0,0,0,1.794-1.035,21.838,21.838,0,0,0,1.725-4.14c1.173-3.105,2.277-6.279,3.312-9.453,3.726-.207,7.452-.207,11.178-.207A2.122,2.122,0,0,0,36.639-20.838Z" transform="translate(85.971 17978.441)" fill="#fff"/>
    <path id="Path_161" data-name="Path 161" d="M0,0V10H5.88Z" transform="translate(147.469 17909)" fill="#23030d"/>
  </g>
</svg>
