<svg id="number" xmlns="http://www.w3.org/2000/svg" xmlns:xlink="http://www.w3.org/1999/xlink" width="279.575" height="102.271" viewBox="0 0 279.575 102.271">
  <defs>
    <linearGradient id="linear-gradient" x1="0.473" y1="-0.751" x2="0.5" y2="1" gradientUnits="objectBoundingBox">
      <stop offset="0" stop-color="#091226"/>
      <stop offset="0.474" stop-color="#09428c"/>
      <stop offset="1" stop-color="#091226"/>
    </linearGradient>
  </defs>
  <path id="Path_200" data-name="Path 200" d="M0,0H265V86.658L132.813,102.271,0,86.658Z" transform="translate(7.288)" fill="url(#linear-gradient)"/>
  <path id="Path_240" data-name="Path 240" d="M-1.1-36.708c0-6.156-4.56-14.06-11.4-14.06-3.572,0-6.308,2.888-8.132,5.624-9.424,1.6-13,20.444-13,28.2,0,5.168,1.748,12.16,8.132,12.16,9.88,0,18.316-11.552,21.66-19.76A31.874,31.874,0,0,0-1.1-36.708Zm-4.56,0c0,6.232-3.116,13.3-6.764,18.24-2.812,3.8-7.9,9.12-13.072,9.12-3.268,0-3.572-5.4-3.572-7.6A42.585,42.585,0,0,1-24.89-35.34,16.119,16.119,0,0,0-25.346-32a2.239,2.239,0,0,0,2.28,2.28A2.338,2.338,0,0,0-20.786-32c0-3.344,4.408-14.212,8.284-14.212C-8.322-46.208-5.662-40.28-5.662-36.708Zm41.116,14.82c0-4.712-5.32-8.512-9.728-8.512a16.329,16.329,0,0,0-7.752,2.2c1.368-3.876,9.652-23.864,9.652-26.144A2.368,2.368,0,0,0,25.27-56.7c-1.216,0-1.672.684-2.128,1.672a9.189,9.189,0,0,0-.38,1.368c-.38,1.216-.76,2.356-1.216,3.5-1.444,4.1-3.116,8.132-4.712,12.236C15.01-33.288,8.55-17.784,8.55-13.148c0,5.092,3.952,8.436,8.892,8.436C24.662-4.712,35.454-14.592,35.454-21.888Zm-4.56,0c0,4.636-8.892,12.616-13.452,12.616-2.432,0-4.332-1.292-4.332-3.876a25.874,25.874,0,0,1,1.292-5.32,14.618,14.618,0,0,1,1.292-1.976c2.28-2.888,6.232-5.4,10.032-5.4C27.55-25.84,30.894-24.016,30.894-21.888Z" transform="translate(193.288 79)" fill="#fff"/>
  <path id="Path_239" data-name="Path 239" d="M-1.44-17.48a1.76,1.76,0,0,0-.08-.4l-1.72-4.96c-.16-.4-.36-.6-.72-.6-.48,0-1.28.28-1.28.84l.48,1.48c-1,.28-2.04.48-3,.68l3.8-6.48a1.19,1.19,0,0,0,.2-.6c0-.56-.88-1.04-1.36-1.04a.911.911,0,0,0-.76.52L-7.8-24.76l-1.56-1.2,2.6-5.08a1.526,1.526,0,0,0,.16-.52c0-.56-.8-1.04-1.32-1.04-.32,0-.48.16-.68.52l-2.48,4.76a.769.769,0,0,0-.48-.16c-.56,0-1.2,1-1.2,1.52a.974.974,0,0,0,.48.8l3.24,2.52L-10.6-20c-.76,0-1.48.28-1.48,1.2a1.28,1.28,0,0,0,1.2,1.4A66.439,66.439,0,0,0-4-18.84l.56,1.6c.16.4.36.6.72.6C-2.24-16.64-1.44-16.92-1.44-17.48ZM-4.2-15.32a.968.968,0,0,0-.16-.52l-1-1.68a.908.908,0,0,0-.72-.52c-.48,0-1.32.44-1.32.92a.968.968,0,0,0,.16.52l.96,1.64a.911.911,0,0,0,.76.52C-5.08-14.44-4.2-14.84-4.2-15.32Zm-10.92-1.32-1.64-5.44c-.12-.4-.32-.6-.72-.6-.44,0-1.16.28-1.16.84l.4,1.56a34.835,34.835,0,0,1-3.4.8l4.76-7.44a1.191,1.191,0,0,0,.2-.56c0-.56-.92-1.12-1.4-1.12a.911.911,0,0,0-.76.52l-2.2,3.48-1.64-1.48,2.96-4.88a1.066,1.066,0,0,0,.2-.52c0-.52-.88-1.12-1.36-1.12-.28,0-.48.16-.68.48l-2.76,4.56-.28-.28a1.037,1.037,0,0,0-.68-.36c-.56,0-1.28.96-1.28,1.48a1.093,1.093,0,0,0,.44.8l3.72,3.44-2.2,3.52c-.8.12-1.72.04-1.72,1.24,0,.68.36,1.36,1.12,1.36A53.6,53.6,0,0,0-17.56-18l.48,1.6c.12.4.32.6.68.6C-15.92-15.8-15.12-16.08-15.12-16.64Zm14,14.48c0-.52-.44-1.6-1.12-1.6-1.32,0-1.64,3.64-3.24,3.64-1.04,0-2.2-1.08-3.32-3.2.72-.76,4.36-4.76,4.36-5.6a1.3,1.3,0,0,0-1.24-1.2,1.043,1.043,0,0,0-.88.44A32.581,32.581,0,0,1-9.8-5.64a40.2,40.2,0,0,1-1.6-5.6h8.2c.88,0,1.32-.36,1.32-1.48,0-1.08-.44-1.48-1.32-1.48h-8.72a78.85,78.85,0,0,1-.84-11.88v-6c0-.8-.36-1.2-1.36-1.2s-1.32.4-1.32,1.2v5.36a84.151,84.151,0,0,0,.88,12.52H-25.04c-.88,0-1.28.4-1.28,1.48,0,1.12.4,1.48,1.28,1.48h2.56A20.114,20.114,0,0,1-26.96.16a1.279,1.279,0,0,0-.32.88,1.517,1.517,0,0,0,1.44,1.44c1.92,0,4.52-6.52,5-8.08L-18-3.4a1.377,1.377,0,0,0,.72.32c.64,0,1.32-1.08,1.32-1.64a1.166,1.166,0,0,0-.56-.92l-3.64-2.6a27.153,27.153,0,0,0,.44-3h5.68a37.27,37.27,0,0,0,2.2,7.56A27.352,27.352,0,0,1-18.16.4a.964.964,0,0,0-.56.84,1.681,1.681,0,0,0,1.64,1.44c1.2,0,5.28-3.2,6.32-4.08C-9.2,1.36-7.4,2.88-5.52,2.88-3.68,2.88-1.12-.52-1.12-2.16ZM-26.48-15.52a1.669,1.669,0,0,0-.4-1l-3.64-4.64v-1.88h2.2c.88,0,1.36-.36,1.36-1.52s-.48-1.56-1.36-1.56h-2.2v-5.84c0-.88-.4-1.32-1.52-1.32s-1.48.44-1.48,1.32v5.84H-36.8c-.88,0-1.32.4-1.32,1.56s.44,1.52,1.32,1.52h3A35.733,35.733,0,0,1-38-10.64a3,3,0,0,0-.36,1.44c0,.64.4,2,1.2,2,1.2,0,3.28-5.88,3.64-6.96V1.64c0,.88.36,1.28,1.48,1.28s1.52-.4,1.52-1.28V-16.92l1.88,2.72c.24.32.48.52.72.52C-27.28-13.68-26.48-14.92-26.48-15.52Zm64.6-5.28V-21a2.041,2.041,0,0,0-1.8-2.04c-1.72,0-.28,3.24-3.32,3.24H27.44a1.6,1.6,0,0,1-1.6-1.6v-2.8l9.24-3.68c.48-.2.72-.44.72-.84,0-.68-.72-1.76-1.48-1.76a2.14,2.14,0,0,0-.64.16l-7.84,3.24V-31.8c0-.88-.4-1.36-1.56-1.36-1.2,0-1.56.48-1.56,1.36v11a3.884,3.884,0,0,0,4.08,4.08h6.64C35.84-16.72,37.32-17.48,38.12-20.8ZM20.64-22.84a1.623,1.623,0,0,0-.2-.68l-3.24-5.8c-.28-.48-.56-.72-1-.72-.6,0-1.72.48-1.72,1.16a1.623,1.623,0,0,0,.2.68l1.2,2.2c-2.32.4-5.28.84-8.48,1.12L11-31.6a1.623,1.623,0,0,0,.2-.68c0-.72-1.2-1-1.76-1a1.283,1.283,0,0,0-1.24.84l-3.92,7.8c-.96,0-2.16,0-2.16,1.32A1.566,1.566,0,0,0,3.6-21.68a127.617,127.617,0,0,0,13.64-1.76l.64,1.2a1.154,1.154,0,0,0,1,.72C19.48-21.52,20.64-22.12,20.64-22.84ZM38.2-2.04v-.2a2.036,2.036,0,0,0-1.76-2.04c-1.68,0-.24,3.32-3.28,3.32H27.44a1.614,1.614,0,0,1-1.6-1.64V-5.96l9.32-3.92c.44-.2.68-.44.68-.8a1.914,1.914,0,0,0-1.52-1.68,1.371,1.371,0,0,0-.64.16L25.84-8.8v-4.16c0-.88-.4-1.36-1.56-1.36-1.2,0-1.56.48-1.56,1.36V-2A3.884,3.884,0,0,0,26.8,2.08h6.76C35.96,2.08,37.4,1.36,38.2-2.04Zm-19.52.88V-16.28a2.971,2.971,0,0,0-3-3H6.72a2.971,2.971,0,0,0-3,3V1.12c0,.96.4,1.4,1.64,1.4C6.56,2.52,7,2.08,7,1.12v-5.6h8.36v2.96A1.5,1.5,0,0,1,13.88-.04H12.24A1.155,1.155,0,0,0,11.12,1.2c0,1,.36,1.32,1.16,1.32h2.68A3.6,3.6,0,0,0,18.68-1.16ZM15.36-13.2H7v-2.44a1.094,1.094,0,0,1,1.12-1.12h6.12a1.094,1.094,0,0,1,1.12,1.12Zm0,6.16H7v-3.64h8.36Z" transform="translate(105.288 68)" fill="#fff"/>
  <path id="Path_201" data-name="Path 201" d="M0,0V21.813H7.288Z" transform="translate(272.288)" fill="#011750"/>
  <path id="Path_202" data-name="Path 202" d="M7.288,0V21.813H0Z" fill="#011750"/>
</svg>
