<svg xmlns="http://www.w3.org/2000/svg" width="26.012" height="45.252" viewBox="0 0 26.012 45.252">
  <path id="Path_230" data-name="Path 230" d="M-6.06-8.46c9.36-9.06,15-16.62,17.04-22.68,1.92-6,1.92-10.92-.12-14.82-2.04-1.86-4.98-3.06-8.94-3.72q-5.85-.99-6.66-.72a1.065,1.065,0,0,0-.72,1.26A1.713,1.713,0,0,0-5.04-48c.18.18.72.24,1.68.3,1.02.06,2.7.24,5.16.48a16.08,16.08,0,0,1,7.02,2.4c2.28,3.48,1.8,8.58-1.38,15.3C4.2-22.74-1.62-15.72-10.14-8.4c-1.68.06-2.7.42-3.12,1.08-.42.72-.48,1.2-.06,1.62.36.42,2.28.42,5.82,0a56.516,56.516,0,0,1,11.04,0,49.739,49.739,0,0,0,6.12.48c.24-.06.3-.54.12-1.38s-1.14-1.26-3-1.2S.66-7.92-6.06-8.46Z" transform="translate(13.607 50.458)" fill="#022f6b"/>
</svg>
