<svg xmlns="http://www.w3.org/2000/svg" width="488.333" height="484.774" viewBox="0 0 488.333 484.774">
  <g id="Group_567" data-name="Group 567" transform="translate(-1384 1126.93)">
    <path id="Path_232" data-name="Path 232" d="M-176.8-30.81c2.765-.948,4.345-1.422,5.372-1.659a7.333,7.333,0,0,1,1.9-.237,4.7,4.7,0,0,1,1.9.316,6.95,6.95,0,0,0,2.528.632c.948,0,2.133-.948,2.133-2.923a9.223,9.223,0,0,0-2.054-4.819,15.9,15.9,0,0,0-12.4-6.32c-3.318,0-6.4,1.264-10.27,4.582l.79,1.185c3.476-1.817,5.53-2.291,7.426-2.291a10.386,10.386,0,0,1,7.821,3.713,2.593,2.593,0,0,1,.474,1.106c.079.553-.237.948-.869,1.58a55.465,55.465,0,0,1-5.372,4.029Zm-24.332,16.353c4.345,4.977,9.638,7.663,15.721,7.663,8.058,0,13.667-4.977,13.667-11.85,0-7.426-6.32-12.245-15.642-12.245-5.688,0-10.981,1.422-17.775,4.977,0-4.5,0-9.006.079-13.667a60.118,60.118,0,0,0,11.218-4.9c1.106-.632,1.659-1.185,1.659-2.212a2.089,2.089,0,0,0-1.58-2.054,4.975,4.975,0,0,0-2.37-.237,10.3,10.3,0,0,0-2.449,1.264,24.918,24.918,0,0,1-6.32,3,27.288,27.288,0,0,1,.395-4.5,7.209,7.209,0,0,1,1.264-3.16,3.017,3.017,0,0,0,.79-1.975c0-2.291-5.53-4.9-9.322-4.9a8.019,8.019,0,0,0-4.5,1.659l.316,1.185c.79,0,1.58,0,2.528.079a3.687,3.687,0,0,1,3,1.659c.711.948.79,2.686.869,4.661v6.794a36.508,36.508,0,0,1-7.979,1.5c-2.607,0-4.582-.79-6.32-3.713l-1.343.474c1.343,5.214,4.582,7.821,7.426,7.979a37.868,37.868,0,0,0,8.295-1.264v14.694c-4.424,2.923-9.717,6.4-14.615,9.559a5.39,5.39,0,0,1-2.449,1.027,3.28,3.28,0,0,1-2.528-1.659c-.237-.4-.553-.474-.79-.316-.4.158-.632,1.422-.632,2.528a4.7,4.7,0,0,0,2.291,3.95,6.525,6.525,0,0,0,4.029,1.5,2.652,2.652,0,0,0,2.291-1.027,32.234,32.234,0,0,1,2.37-2.449,52.771,52.771,0,0,1,6.636,6,10.555,10.555,0,0,1,2.133,3.871c.474,1.185,1.027,1.817,1.738,1.817,1.5-.079,2.923-1.58,3.713-3.95a13.546,13.546,0,0,0,.869-4.819c0-1.58-.079-3.634-.237-5.925-.158-2.054-.237-5.135-.4-8.69,6.557-3.871,12.482-5.925,16.906-5.925,6.557,0,10.586,3.16,10.586,8.3,0,4.977-3.95,8.137-10.27,8.137a19.073,19.073,0,0,1-12.4-4.108Zm-8.295-4.977c.079,3.4.079,6.794.079,9.48,0,1.422-.158,1.817-.632,1.817a8.991,8.991,0,0,1-2.37-.711,35.954,35.954,0,0,1-5.767-2.923C-215.512-14.141-212.589-16.827-209.429-19.434Zm82.871-25.28a44.934,44.934,0,0,0,2.607-4.108c2.607-.474,3.318-1.027,3.318-1.817s-.474-1.264-7.584-3.555a80.91,80.91,0,0,1-23.226,30.257l.948,1.106a74,74,0,0,0,20.461-17.143,46.571,46.571,0,0,0,8.295,9.717c-9.638,7.9-21.251,14.141-34.918,19.118L-156.1-9.8a149.3,149.3,0,0,0,17.933-5.767v5.372c0,10.191-.316,13.509-.316,15.247,0,1.027.553,1.5,1.817,1.5,2.528,0,4.582-1.106,4.582-2.844v-1.5h28.361V4.187a1.607,1.607,0,0,0,1.817,1.58c2.212,0,4.74-1.106,4.74-2.765,0-2.133-.395-5.451-.395-11.534v-3.792c1.9-.948,2.37-1.58,2.37-2.291,0-.632-.474-1.264-2.765-3a5.57,5.57,0,0,1-.711-.553,90.737,90.737,0,0,0,12.324,3,8.4,8.4,0,0,1,5.372-5.214l.158-1.422a121.753,121.753,0,0,1-27.729-5.925,51.65,51.65,0,0,1-5.214-2.212,89.357,89.357,0,0,0,10.033-9.717c2.449-.553,3.634-1.185,3.634-2.212,0-.869-.316-1.5-2.686-3.4s-3-2.133-3.792-2.133c-.711,0-1.185.474-2.765,2.686Zm-4.424,27.65a7.689,7.689,0,0,0-1.817-.869,100.942,100.942,0,0,0,15.168-9.006,50.3,50.3,0,0,0,6.952,4.108A85.29,85.29,0,0,0-101.91-19.2a4.8,4.8,0,0,0-1.817,2.133Zm21.251-25.2a73.045,73.045,0,0,1-9.006,9.48,42.9,42.9,0,0,1-9.954-8.927c.158-.158.237-.4.395-.553Zm6,42.028h-28.361V-13.825l.711-.79h27.65ZM-144.1-57.67a27.134,27.134,0,0,0-.711-3.476l-1.422.079c-.395,4.661-2.37,7.505-5.767,9.322-1.975,1.106-2.607,2.212-2.607,4.029,0,1.58,1.185,3,3.4,3,4.029,0,7.347-3.95,7.347-9.638v-.869h51.192A59.671,59.671,0,0,1-96.854-45.9l1.106.869a67.409,67.409,0,0,0,8.769-7.347c3.476-.632,4.108-1.343,4.108-2.212,0-.79-.237-1.5-2.765-3.713-2.765-2.37-3.476-2.686-4.266-2.686s-1.422.237-3.16,3.318h-21.725v-4.582c2.528-.869,3.081-1.58,3.081-2.37,0-.869-1.422-1.58-9.717-2.291a64.114,64.114,0,0,1,.316,7.189v2.054ZM-32.39-51.192V-44h-7.426l-7.584-.4v3.239l7.584-.4h7.426v7.663H-46.057l-7.11-.4v3.239l7.11-.4H-32.39v16.037A198.524,198.524,0,0,1-56.88-6.32C-54.115-.237-53.4.711-52.456.711c.869,0,1.5-.632,1.817-2.844A173.5,173.5,0,0,0-32.39-12.64v8.532c0,2.844-.869,3.476-2.923,3.476a46.354,46.354,0,0,1-6.478-.474L-41.949.316c5.214,1.5,6.241,2.686,6.557,5.767,6.32,0,9.243-2.607,9.243-6.794,0-2.133-.237-6-.4-20.066A43.713,43.713,0,0,0-8.453,1.422,8.309,8.309,0,0,1-2.37-2.686L-1.9-4.108A49.835,49.835,0,0,1-20.777-16.669a54.925,54.925,0,0,0,11.06-5.846c3.081,0,3.713-.474,3.713-1.264,0-.948-.553-1.58-6.557-4.977a75.267,75.267,0,0,1-9.717,10.428,42.1,42.1,0,0,1-4.266-6.952l-.079-6.162H-3.871c.79,0,1.185-.395,1.185-.948,0-.632-.474-1.5-7.347-6.557-1.659,1.9-3,3.476-4.345,5.056H-26.623v-7.663H-8.69c.79,0,1.264-.4,1.264-.948,0-.711-.553-1.5-6.952-6.083-1.659,1.9-2.528,2.923-3.871,4.582h-8.374v-5.214A2.2,2.2,0,0,0-25.2-51.192H-5.53c.79,0,1.185-.4,1.185-.948,0-.632-.474-1.422-7.189-6.32-1.659,1.9-2.844,3.081-4.266,4.819h-8.848a92.779,92.779,0,0,0,7.031-7.742c2.765-.316,3.4-.869,3.4-1.738,0-.79-.79-1.5-8.611-4.108a80.359,80.359,0,0,1-4.977,13.588H-44.24l-6.794-.4v3.16l6.794-.316ZM-61.3-42.818h10.981c.79,0,1.264-.4,1.264-.948,0-.711-.316-1.343-6.32-6a57.171,57.171,0,0,0-3.871,4.5H-61.3V-60.83c2.291-.948,2.844-1.5,2.844-2.212,0-.869-.948-1.422-8.69-2.133.237,2.607.316,5.293.316,12.245v7.663h-3.081l-6.083-.4v3.239l6.083-.4h2.607C-69.283-31.6-73-19.75-77.183-11.376l1.185.711a70.985,70.985,0,0,0,9.085-15.879c-.079,23.384-.395,28.914-.395,31.363,0,.869.553,1.264,1.659,1.264,2.528,0,4.819-1.185,4.819-2.449,0-1.9-.316-7.031-.395-32a14.058,14.058,0,0,1,4.5,6.241c.553,1.817,1.264,2.528,2.765,2.528a3.141,3.141,0,0,0,2.923-3.4c0-3.4-3.792-6.557-10.191-7.268Zm15.642-21.725a14.5,14.5,0,0,1,5.451,7.821,3.092,3.092,0,0,0,3,2.528c1.9,0,3.239-1.422,3.239-3.634,0-2.765-2.923-6.083-10.9-7.821Zm-2.765,38.71a14.484,14.484,0,0,1,5.451,7.584c.553,1.659,1.5,2.528,2.923,2.528a3.291,3.291,0,0,0,3.239-3.4c0-3.16-4.424-6.873-10.981-7.9ZM55.537-16.2a64.8,64.8,0,0,1,9.875-1.422A6.126,6.126,0,0,1,69.6-16.432a4.694,4.694,0,0,0,2.923,1.58c1.343,0,2.37-1.027,2.37-3.634,0-3.318-2.607-7.979-6.557-11.692a34.929,34.929,0,0,0-15.8-8.769l-.711,1.659c6.162,3.081,10.744,6.952,13.825,11.85a3.932,3.932,0,0,1,.869,2.449c0,.553-.553,1.106-1.422,1.5-2.449,1.027-5.451,2.212-9.875,3.634ZM21.962-9.243A26.944,26.944,0,0,1,25.2-5.372a5.24,5.24,0,0,1,1.027,2.449c.158,1.817,1.106,2.686,2.765,2.686,5.293,0,9.638-3.16,13.114-10.191a53.13,53.13,0,0,0,5.135-22.831c0-6.162-3.16-9.559-7.742-9.559a38.788,38.788,0,0,0-5.135.474c1.185-2.607,1.975-4.345,3.081-6.557a8.5,8.5,0,0,1,2.133-2.923A2.368,2.368,0,0,0,40.764-53.8c0-.869-.474-1.659-1.817-2.686A14.156,14.156,0,0,0,31.2-59.408a10.332,10.332,0,0,0-4.029.948l.079,1.264a9.831,9.831,0,0,1,4.424,1.106A2.8,2.8,0,0,1,33.1-53.72a12.946,12.946,0,0,1-.711,3c-.869,2.607-1.9,5.372-3.555,9.243-3.318.632-6.873,1.264-10.349,1.817a43.334,43.334,0,0,1-4.5.4c-1.817,0-3-.632-4.345-3l-1.027.079a9.134,9.134,0,0,0-.079,1.343,5.46,5.46,0,0,0,.711,3C10.9-35,12.956-33.18,14.22-33.18a3.34,3.34,0,0,0,1.58-.4c.474-.237,1.106-.632,1.975-1.027,2.844-1.027,5.688-1.817,9.085-2.686A220.536,220.536,0,0,1,9.559-7.11a5.5,5.5,0,0,0-1.343,3.4c0,1.58.948,3.318,2.528,3.318,1.185,0,2.291-.632,3.318-2.449,4.9-8.532,11.455-21.014,18.407-35.787a30.893,30.893,0,0,1,6.32-1.027c2.054,0,3.95,1.027,3.95,4.819a54.86,54.86,0,0,1-2.607,14.694,40.161,40.161,0,0,1-4.424,9.4C34.049-8.216,32.864-7.11,30.02-7.189c-1.975-.079-4.9-1.659-7.11-3.081Zm79.553-51.824a17.331,17.331,0,0,1,8.848,7.979c-3.239,1.422-6.952,3-9.954,4.582-2.133,1.106-2.844,2.212-2.844,3.792,0,1.975.237,3.318.237,4.029a33.721,33.721,0,0,1-.4,4.029c-.869,6.32-1.9,15.168-1.738,19.75.079,4.266,2.607,7.821,4.424,7.821,1.343,0,2.133-1.185,2.844-3a18.471,18.471,0,0,1,3.792-5.451c9.164-10.191,15.8-13.509,22.673-13.509,5.846,0,10.191,3.634,10.191,9.8,0,9.559-11.929,17.617-31.205,21.488l.237,1.817c24.174-2.291,37.6-9.638,37.6-22.2,0-8.058-6.557-14.3-16.037-14.3-7.663,0-14.062,3.16-24.174,11.06-1.343,1.027-2.528,1.9-3.4,2.528a2.706,2.706,0,0,1-1.343.553c-.316,0-.553-.474-.553-1.422a107.413,107.413,0,0,1,.869-12.008c.316-2.844.632-4.661.632-5.609a6.667,6.667,0,0,0-.553-2.528,11.07,11.07,0,0,1-.79-3.239c0-1.027.79-1.58,2.291-2.054a25.493,25.493,0,0,1,6.873-1.343,4.909,4.909,0,0,1,3.318,1.027,3.593,3.593,0,0,0,2.212.79c1.817,0,2.686-1.343,2.686-3.4a8.238,8.238,0,0,0-1.9-5.056,20.982,20.982,0,0,0-14.22-7.505ZM195.6-.632C214.09-3.318,228.863-11.3,228.863-28.519c0-13.667-11.771-24.49-29.467-24.49-18.644,0-33.18,12.719-33.18,28.045a21.673,21.673,0,0,0,3.95,13.035c2.054,2.607,4.424,3.871,6.241,3.871,2.212,0,4.108-1.106,6.4-3.792a78.907,78.907,0,0,0,8.532-13.272c2.923-5.451,5.372-10.981,6.478-13.509.869-1.9,1.659-3.476,1.659-4.74s-1.58-3.792-4.424-6.162a23.832,23.832,0,0,1,4.108-.158c13.825.079,23.226,9.006,23.226,19.987,0,12.877-10.033,21.883-27.255,27.255ZM191.97-49.059a6.692,6.692,0,0,1,1.343,4.108,17.044,17.044,0,0,1-1.264,5.53c-2.765,7.505-6.873,15.8-11.218,21.488-1.659,2.133-2.923,2.765-4.108,2.765a4.846,4.846,0,0,1-3.318-1.975c-1.422-1.817-2.607-5.293-2.607-9.4C170.8-37.446,179.883-46.452,191.97-49.059Z" transform="translate(1629 -896.514)" fill="#10212c"/>
    <path id="Path_233" data-name="Path 233" d="M-18.8-30.81c2.765-.948,4.345-1.422,5.372-1.659a7.333,7.333,0,0,1,1.9-.237,4.7,4.7,0,0,1,1.9.316,6.95,6.95,0,0,0,2.528.632c.948,0,2.133-.948,2.133-2.923A9.223,9.223,0,0,0-7.031-39.5a15.9,15.9,0,0,0-12.4-6.32c-3.318,0-6.4,1.264-10.27,4.582l.79,1.185c3.476-1.817,5.53-2.291,7.426-2.291a10.386,10.386,0,0,1,7.821,3.713,2.593,2.593,0,0,1,.474,1.106c.079.553-.237.948-.869,1.58a55.463,55.463,0,0,1-5.372,4.029ZM-43.134-14.457C-38.789-9.48-33.5-6.794-27.413-6.794c8.058,0,13.667-4.977,13.667-11.85,0-7.426-6.32-12.245-15.642-12.245-5.688,0-10.981,1.422-17.775,4.977,0-4.5,0-9.006.079-13.667a60.118,60.118,0,0,0,11.218-4.9c1.106-.632,1.659-1.185,1.659-2.212a2.089,2.089,0,0,0-1.58-2.054,4.975,4.975,0,0,0-2.37-.237,10.3,10.3,0,0,0-2.449,1.264,24.918,24.918,0,0,1-6.32,3,27.288,27.288,0,0,1,.4-4.5,7.209,7.209,0,0,1,1.264-3.16,3.017,3.017,0,0,0,.79-1.975c0-2.291-5.53-4.9-9.322-4.9a8.019,8.019,0,0,0-4.5,1.659l.316,1.185c.79,0,1.58,0,2.528.079a3.687,3.687,0,0,1,3,1.659c.711.948.79,2.686.869,4.661v6.794a36.508,36.508,0,0,1-7.979,1.5c-2.607,0-4.582-.79-6.32-3.713l-1.343.474c1.343,5.214,4.582,7.821,7.426,7.979a37.868,37.868,0,0,0,8.3-1.264v14.694c-4.424,2.923-9.717,6.4-14.615,9.559a5.39,5.39,0,0,1-2.449,1.027A3.28,3.28,0,0,1-71.1-14.615c-.237-.4-.553-.474-.79-.316-.4.158-.632,1.422-.632,2.528a4.7,4.7,0,0,0,2.291,3.95,6.525,6.525,0,0,0,4.029,1.5,2.652,2.652,0,0,0,2.291-1.027,32.236,32.236,0,0,1,2.37-2.449,52.771,52.771,0,0,1,6.636,6A10.555,10.555,0,0,1-52.772-.553c.474,1.185,1.027,1.817,1.738,1.817,1.5-.079,2.923-1.58,3.713-3.95a13.546,13.546,0,0,0,.869-4.819c0-1.58-.079-3.634-.237-5.925-.158-2.054-.237-5.135-.4-8.69,6.557-3.871,12.482-5.925,16.906-5.925,6.557,0,10.586,3.16,10.586,8.3,0,4.977-3.95,8.137-10.27,8.137a19.073,19.073,0,0,1-12.4-4.108Zm-8.3-4.977c.079,3.4.079,6.794.079,9.48,0,1.422-.158,1.817-.632,1.817a8.991,8.991,0,0,1-2.37-.711,35.953,35.953,0,0,1-5.767-2.923C-57.512-14.141-54.589-16.827-51.429-19.434ZM21.488-35.866c-1.027-.632-3.239-1.422-8.058-2.686.237,3.239.237,7.031.237,11.613C13.667-10.27,10.507-2.133,3,5.609L3.95,6.636C13.272.79,18.486-6.557,19.75-19.513h42.5v2.607c0,1.027.553,1.5,1.659,1.5,2.528,0,4.977-.869,4.977-2.844,0-1.817-.316-4.661-.316-10.744v-2.528c1.817-.948,2.528-1.5,2.528-2.449,0-.632-.711-1.58-2.765-3.16-2.133-1.659-2.923-2.054-3.713-2.054-.711,0-1.422.474-2.923,3.318Zm40.764,2.449v11.455H43.766v-9.8a1.8,1.8,0,0,0,1.264-1.659Zm-24.648,0v11.455h-17.7c.079-1.422.158-2.923.158-4.424v-6.241l.869-.79Zm5.767-23.147v-4.582c2.528-.948,3.081-1.738,3.081-2.449,0-.948-1.027-1.58-9.8-2.37a91.15,91.15,0,0,1,.4,9.243v.158H11.06l-7.979-.395v3.239l7.979-.4H37.051V-45.9h-18.8l-7.979-.4v3.239l7.979-.4H70.468c.79,0,1.185-.4,1.185-.948,0-.79-.79-1.659-7.663-6.636-1.58,1.738-2.765,3.16-4.266,5.135H43.371v-8.216H75.208c.79,0,1.264-.4,1.264-.948,0-.79-1.027-1.659-7.979-7.11-1.659,1.975-3.239,3.792-4.74,5.609Z" transform="translate(1581 -682.514)" fill="#10212c"/>
    <path id="Path_234" data-name="Path 234" d="M33.336-60.84c-1.224,1.512-1.8,3.744-1.584,6.624-8.928,2.88-13.968,5.04-15.12,6.408-1.152,1.3-1.44,2.16-.936,2.52a1.967,1.967,0,0,0,1.08.5,12.689,12.689,0,0,0,2.664-1.8c1.44-1.224,5.616-2.952,12.312-5.256a41.408,41.408,0,0,1,.072,7.92c-3.024,1.152-5.616,2.3-7.776,3.24-2.232.864-3.24,1.584-3.024,2.088a1.329,1.329,0,0,0,1.08.864,6.774,6.774,0,0,0,3.024-1.008,52.177,52.177,0,0,1,7.056-2.952c.576.648,1.08,1.008,1.44,1.008s.864-.792,1.512-2.3c2.88-1.728,5.184-2.808,6.912-3.024a8,8,0,0,0,3.6-1.008c.648-.5.864-1.008.648-1.584-.288-.576-1.44-.648-3.312-.144a52.366,52.366,0,0,0-8.136,3.1,51.256,51.256,0,0,1-.36-6.984c6.336-2.232,10.512-3.312,12.24-3.384a9.333,9.333,0,0,0,4.032-.864c.936-.5,1.3-.936,1.152-1.368a3.124,3.124,0,0,0-.36-.72,15.971,15.971,0,0,0-2.88,0c-1.8.072-6.552,1.3-14.328,3.6a16,16,0,0,1,1.08-4.1,1.866,1.866,0,0,0,0-1.944C35.064-61.848,34.416-61.632,33.336-60.84ZM45-41.976A85.05,85.05,0,0,0,25.848-33.84c-.648-1.08-1.3-1.512-1.8-1.152A4.32,4.32,0,0,0,22.68-33.84c-.864,4.9-.144,9.072,2.448,12.672a.669.669,0,0,1,.288,1.08c-.432.432-.5.72-.216,1.08.216.36,1.368.216,3.456-.36-.072,1.512-.144,3.312-.144,5.4-6.048,2.16-10.8,3.888-14.04,5.328-3.24,1.368-4.9,2.232-5.112,2.52s-.072.72.36,1.368c.432.576,3.1-.144,7.992-2.376,4.9-2.16,10.44-4.248,16.488-6.408,6.048-2.232,12.312-4.536,18.864-6.984s9.864-3.888,9.864-4.248a1.993,1.993,0,0,0-.216-.936c-.216-.36-.432-.5-.72-.5s-1.368.36-3.384.936c-2.016.648-7.344,2.736-16.128,6.336a17.307,17.307,0,0,0,.72-7.416c1.584-.936,2.592-1.584,3.1-1.8.36-.216.216-.648-.36-1.44,1.728-3.672,2.52-6.336,2.448-8.064a7.922,7.922,0,0,0-.792-3.672C47.16-42.048,46.368-42.264,45-41.976Zm-5.4,23.9a69.476,69.476,0,0,0-8.064,3.1,8.915,8.915,0,0,1,.792-6.192A55.875,55.875,0,0,1,40.1-24.984,19.208,19.208,0,0,1,39.6-18.072Zm2.088-10.944c-4.176,1.944-8.64,4.248-13.536,6.84-2.088-2.016-2.808-4.9-2.376-8.568a76.833,76.833,0,0,1,13.248-6.768c3.24-1.08,5.04-1.728,5.4-1.872s.864.144,1.44.792C45.648-34.488,44.28-31.32,41.688-29.016ZM27.216-7.272a43.737,43.737,0,0,0,.5,7.056c.36,2.736.792,4.176,1.44,4.32a1.947,1.947,0,0,0,1.3,0,3.389,3.389,0,0,0,1.008-.864,2.542,2.542,0,0,0,.5-1.008c0-.216-.216-.36-.648-.36-.5,0-.936-2.232-1.152-6.7,5.256-2.808,9.36-4.608,12.24-5.256a28.257,28.257,0,0,1,5.112-.792c.5.072,1.08,1.152,1.584,3.384a7.943,7.943,0,0,1-1.3,6.264C43.776-.072,40.9.936,39.024,1.656c-1.872.792-3.816,1.656-5.616,2.448-1.872.72-2.952,1.44-3.24,2.016a1.168,1.168,0,0,0,.144,1.44c.36.432,2.3-.216,5.832-2.088A68.791,68.791,0,0,1,47.088.936c3.744-1.224,5.9-1.944,6.408-2.16s.72-.432.648-.936a2.185,2.185,0,0,0-.576-1.008,3.527,3.527,0,0,0-1.944-.144,58.724,58.724,0,0,0-.36-7.416c-1.008-2.016-2.376-2.88-4.32-2.736a14.143,14.143,0,0,0-5.04,1.44c-4.032,1.368-7.92,2.736-11.664,4.392a3.281,3.281,0,0,0-.288-1.584c-.216-.36-.648-.5-1.368-.288C27.936-9.288,27.432-8.568,27.216-7.272ZM133.56-24.552a13.288,13.288,0,0,1-6.552-6.768c-1.3-2.88-2.3-4.9-2.88-6.192a5.74,5.74,0,0,0-2.016-2.592.852.852,0,0,0-1.368.5c-.288.648.216,2.88,1.512,6.768,1.368,3.888-.144,8.424-4.392,13.536-4.32,5.184-8.5,8.712-12.6,10.44s-6.84,2.3-8.136,1.512q-2.16-1.08-1.3-9.5c.5-5.688,2.952-13.32,7.272-22.968a72.434,72.434,0,0,0,3.6-6.624c.576-1.224.936-2.016,1.152-2.376a1.073,1.073,0,0,0-.288-1.152c-.36-.432-.72-.576-1.08-.36a73.846,73.846,0,0,0-5.256,6.048,41.828,41.828,0,0,1-10.3,8.928c-3.672,2.088-5.832,2.952-6.48,2.52S83.088-32.9,82.44-31.68c-.792,1.152-.864,1.944-.36,2.3q.648.54,5.184-.864t11.88-7.56c-1.728,4.392-3.24,8.784-4.536,12.888a67.931,67.931,0,0,0-2.376,10.8,11.638,11.638,0,0,0,2.3,8.424A4.868,4.868,0,0,0,99-3.456c1.872-.072,4.9-1.224,9.216-3.456a33.661,33.661,0,0,0,11.3-9.576q4.968-6.48,5.832-10.8c1.872,2.088,3.312,3.744,4.536,4.9,1.152,1.224,2.088,1.728,2.736,1.656a2.061,2.061,0,0,0,1.584-1.008,1.927,1.927,0,0,0,.36-1.584A2.4,2.4,0,0,0,133.56-24.552Zm6.048-23.04a24.812,24.812,0,0,1-1.08-11.736c.36-.936.072-1.512-1.008-1.728-1.008-.216-1.8.792-2.16,2.88a22,22,0,0,0,.432,7.92c.648,3.168,1.584,4.68,2.88,4.68,1.152.072,1.8-.288,1.8-.936q0-1.08-.432-1.08Zm-9.36-6.624c.432-1.44.144-2.3-.936-2.376s-1.728.072-1.8.432a12.485,12.485,0,0,0-.144,3.384,12.63,12.63,0,0,0,1.368,5.616c.936,1.872,1.656,2.952,2.16,3.1a2.437,2.437,0,0,0,1.728-.216c.576-.216.72-.72.432-1.44-.36-.72-.72-1.44-1.08-2.3-.432-.864-.936-1.872-1.44-3.168A3.568,3.568,0,0,1,130.248-54.216ZM167.32-27.36c-8.52,1.4-14.08,6.36-16.6,14.92-.6,2.8-.48,4.92.32,6.32.76,1.44,1.44,2.16,2.04,2.24.52.12,1.76-.24,3.76-.96,1.96-.76,3.96-3.68,6-8.8,2-5.12,3.16-8.24,3.48-9.44.24-1.2.24-1.96-.08-2.32a6.522,6.522,0,0,1,4.32.32c1.52.64,2.76,2.52,3.84,5.68a12.831,12.831,0,0,1,.08,8.56,16.9,16.9,0,0,1-2.96,5.28c-1,1.04-1.44,1.8-1.28,2.32s.4.76.76.8,1.6-1.6,3.84-4.84c2.2-3.24,2.6-7.4,1.2-12.56C174.6-24.96,171.68-27.48,167.32-27.36Zm-2.44,1.96a50.7,50.7,0,0,1-3.4,10.8,46.718,46.718,0,0,1-3.56,6.48,6.81,6.81,0,0,1-4.4,2.64q-2.64-2.88-.12-9.36C155.08-19.16,158.92-22.68,164.88-25.4Z" transform="translate(1520.721 -795.075) rotate(-8)" fill="#0052a5"/>
    <path id="Path_26" data-name="Path 26" d="M9.264,19.57C1.229,25.131-2.315,34.818,1.6,45.029S13.63,59.18,25.223,61.453s12.783,8.2,9.4,17.6c9.581-17.34,17.328-13.412,32.753-13.863s77.194-.742,107.853-.742,54.378-12.209,59.128-32.656S223.943-.783,211.543.039" transform="translate(1493.827 -828.952) rotate(-8)" fill="none" stroke="#0052a5" stroke-width="1"/>
    <g id="b" transform="translate(1384 -727.512)">
      <g id="c" transform="translate(0)">
        <path id="Path_150" data-name="Path 150" d="M27.422,15.7S35.59,45.073,12.5,48.685c0,0,21.99-4.712,27.488,27.331,0,0-8.8-33.614,12.409-37.7,0-.157-18.22,6.911-24.975-22.618Z" transform="translate(7.134 8.96)" fill="none" stroke="#0052a5" stroke-miterlimit="10" stroke-width="3"/>
        <path id="Path_151" data-name="Path 151" d="M49.723,36.1s-3.613-17.592,9.424-18.22c0,0-10.21.628-11.152-17.278,0,0,2.67,17.906-11,20.891,0-.157,11.78-4.712,12.723,14.608Z" transform="translate(21.117 0.342)" fill="none" stroke="#0052a5" stroke-miterlimit="10" stroke-width="3"/>
        <path id="Path_152" data-name="Path 152" d="M7.854,24.66S6.44,13.037,14.608,11.466c0,0-7.068,0-8.168-11.466,0,0,1.1,10.838-6.44,13.508,0,0,6.283-.785,7.854,11.152Z" transform="translate(0)" fill="#0052a5"/>
      </g>
    </g>
    <g id="b-2" data-name="b" transform="translate(1713.132 -1124.977)">
      <g id="c-2" data-name="c">
        <ellipse id="Ellipse_26" data-name="Ellipse 26" cx="5.8" cy="4.9" rx="5.8" ry="4.9" transform="matrix(0.971, -0.239, 0.239, 0.971, 33.19, 2.028)" fill="none" stroke="#0052a5" stroke-miterlimit="10" stroke-width="2"/>
        <line id="Line_3" data-name="Line 3" x2="6.2" y2="4.8" transform="translate(38.9 1.1)" fill="none" stroke="#0052a5" stroke-miterlimit="10" stroke-width="2"/>
        <line id="Line_4" data-name="Line 4" x2="7.1" y2="6.1" transform="translate(36.9 1.9)" fill="none" stroke="#0052a5" stroke-miterlimit="10" stroke-width="2"/>
        <line id="Line_5" data-name="Line 5" x2="7" y2="6.5" transform="translate(35.5 3.1)" fill="none" stroke="#0052a5" stroke-miterlimit="10" stroke-width="2"/>
        <line id="Line_6" data-name="Line 6" x2="4.9" y2="4.5" transform="translate(34.6 5.4)" fill="none" stroke="#0052a5" stroke-miterlimit="10" stroke-width="2"/>
        <ellipse id="Ellipse_27" data-name="Ellipse 27" cx="9.5" cy="8" rx="9.5" ry="8" transform="translate(58.114 158.341) rotate(-16.612)" fill="none" stroke="#0052a5" stroke-miterlimit="10" stroke-width="2"/>
        <line id="Line_7" data-name="Line 7" x2="10.5" y2="7.3" transform="translate(67.4 156.3)" fill="none" stroke="#0052a5" stroke-miterlimit="10" stroke-width="2"/>
        <line id="Line_8" data-name="Line 8" x2="12.1" y2="9.5" transform="translate(64.1 157.7)" fill="none" stroke="#0052a5" stroke-miterlimit="10" stroke-width="2"/>
        <line id="Line_9" data-name="Line 9" x2="12" y2="10.1" transform="translate(61.8 159.8)" fill="none" stroke="#0052a5" stroke-miterlimit="10" stroke-width="2"/>
        <line id="Line_10" data-name="Line 10" x2="8.5" y2="7" transform="translate(60.6 163.7)" fill="none" stroke="#0052a5" stroke-miterlimit="10" stroke-width="2"/>
        <line id="Line_11" data-name="Line 11" x2="4.5" y2="79.2" transform="translate(74.9 52.1)" fill="none" stroke="#0052a5" stroke-miterlimit="10" stroke-width="2"/>
        <line id="Line_12" data-name="Line 12" x2="39.7" y2="42.4" transform="translate(58.4 66.1)" fill="none" stroke="#0052a5" stroke-miterlimit="10" stroke-width="2"/>
        <line id="Line_13" data-name="Line 13" x1="40.7" y2="57" transform="translate(55.2 59.7)" fill="none" stroke="#0052a5" stroke-miterlimit="10" stroke-width="2"/>
        <line id="Line_14" data-name="Line 14" y1="4.4" x2="65.6" transform="translate(48.3 85.2)" fill="none" stroke="#0052a5" stroke-miterlimit="10" stroke-width="2"/>
        <path id="Path_153" data-name="Path 153" d="M0,60.9s7.9-.5,10.8-.6c3.6-.2,8.3-5.2,8.2-8.7s-.2-10.8-.2-10.8.5,8.5.5,11.7,3,5.5,6.3,5.4S40,57.3,40,57.3s-12.5.9-14.5,1.1-5.2,3.5-5.1,7,.1,23.9.1,23.9-.6-20.7-.7-24c0-3.3-3.8-4.6-6.6-4.5S0,60.9,0,60.9Z" fill="none" stroke="#0052a5" stroke-miterlimit="10" stroke-width="2"/>
        <path id="Path_154" data-name="Path 154" d="M134.7,80.2s6.6,23.1-11.8,29.4c0,0,22.7-1.2,26.4,21,0,0-6.4-28.1,8.9-32.7C158.3,97.9,141.4,101.2,134.7,80.2Z" fill="none" stroke="#0052a5" stroke-miterlimit="10" stroke-width="2"/>
        <path id="Path_155" data-name="Path 155" d="M124.9,118.8s3.9,14.4-7.1,18.3c0,0,13.5-.8,15.8,13.1,0,0-3.8-17.5,5.3-20.3,0-.1-10.1,2-14-11.1Z" fill="none" stroke="#0052a5" stroke-miterlimit="10" stroke-width="2"/>
      </g>
    </g>
  </g>
</svg>
