<svg xmlns="http://www.w3.org/2000/svg" width="135.03" height="45.15" viewBox="0 0 135.03 45.15">
  <g id="レイヤー_1" data-name="レイヤー 1" transform="translate(0 0.01)">
    <g id="Group_371" data-name="Group 371">
      <g id="Group_366" data-name="Group 366">
        <path id="Path_6" data-name="Path 6" d="M0,42.45l.46-.6h2.7l-.46.6Z" fill="#fff"/>
        <path id="Path_7" data-name="Path 7" d="M23.73,45.05a3.05,3.05,0,0,1-3.3-2.92c0-1.66,1.4-2.81,3.3-2.81h3.62l-.61.79H23.73a2.151,2.151,0,0,0-2.37,2.06c0,1.43,1.26,2.1,2.88,2.1h3.12l-.61.78H23.74Z" fill="#fff"/>
        <path id="Path_8" data-name="Path 8" d="M36.58,45.05l.57-.78h3.99L38.5,40.3l-3.21,4.75h-1.1l3.72-5.45a.742.742,0,0,1,.61-.35.71.71,0,0,1,.61.35l3.66,5.45H36.58Z" fill="#fff"/>
        <path id="Path_9" data-name="Path 9" d="M50.23,45.05V39.32h6.08l-.61.79H51.15v1.72h4.89l-.53.69H51.15v1.76h5.2l-.61.78H50.23Z" fill="#fff"/>
        <path id="Path_10" data-name="Path 10" d="M70.04,45.05l-2.05-1.89H64.7v1.89h-.92V42.41h4.1c1.07,0,2.04-.31,2.04-1.13,0-.91-.85-1.17-2.04-1.17H63.76l.61-.79h3.85c1.34,0,2.65.51,2.65,1.91,0,1.03-.75,1.65-1.92,1.76l2.35,2.06H70.04Z" fill="#fff"/>
        <path id="Path_11" data-name="Path 11" d="M79.68,43.18v1.87h-.92V42.41h4.09c1.09,0,1.97-.31,1.97-1.14,0-.89-.8-1.16-1.98-1.16h-4.1l.62-.79h3.81c1.58,0,2.58.74,2.58,1.96s-.99,1.9-2.58,1.9H79.69Z" fill="#fff"/>
        <path id="Path_12" data-name="Path 12" d="M98.77,45.05V42.47h-4.4v2.58h-.92V39.32h.92v2.36h4.4V39.32h.92v5.73h-.92Z" fill="#fff"/>
        <path id="Path_13" data-name="Path 13" d="M113.57,39.32h.93v3.23c0,1.73-1.11,2.59-3.32,2.59-2.56,0-3.66-.86-3.66-2.59V39.32h.92v3.23c0,1.28.76,1.82,2.74,1.82s2.39-.54,2.39-1.82V39.32Z" fill="#fff"/>
        <path id="Path_14" data-name="Path 14" d="M131.87,42.45l.46-.6h2.7l-.46.6Z" fill="#fff"/>
      </g>
      <g id="Group_370" data-name="Group 370">
        <g id="Group_367" data-name="Group 367">
          <path id="Path_15" data-name="Path 15" d="M38.97,12.91s-.08-.04-.08-.09.05-.08.09-.1a5.647,5.647,0,0,0,3.63-5.53c0-3.64-2.4-7.2-10.4-7.2H4.64A4.64,4.64,0,0,0,.79,2.07a.693.693,0,0,0,.59,1.06H31.73c5.28,0,6.84,2,6.84,4.36,0,3.08-2.52,4.04-5.12,4.04H13.58a1.272,1.272,0,0,0-1.27,1.27v.58a1.272,1.272,0,0,0,1.27,1.27H32.93c4.36,0,6.68,1.64,6.68,4.72s-1.88,4.72-7.24,4.72h-31a.693.693,0,0,0-.59,1.06,4.649,4.649,0,0,0,3.86,2.07H32.52c7.84,0,11.16-2.72,11.16-7.92a6.544,6.544,0,0,0-4.72-6.38Z" fill="#fff"/>
          <path id="Path_16" data-name="Path 16" d="M66.03,23.03a.154.154,0,0,0,.03-.07.091.091,0,0,0-.03-.07L47.01,6.03a.342.342,0,0,1-.12-.27.158.158,0,0,1,.16-.16h2.32a6.6,6.6,0,0,1,4.34,1.64L68.53,20.36a.336.336,0,0,0,.1.04.178.178,0,0,0,.1-.04L82.12,7.25A5.788,5.788,0,0,1,86.17,5.6h2.2a.158.158,0,0,1,.16.16.386.386,0,0,1-.11.27L61.13,32.75a5.788,5.788,0,0,1-4.05,1.65h-2.2a.158.158,0,0,1-.16-.16.386.386,0,0,1,.11-.27L66.01,23.03Z" fill="#fff"/>
          <path id="Path_17" data-name="Path 17" d="M91.66.77V2.34a.77.77,0,0,0,.77.77h34.96a.776.776,0,0,1,.4,1.44c-1.23.73-2.59,1.56-3.37,2.12L96.82,26.68a.389.389,0,0,0-.16.32.2.2,0,0,0,.2.2h4.87a.738.738,0,0,0,.45-.15L134.71,3.47a.786.786,0,0,0,.32-.63V.77a.77.77,0,0,0-.77-.77H92.44a.77.77,0,0,0-.77.77Z" fill="#fff"/>
        </g>
        <g id="Group_368" data-name="Group 368">
          <rect id="Rectangle_102" data-name="Rectangle 102" width="3.05" height="3.08" rx="0.93" transform="translate(6.46 18.88)" fill="#fff"/>
          <rect id="Rectangle_103" data-name="Rectangle 103" width="3.05" height="3.08" rx="0.93" transform="translate(6.46 14.02)" fill="#fff"/>
          <rect id="Rectangle_104" data-name="Rectangle 104" width="3.05" height="3.08" rx="0.93" transform="translate(6.46 9.16)" fill="#fff"/>
          <rect id="Rectangle_105" data-name="Rectangle 105" width="3.05" height="3.08" rx="0.93" transform="translate(6.46 4.3)" fill="#fff"/>
        </g>
        <g id="Group_369" data-name="Group 369">
          <rect id="Rectangle_106" data-name="Rectangle 106" width="3.05" height="3.08" rx="0.93" transform="translate(1.58 16.45)" fill="#fff"/>
          <rect id="Rectangle_107" data-name="Rectangle 107" width="3.05" height="3.08" rx="0.93" transform="translate(1.58 11.59)" fill="#fff"/>
          <rect id="Rectangle_108" data-name="Rectangle 108" width="3.05" height="3.08" rx="0.93" transform="translate(1.58 6.73)" fill="#fff"/>
        </g>
      </g>
    </g>
  </g>
</svg>
