<svg xmlns="http://www.w3.org/2000/svg" width="23.459" height="45.26" viewBox="0 0 23.459 45.26">
  <path id="Path_231" data-name="Path 231" d="M9.66-42.84c-2.58-3.42-4.92-5.76-7.02-6.72a8.608,8.608,0,0,0-5.4-1.02c-1.44.36-2.04.84-1.68,1.38s.66.84.9.78a32.08,32.08,0,0,1,3.66.9,13.369,13.369,0,0,1,5.94,3.78c1.74,1.98,2.64,3.72,2.7,5.16,0,1.5-.9,3-2.58,4.56A8.694,8.694,0,0,1,.6-31.56a16.032,16.032,0,0,0-3.78.42A.868.868,0,0,0-3.72-30a1.534,1.534,0,0,0,1.14,1.2A13.345,13.345,0,0,1,.24-27.12c1.14.84,2.82,3,4.86,6.3,2.04,3.36,2.7,6.12,1.86,8.34C3.54-8.88-.18-7.2-3.96-7.32c-3.84-.12-5.7-.66-5.58-1.5.06-.9.12-1.56.12-2.1,0-.48-.48-.72-1.38-.72-.84,0-1.38.6-1.5,1.92a7.436,7.436,0,0,0,.18,3c.18.66,2.82,1.08,7.8,1.2A14.853,14.853,0,0,0,9.3-11.28a11.77,11.77,0,0,0-1.32-9.96c-1.92-2.94-3.9-5.58-5.7-7.86a14.028,14.028,0,0,0,8.16-5.94A7.984,7.984,0,0,0,9.66-42.84Z" transform="translate(12.36 50.691)" fill="#022f6b"/>
</svg>
