<svg xmlns="http://www.w3.org/2000/svg" width="539.677" height="140.153" viewBox="0 0 539.677 140.153">
  <g id="Group_553" data-name="Group 553" transform="translate(-1674.181 3520.119)">
    <path id="Path_229" data-name="Path 229" d="M-267.6-22.2c3.6-1.8,7.4-3.6,11.35-5.35A189.786,189.786,0,0,1-258.6-4.1c-1,5.5-1.25,8.45-.7,8.8a1.184,1.184,0,0,0,1.6-.45,6.3,6.3,0,0,0,.65-3.3,46.159,46.159,0,0,1,.5-6.25c.35-2.55,1-6.25,1.95-11.15a17.336,17.336,0,0,1,1.35,3.65,18.134,18.134,0,0,0,1.1,3.4c.4.85,1.95,1.8,4.65,2.75a12.511,12.511,0,0,0,7.4.7,16.557,16.557,0,0,0,4.2-1.3c.55-.3,1.45-.8,2.6-1.35a7.353,7.353,0,0,0,2.45-1.65,1.433,1.433,0,0,0,0-1.85c-.45-.75-1-.85-1.5-.3-.55.55-1.35,1.2-2.3,2.05a15.448,15.448,0,0,1-5.25,2.3c-2.5.75-5.85.05-10.1-2.15a50.942,50.942,0,0,1-4.1-18.5c3.45-2.05,6.45-3.95,9-5.75,2.5-1.8,3.65-3.05,3.35-3.8-.3-.7-.65-1.05-1.05-.9a12.6,12.6,0,0,0-3,2.35,50.243,50.243,0,0,1-8.3,5.65c-.2-6.1-.6-9.55-1.2-10.3-.65-.75-1.3-.9-1.95-.55-.6.4-.85.75-.65,1a8.848,8.848,0,0,1,.7,2.8,80.963,80.963,0,0,1,.85,8.1,40.371,40.371,0,0,1-8.2,3.9c-3.15,1.1-4.9,2.05-5.05,2.7-.15.7,0,1.15.45,1.4A1.719,1.719,0,0,0-267.6-22.2Zm66.9-16.3c-.25-.15-.4-.25-.5-.2a.5.5,0,0,0-.25.4c-.05.25-.3,1.25-.75,2.85-.45,1.65-.9,3.15-1.45,4.6-.55,1.4-1.75,4.05-3.65,8-.95,1.95-2.3,4.9-4.2,8.8-1.95,3.95-3.25,6.65-4.05,8.05-.75,1.45-1.55,2.8-2.25,3.95A4.846,4.846,0,0,0-218.85.3a2.913,2.913,0,0,0,.2.8c.05.15.15.25.3.2s.35-.2.65-.35a2.823,2.823,0,0,0,.85-1c.25-.4.7-1.1,1.35-2.15a18.606,18.606,0,0,0,1.6-2.65c.35-.65.8-1.6,1.45-2.8s1.3-2.5,2.1-3.95,1.5-2.95,2.25-4.55c.75-1.55,1.3-2.85,1.85-3.85.8.8,1.75,1.85,3,2.95,1.2,1.2,3.35,3.2,6.4,5.95q4.65,4.275,7.65,6.6c2,1.6,3.45,2.75,4.4,3.45.9.65,1.55,1.1,1.8,1.25s.55.3.75.4a1.2,1.2,0,0,0,.7.1.519.519,0,0,0,.4-.3.867.867,0,0,0-.05-.6,4.714,4.714,0,0,0-.55-.85c-.25-.25-.6-.6-1.1-1.05-.5-.4-1.5-1.25-3.15-2.6-1.6-1.3-2.9-2.4-4-3.2-1.05-.8-2.05-1.5-2.9-2.25-.9-.75-2.8-2.45-5.75-5.15-2.9-2.65-4.45-4.15-4.7-4.45a5.716,5.716,0,0,1-.7-.8A9.706,9.706,0,0,1-205-22.3c.4-.8.85-1.75,1.35-2.9.5-1.1.85-2.15,1.15-2.95.3-.85.75-2.05,1.35-3.75a26.459,26.459,0,0,0,1.05-3.65,5.733,5.733,0,0,0,.1-1.75,2.517,2.517,0,0,0-.25-.8A1.181,1.181,0,0,0-200.7-38.5ZM-163-25.35a1.55,1.55,0,0,0,.65.3,4.444,4.444,0,0,0,1.3-.1c.65-.05,2.85-.6,6.6-1.6s6.1-1.55,7.05-1.75c.9-.2,1.85-.35,2.65-.45.85-.1,1.3-.55,1.25-1.25q-.075-1.125-2.4-.6c-1.55.35-2.7.6-3.4.75-.75.2-1.8.5-3.35.9-1.5.4-3.55.95-6.15,1.6a38.869,38.869,0,0,0-4.2,1.3c-.2.15-.3.25-.25.4A.953.953,0,0,0-163-25.35Zm-.95,6.4c-1.8.4-2.5,1-1.95,1.7.5.8,1.25.9,2.3.3,1-.6,3.6-1.45,7.85-2.7,4.25-1.15,7.05-1.95,8.5-2.3,1.4-.4,2.45-.65,3-.75q.9-.075,1.5-.15a28.119,28.119,0,0,0,.25,3.05c.2,1.6.45,3.25.8,4.9.35,1.7.7,3.35,1.1,4.85a39.709,39.709,0,0,0,1.35,3.95,26.355,26.355,0,0,0,2.45,4.4c1.15,1.8,2.15,3.15,2.85,4.1a4.194,4.194,0,0,0,1.9,1.45c.55.1.8-.1.8-.6a2.1,2.1,0,0,0-.7-1.45,21.2,21.2,0,0,1-1.9-2.65c-.8-1.25-1.7-2.85-2.7-4.75a22.6,22.6,0,0,1-2.2-5.3,56.841,56.841,0,0,1-1.3-6.1c-.4-2.45-.6-4.35-.75-5.75s-.5-2.25-1.15-2.55-2.3,0-4.95.95c-2.7.9-5,1.65-6.8,2.15s-3.55.95-5.15,1.4A31.866,31.866,0,0,0-163.95-18.95Zm2.8,20a71.469,71.469,0,0,1,4.6-7.65c4.45,4.15,6.9,6.2,7.4,6.15.45-.05.75-.25.8-.6a1.286,1.286,0,0,0-.35-1.05c-.25-.3-2.4-2.35-6.4-6.2a12.74,12.74,0,0,1,2.95-4.25c.95-.7,1.3-1.3,1.15-1.9q-.15-.9-1.35-.45a5.735,5.735,0,0,0-2.2,2.1,20.44,20.44,0,0,1-2.4,3.3c-3.5-2.75-5.65-4.05-6.45-4a2.657,2.657,0,0,0-1.65.9c-.35.45-.2.75.35.9a6.23,6.23,0,0,0,1.5.25c.45.05,2.15,1.4,5.1,3.9A58.05,58.05,0,0,0-162.75-.4c-.85,1.8-1.05,2.95-.55,3.4C-162.75,3.4-162.05,2.8-161.15,1.05ZM-165.9-29.2c1.55-.75,3.6-1.55,6.15-2.5,2.5-.85,7-2.15,13.45-3.8a1.243,1.243,0,0,0-.1,1.1c.15.3.65.15,1.5-.55a8.418,8.418,0,0,0,1.55-1.6,2.112,2.112,0,0,0,.15-1.4c-.1-.55-.2-.7-.3-.6a50.323,50.323,0,0,1-6.8,2.15c-4.45,1.35-9.4,2.95-15.05,4.9,1.8-4.75,2.65-7.2,2.7-7.5a2.907,2.907,0,0,1,.5-1.1c.3-.45.3-.7.05-.85a5.555,5.555,0,0,0-.8-.35.6.6,0,0,0-.65.3c-.1.25-.45.85-.95,1.8-.5.9-1.6,4.45-3.35,10.45a5.279,5.279,0,0,0-.65,3.05c.15.75.55,1.1,1.05,1,.55-.1.9-.7,1-1.8A11.627,11.627,0,0,1-165.9-29.2Zm51.6,1.95c3.25-1.05,7.2-2.15,11.95-3.2,0,6.65.1,11.85.3,15.4.2,3.6.65,5.6,1.35,5.9-3.25.95-6.4,1.9-9.35,3-3,1.05-4.6,1.95-4.75,2.6a1.691,1.691,0,0,0,.05,1.35c.15.3,2.1-.35,5.75-1.9A92.241,92.241,0,0,1-96.6-8.25c4.65-1.2,7.5-1.75,8.5-1.7a9.449,9.449,0,0,0,2.4,0,1.272,1.272,0,0,0,1.1-1.1c.1-.55-1.2-.8-3.8-.75A38.633,38.633,0,0,0-98.8-9.65c-.5-3.4-.95-6.9-1.2-10.5A60.456,60.456,0,0,1-99.9-31c2.6-.65,4.85-1.2,6.7-1.5a35.9,35.9,0,0,1,4.05-.6,2.269,2.269,0,0,0,1.8-.9q.525-.75-.45-1.2c-.65-.3-3.05,0-7.2.85-4.15.95-8.25,2-12.25,3.1-3.95,1.15-6.15,1.65-6.5,1.45-.4-.15-.8.25-1.2,1.3C-115.35-27.5-115.15-27.1-114.3-27.25Zm53.35.4c-.8,9.35-1.05,14.15-.6,14.4a1.679,1.679,0,0,0,1.1.35,1.365,1.365,0,0,0,1-.6c.25-.35.25-1.4.05-3.15a19.255,19.255,0,0,1,.05-6.1,49.63,49.63,0,0,1,1.2-6.25c3.15-1.85,6-3.5,8.55-5,2.55-1.45,5.2-1.4,8.1.1A3.524,3.524,0,0,1-40.15-30,213.014,213.014,0,0,1-46.1-1.95c-.25.9-.1,1.4.55,1.4A2.16,2.16,0,0,0-43.9-1.4c2.1-7.95,3.6-14.55,4.65-19.9q1.5-7.95,1.2-9.9a6.46,6.46,0,0,0-2.6-3.8,7.248,7.248,0,0,0-6.05-1.25c-2.4.45-5.95,2.15-10.55,5.05a10.245,10.245,0,0,1,.65-2.45c.25-.65.3-1.1.05-1.4a1.2,1.2,0,0,0-1.2-.15c-.6.2-1.1.9-1.45,2.15s-.65,2.5-.9,3.6c-1.05.4-1.55.85-1.6,1.3A1.461,1.461,0,0,0-60.95-26.85ZM3.85-5.6C7.8-15.9,11.4-24.5,14.5-31.35c.25-.85-.05-1.2-.85-1.15s-1.25.4-1.3,1.15C9.4-24.65,5.9-16.45,1.95-6.7c-.25.85-.05,1.35.5,1.5A1.082,1.082,0,0,0,3.85-5.6Zm-9-11.4c.55.55,1.1.45,1.65-.2.5-.6.45-1.15-.15-1.5-.65-.35-1.75-1.1-3.45-2.25-1.7-1.1-3.5-3.85-5.45-8.1a.925.925,0,0,0-1.35-.55c-.65.3-.8.9-.45,1.7,1.45,3.65,3.05,6.2,4.8,7.75A17.511,17.511,0,0,0-5.15-17Zm59,11.4C57.8-15.9,61.4-24.5,64.5-31.35c.25-.85-.05-1.2-.85-1.15s-1.25.4-1.3,1.15c-2.95,6.7-6.45,14.9-10.4,24.65-.25.85-.05,1.35.5,1.5A1.082,1.082,0,0,0,53.85-5.6Zm-9-11.4c.55.55,1.1.45,1.65-.2.5-.6.45-1.15-.15-1.5-.65-.35-1.75-1.1-3.45-2.25-1.7-1.1-3.5-3.85-5.45-8.1a.925.925,0,0,0-1.35-.55c-.65.3-.8.9-.45,1.7,1.45,3.65,3.05,6.2,4.8,7.75A17.511,17.511,0,0,0,44.85-17Zm61.75-2.35C95.15-19.7,88.45-19.9,86.35-20s-3.45.2-4,.8c-.55.7-.35,1.1.55,1.25,9.25.15,16.8.25,22.7.4s9.55.2,10.85.05,2-.45,2.05-1S114.55-19.35,106.6-19.35ZM142.4-4.5a36.942,36.942,0,0,0,17.3-8.7c1.3,2.35,2.2,4.15,2.8,5.45.55,1.3,1.05,2,1.35,2.05.35.1.75-.1,1.2-.55a3.792,3.792,0,0,0,.75-1c.1-.1-.1-.4-.5-.75a10.54,10.54,0,0,1-2-3.3,57.136,57.136,0,0,1-2.7-6.5c-.95-2.55-1.55-3.85-1.9-3.85a1.663,1.663,0,0,0-1.15.55,2.258,2.258,0,0,0-.15,2.05,15.326,15.326,0,0,0,1.4,3.4q-8.55,8.7-19.2,8.7a10,10,0,0,1-2.45-9.95A54.624,54.624,0,0,1,140.8-26c1.4-2.45,2.4-4.2,3.05-5.1s.85-1.45.7-1.75a.937.937,0,0,0-.7-.4c-.3,0-1.1.6-2.3,1.75-1.2,1.25-2.8,4-4.65,8.35-1.9,4.4-2.5,8.35-1.8,11.9.65,3.6,1.6,5.7,2.9,6.2A7.434,7.434,0,0,0,142.4-4.5Zm38.45-26.4c3.35-1.8,5.85-3.2,7.7-4.05,1.8-.9,2.8-1.4,3.05-1.5a7.787,7.787,0,0,1,1.35-.1c.65,0,1.05-.3,1.1-.85s-.05-.95-.4-1.15c-.35-.15-1.7.2-4.15,1.25a48.524,48.524,0,0,0-6.65,3.35c-2,1.25-3.1,1.95-3.45,2.15s-.35.55-.05,1.05S180.15-30.3,180.85-30.9ZM196.8-6l.25-1.75a42.144,42.144,0,0,0,.7-10.25l-.2-1.8a8.475,8.475,0,0,0-2.9-5.85,6.588,6.588,0,0,0-3.65-.2,10.359,10.359,0,0,1-.15-2.9,1.914,1.914,0,0,0-.3-1.55c-.35-.4-.7-.4-1.15,0a2.3,2.3,0,0,0-.65,1.9v3.25a10.034,10.034,0,0,0-2.7,1.85c0-4.85-.15-7.5-.5-7.9a1.2,1.2,0,0,0-1.1-.5c-.35.05-.55.9-.55,2.5v7.45a10.374,10.374,0,0,0-1.75,1.95,5.7,5.7,0,0,0,0-2.35q-.225-.525-1.05-.15c-.55.25-.85.85-.85,1.85A11.1,11.1,0,0,1,180-17.8c-.8.8-.7,1.75.25,2.7.15,2.6.3,5.3.45,8.05a9.387,9.387,0,0,0,2.7,6.5,3.756,3.756,0,0,0-1.3.25.843.843,0,0,0-.65.85c0,.4.25.6.75.7.45.1,1.6-.3,3.4-1.3a49.477,49.477,0,0,1,8.35-3.3c-.45,1.35-.3,2,.55,1.95.8-.05,1.4-1,1.8-2.75A1.437,1.437,0,0,0,196.8-6ZM186.35-20.95a23.208,23.208,0,0,1,2.4-1.95c0,3.9.15,7.8.5,11.7-.45.2-1.25.6-2.45,1.2A44.632,44.632,0,0,1,186.35-20.95Zm-4.1,3.9A8.305,8.305,0,0,1,184.1-19a63.544,63.544,0,0,0,.75,9.75,18.37,18.37,0,0,1-2.25,1.2A45.646,45.646,0,0,1,182.25-17.05ZM194.65-5.8c-3.4,1.5-6.6,2.9-9.6,4.3a1.289,1.289,0,0,1-.8-1.45,1.363,1.363,0,0,0-.55-1.4,1.622,1.622,0,0,1-.3-1.95c3.55-1.6,7.65-3.35,12.2-5.15C195.25-9.65,194.95-7.75,194.65-5.8Zm.95-7.8a24.231,24.231,0,0,0-4.1,1.65A64.127,64.127,0,0,1,191-23.9a5.545,5.545,0,0,1,1.7-.25,2,2,0,0,1,1.65.95A17.624,17.624,0,0,1,195.6-13.6Zm20.2,6.8c-5.65,2.5-8.85,3.4-9.65,2.65a7.51,7.51,0,0,1-1.8-3.7c-.45-1.75-.4-5,.05-9.7a36.253,36.253,0,0,1,7.3-4,15.726,15.726,0,0,0,3.6-1.5,6.247,6.247,0,0,0,1.15-.9,1.222,1.222,0,0,0,0-.85.713.713,0,0,0-.75-.55c.6-3.9.65-6.65.2-8.2a10.706,10.706,0,0,0-.95-2.75c-.2-.2-.5-.55-.95-1s-2-.45-4.65-.05a17.743,17.743,0,0,0-6.55,2.05c-1.7.95-2.45,1.6-2.3,1.95s.5.55,1.1.6a3.837,3.837,0,0,0,2.45-1c1.05-.7,3.75-1.3,8.25-1.85a5.518,5.518,0,0,1,1.8,4.75c-.15,1.9-.3,4-.35,6.2-4.9,2.2-8.45,3.9-10.55,5.1a14.461,14.461,0,0,0-3.4,2.35.773.773,0,0,0,.15,1c.3.3,1.05.1,2.2-.55-.2,5.25-.1,8.6.35,10.2a9.041,9.041,0,0,0,1.9,3.8c.8.95,2.5,1.2,4.9.7a23.324,23.324,0,0,0,7.1-2.8c2.35-1.35,3.6-2.1,3.75-2.15a1.666,1.666,0,0,0,.65-.75c.25-.45,0-.8-.8-.95C219.25-8.85,217.8-8.2,215.8-6.8Zm21.6-10.15a.82.82,0,0,0,.55.35,3.551,3.551,0,0,0,1.3-.15c.65-.15,2.85-.8,6.5-1.95s5.95-1.9,6.9-2.15q1.35-.375,1.65-.45a.449.449,0,0,1,.45.1,1.326,1.326,0,0,0,.3.25c.1.05.2.05.4-.05a2.065,2.065,0,0,0,.55-.35,3.236,3.236,0,0,0,.4-.45,1.031,1.031,0,0,0,.15-.65.682.682,0,0,0-.25-.6,2.151,2.151,0,0,0-.85-.25,6.779,6.779,0,0,0-2,.2c-.9.2-1.75.4-2.45.6-.75.2-1.85.55-3.35,1.05-1.5.55-3.5,1.2-6.05,1.95a25.064,25.064,0,0,0-4.15,1.5c-.25.2-.35.35-.3.55A.953.953,0,0,0,237.4-16.95ZM248.45-38.8c-.65-.65-1.3-1.35-1.85-1.95a1.425,1.425,0,0,0-2.15,0A77.787,77.787,0,0,0,237.4-29.1a76.453,76.453,0,0,0-3.15,7c-.35.95-.9,2.25-1.55,3.75a6.286,6.286,0,0,0-.7,3.15c.15.6.4.8.85.65a1.352,1.352,0,0,0,.9-.9c.15-.4,1.1-2.85,2.8-7.35a80.973,80.973,0,0,1,8.85-15.75,156.844,156.844,0,0,1,14.2,12.3c4.35,4.25,6.65,6.45,7,6.6a1,1,0,0,0,1.1-.3q.525-.6-5.7-6.75C257.85-30.8,253.3-34.85,248.45-38.8Zm-5.7,42.05,4.8-1.75c2.6-1.4,4.35-2.35,5.3-2.75.9-.45,1.75-.8,2.5-1.15.85.75,1.5.95,1.85.65a3.4,3.4,0,0,0,.5-2.2A24.45,24.45,0,0,1,258.45-9c.5-2.2.45-3.85-.2-4.95-.65-1.15-1.3-1.75-2.1-1.9s-2.35.2-4.7,1.15-5.7,2.4-10.05,4.4a3.887,3.887,0,0,0-.4-2.15c-.25-.35-.5-.4-.8-.2s-.75,1.6-1.35,4.3a25.11,25.11,0,0,0-.4,7.95c.25,2.65.65,4.1,1.15,4.35S241.15,4,242.75,3.25ZM241.1-7.55c6.6-3.55,10.8-5.5,12.6-5.9,1.8-.35,2.8.25,2.9,2a19.084,19.084,0,0,1-1.25,6.8A116.053,116.053,0,0,1,241.1,1.5,17.353,17.353,0,0,1,241.1-7.55Z" transform="matrix(0.999, -0.035, 0.035, 0.999, 1945.663, -3423.475)" fill="#011750" stroke="#011750" stroke-width="1"/>
    <path id="Line_18" data-name="Line 18" d="M0,52A1,1,0,0,1-1,51.1,1,1,0,0,1-.1,50l9.953-.973a1,1,0,1,1,.195,1.99L.1,52C.064,52,.031,52,0,52ZM19.9,50.053a1,1,0,0,1-.1-2l9.952-.973a1,1,0,1,1,.195,1.991L20,50.049C19.969,50.052,19.936,50.053,19.9,50.053Zm19.9-1.947a1,1,0,0,1-.1-2l9.953-.973a1,1,0,0,1,.195,1.991l-9.953.973Q39.858,48.107,39.809,48.107ZM59.714,46.16a1,1,0,0,1-.1-2l9.953-.973a1,1,0,0,1,.195,1.991l-9.953.973C59.779,46.159,59.746,46.16,59.714,46.16Zm19.905-1.947a1,1,0,0,1-.1-2l9.952-.973a1,1,0,0,1,.195,1.991l-9.953.973C79.684,44.212,79.652,44.214,79.619,44.214Zm19.905-1.947a1,1,0,0,1-.1-2l9.953-.973a1,1,0,1,1,.195,1.99l-9.953.973C99.589,42.265,99.557,42.267,99.524,42.267Zm19.905-1.947a1,1,0,0,1-.1-2l9.953-.973a1,1,0,0,1,.195,1.99l-9.953.973C119.495,40.319,119.462,40.32,119.429,40.32Zm19.9-1.947a1,1,0,0,1-.1-2l9.953-.973a1,1,0,1,1,.195,1.99l-9.953.973C139.4,38.372,139.367,38.374,139.334,38.374Zm19.905-1.947a1,1,0,0,1-.1-2l9.953-.973a1,1,0,1,1,.195,1.991l-9.953.973C159.3,36.426,159.272,36.427,159.239,36.427Zm19.9-1.947a1,1,0,0,1-.1-2L189,31.512A1,1,0,0,1,189.2,33.5l-9.952.973Q179.193,34.481,179.144,34.481Zm19.905-1.947a1,1,0,0,1-.1-2l9.953-.973a1,1,0,1,1,.195,1.991l-9.953.973C199.115,32.532,199.082,32.534,199.049,32.534Zm19.905-1.947a1,1,0,0,1-.1-2l9.953-.973a1,1,0,0,1,.195,1.991l-9.953.973C219.02,30.586,218.987,30.587,218.954,30.587Zm19.905-1.947a1,1,0,0,1-.1-2l9.952-.973a1,1,0,1,1,.195,1.99l-9.952.973C238.925,28.639,238.892,28.641,238.859,28.641Zm19.9-1.947a1,1,0,0,1-.1-2l9.953-.973a1,1,0,1,1,.195,1.99l-9.953.973C258.83,26.693,258.8,26.694,258.764,26.694Zm19.905-1.947a1,1,0,0,1-.1-2l9.953-.973a1,1,0,0,1,.195,1.99l-9.953.973C278.735,24.746,278.7,24.748,278.669,24.748ZM298.574,22.8a1,1,0,0,1-.1-2l9.952-.973a1,1,0,1,1,.195,1.991l-9.953.973C298.64,22.8,298.607,22.8,298.574,22.8Zm19.9-1.947a1,1,0,0,1-.1-2l9.953-.973a1,1,0,0,1,.195,1.991l-9.953.973C318.545,20.853,318.512,20.854,318.479,20.854Zm19.905-1.947a1,1,0,0,1-.1-2l9.953-.973a1,1,0,0,1,.195,1.991l-9.953.973C338.45,18.906,338.417,18.908,338.384,18.908Zm19.905-1.947a1,1,0,0,1-.1-2l9.953-.973a1,1,0,1,1,.195,1.99l-9.953.973C358.355,16.959,358.322,16.961,358.29,16.961Zm19.905-1.947a1,1,0,0,1-.1-2l9.953-.973a1,1,0,1,1,.195,1.99l-9.953.973C378.26,15.013,378.227,15.014,378.195,15.014ZM398.1,13.068a1,1,0,0,1-.1-2l9.953-.973a1,1,0,1,1,.195,1.99l-9.952.973C398.165,13.066,398.132,13.068,398.1,13.068ZM418,11.121a1,1,0,0,1-.1-2l9.953-.973a1,1,0,1,1,.195,1.991l-9.953.973C418.07,11.12,418.037,11.121,418,11.121Zm19.9-1.947a1,1,0,0,1-.1-2l9.953-.973a1,1,0,1,1,.195,1.991l-9.953.973Q437.959,9.175,437.91,9.175Zm19.905-1.947a1,1,0,0,1-.1-2l9.952-.973a1,1,0,0,1,.195,1.991l-9.952.973C457.88,7.226,457.847,7.228,457.815,7.228ZM477.72,5.281a1,1,0,0,1-.1-2l9.953-.973a1,1,0,0,1,.195,1.991l-9.953.973C477.785,5.28,477.752,5.281,477.72,5.281Zm19.905-1.947a1,1,0,0,1-.1-2l9.953-.973a1,1,0,0,1,.195,1.99l-9.953.973C497.69,3.333,497.657,3.335,497.625,3.335Zm19.9-1.947a1,1,0,0,1-.1-2L521.4-1a1,1,0,0,1,1.093.9A1,1,0,0,1,521.6,1l-3.969.388C517.6,1.387,517.562,1.388,517.53,1.388Z" transform="translate(1679.5 -3519.119)" fill="#0052a5"/>
    <path id="Line_19" data-name="Line 19" d="M529.317,27.914h-.052l-9.987-.508a1,1,0,0,1,.1-2l9.987.508a1,1,0,0,1-.05,2ZM509.343,26.9h-.052L499.3,26.39a1,1,0,0,1,.1-2l9.987.508a1,1,0,0,1-.05,2Zm-19.974-1.016h-.052l-9.987-.508a1,1,0,1,1,.1-2l9.987.508a1,1,0,0,1-.05,2Zm-19.974-1.016h-.052l-9.987-.508a1,1,0,1,1,.1-2l9.987.508a1,1,0,0,1-.05,2ZM449.42,23.852h-.052l-9.987-.508a1,1,0,1,1,.1-2l9.987.508a1,1,0,0,1-.05,2Zm-19.974-1.016h-.052l-9.987-.508a1,1,0,0,1,.1-2l9.987.508a1,1,0,0,1-.05,2Zm-19.974-1.016h-.052l-9.987-.508a1,1,0,0,1,.1-2l9.987.508a1,1,0,0,1-.05,2ZM389.5,20.8h-.052l-9.987-.508a1,1,0,1,1,.1-2l9.987.508a1,1,0,0,1-.05,2Zm-19.974-1.016h-.052l-9.987-.508a1,1,0,0,1,.1-2l9.987.508a1,1,0,0,1-.05,2Zm-19.974-1.016H349.5l-9.987-.508a1,1,0,1,1,.1-2l9.987.508a1,1,0,0,1-.05,2Zm-19.974-1.016h-.052l-9.987-.508a1,1,0,1,1,.1-2l9.987.508a1,1,0,0,1-.05,2ZM309.6,16.742h-.052l-9.987-.508a1,1,0,1,1,.1-2l9.987.508a1,1,0,0,1-.05,2Zm-19.974-1.016h-.052l-9.987-.508a1,1,0,1,1,.1-2l9.987.508a1,1,0,0,1-.05,2Zm-19.974-1.016H269.6l-9.987-.508a1,1,0,1,1,.1-2l9.987.508a1,1,0,0,1-.05,2ZM249.678,13.7h-.052l-9.987-.508a1,1,0,0,1,.1-2l9.987.508a1,1,0,0,1-.05,2ZM229.7,12.68h-.052l-9.987-.508a1,1,0,0,1,.1-2l9.987.508a1,1,0,0,1-.05,2ZM209.73,11.664h-.052l-9.987-.508a1,1,0,0,1,.1-2l9.987.508a1,1,0,0,1-.05,2Zm-19.974-1.016H189.7l-9.987-.508a1,1,0,0,1,.1-2l9.987.508a1,1,0,0,1-.05,2ZM169.782,9.633h-.052l-9.987-.508a1,1,0,1,1,.1-2l9.987.508a1,1,0,0,1-.05,2ZM149.807,8.617h-.052l-9.987-.508a1,1,0,0,1,.1-2l9.987.508a1,1,0,0,1-.05,2ZM129.833,7.6h-.052l-9.987-.508a1,1,0,1,1,.1-2l9.987.508a1,1,0,0,1-.05,2ZM109.859,6.586h-.052L99.82,6.077a1,1,0,0,1,.1-2l9.987.508a1,1,0,0,1-.05,2ZM89.885,5.57h-.052l-9.987-.508a1,1,0,1,1,.1-2l9.987.508a1,1,0,0,1-.05,2ZM69.91,4.555h-.052l-9.987-.508a1,1,0,1,1,.1-2l9.987.508a1,1,0,0,1-.05,2ZM49.936,3.539h-.052L39.9,3.03a1,1,0,1,1,.1-2l9.987.508a1,1,0,0,1-.05,2ZM29.962,2.523h-.052l-9.987-.508a1,1,0,1,1,.1-2l9.987.508a1,1,0,0,1-.05,2ZM9.988,1.508H9.936L-.051,1A1,1,0,0,1-1-.051,1,1,0,0,1,.051-1l9.987.508a1,1,0,0,1-.05,2Z" transform="translate(1679.5 -3407.881)" fill="#0052a5"/>
  </g>
</svg>
