<svg xmlns="http://www.w3.org/2000/svg" xmlns:xlink="http://www.w3.org/1999/xlink" width="85.348" height="96.359" viewBox="0 0 85.348 96.359">
  <defs>
    <linearGradient id="linear-gradient" x1="0.5" x2="0.5" y2="1" gradientUnits="objectBoundingBox">
      <stop offset="0" stop-color="#270203"/>
      <stop offset="0.474" stop-color="#785013"/>
      <stop offset="1" stop-color="#2b0502"/>
    </linearGradient>
  </defs>
  <g id="Group_569" data-name="Group 569" transform="translate(-68 -17909)">
    <path id="Path_160" data-name="Path 160" d="M0,0H79.469V96.36L39.734,87.585,0,96.36Z" transform="translate(68 17909)" fill="url(#linear-gradient)"/>
    <path id="Path_235" data-name="Path 235" d="M32.292-40.227a2.063,2.063,0,0,0-2-2.07c-1.518,0-3.726.276-5.313.345-3.8.207-9.453.414-13.041,1.587l.9-5.106a21.706,21.706,0,0,0,.621-3.588,2.076,2.076,0,0,0-2.07-2.07,2.2,2.2,0,0,0-2.07,1.794L8.763-46.23c-.621,3.243-1.173,6.486-1.725,9.8a41.4,41.4,0,0,0-.69,6.555,4.558,4.558,0,0,0,.207,1.656C8.142-24.15,21.114-25.53,21.114-18.009c0,4.14-5.106,7.728-8.349,9.384A39.036,39.036,0,0,1,8.073-6.762,2.142,2.142,0,0,0,6.624-4.83a2.076,2.076,0,0,0,2.07,2.07,1.91,1.91,0,0,0,.621-.069c6.348-2.07,15.939-7.314,15.939-15.18,0-8.556-8.556-9.936-14.835-12.006a55.763,55.763,0,0,1,.759-5.934.981.981,0,0,0,.414.138,2.149,2.149,0,0,0,1.242-.483c1.38-.828,10.35-1.38,12.42-1.518,1.725-.138,3.519-.069,5.175-.345A2.042,2.042,0,0,0,32.292-40.227Z" transform="translate(88.652 17978.441)" fill="#fff"/>
    <path id="Path_161" data-name="Path 161" d="M0,0V10H5.88Z" transform="translate(147.469 17909)" fill="#23030d"/>
  </g>
</svg>
