<svg xmlns="http://www.w3.org/2000/svg" width="322.061" height="74.443" viewBox="0 0 322.061 74.443">
  <path id="Path_238" data-name="Path 238" d="M14.883,20.375l-1.377-1.318a12.031,12.031,0,0,0-2.549-2.139,5.173,5.173,0,0,0-2.7-.732,4.138,4.138,0,0,0-.557.029l-1.67.615L3.6,19.525H3.223a3.057,3.057,0,0,1-1.289-1.084v-.381a17,17,0,0,0,.879-1.787l.645-.439.146-.322a8.752,8.752,0,0,1,5.654-1.523,24.855,24.855,0,0,1,3.779.908,47.161,47.161,0,0,1,4.248,3.779,4.178,4.178,0,0,0,2.021.615,8.142,8.142,0,0,0,4.8-3.691,1.931,1.931,0,0,0,.5-1.553l.469-.059,1.553.205a1.694,1.694,0,0,1,.7,1.23,6.4,6.4,0,0,1-.923,1.89,17.559,17.559,0,0,1-1.567,1.89l-.645.322-.879.85a8.069,8.069,0,0,1-2.183.908,20.479,20.479,0,0,1-2.8.469A5.666,5.666,0,0,1,14.883,20.375Zm28.008,6.65a2.013,2.013,0,0,0-.41-.85l.322-.85a2.039,2.039,0,0,1,1.025-.586,8.394,8.394,0,0,0,2.007-2.476,15.938,15.938,0,0,0,1.538-3.853,29.365,29.365,0,0,0,.762-5.537l-6.973.469.7,6.182-.234.41a2.173,2.173,0,0,1-1.084.469l-.7-.41q-1.025-1.084-1.729-6.328l-4.482.293-.557-.234-.7-.85.322-1.143,1.611-.41,3.662-.527Q38,9.945,38,8.158a5.133,5.133,0,0,1,.322-1.934L39.2,5.99l.938.234a4.8,4.8,0,0,1,.615,2.08,13.5,13.5,0,0,0,.293,2.256l7.295-.469q.117-.732.146-4.189l.381-.352.674-.234L50.3,5.4l.7.381a8.263,8.263,0,0,1,.469,3.193q0,.674-.029,1.025l3.545-.088.469-.088,1.377.439a1.68,1.68,0,0,1,.352,1.084,2.211,2.211,0,0,1-.029.41l-.469.527-1.465.469-3.984.352a61.25,61.25,0,0,1-.967,6.27,17.345,17.345,0,0,1-1.157,3.076A10.174,10.174,0,0,1,47.7,24.711a9.994,9.994,0,0,0-1.172,1.436,4.624,4.624,0,0,1-1.963,1.26A9.474,9.474,0,0,0,42.891,27.025ZM79.922,4.965a4.217,4.217,0,0,1,.337-1.67,3.915,3.915,0,0,1,.981-1.377A4.739,4.739,0,0,1,84.551.629a7.244,7.244,0,0,1,1.641.205,3.225,3.225,0,0,1,1.377.791,5.529,5.529,0,0,1,1.113,1.406,3.329,3.329,0,0,1,.469,1.436q.059.762.059,1.23a5.664,5.664,0,0,1-.278,1.8,3.79,3.79,0,0,1-1.069,1.567,3.588,3.588,0,0,1-2.607,1,5.487,5.487,0,0,1-2.095-.439,7.561,7.561,0,0,1-2.007-1.23A5.808,5.808,0,0,1,79.922,4.965Zm6.738,0a1.932,1.932,0,0,0-.146-.776.969.969,0,0,0-.41-.483,2.561,2.561,0,0,0-1.289-.352,1.667,1.667,0,0,0-1.377.674A2.2,2.2,0,0,0,83,5.434a2.147,2.147,0,0,0,.234,1.025,1.054,1.054,0,0,0,.645.557,5.146,5.146,0,0,0,1.611.205,3.083,3.083,0,0,0,.879-1.084A2.728,2.728,0,0,0,86.66,4.965ZM73.652,26.732l-1.26-.791a2.681,2.681,0,0,1-.234-1.436l.205-10.957-7.236.205a3.577,3.577,0,0,0-1.377-.381,1.813,1.813,0,0,1-.645-1.318,1.391,1.391,0,0,1,.029-.322,5.408,5.408,0,0,1,1.816-.469l7.5-.322.029-7.148,1.23-.41,1.143.762.264.879v5.859l5.859-.117a2.764,2.764,0,0,1,1.2-.469l2.168,1.318.088,1-.908.586-1.436.234L75,13.666l-.059,12.275-.645.645Zm-10.811-2.08-.322-.029a1.707,1.707,0,0,1-.762-1.377,2.8,2.8,0,0,1,1.025-1.934,12.941,12.941,0,0,0,2.373-2.783,8.235,8.235,0,0,0,.732-1.934L67,16.127l.82.322a1.722,1.722,0,0,1,.82,1.494,2.211,2.211,0,0,1-.029.41A20.073,20.073,0,0,1,67.266,21.2q-1,1.377-2.227,2.783A4.816,4.816,0,0,1,62.842,24.652Zm20.127-1.318a21.421,21.421,0,0,1-3.281-2.754,6.536,6.536,0,0,1-1.7-2.607l.234-.937A6.517,6.517,0,0,1,79.8,16.83q1.963,1.9,2.974,2.725a36.793,36.793,0,0,0,3.413,2.314,3.883,3.883,0,0,1,.205.938q0,.938-1.113.938a4.849,4.849,0,0,1-1-.146ZM95.83,17.006l-.381.029a3.067,3.067,0,0,1-2.021-.732,1.874,1.874,0,0,1-.381-1.172l.322-.469a6.016,6.016,0,0,1,2.227-.234l15.7-.146.879-.088a3.449,3.449,0,0,0,1.523.615l.059.645-.469.85a3.843,3.843,0,0,1-1.846.615Zm34.131,10.488-1.406-.615a2.8,2.8,0,0,1-.469-1.348l.381-1.113V20.961q0-8.643.176-17.373a.722.722,0,0,1,.732-.381,3.221,3.221,0,0,1,.938.176l1.348.967.029,8.877Q138.516,14.6,143.7,16.01l.879.322a1.965,1.965,0,0,1,.938.967,1.749,1.749,0,0,1-.7,1.436,4.047,4.047,0,0,1-1.846.234A56.371,56.371,0,0,0,131.66,16.3q.059,9.17-.908,10.635Zm34.248.029-.908-.205q-2.373,0-4.277-3.047a22.03,22.03,0,0,1-.615-5.244q0-1.025.088-2.08h-1.377a34.07,34.07,0,0,1-3.955-.146l-.85-.791-.264-.791,1-.762a13.783,13.783,0,0,1,2.4-.469h3.486q.088-1.611.41-4.658h-3.809a4.788,4.788,0,0,1-.908.059q-.557,0-.85-.029-1.172-.381-1.289-1.2a3.193,3.193,0,0,1,2.666-1.377l4.717-.059a21.475,21.475,0,0,1,1.025-3.75l.82-.234.791.176.557.439.322,1.553-.352,1.7,4.072-.146,1.846.176,1.143.645a.834.834,0,0,1,.5.7.78.78,0,0,1-.088.352l-.469.586a17.248,17.248,0,0,1-2.285.293l-5.391.205a23.235,23.235,0,0,0-.469,4.336,15.436,15.436,0,0,0,1.992.146,14.4,14.4,0,0,0,2.52-.234l1.523.234,1.143.85v.439l-.352.85-.527.117a36.467,36.467,0,0,1-6.68.645,36.18,36.18,0,0,0-.205,3.984,3.953,3.953,0,0,0,1.465,3.223,3.275,3.275,0,0,0,1.934.674,2.211,2.211,0,0,0,.41-.029,5.247,5.247,0,0,0,2.52-.967,9.251,9.251,0,0,0,2.153-2.08,10.144,10.144,0,0,0,1.392-2.461,26.343,26.343,0,0,1,1.494-3.164l.5-.117.469.264a8.092,8.092,0,0,1,.732,2.578,25.424,25.424,0,0,1-1.055,3.135,8.3,8.3,0,0,1-1.553,2.4A10.786,10.786,0,0,1,169.761,26a11.134,11.134,0,0,1-2.241,1.084,7.289,7.289,0,0,1-2.578.439ZM203.2,17.592l-.469-.234a12.913,12.913,0,0,1-1.523-1.172l-1.172-1.26-.146-.469-.967-.176-.381.088-.645-.088-.557.176-.293-.088a19.276,19.276,0,0,0-2.607.176,22.523,22.523,0,0,1-2.607.293l-.41-.088h-.469a18.648,18.648,0,0,0-3.4.791,2.777,2.777,0,0,1-1.963-.557l-.234-1.084.469-.732.469-.381q1.172-1.582,1.553-2.168a10.347,10.347,0,0,1,1.611-1.875l.879-.7.293-.615-.381.059-.937-.059q-1.553.293-2.461.381l-.791-.088-.322.088a5.755,5.755,0,0,1-2.432-.7l-.234-.791.381-.7a2.048,2.048,0,0,1,1.436-.41l1.172.176q1.582-.146,3.4-.5a28.63,28.63,0,0,1,3.164.176l.234-.41-.234-.937a6.96,6.96,0,0,1,.85-3.223l.791-.176.967.234a2.809,2.809,0,0,1,.732,1.934,3.484,3.484,0,0,1-.029.527L195.7,4.027l.322.85.469.176q3.252,0,6.943.234a7.822,7.822,0,0,1,1.9-.234l.381.469q.879.557.7,1.26l-.469.557-2.607.469-2.2-.234-.469.146-3.721-.234-.41.176a8.256,8.256,0,0,0-1.963-.176l-.322.176-.937,1.348-.557.527-.557-.059.234.322-1.172,1.641-.469.557a3.592,3.592,0,0,0,1.143.176,2.427,2.427,0,0,0,.439-.029l1.406-.293,3.311-.088a4.6,4.6,0,0,0,1.025-.234l-.029-.293a1.889,1.889,0,0,1,.674-1.436l1.113-.088.615.322a8.852,8.852,0,0,0,1.348,1.641,7.016,7.016,0,0,1,1.143,1.7,6.266,6.266,0,0,0,1.23,1.7l.381.322q.117.41.41,1.172l-.322.732a.908.908,0,0,1-.791.234ZM204.785,27.7l-.469.088a21.348,21.348,0,0,1-3.838-.6,15.526,15.526,0,0,1-3.369-1.3L196.084,24.8a6.4,6.4,0,0,1-1.025-2.842l.088-.967a2.664,2.664,0,0,1-.176-1,2.211,2.211,0,0,1,.029-.41l.059-.322a5.386,5.386,0,0,1,1.113-3.633,1.688,1.688,0,0,1,1.172-.234l.732.234a1.809,1.809,0,0,1,.645,1.436,2.009,2.009,0,0,1-.029.381q-.234,2.7-.322,4.014a3.181,3.181,0,0,0,.879,2.051l.41.322a19.854,19.854,0,0,0,2.52.967,21.387,21.387,0,0,1,3.164,0,1.618,1.618,0,0,0,.732.176,1.028,1.028,0,0,0,.293-.029l.7-.088,1.113.322a1.627,1.627,0,0,0,.938.791v.7a.9.9,0,0,1-.469.791,14.479,14.479,0,0,1-1.992.645A4.38,4.38,0,0,0,204.785,27.7ZM184.1,26.908l-.5-.469v-.557l.732-.791a2.116,2.116,0,0,0,1.494-.7,12.036,12.036,0,0,0,2.021-3.75q.557-1.7,1.523-3.9l.791-.557a2.294,2.294,0,0,1,1.582.381l.7,1.113-1.406,4.131a12.781,12.781,0,0,1-2.139,3.926l-.322.088-.557.791a4.843,4.843,0,0,1-2.051.762A4.583,4.583,0,0,1,184.1,26.908Zm29.619-16.172-.908-.527-.381-.381a4.628,4.628,0,0,1-.352-1.787V6.107l.352-1.816.85-.381a7.019,7.019,0,0,0,1.816.234l8.35-.381.088-2.373.791-.732h1.523l.469.381q.088.381.234,2.666l9.7.146a3.485,3.485,0,0,1,1.934.381l.41,1.113.205.967-.293.176a19.436,19.436,0,0,0-.82,2.988,2.681,2.681,0,0,1-1.289.732l-1-.82-.059-.439.205-2.344q-.5-.293-5.625-.293-2.7,0-6.709.088l-8.379.293-.117,2.842-.234.82-.381.381Zm.234,16.992a1.2,1.2,0,0,1-.234-.967q2.227-1.377,3.691-2.432a13.747,13.747,0,0,0,2.461-2.227,6.936,6.936,0,0,0,1.406-2.285,66.572,66.572,0,0,0-7.793.352,2.876,2.876,0,0,1-1.348-.527l-.088-.381-.205-.527.293-.381A15.887,15.887,0,0,1,217,17.621l1.406-.059,4.043-.176.352-1.729H216.65a2.621,2.621,0,0,1-1.2-.615,1.357,1.357,0,0,1-.205-.791,2.211,2.211,0,0,1,.029-.41q.967-.5,8-.732.059-1.172.117-1.787h-6.328l-1.289-.645-.322-1.26q1.436-.732,8.467-.7V7.426a1.417,1.417,0,0,1,1.143-.527,1.309,1.309,0,0,1,.791.234,2.069,2.069,0,0,1,.7,1.641l5.713-.088a8.227,8.227,0,0,1,1.611.615l.293.938-.469.85-.967.293a8.066,8.066,0,0,0-1.875-.146q-1.641,0-4.482.176a1.5,1.5,0,0,0-.293,1.025,3.65,3.65,0,0,0,.088.762l6.211.059,1.055,1.055-.146.557-.439.469-.7.293-6.27.029-.029,1.406q10.342.176,11.953.645l.234,1.055a3.227,3.227,0,0,1-.527.82,6.1,6.1,0,0,1-1.816.264l-9.258-.381q1.084,1.465,1.67,2.168a11.289,11.289,0,0,0,1.538,1.479,12.144,12.144,0,0,0,2.417,1.479,15.71,15.71,0,0,0,3.809,1.494L236.4,27.2a4.526,4.526,0,0,1-2.021.82q-1.348-.439-2.637-.791a12.041,12.041,0,0,1-3.823-1.86,14.6,14.6,0,0,1-3.823-3.97,20.542,20.542,0,0,1-3.6,4.2,11.167,11.167,0,0,1-3.193,2.007,10.723,10.723,0,0,1-2.285.557A4.157,4.157,0,0,0,213.955,27.729Zm35.713-1.113-.5-.5a2.833,2.833,0,0,1-1.377-1.318q-1.406-1.406-1.406-9.2,0-7.412.059-8.936a7.932,7.932,0,0,1,.381-2.109l.879-.527.967.117a7.048,7.048,0,0,1,1.025,1.23V6.547q-.117,1.172-.176,13.975a6.628,6.628,0,0,0,1.494,3.574,6.625,6.625,0,0,0,1.992.645,7.131,7.131,0,0,0,2.739-.864,18.821,18.821,0,0,0,2.5-1.655l.645-.439a1.517,1.517,0,0,1,1.406-.732,3.525,3.525,0,0,1,.527.059l.439.293.264,1.23a2.223,2.223,0,0,1-1.143,2.051,17.155,17.155,0,0,1-3.267,1.816,13.883,13.883,0,0,1-3.882.938A11.091,11.091,0,0,1,249.668,26.615ZM282.188,26a7.434,7.434,0,0,1-1.611-2.021,6.035,6.035,0,0,1-.762-2.2,15.372,15.372,0,0,1-.088-1.875l.029-1.611a9.815,9.815,0,0,1,1.6-3.662A19.534,19.534,0,0,1,285,11.146,97.309,97.309,0,0,0,274.922,12.2l-1.436.234-1.143-.85-.352-1.23.352-.469q.85-.234,5.259-.806t8.7-1.011a48.666,48.666,0,0,1,5.171-.381l.82.557a4.8,4.8,0,0,1,.5,1.436l-.586.762-.674.059q-1.377.7-2.446,1.348t-2.534,1.611a8.015,8.015,0,0,0-2.051,1.934,10.462,10.462,0,0,0-1.377,2.432,7.875,7.875,0,0,0-.41,2.373,5.781,5.781,0,0,0,1.143,3.4,7,7,0,0,0,3.516,1.436q2.227-.264,3.984-.352l.527.322a2.309,2.309,0,0,1,.234.908,1.672,1.672,0,0,1-.205.732l-.264.5a11.1,11.1,0,0,1-3.809.7,10.043,10.043,0,0,1-2.432-.322A10.28,10.28,0,0,1,282.188,26Zm23.584-.557a15.169,15.169,0,0,1-1.743-2.842,12.946,12.946,0,0,1-1.157-4.16,41.945,41.945,0,0,1-.381-5.215,12.654,12.654,0,0,1,.557-4.16l.527-.41a1.028,1.028,0,0,1,.791-.41,1.722,1.722,0,0,1,.791.293l.176.322a.986.986,0,0,1,.322.85,12.181,12.181,0,0,0-.352,3.369,36.336,36.336,0,0,0,.22,3.926,15.54,15.54,0,0,0,.542,2.988,11.517,11.517,0,0,0,1.289,2.842l2.49-3.428.527-.645a2.971,2.971,0,0,1,1.787-1.26l1.23.82.234.762a32.771,32.771,0,0,0-4.072,6.68q-.527.234-1.582.645A3.862,3.862,0,0,1,305.771,25.443Zm16-2.256-.176-.322-.557-.527q-.176-3.252-.176-6.5V14.516a15.27,15.27,0,0,0-.557-2.7,15.27,15.27,0,0,1-.557-2.7l.234-.352.938-.381,1.055.41.469.527.439,1.494a17.443,17.443,0,0,1,.762,3.765,45.867,45.867,0,0,1,.264,5.083q0,1.23-.029,1.846l.117,1.289a2.016,2.016,0,0,1-1.289.791ZM8.965,68.949a5.989,5.989,0,0,1,.527-2.285,4.865,4.865,0,0,1,1.743-1.348,4.8,4.8,0,0,1,1.978-.439,4.152,4.152,0,0,1,1.6.308A2.99,2.99,0,0,1,16,66.02a3.415,3.415,0,0,1,.645,2.256q0,.234-.059.879a4.282,4.282,0,0,0,1.538-1.611,4.389,4.389,0,0,0,.571-2.168A4.339,4.339,0,0,0,18.457,64,3.1,3.1,0,0,0,16.7,62.343a7.51,7.51,0,0,0-3.223-.659A8.826,8.826,0,0,0,10.2,62.3l-2.637.967-.615-1.113-.117-.762a2.394,2.394,0,0,1,.5-1.055l.5-.381L17.139,52.1l-8.35.938A7.851,7.851,0,0,1,8,53.1a4.511,4.511,0,0,1-1.436-.234L5.537,51.723l-.264-.82.264-.234.82-.381q1.113-.264,13.184-1.055l1.641.615a1.4,1.4,0,0,1,.176.732,4.255,4.255,0,0,1-.615,1.9q0,.469-6.68,6.152a10.677,10.677,0,0,1,4.98,1.641,6.36,6.36,0,0,1,2.373,2.9,5.49,5.49,0,0,1,.322,1.9,8.117,8.117,0,0,1-1.729,4.893,7.344,7.344,0,0,1-2.856,2.271,7.619,7.619,0,0,1-2.944.659,17.167,17.167,0,0,1-2.2-.176A4.961,4.961,0,0,1,9.8,71.293,3.463,3.463,0,0,1,8.965,68.949Zm5.625.117a1.494,1.494,0,0,0-1.465-1.611,1.639,1.639,0,0,0-1.494,1.875,2.336,2.336,0,0,0,1.758.732A2.949,2.949,0,0,0,14.063,70Zm34.072,1,.176-.85.908-.791a5.663,5.663,0,0,0,1.494-2.607,11.634,11.634,0,0,0,.5-3.34,8.806,8.806,0,0,0-1.26-4.8,6.5,6.5,0,0,0-2.959-2.4l-1.992-.322q-1.025,4.922-1.479,6.8a29.236,29.236,0,0,1-.923,3.149q-.469,1.274-1.641,3.911l-.322.762a1.973,1.973,0,0,1-1.787,1.2,5.972,5.972,0,0,1-2.109-.586,8.935,8.935,0,0,1-2.021-1.406A9.152,9.152,0,0,1,33.6,66.151a14.484,14.484,0,0,1-.85-4.146,15.381,15.381,0,0,1,.762-4.058,8.75,8.75,0,0,1,2.021-2.974,8.194,8.194,0,0,1,3.281-2.095,17.682,17.682,0,0,1,4.248-.864l.176-.469.381-.146a3.484,3.484,0,0,1,2.2.586l.674.322a12.317,12.317,0,0,1,4.175,1.86,7.969,7.969,0,0,1,2.856,3.179,12.661,12.661,0,0,1,1.084,5.215,18.029,18.029,0,0,1-.234,2.783,8.071,8.071,0,0,1-1.729,3.691A5.5,5.5,0,0,1,50.039,71,1.708,1.708,0,0,1,48.662,70.063Zm-5.947-15.41a7.243,7.243,0,0,0-4.658,1.67,7.493,7.493,0,0,0-2.314,4.248,11.1,11.1,0,0,0-.146,1.7,6.726,6.726,0,0,0,.776,3.252,5.186,5.186,0,0,0,2.476,2.227A37.441,37.441,0,0,0,42.715,54.652ZM84.9,52.279l-2.314-2.051a1.521,1.521,0,0,1-.469-1.113l.469-.557,1.289-.176,1.67.879a7.9,7.9,0,0,1,1.436,2.227,1.82,1.82,0,0,1,.029.352q0,.586-.439.645a.49.49,0,0,1-.469.293,1.6,1.6,0,0,1-.645-.176ZM78.428,53.3l-.645-.791a2.469,2.469,0,0,1-.059-.41,1.971,1.971,0,0,1,.146-.7,1.574,1.574,0,0,1,1.113-.234,7.5,7.5,0,0,1,4.16,3.545l.088.732-.732.322a1.875,1.875,0,0,1-.645.117,1.2,1.2,0,0,1-.7-.205A15.7,15.7,0,0,1,78.428,53.3ZM69.316,70.648l-.439-.762-.264-1.172.205-.732a1.562,1.562,0,0,0,.352.029,1.257,1.257,0,0,0,.879-.293,15.023,15.023,0,0,0,1.7-6.387,7.81,7.81,0,0,0-.029-.791,1.381,1.381,0,0,0-.439-.425,1.118,1.118,0,0,0-.557-.132,1.391,1.391,0,0,0-.322.029l-1.611.088q-1,2.461-1.377,3.721-.732,2.2-1.26,3.662l-.967,1.67a4.072,4.072,0,0,1-1.23.176,3.224,3.224,0,0,1-.5-.029l-.527-.439-.352-1.23a37.041,37.041,0,0,0,1.641-3.516q.586-1.494,1.2-3.574-1.289.117-1.787.117A5,5,0,0,1,61,60.1a3.224,3.224,0,0,1-.029-.5q0-1.377,1.113-1.553l.967-.059q2.813-.117,3.164-.146A21.286,21.286,0,0,1,68,53.334a1.512,1.512,0,0,1,1.084-.557,1.151,1.151,0,0,1,.908.454,1.784,1.784,0,0,1,.381,1.187l-.029.322-.732,2.7q1.26.117,2.432.176a3.239,3.239,0,0,1,2.051.879,8.049,8.049,0,0,1,.615,3.252,11.236,11.236,0,0,1-.557,3.4q-.645,1.9-1.582,4.072l-.439.674a1.656,1.656,0,0,1-.454,1.025,1.691,1.691,0,0,1-1.011.5A2.756,2.756,0,0,1,69.316,70.648Zm16.377-6.035-1.2-.469a8.029,8.029,0,0,1-1.9-1.113l-2.93-2.285A17.662,17.662,0,0,1,77.08,58.52l-.41-.469-.322-.645.5-.791.879-.117q.85-.029,4.043,2.373a31.654,31.654,0,0,0,3.779,2.666l.879.7.146.469.146.5-.381,1.025-.322.146ZM99.229,72.23l-.088-.41a9.554,9.554,0,0,0,2.944-2.959,17.585,17.585,0,0,0,1.743-3.779,30.13,30.13,0,0,0,.82-3.223l-.322-.176-3.428.322a4.477,4.477,0,0,1-1.523-.937l-.059-.791a7.934,7.934,0,0,1,2.959-.908,22.434,22.434,0,0,0,3.076-.439,11.322,11.322,0,0,0,.879-3.955l-.557-.176a2.516,2.516,0,0,1-1.025.234l-.41-.059-1.113.146-1.025-.557-.41-1.113.234-.322q1.641-.41,4.453-1.025l.41-1.963-.088-.322.088-.322-.088-.937.557-1.025a.9.9,0,0,1,.674-.381.964.964,0,0,1,.293.059l.967.381.381.879-.088.645a9.808,9.808,0,0,0,.41,2.754l1.582.176.41-.176.381.088.557-.234.322.059,1.436.41.645.557.146.469-.293,1.67.059.557a12.943,12.943,0,0,0-.322,2.842,1.388,1.388,0,0,0,.674.176,1.028,1.028,0,0,0,.293-.029,15.732,15.732,0,0,0,2.461-.293l.879.293.234.322.41.234.146.732-.322.7-1.816.557-.469-.146a12.354,12.354,0,0,0-2.168.293l-2.461.322-1.67-.234-1.816.322-.088.322.879.791.146.557.322.146.967,1.582q.879,1.025,1.67,1.816l.615.322.322.469,1.055.645.791.7A5.459,5.459,0,0,0,119,70.15a9.258,9.258,0,0,1,3.311.967,1.688,1.688,0,0,1,.234,1.172,3.413,3.413,0,0,1-1.436.322l-.645-.088a14.281,14.281,0,0,1-3.413-.366,7.593,7.593,0,0,1-2.71-1.274l-1.67-1.113-.146-.322-.82-.41-.146-.381a19.547,19.547,0,0,1-3.428-3.721l-.146-.557h-.41q-.059.264-.322,1.113a9.017,9.017,0,0,0-.937,2.139,12.481,12.481,0,0,1-.791,2.139l-.322.234a3.515,3.515,0,0,1-.732,1.172,4.557,4.557,0,0,0-1.494,1.289,6.83,6.83,0,0,1-2.168.615A5.639,5.639,0,0,1,99.229,72.23ZM94.219,50.7a2.807,2.807,0,0,1-.732-1.582,2.982,2.982,0,0,1,1.436-.381,3.587,3.587,0,0,1,.557.059,7.042,7.042,0,0,1,3.105,2.93l.5.322a1.812,1.812,0,0,1,.234,1.172,2.059,2.059,0,0,1-1.523.557Q95.83,52.191,94.219,50.7Zm16.934,7.822a11.017,11.017,0,0,0,.732-3.545l-.176-.41-1.348-.088-.381.088a8.94,8.94,0,0,0-.718,1.875,12.326,12.326,0,0,0-.337,2.168ZM96.123,59.867a17.037,17.037,0,0,1-5.1-1.26,1.519,1.519,0,0,0-.879-.791l-.059-.645a2.562,2.562,0,0,1,1.816-.557,19.043,19.043,0,0,0,2.549.791,7.023,7.023,0,0,1,2.4,1.113l-.264,1.113Zm-3.9,14.561-1.2-.7a.946.946,0,0,1-.381-.791l1.26-2.139.322-.234a18.037,18.037,0,0,1,1.025-1.67l.557-.645a14.9,14.9,0,0,1,2.4-2.432l1.67-.234.322,1.172a10.451,10.451,0,0,1-2.08,3.633,14.959,14.959,0,0,0-2.314,3.574,6.054,6.054,0,0,1-1.26.469Zm45-3.9a4.707,4.707,0,0,1,.938-1.289l1.465-.557,1.582-1.553a7.136,7.136,0,0,0,1.436-3.223,5.746,5.746,0,0,0-.571-2.256,7.56,7.56,0,0,0-1.567-2.08,4.048,4.048,0,0,0-2.549-1.2l-1.2,2.344q-1.641,3.223-1.816,3.545-.674,1.26-1.055,2.051l1.582,2.959.176,1.172-.439.938a1.214,1.214,0,0,1-.732.234,1.4,1.4,0,0,1-.879-.322,9.631,9.631,0,0,1-1.816-2.959,9.79,9.79,0,0,1-2.871,2.93,5.285,5.285,0,0,1-2.52.762,3.011,3.011,0,0,1-1.787-.586l-1.377-1.172a10.149,10.149,0,0,1-.7-3.691l.029-.645a18.3,18.3,0,0,1,.542-2.461,10.682,10.682,0,0,1,1.084-2.285,18.389,18.389,0,0,1,2.271-2.9L124.1,52.748a2.958,2.958,0,0,1,.908-2.109l.732-.264,1.025.557.352.732,1.816,4.775a18.443,18.443,0,0,1,3-1.055,12.1,12.1,0,0,1,2.769-.293l.879.029a16.148,16.148,0,0,0,1.025-2.227,23,23,0,0,1,.879-2.285,4.993,4.993,0,0,1,1.289-2.109,3.859,3.859,0,0,1,.527-.029q.908,0,1.113.352a2.015,2.015,0,0,1,.674,1.787,10.607,10.607,0,0,1-1.025,2.578,22.329,22.329,0,0,0-1.113,2.373,8.366,8.366,0,0,1,3.12,1.406,8.148,8.148,0,0,1,2.4,2.71,7.48,7.48,0,0,1,.923,3.706,7.81,7.81,0,0,1-.029.791,6.7,6.7,0,0,1-1.23,3.984,8.493,8.493,0,0,1-4.951,3.721A1.9,1.9,0,0,1,137.227,70.531Zm-2.549-12.773a4.471,4.471,0,0,0-.879-.088,7.912,7.912,0,0,0-3.721,1.143q.5,1.348,1.9,4.746A34.936,34.936,0,0,0,134.678,57.758Zm-4.658,8.613a32.072,32.072,0,0,1-2.49-5.361,9.733,9.733,0,0,0-2.314,6.855q.557,1.582,1.523,1.67A15.642,15.642,0,0,0,130.02,66.371Zm32.051,8a5.11,5.11,0,0,0-1.523-1,20.414,20.414,0,0,1-3.838-2.7l-.322-1.084.469-.85a1.267,1.267,0,0,1,.967-.234,13.678,13.678,0,0,1,1.9,1.084l2.461,1.67a17.478,17.478,0,0,0,1.655-3.6,22.589,22.589,0,0,0,.688-4.336l-.791-.029q-.908.029-6.5,1.025a13.534,13.534,0,0,1-1.9.234,2.911,2.911,0,0,1-1.992-1.348v-.5l.469-.615a29.293,29.293,0,0,1,4.292-.923q3-.483,6.606-.894.029-.264.029-.82a14.323,14.323,0,0,0-.234-2.432,14.888,14.888,0,0,0-3.4.278q-2.109.366-4.746.923l-.762.146a3.476,3.476,0,0,1-1.348-.469l-.645-1.23.645-.615a25.384,25.384,0,0,1,3.911-.879q2.534-.41,6.021-.908a6.652,6.652,0,0,0-.527-2.783l-1.377.322q-2.168.527-3.237.82t-2.183.674l-.937-.322a3.352,3.352,0,0,1-.85-1.758l.146-.293q1.816-.469,6.738-1.875,3.75-1.084,7.617-1.846a6.612,6.612,0,0,1,2.314-.381,4.009,4.009,0,0,1,1.113.7l.41,1.055-.234.41a12.506,12.506,0,0,0-2.49.527q-.879.293-3.9.938.293,1.641.41,2.432l.146.938q2.783-.264,7.881-.5l.732.381.791.908v.557l-.7.762q-5.186.234-8.437.645a16.739,16.739,0,0,1,.205,3.428l7.207-.176a7.711,7.711,0,0,1,2.256.439l.469.469.322.146.234,1.084-.557.7-.791.146q-3.164-.117-4.57-.117-2.139,0-4.629.146a22.016,22.016,0,0,1-.117,2.227,21.32,21.32,0,0,1-1.025,4.336A20.143,20.143,0,0,1,164.5,73.9q-.176.645-1.436.85Zm29.912-3.75a4.452,4.452,0,0,1-1.465-1.816,10,10,0,0,1-.894-1.978,8.8,8.8,0,0,1-.249-2.388q0-.85.029-1.348a14.382,14.382,0,0,1,.952-2.725,9.956,9.956,0,0,1,1.494-2.2,23.692,23.692,0,0,1,2.651-2.49,93.963,93.963,0,0,0-10.049,1.289l-1.436.264-1.172-.85-.322-1.2.322-.5q.879-.234,5.317-.908t8.672-1.187a43.138,43.138,0,0,1,5.112-.454l.791.527a4.135,4.135,0,0,1,.527,1.436l-.557.762-.674.088q-1.377.7-2.446,1.377t-2.476,1.67a10.339,10.339,0,0,0-3.34,4.541,6.268,6.268,0,0,0-.469,2.4,4.429,4.429,0,0,0,.029.586,6.288,6.288,0,0,0,1.436,2.666,5.855,5.855,0,0,0,3.4,1.23q1.934-.176,3.955-.293l.557.293a1.85,1.85,0,0,1,.264.908,1.672,1.672,0,0,1-.205.732l-.234.5a11.619,11.619,0,0,1-4.014.674,14.255,14.255,0,0,1-2.227-.176A11.374,11.374,0,0,1,191.982,70.619Zm13.3-8.262a2.991,2.991,0,0,1-2.021-1.113L202.148,59.9a1.886,1.886,0,0,1-.527-1.289,3.516,3.516,0,0,1,.059-.5l.41-.352,1.465-.176.615.352a9.236,9.236,0,0,0,1.26,1.465,2.712,2.712,0,0,1,.85,1.348l.059.7-.322.557Zm-6.24.938-.527-.645-1.2-1.289-.293-.967.293-1.055,1.406-.117,1.172.791Q200.83,61.6,201.3,61.6a4.428,4.428,0,0,1,.381,2.051,3.661,3.661,0,0,1-1.436.381A5.815,5.815,0,0,0,199.043,63.295Zm22.09,8.73a1.174,1.174,0,0,1,.85-1.406,7.583,7.583,0,0,0,2.432-1.729l.645-.937a9.53,9.53,0,0,1-1.289.088,8.008,8.008,0,0,1-2.49-.381,6.679,6.679,0,0,1-2.139-2.109,4.56,4.56,0,0,1-.674-2.344,8.308,8.308,0,0,1,.366-2.373,5.456,5.456,0,0,1,1.011-1.992,6.121,6.121,0,0,1,1.362-1.23,4.293,4.293,0,0,1,1.655-.557,5.051,5.051,0,0,1,.645-.029,10.215,10.215,0,0,1,2.08.264l-.176-2.051q-10.547.5-11.748.5a2.462,2.462,0,0,1-1.465-.7l-.41-.41-.029-.791.176-.322a15,15,0,0,1,3.4-.439l.762.176,9.2-.557-.205-4.365.527-1.055,1.113-.234a.82.82,0,0,1,.82.469,7.258,7.258,0,0,1,.645,1.67l.469,3.34,6.24-.264,1.23-.5.7.234,1.084.469.234.645-.293,1.494-2.285.322-6.885.381.117,4.541q.029.762.029,2.139a29.218,29.218,0,0,1-.161,3.281,12.6,12.6,0,0,1-.542,2.549,8.763,8.763,0,0,1-1.611,2.842,7.434,7.434,0,0,1-1.846,1.436,3.178,3.178,0,0,1-2.139.967Q221.191,72.758,221.133,72.025Zm3.867-6.8a6.142,6.142,0,0,0,.645-2.666,7.87,7.87,0,0,0-.293-2.051,1.162,1.162,0,0,0-1.23-.908,2.778,2.778,0,0,0-.674.088q-2.051.7-2.051,3.4,0,1.465,2.461,2.285Zm29.883.146-1.377-1.318a12.031,12.031,0,0,0-2.549-2.139,5.173,5.173,0,0,0-2.7-.732,4.138,4.138,0,0,0-.557.029l-1.67.615-2.432,2.7h-.381a3.057,3.057,0,0,1-1.289-1.084v-.381a17,17,0,0,0,.879-1.787l.645-.439.146-.322a8.752,8.752,0,0,1,5.654-1.523,24.855,24.855,0,0,1,3.779.908,47.161,47.161,0,0,1,4.248,3.779,4.178,4.178,0,0,0,2.021.615,8.142,8.142,0,0,0,4.8-3.691,1.931,1.931,0,0,0,.5-1.553l.469-.059,1.553.205a1.694,1.694,0,0,1,.7,1.23,6.4,6.4,0,0,1-.923,1.89,17.559,17.559,0,0,1-1.567,1.89l-.645.322-.879.85a8.069,8.069,0,0,1-2.183.908,20.478,20.478,0,0,1-2.8.469A5.666,5.666,0,0,1,254.883,65.375Z" transform="translate(-1.934 -0.307)" fill="#0052a5"/>
</svg>
