<svg xmlns="http://www.w3.org/2000/svg" width="216.709" height="71.462" viewBox="0 0 216.709 71.462">
  <path id="Path_235" data-name="Path 235" d="M-36.09-44.7c-17.4,0-46.02,48.54-53.28,48.54-1.14,0-1.86-.9-1.86-2.22,0-10.44,20.28-30.18,20.28-38.4,0-2.88-1.5-5.22-6.18-5.22-10.14,0-25.14,10.2-25.14,21.66,0,6.78,5.64,8.34,6.06,8.34s.6-.18.6-.42c0-.36-2.64-1.2-2.64-6.3,0-11.82,12.42-22.26,22.02-22.26,2.52,0,3.84,1.32,3.84,3.42,0,7.92-22.02,23.52-22.02,36.36,0,3.72,2.46,6,5.1,6,8.22,0,37.02-46.02,54.18-46.02,3.42,0,4.56,1.92,4.92,1.92.18,0,.3-.18.3-.54C-29.91-41.4-31.65-44.7-36.09-44.7Zm-12.6,32.76c0-2.34-1.2-3.48-3.66-3.48-5.04,0-13.2,7.56-13.2,12.36A3.909,3.909,0,0,0-61.29,1.2a10.28,10.28,0,0,0,5.76-2.34C-54.75-.18-53.25.3-50.97.3c3.66,0,9.54-2.7,14.28-7.08.42-.42.48-1.14-.36-.42C-41.91-2.7-47.01-.54-50.37-.54c-2.04,0-3.18-.96-3.18-1.92a1.158,1.158,0,0,1,.18-.6C-50.67-5.82-48.69-9.42-48.69-11.94Zm-1.14-.24c0,1.92-1.08,4.2-2.58,6.3a1.014,1.014,0,0,0-.6-.18,3.641,3.641,0,0,0-3,3.24,2.25,2.25,0,0,0,.06.66A7.14,7.14,0,0,1-60.03-.24c-1.26,0-1.92-.72-1.92-2.1,0-4.2,6.48-11.82,10.38-11.82C-50.43-14.16-49.83-13.44-49.83-12.18Zm29.1-10.2a3.87,3.87,0,0,0-2.7,2.94,1.426,1.426,0,0,0,1.38,1.5c1.14,0,2.7-2.1,2.7-3.18A1.232,1.232,0,0,0-20.73-22.38ZM-37.05-7.2c-.42.42-.48,1.14.36.42,5.52-5.1,7.92-6.66,8.82-6.66a.476.476,0,0,1,.54.54c0,1.92-6.48,6.66-6.48,10.32,0,2.1,1.5,3.12,3.84,3.12,4.14,0,9.84-3.66,13.92-7.32.42-.42.48-1.14-.36-.42C-20.43-3.48-25.59-.72-28.47-.72c-1.32,0-2.04-.54-2.04-1.68,0-3.3,5.4-7.32,5.4-10.02a1.864,1.864,0,0,0-2.1-1.98C-28.83-14.4-31.53-12.24-37.05-7.2Zm21.72,5.7c0-4.68,7.2-11.88,11.46-11.88.9,0,1.32.36,1.32,1.02,0,1.32-1.2,3.06-3.18,4.08a.4.4,0,0,0-.24.3c0,.18.18.3.42.3a5.791,5.791,0,0,0,3.3-1.68,4.017,4.017,0,0,0,1.2-2.76c0-1.5-1.14-2.46-3.18-2.46-5.1,0-14.76,7.08-14.76,13.08,0,2.7,2.16,4.26,4.92,4.26,6.12,0,13.98-5.28,18.66-9.54.42-.42.48-1.14-.36-.42C-.33-3.06-7.35,1.26-11.91,1.26-14.13,1.26-15.33.36-15.33-1.5ZM9.45-.18c6.12,0,12.66-4.62,12.66-6a.283.283,0,0,0-.3-.3c-1.2,0-4.74,4.8-10.44,4.8-2.82,0-4.08-1.26-4.08-3.06a5.681,5.681,0,0,1,.24-1.68c7.68-1.62,11.46-4.44,11.46-7.26,0-1.38-.9-2.16-2.7-2.16-4.32,0-12.48,5.82-12.48,10.8C3.81-1.92,6.03-.18,9.45-.18Zm8.16-13.68c0,2.22-4.74,5.46-9.78,6.72,1.5-3.66,5.94-7.56,8.82-7.56C17.37-14.7,17.61-14.4,17.61-13.86ZM85.89-28.5c0-4.68-2.52-6.96-6.12-6.96a11.37,11.37,0,0,0-7.5,3.18c-.24.24-.36.42-.36.6a.283.283,0,0,0,.3.3c.18,0,.36-.12.78-.42a9.878,9.878,0,0,1,5.64-2.1c2.76,0,4.38,1.68,4.38,5.16C83.01-16.56,67.95-1.5,57.63-1.5c-3.6,0-5.94-2.04-5.94-6.48,0-10.14,11.58-23.76,23.58-27.84.66-.24.84-.42.84-.66,0-.18-.18-.3-.48-.3a4.33,4.33,0,0,0-1.5.3C62.25-32.94,47.49-19.44,47.49-8.1c0,5.7,3.84,8.58,8.88,8.58C69.15.48,85.89-16.02,85.89-28.5Zm20.64-4.2c-7.44,8.52-21.3,24.78-21.3,30.42,0,1.98,1.32,3,2.34,3,.54,0,.42-.66.78-2.1,1.92-7.68,13.8-22.26,20.16-30.12,1.74-2.16,1.92-2.7,1.92-3.48a1.494,1.494,0,0,0-1.2-1.44c-.6,0-1.86,1.44-4.5,3.6a57.52,57.52,0,0,1-12.9,7.62c-.48.18-.6.42-.6.54,0,.42.6.84,1.44.84,1.68,0,6.36-2.94,13.68-9Z" transform="matrix(0.995, -0.105, 0.105, 0.995, 106.382, 55.998)" fill="#0052a5"/>
</svg>
