<svg xmlns="http://www.w3.org/2000/svg" width="326.549" height="238.476" viewBox="0 0 326.549 238.476">
  <g id="Group_204" data-name="Group 204" transform="translate(-797 -436.73)">
    <g id="Group_6" data-name="Group 6" transform="translate(797 629.775)">
      <path id="Path_18" data-name="Path 18" d="M212.594,18.761a80.608,80.608,0,0,0-16.181-5.151l-1.722,4.219a49.44,49.44,0,0,1,14.6,8.6Z" transform="translate(-59.693 -13.61)" fill="#fff"/>
      <path id="Path_19" data-name="Path 19" d="M209.3,26.952a77.142,77.142,0,0,0-15.755-5.562l-1.517,4.282c4.093,1.58,10.319,4.93,14.174,8.96l3.1-7.68Z" transform="translate(-61.237 -9.096)" fill="#fff"/>
      <path id="Path_20" data-name="Path 20" d="M193.09,45.955l2.37,8.976c20.7-2.718,32.363-9.228,40.485-33.184l-4.472-2.5C224.331,42.621,207.723,45.624,193.09,45.955Z" transform="translate(-60.622 -10.338)" fill="#fff"/>
      <path id="Path_21" data-name="Path 21" d="M117.509,33.236V31.829H120.5V29.4h-2.987V23.47H113.4V29.4h-3.682v2.434h3.634c-.3,1.3-1.675,6.953-4.093,10.192l1.09,3.255a54.663,54.663,0,0,0,3.066-5.878V52.372h4.109V39.351a24.023,24.023,0,0,0,1.533,2.781l2.023-2.513a22.282,22.282,0,0,1-3.555-6.384Z" transform="translate(-109.26 -7.889)" fill="#fff"/>
      <path id="Path_22" data-name="Path 22" d="M128.015,38.156H134.3V35.722H128.11V30.982h5.42V28.548h-5.42V23.46h-4.456v5.088h-1.88a27.187,27.187,0,0,0,1.011-4.109l-4.124-.363a15.955,15.955,0,0,1-2.576,9.323l2.291,1.406a13.8,13.8,0,0,0,2.465-3.824h2.813v4.741h-7.1v2.434h6.115A24.65,24.65,0,0,1,115.8,48l1.327,1.628a27,27,0,0,0,6.542-6.984v9.7h4.456V42.454a26.678,26.678,0,0,0,5.2,7.158l1.549-3.192c-4.077-3.413-6.289-6.779-6.858-8.28Z" transform="translate(-105.465 -7.895)" fill="#fff"/>
      <path id="Path_23" data-name="Path 23" d="M180.128,39.272a21.919,21.919,0,0,1-3.9-3.824,35.764,35.764,0,0,0,3.066-5.215V27.689h-3.113V23.47h-4.63v4.219h-3.84V30.2h6.684a20.414,20.414,0,0,1-7.222,9.086l1.154,3.113a33.547,33.547,0,0,0,3.224-2.449V52.435h4.63V38.8a16.668,16.668,0,0,0,2.56,2.939l1.391-2.434Z" transform="translate(-75.661 -7.889)" fill="#fff"/>
      <path id="Path_24" data-name="Path 24" d="M185.921,33.682h5.926V31.059h-5.926V23.49h-4.756v7.569h-5.483v2.623h5.483V48.931H174.18v2.607h18.109V48.931h-6.368Z" transform="translate(-71.593 -7.878)" fill="#fff"/>
      <path id="Path_25" data-name="Path 25" d="M138.984,33.654h4.693V31.22H129.3v2.434h4.978V43.83l-5.325.837.348,2.465,16.782-2.718V41.981l-7.1,1.106Z" transform="translate(-97.836 -3.393)" fill="#fff"/>
      <path id="Path_26" data-name="Path 26" d="M154.047,48.954c-3.808-2.133-4.8-11.172-5.025-17.888h8.6V28.633h-8.644c-.016-3.05.095-5.183.095-5.183h-4.883s-.095,2.117-.047,5.183H128.89v2.434H144.2c.348,8.6,2.038,21.4,8.912,21.4,4.867,0,5.72-8.5,5.72-8.5l-3.761.111s-.032,5.483-1.043,4.9Z" transform="translate(-97.871 -7.901)" fill="#fff"/>
      <path id="Path_27" data-name="Path 27" d="M145.621,28.665l2.829-1.043c-.111-1.454-2.354-4.282-2.354-4.282l-3.935,1.58A11.546,11.546,0,0,1,145.621,28.665Z" transform="translate(-90.171 -7.965)" fill="#fff"/>
      <path id="Path_28" data-name="Path 28" d="M165.652,23.346h-5.641s-4.851,7.316-11.931,9.86l1.248,2.434a15.832,15.832,0,0,0,5.325-2.465v1.454h16.355V33.507a20.468,20.468,0,0,0,5.088,2.181l1.169-2.75c-9.181-4.109-11.63-9.608-11.63-9.608Zm-9.608,8.833a47.312,47.312,0,0,0,6.684-6.258,25.932,25.932,0,0,0,6.226,6.258Z" transform="translate(-86.737 -7.97)" fill="#fff"/>
      <path id="Path_29" data-name="Path 29" d="M168.531,36.487l-2.576,1.391a33.242,33.242,0,0,1,3.318,4.44l-13.827,1.154a61.652,61.652,0,0,0,5.7-8.454h14.965V32.71h-27.5v2.307h7.174c-.427,1.549-1.849,6.463-3.145,8.691l-3.54.3.4,2.465,21.08-1.991c.458.806.917,1.659,1.359,2.592l4.219-2.1c-2.133-4.251-7.632-8.5-7.632-8.5Z" transform="translate(-86.423 -2.528)" fill="#fff"/>
      <path id="Path_30" data-name="Path 30" d="M283.69,20.234h15.486v-4.8H259.623v4.8H274.9v29.25H257v4.662h44.751V49.483H283.69Z" transform="translate(-23.541 -12.554)" fill="#fff"/>
      <path id="Path_31" data-name="Path 31" d="M289.2,15.57v4.346h32.046s1.185,28.428-25.615,33.99l1.3,4c5.673-1,17.54-3.318,25.789-14.538,7.079-9.7,8.438-21.981,8.691-27.78H289.2Z" transform="translate(-4.859 -12.473)" fill="#fff"/>
      <rect id="Rectangle_26" data-name="Rectangle 26" width="46.332" height="5.167" transform="translate(181.723 18.978)" fill="#fff"/>
    </g>
    <g id="レイヤー_1" data-name="レイヤー 1" transform="translate(835 436.73)">
      <path id="Path_15" data-name="Path 15" d="M116.338,29.025A18.9,18.9,0,1,1,97.439,10.1,18.9,18.9,0,0,1,116.338,29.025Z" transform="translate(127.901 16.467)" fill="#fff"/>
      <path id="Path_16" data-name="Path 16" d="M62.82,104.553C25.6,84.786,29.018,44.281,67.814,8.98A205.02,205.02,0,0,0,48.1,21.1c-54.226,37.877-64.083,86.715-22,109.083,42.109,22.369,120.175,9.778,174.428-28.1a167.928,167.928,0,0,0,17.006-13.537c-52.15,28.2-117.494,35.774-154.714,15.981Z" transform="translate(-0.001 14.643)" fill="#fff"/>
      <path id="Path_17" data-name="Path 17" d="M76.2,74.057C60.478,34.945,89.181,6.189,141.567,4.165A200.564,200.564,0,0,0,118.673.721c-65.844-5.94-104.851,25.1-87.056,69.314,17.769,44.212,85.611,84.875,151.507,90.841a170.519,170.519,0,0,0,21.738.6C146.824,149.469,91.941,113.169,76.2,74.057Z" transform="translate(44.477 0.007)" fill="#fff"/>
    </g>
  </g>
</svg>
