<svg xmlns="http://www.w3.org/2000/svg" width="73.12" height="480" viewBox="0 0 73.12 480">
  <path id="Path_944" data-name="Path 944" d="M25.04.96A45.688,45.688,0,0,1,12.16-.84,30.136,30.136,0,0,1,2.24-5.52l4.4-9.76a32.146,32.146,0,0,0,8.52,4.2,31.311,31.311,0,0,0,9.96,1.64,20.744,20.744,0,0,0,6.2-.76,7.259,7.259,0,0,0,3.48-2.12,4.769,4.769,0,0,0,1.12-3.12A4.22,4.22,0,0,0,34.16-19a14.451,14.451,0,0,0-4.64-2.16q-2.88-.84-6.36-1.6T16.2-24.64a29.437,29.437,0,0,1-6.36-2.88,14.153,14.153,0,0,1-4.68-4.64,13.68,13.68,0,0,1-1.8-7.36,15.625,15.625,0,0,1,2.6-8.76A17.786,17.786,0,0,1,13.8-54.6a32.1,32.1,0,0,1,13.16-2.36,44.028,44.028,0,0,1,10.4,1.24A29.969,29.969,0,0,1,46.4-52l-4,9.84a34.041,34.041,0,0,0-7.84-3.32,28.839,28.839,0,0,0-7.68-1.08,18.164,18.164,0,0,0-6.16.88,7.263,7.263,0,0,0-3.44,2.28,5.287,5.287,0,0,0-1.04,3.24A4.144,4.144,0,0,0,18-36.68a13.9,13.9,0,0,0,4.64,2.12q2.88.8,6.36,1.6t6.96,1.84a26.91,26.91,0,0,1,6.36,2.8A14.153,14.153,0,0,1,47-23.68a13.515,13.515,0,0,1,1.8,7.28,15.139,15.139,0,0,1-2.64,8.64,18.442,18.442,0,0,1-7.88,6.32A31.855,31.855,0,0,1,25.04.96ZM82.24.64a18.429,18.429,0,0,1-9.52-2.4,15.968,15.968,0,0,1-6.36-7.32,29.628,29.628,0,0,1-2.28-12.44A31.013,31.013,0,0,1,66.24-34a15.333,15.333,0,0,1,6.24-7.28,18.916,18.916,0,0,1,9.76-2.4,21.649,21.649,0,0,1,10.92,2.76,20.337,20.337,0,0,1,7.68,7.72,23.107,23.107,0,0,1,2.84,11.68,23.274,23.274,0,0,1-2.84,11.76,20.047,20.047,0,0,1-7.68,7.68A21.9,21.9,0,0,1,82.24.64ZM56.8,15.52V-43.04H68.72v8.8l-.24,12.8.8,12.72V15.52ZM80.08-9.6a10.731,10.731,0,0,0,5.56-1.44,10.62,10.62,0,0,0,3.92-4.12,12.96,12.96,0,0,0,1.48-6.36,12.9,12.9,0,0,0-1.48-6.4A10.693,10.693,0,0,0,85.64-32a10.731,10.731,0,0,0-5.56-1.44A10.946,10.946,0,0,0,74.48-32a10.318,10.318,0,0,0-3.92,4.08,13.2,13.2,0,0,0-1.44,6.4,13.253,13.253,0,0,0,1.44,6.36,10.254,10.254,0,0,0,3.92,4.12A10.946,10.946,0,0,0,80.08-9.6ZM132.48.64a25.219,25.219,0,0,1-12.2-2.88,21.927,21.927,0,0,1-8.4-7.88,21.291,21.291,0,0,1-3.08-11.4A21.439,21.439,0,0,1,111.88-33a21.631,21.631,0,0,1,8.4-7.84,25.507,25.507,0,0,1,12.2-2.84,25.571,25.571,0,0,1,12.16,2.84,21.365,21.365,0,0,1,8.4,7.8,21.6,21.6,0,0,1,3.04,11.52,21.5,21.5,0,0,1-3.04,11.4,21.557,21.557,0,0,1-8.4,7.88A25.282,25.282,0,0,1,132.48.64Zm0-10.24a10.946,10.946,0,0,0,5.6-1.44A10.254,10.254,0,0,0,142-15.16a13.253,13.253,0,0,0,1.44-6.36,13.2,13.2,0,0,0-1.44-6.4A10.318,10.318,0,0,0,138.08-32a10.946,10.946,0,0,0-5.6-1.44,10.946,10.946,0,0,0-5.6,1.44,10.6,10.6,0,0,0-3.96,4.08,12.9,12.9,0,0,0-1.48,6.4,12.96,12.96,0,0,0,1.48,6.36,10.527,10.527,0,0,0,3.96,4.12A10.946,10.946,0,0,0,132.48-9.6ZM164.4,0V-43.04h11.92v12.16l-1.68-3.52a13.829,13.829,0,0,1,6.16-6.92,20.939,20.939,0,0,1,10.32-2.36v11.52q-.8-.08-1.44-.12t-1.36-.04a11.717,11.717,0,0,0-8.28,2.92q-3.16,2.92-3.16,9.08V0Zm53.28.64q-7.6,0-11.84-3.88T201.6-14.8V-52.56h12.48v37.6a5.775,5.775,0,0,0,1.44,4.2,5.216,5.216,0,0,0,3.92,1.48,8.021,8.021,0,0,0,5.04-1.6l3.36,8.8a13.711,13.711,0,0,1-4.6,2.04A22.52,22.52,0,0,1,217.68.64ZM194.96-32.48v-9.6H224.8v9.6ZM249.36.64a41.982,41.982,0,0,1-10.6-1.32A26.246,26.246,0,0,1,230.72-4l4.16-8.96a27.677,27.677,0,0,0,7,3,28.75,28.75,0,0,0,7.96,1.16q4.32,0,6.12-1.04a3.2,3.2,0,0,0,1.8-2.88,2.448,2.448,0,0,0-1.4-2.28,12.252,12.252,0,0,0-3.72-1.16q-2.32-.4-5.08-.8T242-18.04a18.861,18.861,0,0,1-5.12-2.04,10.464,10.464,0,0,1-3.72-3.68,11.485,11.485,0,0,1-1.4-6,11.61,11.61,0,0,1,2.36-7.2,15.611,15.611,0,0,1,6.84-4.92,28.723,28.723,0,0,1,10.72-1.8,43.417,43.417,0,0,1,8.96.96,24.329,24.329,0,0,1,7.6,2.8l-4.16,8.88a21.1,21.1,0,0,0-6.28-2.52,29.067,29.067,0,0,0-6.12-.68q-4.16,0-6.08,1.12a3.3,3.3,0,0,0-1.92,2.88,2.6,2.6,0,0,0,1.4,2.4,12.811,12.811,0,0,0,3.72,1.28q2.32.48,5.08.84a46.43,46.43,0,0,1,5.56,1.08,20.046,20.046,0,0,1,5.08,2.04,10.676,10.676,0,0,1,3.72,3.6,11.018,11.018,0,0,1,1.44,5.96,11.2,11.2,0,0,1-2.4,7.08,15.761,15.761,0,0,1-6.92,4.84A30.4,30.4,0,0,1,249.36.64Zm78.56.32a33.978,33.978,0,0,1-12.2-2.12,28.714,28.714,0,0,1-9.68-6.04,27.744,27.744,0,0,1-6.4-9.2A28.953,28.953,0,0,1,297.36-28a28.953,28.953,0,0,1,2.28-11.6,27.468,27.468,0,0,1,6.44-9.2,29.066,29.066,0,0,1,9.76-6.04,34.538,34.538,0,0,1,12.32-2.12,34.583,34.583,0,0,1,13.4,2.48,26.536,26.536,0,0,1,10.04,7.2l-8.32,7.68a20.3,20.3,0,0,0-6.64-4.76,19.505,19.505,0,0,0-7.84-1.56,20.748,20.748,0,0,0-7.44,1.28,16.576,16.576,0,0,0-5.8,3.68,16.518,16.518,0,0,0-3.76,5.68A19.336,19.336,0,0,0,310.48-28a19.114,19.114,0,0,0,1.32,7.2,16.94,16.94,0,0,0,3.76,5.72,16.372,16.372,0,0,0,5.76,3.72,20.191,20.191,0,0,0,7.32,1.28,23.042,23.042,0,0,0,7.48-1.24,21.586,21.586,0,0,0,7.08-4.2l7.36,9.36a33.757,33.757,0,0,1-10.6,5.28A41.136,41.136,0,0,1,327.92.96Zm10.8-8.8V-28.88h11.84V-6.16Zm28.4,24a21.849,21.849,0,0,1-6.64-1.04,14.66,14.66,0,0,1-5.36-2.88l4.56-8.88a10.715,10.715,0,0,0,3.32,2,10.347,10.347,0,0,0,3.72.72,6.564,6.564,0,0,0,4.2-1.24A10.777,10.777,0,0,0,373.76.72L376-4.56l.96-1.36L392.4-43.04h12L384.96,2.64a27.1,27.1,0,0,1-4.76,8.16,15.055,15.055,0,0,1-5.92,4.16A20.476,20.476,0,0,1,367.12,16.16Zm7.36-14.48-19.2-44.72h12.88l14.88,36Zm90.16-45.36a19.547,19.547,0,0,1,9.08,2.04,14.674,14.674,0,0,1,6.24,6.24,22.431,22.431,0,0,1,2.28,10.76V0H469.76V-22.72q0-5.2-2.16-7.68a7.633,7.633,0,0,0-6.08-2.48,9.624,9.624,0,0,0-4.88,1.24,8.327,8.327,0,0,0-3.36,3.72,14.517,14.517,0,0,0-1.2,6.32V0H439.6V-22.72q0-5.2-2.12-7.68a7.511,7.511,0,0,0-6.04-2.48,9.624,9.624,0,0,0-4.88,1.24,8.327,8.327,0,0,0-3.36,3.72A14.516,14.516,0,0,0,422-21.6V0H409.52V-43.04h11.92v11.76l-2.24-3.44a15.416,15.416,0,0,1,6.36-6.68,19.087,19.087,0,0,1,9.4-2.28,18.061,18.061,0,0,1,10.36,3,14.5,14.5,0,0,1,5.88,9.16l-4.4-1.2a17.229,17.229,0,0,1,6.92-8A20.248,20.248,0,0,1,464.64-43.68Z" transform="translate(16.16 -2.24) rotate(90)" fill="#f0f7fb"/>
</svg>
