<svg xmlns="http://www.w3.org/2000/svg" width="12.59" height="14.972" viewBox="0 0 12.59 14.972">
  <g id="Layer_2" data-name="Layer 2" transform="translate(-0.5 -0.5)">
    <g id="Group_152" data-name="Group 152" transform="translate(1 1)">
      <path id="Path_14" data-name="Path 14" d="M10.745,6.768A1.376,1.376,0,0,0,9.4,5.392a1.378,1.378,0,0,0-2.389,0H6.993A1.386,1.386,0,0,0,5.61,6.775,1.372,1.372,0,0,0,6.651,8.109v1.942H9.592V8.13a1.376,1.376,0,0,0,1.153-1.362Z" transform="translate(-2.389 -2.115)" fill="none" stroke="#a48d48" stroke-linecap="round" stroke-linejoin="round" stroke-width="1"/>
      <path id="Path_15" data-name="Path 15" d="M1,13.568V2.733A1.732,1.732,0,0,1,2.733,1H12.59V14.972" transform="translate(-1 -1)" fill="none" stroke="#a48d48" stroke-linecap="round" stroke-linejoin="round" stroke-width="1"/>
      <path id="Path_16" data-name="Path 16" d="M12.59,19.505H2.733A1.732,1.732,0,0,1,1,17.773H1A1.732,1.732,0,0,1,2.733,16.04H12.59" transform="translate(-1 -5.533)" fill="none" stroke="#a48d48" stroke-linecap="round" stroke-linejoin="round" stroke-width="1"/>
      <line id="Line_17" data-name="Line 17" x2="7.824" transform="translate(3.717 12.24)" fill="none" stroke="#a48d48" stroke-linecap="round" stroke-linejoin="round" stroke-width="1"/>
    </g>
  </g>
</svg>
