<svg xmlns="http://www.w3.org/2000/svg" width="245.875" height="212.934" viewBox="0 0 245.875 212.934">
  <g id="Group_105" data-name="Group 105" transform="translate(0)">
    <path id="Path_85" data-name="Path 85" d="M61.469,0,0,106.467,61.469,212.934H184.406l61.469-106.467L184.406,0Z" transform="translate(0 0)" fill="#f2f099"/>
    <path id="Path_174" data-name="Path 174" d="M9.63-27.765c0-4.905,2.16-7.425,5.535-7.425,3.015,0,5.265,2.115,5.265,6.39s-2.565,6.8-7.515,7.92l.5,3.15c6.3-.135,8.865,3.105,8.865,7.47,0,4.275-2.565,6.885-6.66,6.885A9.451,9.451,0,0,1,9.5-5.76ZM4.05-1.575,3.69,9.36l.36.27,6.3-1.17L9.225-4.455C11.34-.765,14.22.72,17.865.72A9.309,9.309,0,0,0,27.5-9c0-5.805-3.735-9.18-10.89-9.765,6.255-1.62,8.82-5.94,8.82-9.945,0-5.13-4-8.145-9.72-8.145-7.065,0-11.655,4.68-11.655,13.68ZM31.365-11.16H43.83v-3.06H31.365Zm49.5-22.23H68.715v1.62l5.805.63.135,22.23L57.015-33.39h-9.5v1.62l3.42.4.72.945L51.435-2.115l-4.185.54V0H59.4V-1.575L53.64-2.16l-.135-25.65L73.4.18H76.5l.225-31.365,4.14-.585Zm44.685,1.62v-1.62h-10.8L105.03-8.01,95.04-33.39H84.06v1.62l4.725.585-.18,29.07-4.77.54V0h11.7V-1.575l-4.725-.54V-16.47c0-1.89-.09-7.875-.225-12.375L101.88,0h2.205l10.98-29.025-.09,14.175c-.09,3.915,0,8.415-.135,12.87l-4.14.405V0h14.85V-1.575l-4.32-.405c-.045-4.5-.045-9.045-.045-13.59v-2.2c0-4.5,0-9.045.045-13.59Zm37.08-1.62H150.48v1.62l5.805.63.135,22.23L138.78-33.39h-9.495v1.62l3.42.4.72.945L133.2-2.115l-4.185.54V0h12.15V-1.575l-5.76-.585-.135-25.65L155.16.18h3.1l.225-31.365,4.14-.585Z" transform="translate(42.875 95.028)" fill="#3c505a"/>
    <g id="Group_2" data-name="Group 2" transform="translate(49.875 118.278)">
      <path id="Path_173" data-name="Path 173" d="M15.288-3.549V-8.424h8.268v4.875Zm11.7-4.407a2.925,2.925,0,0,0,1.443-.663L24.882-11.31,23.205-9.555H15.444L11.9-11V.078h.468c1.4,0,2.925-.78,2.925-1.092V-2.457h8.268V-.546h.585A4.831,4.831,0,0,0,26.988-1.6Zm4.173-5.928H7.8l-4.017-1.6V3.276h.546c1.56,0,3.12-.819,3.12-1.209v-14.82h24.1V-1.4c0,.507-.156.741-.819.741-.858,0-4.407-.234-4.407-.234v.546A5.371,5.371,0,0,1,29.484.9,3.8,3.8,0,0,1,30.3,3.315C34.71,2.925,35.3,1.443,35.3-1.053V-12.09a2.553,2.553,0,0,0,1.6-.78l-3.978-2.964ZM13.338-18.408v-4.719H25.545v4.719Zm12.831,2.925c1.17,0,3.081-.663,3.12-.936v-6.045a2.908,2.908,0,0,0,1.6-.819l-3.9-2.886-1.833,1.911H13.533L9.672-25.779v10.647h.507c1.521,0,3.159-.858,3.159-1.17v-.975H25.545v1.794Zm4.29-12.909H21.216v-2.964c1.014-.117,1.326-.507,1.4-1.053l-5.109-.468v4.485H1.872l.351,1.131H36.192c.546,0,.975-.195,1.092-.624-1.677-1.443-4.407-3.432-4.407-3.432Zm12.012-3.822a13.846,13.846,0,0,1,3.627,5.46c3.393,2.223,6.162-4.329-3.276-5.772Zm-2.34,8.7a10.15,10.15,0,0,1,3.12,5.109c3.315,2.3,6.123-4.173-2.769-5.382Zm10.218-2.262C44.07-10.257,44.07-10.257,43.368-8.853c-.39.78-.546.78-1.053.78H40.638v.78a3.373,3.373,0,0,1,1.911.624c.9.585,1.092,3.978.429,8.034.195,1.326.858,1.95,1.677,1.95,1.56,0,2.613-1.131,2.691-2.964.078-3.315-1.248-4.953-1.287-6.9a16.114,16.114,0,0,1,.546-3.51c.468-1.989,3.042-10.8,4.446-15.522ZM60.879-8h3.2A19.959,19.959,0,0,0,66.69-2.5c-1.989.273-3.978.546-5.811.78ZM55.536-19.188h15.4v1.053h.546a1.08,1.08,0,0,0,.351-.039L70.4-16.458H55.3l-2.34-.9c1.287-.078,2.574-.741,2.574-1.014Zm3-8.736v3.159h-3v-3.159Zm6.084,0v3.159H61.581v-3.159Zm6.318,0v3.159H67.665v-3.159Zm-3.276,4.29h3.276v3.354H67.665Zm-6.084,0h3.042v3.354H61.581ZM55.536-20.28v-3.354h3v3.354Zm16.692,12.4a38.013,38.013,0,0,1-3.861,4.017A14.5,14.5,0,0,1,64.935-8H75.7c.546,0,.9-.2,1.014-.585-1.365-1.209-3.549-2.769-3.549-2.769L71.253-9.087H54.639c.078-.936.078-1.794.078-2.613v-3.627H75.153c.546,0,.936-.2,1.014-.624-.936-.858-2.3-1.872-3.081-2.457.624-.234,1.131-.468,1.17-.624v-8.307a2.768,2.768,0,0,0,1.6-.819l-3.627-2.691-1.677,1.794H67.665v-2.457c.78-.117,1.131-.429,1.17-.936l-4.212-.429v3.822H61.581v-2.457c.78-.117,1.131-.468,1.17-.936l-4.212-.429v3.822H55.77L52.26-30.5v12.87l-.858-.351v6.318c0,4.68-.39,10.062-3.9,14.469l.429.468A14.945,14.945,0,0,0,54.522-8h3.12v6.708c-1.677.195-3.042.351-3.978.429l2.067,4.173a1.408,1.408,0,0,0,.975-.858C61.425.546,64.74-.936,67.08-1.989a15.931,15.931,0,0,0,7.449,5.3A3.33,3.33,0,0,1,76.947.429L76.986,0A19.308,19.308,0,0,1,69.3-3.159a33.249,33.249,0,0,0,4.758-1.716c.78.273,1.17.195,1.482-.156ZM55.146-12.87l.312,1.131H73.086c.546,0,.936-.195,1.053-.624-1.365-1.17-3.471-2.691-3.471-2.691L68.8-12.87ZM102.8-20.163v4.8h-6.4v-4.8Zm-16.146,0H92.9v8.19h.585c1.326,0,2.925-.741,2.925-1.053v-1.209h6.4v1.989h.585c1.4,0,3.042-.741,3.042-1.053v-6.864h7.917c.546,0,.936-.195,1.053-.624-1.365-1.326-3.627-3.2-3.627-3.2l-2.028,2.691h-3.315V-24.1c.936-.117,1.209-.468,1.287-.936l-4.914-.468v4.212h-6.4v-2.769c.936-.156,1.209-.507,1.287-.975l-4.8-.468v4.212h-6.24v-5.421h27.69c.546,0,.975-.195,1.053-.624-1.443-1.4-3.939-3.354-3.939-3.354l-2.223,2.886h-8.931V-31.4c1.014-.117,1.365-.507,1.443-1.053l-5.031-.468v5.109H87.282L83.07-29.64V-17.9c0,7.02-.273,14.7-3.744,20.748l.507.351c6.513-5.85,6.825-14.508,6.825-21.1Zm18.1,10.8a20.666,20.666,0,0,1-4.992,5.3,16.121,16.121,0,0,1-6.279-5.3Zm2.5-2.925-2.34,1.794H87.75L88.1-9.36h4.446a19.032,19.032,0,0,0,5.031,6.747,44.479,44.479,0,0,1-13.923,5.3l.234.585a47.642,47.642,0,0,0,15.873-4.29c3.51,2.223,7.956,3.51,13.221,4.329a3.986,3.986,0,0,1,2.925-3.432V-.585a50.759,50.759,0,0,1-13.1-2.223,23.5,23.5,0,0,0,6.162-5.928c1.014-.039,1.4-.156,1.716-.507Z" transform="translate(0 50.455)" fill="#3c505a"/>
      <path id="Path_172" data-name="Path 172" d="M7.774,14.478H6.526V10.734H7.774Zm3.016.754v4.81a1.557,1.557,0,0,1-.312.052H9.49c-.182,0-.208-.078-.208-.338V15.232ZM3.718,28.986V25.4H10.79v3.588ZM5.1,15.232v1.04A10.56,10.56,0,0,1,3.718,22.33v-7.1Zm4.628,6.422c.442,0,.78-.026,1.066-.052v3.042H3.718V22.59l.234.26c2.366-1.9,2.574-4.732,2.574-6.552V15.232H7.774v5.1c0,.936.182,1.326,1.274,1.326Zm.65-11.674H.91l.208.754h3.64v3.744h-.91l-2.21-1.014V32.106H1.95c.936,0,1.768-.494,1.768-.754V29.74H10.79v1.95h.338a2.864,2.864,0,0,0,1.82-.7V15.57a1.843,1.843,0,0,0,1.014-.494l-2.314-1.82L10.53,14.478H9.568V10.734H13.52c.39,0,.624-.13.7-.416-.936-.858-2.47-2.08-2.47-2.08Zm14.04,14.95H24.1a28.2,28.2,0,0,1-.962,3.77.574.574,0,0,1-.572.364c-.338.026-1.144.052-2.132.052H18.174c-.91,0-1.066-.156-1.066-.624V17.78h4.134v2.392h.364a3.321,3.321,0,0,0,1.924-.624v-8.32a2.316,2.316,0,0,0,1.222-.6l-2.6-2L20.93,9.954H14.638l.234.754h6.37v6.344h-3.8l-2.6-1.066v13.1c0,1.768.546,2.262,2.808,2.262h2.652c4,0,5.07-.494,5.07-1.508,0-.442-.182-.728-.884-.988ZM7.9,59.376v-6.11h10.27v6.11Zm10.01-6.864H8.06L5.33,51.368V62.184h.364c1.066,0,2.21-.572,2.21-.806V60.13h10.27v1.82h.442a4.01,4.01,0,0,0,2.158-.65V53.734a2.215,2.215,0,0,0,1.118-.572l-2.7-2.08Zm-2.886-4.706H6.916l.208.754h11.44c.364,0,.624-.13.7-.416-1.04-.962-2.73-2.262-2.73-2.262Zm-3.588-9.88C10.218,41.67,5.252,46.948.78,49.548l.182.364c5.1-2.132,10.322-6.292,12.766-10.166,1.716,3.952,5.382,7.15,9.49,9.152a2.914,2.914,0,0,1,2.028-2.184l.026-.39c-4.264-1.43-8.762-3.666-11.1-6.89.754-.052,1.092-.208,1.2-.52Z" transform="translate(121.625 0.455)" fill="#3c505a"/>
    </g>
    <path id="Path_171" data-name="Path 171" d="M-2.5-5.31a.68.68,0,0,0,.675-.675A.68.68,0,0,0-2.5-6.66a.68.68,0,0,0-.675.675A.68.68,0,0,0-2.5-5.31Zm0,1.629-2.97-2.97-.261.261,2.97,2.97L-5.738-.441l.261.261L-2.5-3.159.473-.189.734-.45l-2.97-2.97L.734-6.39.473-6.651Zm-1.89.261A.68.68,0,0,0-5.062-4.1a.68.68,0,0,0-.675.675.68.68,0,0,0,.675.675A.68.68,0,0,0-4.387-3.42Zm3.78,0a.68.68,0,0,0,.675.675A.68.68,0,0,0,.743-3.42.68.68,0,0,0,.068-4.1.68.68,0,0,0-.607-3.42ZM-2.5-1.53a.68.68,0,0,0-.675.675A.68.68,0,0,0-2.5-.18a.68.68,0,0,0,.675-.675A.68.68,0,0,0-2.5-1.53ZM2.4,0H6.548V-.711H4.72c-.333,0-.738.036-1.08.063C5.189-2.115,6.224-3.456,6.224-4.77A1.81,1.81,0,0,0,4.307-6.723a2.523,2.523,0,0,0-1.944.972l.477.468a1.848,1.848,0,0,1,1.368-.765A1.16,1.16,0,0,1,5.423-4.743C5.423-3.609,4.469-2.3,2.4-.486Z" transform="translate(193.962 52)" fill="#615243" stroke="rgba(0,0,0,0)" stroke-width="1"/>
  </g>
</svg>
