<svg xmlns="http://www.w3.org/2000/svg" width="102.908" height="89.121" viewBox="0 0 102.908 89.121">
  <g id="Group_346" data-name="Group 346" transform="translate(0 0)">
    <path id="Path_85" data-name="Path 85" d="M25.727,0,0,44.561,25.727,89.122H77.181l25.727-44.561L77.181,0Z" transform="translate(0 0)" fill="#f2f099"/>
    <path id="Path_170" data-name="Path 170" d="M3.852-11.106c0-1.962.864-2.97,2.214-2.97,1.206,0,2.106.846,2.106,2.556S7.146-8.8,5.166-8.352l.2,1.26C7.884-7.146,8.91-5.85,8.91-4.1A2.511,2.511,0,0,1,6.246-1.35,3.78,3.78,0,0,1,3.8-2.3ZM1.62-.63,1.476,3.744l.144.108,2.52-.468L3.69-1.782A3.713,3.713,0,0,0,7.146.288,3.723,3.723,0,0,0,11-3.6C11-5.922,9.5-7.272,6.642-7.506c2.5-.648,3.528-2.376,3.528-3.978,0-2.052-1.6-3.258-3.888-3.258-2.826,0-4.662,1.872-4.662,5.472ZM12.546-4.464h4.986V-5.688H12.546Zm19.8-8.892h-4.86v.648l2.322.252.054,8.892-7.056-9.792h-3.8v.648l1.368.162.288.378L20.574-.846,18.9-.63V0h4.86V-.63l-2.3-.234L21.4-11.124,29.358.072H30.6l.09-12.546,1.656-.234Zm17.874.648v-.648H45.9L42.012-3.2l-4-10.152H33.624v.648l1.89.234L35.442-.846,33.534-.63V0h4.68V-.63l-1.89-.216V-6.588c0-.756-.036-3.15-.09-4.95L40.752,0h.882l4.392-11.61L45.99-5.94c-.036,1.566,0,3.366-.054,5.148L44.28-.63V0h5.94V-.63L48.492-.792c-.018-1.8-.018-3.618-.018-5.436V-7.11c0-1.8,0-3.618.018-5.436Zm14.832-.648h-4.86v.648l2.322.252.054,8.892-7.056-9.792h-3.8v.648l1.368.162.288.378L53.28-.846,51.606-.63V0h4.86V-.63l-2.3-.234-.054-10.26L62.064.072h1.242l.09-12.546,1.656-.234Z" transform="translate(17.945 39.009)" fill="#3c505a"/>
    <g id="Group_2" data-name="Group 2" transform="translate(20.875 49.695)">
      <path id="Path_169" data-name="Path 169" d="M6.272-1.456v-2H9.664v2Zm4.8-1.808a1.2,1.2,0,0,0,.592-.272l-1.456-1.1-.688.72H6.336L4.88-4.512V.032h.192c.576,0,1.2-.32,1.2-.448v-.592H9.664v.784H9.9a1.982,1.982,0,0,0,1.168-.432ZM12.784-5.7H3.2L1.552-6.352v7.7h.224c.64,0,1.28-.336,1.28-.5v-6.08h9.888V-.576c0,.208-.064.3-.336.3-.352,0-1.808-.1-1.808-.1v.224a2.2,2.2,0,0,1,1.3.512,1.56,1.56,0,0,1,.336.992C14.24,1.2,14.48.592,14.48-.432V-4.96a1.047,1.047,0,0,0,.656-.32L13.5-6.5ZM5.472-7.552V-9.488H10.48v1.936Zm5.264,1.2a2.392,2.392,0,0,0,1.28-.384v-2.48a1.193,1.193,0,0,0,.656-.336l-1.6-1.184-.752.784H5.552l-1.584-.624v4.368h.208a1.8,1.8,0,0,0,1.3-.48v-.4H10.48v.736Zm1.76-5.3H8.7v-1.216c.416-.048.544-.208.576-.432l-2.1-.192v1.84H.768l.144.464H14.848c.224,0,.4-.08.448-.256-.688-.592-1.808-1.408-1.808-1.408Zm4.928-1.568a5.68,5.68,0,0,1,1.488,2.24c1.392.912,2.528-1.776-1.344-2.368Zm-.96,3.568a4.164,4.164,0,0,1,1.28,2.1c1.36.944,2.512-1.712-1.136-2.208Zm4.192-.928C18.08-4.208,18.08-4.208,17.792-3.632c-.16.32-.224.32-.432.32h-.688v.32a1.384,1.384,0,0,1,.784.256c.368.24.448,1.632.176,3.3.08.544.352.8.688.8a1.117,1.117,0,0,0,1.1-1.216c.032-1.36-.512-2.032-.528-2.832a6.611,6.611,0,0,1,.224-1.44c.192-.816,1.248-4.432,1.824-6.368Zm4.32,7.3h1.312A8.188,8.188,0,0,0,27.36-1.024c-.816.112-1.632.224-2.384.32ZM22.784-7.872H29.1v.432h.224a.443.443,0,0,0,.144-.016l-.592.7H22.688l-.96-.368c.528-.032,1.056-.3,1.056-.416Zm1.232-3.584v1.3H22.784v-1.3Zm2.5,0v1.3H25.264v-1.3Zm2.592,0v1.3H27.76v-1.3ZM27.76-9.7H29.1V-8.32H27.76Zm-2.5,0h1.248V-8.32H25.264ZM22.784-8.32V-9.7h1.232V-8.32Zm6.848,5.088a15.6,15.6,0,0,1-1.584,1.648,5.95,5.95,0,0,1-1.408-1.7h4.416c.224,0,.368-.08.416-.24-.56-.5-1.456-1.136-1.456-1.136l-.784.928H22.416c.032-.384.032-.736.032-1.072V-6.288h8.384c.224,0,.384-.08.416-.256-.384-.352-.944-.768-1.264-1.008.256-.1.464-.192.48-.256v-3.408a1.136,1.136,0,0,0,.656-.336l-1.488-1.1-.688.736H27.76v-1.008c.32-.048.464-.176.48-.384l-1.728-.176v1.568H25.264v-1.008c.32-.048.464-.192.48-.384l-1.728-.176v1.568H22.88l-1.44-.592v5.28l-.352-.144v2.592a9.133,9.133,0,0,1-1.6,5.936l.176.192a6.131,6.131,0,0,0,2.7-4.624h1.28V-.528c-.688.08-1.248.144-1.632.176l.848,1.712a.578.578,0,0,0,.4-.352C25.2.224,26.56-.384,27.52-.816A6.536,6.536,0,0,0,30.576,1.36,1.366,1.366,0,0,1,31.568.176L31.584,0a7.921,7.921,0,0,1-3.152-1.3A13.64,13.64,0,0,0,30.384-2c.32.112.48.08.608-.064ZM22.624-5.28l.128.464h7.232c.224,0,.384-.08.432-.256-.56-.48-1.424-1.1-1.424-1.1l-.768.9ZM42.176-8.272V-6.3H39.552V-8.272Zm-6.624,0h2.56v3.36h.24c.544,0,1.2-.3,1.2-.432v-.5h2.624v.816h.24c.576,0,1.248-.3,1.248-.432V-8.272h3.248c.224,0,.384-.08.432-.256-.56-.544-1.488-1.312-1.488-1.312l-.832,1.1h-1.36V-9.888c.384-.048.5-.192.528-.384l-2.016-.192v1.728H39.552V-9.872c.384-.064.5-.208.528-.4l-1.968-.192v1.728h-2.56V-10.96h11.36c.224,0,.4-.08.432-.256-.592-.576-1.616-1.376-1.616-1.376l-.912,1.184H41.152V-12.88c.416-.048.56-.208.592-.432L39.68-13.5v2.1H35.808L34.08-12.16v4.816c0,2.88-.112,6.032-1.536,8.512l.208.144c2.672-2.4,2.8-5.952,2.8-8.656ZM42.976-3.84a8.478,8.478,0,0,1-2.048,2.176A6.614,6.614,0,0,1,38.352-3.84ZM44-5.04l-.96.736H36l.144.464h1.824a7.808,7.808,0,0,0,2.064,2.768A18.248,18.248,0,0,1,34.32,1.1l.1.24a19.546,19.546,0,0,0,6.512-1.76A14.159,14.159,0,0,0,46.352,1.36a1.635,1.635,0,0,1,1.2-1.408V-.24a20.824,20.824,0,0,1-5.376-.912A9.641,9.641,0,0,0,44.7-3.584c.416-.016.576-.064.7-.208Z" transform="translate(0 18.259)" fill="#3c505a"/>
      <path id="Path_168" data-name="Path 168" d="M4.186,7.642H3.514V5.626h.672Zm1.624.406v2.59a.838.838,0,0,1-.168.028H5.11c-.1,0-.112-.042-.112-.182V8.048ZM2,15.454V13.522H5.81v1.932Zm.742-7.406v.56A5.686,5.686,0,0,1,2,11.87V8.048Zm2.492,3.458c.238,0,.42-.014.574-.028v1.638H2V12.01l.126.14A4.275,4.275,0,0,0,3.514,8.622V8.048h.672v2.744c0,.5.1.714.686.714Zm.35-6.286H.49L.6,5.626h1.96V7.642h-.49L.882,7.1V17.134H1.05c.5,0,.952-.266.952-.406V15.86H5.81v1.05h.182a1.542,1.542,0,0,0,.98-.378V8.23a.992.992,0,0,0,.546-.266l-1.246-.98-.6.658H5.152V5.626H7.28c.21,0,.336-.07.378-.224-.5-.462-1.33-1.12-1.33-1.12Zm7.56,8.05h-.168a15.182,15.182,0,0,1-.518,2.03.309.309,0,0,1-.308.2c-.182.014-.616.028-1.148.028H9.786c-.49,0-.574-.084-.574-.336V9.42h2.226v1.288h.2a1.788,1.788,0,0,0,1.036-.336V5.892a1.247,1.247,0,0,0,.658-.322l-1.4-1.078-.658.714H7.882l.126.406h3.43V9.028H9.394l-1.4-.574V15.51c0,.952.294,1.218,1.512,1.218h1.428c2.156,0,2.73-.266,2.73-.812,0-.238-.1-.392-.476-.532ZM4.256,31.664v-3.29h5.53v3.29Zm5.39-3.7H4.34l-1.47-.616v5.824h.2c.574,0,1.19-.308,1.19-.434V32.07h5.53v.98h.238a2.159,2.159,0,0,0,1.162-.35V28.626a1.193,1.193,0,0,0,.6-.308L10.332,27.2ZM8.092,25.434H3.724l.112.406H10c.2,0,.336-.07.378-.224C9.814,25.1,8.9,24.4,8.9,24.4ZM6.16,20.114C5.5,22.13,2.828,24.972.42,26.372l.1.2a16.128,16.128,0,0,0,6.874-5.474,10.487,10.487,0,0,0,5.11,4.928,1.569,1.569,0,0,1,1.092-1.176l.014-.21c-2.3-.77-4.718-1.974-5.978-3.71.406-.028.588-.112.644-.28Z" transform="translate(50.905 -5.742)" fill="#3c505a"/>
    </g>
    <path id="Path_167" data-name="Path 167" d="M-2.775-5.9a.755.755,0,0,0,.75-.75.755.755,0,0,0-.75-.75.755.755,0,0,0-.75.75A.755.755,0,0,0-2.775-5.9Zm0,1.81-3.3-3.3-.29.29,3.3,3.3L-6.375-.49l.29.29,3.31-3.31,3.3,3.3L.815-.5l-3.3-3.3,3.3-3.3-.29-.29Zm-2.1.29a.755.755,0,0,0-.75-.75.755.755,0,0,0-.75.75.755.755,0,0,0,.75.75A.755.755,0,0,0-4.875-3.8Zm4.2,0a.755.755,0,0,0,.75.75.755.755,0,0,0,.75-.75.755.755,0,0,0-.75-.75A.755.755,0,0,0-.675-3.8Zm-2.1,2.1a.755.755,0,0,0-.75.75.755.755,0,0,0,.75.75.755.755,0,0,0,.75-.75A.755.755,0,0,0-2.775-1.7ZM2.665,0h4.61V-.79H5.245c-.37,0-.82.04-1.2.07,1.72-1.63,2.87-3.12,2.87-4.58a2.011,2.011,0,0,0-2.13-2.17,2.8,2.8,0,0,0-2.16,1.08l.53.52a2.053,2.053,0,0,1,1.52-.85,1.289,1.289,0,0,1,1.35,1.45c0,1.26-1.06,2.72-3.36,4.73Z" transform="translate(79.251 20.579)" fill="#3c505a" stroke="rgba(0,0,0,0)" stroke-width="1"/>
  </g>
</svg>
