<svg xmlns="http://www.w3.org/2000/svg" width="126.092" height="23" viewBox="0 0 126.092 23">
  <g id="Group_18" data-name="Group 18" transform="translate(-1292.908 -7695)">
    <path id="Path_201" data-name="Path 201" d="M-43.092,0V-12.348h6.372a4.229,4.229,0,0,1,1.836.369,2.812,2.812,0,0,1,1.2,1.035,2.892,2.892,0,0,1,.423,1.584,3.284,3.284,0,0,1-.252,1.3,2.7,2.7,0,0,1-.7.99,3.026,3.026,0,0,1-1.026.594v.072a3.13,3.13,0,0,1,1.17.522,2.737,2.737,0,0,1,.837,1,3.336,3.336,0,0,1,.315,1.521,3.386,3.386,0,0,1-.5,1.944,2.923,2.923,0,0,1-1.35,1.08A5.156,5.156,0,0,1-36.72,0Zm1.71-1.476h4.644a2.265,2.265,0,0,0,1.494-.477,1.961,1.961,0,0,0,.576-1.593,2.351,2.351,0,0,0-.252-1.143,1.572,1.572,0,0,0-.738-.684A2.916,2.916,0,0,0-36.882-5.6h-4.5Zm0-5.58h4.338A2.2,2.2,0,0,0-35.982-7.3a1.812,1.812,0,0,0,.711-.684,1.924,1.924,0,0,0,.261-1,1.809,1.809,0,0,0-.522-1.431,2.023,2.023,0,0,0-1.386-.459h-4.464ZM-28.458.216A4.435,4.435,0,0,1-29.5.09a3.171,3.171,0,0,1-.972-.414,2.075,2.075,0,0,1-.72-.8,2.745,2.745,0,0,1-.27-1.287A2.615,2.615,0,0,1-31-4.014a3.048,3.048,0,0,1,1.305-.981A7.373,7.373,0,0,1-27.7-5.481a21.566,21.566,0,0,1,2.5-.135V-6.7a2.076,2.076,0,0,0-.18-.9,1.229,1.229,0,0,0-.639-.585,3.27,3.27,0,0,0-1.305-.207,3.293,3.293,0,0,0-1.287.207,1.362,1.362,0,0,0-.666.531,1.4,1.4,0,0,0-.189.72v.27H-31a.916.916,0,0,1-.018-.18v-.216a2.218,2.218,0,0,1,.477-1.449A2.891,2.891,0,0,1-29.2-9.387a6.079,6.079,0,0,1,1.98-.3,5.077,5.077,0,0,1,1.989.342,2.593,2.593,0,0,1,1.206.972,2.736,2.736,0,0,1,.405,1.512v5.13a.594.594,0,0,0,.162.477.6.6,0,0,0,.4.135h.7V-.072a4.046,4.046,0,0,1-.558.189,2.753,2.753,0,0,1-.7.081A1.45,1.45,0,0,1-24.39.009a1.234,1.234,0,0,1-.468-.522,2.408,2.408,0,0,1-.216-.747H-25.2a3.191,3.191,0,0,1-.819.783,3.981,3.981,0,0,1-1.107.513A4.7,4.7,0,0,1-28.458.216Zm.4-1.332a3.265,3.265,0,0,0,1.089-.18,2.879,2.879,0,0,0,.909-.513,2.49,2.49,0,0,0,.63-.8A2.262,2.262,0,0,0-25.2-3.636v-.792a16.234,16.234,0,0,0-2.484.162,3.522,3.522,0,0,0-1.575.576,1.38,1.38,0,0,0-.549,1.17,1.343,1.343,0,0,0,.216.792,1.3,1.3,0,0,0,.612.459A2.538,2.538,0,0,0-28.062-1.116ZM-17.424.216a4.557,4.557,0,0,1-2.3-.531,3.334,3.334,0,0,1-1.4-1.638A7.055,7.055,0,0,1-21.6-4.734a6.987,6.987,0,0,1,.477-2.772A3.359,3.359,0,0,1-19.7-9.144a4.636,4.636,0,0,1,2.331-.54,5.045,5.045,0,0,1,1.683.252,2.994,2.994,0,0,1,1.179.738,3.021,3.021,0,0,1,.693,1.17,5.007,5.007,0,0,1,.225,1.566h-1.6a3.512,3.512,0,0,0-.225-1.359,1.559,1.559,0,0,0-.711-.792,2.7,2.7,0,0,0-1.278-.261,2.578,2.578,0,0,0-1.368.351,2.213,2.213,0,0,0-.882,1.107,5.418,5.418,0,0,0-.306,2v.378a5.474,5.474,0,0,0,.3,1.944,2.215,2.215,0,0,0,.873,1.134,2.6,2.6,0,0,0,1.4.36,2.581,2.581,0,0,0,1.305-.288,1.677,1.677,0,0,0,.72-.828,3.363,3.363,0,0,0,.225-1.3h1.548a4.7,4.7,0,0,1-.225,1.476,3.184,3.184,0,0,1-.693,1.188A3.138,3.138,0,0,1-15.7-.063,4.785,4.785,0,0,1-17.424.216ZM-11.682,0V-13.014H-10.1v8.136l4.014-4.59h1.872L-7.452-5.8-4.032,0H-5.85L-8.478-4.626-10.1-2.988V0Zm14.6.216A2.044,2.044,0,0,1,1.764-.063,1.557,1.557,0,0,1,1.17-.8a2.663,2.663,0,0,1-.18-.981V-8.136H-.234V-9.468h1.26l.288-2.646h1.26v2.646H4.356v1.332H2.574v6.12a1.155,1.155,0,0,0,.162.675.71.71,0,0,0,.612.225H4.356V-.072a1.822,1.822,0,0,1-.432.144q-.252.054-.513.1A2.918,2.918,0,0,1,2.916.216Zm7.02,0A5.033,5.033,0,0,1,7.515-.315,3.444,3.444,0,0,1,6.021-1.944a6.6,6.6,0,0,1-.513-2.79,6.591,6.591,0,0,1,.513-2.8,3.451,3.451,0,0,1,1.494-1.62,5.033,5.033,0,0,1,2.421-.531,5.033,5.033,0,0,1,2.421.531,3.4,3.4,0,0,1,1.485,1.62,6.694,6.694,0,0,1,.5,2.8,6.706,6.706,0,0,1-.5,2.79A3.4,3.4,0,0,1,12.357-.315,5.033,5.033,0,0,1,9.936.216Zm0-1.332a2.977,2.977,0,0,0,1.53-.36A2.24,2.24,0,0,0,12.393-2.6a5.118,5.118,0,0,0,.315-1.935v-.4a5.1,5.1,0,0,0-.315-1.944,2.243,2.243,0,0,0-.927-1.116,2.977,2.977,0,0,0-1.53-.36,3.027,3.027,0,0,0-1.539.36A2.184,2.184,0,0,0,7.47-6.876a5.24,5.24,0,0,0-.306,1.944v.4A5.254,5.254,0,0,0,7.47-2.6,2.182,2.182,0,0,0,8.4-1.476,3.027,3.027,0,0,0,9.936-1.116ZM22.284.216a2.044,2.044,0,0,1-1.152-.279A1.557,1.557,0,0,1,20.538-.8a2.663,2.663,0,0,1-.18-.981V-8.136H19.134V-9.468h1.26l.288-2.646h1.26v2.646h1.782v1.332H21.942v6.12a1.155,1.155,0,0,0,.162.675.71.71,0,0,0,.612.225h1.008V-.072a1.822,1.822,0,0,1-.432.144q-.252.054-.513.1A2.918,2.918,0,0,1,22.284.216Zm7.02,0a5.033,5.033,0,0,1-2.421-.531,3.444,3.444,0,0,1-1.494-1.629,6.6,6.6,0,0,1-.513-2.79,6.591,6.591,0,0,1,.513-2.8,3.451,3.451,0,0,1,1.494-1.62A5.033,5.033,0,0,1,29.3-9.684a5.033,5.033,0,0,1,2.421.531,3.4,3.4,0,0,1,1.485,1.62,6.694,6.694,0,0,1,.5,2.8,6.706,6.706,0,0,1-.5,2.79A3.4,3.4,0,0,1,31.725-.315,5.033,5.033,0,0,1,29.3.216Zm0-1.332a2.977,2.977,0,0,0,1.53-.36A2.24,2.24,0,0,0,31.761-2.6a5.118,5.118,0,0,0,.315-1.935v-.4a5.1,5.1,0,0,0-.315-1.944,2.243,2.243,0,0,0-.927-1.116,2.977,2.977,0,0,0-1.53-.36,3.027,3.027,0,0,0-1.539.36,2.184,2.184,0,0,0-.927,1.116,5.24,5.24,0,0,0-.306,1.944v.4A5.254,5.254,0,0,0,26.838-2.6a2.182,2.182,0,0,0,.927,1.125A3.027,3.027,0,0,0,29.3-1.116Zm6.372,4.23V-9.468h1.26l.162,1.35h.126A3.115,3.115,0,0,1,38.466-9.3a3.7,3.7,0,0,1,1.71-.387,3.706,3.706,0,0,1,2.016.522A3.328,3.328,0,0,1,43.47-7.533a7.722,7.722,0,0,1,.45,2.871,7.106,7.106,0,0,1-.459,2.745A3.382,3.382,0,0,1,42.174-.306a3.534,3.534,0,0,1-1.926.522A4.456,4.456,0,0,1,39.1.072a2.9,2.9,0,0,1-.972-.459,3.119,3.119,0,0,1-.756-.8H37.26v4.3ZM39.744-1.17a2.666,2.666,0,0,0,1.44-.351,2.072,2.072,0,0,0,.828-1.1,5.728,5.728,0,0,0,.27-1.917v-.378A5.648,5.648,0,0,0,41.994-6.9a2.033,2.033,0,0,0-.837-1.071A2.634,2.634,0,0,0,39.8-8.3a2.517,2.517,0,0,0-1.449.387,2.2,2.2,0,0,0-.828,1.161,5.962,5.962,0,0,0-.261,1.89v.27a6.063,6.063,0,0,0,.189,1.647,2.681,2.681,0,0,0,.54,1.053,1.946,1.946,0,0,0,.8.558A2.8,2.8,0,0,0,39.744-1.17Z" transform="translate(1336 7714)" fill="#333"/>
    <g id="Group_17" data-name="Group 17" transform="translate(-1 1)">
      <circle id="Ellipse_2" data-name="Ellipse 2" cx="11.5" cy="11.5" r="11.5" transform="translate(1397 7694)" fill="#4597a0"/>
      <g id="Group_16" data-name="Group 16" transform="translate(-0.403 -0.403)">
        <path id="Path_72" data-name="Path 72" d="M3910.247,7705.5l4.1-4.1,4.1,4.1" transform="translate(-2505.843)" fill="none" stroke="#fff" stroke-width="1"/>
        <line id="Line_6" data-name="Line 6" y1="9" transform="translate(1408.5 7701.5)" fill="none" stroke="#fff" stroke-width="1"/>
      </g>
    </g>
  </g>
</svg>
