<svg id="campagin" xmlns="http://www.w3.org/2000/svg" xmlns:xlink="http://www.w3.org/1999/xlink" width="900" height="340" viewBox="0 0 900 340">
  <defs>
    <linearGradient id="linear-gradient" x1="0.5" x2="0.5" y2="1" gradientUnits="objectBoundingBox">
      <stop offset="0" stop-color="#fff"/>
      <stop offset="1" stop-color="#fff"/>
    </linearGradient>
    <clipPath id="clip-path">
      <rect id="Rectangle_350" data-name="Rectangle 350" width="900" height="340" transform="translate(-23087 -20662)" fill="url(#linear-gradient)"/>
    </clipPath>
    <filter id="Path_572" x="260.79" y="136.92" width="367.9" height="68.32" filterUnits="userSpaceOnUse">
      <feOffset dx="10" dy="10" input="SourceAlpha"/>
      <feGaussianBlur result="blur"/>
      <feFlood flood-opacity="0.102"/>
      <feComposite operator="in" in2="blur"/>
      <feComposite in="SourceGraphic"/>
    </filter>
  </defs>
  <rect id="Rectangle_290" data-name="Rectangle 290" width="900" height="340" fill="#51bdba"/>
  <g id="Mask_Group_1" data-name="Mask Group 1" transform="translate(23087 20662)" opacity="0.33" clip-path="url(#clip-path)" style="mix-blend-mode: soft-light;isolation: isolate">
    <g id="Group_755" data-name="Group 755" transform="translate(-504.772 1505.598)">
      <path id="Path_526" data-name="Path 526" d="M0,24.02,614.924,0V82.871L0,58.85Z" transform="translate(-22152.736 -21819.482) rotate(-30)" fill="url(#linear-gradient)"/>
      <path id="Path_544" data-name="Path 544" d="M614.924,24.02,0,0V82.871L614.924,58.85Z" transform="translate(-22685.273 -21512.021) rotate(-30)" fill="url(#linear-gradient)"/>
      <path id="Path_555" data-name="Path 555" d="M0,58.85l614.924,24.02V0L0,24.02Z" transform="translate(-22152.73 -21747.715) rotate(-150)" fill="url(#linear-gradient)"/>
      <path id="Path_556" data-name="Path 556" d="M614.924,58.85,0,82.871V0L614.924,24.02Z" transform="translate(-21620.191 -21440.252) rotate(-150)" fill="url(#linear-gradient)"/>
      <path id="Path_547" data-name="Path 547" d="M0,24.02,614.924,0V82.871L0,58.85Z" transform="translate(-22163.76 -21810.234) rotate(-50)" fill="url(#linear-gradient)"/>
      <path id="Path_548" data-name="Path 548" d="M614.924,24.02,0,0V82.871L614.924,58.85Z" transform="translate(-22559.025 -21339.176) rotate(-50)" fill="url(#linear-gradient)"/>
      <path id="Path_557" data-name="Path 557" d="M0,58.85l614.924,24.02V0L0,24.02Z" transform="translate(-22163.756 -21756.963) rotate(-130)" fill="url(#linear-gradient)"/>
      <path id="Path_558" data-name="Path 558" d="M614.924,58.85,0,82.871V0L614.924,24.02Z" transform="translate(-21768.49 -21285.904) rotate(-130)" fill="url(#linear-gradient)"/>
      <path id="Path_549" data-name="Path 549" d="M0,24.02,614.924,0V82.871L0,58.85Z" transform="translate(-22170.953 -21797.77) rotate(-70)" fill="url(#linear-gradient)"/>
      <path id="Path_550" data-name="Path 550" d="M614.924,24.02,0,0V82.871L614.924,58.85Z" transform="translate(-22381.271 -21219.932) rotate(-70)" fill="url(#linear-gradient)"/>
      <path id="Path_559" data-name="Path 559" d="M0,58.85l614.924,24.02V0L0,24.02Z" transform="translate(-22170.951 -21769.426) rotate(-110)" fill="url(#linear-gradient)"/>
      <path id="Path_560" data-name="Path 560" d="M614.924,58.85,0,82.871V0L614.924,24.02Z" transform="translate(-21960.635 -21191.586) rotate(-110)" fill="url(#linear-gradient)"/>
      <path id="Path_551" data-name="Path 551" d="M0,24.02,614.924,0V82.871L0,58.85Z" transform="translate(-22173.453 -21783.598) rotate(-90)" fill="url(#linear-gradient)"/>
      <path id="Path_552" data-name="Path 552" d="M614.924,24.02,0,0V82.871L614.924,58.85Z" transform="translate(-22173.453 -21168.674) rotate(-90)" fill="url(#linear-gradient)"/>
      <path id="Path_545" data-name="Path 545" d="M0,24.02,614.924,0V82.871L0,58.85Z" transform="matrix(0.985, -0.174, 0.174, 0.985, -22139.211, -21824.406)" fill="url(#linear-gradient)"/>
      <path id="Path_546" data-name="Path 546" d="M614.924,24.02,0,0V82.871L614.924,58.85Z" transform="matrix(0.985, -0.174, 0.174, 0.985, -22744.793, -21717.627)" fill="url(#linear-gradient)"/>
      <path id="Path_553" data-name="Path 553" d="M0,58.85l614.924,24.02V0L0,24.02Z" transform="matrix(-0.985, -0.174, 0.174, -0.985, -22139.211, -21742.793)" fill="url(#linear-gradient)"/>
      <path id="Path_554" data-name="Path 554" d="M614.924,58.85,0,82.871V0L614.924,24.02Z" transform="matrix(-0.985, -0.174, 0.174, -0.985, -21533.629, -21636.014)" fill="url(#linear-gradient)"/>
    </g>
  </g>
  <g transform="matrix(1, 0, 0, 1, 0, 0)" filter="url(#Path_572)">
    <path id="Path_572-2" data-name="Path 572" d="M-142.71-39.18c0,16.02-.48,25.44-1.5,30.66-.6,3.18-1.2,3.78-3.78,3.78a50.974,50.974,0,0,1-6.36-.48,26.744,26.744,0,0,1,1.98,9.06c2.16.06,3.06.06,4.86.06a21.147,21.147,0,0,0,6.9-.78,7.184,7.184,0,0,0,4.56-5.04c1.5-4.98,2.28-16.62,2.4-34.26.06-9,.12-9.3.36-11.52a39.058,39.058,0,0,1-5.58.3h-17.94a70.986,70.986,0,0,1-7.56-.36v8.88c1.98-.18,4.2-.3,7.14-.3,0,3.3-.06,5.46-.06,6.54a49.129,49.129,0,0,1-4.02,18.18,30.126,30.126,0,0,1-9.06,11.4,25.752,25.752,0,0,1,5.88,7.92c5.88-5.22,9.24-9.66,11.76-15.78,2.82-6.66,4.32-15.78,4.44-26.64v-1.62Zm-28.8,23.64a56.117,56.117,0,0,0,5.46,5.22,28.13,28.13,0,0,1,4.56-6.9c-1.38-.96-1.8-1.32-3-2.16a55.159,55.159,0,0,0,5.88-7.98l-5.64-4.32a32.4,32.4,0,0,1-5.22,8.16,16.308,16.308,0,0,1-1.44-1.44,59.714,59.714,0,0,0,5.7-9.96,18.6,18.6,0,0,1,1.38-2.76l-3.6-4.74a17.881,17.881,0,0,1-4.02.24v-3.6a20.621,20.621,0,0,1,.36-5.04h-9.48a33.2,33.2,0,0,1,.3,5.1v3.54h-1.38a35.791,35.791,0,0,1-5.52-.3v8.76a46.792,46.792,0,0,1,5.34-.3h6.96a30.51,30.51,0,0,1-6.54,9,42.512,42.512,0,0,1-7.8,6.12,27.523,27.523,0,0,1,3.78,8.64,62.558,62.558,0,0,0,5.16-4.2c-.06,1.08-.06,2.22-.06,2.58v9.3a72.964,72.964,0,0,1-.36,7.74h9.54a70.609,70.609,0,0,1-.36-7.74Zm89.16,2.82v8.4c0,1.02-.36,1.2-2.16,1.2a41.342,41.342,0,0,1-4.38-.42,39.1,39.1,0,0,1,2.16,9.06c1.2.06,2.1.06,2.7.06,3.96,0,6.3-.42,7.74-1.26,1.86-1.2,2.76-3.42,2.76-6.9V-41.7a68.511,68.511,0,0,1,.24-7.38,52.07,52.07,0,0,1-7.2.3h-9.12a64.394,64.394,0,0,1-7.5-.3,79.474,79.474,0,0,1,.36,9.9c0,24.6-.78,31.32-4.08,36.36a30.1,30.1,0,0,1-4.32-5.76h1.68a37.824,37.824,0,0,1,4.56.18v-8.28a21.492,21.492,0,0,1-2.4.24V-37.2a31.192,31.192,0,0,1,3.12.18V-45.3a30.235,30.235,0,0,1-3.12.24v-.9a29.76,29.76,0,0,1,.24-4.44h-8.94a29.758,29.758,0,0,1,.24,4.44v.9h-5.64v-.9a30.8,30.8,0,0,1,.24-4.44h-8.94a30.8,30.8,0,0,1,.24,4.44v.9a18.315,18.315,0,0,1-3.6-.24v8.28a25.407,25.407,0,0,1,3.6-.18v20.76a20.92,20.92,0,0,1-4.02-.24V-8.4a36.133,36.133,0,0,1,4.44-.18h2.94a31.592,31.592,0,0,1-7.8,8.28,28.232,28.232,0,0,1,6.36,6.54,44.671,44.671,0,0,0,9.18-11.52l-5.46-3.3h11.4l-5.52,3.18a48.866,48.866,0,0,0,6.66,10.08A33.356,33.356,0,0,1-100.83.36a36.338,36.338,0,0,1,5.4,5.88c3.96-5.28,5.46-9.66,6.42-18.96Zm0-13.92v5.94h-6.06c.12-2.16.12-3,.18-5.94Zm0-8.04h-5.82v-5.58h5.82Zm-33.06,18.24V-19.2h5.64v2.76Zm0-9.18v-2.64h5.64v2.64Zm0-9.06V-37.2h5.64v2.52Zm97.02,13.2c3.9-.66,5.04-2.52,5.46-8.76a25.8,25.8,0,0,1,.42-3.78c-1.5.06-2.58.12-4.56.12H-29.25v-1.98h7.56c2.34,0,3.9.06,6.12.18a37.985,37.985,0,0,1-.24-5.34v-2.1a38.217,38.217,0,0,1,.24-5.22c-1.38.12-4.62.24-6.06.24h-7.62a19.355,19.355,0,0,1,.3-2.94h-9a24.873,24.873,0,0,1,.24,2.94h-4.2a22.109,22.109,0,0,1,.18-2.94h-8.94a22.1,22.1,0,0,1,.18,2.94h-9a45.052,45.052,0,0,1-5.58-.24v5.94a53.392,53.392,0,0,1,5.58-.18h8.88c-.06.84-.06,1.08-.18,1.92h-7.68a45.568,45.568,0,0,1-4.68-.18,46.908,46.908,0,0,1-3.6,11.76c1.5-.06,2.58-.12,4.5-.12h6.36c-2.58,1.98-6.18,3.3-12.54,4.5a32.957,32.957,0,0,1,3.72,7.26c1.68-.48,2.22-.66,3.3-1.02v9.06a48.558,48.558,0,0,1-.24,5.94c1.56-.06,3-.12,6.06-.12h1.98A48.123,48.123,0,0,1-68.13-.48a35.123,35.123,0,0,1,5.04,6.72c9-1.56,13.14-3.06,20.16-7.32L-47.85-3.6h15.3l-4.62,2.52a50.529,50.529,0,0,0,9.6,4.56,56.493,56.493,0,0,0,11.1,2.76A34.779,34.779,0,0,1-11.31-.84c-6.66-.3-10.86-1.08-15.06-2.76h2.16c3,0,4.5.06,6.06.12a50.566,50.566,0,0,1-.24-6.54Zm-5.76-5.7h-5.1v-2.04h7.2a5.157,5.157,0,0,1-.36,2.04Zm-13.56,0h-8.94a13.614,13.614,0,0,0,1.44-2.04h7.5Zm-13.92-8.7a14.645,14.645,0,0,1-.6,1.98h-4.38l.72-1.98Zm13.92,0v1.98h-5.58a19.106,19.106,0,0,0,.48-1.98Zm0-6.72v1.92h-4.44c.06-.84.06-1.08.12-1.92Zm8.46,0h4.56v1.92h-4.56Zm-23.4,20.22h25.26v1.56H-52.65Zm0,5.82h25.26v1.62H-52.65Zm0,5.88h25.26v1.56H-52.65Zm78-1.68H36.51v7.38c0,1.08-.48,1.32-2.64,1.32-1.68,0-4.02-.12-6.66-.36a29.8,29.8,0,0,1,2.4,8.64c2.34.12,4.5.18,6.54.18,7.26,0,9.54-1.74,9.54-7.32V-41.64a61.628,61.628,0,0,1,.3-7.68c-1.98.18-3.78.24-7.5.24H3.51c-3.42,0-4.92-.06-7.14-.24.18,2.28.3,4.68.3,8.22,0,25.62-.96,32.46-5.52,40.08A31.458,31.458,0,0,1-.69,5.82C2.55.3,4.11-4.8,4.95-12.36H16.41V-3.9a56.113,56.113,0,0,1-.36,7.62h9.6a60.45,60.45,0,0,1-.3-7.68Zm0-22.5V-40.5H36.51v5.64Zm-8.94,0H5.85V-40.5H16.41Zm8.94,8.34H36.51v5.76H25.35Zm-8.94,0v5.76H5.55c.12-2.64.12-3.3.18-5.76Zm44.94-6.36H58.59a38.455,38.455,0,0,1-5.94-.3v9a39.9,39.9,0,0,1,5.94-.3h2.1v5.7h-1.2a37.514,37.514,0,0,1-5.94-.3v8.88a28.968,28.968,0,0,1,5.04-.3h.48A29.749,29.749,0,0,1,51.99.06L59.37,5.7c3.6-4.2,5.22-7.02,7.68-13.08L60.69-10.5H98.43L92.91-7.86a66.911,66.911,0,0,1,7.14,13.2L108.21.3c-3.84-6.66-4.5-7.62-7.14-10.8a32.922,32.922,0,0,1,5.64.3v-8.82a40.708,40.708,0,0,1-5.7.24h-.48v-5.7h1.62a38.933,38.933,0,0,1,5.94.3v-9a38.455,38.455,0,0,1-5.94.3h-1.62V-38.4a46.778,46.778,0,0,1,5.34.36v-9a61.623,61.623,0,0,1-7.68.36H70.35c.54-.78,1.08-1.56,1.44-2.22a9.275,9.275,0,0,1,1.08-1.62l-9.6-1.56a13.937,13.937,0,0,1-1.38,2.64c-2.34,3.54-5.46,6.48-10.56,9.9a25.921,25.921,0,0,1,5.76,6.42,54.1,54.1,0,0,0,4.26-3.42Zm7.5-5.52h2.76v5.52H68.85Zm10.38,0h2.82v5.52H79.23ZM68.85-24.48h2.76v5.7H68.85Zm10.38,0h2.82v5.7H79.23Zm10.38,5.7v-5.7h2.88v5.7Zm0-14.1V-38.4h2.88v5.52Zm2.82,36.3A86.8,86.8,0,0,0,88.95-9.66L80.61-7.92a90.275,90.275,0,0,1,2.58,13.2ZM78.27,4.8A93.516,93.516,0,0,0,76.89-9.12l-8.34.78a98.629,98.629,0,0,1,.54,10.56c0,1.14,0,1.62-.12,3.24Zm59.22-8.88a53.533,53.533,0,0,1,5.82-1.38l10.74-2.22V-2.1a50.785,50.785,0,0,1-.36,7.68h9.9a49.894,49.894,0,0,1-.36-7.62v-7.5c2.52-.54,4.08-.78,5.46-.96l-.6-9.36a41.241,41.241,0,0,1-4.86,1.32V-43.32a48.549,48.549,0,0,1,.36-7.56h-9.9a48.551,48.551,0,0,1,.36,7.56v3.18a60.942,60.942,0,0,0-9.24-7.32l-5.7,6.3a63.556,63.556,0,0,1,10.26,8.88l4.68-5.76v21.36l-11.58,2.4a45.866,45.866,0,0,1-5.46.72c.42-.96.6-1.38,1.2-2.7a30.734,30.734,0,0,1-7.02-6.9h1.98a27.48,27.48,0,0,1,4.92.3v-2.88a65.031,65.031,0,0,1,9.48,8.52L153.09-24a65.434,65.434,0,0,0-10.2-8.52l-4.8,5.28v-4.44a22.062,22.062,0,0,1-4.68.3h-2.82v-3.48l4.62,2.76a68.072,68.072,0,0,0,4.68-13.02l-6.24-3a67.135,67.135,0,0,1-3.06,11.16v-8.7a38.657,38.657,0,0,1,.24-5.28h-9.3a41.411,41.411,0,0,1,.24,5.34v14.22h-3.36a30.868,30.868,0,0,1-5.58-.3v8.82a34.238,34.238,0,0,1,5.64-.3h2.28a36.213,36.213,0,0,1-8.94,13.14,39.7,39.7,0,0,1,3.9,9.06c2.52-2.76,3.78-4.74,6.24-9.84-.12,1.44-.12,2.76-.12,4.92v5.4a42.649,42.649,0,0,1-.36,6.06h9.42a36.737,36.737,0,0,1-.3-5.82V-8.88a46.813,46.813,0,0,0-.18-4.68,27.3,27.3,0,0,0,4.56,5.88c.66-2.22.96-3.18,1.62-4.98ZM112.29-45a60.988,60.988,0,0,1,3.24,12.78l6.18-3.12a83.387,83.387,0,0,0-3.36-12.84Z" transform="translate(450 189)" fill="#fff"/>
  </g>
  <path id="Path_571" data-name="Path 571" d="M-257.82-21.92h-1.84a25.636,25.636,0,0,1-3.96-.2v6a26.6,26.6,0,0,1,3.96-.2h1.4v3.8h-.8a25.01,25.01,0,0,1-3.96-.2V-6.8a19.312,19.312,0,0,1,3.36-.2h.32A19.833,19.833,0,0,1-264.06.04l4.92,3.76a26.734,26.734,0,0,0,5.12-8.72L-258.26-7h25.16l-3.68,1.76a44.607,44.607,0,0,1,4.76,8.8L-226.58.2c-2.56-4.44-3-5.08-4.76-7.2a21.948,21.948,0,0,1,3.76.2v-5.88a27.139,27.139,0,0,1-3.8.16h-.32v-3.8h1.08a25.955,25.955,0,0,1,3.96.2v-6a25.636,25.636,0,0,1-3.96.2h-1.08V-25.6a31.186,31.186,0,0,1,3.56.24v-6a41.082,41.082,0,0,1-5.12.24h-18.56c.36-.52.72-1.04.96-1.48a6.182,6.182,0,0,1,.72-1.08l-6.4-1.04a9.291,9.291,0,0,1-.92,1.76,23.589,23.589,0,0,1-7.04,6.6,17.281,17.281,0,0,1,3.84,4.28,36.065,36.065,0,0,0,2.84-2.28Zm5-3.68h1.84v3.68h-1.84Zm6.92,0h1.88v3.68h-1.88Zm-6.92,9.28h1.84v3.8h-1.84Zm6.92,0h1.88v3.8h-1.88Zm6.92,3.8v-3.8h1.92v3.8Zm0-9.4V-25.6h1.92v3.68Zm1.88,24.2a57.867,57.867,0,0,0-2.32-8.72l-5.56,1.16a60.183,60.183,0,0,1,1.72,8.8Zm-9.44.92a62.343,62.343,0,0,0-.92-9.28l-5.56.52a65.751,65.751,0,0,1,.36,7.04c0,.76,0,1.08-.08,2.16Zm39.48-5.92a35.688,35.688,0,0,1,3.88-.92l7.16-1.48V-1.4a33.854,33.854,0,0,1-.24,5.12h6.6a33.263,33.263,0,0,1-.24-5.08v-5c1.68-.36,2.72-.52,3.64-.64l-.4-6.24a27.493,27.493,0,0,1-3.24.88V-28.88a32.366,32.366,0,0,1,.24-5.04h-6.6a32.364,32.364,0,0,1,.24,5.04v2.12a40.628,40.628,0,0,0-6.16-4.88l-3.8,4.2a42.371,42.371,0,0,1,6.84,5.92l3.12-3.84v14.24l-7.72,1.6a30.577,30.577,0,0,1-3.64.48c.28-.64.4-.92.8-1.8a20.49,20.49,0,0,1-4.68-4.6h1.32a18.32,18.32,0,0,1,3.28.2v-1.92a43.354,43.354,0,0,1,6.32,5.68l3.68-4.52a43.623,43.623,0,0,0-6.8-5.68l-3.2,3.52v-2.96a14.708,14.708,0,0,1-3.12.2h-1.88v-2.32l3.08,1.84a45.381,45.381,0,0,0,3.12-8.68l-4.16-2a44.756,44.756,0,0,1-2.04,7.44v-5.8a25.769,25.769,0,0,1,.16-3.52h-6.2a27.6,27.6,0,0,1,.16,3.56v9.48h-2.24a20.579,20.579,0,0,1-3.72-.2v5.88a22.825,22.825,0,0,1,3.76-.2h1.52a24.142,24.142,0,0,1-5.96,8.76,26.47,26.47,0,0,1,2.6,6.04,22.945,22.945,0,0,0,4.16-6.56c-.08.96-.08,1.84-.08,3.28v3.6a28.432,28.432,0,0,1-.24,4.04h6.28a24.492,24.492,0,0,1-.2-3.88V-5.92a31.211,31.211,0,0,0-.12-3.12,18.2,18.2,0,0,0,3.04,3.92c.44-1.48.64-2.12,1.08-3.32ZM-223.86-30a40.658,40.658,0,0,1,2.16,8.52l4.12-2.08a55.591,55.591,0,0,0-2.24-8.56Zm55.84,32.36a58.653,58.653,0,0,1-.24-6.12v-10.4a9.607,9.607,0,0,0,1.8.8,74.145,74.145,0,0,1,12.6,6.96l3.8-6.8a84.842,84.842,0,0,0-18.2-8.32V-27a51.72,51.72,0,0,1,.2-5.84h-7.72a37.844,37.844,0,0,1,.28,5.8V-3.76a57.089,57.089,0,0,1-.24,6.12ZM-138.1-25.6a52.227,52.227,0,0,1,5.8-.2h12.96c2.76,0,4.64.08,6.16.2v-6.72a38.363,38.363,0,0,1-6.28.32h-12.76a36.474,36.474,0,0,1-5.88-.32Zm-3.32,10a59.989,59.989,0,0,1,6.36-.24h17.32a17.4,17.4,0,0,1-6.16,8c-2.88,2.16-5.76,3.44-10.56,4.68a22.3,22.3,0,0,1,4.48,6.56c5.48-2.12,8.36-3.68,11.4-6.24,3.92-3.28,6.8-7.76,8.88-13.72a8.022,8.022,0,0,1,1.12-2.52l-3.12-3.36a6.51,6.51,0,0,1-3.2.44h-20.08a42.351,42.351,0,0,1-6.44-.32Zm66-17.56c-1.16,2-3.84,4.72-7.28,7.32a57.957,57.957,0,0,1-21.24,10.4A21.478,21.478,0,0,1-100.1-9a68.086,68.086,0,0,0,13.08-5.92V-3.88a54.347,54.347,0,0,1-.24,6.44h7.76a57.166,57.166,0,0,1-.24-6.48v-15.4a67.049,67.049,0,0,0,9.24-8.04,14.313,14.313,0,0,1,1.56-1.48Zm44.56,1.72c-.92.4-1.2.44-3.44.44H-55.26a38.076,38.076,0,0,1-6.48-.36v7a53.36,53.36,0,0,1,6.36-.28H-36.3a15.142,15.142,0,0,1-6.72,6.8,5.179,5.179,0,0,0-.92.48c0-.4.04-1.36.04-1.4a21.461,21.461,0,0,1,.2-3.44h-7.52a10.866,10.866,0,0,1,.24,2.76c0,5.32-.68,8.16-2.6,10.64-1.88,2.4-4.76,4.16-9.16,5.56a20.133,20.133,0,0,1,4.56,6.48A36.442,36.442,0,0,0-52.54.16,19.924,19.924,0,0,0-46.3-6.6a22.57,22.57,0,0,0,2.32-9.72,21,21,0,0,1,4.48,4.36A27.055,27.055,0,0,0-28.34-25.2a5.161,5.161,0,0,1,1.24-2.08ZM-19.5-32a29.317,29.317,0,0,1,.16,3.68c0,10.36-.64,15.32-2.52,19.24a17.866,17.866,0,0,1-4.76,6.36,21.694,21.694,0,0,1,5.72,5.6,26.61,26.61,0,0,0,5.56-8c1.92-4.36,2.72-8.8,2.96-17.16.28-7.92.28-7.92.44-9.28Zm11.36-.2a23.772,23.772,0,0,1,.16,3.12v1.44l-.2,23.68A8.757,8.757,0,0,1-8.62-.6L-5.18,3a8.951,8.951,0,0,1,1.96-.84C.82.68,2.78-.36,5.18-2.4A24.507,24.507,0,0,0,12.1-12.56a26.548,26.548,0,0,1-5.32-5.28A20.256,20.256,0,0,1,3.66-11a15.459,15.459,0,0,1-4.8,4.4l.2-20.96A28.626,28.626,0,0,1-.62-32.2Zm32.12,6.6h9.28a64.8,64.8,0,0,1,6.52.28v-7a49.355,49.355,0,0,1-6.6.28H21.22c-1.92,0-2.32,0-4-.08-.04,1.52-.08,2.48-.16,3.32L15.98-16.32c-.12,1.12-.24,2.08-.4,3.28l7.44.72c.88-1.96,2.52-2.96,5.04-2.96,3.36,0,5.52,2.08,5.52,5.28s-2.24,5.32-5.6,5.32c-2.88,0-4.56-1.24-5.24-3.88L14.7-7.32a12.644,12.644,0,0,0,2,4.48c2.32,3.2,6.28,4.92,11.32,4.92,8.48,0,13.52-4.56,13.52-12.24a10.833,10.833,0,0,0-3-8,11.608,11.608,0,0,0-8.6-3.28,10.46,10.46,0,0,0-6.48,1.92c.08-.68.12-1.08.12-1.28ZM71.9-8.64v5.28c0,.72-.24.88-1.36.88A47.8,47.8,0,0,1,64.3-3a23.465,23.465,0,0,1,1.68,6.24c1.92.08,3.36.12,4.56.12,3.24,0,4.76-.28,5.88-1.04,1.24-.84,1.76-2.24,1.76-4.84V-28.04a34.228,34.228,0,0,1,.2-4.92,38.864,38.864,0,0,1-5.04.2H55.3a48.452,48.452,0,0,1-5.24-.2,55.765,55.765,0,0,1,.24,6.2c0,10.92-.4,15.6-1.6,19.16a14.972,14.972,0,0,1-3.8,6.24,20.317,20.317,0,0,1,5.08,5.2A24.179,24.179,0,0,0,55.82-8.64ZM56.38-14.12c.12-1.52.16-2.24.24-3.88H71.9v3.88Zm.28-9.36v-3.48H71.9v3.48ZM84.94-7.44a14.866,14.866,0,0,0,.68,2.12A10.83,10.83,0,0,0,89.74-.16c2.12,1.4,5.72,2.24,9.32,2.24A21.58,21.58,0,0,0,107.38.52a10.021,10.021,0,0,0,3.76-3,8.923,8.923,0,0,0,1.6-5.32,7.878,7.878,0,0,0-2.64-5.92,9.006,9.006,0,0,0-5.16-2.12c4.6-1.08,6.88-3.72,6.88-7.96a7.749,7.749,0,0,0-2.24-5.68c-2.28-2.2-5.88-3.4-10.24-3.4-4.88,0-8.56,1.36-11,4a11.494,11.494,0,0,0-2.68,5.08l8.64,1.24c.6-2.56,2.04-3.68,4.88-3.68,2.64,0,4.16,1.24,4.16,3.4,0,2.56-1.88,3.84-5.68,3.84a35.139,35.139,0,0,1-4.24-.24v6.88c1.56-.16,3.36-.24,4.92-.24a11.515,11.515,0,0,1,3.72.52,3.471,3.471,0,0,1,2.16,3.44c0,2.44-1.96,4-5.08,4a6.217,6.217,0,0,1-4.6-1.72,4.243,4.243,0,0,1-1.12-2.56Zm44.96,9.4a13.091,13.091,0,0,0,11.68-6.24c1.52-2.52,2.52-6.92,2.52-11.12a26.607,26.607,0,0,0-1.56-9.2,12.6,12.6,0,0,0-2.92-4.44,13.6,13.6,0,0,0-9.72-3.72,13.018,13.018,0,0,0-11.64,6.32c-1.52,2.52-2.52,6.88-2.52,11.08A26.542,26.542,0,0,0,117.3-6.2a12.6,12.6,0,0,0,2.92,4.44A13.275,13.275,0,0,0,129.9,1.96Zm0-27.96c3.88,0,5.96,3.6,5.96,10.44,0,7.12-2,10.72-5.92,10.72-3.96,0-6-3.68-6-10.84C123.94-22.2,126.14-26,129.9-26Zm25.16-6.44c-1.84,0-3.28-.08-4.6-.2.12,1.64.2,3.08.2,4.56V-2.16c0,2-.08,3.84-.24,5.48h6.6v-2h16.64v2h6.72a53.026,53.026,0,0,1-.24-5.48V-28.12c0-1.32.08-2.8.2-4.52a34.545,34.545,0,0,1-4.44.2Zm1.96,13.68v-7.76h16.64v7.76Zm16.64,5.72v8.36H157.02v-8.36Zm15.76-10.28h.68c.12,0,.52,0,1.08.04,1.48.08,1.48.08,3,.12,4.6.2,5.28.24,7.44.24.36,0,.76,0,1.68-.04V-22c.04.96.04.96.04,1.04v.6c-1.24.04-1.84.04-2.68.04a61.745,61.745,0,0,1-9.84-.64L190.74-15c1.2,0,1.4.04,3.16.12,2.28.12,4.12.16,6.44.16.6,0,2.24-.04,3.08-.04,0,.2.04,1,.08,2.36h-1.24a20.207,20.207,0,0,0-7.12,1.08c-3.2,1.2-5.04,3.6-5.04,6.52,0,4.64,3.72,7.32,10.28,7.32,4.36,0,7.4-1.12,8.72-3.16a6.949,6.949,0,0,0,.96-4.04,20.749,20.749,0,0,1,5.68,3.56,21.2,21.2,0,0,1,2.72,2.56L222.26-5c-.64-.4-.92-.56-1.52-.96a39.852,39.852,0,0,0-5.36-3.32,22.915,22.915,0,0,0-5.48-2.16c-.08-1.68-.08-1.68-.12-3.52,2.2-.08,6.04-.36,7.84-.56,1.72-.16,1.72-.16,2.56-.2l-.16-6.12a63.286,63.286,0,0,1-10.32,1.2v-2.52a78.5,78.5,0,0,0,8.04-.68c2.12-.28,2.36-.28,3.52-.36l-.2-6.12a61.568,61.568,0,0,1-11.36,1.4,24.874,24.874,0,0,1,.32-4.16h-7.04a27.941,27.941,0,0,1,.24,4.36c-1.2.04-1.72.04-2.2.04a57.453,57.453,0,0,1-11.52-.84ZM203.5-6.44s.04.44.04.68c0,1.8-.96,2.56-3.2,2.56-2,0-3.12-.6-3.12-1.6,0-1.24,1.4-1.92,3.84-1.92A8.637,8.637,0,0,1,203.5-6.44Zm55.88-9.36a22.67,22.67,0,0,0-3.08-5.4l-3.8,1.56a26.8,26.8,0,0,1,3,5.6Zm4.92-2.12a24.473,24.473,0,0,0-3.08-5.16l-3.76,1.52a26.2,26.2,0,0,1,3,5.36Zm-36.2-4a30.91,30.91,0,0,1,3.44-.52l13.84-1.24a16.368,16.368,0,0,0-3.92,3.4,13.694,13.694,0,0,0-3.4,9.04c0,5.08,2.44,8.76,7.16,10.96a30.213,30.213,0,0,0,10.12,2.24c.72.08.92.12,1.48.2l.92-7.6c-.56.04-.8.04-1.2.04a20.961,20.961,0,0,1-7.64-1.44c-2.28-1.08-3.36-2.64-3.36-4.92,0-3.28,2.36-6.68,6.36-9.12a18.748,18.748,0,0,1,9.16-2.8,6.083,6.083,0,0,1,1.12.08l-.36-7.24a22.951,22.951,0,0,1-4.4.32c-12.2.44-15.12.6-21.36,1-4.36.28-5.8.36-6.84.36-.32,0-.84,0-1.52-.04Z" transform="translate(450 282)" fill="#fff"/>
  <g id="Group_807" data-name="Group 807" transform="translate(-15.625 8)">
    <path id="Path_573" data-name="Path 573" d="M-123.63-20.16a26.068,26.068,0,0,1,3.03.12v-4.11a19.624,19.624,0,0,1-3.03.15h-4.65c.24-.48.3-.63.57-1.17l-4.53-.72a11.927,11.927,0,0,1-2.43,4.26v-2.52a16.611,16.611,0,0,1-2.7.15h-2.94l.54-1.08-4.5-.69c-.42,1.74-2.1,3.9-4.44,5.67a13.633,13.633,0,0,1,2.64,3.78c.6-.54.93-.81,1.26-1.17v8.4a23.718,23.718,0,0,1-.12,2.94c1.02-.06,1.32-.06,3.03-.06h1.44c-.03.69-.03.69-.03.93h-4.14a28.058,28.058,0,0,1-3.48-.18v3.9c1.05-.09,2.16-.15,3.48-.15h2.91c-1.05.81-2.52,1.17-5.37,1.35a16.42,16.42,0,0,1,2.61,3.51c4.59-.78,6.69-2.1,7.77-4.86h5.25V.3a16.719,16.719,0,0,1-.18,2.55h4.77a16.844,16.844,0,0,1-.18-2.58V-1.71h2.7a30.589,30.589,0,0,1,3.66.18V-5.46a28.252,28.252,0,0,1-3.66.18h-2.7v-.93h.48c1.68,0,2.1,0,3,.06a26.852,26.852,0,0,1-.12-3.27v-5.94a29.8,29.8,0,0,1,.12-3.3c-.39.03-.51.03-.81.03a14.7,14.7,0,0,0-.9-1.53Zm-8.04,1.56a15.362,15.362,0,0,0,1.2-1.56h.9a15.122,15.122,0,0,1,.81,1.56Zm-11.31,0h-.81c.45-.54.78-.96,1.23-1.56h.93A8.291,8.291,0,0,1-141-18.6Zm6.33,0a14.166,14.166,0,0,0-.84-1.56h1.59a13.3,13.3,0,0,1,2.07,1.56Zm.54,13.32c.03-.57.03-.57.03-.93h4.62v.93Zm-4.32-10.62h12.3v.81h-12.3Zm0,3.09h12.3v.78h-12.3Zm0,3.03h12.3v.81h-12.3Zm34.23,6.63a7.546,7.546,0,0,1-2.1-1.32,7.75,7.75,0,0,1-1.53-1.89c.39-1.17.66-2.07.84-2.79.06-.24.18-.72.36-1.47l-4.56-.84a19.062,19.062,0,0,1-.72,3,17.126,17.126,0,0,1-4.92,7.89,16.074,16.074,0,0,1,3.6,3.51,22.528,22.528,0,0,0,3.66-5.19,10.708,10.708,0,0,0,4.53,3.36c1.98.81,4.89,1.14,9.69,1.14,1.68,0,2.88-.03,6.03-.12A27,27,0,0,1-90.3-2.52c-3.6.3-5.76.39-8.4.39-1.08,0-1.92-.03-3.06-.12V-5.88h5.34a27.932,27.932,0,0,1,3.09.12v-4.32a20.51,20.51,0,0,1-3.09.15h-5.34v-2.79h4.17a29.685,29.685,0,0,1,3.21.12v-2.58h3.33a18.77,18.77,0,0,1-.15-2.61v-2.82a20.9,20.9,0,0,1,.12-2.37c-1.17.09-2.34.12-3.57.12h-7.68v-.63a9.234,9.234,0,0,1,.15-1.92h-5.07a9.363,9.363,0,0,1,.15,1.95v.6h-7.32c-1.29,0-2.4-.03-3.6-.12a21.993,21.993,0,0,1,.12,2.37v2.79a16.71,16.71,0,0,1-.15,2.64h3.39v2.58a29.155,29.155,0,0,1,3.15-.12h5.31ZM-95.61-16.8c-.69.03-1.11.03-1.98.03h-13.92c-.87,0-1.29,0-1.95-.03v-1.92h17.85Zm23.34,9.72h8.31a24.913,24.913,0,0,1,3.12.12v-3.78a24.6,24.6,0,0,1-2.85.12h-3.42v-.96h2.7c1.26,0,1.68.03,2.52.09v-2.82c-.75.06-1.2.09-2.55.09h-2.67v-1.02h2.7a24.828,24.828,0,0,1,2.52.09v-2.82a15.933,15.933,0,0,1-2.52.09h-2.7v-.96h3.42a21.92,21.92,0,0,1,2.58.12v-3.84a24.966,24.966,0,0,1-3.18.18h-2.16c.3-.42.45-.72.63-1.02.6-1.08.6-1.08.87-1.53l-4.41-.69a14.924,14.924,0,0,1-1.53,3.24h-2.76a14.387,14.387,0,0,0,1.41-2.55l-4.62-.78a17.284,17.284,0,0,1-5.55,7.86,31.2,31.2,0,0,0-3.54-1.89l-2.88,3.36a23.363,23.363,0,0,1,4.98,3.06l1.95-2.4a16.97,16.97,0,0,1,1.32,2.25,7.029,7.029,0,0,0,1.32-1.41c-.03.45-.03,1.02-.03,1.83v2.76c0,1.53-.03,2.31-.09,3.3.84-.06,1.41-.09,2.49-.09v1.26h-9.06a41.563,41.563,0,0,0,6.42-4.53l-2.16-3.78a30.534,30.534,0,0,1-5.43,3.72,9.457,9.457,0,0,1-1.41.66l2.22,3.9A14.163,14.163,0,0,1-88.2-6v4.47A37.356,37.356,0,0,1-84-1.71h7.11v.78a33.558,33.558,0,0,1-.18,3.78h4.98a27.859,27.859,0,0,1-.18-3.84v-.72h7.35a37.726,37.726,0,0,1,4.2.18V-5.97a28.989,28.989,0,0,1-3.69.15h-7.86V-7.08Zm-2.7-10.8v-.96h3.66v.96Zm0,2.64h3.66v1.02h-3.66Zm0,3.66h3.66v.96h-3.66Zm-12.6-10.86a20.925,20.925,0,0,1,5.16,3.33l2.91-3.48a24.563,24.563,0,0,0-5.04-3.06ZM-41.16-2.16v1.14a25.793,25.793,0,0,1-.15,3.39h3.99a28.59,28.59,0,0,1-.12-3.39V-2.16h1.89v.9c0,.51-.06.6-.51.6-.33,0-.66-.03-1.05-.06a14.857,14.857,0,0,1,.72,3.3c4.23-.09,4.92-.51,4.92-2.91V-10.44a25.8,25.8,0,0,1,.12-3.15,23.154,23.154,0,0,1-2.79.12h-9.57c-1.41,0-2.22-.03-3-.09v-.87h13.35a25.145,25.145,0,0,1,2.79.12v-4.11a30.7,30.7,0,0,1-3.36.12h-1.05v-1.44h.9a30.051,30.051,0,0,1,3.21.09v-4.14a19.907,19.907,0,0,1-3.21.18h-.9v-.42a10.131,10.131,0,0,1,.09-1.47h-4.56a8.256,8.256,0,0,1,.09,1.5v.39h-3v-.42a10.426,10.426,0,0,1,.09-1.47h-4.59a6.361,6.361,0,0,1,.12,1.5v.39h-.48c-1.2,0-2.07-.03-2.91-.09.18-.51.21-.63.33-1.02l-4.53-1.05a20.359,20.359,0,0,1-1.44,4.92,18.13,18.13,0,0,1-3.57,5.79,28.964,28.964,0,0,1,1.5,5.55,16.146,16.146,0,0,0,1.41-1.98c-.06,2.01-.06,2.67-.06,3.33V-.69a27.721,27.721,0,0,1-.18,3.45h4.77a23.381,23.381,0,0,1-.18-3.27,18.78,18.78,0,0,1,2.4,3.18A22.516,22.516,0,0,0-47.7-3.72a43.025,43.025,0,0,0,.75-5.91v9A24.524,24.524,0,0,1-47.1,2.7h4.26a17.58,17.58,0,0,1-.15-3.33V-2.16Zm0-2.91h-1.83V-6.33h1.83Zm3.72,0V-6.33h1.89v1.26Zm-3.72-4.02h-1.83v-1.23h1.83Zm3.72,0v-1.23h1.89v1.23Zm-14.64-9.36a25.324,25.324,0,0,0,1.71-4.41v3.21c.9-.06,1.38-.09,3.15-.09h.48v1.44h-.96c-1.62,0-2.1-.03-3.3-.12.09,1.17.12,1.92.12,3.69a69.045,69.045,0,0,1-.45,8.67,15.967,15.967,0,0,1-.75,2.97Zm9.72.15v-1.44h3v1.44Zm23.55-.93-4.17.63a30.144,30.144,0,0,1-4.41.48l.81,5.13a35.611,35.611,0,0,1,4.47-.84l4.14-.66.69,3.78-5.73.9a35.124,35.124,0,0,1-4.29.48l.81,5.1a32.066,32.066,0,0,1,4.11-.84L-16.44-6l.78,4.32a21.941,21.941,0,0,1,.54,4.17l5.7-.93a26.739,26.739,0,0,1-.9-4.02l-.84-4.35,5.67-.87c2.52-.36,2.52-.36,4.23-.54l-.9-5.07a27.956,27.956,0,0,1-4.32.93l-5.55.84-.72-3.78,4.68-.72c3.24-.48,3.24-.48,4.26-.57l-.84-5.04a28.58,28.58,0,0,1-4.29.87l-4.68.72-.33-1.65a24.452,24.452,0,0,1-.42-3.33l-5.52.84a19.32,19.32,0,0,1,.78,3.39ZM8.88-15.3l-1.8.3a27.309,27.309,0,0,1-3.18.33l.81,4.59a22.9,22.9,0,0,1,2.97-.69l1.95-.33,1.62,9.36a29.81,29.81,0,0,1,.54,4.17l5.22-.9a26.06,26.06,0,0,1-.99-4.17l-1.77-9.24,6.6-1.14a13.349,13.349,0,0,1-4.5,4.74A13.178,13.178,0,0,1,20.16-5.4a18.867,18.867,0,0,0,6-8.52,4.189,4.189,0,0,1,.75-1.62l-2.82-2.58a3.667,3.667,0,0,1-1.77.57l-8.85,1.47-.36-1.8a13.725,13.725,0,0,1-.27-2.58l-4.92.72a13.67,13.67,0,0,1,.63,2.55Zm24.3-3.69a32.04,32.04,0,0,1,8.16,6.33l3.54-4.68a43.765,43.765,0,0,0-8.25-5.88ZM35.04,1.17c.81-.24.99-.27,2.16-.54,5.58-1.29,8.43-2.4,11.67-4.5,4.2-2.7,7.05-6.24,9.78-12.15a19.368,19.368,0,0,1-4.41-4.02,27.62,27.62,0,0,1-2.94,5.88,18.04,18.04,0,0,1-8.79,7.41,30.1,30.1,0,0,1-9.03,2.16ZM64.53-4.98c.78-.96.81-1.02,1.11-1.38,2.43-2.94,3.81-4.65,5.4-6.78,1.17-1.56,1.17-1.56,1.59-1.56.33,0,.63.21,1.08.72,1.74,2.01,5.64,6.36,6.72,7.5C82.56-4.2,85.56-1.2,87.33.39L90-5.37a26.264,26.264,0,0,1-3.24-2.7,116.006,116.006,0,0,1-9.15-9.36c-2.46-2.79-3.33-3.36-5.1-3.36a4.676,4.676,0,0,0-2.28.57,9.4,9.4,0,0,0-2.52,2.49c-3.54,4.53-5.52,6.75-6.75,7.62ZM84.3-22.68a3.354,3.354,0,0,0-3.36,3.36,3.354,3.354,0,0,0,3.36,3.36,3.348,3.348,0,0,0,3.33-3.36A3.348,3.348,0,0,0,84.3-22.68Zm0,2.16a1.178,1.178,0,0,1,1.17,1.2,1.2,1.2,0,0,1-1.17,1.2,1.2,1.2,0,0,1-1.2-1.2A1.2,1.2,0,0,1,84.3-20.52ZM92.13-8.55c1.83-.15,2.82-.18,6.18-.18h14.28a57.9,57.9,0,0,1,6.18.18v-5.79a49.223,49.223,0,0,1-6.15.27H98.28a42.511,42.511,0,0,1-6.15-.27Zm30.15-10.44a32.04,32.04,0,0,1,8.16,6.33l3.54-4.68a43.765,43.765,0,0,0-8.25-5.88Zm1.86,20.16c.81-.24.99-.27,2.16-.54,5.58-1.29,8.43-2.4,11.67-4.5,4.2-2.7,7.05-6.24,9.78-12.15a19.368,19.368,0,0,1-4.41-4.02,27.62,27.62,0,0,1-2.94,5.88,18.04,18.04,0,0,1-8.79,7.41,30.1,30.1,0,0,1-9.03,2.16Z" transform="translate(466 74)" fill="#fff"/>
    <line id="Line_179" data-name="Line 179" x2="15.375" y2="31" transform="translate(294.625 46.5)" fill="none" stroke="#fff" stroke-linecap="round" stroke-width="2"/>
    <line id="Line_181" data-name="Line 181" x1="15.375" y2="31" transform="translate(622 46.5)" fill="none" stroke="#fff" stroke-linecap="round" stroke-width="2"/>
  </g>
</svg>
