<svg xmlns="http://www.w3.org/2000/svg" width="18.242" height="18.275" viewBox="0 0 18.242 18.275">
  <path id="Icon_feather-phone" data-name="Icon feather-phone" d="M18.333,14.1v2.5a1.667,1.667,0,0,1-1.817,1.667,16.492,16.492,0,0,1-7.192-2.558,16.25,16.25,0,0,1-5-5A16.492,16.492,0,0,1,1.767,3.483,1.667,1.667,0,0,1,3.425,1.667h2.5A1.667,1.667,0,0,1,7.592,3.1a10.7,10.7,0,0,0,.583,2.342A1.667,1.667,0,0,1,7.8,7.2L6.742,8.258a13.333,13.333,0,0,0,5,5L12.8,12.2a1.667,1.667,0,0,1,1.758-.375,10.7,10.7,0,0,0,2.342.583A1.667,1.667,0,0,1,18.333,14.1Z" transform="translate(-0.926 -0.833)" fill="none" stroke="#fff" stroke-linecap="round" stroke-linejoin="round" stroke-width="1.667"/>
</svg>
