<svg xmlns="http://www.w3.org/2000/svg" width="32.251" height="32.251" viewBox="0 0 32.251 32.251">
  <path id="Icon_awesome-phone-alt" data-name="Icon awesome-phone-alt" d="M31.332,22.791l-7.055-3.024a1.512,1.512,0,0,0-1.764.435l-3.124,3.817A23.349,23.349,0,0,1,8.227,12.857l3.817-3.124a1.508,1.508,0,0,0,.435-1.764L9.455.914A1.522,1.522,0,0,0,7.723.038L1.172,1.55A1.512,1.512,0,0,0,0,3.024,29.225,29.225,0,0,0,29.228,32.252,1.512,1.512,0,0,0,30.7,31.08l1.512-6.551a1.53,1.53,0,0,0-.883-1.739Z" transform="translate(0 0)" fill="#4597a0"/>
</svg>
