<svg xmlns="http://www.w3.org/2000/svg" width="333" height="50" viewBox="0 0 333 50">
  <g id="Group_677" data-name="Group 677" transform="translate(-1061 -31)">
    <path id="Union_17" data-name="Union 17" d="M-92,50a5,5,0,0,1-5-5V5a5,5,0,0,1,5-5H224a5,5,0,0,1,5,5V20.444l7,5.056-7,5.056V45a5,5,0,0,1-5,5Z" transform="translate(1158 31)" fill="#c00000"/>
    <path id="Path_563" data-name="Path 563" d="M11.016-5.273q-.094-2.25-.117-2.859-1.008.023-1.816.023-1.687,0-3.129-.129-.352,0-.387-.4a12.1,12.1,0,0,1-.141-2.039,32.2,32.2,0,0,0,3.867.223q.75,0,1.535-.035l-.047-2.754q-1.43.047-2.414.047a29.976,29.976,0,0,1-3.328-.164.356.356,0,0,1-.41-.34q-.105-.879-.164-2.156a61.58,61.58,0,0,0,6.293.234q0-.691-.047-2.332a7.581,7.581,0,0,0-.293-1.605,14.174,14.174,0,0,1,3.023.434.439.439,0,0,1,.34.457.492.492,0,0,1-.07.258,2.96,2.96,0,0,0-.363,1.16q-.012.27-.023.727-.012.527-.023.809a43.344,43.344,0,0,0,5.25-.727.839.839,0,0,1,.176-.023q.211,0,.234.316a12.684,12.684,0,0,1,.117,1.746q0,.352-.258.387a51.327,51.327,0,0,1-5.543.621l.023,2.719q1.09-.07,4.7-.621a.82.82,0,0,1,.2-.035q.164,0,.188.223.07,1.371.07,1.969,0,.3-.363.34-2.52.41-4.7.574Q13.5-5.8,13.559-4.84a21.9,21.9,0,0,1,6.363,2.895.5.5,0,0,1,.211.34.993.993,0,0,1-.047.234A5.383,5.383,0,0,1,19.031.41a.368.368,0,0,1-.3.188.37.37,0,0,1-.27-.117,19.287,19.287,0,0,0-4.77-2.73A3.228,3.228,0,0,1,12.3.656a6.6,6.6,0,0,1-3.492.738A5.95,5.95,0,0,1,5.027.34a2.809,2.809,0,0,1-1.113-2.3A2.922,2.922,0,0,1,5.4-4.512a5.959,5.959,0,0,1,3.316-.855Q9.891-5.367,11.016-5.273ZM11.063-3a9.652,9.652,0,0,0-2.227-.281q-2.59,0-2.59,1.266,0,1.078,2.379,1.078a2.668,2.668,0,0,0,2.18-.715A2.488,2.488,0,0,0,11.063-3Zm24.75-12.715q-.012-.352-.023-1.1-.012-.562-.023-.891a9.831,9.831,0,0,0-.293-1.758,20.94,20.94,0,0,1,2.813.34q.668.117.668.457a1.261,1.261,0,0,1-.211.551,2.3,2.3,0,0,0-.2.691q-.012.152-.047,1.535,3.2-.117,7.371-.117.223,0,.281.07a.542.542,0,0,1,.07.293q.023.469.023.9t-.023.914q0,.316-.3.316H45.82q-2.25-.059-4.629-.059-1.324,0-2.7.012,0,3,.023,4.465a6.833,6.833,0,0,1,.363,2.379,8.785,8.785,0,0,1-4.277,7.746,2.443,2.443,0,0,1-.937.457,1.345,1.345,0,0,1-.715-.363A5.371,5.371,0,0,0,31.125.164a9.482,9.482,0,0,0,3.516-2.531,6.148,6.148,0,0,0,1.406-2.742,2.527,2.527,0,0,1-2.25.961,3.092,3.092,0,0,1-2.5-1.1,3.851,3.851,0,0,1-.844-2.578,3.4,3.4,0,0,1,1.219-2.754,3.622,3.622,0,0,1,2.4-.844,2.771,2.771,0,0,1,1.828.48l-.023-2.449q-5.238.293-8.309.715a5.185,5.185,0,0,0-.715.188,1.771,1.771,0,0,1-.41.105.412.412,0,0,1-.41-.34,15.8,15.8,0,0,1-.6-2.414q.352.035.762.035t2.168-.141Q30.316-15.4,35.813-15.715ZM34.277-9.551a1.587,1.587,0,0,0-1.137.434,1.481,1.481,0,0,0-.457,1.125,1.615,1.615,0,0,0,.5,1.277,1.5,1.5,0,0,0,1.031.363,1.624,1.624,0,0,0,1.219-.469,1.667,1.667,0,0,0,.422-1.2A1.453,1.453,0,0,0,35.367-9.2,1.617,1.617,0,0,0,34.277-9.551Zm6.6-9.867,1.266-.891a.268.268,0,0,1,.152-.059.375.375,0,0,1,.211.105A10.427,10.427,0,0,1,44.777-17.7a.342.342,0,0,1,.07.176.263.263,0,0,1-.129.211l-1.008.75a.408.408,0,0,1-.2.07q-.105,0-.211-.152A11.889,11.889,0,0,0,40.875-19.418Zm2.754-.914,1.207-.867a.314.314,0,0,1,.152-.059.375.375,0,0,1,.211.105,9.351,9.351,0,0,1,2.273,2.473.408.408,0,0,1,.07.2.3.3,0,0,1-.141.234l-.961.75a.351.351,0,0,1-.187.07.287.287,0,0,1-.223-.152A11.355,11.355,0,0,0,43.629-20.332ZM63.4-5.977q-.047-1.98-.094-5.5-1.687.059-2.637.059-1.289,0-2.309-.07-.4,0-.422-.316a12.774,12.774,0,0,1-.176-2.191q1.594.152,3.2.152,1.125,0,2.273-.082l-.023-2.52a10.673,10.673,0,0,0-.316-2.344,15.689,15.689,0,0,1,2.906.445q.434.129.434.41a1.593,1.593,0,0,1-.141.41,2.79,2.79,0,0,0-.2.844q-.047.809-.047,2.543,1.605-.141,3.41-.434a.659.659,0,0,1,.152-.023q.176,0,.234.3a8.442,8.442,0,0,1,.141,1.711.318.318,0,0,1-.27.363,23.857,23.857,0,0,1-3.691.5q0,3.539.176,6.434a16.244,16.244,0,0,1,3.984,2.3q.188.129.188.246a.709.709,0,0,1-.07.234A13.8,13.8,0,0,1,69-.645a.315.315,0,0,1-.223.141.323.323,0,0,1-.211-.117,14.763,14.763,0,0,0-2.59-1.922Q65.672.574,61.582.574a4.834,4.834,0,0,1-3.328-1.02,2.991,2.991,0,0,1-.973-2.332,3.009,3.009,0,0,1,1.348-2.555,4.778,4.778,0,0,1,2.859-.832A9.6,9.6,0,0,1,63.4-5.977Zm.059,2.285a6.849,6.849,0,0,0-2.086-.316q-1.8,0-1.8,1.148,0,1.207,1.945,1.207a2.133,2.133,0,0,0,1.5-.516,1.371,1.371,0,0,0,.469-1.043A4.009,4.009,0,0,0,63.457-3.691ZM52.313-18.738a15.994,15.994,0,0,1,2.73.855q.363.2.363.48a1.273,1.273,0,0,1-.164.527,5.54,5.54,0,0,0-.434,1.324,43.563,43.563,0,0,0-1.2,8.742q0,2.063.07,3.07.176-.4.785-1.746.434-.949.7-1.594a7.034,7.034,0,0,0,.844,1.512.551.551,0,0,1,.141.34.758.758,0,0,1-.141.387A14.69,14.69,0,0,0,54.785-1.2a5.271,5.271,0,0,0-.059.738,5.253,5.253,0,0,0,.035.539V.129q0,.164-.293.258A9.833,9.833,0,0,1,52.676.8a.692.692,0,0,1-.187.035q-.176,0-.293-.316a20.7,20.7,0,0,1-1.031-7.324,62.285,62.285,0,0,1,.984-9.105,16.371,16.371,0,0,0,.2-2.156A5.852,5.852,0,0,0,52.313-18.738Zm25.43,14.25-3.164.047a.371.371,0,0,1-.234-.047.4.4,0,0,1-.035-.211V-6.387q0-.187.047-.223a.437.437,0,0,1,.223-.035L77.1-6.6V-9.844h-.7l-2.953.059q-.234,0-.234-.27V-11.8q0-.27.234-.27l2.953.047h.7v-2.4a15.89,15.89,0,0,1-1.207,1.148,1.324,1.324,0,0,1-.551.316q-.152,0-.527-.48A5.223,5.223,0,0,0,73.734-14.5a13.506,13.506,0,0,0,4.172-4.465,7.978,7.978,0,0,0,.6-1.441,12.9,12.9,0,0,1,2.063.6q.34.129.34.3a.4.4,0,0,1-.223.34,2.827,2.827,0,0,0-.551.7q-.434.691-.785,1.2h10.9l3.281-.047q.211,0,.246.047a.344.344,0,0,1,.047.223v1.723q0,.176-.059.211a.473.473,0,0,1-.234.035l-.293-.012q-.855-.023-1.887-.035v3.094h.387l2.941-.047q.246,0,.246.27v1.746q0,.27-.246.27l-2.941-.059h-.387V-6.6l2.4-.047q.188,0,.223.047a.4.4,0,0,1,.035.211V-4.7a.352.352,0,0,1-.041.217.352.352,0,0,1-.217.041l-3.176-.047ZM87.223-6.6h1.922V-9.844H87.223Zm-3.984,0h1.9V-9.844h-1.9ZM79.3-6.6h1.852V-9.844H79.3Zm7.922-5.426h1.922v-3.094H87.223Zm-3.984,0h1.9v-3.094h-1.9Zm-3.937,0h1.852v-3.094H79.3Zm-2.93,8.355q.07-.2.176-.2a1.132,1.132,0,0,1,.3.094l1.395.586q.27.117.27.234a.643.643,0,0,1-.059.188,15.461,15.461,0,0,1-2.836,4.207.283.283,0,0,1-.211.141.8.8,0,0,1-.293-.141L73.758.5q-.234-.141-.234-.27a.4.4,0,0,1,.129-.211A12.171,12.171,0,0,0,76.371-3.668Zm15.41-.07A19.769,19.769,0,0,1,94.371.047a.4.4,0,0,1,.07.176q0,.105-.293.258l-1.512.844a.71.71,0,0,1-.258.082q-.105,0-.211-.187a23.877,23.877,0,0,0-2.426-4.008.313.313,0,0,1-.082-.164q0-.082.27-.211l1.324-.656a.646.646,0,0,1,.27-.094Q91.629-3.914,91.781-3.738Zm-4.641.527A20.974,20.974,0,0,1,88.371.6a.987.987,0,0,1,.023.164q0,.152-.316.223l-1.7.34a1.913,1.913,0,0,1-.27.035q-.141,0-.187-.234A21.011,21.011,0,0,0,84.914-2.73a.68.68,0,0,1-.035-.176q0-.117.316-.187l1.488-.316a1.41,1.41,0,0,1,.211-.023Q87.047-3.434,87.141-3.211Zm-5.133-.082h.176q.188,0,.234.246A23.4,23.4,0,0,1,82.969.938a.385.385,0,0,1,.012.094q0,.211-.328.246l-1.723.141q-.152.012-.211.012-.2,0-.2-.258a20.247,20.247,0,0,0-.41-3.961A1.243,1.243,0,0,1,80.1-2.93q0-.187.375-.211Zm19.219-16.816q1.3.035,2.438.164.387.035.387.246a1.413,1.413,0,0,1-.152.5,9.052,9.052,0,0,0-.164,2.414v4.512h.188l2.59-.047q.2,0,.234.047a.437.437,0,0,1,.035.223v1.7q0,.246-.27.246l-2.437-.047A22.816,22.816,0,0,0,107.309-6a7.239,7.239,0,0,0-.961,1.582q-.211.434-.34.434t-.375-.363a20.1,20.1,0,0,1-1.945-3.434l.164,9.41q0,.187-.059.234a.437.437,0,0,1-.223.035h-1.98q-.187,0-.223-.047a.437.437,0,0,1-.035-.223q0-.094.035-1.441.094-4.16.129-7.359A22.782,22.782,0,0,1,98.59-1.711q-.3.387-.434.387-.152,0-.281-.41a5.23,5.23,0,0,0-.867-1.746,20.7,20.7,0,0,0,3.867-6.668h-.434l-2.613.047q-.27,0-.27-.246v-1.7q0-.2.047-.234a.437.437,0,0,1,.223-.035l2.613.047h.984v-4.453A25.086,25.086,0,0,0,101.227-20.109Zm9.105,14.133L114-6.691V-16.3a26.474,26.474,0,0,0-.2-3.645q1.406.035,2.555.164.363.047.363.27a2.017,2.017,0,0,1-.152.48,12.543,12.543,0,0,0-.141,2.66v9.2q.891-.187,1.582-.363.117-.023.4-.105.129-.023.176-.035a.646.646,0,0,1,.129-.023q.094,0,.141.258l.281,1.875q.012.094.012.117,0,.129-.246.164-.07.023-.762.152-.832.152-1.711.328v2.238l.047,4.148a.371.371,0,0,1-.047.234.437.437,0,0,1-.223.035h-1.992q-.187,0-.223-.059a.366.366,0,0,1-.035-.211L114-2.543V-4.324l-3.293.656q-1.348.258-2.332.469-.211.035-.551.105l-.211.047a.8.8,0,0,1-.152.023q-.141,0-.164-.211l-.3-1.9a.987.987,0,0,1-.023-.164q0-.105.234-.152.059-.012.457-.07Q108.82-5.684,110.332-5.977Zm-1.16-6.855a16.042,16.042,0,0,1,3.316,3.07.462.462,0,0,1,.117.223q0,.082-.187.281l-1.184,1.172q-.2.188-.281.188t-.2-.141A19.7,19.7,0,0,0,107.59-11.3a.916.916,0,0,1-.164-.2q0-.07.188-.258l1.1-1.055q.164-.176.223-.176T109.172-12.832Zm.645-5.555a16.359,16.359,0,0,1,3.387,3.059.3.3,0,0,1,.105.2q0,.094-.176.258l-1.148,1.125q-.223.211-.293.211t-.164-.141a16.45,16.45,0,0,0-3.27-3.152q-.129-.082-.129-.176a.406.406,0,0,1,.176-.27l1.055-1.008q.211-.187.27-.187A.366.366,0,0,1,109.816-18.387Zm-5.637,4.441a21.247,21.247,0,0,0,1.1-3.621,8.044,8.044,0,0,0,.152-1.031q1.43.48,1.816.668.27.141.27.293a.242.242,0,0,1-.141.234.946.946,0,0,0-.293.539,30.442,30.442,0,0,1-1.1,3.047q-.211.5-.363.5a1.31,1.31,0,0,1-.48-.223A6.705,6.705,0,0,0,104.18-13.945Zm-4.629-4.266a19.84,19.84,0,0,1,1.289,4.031.5.5,0,0,1,.023.129q0,.176-.328.3l-1.031.387a1.132,1.132,0,0,1-.293.082q-.105,0-.141-.234a18.5,18.5,0,0,0-1.219-4.008.54.54,0,0,1-.047-.187q0-.129.3-.246l1.008-.41a.709.709,0,0,1,.234-.07Q99.445-18.434,99.551-18.211ZM131.2-12.34a35.942,35.942,0,0,1,7.629,3.27q.316.164.316.41a.576.576,0,0,1-.047.211,13.641,13.641,0,0,1-1.031,2.086q-.152.27-.316.27a.4.4,0,0,1-.27-.117,26.447,26.447,0,0,0-6.3-3.082v5.309q0,1.313.094,4.7v.07q0,.293-.434.293-.539.035-1.066.035t-1.066-.035q-.457,0-.457-.363.094-2.32.094-4.723V-15.82a21.683,21.683,0,0,0-.234-3.551,16.917,16.917,0,0,1,3,.387q.457.094.457.41a1.243,1.243,0,0,1-.2.551,7.954,7.954,0,0,0-.164,2.25Zm18.727-6.094q1.711.164,3.938.164h4.324q1.453,0,3.762-.117.293,0,.293.375.035.469.035.938t-.035.938q0,.48-.34.48h-.094l-3.387-.047H153.68q-1.969,0-3.293.094-.3,0-.34-.527A17.407,17.407,0,0,1,149.93-18.434Zm-2.086,5.121a44.219,44.219,0,0,0,4.418.188h8.227a2.566,2.566,0,0,0,1.277-.27.523.523,0,0,1,.3-.141.635.635,0,0,1,.363.164,13.364,13.364,0,0,1,1.617,1.488.733.733,0,0,1,.234.5.567.567,0,0,1-.27.457,3.369,3.369,0,0,0-.809,1.125,24.137,24.137,0,0,1-4.383,6.621,22.137,22.137,0,0,1-5.414,4,1.351,1.351,0,0,1-.48.164A.819.819,0,0,1,152.4.7a7.3,7.3,0,0,0-2.227-1.254,21.9,21.9,0,0,0,6.4-4.371,15.777,15.777,0,0,0,3.68-5.637l-8.191.023q-2,0-3.6.094-.281,0-.352-.457A20.807,20.807,0,0,1,147.844-13.312Zm34.9.879v7.945q0,2.109.07,4.992v.07q0,.34-.363.34-.586.035-1.2.035t-1.2-.035q-.34,0-.34-.3V.527q.012-.562.059-2.66.035-1.371.035-2.262v-5.59a37.846,37.846,0,0,1-6.6,4.605.719.719,0,0,1-.363.094.733.733,0,0,1-.5-.234,8.859,8.859,0,0,0-2.062-1.418,42.039,42.039,0,0,0,7.559-4.922,37.977,37.977,0,0,0,5.109-5.016,8.393,8.393,0,0,0,1.523-2.473,20.569,20.569,0,0,1,2.66,1.688.4.4,0,0,1,.188.352.614.614,0,0,1-.34.527,9.178,9.178,0,0,0-1.43,1.324A40.911,40.911,0,0,1,182.742-12.434Zm11.871-5.039q2.285.164,4.875.164h10.289a5.912,5.912,0,0,0,1.664-.141,2.968,2.968,0,0,1,.457-.176.789.789,0,0,1,.551.34,12.492,12.492,0,0,1,1.441,1.512.682.682,0,0,1,.188.434.641.641,0,0,1-.34.5,3.138,3.138,0,0,0-.645.691A20.016,20.016,0,0,1,208.875-9.5a.714.714,0,0,1-.5.211.906.906,0,0,1-.586-.234,5.8,5.8,0,0,0-1.992-1,25,25,0,0,0,2.555-2.121,14.17,14.17,0,0,0,1.746-2.074H199.723q-1.441,0-4.242.188a.389.389,0,0,1-.434-.363A23.045,23.045,0,0,1,194.613-17.473ZM196.055-.762A13.953,13.953,0,0,0,199.313-3a9.588,9.588,0,0,0,1.758-2.344,12.037,12.037,0,0,0,1.172-5.672,10.051,10.051,0,0,0-.234-2.25,22.547,22.547,0,0,1,3.094.457.448.448,0,0,1,.41.457.96.96,0,0,1-.117.422,2.476,2.476,0,0,0-.223.984,15.541,15.541,0,0,1-1.418,6.609A12.352,12.352,0,0,1,199.395.445a1.27,1.27,0,0,1-.68.234.672.672,0,0,1-.48-.223A6.992,6.992,0,0,0,196.055-.762Zm34.406-4.3a25.056,25.056,0,0,0,3.41-2.238,23.177,23.177,0,0,0,4.2-4.078,6.789,6.789,0,0,0,.75,2.426,1.821,1.821,0,0,1,.141.41.953.953,0,0,1-.363.6,30.722,30.722,0,0,1-3.551,3.152,42.548,42.548,0,0,1-4.266,2.883q-.34.223-.691.5a.777.777,0,0,1-.492.188,1.089,1.089,0,0,1-.5-.187,6.751,6.751,0,0,1-1.441-1.465,1.072,1.072,0,0,1-.211-.5.81.81,0,0,1,.094-.363,6.22,6.22,0,0,0,.141-1.828v-7.512a23.1,23.1,0,0,0-.246-4.184,25.372,25.372,0,0,1,3.012.5q.434.105.434.41a1.526,1.526,0,0,1-.187.609,8.671,8.671,0,0,0-.223,2.66Zm-8.379-10.676a18.882,18.882,0,0,1,3.047.527q.387.105.387.434a.843.843,0,0,1-.07.3,3.657,3.657,0,0,0-.293,1.629,18.073,18.073,0,0,1-1.3,7.055,12.2,12.2,0,0,1-3.41,4.512,1.125,1.125,0,0,1-.621.316.857.857,0,0,1-.457-.187,8.555,8.555,0,0,0-2.039-1.008,12.344,12.344,0,0,0,3.984-4.781,11.85,11.85,0,0,0,.773-2.777,28.815,28.815,0,0,0,.234-4.008A7.935,7.935,0,0,0,222.082-15.738Zm25.934,2.32q.363-1.3.715-3.023a15.888,15.888,0,0,0,.246-2.66,21.519,21.519,0,0,1,2.871.785.474.474,0,0,1,.387.48.5.5,0,0,1-.164.363,3.157,3.157,0,0,0-.48.914q-.176.539-.457,1.523-.27.9-.41,1.359a15.761,15.761,0,0,1,1.875-.105,3.038,3.038,0,0,1,2.7,1.289,5.45,5.45,0,0,1,.785,3.152,26.187,26.187,0,0,1-.387,4.535,12.71,12.71,0,0,1-.914,3.176,3.381,3.381,0,0,1-3.234,2.25,8.108,8.108,0,0,1-2.379-.27.623.623,0,0,1-.434-.668,7.767,7.767,0,0,0-.445-2.227,7.465,7.465,0,0,0,2.637.527,1.409,1.409,0,0,0,.973-.3,2.762,2.762,0,0,0,.563-.973,16.845,16.845,0,0,0,.938-5.941,3.445,3.445,0,0,0-.328-1.828,1.216,1.216,0,0,0-1.043-.41,15.65,15.65,0,0,0-2.016.164A70.514,70.514,0,0,1,245.18-.023q-.129.293-.352.293a.584.584,0,0,1-.27-.082,6.829,6.829,0,0,1-1.664-1.055.524.524,0,0,1-.187-.352.452.452,0,0,1,.094-.27A54.747,54.747,0,0,0,247.2-10.9q-.82.129-2.344.41a8.365,8.365,0,0,0-1.324.387.884.884,0,0,1-.293.059.5.5,0,0,1-.48-.375,23.114,23.114,0,0,1-.738-2.473q1.324,0,3.164-.164Q246.48-13.184,248.016-13.418Zm8.543-.187q1.348-.914,1.945-1.23a.328.328,0,0,1,.164-.047.452.452,0,0,1,.293.164,15.648,15.648,0,0,1,3.984,5.836.541.541,0,0,1,.059.211.36.36,0,0,1-.152.27,7.231,7.231,0,0,1-1.8,1.2.515.515,0,0,1-.246.07.3.3,0,0,1-.3-.258A16.4,16.4,0,0,0,256.559-13.605ZM271.1-17.66a13.566,13.566,0,0,1,1.418-1.875.439.439,0,0,1,.3-.152.557.557,0,0,1,.152.023,16.267,16.267,0,0,1,4.711,2.859.38.38,0,0,1,.164.27.7.7,0,0,1-.117.281,13.276,13.276,0,0,1-1.23,1.688q-.152.188-.258.188a.452.452,0,0,1-.293-.164A19,19,0,0,0,271.1-17.66Zm-1.676,3.328a14.278,14.278,0,0,1,2.5.867q.387.176.387.457a.73.73,0,0,1-.117.363,4.541,4.541,0,0,0-.48,1.266,36.966,36.966,0,0,0-.586,4.371,13.673,13.673,0,0,1,4.02-2.871,9.539,9.539,0,0,1,4.008-.926,5.629,5.629,0,0,1,4.289,1.594,4.907,4.907,0,0,1,1.3,3.539q0,3.563-3.621,5.379a19.259,19.259,0,0,1-6.152,1.652,2.876,2.876,0,0,1-.375.035.656.656,0,0,1-.586-.34,6.544,6.544,0,0,0-1.629-2.039,19.277,19.277,0,0,0,6.6-1.348q2.836-1.219,2.836-3.621a2.292,2.292,0,0,0-.762-1.816,3.147,3.147,0,0,0-2.121-.656,7.487,7.487,0,0,0-3.633,1.1,14.878,14.878,0,0,0-3.281,2.543,7.275,7.275,0,0,0-1.031,1.324.359.359,0,0,1-.293.211,1.131,1.131,0,0,1-.258-.047,13.856,13.856,0,0,1-1.629-.645.477.477,0,0,1-.34-.48q.188-3.621.738-7.746A20.186,20.186,0,0,0,269.426-14.332Z" transform="translate(1079.184 65)" fill="#fff"/>
  </g>
</svg>
