<svg xmlns="http://www.w3.org/2000/svg" width="77" height="77" viewBox="0 0 77 77">
  <g id="Group_759" data-name="Group 759" transform="translate(-512 -849)">
    <circle id="Ellipse_38" data-name="Ellipse 38" cx="38.5" cy="38.5" r="38.5" transform="translate(512 849)" fill="#4597a0"/>
    <path id="Path_569" data-name="Path 569" d="M-4.6-8.691a6.38,6.38,0,0,0,.546,2.813A3.737,3.737,0,0,0-.371-3.828,4.076,4.076,0,0,0,2.483-4.951,4.178,4.178,0,0,0,3.7-8.184a3.642,3.642,0,0,0-2.259-3.73,11.433,11.433,0,0,0-4.05-.527v-3.984a10.471,10.471,0,0,0,3.776-.527,3.259,3.259,0,0,0,1.849-3.32,3.717,3.717,0,0,0-.945-2.637A3.453,3.453,0,0,0-.586-23.926a3.361,3.361,0,0,0-2.893,1.25,5.313,5.313,0,0,0-.886,3.34h-5.2a13.99,13.99,0,0,1,.722-4,9.014,9.014,0,0,1,2.146-3.066A7.475,7.475,0,0,1-4.1-27.93,11.219,11.219,0,0,1-.41-28.457a9.806,9.806,0,0,1,6.546,2.1,7,7,0,0,1,2.487,5.635A6.229,6.229,0,0,1,7.139-16.5a5.069,5.069,0,0,1-1.953,1.465A4.017,4.017,0,0,1,7.373-13.73,6.988,6.988,0,0,1,9.5-8.34,9.084,9.084,0,0,1,7.014-2.021Q4.526.7-.352.7-6.361.7-8.7-3.223a11.662,11.662,0,0,1-1.366-5.469Z" transform="translate(551 915)" fill="#fff"/>
    <path id="Path_568" data-name="Path 568" d="M-18.66-3.7A3.136,3.136,0,0,0-18.2-2.117,3.055,3.055,0,0,0-15.473-.977a4.826,4.826,0,0,0,1.594-.25,1.771,1.771,0,0,0,1.391-1.734A1.5,1.5,0,0,0-13.074-4.3a5.916,5.916,0,0,0-1.859-.68l-1.555-.352a7.04,7.04,0,0,1-2.156-.758,2.4,2.4,0,0,1-1.094-2.148,3.308,3.308,0,0,1,1.07-2.539,4.294,4.294,0,0,1,3.031-.992,5.265,5.265,0,0,1,3.066.871,3.144,3.144,0,0,1,1.262,2.785H-12.77a2.876,2.876,0,0,0-.5-1.414,2.9,2.9,0,0,0-2.414-.9,2.793,2.793,0,0,0-1.977.578,1.809,1.809,0,0,0-.6,1.344,1.312,1.312,0,0,0,.7,1.234,10.318,10.318,0,0,0,2.086.625l1.609.367a4.931,4.931,0,0,1,1.8.727,2.721,2.721,0,0,1,1.094,2.336A2.916,2.916,0,0,1-12.359-.484a6.21,6.21,0,0,1-3.223.82A4.819,4.819,0,0,1-18.934-.758,3.69,3.69,0,0,1-20.121-3.7ZM-.652-11.477v1.367H-4.52V0H-6.1V-10.109H-9.965v-1.367Zm1.57,0H9.285v1.406H2.434v3.484H8.77v1.328H2.434v3.891H9.4V0H.918Zm10.672,0h5.164a3.5,3.5,0,0,1,2.469.863,3.133,3.133,0,0,1,.938,2.426,3.527,3.527,0,0,1-.836,2.34,3.167,3.167,0,0,1-2.57,1H13.145V0H11.59Zm7,3.3A1.727,1.727,0,0,0,17.652-9.9a3.385,3.385,0,0,0-1.414-.242H13.145v3.977h3.094a2.957,2.957,0,0,0,1.7-.445A1.765,1.765,0,0,0,18.59-8.18Z" transform="translate(551 877)" fill="#fff"/>
  </g>
</svg>
