<svg xmlns="http://www.w3.org/2000/svg" width="166.26" height="48.75" viewBox="0 0 166.26 48.75">
  <path id="Path_578" data-name="Path 578" d="M6.621-40.576a2.355,2.355,0,0,1-1.685-.688,2.347,2.347,0,0,1-.718-1.772,2.165,2.165,0,0,1,.732-1.685,2.427,2.427,0,0,1,1.67-.659,2.583,2.583,0,0,1,1.714.63,2.124,2.124,0,0,1,.747,1.714,2.349,2.349,0,0,1-.732,1.743A2.388,2.388,0,0,1,6.621-40.576ZM5.186,0V-32.4h2.9V0ZM58.447,0V-32.2q0-1.172.352-6.68h-.117q-1,2.549-1.641,3.955L40.9,0H39.873l-16.2-34.746a25.991,25.991,0,0,1-1.494-4.277h-.146q.234,3.047.234,6.064V0H19.131V-45.381h2.9L38.965-8.818a8.874,8.874,0,0,1,.352.85q.176.527.41,1.084.322.82.645,1.816h.205l.352-1q.029-.146,1.084-3.018l16.67-36.3h2.783V0ZM73.154-16.084q0,6.68,3.076,10.444A10.339,10.339,0,0,0,84.7-1.875,17.227,17.227,0,0,0,95.332-5.889v3.105A18.948,18.948,0,0,1,84.111.791a12.725,12.725,0,0,1-10.137-4.5q-3.867-4.5-3.867-12.671A18.074,18.074,0,0,1,74.15-28.33a13,13,0,0,1,10.488-4.863q6.035,0,9.272,4.248t3.237,11.572v1.289ZM94.1-18.721q-.205-5.625-2.7-8.716a8.354,8.354,0,0,0-6.885-3.091,10.141,10.141,0,0,0-7.559,3.047q-2.988,3.047-3.691,8.76ZM128.174,0V-5.889h-.117a11.8,11.8,0,0,1-4.687,4.878,13.7,13.7,0,0,1-7,1.8,12.308,12.308,0,0,1-9.756-4.365q-3.779-4.365-3.779-12.07,0-7.822,4.131-12.686a13.408,13.408,0,0,1,10.723-4.863q7.266,0,10.371,5.977h.117V-47.959h2.93V0Zm0-19.717a11,11,0,0,0-2.856-7.661,9.87,9.87,0,0,0-7.69-3.149,10.579,10.579,0,0,0-8.423,3.911q-3.325,3.911-3.325,10.737,0,6.709,2.988,10.356a9.507,9.507,0,0,0,7.705,3.647q5.537,0,8.569-3.428a12.2,12.2,0,0,0,3.032-8.379ZM166.7,0,156.24-17.314a31.1,31.1,0,0,1-1.67-3.164h-.146a24.063,24.063,0,0,1-1.816,3.164L141.973,0h-3.75l14.326-22.881-13.477-22.5h3.779L152.988-28.33q.791,1.348,1.641,3.047h.146l1.67-3.047,10.078-17.051h3.662L156.563-22.939,170.479,0Z" transform="translate(-4.219 47.959)" fill="#101010"/>
</svg>
