<svg xmlns="http://www.w3.org/2000/svg" width="528.875" height="60.508" viewBox="0 0 528.875 60.508">
  <g id="Group_789" data-name="Group 789" transform="translate(20804.289 22744.508)">
    <path id="Path_563" data-name="Path 563" d="M7.394-45.31a2.63,2.63,0,0,1-1.881-.769,2.621,2.621,0,0,1-.8-1.979,2.418,2.418,0,0,1,.818-1.881,2.71,2.71,0,0,1,1.865-.736,2.884,2.884,0,0,1,1.914.7,2.372,2.372,0,0,1,.834,1.914,2.624,2.624,0,0,1-.818,1.947A2.666,2.666,0,0,1,7.394-45.31ZM5.791,0V-36.183H9.029V0Z" transform="translate(-20809 -22688)" fill="#101010"/>
    <path id="Path_564" data-name="Path 564" d="M50.414,0V-35.954q0-1.309.393-7.459h-.131Q49.563-40.566,48.843-39L30.817,0H29.672L11.581-38.8a29.023,29.023,0,0,1-1.668-4.776H9.749q.262,3.4.262,6.772V0H6.51V-50.675H9.749L28.658-9.847a9.909,9.909,0,0,1,.393.949q.2.589.458,1.21.36.916.72,2.028h.229l.393-1.112q.033-.164,1.21-3.37L50.675-50.675h3.108V0Z" transform="translate(-20796 -22688)" fill="#101010"/>
    <path id="Path_565" data-name="Path 565" d="M35.985,0,23.609-20.489a36.8,36.8,0,0,1-1.976-3.744h-.173a28.475,28.475,0,0,1-2.149,3.744L6.726,0H2.288L19.241-27.076,3.293-53.7H7.766l12,20.177q.936,1.595,1.941,3.605h.173l1.976-3.605L35.777-53.7h4.333L23.99-27.145,40.458,0Z" transform="translate(-20665 -22688)" fill="#101010"/>
    <path id="Path_566" data-name="Path 566" d="M31.472,0V-6.576h-.131a13.171,13.171,0,0,1-5.234,5.447A15.293,15.293,0,0,1,18.288.883,13.744,13.744,0,0,1,7.394-3.991Q3.173-8.866,3.173-17.47q0-8.735,4.613-14.166A14.972,14.972,0,0,1,19.76-37.066q8.113,0,11.581,6.674h.131V-53.554h3.271V0Zm0-22.017a12.277,12.277,0,0,0-3.19-8.555,11.021,11.021,0,0,0-8.588-3.517,11.813,11.813,0,0,0-9.406,4.367q-3.713,4.367-3.713,11.99,0,7.492,3.337,11.565a10.616,10.616,0,0,0,8.6,4.073q6.183,0,9.569-3.828a13.62,13.62,0,0,0,3.386-9.356Z" transform="translate(-20703 -22688)" fill="#101010"/>
    <path id="Path_567" data-name="Path 567" d="M6.576-17.96q0,7.459,3.435,11.663a11.546,11.546,0,0,0,9.455,4.2A19.237,19.237,0,0,0,31.341-6.576v3.468A21.158,21.158,0,0,1,18.811.883,14.209,14.209,0,0,1,7.492-4.138Q3.173-9.16,3.173-18.288A20.183,20.183,0,0,1,7.688-31.635,14.518,14.518,0,0,1,19.4-37.066q6.739,0,10.354,4.744T33.369-19.4v1.439ZM29.967-20.9q-.229-6.281-3.01-9.733a9.329,9.329,0,0,0-7.688-3.451,11.324,11.324,0,0,0-8.44,3.4q-3.337,3.4-4.122,9.782Z" transform="translate(-20738 -22688)" fill="#101010"/>
    <path id="Path_568" data-name="Path 568" d="M7.773,0V-60.508H22.891q15.078,0,22.93,7.52t7.852,21.895q0,13.828-8.418,22.461T22.031,0Zm4.18-56.641V-3.789h9.492q13.438,0,20.664-6.992t7.227-20.156q0-25.7-27.07-25.7Z" transform="translate(-20367 -22684)" fill="#4597a0"/>
    <path id="Path_569" data-name="Path 569" d="M40.547,0,26.6-23.086A41.466,41.466,0,0,1,24.375-27.3h-.2a32.084,32.084,0,0,1-2.422,4.219L7.578,0h-5l19.1-30.508-17.969-30H8.75L22.266-37.773q1.055,1.8,2.188,4.063h.2l2.227-4.062L40.313-60.508H45.2L27.031-30.586,45.586,0Z" transform="translate(-20321 -22684)" fill="#4597a0"/>
    <path id="Path_570" data-name="Path 570" d="M47.514.2a.352.352,0,0,1-.4.4L40.392.5H10.658L3.91.6a.352.352,0,0,1-.4-.4V-2.167a.352.352,0,0,1,.4-.4l6.749.1h13.2V-13.92H17.581l-7.147.1a.352.352,0,0,1-.4-.4v-2.316a.352.352,0,0,1,.4-.4l7.147.1h6.275V-27.368H11.829a39.568,39.568,0,0,1-5.254,8.193q-.4.448-.573.448a2,2,0,0,1-.772-.5A5.662,5.662,0,0,0,3.412-20.3a42.645,42.645,0,0,0,8.517-15.539,9.2,9.2,0,0,0,.548-2.914,19.414,19.414,0,0,1,3.113.872q.623.2.623.548a1.1,1.1,0,0,1-.4.722,4.068,4.068,0,0,0-.822,1.619q-1.818,4.682-1.843,4.756H23.856v-4.233a44.639,44.639,0,0,0-.4-7q1.768.075,3.561.274.623.075.623.448a1.353,1.353,0,0,1-.1.423,3.39,3.39,0,0,0-.149.5,25.135,25.135,0,0,0-.324,5.254v4.333h9.438l7.147-.1a.352.352,0,0,1,.4.4v2.266a.352.352,0,0,1-.4.4l-7.147-.1H27.069v10.534h7.1l7.122-.1q.423,0,.423.4v2.316q0,.4-.423.4l-7.122-.1h-7.1V-2.465H40.392l6.724-.1a.352.352,0,0,1,.4.4ZM99.335-23.607q0,.4-.374.4l-7.172-.1h-7.6v8.367h4.333l6.574-.125a.352.352,0,0,1,.4.4l-.1,4.806V-5.5l.1,8.517q0,.349-.4.349H92.736q-.4,0-.4-.349V.772h-18.8v2.49q0,.423-.4.423H70.9q-.473,0-.473-.423l.1-8.616V-9.239l-.1-5.429q0-.4.448-.4l6.649.125h3.561v-8.367H74.209l-7.2.1q-.423,0-.423-.4v-2.216q0-.4.423-.4l7.2.1h6.873v-8.243q-4.233.9-10.359,1.768a5.029,5.029,0,0,1-.647.075q-.473,0-.772-.872a5.169,5.169,0,0,0-1.021-1.843,123.1,123.1,0,0,0,13.472-2.216,65.423,65.423,0,0,0,9.064-2.565,12.729,12.729,0,0,0,2.64-1.345,23.166,23.166,0,0,1,2.216,1.893,1.177,1.177,0,0,1,.4.722q0,.423-.623.5a10.39,10.39,0,0,0-1.917.473,91.934,91.934,0,0,1-9.338,2.689v8.965h7.6l7.172-.1q.374,0,.374.4Zm-7,21.665V-12.3h-18.8V-1.942ZM65.02-11.181Q62.53-5.354,59.442.423a13.043,13.043,0,0,0-1.071,2.142q-.125.5-.548.5a1.128,1.128,0,0,1-.672-.3q-1.2-.872-2.291-1.843a24.711,24.711,0,0,0,2.914-3.984q2.789-5.254,5.354-11.256A12.628,12.628,0,0,0,64.547-12.8q.722.573.722.822A4.1,4.1,0,0,1,65.02-11.181ZM63.526-23.01a.415.415,0,0,1,.149.274,1.792,1.792,0,0,1-.3.548l-1.021,1.419q-.324.473-.5.473-.1,0-.324-.2a39.773,39.773,0,0,0-7.022-5.728q-.249-.125-.249-.249a1.2,1.2,0,0,1,.3-.5l.971-1.295q.274-.374.448-.374a.806.806,0,0,1,.324.125A35.909,35.909,0,0,1,63.526-23.01Zm2.416-12.526a.565.565,0,0,1,.174.324,1.008,1.008,0,0,1-.3.523l-1.071,1.395q-.349.423-.523.423-.125,0-.274-.2a39.172,39.172,0,0,0-6.823-5.852q-.249-.174-.249-.274t.324-.473l1.121-1.295q.3-.324.473-.324a.662.662,0,0,1,.3.125A39.958,39.958,0,0,1,65.941-35.536Zm76.923,38.7a.352.352,0,0,1-.4.4H140.1a.352.352,0,0,1-.4-.4V1.469H115.846V3.362a.352.352,0,0,1-.4.4h-2.366a.352.352,0,0,1-.4-.4l.1-9.313v-4.532l-.1-6.2a.352.352,0,0,1,.4-.4l7.147.1h4.084l.7-1.644a13.547,13.547,0,0,0,.822-2.938,17.911,17.911,0,0,1,3.163.7q.523.224.523.523a.978.978,0,0,1-.4.722,2.166,2.166,0,0,0-.772.946l-.872,1.693h7.794l7.2-.1a.352.352,0,0,1,.4.4l-.1,5.528v5.1ZM139.7-1.071V-6.823H115.846v5.752Zm0-8.193v-5.18H115.846v5.18ZM125.682-24.8q0,2.366-1.121,3.163-1.146.921-5.6.921a1.49,1.49,0,0,1-.872-.149,3.054,3.054,0,0,1-.324-.872,5.72,5.72,0,0,0-.9-1.942q1.469.149,3.461.149a2.779,2.779,0,0,0,1.942-.473,1.982,1.982,0,0,0,.349-1.345V-37.8H112.011l-5.752.1q-.423,0-.423-.448v-1.992q0-.4.423-.4l5.752.1h7.446l5.827-.1a.352.352,0,0,1,.4.4l-.1,3.661v6.226Zm22.138,0A3.89,3.89,0,0,1,146.7-21.64q-1.146.847-5.678.921a1.425,1.425,0,0,1-.847-.149,2.4,2.4,0,0,1-.324-.772,8.308,8.308,0,0,0-.9-2.042q1.967.149,3.412.149a2.986,2.986,0,0,0,2.017-.473,1.888,1.888,0,0,0,.374-1.345V-37.8H134.249l-5.752.1q-.423,0-.423-.448v-1.992q0-.4.423-.4l5.752.1h7.3l5.877-.1a.352.352,0,0,1,.4.4l-.1,3.661v6.226Zm-27.965-3.561a5.941,5.941,0,0,1,.05.6q0,.423-.921.9-4.358,2.216-9.164,4.383a5.474,5.474,0,0,0-1.693,1.121.861.861,0,0,1-.6.3.622.622,0,0,1-.573-.4,24.623,24.623,0,0,1-1.22-2.864,20.3,20.3,0,0,0,3.561-1.021,86.288,86.288,0,0,0,10.559-4.956q-.025.4-.025.9Q119.83-28.887,119.855-28.364Zm22.188-.448q.025.4.025.5a.77.77,0,0,1-.125.523,4,4,0,0,1-.772.448q-3.437,1.693-8.292,3.885a9.009,9.009,0,0,0-1.893,1.021,1.177,1.177,0,0,1-.722.4q-.224,0-.548-.573a17.154,17.154,0,0,1-1.121-2.64,17.372,17.372,0,0,0,3.86-1.071,83.715,83.715,0,0,0,9.587-4.433q-.025.349-.025.9T142.043-28.812Zm-4.283-3.636q.224.2.224.3a1.107,1.107,0,0,1-.274.473l-.921,1.17q-.349.473-.548.473a.565.565,0,0,1-.324-.174,24.237,24.237,0,0,0-5.653-3.86q-.249-.1-.249-.224a1.718,1.718,0,0,1,.349-.548l.872-.971a.758.758,0,0,1,.5-.274,1.185,1.185,0,0,1,.324.075A28.717,28.717,0,0,1,137.76-32.448ZM116.145-32.6q.249.2.249.324a1.2,1.2,0,0,1-.3.5l-.872,1.071q-.4.5-.573.5a.666.666,0,0,1-.349-.174,23.827,23.827,0,0,0-5.752-3.686q-.2-.1-.2-.2,0-.125.349-.523l.872-1.071a.571.571,0,0,1,.448-.249.666.666,0,0,1,.249.05A27.059,27.059,0,0,1,116.145-32.6ZM196.38-4.781a.352.352,0,0,1-.4.4l-6.475-.1H179.2l-6.524.1a.352.352,0,0,1-.4-.4l.1-5.03v-7.62l-.1-5.005a.352.352,0,0,1,.4-.4l6.524.1h10.31l6.475-.1a.352.352,0,0,1,.4.4l-.1,5.005v7.62Zm-2.864-2.042V-10.11H175.138v3.287Zm0-5.429V-15.34H175.138v3.088Zm0-5.229V-20.4H175.138v2.914Zm7.57-14.892q0,.349-.423.349l-4.433-.1q-.149,1.245-.473,3.262-.349,2.291-.448,2.914a.449.449,0,0,1-.5.448l-3.984-.1H176.234l-3.91.1q-.473,0-.473-.448a57.888,57.888,0,0,0,1.594-6.176q-1.444.025-2.814.075l-.971.025q-.4,0-.4-.349v-1.644a.352.352,0,0,1,.4-.4l4.233.1a57,57,0,0,0,.822-5.827.4.4,0,0,1,.448-.448l5.005.1h10.459l6.275-.1q.473,0,.473.349v.1q-.149.9-.448,3.138-.224,1.668-.374,2.689l4.109-.1q.423,0,.423.4Zm-7.645.249H186q-.349,1.942-.921,4.433h7.545Zm-10.16,0h-7.1l-1.021,4.433h7.147Q183.032-30.63,183.281-32.124Zm11.007-6.226h-7.271q-.4,2.54-.672,4.034h7.446Q193.915-35.237,194.288-38.35Zm-9.936,0h-6.973l-.722,4.034h7.022Q183.979-35.81,184.352-38.35ZM165.3-41.462a7.29,7.29,0,0,1-.2.921,21.475,21.475,0,0,0-.374,5.254V-5.653l.1,9.015q0,.423-.349.423h-2.465q-.4,0-.4-.423l.1-8.965V-35.137a51.769,51.769,0,0,0-.349-7.047,26.982,26.982,0,0,1,3.312.324Q165.3-41.786,165.3-41.462Zm15.439,39.57q0,.374-.523.523a4.358,4.358,0,0,0-1.519.722,30.642,30.642,0,0,1-9.139,4.333,2.9,2.9,0,0,1-.7.149q-.349,0-.822-.872A4.534,4.534,0,0,0,166.6,1.37a28.339,28.339,0,0,0,9.637-3.661,6.532,6.532,0,0,0,1.793-1.544,19.029,19.029,0,0,1,2.266,1.395Q180.741-2.142,180.741-1.893ZM201.435,1.32a5.7,5.7,0,0,0-1.419,1.594q-.5.8-.847.8a3.653,3.653,0,0,1-.8-.174,32.042,32.042,0,0,1-10.135-5.429q-.174-.125-.174-.2,0-.125.473-.5l1.071-.822a1.352,1.352,0,0,1,.6-.3.633.633,0,0,1,.374.2A24.047,24.047,0,0,0,195.757-.5,45.511,45.511,0,0,0,201.435,1.32Zm-41.363-31.5A41.279,41.279,0,0,1,157.881-19.8q-.125.3-.3.3a1.776,1.776,0,0,1-.473-.125l-1.37-.523q-.6-.249-.6-.5a.79.79,0,0,1,.05-.224,36.091,36.091,0,0,0,2.142-9.886q.025-.324.249-.324a3.9,3.9,0,0,1,.5.075l1.444.249q.573.1.573.374A1.528,1.528,0,0,1,160.072-30.182Zm10.21,7.022a1.362,1.362,0,0,1,.05.3q0,.274-.623.423l-1.32.3a1.726,1.726,0,0,1-.349.05q-.249,0-.324-.4a48.848,48.848,0,0,0-1.868-8.068.969.969,0,0,1-.075-.274q0-.224.573-.374l1.121-.274a1.7,1.7,0,0,1,.324-.05q.249,0,.349.324A52.364,52.364,0,0,1,170.282-23.159Zm66.19,5.055a21.69,21.69,0,0,1-.647,3.113A57.841,57.841,0,0,1,245.164-7.3q.249.249.249.374,0,.149-.374.548L244.068-5.3q-.423.523-.6.523-.1,0-.349-.249A51.241,51.241,0,0,0,235-12.75a20.258,20.258,0,0,1-6.475,7.72,2.1,2.1,0,0,1-.722.4q-.224,0-.722-.573a4.527,4.527,0,0,0-1.668-1.17,19.234,19.234,0,0,0,6.051-5.454,14.739,14.739,0,0,0,2.266-6.275h-9.139v15.34l.1,5.728q0,.4-.349.4h-2.316a.352.352,0,0,1-.4-.4l.1-5.6V-14.593l-.1-5.752a.352.352,0,0,1,.4-.4l6.948.1h5.005q.149-3.163.149-6.1h-6.475l-7.1.1q-.349,0-.349-.374v-2.067q0-.4.349-.4l7.1.1H243.52l7.1-.1a.352.352,0,0,1,.4.4v2.067q0,.374-.4.374l-7.1-.1h-6.574q-.174,5.4-.224,6.1H242.5l6.9-.1a.352.352,0,0,1,.4.4l-.1,6.076v6.475l.1,6.524a4.344,4.344,0,0,1-.971,3.163q-1.021,1.021-5.678,1.021h-.9a1.624,1.624,0,0,1-.921-.149,2.8,2.8,0,0,1-.3-.872A5.017,5.017,0,0,0,240.108,0q1.893.174,3.611.174.5,0,1.021-.025A2.22,2.22,0,0,0,246.359-.3a2.571,2.571,0,0,0,.423-1.693V-18.1Zm15.664-16.61q0,.4-.423.4l-7.147-.1H217.547v6.624q0,12.078-1.27,17.656A34.308,34.308,0,0,1,210.5,2.64q-.4.573-.6.573-.249,0-.722-.548a5.434,5.434,0,0,0-1.793-1.419,26.381,26.381,0,0,0,6.076-12.6,46.612,46.612,0,0,0,.722-5.005q-2.067,1.2-4.657,2.44a5.477,5.477,0,0,0-1.718,1.295.786.786,0,0,1-.623.349q-.249,0-.5-.4a23.909,23.909,0,0,1-1.22-2.914,30.077,30.077,0,0,0,3.81-1.27q2.914-1.32,5.1-2.416.149-3.561.149-7.994l-.1-9.612a.352.352,0,0,1,.4-.4l7.247.1h9.139V-38.6a21.957,21.957,0,0,0-.3-4.134q.971.025,3.188.249.672.075.672.4a5.13,5.13,0,0,1-.3.971,7.579,7.579,0,0,0-.249,2.465v1.469h10.334l7.147-.1q.423,0,.423.4ZM212.616-25.3a1.068,1.068,0,0,1,.05.274q0,.224-.573.5l-1.17.672a1.943,1.943,0,0,1-.647.274q-.149,0-.274-.324a35.74,35.74,0,0,0-3.412-8.268.753.753,0,0,1-.075-.249q0-.149.523-.423l1.2-.5a1.629,1.629,0,0,1,.523-.2q.125,0,.274.249A40.029,40.029,0,0,1,212.616-25.3Z" transform="translate(-20621 -22688)" fill="#4597a0"/>
  </g>
</svg>
