<svg xmlns="http://www.w3.org/2000/svg" width="400" height="50" viewBox="0 0 400 50">
  <g id="Group_656" data-name="Group 656" transform="translate(-822.001 -7456.998)">
    <path id="Union_13" data-name="Union 13" d="M20005,21735h390a5,5,0,0,1,5,5v40a5,5,0,0,1-5,5h-390a5,5,0,0,1-5-5v-40A5,5,0,0,1,20005,21735Z" transform="translate(-19177.998 -14278.002)" fill="#c00000"/>
    <path id="Path_573" data-name="Path 573" d="M13.77-6.592q-.117-2.812-.146-3.574-1.26.029-2.271.029-2.109,0-3.911-.161-.439,0-.483-.5a15.13,15.13,0,0,1-.176-2.549,40.253,40.253,0,0,0,4.834.278q.937,0,1.919-.044l-.059-3.442q-1.787.059-3.018.059A37.47,37.47,0,0,1,6.3-16.7a.445.445,0,0,1-.513-.425q-.132-1.1-.205-2.7a76.975,76.975,0,0,0,7.866.293q0-.864-.059-2.915a9.477,9.477,0,0,0-.366-2.007,17.718,17.718,0,0,1,3.779.542.549.549,0,0,1,.425.571.615.615,0,0,1-.088.322,3.7,3.7,0,0,0-.454,1.45q-.015.337-.029.908-.015.659-.029,1.011a54.18,54.18,0,0,0,6.563-.908,1.049,1.049,0,0,1,.22-.029q.264,0,.293.4A15.855,15.855,0,0,1,23.848-18q0,.439-.322.483a64.159,64.159,0,0,1-6.929.776l.029,3.4q1.362-.088,5.874-.776a1.025,1.025,0,0,1,.249-.044q.205,0,.234.278.088,1.714.088,2.461,0,.381-.454.425-3.149.513-5.874.718.132,3.032.205,4.233A27.369,27.369,0,0,1,24.9-2.432a.63.63,0,0,1,.264.425,1.241,1.241,0,0,1-.059.293A6.729,6.729,0,0,1,23.789.513a.46.46,0,0,1-.381.234A.463.463,0,0,1,23.071.6a24.109,24.109,0,0,0-5.962-3.413A4.035,4.035,0,0,1,15.381.82a8.251,8.251,0,0,1-4.365.923A7.437,7.437,0,0,1,6.284.425,3.511,3.511,0,0,1,4.893-2.446,3.652,3.652,0,0,1,6.753-5.64,7.449,7.449,0,0,1,10.9-6.709Q12.363-6.709,13.77-6.592Zm.059,2.842A12.065,12.065,0,0,0,11.045-4.1Q7.808-4.1,7.808-2.52q0,1.348,2.974,1.348a3.335,3.335,0,0,0,2.725-.894A3.11,3.11,0,0,0,13.828-3.75ZM44.766-19.644q-.015-.439-.029-1.377-.015-.7-.029-1.113a12.288,12.288,0,0,0-.366-2.2,26.175,26.175,0,0,1,3.516.425q.835.146.835.571a1.577,1.577,0,0,1-.264.688,2.878,2.878,0,0,0-.249.864q-.015.19-.059,1.919,4-.146,9.214-.146.278,0,.352.088a.677.677,0,0,1,.088.366q.029.586.029,1.128t-.029,1.143q0,.4-.381.4h-.117q-2.812-.073-5.786-.073-1.655,0-3.369.015,0,3.75.029,5.581A8.541,8.541,0,0,1,48.6-8.394a10.981,10.981,0,0,1-5.347,9.683,3.054,3.054,0,0,1-1.172.571,1.682,1.682,0,0,1-.894-.454,6.714,6.714,0,0,0-2.285-1.2A11.853,11.853,0,0,0,43.3-2.959a7.685,7.685,0,0,0,1.758-3.428,3.158,3.158,0,0,1-2.812,1.2,3.865,3.865,0,0,1-3.12-1.377,4.814,4.814,0,0,1-1.055-3.223,4.255,4.255,0,0,1,1.523-3.442,4.527,4.527,0,0,1,3-1.055,3.464,3.464,0,0,1,2.285.6l-.029-3.062q-6.548.366-10.386.894a6.481,6.481,0,0,0-.894.234,2.213,2.213,0,0,1-.513.132.516.516,0,0,1-.513-.425,19.753,19.753,0,0,1-.747-3.018q.439.044.952.044t2.71-.176Q37.9-19.248,44.766-19.644Zm-1.919,7.705a1.984,1.984,0,0,0-1.421.542,1.851,1.851,0,0,0-.571,1.406,2.018,2.018,0,0,0,.63,1.6,1.873,1.873,0,0,0,1.289.454A2.031,2.031,0,0,0,44.3-8.525a2.083,2.083,0,0,0,.527-1.494,1.817,1.817,0,0,0-.615-1.479A2.021,2.021,0,0,0,42.847-11.938Zm8.247-12.334,1.582-1.113a.335.335,0,0,1,.19-.073.469.469,0,0,1,.264.132,13.033,13.033,0,0,1,2.842,3.208.427.427,0,0,1,.088.22.329.329,0,0,1-.161.264l-1.26.938a.511.511,0,0,1-.249.088q-.132,0-.264-.19A14.861,14.861,0,0,0,51.094-24.272Zm3.442-1.143L56.045-26.5a.392.392,0,0,1,.19-.073.469.469,0,0,1,.264.132,11.688,11.688,0,0,1,2.842,3.091.511.511,0,0,1,.088.249.37.37,0,0,1-.176.293l-1.2.938a.438.438,0,0,1-.234.088.358.358,0,0,1-.278-.19A14.194,14.194,0,0,0,54.536-25.415ZM79.248-7.471q-.059-2.476-.117-6.87-2.109.073-3.3.073-1.611,0-2.886-.088-.5,0-.527-.4a15.968,15.968,0,0,1-.22-2.739q1.992.19,4,.19,1.406,0,2.842-.1l-.029-3.149a13.342,13.342,0,0,0-.4-2.93,19.611,19.611,0,0,1,3.633.557q.542.161.542.513a1.991,1.991,0,0,1-.176.513,3.487,3.487,0,0,0-.249,1.055q-.059,1.011-.059,3.179,2.007-.176,4.263-.542a.824.824,0,0,1,.19-.029q.22,0,.293.381a10.553,10.553,0,0,1,.176,2.139.4.4,0,0,1-.337.454,29.821,29.821,0,0,1-4.614.63q0,4.424.22,8.042a20.305,20.305,0,0,1,4.98,2.871q.234.161.234.308a.886.886,0,0,1-.088.293A17.245,17.245,0,0,1,86.25-.806a.393.393,0,0,1-.278.176.4.4,0,0,1-.264-.146,18.454,18.454,0,0,0-3.237-2.4q-.381,3.9-5.493,3.9a6.042,6.042,0,0,1-4.16-1.274A3.738,3.738,0,0,1,71.6-3.472a3.762,3.762,0,0,1,1.685-3.193,5.973,5.973,0,0,1,3.574-1.04A12,12,0,0,1,79.248-7.471Zm.073,2.856a8.561,8.561,0,0,0-2.607-.4q-2.256,0-2.256,1.436,0,1.509,2.432,1.509a2.667,2.667,0,0,0,1.875-.645,1.713,1.713,0,0,0,.586-1.3A5.011,5.011,0,0,0,79.321-4.614ZM65.391-23.423A19.992,19.992,0,0,1,68.8-22.354q.454.249.454.6a1.591,1.591,0,0,1-.205.659,6.925,6.925,0,0,0-.542,1.655A54.453,54.453,0,0,0,67.017-8.511q0,2.578.088,3.838.22-.5.981-2.183.542-1.187.879-1.992a8.792,8.792,0,0,0,1.055,1.89.689.689,0,0,1,.176.425.947.947,0,0,1-.176.483,18.363,18.363,0,0,0-1.538,4.556,6.588,6.588,0,0,0-.073.923A6.567,6.567,0,0,0,68.452.1V.161q0,.205-.366.322A12.292,12.292,0,0,1,65.845,1a.865.865,0,0,1-.234.044q-.22,0-.366-.4a25.87,25.87,0,0,1-1.289-9.155,77.856,77.856,0,0,1,1.23-11.382,20.464,20.464,0,0,0,.249-2.7A7.316,7.316,0,0,0,65.391-23.423ZM97.178-5.61l-3.955.059a.464.464,0,0,1-.293-.059.5.5,0,0,1-.044-.264V-7.983q0-.234.059-.278a.547.547,0,0,1,.278-.044l3.149.059V-12.3h-.879l-3.691.073q-.293,0-.293-.337v-2.183q0-.337.293-.337l3.691.059h.879v-3A19.862,19.862,0,0,1,94.863-16.6a1.656,1.656,0,0,1-.688.4q-.19,0-.659-.6a6.529,6.529,0,0,0-1.348-1.318A16.883,16.883,0,0,0,97.383-23.7a9.972,9.972,0,0,0,.747-1.8,16.13,16.13,0,0,1,2.578.747q.425.161.425.381a.5.5,0,0,1-.278.425,3.534,3.534,0,0,0-.688.879q-.542.864-.981,1.494h13.623l4.1-.059q.264,0,.308.059a.43.43,0,0,1,.059.278v2.153q0,.22-.073.264a.591.591,0,0,1-.293.044q-.044,0-.366-.015-1.069-.029-2.358-.044v3.867h.483l3.677-.059q.308,0,.308.337v2.183q0,.337-.308.337l-3.677-.073h-.483v4.058l3-.059q.234,0,.278.059a.5.5,0,0,1,.044.264v2.109a.44.44,0,0,1-.051.271.44.44,0,0,1-.271.051l-3.97-.059Zm11.851-2.637h2.4V-12.3h-2.4Zm-4.98,0h2.373V-12.3h-2.373Zm-4.922,0h2.314V-12.3H99.126Zm9.9-6.782h2.4V-18.9h-2.4Zm-4.98,0h2.373V-18.9h-2.373Zm-4.922,0h2.314V-18.9H99.126ZM95.464-4.585q.088-.249.22-.249a1.415,1.415,0,0,1,.381.117l1.743.732q.337.146.337.293a.8.8,0,0,1-.073.234A19.327,19.327,0,0,1,94.526,1.8a.354.354,0,0,1-.264.176A1,1,0,0,1,93.9,1.8L92.2.63Q91.9.454,91.9.293a.5.5,0,0,1,.161-.264A15.214,15.214,0,0,0,95.464-4.585Zm19.263-.088A24.711,24.711,0,0,1,117.964.059a.5.5,0,0,1,.088.22q0,.132-.366.322L115.8,1.655a.887.887,0,0,1-.322.1q-.132,0-.264-.234a29.846,29.846,0,0,0-3.032-5.01.392.392,0,0,1-.1-.205q0-.1.337-.264l1.655-.82a.807.807,0,0,1,.337-.117Q114.536-4.893,114.727-4.673Zm-5.8.659A26.218,26.218,0,0,1,110.464.747a1.234,1.234,0,0,1,.029.205q0,.19-.4.278l-2.124.425a2.391,2.391,0,0,1-.337.044q-.176,0-.234-.293a26.264,26.264,0,0,0-1.26-4.819.85.85,0,0,1-.044-.22q0-.146.4-.234l1.86-.4a1.763,1.763,0,0,1,.264-.029Q108.809-4.292,108.926-4.014Zm-6.416-.1h.22q.234,0,.293.308a29.245,29.245,0,0,1,.688,4.98.482.482,0,0,1,.015.117q0,.264-.41.308l-2.153.176q-.19.015-.264.015-.249,0-.249-.322a25.308,25.308,0,0,0-.513-4.951,1.554,1.554,0,0,1-.015-.176q0-.234.469-.264Zm24.023-21.021q1.626.044,3.047.205.483.044.483.308a1.766,1.766,0,0,1-.19.63,11.316,11.316,0,0,0-.205,3.018v5.64h.234l3.237-.059q.249,0,.293.059a.547.547,0,0,1,.044.278v2.124q0,.308-.337.308l-3.047-.059A28.52,28.52,0,0,0,134.136-7.5a9.048,9.048,0,0,0-1.2,1.978q-.264.542-.425.542t-.469-.454a25.121,25.121,0,0,1-2.432-4.292l.205,11.763q0,.234-.073.293a.547.547,0,0,1-.278.044h-2.476q-.234,0-.278-.059a.547.547,0,0,1-.044-.278q0-.117.044-1.8.117-5.2.161-9.2a28.478,28.478,0,0,1-3.633,6.826q-.381.483-.542.483-.19,0-.352-.513a6.538,6.538,0,0,0-1.084-2.183,25.869,25.869,0,0,0,4.834-8.335h-.542l-3.267.059q-.337,0-.337-.308v-2.124q0-.249.059-.293a.547.547,0,0,1,.278-.044l3.267.059h1.23V-20.9A31.357,31.357,0,0,0,126.533-25.137ZM137.915-7.471l4.585-.894V-20.376a33.092,33.092,0,0,0-.249-4.556q1.758.044,3.193.205.454.059.454.337a2.521,2.521,0,0,1-.19.6,15.679,15.679,0,0,0-.176,3.325v11.5q1.113-.234,1.978-.454.146-.029.5-.132.161-.029.22-.044a.808.808,0,0,1,.161-.029q.117,0,.176.322l.352,2.344q.015.117.015.146,0,.161-.308.205-.088.029-.952.19-1.04.19-2.139.41v2.8l.059,5.186a.464.464,0,0,1-.059.293.547.547,0,0,1-.278.044h-2.49q-.234,0-.278-.073a.458.458,0,0,1-.044-.264l.059-5.156V-5.405l-4.116.82q-1.685.322-2.915.586-.264.044-.688.132-.19.044-.264.059a1,1,0,0,1-.19.029q-.176,0-.205-.264l-.381-2.373a1.234,1.234,0,0,1-.029-.205q0-.132.293-.19.073-.015.571-.088Q136.025-7.1,137.915-7.471Zm-1.45-8.569A20.052,20.052,0,0,1,140.61-12.2a.577.577,0,0,1,.146.278q0,.1-.234.352l-1.479,1.465q-.249.234-.352.234t-.249-.176a24.626,24.626,0,0,0-3.955-4.072,1.146,1.146,0,0,1-.205-.249q0-.088.234-.322l1.377-1.318q.205-.22.278-.22T136.465-16.04Zm.806-6.943A20.448,20.448,0,0,1,141.5-19.16a.37.37,0,0,1,.132.249q0,.117-.22.322l-1.436,1.406q-.278.264-.366.264t-.205-.176a20.563,20.563,0,0,0-4.087-3.94q-.161-.1-.161-.22a.508.508,0,0,1,.22-.337l1.318-1.26q.264-.234.337-.234A.458.458,0,0,1,137.271-22.983Zm-7.046,5.552a26.559,26.559,0,0,0,1.377-4.526,10.055,10.055,0,0,0,.19-1.289q1.787.6,2.271.835.337.176.337.366a.3.3,0,0,1-.176.293,1.182,1.182,0,0,0-.366.674,38.052,38.052,0,0,1-1.377,3.809q-.264.63-.454.63a1.638,1.638,0,0,1-.6-.278A8.382,8.382,0,0,0,130.225-17.432Zm-5.786-5.332a24.8,24.8,0,0,1,1.611,5.039.628.628,0,0,1,.029.161q0,.22-.41.381l-1.289.483a1.415,1.415,0,0,1-.366.1q-.132,0-.176-.293a23.127,23.127,0,0,0-1.523-5.01.675.675,0,0,1-.059-.234q0-.161.381-.308l1.26-.513a.886.886,0,0,1,.293-.088Q124.307-23.042,124.438-22.764ZM164-15.425a44.928,44.928,0,0,1,9.536,4.087q.4.205.4.513a.72.72,0,0,1-.059.264,17.051,17.051,0,0,1-1.289,2.607q-.19.337-.4.337a.5.5,0,0,1-.337-.146,33.059,33.059,0,0,0-7.881-3.853V-4.98q0,1.641.117,5.874V.981q0,.366-.542.366-.674.044-1.333.044t-1.333-.044q-.571,0-.571-.454.117-2.9.117-5.9V-19.775a27.1,27.1,0,0,0-.293-4.438,21.146,21.146,0,0,1,3.75.483q.571.117.571.513a1.553,1.553,0,0,1-.249.688A9.943,9.943,0,0,0,164-19.717Zm23.408-7.617q2.139.205,4.922.205h5.405q1.816,0,4.7-.146.366,0,.366.469.044.586.044,1.172t-.044,1.172q0,.6-.425.6h-.117l-4.233-.059H192.1q-2.461,0-4.116.117-.381,0-.425-.659A21.759,21.759,0,0,1,187.412-23.042Zm-2.607,6.4a55.274,55.274,0,0,0,5.522.234H200.61a3.208,3.208,0,0,0,1.6-.337.654.654,0,0,1,.381-.176.794.794,0,0,1,.454.205,16.7,16.7,0,0,1,2.021,1.86.916.916,0,0,1,.293.63.709.709,0,0,1-.337.571,4.212,4.212,0,0,0-1.011,1.406A30.171,30.171,0,0,1,198.53-3.97a27.671,27.671,0,0,1-6.768,5,1.688,1.688,0,0,1-.6.205A1.024,1.024,0,0,1,190.5.879,9.127,9.127,0,0,0,187.72-.688a27.37,27.37,0,0,0,8-5.464,19.722,19.722,0,0,0,4.6-7.046l-10.239.029q-2.5,0-4.5.117-.352,0-.439-.571A26.009,26.009,0,0,1,184.8-16.641Zm43.623,1.1V-5.61q0,2.637.088,6.24V.718q0,.425-.454.425-.732.044-1.494.044t-1.494-.044q-.425,0-.425-.381v-.1q.015-.7.073-3.325.044-1.714.044-2.827V-12.48a47.307,47.307,0,0,1-8.247,5.757.9.9,0,0,1-.454.117.916.916,0,0,1-.63-.293,11.074,11.074,0,0,0-2.578-1.772,52.548,52.548,0,0,0,9.448-6.152,47.471,47.471,0,0,0,6.387-6.27,10.491,10.491,0,0,0,1.9-3.091,25.711,25.711,0,0,1,3.325,2.109.506.506,0,0,1,.234.439.768.768,0,0,1-.425.659,11.473,11.473,0,0,0-1.787,1.655A51.139,51.139,0,0,1,228.428-15.542Zm14.839-6.3q2.856.205,6.094.205h12.861a7.39,7.39,0,0,0,2.08-.176,3.709,3.709,0,0,1,.571-.22.986.986,0,0,1,.688.425,15.615,15.615,0,0,1,1.8,1.89.853.853,0,0,1,.234.542.8.8,0,0,1-.425.63,3.923,3.923,0,0,0-.806.864,25.02,25.02,0,0,1-5.273,5.8.892.892,0,0,1-.63.264,1.132,1.132,0,0,1-.732-.293,7.248,7.248,0,0,0-2.49-1.245,31.246,31.246,0,0,0,3.193-2.651,17.713,17.713,0,0,0,2.183-2.593H249.653q-1.8,0-5.3.234a.486.486,0,0,1-.542-.454A28.807,28.807,0,0,1,243.267-21.841Zm1.8,20.889a17.441,17.441,0,0,0,4.072-2.8,11.985,11.985,0,0,0,2.2-2.93,15.046,15.046,0,0,0,1.465-7.09,12.563,12.563,0,0,0-.293-2.812,28.183,28.183,0,0,1,3.867.571.56.56,0,0,1,.513.571,1.2,1.2,0,0,1-.146.527,3.1,3.1,0,0,0-.278,1.23,19.426,19.426,0,0,1-1.772,8.262A15.44,15.44,0,0,1,249.243.557a1.588,1.588,0,0,1-.85.293.84.84,0,0,1-.6-.278A8.739,8.739,0,0,0,245.068-.952Zm43.008-5.376a31.32,31.32,0,0,0,4.263-2.8,28.971,28.971,0,0,0,5.244-5.1,8.487,8.487,0,0,0,.938,3.032,2.276,2.276,0,0,1,.176.513,1.192,1.192,0,0,1-.454.747,38.4,38.4,0,0,1-4.438,3.94,53.185,53.185,0,0,1-5.332,3.6q-.425.278-.864.63a.972.972,0,0,1-.615.234,1.362,1.362,0,0,1-.63-.234,8.439,8.439,0,0,1-1.8-1.831,1.34,1.34,0,0,1-.264-.63,1.013,1.013,0,0,1,.117-.454,7.775,7.775,0,0,0,.176-2.285v-9.39a28.875,28.875,0,0,0-.308-5.229,31.715,31.715,0,0,1,3.765.63q.542.132.542.513a1.908,1.908,0,0,1-.234.762,10.838,10.838,0,0,0-.278,3.325ZM277.6-19.673a23.6,23.6,0,0,1,3.809.659q.483.132.483.542a1.053,1.053,0,0,1-.088.381,4.571,4.571,0,0,0-.366,2.036,22.591,22.591,0,0,1-1.626,8.818,15.249,15.249,0,0,1-4.263,5.64,1.406,1.406,0,0,1-.776.4,1.071,1.071,0,0,1-.571-.234,10.694,10.694,0,0,0-2.549-1.26,15.43,15.43,0,0,0,4.98-5.977,14.813,14.813,0,0,0,.967-3.472,36.018,36.018,0,0,0,.293-5.01A9.918,9.918,0,0,0,277.6-19.673Zm32.417,2.9q.454-1.626.894-3.779a19.86,19.86,0,0,0,.308-3.325,26.9,26.9,0,0,1,3.589.981.592.592,0,0,1,.483.6.63.63,0,0,1-.205.454,3.946,3.946,0,0,0-.6,1.143q-.22.674-.571,1.9-.337,1.128-.513,1.7a19.7,19.7,0,0,1,2.344-.132,3.8,3.8,0,0,1,3.369,1.611,6.812,6.812,0,0,1,.981,3.94,32.733,32.733,0,0,1-.483,5.669,15.888,15.888,0,0,1-1.143,3.97A4.226,4.226,0,0,1,314.429.776a10.135,10.135,0,0,1-2.974-.337.778.778,0,0,1-.542-.835,9.709,9.709,0,0,0-.557-2.783,9.331,9.331,0,0,0,3.3.659,1.762,1.762,0,0,0,1.216-.381,3.452,3.452,0,0,0,.7-1.216,21.057,21.057,0,0,0,1.172-7.427,4.306,4.306,0,0,0-.41-2.285,1.521,1.521,0,0,0-1.3-.513,19.562,19.562,0,0,0-2.52.205A88.143,88.143,0,0,1,306.475-.029q-.161.366-.439.366a.73.73,0,0,1-.337-.1,8.536,8.536,0,0,1-2.08-1.318.656.656,0,0,1-.234-.439.565.565,0,0,1,.117-.337,68.433,68.433,0,0,0,5.493-11.763q-1.025.161-2.93.513a10.456,10.456,0,0,0-1.655.483,1.1,1.1,0,0,1-.366.073.619.619,0,0,1-.6-.469,28.892,28.892,0,0,1-.923-3.091q1.655,0,3.955-.205Q308.1-16.479,310.02-16.772Zm10.679-.234q1.685-1.143,2.432-1.538a.41.41,0,0,1,.205-.059.565.565,0,0,1,.366.205,19.56,19.56,0,0,1,4.98,7.295.676.676,0,0,1,.073.264.45.45,0,0,1-.19.337,9.039,9.039,0,0,1-2.256,1.494.644.644,0,0,1-.308.088.375.375,0,0,1-.381-.322A20.5,20.5,0,0,0,320.7-17.007Zm18.179-5.068a16.958,16.958,0,0,1,1.772-2.344.549.549,0,0,1,.381-.19.7.7,0,0,1,.19.029,20.334,20.334,0,0,1,5.889,3.574.476.476,0,0,1,.205.337.873.873,0,0,1-.146.352,16.594,16.594,0,0,1-1.538,2.109q-.19.234-.322.234a.565.565,0,0,1-.366-.205A23.747,23.747,0,0,0,338.877-22.075Zm-2.095,4.16a17.847,17.847,0,0,1,3.12,1.084q.483.22.483.571a.913.913,0,0,1-.146.454,5.677,5.677,0,0,0-.6,1.582,46.207,46.207,0,0,0-.732,5.464,17.091,17.091,0,0,1,5.024-3.589,11.923,11.923,0,0,1,5.01-1.157,7.036,7.036,0,0,1,5.361,1.992,6.133,6.133,0,0,1,1.626,4.424q0,4.453-4.526,6.724a24.073,24.073,0,0,1-7.69,2.065,3.6,3.6,0,0,1-.469.044.821.821,0,0,1-.732-.425,8.179,8.179,0,0,0-2.036-2.549,24.1,24.1,0,0,0,8.247-1.685q3.545-1.523,3.545-4.526a2.865,2.865,0,0,0-.952-2.271,3.934,3.934,0,0,0-2.651-.82,9.359,9.359,0,0,0-4.541,1.377,18.6,18.6,0,0,0-4.1,3.179,9.094,9.094,0,0,0-1.289,1.655.448.448,0,0,1-.366.264,1.413,1.413,0,0,1-.322-.059,17.32,17.32,0,0,1-2.036-.806.6.6,0,0,1-.425-.6q.234-4.526.923-9.683A25.232,25.232,0,0,0,336.782-17.915Z" transform="translate(842 7493)" fill="#fff"/>
  </g>
</svg>
