<svg xmlns="http://www.w3.org/2000/svg" xmlns:xlink="http://www.w3.org/1999/xlink" width="109.494" height="57" viewBox="0 0 109.494 57">
  <defs>
    <filter id="Path_561" x="31.296" y="17.372" width="78.199" height="38.958" filterUnits="userSpaceOnUse">
      <feOffset dx="1" dy="2" input="SourceAlpha"/>
      <feGaussianBlur result="blur"/>
      <feFlood flood-color="#c00000"/>
      <feComposite operator="in" in2="blur"/>
      <feComposite in="SourceGraphic"/>
    </filter>
    <filter id="Path_562" x="0" y="0" width="26.137" height="57" filterUnits="userSpaceOnUse">
      <feOffset dx="1" dy="2" input="SourceAlpha"/>
      <feGaussianBlur result="blur-2"/>
      <feFlood flood-color="#c00000"/>
      <feComposite operator="in" in2="blur-2"/>
      <feComposite in="SourceGraphic"/>
    </filter>
  </defs>
  <g id="Group_775" data-name="Group 775" transform="translate(-934.787 -416.23)">
    <g transform="matrix(1, 0, 0, 1, 934.79, 416.23)" filter="url(#Path_561)">
      <g id="Path_561-2" data-name="Path 561" transform="translate(32.55 34.98)" fill="#fff001">
        <path d="M 5.765110969543457 18.85284614562988 L 5.765081405639648 18.85284614562988 C 5.363991260528564 18.85284614562988 5.026671409606934 18.53485679626465 4.520471096038818 17.67955589294434 L 4.514731407165527 17.66984748840332 L 4.5094313621521 17.65989685058594 C 4.029971122741699 16.75945663452148 3.416621208190918 16.03255653381348 2.686401128768921 15.49938678741455 L 1.927841186523438 14.94552707672119 L 2.8108811378479 14.62549686431885 C 6.463140964508057 13.30185699462891 9.189701080322266 11.47264671325684 10.91482162475586 9.188686370849609 C 12.33902168273926 7.320124626159668 13.25047492980957 4.936069011688232 13.62871932983398 2.094452142715454 L 8.613131523132324 2.168756723403931 L 8.609420776367188 2.168806791305542 L 8.605721473693848 2.168806791305542 C 8.353481292724609 2.168806791305542 8.069211006164551 2.142406702041626 7.873421192169189 1.946606755256653 L 7.848301410675049 1.921496748924255 L 7.826991081237793 1.893086791038513 C 7.717061042785645 1.746526718139648 7.670151233673096 1.55484676361084 7.670151233673096 1.252176761627197 L 7.670151233673096 -0.4272389113903046 C 6.760606288909912 0.4062542915344238 5.773157119750977 1.229384779930115 4.723421096801758 2.02873682975769 L 4.719361305236816 2.031826734542847 L 4.715241432189941 2.034836769104004 C 4.011581420898438 2.548306703567505 3.776921272277832 2.642246723175049 3.568311214447021 2.642246723175049 C 3.193781137466431 2.642246723175049 2.860321283340454 2.350936889648438 2.337971210479736 1.5674067735672 L 2.335741281509399 1.564056754112244 L 2.333571195602417 1.56067681312561 C 1.667651176452637 0.5261367559432983 0.9836112260818481 -0.2273932248353958 0.3004511892795563 -0.6789731979370117 L -0.3386788070201874 -1.101453185081482 L 0.3053711950778961 -1.516403198242188 C 5.274171352386475 -4.717697143554688 8.983837127685547 -8.952519416809082 11.33108615875244 -14.10268115997314 C 11.64307689666748 -14.81134986877441 11.89307689666748 -15.61138820648193 12.07419109344482 -16.480712890625 L 12.1807107925415 -16.99200248718262 L 12.68688106536865 -16.86331367492676 C 14.19730091094971 -16.47930335998535 15.57524108886719 -16.0111026763916 16.78242111206055 -15.47172355651855 C 17.48110198974609 -15.15854358673096 17.62764167785645 -14.69020366668701 17.62764167785645 -14.35241317749023 C 17.62764167785645 -14.04491329193115 17.47997093200684 -13.73210334777832 17.18874168395996 -13.42266368865967 L 17.16219139099121 -13.39445304870605 L 17.13161087036133 -13.3706636428833 C 16.85686111450195 -13.15697288513184 16.60726165771484 -12.80599308013916 16.38975143432617 -12.32749366760254 C 14.70848846435547 -8.698234558105469 12.5517053604126 -5.467684745788574 9.969022750854492 -2.706797361373901 C 10.84734344482422 -2.686010360717773 12.10135078430176 -2.675523281097412 13.71887111663818 -2.675523281097412 L 24.15350151062012 -2.675523281097412 C 25.89542007446289 -2.675523281097412 27.20251274108887 -2.685004234313965 28.06353187561035 -2.703801393508911 C 24.8730525970459 -6.117977142333984 22.29778671264648 -10.0277795791626 20.40067100524902 -14.34045314788818 L 20.39406204223633 -14.35548305511475 L 20.38845062255859 -14.3709135055542 C 20.31525039672852 -14.57224369049072 20.28260040283203 -14.71838283538818 20.28260040283203 -14.84478282928467 C 20.28260040283203 -15.34305286407471 20.81746101379395 -15.57559299468994 21.0188102722168 -15.66314315795898 L 21.02560043334961 -15.66609287261963 L 21.032470703125 -15.66884326934814 L 23.77129554748535 -16.76437377929688 C 24.04311370849609 -16.88271141052246 24.2371826171875 -16.93554306030273 24.39969062805176 -16.93554306030273 C 24.63235855102539 -16.93554306030273 24.95356178283691 -16.82222557067871 25.16564178466797 -16.28370475769043 C 26.47530746459961 -13.20946216583252 28.35506820678711 -10.32222270965576 30.75284194946289 -7.701983451843262 C 32.82842254638672 -5.453433036804199 35.10202026367188 -3.605273246765137 37.50901031494141 -2.210443258285522 L 38.10943222045898 -1.862513184547424 L 37.58934020996094 -1.403093218803406 C 36.8757209777832 -0.772733211517334 36.15803146362305 0.1604367792606354 35.45619201660156 1.370476722717285 L 35.45433044433594 1.373686790466309 L 35.45243072509766 1.376866817474365 C 34.9735107421875 2.175046682357788 34.65714263916016 2.471806764602661 34.28512191772461 2.471806764602661 C 34.05927658081055 2.471806764602661 33.79264068603516 2.368574380874634 33.16489791870117 1.856223583221436 C 32.12042617797852 1.091645359992981 31.14277839660645 0.2926212847232819 30.24685096740723 -0.5282499194145203 C 30.22984504699707 0.04519984871149063 30.20380401611328 0.9052465558052063 30.16410064697266 2.195506811141968 C 30.0504207611084 6.111586570739746 29.72343063354492 9.784127235412598 29.1922607421875 13.11022663116455 C 28.88136100769043 14.94876670837402 28.20233154296875 16.29469680786133 27.17328071594238 17.11515617370605 L 27.17130088806152 17.11673736572266 L 27.16930198669434 17.11830711364746 C 26.16196060180664 17.90484619140625 24.73315048217773 18.30365753173828 22.92255210876465 18.30365753173828 C 21.78121376037598 18.30365753173828 20.87742233276367 18.27776336669922 20.2362003326416 18.22669792175293 C 19.42511558532715 18.1766471862793 19.00482940673828 18.04696655273438 18.78592109680176 17.77937698364258 L 18.78202056884766 17.77461624145508 L 18.77824211120605 17.76974678039551 C 18.65555191040039 17.61200714111328 18.53765106201172 17.32965660095215 18.36107063293457 16.46437644958496 C 18.08772087097168 15.18092632293701 17.70874214172363 14.20032691955566 17.23553085327148 13.55399703979492 L 16.53286170959473 12.59425640106201 L 17.71020126342773 12.76372718811035 C 19.34536170959473 12.99909687042236 20.81233215332031 13.11843681335449 22.07036209106445 13.11843681335449 C 22.78112030029297 13.11843681335449 23.28280067443848 12.96771717071533 23.56149101257324 12.6704568862915 C 23.83297348022461 12.37885475158691 24.03886032104492 11.85922813415527 24.17228698730469 11.1271858215332 C 24.56472778320312 8.831233978271484 24.80683898925781 5.794034481048584 24.89271545410156 2.093056678771973 L 18.94191360473633 2.093056678771973 C 18.51632881164551 5.879701137542725 17.32378768920898 9.163728713989258 15.39427089691162 11.85945701599121 C 13.38767147064209 14.66289710998535 10.53479099273682 16.8993968963623 6.914881229400635 18.50680732727051 C 6.37653112411499 18.74608612060547 6.021881103515625 18.85283660888672 5.765110969543457 18.85284614562988 Z M 65.39961242675781 5.804826736450195 C 63.1279296875 5.804826736450195 60.3963508605957 4.936616897583008 57.2807502746582 3.22430682182312 C 55.17145156860352 2.08281683921814 53.52106094360352 1.303876757621765 52.37829208374023 0.910656750202179 C 51.32254028320312 0.538756787776947 50.30163955688477 0.3507967889308929 49.34051132202148 0.3507967889308929 C 48.10358047485352 0.3507967889308929 46.98451995849609 0.6115567684173584 46.01444244384766 1.125816822052002 L 46.01132202148438 1.127466797828674 L 46.0081901550293 1.129076719284058 C 45.02350234985352 1.633426785469055 43.87372207641602 2.533466815948486 42.59078216552734 3.804186820983887 L 42.23723220825195 4.154366970062256 L 41.88537216186523 3.802496671676636 L 40.29460144042969 2.211736679077148 L 39.96433258056641 1.881476759910583 L 40.27136993408203 1.529506802558899 C 41.85275268554688 -0.2833032310009003 43.44776153564453 -1.665573239326477 45.01209259033203 -2.57891321182251 C 46.60696029663086 -3.510083198547363 48.21617126464844 -3.982223272323608 49.79502105712891 -3.982223272323608 C 52.07728958129883 -3.982223272323608 54.80723190307617 -3.140383243560791 57.90901947021484 -1.480093240737915 C 60.09517288208008 -0.337363213300705 61.77425003051758 0.443096786737442 62.89528274536133 0.837306797504425 C 63.94786071777344 1.208096742630005 64.94326782226562 1.396056771278381 65.85411834716797 1.396056771278381 C 67.15475463867188 1.396056771278381 68.31278228759766 1.13491678237915 69.2960205078125 0.6198867559432983 C 70.31452941894531 0.08066677302122116 71.46295166015625 -0.8552032113075256 72.70742797851562 -2.160703182220459 L 73.06929779052734 -2.540313243865967 L 73.43121337890625 -2.16075325012207 L 74.98410034179688 -0.532113254070282 L 75.28368377685547 -0.2179132252931595 L 75.01464080810547 0.1227967739105225 C 73.537841796875 1.992966771125793 71.98661041259766 3.41905689239502 70.40403747558594 4.361456871032715 C 68.79566955566406 5.319206714630127 67.1119384765625 5.804826736450195 65.39961242675781 5.804826736450195 Z" stroke="none"/>
        <path d="M 24.39969253540039 -16.43555068969727 C 24.31130981445312 -16.4355411529541 24.16612243652344 -16.39136123657227 23.9641227722168 -16.30298042297363 L 21.21817016601562 -15.2046012878418 C 20.92779159545898 -15.0783519744873 20.78260040283203 -14.95841217041016 20.78260040283203 -14.84479141235352 C 20.78260040283203 -14.78166198730469 20.8078498840332 -14.68066215515137 20.85835266113281 -14.54179191589355 C 22.8909912109375 -9.921010971069336 25.66850280761719 -5.824171543121338 29.19090270996094 -2.251281261444092 C 28.67328262329102 -2.200771331787109 26.994140625 -2.175521373748779 24.15349960327148 -2.175521373748779 L 13.7188720703125 -2.175521373748779 C 11.19384765625 -2.175521373748779 9.565223693847656 -2.200771331787109 8.832969665527344 -2.251281261444092 C 11.73673248291016 -5.155041217803955 14.10394287109375 -8.582751274108887 15.9345703125 -12.53440093994141 C 16.18707275390625 -13.08990097045898 16.48376083374023 -13.50022125244141 16.82464218139648 -13.76535129547119 C 17.02664184570312 -13.97997093200684 17.12763977050781 -14.17566108703613 17.12763977050781 -14.3524112701416 C 17.12763977050781 -14.63016128540039 16.944580078125 -14.85110092163086 16.57845306396484 -15.01523208618164 C 15.39168930053711 -15.54548072814941 14.05343246459961 -15.99998092651367 12.56368255615234 -16.37873077392578 C 12.37430191040039 -15.46973037719727 12.1154899597168 -14.64279174804688 11.7872428894043 -13.89791107177734 C 9.388473510742188 -8.633251190185547 5.651451110839844 -4.365981101989746 0.576171875 -1.096081256866455 C 1.321052551269531 -0.6037013530731201 2.046989440917969 0.1916786432266235 2.753997802734375 1.290058612823486 C 3.13275146484375 1.858188629150391 3.404190063476562 2.142248630523682 3.568313598632812 2.142248630523682 C 3.6693115234375 2.142248630523682 3.953369140625 1.971808671951294 4.420509338378906 1.630928754806519 C 5.796638488769531 0.5830487012863159 7.046524047851562 -0.4900813102722168 8.170150756835938 -1.588461399078369 L 8.170150756835938 1.25217866897583 C 8.170150756835938 1.42892861366272 8.189094543457031 1.542558670043945 8.226959228515625 1.593058705329895 C 8.277458190917969 1.643558740615845 8.403709411621094 1.668808698654175 8.605720520019531 1.668808698654175 L 13.7188720703125 1.593058705329895 L 14.19231033325195 1.593058705329895 C 13.85143280029297 4.787199020385742 12.89192962646484 7.419528484344482 11.31378936767578 9.490038871765137 C 9.521034240722656 11.86355876922607 6.743522644042969 13.73206901550293 2.981239318847656 15.09556865692139 C 3.776618957519531 15.67632865905762 4.433128356933594 16.45276832580566 4.950759887695312 17.42490005493164 C 5.316879272460938 18.04352951049805 5.58831787109375 18.35283851623535 5.765068054199219 18.35283851623535 C 5.941818237304688 18.35283851623535 6.257453918457031 18.25183868408203 6.711959838867188 18.04983901977539 C 13.81986999511719 14.89356899261475 17.74627304077148 9.407978057861328 18.49114990234375 1.593058705329895 L 25.40338134765625 1.593058705329895 C 25.32763290405273 5.569958686828613 25.08143997192383 8.776728630065918 24.66481018066406 11.21335887908936 C 24.51330947875977 12.04661846160889 24.26712036132812 12.64630889892578 23.92624282836914 13.01243877410889 C 23.54749298095703 13.41643905639648 22.92885971069336 13.61843872070312 22.07036209106445 13.61843872070312 C 20.78260040283203 13.61843872070312 19.30546951293945 13.49849891662598 17.63896179199219 13.25862884521484 C 18.15658187866211 13.9656286239624 18.56059265136719 15.00088882446289 18.85097122192383 16.36439895629883 C 18.97722244262695 16.98301887512207 19.08452987670898 17.34914779663086 19.17290115356445 17.4627799987793 C 19.28652954101562 17.60164833068848 19.65265274047852 17.69002914428711 20.27128219604492 17.72789764404297 C 20.90254211425781 17.77839851379395 21.78630065917969 17.80364990234375 22.92255020141602 17.80364990234375 C 24.6269416809082 17.80364990234375 25.93994140625 17.44384002685547 26.86157989501953 16.72420883178711 C 27.79582977294922 15.97932910919189 28.40814971923828 14.74838829040527 28.69852066040039 13.03137874603271 C 29.22878265380859 9.710978507995605 29.55072021484375 6.093898773193359 29.66434097290039 2.180128574371338 C 29.74008941650391 -0.2817614078521729 29.77796936035156 -1.56321120262146 29.77796936035156 -1.664211273193359 C 30.87635040283203 -0.57845139503479 32.10729217529297 0.4631186723709106 33.47080230712891 1.460498690605164 C 33.88742065429688 1.801368713378906 34.15887069702148 1.971808671951294 34.28512191772461 1.971808671951294 C 34.43661117553711 1.971808671951294 34.68280029296875 1.687748670578003 35.023681640625 1.119618654251099 C 35.75593948364258 -0.1428914070129395 36.50082015991211 -1.108711242675781 37.25831985473633 -1.777841329574585 C 34.79643249511719 -3.204471111297607 32.50498199462891 -5.066671371459961 30.38397216796875 -7.364431381225586 C 27.93471145629883 -10.0409517288208 26.04095077514648 -12.95103168487549 24.70269012451172 -16.09467124938965 C 24.61431121826172 -16.32192039489746 24.51330947875977 -16.4355411529541 24.39969253540039 -16.43555068969727 M 49.79502105712891 -3.482221126556396 C 46.80287170410156 -3.482221126556396 43.75392150878906 -1.702081203460693 40.64815139770508 1.858188629150391 L 42.23892211914062 3.448948860168457 C 43.56455230712891 2.13593864440918 44.74499130249023 1.214308738708496 45.78025054931641 0.6840486526489258 C 46.82813262939453 0.1285486221313477 48.014892578125 -0.1492013931274414 49.34051132202148 -0.1492013931274414 C 50.36315155029297 -0.1492013931274414 51.42996978759766 0.04648864269256592 52.54096984863281 0.4378687143325806 C 53.71510314941406 0.8418686389923096 55.37530136108398 1.624618649482727 57.52157211303711 2.786128759384155 C 60.57683181762695 4.465258598327637 63.20284271240234 5.304828643798828 65.39961242675781 5.304828643798828 C 68.65688323974609 5.304828643798828 71.7310791015625 3.474198818206787 74.62223052978516 -0.1870813369750977 L 73.06934356689453 -1.815711259841919 C 71.78157806396484 -0.4648313522338867 70.60114288330078 0.4946787357330322 69.52801513671875 1.062808752059937 C 68.46749877929688 1.618308663368225 67.24287414550781 1.896058678627014 65.85411834716797 1.896058678627014 C 64.88198852539062 1.896058678627014 63.84042358398438 1.700368642807007 62.72941207885742 1.308988690376282 C 61.58052062988281 0.9049886465072632 59.89508056640625 0.1222386360168457 57.67306137084961 -1.039271354675293 C 54.63042068481445 -2.667901515960693 52.00440979003906 -3.482221126556396 49.79502105712891 -3.482221126556396 M 11.7977409362793 -17.60527038574219 L 12.81008148193359 -17.347900390625 C 14.34807205200195 -16.95688056945801 15.75318145751953 -16.47924041748047 16.98639297485352 -15.92824172973633 C 18.01654052734375 -15.4664421081543 18.12763977050781 -14.67239189147949 18.12763977050781 -14.3524112701416 C 18.12763977050781 -13.91333103179932 17.93424987792969 -13.48522090911865 17.55282974243164 -13.07998085021973 L 17.49973297119141 -13.02356147766113 L 17.43857955932617 -12.97600173950195 C 17.23130035400391 -12.81478118896484 17.02602005004883 -12.51899147033691 16.84494018554688 -12.12060165405273 L 16.84194183349609 -12.11406135559082 C 15.30377197265625 -8.793735504150391 13.37017822265625 -5.799959659576416 11.07954406738281 -3.188129425048828 C 11.80862045288086 -3.179738998413086 12.68935775756836 -3.175521373748779 13.7188720703125 -3.175521373748779 L 24.15349960327148 -3.175521373748779 C 25.33625411987305 -3.175521373748779 26.24739074707031 -3.179981231689453 26.94776153564453 -3.18713903427124 C 24.06341171264648 -6.442827224731445 21.71186828613281 -10.11798286437988 19.94300079345703 -14.13913154602051 L 19.91856002807617 -14.20004081726074 C 19.82453155517578 -14.45861053466797 19.78260040283203 -14.65746116638184 19.78260040283203 -14.84479141235352 C 19.78260040283203 -15.39294052124023 20.13145065307617 -15.82255172729492 20.81945037841797 -16.12167167663574 L 20.84678268432617 -16.13308143615723 L 23.57875061035156 -17.22586822509766 C 23.91740036010742 -17.37271308898926 24.16362380981445 -17.43552207946777 24.39958190917969 -17.43555068969727 L 24.3997802734375 -17.43555068969727 C 24.65503311157227 -17.43553161621094 25.28316116333008 -17.34135818481445 25.6280517578125 -16.4740104675293 C 26.91540145874023 -13.45398139953613 28.76364135742188 -10.61638641357422 31.12170028686523 -8.039521217346191 C 33.16181945800781 -5.829421520233154 35.39615249633789 -4.012711524963379 37.75971221923828 -2.64306116104126 L 38.96054077148438 -1.947201251983643 L 37.92036056518555 -1.028371334075928 C 37.2470817565918 -0.4336414337158203 36.56354141235352 0.4578486680984497 35.88871002197266 1.621338725090027 L 35.88117218017578 1.634118676185608 C 35.47505187988281 2.310978651046753 35.01729202270508 2.971808671951294 34.28512191772461 2.971808671951294 C 33.88605117797852 2.971808671951294 33.51108932495117 2.78300142288208 32.85883712768555 2.251826047897339 C 32.10845184326172 1.702122092247009 31.39193344116211 1.13469672203064 30.71454238891602 0.5540231466293335 C 30.70082855224609 1.006006956100464 30.68415069580078 1.5517737865448 30.66387176513672 2.210878610610962 C 30.54957962036133 6.147578716278076 30.2205696105957 9.841758728027344 29.68601226806641 13.18907833099365 L 29.68452072143555 13.19812870025635 C 29.35322189331055 15.15717887878418 28.61318969726562 16.60658836364746 27.48499298095703 17.50610733032227 L 27.47701263427734 17.51239776611328 C 26.37968063354492 18.36920928955078 24.84733963012695 18.80364799499512 22.92255020141602 18.80364799499512 C 21.75403213500977 18.80364799499512 20.86348342895508 18.77806091308594 20.20046615600586 18.72542953491211 C 19.38651657104492 18.67490196228027 18.76860809326172 18.54780006408691 18.39897155761719 18.09604835510254 L 18.38352203369141 18.07667922973633 C 18.20891189575195 17.85215759277344 18.06918334960938 17.53332138061523 17.87221908569336 16.56948471069336 C 17.61288452148438 15.35297107696533 17.2629508972168 14.43785572052002 16.83209228515625 13.84936904907227 L 15.69292831420898 12.29341602325439 C 13.6338005065918 15.11167335510254 10.77071380615234 17.34170722961426 7.1177978515625 18.96378898620605 C 6.504287719726562 19.23644828796387 6.099647521972656 19.35283851623535 5.765068054199219 19.35283851623535 C 4.994300842285156 19.35283851623535 4.496383666992188 18.62057876586914 4.090179443359375 17.93420791625977 L 4.068092346191406 17.89488983154297 C 3.624404907226562 17.06161880493164 3.060333251953125 16.39151763916016 2.39154052734375 15.90318870544434 L 0.8744430541992188 14.79545879364014 L 2.640510559082031 14.15540885925293 C 6.200332641601562 12.86527824401855 8.849967956542969 11.092848777771 10.51583099365234 8.8873291015625 C 11.79135131835938 7.213837623596191 12.64039993286133 5.104635238647461 13.04811859130859 2.603105068206787 L 8.605720520019531 2.668808698654175 C 8.297828674316406 2.668808698654175 7.85028076171875 2.630598545074463 7.519851684570312 2.300168752670288 L 7.469581604003906 2.24988865852356 L 7.426918029785156 2.193008661270142 C 7.1993408203125 1.889518737792969 7.170150756835938 1.530788660049438 7.170150756835938 1.25217866897583 L 7.170150756835938 0.6874289512634277 C 6.490219116210938 1.276103615760803 5.773857116699219 1.857310056686401 5.026329040527344 2.426528692245483 L 5.009971618652344 2.438728809356689 C 4.262107849121094 2.984448671340942 3.938751220703125 3.142248630523682 3.568313598632812 3.142248630523682 C 2.917648315429688 3.142248630523682 2.455963134765625 2.645788669586182 1.921951293945312 1.844758629798889 L 1.913139343261719 1.831308722496033 C 1.285003662109375 0.8554587364196777 0.6496505737304688 0.1512186527252197 0.02474212646484375 -0.2618613243103027 L -1.253532409667969 -1.106821298599243 L 0.03456878662109375 -1.936711311340332 C 4.920341491699219 -5.084516048431396 8.567512512207031 -9.246576309204102 10.87449645996094 -14.30649566650391 C 11.17195892333984 -14.98267936706543 11.4109001159668 -15.74847602844238 11.58470153808594 -16.58269119262695 L 11.7977409362793 -17.60527038574219 Z M 24.37986755371094 2.593058586120605 L 19.38527297973633 2.593058586120605 C 18.91737747192383 6.219204425811768 17.75339889526367 9.359270095825195 15.90389633178711 11.99858856201172 L 17.78143310546875 12.26882839202881 C 19.39315032958984 12.50080871582031 20.83615112304688 12.61843872070312 22.07036209106445 12.61843872070312 C 22.62141036987305 12.61843872070312 23.02141952514648 12.51546859741211 23.19670104980469 12.32849884033203 C 23.31055450439453 12.20620059967041 23.52798461914062 11.87247943878174 23.68008422851562 11.03918838500977 C 24.04988098144531 8.873889923095703 24.28485870361328 6.036045074462891 24.37986755371094 2.593058586120605 Z M 49.79502105712891 -4.482221126556396 C 52.15933609008789 -4.482221126556396 54.96703338623047 -3.621342182159424 58.14027404785156 -1.923429727554321 C 60.30769348144531 -0.7905750274658203 61.96330261230469 -0.02043557167053223 63.06114196777344 0.3656187057495117 C 64.06047821044922 0.7176586389541626 64.99999237060547 0.8960586786270142 65.85411834716797 0.8960586786270142 C 67.0731201171875 0.8960586786270142 68.15308380126953 0.6541286706924438 69.06401062011719 0.1769787073135376 C 70.03285980224609 -0.3359613418579102 71.13822937011719 -1.23923134803772 72.34552764892578 -2.505701541900635 L 73.06925964355469 -3.26491117477417 L 75.94512939453125 -0.2487714290618896 L 75.40704345703125 0.4326486587524414 C 72.33016204833984 4.32913875579834 68.96317291259766 6.304828643798828 65.39961242675781 6.304828643798828 C 63.04336547851562 6.304828643798828 60.23176956176758 5.416365623474121 57.04247283935547 3.663895606994629 C 54.95587539672852 2.534790992736816 53.33195495605469 1.767570972442627 52.21561050415039 1.383458614349365 L 52.20870971679688 1.381058692932129 C 51.20991134643555 1.02919864654541 50.24491119384766 0.8507987260818481 49.34051132202148 0.8507987260818481 C 48.18608093261719 0.8507987260818481 47.14582061767578 1.09195876121521 46.24861907958984 1.567578673362732 L 46.23612976074219 1.5740886926651 C 45.29716110229492 2.055028676986694 44.18907165527344 2.924868583679199 42.94264221191406 4.159428596496582 L 42.23554992675781 4.85978889465332 L 39.28050231933594 1.90475869178772 L 39.89458084106445 1.200818657875061 C 41.5117301940918 -0.6529812812805176 43.1486930847168 -2.069941282272339 44.75999069213867 -3.010701179504395 C 46.43238067626953 -3.987131118774414 48.12641143798828 -4.482221126556396 49.79502105712891 -4.482221126556396 Z" stroke="none" fill="#c00000"/>
      </g>
    </g>
    <g transform="matrix(1, 0, 0, 1, 934.79, 416.23)" filter="url(#Path_562)">
      <g id="Path_562-2" data-name="Path 562" transform="translate(-1.77 29.32)" fill="#fff001">
        <path d="M 26.41067695617676 25.17968559265137 L 25.91067695617676 25.17968559265137 L 15.23757648468018 25.17968559265137 L 14.73757648468018 25.17968559265137 L 14.73757648468018 24.67968559265137 L 14.73757648468018 -11.37203407287598 L 2.773436307907104 -11.37203407287598 L 2.273436307907104 -11.37203407287598 L 2.273436307907104 -11.87203407287598 L 2.273436307907104 -18.96306419372559 L 2.273436307907104 -19.4412841796875 L 2.751176357269287 -19.46256446838379 C 5.988126277923584 -19.60680389404297 8.277346611022949 -19.82430458068848 9.555266380310059 -20.10903358459473 C 11.53735637664795 -20.54796409606934 13.16891670227051 -21.43389511108398 14.40526580810547 -22.74233436584473 C 15.24554634094238 -23.63029479980469 15.89318656921387 -24.84072494506836 16.3304271697998 -26.34026527404785 C 16.58275604248047 -27.23752403259277 16.71136665344238 -27.90525436401367 16.71136665344238 -28.32031440734863 L 16.71136665344238 -28.82031440734863 L 17.21136665344238 -28.82031440734863 L 25.91067695617676 -28.82031440734863 L 26.41067695617676 -28.82031440734863 L 26.41067695617676 -28.32031440734863 L 26.41067695617676 24.67968559265137 L 26.41067695617676 25.17968559265137 Z" stroke="none"/>
        <path d="M 17.21136665344238 -28.32031440734863 C 17.21136665344238 -27.85732460021973 17.07772636413574 -27.15066528320312 16.8104362487793 -26.20031356811523 C 16.34859657287598 -24.61640357971191 15.66800594329834 -23.34927368164062 14.76868629455566 -22.39893531799316 C 13.4562463760376 -21.00996398925781 11.75469589233398 -20.083984375 9.664007186889648 -19.62100410461426 C 8.35157585144043 -19.32858467102051 6.054716110229492 -19.10927581787109 2.773435592651367 -18.96307373046875 L 2.773435592651367 -11.87203407287598 L 15.23757648468018 -11.87203407287598 L 15.23757648468018 24.67968559265137 L 25.91067695617676 24.67968559265137 L 25.91067695617676 -28.32031440734863 L 17.21136665344238 -28.32031440734863 M 16.21136665344238 -29.32031440734863 L 26.91067695617676 -29.32031440734863 L 26.91067695617676 25.67968559265137 L 14.23757648468018 25.67968559265137 L 14.23757648468018 -10.87203407287598 L 1.773435592651367 -10.87203407287598 L 1.773435592651367 -19.91951370239258 L 2.728925704956055 -19.96208381652832 C 5.936826705932617 -20.10501480102539 8.196956634521484 -20.31865501403809 9.446525573730469 -20.59707450866699 C 11.32978630065918 -21.01411437988281 12.87544631958008 -21.8513240814209 14.04183673858643 -23.08573532104492 C 14.82647132873535 -23.91488265991211 15.43430805206299 -25.05514335632324 15.84908866882324 -26.4756965637207 C 16.14845275878906 -27.54098701477051 16.21136665344238 -28.06679725646973 16.21136665344238 -28.32031440734863 L 16.21136665344238 -29.32031440734863 Z" stroke="none" fill="#c00000"/>
      </g>
    </g>
  </g>
</svg>
