<svg xmlns="http://www.w3.org/2000/svg" width="168.034" height="42.787" viewBox="0 0 168.034 42.787">
  <path id="Path_227" data-name="Path 227" d="M24.219-38.672a9.727,9.727,0,0,1,2.734.977A2.8,2.8,0,0,1,29.1-34.961a20.855,20.855,0,0,1-.977,6.25q1.953-.2,2.734-.2a4.884,4.884,0,0,0,1.953,0,14.668,14.668,0,0,0,1.563-1.367q-1.172-2.148.391-1.953a9.215,9.215,0,0,1,3.906,1.953q1.172,1.172.586,1.563-1.367,2.734-7.812,5.859a16.739,16.739,0,0,1,3.125,2.734q.2.586-1.367,1.563l-2.148,1.563q-2.539,2.148-5.469,4.492a55.85,55.85,0,0,0-7.031,5.469l1.367,1.172a16.2,16.2,0,0,1,8.008-4.687,29.856,29.856,0,0,1,8.2-1.367,5.2,5.2,0,0,1,2.344.586,4.451,4.451,0,0,1,1.758.977q.391.391,0,1.563Q38.672-6.25,37.109-3.906a9.945,9.945,0,0,1-2.344,2.344l-.781.977q3.125,1.367,2.93,3.125a4.467,4.467,0,0,1-1.367,1.172,28.235,28.235,0,0,0-3.32-.586,20.835,20.835,0,0,1-5.273-1.367A6.894,6.894,0,0,1,25.2-.586a19.769,19.769,0,0,1,3.32-2.539A12.636,12.636,0,0,0,33.4-8.594Q26.562-6.836,25.2-6.25a4.137,4.137,0,0,0-2.539,2.93A25.539,25.539,0,0,1,24.219-.586q.391.586-.781,2.148A6.324,6.324,0,0,1,19.727-.2a10,10,0,0,1-3.711-5.273A89.71,89.71,0,0,1,7.422.2H6.25A4.27,4.27,0,0,1,3.711-1.367q-.977-.977-.781-1.367A39.822,39.822,0,0,0,22.656-16.016a46.651,46.651,0,0,1-5.469.977l-1.367-.586-.977-1.562q-.781-1.367,0-1.758,4.688-.781,12.891-5.078a27.341,27.341,0,0,0-4.492.391,34.643,34.643,0,0,0-5.859,1.367,5.945,5.945,0,0,1-2.148,0q-2.344-.391-2.539-6.25-.586-2.539.2-2.93,2.148-.391,9.375,2.539a7.277,7.277,0,0,0,1.953-4.883q0-1.172-2.93-3.125-.781-.391-.2-.977A27.025,27.025,0,0,1,24.219-38.672ZM17.188-29.1a1.592,1.592,0,0,0-1.172.391,9.859,9.859,0,0,0,1.172,2.344q2.148-.781,3.32-1.172A6.582,6.582,0,0,0,17.188-29.1Zm12.5,6.641q-2.734.586-7.031,1.758a21.127,21.127,0,0,0-4.3,2.148Q26.953-20.508,29.688-22.461Zm54.1-8.2a13.338,13.338,0,0,1,7.617,2.539q4.1,2.734,3.711,5.469A58.908,58.908,0,0,1,92.383-12.3q-3.516,9.961-6.836,9.766a5.1,5.1,0,0,1-2.93-2.148,5.518,5.518,0,0,1-1.367-3.32q-4.3.391-12.7,1.563A4.685,4.685,0,0,1,66.8-8.789a5.518,5.518,0,0,1-1.367,3.32q-.586.977-1.953.391-3.711-2.344-4.3-11.328a53.487,53.487,0,0,0-1.953-9.961q-.586-2.148-.2-2.539Q62.3-25,62.7-23.633q1.367.977,2.344,4.1l.2,1.172a60.5,60.5,0,0,0,7.617-3.125,10.621,10.621,0,0,0-.391-2.93,4.321,4.321,0,0,0-1.367-1.758l-.977-.2a5.99,5.99,0,0,0-2.539-.2l-.781.2q-.2.391-.586,0,1.367-2.734,7.227-3.516A76.271,76.271,0,0,1,83.789-30.664Zm-.2,2.344a28.239,28.239,0,0,0-7.617,1.367,4.236,4.236,0,0,1,1.367,1.172,3.075,3.075,0,0,1,.781,1.172,8.217,8.217,0,0,1,.2,1.953q3.906,0,5.078,2.539a5.888,5.888,0,0,1-1.758,2.539q-1.758,1.758-4.3,3.906a3.564,3.564,0,0,0-.2,1.953q3.711,0,5.273,1.563a4.544,4.544,0,0,0,1.172.781q1.367,0,2.93-3.125,1.562-2.93,2.539-11.133Q88.672-27.93,83.594-28.32ZM72.656-17.578a20.9,20.9,0,0,1-4.492,1.172,4.67,4.67,0,0,1-2.93-1.172l.391,2.539.2,3.125.2.781a2.034,2.034,0,0,0,1.172.2h.977a9.694,9.694,0,0,0,3.32-1.953,6.8,6.8,0,0,0-1.367-1.367q-.586-.391-.586-.586a5.739,5.739,0,0,1,1.367.2,7.261,7.261,0,0,0,1.758.2A12.5,12.5,0,0,0,72.656-17.578Zm84.57-21.484a5.252,5.252,0,0,1,4.688,2.344,2.43,2.43,0,0,1,0,1.367,7.315,7.315,0,0,1-2.344,1.367q-2.539.2-4.3.2,1.758-1.367,1.563-2.148l-.586-.977a22.835,22.835,0,0,1-2.344-1.953Zm-15.039,4.1q1.953,2.539,1.758,3.32-.2.977-1.562.977-.586,0-4.883,2.344a28.2,28.2,0,0,0-5.469,3.516,4.109,4.109,0,0,1,2.539,2.344,2.452,2.452,0,0,1,.391,1.953q-.586,4.1-1.953,11.328-.391,2.539,1.172,2.93a52.071,52.071,0,0,0,4.492-6.641q1.953-4.687,2.734-7.031.391-.781.391.586Q139.844-7.617,136.719-.781,135.938.977,134.766.977q-3.711-2.539-3.516-7.812a35.336,35.336,0,0,0,1.563-8.2,11.6,11.6,0,0,0-.391-3.711,5.241,5.241,0,0,0-1.758-2.734q-2.344-.781-2.148-2.344-.2-.977.586-.977l2.148-.2q6.445-4.883,7.617-7.422-.391-.977-1.172-2.539a7.633,7.633,0,0,1,1.563-.586,7.261,7.261,0,0,1,1.758-.2Zm23.633,1.953a5.027,5.027,0,0,1,3.711,1.953q.586.586-.2.586a18.288,18.288,0,0,1-2.93.2q-2.148.2-4.492.586a4.973,4.973,0,0,0,1.172-1.172q-7.227.781-12.5,1.758a12.65,12.65,0,0,1-4.1-.977q-.586-.2-.586-.391A108.313,108.313,0,0,1,165.82-33.008Zm-4.1,5.078a4.336,4.336,0,0,1,3.711,1.563,2.43,2.43,0,0,1,0,1.367q0,.586-3.32,3.906-1.172.586-2.93,1.367a45.875,45.875,0,0,0-4.3,2.344q1.758-.391,4.883-.781,3.711-.391,3.711,1.758,0,.781-2.539,3.516l-1.367,1.563q3.711,0,6.445.2a9.914,9.914,0,0,1,4.1.977q.977.977.781,1.758-.2,1.563-2.148.781-3.125-.586-6.836-.977,1.563,4.688-2.148,8.984-2.539,2.734-4.3,2.734a2.557,2.557,0,0,1-2.539-1.172,83.2,83.2,0,0,1-5.273-8.4l1.563,1.172q2.539,1.953,3.711,2.734a3.6,3.6,0,0,0,2.539,1.172,11.1,11.1,0,0,0,3.125-4.1,3.194,3.194,0,0,0-.391-3.125,27.9,27.9,0,0,0-7.031,1.563q-4.687.391-5.859-1.562l1.758-.2q7.617-1.758,9.766-2.148l-.2-1.953a12.229,12.229,0,0,1,1.563-2.344l-6.641,2.148h-.781q-.586,0-.586-.391a13.011,13.011,0,0,0-.977-1.953q-.391-.781.977-.977a7.134,7.134,0,0,0,3.516-.781,20.411,20.411,0,0,1,3.125-2.539H152.93q-3.125,0-4.687-6.445,0-.2.781-.391A6.377,6.377,0,0,0,150.977-25a18.847,18.847,0,0,1,4.883-1.953A17.808,17.808,0,0,1,161.719-27.93ZM159.57-25.2a10.645,10.645,0,0,0-6.641,1.758,5.04,5.04,0,0,0,1.758,1.953A9.692,9.692,0,0,0,159.57-25.2Z" transform="translate(-2.897 39.076)" fill="#333"/>
</svg>
