<svg xmlns="http://www.w3.org/2000/svg" width="23.789" height="28.905" viewBox="0 0 23.789 28.905">
  <path id="Path_571" data-name="Path 571" d="M6.97-19.434a12.812,12.812,0,0,1,1.476-3.875A11.386,11.386,0,0,1,10.968-26.3a11.043,11.043,0,0,1,3.383-1.927,11.811,11.811,0,0,1,4.018-.677,9.7,9.7,0,0,1,3.711.636,6.072,6.072,0,0,1,2.419,1.7,5.423,5.423,0,0,1,1.148,2.542,7.789,7.789,0,0,1-.1,3.116,10.2,10.2,0,0,1-1.353,3.4,12.808,12.808,0,0,1-2.214,2.624,17.032,17.032,0,0,1-2.808,2.05q-1.538.9-3.1,1.7T13-9.594A23.422,23.422,0,0,0,10.25-8.036Q9.43-7.5,8.631-6.909A11.033,11.033,0,0,0,7.175-5.617,9.3,9.3,0,0,0,6.007-4.08a7.389,7.389,0,0,0-.8,1.866H21.32L20.869,0H1.968A17.208,17.208,0,0,1,3.219-3.772,11.012,11.012,0,0,1,5.74-7.052,29.625,29.625,0,0,1,9.512-10q1.886-1.23,3.629-2.193t3.321-1.763A18.781,18.781,0,0,0,19.291-15.7a10.5,10.5,0,0,0,2.132-2.132,7.437,7.437,0,0,0,1.251-2.911,5.725,5.725,0,0,0,.02-2.5,4.275,4.275,0,0,0-.963-1.886A4.3,4.3,0,0,0,19.967-26.3a7.018,7.018,0,0,0-2.419-.389,6.444,6.444,0,0,0-2.727.595,8.694,8.694,0,0,0-2.337,1.578,9.167,9.167,0,0,0-1.763,2.3,8.777,8.777,0,0,0-.964,2.788Z" transform="translate(-1.968 28.905)" fill="#999"/>
</svg>
