<svg xmlns="http://www.w3.org/2000/svg" width="31.233" height="33.177" viewBox="0 0 31.233 33.177">
  <g id="b" transform="translate(0 0.139)">
    <g id="c" transform="translate(0)">
      <path id="Path_18" data-name="Path 18" d="M18.214,15.7S21.341,26.947,12.5,28.33c0,0,8.42-1.8,10.525,10.465,0,0-3.368-12.871,4.751-14.434,0-.06-6.977,2.646-9.563-8.661Z" transform="translate(-4.982 -6.257)" fill="none" stroke="#fff742" stroke-linecap="round" stroke-linejoin="round" stroke-miterlimit="10" stroke-width="1"/>
      <path id="Path_19" data-name="Path 19" d="M41.872,14.192S40.488,7.456,45.48,7.216c0,0-3.909.241-4.27-6.616,0,0,1.022,6.856-4.21,8,0-.06,4.511-1.8,4.872,5.593Z" transform="translate(-14.747 -0.239)" fill="none" stroke="#fff742" stroke-linecap="round" stroke-linejoin="round" stroke-miterlimit="10" stroke-width="1"/>
      <path id="Path_20" data-name="Path 20" d="M3.007,9.443S2.466,4.992,5.593,4.39c0,0-2.706,0-3.127-4.39,0,0,.421,4.15-2.466,5.172,0,0,2.406-.3,3.007,4.27Z" transform="translate(0)" fill="#fff742"/>
    </g>
  </g>
</svg>
