<svg xmlns="http://www.w3.org/2000/svg" width="52.766" height="70.354" viewBox="0 0 52.766 70.354">
  <path id="Icon_awesome-clipboard-list" data-name="Icon awesome-clipboard-list" d="M46.17,8.794H35.177a8.794,8.794,0,0,0-17.589,0H6.6A6.6,6.6,0,0,0,0,15.39V63.759a6.6,6.6,0,0,0,6.6,6.6H46.17a6.6,6.6,0,0,0,6.6-6.6V15.39A6.6,6.6,0,0,0,46.17,8.794ZM13.192,58.263a3.3,3.3,0,1,1,3.3-3.3A3.29,3.29,0,0,1,13.192,58.263Zm0-13.192a3.3,3.3,0,1,1,3.3-3.3A3.29,3.29,0,0,1,13.192,45.071Zm0-13.192a3.3,3.3,0,1,1,3.3-3.3A3.29,3.29,0,0,1,13.192,31.88ZM26.383,5.5a3.3,3.3,0,1,1-3.3,3.3A3.29,3.29,0,0,1,26.383,5.5ZM43.972,56.064a1.1,1.1,0,0,1-1.1,1.1H23.085a1.1,1.1,0,0,1-1.1-1.1v-2.2a1.1,1.1,0,0,1,1.1-1.1H42.872a1.1,1.1,0,0,1,1.1,1.1Zm0-13.192a1.1,1.1,0,0,1-1.1,1.1H23.085a1.1,1.1,0,0,1-1.1-1.1v-2.2a1.1,1.1,0,0,1,1.1-1.1H42.872a1.1,1.1,0,0,1,1.1,1.1Zm0-13.192a1.1,1.1,0,0,1-1.1,1.1H23.085a1.1,1.1,0,0,1-1.1-1.1v-2.2a1.1,1.1,0,0,1,1.1-1.1H42.872a1.1,1.1,0,0,1,1.1,1.1Z" fill="#1976d2"/>
</svg>
