<svg xmlns="http://www.w3.org/2000/svg" width="61.561" height="70.354" viewBox="0 0 61.561 70.354">
  <path id="Icon_awesome-calendar-check" data-name="Icon awesome-calendar-check" d="M59.912,21.986H1.649A1.649,1.649,0,0,1,0,20.337V15.39a6.6,6.6,0,0,1,6.6-6.6h6.6V1.649A1.649,1.649,0,0,1,14.84,0h5.5a1.649,1.649,0,0,1,1.649,1.649V8.794H39.575V1.649A1.649,1.649,0,0,1,41.224,0h5.5a1.649,1.649,0,0,1,1.649,1.649V8.794h6.6a6.6,6.6,0,0,1,6.6,6.6v4.947A1.649,1.649,0,0,1,59.912,21.986Zm-58.263,4.4H59.912a1.649,1.649,0,0,1,1.649,1.649V63.759a6.6,6.6,0,0,1-6.6,6.6H6.6a6.6,6.6,0,0,1-6.6-6.6V28.032A1.649,1.649,0,0,1,1.649,26.383Zm45.8,13.184-3.871-3.9a1.649,1.649,0,0,0-2.332-.009L26.674,50.109,20.356,43.74a1.649,1.649,0,0,0-2.332-.009l-3.9,3.871a1.649,1.649,0,0,0-.009,2.332l11.35,11.442a1.649,1.649,0,0,0,2.332.009L47.438,41.9a1.649,1.649,0,0,0,.009-2.332Z" fill="#1976d2"/>
</svg>
