<svg xmlns="http://www.w3.org/2000/svg" width="1921.987" height="149.445" viewBox="0 0 1921.987 149.445">
  <path id="Path_941" data-name="Path 941" d="M119.316-5.1Q103.6,2.5,78.276,2.5q-33.032,0-51.951-19.419T7.407-68.667q0-34.434,21.271-55.854t55.2-21.421q21.021,0,35.435,5.305v31.13q-14.414-8.608-32.832-8.608-20.22,0-32.632,12.712T41.44-70.969q0,20.82,11.711,33.182T84.683-25.425a67.255,67.255,0,0,0,34.634-9.209ZM227.322-117.214H176.672V-81.98h46.545v26.226H176.672V0H144.341V-143.54h82.981ZM371.362,0H334.226L311.9-36.936q-2.5-4.2-4.8-7.507a41.707,41.707,0,0,0-4.655-5.656,18.51,18.51,0,0,0-4.9-3.6,12.449,12.449,0,0,0-5.555-1.251h-8.708V0H250.945V-143.54h51.25q52.251,0,52.251,39.038a40.425,40.425,0,0,1-2.3,13.864,38.513,38.513,0,0,1-6.506,11.461,41.243,41.243,0,0,1-10.16,8.809,52.4,52.4,0,0,1-13.263,5.806v.4a20.572,20.572,0,0,1,6.206,3.253,44.441,44.441,0,0,1,5.806,5.255,73.316,73.316,0,0,1,5.355,6.456q2.552,3.453,4.655,6.757ZM283.276-119.316v39.939H297.29q10.41,0,16.716-6.006a20.043,20.043,0,0,0,6.406-15.115q0-18.818-22.522-18.818ZM470.859,0H384.775V-143.54h82.781v26.326H417.107v31.931h46.946v26.226H417.107v32.832h53.752Zm55.354-49.448V0H493.882V-143.54h50.649q54.253,0,54.253,45.745,0,21.621-15.565,34.984T541.628-49.448Zm0-69.268v44.744h12.712q25.825,0,25.825-22.622,0-22.122-25.825-22.122ZM733.916,0H698.682l-10.21-31.931h-51.05L627.312,0H592.278l52.251-143.54h38.337ZM681.064-56.755,665.649-105a62.87,62.87,0,0,1-2.4-12.913h-.8a54.749,54.749,0,0,1-2.5,12.512L644.329-56.755ZM784.165,0H751.833V-143.54h32.332ZM937.214,0H900.078L877.756-36.936q-2.5-4.2-4.8-7.507A41.711,41.711,0,0,0,868.3-50.1a18.509,18.509,0,0,0-4.9-3.6,12.449,12.449,0,0,0-5.555-1.251h-8.708V0H816.8V-143.54h51.25q52.251,0,52.251,39.038A40.424,40.424,0,0,1,918-90.638a38.513,38.513,0,0,1-6.506,11.461,41.244,41.244,0,0,1-10.16,8.809,52.4,52.4,0,0,1-13.263,5.806v.4a20.571,20.571,0,0,1,6.206,3.253,44.439,44.439,0,0,1,5.806,5.255,73.321,73.321,0,0,1,5.355,6.456q2.552,3.453,4.655,6.757ZM849.128-119.316v39.939h14.014q10.41,0,16.716-6.006a20.043,20.043,0,0,0,6.406-15.115q0-18.818-22.522-18.818ZM1110.083-5.1Q1094.368,2.5,1069.043,2.5q-33.032,0-51.951-19.419t-18.918-51.75q0-34.434,21.271-55.854t55.2-21.421q21.021,0,35.435,5.305v31.13q-14.414-8.608-32.832-8.608-20.22,0-32.632,12.712t-12.412,34.434q0,20.82,11.711,33.182t31.531,12.362a67.255,67.255,0,0,0,34.634-9.209Zm108.005-112.109h-50.649V-81.98h46.545v26.226h-46.545V0h-32.332V-143.54h82.981ZM1362.129,0h-37.136l-22.322-36.936q-2.5-4.2-4.8-7.507a41.7,41.7,0,0,0-4.655-5.656,18.51,18.51,0,0,0-4.9-3.6,12.449,12.449,0,0,0-5.555-1.251h-8.708V0h-32.332V-143.54h51.25q52.251,0,52.251,39.038a40.426,40.426,0,0,1-2.3,13.864,38.512,38.512,0,0,1-6.506,11.461,41.243,41.243,0,0,1-10.16,8.809,52.4,52.4,0,0,1-13.263,5.806v.4a20.572,20.572,0,0,1,6.206,3.253,44.443,44.443,0,0,1,5.806,5.255,73.31,73.31,0,0,1,5.355,6.456q2.552,3.453,4.655,6.757Zm-88.086-119.316v39.939h14.014q10.41,0,16.716-6.006a20.043,20.043,0,0,0,6.406-15.115q0-18.818-22.522-18.818ZM1461.626,0h-86.084V-143.54h82.781v26.326h-50.449v31.931h46.946v26.226h-46.946v32.832h53.752Zm55.354-49.448V0h-32.332V-143.54H1535.3q54.253,0,54.253,45.745,0,21.621-15.565,34.984T1532.4-49.448Zm0-69.268v44.744h12.712q25.825,0,25.825-22.622,0-22.122-25.825-22.122ZM1724.683,0h-35.234l-10.21-31.931h-51.05L1618.079,0h-35.034L1635.3-143.54h38.337Zm-52.852-56.755L1656.416-105a62.879,62.879,0,0,1-2.4-12.913h-.8a54.749,54.749,0,0,1-2.5,12.512L1635.1-56.755ZM1774.932,0H1742.6V-143.54h32.332Zm153.049,0h-37.136l-22.322-36.936q-2.5-4.2-4.8-7.507a41.7,41.7,0,0,0-4.655-5.656,18.51,18.51,0,0,0-4.9-3.6,12.449,12.449,0,0,0-5.555-1.251H1839.9V0h-32.332V-143.54h51.25q52.251,0,52.251,39.038a40.426,40.426,0,0,1-2.3,13.864,38.512,38.512,0,0,1-6.506,11.461,41.243,41.243,0,0,1-10.16,8.809,52.4,52.4,0,0,1-13.263,5.806v.4a20.572,20.572,0,0,1,6.206,3.253,44.443,44.443,0,0,1,5.806,5.255A73.31,73.31,0,0,1,1896.2-49.2q2.552,3.453,4.655,6.757ZM1839.9-119.316v39.939h14.014q10.41,0,16.716-6.006a20.043,20.043,0,0,0,6.406-15.115q0-18.818-22.522-18.818Z" transform="translate(-6.907 146.442)" fill="#fff" stroke="#0072bc" stroke-width="1" opacity="0.3"/>
</svg>
