<svg xmlns="http://www.w3.org/2000/svg" width="1013.76" height="86.88" viewBox="0 0 1013.76 86.88">
  <path id="Path_941" data-name="Path 941" d="M9.96,0V-84H46.32q11.28,0,19.44,3.66a28.466,28.466,0,0,1,12.6,10.5A29.312,29.312,0,0,1,82.8-53.52a28.8,28.8,0,0,1-4.44,16.14A28.232,28.232,0,0,1,65.76-27q-8.16,3.6-19.44,3.6H20.76l8.64-8.52V0Zm53.4,0-21-30.48H63.12L84.36,0ZM29.4-29.76l-8.64-9.12H45.24q9,0,13.44-3.9t4.44-10.74q0-6.96-4.44-10.8T45.24-68.16H20.76L29.4-77.4Zm86.64-20.4h40.44v15.12H116.04Zm1.44,34.56H163.2V0H98.16V-84h63.48v15.6H117.48Zm79.2-30.6H237v15.6H196.68ZM198.12,0H178.68V-84h63.48v15.6H198.12Zm57.24,0V-84h36.36q11.28,0,19.44,3.66a28.466,28.466,0,0,1,12.6,10.5,29.312,29.312,0,0,1,4.44,16.32,28.8,28.8,0,0,1-4.44,16.14A28.232,28.232,0,0,1,311.16-27q-8.16,3.6-19.44,3.6H266.16l8.64-8.52V0Zm53.4,0-21-30.48h20.76L329.76,0ZM274.8-29.76l-8.64-9.12h24.48q9,0,13.44-3.9t4.44-10.74q0-6.96-4.44-10.8t-13.44-3.84H266.16l8.64-9.24ZM343.56,0V-84H363V0Zm79.92,1.44a50.967,50.967,0,0,1-18.3-3.18,43.071,43.071,0,0,1-14.52-9.06,41.615,41.615,0,0,1-9.6-13.8A43.43,43.43,0,0,1,377.64-42a43.43,43.43,0,0,1,3.42-17.4,41.2,41.2,0,0,1,9.66-13.8,43.6,43.6,0,0,1,14.64-9.06,51.807,51.807,0,0,1,18.48-3.18,51.875,51.875,0,0,1,20.1,3.72A39.8,39.8,0,0,1,459-70.92L446.52-59.4a30.456,30.456,0,0,0-9.96-7.14,29.258,29.258,0,0,0-11.76-2.34,31.122,31.122,0,0,0-11.16,1.92,24.864,24.864,0,0,0-8.7,5.52,24.778,24.778,0,0,0-5.64,8.52A29,29,0,0,0,397.32-42a28.67,28.67,0,0,0,1.98,10.8,25.411,25.411,0,0,0,5.64,8.58,24.558,24.558,0,0,0,8.64,5.58,30.286,30.286,0,0,0,10.98,1.92,34.563,34.563,0,0,0,11.22-1.86,32.379,32.379,0,0,0,10.62-6.3L457.44-9.24a50.636,50.636,0,0,1-15.9,7.92A61.7,61.7,0,0,1,423.48,1.44Zm16.2-13.2V-43.32h17.76V-9.24Zm53.64-38.4h40.44v15.12H493.32Zm1.44,34.56h45.72V0H475.44V-84h63.48v15.6H494.76ZM555.96,0V-84h36.36q11.28,0,19.44,3.66a28.466,28.466,0,0,1,12.6,10.5,29.312,29.312,0,0,1,4.44,16.32,28.8,28.8,0,0,1-4.44,16.14A28.232,28.232,0,0,1,611.76-27q-8.16,3.6-19.44,3.6H566.76l8.64-8.52V0Zm53.4,0-21-30.48h20.76L630.36,0ZM575.4-29.76l-8.64-9.12h24.48q9,0,13.44-3.9t4.44-10.74q0-6.96-4.44-10.8t-13.44-3.84H566.76l8.64-9.24ZM633.12,0l37.44-84h19.2L727.32,0h-20.4L676.2-74.16h7.68L653.04,0Zm18.72-18L657-32.76h43.2L705.48-18ZM749.28,0V-68.16H722.4V-84h73.2v15.84H768.72V0Zm56.76,0V-84h19.44V0ZM886.2,1.44A51.083,51.083,0,0,1,867.78-1.8a43.583,43.583,0,0,1-14.64-9.12,41.616,41.616,0,0,1-9.6-13.8A43.123,43.123,0,0,1,840.12-42a43.123,43.123,0,0,1,3.42-17.28,41.2,41.2,0,0,1,9.66-13.8,44.388,44.388,0,0,1,14.64-9.12,50.26,50.26,0,0,1,18.24-3.24,50.124,50.124,0,0,1,18.3,3.24,43.851,43.851,0,0,1,14.52,9.12,42.555,42.555,0,0,1,9.66,13.74A42.36,42.36,0,0,1,932.04-42a42.9,42.9,0,0,1-3.48,17.34,41.546,41.546,0,0,1-9.66,13.8A44.36,44.36,0,0,1,904.38-1.8,49.782,49.782,0,0,1,886.2,1.44Zm-.12-16.56a27.4,27.4,0,0,0,10.38-1.92,24.889,24.889,0,0,0,8.34-5.52,25.21,25.21,0,0,0,5.58-8.52A29,29,0,0,0,912.36-42a29,29,0,0,0-1.98-10.92,25.671,25.671,0,0,0-5.52-8.52,24.118,24.118,0,0,0-8.34-5.52,27.856,27.856,0,0,0-10.44-1.92,27.4,27.4,0,0,0-10.38,1.92,24.89,24.89,0,0,0-8.34,5.52,25.211,25.211,0,0,0-5.58,8.52A29,29,0,0,0,859.8-42a29.133,29.133,0,0,0,1.98,10.86,25.533,25.533,0,0,0,5.52,8.58,24.119,24.119,0,0,0,8.34,5.52A27.855,27.855,0,0,0,886.08-15.12ZM946.68,0V-84h16.08l49.56,60.48h-7.8V-84h19.2V0h-15.96L958.08-60.48h7.8V0Z" transform="translate(-9.96 85.44)" fill="#fff" opacity="0.2"/>
</svg>
