<svg id="レイヤー_1" data-name="レイヤー 1" xmlns="http://www.w3.org/2000/svg" width="720.221" height="466.794" viewBox="0 0 720.221 466.794">
  <path id="Path_15" data-name="Path 15" d="M187.721,64.766A54.59,54.59,0,1,1,133.13,10.1,54.6,54.6,0,0,1,187.721,64.766Z" transform="translate(517.771 66.639)" fill="#fff"/>
  <path id="Path_16" data-name="Path 16" d="M181.456,285.044c-107.51-57.1-97.64-174.1,14.426-276.064a592.2,592.2,0,0,0-56.944,35C-17.7,153.39-46.168,294.459,75.389,359.071c121.632,64.612,347.13,28.244,503.84-81.164a485.065,485.065,0,0,0,49.124-39.1c-150.636,81.468-339.386,103.334-446.9,46.163Z" transform="translate(-0.001 59.255)" fill="#fff"/>
  <path id="Path_17" data-name="Path 17" d="M168.514,213.928C123.111,100.952,206.021,17.89,357.34,12.043A579.336,579.336,0,0,0,291.209,2.1C101.017-15.062-11.656,74.606,39.745,202.312,91.07,330.018,287.034,447.475,477.378,464.71a492.549,492.549,0,0,0,62.79,1.746C372.525,431.758,213.993,326.905,168.514,213.928Z" transform="translate(180.053 0.007)" fill="#fff"/>
</svg>
