<svg xmlns="http://www.w3.org/2000/svg" width="1296.864" height="776" viewBox="0 0 1296.864 776">
  <g id="Group_86" data-name="Group 86" transform="translate(-738.568 -217.5)">
    <path id="Path_232" data-name="Path 232" d="M-10312.629-8530.658s-73.559-10.364-76.956-134.888,232.229-354.2,434.9-480.087,586.776-301.2,792.842,27.182-114.5,579.809-114.5,579.809Z" transform="translate(11128.189 9524.158)" fill="#fff" opacity="0.1"/>
    <g id="Objects" transform="translate(830 426.99)">
      <g id="Group_54" data-name="Group 54" transform="translate(0 0.009)">
        <path id="Path_130" data-name="Path 130" d="M230.23,76.462A26.834,26.834,0,0,1,253.306,81.8c11.147,8.921,17.268,26.884,13.407,41.248-3.86,14.346-16.085,21.824-16.085,21.824l-20.4-68.411Z" transform="translate(170.132 55.961)" fill="#5d231b"/>
        <path id="Path_131" data-name="Path 131" d="M18.19,276.545c-3.3,8-4.869,19.755-4.087,32.814s.522,20.12-3.391,33.18S0,379.161,0,379.161H118.545V241.453s-32.606-7.321-56.638,5.217S18.19,276.545,18.19,276.545Z" transform="translate(0 176.839)" fill="#ca715d"/>
        <path id="Path_132" data-name="Path 132" d="M55.264,246.675C31.231,259.212,11.546,276.55,11.546,276.55a49.909,49.909,0,0,0-2.556,8.643c.243.313,9.843,12.451,31.44,17.964,21.876,5.582,26.693,3.721,26.693,3.721l11.86-32.362,2.591,34.71a199.212,199.212,0,0,0,30.328,3.3V241.423S79.3,234.1,55.264,246.64Z" transform="translate(6.643 176.817)" fill="rgba(0,0,0,0.2)"/>
        <path id="Path_133" data-name="Path 133" d="M90.05,14.081S112.1,3.508,127.09,24.149c14.99,20.659,3.6,46.969-13.338,49.769s-23.7-59.838-23.7-59.838Z" transform="translate(66.544 8.388)" fill="#5d231b"/>
        <path id="Path_134" data-name="Path 134" d="M147.72,43.3c2.417,8.295,5.53,32.779,3.113,53.056s-17.337,48.4-25.98,53.925-22.989-1.652-22.989-1.652a82.216,82.216,0,0,0-2.835,9.7c-1.043,5.043,4.347,11.79,12.121,22.433A98.877,98.877,0,0,1,123.27,203.6s-63.42-15.72-74.828-53.421c0,0,7.269-10.729,10.729-29.058,0,0-17.285-17.633-19.72-37.005-2.417-19.372,4.156-42.187,24.9-59.838S130.07,2.49,147.7,43.3Z" transform="translate(28.802 8.484)" fill="#ffdbc2"/>
        <path id="Path_135" data-name="Path 135" d="M59.766,101.994c6.121,7.234,24.432,14.086,29.215,15.79.991-3.93,2.365-7.7,2.365-7.7-8.33-2.921-25.389-13.007-29.719-21.024C57.279,81.04,58.114,63.65,58.114,63.65s-2.33,2.591-4.034,10.9c-1.722,8.312-1.391,19.094,5.686,27.441Z" transform="translate(39.32 47.019)" fill="#edc1a4"/>
        <path id="Path_136" data-name="Path 136" d="M61.528,135.371a41.059,41.059,0,0,0,6.678-10.886A60.8,60.8,0,0,0,72.24,110.7c-4.5,1.391-15.912-2.469-18.433-13.06-2.73-11.442-.783-17.337,3.721-20.8S68.954,73.1,73.788,80.351c4.139,6.208,2.921,11.286,5.46,12.312,2.539,1.043,11.39-7.651,12.086-23.215,0,0,13.147,8.99,24.9,0s7.617-21.094,7.617-21.094a18.2,18.2,0,0,0,15.042,9.686c10.9.7,12.451-6.225,12.451-6.225s3.443-13.86-10.034-23.893c0,0,1.269-20.363-22.311-26.224C93.925-4.528,72.344,7.21,68.275,24.739c0,0-19.372-2.469-27.806,12.573-10.121,18.033-6.417,34.64-1.061,54.638,4.208,15.7,10.5,30.658,13.72,36.31,4.556,8,8.417,7.13,8.417,7.13Z" transform="translate(25.194 -0.009)" fill="#5d231b"/>
        <path id="Path_137" data-name="Path 137" d="M74.234,86.99c-2.765,5.443-17.494,10.747-27.3,17.059s-32.71,28.641-26.067,73.506c6.66,45.057,16.172,125.362,15.077,140.248S31.577,342.131,23.23,359.19,9.44,387.153,9.44,387.153s12.712,17.424,54.1,21.059L79.52,367.92l3.634,43.926s51.3,7.791,70.672,1.217c0,0,12.208-177.514,9.095-208.658-5.652-56.586-36.779-88.913-36.779-88.913s-15.877,1.774-27.406-4.643C78.512,99.6,74.251,86.99,74.251,86.99Z" transform="translate(6.976 64.266)" fill="#f6e3d5"/>
        <path id="Path_138" data-name="Path 138" d="M157.232,265.725l-42.6-33.91L71.188,175.334l-11.251-59L26.827,106.21C18.95,118.331,12.6,136.938,16.515,163.37c.556,3.774,1.13,7.791,1.722,12C23.071,195.645,29.209,218.2,35,232.337c0,0,2.469,1.009,7.6,0l11.182,26.032L31.592,296.244c.122,3.182.139,5.7.017,7.373-.922,12.677-3.443,21.424-9.338,34.275,15.251,3.3,65.768-24.711,78.01-32.553a29.445,29.445,0,0,0,3.634,10.416c2.991,5.06.209,11.651,3.321,15.2,3.1,3.548-29.041,59.3-29.041,59.3l.609,7.391s51.3,7.791,70.672,1.217c0,0,4.991-72.654,7.773-133.153Z" transform="translate(11.326 78.469)" fill="rgba(0,0,0,0.2)" opacity="0.37"/>
        <path id="Path_139" data-name="Path 139" d="M149.088,76.07s12.155-3.043,21.789,6.347c11.512,11.234,15.425,43.492-9.686,56.534,0,0-12.834-16.5-15.894-31.667-3.078-15.164,3.791-31.2,3.791-31.2Z" transform="translate(106.783 55.849)" fill="#5d231b"/>
        <path id="Path_140" data-name="Path 140" d="M226.12,269.577l12.086,88.1H45.72s5.739-48.813,29.91-89.313l150.473,1.2Z" transform="translate(33.785 198.292)" fill="#844b38"/>
        <path id="Path_141" data-name="Path 141" d="M68.17,348.022S73,304.444,88.951,281.42h6.608s-16.033,20.85-21.772,66.6H68.17Z" transform="translate(50.375 207.943)" fill="rgba(0,0,0,0.2)"/>
        <path id="Path_142" data-name="Path 142" d="M216.728,269.57l-150.473-1.2c-2.869,4.8-5.46,9.7-7.825,14.642,0,.243,1.3,22.937,39.162,32.623,38.049,9.738,67.681,1.774,90.687-19.024,0,0,14.364,17.146,34.4,16.277Z" transform="translate(43.178 198.3)" fill="rgba(0,0,0,0.2)"/>
        <path id="Path_143" data-name="Path 143" d="M117.567,162.56c-10.295,7.738-71.75,56.116-88.1,71.871C13.142,250.186,8.394,268.9,14.62,277.8c6.243,8.9,13.355,9.808,28.206,3.565S116.332,240.9,116.332,240.9s3.7-5.565,5.773-29.319c2.087-23.754-4.556-49.021-4.556-49.021Z" transform="translate(8.856 120.11)" fill="#ffdbc2"/>
        <path id="Path_144" data-name="Path 144" d="M103.913,202.078a127.6,127.6,0,0,0-.017-20.468C93.862,179.7,80.4,177.159,70.8,175.42c-10.938,8.695-23.267,18.607-34.153,27.6,3.339,11.6,13.581,32.432,21.354,35.249,5.408,1.965,22.241-.47,31.962-2.139,5.008-2.9,8.191-4.747,8.191-4.747s3.7-5.565,5.773-29.319Z" transform="translate(27.083 129.613)" fill="rgba(0,0,0,0.2)"/>
        <path id="Path_145" data-name="Path 145" d="M177.617,212.97c-11.86-1.687-15.964-3.269-16.677-4.852s.3-16.659,3.165-21.337a31.843,31.843,0,0,0,15.546,2.574c8.26-.922,11.634-6.312,16.294-22.467,4.678-16.155,5.026-54.986,2.521-66.5s-33.423-32.866-66.481-19.32C98.929,94.634,93.538,143.5,98.929,158.593s18.676,25.145,18.676,29.823.73,13.738-4.66,16.416c-5.391,2.661-20.485,5.93-20.485,5.93s1.078,11.46,39.527,15.216,45.63-13.025,45.63-13.025Z" transform="translate(68.325 56.675)" fill="#ffdbc2"/>
        <path id="Path_146" data-name="Path 146" d="M191.513,155.162s-14.173,9.773-39.022,7.078-23.111-10.26-23.111-10.26-16.833,2.608-23.337,4.4c-12.712,3.5-20,6-23.667,14-2.435,5.321-6.869,47.213-3.008,68.446l4.156,22.815s6.991,25.337,5.356,37.718-29.267,53.108-29.267,53.108-1.791,33.319,52.1,39.057c53.891,5.756,79.766-31.614,79.766-31.614,7.912,26.954,33.458,22.641,33.458,22.641-5.7-16.155-8.312-65.037-6.26-82.027s22.276-124.684,15.894-130.144c-12.381-10.59-31.214-13.529-43.074-15.216" transform="translate(44.047 112.292)" fill="#9a8a3f"/>
        <path id="Path_147" data-name="Path 147" d="M218.886,172.99l-89.122,17.824L70.5,217.386c.209,2.1.487,4.087.817,5.912l2.435,13.338c8.851-2.208,30.449-8.73,52.4-13.894,30.084-7.095,65.42-16.468,80.775-20.189l19.042-17.32c.4-3.426.765-6.678,1.043-9.686l-8.1-2.539Z" transform="translate(52.097 127.817)" fill="rgba(0,0,0,0.2)"/>
        <path id="Path_148" data-name="Path 148" d="M162.512,258.911l-48.065-9.164L93.788,224.132,83.963,205.89c-3.652,3.982-3.6,10.59-2.035,16.1S89.2,238.426,89.2,238.426L77.964,252.7a37.365,37.365,0,0,1-.191,6.817,36.73,36.73,0,0,1-3.182,9.216,49.131,49.131,0,0,0,18.642,7.912c11.321,1.93,37.6,5.982,64.881,16.207,27.284,10.242,37.249,10.868,41.839,9.338,2.052-.678,4.921-3.617,7.478-6.625-.73-14.12-.73-27.51.174-34.884.122-1.061.33-2.452.574-4.174l-.139-.852-45.543,3.235Z" transform="translate(55.119 152.129)" fill="rgba(0,0,0,0.2)"/>
        <path id="Path_149" data-name="Path 149" d="M168.746,240.343c-7.043-.4-36.814-1.6-41.2-2.261s-6.5-2.661-7.843-5.843c-1.322-3.182-3.061-8.364-8.1-11.825s-10.764-5.843-12.886-8.9-3.182-9.043-7.582-7.182c-4.382,1.861-2.661,9.964-1.061,13.547s6.382,10.225,6.782,11.686-1.461,1.861-5.043.8-14.625-7.182-14.625-7.182L76.129,217.6a6.559,6.559,0,0,0-6.643,3.721,13.137,13.137,0,0,0,0,11.425c1.322,2.661-.261,5.982,2.261,9.964s3.982,4.382,4.521,7.043,2.261,8.677,7.843,12.312,15.407,4.7,26.45,6.417C121.585,270.2,162.9,283,162.9,283s3.461-4.243,5.86-15.581c3.321-15.685,0-27.11,0-27.11Z" transform="translate(50.381 150.716)" fill="#ffdbc2"/>
        <path id="Path_150" data-name="Path 150" d="M201.98,112.822c-1.9,7.147-7.356,13.3-13.512,18.05S181.6,138.7,179.93,145.34c-1.652,6.643-5.217,10.9-8.538,10.434s-1.9-7.095-4.26-11.721-6.643-11.269-15.651-7.947-7.738,21.337-2.209,27.267,9.564,5.93,12.642,4.5,4.747.956,4.034,4.747-1.861,15.564-10.869,22.207-31.51,4-34.849,1.635-11.39-7.321-18.729-15.859c-7.356-8.538-12.277-18.1-13.007-31.371-.852-15.251,1.913-33.527,7.008-38.275l30.971-34.814s8.417-13.981,32.362-12.329,31.771,21.094,31.771,21.094,18.485,15.72,11.39,27.945Z" transform="translate(65.282 47.042)" fill="#5d231b"/>
        <path id="Path_151" data-name="Path 151" d="M131.559,67.935c10.782,10.034,9.269,29.162-3.356,42.744-12.625,13.564-31.614,16.433-42.4,6.4s-9.269-29.162,3.356-42.744C101.788,60.77,120.778,57.9,131.559,67.935Z" transform="translate(58.092 45.76)" fill="#5d231b"/>
        <path id="Path_152" data-name="Path 152" d="M313.928,181.67c-13.6-2.139-25.058-2.3-38.709-4.608-13.651-2.3-20.1-3.652-18.746-16.572s2.713-21.407,2.713-21.407L215.328,136.7s-2.035,20.728-3.061,25.493-1.356,4.765-11.564,6.452c-10.19,1.7-31.354,5.843-31.354,5.843s2.8,11.495,58.534,21.685c55.751,10.19,85.992-14.52,85.992-14.52Z" transform="translate(125.144 101)" fill="#ffdbc2"/>
        <path id="Path_153" data-name="Path 153" d="M306.7,162.729s32.293,3.861,43.074,5.373,19.563,4.73,28.675,26.832c0,0-23.041,64.637-21.268,74.845,2.556,14.659-3.165,55.96-4.956,65.507-1.791,9.53,1.5,31.284,8.051,62.568s9.6,43.544,9.6,43.544h-230.1s16.99-31.927,39.927-61.125,39.631-54.83,42.309-63.177-11.025-55.421-11.025-55.421S173.44,318,168.97,324.244s-6.852,5.669-18.781,2.678c-11.912-2.974-26.224-7.756-26.224-7.756s-5.356-9.912-2.087-24.328,7.947-18.363,7.947-18.363,6.052.087,8.434.087,6.556-.3,10.138-8.643S177,197,183.856,182.4s11.39-22.537,25.963-24.972a175.178,175.178,0,0,1,26.745-2.365s7.877,12,30.727,14.381c22.867,2.382,39.37-6.747,39.37-6.747Z" transform="translate(89.283 114.568)" fill="#f29d5c"/>
        <path id="Path_154" data-name="Path 154" d="M323.852,263.9h0l-18.224,27.18c2.556,14.573,5.113,34.64-21.2,48.917C258.1,354.274,158.65,360.986,158.65,360.986H341.937s-3.043-12.26-9.6-43.544c-4.973-23.719-8.051-41.944-8.469-53.543Z" transform="translate(117.237 194.997)" fill="rgba(0,0,0,0.2)"/>
        <path id="Path_155" data-name="Path 155" d="M340.643,241.979l-19.616,6.5L276.2,226.119s-44.465-55.386-44.97-56.151-20.068-7.408-20.068-7.408l-48.03,14.225a.214.214,0,0,0-.035.087c-2.591,5.513-8.5,19.668-14.155,33.371,5.878-1.443,23.789-3.634,31.58-4.191,10.538-.765,22.5-9.669,22.5-9.669s37.857,57.438,52.83,72.671c14.955,15.251,24.937,28.467,39.161,29.215,14.225.765,24.485-17.042,36.344-26.937l5.269-5.669c-.07-.5-.139-.991-.209-1.443-.556-3.234,1.356-11.912,4.243-22.259h0Z" transform="translate(110.061 120.11)" fill="rgba(0,0,0,0.2)"/>
        <path id="Path_156" data-name="Path 156" d="M241.78,287.631l6.469,15.512,16.1,20.328h0c-1.913-12.747-2.522-22.067-1.513-27.476,1.617-8.66,6.5-43.561,5.46-60.864l-.139-.835L255.066,208.23s-2.278,26.919-5.026,45.387c-1.948,13.129-8.26,34.014-8.26,34.014Z" transform="translate(178.667 153.858)" fill="rgba(0,0,0,0.2)"/>
        <path id="Path_157" data-name="Path 157" d="M289.589,270.686l-106.7-15.946c-3.965,6.73-9.721,15.477-16.816,25.441,9.7,1.426,50.273,7.477,81.349,12.886,35.562,6.191,50.03,10.921,60.951,8.138s8.973-8.33,11.929-12.121h0a173.928,173.928,0,0,1-1.948-18.433c-6.782.713-28.762,0-28.762,0Z" transform="translate(122.72 188.228)" fill="rgba(0,0,0,0.2)"/>
        <path id="Path_158" data-name="Path 158" d="M282.745,104.972c5.06,14.851,8.538,48.082,3.791,65.124-4.747,17.059-10.121,19.894-17.059,19.894s-30.971-4-30.971-4l-32.675-1.774s.748-7.512-4.939-11.616-29.075-31.927-13.268-67.646S242.609,66.4,260,79.67s22.763,25.285,22.763,25.285Z" transform="translate(134.659 53.466)" fill="#ffdbc2"/>
        <path id="Path_159" data-name="Path 159" d="M241.94,145.407a12.318,12.318,0,0,0,8.243-2.556c-5.321.33-12.051-1.669-21.181-10.121l-9.13,3.339-.383,6.7c7.617,1.165,18.19,2.643,22.433,2.643Z" transform="translate(162.195 98.066)" fill="#f2c5a7"/>
        <path id="Path_160" data-name="Path 160" d="M290.569,107.942c.035-7.408-17.042-26.015-17.042-26.015A55.22,55.22,0,0,0,237.9,68.363c-22.154-.33-41.179,11.042-47.856,38.918-6.608,27.6-9.669,26.1-14.625,36.24-4.573,9.373-10.573,36.64,19.529,53.873,32.223,18.45,63.42,11.06,71.019,7.895,7.582-3.148,9.425-8.4,4.208-16.833-4.26-6.869-5.773-15.772-6.034-20.9-.261-5.06.469-7.46-2.087-6.573-1.93.678-6.625.783-10.573-5.652-4.417-7.2-1.982-22.485,5.286-23.806s10.9,3.965,11.895,10.625-.991,9.217,2.643,9.877,6.939-1.982,12.225-9.877,7.6-22.85,7.043-34.205Z" transform="translate(126.835 50.496)" fill="#5d231b"/>
        <path id="Path_161" data-name="Path 161" d="M645.423,242.817c7.078,7.495,16.764,24.78,18.485,38.275s.365,25.841-2.417,38.379c-1.878,8.469-2.069,16.259,0,26.624,2.069,10.382,6.573,30.467,6.573,30.467H577.516L560.77,258.538,645.423,242.8Z" transform="translate(414.39 179.404)" fill="#844b38"/>
        <path id="Path_162" data-name="Path 162" d="M607.461,272.728c26.537-4.139,37.3-12.764,44.309-21.581a58.618,58.618,0,0,0-6.347-8.347L560.77,258.538l2.139,15.129a175.117,175.117,0,0,0,44.535-.939Z" transform="translate(414.389 179.404)" fill="rgba(0,0,0,0.2)"/>
        <path id="Path_163" data-name="Path 163" d="M637.924,170.826c2.4,16.085,1.565,56.69-6.921,73.7s-8.034,24.45-2.8,33.562c7.234,12.625,29.354,45.4,29.354,45.4s-7.3,11.964-30.241,18.468-61.733,4.469-61.733,4.469-16.294-38.622-14.59-84.688,24.12-120.163,24.12-120.163,26.884-14.207,42.274-4.626c15.407,9.582,20.537,33.892,20.537,33.892Z" transform="translate(407.072 98.732)" fill="#9a8a3f"/>
        <path id="Path_164" data-name="Path 164" d="M632.084,197.894l-5.373-9.147L583.254,150.09l-23.7,13.512c-.956,3.843,1.617,5.86.644,10.069,4.573,15.338,11.251,43.109,17.129,48.6,7.93,7.425,29.615,20.415,43.352,18.346,1.548-3.374,1.93-3.965,4.086-8.26,3.965-7.964,6.26-21.094,7.339-34.449Z" transform="translate(413.329 110.895)" fill="rgba(0,0,0,0.2)"/>
        <path id="Path_165" data-name="Path 165" d="M598,109.81s3.826,18.45,4.434,22.433,2.626,9.077,6.539,9.93c0,0-3.217,12.573-14.764,16.99-11.564,4.417-23.3,0-23.3,0s-2.521-8.33-5.078-12.92-9.286-7.13-9.286-7.13L598,109.81Z" transform="translate(411.264 81.129)" fill="#ffdbc2"/>
        <path id="Path_166" data-name="Path 166" d="M598.293,111.253c-.191-.9-.3-1.443-.3-1.443l-41.457,29.3s6.747,2.539,9.286,7.13c0,0,19.476-4.052,27.806-12.381,6.8-6.8,5.408-18.555,4.66-22.607Z" transform="translate(411.264 81.129)" fill="#edc1a4"/>
        <path id="Path_167" data-name="Path 167" d="M583.164,61.9s-19.563-9.964-35.423,2.5c-15.842,12.451-15.685,44.222-2.1,52.256,0,0,26.258-4.869,35.405-20.589s2.1-34.171,2.1-34.171Z" transform="translate(395.822 42.941)" fill="#5d231b"/>
        <path id="Path_168" data-name="Path 168" d="M559.5,70.945c-8.208,3.513-15.459,16.8-17.79,36.344-1.7,14.138,1.687,40.379,5.791,52.378s19.511,11.373,32.223,9.564c12.694-1.826,22.346-8.295,25.563-16.19a70.464,70.464,0,0,0,4-12.1s6.73,7.025,12.886,6.156c6.156-.887,18.45-13.6,17.859-27.876-.591-14.294-1.461-40.935-22.554-48.256-21.076-7.321-57.977,0-57.977,0Z" transform="translate(399.973 50.018)" fill="#ffdbc2"/>
        <path id="Path_169" data-name="Path 169" d="M575.034,140.5l10.486,4.643a40.471,40.471,0,0,0,7.738-3.008c-.035-.052-15.964-23.389-21.024-28.5-5.043-5.1-30.658-14.92-30.884-15.007.052,1.3.122,2.626.226,3.965l12.016,11.025,21.459,26.867Z" transform="translate(400.039 72.868)" fill="#edc1a4"/>
        <path id="Path_170" data-name="Path 170" d="M551.75,79.318s.261,10.538,15.511,21.337,21.894,14.955,23.3,17.3-1.722,11.321.383,13.894,7.443-.226,10.138-7.217c2.574-6.678,10.99-10.069,15.459-6.678,4.226,3.2,6.191,8.851,2.539,19.494-3.043,8.834-12.295,14.868-17.564,11.86,0,0-.261,14.694,4.434,22.433a87.844,87.844,0,0,1,12.9-13.216c8.677-7.425,18.068-16.346,20.885-41.2,2.817-24.867-16.19-50.2-26.032-56.064-9.86-5.86-31.667-7.825-42.465,1.948L551.75,79.335Z" transform="translate(407.724 41.646)" fill="#5d231b"/>
        <path id="Path_171" data-name="Path 171" d="M586.7,70.255s4.487-13.181,15.981-20.694,37.77-9.147,49.491,0a61.972,61.972,0,0,1,22.746,39.648c2.574,16.59,5.634,24.676,18.537,34.5s28.623,27.667,18.068,54.638-43.161,27.441-49.491,26.5-8.208-5.391-3.756-11.495,10.329-17.285,2.817-25.18-13.129-10.469-23.685-17.042-17.824-14.277-17.355-27.423c.47-13.164,4.452-29.493.47-37.979s-12.034-14.9-23.946-7.043c0,0-8.243-.887-9.86-8.434Z" transform="translate(433.551 31.98)" fill="#5d231b"/>
        <path id="Path_172" data-name="Path 172" d="M594.758,128.42c10.173,0,22.693,3.287,26.71,25.789s6.1,45.283,5.217,58.551a76.318,76.318,0,0,1-6.1,24.38l-41.109-24.085s-2.835-40.361-3.582-55.195,2.748-28.849,18.868-29.441Z" transform="translate(425.493 94.882)" fill="#9a8a3f"/>
        <path id="Path_173" data-name="Path 173" d="M631.86,273.424c3.426,8.66,9.269,31.093,9.251,51.317,0,13.86-1.669,48.865-1.669,48.865H483.752l-6.782-75.923s11.216-36.1,48.622-45.509c37.405-9.425,92.043-8.712,106.268,21.268Z" transform="translate(352.464 182.377)" fill="#ca715d"/>
        <path id="Path_174" data-name="Path 174" d="M631.86,273.431c-14.242-29.98-68.88-30.693-106.268-21.268-37.405,9.425-48.621,45.509-48.621,45.509l1.113,12.4c30.919,18.172,60.481,4.243,60.481,4.243l-1.252-32.258L552.98,312.68c50.969-.313,71.28-18.329,81.975-29.719a97.751,97.751,0,0,0-3.1-9.547Z" transform="translate(352.464 182.37)" fill="rgba(0,0,0,0.2)"/>
        <path id="Path_175" data-name="Path 175" d="M508.241,33.99c-6.678,3.634-16.468,4.9-23.128,4.034S474.9,32.008,470.7,35.868c-5.165,4.747-14.9,34.362,5.147,47.665,25.493,16.92,32.4-49.543,32.4-49.543Z" transform="translate(342.687 25.101)" fill="#5d231b"/>
        <path id="Path_176" data-name="Path 176" d="M473.185,66.118c-3.339,11.721-3.53,26.78,0,48.117s10.295,41.022,16.677,43.752c4.486,1.93,12.9,2.191,19.424,1.461,6.5-.73,8.625-1.322,9.912,9.477s42.535-1.513,47.961-9.825c0,0-5.06-19.529-3.617-25.319s8.678-14.1,10.851-31.84c2.174-17.72-.365-49.561-24.606-60.412s-52.917-1.7-64.029,6.5c-10.764,7.947-12.573,18.085-12.573,18.085Z" transform="translate(347.763 27.005)" fill="#f8c6a3"/>
        <path id="Path_177" data-name="Path 177" d="M517.3,132.457c-.365,2.835,3.861,9.912,6.086,14.659,2.226,4.765,7.025,9.46,12.416,9.773,5.391.3,20.189,0,26.589-6.347,3.547-3.182,3.547-9.53,8.608-20.937s8.886-31.284,6.347-46.882-3.6-31.771-18.607-31.458c0,0-4.226-17.129-20.4-20.294s-28.693,1.548-40.274,7.617c-11.738,6.139-24.693,15.39-24.885,27.11a13.158,13.158,0,0,0,9.338,8.086c5.391,1.182,2.991,4.573,3.269,8.156.47,6.208,1.409,10.156,6.017,13.581,4.33,3.217,6.26,3.547,6.26,10.608,0,9.53.313,11.738,3.165,12.364s6.034-1.9,9.512-11.095c3.5-9.2,10.156-10.225,15.546-4.33,5.391,5.912,3.826,22.415,0,26.9-4.66,5.443-8.434-1.652-8.973,2.469Z" transform="translate(349.664 22.121)" fill="#5d231b"/>
        <path id="Path_178" data-name="Path 178" d="M394.529,287.059c-2.608,11.529-6.312,59.194-6.8,70.759H569.156s-4.556-33.858-16.52-54.012c0,0-37.649-30.119-78.445-34.971s-79.662,18.207-79.662,18.207Z" transform="translate(286.519 198.148)" fill="#603645"/>
        <path id="Path_179" data-name="Path 179" d="M393.281,286.309c-1.2,5.286-2.626,18.19-3.861,31.719h0s6.26,1.826,14.346-5.773,8.121-11.477,10.034-10.382,5.026,9.877,16.207,21.233c8.521,8.643,44.935,28.4,84.566,20.763,28.954-5.565,39.6-19.876,43.231-27.2a87.767,87.767,0,0,0-6.417-13.616,201.119,201.119,0,0,0-29.841-18.868l-27.3,5.234L441.572,269.18A156.88,156.88,0,0,0,393.3,286.309Z" transform="translate(287.768 198.898)" fill="rgba(0,0,0,0.2)"/>
        <path id="Path_180" data-name="Path 180" d="M473.535,280.434s6.608,39.161,8.956,78.045H265.59s6.921-61.751,11.338-91.209Z" transform="translate(196.262 197.487)" fill="#ca715d"/>
        <path id="Path_181" data-name="Path 181" d="M270.11,292.771s18.746,51.6,103.573,47.978,98.756-45.665,98.756-45.665L470.2,280.424,273.588,267.26l-3.478,25.493Z" transform="translate(199.602 197.479)" fill="rgba(0,0,0,0.2)"/>
        <path id="Path_182" data-name="Path 182" d="M343.457,33.23c-15.025,0-43.039,8.66-43.039,50.256,0,0-3.182-5.5-7.217-3.182-4.052,2.313-2.591,15.6,0,23.389s8.295,9.443,11.755,9.147c0,0,4.156,12.555,7.617,18.05s12.068,13.877,12.068,13.877l-.261,23.337h52.847V141.828c0-8.66,12.555-28.589,12.555-28.589s5.721,2.191,9.651-5.043c4.487-8.243,6.521-24.676,2.4-27.876-6.486-5.043-8.99,5.773-8.99,5.773s-2.9-32.64-20.242-40.727S343.44,33.23,343.44,33.23Z" transform="translate(214.803 24.539)" fill="#f8c6a3"/>
        <path id="Path_183" data-name="Path 183" d="M297.571,97.691c-.922-8.382-4.365-24.954-2.8-40.327,1.565-15.355,8.069-26.554,12.747-27.6s4.939,3.913,10.156,4.939a14.258,14.258,0,0,1,2.348-12.242c4.434-6,8.086,1.322,16.659,5.721,10.434,5.356,15.216,2.835,22.8,7.512,8.938,5.53,9.182,12.051,9.182,12.051s4.939-2,11.112,1.513c7.756,4.417,13.807,19.6,11.3,47.648-2.226,24.919-8.364,44.865-16.555,54.5-8.208,9.634-40.344,8.9-52.586,2.939,0,0-10.243-3.026-17.546-25.945a160.224,160.224,0,0,1-6.8-30.762Z" transform="translate(217.528 14.908)" fill="#5d231b"/>
        <path id="Path_184" data-name="Path 184" d="M322.765,118.316c-5.669,3.13-17.285,8.886-31.11,11.06s-22,3.113-27.615,10.295c0,0,20.085,22.589,23.58,63.629,2.522,29.615-5.9,44.257-5.9,44.257s3.93,16.311,11.355,28.571c7.425,12.277-8.417,55.908-12.294,70.672-3.878,14.746-8.173,35.458-8.173,35.458,1.391,5.6,27.893,56.795,99.956,56.795S475.55,395.4,476.941,389.508s-7.3-39.614-12.573-67.559c-5.286-27.963-9.008-51.717-4.5-72.219S472.3,201.421,474.159,177.2s-2.643-46.743-6.052-49.543-7.773-2.33-20.033-4.817c-12.277-2.487-19.6-5.06-25.632-7.738,0,0-3.565-2.521-22.05-.643-18.485,1.861-32,6.678-48.465,2.8s-24.241-1.669-29.145,1.061Z" transform="translate(195.116 84.048)" fill="#f6e3d5"/>
        <path id="Path_185" data-name="Path 185" d="M383.276,125.047a31.733,31.733,0,0,0-1.9-3.287A8.589,8.589,0,0,1,383.276,125.047Z" transform="translate(281.826 89.96)" fill="#def1f8"/>
        <path id="Path_186" data-name="Path 186" d="M458.671,292.363c-.939-4.991-1.826-9.825-2.626-14.555h-145.2l-20.12-49.491c10.521-29.823,7.46-60.464,0-74.5L279,154.9a137.361,137.361,0,0,1,2.939,18.816c2.521,29.615-5.9,44.257-5.9,44.257s3.93,16.311,11.355,28.571c7.425,12.277-8.417,55.908-12.294,70.672-1.426,5.443-2.556,10.156-3.356,14.225,5.443,3.46,21.441-3.043,21.441-3.043s103.034,38,114.059,35.127c9.2-2.382,43.944-39.979,55.247-52.412-1.339-6.3-2.643-12.66-3.808-18.763Z" transform="translate(200.814 113.651)" fill="rgba(0,0,0,0.2)" opacity="0.37"/>
        <path id="Path_187" data-name="Path 187" d="M477.4,223.227,426.272,278.44s-12.034,13.494-16.033,16.659-4.869,7.165-25.806,1.722-108.581-35.457-108.581-35.457a16.711,16.711,0,0,1-1.843-16.868c4.3-9.356,9.825-10.486,9.825-10.486l101.173,22.363,7.738-8.695,84.67-24.467Z" transform="translate(201.355 164.928)" fill="#ffdbc2"/>
        <g id="Group_50" data-name="Group 50" transform="translate(432.811 331.604)">
          <path id="Path_188" data-name="Path 188" d="M292.921,190.7s20.224,43.126,22.972,48.135,3.13,5.408,12.921,4.626,122.232-10.19,122.232-10.19l2.869,28.276s-143.03,30.415-154.542,33.023c-7.791,1.774-11.425-.8-16.52-9.182s-33.962-65.837-33.962-65.837L292.9,190.7Z" transform="translate(-248.89 -190.7)" fill="#ffdbc2"/>
          <path id="Path_189" data-name="Path 189" d="M335.622,242.9h0c-3.356.278-5.721.47-6.817.556-9.79.783-10.19.4-12.92-4.626-2.748-5.008-22.972-48.135-22.972-48.135L248.9,219.549S277.767,277,282.862,285.387s8.73,10.938,16.52,9.182c3.234-.73,16.764-3.634,34.588-7.46,7.721-13.686,4.017-35.927,1.669-44.222Z" transform="translate(-248.883 -190.7)" fill="#f29d5c"/>
        </g>
        <g id="Group_51" data-name="Group 51" transform="translate(262.728 223.545)">
          <path id="Path_190" data-name="Path 190" d="M288.717,230.012s-59.56-53.612-69.7-65.316c-10.121-11.7-13.929-20.311-22.78-23.859-8.869-3.547-8.347-.765-13.929,0-5.565.765-9.112-.261-13.668,3.287s-7.1,3.043-10.382,5.826-7.843,11.268-7.095,14.746c.765,3.478,1.269,15.633,18.485,17.407s24.311,5.565,24.311,5.565l64.689,89.313L288.717,230Z" transform="translate(-151.083 -120.788)" fill="#f8c6a3"/>
          <path id="Path_191" data-name="Path 191" d="M180.475,144.98c1.913,3.113,3.861,7.147.939,10.451S168.842,169.1,168.842,169.1s-9.338,4.608-7.843-1.582,19.459-22.537,19.459-22.537Z" transform="translate(-143.876 -116.426)" fill="#f4e1d3"/>
          <path id="Path_192" data-name="Path 192" d="M197.815,155.07c2.713,9.7,2.852,22.85-.157,28.9s-11.2,12.242-11.2,12.242l-5.269-7.286,16.642-33.858Z" transform="translate(-128.835 -108.97)" fill="#f4e1d3"/>
          <path id="Path_193" data-name="Path 193" d="M302.684,128.716c-7.6,8.747-13.077,20.242-22.746,41.666s-36.049,67.385-36.049,67.385l-10.712-10.451s-21.946,25.076-21.424,54.847c0,0,18.016,22.728,24.815,28.206s13.842,6.278,23.772-3.13S320.352,236.6,320.352,236.6,334,228.62,337.133,200.4c3.13-28.206-14.068-74.706-34.466-71.7Z" transform="translate(-106.256 -128.56)" fill="#f4e1d3"/>
          <path id="Path_194" data-name="Path 194" d="M244.873,196c-4.539,4.052-23.7,31.458-19.094,59.681l2.191,2.574s-2.069,1.774-5.043-1.461c-2.991-3.234-13.442-14.19-15.181-17.424S207,221.7,214.215,204.536s16.138-25.424,20.363-22.015a72.761,72.761,0,0,1,8.99,8.33c2.191,2.313,4.434,4.8,3.843,7.634l-2.522-2.469Z" transform="translate(-109.76 -89.243)" fill="#f4e1d3"/>
        </g>
        <path id="Path_195" data-name="Path 195" d="M448.733,187.153c-9.6-5.165-26.206-7.6-38.779,1.565-1.565,1.148-3.669,2.835-6.8,7.425-16.172,23.719-61.525,81.61-61.525,81.61s2.452,20.624,33.545,30.762L426.3,253.3a302.454,302.454,0,0,1,6.191,34.953c1.739,16.781-8.382,87.261-8.382,87.261s7.686.1,14.677-8.277,8.017-13.286,9.947-13.286,3.982,12.99,22.92,26.624c15.042,10.834,57.838,25.528,84.7,17.007,30.78-9.755,30.867-24,32.623-30.641a141.427,141.427,0,0,0-14.242-19.981c-8.73-10.486-10.486-15.251-10.486-17.059s3.5-9.843,2.1-12.99-8.66-9.79-7.13-14.677S573,258.555,576.494,236.192s0-51.021,0-51.021L448.75,187.188Z" transform="translate(252.453 134.887)" fill="#f39e5d"/>
        <path id="Path_196" data-name="Path 196" d="M384.74,191.7c10.138-2.852,33.249,5.93,38.935,11.477s8.243,30.606,36.5,40.848,74.236,3.391,74.236,3.391l-25.146-60.2L422.858,174.38Z" transform="translate(284.309 128.844)" fill="rgba(0,0,0,0.2)"/>
        <path id="Path_197" data-name="Path 197" d="M565.213,253.247c2.556-9.773,4.887-19.737,6.121-27.632a157.442,157.442,0,0,0,1.548-24.259c-11.721,2.33-115.276,22.885-116.006,22.172-.765-.765-40.24-22.763-40.24-22.763L390.064,196.8c-12.155,16.746-29.788,39.735-41.474,54.83a150.2,150.2,0,0,0,20.242,9.982c10.451,4.3,21.667,4.869,31.023,4.139l21.3-23.007s2.035,8.295,3.878,18.85c10.625-.07,41.579-.435,73.7-2.348,34.118-2.035,59.907-5.165,66.463-6Z" transform="translate(257.596 145.412)" fill="rgba(0,0,0,0.2)"/>
        <path id="Path_198" data-name="Path 198" d="M516.84,117.324c10.382-3.808,41.683-12.625,58.2-10.642s39.457,10.573,48.708,20.5c9.251,9.912,8.59,43.422,8.59,54.882s-5.269,37.6-9.356,49.439-5.2,38.292-4.521,59.89c.661,21.6,14.1,73.836,16.746,80.01s-9.964,16.068-29.18,23.615C582.156,404.375,545.5,406.9,545.5,406.9l-12.121-33.718-2.417,34.831a89.372,89.372,0,0,1-30.189.887c-16.085-2.417-22.259-7.495-23.58-9.477s-5.565-58.412-2-89.818c0,0,26.919-17.529,31.093-38.675,4.191-21.163,10.556-153.551,10.556-153.551Z" transform="translate(350.121 78.606)" fill="#c9705c"/>
        <path id="Path_199" data-name="Path 199" d="M518.024,119.027c7.339,6.156,18.242,15.233,18.224,35.3,0,15.825-8.295,47.891-8.295,47.891L512.39,197.8l5.634-78.793Z" transform="translate(378.638 87.928)" fill="rgba(0,0,0,0.2)"/>
        <path id="Path_200" data-name="Path 200" d="M608.386,231.486c4.087-11.842,9.356-37.962,9.356-49.439,0-9.895.487-36.24-5.339-49.63L605,123.462c-10.834-8.295-30.119-15.059-44.552-16.781-5.13-.609-11.668-.191-18.555.8,2.817,1.009,10.608,7.408,12.886,12.225,2.3,4.817,9.617,8.695,18.781,6.643,9.164-2.069,8.243,1.1,13.286,15.32s11.912,38.049,11.912,38.049l-23.58,9.147s-52.308,26.589-79.4,40.222c-.73,10.19-1.478,19.424-2.191,26.832,17.546-4,42.1-9.39,49.074-9.808,11.216-.7,30,1.826,39.388,3.443,5.3.9,15.842-3.652,24.015-7.808a62.9,62.9,0,0,1,2.348-10.225Z" transform="translate(364.738 78.607)" fill="rgba(0,0,0,0.2)"/>
        <path id="Path_201" data-name="Path 201" d="M548.381,201.052V169.02l-37.631,4.939c-1.6,23.354-3.269,43.439-4.7,50.639-4.191,21.163-31.093,38.675-31.093,38.675-.365,3.2-.643,6.66-.852,10.295,8.4.052,23.389-.035,31.128-1.165,11.129-1.635,17.633-4.886,24.154-24.9,6.5-20.015,13.216-45.37,18.99-46.465Z" transform="translate(350.351 124.884)" fill="rgba(0,0,0,0.2)"/>
        <path id="Path_202" data-name="Path 202" d="M559.412,192.9,447.005,209.994c-7.112.991-18.555-3.565-27.563-7.877-9.008-4.3-10.329-5.721-21.372-5.808-11.042-.07-21.3-4.539-23.406-1.13s3.6,10.26,11.3,12.1,12.625,2.835,12.625,2.835H381.5c-8.26,0-12.173,1.2-14.642,3.913-2.487,2.713-2,7.791-4.26,9.217-2.243,1.426-5.2,3.9-5.2,7.565s-6.017,6.382-6.138,9.686-1.13,4.156.974,7.095,18.4,11.216,32.345,12.155c13.929.939,26.71-2.209,34.866-4.278,6.173-1.565,9.547-2.8,23.354-3.374,10.538-.452,68.672-3.182,68.672-3.182L559.412,192.9Z" transform="translate(259.31 142.53)" fill="#f8c6a3"/>
        <path id="Path_203" data-name="Path 203" d="M556.534,114.859c-11.721-6.017-33.423-2.748-40.414,23.98s-24.937,113.641-24.937,113.641l-47.943,7.286s6.678,28.676,0,48.726c0,0,57.542-3.061,68.707-3.287s24.537-1.826,32.171-21.563,29.98-97.7,33.771-109.8c3.791-12.086,9.2-43.283-21.354-58.986Z" transform="translate(327.539 82.966)" fill="#f6e3d5"/>
        <path id="Path_204" data-name="Path 204" d="M443.1,88.116C424.807,92.9,407.956,107.888,403.47,131.9s-2.765,34.727,5.878,55.125,18.59,33.892,14.868,55.334,3.182,33.579,18.885,48.813c22.38,21.72,78.5,27.006,106.564,0,26.154-25.163,4.869-61.194,4.869-61.194s19.442-17.72,14.938-37.092-11.755-23.876-28.362-32.693-25.65-27.963-30.5-40.066c-4.834-12.1-25.128-43.109-67.524-32.032Z" transform="translate(296.377 63.349)" fill="#5d231b"/>
        <path id="Path_205" data-name="Path 205" d="M414.81,176.881c-2.5,14.381-.191,24.589,6.33,34.345,12,4.956,35.562,13.477,41,14.486,5.443.991,40.274-7.495,43.735-7.252,3.46.261,7.651,2,16.99.035s12.764-7.286,12.764-7.286l16.12-4.643c3.287-12.086.643-24.119-2.226-32.206H415.157c-.1.835-.191,1.652-.348,2.5Z" transform="translate(305.8 128.83)" fill="rgba(0,0,0,0.2)"/>
        <g id="Group_52" data-name="Group 52" transform="translate(653.667 211.474)">
          <path id="Path_206" data-name="Path 206" d="M474.465,176.37s80.984-10.034,88.548-11.442c7.564-1.426,12.521-7.095,21.024-12.521s15.825-7.791,21.737-6.852,15.112,1.426,17.946,1.652c2.834.243,1.426,5.669-3.3,7.095s-13.929,2.835-13.233,3.774c.713.939,16.537.939,19.129-.713s4.017-2.365,5.426-5.426,4.956-2.365,6.851.243c1.9,2.591,3.773,7.321,1.183,11.808s-5.2,6.678-5.426,8.764c-.243,2.087.713,7.53.939,10.834.244,3.3-4.487,7.564-5.425,9.929s-1.183,6.139-6.852,10.156-15.251,7.408-20.45,7.878-26.172-2.661-35.371-2.887c-9.216-.243-22.676,3.078-45.457,7.391-17.685,3.339-49.63,11.616-49.63,11.616l2.365-51.282Z" transform="translate(-304.801 -104.079)" fill="#f8c6a3"/>
          <path id="Path_207" data-name="Path 207" d="M385.434,121.847s6.243-1.6,14.4,3.669,104.947,68.654,106.79,69.7c1.843,1.061,38.935-1.322,38.935-1.322s5.791,29.719-2.365,51.282c0,0-39.979,6.834-46.03,8.677s-10.26,1.061-22.1-3.426c-11.842-4.469-49.978-18.937-61.542-20.781-11.581-1.843-27.267-2.052-35.857,12.26,0,0-4.434-18.989.748-49.126,5.5-31.927,7.043-70.967,7.043-70.967Z" transform="translate(-375.894 -121.619)" fill="#f4e1d3"/>
          <path id="Path_208" data-name="Path 208" d="M544.651,236.248a58.665,58.665,0,0,1-2.226,7.46s-39.979,6.834-46.03,8.677-10.26,1.043-22.085-3.426c-11.842-4.469-49.978-18.937-61.559-20.781-11.547-1.843-27.232-2.052-35.84,12.225,4.556-20.276,12.034-47.056,13.842-70.5,1.53-19.911-1.235-38.657-4.174-46.256,2.643,5.043,7.373,15.842,9.756,32.206,3.391,23.476,2.643,32.936,2.261,40.883s9.477,15.807,33.319,24.606c23.841,8.817,54.812,20.868,60.342,22.363C497.368,245.082,538.651,237.378,544.651,236.248Z" transform="translate(-375.143 -120.118)" fill="#f4e1d3" opacity="0.37"/>
          <path id="Path_209" data-name="Path 209" d="M466.767,165.409c-.018-3.113,4.139-3.513,10.677-3.9,6.539-.4,9.7-1.252,12.068,1.948,2.382,3.2,5.165,16.259,5.06,29.336-.07,9.738-2.3,22.172-5.86,23.754s-6.921,1.982-11.077,2.574-10.051,1.774-10.868-1.5l2.748-.487a80.7,80.7,0,0,0,4.347-24.363c0-17.129-3.165-27.6-3.165-27.6l-3.947.226Z" transform="translate(-308.755 -92.44)" fill="#f4e1d3"/>
        </g>
        <path id="Path_210" data-name="Path 210" d="M568.363,125.21c-2.261.226-10.1,3.547-17.251,1.356s-15.146-14.068-21.2-13.077l-20.155,4.069a32.247,32.247,0,0,1,8.538-7.843c5.06-3.008,20.276-7.391,25.737-8.869,7.165-1.93,16.12-3.669,21.3-1.669,11.738,4.539,27.145,13.7,29.615,16.729,2.469,3.008,55.108,77.593,63.055,88.287s16.451,24.4,13.981,43.039-8.225,23.389-14.259,24.85-27.424-10.868-34.275-20.468-45.509-110.772-47.7-115.972c-2.191-5.217-4.869-10.66-7.408-10.4Z" transform="translate(376.695 72.616)" fill="#ffdbc2"/>
        <path id="Path_211" data-name="Path 211" d="M329.023,279.278l-1.148,7.669s-6.7,1.809-10.468,1.356c-3.791-.452-5.356-1.582-4.4-2.782s7.025-4.313,10.069-6.9c6.643-5.686,6.608-13.912,2.069-12.19-2.626.991-4.834,2.835-8.208,3.461-3.721.7-7.06,1.722-13.164,2.9a31.616,31.616,0,0,0-13.2,6c-2.33,1.791-4.417,3.061-7.669,2.678-8.434-2.887-26.119-8.921-42.779-14.59h0c-17.72-6.034-34.258-11.668-37.249-12.712-6.66-2.313-8.33-4.469-9.286-9.13-1.948-9.39-7.478-28.658-7.478-28.658L154.5,263.645a107.511,107.511,0,0,0,4.347,16.329c3.478,10.434,8.121,14.486,16.225,15.355,4.3.452,29.719,5.234,54.238,10.121h0s43.231,9.286,54.238,12.121,21.6,4.626,28.276,3.478,10.729-6.069,12.294-8.347,3.1-2.052,7.06-4.765,1.669-8.869,3.235-11.46c1.826-3.026,3.617-4.33,3.391-9.286s-8.782-7.93-8.782-7.93Z" transform="translate(114.17 159.881)" fill="#ffdbc2"/>
        <path id="Path_212" data-name="Path 212" d="M83.749,136.317s20.189,48.674,21.928,52.482,5.443,3.391,29.389,2.539,74.689-2.956,81.453-5.078,8.886-6.347,12.26-12.26,6.347-10.573,20.728-15.216,22.607-10.156,24.1-7.373c.817,1.513,2.139,5.721-3.565,10.19-5.7,4.487-13.825,10.364-12.694,11.755,1.113,1.409,33.232-5.443,37.788-9.234,4.573-3.791,2.835-6.052,2.835-6.052a5.778,5.778,0,0,1,6.121,2.678c2.243,3.634,2.626,16.085,1.739,21.754s-2.017,13.512-9.008,19.946S278.044,214.9,267.28,217.666c-8.66,2.226-20.868.956-36.553,4.591s-71.784,16.642-101.99,23.459c-27.25,6.156-56.586,12.816-64.846,10.016s-17.355-20.537-29.11-53.56L83.749,136.3Z" transform="translate(25.701 100.705)" fill="#ffdbc2"/>
        <path id="Path_213" data-name="Path 213" d="M37.627,99.574c-10.764,4.643-26.224,19.876-14.8,66.6S43.123,233.63,43.123,233.63s43.978,7.617,68.933-32.136c-.417-2.539-13.112-38.049-24.519-64.69C76.111,110.164,62.164,89.018,37.645,99.591Z" transform="translate(13.898 71.524)" fill="#c9705c"/>
        <path id="Path_214" data-name="Path 214" d="M297.81,119.92s14.416,2.261,22.137,6.7c7.7,4.434,16.172,6.312,29.128,5.93,12.973-.383,21.424-3.947,29.319-7.895s13.512-8.347,19.076-7.93c0,0-2.9-5.13-48.569-5.13s-51.073,8.33-51.073,8.33Z" transform="translate(220.071 82.445)" fill="rgba(0,0,0,0.2)" opacity="0.37"/>
        <path id="Path_215" data-name="Path 215" d="M345.91,110.046c-11.79.556-20.694-3.13-26.8-4.121-6.1-.974-12.973,2.452-21.3,20.363a57.717,57.717,0,0,1,17.668,1.722c9.321,2.452,18.676,5.582,32.153,4.869,16.451-.869,26.015-5.46,33.579-7.338a82.834,82.834,0,0,1,16.242-2.452S384.1,99.143,371.959,103.473c-8.938,3.182-15.755,6.069-26.067,6.573Z" transform="translate(220.071 76.059)" fill="#f4e1d3"/>
        <path id="Path_216" data-name="Path 216" d="M311.345,264.147l56.029-21.98L357.6,240.01h-.469L285.26,255.382c7.478,2.521,16.555,5.582,26.1,8.782Z" transform="translate(210.797 177.343)" fill="#edc1a4"/>
        <path id="Path_217" data-name="Path 217" d="M49.228,85.7s8.59,14.746,21.441,21.65c14.607,7.825,27.615,6.33,27.615,6.33l5.46,7.008s-16.259,3.93-35.127-5.9c-17.72-9.234-24-23.093-24-23.093l4.591-5.982Z" transform="translate(32.973 63.313)" fill="#c9705c"/>
        <g id="Group_53" data-name="Group 53" transform="translate(213.249 328.926)">
          <path id="Path_218" data-name="Path 218" d="M167.11,272.809l7.878-1.426v-10.1c-2.365,3.582-4.991,7.443-7.878,11.547Z" transform="translate(-89.761 -135.866)" fill="rgba(0,0,0,0.2)"/>
          <path id="Path_219" data-name="Path 219" d="M167.634,299.063c4.469-6.26,42.013-62.568,42.013-62.568S202,214.462,203.892,189.16a124.063,124.063,0,0,0-5.721,47.908s-29.7,48.656-37.509,54.656-38.031,2.3-38.031,2.3,14.294,4.765,26.224,7.756,14.294,3.582,18.781-2.678Z" transform="translate(-122.63 -189.16)" fill="rgba(0,0,0,0.2)"/>
        </g>
        <path id="Path_220" data-name="Path 220" d="M189.843,229.892l-32.014,46.239-3.339-12.486L186.1,216.38Z" transform="translate(114.163 159.881)" fill="#f2c5a7"/>
        <path id="Path_221" data-name="Path 221" d="M90.116,107.423s23.2.07,38.344-24.693c0,0-7.025,31.336-39.3,29.3.278-1.652.609-3.2.956-4.626Z" transform="translate(65.886 61.118)" fill="rgba(0,0,0,0.2)"/>
        <path id="Path_222" data-name="Path 222" d="M593.677,262.7c2.643,12.138,6.591,30,8.973,32.293s35.231,6.486,35.231,6.486l.574-3.008s-28.745-4-32.484-5.46c-2.5-.991-9.408-20.8-12.312-30.31Z" transform="translate(438.694 194.11)" fill="rgba(0,0,0,0.2)"/>
        <path id="Path_223" data-name="Path 223" d="M505.211,350.077s-5.252-35.336-4.852-71.437h-3.982s-3.6,23.633,3.9,71.437h4.939Z" transform="translate(366.167 205.889)" fill="rgba(0,0,0,0.2)"/>
        <path id="Path_224" data-name="Path 224" d="M91.162,296.984s-5.582,20.555-5.582,27.093,14.5,15.842,17.859,15.477,28.641-5.582,32-9.3,7.06-40.17,7.06-40.17-6.9,35.3-9.217,37.527-25.006,8.816-29.128,8.434c-4.1-.365-15.216-9.338-15.216-12.364s2.226-26.71,2.226-26.71Z" transform="translate(63.241 214.343)" fill="rgba(0,0,0,0.2)"/>
        <path id="Path_225" data-name="Path 225" d="M81.623,287.74C76.11,300,71.415,316.537,69.572,319.2S47.8,323.389,47.8,323.389l.887-3.843s12.8-1.165,16.033-1.774,4.052-3.356,5.878-7.7c1.843-4.347,11.025-22.311,11.025-22.311Z" transform="translate(35.323 212.613)" fill="rgba(0,0,0,0.2)"/>
        <path id="Path_226" data-name="Path 226" d="M15.33,355.493,37.241,271.31h3.252L19.521,355.493Z" transform="translate(11.328 200.472)" fill="rgba(0,0,0,0.2)"/>
        <path id="Path_227" data-name="Path 227" d="M26.576,295.262c15.146,2,36.362-.852,44.1-25.7l.452,5.408s-2.835,13.547-14.677,19.563a44.957,44.957,0,0,1-30.971,3.5l1.113-2.765Z" transform="translate(18.829 199.179)" fill="rgba(0,0,0,0.2)"/>
        <path id="Path_228" data-name="Path 228" d="M510.3,290.783c1.913,15.268,4.017,31.423,7.895,34.779s31.423,5.147,35.145,3.808,14.486-12.486,14.712-16.555S563.2,275.55,563.2,275.55s1.165,32.866.852,36.205-8.782,13.147-12.816,13.807-26.467.783-29.6-2.852c-3.148-3.652-11.338-31.927-11.338-31.927Z" transform="translate(377.094 203.605)" fill="rgba(0,0,0,0.2)"/>
        <path id="Path_229" data-name="Path 229" d="M586.835,257.15s6.869,26.832,11.2,51.213c4.33,24.363,6.452,57.612,6.452,57.612h-4.243a429.5,429.5,0,0,0-6-57.612c-5.3-29.319-11.3-51.213-11.3-51.213h3.878Z" transform="translate(430.772 190.009)" fill="rgba(0,0,0,0.2)"/>
        <path id="Path_230" data-name="Path 230" d="M551.289,276.315c3.6,21.3,6.017,39.179,2.939,55.056s-3.948,20.989-3.948,20.989h2.678s3.026-16.085,4.574-24.206c1.53-8.121,1.1-21.32-3.617-52.6l-2.626.765Z" transform="translate(406.638 203.605)" fill="rgba(0,0,0,0.2)"/>
        <path id="Path_231" data-name="Path 231" d="M561.407,271.44c2.017,13.407,3.791,28.832,5.356,32.414s12,6.73,12,6.73l-.052,2.887s-11.495-2.3-14.851-7.738-2.452-34.275-2.452-34.275Z" transform="translate(414.778 200.568)" fill="rgba(0,0,0,0.2)"/>
      </g>
    </g>
  </g>
</svg>
