<svg xmlns="http://www.w3.org/2000/svg" width="99.949" height="57.4" viewBox="0 0 99.949 57.4">
  <g id="logo" transform="translate(0 0.1)">
    <path id="Path_88" data-name="Path 88" d="M41.9,40.5c-.5.1-.9.2-1.4.3A3.926,3.926,0,0,0,41.9,40.5Z" fill="#404041"/>
    <path id="Path_89" data-name="Path 89" d="M46.9,38.2Z" fill="#404041"/>
    <path id="Path_90" data-name="Path 90" d="M46.9,38.2Z" fill="#f5881f"/>
    <path id="Path_91" data-name="Path 91" d="M46.9,38.3a15.185,15.185,0,0,1-5,2.3A16.358,16.358,0,0,0,46.9,38.3Z" fill="#f5881f"/>
    <path id="Path_92" data-name="Path 92" d="M39.4,41c.4,0,.7-.1,1.1-.1a3.75,3.75,0,0,0-1.1.1Z" fill="#f5881f"/>
    <g id="Group_24" data-name="Group 24">
      <g id="Group_22" data-name="Group 22">
        <path id="Path_93" data-name="Path 93" d="M18.3,52.5V50.4h5.4v5a5.567,5.567,0,0,1-2.3,1.3,8.025,8.025,0,0,1-3,.6,7.416,7.416,0,0,1-3.4-.8,4.909,4.909,0,0,1-2.2-2.3,7.245,7.245,0,0,1-.7-3.3,8.174,8.174,0,0,1,.8-3.5,4.89,4.89,0,0,1,2.4-2.3,6.679,6.679,0,0,1,3-.6,5.7,5.7,0,0,1,3.6,1,4.249,4.249,0,0,1,1.7,2.7l-2.5.5a2.434,2.434,0,0,0-1-1.4,2.73,2.73,0,0,0-1.8-.5,3.253,3.253,0,0,0-2.6,1,4.6,4.6,0,0,0-1,3.1,4.5,4.5,0,0,0,1,3.3,3.467,3.467,0,0,0,2.6,1.1,4.529,4.529,0,0,0,1.6-.3,6.376,6.376,0,0,0,1.4-.8V52.6h-3v-.1Z" fill="#404041"/>
        <path id="Path_94" data-name="Path 94" d="M30.9,57V44.6h5.3a10.194,10.194,0,0,1,2.9.3,2.365,2.365,0,0,1,1.4,1.2,4.228,4.228,0,0,1,.5,2,3.566,3.566,0,0,1-.8,2.3,3.657,3.657,0,0,1-2.5,1.1,7.338,7.338,0,0,1,1.3,1,15.772,15.772,0,0,1,1.4,2L42,57H39l-1.8-2.7a10.421,10.421,0,0,0-1.3-1.8,1.374,1.374,0,0,0-.8-.5,4.512,4.512,0,0,0-1.3-.1h-.5V57Zm2.5-7.1h1.9a9.211,9.211,0,0,0,2.3-.2,1.794,1.794,0,0,0,.7-.5,1.4,1.4,0,0,0,.3-.9,1.493,1.493,0,0,0-.3-1,1.346,1.346,0,0,0-.9-.5H33.6v3.1h-.2Z" fill="#404041"/>
        <path id="Path_95" data-name="Path 95" d="M47.7,50.9a7.616,7.616,0,0,1,.6-3.2A6.57,6.57,0,0,1,49.5,46a4.188,4.188,0,0,1,1.6-1.1,7.635,7.635,0,0,1,2.7-.5,6.033,6.033,0,0,1,4.4,1.7,6.389,6.389,0,0,1,1.6,4.7,6.389,6.389,0,0,1-1.6,4.7,5.873,5.873,0,0,1-4.4,1.7,6.033,6.033,0,0,1-4.4-1.7A6.19,6.19,0,0,1,47.7,50.9Zm2.6-.1a4.4,4.4,0,0,0,1,3.2,3.25,3.25,0,0,0,2.5,1.1A3.408,3.408,0,0,0,56.3,54a4.887,4.887,0,0,0,1-3.2,4.885,4.885,0,0,0-.9-3.2,3.391,3.391,0,0,0-5,0A4.035,4.035,0,0,0,50.3,50.8Z" fill="#404041"/>
        <path id="Path_96" data-name="Path 96" d="M66.5,44.6H69v6.7a9.854,9.854,0,0,0,.1,2.1,1.991,1.991,0,0,0,.8,1.2,2.86,2.86,0,0,0,1.7.5,2.537,2.537,0,0,0,1.6-.4,1.64,1.64,0,0,0,.7-1.1,10.983,10.983,0,0,0,.1-2.1V44.6h2.5v6.5a22.133,22.133,0,0,1-.2,3.2,3.465,3.465,0,0,1-.8,1.6,3.956,3.956,0,0,1-1.5,1,5.464,5.464,0,0,1-2.4.4,6.384,6.384,0,0,1-2.7-.4,4.177,4.177,0,0,1-1.5-1.1,2.666,2.666,0,0,1-.7-1.4,13.771,13.771,0,0,1-.2-3.2Z" fill="#404041"/>
        <path id="Path_97" data-name="Path 97" d="M83.9,57V44.6h4a17.048,17.048,0,0,1,3,.2A4.047,4.047,0,0,1,93,50.3a3.179,3.179,0,0,1-1.1,1.2,3.79,3.79,0,0,1-1.3.6,16.119,16.119,0,0,1-2.6.2H86.4V57Zm2.5-10.3v3.5h1.4a7.475,7.475,0,0,0,2-.2,1.555,1.555,0,0,0,.8-.6,1.689,1.689,0,0,0,.3-1,1.366,1.366,0,0,0-.4-1.1,2.075,2.075,0,0,0-1-.6,7.67,7.67,0,0,0-1.8-.1H86.4Z" fill="#404041"/>
      </g>
      <g id="Group_23" data-name="Group 23">
        <path id="Path_98" data-name="Path 98" d="M38.1,10.7a14.722,14.722,0,0,0-11,4.9c-3.5,3.9-3.6,7.5-3.7,10.1,0,.4-.1.7-.1,1.1h0a8.385,8.385,0,0,1-16.7-1A8.343,8.343,0,0,1,20,19.1l3.2-5.9a14.7,14.7,0,0,0-8.4-2.5C6.3,10.7,0,18,0,25.9A15,15,0,0,0,15,41a15.213,15.213,0,0,0,11.7-5.7,16.078,16.078,0,0,0,3-8.4c.1-.7.2-1.3.3-1.9a9.209,9.209,0,0,1,2-4.6,8.562,8.562,0,0,1,6.1-3,8.007,8.007,0,0,1,6.6,3L48,14.3A14.953,14.953,0,0,0,38.1,10.7Z" fill="#f5881f"/>
        <path id="Path_99" data-name="Path 99" d="M84.9,17.5a8.24,8.24,0,0,0-7.6,5.1H92.6A8.276,8.276,0,0,0,84.9,17.5Z" fill="none"/>
        <path id="Path_100" data-name="Path 100" d="M84.9,17.5a8.24,8.24,0,0,0-7.6,5.1H92.6A8.276,8.276,0,0,0,84.9,17.5Z" fill="none"/>
        <path id="Path_101" data-name="Path 101" d="M53.2,25.2a13,13,0,0,0-3.5-8.6,14.786,14.786,0,0,0-3.1,9.2,7.9,7.9,0,0,1-4.7,7.6,8.6,8.6,0,0,1-3.4.8,8.156,8.156,0,0,1-6.4-3s-3,5.5-3.3,6.1a15.475,15.475,0,0,0,9.8,3.6h1c.4,0,.7-.1,1.1-.1.5-.1,1-.2,1.4-.3a13.4,13.4,0,0,0,5-2.3h0a16.319,16.319,0,0,0,2-1.7,9.958,9.958,0,0,0,1-1.1A15.241,15.241,0,0,0,53.2,25.2Z" fill="#f5881f"/>
        <path id="Path_102" data-name="Path 102" d="M97.3,17.1a15.032,15.032,0,0,0-12.6-6.4A14.95,14.95,0,0,0,70.1,25.9,7.824,7.824,0,0,1,68,31.3a7.937,7.937,0,0,1-6.1,2.9c-3,0-8.4-1.4-8.4-8.4a8.361,8.361,0,0,1,8.3-8.4,8.492,8.492,0,0,1,6.3,3s2.5-4.6,3.1-5.7.5-1.2.5-3.2V-.1L64.9,0V11a15.227,15.227,0,0,0-12.7,3.1,27.153,27.153,0,0,0-2.4,2.4,13.478,13.478,0,0,1,3.5,8.6A14.038,14.038,0,0,1,50,35.2h0a14.918,14.918,0,0,0,23.3,0l.6.6c0,.1.1.1.1.2l.4.4.2.2.6.6h0A12.591,12.591,0,0,0,78,39.1h0c.1.1.3.1.4.2a14.705,14.705,0,0,0,6.3,1.4,14.084,14.084,0,0,0,2-.1h.2c.2,0,.3-.1.5-.1h.2A14.919,14.919,0,0,0,97.3,34h0a17.377,17.377,0,0,0,1-1.9H90a8.628,8.628,0,0,1-6.6,1.7,8.281,8.281,0,0,1-5.2-3.1,8.636,8.636,0,0,1-1-1.6H99.4A14.1,14.1,0,0,0,97.3,17.1Zm-20,5.5a8.349,8.349,0,0,1,7.6-5.1,8.5,8.5,0,0,1,7.7,5.1Z" fill="#404041"/>
      </g>
    </g>
  </g>
</svg>
