<svg xmlns="http://www.w3.org/2000/svg" width="476.005" height="273.366" viewBox="0 0 476.005 273.366">
  <g id="logo" transform="translate(0 0.1)" opacity="0.1">
    <path id="Path_14" data-name="Path 14" d="M47.167,40.5c-2.381.476-4.286.952-6.667,1.429A18.7,18.7,0,0,0,47.167,40.5Z" transform="translate(152.38 152.757)" fill="#fff"/>
    <path id="Path_15" data-name="Path 15" d="M46.9,38.2Z" transform="translate(176.46 144.103)" fill="#fff"/>
    <path id="Path_16" data-name="Path 16" d="M46.9,38.2Z" transform="translate(176.46 144.103)" fill="#fff"/>
    <path id="Path_17" data-name="Path 17" d="M65.712,38.3c-7.144,5.239-15.24,8.572-23.812,10.954A77.9,77.9,0,0,0,65.712,38.3Z" transform="translate(157.648 144.479)" fill="#fff"/>
    <path id="Path_18" data-name="Path 18" d="M39.4,41.376c1.9,0,3.334-.476,5.239-.476a17.857,17.857,0,0,0-5.239.476Z" transform="translate(148.242 154.262)" fill="#fff"/>
    <g id="Group_5" data-name="Group 5" transform="translate(0 -0.1)">
      <g id="Group_3" data-name="Group 3" transform="translate(57.626 211.93)">
        <path id="Path_19" data-name="Path 19" d="M41.627,82.6v-10H67.345V96.411A26.514,26.514,0,0,1,56.391,102.6,38.219,38.219,0,0,1,42.1,105.46a35.317,35.317,0,0,1-16.192-3.81A23.379,23.379,0,0,1,15.434,90.7,34.506,34.506,0,0,1,12.1,74.98a38.928,38.928,0,0,1,3.81-16.669A23.286,23.286,0,0,1,27.34,47.357Q33.055,44.5,41.627,44.5c7.144,0,12.859,1.429,17.145,4.762,4.286,2.857,6.667,7.144,8.1,12.859L54.962,64.5c-.952-2.857-2.381-5.239-4.762-6.667-2.381-1.9-5.239-2.381-8.572-2.381-5.239,0-9.525,1.429-12.382,4.762s-4.762,8.1-4.762,14.764c0,7.144,1.429,12.382,4.762,15.716a16.51,16.51,0,0,0,12.382,5.239,21.569,21.569,0,0,0,7.62-1.429,30.364,30.364,0,0,0,6.667-3.81v-7.62H41.627V82.6Z" transform="translate(-12.1 -44.024)" fill="#fff"/>
        <path id="Path_20" data-name="Path 20" d="M30.9,103.655V44.6H56.141c6.191,0,10.954.476,13.811,1.429a11.262,11.262,0,0,1,6.667,5.715A20.135,20.135,0,0,1,79,61.269a16.981,16.981,0,0,1-3.81,10.954c-2.381,2.857-6.667,4.762-11.906,5.239a34.946,34.946,0,0,1,6.191,4.762c1.9,1.9,3.81,5.239,6.667,9.525l7.62,11.906H69.476L60.9,90.8a49.629,49.629,0,0,0-6.191-8.572,6.544,6.544,0,0,0-3.81-2.381c-1.429-.476-3.334-.476-6.191-.476H42.33v24.289ZM42.806,69.841h9.049c5.715,0,9.525-.476,10.954-.953a8.542,8.542,0,0,0,3.334-2.381,6.648,6.648,0,0,0,1.429-4.286c0-1.9-.476-3.81-1.429-4.762-.952-1.429-2.381-1.905-4.286-2.381h-18.1V69.841h-.952Z" transform="translate(58.635 -43.648)" fill="#fff"/>
        <path id="Path_21" data-name="Path 21" d="M47.7,75.356a36.27,36.27,0,0,1,2.857-15.24,31.287,31.287,0,0,1,5.715-8.1,19.945,19.945,0,0,1,7.62-5.239A36.36,36.36,0,0,1,76.751,44.4c8.572,0,15.716,2.857,20.955,8.1s7.62,12.859,7.62,22.384-2.381,17.145-7.62,22.384-11.906,8.1-20.955,8.1c-8.572,0-15.716-2.857-20.955-8.1S47.7,84.881,47.7,75.356Zm12.382-.476c0,6.667,1.429,11.906,4.762,15.24a15.478,15.478,0,0,0,11.906,5.239A16.231,16.231,0,0,0,88.657,90.12c2.857-3.334,4.762-8.572,4.762-15.24s-1.429-11.906-4.286-15.24a16.149,16.149,0,0,0-23.812,0C61.511,62.974,60.082,68.212,60.082,74.88Z" transform="translate(121.844 -44.4)" fill="#fff"/>
        <path id="Path_22" data-name="Path 22" d="M66.5,44.6H78.406V76.509c0,5.239,0,8.572.476,10a9.48,9.48,0,0,0,3.81,5.715,13.622,13.622,0,0,0,8.1,2.381c3.334,0,5.715-.476,7.62-1.905a7.808,7.808,0,0,0,3.334-5.239c.476-1.905.476-5.239.476-10V44.6h11.906V75.556a105.406,105.406,0,0,1-.953,15.24,16.5,16.5,0,0,1-3.81,7.62,18.84,18.84,0,0,1-7.144,4.762c-2.858,1.429-6.668,1.9-11.43,1.9-5.715,0-10-.476-12.859-1.9a19.892,19.892,0,0,1-7.144-5.239,12.7,12.7,0,0,1-3.334-6.667C66.5,87.939,66.5,82.7,66.5,76.032Z" transform="translate(192.579 -43.648)" fill="#fff"/>
        <path id="Path_23" data-name="Path 23" d="M83.9,103.655V44.6h19.05a81.188,81.188,0,0,1,14.287.952,17.133,17.133,0,0,1,8.573,5.715c2.381,2.857,3.334,6.667,3.334,11.43,0,3.81-.476,6.667-1.905,9.049A15.14,15.14,0,0,1,122,77.461a18.05,18.05,0,0,1-6.191,2.857,76.761,76.761,0,0,1-12.382.953h-7.62v22.384ZM95.806,54.6V71.27h6.667A35.6,35.6,0,0,0,112,70.317a7.406,7.406,0,0,0,3.81-2.857,8.046,8.046,0,0,0,1.429-4.762c0-2.381-.476-3.81-1.9-5.239A9.882,9.882,0,0,0,110.57,54.6c-1.429-.476-4.286-.476-8.572-.476H95.806Z" transform="translate(258.046 -43.648)" fill="#fff"/>
      </g>
      <g id="Group_4" data-name="Group 4">
        <path id="Path_24" data-name="Path 24" d="M181.45,10.7c-21.431,0-39.052,9.049-52.387,23.336-16.669,18.574-17.145,35.719-17.621,48.1,0,1.9-.476,3.334-.476,5.239h0c-4.286,27.146-27.622,34.766-39.052,34.766-22.384,0-40.481-17.621-40.481-39.529,0-27.622,23.336-40,38.1-40,9.049,0,16.669,1.429,25.717,8.1l15.24-28.1C104.3,18.8,91.916,10.7,70.485,10.7,30,10.7,0,45.466,0,83.09,0,121.189,30,155,71.437,155c13.811,0,39.529-5.715,55.721-27.146,7.144-9.525,12.859-22.86,14.287-40,.476-3.334.952-6.191,1.429-9.049,2.857-14.764,7.62-19.05,9.525-21.907,1.429-1.9,12.859-14.287,29.051-14.287,18.1,0,27.146,9.049,31.432,14.287L228.6,27.845C213.835,15.939,199.072,10.7,181.45,10.7Z" transform="translate(0 40.735)" fill="#fff"/>
        <path id="Path_25" data-name="Path 25" d="M113.495,17.5A39.241,39.241,0,0,0,77.3,41.789h72.866C145.4,28.93,131.116,17.5,113.495,17.5Z" transform="translate(290.839 66.32)" fill="none"/>
        <path id="Path_26" data-name="Path 26" d="M113.495,17.5A39.241,39.241,0,0,0,77.3,41.789h72.866C145.4,28.93,131.116,17.5,113.495,17.5Z" transform="translate(290.839 66.32)" fill="none"/>
        <path id="Path_27" data-name="Path 27" d="M145,57.557c-.952-20.479-9.049-32.385-16.669-40.957a70.419,70.419,0,0,0-14.764,43.815c0,20.479-11.43,30.956-22.384,36.195A40.942,40.942,0,0,1,75,100.42a38.841,38.841,0,0,1-30.48-14.287S30.229,112.326,28.8,115.183c10,8.1,25.717,17.145,46.672,17.145h4.762c1.9,0,3.334-.476,5.239-.476,2.381-.476,4.762-.952,6.667-1.429a63.841,63.841,0,0,0,23.812-10.954h0a77.72,77.72,0,0,0,9.525-8.1,47.425,47.425,0,0,0,4.762-5.239A72.583,72.583,0,0,0,145,57.557Z" transform="translate(108.359 62.933)" fill="#fff"/>
        <path id="Path_28" data-name="Path 28" d="M276.018,81.815c-13.335-18.574-33.814-30.48-60.007-30.48-23.812,0-44.291,13.811-54.292,27.146s-14.764,25.717-15.24,45.244c0,4.762-.476,14.764-10,25.717-11.906,13.811-26.194,13.811-29.051,13.811-14.287,0-40-6.667-40-40a39.818,39.818,0,0,1,39.529-40c5.239,0,18.574,1.429,30,14.287,0,0,11.906-21.907,14.764-27.146s2.381-5.715,2.381-15.24V-.1L121.713.376V52.763A72.517,72.517,0,0,0,61.23,67.527,129.318,129.318,0,0,0,49.8,78.957c7.62,9.049,15.716,20.955,16.669,40.957.952,17.145-3.81,34.29-15.716,48.1h0c13.335,16.192,32.861,26.67,55.245,26.67a70.7,70.7,0,0,0,55.721-26.67l2.857,2.857c0,.476.476.476.476.952l1.9,1.9.952.952,2.857,2.857h0a59.965,59.965,0,0,0,13.335,9.049h0c.476.476,1.429.476,1.9.952a70.034,70.034,0,0,0,30,6.667,67.07,67.07,0,0,0,9.525-.476h.953c.952,0,1.429-.476,2.381-.476h.952a71.051,71.051,0,0,0,46.2-30.956h0a82.753,82.753,0,0,0,4.762-9.049H241.252c-1.429,1.429-15.716,11.43-31.432,8.1-13.335-2.857-20.479-9.049-24.765-14.764a41.128,41.128,0,0,1-4.762-7.62H286.019C290.305,127.058,290.781,103.246,276.018,81.815Zm-95.249,26.194c5.239-12.859,19.05-24.289,36.195-24.289s31.432,11.43,36.671,24.289Z" transform="translate(187.371 0.1)" fill="#fff"/>
      </g>
    </g>
  </g>
</svg>
