<svg xmlns="http://www.w3.org/2000/svg" xmlns:xlink="http://www.w3.org/1999/xlink" width="200.358" height="38.993" viewBox="0 0 200.358 38.993">
  <defs>
    <radialGradient id="radial-gradient" cx="0.695" cy="0.288" r="0.765" gradientTransform="translate(0)" gradientUnits="objectBoundingBox">
      <stop offset="0" stop-color="#c7eafb"/>
      <stop offset="0.55" stop-color="#00aeef"/>
      <stop offset="1" stop-color="#0072bc"/>
    </radialGradient>
    <radialGradient id="radial-gradient-2" cx="0.5" cy="0.5" r="0.681" gradientTransform="translate(0.196) scale(0.608 1)" gradientUnits="objectBoundingBox">
      <stop offset="0" stop-color="#f8c1d9"/>
      <stop offset="0.55" stop-color="#f287b7"/>
      <stop offset="1" stop-color="#ef5ba1"/>
    </radialGradient>
    <radialGradient id="radial-gradient-3" cx="0.5" cy="0.5" r="0.525" gradientTransform="translate(0.045) scale(0.91 1)" xlink:href="#radial-gradient"/>
  </defs>
  <g id="レイヤー_1" data-name="レイヤー 1" transform="translate(-0.001 0.007)">
    <path id="Path_1" data-name="Path 1" d="M201.876,15.678a32.353,32.353,0,0,0-6.494-2.068L194.69,15.3a19.843,19.843,0,0,1,5.86,3.45Z" transform="translate(-71.212 -4.981)" fill="#231f20"/>
    <path id="Path_2" data-name="Path 2" d="M198.962,23.622a30.962,30.962,0,0,0-6.323-2.232l-.609,1.719a17.247,17.247,0,0,1,5.689,3.6l1.243-3.082Z" transform="translate(-70.239 -7.827)" fill="#231f20"/>
    <path id="Path_3" data-name="Path 3" d="M193.09,29.968l.951,3.6c8.308-1.091,12.989-3.7,16.249-13.319l-1.795-1C205.629,28.63,198.963,29.835,193.09,29.968Z" transform="translate(-70.627 -7.044)" fill="#231f20"/>
    <path id="Path_4" data-name="Path 4" d="M112.571,27.39v-.564h1.2v-.977h-1.2V23.47h-1.649v2.378h-1.478v.977H110.9a12.7,12.7,0,0,1-1.643,4.091l.438,1.307a21.94,21.94,0,0,0,1.23-2.359V35.07h1.649V29.844a9.641,9.641,0,0,0,.615,1.116L114,29.952a8.943,8.943,0,0,1-1.427-2.562Z" transform="translate(-39.964 -8.587)" fill="#231f20"/>
    <path id="Path_5" data-name="Path 5" d="M120.7,29.358h2.524v-.977h-2.486v-1.9h2.175V25.5h-2.175V23.46h-1.789V25.5H118.2a10.91,10.91,0,0,0,.406-1.649l-1.655-.146a6.4,6.4,0,0,1-1.034,3.742l.92.564a5.54,5.54,0,0,0,.989-1.535h1.129v1.9H116.1v.977h2.454A9.894,9.894,0,0,1,115.8,33.31l.533.653a10.837,10.837,0,0,0,2.626-2.8v3.894h1.789v-3.97a10.708,10.708,0,0,0,2.087,2.873l.622-1.281a9.863,9.863,0,0,1-2.753-3.323Z" transform="translate(-42.356 -8.584)" fill="#231f20"/>
    <path id="Path_6" data-name="Path 6" d="M172.371,29.812a8.8,8.8,0,0,1-1.567-1.535,14.354,14.354,0,0,0,1.23-2.093V25.163h-1.249V23.47h-1.858v1.693h-1.541v1.008h2.683a8.193,8.193,0,0,1-2.9,3.647l.463,1.249a13.463,13.463,0,0,0,1.294-.983V35.1h1.858V29.622a6.69,6.69,0,0,0,1.027,1.18l.558-.977Z" transform="translate(-61.146 -8.587)" fill="#231f20"/>
    <path id="Path_7" data-name="Path 7" d="M178.892,27.581h2.378V26.528h-2.378V23.49h-1.909v3.038h-2.2v1.053h2.2V33.7h-2.8v1.046h7.268V33.7h-2.556Z" transform="translate(-63.71 -8.595)" fill="#231f20"/>
    <path id="Path_8" data-name="Path 8" d="M132.977,32.2h1.884V31.22H129.09V32.2h2v4.084l-2.137.336.14.989,6.735-1.091v-.977l-2.848.444Z" transform="translate(-47.166 -11.422)" fill="#231f20"/>
    <path id="Path_9" data-name="Path 9" d="M138.987,33.686c-1.528-.856-1.928-4.484-2.017-7.179h3.45V25.53h-3.469c-.006-1.224.038-2.08.038-2.08h-1.96s-.038.85-.019,2.08h-6.12v.977h6.146c.14,3.45.818,8.587,3.577,8.587,1.953,0,2.3-3.412,2.3-3.412l-1.509.044s-.013,2.2-.419,1.966Z" transform="translate(-47.144 -8.58)" fill="#231f20"/>
    <path id="Path_10" data-name="Path 10" d="M143.549,25.477l1.135-.419a5.124,5.124,0,0,0-.945-1.719l-1.579.634A4.634,4.634,0,0,1,143.549,25.477Z" transform="translate(-51.998 -8.54)" fill="#231f20"/>
    <path id="Path_11" data-name="Path 11" d="M155.133,23.336h-2.264a11.337,11.337,0,0,1-4.788,3.958l.5.977a6.354,6.354,0,0,0,2.137-.989v.583h6.564v-.45a8.215,8.215,0,0,0,2.042.875l.469-1.1c-3.685-1.649-4.668-3.856-4.668-3.856Zm-3.856,3.545a18.989,18.989,0,0,0,2.683-2.512,10.408,10.408,0,0,0,2.5,2.512Z" transform="translate(-54.164 -8.536)" fill="#231f20"/>
    <path id="Path_12" data-name="Path 12" d="M156.611,34.226l-1.034.558a13.342,13.342,0,0,1,1.332,1.782l-5.549.463a24.744,24.744,0,0,0,2.29-3.393h6.006V32.71H148.62v.926H151.5a19.433,19.433,0,0,1-1.262,3.488l-1.421.12.159.989,8.461-.8c.184.323.368.666.545,1.04l1.693-.844a12.793,12.793,0,0,0-3.063-3.412Z" transform="translate(-54.361 -11.967)" fill="#231f20"/>
    <path id="Path_13" data-name="Path 13" d="M267.712,17.358h6.215V15.43H258.053v1.928h6.133V29.1H257v1.871h17.961V29.1h-7.249Z" transform="translate(-94.004 -5.647)" fill="#231f20"/>
    <path id="Path_14" data-name="Path 14" d="M289.2,15.57v1.744h12.862s.476,11.41-10.281,13.642l.52,1.6c2.277-.4,7.04-1.332,10.351-5.835,2.841-3.894,3.387-8.822,3.488-11.15H289.2Z" transform="translate(-105.782 -5.698)" fill="#231f20"/>
    <rect id="Rectangle_1" data-name="Rectangle 1" width="18.595" height="2.074" transform="translate(142.232 16.246)" fill="#231f20"/>
    <path id="Path_15" data-name="Path 15" d="M87.66,14.666A4.56,4.56,0,1,1,83.1,10.1,4.561,4.561,0,0,1,87.66,14.666Z" transform="translate(-28.728 -3.697)" fill="url(#radial-gradient)"/>
    <path id="Path_16" data-name="Path 16" d="M15.158,32.04C6.178,27.271,7,17.5,16.363,8.98A49.469,49.469,0,0,0,11.607,11.9C-1.477,21.043-3.856,32.827,6.3,38.224s29,2.359,42.087-6.78a40.519,40.519,0,0,0,4.1-3.266c-12.583,6.805-28.35,8.632-37.331,3.856Z" transform="translate(0 -3.287)" fill="url(#radial-gradient-2)"/>
    <path id="Path_17" data-name="Path 17" d="M39.108,17.864C35.315,8.426,42.241,1.488,54.881,1A48.393,48.393,0,0,0,49.357.169c-15.887-1.433-25.3,6.057-21.006,16.725S49.008,37.372,64.908,38.812a41.144,41.144,0,0,0,5.245.146C56.149,36.059,42.907,27.3,39.108,17.864Z" transform="translate(-9.99 0)" fill="url(#radial-gradient-3)"/>
  </g>
</svg>
