<svg xmlns="http://www.w3.org/2000/svg" width="86.88" height="596.52" viewBox="0 0 86.88 596.52">
  <path id="Path_941" data-name="Path 941" d="M9.96,0V-84H26.04L61.8-24.72H53.28L88.44-84H104.4l.24,84H86.4l-.12-56.04h3.36L61.56-8.88H52.8L24.12-56.04H28.2V0ZM142.44-50.16h40.44v15.12H142.44Zm1.44,34.56H189.6V0H124.56V-84h63.48v15.6H143.88Zm88.8,17.04a68.532,68.532,0,0,1-19.32-2.7,45.2,45.2,0,0,1-14.88-7.02l6.6-14.64a48.219,48.219,0,0,0,12.78,6.3,46.966,46.966,0,0,0,14.94,2.46,31.116,31.116,0,0,0,9.3-1.14,10.889,10.889,0,0,0,5.22-3.18A7.153,7.153,0,0,0,249-23.16a6.33,6.33,0,0,0-2.64-5.34,21.677,21.677,0,0,0-6.96-3.24q-4.32-1.26-9.54-2.4t-10.44-2.82a44.156,44.156,0,0,1-9.54-4.32,21.23,21.23,0,0,1-7.02-6.96,20.52,20.52,0,0,1-2.7-11.04,23.438,23.438,0,0,1,3.9-13.14,26.679,26.679,0,0,1,11.76-9.48q7.86-3.54,19.74-3.54a66.042,66.042,0,0,1,15.6,1.86A44.954,44.954,0,0,1,264.72-78l-6,14.76a51.062,51.062,0,0,0-11.76-4.98,43.258,43.258,0,0,0-11.52-1.62,27.246,27.246,0,0,0-9.24,1.32,10.9,10.9,0,0,0-5.16,3.42,7.931,7.931,0,0,0-1.56,4.86,6.216,6.216,0,0,0,2.64,5.22,20.848,20.848,0,0,0,6.96,3.18q4.32,1.2,9.54,2.4t10.44,2.76a40.364,40.364,0,0,1,9.54,4.2,21.23,21.23,0,0,1,7.02,6.96,20.272,20.272,0,0,1,2.7,10.92,22.708,22.708,0,0,1-3.96,12.96,27.663,27.663,0,0,1-11.82,9.48Q244.68,1.44,232.68,1.44Zm76.56,0a68.532,68.532,0,0,1-19.32-2.7,45.2,45.2,0,0,1-14.88-7.02l6.6-14.64a48.219,48.219,0,0,0,12.78,6.3,46.966,46.966,0,0,0,14.94,2.46,31.116,31.116,0,0,0,9.3-1.14,10.889,10.889,0,0,0,5.22-3.18,7.153,7.153,0,0,0,1.68-4.68,6.33,6.33,0,0,0-2.64-5.34,21.677,21.677,0,0,0-6.96-3.24q-4.32-1.26-9.54-2.4t-10.44-2.82a44.155,44.155,0,0,1-9.54-4.32,21.23,21.23,0,0,1-7.02-6.96,20.52,20.52,0,0,1-2.7-11.04,23.438,23.438,0,0,1,3.9-13.14,26.679,26.679,0,0,1,11.76-9.48q7.86-3.54,19.74-3.54a66.042,66.042,0,0,1,15.6,1.86A44.954,44.954,0,0,1,341.28-78l-6,14.76a51.062,51.062,0,0,0-11.76-4.98A43.259,43.259,0,0,0,312-69.84a27.247,27.247,0,0,0-9.24,1.32,10.9,10.9,0,0,0-5.16,3.42,7.931,7.931,0,0,0-1.56,4.86,6.216,6.216,0,0,0,2.64,5.22,20.849,20.849,0,0,0,6.96,3.18q4.32,1.2,9.54,2.4t10.44,2.76a40.364,40.364,0,0,1,9.54,4.2,21.23,21.23,0,0,1,7.02,6.96,20.272,20.272,0,0,1,2.7,10.92,22.708,22.708,0,0,1-3.96,12.96A27.663,27.663,0,0,1,329.1-2.16Q321.24,1.44,309.24,1.44ZM347.16,0,384.6-84h19.2L441.36,0h-20.4L390.24-74.16h7.68L367.08,0Zm18.72-18,5.16-14.76h43.2L419.52-18ZM489.48,1.44a50.967,50.967,0,0,1-18.3-3.18,43.071,43.071,0,0,1-14.52-9.06,41.615,41.615,0,0,1-9.6-13.8A43.43,43.43,0,0,1,443.64-42a43.43,43.43,0,0,1,3.42-17.4,41.2,41.2,0,0,1,9.66-13.8,43.6,43.6,0,0,1,14.64-9.06,51.807,51.807,0,0,1,18.48-3.18,51.875,51.875,0,0,1,20.1,3.72A39.8,39.8,0,0,1,525-70.92L512.52-59.4a30.456,30.456,0,0,0-9.96-7.14,29.258,29.258,0,0,0-11.76-2.34,31.122,31.122,0,0,0-11.16,1.92,24.863,24.863,0,0,0-8.7,5.52,24.778,24.778,0,0,0-5.64,8.52A29,29,0,0,0,463.32-42a28.671,28.671,0,0,0,1.98,10.8,25.411,25.411,0,0,0,5.64,8.58,24.558,24.558,0,0,0,8.64,5.58,30.286,30.286,0,0,0,10.98,1.92,34.563,34.563,0,0,0,11.22-1.86,32.38,32.38,0,0,0,10.62-6.3L523.44-9.24a50.635,50.635,0,0,1-15.9,7.92A61.7,61.7,0,0,1,489.48,1.44Zm16.2-13.2V-43.32h17.76V-9.24Zm53.64-38.4h40.44v15.12H559.32Zm1.44,34.56h45.72V0H541.44V-84h63.48v15.6H560.76Z" transform="translate(1.44 -9.96) rotate(90)" fill="#fff"/>
</svg>
