<svg xmlns="http://www.w3.org/2000/svg" width="459.977" height="658.944" viewBox="0 0 459.977 658.944">
  <g id="Group_72" data-name="Group 72" transform="translate(-813 -199.831)">
    <g id="logo" transform="translate(854.321 775.938)">
      <path id="Path_1" data-name="Path 1" d="M76.576,5.741l-33.217,77.1H6.451V66.844H32.7L51.971,21.734H31.877L20.394,49.21H3.171L14.243,21.734H.3L6.861,5.741H20.8L23.265,0H40.488L38.028,5.741Z" transform="translate(-0.3)" fill="#fff"/>
      <path id="Path_2" data-name="Path 2" d="M141.1,1.4,107.88,78.5H64V62.5H97.628l7.382-17.634H86.555V28.876h25.425L116.9,17.393H85.735L77.124,37.077,59.9,36.667,75.073,1.4H141.1Z" transform="translate(184.51 4.341)" fill="#fff"/>
      <path id="Path_3" data-name="Path 3" d="M86.74,78.5H40.4V62.5H76.077L102.323,1.4h17.224L86.74,78.5Z" transform="translate(124.044 4.341)" fill="#fff"/>
      <path id="Path_4" data-name="Path 4" d="M47.961,1.4,41.4,17.393H75.847L82.819,1.4H47.961Z" transform="translate(127.145 4.341)" fill="#fff"/>
      <path id="Path_5" data-name="Path 5" d="M85.371,10.1,78.4,26.093h59.052V10.1Z" transform="translate(241.876 31.319)" fill="#fff"/>
      <path id="Path_6" data-name="Path 6" d="M102.247,5.741,69.03,82.837H24.741V66.844H58.368L77.642,21.734H44.835l-8.2,19.684L19,41.008,34.173,6.561v-.82H51.807L53.857,0H71.491L69.03,5.741h33.217Z" transform="translate(57.686 0)" fill="#fff"/>
    </g>
    <g id="Counter-logo" transform="translate(813 199.831)">
      <path id="Path_15" data-name="Path 15" d="M355.686,88.972l70.766-15.164-18.534,76.663A143.886,143.886,0,0,1,420.554,202.7H333.782c-6.74-21.061-34.54-44.65-67.4-44.65a69.393,69.393,0,0,0-69.081,69.081v18.534a69.393,69.393,0,0,0,69.081,69.081c32.855,0,60.656-23.589,67.4-44.65h86.772c0,18.534-5.055,36.225-12.637,52.232l18.534,76.663-70.766-15.164L304.3,469.759l-37.91-58.129L162.765,469.759l5.9-92.669L59.144,379.617,115.588,292,2.7,236.4l112.046-54.759-55.6-88.457,109.518,1.685L162.765,2.2,266.386,61.171,305.139,3.042Z" transform="translate(20.046 16.334)" fill="#fff"/>
      <path id="Path_16" data-name="Path 16" d="M325.185,505.469l-42.122-64.026-111.2,63.184,5.9-100.251L59.814,406.06l60.656-94.354L0,252.734l120.47-58.971L60.656,99.409,178.6,101.094,171.859.842l111.2,63.184L325.185,0l55.6,93.512,79.19-17.691-21.9,89.3c7.582,17.691,11.794,35.383,11.794,53.074V228.3H346.246l-2.527-6.74c-5.055-16.007-27.8-37.91-58.129-37.91a58.608,58.608,0,0,0-58.971,58.971v18.534A58.608,58.608,0,0,0,285.59,320.13c30.328,0,53.074-21.9,58.129-37.91l2.527-6.74H450.71V285.59a131.325,131.325,0,0,1-11.794,53.074l21.061,88.457-79.19-17.691ZM199.66,383.314l-5.9,85.087,95.2-53.917,34.54,52.232,46.335-79.19,62.341,13.479-15.164-64.026,1.685-3.37a128.957,128.957,0,0,0,10.952-37.91H360.568c-10.952,22.746-39.6,44.65-74.135,44.65a79.1,79.1,0,0,1-79.19-79.19V242.625a79.1,79.1,0,0,1,79.19-79.19c34.54,0,63.184,21.9,74.135,44.65h69.081c-1.685-12.637-5.055-26.116-10.952-37.91l-1.685-3.37,15.164-64.026-61.5,14.322L324.342,38.753,289.8,90.984,193.763,37.068l5.9,85.087L97.724,120.47l52.232,81.717L45.492,252.734l104.464,50.547L97.724,385Z" fill="#fff"/>
    </g>
  </g>
</svg>
