<svg xmlns="http://www.w3.org/2000/svg" width="672" height="463" viewBox="0 0 672 463">
  <g id="Group_249" data-name="Group 249" transform="translate(-560 -1045)">
    <rect id="Rectangle_89" data-name="Rectangle 89" width="672" height="463" transform="translate(560 1045)" fill="none"/>
    <g id="Group_248" data-name="Group 248" transform="translate(-54 5)">
      <path id="Path_437" data-name="Path 437" d="M6.976-9.424A18.137,18.137,0,0,1,5.952-6.016,19.677,19.677,0,0,0,3.664-7.568a16.889,16.889,0,0,0,.96-1.856Zm5.5-4.1H10.5v5.36A10.86,10.86,0,0,1,9.5-9.7l-.592.224q.12-.672.24-1.392L7.9-11.3l-.336.064H5.344c.224-.64.416-1.28.592-1.952l-1.888-.368A14.474,14.474,0,0,1,.288-6.416,11.47,11.47,0,0,1,1.872-5.2a7.866,7.866,0,0,0,.816-.944,20.42,20.42,0,0,1,2.4,1.824A10.867,10.867,0,0,1,.752-.176a8.058,8.058,0,0,1,1.52,1.424C5.12-.368,7.344-3.424,8.544-7.952A18.164,18.164,0,0,0,10.5-5.376V1.36H12.48V-3.52a13.524,13.524,0,0,0,1.952,1.264A9.151,9.151,0,0,1,15.824-3.92,13.189,13.189,0,0,1,12.48-6.064ZM27.344-6.768A9.7,9.7,0,0,1,25.2-3.456a10.492,10.492,0,0,1-2.192-3.312Zm1.2-1.92-.368.08h-7.76v-2.24H30.624v-1.888H18.5v4.464c0,2.528-.112,6.1-1.872,8.512A8.089,8.089,0,0,1,18.24,1.36c1.552-2.192,2.032-5.472,2.144-8.128h.608A13.922,13.922,0,0,0,23.68-2.176a12.492,12.492,0,0,1-4.1,1.808,7.227,7.227,0,0,1,1.1,1.76A15.08,15.08,0,0,0,25.184-.8a13.289,13.289,0,0,0,4.8,2.192,8.371,8.371,0,0,1,1.28-1.776,12.849,12.849,0,0,1-4.5-1.792,12.809,12.809,0,0,0,3.1-5.952ZM40.72-2.96l1.12-1.072a13.1,13.1,0,0,0-2.88-2.032l-1.216,1.12A13.807,13.807,0,0,1,40.416-2.96H36.048c.16-1.008.32-2.112.48-3.232h7.04c-.08,1.328-.176,2.4-.272,3.232Zm3.072-8.16c-.032,1.168-.08,2.224-.128,3.168H41.056l1.12-1.184a13.069,13.069,0,0,0-2.784-1.808l-1.12,1.136a13.107,13.107,0,0,1,2.656,1.856H36.784c.144-1.072.288-2.144.416-3.168Zm3.7,4.928v-1.76h-1.9c.064-1.152.112-2.448.16-3.92.016-.24.032-.976.032-.976H35.392c-.144,1.52-.336,3.216-.56,4.9h-2.3v1.76h2.064C34.272-4,33.9-1.92,33.568-.32l2.016.16.192-1.072h7.2a1.843,1.843,0,0,1-.3.7A.711.711,0,0,1,42-.192a18.748,18.748,0,0,1-1.888-.08,4.164,4.164,0,0,1,.512,1.68A13.457,13.457,0,0,0,42.96,1.36,1.979,1.979,0,0,0,44.432.4a4.189,4.189,0,0,0,.544-1.632h2.08V-2.96H45.232c.1-.864.176-1.936.256-3.232Zm3.3-5.152H53.12V-9.28H50.784ZM54.8-2.7l-1.632.432V-4.336h1.6V-6h-1.6V-7.68h1.68v-5.264h-5.68V-7.68H51.52v5.856l-.9.208v-4.9H49.1v5.28c-.256.048-.512.112-.736.16L48.816.72C50.56.208,52.88-.432,55.056-1.088ZM60.656-.816V-6.208h2.416V-7.984H60.656V-13.5H58.784V-.816h-1.2V-9.792h-1.76V-.816h-1.5V.976h9.136V-.816Z" transform="translate(665 1342)" fill="#3c3c3b"/>
      <path id="Path_436" data-name="Path 436" d="M8.64-10.7a10.935,10.935,0,0,1,.8,2.5l1.7-.576a10.2,10.2,0,0,0-.9-2.448,36.619,36.619,0,0,0,4.576-.784l-1.264-1.536a47.652,47.652,0,0,1-8.368,1.088,5.307,5.307,0,0,1,.48,1.584c1.456-.064,3.04-.176,4.576-.352Zm-3.3-1.2a12.05,12.05,0,0,0-2.9-1.568l-1.04,1.408A10.987,10.987,0,0,1,4.24-10.336Zm-.88,4.256A11.164,11.164,0,0,0,1.5-9.168L.5-7.744a12.427,12.427,0,0,1,2.88,1.68ZM2.5,1.168C3.376-.4,4.288-2.256,5.056-3.968L3.584-5.12A51.936,51.936,0,0,1,.848.016Zm12.88-5.5h-3.92v-.288A12.777,12.777,0,0,0,14.88-7.152l-1.2-.88-.432.08H13.1c.528-.736,1.2-1.776,1.824-2.752l-2.016-.608A17.245,17.245,0,0,1,11.552-8.4l1.184.448H7.168l1.232-.5a9.267,9.267,0,0,0-1.168-2.368l-1.6.576a10.282,10.282,0,0,1,1.04,2.288H5.984V-6.32h5.408a9.8,9.8,0,0,1-1.136.736h-.7v1.248H5.3v1.664H9.552V-.72c0,.208-.08.256-.352.272-.288,0-1.312,0-2.144-.032a7.712,7.712,0,0,1,.592,1.84,8.065,8.065,0,0,0,2.912-.3c.7-.288.9-.784.9-1.728v-2h3.92Zm2.96-3.792.112,1.888a59.5,59.5,0,0,0,6.96.016c.256.544.56,1.1.9,1.664-.48-.048-1.344-.128-2.016-.192l-.16,1.52c1.168.128,2.9.336,3.792.512L28.9-4.192a4.877,4.877,0,0,1-.72-.816,14.561,14.561,0,0,1-.832-1.424,21.439,21.439,0,0,0,2.56-.5l-.32-1.888a20.656,20.656,0,0,1-3.056.64c-.1-.256-.192-.5-.272-.72-.08-.24-.16-.5-.24-.752a23.325,23.325,0,0,0,2.944-.592L28.7-12.08a18.39,18.39,0,0,1-3.152.688q-.168-.816-.288-1.68l-2.144.24c.192.56.352,1.072.512,1.584a33.282,33.282,0,0,1-5.008-.24l.112,1.84a37.409,37.409,0,0,0,5.392.144c.1.272.192.576.32.944.064.176.128.368.208.56A41,41,0,0,1,18.336-8.128Zm3.072,3.712L19.424-4.8a5.313,5.313,0,0,0-.688,2.576c.032,2.288,2.016,3.232,5.216,3.232A24.575,24.575,0,0,0,27.84.7l.112-2.032a21.058,21.058,0,0,1-4.016.352c-2.112,0-3.232-.48-3.232-1.664A3,3,0,0,1,21.408-4.416Zm15.04-6.64h7.328v2.192H36.448ZM41.1-3.328H46.32v-1.76H41.1V-7.056h4.7V-12.88H34.544v5.824h4.592v5.664a4.845,4.845,0,0,1-2.3-2.576c.16-.64.288-1.28.384-1.9L35.232-6.1C35.008-3.92,34.3-1.312,32.576.048a7.94,7.94,0,0,1,1.344,1.3,8.051,8.051,0,0,0,2.192-3.136c1.664,2.448,4.144,3.024,7.36,3.024h3.392a6.986,6.986,0,0,1,.656-1.84c-.88.016-3.248.032-3.936.016A15.337,15.337,0,0,1,41.1-.768Z" transform="translate(675 1492)" fill="#3c3c3b"/>
      <path id="Path_435" data-name="Path 435" d="M12.7-9.04v5.776A41.765,41.765,0,0,0,8.752-7.232,12.126,12.126,0,0,0,8.976-9.04Zm-9.344,0H7.008a6.339,6.339,0,0,1-3.648,5.9ZM14.592-10.9h-5.6v-2.656H7.024V-10.9H1.456V1.424h1.9V-3.088A7.742,7.742,0,0,1,4.688-1.68a8.3,8.3,0,0,0,3.44-3.68,33.463,33.463,0,0,1,3.008,3.344L12.7-3.232v2.4c0,.288-.1.368-.4.384-.3,0-1.376.016-2.32-.032a6.24,6.24,0,0,1,.624,1.888,8.259,8.259,0,0,0,3.1-.336c.672-.3.88-.832.88-1.856ZM27.344-6.768A9.7,9.7,0,0,1,25.2-3.456a10.492,10.492,0,0,1-2.192-3.312Zm1.2-1.92-.368.08h-7.76v-2.24H30.624v-1.888H18.5v4.464c0,2.528-.112,6.1-1.872,8.512A8.089,8.089,0,0,1,18.24,1.36c1.552-2.192,2.032-5.472,2.144-8.128h.608A13.922,13.922,0,0,0,23.68-2.176a12.492,12.492,0,0,1-4.1,1.808,7.227,7.227,0,0,1,1.1,1.76A15.08,15.08,0,0,0,25.184-.8a13.289,13.289,0,0,0,4.8,2.192,8.371,8.371,0,0,1,1.28-1.776,12.849,12.849,0,0,1-4.5-1.792,12.809,12.809,0,0,0,3.1-5.952Zm10.48-4.64V-.992c0,.3-.128.416-.48.416-.352.016-1.536.016-2.576-.032a8.562,8.562,0,0,1,.752,1.984,9.784,9.784,0,0,0,3.392-.368c.7-.3.976-.832.976-2V-13.328Zm3.808,4.176a27.509,27.509,0,0,1,2.8,7.28l2.08-.816A27.983,27.983,0,0,0,44.7-9.856Zm-8-.528a15.494,15.494,0,0,1-2.416,6.5,16.026,16.026,0,0,1,1.856.992c1.328-1.76,2.192-4.736,2.736-7.12Zm15.952-1.664H53.12V-9.28H50.784ZM54.8-2.7l-1.632.432V-4.336h1.6V-6h-1.6V-7.68h1.68v-5.264h-5.68V-7.68H51.52v5.856l-.9.208v-4.9H49.1v5.28c-.256.048-.512.112-.736.16L48.816.72C50.56.208,52.88-.432,55.056-1.088ZM60.656-.816V-6.208h2.416V-7.984H60.656V-13.5H58.784V-.816h-1.2V-9.792h-1.76V-.816h-1.5V.976h9.136V-.816Z" transform="translate(809 1342)" fill="#3c3c3b"/>
      <path id="Path_434" data-name="Path 434" d="M12.432-11.168V-9.9H4.048v-1.264Zm1.92,2.912v-4.56H2.112v4.688C2.112-5.6,2-2.016.4.416a7.682,7.682,0,0,1,1.7.976C3.776-1.2,4.048-5.36,4.048-8.128v-.128ZM12.784-3.1V-.8H10.448V-3.68H14.1V-7.52H12.288v2.3h-1.84V-7.968H8.576v2.752H6.8v-2.3H5.072v3.84h3.5V-.8H6.368V-3.1H4.544V1.36H6.368V.8h6.416v.56h1.84V-3.1Zm6.64-9.008.08,2.064c.416-.064.976-.112,1.3-.128.736-.048,2.112-.1,2.752-.128-.368.752-.832,1.84-1.28,2.9C19.056-7.264,16.8-5.376,16.8-2.9A2.4,2.4,0,0,0,19.264-.3a2.789,2.789,0,0,0,2.5-1.408,31.449,31.449,0,0,0,1.808-3.84,11.094,11.094,0,0,1,3.792,1.3A6.893,6.893,0,0,1,23.3-.24l1.7,1.392a8,8,0,0,0,4.064-4.336,16.682,16.682,0,0,1,1.376,1.12l.928-2.224c-.464-.32-1.04-.688-1.712-1.072a25.984,25.984,0,0,0,.3-2.96l-2.1-.24a10.539,10.539,0,0,1,0,1.744c-.016.176-.032.352-.048.544A14.4,14.4,0,0,0,24.336-7.3a34.091,34.091,0,0,1,1.6-3.44,3.857,3.857,0,0,1,.544-.672L25.2-12.4a3.437,3.437,0,0,1-1.088.224c-.752.064-2.448.144-3.36.144C20.4-12.032,19.856-12.064,19.424-12.112ZM18.672-3.2c0-1.008,1.008-2.1,2.8-2.368a17.919,17.919,0,0,1-1.3,2.608c-.288.4-.512.56-.832.56C18.976-2.4,18.672-2.672,18.672-3.2Zm17.776-7.856h7.328v2.192H36.448ZM41.1-3.328H46.32v-1.76H41.1V-7.056h4.7V-12.88H34.544v5.824h4.592v5.664a4.845,4.845,0,0,1-2.3-2.576c.16-.64.288-1.28.384-1.9L35.232-6.1C35.008-3.92,34.3-1.312,32.576.048a7.94,7.94,0,0,1,1.344,1.3,8.051,8.051,0,0,0,2.192-3.136c1.664,2.448,4.144,3.024,7.36,3.024h3.392a6.986,6.986,0,0,1,.656-1.84c-.88.016-3.248.032-3.936.016A15.337,15.337,0,0,1,41.1-.768Z" transform="translate(819 1492)" fill="#3c3c3b"/>
    </g>
    <g id="Group_207" data-name="Group 207" transform="translate(-216 -212)">
      <path id="Union_1" data-name="Union 1" d="M13496.879,22432H13459v-30h87v30h-36.873l-6.123,7Z" transform="translate(-12630 -21145)" fill="#3c3c3b"/>
      <path id="Path_433" data-name="Path 433" d="M-33.94-11.52V-13.1H-21.7v1.58h-4.98v-1.14h-2.38v1.14Zm14.98,8.36V-5.22h-7.9a6.79,6.79,0,0,0,.16-1.26h5.46V-8.4h-5.44V-9.6h5.84v-1.32h1.6v-4.26h-7.32v-1.74H-29v1.74h-7.3v4.26h1.78V-9.6h5.46v1.2H-34.2v1.92h5.12a9.166,9.166,0,0,1-.2,1.26h-7.18v2.06h6.02c-1.1,1.18-3.02,2.22-6.38,2.98a9.706,9.706,0,0,1,1.48,1.92c4.08-1.1,6.3-2.68,7.48-4.46,1.58,2.48,3.96,3.9,7.76,4.5A9.253,9.253,0,0,1-18.7-.3c-3.16-.34-5.4-1.26-6.82-2.86Zm10.68.56c0-.76.76-1.24,1.9-1.24a6.175,6.175,0,0,1,1.6.22v.36c0,1.18-.42,1.82-1.64,1.82C-7.48-1.44-8.28-1.78-8.28-2.6Zm5.94-13.06H-5.2a8.493,8.493,0,0,1,.14,1.32c0,.42.02,1.24.02,2.22-.46.02-.94.02-1.4.02a33.325,33.325,0,0,1-3.5-.18V-9.9c1.18.08,2.32.12,3.5.12.46,0,.94,0,1.42-.02.02,1.42.1,2.88.14,4.12a8.9,8.9,0,0,0-1.3-.08c-2.72,0-4.44,1.4-4.44,3.42C-10.62-.24-8.9.92-6.14.92c2.7,0,3.78-1.36,3.9-3.28A20.978,20.978,0,0,1,.2-.34l1.38-2.1A13.089,13.089,0,0,0-2.3-5.02c-.08-1.36-.18-2.96-.22-4.9,1.1-.08,2.14-.2,3.1-.34v-2.5a27.4,27.4,0,0,1-3.1.46c.02-.88.04-1.62.06-2.06A12.524,12.524,0,0,1-2.34-15.66Zm-9.76.22-2.76-.24a19.078,19.078,0,0,1-.2,1.96,63.338,63.338,0,0,0-.82,8.34,23.491,23.491,0,0,0,.8,6.4l2.26-.18c-.02-.28-.04-.62-.04-.82a5.582,5.582,0,0,1,.1-.94c.24-1.08.88-3.12,1.44-4.76l-1.22-1c-.3.68-.64,1.36-.9,2.06a9.454,9.454,0,0,1-.08-1.3,53.388,53.388,0,0,1,.96-7.74A12.986,12.986,0,0,1-12.1-15.44ZM8.12-5.52A1.854,1.854,0,0,0,9.96-7.44,1.854,1.854,0,0,0,8.12-9.36,1.838,1.838,0,0,0,6.3-7.44,1.838,1.838,0,0,0,8.12-5.52Zm11.84,0A1.854,1.854,0,0,0,21.8-7.44a1.854,1.854,0,0,0-1.84-1.92,1.838,1.838,0,0,0-1.82,1.92A1.838,1.838,0,0,0,19.96-5.52Zm11.84,0a1.854,1.854,0,0,0,1.84-1.92A1.854,1.854,0,0,0,31.8-9.36a1.838,1.838,0,0,0-1.82,1.92A1.838,1.838,0,0,0,31.8-5.52Z" transform="translate(873 1280)" fill="#fff"/>
      <path id="Path_432" data-name="Path 432" d="M-10.78-20.58h-3.57v-7.77h3.57Zm-13.09-7.77h3.5v7.77h-3.5Zm10.08-18.34v3.85h-7v-3.85ZM4.55-58.8C2.45-49.28-1.54-40.25-6.79-34.51l.21.28h-7.07v-3.29h7.07v-9.17h4.69v-6.72H-6.58v-5.81h-7.21v5.81h-7v-5.81h-6.93v5.81h-4.76v6.72h4.76v9.17h6.65v3.29h-9.1v19.6h8.89v3.29h-11.2v6.93h11.2V6.02h7.91V-4.41H-2.59v-6.93H-13.37v-3.29h9.03V-30.8c.84,1.54,1.68,3.08,2.1,3.99A43.62,43.62,0,0,0,.84-30.66V6.09H8.47V-45.22a108.467,108.467,0,0,0,3.78-11.69ZM23.03-2.45a1.588,1.588,0,0,1-1.26-.49,1.558,1.558,0,0,1-.49-1.33V-26.81c4.06-3.43,8.26-7.35,12.04-11.27l-6.09-6.58a88.368,88.368,0,0,1-5.95,8.19V-58.03H13.65V-3.99c0,4.97.42,6.44,1.75,7.77a7.447,7.447,0,0,0,5.39,1.96h4.62a8.636,8.636,0,0,0,4.62-1.26A5.964,5.964,0,0,0,32.55.49a57.226,57.226,0,0,0,.98-9.66,17.86,17.86,0,0,1-6.16-3.5,71.315,71.315,0,0,1-.28,7.98,3.367,3.367,0,0,1-.77,1.89,2.326,2.326,0,0,1-1.4.35Z" transform="translate(866 1367)" fill="#fff53b"/>
      <path id="Path_431" data-name="Path 431" d="M-134.3-42.282l-8.046-.81A54.957,54.957,0,0,1-143.478-31.7c-2.754.27-5.292.432-6.966.486a51.562,51.562,0,0,1-5.778,0l.648,7.344c1.674-.27,4.482-.648,6.048-.918.972-.108,2.7-.324,4.644-.54-2,7.4-5.724,18.306-10.962,25.38l7.02,2.808c4.968-7.938,8.964-20.736,11.016-28.944,1.566-.108,2.916-.216,3.78-.216,3.348,0,5.238.594,5.238,4.914,0,5.346-.756,11.88-2.214,14.958a3.96,3.96,0,0,1-4.05,2.322,31.2,31.2,0,0,1-6.588-1.134l1.134,7.128a35.487,35.487,0,0,0,6.48.756c4.1,0,7.074-1.188,8.856-4.968,2.322-4.7,3.078-13.446,3.078-19.818,0-7.776-4.05-10.314-9.774-10.314-1.134,0-2.7.108-4.536.216.378-1.944.81-3.942,1.134-5.562C-135-39.15-134.622-40.878-134.3-42.282Zm24.03-4.482-4.32,1.728a61.074,61.074,0,0,1,4.374,7.452l4.266-1.836A71.839,71.839,0,0,0-110.268-46.764Zm-6.426,2.43-4.266,1.782a59.7,59.7,0,0,1,3.672,6.372l-4.86,2.106c3.834,4.752,7.668,14.256,9.072,20.25l6.858-3.132a97.991,97.991,0,0,0-8.8-18.846l2.646-1.134C-113.4-38.934-115.344-42.336-116.694-44.334ZM-53.568-25.65v-6.642H-75.654c.378-4.7.432-9.234.486-13.392h-7.02c-.054,4.1,0,8.694-.432,13.392h-19.116v6.642h18.2c-1.944,9.72-7.02,19.116-19.926,24.894A19.764,19.764,0,0,1-98.658,4.7,38.8,38.8,0,0,0-84.564-6.372,67.364,67.364,0,0,1-75.276,3.834l5.94-4.428c-2.052-2.862-6.588-7.128-9.99-9.99l-4.428,3.078a40.242,40.242,0,0,0,6.21-13.5C-73.386-9.4-67.122-.378-56.916,4.7A25.781,25.781,0,0,1-52.11-1.3C-62.208-5.67-68.8-14.742-72.36-25.65Zm23.76,19.278c0-1.35,1.3-2.592,3.348-2.592,2.916,0,4.914,2.268,5.238,5.778a28.192,28.192,0,0,1-3.132.162C-27.594-3.024-29.808-4.374-29.808-6.372Zm-9.18-34.776.216,7.02c1.242-.162,2.97-.324,4.428-.432,2.862-.162,10.314-.486,13.068-.54-2.646,2.322-8.262,6.858-11.286,9.342-3.186,2.646-9.72,8.154-13.554,11.232L-41.2-9.45c5.778-6.588,11.178-10.962,19.44-10.962,6.372,0,11.232,3.294,11.232,8.154a7.826,7.826,0,0,1-4.482,7.344c-.756-5.13-4.806-9.234-11.5-9.234-5.724,0-9.666,4.05-9.666,8.424,0,5.4,5.67,8.856,13.176,8.856,13.068,0,19.548-6.75,19.548-15.282,0-7.884-6.966-13.608-16.146-13.608a21.1,21.1,0,0,0-5.13.594c3.4-2.7,9.072-7.452,11.988-9.5,1.242-.918,2.538-1.674,3.78-2.484l-3.51-4.806a23.594,23.594,0,0,1-4.1.594c-3.078.27-14.634.486-17.5.486A37.473,37.473,0,0,1-38.988-41.148ZM22.464-11.772a27.643,27.643,0,0,1-9.5,10.314,42.431,42.431,0,0,1,5.292,3.78A40.477,40.477,0,0,0,28.674-10.044Zm2.97-9.666h18.36v3.132H25.434Zm0-7.56h18.36v3.078H25.434ZM50.382-13.5V-33.8H37.044l1.134-3.672-.756-.054h16.9v-5.832H9.288v15.984c0,8.424-.378,20.52-4.86,28.782A23.269,23.269,0,0,1,10.1,4.59C14.85-4.32,15.606-18.2,15.606-27.378V-37.53H30.4a33.675,33.675,0,0,1-.486,3.726H19.17v20.3H31.536V-1.728c0,.648-.216.81-1.026.81-.756.054-3.348.054-5.724-.054A22.256,22.256,0,0,1,26.568,4.7c3.78,0,6.588,0,8.64-.918,2.052-.864,2.538-2.43,2.538-5.346V-13.5Zm-9.99,4.536c3.564,3.24,7.83,7.83,9.612,10.908L55.3-1.512c-2-3.078-6.426-7.4-9.99-10.53ZM98.6-23.328v-5.724H86.616c.108-2.214.216-4.536.27-6.966h-5.94c-.054,2.484-.108,4.806-.27,6.966H69.66v5.724H80.028c-1.242,6.21-4.1,10.53-11.394,13.338a17.516,17.516,0,0,1,3.618,4.914c6.48-2.7,10.044-6.534,12.042-11.664,2.268,5.454,5.67,9.4,11.124,11.664a19.3,19.3,0,0,1,3.834-5.184c-6.318-2.106-9.828-6.8-11.664-13.068Zm-31.05,19.6V-37.26h32.994V-3.726Zm-6.372-39.69V4.59h6.372V2.484h32.994V4.59h6.7V-43.416ZM118.53-13.608h5.184l1.134-19.926.27-7.506h-7.992l.27,7.506ZM121.122.756a5.006,5.006,0,0,0,4.968-5.184,4.974,4.974,0,0,0-4.968-5.184,4.931,4.931,0,0,0-4.914,5.184A4.963,4.963,0,0,0,121.122.756ZM140.67-13.608h6.912c-.81-7.614,8.586-10.206,8.586-17.874,0-6.912-4.752-10.26-11.232-10.26a14.941,14.941,0,0,0-11.34,5.4l4.374,4c1.728-1.782,3.618-3.024,5.994-3.024,2.808,0,4.59,1.728,4.59,4.428C148.554-25.812,139.374-22.3,140.67-13.608ZM144.126.756a4.973,4.973,0,0,0,4.968-5.184,4.942,4.942,0,0,0-4.968-5.184,4.931,4.931,0,0,0-4.914,5.184A4.963,4.963,0,0,0,144.126.756Z" transform="translate(1072 1368)" fill="#fff"/>
    </g>
  </g>
</svg>
