<svg id="Component_13_1" data-name="Component 13 – 1" xmlns="http://www.w3.org/2000/svg" width="413" height="331" viewBox="0 0 413 331">
  <rect id="Rectangle_90" data-name="Rectangle 90" width="413" height="331" fill="none"/>
  <path id="Path_436" data-name="Path 436" d="M-71.008-3.248v-3.52a17.832,17.832,0,0,0,2.544,3.52Zm-4.512,0a18.644,18.644,0,0,0,2.512-3.488v3.488Zm10.576-5.28v-1.92h-6.064v-3.088h-2v3.088h-6.016v1.92h4.88a14.213,14.213,0,0,1-5.5,6A9.407,9.407,0,0,1-78.256-.944a13.588,13.588,0,0,0,2.5-2.048v1.68h2.752v2.7h2v-2.7h2.656V-3.136A13.09,13.09,0,0,0-65.744-.992,8.089,8.089,0,0,1-64.272-2.72a13.977,13.977,0,0,1-5.584-5.808Zm7.936-1.456v3.376h-2.768l1.52-.592a11.4,11.4,0,0,0-1.36-2.784Zm4.72,0a18.02,18.02,0,0,1-1.36,2.912l1.344.464h-2.688V-9.984Zm3.44,5.2V-6.608h-3.1a29.514,29.514,0,0,0,1.68-2.832l-1.84-.544h2.656v-1.824h-5.536v-1.744h-2.016v1.744H-62.4v1.824h2.72l-1.648.624a11.16,11.16,0,0,1,1.2,2.752h-3.024v1.824h5.024a15.1,15.1,0,0,1-5.472,4,9.029,9.029,0,0,1,1.344,1.6A16.6,16.6,0,0,0-57.008-3.5v4.88h2.016V-3.536A16.178,16.178,0,0,0-49.76.848a8.931,8.931,0,0,1,1.328-1.6,14.835,14.835,0,0,1-5.424-4.032Zm6.128-7.968-2,.816c.72,1.7,1.488,3.408,2.224,4.768-1.536,1.136-2.656,2.464-2.656,4.224,0,2.752,2.416,3.632,5.6,3.632a29.715,29.715,0,0,0,5.136-.4l.032-2.3a24.7,24.7,0,0,1-5.232.592c-2.224,0-3.328-.608-3.328-1.76,0-1.12.9-2.032,2.224-2.912a47.36,47.36,0,0,1,4.464-2.368c.592-.3,1.1-.576,1.584-.864l-1.1-1.856a10,10,0,0,1-1.488.976c-.752.432-2.144,1.12-3.456,1.888A38.006,38.006,0,0,1-42.72-12.752Zm18.3,10.672c0-.608.608-.992,1.52-.992a4.94,4.94,0,0,1,1.28.176v.288c0,.944-.336,1.456-1.312,1.456C-23.776-1.152-24.416-1.424-24.416-2.08Zm4.752-10.448h-2.288a6.794,6.794,0,0,1,.112,1.056c0,.336.016.992.016,1.776-.368.016-.752.016-1.12.016a26.66,26.66,0,0,1-2.8-.144v1.9c.944.064,1.856.1,2.8.1.368,0,.752,0,1.136-.016.016,1.136.08,2.3.112,3.3a7.118,7.118,0,0,0-1.04-.064c-2.176,0-3.552,1.12-3.552,2.736,0,1.68,1.376,2.608,3.584,2.608,2.16,0,3.024-1.088,3.12-2.624A16.783,16.783,0,0,1-17.632-.272l1.1-1.68a10.472,10.472,0,0,0-3.1-2.064c-.064-1.088-.144-2.368-.176-3.92.88-.064,1.712-.16,2.48-.272v-2a21.922,21.922,0,0,1-2.48.368c.016-.7.032-1.3.048-1.648A10.019,10.019,0,0,1-19.664-12.528Zm-7.808.176-2.208-.192a15.262,15.262,0,0,1-.16,1.568A50.671,50.671,0,0,0-30.5-4.3a18.793,18.793,0,0,0,.64,5.12l1.808-.144c-.016-.224-.032-.5-.032-.656A4.465,4.465,0,0,1-28-.736c.192-.864.7-2.5,1.152-3.808l-.976-.8c-.24.544-.512,1.088-.72,1.648a7.563,7.563,0,0,1-.064-1.04,42.711,42.711,0,0,1,.768-6.192A10.389,10.389,0,0,1-27.472-12.352Zm24.3,3.2H-6.9V-11.36h3.728Zm1.856-3.808H-8.656v5.408h7.344ZM-9.12-4.736c-.3-.352-1.616-1.744-2.048-2.1V-7.3h1.712V-9.072h-1.712v-2.256a16.683,16.683,0,0,0,1.9-.608l-1.264-1.456a22.872,22.872,0,0,1-4.96,1.328,6.6,6.6,0,0,1,.528,1.456c.624-.08,1.28-.192,1.952-.32v1.856H-15.3V-7.3h2.032a15.635,15.635,0,0,1-2.368,4.288,9.445,9.445,0,0,1,.88,1.808,14.219,14.219,0,0,0,1.744-3.168V1.376h1.84v-6.24a14.02,14.02,0,0,1,.96,1.616ZM-4.1-.624V-2.032h2.832v-1.6H-4.1V-4.96H-.88V-6.592H-9.168V-4.96h3.184v1.328h-2.8v1.6h2.8V-.624H-9.792V1.04H-.544V-.624ZM7.7-7.36H12.08v1.024H7.7Zm5.328,2.288c-.368.3-.8.64-1.184.9a4.649,4.649,0,0,1-.88-.9Zm-2.288,4V-3.184A7.576,7.576,0,0,0,14.256-1.3a6.533,6.533,0,0,1,1.056-1.456,8.713,8.713,0,0,1-2.288-.7c.64-.352,1.344-.784,2.032-1.248l-1.136-.7V-8.64H5.952v3.568H8.336A10.087,10.087,0,0,1,4.672-3.008a9.766,9.766,0,0,1,1.1,1.424A12.621,12.621,0,0,0,8.928-3.456v2.384Zm4.368-9.52H10.768v-.7H14.16v-1.328H10.768v-.912H8.928v.912H5.664V-11.3H8.928v.7H4.848v1.36H15.1ZM4.688-10.608a13.9,13.9,0,0,0-2.512-2.544L.72-12.064a12.468,12.468,0,0,1,2.4,2.656ZM4.256-7.344H.656V-5.6H2.448v3.488A19.174,19.174,0,0,1,.464-.64l.9,1.888C2.176.56,2.832-.048,3.472-.672,4.432.56,5.712,1.024,7.616,1.1c1.952.08,5.344.048,7.328-.048A8.675,8.675,0,0,1,15.536-.8c-2.208.176-5.984.224-7.9.144C6-.72,4.88-1.168,4.256-2.24Zm15.9-4.1L17.7-11.472a9.725,9.725,0,0,1,.128,1.632c0,.976.016,2.848.176,4.32C18.448-1.232,19.968.352,21.728.352c1.28,0,2.288-.976,3.344-3.76l-1.6-1.952c-.3,1.28-.944,3.152-1.7,3.152-1.008,0-1.488-1.584-1.712-3.888-.1-1.152-.112-2.352-.1-3.392A12.945,12.945,0,0,1,20.16-11.44Zm8,.368-2.032.656c1.744,1.984,2.592,5.872,2.848,8.448l2.1-.816C30.9-5.232,29.68-9.232,28.16-11.072Zm8.288.016h7.328v2.192H36.448ZM41.1-3.328H46.32v-1.76H41.1V-7.056h4.7V-12.88H34.544v5.824h4.592v5.664a4.845,4.845,0,0,1-2.3-2.576c.16-.64.288-1.28.384-1.9L35.232-6.1C35.008-3.92,34.3-1.312,32.576.048a7.94,7.94,0,0,1,1.344,1.3,8.051,8.051,0,0,0,2.192-3.136c1.664,2.448,4.144,3.024,7.36,3.024h3.392a6.986,6.986,0,0,1,.656-1.84c-.88.016-3.248.032-3.936.016A15.337,15.337,0,0,1,41.1-.768Zm21.728-2.3a6.093,6.093,0,0,0-6.464-6.24,7.109,7.109,0,0,0-7.344,6.848c0,2.7,1.472,4.656,3.248,4.656,1.744,0,3.12-1.984,4.08-5.216a32.357,32.357,0,0,0,.96-4.336A3.955,3.955,0,0,1,60.672-5.7a4.342,4.342,0,0,1-3.648,4.288,12.306,12.306,0,0,1-1.488.256l1.2,1.9C60.768.128,62.832-2.256,62.832-5.632Zm-11.76.4a5.036,5.036,0,0,1,4.064-4.64A24.017,24.017,0,0,1,54.288-6c-.656,2.16-1.28,3.168-1.952,3.168C51.712-2.832,51.072-3.616,51.072-5.232Zm26.064-8.1A12.048,12.048,0,0,1,73.008-10a6.287,6.287,0,0,1,1.344,1.344,16.291,16.291,0,0,0,4.592-3.936Zm.32,4.4a12.969,12.969,0,0,1-4.224,3.536A8.008,8.008,0,0,1,74.56-4.064a17.064,17.064,0,0,0,4.64-4.16Zm-9.3,1.52v-3.44h1.856v3.44Zm5.248,1.76v-1.76H71.872v-3.44H73.2v-1.776H64.832v1.776H66.4v3.44H64.544v1.76h1.84A8.667,8.667,0,0,1,64.352.208,7.263,7.263,0,0,1,65.744,1.52c1.888-1.968,2.32-4.56,2.4-7.168h1.872v7.04h1.856v-7.04Zm4.32.944A11.44,11.44,0,0,1,72.416-.176a7.126,7.126,0,0,1,1.328,1.552A14.305,14.305,0,0,0,79.536-4ZM-126.4,17.408a1.236,1.236,0,0,0,1.28-1.344,1.214,1.214,0,0,0-1.28-1.232.656.656,0,0,0-.176.016,2.473,2.473,0,0,1,1.568-2.272l-.544-1.04a3.971,3.971,0,0,0-2.4,3.7C-127.952,16.608-127.408,17.408-126.4,17.408Zm4,0a1.244,1.244,0,0,0,1.28-1.344,1.214,1.214,0,0,0-1.28-1.232.656.656,0,0,0-.176.016,2.473,2.473,0,0,1,1.568-2.272l-.544-1.04a3.971,3.971,0,0,0-2.4,3.7C-123.952,16.608-123.408,17.408-122.4,17.408Zm8.176,1.888h-.816V17.52h.816Zm-2.992-1.776h.8V19.3h-.8Zm2.3-4.192v.88h-1.6v-.88Zm4.192-2.768a12.444,12.444,0,0,1-2.592,5.552l.048.064h-1.616v-.752h1.616v-2.1h1.072V11.792h-1.072V10.464h-1.648v1.328h-1.6V10.464H-118.1v1.328h-1.088v1.536h1.088v2.1h1.52v.752h-2.08v4.48h2.032v.752h-2.56v1.584h2.56v2.384h1.808V22.992h2.464V21.408h-2.464v-.752h2.064v-3.7c.192.352.384.7.48.912a9.971,9.971,0,0,0,.7-.88v8.4h1.744V13.664a24.794,24.794,0,0,0,.864-2.672Zm4.224,12.88a.363.363,0,0,1-.288-.112.356.356,0,0,1-.112-.3V17.872c.928-.784,1.888-1.68,2.752-2.576l-1.392-1.5a20.2,20.2,0,0,1-1.36,1.872V10.736h-1.744V23.088c0,1.136.1,1.472.4,1.776a1.7,1.7,0,0,0,1.232.448h1.056a1.974,1.974,0,0,0,1.056-.288,1.363,1.363,0,0,0,.576-.912A13.08,13.08,0,0,0-104.1,21.9a4.082,4.082,0,0,1-1.408-.8,16.3,16.3,0,0,1-.064,1.824.77.77,0,0,1-.176.432.532.532,0,0,1-.32.08Zm17.568-5.072a6.093,6.093,0,0,0-6.464-6.24,7.109,7.109,0,0,0-7.344,6.848c0,2.7,1.472,4.656,3.248,4.656,1.744,0,3.12-1.984,4.08-5.216a32.357,32.357,0,0,0,.96-4.336,3.955,3.955,0,0,1,3.36,4.224,4.342,4.342,0,0,1-3.648,4.288,12.306,12.306,0,0,1-1.488.256l1.2,1.9C-90.992,24.128-88.928,21.744-88.928,18.368Zm-11.76.4a5.036,5.036,0,0,1,4.064-4.64A24.017,24.017,0,0,1-97.472,18c-.656,2.16-1.28,3.168-1.952,3.168C-100.048,21.168-100.688,20.384-100.688,18.768Zm26.064-8.1A12.048,12.048,0,0,1-78.752,14a6.287,6.287,0,0,1,1.344,1.344,16.291,16.291,0,0,0,4.592-3.936Zm.32,4.4a12.969,12.969,0,0,1-4.224,3.536A8.008,8.008,0,0,1-77.2,19.936a17.064,17.064,0,0,0,4.64-4.16Zm-9.3,1.52v-3.44h1.856v3.44Zm5.248,1.76v-1.76h-1.536v-3.44h1.328V11.376h-8.368v1.776h1.568v3.44h-1.856v1.76h1.84a8.667,8.667,0,0,1-2.032,5.856,7.263,7.263,0,0,1,1.392,1.312c1.888-1.968,2.32-4.56,2.4-7.168h1.872v7.04h1.856v-7.04Zm4.32.944a11.44,11.44,0,0,1-5.312,4.528,7.126,7.126,0,0,1,1.328,1.552A14.305,14.305,0,0,0-72.224,20Zm4.064-2.08a3.962,3.962,0,0,0,2.4-3.712c0-1.36-.544-2.16-1.552-2.16a1.253,1.253,0,0,0-1.28,1.344,1.214,1.214,0,0,0,1.28,1.232.656.656,0,0,0,.176-.016,2.494,2.494,0,0,1-1.568,2.288Zm4,0a3.962,3.962,0,0,0,2.4-3.712c0-1.36-.544-2.16-1.552-2.16a1.253,1.253,0,0,0-1.28,1.344,1.214,1.214,0,0,0,1.28,1.232.656.656,0,0,0,.176-.016,2.494,2.494,0,0,1-1.568,2.288Zm10.576-4.4v2.048a42.943,42.943,0,0,0,6.88,0V12.8A32.9,32.9,0,0,1-55.392,12.816Zm1.28,6.832-1.84-.176a9.775,9.775,0,0,0-.272,2.08c0,1.648,1.328,2.624,4.08,2.624a22.659,22.659,0,0,0,4.128-.3l-.032-2.16a18.914,18.914,0,0,1-4.016.416c-1.632,0-2.24-.432-2.24-1.136A5.431,5.431,0,0,1-54.112,19.648Zm-3.744-7.9-2.24-.192c-.016.512-.112,1.12-.16,1.568a44.615,44.615,0,0,0-.672,6.336,20.453,20.453,0,0,0,.624,5.232l1.856-.128c-.016-.224-.032-.48-.032-.656a4.828,4.828,0,0,1,.08-.752c.176-.848.7-2.592,1.152-3.92l-.992-.784c-.224.528-.48,1.088-.72,1.632a7.72,7.72,0,0,1-.064-1.04,42.437,42.437,0,0,1,.768-5.872C-58.192,12.88-57.984,12.08-57.856,11.744Zm15.744,1.2h7.328v2.192h-7.328Zm4.656,7.728h5.216v-1.76h-5.216V16.944h4.7V11.12H-44.016v5.824h4.592v5.664a4.845,4.845,0,0,1-2.3-2.576c.16-.64.288-1.28.384-1.9l-1.984-.224c-.224,2.176-.928,4.784-2.656,6.144a7.94,7.94,0,0,1,1.344,1.3,8.051,8.051,0,0,0,2.192-3.136c1.664,2.448,4.144,3.024,7.36,3.024H-31.7a6.986,6.986,0,0,1,.656-1.84c-.88.016-3.248.032-3.936.016a15.337,15.337,0,0,1-2.48-.176ZM-19.04,23.36c-.5,0-.576-.08-.576-.608V18.864h4.192v-1.84h-6.16V14.432h4.912V12.608h-4.912v-2.16H-23.52v2.16h-2.064c.176-.544.336-1.056.48-1.552l-1.952-.384a13.332,13.332,0,0,1-2.128,5.1,12.6,12.6,0,0,1,1.68.832,11.589,11.589,0,0,0,1.232-2.176h2.752v2.592h-6.128v1.84h3.776c-.24,2.112-.848,3.9-4.032,4.944a6.047,6.047,0,0,1,1.184,1.68c3.68-1.392,4.5-3.776,4.848-6.624h2.336v3.888c0,1.808.416,2.4,2.208,2.4h1.856c1.488,0,2-.688,2.192-3.216a5.282,5.282,0,0,1-1.728-.768c-.064,1.888-.16,2.192-.64,2.192ZM-7.28,11.472l-2.384-.24A16.283,16.283,0,0,1-10,14.608c-.816.08-1.568.128-2.064.144a15.278,15.278,0,0,1-1.712,0l.192,2.176c.5-.08,1.328-.192,1.792-.272.288-.032.8-.1,1.376-.16a24.483,24.483,0,0,1-3.248,7.52l2.08.832A33.72,33.72,0,0,0-8.32,16.272c.464-.032.864-.064,1.12-.064.992,0,1.552.176,1.552,1.456A12.7,12.7,0,0,1-6.3,22.1a1.173,1.173,0,0,1-1.2.688,9.246,9.246,0,0,1-1.952-.336l.336,2.112a10.515,10.515,0,0,0,1.92.224,2.543,2.543,0,0,0,2.624-1.472,15.676,15.676,0,0,0,.912-5.872c0-2.3-1.2-3.056-2.9-3.056-.336,0-.8.032-1.344.064.112-.576.24-1.168.336-1.648C-7.488,12.4-7.376,11.888-7.28,11.472Zm7.12-1.328-1.28.512a18.1,18.1,0,0,1,1.3,2.208L1.12,12.32A21.285,21.285,0,0,0-.16,10.144Zm-1.9.72-1.264.528A17.69,17.69,0,0,1-2.24,13.28l-1.44.624a17.994,17.994,0,0,1,2.688,6l2.032-.928a29.034,29.034,0,0,0-2.608-5.584l.784-.336C-1.088,12.464-1.664,11.456-2.064,10.864Zm13.76,9.52A7.9,7.9,0,0,1,9.52,21.952a6.825,6.825,0,0,1-2.048-1.568Zm1.6-1.568-.336.064H8.88c.208-.256.4-.512.592-.768l-1.68-.336A6.126,6.126,0,0,0,9.12,13.584h1.456v2.832c0,.16-.048.208-.24.208-.176,0-.8,0-1.36-.016A6.294,6.294,0,0,1,9.5,18.272,5.673,5.673,0,0,0,11.76,18c.544-.272.672-.736.672-1.536v-2.88h4.112V11.84H10.416V10.464H8.464V11.84H2.384v1.744h4.96A4.267,4.267,0,0,1,5.12,17.568a6.9,6.9,0,0,1,1.36,1.28A11.158,11.158,0,0,1,2.4,21.12a5.1,5.1,0,0,1,1.2,1.408A15.376,15.376,0,0,0,6.064,21.3,9.627,9.627,0,0,0,7.552,22.72a25.131,25.131,0,0,1-5.616.992,6.266,6.266,0,0,1,.9,1.712,24.562,24.562,0,0,0,6.592-1.568,18.475,18.475,0,0,0,6.48,1.52,8.321,8.321,0,0,1,1.1-1.792,22.775,22.775,0,0,1-5.472-.832,8.82,8.82,0,0,0,2.992-3.1Zm-8.864-4.7A6.716,6.716,0,0,1,2.08,16.8a11.441,11.441,0,0,1,1.312,1.1,9.934,9.934,0,0,0,2.816-3.312Zm8.448.784a17.137,17.137,0,0,1,2.432,3.12L16.9,17.04a18.78,18.78,0,0,0-2.544-2.992Zm17.7-4.224A12.048,12.048,0,0,1,26.448,14a6.287,6.287,0,0,1,1.344,1.344,16.291,16.291,0,0,0,4.592-3.936Zm.32,4.4a12.969,12.969,0,0,1-4.224,3.536A8.008,8.008,0,0,1,28,19.936a17.065,17.065,0,0,0,4.64-4.16Zm-9.3,1.52v-3.44h1.856v3.44Zm5.248,1.76v-1.76H25.312v-3.44H26.64V11.376H18.272v1.776H19.84v3.44H17.984v1.76h1.84a8.667,8.667,0,0,1-2.032,5.856,7.263,7.263,0,0,1,1.392,1.312c1.888-1.968,2.32-4.56,2.4-7.168h1.872v7.04h1.856v-7.04Zm4.32.944a11.44,11.44,0,0,1-5.312,4.528,7.126,7.126,0,0,1,1.328,1.552A14.305,14.305,0,0,0,32.976,20Zm8.208-7.984L36.8,11.28a10.2,10.2,0,0,1,.208,2.16c0,1.376-.16,5.584-.16,7.728,0,2.736,1.7,3.888,4.32,3.888a8.282,8.282,0,0,0,6.944-3.68l-1.456-1.76a6.4,6.4,0,0,1-5.472,3.264,1.934,1.934,0,0,1-2.208-2.144c0-1.984.128-5.568.192-7.3C39.2,12.8,39.28,11.984,39.376,11.312Zm10.72,1.68.208,2.192c1.856-.4,5.12-.752,6.624-.912a6.443,6.443,0,0,0-2.368,4.944c0,3.456,3.168,5.264,6.512,5.488l.752-2.192c-2.7-.144-5.168-1.1-5.168-3.728a4.867,4.867,0,0,1,3.376-4.5,18.106,18.106,0,0,1,3.088-.208L63.1,12.032c-1.12.032-2.88.144-4.528.272-2.928.256-5.568.5-6.9.608C51.36,12.944,50.736,12.976,50.1,12.992Zm20.8-1.68L68.32,11.28a10.205,10.205,0,0,1,.208,2.16c0,1.376-.16,5.584-.16,7.728,0,2.736,1.7,3.888,4.32,3.888a8.282,8.282,0,0,0,6.944-3.68l-1.456-1.76A6.4,6.4,0,0,1,72.7,22.88,1.934,1.934,0,0,1,70.5,20.736c0-1.984.128-5.568.192-7.3C70.72,12.8,70.8,11.984,70.9,11.312ZM85.5,22.192c0-.544.624-.992,1.76-.992a8.886,8.886,0,0,1,1.312.112c.016.288.016.512.016.688,0,.928-.56,1.168-1.408,1.168C86.08,23.168,85.5,22.8,85.5,22.192Zm5.008-11.136h-2.16a6.432,6.432,0,0,1,.1,1.1v.752h-.624a29.871,29.871,0,0,1-3.952-.352l.048,1.824a36.781,36.781,0,0,0,3.92.288h.592c-.016.544-.016,1.12-.016,1.648h-.768a28.272,28.272,0,0,1-3.856-.3l.016,1.888c1.056.128,2.88.208,3.808.208h.832c.016.48.032.992.064,1.488-.32-.032-.656-.048-.992-.048-2.464,0-3.952,1.136-3.952,2.752,0,1.7,1.344,2.672,3.9,2.672,2.112,0,3.152-1.056,3.152-2.416,0-.176,0-.368-.016-.592a12.264,12.264,0,0,1,3.232,2.224L94.992,22.4a12.527,12.527,0,0,0-4.48-2.416c-.048-.64-.08-1.3-.112-1.9,1.536-.048,2.784-.16,4.224-.32l.016-1.888c-1.3.176-2.656.3-4.272.384V14.608c1.552-.08,3.008-.224,4.064-.352l.016-1.84a33.534,33.534,0,0,1-4.048.432c0-.256,0-.5.016-.656A10.8,10.8,0,0,1,90.512,11.056Zm17.408,7.712c0,2.5-2.56,3.808-6.528,4.256l1.152,1.984c4.448-.608,7.616-2.736,7.616-6.16,0-2.512-1.776-3.952-4.3-3.952a21.1,21.1,0,0,0-4.832.736,16.105,16.105,0,0,1-1.76.272l.608,2.288c.464-.176,1.088-.432,1.552-.56a14.27,14.27,0,0,1,4.16-.784C107.088,16.848,107.92,17.712,107.92,18.768Zm-6.288-7.68-.32,1.92c1.84.32,5.312.64,7.184.768l.32-1.968A47.508,47.508,0,0,1,101.632,11.088Zm14,5.536a1.3,1.3,0,1,0,1.3,1.3A1.291,1.291,0,0,0,115.632,16.624Zm5.328,0a1.3,1.3,0,1,0,1.3,1.3A1.291,1.291,0,0,0,120.96,16.624Zm5.328,0a1.3,1.3,0,1,0,1.3,1.3A1.291,1.291,0,0,0,126.288,16.624Z" transform="translate(207 300)" fill="#3c3c3b"/>
  <path id="Path_435" data-name="Path 435" d="M-154.14-13.82h9.16v2.74h-9.16Zm5.82,9.66h6.52v-2.2h-6.52V-8.82h5.88V-16.1h-14.08v7.28h5.74v7.08a6.057,6.057,0,0,1-2.88-3.22c.2-.8.36-1.6.48-2.38l-2.48-.28c-.28,2.72-1.16,5.98-3.32,7.68a9.925,9.925,0,0,1,1.68,1.62,10.064,10.064,0,0,0,2.74-3.92c2.08,3.06,5.18,3.78,9.2,3.78h4.24a8.732,8.732,0,0,1,.82-2.3c-1.1.02-4.06.04-4.92.02a19.171,19.171,0,0,1-3.1-.22ZM-125.3-.8c-.62,0-.72-.1-.72-.76V-6.42h5.24v-2.3h-7.7v-3.24h6.14v-2.28h-6.14v-2.7h-2.42v2.7h-2.58c.22-.68.42-1.32.6-1.94l-2.44-.48a16.665,16.665,0,0,1-2.66,6.38,15.745,15.745,0,0,1,2.1,1.04,14.487,14.487,0,0,0,1.54-2.72h3.44v3.24h-7.66v2.3h4.72c-.3,2.64-1.06,4.88-5.04,6.18a7.559,7.559,0,0,1,1.48,2.1c4.6-1.74,5.62-4.72,6.06-8.28h2.92v4.86c0,2.26.52,3,2.76,3h2.32c1.86,0,2.5-.86,2.74-4.02a6.6,6.6,0,0,1-2.16-.96c-.08,2.36-.2,2.74-.8,2.74Zm14.7-14.86-2.98-.3a20.354,20.354,0,0,1-.42,4.22c-1.02.1-1.96.16-2.58.18a19.1,19.1,0,0,1-2.14,0l.24,2.72c.62-.1,1.66-.24,2.24-.34.36-.04,1-.12,1.72-.2-.74,2.74-2.12,6.78-4.06,9.4l2.6,1.04c1.84-2.94,3.32-7.68,4.08-10.72.58-.04,1.08-.08,1.4-.08,1.24,0,1.94.22,1.94,1.82a15.873,15.873,0,0,1-.82,5.54,1.467,1.467,0,0,1-1.5.86,11.557,11.557,0,0,1-2.44-.42L-112.9.7a13.143,13.143,0,0,0,2.4.28,3.179,3.179,0,0,0,3.28-1.84c.86-1.74,1.14-4.98,1.14-7.34,0-2.88-1.5-3.82-3.62-3.82-.42,0-1,.04-1.68.08.14-.72.3-1.46.42-2.06C-110.86-14.5-110.72-15.14-110.6-15.66Zm8.9-1.66-1.6.64a22.622,22.622,0,0,1,1.62,2.76l1.58-.68A26.605,26.605,0,0,0-101.7-17.32Zm-2.38.9-1.58.66a22.113,22.113,0,0,1,1.36,2.36l-1.8.78a22.492,22.492,0,0,1,3.36,7.5l2.54-1.16a36.293,36.293,0,0,0-3.26-6.98l.98-.42C-102.86-14.42-103.58-15.68-104.08-16.42Zm19.6-.06-1.58.66a23.2,23.2,0,0,1,1.38,2.42c-.36.08-.78.18-1.14.24-.72.14-2.24.38-3.92.66-.18-.9-.3-1.58-.34-1.86-.1-.46-.16-1.14-.22-1.54l-2.82.46c.14.46.28.94.4,1.52.06.32.2.98.36,1.82-1.72.28-3.26.5-3.96.58-.62.06-1.22.1-1.86.14l.54,2.76c.68-.18,1.2-.3,1.84-.42.62-.1,2.16-.36,3.92-.64.2,1.02.4,2.12.62,3.2-2.04.32-3.9.62-4.82.76-.64.08-1.54.2-2.08.22l.56,2.66c.46-.12,1.14-.24,2-.4s2.74-.48,4.8-.82c.32,1.68.56,3.06.66,3.62.12.6.18,1.28.28,2.04l2.88-.52c-.18-.64-.38-1.36-.52-1.96-.12-.62-.4-1.98-.72-3.6,1.76-.28,3.38-.54,4.34-.7.76-.12,1.58-.26,2.12-.3l-.54-2.64c-.52.14-1.26.32-2.04.48-.9.18-2.54.44-4.34.74-.2-1.08-.42-2.18-.62-3.2,1.66-.26,3.18-.5,4-.62.6-.08,1.4-.2,1.84-.24l-.42-2.34,1-.44C-83.26-14.48-83.98-15.74-84.48-16.48Zm2.36-.9-1.58.66a21.205,21.205,0,0,1,1.62,2.76l1.58-.7A23.667,23.667,0,0,0-82.12-17.38Zm17.6,7.84-1.94-.94a4.527,4.527,0,0,1-1.48.22h-5.12c-.54,0-1.46-.06-1.98-.12v2.64c.58-.04,1.36-.1,2-.1h5.4c-.06,1.12-.5,3.96-.78,5.66H-74.9a19.213,19.213,0,0,1-1.98-.1V.32c.76-.04,1.26-.06,1.98-.06h10.52c.54,0,1.52.04,1.92.06V-2.26c-.52.06-1.44.08-1.96.08H-65.7c.3-1.9.82-5.34.98-6.52A5.575,5.575,0,0,1-64.52-9.54Zm14.92-2.34-2.38.78a33.312,33.312,0,0,1,1.62,4.44l2.4-.84C-48.24-8.42-49.22-11.02-49.6-11.88Zm7.38,1.46-2.8-.9a13.679,13.679,0,0,1-2.56,6.86A13.457,13.457,0,0,1-54.22-.28l2.1,2.14a15.619,15.619,0,0,0,6.7-4.96A16.126,16.126,0,0,0-42.7-8.96C-42.58-9.36-42.46-9.78-42.22-10.42Zm-12.02-.4-2.4.86a40.4,40.4,0,0,1,1.82,4.62l2.44-.92C-52.78-7.38-53.74-9.8-54.24-10.82Zm21.14-5.12-2.5,1.02c.9,2.12,1.86,4.26,2.78,5.96-1.92,1.42-3.32,3.08-3.32,5.28,0,3.44,3.02,4.54,7,4.54a37.143,37.143,0,0,0,6.42-.5l.04-2.88a30.876,30.876,0,0,1-6.54.74c-2.78,0-4.16-.76-4.16-2.2,0-1.4,1.12-2.54,2.78-3.64a59.2,59.2,0,0,1,5.58-2.96c.74-.38,1.38-.72,1.98-1.08l-1.38-2.32a12.5,12.5,0,0,1-1.86,1.22c-.94.54-2.68,1.4-4.32,2.36A47.507,47.507,0,0,1-33.1-15.94Zm18.24,2.32H-.96v-2.3h-16.3v5.74c0,3.16-.16,7.64-1.98,10.72a8.357,8.357,0,0,1,2.16,1.2c1.92-3.3,2.22-8.5,2.22-11.92ZM-7-1.08V-6.56h5.14V-8.82H-7v-4H-9.4v4h-4.78v2.26H-9.4v5.48h-6.12V1.14H-.58V-1.08ZM16.18-9.52h-6.1V-12.1h6.1Zm0,4.64h-6.1V-7.5h6.1ZM18.6-14.3H13.94c.22-.7.46-1.48.68-2.3l-2.76-.26a20.987,20.987,0,0,1-.46,2.56H7.78V-2.68H18.6Zm-12.24.84a16.015,16.015,0,0,0-3.34-3.02L1.26-15.04a15.135,15.135,0,0,1,3.22,3.16Zm-.5,4.28H1.24V-7h2.3v4.22A26.266,26.266,0,0,1,.8-.94L1.96,1.54C3.06.7,3.94-.08,4.82-.86,6.12.7,7.76,1.26,10.22,1.36c2.38.1,6.4.06,8.8-.06a12.456,12.456,0,0,1,.74-2.4c-2.66.2-7.16.26-9.5.16-2.08-.08-3.58-.62-4.4-1.96ZM30.44-14.2c.12.34.24.76.4,1.22a41.867,41.867,0,0,1-7.68-.28l.04,2.56a53.631,53.631,0,0,0,8.54.08A26.28,26.28,0,0,0,33.62-7c-.62-.04-1.94-.16-2.92-.24l-.2,2.12c1.68.14,4.2.4,5.32.62l1.24-1.8a12.61,12.61,0,0,1-1.08-1.34A21.906,21.906,0,0,1,34.2-10.9a26.6,26.6,0,0,0,3.56-.72l-.32-2.52a30.118,30.118,0,0,1-4.1.92,23.389,23.389,0,0,1-.84-3.14l-2.7.32C30.06-15.38,30.28-14.66,30.44-14.2ZM27.16-6.44l-2.5-.58A8.186,8.186,0,0,0,23.6-3.3c0,2.88,2.58,4.46,6.66,4.48A28.215,28.215,0,0,0,35.64.7l.14-2.52a27.622,27.622,0,0,1-5.36.48c-2.74,0-4.24-.72-4.24-2.4A4.818,4.818,0,0,1,27.16-6.44Zm18.58-7.98c0,.22-.04.78-.08,1.54-.86.12-1.74.22-2.32.26a17.183,17.183,0,0,1-1.74.02l.26,2.56c1.12-.16,2.66-.36,3.64-.48-.02.48-.06.96-.1,1.42-1.14,1.68-3.14,4.32-4.28,5.72L42.7-1.2c.7-.94,1.68-2.4,2.52-3.66-.02,1.68-.04,2.84-.08,4.4,0,.32-.02,1.02-.06,1.48h2.76c-.06-.46-.12-1.18-.14-1.54-.12-1.88-.12-3.56-.12-5.2,0-.52.02-1.06.04-1.62,1.64-1.8,3.8-3.64,5.28-3.64.84,0,1.36.5,1.36,1.48,0,1.82-.72,4.76-.72,6.92,0,1.94,1,3.02,2.5,3.02A5.331,5.331,0,0,0,59.8-1.04l-.32-2.82a4.149,4.149,0,0,1-2.6,1.44c-.5,0-.76-.38-.76-.9,0-2.06.66-5,.66-7.08a2.8,2.8,0,0,0-3.14-2.96c-1.94,0-4.24,1.62-5.82,3,.02-.16.02-.3.04-.44.34-.52.74-1.18,1.02-1.54l-.74-.96c.14-1.24.32-2.26.44-2.82l-2.92-.1A11.043,11.043,0,0,1,45.74-14.42Zm15.38.66.26,2.74c2.32-.5,6.4-.94,8.28-1.14A8.054,8.054,0,0,0,66.7-5.98C66.7-1.66,70.66.6,74.84.88l.94-2.74c-3.38-.18-6.46-1.38-6.46-4.66a6.084,6.084,0,0,1,4.22-5.62,22.632,22.632,0,0,1,3.86-.26l-.02-2.56c-1.4.04-3.6.18-5.66.34-3.66.32-6.96.62-8.62.76C62.7-13.82,61.92-13.78,61.12-13.76Zm26-2.1L83.9-15.9a12.756,12.756,0,0,1,.26,2.7c0,1.72-.2,6.98-.2,9.66,0,3.42,2.12,4.86,5.4,4.86a10.353,10.353,0,0,0,8.68-4.6l-1.82-2.2C94.78-3.3,92.68-1.4,89.38-1.4c-1.56,0-2.76-.66-2.76-2.68,0-2.48.16-6.96.24-9.12C86.9-14,87-15.02,87.12-15.86Zm18.26,13.6c0-.68.78-1.24,2.2-1.24a11.108,11.108,0,0,1,1.64.14c.02.36.02.64.02.86,0,1.16-.7,1.46-1.76,1.46C106.1-1.04,105.38-1.5,105.38-2.26Zm6.26-13.92h-2.7a8.04,8.04,0,0,1,.12,1.38v.94h-.78a37.339,37.339,0,0,1-4.94-.44l.06,2.28a45.976,45.976,0,0,0,4.9.36h.74c-.02.68-.02,1.4-.02,2.06h-.96a35.341,35.341,0,0,1-4.82-.38l.02,2.36c1.32.16,3.6.26,4.76.26h1.04c.02.6.04,1.24.08,1.86-.4-.04-.82-.06-1.24-.06-3.08,0-4.94,1.42-4.94,3.44,0,2.12,1.68,3.34,4.88,3.34,2.64,0,3.94-1.32,3.94-3.02,0-.22,0-.46-.02-.74A15.33,15.33,0,0,1,115.8.24L117.24-2a15.658,15.658,0,0,0-5.6-3.02c-.06-.8-.1-1.62-.14-2.38,1.92-.06,3.48-.2,5.28-.4l.02-2.36c-1.62.22-3.32.38-5.34.48v-2.06c1.94-.1,3.76-.28,5.08-.44l.02-2.3a41.917,41.917,0,0,1-5.06.54c0-.32,0-.62.02-.82A13.507,13.507,0,0,1,111.64-16.18ZM133.4-6.54c0,3.12-3.2,4.76-8.16,5.32l1.44,2.48c5.56-.76,9.52-3.42,9.52-7.7,0-3.14-2.22-4.94-5.38-4.94a26.372,26.372,0,0,0-6.04.92,20.132,20.132,0,0,1-2.2.34l.76,2.86c.58-.22,1.36-.54,1.94-.7a17.837,17.837,0,0,1,5.2-.98C132.36-8.94,133.4-7.86,133.4-6.54Zm-7.86-9.6-.4,2.4c2.3.4,6.64.8,8.98.96l.4-2.46A59.384,59.384,0,0,1,125.54-16.14Zm23.14,11h2.04l.54-6.84.1-2.98h-3.32l.1,2.98ZM149.7.18a1.7,1.7,0,0,0,1.76-1.76,1.707,1.707,0,0,0-1.76-1.78,1.707,1.707,0,0,0-1.76,1.78A1.691,1.691,0,0,0,149.7.18Z" transform="translate(207 266)" fill="#3c3c3b"/>
  <path id="Path_434" data-name="Path 434" d="M6.92-15.76H3.96a16.892,16.892,0,0,1,.16,2.08v10.9c0,1.74,1,2.68,2.74,3a22.263,22.263,0,0,0,3.36.22,61.42,61.42,0,0,0,7.14-.4V-2.9a34.083,34.083,0,0,1-6.98.7,18.136,18.136,0,0,1-2.3-.12c-.9-.18-1.3-.4-1.3-1.26v-3.7a79.389,79.389,0,0,0,7.9-2.46c.68-.26,1.58-.64,2.34-.96l-1.08-2.52a16.9,16.9,0,0,1-2.18,1.08A56.465,56.465,0,0,1,6.78-9.9v-3.78A15.14,15.14,0,0,1,6.92-15.76Zm14.92,6.5v3.14c.74-.06,2.08-.1,3.22-.1H35.8c.84,0,1.86.08,2.34.1V-9.26c-.52.04-1.4.12-2.34.12H25.06C24.02-9.14,22.56-9.2,21.84-9.26ZM50.06-.44,51.74.94a4.273,4.273,0,0,1,.86-.6,22.021,22.021,0,0,0,6.78-5.46l-1.54-2.2A12.665,12.665,0,0,1,52.9-3.1V-13.56a10.156,10.156,0,0,1,.14-1.74H50.06a8.866,8.866,0,0,1,.16,1.72V-1.92A7.611,7.611,0,0,1,50.06-.44ZM40.8-.74,43.24.88A11.727,11.727,0,0,0,46.8-4.86a44.128,44.128,0,0,0,.6-8.6,13.173,13.173,0,0,1,.14-1.82H44.6a7.59,7.59,0,0,1,.18,1.84c0,2.42-.02,6.2-.58,7.92A9.435,9.435,0,0,1,40.8-.74ZM60.76-9l1.18,2.54c.86-.38,2.12-1.06,3.56-1.78.18.4.36.82.54,1.24a61.985,61.985,0,0,1,2.68,8.32L71.46.6c-.66-2.24-2.2-6.52-3.14-8.7-.18-.4-.36-.82-.56-1.24a16.4,16.4,0,0,1,5.88-1.8c1.5,0,2.4.82,2.4,1.84,0,1.44-1.1,2.26-2.6,2.26a7.555,7.555,0,0,1-2.78-.68L70.6-5.2a9.841,9.841,0,0,0,3.08.56c3.06,0,4.98-1.78,4.98-4.58,0-2.32-1.86-4.2-4.96-4.2a10.205,10.205,0,0,0-2.88.48L72.4-14.1a30.922,30.922,0,0,0-2.9-2.56l-1.84,1.28a32.708,32.708,0,0,1,2.76,2.56c-1.16.38-2.38.88-3.6,1.42-.32-.68-.64-1.32-.94-1.9-.22-.38-.62-1.2-.8-1.56l-2.6,1a16.906,16.906,0,0,1,1.18,1.76c.3.52.6,1.1.88,1.7-.6.26-1.22.52-1.8.76A16.658,16.658,0,0,1,60.76-9ZM86.92-5.88H85.9V-8.1h1.02ZM83.18-8.1h1v2.22h-1Zm2.88-5.24v1.1h-2v-1.1ZM91.3-16.8a15.555,15.555,0,0,1-3.24,6.94l.06.08H86.1v-.94h2.02v-2.62h1.34v-1.92H88.12v-1.66H86.06v1.66h-2v-1.66H82.08v1.66H80.72v1.92h1.36v2.62h1.9v.94h-2.6v5.6h2.54v.94h-3.2v1.98h3.2V1.72h2.26V-1.26h3.08V-3.24H86.18v-.94h2.58V-8.8c.24.44.48.88.6,1.14a12.462,12.462,0,0,0,.88-1.1V1.74h2.18V-12.92a30.992,30.992,0,0,0,1.08-3.34ZM96.58-.7a.454.454,0,0,1-.36-.14.445.445,0,0,1-.14-.38V-7.66c1.16-.98,2.36-2.1,3.44-3.22l-1.74-1.88a25.248,25.248,0,0,1-1.7,2.34v-6.16H93.9V-1.14c0,1.42.12,1.84.5,2.22a2.128,2.128,0,0,0,1.54.56h1.32a2.468,2.468,0,0,0,1.32-.36A1.7,1.7,0,0,0,99.3.14a16.351,16.351,0,0,0,.28-2.76,5.1,5.1,0,0,1-1.76-1,20.374,20.374,0,0,1-.08,2.28.962.962,0,0,1-.22.54.665.665,0,0,1-.4.1Zm13.14-15.34-2.64-.22a11.119,11.119,0,0,1-.4,2.3h-.96a26.023,26.023,0,0,1-3.52-.24v2.34c1.1.08,2.56.12,3.38.12h.26a19.628,19.628,0,0,1-4.42,5.52l2.14,1.6a23.028,23.028,0,0,1,1.86-2.2,4.872,4.872,0,0,1,3.12-1.38,1.539,1.539,0,0,1,1.4.68c-2.28,1.18-4.68,2.78-4.68,5.34,0,2.58,2.32,3.34,5.46,3.34a50.031,50.031,0,0,0,5.66-.34l.08-2.58a32.718,32.718,0,0,1-5.68.56c-1.96,0-2.9-.3-2.9-1.4,0-1,.8-1.78,2.3-2.64-.02.88-.04,1.84-.1,2.44h2.4c-.02-.92-.06-2.4-.08-3.52,1.22-.56,2.36-1,3.26-1.36.68-.26,1.74-.66,2.38-.84l-1-2.32c-.74.38-1.44.7-2.22,1.04-.82.36-1.66.7-2.7,1.18a2.708,2.708,0,0,0-2.66-1.54,6.777,6.777,0,0,0-2.26.4,13.964,13.964,0,0,0,1.14-2.04,59.578,59.578,0,0,0,6.52-.5l.02-2.32a50.633,50.633,0,0,1-5.66.58A19.133,19.133,0,0,0,109.72-16.04ZM135.56-2.28a6.235,6.235,0,0,1-1.54,1.08,5.957,5.957,0,0,1-1.66-1.08ZM131.9-5.84h4v.68h-4Zm0-1.62h4v.64h-4Zm-4.42-.9a11.232,11.232,0,0,1-3.12,3.1c.14-1.4.2-2.76.22-4a16.978,16.978,0,0,1,1.32,1.52,11.524,11.524,0,0,0,3.22-3.16l-1.82-.6a8.794,8.794,0,0,1-2.7,2.24v-2.42h6.3a9.583,9.583,0,0,1-2.52,3.16,6.794,6.794,0,0,1,.4.62Zm8.16-6.22v1.08H124.6v-1.08ZM137.1-3.62l-.36.06h-3.3c.12-.14.22-.28.32-.42l-.56-.16h4.7V-8.48h-6.78a6.914,6.914,0,0,0,.44-.62h7.06v-1.48h-6.16c.1-.18.18-.34.26-.52l-1.7-.58h7.02v-4.7H122.2v6.02c0,3.2-.12,7.8-1.78,10.94a9.708,9.708,0,0,1,2.16,1.16,19.691,19.691,0,0,0,1.72-6.4,12.9,12.9,0,0,1,.74,1.6c.24-.16.5-.36.76-.56V1.72h2.08v-7.4a12.487,12.487,0,0,0,1.18-1.64c.16.28.28.56.36.72a7,7,0,0,0,.56-.54v3h1.68a10,10,0,0,1-3.54,2.32,14.378,14.378,0,0,1,1.4,1.28,12.989,12.989,0,0,0,1.52-.88,8.446,8.446,0,0,0,1.12.94,17.673,17.673,0,0,1-3.4.64,7.817,7.817,0,0,1,.9,1.58A19.137,19.137,0,0,0,134.12.6a16.817,16.817,0,0,0,4.04,1.02A8.339,8.339,0,0,1,139.28,0a21.054,21.054,0,0,1-3.2-.5,7.357,7.357,0,0,0,2.24-2.64Zm17.58-10.8-2.34-2.06a13.9,13.9,0,0,1-1.54,1.7c-1.34,1.3-4.08,3.52-5.66,4.8-2,1.68-2.16,2.74-.16,4.44,1.82,1.56,4.76,4.06,5.98,5.32.6.6,1.18,1.24,1.74,1.86L155.04-.5C153-2.48,149.2-5.48,147.7-6.74c-1.08-.94-1.1-1.16-.04-2.08,1.34-1.14,3.98-3.18,5.28-4.22C153.4-13.42,154.06-13.94,154.68-14.42Zm11.92-1.52-2.5,1.02c.9,2.12,1.86,4.26,2.78,5.96-1.92,1.42-3.32,3.08-3.32,5.28,0,3.44,3.02,4.54,7,4.54a37.143,37.143,0,0,0,6.42-.5l.04-2.88a30.876,30.876,0,0,1-6.54.74c-2.78,0-4.16-.76-4.16-2.2,0-1.4,1.12-2.54,2.78-3.64a59.2,59.2,0,0,1,5.58-2.96c.74-.38,1.38-.72,1.98-1.08l-1.38-2.32a12.5,12.5,0,0,1-1.86,1.22c-.94.54-2.68,1.4-4.32,2.36A47.506,47.506,0,0,1,166.6-15.94Z" transform="translate(117 23)" fill="#458138"/>
</svg>
