<svg id="Component_13_1" data-name="Component 13 – 1" xmlns="http://www.w3.org/2000/svg" width="380" height="331" viewBox="0 0 380 331">
  <rect id="Rectangle_90" data-name="Rectangle 90" width="380" height="331" fill="none"/>
  <path id="Path_439" data-name="Path 439" d="M5.376-2.4v-.72h5.168v.72Zm5.168-2.768v.736H5.376v-.736Zm1.84-1.424h-8.8V1.392H5.376V-1.04h5.168v.656c0,.208-.08.272-.3.288C10-.1,9.1-.1,8.384-.128a5.525,5.525,0,0,1,.528,1.52A8.039,8.039,0,0,0,11.6,1.136c.608-.256.784-.656.784-1.5Zm-7.264-4.9h5.536v.656H6.848v2H5.12Zm5.536,2.656H8.48v-.832h2.176Zm1.92,0v-4.1H3.3v4.1H1.1V-5.44H2.8V-7.216H13.12V-5.44h1.792V-8.832ZM23.584-2.08c0-.608.608-.992,1.52-.992a4.94,4.94,0,0,1,1.28.176v.288c0,.944-.336,1.456-1.312,1.456C24.224-1.152,23.584-1.424,23.584-2.08Zm4.752-10.448H26.048a6.794,6.794,0,0,1,.112,1.056c0,.336.016.992.016,1.776-.368.016-.752.016-1.12.016a26.66,26.66,0,0,1-2.8-.144v1.9c.944.064,1.856.1,2.8.1.368,0,.752,0,1.136-.016.016,1.136.08,2.3.112,3.3a7.118,7.118,0,0,0-1.04-.064c-2.176,0-3.552,1.12-3.552,2.736,0,1.68,1.376,2.608,3.584,2.608,2.16,0,3.024-1.088,3.12-2.624A16.783,16.783,0,0,1,30.368-.272l1.1-1.68a10.472,10.472,0,0,0-3.1-2.064c-.064-1.088-.144-2.368-.176-3.92.88-.064,1.712-.16,2.48-.272v-2a21.922,21.922,0,0,1-2.48.368c.016-.7.032-1.3.048-1.648A10.019,10.019,0,0,1,28.336-12.528Zm-7.808.176-2.208-.192a15.262,15.262,0,0,1-.16,1.568A50.671,50.671,0,0,0,17.5-4.3a18.793,18.793,0,0,0,.64,5.12L19.952.672c-.016-.224-.032-.5-.032-.656A4.465,4.465,0,0,1,20-.736c.192-.864.7-2.5,1.152-3.808l-.976-.8c-.24.544-.512,1.088-.72,1.648a7.563,7.563,0,0,1-.064-1.04,42.711,42.711,0,0,1,.768-6.192A10.389,10.389,0,0,1,20.528-12.352Zm22.576,4H37.072v-.672H43.1Zm0,1.76H37.072v-.672H43.1Zm0,1.776H37.072v-.72H43.1Zm-4.128-5.328H35.232v6.432H45.04v-6.432H40.96v-.672h5.824V-12.4H40.96v-1.152H38.976V-12.4h-5.6v1.584h5.6ZM47.12-1.52V-3.088H32.9V-1.52h4.352A16.662,16.662,0,0,1,32.832.112a14.027,14.027,0,0,1,1.28,1.312,19.635,19.635,0,0,0,4.832-1.9L37.456-1.52h4.736L41.1-.48A44.392,44.392,0,0,1,45.68,1.408L47.312.144C46.224-.32,44.448-.976,42.848-1.52Zm3.168-5.248.832,2.08c1.36-.576,4.56-1.9,6.416-1.9A2.051,2.051,0,0,1,59.824-4.56c0,2.176-2.688,3.152-6.352,3.248L54.32.656c5.088-.32,7.632-2.288,7.632-5.184,0-2.416-1.7-3.92-4.224-3.92A22.54,22.54,0,0,0,51.984-7.2C51.5-7.056,50.768-6.864,50.288-6.768Zm25.28-.7H70.64v-.816h4.928Zm0,2.048H70.64v-.8h4.928Zm0,2.08H70.64V-4.16h4.928Zm-6.72-6.272v7.6h8.608v-7.6H72.832c.064-.272.112-.576.176-.88h6.1V-12.24H73.3c.08-.432.128-.864.192-1.3l-2.24-.064c-.016.416-.032.88-.064,1.36H64.928V-10.5h6.08c-.032.3-.08.608-.128.88ZM79.264-1.088H67.552V-9.12H65.664V1.408h1.888V.688H79.264ZM90.48-9.264l-1.28.528A27.4,27.4,0,0,1,90.512-6.32l1.312-.56C91.52-7.456,90.9-8.656,90.48-9.264Zm1.936-.752L91.1-9.472A26.821,26.821,0,0,1,92.48-7.1l1.3-.544C93.456-8.24,92.832-9.424,92.416-10.016Zm-.928-1.52-1.872-1.648a10.852,10.852,0,0,1-1.216,1.36c-1.088,1.04-3.28,2.816-4.528,3.84-1.616,1.344-1.728,2.192-.144,3.552C85.2-3.184,87.536-1.184,88.512-.176c.464.48.96.992,1.408,1.488L91.76-.4C90.128-1.984,87.1-4.384,85.9-5.392c-.88-.752-.9-.928-.032-1.664,1.056-.912,3.184-2.544,4.208-3.376C90.464-10.736,90.992-11.152,91.488-11.536Zm11.68.352v2.048a42.943,42.943,0,0,0,6.88,0V-11.2A32.9,32.9,0,0,1,103.168-11.184Zm1.28,6.832-1.84-.176a9.775,9.775,0,0,0-.272,2.08c0,1.648,1.328,2.624,4.08,2.624a22.659,22.659,0,0,0,4.128-.3l-.032-2.16a18.914,18.914,0,0,1-4.016.416c-1.632,0-2.24-.432-2.24-1.136A5.431,5.431,0,0,1,104.448-4.352Zm-3.744-7.9-2.24-.192c-.016.512-.112,1.12-.16,1.568a44.615,44.615,0,0,0-.672,6.336A20.453,20.453,0,0,0,98.256.688L100.112.56C100.1.336,100.08.08,100.08-.1a4.828,4.828,0,0,1,.08-.752c.176-.848.7-2.592,1.152-3.92l-.992-.784c-.224.528-.48,1.088-.72,1.632a7.72,7.72,0,0,1-.064-1.04,42.437,42.437,0,0,1,.768-5.872C100.368-11.12,100.576-11.92,100.7-12.256Zm15.12-1.248a17,17,0,0,1-3.632,6A12.052,12.052,0,0,1,113.2-5.536a14.7,14.7,0,0,0,1.088-1.28V1.36H116.1V-9.632a25.5,25.5,0,0,0,1.536-3.3Zm7.232,8.736V-6.224h2.256v1.456Zm-4.064,0V-6.224h2.192v1.456Zm2.192-4.544v1.44h-2.192v-1.44Zm4.128,0v1.44h-2.256v-1.44Zm-2.256-1.728v-2.448h-1.872v2.448h-3.968v8.8h1.776v-.8h2.192V1.376h1.872V-3.04h2.256v.64h1.856v-8.64Zm17.968-1.824-1.2.368a18.684,18.684,0,0,1,.928,2.336l1.2-.4C141.728-11.216,141.312-12.208,141.024-12.864Zm1.712-.608-1.152.4a21.041,21.041,0,0,1,.944,2.3l1.2-.4A21.737,21.737,0,0,0,142.736-13.472Zm-13.68,2.288L129.2-9.1c.368-.064.608-.1.944-.144.48-.064,1.488-.176,2.1-.24a10.107,10.107,0,0,0-2.56,6.448c0,2.9,2.192,4.3,4.768,4.3,4.464,0,5.712-3.424,5.488-7.072a13.674,13.674,0,0,0,1.776,2.464l1.3-1.84a10.979,10.979,0,0,1-3.424-6.8l-2.016.56c.112.336.224.672.336.992C139.136-4.64,138-.88,134.48-.88a2.435,2.435,0,0,1-2.752-2.608,8.718,8.718,0,0,1,3.248-6.368,6.977,6.977,0,0,1,.816-.352l-.608-1.776a25.009,25.009,0,0,1-5.232.8A8.362,8.362,0,0,1,129.056-11.184ZM6.144,17.184c-.544.144-1.1.288-1.664.432v-2.4H6.112v-1.76H4.48V10.464H2.608v2.992H.624v1.76H2.608v2.848c-.816.192-1.584.368-2.224.5l.448,1.824,1.776-.464v3.424c0,.224-.08.288-.3.3-.208,0-.848,0-1.472-.032A6.782,6.782,0,0,1,1.36,25.36a5.327,5.327,0,0,0,2.416-.336c.544-.3.7-.752.7-1.7V19.44c.64-.176,1.264-.352,1.888-.528Zm6.656,2.48v.976H8.72v-.976Zm-4.08,3.52V22.128H12.8v1.056ZM6.912,25.392H8.72V24.7H12.8v.624h1.888V18.1H6.912Zm3.024-9.92c-.928,0-1.088-.08-1.088-.688v-.672a34.44,34.44,0,0,0,5.664-1.584L13.1,11.152A25.447,25.447,0,0,1,8.848,12.56v-2.1h-1.9V14.8c0,1.84.576,2.384,2.8,2.384h3.1c1.824,0,2.384-.608,2.624-2.864a5.149,5.149,0,0,1-1.728-.688c-.112,1.584-.24,1.84-1.04,1.84ZM23.5,11.184l-2.256-.128a8.57,8.57,0,0,1-.016,1.424c-.032.368-.08.8-.128,1.3a15.11,15.11,0,0,1-3.3-.608l-.112,1.84a18.788,18.788,0,0,0,3.184.576c-.08.72-.176,1.472-.272,2.192a14.7,14.7,0,0,1-3.152-.64l-.112,1.936a17.9,17.9,0,0,0,3.072.528c-.064.656-.112,1.232-.112,1.616,0,2.672,1.776,3.76,4.288,3.76,3.5,0,5.68-1.728,5.68-4.144a5.964,5.964,0,0,0-1.552-3.84l-2.256.48a4.364,4.364,0,0,1,1.648,3.1c0,1.312-1.216,2.336-3.456,2.336-1.568,0-2.384-.7-2.384-2.032,0-.288.032-.688.064-1.168h.64c1.008,0,1.936-.064,2.832-.144l.048-1.9a27.717,27.717,0,0,1-3.216.192h-.112c.08-.72.176-1.472.272-2.176a28.836,28.836,0,0,0,3.12-.16l.064-1.9a22.568,22.568,0,0,1-2.928.224c.064-.528.128-.96.176-1.232A14.323,14.323,0,0,1,23.5,11.184Zm21.44,8.464A22.536,22.536,0,0,1,42.5,21.312a7.613,7.613,0,0,1-1.264-1.664Zm.56,0h1.712v-1.68H37.408v-.832h7.7V15.664h-7.7v-.8h7.7V13.392h-7.7v-.848h8.144V10.992h-10.1v6.976H32.8v1.68h2.64v3.664c-.72.08-1.376.176-1.952.24L33.92,25.3c1.936-.288,4.576-.688,7.024-1.088l-.08-1.68c-1.152.176-2.336.352-3.456.512V19.648h1.84a9.4,9.4,0,0,0,7.072,5.76,8.453,8.453,0,0,1,1.2-1.712,10.582,10.582,0,0,1-3.728-1.376,26.94,26.94,0,0,0,2.944-1.808Zm14.24-7.184-1.872-1.648a11.12,11.12,0,0,1-1.232,1.36c-1.072,1.04-3.264,2.816-4.528,3.84-1.6,1.344-1.728,2.192-.128,3.552,1.456,1.248,3.808,3.248,4.784,4.256.48.48.944.992,1.392,1.488L60.032,23.6c-1.632-1.584-4.672-3.984-5.872-4.992-.864-.752-.88-.928-.032-1.664,1.072-.912,3.184-2.544,4.224-3.376C58.72,13.264,59.248,12.848,59.744,12.464Zm8.08-1.968a17,17,0,0,1-3.632,6A12.052,12.052,0,0,1,65.2,18.464a14.7,14.7,0,0,0,1.088-1.28V25.36H68.1V14.368a25.5,25.5,0,0,0,1.536-3.3Zm7.232,8.736V17.776h2.256v1.456Zm-4.064,0V17.776h2.192v1.456Zm2.192-4.544v1.44H70.992v-1.44Zm4.128,0v1.44H75.056v-1.44ZM75.056,12.96V10.512H73.184V12.96H69.216v8.8h1.776v-.8h2.192v4.416h1.872V20.96h2.256v.64h1.856V12.96Zm17.968-1.824-1.2.368a18.682,18.682,0,0,1,.928,2.336l1.2-.4C93.728,12.784,93.312,11.792,93.024,11.136Zm1.712-.608-1.152.4a21.041,21.041,0,0,1,.944,2.3l1.2-.4A21.737,21.737,0,0,0,94.736,10.528Zm-13.68,2.288L81.2,14.9c.368-.064.608-.1.944-.144.48-.064,1.488-.176,2.1-.24a10.107,10.107,0,0,0-2.56,6.448c0,2.9,2.192,4.3,4.768,4.3,4.464,0,5.712-3.424,5.488-7.072a13.675,13.675,0,0,0,1.776,2.464l1.3-1.84a10.979,10.979,0,0,1-3.424-6.8l-2.016.56c.112.336.224.672.336.992,1.232,5.792.1,9.552-3.424,9.552a2.435,2.435,0,0,1-2.752-2.608,8.718,8.718,0,0,1,3.248-6.368,6.978,6.978,0,0,1,.816-.352l-.608-1.776a25.009,25.009,0,0,1-5.232.8A8.362,8.362,0,0,1,81.056,12.816Zm16.08.176.208,2.192c1.856-.4,5.12-.752,6.624-.912a6.443,6.443,0,0,0-2.368,4.944c0,3.456,3.168,5.264,6.512,5.488l.752-2.192c-2.7-.144-5.168-1.1-5.168-3.728a4.867,4.867,0,0,1,3.376-4.5,18.106,18.106,0,0,1,3.088-.208l-.016-2.048c-1.12.032-2.88.144-4.528.272-2.928.256-5.568.5-6.9.608C98.4,12.944,97.776,12.976,97.136,12.992Zm19.024-.432-2.464-.032a9.725,9.725,0,0,1,.128,1.632c0,.976.016,2.848.176,4.32.448,4.288,1.968,5.872,3.728,5.872,1.28,0,2.288-.976,3.344-3.76l-1.6-1.952c-.3,1.28-.944,3.152-1.7,3.152-1.008,0-1.488-1.584-1.712-3.888-.1-1.152-.112-2.352-.1-3.392A12.945,12.945,0,0,1,116.16,12.56Zm8,.368-2.032.656c1.744,1.984,2.592,5.872,2.848,8.448l2.1-.816C126.9,18.768,125.68,14.768,124.16,12.928Zm10.08,9.184c0-.4.384-.768.992-.768.864,0,1.456.672,1.552,1.712a8.353,8.353,0,0,1-.928.048C134.9,23.1,134.24,22.7,134.24,22.112Zm-2.72-10.3.064,2.08c.368-.048.88-.1,1.312-.128.848-.048,3.056-.144,3.872-.16-.784.688-2.448,2.032-3.344,2.768-.944.784-2.88,2.416-4.016,3.328l1.456,1.5c1.712-1.952,3.312-3.248,5.76-3.248,1.888,0,3.328.976,3.328,2.416a2.319,2.319,0,0,1-1.328,2.176,3.2,3.2,0,0,0-3.408-2.736,2.681,2.681,0,0,0-2.864,2.5c0,1.6,1.68,2.624,3.9,2.624,3.872,0,5.792-2,5.792-4.528,0-2.336-2.064-4.032-4.784-4.032a6.25,6.25,0,0,0-1.52.176c1.008-.8,2.688-2.208,3.552-2.816.368-.272.752-.5,1.12-.736l-1.04-1.424a6.991,6.991,0,0,1-1.216.176c-.912.08-4.336.144-5.184.144A11.1,11.1,0,0,1,131.52,11.808Zm15.568,8.224a2.592,2.592,0,1,0,2.592,2.592A2.6,2.6,0,0,0,147.088,20.032Zm0,4.032a1.44,1.44,0,1,1,1.44-1.44A1.441,1.441,0,0,1,147.088,24.064ZM5.216,37.5a17.4,17.4,0,0,1-.48,1.952l.944.208H2.9l.8-.192A7.7,7.7,0,0,0,3.168,37.5ZM7.68,46.192c-.368-.336-1.792-1.536-2.48-2.064v-.1H7.616V42.448H5.2v-1.2H7.776V39.664H6.224c.208-.544.448-1.264.72-2.016l-.8-.144H7.632V35.952H5.152V34.528H3.328v1.424H.832V37.5H2.5l-.848.176a8.783,8.783,0,0,1,.5,1.984H.576v1.584h2.8v1.2H.7v1.584H2.976a8.8,8.8,0,0,1-2.656,3.1,6.771,6.771,0,0,1,1.056,1.456,11.494,11.494,0,0,0,2-2.24v3.024H5.2V46.048c.512.544,1.024,1.136,1.312,1.52ZM9.9,41.76H12.96v.992H9.9Zm0-2.5H12.96v1.008H9.9Zm0-2.464H12.96v.976H9.9Zm3.552,10.7c-.176,0-.208-.048-.208-.448V44.4h1.5V35.152H8.208V44.4h.816c-.16,1.728-.576,2.912-2.608,3.632a4.687,4.687,0,0,1,1.008,1.392c2.512-.992,3.12-2.672,3.328-5.024h.768v2.672c0,1.536.288,2.048,1.632,2.048h.928c1.056,0,1.5-.56,1.648-2.848a4.5,4.5,0,0,1-1.536-.688c-.032,1.712-.08,1.92-.32,1.92Zm8.688-6.32c-.544.144-1.1.288-1.664.432v-2.4h1.632v-1.76H20.48V34.464H18.608v2.992H16.624v1.76h1.984v2.848c-.816.192-1.584.368-2.224.5l.448,1.824,1.776-.464v3.424c0,.224-.08.288-.3.3-.208,0-.848,0-1.472-.032a6.782,6.782,0,0,1,.528,1.744,5.327,5.327,0,0,0,2.416-.336c.544-.3.7-.752.7-1.7V43.44c.64-.176,1.264-.352,1.888-.528Zm6.656,2.48v.976H24.72v-.976Zm-4.08,3.52V46.128H28.8v1.056Zm-1.808,2.208H24.72V48.7H28.8v.624h1.888V42.1H22.912Zm3.024-9.92c-.928,0-1.088-.08-1.088-.688v-.672a34.44,34.44,0,0,0,5.664-1.584L29.1,35.152a25.447,25.447,0,0,1-4.256,1.408v-2.1h-1.9V38.8c0,1.84.576,2.384,2.8,2.384h3.1c1.824,0,2.384-.608,2.624-2.864a5.149,5.149,0,0,1-1.728-.688c-.112,1.584-.24,1.84-1.04,1.84ZM39.584,45.92c0-.608.608-.992,1.52-.992a4.94,4.94,0,0,1,1.28.176v.288c0,.944-.336,1.456-1.312,1.456C40.224,46.848,39.584,46.576,39.584,45.92Zm4.752-10.448H42.048a6.794,6.794,0,0,1,.112,1.056c0,.336.016.992.016,1.776-.368.016-.752.016-1.12.016a26.66,26.66,0,0,1-2.8-.144v1.9c.944.064,1.856.1,2.8.1.368,0,.752,0,1.136-.016.016,1.136.08,2.3.112,3.3a7.118,7.118,0,0,0-1.04-.064c-2.176,0-3.552,1.12-3.552,2.736,0,1.68,1.376,2.608,3.584,2.608,2.16,0,3.024-1.088,3.12-2.624a16.783,16.783,0,0,1,1.952,1.616l1.1-1.68a10.472,10.472,0,0,0-3.1-2.064c-.064-1.088-.144-2.368-.176-3.92.88-.064,1.712-.16,2.48-.272v-2a21.922,21.922,0,0,1-2.48.368c.016-.7.032-1.3.048-1.648A10.02,10.02,0,0,1,44.336,35.472Zm-7.808.176-2.208-.192a15.262,15.262,0,0,1-.16,1.568A50.671,50.671,0,0,0,33.5,43.7a18.793,18.793,0,0,0,.64,5.12l1.808-.144c-.016-.224-.032-.5-.032-.656a4.465,4.465,0,0,1,.08-.752c.192-.864.7-2.5,1.152-3.808l-.976-.8c-.24.544-.512,1.088-.72,1.648a7.563,7.563,0,0,1-.064-1.04,42.71,42.71,0,0,1,.768-6.192A10.389,10.389,0,0,1,36.528,35.648Zm16.3-.16-2.016.816c.72,1.68,1.488,3.408,2.224,4.768-1.536,1.136-2.656,2.448-2.656,4.208,0,2.768,2.416,3.664,5.6,3.664a29.515,29.515,0,0,0,5.136-.416l.032-2.288a26.975,26.975,0,0,1-5.216.576c-2.224,0-3.344-.608-3.344-1.76,0-1.12.9-2.032,2.224-2.912A38.681,38.681,0,0,1,58.784,40c.576-.288,1.088-.56,1.6-.848l-1.008-1.888a12.028,12.028,0,0,1-1.488.96c-.752.432-1.888,1.008-3.056,1.7A35.511,35.511,0,0,1,52.832,35.488Zm7.728-.24L59.3,35.76a19.149,19.149,0,0,1,1.248,2.224l1.3-.544A23.625,23.625,0,0,0,60.56,35.248Zm1.9-.736L61.2,35.04a18.877,18.877,0,0,1,1.28,2.208l1.28-.544A25.2,25.2,0,0,0,62.464,34.512Zm16.368,7.856a6.093,6.093,0,0,0-6.464-6.24,7.109,7.109,0,0,0-7.344,6.848c0,2.7,1.472,4.656,3.248,4.656,1.744,0,3.12-1.984,4.08-5.216a32.357,32.357,0,0,0,.96-4.336,3.955,3.955,0,0,1,3.36,4.224,4.342,4.342,0,0,1-3.648,4.288,12.306,12.306,0,0,1-1.488.256l1.2,1.9C76.768,48.128,78.832,45.744,78.832,42.368Zm-11.76.4a5.036,5.036,0,0,1,4.064-4.64A24.017,24.017,0,0,1,70.288,42c-.656,2.16-1.28,3.168-1.952,3.168C67.712,45.168,67.072,44.384,67.072,42.768Zm19.072-1.584c-.544.144-1.1.288-1.664.432v-2.4h1.632v-1.76H84.48V34.464H82.608v2.992H80.624v1.76h1.984v2.848c-.816.192-1.584.368-2.224.5l.448,1.824,1.776-.464v3.424c0,.224-.08.288-.3.3-.208,0-.848,0-1.472-.032a6.782,6.782,0,0,1,.528,1.744,5.327,5.327,0,0,0,2.416-.336c.544-.3.7-.752.7-1.7V43.44c.64-.176,1.264-.352,1.888-.528Zm6.656,2.48v.976H88.72v-.976Zm-4.08,3.52V46.128H92.8v1.056Zm-1.808,2.208H88.72V48.7H92.8v.624h1.888V42.1H86.912Zm3.024-9.92c-.928,0-1.088-.08-1.088-.688v-.672a34.44,34.44,0,0,0,5.664-1.584L93.1,35.152a25.448,25.448,0,0,1-4.256,1.408v-2.1h-1.9V38.8c0,1.84.576,2.384,2.8,2.384h3.1c1.824,0,2.384-.608,2.624-2.864a5.149,5.149,0,0,1-1.728-.688c-.112,1.584-.24,1.84-1.04,1.84Zm9.824,6.48c0-.688.752-1.12,2-1.12a8.7,8.7,0,0,1,1.312.112c.016.224.016.416.016.56,0,1.072-.368,1.52-1.392,1.52C100.576,47.024,99.76,46.736,99.76,45.952Zm5.36-10.784H102.7a11.577,11.577,0,0,1,.176,1.872c.016.688.016,1.632.016,2.608,0,.848.064,2.208.112,3.456a9.092,9.092,0,0,0-.944-.048c-2.944,0-4.368,1.328-4.368,2.992,0,2.176,1.872,2.928,4.16,2.928,2.688,0,3.408-1.344,3.408-2.768,0-.16,0-.352-.016-.56a12.481,12.481,0,0,1,3.536,2.512l1.232-1.9a12.563,12.563,0,0,0-4.864-2.736c-.08-1.184-.144-2.464-.176-3.424,1.3-.032,3.184-.112,4.528-.224l-.064-1.9c-1.328.16-3.2.224-4.48.24,0-.416,0-.8.016-1.168A15.4,15.4,0,0,1,105.12,35.168Zm12.336-.016-2.192-.1a14.17,14.17,0,0,1-.128,1.68,42.1,42.1,0,0,0-.448,5.12,18.1,18.1,0,0,0,.208,2.672l1.968-.128a8.366,8.366,0,0,1-.08-1.7c.08-2.112,1.728-4.944,3.616-4.944,1.344,0,2.176,1.376,2.176,3.84,0,3.872-2.512,5.04-6.064,5.584l1.216,1.856c4.24-.768,7.008-2.928,7.008-7.456,0-3.52-1.728-5.7-3.952-5.7a4.939,4.939,0,0,0-3.968,2.592A26.089,26.089,0,0,1,117.456,35.152Zm17.728.032-2.256-.128a8.568,8.568,0,0,1-.016,1.424c-.032.368-.08.8-.128,1.3a15.11,15.11,0,0,1-3.3-.608l-.112,1.84a18.788,18.788,0,0,0,3.184.576c-.08.72-.176,1.472-.272,2.192a14.7,14.7,0,0,1-3.152-.64l-.112,1.936a17.9,17.9,0,0,0,3.072.528c-.064.656-.112,1.232-.112,1.616,0,2.672,1.776,3.76,4.288,3.76,3.5,0,5.68-1.728,5.68-4.144a5.964,5.964,0,0,0-1.552-3.84l-2.256.48a4.365,4.365,0,0,1,1.648,3.1c0,1.312-1.216,2.336-3.456,2.336-1.568,0-2.384-.7-2.384-2.032,0-.288.032-.688.064-1.168h.64c1.008,0,1.936-.064,2.832-.144l.048-1.9a27.717,27.717,0,0,1-3.216.192h-.112c.08-.72.176-1.472.272-2.176a28.837,28.837,0,0,0,3.12-.16l.064-1.9a22.567,22.567,0,0,1-2.928.224c.064-.528.128-.96.176-1.232A14.317,14.317,0,0,1,135.184,35.184Zm23.7,5.216V38.432h-6.544c.112-1.392.128-2.736.144-3.968H150.4c-.016,1.216,0,2.576-.128,3.968h-5.664V40.4H150a9.661,9.661,0,0,1-5.9,7.376,5.856,5.856,0,0,1,1.424,1.616,11.5,11.5,0,0,0,4.176-3.28,19.96,19.96,0,0,1,2.752,3.024l1.76-1.312a20.651,20.651,0,0,0-2.96-2.96l-1.312.912a11.924,11.924,0,0,0,1.84-4c1.232,3.44,3.088,6.112,6.112,7.616a7.639,7.639,0,0,1,1.424-1.776,11.275,11.275,0,0,1-6-7.216Zm12.544-3.936-1.872-1.648a11.119,11.119,0,0,1-1.232,1.36c-1.072,1.04-3.264,2.816-4.528,3.84-1.6,1.344-1.728,2.192-.128,3.552,1.456,1.248,3.808,3.248,4.784,4.256.48.48.944.992,1.392,1.488l1.872-1.712c-1.632-1.584-4.672-3.984-5.872-4.992-.864-.752-.88-.928-.032-1.664,1.072-.912,3.184-2.544,4.224-3.376C170.4,37.264,170.928,36.848,171.424,36.464ZM2.672,60.656H4.336V62.72H2.672Zm3.712,8.752-1.52.416V67.68H6.288V66.032H4.864V64.32h1.2V59.056H1.056V64.32H3.2v5.936l-.672.176V65.488H.992v5.328L.4,70.944l.432,1.744c1.648-.48,3.792-1.1,5.792-1.68Zm2.144-2.144v-.736h1.3v.736Zm0-2.592h1.3v.72h-1.3Zm4.384,0v.72H11.584v-.72Zm0,2.592H11.584v-.736h1.328Zm-1.328,4.272v-.848h3.072V69.2H11.584v-.72h2.992V63.456H11.584v-.624h3.648v-1.52H11.584v-.928a33,33,0,0,0,3.312-.512L13.744,58.5a43.939,43.939,0,0,1-7.136.8,5.6,5.6,0,0,1,.432,1.392c.88-.016,1.84-.064,2.784-.144v.768H6.416v1.52H9.824v.624H6.944V68.48h2.88v.72H6.96v1.488H9.824v.848H6.08v1.5h9.248v-1.5Zm19.248-5.168a6.093,6.093,0,0,0-6.464-6.24,7.109,7.109,0,0,0-7.344,6.848c0,2.7,1.472,4.656,3.248,4.656,1.744,0,3.12-1.984,4.08-5.216a32.358,32.358,0,0,0,.96-4.336,3.955,3.955,0,0,1,3.36,4.224,4.342,4.342,0,0,1-3.648,4.288,12.307,12.307,0,0,1-1.488.256l1.2,1.9C28.768,72.128,30.832,69.744,30.832,66.368Zm-11.76.4a5.036,5.036,0,0,1,4.064-4.64A24.016,24.016,0,0,1,22.288,66c-.656,2.16-1.28,3.168-1.952,3.168C19.712,69.168,19.072,68.384,19.072,66.768Zm18.3,2.832v-.72h5.168v.72Zm5.168-2.768v.736H37.376v-.736Zm1.84-1.424h-8.8v7.984h1.792V70.96h5.168v.656c0,.208-.08.272-.3.288-.24,0-1.136,0-1.856-.032a5.526,5.526,0,0,1,.528,1.52,8.039,8.039,0,0,0,2.688-.256c.608-.256.784-.656.784-1.5Zm-7.264-4.9h5.536v.656H38.848v2H37.12Zm5.536,2.656H40.48v-.832h2.176Zm1.92,0v-4.1H35.3v4.1H33.1V66.56h1.7V64.784H45.12V66.56h1.792V63.168Zm10.7-3.7-2.384-.24a16.283,16.283,0,0,1-.336,3.376c-.816.08-1.568.128-2.064.144a15.277,15.277,0,0,1-1.712,0l.192,2.176c.5-.08,1.328-.192,1.792-.272.288-.032.8-.1,1.376-.16a24.483,24.483,0,0,1-3.248,7.52l2.08.832a33.72,33.72,0,0,0,3.264-8.576c.464-.032.864-.064,1.12-.064.992,0,1.552.176,1.552,1.456a12.7,12.7,0,0,1-.656,4.432,1.173,1.173,0,0,1-1.2.688,9.245,9.245,0,0,1-1.952-.336l.336,2.112a10.515,10.515,0,0,0,1.92.224,2.543,2.543,0,0,0,2.624-1.472A15.676,15.676,0,0,0,58.9,65.44c0-2.3-1.2-3.056-2.9-3.056-.336,0-.8.032-1.344.064.112-.576.24-1.168.336-1.648C55.072,60.4,55.184,59.888,55.28,59.472Zm7.12-1.328-1.28.512a18.1,18.1,0,0,1,1.3,2.208l1.264-.544A21.285,21.285,0,0,0,62.4,58.144Zm-1.9.72-1.264.528A17.691,17.691,0,0,1,60.32,61.28l-1.44.624a17.994,17.994,0,0,1,2.688,6l2.032-.928a29.034,29.034,0,0,0-2.608-5.584l.784-.336C61.472,60.464,60.9,59.456,60.5,58.864Zm9.44.448L67.36,59.28a10.205,10.205,0,0,1,.208,2.16c0,1.376-.16,5.584-.16,7.728,0,2.736,1.7,3.888,4.32,3.888a8.282,8.282,0,0,0,6.944-3.68l-1.456-1.76a6.4,6.4,0,0,1-5.472,3.264,1.934,1.934,0,0,1-2.208-2.144c0-1.984.128-5.568.192-7.3C69.76,60.8,69.84,59.984,69.936,59.312Zm12.352,5.92.832,2.08c1.36-.576,4.56-1.9,6.416-1.9a2.051,2.051,0,0,1,2.288,2.032c0,2.176-2.688,3.152-6.352,3.248l.848,1.968c5.088-.32,7.632-2.288,7.632-5.184,0-2.416-1.7-3.92-4.224-3.92A22.539,22.539,0,0,0,83.984,64.8C83.5,64.944,82.768,65.136,82.288,65.232Zm21.1-5.872-2.384-.24a17.734,17.734,0,0,1-.336,3.392c-.816.064-1.568.112-2.064.128a15.277,15.277,0,0,1-1.712,0l.192,2.176c.48-.08,1.328-.192,1.776-.272.3-.032.8-.1,1.376-.16a24.053,24.053,0,0,1-3.232,7.52l2.08.832a33.72,33.72,0,0,0,3.264-8.576c.448-.032.848-.064,1.1-.064,1.008,0,1.552.176,1.552,1.456a12.735,12.735,0,0,1-.64,4.432,1.186,1.186,0,0,1-1.2.688,9.374,9.374,0,0,1-1.968-.336l.352,2.112a10.351,10.351,0,0,0,1.92.224A2.556,2.556,0,0,0,106.1,71.2a15.676,15.676,0,0,0,.912-5.872c0-2.3-1.2-3.056-2.9-3.056-.336,0-.816.032-1.344.064.112-.576.224-1.168.336-1.648C103.184,60.288,103.3,59.776,103.392,59.36Zm5.5,1.5-1.9.816a18.4,18.4,0,0,1,2.688,6.08l2.032-.944A27.655,27.655,0,0,0,108.9,60.864Zm8.88-1.712-2.192-.1a14.17,14.17,0,0,1-.128,1.68,42.1,42.1,0,0,0-.448,5.12,18.1,18.1,0,0,0,.208,2.672l1.968-.128a8.366,8.366,0,0,1-.08-1.7c.08-2.112,1.728-4.944,3.616-4.944,1.344,0,2.176,1.376,2.176,3.84,0,3.872-2.512,5.04-6.064,5.584l1.216,1.856c4.24-.768,7.008-2.928,7.008-7.456,0-3.52-1.728-5.7-3.952-5.7a4.939,4.939,0,0,0-3.968,2.592A26.089,26.089,0,0,1,117.776,59.152Zm15.5.1-2,.816c.72,1.7,1.488,3.408,2.224,4.768-1.536,1.136-2.656,2.464-2.656,4.224,0,2.752,2.416,3.632,5.6,3.632a29.715,29.715,0,0,0,5.136-.4l.032-2.3a24.7,24.7,0,0,1-5.232.592c-2.224,0-3.328-.608-3.328-1.76,0-1.12.9-2.032,2.224-2.912a47.358,47.358,0,0,1,4.464-2.368c.592-.3,1.1-.576,1.584-.864l-1.1-1.856a10,10,0,0,1-1.488.976c-.752.432-2.144,1.12-3.456,1.888A38.006,38.006,0,0,1,133.28,59.248Zm16.656.064-2.576-.032a10.205,10.205,0,0,1,.208,2.16c0,1.376-.16,5.584-.16,7.728,0,2.736,1.7,3.888,4.32,3.888a8.282,8.282,0,0,0,6.944-3.68l-1.456-1.76a6.4,6.4,0,0,1-5.472,3.264,1.934,1.934,0,0,1-2.208-2.144c0-1.984.128-5.568.192-7.3C149.76,60.8,149.84,59.984,149.936,59.312Zm10.72,1.68.208,2.192c1.856-.4,5.12-.752,6.624-.912a6.443,6.443,0,0,0-2.368,4.944c0,3.456,3.168,5.264,6.512,5.488l.752-2.192c-2.7-.144-5.168-1.1-5.168-3.728a4.867,4.867,0,0,1,3.376-4.5,18.106,18.106,0,0,1,3.088-.208l-.016-2.048c-1.12.032-2.88.144-4.528.272-2.928.256-5.568.5-6.9.608C161.92,60.944,161.3,60.976,160.656,60.992Zm19.024-.432-2.464-.032a9.725,9.725,0,0,1,.128,1.632c0,.976.016,2.848.176,4.32.448,4.288,1.968,5.872,3.728,5.872,1.28,0,2.288-.976,3.344-3.76l-1.6-1.952c-.3,1.28-.944,3.152-1.7,3.152-1.008,0-1.488-1.584-1.712-3.888-.1-1.152-.112-2.352-.1-3.392A12.945,12.945,0,0,1,179.68,60.56Zm8,.368-2.032.656c1.744,1.984,2.592,5.872,2.848,8.448l2.1-.816C190.416,66.768,189.2,62.768,187.68,60.928Zm10.08,9.184c0-.4.384-.768.992-.768.864,0,1.456.672,1.552,1.712a8.353,8.353,0,0,1-.928.048C198.416,71.1,197.76,70.7,197.76,70.112Zm-2.72-10.3.064,2.08c.368-.048.88-.1,1.312-.128.848-.048,3.056-.144,3.872-.16-.784.688-2.448,2.032-3.344,2.768-.944.784-2.88,2.416-4.016,3.328l1.456,1.5c1.712-1.952,3.312-3.248,5.76-3.248,1.888,0,3.328.976,3.328,2.416a2.319,2.319,0,0,1-1.328,2.176,3.2,3.2,0,0,0-3.408-2.736,2.681,2.681,0,0,0-2.864,2.5c0,1.6,1.68,2.624,3.9,2.624,3.872,0,5.792-2,5.792-4.528,0-2.336-2.064-4.032-4.784-4.032a6.25,6.25,0,0,0-1.52.176c1.008-.8,2.688-2.208,3.552-2.816.368-.272.752-.5,1.12-.736l-1.04-1.424a6.991,6.991,0,0,1-1.216.176c-.912.08-4.336.144-5.184.144A11.1,11.1,0,0,1,195.04,59.808Zm15.568,8.224a2.592,2.592,0,1,0,2.592,2.592A2.6,2.6,0,0,0,210.608,68.032Zm0,4.032a1.44,1.44,0,1,1,1.44-1.44A1.441,1.441,0,0,1,210.608,72.064ZM8.992,92.752v-3.52a17.832,17.832,0,0,0,2.544,3.52Zm-4.512,0a18.644,18.644,0,0,0,2.512-3.488v3.488Zm10.576-5.28v-1.92H8.992V82.464h-2v3.088H.976v1.92h4.88a14.213,14.213,0,0,1-5.5,6,9.407,9.407,0,0,1,1.392,1.584,13.588,13.588,0,0,0,2.5-2.048v1.68H6.992v2.7h2v-2.7h2.656V92.864a13.09,13.09,0,0,0,2.608,2.144,8.089,8.089,0,0,1,1.472-1.728,13.977,13.977,0,0,1-5.584-5.808Zm7.936-1.456v3.376H20.224l1.52-.592a11.4,11.4,0,0,0-1.36-2.784Zm4.72,0a18.02,18.02,0,0,1-1.36,2.912l1.344.464H25.008V86.016Zm3.44,5.2V89.392h-3.1a29.514,29.514,0,0,0,1.68-2.832l-1.84-.544h2.656V84.192H25.008V82.448H22.992v1.744H17.6v1.824h2.72l-1.648.624a11.16,11.16,0,0,1,1.2,2.752H16.848v1.824h5.024a15.1,15.1,0,0,1-5.472,4,9.029,9.029,0,0,1,1.344,1.6,16.6,16.6,0,0,0,5.248-4.32v4.88h2.016V92.464a16.178,16.178,0,0,0,5.232,4.384,8.931,8.931,0,0,1,1.328-1.6,14.835,14.835,0,0,1-5.424-4.032Zm7.52-8.4c-.112,2.112.112,9.376-6.272,12.912a6.668,6.668,0,0,1,1.6,1.52,13.663,13.663,0,0,0,5.92-8.032,12.688,12.688,0,0,0,6.3,8.032A6.254,6.254,0,0,1,47.7,95.632c-5.968-2.8-6.768-9.7-6.9-11.9.016-.336.032-.656.048-.912Zm14.976,1.616v.848H51.184v-.848Zm-2.464,3.04V86.56h2.464v.912Zm4.24,1.36V83.056H49.3V97.392h1.888v-8.56ZM58.336,87.5V86.56H60.88V87.5Zm2.544-3.072v.848H58.336v-.848Zm-6.24,10.08V93.52h2.64v.992Zm2.64-2.352H54.64V91.2h2.64Zm5.52-9.1H56.528v5.808H60.88V95.12c0,.256-.1.352-.384.352-.208.016-.8.016-1.424,0V89.808L53.7,89.792v.016h-.784V96.72H54.64V95.9h3.968a7.045,7.045,0,0,1,.416,1.488,6.913,6.913,0,0,0,2.928-.368c.64-.3.848-.864.848-1.888ZM71.584,93.92c0-.608.608-.992,1.52-.992a4.94,4.94,0,0,1,1.28.176v.288c0,.944-.336,1.456-1.312,1.456C72.224,94.848,71.584,94.576,71.584,93.92Zm4.752-10.448H74.048a6.8,6.8,0,0,1,.112,1.056c0,.336.016.992.016,1.776-.368.016-.752.016-1.12.016a26.66,26.66,0,0,1-2.8-.144v1.9c.944.064,1.856.1,2.8.1.368,0,.752,0,1.136-.016.016,1.136.08,2.3.112,3.3a7.117,7.117,0,0,0-1.04-.064c-2.176,0-3.552,1.12-3.552,2.736,0,1.68,1.376,2.608,3.584,2.608,2.16,0,3.024-1.088,3.12-2.624a16.783,16.783,0,0,1,1.952,1.616l1.1-1.68a10.472,10.472,0,0,0-3.1-2.064c-.064-1.088-.144-2.368-.176-3.92.88-.064,1.712-.16,2.48-.272v-2a21.923,21.923,0,0,1-2.48.368c.016-.7.032-1.3.048-1.648A10.02,10.02,0,0,1,76.336,83.472Zm-7.808.176-2.208-.192a15.264,15.264,0,0,1-.16,1.568A50.67,50.67,0,0,0,65.5,91.7a18.793,18.793,0,0,0,.64,5.12l1.808-.144c-.016-.224-.032-.5-.032-.656a4.466,4.466,0,0,1,.08-.752c.192-.864.7-2.5,1.152-3.808l-.976-.8c-.24.544-.512,1.088-.72,1.648a7.562,7.562,0,0,1-.064-1.04,42.71,42.71,0,0,1,.768-6.192A10.388,10.388,0,0,1,68.528,83.648Zm14.96.72V86.48c1.3.112,2.688.176,4.368.176,1.52,0,3.5-.1,4.624-.192V84.336c-1.232.128-3.056.224-4.64.224A41.971,41.971,0,0,1,83.488,84.368Zm1.344,6.784-2.1-.192a10.351,10.351,0,0,0-.32,2.3c0,2.192,1.84,3.424,5.5,3.424a24.655,24.655,0,0,0,5.552-.544l-.016-2.256a21.969,21.969,0,0,1-5.616.64c-2.3,0-3.28-.736-3.28-1.76A5.9,5.9,0,0,1,84.832,91.152Zm26-.784a6.093,6.093,0,0,0-6.464-6.24,7.109,7.109,0,0,0-7.344,6.848c0,2.7,1.472,4.656,3.248,4.656,1.744,0,3.12-1.984,4.08-5.216a32.357,32.357,0,0,0,.96-4.336,3.955,3.955,0,0,1,3.36,4.224,4.342,4.342,0,0,1-3.648,4.288,12.307,12.307,0,0,1-1.488.256l1.2,1.9C108.768,96.128,110.832,93.744,110.832,90.368Zm-11.76.4a5.036,5.036,0,0,1,4.064-4.64A24.017,24.017,0,0,1,102.288,90c-.656,2.16-1.28,3.168-1.952,3.168C99.712,93.168,99.072,92.384,99.072,90.768Zm27.92-5.248A17.987,17.987,0,0,0,125.2,82.8l-1.424.784a19.9,19.9,0,0,1,1.664,2.848Zm.256,3.248V86.88h-4.224v-4.4h-1.888v4.4h-3.248v1.888h3.136a10.84,10.84,0,0,1-3.536,7.184V82.432H115.6v4.384a24.3,24.3,0,0,0-1.52-2.336l-1.488.864a18.793,18.793,0,0,1,1.728,3.1l1.28-.784v2.272c-1.152.992-2.336,1.92-3.1,2.48l.96,1.632c.672-.544,1.408-1.2,2.144-1.856V97.36h1.888V96.32a8.21,8.21,0,0,1,1.3,1.056,11.576,11.576,0,0,0,3.632-5.76,11.807,11.807,0,0,0,3.9,5.728,6.67,6.67,0,0,1,1.376-1.6c-2.208-1.36-3.648-3.984-4.416-6.976Zm13.888-1.136c1.328,0,1.824-.416,2-1.984a4.639,4.639,0,0,1-1.536-.576c-.048.912-.16,1.056-.64,1.056h-1.888c-.64,0-.72-.064-.72-.5v-.448a23.5,23.5,0,0,0,4.176-1.216l-1.312-1.136a14.616,14.616,0,0,1-2.864,1.024v-1.3h-1.76v3.072c0,1.536.432,2,2.256,2Zm.08,5.408c1.344,0,1.84-.448,2.016-2.08a4.454,4.454,0,0,1-1.536-.592c-.064.992-.16,1.152-.656,1.152h-1.952c-.656,0-.736-.048-.736-.528v-.416a20.928,20.928,0,0,0,4.352-1.3l-1.312-1.136a15.011,15.011,0,0,1-3.04,1.088V87.776h-1.76v3.232c0,1.552.432,2.032,2.272,2.032ZM128.864,86c1.6-.064,3.76-.128,5.888-.24a6.562,6.562,0,0,1,.336.672l1.424-.8a10.792,10.792,0,0,0-2.032-2.656l-1.328.7c.208.224.432.48.64.736l-1.968.048c.368-.512.752-1.088,1.1-1.648l-1.872-.448a17.346,17.346,0,0,1-1.04,2.144l-1.232.016Zm1.152,11.1a5.661,5.661,0,0,0,2.3-3.024l-1.616-.608a5.038,5.038,0,0,1-2.176,2.592Zm1.28-7.136v-.592h2.592v.592Zm2.592-2.176v.56H131.3v-.56Zm.416,5.568a8.244,8.244,0,0,1,2.32,1.712l1.232-1.152a9.156,9.156,0,0,0-2.368-1.6,2.274,2.274,0,0,0,.112-.816V86.56h-6v6.48h1.7V91.024h2.592v.48c0,.16-.064.208-.24.224-.128,0-.672,0-1.152-.016a4.842,4.842,0,0,1,.5,1.3,5.389,5.389,0,0,0,1.92-.208Zm1.168,2.352c-.7,0-.848-.048-.848-.464v-1.6h-1.856v1.616c0,1.5.5,1.968,2.48,1.968h2.624c1.44,0,1.952-.432,2.144-2.128a4.816,4.816,0,0,1-1.6-.608c-.064,1.056-.176,1.216-.752,1.216Zm3.808-1.552a10.529,10.529,0,0,1,2.544,2.976l1.648-.928a10.238,10.238,0,0,0-2.688-2.88Zm5.824-9.136.208,2.192c1.856-.4,5.12-.752,6.624-.912a6.4,6.4,0,0,0-2.384,4.944c0,3.472,3.168,5.264,6.528,5.488l.752-2.192c-2.72-.144-5.184-1.088-5.184-3.728a4.862,4.862,0,0,1,3.392-4.48,16.622,16.622,0,0,1,3.088-.224l-.016-2.048c-1.136.048-2.88.144-4.528.288-2.928.24-5.568.48-6.912.592C146.368,84.976,145.744,85.008,145.1,85.024ZM155.84,87.68l-1.184.5A12.346,12.346,0,0,1,155.9,90.4l1.216-.544A19.858,19.858,0,0,0,155.84,87.68Zm1.792-.736-1.168.544a14.077,14.077,0,0,1,1.312,2.16l1.2-.576A23.933,23.933,0,0,0,157.632,86.944ZM14.8,109.248H8.96v-2.784H6.976v2.784H1.3v1.872H14.8Zm-8.128,8.608a26.169,26.169,0,0,0-1.5-6.144l-1.824.48a25.939,25.939,0,0,1,1.376,6.176Zm4.1,1.008a65.116,65.116,0,0,0,2-6.816l-2.192-.4a39.987,39.987,0,0,1-1.824,7.216H.784v1.9h14.48v-1.9Zm7.52-5.632.832,2.08c1.36-.576,4.56-1.9,6.416-1.9a2.051,2.051,0,0,1,2.288,2.032c0,2.176-2.688,3.152-6.352,3.248l.848,1.968c5.088-.32,7.632-2.288,7.632-5.184,0-2.416-1.7-3.92-4.224-3.92a22.539,22.539,0,0,0-5.744,1.248C19.5,112.944,18.768,113.136,18.288,113.232Zm23.1,2.864-1.9-.192a11.189,11.189,0,0,0-.288,2.144c0,1.616,1.456,2.544,4.144,2.544a25.683,25.683,0,0,0,3.264-.224l.08-2.048a18.777,18.777,0,0,1-3.328.336c-1.712,0-2.192-.528-2.192-1.232A5.482,5.482,0,0,1,41.392,116.1Zm-1.808-8.864-2.448-.192a8.2,8.2,0,0,1-.048,1.616q-.048.384-.144.912-.744.048-1.44.048a15.834,15.834,0,0,1-2.016-.128l.048,2c.56.032,1.168.064,1.936.064.336,0,.688-.016,1.056-.032-.1.464-.224.912-.336,1.344a34.643,34.643,0,0,1-2.768,7.2l2.224.752a49.719,49.719,0,0,0,2.544-7.408c.176-.656.336-1.36.48-2.048a29.455,29.455,0,0,0,3.12-.528v-2c-.88.208-1.776.384-2.672.512.048-.224.1-.432.128-.608C39.312,108.384,39.456,107.664,39.584,107.232Zm.944,4.832v1.872a27.491,27.491,0,0,1,3.088-.16,23.456,23.456,0,0,1,2.752.192l.048-1.92A28.136,28.136,0,0,0,43.6,111.9C42.576,111.9,41.424,111.984,40.528,112.064Zm13.248-4.912-2.192-.1a14.171,14.171,0,0,1-.128,1.68,42.1,42.1,0,0,0-.448,5.12,18.1,18.1,0,0,0,.208,2.672l1.968-.128a8.366,8.366,0,0,1-.08-1.7c.08-2.112,1.728-4.944,3.616-4.944,1.344,0,2.176,1.376,2.176,3.84,0,3.872-2.512,5.04-6.064,5.584l1.216,1.856c4.24-.768,7.008-2.928,7.008-7.456,0-3.52-1.728-5.7-3.952-5.7a4.939,4.939,0,0,0-3.968,2.592A26.089,26.089,0,0,1,53.776,107.152Zm17.328,8.72c0,.16-.08.208-.32.224-.224,0-1.1,0-1.808-.032a6.749,6.749,0,0,1,.576,1.712,7.623,7.623,0,0,0,2.64-.256c.624-.256.8-.736.8-1.6v-2.976h6.192v-1.792h-6.16v-1.488h4.608v-1.7H73.024v-1.5H71.088v4.688h-2.16v-3.616H66.992v3.616H64.848v1.792H71.1Zm-3.328-2.736A9.875,9.875,0,0,1,64.8,116.3a11.77,11.77,0,0,1,1.7,1.232,14.521,14.521,0,0,0,3.248-3.792Zm11.52,3.328a17.03,17.03,0,0,0-3.152-3.392l-1.552.976a23.11,23.11,0,0,1,1.76,1.776l-1.536-.432c-1.312,2.992-4.176,3.936-8.752,4.272a5.584,5.584,0,0,1,.912,1.856c4.976-.608,8.1-1.84,9.7-5.312a8.774,8.774,0,0,1,.944,1.344Zm4.864-7.9-2.464-.032a9.725,9.725,0,0,1,.128,1.632c0,.976.016,2.848.176,4.32.448,4.288,1.968,5.872,3.728,5.872,1.28,0,2.288-.976,3.344-3.76l-1.6-1.952c-.3,1.28-.944,3.152-1.7,3.152-1.008,0-1.488-1.584-1.712-3.888-.1-1.152-.112-2.352-.1-3.392A12.945,12.945,0,0,1,84.16,108.56Zm8,.368-2.032.656c1.744,1.984,2.592,5.872,2.848,8.448l2.1-.816C94.9,114.768,93.68,110.768,92.16,108.928Zm13.232,7.168-1.9-.192a11.189,11.189,0,0,0-.288,2.144c0,1.616,1.456,2.544,4.144,2.544a25.683,25.683,0,0,0,3.264-.224l.08-2.048a18.777,18.777,0,0,1-3.328.336c-1.712,0-2.192-.528-2.192-1.232A5.482,5.482,0,0,1,105.392,116.1Zm-1.808-8.864-2.448-.192a8.2,8.2,0,0,1-.048,1.616q-.048.384-.144.912-.744.048-1.44.048a15.834,15.834,0,0,1-2.016-.128l.048,2c.56.032,1.168.064,1.936.064.336,0,.688-.016,1.056-.032-.1.464-.224.912-.336,1.344a34.643,34.643,0,0,1-2.768,7.2l2.224.752a49.72,49.72,0,0,0,2.544-7.408c.176-.656.336-1.36.48-2.048a29.454,29.454,0,0,0,3.12-.528v-2c-.88.208-1.776.384-2.672.512.048-.224.1-.432.128-.608C103.312,108.384,103.456,107.664,103.584,107.232Zm.944,4.832v1.872a27.491,27.491,0,0,1,3.088-.16,23.456,23.456,0,0,1,2.752.192l.048-1.92a28.136,28.136,0,0,0-2.816-.144C106.576,111.9,105.424,111.984,104.528,112.064Zm13.248-4.912-2.192-.1a14.17,14.17,0,0,1-.128,1.68,42.1,42.1,0,0,0-.448,5.12,18.1,18.1,0,0,0,.208,2.672l1.968-.128a8.366,8.366,0,0,1-.08-1.7c.08-2.112,1.728-4.944,3.616-4.944,1.344,0,2.176,1.376,2.176,3.84,0,3.872-2.512,5.04-6.064,5.584l1.216,1.856c4.24-.768,7.008-2.928,7.008-7.456,0-3.52-1.728-5.7-3.952-5.7a4.939,4.939,0,0,0-3.968,2.592A26.089,26.089,0,0,1,117.776,107.152Zm20.672-.048h-2.32a11.611,11.611,0,0,1,.16,1.392c.016.128.016.288.032.5-2.176.032-5.088.1-6.912.1l.048,1.936c1.968-.112,4.464-.208,6.88-.24.016.352.016.72.016,1.072a4.152,4.152,0,0,0-.64-.048,3.018,3.018,0,0,0-3.2,2.992,2.823,2.823,0,0,0,2.752,2.944,3.421,3.421,0,0,0,.72-.08,7.19,7.19,0,0,1-3.9,1.824l1.712,1.7c3.9-1.088,5.12-3.744,5.12-5.824a4.072,4.072,0,0,0-.576-2.192c0-.7-.016-1.584-.016-2.4,2.176,0,3.664.032,4.624.08l.016-1.888c-.832-.016-3.024.016-4.64.016.016-.192.016-.368.016-.5C138.352,108.224,138.416,107.36,138.448,107.1Zm-4.016,7.664a1.2,1.2,0,0,1,1.232-1.28,1.18,1.18,0,0,1,1.04.56c.224,1.408-.368,1.92-1.04,1.92A1.2,1.2,0,0,1,134.432,114.768Zm15.808,3.344c0-.4.384-.768.992-.768.864,0,1.456.672,1.552,1.712a8.353,8.353,0,0,1-.928.048C150.9,119.1,150.24,118.7,150.24,118.112Zm-2.72-10.3.064,2.08c.368-.048.88-.1,1.312-.128.848-.048,3.056-.144,3.872-.16-.784.688-2.448,2.032-3.344,2.768-.944.784-2.88,2.416-4.016,3.328l1.456,1.5c1.712-1.952,3.312-3.248,5.76-3.248,1.888,0,3.328.976,3.328,2.416a2.319,2.319,0,0,1-1.328,2.176,3.2,3.2,0,0,0-3.408-2.736,2.681,2.681,0,0,0-2.864,2.5c0,1.6,1.68,2.624,3.9,2.624,3.872,0,5.792-2,5.792-4.528,0-2.336-2.064-4.032-4.784-4.032a6.25,6.25,0,0,0-1.52.176c1.008-.8,2.688-2.208,3.552-2.816.368-.272.752-.5,1.12-.736l-1.04-1.424a6.992,6.992,0,0,1-1.216.176c-.912.08-4.336.144-5.184.144A11.1,11.1,0,0,1,147.52,107.808Zm27.312,6.56a6.093,6.093,0,0,0-6.464-6.24,7.109,7.109,0,0,0-7.344,6.848c0,2.7,1.472,4.656,3.248,4.656,1.744,0,3.12-1.984,4.08-5.216a32.359,32.359,0,0,0,.96-4.336,3.955,3.955,0,0,1,3.36,4.224,4.342,4.342,0,0,1-3.648,4.288,12.307,12.307,0,0,1-1.488.256l1.2,1.9C172.768,120.128,174.832,117.744,174.832,114.368Zm-11.76.4a5.036,5.036,0,0,1,4.064-4.64,24.014,24.014,0,0,1-.848,3.872c-.656,2.16-1.28,3.168-1.952,3.168C163.712,117.168,163.072,116.384,163.072,114.768Zm14.032-5.744.208,2.192c1.856-.4,5.12-.752,6.624-.912a6.4,6.4,0,0,0-2.384,4.944c0,3.472,3.168,5.264,6.528,5.488l.752-2.192c-2.72-.144-5.184-1.088-5.184-3.728a4.862,4.862,0,0,1,3.392-4.48,16.622,16.622,0,0,1,3.088-.224l-.016-2.048c-1.136.048-2.88.144-4.528.288-2.928.24-5.568.48-6.912.592C178.368,108.976,177.744,109.008,177.1,109.024Zm10.736,2.656-1.184.5A12.346,12.346,0,0,1,187.9,114.4l1.216-.544A19.858,19.858,0,0,0,187.84,111.68Zm1.792-.736-1.168.544a14.077,14.077,0,0,1,1.312,2.16l1.2-.576A23.933,23.933,0,0,0,189.632,110.944Z" transform="translate(142 80)" fill="#3c3c3b"/>
  <path id="Path_437" data-name="Path 437" d="M8.992-3.248v-3.52a17.832,17.832,0,0,0,2.544,3.52Zm-4.512,0A18.644,18.644,0,0,0,6.992-6.736v3.488Zm10.576-5.28v-1.92H8.992v-3.088h-2v3.088H.976v1.92h4.88a14.213,14.213,0,0,1-5.5,6A9.407,9.407,0,0,1,1.744-.944a13.588,13.588,0,0,0,2.5-2.048v1.68H6.992v2.7h2v-2.7h2.656V-3.136A13.09,13.09,0,0,0,14.256-.992,8.089,8.089,0,0,1,15.728-2.72a13.977,13.977,0,0,1-5.584-5.808Zm7.936-1.456v3.376H20.224l1.52-.592a11.4,11.4,0,0,0-1.36-2.784Zm4.72,0a18.02,18.02,0,0,1-1.36,2.912l1.344.464H25.008V-9.984Zm3.44,5.2V-6.608h-3.1a29.514,29.514,0,0,0,1.68-2.832l-1.84-.544h2.656v-1.824H25.008v-1.744H22.992v1.744H17.6v1.824h2.72l-1.648.624a11.16,11.16,0,0,1,1.2,2.752H16.848v1.824h5.024a15.1,15.1,0,0,1-5.472,4,9.029,9.029,0,0,1,1.344,1.6A16.6,16.6,0,0,0,22.992-3.5v4.88h2.016V-3.536A16.178,16.178,0,0,0,30.24.848a8.931,8.931,0,0,1,1.328-1.6,14.835,14.835,0,0,1-5.424-4.032Zm7.52-8.4c-.112,2.112.112,9.376-6.272,12.912A6.668,6.668,0,0,1,34,1.248a13.663,13.663,0,0,0,5.92-8.032,12.688,12.688,0,0,0,6.3,8.032A6.254,6.254,0,0,1,47.7-.368c-5.968-2.8-6.768-9.7-6.9-11.9.016-.336.032-.656.048-.912Zm14.976,1.616v.848H51.184v-.848Zm-2.464,3.04V-9.44h2.464v.912Zm4.24,1.36v-5.776H49.3V1.392h1.888v-8.56ZM58.336-8.5V-9.44H60.88V-8.5Zm2.544-3.072v.848H58.336v-.848ZM54.64-1.488V-2.48h2.64v.992ZM57.28-3.84H54.64V-4.8h2.64Zm5.52-9.1H56.528v5.808H60.88V-.88c0,.256-.1.352-.384.352-.208.016-.8.016-1.424,0V-6.192L53.7-6.208v.016h-.784V.72H54.64V-.1h3.968a7.045,7.045,0,0,1,.416,1.488,6.913,6.913,0,0,0,2.928-.368c.64-.3.848-.864.848-1.888ZM71.584-2.08c0-.608.608-.992,1.52-.992a4.94,4.94,0,0,1,1.28.176v.288c0,.944-.336,1.456-1.312,1.456C72.224-1.152,71.584-1.424,71.584-2.08Zm4.752-10.448H74.048a6.8,6.8,0,0,1,.112,1.056c0,.336.016.992.016,1.776-.368.016-.752.016-1.12.016a26.66,26.66,0,0,1-2.8-.144v1.9c.944.064,1.856.1,2.8.1.368,0,.752,0,1.136-.016.016,1.136.08,2.3.112,3.3a7.118,7.118,0,0,0-1.04-.064c-2.176,0-3.552,1.12-3.552,2.736,0,1.68,1.376,2.608,3.584,2.608,2.16,0,3.024-1.088,3.12-2.624A16.783,16.783,0,0,1,78.368-.272l1.1-1.68a10.472,10.472,0,0,0-3.1-2.064c-.064-1.088-.144-2.368-.176-3.92.88-.064,1.712-.16,2.48-.272v-2a21.922,21.922,0,0,1-2.48.368c.016-.7.032-1.3.048-1.648A10.02,10.02,0,0,1,76.336-12.528Zm-7.808.176-2.208-.192a15.264,15.264,0,0,1-.16,1.568A50.67,50.67,0,0,0,65.5-4.3a18.793,18.793,0,0,0,.64,5.12L67.952.672c-.016-.224-.032-.5-.032-.656A4.466,4.466,0,0,1,68-.736c.192-.864.7-2.5,1.152-3.808l-.976-.8c-.24.544-.512,1.088-.72,1.648a7.562,7.562,0,0,1-.064-1.04,42.71,42.71,0,0,1,.768-6.192A10.388,10.388,0,0,1,68.528-12.352Zm14.96.72V-9.52c1.3.112,2.688.176,4.368.176,1.52,0,3.5-.1,4.624-.192v-2.128c-1.232.128-3.056.224-4.64.224A41.973,41.973,0,0,1,83.488-11.632Zm1.344,6.784-2.1-.192a10.351,10.351,0,0,0-.32,2.3c0,2.192,1.84,3.424,5.5,3.424A24.655,24.655,0,0,0,93.472.144l-.016-2.256a21.969,21.969,0,0,1-5.616.64c-2.3,0-3.28-.736-3.28-1.76A5.9,5.9,0,0,1,84.832-4.848Zm26-.784a6.093,6.093,0,0,0-6.464-6.24,7.109,7.109,0,0,0-7.344,6.848c0,2.7,1.472,4.656,3.248,4.656,1.744,0,3.12-1.984,4.08-5.216a32.357,32.357,0,0,0,.96-4.336,3.955,3.955,0,0,1,3.36,4.224,4.342,4.342,0,0,1-3.648,4.288,12.306,12.306,0,0,1-1.488.256l1.2,1.9C108.768.128,110.832-2.256,110.832-5.632Zm-11.76.4a5.036,5.036,0,0,1,4.064-4.64A24.017,24.017,0,0,1,102.288-6c-.656,2.16-1.28,3.168-1.952,3.168C99.712-2.832,99.072-3.616,99.072-5.232Zm27.92-5.248A17.988,17.988,0,0,0,125.2-13.2l-1.424.784a19.9,19.9,0,0,1,1.664,2.848Zm.256,3.248V-9.12h-4.224v-4.4h-1.888v4.4h-3.248v1.888h3.136a10.84,10.84,0,0,1-3.536,7.184v-13.52H115.6v4.384a24.3,24.3,0,0,0-1.52-2.336l-1.488.864a18.792,18.792,0,0,1,1.728,3.1l1.28-.784v2.272c-1.152.992-2.336,1.92-3.1,2.48l.96,1.632c.672-.544,1.408-1.2,2.144-1.856V1.36h1.888V.32a8.21,8.21,0,0,1,1.3,1.056,11.576,11.576,0,0,0,3.632-5.76,11.807,11.807,0,0,0,3.9,5.728,6.67,6.67,0,0,1,1.376-1.6c-2.208-1.36-3.648-3.984-4.416-6.976Zm13.888-1.136c1.328,0,1.824-.416,2-1.984a4.638,4.638,0,0,1-1.536-.576c-.048.912-.16,1.056-.64,1.056h-1.888c-.64,0-.72-.064-.72-.5v-.448a23.5,23.5,0,0,0,4.176-1.216l-1.312-1.136a14.615,14.615,0,0,1-2.864,1.024v-1.3h-1.76v3.072c0,1.536.432,2,2.256,2Zm.08,5.408c1.344,0,1.84-.448,2.016-2.08a4.454,4.454,0,0,1-1.536-.592c-.064.992-.16,1.152-.656,1.152h-1.952c-.656,0-.736-.048-.736-.528v-.416a20.928,20.928,0,0,0,4.352-1.3l-1.312-1.136a15.011,15.011,0,0,1-3.04,1.088V-8.224h-1.76v3.232c0,1.552.432,2.032,2.272,2.032ZM128.864-10c1.6-.064,3.76-.128,5.888-.24a6.562,6.562,0,0,1,.336.672l1.424-.8a10.792,10.792,0,0,0-2.032-2.656l-1.328.7c.208.224.432.48.64.736l-1.968.048c.368-.512.752-1.088,1.1-1.648l-1.872-.448a17.346,17.346,0,0,1-1.04,2.144l-1.232.016Zm1.152,11.1a5.661,5.661,0,0,0,2.3-3.024L130.7-2.528A5.038,5.038,0,0,1,128.528.064Zm1.28-7.136v-.592h2.592v.592Zm2.592-2.176v.56H131.3v-.56ZM134.3-2.64a8.244,8.244,0,0,1,2.32,1.712l1.232-1.152a9.156,9.156,0,0,0-2.368-1.6A2.274,2.274,0,0,0,135.6-4.5V-9.44h-6v6.48h1.7V-4.976h2.592v.48c0,.16-.064.208-.24.224-.128,0-.672,0-1.152-.016a4.842,4.842,0,0,1,.5,1.3,5.389,5.389,0,0,0,1.92-.208Zm1.168,2.352c-.7,0-.848-.048-.848-.464v-1.6h-1.856V-.736c0,1.5.5,1.968,2.48,1.968h2.624c1.44,0,1.952-.432,2.144-2.128a4.816,4.816,0,0,1-1.6-.608c-.064,1.056-.176,1.216-.752,1.216ZM139.28-1.84a10.529,10.529,0,0,1,2.544,2.976l1.648-.928a10.238,10.238,0,0,0-2.688-2.88Zm5.824-9.136.208,2.192c1.856-.4,5.12-.752,6.624-.912a6.4,6.4,0,0,0-2.384,4.944c0,3.472,3.168,5.264,6.528,5.488l.752-2.192c-2.72-.144-5.184-1.088-5.184-3.728a4.862,4.862,0,0,1,3.392-4.48,16.622,16.622,0,0,1,3.088-.224l-.016-2.048c-1.136.048-2.88.144-4.528.288-2.928.24-5.568.48-6.912.592C146.368-11.024,145.744-10.992,145.1-10.976ZM155.84-8.32l-1.184.5A12.346,12.346,0,0,1,155.9-5.6l1.216-.544A19.858,19.858,0,0,0,155.84-8.32Zm1.792-.736-1.168.544a14.077,14.077,0,0,1,1.312,2.16l1.2-.576A23.934,23.934,0,0,0,157.632-9.056ZM14.8,13.248H8.96V10.464H6.976v2.784H1.3V15.12H14.8ZM6.672,21.856a26.169,26.169,0,0,0-1.5-6.144l-1.824.48A25.939,25.939,0,0,1,4.72,22.368Zm4.1,1.008a65.117,65.117,0,0,0,2-6.816l-2.192-.4a39.987,39.987,0,0,1-1.824,7.216H.784v1.9h14.48v-1.9Zm7.52-5.632.832,2.08c1.36-.576,4.56-1.9,6.416-1.9a2.051,2.051,0,0,1,2.288,2.032c0,2.176-2.688,3.152-6.352,3.248l.848,1.968c5.088-.32,7.632-2.288,7.632-5.184,0-2.416-1.7-3.92-4.224-3.92A22.54,22.54,0,0,0,19.984,16.8C19.5,16.944,18.768,17.136,18.288,17.232Zm23.1,2.864-1.9-.192a11.189,11.189,0,0,0-.288,2.144c0,1.616,1.456,2.544,4.144,2.544a25.684,25.684,0,0,0,3.264-.224l.08-2.048a18.777,18.777,0,0,1-3.328.336c-1.712,0-2.192-.528-2.192-1.232A5.482,5.482,0,0,1,41.392,20.1Zm-1.808-8.864-2.448-.192a8.2,8.2,0,0,1-.048,1.616q-.048.384-.144.912-.744.048-1.44.048a15.834,15.834,0,0,1-2.016-.128l.048,2c.56.032,1.168.064,1.936.064.336,0,.688-.016,1.056-.032-.1.464-.224.912-.336,1.344a34.642,34.642,0,0,1-2.768,7.2l2.224.752a49.719,49.719,0,0,0,2.544-7.408c.176-.656.336-1.36.48-2.048a29.455,29.455,0,0,0,3.12-.528v-2c-.88.208-1.776.384-2.672.512.048-.224.1-.432.128-.608C39.312,12.384,39.456,11.664,39.584,11.232Zm.944,4.832v1.872a27.49,27.49,0,0,1,3.088-.16,23.456,23.456,0,0,1,2.752.192l.048-1.92A28.136,28.136,0,0,0,43.6,15.9C42.576,15.9,41.424,15.984,40.528,16.064Zm13.248-4.912-2.192-.1a14.171,14.171,0,0,1-.128,1.68,42.1,42.1,0,0,0-.448,5.12,18.1,18.1,0,0,0,.208,2.672l1.968-.128a8.366,8.366,0,0,1-.08-1.7c.08-2.112,1.728-4.944,3.616-4.944,1.344,0,2.176,1.376,2.176,3.84,0,3.872-2.512,5.04-6.064,5.584l1.216,1.856c4.24-.768,7.008-2.928,7.008-7.456,0-3.52-1.728-5.7-3.952-5.7a4.939,4.939,0,0,0-3.968,2.592A26.089,26.089,0,0,1,53.776,11.152ZM71.1,19.872c0,.16-.08.208-.32.224-.224,0-1.1,0-1.808-.032a6.749,6.749,0,0,1,.576,1.712,7.623,7.623,0,0,0,2.64-.256c.624-.256.8-.736.8-1.6V16.944h6.192V15.152h-6.16V13.664h4.608v-1.7H73.024v-1.5H71.088v4.688h-2.16V11.536H66.992v3.616H64.848v1.792H71.1Zm-3.328-2.736A9.875,9.875,0,0,1,64.8,20.3a11.771,11.771,0,0,1,1.7,1.232,14.521,14.521,0,0,0,3.248-3.792ZM79.3,20.464a17.03,17.03,0,0,0-3.152-3.392l-1.552.976a23.11,23.11,0,0,1,1.76,1.776l-1.536-.432c-1.312,2.992-4.176,3.936-8.752,4.272a5.584,5.584,0,0,1,.912,1.856c4.976-.608,8.1-1.84,9.7-5.312a8.774,8.774,0,0,1,.944,1.344Zm4.864-7.9L81.7,12.528a9.725,9.725,0,0,1,.128,1.632c0,.976.016,2.848.176,4.32.448,4.288,1.968,5.872,3.728,5.872,1.28,0,2.288-.976,3.344-3.76l-1.6-1.952c-.3,1.28-.944,3.152-1.7,3.152-1.008,0-1.488-1.584-1.712-3.888-.1-1.152-.112-2.352-.1-3.392A12.945,12.945,0,0,1,84.16,12.56Zm8,.368-2.032.656c1.744,1.984,2.592,5.872,2.848,8.448l2.1-.816C94.9,18.768,93.68,14.768,92.16,12.928ZM105.392,20.1l-1.9-.192a11.189,11.189,0,0,0-.288,2.144c0,1.616,1.456,2.544,4.144,2.544a25.684,25.684,0,0,0,3.264-.224l.08-2.048a18.777,18.777,0,0,1-3.328.336c-1.712,0-2.192-.528-2.192-1.232A5.482,5.482,0,0,1,105.392,20.1Zm-1.808-8.864-2.448-.192a8.2,8.2,0,0,1-.048,1.616q-.048.384-.144.912-.744.048-1.44.048a15.834,15.834,0,0,1-2.016-.128l.048,2c.56.032,1.168.064,1.936.064.336,0,.688-.016,1.056-.032-.1.464-.224.912-.336,1.344a34.642,34.642,0,0,1-2.768,7.2l2.224.752a49.72,49.72,0,0,0,2.544-7.408c.176-.656.336-1.36.48-2.048a29.455,29.455,0,0,0,3.12-.528v-2c-.88.208-1.776.384-2.672.512.048-.224.1-.432.128-.608C103.312,12.384,103.456,11.664,103.584,11.232Zm.944,4.832v1.872a27.49,27.49,0,0,1,3.088-.16,23.456,23.456,0,0,1,2.752.192l.048-1.92A28.136,28.136,0,0,0,107.6,15.9C106.576,15.9,105.424,15.984,104.528,16.064Zm13.248-4.912-2.192-.1a14.17,14.17,0,0,1-.128,1.68,42.1,42.1,0,0,0-.448,5.12,18.1,18.1,0,0,0,.208,2.672l1.968-.128a8.366,8.366,0,0,1-.08-1.7c.08-2.112,1.728-4.944,3.616-4.944,1.344,0,2.176,1.376,2.176,3.84,0,3.872-2.512,5.04-6.064,5.584l1.216,1.856c4.24-.768,7.008-2.928,7.008-7.456,0-3.52-1.728-5.7-3.952-5.7a4.939,4.939,0,0,0-3.968,2.592A26.089,26.089,0,0,1,117.776,11.152Zm20.672-.048h-2.32a11.611,11.611,0,0,1,.16,1.392c.016.128.016.288.032.5-2.176.032-5.088.1-6.912.1l.048,1.936c1.968-.112,4.464-.208,6.88-.24.016.352.016.72.016,1.072a4.152,4.152,0,0,0-.64-.048,3.018,3.018,0,0,0-3.2,2.992,2.823,2.823,0,0,0,2.752,2.944,3.421,3.421,0,0,0,.72-.08,7.19,7.19,0,0,1-3.9,1.824l1.712,1.7c3.9-1.088,5.12-3.744,5.12-5.824a4.072,4.072,0,0,0-.576-2.192c0-.7-.016-1.584-.016-2.4,2.176,0,3.664.032,4.624.08l.016-1.888c-.832-.016-3.024.016-4.64.016.016-.192.016-.368.016-.5C138.352,12.224,138.416,11.36,138.448,11.1Zm-4.016,7.664a1.2,1.2,0,0,1,1.232-1.28,1.18,1.18,0,0,1,1.04.56c.224,1.408-.368,1.92-1.04,1.92A1.2,1.2,0,0,1,134.432,18.768Zm15.808,3.344c0-.4.384-.768.992-.768.864,0,1.456.672,1.552,1.712a8.353,8.353,0,0,1-.928.048C150.9,23.1,150.24,22.7,150.24,22.112Zm-2.72-10.3.064,2.08c.368-.048.88-.1,1.312-.128.848-.048,3.056-.144,3.872-.16-.784.688-2.448,2.032-3.344,2.768-.944.784-2.88,2.416-4.016,3.328l1.456,1.5c1.712-1.952,3.312-3.248,5.76-3.248,1.888,0,3.328.976,3.328,2.416a2.319,2.319,0,0,1-1.328,2.176,3.2,3.2,0,0,0-3.408-2.736,2.681,2.681,0,0,0-2.864,2.5c0,1.6,1.68,2.624,3.9,2.624,3.872,0,5.792-2,5.792-4.528,0-2.336-2.064-4.032-4.784-4.032a6.25,6.25,0,0,0-1.52.176c1.008-.8,2.688-2.208,3.552-2.816.368-.272.752-.5,1.12-.736l-1.04-1.424a6.991,6.991,0,0,1-1.216.176c-.912.08-4.336.144-5.184.144A11.1,11.1,0,0,1,147.52,11.808Zm27.312,6.56a6.093,6.093,0,0,0-6.464-6.24,7.109,7.109,0,0,0-7.344,6.848c0,2.7,1.472,4.656,3.248,4.656,1.744,0,3.12-1.984,4.08-5.216a32.359,32.359,0,0,0,.96-4.336,3.955,3.955,0,0,1,3.36,4.224,4.342,4.342,0,0,1-3.648,4.288,12.306,12.306,0,0,1-1.488.256l1.2,1.9C172.768,24.128,174.832,21.744,174.832,18.368Zm-11.76.4a5.036,5.036,0,0,1,4.064-4.64A24.015,24.015,0,0,1,166.288,18c-.656,2.16-1.28,3.168-1.952,3.168C163.712,21.168,163.072,20.384,163.072,18.768ZM177.1,13.024l.208,2.192c1.856-.4,5.12-.752,6.624-.912a6.4,6.4,0,0,0-2.384,4.944c0,3.472,3.168,5.264,6.528,5.488l.752-2.192c-2.72-.144-5.184-1.088-5.184-3.728a4.862,4.862,0,0,1,3.392-4.48,16.622,16.622,0,0,1,3.088-.224l-.016-2.048c-1.136.048-2.88.144-4.528.288-2.928.24-5.568.48-6.912.592C178.368,12.976,177.744,13.008,177.1,13.024ZM187.84,15.68l-1.184.5A12.346,12.346,0,0,1,187.9,18.4l1.216-.544A19.858,19.858,0,0,0,187.84,15.68Zm1.792-.736-1.168.544a14.077,14.077,0,0,1,1.312,2.16l1.2-.576A23.934,23.934,0,0,0,189.632,14.944Zm-185.184,22h7.328v2.192H4.448ZM9.1,44.672H14.32v-1.76H9.1V40.944h4.7V35.12H2.544v5.824H7.136v5.664a4.845,4.845,0,0,1-2.3-2.576c.16-.64.288-1.28.384-1.9L3.232,41.9C3.008,44.08,2.3,46.688.576,48.048a7.94,7.94,0,0,1,1.344,1.3,8.051,8.051,0,0,0,2.192-3.136c1.664,2.448,4.144,3.024,7.36,3.024h3.392a6.986,6.986,0,0,1,.656-1.84c-.88.016-3.248.032-3.936.016a15.337,15.337,0,0,1-2.48-.176ZM27.52,47.36c-.5,0-.576-.08-.576-.608V42.864h4.192v-1.84h-6.16V38.432h4.912V36.608H24.976v-2.16H23.04v2.16H20.976c.176-.544.336-1.056.48-1.552L19.5,34.672a13.332,13.332,0,0,1-2.128,5.1,12.6,12.6,0,0,1,1.68.832,11.589,11.589,0,0,0,1.232-2.176H23.04v2.592H16.912v1.84h3.776c-.24,2.112-.848,3.9-4.032,4.944a6.047,6.047,0,0,1,1.184,1.68c3.68-1.392,4.5-3.776,4.848-6.624h2.336v3.888c0,1.808.416,2.4,2.208,2.4h1.856c1.488,0,2-.688,2.192-3.216a5.282,5.282,0,0,1-1.728-.768c-.064,1.888-.16,2.192-.64,2.192ZM33.1,37.024l.208,2.192c1.856-.4,5.12-.752,6.624-.912a6.4,6.4,0,0,0-2.384,4.944c0,3.472,3.168,5.264,6.528,5.488l.752-2.192c-2.72-.144-5.184-1.088-5.184-3.728a4.862,4.862,0,0,1,3.392-4.48,16.622,16.622,0,0,1,3.088-.224l-.016-2.048c-1.136.048-2.88.144-4.528.288-2.928.24-5.568.48-6.912.592C34.368,36.976,33.744,37.008,33.1,37.024ZM43.84,39.68l-1.184.5A12.345,12.345,0,0,1,43.9,42.4l1.216-.544A19.859,19.859,0,0,0,43.84,39.68Zm1.792-.736-1.168.544a14.076,14.076,0,0,1,1.312,2.16l1.2-.576A23.933,23.933,0,0,0,45.632,38.944Zm6.3,1.264a18.432,18.432,0,0,0,4-3.968,19.282,19.282,0,0,0,4.128,3.968Zm5.008,5.184h4.48V43.728h-4.48v-1.84h3.744V40.64a20.283,20.283,0,0,0,1.728,1.072A9.271,9.271,0,0,1,63.68,40a16.91,16.91,0,0,1-6.848-5.6H54.864a17.46,17.46,0,0,1-6.5,5.792,7.03,7.03,0,0,1,1.2,1.536,20.474,20.474,0,0,0,1.776-1.1v1.264H54.96v1.84H50.528v1.664H54.96v1.9H49.248v1.712H62.864V47.3h-5.92Zm10.624-10.88A16.85,16.85,0,0,1,64.256,40.5a11.4,11.4,0,0,1,1.056,1.984c.32-.384.656-.816.976-1.248V49.36H68.1V38.144a28.02,28.02,0,0,0,1.28-3.088Zm7.344,10.5V40.832a23.4,23.4,0,0,0,1.968,4.176Zm-3.808,0a20.791,20.791,0,0,0,1.952-4.064v4.064Zm8.224-5.9V37.3H74.912V34.528H73.056V37.3H69.008V39.1H72.16a16.361,16.361,0,0,1-3.984,6.5,7.755,7.755,0,0,1,1.36,1.44,11.11,11.11,0,0,0,1.424-1.808V46.7h2.1V49.28h1.856V46.7h2.144V45.3a13.409,13.409,0,0,0,1.28,1.7A7.788,7.788,0,0,1,79.76,45.52a17.285,17.285,0,0,1-3.9-6.416Zm4.992,4.1v-.72h2.656v.72Zm0-2.576h2.656v.72H84.32Zm7.376,0v.72H88.9v-.72Zm0,2.576H88.9v-.72h2.8Zm-2.8,4.24v-.848H94.24V45.168H88.9v-.72h4.752V39.376H88.9v-.608h6.272V37.28H88.9v-.832c1.744-.128,3.408-.3,4.8-.528l-.88-1.472a87.421,87.421,0,0,1-10.768.8,5.018,5.018,0,0,1,.384,1.456c1.44-.016,3.008-.064,4.544-.128v.7H80.864v1.488h6.112v.608H82.464v5.072h4.512v.72h-5.04v1.424h5.04v.848H80.768v1.5H95.28v-1.5Zm14.88-12.272-2.112-.176a8.9,8.9,0,0,1-.32,1.84h-.768a20.819,20.819,0,0,1-2.816-.192v1.872c.88.064,2.048.1,2.7.1h.208a15.7,15.7,0,0,1-3.536,4.416l1.712,1.28a18.422,18.422,0,0,1,1.488-1.76,3.9,3.9,0,0,1,2.5-1.1,1.231,1.231,0,0,1,1.12.544c-1.824.944-3.744,2.224-3.744,4.272,0,2.064,1.856,2.672,4.368,2.672a40.024,40.024,0,0,0,4.528-.272l.064-2.064a26.174,26.174,0,0,1-4.544.448c-1.568,0-2.32-.24-2.32-1.12,0-.8.64-1.424,1.84-2.112-.016.7-.032,1.472-.08,1.952h1.92c-.016-.736-.048-1.92-.064-2.816.976-.448,1.888-.8,2.608-1.088.544-.208,1.392-.528,1.9-.672l-.8-1.856c-.592.3-1.152.56-1.776.832-.656.288-1.328.56-2.16.944a2.167,2.167,0,0,0-2.128-1.232,5.421,5.421,0,0,0-1.808.32,11.171,11.171,0,0,0,.912-1.632,47.662,47.662,0,0,0,5.216-.4L107.9,36.3a40.507,40.507,0,0,1-4.528.464A15.308,15.308,0,0,0,103.776,35.168Zm19.072,6.992a8.55,8.55,0,0,1-2.816,2.944,8.575,8.575,0,0,1-2.688-2.944Zm1.408-1.936-.336.064h-2.992V38.432h5.856V36.544h-5.856v-2.08H118.96v2.08h-5.824v1.888h5.824v1.856h-5.024V42.16h2.96l-1.408.48a12.366,12.366,0,0,0,2.688,3.456,21.087,21.087,0,0,1-5.68,1.456,7.249,7.249,0,0,1,1.04,1.84,21.341,21.341,0,0,0,6.384-2.032,17.056,17.056,0,0,0,6.368,2.064,9.774,9.774,0,0,1,1.216-1.856,18.546,18.546,0,0,1-5.68-1.44,11.312,11.312,0,0,0,3.76-5.152Zm8.736-5.2-.3,1.856c1.9.32,4.9.672,6.576.8l.256-1.872C137.856,35.7,134.784,35.36,132.992,35.024Zm7.088,5.088-1.168-1.328a5.128,5.128,0,0,1-.912.176c-1.328.176-4.96.336-5.712.336a14.162,14.162,0,0,1-1.536-.048l.192,2.208c.336-.048.816-.128,1.376-.176.912-.08,2.832-.256,3.952-.288-1.456,1.536-4.736,4.8-5.552,5.632-.432.416-.816.752-1.1.992l1.888,1.328c1.1-1.408,2.3-2.72,2.848-3.28a1.7,1.7,0,0,1,1.056-.64c.32,0,.672.208.848.768.112.4.3,1.152.464,1.632.4,1.04,1.216,1.376,2.736,1.376a23.366,23.366,0,0,0,3.136-.24l.128-2.1a16.5,16.5,0,0,1-3.136.288,1.017,1.017,0,0,1-1.12-.752c-.144-.416-.32-1.024-.464-1.456a1.519,1.519,0,0,0-.96-1.088,1.756,1.756,0,0,0-.608-.112c.384-.416,1.872-1.792,2.608-2.416C139.328,40.688,139.664,40.4,140.08,40.112Zm4.256-3.12.208,2.192c1.856-.4,5.12-.752,6.624-.912a6.443,6.443,0,0,0-2.368,4.944c0,3.456,3.168,5.264,6.512,5.488l.752-2.192c-2.7-.144-5.168-1.1-5.168-3.728a4.867,4.867,0,0,1,3.376-4.5,18.106,18.106,0,0,1,3.088-.208l-.016-2.048c-1.12.032-2.88.144-4.528.272-2.928.256-5.568.5-6.9.608C145.6,36.944,144.976,36.976,144.336,36.992ZM3.936,64.208a18.432,18.432,0,0,0,4-3.968,19.282,19.282,0,0,0,4.128,3.968Zm5.008,5.184h4.48V67.728H8.944v-1.84h3.744V64.64a20.284,20.284,0,0,0,1.728,1.072A9.271,9.271,0,0,1,15.68,64a16.91,16.91,0,0,1-6.848-5.6H6.864a17.46,17.46,0,0,1-6.5,5.792,7.03,7.03,0,0,1,1.2,1.536,20.471,20.471,0,0,0,1.776-1.1v1.264H6.96v1.84H2.528v1.664H6.96v1.9H1.248v1.712H14.864V71.3H8.944ZM21.1,66.24h5.552v.288c-.192.16-.384.336-.592.5-1.7.1-3.392.192-4.96.272Zm5.552-4.64v.928H21.1V61.6Zm0,3.248H21.1v-.96h5.552Zm2.784-1.616c-.256.4-.528.8-.816,1.168V59.968H24.64c.24-.416.5-.864.72-1.328l-2.336-.224a14.539,14.539,0,0,1-.512,1.552H19.2v7.424q-1.32.048-2.352.1l.256,1.888c1.728-.112,3.92-.288,6.224-.48a26.723,26.723,0,0,1-6.7,2.624,16.212,16.212,0,0,1,1.28,1.744,27.833,27.833,0,0,0,8.752-4.256v2.048c0,.272-.112.368-.432.368-.32.016-1.456.032-2.448-.032a7.964,7.964,0,0,1,.672,2,8.3,8.3,0,0,0,3.264-.352c.7-.3.912-.88.912-1.968V67.344a19.06,19.06,0,0,0,2.656-3.216Zm17.392,3.136a6.093,6.093,0,0,0-6.464-6.24,7.109,7.109,0,0,0-7.344,6.848c0,2.7,1.472,4.656,3.248,4.656,1.744,0,3.12-1.984,4.08-5.216a32.357,32.357,0,0,0,.96-4.336,3.955,3.955,0,0,1,3.36,4.224,4.342,4.342,0,0,1-3.648,4.288,12.307,12.307,0,0,1-1.488.256l1.2,1.9C44.768,72.128,46.832,69.744,46.832,66.368Zm-11.76.4a5.036,5.036,0,0,1,4.064-4.64A24.017,24.017,0,0,1,38.288,66c-.656,2.16-1.28,3.168-1.952,3.168C35.712,69.168,35.072,68.384,35.072,66.768ZM60.48,59.232l-1.264.528a20.241,20.241,0,0,1,1.248,2.224l1.28-.56C61.44,60.832,60.88,59.824,60.48,59.232Zm1.888-.72L61.1,59.04a16.675,16.675,0,0,1,1.28,2.192l1.28-.544A25.025,25.025,0,0,0,62.368,58.512Zm-11.3,8.512a19.277,19.277,0,0,1-2.5,4.448l2.24.944a22,22,0,0,0,2.368-4.576,37.252,37.252,0,0,0,1.36-4.816c.064-.352.24-1.136.384-1.6l-2.336-.48A23.054,23.054,0,0,1,51.072,67.024Zm7.9-.336a49.437,49.437,0,0,1,1.664,5.648l2.368-.768c-.448-1.584-1.3-4.144-1.856-5.584-.608-1.552-1.712-4.016-2.368-5.248l-2.128.688A44.821,44.821,0,0,1,58.976,66.688Zm8.592-6.96v2.064c.464-.032,1.152-.048,1.664-.048H75.36c.576,0,1.328.016,1.76.048V59.728a15.085,15.085,0,0,1-1.728.08h-6.16A13.487,13.487,0,0,1,67.568,59.728Zm10.9,4.64-1.424-.88a3.375,3.375,0,0,1-1.168.16h-7.92c-.5,0-1.184-.048-1.856-.1v2.08c.672-.064,1.472-.08,1.856-.08H75.68a6.941,6.941,0,0,1-1.648,2.768,10.792,10.792,0,0,1-5.536,2.8l1.584,1.808a11.981,11.981,0,0,0,5.712-3.456A11.5,11.5,0,0,0,78.16,65.04,5.926,5.926,0,0,1,78.464,64.368Zm5.392-4.528-1.5,1.6a33.268,33.268,0,0,1,4,3.456l1.632-1.664A32.315,32.315,0,0,0,83.856,59.84Zm-2,10.656L83.2,72.608a17.327,17.327,0,0,0,5.936-2.256,17.014,17.014,0,0,0,5.92-5.92l-1.248-2.256A15.066,15.066,0,0,1,87.984,68.4,16.491,16.491,0,0,1,81.856,70.5Zm27.168-9.344-1.312-.976a5.735,5.735,0,0,1-1.648.208h-5.648a17.876,17.876,0,0,1-1.888-.112v2.272c.336-.016,1.216-.112,1.888-.112h5.424a12.4,12.4,0,0,1-2.384,3.92,17.936,17.936,0,0,1-6.56,4.592l1.648,1.728a21.076,21.076,0,0,0,6.016-4.5,36.486,36.486,0,0,1,4.032,4.528l1.824-1.584a44.98,44.98,0,0,0-4.464-4.576,23.524,23.524,0,0,0,2.512-4.4A7.56,7.56,0,0,1,109.024,61.152Zm10.432-1.984-2.112-.176a8.9,8.9,0,0,1-.32,1.84h-.768a20.819,20.819,0,0,1-2.816-.192v1.872c.88.064,2.048.1,2.7.1h.208a15.7,15.7,0,0,1-3.536,4.416l1.712,1.28a18.423,18.423,0,0,1,1.488-1.76,3.9,3.9,0,0,1,2.5-1.1,1.231,1.231,0,0,1,1.12.544c-1.824.944-3.744,2.224-3.744,4.272,0,2.064,1.856,2.672,4.368,2.672a40.024,40.024,0,0,0,4.528-.272l.064-2.064a26.175,26.175,0,0,1-4.544.448c-1.568,0-2.32-.24-2.32-1.12,0-.8.64-1.424,1.84-2.112-.016.7-.032,1.472-.08,1.952h1.92c-.016-.736-.048-1.92-.064-2.816.976-.448,1.888-.8,2.608-1.088.544-.208,1.392-.528,1.9-.672l-.8-1.856c-.592.3-1.152.56-1.776.832-.656.288-1.328.56-2.16.944a2.167,2.167,0,0,0-2.128-1.232,5.421,5.421,0,0,0-1.808.32,11.171,11.171,0,0,0,.912-1.632,47.662,47.662,0,0,0,5.216-.4l.016-1.856a40.507,40.507,0,0,1-4.528.464A15.308,15.308,0,0,0,119.456,59.168Zm12.32-.688A16.873,16.873,0,0,1,128,64.464a12.717,12.717,0,0,1,1.024,1.952,18.235,18.235,0,0,0,1.216-1.424V73.36h1.808V62.208a26.755,26.755,0,0,0,1.488-3.152Zm3.888,2.336h4.688V62.96h-4.688Zm7.376,6.992V66.08h-4.128V64.64h3.344v-5.5h-8.4v5.5h3.136v1.44H132.8v1.728h3.28a11.494,11.494,0,0,1-3.856,3.456,7.857,7.857,0,0,1,1.312,1.52,12.83,12.83,0,0,0,3.456-3.44v4.048h1.92V69.264a13.212,13.212,0,0,0,3.248,3.552A8.1,8.1,0,0,1,143.5,71.3a12.041,12.041,0,0,1-3.664-3.488Zm1.5-4.576.912,2.24c1.664-.72,5.456-2.32,7.808-2.32a2.636,2.636,0,0,1,2.96,2.656c0,2.784-3.392,4.032-7.728,4.144l.928,2.128c5.632-.288,9.088-2.608,9.088-6.24,0-2.96-2.272-4.624-5.168-4.624-2.336,0-5.6,1.152-6.832,1.536C145.936,62.912,145.136,63.136,144.544,63.232Zm22.32,4.656H168.5l.432-5.472.08-2.384h-2.656l.08,2.384Zm.816,4.256a1.416,1.416,0,1,0-1.408-1.408A1.362,1.362,0,0,0,167.68,72.144Z" transform="translate(150 250)" fill="#458138"/>
  <path id="Path_434" data-name="Path 434" d="M-114.32-2.26c0-.68.78-1.24,2.2-1.24a11.108,11.108,0,0,1,1.64.14c.02.36.02.64.02.86,0,1.16-.7,1.46-1.76,1.46C-113.6-1.04-114.32-1.5-114.32-2.26Zm6.26-13.92h-2.7a8.04,8.04,0,0,1,.12,1.38v.94h-.78a37.339,37.339,0,0,1-4.94-.44l.06,2.28a45.976,45.976,0,0,0,4.9.36h.74c-.02.68-.02,1.4-.02,2.06h-.96a35.341,35.341,0,0,1-4.82-.38l.02,2.36c1.32.16,3.6.26,4.76.26h1.04c.02.6.04,1.24.08,1.86-.4-.04-.82-.06-1.24-.06-3.08,0-4.94,1.42-4.94,3.44,0,2.12,1.68,3.34,4.88,3.34,2.64,0,3.94-1.32,3.94-3.02,0-.22,0-.46-.02-.74A15.33,15.33,0,0,1-103.9.24L-102.46-2a15.658,15.658,0,0,0-5.6-3.02c-.06-.8-.1-1.62-.14-2.38,1.92-.06,3.48-.2,5.28-.4l.02-2.36c-1.62.22-3.32.38-5.34.48v-2.06c1.94-.1,3.76-.28,5.08-.44l.02-2.3a41.917,41.917,0,0,1-5.06.54c0-.32,0-.62.02-.82A13.507,13.507,0,0,1-108.06-16.18Zm15.52,9.92a1.5,1.5,0,0,1,1.52-1.58,1.444,1.444,0,0,1,1.32.7c.26,1.76-.46,2.4-1.3,2.4A1.51,1.51,0,0,1-92.54-6.26Zm7.6-10.18-1.64.68a25.393,25.393,0,0,1,1.3,2.26h-2.4c0-.24.02-.46.02-.62.02-.32.08-1.4.14-1.72H-90.4c.04.26.12.94.18,1.74a5.449,5.449,0,0,1,.02.62c-2.7.04-6.34.12-8.62.14l.06,2.42c2.46-.14,5.58-.28,8.6-.32.02.44.02.9.02,1.34a5.191,5.191,0,0,0-.8-.06A3.805,3.805,0,0,0-94.96-6.2,3.538,3.538,0,0,0-91.5-2.54a4.321,4.321,0,0,0,.92-.1,9.053,9.053,0,0,1-4.9,2.28l2.12,2.14c4.9-1.38,6.44-4.68,6.44-7.3a5.029,5.029,0,0,0-.76-2.78c0-.88,0-1.94-.02-2.96,2.7,0,4.6.06,5.8.12l.02-2.38c-.6,0-1.76,0-3.04.02l1.38-.58A22.781,22.781,0,0,0-84.94-16.44Zm2.68-.56-1.66.68a17.454,17.454,0,0,1,1.4,2.36l1.68-.7A22.125,22.125,0,0,0-82.26-17Zm13.5,12.94v-4.4a22.29,22.29,0,0,0,3.18,4.4Zm-5.64,0a23.305,23.305,0,0,0,3.14-4.36v4.36Zm13.22-6.6v-2.4h-7.58v-3.86h-2.5v3.86h-7.52v2.4h6.1a17.766,17.766,0,0,1-6.88,7.5,11.759,11.759,0,0,1,1.74,1.98A16.985,16.985,0,0,0-74.7-3.74v2.1h3.44V1.74h2.5V-1.64h3.32V-3.92a16.362,16.362,0,0,0,3.26,2.68A10.111,10.111,0,0,1-60.34-3.4a17.471,17.471,0,0,1-6.98-7.26Zm9.92-1.82v4.22h-3.46l1.9-.74a14.251,14.251,0,0,0-1.7-3.48Zm5.9,0a22.525,22.525,0,0,1-1.7,3.64l1.68.58h-3.36v-4.22Zm4.3,6.5V-8.26h-3.88a36.893,36.893,0,0,0,2.1-3.54l-2.3-.68h3.32v-2.28h-6.92v-2.18h-2.52v2.18H-58v2.28h3.4l-2.06.78a13.95,13.95,0,0,1,1.5,3.44h-3.78v2.28h6.28a18.88,18.88,0,0,1-6.84,5,11.286,11.286,0,0,1,1.68,2,20.753,20.753,0,0,0,6.56-5.4v6.1h2.52V-4.42A20.223,20.223,0,0,0-42.2,1.06a11.164,11.164,0,0,1,1.66-2,18.544,18.544,0,0,1-6.78-5.04Zm19.6-1.06c0-4.36-3.12-7.8-8.08-7.8-5.18,0-9.18,3.94-9.18,8.56,0,3.38,1.84,5.82,4.06,5.82,2.18,0,3.9-2.48,5.1-6.52a40.447,40.447,0,0,0,1.2-5.42,4.944,4.944,0,0,1,4.2,5.28,5.427,5.427,0,0,1-4.56,5.36,15.383,15.383,0,0,1-1.86.32l1.5,2.38C-24.04.16-21.46-2.82-21.46-7.04Zm-14.7.5a6.3,6.3,0,0,1,5.08-5.8A30.02,30.02,0,0,1-32.14-7.5c-.82,2.7-1.6,3.96-2.44,3.96C-35.36-3.54-36.16-4.52-36.16-6.54Zm21.72-7.28h9.16v2.74h-9.16Zm5.82,9.66H-2.1v-2.2H-8.62V-8.82h5.88V-16.1H-16.82v7.28h5.74v7.08a6.057,6.057,0,0,1-2.88-3.22c.2-.8.36-1.6.48-2.38l-2.48-.28c-.28,2.72-1.16,5.98-3.32,7.68A9.925,9.925,0,0,1-17.6,1.68a10.064,10.064,0,0,0,2.74-3.92c2.08,3.06,5.18,3.78,9.2,3.78h4.24A8.732,8.732,0,0,1-.6-.76c-1.1.02-4.06.04-4.92.02a19.171,19.171,0,0,1-3.1-.22ZM18.54-7.04c0-4.36-3.12-7.8-8.08-7.8-5.18,0-9.18,3.94-9.18,8.56C1.28-2.9,3.12-.46,5.34-.46c2.18,0,3.9-2.48,5.1-6.52a40.447,40.447,0,0,0,1.2-5.42,4.944,4.944,0,0,1,4.2,5.28,5.427,5.427,0,0,1-4.56,5.36,15.383,15.383,0,0,1-1.86.32L10.92.94C15.96.16,18.54-2.82,18.54-7.04Zm-14.7.5a6.3,6.3,0,0,1,5.08-5.8A30.02,30.02,0,0,1,7.86-7.5c-.82,2.7-1.6,3.96-2.44,3.96C4.64-3.54,3.84-4.52,3.84-6.54ZM36.42-16.66a15.06,15.06,0,0,1-5.16,4.16,7.859,7.859,0,0,1,1.68,1.68,20.364,20.364,0,0,0,5.74-4.92Zm.4,5.5a16.211,16.211,0,0,1-5.28,4.42A10.01,10.01,0,0,1,33.2-5.08a21.331,21.331,0,0,0,5.8-5.2ZM25.2-9.26v-4.3h2.32v4.3Zm6.56,2.2v-2.2H29.84v-4.3H31.5v-2.22H21.04v2.22H23v4.3H20.68v2.2h2.3c-.12,2.68-.62,5.28-2.54,7.32A9.079,9.079,0,0,1,22.18,1.9c2.36-2.46,2.9-5.7,3-8.96h2.34v8.8h2.32v-8.8Zm5.4,1.18A14.3,14.3,0,0,1,30.52-.22a8.907,8.907,0,0,1,1.66,1.94A17.881,17.881,0,0,0,39.42-5ZM49.1-15.66l-2.98-.3a20.354,20.354,0,0,1-.42,4.22c-1.02.1-1.96.16-2.58.18a19.1,19.1,0,0,1-2.14,0l.24,2.72c.62-.1,1.66-.24,2.24-.34.36-.04,1-.12,1.72-.2-.74,2.74-2.12,6.78-4.06,9.4l2.6,1.04c1.84-2.94,3.32-7.68,4.08-10.72.58-.04,1.08-.08,1.4-.08,1.24,0,1.94.22,1.94,1.82a15.873,15.873,0,0,1-.82,5.54,1.467,1.467,0,0,1-1.5.86,11.557,11.557,0,0,1-2.44-.42L46.8.7a13.143,13.143,0,0,0,2.4.28A3.179,3.179,0,0,0,52.48-.86c.86-1.74,1.14-4.98,1.14-7.34,0-2.88-1.5-3.82-3.62-3.82-.42,0-1,.04-1.68.08.14-.72.3-1.46.42-2.06C48.84-14.5,48.98-15.14,49.1-15.66ZM58-17.32l-1.6.64a22.621,22.621,0,0,1,1.62,2.76l1.58-.68A26.606,26.606,0,0,0,58-17.32Zm-2.38.9-1.58.66A22.113,22.113,0,0,1,55.4-13.4l-1.8.78a22.492,22.492,0,0,1,3.36,7.5L59.5-6.28a36.293,36.293,0,0,0-3.26-6.98l.98-.42C56.84-14.42,56.12-15.68,55.62-16.42Zm8.74,1.88v2.64c1.62.14,3.36.22,5.46.22,1.9,0,4.38-.12,5.78-.24v-2.66c-1.54.16-3.82.28-5.8.28A52.466,52.466,0,0,1,64.36-14.54Zm1.68,8.48L63.42-6.3a12.938,12.938,0,0,0-.4,2.88c0,2.74,2.3,4.28,6.88,4.28A30.819,30.819,0,0,0,76.84.18l-.02-2.82a27.461,27.461,0,0,1-7.02.8c-2.88,0-4.1-.92-4.1-2.2A7.369,7.369,0,0,1,66.04-6.06Zm23.02-9.88-2.84-.12a9.07,9.07,0,0,1-.1,2.02c-.04.24-.08.52-.12.82a28.585,28.585,0,0,1-3.92-.38v2.48c1.02.1,2.2.16,3.46.18a32,32,0,0,1-2.28,6.72l2.36.84a7.391,7.391,0,0,1,.56-.88A6.921,6.921,0,0,1,91.72-6.6c1.96,0,2.98,1,2.98,2.2,0,2.94-4.42,3.48-8.8,2.76L86.6.94c6.46.7,10.8-.92,10.8-5.42,0-2.56-2.14-4.28-5.38-4.28A9.745,9.745,0,0,0,87.06-7.5c.3-.98.62-2.26.9-3.48,2.68-.14,5.86-.52,7.94-.86l-.04-2.38a48.971,48.971,0,0,1-7.4.94c.04-.22.08-.44.12-.62C88.72-14.56,88.84-15.24,89.06-15.94Zm17.62-.16-.64,2.4c1.56.4,6.02,1.34,8.04,1.6l.6-2.44A61.215,61.215,0,0,1,106.68-16.1Zm.12,4.02-2.68-.38a73.785,73.785,0,0,1-1,8.36l2.3.58a4.846,4.846,0,0,1,.74-1.16,7.12,7.12,0,0,1,5.56-2.36c1.74,0,2.98.96,2.98,2.26,0,2.54-3.18,4-9.18,3.18l.76,2.62c8.32.7,11.2-2.1,11.2-5.74,0-2.42-2.04-4.58-5.54-4.58a9.79,9.79,0,0,0-5.9,1.9C106.18-8.54,106.54-10.98,106.8-12.08Z" transform="translate(246 25)" fill="#458138"/>
</svg>
