<svg id="レイヤー_1" data-name="レイヤー 1" xmlns="http://www.w3.org/2000/svg" width="334.249" height="49.147" viewBox="0 0 334.249 49.147">
  <g id="Group_1" data-name="Group 1" transform="translate(19.151)">
    <path id="Path_1" data-name="Path 1" d="M828.274,538.161c0,1.928-2.656,3.491-5.932,3.491s-5.932-1.563-5.932-3.491,2.656-3.491,5.932-3.491,5.932,1.563,5.932,3.491" transform="translate(-802.696 -513.146)" fill="#fff" fill-rule="evenodd"/>
    <path id="Path_2" data-name="Path 2" d="M924.588,915.029c0,1.292-1.69,2.339-3.774,2.339s-3.774-1.047-3.774-2.339,1.69-2.339,3.774-2.339,3.774,1.047,3.774,2.339" transform="translate(-899.275 -875.949)" fill="#fff" fill-rule="evenodd"/>
    <path id="Path_3" data-name="Path 3" d="M941.052,745.812c0,1.5-1.753,2.722-3.916,2.722s-3.916-1.219-3.916-2.722,1.753-2.722,3.916-2.722,3.916,1.219,3.916,2.722" transform="translate(-914.804 -713.176)" fill="#fff" fill-rule="evenodd"/>
    <path id="Path_4" data-name="Path 4" d="M874.872,1066.342c0,1-1.483,1.812-3.311,1.812s-3.311-.811-3.311-1.812,1.482-1.812,3.311-1.812,3.311.811,3.311,1.812" transform="translate(-852.449 -1021.677)" fill="#fff" fill-rule="evenodd"/>
    <path id="Path_5" data-name="Path 5" d="M795.6,1157.531c0,.719-.932,1.3-2.082,1.3s-2.082-.583-2.082-1.3.932-1.3,2.082-1.3,2.082.582,2.082,1.3" transform="translate(-778.731 -1109.685)" fill="#fff" fill-rule="evenodd"/>
    <path id="Path_6" data-name="Path 6" d="M608.888,194.289c0-1.292-1.69-2.339-3.774-2.339s-3.774,1.047-3.774,2.339,1.69,2.339,3.774,2.339,3.774-1.047,3.774-2.339" transform="translate(-596.284 -184.223)" fill="#fff" fill-rule="evenodd"/>
    <path id="Path_7" data-name="Path 7" d="M625.352,345.242c0-1.5-1.753-2.722-3.916-2.722s-3.916,1.219-3.916,2.722,1.753,2.722,3.916,2.722,3.916-1.219,3.916-2.722" transform="translate(-611.813 -328.732)" fill="#fff" fill-rule="evenodd"/>
    <path id="Path_8" data-name="Path 8" d="M559.172,68.1c0-1-1.483-1.812-3.311-1.812s-3.311.811-3.311,1.812,1.482,1.812,3.311,1.812,3.311-.811,3.311-1.812" transform="translate(-549.458 -63.621)" fill="#fff" fill-rule="evenodd"/>
    <path id="Path_9" data-name="Path 9" d="M479.9,1.3c0-.718-.932-1.3-2.082-1.3s-2.082.583-2.082,1.3.932,1.3,2.082,1.3,2.082-.583,2.082-1.3" transform="translate(-475.74)" fill="#fff" fill-rule="evenodd"/>
  </g>
  <g id="Group_2" data-name="Group 2">
    <path id="Path_10" data-name="Path 10" d="M9.533,6.143a7.676,7.676,0,0,1,3.52,14.5h8.491a13.7,13.7,0,0,0,1.812-6.819A13.863,13.863,0,0,0,9.533,0H0L1.343,6.143Z" fill="#fff"/>
    <path id="Path_11" data-name="Path 11" d="M134.311,534.12H116.77l1.343,6.143h16.2a7.679,7.679,0,1,1,0,15.358h-12.84l1.343,6.143h11.5a13.822,13.822,0,1,0,0-27.644Z" transform="translate(-112.069 -512.619)" fill="#fff"/>
  </g>
  <g id="Group_4" data-name="Group 4" transform="translate(54.149 10.148)">
    <path id="Path_12" data-name="Path 12" d="M7241.258,380.45a5.744,5.744,0,0,0,1.984,3.968,6.2,6.2,0,0,0,4.11,1.418,6.758,6.758,0,0,0,3.566-.874,9.9,9.9,0,0,0,2.528-2.2l4.064,3.071a11.51,11.51,0,0,1-4.443,3.5,13.078,13.078,0,0,1-5.148,1.039,13.636,13.636,0,0,1-4.82-.85,11.581,11.581,0,0,1-3.92-2.409,11.448,11.448,0,0,1-2.623-3.756,12.854,12.854,0,0,1,0-9.779,11.448,11.448,0,0,1,2.623-3.756,11.567,11.567,0,0,1,3.92-2.409,13.618,13.618,0,0,1,4.82-.851,11.024,11.024,0,0,1,4.322.827,9.265,9.265,0,0,1,3.354,2.386,11.067,11.067,0,0,1,2.174,3.85,16.316,16.316,0,0,1,.779,5.268v1.559h-17.291Zm11.622-4.252a5.344,5.344,0,0,0-1.559-3.944,5.854,5.854,0,0,0-4.2-1.441,5.51,5.51,0,0,0-4.041,1.465,6.533,6.533,0,0,0-1.817,3.921h11.622Z" transform="translate(-6998.464 -361.952)" fill="#fff"/>
    <path id="Path_13" data-name="Path 13" d="M2019.678,380.45a5.754,5.754,0,0,0,1.985,3.968,6.2,6.2,0,0,0,4.11,1.418,6.762,6.762,0,0,0,3.568-.874,9.885,9.885,0,0,0,2.527-2.2l4.064,3.071a11.505,11.505,0,0,1-4.442,3.5,13.084,13.084,0,0,1-5.15,1.039,13.63,13.63,0,0,1-4.819-.85,11.568,11.568,0,0,1-3.921-2.409,11.413,11.413,0,0,1-2.621-3.756,12.836,12.836,0,0,1,0-9.779,11.426,11.426,0,0,1,2.621-3.756,11.558,11.558,0,0,1,3.921-2.409,13.612,13.612,0,0,1,4.819-.851,11.018,11.018,0,0,1,4.323.827,9.279,9.279,0,0,1,3.355,2.386,11.036,11.036,0,0,1,2.173,3.85,16.316,16.316,0,0,1,.779,5.268v1.559h-17.291ZM2031.3,376.2a5.341,5.341,0,0,0-1.559-3.944,5.853,5.853,0,0,0-4.2-1.441,5.509,5.509,0,0,0-4.04,1.465,6.536,6.536,0,0,0-1.819,3.921Z" transform="translate(-1987.084 -361.952)" fill="#fff"/>
    <path id="Path_14" data-name="Path 14" d="M7854.817,373.46a5.189,5.189,0,0,0-4.441-2.315,4.745,4.745,0,0,0-2.22.567,1.925,1.925,0,0,0-1.087,1.843,1.591,1.591,0,0,0,.9,1.512,9.844,9.844,0,0,0,2.27.8q1.37.331,2.951.685a11.609,11.609,0,0,1,2.954,1.087,6.458,6.458,0,0,1,2.266,2.008,5.974,5.974,0,0,1,.9,3.5,6.326,6.326,0,0,1-.875,3.425,6.889,6.889,0,0,1-2.269,2.244,10.06,10.06,0,0,1-3.141,1.229,16.5,16.5,0,0,1-3.5.378,15.031,15.031,0,0,1-4.866-.756,9.248,9.248,0,0,1-3.969-2.74l3.781-3.543a10.584,10.584,0,0,0,2.339,2.008,5.647,5.647,0,0,0,3.045.779,6.112,6.112,0,0,0,1.277-.142,4.171,4.171,0,0,0,1.229-.472,2.936,2.936,0,0,0,.92-.827,2.121,2.121,0,0,0-.543-2.906,7.97,7.97,0,0,0-2.266-.921c-.916-.236-1.9-.457-2.954-.661a11.423,11.423,0,0,1-2.954-.992,6.2,6.2,0,0,1-2.267-1.913,5.658,5.658,0,0,1-.9-3.4,6.613,6.613,0,0,1,.779-3.284,6.879,6.879,0,0,1,2.054-2.291,8.9,8.9,0,0,1,2.931-1.323,13.37,13.37,0,0,1,7.843.354,7.335,7.335,0,0,1,3.59,2.67l-3.779,3.4Z" transform="translate(-7579.206 -362)" fill="#fff"/>
    <path id="Path_15" data-name="Path 15" d="M5504.285,373.46a5.188,5.188,0,0,0-4.44-2.315,4.747,4.747,0,0,0-2.221.567,1.926,1.926,0,0,0-1.087,1.843,1.59,1.59,0,0,0,.9,1.512,9.831,9.831,0,0,0,2.269.8q1.369.331,2.951.685a11.609,11.609,0,0,1,2.954,1.087,6.458,6.458,0,0,1,2.266,2.008,5.97,5.97,0,0,1,.9,3.5,6.326,6.326,0,0,1-.875,3.425,6.889,6.889,0,0,1-2.269,2.244,10.061,10.061,0,0,1-3.141,1.229,16.509,16.509,0,0,1-3.5.378,15.031,15.031,0,0,1-4.866-.756,9.23,9.23,0,0,1-3.968-2.74l3.78-3.543a10.584,10.584,0,0,0,2.339,2.008,5.647,5.647,0,0,0,3.045.779,6.112,6.112,0,0,0,1.277-.142,4.171,4.171,0,0,0,1.229-.472,2.929,2.929,0,0,0,.92-.827,2.121,2.121,0,0,0-.543-2.906,7.97,7.97,0,0,0-2.266-.921c-.916-.236-1.9-.457-2.954-.661a11.429,11.429,0,0,1-2.954-.992,6.19,6.19,0,0,1-2.266-1.913,5.668,5.668,0,0,1-.9-3.4,6.644,6.644,0,0,1,.779-3.284,6.9,6.9,0,0,1,2.055-2.291,8.9,8.9,0,0,1,2.931-1.323,13.372,13.372,0,0,1,7.843.354,7.336,7.336,0,0,1,3.589,2.67l-3.779,3.4Z" transform="translate(-5323.298 -362)" fill="#fff"/>
    <g id="Group_3" data-name="Group 3" transform="translate(187.377 0.055)">
      <path id="Path_16" data-name="Path 16" d="M6005.447,261.962h.095a6.619,6.619,0,0,1,2.339-2.575,7.449,7.449,0,0,1,4.322-1.157,8.9,8.9,0,0,1,3.851.756,7.3,7.3,0,0,1,2.574,1.985,7.536,7.536,0,0,1,1.418,2.835,13.111,13.111,0,0,1,.426,3.354v14.315H6014.8V269.994q0-.944-.092-2.1a7.625,7.625,0,0,0-.5-2.173,4.067,4.067,0,0,0-1.251-1.7,3.592,3.592,0,0,0-2.315-.685,5.326,5.326,0,0,0-2.387.473,4.577,4.577,0,0,0-1.6,1.276,5.048,5.048,0,0,0-.92,1.842,8.189,8.189,0,0,0-.285,2.173v12.378h-5.667v-28h5.667v8.492Z" transform="translate(-5999.78 -253.47)" fill="#fff"/>
      <path id="Path_17" data-name="Path 17" d="M6571.86,383.616a11.986,11.986,0,0,1,.966-4.889,11.441,11.441,0,0,1,2.623-3.756,11.559,11.559,0,0,1,3.92-2.409,14.075,14.075,0,0,1,9.638,0,11.551,11.551,0,0,1,3.923,2.409,11.432,11.432,0,0,1,2.623,3.756,12.854,12.854,0,0,1,0,9.779,11.269,11.269,0,0,1-6.546,6.166,14.088,14.088,0,0,1-9.638,0,11.579,11.579,0,0,1-3.92-2.409,11.441,11.441,0,0,1-2.623-3.756A11.987,11.987,0,0,1,6571.86,383.616Zm5.668,0a7.345,7.345,0,0,0,.449,2.551,6.333,6.333,0,0,0,1.323,2.173,6.7,6.7,0,0,0,9.778,0,6.413,6.413,0,0,0,1.323-2.173,7.476,7.476,0,0,0,0-5.1,6.434,6.434,0,0,0-1.323-2.173,6.7,6.7,0,0,0-9.778,0,6.339,6.339,0,0,0-1.323,2.173A7.354,7.354,0,0,0,6577.528,383.616Z" transform="translate(-6548.831 -366.95)" fill="#fff"/>
    </g>
    <path id="Path_18" data-name="Path 18" d="M2614.346,385.8h-5.906l-5.669,15.732h-.095l-6.331-15.732h-6.236l9.273,21.894a3.278,3.278,0,0,1-.953.432,6.953,6.953,0,0,1-1.748.188,6.727,6.727,0,0,1-1.488-.165,12.019,12.019,0,0,1-1.394-.4l-.709,5.1a16.789,16.789,0,0,0,4.346.567,11.422,11.422,0,0,0,3.237-.4,6.524,6.524,0,0,0,2.338-1.228,8.106,8.106,0,0,0,1.725-2.032,17.4,17.4,0,0,0,1.346-2.811l1.308-3.359.041-.027Z" transform="translate(-2539.992 -380.418)" fill="#fff"/>
    <path id="Path_19" data-name="Path 19" d="M3171.25,383.616a11.983,11.983,0,0,1,.969-4.889,11.42,11.42,0,0,1,2.622-3.756,11.56,11.56,0,0,1,3.92-2.409,14.075,14.075,0,0,1,9.638,0,11.556,11.556,0,0,1,3.923,2.409,11.431,11.431,0,0,1,2.623,3.756,12.851,12.851,0,0,1,0,9.779,11.447,11.447,0,0,1-2.623,3.756,11.568,11.568,0,0,1-3.923,2.409,14.088,14.088,0,0,1-9.638,0,11.58,11.58,0,0,1-3.92-2.409,11.424,11.424,0,0,1-2.622-3.756A11.983,11.983,0,0,1,3171.25,383.616Zm5.67,0a7.344,7.344,0,0,0,.449,2.551,6.337,6.337,0,0,0,1.323,2.173,6.7,6.7,0,0,0,9.779,0,6.413,6.413,0,0,0,1.323-2.173,7.472,7.472,0,0,0,0-5.1,6.43,6.43,0,0,0-1.323-2.173,6.7,6.7,0,0,0-9.779,0,6.35,6.35,0,0,0-1.323,2.173A7.365,7.365,0,0,0,3176.92,383.616Z" transform="translate(-3097.738 -366.895)" fill="#fff"/>
    <path id="Path_20" data-name="Path 20" d="M3845.728,366.6h-.411c-9.687,0-10.6,9.931-10.6,9.931V390.05h5.334V379.685q0-1.051.123-2.34a7.455,7.455,0,0,1,.646-2.418,4.667,4.667,0,0,1,1.633-1.894,4.833,4.833,0,0,1,6.133,0,4.662,4.662,0,0,1,1.633,1.894,7.455,7.455,0,0,1,.646,2.418q.123,1.289.122,2.34V390.05h5.334V376.531S3855.415,366.6,3845.728,366.6Z" transform="translate(-3734.499 -361.991)" fill="#fff"/>
    <path id="Path_21" data-name="Path 21" d="M4454.106,252.1v6.683a12.239,12.239,0,0,0-2.1-1.017,14.075,14.075,0,0,0-9.638,0,11.568,11.568,0,0,0-3.92,2.409,11.415,11.415,0,0,0-2.622,3.756,12.824,12.824,0,0,0,0,9.779,11.428,11.428,0,0,0,2.622,3.756,11.586,11.586,0,0,0,3.92,2.409,14.088,14.088,0,0,0,9.638,0,12.261,12.261,0,0,0,2.1-1.018v.973h5.415V252.1Zm-.7,19.272a6.417,6.417,0,0,1-1.323,2.173,6.7,6.7,0,0,1-9.779,0,6.337,6.337,0,0,1-1.323-2.173,7.476,7.476,0,0,1,0-5.1,6.35,6.35,0,0,1,1.323-2.173,6.7,6.7,0,0,1,9.779,0,6.422,6.422,0,0,1,1.323,2.173,7.468,7.468,0,0,1,0,5.1Z" transform="translate(-4310.48 -252.1)" fill="#fff"/>
    <path id="Path_22" data-name="Path 22" d="M1345.12,252.1v27.731h5.415v-.973a12.308,12.308,0,0,0,2.1,1.018,14.088,14.088,0,0,0,9.638,0,11.584,11.584,0,0,0,3.92-2.409,11.428,11.428,0,0,0,2.622-3.756,12.827,12.827,0,0,0,0-9.779,11.422,11.422,0,0,0-2.622-3.756,11.559,11.559,0,0,0-3.92-2.409,14.075,14.075,0,0,0-9.638,0,12.218,12.218,0,0,0-2.1,1.017V252.1Zm5.669,16.721a7.354,7.354,0,0,1,.449-2.551,6.428,6.428,0,0,1,1.323-2.173,6.7,6.7,0,0,1,9.779,0,6.348,6.348,0,0,1,1.323,2.173,7.474,7.474,0,0,1,0,5.1,6.334,6.334,0,0,1-1.323,2.173,6.7,6.7,0,0,1-9.779,0,6.414,6.414,0,0,1-1.323-2.173A7.356,7.356,0,0,1,1350.789,268.821Z" transform="translate(-1345.12 -252.1)" fill="#fff"/>
  </g>
</svg>
