<svg id="レイヤー_1" data-name="レイヤー 1" xmlns="http://www.w3.org/2000/svg" width="214" height="31.466" viewBox="0 0 214 31.466">
  <g id="Group_1" data-name="Group 1" transform="translate(12.261)">
    <path id="Path_1" data-name="Path 1" d="M824.006,536.9c0,1.234-1.7,2.235-3.8,2.235s-3.8-1-3.8-2.235,1.7-2.235,3.8-2.235,3.8,1,3.8,2.235" transform="translate(-807.63 -520.89)" fill="#458138" fill-rule="evenodd"/>
    <path id="Path_2" data-name="Path 2" d="M921.873,914.188c0,.827-1.082,1.5-2.416,1.5s-2.416-.67-2.416-1.5,1.082-1.5,2.416-1.5,2.416.67,2.416,1.5" transform="translate(-905.666 -889.167)" fill="#458138" fill-rule="evenodd"/>
    <path id="Path_3" data-name="Path 3" d="M938.234,744.833c0,.962-1.122,1.743-2.507,1.743s-2.507-.78-2.507-1.743,1.122-1.743,2.507-1.743,2.507.78,2.507,1.743" transform="translate(-921.429 -723.938)" fill="#458138" fill-rule="evenodd"/>
    <path id="Path_4" data-name="Path 4" d="M872.49,1065.69c0,.641-.949,1.16-2.12,1.16s-2.12-.519-2.12-1.16.949-1.16,2.12-1.16,2.12.519,2.12,1.16" transform="translate(-858.134 -1037.094)" fill="#458138" fill-rule="evenodd"/>
    <path id="Path_5" data-name="Path 5" d="M794.106,1157.063c0,.46-.6.833-1.333.833s-1.333-.373-1.333-.833.6-.833,1.333-.833,1.333.373,1.333.833" transform="translate(-783.303 -1126.43)" fill="#458138" fill-rule="evenodd"/>
    <path id="Path_6" data-name="Path 6" d="M606.172,193.447c0-.827-1.082-1.5-2.416-1.5s-2.416.67-2.416,1.5,1.082,1.5,2.416,1.5,2.416-.67,2.416-1.5" transform="translate(-598.103 -187.003)" fill="#458138" fill-rule="evenodd"/>
    <path id="Path_7" data-name="Path 7" d="M622.534,344.263c0-.962-1.122-1.743-2.507-1.743s-2.507.78-2.507,1.743,1.122,1.743,2.507,1.743,2.507-.78,2.507-1.743" transform="translate(-613.866 -333.692)" fill="#458138" fill-rule="evenodd"/>
    <path id="Path_8" data-name="Path 8" d="M556.79,67.45c0-.641-.949-1.16-2.12-1.16s-2.12.519-2.12,1.16.949,1.16,2.12,1.16,2.12-.519,2.12-1.16" transform="translate(-550.57 -64.581)" fill="#458138" fill-rule="evenodd"/>
    <path id="Path_9" data-name="Path 9" d="M478.406.833c0-.46-.6-.833-1.333-.833s-1.333.373-1.333.833.6.833,1.333.833,1.333-.373,1.333-.833" transform="translate(-475.74)" fill="#458138" fill-rule="evenodd"/>
  </g>
  <g id="Group_2" data-name="Group 2">
    <path id="Path_10" data-name="Path 10" d="M6.1,3.933a4.914,4.914,0,0,1,2.253,9.283h5.436a8.774,8.774,0,0,0,1.16-4.366A8.876,8.876,0,0,0,6.1,0H0L.86,3.933Z" fill="#458138"/>
    <path id="Path_11" data-name="Path 11" d="M128,534.12H116.77l.86,3.933H128a4.917,4.917,0,0,1,0,9.833H119.78l.86,3.933H128a8.85,8.85,0,1,0,0-17.7Z" transform="translate(-113.76 -520.354)" fill="#458138"/>
  </g>
  <g id="Group_4" data-name="Group 4" transform="translate(34.668 6.497)">
    <path id="Path_12" data-name="Path 12" d="M7239.219,375.453a3.674,3.674,0,0,0,1.271,2.541,3.969,3.969,0,0,0,2.631.908,4.33,4.33,0,0,0,2.284-.56,6.34,6.34,0,0,0,1.618-1.406l2.6,1.966a7.368,7.368,0,0,1-2.845,2.238,8.371,8.371,0,0,1-3.3.665,8.728,8.728,0,0,1-3.086-.544,7.407,7.407,0,0,1-2.51-1.543,7.33,7.33,0,0,1-1.68-2.4,8.224,8.224,0,0,1,0-6.261,7.33,7.33,0,0,1,1.68-2.4,7.4,7.4,0,0,1,2.51-1.543,8.717,8.717,0,0,1,3.086-.545,7.06,7.06,0,0,1,2.768.529,5.938,5.938,0,0,1,2.147,1.527,7.084,7.084,0,0,1,1.392,2.465,10.426,10.426,0,0,1,.5,3.373v1h-11.07Zm7.44-2.722a3.421,3.421,0,0,0-1-2.525,3.747,3.747,0,0,0-2.691-.923,3.527,3.527,0,0,0-2.587.938,4.178,4.178,0,0,0-1.164,2.51h7.441Z" transform="translate(-7083.771 -363.61)" fill="#231916"/>
    <path id="Path_13" data-name="Path 13" d="M2017.639,375.453a3.683,3.683,0,0,0,1.271,2.541,3.971,3.971,0,0,0,2.631.908,4.33,4.33,0,0,0,2.284-.56,6.33,6.33,0,0,0,1.618-1.406l2.6,1.966a7.367,7.367,0,0,1-2.844,2.238,8.377,8.377,0,0,1-3.3.665,8.727,8.727,0,0,1-3.085-.544,7.405,7.405,0,0,1-2.51-1.543,7.309,7.309,0,0,1-1.678-2.4,8.218,8.218,0,0,1,0-6.261,7.316,7.316,0,0,1,1.678-2.4,7.4,7.4,0,0,1,2.51-1.543,8.715,8.715,0,0,1,3.085-.545,7.054,7.054,0,0,1,2.768.529,5.944,5.944,0,0,1,2.148,1.527,7.068,7.068,0,0,1,1.391,2.465,10.446,10.446,0,0,1,.5,3.373v1h-11.071Zm7.441-2.722a3.419,3.419,0,0,0-1-2.525,3.747,3.747,0,0,0-2.692-.923,3.527,3.527,0,0,0-2.586.938,4.186,4.186,0,0,0-1.165,2.51Z" transform="translate(-1996.771 -363.61)" fill="#231916"/>
    <path id="Path_14" data-name="Path 14" d="M7849.735,371a3.322,3.322,0,0,0-2.843-1.482,3.038,3.038,0,0,0-1.421.363,1.233,1.233,0,0,0-.7,1.18,1.018,1.018,0,0,0,.574.968,6.311,6.311,0,0,0,1.453.514q.877.212,1.89.438a7.435,7.435,0,0,1,1.891.7,4.137,4.137,0,0,1,1.451,1.285,3.824,3.824,0,0,1,.576,2.239,4.051,4.051,0,0,1-.56,2.193,4.409,4.409,0,0,1-1.453,1.437,6.438,6.438,0,0,1-2.011.787,10.56,10.56,0,0,1-2.238.242,9.622,9.622,0,0,1-3.116-.484,5.922,5.922,0,0,1-2.541-1.754l2.421-2.269a6.772,6.772,0,0,0,1.5,1.286,3.615,3.615,0,0,0,1.95.5,3.912,3.912,0,0,0,.817-.091,2.671,2.671,0,0,0,.787-.3,1.877,1.877,0,0,0,.589-.529,1.244,1.244,0,0,0,.227-.741,1.231,1.231,0,0,0-.575-1.119,5.1,5.1,0,0,0-1.451-.59c-.586-.151-1.215-.292-1.891-.423a7.32,7.32,0,0,1-1.891-.635,3.971,3.971,0,0,1-1.451-1.225,3.625,3.625,0,0,1-.574-2.178,4.236,4.236,0,0,1,.5-2.1,4.405,4.405,0,0,1,1.315-1.467,5.7,5.7,0,0,1,1.876-.847,8.56,8.56,0,0,1,5.021.227,4.7,4.7,0,0,1,2.3,1.709L7849.735,371Z" transform="translate(-7673.277 -363.659)" fill="#231916"/>
    <path id="Path_15" data-name="Path 15" d="M5499.2,371a3.322,3.322,0,0,0-2.843-1.482,3.04,3.04,0,0,0-1.422.363,1.233,1.233,0,0,0-.7,1.18,1.018,1.018,0,0,0,.575.968,6.3,6.3,0,0,0,1.453.514q.876.212,1.89.438a7.432,7.432,0,0,1,1.891.7,4.134,4.134,0,0,1,1.451,1.285,3.82,3.82,0,0,1,.576,2.239,4.051,4.051,0,0,1-.56,2.193,4.406,4.406,0,0,1-1.453,1.437,6.435,6.435,0,0,1-2.011.787,10.568,10.568,0,0,1-2.239.242,9.626,9.626,0,0,1-3.116-.484,5.907,5.907,0,0,1-2.54-1.754l2.42-2.269a6.774,6.774,0,0,0,1.5,1.286,3.613,3.613,0,0,0,1.949.5,3.92,3.92,0,0,0,.818-.091,2.671,2.671,0,0,0,.787-.3,1.87,1.87,0,0,0,.589-.529,1.358,1.358,0,0,0-.348-1.86,5.115,5.115,0,0,0-1.451-.59c-.586-.151-1.215-.292-1.891-.423a7.314,7.314,0,0,1-1.891-.635,3.965,3.965,0,0,1-1.451-1.225,3.629,3.629,0,0,1-.576-2.178,4.257,4.257,0,0,1,.5-2.1,4.414,4.414,0,0,1,1.316-1.467,5.7,5.7,0,0,1,1.876-.847,8.561,8.561,0,0,1,5.021.227,4.7,4.7,0,0,1,2.3,1.709L5499.2,371Z" transform="translate(-5383.328 -363.659)" fill="#231916"/>
    <g id="Group_3" data-name="Group 3" transform="translate(119.966 0.035)">
      <path id="Path_16" data-name="Path 16" d="M6003.408,258.907h.061a4.238,4.238,0,0,1,1.5-1.648,4.768,4.768,0,0,1,2.767-.741,5.693,5.693,0,0,1,2.465.484,4.674,4.674,0,0,1,1.648,1.271,4.82,4.82,0,0,1,.908,1.815,8.374,8.374,0,0,1,.273,2.147V271.4H6009.4v-7.35q0-.6-.059-1.346a4.877,4.877,0,0,0-.318-1.391,2.6,2.6,0,0,0-.8-1.089,2.3,2.3,0,0,0-1.481-.439,3.41,3.41,0,0,0-1.528.3,2.927,2.927,0,0,0-1.027.817,3.236,3.236,0,0,0-.59,1.179,5.264,5.264,0,0,0-.182,1.392V271.4h-3.629V253.47h3.629v5.437Z" transform="translate(-5999.78 -253.47)" fill="#231916"/>
      <path id="Path_17" data-name="Path 17" d="M6571.86,379.332a7.682,7.682,0,0,1,.618-3.13,7.22,7.22,0,0,1,4.189-3.947,9.01,9.01,0,0,1,6.17,0,7.4,7.4,0,0,1,2.512,1.543,7.324,7.324,0,0,1,1.68,2.4,8.236,8.236,0,0,1,0,6.261,7.216,7.216,0,0,1-4.191,3.947,9.018,9.018,0,0,1-6.17,0,7.407,7.407,0,0,1-2.51-1.543,7.33,7.33,0,0,1-1.68-2.4A7.683,7.683,0,0,1,6571.86,379.332Zm3.629,0a4.7,4.7,0,0,0,.287,1.633,4.045,4.045,0,0,0,.848,1.392,4.288,4.288,0,0,0,6.26,0,4.091,4.091,0,0,0,.847-1.392,4.774,4.774,0,0,0,0-3.267,4.1,4.1,0,0,0-.847-1.391,4.288,4.288,0,0,0-6.26,0,4.054,4.054,0,0,0-.848,1.391A4.706,4.706,0,0,0,6575.489,379.332Z" transform="translate(-6557.116 -368.663)" fill="#231916"/>
    </g>
    <path id="Path_18" data-name="Path 18" d="M2605.627,385.8h-3.781l-3.629,10.072h-.061L2594.1,385.8h-3.992l5.937,14.017a2.1,2.1,0,0,1-.61.276,4.449,4.449,0,0,1-1.119.121,4.306,4.306,0,0,1-.953-.106,7.693,7.693,0,0,1-.892-.257l-.454,3.267a10.749,10.749,0,0,0,2.783.363,7.314,7.314,0,0,0,2.072-.257,4.177,4.177,0,0,0,1.5-.786,5.186,5.186,0,0,0,1.1-1.3,11.162,11.162,0,0,0,.862-1.8l.838-2.15.026-.018Z" transform="translate(-2558.022 -382.354)" fill="#231916"/>
    <path id="Path_19" data-name="Path 19" d="M3171.25,379.332a7.675,7.675,0,0,1,.62-3.13,7.31,7.31,0,0,1,1.679-2.4,7.4,7.4,0,0,1,2.51-1.543,9.012,9.012,0,0,1,6.171,0,7.4,7.4,0,0,1,2.511,1.543,7.316,7.316,0,0,1,1.679,2.4,8.227,8.227,0,0,1,0,6.261,7.324,7.324,0,0,1-1.679,2.4,7.4,7.4,0,0,1-2.511,1.543,9.02,9.02,0,0,1-6.171,0,7.414,7.414,0,0,1-2.51-1.543,7.317,7.317,0,0,1-1.679-2.4A7.675,7.675,0,0,1,3171.25,379.332Zm3.63,0a4.7,4.7,0,0,0,.287,1.633,4.055,4.055,0,0,0,.847,1.392,4.29,4.29,0,0,0,6.261,0,4.106,4.106,0,0,0,.847-1.392,4.785,4.785,0,0,0,0-3.267,4.116,4.116,0,0,0-.847-1.391,4.29,4.29,0,0,0-6.261,0,4.064,4.064,0,0,0-.847,1.391A4.717,4.717,0,0,0,3174.88,379.332Z" transform="translate(-3124.184 -368.627)" fill="#231916"/>
    <path id="Path_20" data-name="Path 20" d="M3841.768,366.6h-.264c-6.2,0-6.784,6.359-6.784,6.359v8.655h3.415v-6.636q0-.673.079-1.5a4.765,4.765,0,0,1,.414-1.548,2.988,2.988,0,0,1,1.045-1.212,3.094,3.094,0,0,1,3.926,0,2.984,2.984,0,0,1,1.045,1.212,4.777,4.777,0,0,1,.414,1.548q.079.825.078,1.5v6.636h3.416v-8.655S3847.97,366.6,3841.768,366.6Z" transform="translate(-3770.555 -363.649)" fill="#231916"/>
    <path id="Path_21" data-name="Path 21" d="M4447.182,252.1v4.279a7.857,7.857,0,0,0-1.343-.651,9.011,9.011,0,0,0-6.17,0,7.4,7.4,0,0,0-2.51,1.543,7.309,7.309,0,0,0-1.679,2.4,8.212,8.212,0,0,0,0,6.261,7.317,7.317,0,0,0,1.679,2.4,7.417,7.417,0,0,0,2.51,1.543,9.02,9.02,0,0,0,6.17,0,7.861,7.861,0,0,0,1.343-.652v.623h3.466V252.1Zm-.45,12.339a4.112,4.112,0,0,1-.847,1.392,4.29,4.29,0,0,1-6.261,0,4.054,4.054,0,0,1-.847-1.392,4.789,4.789,0,0,1,0-3.267,4.062,4.062,0,0,1,.847-1.391,4.29,4.29,0,0,1,6.261,0,4.121,4.121,0,0,1,.847,1.391,4.789,4.789,0,0,1,0,3.267Z" transform="translate(-4355.227 -252.1)"/>
    <path id="Path_22" data-name="Path 22" d="M1345.12,252.1v17.755h3.467v-.623a7.886,7.886,0,0,0,1.343.652,9.02,9.02,0,0,0,6.171,0,7.416,7.416,0,0,0,2.51-1.543,7.317,7.317,0,0,0,1.679-2.4,8.214,8.214,0,0,0,0-6.261,7.314,7.314,0,0,0-1.679-2.4,7.4,7.4,0,0,0-2.51-1.543,9.012,9.012,0,0,0-6.171,0,7.826,7.826,0,0,0-1.343.651V252.1Zm3.629,10.705a4.708,4.708,0,0,1,.287-1.633,4.115,4.115,0,0,1,.847-1.391,4.29,4.29,0,0,1,6.261,0,4.063,4.063,0,0,1,.847,1.391,4.785,4.785,0,0,1,0,3.267,4.054,4.054,0,0,1-.847,1.392,4.289,4.289,0,0,1-6.261,0,4.106,4.106,0,0,1-.847-1.392A4.71,4.71,0,0,1,1348.749,262.805Z" transform="translate(-1345.12 -252.1)"/>
  </g>
</svg>
