<svg id="Component_9_1" data-name="Component 9 – 1" xmlns="http://www.w3.org/2000/svg" width="1263" height="145" viewBox="0 0 1263 145">
  <rect id="Rectangle_88" data-name="Rectangle 88" width="1263" height="145" fill="none"/>
  <g id="Group_4" data-name="Group 4" transform="translate(41.854 1)" opacity="0.1">
    <path id="Path_12" data-name="Path 12" d="M7260.328,427.174q1.222,11.13,8.661,17.317a27.056,27.056,0,0,0,17.932,6.187c6.19,0,11.368-1.27,15.568-3.816a43.127,43.127,0,0,0,11.029-9.586l17.734,13.4q-8.659,10.719-19.391,15.255a57.05,57.05,0,0,1-22.466,4.534,59.5,59.5,0,0,1-21.035-3.708,50.565,50.565,0,0,1-17.106-10.514,50.044,50.044,0,0,1-11.447-16.391,56.082,56.082,0,0,1,0-42.675,49.2,49.2,0,0,1,28.554-26.905,59.423,59.423,0,0,1,21.035-3.712,48.128,48.128,0,0,1,18.865,3.608,40.476,40.476,0,0,1,14.636,10.41,48.334,48.334,0,0,1,9.486,16.8,71.174,71.174,0,0,1,3.4,22.989v6.8h-75.453Zm50.715-18.556q-.221-10.925-6.8-17.212-6.615-6.285-18.345-6.289-11.143,0-17.632,6.391-6.5,6.39-7.937,17.11h50.721Z" transform="translate(-6231.827 -346.453)" fill="#fff"/>
    <path id="Path_13" data-name="Path 13" d="M2038.744,427.174q1.234,11.13,8.662,17.317a27.07,27.07,0,0,0,17.934,6.187q9.281,0,15.569-3.816a43.159,43.159,0,0,0,11.025-9.586l17.734,13.4q-8.658,10.719-19.382,15.255a57.108,57.108,0,0,1-22.471,4.534,59.475,59.475,0,0,1-21.03-3.708,50.467,50.467,0,0,1-17.112-10.514,49.813,49.813,0,0,1-11.439-16.391,56,56,0,0,1,0-42.675,49.876,49.876,0,0,1,11.439-16.392,50.432,50.432,0,0,1,17.112-10.514,59.4,59.4,0,0,1,21.03-3.712,48.083,48.083,0,0,1,18.863,3.608,40.527,40.527,0,0,1,14.641,10.41,48.18,48.18,0,0,1,9.481,16.8,71.2,71.2,0,0,1,3.4,22.989v6.8h-75.454Zm50.719-18.556q-.212-10.925-6.8-17.212t-18.348-6.289q-11.136,0-17.628,6.391t-7.94,17.11Z" transform="translate(-1896.508 -346.453)" fill="#fff"/>
    <path id="Path_14" data-name="Path 14" d="M7902.338,396.5q-7.217-10.1-19.38-10.1a20.728,20.728,0,0,0-9.689,2.474,8.4,8.4,0,0,0-4.742,8.042,6.94,6.94,0,0,0,3.911,6.6,43.124,43.124,0,0,0,9.9,3.5q5.979,1.444,12.884,2.988a50.728,50.728,0,0,1,12.89,4.743,28.2,28.2,0,0,1,9.887,8.76q3.927,5.568,3.924,15.259,0,8.867-3.816,14.944a30.065,30.065,0,0,1-9.9,9.793,43.909,43.909,0,0,1-13.709,5.361,71.992,71.992,0,0,1-15.258,1.648,65.582,65.582,0,0,1-21.233-3.3,40.381,40.381,0,0,1-17.321-11.958l16.5-15.462a46.226,46.226,0,0,0,10.2,8.764,24.647,24.647,0,0,0,13.29,3.4,26.708,26.708,0,0,0,5.574-.618,18.234,18.234,0,0,0,5.359-2.061,12.8,12.8,0,0,0,4.02-3.608,8.512,8.512,0,0,0,1.543-5.052,8.4,8.4,0,0,0-3.917-7.627,34.813,34.813,0,0,0-9.888-4.019c-4-1.031-8.282-1.992-12.89-2.886a49.84,49.84,0,0,1-12.889-4.33,27.1,27.1,0,0,1-9.894-8.35q-3.926-5.362-3.912-14.844a28.9,28.9,0,0,1,3.4-14.329,30.04,30.04,0,0,1,8.966-10,38.858,38.858,0,0,1,12.787-5.772,58.349,58.349,0,0,1,34.225,1.546,32.016,32.016,0,0,1,15.664,11.65l-16.49,14.844Z" transform="translate(-6730.631 -346.495)" fill="#fff"/>
    <path id="Path_15" data-name="Path 15" d="M5551.8,396.5q-7.22-10.1-19.379-10.1a20.712,20.712,0,0,0-9.692,2.474,8.4,8.4,0,0,0-4.743,8.042,6.94,6.94,0,0,0,3.918,6.6,42.919,42.919,0,0,0,9.9,3.5q5.97,1.444,12.878,2.988a50.621,50.621,0,0,1,12.886,4.743,28.17,28.17,0,0,1,9.893,8.76q3.93,5.568,3.926,15.259,0,8.867-3.813,14.944a30.041,30.041,0,0,1-9.9,9.793,43.874,43.874,0,0,1-13.706,5.361,72.017,72.017,0,0,1-15.258,1.648,65.626,65.626,0,0,1-21.239-3.3,40.249,40.249,0,0,1-17.31-11.958l16.493-15.462a46.129,46.129,0,0,0,10.209,8.764,24.631,24.631,0,0,0,13.285,3.4,26.731,26.731,0,0,0,5.577-.618,18.2,18.2,0,0,0,5.359-2.061,12.712,12.712,0,0,0,4.014-3.608,9.253,9.253,0,0,0-2.369-12.68,34.855,34.855,0,0,0-9.89-4.019c-3.994-1.031-8.282-1.992-12.889-2.886a49.864,49.864,0,0,1-12.892-4.33,27.029,27.029,0,0,1-9.887-8.35q-3.918-5.362-3.923-14.844a29,29,0,0,1,3.4-14.329,30.054,30.054,0,0,1,8.969-10,38.865,38.865,0,0,1,12.788-5.772,58.357,58.357,0,0,1,34.227,1.546,32.02,32.02,0,0,1,15.662,11.65L5551.8,396.505Z" transform="translate(-4793.013 -346.495)" fill="#fff"/>
    <g id="Group_3" data-name="Group 3" transform="translate(786.672 0.241)">
      <path id="Path_16" data-name="Path 16" d="M6024.507,290.529h.418q2.883-6.185,10.207-11.236t18.858-5.05q9.905,0,16.8,3.3a31.859,31.859,0,0,1,11.235,8.66,32.892,32.892,0,0,1,6.188,12.371,57.178,57.178,0,0,1,1.859,14.637v62.467h-24.752v-50.1q0-4.121-.4-9.175a33.257,33.257,0,0,0-2.171-9.482,17.717,17.717,0,0,0-5.464-7.424q-3.706-2.983-10.1-2.99a23.256,23.256,0,0,0-10.419,2.064,19.964,19.964,0,0,0-7,5.567,22.029,22.029,0,0,0-4.02,8.038,35.883,35.883,0,0,0-1.238,9.484v54.014h-24.735V253.47h24.735v37.059Z" transform="translate(-5999.779 -253.47)" fill="#fff"/>
      <path id="Path_17" data-name="Path 17" d="M6571.861,423.664a52.363,52.363,0,0,1,4.212-21.337,49.219,49.219,0,0,1,28.557-26.905,61.407,61.407,0,0,1,42.052,0,50.443,50.443,0,0,1,17.12,10.514,49.935,49.935,0,0,1,11.448,16.392,56.13,56.13,0,0,1,0,42.675,49.991,49.991,0,0,1-11.448,16.391,50.5,50.5,0,0,1-17.12,10.514,61.462,61.462,0,0,1-42.052,0A49.219,49.219,0,0,1,6576.073,445,52.366,52.366,0,0,1,6571.861,423.664Zm24.733,0a32.023,32.023,0,0,0,1.958,11.132,27.532,27.532,0,0,0,5.778,9.484,29.227,29.227,0,0,0,42.664,0,27.877,27.877,0,0,0,5.771-9.484,32.563,32.563,0,0,0,0-22.264,27.939,27.939,0,0,0-5.771-9.482,29.224,29.224,0,0,0-42.664,0,27.589,27.589,0,0,0-5.778,9.482A32.067,32.067,0,0,0,6596.595,423.664Z" transform="translate(-6471.367 -350.939)" fill="#fff"/>
    </g>
    <path id="Path_18" data-name="Path 18" d="M2695.873,385.8H2670.1l-24.738,68.651h-.414L2617.321,385.8h-27.212l40.464,95.54a14.287,14.287,0,0,1-4.159,1.883,30.323,30.323,0,0,1-7.626.822,29.359,29.359,0,0,1-6.5-.722,52.507,52.507,0,0,1-6.082-1.751l-3.094,22.266a73.256,73.256,0,0,0,18.966,2.475,49.854,49.854,0,0,0,14.124-1.755,28.467,28.467,0,0,0,10.2-5.36,35.321,35.321,0,0,0,7.527-8.868,76.111,76.111,0,0,0,5.875-12.265l5.708-14.656.178-.119Z" transform="translate(-2371.405 -362.313)" fill="#fff"/>
    <path id="Path_19" data-name="Path 19" d="M3171.25,423.664a52.3,52.3,0,0,1,4.228-21.337,49.8,49.8,0,0,1,11.443-16.392,50.421,50.421,0,0,1,17.1-10.514,61.429,61.429,0,0,1,42.06,0,50.4,50.4,0,0,1,17.115,10.514,49.872,49.872,0,0,1,11.446,16.392,56.088,56.088,0,0,1,0,42.675,49.928,49.928,0,0,1-11.446,16.391,50.457,50.457,0,0,1-17.115,10.514,61.484,61.484,0,0,1-42.06,0,50.532,50.532,0,0,1-17.1-10.514A49.839,49.839,0,0,1,3175.478,445,52.3,52.3,0,0,1,3171.25,423.664Zm24.744,0a32.045,32.045,0,0,0,1.958,11.132,27.631,27.631,0,0,0,5.773,9.484,29.238,29.238,0,0,0,42.673,0,27.963,27.963,0,0,0,5.772-9.484,32.609,32.609,0,0,0,0-22.264,28.025,28.025,0,0,0-5.772-9.482,29.241,29.241,0,0,0-42.673,0,27.688,27.688,0,0,0-5.773,9.482A32.123,32.123,0,0,0,3195.994,423.664Z" transform="translate(-2850.458 -350.698)" fill="#fff"/>
    <path id="Path_20" data-name="Path 20" d="M3882.753,366.6h-1.8c-42.271,0-46.234,43.339-46.234,43.339v58.993h23.274V423.7q0-4.585.537-10.211a32.452,32.452,0,0,1,2.818-10.551,20.378,20.378,0,0,1,7.126-8.263s4.3-3.982,13.378-4.789c9.079.8,13.384,4.789,13.384,4.789a20.355,20.355,0,0,1,7.125,8.263,32.662,32.662,0,0,1,2.818,10.551q.538,5.625.531,10.211v45.229h23.28V409.939S3925.027,366.6,3882.753,366.6Z" transform="translate(-3397.379 -346.486)" fill="#fff"/>
    <path id="Path_21" data-name="Path 21" d="M4518.846,252.1v29.163a53.572,53.572,0,0,0-9.149-4.439,61.418,61.418,0,0,0-42.057,0,50.43,50.43,0,0,0-17.106,10.514,49.784,49.784,0,0,0-11.445,16.392,55.944,55.944,0,0,0,0,42.675,49.839,49.839,0,0,0,11.445,16.392,50.514,50.514,0,0,0,17.106,10.514,61.476,61.476,0,0,0,42.057,0,53.6,53.6,0,0,0,9.149-4.443v4.246h23.627V252.1Zm-3.064,84.1a28,28,0,0,1-5.775,9.484,29.243,29.243,0,0,1-42.673,0,27.62,27.62,0,0,1-5.771-9.484,32.609,32.609,0,0,1,0-22.264,27.676,27.676,0,0,1,5.771-9.483,29.238,29.238,0,0,1,42.673,0,28.056,28.056,0,0,1,5.775,9.483,32.655,32.655,0,0,1,0,22.264Z" transform="translate(-3892.091 -252.1)" fill="#fff"/>
    <path id="Path_22" data-name="Path 22" d="M1345.12,252.1V373.112h23.628v-4.246a53.775,53.775,0,0,0,9.152,4.443,61.478,61.478,0,0,0,42.057,0,50.545,50.545,0,0,0,17.106-10.514,49.862,49.862,0,0,0,11.443-16.392,55.982,55.982,0,0,0,0-42.675,49.834,49.834,0,0,0-11.443-16.392,50.439,50.439,0,0,0-17.106-10.514,61.426,61.426,0,0,0-42.057,0,53.343,53.343,0,0,0-9.152,4.439V252.1Zm24.737,72.965a32.1,32.1,0,0,1,1.958-11.132,28.038,28.038,0,0,1,5.773-9.483,29.238,29.238,0,0,1,42.672,0,27.693,27.693,0,0,1,5.773,9.483,32.612,32.612,0,0,1,0,22.264,27.636,27.636,0,0,1-5.773,9.484,29.235,29.235,0,0,1-42.672,0,27.983,27.983,0,0,1-5.773-9.484A32.1,32.1,0,0,1,1369.858,325.065Z" transform="translate(-1345.12 -252.1)" fill="#fff"/>
  </g>
</svg>
