<svg xmlns="http://www.w3.org/2000/svg" width="154.222" height="165.036" viewBox="0 0 154.222 165.036">
  <g id="Group_22" data-name="Group 22" transform="translate(-239 -6899)">
    <path id="Path_26" data-name="Path 26" d="M0,0H154.222V165.036L77.27,137.145,0,165.036Z" transform="translate(239 6899)" fill="#8baf83"/>
    <path id="Path_439" data-name="Path 439" d="M-25.036-17.292a27.985,27.985,0,0,1-3.63,3.586l1.21.814a31.855,31.855,0,0,0,3.806-3.586Zm2.112,8.514A28.554,28.554,0,0,0-27.9-11.924l-.968,1.078a27.2,27.2,0,0,1,4.95,3.322Zm-14.74-4.994a15.362,15.362,0,0,0-3.63-3.322l-1.1.946a15.422,15.422,0,0,1,3.52,3.432Zm-.2,2.046c-1.936,1.1-3.938,2.222-5.258,2.9l.836,1.342c1.408-.836,3.234-1.914,4.884-2.926Zm2.332.286h5.06v2.266h-5.06Zm0-3.432h5.06v2.222h-5.06ZM-23.3-4.532V-6.006H-32.23V-7.854h3.322v-8.338h-3.784c.242-.594.506-1.276.748-1.958l-1.76-.264a16.567,16.567,0,0,1-.572,2.222h-2.75v8.338h3.168v1.848H-42.68v1.474h7.26a19.67,19.67,0,0,1-7.7,4.488,6.508,6.508,0,0,1,1.1,1.364,20.732,20.732,0,0,0,8.162-5.434V1.628h1.628V-4.026a20.142,20.142,0,0,0,8.272,5.192A5.47,5.47,0,0,1-22.88-.22a18.506,18.506,0,0,1-7.832-4.312ZM-1.958-8.25V-9.922h-8.36c.022-.418.022-.836.022-1.232v-3.894h8.888V-16.72H-20.614v1.672h8.6v3.872a11.943,11.943,0,0,1-.044,1.254h-7.876V-8.25h7.7c-.594,3.19-2.552,6.424-8.8,8.558a4.684,4.684,0,0,1,.99,1.408c5.874-2.024,8.25-5.06,9.174-8.228a12.882,12.882,0,0,0,8.91,8.228A6.312,6.312,0,0,1-.836.2,11.94,11.94,0,0,1-9.812-8.25Zm22.814-5.522v-1.606H11.792V-18.5H10.076v3.124H1.188v1.606H10.1v2.97H3.432v9.768H5.06V-9.24H10.1V1.738H11.77V-9.24h5.368V-3.1c0,.286-.11.374-.484.418-.4,0-1.716,0-3.19-.044a7.378,7.378,0,0,1,.572,1.606,13.112,13.112,0,0,0,3.85-.286c.726-.264.946-.748.946-1.694v-7.7H11.77v-2.97Zm19.118-1.012h-7.04v-1.738h7.04Zm0,2.9h-7.04v-1.76h7.04Zm1.518-5.874H31.438v7.106H41.492ZM29.568-6.952,27.324-5.94v-6.182H29.7v-1.54H27.324v-4.576H25.806v4.576H23.232v1.54h2.574v6.886c-1.122.506-2.156.946-2.992,1.3l.638,1.606C25.3-3.212,27.7-4.378,29.92-5.5ZM43.054-8.03V-9.416H29.282V-8.03h3.08a12.458,12.458,0,0,1-4.356,4.4,7.171,7.171,0,0,1,1.122,1.012,15.092,15.092,0,0,0,2.86-2.508H34.21A14.518,14.518,0,0,1,29.26-.2,4.327,4.327,0,0,1,30.338.814a16.615,16.615,0,0,0,5.346-5.94h2.134a12.94,12.94,0,0,1-4.29,5.94,4.986,4.986,0,0,1,1.166.946,15.305,15.305,0,0,0,4.488-6.886H40.9c-.286,3.454-.616,4.84-.99,5.236-.154.22-.352.242-.66.242-.33,0-1.056-.022-1.87-.088a2.775,2.775,0,0,1,.374,1.32c.88.044,1.694.044,2.178.022a1.785,1.785,0,0,0,1.232-.55c.616-.638.968-2.354,1.3-6.886a6.276,6.276,0,0,0,.066-.66h-9.46a13.751,13.751,0,0,0,.946-1.54ZM-49.588,12.61v1.826c.594-.044,1.3-.066,1.98-.066h8.624c.748,0,1.5.022,2.024.066V12.61a13.7,13.7,0,0,1-2,.11h-8.646A13.757,13.757,0,0,1-49.588,12.61Zm14.234,5.808-1.254-.792a2.923,2.923,0,0,1-1.21.176H-49.412a20.793,20.793,0,0,1-2.156-.132v1.848c.792-.044,1.628-.066,2.156-.066H-37.73a11.247,11.247,0,0,1-2.618,4.862,14.66,14.66,0,0,1-7.744,4.026l1.364,1.562a15.931,15.931,0,0,0,7.876-4.6,15.151,15.151,0,0,0,3.212-6.248A3.847,3.847,0,0,1-35.354,18.418Zm7.678-5.544-1.254,1.342a45.691,45.691,0,0,1,5.478,4.6l1.386-1.386A48.174,48.174,0,0,0-27.676,12.874Zm-1.892,14.74,1.166,1.8a24.115,24.115,0,0,0,8.646-3.41,21.981,21.981,0,0,0,7.392-7.832l-1.056-1.87a20.725,20.725,0,0,1-7.348,8.1A22.716,22.716,0,0,1-29.568,27.614ZM-2.046,13.446c.066.264.22,1.122.462,2.31-2.068.33-3.982.616-4.84.7-.7.088-1.276.132-1.826.154l.374,1.98c.66-.154,1.166-.264,1.782-.374.836-.154,2.75-.462,4.84-.792.264,1.364.572,2.926.88,4.422-2.508.4-4.906.77-6.006.924-.572.088-1.43.176-1.936.2l.4,1.914c.462-.132,1.078-.242,1.936-.4,1.078-.2,3.432-.594,5.918-1.012.418,2.178.77,3.96.858,4.444.154.66.22,1.32.33,2.068l2-.374c-.2-.616-.374-1.364-.528-2-.11-.506-.462-2.266-.9-4.422,2.156-.33,4.2-.66,5.412-.858.814-.132,1.518-.242,1.98-.286L8.734,20.2c-.484.132-1.1.264-1.958.418-1.1.2-3.19.572-5.412.924-.286-1.474-.594-3.036-.88-4.4,2.112-.33,4.114-.66,5.126-.814.572-.088,1.254-.176,1.584-.22L6.82,14.26a13.8,13.8,0,0,1-1.562.374c-.924.176-2.948.506-5.082.858-.264-1.232-.418-2.134-.462-2.376-.066-.484-.176-1.1-.2-1.518l-1.98.352A10.307,10.307,0,0,1-2.046,13.446Zm17.71-.572L14.41,14.216a45.691,45.691,0,0,1,5.478,4.6l1.386-1.386A48.174,48.174,0,0,0,15.664,12.874Zm-1.892,14.74,1.166,1.8a24.115,24.115,0,0,0,8.646-3.41,21.981,21.981,0,0,0,7.392-7.832l-1.056-1.87a20.725,20.725,0,0,1-7.348,8.1A22.716,22.716,0,0,1,13.772,27.614ZM49.5,11.4l-1.166.506a24.882,24.882,0,0,1,1.782,3.036l1.188-.528A31.18,31.18,0,0,0,49.5,11.4Zm2.42-.88-1.166.506A22.864,22.864,0,0,1,52.58,14.04l1.188-.528A31.478,31.478,0,0,0,51.92,10.52Zm-8.338,1.936-2.024-.682a8.159,8.159,0,0,1-.682,1.76,18.427,18.427,0,0,1-6.908,7.436l1.518,1.122a21.229,21.229,0,0,0,5.588-5.412h7.414a17.863,17.863,0,0,1-3.5,6.864,17.619,17.619,0,0,1-8.8,5.522L37.8,30.518a19.583,19.583,0,0,0,8.756-5.984,21.519,21.519,0,0,0,3.894-7.59,6.913,6.913,0,0,1,.506-1.166L49.5,14.9a4.213,4.213,0,0,1-1.43.2H42.108c.176-.308.352-.616.506-.924C42.834,13.776,43.23,13.028,43.582,12.456Z" transform="translate(316 6930)" fill="#fff"/>
    <g id="Group_131" data-name="Group 131" transform="translate(1)">
      <path id="Path_438" data-name="Path 438" d="M20.858,0H13.586V-27.406a25.07,25.07,0,0,1-9.394,5.512v-6.6a21.031,21.031,0,0,0,6.185-3.532,13.423,13.423,0,0,0,4.581-6.069h5.9Z" transform="translate(284 7016)" fill="#fff"/>
      <path id="Path_437" data-name="Path 437" d="M10.7-20.677v3.5H29.45v-3.5H21.7v-5.177H17.98v5.177ZM18.352-3.844a73.592,73.592,0,0,0-2.2-11.935l-3.317.589a67.322,67.322,0,0,1,1.86,12.121ZM7.936-26.2A31.891,31.891,0,0,1,.465-14.725a24.948,24.948,0,0,1,1.953,3.844A30.033,30.033,0,0,0,4.96-13.8V2.6h3.5V-19.065a50.556,50.556,0,0,0,2.914-5.983ZM23.808-2.077a120.165,120.165,0,0,0,3.441-13.237l-4.03-.651A82.059,82.059,0,0,1,20.243-2.077H10.075V1.4H30.1V-2.077Z" transform="translate(316 7014)" fill="#fff"/>
    </g>
  </g>
</svg>
