<svg xmlns="http://www.w3.org/2000/svg" width="820.211" height="245.297" viewBox="0 0 820.211 245.297">
  <g id="r-logo168bc44f5e8c64e9f566a4e10668c7a6" opacity="0.4">
    <path id="Path_157" data-name="Path 157" d="M516.986,26.818H21.4L60.929,66.542Z" transform="translate(142.642 178.755)" fill="#fff"/>
    <path id="Path_158" data-name="Path 158" d="M105.59,8.852v5.959C96.2,8.852,88.3,5.377,76.932,5.377c-34.587,0-61.268,31.779-61.268,71.007S41.85,147.39,76.932,147.39c11.365,0,19.765-3.476,28.658-9.434v5.958h30.635V8.852ZM76.438,115.114c-17.293,0-29.646-16.883-29.646-38.234S59.144,38.646,76.438,38.646,105.59,55.528,105.59,76.88C106.084,98.232,93.731,115.114,76.438,115.114Z" transform="translate(104.404 35.837)" fill="#fff"/>
    <path id="Path_159" data-name="Path 159" d="M129.763,5.83V85.278c0,14.9-10.376,27.311-25.2,27.311s-25.2-12.414-25.2-27.311V5.83H48.73V85.278c0,32.772,22.235,59.09,54.845,59.09,14.824,0,26.188-8.441,26.188-8.441v4.966H160.4V5.83Z" transform="translate(324.812 38.86)" fill="#fff"/>
    <path id="Path_160" data-name="Path 160" d="M123.067,143.979V64.531c0-14.9,10.376-27.31,25.2-27.31s25.2,12.414,25.2,27.31v79.449H204.1V64.531c0-32.772-22.238-59.089-54.846-59.089-14.823,0-26.187,8.441-26.187,8.441V8.421H92.432V143.483h30.635Z" transform="translate(616.111 36.269)" fill="#fff"/>
    <path id="Path_161" data-name="Path 161" d="M32.117,170.75V118.115H54.351l39.034,52.138h40.022L85.974,107.191c14.823-10.427,24.211-27.807,24.211-47.669a58.028,58.028,0,0,0-57.81-58.1H0V170.253H32.117Zm0-137.049H52.869a26.317,26.317,0,0,1,0,52.634H32.117Z" transform="translate(0 9.499)" fill="#fff"/>
    <path id="Path_162" data-name="Path 162" d="M136.3,138.474a18.573,18.573,0,0,1-10.376,3.476c-4.941,0-14.329-3.972-14.329-16.387v-58.1h26.187V35.191H111.591V1.425H80.957V35.191H64.651V67.467H80.957v58.1c0,30.29,22.729,48.166,45.457,48.166,8.4,0,20.258-2.979,29.646-8.441Z" transform="translate(430.934 9.499)" fill="#fff"/>
    <path id="Path_163" data-name="Path 163" d="M91.951,108.249,144.326,44.69H101.833L64.775,91.862V0H33.647V180.249H64.775V124.635l45.457,55.614h42.493Z" transform="translate(224.275)" fill="#fff"/>
    <path id="Path_164" data-name="Path 164" d="M136.062,5.377c-35.576,0-60.775,31.283-60.775,71.007,0,41.71,31.623,71.007,63.74,71.007,16.305,0,36.564-5.462,53.857-30.29l-27.176-15.889C144.956,132,109.874,116.6,105.921,85.322h87.95C201.778,37.652,170.649,5.377,136.062,5.377ZM162.743,59H107.9C114.321,27.721,156.814,25.735,162.743,59Z" transform="translate(501.826 35.837)" fill="#fff"/>
  </g>
</svg>
