<svg xmlns="http://www.w3.org/2000/svg" width="80" height="80" viewBox="0 0 80 80">
  <g id="Group_188" data-name="Group 188" transform="translate(-500 -2229)">
    <rect id="Rectangle_75" data-name="Rectangle 75" width="80" height="80" transform="translate(500 2229)" fill="#3c3c3b"/>
    <path id="Path_441" data-name="Path 441" d="M-11.36.44A7.686,7.686,0,0,0-5.32-2.44c2.8-3.2,3.4-7.4,3.4-10.88,0-3.44-.6-7.72-3.4-10.92a7.744,7.744,0,0,0-6.04-2.88,7.744,7.744,0,0,0-6.04,2.88c-2.8,3.2-3.4,7.48-3.4,10.92,0,3.48.6,7.68,3.4,10.88A7.686,7.686,0,0,0-11.36.44Zm0-23.96a4.274,4.274,0,0,1,3.6,2.2c1.48,2.2,1.84,5.64,1.84,7.96,0,2.36-.36,5.76-1.84,8a4.274,4.274,0,0,1-3.6,2.2,4.274,4.274,0,0,1-3.6-2.2c-1.48-2.24-1.84-5.64-1.84-8,0-2.32.36-5.76,1.84-7.96A4.274,4.274,0,0,1-11.36-23.52ZM19.28-3.76H9.32l4.16-4.92a54.224,54.224,0,0,0,3.8-4.8,9.826,9.826,0,0,0,1.92-5.6c0-4.16-2.92-8.04-8.6-8.04a8.006,8.006,0,0,0-6.24,2.6,9.611,9.611,0,0,0-2.24,5.84H6.04c.16-2.52,1.72-4.84,4.72-4.84A4.163,4.163,0,0,1,15.2-19.2a6.6,6.6,0,0,1-1.4,3.84c-.88,1.28-2.28,3.04-3.2,4.16L1.36,0H19.28Z" transform="translate(540 2290)" fill="#fff"/>
    <path id="Path_440" data-name="Path 440" d="M1.12-9.338V0H2.548V-3.822H2.8L5.474,0H7.2L4.284-3.99a2.561,2.561,0,0,0,2.072-2.6,2.605,2.605,0,0,0-1.106-2.2,4.182,4.182,0,0,0-2.464-.546ZM2.548-8.022h.49c.7,0,1.946.126,1.946,1.442C4.984-5.1,3.388-5.054,3-5.054H2.548Zm11.2-1.316H8.6V0h5.152V-1.344H10.024v-2.94h3.612V-5.628H10.024V-7.994h3.724ZM22.064,0H23.6L19.18-9.884,14.532,0h1.54l1.022-2.254h3.99ZM17.682-3.6l1.442-3.164L20.51-3.6Zm12-4.34a3.181,3.181,0,0,0-.714-.938,2.754,2.754,0,0,0-1.876-.63,2.521,2.521,0,0,0-2.73,2.464,2.634,2.634,0,0,0,1.9,2.366l.9.378c.616.252,1.344.644,1.344,1.6a1.5,1.5,0,0,1-1.54,1.568,1.473,1.473,0,0,1-1.218-.56,2.017,2.017,0,0,1-.392-1.19l-1.414.308a3.023,3.023,0,0,0,.784,1.82,2.732,2.732,0,0,0,2.2.938,2.878,2.878,0,0,0,3.01-3c0-1.064-.476-2.044-2.2-2.744L26.8-5.936c-.91-.364-1.008-.854-1.008-1.134A1.157,1.157,0,0,1,27.1-8.19a1.489,1.489,0,0,1,1.008.336,1.483,1.483,0,0,1,.42.588Zm6.454-1.568a4.737,4.737,0,0,0-4.858,4.844A4.737,4.737,0,0,0,36.134.182a4.737,4.737,0,0,0,4.858-4.844A4.737,4.737,0,0,0,36.134-9.506Zm0,8.372A3.342,3.342,0,0,1,32.7-4.662a3.342,3.342,0,0,1,3.43-3.528,3.342,3.342,0,0,1,3.43,3.528A3.342,3.342,0,0,1,36.134-1.134ZM44.212,0V-6.524l6.776,7.1V-9.338H49.56V-2.87l-6.776-7.1V0Z" transform="translate(514 2250)" fill="#fff"/>
  </g>
</svg>
