<svg xmlns="http://www.w3.org/2000/svg" width="80" height="80" viewBox="0 0 80 80">
  <g id="Group_189" data-name="Group 189" transform="translate(-500 -2229)">
    <rect id="Rectangle_75" data-name="Rectangle 75" width="80" height="80" transform="translate(500 2229)" fill="#3c3c3b"/>
    <path id="Path_443" data-name="Path 443" d="M-11.36.44A7.686,7.686,0,0,0-5.32-2.44c2.8-3.2,3.4-7.4,3.4-10.88,0-3.44-.6-7.72-3.4-10.92a7.744,7.744,0,0,0-6.04-2.88,7.744,7.744,0,0,0-6.04,2.88c-2.8,3.2-3.4,7.48-3.4,10.92,0,3.48.6,7.68,3.4,10.88A7.686,7.686,0,0,0-11.36.44Zm0-23.96a4.274,4.274,0,0,1,3.6,2.2c1.48,2.2,1.84,5.64,1.84,7.96,0,2.36-.36,5.76-1.84,8a4.274,4.274,0,0,1-3.6,2.2,4.274,4.274,0,0,1-3.6-2.2c-1.48-2.24-1.84-5.64-1.84-8,0-2.32.36-5.76,1.84-7.96A4.274,4.274,0,0,1-11.36-23.52Zm18,3.64a4.664,4.664,0,0,1,1.12-2.56,3.867,3.867,0,0,1,2.96-1.08,3.936,3.936,0,0,1,2.84,1,3.655,3.655,0,0,1,1.04,2.68A3.971,3.971,0,0,1,13.56-17a4.662,4.662,0,0,1-3.4,1.16H9.6v3.44h.8a4.744,4.744,0,0,1,3.44,1.2,4.228,4.228,0,0,1,1.2,3.16,5.043,5.043,0,0,1-1.4,3.76,4.837,4.837,0,0,1-3.12,1.12,4.554,4.554,0,0,1-3.24-1.2A5.19,5.19,0,0,1,5.84-7.24H1.92A9.75,9.75,0,0,0,4.2-1.8,7.7,7.7,0,0,0,10.16.44a8.9,8.9,0,0,0,6.52-2.32,8.32,8.32,0,0,0,2.28-5.96,7.4,7.4,0,0,0-1.12-4.12,5.487,5.487,0,0,0-2.64-2.12,6.2,6.2,0,0,0,2.4-2.24,6.449,6.449,0,0,0,.92-3.52,6.923,6.923,0,0,0-1.92-5.08,7.383,7.383,0,0,0-5.76-2.2A8.062,8.062,0,0,0,5-25.08a7.856,7.856,0,0,0-2.28,5.2Z" transform="translate(540 2290)" fill="#fff"/>
    <path id="Path_442" data-name="Path 442" d="M1.12-9.338V0H2.548V-3.822H2.8L5.474,0H7.2L4.284-3.99a2.561,2.561,0,0,0,2.072-2.6,2.605,2.605,0,0,0-1.106-2.2,4.182,4.182,0,0,0-2.464-.546ZM2.548-8.022h.49c.7,0,1.946.126,1.946,1.442C4.984-5.1,3.388-5.054,3-5.054H2.548Zm11.2-1.316H8.6V0h5.152V-1.344H10.024v-2.94h3.612V-5.628H10.024V-7.994h3.724ZM22.064,0H23.6L19.18-9.884,14.532,0h1.54l1.022-2.254h3.99ZM17.682-3.6l1.442-3.164L20.51-3.6Zm12-4.34a3.181,3.181,0,0,0-.714-.938,2.754,2.754,0,0,0-1.876-.63,2.521,2.521,0,0,0-2.73,2.464,2.634,2.634,0,0,0,1.9,2.366l.9.378c.616.252,1.344.644,1.344,1.6a1.5,1.5,0,0,1-1.54,1.568,1.473,1.473,0,0,1-1.218-.56,2.017,2.017,0,0,1-.392-1.19l-1.414.308a3.023,3.023,0,0,0,.784,1.82,2.732,2.732,0,0,0,2.2.938,2.878,2.878,0,0,0,3.01-3c0-1.064-.476-2.044-2.2-2.744L26.8-5.936c-.91-.364-1.008-.854-1.008-1.134A1.157,1.157,0,0,1,27.1-8.19a1.489,1.489,0,0,1,1.008.336,1.483,1.483,0,0,1,.42.588Zm6.454-1.568a4.737,4.737,0,0,0-4.858,4.844A4.737,4.737,0,0,0,36.134.182a4.737,4.737,0,0,0,4.858-4.844A4.737,4.737,0,0,0,36.134-9.506Zm0,8.372A3.342,3.342,0,0,1,32.7-4.662a3.342,3.342,0,0,1,3.43-3.528,3.342,3.342,0,0,1,3.43,3.528A3.342,3.342,0,0,1,36.134-1.134ZM44.212,0V-6.524l6.776,7.1V-9.338H49.56V-2.87l-6.776-7.1V0Z" transform="translate(514 2250)" fill="#fff"/>
  </g>
</svg>
