<svg xmlns="http://www.w3.org/2000/svg" width="115" height="115" viewBox="0 0 115 115">
  <g id="Group_181" data-name="Group 181" transform="translate(17662 21054)">
    <circle id="Ellipse_11" data-name="Ellipse 11" cx="57.5" cy="57.5" r="57.5" transform="translate(-17662 -21054)"/>
    <path id="Path_433" data-name="Path 433" d="M-27.978-2.868l-.9-.084a7.5,7.5,0,0,0-.18,1.416c0,1.188,1.032,1.764,2.928,1.764A15.953,15.953,0,0,0-23.814.06l.036-.972a11.55,11.55,0,0,1-2.34.24c-1.716,0-2.028-.552-2.028-1.116A4.243,4.243,0,0,1-27.978-2.868Zm-1.38-6.576-1.152-.1a4.8,4.8,0,0,1-.036,1c-.036.24-.1.624-.18,1.044-.468.036-.9.06-1.3.06a10.871,10.871,0,0,1-1.44-.084l.036.936c.432.024.864.048,1.392.048.336,0,.708-.012,1.1-.036-.1.432-.2.888-.312,1.284A26.167,26.167,0,0,1-33.258.072l1.056.36a36.776,36.776,0,0,0,1.872-5.5c.144-.528.276-1.08.384-1.608a23.044,23.044,0,0,0,2.5-.408v-.948a17.766,17.766,0,0,1-2.3.432c.072-.324.132-.636.18-.888S-29.43-9.18-29.358-9.444Zm1.128,3.66V-4.9A19.719,19.719,0,0,1-26-5.016a15.172,15.172,0,0,1,2.016.144l.024-.912a19.207,19.207,0,0,0-2.076-.108C-26.8-5.892-27.594-5.844-28.23-5.784Zm7.476,1,.408.984a17.617,17.617,0,0,1,4.884-1.4,1.836,1.836,0,0,1,2.028,1.776c0,1.956-2.28,2.7-4.872,2.784l.384.924c3.24-.2,5.46-1.38,5.46-3.684A2.652,2.652,0,0,0-15.39-6.072a16.34,16.34,0,0,0-4.236.984A11.293,11.293,0,0,1-20.754-4.788Zm16.776,1.92-.9-.084a7.5,7.5,0,0,0-.18,1.416C-5.058-.348-4.026.228-2.13.228A15.953,15.953,0,0,0,.186.06L.222-.912a11.55,11.55,0,0,1-2.34.24c-1.716,0-2.028-.552-2.028-1.116A4.243,4.243,0,0,1-3.978-2.868Zm-1.38-6.576-1.152-.1a4.8,4.8,0,0,1-.036,1c-.036.24-.1.624-.18,1.044-.468.036-.9.06-1.3.06a10.871,10.871,0,0,1-1.44-.084l.036.936c.432.024.864.048,1.392.048.336,0,.708-.012,1.1-.036-.1.432-.2.888-.312,1.284A26.167,26.167,0,0,1-9.258.072L-8.2.432a36.777,36.777,0,0,0,1.872-5.5c.144-.528.276-1.08.384-1.608a23.044,23.044,0,0,0,2.5-.408v-.948a17.767,17.767,0,0,1-2.3.432c.072-.324.132-.636.18-.888S-5.43-9.18-5.358-9.444Zm1.128,3.66V-4.9A19.719,19.719,0,0,1-2-5.016a15.172,15.172,0,0,1,2.016.144l.024-.912a19.207,19.207,0,0,0-2.076-.108C-2.8-5.892-3.594-5.844-4.23-5.784ZM4.494.156a2.561,2.561,0,0,0,2.82-2.508,2.263,2.263,0,0,0-1.86-2.232v-.048a2.2,2.2,0,0,0,1.56-2.124A2.26,2.26,0,0,0,4.458-8.964,3.522,3.522,0,0,0,2-7.908l.588.7A2.568,2.568,0,0,1,4.41-8.064,1.35,1.35,0,0,1,5.9-6.672c0,.948-.624,1.68-2.436,1.68v.84C5.49-4.152,6.2-3.444,6.2-2.4A1.622,1.622,0,0,1,4.41-.756,2.908,2.908,0,0,1,2.226-1.764l-.552.72A3.641,3.641,0,0,0,4.494.156ZM11.046-.876V-4.224H17V-.876ZM17-8.34V-5.1H11.046V-8.34Zm-6.852-.876v10h.9V0H17V.732h.936V-9.216ZM20.934-7.9l.108,1.044c1.3-.276,4.356-.564,5.64-.708A4.874,4.874,0,0,0,24.438-3.5C24.438-.828,26.97.36,29.19.444l.348-1c-1.956-.072-4.14-.816-4.14-3.156a4.224,4.224,0,0,1,2.748-3.8A10.051,10.051,0,0,1,30.5-7.7v-.96c-.8.036-1.932.108-3.24.216-2.208.18-4.476.408-5.256.492C21.774-7.932,21.39-7.908,20.934-7.9ZM28.77-6.228l-.612.264a11.14,11.14,0,0,1,.984,1.692l.612-.288A14.243,14.243,0,0,0,28.77-6.228Zm1.308-.5-.588.276A11.123,11.123,0,0,1,30.5-4.776l.624-.3A15.849,15.849,0,0,0,30.078-6.732Z" transform="translate(-17604 -21020)" fill="#fff"/>
    <path id="Path_434" data-name="Path 434" d="M-14.16-7.32h-1.98V-8.832h1.98Zm0,2.232h-1.98V-6.612h1.98Zm0,2.268h-1.98V-4.38h1.98Zm.816-6.756h-3.6V-2.1h3.6Zm-2.964,7.74A5.307,5.307,0,0,1-17.568.432a3.936,3.936,0,0,1,.708.5,7.458,7.458,0,0,0,1.392-2.58Zm1.548.3A9.386,9.386,0,0,1-13.908.036l.732-.384a8.553,8.553,0,0,0-.888-1.5Zm6.8-4.08A9.248,9.248,0,0,1-9.288-2.208a10.249,10.249,0,0,1-1.368-3.408Zm.42-.816-.144.024h-3.84V-8.616H-6.8v-.828h-5.532V-5.1c0,1.728-.1,3.972-1.176,5.568a2.77,2.77,0,0,1,.7.48c1.14-1.68,1.3-4.212,1.3-6.048v-.516h.1a11.987,11.987,0,0,0,1.62,4.1,6.227,6.227,0,0,1-2.28,1.7A2.975,2.975,0,0,1-11.568.9,7.057,7.057,0,0,0-9.276-.816,6.817,6.817,0,0,0-7.008.936,3.036,3.036,0,0,1-6.42.216a6.11,6.11,0,0,1-2.328-1.7,10.917,10.917,0,0,0,1.74-4.8ZM-.492-6.84H-4.068v.792H4.14V-6.84H.42V-8.028H5.208v-.828H.42v-1.176H-.492v1.176H-5.184v.828H-.492ZM4.884-2.8V-5.088H-4.872V-2.8h.864V-4.272H3.984V-2.8ZM-2.04-3.66c-.168,2.076-.648,3.24-3.4,3.828a2.2,2.2,0,0,1,.5.756c2.976-.732,3.6-2.148,3.8-4.584ZM2.34-.12c-.468,0-.552-.06-.552-.384V-3.672H.9v3.18C.9.432,1.176.7,2.256.7H4.008C4.944.7,5.184.288,5.292-1.32a3.1,3.1,0,0,1-.816-.348C4.44-.324,4.368-.12,3.924-.12ZM11.6-2.9H12.4l.24-4.656.024-1.416H11.34l.024,1.416ZM12,.06a.757.757,0,0,0,.768-.792.767.767,0,0,0-.768-.8.767.767,0,0,0-.768.8A.75.75,0,0,0,12,.06Z" transform="translate(-17604 -20958)" fill="#fff"/>
    <g id="Group_163" data-name="Group 163" transform="translate(5 -5)">
      <path id="Path_432" data-name="Path 432" d="M-3.072-8.592h6.36V-6.24h-6.36ZM.516-2.712h4.02V-3.54H.516V-5.388h3.7V-9.456h-8.16v4.068H-.384v4.86A3.777,3.777,0,0,1-2.616-2.892a13.818,13.818,0,0,0,.3-1.5L-3.264-4.5C-3.432-2.784-4.008-.768-5.424.324a3.675,3.675,0,0,1,.624.6,5.971,5.971,0,0,0,1.836-2.7C-1.824.3.012.756,2.556.756H5.2A3.126,3.126,0,0,1,5.52-.108C5.016-.1,2.976-.1,2.6-.1A10.335,10.335,0,0,1,.516-.276Z" transform="translate(-17574 -20980)" fill="#fff"/>
      <path id="Path_431" data-name="Path 431" d="M-22.281,0h-4.253V-16.03a14.663,14.663,0,0,1-5.495,3.224v-3.86a12.3,12.3,0,0,0,3.618-2.066,7.851,7.851,0,0,0,2.679-3.55h3.451ZM-1.559-3.951V0h-14.91a10.268,10.268,0,0,1,1.453-4.246,28.254,28.254,0,0,1,4.783-5.321A30.086,30.086,0,0,0-6.706-13.2a4.679,4.679,0,0,0,.878-2.6,2.96,2.96,0,0,0-.764-2.187A2.854,2.854,0,0,0-8.7-18.754a2.833,2.833,0,0,0-2.119.8,4.12,4.12,0,0,0-.908,2.664l-4.238-.424a6.949,6.949,0,0,1,2.376-5.041,7.98,7.98,0,0,1,5-1.529A7.219,7.219,0,0,1-3.436-20.51a5.809,5.809,0,0,1,1.877,4.4A7.668,7.668,0,0,1-2.1-13.252a11.6,11.6,0,0,1-1.7,2.838A27.25,27.25,0,0,1-6.584-7.583Q-8.6-5.737-9.135-5.131a7.342,7.342,0,0,0-.87,1.181ZM8.507-22.281a6.063,6.063,0,0,1,5.041,2.3q2.165,2.725,2.165,9.037,0,6.3-2.18,9.052A6.053,6.053,0,0,1,8.507.378a6.35,6.35,0,0,1-5.222-2.49Q1.3-4.6,1.3-10.989q0-6.267,2.18-9.021A6.053,6.053,0,0,1,8.507-22.281Zm0,3.527a2.125,2.125,0,0,0-1.377.492A3.3,3.3,0,0,0,6.191-16.5a24.323,24.323,0,0,0-.439,5.555,24.144,24.144,0,0,0,.394,5.366,3.773,3.773,0,0,0,.991,1.945,2.115,2.115,0,0,0,1.37.484A2.125,2.125,0,0,0,9.884-3.64,3.3,3.3,0,0,0,10.823-5.4a24.108,24.108,0,0,0,.439-5.54,24.144,24.144,0,0,0-.394-5.366,3.825,3.825,0,0,0-.991-1.953A2.1,2.1,0,0,0,8.507-18.754Zm17.241-3.527a6.063,6.063,0,0,1,5.041,2.3q2.165,2.725,2.165,9.037,0,6.3-2.18,9.052A6.053,6.053,0,0,1,25.748.378a6.35,6.35,0,0,1-5.222-2.49q-1.983-2.49-1.983-8.878,0-6.267,2.18-9.021A6.053,6.053,0,0,1,25.748-22.281Zm0,3.527a2.125,2.125,0,0,0-1.377.492,3.3,3.3,0,0,0-.938,1.763,24.323,24.323,0,0,0-.439,5.555,24.144,24.144,0,0,0,.394,5.366,3.773,3.773,0,0,0,.991,1.945,2.115,2.115,0,0,0,1.37.484,2.125,2.125,0,0,0,1.377-.492A3.3,3.3,0,0,0,28.063-5.4a24.108,24.108,0,0,0,.439-5.54,24.144,24.144,0,0,0-.394-5.366,3.825,3.825,0,0,0-.991-1.953A2.1,2.1,0,0,0,25.748-18.754Z" transform="translate(-17617 -20979)" fill="#fff"/>
    </g>
  </g>
</svg>
