<svg id="レイヤー_1" data-name="レイヤー 1" xmlns="http://www.w3.org/2000/svg" width="124.803" height="35.809" viewBox="0 0 124.803 35.809">
  <g id="Group_160" data-name="Group 160" transform="translate(34.549 0.325)">
    <g id="Group_158" data-name="Group 158" transform="translate(10.84 18.184)">
      <path id="Path_272" data-name="Path 272" d="M5018.253,1221.152a3.487,3.487,0,0,0,1.2,2.4,3.758,3.758,0,0,0,2.489.859,4.1,4.1,0,0,0,2.161-.529,6,6,0,0,0,1.53-1.33l2.461,1.86a6.971,6.971,0,0,1-2.69,2.117,7.93,7.93,0,0,1-3.119.629,8.249,8.249,0,0,1-2.918-.515,7.01,7.01,0,0,1-2.375-1.459,6.918,6.918,0,0,1-1.587-2.275,7.775,7.775,0,0,1,0-5.922,6.915,6.915,0,0,1,1.587-2.275,7,7,0,0,1,2.375-1.459,8.241,8.241,0,0,1,2.918-.515,6.672,6.672,0,0,1,2.618.5,5.62,5.62,0,0,1,2.032,1.445,6.7,6.7,0,0,1,1.316,2.332,9.888,9.888,0,0,1,.472,3.19v.944h-10.471Zm7.038-2.575a3.236,3.236,0,0,0-.944-2.389,3.544,3.544,0,0,0-2.546-.873,3.335,3.335,0,0,0-2.446.887,3.958,3.958,0,0,0-1.1,2.374h7.038Z" transform="translate(-4972.271 -1209.983)" fill="#231916"/>
      <path id="Path_273" data-name="Path 273" d="M5864.616,1216.918a3.144,3.144,0,0,0-2.69-1.4,2.88,2.88,0,0,0-1.345.343,1.167,1.167,0,0,0-.657,1.116.962.962,0,0,0,.543.916,5.952,5.952,0,0,0,1.374.486q.828.2,1.787.415a7.025,7.025,0,0,1,1.788.658,3.913,3.913,0,0,1,1.374,1.216,3.625,3.625,0,0,1,.544,2.117,3.832,3.832,0,0,1-.53,2.074,4.159,4.159,0,0,1-1.373,1.359,6.1,6.1,0,0,1-1.9.744,9.988,9.988,0,0,1-2.117.229,9.1,9.1,0,0,1-2.947-.458,5.591,5.591,0,0,1-2.4-1.659l2.289-2.146a6.452,6.452,0,0,0,1.417,1.216,3.424,3.424,0,0,0,1.845.472,3.706,3.706,0,0,0,.772-.086,2.512,2.512,0,0,0,.744-.286,1.763,1.763,0,0,0,.558-.5,1.284,1.284,0,0,0-.329-1.759,4.845,4.845,0,0,0-1.374-.558q-.83-.215-1.788-.4a6.906,6.906,0,0,1-1.788-.6,3.75,3.75,0,0,1-1.374-1.159,3.43,3.43,0,0,1-.543-2.06,4.018,4.018,0,0,1,.472-1.989,4.161,4.161,0,0,1,1.245-1.388,5.392,5.392,0,0,1,1.773-.8,8.1,8.1,0,0,1,4.75.215,4.442,4.442,0,0,1,2.175,1.617Z" transform="translate(-5798.76 -1210.012)" fill="#231916"/>
      <path id="Path_274" data-name="Path 274" d="M2596.925,1216.918a3.147,3.147,0,0,0-2.691-1.4,2.886,2.886,0,0,0-1.345.343,1.168,1.168,0,0,0-.656,1.116.961.961,0,0,0,.543.916,5.968,5.968,0,0,0,1.373.486q.829.2,1.789.415a7.03,7.03,0,0,1,1.787.658,3.915,3.915,0,0,1,1.374,1.216,3.631,3.631,0,0,1,.543,2.117,3.832,3.832,0,0,1-.529,2.074,4.148,4.148,0,0,1-1.373,1.359,6.1,6.1,0,0,1-1.9.744,9.981,9.981,0,0,1-2.116.229,9.1,9.1,0,0,1-2.947-.458,5.581,5.581,0,0,1-2.4-1.659l2.289-2.146a6.478,6.478,0,0,0,1.416,1.216,3.43,3.43,0,0,0,1.846.472,3.7,3.7,0,0,0,.772-.086,2.5,2.5,0,0,0,.744-.286,1.755,1.755,0,0,0,.559-.5,1.284,1.284,0,0,0-.329-1.759,4.857,4.857,0,0,0-1.374-.558q-.829-.215-1.787-.4a6.9,6.9,0,0,1-1.789-.6,3.754,3.754,0,0,1-1.374-1.159,3.437,3.437,0,0,1-.544-2.06,4.023,4.023,0,0,1,.472-1.989,4.156,4.156,0,0,1,1.245-1.388,5.393,5.393,0,0,1,1.773-.8,8.1,8.1,0,0,1,4.75.215,4.446,4.446,0,0,1,2.175,1.617Z" transform="translate(-2588.37 -1210.012)" fill="#231916"/>
      <g id="Group_157" data-name="Group 157" transform="translate(12.422)">
        <path id="Path_275" data-name="Path 275" d="M3300.2,1060.653h.057a4.01,4.01,0,0,1,1.416-1.559,4.513,4.513,0,0,1,2.618-.7,5.385,5.385,0,0,1,2.332.458,4.419,4.419,0,0,1,1.559,1.2,4.568,4.568,0,0,1,.859,1.717,7.95,7.95,0,0,1,.258,2.031v8.669h-3.434v-6.952q0-.572-.056-1.273a4.6,4.6,0,0,0-.3-1.316,2.467,2.467,0,0,0-.758-1.03,2.177,2.177,0,0,0-1.4-.415,3.224,3.224,0,0,0-1.445.286,2.774,2.774,0,0,0-.972.772,3.05,3.05,0,0,0-.557,1.116,4.949,4.949,0,0,0-.172,1.316v7.5h-3.433V1055.51h3.433Z" transform="translate(-3296.77 -1055.51)" fill="#231916"/>
        <path id="Path_276" data-name="Path 276" d="M4092.13,1227.09a7.259,7.259,0,0,1,.585-2.961,6.928,6.928,0,0,1,1.588-2.275,7,7,0,0,1,2.374-1.459,8.521,8.521,0,0,1,5.836,0,6.823,6.823,0,0,1,3.964,3.734,7.787,7.787,0,0,1,0,5.922,6.937,6.937,0,0,1-1.588,2.275,7.007,7.007,0,0,1-2.375,1.459,8.531,8.531,0,0,1-5.836,0,7.013,7.013,0,0,1-2.374-1.459,6.93,6.93,0,0,1-1.588-2.275A7.261,7.261,0,0,1,4092.13,1227.09Zm3.433,0a4.465,4.465,0,0,0,.271,1.545,3.84,3.84,0,0,0,.8,1.316,4.058,4.058,0,0,0,5.922,0,3.888,3.888,0,0,0,.8-1.316,4.532,4.532,0,0,0,0-3.09,3.9,3.9,0,0,0-.8-1.316,4.057,4.057,0,0,0-5.922,0,3.85,3.85,0,0,0-.8,1.316A4.464,4.464,0,0,0,4095.563,1227.09Z" transform="translate(-4078.183 -1216.998)" fill="#231916"/>
      </g>
    </g>
    <g id="Group_159" data-name="Group 159">
      <path id="Path_277" data-name="Path 277" d="M2903.513,186.061a3.482,3.482,0,0,0,1.2,2.4,3.758,3.758,0,0,0,2.489.859,4.1,4.1,0,0,0,2.16-.529,5.987,5.987,0,0,0,1.53-1.33l2.461,1.86a6.973,6.973,0,0,1-2.69,2.117,7.929,7.929,0,0,1-3.119.629,8.248,8.248,0,0,1-2.918-.515,7.008,7.008,0,0,1-2.375-1.459,6.914,6.914,0,0,1-1.587-2.275,7.775,7.775,0,0,1,0-5.922,6.916,6.916,0,0,1,1.587-2.275,7,7,0,0,1,2.375-1.459,8.241,8.241,0,0,1,2.918-.515,6.673,6.673,0,0,1,2.618.5,5.618,5.618,0,0,1,2.031,1.445,6.68,6.68,0,0,1,1.316,2.332,9.881,9.881,0,0,1,.472,3.19v.944h-10.471Zm7.038-2.575a3.234,3.234,0,0,0-.944-2.389,3.544,3.544,0,0,0-2.546-.873,3.336,3.336,0,0,0-2.446.887,3.958,3.958,0,0,0-1.1,2.374h7.038Z" transform="translate(-2883.775 -174.86)" fill="#231916"/>
      <path id="Path_278" data-name="Path 278" d="M3715.677,204.39H3712.1l-3.433,9.527h-.057l-3.833-9.527H3701l5.615,13.258a2,2,0,0,1-.577.261,4.21,4.21,0,0,1-1.059.114,4.07,4.07,0,0,1-.9-.1,7.345,7.345,0,0,1-.844-.243l-.429,3.09a10.159,10.159,0,0,0,2.633.344,6.922,6.922,0,0,0,1.959-.243,3.952,3.952,0,0,0,1.416-.744,4.917,4.917,0,0,0,1.045-1.23,10.556,10.556,0,0,0,.815-1.7l.792-2.034.025-.017,4.187-10.753Z" transform="translate(-3670.649 -201.131)" fill="#231916"/>
      <path id="Path_279" data-name="Path 279" d="M4508.851,192.01a7.252,7.252,0,0,1,.587-2.961,6.893,6.893,0,0,1,1.587-2.275,7.008,7.008,0,0,1,2.374-1.459,8.521,8.521,0,0,1,5.836,0,7,7,0,0,1,2.376,1.459,6.909,6.909,0,0,1,1.588,2.275,7.775,7.775,0,0,1,0,5.922,6.913,6.913,0,0,1-1.588,2.275,7.008,7.008,0,0,1-2.376,1.459,8.529,8.529,0,0,1-5.836,0,7.021,7.021,0,0,1-2.374-1.459,6.9,6.9,0,0,1-1.587-2.275A7.254,7.254,0,0,1,4508.851,192.01Zm3.434,0a4.453,4.453,0,0,0,.271,1.545,3.836,3.836,0,0,0,.8,1.316,4.058,4.058,0,0,0,5.922,0,3.882,3.882,0,0,0,.8-1.316,4.531,4.531,0,0,0,0-3.09,3.892,3.892,0,0,0-.8-1.316,4.058,4.058,0,0,0-5.922,0,3.844,3.844,0,0,0-.8,1.316A4.458,4.458,0,0,0,4512.284,192.01Z" transform="translate(-4464.334 -181.884)" fill="#231916"/>
      <path id="Path_280" data-name="Path 280" d="M5437.836,177.7h-.249c-5.866,0-6.417,6.014-6.417,6.014V191.9h3.231v-6.276q0-.636.074-1.417a4.533,4.533,0,0,1,.391-1.464,2.828,2.828,0,0,1,.988-1.147,2.928,2.928,0,0,1,3.714,0,2.82,2.82,0,0,1,.988,1.147,4.51,4.51,0,0,1,.392,1.464q.074.781.074,1.417V191.9h3.229v-8.187S5443.7,177.7,5437.836,177.7Z" transform="translate(-5370.479 -174.909)" fill="#231916"/>
      <path id="Path_281" data-name="Path 281" d="M6277.145,18.52v4.047a7.38,7.38,0,0,0-1.27-.616,8.522,8.522,0,0,0-5.836,0,7.006,7.006,0,0,0-2.374,1.459,6.894,6.894,0,0,0-1.587,2.275,7.763,7.763,0,0,0,0,5.922,6.9,6.9,0,0,0,1.587,2.275,7.014,7.014,0,0,0,2.374,1.459,8.531,8.531,0,0,0,5.836,0,7.407,7.407,0,0,0,1.27-.616v.589h3.28V18.52Zm-.425,11.67a3.875,3.875,0,0,1-.8,1.316,4.057,4.057,0,0,1-5.921,0,3.831,3.831,0,0,1-.8-1.316,4.531,4.531,0,0,1,0-3.09,3.841,3.841,0,0,1,.8-1.316,4.057,4.057,0,0,1,5.921,0,3.884,3.884,0,0,1,.8,1.316,4.524,4.524,0,0,1,0,3.09Z" transform="translate(-6190.17 -18.52)" fill="#231916"/>
      <path id="Path_282" data-name="Path 282" d="M1970.21,18.52V35.313h3.279v-.589a7.417,7.417,0,0,0,1.27.616,8.531,8.531,0,0,0,5.836,0,7.015,7.015,0,0,0,2.374-1.459,6.926,6.926,0,0,0,1.588-2.275,7.772,7.772,0,0,0,0-5.922,6.923,6.923,0,0,0-1.588-2.275,7,7,0,0,0-2.374-1.459,8.522,8.522,0,0,0-5.836,0,7.377,7.377,0,0,0-1.27.616V18.52Zm3.433,10.125a4.455,4.455,0,0,1,.272-1.545,3.9,3.9,0,0,1,.8-1.316,4.057,4.057,0,0,1,5.922,0,3.846,3.846,0,0,1,.8,1.316,4.528,4.528,0,0,1,0,3.09,3.835,3.835,0,0,1-.8,1.316,4.057,4.057,0,0,1-5.922,0,3.884,3.884,0,0,1-.8-1.316A4.45,4.45,0,0,1,1973.643,28.645Z" transform="translate(-1970.21 -18.52)" fill="#231916"/>
    </g>
  </g>
  <g id="Group_161" data-name="Group 161" transform="translate(13.774)">
    <path id="Path_283" data-name="Path 283" d="M1356.492,885.28c0,1.386-1.91,2.51-4.266,2.51s-4.266-1.124-4.266-2.51,1.91-2.51,4.266-2.51,4.266,1.124,4.266,2.51" transform="translate(-1338.096 -867.29)" fill="#458238" fill-rule="evenodd"/>
    <path id="Path_284" data-name="Path 284" d="M1519.5,1508.582c0,.929-1.215,1.682-2.714,1.682s-2.714-.753-2.714-1.682,1.215-1.682,2.714-1.682,2.714.753,2.714,1.682" transform="translate(-1501.293 -1480.475)" fill="#458238" fill-rule="evenodd"/>
    <path id="Path_285" data-name="Path 285" d="M1546.433,1228.838c0,1.081-1.261,1.958-2.816,1.958s-2.816-.876-2.816-1.958,1.261-1.958,2.816-1.958,2.816.876,2.816,1.958" transform="translate(-1527.555 -1205.366)" fill="#458238" fill-rule="evenodd"/>
    <path id="Path_286" data-name="Path 286" d="M1438.283,1758.893c0,.72-1.066,1.3-2.381,1.3s-2.381-.583-2.381-1.3,1.066-1.3,2.381-1.3,2.381.583,2.381,1.3" transform="translate(-1422.156 -1726.77)" fill="#458238" fill-rule="evenodd"/>
    <path id="Path_287" data-name="Path 287" d="M1309.7,1909.916c0,.517-.67.935-1.5.935s-1.5-.419-1.5-.935.67-.936,1.5-.936,1.5.419,1.5.936" transform="translate(-1297.56 -1875.505)" fill="#458238" fill-rule="evenodd"/>
    <path id="Path_288" data-name="Path 288" d="M998.269,318.6c0-.929-1.215-1.682-2.714-1.682s-2.714.753-2.714,1.682,1.215,1.682,2.714,1.682,2.714-.753,2.714-1.682" transform="translate(-989.203 -311.363)" fill="#458238" fill-rule="evenodd"/>
    <path id="Path_289" data-name="Path 289" d="M1025.193,567.478c0-1.081-1.261-1.958-2.816-1.958s-2.816.876-2.816,1.958,1.261,1.958,2.816,1.958,2.816-.876,2.816-1.958" transform="translate(-1015.455 -555.603)" fill="#458238" fill-rule="evenodd"/>
    <path id="Path_290" data-name="Path 290" d="M917.043,110.753c0-.72-1.066-1.3-2.381-1.3s-2.381.583-2.381,1.3,1.066,1.3,2.381,1.3,2.381-.583,2.381-1.3" transform="translate(-910.056 -107.531)" fill="#458238" fill-rule="evenodd"/>
    <path id="Path_291" data-name="Path 291" d="M788.455.936c0-.517-.671-.936-1.5-.936s-1.5.419-1.5.936.67.936,1.5.936,1.5-.419,1.5-.936" transform="translate(-785.46)" fill="#458238" fill-rule="evenodd"/>
  </g>
  <g id="Group_162" data-name="Group 162">
    <path id="Path_292" data-name="Path 292" d="M6.856,4.418A5.52,5.52,0,0,1,9.388,14.845h6.107a9.856,9.856,0,0,0,1.3-4.9A9.97,9.97,0,0,0,6.856,0H0L.966,4.418H6.857Z" fill="#458238"/>
    <path id="Path_293" data-name="Path 293" d="M205.416,881.86H192.8l.966,4.418h11.65a5.523,5.523,0,1,1,0,11.046h-9.235l.966,4.418h8.269a9.941,9.941,0,0,0,0-19.882Z" transform="translate(-189.419 -866.396)" fill="#458238"/>
  </g>
</svg>
