<svg xmlns="http://www.w3.org/2000/svg" width="576.9" height="228.816" viewBox="0 0 576.9 228.816">
  <g id="Group_200" data-name="Group 200" transform="translate(-74.027 -494.37)">
    <g id="レイヤー_1" data-name="レイヤー 1" transform="translate(74.027 557.654)">
      <g id="Group_135" data-name="Group 135" transform="translate(159.701 1.501)">
        <g id="Group_133" data-name="Group 133" transform="translate(50.107 84.056)">
          <path id="Path_248" data-name="Path 248" d="M5030.688,1251.621q.792,7.14,5.554,11.108a17.375,17.375,0,0,0,11.506,3.969,18.927,18.927,0,0,0,9.985-2.447,27.689,27.689,0,0,0,7.075-6.149l11.374,8.6a32.2,32.2,0,0,1-12.433,9.786,36.654,36.654,0,0,1-14.415,2.908,38.123,38.123,0,0,1-13.49-2.38,32.377,32.377,0,0,1-10.977-6.744,31.958,31.958,0,0,1-7.338-10.515,35.939,35.939,0,0,1,0-27.375,31.946,31.946,0,0,1,7.338-10.514,32.347,32.347,0,0,1,10.977-6.744,38.1,38.1,0,0,1,13.49-2.382,30.853,30.853,0,0,1,12.1,2.315,25.963,25.963,0,0,1,9.39,6.678,30.893,30.893,0,0,1,6.082,10.778,45.663,45.663,0,0,1,2.182,14.747v4.363h-48.4Zm32.532-11.9q-.133-7.008-4.363-11.042t-11.77-4.033q-7.143,0-11.307,4.1a18.3,18.3,0,0,0-5.094,10.975Z" transform="translate(-4818.137 -1199.995)" fill="#fff"/>
          <path id="Path_249" data-name="Path 249" d="M5895.608,1231.946a14.536,14.536,0,0,0-12.435-6.48,13.307,13.307,0,0,0-6.216,1.586,5.394,5.394,0,0,0-3.039,5.158,4.449,4.449,0,0,0,2.512,4.233,27.559,27.559,0,0,0,6.349,2.247q3.832.927,8.263,1.917a32.491,32.491,0,0,1,8.265,3.043,18.071,18.071,0,0,1,6.348,5.62q2.514,3.572,2.516,9.788a17.7,17.7,0,0,1-2.448,9.587,19.226,19.226,0,0,1-6.347,6.281,28.171,28.171,0,0,1-8.8,3.44,46.168,46.168,0,0,1-9.785,1.057,42.042,42.042,0,0,1-13.622-2.116,25.846,25.846,0,0,1-11.11-7.67l10.582-9.918a29.809,29.809,0,0,0,6.546,5.622,15.843,15.843,0,0,0,8.53,2.181,17.114,17.114,0,0,0,3.57-.4,11.6,11.6,0,0,0,3.437-1.323,8.157,8.157,0,0,0,2.582-2.315,5.443,5.443,0,0,0,.989-3.24,5.389,5.389,0,0,0-2.511-4.893,22.391,22.391,0,0,0-6.35-2.578q-3.836-.994-8.264-1.851a31.965,31.965,0,0,1-8.269-2.778,17.36,17.36,0,0,1-6.348-5.355q-2.515-3.44-2.512-9.522a18.532,18.532,0,0,1,2.183-9.192,19.186,19.186,0,0,1,5.752-6.414,24.926,24.926,0,0,1,8.2-3.7,37.445,37.445,0,0,1,21.955.992,20.53,20.53,0,0,1,10.051,7.473l-10.579,9.522Z" transform="translate(-5591.188 -1200.023)" fill="#fff"/>
          <path id="Path_250" data-name="Path 250" d="M2627.915,1231.946a14.545,14.545,0,0,0-12.437-6.48,13.326,13.326,0,0,0-6.216,1.586,5.4,5.4,0,0,0-3.035,5.158,4.441,4.441,0,0,0,2.511,4.233,27.611,27.611,0,0,0,6.344,2.247q3.833.927,8.269,1.917a32.515,32.515,0,0,1,8.26,3.043,18.1,18.1,0,0,1,6.351,5.62q2.508,3.572,2.512,9.788a17.717,17.717,0,0,1-2.446,9.587,19.192,19.192,0,0,1-6.345,6.281,28.18,28.18,0,0,1-8.8,3.44,46.145,46.145,0,0,1-9.781,1.057,42.029,42.029,0,0,1-13.622-2.116,25.8,25.8,0,0,1-11.11-7.67l10.579-9.918a29.963,29.963,0,0,0,6.545,5.622,15.862,15.862,0,0,0,8.534,2.181,17.093,17.093,0,0,0,3.566-.4,11.583,11.583,0,0,0,3.438-1.323,8.116,8.116,0,0,0,2.583-2.315,5.935,5.935,0,0,0-1.521-8.132,22.445,22.445,0,0,0-6.353-2.578q-3.831-.994-8.26-1.851a31.905,31.905,0,0,1-8.268-2.778,17.365,17.365,0,0,1-6.352-5.355q-2.507-3.44-2.511-9.522a18.579,18.579,0,0,1,2.182-9.192,19.188,19.188,0,0,1,5.756-6.414,24.9,24.9,0,0,1,8.2-3.7,37.44,37.44,0,0,1,21.954.992,20.549,20.549,0,0,1,10.055,7.473Z" transform="translate(-2588.37 -1200.023)" fill="#fff"/>
          <g id="Group_132" data-name="Group 132" transform="translate(57.421)">
            <path id="Path_251" data-name="Path 251" d="M3312.639,1079.281h.265a18.531,18.531,0,0,1,6.545-7.207q4.693-3.241,12.1-3.241a24.9,24.9,0,0,1,10.78,2.116,20.422,20.422,0,0,1,7.206,5.555,21.1,21.1,0,0,1,3.969,7.936,36.741,36.741,0,0,1,1.191,9.389v40.07h-15.875v-32.136q0-2.643-.26-5.885a21.324,21.324,0,0,0-1.391-6.083,11.389,11.389,0,0,0-3.5-4.762,10.059,10.059,0,0,0-6.481-1.918,14.911,14.911,0,0,0-6.681,1.324,12.833,12.833,0,0,0-4.494,3.571,14.123,14.123,0,0,0-2.576,5.157,22.949,22.949,0,0,0-.8,6.084V1133.9h-15.868v-78.39h15.868Z" transform="translate(-3296.771 -1055.51)" fill="#fff"/>
            <path id="Path_252" data-name="Path 252" d="M4092.131,1253.207a33.562,33.562,0,0,1,2.705-13.687,31.562,31.562,0,0,1,18.317-17.259,39.395,39.395,0,0,1,26.978,0,32.337,32.337,0,0,1,10.981,6.744,31.99,31.99,0,0,1,7.34,10.515,35.951,35.951,0,0,1,0,27.375,32.009,32.009,0,0,1-7.34,10.514,32.378,32.378,0,0,1-10.981,6.744,39.434,39.434,0,0,1-26.978,0,32.392,32.392,0,0,1-10.973-6.744,32.036,32.036,0,0,1-7.344-10.514A33.568,33.568,0,0,1,4092.131,1253.207Zm15.87,0a20.645,20.645,0,0,0,1.254,7.141,17.733,17.733,0,0,0,3.7,6.085,18.756,18.756,0,0,0,27.372,0,17.95,17.95,0,0,0,3.7-6.085,20.939,20.939,0,0,0,0-14.282,17.994,17.994,0,0,0-3.7-6.082,18.755,18.755,0,0,0-27.372,0,17.768,17.768,0,0,0-3.7,6.082A20.589,20.589,0,0,0,4108,1253.207Z" transform="translate(-4027.661 -1206.557)" fill="#fff"/>
          </g>
        </g>
        <g id="Group_134" data-name="Group 134">
          <path id="Path_253" data-name="Path 253" d="M2915.948,216.531q.791,7.14,5.554,11.108a17.371,17.371,0,0,0,11.5,3.969,18.935,18.935,0,0,0,9.987-2.447,27.672,27.672,0,0,0,7.073-6.149l11.375,8.6a32.224,32.224,0,0,1-12.433,9.786,36.647,36.647,0,0,1-14.416,2.908,38.124,38.124,0,0,1-13.488-2.379,32.381,32.381,0,0,1-10.977-6.744,31.953,31.953,0,0,1-7.339-10.515,35.936,35.936,0,0,1,0-27.375,31.955,31.955,0,0,1,7.339-10.514,32.328,32.328,0,0,1,10.977-6.744,38.092,38.092,0,0,1,13.488-2.382,30.84,30.84,0,0,1,12.1,2.315,25.961,25.961,0,0,1,9.39,6.678,30.9,30.9,0,0,1,6.083,10.778,45.68,45.68,0,0,1,2.182,14.747v4.363h-48.4Zm32.532-11.9q-.134-7.008-4.363-11.042t-11.771-4.033q-7.143,0-11.307,4.1a18.3,18.3,0,0,0-5.092,10.975h32.532Z" transform="translate(-2824.708 -164.751)" fill="#fff"/>
          <path id="Path_254" data-name="Path 254" d="M3768.844,204.39h-16.536l-15.868,44.038h-.265l-17.72-44.038H3701l25.955,61.286a9.228,9.228,0,0,1-2.666,1.208,19.452,19.452,0,0,1-4.9.528,18.812,18.812,0,0,1-4.165-.463,33.874,33.874,0,0,1-3.9-1.123l-1.985,14.282a46.963,46.963,0,0,0,12.168,1.588,32,32,0,0,0,9.057-1.125,18.274,18.274,0,0,0,6.546-3.438,22.715,22.715,0,0,0,4.829-5.688,48.962,48.962,0,0,0,3.768-7.867l3.66-9.4.115-.077,19.356-49.707Z" transform="translate(-3560.706 -189.324)" fill="#fff"/>
          <path id="Path_255" data-name="Path 255" d="M4508.851,218.126a33.548,33.548,0,0,1,2.713-13.687,31.9,31.9,0,0,1,7.338-10.514,32.352,32.352,0,0,1,10.974-6.744,39.395,39.395,0,0,1,26.979,0,32.348,32.348,0,0,1,10.98,6.744,32,32,0,0,1,7.341,10.514,35.963,35.963,0,0,1,0,27.375,32.014,32.014,0,0,1-7.341,10.514,32.386,32.386,0,0,1-10.98,6.744,39.433,39.433,0,0,1-26.979,0,32.416,32.416,0,0,1-10.974-6.744,31.9,31.9,0,0,1-7.338-10.514A33.555,33.555,0,0,1,4508.851,218.126Zm15.873,0a20.648,20.648,0,0,0,1.254,7.141,17.749,17.749,0,0,0,3.7,6.084,18.754,18.754,0,0,0,27.373,0,17.936,17.936,0,0,0,3.7-6.084,20.924,20.924,0,0,0,0-14.282,17.985,17.985,0,0,0-3.7-6.083,18.757,18.757,0,0,0-27.373,0,17.8,17.8,0,0,0-3.7,6.083A20.611,20.611,0,0,0,4524.723,218.126Z" transform="translate(-4303.073 -171.322)" fill="#fff"/>
          <path id="Path_256" data-name="Path 256" d="M5461.985,177.7h-1.153c-27.113,0-29.662,27.8-29.662,27.8v37.842h14.936V214.329q0-2.941.34-6.55a20.881,20.881,0,0,1,1.809-6.768,13.071,13.071,0,0,1,4.569-5.3s2.761-2.555,8.582-3.071c5.829.516,8.585,3.071,8.585,3.071a13.026,13.026,0,0,1,4.57,5.3,20.839,20.839,0,0,1,1.81,6.768q.342,3.609.343,6.55v29.012h14.929V205.5S5489.1,177.7,5461.985,177.7Z" transform="translate(-5150.632 -164.797)" fill="#fff"/>
          <path id="Path_257" data-name="Path 257" d="M6319.364,18.52V37.227a34.148,34.148,0,0,0-5.869-2.848,39.4,39.4,0,0,0-26.979,0,32.365,32.365,0,0,0-10.974,6.744,31.887,31.887,0,0,0-7.338,10.514,33.54,33.54,0,0,0-2.714,13.687,33.548,33.548,0,0,0,2.714,13.688,31.9,31.9,0,0,0,7.338,10.514,32.4,32.4,0,0,0,10.974,6.744,39.433,39.433,0,0,0,26.979,0,34.275,34.275,0,0,0,5.869-2.849v2.724h15.159V18.52ZM6317.4,72.466a17.981,17.981,0,0,1-3.7,6.084,18.757,18.757,0,0,1-27.374,0,17.718,17.718,0,0,1-3.7-6.084,20.924,20.924,0,0,1,0-14.282,17.749,17.749,0,0,1,3.7-6.083,18.76,18.76,0,0,1,27.374,0,18.021,18.021,0,0,1,3.7,6.083,20.939,20.939,0,0,1,0,14.282Z" transform="translate(-5917.325 -18.52)" fill="#fff"/>
          <path id="Path_258" data-name="Path 258" d="M1970.21,18.52V96.146h15.158V93.423a34.3,34.3,0,0,0,5.871,2.849,39.433,39.433,0,0,0,26.979,0,32.42,32.42,0,0,0,10.973-6.744,32.019,32.019,0,0,0,7.342-10.514,33.558,33.558,0,0,0,2.709-13.688,33.551,33.551,0,0,0-2.709-13.687,32,32,0,0,0-7.342-10.514,32.356,32.356,0,0,0-10.973-6.744,39.4,39.4,0,0,0-26.979,0,34.115,34.115,0,0,0-5.871,2.848V18.52Zm15.868,46.8a20.613,20.613,0,0,1,1.256-7.141,18.007,18.007,0,0,1,3.7-6.083,18.756,18.756,0,0,1,27.373,0,17.767,17.767,0,0,1,3.7,6.083,20.932,20.932,0,0,1,0,14.282,17.721,17.721,0,0,1-3.7,6.084,18.755,18.755,0,0,1-27.373,0,17.959,17.959,0,0,1-3.7-6.084A20.59,20.59,0,0,1,1986.078,65.325Z" transform="translate(-1970.21 -18.52)" fill="#fff"/>
        </g>
      </g>
      <g id="Group_136" data-name="Group 136" transform="translate(63.668 0)">
        <path id="Path_259" data-name="Path 259" d="M1387.4,894.374c0,6.408-8.83,11.6-19.721,11.6s-19.72-5.2-19.72-11.6,8.83-11.6,19.72-11.6,19.721,5.2,19.721,11.6" transform="translate(-1302.365 -811.214)" fill="#fff" fill-rule="evenodd"/>
        <path id="Path_260" data-name="Path 260" d="M1539.164,1514.676c0,4.295-5.617,7.776-12.547,7.776s-12.547-3.481-12.547-7.776,5.617-7.776,12.547-7.776,12.547,3.482,12.547,7.776" transform="translate(-1455.011 -1384.754)" fill="#fff" fill-rule="evenodd"/>
        <path id="Path_261" data-name="Path 261" d="M1566.838,1235.929c0,5-5.829,9.049-13.019,9.049s-13.019-4.051-13.019-9.049,5.829-9.049,13.019-9.049,13.019,4.051,13.019,9.049" transform="translate(-1479.574 -1127.432)" fill="#fff" fill-rule="evenodd"/>
        <path id="Path_262" data-name="Path 262" d="M1455.536,1763.615c0,3.327-4.929,6.024-11.008,6.024s-11.008-2.7-11.008-6.024,4.928-6.024,11.008-6.024,11.008,2.7,11.008,6.024" transform="translate(-1380.99 -1615.124)" fill="#fff" fill-rule="evenodd"/>
        <path id="Path_263" data-name="Path 263" d="M1320.545,1913.3c0,2.388-3.1,4.325-6.923,4.325s-6.922-1.936-6.922-4.325,3.1-4.324,6.922-4.324,6.923,1.936,6.923,4.324" transform="translate(-1264.45 -1754.242)" fill="#fff" fill-rule="evenodd"/>
        <path id="Path_264" data-name="Path 264" d="M1017.934,324.7c0-4.294-5.617-7.776-12.547-7.776S992.84,320.4,992.84,324.7s5.618,7.776,12.547,7.776,12.547-3.482,12.547-7.776" transform="translate(-976.03 -291.231)" fill="#fff" fill-rule="evenodd"/>
        <path id="Path_265" data-name="Path 265" d="M1045.6,574.569c0-5-5.829-9.049-13.019-9.049s-13.019,4.051-13.019,9.049,5.829,9.049,13.019,9.049,13.019-4.051,13.019-9.049" transform="translate(-1000.584 -519.68)" fill="#fff" fill-rule="evenodd"/>
        <path id="Path_266" data-name="Path 266" d="M934.3,115.474c0-3.327-4.928-6.024-11.008-6.024s-11.008,2.7-11.008,6.024,4.928,6.024,11.008,6.024,11.008-2.7,11.008-6.024" transform="translate(-902 -100.578)" fill="#fff" fill-rule="evenodd"/>
        <path id="Path_267" data-name="Path 267" d="M799.3,4.324c0-2.389-3.1-4.324-6.922-4.324s-6.922,1.936-6.922,4.324,3.1,4.324,6.922,4.324S799.3,6.712,799.3,4.324" transform="translate(-785.46 0)" fill="#fff" fill-rule="evenodd"/>
      </g>
      <g id="Group_137" data-name="Group 137" transform="translate(0 0)">
        <path id="Path_268" data-name="Path 268" d="M31.694,20.423a25.517,25.517,0,0,1,11.7,48.2H71.623a45.561,45.561,0,0,0,6.023-22.67A46.088,46.088,0,0,0,31.694,0H0L4.465,20.423H31.694Z" transform="translate(0 0)" fill="#fff"/>
        <path id="Path_269" data-name="Path 269" d="M251.116,881.86H192.8l4.465,20.423h53.851a25.529,25.529,0,0,1,0,51.059H208.428l4.465,20.423h38.223a45.953,45.953,0,0,0,0-91.905Z" transform="translate(-177.172 -810.378)" fill="#fff"/>
      </g>
    </g>
    <path id="Path_429" data-name="Path 429" d="M-234.156-25.7l-.72,9.288H-239.7l-.72-9.288Zm8.352,0-.72,9.288h-4.824l-.72-9.288Zm4.9,25.7V-25.7h6.948V-5.616h9.9V0Zm32.8,0H-201.5V-3.96l3.2-1.224V-20.556l-3.2-1.188V-25.7h13.392v3.96l-3.2,1.188V-5.184l3.2,1.224Zm25.956,0H-170l-5.076-9.828L-177.132-8.6V0h-6.984V-25.7h6.984v11.16a16.743,16.743,0,0,1,1.008-1.674q.576-.846,1.116-1.6l5.4-7.884h7.6l-8.1,11.52Zm18.036,0h-15.264V-25.7h15.264v5.58h-8.316v4.032h7.7v5.58h-7.7v4.86h8.316Zm21.5-18.281,2.408-.686a34.548,34.548,0,0,1,2.619,5.977l-2.479.826A30.245,30.245,0,0,0-122.617-18.281Zm4.342-1.125,2.391-.721a35.049,35.049,0,0,1,2.549,5.73l-2.443.861A33.216,33.216,0,0,0-118.275-19.406Zm1.547-7.189.123,3.516a13.2,13.2,0,0,0-6.082,1.336q-7.242,3.9-7.242,11.232,0,7.225,10.828,8.244l-.932,3.814q-13.5-1.23-13.5-11.883a13.29,13.29,0,0,1,2.18-7.453,15.55,15.55,0,0,1,5.238-4.816l1.723-.686-.07-.246-1.969.527q-4.535.545-13.588,1.512l-.316-3.586Q-130.211-25.822-116.728-26.6Zm27.492,7.523q.053,5.977.334,11.232a23.019,23.019,0,0,1,6.363,4.711L-85.017-.07a15.849,15.849,0,0,0-3.92-3.99v.176a4.5,4.5,0,0,1-1.934,3.9,7.836,7.836,0,0,1-4.658,1.248q-6.662,0-6.662-5.221a4.443,4.443,0,0,1,1.951-3.8A7.272,7.272,0,0,1-95.863-9a18.558,18.558,0,0,1,3.287.281q-.246-5.15-.3-10.213-3.076.105-6.012.105-.211,0-3.516-.07v-3.164q2.531.105,4.43.105,2.479,0,5.063-.105v-6.275H-89.2q-.035,2.162-.035,6.047,2.6-.141,5.7-.492v3.34Q-85.474-19.283-89.236-19.072ZM-92.47-5.432a8.433,8.433,0,0,0-3.5-.615,3.885,3.885,0,0,0-2.3.615,1.792,1.792,0,0,0-.791,1.512q0,2.162,3.463,2.162,3.129,0,3.129-3.023ZM-103.7-28a83.273,83.273,0,0,0-2.373,17.842,72.921,72.921,0,0,0,1,11.268l-3.709.334a84.589,84.589,0,0,1-.861-11.672,93.322,93.322,0,0,1,2.2-18.07Zm35.209,4.676q2.637-.193,4.729-.475l.07,3.164q-3.463.352-5.625.475a95.579,95.579,0,0,1-6.4,16.594l-3.5-1.582a71.375,71.375,0,0,0,6.188-14.836q-2.725.07-3.885.07l-1.723-.035-.07-3.129q.826.035,2.443.035,1.3,0,4.025-.07.563-2.443,1.055-5.941l3.85.51Q-67.738-26.508-68.494-23.326ZM-61.9-8.684q-.281-2.707-.316-8.736H-58.7a93.187,93.187,0,0,0,.369,9.457A25.672,25.672,0,0,1-51.461-3.6L-53.482-.211a19.069,19.069,0,0,0-4.852-4.078v.9A4.524,4.524,0,0,1-60.3.563a8.484,8.484,0,0,1-4.869,1.23A7.643,7.643,0,0,1-70.41.246a4.7,4.7,0,0,1-1.459-3.674A4.8,4.8,0,0,1-69.461-7.7a8.93,8.93,0,0,1,4.852-1.23A13.166,13.166,0,0,1-61.9-8.684Zm.141,3.287a6.879,6.879,0,0,0-2.654-.475q-4.219,0-4.219,2.408,0,2.232,3.533,2.232,3.393,0,3.393-2.883a1.865,1.865,0,0,0-.018-.211Zm0-16.137,1.652-2.918a37.632,37.632,0,0,1,8.895,4.113l-1.863,3.2A29.88,29.88,0,0,0-61.761-21.533ZM-33.9-29.092l3.393,2.373A149.222,149.222,0,0,1-41.916-15.012a1.671,1.671,0,0,0-.686,1.23q0,.422,1.072,1.248A108.086,108.086,0,0,1-28.961-.721l-3.252,2.707A88.64,88.64,0,0,0-45.625-11.373a2.883,2.883,0,0,1-1.2-2.338,3.066,3.066,0,0,1,.967-2.232q4.465-4.465,6.662-6.873Q-36.554-25.7-33.9-29.092ZM-22.7-7.312A34.129,34.129,0,0,1-15.214.721L-18.73,3.27a30.265,30.265,0,0,0-7.137-8.086ZM23.569,0H14.461l-9.4-18.108H4.921l.054.63q.054.63.108,1.638T5.191-13.7q.054,1.134.054,2.106V0H-.911V-25.7H8.161l9.36,17.856h.108l-.036-.612q-.036-.612-.09-1.584t-.09-2.052q-.036-1.08-.036-1.98V-25.7h6.192ZM44.377,0H29.113V-25.7H44.377v5.58H36.061v4.032h7.7v5.58h-7.7v4.86h8.316ZM64.141,0H48.877V-25.7H64.141v5.58H55.825v4.032h7.7v5.58h-7.7v4.86h8.316ZM90.457-13.392A15.079,15.079,0,0,1,88.783-5.94a10.618,10.618,0,0,1-4.7,4.464A16.084,16.084,0,0,1,76.957,0H68.641V-25.7h8.892q6.192,0,9.558,3.168T90.457-13.392Zm-7.2.252q0-6.948-5.652-6.948H75.589v14.4h1.548a5.6,5.6,0,0,0,4.644-1.836Q83.257-9.36,83.257-13.14ZM100.681-25.7l-.72,9.288H95.137l-.72-9.288Zm8.352,0-.72,9.288h-4.824l-.72-9.288ZM133.3-18q.668-.369,8.279-4.289L143.562-19a58.424,58.424,0,0,0-12.182,6.117,10.973,10.973,0,0,0-3.234,3.375,5.948,5.948,0,0,0-.9,3.023,3.474,3.474,0,0,0,1.811,3.27,11.051,11.051,0,0,0,5.2.949,86.993,86.993,0,0,0,9.264-.475V1q-4.377.229-8.613.229-6.275,0-8.895-1.986-2.443-1.828-2.443-5.836,0-5.168,6.451-9.422a125.577,125.577,0,0,1-2.707-12.639l3.814-.3A85.363,85.363,0,0,0,133.3-18Zm26.385-5.326q2.637-.193,4.729-.475l.07,3.164q-3.463.352-5.625.475a95.579,95.579,0,0,1-6.4,16.594l-3.5-1.582a71.375,71.375,0,0,0,6.188-14.836q-2.725.07-3.885.07l-1.723-.035-.07-3.129q.826.035,2.443.035,1.3,0,4.025-.07.563-2.443,1.055-5.941l3.85.51Q160.437-26.508,159.681-23.326Zm6.592,14.643q-.281-2.707-.316-8.736h3.516a93.187,93.187,0,0,0,.369,9.457A25.672,25.672,0,0,1,176.714-3.6L174.693-.211a19.069,19.069,0,0,0-4.852-4.078v.9A4.524,4.524,0,0,1,167.872.563,8.484,8.484,0,0,1,163,1.793,7.643,7.643,0,0,1,157.765.246a4.7,4.7,0,0,1-1.459-3.674A4.8,4.8,0,0,1,158.714-7.7a8.93,8.93,0,0,1,4.852-1.23A13.166,13.166,0,0,1,166.273-8.684Zm.141,3.287a6.879,6.879,0,0,0-2.654-.475q-4.219,0-4.219,2.408,0,2.232,3.533,2.232,3.393,0,3.393-2.883a1.865,1.865,0,0,0-.018-.211Zm0-16.137,1.652-2.918a37.632,37.632,0,0,1,8.895,4.113l-1.863,3.2A29.88,29.88,0,0,0,166.413-21.533Zm17.1-5.572q6.434,0,15.486-.475l1.793,2.637q-3.937,3.586-10.441,9.246l-1.371,1.125.176.141,1.705-.984a10.341,10.341,0,0,1,3.779-.756q4.623,0,7.154,2.549a7.961,7.961,0,0,1,2.232,5.889q0,5.063-3.533,7.541-3.094,2.18-8.7,2.18-7.453,0-7.453-5.256A4.329,4.329,0,0,1,186.1-6.785a5.97,5.97,0,0,1,3.814-1.248,6.854,6.854,0,0,1,4.729,1.74,9.345,9.345,0,0,1,2.584,4.2q2.988-1.143,2.988-5.678a5.315,5.315,0,0,0-1.9-4.395,6.411,6.411,0,0,0-4.148-1.3,12.578,12.578,0,0,0-8.314,3.393,26.93,26.93,0,0,0-3.234,3.3l-2.777-2.479q9.756-9.967,15.363-15.205-6.064.58-11.584.65ZM193.782-1.072A5.943,5.943,0,0,0,192.2-4.395a3.249,3.249,0,0,0-2.285-.9,2.822,2.822,0,0,0-1.863.6,1.665,1.665,0,0,0-.65,1.354q0,2.514,4.219,2.514A12.5,12.5,0,0,0,193.782-1.072ZM222.7-5.941q.352,0,.352.4v2.373q0,.4-.352.4l-3.937-.088h-1.652v1.055l.07,4.324q0,.281-.088.334a.709.709,0,0,1-.352.053h-2.514a.556.556,0,0,1-.352-.07.873.873,0,0,1-.035-.316l.053-4.324V-2.848h-1.354l-4.1.088a.641.641,0,0,1-.387-.07A.656.656,0,0,1,208-3.164V-5.537q0-.3.088-.352a.709.709,0,0,1,.352-.053l4.1.07h1.354V-8.209h-.562l-3.814.07q-.387,0-.387-.352l.07-2.672v-3.059l-.07-2.672q0-.281.07-.334a.605.605,0,0,1,.316-.053l3.814.07h.563v-2.127l-2.479.088q-.316,0-.369-.07a.656.656,0,0,1-.053-.334l.07-3.34v-1.055q-1.125.018-1.986.053l-.6.018q-.3,0-.352-.07a.605.605,0,0,1-.053-.316V-26.49a.641.641,0,0,1,.07-.387.656.656,0,0,1,.334-.053l2.584.07a22.779,22.779,0,0,0-.176-3.2q1.424.053,3.006.211.51.07.51.3a1.76,1.76,0,0,1-.211.615,7.791,7.791,0,0,0-.141,2.074h3.059a20.736,20.736,0,0,0-.193-3.2q1.6.053,3.041.211.51.07.51.3a.653.653,0,0,1-.105.334q-.105.229-.123.281a8.592,8.592,0,0,0-.141,2.074l2.672-.07q.246,0,.3.088a.709.709,0,0,1,.053.352v2.127q0,.387-.352.387l-.809-.018q-.844-.035-1.863-.053v1.055l.088,3.34q0,.3-.088.352a.709.709,0,0,1-.352.053l-2.637-.088v2.127h.65l3.779-.07q.439,0,.439.369a36.537,36.537,0,0,0,4.2-10.477,17.693,17.693,0,0,0,.4-2.566,27,27,0,0,1,3.2,1.09q.545.264.545.615a1.287,1.287,0,0,1-.334.6,5.761,5.761,0,0,0-.756,1.846l-1,3.094V-3.094l.07,5.5q0,.369-.4.369h-2.654q-.387,0-.387-.369l.07-5.5v-8.279q0-1.371.07-4.605a22.876,22.876,0,0,1-1.16,2.338q-.316.545-.51.545t-.422-.615a14.117,14.117,0,0,0-1-2.092v4.641l.07,2.672q0,.246-.088.3a.709.709,0,0,1-.352.053l-3.779-.07h-.65v2.338h1.652Zm-3.709-4.746v-4.025h-2.021v4.025Zm-6.8,0h1.863v-4.025h-1.863Zm4.922-11.057v-2.3H214.05v2.3ZM238.15-6.873a10.14,10.14,0,0,0,2.408,1.3,1.573,1.573,0,0,1,.615.352.789.789,0,0,1,.141.527q0,.123-.035.439a19.58,19.58,0,0,1-.58,4.236,3.606,3.606,0,0,1-1.107,1.635,5.83,5.83,0,0,1-3.6.826,8.061,8.061,0,0,1-3.445-.545,2.146,2.146,0,0,1-1.09-1.09,5.517,5.517,0,0,1-.281-2V-25.207a30.41,30.41,0,0,0-.229-4.342,30.919,30.919,0,0,1,3.445.246q.686.053.686.475a1.933,1.933,0,0,1-.264.721,12.119,12.119,0,0,0-.246,3.3v7.277a23.476,23.476,0,0,0,2.988-4.184,14.3,14.3,0,0,0,1.072-2.268,25.032,25.032,0,0,1,2.3,2.514,1.044,1.044,0,0,1,.3.65.558.558,0,0,1-.4.51,5.235,5.235,0,0,0-1.266,1.406,45.612,45.612,0,0,1-4.992,5.836V-2.338q0,.914.352,1.178a2.565,2.565,0,0,0,1.23.211,1.712,1.712,0,0,0,1.248-.387,2.616,2.616,0,0,0,.58-1.564Q238.114-3.973,238.15-6.873Z" transform="translate(348.5 524.965)" fill="none" stroke="#fff" stroke-width="1"/>
  </g>
</svg>
