<svg xmlns="http://www.w3.org/2000/svg" width="381.733" height="413.233" viewBox="0 0 381.733 413.233">
  <g id="Group_86" data-name="Group 86" transform="translate(-882 -1680)" opacity="0.6">
    <g id="Group_1" data-name="Group 1" transform="translate(1043.031 1680)">
      <path id="Path_1" data-name="Path 1" d="M916.166,564.019c0,16.21-22.329,29.35-49.878,29.35s-49.879-13.14-49.879-29.35,22.33-29.349,49.879-29.349,49.878,13.14,49.878,29.349" transform="translate(-701.101 -353.697)" fill="#fff" fill-rule="evenodd"/>
      <path id="Path_2" data-name="Path 2" d="M980.5,932.356c0,10.861-14.206,19.665-31.732,19.665s-31.732-8.8-31.732-19.665,14.206-19.666,31.732-19.666,31.732,8.8,31.732,19.666" transform="translate(-767.67 -603.765)" fill="#fff" fill-rule="evenodd"/>
      <path id="Path_3" data-name="Path 3" d="M999.075,765.978c0,12.638-14.741,22.887-32.927,22.887s-32.928-10.245-32.928-22.887,14.741-22.888,32.928-22.888,32.927,10.244,32.927,22.888" transform="translate(-778.373 -491.57)" fill="#fff" fill-rule="evenodd"/>
      <path id="Path_4" data-name="Path 4" d="M923.929,1079.764c0,8.415-12.465,15.234-27.84,15.234s-27.84-6.819-27.84-15.234,12.463-15.235,27.84-15.235,27.84,6.82,27.84,15.235" transform="translate(-735.394 -704.211)" fill="#fff" fill-rule="evenodd"/>
      <path id="Path_5" data-name="Path 5" d="M826.452,1167.166c0,6.041-7.839,10.937-17.506,10.937s-17.506-4.9-17.506-10.937,7.839-10.937,17.506-10.937,17.506,4.9,17.506,10.937" transform="translate(-684.583 -764.871)" fill="#fff" fill-rule="evenodd"/>
      <path id="Path_6" data-name="Path 6" d="M664.8,211.615c0-10.862-14.206-19.665-31.732-19.665s-31.732,8.8-31.732,19.665,14.206,19.666,31.732,19.666,31.732-8.8,31.732-19.666" transform="translate(-558.827 -126.979)" fill="#fff" fill-rule="evenodd"/>
      <path id="Path_7" data-name="Path 7" d="M683.374,365.408c0-12.639-14.741-22.888-32.927-22.888s-32.927,10.246-32.927,22.888S632.261,388.3,650.447,388.3s32.927-10.245,32.927-22.888" transform="translate(-569.531 -226.584)" fill="#fff" fill-rule="evenodd"/>
      <path id="Path_8" data-name="Path 8" d="M608.229,81.525c0-8.415-12.466-15.235-27.84-15.235S552.55,73.11,552.55,81.525,565.013,96.76,580.389,96.76s27.84-6.82,27.84-15.235" transform="translate(-526.551 -43.852)" fill="#fff" fill-rule="evenodd"/>
      <path id="Path_9" data-name="Path 9" d="M510.752,10.936C510.752,4.9,502.912,0,493.246,0S475.74,4.9,475.74,10.936s7.839,10.936,17.506,10.936,17.506-4.9,17.506-10.936" transform="translate(-475.74)" fill="#fff" fill-rule="evenodd"/>
    </g>
    <g id="Group_2" data-name="Group 2" transform="translate(882 1680)">
      <path id="Path_10" data-name="Path 10" d="M80.158,51.652a64.537,64.537,0,0,1,29.593,121.906h71.395a115.234,115.234,0,0,0,15.235-57.338C196.378,52.3,144.08,0,80.158,0H0L11.292,51.652Z" fill="#fff"/>
      <path id="Path_11" data-name="Path 11" d="M264.261,534.12H116.77l11.292,51.655h136.2a64.568,64.568,0,0,1,0,129.136H156.3l11.292,51.655h96.672c63.922,0,116.22-52.3,116.22-116.219s-52.3-116.22-116.22-116.22Z" transform="translate(-77.246 -353.332)" fill="#fff"/>
    </g>
  </g>
</svg>
