<svg xmlns="http://www.w3.org/2000/svg" xmlns:xlink="http://www.w3.org/1999/xlink" width="893" height="922" viewBox="0 0 893 922">
  <defs>
    <clipPath id="clip-path">
      <rect width="893" height="922" fill="none"/>
    </clipPath>
  </defs>
  <g id="Group_339" data-name="Group 339" transform="translate(-514 -3927)">
    <g id="Repeat_Grid_1" data-name="Repeat Grid 1" transform="translate(514 3927)" clip-path="url(#clip-path)">
      <g transform="translate(-360 -2081)">
        <rect id="Rectangle_20" data-name="Rectangle 20" width="280" height="280" transform="translate(360 2081)" fill="#fff"/>
        <path id="Path_455" data-name="Path 455" d="M-47.44-1.9H-44.1V-2.88H-47.44V-4.224h-1.184V-2.88h-3.264V-1.9h3.264v1.68h-5.36V.784H-41.92V-.224h-5.52ZM-50.88-6.88h5.808v1.136H-50.88Zm5.808-3.968v1.072H-50.88v-1.072ZM-50.88-8.88h5.808v1.1H-50.88Zm10.1,4.144V-5.744h-3.088v-5.1h2.4v-.992h-2.4v-1.536h-1.2v1.536H-50.88v-1.536h-1.168v1.536H-54.48v.992h2.432v5.1h-3.168v1.008h3.456a9.291,9.291,0,0,1-3.616,2.672,4.154,4.154,0,0,1,.768.912,10.947,10.947,0,0,0,4.176-3.584h5.008A9.783,9.783,0,0,0-41.36-1.36a4.65,4.65,0,0,1,.784-.912,8.846,8.846,0,0,1-3.6-2.464Zm13.088-2h1.008V-9.424a6.539,6.539,0,0,0,1.5,2.224,3.458,3.458,0,0,1,.656-.7A6.926,6.926,0,0,1-26.4-10.656h1.648v-.928h-1.936v-1.792H-27.7v1.792h-1.6v.928H-28a6.8,6.8,0,0,1-2.032,2.72,3.344,3.344,0,0,1,.56.784A7.676,7.676,0,0,0-27.7-9.472Zm-7.536,4.8H-37.1V-6.608h1.872ZM-34.208-.9V-7.648h-2.8a36,36,0,0,0,.72-3.7h2.528v.688h1.472a8.2,8.2,0,0,1-1.92,2.72,3.5,3.5,0,0,1,.576.8,9.831,9.831,0,0,0,1.6-2.176v2.576h1.008V-9.328A13.2,13.2,0,0,1-30.1-8.272l.592-.7c-.224-.224-1.2-1.04-1.52-1.3v-.384H-29.6v-.928h-1.424v-1.792h-1.008v1.792h-1.7v-.832h-5.488v1.072h1.808A18.223,18.223,0,0,1-39.472-4.32a8.338,8.338,0,0,1,.7,1.024A10.918,10.918,0,0,0-38.1-4.512V.432h.992V-.9Zm5.392-1.472h3.1V-3.36h-3.1V-5.248h2.608a9.9,9.9,0,0,1-.448,1.136l.912.336a16.873,16.873,0,0,0,.928-2.256l-.752-.272-.192.064h-8.016v.992h3.856V-.464a3.526,3.526,0,0,1-1.744-2.384c.1-.528.16-1.072.208-1.616h-1.056c-.16,1.936-.608,3.872-2.24,4.9a4.244,4.244,0,0,1,.736.784,5.159,5.159,0,0,0,1.968-2.624C-31.168.5-29.792.944-27.712.944H-24.9A3.845,3.845,0,0,1-24.56-.08c-.512.016-2.736.016-3.088.016a6.813,6.813,0,0,1-1.168-.08ZM-9.1-10.48a16.885,16.885,0,0,0-2.64-2.56l-.864.576A17.072,17.072,0,0,1-10.032-9.84Zm-9.872-2.72A17.936,17.936,0,0,1-23.6-6.7a7.818,7.818,0,0,1,.688,1.152A18.132,18.132,0,0,0-20.768-7.9V1.2h1.2V-9.616a21.567,21.567,0,0,0,1.712-3.232ZM-8.8-8.048l-.16-1.12-4.784.608c-.16-1.408-.256-2.96-.3-4.576h-1.184c.064,1.664.176,3.248.3,4.736l-3.872.48.16,1.12,3.84-.48c.608,4.992,1.888,8.3,4.512,8.5.832.048,1.472-.784,1.824-3.52a4.84,4.84,0,0,1-.992-.624c-.16,1.84-.416,2.784-.88,2.752-1.712-.16-2.752-3.024-3.3-7.264Zm5.84-4.784H-6.624v.96H-2.96Zm.384,2.1H-7.328v.976h4.752Zm-.352,2.16h-3.76v.944h3.76ZM-6.688-5.5h3.76v-.96h-3.76ZM-3.872-.672h-1.92V-3.344h1.92ZM-2.9-4.32H-6.72V1.04h.928V.288h2.9ZM-.928-6.384H1.2V-5.1c-.736.144-1.456.288-2.128.416ZM1.2-10.864v1.312H-.928v-1.312Zm0,3.552H-.928V-8.64H1.2ZM2.192-6.08v-5.7H.4c.176-.432.352-.928.528-1.408l-1.152-.224A15.312,15.312,0,0,1-.64-11.776H-1.9v7.264c-.272.048-.528.1-.768.128l.256.992,2.944-.64A13.418,13.418,0,0,1-2.9-.912a9.556,9.556,0,0,1,.768.9A16.718,16.718,0,0,0,1.2-3.184v3.12c0,.224-.08.3-.288.3S.016.256-.768.224A3.534,3.534,0,0,1-.384,1.232,6.211,6.211,0,0,0,1.664,1.04c.384-.192.528-.528.528-1.1v-4.5c.272-.432.512-.864.736-1.3ZM4.736-3.136a16,16,0,0,0-.944-3.872l-.88.208a15.257,15.257,0,0,1,.88,3.888ZM7.36-9.456h-.9v-3.792H5.36v3.792H2.528v1.1H5.36V-.144c0,.24-.1.3-.288.32-.224,0-.928.016-1.728-.016a4.625,4.625,0,0,1,.352,1.1A5.838,5.838,0,0,0,5.872,1.04c.432-.176.592-.512.592-1.2V-8.352h.9ZM22.9-10.816l-.784-.752a7.9,7.9,0,0,1-1.12.1H11.808a13.578,13.578,0,0,1-1.824-.144v1.456a17.878,17.878,0,0,1,1.824-.1h9.12a10.869,10.869,0,0,1-3.5,3.584l1.056.848a15.426,15.426,0,0,0,3.984-4.416C22.576-10.416,22.784-10.656,22.9-10.816ZM16.512-8.7h-1.44a9.619,9.619,0,0,1,.064,1.152c0,2.672-.352,4.944-2.832,6.464a5.511,5.511,0,0,1-1.44.72l1.184.96C16.128-1.44,16.512-4.368,16.512-8.7Zm15.216-.512-1.168.4a30.16,30.16,0,0,1,1.248,3.472l1.184-.416C32.784-6.464,32-8.576,31.728-9.216Zm5.792.9-1.376-.432A10.972,10.972,0,0,1,33.936-3.28a10.774,10.774,0,0,1-5.2,3.408L29.792,1.2a12.192,12.192,0,0,0,5.216-3.808A12.54,12.54,0,0,0,37.28-7.52C37.344-7.728,37.408-7.984,37.52-8.32Zm-9.5-.1-1.184.464a28.619,28.619,0,0,1,1.424,3.6L29.472-4.8C29.168-5.632,28.336-7.728,28.016-8.416ZM52.88-11.488a1.069,1.069,0,0,1,1.056-1.072,1.072,1.072,0,0,1,1.072,1.072,1.069,1.069,0,0,1-1.072,1.056A1.065,1.065,0,0,1,52.88-11.488Zm-.736,0a1.8,1.8,0,0,0,.08.512c-.192.016-.368.016-.512.016H43.68a12.348,12.348,0,0,1-1.6-.112v1.424c.416-.016.96-.048,1.6-.048h8.176a11.975,11.975,0,0,1-2.1,5.216A10.535,10.535,0,0,1,43.52-.64L44.608.56a12.116,12.116,0,0,0,6.3-4.272,15.631,15.631,0,0,0,2.384-5.9.826.826,0,0,0,.032-.176,1.934,1.934,0,0,0,.608.1,1.8,1.8,0,0,0,1.808-1.792A1.816,1.816,0,0,0,53.936-13.3,1.8,1.8,0,0,0,52.144-11.488Z" transform="translate(500 2336)" fill="#3c3c3b"/>
      </g>
      <g transform="translate(-53 -2081)">
        <rect id="Rectangle_20-2" data-name="Rectangle 20" width="280" height="280" transform="translate(360 2081)" fill="#fff"/>
        <path id="Path_455-2" data-name="Path 455" d="M-47.44-1.9H-44.1V-2.88H-47.44V-4.224h-1.184V-2.88h-3.264V-1.9h3.264v1.68h-5.36V.784H-41.92V-.224h-5.52ZM-50.88-6.88h5.808v1.136H-50.88Zm5.808-3.968v1.072H-50.88v-1.072ZM-50.88-8.88h5.808v1.1H-50.88Zm10.1,4.144V-5.744h-3.088v-5.1h2.4v-.992h-2.4v-1.536h-1.2v1.536H-50.88v-1.536h-1.168v1.536H-54.48v.992h2.432v5.1h-3.168v1.008h3.456a9.291,9.291,0,0,1-3.616,2.672,4.154,4.154,0,0,1,.768.912,10.947,10.947,0,0,0,4.176-3.584h5.008A9.783,9.783,0,0,0-41.36-1.36a4.65,4.65,0,0,1,.784-.912,8.846,8.846,0,0,1-3.6-2.464Zm13.088-2h1.008V-9.424a6.539,6.539,0,0,0,1.5,2.224,3.458,3.458,0,0,1,.656-.7A6.926,6.926,0,0,1-26.4-10.656h1.648v-.928h-1.936v-1.792H-27.7v1.792h-1.6v.928H-28a6.8,6.8,0,0,1-2.032,2.72,3.344,3.344,0,0,1,.56.784A7.676,7.676,0,0,0-27.7-9.472Zm-7.536,4.8H-37.1V-6.608h1.872ZM-34.208-.9V-7.648h-2.8a36,36,0,0,0,.72-3.7h2.528v.688h1.472a8.2,8.2,0,0,1-1.92,2.72,3.5,3.5,0,0,1,.576.8,9.831,9.831,0,0,0,1.6-2.176v2.576h1.008V-9.328A13.2,13.2,0,0,1-30.1-8.272l.592-.7c-.224-.224-1.2-1.04-1.52-1.3v-.384H-29.6v-.928h-1.424v-1.792h-1.008v1.792h-1.7v-.832h-5.488v1.072h1.808A18.223,18.223,0,0,1-39.472-4.32a8.338,8.338,0,0,1,.7,1.024A10.918,10.918,0,0,0-38.1-4.512V.432h.992V-.9Zm5.392-1.472h3.1V-3.36h-3.1V-5.248h2.608a9.9,9.9,0,0,1-.448,1.136l.912.336a16.873,16.873,0,0,0,.928-2.256l-.752-.272-.192.064h-8.016v.992h3.856V-.464a3.526,3.526,0,0,1-1.744-2.384c.1-.528.16-1.072.208-1.616h-1.056c-.16,1.936-.608,3.872-2.24,4.9a4.244,4.244,0,0,1,.736.784,5.159,5.159,0,0,0,1.968-2.624C-31.168.5-29.792.944-27.712.944H-24.9A3.845,3.845,0,0,1-24.56-.08c-.512.016-2.736.016-3.088.016a6.813,6.813,0,0,1-1.168-.08ZM-9.1-10.48a16.885,16.885,0,0,0-2.64-2.56l-.864.576A17.072,17.072,0,0,1-10.032-9.84Zm-9.872-2.72A17.936,17.936,0,0,1-23.6-6.7a7.818,7.818,0,0,1,.688,1.152A18.132,18.132,0,0,0-20.768-7.9V1.2h1.2V-9.616a21.567,21.567,0,0,0,1.712-3.232ZM-8.8-8.048l-.16-1.12-4.784.608c-.16-1.408-.256-2.96-.3-4.576h-1.184c.064,1.664.176,3.248.3,4.736l-3.872.48.16,1.12,3.84-.48c.608,4.992,1.888,8.3,4.512,8.5.832.048,1.472-.784,1.824-3.52a4.84,4.84,0,0,1-.992-.624c-.16,1.84-.416,2.784-.88,2.752-1.712-.16-2.752-3.024-3.3-7.264Zm5.84-4.784H-6.624v.96H-2.96Zm.384,2.1H-7.328v.976h4.752Zm-.352,2.16h-3.76v.944h3.76ZM-6.688-5.5h3.76v-.96h-3.76ZM-3.872-.672h-1.92V-3.344h1.92ZM-2.9-4.32H-6.72V1.04h.928V.288h2.9ZM-.928-6.384H1.2V-5.1c-.736.144-1.456.288-2.128.416ZM1.2-10.864v1.312H-.928v-1.312Zm0,3.552H-.928V-8.64H1.2ZM2.192-6.08v-5.7H.4c.176-.432.352-.928.528-1.408l-1.152-.224A15.312,15.312,0,0,1-.64-11.776H-1.9v7.264c-.272.048-.528.1-.768.128l.256.992,2.944-.64A13.418,13.418,0,0,1-2.9-.912a9.556,9.556,0,0,1,.768.9A16.718,16.718,0,0,0,1.2-3.184v3.12c0,.224-.08.3-.288.3S.016.256-.768.224A3.534,3.534,0,0,1-.384,1.232,6.211,6.211,0,0,0,1.664,1.04c.384-.192.528-.528.528-1.1v-4.5c.272-.432.512-.864.736-1.3ZM4.736-3.136a16,16,0,0,0-.944-3.872l-.88.208a15.257,15.257,0,0,1,.88,3.888ZM7.36-9.456h-.9v-3.792H5.36v3.792H2.528v1.1H5.36V-.144c0,.24-.1.3-.288.32-.224,0-.928.016-1.728-.016a4.625,4.625,0,0,1,.352,1.1A5.838,5.838,0,0,0,5.872,1.04c.432-.176.592-.512.592-1.2V-8.352h.9ZM22.9-10.816l-.784-.752a7.9,7.9,0,0,1-1.12.1H11.808a13.578,13.578,0,0,1-1.824-.144v1.456a17.878,17.878,0,0,1,1.824-.1h9.12a10.869,10.869,0,0,1-3.5,3.584l1.056.848a15.426,15.426,0,0,0,3.984-4.416C22.576-10.416,22.784-10.656,22.9-10.816ZM16.512-8.7h-1.44a9.619,9.619,0,0,1,.064,1.152c0,2.672-.352,4.944-2.832,6.464a5.511,5.511,0,0,1-1.44.72l1.184.96C16.128-1.44,16.512-4.368,16.512-8.7Zm15.216-.512-1.168.4a30.16,30.16,0,0,1,1.248,3.472l1.184-.416C32.784-6.464,32-8.576,31.728-9.216Zm5.792.9-1.376-.432A10.972,10.972,0,0,1,33.936-3.28a10.774,10.774,0,0,1-5.2,3.408L29.792,1.2a12.192,12.192,0,0,0,5.216-3.808A12.54,12.54,0,0,0,37.28-7.52C37.344-7.728,37.408-7.984,37.52-8.32Zm-9.5-.1-1.184.464a28.619,28.619,0,0,1,1.424,3.6L29.472-4.8C29.168-5.632,28.336-7.728,28.016-8.416ZM52.88-11.488a1.069,1.069,0,0,1,1.056-1.072,1.072,1.072,0,0,1,1.072,1.072,1.069,1.069,0,0,1-1.072,1.056A1.065,1.065,0,0,1,52.88-11.488Zm-.736,0a1.8,1.8,0,0,0,.08.512c-.192.016-.368.016-.512.016H43.68a12.348,12.348,0,0,1-1.6-.112v1.424c.416-.016.96-.048,1.6-.048h8.176a11.975,11.975,0,0,1-2.1,5.216A10.535,10.535,0,0,1,43.52-.64L44.608.56a12.116,12.116,0,0,0,6.3-4.272,15.631,15.631,0,0,0,2.384-5.9.826.826,0,0,0,.032-.176,1.934,1.934,0,0,0,.608.1,1.8,1.8,0,0,0,1.808-1.792A1.816,1.816,0,0,0,53.936-13.3,1.8,1.8,0,0,0,52.144-11.488Z" transform="translate(500 2336)" fill="#3c3c3b"/>
      </g>
      <g transform="translate(254 -2081)">
        <rect id="Rectangle_20-3" data-name="Rectangle 20" width="280" height="280" transform="translate(360 2081)" fill="#fff"/>
        <path id="Path_455-3" data-name="Path 455" d="M-47.44-1.9H-44.1V-2.88H-47.44V-4.224h-1.184V-2.88h-3.264V-1.9h3.264v1.68h-5.36V.784H-41.92V-.224h-5.52ZM-50.88-6.88h5.808v1.136H-50.88Zm5.808-3.968v1.072H-50.88v-1.072ZM-50.88-8.88h5.808v1.1H-50.88Zm10.1,4.144V-5.744h-3.088v-5.1h2.4v-.992h-2.4v-1.536h-1.2v1.536H-50.88v-1.536h-1.168v1.536H-54.48v.992h2.432v5.1h-3.168v1.008h3.456a9.291,9.291,0,0,1-3.616,2.672,4.154,4.154,0,0,1,.768.912,10.947,10.947,0,0,0,4.176-3.584h5.008A9.783,9.783,0,0,0-41.36-1.36a4.65,4.65,0,0,1,.784-.912,8.846,8.846,0,0,1-3.6-2.464Zm13.088-2h1.008V-9.424a6.539,6.539,0,0,0,1.5,2.224,3.458,3.458,0,0,1,.656-.7A6.926,6.926,0,0,1-26.4-10.656h1.648v-.928h-1.936v-1.792H-27.7v1.792h-1.6v.928H-28a6.8,6.8,0,0,1-2.032,2.72,3.344,3.344,0,0,1,.56.784A7.676,7.676,0,0,0-27.7-9.472Zm-7.536,4.8H-37.1V-6.608h1.872ZM-34.208-.9V-7.648h-2.8a36,36,0,0,0,.72-3.7h2.528v.688h1.472a8.2,8.2,0,0,1-1.92,2.72,3.5,3.5,0,0,1,.576.8,9.831,9.831,0,0,0,1.6-2.176v2.576h1.008V-9.328A13.2,13.2,0,0,1-30.1-8.272l.592-.7c-.224-.224-1.2-1.04-1.52-1.3v-.384H-29.6v-.928h-1.424v-1.792h-1.008v1.792h-1.7v-.832h-5.488v1.072h1.808A18.223,18.223,0,0,1-39.472-4.32a8.338,8.338,0,0,1,.7,1.024A10.918,10.918,0,0,0-38.1-4.512V.432h.992V-.9Zm5.392-1.472h3.1V-3.36h-3.1V-5.248h2.608a9.9,9.9,0,0,1-.448,1.136l.912.336a16.873,16.873,0,0,0,.928-2.256l-.752-.272-.192.064h-8.016v.992h3.856V-.464a3.526,3.526,0,0,1-1.744-2.384c.1-.528.16-1.072.208-1.616h-1.056c-.16,1.936-.608,3.872-2.24,4.9a4.244,4.244,0,0,1,.736.784,5.159,5.159,0,0,0,1.968-2.624C-31.168.5-29.792.944-27.712.944H-24.9A3.845,3.845,0,0,1-24.56-.08c-.512.016-2.736.016-3.088.016a6.813,6.813,0,0,1-1.168-.08ZM-9.1-10.48a16.885,16.885,0,0,0-2.64-2.56l-.864.576A17.072,17.072,0,0,1-10.032-9.84Zm-9.872-2.72A17.936,17.936,0,0,1-23.6-6.7a7.818,7.818,0,0,1,.688,1.152A18.132,18.132,0,0,0-20.768-7.9V1.2h1.2V-9.616a21.567,21.567,0,0,0,1.712-3.232ZM-8.8-8.048l-.16-1.12-4.784.608c-.16-1.408-.256-2.96-.3-4.576h-1.184c.064,1.664.176,3.248.3,4.736l-3.872.48.16,1.12,3.84-.48c.608,4.992,1.888,8.3,4.512,8.5.832.048,1.472-.784,1.824-3.52a4.84,4.84,0,0,1-.992-.624c-.16,1.84-.416,2.784-.88,2.752-1.712-.16-2.752-3.024-3.3-7.264Zm5.84-4.784H-6.624v.96H-2.96Zm.384,2.1H-7.328v.976h4.752Zm-.352,2.16h-3.76v.944h3.76ZM-6.688-5.5h3.76v-.96h-3.76ZM-3.872-.672h-1.92V-3.344h1.92ZM-2.9-4.32H-6.72V1.04h.928V.288h2.9ZM-.928-6.384H1.2V-5.1c-.736.144-1.456.288-2.128.416ZM1.2-10.864v1.312H-.928v-1.312Zm0,3.552H-.928V-8.64H1.2ZM2.192-6.08v-5.7H.4c.176-.432.352-.928.528-1.408l-1.152-.224A15.312,15.312,0,0,1-.64-11.776H-1.9v7.264c-.272.048-.528.1-.768.128l.256.992,2.944-.64A13.418,13.418,0,0,1-2.9-.912a9.556,9.556,0,0,1,.768.9A16.718,16.718,0,0,0,1.2-3.184v3.12c0,.224-.08.3-.288.3S.016.256-.768.224A3.534,3.534,0,0,1-.384,1.232,6.211,6.211,0,0,0,1.664,1.04c.384-.192.528-.528.528-1.1v-4.5c.272-.432.512-.864.736-1.3ZM4.736-3.136a16,16,0,0,0-.944-3.872l-.88.208a15.257,15.257,0,0,1,.88,3.888ZM7.36-9.456h-.9v-3.792H5.36v3.792H2.528v1.1H5.36V-.144c0,.24-.1.3-.288.32-.224,0-.928.016-1.728-.016a4.625,4.625,0,0,1,.352,1.1A5.838,5.838,0,0,0,5.872,1.04c.432-.176.592-.512.592-1.2V-8.352h.9ZM22.9-10.816l-.784-.752a7.9,7.9,0,0,1-1.12.1H11.808a13.578,13.578,0,0,1-1.824-.144v1.456a17.878,17.878,0,0,1,1.824-.1h9.12a10.869,10.869,0,0,1-3.5,3.584l1.056.848a15.426,15.426,0,0,0,3.984-4.416C22.576-10.416,22.784-10.656,22.9-10.816ZM16.512-8.7h-1.44a9.619,9.619,0,0,1,.064,1.152c0,2.672-.352,4.944-2.832,6.464a5.511,5.511,0,0,1-1.44.72l1.184.96C16.128-1.44,16.512-4.368,16.512-8.7Zm15.216-.512-1.168.4a30.16,30.16,0,0,1,1.248,3.472l1.184-.416C32.784-6.464,32-8.576,31.728-9.216Zm5.792.9-1.376-.432A10.972,10.972,0,0,1,33.936-3.28a10.774,10.774,0,0,1-5.2,3.408L29.792,1.2a12.192,12.192,0,0,0,5.216-3.808A12.54,12.54,0,0,0,37.28-7.52C37.344-7.728,37.408-7.984,37.52-8.32Zm-9.5-.1-1.184.464a28.619,28.619,0,0,1,1.424,3.6L29.472-4.8C29.168-5.632,28.336-7.728,28.016-8.416ZM52.88-11.488a1.069,1.069,0,0,1,1.056-1.072,1.072,1.072,0,0,1,1.072,1.072,1.069,1.069,0,0,1-1.072,1.056A1.065,1.065,0,0,1,52.88-11.488Zm-.736,0a1.8,1.8,0,0,0,.08.512c-.192.016-.368.016-.512.016H43.68a12.348,12.348,0,0,1-1.6-.112v1.424c.416-.016.96-.048,1.6-.048h8.176a11.975,11.975,0,0,1-2.1,5.216A10.535,10.535,0,0,1,43.52-.64L44.608.56a12.116,12.116,0,0,0,6.3-4.272,15.631,15.631,0,0,0,2.384-5.9.826.826,0,0,0,.032-.176,1.934,1.934,0,0,0,.608.1,1.8,1.8,0,0,0,1.808-1.792A1.816,1.816,0,0,0,53.936-13.3,1.8,1.8,0,0,0,52.144-11.488Z" transform="translate(500 2336)" fill="#3c3c3b"/>
      </g>
      <g transform="translate(-360 -1762)">
        <rect id="Rectangle_20-4" data-name="Rectangle 20" width="280" height="280" transform="translate(360 2081)" fill="#fff"/>
        <path id="Path_455-4" data-name="Path 455" d="M-47.44-1.9H-44.1V-2.88H-47.44V-4.224h-1.184V-2.88h-3.264V-1.9h3.264v1.68h-5.36V.784H-41.92V-.224h-5.52ZM-50.88-6.88h5.808v1.136H-50.88Zm5.808-3.968v1.072H-50.88v-1.072ZM-50.88-8.88h5.808v1.1H-50.88Zm10.1,4.144V-5.744h-3.088v-5.1h2.4v-.992h-2.4v-1.536h-1.2v1.536H-50.88v-1.536h-1.168v1.536H-54.48v.992h2.432v5.1h-3.168v1.008h3.456a9.291,9.291,0,0,1-3.616,2.672,4.154,4.154,0,0,1,.768.912,10.947,10.947,0,0,0,4.176-3.584h5.008A9.783,9.783,0,0,0-41.36-1.36a4.65,4.65,0,0,1,.784-.912,8.846,8.846,0,0,1-3.6-2.464Zm13.088-2h1.008V-9.424a6.539,6.539,0,0,0,1.5,2.224,3.458,3.458,0,0,1,.656-.7A6.926,6.926,0,0,1-26.4-10.656h1.648v-.928h-1.936v-1.792H-27.7v1.792h-1.6v.928H-28a6.8,6.8,0,0,1-2.032,2.72,3.344,3.344,0,0,1,.56.784A7.676,7.676,0,0,0-27.7-9.472Zm-7.536,4.8H-37.1V-6.608h1.872ZM-34.208-.9V-7.648h-2.8a36,36,0,0,0,.72-3.7h2.528v.688h1.472a8.2,8.2,0,0,1-1.92,2.72,3.5,3.5,0,0,1,.576.8,9.831,9.831,0,0,0,1.6-2.176v2.576h1.008V-9.328A13.2,13.2,0,0,1-30.1-8.272l.592-.7c-.224-.224-1.2-1.04-1.52-1.3v-.384H-29.6v-.928h-1.424v-1.792h-1.008v1.792h-1.7v-.832h-5.488v1.072h1.808A18.223,18.223,0,0,1-39.472-4.32a8.338,8.338,0,0,1,.7,1.024A10.918,10.918,0,0,0-38.1-4.512V.432h.992V-.9Zm5.392-1.472h3.1V-3.36h-3.1V-5.248h2.608a9.9,9.9,0,0,1-.448,1.136l.912.336a16.873,16.873,0,0,0,.928-2.256l-.752-.272-.192.064h-8.016v.992h3.856V-.464a3.526,3.526,0,0,1-1.744-2.384c.1-.528.16-1.072.208-1.616h-1.056c-.16,1.936-.608,3.872-2.24,4.9a4.244,4.244,0,0,1,.736.784,5.159,5.159,0,0,0,1.968-2.624C-31.168.5-29.792.944-27.712.944H-24.9A3.845,3.845,0,0,1-24.56-.08c-.512.016-2.736.016-3.088.016a6.813,6.813,0,0,1-1.168-.08ZM-9.1-10.48a16.885,16.885,0,0,0-2.64-2.56l-.864.576A17.072,17.072,0,0,1-10.032-9.84Zm-9.872-2.72A17.936,17.936,0,0,1-23.6-6.7a7.818,7.818,0,0,1,.688,1.152A18.132,18.132,0,0,0-20.768-7.9V1.2h1.2V-9.616a21.567,21.567,0,0,0,1.712-3.232ZM-8.8-8.048l-.16-1.12-4.784.608c-.16-1.408-.256-2.96-.3-4.576h-1.184c.064,1.664.176,3.248.3,4.736l-3.872.48.16,1.12,3.84-.48c.608,4.992,1.888,8.3,4.512,8.5.832.048,1.472-.784,1.824-3.52a4.84,4.84,0,0,1-.992-.624c-.16,1.84-.416,2.784-.88,2.752-1.712-.16-2.752-3.024-3.3-7.264Zm5.84-4.784H-6.624v.96H-2.96Zm.384,2.1H-7.328v.976h4.752Zm-.352,2.16h-3.76v.944h3.76ZM-6.688-5.5h3.76v-.96h-3.76ZM-3.872-.672h-1.92V-3.344h1.92ZM-2.9-4.32H-6.72V1.04h.928V.288h2.9ZM-.928-6.384H1.2V-5.1c-.736.144-1.456.288-2.128.416ZM1.2-10.864v1.312H-.928v-1.312Zm0,3.552H-.928V-8.64H1.2ZM2.192-6.08v-5.7H.4c.176-.432.352-.928.528-1.408l-1.152-.224A15.312,15.312,0,0,1-.64-11.776H-1.9v7.264c-.272.048-.528.1-.768.128l.256.992,2.944-.64A13.418,13.418,0,0,1-2.9-.912a9.556,9.556,0,0,1,.768.9A16.718,16.718,0,0,0,1.2-3.184v3.12c0,.224-.08.3-.288.3S.016.256-.768.224A3.534,3.534,0,0,1-.384,1.232,6.211,6.211,0,0,0,1.664,1.04c.384-.192.528-.528.528-1.1v-4.5c.272-.432.512-.864.736-1.3ZM4.736-3.136a16,16,0,0,0-.944-3.872l-.88.208a15.257,15.257,0,0,1,.88,3.888ZM7.36-9.456h-.9v-3.792H5.36v3.792H2.528v1.1H5.36V-.144c0,.24-.1.3-.288.32-.224,0-.928.016-1.728-.016a4.625,4.625,0,0,1,.352,1.1A5.838,5.838,0,0,0,5.872,1.04c.432-.176.592-.512.592-1.2V-8.352h.9ZM22.9-10.816l-.784-.752a7.9,7.9,0,0,1-1.12.1H11.808a13.578,13.578,0,0,1-1.824-.144v1.456a17.878,17.878,0,0,1,1.824-.1h9.12a10.869,10.869,0,0,1-3.5,3.584l1.056.848a15.426,15.426,0,0,0,3.984-4.416C22.576-10.416,22.784-10.656,22.9-10.816ZM16.512-8.7h-1.44a9.619,9.619,0,0,1,.064,1.152c0,2.672-.352,4.944-2.832,6.464a5.511,5.511,0,0,1-1.44.72l1.184.96C16.128-1.44,16.512-4.368,16.512-8.7Zm15.216-.512-1.168.4a30.16,30.16,0,0,1,1.248,3.472l1.184-.416C32.784-6.464,32-8.576,31.728-9.216Zm5.792.9-1.376-.432A10.972,10.972,0,0,1,33.936-3.28a10.774,10.774,0,0,1-5.2,3.408L29.792,1.2a12.192,12.192,0,0,0,5.216-3.808A12.54,12.54,0,0,0,37.28-7.52C37.344-7.728,37.408-7.984,37.52-8.32Zm-9.5-.1-1.184.464a28.619,28.619,0,0,1,1.424,3.6L29.472-4.8C29.168-5.632,28.336-7.728,28.016-8.416ZM52.88-11.488a1.069,1.069,0,0,1,1.056-1.072,1.072,1.072,0,0,1,1.072,1.072,1.069,1.069,0,0,1-1.072,1.056A1.065,1.065,0,0,1,52.88-11.488Zm-.736,0a1.8,1.8,0,0,0,.08.512c-.192.016-.368.016-.512.016H43.68a12.348,12.348,0,0,1-1.6-.112v1.424c.416-.016.96-.048,1.6-.048h8.176a11.975,11.975,0,0,1-2.1,5.216A10.535,10.535,0,0,1,43.52-.64L44.608.56a12.116,12.116,0,0,0,6.3-4.272,15.631,15.631,0,0,0,2.384-5.9.826.826,0,0,0,.032-.176,1.934,1.934,0,0,0,.608.1,1.8,1.8,0,0,0,1.808-1.792A1.816,1.816,0,0,0,53.936-13.3,1.8,1.8,0,0,0,52.144-11.488Z" transform="translate(500 2336)" fill="#3c3c3b"/>
      </g>
      <g transform="translate(-53 -1762)">
        <rect id="Rectangle_20-5" data-name="Rectangle 20" width="280" height="280" transform="translate(360 2081)" fill="#fff"/>
        <path id="Path_455-5" data-name="Path 455" d="M-47.44-1.9H-44.1V-2.88H-47.44V-4.224h-1.184V-2.88h-3.264V-1.9h3.264v1.68h-5.36V.784H-41.92V-.224h-5.52ZM-50.88-6.88h5.808v1.136H-50.88Zm5.808-3.968v1.072H-50.88v-1.072ZM-50.88-8.88h5.808v1.1H-50.88Zm10.1,4.144V-5.744h-3.088v-5.1h2.4v-.992h-2.4v-1.536h-1.2v1.536H-50.88v-1.536h-1.168v1.536H-54.48v.992h2.432v5.1h-3.168v1.008h3.456a9.291,9.291,0,0,1-3.616,2.672,4.154,4.154,0,0,1,.768.912,10.947,10.947,0,0,0,4.176-3.584h5.008A9.783,9.783,0,0,0-41.36-1.36a4.65,4.65,0,0,1,.784-.912,8.846,8.846,0,0,1-3.6-2.464Zm13.088-2h1.008V-9.424a6.539,6.539,0,0,0,1.5,2.224,3.458,3.458,0,0,1,.656-.7A6.926,6.926,0,0,1-26.4-10.656h1.648v-.928h-1.936v-1.792H-27.7v1.792h-1.6v.928H-28a6.8,6.8,0,0,1-2.032,2.72,3.344,3.344,0,0,1,.56.784A7.676,7.676,0,0,0-27.7-9.472Zm-7.536,4.8H-37.1V-6.608h1.872ZM-34.208-.9V-7.648h-2.8a36,36,0,0,0,.72-3.7h2.528v.688h1.472a8.2,8.2,0,0,1-1.92,2.72,3.5,3.5,0,0,1,.576.8,9.831,9.831,0,0,0,1.6-2.176v2.576h1.008V-9.328A13.2,13.2,0,0,1-30.1-8.272l.592-.7c-.224-.224-1.2-1.04-1.52-1.3v-.384H-29.6v-.928h-1.424v-1.792h-1.008v1.792h-1.7v-.832h-5.488v1.072h1.808A18.223,18.223,0,0,1-39.472-4.32a8.338,8.338,0,0,1,.7,1.024A10.918,10.918,0,0,0-38.1-4.512V.432h.992V-.9Zm5.392-1.472h3.1V-3.36h-3.1V-5.248h2.608a9.9,9.9,0,0,1-.448,1.136l.912.336a16.873,16.873,0,0,0,.928-2.256l-.752-.272-.192.064h-8.016v.992h3.856V-.464a3.526,3.526,0,0,1-1.744-2.384c.1-.528.16-1.072.208-1.616h-1.056c-.16,1.936-.608,3.872-2.24,4.9a4.244,4.244,0,0,1,.736.784,5.159,5.159,0,0,0,1.968-2.624C-31.168.5-29.792.944-27.712.944H-24.9A3.845,3.845,0,0,1-24.56-.08c-.512.016-2.736.016-3.088.016a6.813,6.813,0,0,1-1.168-.08ZM-9.1-10.48a16.885,16.885,0,0,0-2.64-2.56l-.864.576A17.072,17.072,0,0,1-10.032-9.84Zm-9.872-2.72A17.936,17.936,0,0,1-23.6-6.7a7.818,7.818,0,0,1,.688,1.152A18.132,18.132,0,0,0-20.768-7.9V1.2h1.2V-9.616a21.567,21.567,0,0,0,1.712-3.232ZM-8.8-8.048l-.16-1.12-4.784.608c-.16-1.408-.256-2.96-.3-4.576h-1.184c.064,1.664.176,3.248.3,4.736l-3.872.48.16,1.12,3.84-.48c.608,4.992,1.888,8.3,4.512,8.5.832.048,1.472-.784,1.824-3.52a4.84,4.84,0,0,1-.992-.624c-.16,1.84-.416,2.784-.88,2.752-1.712-.16-2.752-3.024-3.3-7.264Zm5.84-4.784H-6.624v.96H-2.96Zm.384,2.1H-7.328v.976h4.752Zm-.352,2.16h-3.76v.944h3.76ZM-6.688-5.5h3.76v-.96h-3.76ZM-3.872-.672h-1.92V-3.344h1.92ZM-2.9-4.32H-6.72V1.04h.928V.288h2.9ZM-.928-6.384H1.2V-5.1c-.736.144-1.456.288-2.128.416ZM1.2-10.864v1.312H-.928v-1.312Zm0,3.552H-.928V-8.64H1.2ZM2.192-6.08v-5.7H.4c.176-.432.352-.928.528-1.408l-1.152-.224A15.312,15.312,0,0,1-.64-11.776H-1.9v7.264c-.272.048-.528.1-.768.128l.256.992,2.944-.64A13.418,13.418,0,0,1-2.9-.912a9.556,9.556,0,0,1,.768.9A16.718,16.718,0,0,0,1.2-3.184v3.12c0,.224-.08.3-.288.3S.016.256-.768.224A3.534,3.534,0,0,1-.384,1.232,6.211,6.211,0,0,0,1.664,1.04c.384-.192.528-.528.528-1.1v-4.5c.272-.432.512-.864.736-1.3ZM4.736-3.136a16,16,0,0,0-.944-3.872l-.88.208a15.257,15.257,0,0,1,.88,3.888ZM7.36-9.456h-.9v-3.792H5.36v3.792H2.528v1.1H5.36V-.144c0,.24-.1.3-.288.32-.224,0-.928.016-1.728-.016a4.625,4.625,0,0,1,.352,1.1A5.838,5.838,0,0,0,5.872,1.04c.432-.176.592-.512.592-1.2V-8.352h.9ZM22.9-10.816l-.784-.752a7.9,7.9,0,0,1-1.12.1H11.808a13.578,13.578,0,0,1-1.824-.144v1.456a17.878,17.878,0,0,1,1.824-.1h9.12a10.869,10.869,0,0,1-3.5,3.584l1.056.848a15.426,15.426,0,0,0,3.984-4.416C22.576-10.416,22.784-10.656,22.9-10.816ZM16.512-8.7h-1.44a9.619,9.619,0,0,1,.064,1.152c0,2.672-.352,4.944-2.832,6.464a5.511,5.511,0,0,1-1.44.72l1.184.96C16.128-1.44,16.512-4.368,16.512-8.7Zm15.216-.512-1.168.4a30.16,30.16,0,0,1,1.248,3.472l1.184-.416C32.784-6.464,32-8.576,31.728-9.216Zm5.792.9-1.376-.432A10.972,10.972,0,0,1,33.936-3.28a10.774,10.774,0,0,1-5.2,3.408L29.792,1.2a12.192,12.192,0,0,0,5.216-3.808A12.54,12.54,0,0,0,37.28-7.52C37.344-7.728,37.408-7.984,37.52-8.32Zm-9.5-.1-1.184.464a28.619,28.619,0,0,1,1.424,3.6L29.472-4.8C29.168-5.632,28.336-7.728,28.016-8.416ZM52.88-11.488a1.069,1.069,0,0,1,1.056-1.072,1.072,1.072,0,0,1,1.072,1.072,1.069,1.069,0,0,1-1.072,1.056A1.065,1.065,0,0,1,52.88-11.488Zm-.736,0a1.8,1.8,0,0,0,.08.512c-.192.016-.368.016-.512.016H43.68a12.348,12.348,0,0,1-1.6-.112v1.424c.416-.016.96-.048,1.6-.048h8.176a11.975,11.975,0,0,1-2.1,5.216A10.535,10.535,0,0,1,43.52-.64L44.608.56a12.116,12.116,0,0,0,6.3-4.272,15.631,15.631,0,0,0,2.384-5.9.826.826,0,0,0,.032-.176,1.934,1.934,0,0,0,.608.1,1.8,1.8,0,0,0,1.808-1.792A1.816,1.816,0,0,0,53.936-13.3,1.8,1.8,0,0,0,52.144-11.488Z" transform="translate(500 2336)" fill="#3c3c3b"/>
      </g>
      <g transform="translate(254 -1762)">
        <rect id="Rectangle_20-6" data-name="Rectangle 20" width="280" height="280" transform="translate(360 2081)" fill="#fff"/>
        <path id="Path_455-6" data-name="Path 455" d="M-47.44-1.9H-44.1V-2.88H-47.44V-4.224h-1.184V-2.88h-3.264V-1.9h3.264v1.68h-5.36V.784H-41.92V-.224h-5.52ZM-50.88-6.88h5.808v1.136H-50.88Zm5.808-3.968v1.072H-50.88v-1.072ZM-50.88-8.88h5.808v1.1H-50.88Zm10.1,4.144V-5.744h-3.088v-5.1h2.4v-.992h-2.4v-1.536h-1.2v1.536H-50.88v-1.536h-1.168v1.536H-54.48v.992h2.432v5.1h-3.168v1.008h3.456a9.291,9.291,0,0,1-3.616,2.672,4.154,4.154,0,0,1,.768.912,10.947,10.947,0,0,0,4.176-3.584h5.008A9.783,9.783,0,0,0-41.36-1.36a4.65,4.65,0,0,1,.784-.912,8.846,8.846,0,0,1-3.6-2.464Zm13.088-2h1.008V-9.424a6.539,6.539,0,0,0,1.5,2.224,3.458,3.458,0,0,1,.656-.7A6.926,6.926,0,0,1-26.4-10.656h1.648v-.928h-1.936v-1.792H-27.7v1.792h-1.6v.928H-28a6.8,6.8,0,0,1-2.032,2.72,3.344,3.344,0,0,1,.56.784A7.676,7.676,0,0,0-27.7-9.472Zm-7.536,4.8H-37.1V-6.608h1.872ZM-34.208-.9V-7.648h-2.8a36,36,0,0,0,.72-3.7h2.528v.688h1.472a8.2,8.2,0,0,1-1.92,2.72,3.5,3.5,0,0,1,.576.8,9.831,9.831,0,0,0,1.6-2.176v2.576h1.008V-9.328A13.2,13.2,0,0,1-30.1-8.272l.592-.7c-.224-.224-1.2-1.04-1.52-1.3v-.384H-29.6v-.928h-1.424v-1.792h-1.008v1.792h-1.7v-.832h-5.488v1.072h1.808A18.223,18.223,0,0,1-39.472-4.32a8.338,8.338,0,0,1,.7,1.024A10.918,10.918,0,0,0-38.1-4.512V.432h.992V-.9Zm5.392-1.472h3.1V-3.36h-3.1V-5.248h2.608a9.9,9.9,0,0,1-.448,1.136l.912.336a16.873,16.873,0,0,0,.928-2.256l-.752-.272-.192.064h-8.016v.992h3.856V-.464a3.526,3.526,0,0,1-1.744-2.384c.1-.528.16-1.072.208-1.616h-1.056c-.16,1.936-.608,3.872-2.24,4.9a4.244,4.244,0,0,1,.736.784,5.159,5.159,0,0,0,1.968-2.624C-31.168.5-29.792.944-27.712.944H-24.9A3.845,3.845,0,0,1-24.56-.08c-.512.016-2.736.016-3.088.016a6.813,6.813,0,0,1-1.168-.08ZM-9.1-10.48a16.885,16.885,0,0,0-2.64-2.56l-.864.576A17.072,17.072,0,0,1-10.032-9.84Zm-9.872-2.72A17.936,17.936,0,0,1-23.6-6.7a7.818,7.818,0,0,1,.688,1.152A18.132,18.132,0,0,0-20.768-7.9V1.2h1.2V-9.616a21.567,21.567,0,0,0,1.712-3.232ZM-8.8-8.048l-.16-1.12-4.784.608c-.16-1.408-.256-2.96-.3-4.576h-1.184c.064,1.664.176,3.248.3,4.736l-3.872.48.16,1.12,3.84-.48c.608,4.992,1.888,8.3,4.512,8.5.832.048,1.472-.784,1.824-3.52a4.84,4.84,0,0,1-.992-.624c-.16,1.84-.416,2.784-.88,2.752-1.712-.16-2.752-3.024-3.3-7.264Zm5.84-4.784H-6.624v.96H-2.96Zm.384,2.1H-7.328v.976h4.752Zm-.352,2.16h-3.76v.944h3.76ZM-6.688-5.5h3.76v-.96h-3.76ZM-3.872-.672h-1.92V-3.344h1.92ZM-2.9-4.32H-6.72V1.04h.928V.288h2.9ZM-.928-6.384H1.2V-5.1c-.736.144-1.456.288-2.128.416ZM1.2-10.864v1.312H-.928v-1.312Zm0,3.552H-.928V-8.64H1.2ZM2.192-6.08v-5.7H.4c.176-.432.352-.928.528-1.408l-1.152-.224A15.312,15.312,0,0,1-.64-11.776H-1.9v7.264c-.272.048-.528.1-.768.128l.256.992,2.944-.64A13.418,13.418,0,0,1-2.9-.912a9.556,9.556,0,0,1,.768.9A16.718,16.718,0,0,0,1.2-3.184v3.12c0,.224-.08.3-.288.3S.016.256-.768.224A3.534,3.534,0,0,1-.384,1.232,6.211,6.211,0,0,0,1.664,1.04c.384-.192.528-.528.528-1.1v-4.5c.272-.432.512-.864.736-1.3ZM4.736-3.136a16,16,0,0,0-.944-3.872l-.88.208a15.257,15.257,0,0,1,.88,3.888ZM7.36-9.456h-.9v-3.792H5.36v3.792H2.528v1.1H5.36V-.144c0,.24-.1.3-.288.32-.224,0-.928.016-1.728-.016a4.625,4.625,0,0,1,.352,1.1A5.838,5.838,0,0,0,5.872,1.04c.432-.176.592-.512.592-1.2V-8.352h.9ZM22.9-10.816l-.784-.752a7.9,7.9,0,0,1-1.12.1H11.808a13.578,13.578,0,0,1-1.824-.144v1.456a17.878,17.878,0,0,1,1.824-.1h9.12a10.869,10.869,0,0,1-3.5,3.584l1.056.848a15.426,15.426,0,0,0,3.984-4.416C22.576-10.416,22.784-10.656,22.9-10.816ZM16.512-8.7h-1.44a9.619,9.619,0,0,1,.064,1.152c0,2.672-.352,4.944-2.832,6.464a5.511,5.511,0,0,1-1.44.72l1.184.96C16.128-1.44,16.512-4.368,16.512-8.7Zm15.216-.512-1.168.4a30.16,30.16,0,0,1,1.248,3.472l1.184-.416C32.784-6.464,32-8.576,31.728-9.216Zm5.792.9-1.376-.432A10.972,10.972,0,0,1,33.936-3.28a10.774,10.774,0,0,1-5.2,3.408L29.792,1.2a12.192,12.192,0,0,0,5.216-3.808A12.54,12.54,0,0,0,37.28-7.52C37.344-7.728,37.408-7.984,37.52-8.32Zm-9.5-.1-1.184.464a28.619,28.619,0,0,1,1.424,3.6L29.472-4.8C29.168-5.632,28.336-7.728,28.016-8.416ZM52.88-11.488a1.069,1.069,0,0,1,1.056-1.072,1.072,1.072,0,0,1,1.072,1.072,1.069,1.069,0,0,1-1.072,1.056A1.065,1.065,0,0,1,52.88-11.488Zm-.736,0a1.8,1.8,0,0,0,.08.512c-.192.016-.368.016-.512.016H43.68a12.348,12.348,0,0,1-1.6-.112v1.424c.416-.016.96-.048,1.6-.048h8.176a11.975,11.975,0,0,1-2.1,5.216A10.535,10.535,0,0,1,43.52-.64L44.608.56a12.116,12.116,0,0,0,6.3-4.272,15.631,15.631,0,0,0,2.384-5.9.826.826,0,0,0,.032-.176,1.934,1.934,0,0,0,.608.1,1.8,1.8,0,0,0,1.808-1.792A1.816,1.816,0,0,0,53.936-13.3,1.8,1.8,0,0,0,52.144-11.488Z" transform="translate(500 2336)" fill="#3c3c3b"/>
      </g>
      <g transform="translate(-360 -1443)">
        <rect id="Rectangle_20-7" data-name="Rectangle 20" width="280" height="280" transform="translate(360 2081)" fill="#fff"/>
        <path id="Path_455-7" data-name="Path 455" d="M-47.44-1.9H-44.1V-2.88H-47.44V-4.224h-1.184V-2.88h-3.264V-1.9h3.264v1.68h-5.36V.784H-41.92V-.224h-5.52ZM-50.88-6.88h5.808v1.136H-50.88Zm5.808-3.968v1.072H-50.88v-1.072ZM-50.88-8.88h5.808v1.1H-50.88Zm10.1,4.144V-5.744h-3.088v-5.1h2.4v-.992h-2.4v-1.536h-1.2v1.536H-50.88v-1.536h-1.168v1.536H-54.48v.992h2.432v5.1h-3.168v1.008h3.456a9.291,9.291,0,0,1-3.616,2.672,4.154,4.154,0,0,1,.768.912,10.947,10.947,0,0,0,4.176-3.584h5.008A9.783,9.783,0,0,0-41.36-1.36a4.65,4.65,0,0,1,.784-.912,8.846,8.846,0,0,1-3.6-2.464Zm13.088-2h1.008V-9.424a6.539,6.539,0,0,0,1.5,2.224,3.458,3.458,0,0,1,.656-.7A6.926,6.926,0,0,1-26.4-10.656h1.648v-.928h-1.936v-1.792H-27.7v1.792h-1.6v.928H-28a6.8,6.8,0,0,1-2.032,2.72,3.344,3.344,0,0,1,.56.784A7.676,7.676,0,0,0-27.7-9.472Zm-7.536,4.8H-37.1V-6.608h1.872ZM-34.208-.9V-7.648h-2.8a36,36,0,0,0,.72-3.7h2.528v.688h1.472a8.2,8.2,0,0,1-1.92,2.72,3.5,3.5,0,0,1,.576.8,9.831,9.831,0,0,0,1.6-2.176v2.576h1.008V-9.328A13.2,13.2,0,0,1-30.1-8.272l.592-.7c-.224-.224-1.2-1.04-1.52-1.3v-.384H-29.6v-.928h-1.424v-1.792h-1.008v1.792h-1.7v-.832h-5.488v1.072h1.808A18.223,18.223,0,0,1-39.472-4.32a8.338,8.338,0,0,1,.7,1.024A10.918,10.918,0,0,0-38.1-4.512V.432h.992V-.9Zm5.392-1.472h3.1V-3.36h-3.1V-5.248h2.608a9.9,9.9,0,0,1-.448,1.136l.912.336a16.873,16.873,0,0,0,.928-2.256l-.752-.272-.192.064h-8.016v.992h3.856V-.464a3.526,3.526,0,0,1-1.744-2.384c.1-.528.16-1.072.208-1.616h-1.056c-.16,1.936-.608,3.872-2.24,4.9a4.244,4.244,0,0,1,.736.784,5.159,5.159,0,0,0,1.968-2.624C-31.168.5-29.792.944-27.712.944H-24.9A3.845,3.845,0,0,1-24.56-.08c-.512.016-2.736.016-3.088.016a6.813,6.813,0,0,1-1.168-.08ZM-9.1-10.48a16.885,16.885,0,0,0-2.64-2.56l-.864.576A17.072,17.072,0,0,1-10.032-9.84Zm-9.872-2.72A17.936,17.936,0,0,1-23.6-6.7a7.818,7.818,0,0,1,.688,1.152A18.132,18.132,0,0,0-20.768-7.9V1.2h1.2V-9.616a21.567,21.567,0,0,0,1.712-3.232ZM-8.8-8.048l-.16-1.12-4.784.608c-.16-1.408-.256-2.96-.3-4.576h-1.184c.064,1.664.176,3.248.3,4.736l-3.872.48.16,1.12,3.84-.48c.608,4.992,1.888,8.3,4.512,8.5.832.048,1.472-.784,1.824-3.52a4.84,4.84,0,0,1-.992-.624c-.16,1.84-.416,2.784-.88,2.752-1.712-.16-2.752-3.024-3.3-7.264Zm5.84-4.784H-6.624v.96H-2.96Zm.384,2.1H-7.328v.976h4.752Zm-.352,2.16h-3.76v.944h3.76ZM-6.688-5.5h3.76v-.96h-3.76ZM-3.872-.672h-1.92V-3.344h1.92ZM-2.9-4.32H-6.72V1.04h.928V.288h2.9ZM-.928-6.384H1.2V-5.1c-.736.144-1.456.288-2.128.416ZM1.2-10.864v1.312H-.928v-1.312Zm0,3.552H-.928V-8.64H1.2ZM2.192-6.08v-5.7H.4c.176-.432.352-.928.528-1.408l-1.152-.224A15.312,15.312,0,0,1-.64-11.776H-1.9v7.264c-.272.048-.528.1-.768.128l.256.992,2.944-.64A13.418,13.418,0,0,1-2.9-.912a9.556,9.556,0,0,1,.768.9A16.718,16.718,0,0,0,1.2-3.184v3.12c0,.224-.08.3-.288.3S.016.256-.768.224A3.534,3.534,0,0,1-.384,1.232,6.211,6.211,0,0,0,1.664,1.04c.384-.192.528-.528.528-1.1v-4.5c.272-.432.512-.864.736-1.3ZM4.736-3.136a16,16,0,0,0-.944-3.872l-.88.208a15.257,15.257,0,0,1,.88,3.888ZM7.36-9.456h-.9v-3.792H5.36v3.792H2.528v1.1H5.36V-.144c0,.24-.1.3-.288.32-.224,0-.928.016-1.728-.016a4.625,4.625,0,0,1,.352,1.1A5.838,5.838,0,0,0,5.872,1.04c.432-.176.592-.512.592-1.2V-8.352h.9ZM22.9-10.816l-.784-.752a7.9,7.9,0,0,1-1.12.1H11.808a13.578,13.578,0,0,1-1.824-.144v1.456a17.878,17.878,0,0,1,1.824-.1h9.12a10.869,10.869,0,0,1-3.5,3.584l1.056.848a15.426,15.426,0,0,0,3.984-4.416C22.576-10.416,22.784-10.656,22.9-10.816ZM16.512-8.7h-1.44a9.619,9.619,0,0,1,.064,1.152c0,2.672-.352,4.944-2.832,6.464a5.511,5.511,0,0,1-1.44.72l1.184.96C16.128-1.44,16.512-4.368,16.512-8.7Zm15.216-.512-1.168.4a30.16,30.16,0,0,1,1.248,3.472l1.184-.416C32.784-6.464,32-8.576,31.728-9.216Zm5.792.9-1.376-.432A10.972,10.972,0,0,1,33.936-3.28a10.774,10.774,0,0,1-5.2,3.408L29.792,1.2a12.192,12.192,0,0,0,5.216-3.808A12.54,12.54,0,0,0,37.28-7.52C37.344-7.728,37.408-7.984,37.52-8.32Zm-9.5-.1-1.184.464a28.619,28.619,0,0,1,1.424,3.6L29.472-4.8C29.168-5.632,28.336-7.728,28.016-8.416ZM52.88-11.488a1.069,1.069,0,0,1,1.056-1.072,1.072,1.072,0,0,1,1.072,1.072,1.069,1.069,0,0,1-1.072,1.056A1.065,1.065,0,0,1,52.88-11.488Zm-.736,0a1.8,1.8,0,0,0,.08.512c-.192.016-.368.016-.512.016H43.68a12.348,12.348,0,0,1-1.6-.112v1.424c.416-.016.96-.048,1.6-.048h8.176a11.975,11.975,0,0,1-2.1,5.216A10.535,10.535,0,0,1,43.52-.64L44.608.56a12.116,12.116,0,0,0,6.3-4.272,15.631,15.631,0,0,0,2.384-5.9.826.826,0,0,0,.032-.176,1.934,1.934,0,0,0,.608.1,1.8,1.8,0,0,0,1.808-1.792A1.816,1.816,0,0,0,53.936-13.3,1.8,1.8,0,0,0,52.144-11.488Z" transform="translate(500 2336)" fill="#3c3c3b"/>
      </g>
      <g transform="translate(-53 -1443)">
        <rect id="Rectangle_20-8" data-name="Rectangle 20" width="280" height="280" transform="translate(360 2081)" fill="#fff"/>
        <path id="Path_455-8" data-name="Path 455" d="M-47.44-1.9H-44.1V-2.88H-47.44V-4.224h-1.184V-2.88h-3.264V-1.9h3.264v1.68h-5.36V.784H-41.92V-.224h-5.52ZM-50.88-6.88h5.808v1.136H-50.88Zm5.808-3.968v1.072H-50.88v-1.072ZM-50.88-8.88h5.808v1.1H-50.88Zm10.1,4.144V-5.744h-3.088v-5.1h2.4v-.992h-2.4v-1.536h-1.2v1.536H-50.88v-1.536h-1.168v1.536H-54.48v.992h2.432v5.1h-3.168v1.008h3.456a9.291,9.291,0,0,1-3.616,2.672,4.154,4.154,0,0,1,.768.912,10.947,10.947,0,0,0,4.176-3.584h5.008A9.783,9.783,0,0,0-41.36-1.36a4.65,4.65,0,0,1,.784-.912,8.846,8.846,0,0,1-3.6-2.464Zm13.088-2h1.008V-9.424a6.539,6.539,0,0,0,1.5,2.224,3.458,3.458,0,0,1,.656-.7A6.926,6.926,0,0,1-26.4-10.656h1.648v-.928h-1.936v-1.792H-27.7v1.792h-1.6v.928H-28a6.8,6.8,0,0,1-2.032,2.72,3.344,3.344,0,0,1,.56.784A7.676,7.676,0,0,0-27.7-9.472Zm-7.536,4.8H-37.1V-6.608h1.872ZM-34.208-.9V-7.648h-2.8a36,36,0,0,0,.72-3.7h2.528v.688h1.472a8.2,8.2,0,0,1-1.92,2.72,3.5,3.5,0,0,1,.576.8,9.831,9.831,0,0,0,1.6-2.176v2.576h1.008V-9.328A13.2,13.2,0,0,1-30.1-8.272l.592-.7c-.224-.224-1.2-1.04-1.52-1.3v-.384H-29.6v-.928h-1.424v-1.792h-1.008v1.792h-1.7v-.832h-5.488v1.072h1.808A18.223,18.223,0,0,1-39.472-4.32a8.338,8.338,0,0,1,.7,1.024A10.918,10.918,0,0,0-38.1-4.512V.432h.992V-.9Zm5.392-1.472h3.1V-3.36h-3.1V-5.248h2.608a9.9,9.9,0,0,1-.448,1.136l.912.336a16.873,16.873,0,0,0,.928-2.256l-.752-.272-.192.064h-8.016v.992h3.856V-.464a3.526,3.526,0,0,1-1.744-2.384c.1-.528.16-1.072.208-1.616h-1.056c-.16,1.936-.608,3.872-2.24,4.9a4.244,4.244,0,0,1,.736.784,5.159,5.159,0,0,0,1.968-2.624C-31.168.5-29.792.944-27.712.944H-24.9A3.845,3.845,0,0,1-24.56-.08c-.512.016-2.736.016-3.088.016a6.813,6.813,0,0,1-1.168-.08ZM-9.1-10.48a16.885,16.885,0,0,0-2.64-2.56l-.864.576A17.072,17.072,0,0,1-10.032-9.84Zm-9.872-2.72A17.936,17.936,0,0,1-23.6-6.7a7.818,7.818,0,0,1,.688,1.152A18.132,18.132,0,0,0-20.768-7.9V1.2h1.2V-9.616a21.567,21.567,0,0,0,1.712-3.232ZM-8.8-8.048l-.16-1.12-4.784.608c-.16-1.408-.256-2.96-.3-4.576h-1.184c.064,1.664.176,3.248.3,4.736l-3.872.48.16,1.12,3.84-.48c.608,4.992,1.888,8.3,4.512,8.5.832.048,1.472-.784,1.824-3.52a4.84,4.84,0,0,1-.992-.624c-.16,1.84-.416,2.784-.88,2.752-1.712-.16-2.752-3.024-3.3-7.264Zm5.84-4.784H-6.624v.96H-2.96Zm.384,2.1H-7.328v.976h4.752Zm-.352,2.16h-3.76v.944h3.76ZM-6.688-5.5h3.76v-.96h-3.76ZM-3.872-.672h-1.92V-3.344h1.92ZM-2.9-4.32H-6.72V1.04h.928V.288h2.9ZM-.928-6.384H1.2V-5.1c-.736.144-1.456.288-2.128.416ZM1.2-10.864v1.312H-.928v-1.312Zm0,3.552H-.928V-8.64H1.2ZM2.192-6.08v-5.7H.4c.176-.432.352-.928.528-1.408l-1.152-.224A15.312,15.312,0,0,1-.64-11.776H-1.9v7.264c-.272.048-.528.1-.768.128l.256.992,2.944-.64A13.418,13.418,0,0,1-2.9-.912a9.556,9.556,0,0,1,.768.9A16.718,16.718,0,0,0,1.2-3.184v3.12c0,.224-.08.3-.288.3S.016.256-.768.224A3.534,3.534,0,0,1-.384,1.232,6.211,6.211,0,0,0,1.664,1.04c.384-.192.528-.528.528-1.1v-4.5c.272-.432.512-.864.736-1.3ZM4.736-3.136a16,16,0,0,0-.944-3.872l-.88.208a15.257,15.257,0,0,1,.88,3.888ZM7.36-9.456h-.9v-3.792H5.36v3.792H2.528v1.1H5.36V-.144c0,.24-.1.3-.288.32-.224,0-.928.016-1.728-.016a4.625,4.625,0,0,1,.352,1.1A5.838,5.838,0,0,0,5.872,1.04c.432-.176.592-.512.592-1.2V-8.352h.9ZM22.9-10.816l-.784-.752a7.9,7.9,0,0,1-1.12.1H11.808a13.578,13.578,0,0,1-1.824-.144v1.456a17.878,17.878,0,0,1,1.824-.1h9.12a10.869,10.869,0,0,1-3.5,3.584l1.056.848a15.426,15.426,0,0,0,3.984-4.416C22.576-10.416,22.784-10.656,22.9-10.816ZM16.512-8.7h-1.44a9.619,9.619,0,0,1,.064,1.152c0,2.672-.352,4.944-2.832,6.464a5.511,5.511,0,0,1-1.44.72l1.184.96C16.128-1.44,16.512-4.368,16.512-8.7Zm15.216-.512-1.168.4a30.16,30.16,0,0,1,1.248,3.472l1.184-.416C32.784-6.464,32-8.576,31.728-9.216Zm5.792.9-1.376-.432A10.972,10.972,0,0,1,33.936-3.28a10.774,10.774,0,0,1-5.2,3.408L29.792,1.2a12.192,12.192,0,0,0,5.216-3.808A12.54,12.54,0,0,0,37.28-7.52C37.344-7.728,37.408-7.984,37.52-8.32Zm-9.5-.1-1.184.464a28.619,28.619,0,0,1,1.424,3.6L29.472-4.8C29.168-5.632,28.336-7.728,28.016-8.416ZM52.88-11.488a1.069,1.069,0,0,1,1.056-1.072,1.072,1.072,0,0,1,1.072,1.072,1.069,1.069,0,0,1-1.072,1.056A1.065,1.065,0,0,1,52.88-11.488Zm-.736,0a1.8,1.8,0,0,0,.08.512c-.192.016-.368.016-.512.016H43.68a12.348,12.348,0,0,1-1.6-.112v1.424c.416-.016.96-.048,1.6-.048h8.176a11.975,11.975,0,0,1-2.1,5.216A10.535,10.535,0,0,1,43.52-.64L44.608.56a12.116,12.116,0,0,0,6.3-4.272,15.631,15.631,0,0,0,2.384-5.9.826.826,0,0,0,.032-.176,1.934,1.934,0,0,0,.608.1,1.8,1.8,0,0,0,1.808-1.792A1.816,1.816,0,0,0,53.936-13.3,1.8,1.8,0,0,0,52.144-11.488Z" transform="translate(500 2336)" fill="#3c3c3b"/>
      </g>
      <g transform="translate(254 -1443)">
        <rect id="Rectangle_20-9" data-name="Rectangle 20" width="280" height="280" transform="translate(360 2081)" fill="#fff"/>
        <path id="Path_455-9" data-name="Path 455" d="M-47.44-1.9H-44.1V-2.88H-47.44V-4.224h-1.184V-2.88h-3.264V-1.9h3.264v1.68h-5.36V.784H-41.92V-.224h-5.52ZM-50.88-6.88h5.808v1.136H-50.88Zm5.808-3.968v1.072H-50.88v-1.072ZM-50.88-8.88h5.808v1.1H-50.88Zm10.1,4.144V-5.744h-3.088v-5.1h2.4v-.992h-2.4v-1.536h-1.2v1.536H-50.88v-1.536h-1.168v1.536H-54.48v.992h2.432v5.1h-3.168v1.008h3.456a9.291,9.291,0,0,1-3.616,2.672,4.154,4.154,0,0,1,.768.912,10.947,10.947,0,0,0,4.176-3.584h5.008A9.783,9.783,0,0,0-41.36-1.36a4.65,4.65,0,0,1,.784-.912,8.846,8.846,0,0,1-3.6-2.464Zm13.088-2h1.008V-9.424a6.539,6.539,0,0,0,1.5,2.224,3.458,3.458,0,0,1,.656-.7A6.926,6.926,0,0,1-26.4-10.656h1.648v-.928h-1.936v-1.792H-27.7v1.792h-1.6v.928H-28a6.8,6.8,0,0,1-2.032,2.72,3.344,3.344,0,0,1,.56.784A7.676,7.676,0,0,0-27.7-9.472Zm-7.536,4.8H-37.1V-6.608h1.872ZM-34.208-.9V-7.648h-2.8a36,36,0,0,0,.72-3.7h2.528v.688h1.472a8.2,8.2,0,0,1-1.92,2.72,3.5,3.5,0,0,1,.576.8,9.831,9.831,0,0,0,1.6-2.176v2.576h1.008V-9.328A13.2,13.2,0,0,1-30.1-8.272l.592-.7c-.224-.224-1.2-1.04-1.52-1.3v-.384H-29.6v-.928h-1.424v-1.792h-1.008v1.792h-1.7v-.832h-5.488v1.072h1.808A18.223,18.223,0,0,1-39.472-4.32a8.338,8.338,0,0,1,.7,1.024A10.918,10.918,0,0,0-38.1-4.512V.432h.992V-.9Zm5.392-1.472h3.1V-3.36h-3.1V-5.248h2.608a9.9,9.9,0,0,1-.448,1.136l.912.336a16.873,16.873,0,0,0,.928-2.256l-.752-.272-.192.064h-8.016v.992h3.856V-.464a3.526,3.526,0,0,1-1.744-2.384c.1-.528.16-1.072.208-1.616h-1.056c-.16,1.936-.608,3.872-2.24,4.9a4.244,4.244,0,0,1,.736.784,5.159,5.159,0,0,0,1.968-2.624C-31.168.5-29.792.944-27.712.944H-24.9A3.845,3.845,0,0,1-24.56-.08c-.512.016-2.736.016-3.088.016a6.813,6.813,0,0,1-1.168-.08ZM-9.1-10.48a16.885,16.885,0,0,0-2.64-2.56l-.864.576A17.072,17.072,0,0,1-10.032-9.84Zm-9.872-2.72A17.936,17.936,0,0,1-23.6-6.7a7.818,7.818,0,0,1,.688,1.152A18.132,18.132,0,0,0-20.768-7.9V1.2h1.2V-9.616a21.567,21.567,0,0,0,1.712-3.232ZM-8.8-8.048l-.16-1.12-4.784.608c-.16-1.408-.256-2.96-.3-4.576h-1.184c.064,1.664.176,3.248.3,4.736l-3.872.48.16,1.12,3.84-.48c.608,4.992,1.888,8.3,4.512,8.5.832.048,1.472-.784,1.824-3.52a4.84,4.84,0,0,1-.992-.624c-.16,1.84-.416,2.784-.88,2.752-1.712-.16-2.752-3.024-3.3-7.264Zm5.84-4.784H-6.624v.96H-2.96Zm.384,2.1H-7.328v.976h4.752Zm-.352,2.16h-3.76v.944h3.76ZM-6.688-5.5h3.76v-.96h-3.76ZM-3.872-.672h-1.92V-3.344h1.92ZM-2.9-4.32H-6.72V1.04h.928V.288h2.9ZM-.928-6.384H1.2V-5.1c-.736.144-1.456.288-2.128.416ZM1.2-10.864v1.312H-.928v-1.312Zm0,3.552H-.928V-8.64H1.2ZM2.192-6.08v-5.7H.4c.176-.432.352-.928.528-1.408l-1.152-.224A15.312,15.312,0,0,1-.64-11.776H-1.9v7.264c-.272.048-.528.1-.768.128l.256.992,2.944-.64A13.418,13.418,0,0,1-2.9-.912a9.556,9.556,0,0,1,.768.9A16.718,16.718,0,0,0,1.2-3.184v3.12c0,.224-.08.3-.288.3S.016.256-.768.224A3.534,3.534,0,0,1-.384,1.232,6.211,6.211,0,0,0,1.664,1.04c.384-.192.528-.528.528-1.1v-4.5c.272-.432.512-.864.736-1.3ZM4.736-3.136a16,16,0,0,0-.944-3.872l-.88.208a15.257,15.257,0,0,1,.88,3.888ZM7.36-9.456h-.9v-3.792H5.36v3.792H2.528v1.1H5.36V-.144c0,.24-.1.3-.288.32-.224,0-.928.016-1.728-.016a4.625,4.625,0,0,1,.352,1.1A5.838,5.838,0,0,0,5.872,1.04c.432-.176.592-.512.592-1.2V-8.352h.9ZM22.9-10.816l-.784-.752a7.9,7.9,0,0,1-1.12.1H11.808a13.578,13.578,0,0,1-1.824-.144v1.456a17.878,17.878,0,0,1,1.824-.1h9.12a10.869,10.869,0,0,1-3.5,3.584l1.056.848a15.426,15.426,0,0,0,3.984-4.416C22.576-10.416,22.784-10.656,22.9-10.816ZM16.512-8.7h-1.44a9.619,9.619,0,0,1,.064,1.152c0,2.672-.352,4.944-2.832,6.464a5.511,5.511,0,0,1-1.44.72l1.184.96C16.128-1.44,16.512-4.368,16.512-8.7Zm15.216-.512-1.168.4a30.16,30.16,0,0,1,1.248,3.472l1.184-.416C32.784-6.464,32-8.576,31.728-9.216Zm5.792.9-1.376-.432A10.972,10.972,0,0,1,33.936-3.28a10.774,10.774,0,0,1-5.2,3.408L29.792,1.2a12.192,12.192,0,0,0,5.216-3.808A12.54,12.54,0,0,0,37.28-7.52C37.344-7.728,37.408-7.984,37.52-8.32Zm-9.5-.1-1.184.464a28.619,28.619,0,0,1,1.424,3.6L29.472-4.8C29.168-5.632,28.336-7.728,28.016-8.416ZM52.88-11.488a1.069,1.069,0,0,1,1.056-1.072,1.072,1.072,0,0,1,1.072,1.072,1.069,1.069,0,0,1-1.072,1.056A1.065,1.065,0,0,1,52.88-11.488Zm-.736,0a1.8,1.8,0,0,0,.08.512c-.192.016-.368.016-.512.016H43.68a12.348,12.348,0,0,1-1.6-.112v1.424c.416-.016.96-.048,1.6-.048h8.176a11.975,11.975,0,0,1-2.1,5.216A10.535,10.535,0,0,1,43.52-.64L44.608.56a12.116,12.116,0,0,0,6.3-4.272,15.631,15.631,0,0,0,2.384-5.9.826.826,0,0,0,.032-.176,1.934,1.934,0,0,0,.608.1,1.8,1.8,0,0,0,1.808-1.792A1.816,1.816,0,0,0,53.936-13.3,1.8,1.8,0,0,0,52.144-11.488Z" transform="translate(500 2336)" fill="#3c3c3b"/>
      </g>
    </g>
    <g id="Group_102" data-name="Group 102" transform="translate(590.105 3973.018)">
      <path id="Path_165" data-name="Path 165" d="M10.92,1c.128,9.3,2.639,24,5.655,34.551s3.394,21.736-2.139,34.928S5.387,93.348,3.254,107.668,1,143.98,1,143.98" transform="translate(-1 -1)" fill="none" stroke="#8baf83" stroke-linecap="round" stroke-linejoin="round" stroke-width="1.3"/>
      <path id="Path_166" data-name="Path 166" d="M177.276,1c-.128,9.3-2.638,24-5.655,34.551s-3.394,21.736,2.139,34.928,9.049,22.869,11.182,37.189S187.2,143.98,187.2,143.98" transform="translate(-61.572 -1)" fill="none" stroke="#8baf83" stroke-linecap="round" stroke-linejoin="round" stroke-width="1.3"/>
      <path id="Path_167" data-name="Path 167" d="M22.77,31.28s13.82.378,26.385-3.266,18.719-4.778,22.491-4.649,15.581,2.389,25.13,4.521,23.5,2.888,23.5,2.888" transform="translate(-8.828 -9.038)" fill="none" stroke="#8baf83" stroke-linecap="round" stroke-linejoin="round" stroke-width="1.3"/>
      <path id="Path_168" data-name="Path 168" d="M7.27,178.95a230.458,230.458,0,0,0,55.665,7.288c29.779,0,61.947-7.288,61.947-7.288" transform="translate(-3.255 -64.988)" fill="none" stroke="#8baf83" stroke-linecap="round" stroke-linejoin="round" stroke-width="1.3"/>
      <g id="Group_100" data-name="Group 100" transform="translate(26.315 66.149)">
        <path id="Path_169" data-name="Path 169" d="M105.007,124.8a26.45,26.45,0,0,1-47.9-15.479,24.193,24.193,0,0,1,.544-5.034" transform="translate(-47.491 -104.29)" fill="none" stroke="#8baf83" stroke-linecap="round" stroke-linejoin="round" stroke-width="1.3"/>
        <path id="Path_170" data-name="Path 170" d="M42.09,114.69l10.157-10.4,10.266,10.464" transform="translate(-42.09 -104.29)" fill="none" stroke="#8baf83" stroke-linecap="round" stroke-linejoin="round" stroke-width="1.3"/>
      </g>
      <g id="Group_101" data-name="Group 101" transform="translate(41.249 45.796)">
        <path id="Path_171" data-name="Path 171" d="M65.41,83.48a26.45,26.45,0,0,1,47.9,15.479,24.192,24.192,0,0,1-.544,5.034" transform="translate(-65.41 -72.51)" fill="none" stroke="#8baf83" stroke-linecap="round" stroke-linejoin="round" stroke-width="1.3"/>
        <path id="Path_172" data-name="Path 172" d="M143.746,105.388l-10.157,10.407L123.33,105.33" transform="translate(-86.237 -84.311)" fill="none" stroke="#8baf83" stroke-linecap="round" stroke-linejoin="round" stroke-width="1.3"/>
      </g>
    </g>
    <g id="Layer_2" data-name="Layer 2" transform="translate(917.563 3964.672)">
      <g id="Group_112" data-name="Group 112" transform="translate(0 0)">
        <path id="Path_234" data-name="Path 234" d="M15.321,39.16c-.325,1.836-.5,2.8-1.032,3.335-.86.86-5.711,7.425-5.711,7.425l3.427,3s1.283,14,2,16.421.571,4,5.281,3.715a55.971,55.971,0,0,0,9.85-1.713,58.671,58.671,0,0,1,2.143,7.713c.571,3.285-1.431,8-1.431,8s-10.71,10.9-15.42,15.875S.723,115.6,1.006,126.031s5.281,12.282,5.281,12.282S7.073,160.7,7.915,175.4" transform="translate(-0.999 -15.724)" fill="none" stroke="#8baf83" stroke-linecap="round" stroke-linejoin="round" stroke-width="1.3"/>
        <path id="Path_235" data-name="Path 235" d="M53.324,208.048s-3.507-39.7-2.9-54.833,2.327-27.7,13.75-28.415c6.417-.4,11.711,6.424,13.277,17.275s-.289,34.347-2.573,45.591c-1.2,5.92-2.8,13.32-4.63,20.769" transform="translate(-20.045 -48.766)" fill="none" stroke="#8baf83" stroke-linecap="round" stroke-linejoin="round" stroke-width="1.3"/>
        <path id="Path_236" data-name="Path 236" d="M47.98,116.152a41.642,41.642,0,0,0,23.7-1.572" transform="translate(-19.129 -44.829)" fill="none" stroke="#8baf83" stroke-linecap="round" stroke-linejoin="round" stroke-width="1.3"/>
        <path id="Path_237" data-name="Path 237" d="M81.079,84.82a83.183,83.183,0,0,0-.141,9.709c.289,3.857,5.877,12.282,8.868,16.562s5.269,10.851,4.845,21.844-6.6,30.533-6.6,30.533" transform="translate(-31.809 -33.344)" fill="none" stroke="#8baf83" stroke-linecap="round" stroke-linejoin="round" stroke-width="1.3"/>
        <path id="Path_238" data-name="Path 238" d="M29.568,10.438a80.578,80.578,0,0,0-6.546,14C20.111,18.3,23.482,7.2,32.8,6.139,39.75-1.2,57.866-1.07,67.784,9.05c0,0,1.259-3.507,6.018-4.962s13.16-.86,17.987,10.317.86,21.887-4.035,32.861-3.7,18.908,4.827,19.5c0,0-10.378,4.692-16-2.776s1.947-21.887,1.787-30.349c-.2-10.513-4.759-14.548-4.759-14.548a36.459,36.459,0,0,1,1.124,15.512c-1.191,8.947-13.289,19.86-23.274,16.753a29.989,29.989,0,0,0,1.848-8c.6-5.158,1.056-10.053-1.455-12.761s-5.355-3.507-6.675-.528a20.109,20.109,0,0,1-3.832,5.423S30.366,21.8,29.574,10.432Z" transform="translate(-9.106 -0.998)" fill="none" stroke="#8baf83" stroke-linecap="round" stroke-linejoin="round" stroke-width="1.3"/>
      </g>
      <g id="Group_113" data-name="Group 113" transform="translate(70.407 83.587)">
        <line id="Line_15" data-name="Line 15" y2="1.842" fill="none" stroke="#8baf83" stroke-linecap="round" stroke-linejoin="round" stroke-width="1.3"/>
        <line id="Line_16" data-name="Line 16" y2="66.686" transform="translate(0 5.65)" fill="none" stroke="#8baf83" stroke-linecap="round" stroke-linejoin="round" stroke-width="1.3" stroke-dasharray="2 2 2 2"/>
        <line id="Line_17" data-name="Line 17" y2="1.842" transform="translate(0 74.239)" fill="none" stroke="#8baf83" stroke-linecap="round" stroke-linejoin="round" stroke-width="1.3"/>
      </g>
    </g>
    <g id="Layer_2-2" data-name="Layer 2" transform="translate(1181.801 3973.018)">
      <g id="Group_109" data-name="Group 109" transform="translate(0 0)">
        <g id="Group_108" data-name="Group 108">
          <path id="Path_204" data-name="Path 204" d="M46.56,24.028a50.97,50.97,0,0,1,1.255-11.281c1.367-5.807,2.962-7.18,3.989-8.207S53.63,2.716,57.619,3.4s5.473,4.1,5.925,9.463,1.256,7.638.569,11.17-2.734,5.356-2.5,9.685,1.707,7.069,3.42,10.941a13.968,13.968,0,0,1-2.5,15.159c-4.676,5.356-7.867,5.7-8.547,16.643s.8,37.5,1.027,44.907,1.546,10.372,1.4,14.819-.94,6.723-5.387,12.877-10.143,10.483-17.094,10.712-18.239-6.611-19.834-16.866-2.053-34.993-2.734-42.625S6.9,72.82,3.942,66.548.064,49.683,2.117,43.523a46.029,46.029,0,0,1,4.447-9.8,41.675,41.675,0,0,1-2.393-7.409c-.569-3.191-.111-7.409,3.191-8.09s4.787,3.42,5.127,5.7a45.622,45.622,0,0,1,.34,5.473l2.5-.458s-1.484-4.218-2.393-7.638-.111-8.887,3.42-9.685,4.676,3.42,5.473,6.611a55.263,55.263,0,0,1,1.027,8.547l2.053-.458s-2.053-5.814-2.962-9.574S20.814,5.678,25.143,4.881,31.3,7.732,32.094,12.4a95.765,95.765,0,0,1,.8,12.425l2.053-.229s-.816-6.723-1.317-12.079.977-11.4,5.875-11.51,5.925,5.245,5.925,9.914a117.386,117.386,0,0,1-1.367,13.334l2.5-.229Z" transform="translate(-1.011 -1.007)" fill="none" stroke="#8baf83" stroke-linecap="round" stroke-linejoin="round" stroke-width="1.3"/>
          <path id="Path_210" data-name="Path 210" d="M175.206,24.028a50.971,50.971,0,0,0-1.255-11.281c-1.367-5.814-2.963-7.18-3.989-8.207s-1.824-1.824-5.814-1.138-5.473,4.1-5.925,9.463-1.256,7.638-.569,11.17,2.734,5.356,2.5,9.685-1.707,7.069-3.42,10.941a13.978,13.978,0,0,0,2.5,15.159c4.676,5.356,7.867,5.7,8.547,16.643s-.8,37.5-1.027,44.907-1.546,10.372-1.4,14.819.94,6.723,5.387,12.877,10.143,10.483,17.094,10.712,18.239-6.611,19.834-16.866,2.053-34.993,2.734-42.625,4.447-27.466,7.409-33.738,3.878-16.866,1.824-23.026a45.833,45.833,0,0,0-4.447-9.8,41.674,41.674,0,0,0,2.394-7.409c.569-3.191.111-7.409-3.191-8.09s-4.787,3.42-5.127,5.7a45.619,45.619,0,0,0-.34,5.473l-2.5-.458s1.484-4.218,2.393-7.638.111-8.887-3.42-9.685-4.676,3.42-5.473,6.611a55.261,55.261,0,0,0-1.027,8.547l-2.053-.458s2.053-5.814,2.963-9.574,1.138-11.058-3.191-11.856-6.154,2.851-6.952,7.521a95.774,95.774,0,0,0-.8,12.425L186.82,24.6s.816-6.723,1.317-12.079-.977-11.4-5.876-11.51-5.925,5.245-5.925,9.914A117.389,117.389,0,0,0,177.7,24.257l-2.5-.229Z" transform="translate(-59.967 -1.007)" fill="none" stroke="#8baf83" stroke-linecap="round" stroke-linejoin="round" stroke-width="1.3"/>
        </g>
        <path id="Path_216" data-name="Path 216" d="M108.356,57.84s12.963,17.292-3.9,30.552" transform="translate(-40.48 -22.691)" fill="none" stroke="#8baf83" stroke-linecap="round" stroke-linejoin="round" stroke-width="1.3" stroke-dasharray="2 2"/>
        <path id="Path_217" data-name="Path 217" d="M146.334,57.84s-12.963,17.292,3.9,30.552" transform="translate(-54.64 -22.691)" fill="none" stroke="#8baf83" stroke-linecap="round" stroke-linejoin="round" stroke-width="1.3" stroke-dasharray="2 2"/>
      </g>
    </g>
    <g id="Layer_2-3" data-name="Layer 2" transform="translate(610.077 4301.492)">
      <g id="Group_179" data-name="Group 179" transform="translate(0 0)">
        <path id="Path_294" data-name="Path 294" d="M11.518,1s3.028,14.917,3.028,19.267-3.134,23.3-3.028,41.028S21.18,101.155,21.6,126.633" transform="translate(-4.988 -1)" fill="none" stroke="#8baf83" stroke-linecap="round" stroke-linejoin="round" stroke-width="1.3"/>
        <path id="Path_295" data-name="Path 295" d="M29.48,202.831s1.272,1.167,5.2,1.272,9.767-2.333,9.767-2.333" transform="translate(-11.805 -77.192)" fill="none" stroke="#8baf83" stroke-linecap="round" stroke-linejoin="round" stroke-width="1.3"/>
        <path id="Path_296" data-name="Path 296" d="M54.36,124.623c-1.464-19.279.689-39.334.583-55.678S54,35.717,53.783,30.623s2.65-16.133,2.65-21.656V1" transform="translate(-21.024 -1)" fill="none" stroke="#8baf83" stroke-linecap="round" stroke-linejoin="round" stroke-width="1.3"/>
        <path id="Path_297" data-name="Path 297" d="M23.67,36.93s3.748,3.009,7.489,3.009,6.788-3.009,6.788-3.009" transform="translate(-9.6 -14.635)" fill="none" stroke="#8baf83" stroke-linecap="round" stroke-linejoin="round" stroke-width="1.3"/>
        <path id="Path_298" data-name="Path 298" d="M22.065,206.49s-.589,1.4-1.055,2.581-3.233,5.225-5.132,8.644a53.508,53.508,0,0,0-3.357,7.154,7.7,7.7,0,0,1-3.2,3.512" transform="translate(-4.155 -78.983)" fill="none" stroke="#8baf83" stroke-linecap="round" stroke-linejoin="round" stroke-width="1.3"/>
        <path id="Path_299" data-name="Path 299" d="M4.69,243.38s-1.055.434-2.24.993a2.161,2.161,0,0,0-1.278,2.954,2.939,2.939,0,0,0,1.806,1.868" transform="translate(-0.995 -92.983)" fill="none" stroke="#8baf83" stroke-linecap="round" stroke-linejoin="round" stroke-width="1.3"/>
        <path id="Path_300" data-name="Path 300" d="M9.05,246.84a12.922,12.922,0,0,1-2.519,1.868c-1.086.658-1.961,1.713-1.241,3.171s2.829,1.34,4.046.745" transform="translate(-2.525 -94.296)" fill="none" stroke="#8baf83" stroke-linecap="round" stroke-linejoin="round" stroke-width="1.3"/>
        <path id="Path_301" data-name="Path 301" d="M17.6,248.06s-4.387,2.47-4.976,2.91-1.557,1.086-.465,2.8,4.449,1.086,5.752.527" transform="translate(-5.043 -94.759)" fill="none" stroke="#8baf83" stroke-linecap="round" stroke-linejoin="round" stroke-width="1.3"/>
        <path id="Path_302" data-name="Path 302" d="M27.3,246.34a6.647,6.647,0,0,1-3.264,3.543c-1.644.838-3.016,2.327-2.085,4.35s3.388,1,4.418.472,3.45-1.5,3.45-1.5" transform="translate(-8.835 -94.106)" fill="none" stroke="#8baf83" stroke-linecap="round" stroke-linejoin="round" stroke-width="1.3"/>
        <path id="Path_303" data-name="Path 303" d="M39.88,245.08a13.5,13.5,0,0,1-3.7,3.078c-1.241.62-2.643,1.557-1.588,3.922s3.016,3.264,5.721,2.426,4.108-4.573,4.821-6.41" transform="translate(-13.605 -93.628)" fill="none" stroke="#8baf83" stroke-linecap="round" stroke-linejoin="round" stroke-width="1.3"/>
        <path id="Path_304" data-name="Path 304" d="M52.61,229.967a37.457,37.457,0,0,0,.72-10.573,36.665,36.665,0,0,1,.465-9.332,5.145,5.145,0,0,0-.124-3.45,13.965,13.965,0,0,1-.714-4.232" transform="translate(-20.583 -77.423)" fill="none" stroke="#8baf83" stroke-linecap="round" stroke-linejoin="round" stroke-width="1.3"/>
        <path id="Path_305" data-name="Path 305" d="M99.053,1s-3.028,14.917-3.028,19.267,3.134,23.3,3.028,41.028-9.661,39.861-10.083,65.339" transform="translate(-34.382 -1)" fill="none" stroke="#8baf83" stroke-linecap="round" stroke-linejoin="round" stroke-width="1.3"/>
        <path id="Path_306" data-name="Path 306" d="M78.106,202.831s-1.272,1.167-5.2,1.272-9.767-2.333-9.767-2.333" transform="translate(-24.579 -77.192)" fill="none" stroke="#8baf83" stroke-linecap="round" stroke-linejoin="round" stroke-width="1.3"/>
        <path id="Path_307" data-name="Path 307" d="M60.752,124.623c1.464-19.279-.689-39.334-.583-55.678s.943-33.228,1.16-38.322S58.68,14.49,58.68,8.967V1" transform="translate(-22.887 -1)" fill="none" stroke="#8baf83" stroke-linecap="round" stroke-linejoin="round" stroke-width="1.3"/>
        <path id="Path_308" data-name="Path 308" d="M84.348,36.93s-3.748,3.009-7.489,3.009S70.07,36.93,70.07,36.93" transform="translate(-27.209 -14.635)" fill="none" stroke="#8baf83" stroke-linecap="round" stroke-linejoin="round" stroke-width="1.3"/>
        <path id="Path_309" data-name="Path 309" d="M86.89,206.49s.589,1.4,1.055,2.581,3.233,5.225,5.132,8.644a53.508,53.508,0,0,1,3.357,7.154,7.7,7.7,0,0,0,3.2,3.512" transform="translate(-33.592 -78.983)" fill="none" stroke="#8baf83" stroke-linecap="round" stroke-linejoin="round" stroke-width="1.3"/>
        <path id="Path_310" data-name="Path 310" d="M109.79,243.38s1.055.434,2.24.993a2.161,2.161,0,0,1,1.278,2.954,2.939,2.939,0,0,1-1.806,1.868" transform="translate(-42.283 -92.983)" fill="none" stroke="#8baf83" stroke-linecap="round" stroke-linejoin="round" stroke-width="1.3"/>
        <path id="Path_311" data-name="Path 311" d="M105.055,246.84a12.923,12.923,0,0,0,2.519,1.868c1.086.658,1.961,1.713,1.241,3.171s-2.829,1.34-4.046.745" transform="translate(-40.378 -94.296)" fill="none" stroke="#8baf83" stroke-linecap="round" stroke-linejoin="round" stroke-width="1.3"/>
        <path id="Path_312" data-name="Path 312" d="M95.32,248.06s4.387,2.47,4.976,2.91,1.557,1.086.465,2.8-4.449,1.086-5.752.527" transform="translate(-36.674 -94.759)" fill="none" stroke="#8baf83" stroke-linecap="round" stroke-linejoin="round" stroke-width="1.3"/>
        <path id="Path_313" data-name="Path 313" d="M84.439,246.34a6.647,6.647,0,0,0,3.264,3.543c1.644.838,3.016,2.327,2.085,4.35s-3.388,1-4.418.472-3.45-1.5-3.45-1.5" transform="translate(-31.706 -94.106)" fill="none" stroke="#8baf83" stroke-linecap="round" stroke-linejoin="round" stroke-width="1.3"/>
        <path id="Path_314" data-name="Path 314" d="M70.186,245.08a13.5,13.5,0,0,0,3.7,3.078c1.241.62,2.643,1.557,1.589,3.922s-3.016,3.264-5.721,2.426-4.108-4.573-4.821-6.41" transform="translate(-25.259 -93.628)" fill="none" stroke="#8baf83" stroke-linecap="round" stroke-linejoin="round" stroke-width="1.3"/>
        <path id="Path_315" data-name="Path 315" d="M63.262,229.967a37.458,37.458,0,0,1-.72-10.573,36.664,36.664,0,0,0-.465-9.332,5.145,5.145,0,0,1,.124-3.45,13.965,13.965,0,0,0,.714-4.232" transform="translate(-24.087 -77.423)" fill="none" stroke="#8baf83" stroke-linecap="round" stroke-linejoin="round" stroke-width="1.3"/>
      </g>
    </g>
    <g id="Layer_2-4" data-name="Layer 2" transform="translate(898 4301.496)">
      <g id="Group_110" data-name="Group 110" transform="translate(0 0)">
        <path id="Path_218" data-name="Path 218" d="M21.985,1c5.739,17.615,12.868,32.86,9.9,44.736S18.125,66.1,10.506,74.042c-5.311,5.535-9.332,11.075-9.5,24.744-.13,10.5,2.134,17.007,4.951,24.347s3.76,9.7,3.76,13.657,4.753,24.546,4.753,24.546" transform="translate(-1.001 -1)" fill="none" stroke="#8baf83" stroke-linecap="round" stroke-linejoin="round" stroke-width="1.3"/>
        <path id="Path_219" data-name="Path 219" d="M33.875,128.61c-5.144,9.1-8.116,15.239-4.951,26.922s9.9,14.451,20.786,22.368c0,0,11.876,22.566,25.141,32.86" transform="translate(-11.105 -49.432)" fill="none" stroke="#8baf83" stroke-linecap="round" stroke-linejoin="round" stroke-width="1.3"/>
        <path id="Path_220" data-name="Path 220" d="M17.6,213.558s13.377-2.873,31.433,1.731" transform="translate(-7.301 -81.337)" fill="none" stroke="#8baf83" stroke-linecap="round" stroke-linejoin="round" stroke-width="1.3"/>
        <path id="Path_221" data-name="Path 221" d="M73.74,212.682s32.264-7.917,61.166-9.1" transform="translate(-28.608 -77.885)" fill="none" stroke="#8baf83" stroke-linecap="round" stroke-linejoin="round" stroke-width="1.3"/>
        <path id="Path_222" data-name="Path 222" d="M152.558,3.23s3.065,5.739,2.469,19-2.469,19.2-2.469,19.2-2.283,15.239-2.674,19.991a56.957,56.957,0,0,0,0,8.91s2.079,14.848,2.525,21.177,6.98,20.984,9.158,25.929a80.278,80.278,0,0,1,3.562,10.1s10.691,17.615,16.033,33.648" transform="translate(-57.441 -1.846)" fill="none" stroke="#8baf83" stroke-linecap="round" stroke-linejoin="round" stroke-width="1.3"/>
        <path id="Path_223" data-name="Path 223" d="M30,102.932s7.5-3.94,21.208-4.412c19.805-.683,38.444,9.549,53.069,9.35" transform="translate(-12.007 -37.999)" fill="none" stroke="#8baf83" stroke-linecap="round" stroke-linejoin="round" stroke-width="1.3"/>
        <path id="Path_224" data-name="Path 224" d="M69,18.23s6.335,11.876-5.144,42.161" transform="translate(-24.858 -7.539)" fill="none" stroke="#8baf83" stroke-linecap="round" stroke-linejoin="round" stroke-width="1.3"/>
      </g>
    </g>
    <g id="Layer_2-5" data-name="Layer 2" transform="translate(1214.92 4292.498)">
      <g id="Group_106" data-name="Group 106" transform="translate(0 0)">
        <g id="Group_103" data-name="Group 103" transform="translate(7.573)">
          <path id="Path_173" data-name="Path 173" d="M13.28,1s4.384,21.064,5.069,24.122.21,11.352,0,14.885-3.484,12.456-2.639,27.767,5.383,26.873,8.762,35,5.593,17.42,5.593,22.593" transform="translate(-13.28 -1)" fill="none" stroke="#8baf83" stroke-linecap="round" stroke-linejoin="round" stroke-width="1.3"/>
          <path id="Path_174" data-name="Path 174" d="M42.56,125.377a12.911,12.911,0,0,0,6.758,1.585c3.8-.21,8.762-2.849,8.762-2.849s-2.109-22.7-1.9-28.081a121.593,121.593,0,0,0-.21-19.424c-.845-8.343-2.22-17.105-1.585-27.243S58.4,35.64,59.135,26.982s.419-25.972.419-25.972" transform="translate(-24.505 -1.004)" fill="none" stroke="#8baf83" stroke-linecap="round" stroke-linejoin="round" stroke-width="1.3"/>
          <path id="Path_175" data-name="Path 175" d="M32.29,61.27s6.838,4.908,14.232.314" transform="translate(-20.568 -24.106)" fill="none" stroke="#8baf83" stroke-linecap="round" stroke-linejoin="round" stroke-width="1.3"/>
          <path id="Path_176" data-name="Path 176" d="M34.942,207.32s-2.325,4.224-4.014,6.968a69.88,69.88,0,0,0-4.119,6.863c-1.27,2.639-1.375,4.224-4.119,6.758" transform="translate(-16.888 -80.098)" fill="none" stroke="#8baf83" stroke-linecap="round" stroke-linejoin="round" stroke-width="1.3"/>
          <path id="Path_177" data-name="Path 177" d="M17.838,242.938s-.53-.1-2.43,1.054-1.585,3.274.53,4.538" transform="translate(-13.614 -93.752)" fill="none" stroke="#8baf83" stroke-linecap="round" stroke-linejoin="round" stroke-width="1.3"/>
          <path id="Path_178" data-name="Path 178" d="M22.1,246.36a20.153,20.153,0,0,1-3.379,2.744,1.876,1.876,0,0,0,0,3.169c.95.635,3.379,0,3.379,0" transform="translate(-15.03 -95.065)" fill="none" stroke="#8baf83" stroke-linecap="round" stroke-linejoin="round" stroke-width="1.3"/>
          <path id="Path_179" data-name="Path 179" d="M30.532,253.858c-6.968,1.48-5.809-2.744-4.859-3.589a39.563,39.563,0,0,1,4.859-2.8" transform="translate(-17.756 -95.49)" fill="none" stroke="#8baf83" stroke-linecap="round" stroke-linejoin="round" stroke-width="1.3"/>
          <path id="Path_180" data-name="Path 180" d="M40.032,246.36a8.515,8.515,0,0,1-4.162,4.033c-1.48.506-2.429,2.83-1.69,3.78s1.48,1.69,3.8.845a43.222,43.222,0,0,0,4.538-2" transform="translate(-21.194 -95.065)" fill="none" stroke="#8baf83" stroke-linecap="round" stroke-linejoin="round" stroke-width="1.3"/>
          <path id="Path_181" data-name="Path 181" d="M53.1,227.953c-1.461,1.054-2.83,2.954-3.78,3.484a3.13,3.13,0,0,0-.95,4.538c1.375,2.318,4.748,2.1,6.438.524s3.8-2.744,4.329-9.5-.1-11.926,0-14.25.95-3.8.845-4.964-.845-3.028-.74-4a14.637,14.637,0,0,0-.043-2.423" transform="translate(-26.51 -77.817)" fill="none" stroke="#8baf83" stroke-linecap="round" stroke-linejoin="round" stroke-width="1.3"/>
          <path id="Path_182" data-name="Path 182" d="M118.565,1S114.18,22.064,113.5,25.122s-.21,11.352,0,14.885,3.484,12.456,2.639,27.767-5.383,26.873-8.762,35-5.593,17.42-5.593,22.593" transform="translate(-47.209 -1)" fill="none" stroke="#8baf83" stroke-linecap="round" stroke-linejoin="round" stroke-width="1.3"/>
          <path id="Path_183" data-name="Path 183" d="M89.113,125.377a12.911,12.911,0,0,1-6.758,1.585c-3.8-.21-8.762-2.849-8.762-2.849s2.109-22.7,1.9-28.081a121.591,121.591,0,0,1,.21-19.424c.845-8.343,2.22-17.105,1.585-27.243S73.271,35.64,72.538,26.982,72.118,1.01,72.118,1.01" transform="translate(-35.812 -1.004)" fill="none" stroke="#8baf83" stroke-linecap="round" stroke-linejoin="round" stroke-width="1.3"/>
          <path id="Path_184" data-name="Path 184" d="M101.152,61.27s-6.838,4.908-14.232.314" transform="translate(-41.512 -24.106)" fill="none" stroke="#8baf83" stroke-linecap="round" stroke-linejoin="round" stroke-width="1.3"/>
          <path id="Path_185" data-name="Path 185" d="M99.72,207.32s2.325,4.224,4.014,6.968a69.876,69.876,0,0,1,4.119,6.863c1.27,2.639,1.375,4.224,4.119,6.758" transform="translate(-46.419 -80.098)" fill="none" stroke="#8baf83" stroke-linecap="round" stroke-linejoin="round" stroke-width="1.3"/>
          <path id="Path_186" data-name="Path 186" d="M122.15,242.938s.53-.1,2.43,1.054,1.585,3.274-.53,4.538" transform="translate(-55.018 -93.752)" fill="none" stroke="#8baf83" stroke-linecap="round" stroke-linejoin="round" stroke-width="1.3"/>
          <path id="Path_187" data-name="Path 187" d="M117.53,246.36a20.152,20.152,0,0,0,3.379,2.744,1.876,1.876,0,0,1,0,3.169c-.95.635-3.379,0-3.379,0" transform="translate(-53.247 -95.065)" fill="none" stroke="#8baf83" stroke-linecap="round" stroke-linejoin="round" stroke-width="1.3"/>
          <path id="Path_188" data-name="Path 188" d="M108.28,253.858c6.968,1.48,5.809-2.744,4.859-3.589a39.562,39.562,0,0,0-4.859-2.8" transform="translate(-49.701 -95.49)" fill="none" stroke="#8baf83" stroke-linecap="round" stroke-linejoin="round" stroke-width="1.3"/>
          <path id="Path_189" data-name="Path 189" d="M96.9,246.36a8.515,8.515,0,0,0,4.162,4.033c1.48.506,2.429,2.83,1.69,3.78s-1.48,1.69-3.8.845a43.22,43.22,0,0,1-4.538-2" transform="translate(-44.387 -95.065)" fill="none" stroke="#8baf83" stroke-linecap="round" stroke-linejoin="round" stroke-width="1.3"/>
          <path id="Path_190" data-name="Path 190" d="M81.606,227.953c1.461,1.054,2.83,2.954,3.78,3.484a3.13,3.13,0,0,1,.95,4.538c-1.375,2.318-4.748,2.1-6.438.524s-3.8-2.744-4.329-9.5.1-11.926,0-14.25-.95-3.8-.845-4.964.845-3.028.74-4a14.637,14.637,0,0,1,.043-2.423" transform="translate(-36.833 -77.817)" fill="none" stroke="#8baf83" stroke-linecap="round" stroke-linejoin="round" stroke-width="1.3"/>
        </g>
        <g id="Group_104" data-name="Group 104" transform="translate(0 39.063)">
          <path id="Path_191" data-name="Path 191" d="M5.6,64.35s-.222.6-.543,1.764" transform="translate(-2.555 -64.35)" fill="none" stroke="#8baf83" stroke-linecap="round" stroke-linejoin="round" stroke-width="1.3"/>
          <path id="Path_192" data-name="Path 192" d="M2.652,72.97C.783,82-1.344,102,7.591,128.731" transform="translate(-0.998 -67.655)" fill="none" stroke="#8baf83" stroke-linecap="round" stroke-linejoin="round" stroke-width="1.3" stroke-dasharray="2 2 2 2"/>
          <path id="Path_193" data-name="Path 193" d="M12.65,166.21c.2.58.407,1.159.623,1.745" transform="translate(-5.465 -103.4)" fill="none" stroke="#8baf83" stroke-linecap="round" stroke-linejoin="round" stroke-width="1.3"/>
        </g>
        <g id="Group_105" data-name="Group 105" transform="translate(77.992 39.063)">
          <path id="Path_194" data-name="Path 194" d="M135.21,64.35s.222.6.543,1.764" transform="translate(-130.444 -64.35)" fill="none" stroke="#8baf83" stroke-linecap="round" stroke-linejoin="round" stroke-width="1.3" stroke-dasharray="2 2"/>
          <path id="Path_195" data-name="Path 195" d="M134.4,72.97c1.868,9.034,4,29.031-4.939,55.761" transform="translate(-128.239 -67.655)" fill="none" stroke="#8baf83" stroke-linecap="round" stroke-linejoin="round" stroke-width="1.3" stroke-dasharray="2 2 2 2"/>
          <path id="Path_196" data-name="Path 196" d="M128.1,166.21c-.2.58-.407,1.159-.623,1.745" transform="translate(-127.48 -103.4)" fill="none" stroke="#8baf83" stroke-linecap="round" stroke-linejoin="round" stroke-width="1.3" stroke-dasharray="2 2"/>
        </g>
      </g>
    </g>
    <g id="Layer_2-6" data-name="Layer 2" transform="translate(610.077 4609.477)">
      <g id="Group_116" data-name="Group 116" transform="translate(0 0)">
        <g id="Group_114" data-name="Group 114">
          <path id="Path_239" data-name="Path 239" d="M46.027,56.271S45.14,45.279,49.395,41.2s5.142-5.849,7.977-4.429,1.774,3.722,1.948,5.676-.18,4.429,4.255,1.774S74.566,36.428,81.3,27.2c0,0,1.774,8.33,0,15.42,0,0,6.029-3.368,5.316-10.1a15.872,15.872,0,0,0-5.849-10.458s-6.556-9.4-15.42-11.7-18.435.887-18.435.887A13.9,13.9,0,0,0,37.163,1.5C29.006-.808,20.322,5.221,15.893,15.152s0,24.638-2.128,32.088S5.081,57.877,1,54.329c7.8,8.51,19.322,4.962,22.157-3.188s1.594-16.134,4.962-23.931,9.217-9.751,9.217-9.751S29.36,27.744,30.42,37.135,36.449,55.4,46.02,56.277Z" transform="translate(-1 -1.008)" fill="none" stroke="#8baf83" stroke-linecap="round" stroke-linejoin="round" stroke-width="1.3"/>
          <path id="Path_240" data-name="Path 240" d="M106.227,187.754a171.352,171.352,0,0,0-6.445-22.69s7.977-9.217,4.429-17.374-8.51-15.774-12.052-24.638-5.849-11.7-5.849-11.7-2.835-8.33,3.015-17.9c0,0,4.429,3.188,8.157,4.075s5.316.354,7.443-3.368,6.736-11.879,6.736-11.879l5.142-1.662s-2.481-6.668-3.188-7.909-.18-4.609-.18-4.609" transform="translate(-33.132 -26.483)" fill="none" stroke="#8baf83" stroke-linecap="round" stroke-linejoin="round" stroke-width="1.3"/>
          <path id="Path_241" data-name="Path 241" d="M48.089,88.27a23.554,23.554,0,0,1-3.8,9.286c-3.015,4.075-5.5,4.429-12.765,12.766s-12.586,14.36-13.119,32.795,4.962,25.171,9.925,40.951c1.135,3.6,2.146,7.45,3.008,11.345" transform="translate(-7.596 -34.142)" fill="none" stroke="#8baf83" stroke-linecap="round" stroke-linejoin="round" stroke-width="1.3"/>
          <path id="Path_242" data-name="Path 242" d="M51.2,112.04s8.92,12.809,22.752,15.11" transform="translate(-20.062 -43.168)" fill="none" stroke="#8baf83" stroke-linecap="round" stroke-linejoin="round" stroke-width="1.3"/>
          <path id="Path_243" data-name="Path 243" d="M42.446,211.409c-.937-3.858-1.737-7.549-2.3-10.812-2.233-12.939-4.007-39.885-3.474-52.3s3.343-18,12.586-17.9c5.5.056,11.7,1.774,12.586,15.774s-1.948,51.583-2.661,65.236" transform="translate(-14.509 -50.139)" fill="none" stroke="#8baf83" stroke-linecap="round" stroke-linejoin="round" stroke-width="1.3"/>
        </g>
        <g id="Group_115" data-name="Group 115" transform="translate(0.036 72.445)">
          <path id="Path_244" data-name="Path 244" d="M22.245,117.8s-.447.5-1.185,1.433" transform="translate(-8.653 -117.8)" fill="none" stroke="#8baf83" stroke-linecap="round" stroke-linejoin="round" stroke-width="1.3"/>
          <path id="Path_245" data-name="Path 245" d="M11.213,125.05C7.25,130.8,1.258,141.5,1.065,153.856c-.217,13.783,4.224,28.372,6.5,34.916" transform="translate(-1.058 -120.553)" fill="none" stroke="#8baf83" stroke-linecap="round" stroke-linejoin="round" stroke-width="1.3" stroke-dasharray="2 2 2 2"/>
          <path id="Path_246" data-name="Path 246" d="M12.59,230.67c.409,1.117.664,1.737.664,1.737" transform="translate(-5.437 -160.658)" fill="none" stroke="#8baf83" stroke-linecap="round" stroke-linejoin="round" stroke-width="1.3"/>
        </g>
      </g>
    </g>
    <g id="Layer_2-7" data-name="Layer 2" transform="translate(880 4621.969)">
      <g id="Group_289" data-name="Group 289" transform="translate(0 0)">
        <path id="Path_353" data-name="Path 353" d="M94.962,1c1.365,14.414.5,28.579-2.112,39.018" transform="translate(-27.543 -1)" fill="none" stroke="#8baf83" stroke-linecap="round" stroke-linejoin="round" stroke-width="1.3"/>
        <path id="Path_354" data-name="Path 354" d="M132.61,1c-1.365,14.414-.5,28.579,2.112,39.018" transform="translate(-38.844 -1)" fill="none" stroke="#8baf83" stroke-linecap="round" stroke-linejoin="round" stroke-width="1.3"/>
        <path id="Path_355" data-name="Path 355" d="M85.86,12.01a57.379,57.379,0,0,0,20.259,3.605,57.38,57.38,0,0,0,20.259-3.605" transform="translate(-25.524 -4.181)" fill="none" stroke="#8baf83" stroke-linecap="round" stroke-linejoin="round" stroke-width="1.3"/>
        <path id="Path_356" data-name="Path 356" d="M85.86,34.9s6.585,2.98,20.259,2.98,20.259-2.98,20.259-2.98" transform="translate(-25.524 -10.794)" fill="none" stroke="#8baf83" stroke-linecap="round" stroke-linejoin="round" stroke-width="1.3"/>
        <path id="Path_357" data-name="Path 357" d="M57.555,134.17s-11.683,2.489-14.912,8.2-2.731,9.074-.747,11.555,1.991,8.2-.5,12.551-4.1,7.616,1.244,29.205" transform="translate(-12.009 -39.472)" fill="none" stroke="#8baf83" stroke-linecap="round" stroke-linejoin="round" stroke-width="1.3"/>
        <path id="Path_358" data-name="Path 358" d="M28.914,108.13a7.838,7.838,0,0,0-5.219,4.722,14.338,14.338,0,0,0-1,8.576c.37,1.365-1,4.224-4.473,3.605a11.435,11.435,0,0,1-7.95-4.971c-1.614-2.61-4.971-3.107-7.7,4.1s-2.361,9.074,4.971,21.248,8.747,25.23,7.417,40.263" transform="translate(-1.011 -31.949)" fill="none" stroke="#8baf83" stroke-linecap="round" stroke-linejoin="round" stroke-width="1.3"/>
        <path id="Path_359" data-name="Path 359" d="M82.336,111.213a2.506,2.506,0,0,0,2.517-3.186,34.134,34.134,0,0,0-7.758-13.739c-7.331-7.829-15.907-6.962-18.389-3.854s2.731,13.3,10.069,17.4c4.651,2.6,10.162,3.25,13.568,3.378Z" transform="translate(-17.498 -26.186)" fill="none" stroke="#8baf83" stroke-linecap="round" stroke-linejoin="round" stroke-width="1.3"/>
        <path id="Path_360" data-name="Path 360" d="M49.51,143.43c4.1,7.332,12.551,15.289,15.53,17.024s6.713,3.228,11.555-.37,7.573-6.848,9.5-11.435" transform="translate(-15.022 -42.147)" fill="none" stroke="#8baf83" stroke-linecap="round" stroke-linejoin="round" stroke-width="1.3"/>
        <path id="Path_361" data-name="Path 361" d="M86.455,113.769s1.543,1.863,6.514,1.863,6.713-4.85,8.327-7.95,4.1-5.468,8.7-4.352,9.074,2.24,11.058,0c5.326-5.995,4.473-8.946,8.825-11.186s8.2-6.962,11.058-12.921S146.65,65.058,151,54.868s3.975-20.131-7.459-25.23-20.878-1-30.57,8.946-18.318,13.8-26.517,13.8-16.825-3.854-26.517-13.8S40.8,24.539,29.367,29.638s-11.8,15.04-7.459,25.23,7.211,18.389,10.069,24.355S38.69,89.911,43.035,92.144s3.5,5.191,8.825,11.186c1.991,2.24,6.464,1.116,11.058,0s7.083,1.244,8.7,4.352,3.356,7.95,8.327,7.95S86.455,113.769,86.455,113.769Z" transform="translate(-6.307 -8.639)" fill="none" stroke="#8baf83" stroke-linecap="round" stroke-linejoin="round" stroke-width="1.3"/>
        <path id="Path_362" data-name="Path 362" d="M162.37,134.17s11.683,2.489,14.912,8.2,2.731,9.074.747,11.555-1.991,8.2.5,12.551,4.1,7.616-1.244,29.205" transform="translate(-47.627 -39.472)" fill="none" stroke="#8baf83" stroke-linecap="round" stroke-linejoin="round" stroke-width="1.3"/>
        <path id="Path_363" data-name="Path 363" d="M187.19,108.13a7.838,7.838,0,0,1,5.22,4.722,14.337,14.337,0,0,1,1,8.576c-.37,1.365,1,4.224,4.473,3.605a11.435,11.435,0,0,0,7.95-4.971c1.614-2.61,4.971-3.107,7.7,4.1s2.361,9.074-4.971,21.248-8.747,25.23-7.417,40.263" transform="translate(-54.798 -31.949)" fill="none" stroke="#8baf83" stroke-linecap="round" stroke-linejoin="round" stroke-width="1.3"/>
        <path id="Path_364" data-name="Path 364" d="M134.188,111.213a2.506,2.506,0,0,1-2.517-3.186,34.135,34.135,0,0,1,7.758-13.739c7.331-7.829,15.907-6.962,18.389-3.854s-2.731,13.3-10.069,17.4c-4.651,2.6-10.162,3.25-13.568,3.378Z" transform="translate(-38.73 -26.186)" fill="none" stroke="#8baf83" stroke-linecap="round" stroke-linejoin="round" stroke-width="1.3"/>
        <path id="Path_365" data-name="Path 365" d="M163.056,143.43c-4.1,7.332-12.551,15.289-15.531,17.024s-6.713,3.228-11.555-.37-7.573-6.848-9.5-11.435" transform="translate(-37.256 -42.147)" fill="none" stroke="#8baf83" stroke-linecap="round" stroke-linejoin="round" stroke-width="1.3"/>
      </g>
    </g>
    <g id="Layer_2-8" data-name="Layer 2" transform="translate(1214.92 4609.484)">
      <g id="Group_291" data-name="Group 291" transform="translate(0 0)">
        <path id="Path_397" data-name="Path 397" d="M138.919,142.739a23.6,23.6,0,0,0-13.259,0" transform="translate(-66.204 -74.643)" fill="none" stroke="#8baf83" stroke-linecap="round" stroke-linejoin="round" stroke-width="1"/>
        <path id="Path_398" data-name="Path 398" d="M135.1,171.227s-.735,4.288-4.7,3.992c-3.467-.258-4.064-3.491-3.992-4.989" transform="translate(-66.59 -89.52)" fill="none" stroke="#8baf83" stroke-linecap="round" stroke-linejoin="round" stroke-width="1"/>
        <ellipse id="Ellipse_21" data-name="Ellipse 21" cx="1.965" cy="1.965" rx="1.965" ry="1.965" transform="translate(62.079 79.065)" fill="#8baf83" stroke="#8baf83" stroke-linecap="round" stroke-linejoin="round" stroke-width="1"/>
        <path id="Path_399" data-name="Path 399" d="M152.287,159.62a3.2,3.2,0,0,1-2.437,3.515" transform="translate(-78.857 -83.97)" fill="none" stroke="#8baf83" stroke-linecap="round" stroke-linejoin="round" stroke-width="1"/>
        <path id="Path_400" data-name="Path 400" d="M120.71,167.4s3.024-5.122,7.359-5.165,9.4,4.3,10.316,4.507c0,0-3.577.2-5.5-1.025C130.382,164.138,125.646,162.879,120.71,167.4Z" transform="translate(-63.615 -85.34)" fill="none" stroke="#8baf83" stroke-linecap="round" stroke-linejoin="round" stroke-width="1"/>
        <path id="Path_401" data-name="Path 401" d="M85.06,22.5s11.976,7.555,17.179,2.637-.5-11.69-3.777-14.542" transform="translate(-44.968 -6.022)" fill="none" stroke="#8baf83" stroke-linecap="round" stroke-linejoin="round" stroke-width="1"/>
        <path id="Path_402" data-name="Path 402" d="M51.765,18.271s-6.772-4.044-1.14-9.481c4.006-3.868,11.69-3,15.682-1.14s7.2.854,7.555-2.065S72.721,1.163,70.58,1.02s-3.21.572-3.348,1.5.925,1.927.925,1.927" transform="translate(-25.785 -1.002)" fill="none" stroke="#8baf83" stroke-linecap="round" stroke-linejoin="round" stroke-width="1"/>
        <path id="Path_403" data-name="Path 403" d="M41.562,34.52C30.726,37.94,4.352,51.2,8.63,84.917" transform="translate(-4.746 -18.534)" fill="none" stroke="#8baf83" stroke-linecap="round" stroke-linejoin="round" stroke-width="1"/>
        <path id="Path_404" data-name="Path 404" d="M31.56,89.759c8.556,1.355,12.758-2.924,16.612-8.27s7.13-9.553,12.477-6.343" transform="translate(-16.983 -39.2)" fill="none" stroke="#8baf83" stroke-linecap="round" stroke-linejoin="round" stroke-width="1"/>
        <path id="Path_405" data-name="Path 405" d="M45.61,142.739a23.6,23.6,0,0,1,13.259,0" transform="translate(-24.333 -74.643)" fill="none" stroke="#8baf83" stroke-linecap="round" stroke-linejoin="round" stroke-width="1"/>
        <path id="Path_406" data-name="Path 406" d="M54.42,171.227s.734,4.288,4.7,3.992c3.467-.258,4.063-3.491,3.992-4.989" transform="translate(-28.941 -89.52)" fill="none" stroke="#8baf83" stroke-linecap="round" stroke-linejoin="round" stroke-width="1"/>
        <ellipse id="Ellipse_22" data-name="Ellipse 22" cx="1.965" cy="1.965" rx="1.965" ry="1.965" transform="translate(27.983 79.065)" fill="#8baf83" stroke="#8baf83" stroke-linecap="round" stroke-linejoin="round" stroke-width="1"/>
        <path id="Path_407" data-name="Path 407" d="M44.1,159.62a3.2,3.2,0,0,0,2.437,3.515" transform="translate(-23.534 -83.97)" fill="none" stroke="#8baf83" stroke-linecap="round" stroke-linejoin="round" stroke-width="1"/>
        <path id="Path_408" data-name="Path 408" d="M11.3,152.572a7.039,7.039,0,0,0-7.2-1.14c-4.278,1.641-6.772,17.751,10.979,26.732" transform="translate(-0.997 -79.416)" fill="none" stroke="#8baf83" stroke-linecap="round" stroke-linejoin="round" stroke-width="1"/>
        <path id="Path_409" data-name="Path 409" d="M9.73,165.3s7.841,9.982,5.275,13.473" transform="translate(-5.565 -86.941)" fill="none" stroke="#8baf83" stroke-linecap="round" stroke-linejoin="round" stroke-width="1"/>
        <path id="Path_410" data-name="Path 410" d="M60,269.03a269,269,0,0,1-3.191,33.433" transform="translate(-30.191 -141.199)" fill="none" stroke="#8baf83" stroke-linecap="round" stroke-linejoin="round" stroke-width="1"/>
        <path id="Path_411" data-name="Path 411" d="M93.666,213.729s-.429-.072-1.426,1.283" transform="translate(-48.723 -112.272)" fill="none" stroke="#8baf83" stroke-linecap="round" stroke-linejoin="round" stroke-width="1"/>
        <path id="Path_412" data-name="Path 412" d="M80.58,236c.644.644,1.855,1.068,4.207,1.068h5.633" transform="translate(-42.624 -123.922)" fill="none" stroke="#8baf83" stroke-linecap="round" stroke-linejoin="round" stroke-width="1"/>
        <path id="Path_413" data-name="Path 413" d="M89.25,249a9.248,9.248,0,0,0,5.275,1.283c3.563,0,5.132-1.283,5.132-1.283" transform="translate(-47.159 -130.722)" fill="none" stroke="#8baf83" stroke-linecap="round" stroke-linejoin="round" stroke-width="1"/>
        <path id="Path_414" data-name="Path 414" d="M134.24,39.25c12.291,5.633,30.753,19.511,27.123,48.142" transform="translate(-70.692 -21.008)" fill="none" stroke="#8baf83" stroke-linecap="round" stroke-linejoin="round" stroke-width="1"/>
        <path id="Path_415" data-name="Path 415" d="M136.788,89.759c-8.556,1.355-12.758-2.924-16.612-8.27s-7.13-9.553-12.477-6.343" transform="translate(-56.81 -39.2)" fill="none" stroke="#8baf83" stroke-linecap="round" stroke-linejoin="round" stroke-width="1"/>
        <path id="Path_416" data-name="Path 416" d="M173.507,152.572a7.039,7.039,0,0,1,7.2-1.14c4.278,1.641,6.772,17.751-10.979,26.732" transform="translate(-89.256 -79.416)" fill="none" stroke="#8baf83" stroke-linecap="round" stroke-linejoin="round" stroke-width="1"/>
        <path id="Path_417" data-name="Path 417" d="M184.159,165.3s-7.841,9.982-5.275,13.473" transform="translate(-93.774 -86.941)" fill="none" stroke="#8baf83" stroke-linecap="round" stroke-linejoin="round" stroke-width="1"/>
        <path id="Path_418" data-name="Path 418" d="M96.51,165.3s-2.614,18.3-6.329,28.373C85.192,207.218,70.455,222.4,59.19,222.4s-26-15.186-30.991-28.726C24.488,183.6,21.87,165.3,21.87,165.3" transform="translate(-11.915 -86.941)" fill="none" stroke="#8baf83" stroke-linecap="round" stroke-linejoin="round" stroke-width="1"/>
        <path id="Path_419" data-name="Path 419" d="M136.74,269.03a269.01,269.01,0,0,0,3.191,33.433" transform="translate(-72 -141.199)" fill="none" stroke="#8baf83" stroke-linecap="round" stroke-linejoin="round" stroke-width="1"/>
        <path id="Path_420" data-name="Path 420" d="M105.01,213.729s.429-.072,1.426,1.283" transform="translate(-55.403 -112.272)" fill="none" stroke="#8baf83" stroke-linecap="round" stroke-linejoin="round" stroke-width="1"/>
        <path id="Path_421" data-name="Path 421" d="M108.869,236c-.644.644-1.855,1.068-4.207,1.068H99.03" transform="translate(-52.275 -123.922)" fill="none" stroke="#8baf83" stroke-linecap="round" stroke-linejoin="round" stroke-width="1"/>
        <path id="Path_422" data-name="Path 422" d="M99.577,249a9.248,9.248,0,0,1-5.275,1.283c-3.563,0-5.132-1.283-5.132-1.283" transform="translate(-47.117 -130.722)" fill="none" stroke="#8baf83" stroke-linecap="round" stroke-linejoin="round" stroke-width="1"/>
        <path id="Path_423" data-name="Path 423" d="M26,110.933c3.587-9.086,2.652-15.672,2.652-15.672s8.046.062,11.442-2.68c3.8-3.071,10.812-17.995,20-12.41" transform="translate(-14.075 -41.764)" fill="none" stroke="#8baf83" stroke-linecap="round" stroke-linejoin="round" stroke-width="1"/>
        <path id="Path_424" data-name="Path 424" d="M133.669,110.951c-3.806-9.086-2.814-15.672-2.814-15.672a11.238,11.238,0,0,1-12.028-2C115.1,89.842,107.223,74.6,97.47,80.185" transform="translate(-51.459 -41.783)" fill="none" stroke="#8baf83" stroke-linecap="round" stroke-linejoin="round" stroke-width="1"/>
        <path id="Path_425" data-name="Path 425" d="M17.43,83.564c6.338,2.5,13.454,3.615,21.276-8.756s13.759-6.753,13.759-6.753" transform="translate(-9.592 -35.409)" fill="none" stroke="#8baf83" stroke-linecap="round" stroke-linejoin="round" stroke-width="1"/>
        <path id="Path_426" data-name="Path 426" d="M144.845,83.642c-6.338,2.5-13.454,3.615-21.276-8.756-7.7-12.171-13.76-6.753-13.76-6.753" transform="translate(-57.914 -35.487)" fill="none" stroke="#8baf83" stroke-linecap="round" stroke-linejoin="round" stroke-width="1"/>
        <path id="Path_427" data-name="Path 427" d="M58.975,167.4s-3.024-5.122-7.359-5.165-9.4,4.3-10.316,4.507c0,0,3.577.2,5.5-1.025C49.3,164.138,54.039,162.879,58.975,167.4Z" transform="translate(-22.078 -85.34)" fill="none" stroke="#8baf83" stroke-linecap="round" stroke-linejoin="round" stroke-width="1"/>
      </g>
    </g>
  </g>
</svg>
