<svg xmlns="http://www.w3.org/2000/svg" width="369.036" height="93.398" viewBox="0 0 369.036 93.398">
  <path id="Path_440" data-name="Path 440" d="M-179.828-89.378V0h17.42V-33.1h11.256c10.318,0,17.688-2.948,22.646-7.906,6.834-6.834,7.37-16.482,7.37-19.966,0-6.432-1.876-15.142-9.112-21.574-6.566-5.762-13.534-6.834-23.584-6.834Zm17.42,15.008h6.03c4.154,0,8.71.268,12.328,2.814a12.311,12.311,0,0,1,4.958,10.184,13.339,13.339,0,0,1-4.824,10.452c-3.752,2.814-8.04,2.814-11.39,2.814h-7.1Zm97.552-17.018c-28.14,0-47.7,19.564-47.7,46.766S-93,2.01-64.856,2.01s47.7-19.43,47.7-46.632S-36.716-91.388-64.856-91.388Zm0,77.586c-17.42,0-29.748-12.73-29.748-30.82s12.328-30.954,29.748-30.954,29.748,12.864,29.748,30.954S-47.436-13.8-64.856-13.8ZM-1.072-89.378V0h17.42V-89.378ZM54.136,0V-59.764L108.54,0H120.6V-89.378H103.18v59.63l-54.4-59.63H36.716V0ZM189.208-74.37V-89.378h-57.62V-74.37h20.1V0h17.42V-74.37Z" transform="translate(179.828 91.388)" fill="#fff"/>
</svg>
