<svg xmlns="http://www.w3.org/2000/svg" width="272.556" height="93.398" viewBox="0 0 272.556 93.398">
  <path id="Path_452" data-name="Path 452" d="M-78.658-80.936a34.373,34.373,0,0,0-25.326-10.452c-19.832,0-28.676,13.132-28.676,26.264,0,9.112,4.154,14.07,7.1,16.616,4.556,4.02,10.184,6.164,14.874,7.772,5.092,1.742,10.452,3.484,13.8,6.566A10.381,10.381,0,0,1-93.4-26.13c0,7.5-5.9,12.328-13.8,12.328a20.956,20.956,0,0,1-18.76-11.926l-11.39,10.854C-132.66-8.04-123.012,2.01-106.53,2.01c18.492,0,31.088-11.926,31.088-29.346,0-9.112-3.618-15.142-7.638-18.76-4.556-4.154-11.122-6.566-18.09-8.978-5.628-2.01-8.576-3.082-10.72-5.092A7.528,7.528,0,0,1-114.7-66.2c0-4.556,2.948-10.452,12.328-10.452,3.216,0,9.38.67,14.606,7.638ZM-.67,0H18.09L-19.3-89.378H-32.964L-71.422,0h18.894l7.906-18.76H-8.576ZM-39.128-32.964l12.73-32.16,12.73,32.16Zm67.67-56.414V0H73.566V-15.008h-27.6v-74.37Zm106.664,0H85.626V0h49.58V-15.008h-32.16V-39.4h30.82V-54.4h-30.82V-74.37h32.16Z" transform="translate(137.35 91.388)" fill="#fff"/>
</svg>
