<svg xmlns="http://www.w3.org/2000/svg" width="853.714" height="93.398" viewBox="0 0 853.714 93.398">
  <path id="Path_437" data-name="Path 437" d="M-365.351-56.682-345.787,0h13.132l33.1-89.378h-18.492l-21.44,60.836-20.636-61.64h-9.648l-21.842,61.64-19.966-60.836h-18.492L-398.985,0h13.132Zm93.666-32.7h-17.42V0h17.42V-39.8H-233.9V0h17.42V-89.378H-233.9v34.572h-37.788ZM-175.875,0h17.42V-40.87l31.49-48.508H-147.6L-166.763-58.29l-19.162-31.088h-20.636l30.686,48.508Zm154.9-23.584a27.064,27.064,0,0,1-20.9,9.782c-15.008,0-30.284-10.72-30.284-30.552,0-16.482,11.658-31.222,29.614-31.222a28.746,28.746,0,0,1,21.574,10.05V-85.894a44.924,44.924,0,0,0-21.976-5.494c-12.73,0-23.852,3.35-32.83,11.792-7.638,7.1-14.338,18.76-14.338,34.974,0,13.132,4.02,24.254,14.338,34.17,7.5,7.1,17.018,12.462,32.7,12.462a46.282,46.282,0,0,0,22.11-5.226Zm33.5-65.794H-4.891V0h17.42V-39.8H50.317V0h17.42V-89.378H50.317v34.572H12.529Zm118.992-2.01c-28.14,0-47.7,19.564-47.7,46.766S103.381,2.01,131.521,2.01s47.7-19.43,47.7-46.632S159.661-91.388,131.521-91.388Zm0,77.586c-17.42,0-29.748-12.73-29.748-30.82S114.1-75.576,131.521-75.576s29.748,12.864,29.748,30.954S148.941-13.8,131.521-13.8Zm107.2-77.586c-28.14,0-47.7,19.564-47.7,46.766S210.581,2.01,238.721,2.01s47.7-19.43,47.7-46.632S266.861-91.388,238.721-91.388Zm0,77.586c-17.42,0-29.748-12.73-29.748-30.82S221.3-75.576,238.721-75.576s29.748,12.864,29.748,30.954S256.141-13.8,238.721-13.8ZM355.569-80.936a34.373,34.373,0,0,0-25.326-10.452c-19.832,0-28.676,13.132-28.676,26.264,0,9.112,4.154,14.07,7.1,16.616,4.556,4.02,10.184,6.164,14.874,7.772,5.092,1.742,10.452,3.484,13.8,6.566a10.381,10.381,0,0,1,3.484,8.04c0,7.5-5.9,12.328-13.8,12.328a20.956,20.956,0,0,1-18.76-11.926l-11.39,10.854C301.567-8.04,311.215,2.01,327.7,2.01c18.492,0,31.088-11.926,31.088-29.346,0-9.112-3.618-15.142-7.638-18.76-4.556-4.154-11.122-6.566-18.09-8.978-5.628-2.01-8.576-3.082-10.72-5.092a7.528,7.528,0,0,1-2.814-6.03c0-4.556,2.948-10.452,12.328-10.452,3.216,0,9.38.67,14.606,7.638Zm68.072-8.442h-49.58V0h49.58V-15.008h-32.16V-39.4H422.3V-54.4h-30.82V-74.37h32.16Z" transform="translate(430.073 91.388)" fill="#fff"/>
</svg>
