<svg xmlns="http://www.w3.org/2000/svg" width="233.562" height="94.872" viewBox="0 0 233.562 94.872">
  <path id="Path_453" data-name="Path 453" d="M-65.861-89.378H-113.3V0h17.42V-39.4h28.14V-54.4h-28.14V-74.37h30.016ZM.067,0h18.76L-18.559-89.378H-32.227L-70.685,0h18.894l7.906-18.76H-7.839ZM-38.391-32.964l12.73-32.16,12.73,32.16Zm141.1,36.448,17.554-1.742L105.793-12.864c4.824-5.36,11.792-15.008,11.792-31.758,0-27.2-19.564-46.766-47.7-46.766s-47.7,19.564-47.7,46.766c0,27.336,19.564,46.632,47.7,46.632,9.916,0,17.554-1.742,25.46-6.432Zm-19.3-39.4-18.09,1.474L83.549-16.75A28.165,28.165,0,0,1,70.283-13.8c-17.956,0-30.15-12.864-30.15-30.82,0-18.09,12.328-30.954,29.748-30.954S99.629-62.712,99.629-44.622c0,9.916-3.082,15.544-5.9,19.3Z" transform="translate(113.297 91.388)" fill="#fff"/>
</svg>
