<svg xmlns="http://www.w3.org/2000/svg" width="454.528" height="90.182" viewBox="0 0 454.528 90.182">
  <path id="Path_430" data-name="Path 430" d="M-222.306-89.378V0h17.42V-35.912h2.144L-178.89,0h21.708l-27.872-37.654a24.772,24.772,0,0,0,9.782-3.886c6.968-4.69,10.452-12.328,10.452-21.038,0-6.7-2.01-14.338-8.844-20.1-4.154-3.484-10.452-6.7-22.78-6.7Zm17.42,14.2h5.226c3.216,0,16.884.134,16.884,13.4,0,13.132-13.8,13.534-17.152,13.534h-4.958Zm109.076-14.2h-49.58V0h49.58V-15.008h-32.16V-39.4h30.82V-54.4h-30.82V-74.37h32.16Zm6.968,0L-51.322,0H-40.87L-3.082-89.378H-22.11L-45.962-29.346-69.814-89.378Zm96.212,0V0H24.79V-89.378Zm87.368,0H45.158V0h49.58V-15.008H62.578V-39.4H93.4V-54.4H62.578V-74.37h32.16Zm71.69,32.7L185.992,0h13.132l33.1-89.378H213.73L192.29-28.542l-20.636-61.64h-9.648l-21.842,61.64L120.2-89.378H101.706L132.794,0h13.132Z" transform="translate(222.306 90.182)" fill="#fff"/>
</svg>
