<svg xmlns="http://www.w3.org/2000/svg" width="492.316" height="91.388" viewBox="0 0 492.316 91.388">
  <path id="Path_454" data-name="Path 454" d="M-196.98-89.378h-47.436V0H-227V-39.4h28.14V-54.4H-227V-74.37h30.016Zm64.588,0h-49.58V0h49.58V-15.008h-32.16V-39.4h30.82V-54.4h-30.82V-74.37h32.16ZM-54.672,0h18.76L-73.3-89.378H-86.966L-125.424,0h18.894l7.906-18.76h36.046ZM-93.13-32.964l12.73-32.16,12.73,32.16ZM18.224-74.37V-89.378H-39.4V-74.37h20.1V0h17.42V-74.37ZM29.212-89.378v54.672c0,8.442,1.34,17.018,6.7,23.852C42.344-2.412,53.6,2.01,65.124,2.01S87.9-2.412,94.336-10.854c5.36-6.834,6.7-15.41,6.7-23.852V-89.378H83.616v56.146c0,6.834-2.278,10.988-4.288,13.266-2.546,3.082-7.236,6.164-14.2,6.164s-11.658-3.082-14.2-6.164c-2.01-2.278-4.288-6.432-4.288-13.266V-89.378Zm92.192,0V0h17.42V-35.912h2.144L164.82,0h21.708L158.656-37.654a24.772,24.772,0,0,0,9.782-3.886c6.968-4.69,10.452-12.328,10.452-21.038,0-6.7-2.01-14.338-8.844-20.1-4.154-3.484-10.452-6.7-22.78-6.7Zm17.42,14.2h5.226c3.216,0,16.884.134,16.884,13.4,0,13.132-13.8,13.534-17.152,13.534h-4.958ZM247.9-89.378H198.32V0H247.9V-15.008H215.74V-39.4h30.82V-54.4H215.74V-74.37H247.9Z" transform="translate(244.416 89.378)" fill="#fff"/>
</svg>
