<svg xmlns="http://www.w3.org/2000/svg" width="293.594" height="93.398" viewBox="0 0 293.594 93.398">
  <path id="Path_456" data-name="Path 456" d="M-78.055-23.584a27.064,27.064,0,0,1-20.9,9.782c-15.008,0-30.284-10.72-30.284-30.552,0-16.482,11.658-31.222,29.614-31.222a28.746,28.746,0,0,1,21.574,10.05V-85.894a44.924,44.924,0,0,0-21.976-5.494c-12.73,0-23.852,3.35-32.83,11.792-7.638,7.1-14.338,18.76-14.338,34.974,0,13.132,4.02,24.254,14.338,34.17,7.5,7.1,17.018,12.462,32.7,12.462a46.282,46.282,0,0,0,22.11-5.226ZM-1.139,0h18.76L-19.765-89.378H-33.433L-71.891,0H-53l7.906-18.76H-9.045ZM-39.6-32.964l12.73-32.16,12.73,32.16ZM78.323-80.936A34.373,34.373,0,0,0,53-91.388c-19.832,0-28.676,13.132-28.676,26.264,0,9.112,4.154,14.07,7.1,16.616,4.556,4.02,10.184,6.164,14.874,7.772,5.092,1.742,10.452,3.484,13.8,6.566a10.381,10.381,0,0,1,3.484,8.04c0,7.5-5.9,12.328-13.8,12.328a20.956,20.956,0,0,1-18.76-11.926L19.631-14.874C24.321-8.04,33.969,2.01,50.451,2.01c18.492,0,31.088-11.926,31.088-29.346,0-9.112-3.618-15.142-7.638-18.76-4.556-4.154-11.122-6.566-18.09-8.978-5.628-2.01-8.576-3.082-10.72-5.092a7.528,7.528,0,0,1-2.814-6.03c0-4.556,2.948-10.452,12.328-10.452,3.216,0,9.38.67,14.606,7.638ZM146.4-89.378H96.815V0H146.4V-15.008h-32.16V-39.4h30.82V-54.4h-30.82V-74.37H146.4Z" transform="translate(147.199 91.388)" fill="#fff"/>
</svg>
