<svg xmlns="http://www.w3.org/2000/svg" xmlns:xlink="http://www.w3.org/1999/xlink" width="30.546" height="30.147" viewBox="0 0 30.546 30.147">
  <defs>
    <clipPath id="clip-path">
      <rect id="Rectangle_808" data-name="Rectangle 808" width="30.546" height="30.147" transform="translate(0 0)" fill="none" stroke="#26a9e0" stroke-width="1"/>
    </clipPath>
  </defs>
  <g id="Group_1794" data-name="Group 1794" transform="translate(0 0)">
    <g id="Group_1793" data-name="Group 1793" clip-path="url(#clip-path)">
      <path id="Path_14953" data-name="Path 14953" d="M26.1,8.491a3.446,3.446,0,0,1,3.445,3.446V25.7A3.446,3.446,0,0,1,26.1,29.147H4.445A3.445,3.445,0,0,1,1,25.7V11.937A3.445,3.445,0,0,1,4.445,8.491h4.11" fill="none" stroke="#26a9e0" stroke-linecap="round" stroke-linejoin="round" stroke-width="2"/>
      <line id="Line_66" data-name="Line 66" x2="28.546" transform="translate(1 16.488)" fill="none" stroke="#26a9e0" stroke-linecap="round" stroke-linejoin="round" stroke-width="2"/>
      <line id="Line_67" data-name="Line 67" x2="3.487" transform="translate(7.392 23.036)" fill="none" stroke="#26a9e0" stroke-linecap="round" stroke-linejoin="round" stroke-width="2"/>
      <line id="Line_68" data-name="Line 68" x2="3.487" transform="translate(20.303 23.036)" fill="none" stroke="#26a9e0" stroke-linecap="round" stroke-linejoin="round" stroke-width="2"/>
      <path id="Path_14954" data-name="Path 14954" d="M10.479,5.467l4.78,4.78,4.835-4.834" fill="none" stroke="#26a9e0" stroke-linecap="round" stroke-linejoin="round" stroke-width="2"/>
      <line id="Line_69" data-name="Line 69" y1="9.248" transform="translate(15.259 0.999)" fill="none" stroke="#26a9e0" stroke-linecap="round" stroke-linejoin="round" stroke-width="2"/>
    </g>
  </g>
</svg>
