<svg xmlns="http://www.w3.org/2000/svg" width="33.233" height="33.499" viewBox="0 0 33.233 33.499">
  <g id="Layer_x0020_1" transform="translate(-0.004 0.009)">
    <path id="Path_19156" data-name="Path 19156" d="M8.078,16.306a24.352,24.352,0,0,0,3.6,5.041,20.509,20.509,0,0,0,5.7,4.206.594.594,0,0,0,.494.027,2.132,2.132,0,0,0,.685-.5,7.665,7.665,0,0,0,.625-.765c.915-1.206,2.05-2.7,3.651-1.953.035.016.062.035.1.051l5.342,3.072c.014.008.035.027.05.035a2.407,2.407,0,0,1,1,2.078,5.633,5.633,0,0,1-.782,2.649,5.441,5.441,0,0,1-2.568,2.269,11.68,11.68,0,0,1-3.166.86,10.715,10.715,0,0,1-4.837-.4A21.515,21.515,0,0,1,13.1,30.624l-.128-.082c-.79-.492-1.643-1.021-2.48-1.644a31.069,31.069,0,0,1-8.226-9.336,15.159,15.159,0,0,1-2.128-9.6A6.885,6.885,0,0,1,2.474,5.592a6.262,6.262,0,0,1,4.645-1.24.662.662,0,0,1,.536.343l3.423,5.79a1.809,1.809,0,0,1,.29,1.935,3.778,3.778,0,0,1-1.311,1.469c-.184.157-.4.317-.634.484-.766.556-1.635,1.2-1.338,1.953Zm6.379-2.764a.989.989,0,0,1,.5-1.915,10.215,10.215,0,0,1,4.331,2.425,9.7,9.7,0,0,1,2.66,4.114.991.991,0,0,1-1.893.59A7.692,7.692,0,0,0,17.935,15.5a8.22,8.22,0,0,0-3.478-1.96Zm.131-6.067a.991.991,0,0,1,.333-1.955,16.226,16.226,0,0,1,8.194,4.212,16.68,16.68,0,0,1,4.81,7.946A.993.993,0,0,1,26,18.167a14.689,14.689,0,0,0-4.236-6.993,14.232,14.232,0,0,0-7.177-3.7Zm.637-5.508A.992.992,0,0,1,15.451,0,20.634,20.634,0,0,1,26.8,5.284a20.872,20.872,0,0,1,6.412,10.809.989.989,0,1,1-1.931.427,18.877,18.877,0,0,0-5.807-9.77A18.639,18.639,0,0,0,15.226,1.968Z" transform="translate(0 0)" fill="#26a9e0"/>
  </g>
</svg>
