<svg id="Group_2378" data-name="Group 2378" xmlns="http://www.w3.org/2000/svg" xmlns:xlink="http://www.w3.org/1999/xlink" width="117.014" height="154.673" viewBox="0 0 117.014 154.673">
  <defs>
    <clipPath id="clip-path">
      <rect id="Rectangle_1934" data-name="Rectangle 1934" width="117.014" height="154.673" fill="none"/>
    </clipPath>
  </defs>
  <g id="Group_2377" data-name="Group 2377" transform="translate(0 0)" clip-path="url(#clip-path)">
    <path id="Path_19010" data-name="Path 19010" d="M12,97.628h-.075a.79.79,0,0,1-.789-.807L12.329,45l3.522-.41-3,52.235a.85.85,0,0,1-.85.8" transform="translate(14.241 57.045)" fill="#b0d4ff"/>
    <path id="Path_19011" data-name="Path 19011" d="M2.992,97.628H2.917a.79.79,0,0,1-.789-.807L3.325,45l3.522-.41-3,52.235a.85.85,0,0,1-.85.8" transform="translate(2.722 57.045)" fill="#95c0f4"/>
    <path id="Path_19012" data-name="Path 19012" d="M29.516,97.628h.075a.79.79,0,0,0,.789-.807L29.184,45l-3.522-.41,3,52.235a.85.85,0,0,0,.85.8" transform="translate(32.83 57.045)" fill="#b0d4ff"/>
    <path id="Path_19013" data-name="Path 19013" d="M1.483,69.641V34.131A11.312,11.312,0,0,1,12.8,22.819H38.381A11.312,11.312,0,0,1,49.693,34.131V71Z" transform="translate(1.897 29.192)" fill="#b0d4ff"/>
    <path id="Path_19014" data-name="Path 19014" d="M54.277,48.966H4.879a3.4,3.4,0,0,1-3.4-3.4V43.361H54.277Z" transform="translate(1.897 55.472)" fill="#95c0f4"/>
    <path id="Path_19015" data-name="Path 19015" d="M49.628,48.966H12.256a2.512,2.512,0,0,1-2.512-2.512v-.583a2.512,2.512,0,0,1,2.512-2.51H49.628a2.51,2.51,0,0,1,2.512,2.51v.583a2.511,2.511,0,0,1-2.512,2.512" transform="translate(12.466 55.472)" fill="#b0d4ff"/>
    <path id="Path_19016" data-name="Path 19016" d="M42.014,40.066a23.792,23.792,0,0,1-8.274,8.842H14.562S44.811,35.2,42.014,40.066" transform="translate(18.63 49.919)" fill="#234662"/>
    <path id="Path_19017" data-name="Path 19017" d="M20.4,70.06a1.777,1.777,0,0,0-.317,1.9l0,.009c.458,1.265,1.969,2.676,3.724,4.085.226.182.424.346.6.5.046.039.091.08.134.121s.071.064.1.093c1.637,1.509,1.019,1.853,3.961,4.914,3.353,3.49,5.662,3.553,6.318,3.234.554-.271-.574-2.12-1.826-4.2-.059-.1-.119-.2-.182-.3-.166-.276-.33-.556-.5-.834-1.466-2.5-1.09-3.679-.741-7.4.283-3.027,4.709-16.91,4.709-16.91l-6.425-1.108S28.031,65.21,25.9,66.913c-1.14.907-2.416.919-3.512,1.591-.077.046-.153.093-.228.144A8.437,8.437,0,0,0,20.4,70.06" transform="translate(25.515 69.279)" fill="#ffa77d"/>
    <path id="Path_19018" data-name="Path 19018" d="M20.4,62.006a1.776,1.776,0,0,0-.317,1.9l0,.009a13.663,13.663,0,0,0,3.731,4.073c.221.182.417.353.59.511.046.039.091.08.134.121s.071.064.1.093c1.637,1.509,1.019,1.853,3.961,4.914,3.353,3.49,5.662,3.553,6.318,3.234.554-.271-.574-2.12-1.826-4.2a14.3,14.3,0,0,1-5.976-4.4c-2.019-2.576-3.364-5.888-4.741-7.8-.077.046-.153.093-.228.144A8.437,8.437,0,0,0,20.4,62.006" transform="translate(25.515 77.334)" fill="#234662"/>
    <path id="Path_19019" data-name="Path 19019" d="M45.761,67.144c.4,1.983,3.223,1.653,6.382.88s2.409.146,6.9-.351,5.858-2.174,5.995-2.842c.123-.593-2.1-.8-4.481-1.076-.3-.034-.6-.071-.9-.109-2.692-.337-4.661-2.072-7.1-3.5-2.314-1.349-5.769-6.852-5.769-6.852l-6.166.488s3.237,4.914,4.488,7.05a7.459,7.459,0,0,1,.6,4.2,7.874,7.874,0,0,0,.048,2.108" transform="translate(51.968 68.181)" fill="#ffa77d"/>
    <path id="Path_19020" data-name="Path 19020" d="M49.311,62.155c3.159-.773,2.407.146,6.9-.351s5.858-2.174,5.995-2.842c.123-.595-2.1-.8-4.481-1.078l-.023.046a12.668,12.668,0,0,1-6.439,2c-3.05.075-6.28-.8-8.386-.766a7.893,7.893,0,0,0,.048,2.111c.4,1.983,3.223,1.653,6.382.88" transform="translate(54.799 74.052)" fill="#234662"/>
    <path id="Path_19021" data-name="Path 19021" d="M44.382,47.622,38.618,63.13,31.094,83.38a12.166,12.166,0,0,1-4-.365,17.328,17.328,0,0,1-3.866-1.883s2.09-21.743,5.988-34.224a22.248,22.248,0,0,1,3.353-7.253c6.043-7.139,11.811,7.966,11.811,7.966" transform="translate(29.719 48.28)" fill="#234662"/>
    <path id="Path_19022" data-name="Path 19022" d="M61.229,33.009c-3.777-1.217-14.544.346-25.364,2.464L33.6,31.737,10.234,29.911s-7.711,17.1-3.49,27.995A3.952,3.952,0,0,0,10.7,60.568h.342s13.908-.009,18.424-.009c11.62,0,24.594-7.987,26.272-8.322,2.747-.549,3.845,4.944,6.592,10.713s25.82,25.544,25.82,25.544a20.312,20.312,0,0,0,5.01-.515,4.912,4.912,0,0,0,2.152-1.358S69.745,35.755,61.229,33.009" transform="translate(7.012 38.265)" fill="#2b5c8b"/>
    <path id="Path_19023" data-name="Path 19023" d="M39.645,1.96C36.652.39,32.1.176,31.357.078,22.5-1.114,17.173,11.752,16.861,15.652c-.579,7.184-4.381,8.281-9.73,12.78C-3.6,37.456-.453,47.944,5.414,51.839c3.519,2.339,9.724,0,9.724,0,.089.062,16.97-9.436,25.289-14.018C52.9,36.048,47.274,5.967,39.645,1.96" transform="translate(0.047 -0.001)" fill="#234662"/>
    <path id="Path_19024" data-name="Path 19024" d="M21.089,22.225c.036.023-4.094,1.434-6.856.21-2.6-1.147-4.565-5.423-4.529-5.425,1.183-.055,2.48-1.087,3.481-7.868l.5.18,8.461,3.045s-.613,2.715-1.01,5.3c-.333,2.17-.513,4.249-.05,4.556" transform="translate(12.413 11.695)" fill="#ffa77d"/>
    <path id="Path_19025" data-name="Path 19025" d="M19.913,12.267s-.613,2.715-1.01,5.3c-4.862-.875-6.767-5.719-7.453-8.347Z" transform="translate(14.648 11.797)" fill="#ed8b5d"/>
    <path id="Path_19026" data-name="Path 19026" d="M21.65,23.172s-11.579-1.555-10.5-8.75S11.461,2.179,18.9,2.867s8.461,3.649,8.684,6.138S24.69,23.39,21.65,23.172" transform="translate(14.172 3.587)" fill="#ffa77d"/>
    <path id="Path_19027" data-name="Path 19027" d="M29.025,5.418s-7.412,6.387-12.454,6.9-6.95-1.1-6.95-1.1A19.658,19.658,0,0,0,14.38,4.769,3.545,3.545,0,0,1,17.3,2.679c3.6-.31,10.426-.454,11.723,2.74" transform="translate(12.308 3.231)" fill="#234662"/>
    <path id="Path_19028" data-name="Path 19028" d="M16.1,4.321A18.229,18.229,0,0,1,19.36,8.5a14.016,14.016,0,0,1,.381,7.451S23.6,8.435,21.416,4.786C19.1.916,16.1,4.321,16.1,4.321" transform="translate(20.599 3.756)" fill="#234662"/>
    <path id="Path_19029" data-name="Path 19029" d="M36.414,35.017c-.351,23.438-.1,18.542-2.66,20.765-.618.536-2.355.855-4.641,1.007-7.187.474-19.819-.709-20.3-2.038-1.659-4.6-.488-6.02-1.871-13.058-.144-.75-.321-1.557-.531-2.441-1.153-4.83-2.277-6.476,1.814-14.239,3.711-7.034,7.565-12.741,7.912-12.532,9.787,5.81,10.578.923,10.578.923s9.87,10.179,9.7,21.613" transform="translate(6.836 15.96)" fill="#fff"/>
    <path id="Path_19030" data-name="Path 19030" d="M38.618,57.985l-7.524,20.25a12.165,12.165,0,0,1-4-.365,17.269,17.269,0,0,1-3.866-1.883s2.09-21.743,5.988-34.224Z" transform="translate(29.719 53.428)" fill="#2b5c8b"/>
    <path id="Path_19031" data-name="Path 19031" d="M14.72,12.883s10.072,1.707,11.255,6.045,8.142,29.83,8.142,29.83-5.119.919-7.485-1.445S18.4,25.367,18.4,25.367Z" transform="translate(18.832 16.481)" fill="#fff"/>
    <path id="Path_19032" data-name="Path 19032" d="M28.218,45.867c-7.189.476-19.823-.707-20.3-2.035-1.657-4.6-.485-6.022-1.871-13.058l3.467-9.762s-.574,10.87,2.633,13.728,13.124,5.521,14.681,7.909a8.774,8.774,0,0,1,1.393,3.218" transform="translate(7.734 26.879)" fill="#ebf3ff"/>
    <path id="Path_19033" data-name="Path 19033" d="M12.16,30.527s7.091-1.58,8.235-.948,3.939,2.92,4.29,3.718-2.548-.606-3.49-.859a8.384,8.384,0,0,0-3.011.661,10.01,10.01,0,0,1-5.4.54Z" transform="translate(15.557 37.65)" fill="#ffa77d"/>
    <path id="Path_19034" data-name="Path 19034" d="M22.969,12.475s-9.521.586-12.817,5.183C5.514,24.129-3.69,51.7,1.584,55.383c5.94,4.142,27.035,1.083,27.035,1.083s.7-3.28-.276-4.869-16.849-4.151-17.58-4.882,9.156-14.285,9.156-16.482,3.05-17.758,3.05-17.758" transform="translate(0 15.959)" fill="#fff"/>
    <path id="Path_19035" data-name="Path 19035" d="M15.923,30.36A13.737,13.737,0,0,0,17.895,32.5a1.46,1.46,0,0,0,.8.171l-1-1.8Z" transform="translate(20.371 38.84)" fill="#ffa77d"/>
    <path id="Path_19036" data-name="Path 19036" d="M15.773,29.494l4.317,2.1a.77.77,0,0,1-.716.276,10.237,10.237,0,0,1-1.874-.513Z" transform="translate(20.179 37.732)" fill="#ffa77d"/>
    <path id="Path_19037" data-name="Path 19037" d="M16.788,46.934H50.956L61.233,21.376H27.118Z" transform="translate(21.478 27.346)" fill="#28a1de"/>
    <path id="Path_19038" data-name="Path 19038" d="M57.277,32.152H12.16v1H56.876Z" transform="translate(15.557 41.133)" fill="#1282af"/>
    <path id="Path_19039" data-name="Path 19039" d="M29.857,27.9a1.184,1.184,0,0,0-1.16-1.627A2.332,2.332,0,0,0,26.6,27.9a1.184,1.184,0,0,0,1.16,1.627A2.332,2.332,0,0,0,29.857,27.9" transform="translate(33.951 33.605)" fill="#fff"/>
  </g>
</svg>
