<svg id="Group_2374" data-name="Group 2374" xmlns="http://www.w3.org/2000/svg" xmlns:xlink="http://www.w3.org/1999/xlink" width="131.829" height="168.309" viewBox="0 0 131.829 168.309">
  <defs>
    <clipPath id="clip-path">
      <rect id="Rectangle_1932" data-name="Rectangle 1932" width="131.829" height="168.309" fill="none"/>
    </clipPath>
  </defs>
  <g id="Group_2373" data-name="Group 2373" clip-path="url(#clip-path)">
    <path id="Path_18917" data-name="Path 18917" d="M73.259,41.434s-.57,8.869-3.642,10.185a1.974,1.974,0,0,1-.735.162c-2.347.06-4.845-2.344-6.015-3.675-.25-.283-.438-.515-.553-.667-1.5-1.971-2.2-4.1,3.271-8.056,3.148-2.275,2.824-13.885,7.674-17.733,3.219-2.555,0,19.784,0,19.784" transform="translate(20.752 7.267)" fill="#42b9f3"/>
    <path id="Path_18918" data-name="Path 18918" d="M58.409,25.695s-.217-4.707-1.459-5.6-2.372-2.627-2.761-2.236,1.957,3.022.866,3.223c-.518.1-3.919-5.738-4.939-5.472s-.789,4.5.2,6.211a41.561,41.561,0,0,0,4.01,4.942Z" transform="translate(16.758 5.285)" fill="#ffb27d"/>
    <path id="Path_18919" data-name="Path 18919" d="M65.208,125.916h17.7c1.268-.861-.343-9.27-.343-9.27s-4.831-1.833-5.666,1.894-6.153,4.911-8.968,5.365a3.029,3.029,0,0,0-2.727,2.011" transform="translate(22.096 39.373)" fill="#1c4b8e"/>
    <path id="Path_18920" data-name="Path 18920" d="M91,59.884s-.558,10.328-1.256,22.295c-.5,8.581-1.075,18.006-1.566,25.063-.066.937-.13,1.833-.191,2.679-.017.262-.037.522-.058.782A157.406,157.406,0,0,1,82.423,140.4c-4.978,1.05-7.226-.87-7.226-.87s-3.43-40.194-4.7-56.4c-.936-11.933-1.732-29.308-1.732-29.308Z" transform="translate(23.301 18.235)" fill="#326290"/>
    <path id="Path_18921" data-name="Path 18921" d="M87.336,78.171c-.5,8.581-1.075,18.006-1.566,25.062-3.253-7.674-9.9-37.591-9.9-37.591Z" transform="translate(25.709 22.243)" fill="#2a557d"/>
    <path id="Path_18922" data-name="Path 18922" d="M84.819,125.916h17.7c1.268-.861-.343-9.27-.343-9.27s-4.831-1.833-5.666,1.894-6.153,4.911-8.968,5.365a3.029,3.029,0,0,0-2.727,2.011" transform="translate(28.741 39.373)" fill="#1c4b8e"/>
    <path id="Path_18923" data-name="Path 18923" d="M72.358,58.352S85,89.822,89.041,101.751c2.879,8.5,11,38.3,11,38.3a8.16,8.16,0,0,0,6.5-1s3.02-30.454-3.081-39.041c-3.237-4.556-.8-47.359-13.929-47.725s-17.169,6.065-17.169,6.065" transform="translate(24.519 17.712)" fill="#326290"/>
    <path id="Path_18924" data-name="Path 18924" d="M100.021,50.8c-.02,3.181-.054,6.208-.086,8.828-.02,1.773-.042,3.359-.056,4.679-.025,2.012-.042,3.409-.033,3.911.035,2.709-1.7,3.32-3.481,3.731,0,0-1.648.356-3.729.708a41,41,0,0,1-6.23.667A56.25,56.25,0,0,1,70.1,70.643c-1.67,0-2.431-2.584-2.7-6.19-.185-2.443.568-26.79.663-32.87a15.874,15.874,0,0,1,3.126-8.978c6.2-5.481,24.492-4.792,27.783-1.011.814.935,1.051,9.949,1.079,19.823.008,3.12,0,6.323-.024,9.385" transform="translate(22.827 6.311)" fill="#42b9f3"/>
    <path id="Path_18925" data-name="Path 18925" d="M86.008,21.356c-2.335,2.53-10.178,2.156-9.945-.054.031-.272.082-1.889.108-2.139.019-.2.039-.4.055-.584.054-.545.1-1.026.133-1.442.1-1.21.138-1.868.138-1.868h.008c.224-.063,5.267-1.494,7.776-2.087a4.061,4.061,0,0,1,1.39-.232c-.77,5.635,1.1,7.575.337,8.405" transform="translate(25.773 4.381)" fill="#ffb27d"/>
    <path id="Path_18926" data-name="Path 18926" d="M84.47,14.78s-2.106,2.139-8.188,2.293c.1-1.21.138-1.868.138-1.868h.008c.225-.063,5.268-1.494,7.776-2.087.442.181-.143,1.358.266,1.662" transform="translate(25.848 4.445)" fill="#ed975d"/>
    <path id="Path_18927" data-name="Path 18927" d="M75.5,18.346a19.018,19.018,0,0,0,3.5.817c2.871.387,6.646.159,7.831-3.315C88.829,10,91.381,6.5,85.5,4.108c-3.146-1.279-5.16-1.347-6.527-.858a4.723,4.723,0,0,0-2.418,2.094c-1.142,1.789-3.438,11.979-1.06,13" transform="translate(25.231 1.006)" fill="#ffb27d"/>
    <path id="Path_18928" data-name="Path 18928" d="M76.671,1.825a2.773,2.773,0,0,0,1.06,5.046,20.409,20.409,0,0,1,3.446.633c1.462.649,2.718,1.338,2.372,3.606-.116.771-.493,1.711,1.493,1.245a.964.964,0,0,1,.72.043c.825.489-.229,2.857-.546,3.37,0,0-.457,1.7.557,2.522.123.1,2.114.969,6.914-6.376A6.825,6.825,0,0,0,93,5.663C91.834,3.164,88.589,0,82.474,0a11.661,11.661,0,0,0-5.8,1.825" transform="translate(25.558)" fill="#2a557d"/>
    <path id="Path_18929" data-name="Path 18929" d="M92.215,20.843s9,13.443,10.011,29.041c0,0,.68,4.246-5.006,3.754S87.48,43.812,87.292,35.9s4.923-15.061,4.923-15.061" transform="translate(29.578 7.063)" fill="#42b9f3"/>
    <path id="Path_18930" data-name="Path 18930" d="M94.88,44.416c-.02,3.181-.054,6.208-.086,8.828-.02,1.773-.042,3.359-.056,4.679-2.743-.5-4.82-5.5-3.967-8.832.869-3.4-4.35-6.01-6.564-8.225s-1.591-3.391-1.591-3.391Z" transform="translate(27.967 12.699)" fill="#3ca0d7"/>
    <path id="Path_18931" data-name="Path 18931" d="M92.35,38.008s-1.952-7.569-2.743-7.569,1.055,3.322.316,4.271-4.521-1.064-4.871.206,7.729,4.685,7.3,3.091" transform="translate(28.816 10.314)" fill="#3ca0d7"/>
    <path id="Path_18932" data-name="Path 18932" d="M84.8,34.681S80.911,33.6,80.65,32.238s-.274-3.292-1.554-4.045-4.3-1.7-4.845-1.038.588,2.359,1.712,3.494.62,3.567,1.783,4.457a41,41,0,0,0,5.28,2.64Z" transform="translate(25.112 9.126)" fill="#ffb27d"/>
    <path id="Path_18933" data-name="Path 18933" d="M79.169,31.671s.27-1.991.442-2.654-.332-.384-.552-.134a2.046,2.046,0,0,0-.55,1.608,2.314,2.314,0,0,0,.66,1.18" transform="translate(26.595 9.693)" fill="#ffb27d"/>
    <path id="Path_18934" data-name="Path 18934" d="M79.393,31.367s17.716,6.878,20.246,8.776a6.121,6.121,0,0,1,1.793,7.124c-1.086,2.034-5.021,1.544-10.937-2.828-4.683-3.46-12.658-10.1-12.658-10.1Z" transform="translate(26.375 10.629)" fill="#ffb27d"/>
    <path id="Path_18935" data-name="Path 18935" d="M69.206,45.14h0a2,2,0,0,1-.735.162c-2.348.06-4.845-2.344-6.015-3.675,1.359-.771,3.62-1.21,4.592-.594,1.581,1,1.423-.474,2.158-.474s0,4.58,0,4.58" transform="translate(21.163 13.744)" fill="#3ca0d7"/>
    <path id="Path_18936" data-name="Path 18936" d="M53.094,24.2s11.019,24.987,14.98,25.316,2.435-6.82,1.592-9.187c-.949-2.662-5.3-6.394-8.056-9.873a47.983,47.983,0,0,1-4.434-7.32Z" transform="translate(17.991 7.84)" fill="#ffb27d"/>
    <path id="Path_18937" data-name="Path 18937" d="M16.774,40.334c-.6-1.158,13.1-5.327,13.315,6.1,0,0,25.662-.631,13.409-14.934-4.241-4.952-3.805-9.045-3.678-12.857S37.178,3.755,27.679,4.87a7.071,7.071,0,0,0-5.591.6c-7.06,3.662-22.874,39.08-5.314,34.865" transform="translate(2.974 1.544)" fill="#2a557d"/>
    <path id="Path_18938" data-name="Path 18938" d="M46.085,39.878s1.671-2.542,3.016-2.593,3.84-.747,3.64-.249-1.746.549-1.9.847,2.295.748,2.992.8,2.343,0,2.293.349-2.966,1.8-5.023,1.6a13.956,13.956,0,0,0-4.6.6Z" transform="translate(15.616 12.489)" fill="#ffb27d"/>
    <path id="Path_18939" data-name="Path 18939" d="M28.042,44.867A25.035,25.035,0,0,0,30.6,48.731c1.986,2.486,5.045,5.358,8.889,5.924a9.542,9.542,0,0,0,5.279-.857h.007c4.667-2.071,8.176-6.836,8.176-6.836a3.838,3.838,0,0,0-.523-3.765S43,45.316,42.1,44.867s-6.416-12.69-7.409-14.729a11.174,11.174,0,0,0-5.465-5.576Z" transform="translate(9.502 8.323)" fill="#326290"/>
    <path id="Path_18940" data-name="Path 18940" d="M30.026,43.877c1.986,2.486,5.043,5.358,8.889,5.924a9.541,9.541,0,0,0,5.278-.857c-.182.024-4.841.6-6.7-2.723-1.9-3.391-3.946-8.776-6.76-6.982-1.216.775-1.161,2.7-.707,4.638" transform="translate(10.074 13.176)" fill="#2a557d"/>
    <path id="Path_18941" data-name="Path 18941" d="M2.387,116.019s-2.876,2.624-2.315,4.489,3.157,3.107,3.506,5.386,1.754,3.521,3.016,3.521h6.018s.929-1.6-1.315-2.086-3.09-3.162-2.951-5.649a43.77,43.77,0,0,0-.21-5.8l-4.769-1.1Z" transform="translate(0 38.893)" fill="#1c4b8e"/>
    <path id="Path_18942" data-name="Path 18942" d="M20.062,116.537s-1.034,11.117.228,11.738l16.156-.032s0-1.865-2.595-2.279-7.153-1.935-7.925-5.318-5.864-4.109-5.864-4.109" transform="translate(6.663 39.489)" fill="#1c4b8e"/>
    <path id="Path_18943" data-name="Path 18943" d="M10.679,37.706s2.241-2.668,2.484,1.4c.159,2.7.407,12.379.8,13.273.972,2.244,2.069,2.609,2.069,2.609l8.483,2.079,2.982.73L36.9,54.993S41.181,43.035,39.462,36.3A51.766,51.766,0,0,0,35.113,24.9s-6.377-2.516-17.669-.637Z" transform="translate(3.619 7.985)" fill="#326290"/>
    <path id="Path_18944" data-name="Path 18944" d="M12.533,41.219a26.5,26.5,0,0,0,.8,6.109c.972,2.243,2.069,2.608,2.069,2.608l8.483,2.079,3.685-1.083s-12.3-1.864-10.936-12.445Z" transform="translate(4.247 13.042)" fill="#2a557d"/>
    <path id="Path_18945" data-name="Path 18945" d="M33.764,48.394s4.658,14.5,4.956,19.435-8.9,70.122-9.273,72.4c-.349,2.145-3.012,3.512-3.012,3.512a4.029,4.029,0,0,1-2.971.229,7.366,7.366,0,0,1-3.192-1.5s-3.626-46.49-1.382-63.1a263.041,263.041,0,0,0,2.271-30.969Z" transform="translate(6.153 16.399)" fill="#3ca0d7"/>
    <path id="Path_18946" data-name="Path 18946" d="M19.33,48.072S12.224,57.6,11.562,64.05s-1.039,29.08-2.45,35.363-6.6,18.372-6.6,37.967a3.9,3.9,0,0,0,2.2,1.72,18.008,18.008,0,0,0,1.939.536,3.045,3.045,0,0,0,3.406-1.616c3.505-7.058,14.671-29.82,15.243-34.545.406-3.344,3.931-25.476,11.623-38.461C38.773,61.9,35.794,49.5,35.794,49.5Z" transform="translate(0.853 16.289)" fill="#42b9f3"/>
    <path id="Path_18947" data-name="Path 18947" d="M35.808,46.722a9.765,9.765,0,0,1-5.584,1.554c-4.437.09-15.432-1.131-15.432-1.131a9.093,9.093,0,0,0-.469,2.806s13.427,3.387,21.209.494a4.918,4.918,0,0,0,.276-3.723" transform="translate(4.853 15.832)" fill="#2a557d"/>
    <path id="Path_18948" data-name="Path 18948" d="M25.482,49.608a2.173,2.173,0,0,1,2.024-2.292,2.31,2.31,0,0,1,0,4.584,2.173,2.173,0,0,1-2.024-2.292m.671,0a1.506,1.506,0,0,0,1.354,1.62,1.646,1.646,0,0,0,0-3.24,1.507,1.507,0,0,0-1.354,1.62" transform="translate(8.635 16.033)" fill="#fff"/>
    <path id="Path_18949" data-name="Path 18949" d="M19.2,25.361a18.8,18.8,0,0,0,1-6.858l.426.084,7.16,1.418s-.162,2.253-.167,4.377v.052c-.008,1.844,1.246,3.694-1.712,4.426-.913.225-8.059-.233-6.71-3.5" transform="translate(6.447 6.27)" fill="#ffb27d"/>
    <path id="Path_18950" data-name="Path 18950" d="M27.383,19.984s-.163,2.253-.167,4.377c-4.007-.114-6.125-3.769-6.994-5.795Z" transform="translate(6.852 6.291)" fill="#e8945b"/>
    <path id="Path_18951" data-name="Path 18951" d="M29,25.175s-9.48.157-9.487-5.749S18.276,9.564,24.329,9.213s7.231,1.9,7.713,3.873S31.463,24.982,29,25.175" transform="translate(6.575 3.11)" fill="#ffb27d"/>
    <path id="Path_18952" data-name="Path 18952" d="M29.418,9.4s-2.6,6.929-6.579,7.953-5.712-.043-5.712-.043a11.284,11.284,0,0,0,3.69-6.665S27.46,6.1,29.418,9.4" transform="translate(5.804 2.779)" fill="#2a557d"/>
    <path id="Path_18953" data-name="Path 18953" d="M25.827,9.8a5.879,5.879,0,0,1,2.718,2.123,9.554,9.554,0,0,1,1.281,5.421s1.955-4.709-.242-7.372C27.253,7.151,25.827,9.8,25.827,9.8" transform="translate(8.752 2.939)" fill="#2a557d"/>
    <path id="Path_18954" data-name="Path 18954" d="M17.931,24.085s-4.319.951-6.216,3.639-4.183,24.517-.549,25.7,7.745-.553,7.9-9.174a190.012,190.012,0,0,0-1.138-20.169" transform="translate(3.131 8.161)" fill="#326290"/>
    <path id="Path_18955" data-name="Path 18955" d="M27.12,32.96a42.94,42.94,0,0,1-5.558,4.134c-3.524,2.164-7.724,4.07-8.669,5.445-1.765,2.567-2.251,6.579-.293,7.1s4.521-.123,8.5-4.529a106.1,106.1,0,0,0,7.433-9.4Z" transform="translate(3.841 11.169)" fill="#ffb27d"/>
    <path id="Path_18956" data-name="Path 18956" d="M23.176,34.757s-.388-3.719-.091-4.575,4.825-3.137,4.9-2.372-1.473,1.872-1.277,3.126c.218,1.408.478,3.12-.261,3.84a16.536,16.536,0,0,0-1.85,2.739Z" transform="translate(7.785 9.371)" fill="#ffb27d"/>
    <path id="Path_18957" data-name="Path 18957" d="M23.417,33.794a14.715,14.715,0,0,0-1.051-2.927c-.474-.7.826-.333,1.233.507a4.024,4.024,0,0,1-.182,2.419" transform="translate(7.544 10.335)" fill="#ffb27d"/>
  </g>
</svg>
