<svg xmlns="http://www.w3.org/2000/svg" xmlns:xlink="http://www.w3.org/1999/xlink" width="235.603" height="53.063" viewBox="0 0 235.603 53.063">
  <defs>
    <clipPath id="clip-path">
      <rect id="Rectangle_870" data-name="Rectangle 870" width="235.603" height="53.063" fill="#333"/>
    </clipPath>
  </defs>
  <g id="Group_1922" data-name="Group 1922" clip-path="url(#clip-path)">
    <path id="Path_15939" data-name="Path 15939" d="M3.977,20.521A17.585,17.585,0,0,1,29.9,5.043,17.581,17.581,0,1,0,9.234,33.059,17.535,17.535,0,0,1,3.977,20.521" transform="translate(0 -0.001)" fill="#333"/>
    <path id="Path_15940" data-name="Path 15940" d="M27.955,27.641A17.584,17.584,0,0,1,1.59,12.928a17.58,17.58,0,1,0,34.594,3.889,17.534,17.534,0,0,1-8.228,10.824" transform="translate(1.223 15.415)" fill="#333"/>
    <path id="Path_15941" data-name="Path 15941" d="M23.8,6.9a17.587,17.587,0,0,1,.441,30.191,17.58,17.58,0,1,0-13.928-31.9A17.517,17.517,0,0,1,23.8,6.9" transform="translate(12.295 3.062)" fill="#333"/>
    <path id="Path_15942" data-name="Path 15942" d="M4.32,9.4,14.574,4.8a.494.494,0,0,1,.625.706L9.306,15.29a.493.493,0,0,1-.8.064L4.145,10.169A.493.493,0,0,1,4.32,9.4" transform="translate(4.802 5.671)" fill="#333"/>
    <path id="Path_15943" data-name="Path 15943" d="M7.341,18.32l6.836-3.065a.33.33,0,0,1,.417.471l-3.929,6.52a.328.328,0,0,1-.533.044L7.225,18.833a.329.329,0,0,1,.116-.513" transform="translate(8.521 18.154)" fill="#333"/>
    <path id="Path_15944" data-name="Path 15944" d="M14.9,10.846l6.836-3.065a.33.33,0,0,1,.417.471l-3.929,6.522a.331.331,0,0,1-.535.042l-2.907-3.457a.33.33,0,0,1,.118-.513" transform="translate(17.535 9.242)" fill="#333"/>
    <path id="Path_15945" data-name="Path 15945" d="M38.98,12.091c-.037-2.173-.037-2.4-.055-4.611H40.99c0,2.4.018,2.813.053,4.468l3.631-.25.143,2.1-3.7.267a32.244,32.244,0,0,0,.322,3.221,11.55,11.55,0,0,0,1.283-2.848l1.813,1a16.827,16.827,0,0,1-2.473,4.431c.267.765.533,1.568.855,1.568.143,0,.515-.3.908-1.94l1.193,1.655c-.357,1.743-1.21,3.15-2.118,3.15-1.14,0-1.94-1.318-2.455-2.583a15.446,15.446,0,0,1-3.1,2.35l-1.458-1.85c.443-.232.656-.34,1.1-.605h-3.1V24.3h-2.1V21.613H27.928V19.548h3.861V18.373H28.551V10.864H34.3A15.285,15.285,0,0,0,35.777,7.5l2.17.658a26.238,26.238,0,0,1-1.46,2.705h.64v7.509H33.889v1.175h3.756V21.22a15.474,15.474,0,0,0,2.081-1.76,30.754,30.754,0,0,1-.675-5.251l-1.548.105-.16-2.1ZM29.866,7.606a9.536,9.536,0,0,1,1.265,2.508l-2,.695a11.892,11.892,0,0,0-1.193-2.563Zm.552,6.194h1.5V12.482h-1.5Zm0,2.9h1.5v-1.37h-1.5Zm3.113-9.307a16,16,0,0,1,.607,2.758l-2.03.285a13.639,13.639,0,0,0-.605-2.83Zm.252,6.406h1.5V12.482h-1.5Zm0,2.9h1.5v-1.37h-1.5Zm9.092-9.059a14.345,14.345,0,0,1,1.8,2.938l-1.725,1.013A24.086,24.086,0,0,0,41.24,8.621Z" transform="translate(33.301 8.815)" fill="#333"/>
    <path id="Path_15946" data-name="Path 15946" d="M52.424,8.968V10.96a11.939,11.939,0,0,1-2.333,2.883,11.876,11.876,0,0,0,3.435,1.318L52.762,17.3c-.2-.053-.25-.088-.392-.125V23.9H44.61V17.224c-.09.037-.143.055-.338.143l-.7-1.513v7.423H36.9V8.2h6.671v2.776A7.382,7.382,0,0,0,46.6,7.4l2.135.34a8.02,8.02,0,0,1-.552,1.228Zm-12.975,1.21h-.89V14.7h.89Zm0,6.426h-.89v4.646h.89Zm2.473-6.426h-.908V14.7h.908Zm0,6.426h-.908v4.646h.908Zm1.653-1.355a12.356,12.356,0,0,0,3.278-1.388,10.461,10.461,0,0,1-1.408-1.6,7.612,7.612,0,0,1-.96.71l-.91-1.193Zm8.474,1.817a14.608,14.608,0,0,1-3.613-1.905,17.849,17.849,0,0,1-3.453,1.905Zm-1.71,1.9h-3.7v2.953h3.7Zm-3.523-8.061c-.035.035-.035.053-.07.088a7.781,7.781,0,0,0,1.69,1.728,8.938,8.938,0,0,0,1.673-1.815Z" transform="translate(44.004 8.823)" fill="#333"/>
    <path id="Path_15947" data-name="Path 15947" d="M56.588,7.682a21.909,21.909,0,0,1-.57,2.155h5.588c0,2.74,0,10-.5,12.35a2.176,2.176,0,0,1-2.526,2.065H55.5l-.445-2.26h2.863c.642,0,.945-.053,1.1-1a70.1,70.1,0,0,0,.392-9.059H55.181A14.817,14.817,0,0,1,52.9,15.5l-.837-.8v8.559H45.749V9.925h1.8a13.176,13.176,0,0,0,.57-2.438l2.19.178a12.108,12.108,0,0,1-.642,2.26h2.4v2.938A11.86,11.86,0,0,0,54.38,7.417ZM50.04,11.955H47.832v3.506H50.04Zm0,5.446H47.832v3.808H50.04Zm5.979,2.366a20.425,20.425,0,0,0-2.225-4.788l1.85-1a22.05,22.05,0,0,1,2.455,4.7Z" transform="translate(54.551 8.843)" fill="#333"/>
    <path id="Path_15948" data-name="Path 15948" d="M61.071,9.658A32.479,32.479,0,0,1,56.726,23.4L54.36,22.187c1.015-1.585,3.418-5.428,4.253-12.869Zm6.334,13.4a46.465,46.465,0,0,0-4.128-12.885L65.482,9.2a44.927,44.927,0,0,1,4.5,13.2Zm.232-14.93a15.871,15.871,0,0,1,1.673,3.416l-1.3.695a14.732,14.732,0,0,0-1.6-3.488Zm2.278-.962a15.663,15.663,0,0,1,1.69,3.418l-1.3.695a13.944,13.944,0,0,0-1.6-3.471Z" transform="translate(64.819 8.543)" fill="#333"/>
    <path id="Path_15949" data-name="Path 15949" d="M64.813,15.063a17.412,17.412,0,0,0-1.405-4.433l1.905-.515a18.307,18.307,0,0,1,1.53,4.448Zm-.16,4.341c5.946-1.3,7.9-3.666,8.989-9.842l2.313.517c-.96,4.431-2.455,9.359-9.8,11.122Zm4.111-5.2a20.811,20.811,0,0,0-1.228-4.378l1.888-.392a17.67,17.67,0,0,1,1.315,4.326Z" transform="translate(75.607 11.252)" fill="#333"/>
    <path id="Path_15950" data-name="Path 15950" d="M71.647,20.489c4.841-.89,9.522-3.488,10.57-10.144H76.647a14.467,14.467,0,0,1-4.521,4.608l-1.513-1.763A11.42,11.42,0,0,0,75.08,8.155h9.877c-.285,3.578-1.37,12.334-12.35,14.54Z" transform="translate(84.2 9.723)" fill="#333"/>
    <path id="Path_15951" data-name="Path 15951" d="M78.764,12.9V10.66h8.061V7.83h2.368v2.83h4.041V12.9H89.211v7.651c0,2.368-1.958,2.368-2.758,2.368-.375,0-.57,0-2.423-.09L83.712,20.5c1.353.125,1.833.16,2.258.16.607,0,.89-.125.89-.677l-.015-4.841a21.363,21.363,0,0,1-7.351,6.211l-1.423-1.848a24.214,24.214,0,0,0,8.059-6.6Z" transform="translate(93.091 9.336)" fill="#333"/>
    <path id="Path_15952" data-name="Path 15952" d="M100.356,8.309c-.285,4.593-1.122,11.854-11.462,13.952l-1.033-2.223c7.654-1.443,9.239-5.358,9.789-9.4H86.511V8.309Z" transform="translate(103.155 9.907)" fill="#333"/>
    <path id="Path_15953" data-name="Path 15953" d="M101.768,21.65H99.58V15.669a23.236,23.236,0,0,1-5.073,2.4l-.978-1.94a20.811,20.811,0,0,0,10.359-7.084l1.85,1.37a25.165,25.165,0,0,1-3.97,3.74Z" transform="translate(111.523 10.788)" fill="#333"/>
    <path id="Path_15954" data-name="Path 15954" d="M113.306,8.179a18.168,18.168,0,0,1-3.186,7.4,54.251,54.251,0,0,1,5.786,5.021l-2,1.921a55.573,55.573,0,0,0-5.249-5.178,21.629,21.629,0,0,1-6.924,5.143l-1.355-1.975a16.969,16.969,0,0,0,6.3-4.415,16.339,16.339,0,0,0,3.488-5.676h-8.807V8.179Z" transform="translate(119.697 9.752)" fill="#333"/>
    <path id="Path_15955" data-name="Path 15955" d="M43.416,20.359A3.824,3.824,0,0,0,41.783,20c-.7,0-1.522.25-1.522,1.16,0,1.673,3.742,1.285,3.742,4.155,0,1.859-1.436,2.6-3.183,2.6a5.786,5.786,0,0,1-1.782-.362l.125-1.16a5.264,5.264,0,0,0,1.809.423,1.56,1.56,0,0,0,1.71-1.421c0-1.947-3.745-1.412-3.745-4.12,0-1.546,1.223-2.37,2.8-2.37a5.792,5.792,0,0,1,1.859.311Z" transform="translate(46.428 22.534)" fill="#333"/>
    <path id="Path_15956" data-name="Path 15956" d="M45.988,21.989H44.3v3.482a1.011,1.011,0,0,0,.989,1.136,1.435,1.435,0,0,0,.8-.226v1a3.7,3.7,0,0,1-1,.175c-1.21,0-1.96-.574-1.96-1.848V21.989H41.695V21.04h1.434V19.569l1.173-.375V21.04h1.686Z" transform="translate(49.717 22.886)" fill="#333"/>
    <path id="Path_15957" data-name="Path 15957" d="M44.465,20.118h1.1V21.1h.026a1.93,1.93,0,0,1,1.66-1.136,3.269,3.269,0,0,1,.772.088V21.1a1.735,1.735,0,0,0-.649-.114c-1.048,0-1.734,1-1.734,2.6v2.894H44.465Z" transform="translate(53.02 23.81)" fill="#333"/>
    <path id="Path_15958" data-name="Path 15958" d="M47.348,20.568a4.067,4.067,0,0,1,2.1-.6c1.822,0,2.559.9,2.559,2.633v2.633a9.586,9.586,0,0,0,.053,1.247h-1.1v-.824h-.026a2.359,2.359,0,0,1-1.973.973c-1.372,0-2.333-.6-2.333-1.984,0-1.6,1.747-2.1,2.96-2.1.46,0,.785,0,1.245.026,0-1.1-.4-1.662-1.572-1.662a2.994,2.994,0,0,0-1.846.649Zm3.482,2.883c-.248,0-.5-.026-.748-.026-.638,0-2.21.1-2.21,1.223a1.12,1.12,0,0,0,1.186,1.035,1.6,1.6,0,0,0,1.771-1.671Z" transform="translate(55.595 23.81)" fill="#333"/>
    <path id="Path_15959" data-name="Path 15959" d="M54,21.989H52.314v3.482a1.01,1.01,0,0,0,.989,1.136,1.435,1.435,0,0,0,.8-.226v1a3.7,3.7,0,0,1-1,.175c-1.21,0-1.96-.574-1.96-1.848V21.989H49.707V21.04h1.434V19.569l1.173-.375V21.04H54Z" transform="translate(59.27 22.886)" fill="#333"/>
    <path id="Path_15960" data-name="Path 15960" d="M57.586,26.22a4.832,4.832,0,0,1-2.008.412c-2.26,0-3.3-1.372-3.3-3.442a2.957,2.957,0,0,1,2.982-3.221c2.122,0,2.808,1.548,2.808,3.593H53.53a2.083,2.083,0,0,0,2.1,2.122,3.76,3.76,0,0,0,1.96-.636Zm-.761-3.53a1.608,1.608,0,0,0-1.585-1.774,1.763,1.763,0,0,0-1.71,1.774Z" transform="translate(62.342 23.81)" fill="#333"/>
    <path id="Path_15961" data-name="Path 15961" d="M61.638,26.209c0,1.934-1,3.045-3.282,3.045a6.4,6.4,0,0,1-2.282-.438L56.2,27.73a4.84,4.84,0,0,0,2.3.574,1.924,1.924,0,0,0,1.971-2.184V25.5h-.026a2.647,2.647,0,0,1-2.131.987c-1.822,0-2.721-1.484-2.721-3.133,0-1.633.923-3.381,2.844-3.381a2.088,2.088,0,0,1,2.1,1.1h.026v-.949h1.085Zm-1.173-2.833c0-1.324-.609-2.46-1.859-2.46-1.186,0-1.771,1.287-1.771,2.372,0,1.2.673,2.245,1.771,2.245a1.983,1.983,0,0,0,1.859-2.157" transform="translate(66.282 23.81)" fill="#333"/>
    <path id="Path_15962" data-name="Path 15962" d="M60.754,20.108H59.43V18.784h1.324Zm-1.247,1.421H60.68v6.365H59.507Z" transform="translate(70.864 22.397)" fill="#333"/>
    <path id="Path_15963" data-name="Path 15963" d="M65.448,21.192a3.416,3.416,0,0,0-1.274-.274A2.178,2.178,0,0,0,62.128,23.3a2.153,2.153,0,0,0,2.12,2.383,2.448,2.448,0,0,0,1.261-.362l.088,1.048a3.6,3.6,0,0,1-1.473.263A3.219,3.219,0,0,1,60.881,23.3a3.142,3.142,0,0,1,3.243-3.332,4.365,4.365,0,0,1,1.423.25Z" transform="translate(72.594 23.81)" fill="#333"/>
    <path id="Path_15964" data-name="Path 15964" d="M65.526,18.967h2.359c1.809,0,3.056.588,3.056,2.2a2.013,2.013,0,0,1-1.8,2.07v.026a2.04,2.04,0,0,1,2.021,2.1c0,1.872-1.548,2.322-3.319,2.322H65.526Zm1.247,3.718h.686c1.21,0,2.234-.112,2.234-1.4,0-1.035-.886-1.3-1.609-1.3H66.773Zm0,3.968h.936c1.122,0,2.133-.237,2.133-1.41,0-1.348-1.186-1.535-2.258-1.535h-.811Z" transform="translate(78.133 22.615)" fill="#333"/>
    <path id="Path_15965" data-name="Path 15965" d="M69.654,20.568a4.061,4.061,0,0,1,2.1-.6c1.822,0,2.559.9,2.559,2.633v2.633a9.771,9.771,0,0,0,.05,1.247h-1.1v-.824h-.024a2.361,2.361,0,0,1-1.971.973c-1.372,0-2.335-.6-2.335-1.984,0-1.6,1.747-2.1,2.958-2.1.463,0,.785,0,1.247.026,0-1.1-.4-1.662-1.572-1.662a2.989,2.989,0,0,0-1.846.649Zm3.482,2.883c-.25,0-.5-.026-.75-.026-.636,0-2.208.1-2.208,1.223a1.12,1.12,0,0,0,1.186,1.035,1.605,1.605,0,0,0,1.771-1.671Z" transform="translate(82.193 23.81)" fill="#333"/>
    <path id="Path_15966" data-name="Path 15966" d="M76.756,21.192a3.405,3.405,0,0,0-1.272-.274A2.18,2.18,0,0,0,73.436,23.3a2.155,2.155,0,0,0,2.122,2.383,2.447,2.447,0,0,0,1.258-.362l.088,1.048a3.581,3.581,0,0,1-1.471.263A3.219,3.219,0,0,1,72.189,23.3a3.143,3.143,0,0,1,3.245-3.332,4.365,4.365,0,0,1,1.423.25Z" transform="translate(86.078 23.81)" fill="#333"/>
    <path id="Path_15967" data-name="Path 15967" d="M75.1,18.671h1.173v5.577l2.559-2.583h1.6l-2.96,2.819L80.8,28.03H79.114l-2.846-3.271V28.03H75.1Z" transform="translate(89.543 22.263)" fill="#333"/>
    <path id="Path_15968" data-name="Path 15968" d="M84.161,18.9c2.644,0,4.192,1.921,4.192,4.5,0,2.646-1.535,4.505-4.192,4.505s-4.192-1.859-4.192-4.505c0-2.583,1.546-4.5,4.192-4.5m0,7.91c2.008,0,2.87-1.673,2.87-3.407,0-1.771-.949-3.418-2.87-3.4-1.923-.013-2.872,1.633-2.872,3.4,0,1.734.864,3.407,2.872,3.407" transform="translate(95.355 22.534)" fill="#333"/>
    <path id="Path_15969" data-name="Path 15969" d="M85.849,22.7h-1.5v-.949h1.5v-.585c0-1.548.4-2.559,2.135-2.559a4.847,4.847,0,0,1,.785.075l-.05.949a1.851,1.851,0,0,0-.561-.075c-1.011,0-1.136.649-1.136,1.508v.686h1.686V22.7H87.022V28.11H85.849Z" transform="translate(100.581 22.18)" fill="#333"/>
    <path id="Path_15970" data-name="Path 15970" d="M88.2,22.7h-1.5v-.949h1.5v-.585c0-1.548.4-2.559,2.133-2.559a4.811,4.811,0,0,1,.787.077l-.05.947a1.832,1.832,0,0,0-.561-.075c-1.011,0-1.136.649-1.136,1.508v.686H91.06V22.7H89.376V28.11H88.2Zm5.49-2.37H92.371V19h1.322Zm-1.247,1.421h1.173V28.11H92.446Z" transform="translate(103.388 22.18)" fill="#333"/>
    <path id="Path_15971" data-name="Path 15971" d="M95.3,21.192a3.405,3.405,0,0,0-1.272-.274A2.18,2.18,0,0,0,91.984,23.3a2.155,2.155,0,0,0,2.122,2.383,2.447,2.447,0,0,0,1.258-.362l.088,1.048a3.581,3.581,0,0,1-1.471.263A3.219,3.219,0,0,1,90.737,23.3a3.143,3.143,0,0,1,3.245-3.332,4.365,4.365,0,0,1,1.423.25Z" transform="translate(108.194 23.81)" fill="#333"/>
    <path id="Path_15972" data-name="Path 15972" d="M98.752,26.22a4.832,4.832,0,0,1-2.008.412c-2.26,0-3.3-1.372-3.3-3.442a2.957,2.957,0,0,1,2.982-3.221c2.122,0,2.808,1.548,2.808,3.593H94.7a2.083,2.083,0,0,0,2.1,2.122,3.76,3.76,0,0,0,1.96-.636Zm-.761-3.53a1.608,1.608,0,0,0-1.585-1.774A1.763,1.763,0,0,0,94.7,22.69Z" transform="translate(111.428 23.81)" fill="#333"/>
  </g>
</svg>
