<svg id="Group_2196" data-name="Group 2196" xmlns="http://www.w3.org/2000/svg" xmlns:xlink="http://www.w3.org/1999/xlink" width="407.216" height="225.577" viewBox="0 0 407.216 225.577">
  <defs>
    <clipPath id="clip-path">
      <rect id="Rectangle_1793" data-name="Rectangle 1793" width="407.216" height="225.577" fill="none"/>
    </clipPath>
  </defs>
  <g id="Group_2195" data-name="Group 2195" clip-path="url(#clip-path)">
    <path id="Path_17256" data-name="Path 17256" d="M24.972,225.464s-50.031-53.718-8.461-111.875C53.395,61.989,96.4,65.516,127.949,86.457c13.437,8.919,52.18,1.1,85.154-51.407,44.968-71.6,200.846-28.176,172.425,81.988-13.753,53.312,41.858,55.25,13.523,108.54Z" transform="translate(0 0)" fill="#dcf3fd"/>
    <path id="Path_17257" data-name="Path 17257" d="M99.37,98.584S74.619,63.352,64.947,67.92,99.37,98.584,99.37,98.584" transform="translate(21.683 23.031)" fill="#69bbee"/>
    <path id="Path_17258" data-name="Path 17258" d="M91.908,90.1s-3.781-26.49-9.741-25.451S91.908,90.1,91.908,90.1" transform="translate(27.57 22.045)" fill="#69bbee"/>
    <path id="Path_17259" data-name="Path 17259" d="M84.31,148.563s2.379-11.787-6.86-13.269c0,0-6.267-.219-9.957,2.146,0,0,10.48,6.049,9.232,7.929s-11.189-7.583-11.189-7.583S54.3,142.706,51.8,146.269c0,0,13.275,2.364,11.6,3.881s-15.6-.3-15.6-.3-8.975,7.229-5.065,12.984,8.37,5.713,9.781,4.713,8.324-9.262,9.2-8.138-2.163,8.1-5.762,10.358c0,0,11.3,3.8,14.7-1.017s1.829-8.571,3.987-11.514,4.632-4.32,4.19-2.3-4.951,6.258-4.972,10.114-.4,6.663,4,3.254,10.254-11.3,8.346-15.514Z" transform="translate(14.242 46.152)" fill="#69bbee"/>
    <path id="Path_17260" data-name="Path 17260" d="M46.187,157.085S72.544,141,82.8,145.378a22.3,22.3,0,0,0,9.57,4.53l1.591,1.368s-7.417-2.313-9.254-1.679c0,0-2.72-11-38.518,7.488" transform="translate(15.756 49.337)" fill="#69bbee"/>
    <path id="Path_17261" data-name="Path 17261" d="M81.1,148.566a19.38,19.38,0,0,1,12.841,8.461l-1,.68s-6.26-6.868-11.323-8.092-.52-1.049-.52-1.049" transform="translate(27.026 50.679)" fill="#69bbee"/>
    <path id="Path_17262" data-name="Path 17262" d="M97.358,132.147s19.139-10.718,10.207-25.264c0,0-7.146-8.932-14.8-11.228,0,0,4.082,21.692,0,22.2s-2.807-24.5-2.807-24.5-20.16-9.7-28.071-8.932c0,0,12.5,21.182,8.421,20.671S52.188,83.15,52.188,83.15,31.517,79.322,28.2,91.571s2.041,18.374,5.1,19.139,22.712.511,22.2,3.063-13.78,6.635-21.181,4.339c0,0,8.166,20.16,18.883,19.139s14.036-7.657,20.671-8.166,11.484,1.275,8.166,3.062-14.546.585-19.905,5.142-9.7,7.363.255,9.4,27.817.766,31.389-6.891Z" transform="translate(9.263 28.173)" fill="#69bbee"/>
    <path id="Path_17263" data-name="Path 17263" d="M34.974,92.139s53.591,17.353,59.716,36.749a40.72,40.72,0,0,0,5.1,18.628v3.828s-5.614-13.014-8.676-14.8c0,0,11.994-16.843-56.143-44.4" transform="translate(11.931 31.432)" fill="#69bbee"/>
    <path id="Path_17264" data-name="Path 17264" d="M83.957,134.036s8.264,12.55,3.553,27.827l-2.126-.571s2.064-16.827-2.26-25.29.833-1.966.833-1.966" transform="translate(27.768 44.912)" fill="#69bbee"/>
    <path id="Path_17265" data-name="Path 17265" d="M101.312,52.676,72.676,200.723a4.88,4.88,0,0,0,4.791,5.807h15.1Z" transform="translate(24.762 17.97)" fill="#3ca0d7"/>
    <path id="Path_17266" data-name="Path 17266" d="M237.991,92.524s-12.88-8.217-6.089-17.975c0,0,5.324-5.925,10.74-7.217,0,0-3.706,14.92-.887,15.438s2.93-16.924,2.93-16.924,14.405-5.937,19.876-5.09c0,0-9.541,14.229-6.68,14.038s13.474-14.538,13.474-14.538,14.527-1.836,16.344,6.813-2.153,12.7-4.313,13.106-15.813-.551-15.56,1.243,9.317,5.163,14.555,3.862c0,0-6.484,13.693-13.9,12.554s-9.455-5.884-14.048-6.5-8.036.429-5.8,1.8,10.091.987,13.635,4.369,6.45,5.507-.553,6.53-19.373-.578-21.551-6.045Z" transform="translate(78.436 20.5)" fill="#69bbee"/>
    <path id="Path_17267" data-name="Path 17267" d="M280.061,67s-37.958,9.927-42.99,23.17a28.357,28.357,0,0,1-4.293,12.75l-.153,2.662s4.423-8.826,6.624-9.946c0,0-7.667-12.191,40.812-28.636" transform="translate(79.358 22.856)" fill="#69bbee"/>
    <path id="Path_17268" data-name="Path 17268" d="M233.818,94.179a24.618,24.618,0,0,0-3.582,19.208l1.5-.312s-.763-11.782,2.582-17.5-.5-1.4-.5-1.4" transform="translate(78.317 31.596)" fill="#69bbee"/>
    <path id="Path_17269" data-name="Path 17269" d="M214.232,72.713s-19.791-4.345-15.793-19.6c0,0,3.923-9.81,10.075-13.892,0,0,2.2,20.269,5.949,19.626s-4.082-22.409-4.082-22.409S225.6,22.466,232.8,21.023c0,0-5.378,22.075-1.906,20.53S241.031,17.3,241.031,17.3s17.247-8.923,23.462,1.017,3.119,16.788.617,18.286-19.94,6.537-18.805,8.656,13.96,2.173,19.886-1.84c0,0-1.816,20.008-11.565,21.979s-14.459-3.007-20.46-1.679-9.809,4.2-6.4,4.9,13.016-3.381,18.974-.79,10.544,3.911,2.293,8.382-24.383,8.131-29.592,2.32Z" transform="translate(67.513 4.645)" fill="#69bbee"/>
    <path id="Path_17270" data-name="Path 17270" d="M253.02,21.529s-42.723,29.7-42.941,48.486a37.6,37.6,0,0,1,.48,17.834l1.026,3.384s1.475-13.009,3.7-15.408c0,0-15.116-11.675,37.73-54.3" transform="translate(71.666 7.344)" fill="#dfeefd"/>
    <path id="Path_17271" data-name="Path 17271" d="M210.677,71.682s-3.944,13.308,4.314,25.55l1.726-1.074s-6.333-14.321-4.778-22.96-1.262-1.515-1.262-1.515" transform="translate(71.549 23.512)" fill="#dfeefd"/>
    <path id="Path_17272" data-name="Path 17272" d="M99.107,52.362,80.126,197.721a8.052,8.052,0,0,0,7.984,9.094h27.845l-15.7-154.977Z" transform="translate(27.311 17.684)" fill="#78c8ea"/>
    <path id="Path_17273" data-name="Path 17273" d="M96.426,52.229,87.93,196.66a9.464,9.464,0,0,0,9.448,10.021h41.528Z" transform="translate(29.991 17.817)" fill="#69bdee"/>
    <path id="Path_17274" data-name="Path 17274" d="M94.024,53.108l4.131,143.253a9.466,9.466,0,0,0,9.45,10.021h41.527Z" transform="translate(32.075 18.117)" fill="#4ea7d8"/>
    <path id="Path_17275" data-name="Path 17275" d="M292.426,206.842H128.684a8.465,8.465,0,0,1-8.328-6.943L95.44,63.642a10.073,10.073,0,0,1,9.91-11.885H267.163a8.466,8.466,0,0,1,8.328,6.943l25.263,138.154a8.466,8.466,0,0,1-8.328,9.989" transform="translate(32.501 17.656)" fill="#d7f3ff"/>
    <path id="Path_17276" data-name="Path 17276" d="M99.113,81.339H280.178l-4.643-25.726a4.688,4.688,0,0,0-4.614-3.856H95.541a1.535,1.535,0,0,0-1.51,1.812Z" transform="translate(32.069 17.656)" fill="#69bbee"/>
    <path id="Path_17277" data-name="Path 17277" d="M102.967,45.985a7.856,7.856,0,0,0-7.85,7.848h1.507a6.339,6.339,0,1,1,6.7,6.333v1.507a7.75,7.75,0,0,0,2.006-.355,7.849,7.849,0,0,0-2.367-15.333" transform="translate(32.448 15.687)" fill="#4aafea"/>
    <path id="Path_17278" data-name="Path 17278" d="M103.646,57.512a1.736,1.736,0,0,1-.06.453,1.708,1.708,0,1,1,.06-.453" transform="translate(34.198 19.04)" fill="#4aafea"/>
    <path id="Path_17279" data-name="Path 17279" d="M123.953,45.985a7.856,7.856,0,0,0-7.85,7.848h1.506a6.34,6.34,0,1,1,6.7,6.333v1.507a7.75,7.75,0,0,0,2.006-.355,7.849,7.849,0,0,0-2.366-15.333" transform="translate(39.607 15.687)" fill="#4aafea"/>
    <path id="Path_17280" data-name="Path 17280" d="M124.63,57.512a1.736,1.736,0,0,1-.06.453,1.712,1.712,0,1,1,.06-.453" transform="translate(41.356 19.04)" fill="#4aafea"/>
    <path id="Path_17281" data-name="Path 17281" d="M144.939,45.985a7.856,7.856,0,0,0-7.85,7.848H138.6a6.34,6.34,0,1,1,6.7,6.333v1.507a7.77,7.77,0,0,0,2.006-.355,7.849,7.849,0,0,0-2.366-15.333" transform="translate(46.767 15.687)" fill="#4aafea"/>
    <path id="Path_17282" data-name="Path 17282" d="M145.616,57.512a1.736,1.736,0,0,1-.06.453,1.712,1.712,0,1,1,.06-.453" transform="translate(48.516 19.04)" fill="#4aafea"/>
    <path id="Path_17283" data-name="Path 17283" d="M165.922,45.985a7.855,7.855,0,0,0-7.848,7.848h1.506a6.34,6.34,0,1,1,6.7,6.333v1.507a7.76,7.76,0,0,0,2.006-.355,7.849,7.849,0,0,0-2.367-15.333" transform="translate(53.925 15.687)" fill="#4aafea"/>
    <path id="Path_17284" data-name="Path 17284" d="M166.6,57.512a1.8,1.8,0,0,1-.06.453,1.708,1.708,0,1,1,.06-.453" transform="translate(55.675 19.04)" fill="#4aafea"/>
    <path id="Path_17285" data-name="Path 17285" d="M186.909,45.985a7.856,7.856,0,0,0-7.85,7.848h1.506a6.339,6.339,0,1,1,6.7,6.333v1.507a7.75,7.75,0,0,0,2.006-.355,7.849,7.849,0,0,0-2.366-15.333" transform="translate(61.084 15.687)" fill="#4aafea"/>
    <path id="Path_17286" data-name="Path 17286" d="M187.586,57.512a1.736,1.736,0,0,1-.06.453,1.708,1.708,0,1,1,.06-.453" transform="translate(62.833 19.04)" fill="#4aafea"/>
    <path id="Path_17287" data-name="Path 17287" d="M207.895,45.985a7.856,7.856,0,0,0-7.85,7.848h1.506a6.343,6.343,0,1,1,8.416,5.994,6.282,6.282,0,0,1-1.713.339v1.507a7.75,7.75,0,0,0,2.006-.355,7.849,7.849,0,0,0-2.366-15.333" transform="translate(68.243 15.687)" fill="#4aafea"/>
    <path id="Path_17288" data-name="Path 17288" d="M208.572,57.512a1.737,1.737,0,0,1-.06.453,1.7,1.7,0,1,1-.294-1.491,1.683,1.683,0,0,1,.354,1.038" transform="translate(69.992 19.04)" fill="#4aafea"/>
    <path id="Path_17289" data-name="Path 17289" d="M228.878,45.985a7.855,7.855,0,0,0-7.848,7.848h1.506a6.34,6.34,0,1,1,6.7,6.333v1.507a7.75,7.75,0,0,0,2.006-.355,7.849,7.849,0,0,0-2.367-15.333" transform="translate(75.402 15.687)" fill="#4aafea"/>
    <path id="Path_17290" data-name="Path 17290" d="M229.558,57.512a1.794,1.794,0,0,1-.06.453,1.708,1.708,0,1,1,.06-.453" transform="translate(77.152 19.04)" fill="#4aafea"/>
    <path id="Path_17291" data-name="Path 17291" d="M179.257,113.157H170.1a2.452,2.452,0,0,1-2.295-1.923l-1.766-9.153a1.547,1.547,0,0,1,1.553-1.925h9.153a2.454,2.454,0,0,1,2.295,1.925l1.766,9.153a1.546,1.546,0,0,1-1.553,1.923" transform="translate(56.632 34.167)" fill="#b0e0fb"/>
    <path id="Path_17292" data-name="Path 17292" d="M196.479,113.157h-9.153a2.452,2.452,0,0,1-2.295-1.923l-1.765-9.153a1.545,1.545,0,0,1,1.552-1.925h9.153a2.454,2.454,0,0,1,2.295,1.925l1.766,9.153a1.546,1.546,0,0,1-1.553,1.923" transform="translate(62.507 34.167)" fill="#b0e0fb"/>
    <path id="Path_17293" data-name="Path 17293" d="M213.7,113.157h-9.153a2.452,2.452,0,0,1-2.295-1.923l-1.766-9.153a1.547,1.547,0,0,1,1.553-1.925h9.153a2.454,2.454,0,0,1,2.295,1.925l1.766,9.153a1.546,1.546,0,0,1-1.553,1.923" transform="translate(68.382 34.167)" fill="#78beea"/>
    <path id="Path_17294" data-name="Path 17294" d="M127.592,113.157h-9.153a2.452,2.452,0,0,1-2.295-1.923l-1.765-9.153a1.545,1.545,0,0,1,1.552-1.925h9.153a2.454,2.454,0,0,1,2.295,1.925l1.766,9.153a1.546,1.546,0,0,1-1.553,1.923" transform="translate(39.007 34.167)" fill="#b0e0fb"/>
    <path id="Path_17295" data-name="Path 17295" d="M118.19,90.781h-3.934a1.053,1.053,0,0,1-.986-.826l-.759-3.934a.666.666,0,0,1,.668-.827h3.932a1.056,1.056,0,0,1,.987.827l.759,3.934a.665.665,0,0,1-.668.826" transform="translate(38.377 29.063)" fill="#69bbee"/>
    <path id="Path_17296" data-name="Path 17296" d="M144.814,113.157h-9.153a2.452,2.452,0,0,1-2.295-1.923l-1.765-9.153a1.545,1.545,0,0,1,1.552-1.925h9.153a2.454,2.454,0,0,1,2.295,1.925l1.766,9.153a1.546,1.546,0,0,1-1.553,1.923" transform="translate(44.882 34.167)" fill="#b0e0fb"/>
    <path id="Path_17297" data-name="Path 17297" d="M162.036,113.157h-9.153a2.452,2.452,0,0,1-2.295-1.923l-1.766-9.153a1.547,1.547,0,0,1,1.553-1.925h9.153a2.454,2.454,0,0,1,2.295,1.925l1.766,9.153a1.546,1.546,0,0,1-1.553,1.923" transform="translate(50.757 34.167)" fill="#b0e0fb"/>
    <path id="Path_17298" data-name="Path 17298" d="M230.923,113.157H221.77a2.452,2.452,0,0,1-2.295-1.923l-1.765-9.153a1.545,1.545,0,0,1,1.552-1.925h9.153a2.454,2.454,0,0,1,2.295,1.925l1.766,9.153a1.546,1.546,0,0,1-1.553,1.923" transform="translate(74.257 34.167)" fill="#78beea"/>
    <path id="Path_17299" data-name="Path 17299" d="M176.4,98.334h-9.153a2.454,2.454,0,0,1-2.295-1.923l-1.765-9.153a1.545,1.545,0,0,1,1.552-1.925h9.153a2.454,2.454,0,0,1,2.295,1.925l1.766,9.153a1.546,1.546,0,0,1-1.553,1.923" transform="translate(55.657 29.111)" fill="#b0e0fb"/>
    <path id="Path_17300" data-name="Path 17300" d="M193.62,98.334h-9.153a2.454,2.454,0,0,1-2.295-1.923l-1.765-9.153a1.545,1.545,0,0,1,1.552-1.925h9.153a2.454,2.454,0,0,1,2.295,1.925l1.766,9.153a1.546,1.546,0,0,1-1.553,1.923" transform="translate(61.532 29.111)" fill="#b0e0fb"/>
    <path id="Path_17301" data-name="Path 17301" d="M210.842,98.334h-9.153a2.454,2.454,0,0,1-2.295-1.923l-1.765-9.153a1.545,1.545,0,0,1,1.552-1.925h9.153a2.454,2.454,0,0,1,2.295,1.925l1.766,9.153a1.546,1.546,0,0,1-1.553,1.923" transform="translate(67.407 29.111)" fill="#78beea"/>
    <path id="Path_17302" data-name="Path 17302" d="M228.063,98.334H218.91a2.454,2.454,0,0,1-2.295-1.923l-1.766-9.153a1.547,1.547,0,0,1,1.553-1.925h9.153a2.454,2.454,0,0,1,2.295,1.925l1.766,9.153a1.546,1.546,0,0,1-1.553,1.923" transform="translate(73.282 29.111)" fill="#78beea"/>
    <path id="Path_17303" data-name="Path 17303" d="M182.288,128.868h-9.153a2.454,2.454,0,0,1-2.295-1.923l-1.765-9.153a1.545,1.545,0,0,1,1.552-1.925h9.153a2.454,2.454,0,0,1,2.295,1.925l1.766,9.153a1.546,1.546,0,0,1-1.553,1.923" transform="translate(57.666 39.527)" fill="#b0e0fb"/>
    <path id="Path_17304" data-name="Path 17304" d="M199.51,128.868h-9.153a2.454,2.454,0,0,1-2.295-1.923l-1.766-9.153a1.547,1.547,0,0,1,1.553-1.925H197a2.454,2.454,0,0,1,2.295,1.925l1.766,9.153a1.546,1.546,0,0,1-1.553,1.923" transform="translate(63.541 39.527)" fill="#b0e0fb"/>
    <path id="Path_17305" data-name="Path 17305" d="M216.731,128.868h-9.153a2.454,2.454,0,0,1-2.295-1.923l-1.765-9.153a1.545,1.545,0,0,1,1.552-1.925h9.153a2.454,2.454,0,0,1,2.295,1.925l1.766,9.153a1.546,1.546,0,0,1-1.553,1.923" transform="translate(69.416 39.527)" fill="#78beea"/>
    <path id="Path_17306" data-name="Path 17306" d="M130.623,128.868H121.47a2.454,2.454,0,0,1-2.295-1.923l-1.766-9.153a1.547,1.547,0,0,1,1.553-1.925h9.153a2.454,2.454,0,0,1,2.295,1.925l1.766,9.153a1.546,1.546,0,0,1-1.553,1.923" transform="translate(40.041 39.527)" fill="#b0e0fb"/>
    <path id="Path_17307" data-name="Path 17307" d="M147.844,128.868h-9.153a2.454,2.454,0,0,1-2.295-1.923l-1.765-9.153a1.545,1.545,0,0,1,1.552-1.925h9.153a2.454,2.454,0,0,1,2.295,1.925l1.766,9.153a1.546,1.546,0,0,1-1.553,1.923" transform="translate(45.916 39.527)" fill="#b0e0fb"/>
    <path id="Path_17308" data-name="Path 17308" d="M165.066,128.868h-9.153a2.454,2.454,0,0,1-2.295-1.923l-1.766-9.153a1.547,1.547,0,0,1,1.553-1.925h9.153a2.454,2.454,0,0,1,2.295,1.925l1.766,9.153a1.546,1.546,0,0,1-1.553,1.923" transform="translate(51.791 39.527)" fill="#b0e0fb"/>
    <path id="Path_17309" data-name="Path 17309" d="M233.953,128.868H224.8a2.454,2.454,0,0,1-2.295-1.923l-1.766-9.153a1.547,1.547,0,0,1,1.553-1.925h9.153a2.454,2.454,0,0,1,2.295,1.925l1.766,9.153a1.546,1.546,0,0,1-1.553,1.923" transform="translate(75.291 39.527)" fill="#78beea"/>
    <path id="Path_17310" data-name="Path 17310" d="M185.319,144.578h-9.155a2.452,2.452,0,0,1-2.295-1.923l-1.765-9.153a1.545,1.545,0,0,1,1.552-1.925h9.153A2.454,2.454,0,0,1,185.1,133.5l1.766,9.153a1.545,1.545,0,0,1-1.552,1.923" transform="translate(58.7 44.886)" fill="#b0e0fb"/>
    <path id="Path_17311" data-name="Path 17311" d="M202.54,144.578h-9.153a2.452,2.452,0,0,1-2.295-1.923l-1.765-9.153a1.545,1.545,0,0,1,1.552-1.925h9.153a2.454,2.454,0,0,1,2.295,1.925l1.766,9.153a1.546,1.546,0,0,1-1.553,1.923" transform="translate(64.575 44.886)" fill="#b0e0fb"/>
    <path id="Path_17312" data-name="Path 17312" d="M219.762,144.578h-9.153a2.452,2.452,0,0,1-2.295-1.923l-1.765-9.153a1.545,1.545,0,0,1,1.552-1.925h9.153a2.454,2.454,0,0,1,2.295,1.925l1.766,9.153a1.546,1.546,0,0,1-1.553,1.923" transform="translate(70.45 44.886)" fill="#78beea"/>
    <path id="Path_17313" data-name="Path 17313" d="M133.653,144.578H124.5a2.452,2.452,0,0,1-2.295-1.923l-1.766-9.153a1.547,1.547,0,0,1,1.553-1.925h9.153a2.454,2.454,0,0,1,2.295,1.925l1.766,9.153a1.546,1.546,0,0,1-1.553,1.923" transform="translate(41.075 44.886)" fill="#b0e0fb"/>
    <path id="Path_17314" data-name="Path 17314" d="M150.875,144.578h-9.153a2.452,2.452,0,0,1-2.295-1.923l-1.765-9.153a1.545,1.545,0,0,1,1.552-1.925h9.153a2.454,2.454,0,0,1,2.295,1.925l1.766,9.153a1.546,1.546,0,0,1-1.553,1.923" transform="translate(46.95 44.886)" fill="#69bbee"/>
    <path id="Path_17315" data-name="Path 17315" d="M168.1,144.578h-9.153a2.452,2.452,0,0,1-2.295-1.923l-1.765-9.153a1.545,1.545,0,0,1,1.552-1.925h9.153a2.454,2.454,0,0,1,2.295,1.925l1.766,9.153a1.546,1.546,0,0,1-1.553,1.923" transform="translate(52.825 44.886)" fill="#b0e0fb"/>
    <path id="Path_17316" data-name="Path 17316" d="M236.984,144.578h-9.153a2.452,2.452,0,0,1-2.295-1.923L223.77,133.5a1.547,1.547,0,0,1,1.553-1.925h9.153a2.454,2.454,0,0,1,2.295,1.925l1.766,9.153a1.546,1.546,0,0,1-1.553,1.923" transform="translate(76.325 44.886)" fill="#78beea"/>
    <path id="Path_17317" data-name="Path 17317" d="M188.178,159.4h-9.153a2.454,2.454,0,0,1-2.295-1.923l-1.766-9.153a1.547,1.547,0,0,1,1.553-1.925h9.153a2.454,2.454,0,0,1,2.295,1.925l1.766,9.153a1.546,1.546,0,0,1-1.553,1.923" transform="translate(59.675 49.943)" fill="#b0e0fb"/>
    <path id="Path_17318" data-name="Path 17318" d="M205.4,159.4h-9.153a2.454,2.454,0,0,1-2.295-1.923l-1.765-9.153a1.545,1.545,0,0,1,1.552-1.925h9.153a2.454,2.454,0,0,1,2.295,1.925l1.766,9.153A1.546,1.546,0,0,1,205.4,159.4" transform="translate(65.551 49.943)" fill="#b0e0fb"/>
    <path id="Path_17319" data-name="Path 17319" d="M222.621,159.4h-9.153a2.454,2.454,0,0,1-2.295-1.923l-1.766-9.153a1.547,1.547,0,0,1,1.553-1.925h9.153a2.454,2.454,0,0,1,2.295,1.925l1.766,9.153a1.546,1.546,0,0,1-1.553,1.923" transform="translate(71.425 49.943)" fill="#78beea"/>
    <path id="Path_17320" data-name="Path 17320" d="M136.512,159.4h-9.153a2.454,2.454,0,0,1-2.295-1.923l-1.765-9.153a1.545,1.545,0,0,1,1.552-1.925H134a2.454,2.454,0,0,1,2.295,1.925l1.766,9.153a1.546,1.546,0,0,1-1.553,1.923" transform="translate(42.05 49.943)" fill="#b0e0fb"/>
    <path id="Path_17321" data-name="Path 17321" d="M153.734,159.4h-9.153a2.454,2.454,0,0,1-2.295-1.923l-1.766-9.153a1.547,1.547,0,0,1,1.553-1.925h9.153a2.454,2.454,0,0,1,2.295,1.925l1.766,9.153a1.546,1.546,0,0,1-1.553,1.923" transform="translate(47.925 49.943)" fill="#b0e0fb"/>
    <path id="Path_17322" data-name="Path 17322" d="M170.956,159.4H161.8a2.454,2.454,0,0,1-2.295-1.923l-1.766-9.153A1.547,1.547,0,0,1,159.3,146.4h9.153a2.454,2.454,0,0,1,2.295,1.925l1.766,9.153a1.546,1.546,0,0,1-1.553,1.923" transform="translate(53.8 49.943)" fill="#b0e0fb"/>
    <path id="Path_17323" data-name="Path 17323" d="M143.76,87H119.511a.65.65,0,0,1,0-1.3H143.76a.65.65,0,0,1,0,1.3" transform="translate(40.549 29.235)" fill="#b0e0fb"/>
    <path id="Path_17324" data-name="Path 17324" d="M144.31,89.188H120.061a.65.65,0,0,1,0-1.3H144.31a.65.65,0,0,1,0,1.3" transform="translate(40.736 29.982)" fill="#b0e0fb"/>
    <path id="Path_17325" data-name="Path 17325" d="M120.468,70.991h-8.322a1.239,1.239,0,1,1,0-2.478h8.322a1.239,1.239,0,0,1,0,2.478" transform="translate(37.835 23.373)" fill="#fff"/>
    <path id="Path_17326" data-name="Path 17326" d="M137.493,70.991h-8.322a1.239,1.239,0,1,1,0-2.478h8.322a1.239,1.239,0,0,1,0,2.478" transform="translate(43.643 23.373)" fill="#fff"/>
    <path id="Path_17327" data-name="Path 17327" d="M154.518,70.991H146.2a1.239,1.239,0,0,1,0-2.478h8.322a1.239,1.239,0,0,1,0,2.478" transform="translate(49.451 23.373)" fill="#fff"/>
    <path id="Path_17328" data-name="Path 17328" d="M171.543,70.991h-8.322a1.239,1.239,0,1,1,0-2.478h8.322a1.239,1.239,0,1,1,0,2.478" transform="translate(55.259 23.373)" fill="#fff"/>
    <path id="Path_17329" data-name="Path 17329" d="M188.568,70.991h-8.322a1.239,1.239,0,0,1,0-2.478h8.322a1.239,1.239,0,0,1,0,2.478" transform="translate(61.067 23.373)" fill="#fff"/>
    <path id="Path_17330" data-name="Path 17330" d="M205.593,70.991h-8.322a1.239,1.239,0,0,1,0-2.478h8.322a1.239,1.239,0,1,1,0,2.478" transform="translate(66.874 23.373)" fill="#fff"/>
    <path id="Path_17331" data-name="Path 17331" d="M222.618,70.991H214.3a1.239,1.239,0,1,1,0-2.478h8.322a1.239,1.239,0,0,1,0,2.478" transform="translate(72.682 23.373)" fill="#fff"/>
    <path id="Path_17332" data-name="Path 17332" d="M182.088,99.278a4.332,4.332,0,0,1-3.9-1.715c-1.4-2.17-.319-5.213,3.208-9.043a44.952,44.952,0,0,1,5.614-5.036.266.266,0,1,1,.314.429c-.117.086-11.712,8.672-8.691,13.363.958,1.486,3.008,1.584,4.561,1.4a24.924,24.924,0,0,0,10.02-4.139c3.52-2.338,6-4.973,6.8-7.23.527-1.481.363-2.529-.485-3.117-1.1-.759-3.389-.759-6.13,0a19.323,19.323,0,0,0-6.9,3.411.266.266,0,0,1-.343-.406,19.893,19.893,0,0,1,7.1-3.516c2.934-.811,5.33-.783,6.573.076.736.51,1.452,1.572.684,3.732-.842,2.362-3.4,5.094-7.011,7.494a25.477,25.477,0,0,1-10.253,4.225,10.16,10.16,0,0,1-1.163.07" transform="translate(60.583 28.346)" fill="#c65447"/>
    <path id="Path_17333" data-name="Path 17333" d="M218.521,85.721l-.944-1.782s.468-3.176-3.511-5.184a1.94,1.94,0,0,0-2.275.593c-.756,1.093,1.44.9,1.324,2.764a3.437,3.437,0,0,0,2,3.575l1.021,1.182Z" transform="translate(72.196 26.816)" fill="#ffb27d"/>
    <path id="Path_17334" data-name="Path 17334" d="M255.346,80.89a31.521,31.521,0,0,1-22.221,22.252c-5.87,1.71-19.205-17.616-19.205-17.616s.468-1.781,3.405-1.372c0,0,12.985,8.6,14.62,9.53,1.45.829,10.989-10.651,15.339-12.5a11.1,11.1,0,0,1,8.063-.291" transform="translate(72.977 27.385)" fill="#234662"/>
    <rect id="Rectangle_1792" data-name="Rectangle 1792" width="20.816" height="4.138" transform="translate(273.338 107.976) rotate(-10.494)" fill="#c65447"/>
    <path id="Path_17335" data-name="Path 17335" d="M200.543,83.426l5.135,1.153-.754-4.069Z" transform="translate(68.413 27.465)" fill="#ffb27d"/>
    <path id="Path_17336" data-name="Path 17336" d="M221.7,78.648l.237,1.286a1.458,1.458,0,0,1-1.168,1.7l-.947.176-.754-4.069,1.03-.19a1.375,1.375,0,0,1,1.6,1.1" transform="translate(74.734 26.447)" fill="#ffb27d"/>
    <path id="Path_17337" data-name="Path 17337" d="M263.7,159.6s2.332,2.128,1.878,3.641-2.56,2.521-2.845,4.371-1.423,2.857-2.448,2.857H255.4s-.754-1.3,1.066-1.693,2.508-2.566,2.394-4.583a35.527,35.527,0,0,1,.17-4.7l3.869-.9Z" transform="translate(87.075 54.103)" fill="#234662"/>
    <path id="Path_17338" data-name="Path 17338" d="M243.7,163.931s.418,4.846-.6,5.35l-13.107-.028s0-1.511,2.1-1.848,5.8-1.569,6.429-4.314,5.178.841,5.178.841" transform="translate(78.457 55.284)" fill="#234662"/>
    <path id="Path_17339" data-name="Path 17339" d="M231.957,112.721s.691,8.492,1.5,18.7c1.105,13.867,2.433,30.9,2.564,34.128.227,5.6,1.139,14.567,1.139,14.567s2.161,2.13,6.486,1.231a144.624,144.624,0,0,0,4.956-26.333c.017-.221.035-.445.051-.669,1.025-13.782,2.617-42.8,2.617-42.8Z" transform="translate(79.13 38.053)" fill="#69bbee"/>
    <path id="Path_17340" data-name="Path 17340" d="M231.957,112.721s.691,8.492,1.5,18.7L248.6,155.017c.017-.221.035-.445.051-.669,1.025-13.782,2.617-42.8,2.617-42.8Z" transform="translate(79.13 38.053)" fill="#3ca0d7"/>
    <path id="Path_17341" data-name="Path 17341" d="M234.311,114.585s12.461,30.758,20.654,45.213,10.753,18.488,10.753,18.488,4.694-1.849,5.122-3.11c0,0-3.134-27.9-8.621-34.707-3.1-3.842-6.742-15.378-6.912-19.412s-1.11-12.018-1.11-12.018Z" transform="translate(79.933 37.197)" fill="#69bbee"/>
    <path id="Path_17342" data-name="Path 17342" d="M249.917,80.43s-8.43,4.068-13.292,2.559a11.45,11.45,0,0,1,3.291-2.633c-.169-.975-.3-1.823-.374-2.54a23.5,23.5,0,0,1-.205-2.6l3.252-2.559,3.085-2.448a12.43,12.43,0,0,0,4.243,10.215" transform="translate(80.722 23.953)" fill="#ffb27d"/>
    <path id="Path_17343" data-name="Path 17343" d="M231.6,125.41a.761.761,0,0,0,.506.2c1.832-.036,7.159.975,11.664.515a34.435,34.435,0,0,0,10.787-3.054c.485-.221,1.591-.81,1.57-1.325-.02-.589-.075-1.418-.149-2.486-.152-2.1-.363-5.088-.432-8.629-.05-2.625-.021-5.554.169-8.656.011-.208.021-.418.031-.629.054-1.136.08-2.283.08-3.4a59.052,59.052,0,0,0-.764-10.123c-.917-5.339-2.638-9.517-5.178-11.377-.338-.259-2.433.754-4.375,1.694a8.085,8.085,0,0,1-5.234.626L238.6,80.239a16.618,16.618,0,0,0-5.273,8.283c-.821,3.276-1.308,9.2-1.57,15.352-.129,2.8-.224,5.594-.26,8.263v.093c-.02.275-.02.554-.02.83-.093,6.828,0,12.258.131,12.351" transform="translate(78.952 26.065)" fill="#2b5c8b"/>
    <path id="Path_17344" data-name="Path 17344" d="M245.039,72.224a11.174,11.174,0,0,1-6.188,4.97,23.536,23.536,0,0,1-.205-2.6L241.9,72.04Z" transform="translate(81.412 24.576)" fill="#ed985f"/>
    <path id="Path_17345" data-name="Path 17345" d="M237.939,77.2s8.043,1.316,8.8-3.629,2.3-8.1-2.8-9.153-6.392.689-7.052,2.28-1.017,10.033,1.055,10.5" transform="translate(80.635 21.865)" fill="#ffb27d"/>
    <path id="Path_17346" data-name="Path 17346" d="M250.322,64.586c.074-.083.241-.152.616-.172a1.511,1.511,0,0,0-.7-.2,1.886,1.886,0,0,0-1.251-1.668,1.126,1.126,0,0,1,.545.811c-1.039-1.066-3.264-1.843-9.43-1.357-8.123.641-5.445,5.843-4.394,6.463s3.7-1.08,5.658-.924,2.332,2.987,3,3.376.4-.3,1.3-.705.984,1.084.724,2.052.976,2.248.976,2.248l1.249-1.345c1.249-1.345,2.426-7.041,1.859-8.256-.051-.107-.1-.216-.152-.325" transform="translate(79.974 21.101)" fill="#2c3a64"/>
    <path id="Path_17347" data-name="Path 17347" d="M216.684,83.345s.276-1.093-.481-1.584-1.455-1.828-1.776-1.647c-.663.374.362,1.541.174,2.995-.064.51,1.121,1.844,2.083.236" transform="translate(73.072 27.324)" fill="#ffb27d"/>
    <path id="Path_17348" data-name="Path 17348" d="M250.669,106.134c-.051-2.625-.021-5.554.169-8.656.011-.208.021-.418.031-.628-.764-3.789-1.922-7.148-3.624-7.258,0,0-5.071,7.969,3.424,16.542" transform="translate(83.833 30.563)" fill="#234662"/>
    <path id="Path_17349" data-name="Path 17349" d="M255.734,112.388s-.422,4.109-.887,4.887a17.485,17.485,0,0,1-3.279,3.748c-.842.488.512-3.272.342-4s-.693,1.336-1.064,1.384-.275-1.812-.288-2.489,1.8-2.348,2.445-3.79,2.731.264,2.731.264" transform="translate(85.475 38.053)" fill="#ffb27d"/>
    <path id="Path_17350" data-name="Path 17350" d="M246.17,76.406s5.088,2.41,7.529,6.114c3.785,5.747,8.172,26.689,8.252,28.628s-3.2,15.631-3.2,15.631-3.33-.219-4.188-1.9c0,0,.665-14.067.243-14.971s-13.881-18.87-12.368-22.7,3.734-10.8,3.734-10.8" transform="translate(82.664 26.065)" fill="#2b5c8b"/>
    <path id="Path_17351" data-name="Path 17351" d="M203.174,81.379l.268,2.4-2.9-.652Z" transform="translate(68.413 27.762)" fill="#c65447"/>
    <path id="Path_17352" data-name="Path 17352" d="M288.4,171.535H273.737c-.786-.667.545-2.181,1.933-2.283a8.548,8.548,0,0,1,2.24.266c.2-2.681,1.353-14.731,5.7-14.247,4.883.543,0,5.307-1.381,8.127a67.335,67.335,0,0,0-2.594,6.5c.4.086.807.169,1.226.247.648-1.988,3.056-8.673,6.12-8.283,3.6.456,2.15,3.136-.4,4.728-1.871,1.169-4.167,2.832-5.257,3.636a15.51,15.51,0,0,0,2.867.231,6.177,6.177,0,0,1,4.214,1.078" transform="translate(93.303 52.964)" fill="#4c85b3"/>
    <path id="Path_17353" data-name="Path 17353" d="M36.954,170.529c-.778-1.22-3.117-4.39-6.231-3.97-3.394.456,3.748,2.694,5.935,3.979a3.607,3.607,0,0,1-1.21-.142c-1.462-.52-3.966.479-4.766.83H44.6a2.207,2.207,0,0,0-1-1.274,2.5,2.5,0,0,0-1.281-.114c.827-.975,1.4-4.092-.9-3.29-1.683.586-1.679,2.491-1.513,3.617-.358.056-.722.113-1.081.164-.692-3.531-3.144-13.882-8.111-14.158-5.036-.279,4.27,10.736,7.37,14.258-.4.048-.779.084-1.133.1" transform="translate(9.979 53.274)" fill="#69bbee"/>
  </g>
</svg>
