<svg id="Group_2282" data-name="Group 2282" xmlns="http://www.w3.org/2000/svg" xmlns:xlink="http://www.w3.org/1999/xlink" width="418.272" height="282.026" viewBox="0 0 418.272 282.026">
  <defs>
    <clipPath id="clip-path">
      <rect id="Rectangle_1880" data-name="Rectangle 1880" width="418.272" height="282.026" fill="none"/>
    </clipPath>
    <clipPath id="clip-path-3">
      <rect id="Rectangle_1857" data-name="Rectangle 1857" width="32.736" height="24.869" transform="translate(208.743 89.403)" fill="none"/>
    </clipPath>
    <clipPath id="clip-path-4">
      <rect id="Rectangle_1858" data-name="Rectangle 1858" width="32.736" height="24.869" transform="translate(208.743 100.593)" fill="none"/>
    </clipPath>
    <clipPath id="clip-path-5">
      <rect id="Rectangle_1859" data-name="Rectangle 1859" width="32.736" height="24.869" transform="translate(208.743 111.783)" fill="none"/>
    </clipPath>
    <clipPath id="clip-path-6">
      <rect id="Rectangle_1860" data-name="Rectangle 1860" width="32.736" height="24.87" transform="translate(208.743 122.972)" fill="none"/>
    </clipPath>
    <clipPath id="clip-path-7">
      <rect id="Rectangle_1861" data-name="Rectangle 1861" width="32.736" height="24.869" transform="translate(208.743 134.162)" fill="none"/>
    </clipPath>
    <clipPath id="clip-path-8">
      <rect id="Rectangle_1862" data-name="Rectangle 1862" width="32.736" height="24.869" transform="translate(208.743 145.352)" fill="none"/>
    </clipPath>
    <clipPath id="clip-path-9">
      <rect id="Rectangle_1863" data-name="Rectangle 1863" width="32.736" height="24.869" transform="translate(208.743 156.542)" fill="none"/>
    </clipPath>
    <clipPath id="clip-path-10">
      <rect id="Rectangle_1864" data-name="Rectangle 1864" width="32.736" height="24.87" transform="translate(255.951 116.46)" fill="none"/>
    </clipPath>
    <clipPath id="clip-path-11">
      <rect id="Rectangle_1865" data-name="Rectangle 1865" width="32.736" height="24.869" transform="translate(255.951 127.65)" fill="none"/>
    </clipPath>
    <clipPath id="clip-path-12">
      <rect id="Rectangle_1866" data-name="Rectangle 1866" width="32.736" height="24.869" transform="translate(255.951 138.84)" fill="none"/>
    </clipPath>
    <clipPath id="clip-path-13">
      <rect id="Rectangle_1867" data-name="Rectangle 1867" width="32.736" height="24.869" transform="translate(255.951 150.03)" fill="none"/>
    </clipPath>
    <clipPath id="clip-path-14">
      <rect id="Rectangle_1868" data-name="Rectangle 1868" width="32.736" height="24.869" transform="translate(255.951 161.219)" fill="none"/>
    </clipPath>
    <clipPath id="clip-path-15">
      <rect id="Rectangle_1869" data-name="Rectangle 1869" width="32.736" height="24.869" transform="translate(255.951 172.409)" fill="none"/>
    </clipPath>
    <clipPath id="clip-path-16">
      <rect id="Rectangle_1870" data-name="Rectangle 1870" width="32.736" height="24.869" transform="translate(255.951 183.599)" fill="none"/>
    </clipPath>
    <clipPath id="clip-path-17">
      <path id="Path_18130" data-name="Path 18130" d="M111.669,137.311l.227,2.831,5.728-3.329-3.21-1.449Z" fill="none"/>
    </clipPath>
    <radialGradient id="radial-gradient" cx="-6.323" cy="0.107" r="7.4" gradientTransform="matrix(0.802, 0, 0, -1, -3.706, 61.391)" gradientUnits="objectBoundingBox">
      <stop offset="0" stop-color="#00e9ef"/>
      <stop offset="0.082" stop-color="#01dfe9"/>
      <stop offset="0.219" stop-color="#05c5d9"/>
      <stop offset="0.392" stop-color="#0b9cc0"/>
      <stop offset="0.446" stop-color="#0e8eb8"/>
      <stop offset="1" stop-color="#0a2c64"/>
    </radialGradient>
  </defs>
  <g id="Group_2281" data-name="Group 2281" clip-path="url(#clip-path)">
    <g id="Group_2276" data-name="Group 2276">
      <g id="Group_2275" data-name="Group 2275" clip-path="url(#clip-path)">
        <path id="Path_17817" data-name="Path 17817" d="M25.65,260.377S-25.739,205.2,16.959,145.465c37.885-53,82.056-49.378,114.463-27.87,13.8,9.161,53.6,1.129,87.467-52.8,46.189-73.548,206.3-28.941,177.106,84.214-14.128,54.759,42.995,56.749,13.889,111.486Z" fill="#dcf3fd"/>
        <path id="Path_17818" data-name="Path 17818" d="M267,93.253a.7.7,0,0,1-.7-.7V63.87a.7.7,0,0,1,1.394,0V92.556a.7.7,0,0,1-.7.7" fill="#4ca0ce"/>
        <rect id="Rectangle_1853" data-name="Rectangle 1853" width="4.984" height="10.754" transform="translate(264.51 62.066)" fill="#4ca0ce"/>
        <path id="Path_17819" data-name="Path 17819" d="M268.764,73.837a3.894,3.894,0,0,1-3.524,0,1.074,1.074,0,0,1,0-2.035,3.9,3.9,0,0,1,3.524,0,1.074,1.074,0,0,1,0,2.035" fill="#4ca0ce"/>
        <rect id="Rectangle_1854" data-name="Rectangle 1854" width="8.076" height="16.867" transform="translate(262.964 47.078)" fill="#4ca0ce"/>
        <path id="Path_17820" data-name="Path 17820" d="M264.51,63.835v3.639a6.444,6.444,0,0,0,4.984,0v-3.64a6.448,6.448,0,0,0-4.984,0" fill="#3279aa"/>
        <path id="Path_17821" data-name="Path 17821" d="M269.857,65.593a6.313,6.313,0,0,1-5.71,0c-1.577-.91-1.577-2.387,0-3.3a6.313,6.313,0,0,1,5.71,0c1.577.911,1.577,2.387,0,3.3" fill="#4ca0ce"/>
        <path id="Path_17822" data-name="Path 17822" d="M294.976,108.993a.7.7,0,0,1-.7-.7V79.61a.7.7,0,0,1,1.394,0V108.3a.7.7,0,0,1-.7.7" fill="#4ca0ce"/>
        <rect id="Rectangle_1855" data-name="Rectangle 1855" width="4.984" height="10.754" transform="translate(292.484 77.807)" fill="#4ca0ce"/>
        <path id="Path_17823" data-name="Path 17823" d="M296.738,89.578a3.894,3.894,0,0,1-3.524,0,1.074,1.074,0,0,1,0-2.035,3.9,3.9,0,0,1,3.524,0,1.074,1.074,0,0,1,0,2.035" fill="#4ca0ce"/>
        <rect id="Rectangle_1856" data-name="Rectangle 1856" width="8.076" height="16.867" transform="translate(290.938 62.818)" fill="#4ca0ce"/>
        <path id="Path_17824" data-name="Path 17824" d="M292.485,79.575v3.639a6.444,6.444,0,0,0,4.984,0v-3.64a6.448,6.448,0,0,0-4.984,0" fill="#3279aa"/>
        <path id="Path_17825" data-name="Path 17825" d="M297.832,81.333a6.313,6.313,0,0,1-5.71,0c-1.577-.909-1.577-2.386,0-3.3a6.319,6.319,0,0,1,5.71,0c1.577.912,1.577,2.388,0,3.3" fill="#4ca0ce"/>
        <path id="Path_17826" data-name="Path 17826" d="M322.169,90.8,333,84.428l-10.312-12.87-2.711,4.429Z" fill="#4ca0ce"/>
        <path id="Path_17827" data-name="Path 17827" d="M243.547,20.168l17.281-9.942s-.65,9.922-.65,9.942-9.927,3.075-9.927,3.075Z" fill="#4ca0ce"/>
        <path id="Path_17828" data-name="Path 17828" d="M325.178,58.441a10.909,10.909,0,0,0-3.739-1.386c-1.742-9.157-8.114-18.881-15.711-23.267a15.365,15.365,0,0,0-6.43-2.176c-1.037-11.1-8.754-23.713-18.125-29.123-4.9-2.826-9.337-3.161-12.614-1.43V1.05l-.159.092c-.084.046-.167.094-.249.143L257.961,7.3l3.386,2.674c-3.04,1.328-4.961,4.737-4.961,9.776,0,9.293,6.524,20.592,14.572,25.239l54.22,38.717c6.043,3.489,10.942.661,10.942-6.317s-4.9-15.463-10.942-18.952" fill="#4ca0ce"/>
        <path id="Path_17829" data-name="Path 17829" d="M256.89,15.663,280.278,2c-4.54-2.368-8.642-2.563-11.719-.939V1.051l-.159.091c-.084.047-.167.094-.249.143L257.962,7.3l3.386,2.674a8.172,8.172,0,0,0-4.458,5.685" fill="#4ca0ce"/>
        <path id="Path_17830" data-name="Path 17830" d="M300.082,55.863l17.065-10.015a33.057,33.057,0,0,0-11.419-12.061c-.591-.341-1.173-.639-1.748-.9L282.275,45.582Z" fill="#4ca0ce"/>
        <path id="Path_17831" data-name="Path 17831" d="M262.77,8.421l7.605,4.391,13.927-8.2a27.751,27.751,0,0,0-3.129-2.121A19.571,19.571,0,0,0,276.306.444Z" fill="#c1ecff"/>
        <path id="Path_17832" data-name="Path 17832" d="M315.265,42.9l-13.62,8.026,4.737,5.283,12.364-7.3a39.541,39.541,0,0,0-3.481-6.009" fill="#c1ecff"/>
        <path id="Path_17833" data-name="Path 17833" d="M314.48,64.743a10.909,10.909,0,0,0-3.739-1.386C309,54.2,302.627,44.476,295.03,40.09a15.365,15.365,0,0,0-6.43-2.176c-1.037-11.1-8.754-23.713-18.125-29.123-10.079-5.819-18.249-1.1-18.249,10.535,0,.4.012.793.03,1.193-7.37-3.418-13.128.433-13.128,9.163,0,9.292,6.524,20.592,14.572,25.238l60.78,35.092c6.043,3.489,10.942.661,10.942-6.317s-4.9-15.463-10.942-18.952" fill="#c1ecff"/>
        <path id="Path_17834" data-name="Path 17834" d="M252.256,20.519c-.019-.4-.03-.8-.03-1.193v-.049c-4.071-1.583-7.57-.894-9.766,1.646,2.385-1.964,5.854-2.232,9.795-.4" fill="#fff"/>
        <path id="Path_17835" data-name="Path 17835" d="M315.37,63.875a10.892,10.892,0,0,0-3.74-1.386c-1.742-9.157-8.114-18.881-15.711-23.267a15.366,15.366,0,0,0-6.429-2.176c-1.038-11.1-8.754-23.713-18.125-29.123-6.28-3.625-11.817-3.16-15.1.52,3.345-2.859,8.466-2.969,14.21.347,9.371,5.411,17.089,18.024,18.126,29.123a15.381,15.381,0,0,1,6.429,2.176c7.6,4.386,13.97,14.11,15.711,23.268a10.885,10.885,0,0,1,3.739,1.385c6.043,3.489,10.942,11.974,10.942,18.952a9.017,9.017,0,0,1-1.744,5.821c1.638-1.263,2.634-3.552,2.634-6.688,0-6.978-4.9-15.463-10.941-18.952" fill="#fff"/>
        <path id="Path_17836" data-name="Path 17836" d="M250.971,23.29l4.569,2.119-.233-5.031c-.016-.353-.026-.7-.026-1.053,0-4.49,1.356-7.746,3.817-9.168s5.961-.966,9.849,1.279c8.364,4.829,15.661,16.584,16.612,26.762l.24,2.564,2.567.2a12.354,12.354,0,0,1,5.136,1.776c6.644,3.836,12.632,12.748,14.238,21.193l.4,2.114,2.126.332a7.92,7.92,0,0,1,2.685,1.014c5.1,2.947,9.414,10.414,9.414,16.306,0,2.205-.611,3.823-1.677,4.439s-2.772.336-4.682-.767L255.227,52.275c-7.07-4.082-13.044-14.429-13.044-22.593,0-3.2.945-5.645,2.592-6.7a4.434,4.434,0,0,1,2.423-.648,9.13,9.13,0,0,1,3.773.953" fill="#3279aa"/>
        <path id="Path_17837" data-name="Path 17837" d="M281.305,61.383l1.6-.8-1.578-1.2Z" fill="#4ca0ce"/>
        <path id="Path_17838" data-name="Path 17838" d="M276.49,39.725l1.556-.787.029.815Z" fill="#4ca0ce"/>
        <path id="Path_17839" data-name="Path 17839" d="M285.879,56.32,287.5,55.5l-3.126-2.973Z" fill="#4ca0ce"/>
        <path id="Path_17840" data-name="Path 17840" d="M282.439,60.527l-7.591-4.471a1.616,1.616,0,0,1-.695-1.276l.025-8.788,8.986,5.292-.025,8.788c0,.478-.315.682-.7.455" fill="#4ca0ce"/>
        <path id="Path_17841" data-name="Path 17841" d="M278.03,38.947l-8.2,5.276c-.348.224-.067,1.058.462,1.369l8.373,4.932,8.374,4.932c.528.311.813-.19.467-.823l-8.141-14.9c-.352-.644-.982-1.015-1.336-.787" fill="#4ca0ce"/>
        <path id="Path_17842" data-name="Path 17842" d="M280.812,61.347l-7.591-4.471a1.616,1.616,0,0,1-.7-1.276l.025-8.788,8.986,5.292-.025,8.788c0,.478-.315.682-.7.455" fill="#c1ecff"/>
        <path id="Path_17843" data-name="Path 17843" d="M276.4,39.767l-8.2,5.276c-.348.224-.067,1.058.462,1.369l8.373,4.932,8.374,4.932c.528.311.813-.19.467-.823l-8.141-14.9c-.352-.644-.982-1.015-1.336-.787" fill="#c1ecff"/>
        <path id="Path_17844" data-name="Path 17844" d="M266.237,70.956c0,.495-.347.695-.776.448a1.716,1.716,0,0,1-.775-1.344c0-.494.347-.695.775-.448a1.715,1.715,0,0,1,.776,1.344" fill="#c1ecff"/>
        <path id="Path_17845" data-name="Path 17845" d="M294.277,86.925c0,.495-.347.695-.776.448a1.715,1.715,0,0,1-.775-1.344c0-.494.347-.695.775-.447a1.711,1.711,0,0,1,.776,1.343" fill="#c1ecff"/>
        <path id="Path_17846" data-name="Path 17846" d="M244.175,195.378l-35.52-20.254c-1.3-.75-1.136-2.06.364-2.926l20.437-11.8a5.63,5.63,0,0,1,5.068-.21l35.52,20.253c1.3.75,1.136,2.06-.364,2.926l-20.437,11.8a5.633,5.633,0,0,1-5.068.21" fill="#c1ecff"/>
        <path id="Path_17847" data-name="Path 17847" d="M273.211,173.624h0V90.7l-32.966-8.628-6.072-3.506a6.045,6.045,0,0,0-5.437.226l-5.665,3.271-17.584-.01,5.207,80.051a1.576,1.576,0,0,0,.934,1.457l32.9,24.823a6.045,6.045,0,0,0,5.437-.226L271.887,175.5a2.154,2.154,0,0,0,1.324-1.876" fill="#3279aa"/>
        <path id="Path_17848" data-name="Path 17848" d="M231.65,78.028a6.28,6.28,0,0,0-2.914.764l-5.665,3.271-17.584-.01V165.2a1.577,1.577,0,0,0,.934,1.457l38.1,21.727a4.915,4.915,0,0,0,2.523.539l.393-83.666Z" fill="#c1ecff"/>
        <path id="Path_17849" data-name="Path 17849" d="M244.876,188.555a6.194,6.194,0,0,0,4.346-.05V104.268h-4.346Z" fill="#4ca0ce"/>
        <path id="Path_17850" data-name="Path 17850" d="M244.526,105.266l-38.1-21.728c-1.393-.8-1.219-2.209.391-3.138l21.924-12.658a6.045,6.045,0,0,1,5.437-.226l38.105,21.729c1.393.8,1.218,2.209-.391,3.138l-21.924,12.659a6.038,6.038,0,0,1-5.437.224" fill="#c1ecff"/>
        <path id="Path_17851" data-name="Path 17851" d="M271.887,90.841,249.963,103.5a6.042,6.042,0,0,1-5.437.225L206.421,82a2.1,2.1,0,0,1-.7-.617,1.461,1.461,0,0,0,.7,2.159l38.1,21.727a6.042,6.042,0,0,0,5.437-.225l21.924-12.658c1.25-.722,1.63-1.731,1.086-2.522a3.05,3.05,0,0,1-1.086.98" fill="#e7f9ff"/>
        <path id="Path_17852" data-name="Path 17852" d="M245.6,96.461,220.235,81.755c-.652-.376-.571-1.034.182-1.469l10.26-5.923a2.825,2.825,0,0,1,2.544-.1l25.369,14.7c.652.377.571,1.034-.182,1.469l-10.26,5.924a2.828,2.828,0,0,1-2.544.1" fill="#14497a"/>
        <path id="Path_17853" data-name="Path 17853" d="M231.908,82.415l-1.47-.849c-.09-.052-.079-.143.025-.2l1.42-.82a.392.392,0,0,1,.352-.014l1.47.849c.09.052.079.143-.026.2l-1.419.819a.389.389,0,0,1-.352.015" fill="#c1ecff"/>
        <path id="Path_17854" data-name="Path 17854" d="M236.819,85.239l-1.47-.849c-.09-.052-.079-.143.025-.2l1.42-.82a.392.392,0,0,1,.352-.014l1.47.849c.09.052.079.143-.026.2l-1.419.819a.389.389,0,0,1-.352.015" fill="#c1ecff"/>
        <path id="Path_17855" data-name="Path 17855" d="M241.73,88.063l-1.47-.849c-.09-.052-.079-.143.025-.2l1.42-.82a.392.392,0,0,1,.352-.014l1.47.849c.09.052.079.143-.026.2l-1.419.819a.389.389,0,0,1-.352.015" fill="#c1ecff"/>
        <path id="Path_17856" data-name="Path 17856" d="M246.641,90.887l-1.47-.849c-.09-.052-.079-.143.025-.2l1.42-.82a.392.392,0,0,1,.352-.014l1.47.849c.09.052.079.143-.026.2l-1.419.819a.389.389,0,0,1-.352.015" fill="#c1ecff"/>
        <path id="Path_17857" data-name="Path 17857" d="M220.234,81.755l.03.017a1.7,1.7,0,0,1,.153-.105l10.259-5.923a2.825,2.825,0,0,1,2.544-.105l25.34,14.688c.6-.43.632-1.016.03-1.364L233.22,74.257a2.828,2.828,0,0,0-2.544.106l-10.259,5.923c-.753.435-.835,1.093-.183,1.469" fill="#4ca0ce"/>
        <path id="Path_17858" data-name="Path 17858" d="M254.243,121.7l14.424-8.259a3.517,3.517,0,0,0,1.47-2.808v-5.158c0-1.082-.658-1.58-1.47-1.111l-14.424,8.259a3.517,3.517,0,0,0-1.47,2.808v5.158c0,1.082.658,1.58,1.47,1.111" fill="#14497a"/>
        <path id="Path_17859" data-name="Path 17859" d="M269.382,104.2a1.443,1.443,0,0,1,.368,1.073v5.158a3.52,3.52,0,0,1-1.47,2.809L253.856,121.5a1.057,1.057,0,0,1-.714.156.876.876,0,0,0,1.1.037l14.424-8.258a3.52,3.52,0,0,0,1.47-2.808v-5.158c0-.735-.307-1.191-.755-1.267" fill="#fff"/>
        <path id="Path_17860" data-name="Path 17860" d="M258.582,116.092l1.323-.764a.766.766,0,0,0,.32-.612V113.3c0-.236-.143-.345-.32-.242l-1.323.763a.769.769,0,0,0-.32.612v1.414c0,.236.143.344.32.242" fill="#3279aa"/>
        <path id="Path_17861" data-name="Path 17861" d="M263.006,113.538l1.323-.764a.766.766,0,0,0,.32-.612v-1.413c0-.236-.143-.345-.32-.242l-1.323.763a.769.769,0,0,0-.32.612V113.3c0,.236.143.344.32.242" fill="#fff"/>
        <path id="Path_17862" data-name="Path 17862" d="M254.243,158.97l14.424-8.259a3.517,3.517,0,0,0,1.47-2.808v-5.158c0-1.082-.658-1.58-1.47-1.111l-14.424,8.259a3.517,3.517,0,0,0-1.47,2.808v5.158c0,1.082.658,1.58,1.47,1.111" fill="#14497a"/>
        <path id="Path_17863" data-name="Path 17863" d="M269.382,141.478a1.443,1.443,0,0,1,.368,1.073v5.158a3.517,3.517,0,0,1-1.47,2.808l-14.424,8.259a1.057,1.057,0,0,1-.714.156.876.876,0,0,0,1.1.037l14.424-8.258a3.52,3.52,0,0,0,1.47-2.808v-5.158c0-.735-.307-1.191-.755-1.267" fill="#fff"/>
        <path id="Path_17864" data-name="Path 17864" d="M258.582,153.366l1.323-.764a.766.766,0,0,0,.32-.612v-1.413c0-.236-.143-.345-.32-.242l-1.323.763a.769.769,0,0,0-.32.612v1.414c0,.236.143.344.32.242" fill="#3279aa"/>
        <path id="Path_17865" data-name="Path 17865" d="M263.006,150.812l1.323-.764a.766.766,0,0,0,.32-.612v-1.413c0-.236-.143-.345-.32-.242l-1.323.763a.769.769,0,0,0-.32.612v1.414c0,.236.143.344.32.242" fill="#fff"/>
        <path id="Path_17866" data-name="Path 17866" d="M254.243,177.607l14.424-8.259a3.517,3.517,0,0,0,1.47-2.808v-5.158c0-1.082-.658-1.58-1.47-1.111l-14.424,8.259a3.517,3.517,0,0,0-1.47,2.808V176.5c0,1.082.658,1.58,1.47,1.111" fill="#14497a"/>
        <path id="Path_17867" data-name="Path 17867" d="M269.382,160.115a1.443,1.443,0,0,1,.368,1.073v5.158a3.517,3.517,0,0,1-1.47,2.808l-14.424,8.259a1.057,1.057,0,0,1-.714.156.876.876,0,0,0,1.1.037l14.424-8.258a3.52,3.52,0,0,0,1.47-2.808v-5.158c0-.735-.307-1.191-.755-1.267" fill="#fff"/>
        <path id="Path_17868" data-name="Path 17868" d="M258.582,172l1.323-.764a.766.766,0,0,0,.32-.612v-1.413c0-.236-.143-.345-.32-.242l-1.323.763a.769.769,0,0,0-.32.612v1.414c0,.236.143.344.32.242" fill="#3279aa"/>
        <path id="Path_17869" data-name="Path 17869" d="M263.006,169.449l1.323-.764a.766.766,0,0,0,.32-.612V166.66c0-.236-.143-.345-.32-.242l-1.323.763a.769.769,0,0,0-.32.612v1.414c0,.236.143.344.32.242" fill="#fff"/>
        <path id="Path_17870" data-name="Path 17870" d="M254.243,140.333l14.424-8.259a3.517,3.517,0,0,0,1.47-2.808v-5.158c0-1.082-.658-1.58-1.47-1.111l-14.424,8.259a3.517,3.517,0,0,0-1.47,2.808v5.158c0,1.082.658,1.58,1.47,1.111" fill="#14497a"/>
        <path id="Path_17871" data-name="Path 17871" d="M269.382,122.841a1.443,1.443,0,0,1,.368,1.073v5.158a3.52,3.52,0,0,1-1.47,2.809l-14.424,8.258a1.057,1.057,0,0,1-.714.156.876.876,0,0,0,1.1.037l14.424-8.258a3.52,3.52,0,0,0,1.47-2.808v-5.158c0-.735-.307-1.191-.755-1.267" fill="#fff"/>
        <path id="Path_17872" data-name="Path 17872" d="M258.582,134.729l1.323-.764a.766.766,0,0,0,.32-.612V131.94c0-.236-.143-.345-.32-.242l-1.323.763a.769.769,0,0,0-.32.612v1.414c0,.236.143.344.32.242" fill="#3279aa"/>
        <path id="Path_17873" data-name="Path 17873" d="M263.006,132.175l1.323-.764a.766.766,0,0,0,.32-.612v-1.413c0-.236-.143-.345-.32-.242l-1.323.763a.769.769,0,0,0-.32.612v1.414c0,.236.143.344.32.242" fill="#fff"/>
        <path id="Path_17874" data-name="Path 17874" d="M241.75,116.415,208.472,97.2a3.23,3.23,0,0,1-1.349-2.577V88.28c0-.993.6-1.45,1.349-1.02l33.278,19.213a3.23,3.23,0,0,1,1.349,2.577v6.345c0,.994-.6,1.45-1.349,1.02" fill="#4ca0ce"/>
        <g id="Group_2235" data-name="Group 2235" opacity="0.4">
          <g id="Group_2234" data-name="Group 2234">
            <g id="Group_2233" data-name="Group 2233" clip-path="url(#clip-path-3)">
              <path id="Path_17875" data-name="Path 17875" d="M240.795,114.19,209.428,96.08a1.637,1.637,0,0,1-.684-1.307V90c0-.5.306-.735.684-.517l31.367,18.11a1.637,1.637,0,0,1,.684,1.307v4.771c0,.5-.306.735-.684.517" fill="#c1ecff"/>
            </g>
          </g>
        </g>
        <path id="Path_17876" data-name="Path 17876" d="M215.965,97.443l-4.681-2.7a1.591,1.591,0,0,1-.665-1.269c0-.489.3-.714.665-.5l4.681,2.7a1.591,1.591,0,0,1,.664,1.27c0,.489-.3.714-.664.5" fill="#c1ecff"/>
        <path id="Path_17877" data-name="Path 17877" d="M219.954,98.86c0,.489-.343.688-.767.443a1.7,1.7,0,0,1-.767-1.329c0-.489.343-.688.767-.443a1.7,1.7,0,0,1,.767,1.329" fill="#14497a"/>
        <path id="Path_17878" data-name="Path 17878" d="M222.66,100.423c0,.489-.343.688-.767.443a1.7,1.7,0,0,1-.767-1.329c0-.489.343-.688.767-.443a1.7,1.7,0,0,1,.767,1.329" fill="#14497a"/>
        <path id="Path_17879" data-name="Path 17879" d="M225.367,101.986c0,.489-.343.688-.767.443a1.7,1.7,0,0,1-.767-1.329c0-.489.343-.688.767-.443a1.7,1.7,0,0,1,.767,1.329" fill="#c1ecff"/>
        <path id="Path_17880" data-name="Path 17880" d="M228.074,103.548c0,.489-.343.688-.767.443a1.7,1.7,0,0,1-.767-1.329c0-.489.343-.688.767-.443a1.7,1.7,0,0,1,.767,1.329" fill="#14497a"/>
        <path id="Path_17881" data-name="Path 17881" d="M239.476,111.534l-1.577-.91a1.023,1.023,0,0,1-.426-.815v-1.668c0-.314.191-.459.426-.323l1.577.911a1.021,1.021,0,0,1,.426.814v1.669c0,.314-.191.458-.426.322" fill="#14497a"/>
        <path id="Path_17882" data-name="Path 17882" d="M241.75,127.605l-33.278-19.213a3.23,3.23,0,0,1-1.349-2.577V99.47c0-.993.6-1.45,1.349-1.02l33.278,19.213a3.23,3.23,0,0,1,1.349,2.577v6.345c0,.994-.6,1.45-1.349,1.02" fill="#4ca0ce"/>
        <g id="Group_2238" data-name="Group 2238" opacity="0.4">
          <g id="Group_2237" data-name="Group 2237">
            <g id="Group_2236" data-name="Group 2236" clip-path="url(#clip-path-4)">
              <path id="Path_17883" data-name="Path 17883" d="M240.795,125.38l-31.367-18.11a1.637,1.637,0,0,1-.684-1.307v-4.771c0-.5.306-.735.684-.517l31.367,18.11a1.637,1.637,0,0,1,.684,1.307v4.771c0,.5-.306.735-.684.517" fill="#c1ecff"/>
            </g>
          </g>
        </g>
        <path id="Path_17884" data-name="Path 17884" d="M215.965,108.633l-4.681-2.7a1.591,1.591,0,0,1-.665-1.269c0-.489.3-.714.665-.5l4.681,2.7a1.591,1.591,0,0,1,.664,1.27c0,.489-.3.714-.664.5" fill="#c1ecff"/>
        <path id="Path_17885" data-name="Path 17885" d="M219.954,110.05c0,.489-.343.688-.767.443a1.7,1.7,0,0,1-.767-1.329c0-.489.343-.688.767-.443a1.7,1.7,0,0,1,.767,1.329" fill="#fff"/>
        <path id="Path_17886" data-name="Path 17886" d="M222.66,111.613c0,.489-.343.688-.767.443a1.7,1.7,0,0,1-.767-1.329c0-.489.343-.688.767-.443a1.7,1.7,0,0,1,.767,1.329" fill="#14497a"/>
        <path id="Path_17887" data-name="Path 17887" d="M225.367,113.175c0,.489-.343.688-.767.443a1.7,1.7,0,0,1-.767-1.329c0-.489.343-.688.767-.443a1.7,1.7,0,0,1,.767,1.329" fill="#c1ecff"/>
        <path id="Path_17888" data-name="Path 17888" d="M228.074,114.738c0,.489-.343.688-.767.443a1.7,1.7,0,0,1-.767-1.329c0-.489.343-.688.767-.443a1.7,1.7,0,0,1,.767,1.329" fill="#14497a"/>
        <path id="Path_17889" data-name="Path 17889" d="M239.476,122.723l-1.577-.909a1.023,1.023,0,0,1-.426-.815v-1.668c0-.314.191-.459.426-.323l1.577.911a1.02,1.02,0,0,1,.426.813v1.67c0,.313-.191.457-.426.321" fill="#14497a"/>
        <path id="Path_17890" data-name="Path 17890" d="M241.75,138.795l-33.278-19.213A3.23,3.23,0,0,1,207.123,117V110.66c0-.993.6-1.45,1.349-1.02l33.278,19.213a3.23,3.23,0,0,1,1.349,2.577v6.345c0,.994-.6,1.45-1.349,1.02" fill="#4ca0ce"/>
        <g id="Group_2241" data-name="Group 2241" opacity="0.4">
          <g id="Group_2240" data-name="Group 2240">
            <g id="Group_2239" data-name="Group 2239" clip-path="url(#clip-path-5)">
              <path id="Path_17891" data-name="Path 17891" d="M240.795,136.57l-31.367-18.11a1.637,1.637,0,0,1-.684-1.307v-4.771c0-.5.306-.735.684-.517l31.367,18.11a1.637,1.637,0,0,1,.684,1.307v4.771c0,.5-.306.735-.684.517" fill="#c1ecff"/>
            </g>
          </g>
        </g>
        <path id="Path_17892" data-name="Path 17892" d="M215.965,119.822l-4.681-2.7a1.591,1.591,0,0,1-.665-1.269c0-.489.3-.714.665-.5l4.681,2.7a1.591,1.591,0,0,1,.664,1.27c0,.489-.3.714-.664.5" fill="#c1ecff"/>
        <path id="Path_17893" data-name="Path 17893" d="M219.954,121.24c0,.489-.343.688-.767.443a1.7,1.7,0,0,1-.767-1.329c0-.489.343-.688.767-.443a1.7,1.7,0,0,1,.767,1.329" fill="#fff"/>
        <path id="Path_17894" data-name="Path 17894" d="M222.66,122.8c0,.489-.343.688-.767.443a1.7,1.7,0,0,1-.767-1.329c0-.489.343-.688.767-.443a1.7,1.7,0,0,1,.767,1.329" fill="#14497a"/>
        <path id="Path_17895" data-name="Path 17895" d="M225.367,124.365c0,.489-.343.688-.767.443a1.7,1.7,0,0,1-.767-1.329c0-.489.343-.688.767-.443a1.7,1.7,0,0,1,.767,1.329" fill="#c1ecff"/>
        <path id="Path_17896" data-name="Path 17896" d="M228.074,125.928c0,.489-.343.688-.767.443a1.7,1.7,0,0,1-.767-1.329c0-.489.343-.688.767-.443a1.7,1.7,0,0,1,.767,1.329" fill="#14497a"/>
        <path id="Path_17897" data-name="Path 17897" d="M239.476,133.913,237.9,133a1.023,1.023,0,0,1-.426-.815V130.52c0-.314.191-.459.426-.323l1.577.911a1.021,1.021,0,0,1,.426.814v1.669c0,.314-.191.458-.426.322" fill="#14497a"/>
        <path id="Path_17898" data-name="Path 17898" d="M241.75,149.984l-33.278-19.213a3.23,3.23,0,0,1-1.349-2.577v-6.345c0-.993.6-1.45,1.349-1.02l33.278,19.213a3.23,3.23,0,0,1,1.349,2.577v6.345c0,.994-.6,1.45-1.349,1.02" fill="#4ca0ce"/>
        <g id="Group_2244" data-name="Group 2244" opacity="0.4">
          <g id="Group_2243" data-name="Group 2243">
            <g id="Group_2242" data-name="Group 2242" clip-path="url(#clip-path-6)">
              <path id="Path_17899" data-name="Path 17899" d="M240.795,147.76l-31.367-18.11a1.637,1.637,0,0,1-.684-1.307v-4.771c0-.5.306-.735.684-.517l31.367,18.11a1.637,1.637,0,0,1,.684,1.307v4.771c0,.5-.306.735-.684.517" fill="#c1ecff"/>
            </g>
          </g>
        </g>
        <path id="Path_17900" data-name="Path 17900" d="M215.965,131.012l-4.681-2.7a1.591,1.591,0,0,1-.665-1.269c0-.489.3-.714.665-.5l4.681,2.7a1.591,1.591,0,0,1,.664,1.27c0,.489-.3.714-.664.5" fill="#c1ecff"/>
        <path id="Path_17901" data-name="Path 17901" d="M219.954,132.429c0,.489-.343.688-.767.443a1.7,1.7,0,0,1-.767-1.329c0-.489.343-.688.767-.443a1.7,1.7,0,0,1,.767,1.329" fill="#14497a"/>
        <path id="Path_17902" data-name="Path 17902" d="M222.66,133.992c0,.489-.343.688-.767.443a1.7,1.7,0,0,1-.767-1.329c0-.489.343-.688.767-.443a1.7,1.7,0,0,1,.767,1.329" fill="#14497a"/>
        <path id="Path_17903" data-name="Path 17903" d="M225.367,135.555c0,.489-.343.688-.767.443a1.7,1.7,0,0,1-.767-1.329c0-.489.343-.688.767-.443a1.7,1.7,0,0,1,.767,1.329" fill="#c1ecff"/>
        <path id="Path_17904" data-name="Path 17904" d="M228.074,137.117c0,.489-.343.688-.767.443a1.7,1.7,0,0,1-.767-1.329c0-.489.343-.688.767-.443a1.7,1.7,0,0,1,.767,1.329" fill="#14497a"/>
        <path id="Path_17905" data-name="Path 17905" d="M239.476,145.1l-1.577-.91a1.023,1.023,0,0,1-.426-.815V141.71c0-.314.191-.459.426-.323l1.577.911a1.021,1.021,0,0,1,.426.814v1.669c0,.314-.191.458-.426.322" fill="#c1ecff"/>
        <path id="Path_17906" data-name="Path 17906" d="M241.75,161.174l-33.278-19.213a3.23,3.23,0,0,1-1.349-2.577v-6.345c0-.993.6-1.45,1.349-1.02l33.278,19.213a3.23,3.23,0,0,1,1.349,2.577v6.345c0,.994-.6,1.45-1.349,1.02" fill="#4ca0ce"/>
        <g id="Group_2247" data-name="Group 2247" opacity="0.4">
          <g id="Group_2246" data-name="Group 2246">
            <g id="Group_2245" data-name="Group 2245" clip-path="url(#clip-path-7)">
              <path id="Path_17907" data-name="Path 17907" d="M240.795,158.949l-31.367-18.11a1.637,1.637,0,0,1-.684-1.307v-4.771c0-.5.306-.735.684-.517l31.367,18.11a1.637,1.637,0,0,1,.684,1.307v4.771c0,.5-.306.735-.684.517" fill="#c1ecff"/>
            </g>
          </g>
        </g>
        <path id="Path_17908" data-name="Path 17908" d="M215.965,142.2l-4.681-2.7a1.591,1.591,0,0,1-.665-1.269c0-.489.3-.714.665-.5l4.681,2.7a1.591,1.591,0,0,1,.664,1.27c0,.489-.3.714-.664.5" fill="#c1ecff"/>
        <path id="Path_17909" data-name="Path 17909" d="M219.954,143.619c0,.489-.343.688-.767.443a1.7,1.7,0,0,1-.767-1.329c0-.489.343-.687.767-.443a1.7,1.7,0,0,1,.767,1.329" fill="#14497a"/>
        <path id="Path_17910" data-name="Path 17910" d="M222.66,145.182c0,.489-.343.688-.767.443a1.7,1.7,0,0,1-.767-1.329c0-.489.343-.688.767-.443a1.7,1.7,0,0,1,.767,1.329" fill="#fff"/>
        <path id="Path_17911" data-name="Path 17911" d="M225.367,146.744c0,.489-.343.688-.767.443a1.7,1.7,0,0,1-.767-1.329c0-.489.343-.688.767-.443a1.7,1.7,0,0,1,.767,1.329" fill="#c1ecff"/>
        <path id="Path_17912" data-name="Path 17912" d="M228.074,148.307c0,.489-.343.688-.767.443a1.7,1.7,0,0,1-.767-1.329c0-.489.343-.688.767-.443a1.7,1.7,0,0,1,.767,1.329" fill="#fff"/>
        <path id="Path_17913" data-name="Path 17913" d="M239.476,156.293l-1.577-.91a1.023,1.023,0,0,1-.426-.815V152.9c0-.314.191-.459.426-.323l1.577.911a1.021,1.021,0,0,1,.426.814v1.669c0,.314-.191.458-.426.322" fill="#c1ecff"/>
        <path id="Path_17914" data-name="Path 17914" d="M241.75,172.364l-33.278-19.213a3.23,3.23,0,0,1-1.349-2.577v-6.345c0-.993.6-1.45,1.349-1.02l33.278,19.213A3.23,3.23,0,0,1,243.1,165v6.345c0,.994-.6,1.45-1.349,1.02" fill="#4ca0ce"/>
        <g id="Group_2250" data-name="Group 2250" opacity="0.4">
          <g id="Group_2249" data-name="Group 2249">
            <g id="Group_2248" data-name="Group 2248" clip-path="url(#clip-path-8)">
              <path id="Path_17915" data-name="Path 17915" d="M240.795,170.139l-31.367-18.11a1.637,1.637,0,0,1-.684-1.307v-4.771c0-.5.306-.735.684-.517l31.367,18.11a1.637,1.637,0,0,1,.684,1.307v4.771c0,.5-.306.735-.684.517" fill="#c1ecff"/>
            </g>
          </g>
        </g>
        <path id="Path_17916" data-name="Path 17916" d="M215.965,153.391l-4.681-2.7a1.591,1.591,0,0,1-.665-1.269c0-.49.3-.714.665-.5l4.681,2.7a1.589,1.589,0,0,1,.664,1.269c0,.49-.3.715-.664.5" fill="#c1ecff"/>
        <path id="Path_17917" data-name="Path 17917" d="M219.954,154.809c0,.489-.343.688-.767.443a1.7,1.7,0,0,1-.767-1.329c0-.489.343-.687.767-.443a1.7,1.7,0,0,1,.767,1.329" fill="#14497a"/>
        <path id="Path_17918" data-name="Path 17918" d="M222.66,156.371c0,.489-.343.688-.767.443a1.7,1.7,0,0,1-.767-1.329c0-.489.343-.688.767-.443a1.7,1.7,0,0,1,.767,1.329" fill="#14497a"/>
        <path id="Path_17919" data-name="Path 17919" d="M225.367,157.934c0,.489-.343.688-.767.443a1.7,1.7,0,0,1-.767-1.329c0-.489.343-.688.767-.443a1.7,1.7,0,0,1,.767,1.329" fill="#c1ecff"/>
        <path id="Path_17920" data-name="Path 17920" d="M228.074,159.5c0,.489-.343.688-.767.443a1.7,1.7,0,0,1-.767-1.329c0-.489.343-.688.767-.443a1.7,1.7,0,0,1,.767,1.329" fill="#14497a"/>
        <path id="Path_17921" data-name="Path 17921" d="M239.476,167.482l-1.577-.91a1.023,1.023,0,0,1-.426-.815v-1.668c0-.314.191-.459.426-.323l1.577.911a1.021,1.021,0,0,1,.426.814v1.669c0,.314-.191.458-.426.322" fill="#14497a"/>
        <path id="Path_17922" data-name="Path 17922" d="M241.75,183.554l-33.278-19.213a3.23,3.23,0,0,1-1.349-2.577v-6.345c0-.993.6-1.45,1.349-1.02l33.278,19.213a3.23,3.23,0,0,1,1.349,2.577v6.345c0,.994-.6,1.45-1.349,1.02" fill="#4ca0ce"/>
        <g id="Group_2253" data-name="Group 2253" opacity="0.4">
          <g id="Group_2252" data-name="Group 2252">
            <g id="Group_2251" data-name="Group 2251" clip-path="url(#clip-path-9)">
              <path id="Path_17923" data-name="Path 17923" d="M240.795,181.329l-31.367-18.11a1.637,1.637,0,0,1-.684-1.307v-4.771c0-.5.306-.735.684-.517l31.367,18.11a1.637,1.637,0,0,1,.684,1.307v4.771c0,.5-.306.735-.684.517" fill="#c1ecff"/>
            </g>
          </g>
        </g>
        <path id="Path_17924" data-name="Path 17924" d="M215.965,164.581l-4.681-2.7a1.591,1.591,0,0,1-.665-1.269c0-.489.3-.714.665-.5l4.681,2.7a1.591,1.591,0,0,1,.664,1.27c0,.489-.3.714-.664.5" fill="#c1ecff"/>
        <path id="Path_17925" data-name="Path 17925" d="M237.473,176.324c0,.924-.649,1.3-1.45.837a3.2,3.2,0,0,1-1.449-2.51c0-.925.649-1.3,1.449-.837a3.2,3.2,0,0,1,1.45,2.51" fill="#fff"/>
        <path id="Path_17926" data-name="Path 17926" d="M219.954,166.138c0,.489-.343.688-.767.443a1.7,1.7,0,0,1-.767-1.329c0-.489.343-.688.767-.443a1.7,1.7,0,0,1,.767,1.329" fill="#14497a"/>
        <path id="Path_17927" data-name="Path 17927" d="M222.66,167.7c0,.489-.343.688-.767.443a1.7,1.7,0,0,1-.767-1.329c0-.489.343-.687.767-.443a1.7,1.7,0,0,1,.767,1.329" fill="#c1ecff"/>
        <path id="Path_17928" data-name="Path 17928" d="M225.367,169.264c0,.489-.343.688-.767.443a1.7,1.7,0,0,1-.767-1.329c0-.489.343-.688.767-.443a1.7,1.7,0,0,1,.767,1.329" fill="#14497a"/>
        <path id="Path_17929" data-name="Path 17929" d="M291.383,222.435l-35.52-20.254c-1.3-.75-1.136-2.06.364-2.926l20.437-11.8a5.63,5.63,0,0,1,5.068-.21l35.52,20.253c1.3.75,1.136,2.06-.364,2.926l-20.437,11.8a5.633,5.633,0,0,1-5.068.21" fill="#c1ecff"/>
        <path id="Path_17930" data-name="Path 17930" d="M320.419,200.681h0V117.757l-32.966-8.628-6.072-3.506a6.045,6.045,0,0,0-5.437.226l-5.665,3.271-17.584-.01,5.207,80.051a1.576,1.576,0,0,0,.934,1.457l32.9,24.823a6.045,6.045,0,0,0,5.437-.226L319.1,202.557a2.154,2.154,0,0,0,1.324-1.876" fill="#3279aa"/>
        <path id="Path_17931" data-name="Path 17931" d="M278.858,105.085a6.28,6.28,0,0,0-2.914.764l-5.666,3.271-17.583-.01v83.147a1.577,1.577,0,0,0,.934,1.457l38.105,21.727a4.915,4.915,0,0,0,2.523.539l.393-83.666Z" fill="#c1ecff"/>
        <path id="Path_17932" data-name="Path 17932" d="M292.084,215.612a6.194,6.194,0,0,0,4.346-.05V131.325h-4.346Z" fill="#4ca0ce"/>
        <path id="Path_17933" data-name="Path 17933" d="M291.734,132.324,253.629,110.6c-1.393-.8-1.219-2.21.391-3.139L275.944,94.8a6.042,6.042,0,0,1,5.437-.225l38.1,21.728c1.393.8,1.218,2.21-.391,3.139L297.171,132.1a6.042,6.042,0,0,1-5.437.225" fill="#c1ecff"/>
        <path id="Path_17934" data-name="Path 17934" d="M319.1,117.9l-21.924,12.658a6.042,6.042,0,0,1-5.437.225l-38.105-21.727a2.1,2.1,0,0,1-.695-.617,1.461,1.461,0,0,0,.695,2.159l38.105,21.727a6.042,6.042,0,0,0,5.437-.225L319.1,119.44c1.25-.722,1.63-1.731,1.086-2.522a3.05,3.05,0,0,1-1.086.98" fill="#e7f9ff"/>
        <path id="Path_17935" data-name="Path 17935" d="M292.812,123.518l-25.369-14.706c-.652-.376-.571-1.034.182-1.469l10.26-5.923a2.825,2.825,0,0,1,2.544-.1l25.369,14.7c.653.377.571,1.034-.182,1.469l-10.26,5.924a2.828,2.828,0,0,1-2.544.1" fill="#14497a"/>
        <path id="Path_17936" data-name="Path 17936" d="M279.116,109.472l-1.47-.849c-.091-.052-.08-.143.025-.2l1.419-.82a.394.394,0,0,1,.353-.014l1.47.849c.09.052.078.143-.026.2l-1.42.819a.387.387,0,0,1-.351.015" fill="#c1ecff"/>
        <path id="Path_17937" data-name="Path 17937" d="M284.027,112.3l-1.47-.849c-.09-.052-.079-.143.025-.2l1.42-.82a.392.392,0,0,1,.352-.014l1.47.849c.09.052.079.143-.026.2l-1.419.819a.389.389,0,0,1-.352.015" fill="#c1ecff"/>
        <path id="Path_17938" data-name="Path 17938" d="M288.938,115.12l-1.47-.849c-.09-.052-.079-.143.025-.2l1.42-.82a.392.392,0,0,1,.352-.014l1.47.849c.09.052.079.143-.026.2l-1.419.819a.389.389,0,0,1-.352.015" fill="#c1ecff"/>
        <path id="Path_17939" data-name="Path 17939" d="M293.849,117.944l-1.47-.849c-.09-.052-.079-.143.025-.2l1.42-.82a.392.392,0,0,1,.352-.014l1.47.849c.09.052.079.143-.026.2l-1.419.819a.389.389,0,0,1-.352.015" fill="#c1ecff"/>
        <path id="Path_17940" data-name="Path 17940" d="M267.442,108.812l.03.017c.05-.035.1-.072.153-.105l10.259-5.923a2.825,2.825,0,0,1,2.544-.105l25.34,14.688c.6-.43.632-1.016.03-1.364l-25.37-14.706a2.828,2.828,0,0,0-2.544.106l-10.259,5.923c-.753.435-.835,1.093-.183,1.469" fill="#4ca0ce"/>
        <path id="Path_17941" data-name="Path 17941" d="M301.451,148.753l14.424-8.259a3.517,3.517,0,0,0,1.47-2.808v-5.158c0-1.082-.658-1.58-1.47-1.111l-14.424,8.259a3.517,3.517,0,0,0-1.47,2.808v5.158c0,1.082.658,1.58,1.47,1.111" fill="#14497a"/>
        <path id="Path_17942" data-name="Path 17942" d="M316.589,131.261a1.439,1.439,0,0,1,.369,1.073v5.158a3.52,3.52,0,0,1-1.47,2.809l-14.424,8.258a1.057,1.057,0,0,1-.714.156.876.876,0,0,0,1.1.037l14.424-8.258a3.52,3.52,0,0,0,1.47-2.808v-5.158c0-.735-.307-1.191-.756-1.267" fill="#fff"/>
        <path id="Path_17943" data-name="Path 17943" d="M305.79,143.149l1.323-.764a.767.767,0,0,0,.321-.612V140.36c0-.236-.144-.345-.321-.242l-1.323.763a.769.769,0,0,0-.32.612v1.414c0,.236.143.344.32.242" fill="#3279aa"/>
        <path id="Path_17944" data-name="Path 17944" d="M310.214,140.6l1.323-.764a.767.767,0,0,0,.321-.612v-1.413c0-.236-.144-.345-.321-.242l-1.323.763a.769.769,0,0,0-.32.612v1.414c0,.236.143.344.32.242" fill="#fff"/>
        <path id="Path_17945" data-name="Path 17945" d="M301.451,186.027l14.424-8.259a3.517,3.517,0,0,0,1.47-2.808V169.8c0-1.082-.658-1.58-1.47-1.111l-14.424,8.259a3.517,3.517,0,0,0-1.47,2.808v5.158c0,1.082.658,1.58,1.47,1.111" fill="#14497a"/>
        <path id="Path_17946" data-name="Path 17946" d="M316.589,168.535a1.439,1.439,0,0,1,.369,1.073v5.158a3.517,3.517,0,0,1-1.47,2.808l-14.424,8.259a1.057,1.057,0,0,1-.714.156.877.877,0,0,0,1.1.038l14.424-8.259a3.52,3.52,0,0,0,1.47-2.808V169.8c0-.735-.307-1.191-.756-1.267" fill="#fff"/>
        <path id="Path_17947" data-name="Path 17947" d="M305.79,180.423l1.323-.764a.767.767,0,0,0,.321-.612v-1.413c0-.236-.144-.345-.321-.242l-1.323.763a.769.769,0,0,0-.32.612v1.414c0,.236.143.344.32.242" fill="#3279aa"/>
        <path id="Path_17948" data-name="Path 17948" d="M310.214,177.869l1.323-.764a.767.767,0,0,0,.321-.612V175.08c0-.236-.144-.345-.321-.242l-1.323.763a.769.769,0,0,0-.32.612v1.414c0,.236.143.344.32.242" fill="#fff"/>
        <path id="Path_17949" data-name="Path 17949" d="M301.451,204.664l14.424-8.259a3.517,3.517,0,0,0,1.47-2.808v-5.158c0-1.082-.658-1.58-1.47-1.111l-14.424,8.259a3.517,3.517,0,0,0-1.47,2.808v5.158c0,1.082.658,1.58,1.47,1.111" fill="#14497a"/>
        <path id="Path_17950" data-name="Path 17950" d="M316.589,187.173a1.439,1.439,0,0,1,.369,1.073V193.4a3.517,3.517,0,0,1-1.47,2.808l-14.424,8.259a1.05,1.05,0,0,1-.714.155.875.875,0,0,0,1.1.038l14.424-8.258a3.52,3.52,0,0,0,1.47-2.808v-5.159c0-.734-.307-1.19-.756-1.266" fill="#fff"/>
        <path id="Path_17951" data-name="Path 17951" d="M305.79,199.061l1.323-.764a.767.767,0,0,0,.321-.612v-1.413c0-.236-.144-.345-.321-.242l-1.323.763a.769.769,0,0,0-.32.612v1.414c0,.236.143.344.32.242" fill="#3279aa"/>
        <path id="Path_17952" data-name="Path 17952" d="M310.214,196.506l1.323-.764a.767.767,0,0,0,.321-.612v-1.413c0-.236-.144-.345-.321-.242l-1.323.763a.769.769,0,0,0-.32.612v1.414c0,.236.143.344.32.242" fill="#fff"/>
        <path id="Path_17953" data-name="Path 17953" d="M301.451,167.39l14.424-8.259a3.517,3.517,0,0,0,1.47-2.808v-5.158c0-1.082-.658-1.58-1.47-1.111l-14.424,8.259a3.517,3.517,0,0,0-1.47,2.808v5.158c0,1.082.658,1.58,1.47,1.111" fill="#14497a"/>
        <path id="Path_17954" data-name="Path 17954" d="M316.589,149.9a1.439,1.439,0,0,1,.369,1.073v5.158a3.517,3.517,0,0,1-1.47,2.808L301.064,167.2a1.057,1.057,0,0,1-.714.156.876.876,0,0,0,1.1.037l14.424-8.258a3.52,3.52,0,0,0,1.47-2.808v-5.158c0-.735-.307-1.191-.756-1.267" fill="#fff"/>
        <path id="Path_17955" data-name="Path 17955" d="M305.79,161.786l1.323-.764a.767.767,0,0,0,.321-.612V159c0-.236-.144-.345-.321-.242l-1.323.763a.769.769,0,0,0-.32.612v1.414c0,.236.143.344.32.242" fill="#3279aa"/>
        <path id="Path_17956" data-name="Path 17956" d="M310.214,159.232l1.323-.764a.767.767,0,0,0,.321-.612v-1.413c0-.236-.144-.345-.321-.242l-1.323.763a.769.769,0,0,0-.32.612v1.414c0,.236.143.344.32.242" fill="#fff"/>
        <path id="Path_17957" data-name="Path 17957" d="M288.958,143.472,255.68,124.259a3.229,3.229,0,0,1-1.348-2.577v-6.345c0-.993.6-1.45,1.348-1.02l33.278,19.213a3.23,3.23,0,0,1,1.349,2.577v6.345c0,.994-.6,1.45-1.349,1.02" fill="#4ca0ce"/>
        <g id="Group_2256" data-name="Group 2256" opacity="0.4">
          <g id="Group_2255" data-name="Group 2255">
            <g id="Group_2254" data-name="Group 2254" clip-path="url(#clip-path-10)">
              <path id="Path_17958" data-name="Path 17958" d="M288,141.247l-31.367-18.11a1.634,1.634,0,0,1-.685-1.306V117.06c0-.5.307-.735.685-.517L288,134.653a1.635,1.635,0,0,1,.684,1.307v4.77c0,.505-.306.735-.684.517" fill="#c1ecff"/>
            </g>
          </g>
        </g>
        <path id="Path_17959" data-name="Path 17959" d="M263.172,124.5l-4.681-2.7a1.591,1.591,0,0,1-.665-1.269c0-.489.3-.714.665-.5l4.681,2.7a1.591,1.591,0,0,1,.664,1.27c0,.489-.3.714-.664.5" fill="#c1ecff"/>
        <path id="Path_17960" data-name="Path 17960" d="M267.162,125.917c0,.489-.344.688-.767.443a1.7,1.7,0,0,1-.768-1.329c0-.489.344-.688.768-.443a1.7,1.7,0,0,1,.767,1.329" fill="#14497a"/>
        <path id="Path_17961" data-name="Path 17961" d="M269.868,127.48c0,.489-.344.688-.767.443a1.7,1.7,0,0,1-.768-1.329c0-.489.344-.688.768-.443a1.7,1.7,0,0,1,.767,1.329" fill="#14497a"/>
        <path id="Path_17962" data-name="Path 17962" d="M272.575,129.043c0,.489-.344.688-.767.443a1.7,1.7,0,0,1-.768-1.329c0-.489.344-.688.768-.443a1.7,1.7,0,0,1,.767,1.329" fill="#c1ecff"/>
        <path id="Path_17963" data-name="Path 17963" d="M275.282,130.6c0,.489-.344.688-.767.443a1.7,1.7,0,0,1-.768-1.329c0-.489.344-.688.768-.443a1.7,1.7,0,0,1,.767,1.329" fill="#14497a"/>
        <path id="Path_17964" data-name="Path 17964" d="M286.684,138.591l-1.578-.91a1.023,1.023,0,0,1-.426-.815V135.2c0-.314.191-.459.426-.323l1.578.911a1.02,1.02,0,0,1,.425.814v1.669c0,.314-.19.458-.425.322" fill="#14497a"/>
        <path id="Path_17965" data-name="Path 17965" d="M288.958,154.662,255.68,135.449a3.229,3.229,0,0,1-1.348-2.577v-6.345c0-.993.6-1.45,1.348-1.02l33.278,19.213a3.23,3.23,0,0,1,1.349,2.577v6.345c0,.994-.6,1.45-1.349,1.02" fill="#4ca0ce"/>
        <g id="Group_2259" data-name="Group 2259" opacity="0.4">
          <g id="Group_2258" data-name="Group 2258">
            <g id="Group_2257" data-name="Group 2257" clip-path="url(#clip-path-11)">
              <path id="Path_17966" data-name="Path 17966" d="M288,152.437l-31.367-18.11a1.638,1.638,0,0,1-.685-1.307v-4.771c0-.5.307-.735.685-.517L288,145.842a1.637,1.637,0,0,1,.684,1.307v4.771c0,.5-.306.735-.684.517" fill="#c1ecff"/>
            </g>
          </g>
        </g>
        <path id="Path_17967" data-name="Path 17967" d="M263.172,135.69l-4.681-2.7a1.591,1.591,0,0,1-.665-1.269c0-.489.3-.714.665-.5l4.681,2.7a1.591,1.591,0,0,1,.664,1.27c0,.489-.3.714-.664.5" fill="#c1ecff"/>
        <path id="Path_17968" data-name="Path 17968" d="M267.162,137.107c0,.489-.344.688-.767.443a1.7,1.7,0,0,1-.768-1.329c0-.489.344-.688.768-.443a1.7,1.7,0,0,1,.767,1.329" fill="#fff"/>
        <path id="Path_17969" data-name="Path 17969" d="M269.868,138.67c0,.489-.344.688-.767.443a1.7,1.7,0,0,1-.768-1.329c0-.489.344-.688.768-.443a1.7,1.7,0,0,1,.767,1.329" fill="#14497a"/>
        <path id="Path_17970" data-name="Path 17970" d="M272.575,140.232c0,.489-.344.688-.767.443a1.7,1.7,0,0,1-.768-1.329c0-.489.344-.688.768-.443a1.7,1.7,0,0,1,.767,1.329" fill="#c1ecff"/>
        <path id="Path_17971" data-name="Path 17971" d="M275.282,141.795c0,.489-.344.688-.767.443a1.7,1.7,0,0,1-.768-1.329c0-.489.344-.688.768-.443a1.7,1.7,0,0,1,.767,1.329" fill="#14497a"/>
        <path id="Path_17972" data-name="Path 17972" d="M286.684,149.781l-1.578-.91a1.023,1.023,0,0,1-.426-.815v-1.668c0-.314.191-.459.426-.323l1.578.911a1.02,1.02,0,0,1,.425.814v1.669c0,.314-.19.458-.425.322" fill="#14497a"/>
        <path id="Path_17973" data-name="Path 17973" d="M288.958,165.852,255.68,146.639a3.229,3.229,0,0,1-1.348-2.577v-6.345c0-.993.6-1.45,1.348-1.02l33.278,19.213a3.23,3.23,0,0,1,1.349,2.577v6.345c0,.994-.6,1.45-1.349,1.02" fill="#4ca0ce"/>
        <g id="Group_2262" data-name="Group 2262" opacity="0.4">
          <g id="Group_2261" data-name="Group 2261">
            <g id="Group_2260" data-name="Group 2260" clip-path="url(#clip-path-12)">
              <path id="Path_17974" data-name="Path 17974" d="M288,163.627l-31.367-18.11a1.638,1.638,0,0,1-.685-1.307v-4.771c0-.5.307-.735.685-.517L288,157.032a1.637,1.637,0,0,1,.684,1.307v4.771c0,.5-.306.735-.684.517" fill="#c1ecff"/>
            </g>
          </g>
        </g>
        <path id="Path_17975" data-name="Path 17975" d="M263.172,146.88l-4.681-2.7a1.591,1.591,0,0,1-.665-1.269c0-.489.3-.714.665-.5l4.681,2.7a1.591,1.591,0,0,1,.664,1.27c0,.489-.3.714-.664.5" fill="#c1ecff"/>
        <path id="Path_17976" data-name="Path 17976" d="M267.162,148.3c0,.489-.344.688-.767.443a1.7,1.7,0,0,1-.768-1.329c0-.489.344-.688.768-.443a1.7,1.7,0,0,1,.767,1.329" fill="#fff"/>
        <path id="Path_17977" data-name="Path 17977" d="M269.868,149.859c0,.489-.344.688-.767.443a1.7,1.7,0,0,1-.768-1.329c0-.489.344-.688.768-.443a1.7,1.7,0,0,1,.767,1.329" fill="#14497a"/>
        <path id="Path_17978" data-name="Path 17978" d="M272.575,151.422c0,.489-.344.688-.767.443a1.7,1.7,0,0,1-.768-1.329c0-.489.344-.688.768-.443a1.7,1.7,0,0,1,.767,1.329" fill="#c1ecff"/>
        <path id="Path_17979" data-name="Path 17979" d="M275.282,152.985c0,.489-.344.688-.767.443a1.7,1.7,0,0,1-.768-1.329c0-.489.344-.688.768-.443a1.7,1.7,0,0,1,.767,1.329" fill="#14497a"/>
        <path id="Path_17980" data-name="Path 17980" d="M286.684,160.97l-1.578-.91a1.023,1.023,0,0,1-.426-.815v-1.668c0-.314.191-.459.426-.323l1.578.911a1.02,1.02,0,0,1,.425.814v1.669c0,.314-.19.458-.425.322" fill="#14497a"/>
        <path id="Path_17981" data-name="Path 17981" d="M288.958,177.042,255.68,157.829a3.229,3.229,0,0,1-1.348-2.577v-6.345c0-.993.6-1.45,1.348-1.02L288.958,167.1a3.23,3.23,0,0,1,1.349,2.577v6.345c0,.994-.6,1.45-1.349,1.02" fill="#4ca0ce"/>
        <g id="Group_2265" data-name="Group 2265" opacity="0.4">
          <g id="Group_2264" data-name="Group 2264">
            <g id="Group_2263" data-name="Group 2263" clip-path="url(#clip-path-13)">
              <path id="Path_17982" data-name="Path 17982" d="M288,174.817l-31.367-18.11a1.638,1.638,0,0,1-.685-1.307v-4.771c0-.5.307-.735.685-.517L288,168.222a1.637,1.637,0,0,1,.684,1.307V174.3c0,.5-.306.735-.684.517" fill="#c1ecff"/>
            </g>
          </g>
        </g>
        <path id="Path_17983" data-name="Path 17983" d="M263.172,158.069l-4.681-2.7a1.591,1.591,0,0,1-.665-1.269c0-.489.3-.714.665-.5l4.681,2.7a1.591,1.591,0,0,1,.664,1.27c0,.489-.3.714-.664.5" fill="#c1ecff"/>
        <path id="Path_17984" data-name="Path 17984" d="M267.162,159.486c0,.489-.344.688-.767.443a1.7,1.7,0,0,1-.768-1.329c0-.489.344-.688.768-.443a1.7,1.7,0,0,1,.767,1.329" fill="#14497a"/>
        <path id="Path_17985" data-name="Path 17985" d="M269.868,161.049c0,.489-.344.688-.767.443a1.7,1.7,0,0,1-.768-1.329c0-.489.344-.688.768-.443a1.7,1.7,0,0,1,.767,1.329" fill="#14497a"/>
        <path id="Path_17986" data-name="Path 17986" d="M272.575,162.612c0,.489-.344.688-.767.443a1.7,1.7,0,0,1-.768-1.329c0-.489.344-.688.768-.443a1.7,1.7,0,0,1,.767,1.329" fill="#c1ecff"/>
        <path id="Path_17987" data-name="Path 17987" d="M275.282,164.174c0,.49-.344.689-.767.444a1.7,1.7,0,0,1-.768-1.329c0-.49.344-.688.768-.443a1.7,1.7,0,0,1,.767,1.328" fill="#14497a"/>
        <path id="Path_17988" data-name="Path 17988" d="M286.684,172.16l-1.578-.91a1.023,1.023,0,0,1-.426-.815v-1.668c0-.314.191-.459.426-.323l1.578.911a1.02,1.02,0,0,1,.425.814v1.669c0,.314-.19.458-.425.322" fill="#c1ecff"/>
        <path id="Path_17989" data-name="Path 17989" d="M288.958,188.231,255.68,169.018a3.229,3.229,0,0,1-1.348-2.577V160.1c0-.993.6-1.45,1.348-1.02l33.278,19.213a3.23,3.23,0,0,1,1.349,2.577v6.345c0,.994-.6,1.45-1.349,1.02" fill="#4ca0ce"/>
        <g id="Group_2268" data-name="Group 2268" opacity="0.4">
          <g id="Group_2267" data-name="Group 2267">
            <g id="Group_2266" data-name="Group 2266" clip-path="url(#clip-path-14)">
              <path id="Path_17990" data-name="Path 17990" d="M288,186.006,256.636,167.9a1.638,1.638,0,0,1-.685-1.307v-4.771c0-.5.307-.735.685-.517L288,179.411a1.637,1.637,0,0,1,.684,1.307v4.771c0,.5-.306.735-.684.517" fill="#c1ecff"/>
            </g>
          </g>
        </g>
        <path id="Path_17991" data-name="Path 17991" d="M263.172,169.259l-4.681-2.7a1.591,1.591,0,0,1-.665-1.269c0-.489.3-.714.665-.5l4.681,2.7a1.591,1.591,0,0,1,.664,1.27c0,.489-.3.714-.664.5" fill="#c1ecff"/>
        <path id="Path_17992" data-name="Path 17992" d="M267.162,170.676c0,.489-.344.688-.767.443a1.7,1.7,0,0,1-.768-1.329c0-.489.344-.688.768-.443a1.7,1.7,0,0,1,.767,1.329" fill="#14497a"/>
        <path id="Path_17993" data-name="Path 17993" d="M269.868,172.239c0,.489-.344.688-.767.443a1.7,1.7,0,0,1-.768-1.329c0-.489.344-.688.768-.443a1.7,1.7,0,0,1,.767,1.329" fill="#fff"/>
        <path id="Path_17994" data-name="Path 17994" d="M272.575,173.8c0,.489-.344.688-.767.443a1.7,1.7,0,0,1-.768-1.329c0-.489.344-.688.768-.443a1.7,1.7,0,0,1,.767,1.329" fill="#c1ecff"/>
        <path id="Path_17995" data-name="Path 17995" d="M275.282,175.364c0,.489-.344.688-.767.443a1.7,1.7,0,0,1-.768-1.329c0-.489.344-.688.768-.443a1.7,1.7,0,0,1,.767,1.329" fill="#fff"/>
        <path id="Path_17996" data-name="Path 17996" d="M286.684,183.35l-1.578-.91a1.023,1.023,0,0,1-.426-.815v-1.668c0-.314.191-.459.426-.323l1.578.911a1.02,1.02,0,0,1,.425.814v1.669c0,.314-.19.458-.425.322" fill="#c1ecff"/>
        <path id="Path_17997" data-name="Path 17997" d="M288.958,199.421,255.68,180.208a3.229,3.229,0,0,1-1.348-2.577v-6.345c0-.993.6-1.45,1.348-1.02l33.278,19.213a3.23,3.23,0,0,1,1.349,2.577V198.4c0,.994-.6,1.45-1.349,1.02" fill="#4ca0ce"/>
        <g id="Group_2271" data-name="Group 2271" opacity="0.4">
          <g id="Group_2270" data-name="Group 2270">
            <g id="Group_2269" data-name="Group 2269" clip-path="url(#clip-path-15)">
              <path id="Path_17998" data-name="Path 17998" d="M288,197.2l-31.367-18.11a1.638,1.638,0,0,1-.685-1.307v-4.771c0-.5.307-.735.685-.517L288,190.6a1.637,1.637,0,0,1,.684,1.307v4.771c0,.5-.306.735-.684.517" fill="#c1ecff"/>
            </g>
          </g>
        </g>
        <path id="Path_17999" data-name="Path 17999" d="M263.172,180.449l-4.681-2.7a1.591,1.591,0,0,1-.665-1.269c0-.489.3-.714.665-.5l4.681,2.7a1.591,1.591,0,0,1,.664,1.27c0,.489-.3.714-.664.5" fill="#c1ecff"/>
        <path id="Path_18000" data-name="Path 18000" d="M267.162,181.866c0,.489-.344.688-.767.443a1.7,1.7,0,0,1-.768-1.329c0-.489.344-.688.768-.443a1.7,1.7,0,0,1,.767,1.329" fill="#14497a"/>
        <path id="Path_18001" data-name="Path 18001" d="M269.868,183.429c0,.489-.344.688-.767.443a1.7,1.7,0,0,1-.768-1.329c0-.489.344-.688.768-.443a1.7,1.7,0,0,1,.767,1.329" fill="#14497a"/>
        <path id="Path_18002" data-name="Path 18002" d="M272.575,184.991c0,.489-.344.688-.767.443a1.7,1.7,0,0,1-.768-1.329c0-.489.344-.688.768-.443a1.7,1.7,0,0,1,.767,1.329" fill="#c1ecff"/>
        <path id="Path_18003" data-name="Path 18003" d="M275.282,186.554c0,.489-.344.688-.767.443a1.7,1.7,0,0,1-.768-1.329c0-.489.344-.688.768-.443a1.7,1.7,0,0,1,.767,1.329" fill="#14497a"/>
        <path id="Path_18004" data-name="Path 18004" d="M286.684,194.539l-1.578-.909a1.025,1.025,0,0,1-.426-.816v-1.668c0-.313.191-.458.426-.322l1.578.911a1.018,1.018,0,0,1,.425.814v1.668c0,.315-.19.458-.425.322" fill="#14497a"/>
        <path id="Path_18005" data-name="Path 18005" d="M288.958,210.611,255.68,191.4a3.229,3.229,0,0,1-1.348-2.577v-6.345c0-.993.6-1.45,1.348-1.02l33.278,19.213a3.23,3.23,0,0,1,1.349,2.577v6.345c0,.994-.6,1.45-1.349,1.02" fill="#4ca0ce"/>
        <g id="Group_2274" data-name="Group 2274" opacity="0.4">
          <g id="Group_2273" data-name="Group 2273">
            <g id="Group_2272" data-name="Group 2272" clip-path="url(#clip-path-16)">
              <path id="Path_18006" data-name="Path 18006" d="M288,208.386l-31.367-18.11a1.638,1.638,0,0,1-.685-1.307V184.2c0-.5.307-.735.685-.517L288,201.791a1.637,1.637,0,0,1,.684,1.307v4.771c0,.5-.306.735-.684.517" fill="#c1ecff"/>
            </g>
          </g>
        </g>
        <path id="Path_18007" data-name="Path 18007" d="M263.172,191.638l-4.681-2.7a1.591,1.591,0,0,1-.665-1.269c0-.489.3-.714.665-.5l4.681,2.7a1.591,1.591,0,0,1,.664,1.27c0,.489-.3.714-.664.5" fill="#c1ecff"/>
        <path id="Path_18008" data-name="Path 18008" d="M268.017,193.661c0,.924-.649,1.3-1.449.837a3.2,3.2,0,0,1-1.449-2.51c0-.925.648-1.3,1.449-.837a3.2,3.2,0,0,1,1.449,2.51" fill="#fff"/>
        <path id="Path_18009" data-name="Path 18009" d="M273.623,196.942c0,.489-.344.688-.767.443a1.7,1.7,0,0,1-.768-1.329c0-.489.344-.687.768-.443a1.7,1.7,0,0,1,.767,1.329" fill="#14497a"/>
        <path id="Path_18010" data-name="Path 18010" d="M276.33,198.5c0,.489-.344.688-.767.443a1.7,1.7,0,0,1-.768-1.329c0-.489.344-.688.768-.443a1.7,1.7,0,0,1,.767,1.329" fill="#c1ecff"/>
        <path id="Path_18011" data-name="Path 18011" d="M279.037,200.067c0,.489-.344.688-.767.443a1.7,1.7,0,0,1-.768-1.329c0-.489.344-.688.768-.443a1.7,1.7,0,0,1,.767,1.329" fill="#14497a"/>
        <path id="Path_18012" data-name="Path 18012" d="M286.684,205.729l-1.578-.91a1.023,1.023,0,0,1-.426-.815v-1.668c0-.314.191-.459.426-.323l1.578.911a1.02,1.02,0,0,1,.425.814v1.669c0,.314-.19.458-.425.322" fill="#c1ecff"/>
        <path id="Path_18013" data-name="Path 18013" d="M233.607,201.505a.484.484,0,0,1-.243-.9l6.564-3.8a2.425,2.425,0,0,0,1.207-2.092V191.24a.484.484,0,1,1,.968,0v3.474a3.4,3.4,0,0,1-1.691,2.93l-6.564,3.8a.48.48,0,0,1-.241.065" fill="#4ca0ce"/>
        <rect id="Rectangle_1871" data-name="Rectangle 1871" width="8.622" height="3.996" transform="translate(225.806 203.18) rotate(-29.837)" fill="#4ca0ce"/>
        <path id="Path_18014" data-name="Path 18014" d="M235.69,201.443a3.122,3.122,0,0,0-1.406-2.451c-.778-.453-1.412-.09-1.415.811a3.123,3.123,0,0,0,1.406,2.451c.779.453,1.412.09,1.415-.811" fill="#4ca0ce"/>
        <rect id="Rectangle_1872" data-name="Rectangle 1872" width="13.524" height="6.475" transform="translate(214.764 208.082) rotate(-29.832)" fill="#4ca0ce"/>
        <path id="Path_18015" data-name="Path 18015" d="M227.036,202.473l2.531-1.452a5.168,5.168,0,0,1,1.988,3.467l-2.531,1.451a5.17,5.17,0,0,1-1.988-3.466" fill="#3279aa"/>
        <path id="Path_18016" data-name="Path 18016" d="M230.392,205.491a5.06,5.06,0,0,0-2.278-3.972c-1.262-.733-2.288-.145-2.293,1.315a5.062,5.062,0,0,0,2.278,3.972c1.262.734,2.289.145,2.293-1.315" fill="#4ca0ce"/>
        <path id="Path_18017" data-name="Path 18017" d="M233.331,200.517a.4.4,0,0,0,0-.765,1.465,1.465,0,0,0-1.326,0,.4.4,0,0,0,0,.765,1.465,1.465,0,0,0,1.326,0" fill="#c1ecff"/>
        <path id="Path_18018" data-name="Path 18018" d="M132.576,202.333a.475.475,0,0,1-.24-.064l-5.75-3.309a1.518,1.518,0,0,1,.028-2.646l37.256-20.4a10.7,10.7,0,0,0,5.564-9.39v-46.3a2.244,2.244,0,0,0-3.318-1.97L153.7,125.03a.484.484,0,1,1-.463-.849l12.42-6.773a3.211,3.211,0,0,1,4.749,2.819v46.3a11.669,11.669,0,0,1-6.067,10.239l-37.255,20.4a.549.549,0,0,0-.011.958l5.749,3.308a.484.484,0,0,1-.242.9" fill="#4ca0ce"/>
        <rect id="Rectangle_1873" data-name="Rectangle 1873" width="8.622" height="3.996" transform="translate(147.539 125.93) rotate(-29.838)" fill="#4ca0ce"/>
        <path id="Path_18019" data-name="Path 18019" d="M157.423,124.193a3.122,3.122,0,0,0-1.406-2.45c-.778-.453-1.412-.09-1.415.81A3.125,3.125,0,0,0,156.008,125c.779.453,1.412.089,1.415-.812" fill="#4ca0ce"/>
        <rect id="Rectangle_1874" data-name="Rectangle 1874" width="13.524" height="6.475" transform="translate(136.497 130.832) rotate(-29.832)" fill="#4ca0ce"/>
        <path id="Path_18020" data-name="Path 18020" d="M148.769,125.224l2.531-1.452a5.168,5.168,0,0,1,1.988,3.467l-2.531,1.451a5.167,5.167,0,0,1-1.988-3.466" fill="#3279aa"/>
        <path id="Path_18021" data-name="Path 18021" d="M152.124,128.242a5.06,5.06,0,0,0-2.278-3.972c-1.262-.734-2.288-.145-2.293,1.315a5.062,5.062,0,0,0,2.278,3.972c1.262.734,2.289.145,2.293-1.315" fill="#4ca0ce"/>
        <path id="Path_18022" data-name="Path 18022" d="M155.063,123.268a.4.4,0,0,0,0-.765,1.463,1.463,0,0,0-1.325,0,.4.4,0,0,0,0,.765,1.465,1.465,0,0,0,1.326,0" fill="#c1ecff"/>
        <rect id="Rectangle_1875" data-name="Rectangle 1875" width="3.996" height="8.622" transform="matrix(0.498, -0.867, 0.867, 0.498, 128.858, 201.809)" fill="#4ca0ce"/>
        <path id="Path_18023" data-name="Path 18023" d="M128.441,200.9a3.122,3.122,0,0,1,1.406-2.451c.778-.453,1.412-.09,1.415.811a3.123,3.123,0,0,1-1.406,2.451c-.779.453-1.412.09-1.415-.811" fill="#4ca0ce"/>
        <rect id="Rectangle_1876" data-name="Rectangle 1876" width="6.475" height="13.524" transform="translate(134.415 206.425) rotate(-60.168)" fill="#4ca0ce"/>
        <path id="Path_18024" data-name="Path 18024" d="M137.1,201.927l-2.531-1.452a5.168,5.168,0,0,0-1.988,3.467l2.531,1.451a5.167,5.167,0,0,0,1.988-3.466" fill="#3279aa"/>
        <path id="Path_18025" data-name="Path 18025" d="M133.74,204.945a5.06,5.06,0,0,1,2.278-3.972c1.262-.733,2.288-.145,2.293,1.315a5.062,5.062,0,0,1-2.278,3.972c-1.262.734-2.289.145-2.293-1.315" fill="#4ca0ce"/>
        <path id="Path_18026" data-name="Path 18026" d="M130.8,199.971a.4.4,0,0,1,0-.765,1.463,1.463,0,0,1,1.325,0,.4.4,0,0,1,0,.765,1.468,1.468,0,0,1-1.326,0" fill="#c1ecff"/>
        <path id="Path_18027" data-name="Path 18027" d="M202.362,281.115l-82.59-47.683c-2.336-1.349-2.043-3.705.655-5.263l56.237-32.458c2.7-1.557,6.779-1.727,9.115-.378l82.59,47.684c2.337,1.349,2.043,3.705-.654,5.262l-56.238,32.458c-2.7,1.558-6.779,1.727-9.115.378" fill="#c1ecff"/>
        <path id="Path_18028" data-name="Path 18028" d="M269.944,234.113l-11.289-1.491-72.876-42.075c-2.337-1.348-6.418-1.179-9.115.378l-51.64,29.8-6.826-.9V223.7h.006a2.659,2.659,0,0,0,1.568,2.393l82.589,47.683c2.337,1.349,6.418,1.18,9.116-.378l56.237-32.458c1.518-.876,2.274-2,2.23-3.065Z" fill="#14497a"/>
        <path id="Path_18029" data-name="Path 18029" d="M215.188,207.526l-5.178-2.989H153.087l-28.063,16.191-6.826-.9V223.7h.007a2.657,2.657,0,0,0,1.567,2.392l82.59,47.683a8.541,8.541,0,0,0,4.7.882Z" fill="#3279aa"/>
        <path id="Path_18030" data-name="Path 18030" d="M121.227,220.227l-3.029-.4V223.7h.006a2.66,2.66,0,0,0,1.568,2.393l1.455.84Z" fill="#4ca0ce"/>
        <path id="Path_18031" data-name="Path 18031" d="M203.193,274.163a10.577,10.577,0,0,0,7.745-.481v-8.639h-7.745Z" fill="#225a89"/>
        <path id="Path_18032" data-name="Path 18032" d="M202.362,269.908l-82.59-47.683c-2.336-1.349-2.043-3.705.655-5.263L176.664,184.5c2.7-1.557,6.779-1.727,9.115-.378l82.59,47.684c2.337,1.349,2.043,3.705-.654,5.262L211.477,269.53c-2.7,1.558-6.779,1.727-9.115.378" fill="#c1ecff"/>
        <path id="Path_18033" data-name="Path 18033" d="M267.715,235.657l-56.238,32.458c-2.7,1.557-6.778,1.727-9.115.378L119.773,220.81a3.081,3.081,0,0,1-1.453-1.589c-.365,1.105.1,2.223,1.453,3l82.589,47.684c2.337,1.349,6.417,1.179,9.115-.378l56.238-32.458c1.812-1.047,2.534-2.454,2.107-3.674a4.393,4.393,0,0,1-2.107,2.259" fill="#fff"/>
        <path id="Path_18034" data-name="Path 18034" d="M154.9,206.439l-3.737-2.157c-.3-.174-.262-.476.084-.676l4.411-2.547a1.3,1.3,0,0,1,1.171-.048l3.736,2.157c.3.173.263.476-.084.676l-4.41,2.546a1.3,1.3,0,0,1-1.171.049" fill="#14497a"/>
        <path id="Path_18035" data-name="Path 18035" d="M160.669,209.771l-3.737-2.158c-.3-.173-.262-.475.084-.675l4.411-2.547a1.3,1.3,0,0,1,1.171-.048l3.736,2.157c.3.173.263.476-.084.676l-4.41,2.546a1.3,1.3,0,0,1-1.171.049" fill="#14497a"/>
        <path id="Path_18036" data-name="Path 18036" d="M166.44,213.1l-3.737-2.158c-.3-.173-.262-.475.084-.675l4.411-2.547a1.3,1.3,0,0,1,1.171-.048l3.736,2.157c.3.173.263.476-.084.676l-4.41,2.546a1.3,1.3,0,0,1-1.171.049" fill="#14497a"/>
        <path id="Path_18037" data-name="Path 18037" d="M174.422,210.351l-3.737-2.157c-.3-.174-.262-.476.084-.676l3.7-2.138a1.3,1.3,0,0,1,1.17-.048l3.737,2.157c.3.173.263.476-.084.676l-3.7,2.138a1.3,1.3,0,0,1-1.171.048" fill="#14497a"/>
        <path id="Path_18038" data-name="Path 18038" d="M180.192,213.683l-3.737-2.157c-.3-.174-.262-.476.084-.676l3.7-2.138a1.3,1.3,0,0,1,1.17-.048l3.737,2.157c.3.173.263.476-.084.676l-3.7,2.138a1.3,1.3,0,0,1-1.171.048" fill="#14497a"/>
        <path id="Path_18039" data-name="Path 18039" d="M185.963,217.014l-3.737-2.157c-.3-.174-.262-.476.084-.676l3.7-2.138a1.3,1.3,0,0,1,1.17-.048l3.737,2.157c.3.173.263.476-.084.676l-3.7,2.138a1.306,1.306,0,0,1-1.171.048" fill="#14497a"/>
        <path id="Path_18040" data-name="Path 18040" d="M191.734,220.346,188,218.189c-.3-.174-.262-.476.084-.676l3.7-2.138a1.3,1.3,0,0,1,1.17-.048l3.737,2.157c.3.173.263.476-.084.676l-3.7,2.138a1.306,1.306,0,0,1-1.171.048" fill="#14497a"/>
        <path id="Path_18041" data-name="Path 18041" d="M197.505,223.678l-3.737-2.157c-.3-.174-.262-.476.084-.676l3.7-2.138a1.3,1.3,0,0,1,1.17-.049l3.737,2.158c.3.173.263.476-.084.676l-3.7,2.137a1.3,1.3,0,0,1-1.171.049" fill="#14497a"/>
        <path id="Path_18042" data-name="Path 18042" d="M203.276,227.01l-3.737-2.158c-.3-.173-.262-.475.084-.675l3.7-2.138a1.3,1.3,0,0,1,1.17-.049l3.737,2.158c.3.173.263.476-.084.676l-3.7,2.137a1.3,1.3,0,0,1-1.171.049" fill="#14497a"/>
        <path id="Path_18043" data-name="Path 18043" d="M209.047,230.341l-3.737-2.157c-.3-.173-.262-.476.084-.675l3.7-2.138a1.3,1.3,0,0,1,1.17-.049L214,227.479c.3.174.263.477-.084.677l-3.7,2.136a1.3,1.3,0,0,1-1.171.049" fill="#14497a"/>
        <path id="Path_18044" data-name="Path 18044" d="M214.818,233.673l-3.738-2.158c-.3-.173-.262-.475.084-.675l3.7-2.138a1.3,1.3,0,0,1,1.17-.049l3.737,2.158c.3.173.263.476-.084.676l-3.7,2.137a1.3,1.3,0,0,1-1.17.049" fill="#14497a"/>
        <path id="Path_18045" data-name="Path 18045" d="M220.588,237.005l-3.737-2.158c-.3-.173-.262-.475.084-.675l3.7-2.138a1.3,1.3,0,0,1,1.17-.049l3.737,2.158c.3.173.263.476-.084.676l-3.7,2.137a1.3,1.3,0,0,1-1.171.049" fill="#14497a"/>
        <path id="Path_18046" data-name="Path 18046" d="M226.359,240.337l-3.737-2.158c-.3-.173-.262-.475.084-.675l3.7-2.138a1.3,1.3,0,0,1,1.17-.049l3.737,2.158c.3.173.263.476-.084.676l-3.7,2.137a1.3,1.3,0,0,1-1.171.049" fill="#14497a"/>
        <path id="Path_18047" data-name="Path 18047" d="M182.925,208.773l-3.737-2.158c-.3-.173-.262-.475.084-.675l3.7-2.138a1.3,1.3,0,0,1,1.17-.049l3.737,2.158c.3.173.263.476-.084.676l-3.7,2.137a1.3,1.3,0,0,1-1.171.049" fill="#3279aa"/>
        <path id="Path_18048" data-name="Path 18048" d="M177.068,205.392l-3.737-2.158c-.3-.173-.262-.475.084-.675l3.7-2.138a1.3,1.3,0,0,1,1.17-.049l3.737,2.158c.3.173.263.476-.084.676l-3.7,2.137a1.3,1.3,0,0,1-1.171.049" fill="#3279aa"/>
        <path id="Path_18049" data-name="Path 18049" d="M171.2,202.005l-8.048-4.647c-.3-.173-.263-.475.084-.675l3.7-2.138a1.3,1.3,0,0,1,1.171-.049l8.048,4.647c.3.173.263.476-.084.676l-3.7,2.138a1.3,1.3,0,0,1-1.171.048" fill="#14497a"/>
        <path id="Path_18050" data-name="Path 18050" d="M175.3,197.886l-6.531-3.771c-.3-.173-.263-.476.084-.676l3.7-2.137a1.3,1.3,0,0,1,1.171-.049l6.531,3.771c.3.173.263.476-.084.676l-3.7,2.138a1.3,1.3,0,0,1-1.171.048" fill="#14497a"/>
        <path id="Path_18051" data-name="Path 18051" d="M188.7,212.1l-3.737-2.158c-.3-.173-.262-.475.084-.675l3.7-2.138a1.3,1.3,0,0,1,1.17-.049l3.737,2.158c.3.173.263.476-.084.676l-3.7,2.137a1.3,1.3,0,0,1-1.171.049" fill="#3279aa"/>
        <path id="Path_18052" data-name="Path 18052" d="M194.466,215.437l-3.737-2.158c-.3-.173-.262-.475.084-.675l3.7-2.138a1.3,1.3,0,0,1,1.17-.049l3.737,2.158c.3.173.263.476-.084.676l-3.7,2.137a1.3,1.3,0,0,1-1.171.049" fill="#14497a"/>
        <path id="Path_18053" data-name="Path 18053" d="M200.237,218.769l-3.737-2.158c-.3-.173-.262-.475.084-.675l3.7-2.138a1.3,1.3,0,0,1,1.17-.049l3.737,2.158c.3.173.263.476-.084.676l-3.7,2.137a1.3,1.3,0,0,1-1.171.049" fill="#14497a"/>
        <path id="Path_18054" data-name="Path 18054" d="M206.008,222.1l-3.737-2.158c-.3-.173-.262-.475.084-.675l3.7-2.138a1.3,1.3,0,0,1,1.17-.049l3.737,2.158c.3.173.263.476-.084.676l-3.7,2.137a1.3,1.3,0,0,1-1.171.049" fill="#14497a"/>
        <path id="Path_18055" data-name="Path 18055" d="M211.779,225.432l-3.737-2.157c-.3-.174-.262-.476.084-.676l3.7-2.138a1.3,1.3,0,0,1,1.17-.048l3.737,2.157c.3.173.263.476-.084.676l-3.7,2.138a1.3,1.3,0,0,1-1.171.048" fill="#14497a"/>
        <path id="Path_18056" data-name="Path 18056" d="M217.55,228.764l-3.737-2.157c-.3-.174-.262-.476.084-.676l3.7-2.138a1.3,1.3,0,0,1,1.17-.048l3.737,2.157c.3.173.263.476-.084.676l-3.7,2.138a1.3,1.3,0,0,1-1.171.048" fill="#14497a"/>
        <path id="Path_18057" data-name="Path 18057" d="M223.32,232.1l-3.737-2.157c-.3-.174-.262-.476.084-.676l3.7-2.138a1.3,1.3,0,0,1,1.17-.048l3.737,2.157c.3.173.263.476-.084.676l-3.7,2.138a1.3,1.3,0,0,1-1.171.048" fill="#14497a"/>
        <path id="Path_18058" data-name="Path 18058" d="M229.091,235.428l-3.737-2.157c-.3-.174-.262-.476.084-.676l3.7-2.138a1.3,1.3,0,0,1,1.17-.048l3.737,2.157c.3.173.263.476-.084.676l-3.7,2.138a1.306,1.306,0,0,1-1.171.048" fill="#14497a"/>
        <path id="Path_18059" data-name="Path 18059" d="M234.862,238.76l-3.737-2.157c-.3-.174-.262-.476.084-.676l3.7-2.138a1.3,1.3,0,0,1,1.17-.048l3.737,2.157c.3.173.263.476-.084.676l-3.7,2.138a1.306,1.306,0,0,1-1.171.048" fill="#14497a"/>
        <path id="Path_18060" data-name="Path 18060" d="M245.121,244.683l-8.153-4.707c-.3-.174-.263-.476.083-.676l3.7-2.138a1.3,1.3,0,0,1,1.171-.049l8.153,4.708c.3.173.263.476-.084.676l-3.7,2.137a1.3,1.3,0,0,1-1.171.049" fill="#14497a"/>
        <path id="Path_18061" data-name="Path 18061" d="M256.357,238.2l-6.882-3.973c-.3-.173-.263-.476.084-.676l3.7-2.138a1.3,1.3,0,0,1,1.17-.048l6.881,3.973c.3.173.263.476-.084.676l-3.7,2.137a1.3,1.3,0,0,1-1.17.049" fill="#14497a"/>
        <path id="Path_18062" data-name="Path 18062" d="M198.8,211.453l-3.737-2.158c-.3-.173-.262-.475.084-.675l3.7-2.138a1.3,1.3,0,0,1,1.17-.049l3.737,2.158c.3.173.263.476-.084.676l-3.7,2.137a1.3,1.3,0,0,1-1.171.049" fill="#14497a"/>
        <path id="Path_18063" data-name="Path 18063" d="M192.887,208.039l-3.737-2.157c-.3-.174-.262-.476.084-.676l3.7-2.138a1.3,1.3,0,0,1,1.17-.048l3.737,2.157c.3.173.263.476-.084.676l-3.7,2.138a1.306,1.306,0,0,1-1.171.048" fill="#14497a"/>
        <path id="Path_18064" data-name="Path 18064" d="M186.973,204.624l-3.737-2.157c-.3-.174-.262-.476.084-.676l3.7-2.138a1.3,1.3,0,0,1,1.17-.048l3.737,2.157c.3.173.263.476-.084.676l-3.7,2.138a1.3,1.3,0,0,1-1.171.048" fill="#3279aa"/>
        <path id="Path_18065" data-name="Path 18065" d="M181.058,201.209l-3.737-2.158c-.3-.173-.262-.475.084-.675l3.7-2.138a1.3,1.3,0,0,1,1.17-.049l3.737,2.158c.3.173.263.476-.084.676l-3.7,2.137a1.3,1.3,0,0,1-1.171.049" fill="#14497a"/>
        <path id="Path_18066" data-name="Path 18066" d="M204.572,214.785l-3.737-2.158c-.3-.173-.262-.475.084-.675l3.7-2.138a1.3,1.3,0,0,1,1.17-.049l3.737,2.158c.3.173.263.476-.084.676l-3.7,2.137a1.3,1.3,0,0,1-1.171.049" fill="#14497a"/>
        <path id="Path_18067" data-name="Path 18067" d="M210.343,218.117l-3.737-2.158c-.3-.173-.262-.475.084-.675l3.7-2.138a1.3,1.3,0,0,1,1.17-.049l3.737,2.158c.3.173.263.476-.084.676l-3.7,2.137a1.3,1.3,0,0,1-1.171.049" fill="#14497a"/>
        <path id="Path_18068" data-name="Path 18068" d="M216.114,221.449l-3.737-2.158c-.3-.173-.262-.475.084-.675l3.7-2.138a1.3,1.3,0,0,1,1.17-.049l3.737,2.158c.3.173.263.476-.084.676l-3.7,2.137a1.3,1.3,0,0,1-1.171.049" fill="#14497a"/>
        <path id="Path_18069" data-name="Path 18069" d="M221.885,224.781l-3.737-2.158c-.3-.173-.262-.475.084-.675l3.7-2.138a1.3,1.3,0,0,1,1.17-.049l3.737,2.158c.3.173.263.476-.084.676l-3.7,2.137a1.3,1.3,0,0,1-1.171.049" fill="#14497a"/>
        <path id="Path_18070" data-name="Path 18070" d="M227.656,228.112l-3.737-2.158c-.3-.173-.262-.475.084-.675l3.7-2.138a1.3,1.3,0,0,1,1.17-.049l3.737,2.158c.3.173.263.476-.084.676l-3.7,2.137a1.3,1.3,0,0,1-1.171.049" fill="#14497a"/>
        <path id="Path_18071" data-name="Path 18071" d="M233.426,231.444l-3.737-2.157c-.3-.174-.262-.476.084-.676l3.7-2.138a1.3,1.3,0,0,1,1.17-.048l3.737,2.157c.3.173.263.476-.084.676l-3.7,2.138a1.3,1.3,0,0,1-1.171.048" fill="#14497a"/>
        <path id="Path_18072" data-name="Path 18072" d="M239.2,234.776l-3.737-2.157c-.3-.174-.262-.476.084-.676l3.7-2.138a1.3,1.3,0,0,1,1.17-.048l3.737,2.157c.3.173.263.476-.084.676l-3.7,2.138a1.3,1.3,0,0,1-1.171.048" fill="#14497a"/>
        <path id="Path_18073" data-name="Path 18073" d="M244.968,238.108l-3.737-2.157c-.3-.174-.262-.476.084-.676l3.7-2.138a1.3,1.3,0,0,1,1.17-.048l3.737,2.157c.3.173.263.476-.084.676l-3.7,2.138a1.3,1.3,0,0,1-1.171.048" fill="#14497a"/>
        <path id="Path_18074" data-name="Path 18074" d="M250.739,241.439,247,239.282c-.3-.174-.262-.476.084-.676l3.7-2.138a1.3,1.3,0,0,1,1.17-.048l3.737,2.157c.3.173.263.476-.084.676l-3.7,2.138a1.306,1.306,0,0,1-1.171.048" fill="#14497a"/>
        <path id="Path_18075" data-name="Path 18075" d="M195.763,203.212l-3.737-2.158c-.3-.173-.262-.475.084-.675l3.7-2.138a1.3,1.3,0,0,1,1.17-.049l3.737,2.158c.3.173.263.476-.084.676l-3.7,2.137a1.3,1.3,0,0,1-1.171.049" fill="#14497a"/>
        <path id="Path_18076" data-name="Path 18076" d="M190.021,199.9l-3.737-2.157c-.3-.174-.262-.476.084-.676l3.7-2.138a1.3,1.3,0,0,1,1.17-.049l3.737,2.158c.3.173.263.476-.084.676l-3.7,2.137a1.3,1.3,0,0,1-1.171.049" fill="#14497a"/>
        <path id="Path_18077" data-name="Path 18077" d="M184.278,196.582l-3.737-2.158c-.3-.173-.262-.475.084-.675l3.7-2.138a1.3,1.3,0,0,1,1.17-.049l3.737,2.158c.3.173.263.476-.084.676l-3.7,2.137a1.3,1.3,0,0,1-1.171.049" fill="#14497a"/>
        <path id="Path_18078" data-name="Path 18078" d="M178.536,193.267l-3.737-2.158c-.3-.173-.262-.475.084-.675l3.7-2.138a1.3,1.3,0,0,1,1.17-.049l3.737,2.158c.3.173.263.476-.084.676l-3.7,2.137a1.3,1.3,0,0,1-1.171.049" fill="#14497a"/>
        <path id="Path_18079" data-name="Path 18079" d="M184.441,189.858,180.7,187.7c-.3-.173-.262-.475.084-.675l1.224-.707a1.3,1.3,0,0,1,1.171-.049l3.737,2.158c.3.173.262.476-.084.676l-1.224.706a1.3,1.3,0,0,1-1.171.049" fill="#14497a"/>
        <path id="Path_18080" data-name="Path 18080" d="M191.934,194.184l-3.737-2.157c-.3-.174-.262-.476.084-.676l1.224-.707a1.3,1.3,0,0,1,1.171-.048l3.737,2.157c.3.173.262.476-.084.676l-1.224.707a1.306,1.306,0,0,1-1.171.048" fill="#14497a"/>
        <path id="Path_18081" data-name="Path 18081" d="M197.653,197.485l-3.737-2.158c-.3-.173-.262-.475.084-.675l1.224-.707a1.3,1.3,0,0,1,1.171-.049l3.737,2.158c.3.173.262.476-.084.676l-1.224.706a1.3,1.3,0,0,1-1.171.049" fill="#14497a"/>
        <path id="Path_18082" data-name="Path 18082" d="M203.371,200.787l-3.737-2.158c-.3-.173-.262-.475.084-.675l1.224-.707a1.3,1.3,0,0,1,1.171-.049l3.737,2.158c.3.173.262.476-.084.676l-1.224.706a1.3,1.3,0,0,1-1.171.049" fill="#14497a"/>
        <path id="Path_18083" data-name="Path 18083" d="M209.089,204.088l-3.737-2.157c-.3-.174-.262-.476.084-.676l1.224-.707a1.3,1.3,0,0,1,1.171-.048l3.737,2.157c.3.173.262.476-.084.676l-1.224.707a1.3,1.3,0,0,1-1.171.048" fill="#14497a"/>
        <path id="Path_18084" data-name="Path 18084" d="M241.013,222.519l-3.737-2.157c-.3-.174-.262-.476.084-.676l1.224-.707a1.3,1.3,0,0,1,1.171-.048l3.737,2.157c.3.173.262.476-.084.676l-1.224.707a1.306,1.306,0,0,1-1.171.048" fill="#14497a"/>
        <path id="Path_18085" data-name="Path 18085" d="M246.731,225.821l-3.737-2.158c-.3-.173-.262-.475.084-.675l1.224-.707a1.3,1.3,0,0,1,1.171-.049l3.737,2.158c.3.173.262.476-.084.676l-1.224.706a1.3,1.3,0,0,1-1.171.049" fill="#14497a"/>
        <path id="Path_18086" data-name="Path 18086" d="M252.449,229.122l-3.737-2.158c-.3-.173-.262-.475.084-.675l1.224-.707a1.3,1.3,0,0,1,1.171-.049l3.737,2.158c.3.173.262.476-.084.676l-1.224.706a1.3,1.3,0,0,1-1.171.049" fill="#14497a"/>
        <path id="Path_18087" data-name="Path 18087" d="M258.167,232.424l-3.737-2.157c-.3-.174-.262-.476.084-.676l1.224-.707a1.3,1.3,0,0,1,1.171-.048l3.737,2.157c.3.173.262.476-.084.676l-1.224.707a1.3,1.3,0,0,1-1.171.048" fill="#14497a"/>
        <path id="Path_18088" data-name="Path 18088" d="M201.533,206.544l-3.737-2.158c-.3-.173-.262-.475.084-.675l3.7-2.138a1.3,1.3,0,0,1,1.17-.049l3.737,2.158c.3.173.263.476-.084.676l-3.7,2.137a1.3,1.3,0,0,1-1.171.049" fill="#14497a"/>
        <path id="Path_18089" data-name="Path 18089" d="M207.3,209.876l-3.737-2.157c-.3-.174-.262-.476.084-.676l3.7-2.138a1.3,1.3,0,0,1,1.17-.048l3.737,2.157c.3.173.263.476-.084.676l-3.7,2.138a1.3,1.3,0,0,1-1.171.048" fill="#14497a"/>
        <path id="Path_18090" data-name="Path 18090" d="M213.075,213.208l-3.737-2.157c-.3-.174-.262-.476.084-.676l3.7-2.138a1.3,1.3,0,0,1,1.17-.048l3.737,2.157c.3.173.263.476-.084.676l-3.7,2.138a1.3,1.3,0,0,1-1.171.048" fill="#14497a"/>
        <path id="Path_18091" data-name="Path 18091" d="M218.846,216.539l-3.737-2.157c-.3-.174-.262-.476.084-.676l3.7-2.138a1.3,1.3,0,0,1,1.17-.048l3.737,2.157c.3.173.263.476-.084.676l-3.7,2.138a1.3,1.3,0,0,1-1.171.048" fill="#14497a"/>
        <path id="Path_18092" data-name="Path 18092" d="M224.617,219.871l-3.737-2.157c-.3-.174-.262-.476.084-.676l3.7-2.138a1.3,1.3,0,0,1,1.17-.048l3.737,2.157c.3.173.263.476-.084.676l-3.7,2.138a1.306,1.306,0,0,1-1.171.048" fill="#14497a"/>
        <path id="Path_18093" data-name="Path 18093" d="M230.388,223.2l-3.737-2.157c-.3-.174-.262-.476.084-.676l3.7-2.138a1.3,1.3,0,0,1,1.17-.048l3.737,2.157c.3.173.263.476-.084.676l-3.7,2.138a1.306,1.306,0,0,1-1.171.048" fill="#14497a"/>
        <path id="Path_18094" data-name="Path 18094" d="M236.158,226.535l-3.737-2.157c-.3-.174-.262-.476.084-.676l3.7-2.138a1.3,1.3,0,0,1,1.17-.049l3.737,2.158c.3.173.263.476-.084.676l-3.7,2.137a1.3,1.3,0,0,1-1.171.049" fill="#14497a"/>
        <path id="Path_18095" data-name="Path 18095" d="M241.929,229.867l-3.737-2.158c-.3-.173-.262-.475.084-.675l3.7-2.138a1.3,1.3,0,0,1,1.17-.049l3.737,2.158c.3.173.263.476-.084.676l-3.7,2.137a1.3,1.3,0,0,1-1.171.049" fill="#14497a"/>
        <path id="Path_18096" data-name="Path 18096" d="M247.7,233.2l-3.737-2.158c-.3-.173-.262-.475.084-.675l3.7-2.138a1.3,1.3,0,0,1,1.17-.049l3.737,2.158c.3.173.263.476-.084.676l-3.7,2.137a1.3,1.3,0,0,1-1.171.049" fill="#14497a"/>
        <path id="Path_18097" data-name="Path 18097" d="M168.541,206.955,157.536,200.6c-.3-.173-.263-.476.084-.676l3.7-2.137a1.3,1.3,0,0,1,1.171-.049l11.005,6.354c.3.173.263.476-.084.676l-3.7,2.138a1.306,1.306,0,0,1-1.171.048" fill="#14497a"/>
        <path id="Path_18098" data-name="Path 18098" d="M239.437,247.887l-11-6.354c-.3-.173-.263-.476.084-.676l3.7-2.138a1.3,1.3,0,0,1,1.171-.048l11,6.354c.3.173.263.476-.084.676l-3.7,2.137a1.3,1.3,0,0,1-1.171.049" fill="#14497a"/>
        <path id="Path_18099" data-name="Path 18099" d="M216.358,241.923l-3.737-2.158c-.3-.173-.262-.475.084-.675l4.411-2.547a1.3,1.3,0,0,1,1.171-.048l3.736,2.157c.3.173.263.476-.084.676l-4.41,2.546a1.3,1.3,0,0,1-1.171.049" fill="#14497a"/>
        <path id="Path_18100" data-name="Path 18100" d="M174.451,217.727l-5.977-3.45c-.3-.174-.263-.476.084-.676l4.411-2.547a1.3,1.3,0,0,1,1.17-.048l5.976,3.45c.3.173.263.476-.084.676l-4.41,2.546a1.3,1.3,0,0,1-1.17.049" fill="#14497a"/>
        <path id="Path_18101" data-name="Path 18101" d="M210.8,238.712l-5.976-3.45c-.3-.174-.263-.476.084-.676l4.411-2.547a1.3,1.3,0,0,1,1.17-.048l5.976,3.45c.3.173.263.476-.084.676l-4.41,2.546a1.3,1.3,0,0,1-1.171.049" fill="#14497a"/>
        <path id="Path_18102" data-name="Path 18102" d="M182.777,222.534l-5.976-3.45c-.3-.174-.263-.476.084-.676l4.411-2.547a1.3,1.3,0,0,1,1.17-.048l5.976,3.45c.3.173.263.476-.084.676l-4.41,2.546a1.3,1.3,0,0,1-1.171.049" fill="#14497a"/>
        <path id="Path_18103" data-name="Path 18103" d="M182.506,215.836l25.983,15a.356.356,0,0,1,0,.674l-4.5,2.6a1.29,1.29,0,0,1-1.167,0l-25.983-15Z" fill="#14497a"/>
        <path id="Path_18104" data-name="Path 18104" d="M232.487,247.964l4.162,2.4c.246.142.216.39-.068.554l-1.8,1.042a1.065,1.065,0,0,1-.959.04l-4.163-2.4c-.246-.142-.215-.39.069-.554l1.8-1.041a1.065,1.065,0,0,1,.959-.04" fill="#14497a"/>
        <path id="Path_18105" data-name="Path 18105" d="M226.668,244.6l4.163,2.4c.245.142.215.39-.069.554l-1.8,1.042a1.065,1.065,0,0,1-.959.04l-4.163-2.4c-.246-.142-.215-.39.069-.554l1.8-1.041a1.065,1.065,0,0,1,.959-.04" fill="#14497a"/>
        <path id="Path_18106" data-name="Path 18106" d="M220.9,241.272l4.163,2.4c.245.142.215.39-.069.554l-1.8,1.042a1.065,1.065,0,0,1-.959.04l-4.163-2.4c-.246-.142-.215-.39.069-.553l1.805-1.042a1.065,1.065,0,0,1,.959-.04" fill="#14497a"/>
        <path id="Path_18107" data-name="Path 18107" d="M229.855,242.764l4.162,2.4c.246.142.216.39-.068.554l-1.805,1.042a1.065,1.065,0,0,1-.959.04l-4.163-2.4c-.246-.142-.215-.39.069-.554l1.8-1.041a1.065,1.065,0,0,1,.959-.04" fill="#14497a"/>
        <path id="Path_18108" data-name="Path 18108" d="M180.886,251.963a3.514,3.514,0,0,1-1.74-.409L150.3,234.9a1.467,1.467,0,0,1-.827-1.263,1.865,1.865,0,0,1,1.077-1.526l19.1-11.024a4.3,4.3,0,0,1,3.93-.145L202.419,237.6a1.467,1.467,0,0,1,.829,1.262,1.864,1.864,0,0,1-1.078,1.527l-19.1,11.024a4.48,4.48,0,0,1-2.189.553m-9.042-30.527a3.607,3.607,0,0,0-1.747.432L151,232.892c-.392.227-.627.506-.627.746s.236.4.377.484L179.6,250.775a3.43,3.43,0,0,0,3.029-.145l19.1-11.024c.393-.226.626-.506.626-.746s-.236-.4-.376-.482l-28.844-16.655a2.632,2.632,0,0,0-1.282-.287" fill="#4ca0ce"/>
        <path id="Path_18109" data-name="Path 18109" d="M174.223,233.82l2.827-1.584a1.16,1.16,0,0,1,1.025.049c.3.174.336.434.074.581l-2.827,1.584a1.16,1.16,0,0,1-1.025-.049c-.3-.174-.336-.434-.074-.581" fill="#fff"/>
        <path id="Path_18110" data-name="Path 18110" d="M168.219,237.183l4.169-2.336a1.157,1.157,0,0,1,1.024.049c.3.174.337.434.075.581l-4.169,2.336a1.16,1.16,0,0,1-1.025-.049c-.3-.174-.336-.434-.074-.581" fill="#fff"/>
        <path id="Path_18111" data-name="Path 18111" d="M183.579,239.014l5.4-3.023a1.157,1.157,0,0,1,1.024.049c.3.173.336.433.075.58l-5.4,3.024a1.162,1.162,0,0,1-1.026-.049c-.3-.174-.336-.434-.073-.581" fill="#fff"/>
        <path id="Path_18112" data-name="Path 18112" d="M182.6,234.342l1.766-.989a1.159,1.159,0,0,1,1.025.048c.3.174.336.434.074.581l-1.766.99a1.16,1.16,0,0,1-1.025-.049c-.3-.174-.336-.434-.074-.581" fill="#fff"/>
        <path id="Path_18113" data-name="Path 18113" d="M178.632,231.349l1.134-.635a1.157,1.157,0,0,1,1.024.049c.3.173.337.434.074.581l-1.133.635a1.16,1.16,0,0,1-1.025-.049c-.3-.174-.336-.434-.074-.581" fill="#fff"/>
        <path id="Path_18114" data-name="Path 18114" d="M173.754,228.865l1.408-.789a1.157,1.157,0,0,1,1.024.049c.3.174.337.434.075.581l-1.408.789a1.163,1.163,0,0,1-1.025-.049c-.3-.174-.336-.434-.074-.581" fill="#fff"/>
        <path id="Path_18115" data-name="Path 18115" d="M168.277,231.933l3.712-2.08a1.161,1.161,0,0,1,1.024.049c.3.174.337.434.075.581l-3.712,2.08a1.16,1.16,0,0,1-1.025-.049c-.3-.174-.336-.434-.074-.581" fill="#fff"/>
        <path id="Path_18116" data-name="Path 18116" d="M170.191,228.252l2.669-1.495a1.157,1.157,0,0,1,1.024.049c.3.173.337.434.075.58l-2.669,1.5a1.159,1.159,0,0,1-1.025-.049c-.3-.174-.336-.434-.074-.581" fill="#fff"/>
        <path id="Path_18117" data-name="Path 18117" d="M176.035,238.022l4.716-2.643a1.16,1.16,0,0,1,1.025.049c.3.174.336.434.074.581l-4.717,2.643a1.16,1.16,0,0,1-1.025-.049c-.3-.174-.336-.434-.073-.581" fill="#fff"/>
        <path id="Path_18118" data-name="Path 18118" d="M178.451,239.278l8.222-4.606a1.157,1.157,0,0,1,1.024.049c.3.173.337.434.074.58l-8.221,4.607a1.16,1.16,0,0,1-1.025-.049c-.3-.174-.336-.434-.074-.581" fill="#fff"/>
        <path id="Path_18119" data-name="Path 18119" d="M177.351,234.676l4.717-2.643a1.16,1.16,0,0,1,1.025.049c.3.174.336.434.074.581l-4.717,2.643a1.16,1.16,0,0,1-1.025-.049c-.3-.174-.336-.434-.074-.581" fill="#fff"/>
        <path id="Path_18120" data-name="Path 18120" d="M172.457,240.027l1.714-.96a1.16,1.16,0,0,1,1.024.048c.3.174.337.434.075.581l-1.714.961a1.16,1.16,0,0,1-1.025-.049c-.3-.174-.336-.434-.074-.581" fill="#fff"/>
        <path id="Path_18121" data-name="Path 18121" d="M171.793,232.572l5.671-3.177a1.158,1.158,0,0,1,1.024.049c.3.174.337.434.074.581l-5.67,3.177a1.16,1.16,0,0,1-1.025-.049c-.3-.174-.336-.434-.074-.581" fill="#fff"/>
        <path id="Path_18122" data-name="Path 18122" d="M137.414,177.935a11.688,11.688,0,0,0-1.5-.716h.015l-2.882-1.278.218.5a18.651,18.651,0,0,0-6.758-.072l.134-.558-3.39,1.5h.02a11.642,11.642,0,0,0-1.268.619c-4.255,2.456-4.255,6.439,0,8.9a17.028,17.028,0,0,0,15.409,0c4.255-2.456,4.255-6.439,0-8.9" fill="#c1ecff"/>
        <path id="Path_18123" data-name="Path 18123" d="M133.32,180.254a7.982,7.982,0,0,1-7.221,0c-1.994-1.151-1.994-3.018,0-4.169a7.982,7.982,0,0,1,7.221,0c1.994,1.151,1.994,3.018,0,4.169" fill="#4ca0ce"/>
        <path id="Path_18124" data-name="Path 18124" d="M129.709,178.964h0a1.736,1.736,0,0,1-1.736-1.736V155.287h3.472v21.941a1.736,1.736,0,0,1-1.736,1.736" fill="#4ca0ce"/>
        <path id="Path_18125" data-name="Path 18125" d="M130.93,156.084a2.773,2.773,0,0,1-2.506,0,.764.764,0,0,1,0-1.447,2.773,2.773,0,0,1,2.506,0,.764.764,0,0,1,0,1.447" fill="#4ca0ce"/>
        <path id="Path_18126" data-name="Path 18126" d="M129.709,156.041h0a1.407,1.407,0,0,1-1.407-1.407V134.009h2.814v20.625a1.407,1.407,0,0,1-1.407,1.407" fill="#c1ecff"/>
        <path id="Path_18127" data-name="Path 18127" d="M149.94,144.816v-.807l1.141-.166,1.277-.955a.86.86,0,0,1,.842-.032l.943.545.934-.135v.818h0a.31.31,0,0,1-.215.247l-2.975,1.325a.932.932,0,0,1-.779-.029l-.991-.572a.288.288,0,0,1-.168-.24Z" fill="#3279aa"/>
        <path id="Path_18128" data-name="Path 18128" d="M150.064,143.792l2.295-1.718a.862.862,0,0,1,.842-.031l1.712.989c.239.138.213.366-.054.486l-2.976,1.325a.936.936,0,0,1-.779-.029l-.991-.572c-.209-.121-.231-.314-.049-.45" fill="#4ca0ce"/>
        <path id="Path_18129" data-name="Path 18129" d="M146.191,147.688a1.869,1.869,0,0,0,.919-.227l3.567-2.059a.412.412,0,0,0-.413-.713l-3.566,2.059a1.177,1.177,0,0,1-1.014,0l-5.928-3.434a.412.412,0,0,0-.412.713l5.928,3.434a1.869,1.869,0,0,0,.919.227" fill="#c1ecff"/>
      </g>
    </g>
    <g id="Group_2278" data-name="Group 2278">
      <g id="Group_2277" data-name="Group 2277" clip-path="url(#clip-path-17)">
        <rect id="Rectangle_1878" data-name="Rectangle 1878" width="5.955" height="4.778" transform="translate(111.669 135.364)" fill="url(#radial-gradient)"/>
      </g>
    </g>
    <g id="Group_2280" data-name="Group 2280">
      <g id="Group_2279" data-name="Group 2279" clip-path="url(#clip-path)">
        <path id="Path_18131" data-name="Path 18131" d="M148.675,135.2a7.558,7.558,0,0,1-.964-.6l-12.2-8.944c-2.2-1.615-4.472-2.031-6.226-1.142-.046.024-.085.055-.13.08l-.012,0-16.857,9.78,1.515.5,5.9,2.677,8.03,5.7,6.338,3.364.288.061c1.477-1.245,3.132-2.313,4.039-4.128,1.569-2.746,5.939-3.532,8.508-5.758.259.165.518.319.777.452a5.749,5.749,0,0,0,1-2.038" fill="#4ca0ce"/>
        <path id="Path_18132" data-name="Path 18132" d="M154.028,131.167a1.123,1.123,0,0,0-.691.241l0,0-16.495,9.548.6,2.466.618-.3a16.934,16.934,0,0,1-3.705,3.548l1.864.4,16.155-9.4c.074-.032.151-.059.223-.1a4.106,4.106,0,0,0,.623-.4l.028-.016h-.011a5.692,5.692,0,0,0,1.925-4.664V132.3a1.134,1.134,0,0,0-1.134-1.134" fill="#3279aa"/>
        <path id="Path_18133" data-name="Path 18133" d="M131.441,124.059a6.9,6.9,0,0,1,3.237,1.048,6.9,6.9,0,0,0-3.237-1.048" fill="#ead9db"/>
        <path id="Path_18134" data-name="Path 18134" d="M138.952,141.721v-.194a1.133,1.133,0,0,0-2.267,0v.194c0,1.515-.482,2.629-1.322,3.054-.95.481-2.393.128-3.861-.948L119.3,134.883a6.5,6.5,0,0,0-5.415-1.441l10.08-5.848-11.68,6.775,1.515.5,5.9,2.676,8.03,5.7,6.338,3.363.287.061c1.478-1.244,3.133-2.312,4.04-4.127a4.779,4.779,0,0,1,.554-.76c0-.022,0-.041,0-.063" fill="#4ca0ce"/>
        <path id="Path_18135" data-name="Path 18135" d="M134.062,147.622a7.356,7.356,0,0,1-4.248-1.6l-12.2-8.944c-1.467-1.075-2.91-1.429-3.861-.948-.84.425-1.322,1.539-1.322,3.054a1.134,1.134,0,0,1-2.267,0c0-2.4.934-4.25,2.564-5.077,1.753-.888,4.023-.472,6.226,1.143l12.205,8.943c1.468,1.076,2.911,1.429,3.861.949.84-.426,1.322-1.539,1.322-3.054v-.194a1.133,1.133,0,1,1,2.267,0v.194c0,2.4-.935,4.25-2.564,5.076a4.335,4.335,0,0,1-1.978.458" fill="#c1ecff"/>
        <path id="Path_18136" data-name="Path 18136" d="M124.47,167.618s-2.3-1.159-3.71.567-3.43,5.8-3.493,8.554,2.179,2.567,3.512,1.916,5.224-6.3,5.46-7.4a3.842,3.842,0,0,0-.652-2.9c-.375-.292-1.117-.738-1.117-.738" fill="#14497a"/>
        <path id="Path_18137" data-name="Path 18137" d="M124.972,167.064l.106,2.382a1.349,1.349,0,0,1-.672,1.238,2.649,2.649,0,0,1-1.774.276c-1.731-.278-1.886-.773-2.01-3.154s4.35-.742,4.35-.742" fill="#4ca0ce"/>
        <path id="Path_18138" data-name="Path 18138" d="M116.056,163.038s-2.3-1.158-3.71.567-3.43,5.8-3.492,8.555,2.178,2.567,3.511,1.916,5.224-6.3,5.46-7.4a3.84,3.84,0,0,0-.652-2.9c-.375-.292-1.117-.739-1.117-.739" fill="#14497a"/>
        <path id="Path_18139" data-name="Path 18139" d="M116.558,162.485l.106,2.381a1.35,1.35,0,0,1-.672,1.239,2.649,2.649,0,0,1-1.774.276c-1.731-.278-1.886-.773-2.01-3.154s4.35-.742,4.35-.742" fill="#4ca0ce"/>
        <path id="Path_18140" data-name="Path 18140" d="M137.068,118.763c-.68-11.07-11.988,1.629-11.988,1.629l-7.739,7.585-6.97,7.656a6.871,6.871,0,0,0-1.731,5.519l2.82,21.467a2.108,2.108,0,0,0,2.115,1.833,7.089,7.089,0,0,0,1.045-.091,2.623,2.623,0,0,0,2.329-2.783l-.515-20.078,14.635-8.823s6.679-2.844,6-13.914" fill="#c1ecff"/>
        <path id="Path_18141" data-name="Path 18141" d="M145.483,122.98c-.68-11.07-11.988,1.629-11.988,1.629l-7.739,7.585-6.97,7.656a6.871,6.871,0,0,0-1.731,5.519l2.82,21.467a2.108,2.108,0,0,0,2.115,1.833,7.23,7.23,0,0,0,1.045-.091,2.623,2.623,0,0,0,2.329-2.783l-.515-20.078,14.635-8.823s6.679-2.844,6-13.914" fill="#c1ecff"/>
        <path id="Path_18142" data-name="Path 18142" d="M138.793,87.447c8.573,3.554,8.4,8.622,8.4,8.622s-1.679,18.578-1.106,30.986c.24,5.187-27.558,5.583-23.412-8.255,4.887-16.316,3.055-29.525,5.343-31.517s8.556-.755,10.774.164" fill="#4ca0ce"/>
        <path id="Path_18143" data-name="Path 18143" d="M141.551,91.94c-.448,1.741-2.729,2.658-5.094,2.049s-3.918-2.514-3.47-4.255,2.729-2.658,5.094-2.049S142,90.2,141.551,91.94" fill="#ffae9d"/>
        <path id="Path_18144" data-name="Path 18144" d="M137.921,94.587a6.289,6.289,0,0,1-1.566-.2c-2.579-.664-4.268-2.8-3.765-4.754a3.281,3.281,0,0,1,2.073-2.183,6.011,6.011,0,0,1,6.526,1.681,3.1,3.1,0,0,1-1.313,5.1,5.255,5.255,0,0,1-1.955.361m-1.305-6.681a4.429,4.429,0,0,0-1.647.3,2.48,2.48,0,0,0-1.584,1.628c-.392,1.519,1.033,3.2,3.175,3.755a4.877,4.877,0,0,0,3.01-.127,2.286,2.286,0,0,0,.984-3.817,4.88,4.88,0,0,0-2.575-1.565,5.427,5.427,0,0,0-1.363-.177" fill="#fff"/>
        <path id="Path_18145" data-name="Path 18145" d="M135.356,87.06a21.163,21.163,0,0,1-.074,3.061c-.047.853,2.943,1.651,3.716.878s.464-1.577.65-4.483-4.292.544-4.292.544" fill="#ffae9d"/>
        <path id="Path_18146" data-name="Path 18146" d="M139.647,86.516a6.022,6.022,0,0,1-4.367,3.729l.055-2.45Z" fill="#ea8781"/>
        <path id="Path_18147" data-name="Path 18147" d="M141.947,79.669a6.6,6.6,0,1,1-8.041-4.737,6.6,6.6,0,0,1,8.041,4.737" fill="#ffae9d"/>
        <path id="Path_18148" data-name="Path 18148" d="M137.074,81.562a20.434,20.434,0,0,1-6.149,1.574c-2.516.018-1.961-2.089-1.961-2.089l7.467-1.079Z" fill="#ea8781"/>
        <path id="Path_18149" data-name="Path 18149" d="M130.175,81.973a11.779,11.779,0,0,1,5.942-.783,2.9,2.9,0,0,1,1.677,1,.988.988,0,0,0,.508.367c.492.112,1.3-1.931,2.255-1.978s1.6.631.811,1.888-.519,2.662-.158,2.863,4.19-2.731.813-9.422-11.959-3.088-13.293-1.732c0,0-1.406,1.225-2.55.135,0,0-1.281,9.6,4,7.665" fill="#253e67"/>
        <path id="Path_18150" data-name="Path 18150" d="M142.385,109.642v5.02a2.048,2.048,0,0,1-.667,1.512l-10.313,9.4,1.172,1.792L146.2,117.49a2.768,2.768,0,0,0,1.127-1.951l.921-8.755Z" fill="#ffae9d"/>
        <path id="Path_18151" data-name="Path 18151" d="M146.468,93.558s3.129,4.705,4.294,17.09c0,0-5.344,1.729-8.377.748s4.083-17.838,4.083-17.838" fill="#4ca0ce"/>
        <path id="Path_18152" data-name="Path 18152" d="M141.814,99.507a87.32,87.32,0,0,0-1.295,9.636,1.966,1.966,0,0,0,1.295,1.9Z" fill="#3279aa"/>
        <path id="Path_18153" data-name="Path 18153" d="M139.138,132.1l-2.279-.3-14.714-8.5a2.047,2.047,0,0,0-1.84.076L109.879,129.4l-1.378-.182v1.372h0a.536.536,0,0,0,.317.483l16.674,9.627a2.046,2.046,0,0,0,1.841-.076l11.354-6.553a.744.744,0,0,0,.45-.619Z" fill="#14497a"/>
        <path id="Path_18154" data-name="Path 18154" d="M128.083,126.735l-1.045-.6H115.545l-5.666,3.269-1.378-.182v1.372h0a.538.538,0,0,0,.317.483l16.674,9.627a1.73,1.73,0,0,0,.95.178Z" fill="#3279aa"/>
        <path id="Path_18155" data-name="Path 18155" d="M109.112,129.3l-.612-.08v1.371l0,0a.539.539,0,0,0,.316.483l.294.168Z" fill="#4ca0ce"/>
        <path id="Path_18156" data-name="Path 18156" d="M125.661,140.779a2.133,2.133,0,0,0,1.564-.1v-2.334h-1.564Z" fill="#225a89"/>
        <path id="Path_18157" data-name="Path 18157" d="M125.493,139.33,108.818,129.7c-.471-.273-.412-.748.132-1.063l11.355-6.553a2.044,2.044,0,0,1,1.84-.076l16.675,9.627c.471.272.412.748-.132,1.062l-11.355,6.554a2.047,2.047,0,0,1-1.84.076" fill="#fff"/>
        <path id="Path_18158" data-name="Path 18158" d="M125.211,137.871l-13.865-8.005c-.392-.226-.343-.622.11-.883l6.084-3.422a1.7,1.7,0,0,1,1.531-.063l13.865,8.005c.392.226.343.622-.11.883l-6.085,3.422a1.7,1.7,0,0,1-1.53.063" fill="#c1ecff"/>
        <path id="Path_18159" data-name="Path 18159" d="M120.95,121.771l-.174,1.151a8.476,8.476,0,0,0,.077,2.95l.2,1.013a1.429,1.429,0,0,0,1.143,1.121.788.788,0,0,0,.922-.687l.275-2.459s.629.824.933.824-.34-2.463-1.027-3.857-2.353-.056-2.353-.056" fill="#ffae9d"/>
        <path id="Path_18160" data-name="Path 18160" d="M126.6,103.485l-1.789,3.541a6.946,6.946,0,0,0-.732,2.688l-.777,12.113-2.354-.056-1.069-13.6a5,5,0,0,1,.061-1.257l1.221-6.9Z" fill="#ffae9d"/>
        <path id="Path_18161" data-name="Path 18161" d="M124.928,140.255l-1.4-1.825-14.7-8.513a2.043,2.043,0,0,1-.852-1.633l.012-12.038-.845-1.1.794-.46h0a.537.537,0,0,1,.577.033l16.663,9.648a2.044,2.044,0,0,1,.852,1.633l-.014,13.109a.744.744,0,0,1-.312.7Z" fill="#14497a"/>
        <path id="Path_18162" data-name="Path 18162" d="M114.76,133.352l-1.045-.605-5.734-9.96.006-6.541-.845-1.1.794-.46h0a.537.537,0,0,1,.577.034l16.663,9.647a1.728,1.728,0,0,1,.628.734Z" fill="#3279aa"/>
        <path id="Path_18163" data-name="Path 18163" d="M107.518,115.632l-.375-.49.794-.46h0a.536.536,0,0,1,.576.034l.293.17Z" fill="#4ca0ce"/>
        <path id="Path_18164" data-name="Path 18164" d="M125.328,124.471a2.135,2.135,0,0,1,.7,1.4l-1.628.94-.78-1.355Z" fill="#225a89"/>
        <path id="Path_18165" data-name="Path 18165" d="M124.383,124.824l-16.663-9.647c-.471-.273-.854.015-.855.644l-.014,13.11a2.046,2.046,0,0,0,.852,1.633l16.663,9.647c.472.273.854-.015.855-.644l.014-13.11a2.046,2.046,0,0,0-.852-1.633" fill="#4ca0ce"/>
        <path id="Path_18166" data-name="Path 18166" d="M132.577,127.367l-.268.553a3.7,3.7,0,0,1-1.392,1.544l-1.655,1.02a1.646,1.646,0,0,1-1.69.039l-.056-.034a1,1,0,0,1-.141-1.529l1.73-1.779s-.972.745-1.244.445c-.2-.22.942-1.292,1.819-1.327a3.452,3.452,0,0,0,1.724-.724Z" fill="#ffae9d"/>
        <path id="Path_18167" data-name="Path 18167" d="M128.191,87.256s-6.341,6.9-8.9,13.228a12.949,12.949,0,0,0,7.476,5.439c5.307,1.533,1.423-18.667,1.423-18.667" fill="#4ca0ce"/>
        <path id="Path_18168" data-name="Path 18168" d="M125.574,105.514l1.028-9.928-2.422,9.3a13.926,13.926,0,0,0,1.394.626" fill="#3279aa"/>
        <path id="Path_18169" data-name="Path 18169" d="M132.94,85.864l-1.7-.468a4.12,4.12,0,0,0,2,1.606c1.188.326,1.372-.679,1.372-.679Z" fill="#fff"/>
        <path id="Path_18170" data-name="Path 18170" d="M255.975,199.4a3.659,3.659,0,0,1-1.832-.491L228.7,184.176a2.566,2.566,0,0,1-.043-4.416L235.7,175.5a.484.484,0,0,1,.5.828l-7.039,4.262a1.6,1.6,0,0,0,.027,2.75l25.442,14.731a2.693,2.693,0,0,0,2.753-.035l8.761-5.354a.485.485,0,1,1,.505.827l-8.761,5.353a3.654,3.654,0,0,1-1.911.538" fill="#4ca0ce"/>
        <path id="Path_18171" data-name="Path 18171" d="M188.166,95.653l-16.692-9.637a.853.853,0,0,0-.863-.069v-.011l-1.619.935,1.138.416V99.443a3.215,3.215,0,0,0,1.343,2.566l15.954,9.211v1.426l1.636-.942-.009,0a1.187,1.187,0,0,0,.454-1.07V98.219a3.215,3.215,0,0,0-1.343-2.566" fill="#396096"/>
        <path id="Path_18172" data-name="Path 18172" d="M186.518,112.6l-16.692-9.637a3.215,3.215,0,0,1-1.343-2.566V87.982c0-.989.6-1.443,1.343-1.015L186.518,96.6a3.215,3.215,0,0,1,1.343,2.566v12.412c0,.989-.6,1.443-1.343,1.015" fill="#253e67"/>
        <path id="Path_18173" data-name="Path 18173" d="M175.439,98.682c0,.718-.5,1.009-1.126.65a2.489,2.489,0,0,1-1.127-1.95c0-.719.5-1.01,1.127-.651a2.49,2.49,0,0,1,1.126,1.951" fill="#fff"/>
        <path id="Path_18174" data-name="Path 18174" d="M178.851,100.652c0,.718-.5,1.009-1.126.65a2.489,2.489,0,0,1-1.127-1.95c0-.719.5-1.01,1.127-.651a2.49,2.49,0,0,1,1.126,1.951" fill="#fff"/>
        <path id="Path_18175" data-name="Path 18175" d="M182.263,102.622c0,.718-.5,1.009-1.126.65a2.489,2.489,0,0,1-1.127-1.95c0-.719.505-1.01,1.127-.651a2.491,2.491,0,0,1,1.126,1.951" fill="#fff"/>
        <path id="Path_18176" data-name="Path 18176" d="M178.667,80.047,161.975,70.41a.853.853,0,0,0-.863-.069V70.33l-1.619.935,1.138.416V83.837a3.215,3.215,0,0,0,1.343,2.566l15.954,9.211V97.04l1.636-.941-.009,0a1.187,1.187,0,0,0,.454-1.07V82.613a3.215,3.215,0,0,0-1.343-2.566" fill="#4ca0ce"/>
        <path id="Path_18177" data-name="Path 18177" d="M177.018,96.991l-16.692-9.637a3.215,3.215,0,0,1-1.343-2.566V72.376c0-.989.6-1.443,1.343-1.015L177.018,81a3.215,3.215,0,0,1,1.343,2.566V95.976c0,.989-.6,1.443-1.343,1.015" fill="#c1ecff"/>
        <path id="Path_18178" data-name="Path 18178" d="M165.94,83.077c0,.718-.5,1.009-1.126.65a2.488,2.488,0,0,1-1.126-1.95c0-.719.5-1.01,1.126-.651a2.49,2.49,0,0,1,1.126,1.951" fill="#fff"/>
        <path id="Path_18179" data-name="Path 18179" d="M169.352,85.046c0,.718-.505,1.009-1.127.651a2.492,2.492,0,0,1-1.126-1.95c0-.72.505-1.011,1.126-.651a2.489,2.489,0,0,1,1.127,1.95" fill="#fff"/>
        <path id="Path_18180" data-name="Path 18180" d="M172.763,87.016c0,.718-.5,1.009-1.126.65a2.488,2.488,0,0,1-1.126-1.95c0-.719.5-1.01,1.126-.651a2.49,2.49,0,0,1,1.126,1.951" fill="#fff"/>
      </g>
    </g>
  </g>
</svg>
