<svg id="Group_2095" data-name="Group 2095" xmlns="http://www.w3.org/2000/svg" xmlns:xlink="http://www.w3.org/1999/xlink" width="322.825" height="246.373" viewBox="0 0 322.825 246.373">
  <defs>
    <clipPath id="clip-path">
      <rect id="Rectangle_1089" data-name="Rectangle 1089" width="322.825" height="246.373" fill="none"/>
    </clipPath>
    <clipPath id="clip-path-3">
      <rect id="Rectangle_1072" data-name="Rectangle 1072" width="65.261" height="3.159" fill="none"/>
    </clipPath>
    <clipPath id="clip-path-4">
      <rect id="Rectangle_1073" data-name="Rectangle 1073" width="19.954" height="11.292" fill="none"/>
    </clipPath>
    <clipPath id="clip-path-10">
      <rect id="Rectangle_1079" data-name="Rectangle 1079" width="19.955" height="11.292" fill="none"/>
    </clipPath>
    <clipPath id="clip-path-12">
      <rect id="Rectangle_1081" data-name="Rectangle 1081" width="18.387" height="4.941" fill="none"/>
    </clipPath>
    <clipPath id="clip-path-13">
      <rect id="Rectangle_1082" data-name="Rectangle 1082" width="18.386" height="4.942" fill="none"/>
    </clipPath>
  </defs>
  <g id="Group_2094" data-name="Group 2094" clip-path="url(#clip-path)">
    <g id="Group_2093" data-name="Group 2093">
      <g id="Group_2092" data-name="Group 2092" clip-path="url(#clip-path)">
        <path id="Path_16321" data-name="Path 16321" d="M290.886,246.343c12-20,30.375-59.208,31.8-83.93,2.111-36.547-20.769-30.3-37.476-49.272-7.286-8.274,13.722-35.275-17.336-56.9-19.27-13.416-46.393,13.339-62.377-20.119C189.119,1.834,126.069-10.163,74.83,9.371c-78.1,29.775,2.016,58.921-48.789,82.48-30.4,14.094-15.97,44.771-12.933,54.747,2.646,8.69,17.592,18.971-4.176,41.455-18.123,18.719-3.922,48.755,1.343,58.29Z" transform="translate(0 0)" fill="#dcf3fd"/>
        <path id="Path_16322" data-name="Path 16322" d="M158.5,29.988l-1.029-1.028a.478.478,0,0,0-.674,0l-1.028,1.029a.475.475,0,0,1-.673,0l-1.029-1.028a.478.478,0,0,0-.674,0l-1.028,1.029a.477.477,0,0,1-.674,0l-1.028-1.028a.478.478,0,0,0-.674,0l-1.028,1.029a.477.477,0,0,1-.674,0l-1.029-1.028a.478.478,0,0,0-.674,0l-1.028,1.029a.474.474,0,0,1-.673,0l-1.029-1.028a.478.478,0,0,0-.674,0L142.15,30a.476.476,0,0,1-.674,0l-1.028-1.028a.477.477,0,0,0-.674,0L138.745,30a.476.476,0,0,1-.674,0l-1.029-1.028a.477.477,0,0,0-.674,0L135.339,30a.474.474,0,0,1-.673,0l-1.029-1.028a.477.477,0,0,0-.674,0L131.935,30a.477.477,0,0,1-.674,0l-1.028-1.028a.476.476,0,0,0-.674,0L128.531,30a.477.477,0,0,1-.674,0l-1.029-1.028a.476.476,0,0,0-.674,0L125.125,30a.475.475,0,0,1-.673,0l-1.029-1.028a.476.476,0,0,0-.674,0L121.72,30a.478.478,0,0,1-.674,0l-1.028-1.028a.476.476,0,0,0-.674,0l-1.028,1.029a.478.478,0,0,1-.674,0l-1.029-1.028a.477.477,0,0,0-.674,0l-1.028,1.029a.477.477,0,0,1-.673,0l-1.029-1.028a.477.477,0,0,0-.674,0l-1.028,1.029a.478.478,0,0,1-.674,0L109.8,28.981a.478.478,0,0,0-.674,0L108.1,30.01a.478.478,0,0,1-.674,0L106.4,28.982a.478.478,0,0,0-.674,0L104.7,30.011a.476.476,0,0,1-.673,0l-1.029-1.028a.478.478,0,0,0-.674,0l-1.028,1.029a.477.477,0,0,1-.674,0l-1.028-1.028a.478.478,0,0,0-.674,0l-1.028,1.029a.476.476,0,0,1-.674,0l-1.029-1.028a.478.478,0,0,0-.674,0,.486.486,0,0,0-.139.336l-.375,82.9,65.26.2.286-83.8-1.365,1.366a.478.478,0,0,1-.674,0" transform="translate(33.646 10.138)" fill="#fff"/>
        <g id="Group_2046" data-name="Group 2046" transform="translate(128.64 120.893)" style="mix-blend-mode: multiply;isolation: isolate">
          <g id="Group_2045" data-name="Group 2045">
            <g id="Group_2044" data-name="Group 2044" clip-path="url(#clip-path-3)">
              <rect id="Rectangle_1071" data-name="Rectangle 1071" width="65.26" height="3.131" transform="translate(0.001 0.014)" fill="#e3e3e3"/>
            </g>
          </g>
        </g>
        <path id="Path_16323" data-name="Path 16323" d="M105.78,82.155l37.94-.016a1.932,1.932,0,0,1,0,3.865l-37.942.016a1.932,1.932,0,1,1,0-3.865" transform="translate(36.782 29.093)" fill="#d4d4d4"/>
        <path id="Path_16324" data-name="Path 16324" d="M120.079,76.32l25.643-.011a1.342,1.342,0,0,1,0,2.684L120.08,79a1.342,1.342,0,0,1,0-2.684" transform="translate(42.056 27.028)" fill="#e0e0e0"/>
        <path id="Path_16325" data-name="Path 16325" d="M120.077,70.861l25.643-.011a1.342,1.342,0,0,1,0,2.684l-25.643.011a1.342,1.342,0,0,1,0-2.684" transform="translate(42.056 25.095)" fill="#e0e0e0"/>
        <path id="Path_16326" data-name="Path 16326" d="M120.075,65.967l25.643-.011a1.342,1.342,0,0,1,0,2.684l-25.643.011a1.342,1.342,0,0,1,0-2.684" transform="translate(42.055 23.361)" fill="#e0e0e0"/>
        <path id="Path_16327" data-name="Path 16327" d="M108.3,58.494l30.193-.012a.969.969,0,1,1,0,1.938l-30.192.014a.97.97,0,0,1,0-1.939" transform="translate(38.016 20.714)" fill="#e0e0e0"/>
        <path id="Path_16328" data-name="Path 16328" d="M103.539,55.642l43.082-.019a.97.97,0,0,1,0,1.939l-43.082.019a.97.97,0,0,1,0-1.939" transform="translate(36.33 19.701)" fill="#e0e0e0"/>
        <path id="Path_16329" data-name="Path 16329" d="M100.25,76.326l7.032,0a1.342,1.342,0,1,1,0,2.684l-7.032,0a1.342,1.342,0,0,1,0-2.684" transform="translate(35.033 27.033)" fill="#e0e0e0"/>
        <path id="Path_16330" data-name="Path 16330" d="M100.247,70.868l7.032,0a1.341,1.341,0,1,1,0,2.683l-7.032,0a1.342,1.342,0,0,1,0-2.684" transform="translate(35.032 25.1)" fill="#e0e0e0"/>
        <path id="Path_16331" data-name="Path 16331" d="M100.245,65.974l7.032,0a1.342,1.342,0,1,1,0,2.684l-7.032,0a1.342,1.342,0,0,1,0-2.684" transform="translate(35.031 23.367)" fill="#e0e0e0"/>
        <path id="Path_16332" data-name="Path 16332" d="M101.34,48.666l50.288-.022a2.446,2.446,0,1,1,0,4.893l-50.287.02a2.446,2.446,0,1,1,0-4.891" transform="translate(35.028 17.229)" fill="#d4d4d4"/>
        <path id="Path_16333" data-name="Path 16333" d="M109.856,42.87l26.556-.011a1.514,1.514,0,1,1,0,3.028l-26.556.012a1.515,1.515,0,0,1,0-3.029" transform="translate(38.374 15.18)" fill="#d4d4d4"/>
        <path id="Path_16334" data-name="Path 16334" d="M169.456,215.887l-76.154.033a8.377,8.377,0,0,1-8.38-8.373L84.873,94.391a8.378,8.378,0,0,1,8.373-8.38l76.154-.033a8.377,8.377,0,0,1,8.38,8.373l.049,113.155a8.377,8.377,0,0,1-8.373,8.38" transform="translate(30.062 30.453)" fill="#42b9f3"/>
        <path id="Path_16335" data-name="Path 16335" d="M174.3,87.5a8.312,8.312,0,0,1,2.066,5.451l.047,113.154a8.374,8.374,0,0,1-8.373,8.38l-76.154.033a8.3,8.3,0,0,1-5.452-2.061,8.32,8.32,0,0,0,6.315,2.922l76.154-.033a8.377,8.377,0,0,0,8.373-8.38l-.049-113.154A8.322,8.322,0,0,0,174.3,87.5" transform="translate(30.614 30.993)" fill="#3ca0d7"/>
        <path id="Path_16336" data-name="Path 16336" d="M163.785,136.351l-69.726,0a2.327,2.327,0,0,1-2.328-2.327V95.545a2.327,2.327,0,0,1,2.326-2.328l69.726,0a2.328,2.328,0,0,1,2.328,2.328v38.483a2.326,2.326,0,0,1-2.327,2.327" transform="translate(32.49 33.015)" fill="#3ca0d7"/>
        <path id="Path_16337" data-name="Path 16337" d="M92.242,134.482l0-38.483a2.327,2.327,0,0,1,2.328-2.326l69.726,0a2.316,2.316,0,0,1,1.274.381,2.318,2.318,0,0,0-1.785-.834l-69.726,0a2.326,2.326,0,0,0-2.326,2.326v38.483a2.323,2.323,0,0,0,1.054,1.946,2.313,2.313,0,0,1-.543-1.492" transform="translate(32.49 33.016)" fill="#2988b2"/>
        <path id="Path_16338" data-name="Path 16338" d="M153.244,111.723l-52.82,0a2.8,2.8,0,0,1-2.8-2.8V99.911a2.8,2.8,0,0,1,2.8-2.8l52.819,0a2.805,2.805,0,0,1,2.806,2.8v9.009a2.8,2.8,0,0,1-2.8,2.8" transform="translate(34.576 34.394)" fill="#2b5c8b"/>
        <path id="Path_16339" data-name="Path 16339" d="M98.092,109.393v-9.009a2.8,2.8,0,0,1,2.8-2.8l52.819,0a2.8,2.8,0,0,1,1.733.6,2.8,2.8,0,0,0-2.2-1.071l-52.82,0a2.8,2.8,0,0,0-2.8,2.8v9.009a2.8,2.8,0,0,0,1.073,2.2,2.791,2.791,0,0,1-.6-1.732" transform="translate(34.576 34.394)" fill="#234662"/>
        <g id="Group_2049" data-name="Group 2049" transform="translate(126.082 174.297)" style="mix-blend-mode: multiply;isolation: isolate">
          <g id="Group_2048" data-name="Group 2048">
            <g id="Group_2047" data-name="Group 2047" clip-path="url(#clip-path-4)">
              <path id="Path_16340" data-name="Path 16340" d="M110.81,139.995,95.36,140a2.25,2.25,0,0,1-2.252-2.249l0-6.784a2.252,2.252,0,0,1,2.251-2.252l15.449-.007a2.253,2.253,0,0,1,2.253,2.251l0,6.783a2.252,2.252,0,0,1-2.251,2.252" transform="translate(-93.105 -128.709)" fill="#c2c2c2"/>
            </g>
          </g>
        </g>
        <path id="Path_16341" data-name="Path 16341" d="M110.219,139.373l-15.45.007a2.25,2.25,0,0,1-2.252-2.249l0-6.785a2.253,2.253,0,0,1,2.251-2.252l15.449-.007a2.251,2.251,0,0,1,2.252,2.251l0,6.783a2.252,2.252,0,0,1-2.251,2.252" transform="translate(32.768 45.368)" fill="#3ca0d7"/>
        <path id="Path_16342" data-name="Path 16342" d="M93.308,137.9l0-6.665a2.256,2.256,0,0,1,2.192-2.312l15.565-.007a2.06,2.06,0,0,1,1.079.341,2.153,2.153,0,0,0-1.87-1.173l-15.565.007a2.256,2.256,0,0,0-2.192,2.312l0,6.665a2.3,2.3,0,0,0,1.116,1.968,2.323,2.323,0,0,1-.325-1.136" transform="translate(32.768 45.368)" fill="#70cdf2"/>
        <g id="Group_2052" data-name="Group 2052" transform="translate(126.089 190.358)" style="mix-blend-mode: multiply;isolation: isolate">
          <g id="Group_2051" data-name="Group 2051">
            <g id="Group_2050" data-name="Group 2050" clip-path="url(#clip-path-4)">
              <path id="Path_16343" data-name="Path 16343" d="M110.815,151.855l-15.45.007a2.251,2.251,0,0,1-2.252-2.249l0-6.785a2.252,2.252,0,0,1,2.251-2.252l15.45-.007a2.253,2.253,0,0,1,2.252,2.251l0,6.783a2.252,2.252,0,0,1-2.251,2.252" transform="translate(-93.11 -140.569)" fill="#c2c2c2"/>
            </g>
          </g>
        </g>
        <path id="Path_16344" data-name="Path 16344" d="M110.224,151.233l-15.45.007a2.25,2.25,0,0,1-2.252-2.249l0-6.785a2.253,2.253,0,0,1,2.251-2.252l15.45-.007a2.253,2.253,0,0,1,2.252,2.251l0,6.783a2.252,2.252,0,0,1-2.251,2.252" transform="translate(32.77 49.568)" fill="#3ca0d7"/>
        <path id="Path_16345" data-name="Path 16345" d="M93.313,149.762l0-6.665a2.256,2.256,0,0,1,2.192-2.312l15.565-.007a2.06,2.06,0,0,1,1.079.341,2.153,2.153,0,0,0-1.87-1.173l-15.564.007a2.256,2.256,0,0,0-2.194,2.312l0,6.665a2.3,2.3,0,0,0,1.116,1.968,2.327,2.327,0,0,1-.325-1.136" transform="translate(32.77 49.568)" fill="#70cdf2"/>
        <g id="Group_2055" data-name="Group 2055" transform="translate(126.095 206.418)" style="mix-blend-mode: multiply;isolation: isolate">
          <g id="Group_2054" data-name="Group 2054">
            <g id="Group_2053" data-name="Group 2053" clip-path="url(#clip-path-4)">
              <path id="Path_16346" data-name="Path 16346" d="M110.819,163.714l-15.45.007a2.25,2.25,0,0,1-2.252-2.248l0-6.785a2.253,2.253,0,0,1,2.251-2.253l15.45-.007a2.25,2.25,0,0,1,2.251,2.251l0,6.785a2.251,2.251,0,0,1-2.251,2.251" transform="translate(-93.115 -152.429)" fill="#c2c2c2"/>
            </g>
          </g>
        </g>
        <path id="Path_16347" data-name="Path 16347" d="M110.228,163.093l-15.45.007a2.251,2.251,0,0,1-2.252-2.249l0-6.785a2.253,2.253,0,0,1,2.251-2.252l15.45-.007a2.25,2.25,0,0,1,2.251,2.251l0,6.783a2.252,2.252,0,0,1-2.251,2.252" transform="translate(32.771 53.769)" fill="#3ca0d7"/>
        <path id="Path_16348" data-name="Path 16348" d="M93.317,161.622l0-6.665a2.254,2.254,0,0,1,2.192-2.31l15.565-.008a2.06,2.06,0,0,1,1.079.341,2.153,2.153,0,0,0-1.87-1.173l-15.564.007a2.256,2.256,0,0,0-2.194,2.312l0,6.665a2.3,2.3,0,0,0,1.116,1.968,2.323,2.323,0,0,1-.325-1.136" transform="translate(32.771 53.769)" fill="#70cdf2"/>
        <g id="Group_2058" data-name="Group 2058" transform="translate(151.695 174.286)" style="mix-blend-mode: multiply;isolation: isolate">
          <g id="Group_2057" data-name="Group 2057">
            <g id="Group_2056" data-name="Group 2056" clip-path="url(#clip-path-4)">
              <path id="Path_16349" data-name="Path 16349" d="M129.724,139.986l-15.45.007a2.25,2.25,0,0,1-2.252-2.249l0-6.785a2.252,2.252,0,0,1,2.251-2.252l15.449-.007a2.253,2.253,0,0,1,2.253,2.251l0,6.783a2.252,2.252,0,0,1-2.251,2.252" transform="translate(-112.019 -128.701)" fill="#c2c2c2"/>
            </g>
          </g>
        </g>
        <path id="Path_16350" data-name="Path 16350" d="M129.133,139.364l-15.45.007a2.251,2.251,0,0,1-2.252-2.249l0-6.785a2.253,2.253,0,0,1,2.251-2.252l15.449-.007a2.251,2.251,0,0,1,2.252,2.251l0,6.783a2.252,2.252,0,0,1-2.251,2.252" transform="translate(39.467 45.364)" fill="#3ca0d7"/>
        <path id="Path_16351" data-name="Path 16351" d="M112.222,137.893l0-6.664a2.254,2.254,0,0,1,2.192-2.31l15.565-.008a2.071,2.071,0,0,1,1.079.34,2.155,2.155,0,0,0-1.87-1.171l-15.564.005a2.258,2.258,0,0,0-2.194,2.313l0,6.665a2.3,2.3,0,0,0,1.116,1.968,2.324,2.324,0,0,1-.325-1.138" transform="translate(39.467 45.365)" fill="#70cdf2"/>
        <g id="Group_2061" data-name="Group 2061" transform="translate(151.702 190.346)" style="mix-blend-mode: multiply;isolation: isolate">
          <g id="Group_2060" data-name="Group 2060">
            <g id="Group_2059" data-name="Group 2059" clip-path="url(#clip-path-4)">
              <path id="Path_16352" data-name="Path 16352" d="M129.728,151.846l-15.45.007a2.25,2.25,0,0,1-2.252-2.249l0-6.785a2.253,2.253,0,0,1,2.251-2.252l15.45-.007a2.253,2.253,0,0,1,2.252,2.251l0,6.783a2.252,2.252,0,0,1-2.251,2.252" transform="translate(-112.024 -140.561)" fill="#c2c2c2"/>
            </g>
          </g>
        </g>
        <path id="Path_16353" data-name="Path 16353" d="M129.137,151.224l-15.45.007a2.25,2.25,0,0,1-2.252-2.249l0-6.785a2.253,2.253,0,0,1,2.251-2.252l15.449-.007a2.253,2.253,0,0,1,2.253,2.251l0,6.783a2.252,2.252,0,0,1-2.251,2.252" transform="translate(39.469 49.565)" fill="#3ca0d7"/>
        <path id="Path_16354" data-name="Path 16354" d="M112.227,149.753l0-6.665a2.255,2.255,0,0,1,2.192-2.31l15.566-.008a2.056,2.056,0,0,1,1.078.341,2.15,2.15,0,0,0-1.869-1.173l-15.565.007a2.257,2.257,0,0,0-2.194,2.312l0,6.665a2.3,2.3,0,0,0,1.116,1.968,2.322,2.322,0,0,1-.324-1.136" transform="translate(39.469 49.565)" fill="#70cdf2"/>
        <g id="Group_2064" data-name="Group 2064" transform="translate(151.709 206.407)" style="mix-blend-mode: multiply;isolation: isolate">
          <g id="Group_2063" data-name="Group 2063">
            <g id="Group_2062" data-name="Group 2062" clip-path="url(#clip-path-4)">
              <path id="Path_16355" data-name="Path 16355" d="M129.733,163.706l-15.45.007a2.251,2.251,0,0,1-2.252-2.249l0-6.785a2.253,2.253,0,0,1,2.251-2.252l15.449-.007a2.251,2.251,0,0,1,2.252,2.251l0,6.783a2.25,2.25,0,0,1-2.249,2.252" transform="translate(-112.029 -152.42)" fill="#c2c2c2"/>
            </g>
          </g>
        </g>
        <path id="Path_16356" data-name="Path 16356" d="M129.142,163.084l-15.45.007a2.25,2.25,0,0,1-2.252-2.249l0-6.785a2.253,2.253,0,0,1,2.251-2.252l15.449-.007a2.251,2.251,0,0,1,2.252,2.251l0,6.783a2.252,2.252,0,0,1-2.251,2.252" transform="translate(39.47 53.766)" fill="#3ca0d7"/>
        <path id="Path_16357" data-name="Path 16357" d="M112.231,161.613l0-6.665a2.254,2.254,0,0,1,2.192-2.31l15.565-.008a2.06,2.06,0,0,1,1.079.341,2.155,2.155,0,0,0-1.87-1.173l-15.564.007a2.256,2.256,0,0,0-2.194,2.312l0,6.665a2.3,2.3,0,0,0,1.116,1.968,2.323,2.323,0,0,1-.325-1.136" transform="translate(39.47 53.766)" fill="#70cdf2"/>
        <g id="Group_2067" data-name="Group 2067" transform="translate(151.714 222.467)" style="mix-blend-mode: multiply;isolation: isolate">
          <g id="Group_2066" data-name="Group 2066">
            <g id="Group_2065" data-name="Group 2065" clip-path="url(#clip-path-10)">
              <path id="Path_16358" data-name="Path 16358" d="M129.738,175.566l-15.45.007a2.25,2.25,0,0,1-2.252-2.249l0-6.785a2.253,2.253,0,0,1,2.251-2.252l15.449-.007a2.253,2.253,0,0,1,2.253,2.251l0,6.783a2.252,2.252,0,0,1-2.251,2.252" transform="translate(-112.033 -164.28)" fill="#c2c2c2"/>
            </g>
          </g>
        </g>
        <path id="Path_16359" data-name="Path 16359" d="M129.147,174.944l-15.45.007a2.251,2.251,0,0,1-2.252-2.249l0-6.784a2.253,2.253,0,0,1,2.251-2.252l15.449-.007a2.253,2.253,0,0,1,2.253,2.251l0,6.783a2.252,2.252,0,0,1-2.251,2.252" transform="translate(39.472 57.967)" fill="#3ca0d7"/>
        <path id="Path_16360" data-name="Path 16360" d="M112.236,173.473l0-6.665a2.254,2.254,0,0,1,2.192-2.31l15.565-.008a2.06,2.06,0,0,1,1.079.341,2.153,2.153,0,0,0-1.87-1.173l-15.564.007a2.256,2.256,0,0,0-2.194,2.312l0,6.665a2.3,2.3,0,0,0,1.116,1.968,2.323,2.323,0,0,1-.325-1.136" transform="translate(39.472 57.967)" fill="#70cdf2"/>
        <g id="Group_2070" data-name="Group 2070" transform="translate(177.309 174.274)" style="mix-blend-mode: multiply;isolation: isolate">
          <g id="Group_2069" data-name="Group 2069">
            <g id="Group_2068" data-name="Group 2068" clip-path="url(#clip-path-4)">
              <path id="Path_16361" data-name="Path 16361" d="M148.637,139.978l-15.45.007a2.251,2.251,0,0,1-2.252-2.249l0-6.785a2.252,2.252,0,0,1,2.251-2.252l15.449-.007a2.253,2.253,0,0,1,2.253,2.251l0,6.783a2.252,2.252,0,0,1-2.251,2.252" transform="translate(-130.933 -128.692)" fill="#c2c2c2"/>
            </g>
          </g>
        </g>
        <path id="Path_16362" data-name="Path 16362" d="M148.046,139.356l-15.45.007a2.25,2.25,0,0,1-2.252-2.249l0-6.785a2.253,2.253,0,0,1,2.251-2.252l15.449-.007a2.253,2.253,0,0,1,2.253,2.251l0,6.783a2.252,2.252,0,0,1-2.251,2.252" transform="translate(46.166 45.362)" fill="#3ca0d7"/>
        <path id="Path_16363" data-name="Path 16363" d="M131.136,137.885l0-6.665a2.256,2.256,0,0,1,2.192-2.312l15.565-.007a2.06,2.06,0,0,1,1.079.341,2.152,2.152,0,0,0-1.87-1.173l-15.562.007a2.256,2.256,0,0,0-2.2,2.312l0,6.665a2.3,2.3,0,0,0,1.116,1.968,2.336,2.336,0,0,1-.324-1.136" transform="translate(46.166 45.362)" fill="#70cdf2"/>
        <g id="Group_2073" data-name="Group 2073" transform="translate(128.837 158.902)" style="mix-blend-mode: multiply;isolation: isolate">
          <g id="Group_2072" data-name="Group 2072">
            <g id="Group_2071" data-name="Group 2071" clip-path="url(#clip-path-12)">
              <path id="Path_16364" data-name="Path 16364" d="M112.1,122.276l-15.527.007a1.429,1.429,0,0,1-1.43-1.429v-2.077a1.427,1.427,0,0,1,1.427-1.429l15.527-.007a1.429,1.429,0,0,1,1.43,1.429v2.076a1.429,1.429,0,0,1-1.429,1.43" transform="translate(-95.139 -117.341)" fill="#d4d4d4"/>
            </g>
          </g>
        </g>
        <path id="Path_16365" data-name="Path 16365" d="M111.552,122l-15.527.007a1.429,1.429,0,0,1-1.43-1.429V118.5a1.428,1.428,0,0,1,1.427-1.429l15.527-.007a1.429,1.429,0,0,1,1.43,1.429v2.076a1.429,1.429,0,0,1-1.429,1.43" transform="translate(33.505 41.465)" fill="#42b9f3"/>
        <g id="Group_2076" data-name="Group 2076" transform="translate(152.439 158.892)" style="mix-blend-mode: multiply;isolation: isolate">
          <g id="Group_2075" data-name="Group 2075">
            <g id="Group_2074" data-name="Group 2074" clip-path="url(#clip-path-13)">
              <path id="Path_16366" data-name="Path 16366" d="M129.526,122.269,114,122.275a1.429,1.429,0,0,1-1.43-1.429v-2.077A1.427,1.427,0,0,1,114,117.341l15.527-.007a1.429,1.429,0,0,1,1.43,1.429v2.076a1.429,1.429,0,0,1-1.429,1.43" transform="translate(-112.568 -117.333)" fill="#d4d4d4"/>
            </g>
          </g>
        </g>
        <path id="Path_16367" data-name="Path 16367" d="M128.981,122,113.454,122a1.429,1.429,0,0,1-1.43-1.429V118.5a1.428,1.428,0,0,1,1.427-1.429l15.527-.007a1.429,1.429,0,0,1,1.43,1.429v2.076a1.429,1.429,0,0,1-1.429,1.43" transform="translate(39.678 41.463)" fill="#42b9f3"/>
        <g id="Group_2079" data-name="Group 2079" transform="translate(176.041 158.882)" style="mix-blend-mode: multiply;isolation: isolate">
          <g id="Group_2078" data-name="Group 2078">
            <g id="Group_2077" data-name="Group 2077" clip-path="url(#clip-path-13)">
              <path id="Path_16368" data-name="Path 16368" d="M146.955,122.261l-15.527.007a1.429,1.429,0,0,1-1.43-1.429v-2.077a1.427,1.427,0,0,1,1.427-1.429l15.527-.007a1.429,1.429,0,0,1,1.43,1.429v2.076a1.429,1.429,0,0,1-1.429,1.43" transform="translate(-129.997 -117.326)" fill="#d4d4d4"/>
            </g>
          </g>
        </g>
        <path id="Path_16369" data-name="Path 16369" d="M146.411,121.988,130.883,122a1.429,1.429,0,0,1-1.43-1.429v-2.077a1.43,1.43,0,0,1,1.429-1.427l15.527-.007a1.429,1.429,0,0,1,1.43,1.429v2.075a1.429,1.429,0,0,1-1.429,1.43" transform="translate(45.851 41.46)" fill="#42b9f3"/>
        <g id="Group_2082" data-name="Group 2082" transform="translate(177.314 190.335)" style="mix-blend-mode: multiply;isolation: isolate">
          <g id="Group_2081" data-name="Group 2081">
            <g id="Group_2080" data-name="Group 2080" clip-path="url(#clip-path-10)">
              <path id="Path_16370" data-name="Path 16370" d="M148.642,151.838l-15.45.007a2.251,2.251,0,0,1-2.252-2.249l0-6.785a2.253,2.253,0,0,1,2.251-2.252l15.45-.007a2.253,2.253,0,0,1,2.252,2.251l0,6.783a2.252,2.252,0,0,1-2.251,2.252" transform="translate(-130.937 -140.552)" fill="#c2c2c2"/>
            </g>
          </g>
        </g>
        <path id="Path_16371" data-name="Path 16371" d="M148.051,151.216l-15.45.007a2.25,2.25,0,0,1-2.252-2.249l0-6.785a2.253,2.253,0,0,1,2.251-2.252l15.45-.007a2.253,2.253,0,0,1,2.252,2.251l0,6.783a2.252,2.252,0,0,1-2.251,2.252" transform="translate(46.168 49.562)" fill="#3ca0d7"/>
        <path id="Path_16372" data-name="Path 16372" d="M131.14,149.745l0-6.665a2.254,2.254,0,0,1,2.192-2.31l15.565-.008a2.06,2.06,0,0,1,1.079.341,2.155,2.155,0,0,0-1.87-1.173l-15.565.007a2.256,2.256,0,0,0-2.192,2.312l0,6.665a2.3,2.3,0,0,0,1.116,1.968,2.323,2.323,0,0,1-.325-1.136" transform="translate(46.168 49.562)" fill="#70cdf2"/>
        <g id="Group_2085" data-name="Group 2085" transform="translate(177.321 206.395)" style="mix-blend-mode: multiply;isolation: isolate">
          <g id="Group_2084" data-name="Group 2084">
            <g id="Group_2083" data-name="Group 2083" clip-path="url(#clip-path-10)">
              <path id="Path_16373" data-name="Path 16373" d="M148.647,163.7l-15.45.007a2.25,2.25,0,0,1-2.252-2.248l0-6.785a2.253,2.253,0,0,1,2.251-2.253l15.449-.007a2.251,2.251,0,0,1,2.252,2.251l0,6.785a2.251,2.251,0,0,1-2.251,2.251" transform="translate(-130.942 -152.412)" fill="#c2c2c2"/>
            </g>
          </g>
        </g>
        <path id="Path_16374" data-name="Path 16374" d="M148.056,163.076l-15.45.007a2.25,2.25,0,0,1-2.252-2.249l0-6.785A2.253,2.253,0,0,1,132.6,151.8l15.449-.007a2.251,2.251,0,0,1,2.252,2.251l0,6.783a2.252,2.252,0,0,1-2.251,2.252" transform="translate(46.17 53.763)" fill="#3ca0d7"/>
        <path id="Path_16375" data-name="Path 16375" d="M131.145,161.605l0-6.665a2.256,2.256,0,0,1,2.192-2.312l15.565-.007a2.06,2.06,0,0,1,1.079.341,2.155,2.155,0,0,0-1.87-1.173l-15.565.007a2.256,2.256,0,0,0-2.192,2.312l0,6.665a2.3,2.3,0,0,0,1.116,1.968,2.323,2.323,0,0,1-.325-1.136" transform="translate(46.17 53.763)" fill="#70cdf2"/>
        <g id="Group_2088" data-name="Group 2088" transform="translate(126.102 222.479)" style="mix-blend-mode: multiply;isolation: isolate">
          <g id="Group_2087" data-name="Group 2087">
            <g id="Group_2086" data-name="Group 2086" clip-path="url(#clip-path-10)">
              <path id="Path_16376" data-name="Path 16376" d="M110.824,175.574l-15.45.007a2.25,2.25,0,0,1-2.252-2.249l0-6.785a2.253,2.253,0,0,1,2.251-2.252l15.449-.007a2.253,2.253,0,0,1,2.253,2.251l0,6.783a2.252,2.252,0,0,1-2.251,2.252" transform="translate(-93.12 -164.289)" fill="#c2c2c2"/>
            </g>
          </g>
        </g>
        <path id="Path_16377" data-name="Path 16377" d="M110.233,174.952l-15.45.007a2.251,2.251,0,0,1-2.252-2.249l0-6.785a2.253,2.253,0,0,1,2.251-2.252l15.449-.005a2.25,2.25,0,0,1,2.252,2.249l0,6.783a2.252,2.252,0,0,1-2.251,2.252" transform="translate(32.773 57.97)" fill="#3ca0d7"/>
        <path id="Path_16378" data-name="Path 16378" d="M93.322,173.482l0-6.665a2.256,2.256,0,0,1,2.192-2.312l15.565-.007a2.06,2.06,0,0,1,1.079.341,2.153,2.153,0,0,0-1.87-1.173l-15.564.007a2.256,2.256,0,0,0-2.194,2.312l0,6.665a2.3,2.3,0,0,0,1.116,1.968,2.327,2.327,0,0,1-.325-1.136" transform="translate(32.773 57.97)" fill="#70cdf2"/>
        <g id="Group_2091" data-name="Group 2091" transform="translate(177.328 222.456)" style="mix-blend-mode: multiply;isolation: isolate">
          <g id="Group_2090" data-name="Group 2090">
            <g id="Group_2089" data-name="Group 2089" clip-path="url(#clip-path-4)">
              <path id="Path_16379" data-name="Path 16379" d="M148.652,175.557l-15.45.007a2.25,2.25,0,0,1-2.252-2.249l0-6.785a2.252,2.252,0,0,1,2.251-2.252l15.449-.007a2.253,2.253,0,0,1,2.253,2.251l0,6.783a2.252,2.252,0,0,1-2.251,2.252" transform="translate(-130.947 -164.272)" fill="#c2c2c2"/>
            </g>
          </g>
        </g>
        <path id="Path_16380" data-name="Path 16380" d="M148.061,174.936l-15.45.007a2.25,2.25,0,0,1-2.252-2.249l0-6.785a2.253,2.253,0,0,1,2.251-2.252l15.449-.007a2.253,2.253,0,0,1,2.253,2.251l0,6.783a2.252,2.252,0,0,1-2.251,2.252" transform="translate(46.171 57.964)" fill="#3ca0d7"/>
        <path id="Path_16381" data-name="Path 16381" d="M131.15,173.465l0-6.665a2.254,2.254,0,0,1,2.192-2.31l15.565-.008a2.06,2.06,0,0,1,1.079.341,2.154,2.154,0,0,0-1.87-1.173l-15.564.007a2.256,2.256,0,0,0-2.194,2.312l0,6.665a2.3,2.3,0,0,0,1.116,1.968,2.323,2.323,0,0,1-.325-1.136" transform="translate(46.171 57.964)" fill="#70cdf2"/>
        <path id="Path_16382" data-name="Path 16382" d="M173.966,103.788l-.421.379a.518.518,0,0,1-.73-.019l-7.487-8.258a.512.512,0,0,1,.057-.725l.421-.379a.518.518,0,0,1,.73.019l7.487,8.258a.513.513,0,0,1-.057.725" transform="translate(58.514 33.523)" fill="#234662"/>
        <path id="Path_16383" data-name="Path 16383" d="M198.906,96.475c-1-.817-8.74,2.591-8.641,3.777s-5.4,12.686-5.4,12.686l-9.5-7.6,0,0c-.084-.275-.986-3.232-1.029-3.761-.046-.555-1.652-1.526-2.4-1.383s.638,1.081.729,1.254c.246.469-.71.645-.71.645s-2.745-1.513-2.8-2.4-.626-2.753-1.219-2.363c-.306.2-.3,1.523-.207,2.15-.176-.712-.427-1.517-.669-1.6-.444-.146-.665.421-.585.7s.8,3.3,1.016,3.643,4.648,3.916,5.285,4.695c0,0,12.291,14.1,13.165,14.465.768.324,3.506-4.534,6.093-7.76s10-14.6,6.878-17.152" transform="translate(58.957 34.126)" fill="#f7a491"/>
        <path id="Path_16384" data-name="Path 16384" d="M208.992,174.2s1.689,1.653,1.727,2.26.15,7.108-.539,7.715-2.715,1.037-2.064,1.72c.492.516,4.278.4,6.787.267.731-.041,1.651-5.9,1.941-6.766.421-1.251,1.446-4.071,1.063-4.943a7.316,7.316,0,0,0-2.337-2.114,11.526,11.526,0,0,1-2.591-2.768Z" transform="translate(73.668 60.061)" fill="#f48c7f"/>
        <path id="Path_16385" data-name="Path 16385" d="M197.475,175.857s1.511,4.283,1.513,4.3c.112.678.555,2.355.555,2.972,0,2.317-10.418-1.968-8.083-3a2.472,2.472,0,0,0,.944-1.624,5.443,5.443,0,0,0-.878-2.741Z" transform="translate(67.693 62.255)" fill="#ffa77d"/>
        <path id="Path_16386" data-name="Path 16386" d="M184.477,116.924s-.76,7.68-.76,7.795c0,12.423-2.454,36.691-1.988,39.027,1.139,5.7,13.394,34.758,13.394,34.758l6.623-.795-8.63-34.795,3.176-14.005,4.495-27.684Z" transform="translate(64.347 41.414)" fill="#2b5c8b"/>
        <path id="Path_16387" data-name="Path 16387" d="M205.472,123.43l1.257,7.279,3.4,29.957,12.95,29.279s-1.821,4.26-4.509,4.859l-20.611-30.06-12.8-38.465.45-8.546Z" transform="translate(65.581 41.7)" fill="#234662"/>
        <path id="Path_16388" data-name="Path 16388" d="M181.792,108.679l9.184.941s.423-7.555.423-11.16c0-4.373-.372-10-.9-9.883a8,8,0,0,0-4.65,2.791c-4.1,5.65-4.059,17.311-4.059,17.311" transform="translate(64.39 31.373)" fill="#3ca0d7"/>
        <path id="Path_16389" data-name="Path 16389" d="M186.1,97.766c-.192,1.333-3.723,37.575-3.723,37.575,16.723,8.1,25.95,1.444,25.95,1.444s-.547-25.449.11-28.913c.433-2.291.974-17.521-.505-17.947a37.04,37.04,0,0,0-6.451-1.376c-2.026-.211-9.9-.333-11.306.141a18.015,18.015,0,0,0-4.075,9.077" transform="translate(64.596 31.297)" fill="#42b9f3"/>
        <path id="Path_16390" data-name="Path 16390" d="M215.666,171.584s-3.892,11-5.415,11.528c-.4.141-2.347.5-2.712,1.36a3.764,3.764,0,0,0,0,1.127h8.113s1.026-4.845,1.431-6.975c0,0,2.148-5.2,1.909-5.674s-3.326-1.365-3.326-1.365" transform="translate(73.491 60.774)" fill="#184655"/>
        <path id="Path_16391" data-name="Path 16391" d="M202.246,182.753l-1.193-3.781s-2.505,1.063-3.758.886a38.037,38.037,0,0,1-3.7-.886c-5,1.651-9.1,2.452-8.351,3.781Z" transform="translate(65.581 63.391)" fill="#184655"/>
        <path id="Path_16392" data-name="Path 16392" d="M181.133,117.31a2.078,2.078,0,0,1-.252-.188c.3-3.551.244-6.99-.868-8.154.027-.057.27-.574.524-1.11,1.287,1,1.9,3.652,1.658,7.96a7.14,7.14,0,0,1-.169.891c-.372.412-.711.677-.892.6" transform="translate(63.76 38.203)" fill="#f7a491"/>
        <path id="Path_16393" data-name="Path 16393" d="M218.183,133.508a.958.958,0,0,0,0-.233c-.246-2.511-2.324-23.586-2.673-24.482-.316-.808-9.63-14.176-9.63-14.176l-4.579,6.259,8.958,11.989c.2.762,3.433,14.99,3.433,14.99s.662,2.593.959,4.147c-.135.374-.268.727-.386,1.018a9.37,9.37,0,0,1-.964,1.556,10.625,10.625,0,0,0-1.144,2.03c-.095.366-.265,1.127-.363,1.586s-.229.994-.252,1.243a2.4,2.4,0,0,1-.29.668.4.4,0,0,0,.473.578c.325-.108.578-.531.735-.795.44-.743.676-2.1.785-2.029s.5,2.375.557,2.635a28.448,28.448,0,0,0,.785,3.423c.261.489.608.408.7.1.079-.264-.29-4.006-.29-4.006s-.045-.478.163-.329.55,3.547.695,4.044.475.761.756.362c.34-.486-.246-4.09-.246-4.09s-.065-.452.127-.41.435,2.937.585,3.188a.38.38,0,0,0,.71-.077,17.866,17.866,0,0,0-.339-3.7s.027-.256.148-.171.5,2.538.75,2.765a.264.264,0,0,0,.383.005c.456-.313-.244-2.646-.236-3.807s-.529-2.465-.37-3.846c.009-.087.038-.3.056-.433" transform="translate(71.301 33.513)" fill="#ffa77d"/>
        <path id="Path_16394" data-name="Path 16394" d="M214.225,104.886l-7.956,5.36s-4.485-6.7-6.893-9.08c-3.014-2.986,1.1-12.134,3.042-11.616,4.346,1.158,11.807,15.336,11.807,15.336" transform="translate(70.239 31.71)" fill="#42b9f3"/>
        <path id="Path_16395" data-name="Path 16395" d="M197.88,82.835l1.19,7.871s-4.347,9.371-6.942,8.559c-2.176-.681-.837-8.974-.837-8.974s1.186-4.453.83-6.682,5.758-.773,5.758-.773" transform="translate(67.61 29.174)" fill="#ffa77d"/>
        <path id="Path_16396" data-name="Path 16396" d="M191.838,83.608c-.356-2.229,5.758-.773,5.758-.773l.1.653a3.642,3.642,0,0,1-.664,1.1,8.033,8.033,0,0,1-5.345,2.427,12.2,12.2,0,0,0,.152-3.4" transform="translate(67.894 29.174)" fill="#ed8b5d"/>
        <path id="Path_16397" data-name="Path 16397" d="M199.521,75.133c.173-.062,1.385,8.965-.915,11.448s-6.782,3.3-8.389,1.341c-1.779-2.164-1.69-11.867,1.886-14.421s7.418,1.632,7.418,1.632" transform="translate(66.972 25.741)" fill="#ffa77d"/>
        <path id="Path_16398" data-name="Path 16398" d="M193.131,69.734a9.932,9.932,0,0,1,5.214,2.983c1.254.149,2.96.845,4.722,3.771a7.335,7.335,0,0,1-1.955,9.543,5.706,5.706,0,0,0-2.486,4.216l-.4-1.169a6.553,6.553,0,0,1-.316-2.753,5.365,5.365,0,0,1,.408-1.656c.607-1.305-1.3-2.173-1.839-3.261-.412-.837-.432-2.752-1.081-4.134l-.776-1.056a4.922,4.922,0,0,0-3.54-1c-1.751.394-1.5-6.206,2.048-5.48" transform="translate(67.306 24.679)" fill="#184655"/>
        <path id="Path_16399" data-name="Path 16399" d="M194.879,80.042c-.018,1.1.481,2,1.115,2.014s1.162-.873,1.181-1.974-.481-2-1.114-2.014-1.163.873-1.181,1.974" transform="translate(69.025 27.651)" fill="#ffa77d"/>
        <path id="Path_16400" data-name="Path 16400" d="M27.1,191.979H25.061l7.6-39.5,1.7.322Z" transform="translate(8.876 54.009)" fill="#0e2e35"/>
        <path id="Path_16401" data-name="Path 16401" d="M70.013,191.8l1.7-.322-7.326-39-1.7.322Z" transform="translate(22.203 54.009)" fill="#0e2e35"/>
        <path id="Path_16402" data-name="Path 16402" d="M54.675,191.979H52.635l7.6-39.5,1.7.322Z" transform="translate(18.643 54.009)" fill="#0e2e35"/>
        <path id="Path_16403" data-name="Path 16403" d="M42.206,191.932l1.656.02-7.287-39.338-1.7.322Z" transform="translate(12.354 54.055)" fill="#0e2e35"/>
        <path id="Path_16404" data-name="Path 16404" d="M53.432,113.248c-6.714.722-15.4,1.483-24.128,16.337-9.535,16.235-4.516,40.486,3.009,47.225s32.1,15.06,52.765,2.6c0,0,12.475-7.548,6.072-20.077-9.852-19.281-8.46-23.3-12.865-30.857s-10.6-16.762-24.854-15.231" transform="translate(8.527 40.052)" fill="#fafafa"/>
        <path id="Path_16405" data-name="Path 16405" d="M29.3,129.24C35.258,119.1,41.2,115.529,46.5,114.053a44.54,44.54,0,0,0-6.216,8.418c-9.534,16.235-4.515,40.486,3.01,47.225,6.673,5.976,26.758,13.194,45.628,6.064a19.187,19.187,0,0,1-3.847,3.308c-20.661,12.457-45.238,4.136-52.763-2.6S19.769,145.476,29.3,129.24" transform="translate(8.527 40.397)" fill="#ededed"/>
        <path id="Path_16406" data-name="Path 16406" d="M62.6,131.426l1.725,5.195-5.26-2.075Z" transform="translate(20.92 46.55)" fill="#f79c8d"/>
        <path id="Path_16407" data-name="Path 16407" d="M58.546,120.01c.351.015,1.311.336,2.717,2.991,1.794,3.391,4.417,13.635,4.417,13.635l-7.829,2.914-1.006-2.137-1.656-16.462s3.26-.947,3.357-.943" transform="translate(19.548 42.507)" fill="#3ca0d7"/>
        <path id="Path_16408" data-name="Path 16408" d="M53.658,118.92A47.75,47.75,0,0,1,64.006,120.4s1.889,16.231-1.7,28.565c-.8,2.76.664,11.444.664,11.444L39.775,160.1s2.748-20.994,1.713-24.385-1.06-15.21-1.06-15.21.158-.024,5.211-.9a52.7,52.7,0,0,1,8.02-.688" transform="translate(14.088 42.121)" fill="#42b9f3"/>
        <path id="Path_16409" data-name="Path 16409" d="M49.755,171.8s.513,5.923,1.457,7.563-.05,4.428-.1,4.81-1.985.93-5.065.6-3.029-1.039-2.78-2.186,1.886-2.624,1.985-3.719a28.476,28.476,0,0,0-.943-5.029Z" transform="translate(15.288 60.851)" fill="#f7a491"/>
        <path id="Path_16410" data-name="Path 16410" d="M60.457,146.041s16.012-.89,19.587,1.277-.646,6.611-.646,6.611-13.035,5.667-34.86,6.927c-5.168.3-5.613-13.474-4.646-14.614s20.565-.2,20.565-.2" transform="translate(13.984 51.598)" fill="#234662"/>
        <path id="Path_16411" data-name="Path 16411" d="M45.714,183.166c-3.17-.337-2.779-1.9-2.523-3.078A10.48,10.48,0,0,1,44.8,177.65a5.285,5.285,0,0,0,2.122,1.031c1.429.423,3.39-.413,4.638-.937a15.275,15.275,0,0,1,.424,4.09c-.051.394-3.1,1.67-6.273,1.333" transform="translate(15.239 62.923)" fill="#184655"/>
        <path id="Path_16412" data-name="Path 16412" d="M49.475,157.455c.639,4.841,3.807,28.939,3.807,28.939l-7.349.911S36.9,155.851,37.36,151.04s3.846-5.216,3.846-5.216,6.577-1.184,8.27,11.631" transform="translate(13.226 51.64)" fill="#2b5c8b"/>
        <path id="Path_16413" data-name="Path 16413" d="M41.016,121.429c2.168-.814,3.23,18.727,3.522,26.77a94.325,94.325,0,0,0,12.2-.122c.784-.058,2.592-.72,3.371-.823a7.859,7.859,0,0,1,1.916-.091,36.275,36.275,0,0,1,4.491,2.022c.424.446,1.574,1.568,1.379,2.054s-2.209-1.354-2.209-1.354l-.984-.553c1.226,1.2,3.564,2.775,3.227,3.349s-2.438-1.04-3.939-2.132c1.288,1.165,2.89,3.249,2.522,3.574-.33.291-2.153-2.121-4.1-2.815-.722-.257-1.441.455-2.008.542a4.057,4.057,0,0,1-1.469.081l-2.108-.6c-.718.065-.735.49-1.461.645-.841.179-2.222.367-3.295.63-6.172,1.507-8.232,2.209-10.121,2.207-5.726,0-6.057-31.463-.932-33.386" transform="translate(13.246 43.001)" fill="#f7a491"/>
        <path id="Path_16414" data-name="Path 16414" d="M37.072,140.252c-.406-8.239-.347-18.393,4.271-20.126,1.823-.683,5.035,3.427,4.457,20.294a34.712,34.712,0,0,1-8.728-.168" transform="translate(13.075 42.523)" fill="#3ca0d7"/>
        <path id="Path_16415" data-name="Path 16415" d="M58.085,132.357h-.471l-7.077,17.392.488-.074Z" transform="translate(17.9 46.88)" fill="#f79c8d"/>
        <path id="Path_16416" data-name="Path 16416" d="M65.407,175.543a4,4,0,0,0,.506,3.415c1.148,1.36,5.921,2.693,6.546,3.43a2.064,2.064,0,0,1,.58,1.364l-13.392-.368.145-4.045.618-2.906Z" transform="translate(21.127 62.176)" fill="#f7a491"/>
        <path id="Path_16417" data-name="Path 16417" d="M66.944,178.647s-3.441,1.392-5.1.567-1.614-1.052-2.095-.745-.651,4.1-.651,4.1l15.059.441c1.048-.023,1.578-.795.724-1.456a12.214,12.214,0,0,0-1.641-.976,46.986,46.986,0,0,0-6.293-1.931" transform="translate(20.931 63.166)" fill="#184655"/>
        <path id="Path_16418" data-name="Path 16418" d="M64.832,149.75c1.035-2.178,3.39-5.015,7.531-3.306,3.95,1.629,5.011,5.632,3.765,9.733s-9.452,28.2-9.738,31.513l-6.552.043s1.19-19.083,1.483-23.7a44.675,44.675,0,0,1,3.511-14.288" transform="translate(21.194 51.684)" fill="#2b5c8b"/>
        <path id="Path_16419" data-name="Path 16419" d="M82.535,132.356h-21.9a1.429,1.429,0,0,0-1.322.891l-6.743,16.5H40.5a.612.612,0,0,0,0,1.224H74.859a2.4,2.4,0,0,0,2.188-1.419l6.79-15.179a1.432,1.432,0,0,0-1.3-2.019" transform="translate(14.127 46.88)" fill="#0e2e35"/>
        <path id="Path_16420" data-name="Path 16420" d="M63.294,139.87a1.206,1.206,0,1,1-.9-1.576,1.291,1.291,0,0,1,.9,1.576" transform="translate(21.578 48.975)" fill="#fff"/>
        <path id="Path_16421" data-name="Path 16421" d="M57.058,104.719a16.713,16.713,0,0,1-1.938-.776,9.656,9.656,0,0,0-2.209-.831c-1.221-.19-3.322-.064-4.481,1.194-1.445,1.567-4.011.283-3.5,8.491.586,9.288,5.751,8.27,5.877,8.112s4.606-5.942,4.606-5.942,1.567,3.427,1.567,3.3,8-10.878.073-13.549" transform="translate(15.892 36.496)" fill="#0e2e35"/>
        <path id="Path_16422" data-name="Path 16422" d="M52.363,118.11l.446,3.319s1,4.783-.286,5.7-5.466-5.841-5.466-5.841l.441-8.411Z" transform="translate(16.667 39.982)" fill="#f7a491"/>
        <path id="Path_16423" data-name="Path 16423" d="M47.278,115.608a9.523,9.523,0,0,0,5.384,5.317l-.378-2.814-4.864-5.229Z" transform="translate(16.746 39.982)" fill="#ed8b5d"/>
        <path id="Path_16424" data-name="Path 16424" d="M52.248,106.138a4.426,4.426,0,0,1,5.1,4.476,33.611,33.611,0,0,1-.372,4.258c-.592,3.832-3.207,7.207-4.935,6.905s-6.079-3.606-5.313-9.06c.473-3.367,2.665-6.117,5.522-6.579" transform="translate(16.518 37.573)" fill="#f7a491"/>
        <path id="Path_16425" data-name="Path 16425" d="M48.245,111.922a1.288,1.288,0,1,1-.979-1.743,1.427,1.427,0,0,1,.979,1.743" transform="translate(16.197 39.019)" fill="#f7a491"/>
        <path id="Path_16426" data-name="Path 16426" d="M47.036,111.958s2.09.52,2.865-.825,3.549-4.245,7.074-3.043-3.1-2.924-3.384-2.924-3.667-.024-3.667-.024-2.608,2.146-2.7,2.382-.845,2.807-.845,2.807Z" transform="translate(16.426 37.241)" fill="#0e2e35"/>
      </g>
    </g>
  </g>
</svg>
