<svg id="Group_2285" data-name="Group 2285" xmlns="http://www.w3.org/2000/svg" xmlns:xlink="http://www.w3.org/1999/xlink" width="29.818" height="29.354" viewBox="0 0 29.818 29.354">
  <defs>
    <clipPath id="clip-path">
      <rect id="Rectangle_805" data-name="Rectangle 805" width="29.818" height="29.354" fill="none" stroke="#26a9e0" stroke-width="1"/>
    </clipPath>
  </defs>
  <g id="Group_1787" data-name="Group 1787" transform="translate(0 0)">
    <g id="Group_1786" data-name="Group 1786" clip-path="url(#clip-path)">
      <line id="Line_56" data-name="Line 56" x2="3.293" y2="3.661" transform="translate(3.39 4.609)" fill="none" stroke="#26a9e0" stroke-linecap="round" stroke-linejoin="round" stroke-width="2"/>
    </g>
  </g>
  <line id="Line_57" data-name="Line 57" x1="3.293" y2="3.661" transform="translate(6.683 4.611)" fill="none" stroke="#26a9e0" stroke-linecap="round" stroke-linejoin="round" stroke-width="2"/>
  <g id="Group_1789" data-name="Group 1789" transform="translate(0 0)">
    <g id="Group_1788" data-name="Group 1788" clip-path="url(#clip-path)">
      <line id="Line_58" data-name="Line 58" x2="5.788" transform="translate(3.789 8.778)" fill="none" stroke="#26a9e0" stroke-linecap="round" stroke-linejoin="round" stroke-width="2"/>
      <line id="Line_59" data-name="Line 59" x2="5.788" transform="translate(3.789 11.691)" fill="none" stroke="#26a9e0" stroke-linecap="round" stroke-linejoin="round" stroke-width="2"/>
    </g>
  </g>
  <line id="Line_60" data-name="Line 60" y2="6.346" transform="translate(6.683 8.27)" fill="none" stroke="#26a9e0" stroke-linecap="round" stroke-linejoin="round" stroke-width="2"/>
  <g id="Group_1791" data-name="Group 1791" transform="translate(0 0)">
    <g id="Group_1790" data-name="Group 1790" clip-path="url(#clip-path)">
      <path id="Path_14951" data-name="Path 14951" d="M20.379,19.207v7.146A1.776,1.776,0,0,1,18.6,28.129H2.776A1.776,1.776,0,0,1,1,26.353V2.775A1.776,1.776,0,0,1,2.776,1H18.6a1.776,1.776,0,0,1,1.776,1.775V9.72" transform="translate(0.112 0.112)" fill="none" stroke="#26a9e0" stroke-linecap="round" stroke-linejoin="round" stroke-width="2"/>
      <path id="Path_14952" data-name="Path 14952" d="M23.71,11.024l2.362,2.362L23.6,15.857" transform="translate(2.634 1.231)" fill="none" stroke="#26a9e0" stroke-linecap="round" stroke-linejoin="round" stroke-width="2"/>
      <line id="Line_61" data-name="Line 61" x1="16.532" transform="translate(12.174 14.616)" fill="none" stroke="#26a9e0" stroke-linecap="round" stroke-linejoin="round" stroke-width="2"/>
      <line id="Line_62" data-name="Line 62" x2="4.562" transform="translate(12.012 6.279)" fill="none" stroke="#26a9e0" stroke-linecap="round" stroke-linejoin="round" stroke-width="2"/>
      <line id="Line_63" data-name="Line 63" x2="4.562" transform="translate(12.012 10.64)" fill="none" stroke="#26a9e0" stroke-linecap="round" stroke-linejoin="round" stroke-width="2"/>
      <line id="Line_64" data-name="Line 64" x2="10.982" transform="translate(5.593 18.754)" fill="none" stroke="#26a9e0" stroke-linecap="round" stroke-linejoin="round" stroke-width="2"/>
      <line id="Line_65" data-name="Line 65" x2="10.982" transform="translate(5.593 22.893)" fill="none" stroke="#26a9e0" stroke-linecap="round" stroke-linejoin="round" stroke-width="2"/>
    </g>
  </g>
</svg>
