<svg id="Group_1768" data-name="Group 1768" xmlns="http://www.w3.org/2000/svg" xmlns:xlink="http://www.w3.org/1999/xlink" width="25.734" height="30.726" viewBox="0 0 25.734 30.726">
  <defs>
    <clipPath id="clip-path">
      <rect id="Rectangle_794" data-name="Rectangle 794" width="25.734" height="30.725" fill="none" stroke="#26a9e0" stroke-width="1"/>
    </clipPath>
  </defs>
  <line id="Line_21" data-name="Line 21" x2="3.509" y2="3.901" transform="translate(10.928 9.078)" fill="none" stroke="#26a9e0" stroke-linecap="round" stroke-linejoin="round" stroke-width="2"/>
  <line id="Line_22" data-name="Line 22" x1="3.509" y2="3.901" transform="translate(14.438 9.08)" fill="none" stroke="#26a9e0" stroke-linecap="round" stroke-linejoin="round" stroke-width="2"/>
  <line id="Line_23" data-name="Line 23" x2="6.169" transform="translate(11.353 13.52)" fill="none" stroke="#26a9e0" stroke-linecap="round" stroke-linejoin="round" stroke-width="2"/>
  <line id="Line_24" data-name="Line 24" x2="6.169" transform="translate(11.353 16.625)" fill="none" stroke="#26a9e0" stroke-linecap="round" stroke-linejoin="round" stroke-width="2"/>
  <line id="Line_25" data-name="Line 25" y2="6.764" transform="translate(14.438 12.979)" fill="none" stroke="#26a9e0" stroke-linecap="round" stroke-linejoin="round" stroke-width="2"/>
  <g id="Group_1767" data-name="Group 1767" transform="translate(0 0)">
    <g id="Group_1766" data-name="Group 1766" clip-path="url(#clip-path)">
      <path id="Path_14926" data-name="Path 14926" d="M21.6,25.828H4.668V1H21.6a1.786,1.786,0,0,1,1.785,1.787V24.042A1.786,1.786,0,0,1,21.6,25.828Z" transform="translate(0.862 0.185)" fill="none" stroke="#26a9e0" stroke-linecap="round" stroke-linejoin="round" stroke-width="2"/>
      <path id="Path_14927" data-name="Path 14927" d="M5.346,1H3.259A2.26,2.26,0,0,0,1,3.259V23.891" transform="translate(0.185 0.185)" fill="none" stroke="#26a9e0" stroke-linecap="round" stroke-linejoin="round" stroke-width="2"/>
      <path id="Path_14928" data-name="Path 14928" d="M5.346,21.956H2.764a1.764,1.764,0,0,0,0,3.528h21.6" transform="translate(0.185 4.057)" fill="none" stroke="#26a9e0" stroke-linecap="round" stroke-linejoin="round" stroke-width="2"/>
    </g>
  </g>
</svg>
