<svg id="Group_2120" data-name="Group 2120" xmlns="http://www.w3.org/2000/svg" xmlns:xlink="http://www.w3.org/1999/xlink" width="398.107" height="221.094" viewBox="0 0 398.107 221.094">
  <defs>
    <clipPath id="clip-path">
      <rect id="Rectangle_1112" data-name="Rectangle 1112" width="398.107" height="221.094" fill="none"/>
    </clipPath>
    <clipPath id="clip-path-3">
      <rect id="Rectangle_1092" data-name="Rectangle 1092" width="37.813" height="69.832" fill="none"/>
    </clipPath>
    <clipPath id="clip-path-4">
      <rect id="Rectangle_1090" data-name="Rectangle 1090" width="15.172" height="58.047" fill="none"/>
    </clipPath>
    <clipPath id="clip-path-5">
      <rect id="Rectangle_1091" data-name="Rectangle 1091" width="36.8" height="69.832" fill="none"/>
    </clipPath>
    <clipPath id="clip-path-6">
      <rect id="Rectangle_1095" data-name="Rectangle 1095" width="135.373" height="179.88" fill="none"/>
    </clipPath>
    <clipPath id="clip-path-7">
      <rect id="Rectangle_1108" data-name="Rectangle 1108" width="38.773" height="10.753" fill="none"/>
    </clipPath>
    <clipPath id="clip-path-8">
      <rect id="Rectangle_1109" data-name="Rectangle 1109" width="34.16" height="44.513" fill="none"/>
    </clipPath>
    <clipPath id="clip-path-9">
      <rect id="Rectangle_1110" data-name="Rectangle 1110" width="47.829" height="47.829" fill="none"/>
    </clipPath>
  </defs>
  <g id="Group_2119" data-name="Group 2119" clip-path="url(#clip-path)">
    <g id="Group_2118" data-name="Group 2118">
      <g id="Group_2117" data-name="Group 2117" clip-path="url(#clip-path)">
        <path id="Path_16427" data-name="Path 16427" d="M380.4,220.551c-21.538,0-344.887.078-345.068-.484L35.3,220a.374.374,0,0,1-.031-.1c-.12-.28-62.265-25.312-21.3-81.3C35.44,109.244-2.886,64.318,42.746,24.677c71.506-62.12,139.745,14.394,168.671,0,24.313-12.1,63.384-29.438,103.042-13.89,10.9,4.272,34.495,25.7,14.9,61.735-9.791,18.006,33.658,20.1,49.552,39.228,34.612,41.662,14.371,108.8,1.492,108.8" transform="translate(0 0)" fill="#dcf3fd"/>
        <g id="Group_2104" data-name="Group 2104" transform="translate(259.008 30.882)" opacity="0.5">
          <g id="Group_2103" data-name="Group 2103">
            <g id="Group_2102" data-name="Group 2102" clip-path="url(#clip-path-3)">
              <g id="Group_2098" data-name="Group 2098" transform="translate(0 2.146)" opacity="0.5">
                <g id="Group_2097" data-name="Group 2097">
                  <g id="Group_2096" data-name="Group 2096" clip-path="url(#clip-path-4)">
                    <path id="Path_16428" data-name="Path 16428" d="M204.072,83.978s-4.154-32.891,7.459-56.033a3.681,3.681,0,0,1,6.87.855c.013.056.027.112.038.169,1.209,5.751-11.122,34.354-14.367,55.009" transform="translate(-203.35 -25.931)" fill="#85caff"/>
                  </g>
                </g>
              </g>
              <g id="Group_2101" data-name="Group 2101" transform="translate(1.013)" opacity="0.5">
                <g id="Group_2100" data-name="Group 2100">
                  <g id="Group_2099" data-name="Group 2099" clip-path="url(#clip-path-5)">
                    <path id="Path_16429" data-name="Path 16429" d="M204.145,94.078S210.5,50.09,233.951,25.487a3.9,3.9,0,0,1,5.38-.31c1.01.894,1.764,2.5,1.588,5.338-.467,7.575-25.641,38.959-36.774,63.563" transform="translate(-204.145 -24.246)" fill="#85caff"/>
                  </g>
                </g>
              </g>
            </g>
          </g>
        </g>
        <g id="Group_2107" data-name="Group 2107" transform="translate(40.54 40.675)" opacity="0.4">
          <g id="Group_2106" data-name="Group 2106">
            <g id="Group_2105" data-name="Group 2105" clip-path="url(#clip-path-6)">
              <path id="Path_16430" data-name="Path 16430" d="M39.631,101.781H53.544a2.217,2.217,0,0,0,2.218-2.218V41a2.217,2.217,0,0,0-2.218-2.218H39.631A2.218,2.218,0,0,0,37.413,41V99.564a2.218,2.218,0,0,0,2.218,2.218" transform="translate(-30.3 -30.059)" fill="#8ccbf4"/>
              <path id="Path_16431" data-name="Path 16431" d="M49.841,78.5a4.3,4.3,0,1,0-4.3,4.3,4.3,4.3,0,0,0,4.3-4.3" transform="translate(-29.252 -20.365)" fill="#5385ba"/>
              <path id="Path_16432" data-name="Path 16432" d="M45.639,83.374A4.756,4.756,0,1,1,50.4,78.618a4.761,4.761,0,0,1-4.756,4.756m0-8.6a3.845,3.845,0,1,0,3.845,3.845,3.849,3.849,0,0,0-3.845-3.845" transform="translate(-29.35 -20.458)" fill="#fff"/>
              <path id="Path_16433" data-name="Path 16433" d="M41.216,76.458h9.106a.82.82,0,0,0,.82-.819V41.867a.82.82,0,0,0-.82-.819H41.216a.819.819,0,0,0-.82.819V75.639a.819.819,0,0,0,.82.819" transform="translate(-29.483 -29.439)" fill="#aeecff"/>
              <path id="Path_16434" data-name="Path 16434" d="M42.037,43.474h6.7a.653.653,0,0,0,.652-.652v-.116a.653.653,0,0,0-.652-.652h-6.7a.652.652,0,0,0-.652.652v.116a.652.652,0,0,0,.652.652" transform="translate(-29.212 -29.164)" fill="#42f3d3"/>
              <path id="Path_16435" data-name="Path 16435" d="M45.693,59.9v7.3a.355.355,0,1,0,.709,0V59.9a.355.355,0,1,0-.709,0" transform="translate(-28.033 -24.377)" fill="#5385ba"/>
              <path id="Path_16436" data-name="Path 16436" d="M45.693,52.014v7.3a.355.355,0,1,0,.709,0v-7.3a.355.355,0,1,0-.709,0" transform="translate(-28.033 -26.535)" fill="#5385ba"/>
              <path id="Path_16437" data-name="Path 16437" d="M42.5,59.9v7.3a.355.355,0,1,0,.709,0V59.9a.355.355,0,1,0-.709,0" transform="translate(-28.908 -24.377)" fill="#5385ba"/>
              <path id="Path_16438" data-name="Path 16438" d="M42.5,52.014v7.3a.355.355,0,1,0,.709,0v-7.3a.355.355,0,1,0-.709,0" transform="translate(-28.908 -26.535)" fill="#5385ba"/>
              <path id="Path_16439" data-name="Path 16439" d="M44.159,58.28V67.64a.355.355,0,0,0,.709,0V58.28a.355.355,0,1,0-.709,0" transform="translate(-28.453 -24.82)" fill="#5385ba"/>
              <path id="Path_16440" data-name="Path 16440" d="M44.159,48.369v9.359a.355.355,0,0,0,.709,0V48.369a.355.355,0,1,0-.709,0" transform="translate(-28.453 -27.533)" fill="#5385ba"/>
              <path id="Path_16441" data-name="Path 16441" d="M57.6,101.781H71.512a2.216,2.216,0,0,0,2.216-2.218V41a2.216,2.216,0,0,0-2.216-2.218H57.6A2.218,2.218,0,0,0,55.379,41V99.564a2.218,2.218,0,0,0,2.218,2.218" transform="translate(-25.382 -30.059)" fill="#8ccbf4"/>
              <path id="Path_16442" data-name="Path 16442" d="M67.807,78.5a4.3,4.3,0,1,0-4.3,4.3,4.3,4.3,0,0,0,4.3-4.3" transform="translate(-24.335 -20.365)" fill="#5385ba"/>
              <path id="Path_16443" data-name="Path 16443" d="M63.6,83.374a4.756,4.756,0,1,1,4.756-4.756A4.761,4.761,0,0,1,63.6,83.374m0-8.6a3.845,3.845,0,1,0,3.845,3.845A3.849,3.849,0,0,0,63.6,74.773" transform="translate(-24.433 -20.458)" fill="#fff"/>
              <path id="Path_16444" data-name="Path 16444" d="M59.181,76.458h9.107a.819.819,0,0,0,.819-.819V41.867a.819.819,0,0,0-.819-.819H59.181a.819.819,0,0,0-.819.819V75.639a.819.819,0,0,0,.819.819" transform="translate(-24.566 -29.439)" fill="#aeecff"/>
              <path id="Path_16445" data-name="Path 16445" d="M60,43.474h6.7a.653.653,0,0,0,.653-.652v-.116a.653.653,0,0,0-.653-.652H60a.652.652,0,0,0-.652.652v.116a.652.652,0,0,0,.652.652" transform="translate(-24.295 -29.164)" fill="#42f3d3"/>
              <path id="Path_16446" data-name="Path 16446" d="M63.658,59.9v7.3a.355.355,0,1,0,.709,0V59.9a.355.355,0,1,0-.709,0" transform="translate(-23.116 -24.377)" fill="#5385ba"/>
              <path id="Path_16447" data-name="Path 16447" d="M63.658,52.014v7.3a.355.355,0,1,0,.709,0v-7.3a.355.355,0,1,0-.709,0" transform="translate(-23.116 -26.535)" fill="#5385ba"/>
              <path id="Path_16448" data-name="Path 16448" d="M60.461,59.9v7.3a.355.355,0,1,0,.709,0V59.9a.355.355,0,1,0-.709,0" transform="translate(-23.991 -24.377)" fill="#5385ba"/>
              <path id="Path_16449" data-name="Path 16449" d="M60.461,52.014v7.3a.355.355,0,1,0,.709,0v-7.3a.355.355,0,1,0-.709,0" transform="translate(-23.991 -26.535)" fill="#5385ba"/>
              <path id="Path_16450" data-name="Path 16450" d="M62.125,58.28V67.64a.355.355,0,0,0,.709,0V58.28a.355.355,0,1,0-.709,0" transform="translate(-23.536 -24.82)" fill="#5385ba"/>
              <path id="Path_16451" data-name="Path 16451" d="M62.125,48.369v9.359a.355.355,0,0,0,.709,0V48.369a.355.355,0,1,0-.709,0" transform="translate(-23.536 -27.533)" fill="#5385ba"/>
              <path id="Path_16452" data-name="Path 16452" d="M75.906,101.781H89.821a2.216,2.216,0,0,0,2.216-2.218V41a2.216,2.216,0,0,0-2.216-2.218H75.906A2.218,2.218,0,0,0,73.688,41V99.564a2.218,2.218,0,0,0,2.218,2.218" transform="translate(-20.371 -30.059)" fill="#8ccbf4"/>
              <path id="Path_16453" data-name="Path 16453" d="M86.117,78.5a4.3,4.3,0,1,0-4.3,4.3,4.3,4.3,0,0,0,4.3-4.3" transform="translate(-19.324 -20.365)" fill="#5385ba"/>
              <path id="Path_16454" data-name="Path 16454" d="M81.913,83.374a4.756,4.756,0,1,1,4.756-4.756,4.761,4.761,0,0,1-4.756,4.756m0-8.6a3.845,3.845,0,1,0,3.845,3.845,3.849,3.849,0,0,0-3.845-3.845" transform="translate(-19.421 -20.458)" fill="#fff"/>
              <path id="Path_16455" data-name="Path 16455" d="M77.49,76.458H86.6a.819.819,0,0,0,.819-.819V41.867a.819.819,0,0,0-.819-.819H77.49a.819.819,0,0,0-.819.819V75.639a.819.819,0,0,0,.819.819" transform="translate(-19.554 -29.439)" fill="#aeecff"/>
              <path id="Path_16456" data-name="Path 16456" d="M78.312,43.474h6.7a.653.653,0,0,0,.653-.652v-.116a.653.653,0,0,0-.653-.652h-6.7a.652.652,0,0,0-.652.652v.116a.652.652,0,0,0,.652.652" transform="translate(-19.284 -29.164)" fill="#42f3d3"/>
              <path id="Path_16457" data-name="Path 16457" d="M81.967,59.9v7.3a.355.355,0,1,0,.709,0V59.9a.355.355,0,1,0-.709,0" transform="translate(-18.105 -24.377)" fill="#5385ba"/>
              <path id="Path_16458" data-name="Path 16458" d="M81.967,52.014v7.3a.355.355,0,1,0,.709,0v-7.3a.355.355,0,1,0-.709,0" transform="translate(-18.105 -26.535)" fill="#5385ba"/>
              <path id="Path_16459" data-name="Path 16459" d="M78.77,59.9v7.3a.355.355,0,0,0,.711,0V59.9a.355.355,0,0,0-.711,0" transform="translate(-18.98 -24.377)" fill="#5385ba"/>
              <path id="Path_16460" data-name="Path 16460" d="M78.77,52.014v7.3a.355.355,0,0,0,.711,0v-7.3a.355.355,0,0,0-.711,0" transform="translate(-18.98 -26.535)" fill="#5385ba"/>
              <path id="Path_16461" data-name="Path 16461" d="M80.434,58.28V67.64a.355.355,0,0,0,.709,0V58.28a.355.355,0,1,0-.709,0" transform="translate(-18.524 -24.82)" fill="#5385ba"/>
              <path id="Path_16462" data-name="Path 16462" d="M80.434,48.369v9.359a.355.355,0,0,0,.709,0V48.369a.355.355,0,1,0-.709,0" transform="translate(-18.524 -27.533)" fill="#5385ba"/>
              <path id="Path_16463" data-name="Path 16463" d="M94.761,101.781h13.915a2.216,2.216,0,0,0,2.216-2.218V41a2.216,2.216,0,0,0-2.216-2.218H94.761A2.218,2.218,0,0,0,92.543,41V99.564a2.218,2.218,0,0,0,2.218,2.218" transform="translate(-15.21 -30.059)" fill="#8ccbf4"/>
              <path id="Path_16464" data-name="Path 16464" d="M96.345,76.458h9.107a.819.819,0,0,0,.819-.819V41.867a.819.819,0,0,0-.819-.819H96.345a.819.819,0,0,0-.819.819V75.639a.819.819,0,0,0,.819.819" transform="translate(-14.394 -29.439)" fill="#aeecff"/>
              <path id="Path_16465" data-name="Path 16465" d="M97.167,43.474h6.7a.653.653,0,0,0,.653-.652v-.116a.653.653,0,0,0-.653-.652h-6.7a.652.652,0,0,0-.652.652v.116a.652.652,0,0,0,.652.652" transform="translate(-14.123 -29.164)" fill="#42f3d3"/>
              <path id="Path_16466" data-name="Path 16466" d="M112.957,101.781H126.87a2.217,2.217,0,0,0,2.218-2.218V41a2.217,2.217,0,0,0-2.218-2.218H112.957A2.218,2.218,0,0,0,110.739,41V99.564a2.218,2.218,0,0,0,2.218,2.218" transform="translate(-10.23 -30.059)" fill="#8ccbf4"/>
              <path id="Path_16467" data-name="Path 16467" d="M114.541,76.458h9.107a.818.818,0,0,0,.819-.819V41.867a.818.818,0,0,0-.819-.819h-9.107a.819.819,0,0,0-.819.819V75.639a.819.819,0,0,0,.819.819" transform="translate(-9.413 -29.439)" fill="#aeecff"/>
              <path id="Path_16468" data-name="Path 16468" d="M115.363,43.474h6.7a.652.652,0,0,0,.652-.652v-.116a.652.652,0,0,0-.652-.652h-6.7a.652.652,0,0,0-.652.652v.116a.652.652,0,0,0,.652.652" transform="translate(-9.143 -29.164)" fill="#42f3d3"/>
              <path id="Path_16469" data-name="Path 16469" d="M39.631,157.723H53.544a2.217,2.217,0,0,0,2.218-2.218V96.943a2.216,2.216,0,0,0-2.218-2.216H39.631a2.217,2.217,0,0,0-2.218,2.216v58.563a2.218,2.218,0,0,0,2.218,2.218" transform="translate(-30.3 -14.747)" fill="#8ccbf4"/>
              <path id="Path_16470" data-name="Path 16470" d="M49.841,134.443a4.3,4.3,0,1,0-4.3,4.3,4.3,4.3,0,0,0,4.3-4.3" transform="translate(-29.252 -5.053)" fill="#5385ba"/>
              <path id="Path_16471" data-name="Path 16471" d="M45.639,139.317a4.756,4.756,0,1,1,4.756-4.756,4.761,4.761,0,0,1-4.756,4.756m0-8.6a3.845,3.845,0,1,0,3.845,3.845,3.849,3.849,0,0,0-3.845-3.845" transform="translate(-29.35 -5.146)" fill="#fff"/>
              <path id="Path_16472" data-name="Path 16472" d="M41.216,132.4h9.106a.82.82,0,0,0,.82-.819V97.81a.82.82,0,0,0-.82-.819H41.216a.819.819,0,0,0-.82.819v33.772a.819.819,0,0,0,.82.819" transform="translate(-29.483 -14.127)" fill="#aeecff"/>
              <path id="Path_16473" data-name="Path 16473" d="M42.037,99.417h6.7a.653.653,0,0,0,.652-.652v-.116A.653.653,0,0,0,48.742,98h-6.7a.652.652,0,0,0-.652.652v.116a.652.652,0,0,0,.652.652" transform="translate(-29.212 -13.852)" fill="#42f3d3"/>
              <path id="Path_16474" data-name="Path 16474" d="M45.693,115.84v7.3a.355.355,0,1,0,.709,0v-7.3a.355.355,0,1,0-.709,0" transform="translate(-28.033 -9.065)" fill="#5385ba"/>
              <path id="Path_16475" data-name="Path 16475" d="M45.693,107.956v7.3a.355.355,0,1,0,.709,0v-7.3a.355.355,0,1,0-.709,0" transform="translate(-28.033 -11.223)" fill="#5385ba"/>
              <path id="Path_16476" data-name="Path 16476" d="M42.5,115.84v7.3a.355.355,0,1,0,.709,0v-7.3a.355.355,0,1,0-.709,0" transform="translate(-28.908 -9.065)" fill="#5385ba"/>
              <path id="Path_16477" data-name="Path 16477" d="M42.5,107.956v7.3a.355.355,0,1,0,.709,0v-7.3a.355.355,0,1,0-.709,0" transform="translate(-28.908 -11.223)" fill="#5385ba"/>
              <path id="Path_16478" data-name="Path 16478" d="M44.159,114.223v9.358a.355.355,0,1,0,.709,0v-9.358a.355.355,0,1,0-.709,0" transform="translate(-28.453 -9.508)" fill="#5385ba"/>
              <path id="Path_16479" data-name="Path 16479" d="M44.159,104.311v9.359a.355.355,0,0,0,.709,0v-9.359a.355.355,0,1,0-.709,0" transform="translate(-28.453 -12.221)" fill="#5385ba"/>
              <path id="Path_16480" data-name="Path 16480" d="M57.6,157.723H71.512a2.216,2.216,0,0,0,2.216-2.218V96.943a2.216,2.216,0,0,0-2.216-2.216H57.6a2.217,2.217,0,0,0-2.218,2.216v58.563a2.218,2.218,0,0,0,2.218,2.218" transform="translate(-25.382 -14.747)" fill="#8ccbf4"/>
              <path id="Path_16481" data-name="Path 16481" d="M67.807,134.443a4.3,4.3,0,1,0-4.3,4.3,4.3,4.3,0,0,0,4.3-4.3" transform="translate(-24.335 -5.053)" fill="#5385ba"/>
              <path id="Path_16482" data-name="Path 16482" d="M63.6,139.317a4.756,4.756,0,1,1,4.756-4.756,4.761,4.761,0,0,1-4.756,4.756m0-8.6a3.845,3.845,0,1,0,3.845,3.845,3.849,3.849,0,0,0-3.845-3.845" transform="translate(-24.433 -5.146)" fill="#fff"/>
              <path id="Path_16483" data-name="Path 16483" d="M59.181,132.4h9.107a.819.819,0,0,0,.819-.819V97.81a.819.819,0,0,0-.819-.819H59.181a.819.819,0,0,0-.819.819v33.772a.819.819,0,0,0,.819.819" transform="translate(-24.566 -14.127)" fill="#aeecff"/>
              <path id="Path_16484" data-name="Path 16484" d="M60,99.417h6.7a.653.653,0,0,0,.653-.652v-.116A.653.653,0,0,0,66.707,98H60a.652.652,0,0,0-.652.652v.116a.652.652,0,0,0,.652.652" transform="translate(-24.295 -13.852)" fill="#42f3d3"/>
              <path id="Path_16485" data-name="Path 16485" d="M63.658,115.84v7.3a.355.355,0,1,0,.709,0v-7.3a.355.355,0,1,0-.709,0" transform="translate(-23.116 -9.065)" fill="#5385ba"/>
              <path id="Path_16486" data-name="Path 16486" d="M63.658,107.956v7.3a.355.355,0,1,0,.709,0v-7.3a.355.355,0,1,0-.709,0" transform="translate(-23.116 -11.223)" fill="#5385ba"/>
              <path id="Path_16487" data-name="Path 16487" d="M60.461,115.84v7.3a.355.355,0,1,0,.709,0v-7.3a.355.355,0,1,0-.709,0" transform="translate(-23.991 -9.065)" fill="#5385ba"/>
              <path id="Path_16488" data-name="Path 16488" d="M60.461,107.956v7.3a.355.355,0,1,0,.709,0v-7.3a.355.355,0,1,0-.709,0" transform="translate(-23.991 -11.223)" fill="#5385ba"/>
              <path id="Path_16489" data-name="Path 16489" d="M62.125,114.223v9.358a.355.355,0,1,0,.709,0v-9.358a.355.355,0,1,0-.709,0" transform="translate(-23.536 -9.508)" fill="#5385ba"/>
              <path id="Path_16490" data-name="Path 16490" d="M62.125,104.311v9.359a.355.355,0,0,0,.709,0v-9.359a.355.355,0,1,0-.709,0" transform="translate(-23.536 -12.221)" fill="#5385ba"/>
              <path id="Path_16491" data-name="Path 16491" d="M75.906,157.723H89.821a2.216,2.216,0,0,0,2.216-2.218V96.943a2.216,2.216,0,0,0-2.216-2.216H75.906a2.217,2.217,0,0,0-2.218,2.216v58.563a2.218,2.218,0,0,0,2.218,2.218" transform="translate(-20.371 -14.747)" fill="#8ccbf4"/>
              <path id="Path_16492" data-name="Path 16492" d="M94.761,157.723h13.915a2.216,2.216,0,0,0,2.216-2.218V96.943a2.216,2.216,0,0,0-2.216-2.216H94.761a2.217,2.217,0,0,0-2.218,2.216v58.563a2.218,2.218,0,0,0,2.218,2.218" transform="translate(-15.21 -14.747)" fill="#8ccbf4"/>
              <path id="Path_16493" data-name="Path 16493" d="M112.957,157.723H126.87a2.217,2.217,0,0,0,2.218-2.218V96.943a2.216,2.216,0,0,0-2.218-2.216H112.957a2.217,2.217,0,0,0-2.218,2.216v58.563a2.218,2.218,0,0,0,2.218,2.218" transform="translate(-10.23 -14.747)" fill="#8ccbf4"/>
              <path id="Path_16494" data-name="Path 16494" d="M34.034,211.813h0a2.206,2.206,0,0,1-2.206-2.206V34.141a2.206,2.206,0,1,1,4.412,0V209.607a2.206,2.206,0,0,1-2.206,2.206" transform="translate(-31.828 -31.934)" fill="#bdf0f9"/>
              <rect id="Rectangle_1093" data-name="Rectangle 1093" width="127.459" height="1.772" transform="translate(0 71.73)" fill="#bdf0f9"/>
              <rect id="Rectangle_1094" data-name="Rectangle 1094" width="135.373" height="1.772" transform="translate(0 142.948)" fill="#bdf0f9"/>
            </g>
          </g>
        </g>
        <path id="Path_16495" data-name="Path 16495" d="M254.165,79.874s-12.118,10.52-10.022,12.654,12.658-12.7,12.658-12.7,15.867,3.573,20.03,7.581c0,0-16.687,6.428-14.13,7.98s20.233-4.329,20.233-4.329,13.509,7.148,9.87,15.626-9.457,9.55-11.547,8.605-13.175-9.96-14.036-8.275,4.859,10,10.113,12.031c0,0-13.754,7.8-19.4,2.384s-4.543-10.7-8.094-13.984-7.121-4.457-6.036-1.94,8.026,6.9,9.023,11.913,2.2,8.575-4.39,5.245-16.2-12.119-14.779-18.093c.062-.262.121-.509.177-.749a2.959,2.959,0,0,0-.177.749c-1.53-.22-5.4,1.449-8.263,2.819-.456.259-1.118.588-2.048,1.014-.4.205-.731.377-.959.5-5.961,3.421-11.744,12.9-11.744,12.9l-1.47-.634a25.7,25.7,0,0,1,14.585-14.254A29.6,29.6,0,0,0,235.075,98.6s-6.069-14.748,5.586-19.006c0,0,8.1-1.866,13.5.28" transform="translate(57.252 21.579)" fill="#b8e7f9"/>
        <rect id="Rectangle_1096" data-name="Rectangle 1096" width="10.423" height="33.623" transform="translate(355.312 154.531)" fill="#35488b"/>
        <rect id="Rectangle_1097" data-name="Rectangle 1097" width="25.134" height="33.623" transform="translate(330.178 154.531)" fill="#2c3a64"/>
        <path id="Path_16496" data-name="Path 16496" d="M285.165,124.995a1.741,1.741,0,1,0-1.741,1.74,1.742,1.742,0,0,0,1.741-1.74" transform="translate(77.099 33.736)" fill="#dde7fe"/>
        <path id="Path_16497" data-name="Path 16497" d="M284.546,124.885a1.23,1.23,0,1,0-1.23,1.23,1.23,1.23,0,0,0,1.23-1.23" transform="translate(77.209 33.845)" fill="#6c7aff"/>
        <rect id="Rectangle_1098" data-name="Rectangle 1098" width="4.902" height="8.856" transform="translate(358.034 162.921)" fill="#8fadef"/>
        <rect id="Rectangle_1099" data-name="Rectangle 1099" width="10.423" height="33.623" transform="translate(335.869 154.531)" fill="#35488b"/>
        <rect id="Rectangle_1100" data-name="Rectangle 1100" width="25.134" height="33.623" transform="translate(310.735 154.531)" fill="#2c3a64"/>
        <path id="Path_16498" data-name="Path 16498" d="M269.9,124.995a1.74,1.74,0,1,0-1.74,1.74,1.741,1.741,0,0,0,1.74-1.74" transform="translate(72.921 33.736)" fill="#dde7fe"/>
        <path id="Path_16499" data-name="Path 16499" d="M269.28,124.885a1.23,1.23,0,1,0-1.23,1.23,1.23,1.23,0,0,0,1.23-1.23" transform="translate(73.031 33.845)" fill="#6c7aff"/>
        <rect id="Rectangle_1101" data-name="Rectangle 1101" width="4.902" height="8.856" transform="translate(338.591 162.921)" fill="#8fadef"/>
        <rect id="Rectangle_1102" data-name="Rectangle 1102" width="10.423" height="33.623" transform="translate(318.091 154.531)" fill="#35488b"/>
        <rect id="Rectangle_1103" data-name="Rectangle 1103" width="25.134" height="33.623" transform="translate(292.957 154.531)" fill="#2c3a64"/>
        <path id="Path_16500" data-name="Path 16500" d="M255.941,124.995a1.74,1.74,0,1,0-1.74,1.74,1.74,1.74,0,0,0,1.74-1.74" transform="translate(69.1 33.736)" fill="#dde7fe"/>
        <path id="Path_16501" data-name="Path 16501" d="M255.322,124.885a1.23,1.23,0,1,0-1.23,1.23,1.23,1.23,0,0,0,1.23-1.23" transform="translate(69.21 33.845)" fill="#6c7aff"/>
        <rect id="Rectangle_1104" data-name="Rectangle 1104" width="4.902" height="8.856" transform="translate(320.812 162.921)" fill="#8fadef"/>
        <rect id="Rectangle_1105" data-name="Rectangle 1105" width="58.886" height="43.507" transform="translate(291.391 176.428)" fill="#f77d48"/>
        <rect id="Rectangle_1106" data-name="Rectangle 1106" width="46.689" height="43.507" transform="translate(322.947 176.428)" fill="#ff8c64"/>
        <path id="Path_16502" data-name="Path 16502" d="M269.512,144.714h12.094a1.366,1.366,0,0,0,1.362-1.362v-.176a1.366,1.366,0,0,0-1.362-1.362H269.512a1.366,1.366,0,0,0-1.362,1.362v.176a1.366,1.366,0,0,0,1.362,1.362" transform="translate(73.395 38.816)" fill="#2c3a64"/>
        <path id="Path_16503" data-name="Path 16503" d="M160.858,94.063,152.9,188.751s-.834,5.739,3.435,5.75c7.019.017,34.939,0,34.939,0s-5.283-1.195-5.22-3.884c.076-3.169,9.308-97.449,9.308-97.449Z" transform="translate(41.831 25.501)" fill="#79b2e8"/>
        <path id="Path_16504" data-name="Path 16504" d="M193.405,193.158c-1.381,0-28.41.05-35.247-.038-2.978-.037-3.5-2.648-3.526-4.34a8.4,8.4,0,0,1,.09-1.409l.208-2.461.527-6.273.466-5.542.6-7.121.506-6.011,5.658-67.281,34.5-.9s-3.889,39.456-6.639,68.176c-.307,3.2-.6,6.269-.87,9.132q-.13,1.372-.253,2.679c-.255,2.718-.488,5.213-.69,7.417-.107,1.162-.206,2.24-.3,3.229-.35,3.873-.557,6.347-.559,6.817a3.953,3.953,0,0,0,.068.767c.566,3.017,4.941,3.154,5.459,3.154" transform="translate(42.324 25.123)" fill="#aee1ff"/>
        <path id="Path_16505" data-name="Path 16505" d="M93.354,53.386l19.4,77.915,2.656,10.671,9.034,36.29H292.285l-33.3-124.877Z" transform="translate(25.552 14.612)" fill="#aee1ff"/>
        <path id="Path_16506" data-name="Path 16506" d="M93.931,53.386l-2.689.9,30.2,126.691,3.574-2.709Z" transform="translate(24.974 14.612)" fill="#79b2e8"/>
        <path id="Path_16507" data-name="Path 16507" d="M114.955,154.139H281.766l4.607-2.71H118.529Z" transform="translate(31.464 41.447)" fill="#84c4ef"/>
        <rect id="Rectangle_1107" data-name="Rectangle 1107" width="36.117" height="1.717" transform="translate(204.998 218.279)" fill="#aee1ff"/>
        <path id="Path_16508" data-name="Path 16508" d="M189.433,153.556l-.186,1.312-33.967,6.863.466-5.542.223-2.633Z" transform="translate(42.501 42.029)" fill="#8cbdf4"/>
        <g id="Group_2110" data-name="Group 2110" transform="translate(196.956 207.542)" opacity="0.5">
          <g id="Group_2109" data-name="Group 2109">
            <g id="Group_2108" data-name="Group 2108" clip-path="url(#clip-path-7)">
              <path id="Path_16509" data-name="Path 16509" d="M193.4,173.681c-1.381,0-28.41.05-35.247-.038-2.978-.037-3.5-2.648-3.526-4.34l33.805-6.36c-.35,3.873-.557,6.347-.559,6.817a3.953,3.953,0,0,0,.068.767c.566,3.017,4.941,3.154,5.459,3.154" transform="translate(-154.632 -162.943)" fill="#8cbdf4"/>
            </g>
          </g>
        </g>
        <path id="Path_16510" data-name="Path 16510" d="M93.353,53.386H258.986L285.86,153.748H118.339Z" transform="translate(25.552 14.612)" fill="#8cbdf4"/>
        <path id="Path_16511" data-name="Path 16511" d="M276.574,148.244H121.492l-5.542-22.077-2.144-8.541-.875-3.484-5.7-22.689-.294-1.181L103.93,78.28l-1.348-5.366-1.149-4.578L100.5,64.6l-1.756-7H251.588l1.928,7,1.028,3.733,1.262,4.578,1.479,5.366,9.746,35.35h0l.825,3,.383,1.39,6.729,24.406Z" transform="translate(27.026 15.768)" fill="#2f539b"/>
        <path id="Path_16512" data-name="Path 16512" d="M89.485,96.663s.4-4.408-4.522-4.408a5.783,5.783,0,0,1,2.265,1.215,5.823,5.823,0,0,0-6.56.99c-3.419,2.833-1.294,9.94-2.335,11.29s-5.087,1.619-4.593,5.983S86.59,121.56,85.8,125.171c0,0,4.841-7.117,1.379-10.365a6.416,6.416,0,0,1,1.86,3.48s.457-3.69-1.89-4.869c-2.076-1.044-3.778-4.862-3.6-5.544s5.938-11.209,5.938-11.209" transform="translate(20.172 25.251)" fill="#2c3a64"/>
        <path id="Path_16513" data-name="Path 16513" d="M83.408,112.333s3.68,15.223,7.292,18.266c2.17,1.829,8.627,6.027,8.627,6.027l-2.685.974s-8.954-3.024-10.959-5.381-7.493-14.166-7.493-14.166Z" transform="translate(21.401 30.746)" fill="#ffb27d"/>
        <path id="Path_16514" data-name="Path 16514" d="M103.791,137.051l-.865-2.141a6.073,6.073,0,0,0-5.632-3.8H81.342v53.335H147.33V141.232H109.989a6.683,6.683,0,0,1-6.2-4.182" transform="translate(22.264 35.886)" fill="#69bbee"/>
        <path id="Path_16515" data-name="Path 16515" d="M55.628,136.422c.032.059.068.118.1.178.806,1.4,2.653,4.83,4.687,8.582.963,1.781,1.97,3.634,2.926,5.378,1.647,3.01,3.146,5.691,4.02,7.107.889,1.441,1.544,2.452,1.809,2.857l0,0a.667.667,0,0,1,.085.416,21.927,21.927,0,0,0,.059,3.774,28.958,28.958,0,0,0,9.46,18.753l2.448.362S77.76,171,76.74,163.743a13.993,13.993,0,0,1-.187-2.876,30.086,30.086,0,0,0-.79-7.852,176.322,176.322,0,0,0-5.006-18.175c-.115-.355-3.557-12.808-3.557-12.808-2.889,2.526-13.427,3.568-13.427,3.568s-1.787,4.345,1.856,10.823" transform="translate(14.598 33.401)" fill="#2f539b"/>
        <path id="Path_16516" data-name="Path 16516" d="M81.471,174.206H71.255a5.612,5.612,0,0,1,.289-2.738c.511-1.134,1.239-1.169.093-2.946.648.669,2.736.945,4.212.746a12.594,12.594,0,0,0,1.772,2.7c.667.48,3.645.31,3.85,2.243" transform="translate(19.488 46.125)" fill="#234662"/>
        <path id="Path_16517" data-name="Path 16517" d="M55.135,134.625c.032.059.068.118.1.178.806,1.4,5.161,9.443,7.2,13.2a54.414,54.414,0,0,1-.718-19.4Z" transform="translate(15.091 35.199)" fill="#234662"/>
        <path id="Path_16518" data-name="Path 16518" d="M86.711,95.244c.068-.269-5.835,2.667-6.134,3-2.768,3.07-1.979,7.077-.395,7.115,1.015.025.819,1.714.819,1.714l11.316-4.788s-1.363-7.945-5.606-7.041" transform="translate(21.553 26.049)" fill="#2c3a64"/>
        <path id="Path_16519" data-name="Path 16519" d="M83.294,110.539s1.722,3.44,1.507,6.232c0,0-2.076,3.277-7.461,4.106,0,0,4.63-10.341,5.955-10.339" transform="translate(21.168 30.255)" fill="#3ca0d7"/>
        <path id="Path_16520" data-name="Path 16520" d="M66.9,126.819l.034-1.911c-3.807.48-13.127-4.55-13.127-4.55s-3.983,2.649-4.528,10.214c-.266,3.692-1.95,19.309-2.136,23.972-.068,1.69-.09,2.9-.1,3.378v.005a.663.663,0,0,1-.162.392,21.79,21.79,0,0,0-2.063,3.163c-5.809,10.809-2.772,25.495-2.772,25.495l1.349-.343s4.913-15.225,8.122-21.811a13.8,13.8,0,0,1,1.455-2.489,30.058,30.058,0,0,0,3.735-6.952c2.372-5.664,10.19-28.564,10.19-28.564" transform="translate(11.292 32.943)" fill="#2f539b"/>
        <path id="Path_16521" data-name="Path 16521" d="M50.465,174.221H40.248a5.6,5.6,0,0,1,.288-2.738c.511-1.134,1.313-1.648,1.12-3.02a3.68,3.68,0,0,0,3.184,1.218,11.212,11.212,0,0,0,1.773,2.3c.667.48,3.645.31,3.852,2.243" transform="translate(11.001 46.11)" fill="#234662"/>
        <path id="Path_16522" data-name="Path 16522" d="M83.915,124.317c-1.372.234.224,1.325-1.663,1.53-2.686.294-5.46.494-6.912,1.074a1.564,1.564,0,0,0-1,.806c-.629,1.894-4.617,5.148-4.617,5.148-17.79-.81-18.936-8.739-18.936-8.739,11.546-11.214,21.368-17.326,29.486-18.083a14.449,14.449,0,0,1,5.888.62c2.839,1.264,4.4,5.11,4.4,5.11s-1.43,11.644-6.645,12.533" transform="translate(13.902 29.011)" fill="#69bbee"/>
        <path id="Path_16523" data-name="Path 16523" d="M76.989,124.69c-2.686.293-5.46.494-6.912,1.074a28.323,28.323,0,0,1,3.593-15.547s2.731,11.116,3.319,14.473" transform="translate(19.165 30.167)" fill="#3ca0d7"/>
        <path id="Path_16524" data-name="Path 16524" d="M79.075,109.04s-6.756-.369-7.956,3.872,2.252,21.172,3,22.919c1.354,3.18,8.185,12.656,8.185,12.656l2.189-1.134s-4.4-13.871-5.379-15.244c-1.541-2.154,1.987-21.224-.036-23.069" transform="translate(19.397 29.843)" fill="#ffb27d"/>
        <path id="Path_16525" data-name="Path 16525" d="M82.1,139.181a10.1,10.1,0,0,1,1.019,1.046c.455.555.055.757,1.36,3.271,0,0-.068.349-.35.284s-1.269-1.038-1.774-.968c0,0-.36.3-.4,1.283a23.729,23.729,0,0,1-.2,3.343c-.16.383-1.334-1.606-1.911-3.043-.506-1.26-.013-5.511-.013-5.511Z" transform="translate(21.79 38.014)" fill="#ffb27d"/>
        <path id="Path_16526" data-name="Path 16526" d="M70.019,118.853c.018.1,6.393,1.173,10.381-.851,0,0,3.331-10.437-1.429-9.937s-7.58,2-7.7,4.278a43.837,43.837,0,0,1-1.252,6.51" transform="translate(19.165 29.573)" fill="#69bbee"/>
        <path id="Path_16527" data-name="Path 16527" d="M78.446,107.975a4.238,4.238,0,0,0,1.283,2.972c.846.872,2.07,1.553,2.93.693a9.289,9.289,0,0,0,1.33-1.606c.743-1.276,1.628-2.581,1.628-2.581l-3.824-3.35-.228-.2a9.757,9.757,0,0,1-2.849,3.233.89.89,0,0,0-.269.841" transform="translate(21.469 28.439)" fill="#ffb27d"/>
        <path id="Path_16528" data-name="Path 16528" d="M84.909,107.411s-.884,1.3-1.627,2.581c-2.377-1.466-2.379-4.407-2.2-5.932Z" transform="translate(22.174 28.482)" fill="#ed985f"/>
        <path id="Path_16529" data-name="Path 16529" d="M85.049,110.558s-5.77-3.211-3.715-6.774,2.694-6.377,6.465-4.477,3.7,3.668,3.3,5.023-4.5,6.971-6.05,6.227" transform="translate(22.141 27.014)" fill="#ffb27d"/>
        <path id="Path_16530" data-name="Path 16530" d="M92.2,102.357c-.264-1.582-1.069-1.734-1.629-1.628a4.616,4.616,0,0,0-5.613-2.149,7.86,7.86,0,0,1-4.548,2.732s.67,1.246,3.429,2.018a4.711,4.711,0,0,0,2.722-.218,15.388,15.388,0,0,1-3.915,1.476c3.635.332,7.095-2.992,7.454-3.347a5.175,5.175,0,0,1,.285,2.382c-.239,1.072-1.188,3.012-.609,3.263,0,0,2.82-2.158,2.425-4.529" transform="translate(22.01 26.91)" fill="#2c3a64"/>
        <path id="Path_16531" data-name="Path 16531" d="M95.8,131.435s-1.61,1.207-.4,2,3.38,1,3.389.485c.031-1.739-.837-2.975-2.992-2.482" transform="translate(25.987 35.945)" fill="#ffb27d"/>
        <path id="Path_16532" data-name="Path 16532" d="M389.88,173.816H14.17a.447.447,0,0,1-.446-.445v-.2a.447.447,0,0,1,.446-.445H389.88a.446.446,0,0,1,.445.445v.2a.446.446,0,0,1-.445.445" transform="translate(3.756 47.278)" fill="#234662"/>
        <path id="Path_16533" data-name="Path 16533" d="M130.989,79.815l-1.43-2.112a8.35,8.35,0,0,0-6.58-3.747H107.246l2.731,9.983,10.833,39.612a4.085,4.085,0,0,0,3.94,3.007h56.612a4.084,4.084,0,0,0,3.94-5.162L175.058,83.939H138.229a9.191,9.191,0,0,1-7.24-4.124" transform="translate(29.354 20.242)" fill="#69bbee"/>
        <path id="Path_16534" data-name="Path 16534" d="M127.216,70.913a.877.877,0,0,0-.157.936l0,0A5.813,5.813,0,0,0,128.9,73.87c.111.089.209.171.294.246.023.02.046.039.066.06l.051.046c.808.745.5.916,1.955,2.428,1.655,1.722,2.795,1.754,3.118,1.6.274-.134-.283-1.047-.9-2.074-.031-.05-.06-.1-.09-.15l-.246-.413c-.722-1.235-.536-1.815-.364-3.653.14-1.494,2.327-8.347,2.327-8.347l-3.172-.548s-.957,5.457-2.01,6.3c-.563.448-1.192.453-1.734.786-.038.023-.075.047-.112.071a4.149,4.149,0,0,0-.869.7" transform="translate(34.758 17.261)" fill="#ffb27d"/>
        <path id="Path_16535" data-name="Path 16535" d="M127.216,69.376a.877.877,0,0,0-.157.936l0,0a6.742,6.742,0,0,0,1.841,2.011c.11.09.206.174.292.252.023.02.046.039.066.06l.051.046c.808.745.5.916,1.955,2.428,1.655,1.722,2.795,1.754,3.118,1.6.274-.134-.283-1.047-.9-2.074a7.061,7.061,0,0,1-2.95-2.175c-.96-1.225-1.611-2.788-2.265-3.747l-.186-.034a4.149,4.149,0,0,0-.869.7" transform="translate(34.758 18.798)" fill="#234662"/>
        <path id="Path_16536" data-name="Path 16536" d="M147.794,69.147c.195.979,1.591.816,3.151.436s1.188.073,3.407-.172,2.891-1.072,2.96-1.4c.06-.293-1.037-.4-2.212-.532-.148-.017-.3-.034-.445-.053-1.328-.167-2.3-1.024-3.507-1.728-1.143-.666-2.847-3.383-2.847-3.383l-3.043.241s1.6,2.425,2.214,3.48a3.68,3.68,0,0,1,.3,2.075,3.9,3.9,0,0,0,.023,1.041" transform="translate(39.758 17.055)" fill="#ffb27d"/>
        <path id="Path_16537" data-name="Path 16537" d="M150.409,68.473c1.559-.381,1.188.073,3.407-.172s2.893-1.072,2.96-1.4c.061-.293-1.036-.4-2.212-.532l-.01.023a6.255,6.255,0,0,1-3.178.986c-1.507.037-3.1-.395-4.141-.378a3.958,3.958,0,0,0,.023,1.041c.2.979,1.592.816,3.151.436" transform="translate(40.293 18.165)" fill="#234662"/>
        <path id="Path_16538" data-name="Path 16538" d="M140.343,53.446,137.494,61.1l-3.717,9.995a6.014,6.014,0,0,1-1.972-.181,8.568,8.568,0,0,1-1.909-.93s1.034-10.732,2.96-16.892a10.977,10.977,0,0,1,1.657-3.58c2.983-3.523,5.83,3.934,5.83,3.934" transform="translate(35.553 13.293)" fill="#3ca0d7"/>
        <path id="Path_16539" data-name="Path 16539" d="M141.744,43.181c-1.619-.523-5.845-.01-10.428.818a3.109,3.109,0,0,1-3.21-1.451l-11.533-.9s-3.81,8.438-1.727,13.817a2.023,2.023,0,0,0,2.015,1.3s6.97.011,9.2.013c5.736,0,12.141-3.938,12.969-4.1,1.357-.271,1.9,2.44,3.253,5.288s12.741,12.614,12.741,12.614a9.994,9.994,0,0,0,2.474-.252,2.446,2.446,0,0,0,1.062-.67s-12.612-25.112-16.814-26.47" transform="translate(31.264 11.398)" fill="#69bbee"/>
        <path id="Path_16540" data-name="Path 16540" d="M128.207,15.91a4.092,4.092,0,0,0-2.2-.574,6.072,6.072,0,0,1-1.064-.065c-4.4-.647-7.055,5.747-7.21,7.679-.287,3.546-2.163,4.086-4.8,6.307-5.3,4.452-3.747,9.628-.852,11.553,1.737,1.154,4.8,0,4.8,0,.043.031,8.377-4.654,12.485-6.915,6.157-.872,1.322-16.512-1.151-17.986" transform="translate(29.949 4.167)" fill="#234662"/>
        <path id="Path_16541" data-name="Path 16541" d="M123.579,29.759a5.435,5.435,0,0,1-3.384.1,6.033,6.033,0,0,1-2.234-2.677c.583-.028,1.224-.538,1.718-3.885l.248.089,4.176,1.5s-.3,1.341-.5,2.616c-.164,1.072-.253,2.1-.025,2.249" transform="translate(32.287 6.377)" fill="#ffb27d"/>
        <path id="Path_16542" data-name="Path 16542" d="M123.681,24.874s-.167.723-.41,2.074A4.716,4.716,0,0,1,119.5,23.37Z" transform="translate(32.709 6.397)" fill="#ed975d"/>
        <path id="Path_16543" data-name="Path 16543" d="M124.393,27.757s-5.715-.769-5.181-4.32.155-6.044,3.827-5.7,4.175,1.8,4.285,3.031-1.43,7.1-2.931,6.991" transform="translate(32.619 4.845)" fill="#ffb27d"/>
        <path id="Path_16544" data-name="Path 16544" d="M127.468,18.885s-3.659,3.151-6.148,3.4-3.43-.545-3.43-.545a9.733,9.733,0,0,0,2.35-3.183,1.748,1.748,0,0,1,1.443-1.03c1.777-.153,5.146-.222,5.785,1.354" transform="translate(32.267 4.778)" fill="#234662"/>
        <path id="Path_16545" data-name="Path 16545" d="M123.615,18.5a8.978,8.978,0,0,1,1.609,2.062,6.911,6.911,0,0,1,.186,3.677s1.908-3.708.829-5.509a1.523,1.523,0,0,0-2.624-.231" transform="translate(33.834 4.877)" fill="#234662"/>
        <path id="Path_16546" data-name="Path 16546" d="M129.444,37.375c-.177,11.569-.051,9.152-1.316,10.25a4.885,4.885,0,0,1-2.291.5c-3.547.234-9.783-.353-10.02-1.009-.818-2.268-.239-2.973-.921-6.446-.071-.369-.159-.769-.262-1.2-.568-2.386-1.122-3.2.9-7.028,1.832-3.471,3.736-6.287,3.906-6.185,4.831,2.87,5.221.459,5.221.459s4.871,5.027,4.784,10.67" transform="translate(31.232 7.183)" fill="#2f539b"/>
        <path id="Path_16547" data-name="Path 16547" d="M137.495,60.127l-3.718,9.995a6,6,0,0,1-1.973-.182,8.5,8.5,0,0,1-1.908-.927s1.036-10.734,2.961-16.894Z" transform="translate(35.553 14.265)" fill="#69bbee"/>
        <path id="Path_16548" data-name="Path 16548" d="M122.392,26.6s4.971.844,5.555,2.986,2.5,15.134,2.5,15.134-1.4,1.368-2.57.2-3.67-12.158-3.67-12.158Z" transform="translate(33.5 7.282)" fill="#2f539b"/>
        <path id="Path_16549" data-name="Path 16549" d="M125.667,46.055c-3.547.234-9.783-.353-10.02-1.008-.818-2.268-.239-2.974-.921-6.446l1.713-4.818s-.285,5.365,1.3,6.777,6.477,2.726,7.246,3.905a4.328,4.328,0,0,1,.685,1.59" transform="translate(31.401 9.247)" fill="#234662"/>
        <path id="Path_16550" data-name="Path 16550" d="M120.126,41.761s3.5-.778,4.063-.467a8.225,8.225,0,0,1,2.118,1.837c.173.394-1.256-.3-1.722-.424a4.117,4.117,0,0,0-1.486.325,4.938,4.938,0,0,1-2.665.266Z" transform="translate(32.879 11.282)" fill="#ffb27d"/>
        <path id="Path_16551" data-name="Path 16551" d="M120.729,26.243s-4.7.289-6.327,2.558c-2.291,3.193-6.839,16.8-4.236,18.618,2.932,2.047,13.345.541,13.345.541a4.234,4.234,0,0,0-.135-2.4c-.481-.783-8.316-2.052-8.678-2.412s4.523-7.05,4.523-8.134,1.508-8.767,1.508-8.767" transform="translate(29.94 7.183)" fill="#2f539b"/>
        <path id="Path_16552" data-name="Path 16552" d="M123.45,42.044a6.645,6.645,0,0,0,.973,1.058.714.714,0,0,0,.395.085l-.494-.889Z" transform="translate(33.789 11.508)" fill="#ffb27d"/>
        <path id="Path_16553" data-name="Path 16553" d="M123.317,41.279l2.131,1.036a.377.377,0,0,1-.353.136,5.057,5.057,0,0,1-.925-.253Z" transform="translate(33.753 11.298)" fill="#ffb27d"/>
        <path id="Path_16554" data-name="Path 16554" d="M142.4,43.2l-22.271-.008v.492l22.073.008Z" transform="translate(32.879 11.821)" fill="#234662"/>
        <path id="Path_16555" data-name="Path 16555" d="M124.214,46.286l16.865.006,5.077-12.615-16.838-.006Z" transform="translate(33.998 9.216)" fill="#234662"/>
        <path id="Path_16556" data-name="Path 16556" d="M134.466,38.8a.585.585,0,0,0-.572-.8,1.15,1.15,0,0,0-1.034.8.584.584,0,0,0,.573.8,1.151,1.151,0,0,0,1.033-.8" transform="translate(36.356 10.4)" fill="#fff"/>
        <g id="Group_2113" data-name="Group 2113" transform="translate(220.086 86.962)" opacity="0.5">
          <g id="Group_2112" data-name="Group 2112">
            <g id="Group_2111" data-name="Group 2111" clip-path="url(#clip-path-8)">
              <path id="Path_16557" data-name="Path 16557" d="M206.715,78.524l-4.664-5.96-.22-.28-.264-.048-21.528-3.961-7.246,39.379,27.911,5.134L206.9,79.1l.051-.276Z" transform="translate(-172.792 -68.275)" fill="#7fc1f4"/>
            </g>
          </g>
        </g>
        <path id="Path_16558" data-name="Path 16558" d="M194.57,67.86l.01.28,1.328,34.226-28.358,1.1L166,63.457l21.875-.848.266-.01.276.225,5.857,4.793Z" transform="translate(45.435 17.134)" fill="#7fc1f4"/>
        <path id="Path_16559" data-name="Path 16559" d="M183.99,74.424l-47.323,2.638a.174.174,0,0,0-.164.182l3.454,61.97a.174.174,0,0,0,.182.164l47.257-2.634a.174.174,0,0,0,.163-.183L184.1,74.523a.1.1,0,0,0-.111-.1" transform="translate(37.362 20.37)" fill="#234662"/>
        <path id="Path_16560" data-name="Path 16560" d="M183.563,134.456l-40.085,2.516a2.182,2.182,0,0,1-2.314-2.04l-3.417-54.468a2.181,2.181,0,0,1,2.04-2.314l40.085-2.516a2.182,2.182,0,0,1,2.314,2.04l3.417,54.468a2.182,2.182,0,0,1-2.04,2.314" transform="translate(37.701 20.7)" fill="#dcf3fd"/>
        <path id="Path_16561" data-name="Path 16561" d="M166.73,82.832l-25.217,1.582a.023.023,0,0,1-.024-.022l-.039-.629a.023.023,0,0,1,.022-.025l25.217-1.582a.022.022,0,0,1,.024.022l.039.629a.023.023,0,0,1-.022.025" transform="translate(38.716 22.487)" fill="#bdd1f9"/>
        <path id="Path_16562" data-name="Path 16562" d="M167,87.083l-25.217,1.582a.023.023,0,0,1-.024-.022l-.039-.63a.023.023,0,0,1,.022-.024l25.217-1.582a.022.022,0,0,1,.024.022l.039.63a.023.023,0,0,1-.022.024" transform="translate(38.788 23.65)" fill="#bdd1f9"/>
        <path id="Path_16563" data-name="Path 16563" d="M176.5,84.483,141.646,86.67a.023.023,0,0,1-.024-.022l-.039-.63a.022.022,0,0,1,.022-.024l34.851-2.187a.023.023,0,0,1,.024.022l.039.63a.023.023,0,0,1-.022.024" transform="translate(38.752 22.939)" fill="#bdd1f9"/>
        <path id="Path_16564" data-name="Path 16564" d="M160.479,100.6l-17.157,1.076a.02.02,0,0,1-.02-.018l-.039-.638a.019.019,0,0,1,.018-.02l17.157-1.076a.02.02,0,0,1,.02.018l.04.638a.02.02,0,0,1-.018.02" transform="translate(39.212 27.349)" fill="#bdd1f9"/>
        <path id="Path_16565" data-name="Path 16565" d="M166.9,98.147l-23.714,1.488a.019.019,0,0,1-.02-.018l-.041-.638a.021.021,0,0,1,.019-.02l23.714-1.488a.02.02,0,0,1,.02.018l.039.638a.019.019,0,0,1-.018.02" transform="translate(39.175 26.678)" fill="#bdd1f9"/>
        <path id="Path_16566" data-name="Path 16566" d="M168.6,102.57l-25.217,1.582a.023.023,0,0,1-.024-.022l-.039-.63a.023.023,0,0,1,.022-.024l25.217-1.582a.023.023,0,0,1,.024.022l.039.63a.023.023,0,0,1-.022.024" transform="translate(39.227 27.889)" fill="#bdd1f9"/>
        <path id="Path_16567" data-name="Path 16567" d="M171.553,104.556l-28.039,1.759a.019.019,0,0,1-.022-.019l-.041-.636a.022.022,0,0,1,.02-.022l28.039-1.759a.019.019,0,0,1,.022.019l.039.634a.021.021,0,0,1-.019.023" transform="translate(39.264 28.433)" fill="#bdd1f9"/>
        <path id="Path_16568" data-name="Path 16568" d="M161.913,108.773l-18.046,1.132a.02.02,0,0,1-.022-.018l-.039-.638a.02.02,0,0,1,.019-.02l18.046-1.132a.019.019,0,0,1,.02.018l.039.638a.019.019,0,0,1-.018.02" transform="translate(39.361 29.587)" fill="#bdd1f9"/>
        <path id="Path_16569" data-name="Path 16569" d="M162.18,113.023l-18.046,1.132a.02.02,0,0,1-.022-.018l-.039-.638a.019.019,0,0,1,.018-.02l18.047-1.132a.019.019,0,0,1,.02.018l.039.638a.019.019,0,0,1-.018.02" transform="translate(39.434 30.75)" fill="#bdd1f9"/>
        <path id="Path_16570" data-name="Path 16570" d="M168.944,110.558,144,112.124a.022.022,0,0,1-.022-.019l-.039-.637a.021.021,0,0,1,.019-.022l24.943-1.564a.02.02,0,0,1,.02.018l.039.637a.019.019,0,0,1-.018.022" transform="translate(39.397 30.075)" fill="#bdd1f9"/>
        <path id="Path_16571" data-name="Path 16571" d="M168.943,72.3l-22.07,1.23a2.549,2.549,0,0,0-2.5,2.593l.186,3.335A.591.591,0,0,0,145.2,80l26.12-1.456a.589.589,0,0,0,.577-.6l-.186-3.335a2.549,2.549,0,0,0-2.77-2.3" transform="translate(39.516 19.789)" fill="#ff8c64"/>
        <path id="Path_16572" data-name="Path 16572" d="M195.674,94.014s-.459-1.032-.755-1.52-1.567-1.921-1.783-1.6-1.08,2.505-.62,3.115-.031,1.674,2.253,2.317Z" transform="translate(52.657 24.867)" fill="#ffb27d"/>
        <path id="Path_16573" data-name="Path 16573" d="M220.6,88.22s-11.688,9.755-16.245,8.852c-3.563-.706-9.2-2.493-9.2-2.493a3.591,3.591,0,0,0-1.066,3.109s7.177,6.753,12.29,6.8c7.992.069,11.763-3.961,11.763-3.961Z" transform="translate(53.104 24.146)" fill="#3ca0d7"/>
        <path id="Path_16574" data-name="Path 16574" d="M233.868,169.387s-.34,5.473-1.4,5.552c-.14.01-5.37.01-5.37.01l-6.676-.039a2.166,2.166,0,0,1,1.995-1.949c1.951-.339,5.217-1.711,6.4-4.29,1.244-2.713,5.05.716,5.05.716" transform="translate(60.332 45.881)" fill="#113c68"/>
        <path id="Path_16575" data-name="Path 16575" d="M236.148,183.827a13.915,13.915,0,0,1-3.613.679,13.268,13.268,0,0,1-3.374-.481,92.362,92.362,0,0,0-2.485-11.837c-1.1-4.267-2.676-9.753-4.915-16.571-6.193-18.842-8.075-29.863-8.247-30.908l-.013-.082.019-.01,19.038-8.358s-2.353,25.968.65,35.935a42.188,42.188,0,0,1,1.089,4.776c1.9,10.827,1.852,26.856,1.852,26.856" transform="translate(58.437 31.821)" fill="#2a4e96"/>
        <path id="Path_16576" data-name="Path 16576" d="M226.672,172.189c-1.1-4.267-2.676-9.754-4.917-16.571-6.191-18.842-8.075-29.865-8.246-30.908,0-.032,0-.061.006-.092l19.038-8.359s-2.354,25.968.648,35.936c.42,1.393-6.53,19.993-6.53,19.993" transform="translate(58.439 31.821)" fill="#234662"/>
        <path id="Path_16577" data-name="Path 16577" d="M222.194,169.387s-.34,5.473-1.4,5.552c-.14.01-5.37.01-5.37.01l-6.676-.039a2.166,2.166,0,0,1,1.995-1.949c1.951-.339,5.217-1.711,6.4-4.29,1.244-2.713,5.05.716,5.05.716" transform="translate(57.136 45.881)" fill="#15447c"/>
        <path id="Path_16578" data-name="Path 16578" d="M210.832,116.74a271.021,271.021,0,0,0,2.665,37.489c2.91,20.662,1.925,29.432,1.925,29.432a19.858,19.858,0,0,0,2.807.715,12.747,12.747,0,0,0,4.165-.483s4.168-20.668,2.973-31.01,5.706-35.487,5.706-35.487Z" transform="translate(57.705 31.953)" fill="#2a4e96"/>
        <path id="Path_16579" data-name="Path 16579" d="M223.125,87.611l-3.717,2.437-3.384-.957a8.1,8.1,0,0,1-.792-4.058,25.15,25.15,0,0,1,.134-2.7l5.013-2.214,1.871-.824c-.005.029-.146,1.536-.166,1.756a12.791,12.791,0,0,0,1.041,6.562" transform="translate(58.91 21.703)" fill="#ffb27d"/>
        <path id="Path_16580" data-name="Path 16580" d="M210.78,130.183c4.626,4.466,22.131,3.715,23.209-1.206s-1.177-41.886-9.078-44.208c-1.639-.481-10.4,2.351-10.4,2.351a55.548,55.548,0,0,0-2.277,8.18c-.174.892-.687,10.337-1.069,19.176-.178,4.133-.329,8.134-.406,11.063a32,32,0,0,0,.025,4.644" transform="translate(57.671 23.187)" fill="#69bbee"/>
        <path id="Path_16581" data-name="Path 16581" d="M221.71,80.94c-1.018,1.72-4.585,3.225-6.477,3.914a25.354,25.354,0,0,1,.132-2.7l5.015-2.212c1.108-.014,1.783.233,1.33,1" transform="translate(58.911 21.88)" fill="#fca56b"/>
        <path id="Path_16582" data-name="Path 16582" d="M214.069,84.294s8.078,2.519,9.571-2.535,3.538-8.134-1.556-9.957-6.67-.191-7.579,1.374-2.5,10.331-.436,11.117" transform="translate(58.316 19.433)" fill="#ffb27d"/>
        <path id="Path_16583" data-name="Path 16583" d="M214.606,73.284s.515,5.882,1.731,5.627,2.556-.8,2.378.972,1.183,4.812,2.937,4.8c3.763-.015,7.85-9.669,6.819-11.5-2.972-5.282-18.161-6.348-13.866.1" transform="translate(58.531 18.84)" fill="#163560"/>
        <path id="Path_16584" data-name="Path 16584" d="M215.838,85.391c.1-.043,6.014-2.7,6.7-2.466s1.553,2.339,1.553,2.339l-10.406,2.353a5.171,5.171,0,0,1,2.149-2.225" transform="translate(58.488 22.693)" fill="#3ca0d7"/>
        <path id="Path_16585" data-name="Path 16585" d="M186.643,108.015,219.77,139.2c.65.611,1.469.806,1.82.433l1.117-1.188c.352-.373.108-1.178-.541-1.79L189.039,105.47c-.65-.611-1.467-.806-1.819-.433l-1.118,1.187c-.352.373-.108,1.179.541,1.791" transform="translate(50.893 28.697)" fill="#1f4d84"/>
        <path id="Path_16586" data-name="Path 16586" d="M201.087,121.622l14.537,13.686c.65.611,1.469.806,1.819.433l1.118-1.187c.352-.373.108-1.179-.541-1.791l-14.537-13.686Z" transform="translate(55.039 32.592)" fill="#69bbee"/>
        <path id="Path_16587" data-name="Path 16587" d="M197.457,79.927a25.96,25.96,0,0,0-36.7-1.117c-.139.129-.275.26-.408.392a25.965,25.965,0,1,0,37.106.725m-2.522,35.21a23.916,23.916,0,1,1,1.03-33.805,23.884,23.884,0,0,1-1.03,33.805" transform="translate(41.763 19.64)" fill="#1f4d84"/>
        <g id="Group_2116" data-name="Group 2116" transform="translate(196.398 93.446)" opacity="0.5">
          <g id="Group_2115" data-name="Group 2115">
            <g id="Group_2114" data-name="Group 2114" clip-path="url(#clip-path-9)">
              <path id="Path_16588" data-name="Path 16588" d="M160.69,113.665a23.916,23.916,0,1,0,1.03-33.8,23.808,23.808,0,0,0-1.03,33.8" transform="translate(-154.194 -73.365)" fill="#b3cff9"/>
            </g>
          </g>
        </g>
        <path id="Path_16589" data-name="Path 16589" d="M210.744,123.291C229,110.284,227.479,92.928,227.479,92.928c-6.672,3.763-13.291,12.082-16.329,19.3-.178,4.133-.329,8.134-.406,11.063" transform="translate(57.682 25.435)" fill="#3ca0d7"/>
        <path id="Path_16590" data-name="Path 16590" d="M197.727,112.426a4.967,4.967,0,0,1-2.331-1.441s-.549.038.089,1.209c.054.1.173.349.262.527a.113.113,0,0,1-.1.163,12.219,12.219,0,0,0-2.921.061c-.2.042-.255.515-.247.716a1.828,1.828,0,0,0,.385,1.247,6.359,6.359,0,0,0,2.307,1.207,6.96,6.96,0,0,0,3.569-.448l1.168-.541-.363-2.172-.293.062c-.466.1-1.043-.471-1.53-.591" transform="translate(52.684 30.377)" fill="#ffb27d"/>
        <path id="Path_16591" data-name="Path 16591" d="M225.4,86.605s16.4,3.123-4.826,26.873c-3.4,3.8-21.736,8.744-21.736,8.744s-1.861-1.582-.922-2.863c0,0,12.628-9.171,15.407-10.629,1.251-.655,4.85-14.636,6.888-18a9.186,9.186,0,0,1,5.189-4.122" transform="translate(54.098 23.704)" fill="#69bbee"/>
        <path id="Path_16592" data-name="Path 16592" d="M195.1,94.419a8.341,8.341,0,0,1-.641-1.567,8.731,8.731,0,0,0-1.058-2.4c-.112-.111-.479.033-.522.511a2.763,2.763,0,0,0,.264,1.038,11.7,11.7,0,0,1,.346,2.061c.253.827,1.611.353,1.611.353" transform="translate(52.791 24.749)" fill="#ffb27d"/>
      </g>
    </g>
  </g>
</svg>
