<svg xmlns="http://www.w3.org/2000/svg" width="211.678" height="215.563" viewBox="0 0 211.678 215.563">
  <g id="Group_2534" data-name="Group 2534" transform="translate(-414 -1033)">
    <path id="Path_19158" data-name="Path 19158" d="M17.032,87.887A75.316,75.316,0,0,1,128.073,21.6,75.3,75.3,0,1,0,39.562,141.582a75.023,75.023,0,0,1-22.53-53.7" transform="translate(414 1033)" fill="#26a9e0"/>
    <path id="Path_19159" data-name="Path 19159" d="M116.47,77.214A75.322,75.322,0,0,1,3.539,14.2,75.3,75.3,0,1,0,151.705,30.855,75.025,75.025,0,0,1,116.47,77.214" transform="translate(422.499 1140.206)" fill="#1b75bb"/>
    <path id="Path_19160" data-name="Path 19160" d="M69.1,21.374a75.321,75.321,0,0,1,1.89,129.3A75.3,75.3,0,1,0,11.324,14.038,75.059,75.059,0,0,1,69.1,21.374" transform="translate(499.498 1054.301)" fill="#00b7ce"/>
    <path id="Path_19161" data-name="Path 19161" d="M5.675,25.108,49.6,5.417a2.117,2.117,0,0,1,2.676,3.027l-25.24,41.9a2.118,2.118,0,0,1-3.437.274L4.922,28.4a2.113,2.113,0,0,1,.752-3.292" transform="translate(447.4 1072.438)" fill="#26a9e0"/>
    <path id="Path_19162" data-name="Path 19162" d="M8.681,29.975,37.957,16.85a1.412,1.412,0,0,1,1.787,2.018L22.917,46.793a1.417,1.417,0,0,1-2.291.188L8.176,32.172a1.416,1.416,0,0,1,.5-2.2" transform="translate(473.25 1159.243)" fill="#1b75bb"/>
    <path id="Path_19163" data-name="Path 19163" d="M16.984,21.767,46.26,8.642a1.412,1.412,0,0,1,1.787,2.018L31.22,38.585a1.412,1.412,0,0,1-2.291.18l-12.449-14.8a1.416,1.416,0,0,1,.5-2.2" transform="translate(535.939 1097.272)" fill="#00b7ce"/>
  </g>
</svg>
