<svg xmlns="http://www.w3.org/2000/svg" xmlns:xlink="http://www.w3.org/1999/xlink" width="109.284" height="200.016" viewBox="0 0 109.284 200.016">
  <defs>
    <clipPath id="clip-path">
      <rect id="Rectangle_1890" data-name="Rectangle 1890" width="109.284" height="165.13" fill="none"/>
    </clipPath>
    <clipPath id="clip-path-2">
      <rect id="Rectangle_1898" data-name="Rectangle 1898" width="38.01" height="36.874" fill="none"/>
    </clipPath>
  </defs>
  <g id="Group_2593" data-name="Group 2593" transform="translate(-960 -794.451)">
    <path id="Path_18436" data-name="Path 18436" d="M-11463.752-10479.336a4.57,4.57,0,0,0,3.674-2.25c1.518-2.312,1.156-4.608,0-5.664s-7.717.307-12.224,5.082-3.094,10.5-.575,11.7,7.82-.795,12.169-4.516,5.988-8.913,4.461-10.329-7.662,1.212-9.865,5.562-5.034,10.069-1.258,12.586,9.022-1,10.124-2.572,1.74-3.192,1-4.294-3.1.416-4.461,2.618a4.3,4.3,0,0,0,1.518,5.767c1.629,1,3-.157,3.888-.944a2.432,2.432,0,0,0,.786-2.571c-.314-.418-1.259.628-1.73,1.47s-.677,4.191.944,5.35a4.1,4.1,0,0,0,3.35.629" transform="translate(12489.243 11282.591)" fill="none" stroke="#1b75bb" stroke-width="1"/>
    <g id="Group_2592" data-name="Group 2592">
      <g id="Group_2306" data-name="Group 2306" transform="translate(960 829.337)" clip-path="url(#clip-path)">
        <path id="Path_18325" data-name="Path 18325" d="M62.588,3.1c-.165.865-1.842,1.707-2.252,1.826a8.211,8.211,0,0,0-1.152-2c.04-.084.089-.183.145-.291C59.712,1.89,60.447.7,61.36.429c1.357-.414,4.031-.668,4.193-.1S62.774,2.123,62.588,3.1" transform="translate(6.798 0)" fill="#ffb27d"/>
        <path id="Path_18326" data-name="Path 18326" d="M69.426,149.094H52.113c-1.24-.841.334-9.065.334-9.065s4.726-1.793,5.542,1.853,6.018,4.8,8.77,5.247a2.963,2.963,0,0,1,2.667,1.966" transform="translate(5.932 16.035)" fill="#3e5b87"/>
        <path id="Path_18327" data-name="Path 18327" d="M91.942,149.094H74.629c-1.24-.841.336-9.065.336-9.065s4.725-1.793,5.541,1.853,6.018,4.8,8.77,5.247a2.963,2.963,0,0,1,2.667,1.966" transform="translate(8.518 16.035)" fill="#3e5b87"/>
        <path id="Path_18328" data-name="Path 18328" d="M88.171,73s-.778,9.708-1.692,21.379c-1.243,15.852-4.6,55.158-4.6,55.158s-2.2,1.875-7.066.85a153.917,153.917,0,0,1-5.384-29.036q-.028-.381-.058-.765c-1.153-15.755-2.945-48.931-2.945-48.931Z" transform="translate(7.631 8.231)" fill="#326290"/>
        <path id="Path_18329" data-name="Path 18329" d="M88.438,69.852s-1.045,13.063-1.96,24.734L69.432,121.558c-.02-.254-.038-.509-.057-.765-1.154-15.755-2.947-48.931-2.947-48.931Z" transform="translate(7.631 8.024)" fill="#2a557d"/>
        <path id="Path_18330" data-name="Path 18330" d="M86.3,67.893,58.512,150.114s-4.646,2.378-6.549-.84c0,0,.44-34.664,5.4-43.265,2.8-4.861,4.761-18.492,4.427-23.1a52.183,52.183,0,0,1,2.034-17.42Z" transform="translate(5.969 7.524)" fill="#326290"/>
        <path id="Path_18331" data-name="Path 18331" d="M77.831,30.406a7.715,7.715,0,0,1-5.326.717A11.051,11.051,0,0,1,68.9,29.6a10.757,10.757,0,0,1-1.456-1.1s.064-.093.172-.274c.557-.953,2.248-4.383,1.5-9.891a3.909,3.909,0,0,1,1.36.224c2.453.582,7.385,1.98,7.6,2.042h.009s.06,1.158.263,3.235c.017.183.036.375.056.573.026.243.05.5.08.767a17.174,17.174,0,0,1-.648,5.225" transform="translate(7.747 2.104)" fill="#ffb27d"/>
        <path id="Path_18332" data-name="Path 18332" d="M78.159,23.815c-3.662.84-9.127-4.568-9.127-4.568a5.81,5.81,0,0,1,1.252-.71c2.454.581,7.385,1.98,7.6,2.042H77.9s.06,1.158.263,3.235" transform="translate(7.93 2.129)" fill="#ed975d"/>
        <path id="Path_18333" data-name="Path 18333" d="M82.4,2.474S80.964.306,79.552.179s-4.34.206-4.125.756c.69,1.762,3.154.979,3.778,2.094.534.953,2.428,1.352,2.428,1.352Z" transform="translate(8.663 0.017)" fill="#ffb27d"/>
        <path id="Path_18334" data-name="Path 18334" d="M79.709,21.655a18.6,18.6,0,0,1-3.425.8c-2.808.379-6.5.156-7.659-3.241-1.954-5.718-4.449-9.146,1.3-11.481C73,6.482,74.97,6.416,76.308,6.893A4.619,4.619,0,0,1,78.673,8.94c1.116,1.75,3.362,11.714,1.037,12.715" transform="translate(7.624 0.76)" fill="#ffb27d"/>
        <path id="Path_18335" data-name="Path 18335" d="M79.658,5.777a3.046,3.046,0,0,1-2.948,4.8,5.1,5.1,0,0,0-2.394-.085c-1.429.635-1.687,3.034-1.712,3.8s-.126,1.4-2.067.949a.943.943,0,0,0-.706.042c-.718.426.022,2.312.411,3.073a1.966,1.966,0,0,1,.2.667,2.261,2.261,0,0,1-.622,2.022c-.12.1-2.068.948-6.761-6.234a6.67,6.67,0,0,1-.3-6.113C63.9,6.247,68.949,3.529,73.139,3.005a6.441,6.441,0,0,1,6.519,2.772" transform="translate(7.14 0.337)" fill="#2a4e96"/>
        <path id="Path_18336" data-name="Path 18336" d="M88.605,40.007C74.859,52.846,77.274,28.391,77.274,28.391s5.235-2.325,6.884-2.323,2.857-4.594,8.09-12.246v0h0l-11-9.414s.509-2.8,1.117-2.661a40,40,0,0,1,4.413,1.435c5.029,1.892,12.2,5.266,13.647,8.5,0,0,.273,17.032-11.821,28.327" transform="translate(8.858 0.2)" fill="#42b9f3"/>
        <path id="Path_18337" data-name="Path 18337" d="M76.925,3.642l-.02-.027a.081.081,0,0,1,.02.027" transform="translate(8.834 0.415)" fill="#7f2722"/>
        <path id="Path_18338" data-name="Path 18338" d="M90.864,78.234a61.092,61.092,0,0,1-16.871,2.85,39.783,39.783,0,0,1-6.093-.65c-2.037-.344-3.647-.693-3.647-.693-1.745-.4-3.672-1.481-3.414-3.471.783-6.045.278-21.881.679-31.771a5.322,5.322,0,0,0-1.207-3.279l0,0a3.659,3.659,0,0,0-.709-.6c-1.834-1.2-10.407-9.31-14.12-22.253-.438-1.476-.615-2.384-.625-2.434l0-.007h0c1.052-4.8,12.811-12.1,15.657-13.4a.288.288,0,0,1,.288.06l0,0a5.209,5.209,0,0,1,1.341,2.3l.006.013L53.294,16.353c6.681,6.426,8.8,10.679,10.412,10.343,1.553-.322,6.777.782,7.186.868.123-.027.245-.056.373-.077,0,0,5.574,3.142,9.714.816l.117.018c1.009.159,8.209,1.356,9.947,3.193.6.632.828,4.483.892,8.75.093,5.943-.139,12.7-.139,12.7.419,6.473,3.822,24.282-.932,25.269" transform="translate(5.152 0.287)" fill="#42b9f3"/>
        <path id="Path_18339" data-name="Path 18339" d="M68.234,24.988s6.169,6.363,10.579,5.059c0,0,.588-.86-1.4-1.135s-4.129-.163-9.18-3.924" transform="translate(7.838 2.871)" fill="#3ca0d7"/>
        <path id="Path_18340" data-name="Path 18340" d="M66.308,76.444c-2.037-.344-3.647-.693-3.647-.693-1.745-.4-3.672-1.481-3.414-3.471.783-6.045.276-21.881.678-31.771a5.316,5.316,0,0,0-1.206-3.279c1.923,1.7,7.18,6.739,8.467,12.182,1.375,5.807.4,21.022-.879,27.031" transform="translate(6.745 4.277)" fill="#3ca0d7"/>
        <path id="Path_18341" data-name="Path 18341" d="M59.4,2.632A5.952,5.952,0,0,1,59.724.549c.3-.349.513.629.56.932S59.4,2.632,59.4,2.632" transform="translate(6.823 0.054)" fill="#ffb27d"/>
        <path id="Path_18342" data-name="Path 18342" d="M81.406,1.918S80.963.749,80.858.434,80.529.1,80.5.311a1.546,1.546,0,0,0,.066.906,4.233,4.233,0,0,0,.836.7" transform="translate(9.243 0.02)" fill="#ffb27d"/>
        <path id="Path_18343" data-name="Path 18343" d="M38.976,127.4s-17.52-6.9-23.438-17.337L0,119.039s11.873,15.23,21.917,16.5Z" transform="translate(0 12.644)" fill="#afd8fb"/>
      </g>
      <g id="Group_2314" data-name="Group 2314" transform="translate(963 814.934)">
        <g id="Group_2313" data-name="Group 2313" transform="translate(0 0)" clip-path="url(#clip-path-2)">
          <path id="Path_18418" data-name="Path 18418" d="M35.29,36.874H2.719A2.726,2.726,0,0,1,0,34.156V2.719A2.725,2.725,0,0,1,2.719,0H35.29a2.726,2.726,0,0,1,2.719,2.719V34.156a2.727,2.727,0,0,1-2.719,2.719" transform="translate(0 0)" fill="#52b6fb"/>
          <path id="Path_18419" data-name="Path 18419" d="M33.519,34.927H3.769a2.491,2.491,0,0,1-2.483-2.483V3.731A2.491,2.491,0,0,1,3.769,1.248h29.75A2.491,2.491,0,0,1,36,3.731V32.444a2.491,2.491,0,0,1-2.483,2.483" transform="translate(0.36 0.349)" fill="#f8fbfd"/>
          <path id="Path_18420" data-name="Path 18420" d="M14.232,4.049a.787.787,0,1,1,.787.787.787.787,0,0,1-.787-.787" transform="translate(3.986 0.913)" fill="#88cef3"/>
          <path id="Path_18421" data-name="Path 18421" d="M19.217,4.835a.787.787,0,1,1,.306,1.07.788.788,0,0,1-.306-1.07" transform="translate(5.354 1.24)" fill="#88cef3"/>
          <path id="Path_18422" data-name="Path 18422" d="M23.526,8.153a.788.788,0,1,1-.236,1.088.788.788,0,0,1,.236-1.088" transform="translate(6.487 2.248)" fill="#88cef3"/>
          <path id="Path_18423" data-name="Path 18423" d="M25.725,13.353a.787.787,0,1,1-.787.787.787.787,0,0,1,.787-.787" transform="translate(6.984 3.739)" fill="#88cef3"/>
          <path id="Path_18424" data-name="Path 18424" d="M24.772,19.471a.787.787,0,1,1-1.114,0,.788.788,0,0,1,1.114,0" transform="translate(6.561 5.388)" fill="#88cef3"/>
          <path id="Path_18425" data-name="Path 18425" d="M20.909,23.344a.787.787,0,1,1-1.114,0,.788.788,0,0,1,1.114,0" transform="translate(5.479 6.473)" fill="#88cef3"/>
          <path id="Path_18426" data-name="Path 18426" d="M14.232,25.462a.787.787,0,1,1,.787.787.787.787,0,0,1-.787-.787" transform="translate(3.986 6.91)" fill="#88cef3"/>
          <path id="Path_18427" data-name="Path 18427" d="M10.8,4.835A.787.787,0,1,0,10.5,5.9a.787.787,0,0,0,.306-1.07" transform="translate(2.612 1.24)" fill="#88cef3"/>
          <path id="Path_18428" data-name="Path 18428" d="M6.493,8.153a.788.788,0,1,0,.234,1.088.788.788,0,0,0-.234-1.088" transform="translate(1.478 2.248)" fill="#88cef3"/>
          <path id="Path_18429" data-name="Path 18429" d="M4.293,13.353a.787.787,0,1,0,.787.787.787.787,0,0,0-.787-.787" transform="translate(0.982 3.739)" fill="#88cef3"/>
          <path id="Path_18430" data-name="Path 18430" d="M5.246,19.471a.787.787,0,1,0,1.114,0,.788.788,0,0,0-1.114,0" transform="translate(1.405 5.388)" fill="#88cef3"/>
          <path id="Path_18431" data-name="Path 18431" d="M9.109,23.344a.787.787,0,1,0,1.114,0,.788.788,0,0,0-1.114,0" transform="translate(2.487 6.473)" fill="#88cef3"/>
          <path id="Path_18432" data-name="Path 18432" d="M14.681,14.14a.787.787,0,1,1,.787.787.787.787,0,0,1-.787-.787" transform="translate(4.111 3.739)" fill="#88cef3"/>
          <rect id="Rectangle_1896" data-name="Rectangle 1896" width="0.215" height="9.836" transform="translate(19.472 8.044)" fill="#88cef3"/>
          <rect id="Rectangle_1897" data-name="Rectangle 1897" width="6.63" height="0.645" transform="matrix(0.786, -0.618, 0.618, 0.786, 19.282, 17.613)" fill="#88cef3"/>
        </g>
      </g>
    </g>
  </g>
</svg>
