<svg id="Group_2543" data-name="Group 2543" xmlns="http://www.w3.org/2000/svg" xmlns:xlink="http://www.w3.org/1999/xlink" width="390.239" height="222.039" viewBox="0 0 390.239 222.039">
  <defs>
    <clipPath id="clip-path">
      <rect id="Rectangle_1987" data-name="Rectangle 1987" width="390.239" height="222.039" fill="none"/>
    </clipPath>
  </defs>
  <g id="Group_2542" data-name="Group 2542" clip-path="url(#clip-path)">
    <path id="Path_19218" data-name="Path 19218" d="M30.044,221.928S-16.477,165.888,6.259,108.2c14.82-37.6,70.411-58.209,101.784-37.6,13.362,8.775,56.231.3,79.121-36.039C231.643-36.053,386.88,6.828,358.618,115.233c-13.677,52.46,41.623,54.367,13.446,106.807Z" transform="translate(0 0)" fill="#dcf3fd"/>
    <path id="Path_19219" data-name="Path 19219" d="M45.129,92.942s-4.692-5.474-.289-8.951c0,0,3.216-1.947,5.837-1.788,0,0-3.715,6.23-2.514,6.851S51.8,81.812,51.8,81.812s7.318-.711,9.672.422c0,0-6.256,5.119-4.939,5.423s8.075-4.72,8.075-4.72,6.811,1.159,6.447,5.315-2.71,5.438-3.741,5.328-7.065-2.415-7.2-1.569,3.5,3.607,6.044,3.736c0,0-4.8,5.3-7.992,3.767s-3.464-3.951-5.454-4.859-3.687-.907-2.866.02,4.421,1.828,5.56,3.839,2.158,3.369-1.144,2.873-8.668-2.913-8.9-5.68Z" transform="translate(19.351 36.756)" fill="#c8dbf4"/>
    <path id="Path_19220" data-name="Path 19220" d="M68.317,86.271s-18.5-.712-22.584,4.578a13.383,13.383,0,0,1-3.684,5.17L41.615,97.2s3.206-3.381,4.353-3.586c0,0-1.794-6.553,22.349-7.344" transform="translate(18.747 38.849)" fill="#c8dbf4"/>
    <path id="Path_19221" data-name="Path 19221" d="M43.233,93.126a11.623,11.623,0,0,0-4.247,8.184l.721.064s1.269-5.425,3.561-7.547-.035-.7-.035-.7" transform="translate(17.563 41.742)" fill="#c8dbf4"/>
    <path id="Path_19222" data-name="Path 19222" d="M41.646,90.674s7.463-4.179,3.98-9.852c0,0-2.786-3.483-5.771-4.379,0,0,1.593,8.459,0,8.658s-1.1-9.553-1.1-9.553-7.86-3.781-10.945-3.483c0,0,4.875,8.259,3.284,8.06s-7.065-8.558-7.065-8.558-8.06-1.494-9.354,3.284.795,7.164,1.99,7.463,8.857.2,8.658,1.194S19.953,86.1,17.066,85.2c0,0,3.185,7.862,7.364,7.463s5.473-2.985,8.06-3.184,4.479.5,3.185,1.194-5.673.228-7.763,2-3.781,2.872.1,3.668,10.847.3,12.241-2.688Z" transform="translate(6.429 32.141)" fill="#c8dbf4"/>
    <path id="Path_19223" data-name="Path 19223" d="M17.09,74.792s20.9,6.767,23.286,14.329a15.872,15.872,0,0,0,1.99,7.265v1.493s-2.189-5.075-3.384-5.771c0,0,4.678-6.569-21.892-17.316" transform="translate(7.699 33.693)" fill="#c8dbf4"/>
    <path id="Path_19224" data-name="Path 19224" d="M34.826,89.969a13.781,13.781,0,0,1,1.385,10.851l-.828-.223s.8-6.561-.882-9.86.325-.767.325-.767" transform="translate(15.239 40.111)" fill="#c8dbf4"/>
    <path id="Path_19225" data-name="Path 19225" d="M43.339,88.61S33.5,83.1,38.092,75.623c0,0,3.673-4.591,7.608-5.771,0,0-2.1,11.15,0,11.412s1.443-12.593,1.443-12.593,10.362-4.985,14.429-4.592c0,0-6.429,10.889-4.33,10.626s9.314-11.282,9.314-11.282,10.626-1.967,12.331,4.33S77.839,77.2,76.263,77.59s-11.674.263-11.411,1.575,7.083,3.41,10.887,2.229c0,0-4.2,10.364-9.708,9.839s-7.215-3.935-10.625-4.2-5.9.656-4.2,1.574,7.477.3,10.232,2.643,4.985,3.784-.131,4.834-14.3.393-16.135-3.542Z" transform="translate(16.61 28.44)" fill="#d4e4f8"/>
    <path id="Path_19226" data-name="Path 19226" d="M72.84,67.674s-27.548,8.92-30.7,18.89a20.935,20.935,0,0,1-2.624,9.576v1.967s2.886-6.69,4.46-7.608c0,0-6.165-8.658,28.859-22.825" transform="translate(17.804 30.486)" fill="#d4e4f8"/>
    <path id="Path_19227" data-name="Path 19227" d="M40.321,87.679a18.167,18.167,0,0,0-1.826,14.3l1.092-.293s-1.06-8.649,1.162-13-.428-1.011-.428-1.011" transform="translate(17.005 38.947)" fill="#d4e4f8"/>
    <path id="Path_19228" data-name="Path 19228" d="M47.087,114.886A19.271,19.271,0,0,0,66.358,95.615H27.816a19.271,19.271,0,0,0,19.271,19.271" transform="translate(12.531 43.073)" fill="#d4e4f8"/>
    <path id="Path_19229" data-name="Path 19229" d="M66.708,110.315H27.633a2.377,2.377,0,0,1,2.377-2.377H64.33A2.378,2.378,0,0,1,66.708,110.315Z" transform="translate(12.448 48.625)" fill="#d4e4f8"/>
    <rect id="Rectangle_1980" data-name="Rectangle 1980" width="39.614" height="0.592" transform="translate(39.713 138.687)" fill="#9fc1f4"/>
    <path id="Path_19230" data-name="Path 19230" d="M145.081,169.269h.1a1.3,1.3,0,0,0,1.307-1.384l-5.2-51.88-4.533.4,7.46,52.159a.844.844,0,0,0,.866.7" transform="translate(61.606 52.258)" fill="#8cb4f4"/>
    <path id="Path_19231" data-name="Path 19231" d="M108.447,169.269h-.1a1.3,1.3,0,0,1-1.307-1.384l5.2-51.88,4.533.4-7.46,52.159a.844.844,0,0,1-.866.7" transform="translate(48.22 52.258)" fill="#8cb4f4"/>
    <path id="Path_19232" data-name="Path 19232" d="M170.347,169.269h.1a1.294,1.294,0,0,0,1.307-1.384l-5.2-51.88-4.533.4,7.46,52.159a.844.844,0,0,0,.866.7" transform="translate(72.988 52.258)" fill="#8cb4f4"/>
    <path id="Path_19233" data-name="Path 19233" d="M111.993,128.563l-9.221-45.535c-1.184-6.166,3.925-11.8,10.558-11.652l17.783.406a14.047,14.047,0,0,1,13.175,10.14l13.491,46.64Z" transform="translate(46.22 32.153)" fill="#8cb4f4"/>
    <path id="Path_19234" data-name="Path 19234" d="M115.839,128.563l-9.221-45.535c-1.184-6.166,3.925-11.8,10.558-11.652l17.783.406a14.047,14.047,0,0,1,13.175,10.14l13.491,46.64Z" transform="translate(47.953 32.153)" fill="#8cb4f4"/>
    <path id="Path_19235" data-name="Path 19235" d="M111.646,119.106h70.359a2.577,2.577,0,0,0,2.569-2.57v-3.165a2.578,2.578,0,0,0-2.569-2.57H109.076v5.735a2.577,2.577,0,0,0,2.57,2.57" transform="translate(49.137 49.914)" fill="#8cb4f4"/>
    <path id="Path_19236" data-name="Path 19236" d="M134.254,119.106h44.852a2.076,2.076,0,0,0,2.07-2.07v-4.164a2.077,2.077,0,0,0-2.07-2.071H134.254a2.077,2.077,0,0,0-2.07,2.071v4.164a2.076,2.076,0,0,0,2.07,2.07" transform="translate(59.547 49.914)" fill="#8cb4f4"/>
    <path id="Path_19237" data-name="Path 19237" d="M79.617,110.7v1.553c0,.544-.176.988-.392.988H22.535c-.215,0-.392-.444-.392-.988V110.7c0-.542.177-.988.392-.988H79.225c.216,0,.392.445.392.988" transform="translate(9.975 49.424)" fill="#9abfe2"/>
    <path id="Path_19238" data-name="Path 19238" d="M75.968,110.7v1.553c0,.544-.161.988-.358.988H30.6c-.2,0-.36-.444-.36-.988V110.7c0-.542.162-.988.36-.988H75.61c.2,0,.358.445.358.988" transform="translate(13.624 49.424)" fill="#bad4f4"/>
    <rect id="Rectangle_1981" data-name="Rectangle 1981" width="40.248" height="58.663" transform="translate(34.996 162.665)" fill="#c8dbf4"/>
    <rect id="Rectangle_1982" data-name="Rectangle 1982" width="40.248" height="58.663" transform="translate(46.275 162.665)" fill="#dfebfd"/>
    <path id="Path_19239" data-name="Path 19239" d="M69.317,167.055H33.394V113.288H69.317Zm-35.534-.389H68.929V113.675H33.783Z" transform="translate(15.044 51.035)" fill="#b7d3f3"/>
    <rect id="Rectangle_1983" data-name="Rectangle 1983" width="35.534" height="0.387" transform="translate(48.633 182.109)" fill="#b7d3f3"/>
    <rect id="Rectangle_1984" data-name="Rectangle 1984" width="35.534" height="0.387" transform="translate(48.633 200.243)" fill="#b7d3f3"/>
    <path id="Path_19240" data-name="Path 19240" d="M50.517,116.039H43.923a.582.582,0,0,1,0-1.163h6.594a.582.582,0,0,1,0,1.163" transform="translate(19.525 51.75)" fill="#b7d3f3"/>
    <path id="Path_19241" data-name="Path 19241" d="M50.517,128.264H43.923a.582.582,0,1,1,0-1.163h6.594a.582.582,0,1,1,0,1.163" transform="translate(19.525 57.257)" fill="#b7d3f3"/>
    <path id="Path_19242" data-name="Path 19242" d="M50.517,141.008H43.923a.582.582,0,1,1,0-1.163h6.594a.582.582,0,1,1,0,1.163" transform="translate(19.525 62.998)" fill="#b7d3f3"/>
    <path id="Path_19243" data-name="Path 19243" d="M179.281,48.4H153.77a2.136,2.136,0,0,1-2.129-2.129V21.644a2.136,2.136,0,0,1,2.129-2.129h25.511a2.136,2.136,0,0,1,2.129,2.129V46.268a2.136,2.136,0,0,1-2.129,2.129" transform="translate(68.312 8.791)" fill="#c0d8fb"/>
    <path id="Path_19244" data-name="Path 19244" d="M177.776,46.758h-23.3a1.95,1.95,0,0,1-1.945-1.945V22.324a1.95,1.95,0,0,1,1.945-1.945h23.3a1.951,1.951,0,0,1,1.945,1.945V44.812a1.951,1.951,0,0,1-1.945,1.945" transform="translate(68.713 9.18)" fill="#dfebfd"/>
    <path id="Path_19245" data-name="Path 19245" d="M161.478,22.387a.616.616,0,1,1,.616.616.616.616,0,0,1-.616-.616" transform="translate(72.744 9.808)" fill="#b7d3f3"/>
    <path id="Path_19246" data-name="Path 19246" d="M164.932,22.894a.617.617,0,1,1,.239.838.618.618,0,0,1-.239-.838" transform="translate(74.265 10.171)" fill="#b7d3f3"/>
    <path id="Path_19247" data-name="Path 19247" d="M167.935,25.161a.617.617,0,1,1-.184.853.618.618,0,0,1,.184-.853" transform="translate(75.525 11.291)" fill="#b7d3f3"/>
    <path id="Path_19248" data-name="Path 19248" d="M169.494,28.745a.616.616,0,1,1-.616.616.616.616,0,0,1,.616-.616" transform="translate(76.077 12.949)" fill="#b7d3f3"/>
    <path id="Path_19249" data-name="Path 19249" d="M168.887,33a.616.616,0,1,1-.872,0,.616.616,0,0,1,.872,0" transform="translate(75.607 14.783)" fill="#b7d3f3"/>
    <path id="Path_19250" data-name="Path 19250" d="M166.217,35.672a.616.616,0,1,1-.872,0,.616.616,0,0,1,.872,0" transform="translate(74.404 15.988)" fill="#b7d3f3"/>
    <path id="Path_19251" data-name="Path 19251" d="M161.478,37.187a.616.616,0,1,1,.616.616.616.616,0,0,1-.616-.616" transform="translate(72.744 16.475)" fill="#b7d3f3"/>
    <path id="Path_19252" data-name="Path 19252" d="M159.243,22.894a.617.617,0,1,0-.239.838.618.618,0,0,0,.239-.838" transform="translate(71.216 10.171)" fill="#b7d3f3"/>
    <path id="Path_19253" data-name="Path 19253" d="M156.24,25.161a.617.617,0,1,0,.184.853.618.618,0,0,0-.184-.853" transform="translate(69.956 11.291)" fill="#b7d3f3"/>
    <path id="Path_19254" data-name="Path 19254" d="M154.68,28.745a.616.616,0,1,0,.616.616.616.616,0,0,0-.616-.616" transform="translate(69.404 12.949)" fill="#b7d3f3"/>
    <path id="Path_19255" data-name="Path 19255" d="M155.288,33a.616.616,0,1,0,.872,0,.616.616,0,0,0-.872,0" transform="translate(69.874 14.783)" fill="#b7d3f3"/>
    <path id="Path_19256" data-name="Path 19256" d="M157.958,35.672a.616.616,0,1,0,.872,0,.616.616,0,0,0-.872,0" transform="translate(71.077 15.988)" fill="#b7d3f3"/>
    <path id="Path_19257" data-name="Path 19257" d="M161.788,29.362a.616.616,0,1,1,.616.616.616.616,0,0,1-.616-.616" transform="translate(72.883 12.95)" fill="#b7d3f3"/>
    <rect id="Rectangle_1985" data-name="Rectangle 1985" width="0.168" height="7.704" transform="translate(235.204 34.609)" fill="#b7d3f3"/>
    <rect id="Rectangle_1986" data-name="Rectangle 1986" width="5.192" height="0.505" transform="translate(235.054 42.102) rotate(-38.122)" fill="#b7d3f3"/>
    <path id="Path_19258" data-name="Path 19258" d="M160.188,104.569c-3.806,6.624-8.594,9.182-8.594,9.182H131.677s31.415-14.235,28.511-9.182" transform="translate(59.319 46.618)" fill="#234662"/>
    <path id="Path_19259" data-name="Path 19259" d="M168.578,154.214c-.215,2.09,2.691,2.63,6.062,2.834s2.345.883,6.958,1.77,6.479-.358,6.82-.979c.3-.551-1.836-1.44-4.115-2.444-.287-.125-.574-.254-.862-.384-2.566-1.16-3.987-3.487-5.973-5.653-1.883-2.05-3.619-8.568-3.619-8.568l-6.268-1.41s1.7,5.869,2.287,8.374a7.743,7.743,0,0,1-.69,4.353,8.252,8.252,0,0,0-.6,2.108" transform="translate(75.493 62.789)" fill="#ffa77d"/>
    <path id="Path_19260" data-name="Path 19260" d="M174.334,153.094c3.371.2,2.344.883,6.958,1.771s6.478-.358,6.819-.979c.3-.551-1.835-1.44-4.115-2.446l-.036.039a13.156,13.156,0,0,1-7,.009c-3.049-.863-5.985-2.723-8.085-3.335a8.143,8.143,0,0,0-.6,2.106c-.216,2.09,2.691,2.63,6.062,2.834" transform="translate(75.799 66.741)" fill="#0e3449"/>
    <path id="Path_19261" data-name="Path 19261" d="M180.493,105.371c-3.372-2.367-25.678-6.59-37.06-7.809L130.852,86.639s-10.709,15.863-10.795,28c-.039,5.657,2.567,6.22,2.567,6.221s40.332.3,42.1.482c2.894.3,6.711,7.506,7.664,14.073s17.773,33.273,17.773,33.273a21.067,21.067,0,0,0,5.13,1.028,5.14,5.14,0,0,0,2.551-.686s-9.746-58.317-17.351-63.656" transform="translate(54.084 39.03)" fill="#234662"/>
    <path id="Path_19262" data-name="Path 19262" d="M161.385,154.214c-.215,2.09,2.691,2.63,6.062,2.834s2.345.883,6.958,1.77,6.479-.358,6.82-.979c.3-.551-1.836-1.44-4.115-2.444-.287-.125-.574-.254-.862-.384-2.566-1.16-3.987-3.487-5.973-5.653-1.883-2.05-3.619-8.568-3.619-8.568l-6.268-1.41s1.7,5.869,2.286,8.374a7.73,7.73,0,0,1-.689,4.353,8.251,8.251,0,0,0-.6,2.108" transform="translate(72.253 62.789)" fill="#ffa77d"/>
    <path id="Path_19263" data-name="Path 19263" d="M167.142,153.094c3.371.2,2.344.883,6.957,1.771s6.479-.358,6.82-.979c.3-.551-1.835-1.44-4.115-2.446l-.036.039a13.156,13.156,0,0,1-7,.009c-3.049-.863-5.986-2.723-8.085-3.335a8.143,8.143,0,0,0-.6,2.106c-.216,2.09,2.691,2.63,6.062,2.834" transform="translate(72.56 66.741)" fill="#234662"/>
    <path id="Path_19264" data-name="Path 19264" d="M173.237,105.371c-2.93-2.057-11.74-3.652-21.466-4.836a6.541,6.541,0,0,1-5.554-4.91L123.6,86.639s-10.709,15.863-10.795,28c-.039,5.657,2.567,6.22,2.567,6.221s40.332.3,42.1.482c2.894.3,6.711,7.506,7.664,14.073s17.773,33.273,17.773,33.273a21.067,21.067,0,0,0,5.129,1.028,5.143,5.143,0,0,0,2.553-.686s-9.746-58.317-17.351-63.656" transform="translate(50.815 39.03)" fill="#2b5c8b"/>
    <path id="Path_19265" data-name="Path 19265" d="M146.374,41.837c-3.11-1.632-7.84-1.854-8.609-1.957-9.195-1.234-14.731,12.126-15.055,16.176-.6,7.464-4.549,8.6-10.107,13.276-11.141,9.37-7.873,20.26-1.78,24.307,3.654,2.427,10.1,0,10.1,0,.093.064,17.622-9.8,26.265-14.559,12.954-1.842,7.109-33.083-.812-37.244" transform="translate(47.409 17.929)" fill="#234662"/>
    <path id="Path_19266" data-name="Path 19266" d="M136.094,67.662c.041.02-4.086,1.9-7.065.914-2.8-.924-5.27-5.142-5.23-5.149,1.217-.176,2.453-1.375,2.8-8.485l.538.135,9.055,2.289s-.357,2.869-.5,5.581c-.125,2.277-.1,4.446.409,4.716" transform="translate(55.769 24.75)" fill="#ffa77d"/>
    <path id="Path_19267" data-name="Path 19267" d="M135.234,57.133s0,.59-.338,3.259c-5.122-1.292-7.38-2.989-8.973-4.933Z" transform="translate(56.727 24.984)" fill="#ed8b5d"/>
    <path id="Path_19268" data-name="Path 19268" d="M138.107,63.016s-11.975,1.949-13.075-5.526-3.385-12.26,4.214-13.82,9.508,1.073,10.483,3.478,1.465,15.169-1.622,15.868" transform="translate(55.786 19.461)" fill="#ffa77d"/>
    <path id="Path_19269" data-name="Path 19269" d="M139.127,43.723s-5.438,8.584-10.293,10.618-7.239,1-7.239,1a20.462,20.462,0,0,0,2.783-7.846,3.681,3.681,0,0,1,2.274-2.959c3.483-1.394,10.222-3.594,12.474-.814" transform="translate(54.777 19.094)" fill="#234662"/>
    <path id="Path_19270" data-name="Path 19270" d="M130.388,44.593a18.983,18.983,0,0,1,4.5,3.165,14.546,14.546,0,0,1,2.624,7.29s1.572-8.632-1.7-11.6c-3.474-3.146-5.423,1.143-5.423,1.143" transform="translate(58.738 19.054)" fill="#234662"/>
    <path id="Path_19271" data-name="Path 19271" d="M148.9,83.576c-.364,24.341-.1,19.255-2.762,21.564-.643.556-2.446.888-4.82,1.044-7.463.5-20.584-.734-21.083-2.113-1.722-4.774-.506-6.256-1.942-13.562-.151-.777-.335-1.619-.553-2.535-1.2-5.019-2.363-6.726,1.886-14.788,3.852-7.3,8.384-13.237,8.744-13.022,10.166,6.034,10.513.976,10.513.976S149.08,71.7,148.9,83.576" transform="translate(52.542 27.1)" fill="#fff"/>
    <path id="Path_19272" data-name="Path 19272" d="M131.975,60.835s10.4,1.764,11.631,6.268,8.456,30.98,8.456,30.98-5.318.954-7.775-1.5-8.548-22.791-8.548-22.791Z" transform="translate(59.453 27.405)" fill="#fff"/>
    <path id="Path_19273" data-name="Path 19273" d="M140.8,99.907c-7.464.5-20.584-.734-21.083-2.113-1.722-4.774-.506-6.256-1.944-13.562l3.6-10.137s-.595,11.288,2.734,14.257,13.63,5.732,15.249,8.213a9.081,9.081,0,0,1,1.443,3.343" transform="translate(53.057 33.378)" fill="#ebf3ff"/>
    <path id="Path_19274" data-name="Path 19274" d="M127.757,88.971s7.364-1.639,8.552-.986,4.092,3.033,4.454,3.861-2.644-.628-3.623-.891a8.706,8.706,0,0,0-3.127.685,10.39,10.39,0,0,1-5.6.563Z" transform="translate(57.553 39.567)" fill="#ffa77d"/>
    <path id="Path_19275" data-name="Path 19275" d="M132.3,60.162s-10.422.609-13.845,5.383c-4.817,6.72-14.376,35.36-8.9,39.179,6.169,4.3,28.076,1.126,28.076,1.126s.728-3.409-.286-5.056-17.5-4.311-18.259-5.071S128.6,80.887,128.6,78.6s3.7-18.443,3.7-18.443" transform="translate(48.613 27.102)" fill="#fff"/>
    <path id="Path_19276" data-name="Path 19276" d="M133.9,89.35a14.3,14.3,0,0,0,2.048,2.228,1.508,1.508,0,0,0,.833.178l-1.039-1.871Z" transform="translate(60.32 40.251)" fill="#ffa77d"/>
    <path id="Path_19277" data-name="Path 19277" d="M133.653,87.937l4.486,2.179a.8.8,0,0,1-.744.287,10.745,10.745,0,0,1-1.945-.535Z" transform="translate(60.209 39.614)" fill="#ffa77d"/>
    <path id="Path_19278" data-name="Path 19278" d="M151.517,92.013H130.682a1.661,1.661,0,0,1,1.661-1.661h19.174Z" transform="translate(58.871 40.702)" fill="#1282af"/>
    <path id="Path_19279" data-name="Path 19279" d="M147.468,75.854h32.21l-7.725,22.69H139.534Z" transform="translate(62.858 34.171)" fill="#1282af"/>
    <path id="Path_19280" data-name="Path 19280" d="M180.006,75.854l-7.725,22.69h-32.42l7.936-22.69Z" transform="translate(63.005 34.171)" fill="#28a1de"/>
    <path id="Path_19281" data-name="Path 19281" d="M156.553,84.018a2.093,2.093,0,0,1-1.932,1.569,1.208,1.208,0,0,1-1.207-1.569,2.093,2.093,0,0,1,1.932-1.569,1.208,1.208,0,0,1,1.207,1.569" transform="translate(69.092 37.142)" fill="#fff"/>
    <path id="Path_19282" data-name="Path 19282" d="M126.052,96.6H267.207a1.075,1.075,0,0,0,1.075-1.075V92.572a1.074,1.074,0,0,0-1.075-1.075H126.052a1.074,1.074,0,0,0-1.075,1.075v2.955a1.075,1.075,0,0,0,1.075,1.075" transform="translate(56.3 41.218)" fill="#203a4f"/>
    <path id="Path_19283" data-name="Path 19283" d="M230.379,179.882l.061-.007a1.3,1.3,0,0,0,1.143-1.442L219,93.288l-4.605.132,14.8,85.6a1.057,1.057,0,0,0,1.179.857" transform="translate(96.584 42.025)" fill="#203a4f"/>
    <path id="Path_19284" data-name="Path 19284" d="M122.836,179.882l-.061-.007a1.3,1.3,0,0,1-1.143-1.442l12.579-85.145,4.605.132-14.8,85.6a1.057,1.057,0,0,1-1.179.857" transform="translate(54.789 42.025)" fill="#203a4f"/>
    <path id="Path_19285" data-name="Path 19285" d="M142.912,179.882l-.061-.007a1.3,1.3,0,0,1-1.143-1.442l12.579-85.145,4.605.132-14.8,85.6a1.057,1.057,0,0,1-1.179.857" transform="translate(63.833 42.025)" fill="#203a4f"/>
    <path id="Path_19286" data-name="Path 19286" d="M193.7,156.9h24.961c1.2-1.465.757-6.871.576-8.636-.038-.355-.064-.563-.064-.563s-8.523-6.817-9.694-1.6c-.036.164-.08.323-.126.482-1.475,4.882-8.092,7.1-11.911,7.719-2.485.4-3.4,1.694-3.742,2.595" transform="translate(87.258 64.933)" fill="#234662"/>
    <path id="Path_19287" data-name="Path 19287" d="M257.315,97.024c-.9,0-42.756,7.859-49.679,16.428-3.459,4.282-3.973,53.726-3.973,53.726s4.279,5.3,13.52,2.224c0,0,6.775-33.828,6.275-44.089-.138-2.837,28.6-.41,33.857-1.771s18.111-12.8,15.278-18.376-15.278-8.142-15.278-8.142" transform="translate(91.747 43.708)" fill="#234662"/>
    <path id="Path_19288" data-name="Path 19288" d="M211.366,88.677s-8.443.115-10.439.97-6.047,2.82-4.964,3.121,6.256-.125,7.373.046a18.826,18.826,0,0,0,3.181-.048c.685,0,3.877,0,3.877,0Z" transform="translate(88.197 39.948)" fill="#ffa77d"/>
    <path id="Path_19289" data-name="Path 19289" d="M205.04,78.2a15.43,15.43,0,0,0-5.674-2.456,24.484,24.484,0,0,1-4.08-.843c-2.579-.908-7.74-5.548-7.35-6.093,1.252-1.743,7.277,1.948,8.329,1.551s-2.022-2.58-.953-3.349c.558-.4,1.864,1.61,2.931,1.813,1.445.273,2.573,2.312,3.008,2.418.846.207,4.553,2.965,4.553,2.965Z" transform="translate(84.653 30.163)" fill="#ffa77d"/>
    <path id="Path_19290" data-name="Path 19290" d="M252.158,58.148S245.731,60.14,239.4,77.577s-8.738,18.378-11.038,19.062-22.506,4.707-22.506,4.707v5.174h31.13s11.672-11.1,15.172-18.578,0-29.794,0-29.794" transform="translate(92.735 26.195)" fill="#1282af"/>
    <path id="Path_19291" data-name="Path 19291" d="M186.091,156.9h24.96c1.2-1.465.759-6.871.577-8.636-.038-.355-.064-.563-.064-.563s-8.523-6.817-9.694-1.6c-.036.164-.08.323-.126.482-1.475,4.882-8.092,7.1-11.913,7.719-2.483.4-3.4,1.694-3.741,2.595" transform="translate(83.832 64.933)" fill="#1b3351"/>
    <path id="Path_19292" data-name="Path 19292" d="M248.812,97.024c-.9,0-42.756,7.859-49.679,16.428-3.459,4.282-3.973,53.726-3.973,53.726s4.279,5.3,13.52,2.224c0,0,6.775-33.828,6.275-44.089-.138-2.837,28.6-.41,33.857-1.771s18.111-12.8,15.278-18.376-15.278-8.142-15.278-8.142" transform="translate(87.917 43.708)" fill="#2b5c8b"/>
    <path id="Path_19293" data-name="Path 19293" d="M234.768,68.91a40.612,40.612,0,0,0,8.9-1.936c3.412-1.107,6.16-2.724,4.389-5.841-1.633-2.872-4.276-9.292-4.1-14.609l-6.346,5.114L233.3,55.113a51.563,51.563,0,0,0,.489,5.637c.086.656.187,1.362.306,2.115a1.536,1.536,0,0,1-.709,1.545l-.1.061a2.407,2.407,0,0,0,1.481,4.44" transform="translate(104.58 20.958)" fill="#ffa77d"/>
    <path id="Path_19294" data-name="Path 19294" d="M232.961,52.691a10.494,10.494,0,0,0,.158,3.49c3.844-.627,7.437-3.693,7.437-3.693-1.957-.537-2.669-2.651-4.127-2.454Z" transform="translate(104.917 22.534)" fill="#ed8b5d"/>
    <path id="Path_19295" data-name="Path 19295" d="M231.386,59.89s14.785,2.456,16.173-6.774,4.23-15.13-5.151-17.09-11.749,1.288-12.962,4.256-1.871,18.732,1.939,19.608" transform="translate(102.937 15.961)" fill="#ffa77d"/>
    <path id="Path_19296" data-name="Path 19296" d="M227.7,36.808c-.635,2.222,1.065,4.93,3.916,5.821,4.234,1.324,3.3,6.517,5.2,6.446s2.675-2.985,4.376-.656c1.452,1.986-1.208,4.341-1.025,5.429.315,1.871,3.243,5.7,5.883,5.5s7.579-12.737,6.591-16.618-4.939-7.973-8.68-8.538-8.934,1.05-10.133,1.05-5.787.36-6.131,1.561" transform="translate(102.514 15.351)" fill="#2b5c8b"/>
    <path id="Path_19297" data-name="Path 19297" d="M262.8,72.452c-2.137-8.6-8.043-17.625-12.036-17.618-6.806.013-16.588,1.809-20.537,11.552-2.908,7.176-6.788,48.455-2.4,51.391,10.024,6.711,33.261,20.411,37.389,6.44,3.781-12.8,1.3-36.838-2.412-51.765" transform="translate(101.741 24.702)" fill="#28a1de"/>
    <path id="Path_19298" data-name="Path 19298" d="M259.609,62.686a8.06,8.06,0,0,0-12.473-3.474,76.3,76.3,0,0,0-8.554,7.994c-12.7,13.523-15.281,13.439-17.665,13.16s-22.536-4.556-22.536-4.556a6.088,6.088,0,0,0-1.639,1.992,3.749,3.749,0,0,0-.4,2.763c-.791-.511,7.142,4.958,11.09,7.138,5.215,2.879,13.072,5.579,16.2,6.6a4.166,4.166,0,0,0,2.721-.041C231,92.591,246.6,86.49,259.293,75.9c3.345-2.788,2.116-8.536.316-13.218" transform="translate(88.402 25.908)" fill="#28a1de"/>
    <path id="Path_19299" data-name="Path 19299" d="M248.978,55.969l-1.54-3.471s-13.791,1.124-16.109,8.974c0,0,10.69-5.335,17.65-5.5" transform="translate(104.21 23.65)" fill="#fff"/>
    <path id="Path_19300" data-name="Path 19300" d="M269.164,169.269h.1a1.3,1.3,0,0,0,1.307-1.384l-5.2-51.88-4.533.4,7.46,52.159a.844.844,0,0,0,.866.7" transform="translate(117.504 52.258)" fill="#8cb4f4"/>
    <path id="Path_19301" data-name="Path 19301" d="M250.731,169.269h.094a1.294,1.294,0,0,0,1.307-1.384l-5.2-51.88-4.533.4,7.461,52.159a.841.841,0,0,0,.866.7" transform="translate(109.2 52.258)" fill="#8cb4f4"/>
    <path id="Path_19302" data-name="Path 19302" d="M213.975,169.269h-.1a1.3,1.3,0,0,1-1.307-1.384l5.2-51.88,4.533.4-7.46,52.159a.844.844,0,0,1-.866.7" transform="translate(95.759 52.258)" fill="#73a2e5"/>
    <path id="Path_19303" data-name="Path 19303" d="M279.733,128.684l4.93-43.33c.647-6.244-1.443-12.36-10.454-12.832l-15.852-.965c-9.4-.389-13.637,7.431-14.827,13.452l-9.412,47.631Z" transform="translate(105.467 32.229)" fill="#8cb4f4"/>
    <path id="Path_19304" data-name="Path 19304" d="M286.39,119.106H216.032a2.577,2.577,0,0,1-2.57-2.57v-3.165a2.578,2.578,0,0,1,2.57-2.57H288.96v5.735a2.577,2.577,0,0,1-2.57,2.57" transform="translate(96.162 49.914)" fill="#73a2e5"/>
    <path id="Path_19305" data-name="Path 19305" d="M277.658,119.106H236.115a2,2,0,0,1-2-2V112.8a2,2,0,0,1,2-2h43.539v6.31a2,2,0,0,1-2,2" transform="translate(105.468 49.914)" fill="#8cb4f4"/>
  </g>
</svg>
