<svg xmlns="http://www.w3.org/2000/svg" xmlns:xlink="http://www.w3.org/1999/xlink" width="268.243" height="159.897" viewBox="0 0 268.243 159.897">
  <defs>
    <clipPath id="clip-path">
      <rect id="Rectangle_881" data-name="Rectangle 881" width="268.243" height="159.897" fill="none"/>
    </clipPath>
    <clipPath id="clip-path-3">
      <rect id="Rectangle_871" data-name="Rectangle 871" width="46.557" height="52.93" fill="none"/>
    </clipPath>
    <clipPath id="clip-path-4">
      <path id="Path_15989" data-name="Path 15989" d="M52.875,69.717l1.507,78.957h5.311l11.13-79.135Z" transform="translate(-52.875 -69.539)" fill="none"/>
    </clipPath>
    <clipPath id="clip-path-6">
      <path id="Path_15992" data-name="Path 15992" d="M70.644,115.958l.054.01-5.47,31.674,5.3,1.683,8.907-26.289c3.3-7.222,2.1-45.066,2.772-53.319l-17.947-.178Z" transform="translate(-64.263 -69.539)" fill="none"/>
    </clipPath>
    <clipPath id="clip-path-8">
      <path id="Path_15999" data-name="Path 15999" d="M64.054,29.035c.154,9.9,12.225,9.9,12.379,0-.077-4.951-3.134-7.427-6.19-7.428s-6.113,2.476-6.189,7.428" transform="translate(-64.054 -21.607)" fill="none"/>
    </clipPath>
    <clipPath id="clip-path-10">
      <path id="Path_16022" data-name="Path 16022" d="M165.493,71.409c1.231,8.2,1.783,44.994,6.583,51.756l12.161,24.952,5.048-2.341-9.433-30.728.053-.016,2.953-47.4Z" transform="translate(-165.493 -67.637)" fill="none"/>
    </clipPath>
    <clipPath id="clip-path-12">
      <path id="Path_16025" data-name="Path 16025" d="M130.99,42.529,146.4,58.316a7.01,7.01,0,0,0,3.51,1.868c2.821.926,9.942-2.882,12.6-3.628l-4.338-8.224L151.248,51.1,133.124,38.559Z" transform="translate(-130.99 -38.559)" fill="none"/>
    </clipPath>
    <clipPath id="clip-path-14">
      <path id="Path_16030" data-name="Path 16030" d="M163.1,31.492c2.037,9.692,13.886,7.394,12.151-2.358-.9-4.274-3.7-6.216-6.412-6.215-3.434,0-6.709,3.122-5.739,8.574" transform="translate(-162.929 -22.918)" fill="none"/>
    </clipPath>
    <clipPath id="clip-path-16">
      <path id="Path_16043" data-name="Path 16043" d="M185.628,59.04l6.782,5.9c5.44,2.1,28.5,13.429,33.694,15.1a4.07,4.07,0,0,0,3.608-1.469c.226-.281-4.16-2.878-4.16-2.878s2.692-.114,3.031-.678-6.076-.948-6.076-.948c-4.082-2.78-27.664-16.66-29.97-20.677Z" transform="translate(-185.628 -53.39)" fill="none"/>
    </clipPath>
  </defs>
  <g id="Group_1957" data-name="Group 1957" clip-path="url(#clip-path)">
    <g id="Group_1928" data-name="Group 1928">
      <g id="Group_1927" data-name="Group 1927" clip-path="url(#clip-path)">
        <path id="Path_15973" data-name="Path 15973" d="M260.553,159.9S290.868,76.8,231.121,76.8c-31.568,0-18.563-22.8-40.026-49.182S94.575-19.842,78.6,31.106s23.506,89.633-14.644,83C18.11,106.129,0,159.9,0,159.9Z" transform="translate(0 0)" fill="#dcf3fd"/>
        <path id="Path_15974" data-name="Path 15974" d="M114.331,143.577a3.027,3.027,0,0,1-3.469-3.3l3.469-33.851,6.184-.946-3.629,35.413a3.028,3.028,0,0,1-2.554,2.684" transform="translate(6.44 6.128)" fill="#153f60"/>
        <path id="Path_15975" data-name="Path 15975" d="M97.866,153.559c-2.33.168-3.42-2.856-2.866-3.793l13.866-49.847h6.186l-14.315,51.458a2.979,2.979,0,0,1-2.871,2.182" transform="translate(5.511 5.805)" fill="#153f60"/>
        <path id="Path_15976" data-name="Path 15976" d="M149.877,153.559a2.979,2.979,0,0,0,2.871-3.778L138.877,99.919h-6.186l14.315,51.458a2.979,2.979,0,0,0,2.871,2.182" transform="translate(7.709 5.805)" fill="#153f60"/>
        <path id="Path_15977" data-name="Path 15977" d="M172.56,86.736c-5.643-53.4-96.559-60.765-92.124.528,5.644,53.4,96.559,60.763,92.124-.528" transform="translate(4.664 2.553)" fill="#f07f3c"/>
        <path id="Path_15978" data-name="Path 15978" d="M134.091,127.02c-56.3,1.188-75.05-83.919-10.833-87.348,56.294-1.187,75.048,83.919,10.833,87.348" transform="translate(4.811 2.304)" fill="#f9c568"/>
        <path id="Path_15979" data-name="Path 15979" d="M132.347,116.892c-43.922.927-58.553-65.472-8.452-68.148,43.921-.926,58.552,65.473,8.452,68.148" transform="translate(5.365 2.831)" fill="#fff"/>
        <path id="Path_15980" data-name="Path 15980" d="M130.6,106.765c-31.547.666-42.055-47.025-6.07-48.948,31.545-.664,42.055,47.026,6.07,48.948" transform="translate(5.918 3.359)" fill="#f9c568"/>
        <path id="Path_15981" data-name="Path 15981" d="M128.858,96.638c-19.172.4-25.558-28.579-3.69-29.747,19.172-.4,25.558,28.579,3.69,29.747" transform="translate(6.472 3.886)" fill="#fff"/>
        <path id="Path_15982" data-name="Path 15982" d="M132.023,81.2c.542,7.4-10.449,6.514-11.123.065-.542-7.4,10.449-6.513,11.123-.065" transform="translate(7.023 4.417)" fill="#f9c568"/>
        <g id="Group_1926" data-name="Group 1926" transform="translate(133.484 42.242)" style="mix-blend-mode: color-burn;isolation: isolate">
          <g id="Group_1925" data-name="Group 1925">
            <g id="Group_1924" data-name="Group 1924" clip-path="url(#clip-path-3)">
              <path id="Path_15983" data-name="Path 15983" d="M126.155,39.923s14.809,50.309,46.11,52.93c3-9.878-8.735-49.972-46.11-52.93" transform="translate(-126.155 -39.923)" fill="#f07f3c"/>
            </g>
          </g>
        </g>
        <path id="Path_15984" data-name="Path 15984" d="M118.687,37.8a2.415,2.415,0,0,0,1.17-1.14c.805-1.654,2.691-5.383,3.384-5.544.891-.21-2.179,7.678-1.2,7.319.723-.265,1.793-1.714,2.609-1.6s.106,1.582-.863,2.922c-.622.859-4.634,2.8-4.634,2.8l-1.6-4.242Z" transform="translate(6.829 1.808)" fill="#f4cec6"/>
        <path id="Path_15985" data-name="Path 15985" d="M29.9,18.992s-.321-4.618-1.3-5.237-4.915-1.24-5.623-.222-1.2,4.206-.8,4.649,4.543,3.586,4.543,3.586Z" transform="translate(1.281 0.755)" fill="#f4cec6"/>
        <path id="Path_15986" data-name="Path 15986" d="M76.564,151.05c.147-1.881-2.7-2.408-3.935-3.062L70.152,146.2l-.126-2.131-4.313-.96L63.784,149.5l6.979,1.554.019-.028Z" transform="translate(3.706 8.314)" fill="#153f60"/>
        <path id="Path_15987" data-name="Path 15987" d="M52.875,69.717l1.507,78.957h5.311l11.13-79.135Z" transform="translate(3.072 4.04)" fill="#326290"/>
      </g>
    </g>
    <g id="Group_1930" data-name="Group 1930" transform="translate(55.947 73.579)">
      <g id="Group_1929" data-name="Group 1929" clip-path="url(#clip-path-4)">
        <path id="Path_15988" data-name="Path 15988" d="M67.6,89.582c-7.717,10.25-10.04,44.246-10.65,59h4.659l5.762-36.174Z" transform="translate(-52.638 -68.375)" fill="#2a557d"/>
      </g>
    </g>
    <g id="Group_1932" data-name="Group 1932">
      <g id="Group_1931" data-name="Group 1931" clip-path="url(#clip-path)">
        <path id="Path_15990" data-name="Path 15990" d="M64.263,69.539l6.38,46.419.055.01-5.469,31.674,5.3,1.683,8.907-26.289c3.3-7.222,2.1-45.066,2.772-53.319Z" transform="translate(3.733 4.04)" fill="#326290"/>
      </g>
    </g>
    <g id="Group_1934" data-name="Group 1934" transform="translate(67.996 73.579)">
      <g id="Group_1933" data-name="Group 1933" clip-path="url(#clip-path-6)">
        <path id="Path_15991" data-name="Path 15991" d="M67.246,89.582c12,32.228,8.206,26.613.024,57.928l-4.181-1.287,5.095-33.068Z" transform="translate(-64.331 -68.375)" fill="#2a557d"/>
      </g>
    </g>
    <g id="Group_1936" data-name="Group 1936">
      <g id="Group_1935" data-name="Group 1935" clip-path="url(#clip-path)">
        <path id="Path_15993" data-name="Path 15993" d="M55.591,144.329,55,146.382l-6.331,2.713a2.05,2.05,0,0,0-1.243,1.884H60.5l-.5-6.65Z" transform="translate(2.756 8.385)" fill="#153f60"/>
        <path id="Path_15994" data-name="Path 15994" d="M53,77.128H82.715L53.127,82.876Z" transform="translate(3.079 4.481)" fill="#2a557d"/>
        <path id="Path_15995" data-name="Path 15995" d="M70.062,41.811,48.231,37.744,30.164,16.986l-4.942,4.325,15.3,24.6a6.955,6.955,0,0,0,3.833,2.966l19.365,4.165Z" transform="translate(1.465 0.987)" fill="#42b9f3"/>
        <path id="Path_15996" data-name="Path 15996" d="M75.035,23.095c.436.433,2.106,3.862.834,5.853l-2.134-4.7Z" transform="translate(4.284 1.342)" fill="#191e49"/>
        <path id="Path_15997" data-name="Path 15997" d="M64.054,29.035c.154,9.9,12.225,9.9,12.379,0-.154-9.9-12.225-9.9-12.379,0" transform="translate(3.721 1.255)" fill="#f4cec6"/>
      </g>
    </g>
    <g id="Group_1938" data-name="Group 1938" transform="translate(67.775 22.862)">
      <g id="Group_1937" data-name="Group 1937" clip-path="url(#clip-path-8)">
        <path id="Path_15998" data-name="Path 15998" d="M76.325,26.456s-6.971,2.232-9.358-1.1h0l8.017-1.837Z" transform="translate(-63.946 -21.496)" fill="#ed9da4"/>
      </g>
    </g>
    <g id="Group_1940" data-name="Group 1940">
      <g id="Group_1939" data-name="Group 1939" clip-path="url(#clip-path)">
        <path id="Path_16000" data-name="Path 16000" d="M64.1,28.158s.605,11.623-.62,15.067a14.668,14.668,0,0,0,7.648,0S68.736,33.3,69.2,31.025Z" transform="translate(3.688 1.636)" fill="#f4cec6"/>
        <path id="Path_16001" data-name="Path 16001" d="M69.479,35.784a5.508,5.508,0,0,1-3.045-1.428s.376,3.137,3.4,3.318Z" transform="translate(3.86 1.996)" fill="#ed9da4"/>
        <path id="Path_16002" data-name="Path 16002" d="M75.236,24.739c-1.432.636-8.6,2.15-10.756-.306,0,0-1.451-2.805.341-3.84s11.053-1.845,11.053-1.845,1.007,4.556-.638,5.991" transform="translate(3.714 1.089)" fill="#54445a"/>
        <path id="Path_16003" data-name="Path 16003" d="M67,23.576c1.172,4.808-.06,5.979-2.654,9.475-1.757-3.6-4.767-6.53-.288-10.523Z" transform="translate(3.585 1.309)" fill="#54445a"/>
        <path id="Path_16004" data-name="Path 16004" d="M63.926,29.174a1.578,1.578,0,0,0,3.156,0,1.578,1.578,0,0,0-3.156,0" transform="translate(3.714 1.605)" fill="#f4cec6"/>
        <path id="Path_16005" data-name="Path 16005" d="M80.4,50.088C79.2,42.15,73.142,38.17,66.347,39.051c-5.4,0-10.019,4.645-10.987,11.037L50.932,79.34h33.9Z" transform="translate(2.959 2.262)" fill="#42b9f3"/>
        <path id="Path_16006" data-name="Path 16006" d="M63.617,39.287a3.653,3.653,0,0,0,7.064,0,8.739,8.739,0,0,0-7.064,0" transform="translate(3.696 2.24)" fill="#f4cec6"/>
        <path id="Path_16007" data-name="Path 16007" d="M63.68,39.247l3.37,2.731-1.4.882c-2.243,1.161-2.575-1.9-3.128-3.285a4.919,4.919,0,0,1,1.153-.328" transform="translate(3.633 2.28)" fill="#fff"/>
        <path id="Path_16008" data-name="Path 16008" d="M67.6,41.913l1.312.814a1.547,1.547,0,0,0,2.334-1.02l.406-2.108s-.919-.3-1.2-.351Z" transform="translate(3.927 2.28)" fill="#fff"/>
        <path id="Path_16009" data-name="Path 16009" d="M66.925,41.832,64.689,61.81l3.079,5.669L70.3,61.791,67.769,41.766Z" transform="translate(3.758 2.426)" fill="#2a557d"/>
        <path id="Path_16010" data-name="Path 16010" d="M73.159,40.584l21.171,6.7,25.72-9.792,2.318,6.144L97.275,58.121a6.958,6.958,0,0,1-4.779.809l-13.713-2.6Z" transform="translate(4.25 2.178)" fill="#42b9f3"/>
        <path id="Path_16011" data-name="Path 16011" d="M79.75,55.906l-.986-6.96,13.406,9.32Z" transform="translate(4.576 2.844)" fill="#3ca0d7"/>
        <path id="Path_16012" data-name="Path 16012" d="M55.8,49.742l.809-4.861-13.3,2.378Z" transform="translate(2.516 2.607)" fill="#3ca0d7"/>
        <path id="Path_16013" data-name="Path 16013" d="M23.963,13.911s3.832.46,3.5,1.852a3.185,3.185,0,0,1-3.5,2.613,3.706,3.706,0,0,0,2.442.907c1.452-.035,2.32-3.375,1.78-4.106-1.022-1.382-4.222-1.265-4.222-1.265" transform="translate(1.392 0.808)" fill="#ed9da4"/>
        <circle id="Ellipse_8" data-name="Ellipse 8" cx="8.648" cy="8.648" r="8.648" transform="translate(205.179 12.616)" fill="none" stroke="#42b9f3" stroke-linecap="round" stroke-linejoin="round" stroke-width="1"/>
        <path id="Path_16014" data-name="Path 16014" d="M195.963,16.566c-2.815.636-3.331,1.151-3.967,3.967-.636-2.816-1.151-3.331-3.966-3.967,2.815-.636,3.33-1.151,3.966-3.967C192.632,15.415,193.148,15.93,195.963,16.566Z" transform="translate(10.924 0.732)" fill="none" stroke="#42b9f3" stroke-linecap="round" stroke-linejoin="round" stroke-width="1"/>
        <path id="Path_16015" data-name="Path 16015" d="M104.349,28.847c1.7-6.133,1.232-7.672-3.575-11.841,6.133,1.7,7.672,1.233,11.841-3.575-1.7,6.133-1.233,7.672,3.575,11.841C110.058,23.575,108.518,24.039,104.349,28.847Z" transform="translate(5.855 0.78)" fill="none" stroke="#42b9f3" stroke-linecap="round" stroke-linejoin="round" stroke-width="1"/>
        <path id="Path_16016" data-name="Path 16016" d="M114.625,17.049c.779-2.813.565-3.519-1.64-5.431,2.813.779,3.519.565,5.431-1.64-.779,2.813-.565,3.519,1.64,5.431C117.243,14.63,116.537,14.844,114.625,17.049Z" transform="translate(6.564 0.58)" fill="none" stroke="#42b9f3" stroke-linecap="round" stroke-linejoin="round" stroke-width="1"/>
        <path id="Path_16017" data-name="Path 16017" d="M225.456,116.376l-3.221-.277.514-4.994,4.01.72c3.861,2.379,1.351,3.85-1.3,4.552" transform="translate(12.911 6.455)" fill="#f4cec6"/>
        <path id="Path_16018" data-name="Path 16018" d="M228.817,123.931l1.835-12.624a9.679,9.679,0,0,0-5.943.262c3.326.412,2.429,3.522.536,4.7,0,0,.38,7.045,3.572,7.657" transform="translate(13.055 6.446)" fill="#153f60"/>
        <path id="Path_16019" data-name="Path 16019" d="M196.243,107.549l-4.4-40.674-17.826,2.094,11.1,40.658a10.985,10.985,0,0,0,4.115,5.973c3.057,3.663,32.091,2.563,36.591,3.355l.953-5.224Z" transform="translate(10.11 3.885)" fill="#326290"/>
        <path id="Path_16020" data-name="Path 16020" d="M182.86,67.637l-2.953,47.4-.054.016,9.433,30.728-5.048,2.341-12.161-24.952c-4.8-6.761-5.353-43.559-6.583-51.756Z" transform="translate(9.615 3.929)" fill="#326290"/>
      </g>
    </g>
    <g id="Group_1942" data-name="Group 1942" transform="translate(175.108 71.566)">
      <g id="Group_1941" data-name="Group 1941" clip-path="url(#clip-path-10)">
        <path id="Path_16021" data-name="Path 16021" d="M187.233,145.479l-.31.141s-11.586-27.423-12.193-29.376S180.7,92.266,180.7,92.266l.97,19.39,9.237,32.158-3.675,1.665" transform="translate(-164.959 -66.206)" fill="#2a557d"/>
      </g>
    </g>
    <g id="Group_1944" data-name="Group 1944">
      <g id="Group_1943" data-name="Group 1943" clip-path="url(#clip-path)">
        <path id="Path_16023" data-name="Path 16023" d="M158.174,48.332,151.248,51.1,133.124,38.559l-2.135,3.97L146.4,58.316a7,7,0,0,0,3.509,1.868c2.821.925,9.942-2.882,12.6-3.628Z" transform="translate(7.61 2.24)" fill="#f4cec6"/>
      </g>
    </g>
    <g id="Group_1946" data-name="Group 1946" transform="translate(138.6 40.799)">
      <g id="Group_1945" data-name="Group 1945" clip-path="url(#clip-path-12)">
        <path id="Path_16024" data-name="Path 16024" d="M151.89,48.978l1.451,12.85,8.641-4.731L155.99,46.535Z" transform="translate(-129.776 -38.096)" fill="#ed9da4"/>
      </g>
    </g>
    <g id="Group_1948" data-name="Group 1948">
      <g id="Group_1947" data-name="Group 1947" clip-path="url(#clip-path)">
        <path id="Path_16026" data-name="Path 16026" d="M173.719,20.279c-.074,4.314-6.491,4.314-6.564,0,.074-4.314,6.491-4.314,6.564,0" transform="translate(9.711 0.99)" fill="#54445a"/>
        <path id="Path_16027" data-name="Path 16027" d="M165.354,22.823c-5.4,2.06-6.058,7.642-1.378,10.929,1.516-1.773,6.221-8.22,1.378-10.929" transform="translate(9.345 1.326)" fill="#54445a"/>
        <path id="Path_16028" data-name="Path 16028" d="M175.253,29.133c1.736,9.751-10.114,12.051-12.152,2.358-1.735-9.751,10.115-12.051,12.152-2.358" transform="translate(9.466 1.331)" fill="#f4cec6"/>
      </g>
    </g>
    <g id="Group_1950" data-name="Group 1950" transform="translate(172.394 24.249)">
      <g id="Group_1949" data-name="Group 1949" clip-path="url(#clip-path-14)">
        <path id="Path_16029" data-name="Path 16029" d="M162.4,28.453c8.856,4.231,13.4-2.237,4.882-7.946-2.043,2.266-4.272,4.875-4.882,7.946" transform="translate(-162.959 -23.058)" fill="#ed9da4"/>
      </g>
    </g>
    <g id="Group_1952" data-name="Group 1952">
      <g id="Group_1951" data-name="Group 1951" clip-path="url(#clip-path)">
        <path id="Path_16031" data-name="Path 16031" d="M174.719,28.334s1.62,11.526,3.48,14.674a14.676,14.676,0,0,1-7.508,1.457s.459-10.2-.434-12.344Z" transform="translate(9.891 1.646)" fill="#f4cec6"/>
        <path id="Path_16032" data-name="Path 16032" d="M170.763,36.852a5.5,5.5,0,0,0,2.717-1.983s.23,3.152-2.7,3.9Z" transform="translate(9.921 2.026)" fill="#ed9da4"/>
        <path id="Path_16033" data-name="Path 16033" d="M164.511,24.941s.378,3.659,4.958,4.166l-1.792-1.743s3.037,2.511,5.525,3.06a3.173,3.173,0,0,1,2.586,2.852c7.327-9.694-10.016-17.221-11.277-8.335" transform="translate(9.558 1.219)" fill="#54445a"/>
        <path id="Path_16034" data-name="Path 16034" d="M195.566,53.241,184.43,42.66a11.243,11.243,0,0,0-12.456-2.471L154.2,48.313l5.542,10.506,5.156-2.111-1.026,20.059c17.442,9.166,31.315-3.993,31.315-3.993l-4.841-15.328Z" transform="translate(8.958 2.282)" fill="#42b9f3"/>
        <path id="Path_16035" data-name="Path 16035" d="M188.894,56.626l-3.736,3.108L179.2,53.405l12.945,19.848,1.587-1.3Z" transform="translate(10.411 3.103)" fill="#3ca0d7"/>
        <path id="Path_16036" data-name="Path 16036" d="M164.5,56.325a59.543,59.543,0,0,1,1.232-9.79,19.67,19.67,0,0,0-6.3,11.862Z" transform="translate(9.263 2.704)" fill="#3ca0d7"/>
        <path id="Path_16037" data-name="Path 16037" d="M168.834,41.243c2.811-2.121,7.83-2.841,10.971-1.13-2.114,1.29-9.065,5.416-10.971,1.13" transform="translate(9.809 2.275)" fill="#f4cec6"/>
        <path id="Path_16038" data-name="Path 16038" d="M133.6,39.176a2.417,2.417,0,0,1-.923-1.348c-.463-1.78-1.577-5.807-2.224-6.1-.834-.38.622,7.957-.269,7.412-.657-.4-1.421-2.034-2.243-2.082s-.416,1.53.271,3.035c.44.965,3.991,3.66,3.991,3.66l2.406-3.844Z" transform="translate(7.406 1.842)" fill="#f4cec6"/>
        <path id="Path_16039" data-name="Path 16039" d="M185.083,146.508l-1.408-2.91,4.554-2.112,1.433,3.814c-.069,4.534-2.618,3.13-4.578,1.207" transform="translate(10.671 8.22)" fill="#f4cec6"/>
        <path id="Path_16040" data-name="Path 16040" d="M178.33,150.935h12.6a1.013,1.013,0,0,0,.932-1.409l-1.887-4.434c.071,3.35-3.136,2.911-4.578,1.207,0,0-6.917,1.39-7.064,4.637" transform="translate(10.36 8.429)" fill="#153f60"/>
        <path id="Path_16041" data-name="Path 16041" d="M225.552,75.693s2.693-.113,3.031-.677-6.076-.948-6.076-.948c-4.082-2.78-27.664-16.661-29.97-20.677l-6.91,5.65,6.783,5.9c5.44,2.1,28.5,13.429,33.693,15.1a4.071,4.071,0,0,0,3.608-1.469c.226-.283-4.16-2.879-4.16-2.879" transform="translate(10.784 3.102)" fill="#f4cec6"/>
      </g>
    </g>
    <g id="Group_1954" data-name="Group 1954" transform="translate(196.412 56.492)">
      <g id="Group_1953" data-name="Group 1953" clip-path="url(#clip-path-16)">
        <path id="Path_16042" data-name="Path 16042" d="M194.334,54.447l-5,9.185-5.551-5.007,8.411-6.543Z" transform="translate(-185.735 -53.466)" fill="#ed9da4"/>
      </g>
    </g>
    <g id="Group_1956" data-name="Group 1956">
      <g id="Group_1955" data-name="Group 1955" clip-path="url(#clip-path)">
        <path id="Path_16044" data-name="Path 16044" d="M176.736,78.1a31.837,31.837,0,0,0,15.555-5.94l.862,7.97s-10.465,2.327-16.417-2.029" transform="translate(10.268 4.192)" fill="#2a557d"/>
        <path id="Path_16045" data-name="Path 16045" d="M140.815,67.516l8.455-8.031-1.827-7.118-8.59,8.159Z" transform="translate(8.067 3.042)" fill="#42b9f3"/>
        <path id="Path_16046" data-name="Path 16046" d="M141.208,67.653l8.455-8.031,7.014,2.19-8.59,8.159Z" transform="translate(8.204 3.464)" fill="#42b9f3"/>
        <rect id="Rectangle_879" data-name="Rectangle 879" width="33.464" height="1.767" transform="matrix(0.725, -0.689, 0.689, 0.725, 132.73, 85.21)" fill="#153f60"/>
      </g>
    </g>
  </g>
</svg>
