<svg id="Group_2584" data-name="Group 2584" xmlns="http://www.w3.org/2000/svg" xmlns:xlink="http://www.w3.org/1999/xlink" width="238.01" height="171.327" viewBox="0 0 238.01 171.327">
  <defs>
    <clipPath id="clip-path">
      <rect id="Rectangle_2587" data-name="Rectangle 2587" width="238.01" height="171.327" fill="none"/>
    </clipPath>
    <clipPath id="clip-path-3">
      <rect id="Rectangle_2584" data-name="Rectangle 2584" width="28.733" height="28.733" transform="translate(75.973 94.8)" fill="none"/>
    </clipPath>
  </defs>
  <g id="Group_2583" data-name="Group 2583" clip-path="url(#clip-path)">
    <g id="Group_2582" data-name="Group 2582">
      <g id="Group_2581" data-name="Group 2581" clip-path="url(#clip-path)">
        <path id="Path_19927" data-name="Path 19927" d="M21.22,170.838s-40.418-34.511-9.693-67.22C44.239,68.794,15.258,24.088,59.662,6.05c48.009-19.5,60.361,14.846,80.459,9.572,40.086-10.52,90.933-5.34,82.473,45.758-10.62,64.142,32.951,55.961,7.073,109.672Z" fill="#dcf3fd"/>
        <path id="Path_19928" data-name="Path 19928" d="M140.121,66.9s6.708-28.433,29.339-31.559a5.578,5.578,0,0,1,5.869,4.308c1.466,4.848-7.288,4.883-12.7,6.834S144.6,56.7,140.121,66.9" fill="#69bbee"/>
        <path id="Path_19929" data-name="Path 19929" d="M139.607,61.579s-2.353-23.551,14.162-31.91a4.52,4.52,0,0,1,5.632,1.754c2.4,3.328-4.3,5.662-7.929,8.582s-11.119,12.579-11.865,21.574" fill="#69bbee"/>
        <path id="Path_19930" data-name="Path 19930" d="M88.718,83.559s9.706-5.436,5.177-12.813c0,0-3.624-4.529-7.507-5.694,0,0,2.071,11,0,11.259s-1.423-12.424-1.423-12.424-10.224-4.918-14.236-4.53c0,0,6.341,10.742,4.27,10.483s-9.188-11.13-9.188-11.13-10.483-1.941-12.166,4.271,1.035,9.318,2.589,9.707,11.518.259,11.259,1.553-6.989,3.365-10.742,2.2c0,0,4.142,10.224,9.577,9.706s7.118-3.882,10.483-4.141,5.824.647,4.142,1.553-7.377.3-10.1,2.607-4.918,3.735.129,4.77,14.107.388,15.919-3.494Z" fill="#69bbee"/>
        <path id="Path_19931" data-name="Path 19931" d="M58.434,64.922s27.178,8.8,30.284,18.637a20.647,20.647,0,0,0,2.589,9.447v1.942s-2.847-6.6-4.4-7.507c0,0,6.083-8.542-28.472-22.519" fill="#69bbee"/>
        <path id="Path_19932" data-name="Path 19932" d="M91.306,93.007a17.927,17.927,0,0,1,1.8,14.112l-1.078-.289S93.076,98.3,90.883,94s.423-1,.423-1" fill="#69bbee"/>
        <path id="Path_19933" data-name="Path 19933" d="M94.11,127.445s6.359-19.05-8.652-23.4c0,0-10.341-1.647-16.941,1.514,0,0,16.129,12.175,13.678,15.036S65.2,105.735,65.2,105.735s-19.627,5.853-24.513,11.245c0,0,21.517,6.641,18.438,8.811s-25.792-3.7-25.792-3.7-16.357,10.143-11.057,20.482,12.7,11.186,15.248,9.818,15.7-13.647,16.922-11.6S49.2,153.769,42.776,156.773c0,0,17.95,8.622,24.58,1.327s4.789-13.831,8.968-18.265,8.563-6.21,7.417-2.957-9.491,9.358-10.313,15.745-2.031,10.961,5.967,6.212,19.309-16.619,17.012-24Z" fill="#69bbee"/>
        <path id="Path_19934" data-name="Path 19934" d="M31.03,139.348s46.984-21.264,63.08-11.9c0,0,5.472,6.709,2.3,7.386,0,0-2.253-18.795-65.377,4.517" fill="#69bbee"/>
        <path id="Path_19935" data-name="Path 19935" d="M163.593,129.48s1.873-11.393,10.673-9.58c0,0,5.7,1.935,8.21,5.312,0,0-11.467,1.867-10.987,3.98s12.627-3,12.627-3,8.413,8.239,9.452,12.291c0,0-12.724-2.391-11.739-.462s14.109,5.032,14.109,5.032,5.6,9.544.132,13.381-9.459,2.283-10.387.9-4.323-11.148-5.495-10.438-.813,8.009,1.65,11.26c0,0-11.441-.428-12.857-5.915s1.273-8.318.336-11.693-2.69-5.455-2.979-3.493,2.318,7.3,1.023,10.773-1.9,6.119-4.7,1.559-5.366-13.628-2.217-16.769Z" fill="#69bbee"/>
        <path id="Path_19936" data-name="Path 19936" d="M192.483,152.445s-18.194-23.41-28.89-22.965a21.425,21.425,0,0,1-10.134.814l-1.9.686s7.448.445,8.881,1.641c0,0,6.185-8.955,32.038,19.824" fill="#69bbee"/>
        <path id="Path_19937" data-name="Path 19937" d="M153.459,130.294a18.605,18.605,0,0,0-14.408,3.23l.664.95s7.957-4.038,12.92-3.415.824-.765.824-.765" fill="#69bbee"/>
        <path id="Path_19938" data-name="Path 19938" d="M160.173,82.295s-11.865-6.644-6.328-15.662c0,0,4.43-5.537,9.176-6.961,0,0-2.532,13.447,0,13.764s1.74-15.187,1.74-15.187,12.5-6.012,17.4-5.537c0,0-7.752,13.13-5.221,12.814s11.232-13.6,11.232-13.6,12.815-2.373,14.871,5.22-1.265,11.391-3.164,11.865-14.08.317-13.763,1.9,8.543,4.113,13.131,2.689c0,0-5.063,12.5-11.707,11.865s-8.7-4.746-12.814-5.062-7.12.791-5.063,1.9,9.017.363,12.34,3.187,6.011,4.565-.159,5.83-17.243.475-19.458-4.271Z" fill="#69bbee"/>
        <path id="Path_19939" data-name="Path 19939" d="M197.192,59.514S163.97,70.272,160.173,82.295a25.238,25.238,0,0,1-3.164,11.548v2.373s3.481-8.068,5.379-9.175c0,0-7.435-10.441,34.8-27.527" fill="#69bbee"/>
        <path id="Path_19940" data-name="Path 19940" d="M157.009,93.844a21.912,21.912,0,0,0-2.2,17.251l1.318-.354s-1.28-10.432,1.4-15.678-.517-1.219-.517-1.219" fill="#69bbee"/>
        <rect id="Rectangle_2563" data-name="Rectangle 2563" width="88.687" height="121.28" transform="translate(80.585 49.394)" fill="#69bbee"/>
        <rect id="Rectangle_2564" data-name="Rectangle 2564" width="81.129" height="114.666" transform="translate(84.364 52.666)" fill="#f1f9ff"/>
        <path id="Path_19941" data-name="Path 19941" d="M108.109,49.394v4.131a4.13,4.13,0,0,0,4.128,4.132h22.17a4.13,4.13,0,0,0,4.127-4.132V49.394Z" fill="#2b5c8b"/>
        <rect id="Rectangle_2565" data-name="Rectangle 2565" width="10.037" height="1.016" transform="translate(93.783 151.101)" fill="#69bbee"/>
        <rect id="Rectangle_2566" data-name="Rectangle 2566" width="10.037" height="1.016" transform="translate(106.145 151.101)" fill="#69bbee"/>
        <rect id="Rectangle_2567" data-name="Rectangle 2567" width="13.921" height="1.016" transform="translate(93.782 153.356)" fill="#69bbee"/>
        <path id="Path_19942" data-name="Path 19942" d="M105.44,66.52h3.674a3.2,3.2,0,0,1,2.342.815,2.542,2.542,0,0,1,.689,1.86,2.5,2.5,0,0,1-1.722,2.492l1.963,2.871h-2.067l-1.745-2.572h-1.366v2.572H105.44Zm3.559,3.9c.861,0,1.355-.459,1.355-1.16,0-.758-.528-1.148-1.389-1.148h-1.757v2.308Z" fill="#69bbee"/>
        <path id="Path_19943" data-name="Path 19943" d="M113.615,71.113V66.52h1.768v4.547c0,1.309.655,1.986,1.734,1.986s1.734-.654,1.734-1.929v-4.6h1.768v4.536c0,2.434-1.366,3.628-3.525,3.628s-3.479-1.206-3.479-3.571" fill="#69bbee"/>
        <path id="Path_19944" data-name="Path 19944" d="M122.422,66.52h1.768v6.43H128.2v1.607h-5.775Z" fill="#69bbee"/>
        <path id="Path_19945" data-name="Path 19945" d="M129.529,66.52h6.062v1.573h-4.305v1.63h3.789V71.3h-3.789v1.687h4.363v1.573h-6.12Z" fill="#69bbee"/>
        <path id="Path_19946" data-name="Path 19946" d="M136.672,73.386l1.045-1.252a3.681,3.681,0,0,0,2.4.976c.723,0,1.159-.287,1.159-.78,0-.448-.275-.678-1.619-1.022-1.619-.414-2.663-.861-2.663-2.48a2.514,2.514,0,0,1,2.813-2.423,4.649,4.649,0,0,1,2.985,1.022l-.919,1.332a3.767,3.767,0,0,0-2.089-.793c-.678,0-1.034.31-1.034.724,0,.528.345.7,1.734,1.056,1.63.425,2.549,1.011,2.549,2.434,0,1.6-1.217,2.492-2.951,2.492a5.114,5.114,0,0,1-3.41-1.286" fill="#69bbee"/>
        <rect id="Rectangle_2568" data-name="Rectangle 2568" width="43.587" height="0.563" transform="translate(102.442 76.452)" fill="#69bbee"/>
        <path id="Path_19947" data-name="Path 19947" d="M157.378,95.276H142.705V80.6h14.673ZM143.4,94.585h13.291V81.294H143.4Z" fill="#a8ccff"/>
        <path id="Path_19948" data-name="Path 19948" d="M150.406,92.327a1.037,1.037,0,0,1-.8-.376l-4.528-5.477a1.037,1.037,0,1,1,1.6-1.321l3.591,4.343,6.5-10.9a1.037,1.037,0,1,1,1.781,1.061L151.3,91.821a1.039,1.039,0,0,1-.811.5l-.08,0" fill="#f07f3c"/>
        <rect id="Rectangle_2569" data-name="Rectangle 2569" width="32.597" height="1.432" transform="translate(98.785 82.769)" fill="#69bbee"/>
        <rect id="Rectangle_2570" data-name="Rectangle 2570" width="30.041" height="1.432" transform="translate(98.785 89.163)" fill="#69bbee"/>
        <rect id="Rectangle_2571" data-name="Rectangle 2571" width="8.886" height="1.432" transform="translate(122.496 85.966)" fill="#69bbee"/>
        <rect id="Rectangle_2572" data-name="Rectangle 2572" width="21.249" height="1.432" transform="translate(98.785 85.966)" fill="#69bbee"/>
        <path id="Path_19949" data-name="Path 19949" d="M91.488,84.049l-1.458.405-.3-1.157,2.176-.695H92.9v8.16H91.488Z" fill="#69bbee"/>
        <path id="Path_19950" data-name="Path 19950" d="M93.833,90.246a.515.515,0,1,1,.515.515.515.515,0,0,1-.515-.515" fill="#69bbee"/>
        <path id="Path_19951" data-name="Path 19951" d="M157.492,117.195H142.819V102.522h14.673ZM143.51,116.5H156.8V103.213H143.51Z" fill="#a8ccff"/>
        <path id="Path_19952" data-name="Path 19952" d="M150.52,114.246a1.037,1.037,0,0,1-.8-.376l-4.528-5.477a1.037,1.037,0,1,1,1.6-1.321l3.591,4.343,6.5-10.9a1.037,1.037,0,1,1,1.781,1.061l-7.248,12.166a1.037,1.037,0,0,1-.811.5l-.08,0" fill="#f07f3c"/>
        <path id="Path_19953" data-name="Path 19953" d="M89.666,111.566l2.77-2.356c1.1-.931,1.505-1.448,1.505-2.172a1.206,1.206,0,0,0-1.3-1.253c-.736,0-1.242.4-1.862,1.207l-1-.782a3.3,3.3,0,0,1,2.965-1.689,2.413,2.413,0,0,1,2.655,2.425c0,1.264-.678,1.942-2.092,3.114l-1.655,1.38h3.827v1.241H89.666Z" fill="#69bbee"/>
        <path id="Path_19954" data-name="Path 19954" d="M96.439,112.169a.511.511,0,1,1,.512.512.512.512,0,0,1-.512-.512" fill="#69bbee"/>
        <rect id="Rectangle_2573" data-name="Rectangle 2573" width="34.253" height="1.432" transform="translate(99.055 104.687)" fill="#69bbee"/>
        <rect id="Rectangle_2574" data-name="Rectangle 2574" width="31.567" height="1.432" transform="translate(99.056 111.082)" fill="#69bbee"/>
        <rect id="Rectangle_2575" data-name="Rectangle 2575" width="9.337" height="1.432" transform="translate(123.971 107.885)" fill="#69bbee"/>
        <rect id="Rectangle_2576" data-name="Rectangle 2576" width="22.329" height="1.432" transform="translate(99.055 107.885)" fill="#69bbee"/>
        <path id="Path_19955" data-name="Path 19955" d="M157.492,139.276H142.819V124.6h14.673Zm-13.982-.691H156.8V125.294H143.51Z" fill="#a8ccff"/>
        <path id="Path_19956" data-name="Path 19956" d="M150.52,136.327a1.037,1.037,0,0,1-.8-.376l-4.528-5.477a1.037,1.037,0,1,1,1.6-1.321l3.591,4.343,6.5-10.9a1.037,1.037,0,1,1,1.781,1.061l-7.248,12.166a1.037,1.037,0,0,1-.811.5l-.08,0" fill="#f07f3c"/>
        <rect id="Rectangle_2577" data-name="Rectangle 2577" width="34.253" height="1.432" transform="translate(99.055 126.768)" fill="#69bbee"/>
        <rect id="Rectangle_2578" data-name="Rectangle 2578" width="31.567" height="1.432" transform="translate(99.056 133.162)" fill="#69bbee"/>
        <rect id="Rectangle_2579" data-name="Rectangle 2579" width="9.337" height="1.432" transform="translate(123.971 129.965)" fill="#69bbee"/>
        <rect id="Rectangle_2580" data-name="Rectangle 2580" width="22.329" height="1.432" transform="translate(99.055 129.965)" fill="#69bbee"/>
        <path id="Path_19957" data-name="Path 19957" d="M89.564,133.3l.967-.9a2.566,2.566,0,0,0,2.069,1.035,1.236,1.236,0,0,0,1.361-1.215c0-.776-.708-1.214-1.81-1.214H91.51l-.225-.866,2.125-2.261H90v-1.2H95.21v1.035l-2.193,2.249c1.248.18,2.316.821,2.316,2.238a2.518,2.518,0,0,1-2.755,2.485,3.731,3.731,0,0,1-3.014-1.383" fill="#69bbee"/>
        <path id="Path_19958" data-name="Path 19958" d="M95.73,134.184a.5.5,0,1,1,.5.5.5.5,0,0,1-.5-.5" fill="#69bbee"/>
        <path id="Path_19959" data-name="Path 19959" d="M130.9,154.346a6.241,6.241,0,0,1-6.1-4.97.426.426,0,0,1,.835-.17,5.372,5.372,0,0,0,10.513.05.426.426,0,0,1,.834.179,6.254,6.254,0,0,1-6.085,4.911" fill="#69bbee"/>
        <path id="Path_19960" data-name="Path 19960" d="M125.21,147.44a.386.386,0,0,1-.082-.008.425.425,0,0,1-.337-.5,6.225,6.225,0,0,1,12.146-.331.426.426,0,1,1-.827.208,5.372,5.372,0,0,0-10.482.285.426.426,0,0,1-.418.345" fill="#69bbee"/>
        <path id="Path_19961" data-name="Path 19961" d="M130.9,156.97a8.847,8.847,0,1,1,8.847-8.847,8.857,8.857,0,0,1-8.847,8.847m0-16.482a7.635,7.635,0,1,0,7.635,7.635,7.644,7.644,0,0,0-7.635-7.635" fill="#69bbee"/>
        <rect id="Rectangle_2581" data-name="Rectangle 2581" width="3.504" height="0.561" transform="translate(129.149 147.014)" fill="#69bbee"/>
        <rect id="Rectangle_2582" data-name="Rectangle 2582" width="3.504" height="0.561" transform="translate(129.149 149.309)" fill="#69bbee"/>
        <rect id="Rectangle_2583" data-name="Rectangle 2583" width="5.157" height="0.561" transform="translate(128.323 148.122)" fill="#69bbee"/>
        <path id="Path_19962" data-name="Path 19962" d="M73.507,110.08s.276-.62.454-.913.941-1.154,1.071-.959.649,1.5.373,1.872.018,1-1.354,1.392Z" fill="#ffae73"/>
        <path id="Path_19963" data-name="Path 19963" d="M58.265,106.167s7.021,5.861,9.759,5.318a53.862,53.862,0,0,0,5.426-1.551l.657,1.681s-2.946,4-6.018,4.023a17.5,17.5,0,0,1-8.35-2.079Z" fill="#3ca0d7"/>
        <path id="Path_19964" data-name="Path 19964" d="M45.951,167.986s.2,3.288.84,3.335c.085.006,3.226.006,3.226.006l4.011-.023a1.3,1.3,0,0,0-1.2-1.171,5.435,5.435,0,0,1-3.844-2.577c-.747-1.63-3.034.43-3.034.43" fill="#074a92"/>
        <path id="Path_19965" data-name="Path 19965" d="M45.72,168.214a8.358,8.358,0,0,0,2.171.408,7.978,7.978,0,0,0,2.027-.289,55.409,55.409,0,0,1,1.492-7.111c.663-2.563,1.608-5.86,2.954-9.955A134.691,134.691,0,0,0,59.318,132.7c.006-.033.008-.05.008-.05l-.012-.005-11.437-5.022s1.414,15.6-.39,21.589a25.226,25.226,0,0,0-.654,2.869,115.005,115.005,0,0,0-1.113,16.134" fill="#1c468a"/>
        <path id="Path_19966" data-name="Path 19966" d="M51.41,161.222c.662-2.563,1.608-5.86,2.953-9.955A134.8,134.8,0,0,0,59.318,132.7a.488.488,0,0,0-.005-.055l-11.436-5.022s1.413,15.6-.39,21.589c-.253.837,3.923,12.011,3.923,12.011" fill="#163560"/>
        <path id="Path_19967" data-name="Path 19967" d="M54.884,167.986s.2,3.288.84,3.335c.085.006,3.226.006,3.226.006l4.011-.023a1.3,1.3,0,0,0-1.2-1.171,5.435,5.435,0,0,1-3.844-2.577c-.748-1.63-3.034.43-3.034.43" fill="#074a92"/>
        <path id="Path_19968" data-name="Path 19968" d="M61.368,127.99a162.705,162.705,0,0,1-1.6,22.522c-1.749,12.412-1.156,17.681-1.156,17.681a11.963,11.963,0,0,1-1.686.429,7.64,7.64,0,0,1-2.5-.29s-2.5-12.417-1.786-18.629-3.428-21.319-3.428-21.319Z" fill="#1c468a"/>
        <path id="Path_19969" data-name="Path 19969" d="M53.258,104.333,55.49,105.8l2.034-.575A4.861,4.861,0,0,0,58,102.784a15.285,15.285,0,0,0-.08-1.624l-3.012-1.329-1.124-.5c0,.017.087.922.1,1.055a7.689,7.689,0,0,1-.625,3.942" fill="#ffae73"/>
        <path id="Path_19970" data-name="Path 19970" d="M61.419,130.8c-2.779,2.683-13.295,2.232-13.943-.724s.707-25.164,5.453-26.559c.985-.289,6.251,1.413,6.251,1.413a33.434,33.434,0,0,1,1.368,4.914c.1.535.412,6.21.642,11.519.107,2.483.2,4.887.244,6.647a19.051,19.051,0,0,1-.015,2.79" fill="#69bbee"/>
        <path id="Path_19971" data-name="Path 19971" d="M54.109,100.432c.611,1.033,2.755,1.937,3.891,2.352a15.285,15.285,0,0,0-.08-1.624l-3.012-1.329c-.666-.009-1.071.14-.8.6" fill="#ffa05e"/>
        <path id="Path_19972" data-name="Path 19972" d="M59.056,100.976s-4.853,1.515-5.749-1.523-2.127-4.886.934-5.981,4.008-.115,4.553.827,1.5,6.206.262,6.677" fill="#ffae73"/>
        <path id="Path_19973" data-name="Path 19973" d="M58.6,94.006s-.31,3.534-1.04,3.38-1.536-.481-1.429.584-.71,2.891-1.764,2.887c-2.26-.009-4.716-5.809-4.1-6.909,1.785-3.173,10.91-3.813,8.33.058" fill="#0b3563"/>
        <path id="Path_19974" data-name="Path 19974" d="M57.89,103.594c-.063-.026-3.613-1.619-4.028-1.482s-.933,1.4-.933,1.4l6.252,1.414a3.1,3.1,0,0,0-1.291-1.337" fill="#3ca0d7"/>
        <path id="Path_19975" data-name="Path 19975" d="M79.992,120.793l-19.9,18.737c-.39.367-.882.484-1.093.26l-.672-.714c-.211-.224-.065-.708.325-1.075l19.9-18.737c.391-.367.882-.484,1.094-.26l.671.713c.211.225.065.709-.325,1.076" fill="#0b4d87"/>
        <path id="Path_19976" data-name="Path 19976" d="M68.824,131.308l-8.733,8.222c-.39.367-.882.484-1.093.26l-.672-.713c-.211-.225-.065-.709.325-1.076l8.733-8.222Z" fill="#69bbee"/>
        <path id="Path_19977" data-name="Path 19977" d="M75.418,113.718a15.6,15.6,0,1,0,25.853-15.675c-.079-.08-.161-.159-.244-.236a15.6,15.6,0,0,0-25.609,15.911m4.458-14.4a14.368,14.368,0,1,1,.619,20.309,14.349,14.349,0,0,1-.619-20.309" fill="#0b4d87"/>
        <g id="Group_2580" data-name="Group 2580" opacity="0.5">
          <g id="Group_2579" data-name="Group 2579">
            <g id="Group_2578" data-name="Group 2578" clip-path="url(#clip-path-3)">
              <path id="Path_19978" data-name="Path 19978" d="M100.8,119.011a14.367,14.367,0,1,1-.619-20.308,14.3,14.3,0,0,1,.619,20.308" fill="#accefc"/>
            </g>
          </g>
        </g>
        <path id="Path_19979" data-name="Path 19979" d="M61.435,128.01c-10.966-7.814-10.054-18.241-10.054-18.241,4.008,2.261,7.985,7.259,9.81,11.594.107,2.484.2,4.887.244,6.647" fill="#3ca0d7"/>
        <path id="Path_19980" data-name="Path 19980" d="M72.257,124.452a2.992,2.992,0,0,0,1.4-.865s.33.022-.054.726c-.032.059-.1.21-.157.317a.069.069,0,0,0,.058.1,7.306,7.306,0,0,1,1.754.036c.119.025.153.309.149.43a1.1,1.1,0,0,1-.231.749,3.823,3.823,0,0,1-1.386.726,4.2,4.2,0,0,1-2.144-.269l-.7-.325.218-1.305.176.037c.28.059.627-.283.919-.355" fill="#ffae73"/>
        <path id="Path_19981" data-name="Path 19981" d="M54.784,104.931s-9.853,1.876,2.9,16.144c2.039,2.282,13.058,5.253,13.058,5.253s1.117-.951.554-1.72c0,0-7.587-5.51-9.256-6.385-.751-.394-2.914-8.793-4.138-10.816a5.521,5.521,0,0,0-3.117-2.476" fill="#69bbee"/>
        <path id="Path_19982" data-name="Path 19982" d="M73.774,110.253a5.029,5.029,0,0,0,.385-.941,5.207,5.207,0,0,1,.636-1.439c.067-.067.288.02.314.307a1.667,1.667,0,0,1-.159.623,7.011,7.011,0,0,0-.208,1.238c-.153.5-.968.212-.968.212" fill="#ffae73"/>
        <path id="Path_19983" data-name="Path 19983" d="M106.316,166.674a3.847,3.847,0,0,0,.031.5,4.061,4.061,0,0,0,4.034,3.57h57.167a4.065,4.065,0,1,0,0-8.131H110.381a4.065,4.065,0,0,0-4.065,4.066" fill="#2b5c8b"/>
        <path id="Path_19984" data-name="Path 19984" d="M110.676,161.873h19.6a.624.624,0,1,0,0-1.248h-19.6a.624.624,0,1,0,0,1.248" fill="#2b5c8b"/>
        <rect id="Rectangle_2585" data-name="Rectangle 2585" width="2.125" height="0.736" transform="translate(111.759 161.872)" fill="#234662"/>
        <path id="Path_19985" data-name="Path 19985" d="M106.809,168.618a4.072,4.072,0,0,0,3.571,2.12h12.11v-2.12Z" fill="#234662"/>
        <path id="Path_19986" data-name="Path 19986" d="M179.181,165.483v2.381a2.871,2.871,0,0,1-2.873,2.875H116.757a2.871,2.871,0,0,1-2.873-2.875v-2.381a2.874,2.874,0,0,1,2.873-2.875h59.551a2.874,2.874,0,0,1,2.873,2.875" fill="#1c468a"/>
        <path id="Path_19987" data-name="Path 19987" d="M179.081,168.618a2.873,2.873,0,0,1-2.773,2.12h-59.55a2.874,2.874,0,0,1-2.774-2.12Z" fill="#163560"/>
        <path id="Path_19988" data-name="Path 19988" d="M173.267,166.688a4.521,4.521,0,0,0,1.182,3.139l.049.049a2.884,2.884,0,0,0,2.04.891c1.205,0,4.193-1.819,6.045-3.026.923-.6,1.564-1.053,1.564-1.053s-.641-.45-1.564-1.052c-1.852-1.209-4.84-3.028-6.045-3.028a2.69,2.69,0,0,0-1,.194,3.269,3.269,0,0,0-1.378,1.087,4.484,4.484,0,0,0-.828,1.99.232.232,0,0,0,0,.026,5,5,0,0,0-.061.783" fill="#69bbee"/>
        <path id="Path_19989" data-name="Path 19989" d="M173.267,166.688a4.521,4.521,0,0,0,1.182,3.139l9.166-3.153-10.287-.769a5,5,0,0,0-.061.783" fill="#3ca0d7"/>
        <path id="Path_19990" data-name="Path 19990" d="M174.158,163.89l9.143,2.5-7.765-3.585a3.285,3.285,0,0,0-1.378,1.088" fill="#9cafff"/>
        <path id="Path_19991" data-name="Path 19991" d="M181.986,166.688a1.129,1.129,0,0,0,.6,1.053c.922-.6,1.563-1.053,1.563-1.053s-.641-.45-1.563-1.052a1.124,1.124,0,0,0-.6,1.052" fill="#122d4e"/>
        <path id="Path_19992" data-name="Path 19992" d="M198.2,92.369a3.449,3.449,0,0,0-2.728-.292c-4.633-.544-5.985,4.86-5.922,6.719s.275,3.856-1.794,6.272c-5.977,6.977,6.541,7.285,6.541,7.285.105-5.575,6.788-3.541,6.5-2.976,8.566,2.056.852-15.221-2.592-17.008" fill="#0b3563"/>
        <path id="Path_19993" data-name="Path 19993" d="M180.329,114.493s-.815-1.24-1.472-1.265-1.872-.365-1.775-.121.851.267.924.413-1.119.365-1.459.389-1.143,0-1.119.171a3.868,3.868,0,0,0,2.45.778,6.811,6.811,0,0,1,2.244.292Z" fill="#ffae73"/>
        <path id="Path_19994" data-name="Path 19994" d="M192.113,114.895a12.246,12.246,0,0,1-1.246,1.885,7.3,7.3,0,0,1-4.336,2.89,4.66,4.66,0,0,1-2.576-.418h0a11.743,11.743,0,0,1-3.988-3.334,1.873,1.873,0,0,1,.255-1.837s4.6,1.034,5.035.815,3.13-6.19,3.614-7.185a5.452,5.452,0,0,1,2.666-2.72Z" fill="#1c468a"/>
        <path id="Path_19995" data-name="Path 19995" d="M190.867,116.78a7.289,7.289,0,0,1-4.336,2.89,4.646,4.646,0,0,1-2.575-.418c.089.012,2.362.293,3.268-1.329.925-1.654,1.925-4.281,3.3-3.4.592.378.566,1.317.345,2.262" fill="#163560"/>
        <path id="Path_19996" data-name="Path 19996" d="M209.263,164.516s1.4,1.28,1.129,2.19-1.54,1.516-1.711,2.627-.855,1.718-1.471,1.718h-2.936s-.453-.782.642-1.018,1.507-1.542,1.439-2.755a21.232,21.232,0,0,1,.1-2.829l2.326-.539Z" fill="#074a92"/>
        <path id="Path_19997" data-name="Path 19997" d="M197.391,165.06s.5,5.423-.111,5.726l-7.881-.016s0-.91,1.265-1.112,3.49-.943,3.866-2.594,2.861-2,2.861-2" fill="#074a92"/>
        <path id="Path_19998" data-name="Path 19998" d="M203.454,111.237a31.782,31.782,0,0,1,0,3.643c-.078,1.317-1.41,3.081-1.6,3.517-.474,1.095-1.01,1.273-1.01,1.273l-4.138,1.014-1.453.356-4.59-1.37s-2.089-5.833-1.25-9.117a25.284,25.284,0,0,1,2.122-5.564s3.11-1.227,8.619-.31Z" fill="#1c468a"/>
        <path id="Path_19999" data-name="Path 19999" d="M202.242,115.417a12.878,12.878,0,0,1-.388,2.98c-.475,1.094-1.009,1.273-1.009,1.273l-4.138,1.014-1.8-.529s6-.909,5.335-6.07Z" fill="#f8caa4"/>
        <path id="Path_20000" data-name="Path 20000" d="M190.956,120.555s-2.272,7.072-2.418,9.48,4.343,34.207,4.524,35.316c.17,1.046,1.469,1.713,1.469,1.713a1.968,1.968,0,0,0,1.45.112,3.585,3.585,0,0,0,1.556-.734s1.769-22.679.674-30.78a128.376,128.376,0,0,1-1.107-15.107Z" fill="#3ca0d7"/>
        <path id="Path_20001" data-name="Path 20001" d="M200.582,120.344s3.466,4.65,3.789,7.794.507,14.186,1.195,17.251,3.218,8.962,3.218,18.521a1.909,1.909,0,0,1-1.075.839,8.755,8.755,0,0,1-.945.262,1.486,1.486,0,0,1-1.661-.789c-1.71-3.443-7.157-14.547-7.436-16.852-.2-1.631-1.918-12.427-5.669-18.761-.9-1.521.552-7.569.552-7.569Z" fill="#69bbee"/>
        <path id="Path_20002" data-name="Path 20002" d="M190.593,119.463a4.762,4.762,0,0,0,2.724.759c2.165.043,7.528-.553,7.528-.553a4.456,4.456,0,0,1,.229,1.369s-6.551,1.652-10.346.241a2.4,2.4,0,0,1-.135-1.816" fill="#234662"/>
        <path id="Path_20003" data-name="Path 20003" d="M192.8,122.086a1.126,1.126,0,1,1,.988-1.118,1.06,1.06,0,0,1-.988,1.118m0-1.908a.8.8,0,1,0,.66.79.735.735,0,0,0-.66-.79" fill="#fff"/>
        <path id="Path_20004" data-name="Path 20004" d="M207.2,121.349l-5.319,4.632a.924.924,0,0,1-1.3-.09l-6.787-7.795a.922.922,0,0,1,.09-1.3l5.319-4.631a.922.922,0,0,1,1.3.09l6.787,7.794a.923.923,0,0,1-.09,1.3" fill="#2b5c8b"/>
        <path id="Path_20005" data-name="Path 20005" d="M199.331,120.764c-.076.02-2.825.343-2.826.911a1.71,1.71,0,0,0,1.566,1.5,9.029,9.029,0,0,0,1.726-1.321Z" fill="#ffae73"/>
        <path id="Path_20006" data-name="Path 20006" d="M197.919,104.378a9.155,9.155,0,0,1-.49-3.345l-.208.041-3.493.692s.079,1.1.082,2.135v.025c0,.9-.608,1.8.835,2.159.446.11,3.931-.113,3.274-1.707" fill="#ffae73"/>
        <path id="Path_20007" data-name="Path 20007" d="M193.728,101.765s.079,1.1.082,2.135c1.955-.055,2.988-1.837,3.411-2.826Z" fill="#f48f4e"/>
        <path id="Path_20008" data-name="Path 20008" d="M193.075,102.746s4.625.076,4.628-2.8.6-4.812-2.351-4.982-3.527.928-3.762,1.889.282,5.8,1.485,5.9" fill="#ffae73"/>
        <path id="Path_20009" data-name="Path 20009" d="M193.246,94.889s1.266,3.38,3.21,3.879a3.824,3.824,0,0,0,2.786-.021,5.5,5.5,0,0,1-1.8-3.251s-3.241-2.216-4.2-.607" fill="#0b3563"/>
        <path id="Path_20010" data-name="Path 20010" d="M193.56,95.164a2.866,2.866,0,0,0-1.325,1.036,4.658,4.658,0,0,0-.626,2.644s-.954-2.3.119-3.6c1.136-1.378,1.832-.084,1.832-.084" fill="#0b3563"/>
        <path id="Path_20011" data-name="Path 20011" d="M199.331,120.764a3.135,3.135,0,0,0-1.1-.15c-.441.062-.767-.009-.767.115s.569.18.69.24a6.007,6.007,0,0,0,1.176-.205" fill="#ffae73"/>
        <path id="Path_20012" data-name="Path 20012" d="M200.153,104.679a5.6,5.6,0,0,1,4.541,3.289c1.259,3.06,3.646,8.2,3.646,9.06s-1.333,3.528-8.5,5.059c0,0-.741-.779-.7-1.4,0,0,4.471-3.84,4.459-4.289-.023-.849-.733-1.97-4.659-5.9-1.067-1.067,1.205-5.826,1.205-5.826" fill="#1c468a"/>
        <path id="Path_20013" data-name="Path 20013" d="M89.044,13.733a6.4,6.4,0,0,0-4.3.816c-1.669,1.262-1.937.854-2.879,1.633s.022,1.707-.5,2.227A1.064,1.064,0,0,0,81.6,20.19c.771.259.251,1.67,1.921,1.855s.922.959,2.505,1.076a13.949,13.949,0,0,1,3.729.522A1.318,1.318,0,0,0,91.58,23c.239-.635.907.184,1.1-.685s-.5-1.212-.111-1.917,1.353-5.715-3.526-6.661" fill="#234662"/>
        <path id="Path_20014" data-name="Path 20014" d="M93.6,64.286a.65.65,0,0,0-.111.7l0,0a4.321,4.321,0,0,0,1.377,1.49c.083.066.156.125.221.181l.049.044.038.034c.6.549.38.678,1.467,1.794,1.239,1.271,2.087,1.289,2.327,1.17.2-.1-.216-.777-.68-1.537-.023-.036-.045-.074-.068-.111-.062-.1-.123-.2-.185-.305-.544-.915-.409-1.347-.291-2.715.1-1.111,1.684-6.218,1.684-6.218l-2.361-.39s-.681,4.063-1.459,4.693c-.416.336-.885.344-1.285.593l-.083.054a3.07,3.07,0,0,0-.642.523" fill="#ffae73"/>
        <path id="Path_20015" data-name="Path 20015" d="M93.6,64.286a.65.65,0,0,0-.111.7l0,0a5.011,5.011,0,0,0,1.379,1.485c.082.067.154.128.219.186l.049.044.038.034c.6.549.38.678,1.467,1.794,1.239,1.271,2.087,1.289,2.327,1.17.2-.1-.216-.777-.68-1.537a5.243,5.243,0,0,1-2.205-1.6c-.748-.94-1.251-2.151-1.76-2.852l-.083.054a3.07,3.07,0,0,0-.642.523" fill="#234662"/>
        <path id="Path_20016" data-name="Path 20016" d="M112.605,62.679c.151.727,1.187.6,2.345.307s.884.047,2.532-.147,2.144-.813,2.193-1.059c.044-.218-.772-.289-1.647-.384-.11-.011-.221-.024-.331-.037a7.142,7.142,0,0,1-2.617-1.266,10.478,10.478,0,0,1-2.134-2.5l-2.262.195s1.2,1.795,1.665,2.576a2.73,2.73,0,0,1,.233,1.54,2.911,2.911,0,0,0,.023.774" fill="#ffae73"/>
        <path id="Path_20017" data-name="Path 20017" d="M114.949,62.985c1.157-.291.884.047,2.533-.147s2.144-.813,2.192-1.059c.044-.218-.772-.289-1.647-.383l-.008.017a4.659,4.659,0,0,1-2.358.751c-1.119.035-2.307-.278-3.08-.26a2.954,2.954,0,0,0,.023.774c.151.727,1.188.6,2.345.307" fill="#234662"/>
        <path id="Path_20018" data-name="Path 20018" d="M103.831,48.272l-2.075,5.707L99.047,61.43a4.489,4.489,0,0,1-1.468-.124,6.346,6.346,0,0,1-1.424-.681s.711-7.985,2.109-12.575a8.153,8.153,0,0,1,1.212-2.671c2.2-2.636,4.355,2.893,4.355,2.893" fill="#163560"/>
        <path id="Path_20019" data-name="Path 20019" d="M101.617,39.248c-1.389-.437-5.337.165-9.3.97l-.841-1.365-8.58-.61s-2.686,5.944-1.208,10.283c.287.842,1.661.872,1.661.872s5.026.055,6.684.043c4.264-.03,9.005-3,9.62-3.122,1.006-.209,1.424,1.8,2.447,3.914s9.542,9.308,9.542,9.308a7.423,7.423,0,0,0,1.837-.2,1.806,1.806,0,0,0,.787-.5s-9.515-18.6-12.647-19.587" fill="#1c468a"/>
        <path id="Path_20020" data-name="Path 20020" d="M88.771,25.63a4.034,4.034,0,0,1-2.516.1,4.481,4.481,0,0,1-1.675-1.979c.433-.023.907-.406,1.256-2.9l.185.065,3.114,1.1s-.218,1-.357,1.947c-.117.8-.177,1.562-.007,1.673" fill="#ffae73"/>
        <path id="Path_20021" data-name="Path 20021" d="M89.135,22.01s-.133.7-.317,1.7a3.627,3.627,0,0,1-2.8-2.8Z" fill="#f9924f"/>
        <path id="Path_20022" data-name="Path 20022" d="M89.6,23s-4.253-.539-3.876-3.183.082-4.494,2.814-4.26,3.114,1.316,3.2,2.23S90.72,23.068,89.6,23" fill="#ffae73"/>
        <path id="Path_20023" data-name="Path 20023" d="M91.58,16.335s-2.7,2.363-4.553,2.565a3.546,3.546,0,0,1-2.553-.387,7.224,7.224,0,0,0,1.73-2.379,1.3,1.3,0,0,1,1.067-.774c1.321-.124,3.825-.193,4.309.975" fill="#234662"/>
        <path id="Path_20024" data-name="Path 20024" d="M89.878,16.137a6.685,6.685,0,0,1,1.207,1.524,5.143,5.143,0,0,1,.159,2.733s1.4-2.767.586-4.1a1.133,1.133,0,0,0-1.952-.157" fill="#234662"/>
        <path id="Path_20025" data-name="Path 20025" d="M92.393,31.865c-.068,8.6.013,6.8-.922,7.627a3.614,3.614,0,0,1-1.7.381c-2.636.194-7.275-.208-7.455-.694-.621-1.682-.195-2.209-.721-4.788-.054-.274-.122-.571-.2-.894-.436-1.77-.852-2.371.629-5.231a22.246,22.246,0,0,1,2.871-4.62c3.607,2.107,3.885.313,3.885.313s3.648,3.71,3.615,7.906" fill="#69bbee"/>
        <path id="Path_20026" data-name="Path 20026" d="M101.756,53.978l-2.709,7.451a4.458,4.458,0,0,1-1.468-.124,6.363,6.363,0,0,1-1.424-.68s.711-7.985,2.109-12.576Z" fill="#1c468a"/>
        <path id="Path_20027" data-name="Path 20027" d="M88.778,23.958s3.7.6,4.146,2.189S95.99,37.073,95.99,37.073s-1.877.351-2.751-.511-3.078-8.032-3.078-8.032Z" fill="#69bbee"/>
        <path id="Path_20028" data-name="Path 20028" d="M89.771,39.873c-2.636.194-7.276-.208-7.456-.694-.62-1.683-.194-2.21-.72-4.788L82.842,30.8s-.182,3.99,1,5.031,4.831,1.991,5.409,2.864a3.221,3.221,0,0,1,.518,1.178" fill="#3ca0d7"/>
        <path id="Path_20029" data-name="Path 20029" d="M86.737,38.216s2.6-.6,3.02-.37A6.125,6.125,0,0,1,91.341,39.2c.13.291-.937-.216-1.283-.306a3.053,3.053,0,0,0-1.1.25,3.667,3.667,0,0,1-1.979.212Z" fill="#ffae73"/>
        <path id="Path_20030" data-name="Path 20030" d="M84.891,23.644s-3.492.24-4.69,1.935c-1.686,2.387-4.992,12.531-3.047,13.867,2.191,1.505,9.924.328,9.924.328a3.148,3.148,0,0,0-.113-1.786c-.363-.58-6.194-1.48-6.465-1.747s3.324-5.266,3.318-6.072,1.073-6.525,1.073-6.525" fill="#69bbee"/>
        <path id="Path_20031" data-name="Path 20031" d="M89.887,38.57a5.021,5.021,0,0,0,.73.782.528.528,0,0,0,.294.061l-.372-.659Z" fill="#ffae73"/>
        <path id="Path_20032" data-name="Path 20032" d="M89.756,37.846l1.591.759a.287.287,0,0,1-.262.1,3.805,3.805,0,0,1-.689-.184Z" fill="#ffae73"/>
        <path id="Path_20033" data-name="Path 20033" d="M90.278,40.487l12.539-.088,3.706-9.407L94,31.08Z" fill="#234662"/>
        <path id="Path_20034" data-name="Path 20034" d="M102.961,40.032,86.4,40.149l0,.365,16.411-.116Z" fill="#234662"/>
        <path id="Path_20035" data-name="Path 20035" d="M99.618,35.731a.435.435,0,0,0-.43-.594.855.855,0,0,0-.764.6.434.434,0,0,0,.43.594.855.855,0,0,0,.764-.6" fill="#dcf3fd"/>
        <path id="Path_20036" data-name="Path 20036" d="M26.5,170.709h9.15c.491-.416-.339-1.361-1.206-1.424a5.358,5.358,0,0,0-1.4.165c-.126-1.672-.846-9.191-3.556-8.888-3.047.338,0,3.311.862,5.07a42.069,42.069,0,0,1,1.619,4.056c-.248.053-.5.106-.765.154-.4-1.24-1.907-5.411-3.818-5.168-2.244.284-1.342,1.957.248,2.949,1.167.73,2.6,1.768,3.281,2.269a9.671,9.671,0,0,1-1.79.144,3.862,3.862,0,0,0-2.629.673" fill="#9bd399"/>
        <path id="Path_20037" data-name="Path 20037" d="M224.54,170.688H214.416c-.542-.46.376-1.505,1.335-1.575a5.894,5.894,0,0,1,1.545.182c.139-1.85.935-10.168,3.933-9.834,3.371.374,0,3.663-.953,5.61a46.314,46.314,0,0,0-1.791,4.487c.274.059.557.118.847.171.446-1.372,2.109-5.987,4.223-5.718,2.483.315,1.485,2.165-.274,3.263-1.291.808-2.877,1.956-3.63,2.511a10.744,10.744,0,0,0,1.98.158,4.268,4.268,0,0,1,2.909.745" fill="#9bd399"/>
      </g>
    </g>
  </g>
</svg>
