<svg id="Group_1960" data-name="Group 1960" xmlns="http://www.w3.org/2000/svg" xmlns:xlink="http://www.w3.org/1999/xlink" width="253.515" height="175.926" viewBox="0 0 253.515 175.926">
  <defs>
    <clipPath id="clip-path">
      <rect id="Rectangle_888" data-name="Rectangle 888" width="253.515" height="175.926" fill="none"/>
    </clipPath>
  </defs>
  <g id="Group_1959" data-name="Group 1959" clip-path="url(#clip-path)">
    <path id="Path_16047" data-name="Path 16047" d="M7.268,175.926s-28.65-78.531,27.816-78.531c29.835,0,17.544-21.547,37.828-46.482s91.221-44.858,106.319,3.293-22.215,84.712,13.84,78.44c43.328-7.536,60.444,43.28,60.444,43.28Z" fill="#dcf3fd"/>
    <rect id="Rectangle_882" data-name="Rectangle 882" width="52.682" height="11.896" transform="translate(38.023 162.861)" fill="#4a92cb"/>
    <rect id="Rectangle_883" data-name="Rectangle 883" width="52.682" height="11.897" transform="translate(21.779 162.86)" fill="#69bbee"/>
    <rect id="Rectangle_884" data-name="Rectangle 884" width="39.228" height="54.83" transform="translate(111.43 119.924)" fill="#4a92cb"/>
    <rect id="Rectangle_885" data-name="Rectangle 885" width="39.228" height="54.83" transform="translate(99.334 119.924)" fill="#69bbee"/>
    <path id="Path_16048" data-name="Path 16048" d="M138.562,119.924l12.095,8.233v-8.233Z" fill="#428cbc"/>
    <path id="Path_16049" data-name="Path 16049" d="M173.563,42.515c-.606-.092-2.434,1.6-2.434,1.6-3.9.451-9.607,1.487-11.66,1.883-1.457.28-5.372-1.055-9.2-2.587-4.549-1.824-8.969-3.927-8.969-3.927-2.524-.129-5.39,4.476-.272,7.4a38.729,38.729,0,0,0,7.1,1.907h0c4.663.961,10.173,1.795,12.048,1.5,2.179-.34,8.345-2.6,12.013-4.324l.009,0,.041-.019a4.493,4.493,0,0,1,1.717-.468,3.837,3.837,0,0,0,2.265-1.552c.047-.336-2.054-1.318-2.661-1.41" fill="#ed8b5d"/>
    <path id="Path_16050" data-name="Path 16050" d="M168.8,100.525l-2.148.437s-9.832-11.047-11.349-15.7c-.812-2.484-6-3.558-11.427-4.96-4.722-1.221-9.62-2.691-11.96-5.561C126.887,68.579,135.073,61,135.073,61s8.7,5.173,16.213,10.518c5.249,3.735,9.914,7.553,10.617,9.747,1.707,5.337,5.327,15.481,6.9,19.257" fill="#2b5c8b"/>
    <path id="Path_16051" data-name="Path 16051" d="M165.923,104.169h1.209c.4-.064.7-.181,1.118-.235a1.122,1.122,0,0,1,.979.235l.011.012h5.134c.129-.184.005-.611-.116-.926a.734.734,0,0,0-.481-.439,5.543,5.543,0,0,1-2.6-1.188c-.552-.5-2.67-1.837-2.67-1.837l-.011,0c-.047,0-.268.069-1.231.882-.5.42-1.346-.592-1.346-.592a1.2,1.2,0,0,0-.278.377,1.273,1.273,0,0,0-.111.788,5.092,5.092,0,0,1-.368,1.9c-.119.352-.22.6-.22.6s-.058.29.982.42" fill="#234662"/>
    <path id="Path_16052" data-name="Path 16052" d="M151.286,71.521l-7.412,8.785c-4.721-1.22-9.62-2.691-11.959-5.561C126.886,68.58,135.073,61,135.073,61s8.7,5.174,16.213,10.518" fill="#1e4f70"/>
    <path id="Path_16053" data-name="Path 16053" d="M144.551,66.932s-.6,1.884-1.57,4.719c-1.23,3.584-3.062,8.688-5.05,13.421-.436,1.04-.881,2.063-1.328,3.047-1.653,3.642-3.344,6.764-4.834,8.351-2.676,2.852-9.183,21.19-9.183,21.19l-1.621-.449s-2.26-15.658,5.747-24.568a.565.565,0,0,0,.162-.333v0c.107-1.319.488-7.226,1.317-13.211.2-1.468.434-2.94.694-4.351.016-.09.033-.179.049-.268,1.219-6.522,2.385-9.424,3.89-10.883L143.9,66.745Z" fill="#2b5c8b"/>
    <path id="Path_16054" data-name="Path 16054" d="M120.784,119.912h1.208c.405-.064.7-.181,1.119-.235a1.119,1.119,0,0,1,.979.235l.011.012h5.134c.129-.184.005-.612-.117-.926a.728.728,0,0,0-.48-.439,5.539,5.539,0,0,1-2.6-1.188c-.553-.5-2.67-1.837-2.67-1.837l-.011,0c-.047,0-.268.069-1.231.882-.5.42-1.346-.593-1.346-.593a1.214,1.214,0,0,0-.278.378,1.272,1.272,0,0,0-.111.788,5.112,5.112,0,0,1-.367,1.9c-.12.352-.221.6-.221.6s-.058.29.982.42" fill="#234662"/>
    <path id="Path_16055" data-name="Path 16055" d="M123.159,45.637s-1.852,4.531-3.988,8.942c-1.8,3.708-3.792,7.331-5.058,8.1-1.784,1.09-6.7,4.165-9.889,6.459,0,0-2.489-.019-2.875.457s-1.279,2.617-1.018,2.834a3.838,3.838,0,0,0,2.719-.377,4.5,4.5,0,0,1,1.585-.81l.043-.013.01,0c3.875-1.192,9.953-3.676,11.793-4.891,1.584-1.046,5.1-5.372,7.9-9.222h0a38.887,38.887,0,0,0,3.965-6.188c1.813-5.611-3.406-7.086-5.186-5.292" fill="#ffa77d"/>
    <path id="Path_16056" data-name="Path 16056" d="M132.846,27.867a9.187,9.187,0,0,0-.664-.857,2.073,2.073,0,0,0,.818-.123c.65-.269.946-2.333.849-2.945s-1-2.383-2.114-2.559-2.265,1.06-2.265,1.06c.206-.893,2.09-1.408,2.09-1.408-3.881.716-3.683,3.305-3.657,3.544C124.35,23.313,122.265,30,122.265,30l9.2,5.423s.024-1.478.9-1.383c1.369.149,2.509-3.214.476-6.177" fill="#284464"/>
    <path id="Path_16057" data-name="Path 16057" d="M133.432,41.906c-2.112,1-4.914-.438-4.9-.453.181-.181.118-.724-.048-1.432a10.436,10.436,0,0,0-1.282-2.957c-.151-.256-.3-.513-.483-.784l.241-.091,4.1-1.644s.664,1.192,1.357,2.278c.589.9,1.207,1.719,1.479,1.689.015-.015,2.729,1.855-.468,3.394" fill="#ffa77d"/>
    <path id="Path_16058" data-name="Path 16058" d="M131.064,34.953c-.106,1.463-.6,4.1-2.579,5.068a10.432,10.432,0,0,0-1.282-2.956Z" fill="#ed8b5d"/>
    <path id="Path_16059" data-name="Path 16059" d="M126.962,38.729s5.341-2.1,3.979-5.411-1.59-5.805-5.058-4.6-3.607,2.737-3.42,3.951,3.074,6.522,4.5,6.06" fill="#ffa77d"/>
    <path id="Path_16060" data-name="Path 16060" d="M128.955,32.564c2.466-.348,3.186-1.345,3.186-1.345a6.834,6.834,0,0,1-3.606-2.876,5.716,5.716,0,0,0-4.826.628,1.377,1.377,0,0,0-.26.579c-.471-.154-1.179-.114-1.587,1.217-.614,2,1.569,4.181,1.569,4.181.53-.149-.067-1.931-.151-2.882a4.5,4.5,0,0,1,.52-2.02c.261.339,2.863,3.609,6.04,3.74a13.376,13.376,0,0,1-3.206-1.722,4.1,4.1,0,0,0,2.321.5" fill="#284464"/>
    <path id="Path_16061" data-name="Path 16061" d="M143.6,48.718c-.045-.16-.094-.325-.145-.495a12.516,12.516,0,0,0,1.348-4.039,8.11,8.11,0,0,0-.256-3.952,27.014,27.014,0,0,0-5.341-2.215l-.02-.006-.066-.006a22.674,22.674,0,0,0-5.226.5,2.588,2.588,0,0,1-1.256,3.06c-1.946,1.224-4.024-.314-4.024-.314l-.2.138h0s-5.119,3.378-5.579,4.15-2.428,4.594-2.428,4.594.624,3.208,7.54,3.477a16.005,16.005,0,0,1,1.145,3.845c.549,4.356-.089,7.791.552,10.334s12.179,1.092,14.268.6,1.62-2.721,1.78-4.888c.2-2.724-1.414-12.384-2.094-14.787" fill="#69bbee"/>
    <path id="Path_16062" data-name="Path 16062" d="M144.8,44.184a12.544,12.544,0,0,1-1.357,4.057c-.181-.8-.92-3.725-2.112-5.053a10.213,10.213,0,0,1,3.469,1" fill="#4aa0d3"/>
    <path id="Path_16063" data-name="Path 16063" d="M97.822,72.728a36.517,36.517,0,0,1,2.612-2.913,7.935,7.935,0,0,1,2.61-.739c.116.109.121.266-.13.488s-1.212.783-1.075.846,3.034-1.379,3.452-.894-.237,2.487-1.353,3.447-4.449,1.37-4.659,1.5c-1.777,1.136-1.457-1.739-1.457-1.739" fill="#ed8b5d"/>
    <path id="Path_16064" data-name="Path 16064" d="M59.974,66.712S63.062,70.376,67,68.843a11.915,11.915,0,0,0,.858-3.554c0-.186,0-.366.007-.537.021-1.7.078-2.652.078-2.652h0c-.179-.074-6.012-2.469-6.007-2.27.1,4.594-1.953,6.883-1.953,6.883" fill="#ffa77d"/>
    <path id="Path_16065" data-name="Path 16065" d="M62.513,60.925a9.129,9.129,0,0,0,5.347,3.828c.021-1.7.079-2.652.079-2.652h0c-.162-.043-5.589-1.482-5.422-1.175" fill="#ed8b5d"/>
    <path id="Path_16066" data-name="Path 16066" d="M69.16,61.924S62.6,63.466,61.7,59.366s-2.348-6.662,1.8-7.82,5.31.228,5.942,1.523,1.4,8.348-.286,8.855" fill="#ffa77d"/>
    <path id="Path_16067" data-name="Path 16067" d="M61.927,60.483c-.09.057-1.5.491-4.174-4.834a4.638,4.638,0,0,1,.272-4.243c.979-1.6,4.447-2.854,7.329-3.4s3.573,1.075,4.252,2.7a8.8,8.8,0,0,0,2.769,3.119c-2.485,1.388-5.478-.6-6.514-.271s-1.4,1.961-1.481,2.485-.2.959-1.5.491-.589,1.848-.38,2.29c0,0,.177,1.18-.571,1.659" fill="#284464"/>
    <path id="Path_16068" data-name="Path 16068" d="M45.028,162.861H41.056c-.833,0-1.758-.845-1.99-2.392s-1.943-2.392-2.314-3.658,1.528-3.049,1.528-3.049l.317-.413.33-.431,3.147.75s.077.76.126,1.727c.034.7.052,1.5.013,2.213-.093,1.689.466,3.507,1.946,3.835s.869,1.418.869,1.418" fill="#284464"/>
    <path id="Path_16069" data-name="Path 16069" d="M72.681,162.9H62.152a.923.923,0,0,1-.224-.067c-.7-.362-.483-3.133-.4-3.989.016-.159.028-.252.028-.252s3.7-3.049,4.212-.714c.016.072.034.144.054.214v0c.643,2.184,3.516,3.176,5.176,3.453a1.824,1.824,0,0,1,1.681,1.353" fill="#284464"/>
    <path id="Path_16070" data-name="Path 16070" d="M70.558,102.011s-.562,7.015-1.223,15.448c-.9,11.456-1.979,25.527-2.085,28.193-.185,4.629-.926,12.033-.926,12.033s-1.758,1.759-5.276,1.017a121.137,121.137,0,0,1-4.031-21.753c-.014-.183-.028-.367-.041-.552-.833-11.385-2.129-35.358-2.129-35.358Z" fill="#42b9f3"/>
    <path id="Path_16071" data-name="Path 16071" d="M70.558,102.011s-.562,7.015-1.223,15.448l-12.318,19.49c-.014-.183-.028-.367-.041-.552-.833-11.385-2.129-35.358-2.129-35.358Z" fill="#3ca0d7"/>
    <path id="Path_16072" data-name="Path 16072" d="M67.991,102.844s-10.135,25.407-16.8,37.347-8.747,15.273-8.747,15.273-3.818-1.528-4.165-2.569c0,0,2.548-23.051,7.011-28.67,2.522-3.175,5.484-12.7,5.623-16.036s.9-9.927.9-9.927Z" fill="#42b9f3"/>
    <path id="Path_16073" data-name="Path 16073" d="M44.785,98.612a34.154,34.154,0,0,1-.455,3.66,7.461,7.461,0,0,1-1.622,1.976c-.148-.021-.237-.14-.162-.448s.517-1.257.377-1.233-1.606,2.7-2.19,2.549-1.156-2.052-.808-3.4,2.706-3.453,2.8-3.67c.764-1.835,2.064.562,2.064.562" fill="#ed8b5d"/>
    <path id="Path_16074" data-name="Path 16074" d="M43.7,99.417c1.122.36,1.3.279,1.3.279s5.46-9.941,6.013-10.851S62.6,77.7,62.6,77.7L59.768,67.118S47.212,83.378,45.856,85.711c-2.241,3.856-3.553,12.81-3.553,12.81a3.282,3.282,0,0,0,1.4.9" fill="#1e4f70"/>
    <path id="Path_16075" data-name="Path 16075" d="M72.7,81.851c-.039,2.173-.165,4.615-.336,7.1-.01.147-.021.294-.031.441-.109,1.537-.227,3.077-.363,4.579q-.081.9-.172,1.782l-.009.079c-.005.219-.032.456-.056.673-.553,5.626-1.134,10.071-1.241,10.139a.634.634,0,0,1-.432.11c-1.476-.185-5.878.149-9.482-.635a27.306,27.306,0,0,1-8.434-3.5c-.368-.218-1.208-.795-1.139-1.225.067-.474.191-1.159.348-2.019A109.15,109.15,0,0,0,53.164,85.21q.093-1.685.272-3.321A50.458,50.458,0,0,1,54.9,73.96c1.236-4.449,3.052-7.857,5.33-9.189.3-.167,1.9.852,3.37,1.8a6.49,6.49,0,0,0,4.179.99l1.224,1.354A13.666,13.666,0,0,1,72.5,76.189c.033.241.06.5.083.769a47.511,47.511,0,0,1,.115,4.893" fill="#2a6696"/>
    <path id="Path_16076" data-name="Path 16076" d="M72.7,81.851c-.039,2.173-.165,4.615-.336,7.1-.01.147-.021.294-.031.441C63.9,84.113,62.6,74.46,62.6,74.46a23.053,23.053,0,0,1,9.978,2.5,47.511,47.511,0,0,1,.115,4.893" fill="#1e4f70"/>
    <path id="Path_16077" data-name="Path 16077" d="M99.1,72.988c-.434-1.175-1.11-1.1-1.11-1.1s-12.53,3.123-13.655,3.257-13.493-4.83-13.493-4.83-4.868-2.185-7.148-.19A5.449,5.449,0,0,0,62.086,75.9a5.515,5.515,0,0,0,4.661,4.108c5.046.643,15.114,1.853,17.224,1.559,4.7-.654,15.338-6.8,15.338-6.8a3.95,3.95,0,0,0-.208-1.782" fill="#2a6696"/>
    <path id="Path_16078" data-name="Path 16078" d="M222.656,95.955s1.741,1.613,1.4,2.76-1.911,1.911-2.123,3.312-1.061,2.165-1.826,2.165h-3.643s-.563-.986.8-1.283,1.871-1.944,1.786-3.472a27.378,27.378,0,0,1,.127-3.567l2.887-.679Z" fill="#284464"/>
    <path id="Path_16079" data-name="Path 16079" d="M200.959,104a6.687,6.687,0,0,1-1.649.191h-8.24c.028-.245.22-1.119,1.567-1.336,1.522-.248,4.159-1.133,4.747-3.08.02-.062.037-.126.051-.19.467-2.081,3.863.636,3.863.636s.01.083.025.225c.079.765.28,3.232-.364,3.554" fill="#284464"/>
    <path id="Path_16080" data-name="Path 16080" d="M193.041,48.354s.516,6.436,1.122,14.173c.824,10.51,1.815,23.42,1.914,25.866.169,4.247.849,11.04.849,11.04s1.613,1.614,4.84.933a111.054,111.054,0,0,0,3.7-19.957c.013-.168.026-.338.038-.507.765-10.445,1.953-32.439,1.953-32.439Z" fill="#26518b"/>
    <path id="Path_16081" data-name="Path 16081" d="M193.041,48.354s.516,6.436,1.122,14.173l11.3,17.882c.013-.168.026-.338.038-.507.765-10.445,1.953-32.439,1.953-32.439Z" fill="#284464"/>
    <path id="Path_16082" data-name="Path 16082" d="M195.4,49.119s9.3,23.31,15.413,34.265,8.024,14.011,8.024,14.011,3.5-1.4,3.822-2.356c0,0-2.338-21.149-6.433-26.3-2.313-2.913-5.031-11.655-5.159-14.712s-.828-9.108-.828-9.108Z" fill="#26518b"/>
    <path id="Path_16083" data-name="Path 16083" d="M166.716,36.476a27.919,27.919,0,0,0-2.947-.548,6.112,6.112,0,0,0-1.929.771c-.02.12.051.218.307.236s1.1-.092,1.048.011-2.486.58-2.513,1.07,1.306,1.4,2.432,1.46,3.34-1.247,3.53-1.264c1.609-.14.072-1.736.072-1.736" fill="#ffa77d"/>
    <path id="Path_16084" data-name="Path 16084" d="M165.636,37.117c-.362-1.152-.277-1.336-.277-1.336s10.224-5.528,11.16-6.089,11.5-11.8,11.5-11.8l10.822,2.979S182.1,33.624,179.7,35c-3.966,2.27-13.151,3.555-13.151,3.555a3.363,3.363,0,0,1-.909-1.436" fill="#3ca0d7"/>
    <path id="Path_16085" data-name="Path 16085" d="M191.3,12.421s-3.794,6.675-7.5,7.548a10.127,10.127,0,0,1,1.057-3.776c-.37-.437-.694-.838-.976-1.2a22.373,22.373,0,0,1-1.377-1.929l1.259-3.384.854-2.3a10.931,10.931,0,0,0,1.334,1.923,9.069,9.069,0,0,0,5.351,3.109" fill="#ffa77d"/>
    <path id="Path_16086" data-name="Path 16086" d="M185.95,9.312A7.04,7.04,0,0,1,183.88,15a22.373,22.373,0,0,1-1.377-1.929l1.259-3.383a7.2,7.2,0,0,1,2.188-.373" fill="#ed8b5d"/>
    <path id="Path_16087" data-name="Path 16087" d="M181.5,13.561s5.669-2.209,4.238-5.719-1.662-6.156-5.342-4.895-3.833,2.888-3.64,4.175,3.233,6.924,4.744,6.439" fill="#ffa77d"/>
    <path id="Path_16088" data-name="Path 16088" d="M210.786,46.677c-2.287,3.288-19.384,7.68-19.181,5.405a24.716,24.716,0,0,0,0-4.489c-.042-.488-.1-1-.181-1.551a35.778,35.778,0,0,0-3.768-11.285q-.258-.5-.538-1.01a34.811,34.811,0,0,1-2.371-5.326c-1.185-3.423-1.662-6.7-1.064-8.84,0-.01.006-.019.009-.03,3.574-1.652,4.959-8.061,4.959-8.061s12.193,2.189,19.023,18.441c0,0,5.1,13.884,3.115,16.746" fill="#42b9f3"/>
    <path id="Path_16089" data-name="Path 16089" d="M191.6,47.593c-.043-.488-.1-1-.182-1.551a35.746,35.746,0,0,0-3.767-11.285,15.965,15.965,0,0,1,1.539-5.284c2.432-3.644,3.848-4.214,3.848-4.214s3.647,15.38-1.438,22.334" fill="#3ca0d7"/>
    <path id="Path_16090" data-name="Path 16090" d="M172.382,43.934a36.514,36.514,0,0,0-3.9.365,7.929,7.929,0,0,0-2.147,1.658c.019.157.142.255.47.186s1.35-.509,1.319-.361-2.914,1.617-2.773,2.242,2.14,1.29,3.576.964,3.748-2.759,3.981-2.848c1.971-.752-.53-2.206-.53-2.206" fill="#ffa77d"/>
    <path id="Path_16091" data-name="Path 16091" d="M171.746,45.213c-.676-1.092-.189-1.59-.189-1.59s10.42-8.158,11.237-8.982,4.6-13.948,4.6-13.948,1.3-5.311,4.351-5.9a5.585,5.585,0,0,1,5.68,2.338,5.651,5.651,0,0,1,.383,6.355c-2.661,4.483-8.028,13.381-9.6,14.9-3.488,3.383-15.158,8.112-15.158,8.112a4.051,4.051,0,0,1-1.309-1.291" fill="#42b9f3"/>
    <path id="Path_16092" data-name="Path 16092" d="M186.555,1.324c.04-.077.155-.161.437-.247a1.182,1.182,0,0,0-.571-.022A1.5,1.5,0,0,0,185.149,0a.9.9,0,0,1,.57.524c-.995-.63-2.838-.813-7.439.72-6.064,2.019-3.034,5.54-2.115,5.821s2.611-1.528,4.133-1.776,2.345,1.873,2.925,2.049.25-.306.858-.79.956.653.943,1.452S186.2,9.555,186.2,9.555l.695-1.274c.7-1.274.506-5.9-.158-6.733-.059-.073-.117-.148-.177-.224" fill="#2b5c8b"/>
    <path id="Path_16093" data-name="Path 16093" d="M90.705,162.727v6.863l-16.244-6.863Z" fill="#428cbc"/>
    <rect id="Rectangle_886" data-name="Rectangle 886" width="53.722" height="70.562" transform="translate(176.002 104.192)" fill="#4a92cb"/>
    <rect id="Rectangle_887" data-name="Rectangle 887" width="53.723" height="70.562" transform="translate(159.437 104.192)" fill="#69bbee"/>
    <path id="Path_16094" data-name="Path 16094" d="M229.725,104.192v10.551l-16.564-10.551Z" fill="#428cbc"/>
  </g>
</svg>
