<svg xmlns="http://www.w3.org/2000/svg" xmlns:xlink="http://www.w3.org/1999/xlink" width="136.622" height="150.271" viewBox="0 0 136.622 150.271">
  <defs>
    <clipPath id="clip-path">
      <rect id="Rectangle_1928" data-name="Rectangle 1928" width="136.622" height="150.271" fill="none"/>
    </clipPath>
  </defs>
  <g id="Group_2368" data-name="Group 2368" transform="translate(0 0)">
    <g id="Group_2367" data-name="Group 2367" transform="translate(0 0)" clip-path="url(#clip-path)">
      <path id="Path_18711" data-name="Path 18711" d="M61.854,121.527l-19.4-80.5,1.355-3.17,19.214,83.66a.341.341,0,0,1-.333.418h-.321a.535.535,0,0,1-.52-.409" transform="translate(30.84 27.498)" fill="#6fbfea"/>
      <path id="Path_18712" data-name="Path 18712" d="M3.262,101.445h0a.645.645,0,0,1-.637-.751L8.339,66.069h2.446L3.973,100.86a.725.725,0,0,1-.711.585" transform="translate(1.9 47.989)" fill="#6fbfea"/>
      <path id="Path_18713" data-name="Path 18713" d="M35,101.445h0a.645.645,0,0,1-.637-.751L40.08,66.069h2.448L35.716,100.86a.725.725,0,0,1-.711.585" transform="translate(24.956 47.989)" fill="#6fbfea"/>
      <path id="Path_18714" data-name="Path 18714" d="M71.134,103.394H2.91L17.046,14.783H85.269Z" transform="translate(2.114 10.738)" fill="#f3fbff"/>
      <rect id="Rectangle_1927" data-name="Rectangle 1927" width="78.352" height="2.607" transform="translate(0 113.457)" fill="#6fbfea"/>
      <path id="Path_18715" data-name="Path 18715" d="M37.506,31.083a14.283,14.283,0,0,1-.306,2.063c-1.424,6.332-7.061,11.183-13.433,11.2-7.05.012-12.33-5.9-11.791-13.215s6.69-13.246,13.74-13.258a11.843,11.843,0,0,1,4.16.734,11.673,11.673,0,0,1,1.664.772,11.488,11.488,0,0,1,3.012,2.469,11.815,11.815,0,0,1,1.277,1.782,10.729,10.729,0,0,1,.592,1.146,12.57,12.57,0,0,1,1.006,3.542,13.756,13.756,0,0,1,.112,1.937q-.008.412-.036.834" transform="translate(8.672 12.979)" fill="#b5e3fc"/>
      <path id="Path_18716" data-name="Path 18716" d="M31.039,24.137,19.355,30.472s4.822-8.49,6.8-11.732a11.522,11.522,0,0,1,3.012,2.47,11.739,11.739,0,0,1,1.279,1.782,11.551,11.551,0,0,1,.592,1.145" transform="translate(14.058 13.612)" fill="#fff"/>
      <path id="Path_18717" data-name="Path 18717" d="M31.316,23.012,20.644,28.8s4.4-7.755,6.211-10.715a10.54,10.54,0,0,1,2.752,2.255,10.957,10.957,0,0,1,1.169,1.628,11.073,11.073,0,0,1,.54,1.046" transform="translate(14.995 13.135)" fill="#28acde"/>
      <path id="Path_18718" data-name="Path 18718" d="M62.908,75.843l-56.153,0,5.685-32.4,56.153,0Zm-55.7-.33,55.36,0,5.569-31.746-55.358,0Z" transform="translate(4.906 31.553)" fill="#b5e3fc"/>
      <path id="Path_18719" data-name="Path 18719" d="M58.3,63.253l-49.8,0s8.834-4.737,11.257-4.488S25.66,60.926,27.9,61s4.665-6.65,7.157-6.332,3.432,6.263,4.722,5.683a13.065,13.065,0,0,1,7.4,0c2.232.834,5.485-2.646,7.447-2.538s3.67,5.438,3.67,5.438" transform="translate(6.17 39.701)" fill="#28acde"/>
      <path id="Path_18720" data-name="Path 18720" d="M19.434,54.334H9.922l.088-.506,9.512,0Z" transform="translate(7.207 39.098)" fill="#28acde"/>
      <path id="Path_18721" data-name="Path 18721" d="M19.325,54.958H9.812l.088-.506,9.512,0Z" transform="translate(7.127 39.551)" fill="#28acde"/>
      <path id="Path_18722" data-name="Path 18722" d="M10.146,53.841l49.8,0s-7.171-4.739-9.683-4.49S43.6,51.52,41.332,51.594,39,44.944,36.4,45.262s-5.63,6.263-6.717,5.681-4.875-.832-7.4,0-4.556-2.648-6.557-2.539-5.58,5.438-5.58,5.438" transform="translate(7.369 32.868)" fill="#b5e3fc"/>
      <path id="Path_18723" data-name="Path 18723" d="M20.991,45.463H11.478l.088-.506,9.512,0Z" transform="translate(8.337 32.654)" fill="#b5e3fc"/>
      <path id="Path_18724" data-name="Path 18724" d="M20.881,46.087H11.369l.088-.506,9.512,0Z" transform="translate(8.258 33.108)" fill="#b5e3fc"/>
      <path id="Path_18725" data-name="Path 18725" d="M12.935,45.13H10.751l1.9-10.235h2.184Z" transform="translate(7.809 25.345)" fill="#b5e3fc"/>
      <path id="Path_18726" data-name="Path 18726" d="M14.659,44.159H12.475l1.471-7.929h2.184Z" transform="translate(9.061 26.316)" fill="#b5e3fc"/>
      <path id="Path_18727" data-name="Path 18727" d="M16.382,44.3H14.2l1.533-8.269h2.184Z" transform="translate(10.313 26.173)" fill="#b5e3fc"/>
      <path id="Path_18728" data-name="Path 18728" d="M18.106,43.469H15.922l1.165-6.289h2.186Z" transform="translate(11.565 27.006)" fill="#b5e3fc"/>
      <path id="Path_18729" data-name="Path 18729" d="M19.83,43.662H17.646l1.25-6.748h2.186Z" transform="translate(12.817 26.813)" fill="#b5e3fc"/>
      <path id="Path_18730" data-name="Path 18730" d="M21.553,43.025H19.369l.97-5.233h2.184Z" transform="translate(14.069 27.45)" fill="#b5e3fc"/>
      <path id="Path_18731" data-name="Path 18731" d="M29.861,45.13H27.677l1.9-10.235h2.184Z" transform="translate(20.103 25.345)" fill="#28acde"/>
      <path id="Path_18732" data-name="Path 18732" d="M31.585,44.159H29.4L30.87,36.23h2.186Z" transform="translate(21.355 26.316)" fill="#28acde"/>
      <path id="Path_18733" data-name="Path 18733" d="M33.308,44.3H31.124l1.533-8.269h2.184Z" transform="translate(22.607 26.173)" fill="#28acde"/>
      <path id="Path_18734" data-name="Path 18734" d="M35.032,43.469H32.848l1.165-6.289H36.2Z" transform="translate(23.859 27.006)" fill="#28acde"/>
      <path id="Path_18735" data-name="Path 18735" d="M36.755,43.662H34.572l1.252-6.748h2.184Z" transform="translate(25.111 26.813)" fill="#28acde"/>
      <path id="Path_18736" data-name="Path 18736" d="M38.479,43.025H36.3l.97-5.233h2.184Z" transform="translate(26.363 27.45)" fill="#28acde"/>
      <path id="Path_18737" data-name="Path 18737" d="M38.026,21.878H30.915L31.1,20.9h7.111Z" transform="translate(22.455 15.184)" fill="#b5e3fc"/>
      <path id="Path_18738" data-name="Path 18738" d="M43.39,21.878H35.539l.183-.974h7.851Z" transform="translate(25.813 15.184)" fill="#b5e3fc"/>
      <path id="Path_18739" data-name="Path 18739" d="M45.434,21.878h-5l.183-.974h5Z" transform="translate(29.365 15.184)" fill="#b5e3fc"/>
      <path id="Path_18740" data-name="Path 18740" d="M47.66,21.878H43.8l.183-.974h3.862Z" transform="translate(31.812 15.184)" fill="#b5e3fc"/>
      <path id="Path_18741" data-name="Path 18741" d="M37.574,24.285H30.463l.183-.974h7.111Z" transform="translate(22.126 16.933)" fill="#b5e3fc"/>
      <path id="Path_18742" data-name="Path 18742" d="M42.938,24.285H35.087l.183-.974h7.851Z" transform="translate(25.485 16.933)" fill="#b5e3fc"/>
      <path id="Path_18743" data-name="Path 18743" d="M44.982,24.285h-5l.183-.974h5Z" transform="translate(29.037 16.933)" fill="#b5e3fc"/>
      <path id="Path_18744" data-name="Path 18744" d="M47.208,24.285H43.346l.183-.974h3.862Z" transform="translate(31.484 16.933)" fill="#b5e3fc"/>
      <path id="Path_18745" data-name="Path 18745" d="M42.071,20.562H31.163l.183-.974H42.254Z" transform="translate(22.635 14.228)" fill="#b5e3fc"/>
      <path id="Path_18746" data-name="Path 18746" d="M44.372,20.562H38.083l.183-.974h6.289Z" transform="translate(27.661 14.228)" fill="#b5e3fc"/>
      <path id="Path_18747" data-name="Path 18747" d="M49.223,20.562H42.24l.183-.974h6.983Z" transform="translate(30.681 14.228)" fill="#b5e3fc"/>
      <path id="Path_18748" data-name="Path 18748" d="M41.591,23.121H30.682l.183-.974H41.774Z" transform="translate(22.286 16.087)" fill="#b5e3fc"/>
      <path id="Path_18749" data-name="Path 18749" d="M43.892,23.121H37.6l.183-.974h6.289Z" transform="translate(27.312 16.087)" fill="#b5e3fc"/>
      <path id="Path_18750" data-name="Path 18750" d="M48.743,23.121H41.76l.183-.974h6.983Z" transform="translate(30.332 16.087)" fill="#b5e3fc"/>
      <path id="Path_18751" data-name="Path 18751" d="M37.122,26.693H30.011l.183-.974H37.3Z" transform="translate(21.798 18.681)" fill="#b5e3fc"/>
      <path id="Path_18752" data-name="Path 18752" d="M42.486,26.693H34.634l.183-.974h7.851Z" transform="translate(25.156 18.681)" fill="#b5e3fc"/>
      <path id="Path_18753" data-name="Path 18753" d="M44.53,26.693h-5l.183-.974h5Z" transform="translate(28.709 18.681)" fill="#b5e3fc"/>
      <path id="Path_18754" data-name="Path 18754" d="M46.756,26.693H42.894l.181-.974h3.864Z" transform="translate(31.156 18.681)" fill="#b5e3fc"/>
      <path id="Path_18755" data-name="Path 18755" d="M41.139,25.529H30.23l.183-.974H41.322Z" transform="translate(21.957 17.836)" fill="#b5e3fc"/>
      <path id="Path_18756" data-name="Path 18756" d="M43.44,25.529H37.151l.183-.974h6.289Z" transform="translate(26.984 17.836)" fill="#b5e3fc"/>
      <path id="Path_18757" data-name="Path 18757" d="M48.291,25.529H41.308l.183-.974h6.983Z" transform="translate(30.003 17.836)" fill="#b5e3fc"/>
      <path id="Path_18758" data-name="Path 18758" d="M36.7,28.95H29.587l.183-.974h7.111Z" transform="translate(21.49 20.321)" fill="#b5e3fc"/>
      <path id="Path_18759" data-name="Path 18759" d="M42.062,28.95H34.211l.183-.974h7.851Z" transform="translate(24.849 20.321)" fill="#b5e3fc"/>
      <path id="Path_18760" data-name="Path 18760" d="M44.106,28.95h-5l.183-.974h5Z" transform="translate(28.401 20.321)" fill="#b5e3fc"/>
      <path id="Path_18761" data-name="Path 18761" d="M46.332,28.95H42.47l.183-.974h3.862Z" transform="translate(30.848 20.321)" fill="#b5e3fc"/>
      <path id="Path_18762" data-name="Path 18762" d="M40.715,27.786H29.806l.183-.974H40.9Z" transform="translate(21.649 19.475)" fill="#b5e3fc"/>
      <path id="Path_18763" data-name="Path 18763" d="M43.016,27.786H36.727l.183-.974H43.2Z" transform="translate(26.676 19.475)" fill="#b5e3fc"/>
      <path id="Path_18764" data-name="Path 18764" d="M47.867,27.786H40.884l.183-.974H48.05Z" transform="translate(29.695 19.475)" fill="#b5e3fc"/>
      <path id="Path_18765" data-name="Path 18765" d="M25.8,35.976h-3.48l.09-.476h3.48Z" transform="translate(16.21 25.785)" fill="#b5e3fc"/>
      <path id="Path_18766" data-name="Path 18766" d="M28.423,35.976H24.58l.09-.476h3.843Z" transform="translate(17.853 25.785)" fill="#b5e3fc"/>
      <path id="Path_18767" data-name="Path 18767" d="M25.576,37.155H22.1l.09-.476h3.48Z" transform="translate(16.049 26.641)" fill="#b5e3fc"/>
      <path id="Path_18768" data-name="Path 18768" d="M28.2,37.155H24.359l.09-.476h3.843Z" transform="translate(17.693 26.641)" fill="#b5e3fc"/>
      <path id="Path_18769" data-name="Path 18769" d="M27.777,35.332h-5.34l.09-.476h5.34Z" transform="translate(16.297 25.317)" fill="#b5e3fc"/>
      <path id="Path_18770" data-name="Path 18770" d="M28.9,35.332H25.825l.09-.476h3.078Z" transform="translate(18.758 25.317)" fill="#b5e3fc"/>
      <path id="Path_18771" data-name="Path 18771" d="M27.542,36.585H22.2l.09-.476h5.34Z" transform="translate(16.127 26.227)" fill="#b5e3fc"/>
      <path id="Path_18772" data-name="Path 18772" d="M28.668,36.585H25.59l.09-.476h3.078Z" transform="translate(18.587 26.227)" fill="#b5e3fc"/>
      <path id="Path_18773" data-name="Path 18773" d="M41.947,35.976h-3.48l.09-.476h3.48Z" transform="translate(27.94 25.785)" fill="#b5e3fc"/>
      <path id="Path_18774" data-name="Path 18774" d="M44.572,35.976H40.729l.09-.476h3.843Z" transform="translate(29.583 25.785)" fill="#b5e3fc"/>
      <path id="Path_18775" data-name="Path 18775" d="M41.725,37.155h-3.48l.09-.476h3.48Z" transform="translate(27.779 26.641)" fill="#b5e3fc"/>
      <path id="Path_18776" data-name="Path 18776" d="M44.351,37.155H40.508l.09-.476h3.843Z" transform="translate(29.423 26.641)" fill="#b5e3fc"/>
      <path id="Path_18777" data-name="Path 18777" d="M43.927,35.332h-5.34l.09-.476h5.34Z" transform="translate(28.027 25.317)" fill="#b5e3fc"/>
      <path id="Path_18778" data-name="Path 18778" d="M45.053,35.332H41.975l.09-.476h3.078Z" transform="translate(30.488 25.317)" fill="#b5e3fc"/>
      <path id="Path_18779" data-name="Path 18779" d="M43.692,36.585h-5.34l.09-.476h5.34Z" transform="translate(27.857 26.227)" fill="#b5e3fc"/>
      <path id="Path_18780" data-name="Path 18780" d="M44.818,36.585H41.74l.09-.476h3.078Z" transform="translate(30.317 26.227)" fill="#b5e3fc"/>
      <path id="Path_18781" data-name="Path 18781" d="M57.958,90.628c-.123,1.666-2.472,1.683-5.139,1.374s-1.958.366-5.692.418-5.02-1.183-5.2-1.716c-.161-.473,1.638-.872,3.561-1.34.242-.059.485-.121.729-.181,2.168-.551,3.6-2.175,5.46-3.593,1.759-1.343,4.026-6.2,4.026-6.2l5.1-.231s-2.149,4.357-2.955,6.236a6.137,6.137,0,0,0-.066,3.5,6.566,6.566,0,0,1,.176,1.733" transform="translate(30.445 57.494)" fill="#ffa77d"/>
      <path id="Path_18782" data-name="Path 18782" d="M52.818,87.9c-2.667-.309-1.958.366-5.692.418s-5.02-1.183-5.2-1.716c-.161-.473,1.637-.872,3.561-1.34l.022.035a10.452,10.452,0,0,0,5.479.981c2.5-.25,5.063-1.3,6.791-1.485a6.567,6.567,0,0,1,.178,1.733c-.123,1.666-2.472,1.683-5.139,1.374" transform="translate(30.445 61.591)" fill="#204965"/>
      <path id="Path_18783" data-name="Path 18783" d="M78.364,92.263c-.121,1.666-2.47,1.687-5.138,1.379s-1.958.368-5.692.423-5.022-1.177-5.2-1.711c-.161-.473,1.637-.874,3.56-1.343.242-.059.485-.119.729-.181,2.168-.554,3.6-2.179,5.457-3.6,1.757-1.345,0-9.307,0-9.307l5.611-.546s-.269,6.7-.266,9.75a17.127,17.127,0,0,0,.763,3.4,6.547,6.547,0,0,1,.178,1.732" transform="translate(45.266 56.205)" fill="#ffa77d"/>
      <path id="Path_18784" data-name="Path 18784" d="M73.226,88.108c-2.667-.307-1.958.368-5.692.423s-5.022-1.177-5.2-1.711c-.161-.473,1.637-.874,3.56-1.343l.024.035a10.47,10.47,0,0,0,5.479.977c2.5-.254,5.062-1.3,6.791-1.492a6.547,6.547,0,0,1,.178,1.732c-.121,1.666-2.47,1.687-5.138,1.379" transform="translate(45.266 61.737)" fill="#204965"/>
      <path id="Path_18785" data-name="Path 18785" d="M62.266,10.877c-.965-3.972.435-5.823,1.7-6.807a6.03,6.03,0,0,1,1.982-2.914A7.179,7.179,0,0,1,69.817.416,1.813,1.813,0,0,0,69,.029a6,6,0,0,1,2.142.559C80.362-2.964,81.81,10.61,81.617,13.762s-.167,6.867,4.63,9.352C95.4,27.856,83.2,45.72,83.2,45.72c.233-2.548-11.525-16-17.66-20.024-1.493-2.2-2.023-6.082-2.063-6.387a16.741,16.741,0,0,0,1.255,5.778c-2.8-2.572-3.211-8.753-2.47-14.209" transform="translate(44.991 0.001)" fill="#204965"/>
      <path id="Path_18786" data-name="Path 18786" d="M64.239,18.822c-.031.014,2.962,1.568,5.214.951,2.116-.577,3.5-3.321,3.472-3.328-.9-.178-1.157-1.41-1.138-6.705l-.4.079-6.816,1.35s.154,2.146.159,4.166c.005,1.7-.1,3.306-.487,3.487" transform="translate(46.659 7.075)" fill="#ffa77d"/>
      <path id="Path_18787" data-name="Path 18787" d="M64.429,11.136s.155,2.146.159,4.166c3.815-.107,5.832-3.587,6.657-5.516Z" transform="translate(46.797 7.108)" fill="#ed8b5d"/>
      <path id="Path_18788" data-name="Path 18788" d="M48.4,112.821A1.672,1.672,0,0,0,49.915,115l2.662.126,2.817.086a2.262,2.262,0,0,0,1.825-.832A79.248,79.248,0,0,0,70.587,89.067q.179-.562.375-1.138c2.773-8.086,8.523-18.235,11.551-27.423.483-1.464.915-2.842,1.305-4.145.124-.416.245-.829.361-1.231A97.416,97.416,0,0,0,87.652,36.84l-21.874.174A481.851,481.851,0,0,1,48.4,112.821" transform="translate(35.096 26.759)" fill="#2b5c8b"/>
      <path id="Path_18789" data-name="Path 18789" d="M61.541,41.587c.054,10.41-1.53,14.876-1.53,14.876a29.4,29.4,0,0,0,20.5,1.255c.133-.041,7.965-2.258,7.965-2.258-.185-.421-1.735-7.387-1.915-7.774-2.35-5.046-2.992-7.166-3.271-8.718a33.137,33.137,0,0,1-.271-8.721,70.021,70.021,0,0,1,2.7-13.7,71.239,71.239,0,0,1-9.03-3.087,7.042,7.042,0,0,1-4.87,1.806c-2.22-.048-2.938-1-2.823-2.034-2.363,1.315-4.249,2.557-4.249,2.557-2.009,3.489-6.08,6.876-6.377,12.228C58.3,29.337,61.537,41.3,61.541,41.587" transform="translate(42.395 9.615)" fill="#fff"/>
      <path id="Path_18790" data-name="Path 18790" d="M72.486,37.942c.956,1.353,2.79,9.579,7.351,10.614-2.35-5.863-4.135-8.433-4.414-10.235a44.542,44.542,0,0,1-.271-10.13c-1.526-2.678-2.665-4.511-2.665-4.511-.119-.433-2.427-7.565-3.166-1.191s2.1,13.94,3.166,15.454" transform="translate(50.262 14.42)" fill="#4b9ba9"/>
      <path id="Path_18791" data-name="Path 18791" d="M64.956,18.082s9.024.15,9.03-5.471S75.162,3.224,69.4,2.89,62.516,4.7,62.057,6.578s.551,11.323,2.9,11.5" transform="translate(44.996 2.075)" fill="#ffa77d"/>
      <path id="Path_18792" data-name="Path 18792" d="M63.884,3.277s2.47,6.595,6.263,7.57,5.436-.041,5.436-.041A10.737,10.737,0,0,1,72.07,4.461S65.748.138,63.884,3.277" transform="translate(46.401 1.551)" fill="#204965"/>
      <path id="Path_18793" data-name="Path 18793" d="M66.161,3.558a7.961,7.961,0,0,0-2.294,2.9c-.451,1.431-.653,4.378-1.512,4.278,0,0-1.861-4.482.231-7.018,2.218-2.69,3.575-.164,3.575-.164" transform="translate(44.737 1.804)" fill="#204965"/>
      <path id="Path_18794" data-name="Path 18794" d="M57.259,33.845,53,46.839l2.431.975,7.047-11.48Z" transform="translate(38.494 24.583)" fill="#ffa77d"/>
      <path id="Path_18795" data-name="Path 18795" d="M67.4,14.275s-5.025,1.994-6.481,5.1-3.656,23.965-4.533,26.107-1.536,3.838-1.536,3.838a10.486,10.486,0,0,0,5.082,2.291c2.548.157,7.468-37.339,7.468-37.339" transform="translate(39.841 10.369)" fill="#28a1de"/>
      <path id="Path_18796" data-name="Path 18796" d="M70.274,13.237s-5.22,12.9-5.374,15.508-.615,42.687-.615,42.687.307,1.842-3.225,1.074-4.452-1.535-4.452-1.535,3.378-24.721,2.457-33.32,7.062-22.622,7.062-22.622Z" transform="translate(41.117 9.615)" fill="#28a1de"/>
      <path id="Path_18797" data-name="Path 18797" d="M50.785,108.459l3.059.093a1.764,1.764,0,0,0,1.419-.64A78.917,78.917,0,0,0,68.8,82.4c.119-.376.243-.754.375-1.138,2.772-8.086,8.521-18.235,11.551-27.423.483-1.464.915-2.842,1.3-4.145.124-.416.247-.829.361-1.231l-3.221-2.444S69.493,61.68,66.5,76.418c-2.6,12.8-13.017,28.21-15.713,32.041" transform="translate(36.887 33.426)" fill="#234662"/>
      <path id="Path_18798" data-name="Path 18798" d="M67.934,79.541c-.052,6.781.269,21.893,1.094,29.282a1.336,1.336,0,0,0,1.328,1.186h2.282c.962,0,1.681-.007,2.16-.014a.88.88,0,0,0,.848-.71c2.27-11.551,3.895-21.146,5.084-29.438.994-6.94,1.878-12.891,2.558-18.013.685-5.155,1.162-9.471,1.331-13.117q.041-.862.057-1.676c.012-.546.014-1.074.01-1.588l-18.9-1.844c.238,12.559,2.18,31.765,2.149,35.93" transform="translate(47.782 31.677)" fill="#2b5c8b"/>
      <path id="Path_18799" data-name="Path 18799" d="M69.755,107.86c.865,0,1.533-.005,2.006-.012a1.065,1.065,0,0,0,1.031-.86C75.046,95.5,76.662,85.955,77.845,77.7c1-6.94,1.88-12.891,2.56-18.013.685-5.155,1.16-9.471,1.331-13.117L74.8,50.649s4.426,1.561,2.738,13.384-5.433,42.152-7.784,43.827" transform="translate(50.666 33.826)" fill="#234662"/>
      <path id="Path_18800" data-name="Path 18800" d="M71.956,70.553s1.331,4.811,5.937,4.2S89.05,71.372,89.05,71.372s-1.968-6.22-4.416-14.392C81.67,47.087,78,34.333,76.273,26.288a49.639,49.639,0,0,1-.939-5.485l-3.822-7.415s-5.7,12.789-6.006,16.014,6.45,41.151,6.45,41.151" transform="translate(47.572 9.725)" fill="#28a1de"/>
      <path id="Path_18801" data-name="Path 18801" d="M79.393,28.923,74.348,13.389A77.967,77.967,0,0,1,83.917,16.9s2,2.577,3.235,8.521c0,0,1.307,14.273-1.611,19.494,0,0-9.213,1.842-23.953-3.225V38.309s16.122.844,19.423,1.229Z" transform="translate(44.734 9.725)" fill="#ffa77d"/>
      <path id="Path_18802" data-name="Path 18802" d="M69.358,30.731c.205,5.22,1.435,15.354,12.386,20.78.029.014.059.029.088.041-2.964-9.894-6.633-22.648-8.361-30.691-2.011,3.006-4.226,7-4.114,9.869" transform="translate(50.374 15.153)" fill="#1889b5"/>
      <path id="Path_18803" data-name="Path 18803" d="M69.207,13.389s9.35.659,11.6,5.674,2.968,21.7.1,26.615c0,0-3.946,1.124-10.926-.181l-.257-.05S67.5,40,69.5,38.922c0,0,5.887.307,5.272-1.637s-5.562-23.9-5.562-23.9" transform="translate(49.875 9.725)" fill="#28a1de"/>
      <path id="Path_18804" data-name="Path 18804" d="M55.4,31.041l.274.886,15.344-4.773a.591.591,0,0,0,.1-.542.437.437,0,0,0-.38-.344Z" transform="translate(40.24 19.08)" fill="#204965"/>
      <path id="Path_18805" data-name="Path 18805" d="M54.758,29.87l1.11-.837.274.886Z" transform="translate(39.773 21.088)" fill="#204965"/>
      <path id="Path_18806" data-name="Path 18806" d="M55.3,41.166s-3.893,2.151-4.4,3.789-.161,5.07.457,5.018,1.54-3.687,2.051-3.943,1.229-1.024,1.229-.461-.511,1.588-.256,1.742,1.076-1.435,1.638-1.742.8-2.84,1.348-3.52-2.065-.884-2.065-.884" transform="translate(36.792 29.901)" fill="#ffa77d"/>
      <path id="Path_18807" data-name="Path 18807" d="M65.3,28.6s-3.48-2.144-4.941-1.814-5.181,3.026-3.391,3.61,3.239-.029,3.927.394,1.2,1.2,4.4,1.189,0-3.378,0-3.378" transform="translate(41.028 19.432)" fill="#ffa77d"/>
    </g>
  </g>
</svg>
